<svg xmlns="http://www.w3.org/2000/svg" width="200" height="200"><g fill="none" fill-rule="evenodd"><path d="M0 0h200v200H0z"/><g fill="#EA475B"><path fill-opacity=".12" d="M117 88h4v24h-4z"/><path fill-rule="nonzero" d="M119.682 101v-.633h.353v-.38h-.353v-1.83h-.49l-1.227 1.921.014.29h1.228V101h.475zm-.475-1.014h-.744l.709-1.125.035-.062v1.187z"/></g><g stroke="#EA475B" stroke-linecap="round" stroke-width=".4"><path d="M62.5 123.274v2M136.5 123.274v2M62.5 124.274h74"/></g><path fill="#EA475B" fill-rule="nonzero" d="M85.769 132l.668-2.177.68 2.177h.586l.864-3.17h-.694l-.504 2.189-.66-2.189h-.536l-.65 2.165-.513-2.165h-.694l.867 3.17h.586zm3.677-3.618c.129 0 .228-.036.299-.107a.366.366 0 00.105-.268c0-.11-.035-.2-.105-.273-.07-.072-.17-.108-.3-.108-.128 0-.227.036-.297.108a.378.378 0 00-.104.273c0 .107.035.197.104.268.07.071.169.107.298.107zM89.8 132v-3.17h-.712V132h.712zm1.887.059c.355 0 .64-.13.853-.387l.035.328h.644v-4.5h-.712v1.623a1.035 1.035 0 00-.814-.352c-.381 0-.685.148-.911.444-.227.296-.34.688-.34 1.177 0 .513.115.92.344 1.218.23.3.53.449.901.449zm.182-.58a.604.604 0 01-.53-.271c-.123-.181-.185-.433-.185-.755 0-.367.062-.642.187-.825a.608.608 0 01.534-.274c.29 0 .501.127.632.381v1.354a.672.672 0 01-.638.39zm3.093.58c.15 0 .307-.023.47-.068v-.55c-.085.019-.168.029-.25.029-.123 0-.208-.027-.256-.08-.048-.055-.072-.142-.072-.263v-1.77h.56v-.527h-.56v-.77h-.712v.77h-.521v.527h.521v1.796c0 .604.274.906.82.906zM96.66 132v-2.265a.686.686 0 01.638-.38c.184 0 .323.045.418.136.095.09.142.245.142.464V132h.712v-2.071c-.01-.772-.353-1.158-1.028-1.158-.356 0-.65.135-.882.405V127.5h-.712v4.5h.712zm3.058-2.455c.133 0 .236-.037.308-.11a.378.378 0 00.108-.277.392.392 0 00-.108-.283c-.072-.075-.175-.112-.308-.112a.403.403 0 00-.304.112.392.392 0 00-.109.283c0 .113.037.206.112.279a.414.414 0 00.301.108zm0 2.487c.133 0 .236-.036.308-.11a.378.378 0 00.108-.276.392.392 0 00-.108-.283c-.072-.075-.175-.113-.308-.113a.403.403 0 00-.304.113.392.392 0 00-.109.283c0 .113.037.206.112.278a.414.414 0 00.301.108zm3.636.027c.328 0 .605-.119.832-.355.023.137.05.235.082.296h.727v-.05c-.08-.17-.12-.397-.12-.682v-1.43c-.006-.338-.12-.6-.34-.787-.221-.186-.517-.28-.888-.28-.244 0-.465.043-.664.13a1.152 1.152 0 00-.47.355.79.79 0 00-.173.488h.712c0-.125.052-.228.156-.309a.627.627 0 01.398-.122c.187 0 .327.05.419.148.092.1.138.23.138.394v.208h-.437c-.467 0-.826.09-1.077.271-.25.181-.376.44-.376.778 0 .268.1.492.302.674.2.182.46.273.779.273zm.132-.572a.528.528 0 01-.365-.121.416.416 0 01-.136-.327c0-.168.066-.298.2-.39.132-.091.33-.137.594-.137h.384v.597a.685.685 0 01-.28.276.81.81 0 01-.397.102zm3.164.572c.385 0 .682-.123.89-.37l.018.311h.671v-3.17h-.712v2.276c-.121.248-.354.373-.7.373-.334 0-.501-.202-.501-.604v-2.045h-.712v2.054c0 .38.088.672.265.873.177.201.437.302.78.302zm3.305 0c.15 0 .306-.023.468-.068v-.55c-.084.019-.167.029-.249.029-.123 0-.208-.027-.256-.08-.048-.055-.072-.142-.072-.263v-1.77h.56v-.527h-.56v-.77h-.712v.77h-.521v.527h.521v1.796c0 .604.274.906.82.906zm2.338 0c.292 0 .55-.068.774-.203.224-.134.396-.325.516-.57.12-.247.18-.526.18-.839l-.003-.167c-.021-.455-.165-.82-.432-1.095-.266-.276-.614-.414-1.041-.414-.29 0-.545.067-.768.201a1.348 1.348 0 00-.518.574 1.87 1.87 0 00-.185.84v.035c0 .496.134.893.403 1.19.268.299.626.448 1.074.448zm0-.569a.657.657 0 01-.563-.277c-.135-.184-.202-.44-.202-.766 0-.367.068-.643.205-.827a.653.653 0 01.554-.277.66.66 0 01.56.281c.138.188.207.441.207.762 0 .361-.067.635-.2.823a.65.65 0 01-.561.281z"/><path d="M62 112h75v8H62z"/><g><path d="M136.5 88h8v24h-8z"/><g stroke="#EA475B" stroke-linecap="round" stroke-width=".4"><path d="M144.5 89h2M144.5 111h2M145.5 89v22"/></g><path fill="#EA475B" fill-rule="nonzero" d="M153.688 102v-.568h-1.981l1.043-1.117c.273-.296.47-.562.59-.795.12-.233.18-.457.18-.67 0-.367-.12-.654-.358-.862-.24-.208-.566-.312-.98-.312-.287 0-.54.057-.76.173a1.22 1.22 0 00-.507.484 1.395 1.395 0 00-.178.702h.712c0-.244.064-.436.19-.577.128-.14.306-.21.537-.21.193 0 .347.062.461.187.114.125.172.289.172.492a.928.928 0 01-.13.461 3.538 3.538 0 01-.439.573l-1.42 1.55V102h2.867zm2.95 0v-.95h.53v-.57h-.53v-2.746h-.736l-1.84 2.883.021.434h1.843V102h.712zm-.712-1.52h-1.116l1.063-1.688.053-.094v1.781z"/></g><g transform="translate(121 92)"><circle cx="8" cy="8" r="7.9" stroke="#EA475B" stroke-width=".2" fill="#fff"/><circle cx="8" cy="8" r="6" fill="#EA475B" fill-opacity=".12"/><path fill="#EA475B" fill-rule="nonzero" d="M7.225 9V6.146h-.06l-1.11.409v.4l.697-.238V9h.473zm1.959.04a.88.88 0 00.669-.27c.17-.179.254-.413.254-.702 0-.28-.072-.508-.217-.685a.728.728 0 00-.595-.266.77.77 0 00-.584.24c.03-.26.124-.461.283-.603.159-.142.371-.215.637-.219h.058v-.392h-.048c-.456 0-.805.14-1.048.423s-.364.674-.364 1.172V7.9c0 .34.088.615.264.825a.86.86 0 00.69.314zm-.004-.384a.405.405 0 01-.344-.186c-.089-.125-.133-.292-.133-.503v-.145A.514.514 0 019.18 7.5c.138 0 .248.054.332.162a.668.668 0 01.125.42c0 .172-.041.31-.123.416a.4.4 0 01-.334.158z"/></g></g></svg>