<svg xmlns="http://www.w3.org/2000/svg" xmlns:xlink="http://www.w3.org/1999/xlink" width="422" height="360"><defs><path id="d" d="M0 0h366a8 8 0 018 8v304H0V0z"/><path id="e" d="M0 0h366a8 8 0 018 8v304H0V0z"/><path id="h" d="M0 0h374v64H0z"/><filter id="c" width="113.9%" height="116.7%" x="-7%" y="-7.1%" filterUnits="objectBoundingBox"><feOffset dy="4" in="SourceAlpha" result="shadowOffsetOuter1"/><feGaussianBlur in="shadowOffsetOuter1" result="shadowBlurOuter1" stdDeviation="8"/><feColorMatrix in="shadowBlurOuter1" values="0 0 0 0 0 0 0 0 0 0 0 0 0 0 0 0 0 0 0.12 0"/></filter><filter id="g" width="101.9%" height="110.9%" x="-.9%" y="-3.9%" filterUnits="objectBoundingBox"><feOffset dy="1" in="SourceAlpha" result="shadowOffsetOuter1"/><feGaussianBlur in="shadowOffsetOuter1" result="shadowBlurOuter1" stdDeviation="1"/><feComposite in="shadowBlurOuter1" in2="SourceAlpha" operator="out" result="shadowBlurOuter1"/><feColorMatrix in="shadowBlurOuter1" values="0 0 0 0 0 0 0 0 0 0 0 0 0 0 0 0 0 0 0.12 0"/></filter><rect id="a" width="422" height="360" x="0" y="0" rx="4"/></defs><g fill="none" fill-rule="evenodd"><mask id="b" fill="#fff"><use xlink:href="#a"/></mask><use fill="#000" fill-opacity="0" xlink:href="#a"/><g mask="url(#b)"><g transform="translate(0 48)"><use fill="#000" filter="url(#c)" xlink:href="#d"/><mask id="f" fill="#fff"><use xlink:href="#e"/></mask><use fill="#FFF" xlink:href="#e"/><path fill="#000000" fill-opacity=".56" fill-rule="nonzero" d="M312.991 105.256l.85-.85-.855-.856-.85.85.855.856zM310.748 111c.525 0 1.045-.049 1.56-.146a12.443 12.443 0 001.495-.378c.481-.155.942-.328 1.382-.52.44-.19.852-.382 1.234-.573.261-.13.511-.252.751-.368.24-.117.482-.225.726-.326l-.199-.992a3.07 3.07 0 01-.641-.067 5.132 5.132 0 01-.637-.18 8.437 8.437 0 01-.634-.253 29.4 29.4 0 01-.623-.287 73.315 73.315 0 00-.559-.256 7.597 7.597 0 00-.542-.222 4.228 4.228 0 00-.524-.154 2.34 2.34 0 00-.51-.057c-.337 0-.657.082-.962.245a2.96 2.96 0 00-.863.736 3.54 3.54 0 00-.248.328 8.464 8.464 0 00-.183.287 2.657 2.657 0 00-.159.298l.94.422a2.764 2.764 0 01.193-.342c.062-.095.137-.198.224-.307.087-.11.185-.212.294-.308.11-.096.23-.175.358-.237a.919.919 0 01.407-.094c.108 0 .226.016.355.05.128.032.265.077.41.132.144.056.293.12.448.19l.477.222c.212.101.428.2.647.298.22.097.449.188.689.271-.397.198-.809.391-1.237.58-.427.187-.866.354-1.314.5a11.26 11.26 0 01-1.367.352 7.355 7.355 0 01-1.388.133h-1.132V111h1.132zm-.924 0v-1.023h-.104c-.22 0-.408-.022-.566-.067a.814.814 0 01-.357-.188.435.435 0 01-.139-.269 2.819 2.819 0 01-.018-.331v-2.62a36.417 36.417 0 00-.107-2.749 7.733 7.733 0 00-.08-.652l-1.023.188a6.5 6.5 0 01.08.628c.023.256.042.535.058.838.015.302.027.615.034.939.007.323.01.635.01.934a76.853 76.853 0 010 1.612 158.575 158.575 0 00-.01.777c0 .084.001.184.005.3a2.015 2.015 0 00.185.76c.061.132.149.255.264.37.187.188.416.327.686.417.27.09.595.136.978.136h.104zm-5.53-5.692l.85-.85-.855-.856-.85.85.855.856zm-.835 5.692c.285 0 .55-.02.796-.057.245-.039.467-.105.665-.199.198-.094.373-.219.524-.375.152-.157.28-.353.384-.59.104-.24.156-.518.156-.835 0-.055-.001-.111-.005-.167a5.826 5.826 0 00-.271-1.335 6.775 6.775 0 00-.167-.483 10.547 10.547 0 00-.287-.673 1.284 1.284 0 01-.047-.107l-.929.46.454 1.116a3.393 3.393 0 01.235.89c.007.092.01.16.01.205 0 .084-.005.162-.015.235a1.012 1.012 0 01-.079.277.934.934 0 01-.26.341 1.096 1.096 0 01-.366.186c-.139.041-.294.067-.464.075-.17.009-.356.013-.558.013h-.605V111h.83zm-.626 0v-1.023h-.104c-.244 0-.435-.034-.574-.101-.14-.068-.25-.196-.334-.384a1.045 1.045 0 01-.047-.138 5.103 5.103 0 01-.084-.363c-.034-.17-.074-.398-.12-.683a34.108 34.108 0 01-.253-2.053l-.022-.22-.022-.208a263.976 263.976 0 00-.057-.54v.005l-1.023.214.018.19.06.582c-.097.035-.212.08-.344.133-.132.054-.272.12-.42.199-.148.078-.3.168-.46.27-.157.103-.31.22-.458.35-.148.13-.287.278-.418.441-.13.164-.242.343-.336.538a1.174 1.174 0 00-.073.255 1.63 1.63 0 00-.026.287v.094c.003.129.025.261.065.397.04.135.109.26.206.375.351.435.976.653 1.873.653.17 0 .349-.008.535-.024a8.38 8.38 0 00.608-.076c.184.296.414.508.688.637.181.083.363.136.546.16.182.022.34.033.472.033h.104zm-2.945-1.743h-.034c-.122 0-.242-.007-.36-.02a1.622 1.622 0 01-.384-.081.71.71 0 01-.276-.17.38.38 0 01-.107-.276c0-.112.03-.219.089-.321.059-.103.136-.2.232-.29.095-.09.203-.174.323-.25.12-.077.242-.147.366-.212.123-.064.242-.121.357-.172l.297-.128c.056.446.106.814.149 1.106.043.293.086.54.128.741-.09.018-.201.033-.331.047a3.912 3.912 0 01-.483.026h.034z" mask="url(#f)"/><path fill="#000000" fill-opacity=".56" d="M284.208 108l2.583-2.583a.669.669 0 10-.947-.946l-3.056 3.056a.67.67 0 000 .946l3.056 3.056a.667.667 0 00.947 0 .669.669 0 000-.946L284.208 108z" mask="url(#f)"/><path fill="#000000" fill-opacity=".56" fill-rule="nonzero" d="M265.748 111c.525 0 1.045-.049 1.56-.146a12.443 12.443 0 001.495-.378c.481-.155.942-.328 1.382-.52.44-.19.852-.382 1.234-.573.261-.13.511-.252.751-.368.24-.117.482-.225.726-.326l-.199-.992a3.07 3.07 0 01-.641-.067 5.132 5.132 0 01-.637-.18 8.437 8.437 0 01-.634-.253 29.4 29.4 0 01-.623-.287 73.315 73.315 0 00-.559-.256 7.597 7.597 0 00-.542-.222 4.228 4.228 0 00-.524-.154 2.34 2.34 0 00-.51-.057c-.337 0-.657.082-.962.245a2.96 2.96 0 00-.863.736 3.54 3.54 0 00-.248.328 8.464 8.464 0 00-.183.287 2.657 2.657 0 00-.159.298l.94.422a2.764 2.764 0 01.193-.342c.062-.095.137-.198.224-.307.087-.11.185-.212.294-.308.11-.096.23-.175.358-.237a.919.919 0 01.407-.094c.108 0 .226.016.355.05.128.032.265.077.41.132.144.056.293.12.448.19l.477.222c.212.101.428.2.647.298.22.097.449.188.689.271-.397.198-.809.391-1.237.58-.427.187-.866.354-1.314.5a11.26 11.26 0 01-1.367.352 7.355 7.355 0 01-1.388.133h-1.132V111h1.132zm-7.503.016c.17 0 .333-.026.488-.076.155-.05.3-.122.438-.214s.265-.2.381-.323a2.77 2.77 0 00.316-.405c.129.31.323.554.584.733.261.18.565.269.913.269.178 0 .345-.026.501-.078a1.68 1.68 0 00.793-.559c.104-.132.191-.28.261-.443.09.167.2.317.329.449.128.132.27.245.425.339.155.094.319.166.493.216.174.05.351.076.532.076h.125v-1.023h-.125c-.25 0-.477-.105-.68-.315-.204-.21-.376-.53-.515-.958a4.11 4.11 0 01-.122-.443 6.995 6.995 0 01-.12-.76 25.943 25.943 0 01-.034-.346l-1.023.083c.007.125.013.256.018.392a9.284 9.284 0 01.003.647 5.828 5.828 0 01-.052.602c-.028.2-.074.381-.138.543-.065.161-.15.292-.259.391a.585.585 0 01-.412.149.581.581 0 01-.412-.141.825.825 0 01-.222-.365 1.602 1.602 0 01-.078-.407 3.986 3.986 0 01.013-.673c.014-.192.035-.374.063-.548.028-.174.05-.322.068-.444l-1.018-.193c-.017.16-.042.34-.076.54a6.157 6.157 0 01-.33 1.213 2.43 2.43 0 01-.277.527 1.423 1.423 0 01-.373.37c-.141.095-.3.142-.478.142a.386.386 0 01-.326-.146.719.719 0 01-.14-.337 2.405 2.405 0 01-.024-.556c.01-.187.03-.373.06-.555a10.922 10.922 0 01.175-.874l-1.002-.277a8.64 8.64 0 00-.068.298c-.024.114-.057.24-.097.378-.04.137-.087.283-.143.438a4.344 4.344 0 01-.203.472 3.531 3.531 0 01-.267.42c-.1.138-.21.261-.33.37-.12.11-.25.198-.387.264a.97.97 0 01-.425.1h-.11V111h.11a1.934 1.934 0 001.028-.284c.146-.089.28-.196.401-.321.122-.125.237-.265.345-.418a1.427 1.427 0 001.403 1.039zm-3.078-.016v-1.023h-.104c-.22 0-.408-.022-.566-.067a.814.814 0 01-.358-.188.435.435 0 01-.138-.269 2.819 2.819 0 01-.018-.331v-2.62a36.413 36.413 0 00-.107-2.749 7.734 7.734 0 00-.081-.652l-1.023.188a6.5 6.5 0 01.081.628c.023.256.042.535.057.838.016.302.027.615.034.939.007.323.01.635.01.934a76.853 76.853 0 010 1.612 158.303 158.303 0 00-.01.718v.148l.006.211a2.015 2.015 0 00.185.76c.06.132.148.255.263.37.188.188.417.327.686.417.27.09.596.136.979.136h.104zm-8.583 0a10.38 10.38 0 001.403-.11 11.247 11.247 0 001.545-.336c.24-.071.465-.15.673-.237a3.82 3.82 0 00.548-.277c.164-.104.29-.208.378-.31a.833.833 0 00.178-.306 1.037 1.037 0 00.039-.407 3.715 3.715 0 00-.084-.474 4.878 4.878 0 00-.258-.79 9.67 9.67 0 00-.326-.7 7.543 7.543 0 00-.284-.506 6.609 6.609 0 01-.133-.217l-.866.564a6.219 6.219 0 01.248.394c.067.116.141.25.221.402.08.15.156.31.227.477.071.167.134.336.188.509.054.172.088.336.102.493a4.749 4.749 0 01-.947.399c-.34.102-.681.183-1.026.242-.344.06-.681.1-1.012.123-.33.023-.633.034-.908.034-.973-.004-1.765-.097-2.373-.28-.61-.182-.999-.444-1.17-.784a1.024 1.024 0 01-.104-.465c0-.191.042-.401.126-.631a2.015 2.015 0 01.156-.357 4.14 4.14 0 01.183-.3l-.83-.616-.057.086a4.17 4.17 0 00-.258.457c-.05.104-.1.219-.15.344a2.913 2.913 0 00-.203 1.033c0 .33.073.636.22.918.257.518.744.917 1.46 1.195.755.278 1.755.423 3 .433h.094zm-.114 2.718l.85-.85-.856-.856-.85.85.856.856z" mask="url(#f)"/><path fill="#000000" fill-opacity=".56" d="M228.208 108l2.583-2.583a.669.669 0 10-.947-.946l-3.056 3.056a.67.67 0 000 .946l3.056 3.056a.667.667 0 00.947 0 .669.669 0 000-.946L228.208 108z" mask="url(#f)"/><path fill="#000000" fill-opacity=".56" fill-rule="nonzero" d="M212.017 114.663c.359-.056.71-.142 1.054-.259.345-.116.672-.26.984-.433.311-.172.602-.373.871-.602.27-.23.507-.486.712-.767.205-.282.374-.589.506-.921.133-.332.218-.69.256-1.072a4.831 4.831 0 00.005-.95 5.168 5.168 0 00-.172-.913 4.328 4.328 0 00-.326-.822 3.207 3.207 0 00-.467-.675c-.414-.446-.868-.668-1.362-.668-.222 0-.437.056-.644.17-.207.112-.4.279-.577.498a2.901 2.901 0 00-.38.67c-.108.26-.177.49-.207.694-.03.204-.044.371-.044.504 0 .139.012.278.037.417.041.264.142.497.302.699.362.449.92.696 1.675.74.191.018.363.027.514.027h.592c-.038.26-.145.526-.32.796-.176.27-.416.524-.718.764a5.16 5.16 0 01-1.09.647c-.425.191-.905.34-1.44.449l.24 1.007zm2.865-4.697l-.084.001c-.153 0-.316-.005-.49-.016a2.63 2.63 0 01-.222-.023 1.854 1.854 0 01-.26-.058 1.226 1.226 0 01-.251-.104.614.614 0 01-.196-.17.489.489 0 01-.107-.247 1.826 1.826 0 01-.018-.232 2.37 2.37 0 01.295-1.09c.071-.123.152-.223.242-.3a.433.433 0 01.287-.118c.063 0 .122.01.178.031.055.02.108.048.159.08.05.034.097.07.14.11.044.04.083.078.118.113.087.1.171.22.253.357.082.137.156.291.222.462.066.17.12.355.162.553.041.198.067.408.078.631a6.1 6.1 0 01-.506.02zm-7.581 4.77c.292-.143.58-.304.863-.483.284-.18.553-.375.809-.587.256-.212.492-.438.71-.678.217-.24.405-.492.563-.757.158-.264.282-.538.37-.821a2.927 2.927 0 00.097-1.35 7.46 7.46 0 00-.091-.487 14.851 14.851 0 00-.12-.5 71.534 71.534 0 01-.128-.504 7.76 7.76 0 00-.13-.478c-.05-.158-.098-.319-.147-.482l-.99.313a28.013 28.013 0 01.385 1.315c.042.15.08.299.115.448.035.15.063.296.086.438.023.143.034.279.034.407 0 .338-.082.665-.245.981-.164.317-.38.616-.65.898a5.97 5.97 0 01-.92.78c-.345.238-.7.448-1.065.628l.454.919zm-4.764-.073c.359-.056.71-.142 1.054-.259.345-.116.672-.26.984-.433.311-.172.602-.373.871-.602.27-.23.507-.486.712-.767.205-.282.374-.589.506-.921.133-.332.218-.69.256-1.072a4.831 4.831 0 00.005-.95 5.168 5.168 0 00-.172-.913 4.328 4.328 0 00-.326-.822 3.207 3.207 0 00-.467-.675c-.414-.446-.868-.668-1.362-.668-.222 0-.437.056-.644.17-.207.112-.4.279-.577.498a2.901 2.901 0 00-.38.67c-.108.26-.177.49-.207.694-.03.204-.044.371-.044.504 0 .139.012.278.037.417.041.264.142.497.302.699.362.449.92.696 1.675.74.191.018.363.027.514.027h.592c-.038.26-.145.526-.32.796-.176.27-.416.524-.718.764a5.16 5.16 0 01-1.09.647c-.425.191-.905.34-1.44.449l.24 1.007zm2.865-4.697l-.084.001c-.153 0-.316-.005-.49-.016a2.63 2.63 0 01-.222-.023 1.854 1.854 0 01-.26-.058 1.226 1.226 0 01-.251-.104.614.614 0 01-.196-.17.489.489 0 01-.107-.247 1.826 1.826 0 01-.018-.232 2.37 2.37 0 01.295-1.09c.071-.123.152-.223.242-.3a.433.433 0 01.287-.118c.063 0 .122.01.178.031.055.02.108.048.159.08.05.034.097.07.14.11.044.04.083.078.118.113.087.1.171.22.253.357.082.137.156.291.222.462.066.17.12.355.162.553.041.198.067.408.078.631a6.1 6.1 0 01-.506.02zm-6.543 1.029c.209 0 .418-.016.629-.047.21-.031.413-.082.608-.151.194-.07.376-.16.545-.27.169-.109.316-.24.44-.393a1.264 1.264 0 00.271-.553c.029-.122.044-.261.045-.418a2.41 2.41 0 00-.06-.526 3.792 3.792 0 00-.237-.681 5.52 5.52 0 00-.38-.7 6.908 6.908 0 00-1.057-1.28 5.968 5.968 0 00-.608-.506 3.66 3.66 0 00-.618-.366l-.423.95c.156.07.316.163.48.282.163.118.324.254.483.407.158.153.31.317.456.493.146.175.28.356.4.542.12.186.222.372.307.559.085.186.147.364.185.534.028.126.042.233.042.324 0 .125-.026.219-.078.282a1.082 1.082 0 01-.439.318c-.173.07-.33.11-.47.122a2.997 2.997 0 01-.72-.008 4.434 4.434 0 01-1.215-.33 3.171 3.171 0 01-.464-.243l-.428.98c.087.08.224.16.412.24a6.322 6.322 0 001.302.378c.228.04.425.06.592.06z" mask="url(#f)"/><path fill="#000000" fill-opacity=".56" d="M183.208 108l2.583-2.583a.669.669 0 10-.947-.946l-3.056 3.056a.67.67 0 000 .946l3.056 3.056a.667.667 0 00.947 0 .669.669 0 000-.946L183.208 108z" mask="url(#f)"/><path fill="#000000" fill-opacity=".56" fill-rule="nonzero" d="M168.729 111c.285 0 .56-.02.827-.057.266-.039.51-.105.733-.199.222-.094.42-.219.592-.375.172-.157.31-.353.415-.59.104-.24.156-.518.156-.835 0-.055-.002-.111-.005-.167a5.826 5.826 0 00-.271-1.335 6.775 6.775 0 00-.167-.483 10.547 10.547 0 00-.287-.673 1.284 1.284 0 01-.047-.107l-.929.46.454 1.116a3.393 3.393 0 01.235.89c.007.092.01.16.01.205 0 .084-.005.162-.015.235a1.012 1.012 0 01-.079.277.817.817 0 01-.292.341c-.125.082-.27.144-.433.186-.163.041-.34.067-.532.075a12.99 12.99 0 01-.59.013h-1.007V111h1.232zm1.988 2.718l.855-.855-.845-.846-.856.856.846.845zm-2.28.01l.855-.855-.845-.85-.856.855.846.85zm1.163 1.493l.777-.778-.772-.772-.777.778.772.772zm-6.443-.37c.438-.22.864-.477 1.278-.773a6.813 6.813 0 001.103-.978c.322-.357.58-.742.775-1.156.195-.414.292-.848.292-1.304v-.02c.087.093.178.166.274.218a1.265 1.265 0 00.535.157c.076.003.139.005.188.005h.088v-1.023h-.083a.937.937 0 01-.477-.125 1.41 1.41 0 01-.415-.394c-.132-.179-.261-.41-.386-.694a11.278 11.278 0 01-.386-1.03l-.981.303c.041.128.092.29.151.482.06.193.118.4.177.618.06.22.114.443.165.67.05.229.088.442.112.64a1.947 1.947 0 01-.057.704 2.707 2.707 0 01-.285.673 3.5 3.5 0 01-.467.619 6.03 6.03 0 01-.605.56c-.22.178-.452.344-.7.499-.246.155-.495.296-.745.425l.449.923zm-2.85-3.856c.21 0 .42-.016.63-.047.21-.031.413-.082.607-.151.195-.07.377-.16.546-.27.168-.109.315-.24.44-.393a1.264 1.264 0 00.271-.553c.029-.122.043-.261.045-.418a2.41 2.41 0 00-.06-.526 3.792 3.792 0 00-.237-.681 5.52 5.52 0 00-.381-.7 6.908 6.908 0 00-1.057-1.28 5.968 5.968 0 00-.608-.506 3.66 3.66 0 00-.618-.366l-.422.95c.156.07.316.163.48.282.163.118.324.254.482.407a6.2 6.2 0 01.457.493c.146.175.279.356.399.542.12.186.222.372.308.559.085.186.147.364.185.534.028.126.042.233.042.324 0 .125-.026.219-.079.282a1.082 1.082 0 01-.438.318c-.174.07-.33.11-.47.122a2.997 2.997 0 01-.72-.008 4.434 4.434 0 01-1.215-.33 3.171 3.171 0 01-.464-.243l-.428.98c.087.08.224.16.412.24.188.08.395.154.62.22.227.066.454.119.682.159.227.04.425.06.592.06zm-3.646.052a24.43 24.43 0 00.086-1.633c.009-.511.013-.92.013-1.226l-.001-.388a94.84 94.84 0 00-.015-1.24 47.688 47.688 0 00-.266-3.798l-1.022.156c.118 1.096.212 2.487.281 4.174.01.289.016.595.016.918 0 .268-.003.548-.01.84-.018.647-.054 1.36-.11 2.14l1.028.057zm-7.002-5.791l.85-.85-.855-.856-.85.85.855.856zM147.416 111c.525 0 1.045-.049 1.56-.146a12.443 12.443 0 001.494-.378c.482-.155.943-.328 1.383-.52.44-.19.851-.382 1.234-.573.26-.13.511-.252.751-.368.24-.117.482-.225.725-.326l-.198-.992a3.07 3.07 0 01-.642-.067 5.131 5.131 0 01-.636-.18 8.437 8.437 0 01-.634-.253 29.4 29.4 0 01-.623-.287 73.315 73.315 0 00-.559-.256 7.597 7.597 0 00-.542-.222 4.228 4.228 0 00-.525-.154 2.34 2.34 0 00-.508-.057c-.338 0-.659.082-.963.245a2.96 2.96 0 00-.863.736 3.54 3.54 0 00-.248.328 8.464 8.464 0 00-.183.287 2.657 2.657 0 00-.159.298l.94.422a2.764 2.764 0 01.193-.342c.062-.095.137-.198.224-.307.086-.11.185-.212.294-.308.11-.096.229-.175.358-.237a.919.919 0 01.407-.094c.107 0 .226.016.354.05.13.032.266.077.41.132.144.056.294.12.449.19l.477.222c.212.101.428.2.647.298.22.097.449.188.689.271-.397.198-.809.391-1.237.58-.428.187-.866.354-1.315.5a11.26 11.26 0 01-1.367.352 7.355 7.355 0 01-1.387.133h-1.133V111h1.133zm-8.38-4.283l.846-.846-.856-.855-.845.85.856.85zm2.14.01l.845-.85-.856-.85-.845.844.856.856zm-1.513 4.289c1.979 0 3.427-.48 4.346-1.44.076.212.184.401.323.568.435.56 1.105.846 2.009.856h.146v-1.023h-.13c-.567-.003-.973-.16-1.216-.47a1.044 1.044 0 01-.22-.437 2.591 2.591 0 01-.067-.47v-.042a4.347 4.347 0 01.117-.76l.06-.231-.991-.271a8.945 8.945 0 01-.154.48 3.921 3.921 0 01-.209.485c-.081.16-.18.315-.294.464a2.31 2.31 0 01-.413.412c-.358.293-.807.506-1.346.64-.539.133-1.193.2-1.961.2-.86-.003-1.558-.094-2.095-.27-.538-.178-.91-.446-1.12-.804a1.266 1.266 0 01-.166-.43 2.27 2.27 0 01-.037-.384c0-.046.002-.089.005-.13.007-.157.03-.307.066-.45.036-.142.074-.267.112-.375.038-.108.073-.195.104-.261s.047-.1.047-.104l-.902-.496a3.212 3.212 0 00-.15.326 6.021 6.021 0 00-.252.785 2.44 2.44 0 00-.078.43 3.47 3.47 0 00-.005.592c.013.182.047.363.101.544.054.18.131.356.232.527.313.528.817.915 1.51 1.16.695.246 1.57.372 2.628.379zm-8.604 0c.122 0 .256-.006.402-.016a4.084 4.084 0 00.85-.154c.132-.04.247-.09.345-.149.365-.194.637-.439.816-.733.18-.294.269-.613.269-.957 0-.46-.16-.911-.48-1.357a2.196 2.196 0 00-.454-.438 5.995 5.995 0 00-.676-.433 14.212 14.212 0 00-.834-.428c-.301-.142-.614-.285-.937-.428l-1.816-.746-.495.94.412.161c-.209.101-.388.229-.538.384-.15.155-.273.321-.373.5a2.33 2.33 0 00-.29 1.109c0 .254.066.518.197.79.13.274.326.551.586.833a8.014 8.014 0 01-.662.063c-.129.006-.272.012-.43.015-.159.004-.342.005-.551.005h-.14V111h.14c.247 0 .503-.005.767-.016.264-.01.523-.027.777-.05.254-.022.497-.052.728-.09a4.98 4.98 0 00.624-.141c.295.118.587.2.874.245.287.045.583.068.89.068zm-1.816-1.43a3.548 3.548 0 01-.375-.284 2.2 2.2 0 01-.31-.329 1.559 1.559 0 01-.212-.373 1.126 1.126 0 01-.078-.417c0-.157.033-.32.099-.49a1.57 1.57 0 01.274-.46c.116-.136.24-.235.373-.297a.88.88 0 01.376-.094c.062 0 .127.007.193.02.15.032.27.088.362.17a.878.878 0 01.214.282c.05.106.084.217.1.334.015.116.023.227.023.331a1.794 1.794 0 01-.577 1.304c-.13.122-.284.223-.462.303zm1.717.428a2.682 2.682 0 01-.48-.037 3.13 3.13 0 00.36-.459c.108-.167.2-.336.274-.508.075-.173.133-.344.175-.514.041-.17.062-.329.062-.475 0-.104-.001-.216-.005-.334a1.514 1.514 0 00-.063-.376c.247.115.463.242.647.381.185.14.339.281.462.425.124.145.217.288.28.43a.993.993 0 01.093.397c0 .143-.032.28-.096.41a.894.894 0 01-.313.342 1.768 1.768 0 01-.561.232 3.49 3.49 0 01-.835.086zm-4.492.986v-1.023h-.105c-.219 0-.407-.022-.566-.067a.814.814 0 01-.357-.188.435.435 0 01-.138-.269 2.819 2.819 0 01-.019-.331v-2.62a36.417 36.417 0 00-.106-2.749 7.733 7.733 0 00-.081-.652l-1.023.188a6.5 6.5 0 01.08.628c.024.256.043.535.058.838.016.302.027.615.034.939.007.323.01.635.01.934.004.306.006.596.006.871v.203l-.005.538a158.575 158.575 0 00-.01.718v.148c0 .063.002.134.004.211a2.015 2.015 0 00.185.76c.062.132.15.255.264.37.188.188.417.327.686.417.27.09.596.136.978.136h.105zm-11.974 3.663c.358-.056.71-.142 1.054-.259.344-.116.672-.26.983-.433.312-.172.602-.373.872-.602.27-.23.507-.486.712-.767.205-.282.374-.589.506-.921.132-.332.217-.69.256-1.072a4.831 4.831 0 00.005-.95 5.168 5.168 0 00-.172-.913 4.328 4.328 0 00-.327-.822 3.207 3.207 0 00-.466-.675c-.414-.446-.868-.668-1.362-.668-.223 0-.438.056-.645.17-.207.112-.399.279-.576.498a2.901 2.901 0 00-.381.67c-.108.26-.176.49-.206.694-.03.204-.044.371-.044.504 0 .139.012.278.036.417.042.264.143.497.303.699.361.449.92.696 1.675.74.19.018.362.027.513.027h.593c-.039.26-.146.526-.321.796-.176.27-.415.524-.718.764a5.16 5.16 0 01-1.09.647c-.424.191-.904.34-1.44.449l.24 1.007zm2.865-4.697l-.084.001c-.153 0-.317-.005-.49-.016a2.63 2.63 0 01-.222-.023 1.854 1.854 0 01-.261-.058 1.226 1.226 0 01-.25-.104.614.614 0 01-.196-.17.489.489 0 01-.107-.247 1.826 1.826 0 01-.019-.232 2.37 2.37 0 01.295-1.09c.072-.123.152-.223.243-.3a.433.433 0 01.287-.118c.062 0 .122.01.177.031.056.02.109.048.16.08.05.034.097.07.14.11.044.04.083.078.118.113.087.1.17.22.253.357.081.137.155.291.221.462.066.17.12.355.162.553.042.198.068.408.078.631a6.1 6.1 0 01-.505.02zm-7.942 1.081c.05-.577.078-1.122.086-1.633a75.742 75.742 0 00-.002-2.854 47.688 47.688 0 00-.266-3.798l-1.023.156c.118 1.096.212 2.487.282 4.174.01.289.016.595.016.918 0 .268-.004.548-.01.84-.018.647-.055 1.36-.11 2.14l1.027.057zm-8.034-.047l1.241-.01c.55 0 1.039-.013 1.466-.04.428-.026.808-.06 1.14-.104a11.686 11.686 0 001.537-.3l-.125-.991-.384.078c-.12.024-.241.045-.365.063a10.697 10.697 0 01-.952.088c-.188 0-.369-.026-.543-.078a1.685 1.685 0 01-.56-.282 1.453 1.453 0 01-.39-.454 1.215 1.215 0 01-.145-.594c0-.16.026-.314.078-.462a1.108 1.108 0 01.616-.668c.153-.068.33-.102.532-.102.177 0 .337.019.48.055.142.037.274.087.394.151.12.065.232.14.336.225.104.085.21.176.318.274l.642-.788a13.24 13.24 0 00-.464-.365 3.17 3.17 0 00-.485-.3 2.64 2.64 0 00-1.221-.274 2.2 2.2 0 00-.895.18 2.228 2.228 0 00-1.184 1.205c-.113.273-.17.563-.17.869 0 .313.051.598.154.855.103.258.28.501.535.73l-1.586.016V111zm-3.079-4.94l.846-.846-.856-.856-.845.85.855.851zm2.14.01l.845-.85-.856-.851-.845.845.855.856zm-2.73 4.93c.328 0 .612-.013.854-.04.242-.025.453-.065.634-.12a1.948 1.948 0 00.835-.487c.15.191.34.347.573.467.233.12.526.18.877.18h.104v-1.023h-.104a.737.737 0 01-.436-.12.856.856 0 01-.266-.302 1.429 1.429 0 01-.138-.397 3.685 3.685 0 01-.057-.407 16 16 0 00-.094-.902 4.9 4.9 0 00-.152-.71l-.98.277c.076.264.129.499.159.704.03.205.044.407.044.605 0 .209-.035.392-.104.548a.942.942 0 01-.326.391c-.148.105-.34.183-.574.235a3.964 3.964 0 01-.848.078h-.778V111h.778zm-4.262 0c.511 0 .941-.053 1.289-.16.348-.105.631-.268.85-.487.15.191.341.347.574.467.233.12.525.18.877.18h.104v-1.023h-.104a.737.737 0 01-.436-.12.856.856 0 01-.266-.302 1.429 1.429 0 01-.138-.397 3.685 3.685 0 01-.058-.407 16.002 16.002 0 00-.094-.902 4.9 4.9 0 00-.15-.71l-.982.277c.077.264.13.499.16.704.029.205.044.407.044.605 0 .414-.132.726-.397.937-.264.21-.688.315-1.273.315h-.193V111h.193zm1.665 2.718l.85-.85-.856-.856-.85.85.856.856zM93.467 111v-1.023h-.104c-.219 0-.407-.022-.566-.067a.814.814 0 01-.357-.188.435.435 0 01-.138-.269 2.819 2.819 0 01-.019-.331v-2.62a36.415 36.415 0 00-.106-2.749 7.734 7.734 0 00-.081-.652l-1.023.188a6.5 6.5 0 01.08.628c.024.256.043.535.058.838.016.302.027.615.034.939.007.323.01.635.01.934.004.306.006.596.006.871v.203l-.005.538a158.525 158.525 0 00-.01.718v.148c0 .063.002.134.004.211a2.015 2.015 0 00.185.76c.062.132.15.255.264.37.188.188.417.327.686.417.27.09.596.136.978.136h.105zm-7.434 3.736c.292-.143.58-.304.864-.483.283-.18.553-.375.808-.587.256-.212.492-.438.71-.678.217-.24.405-.492.563-.757.159-.264.282-.538.37-.821a2.927 2.927 0 00.097-1.35 7.46 7.46 0 00-.091-.487 14.85 14.85 0 00-.12-.5 71.528 71.528 0 01-.128-.504 7.76 7.76 0 00-.13-.478c-.049-.158-.098-.319-.146-.482l-.992.313a28.014 28.014 0 01.386 1.315c.042.15.08.299.115.448.035.15.064.296.086.438.023.143.034.279.034.407 0 .338-.082.665-.245.981-.164.317-.38.616-.65.898a5.97 5.97 0 01-.92.78c-.345.238-.7.448-1.065.628l.454.919z" mask="url(#f)"/><path fill="#000000" fill-opacity=".56" d="M73.208 108l2.583-2.583a.669.669 0 10-.947-.946l-3.056 3.056a.67.67 0 000 .946l3.056 3.056a.667.667 0 00.947 0 .669.669 0 000-.946L73.208 108z" mask="url(#f)"/><path mask="url(#f)" d="M-16 96h78v24h-78z"/><path fill="#000000" fill-opacity=".32" fill-rule="nonzero" d="M61.197 111.047c.048-.577.077-1.122.086-1.633a75.745 75.745 0 00-.003-2.854 47.688 47.688 0 00-.266-3.798l-1.023.156c.119 1.096.212 2.487.282 4.174.01.289.016.595.016.918 0 .268-.004.548-.01.84-.018.647-.055 1.36-.11 2.14l1.028.057zM53.162 111l1.241-.01c.55 0 1.039-.013 1.467-.04.427-.026.807-.06 1.14-.104a11.686 11.686 0 001.536-.3l-.125-.991-.384.078c-.12.024-.241.045-.365.063a10.697 10.697 0 01-.952.088c-.188 0-.369-.026-.543-.078a1.685 1.685 0 01-.56-.282 1.453 1.453 0 01-.39-.454 1.215 1.215 0 01-.145-.594c0-.16.026-.314.078-.462a1.108 1.108 0 01.616-.668c.153-.068.33-.102.532-.102.177 0 .337.019.48.055.142.037.274.087.394.151.12.065.232.14.336.225.105.085.21.176.319.274l.641-.788a13.24 13.24 0 00-.464-.365 3.17 3.17 0 00-.485-.3 2.64 2.64 0 00-1.221-.274 2.2 2.2 0 00-.895.18 2.228 2.228 0 00-1.184 1.205c-.113.273-.17.563-.17.869 0 .313.051.598.154.855.103.258.28.501.535.73l-1.586.016V111zm-3.079-4.94l.846-.846-.856-.856-.845.85.855.851zm2.14.01l.845-.85-.856-.851-.845.845.856.856zm-2.73 4.93c.328 0 .612-.013.854-.04.242-.025.453-.065.634-.12a1.948 1.948 0 00.835-.487c.15.191.34.347.574.467.233.12.525.18.876.18h.104v-1.023h-.104a.737.737 0 01-.436-.12.856.856 0 01-.266-.302 1.429 1.429 0 01-.138-.397 3.685 3.685 0 01-.057-.407 16.002 16.002 0 00-.094-.902 4.9 4.9 0 00-.152-.71l-.98.277c.076.264.13.499.159.704.03.205.044.407.044.605 0 .209-.035.392-.104.548a.942.942 0 01-.326.391c-.148.105-.34.183-.574.235a3.964 3.964 0 01-.848.078h-.777V111h.777zm-4.262 0c.512 0 .941-.053 1.289-.16.348-.105.631-.268.85-.487.15.191.341.347.574.467.233.12.526.18.877.18h.104v-1.023h-.104a.737.737 0 01-.436-.12.856.856 0 01-.266-.302 1.429 1.429 0 01-.138-.397 3.685 3.685 0 01-.058-.407 16.002 16.002 0 00-.093-.902 4.9 4.9 0 00-.152-.71l-.98.277c.076.264.129.499.159.704.03.205.044.407.044.605 0 .414-.132.726-.397.937-.264.21-.688.315-1.273.315h-.193V111h.193zm1.665 2.718l.85-.85-.856-.856-.85.85.856.856zM45.247 111v-1.023h-.104c-.22 0-.408-.022-.566-.067a.814.814 0 01-.358-.188.435.435 0 01-.138-.269 2.819 2.819 0 01-.018-.331v-2.62a36.414 36.414 0 00-.107-2.749 7.734 7.734 0 00-.081-.652l-1.023.188a6.5 6.5 0 01.081.628c.023.256.042.535.057.838.016.302.027.615.034.939.007.323.01.635.01.934.004.306.006.596.006.871v.203l-.005.538a158.552 158.552 0 00-.01.718v.148c0 .063.002.134.005.211a2.015 2.015 0 00.185.76c.06.132.148.255.263.37.188.188.417.327.686.417.27.09.596.136.979.136h.104zm-7.435 3.736c.292-.143.58-.304.864-.483.283-.18.553-.375.808-.587.256-.212.493-.438.71-.678.217-.24.405-.492.563-.757.159-.264.282-.538.37-.821a2.927 2.927 0 00.097-1.35 7.461 7.461 0 00-.091-.487 14.85 14.85 0 00-.12-.5 71.523 71.523 0 01-.128-.504 7.76 7.76 0 00-.13-.478c-.049-.158-.098-.319-.146-.482l-.992.313a28.014 28.014 0 01.386 1.315c.042.15.08.299.115.448.035.15.064.296.086.438.023.143.034.279.034.407 0 .338-.081.665-.245.981-.163.317-.38.616-.65.898a5.97 5.97 0 01-.92.78c-.345.238-.7.448-1.065.628l.454.919zM31.395 111c.285 0 .55-.02.795-.057.246-.039.467-.105.666-.199.198-.094.373-.219.524-.375.151-.157.28-.353.383-.59.105-.24.157-.518.157-.835 0-.055-.002-.111-.005-.167a5.826 5.826 0 00-.272-1.335 6.775 6.775 0 00-.166-.483 10.547 10.547 0 00-.287-.673 1.284 1.284 0 01-.047-.107l-.93.46.455 1.116a3.393 3.393 0 01.235.89c.007.092.01.16.01.205 0 .084-.005.162-.016.235a1.012 1.012 0 01-.078.277.934.934 0 01-.26.341 1.096 1.096 0 01-.366.186c-.14.041-.294.067-.464.075-.17.009-.357.013-.559.013h-.605V111h.83zm.855 2.718l.85-.85-.855-.856-.85.85.855.856zM30.774 111v-1.023h-.104c-.22 0-.408-.022-.567-.067a.814.814 0 01-.357-.188.435.435 0 01-.138-.269 2.819 2.819 0 01-.018-.331v-2.62a36.414 36.414 0 00-.107-2.749 7.734 7.734 0 00-.081-.652l-1.023.188a6.5 6.5 0 01.081.628c.023.256.042.535.057.838.016.302.027.615.034.939.007.323.01.635.01.934.004.306.006.596.006.871v.203l-.005.538a158.579 158.579 0 00-.01.718v.148c0 .063.002.134.005.211a2.015 2.015 0 00.185.76c.06.132.148.255.263.37.188.188.417.327.686.417.27.09.596.136.979.136h.104zm-7.085-6.736l.845-.845-.856-.856-.845.85.856.851zm2.139.01l.845-.85-.856-.85-.845.845.856.856zM22.624 111c.345-.003.684-.017 1.018-.04.334-.022.653-.063.957-.122.304-.059.588-.14.85-.242.263-.103.496-.236.7-.4.203-.163.371-.361.503-.594.132-.233.22-.508.261-.825a3.748 3.748 0 00.016-.845 4.459 4.459 0 00-.16-.822 3.975 3.975 0 00-.305-.75 3.085 3.085 0 00-.427-.62c-.376-.406-.794-.61-1.253-.61-.208 0-.41.052-.605.154-.195.103-.37.259-.527.467-.275.355-.46.797-.558 1.326a2.72 2.72 0 00-.031.39v.09c.007.146.026.276.057.39.031.116.071.217.12.306s.097.164.146.227c.09.115.2.217.329.305.128.089.271.163.428.222.156.06.323.103.5.133.178.03.36.044.548.044h.527l-.083.094a1.09 1.09 0 01-.11.105c-.083.07-.214.139-.391.208a4.51 4.51 0 01-.65.19 8.171 8.171 0 01-.871.142c-.325.036-.68.054-1.062.054h-.104V111h.177zm2.865-2.849c-.157 0-.324-.003-.501-.01a2.06 2.06 0 01-.42-.068.756.756 0 01-.303-.156.475.475 0 01-.151-.23.918.918 0 01-.018-.428c.031-.177.075-.334.133-.47.057-.135.119-.25.185-.344a.87.87 0 01.198-.211.314.314 0 01.172-.07c.098 0 .189.03.274.09.085.062.156.123.212.186.177.198.319.447.425.746.106.3.171.617.195.955-.114.007-.248.01-.401.01zm-7.555 6.25c.23 0 .487-.015.772-.046.285-.032.573-.084.864-.157.29-.073.573-.168.847-.284.275-.117.52-.26.736-.43.216-.171.39-.371.522-.6a1.589 1.589 0 00.182-1.028 1.097 1.097 0 00-.083-.272c-.042-.094-.1-.19-.175-.29a1.767 1.767 0 00-.29-.294h1.347v-1.023h-4.117l-.078 1.018.115.02a7.277 7.277 0 01.5.115c.105.028.217.06.337.094.12.035.24.073.363.115.198.073.365.146.5.22.136.072.247.141.332.205a.8.8 0 01.185.183.283.283 0 01.057.149c0 .17-.058.32-.174.448-.117.129-.266.24-.446.334-.181.094-.384.173-.608.238a6.537 6.537 0 01-1.26.234 5.418 5.418 0 01-.428.024c-.174 0-.373-.004-.597-.01a3.804 3.804 0 01-.679-.084 2.59 2.59 0 01-.657-.237 1.461 1.461 0 01-.53-.473c-.219-.333-.328-.768-.328-1.304 0-.845.273-1.939.819-3.282l-.955-.386c-.546 1.322-.842 2.456-.887 3.402a6.398 6.398 0 00-.005.256c0 .761.168 1.39.506 1.883.16.271.366.49.618.655.252.165.527.293.824.383.298.09.608.15.932.18.323.03.636.045.939.045zM7.525 111c.212 0 .412-.01.6-.031.188-.021.365-.061.532-.12.167-.06.325-.145.473-.256.147-.111.29-.26.425-.443.16.118.334.233.522.347.187.113.383.208.586.286a2.254 2.254 0 00.843.17c.143 0 .285-.02.428-.057.226-.063.417-.175.574-.337.156-.162.28-.351.37-.569.09-.217.146-.416.167-.597.021-.18.032-.327.032-.438 0-.125-.01-.247-.027-.365a3.157 3.157 0 00-.185-.69 2.148 2.148 0 00-.357-.604c-.15-.178-.33-.321-.54-.43a1.554 1.554 0 00-.728-.165c-.23 0-.43.046-.603.138a1.696 1.696 0 00-.459.36 2.75 2.75 0 00-.36.506c-.106.19-.206.382-.3.577-.108.215-.215.425-.32.628a2.548 2.548 0 01-.376.543c-.145.158-.32.285-.525.38-.205.097-.462.144-.772.144h-.104V111h.104zm3.965-1.085c-.139 0-.295-.035-.47-.105a4.026 4.026 0 01-.865-.506l.282-.568c.086-.17.164-.319.232-.444s.132-.23.193-.313a.739.739 0 01.182-.185.35.35 0 01.196-.06.59.59 0 01.277.063c.08.041.15.094.208.159.06.064.11.135.152.214a1.698 1.698 0 01.161.425 1.669 1.669 0 01.047.396 1.562 1.562 0 01-.097.527.887.887 0 01-.143.256.333.333 0 01-.172.12.752.752 0 01-.183.02zM7.63 111v-1.023h-.105c-.219 0-.408-.022-.566-.067a.814.814 0 01-.357-.188.435.435 0 01-.139-.269 2.819 2.819 0 01-.018-.331v-2.62a36.414 36.414 0 00-.107-2.749 7.734 7.734 0 00-.08-.652l-1.023.188a6.5 6.5 0 01.08.628c.023.256.042.535.058.838.016.302.027.615.034.939.007.323.01.635.01.934.004.306.006.596.006.871v.203c-.001.197-.003.376-.006.538a158.543 158.543 0 00-.01.668V109.017c0 .084.002.184.005.3a2.015 2.015 0 00.185.76c.061.132.15.255.264.37.188.188.416.327.686.417.27.09.596.136.978.136h.105zm-5.53-5.692l.85-.85-.856-.856-.85.85.855.856zM1.263 111c.286 0 .55-.02.796-.057.245-.039.467-.105.665-.199.198-.094.373-.219.525-.375.15-.157.279-.353.383-.59.104-.24.157-.518.157-.835 0-.055-.002-.111-.006-.167a5.826 5.826 0 00-.271-1.335 6.775 6.775 0 00-.167-.483 10.547 10.547 0 00-.287-.673 1.284 1.284 0 01-.047-.107l-.929.46.454 1.116a3.393 3.393 0 01.235.89c.007.092.01.16.01.205 0 .084-.005.162-.015.235a1.012 1.012 0 01-.078.277.934.934 0 01-.261.341 1.096 1.096 0 01-.365.186c-.14.041-.294.067-.465.075-.17.009-.356.013-.558.013H.435V111h.83zm-.62 0v-1.023H.538c-.209 0-.38-.027-.516-.08a.933.933 0 01-.34-.225 1.316 1.316 0 01-.232-.35 75.642 75.642 0 01-.584-1.367 2921.323 2921.323 0 01-1.213-2.945l-.95.397 1.649 3.965a1.98 1.98 0 01-.694.438 1.84 1.84 0 01-.477.128c-.13.012-.229.019-.295.019-.14 0-.278-.016-.417-.047a2.393 2.393 0 01-.632-.24 3.085 3.085 0 01-.631-.465l-.59.83a3.4 3.4 0 00.968.712c.35.169.73.253 1.14.253.247 0 .47-.015.668-.044a3.15 3.15 0 00.55-.13c.17-.058.327-.13.475-.217.148-.087.295-.188.441-.303a1.8 1.8 0 00.261.269c.1.085.218.159.352.222.134.062.289.112.465.148.175.037.376.055.602.055h.104zm-9.256 0c.048-.002.103-.004.164-.008.092-.005.19-.017.295-.036.104-.02.214-.046.329-.079.114-.033.227-.077.339-.133a1.61 1.61 0 00.696-.62c.159-.265.238-.576.238-.934 0-.359-.105-.748-.313-1.17-.209-.42-.527-.874-.955-1.36-.15-.168-.296-.322-.438-.463a15.91 15.91 0 00-.658-.613 1.055 1.055 0 01-.11-.099l-.657.798c0 .004.032.032.094.084.063.052.146.125.25.22a7.421 7.421 0 00-.61.636c-.567.681-.85 1.337-.85 1.967 0 .358.085.668.255.93.17.263.423.473.757.63.129.062.256.11.38.146.126.034.24.06.343.075a2.113 2.113 0 00.383.029h.068zm-.008-1.039h-.088c-.022 0-.05-.002-.082-.004a2.127 2.127 0 01-.355-.065 1.247 1.247 0 01-.203-.076.802.802 0 01-.224-.141.65.65 0 01-.128-.16.502.502 0 01-.057-.164 1.048 1.048 0 01-.013-.161c0-.178.04-.357.122-.538.082-.18.182-.355.3-.522.118-.167.245-.32.378-.459a6.85 6.85 0 01.353-.344c.337.365.594.71.772 1.033.177.323.266.6.266.83a.759.759 0 01-.086.383.688.688 0 01-.28.253 1.059 1.059 0 01-.208.073 2.765 2.765 0 01-.209.042c-.066.01-.127.016-.182.018l-.136.003h.06z" mask="url(#f)"/><path fill="#000000" fill-opacity=".87" fill-rule="nonzero" d="M315.073 186.22l2.05-.314c.021-.407.042-.844.063-1.31.021-.468.037-.971.047-1.511a115.9 115.9 0 00.008-3.792 58.42 58.42 0 00-.094-2.657 39.56 39.56 0 00-.274-2.853l-2.011.658c.088.86.159 1.762.211 2.704.052.942.1 1.947.14 3.017.017.464.024.962.024 1.495 0 1.32-.054 2.84-.164 4.562zm-8.468.015c.835 0 1.581-.024 2.238-.07a28.184 28.184 0 001.765-.177c.52-.07.98-.15 1.382-.238.401-.09.764-.175 1.087-.259l-.242-1.948-.838.164c-.25.042-.528.085-.833.13-.305.043-.61.076-.912.097a2.532 2.532 0 01-.931-.11 2.544 2.544 0 01-.814-.41 2.038 2.038 0 01-.548-.619 1.445 1.445 0 01-.196-.716c0-.036.003-.073.008-.11.016-.208.063-.404.141-.586a1.49 1.49 0 01.845-.81c.204-.081.439-.122.705-.122.328 0 .631.062.908.184.276.123.519.26.727.411.25.177.47.376.658.595l1.268-1.558a5.492 5.492 0 00-.486-.43 7.633 7.633 0 00-.532-.383c-.156-.1-.33-.199-.52-.298-.19-.099-.393-.188-.607-.266a4.52 4.52 0 00-.677-.188 3.803 3.803 0 00-.74-.07 3.54 3.54 0 00-1.435.29 3.59 3.59 0 00-1.143.782 3.625 3.625 0 00-1.03 2.543c0 .418.052.8.154 1.147.101.347.293.685.575 1.013l-1.495.008h-.344v2.004h1.862zm-6.355-7.607l1.33-1.33-1.345-1.347-1.33 1.339 1.345 1.338zm2.959.015l1.33-1.338-1.346-1.338-1.33 1.33 1.346 1.346zm-4.564 7.591c.287-.001.594-.005.92-.011.436-.008.86-.04 1.272-.094.413-.055.787-.14 1.123-.258.337-.118.591-.286.763-.505.246.256.543.464.893.626.35.162.777.243 1.283.243h.157v-2.004h-.157a.998.998 0 01-.563-.16 1.533 1.533 0 01-.411-.4c-.112-.158-.2-.333-.262-.524a2.46 2.46 0 01-.118-.536c-.02-.276-.04-.515-.058-.716-.019-.2-.04-.388-.063-.563a6.142 6.142 0 00-.094-.525 9.507 9.507 0 00-.16-.606l-1.926.54c.136.464.238.844.306 1.139.067.294.101.53.101.708 0 .271-.057.51-.172.716-.115.206-.301.377-.56.513-.258.135-.596.238-1.013.309-.417.07-.931.105-1.542.105h-.29v2.004l.57-.001zm-5.798 0c.736 0 1.36-.07 1.874-.21.514-.141.951-.36 1.311-.658.245.256.547.464.904.626.357.162.79.243 1.295.243h.157v-2.004h-.157a.805.805 0 01-.52-.16 1.163 1.163 0 01-.317-.4 1.96 1.96 0 01-.168-.524 6.564 6.564 0 01-.075-.536c-.02-.276-.04-.518-.058-.724a8.393 8.393 0 00-.173-1.119 8.783 8.783 0 00-.16-.614l-1.925.54c.135.464.24.852.313 1.162.073.31.11.554.11.732 0 .548-.203.959-.607 1.232-.404.274-1.006.411-1.804.411h-.29v2.004h.29zm2.496 4.047l1.503-1.503-1.503-1.495-1.494 1.495 1.494 1.503zm-2.473-4.046v-2.004h-.352c-.203 0-.382-.02-.536-.062a.777.777 0 01-.587-.571 1.941 1.941 0 01-.058-.501v-.126c0-.161 0-.32.003-.477a899.072 899.072 0 00.016-.982 37.602 37.602 0 00-.004-1.378c-.005-.31-.008-.604-.008-.88a41.001 41.001 0 00-.11-2.966 41.595 41.595 0 00-.124-1.397c-.047-.436-.1-.805-.157-1.108l-1.964.587c.047.246.088.529.125.85.036.32.068.665.094 1.033a59.594 59.594 0 01.11 2.324 91.316 91.316 0 01.03 2.219c0 .553-.005 1.021-.015 1.404-.01.384-.016.66-.016.826.006 1.075.282 1.878.83 2.41.548.533 1.351.799 2.41.799h.313zm-11.042 5.682c.464-.23.923-.488 1.377-.775.454-.287.885-.598 1.292-.932.406-.333.783-.688 1.13-1.064.347-.376.647-.77.9-1.186.253-.414.452-.845.595-1.29.144-.447.215-.905.215-1.374a6.78 6.78 0 00-.086-1.06 12.66 12.66 0 00-.223-1.093 19.035 19.035 0 00-.305-1.083l-.325-1.03-1.964.634c.068.23.153.493.254.79.102.298.201.607.298.928.096.321.178.646.246.975.068.328.102.641.102.939 0 .318-.057.634-.172.947a4.248 4.248 0 01-.474.915c-.2.298-.44.585-.72.861a9.57 9.57 0 01-.908.79c-.326.251-.669.487-1.029.709-.36.222-.725.424-1.095.606l.892 1.793zm-14.345-5.682c.615 0 1.16-.11 1.631-.329.473-.219.915-.532 1.327-.939a9.124 9.124 0 00.806.5 7.932 7.932 0 00.783.384c.25.094.497.169.74.223.242.055.473.083.692.083.255 0 .5-.04.735-.118a2.515 2.515 0 001.202-.853c.159-.203.288-.43.387-.68.089-.236.155-.478.2-.729.044-.25.066-.508.066-.774a4.705 4.705 0 00-.329-1.718 3.747 3.747 0 00-.414-.767 3.095 3.095 0 00-.583-.626 2.589 2.589 0 00-1.671-.575c-.37 0-.697.074-.978.223a2.786 2.786 0 00-.752.579c-.219.237-.415.504-.587.802-.172.297-.331.597-.477.9-.146.287-.301.574-.466.86a4.075 4.075 0 01-.571.776 2.71 2.71 0 01-.747.56 2.164 2.164 0 01-.994.214h-.157v2.004h.157zm6.347-2.035c-.105 0-.22-.016-.345-.047a3.919 3.919 0 01-.68-.211 6.694 6.694 0 01-.662-.313 6.95 6.95 0 01-.528-.313c.198-.397.365-.724.5-.983.136-.258.254-.464.353-.618.099-.154.184-.263.254-.328a.464.464 0 01.215-.122c.079-.015.154-.023.227-.023.152 0 .293.031.423.094.193.099.36.24.5.422.142.183.253.393.333.63.081.238.122.474.122.709v.078c0 .125-.01.24-.032.344a1.465 1.465 0 01-.12.329.812.812 0 01-.165.223.369.369 0 01-.168.098.77.77 0 01-.227.031zm-6.19 2.035v-2.004h-.353c-.204 0-.382-.02-.536-.062a.777.777 0 01-.587-.571 1.941 1.941 0 01-.059-.501v-.126c0-.161.002-.32.004-.477a888.446 888.446 0 00.016-.982c.002-.175.004-.362.004-.56v-.183a54.85 54.85 0 00-.008-.635c-.005-.31-.008-.604-.008-.88a40.999 40.999 0 00-.11-2.966 41.595 41.595 0 00-.125-1.397c-.047-.436-.099-.805-.156-1.108l-1.965.587c.047.246.09.529.126.85.036.32.067.665.094 1.033a59.601 59.601 0 01.11 2.324 91.297 91.297 0 01.03 2.219c0 .553-.005 1.021-.015 1.404-.01.384-.016.66-.016.826.005 1.075.282 1.878.83 2.41.547.533 1.351.799 2.41.799h.313zm-8.993 0a5.14 5.14 0 001.432-.184 2.906 2.906 0 001.076-.556c.295-.248.522-.555.681-.923.16-.368.239-.797.239-1.288 0-1.137-.655-2.454-1.965-3.952-.474-.516-.879-.926-1.213-1.229a14.684 14.684 0 00-.814-.696l-1.267 1.55a7.817 7.817 0 00.5.422c-.104.104-.217.22-.34.348-.123.128-.26.28-.41.458-.888 1.075-1.331 2.108-1.331 3.1 0 .464.08.878.238 1.244.16.365.387.674.681.927.295.253.653.446 1.073.58.42.132.893.199 1.42.199zm0-2.027c-.151 0-.32-.016-.505-.047a2.247 2.247 0 01-.528-.157 1.28 1.28 0 01-.419-.285.605.605 0 01-.168-.435c0-.208.05-.442.149-.7.099-.258.223-.517.371-.775.15-.258.31-.502.482-.732.172-.23.334-.42.485-.57.235.223.46.466.677.727.216.26.408.519.575.775.167.255.3.495.4.72.098.224.148.41.148.555a.667.667 0 01-.157.454c-.104.12-.237.215-.399.286a2 2 0 01-.54.145c-.198.026-.388.039-.571.039zm-14.251-9.79a2.43 2.43 0 00.066-.267c.024-.114.059-.227.106-.336a.87.87 0 01.195-.286.48.48 0 01.33-.129h.062c.172 0 .336.02.493.063.167.052.331.11.493.172.162.062.325.118.489.168.164.05.34.074.528.074h.055c.209-.005.407-.041.595-.11a2.71 2.71 0 00.524-.254 3.2 3.2 0 00.438-.328 3.988 3.988 0 00.548-.599.894.894 0 00.086-.133l-1.072-.689a3.529 3.529 0 01-.426.478 1.06 1.06 0 01-.372.235 1.042 1.042 0 01-.509.039 2.576 2.576 0 01-.595-.18 4.773 4.773 0 00-.536-.196 2.266 2.266 0 00-.653-.086c-.24 0-.474.053-.7.16a2.289 2.289 0 00-.623.435c-.188.182-.35.394-.485.634-.136.24-.227.49-.274.75l1.237.384zm1.087 11.762l2.05-.305c.027-.7.044-1.428.052-2.188.008-.759.012-1.433.012-2.023l-.001-.45c0-.457-.003-.939-.007-1.444-.006-.84-.037-1.66-.094-2.46-.058-.802-.141-1.59-.25-2.368l-2.012.634c.13 1.257.24 2.937.329 5.04a43.13 43.13 0 01.031 2.567 82.76 82.76 0 01-.11 2.997zm-7.317-10.3l1.503-1.502-1.503-1.495-1.495 1.495 1.495 1.503zm1.127 10.44c.537 0 1.03-.08 1.48-.242a3.32 3.32 0 001.29-.81c.34-.352.557-.71.654-1.076.096-.365.145-.678.145-.939 0-.271-.034-.556-.102-.853a5.873 5.873 0 00-.622-1.534 9.849 9.849 0 00-1.025-1.46 12.56 12.56 0 00-1.292-1.318c-.467-.412-.94-.783-1.42-1.111l-1.166 1.73c.25.156.52.347.81.574.29.227.578.475.865.744.287.268.563.549.83.841.265.292.5.583.703.873.204.29.364.566.482.83.117.263.176.499.176.708v.023a.729.729 0 01-.118.395.902.902 0 01-.285.266c-.118.07-.25.126-.395.165a3.25 3.25 0 01-.439.086c-.146.018-.284.03-.414.035a3.401 3.401 0 01-1.092-.094 9.154 9.154 0 01-1.753-.61 6.526 6.526 0 01-.716-.384l-.83 1.918a9.141 9.141 0 001.867.869c.341.114.69.204 1.044.27.355.064.705.097 1.05.097.093.005.184.008.273.008zm-10.745 5.597c.464-.23.923-.488 1.377-.775.454-.287.885-.598 1.292-.932.406-.333.783-.688 1.13-1.064.347-.376.647-.77.9-1.186.253-.414.452-.845.595-1.29.144-.447.215-.905.215-1.374a6.78 6.78 0 00-.086-1.06 12.66 12.66 0 00-.223-1.093 19.035 19.035 0 00-.305-1.083l-.325-1.03-1.964.634c.068.23.153.493.254.79.102.298.201.607.298.928.096.321.178.646.246.975.068.328.102.641.102.939 0 .318-.057.634-.172.947a4.248 4.248 0 01-.474.915c-.2.298-.44.585-.72.861a9.57 9.57 0 01-.908.79c-.326.251-.669.487-1.029.709-.36.222-.725.424-1.095.606l.892 1.793z" mask="url(#f)"/><path fill="#000000" fill-opacity=".12" mask="url(#f)" d="M-1 250h319v1H-1z"/><path fill="#000000" fill-opacity=".56" fill-rule="nonzero" d="M313.673 231.02c.162 0 .34-.006.536-.02a5.446 5.446 0 001.134-.205c.176-.054.329-.12.459-.198.487-.26.85-.586 1.088-.978.24-.392.359-.817.359-1.276 0-.613-.214-1.215-.64-1.81a2.929 2.929 0 00-.606-.583 7.993 7.993 0 00-.9-.578c-.341-.19-.712-.38-1.113-.57-.402-.19-.818-.38-1.25-.57l-2.42-.995-.66 1.252.549.215a2.495 2.495 0 00-.717.512c-.2.206-.365.429-.497.667a3.108 3.108 0 00-.386 1.478c0 .34.087.69.26 1.055.174.364.435.734.783 1.11a10.684 10.684 0 01-.883.083c-.172.009-.363.016-.574.02-.211.005-.456.008-.734.008h-.188V231h.188c.33 0 .67-.007 1.022-.02.353-.015.698-.037 1.037-.067.339-.03.662-.07.97-.122a6.64 6.64 0 00.832-.188 5.4 5.4 0 001.165.327c.383.06.778.09 1.186.09zm-2.42-1.905a4.73 4.73 0 01-.502-.38 2.933 2.933 0 01-.414-.438 2.078 2.078 0 01-.281-.497 1.502 1.502 0 01-.105-.557c0-.208.044-.426.132-.653.089-.228.21-.432.366-.613.155-.18.32-.313.497-.396.176-.084.343-.125.501-.125.083 0 .17.009.257.027.2.042.36.118.484.227.123.109.218.234.285.375.067.142.111.29.132.445.021.156.032.303.032.442a2.392 2.392 0 01-.769 1.74c-.174.162-.38.296-.616.403zm2.288.57a3.577 3.577 0 01-.64-.049c.176-.185.336-.389.48-.612.144-.222.265-.448.365-.678.1-.23.177-.458.233-.685.056-.227.084-.438.084-.633 0-.14-.003-.288-.007-.445a2.018 2.018 0 00-.084-.501c.33.153.617.322.863.508.246.185.45.374.615.567.165.192.29.383.373.573.083.19.125.367.125.53 0 .19-.043.371-.129.545a1.192 1.192 0 01-.417.456c-.193.13-.442.233-.748.31a4.652 4.652 0 01-1.113.114zm-9.058-4.925l1.134-1.134-1.14-1.14-1.134 1.133 1.14 1.141zm-2.998 11.374a12.712 12.712 0 001.705-1.03 9.084 9.084 0 001.47-1.304 6.295 6.295 0 001.034-1.54c.26-.553.39-1.132.39-1.74v-.028c.115.125.237.223.365.292a1.686 1.686 0 00.713.209c.102.005.185.007.25.007h.118v-1.363h-.11c-.233 0-.445-.056-.637-.167a1.88 1.88 0 01-.553-.526 4.913 4.913 0 01-.515-.925 15.038 15.038 0 01-.515-1.374l-1.308.404c.056.171.123.386.202.643.079.258.158.532.236.825.08.292.152.59.22.893.067.304.117.588.15.853a2.596 2.596 0 01-.077.94c-.084.31-.21.609-.38.896-.169.288-.376.562-.622.824a8.04 8.04 0 01-.807.748 9.486 9.486 0 01-.932.665c-.33.206-.661.395-.995.567l.598 1.23zM297.374 231c.38 0 .748-.026 1.103-.077.354-.05.68-.139.977-.264.297-.125.56-.292.79-.5.229-.21.413-.471.553-.787.139-.32.208-.69.208-1.113 0-.074-.002-.148-.007-.222-.032-.515-.153-1.109-.361-1.781a9.033 9.033 0 00-.223-.644 14.063 14.063 0 00-.383-.897 1.712 1.712 0 01-.062-.143l-1.239.612.606 1.489c.097.237.171.463.222.678.051.216.081.385.09.508.01.123.015.215.015.275 0 .111-.007.216-.021.313a1.35 1.35 0 01-.105.369 1.089 1.089 0 01-.39.455c-.166.11-.359.192-.577.247-.218.056-.454.09-.71.101-.254.012-.516.018-.785.018h-1.343V231h1.642zm-.348 3.402l1.127-1.127-1.14-1.141-1.128 1.134 1.141 1.134zm2.852.014l1.127-1.134-1.14-1.134-1.128 1.127 1.141 1.14zm-6.838-9.83l1.134-1.134-1.141-1.14-1.134 1.133 1.141 1.141zM291.085 231c.682 0 1.255-.07 1.718-.212.464-.142.842-.358 1.134-.65.2.254.455.462.766.622.31.16.7.24 1.168.24h.14v-1.363h-.14c-.236 0-.43-.054-.58-.16a1.141 1.141 0 01-.355-.404 1.905 1.905 0 01-.185-.529 4.913 4.913 0 01-.076-.542 21.335 21.335 0 00-.125-1.204 6.534 6.534 0 00-.202-.946l-1.308.369c.102.352.173.665.212.939.04.274.06.543.06.807 0 .552-.177.968-.53 1.249-.352.28-.918.42-1.697.42h-.257V231h.257zm.014 0v-1.363h-.139c-.325 0-.58-.046-.765-.136-.186-.09-.334-.261-.445-.511a1.394 1.394 0 01-.063-.185 6.804 6.804 0 01-.111-.483c-.047-.228-.1-.531-.16-.912a45.477 45.477 0 01-.23-1.71 253.002 253.002 0 01-.167-1.597 351.388 351.388 0 00-.076-.72v.007l-1.364.285.024.254.08.775c-.13.047-.282.106-.459.178-.176.072-.363.16-.56.264a8.072 8.072 0 00-.612.362 5.207 5.207 0 00-.612.466c-.197.174-.383.37-.557.588a3.768 3.768 0 00-.448.716 1.566 1.566 0 00-.098.341c-.023.13-.034.258-.034.383v.125c.004.172.033.348.087.529.053.18.144.347.274.5.469.58 1.301.87 2.498.87.227 0 .465-.01.713-.031.248-.021.518-.055.81-.101.246.394.552.677.918.849.242.11.484.182.727.212.244.03.454.045.63.045h.14zm-3.94-2.324h-.032c-.162 0-.322-.009-.48-.027a2.162 2.162 0 01-.511-.108.946.946 0 01-.369-.226.506.506 0 01-.143-.369c0-.148.04-.29.119-.428.078-.137.182-.265.31-.386.127-.12.27-.232.43-.334.16-.102.323-.196.487-.281a7.98 7.98 0 01.477-.23c.153-.067.285-.124.396-.17.075.593.14 1.085.199 1.474.058.39.115.72.17.988-.12.023-.268.044-.442.063a5.215 5.215 0 01-.643.035h.032z" mask="url(#f)"/><path fill="#000000" fill-opacity=".12" mask="url(#f)" d="M-1 298h319v1H-1z"/><path fill="#000000" fill-opacity=".56" fill-rule="nonzero" d="M315.607 272.76l1.134-1.134-1.141-1.14-1.134 1.133 1.141 1.141zm-3.04 11.22c.39-.19.773-.404 1.151-.643.378-.238.738-.5 1.079-.782a9.21 9.21 0 00.946-.905c.29-.32.54-.656.75-1.008.212-.353.377-.718.495-1.096.118-.378.177-.769.177-1.172 0-.204-.016-.413-.048-.626a9.948 9.948 0 00-.122-.65 19.8 19.8 0 00-.16-.668 95.332 95.332 0 01-.17-.672 10.346 10.346 0 00-.175-.636c-.064-.211-.13-.426-.194-.644l-1.322.418c.125.39.243.779.355 1.168.05.19.104.385.16.585.055.2.106.399.153.598.046.2.084.394.115.584.03.19.045.371.045.543 0 .45-.11.886-.327 1.308-.218.422-.507.82-.866 1.196-.36.376-.769.723-1.228 1.04-.46.318-.932.597-1.42.839l.606 1.224zm-7.812-4.98c.283 0 .55-.014.8-.042.25-.028.487-.08.71-.16.222-.079.432-.192.629-.34.197-.149.386-.346.567-.592.213.158.445.312.696.463.25.15.51.278.782.382a3.005 3.005 0 001.124.226c.19 0 .38-.025.57-.076a1.66 1.66 0 00.765-.449c.209-.215.374-.468.494-.758s.195-.555.223-.797c.028-.24.042-.436.042-.584 0-.167-.012-.33-.035-.487a4.21 4.21 0 00-.247-.918 2.864 2.864 0 00-.477-.807c-.2-.237-.44-.428-.72-.574a2.071 2.071 0 00-.97-.22c-.306 0-.574.062-.804.185-.23.123-.433.283-.612.48a3.668 3.668 0 00-.48.675c-.141.253-.275.509-.4.769-.144.287-.286.567-.428.838a3.398 3.398 0 01-.5.723c-.193.211-.426.38-.7.508-.273.128-.616.192-1.03.192h-.138V279h.139zm5.287-1.447c-.186 0-.394-.046-.626-.14-.348-.138-.733-.363-1.155-.674l.376-.758c.115-.227.219-.424.31-.591a3.74 3.74 0 01.256-.418.985.985 0 01.244-.247.466.466 0 01.26-.08c.14 0 .263.028.37.084.106.055.199.126.278.212.079.086.146.18.202.285a2.264 2.264 0 01.215.567c.019.079.03.135.035.167.019.125.028.246.028.362a2.082 2.082 0 01-.129.703c-.053.138-.117.252-.191.34a.444.444 0 01-.23.16 1.003 1.003 0 01-.243.028zM304.894 279v-1.363h-.14a2.77 2.77 0 01-.754-.09c-.211-.061-.37-.145-.477-.251a.58.58 0 01-.184-.359 3.758 3.758 0 01-.024-.441v-3.493a48.55 48.55 0 00-.066-2.546 31.39 31.39 0 00-.077-1.12c-.03-.343-.066-.633-.108-.87l-1.363.251c.042.218.078.498.108.839.03.34.055.713.076 1.116.021.404.036.82.045 1.252.01.432.014.847.014 1.245.005.409.007.796.007 1.162 0 .371-.002.7-.007.988a211.356 211.356 0 00-.013.957v.08c0 .11.002.244.006.4a2.686 2.686 0 00.247 1.012c.082.176.199.34.352.494.25.25.555.436.914.556.36.12.795.181 1.305.181h.139zm-10.115-3.36l1.134-1.134-1.14-1.14-1.135 1.133 1.141 1.141zm-.306 8.14c.57 0 1.112-.061 1.624-.182.513-.12.98-.305 1.402-.553a4.23 4.23 0 001.11-.942c.317-.38.564-.833.74-1.357.168-.5.258-.9.272-1.2.014-.299.02-.5.02-.602a7.175 7.175 0 00-.392-2.361 11.15 11.15 0 00-.397-1.016 7.888 7.888 0 00-.525-.991l-1.155.737c.005 0 .048.068.129.205.081.137.175.325.282.564.106.239.214.52.323.841a6.615 6.615 0 01.344 2.119v.083c-.009.404-.076.805-.201 1.204a2.69 2.69 0 01-.46.873 2.733 2.733 0 01-.758.654 3.688 3.688 0 01-1.05.407c-.399.092-.844.139-1.336.139a3.94 3.94 0 01-1.054-.129 3.297 3.297 0 01-.807-.334 2.716 2.716 0 01-.587-.462 3.029 3.029 0 01-.404-.526 2.535 2.535 0 01-.24-.514 2.744 2.744 0 01-.108-.435 4.08 4.08 0 01-.035-.821c.014-.278.046-.552.094-.821.049-.269.11-.528.185-.776.074-.248.152-.476.233-.685.08-.209.16-.39.24-.546a2.8 2.8 0 01.208-.358l-1.106-.814c-.19.315-.372.667-.546 1.054-.174.387-.32.796-.438 1.228a6.484 6.484 0 00-.22 1.123 6.142 6.142 0 00.02 1.61c.094.608.274 1.137.54 1.587.268.45.603.822 1.006 1.116.404.295.864.515 1.381.661.517.146 1.072.22 1.666.22zM279.871 279c.38 0 .748-.026 1.103-.077.355-.05.68-.139.977-.264.297-.125.56-.292.79-.5.23-.21.414-.471.553-.787.139-.32.209-.69.209-1.113 0-.074-.003-.148-.007-.222-.033-.515-.153-1.109-.362-1.781a9.033 9.033 0 00-.223-.644 14.061 14.061 0 00-.382-.897 1.713 1.713 0 01-.063-.143l-1.238.612.605 1.489c.097.237.172.463.223.678.05.216.08.385.09.508.01.123.014.215.014.275 0 .111-.007.216-.02.313a1.35 1.35 0 01-.105.369 1.089 1.089 0 01-.39.455c-.167.11-.36.192-.577.247-.218.056-.455.09-.71.101-.255.012-.517.018-.786.018h-1.342V279h1.641zm2.65 3.624l1.142-1.14-1.127-1.127-1.141 1.14 1.127 1.127zm-3.04.014l1.142-1.14-1.127-1.135-1.141 1.141 1.127 1.134zm1.552 1.99l1.037-1.037-1.03-1.03-1.037 1.037 1.03 1.03zm-8.591-.494a12.712 12.712 0 001.704-1.03 9.084 9.084 0 001.471-1.304 6.295 6.295 0 001.033-1.54c.26-.553.39-1.132.39-1.74v-.028c.116.125.238.223.365.292a1.686 1.686 0 00.713.209c.102.005.186.007.25.007h.119v-1.363h-.111c-.232 0-.444-.056-.637-.167a1.88 1.88 0 01-.553-.526 4.913 4.913 0 01-.515-.925 15.038 15.038 0 01-.514-1.374l-1.308.404c.055.171.123.386.201.643.08.258.158.532.237.825.079.292.152.59.22.893.066.304.116.588.149.853a2.596 2.596 0 01-.077.94c-.083.31-.21.609-.379.896-.17.288-.377.562-.623.824a8.04 8.04 0 01-.807.748 9.486 9.486 0 01-.932.665c-.329.206-.66.395-.995.567l.599 1.23zm-3.799-5.141c.279 0 .558-.02.839-.063.28-.041.55-.109.81-.201.26-.093.502-.212.727-.359.225-.146.421-.32.588-.525a1.685 1.685 0 00.362-.737c.037-.162.057-.348.059-.557a3.214 3.214 0 00-.08-.702 5.056 5.056 0 00-.317-.908 7.36 7.36 0 00-.508-.932 9.21 9.21 0 00-1.408-1.708 7.958 7.958 0 00-.81-.675 4.88 4.88 0 00-.825-.487l-.563 1.266c.208.093.422.218.64.376.217.158.432.338.643.542.211.205.414.424.609.658.194.234.372.475.532.723.16.248.297.497.41.745.114.248.196.485.247.713.037.167.056.31.056.431 0 .167-.035.292-.104.376-.158.19-.353.331-.585.424-.232.093-.44.147-.626.164a3.996 3.996 0 01-.96-.01 5.912 5.912 0 01-1.62-.443 4.229 4.229 0 01-.62-.323l-.57 1.308c.116.106.299.213.55.32a8.429 8.429 0 001.736.504c.303.053.566.08.788.08zm-4.862.07c.065-.77.103-1.496.115-2.178.011-.682.017-1.226.017-1.635 0-.677-.007-1.4-.02-2.17a63.584 63.584 0 00-.356-5.064l-1.363.208c.158 1.461.283 3.316.376 5.566.013.384.02.793.02 1.224 0 .357-.004.73-.013 1.12a64.701 64.701 0 01-.147 2.852l1.37.077zm-9.336-7.722l1.134-1.134-1.14-1.14-1.135 1.133 1.141 1.14zM251.454 279c.7 0 1.394-.065 2.08-.195.686-.13 1.35-.298 1.993-.504a19.848 19.848 0 001.843-.692c.587-.255 1.136-.51 1.646-.766.347-.171.681-.335 1.001-.49.32-.155.643-.3.967-.435l-.264-1.321c-.288 0-.573-.03-.856-.09a6.842 6.842 0 01-.848-.24 11.25 11.25 0 01-.846-.338c-.28-.126-.557-.253-.83-.383a97.76 97.76 0 00-.745-.34 10.13 10.13 0 00-.724-.296 5.637 5.637 0 00-.699-.206 3.12 3.12 0 00-.678-.076c-.45 0-.878.109-1.284.327-.405.218-.79.545-1.15.98a4.72 4.72 0 00-.331.439c-.095.144-.177.271-.244.383a3.542 3.542 0 00-.212.396l1.252.564a3.686 3.686 0 01.257-.456c.084-.128.184-.264.3-.41.116-.147.247-.283.393-.411.146-.128.305-.233.476-.317.172-.083.353-.125.543-.125.144 0 .301.022.473.066.172.044.354.104.546.178.193.074.392.159.598.254l.637.295c.283.135.57.267.862.397.293.13.599.25.919.362-.529.264-1.079.521-1.649.772-.57.25-1.155.473-1.753.668-.598.194-1.206.35-1.823.47a9.806 9.806 0 01-1.85.177h-1.51V279h1.51zm-11.172-5.711l1.127-1.127-1.141-1.141-1.127 1.134 1.14 1.134zm2.852.014l1.127-1.134-1.141-1.134-1.127 1.127 1.14 1.14zm-2.017 5.718c2.638 0 4.57-.64 5.794-1.92.102.283.246.536.432.758.58.747 1.472 1.127 2.678 1.141h.195v-1.363h-.174c-.756-.005-1.296-.214-1.621-.627a1.391 1.391 0 01-.292-.584 3.455 3.455 0 01-.09-.626v-.056c0-.074.006-.162.02-.264a5.795 5.795 0 01.136-.748c.03-.123.057-.226.08-.31l-1.322-.361c-.06.209-.129.422-.205.64-.077.218-.17.433-.278.647-.11.213-.24.42-.393.619-.154.2-.337.383-.55.55-.478.39-1.076.673-1.795.852-.719.178-1.59.268-2.615.268-1.146-.005-2.077-.126-2.794-.362-.716-.237-1.213-.594-1.492-1.072a1.688 1.688 0 01-.222-.573 3.026 3.026 0 01-.049-.512c0-.06.002-.118.007-.174a2.93 2.93 0 01.087-.598 5.86 5.86 0 01.15-.5c.05-.145.097-.26.139-.349.041-.088.062-.134.062-.139l-1.203-.66c-.023.032-.09.177-.199.434a8.029 8.029 0 00-.337 1.047c-.056.209-.09.4-.104.574a4.625 4.625 0 00-.007.79c.018.24.064.482.135.723.072.241.176.475.31.703.417.705 1.089 1.22 2.014 1.548.925.326 2.093.495 3.503.504z" mask="url(#f)"/><g mask="url(#f)"><use fill="#000" filter="url(#g)" xlink:href="#h"/><use fill="#FFF" fill-opacity=".98" xlink:href="#h"/></g> 
 </g></g></g></svg>