<?xml version="1.0" encoding="UTF-8"?>
<svg width="422px" height="160px" viewBox="0 0 422 160" version="1.1" xmlns="http://www.w3.org/2000/svg" xmlns:xlink="http://www.w3.org/1999/xlink">
    <title>usage</title>
    <defs>
        <rect id="path-1" x="0" y="0" width="422" height="160" rx="4"></rect>
        <rect id="path-3" x="74.5" y="59.3" width="273" height="44.8" rx="2.8"></rect>
        <filter x="-6.6%" y="-33.5%" width="113.2%" height="180.4%" filterUnits="objectBoundingBox" id="filter-4">
            <feOffset dx="0" dy="3" in="SourceAlpha" result="shadowOffsetOuter1"></feOffset>
            <feGaussianBlur stdDeviation="5.5" in="shadowOffsetOuter1" result="shadowBlurOuter1"></feGaussianBlur>
            <feColorMatrix values="0 0 0 0 0   0 0 0 0 0   0 0 0 0 0  0 0 0 0.12 0" type="matrix" in="shadowBlurOuter1"></feColorMatrix>
        </filter>
    </defs>
    <g id="Breadcrumb" stroke="none" stroke-width="1" fill="none" fill-rule="evenodd">
        <g id="usage" transform="translate(-32.000000, -32.000000)">
            <g transform="translate(32.000000, 32.000000)">
                <mask id="mask-2" fill="white">
                    <use xlink:href="#path-1"></use>
                </mask>
                <use id="base" fill-opacity="0" fill="#000000" xlink:href="#path-1"></use>
                <g id="Rectangle" fill="black" fill-opacity="1">
                    <use filter="url(#filter-4)" xlink:href="#path-3"></use>
                </g>
                <rect id="Rectangle" fill="#FFFFFF" x="74.5" y="59.3" width="273" height="44.8" rx="2.8"></rect>
                <g id="Group" transform="translate(162.763304, 29.900000)">
                    <path d="M145.76313,53.9 C146.245217,53.9 146.614087,53.7721739 146.869739,53.5165217 C146.959826,53.424 147.031043,53.3229565 147.083391,53.2133913 C147.135739,53.1038261 147.175913,52.9930435 147.203913,52.8810435 C147.231913,52.7690435 147.248348,52.668 147.253217,52.577913 C147.258087,52.4878261 147.260522,52.409913 147.260522,52.3441739 L147.260522,52.3441739 L147.260522,52.2492174 C147.260522,52.1688696 147.258696,52.0751304 147.255043,51.968 C147.251391,51.8608696 147.24713,51.7342609 147.242261,51.5881739 C147.237391,51.442087 147.231304,51.2746957 147.224,51.086 C147.216696,50.8973043 147.209391,50.6824348 147.202087,50.4413913 C147.189913,50.1735652 147.176522,49.924 147.161913,49.6926957 C147.147304,49.4613913 147.133304,49.2568696 147.119913,49.0791304 C147.106522,48.9013913 147.094348,48.7546957 147.083391,48.6390435 C147.072435,48.5233913 147.065739,48.446087 147.063304,48.4071304 L147.063304,48.4071304 L146.347478,48.4838261 C146.349913,48.5057391 146.356,48.5708696 146.365739,48.6792174 C146.375478,48.7875652 146.387043,48.9293913 146.400435,49.1046957 C146.413826,49.28 146.427217,49.483913 146.440609,49.7164348 C146.454,49.9489565 146.465565,50.1991304 146.475304,50.4669565 C146.492348,50.9052174 146.506957,51.2734783 146.51913,51.5717391 C146.531304,51.87 146.537391,52.0982609 146.537391,52.2565217 L146.537391,52.2565217 L146.537391,52.2966957 C146.537391,52.6448696 146.475304,52.8822609 146.35113,53.0088696 C146.234261,53.1257391 146.038261,53.1841739 145.76313,53.1841739 L145.76313,53.1841739 L145.485565,53.1841739 L145.485565,53.9 L145.76313,53.9 Z M142.918087,53.9 C143.146957,53.9 143.346,53.8908696 143.515217,53.8726087 C143.684435,53.8543478 143.832348,53.8263478 143.958957,53.7886087 C144.085565,53.7508696 144.19513,53.7033913 144.287652,53.6461739 C144.380174,53.5889565 144.465391,53.5226087 144.543304,53.4471304 C144.648,53.5810435 144.781913,53.69 144.945043,53.774 C145.108174,53.858 145.312696,53.9 145.558609,53.9 L145.558609,53.9 L145.631652,53.9 L145.631652,53.1841739 L145.558609,53.1841739 C145.434435,53.1841739 145.332783,53.1561739 145.253652,53.1001739 C145.174522,53.0441739 145.112435,52.9735652 145.067391,52.8883478 C145.022348,52.8031304 144.990087,52.7106087 144.970609,52.6107826 C144.95113,52.5109565 144.937739,52.416 144.930435,52.325913 C144.920696,52.1968696 144.910348,52.0812174 144.899391,51.9789565 C144.888435,51.8766957 144.87687,51.7817391 144.864696,51.694087 C144.852522,51.6064348 144.837913,51.5230435 144.82087,51.443913 C144.803826,51.3647826 144.78313,51.2826087 144.758783,51.1973913 L144.758783,51.1973913 L144.072174,51.3909565 C144.125739,51.576 144.16287,51.7403478 144.183565,51.884 C144.204261,52.0276522 144.214609,52.1688696 144.214609,52.3076522 C144.214609,52.4537391 144.190261,52.5815652 144.141565,52.6911304 C144.09287,52.8006957 144.016783,52.892 143.913304,52.9650435 C143.809826,53.038087 143.675913,53.0928696 143.511565,53.1293913 C143.347217,53.165913 143.149391,53.1841739 142.918087,53.1841739 L142.918087,53.1841739 L142.373913,53.1841739 L142.373913,53.9 L142.918087,53.9 Z M143.053217,55.685913 L143.64487,55.0942609 L143.045913,54.4953043 L142.454261,55.0906087 L143.053217,55.685913 Z M144.550609,55.6932174 L145.142261,55.097913 L144.543304,54.5026087 L143.951652,55.0942609 L144.550609,55.6932174 Z M140.960522,50.5326957 L141.555826,49.9373913 L140.95687,49.3384348 L140.361565,49.9337391 L140.960522,50.5326957 Z M139.934261,53.9 C140.292174,53.9 140.59287,53.8628696 140.836348,53.7886087 C141.079826,53.7143478 141.278261,53.6005217 141.431652,53.4471304 C141.536348,53.5810435 141.670261,53.69 141.833391,53.774 C141.996522,53.858 142.201043,53.9 142.446957,53.9 L142.446957,53.9 L142.52,53.9 L142.52,53.1841739 L142.446957,53.1841739 C142.322783,53.1841739 142.22113,53.1561739 142.142,53.1001739 C142.06287,53.0441739 142.000783,52.9735652 141.955739,52.8883478 C141.910696,52.8031304 141.878435,52.7106087 141.858957,52.6107826 C141.839478,52.5109565 141.826087,52.416 141.818783,52.325913 C141.809043,52.1968696 141.798696,52.0812174 141.787739,51.9789565 C141.776783,51.8766957 141.765217,51.7817391 141.753043,51.694087 C141.74087,51.6064348 141.726261,51.5230435 141.709217,51.443913 C141.692174,51.3647826 141.671478,51.2826087 141.64713,51.1973913 L141.64713,51.1973913 L140.960522,51.3909565 C141.014087,51.576 141.051217,51.7403478 141.071913,51.884 C141.092609,52.0276522 141.102957,52.1688696 141.102957,52.3076522 C141.102957,52.5973913 141.010435,52.815913 140.825391,52.9632174 C140.640348,53.1105217 140.343304,53.1841739 139.934261,53.1841739 L139.934261,53.1841739 L139.79913,53.1841739 L139.79913,53.9 L139.934261,53.9 Z M139.945217,53.9 L139.945217,53.1841739 L139.842957,53.1841739 C139.69687,53.1817391 139.564174,53.1695652 139.44487,53.1476522 C139.325565,53.1257391 139.217217,53.0916522 139.119826,53.0453913 C138.971304,52.9747826 138.845913,52.8907826 138.743652,52.7933913 C138.641391,52.696 138.554348,52.5913043 138.482522,52.4793043 C138.410696,52.3673043 138.351043,52.2516522 138.303565,52.1323478 C138.256087,52.0130435 138.21287,51.8949565 138.173913,51.778087 C138.110609,51.5930435 138.022348,51.4073913 137.90913,51.2211304 C137.795913,51.0348696 137.664435,50.8534783 137.514696,50.6769565 C137.364957,50.5004348 137.198174,50.33 137.014348,50.1656522 C136.830522,50.0013043 136.636348,49.8473043 136.431826,49.7036522 L136.431826,49.7036522 L139.324348,48.4838261 L139.050435,47.8191304 L135.774435,49.2288696 L135.675826,50.036 C135.773217,50.1114783 135.887652,50.2015652 136.01913,50.3062609 C136.150609,50.4109565 136.286348,50.526 136.426348,50.6513913 C136.566348,50.7767826 136.703913,50.9088696 136.839043,51.0476522 C136.974174,51.1864348 137.09287,51.3264348 137.19513,51.4676522 C137.297391,51.6088696 137.374087,51.7421739 137.425217,51.8675652 C137.476348,51.9929565 137.501913,52.1067826 137.501913,52.2090435 C137.501913,52.2358261 137.500696,52.2626087 137.498261,52.2893913 C137.483652,52.4184348 137.425826,52.5377391 137.324783,52.6473043 C137.223739,52.7568696 137.066087,52.8518261 136.851826,52.9321739 C136.688696,52.9954783 136.451304,53.046 136.139652,53.0837391 C135.828,53.1214783 135.423826,53.1513043 134.92713,53.1732174 C134.873565,53.1756522 134.818783,53.1768696 134.762783,53.1768696 C134.667826,53.1768696 134.566783,53.1732174 134.459652,53.165913 C134.289217,53.1537391 134.114522,53.1336522 133.935565,53.1056522 C133.756609,53.0776522 133.580696,53.0417391 133.407826,52.997913 C133.234957,52.954087 133.075478,52.9041739 132.929391,52.8481739 C132.783304,52.7921739 132.657913,52.7288696 132.553217,52.6582609 C132.448522,52.5876522 132.376696,52.5121739 132.337739,52.4318261 C132.301217,52.3587826 132.282957,52.2747826 132.282957,52.1798261 L132.282957,52.1798261 L132.282957,52.1469565 C132.287826,52.0422609 132.308522,51.933913 132.345043,51.821913 C132.381565,51.709913 132.428435,51.6003478 132.485652,51.4932174 C132.54287,51.386087 132.601913,51.289913 132.662783,51.2046957 L132.662783,51.2046957 L132.085739,50.7737391 C132.078435,50.7834783 132.064435,50.8053913 132.043739,50.8394783 C132.023043,50.8735652 131.997478,50.9167826 131.967043,50.9691304 C131.936609,51.0214783 131.90313,51.0835652 131.866609,51.1553913 C131.830087,51.2272174 131.793565,51.3069565 131.757043,51.3946087 C131.649913,51.638087 131.59087,51.821913 131.579913,51.946087 C131.568957,52.0702609 131.563478,52.1554783 131.563478,52.2017391 C131.563478,52.3502609 131.585391,52.4866087 131.629217,52.6107826 C131.685217,52.773913 131.773478,52.9187826 131.894,53.0453913 C132.014522,53.172 132.157565,53.2833913 132.32313,53.3795652 C132.488696,53.4757391 132.67313,53.5566957 132.876435,53.6224348 C133.079739,53.6881739 133.292783,53.7417391 133.515565,53.7831304 C133.738348,53.8245217 133.966609,53.8543478 134.200348,53.8726087 C134.434087,53.8908696 134.665391,53.9 134.894261,53.9 C135.325217,53.9 135.702,53.8884348 136.024609,53.8653043 C136.347217,53.8421739 136.629043,53.7977391 136.870087,53.732 C137.11113,53.6662609 137.318087,53.5737391 137.490957,53.4544348 C137.663826,53.3351304 137.814783,53.1793043 137.943826,52.9869565 C138.160522,53.2888696 138.435652,53.515913 138.769217,53.668087 C139.102783,53.8202609 139.470435,53.8975652 139.872174,53.9 L139.872174,53.9 L139.945217,53.9 Z M125.369391,56.4638261 C125.620174,56.4248696 125.866087,56.3646087 126.10713,56.2830435 C126.348174,56.2014783 126.577652,56.1004348 126.795565,55.979913 C127.013478,55.8593913 127.216783,55.7187826 127.405478,55.558087 C127.594174,55.3973913 127.760348,55.2184348 127.904,55.0212174 C128.047652,54.824 128.165739,54.6091304 128.258261,54.3766087 C128.350783,54.144087 128.410435,53.893913 128.437217,53.626087 C128.449391,53.5092174 128.455478,53.3923478 128.455478,53.2754783 C128.455478,53.1707826 128.450609,53.066087 128.44087,52.9613913 C128.418957,52.7398261 128.378783,52.5267826 128.320348,52.3222609 C128.261913,52.1177391 128.185826,51.926 128.092087,51.7470435 C127.998348,51.568087 127.889391,51.4104348 127.765217,51.274087 C127.475478,50.9624348 127.157739,50.8066087 126.812,50.8066087 C126.656174,50.8066087 126.505826,50.8461739 126.360957,50.9253043 C126.216087,51.0044348 126.081565,51.1206957 125.957391,51.274087 C125.85513,51.4055652 125.766261,51.562 125.690783,51.7433913 C125.615304,51.9247826 125.567217,52.0866957 125.546522,52.2291304 C125.525826,52.3715652 125.515478,52.4890435 125.515478,52.5815652 C125.515478,52.6789565 125.524,52.7763478 125.541043,52.8737391 C125.570261,53.0587826 125.64087,53.221913 125.75287,53.3631304 C126.006087,53.6772174 126.39687,53.850087 126.925217,53.8817391 C127.05913,53.893913 127.179043,53.9 127.284957,53.9 L127.284957,53.9 L127.699478,53.9 C127.672696,54.0826087 127.597826,54.2682609 127.47487,54.4569565 C127.351913,54.6456522 127.184522,54.824 126.972696,54.992 C126.76087,55.16 126.506435,55.3109565 126.209391,55.4448696 C125.912348,55.5787826 125.576348,55.6834783 125.201391,55.7589565 L125.201391,55.7589565 L125.369391,56.4638261 Z M127.374891,53.176413 L127.316,53.1768696 C127.20887,53.1768696 127.094435,53.1732174 126.972696,53.165913 C126.92887,53.1634783 126.87713,53.158 126.817478,53.1494783 C126.757826,53.1409565 126.696957,53.1275652 126.63487,53.1093043 C126.572783,53.0910435 126.514348,53.0666957 126.459565,53.0362609 C126.404783,53.0058261 126.35913,52.9662609 126.322609,52.9175652 C126.281217,52.8664348 126.256261,52.8086087 126.247739,52.744087 C126.239217,52.6795652 126.234957,52.6253913 126.234957,52.5815652 C126.234957,52.528 126.238609,52.4732174 126.245913,52.4172174 C126.258087,52.3149565 126.281217,52.2108696 126.315304,52.1049565 C126.349391,51.9990435 126.391391,51.9034783 126.441304,51.8182609 C126.491217,51.7330435 126.547826,51.6630435 126.61113,51.6082609 C126.674435,51.5534783 126.741391,51.526087 126.812,51.526087 C126.855826,51.526087 126.897217,51.5333913 126.936174,51.548 C126.97513,51.5626087 127.012261,51.5814783 127.047565,51.6046087 C127.08287,51.6277391 127.115739,51.6533043 127.146174,51.6813043 C127.176609,51.7093043 127.204,51.7354783 127.228348,51.7598261 C127.289217,51.8304348 127.348261,51.9138261 127.405478,52.01 C127.462696,52.1061739 127.514435,52.213913 127.560696,52.3332174 C127.606957,52.4525217 127.644696,52.5815652 127.673913,52.7203478 C127.70313,52.8591304 127.721391,53.0064348 127.728696,53.1622609 C127.633739,53.1695652 127.547913,53.1738261 127.471217,53.1750435 C127.43287,53.1756522 127.400761,53.1761087 127.374891,53.176413 L127.374891,53.176413 Z M124.357739,53.9328696 C124.391826,53.5286957 124.411913,53.1476522 124.418,52.7897391 C124.424087,52.4318261 124.42713,52.1457391 124.42713,51.9314783 C124.42713,51.576 124.423478,51.1961739 124.416174,50.792 C124.396696,50.008 124.334609,49.1217391 124.229913,48.1332174 L124.229913,48.1332174 L123.514087,48.2427826 C123.59687,49.0097391 123.662609,49.9836522 123.711304,51.1645217 C123.718609,51.3666087 123.722261,51.5808696 123.722261,51.8073043 C123.722261,51.9947826 123.719826,52.1907826 123.714957,52.3953043 C123.702783,52.8481739 123.677217,53.3473043 123.638261,53.8926957 L123.638261,53.8926957 L124.357739,53.9328696 Z M121.089043,53.9 C121.57113,53.9 121.94,53.7721739 122.195652,53.5165217 C122.285739,53.424 122.356957,53.3229565 122.409304,53.2133913 C122.461652,53.1038261 122.501826,52.9930435 122.529826,52.8810435 C122.557826,52.7690435 122.574261,52.668 122.57913,52.577913 C122.584,52.4878261 122.586435,52.409913 122.586435,52.3441739 L122.586435,52.3441739 L122.585826,52.1644058 C122.585014,52.1048889 122.583391,52.0394203 122.580957,51.968 C122.577304,51.8608696 122.573043,51.7342609 122.568174,51.5881739 C122.563304,51.442087 122.557217,51.2746957 122.549913,51.086 C122.542609,50.8973043 122.535304,50.6824348 122.528,50.4413913 C122.515826,50.1735652 122.502435,49.924 122.487826,49.6926957 C122.473217,49.4613913 122.459217,49.2568696 122.445826,49.0791304 C122.432435,48.9013913 122.420261,48.7546957 122.409304,48.6390435 C122.398348,48.5233913 122.391652,48.446087 122.389217,48.4071304 L122.389217,48.4071304 L121.673391,48.4838261 C121.675826,48.5057391 121.681913,48.5708696 121.691652,48.6792174 C121.701391,48.7875652 121.712957,48.9293913 121.726348,49.1046957 C121.739739,49.28 121.75313,49.483913 121.766522,49.7164348 C121.779913,49.9489565 121.791478,50.1991304 121.801217,50.4669565 C121.818261,50.9052174 121.83287,51.2734783 121.845043,51.5717391 C121.857217,51.87 121.863304,52.0982609 121.863304,52.2565217 L121.863304,52.2966957 C121.863304,52.6448696 121.801217,52.8822609 121.677043,53.0088696 C121.560174,53.1257391 121.364174,53.1841739 121.089043,53.1841739 L121.089043,53.1841739 L120.811478,53.1841739 L120.811478,53.9 L121.089043,53.9 Z M120.957565,53.9 L120.957565,53.1841739 L120.884522,53.1841739 C120.738435,53.1841739 120.617913,53.1653043 120.522957,53.1275652 C120.428,53.0898261 120.34887,53.0374783 120.285565,52.9705217 C120.222261,52.9035652 120.168087,52.822 120.123043,52.7258261 C120.078,52.6296522 120.03113,52.5231304 119.982435,52.4062609 C119.887478,52.1846957 119.798,51.9722609 119.714,51.7689565 C119.63,51.5656522 119.544783,51.3593043 119.458348,51.149913 C119.371913,50.9405217 119.280609,50.7189565 119.184435,50.4852174 C119.088261,50.2514783 118.981739,49.9921739 118.86487,49.7073043 L118.86487,49.7073043 L118.200174,49.9848696 L119.354261,52.7605217 C119.31287,52.801913 119.252609,52.8512174 119.173478,52.9084348 C119.094348,52.9656522 118.992696,53.0186087 118.868522,53.0673043 C118.737043,53.1184348 118.625652,53.1482609 118.534348,53.1567826 C118.443043,53.1653043 118.374261,53.1695652 118.328,53.1695652 C118.230609,53.1695652 118.133217,53.1586087 118.035826,53.1366957 C117.889739,53.1050435 117.742435,53.0490435 117.593913,52.9686957 C117.445391,52.8883478 117.298087,52.78 117.152,52.6436522 L117.152,52.6436522 L116.739304,53.2243478 C116.946261,53.4386087 117.172087,53.6047826 117.416783,53.7228696 C117.661478,53.8409565 117.927478,53.9 118.214783,53.9 C118.387652,53.9 118.543478,53.8896522 118.682261,53.8689565 C118.821043,53.8482609 118.949478,53.8178261 119.067565,53.7776522 C119.185652,53.7374783 119.296435,53.6869565 119.399913,53.626087 C119.503391,53.5652174 119.606261,53.4946087 119.708522,53.4142609 C119.759652,53.48 119.820522,53.5426957 119.89113,53.6023478 C119.961739,53.662 120.043913,53.7137391 120.137652,53.7575652 C120.231391,53.8013913 120.339739,53.836087 120.462696,53.8616522 C120.585652,53.8872174 120.726261,53.9 120.884522,53.9 L120.884522,53.9 L120.957565,53.9 Z M113.309913,53.9949565 C113.309913,53.7831304 113.308087,53.5603478 113.304435,53.3266087 C113.300783,53.0928696 113.293478,52.8548696 113.282522,52.6126087 C113.271565,52.3703478 113.256957,52.1274783 113.238696,51.884 C113.220435,51.6405217 113.196696,51.4043478 113.167478,51.1754783 C113.09687,50.6398261 112.995217,50.1632174 112.862522,49.7456522 C112.729826,49.328087 112.563652,48.9598261 112.364,48.6408696 L112.364,48.6408696 L111.757739,49.028 C111.940348,49.3153043 112.085826,49.6464348 112.194174,50.0213913 C112.302522,50.3963478 112.385913,50.7993043 112.444348,51.2302609 C112.502783,51.6612174 112.540522,52.1110435 112.557565,52.5797391 C112.574609,53.0484348 112.58313,53.5201739 112.58313,53.9949565 L112.58313,53.9949565 L113.309913,53.9949565 Z" id="لینکوالد۱" fill-opacity="0.56" fill="#000000" fill-rule="nonzero"></path>
                    <path d="M102.282529,51.8 L104.090396,49.9921333 C104.273329,49.8092 104.273329,49.5128667 104.090396,49.3299333 C103.906996,49.1465333 103.611129,49.1465333 103.427729,49.3299333 L101.288529,51.4691333 C101.106062,51.6520667 101.106062,51.9479333 101.288529,52.1308667 L103.427729,54.2700667 C103.519196,54.3615333 103.639129,54.4072667 103.759062,54.4072667 C103.878996,54.4072667 103.998929,54.3615333 104.090396,54.2700667 C104.273329,54.0871333 104.273329,53.7908 104.090396,53.6078667 L102.282529,51.8 Z" id="icon_color" fill-opacity="0.56" fill="#000000"></path>
                    <path d="M92.5631304,53.9 C93.0452174,53.9 93.414087,53.7721739 93.6697391,53.5165217 C93.7598261,53.424 93.8310435,53.3229565 93.8833913,53.2133913 C93.9357391,53.1038261 93.975913,52.9930435 94.003913,52.8810435 C94.031913,52.7690435 94.0483478,52.668 94.0532174,52.577913 C94.058087,52.4878261 94.0605217,52.409913 94.0605217,52.3441739 L94.0605217,52.3441739 L94.0605217,52.2492174 C94.0605217,52.1688696 94.0586957,52.0751304 94.0550435,51.968 C94.0513913,51.8608696 94.0471304,51.7342609 94.0422609,51.5881739 C94.0373913,51.442087 94.0313043,51.2746957 94.024,51.086 C94.0166957,50.8973043 94.0093913,50.6824348 94.002087,50.4413913 C93.989913,50.1735652 93.9765217,49.924 93.961913,49.6926957 C93.9473043,49.4613913 93.9333043,49.2568696 93.919913,49.0791304 C93.9065217,48.9013913 93.8943478,48.7546957 93.8833913,48.6390435 C93.8724348,48.5233913 93.8657391,48.446087 93.8633043,48.4071304 L93.8633043,48.4071304 L93.1474783,48.4838261 C93.149913,48.5057391 93.156,48.5708696 93.1657391,48.6792174 C93.1754783,48.7875652 93.1870435,48.9293913 93.2004348,49.1046957 C93.2138261,49.28 93.2272174,49.483913 93.2406087,49.7164348 C93.254,49.9489565 93.2655652,50.1991304 93.2753043,50.4669565 C93.2923478,50.9052174 93.3069565,51.2734783 93.3191304,51.5717391 C93.3313043,51.87 93.3373913,52.0982609 93.3373913,52.2565217 L93.3373913,52.2565217 L93.3373913,52.2966957 C93.3373913,52.6448696 93.2753043,52.8822609 93.1511304,53.0088696 C93.0342609,53.1257391 92.8382609,53.1841739 92.5631304,53.1841739 L92.5631304,53.1841739 L92.2855652,53.1841739 L92.2855652,53.9 L92.5631304,53.9 Z M89.718087,53.9 C89.9469565,53.9 90.146,53.8908696 90.3152174,53.8726087 C90.4844348,53.8543478 90.6323478,53.8263478 90.7589565,53.7886087 C90.8855652,53.7508696 90.9951304,53.7033913 91.0876522,53.6461739 C91.1801739,53.5889565 91.2653913,53.5226087 91.3433043,53.4471304 C91.448,53.5810435 91.581913,53.69 91.7450435,53.774 C91.9081739,53.858 92.1126957,53.9 92.3586087,53.9 L92.3586087,53.9 L92.4316522,53.9 L92.4316522,53.1841739 L92.3586087,53.1841739 C92.2344348,53.1841739 92.1327826,53.1561739 92.0536522,53.1001739 C91.9745217,53.0441739 91.9124348,52.9735652 91.8673913,52.8883478 C91.8223478,52.8031304 91.790087,52.7106087 91.7706087,52.6107826 C91.7511304,52.5109565 91.7377391,52.416 91.7304348,52.325913 C91.7206957,52.1968696 91.7103478,52.0812174 91.6993913,51.9789565 C91.6884348,51.8766957 91.6768696,51.7817391 91.6646957,51.694087 C91.6525217,51.6064348 91.637913,51.5230435 91.6208696,51.443913 C91.6038261,51.3647826 91.5831304,51.2826087 91.5587826,51.1973913 L91.5587826,51.1973913 L90.8721739,51.3909565 C90.9257391,51.576 90.9628696,51.7403478 90.9835652,51.884 C91.0042609,52.0276522 91.0146087,52.1688696 91.0146087,52.3076522 C91.0146087,52.4537391 90.9902609,52.5815652 90.9415652,52.6911304 C90.8928696,52.8006957 90.8167826,52.892 90.7133043,52.9650435 C90.6098261,53.038087 90.475913,53.0928696 90.3115652,53.1293913 C90.1472174,53.165913 89.9493913,53.1841739 89.718087,53.1841739 L89.718087,53.1841739 L89.173913,53.1841739 L89.173913,53.9 L89.718087,53.9 Z M89.8532174,55.685913 L90.4448696,55.0942609 L89.845913,54.4953043 L89.2542609,55.0906087 L89.8532174,55.685913 Z M91.3506087,55.6932174 L91.9422609,55.097913 L91.3433043,54.5026087 L90.7516522,55.0942609 L91.3506087,55.6932174 Z M87.7605217,50.5326957 L88.3558261,49.9373913 L87.7568696,49.3384348 L87.1615652,49.9337391 L87.7605217,50.5326957 Z M86.7342609,53.9 C87.0921739,53.9 87.3928696,53.8628696 87.6363478,53.7886087 C87.8798261,53.7143478 88.0782609,53.6005217 88.2316522,53.4471304 C88.3363478,53.5810435 88.4702609,53.69 88.6333913,53.774 C88.7965217,53.858 89.0010435,53.9 89.2469565,53.9 L89.2469565,53.9 L89.32,53.9 L89.32,53.1841739 L89.2469565,53.1841739 C89.1227826,53.1841739 89.0211304,53.1561739 88.942,53.1001739 C88.8628696,53.0441739 88.8007826,52.9735652 88.7557391,52.8883478 C88.7106957,52.8031304 88.6784348,52.7106087 88.6589565,52.6107826 C88.6394783,52.5109565 88.626087,52.416 88.6187826,52.325913 C88.6090435,52.1968696 88.5986957,52.0812174 88.5877391,51.9789565 C88.5767826,51.8766957 88.5652174,51.7817391 88.5530435,51.694087 C88.5408696,51.6064348 88.5262609,51.5230435 88.5092174,51.443913 C88.4921739,51.3647826 88.4714783,51.2826087 88.4471304,51.1973913 L88.4471304,51.1973913 L87.7605217,51.3909565 C87.814087,51.576 87.8512174,51.7403478 87.871913,51.884 C87.8926087,52.0276522 87.9029565,52.1688696 87.9029565,52.3076522 C87.9029565,52.5973913 87.8104348,52.815913 87.6253913,52.9632174 C87.4403478,53.1105217 87.1433043,53.1841739 86.7342609,53.1841739 L86.7342609,53.1841739 L86.5991304,53.1841739 L86.5991304,53.9 L86.7342609,53.9 Z M86.7452174,53.9 L86.7452174,53.1841739 L86.6429565,53.1841739 C86.4968696,53.1817391 86.3641739,53.1695652 86.2448696,53.1476522 C86.1255652,53.1257391 86.0172174,53.0916522 85.9198261,53.0453913 C85.7713043,52.9747826 85.645913,52.8907826 85.5436522,52.7933913 C85.4413913,52.696 85.3543478,52.5913043 85.2825217,52.4793043 C85.2106957,52.3673043 85.1510435,52.2516522 85.1035652,52.1323478 C85.056087,52.0130435 85.0128696,51.8949565 84.973913,51.778087 C84.9106087,51.5930435 84.8223478,51.4073913 84.7091304,51.2211304 C84.595913,51.0348696 84.4644348,50.8534783 84.3146957,50.6769565 C84.1649565,50.5004348 83.9981739,50.33 83.8143478,50.1656522 C83.6305217,50.0013043 83.4363478,49.8473043 83.2318261,49.7036522 L83.2318261,49.7036522 L86.1243478,48.4838261 L85.8504348,47.8191304 L82.5744348,49.2288696 L82.4758261,50.036 C82.5732174,50.1114783 82.6876522,50.2015652 82.8191304,50.3062609 C82.9506087,50.4109565 83.0863478,50.526 83.2263478,50.6513913 C83.3663478,50.7767826 83.503913,50.9088696 83.6390435,51.0476522 C83.7741739,51.1864348 83.8928696,51.3264348 83.9951304,51.4676522 C84.0973913,51.6088696 84.174087,51.7421739 84.2252174,51.8675652 C84.2763478,51.9929565 84.301913,52.1067826 84.301913,52.2090435 C84.301913,52.2358261 84.3006957,52.2626087 84.2982609,52.2893913 C84.2836522,52.4184348 84.2258261,52.5377391 84.1247826,52.6473043 C84.0237391,52.7568696 83.866087,52.8518261 83.6518261,52.9321739 C83.4886957,52.9954783 83.2513043,53.046 82.9396522,53.0837391 C82.628,53.1214783 82.2238261,53.1513043 81.7271304,53.1732174 C81.6735652,53.1756522 81.6187826,53.1768696 81.5627826,53.1768696 C81.4678261,53.1768696 81.3667826,53.1732174 81.2596522,53.165913 C81.0892174,53.1537391 80.9145217,53.1336522 80.7355652,53.1056522 C80.5566087,53.0776522 80.3806957,53.0417391 80.2078261,52.997913 C80.0349565,52.954087 79.8754783,52.9041739 79.7293913,52.8481739 C79.5833043,52.7921739 79.457913,52.7288696 79.3532174,52.6582609 C79.2485217,52.5876522 79.1766957,52.5121739 79.1377391,52.4318261 C79.1012174,52.3587826 79.0829565,52.2747826 79.0829565,52.1798261 L79.0829565,52.1798261 L79.0829565,52.1469565 C79.0878261,52.0422609 79.1085217,51.933913 79.1450435,51.821913 C79.1815652,51.709913 79.2284348,51.6003478 79.2856522,51.4932174 C79.3428696,51.386087 79.401913,51.289913 79.4627826,51.2046957 L79.4627826,51.2046957 L78.8857391,50.7737391 C78.8784348,50.7834783 78.8644348,50.8053913 78.8437391,50.8394783 C78.8230435,50.8735652 78.7974783,50.9167826 78.7670435,50.9691304 C78.7366087,51.0214783 78.7031304,51.0835652 78.6666087,51.1553913 C78.630087,51.2272174 78.5935652,51.3069565 78.5570435,51.3946087 C78.449913,51.638087 78.3908696,51.821913 78.379913,51.946087 C78.3689565,52.0702609 78.3634783,52.1554783 78.3634783,52.2017391 C78.3634783,52.3502609 78.3853913,52.4866087 78.4292174,52.6107826 C78.4852174,52.773913 78.5734783,52.9187826 78.694,53.0453913 C78.8145217,53.172 78.9575652,53.2833913 79.1231304,53.3795652 C79.2886957,53.4757391 79.4731304,53.5566957 79.6764348,53.6224348 C79.8797391,53.6881739 80.0927826,53.7417391 80.3155652,53.7831304 C80.5383478,53.8245217 80.7666087,53.8543478 81.0003478,53.8726087 C81.234087,53.8908696 81.4653913,53.9 81.6942609,53.9 C82.1252174,53.9 82.502,53.8884348 82.8246087,53.8653043 C83.1472174,53.8421739 83.4290435,53.7977391 83.670087,53.732 C83.9111304,53.6662609 84.118087,53.5737391 84.2909565,53.4544348 C84.4638261,53.3351304 84.6147826,53.1793043 84.7438261,52.9869565 C84.9605217,53.2888696 85.2356522,53.515913 85.5692174,53.668087 C85.9027826,53.8202609 86.2704348,53.8975652 86.6721739,53.9 L86.6721739,53.9 L86.7452174,53.9 Z M72.1693913,56.4638261 C72.4201739,56.4248696 72.666087,56.3646087 72.9071304,56.2830435 C73.1481739,56.2014783 73.3776522,56.1004348 73.5955652,55.979913 C73.8134783,55.8593913 74.0167826,55.7187826 74.2054783,55.558087 C74.3941739,55.3973913 74.5603478,55.2184348 74.704,55.0212174 C74.8476522,54.824 74.9657391,54.6091304 75.0582609,54.3766087 C75.1507826,54.144087 75.2104348,53.893913 75.2372174,53.626087 C75.2493913,53.5092174 75.2554783,53.3923478 75.2554783,53.2754783 C75.2554783,53.1707826 75.2506087,53.066087 75.2408696,52.9613913 C75.2189565,52.7398261 75.1787826,52.5267826 75.1203478,52.3222609 C75.061913,52.1177391 74.9858261,51.926 74.892087,51.7470435 C74.7983478,51.568087 74.6893913,51.4104348 74.5652174,51.274087 C74.2754783,50.9624348 73.9577391,50.8066087 73.612,50.8066087 C73.4561739,50.8066087 73.3058261,50.8461739 73.1609565,50.9253043 C73.016087,51.0044348 72.8815652,51.1206957 72.7573913,51.274087 C72.6551304,51.4055652 72.5662609,51.562 72.4907826,51.7433913 C72.4153043,51.9247826 72.3672174,52.0866957 72.3465217,52.2291304 C72.3258261,52.3715652 72.3154783,52.4890435 72.3154783,52.5815652 C72.3154783,52.6789565 72.324,52.7763478 72.3410435,52.8737391 C72.3702609,53.0587826 72.4408696,53.221913 72.5528696,53.3631304 C72.806087,53.6772174 73.1968696,53.850087 73.7252174,53.8817391 C73.8591304,53.893913 73.9790435,53.9 74.0849565,53.9 L74.0849565,53.9 L74.4994783,53.9 C74.4726957,54.0826087 74.3978261,54.2682609 74.2748696,54.4569565 C74.151913,54.6456522 73.9845217,54.824 73.7726957,54.992 C73.5608696,55.16 73.3064348,55.3109565 73.0093913,55.4448696 C72.7123478,55.5787826 72.3763478,55.6834783 72.0013913,55.7589565 L72.0013913,55.7589565 L72.1693913,56.4638261 Z M74.1748913,53.176413 L74.116,53.1768696 C74.0088696,53.1768696 73.8944348,53.1732174 73.7726957,53.165913 C73.7288696,53.1634783 73.6771304,53.158 73.6174783,53.1494783 C73.5578261,53.1409565 73.4969565,53.1275652 73.4348696,53.1093043 C73.3727826,53.0910435 73.3143478,53.0666957 73.2595652,53.0362609 C73.2047826,53.0058261 73.1591304,52.9662609 73.1226087,52.9175652 C73.0812174,52.8664348 73.0562609,52.8086087 73.0477391,52.744087 C73.0392174,52.6795652 73.0349565,52.6253913 73.0349565,52.5815652 C73.0349565,52.528 73.0386087,52.4732174 73.045913,52.4172174 C73.058087,52.3149565 73.0812174,52.2108696 73.1153043,52.1049565 C73.1493913,51.9990435 73.1913913,51.9034783 73.2413043,51.8182609 C73.2912174,51.7330435 73.3478261,51.6630435 73.4111304,51.6082609 C73.4744348,51.5534783 73.5413913,51.526087 73.612,51.526087 C73.6558261,51.526087 73.6972174,51.5333913 73.7361739,51.548 C73.7751304,51.5626087 73.8122609,51.5814783 73.8475652,51.6046087 C73.8828696,51.6277391 73.9157391,51.6533043 73.9461739,51.6813043 C73.9766087,51.7093043 74.004,51.7354783 74.0283478,51.7598261 C74.0892174,51.8304348 74.1482609,51.9138261 74.2054783,52.01 C74.2626957,52.1061739 74.3144348,52.213913 74.3606957,52.3332174 C74.4069565,52.4525217 74.4446957,52.5815652 74.473913,52.7203478 C74.5031304,52.8591304 74.5213913,53.0064348 74.5286957,53.1622609 C74.4337391,53.1695652 74.347913,53.1738261 74.2712174,53.1750435 C74.2328696,53.1756522 74.2007609,53.1761087 74.1748913,53.176413 L74.1748913,53.176413 Z M71.1577391,53.9328696 C71.1918261,53.5286957 71.211913,53.1476522 71.218,52.7897391 C71.224087,52.4318261 71.2271304,52.1457391 71.2271304,51.9314783 C71.2271304,51.576 71.2234783,51.1961739 71.2161739,50.792 C71.1966957,50.008 71.1346087,49.1217391 71.029913,48.1332174 L71.029913,48.1332174 L70.314087,48.2427826 C70.3968696,49.0097391 70.4626087,49.9836522 70.5113043,51.1645217 C70.5186087,51.3666087 70.5222609,51.5808696 70.5222609,51.8073043 C70.5222609,51.9947826 70.5198261,52.1907826 70.5149565,52.3953043 C70.5027826,52.8481739 70.4772174,53.3473043 70.4382609,53.8926957 L70.4382609,53.8926957 L71.1577391,53.9328696 Z M67.8890435,53.9 C68.3711304,53.9 68.74,53.7721739 68.9956522,53.5165217 C69.0857391,53.424 69.1569565,53.3229565 69.2093043,53.2133913 C69.2616522,53.1038261 69.3018261,52.9930435 69.3298261,52.8810435 C69.3578261,52.7690435 69.3742609,52.668 69.3791304,52.577913 C69.384,52.4878261 69.3864348,52.409913 69.3864348,52.3441739 L69.3864348,52.3441739 L69.3858261,52.1644058 C69.3850145,52.1048889 69.3833913,52.0394203 69.3809565,51.968 C69.3773043,51.8608696 69.3730435,51.7342609 69.3681739,51.5881739 C69.3633043,51.442087 69.3572174,51.2746957 69.349913,51.086 C69.3426087,50.8973043 69.3353043,50.6824348 69.328,50.4413913 C69.3158261,50.1735652 69.3024348,49.924 69.2878261,49.6926957 C69.2732174,49.4613913 69.2592174,49.2568696 69.2458261,49.0791304 C69.2324348,48.9013913 69.2202609,48.7546957 69.2093043,48.6390435 C69.1983478,48.5233913 69.1916522,48.446087 69.1892174,48.4071304 L69.1892174,48.4071304 L68.4733913,48.4838261 C68.4758261,48.5057391 68.481913,48.5708696 68.4916522,48.6792174 C68.5013913,48.7875652 68.5129565,48.9293913 68.5263478,49.1046957 C68.5397391,49.28 68.5531304,49.483913 68.5665217,49.7164348 C68.579913,49.9489565 68.5914783,50.1991304 68.6012174,50.4669565 C68.6182609,50.9052174 68.6328696,51.2734783 68.6450435,51.5717391 C68.6572174,51.87 68.6633043,52.0982609 68.6633043,52.2565217 L68.6633043,52.2966957 C68.6633043,52.6448696 68.6012174,52.8822609 68.4770435,53.0088696 C68.3601739,53.1257391 68.1641739,53.1841739 67.8890435,53.1841739 L67.8890435,53.1841739 L67.6114783,53.1841739 L67.6114783,53.9 L67.8890435,53.9 Z M67.7575652,53.9 L67.7575652,53.1841739 L67.6845217,53.1841739 C67.5384348,53.1841739 67.417913,53.1653043 67.3229565,53.1275652 C67.228,53.0898261 67.1488696,53.0374783 67.0855652,52.9705217 C67.0222609,52.9035652 66.968087,52.822 66.9230435,52.7258261 C66.878,52.6296522 66.8311304,52.5231304 66.7824348,52.4062609 C66.6874783,52.1846957 66.598,51.9722609 66.514,51.7689565 C66.43,51.5656522 66.3447826,51.3593043 66.2583478,51.149913 C66.171913,50.9405217 66.0806087,50.7189565 65.9844348,50.4852174 C65.8882609,50.2514783 65.7817391,49.9921739 65.6648696,49.7073043 L65.6648696,49.7073043 L65.0001739,49.9848696 L66.1542609,52.7605217 C66.1128696,52.801913 66.0526087,52.8512174 65.9734783,52.9084348 C65.8943478,52.9656522 65.7926957,53.0186087 65.6685217,53.0673043 C65.5370435,53.1184348 65.4256522,53.1482609 65.3343478,53.1567826 C65.2430435,53.1653043 65.1742609,53.1695652 65.128,53.1695652 C65.0306087,53.1695652 64.9332174,53.1586087 64.8358261,53.1366957 C64.6897391,53.1050435 64.5424348,53.0490435 64.393913,52.9686957 C64.2453913,52.8883478 64.098087,52.78 63.952,52.6436522 L63.952,52.6436522 L63.5393043,53.2243478 C63.7462609,53.4386087 63.972087,53.6047826 64.2167826,53.7228696 C64.4614783,53.8409565 64.7274783,53.9 65.0147826,53.9 C65.1876522,53.9 65.3434783,53.8896522 65.4822609,53.8689565 C65.6210435,53.8482609 65.7494783,53.8178261 65.8675652,53.7776522 C65.9856522,53.7374783 66.0964348,53.6869565 66.199913,53.626087 C66.3033913,53.5652174 66.4062609,53.4946087 66.5085217,53.4142609 C66.5596522,53.48 66.6205217,53.5426957 66.6911304,53.6023478 C66.7617391,53.662 66.843913,53.7137391 66.9376522,53.7575652 C67.0313913,53.8013913 67.1397391,53.836087 67.2626957,53.8616522 C67.3856522,53.8872174 67.5262609,53.9 67.6845217,53.9 L67.6845217,53.9 L67.7575652,53.9 Z M58.1852174,53.9730435 C58.1852174,53.7612174 58.1833913,53.5378261 58.1797391,53.3028696 C58.176087,53.067913 58.1687826,52.8293043 58.1578261,52.5870435 C58.1468696,52.3447826 58.1322609,52.1025217 58.114,51.8602609 C58.0957391,51.618 58.072,51.3824348 58.0427826,51.1535652 L58.0427826,51.1535652 L58.0135652,50.9526957 C58.106087,50.9892174 58.1992174,51.0153913 58.2929565,51.0312174 C58.3866957,51.0470435 58.492,51.0549565 58.6088696,51.0549565 C59.0349565,51.0549565 59.3721739,50.9052174 59.6205217,50.6057391 L59.6205217,50.6057391 C59.8761739,50.3086957 60.0088696,49.8789565 60.0186087,49.3165217 L60.0186087,49.3165217 L60.0186087,49.2215652 C60.0186087,49.1582609 60.0173913,49.0961739 60.0149565,49.0353043 C60.010087,48.9476522 60.004,48.8691304 59.9966957,48.7997391 C59.9893913,48.7303478 59.982087,48.6743478 59.9747826,48.6317391 C59.9674783,48.5891304 59.9638261,48.5653913 59.9638261,48.5605217 L59.9638261,48.5605217 L59.248,48.692 C59.2601739,48.7553043 59.2717391,48.8356522 59.2826957,48.9330435 C59.2936522,49.0304348 59.2991304,49.1314783 59.2991304,49.2361739 C59.2991304,49.3165217 59.2954783,49.3993043 59.2881739,49.4845217 C59.2808696,49.5697391 59.268087,49.6525217 59.2498261,49.7328696 C59.2315652,49.8132174 59.2078261,49.8893043 59.1786087,49.9611304 C59.1493913,50.0329565 59.1116522,50.0956522 59.0653913,50.1492174 C58.9631304,50.2733913 58.8109565,50.3354783 58.6088696,50.3354783 C58.4725217,50.3354783 58.3574783,50.3153913 58.2637391,50.2752174 C58.17,50.2350435 58.0872174,50.1772174 58.0153913,50.1017391 C57.9435652,50.0262609 57.8802609,49.9367826 57.8254783,49.8333043 C57.7706957,49.7298261 57.7153043,49.6135652 57.6593043,49.4845217 C57.617913,49.3944348 57.5801739,49.3104348 57.546087,49.2325217 C57.512,49.1546087 57.4785217,49.0809565 57.4456522,49.0115652 C57.4127826,48.9421739 57.379913,48.8752174 57.3470435,48.8106957 C57.3141739,48.7461739 57.2782609,48.6822609 57.2393043,48.6189565 L57.2393043,48.6189565 L56.6293913,49.006087 C56.7024348,49.1326957 56.7681739,49.2556522 56.8266087,49.3749565 C56.8850435,49.4942609 56.9398261,49.6196522 56.9909565,49.7511304 C57.1005217,50.0286957 57.1863478,50.3324348 57.2484348,50.6623478 C57.3105217,50.9922609 57.3573913,51.338 57.3890435,51.6995652 C57.4206957,52.0611304 57.4401739,52.4336522 57.4474783,52.8171304 C57.4547826,53.2006087 57.4584348,53.585913 57.4584348,53.9730435 L57.4584348,53.9730435 L58.1852174,53.9730435 Z" id="لینکوالد۲" fill-opacity="0.56" fill="#000000" fill-rule="nonzero"></path>
                    <path d="M46.982529,51.8 L48.7903957,49.9921333 C48.973329,49.8092 48.973329,49.5128667 48.7903957,49.3299333 C48.6069957,49.1465333 48.311129,49.1465333 48.127729,49.3299333 L45.988529,51.4691333 C45.8060623,51.6520667 45.8060623,51.9479333 45.988529,52.1308667 L48.127729,54.2700667 C48.2191957,54.3615333 48.339129,54.4072667 48.4590623,54.4072667 C48.5789957,54.4072667 48.698929,54.3615333 48.7903957,54.2700667 C48.973329,54.0871333 48.973329,53.7908 48.7903957,53.6078667 L46.982529,51.8 Z" id="icon_color" fill-opacity="0.56" fill="#000000"></path>
                    <path d="M35.6890435,53.9730435 C35.8813913,53.9730435 36.0889565,53.9663478 36.3117391,53.9529565 C36.5345217,53.9395652 36.7573043,53.9109565 36.980087,53.8671304 C37.2028696,53.8233043 37.4177391,53.7618261 37.6246957,53.6826957 C37.8316522,53.6035652 38.016087,53.4976522 38.178,53.3649565 C38.339913,53.2322609 38.472,53.0697391 38.5742609,52.8773913 C38.6765217,52.6850435 38.7325217,52.4549565 38.7422609,52.1871304 L38.7422609,52.1871304 L38.7422609,52.1177391 C38.7422609,51.9716522 38.7227826,51.8328696 38.6838261,51.7013913 C38.6351304,51.5504348 38.5657391,51.4146957 38.4756522,51.2941739 C38.3855652,51.1736522 38.2784348,51.0695652 38.1542609,50.981913 C38.030087,50.8942609 37.8949565,50.8248696 37.7488696,50.7737391 C37.6027826,50.7226087 37.4822609,50.694 37.3873043,50.687913 C37.2923478,50.6818261 37.2302609,50.6787826 37.2010435,50.6787826 C37.0646957,50.6787826 36.9271304,50.6946087 36.7883478,50.7262609 C36.4864348,50.7944348 36.2094783,50.8991304 35.9574783,51.0403478 C35.7054783,51.1815652 35.476,51.3501739 35.2690435,51.5461739 C35.062087,51.7421739 34.8758261,51.9613043 34.7102609,52.2035652 C34.5446957,52.4458261 34.3986087,52.7008696 34.272,52.9686957 C34.1916522,52.8518261 34.1368696,52.7325217 34.1076522,52.6107826 C34.0784348,52.4890435 34.0638261,52.3685217 34.0638261,52.2492174 L34.0638261,52.2492174 L34.0638261,52.2236522 C34.0638261,52.0970435 34.076,51.974087 34.1003478,51.8547826 C34.1246957,51.7354783 34.1514783,51.625913 34.1806957,51.526087 L34.1806957,51.526087 L33.4904348,51.317913 C33.4587826,51.4128696 33.432,51.5090435 33.410087,51.6064348 C33.3881739,51.7038261 33.3674783,51.8048696 33.348,51.9095652 C33.3090435,52.0946087 33.2688696,52.2662609 33.2274783,52.4245217 C33.186087,52.5827826 33.1227826,52.7203478 33.0375652,52.8372174 C33.0107826,52.8737391 32.976087,52.912087 32.9334783,52.9522609 C32.8908696,52.9924348 32.8342609,53.0295652 32.7636522,53.0636522 C32.6930435,53.0977391 32.6066087,53.1263478 32.5043478,53.1494783 C32.402087,53.1726087 32.2791304,53.1841739 32.1354783,53.1841739 L32.1354783,53.1841739 L32.0514783,53.1841739 L32.0514783,53.9 L32.1573913,53.9 C32.4933913,53.8975652 32.780087,53.8464348 33.0174783,53.7466087 C33.2548696,53.6467826 33.4502609,53.4897391 33.6036522,53.2754783 C33.7375652,53.4483478 33.8751304,53.5816522 34.0163478,53.6753913 C34.1575652,53.7691304 34.3109565,53.837913 34.4765217,53.8817391 C34.642087,53.9255652 34.824087,53.9517391 35.0225217,53.9602609 C35.2209565,53.9687826 35.4431304,53.9730435 35.6890435,53.9730435 Z M35.6890435,53.2353043 L35.5283478,53.2353043 C35.3116522,53.2304348 35.1229565,53.2231304 34.9622609,53.2133913 C35.0961739,52.969913 35.2337391,52.7489565 35.3749565,52.5505217 C35.5161739,52.352087 35.6653043,52.178 35.8223478,52.0282609 C35.9793913,51.8785217 36.148,51.7531304 36.3281739,51.652087 C36.5083478,51.5510435 36.7031304,51.4773913 36.9125217,51.4311304 C36.9782609,51.4165217 37.0513043,51.4086087 37.1316522,51.4073913 C37.212,51.4061739 37.2929565,51.414087 37.3745217,51.4311304 C37.456087,51.4481739 37.5358261,51.4743478 37.6137391,51.5096522 C37.6916522,51.5449565 37.7604348,51.5912174 37.820087,51.6484348 C37.8797391,51.7056522 37.9284348,51.7750435 37.9661739,51.8566087 C38.003913,51.9381739 38.0227826,52.0325217 38.0227826,52.1396522 L38.0227826,52.1396522 L38.0227826,52.1542609 C38.0227826,52.3417391 37.9716522,52.5 37.8693913,52.6290435 C37.7646957,52.7605217 37.625913,52.8676522 37.4530435,52.9504348 C37.2801739,53.0332174 37.0835652,53.0953043 36.8632174,53.1366957 C36.6428696,53.178087 36.4334783,53.2048696 36.2350435,53.2170435 C36.0366087,53.2292174 35.8546087,53.2353043 35.6890435,53.2353043 L35.6890435,53.2353043 Z M30.2692174,49.6415652 L30.8645217,49.0462609 L30.2655652,48.4473043 L29.6702609,49.0426087 L30.2692174,49.6415652 Z M28.4686957,53.9 C28.8412174,53.9 29.1918261,53.8786957 29.5205217,53.836087 C29.8492174,53.7934783 30.128,53.7283478 30.3568696,53.6406957 C30.6368696,53.7332174 30.9253913,53.7995652 31.2224348,53.8397391 C31.5194783,53.879913 31.8201739,53.9 32.1245217,53.9 L32.1245217,53.9 L32.1975652,53.9 L32.1975652,53.1841739 L32.1281739,53.1841739 C32.0502609,53.1841739 31.9686957,53.1817391 31.8834783,53.1768696 C31.7982609,53.172 31.7136522,53.165913 31.6296522,53.1586087 C31.5456522,53.1513043 31.464087,53.1427826 31.3849565,53.1330435 C31.3058261,53.1233043 31.2333913,53.1111304 31.1676522,53.0965217 C31.2991304,52.9528696 31.3995652,52.7891304 31.4689565,52.6053043 C31.5383478,52.4214783 31.5754783,52.2753913 31.5803478,52.1670435 C31.5852174,52.0586957 31.5876522,51.9935652 31.5876522,51.9716522 C31.5876522,51.8036522 31.5657391,51.6393043 31.521913,51.4786087 C31.4707826,51.296 31.3910435,51.1316522 31.2826957,50.9855652 C31.1743478,50.8394783 31.0386087,50.7201739 30.8754783,50.6276522 C30.7123478,50.5351304 30.5224348,50.484 30.3057391,50.4742609 L30.3057391,50.4742609 L30.2655652,50.4742609 C30.1024348,50.4742609 29.9429565,50.5156522 29.7871304,50.5984348 C29.6166957,50.6885217 29.4657391,50.8175652 29.3342609,50.9855652 C29.2027826,51.1535652 29.1023478,51.3386087 29.0329565,51.5406957 C28.9635652,51.7427826 28.9288696,51.9582609 28.9288696,52.1871304 C28.9288696,52.5377391 29.0871304,52.8518261 29.4036522,53.1293913 C29.294087,53.1415652 29.1565217,53.1537391 28.9909565,53.165913 C28.8253913,53.178087 28.6513043,53.1841739 28.4686957,53.1841739 L28.4686957,53.1841739 L28.3956522,53.1841739 L28.3956522,53.9 L28.4686957,53.9 Z M30.3313043,52.8554783 C30.2290435,52.8286957 30.1353043,52.7891304 30.050087,52.7367826 C29.9648696,52.6844348 29.8924348,52.6272174 29.8327826,52.5651304 C29.7731304,52.5030435 29.7268696,52.4391304 29.694,52.3733913 C29.6611304,52.3076522 29.6446957,52.2455652 29.6446957,52.1871304 C29.6446957,52.0386087 29.666,51.9028696 29.7086087,51.779913 C29.7512174,51.6569565 29.8053913,51.5522609 29.8711304,51.4658261 C29.9368696,51.3793913 30.008087,51.3124348 30.0847826,51.2649565 C30.1614783,51.2174783 30.2326957,51.1937391 30.2984348,51.1937391 C30.3787826,51.1937391 30.4554783,51.226 30.5285217,51.2905217 C30.6015652,51.3550435 30.6630435,51.4378261 30.7129565,51.5388696 C30.7628696,51.639913 30.7951304,51.7354783 30.8097391,51.8255652 C30.8243478,51.9156522 30.8316522,51.9886957 30.8316522,52.0446957 C30.8316522,52.1128696 30.8243478,52.1810435 30.8097391,52.2492174 C30.7853913,52.3733913 30.7348696,52.4890435 30.6581739,52.5961739 C30.5814783,52.7033043 30.4725217,52.7897391 30.3313043,52.8554783 Z M22.8333913,53.9 C23.2132174,53.9 23.5723478,53.8713913 23.9107826,53.8141739 C24.2492174,53.7569565 24.57,53.6814783 24.8731304,53.5877391 C25.1762609,53.494 25.4641739,53.388087 25.7368696,53.27 C26.0095652,53.151913 26.2713043,53.0307826 26.522087,52.9066087 C26.5829565,53.0624348 26.6736522,53.2018261 26.7941739,53.3247826 C26.9146957,53.4477391 27.0583478,53.5518261 27.2251304,53.6370435 C27.391913,53.7222609 27.58,53.7873913 27.7893913,53.8324348 C27.9987826,53.8774783 28.224,53.9 28.4650435,53.9 L28.4650435,53.9 L28.5417391,53.9 L28.5417391,53.1841739 L28.4650435,53.1841739 C28.4212174,53.1841739 28.3627826,53.1823478 28.2897391,53.1786957 C28.2166957,53.1750435 28.1363478,53.165913 28.0486957,53.1513043 C27.9610435,53.1366957 27.8715652,53.1166087 27.7802609,53.0910435 C27.6889565,53.0654783 27.6025217,53.0301739 27.5209565,52.9851304 C27.4393913,52.940087 27.3675652,52.8853043 27.3054783,52.8207826 C27.2433913,52.7562609 27.1989565,52.6777391 27.1721739,52.5852174 C27.2841739,52.5292174 27.3949565,52.4768696 27.5045217,52.4281739 C27.614087,52.3794783 27.7248696,52.3307826 27.8368696,52.282087 L27.8368696,52.282087 L27.698087,51.5881739 C27.5471304,51.5881739 27.3973913,51.5723478 27.2488696,51.5406957 C27.1003478,51.5090435 26.9518261,51.4670435 26.8033043,51.4146957 C26.6547826,51.3623478 26.5068696,51.3033043 26.3595652,51.2375652 C26.2122609,51.1718261 26.0667826,51.1048696 25.9231304,51.0366957 C25.7916522,50.9758261 25.6613913,50.9161739 25.5323478,50.8577391 C25.4033043,50.7993043 25.2766957,50.7475652 25.1525217,50.7025217 C25.0283478,50.6574783 24.906,50.6215652 24.7854783,50.5947826 C24.6649565,50.568 24.5462609,50.5546087 24.4293913,50.5546087 C24.1932174,50.5546087 23.9686087,50.6118261 23.7555652,50.7262609 C23.5425217,50.8406957 23.3410435,51.0123478 23.1511304,51.2412174 C23.0853913,51.3191304 23.0275652,51.3958261 22.9776522,51.4713043 C22.9277391,51.5467826 22.8851304,51.6137391 22.8498261,51.6721739 C22.8145217,51.7306087 22.7877391,51.7786957 22.7694783,51.8164348 C22.7512174,51.8541739 22.7408696,51.8754783 22.7384348,51.8803478 L22.7384348,51.8803478 L23.3958261,52.1761739 C23.3958261,52.1737391 23.4073913,52.15 23.4305217,52.1049565 C23.4536522,52.059913 23.4871304,52.003913 23.5309565,51.9369565 C23.5747826,51.87 23.6271304,51.7981739 23.688,51.7214783 C23.7488696,51.6447826 23.8176522,51.5729565 23.8943478,51.506 C23.9710435,51.4390435 24.0544348,51.3836522 24.1445217,51.3398261 C24.2346087,51.296 24.3295652,51.274087 24.4293913,51.274087 C24.5048696,51.274087 24.5876522,51.2856522 24.6777391,51.3087826 C24.7678261,51.331913 24.8633913,51.3629565 24.9644348,51.401913 C25.0654783,51.4408696 25.1701739,51.4853043 25.2785217,51.5352174 C25.3868696,51.5851304 25.4982609,51.6368696 25.6126957,51.6904348 C25.7612174,51.7610435 25.9121739,51.8304348 26.0655652,51.8986087 C26.2189565,51.9667826 26.3796522,52.030087 26.5476522,52.0885217 C26.270087,52.2273043 25.9888696,52.3624348 25.704,52.493913 C25.4191304,52.6253913 25.1251304,52.7422609 24.822,52.8445217 C24.5188696,52.9467826 24.2029565,53.0289565 23.8742609,53.0910435 C23.5455652,53.1531304 23.1986087,53.1841739 22.8333913,53.1841739 L22.8333913,53.1841739 L22.3074783,53.1841739 L22.3074783,53.9 L22.8333913,53.9 Z M22.449913,53.9 L22.449913,53.1841739 L22.3768696,53.1841739 C22.2064348,53.1841739 22.0725217,53.1604348 21.9751304,53.1129565 C21.8777391,53.0654783 21.7998261,52.976 21.7413913,52.8445217 C21.734087,52.829913 21.7231304,52.7976522 21.7085217,52.7477391 C21.693913,52.6978261 21.6744348,52.6132174 21.650087,52.493913 C21.6257391,52.3746087 21.5977391,52.2151304 21.566087,52.0154783 C21.5344348,51.8158261 21.4991304,51.5589565 21.4601739,51.2448696 C21.4577391,51.2278261 21.4528696,51.1852174 21.4455652,51.1170435 C21.4382609,51.0488696 21.4297391,50.9685217 21.42,50.876 C21.4102609,50.7834783 21.399913,50.6842609 21.3889565,50.5783478 C21.378,50.4724348 21.3676522,50.3726087 21.357913,50.2788696 C21.3481739,50.1851304 21.3396522,50.1035652 21.3323478,50.0341739 C21.3250435,49.9647826 21.3201739,49.9203478 21.3177391,49.9008696 L21.3177391,49.9008696 L21.3177391,49.9045217 L20.601913,50.0542609 C20.601913,50.0566957 20.6061739,50.1011304 20.6146957,50.1875652 C20.6232174,50.274 20.6372174,50.4097391 20.6566957,50.5947826 C20.5885217,50.6191304 20.5081739,50.6501739 20.4156522,50.687913 C20.3231304,50.7256522 20.2251304,50.771913 20.1216522,50.8266957 C20.0181739,50.8814783 19.9110435,50.9447826 19.8002609,51.0166087 C19.6894783,51.0884348 19.5823478,51.17 19.4788696,51.2613043 C19.3753913,51.3526087 19.278,51.4554783 19.1866957,51.569913 C19.0953913,51.6843478 19.0168696,51.8097391 18.9511304,51.946087 C18.9292174,51.9972174 18.9121739,52.0568696 18.9,52.1250435 C18.8878261,52.1932174 18.8817391,52.2601739 18.8817391,52.325913 L18.8817391,52.325913 L18.8817391,52.3916522 C18.8841739,52.4817391 18.8993913,52.5742609 18.9273913,52.6692174 C18.9553913,52.7641739 19.0034783,52.8518261 19.0716522,52.9321739 C19.3175652,53.2365217 19.7546087,53.3886957 20.3827826,53.3886957 C20.502087,53.3886957 20.6268696,53.3832174 20.7571304,53.3722609 C20.8873913,53.3613043 21.0292174,53.3436522 21.1826087,53.3193043 C21.3116522,53.5262609 21.4723478,53.6747826 21.6646957,53.7648696 C21.7913043,53.8233043 21.9185217,53.8604348 22.0463478,53.8762609 C22.1741739,53.892087 22.2843478,53.9 22.3768696,53.9 L22.3768696,53.9 L22.449913,53.9 Z M20.3884638,52.679971 L20.3645217,52.6801739 C20.2793043,52.6801739 20.1953043,52.6753043 20.1125217,52.6655652 C20.0126957,52.6558261 19.9232174,52.6369565 19.844087,52.6089565 C19.7649565,52.5809565 19.7004348,52.5413913 19.6505217,52.4902609 C19.6006087,52.4391304 19.5756522,52.3746087 19.5756522,52.2966957 C19.5756522,52.2187826 19.5963478,52.143913 19.6377391,52.072087 C19.6791304,52.0002609 19.7333043,51.9326957 19.8002609,51.8693913 C19.8672174,51.806087 19.9426957,51.7476522 20.0266957,51.694087 C20.1106957,51.6405217 20.195913,51.5912174 20.2823478,51.5461739 C20.3687826,51.5011304 20.4521739,51.4609565 20.5325217,51.4256522 C20.6128696,51.3903478 20.6822609,51.3605217 20.7406957,51.3361739 C20.7796522,51.6478261 20.8143478,51.905913 20.8447826,52.1104348 C20.8752174,52.3149565 20.9050435,52.4878261 20.9342609,52.6290435 C20.8709565,52.6412174 20.7936522,52.6521739 20.7023478,52.661913 C20.6110435,52.6716522 20.5361739,52.6771304 20.4777391,52.6783478 C20.4193043,52.6795652 20.3815652,52.6801739 20.3645217,52.6801739 L20.3884638,52.679971 Z M19.8313043,49.5246957 L20.6603478,49.0645217 L21.5441739,48.545913 L21.3286957,48.2610435 L20.8210435,48.5349565 C20.7723478,48.5617391 20.7212174,48.5751304 20.6676522,48.5751304 L20.6676522,48.5751304 L20.6530435,48.5751304 C20.5921739,48.5726957 20.5343478,48.5593043 20.4795652,48.5349565 C20.4247826,48.5106087 20.3742609,48.4777391 20.328,48.4363478 C20.2817391,48.3949565 20.2452174,48.349913 20.2184348,48.3012174 C20.194087,48.2525217 20.181913,48.2135652 20.181913,48.1843478 L20.181913,48.1843478 L20.181913,48.1295652 C20.181913,48.0833043 20.1904348,48.0370435 20.2074783,47.9907826 C20.2269565,47.9396522 20.2555652,47.8933913 20.2933043,47.852 C20.3310435,47.8106087 20.377913,47.7777391 20.433913,47.7533913 C20.4728696,47.7363478 20.5112174,47.726 20.5489565,47.7223478 C20.5866957,47.7186957 20.6238261,47.7168696 20.6603478,47.7168696 C20.7066087,47.7168696 20.754087,47.7205217 20.8027826,47.7278261 C20.8514783,47.7351304 20.916,47.7473043 20.9963478,47.7643478 L20.9963478,47.7643478 L21.0986087,47.4283478 L20.9598261,47.3954783 C20.9184348,47.3857391 20.8721739,47.3772174 20.8210435,47.369913 C20.769913,47.3626087 20.7163478,47.3589565 20.6603478,47.3589565 C20.5313043,47.3589565 20.412,47.382087 20.3024348,47.4283478 C20.2293913,47.4575652 20.1630435,47.4965217 20.1033913,47.5452174 C20.0437391,47.593913 19.9926087,47.6493043 19.95,47.7113913 C19.9073913,47.7734783 19.8745217,47.8404348 19.8513913,47.9122609 C19.8282609,47.984087 19.8166957,48.0577391 19.8166957,48.1332174 C19.8166957,48.2257391 19.8337391,48.3158261 19.8678261,48.4034783 C19.9092174,48.4984348 19.9676522,48.5848696 20.0431304,48.6627826 C20.1186087,48.7406957 20.2074783,48.8003478 20.3097391,48.8417391 L20.3097391,48.8417391 L19.656,49.2069565 L19.8313043,49.5246957 Z M13.9878261,49.0937391 L14.5831304,48.4984348 L13.9841739,47.8994783 L13.3888696,48.4947826 L13.9878261,49.0937391 Z M12.5050435,53.9 C12.746087,53.8975652 12.9834783,53.8884348 13.2172174,53.8726087 C13.4509565,53.8567826 13.6743478,53.8281739 13.8873913,53.7867826 C14.1004348,53.7453913 14.2988696,53.6887826 14.4826957,53.6169565 C14.6665217,53.5451304 14.8296522,53.452 14.972087,53.3375652 C15.1145217,53.2231304 15.232,53.0843478 15.3245217,52.9212174 C15.4170435,52.758087 15.477913,52.5657391 15.5071304,52.3441739 C15.5217391,52.2321739 15.5290435,52.1189565 15.5290435,52.0045217 C15.5290435,51.9217391 15.5253913,51.8377391 15.518087,51.7525217 C15.4986087,51.5553043 15.4614783,51.3635652 15.4066957,51.1773043 C15.351913,50.9910435 15.2806957,50.8157391 15.1930435,50.6513913 C15.1053913,50.4870435 15.0055652,50.3427826 14.8935652,50.2186087 C14.6306087,49.9337391 14.3384348,49.7913043 14.0170435,49.7913043 C13.8709565,49.7913043 13.7297391,49.8272174 13.5933913,49.8990435 C13.4570435,49.9708696 13.334087,50.0798261 13.2245217,50.225913 C13.0321739,50.4742609 12.901913,50.7834783 12.8337391,51.1535652 C12.8191304,51.2533913 12.8118261,51.3446957 12.8118261,51.4274783 L12.8118261,51.4274783 L12.8118261,51.4895652 C12.8166957,51.5918261 12.830087,51.6831304 12.852,51.7634783 C12.873913,51.8438261 12.901913,51.9150435 12.936,51.9771304 C12.970087,52.0392174 13.0041739,52.0921739 13.0382609,52.136 C13.1015652,52.2163478 13.1782609,52.2875652 13.2683478,52.3496522 C13.3584348,52.4117391 13.4582609,52.4634783 13.5678261,52.5048696 C13.6773913,52.5462609 13.7942609,52.5773043 13.9184348,52.598 C14.0426087,52.6186957 14.1704348,52.6290435 14.301913,52.6290435 L14.301913,52.6290435 L14.6707826,52.6290435 C14.6513043,52.6509565 14.6318261,52.6728696 14.6123478,52.6947826 C14.5928696,52.7166957 14.5673043,52.7410435 14.5356522,52.7678261 C14.4772174,52.8165217 14.385913,52.8652174 14.2617391,52.913913 C14.1375652,52.9626087 13.986,53.0070435 13.8070435,53.0472174 C13.628087,53.0873913 13.4247826,53.1202609 13.1971304,53.1458261 C12.9694783,53.1713913 12.7217391,53.1841739 12.453913,53.1841739 L12.453913,53.1841739 L12.3808696,53.1841739 L12.3808696,53.9 L12.5050435,53.9 Z M14.510087,51.905913 C14.4005217,51.905913 14.2836522,51.9034783 14.1594783,51.8986087 C14.049913,51.8913043 13.951913,51.8754783 13.8654783,51.8511304 C13.7790435,51.8267826 13.7084348,51.7902609 13.6536522,51.7415652 C13.5988696,51.6928696 13.5635652,51.6393043 13.5477391,51.5808696 C13.531913,51.5224348 13.524,51.4664348 13.524,51.4128696 C13.524,51.3714783 13.5276522,51.3276522 13.5349565,51.2813913 C13.5568696,51.1572174 13.587913,51.0476522 13.628087,50.9526957 C13.6682609,50.8577391 13.7114783,50.7773913 13.7577391,50.7116522 C13.804,50.645913 13.8502609,50.5966087 13.8965217,50.5637391 C13.9427826,50.5308696 13.9829565,50.5144348 14.0170435,50.5144348 C14.0852174,50.5144348 14.1491304,50.5357391 14.2087826,50.5783478 C14.2684348,50.6209565 14.3177391,50.6641739 14.3566957,50.708 C14.4808696,50.8467826 14.580087,51.0208696 14.6543478,51.2302609 C14.7286087,51.4396522 14.7742609,51.6624348 14.7913043,51.8986087 C14.7109565,51.9034783 14.6172174,51.905913 14.510087,51.905913 Z M8.27582609,53.9 C8.45356522,53.9 8.63921739,53.8902609 8.83278261,53.8707826 C9.02634783,53.8513043 9.21930435,53.8226957 9.41165217,53.7849565 C9.604,53.7472174 9.79086957,53.7009565 9.97226087,53.6461739 C10.1536522,53.5913913 10.3210435,53.5274783 10.4744348,53.4544348 C10.7422609,53.6151304 11.0417391,53.7295652 11.3728696,53.7977391 C11.704,53.865913 12.0643478,53.9 12.453913,53.9 L12.453913,53.9 L12.5269565,53.9 L12.5269565,53.1841739 L12.453913,53.1841739 C12.2055652,53.1841739 11.9687826,53.1683478 11.7435652,53.1366957 C11.5183478,53.1050435 11.3217391,53.0575652 11.1537391,52.9942609 C11.2803478,52.8993043 11.4057391,52.7842609 11.529913,52.6491304 C11.654087,52.514 11.7642609,52.3727826 11.8604348,52.2254783 C11.9566087,52.0781739 12.0284348,51.94 12.075913,51.8109565 C12.1233913,51.681913 12.1471304,51.569913 12.1471304,51.4749565 C12.1471304,51.4506087 12.145913,51.4262609 12.1434783,51.401913 C12.1434783,51.358087 12.1355652,51.3057391 12.1197391,51.2448696 C12.103913,51.184 12.074087,51.1206957 12.0302609,51.0549565 C11.9864348,50.9892174 11.9243478,50.9222609 11.844,50.854087 C11.7636522,50.785913 11.6589565,50.7226087 11.529913,50.6641739 C11.3326957,50.5813913 11.144,50.5278261 10.9638261,50.5034783 C10.7836522,50.4791304 10.6278261,50.4669565 10.4963478,50.4669565 C10.3843478,50.4669565 10.2711304,50.4730435 10.1566957,50.4852174 C10.0544348,50.4949565 9.94121739,50.5126087 9.81704348,50.5381739 C9.69286957,50.5637391 9.56504348,50.6002609 9.43356522,50.6477391 C9.30208696,50.6952174 9.16878261,50.7566957 9.03365217,50.8321739 C8.89852174,50.9076522 8.76886957,51.0013913 8.64469565,51.1133913 L8.64469565,51.1133913 L8.60817391,51.6210435 C8.71043478,51.737913 8.81208696,51.8566087 8.91313043,51.9771304 C9.01417391,52.0976522 9.114,52.2157391 9.2126087,52.3313913 C9.31121739,52.4470435 9.40921739,52.5578261 9.5066087,52.6637391 C9.604,52.7696522 9.70017391,52.8664348 9.79513043,52.954087 C9.70747826,52.9881739 9.60278261,53.0192174 9.48104348,53.0472174 C9.35930435,53.0752174 9.22965217,53.0995652 9.09208696,53.1202609 C8.95452174,53.1409565 8.81573913,53.1567826 8.67573913,53.1677391 C8.53573913,53.1786957 8.40365217,53.1841739 8.27947826,53.1841739 L8.27947826,53.1841739 L8.20278261,53.1841739 L8.20278261,53.9 L8.27582609,53.9 Z M10.4817391,52.5961739 C10.3064348,52.4549565 10.1347826,52.2906087 9.96678261,52.1031304 C9.79878261,51.9156522 9.61373913,51.6989565 9.41165217,51.4530435 C9.56747826,51.3629565 9.73669565,51.296 9.91930435,51.2521739 C10.101913,51.2083478 10.2833043,51.1864348 10.4634783,51.1864348 C10.6436522,51.1864348 10.8165217,51.2083478 10.982087,51.2521739 C11.1476522,51.296 11.2937391,51.3593043 11.4203478,51.442087 C11.4203478,51.4834783 11.4063478,51.5352174 11.3783478,51.5973043 C11.3503478,51.6593913 11.3132174,51.7269565 11.2669565,51.8 C11.2206957,51.8730435 11.1665217,51.9491304 11.1044348,52.0282609 C11.0423478,52.1073913 10.9766087,52.1828696 10.9072174,52.2546957 C10.8378261,52.3265217 10.7666087,52.3922609 10.6935652,52.451913 C10.6205217,52.5115652 10.549913,52.5596522 10.4817391,52.5961739 Z M6.28904348,53.9 C6.35965217,53.9 6.43878261,53.8951304 6.52643478,53.8853913 C6.61408696,53.8756522 6.70234783,53.8573913 6.79121739,53.8306087 C6.88008696,53.8038261 6.96530435,53.766087 7.04686957,53.7173913 C7.12843478,53.6686957 7.19965217,53.6041739 7.26052174,53.5238261 C7.30678261,53.5749565 7.3633913,53.6236522 7.43034783,53.669913 C7.49730435,53.7161739 7.57278261,53.7563478 7.65678261,53.7904348 C7.74078261,53.8245217 7.83147826,53.8513043 7.92886957,53.8707826 C8.02626087,53.8902609 8.12730435,53.9 8.232,53.9 L8.232,53.9 L8.34886957,53.9 L8.34886957,53.1841739 L8.26852174,53.1841739 C8.10782609,53.1817391 7.98547826,53.1561739 7.90147826,53.1074783 C7.81747826,53.0587826 7.75234783,52.997913 7.70608696,52.9248696 C7.6573913,52.8469565 7.62634783,52.7672174 7.61295652,52.6856522 C7.59956522,52.604087 7.59286957,52.5353043 7.59286957,52.4793043 C7.59286957,52.4549565 7.59408696,52.3898261 7.59652174,52.283913 C7.59895652,52.178 7.6013913,52.0434783 7.60382609,51.8803478 C7.60626087,51.7172174 7.60869565,51.5315652 7.61113043,51.3233913 C7.61356522,51.1152174 7.6153913,50.897913 7.6166087,50.6714783 C7.61782609,50.4450435 7.61782609,50.2155652 7.6166087,49.9830435 C7.6153913,49.7505217 7.61234783,49.5277391 7.60747826,49.3146957 C7.6026087,49.1016522 7.59469565,48.9038261 7.58373913,48.7212174 C7.57278261,48.5386087 7.55878261,48.3852174 7.54173913,48.2610435 L7.54173913,48.2610435 L6.82956522,48.3523478 C6.84417391,48.4716522 6.85573913,48.6213913 6.86426087,48.8015652 C6.87278261,48.9817391 6.87947826,49.1789565 6.88434783,49.3932174 C6.88921739,49.6074783 6.89226087,49.8314783 6.89347826,50.0652174 C6.89469565,50.2989565 6.89408696,50.5284348 6.89165217,50.7536522 C6.88921739,50.9788696 6.88678261,51.1943478 6.88434783,51.400087 C6.88191304,51.6058261 6.87947826,51.7866087 6.87704348,51.9424348 C6.8746087,52.0982609 6.87217391,52.2230435 6.86973913,52.3167826 C6.86827826,52.3730261 6.86725565,52.413273 6.8666713,52.4375235 L6.86608696,52.4646957 C6.86121739,52.528 6.85573913,52.5906957 6.84965217,52.6527826 C6.84356522,52.7148696 6.83321739,52.773913 6.8186087,52.829913 C6.804,52.885913 6.78513043,52.9364348 6.762,52.9814783 C6.73886957,53.0265217 6.70904348,53.0624348 6.67252174,53.0892174 C6.65304348,53.1038261 6.63173913,53.1166087 6.6086087,53.1275652 C6.58547826,53.1385217 6.55626087,53.1476522 6.52095652,53.1549565 C6.48565217,53.1622609 6.44243478,53.1683478 6.39130435,53.1732174 C6.34017391,53.178087 6.27808696,53.1817391 6.20504348,53.1841739 L6.20504348,53.1841739 L5.83252174,53.1841739 L5.83252174,53.9 L6.28904348,53.9 Z M2.6733913,56.2812174 C2.83408696,56.2812174 3.01426087,56.2702609 3.21391304,56.2483478 C3.41356522,56.2264348 3.61504348,56.189913 3.81834783,56.1387826 C4.02165217,56.0876522 4.21947826,56.0213043 4.41182609,55.9397391 C4.60417391,55.8581739 4.77582609,55.7577391 4.92678261,55.6384348 C5.07773913,55.5191304 5.19947826,55.3791304 5.292,55.2184348 C5.38452174,55.0577391 5.432,54.873913 5.43443478,54.6669565 C5.43443478,54.6158261 5.42956522,54.5598261 5.41982609,54.4989565 C5.41008696,54.438087 5.3906087,54.3747826 5.3613913,54.3090435 C5.33217391,54.2433043 5.2913913,54.1757391 5.23904348,54.1063478 C5.18669565,54.0369565 5.11913043,53.9681739 5.03634783,53.9 L5.03634783,53.9 L5.9786087,53.9 L5.9786087,53.1841739 L3.09704348,53.1841739 L3.04226087,53.8963478 L3.1226087,53.9109565 C3.16156522,53.9182609 3.21147826,53.9286087 3.27234783,53.942 C3.33321739,53.9553913 3.40017391,53.9718261 3.47321739,53.9913043 C3.54626087,54.0107826 3.62478261,54.0326957 3.70878261,54.0570435 C3.79278261,54.0813913 3.8773913,54.1081739 3.9626087,54.1373913 C4.1013913,54.1885217 4.21826087,54.2396522 4.31321739,54.2907826 C4.40817391,54.341913 4.48547826,54.39 4.54513043,54.4350435 C4.60478261,54.480087 4.648,54.5226957 4.67478261,54.5628696 C4.70156522,54.6030435 4.71495652,54.6377391 4.71495652,54.6669565 C4.71495652,54.7862609 4.67417391,54.8909565 4.5926087,54.9810435 C4.51104348,55.0711304 4.40695652,55.1490435 4.28034783,55.2147826 C4.15373913,55.2805217 4.01191304,55.335913 3.85486957,55.3809565 C3.69782609,55.426 3.54382609,55.461913 3.39286957,55.4886957 C3.24191304,55.5154783 3.10191304,55.5343478 2.97286957,55.5453043 C2.84382609,55.5562609 2.744,55.5617391 2.6733913,55.5617391 C2.55165217,55.5617391 2.41226087,55.5593043 2.25521739,55.5544348 C2.09817391,55.5495652 1.93991304,55.530087 1.78043478,55.496 C1.62095652,55.461913 1.46756522,55.4065217 1.32026087,55.3298261 C1.17295652,55.2531304 1.0493913,55.1429565 0.949565217,54.9993043 C0.796173913,54.7655652 0.719478261,54.4612174 0.719478261,54.0862609 C0.719478261,53.4946087 0.910608696,52.7288696 1.29286957,51.7890435 L1.29286957,51.7890435 L0.624521739,51.5187826 C0.24226087,52.444 0.0353043478,53.2377391 0.00365217391,53.9 C0.0012173913,53.9608696 0,54.0205217 0,54.0789565 C0,54.6121739 0.118086957,55.0516522 0.35426087,55.3973913 C0.46626087,55.5873043 0.610521739,55.740087 0.787043478,55.8557391 C0.963565217,55.9713913 1.15591304,56.0608696 1.36408696,56.1241739 C1.57226087,56.1874783 1.78956522,56.2294783 2.016,56.2501739 C2.24243478,56.2708696 2.46156522,56.2812174 2.6733913,56.2812174 Z" id="صفحهٔفعلی" fill-opacity="0.32" fill="#000000" fill-rule="nonzero"></path>
                    <circle id="Oval" fill="#EA475B" cx="19.5366957" cy="7" r="7"></circle>
                    <circle id="Oval" fill="#EA475B" cx="48.2366957" cy="7" r="7"></circle>
                    <circle id="Oval" fill="#EA475B" cx="76.9366957" cy="7" r="7"></circle>
                    <path d="M77.5630435,9.54495652 C77.5630435,9.33313043 77.5612174,9.11034783 77.5575652,8.8766087 C77.553913,8.64286957 77.5466087,8.40486957 77.5356522,8.1626087 C77.5246957,7.92034783 77.510087,7.67747826 77.4918261,7.434 C77.4735652,7.19052174 77.4498261,6.95434783 77.4206087,6.72547826 C77.35,6.18982609 77.2483478,5.71321739 77.1156522,5.29565217 C76.9829565,4.87808696 76.8167826,4.50982609 76.6171304,4.19086957 L76.6171304,4.19086957 L76.0108696,4.578 C76.1934783,4.86530435 76.3389565,5.19643478 76.4473043,5.5713913 C76.5556522,5.94634783 76.6390435,6.34930435 76.6974783,6.78026087 C76.755913,7.21121739 76.7936522,7.66104348 76.8106957,8.12973913 C76.8277391,8.59843478 76.8362609,9.07017391 76.8362609,9.54495652 L76.8362609,9.54495652 L77.5630435,9.54495652 Z" id="۱" fill="#FFFFFF" fill-rule="nonzero"></path>
                    <path d="M48.3383478,9.87304348 C48.3383478,9.66121739 48.3365217,9.43782609 48.3328696,9.20286957 C48.3292174,8.96791304 48.321913,8.72930435 48.3109565,8.48704348 C48.3,8.24478261 48.2853913,8.00252174 48.2671304,7.76026087 C48.2488696,7.518 48.2251304,7.28243478 48.195913,7.05356522 L48.195913,7.05356522 L48.1666957,6.85269565 C48.2592174,6.88921739 48.3523478,6.9153913 48.446087,6.93121739 C48.5398261,6.94704348 48.6451304,6.95495652 48.762,6.95495652 C49.188087,6.95495652 49.5253043,6.80521739 49.7736522,6.50573913 L49.7736522,6.50573913 C50.0293043,6.20869565 50.162,5.77895652 50.1717391,5.21652174 L50.1717391,5.21652174 L50.1717391,5.12156522 C50.1717391,5.05826087 50.1705217,4.99617391 50.168087,4.93530435 C50.1632174,4.84765217 50.1571304,4.76913043 50.1498261,4.69973913 C50.1425217,4.63034783 50.1352174,4.57434783 50.127913,4.53173913 C50.1206087,4.48913043 50.1169565,4.4653913 50.1169565,4.46052174 L50.1169565,4.46052174 L49.4011304,4.592 C49.4133043,4.65530435 49.4248696,4.73565217 49.4358261,4.83304348 C49.4467826,4.93043478 49.4522609,5.03147826 49.4522609,5.13617391 C49.4522609,5.21652174 49.4486087,5.29930435 49.4413043,5.38452174 C49.434,5.46973913 49.4212174,5.55252174 49.4029565,5.63286957 C49.3846957,5.71321739 49.3609565,5.78930435 49.3317391,5.86113043 C49.3025217,5.93295652 49.2647826,5.99565217 49.2185217,6.04921739 C49.1162609,6.1733913 48.964087,6.23547826 48.762,6.23547826 C48.6256522,6.23547826 48.5106087,6.2153913 48.4168696,6.17521739 C48.3231304,6.13504348 48.2403478,6.07721739 48.1685217,6.00173913 C48.0966957,5.92626087 48.0333913,5.83678261 47.9786087,5.73330435 C47.9238261,5.62982609 47.8684348,5.51356522 47.8124348,5.38452174 C47.7710435,5.29443478 47.7333043,5.21043478 47.6992174,5.13252174 C47.6651304,5.0546087 47.6316522,4.98095652 47.5987826,4.91156522 C47.565913,4.84217391 47.5330435,4.77521739 47.5001739,4.71069565 C47.4673043,4.64617391 47.4313913,4.58226087 47.3924348,4.51895652 L47.3924348,4.51895652 L46.7825217,4.90608696 C46.8555652,5.03269565 46.9213043,5.15565217 46.9797391,5.27495652 C47.0381739,5.39426087 47.0929565,5.51965217 47.144087,5.65113043 C47.2536522,5.92869565 47.3394783,6.23243478 47.4015652,6.56234783 C47.4636522,6.89226087 47.5105217,7.238 47.5421739,7.59956522 C47.5738261,7.96113043 47.5933043,8.33365217 47.6006087,8.71713043 C47.607913,9.1006087 47.6115652,9.48591304 47.6115652,9.87304348 L47.6115652,9.87304348 L48.3383478,9.87304348 Z" id="۲" fill="#FFFFFF" fill-rule="nonzero"></path>
                    <path d="M19.0436522,9.8693913 C19.0436522,9.37269565 19.0357391,8.87478261 19.019913,8.37565217 C19.004087,7.87652174 18.956,7.3786087 18.8756522,6.88191304 C18.9511304,6.90869565 19.0229565,6.92756522 19.0911304,6.93852174 C19.1593043,6.94947826 19.2396522,6.95495652 19.3321739,6.95495652 C19.4271304,6.95495652 19.5196522,6.94643478 19.6097391,6.9293913 C19.6998261,6.91234783 19.7850435,6.88434783 19.8653913,6.8453913 C19.9457391,6.80643478 20.0206087,6.75408696 20.09,6.68834783 C20.1593913,6.6226087 20.2196522,6.54104348 20.2707826,6.44365217 C20.3316522,6.53130435 20.3961739,6.60434783 20.4643478,6.66278261 C20.5325217,6.72121739 20.601913,6.76686957 20.6725217,6.79973913 C20.7431304,6.8326087 20.8125217,6.85573913 20.8806957,6.86913043 C20.9488696,6.88252174 21.0133913,6.88921739 21.0742609,6.88921739 C21.2666087,6.88921739 21.4315652,6.85330435 21.5691304,6.78147826 C21.7066957,6.70965217 21.818087,6.61043478 21.9033043,6.48382609 C21.9885217,6.35721739 22.0475652,6.21843478 22.0804348,6.06747826 C22.1133043,5.91652174 22.1297391,5.76556522 22.1297391,5.6146087 C22.1297391,5.57321739 22.1285217,5.53182609 22.126087,5.49043478 C22.1187826,5.34191304 22.1066087,5.1793913 22.0895652,5.00286957 C22.0725217,4.82634783 22.0445217,4.63217391 22.0055652,4.42034783 L22.0055652,4.42034783 L21.3226087,4.55547826 C21.3615652,4.76730435 21.3853043,4.94808696 21.3938261,5.09782609 C21.4023478,5.24756522 21.4066087,5.37721739 21.4066087,5.48678261 C21.4066087,5.54278261 21.4041739,5.60913043 21.3993043,5.68582609 C21.3944348,5.76252174 21.3816522,5.83617391 21.3609565,5.90678261 C21.3402609,5.9773913 21.3073913,6.03765217 21.2623478,6.08756522 C21.2173043,6.13747826 21.1546087,6.16243478 21.0742609,6.16243478 C21.0133913,6.16243478 20.9604348,6.13808696 20.9153913,6.0893913 C20.8703478,6.04069565 20.8307826,5.9773913 20.7966957,5.89947826 C20.7626087,5.82156522 20.734,5.73452174 20.7108696,5.63834783 C20.6877391,5.54217391 20.6682609,5.4466087 20.6524348,5.35165217 C20.6366087,5.25669565 20.6244348,5.16782609 20.615913,5.08504348 C20.6073913,5.00226087 20.6006957,4.93530435 20.5958261,4.88417391 C20.5909565,4.82086957 20.5842609,4.75573913 20.5757391,4.68878261 C20.5672174,4.62182609 20.5617391,4.5506087 20.5593043,4.47513043 L20.5593043,4.47513043 L19.8361739,4.56278261 C19.8386087,4.5773913 19.8422609,4.61573913 19.8471304,4.67782609 C19.852,4.73991304 19.8562609,4.80747826 19.859913,4.88052174 C19.8635652,4.95356522 19.8666087,5.02356522 19.8690435,5.09052174 C19.8714783,5.15747826 19.8726957,5.20434783 19.8726957,5.23113043 C19.8702609,5.31147826 19.8623478,5.40826087 19.8489565,5.52147826 C19.8355652,5.63469565 19.8093913,5.74426087 19.7704348,5.85017391 C19.7314783,5.95608696 19.6773043,6.04617391 19.607913,6.12043478 C19.5385217,6.19469565 19.4466087,6.23182609 19.3321739,6.23182609 C19.2226087,6.23182609 19.1325217,6.21782609 19.061913,6.18982609 C18.9913043,6.16182609 18.9286087,6.11617391 18.8738261,6.05286957 C18.8190435,5.98956522 18.7673043,5.90678261 18.7186087,5.80452174 C18.669913,5.70226087 18.6126957,5.57565217 18.5469565,5.42469565 L18.5469565,5.42469565 L18.3753043,5.05582609 C18.3509565,5.00713043 18.326,4.95721739 18.3004348,4.90608696 L18.3004348,4.90608696 L18.2255652,4.75634783 C18.2012174,4.70765217 18.178087,4.662 18.1561739,4.6193913 C18.1342609,4.57678261 18.1147826,4.54086957 18.0977391,4.51165217 L18.0977391,4.51165217 L17.4366957,4.90243478 C17.4926957,4.99008696 17.5444348,5.0826087 17.591913,5.18 C17.6393913,5.2773913 17.6911304,5.39304348 17.7471304,5.52695652 C17.9443478,6.0333913 18.0904348,6.60313043 18.1853913,7.23617391 C18.2803478,7.86921739 18.3278261,8.54 18.3278261,9.24852174 C18.3278261,9.34591304 18.3272174,9.44817391 18.326,9.55530435 C18.3247826,9.66243478 18.3217391,9.76713043 18.3168696,9.8693913 L18.3168696,9.8693913 L19.0436522,9.8693913 Z" id="۳" fill="#FFFFFF" fill-rule="nonzero"></path>
                    <g id="Group-3" transform="translate(18.136696, 12.600000)">
                        <circle id="Oval" fill="#EA475B" cx="1.4" cy="32.2" r="1.4"></circle>
                        <circle id="Oval" fill="#EA475B" cx="30.1" cy="32.2" r="1.4"></circle>
                        <circle id="Oval" fill="#EA475B" cx="84.7" cy="32.2" r="1.4"></circle>
                        <circle id="Oval" fill="#EA475B" cx="111.475" cy="32.2" r="1.4"></circle>
                        <circle id="Oval" fill="#EA475B" cx="53.9" cy="32.2" r="1.4"></circle>
                        <polyline id="Path-4" stroke="#EA475B" stroke-width="0.56" stroke-linecap="round" stroke-linejoin="round" points="30.1 32.2 30.1 24.0563914 30.1 -3.57491814e-15"></polyline>
                        <polyline id="Path-4" stroke="#EA475B" stroke-width="0.56" stroke-linecap="round" stroke-linejoin="round" points="53.9 32.2 53.9 12.9364862 53.9 11.55 58.8 11.55 58.8 1.4"></polyline>
                        <line x1="1.4" y1="32.2" x2="1.4" y2="-3.57491814e-15" id="Path-4" stroke="#EA475B" stroke-width="0.56" stroke-linecap="round" stroke-linejoin="round"></line>
                        <path d="M30.1,23.1 C44.1,23.1 51.1,23.1 51.1,23.1 M56.7,23.1 L84.028,23.1 C84.4145993,23.1 84.728,23.4134007 84.728,23.8 L84.728,32.2 L84.728,32.2" id="Shape" stroke="#EA475B" stroke-width="0.56" stroke-linecap="round" stroke-linejoin="round"></path>
                        <path d="M53.9,11.55 L110.672435,11.55 C111.059034,11.55 111.372435,11.8634007 111.372435,12.25 L111.372435,32.2 L111.372435,32.2" id="Path-2" stroke="#EA475B" stroke-width="0.56" stroke-linecap="round" stroke-linejoin="round"></path>
                    </g>
                    <path d="" id="Path-3" stroke="#EA475B" stroke-width="0.7"></path>
                </g>
            </g>
        </g>
    </g>
</svg>