<svg xmlns="http://www.w3.org/2000/svg" width="200" height="200"><g fill="none" fill-rule="evenodd"><path d="M0 0h200v200H0z"/><path d="M156 84h8v40h-8z"/><g fill="#EA475B" fill-rule="nonzero"><path d="M166 84.8a.2.2 0 01.053.393L166 85.2h-2a.2.2 0 01-.053-.393L164 84.8h2zm0 38a.2.2 0 01.053.393l-.053.007h-2a.2.2 0 01-.053-.393l.053-.007h2z"/><path d="M165 84.8a.2.2 0 01.193.147l.007.053v38a.2.2 0 01-.393.053L164.8 123V85c0-.11.09-.2.2-.2z"/></g><path fill="#EA475B" fill-rule="nonzero" d="M172.728 106v-.95h.53v-.57h-.53v-2.746h-.736l-1.84 2.883.02.434h1.844V106h.712zm-.712-1.52h-1.117l1.064-1.688.053-.094v1.781zm3.102 1.579c.469 0 .818-.156 1.048-.468.229-.311.344-.774.344-1.387v-.738c-.006-.596-.124-1.043-.353-1.342-.23-.299-.578-.448-1.045-.448-.47 0-.82.153-1.05.46-.23.306-.344.766-.344 1.38v.738c.006.596.125 1.045.359 1.349.233.304.58.456 1.041.456zm0-.569a.56.56 0 01-.524-.293c-.112-.195-.167-.492-.167-.89v-.967c.006-.375.063-.651.173-.828.109-.177.28-.265.512-.265.239 0 .412.093.522.28.11.186.164.48.164.88v.964c-.006.385-.064.668-.173.848-.11.18-.278.271-.507.271z"/><g fill="#EA475B" fill-rule="nonzero"><path d="M42.247 132c.114 0 .21.052.239.122l.009.045v1.666c0 .092-.111.167-.248.167-.113 0-.21-.052-.238-.122l-.009-.045v-1.666c0-.092.11-.167.247-.167zm117.506 0c.113 0 .21.052.238.122l.009.045v1.666c0 .092-.11.167-.247.167-.114 0-.21-.052-.239-.122l-.009-.045v-1.666c0-.092.111-.167.248-.167z"/><path d="M159.753 132.8c.136 0 .247.09.247.2 0 .092-.077.17-.182.193l-.065.007H42.247c-.136 0-.247-.09-.247-.2 0-.092.077-.17.182-.193l.065-.007h117.506z"/></g><path fill="#EA475B" fill-rule="nonzero" d="M83.712 144.5v-2.297c.12-.232.321-.349.606-.349.371 0 .562.187.572.56v2.086h.712l-.003-2.174a.688.688 0 01.215-.341.593.593 0 01.397-.13c.203 0 .349.046.436.14.088.094.132.241.132.443v2.062h.712v-2.083c-.004-.377-.091-.662-.262-.855-.17-.194-.431-.29-.78-.29-.419 0-.743.162-.973.486-.157-.324-.447-.487-.87-.487-.387 0-.692.13-.915.39l-.02-.33H83v3.169h.712zm4.913-3.618c.129 0 .229-.036.299-.107a.366.366 0 00.105-.268c0-.11-.035-.2-.105-.273-.07-.072-.17-.108-.299-.108-.129 0-.228.036-.297.108a.378.378 0 00-.104.273c0 .107.034.197.104.268.069.071.168.107.297.107zm.354 3.618v-3.17h-.711v3.17h.711zm1.477 0v-2.256c.14-.26.355-.39.642-.39.197 0 .339.049.426.146.087.096.13.245.13.446v2.054h.712v-2.095c-.012-.756-.347-1.134-1.008-1.134-.38 0-.688.142-.922.425l-.021-.366h-.67v3.17h.711zm4.017-1.526v-.575h-1.538v.575h1.538zm1.772 1.526l.668-2.177.68 2.177h.586l.864-3.17h-.694l-.504 2.189-.66-2.189h-.536l-.65 2.165-.513-2.165h-.694l.867 3.17h.586zm3.677-3.618c.129 0 .228-.036.299-.107a.366.366 0 00.105-.268c0-.11-.035-.2-.105-.273-.07-.072-.17-.108-.3-.108-.128 0-.227.036-.296.108a.378.378 0 00-.104.273c0 .107.034.197.104.268.069.071.168.107.297.107zm.354 3.618v-3.17h-.712v3.17h.712zm1.887.059c.356 0 .64-.13.853-.387l.035.328h.644V140h-.712v1.623a1.035 1.035 0 00-.814-.352c-.38 0-.685.148-.911.444-.227.296-.34.688-.34 1.177 0 .513.115.92.344 1.218.23.3.53.449.901.449zm.182-.58a.604.604 0 01-.53-.271c-.123-.181-.185-.433-.185-.755 0-.367.062-.642.187-.825a.608.608 0 01.534-.274c.29 0 .502.127.632.381v1.354a.672.672 0 01-.638.39zm3.093.58c.15 0 .307-.023.47-.068v-.55c-.085.019-.168.029-.25.029-.123 0-.208-.027-.256-.08-.048-.055-.072-.142-.072-.263v-1.77h.56v-.527h-.56v-.77h-.712v.77h-.521v.527h.521v1.796c0 .604.274.906.82.906zm1.697-.059v-2.265a.686.686 0 01.638-.38c.184 0 .323.045.418.136.095.09.142.245.142.464v2.045h.712v-2.071c-.01-.772-.353-1.158-1.028-1.158-.356 0-.65.135-.882.405V140h-.712v4.5h.712zm3.058-2.455c.133 0 .236-.037.308-.11a.378.378 0 00.108-.277.392.392 0 00-.108-.283c-.072-.075-.175-.112-.308-.112a.403.403 0 00-.304.112.392.392 0 00-.109.283c0 .113.037.206.112.279a.414.414 0 00.301.108zm0 2.487c.133 0 .236-.036.308-.11a.378.378 0 00.108-.276.392.392 0 00-.108-.283c-.072-.075-.175-.113-.308-.113a.403.403 0 00-.304.113.392.392 0 00-.109.283c0 .113.037.206.112.278a.414.414 0 00.301.108zm3.267-.014c.69-.006 1.208-.211 1.556-.616.347-.404.521-.99.521-1.76v-.2c0-.537-.126-.965-.378-1.286-.252-.32-.593-.48-1.022-.48-.276 0-.518.063-.727.19-.209.127-.37.305-.483.533-.114.229-.17.484-.17.765 0 .428.111.773.334 1.036.222.262.521.394.896.394.319 0 .597-.126.835-.378-.027.41-.153.713-.378.91-.224.196-.547.297-.966.303h-.103v.589h.085zm.677-1.98a.585.585 0 01-.492-.247c-.124-.164-.185-.38-.185-.647 0-.258.061-.472.183-.64a.576.576 0 01.49-.254c.206 0 .373.096.502.287.129.192.193.444.193.759v.278a.81.81 0 01-.29.34.718.718 0 01-.401.123zm3.533 2.02c.414 0 .748-.134 1.003-.402.255-.269.383-.62.383-1.053 0-.42-.11-.763-.327-1.029-.218-.265-.515-.398-.892-.398-.356 0-.648.12-.876.36.045-.39.186-.692.425-.905.238-.213.556-.322.955-.328h.088v-.59h-.074c-.683 0-1.207.213-1.571.637-.365.423-.547 1.01-.547 1.757v.244c0 .51.133.921.397 1.236.265.314.61.472 1.036.472zm-.006-.574a.608.608 0 01-.516-.28c-.132-.186-.199-.437-.199-.754v-.217a.77.77 0 01.715-.483c.207 0 .373.081.498.243.125.162.188.372.188.63s-.062.466-.185.624a.6.6 0 01-.5.237z"/><path d="M64 124h96v8H64z"/><g fill="#EA475B" fill-rule="nonzero"><path d="M144.5 77.8a.2.2 0 01.193.147l.007.053v2a.2.2 0 01-.393.053L144.3 80v-2c0-.11.09-.2.2-.2zm11 0a.2.2 0 01.193.147l.007.053v2a.2.2 0 01-.393.053L155.3 80v-2c0-.11.09-.2.2-.2z"/><path d="M155.5 78.8a.2.2 0 01.053.393l-.053.007h-11a.2.2 0 01-.053-.393l.053-.007h11z"/></g><path fill="#EA475B" fill-rule="nonzero" d="M148.462 76v-4.28h-.09l-1.665.612v.6l1.046-.357V76h.709zm4.35 0v-.568h-1.98l1.043-1.117c.273-.296.47-.562.59-.795.12-.233.18-.457.18-.67 0-.367-.12-.654-.358-.862-.24-.208-.566-.312-.98-.312-.287 0-.54.057-.76.173a1.22 1.22 0 00-.507.484 1.395 1.395 0 00-.178.702h.712c0-.244.064-.436.19-.577.128-.14.306-.21.537-.21.193 0 .347.062.461.187.114.125.172.289.172.492a.928.928 0 01-.13.461 3.538 3.538 0 01-.439.573l-1.42 1.55V76h2.868z"/><path d="M144 80h12v4h-12z"/><g fill="#EA475B" fill-rule="nonzero"><path d="M41.5 77.8a.2.2 0 01.193.147L41.7 78v2a.2.2 0 01-.393.053L41.3 80v-2c0-.11.09-.2.2-.2zm11 0a.2.2 0 01.193.147L52.7 78v2a.2.2 0 01-.393.053L52.3 80v-2c0-.11.09-.2.2-.2z"/><path d="M52.5 78.8a.2.2 0 01.053.393l-.053.007h-11a.2.2 0 01-.053-.393l.053-.007h11z"/></g><path fill="#EA475B" fill-rule="nonzero" d="M45.462 76v-4.28h-.09l-1.665.612v.6l1.046-.357V76h.709zm4.35 0v-.568h-1.98l1.043-1.117c.273-.296.47-.562.59-.795.12-.233.18-.457.18-.67 0-.367-.12-.654-.358-.862-.24-.208-.566-.312-.98-.312-.287 0-.54.057-.76.173a1.22 1.22 0 00-.507.484 1.395 1.395 0 00-.178.702h.712c0-.244.064-.436.19-.577.128-.14.306-.21.537-.21.193 0 .347.062.461.187.114.125.172.289.172.492a.928.928 0 01-.13.461 3.538 3.538 0 01-.439.573l-1.42 1.55V76h2.867z"/><path d="M41 80h12v4H41z"/><g fill-rule="nonzero" transform="translate(69 161)"><path fill="#000000" fill-opacity=".12" d="M14 .6C6.6.6.6 6.6.6 14s6 13.4 13.4 13.4 13.4-6 13.4-13.4S21.4.6 14 .6zm0 .4c7.18 0 13 5.82 13 13s-5.82 13-13 13S1 21.18 1 14 6.82 1 14 1z"/><path fill="#000000" fill-opacity=".12" d="M15 9a4 4 0 014 4v13.003A12.96 12.96 0 0114 27C6.82 27 1 21.18 1 14c0-1.772.354-3.46.996-5H15z"/><circle cx="15" cy="13" r="4" fill="#EA475B"/><path fill="#EA475B" d="M32.91 16.059c.385 0 .687-.146.907-.437.22-.29.33-.683.33-1.175v-.04c0-.516-.11-.918-.332-1.205-.22-.287-.524-.43-.91-.43-.348 0-.625.12-.83.363V11.5h-.712V16h.645l.035-.343c.207.268.496.402.867.402zm-.179-.58c-.31 0-.529-.138-.656-.414V13.76c.125-.27.342-.405.65-.405.231 0 .407.086.528.258.121.172.182.43.182.774v.09c-.004.336-.067.587-.188.753a.6.6 0 01-.516.25zm3.355.58c.293 0 .551-.068.775-.203.223-.134.395-.325.515-.57.12-.247.18-.526.18-.839l-.002-.167c-.022-.455-.166-.82-.432-1.095-.267-.276-.614-.414-1.042-.414-.289 0-.545.067-.767.201a1.348 1.348 0 00-.52.574 1.87 1.87 0 00-.184.84v.035c0 .496.135.893.403 1.19.269.299.627.448 1.074.448zm0-.569a.657.657 0 01-.563-.277c-.134-.184-.202-.44-.202-.766 0-.367.069-.643.205-.827a.653.653 0 01.554-.277.66.66 0 01.561.281c.138.188.207.441.207.762 0 .361-.067.635-.201.823a.65.65 0 01-.561.281zm2.783.51v-2.168c.113-.25.333-.375.66-.375.099 0 .196.008.29.023l.002-.668a.666.666 0 00-.252-.04c-.304 0-.543.137-.715.413l-.017-.355h-.68V16h.712zm2.51.059c.356 0 .64-.13.853-.387l.036.328h.644v-4.5H42.2v1.623a1.035 1.035 0 00-.814-.352c-.381 0-.685.148-.911.444-.227.296-.34.688-.34 1.177 0 .513.115.92.344 1.218.23.3.53.449.9.449zm.183-.58a.604.604 0 01-.53-.271c-.123-.181-.185-.433-.185-.755 0-.367.062-.642.187-.825a.608.608 0 01.533-.274c.291 0 .502.127.633.381v1.354a.672.672 0 01-.638.39zm3.489.58c.263 0 .501-.053.713-.157.212-.105.382-.252.508-.441l-.383-.366a.964.964 0 01-.797.395.787.787 0 01-.579-.228c-.153-.153-.24-.36-.262-.621h2.071v-.287c0-.504-.117-.894-.353-1.17-.235-.275-.569-.413-1-.413-.272 0-.518.07-.739.208-.22.14-.392.333-.514.582a1.902 1.902 0 00-.183.848v.088c0 .473.14.851.42 1.135.28.285.647.427 1.098.427zm.568-1.94h-1.356c.033-.244.11-.434.23-.571a.6.6 0 01.473-.205c.197 0 .351.06.463.183.111.122.175.302.19.54v.053zM47.585 16v-2.168c.113-.25.333-.375.66-.375.099 0 .195.008.29.023l.002-.668a.666.666 0 00-.252-.04c-.305 0-.543.137-.715.413l-.017-.355h-.68V16h.712zm2.78-1.526v-.575h-1.538v.575h1.538zM51.663 16v-2.168c.113-.25.333-.375.66-.375.099 0 .196.008.29.023l.002-.668a.666.666 0 00-.252-.04c-.304 0-.543.137-.715.413l-.017-.355h-.68V16h.712zm2.379.059c.328 0 .605-.119.832-.355.023.137.05.235.082.296h.727v-.05c-.08-.17-.12-.397-.12-.682v-1.43c-.006-.338-.12-.6-.34-.787-.221-.186-.517-.28-.888-.28-.244 0-.465.043-.664.13a1.152 1.152 0 00-.47.355.79.79 0 00-.173.488h.712c0-.125.052-.228.156-.309a.627.627 0 01.398-.122c.187 0 .327.05.419.148.092.1.138.23.138.394v.208h-.437c-.467 0-.826.09-1.077.271-.25.181-.376.44-.376.778 0 .268.1.492.302.674.2.182.46.273.779.273zm.132-.572a.528.528 0 01-.365-.121.416.416 0 01-.136-.327c0-.168.066-.298.2-.39.132-.091.33-.137.594-.137h.384v.597a.685.685 0 01-.28.276.81.81 0 01-.397.102zm3.246.572c.355 0 .64-.13.852-.387l.036.328h.644v-4.5h-.712v1.623a1.035 1.035 0 00-.814-.352c-.381 0-.685.148-.911.444-.227.296-.34.688-.34 1.177 0 .513.115.92.344 1.218.23.3.53.449.9.449zm.182-.58a.604.604 0 01-.53-.271c-.123-.181-.185-.433-.185-.755 0-.367.062-.642.187-.825a.608.608 0 01.533-.274c.291 0 .502.127.633.381v1.354a.672.672 0 01-.638.39zm2.496-3.097c.129 0 .228-.036.298-.107a.366.366 0 00.106-.268c0-.11-.035-.2-.106-.273-.07-.072-.17-.108-.298-.108-.13 0-.228.036-.298.108a.378.378 0 00-.104.273c0 .107.035.197.104.268.07.071.169.107.298.107zM60.452 16v-3.17h-.712V16h.712zm1.805.059c.385 0 .681-.123.89-.37l.018.311h.67v-3.17h-.711v2.276c-.121.248-.354.373-.7.373-.334 0-.501-.202-.501-.604V12.83h-.712v2.054c0 .38.088.672.265.873.177.201.437.302.78.302zm3.498 0c.383 0 .692-.089.929-.266a.826.826 0 00.354-.692.78.78 0 00-.116-.434.931.931 0 00-.354-.306 2.635 2.635 0 00-.658-.22c-.28-.061-.465-.122-.556-.183a.289.289 0 01-.138-.255c0-.121.05-.218.148-.29a.63.63 0 01.382-.108c.168 0 .303.045.404.136.102.09.153.205.153.341h.712a.892.892 0 00-.35-.73c-.234-.187-.54-.28-.919-.28-.355 0-.648.091-.879.275a.844.844 0 00-.346.685c0 .327.178.576.534.747.162.079.364.143.606.194.242.05.416.11.52.176a.323.323 0 01.157.29.331.331 0 01-.147.28c-.097.07-.24.106-.427.106a.74.74 0 01-.466-.136.502.502 0 01-.19-.388h-.692c0 .19.057.366.17.53.113.164.271.293.475.387.203.094.434.14.694.14zm2.332-2.514c.133 0 .235-.037.308-.11a.378.378 0 00.108-.277.392.392 0 00-.108-.283c-.073-.075-.175-.112-.308-.112a.403.403 0 00-.305.112.392.392 0 00-.108.283c0 .113.037.206.111.279a.414.414 0 00.302.108zm0 2.487c.133 0 .235-.036.308-.11a.378.378 0 00.108-.276.392.392 0 00-.108-.283c-.073-.075-.175-.113-.308-.113a.403.403 0 00-.305.113.392.392 0 00-.108.283c0 .113.037.206.111.278a.414.414 0 00.302.108zM73.105 16v-.95h.53v-.57h-.53v-2.746h-.735l-1.84 2.883.02.434h1.844V16h.711zm-.711-1.52h-1.117l1.064-1.688.053-.094v1.781z"/></g><g fill="#EA475B" fill-rule="nonzero"><path fill-opacity=".12" d="M116 84h8v40h-8z"/><path d="M120 105.04c.281 0 .507-.074.676-.22a.746.746 0 00.254-.595.714.714 0 00-.12-.407.812.812 0 00-.343-.283.745.745 0 00.293-.257.661.661 0 00.107-.372c0-.242-.078-.434-.234-.576-.156-.142-.368-.213-.635-.213-.266 0-.477.071-.633.213-.156.142-.234.334-.234.576 0 .14.035.264.106.372a.74.74 0 00.29.257.778.778 0 00-.34.28.723.723 0 00-.12.41c0 .248.084.446.254.593.17.147.396.221.679.221zm0-1.69a.373.373 0 01-.288-.116.44.44 0 01-.107-.31c0-.132.036-.236.106-.312a.372.372 0 01.287-.114c.121 0 .217.04.29.12.07.08.107.182.107.306a.44.44 0 01-.107.31.373.373 0 01-.288.116zm0 1.31a.45.45 0 01-.337-.125.457.457 0 01-.122-.334c0-.142.041-.256.124-.342a.438.438 0 01.331-.129c.138 0 .25.044.333.13.084.087.126.2.126.341 0 .145-.04.257-.12.338a.45.45 0 01-.335.121z"/></g><g fill-rule="nonzero" transform="translate(124 94)"><circle cx="10" cy="10" r="10" fill="#FFF"/><circle cx="10" cy="10" r="6" fill="#EA475B" fill-opacity=".12"/><path fill="#EA475B" d="M10 0c5.523 0 10 4.477 10 10s-4.477 10-10 10S0 15.523 0 10 4.477 0 10 0zm0 .2C4.588.2.2 4.588.2 10c0 5.412 4.388 9.8 9.8 9.8 5.412 0 9.8-4.388 9.8-9.8 0-5.412-4.388-9.8-9.8-9.8z"/><path fill="#EA475B" d="M9.852 11v-.379h-1.32l.695-.744c.182-.198.313-.375.393-.53a.976.976 0 00.12-.447c0-.244-.08-.436-.239-.575-.16-.138-.377-.208-.653-.208-.192 0-.36.039-.507.115a.814.814 0 00-.338.324.93.93 0 00-.118.467h.474c0-.162.043-.29.127-.384a.457.457 0 01.358-.141c.129 0 .231.042.307.125a.467.467 0 01.115.328.619.619 0 01-.087.308c-.058.102-.156.23-.292.382l-.948 1.033V11h1.913zm1.287.04c.312 0 .545-.105.698-.312.153-.208.23-.516.23-.925V9.31c-.005-.398-.083-.696-.236-.895-.153-.2-.385-.299-.696-.299-.314 0-.547.102-.7.307-.153.204-.23.51-.23.92v.492c.004.397.084.697.24.9.155.202.386.303.694.303zm0-.38a.374.374 0 01-.35-.195c-.074-.13-.111-.328-.111-.594v-.644c.004-.25.042-.434.115-.552.073-.118.187-.177.342-.177.159 0 .275.062.347.187.073.124.11.32.11.586v.643c-.004.257-.043.445-.115.565a.367.367 0 01-.338.181z"/></g><g fill-rule="nonzero" transform="translate(53 94)"><circle cx="10" cy="10" r="10" fill="#FFF"/><circle cx="10" cy="10" r="6" fill="#EA475B" fill-opacity=".12"/><path fill="#EA475B" d="M10 0c5.523 0 10 4.477 10 10s-4.477 10-10 10S0 15.523 0 10 4.477 0 10 0zm0 .2C4.588.2.2 4.588.2 10c0 5.412 4.388 9.8 9.8 9.8 5.412 0 9.8-4.388 9.8-9.8 0-5.412-4.388-9.8-9.8-9.8z"/><path fill="#EA475B" d="M9.852 11v-.379h-1.32l.695-.744c.182-.198.313-.375.393-.53a.976.976 0 00.12-.447c0-.244-.08-.436-.239-.575-.16-.138-.377-.208-.653-.208-.192 0-.36.039-.507.115a.814.814 0 00-.338.324.93.93 0 00-.118.467h.474c0-.162.043-.29.127-.384a.457.457 0 01.358-.141c.129 0 .231.042.307.125a.467.467 0 01.115.328.619.619 0 01-.087.308c-.058.102-.156.23-.292.382l-.948 1.033V11h1.913zm1.287.04c.312 0 .545-.105.698-.312.153-.208.23-.516.23-.925V9.31c-.005-.398-.083-.696-.236-.895-.153-.2-.385-.299-.696-.299-.314 0-.547.102-.7.307-.153.204-.23.51-.23.92v.492c.004.397.084.697.24.9.155.202.386.303.694.303zm0-.38a.374.374 0 01-.35-.195c-.074-.13-.111-.328-.111-.594v-.644c.004-.25.042-.434.115-.552.073-.118.187-.177.342-.177.159 0 .275.062.347.187.073.124.11.32.11.586v.643c-.004.257-.043.445-.115.565a.367.367 0 01-.338.181z"/></g><g fill="#EA475B" fill-rule="nonzero"><path fill-opacity=".12" d="M73 84h8v40h-8z"/><path d="M77 105.04c.281 0 .507-.074.676-.22a.746.746 0 00.254-.595.714.714 0 00-.12-.407.812.812 0 00-.343-.283.745.745 0 00.293-.257.661.661 0 00.107-.372c0-.242-.078-.434-.234-.576-.156-.142-.368-.213-.635-.213-.266 0-.477.071-.633.213-.156.142-.234.334-.234.576 0 .14.035.264.106.372a.74.74 0 00.29.257.778.778 0 00-.34.28.723.723 0 00-.12.41c0 .248.084.446.254.593.17.147.396.221.679.221zm0-1.69a.373.373 0 01-.288-.116.44.44 0 01-.107-.31c0-.132.036-.236.106-.312a.372.372 0 01.287-.114c.121 0 .217.04.29.12.07.08.107.182.107.306a.44.44 0 01-.107.31.373.373 0 01-.288.116zm0 1.31a.45.45 0 01-.337-.125.457.457 0 01-.122-.334c0-.142.041-.256.124-.342a.438.438 0 01.331-.129c.138 0 .25.044.333.13.084.087.126.2.126.341 0 .145-.04.257-.12.338a.45.45 0 01-.335.121z"/></g><path fill="#EA475B" fill-rule="nonzero" d="M152 84a4 4 0 014 4v32a4 4 0 01-4 4h-8V84h8zm-7.6 39.6h7.6a3.6 3.6 0 003.595-3.409l.005-.191V88a3.6 3.6 0 00-3.409-3.595L152 84.4h-7.6v39.2zM45 84a4 4 0 00-4 4v32a4 4 0 004 4h8V84h-8zm7.6 39.6H45a3.6 3.6 0 01-3.595-3.409L41.4 120V88a3.6 3.6 0 013.409-3.595L45 84.4h7.6v39.2z"/></g></svg>