<svg xmlns="http://www.w3.org/2000/svg" xmlns:xlink="http://www.w3.org/1999/xlink" width="422" height="344"><defs><rect id="a" width="422" height="344" x="0" y="0" rx="4"/><rect id="d" width="358" height="210" x="0" y="0" rx="4"/><rect id="f" width="96" height="40" x="0" y="0" rx="4"/><filter id="c" width="111.2%" height="119%" x="-5.6%" y="-7.6%" filterUnits="objectBoundingBox"><feOffset dy="2" in="SourceAlpha" result="shadowOffsetOuter1"/><feGaussianBlur in="shadowOffsetOuter1" result="shadowBlurOuter1" stdDeviation="4"/><feColorMatrix in="shadowBlurOuter1" result="shadowMatrixOuter1" values="0 0 0 0 0 0 0 0 0 0 0 0 0 0 0 0 0 0 0.08 0"/><feOffset dy="4" in="SourceAlpha" result="shadowOffsetOuter2"/><feGaussianBlur in="shadowOffsetOuter2" result="shadowBlurOuter2" stdDeviation="6"/><feColorMatrix in="shadowBlurOuter2" result="shadowMatrixOuter2" values="0 0 0 0 0 0 0 0 0 0 0 0 0 0 0 0 0 0 0.04 0"/><feOffset in="SourceAlpha" result="shadowOffsetOuter3"/><feGaussianBlur in="shadowOffsetOuter3" result="shadowBlurOuter3" stdDeviation="2"/><feColorMatrix in="shadowBlurOuter3" result="shadowMatrixOuter3" values="0 0 0 0 0 0 0 0 0 0 0 0 0 0 0 0 0 0 0.04 0"/><feMerge><feMergeNode in="shadowMatrixOuter1"/><feMergeNode in="shadowMatrixOuter2"/><feMergeNode in="shadowMatrixOuter3"/></feMerge></filter><filter id="e" width="210.4%" height="365%" x="-55.2%" y="-102.5%" filterUnits="objectBoundingBox"><feMorphology in="SourceAlpha" radius="4" result="shadowSpreadOuter1"/><feOffset dy="12" in="shadowSpreadOuter1" result="shadowOffsetOuter1"/><feGaussianBlur in="shadowOffsetOuter1" result="shadowBlurOuter1" stdDeviation="15"/><feComposite in="shadowBlurOuter1" in2="SourceAlpha" operator="out" result="shadowBlurOuter1"/><feColorMatrix in="shadowBlurOuter1" result="shadowMatrixOuter1" values="0 0 0 0 0.917647059 0 0 0 0 0.278431373 0 0 0 0 0.356862745 0 0 0 0.12 0"/><feMorphology in="SourceAlpha" operator="dilate" radius="1" result="shadowSpreadOuter2"/><feOffset dy="16" in="shadowSpreadOuter2" result="shadowOffsetOuter2"/><feGaussianBlur in="shadowOffsetOuter2" result="shadowBlurOuter2" stdDeviation="12"/><feComposite in="shadowBlurOuter2" in2="SourceAlpha" operator="out" result="shadowBlurOuter2"/><feColorMatrix in="shadowBlurOuter2" result="shadowMatrixOuter2" values="0 0 0 0 0.917647059 0 0 0 0 0.278431373 0 0 0 0 0.356862745 0 0 0 0.14 0"/><feMorphology in="SourceAlpha" radius="6" result="shadowSpreadOuter3"/><feOffset dy="14" in="shadowSpreadOuter3" result="shadowOffsetOuter3"/><feGaussianBlur in="shadowOffsetOuter3" result="shadowBlurOuter3" stdDeviation="10"/><feComposite in="shadowBlurOuter3" in2="SourceAlpha" operator="out" result="shadowBlurOuter3"/><feColorMatrix in="shadowBlurOuter3" result="shadowMatrixOuter3" values="0 0 0 0 0.917647059 0 0 0 0 0.278431373 0 0 0 0 0.356862745 0 0 0 0.32 0"/><feMerge><feMergeNode in="shadowMatrixOuter1"/><feMergeNode in="shadowMatrixOuter2"/><feMergeNode in="shadowMatrixOuter3"/></feMerge></filter></defs><g fill="none" fill-rule="evenodd"><mask id="b" fill="#fff"><use xlink:href="#a"/></mask><use fill="#000" fill-opacity="0" xlink:href="#a"/><g mask="url(#b)"><g transform="translate(32 67)"><use fill="#000" filter="url(#c)" xlink:href="#d"/><use fill="#FFF" xlink:href="#d"/><path d="M16 16h326v70H16z"/><g transform="translate(16 46)"><rect width="325" height="39" x=".5" y=".5" stroke="#000000" stroke-opacity=".24" rx="4"/><path fill="#000000" fill-opacity=".56" fill-rule="nonzero" d="M305.13 24c.242 0 .443-.016.606-.049.983-.18 1.68-.637 2.094-1.37.097-.176.182-.371.253-.584.072-.214.116-.405.133-.574.016-.17.024-.303.024-.4a3.57 3.57 0 00-.042-.53 4.165 4.165 0 00-.25-.903 5.846 5.846 0 00-.529-1.013 8.611 8.611 0 00-.87-1.116 10.845 10.845 0 00-.8-.8 44.76 44.76 0 00-.744-.654l4.981-2.094-.536-1.266-5.718 2.449-.16 1.426c.38.306.754.635 1.12.988.367.352.698.696.995 1.033.297.336.546.651.748.946.202.294.328.537.379.727.065.25.097.484.097.702a1.71 1.71 0 01-.278.946c-.13.195-.308.345-.536.449-.227.104-.477.18-.75.23a5.667 5.667 0 01-.864.083c-.301.007-.59.01-.87.01h-.869V24h2.386zm-2.107 0v-1.363h-.14c-.278 0-.507-.036-.688-.108a1.244 1.244 0 01-.452-.3 1.755 1.755 0 01-.31-.466 15.476 15.476 0 01-.268-.608c-.18-.422-.351-.827-.511-1.214a3882.653 3882.653 0 01-1.617-3.927l-1.267.529 2.199 5.287a2.64 2.64 0 01-.925.584c-.251.097-.463.154-.637.17a4.617 4.617 0 01-.393.025c-.186 0-.371-.021-.557-.063a3.191 3.191 0 01-.841-.32 4.114 4.114 0 01-.842-.619l-.786 1.106c.394.408.824.725 1.29.95a3.45 3.45 0 001.52.337c.33 0 .626-.02.89-.06a4.2 4.2 0 00.735-.173c.225-.077.436-.173.633-.289.197-.116.393-.25.587-.403a2.4 2.4 0 00.348.358c.135.114.291.212.47.296.178.083.385.15.619.198.234.049.502.073.803.073h.14zm-21.865 0c.283 0 .55-.014.8-.042.25-.028.487-.08.71-.16.222-.079.432-.192.63-.34.196-.149.385-.346.566-.592.214.158.446.312.696.463.25.15.511.278.783.382a3.005 3.005 0 001.123.226c.19 0 .38-.025.57-.076a1.66 1.66 0 00.766-.449c.208-.215.373-.468.494-.758.12-.29.194-.555.222-.797.028-.24.042-.436.042-.584 0-.167-.012-.33-.035-.487a4.21 4.21 0 00-.247-.918 2.864 2.864 0 00-.476-.807c-.2-.237-.44-.428-.72-.574a2.071 2.071 0 00-.97-.22c-.307 0-.575.062-.804.185-.23.123-.434.283-.612.48a3.668 3.668 0 00-.48.675c-.142.253-.275.509-.4.769-.144.287-.287.567-.428.838a3.398 3.398 0 01-.501.723c-.193.211-.426.38-.7.508-.273.128-.616.192-1.029.192h-.139V24h.14zm5.287-1.447c-.185 0-.394-.046-.626-.14-.348-.138-.733-.363-1.155-.674l.376-.758c.116-.227.22-.424.31-.591a3.74 3.74 0 01.257-.418.985.985 0 01.243-.247.466.466 0 01.261-.08c.14 0 .262.028.369.084.107.055.2.126.278.212.08.086.146.18.202.285a2.264 2.264 0 01.216.567c.018.079.03.135.034.167.019.125.028.246.028.362a2.082 2.082 0 01-.129.703c-.053.138-.117.252-.19.34a.444.444 0 01-.23.16 1.003 1.003 0 01-.244.028zM277.374 24c.134 0 .285-.01.452-.028.167-.018.335-.053.504-.104.17-.051.332-.123.487-.216.156-.093.291-.215.407-.369.088.098.196.19.324.279.127.088.271.164.431.23a2.875 2.875 0 001.096.208h.222v-1.363h-.153c-.306-.005-.539-.054-.699-.147a1.057 1.057 0 01-.372-.347 1.234 1.234 0 01-.177-.456 2.495 2.495 0 01-.039-.393l.007-.372a332.264 332.264 0 00.038-3.071c.003-.432.003-.869 0-1.312a72.364 72.364 0 00-.017-1.273c-.01-.406-.024-.783-.045-1.13a11.82 11.82 0 00-.08-.877l-1.357.174c.028.227.05.513.067.856.016.343.029.719.038 1.127a73.185 73.185 0 01.014 2.591 1205.106 1205.106 0 01-.028 2.264 72.352 72.352 0 01-.021.995l-.031.358c-.012.119-.032.231-.06.338a1.41 1.41 0 01-.107.288.574.574 0 01-.17.206.706.706 0 01-.29.125 2.34 2.34 0 01-.246.035c-.098.009-.216.016-.355.02h-.71V24h.87zm-6.887 4.536c.306 0 .65-.021 1.03-.063.38-.042.764-.111 1.15-.209a7.705 7.705 0 001.131-.379c.367-.155.694-.346.981-.574.288-.227.52-.494.696-.8a2.119 2.119 0 00.243-1.37 1.463 1.463 0 00-.111-.362 1.989 1.989 0 00-.233-.386 2.356 2.356 0 00-.386-.393h1.795v-1.363h-5.49l-.103 1.356.153.028a9.7 9.7 0 01.667.153c.14.037.29.079.45.125.16.047.32.098.483.153.264.098.487.195.667.292.181.098.329.19.442.275.114.086.196.167.247.244a.377.377 0 01.077.198.864.864 0 01-.233.598c-.156.172-.354.32-.595.445a4.37 4.37 0 01-.81.317 8.716 8.716 0 01-1.68.313c-.246.02-.437.031-.571.031-.232 0-.497-.004-.797-.014-.299-.009-.6-.046-.904-.111a3.453 3.453 0 01-.876-.317 1.949 1.949 0 01-.707-.63c-.292-.444-.438-1.024-.438-1.738 0-1.127.364-2.586 1.092-4.376l-1.273-.515c-.728 1.763-1.122 3.275-1.182 4.536a8.53 8.53 0 00-.007.34c0 1.017.225 1.854.675 2.512.213.362.488.653.824.873.336.22.703.39 1.099.512.397.12.81.2 1.242.24.431.039.848.059 1.252.059z"/></g><path d="M16 86h326v28H16z"/><path fill="#000000" fill-opacity=".56" fill-rule="nonzero" d="M25.9 103.94c.243 0 .472-.045.686-.137a1.814 1.814 0 00.947-.94 1.7 1.7 0 00.14-.69c0-.244-.046-.473-.14-.687a1.829 1.829 0 00-.947-.947 1.688 1.688 0 00-.686-.14 1.7 1.7 0 00-.692.14 1.797 1.797 0 00-.939.947 1.715 1.715 0 00-.138.686c0 .247.046.478.138.691a1.782 1.782 0 00.94.94c.213.092.444.138.69.138zm0-.85a.875.875 0 01-.355-.073.944.944 0 01-.49-.49.894.894 0 010-.712.936.936 0 01.49-.493.894.894 0 01.712 0 .936.936 0 01.493.493.894.894 0 010 .712.944.944 0 01-.493.49.894.894 0 01-.357.073zm7.179 2.64l3.553-9.26h-.924l-3.563 9.26h.934zm10.388-.594c0-.303-.003-.621-.008-.955a34.517 34.517 0 00-.094-2.061c-.026-.348-.06-.685-.102-1.012-.1-.765-.246-1.446-.436-2.043a6.903 6.903 0 00-.712-1.578l-.866.553c.261.41.469.883.624 1.42.154.535.274 1.11.357 1.726.084.616.137 1.258.162 1.928.024.67.036 1.343.036 2.022h1.039zm3.26-1.195c.244 0 .473-.046.687-.138a1.814 1.814 0 00.947-.94 1.7 1.7 0 00.14-.69c0-.244-.047-.473-.14-.687a1.829 1.829 0 00-.947-.947 1.688 1.688 0 00-.687-.14 1.7 1.7 0 00-.69.14 1.797 1.797 0 00-.94.947 1.715 1.715 0 00-.138.686c0 .247.046.478.138.691a1.782 1.782 0 00.94.94c.213.092.444.138.69.138zm0-.85a.875.875 0 01-.354-.074.944.944 0 01-.49-.49.894.894 0 010-.712.936.936 0 01.49-.493.894.894 0 01.712 0 .936.936 0 01.493.493.894.894 0 010 .712.944.944 0 01-.493.49.894.894 0 01-.358.073zM330.15 98.06l.772-.771-.778-.778-.772.772.778.778zm-1.18 1.65l.846-.85-.856-.857-.845.85.855.857zm2.29.005l.846-.845-.856-.856-.845.845.856.856zm.178 5.348c.324 0 .607-.046.85-.136.251-.09.46-.22.627-.391a1.63 1.63 0 00.375-.619c.084-.241.126-.512.126-.81 0-.2-.019-.403-.055-.611a5.772 5.772 0 00-.141-.61 9.179 9.179 0 00-.579-1.496l-.065-.133-.913.48a9.204 9.204 0 01.44 1.067c.075.221.14.446.194.676.053.23.08.443.08.642a1.5 1.5 0 01-.052.412.698.698 0 01-.17.303.573.573 0 01-.265.159c-.1.026-.2.039-.3.039-.06 0-.122-.004-.188-.01a.487.487 0 01-.264-.102.636.636 0 01-.172-.22 1.103 1.103 0 01-.094-.307 2.27 2.27 0 01-.029-.368c0-.143.01-.305.032-.488.02-.183.044-.355.07-.517.026-.161.05-.3.07-.414l.027-.167-1.002-.183c-.02.143-.05.31-.086.504a7.168 7.168 0 01-.141.597 5.408 5.408 0 01-.209.605 2.756 2.756 0 01-.287.532c-.11.157-.234.284-.375.381a.82.82 0 01-.478.146.551.551 0 01-.276-.062.467.467 0 01-.172-.167.73.73 0 01-.089-.238 1.42 1.42 0 01-.026-.274c0-.135.014-.282.042-.44.027-.159.06-.313.099-.465a9.577 9.577 0 01.219-.748l-1.033-.22c-.035.17-.077.352-.125.543a5.838 5.838 0 01-.178.571c-.07.19-.151.372-.245.546a2.155 2.155 0 01-.331.461 1.554 1.554 0 01-.436.324 1.22 1.22 0 01-.553.122h-.115V105h.11c.202 0 .387-.017.555-.05a2.028 2.028 0 00.848-.37c.119-.089.23-.189.334-.3.056.129.135.242.238.34.102.097.216.178.341.244a1.705 1.705 0 001.633-.016c.265-.142.501-.335.71-.578.073.11.162.214.266.31.104.096.217.18.34.25.12.072.249.128.383.17.134.042.267.063.399.063h.036zM319.203 105c.536 0 1.002-.14 1.399-.423.201-.139.348-.28.438-.422.65.455 1.323.727 2.02.814.058.007.116.01.171.01.359 0 .663-.165.913-.496.133.174.299.304.499.39.2.084.428.127.686.127h.125v-1.023h-.125a.702.702 0 01-.538-.24.804.804 0 01-.146-.255 1.006 1.006 0 01-.057-.308 4.39 4.39 0 00-.06-.569 3.057 3.057 0 00-.402-1.077 1.904 1.904 0 00-.352-.425 1.561 1.561 0 00-.462-.287 1.526 1.526 0 00-.576-.105c-.306 0-.568.081-.786.243-.217.162-.4.371-.55.629l-.04.065-.075.14-.146.293a49.76 49.76 0 01-.256.509 5.01 5.01 0 01-.38.63c-.376.502-.807.754-1.294.757h-.11V105h.104zm3.908-1.038c-.052 0-.11-.005-.172-.016a2.597 2.597 0 01-.576-.203c-.214-.101-.452-.24-.713-.418l.03-.057c.011-.025.034-.07.067-.138l.143-.293c.063-.127.147-.298.25-.514.213-.39.411-.584.596-.584.156 0 .292.044.407.13.114.088.21.2.284.337.075.137.132.291.172.462.04.17.064.339.07.506v.083c0 .094-.008.18-.026.256a.75.75 0 01-.11.25c-.09.133-.23.199-.422.199zM319.308 105v-1.023h-.105c-.219 0-.407-.022-.566-.067a.814.814 0 01-.357-.188.435.435 0 01-.138-.269 2.819 2.819 0 01-.019-.331v-2.62a36.417 36.417 0 00-.106-2.749 7.733 7.733 0 00-.081-.652l-1.023.188a6.5 6.5 0 01.08.628c.024.256.043.535.058.838.016.302.027.615.034.939.007.323.01.635.01.934.004.306.006.596.006.871v.203l-.005.538a158.575 158.575 0 00-.01.718v.148c0 .063.002.134.004.211a2.015 2.015 0 00.185.76c.062.132.15.255.264.37.188.188.417.327.686.417.27.09.596.136.978.136h.105zm-7.435 3.736c.292-.143.58-.304.864-.483.283-.18.553-.375.808-.587.256-.212.492-.438.71-.678.217-.24.405-.492.563-.757.159-.264.282-.538.37-.821a2.927 2.927 0 00.097-1.35 7.46 7.46 0 00-.091-.487 14.851 14.851 0 00-.12-.5 71.521 71.521 0 01-.128-.504 7.759 7.759 0 00-.13-.478 56.1 56.1 0 01-.146-.482l-.992.313a28.013 28.013 0 01.386 1.315c.042.15.08.299.115.448.035.15.064.296.086.438.023.143.034.279.034.407 0 .338-.082.665-.245.981-.164.317-.38.616-.65.898a5.97 5.97 0 01-.92.78c-.345.238-.7.448-1.065.628l.454.919zm-2.348-3.737c.048-.001.103-.003.165-.007.092-.005.19-.017.294-.036.105-.02.214-.046.329-.079.115-.033.228-.077.34-.133a1.61 1.61 0 00.696-.62c.158-.265.237-.576.237-.934 0-.359-.104-.748-.313-1.17-.209-.42-.527-.874-.955-1.36-.15-.168-.295-.322-.438-.463a15.909 15.909 0 00-.657-.613 1.055 1.055 0 01-.11-.099l-.657.798c0 .004.031.032.094.084.062.052.146.125.25.22a7.421 7.421 0 00-.61.636c-.567.681-.85 1.337-.85 1.967 0 .358.084.668.255.93.17.263.422.473.756.63.129.062.256.11.381.146.125.034.24.06.342.075a2.113 2.113 0 00.383.029h.068zm-.008-1.038h-.088c-.022 0-.049-.002-.081-.004a2.127 2.127 0 01-.355-.065 1.247 1.247 0 01-.203-.076.802.802 0 01-.225-.141.65.65 0 01-.128-.16.502.502 0 01-.057-.164 1.047 1.047 0 01-.013-.161c0-.178.04-.357.123-.538.081-.18.181-.355.3-.522.118-.167.244-.32.378-.459a6.85 6.85 0 01.352-.344c.337.365.595.71.772 1.033.178.323.266.6.266.83a.759.759 0 01-.086.383.688.688 0 01-.279.253 1.059 1.059 0 01-.209.073 2.766 2.766 0 01-.208.042c-.066.01-.127.016-.183.018l-.136.003h.06zm-12.3 1.039c.213 0 .413-.01.6-.031.188-.021.366-.061.533-.12.167-.06.324-.145.472-.256.148-.111.29-.26.425-.443.16.118.334.233.522.347.188.113.383.208.587.286a2.254 2.254 0 00.842.17c.143 0 .285-.02.428-.057.226-.063.417-.175.574-.337.157-.162.28-.351.37-.569.09-.217.147-.416.167-.597.021-.18.032-.327.032-.438 0-.125-.009-.247-.026-.365a3.157 3.157 0 00-.186-.69 2.148 2.148 0 00-.357-.604c-.15-.178-.33-.321-.54-.43a1.554 1.554 0 00-.728-.165c-.23 0-.43.046-.602.138a1.696 1.696 0 00-.46.36 2.75 2.75 0 00-.36.506c-.106.19-.206.382-.3.577-.107.215-.214.425-.32.628a2.548 2.548 0 01-.376.543c-.144.158-.32.285-.524.38-.206.097-.463.144-.773.144h-.104V105h.104zm3.966-1.085c-.14 0-.296-.035-.47-.105a4.026 4.026 0 01-.866-.506l.282-.568c.087-.17.164-.319.232-.444s.132-.23.193-.313a.739.739 0 01.183-.185.35.35 0 01.195-.06.59.59 0 01.277.063c.08.041.15.094.208.159.06.064.11.135.152.214a1.698 1.698 0 01.161.425 1.67 1.67 0 01.047.396 1.562 1.562 0 01-.097.527.887.887 0 01-.143.256.333.333 0 01-.172.12.752.752 0 01-.182.02zM294.379 105c.101 0 .214-.007.34-.02.124-.015.25-.04.378-.08.126-.037.248-.091.365-.16a1.07 1.07 0 00.305-.277c.066.073.147.142.243.208.095.066.203.124.323.172a2.156 2.156 0 00.822.157h.167v-1.023h-.115c-.23-.003-.404-.04-.524-.11a.793.793 0 01-.28-.26.925.925 0 01-.133-.342 1.871 1.871 0 01-.028-.295 74.084 74.084 0 00.016-.856 248.897 248.897 0 00.018-1.726v-.984a54.28 54.28 0 00-.013-.954 22.987 22.987 0 00-.034-.848 8.866 8.866 0 00-.06-.658l-1.018.13c.021.171.038.385.05.643.012.257.022.539.029.845a54.886 54.886 0 01.01 1.943 903.81 903.81 0 01-.02 1.698 54.268 54.268 0 01-.017.747c-.006.09-.014.18-.023.268a1.632 1.632 0 01-.044.253c-.021.08-.048.152-.081.217a.43.43 0 01-.128.154.53.53 0 01-.217.094c-.05.01-.112.019-.185.026a4.426 4.426 0 01-.266.015h-.532V105h.652zm-5.165 3.402c.23 0 .487-.016.772-.047.285-.032.573-.084.864-.157.29-.073.573-.168.847-.284.275-.117.52-.26.736-.43.216-.171.39-.371.522-.6a1.589 1.589 0 00.182-1.028 1.097 1.097 0 00-.083-.272c-.042-.094-.1-.19-.175-.29a1.767 1.767 0 00-.29-.294h1.347v-1.023h-4.117l-.078 1.018.115.02a7.275 7.275 0 01.5.115c.105.028.217.06.337.094.12.035.24.073.363.115.198.073.365.146.5.22.136.072.247.141.332.205a.8.8 0 01.185.183.283.283 0 01.057.149c0 .17-.058.32-.174.448-.117.129-.266.24-.446.334-.181.094-.384.173-.608.238a6.537 6.537 0 01-1.26.234 5.418 5.418 0 01-.428.024c-.174 0-.373-.004-.597-.01a3.804 3.804 0 01-.679-.084 2.59 2.59 0 01-.657-.237 1.461 1.461 0 01-.53-.473c-.219-.333-.328-.768-.328-1.304 0-.845.273-1.939.819-3.282l-.955-.386c-.546 1.322-.842 2.456-.887 3.402a6.398 6.398 0 00-.005.256c0 .761.168 1.39.506 1.883.16.271.366.49.618.655.252.165.527.293.824.383.298.09.608.15.932.18.323.03.636.045.939.045zm-10.998-3.407c.208 0 .418-.016.628-.047.21-.031.413-.082.608-.151.195-.07.377-.16.545-.27.17-.109.316-.24.441-.393a1.264 1.264 0 00.271-.553c.028-.122.043-.261.045-.418a2.41 2.41 0 00-.06-.526 3.792 3.792 0 00-.237-.681 5.52 5.52 0 00-.381-.7 6.908 6.908 0 00-1.057-1.28 5.968 5.968 0 00-.608-.506 3.66 3.66 0 00-.618-.366l-.423.95c.157.07.317.163.48.282.164.118.325.254.483.407a6.2 6.2 0 01.457.493c.146.175.279.356.399.542.12.186.222.372.308.559.085.186.146.364.185.534.028.126.041.233.041.324 0 .125-.026.219-.078.282a1.082 1.082 0 01-.438.318c-.174.07-.33.11-.47.122a2.997 2.997 0 01-.72-.008 4.434 4.434 0 01-1.215-.33 3.171 3.171 0 01-.465-.243l-.427.98c.087.08.224.16.412.24.188.08.395.154.62.22.227.066.454.119.681.159.228.04.426.06.593.06zm-5.411.004c.048-.001.103-.003.165-.007.092-.005.19-.017.294-.036.105-.02.214-.046.329-.079.115-.033.228-.077.34-.133a1.61 1.61 0 00.696-.62c.158-.265.237-.576.237-.934 0-.359-.104-.748-.313-1.17-.209-.42-.527-.874-.955-1.36-.15-.168-.295-.322-.438-.463a15.909 15.909 0 00-.657-.613 1.055 1.055 0 01-.11-.099l-.657.798c0 .004.031.032.094.084.062.052.146.125.25.22a7.421 7.421 0 00-.61.636c-.567.681-.85 1.337-.85 1.967 0 .358.084.668.255.93.17.263.422.473.756.63.129.062.256.11.381.146.125.034.24.06.342.075a2.113 2.113 0 00.383.029h.068zm-.008-1.038h-.088c-.022 0-.049-.002-.081-.004a2.127 2.127 0 01-.355-.065 1.247 1.247 0 01-.203-.076.802.802 0 01-.225-.141.65.65 0 01-.128-.16.502.502 0 01-.057-.164 1.047 1.047 0 01-.013-.161c0-.178.04-.357.123-.538.081-.18.181-.355.3-.522.118-.167.244-.32.378-.459a6.85 6.85 0 01.352-.344c.337.365.595.71.772 1.033.178.323.266.6.266.83a.759.759 0 01-.086.383.688.688 0 01-.279.253 1.059 1.059 0 01-.209.073 2.766 2.766 0 01-.208.042c-.066.01-.127.016-.183.018l-.136.003h.06zm-6.665 4.775c.292-.143.58-.304.864-.483.283-.18.553-.375.808-.587.256-.212.493-.438.71-.678.217-.24.405-.492.563-.757.159-.264.282-.538.37-.821a2.927 2.927 0 00.097-1.35 7.46 7.46 0 00-.091-.487 14.846 14.846 0 00-.12-.5 71.576 71.576 0 01-.128-.504 7.759 7.759 0 00-.13-.478 56.03 56.03 0 01-.146-.482l-.992.313a28.013 28.013 0 01.386 1.315c.042.15.08.299.115.448.035.15.064.296.086.438.023.143.034.279.034.407 0 .338-.081.665-.245.981-.163.317-.38.616-.65.898a5.97 5.97 0 01-.92.78c-.345.238-.7.448-1.065.628l.454.919zm-3.506-10.472l.845-.845-.855-.856-.846.85.856.851zm2.14.01l.844-.85-.855-.85-.845.845.855.856zM261.561 105c.344-.003.683-.017 1.017-.04.334-.022.653-.063.958-.122.304-.059.587-.14.85-.242.263-.103.496-.236.7-.4.203-.163.37-.361.503-.594.132-.233.219-.508.26-.825a3.748 3.748 0 00.016-.845 4.459 4.459 0 00-.159-.822 3.975 3.975 0 00-.305-.75 3.085 3.085 0 00-.428-.62c-.376-.406-.793-.61-1.252-.61-.209 0-.41.052-.605.154-.195.103-.37.259-.527.467-.275.355-.461.797-.559 1.326a2.72 2.72 0 00-.031.39v.09c.007.146.026.276.057.39.032.116.072.217.12.306.05.089.098.164.146.227.09.115.2.217.33.305.128.089.27.163.427.222.157.06.323.103.5.133.178.03.36.044.549.044h.527l-.084.094a1.09 1.09 0 01-.11.105c-.083.07-.213.139-.39.208a4.51 4.51 0 01-.65.19 8.171 8.171 0 01-.872.142c-.325.036-.679.054-1.061.054h-.105V105h.178zm2.864-2.849c-.156 0-.323-.003-.5-.01a2.06 2.06 0 01-.42-.068.756.756 0 01-.303-.156.475.475 0 01-.152-.23.918.918 0 01-.018-.428c.031-.177.076-.334.133-.47.057-.135.12-.25.185-.344a.87.87 0 01.199-.211.314.314 0 01.172-.07c.097 0 .188.03.274.09.085.062.155.123.211.186.177.198.32.447.425.746.106.3.171.617.196.955-.115.007-.249.01-.402.01zM255.343 105c.535 0 1.001-.14 1.398-.423.202-.139.348-.28.438-.422.65.455 1.324.727 2.02.814.058.007.116.01.171.01.359 0 .663-.165.913-.496.133.174.299.304.499.39.2.084.428.127.686.127h.125v-1.023h-.125a.702.702 0 01-.538-.24.804.804 0 01-.146-.255 1.006 1.006 0 01-.057-.308 4.39 4.39 0 00-.06-.569 3.057 3.057 0 00-.402-1.077 1.904 1.904 0 00-.352-.425 1.561 1.561 0 00-.462-.287 1.526 1.526 0 00-.576-.105c-.306 0-.568.081-.785.243-.218.162-.401.371-.55.629l-.04.065c-.016.026-.04.073-.076.14a49.782 49.782 0 01-.402.8 5.01 5.01 0 01-.38.633c-.376.5-.807.753-1.294.756h-.11V105h.105zm3.907-1.038c-.052 0-.11-.005-.172-.016a2.597 2.597 0 01-.576-.203c-.214-.101-.452-.24-.712-.418l.028-.057.068-.138.144-.293.25-.514c.212-.39.41-.584.595-.584.156 0 .292.044.407.13.115.088.21.2.284.337.075.137.132.291.172.462.04.17.064.339.07.506v.083c0 .094-.008.18-.025.256a.75.75 0 01-.11.25c-.09.133-.231.199-.423.199zm-8.525 4.44c.23 0 .487-.016.772-.047.286-.032.573-.084.864-.157.29-.073.573-.168.848-.284.274-.117.52-.26.735-.43.216-.171.39-.371.522-.6a1.589 1.589 0 00.183-1.028 1.097 1.097 0 00-.084-.272c-.042-.094-.1-.19-.175-.29a1.767 1.767 0 00-.29-.294h1.347v-1.023h-4.117l-.078 1.018.115.02a7.276 7.276 0 01.5.115c.105.028.217.06.337.094.12.035.241.073.363.115.198.073.365.146.5.22.136.072.247.141.332.205a.8.8 0 01.185.183.283.283 0 01.058.149c0 .17-.059.32-.175.448-.117.129-.265.24-.446.334-.181.094-.384.173-.608.238a6.537 6.537 0 01-1.26.234 5.418 5.418 0 01-.428.024c-.174 0-.373-.004-.597-.01a3.804 3.804 0 01-.678-.084 2.59 2.59 0 01-.658-.237 1.461 1.461 0 01-.53-.473c-.219-.333-.328-.768-.328-1.304 0-.845.273-1.939.819-3.282l-.955-.386c-.546 1.322-.841 2.456-.887 3.402a6.398 6.398 0 00-.005.256c0 .761.169 1.39.506 1.883.16.271.366.49.618.655.253.165.527.293.825.383.297.09.608.15.931.18.324.03.637.045.94.045zm-12.036.334c.292-.143.58-.304.863-.483.284-.18.553-.375.809-.587.256-.212.492-.438.71-.678.217-.24.405-.492.563-.757.158-.264.282-.538.37-.821a2.927 2.927 0 00.097-1.35 7.46 7.46 0 00-.091-.487 14.851 14.851 0 00-.12-.5 71.521 71.521 0 01-.128-.504 7.759 7.759 0 00-.13-.478 56.1 56.1 0 01-.147-.482l-.991.313a28.013 28.013 0 01.386 1.315c.042.15.08.299.115.448.035.15.063.296.086.438.022.143.034.279.034.407 0 .338-.082.665-.245.981-.164.317-.38.616-.65.898a5.97 5.97 0 01-.92.78c-.345.238-.7.448-1.065.628l.454.919zm-.585-3.689c.049-.577.078-1.122.086-1.633a75.751 75.751 0 00-.002-2.854 47.688 47.688 0 00-.266-3.798l-1.023.156c.118 1.096.212 2.487.282 4.174.01.289.016.595.016.918 0 .268-.004.548-.01.84-.018.647-.055 1.36-.11 2.14l1.027.057zm-8.63-.047c.286 0 .551-.02.796-.057.246-.039.467-.105.666-.199.198-.094.373-.219.524-.375.151-.157.28-.353.383-.59.105-.24.157-.518.157-.835 0-.055-.002-.111-.005-.167a5.826 5.826 0 00-.272-1.335 6.775 6.775 0 00-.166-.483 10.547 10.547 0 00-.287-.673 1.284 1.284 0 01-.047-.107l-.93.46.455 1.116a3.393 3.393 0 01.235.89c.007.092.01.16.01.205 0 .084-.005.162-.016.235a1.012 1.012 0 01-.078.277.934.934 0 01-.26.341 1.096 1.096 0 01-.366.186c-.14.041-.294.067-.464.075-.17.009-.357.013-.559.013h-.605V105h.83zm.856 2.718l.85-.85-.855-.856-.85.85.855.856zM228.854 105v-1.023h-.104c-.21 0-.381-.027-.517-.08a.933.933 0 01-.34-.225 1.316 1.316 0 01-.231-.35c-.065-.137-.132-.289-.201-.456a75.63 75.63 0 01-.384-.91 2917.896 2917.896 0 01-1.213-2.946l-.95.397 1.65 3.965a1.98 1.98 0 01-.694.438 1.84 1.84 0 01-.478.128c-.13.012-.229.019-.295.019-.139 0-.278-.016-.417-.047a2.393 2.393 0 01-.631-.24 3.085 3.085 0 01-.632-.465l-.59.83a3.4 3.4 0 00.969.712c.35.169.73.253 1.14.253.247 0 .47-.015.667-.044a3.15 3.15 0 00.55-.13c.17-.058.328-.13.476-.217.148-.087.294-.188.44-.303a1.8 1.8 0 00.261.269c.101.085.219.159.353.222.134.062.288.112.464.148.176.037.376.055.603.055h.104zm-11.671 3.663c.358-.056.71-.142 1.054-.259.344-.116.672-.26.983-.433.311-.172.602-.373.871-.602.27-.23.507-.486.712-.767.206-.282.374-.589.507-.921.132-.332.217-.69.255-1.072a4.831 4.831 0 00.005-.95 5.169 5.169 0 00-.172-.913 4.328 4.328 0 00-.326-.822 3.207 3.207 0 00-.467-.675c-.414-.446-.868-.668-1.362-.668-.222 0-.437.056-.644.17-.207.112-.399.279-.576.498a2.901 2.901 0 00-.381.67c-.108.26-.177.49-.206.694-.03.204-.045.371-.045.504 0 .139.012.278.037.417.042.264.142.497.302.699.362.449.92.696 1.675.74.192.018.363.027.514.027h.592c-.038.26-.145.526-.32.796-.176.27-.415.524-.718.764a5.16 5.16 0 01-1.09.647c-.425.191-.905.34-1.44.449l.24 1.007zm2.865-4.697l-.085.001c-.153 0-.316-.005-.49-.016a2.63 2.63 0 01-.222-.023 1.854 1.854 0 01-.26-.058 1.226 1.226 0 01-.251-.104.614.614 0 01-.196-.17.489.489 0 01-.107-.247 1.826 1.826 0 01-.018-.232 2.37 2.37 0 01.295-1.09c.071-.123.152-.223.243-.3a.433.433 0 01.286-.118c.063 0 .122.01.178.031.056.02.109.048.159.08.05.034.097.07.14.11.044.04.083.078.118.113.087.1.172.22.253.357.082.137.156.291.222.462.066.17.12.355.162.553.042.198.068.408.078.631a6.1 6.1 0 01-.505.02zm-7.733-1.486l.85-.85-.855-.856-.85.85.855.856zm-.23 6.104c.428 0 .834-.045 1.218-.135a3.76 3.76 0 001.052-.415c.316-.186.594-.422.832-.707s.423-.624.556-1.017c.125-.376.193-.676.203-.9.01-.225.016-.375.016-.452a5.381 5.381 0 00-.295-1.771c-.1-.29-.198-.544-.297-.762a5.916 5.916 0 00-.394-.743l-.866.553c.003 0 .035.051.096.154.061.102.131.243.211.422.08.18.161.39.243.632a4.961 4.961 0 01.258 1.588v.063a3.25 3.25 0 01-.151.903 2.017 2.017 0 01-.344.654 2.05 2.05 0 01-.57.49 2.766 2.766 0 01-.787.306c-.299.07-.633.104-1.002.104-.295 0-.559-.032-.79-.096a2.473 2.473 0 01-.605-.25 2.037 2.037 0 01-.441-.348 2.272 2.272 0 01-.303-.394 1.901 1.901 0 01-.18-.386 2.058 2.058 0 01-.08-.326 3.06 3.06 0 01-.027-.615c.01-.209.034-.414.07-.616.037-.202.083-.396.139-.582.056-.186.114-.357.175-.514.06-.156.12-.293.18-.41a2.1 2.1 0 01.156-.268l-.83-.61c-.142.236-.278.5-.409.79-.13.29-.24.597-.329.921a4.863 4.863 0 00-.164.843 4.607 4.607 0 00.016 1.208c.07.455.204.852.404 1.189.2.337.451.616.754.837.303.221.648.386 1.036.496.387.11.804.164 1.25.164zm-10.351-10.45l.85-.85-.855-.856-.85.85.855.856zM199.616 105c.344-.003.683-.017 1.017-.04.334-.022.653-.063.957-.122.305-.059.588-.14.85-.242.263-.103.497-.236.7-.4.203-.163.371-.361.503-.594.133-.233.22-.508.261-.825a3.748 3.748 0 00.016-.845 4.459 4.459 0 00-.16-.822 3.975 3.975 0 00-.304-.75 3.085 3.085 0 00-.428-.62c-.376-.406-.793-.61-1.252-.61-.209 0-.41.052-.606.154-.194.103-.37.259-.527.467-.274.355-.46.797-.558 1.326a2.72 2.72 0 00-.031.39v.09c.007.146.026.276.057.39.032.116.072.217.12.306.049.089.098.164.146.227.09.115.2.217.33.305.128.089.27.163.427.222.156.06.323.103.5.133.178.03.36.044.549.044h.527l-.084.094a1.09 1.09 0 01-.11.105c-.083.07-.213.139-.39.208a4.51 4.51 0 01-.65.19 8.171 8.171 0 01-.872.142c-.325.036-.679.054-1.061.054h-.105V105h.178zm2.864-2.849c-.157 0-.323-.003-.5-.01a2.06 2.06 0 01-.42-.068.756.756 0 01-.303-.156.475.475 0 01-.152-.23.918.918 0 01-.018-.428c.031-.177.076-.334.133-.47.057-.135.12-.25.185-.344a.87.87 0 01.198-.211.314.314 0 01.173-.07c.097 0 .188.03.274.09.085.062.155.123.21.186.178.198.32.447.426.746.106.3.171.617.196.955-.115.007-.249.01-.402.01zM199.647 105v-1.023h-.104c-.22 0-.408-.022-.566-.067a.814.814 0 01-.358-.188.435.435 0 01-.138-.269 2.819 2.819 0 01-.018-.331v-2.62a36.413 36.413 0 00-.107-2.749 7.734 7.734 0 00-.081-.652l-1.023.188a6.5 6.5 0 01.081.628c.023.256.042.535.057.838.016.302.027.615.034.939.007.323.01.635.01.934a76.853 76.853 0 010 1.612 158.303 158.303 0 00-.01.718v.148l.006.211a2.015 2.015 0 00.185.76c.06.132.148.255.263.37.188.188.417.327.686.417.27.09.596.136.979.136h.104zm-8.285.104c.275 0 .571-.01.89-.028.318-.02.636-.06.954-.123a5.6 5.6 0 00.921-.263c.296-.113.56-.265.79-.454.232-.19.42-.422.566-.697.147-.275.227-.603.24-.986v-.1c0-.208-.027-.406-.083-.594a1.977 1.977 0 00-.757-1.028 2.338 2.338 0 00-.579-.297 2.032 2.032 0 00-.516-.123 2.645 2.645 0 00-.856.055 4.392 4.392 0 00-1.187.449c-.36.202-.688.442-.983.722a5.78 5.78 0 00-.799.94c-.236.346-.445.71-.626 1.093a1.534 1.534 0 01-.234-.512 2.207 2.207 0 01-.063-.516v-.037c0-.18.017-.356.052-.527.035-.17.073-.327.115-.47l-.986-.297a4.259 4.259 0 00-.115.412c-.031.14-.06.284-.089.434-.055.264-.113.51-.172.735-.059.226-.15.423-.271.59a1.232 1.232 0 01-.149.164.96.96 0 01-.242.16c-.101.048-.225.089-.37.122-.147.033-.323.05-.528.05h-.12V105h.152c.48-.003.89-.077 1.228-.22.34-.142.618-.366.838-.672.19.247.387.437.59.571.2.134.42.232.657.295.236.063.496.1.78.112.283.012.6.018.952.018zm0-1.054h-.23c-.31-.007-.579-.017-.809-.03.192-.349.388-.664.59-.948a5.16 5.16 0 01.64-.746c.224-.214.464-.393.722-.537.257-.145.535-.25.835-.316a1.575 1.575 0 011.002.112.973.973 0 01.503.496c.054.116.08.251.08.404v.021c0 .268-.072.494-.218.678-.15.188-.348.341-.595.46a3.397 3.397 0 01-.843.266 7.29 7.29 0 01-.897.114c-.284.018-.544.026-.78.026zm-7.93.95c.1 0 .213-.007.338-.02.126-.015.252-.04.379-.08.127-.037.248-.091.365-.16a1.07 1.07 0 00.305-.277c.066.073.147.142.243.208.095.066.203.124.323.172a2.156 2.156 0 00.822.157h.167v-1.023h-.115c-.23-.003-.404-.04-.524-.11a.793.793 0 01-.28-.26.925.925 0 01-.132-.342 1.871 1.871 0 01-.03-.295l.006-.279a249.192 249.192 0 00.029-2.303c.002-.324.002-.651 0-.984a54.28 54.28 0 00-.013-.954 22.987 22.987 0 00-.034-.848 8.866 8.866 0 00-.06-.658l-1.018.13c.021.171.038.385.05.643.012.257.022.539.029.845a54.896 54.896 0 01.01 1.943 903.81 903.81 0 01-.02 1.698 54.268 54.268 0 01-.016.747c-.007.09-.015.18-.024.268a1.632 1.632 0 01-.044.253c-.021.08-.048.152-.081.217a.43.43 0 01-.128.154.53.53 0 01-.216.094c-.05.01-.113.019-.186.026a4.426 4.426 0 01-.266.015h-.532V105h.652zm-.45 0v-1.023h-.104c-.243 0-.435-.034-.574-.101-.139-.068-.25-.196-.334-.384a1.045 1.045 0 01-.047-.138 5.104 5.104 0 01-.083-.363c-.035-.17-.075-.398-.12-.683a34.109 34.109 0 01-.253-2.053 987.041 987.041 0 00-.102-.968v.005l-1.022.214.018.19.06.582c-.098.035-.212.08-.344.133-.133.054-.273.12-.42.199-.148.078-.301.168-.46.27-.158.103-.31.22-.459.35-.148.13-.287.278-.417.441-.13.164-.243.343-.337.538a1.175 1.175 0 00-.073.255 1.63 1.63 0 00-.026.287v.094c.004.129.025.261.065.397.04.135.11.26.207.375.35.435.975.653 1.873.653.17 0 .348-.008.534-.024.186-.016.389-.04.608-.076.185.296.414.508.689.637.18.083.362.136.545.16.183.022.34.033.472.033h.105zm-2.944-1.743h-.035c-.121 0-.241-.007-.36-.02a1.622 1.622 0 01-.383-.081.71.71 0 01-.277-.17.38.38 0 01-.106-.276c0-.112.03-.219.088-.321.06-.103.137-.2.232-.29.096-.09.204-.174.324-.25.12-.077.242-.147.365-.212.124-.064.243-.121.357-.172l.298-.128c.056.446.105.814.149 1.106.043.293.086.54.127.741-.09.018-.2.033-.33.047a3.912 3.912 0 01-.484.026h.035zm-11.455 5.406c.358-.056.71-.142 1.054-.259.344-.116.672-.26.983-.433.311-.172.602-.373.871-.602.27-.23.507-.486.712-.767.206-.282.374-.589.507-.921.132-.332.217-.69.255-1.072a4.831 4.831 0 00.005-.95 5.169 5.169 0 00-.172-.913 4.328 4.328 0 00-.326-.822 3.207 3.207 0 00-.467-.675c-.414-.446-.868-.668-1.362-.668-.222 0-.437.056-.644.17-.207.112-.399.279-.576.498a2.901 2.901 0 00-.381.67c-.108.26-.177.49-.206.694-.03.204-.045.371-.045.504 0 .139.012.278.037.417.042.264.142.497.302.699.362.449.92.696 1.675.74.192.018.363.027.514.027h.592c-.038.26-.145.526-.32.796-.176.27-.415.524-.718.764a5.16 5.16 0 01-1.09.647c-.425.191-.905.34-1.44.449l.24 1.007zm2.865-4.697l-.085.001c-.153 0-.316-.005-.49-.016a2.63 2.63 0 01-.222-.023 1.854 1.854 0 01-.26-.058 1.226 1.226 0 01-.251-.104.614.614 0 01-.196-.17.489.489 0 01-.107-.247 1.826 1.826 0 01-.018-.232 2.37 2.37 0 01.295-1.09c.071-.123.152-.223.243-.3a.433.433 0 01.286-.118c.063 0 .122.01.178.031.056.02.109.048.159.08.05.034.097.07.14.11.044.04.083.078.118.113.087.1.172.22.253.357.082.137.156.291.222.462.066.17.12.355.162.553.042.198.068.408.078.631a6.1 6.1 0 01-.505.02zm-4.31 1.081c.048-.577.077-1.122.085-1.633a75.742 75.742 0 00-.002-2.854 47.688 47.688 0 00-.266-3.798l-1.023.156c.118 1.096.212 2.487.282 4.174.01.289.016.595.016.918 0 .268-.004.548-.01.84-.018.647-.055 1.36-.11 2.14l1.027.057zm-6.068 3.689c.292-.143.58-.304.863-.483.284-.18.553-.375.809-.587.255-.212.492-.438.71-.678.217-.24.405-.492.563-.757.158-.264.282-.538.37-.821a2.927 2.927 0 00.097-1.35 7.46 7.46 0 00-.092-.487 14.851 14.851 0 00-.12-.5 71.521 71.521 0 01-.127-.504 7.759 7.759 0 00-.13-.478c-.05-.158-.098-.319-.147-.482l-.991.313a28.016 28.016 0 01.386 1.315c.042.15.08.299.115.448.034.15.063.296.086.438.022.143.034.279.034.407 0 .338-.082.665-.246.981-.163.317-.38.616-.65.898a5.97 5.97 0 01-.92.78c-.344.238-.7.448-1.064.628l.454.919zm-2.818-3.741c.209 0 .418-.016.629-.047.21-.031.413-.082.608-.151.194-.07.376-.16.545-.27.169-.109.316-.24.44-.393a1.264 1.264 0 00.271-.553c.029-.122.044-.261.045-.418a2.41 2.41 0 00-.06-.526 3.792 3.792 0 00-.237-.681 5.52 5.52 0 00-.38-.7 6.908 6.908 0 00-1.057-1.28 5.968 5.968 0 00-.608-.506 3.66 3.66 0 00-.618-.366l-.423.95c.156.07.316.163.48.282.163.118.324.254.483.407a6.2 6.2 0 01.456.493c.146.175.28.356.4.542.12.186.222.372.307.559.085.186.147.364.185.534.028.126.042.233.042.324 0 .125-.026.219-.078.282a1.082 1.082 0 01-.439.318c-.173.07-.33.11-.47.122a2.997 2.997 0 01-.72-.008 4.434 4.434 0 01-1.215-.33 3.171 3.171 0 01-.464-.243l-.428.98c.087.08.224.16.412.24a6.322 6.322 0 001.302.378c.228.04.425.06.592.06zm-10.127.005c.181 0 .332-.012.454-.037.738-.135 1.261-.478 1.57-1.027.074-.133.137-.279.191-.439.054-.16.087-.303.1-.43a2.677 2.677 0 00-.013-.697 3.124 3.124 0 00-.189-.678 4.385 4.385 0 00-.396-.759 6.458 6.458 0 00-.652-.837 8.133 8.133 0 00-.6-.6c-.202-.181-.388-.345-.559-.49l3.736-1.571-.402-.95-4.288 1.837-.12 1.07a13.228 13.228 0 011.586 1.516c.222.251.41.488.56.709.152.22.247.402.285.545a2.106 2.106 0 01.068.662c-.021.206-.089.397-.204.574a.944.944 0 01-.402.337c-.17.078-.358.135-.563.172a4.25 4.25 0 01-.647.063c-.226.005-.443.007-.652.007h-.652V105h1.79zm-3.808-4.81l.85-.85-.856-.857-.85.85.856.857zM142.85 105c.512 0 .941-.053 1.29-.16.347-.105.63-.268.85-.487.15.191.34.347.573.467.234.12.526.18.877.18h.104v-1.023h-.104a.737.737 0 01-.436-.12.856.856 0 01-.266-.302 1.429 1.429 0 01-.138-.397 3.685 3.685 0 01-.057-.407 16.002 16.002 0 00-.094-.902 4.901 4.901 0 00-.152-.71l-.98.277c.076.264.13.499.159.704.03.205.044.407.044.605 0 .414-.132.726-.397.937-.264.21-.688.315-1.273.315h-.193V105h.193zm-3.86 0c.327 0 .61-.013.853-.04.241-.025.453-.065.634-.12a1.948 1.948 0 00.834-.487c.15.191.341.347.574.467.233.12.525.18.877.18h.104v-1.023h-.104a.737.737 0 01-.436-.12.856.856 0 01-.266-.302 1.429 1.429 0 01-.138-.397 3.685 3.685 0 01-.058-.407 16.002 16.002 0 00-.094-.902 4.901 4.901 0 00-.15-.71l-.982.277c.077.264.13.499.16.704.029.205.044.407.044.605 0 .209-.035.392-.105.548a.942.942 0 01-.326.391c-.148.105-.339.183-.574.235a3.964 3.964 0 01-.847.078h-.778V105h.778zm.193 2.551l.845-.845-.856-.856-.845.85.856.851zm2.139.01l.845-.85-.856-.85-.845.845.856.856zM138.42 105v-1.023h-.104c-.21 0-.381-.027-.517-.08a.933.933 0 01-.34-.225 1.316 1.316 0 01-.231-.35c-.065-.137-.132-.289-.201-.456-.136-.316-.264-.62-.384-.91a2943.661 2943.661 0 01-1.213-2.946l-.95.397 1.65 3.965a1.98 1.98 0 01-.694.438 1.84 1.84 0 01-.478.128c-.13.012-.229.019-.295.019-.139 0-.278-.016-.417-.047a2.393 2.393 0 01-.631-.24 3.085 3.085 0 01-.632-.465l-.59.83a3.4 3.4 0 00.969.712c.35.169.73.253 1.14.253.247 0 .47-.015.667-.044a3.15 3.15 0 00.55-.13c.17-.058.328-.13.476-.217.147-.087.294-.188.44-.303a1.8 1.8 0 00.261.269c.101.085.219.159.353.222.133.062.288.112.464.148.176.037.376.055.603.055h.104zm-8.463 0c.223 0 .399-.063.527-.188a.621.621 0 00.178-.459.667.667 0 00-.178-.485c-.125-.129-.3-.193-.527-.193-.222 0-.395.064-.516.193a.678.678 0 00-.172.485.62.62 0 00.172.46c.121.124.294.187.516.187z"/><g transform="translate(128 146)"><rect width="95" height="39" x=".5" y=".5" fill="#EA475B" rx="4"/><path fill="#FFF" fill-rule="nonzero" d="M68.108 24.195l1.822-.278c.019-.362.038-.75.056-1.166.019-.415.033-.862.042-1.342a103.022 103.022 0 00.007-3.37c-.01-.77-.037-1.558-.084-2.362a35.164 35.164 0 00-.243-2.536l-1.788.584c.079.765.141 1.567.188 2.404.046.837.088 1.73.125 2.681.014.413.02.856.02 1.33 0 1.172-.048 2.524-.145 4.055zm-4.077-7.59l1.336-1.335-1.336-1.33-1.328 1.33 1.328 1.335zm-1.113 7.604c.524 0 1.005-.057 1.444-.17.438-.114.815-.29 1.13-.53.316-.238.561-.544.738-.918.176-.373.264-.82.264-1.339 0-.301-.028-.61-.084-.925a9.08 9.08 0 00-.219-.943c-.09-.313-.193-.618-.31-.914a22.29 22.29 0 00-.347-.842l-1.607.793a11.492 11.492 0 01.856 2.337c.05.218.076.388.076.508 0 .255-.059.46-.177.612-.119.153-.27.27-.456.352a2.133 2.133 0 01-.623.16c-.23.025-.453.038-.67.038h-1.12v1.78h1.105zm-7.555.132c.436 0 .899-.022 1.388-.066.49-.044.98-.131 1.472-.261a2.8 2.8 0 00.768.156c.309.026.711.039 1.207.039h1.892v-1.781h-1.3a3.172 3.172 0 00.598-1.677v-.125c0-.385-.074-.747-.223-1.085a3.088 3.088 0 00-.706-.974 3.303 3.303 0 00-1.047-.654 3.357 3.357 0 00-1.245-.236c-.339 0-.673.039-1.002.118-.33.079-.648.19-.956.334a6.414 6.414 0 00-.898.511 7.95 7.95 0 00-.831.65 8.268 8.268 0 00-.616.672c-.187.23-.358.453-.511.671a9.264 9.264 0 00-.403.623c-.116.197-.216.374-.3.532a.967.967 0 01-.125-.198 1.606 1.606 0 01-.094-.244 1.986 1.986 0 01-.08-.525c0-.13.006-.248.018-.355a2.186 2.186 0 01.143-.595 5.87 5.87 0 01.131-.31l-1.613-.535c-.093.246-.17.5-.233.762a21.81 21.81 0 01-.199.769c-.07.25-.152.489-.247.716-.095.227-.219.427-.372.598a1.63 1.63 0 01-.57.407c-.228.1-.51.15-.849.15h-.195v1.78h.23c.58 0 1.095-.083 1.548-.25.452-.167.859-.447 1.22-.841.163.204.344.382.543.535.2.153.449.28.748.383.299.102.667.178 1.103.23.435.05.971.076 1.606.076zm.195-1.823c-.125 0-.25-.002-.375-.007-.413-.009-.796-.037-1.148-.083.208-.367.44-.713.695-1.04.256-.327.54-.62.853-.88.313-.26.656-.48 1.03-.661.373-.18.782-.31 1.227-.39a2.331 2.331 0 01.647.007c.227.042.442.115.643.22.202.104.375.238.519.403.143.165.234.354.271.567a1.378 1.378 0 01-.386.769 2.623 2.623 0 01-.797.542c-.32.146-.678.261-1.074.345a8.82 8.82 0 01-1.134.167c-.36.027-.683.041-.97.041zM42.48 29.412a13.502 13.502 0 001.722-1.022 9.945 9.945 0 001.51-1.287 7.3 7.3 0 001.116-1.506 4.36 4.36 0 00.535-1.68c.218.139.419.222.602.25.183.028.335.042.456.042h.216l.006-1.781h-.215a1.19 1.19 0 01-.546-.122c-.16-.081-.313-.225-.46-.431a4.59 4.59 0 01-.445-.842 18.47 18.47 0 01-.497-1.346l-1.67.696c.089.264.186.536.293.817.106.28.206.558.299.831.092.274.169.537.23.79.06.253.09.483.09.692 0 .292-.055.577-.164.856-.109.278-.257.55-.445.814a5.05 5.05 0 01-.668.758 9.915 9.915 0 01-.831.696c-.297.222-.609.43-.936.626-.327.194-.652.375-.977.542l.779 1.607zm-2.254-5.217l1.823-.278c.018-.362.037-.75.055-1.166.019-.415.033-.862.042-1.342a103.023 103.023 0 00.007-3.37c-.01-.77-.037-1.558-.083-2.362a35.164 35.164 0 00-.244-2.536l-1.788.584c.08.765.142 1.567.188 2.404.046.837.088 1.73.125 2.681.014.413.021.856.021 1.33 0 1.172-.049 2.524-.146 4.055zm-4.598-9.155l1.335-1.336-1.335-1.328-1.329 1.328 1.329 1.336zm-3.18 9.169c.539 0 1.06-.019 1.562-.056a9.31 9.31 0 001.416-.209c.44-.102.843-.24 1.207-.417.364-.176.677-.404.94-.682.261-.278.465-.612.611-1.002.146-.39.22-.848.22-1.377 0-.31-.032-.639-.094-.984a6.307 6.307 0 00-.275-1.02 5.76 5.76 0 00-.445-.952 3.98 3.98 0 00-.606-.797 2.74 2.74 0 00-.758-.546 2.035 2.035 0 00-.897-.202c-.26 0-.501.048-.724.143a2.247 2.247 0 00-.612.39 2.982 2.982 0 00-.497.573c-.146.218-.27.45-.369.696a4.13 4.13 0 00-.303 1.516c0 .418.083.783.247 1.096.165.313.386.574.665.783.278.208.601.365.97.47a4.26 4.26 0 001.165.156h.71c-.135.097-.335.185-.602.264a7.208 7.208 0 01-.95.202c-.366.056-.772.098-1.217.129-.445.03-.909.045-1.391.045-.626 0-1.214-.03-1.764-.087a10.1 10.1 0 01-1.467-.254 4.525 4.525 0 01-1.072-.407c-.285-.16-.479-.344-.58-.553a.707.707 0 01-.063-.306c0-.06.004-.123.014-.188.028-.195.08-.396.156-.605a4.57 4.57 0 01.532-1.03l-1.294-1.085c-.11.209-.223.42-.337.633a6.769 6.769 0 00-.306.657 4.8 4.8 0 00-.22.693 3.21 3.21 0 00-.083.737c0 .506.09.944.272 1.315.18.37.428.69.74.956.314.267.681.485 1.103.654.422.17.874.302 1.357.397.482.095.983.16 1.502.198.52.037 1.032.056 1.538.056zm3.68-4.196h-.125a6.206 6.206 0 01-.929-.056 1.684 1.684 0 01-.444-.117.71.71 0 01-.303-.24.687.687 0 01-.111-.407v-.028c0-.167.034-.336.104-.508.07-.176.16-.334.271-.473.112-.139.228-.245.348-.32a.632.632 0 01.32-.111c.023 0 .047.002.07.007a.78.78 0 01.532.278c.155.172.29.375.403.609.114.234.209.475.286.723.076.249.135.456.177.623a8.876 8.876 0 01-.6.02z"/></g><g transform="translate(16 146)"><use fill="#000" filter="url(#e)" xlink:href="#f"/><rect width="95" height="39" x=".5" y=".5" fill="#EA475B" rx="4"/><path fill="#FFF" fill-rule="nonzero" d="M59.757 16.362l1.182-1.183-1.196-1.196-1.183 1.19 1.197 1.189zm2.63.014l1.182-1.19-1.197-1.19-1.182 1.183 1.196 1.197zm-3.097 7.833c.524 0 1.017-.054 1.479-.16a3.566 3.566 0 001.21-.512c.346-.234.618-.539.818-.914.199-.376.299-.833.299-1.37 0-.302-.028-.61-.084-.926a9.08 9.08 0 00-.219-.943c-.09-.313-.194-.618-.31-.914a22.291 22.291 0 00-.347-.842l-1.607.793a11.492 11.492 0 01.856 2.337c.05.218.076.388.076.508 0 .255-.07.46-.212.612-.142.153-.32.27-.536.352a2.78 2.78 0 01-.703.16 7.06 7.06 0 01-.706.038h-1.481v1.78h1.467zM54.06 14.03l1.669-.925 1.788-1.043-.53-.71c-.268.14-.475.246-.618.32a6.566 6.566 0 01-.334.164c-.08.034-.14.059-.185.073a1.824 1.824 0 01-.163.041.864.864 0 01-.167.014h-.063a.826.826 0 01-.257-.055.994.994 0 01-.233-.13.413.413 0 01-.15-.204.819.819 0 01-.048-.272v-.055a.655.655 0 01.087-.272.785.785 0 01.184-.215.96.96 0 01.466-.202 1.651 1.651 0 01.292 0c.084.014.173.03.268.049.095.018.203.037.324.055l.257-.841c-.135-.033-.25-.06-.344-.08a4.614 4.614 0 00-.25-.05 2.474 2.474 0 00-.373-.03c-.125 0-.248.01-.369.03a1.596 1.596 0 00-.856.452c-.143.147-.257.31-.34.492-.084.18-.128.328-.132.441a7.176 7.176 0 00-.007.22c0 .166.032.333.097.5a1.727 1.727 0 00.71.8l-1.155.647.431.786zM58.1 24.21v-1.781h-.215c-.18 0-.34-.019-.476-.056a.69.69 0 01-.522-.508 1.726 1.726 0 01-.052-.445v-.111c0-.144 0-.285.003-.425l.004-.21.003-.214.007-.449a33.427 33.427 0 00-.003-1.224 46.688 46.688 0 01-.007-.783c0-.403-.005-.781-.014-1.133a25.66 25.66 0 00-.045-1.006 16.32 16.32 0 00-.084-.904 12.735 12.735 0 00-.129-.831l-1.746.521c.126.659.197 1.39.216 2.195.019.805.028 1.648.028 2.529 0 .492-.005.908-.014 1.249-.01.34-.014.585-.014.734.005.955.25 1.67.737 2.142.487.473 1.202.71 2.143.71h.18zm-16.667 0c.325 0 .654-.014.988-.042.334-.028.656-.073.967-.136.31-.062.6-.145.866-.247.267-.102.497-.227.692-.375.213.236.477.429.79.577.313.148.696.223 1.151.223h1.4l.35-.004a13.82 13.82 0 001.21-.07c.202-.02.37-.05.504-.086.44-.13.821-.326 1.141-.588.32-.262.568-.597.745-1.005.153-.353.23-.754.23-1.204 0-.25-.03-.538-.088-.862a10.756 10.756 0 00-.55-1.959 6.492 6.492 0 00-.372-.803l-1.62.8c.06.13.135.289.226.476.09.188.182.388.274.599.093.21.18.429.261.654.081.224.146.439.195.643.049.204.072.392.07.563a.736.736 0 01-.108.41.996.996 0 01-.425.331c-.19.086-.402.153-.636.202a5.236 5.236 0 01-.734.097 11.42 11.42 0 01-.723.025H46.88a.74.74 0 01-.47-.14.96.96 0 01-.278-.354 1.785 1.785 0 01-.142-.477 7.11 7.11 0 01-.063-.497l-.052-.584a11.779 11.779 0 00-.06-.519 8.434 8.434 0 00-.236-1.137l-1.704.48.16.563c.046.163.084.312.115.45.03.136.056.388.08.754-.014.315-.099.57-.254.762-.156.192-.362.34-.62.445a3.168 3.168 0 01-.883.205 10.68 10.68 0 01-1.04.049h-.62v1.78h.62zm7.22 3.304l1.184-1.183-1.197-1.196-1.183 1.19 1.197 1.189zm2.63.014l1.183-1.19-1.196-1.19-1.183 1.183 1.196 1.197zm-9.175.716l1.182-1.182-1.196-1.197-1.183 1.19 1.197 1.19zm2.63.014l1.182-1.19-1.197-1.189-1.182 1.183 1.196 1.196zm-3.646-4.048v-1.781h-.16c-.162 0-.305-.027-.428-.08a1.05 1.05 0 01-.327-.223 1.473 1.473 0 01-.25-.34 4.484 4.484 0 01-.205-.435l-1.746-4.21-.313-.75c-.098-.232-.186-.45-.265-.654l-1.648.688 2.219 5.357c-.12.088-.263.17-.428.247a4.062 4.062 0 01-1.583.372 2.45 2.45 0 01-1.05-.26c-.367-.175-.76-.457-1.183-.846l-1.022 1.44c.45.464.93.825 1.443 1.085s1.059.39 1.638.39c.306 0 .596-.013.87-.039.274-.025.538-.07.793-.135a3.915 3.915 0 001.412-.682c.111.12.227.233.348.337.12.105.26.195.417.272.158.076.342.137.553.18.211.045.463.067.755.067h.16z"/></g></g></g></g></svg>