<svg width="200" height="205" viewBox="0 0 200 205" fill="none" xmlns="http://www.w3.org/2000/svg">
<path d="M144 82H56C53.7909 82 52 83.8356 52 86.1V118.9C52 121.164 53.7909 123 56 123H144C146.209 123 148 121.164 148 118.9V86.1C148 83.8356 146.209 82 144 82Z" fill="#000000" fill-opacity="0.24"/>
<path d="M111.134 106.814C111.876 106.814 112.539 106.793 113.124 106.75C113.648 106.713 114.171 106.66 114.692 106.59C115.154 106.525 115.562 106.452 115.92 106.371C116.277 106.291 116.6 106.213 116.887 106.136L116.671 104.361L115.927 104.511C115.704 104.549 115.457 104.588 115.187 104.629C114.915 104.669 114.645 104.699 114.376 104.717C114.096 104.737 113.816 104.703 113.548 104.618C113.287 104.539 113.041 104.412 112.824 104.244C112.626 104.092 112.46 103.9 112.337 103.68C112.225 103.482 112.165 103.257 112.163 103.028C112.163 102.994 112.166 102.961 112.17 102.927C112.184 102.738 112.226 102.559 112.296 102.393C112.366 102.225 112.469 102.073 112.598 101.946C112.727 101.819 112.88 101.72 113.047 101.655C113.227 101.582 113.437 101.545 113.673 101.545C113.965 101.545 114.234 101.6 114.48 101.712C114.726 101.825 114.941 101.949 115.127 102.087C115.35 102.248 115.544 102.428 115.711 102.628L116.838 101.21C116.702 101.07 116.558 100.939 116.407 100.817C116.254 100.694 116.096 100.578 115.934 100.468C115.783 100.371 115.629 100.281 115.471 100.197C115.297 100.104 115.117 100.024 114.932 99.9549C114.742 99.8832 114.542 99.8258 114.33 99.7837C114.114 99.7403 113.894 99.7187 113.673 99.7192C113.213 99.7192 112.788 99.8073 112.397 99.9826C112.005 100.159 111.667 100.397 111.381 100.696C110.792 101.316 110.463 102.147 110.466 103.012C110.466 103.394 110.511 103.742 110.602 104.058C110.692 104.374 110.862 104.682 111.113 104.98L109.784 104.989H109.478V106.813H111.134V106.814ZM106.786 100.226L108.122 98.8561L106.786 97.4949L105.457 98.8561L106.787 100.226H106.786ZM104.831 106.814C105.485 106.814 106.041 106.75 106.497 106.622C106.954 106.493 107.343 106.294 107.663 106.023C107.881 106.256 108.148 106.445 108.466 106.593C108.784 106.74 109.168 106.814 109.617 106.814H109.757V104.989H109.617C109.451 104.996 109.288 104.944 109.155 104.842C109.036 104.744 108.94 104.619 108.873 104.478C108.801 104.327 108.751 104.166 108.723 104.001C108.694 103.839 108.672 103.676 108.657 103.513C108.639 103.261 108.621 103.041 108.605 102.853C108.576 102.51 108.525 102.169 108.452 101.834C108.411 101.645 108.364 101.458 108.31 101.273L106.598 101.765C106.718 102.188 106.812 102.542 106.877 102.825C106.941 103.107 106.974 103.329 106.974 103.491C106.974 103.99 106.794 104.364 106.434 104.615C106.075 104.864 105.541 104.989 104.831 104.989H104.574V106.813H104.831V106.814ZM98.32 111.806C99.0093 111.689 99.6835 111.492 100.33 111.221C100.975 110.949 101.56 110.606 102.087 110.186C102.61 109.771 103.067 109.275 103.44 108.715C103.821 108.138 104.093 107.494 104.24 106.814H104.852V104.989H104.386C104.368 104.637 104.323 104.287 104.25 103.943C104.18 103.61 104.086 103.282 103.969 102.963C103.857 102.658 103.72 102.362 103.559 102.08C103.407 101.813 103.23 101.562 103.029 101.331C102.436 100.675 101.779 100.347 101.061 100.347C100.783 100.347 100.523 100.401 100.281 100.511C100.039 100.622 99.8157 100.772 99.621 100.956C99.421 101.144 99.245 101.36 99.092 101.605C98.9387 101.85 98.8094 102.111 98.706 102.382C98.602 102.656 98.522 102.936 98.466 103.221C98.4121 103.49 98.3843 103.765 98.383 104.041C98.383 104.449 98.436 104.801 98.543 105.096C98.649 105.39 98.799 105.641 98.991 105.848C99.184 106.055 99.413 106.221 99.68 106.347C99.947 106.473 100.239 106.57 100.557 106.639C100.874 106.709 101.212 106.755 101.569 106.778C101.926 106.802 102.292 106.814 102.668 106.814C102.584 107.137 102.416 107.46 102.163 107.784C101.911 108.107 101.583 108.411 101.179 108.696C100.776 108.981 100.299 109.239 99.749 109.47C99.1525 109.715 98.5343 109.9 97.903 110.023L98.32 111.805V111.806ZM102.765 104.989H102.425C102.304 104.989 102.182 104.987 102.059 104.982C101.94 104.977 101.82 104.974 101.701 104.971C101.594 104.969 101.487 104.963 101.381 104.953C101.202 104.938 101.024 104.911 100.849 104.871C100.681 104.835 100.52 104.774 100.369 104.689C100.23 104.611 100.111 104.502 100.021 104.369C99.9263 104.221 99.8787 104.046 99.885 103.869C99.885 103.679 99.923 103.484 100 103.285C100.077 103.084 100.173 102.903 100.289 102.739C100.405 102.575 100.532 102.441 100.671 102.336C100.811 102.231 100.941 102.179 101.061 102.179C101.191 102.179 101.321 102.224 101.451 102.314C101.581 102.405 101.707 102.525 101.83 102.674C101.952 102.825 102.067 102.995 102.174 103.188C102.388 103.574 102.552 103.986 102.664 104.415C102.718 104.622 102.751 104.812 102.765 104.989ZM94.855 106.8L96.678 106.515C96.697 106.144 96.715 105.746 96.734 105.32C96.752 104.894 96.766 104.436 96.776 103.944C96.7967 102.793 96.7991 101.641 96.783 100.49C96.773 99.7007 96.746 98.893 96.699 98.0689C96.6487 97.1997 96.5676 96.3327 96.456 95.4695L94.668 96.0681C94.747 96.8522 94.809 97.6743 94.856 98.5322C94.902 99.3901 94.944 100.305 94.981 101.28C94.995 101.704 95.001 102.158 95.001 102.643C95.001 103.845 94.953 105.231 94.856 106.8H94.855ZM88.17 103.356L89.506 101.986L88.17 100.624L86.842 101.987L88.17 103.356ZM87.753 111.72C88.43 111.72 89.04 111.652 89.583 111.517C90.083 111.398 90.5644 111.209 91.013 110.953C91.7794 110.514 92.3943 109.843 92.773 109.031C92.951 108.647 93.073 108.268 93.137 107.894C93.2754 107.128 93.2672 106.342 93.113 105.58C92.9896 104.938 92.8236 104.306 92.616 103.687C92.518 103.4 92.428 103.144 92.344 102.92C92.2771 102.738 92.2054 102.557 92.129 102.379C92.0963 102.298 92.0589 102.219 92.017 102.143L90.383 103.077C90.387 103.077 90.42 103.139 90.48 103.263C90.54 103.386 90.614 103.55 90.703 103.755C90.9147 104.249 91.1026 104.753 91.266 105.266C91.354 105.543 91.43 105.815 91.492 106.083C91.555 106.352 91.591 106.596 91.6 106.814V106.935C91.6 107.182 91.565 107.42 91.496 107.649C91.408 107.915 91.282 108.161 91.12 108.39C90.958 108.618 90.76 108.824 90.529 109.01C90.297 109.195 90.039 109.353 89.757 109.484C89.474 109.615 89.176 109.713 88.863 109.776C88.5479 109.841 88.2273 109.873 87.906 109.873H87.836C87.4133 109.865 86.9945 109.789 86.595 109.647C86.2197 109.517 85.87 109.319 85.562 109.063C85.2688 108.818 85.0284 108.513 84.856 108.168C84.6796 107.81 84.59 107.414 84.595 107.013C84.595 106.657 84.635 106.303 84.717 105.951C84.797 105.6 84.894 105.272 85.005 104.967C85.117 104.663 85.234 104.394 85.357 104.162C85.4499 103.979 85.5534 103.803 85.667 103.634L84.296 102.614C83.4543 103.903 83.004 105.419 83.002 106.97C83.002 107.708 83.115 108.369 83.342 108.956C83.57 109.544 83.891 110.042 84.306 110.451C84.721 110.859 85.221 111.173 85.806 111.392C86.39 111.61 87.039 111.72 87.753 111.72V111.72Z" fill="white"/>
</svg>
