<svg xmlns="http://www.w3.org/2000/svg" width="200" height="200"><g fill="none" fill-rule="evenodd"><path d="M0 0h200v200H0z"/><g stroke="#EA475B" stroke-linecap="round" stroke-width=".4"><path d="M65.5 78v2M76.5 78v2M65.5 79h11"/></g><path fill="#EA475B" fill-rule="nonzero" d="M69.462 76v-4.28h-.09l-1.665.612v.6l1.046-.357V76h.709zm4.35 0v-.568h-1.98l1.043-1.117c.273-.296.47-.562.59-.795.12-.233.18-.457.18-.67 0-.367-.12-.654-.358-.862-.24-.208-.566-.312-.98-.312-.287 0-.54.057-.76.173a1.22 1.22 0 00-.507.484 1.395 1.395 0 00-.178.702h.712c0-.244.064-.436.19-.577.128-.14.306-.21.537-.21.193 0 .347.062.461.187.114.125.172.289.172.492a.928.928 0 01-.13.461 3.538 3.538 0 01-.439.573l-1.42 1.55V76h2.868z"/><path d="M65 80h12v4H65z"/><g stroke="#EA475B" stroke-linecap="round" stroke-width=".4"><path d="M128.5 78v2M135.5 78v2M128.5 79h7"/></g><path fill="#EA475B" fill-rule="nonzero" d="M131.75 76.059c.422 0 .76-.11 1.014-.33.254-.22.38-.517.38-.892 0-.227-.06-.43-.18-.61a1.217 1.217 0 00-.514-.424c.186-.094.332-.222.44-.386a.992.992 0 00.16-.558c0-.363-.116-.651-.35-.864-.235-.213-.553-.32-.953-.32-.398 0-.715.107-.95.32-.234.213-.35.501-.35.864 0 .21.053.395.159.558.106.164.251.292.435.386a1.167 1.167 0 00-.51.419 1.084 1.084 0 00-.181.615c0 .373.127.67.382.89.255.221.594.332 1.018.332zm0-2.535a.56.56 0 01-.432-.172c-.107-.116-.16-.27-.16-.466 0-.198.053-.353.158-.468a.557.557 0 01.431-.17c.182 0 .326.06.434.18.107.12.16.272.16.458 0 .195-.052.35-.159.466a.56.56 0 01-.432.172zm0 1.966c-.215 0-.383-.062-.505-.187a.686.686 0 01-.183-.501c0-.213.062-.384.186-.513a.657.657 0 01.496-.193c.207 0 .374.065.5.195s.189.3.189.51c0 .218-.06.386-.18.508-.12.12-.288.181-.503.181z"/><path d="M128 80h8v4h-8zM136 84h8v32h-8z"/><g stroke="#EA475B" stroke-linecap="round" stroke-width=".4"><path d="M144 85h2M144 115h2M145 85v30"/></g><path fill="#EA475B" fill-rule="nonzero" d="M151.632 102.059c.428 0 .773-.114 1.035-.34.263-.227.395-.531.395-.914 0-.239-.062-.444-.184-.616a1.047 1.047 0 00-.534-.377c.193-.086.35-.214.473-.383a.906.906 0 00.183-.54c0-.381-.122-.679-.365-.892-.243-.214-.577-.321-1.003-.321-.258 0-.49.05-.699.15-.208.101-.37.241-.486.421-.116.18-.175.379-.175.598h.712c0-.178.062-.322.185-.432a.68.68 0 01.472-.166c.218 0 .381.056.487.169.107.112.16.27.16.473 0 .21-.064.372-.192.483-.128.111-.301.168-.52.17h-.433v.562h.419c.261 0 .459.061.591.182.133.121.2.294.2.519 0 .222-.064.392-.19.51-.128.117-.302.175-.522.175-.213 0-.383-.058-.509-.176a.596.596 0 01-.189-.457h-.712c0 .364.131.655.393.873.262.22.598.329 1.008.329zm4.966-.059v-.568h-1.98l1.042-1.117c.274-.296.47-.562.59-.795.12-.233.18-.457.18-.67 0-.367-.119-.654-.358-.862-.24-.208-.566-.312-.98-.312-.287 0-.54.057-.76.173a1.22 1.22 0 00-.507.484 1.395 1.395 0 00-.178.702h.712c0-.244.064-.436.19-.577.128-.14.306-.21.537-.21.193 0 .347.062.461.187.115.125.172.289.172.492a.928.928 0 01-.13.461 3.538 3.538 0 01-.439.573l-1.42 1.55V102h2.868z"/><g transform="translate(112 92)"><circle cx="8" cy="8" r="8" fill="#FFF"/><circle cx="8" cy="8" r="6" fill="#EA475B" fill-opacity=".12"/><circle cx="8" cy="8" r="7.9" stroke="#EA475B" stroke-width=".2"/><path fill="#EA475B" fill-rule="nonzero" d="M7.225 9V6.146h-.06l-1.11.409v.4l.697-.238V9h.473zm1.959.04a.88.88 0 00.669-.27c.17-.179.254-.413.254-.702 0-.28-.072-.508-.217-.685a.728.728 0 00-.595-.266.77.77 0 00-.584.24c.03-.26.124-.461.283-.603.159-.142.371-.215.637-.219h.058v-.392h-.048c-.456 0-.805.14-1.048.423s-.364.674-.364 1.172V7.9c0 .34.088.615.264.825a.86.86 0 00.69.314zm-.004-.384a.405.405 0 01-.344-.186c-.089-.125-.133-.292-.133-.503v-.145A.514.514 0 019.18 7.5c.138 0 .248.054.332.162a.668.668 0 01.125.42c0 .172-.041.31-.123.416a.4.4 0 01-.334.158z"/></g><g fill="#EA475B"><path fill-opacity=".12" d="M108 84h4v32h-4z"/><path fill-rule="nonzero" d="M110.682 101v-.633h.353v-.38h-.353v-1.83h-.49l-1.227 1.921.014.29h1.228V101h.475zm-.475-1.014h-.744l.709-1.125.035-.062v1.187z"/></g><g><g stroke="#EA475B" stroke-linecap="round" stroke-width=".4"><path d="M65.5 127.274v2M135.5 127.274v2M65.5 128.274h70"/></g><path fill="#EA475B" fill-rule="nonzero" d="M87.453 136.5l.668-2.177.68 2.177h.586l.864-3.17h-.694l-.504 2.189-.66-2.189h-.536l-.65 2.165-.513-2.165H86l.867 3.17h.586zm3.677-3.618c.129 0 .228-.036.299-.107a.366.366 0 00.105-.268c0-.11-.035-.2-.105-.273-.07-.072-.17-.108-.3-.108-.128 0-.227.036-.296.108a.378.378 0 00-.104.273c0 .107.034.197.104.268.069.071.168.107.297.107zm.354 3.618v-3.17h-.712v3.17h.712zm1.887.059c.356 0 .64-.13.853-.387l.035.328h.644V132h-.712v1.623a1.035 1.035 0 00-.814-.352c-.38 0-.685.148-.911.444-.227.296-.34.688-.34 1.177 0 .513.115.92.344 1.218.23.3.53.449.901.449zm.182-.58a.604.604 0 01-.53-.271c-.123-.181-.185-.433-.185-.755 0-.367.062-.642.187-.825a.608.608 0 01.534-.274c.29 0 .502.127.632.381v1.354a.672.672 0 01-.638.39zm3.093.58c.15 0 .307-.023.47-.068v-.55c-.085.019-.168.029-.25.029-.123 0-.208-.027-.256-.08-.048-.055-.072-.142-.072-.263v-1.77h.56v-.527h-.56v-.77h-.712v.77h-.521v.527h.521v1.796c0 .604.274.906.82.906zm1.697-.059v-2.265a.686.686 0 01.638-.38c.184 0 .323.045.418.136.095.09.142.245.142.464v2.045h.712v-2.071c-.01-.772-.353-1.158-1.028-1.158-.356 0-.65.135-.882.405V132h-.712v4.5h.712zm3.058-2.455c.133 0 .236-.037.308-.11a.378.378 0 00.108-.277.392.392 0 00-.108-.283c-.072-.075-.175-.112-.308-.112a.403.403 0 00-.304.112.392.392 0 00-.109.283c0 .113.037.206.112.279a.414.414 0 00.301.108zm0 2.487c.133 0 .236-.036.308-.11a.378.378 0 00.108-.276.392.392 0 00-.108-.283c-.072-.075-.175-.113-.308-.113a.403.403 0 00-.304.113.392.392 0 00-.109.283c0 .113.037.206.112.278a.414.414 0 00.301.108zm3.636.027c.328 0 .606-.119.832-.355.024.137.05.235.082.296h.727v-.05c-.08-.17-.12-.397-.12-.682v-1.43c-.006-.338-.12-.6-.34-.787-.22-.186-.517-.28-.888-.28-.244 0-.465.043-.663.13a1.152 1.152 0 00-.47.355.79.79 0 00-.174.488h.712c0-.125.052-.228.156-.309a.627.627 0 01.398-.122c.188 0 .327.05.419.148.092.1.138.23.138.394v.208h-.437c-.467 0-.826.09-1.076.271-.251.181-.377.44-.377.778 0 .268.1.492.302.674.201.182.46.273.78.273zm.132-.572a.528.528 0 01-.365-.121.416.416 0 01-.136-.327c0-.168.066-.298.2-.39.132-.091.33-.137.594-.137h.384v.597a.685.685 0 01-.28.276.81.81 0 01-.397.102zm3.164.572c.385 0 .682-.123.89-.37l.018.311h.671v-3.17h-.712v2.276c-.12.248-.354.373-.7.373-.334 0-.501-.202-.501-.604v-2.045h-.712v2.054c0 .38.088.672.265.873.177.201.437.302.781.302zm3.305 0c.15 0 .306-.023.468-.068v-.55c-.084.019-.167.029-.249.029-.123 0-.208-.027-.256-.08-.048-.055-.072-.142-.072-.263v-1.77h.56v-.527h-.56v-.77h-.712v.77h-.521v.527h.521v1.796c0 .604.274.906.82.906zm2.338 0c.293 0 .55-.068.774-.203.224-.134.396-.325.516-.57.12-.247.18-.526.18-.839l-.003-.167c-.021-.455-.165-.82-.432-1.095-.266-.276-.614-.414-1.041-.414-.29 0-.545.067-.768.201a1.348 1.348 0 00-.518.574 1.87 1.87 0 00-.185.84v.035c0 .496.134.893.403 1.19.268.299.626.448 1.074.448zm0-.569a.657.657 0 01-.563-.277c-.135-.184-.202-.44-.202-.766 0-.367.068-.643.205-.827a.653.653 0 01.554-.277.66.66 0 01.56.281c.138.188.207.441.207.762 0 .361-.067.635-.2.823a.65.65 0 01-.561.281z"/></g><g transform="translate(65 153)"><circle cx="13" cy="13" r="13.2" stroke="#000000" stroke-opacity=".12" stroke-width=".4"/><path fill="#000000" fill-opacity=".12" d="M16 8a2 2 0 012 2v15.003A12.96 12.96 0 0113 26C5.82 26 0 20.18 0 13c0-1.772.354-3.46.996-5H16z"/><circle cx="16" cy="10" r="2" fill="#EA475B"/><path fill="#EA475B" fill-rule="nonzero" d="M31.91 15.059c.385 0 .687-.146.907-.437.22-.29.33-.683.33-1.175v-.04c0-.516-.11-.918-.332-1.205-.22-.287-.524-.43-.91-.43-.348 0-.625.12-.83.363V10.5h-.712V15h.645l.035-.343c.207.268.496.402.867.402zm-.179-.58c-.31 0-.529-.138-.656-.414V12.76c.125-.27.342-.405.65-.405.231 0 .407.086.528.258.121.172.182.43.182.774v.09c-.004.336-.067.587-.188.753a.6.6 0 01-.516.25zm3.355.58c.293 0 .551-.068.775-.203.223-.134.395-.325.515-.57.12-.247.18-.526.18-.839l-.002-.167c-.022-.455-.166-.82-.432-1.095-.267-.276-.614-.414-1.042-.414-.289 0-.545.067-.767.201a1.348 1.348 0 00-.52.574 1.87 1.87 0 00-.184.84v.035c0 .496.135.893.403 1.19.269.299.627.448 1.074.448zm0-.569a.657.657 0 01-.563-.277c-.134-.184-.202-.44-.202-.766 0-.367.069-.643.205-.827a.653.653 0 01.554-.277.66.66 0 01.561.281c.138.188.207.441.207.762 0 .361-.067.635-.201.823a.65.65 0 01-.561.281zm2.783.51v-2.168c.113-.25.333-.375.66-.375.099 0 .196.008.29.023l.002-.668a.666.666 0 00-.252-.04c-.304 0-.543.137-.715.413l-.017-.355h-.68V15h.712zm2.51.059c.356 0 .64-.13.853-.387l.036.328h.644v-4.5H41.2v1.623a1.035 1.035 0 00-.814-.352c-.381 0-.685.148-.911.444-.227.296-.34.688-.34 1.177 0 .513.115.92.344 1.218.23.3.53.449.9.449zm.183-.58a.604.604 0 01-.53-.271c-.123-.181-.185-.433-.185-.755 0-.367.062-.642.187-.825a.608.608 0 01.533-.274c.291 0 .502.127.633.381v1.354a.672.672 0 01-.638.39zm3.489.58c.263 0 .501-.053.713-.157.212-.105.382-.252.508-.441l-.383-.366a.964.964 0 01-.797.395.787.787 0 01-.579-.228c-.153-.153-.24-.36-.262-.621h2.071v-.287c0-.504-.117-.894-.353-1.17-.235-.275-.569-.413-1-.413-.272 0-.518.07-.739.208-.22.14-.392.333-.514.582a1.902 1.902 0 00-.183.848v.088c0 .473.14.851.42 1.135.28.285.647.427 1.098.427zm.568-1.94h-1.356c.033-.244.11-.434.23-.571a.6.6 0 01.473-.205c.197 0 .351.06.463.183.111.122.175.302.19.54v.053zM46.585 15v-2.168c.113-.25.333-.375.66-.375.099 0 .195.008.29.023l.002-.668a.666.666 0 00-.252-.04c-.305 0-.543.137-.715.413l-.017-.355h-.68V15h.712zm2.78-1.526v-.575h-1.538v.575h1.538zM50.663 15v-2.168c.113-.25.333-.375.66-.375.099 0 .196.008.29.023l.002-.668a.666.666 0 00-.252-.04c-.304 0-.543.137-.715.413l-.017-.355h-.68V15h.712zm2.379.059c.328 0 .605-.119.832-.355.023.137.05.235.082.296h.727v-.05c-.08-.17-.12-.397-.12-.682v-1.43c-.006-.338-.12-.6-.34-.787-.221-.186-.517-.28-.888-.28-.244 0-.465.043-.664.13a1.152 1.152 0 00-.47.355.79.79 0 00-.173.488h.712c0-.125.052-.228.156-.309a.627.627 0 01.398-.122c.187 0 .327.05.419.148.092.1.138.23.138.394v.208h-.437c-.467 0-.826.09-1.077.271-.25.181-.376.44-.376.778 0 .268.1.492.302.674.2.182.46.273.779.273zm.132-.572a.528.528 0 01-.365-.121.416.416 0 01-.136-.327c0-.168.066-.298.2-.39.132-.091.33-.137.594-.137h.384v.597a.685.685 0 01-.28.276.81.81 0 01-.397.102zm3.246.572c.355 0 .64-.13.852-.387l.036.328h.644v-4.5h-.712v1.623a1.035 1.035 0 00-.814-.352c-.381 0-.685.148-.911.444-.227.296-.34.688-.34 1.177 0 .513.115.92.344 1.218.23.3.53.449.9.449zm.182-.58a.604.604 0 01-.53-.271c-.123-.181-.185-.433-.185-.755 0-.367.062-.642.187-.825a.608.608 0 01.533-.274c.291 0 .502.127.633.381v1.354a.672.672 0 01-.638.39zm2.496-3.097c.129 0 .228-.036.298-.107a.366.366 0 00.106-.268c0-.11-.035-.2-.106-.273-.07-.072-.17-.108-.298-.108-.13 0-.228.036-.298.108a.378.378 0 00-.104.273c0 .107.035.197.104.268.07.071.169.107.298.107zM59.452 15v-3.17h-.712V15h.712zm1.805.059c.385 0 .681-.123.89-.37l.018.311h.67v-3.17h-.711v2.276c-.121.248-.354.373-.7.373-.334 0-.501-.202-.501-.604V11.83h-.712v2.054c0 .38.088.672.265.873.177.201.437.302.78.302zm3.498 0c.383 0 .692-.089.929-.266a.826.826 0 00.354-.692.78.78 0 00-.116-.434.931.931 0 00-.354-.306 2.635 2.635 0 00-.658-.22c-.28-.061-.465-.122-.556-.183a.289.289 0 01-.138-.255c0-.121.05-.218.148-.29a.63.63 0 01.382-.108c.168 0 .303.045.404.136.102.09.153.205.153.341h.712a.892.892 0 00-.35-.73c-.234-.187-.54-.28-.919-.28-.355 0-.648.091-.879.275a.844.844 0 00-.346.685c0 .327.178.576.534.747.162.079.364.143.606.194.242.05.416.11.52.176a.323.323 0 01.157.29.331.331 0 01-.147.28c-.097.07-.24.106-.427.106a.74.74 0 01-.466-.136.502.502 0 01-.19-.388h-.692c0 .19.057.366.17.53.113.164.271.293.475.387.203.094.434.14.694.14zm2.332-2.514c.133 0 .235-.037.308-.11a.378.378 0 00.108-.277.392.392 0 00-.108-.283c-.073-.075-.175-.112-.308-.112a.403.403 0 00-.305.112.392.392 0 00-.108.283c0 .113.037.206.111.279a.414.414 0 00.302.108zm0 2.487c.133 0 .235-.036.308-.11a.378.378 0 00.108-.276.392.392 0 00-.108-.283c-.073-.075-.175-.113-.308-.113a.403.403 0 00-.305.113.392.392 0 00-.108.283c0 .113.037.206.111.278a.414.414 0 00.302.108zM72.565 15v-.568h-1.98l1.043-1.117c.273-.296.47-.562.59-.795.12-.233.18-.457.18-.67 0-.367-.12-.654-.358-.862-.24-.208-.566-.312-.98-.312-.288 0-.541.057-.76.173a1.22 1.22 0 00-.508.484 1.395 1.395 0 00-.177.702h.712c0-.244.064-.436.19-.577.128-.14.306-.21.537-.21.193 0 .347.062.461.187.114.125.172.289.172.492a.928.928 0 01-.13.461 3.538 3.538 0 01-.439.573l-1.42 1.55V15h2.867z"/></g><path stroke="#EA475B" stroke-width=".4" d="M134 84.2c.497 0 .947.201 1.273.527.326.326.527.776.527 1.273h0v28c0 .497-.201.947-.527 1.273a1.794 1.794 0 01-1.273.527h0-5.8V84.2zm-57.2 0v31.6H67c-.497 0-.947-.201-1.273-.527A1.794 1.794 0 0165.2 114h0V86c0-.497.201-.947.527-1.273A1.794 1.794 0 0167 84.2h9.8z"/></g></svg>