<svg width="200" height="200" viewBox="0 0 200 200" fill="none" xmlns="http://www.w3.org/2000/svg">
<path d="M136 84H65C63.8954 84 63 84.8954 63 86V114C63 115.105 63.8954 116 65 116H136C137.105 116 138 115.105 138 114V86C138 84.8954 137.105 84 136 84Z" fill="black" fill-opacity="0.24"/>
<path d="M99.9135 107.395C99.2886 107.395 98.7205 107.302 98.2091 107.115C97.6978 106.929 97.2596 106.661 96.8944 106.312C96.5332 105.963 96.2532 105.537 96.0544 105.034C95.8555 104.535 95.7561 103.971 95.7561 103.342C95.7561 102.696 95.8494 102.057 96.0361 101.424C96.2268 100.791 96.5109 100.191 96.8883 99.6224L98.0874 100.493C98.0144 100.594 97.9231 100.744 97.8135 100.943C97.708 101.142 97.6065 101.371 97.5091 101.631C97.4118 101.891 97.3265 102.171 97.2535 102.471C97.1845 102.771 97.15 103.074 97.15 103.378C97.15 103.739 97.2251 104.068 97.3752 104.364C97.5294 104.66 97.7364 104.914 97.9961 105.125C98.2558 105.34 98.5561 105.507 98.897 105.624C99.2419 105.746 99.6051 105.811 99.9865 105.819C100.007 105.819 100.027 105.819 100.047 105.819C100.331 105.819 100.609 105.791 100.881 105.734C101.157 105.681 101.419 105.598 101.667 105.484C101.914 105.375 102.139 105.241 102.342 105.082C102.545 104.924 102.718 104.748 102.86 104.553C103.002 104.358 103.111 104.147 103.188 103.92C103.249 103.725 103.28 103.522 103.28 103.311C103.28 103.279 103.28 103.244 103.28 103.208C103.271 103.021 103.239 102.814 103.182 102.587C103.129 102.355 103.065 102.122 102.987 101.887C102.91 101.651 102.827 101.422 102.738 101.199C102.653 100.972 102.571 100.771 102.494 100.596C102.417 100.422 102.352 100.282 102.3 100.176C102.247 100.071 102.218 100.018 102.214 100.018L103.645 99.2207C103.657 99.2369 103.689 99.3039 103.742 99.4216C103.795 99.5393 103.858 99.6935 103.931 99.8842C104.004 100.075 104.083 100.294 104.168 100.542C104.253 100.785 104.333 101.045 104.406 101.321C104.483 101.593 104.548 101.871 104.6 102.155C104.657 102.439 104.692 102.711 104.704 102.97C104.708 103.06 104.71 103.147 104.71 103.232C104.71 103.512 104.682 103.81 104.625 104.127C104.568 104.447 104.46 104.772 104.302 105.101C104.148 105.429 103.943 105.734 103.687 106.014C103.432 106.294 103.123 106.535 102.762 106.738C102.405 106.945 101.989 107.105 101.514 107.219C101.04 107.337 100.506 107.395 99.9135 107.395ZM101.447 99.0868L100.279 100.255L99.1161 99.0868L100.279 97.9242L101.447 99.0868Z" fill="white"/>
<path d="M107.531 93.5233C107.632 94.2984 107.703 95.039 107.744 95.7451C107.785 96.4471 107.809 97.1349 107.817 97.8085C107.825 98.3807 107.827 98.9103 107.823 99.3972C107.823 99.8842 107.819 100.339 107.811 100.761C107.803 101.179 107.791 101.57 107.774 101.935C107.758 102.297 107.742 102.635 107.726 102.952L106.131 103.195C106.216 101.856 106.259 100.673 106.259 99.6468C106.259 99.2329 106.253 98.8453 106.24 98.4842C106.208 97.6523 106.171 96.8711 106.131 96.1407C106.09 95.4062 106.036 94.7042 105.967 94.0346L107.531 93.5233Z" fill="white"/>
<path d="M108.802 105.947C109.398 105.829 109.936 105.671 110.415 105.472C110.898 105.277 111.316 105.058 111.669 104.815C112.022 104.571 112.308 104.311 112.527 104.035C112.75 103.76 112.898 103.484 112.972 103.208C112.643 103.208 112.322 103.198 112.01 103.177C111.697 103.157 111.401 103.116 111.121 103.055C110.845 102.999 110.59 102.918 110.354 102.812C110.123 102.702 109.922 102.56 109.752 102.386C109.585 102.207 109.455 101.992 109.362 101.741C109.269 101.489 109.222 101.189 109.222 100.84C109.222 100.617 109.246 100.383 109.295 100.14C109.344 99.8964 109.413 99.659 109.502 99.4277C109.595 99.1923 109.709 98.9711 109.843 98.7642C109.977 98.5532 110.131 98.3685 110.305 98.2103C110.48 98.048 110.673 97.9201 110.884 97.8268C111.095 97.7335 111.322 97.6868 111.565 97.6868C112.194 97.6868 112.769 97.9668 113.288 98.5268C113.458 98.7175 113.613 98.9306 113.751 99.1659C113.889 99.4013 114.008 99.6529 114.11 99.9207C114.211 100.189 114.292 100.469 114.353 100.761C114.418 101.049 114.459 101.345 114.475 101.649H114.883V103.208H114.347C114.209 103.808 113.976 104.348 113.647 104.827C113.318 105.31 112.923 105.73 112.46 106.087C112.002 106.444 111.49 106.738 110.926 106.969C110.362 107.201 109.776 107.367 109.167 107.469L108.802 105.947ZM111.565 99.2511C111.46 99.2511 111.346 99.2958 111.225 99.3851C111.103 99.4743 110.991 99.59 110.89 99.732C110.788 99.87 110.703 100.024 110.634 100.195C110.569 100.365 110.537 100.531 110.537 100.694C110.537 100.864 110.575 101.006 110.652 101.12C110.734 101.233 110.835 101.325 110.957 101.394C111.083 101.463 111.223 101.515 111.377 101.552C111.535 101.584 111.691 101.607 111.845 101.619C111.931 101.627 112.024 101.633 112.125 101.637C112.227 101.637 112.33 101.639 112.436 101.643C112.545 101.647 112.653 101.649 112.758 101.649C112.864 101.649 112.963 101.649 113.057 101.649C113.045 101.499 113.014 101.337 112.965 101.162C112.921 100.984 112.862 100.805 112.789 100.627C112.716 100.448 112.633 100.278 112.539 100.115C112.446 99.9491 112.345 99.803 112.235 99.6772C112.13 99.5474 112.02 99.4439 111.906 99.3668C111.793 99.2897 111.679 99.2511 111.565 99.2511Z" fill="white"/>
<path d="M119.169 101.649V103.208H119.047C118.654 103.208 118.317 103.145 118.037 103.019C117.761 102.893 117.528 102.731 117.337 102.532C117.057 102.763 116.716 102.934 116.314 103.043C115.917 103.153 115.432 103.208 114.86 103.208H114.634V101.649H114.86C115.481 101.649 115.947 101.544 116.26 101.333C116.576 101.118 116.734 100.797 116.734 100.371C116.734 100.233 116.706 100.044 116.649 99.8051C116.592 99.5616 116.511 99.2593 116.406 98.8981L117.903 98.4781C117.956 98.6566 117.996 98.8169 118.025 98.959C118.057 99.0969 118.084 99.2369 118.104 99.379C118.128 99.5169 118.147 99.6671 118.159 99.8294C118.175 99.9877 118.191 100.174 118.207 100.389C118.22 100.519 118.238 100.659 118.262 100.809C118.291 100.955 118.335 101.091 118.396 101.217C118.457 101.339 118.538 101.442 118.64 101.528C118.745 101.609 118.881 101.649 119.047 101.649H119.169ZM117.739 96.4146L116.57 97.5833L115.407 96.4146L116.57 95.252L117.739 96.4146Z" fill="white"/>
<path d="M124.381 99.6346C124.235 99.4642 124.065 99.31 123.87 99.172C123.708 99.0543 123.519 98.9488 123.304 98.8555C123.089 98.7581 122.853 98.7094 122.598 98.7094C122.391 98.7094 122.208 98.7419 122.05 98.8068C121.892 98.8677 121.758 98.9529 121.648 99.0624C121.539 99.168 121.453 99.2917 121.393 99.4338C121.332 99.5758 121.295 99.728 121.283 99.8903C121.279 99.9187 121.277 99.9471 121.277 99.9755C121.277 100.166 121.328 100.353 121.429 100.535C121.531 100.714 121.673 100.874 121.855 101.016C122.038 101.154 122.249 101.26 122.488 101.333C122.683 101.394 122.88 101.424 123.079 101.424C123.123 101.424 123.168 101.422 123.213 101.418C123.448 101.402 123.683 101.378 123.919 101.345C124.158 101.309 124.375 101.274 124.57 101.242L125.221 101.114L125.41 102.629C125.158 102.694 124.876 102.761 124.564 102.83C124.251 102.899 123.892 102.962 123.487 103.019C123.085 103.072 122.628 103.116 122.117 103.153C121.606 103.189 121.025 103.208 120.376 103.208H118.927V101.649H119.195L120.358 101.643C120.139 101.388 119.989 101.126 119.907 100.858C119.83 100.586 119.792 100.288 119.792 99.9633C119.792 99.5819 119.863 99.2207 120.005 98.8798C120.147 98.539 120.342 98.2407 120.589 97.9851C120.841 97.7294 121.137 97.5265 121.478 97.3764C121.823 97.2262 122.196 97.1511 122.598 97.1511C122.797 97.1511 122.987 97.1694 123.17 97.2059C123.357 97.2424 123.533 97.2911 123.7 97.352C123.866 97.4129 124.022 97.4819 124.168 97.559C124.318 97.6361 124.454 97.7132 124.576 97.7903C124.718 97.8836 124.856 97.983 124.99 98.0885C125.124 98.194 125.25 98.3056 125.367 98.4233L124.381 99.6346Z" fill="white"/>
<path fill-rule="evenodd" clip-rule="evenodd" d="M79.943 100L81.829 98.114C81.8909 98.0521 81.94 97.9786 81.9735 97.8977C82.007 97.8168 82.0243 97.7301 82.0243 97.6425C82.0243 97.5549 82.007 97.4682 81.9735 97.3873C81.94 97.3064 81.8909 97.2329 81.829 97.171C81.7671 97.1091 81.6936 97.06 81.6127 97.0265C81.5318 96.993 81.445 96.9757 81.3575 96.9757C81.2699 96.9757 81.1832 96.993 81.1023 97.0265C81.0214 97.06 80.9479 97.1091 80.886 97.171L79 99.057L77.115 97.171C76.9889 97.0509 76.8209 96.9849 76.6469 96.9871C76.4728 96.9892 76.3064 97.0593 76.1833 97.1824C76.0602 97.3055 75.9902 97.4718 75.988 97.6459C75.9859 97.8199 76.0519 97.9879 76.172 98.114L78.057 100L76.172 101.886C76.1101 101.948 76.061 102.021 76.0274 102.102C75.9939 102.183 75.9767 102.27 75.9767 102.358C75.9767 102.445 75.9939 102.532 76.0274 102.613C76.061 102.694 76.1101 102.767 76.172 102.829C76.2339 102.891 76.3074 102.94 76.3883 102.974C76.4692 103.007 76.5559 103.024 76.6435 103.024C76.7311 103.024 76.8178 103.007 76.8987 102.974C76.9796 102.94 77.0531 102.891 77.115 102.829L79 100.943L80.886 102.829C80.9478 102.891 81.0212 102.94 81.1022 102.974C81.1831 103.008 81.2699 103.025 81.3575 103.025C81.4451 103.025 81.5319 103.008 81.6128 102.974C81.6937 102.94 81.7672 102.891 81.829 102.829C81.891 102.767 81.9402 102.694 81.9738 102.613C82.0073 102.532 82.0246 102.445 82.0246 102.358C82.0246 102.27 82.0073 102.183 81.9738 102.102C81.9402 102.021 81.891 101.948 81.829 101.886L79.943 100Z" fill="white"/>
</svg>
