<svg xmlns="http://www.w3.org/2000/svg" xmlns:xlink="http://www.w3.org/1999/xlink" width="422" height="360"><defs><path id="a" d="M76.958 7.46L1.398 128.38a2.226 2.226 0 001.04 3.236l73.04 29.844a8.864 8.864 0 006.73 0l73.035-29.844a2.228 2.228 0 001.044-3.236L80.727 7.46c-.871-1.391-2.902-1.391-3.769 0"/><path id="c" d="M1.398 128.38a2.226 2.226 0 001.04 3.236l72.944 29.53c2.887 1.419 4.34 1.233 6.798 0l73.063-29.53a2.228 2.228 0 001.044-3.236L80.727 7.46c-.871-1.391-2.902-1.391-3.769 0L1.398 128.38z"/><linearGradient id="e" x1="62.387%" x2="51.565%" y1="0%" y2="81.559%"><stop offset="0%" stop-color="#FFF" stop-opacity=".56"/><stop offset="100%" stop-color="#FFF" stop-opacity=".32"/></linearGradient></defs><g fill="none" fill-rule="evenodd"><rect width="422" height="360" rx="4"/><g transform="translate(197 98)"><mask id="b" fill="#fff"><use xlink:href="#a"/></mask><use fill="#FFF" fill-opacity="0" stroke="#000" stroke-linecap="round" stroke-opacity=".12" stroke-width=".5" xlink:href="#a"/><path stroke="#000000" stroke-opacity=".32" stroke-width=".5" mask="url(#b)" d="M1.06 130.517L79 98.983l77.624 31.534"/><path fill="#FFF" fill-opacity=".56" stroke="#000000" stroke-opacity=".32" stroke-width=".5" d="M78.84 72.133l55.78 22.386-55.78 22.79-55.778-22.79 55.779-22.386zm.004-26.848l33.107 13.284L78.844 72.1 45.732 58.569l33.112-13.284z" mask="url(#b)"/><path stroke="#000" stroke-opacity=".12" stroke-width=".5" mask="url(#b)" d="M78.841 6.417L79 162.123"/><mask id="d" fill="#fff"><use xlink:href="#c"/></mask><use fill="#FFF" fill-opacity="0" xlink:href="#c"/><g fill="#EA475B" mask="url(#d)"><path fill-opacity=".56" d="M112.617 58.443L78.843 4.442l-.003 67.422z"/><path fill-opacity=".32" d="M135.285 94.722L78.843 4.442l-.067 113.138z"/><path fill-opacity=".12" d="M157.684 130.909L79.067 4 79 165z"/><path fill-opacity=".56" d="M45 58.443L78.773 4.442l.003 67.422z"/><path fill-opacity=".12" d="M22.396 94.722L78.774 4v113.58z"/><path fill-opacity=".04" d="M0 130.909L78.378 4l.396 161z"/></g><path fill="url(#e)" mask="url(#d)" d="M0 130.616L78.84 4.442v158.396z"/><path stroke="#000000" stroke-opacity=".24" stroke-width=".5" d="M78.841 6.167c.806 0 1.614.387 2.098 1.16h0l75.56 120.92c.405.65.469 1.403.254 2.067a2.473 2.473 0 01-1.417 1.533h0l-73.053 29.526c-2.53 1.269-4.03 1.46-7.003 0h0L2.343 131.847a2.465 2.465 0 01-1.413-1.532 2.464 2.464 0 01.256-2.067h0l75.56-120.92a2.447 2.447 0 012.095-1.161z"/><path stroke="#EA475B" stroke-opacity=".56" stroke-width=".5" d="M112.516 58.752l22.4 35.646-56.142 22.911L22.766 94.4l22.4-35.647 33.677 13.381 33.673-13.381z"/></g><path fill="#000000" fill-opacity=".32" d="M262 138.25a1 1 0 11-.968 1.25H157v-.5h104.031a1 1 0 01.969-.75z"/><path fill="#000000" fill-opacity=".56" fill-rule="nonzero" d="M146.47 140.996c.173 0 .348-.013.523-.04a2.67 2.67 0 00.507-.126c.162-.058.314-.132.454-.223.14-.092.263-.201.368-.329a1.053 1.053 0 00.226-.46c.023-.102.035-.218.037-.348a2.009 2.009 0 00-.05-.44 3.16 3.16 0 00-.198-.567 4.6 4.6 0 00-.317-.583 5.757 5.757 0 00-.88-1.067 4.974 4.974 0 00-.507-.422 3.05 3.05 0 00-.516-.304l-.352.791c.13.058.264.136.4.235.136.099.27.212.402.34a5.166 5.166 0 01.713.862c.1.155.186.31.257.465.071.156.122.304.154.446.023.104.035.194.035.27 0 .104-.022.182-.065.234a.902.902 0 01-.365.266 1.4 1.4 0 01-.392.102 2.498 2.498 0 01-.6-.007 3.695 3.695 0 01-1.013-.276 2.643 2.643 0 01-.387-.202l-.356.817c.072.067.187.134.343.2a5.268 5.268 0 001.085.315c.19.034.354.05.494.05zm-5.766 3.117a7.53 7.53 0 00.72-.402c.236-.15.46-.312.674-.49.213-.176.41-.364.591-.564.181-.2.338-.41.47-.63.132-.221.234-.45.308-.686a2.44 2.44 0 00.08-1.124 6.217 6.217 0 00-.075-.406c-.03-.138-.064-.277-.1-.418l-.107-.42a6.466 6.466 0 00-.108-.397c-.041-.132-.082-.266-.122-.402l-.826.26a23.345 23.345 0 01.417 1.47c.03.125.053.247.072.366.019.118.028.231.028.339 0 .28-.068.553-.204.817a3.221 3.221 0 01-.542.748c-.224.235-.48.451-.767.65a7.08 7.08 0 01-.887.524l.378.765zm-5.86-3.113c.437 0 .87-.04 1.3-.122a10.37 10.37 0 001.245-.315c.402-.129.786-.273 1.152-.433.367-.159.71-.318 1.029-.478.217-.107.426-.21.626-.306.2-.097.401-.188.604-.272l-.165-.826c-.18 0-.358-.019-.535-.057a4.276 4.276 0 01-.53-.15 7.031 7.031 0 01-.529-.21 24.5 24.5 0 01-.52-.24 61.092 61.092 0 00-.464-.213 6.33 6.33 0 00-.453-.185 3.523 3.523 0 00-.437-.128 1.95 1.95 0 00-.424-.048c-.28 0-.548.069-.802.205-.253.136-.493.34-.72.613a2.95 2.95 0 00-.206.274c-.06.09-.11.17-.152.239a2.214 2.214 0 00-.133.248l.783.352c0-.003.014-.031.041-.085.028-.054.068-.12.12-.2.052-.08.114-.165.187-.256.072-.092.154-.177.246-.257.09-.08.19-.146.297-.198a.766.766 0 01.34-.078c.09 0 .188.014.295.041.107.028.221.065.341.111.12.046.245.1.374.159a72 72 0 01.398.185c.177.084.357.166.54.247.182.082.373.157.573.226-.33.166-.674.327-1.03.483a11.85 11.85 0 01-1.096.417c-.374.122-.753.22-1.139.294a6.13 6.13 0 01-1.157.11h-.943V141h.943zm2.643 2.257l.709-.71-.713-.712-.71.708.714.714zm-5.872-3.71h-.028c-.101 0-.201-.005-.3-.017a1.351 1.351 0 01-.32-.067.591.591 0 01-.23-.141.316.316 0 01-.09-.23c0-.093.025-.183.075-.268.049-.086.114-.166.193-.241.08-.076.17-.145.27-.21a4.988 4.988 0 01.602-.32l.248-.105c.046.37.087.678.124.922.036.243.071.449.106.617a3.409 3.409 0 01-.276.04 3.26 3.26 0 01-.402.02h.028zm.255-3.125l.015.158.05.485a7.085 7.085 0 00-.287.111c-.11.045-.227.1-.35.165-.123.066-.25.14-.383.226-.132.086-.26.183-.382.292-.124.108-.24.23-.348.367a2.355 2.355 0 00-.28.448.979.979 0 00-.062.213c-.014.081-.021.16-.021.24v.077c.003.108.02.218.054.33.033.114.09.218.172.314.293.362.813.543 1.56.543.143 0 .291-.006.446-.02.155-.012.324-.033.507-.062.153.246.345.423.574.53.15.07.302.114.454.133.152.019.283.028.394.028h.087v-.852h-.087c-.203 0-.363-.028-.479-.085a.61.61 0 01-.278-.32.871.871 0 01-.039-.115 2.226 2.226 0 01-.03-.12l-.04-.182a13.761 13.761 0 01-.1-.57 28.423 28.423 0 01-.21-1.71 810.037 810.037 0 00-.085-.807l-.001.005-.851.178zm-.918-.63l.987-.549 1.052-.617-.256-.339-.605.326a.374.374 0 01-.182.048h-.018a.559.559 0 01-.206-.048.69.69 0 01-.311-.278.337.337 0 01-.043-.14v-.065a.475.475 0 01.132-.33.484.484 0 01.305-.154 1.143 1.143 0 01.302.007c.058.008.134.022.23.043l.122-.4-.165-.04a1.897 1.897 0 00-.166-.03 1.352 1.352 0 00-.19-.013c-.154 0-.297.028-.427.083a.902.902 0 00-.42.337.917.917 0 00-.158.502c0 .11.02.217.06.322.05.113.12.215.21.308s.195.164.317.213l-.779.435.21.378zm-5.4 5.247c.04-.481.065-.935.072-1.36a63.12 63.12 0 00-.002-2.379 39.74 39.74 0 00-.222-3.165l-.852.13c.098.913.177 2.073.235 3.478.008.241.013.496.013.766 0 .223-.003.456-.009.7-.015.539-.045 1.133-.091 1.782l.856.048zm-4.365-.026c.101 0 .213-.004.335-.013a3.403 3.403 0 00.708-.128c.11-.034.206-.075.287-.124.305-.162.532-.366.68-.611.15-.245.225-.51.225-.798 0-.382-.134-.76-.4-1.13a1.83 1.83 0 00-.379-.366 4.996 4.996 0 00-.563-.36 11.842 11.842 0 00-.695-.357 31.34 31.34 0 00-.78-.356l-1.514-.622-.413.782.344.135a1.56 1.56 0 00-.448.32 1.978 1.978 0 00-.311.417 1.942 1.942 0 00-.241.924c0 .212.054.431.163.659.108.227.272.458.489.693a6.678 6.678 0 01-.552.052c-.108.006-.227.01-.359.013-.132.003-.285.005-.459.005h-.117V141h.117a16.217 16.217 0 001.287-.054c.212-.02.414-.045.607-.076a4.15 4.15 0 00.52-.118c.246.099.489.167.728.205.239.037.486.056.741.056zm-1.513-1.191a2.957 2.957 0 01-.313-.237 1.833 1.833 0 01-.259-.274 1.299 1.299 0 01-.176-.311.939.939 0 01-.065-.348c0-.13.027-.266.082-.409.056-.142.132-.27.229-.382a.953.953 0 01.31-.248.733.733 0 01.314-.078.78.78 0 01.16.017.645.645 0 01.481.376c.042.089.07.181.083.279.013.097.02.189.02.276a1.495 1.495 0 01-.48 1.087 1.405 1.405 0 01-.386.252zm1.43.356a2.235 2.235 0 01-.4-.03c.11-.116.21-.244.3-.383s.166-.28.229-.424c.062-.143.11-.286.145-.428a1.67 1.67 0 00.052-.396c0-.087-.001-.18-.004-.278a1.261 1.261 0 00-.052-.313c.206.096.385.202.539.317.154.116.282.235.385.355.103.12.18.24.232.359a.827.827 0 01.079.33.762.762 0 01-.08.341.745.745 0 01-.262.285c-.12.081-.276.146-.467.194a2.908 2.908 0 01-.696.071zm-8.952.822a1.96 1.96 0 001.165-.352c.169-.116.29-.234.366-.352.542.38 1.103.605 1.682.678.05.006.097.009.144.009.298 0 .552-.138.76-.413.11.144.25.252.416.323.166.071.357.107.572.107h.104v-.852h-.104a.585.585 0 01-.448-.2.67.67 0 01-.122-.213.838.838 0 01-.048-.257 3.658 3.658 0 00-.05-.474 2.548 2.548 0 00-.335-.897 1.587 1.587 0 00-.293-.355 1.272 1.272 0 00-.865-.326c-.255 0-.474.067-.655.202-.18.135-.334.31-.458.524l-.033.055c-.013.021-.034.06-.063.117l-.122.243c-.052.106-.123.247-.213.424-.11.212-.216.387-.317.526-.313.418-.673.628-1.078.63h-.092V141h.087zm3.257-.865a.878.878 0 01-.144-.013 2.165 2.165 0 01-.48-.17 4.46 4.46 0 01-.594-.348l.024-.047.057-.116.12-.243.208-.428c.177-.325.342-.487.496-.487.13 0 .243.036.339.108a.864.864 0 01.237.28c.062.115.11.243.143.386.034.142.053.282.059.421v.07c0 .078-.007.15-.022.213a.624.624 0 01-.091.209c-.075.11-.193.165-.352.165zm-6.4.865c.272 0 .51-.01.71-.033.202-.021.378-.055.529-.1a1.624 1.624 0 00.695-.406c.125.16.285.289.479.389.194.1.437.15.73.15h.087v-.852h-.087a.614.614 0 01-.363-.1.713.713 0 01-.222-.252 1.19 1.19 0 01-.115-.33 3.07 3.07 0 01-.048-.34 13.335 13.335 0 00-.078-.752 4.084 4.084 0 00-.126-.591l-.817.23c.063.22.108.416.132.587.025.171.037.34.037.504 0 .174-.029.326-.087.457a.785.785 0 01-.272.326 1.32 1.32 0 01-.478.196 3.304 3.304 0 01-.706.065h-.648V141h.648zm.16 2.126l.705-.704-.713-.713-.704.708.713.71zm1.783.009l.705-.709-.714-.709-.704.705.713.713zm-8.63-5.705l.704-.704-.713-.713-.704.709.713.708zm1.782.01l.705-.71-.713-.708-.705.704.713.713zm-1.26 3.573c1.649 0 2.856-.4 3.621-1.2.064.177.154.335.27.474.362.467.92.704 1.674.713h.121v-.852h-.108c-.473-.003-.81-.134-1.013-.391a.87.87 0 01-.183-.366 2.16 2.16 0 01-.056-.391v-.035a3.622 3.622 0 01.098-.633 6.75 6.75 0 01.05-.193l-.827-.226c-.037.13-.08.264-.128.4a3.268 3.268 0 01-.174.404c-.068.134-.15.263-.246.387-.095.125-.21.24-.343.344-.299.243-.672.42-1.122.532-.449.112-.994.168-1.635.168-.715-.003-1.297-.078-1.745-.226-.448-.148-.759-.371-.933-.67a1.055 1.055 0 01-.139-.359 1.892 1.892 0 01.028-.802c.03-.119.062-.223.094-.313s.06-.162.087-.217c.026-.055.039-.084.039-.087l-.752-.413c-.015.02-.056.11-.124.272-.068.16-.139.379-.211.654-.035.13-.057.25-.065.359a2.891 2.891 0 00-.004.493c.011.15.04.302.084.452.045.151.11.297.194.44.26.44.68.762 1.258.967.579.204 1.308.31 2.19.315zM92.847 141c.238 0 .459-.016.663-.048.204-.032.389-.087.554-.165a1.49 1.49 0 00.437-.313c.126-.13.233-.294.32-.491.087-.2.13-.432.13-.696a2.23 2.23 0 00-.004-.14 4.855 4.855 0 00-.226-1.112 5.646 5.646 0 00-.14-.402 8.789 8.789 0 00-.239-.561 1.07 1.07 0 01-.039-.09l-.774.383.379.93a2.828 2.828 0 01.195.742 1.385 1.385 0 01-.004.367.778.778 0 01-.587.67 1.636 1.636 0 01-.387.063c-.142.007-.297.01-.465.01h-.504V141h.69zm.713 2.265l.709-.708-.713-.714-.71.71.714.712zM92.33 141v-.852h-.088c-.182 0-.34-.019-.471-.057a.678.678 0 01-.298-.156.362.362 0 01-.115-.224 2.349 2.349 0 01-.016-.276v-2.183a30.345 30.345 0 00-.089-2.291 6.445 6.445 0 00-.067-.544l-.852.157c.026.136.048.31.067.524.019.213.035.445.048.698a36.238 36.238 0 01.037 1.56 64.038 64.038 0 010 1.344 132.138 132.138 0 00-.008.579v.143c0 .052.002.111.004.176.003.097.016.2.04.306.026.108.063.216.114.326.05.11.124.213.22.31.156.156.347.272.571.347.225.075.497.113.815.113h.087zm-6.414.343a4.639 4.639 0 00.97-.1c.307-.072.59-.17.848-.295.258-.125.482-.274.674-.448.124-.113.235-.253.332-.42.097-.166.179-.344.244-.532a3.104 3.104 0 00.176-.97c0-.049-.002-.098-.004-.148a32.4 32.4 0 00-.077-.971 53.723 53.723 0 00-.284-2.461 26.94 26.94 0 00-.092-.633l-.852.083.448 4.043a1.48 1.48 0 01-.03.435 2.289 2.289 0 01-.163.457 2.054 2.054 0 01-.261.41 1.402 1.402 0 01-.333.303 8.771 8.771 0 00-.478-1.494 16.021 16.021 0 00-.857-1.737 19.756 19.756 0 00-1.002-1.622 1.803 1.803 0 01-.098-.147l-.708.495.09.129c.059.082.136.197.231.343.096.146.205.319.329.517.123.199.25.416.382.653.132.236.265.485.4.747.135.263.261.53.378.803.118.272.221.545.311.82.09.273.158.539.205.797a3.17 3.17 0 01-.796.087c-.171 0-.329-.015-.474-.044l-.148.848c.212.035.425.052.64.052zm60.553 41.653c.173 0 .348-.013.523-.04a2.67 2.67 0 00.507-.126c.162-.058.314-.132.454-.223.14-.092.263-.201.368-.329a1.053 1.053 0 00.226-.46c.023-.102.035-.218.037-.348a2.009 2.009 0 00-.05-.44 3.16 3.16 0 00-.198-.567 4.6 4.6 0 00-.317-.583 5.757 5.757 0 00-.88-1.067 4.974 4.974 0 00-.507-.422 3.05 3.05 0 00-.516-.304l-.352.791c.13.058.264.136.4.235.136.099.27.212.402.34a5.166 5.166 0 01.713.862c.1.155.186.31.257.465.071.156.122.304.154.446.023.104.035.194.035.27 0 .104-.022.182-.065.234a.902.902 0 01-.365.266 1.4 1.4 0 01-.392.102 2.498 2.498 0 01-.6-.007 3.695 3.695 0 01-1.013-.276 2.643 2.643 0 01-.387-.202l-.356.817c.072.067.187.134.343.2a5.268 5.268 0 001.085.315c.19.034.354.05.494.05zm-5.766 3.117a7.53 7.53 0 00.72-.402c.236-.15.46-.312.674-.49.213-.176.41-.364.591-.564.181-.2.338-.41.47-.63.132-.221.234-.45.308-.686a2.44 2.44 0 00.08-1.124 6.217 6.217 0 00-.075-.406c-.03-.138-.064-.277-.1-.418l-.107-.42a6.466 6.466 0 00-.108-.397c-.041-.132-.082-.266-.122-.402l-.826.26a23.345 23.345 0 01.417 1.47c.03.125.053.247.072.366.019.118.028.231.028.339 0 .28-.068.553-.204.817a3.221 3.221 0 01-.542.748c-.224.235-.48.451-.767.65a7.08 7.08 0 01-.887.524l.378.765zm-5.86-3.113c.437 0 .87-.04 1.3-.122a10.37 10.37 0 001.245-.315c.402-.129.786-.273 1.152-.433.367-.159.71-.318 1.029-.478.217-.107.426-.21.626-.306.2-.097.401-.188.604-.272l-.165-.826c-.18 0-.358-.019-.535-.057a4.276 4.276 0 01-.53-.15 7.031 7.031 0 01-.529-.21 24.5 24.5 0 01-.52-.24 61.092 61.092 0 00-.464-.213 6.33 6.33 0 00-.453-.185 3.523 3.523 0 00-.437-.128 1.95 1.95 0 00-.424-.048c-.28 0-.548.069-.802.205-.253.136-.493.34-.72.613a2.95 2.95 0 00-.206.274c-.06.09-.11.17-.152.239a2.214 2.214 0 00-.133.248l.783.352c0-.003.014-.031.041-.085.028-.054.068-.12.12-.2.052-.08.114-.165.187-.256.072-.092.154-.177.246-.257.09-.08.19-.146.297-.198a.766.766 0 01.34-.078c.09 0 .188.014.295.041.107.028.221.065.341.111.12.046.245.1.374.159a72 72 0 01.398.185c.177.084.357.166.54.247.182.082.373.157.573.226-.33.166-.674.327-1.03.483a11.85 11.85 0 01-1.096.417c-.374.122-.753.22-1.139.294a6.13 6.13 0 01-1.157.11h-.943V183h.943zm2.643 2.257l.709-.71-.713-.712-.71.708.714.714zm-5.872-3.71h-.028c-.101 0-.201-.005-.3-.017a1.351 1.351 0 01-.32-.067.591.591 0 01-.23-.141.316.316 0 01-.09-.23c0-.093.025-.183.075-.268.049-.086.114-.166.193-.241.08-.076.17-.145.27-.21a4.988 4.988 0 01.602-.32l.248-.105c.046.37.087.678.124.922.036.243.071.449.106.617a3.409 3.409 0 01-.276.04 3.26 3.26 0 01-.402.02h.028zm.255-3.125l.015.158.05.485a7.085 7.085 0 00-.287.111c-.11.045-.227.1-.35.165-.123.066-.25.14-.383.226-.132.086-.26.183-.382.292-.124.108-.24.23-.348.367a2.355 2.355 0 00-.28.448.979.979 0 00-.062.213c-.014.081-.021.16-.021.24v.077c.003.108.02.218.054.33.033.114.09.218.172.314.293.362.813.543 1.56.543.143 0 .291-.006.446-.02.155-.012.324-.033.507-.062.153.246.345.423.574.53.15.07.302.114.454.133.152.019.283.028.394.028h.087v-.852h-.087c-.203 0-.363-.028-.479-.085a.61.61 0 01-.278-.32.871.871 0 01-.039-.115 2.226 2.226 0 01-.03-.12l-.04-.182a13.761 13.761 0 01-.1-.57 28.423 28.423 0 01-.21-1.71 810.037 810.037 0 00-.085-.807l-.001.005-.851.178zm-.918-.63l.987-.549 1.052-.617-.256-.339-.605.326a.374.374 0 01-.182.048h-.018a.559.559 0 01-.206-.048.69.69 0 01-.311-.278.337.337 0 01-.043-.14v-.065a.475.475 0 01.132-.33.484.484 0 01.305-.154 1.143 1.143 0 01.302.007c.058.008.134.022.23.043l.122-.4-.165-.04a1.897 1.897 0 00-.166-.03 1.352 1.352 0 00-.19-.013c-.154 0-.297.028-.427.083a.902.902 0 00-.42.337.917.917 0 00-.158.502c0 .11.02.217.06.322.05.113.12.215.21.308s.195.164.317.213l-.779.435.21.378zm-5.4 5.247c.04-.481.065-.935.072-1.36a63.12 63.12 0 00-.002-2.379 39.74 39.74 0 00-.222-3.165l-.852.13c.098.913.177 2.073.235 3.478.008.241.013.496.013.766 0 .223-.003.456-.009.7-.015.539-.045 1.133-.091 1.782l.856.048zm-4.365-.026c.101 0 .213-.004.335-.013a3.403 3.403 0 00.708-.128c.11-.034.206-.075.287-.124.305-.162.532-.366.68-.611.15-.245.225-.51.225-.798 0-.382-.134-.76-.4-1.13a1.83 1.83 0 00-.379-.366 4.996 4.996 0 00-.563-.36 11.842 11.842 0 00-.695-.357 31.34 31.34 0 00-.78-.356l-1.514-.622-.413.782.344.135a1.56 1.56 0 00-.448.32 1.978 1.978 0 00-.311.417 1.942 1.942 0 00-.241.924c0 .212.054.431.163.659.108.227.272.458.489.693a6.678 6.678 0 01-.552.052c-.108.006-.227.01-.359.013-.132.003-.285.005-.459.005h-.117V183h.117a16.217 16.217 0 001.287-.054c.212-.02.414-.045.607-.076a4.15 4.15 0 00.52-.118c.246.099.489.167.728.205.239.037.486.056.741.056zm-1.513-1.191a2.957 2.957 0 01-.313-.237 1.833 1.833 0 01-.259-.274 1.299 1.299 0 01-.176-.311.939.939 0 01-.065-.348c0-.13.027-.266.082-.409.056-.142.132-.27.229-.382a.953.953 0 01.31-.248.733.733 0 01.314-.078.78.78 0 01.16.017.645.645 0 01.481.376c.042.089.07.181.083.279.013.097.02.189.02.276a1.495 1.495 0 01-.48 1.087 1.405 1.405 0 01-.386.252zm1.43.356a2.235 2.235 0 01-.4-.03c.11-.116.21-.244.3-.383s.166-.28.229-.424c.062-.143.11-.286.145-.428a1.67 1.67 0 00.052-.396c0-.087-.001-.18-.004-.278a1.261 1.261 0 00-.052-.313c.206.096.385.202.539.317.154.116.282.235.385.355.103.12.18.24.232.359a.827.827 0 01.079.33.762.762 0 01-.08.341.745.745 0 01-.262.285c-.12.081-.276.146-.467.194a2.908 2.908 0 01-.696.071zm-8.952.822a1.96 1.96 0 001.165-.352c.169-.116.29-.234.366-.352.542.38 1.103.605 1.682.678.05.006.097.009.144.009.298 0 .552-.138.76-.413.11.144.25.252.416.323.166.071.357.107.572.107h.104v-.852h-.104a.585.585 0 01-.448-.2.67.67 0 01-.122-.213.838.838 0 01-.048-.257 3.658 3.658 0 00-.05-.474 2.548 2.548 0 00-.335-.897 1.587 1.587 0 00-.293-.355 1.272 1.272 0 00-.865-.326c-.255 0-.474.067-.655.202-.18.135-.334.31-.458.524l-.033.055c-.013.021-.034.06-.063.117l-.122.243c-.052.106-.123.247-.213.424-.11.212-.216.387-.317.526-.313.418-.673.628-1.078.63h-.092V183h.087zm3.257-.865a.878.878 0 01-.144-.013 2.165 2.165 0 01-.48-.17 4.46 4.46 0 01-.594-.348l.024-.047.057-.116.12-.243.208-.428c.177-.325.342-.487.496-.487.13 0 .243.036.339.108a.864.864 0 01.237.28c.062.115.11.243.143.386.034.142.053.282.059.421v.07c0 .078-.007.15-.022.213a.624.624 0 01-.091.209c-.075.11-.193.165-.352.165zm-6.4.865c.272 0 .51-.01.71-.033.202-.021.378-.055.529-.1a1.624 1.624 0 00.695-.406c.125.16.285.289.479.389.194.1.437.15.73.15h.087v-.852h-.087a.614.614 0 01-.363-.1.713.713 0 01-.222-.252 1.19 1.19 0 01-.115-.33 3.07 3.07 0 01-.048-.34 13.335 13.335 0 00-.078-.752 4.084 4.084 0 00-.126-.591l-.817.23c.063.22.108.416.132.587.025.171.037.34.037.504 0 .174-.029.326-.087.457a.785.785 0 01-.272.326 1.32 1.32 0 01-.478.196 3.304 3.304 0 01-.706.065h-.648V183h.648zm.16 2.126l.705-.704-.713-.713-.704.708.713.71zm1.783.009l.705-.709-.714-.709-.704.705.713.713zm-8.63-5.705l.704-.704-.713-.713-.704.709.713.708zm1.782.01l.705-.71-.713-.708-.705.704.713.713zm-1.26 3.573c1.649 0 2.856-.4 3.621-1.2.064.177.154.335.27.474.362.467.92.704 1.674.713h.121v-.852h-.108c-.473-.003-.81-.134-1.013-.391a.87.87 0 01-.183-.366 2.16 2.16 0 01-.056-.391v-.035a3.622 3.622 0 01.098-.633 6.75 6.75 0 01.05-.193l-.827-.226c-.037.13-.08.264-.128.4a3.268 3.268 0 01-.174.404c-.068.134-.15.263-.246.387-.095.125-.21.24-.343.344-.299.243-.672.42-1.122.532-.449.112-.994.168-1.635.168-.715-.003-1.297-.078-1.745-.226-.448-.148-.759-.371-.933-.67a1.055 1.055 0 01-.139-.359 1.892 1.892 0 01.028-.802c.03-.119.062-.223.094-.313s.06-.162.087-.217c.026-.055.039-.084.039-.087l-.752-.413c-.015.02-.056.11-.124.272-.068.16-.139.379-.211.654-.035.13-.057.25-.065.359a2.891 2.891 0 00-.004.493c.011.15.04.302.084.452.045.151.11.297.194.44.26.44.68.762 1.258.967.579.204 1.308.31 2.19.315zM90.286 183c.177 0 .343-.009.5-.026.156-.017.304-.05.443-.1.14-.05.27-.12.394-.213.123-.093.241-.216.354-.37.134.099.279.195.435.29.157.094.32.173.49.239a1.878 1.878 0 00.701.14c.12 0 .238-.015.357-.047.188-.052.348-.146.478-.28.13-.135.233-.293.309-.474a1.87 1.87 0 00.139-.498c.017-.15.026-.273.026-.365a2.09 2.09 0 00-.022-.305 2.63 2.63 0 00-.154-.574 1.79 1.79 0 00-.298-.504 1.47 1.47 0 00-.45-.359 1.295 1.295 0 00-.606-.137c-.192 0-.36.039-.503.116a1.413 1.413 0 00-.382.3 2.292 2.292 0 00-.3.421 8.885 8.885 0 00-.25.48c-.09.18-.18.355-.268.525-.088.17-.192.32-.313.452-.12.132-.266.238-.437.317-.17.08-.385.12-.643.12H90.2V183h.087zm3.304-.904c-.116 0-.246-.03-.391-.087a3.355 3.355 0 01-.722-.422l.235-.474c.073-.142.137-.265.194-.37.056-.104.11-.19.16-.26a.616.616 0 01.153-.155.292.292 0 01.163-.05c.087 0 .163.018.23.052a.63.63 0 01.174.133c.05.054.091.113.126.178a1.415 1.415 0 01.135.355 1.39 1.39 0 01.039.33 1.301 1.301 0 01-.08.44.74.74 0 01-.12.212.278.278 0 01-.144.1.627.627 0 01-.152.018zm-5.956-3.213l.704-.705-.713-.713-.704.709.713.709zm1.782.008l.705-.708-.713-.71-.705.705.713.713zM87.143 183c.273 0 .51-.01.711-.033.202-.021.378-.055.529-.1a1.624 1.624 0 00.695-.406c.125.16.284.289.479.389.194.1.437.15.73.15h.087v-.852h-.087a.614.614 0 01-.363-.1.713.713 0 01-.222-.252 1.19 1.19 0 01-.115-.33 3.07 3.07 0 01-.048-.34 13.335 13.335 0 00-.078-.752 4.084 4.084 0 00-.126-.591l-.818.23c.064.22.108.416.133.587.025.171.037.34.037.504 0 .174-.029.326-.087.457a.785.785 0 01-.272.326 1.32 1.32 0 01-.478.196 3.304 3.304 0 01-.707.065h-.647V183h.647zm-4.556 3.052a5.328 5.328 0 001.228-.348 4.494 4.494 0 001.078-.634c.324-.258.599-.56.827-.907.227-.346.384-.734.471-1.163h.479v-.852h-.413a4.035 4.035 0 00-.235-1.263 3.339 3.339 0 00-.252-.55 2.747 2.747 0 00-.33-.461c-.346-.371-.724-.557-1.136-.557-.185 0-.364.047-.537.142a1.632 1.632 0 00-.48.415 2.418 2.418 0 00-.317.559c-.09.216-.148.408-.172.578-.025.17-.037.31-.037.42 0 .115.01.231.03.347.035.22.12.415.252.583.302.374.767.58 1.396.617.16.015.302.022.428.022h.494a1.662 1.662 0 01-.268.663 2.718 2.718 0 01-.597.637 4.3 4.3 0 01-.909.54 5.61 5.61 0 01-1.2.373l.2.84zm2.317-3.913c-.127 0-.263-.004-.408-.013a2.191 2.191 0 01-.185-.02 1.545 1.545 0 01-.218-.047 1.022 1.022 0 01-.208-.087.512.512 0 01-.163-.142.407.407 0 01-.09-.206 1.521 1.521 0 01-.015-.194 1.975 1.975 0 01.246-.909.984.984 0 01.202-.25.36.36 0 01.24-.097c.052 0 .1.009.147.026.047.017.09.04.133.067a.908.908 0 01.117.092c.036.033.069.064.098.093a2.1 2.1 0 01.21.298c.069.114.13.243.186.385.055.142.1.295.134.46.035.166.057.341.066.527a5.083 5.083 0 01-.492.017zm-4.991.913c.27 0 .506-.038.709-.113.208-.075.382-.184.521-.326.14-.142.244-.314.314-.515.07-.202.104-.427.104-.676 0-.165-.015-.335-.046-.509a4.81 4.81 0 00-.117-.509 7.65 7.65 0 00-.49-1.262l-.047-.094-.761.4a7.67 7.67 0 01.367.889c.063.184.116.372.161.563.045.191.068.37.068.535 0 .127-.015.242-.044.343a.581.581 0 01-.141.252.477.477 0 01-.222.133.978.978 0 01-.25.033c-.05 0-.101-.003-.156-.009a.406.406 0 01-.22-.085.53.53 0 01-.143-.182.92.92 0 01-.079-.257 1.891 1.891 0 01-.024-.306c0-.12.01-.255.026-.407.018-.152.037-.296.06-.43.02-.135.04-.25.058-.346l.022-.14-.835-.151a10.4 10.4 0 01-.072.42c-.03.16-.07.326-.117.497-.048.171-.106.34-.174.504a2.297 2.297 0 01-.24.444c-.09.13-.195.236-.312.317a.683.683 0 01-.398.122.46.46 0 01-.23-.052.389.389 0 01-.144-.14.609.609 0 01-.074-.197 1.184 1.184 0 01-.022-.228c0-.113.012-.236.035-.368.023-.132.05-.26.083-.387a7.98 7.98 0 01.182-.624l-.86-.182a9.71 9.71 0 01-.105.452c-.04.16-.09.318-.148.476-.058.158-.126.31-.204.454-.078.145-.17.273-.276.385a1.295 1.295 0 01-.363.27c-.137.068-.29.102-.461.102h-.096V183h.091c.169 0 .323-.014.464-.041a1.69 1.69 0 00.707-.309c.098-.074.19-.157.277-.25a.853.853 0 00.198.283c.086.08.18.149.285.204a1.42 1.42 0 001.36-.013c.221-.119.418-.28.592-.483.061.093.135.18.222.259.087.08.181.15.282.209.102.06.208.106.32.141.112.035.222.052.333.052h.03zM74.922 183l.004-.852h-1.674c.044-.035.087-.071.13-.109a2.21 2.21 0 00.37-.413 2.242 2.242 0 00.346-.789 1.886 1.886 0 00.037-.502 1.219 1.219 0 00-.202-.648 1.592 1.592 0 00-.479-.465 1.639 1.639 0 00-.558-.235 2.454 2.454 0 00-.453-.052c-.113 0-.224.01-.334.03a3.223 3.223 0 00-.979.363 5.084 5.084 0 00-1.026.776 80.107 80.107 0 01-.026-.906 8.144 8.144 0 00-.024-.426l-.028-.39a13.426 13.426 0 00-.037-.421l-.048-.478a37.703 37.703 0 00-.098-.896l-.034-.296-.013-.113-.853.157.024.172c.016.111.036.265.06.46a33.967 33.967 0 01.147 1.568c.02.287.035.538.046.754.01.216.014.42.013.613-.002.193-.011.388-.029.585-.017.197-.043.42-.078.67-.26.339-.452.597-.574.773a9.377 9.377 0 01-1.122-.36l-.313.804c.244.093.487.177.73.254.244.077.5.143.768.198.268.055.552.098.85.128.299.03.625.046.978.046.227 0 .467-.01.722-.033.255-.021.52-.07.792-.145a6.672 6.672 0 00.543.093c.154.022.327.042.52.059.192.017.39.026.593.026h1.309zm-4.47-.857h-.048c-.31 0-.608-.015-.895-.047l.656-.83c.392-.436.761-.774 1.109-1.016s.67-.386.965-.433a1.925 1.925 0 01.326-.004c.113.012.22.04.318.083a.769.769 0 01.256.182.597.597 0 01.152.413.731.731 0 01-.013.135 1.338 1.338 0 01-.213.49 1.48 1.48 0 01-.16.193c-.21.214-.45.38-.722.5a3.761 3.761 0 01-.85.256 5.033 5.033 0 01-.88.078zm76.018 42.853c.173 0 .348-.013.523-.04a2.67 2.67 0 00.507-.126c.162-.058.314-.132.454-.223.14-.092.263-.201.368-.329a1.053 1.053 0 00.226-.46c.023-.102.035-.218.037-.348a2.009 2.009 0 00-.05-.44 3.16 3.16 0 00-.198-.567 4.6 4.6 0 00-.317-.583 5.757 5.757 0 00-.88-1.067 4.974 4.974 0 00-.507-.422 3.05 3.05 0 00-.516-.304l-.352.791c.13.058.264.136.4.235.136.099.27.212.402.34a5.166 5.166 0 01.713.862c.1.155.186.31.257.465.071.156.122.304.154.446.023.104.035.194.035.27 0 .104-.022.182-.065.234a.902.902 0 01-.365.266 1.4 1.4 0 01-.392.102 2.498 2.498 0 01-.6-.007 3.695 3.695 0 01-1.013-.276 2.643 2.643 0 01-.387-.202l-.356.817c.072.067.187.134.343.2a5.268 5.268 0 001.085.315c.19.034.354.05.494.05zm-5.766 3.117a7.53 7.53 0 00.72-.402c.236-.15.46-.312.674-.49.213-.176.41-.364.591-.564.181-.2.338-.41.47-.63.132-.221.234-.45.308-.686a2.439 2.439 0 00.08-1.124 6.217 6.217 0 00-.075-.406c-.03-.138-.064-.277-.1-.418a59.59 59.59 0 01-.107-.42 6.466 6.466 0 00-.108-.397c-.041-.132-.082-.266-.122-.402l-.826.26a23.345 23.345 0 01.417 1.47c.03.125.053.247.072.366.019.118.028.231.028.339 0 .28-.068.553-.204.817a3.221 3.221 0 01-.542.748c-.224.235-.48.451-.767.65a7.08 7.08 0 01-.887.524l.378.765zm-5.86-3.113c.437 0 .87-.04 1.3-.122a10.37 10.37 0 001.245-.315c.402-.129.786-.273 1.152-.433.367-.159.71-.318 1.029-.478.217-.107.426-.21.626-.306.2-.097.401-.188.604-.272l-.165-.826c-.18 0-.358-.019-.535-.057a4.276 4.276 0 01-.53-.15 7.03 7.03 0 01-.529-.21 24.498 24.498 0 01-.52-.24 61.111 61.111 0 00-.464-.213 6.33 6.33 0 00-.453-.185 3.523 3.523 0 00-.437-.128 1.95 1.95 0 00-.424-.048c-.28 0-.548.069-.802.205-.253.136-.493.34-.72.613a2.95 2.95 0 00-.206.274c-.06.09-.11.17-.152.239a2.214 2.214 0 00-.133.248l.783.352c0-.003.014-.031.041-.085.028-.054.068-.12.12-.2.052-.08.114-.165.187-.256.072-.092.154-.177.246-.257.09-.08.19-.146.297-.198a.766.766 0 01.34-.078c.09 0 .188.014.295.041.107.028.221.065.341.111.12.046.245.1.374.159.13.06.262.12.398.185.177.084.357.166.54.247.182.082.373.157.573.226-.33.166-.674.327-1.03.483-.357.157-.722.296-1.096.417-.374.122-.753.22-1.139.294a6.13 6.13 0 01-1.157.11h-.943V225h.943zm2.643 2.257l.709-.71-.713-.712-.71.708.714.714zm-5.872-3.71h-.028c-.101 0-.201-.005-.3-.017a1.351 1.351 0 01-.32-.067.591.591 0 01-.23-.141.316.316 0 01-.09-.23c0-.093.025-.183.075-.268.049-.086.114-.166.193-.241.08-.076.17-.145.27-.21a4.988 4.988 0 01.602-.32l.248-.105c.046.37.087.678.124.922.036.243.071.449.106.617a3.41 3.41 0 01-.276.04 3.26 3.26 0 01-.402.02h.028zm.255-3.125l.015.158.05.485a7.085 7.085 0 00-.287.111c-.11.045-.227.1-.35.165-.123.066-.25.14-.383.226-.132.086-.26.183-.382.292-.124.108-.24.23-.348.367a2.355 2.355 0 00-.28.448.979.979 0 00-.062.213c-.014.081-.021.16-.021.24v.077c.003.108.02.218.054.33.033.114.09.218.172.314.293.362.813.543 1.56.543.143 0 .291-.006.446-.02.155-.012.324-.033.507-.062.153.246.345.423.574.53.15.07.302.114.454.133.152.019.283.028.394.028h.087v-.852h-.087c-.203 0-.363-.028-.479-.085a.61.61 0 01-.278-.32.871.871 0 01-.039-.115 2.226 2.226 0 01-.03-.12l-.04-.182a13.761 13.761 0 01-.1-.57 28.423 28.423 0 01-.21-1.71 811.318 811.318 0 00-.085-.807l-.001.005-.851.178zm-.918-.63l.987-.549 1.052-.617-.256-.339-.605.326a.374.374 0 01-.182.048h-.018a.559.559 0 01-.206-.048.69.69 0 01-.311-.278.337.337 0 01-.043-.14v-.065a.475.475 0 01.132-.33.484.484 0 01.305-.154 1.142 1.142 0 01.302.007c.058.008.134.022.23.043l.122-.4-.165-.04a1.897 1.897 0 00-.166-.03 1.352 1.352 0 00-.19-.013c-.154 0-.297.028-.427.083a.902.902 0 00-.42.337.917.917 0 00-.158.502c0 .11.02.217.06.322.05.113.12.215.21.308s.195.164.317.213l-.779.435.21.378zm-5.4 5.247c.04-.481.065-.935.072-1.36a63.12 63.12 0 00-.002-2.379 39.74 39.74 0 00-.222-3.165l-.852.13c.098.913.177 2.073.235 3.478.008.241.013.496.013.766 0 .223-.003.456-.009.7-.015.539-.045 1.133-.091 1.782l.856.048zm-4.365-.026c.101 0 .213-.004.335-.013a3.404 3.404 0 00.708-.128c.11-.034.206-.075.287-.124.305-.162.532-.366.68-.611.15-.245.225-.51.225-.798 0-.382-.134-.76-.4-1.13a1.83 1.83 0 00-.379-.366 4.996 4.996 0 00-.563-.36 11.842 11.842 0 00-.695-.357 31.34 31.34 0 00-.78-.356l-1.514-.622-.413.782.344.135a1.56 1.56 0 00-.448.32 1.978 1.978 0 00-.311.417 1.942 1.942 0 00-.241.924c0 .212.054.431.163.659.108.227.272.458.489.693a6.679 6.679 0 01-.552.052c-.108.006-.227.01-.359.013-.132.003-.285.005-.459.005h-.117V225h.117a16.218 16.218 0 001.287-.054c.212-.02.414-.045.607-.076a4.15 4.15 0 00.52-.118c.246.099.489.167.728.205.239.037.486.056.741.056zm-1.513-1.191a2.957 2.957 0 01-.313-.237 1.833 1.833 0 01-.259-.274 1.299 1.299 0 01-.176-.311.939.939 0 01-.065-.348c0-.13.027-.266.082-.409.056-.142.132-.27.229-.382a.953.953 0 01.31-.248.733.733 0 01.314-.078.78.78 0 01.16.017.645.645 0 01.481.376c.042.089.07.181.083.279.013.097.02.189.02.276a1.495 1.495 0 01-.48 1.087 1.405 1.405 0 01-.386.252zm1.43.356a2.235 2.235 0 01-.4-.03c.11-.116.21-.244.3-.383s.166-.28.229-.424c.062-.143.11-.286.145-.428a1.67 1.67 0 00.052-.396c0-.087-.001-.18-.004-.278a1.261 1.261 0 00-.052-.313c.206.096.385.202.539.317.154.116.282.235.385.355.103.12.18.24.232.359a.827.827 0 01.079.33.762.762 0 01-.08.341.745.745 0 01-.262.285c-.12.081-.276.146-.467.194a2.908 2.908 0 01-.696.071zm-8.952.822a1.96 1.96 0 001.165-.352c.169-.116.29-.234.366-.352.542.38 1.103.605 1.682.678.05.006.097.009.144.009.298 0 .552-.138.76-.413.11.144.25.252.416.323.166.071.357.107.572.107h.104v-.852h-.104a.585.585 0 01-.448-.2.67.67 0 01-.122-.213.838.838 0 01-.048-.257 3.659 3.659 0 00-.05-.474 2.547 2.547 0 00-.335-.897 1.587 1.587 0 00-.293-.355 1.272 1.272 0 00-.865-.326c-.255 0-.474.067-.655.202-.18.135-.334.31-.458.524l-.033.055a18.629 18.629 0 00-.185.36c-.052.106-.123.247-.213.424-.11.212-.216.387-.317.526-.313.418-.673.628-1.078.63h-.092V225h.087zm3.257-.865a.878.878 0 01-.144-.013 2.164 2.164 0 01-.48-.17 4.46 4.46 0 01-.594-.348 4792.925 4792.925 0 00.08-.163l.12-.243.209-.428c.177-.325.342-.487.496-.487.13 0 .243.036.339.108a.864.864 0 01.237.28c.062.115.11.243.143.386.034.142.053.282.059.421v.07c0 .078-.007.15-.022.213a.624.624 0 01-.091.209c-.075.11-.193.165-.352.165zm-6.4.865c.272 0 .51-.01.71-.033.202-.021.378-.055.529-.1a1.624 1.624 0 00.695-.406c.125.16.285.289.479.389.194.1.437.15.73.15h.087v-.852h-.087a.614.614 0 01-.363-.1.713.713 0 01-.222-.252 1.19 1.19 0 01-.115-.33 3.07 3.07 0 01-.048-.34 13.335 13.335 0 00-.078-.752 4.084 4.084 0 00-.126-.591l-.817.23c.063.22.108.416.132.587.025.171.037.34.037.504 0 .174-.029.326-.087.457a.785.785 0 01-.272.326 1.32 1.32 0 01-.478.196 3.304 3.304 0 01-.706.065h-.648V225h.648zm.16 2.126l.705-.704-.713-.713-.704.708.713.71zm1.783.009l.705-.709-.714-.709-.704.705.713.713zm-8.63-5.705l.704-.704-.713-.713-.704.709.713.708zm1.782.01l.705-.71-.713-.708-.705.704.713.713zm-1.26 3.573c1.649 0 2.856-.4 3.621-1.2.064.177.154.335.27.474.362.467.92.704 1.674.713h.121v-.852h-.108c-.473-.003-.81-.134-1.013-.391a.87.87 0 01-.183-.366 2.16 2.16 0 01-.056-.391v-.035a3.622 3.622 0 01.098-.633 6.75 6.75 0 01.05-.193l-.827-.226c-.037.13-.08.264-.128.4a3.268 3.268 0 01-.174.404c-.068.134-.15.263-.246.387-.095.125-.21.24-.343.344-.299.243-.672.42-1.122.532-.449.112-.994.168-1.635.168-.715-.003-1.297-.078-1.745-.226-.448-.148-.759-.371-.933-.67a1.055 1.055 0 01-.139-.359 1.892 1.892 0 01.028-.802c.03-.119.062-.223.094-.313s.06-.162.087-.217c.026-.055.039-.084.039-.087l-.752-.413c-.015.02-.056.11-.124.272-.068.16-.139.379-.211.654-.035.13-.057.25-.065.359a2.891 2.891 0 00-.004.493c.011.15.04.302.084.452.045.151.11.297.194.44.26.44.68.762 1.258.967.579.204 1.308.31 2.19.315zM92.625 225c.238 0 .467-.016.69-.048a2.47 2.47 0 00.61-.165c.186-.078.35-.183.494-.313.143-.13.258-.294.345-.491.087-.2.13-.432.13-.696a2.23 2.23 0 00-.004-.14 4.855 4.855 0 00-.226-1.112 5.646 5.646 0 00-.139-.402 8.789 8.789 0 00-.239-.561 1.07 1.07 0 01-.04-.09l-.773.383.378.93a2.828 2.828 0 01.196.742 1.385 1.385 0 01-.004.367.843.843 0 01-.066.23.68.68 0 01-.243.286c-.105.068-.225.12-.361.154a2.195 2.195 0 01-.444.063c-.159.007-.323.01-.49.01h-.84V225h1.026zm1.657 2.265l.713-.713-.705-.704-.713.713.705.704zm-1.9.009l.713-.713-.705-.709-.713.713.705.709zm.97 1.243l.647-.647-.643-.644-.648.648.643.643zM91.772 225v-.852h-.086a1.73 1.73 0 01-.472-.057.678.678 0 01-.298-.156.362.362 0 01-.115-.224 2.349 2.349 0 01-.015-.276v-2.183a30.346 30.346 0 00-.09-2.291 6.445 6.445 0 00-.067-.544l-.852.157c.026.136.049.31.068.524a25.972 25.972 0 01.076 1.48c.006.27.008.53.008.779.003.255.005.497.005.726v.223l-.005.394a132.117 132.117 0 00-.008.648c0 .07.001.153.004.25s.017.2.041.306c.025.108.063.216.113.326.051.11.124.213.22.31.157.156.347.272.572.347.224.075.496.113.815.113h.087zM81.5 225c.209 0 .422-.01.64-.03.217-.02.424-.053.623-.096.199-.044.38-.1.546-.172.165-.07.3-.157.404-.259.122.16.278.293.47.398.19.106.433.159.726.159l.862-.001.107-.001c.116-.002.238-.005.365-.011.128-.006.253-.015.374-.028.122-.013.222-.031.3-.055.525-.147.89-.455 1.096-.921.087-.2.13-.435.13-.705 0-.353-.076-.768-.23-1.243a5.646 5.646 0 00-.14-.402 12.68 12.68 0 00-.134-.333 5.031 5.031 0 00-.143-.317l-.774.382a11.075 11.075 0 01.378.93c.093.308.147.535.163.683.016.148.024.251.024.309a.85.85 0 01-.06.348.558.558 0 01-.17.208 1.076 1.076 0 01-.261.146 1.73 1.73 0 01-.324.091 4.108 4.108 0 01-.674.068H84.9a.594.594 0 01-.359-.1.71.71 0 01-.215-.252 1.136 1.136 0 01-.109-.33 2.973 2.973 0 01-.039-.34 5.838 5.838 0 00-.028-.346 9.232 9.232 0 00-.046-.35 6.193 6.193 0 00-.134-.66l-.813.23c.063.223.106.422.128.596.022.174.035.342.041.504v.052a.763.763 0 01-.135.465 1.003 1.003 0 01-.402.322c-.17.078-.366.132-.589.161a5.435 5.435 0 01-.7.043h-.387V225h.387zm4.404 2.204l.705-.704-.713-.713-.705.709.713.708zm1.653.009l.704-.709-.713-.708-.705.704.714.713zm-5.71.587l.705-.704-.713-.713-.704.708.713.709zm1.61.009l.704-.709-.713-.709-.705.705.714.713zm-6.348-4.909l.708-.709-.713-.713-.708.709.713.713zm-.179 5.083a4.42 4.42 0 001.016-.113c.32-.076.612-.191.876-.346a2.599 2.599 0 001.157-1.437 3.27 3.27 0 00.145-.635 4.624 4.624 0 00.028-.717c.307.177.657.265 1.048.265h.096v-.852H81.2c-.101 0-.21-.012-.324-.037a1.012 1.012 0 01-.363-.172 2.08 2.08 0 01-.404-.4 4.594 4.594 0 01-.452-.717 4.988 4.988 0 00-.318-.592l-.722.461.007.008.04.064.034.057c.05.085.11.202.176.352.067.149.134.324.202.526a4.134 4.134 0 01.215 1.324v.052a2.708 2.708 0 01-.126.752 1.681 1.681 0 01-.76.954 2.305 2.305 0 01-.657.255c-.25.058-.528.087-.835.087-.246 0-.466-.027-.659-.08a2.06 2.06 0 01-.504-.21 1.698 1.698 0 01-.367-.289 1.893 1.893 0 01-.253-.328 1.564 1.564 0 01-.15-.324 1.818 1.818 0 01-.093-.639 3.998 3.998 0 01.063-.657c.03-.167.069-.33.115-.484.047-.155.095-.298.146-.428.05-.13.1-.245.15-.342a1.75 1.75 0 01.13-.224l-.691-.508a6.18 6.18 0 00-.341.658c-.109.242-.2.498-.274.768-.074.27-.12.503-.137.702a3.839 3.839 0 00.013 1.007c.058.38.17.71.337.99.166.282.376.515.628.699.252.184.54.321.863.413.323.091.67.137 1.041.137z"/><path fill="#000000" fill-opacity=".32" d="M262 179a1 1 0 11-.968 1.25H157v-.5h104.031A1 1 0 01262 179zm0 41a1 1 0 11-.968 1.25H157v-.5h104.031A1 1 0 01262 220z"/></g></svg>