<svg xmlns="http://www.w3.org/2000/svg" width="422" height="360"><g fill="none" fill-rule="evenodd"><rect width="422" height="360" rx="4"/><path fill="#000000" fill-opacity=".56" fill-rule="nonzero" d="M370.47 110.996c.173 0 .348-.013.523-.04a2.67 2.67 0 00.507-.126c.162-.058.314-.132.454-.223.14-.092.263-.201.368-.329a1.053 1.053 0 00.226-.46c.023-.102.035-.218.037-.348a2.009 2.009 0 00-.05-.44 3.16 3.16 0 00-.198-.567 4.6 4.6 0 00-.317-.583 5.757 5.757 0 00-.88-1.067 4.974 4.974 0 00-.507-.422 3.05 3.05 0 00-.516-.304l-.352.791c.13.058.264.136.4.235.136.099.27.212.402.34a5.166 5.166 0 01.713.862c.1.155.186.31.257.465.071.156.122.304.154.446.023.104.035.194.035.27 0 .104-.022.182-.065.234a.902.902 0 01-.365.266 1.4 1.4 0 01-.392.102 2.498 2.498 0 01-.6-.007 3.695 3.695 0 01-1.013-.276 2.643 2.643 0 01-.387-.202l-.356.817c.072.067.187.134.343.2a5.268 5.268 0 001.085.315c.19.034.354.05.494.05zm-5.766 3.117a7.53 7.53 0 00.72-.402c.236-.15.46-.312.674-.49.213-.176.41-.364.591-.564.181-.2.338-.41.47-.63.132-.221.234-.45.308-.686a2.44 2.44 0 00.08-1.124 6.217 6.217 0 00-.075-.406c-.03-.138-.064-.277-.1-.418l-.107-.42a6.466 6.466 0 00-.108-.397 46.72 46.72 0 01-.122-.402l-.826.26a23.345 23.345 0 01.417 1.47c.03.125.053.247.072.366.019.118.028.231.028.339 0 .28-.068.553-.204.817a3.221 3.221 0 01-.542.748c-.224.235-.48.451-.767.65a7.08 7.08 0 01-.887.524l.378.765zm-5.86-3.113c.437 0 .87-.04 1.3-.122a10.37 10.37 0 001.245-.315c.402-.129.786-.273 1.152-.433.367-.159.71-.318 1.029-.478.217-.107.426-.21.626-.306.2-.097.401-.188.604-.272l-.165-.826c-.18 0-.358-.019-.535-.057a4.276 4.276 0 01-.53-.15 7.031 7.031 0 01-.529-.21 24.5 24.5 0 01-.52-.24 61.09 61.09 0 00-.464-.213 6.33 6.33 0 00-.453-.185 3.523 3.523 0 00-.437-.128 1.95 1.95 0 00-.424-.048c-.28 0-.548.069-.802.205-.253.136-.493.34-.72.613a2.95 2.95 0 00-.206.274c-.06.09-.11.17-.152.239a2.214 2.214 0 00-.133.248l.783.352c0-.003.014-.031.041-.085.028-.054.068-.12.12-.2.052-.08.114-.165.187-.256.072-.092.154-.177.246-.257.09-.08.19-.146.297-.198a.766.766 0 01.34-.078c.09 0 .188.014.295.041.107.028.221.065.341.111.12.046.245.1.374.159.13.06.262.12.398.185.177.084.357.166.54.247.182.082.373.157.573.226-.33.166-.674.327-1.03.483-.357.157-.722.296-1.096.417-.374.122-.753.22-1.139.294a6.13 6.13 0 01-1.157.11h-.943V111h.943zm2.643 2.257l.709-.71-.713-.712-.71.708.714.714zm-5.872-3.71h-.028c-.101 0-.201-.005-.3-.017a1.351 1.351 0 01-.32-.067.591.591 0 01-.23-.141.316.316 0 01-.09-.23c0-.093.025-.183.075-.268.049-.086.114-.166.193-.241.08-.076.17-.145.27-.21a4.988 4.988 0 01.602-.32l.248-.105c.046.37.087.678.124.922.036.243.071.449.106.617a3.41 3.41 0 01-.276.04 3.26 3.26 0 01-.402.02h.028zm.255-3.125l.015.158.05.485a7.085 7.085 0 00-.287.111c-.11.045-.227.1-.35.165-.123.066-.25.14-.383.226-.132.086-.26.183-.382.292-.124.108-.24.23-.348.367a2.355 2.355 0 00-.28.448.979.979 0 00-.062.213c-.014.081-.021.16-.021.24v.077c.003.108.02.218.054.33.033.114.09.218.172.314.293.362.813.543 1.56.543.143 0 .291-.006.446-.02.155-.012.324-.033.507-.062.153.246.345.423.574.53.15.07.302.114.454.133.152.019.283.028.394.028h.087v-.852h-.087c-.203 0-.363-.028-.479-.085a.61.61 0 01-.278-.32.871.871 0 01-.039-.115 2.226 2.226 0 01-.03-.12l-.04-.182a13.761 13.761 0 01-.1-.57 28.423 28.423 0 01-.21-1.71 810.127 810.127 0 00-.085-.807l-.001.005-.851.178zm-.918-.63l.987-.549 1.052-.617-.256-.339-.605.326a.374.374 0 01-.182.048h-.018a.559.559 0 01-.206-.048.69.69 0 01-.311-.278.337.337 0 01-.043-.14v-.065a.475.475 0 01.132-.33.484.484 0 01.305-.154 1.143 1.143 0 01.302.007c.058.008.134.022.23.043l.122-.4-.165-.04a1.897 1.897 0 00-.166-.03 1.352 1.352 0 00-.19-.013c-.154 0-.297.028-.427.083a.902.902 0 00-.42.337.917.917 0 00-.158.502c0 .11.02.217.06.322.05.113.12.215.21.308s.195.164.317.213l-.779.435.21.378zm-5.4 5.247c.04-.481.065-.935.072-1.36a63.12 63.12 0 00-.002-2.379 39.74 39.74 0 00-.222-3.165l-.852.13c.098.913.177 2.073.235 3.478.008.241.013.496.013.766 0 .223-.003.456-.009.7-.015.539-.045 1.133-.091 1.782l.856.048zm-4.365-.026c.101 0 .213-.004.335-.013a3.403 3.403 0 00.708-.128c.11-.034.206-.075.287-.124.305-.162.532-.366.68-.611.15-.245.225-.51.225-.798 0-.382-.134-.76-.4-1.13a1.83 1.83 0 00-.379-.366 4.996 4.996 0 00-.563-.36 11.842 11.842 0 00-.695-.357 31.34 31.34 0 00-.78-.356l-1.514-.622-.413.782.344.135a1.56 1.56 0 00-.448.32 1.978 1.978 0 00-.311.417 1.942 1.942 0 00-.241.924c0 .212.054.431.163.659.108.227.272.458.489.693a6.678 6.678 0 01-.552.052c-.108.006-.227.01-.359.013-.132.003-.285.005-.459.005h-.117V111h.117a16.217 16.217 0 001.287-.054c.212-.02.414-.045.607-.076a4.15 4.15 0 00.52-.118c.246.099.489.167.728.205.239.037.486.056.741.056zm-1.513-1.191a2.957 2.957 0 01-.313-.237 1.833 1.833 0 01-.259-.274 1.299 1.299 0 01-.176-.311.939.939 0 01-.065-.348c0-.13.027-.266.082-.409.056-.142.132-.27.229-.382a.953.953 0 01.31-.248.733.733 0 01.314-.078.78.78 0 01.16.017.645.645 0 01.481.376c.042.089.07.181.083.279.013.097.02.189.02.276a1.495 1.495 0 01-.48 1.087 1.405 1.405 0 01-.386.252zm1.43.356a2.235 2.235 0 01-.4-.03c.11-.116.21-.244.3-.383s.166-.28.229-.424c.062-.143.11-.286.145-.428a1.67 1.67 0 00.052-.396c0-.087-.001-.18-.004-.278a1.261 1.261 0 00-.052-.313c.206.096.385.202.539.317.154.116.282.235.385.355.103.12.18.24.232.359a.827.827 0 01.079.33.762.762 0 01-.08.341.745.745 0 01-.262.285c-.12.081-.276.146-.467.194a2.908 2.908 0 01-.696.071zm-8.952.822a1.96 1.96 0 001.165-.352c.169-.116.29-.234.366-.352.542.38 1.103.605 1.682.678.05.006.097.009.144.009.298 0 .552-.138.76-.413.11.144.25.252.416.323.166.071.357.107.572.107h.104v-.852h-.104a.585.585 0 01-.448-.2.67.67 0 01-.122-.213.838.838 0 01-.048-.257 3.658 3.658 0 00-.05-.474 2.548 2.548 0 00-.335-.897 1.587 1.587 0 00-.293-.355 1.272 1.272 0 00-.865-.326c-.255 0-.474.067-.655.202-.18.135-.334.31-.458.524l-.033.055c-.013.021-.034.06-.063.117l-.122.243c-.052.106-.123.247-.213.424-.11.212-.216.387-.317.526-.313.418-.673.628-1.078.63h-.092V111h.087zm3.257-.865a.878.878 0 01-.144-.013 2.165 2.165 0 01-.48-.17 4.46 4.46 0 01-.594-.348l.024-.047.057-.116.12-.243.208-.428c.177-.325.342-.487.496-.487.13 0 .243.036.339.108a.864.864 0 01.237.28c.062.115.11.243.143.386.034.142.053.282.059.421v.07c0 .078-.007.15-.022.213a.624.624 0 01-.091.209c-.075.11-.193.165-.352.165zm-6.4.865c.272 0 .51-.01.71-.033.202-.021.378-.055.529-.1a1.624 1.624 0 00.695-.406c.125.16.285.289.479.389.194.1.437.15.73.15h.087v-.852h-.087a.614.614 0 01-.363-.1.713.713 0 01-.222-.252 1.19 1.19 0 01-.115-.33 3.07 3.07 0 01-.048-.34 13.335 13.335 0 00-.078-.752 4.084 4.084 0 00-.126-.591l-.817.23c.063.22.108.416.132.587.025.171.037.34.037.504 0 .174-.029.326-.087.457a.785.785 0 01-.272.326 1.32 1.32 0 01-.478.196 3.304 3.304 0 01-.706.065h-.648V111h.648zm.16 2.126l.705-.704-.713-.713-.704.708.713.71zm1.783.009l.705-.709-.714-.709-.704.705.713.713zm-8.63-5.705l.704-.704-.713-.713-.704.709.713.708zm1.782.01l.705-.71-.713-.708-.705.704.713.713zm-1.26 3.573c1.649 0 2.856-.4 3.621-1.2.064.177.154.335.27.474.362.467.92.704 1.674.713h.121v-.852h-.108c-.473-.003-.81-.134-1.013-.391a.87.87 0 01-.183-.366 2.16 2.16 0 01-.056-.391v-.035a3.622 3.622 0 01.098-.633 6.75 6.75 0 01.05-.193l-.827-.226c-.037.13-.08.264-.128.4a3.268 3.268 0 01-.174.404c-.068.134-.15.263-.246.387-.095.125-.21.24-.343.344-.299.243-.672.42-1.122.532-.449.112-.994.168-1.635.168-.715-.003-1.297-.078-1.745-.226-.448-.148-.759-.371-.933-.67a1.055 1.055 0 01-.139-.359 1.892 1.892 0 01.028-.802c.03-.119.062-.223.094-.313s.06-.162.087-.217c.026-.055.039-.084.039-.087l-.752-.413c-.015.02-.056.11-.124.272-.068.16-.139.379-.211.654-.035.13-.057.25-.065.359a2.891 2.891 0 00-.004.493c.011.15.04.302.084.452.045.151.11.297.194.44.26.44.68.762 1.258.967.579.204 1.308.31 2.19.315zm-9.996-.013c.238 0 .459-.016.663-.048.204-.032.389-.087.554-.165a1.49 1.49 0 00.437-.313c.126-.13.233-.294.32-.491.087-.2.13-.432.13-.696a2.23 2.23 0 00-.004-.14 4.855 4.855 0 00-.226-1.112 5.646 5.646 0 00-.14-.402 8.789 8.789 0 00-.239-.561 1.07 1.07 0 01-.039-.09l-.774.383.379.93a2.828 2.828 0 01.195.742 1.385 1.385 0 01-.004.367.778.778 0 01-.587.67 1.636 1.636 0 01-.387.063c-.142.007-.297.01-.465.01h-.504V111h.69zm.713 2.265l.709-.708-.713-.714-.71.71.714.712zM316.33 111v-.852h-.088c-.182 0-.34-.019-.471-.057a.678.678 0 01-.298-.156.362.362 0 01-.115-.224 2.349 2.349 0 01-.016-.276v-2.183a30.345 30.345 0 00-.089-2.291 6.445 6.445 0 00-.067-.544l-.852.157c.026.136.048.31.067.524.019.213.035.445.048.698a36.238 36.238 0 01.037 1.56 64.04 64.04 0 010 1.344 132.12 132.12 0 00-.008.579v.143c0 .052.002.111.004.176.003.097.016.2.04.306.026.108.063.216.114.326.05.11.124.213.22.31.156.156.347.272.571.347.225.075.497.113.815.113h.087zm-6.414.343a4.639 4.639 0 00.97-.1c.307-.072.59-.17.848-.295.258-.125.482-.274.674-.448.124-.113.235-.253.332-.42.097-.166.179-.344.244-.532a3.104 3.104 0 00.176-.97c0-.049-.002-.098-.004-.148a32.4 32.4 0 00-.077-.971 53.722 53.722 0 00-.284-2.461 26.94 26.94 0 00-.092-.633l-.852.083.448 4.043a1.48 1.48 0 01-.03.435 2.289 2.289 0 01-.163.457 2.054 2.054 0 01-.261.41 1.402 1.402 0 01-.333.303 8.771 8.771 0 00-.478-1.494 16.021 16.021 0 00-.857-1.737 19.756 19.756 0 00-1.002-1.622 1.803 1.803 0 01-.098-.147l-.708.495.09.129c.059.082.136.197.231.343.096.146.205.319.329.517.123.199.25.416.382.653.132.236.265.485.4.747.135.263.261.53.378.803.118.272.221.545.311.82.09.273.158.539.205.797a3.17 3.17 0 01-.796.087c-.171 0-.329-.015-.474-.044l-.148.848c.212.035.425.052.64.052zM370.47 182.996c.173 0 .348-.013.523-.04a2.67 2.67 0 00.507-.126c.162-.058.314-.132.454-.223.14-.092.263-.201.368-.329a1.053 1.053 0 00.226-.46c.023-.102.035-.218.037-.348a2.009 2.009 0 00-.05-.44 3.16 3.16 0 00-.198-.567 4.6 4.6 0 00-.317-.583 5.757 5.757 0 00-.88-1.067 4.974 4.974 0 00-.507-.422 3.05 3.05 0 00-.516-.304l-.352.791c.13.058.264.136.4.235.136.099.27.212.402.34a5.166 5.166 0 01.713.862c.1.155.186.31.257.465.071.156.122.304.154.446.023.104.035.194.035.27 0 .104-.022.182-.065.234a.902.902 0 01-.365.266 1.4 1.4 0 01-.392.102 2.498 2.498 0 01-.6-.007 3.695 3.695 0 01-1.013-.276 2.643 2.643 0 01-.387-.202l-.356.817c.072.067.187.134.343.2a5.268 5.268 0 001.085.315c.19.034.354.05.494.05zm-5.766 3.117a7.53 7.53 0 00.72-.402c.236-.15.46-.312.674-.49.213-.176.41-.364.591-.564.181-.2.338-.41.47-.63.132-.221.234-.45.308-.686a2.44 2.44 0 00.08-1.124 6.217 6.217 0 00-.075-.406c-.03-.138-.064-.277-.1-.418l-.107-.42a6.466 6.466 0 00-.108-.397 46.72 46.72 0 01-.122-.402l-.826.26a23.345 23.345 0 01.417 1.47c.03.125.053.247.072.366.019.118.028.231.028.339 0 .28-.068.553-.204.817a3.221 3.221 0 01-.542.748c-.224.235-.48.451-.767.65a7.08 7.08 0 01-.887.524l.378.765zm-5.86-3.113c.437 0 .87-.04 1.3-.122a10.37 10.37 0 001.245-.315c.402-.129.786-.273 1.152-.433.367-.159.71-.318 1.029-.478.217-.107.426-.21.626-.306.2-.097.401-.188.604-.272l-.165-.826c-.18 0-.358-.019-.535-.057a4.276 4.276 0 01-.53-.15 7.031 7.031 0 01-.529-.21 24.5 24.5 0 01-.52-.24 61.09 61.09 0 00-.464-.213 6.33 6.33 0 00-.453-.185 3.523 3.523 0 00-.437-.128 1.95 1.95 0 00-.424-.048c-.28 0-.548.069-.802.205-.253.136-.493.34-.72.613a2.95 2.95 0 00-.206.274c-.06.09-.11.17-.152.239a2.214 2.214 0 00-.133.248l.783.352c0-.003.014-.031.041-.085.028-.054.068-.12.12-.2.052-.08.114-.165.187-.256.072-.092.154-.177.246-.257.09-.08.19-.146.297-.198a.766.766 0 01.34-.078c.09 0 .188.014.295.041.107.028.221.065.341.111.12.046.245.1.374.159.13.06.262.12.398.185.177.084.357.166.54.247.182.082.373.157.573.226-.33.166-.674.327-1.03.483-.357.157-.722.296-1.096.417-.374.122-.753.22-1.139.294a6.13 6.13 0 01-1.157.11h-.943V183h.943zm2.643 2.257l.709-.71-.713-.712-.71.708.714.714zm-5.872-3.71h-.028c-.101 0-.201-.005-.3-.017a1.351 1.351 0 01-.32-.067.591.591 0 01-.23-.141.316.316 0 01-.09-.23c0-.093.025-.183.075-.268.049-.086.114-.166.193-.241.08-.076.17-.145.27-.21a4.988 4.988 0 01.602-.32l.248-.105c.046.37.087.678.124.922.036.243.071.449.106.617a3.41 3.41 0 01-.276.04 3.26 3.26 0 01-.402.02h.028zm.255-3.125l.015.158.05.485a7.085 7.085 0 00-.287.111c-.11.045-.227.1-.35.165-.123.066-.25.14-.383.226-.132.086-.26.183-.382.292-.124.108-.24.23-.348.367a2.355 2.355 0 00-.28.448.979.979 0 00-.062.213c-.014.081-.021.16-.021.24v.077c.003.108.02.218.054.33.033.114.09.218.172.314.293.362.813.543 1.56.543.143 0 .291-.006.446-.02.155-.012.324-.033.507-.062.153.246.345.423.574.53.15.07.302.114.454.133.152.019.283.028.394.028h.087v-.852h-.087c-.203 0-.363-.028-.479-.085a.61.61 0 01-.278-.32.871.871 0 01-.039-.115 2.226 2.226 0 01-.03-.12l-.04-.182a13.761 13.761 0 01-.1-.57 28.423 28.423 0 01-.21-1.71 810.127 810.127 0 00-.085-.807l-.001.005-.851.178zm-.918-.63l.987-.549 1.052-.617-.256-.339-.605.326a.374.374 0 01-.182.048h-.018a.559.559 0 01-.206-.048.69.69 0 01-.311-.278.337.337 0 01-.043-.14v-.065a.475.475 0 01.132-.33.484.484 0 01.305-.154 1.143 1.143 0 01.302.007c.058.008.134.022.23.043l.122-.4-.165-.04a1.897 1.897 0 00-.166-.03 1.352 1.352 0 00-.19-.013c-.154 0-.297.028-.427.083a.902.902 0 00-.42.337.917.917 0 00-.158.502c0 .11.02.217.06.322.05.113.12.215.21.308s.195.164.317.213l-.779.435.21.378zm-5.4 5.247c.04-.481.065-.935.072-1.36a63.12 63.12 0 00-.002-2.379 39.74 39.74 0 00-.222-3.165l-.852.13c.098.913.177 2.073.235 3.478.008.241.013.496.013.766 0 .223-.003.456-.009.7-.015.539-.045 1.133-.091 1.782l.856.048zm-4.365-.026c.101 0 .213-.004.335-.013a3.403 3.403 0 00.708-.128c.11-.034.206-.075.287-.124.305-.162.532-.366.68-.611.15-.245.225-.51.225-.798 0-.382-.134-.76-.4-1.13a1.83 1.83 0 00-.379-.366 4.996 4.996 0 00-.563-.36 11.842 11.842 0 00-.695-.357 31.34 31.34 0 00-.78-.356l-1.514-.622-.413.782.344.135a1.56 1.56 0 00-.448.32 1.978 1.978 0 00-.311.417 1.942 1.942 0 00-.241.924c0 .212.054.431.163.659.108.227.272.458.489.693a6.678 6.678 0 01-.552.052c-.108.006-.227.01-.359.013-.132.003-.285.005-.459.005h-.117V183h.117a16.217 16.217 0 001.287-.054c.212-.02.414-.045.607-.076a4.15 4.15 0 00.52-.118c.246.099.489.167.728.205.239.037.486.056.741.056zm-1.513-1.191a2.957 2.957 0 01-.313-.237 1.833 1.833 0 01-.259-.274 1.299 1.299 0 01-.176-.311.939.939 0 01-.065-.348c0-.13.027-.266.082-.409.056-.142.132-.27.229-.382a.953.953 0 01.31-.248.733.733 0 01.314-.078.78.78 0 01.16.017.645.645 0 01.481.376c.042.089.07.181.083.279.013.097.02.189.02.276a1.495 1.495 0 01-.48 1.087 1.405 1.405 0 01-.386.252zm1.43.356a2.235 2.235 0 01-.4-.03c.11-.116.21-.244.3-.383s.166-.28.229-.424c.062-.143.11-.286.145-.428a1.67 1.67 0 00.052-.396c0-.087-.001-.18-.004-.278a1.261 1.261 0 00-.052-.313c.206.096.385.202.539.317.154.116.282.235.385.355.103.12.18.24.232.359a.827.827 0 01.079.33.762.762 0 01-.08.341.745.745 0 01-.262.285c-.12.081-.276.146-.467.194a2.908 2.908 0 01-.696.071zm-8.952.822a1.96 1.96 0 001.165-.352c.169-.116.29-.234.366-.352.542.38 1.103.605 1.682.678.05.006.097.009.144.009.298 0 .552-.138.76-.413.11.144.25.252.416.323.166.071.357.107.572.107h.104v-.852h-.104a.585.585 0 01-.448-.2.67.67 0 01-.122-.213.838.838 0 01-.048-.257 3.658 3.658 0 00-.05-.474 2.548 2.548 0 00-.335-.897 1.587 1.587 0 00-.293-.355 1.272 1.272 0 00-.865-.326c-.255 0-.474.067-.655.202-.18.135-.334.31-.458.524l-.033.055c-.013.021-.034.06-.063.117l-.122.243c-.052.106-.123.247-.213.424-.11.212-.216.387-.317.526-.313.418-.673.628-1.078.63h-.092V183h.087zm3.257-.865a.878.878 0 01-.144-.013 2.165 2.165 0 01-.48-.17 4.46 4.46 0 01-.594-.348l.024-.047.057-.116.12-.243.208-.428c.177-.325.342-.487.496-.487.13 0 .243.036.339.108a.864.864 0 01.237.28c.062.115.11.243.143.386.034.142.053.282.059.421v.07c0 .078-.007.15-.022.213a.624.624 0 01-.091.209c-.075.11-.193.165-.352.165zm-6.4.865c.272 0 .51-.01.71-.033.202-.021.378-.055.529-.1a1.624 1.624 0 00.695-.406c.125.16.285.289.479.389.194.1.437.15.73.15h.087v-.852h-.087a.614.614 0 01-.363-.1.713.713 0 01-.222-.252 1.19 1.19 0 01-.115-.33 3.07 3.07 0 01-.048-.34 13.335 13.335 0 00-.078-.752 4.084 4.084 0 00-.126-.591l-.817.23c.063.22.108.416.132.587.025.171.037.34.037.504 0 .174-.029.326-.087.457a.785.785 0 01-.272.326 1.32 1.32 0 01-.478.196 3.304 3.304 0 01-.706.065h-.648V183h.648zm.16 2.126l.705-.704-.713-.713-.704.708.713.71zm1.783.009l.705-.709-.714-.709-.704.705.713.713zm-8.63-5.705l.704-.704-.713-.713-.704.709.713.708zm1.782.01l.705-.71-.713-.708-.705.704.713.713zm-1.26 3.573c1.649 0 2.856-.4 3.621-1.2.064.177.154.335.27.474.362.467.92.704 1.674.713h.121v-.852h-.108c-.473-.003-.81-.134-1.013-.391a.87.87 0 01-.183-.366 2.16 2.16 0 01-.056-.391v-.035a3.622 3.622 0 01.098-.633 6.75 6.75 0 01.05-.193l-.827-.226c-.037.13-.08.264-.128.4a3.268 3.268 0 01-.174.404c-.068.134-.15.263-.246.387-.095.125-.21.24-.343.344-.299.243-.672.42-1.122.532-.449.112-.994.168-1.635.168-.715-.003-1.297-.078-1.745-.226-.448-.148-.759-.371-.933-.67a1.055 1.055 0 01-.139-.359 1.892 1.892 0 01.028-.802c.03-.119.062-.223.094-.313s.06-.162.087-.217c.026-.055.039-.084.039-.087l-.752-.413c-.015.02-.056.11-.124.272-.068.16-.139.379-.211.654-.035.13-.057.25-.065.359a2.891 2.891 0 00-.004.493c.011.15.04.302.084.452.045.151.11.297.194.44.26.44.68.762 1.258.967.579.204 1.308.31 2.19.315zM314.286 183c.177 0 .343-.009.5-.026.156-.017.304-.05.443-.1.14-.05.27-.12.394-.213.123-.093.241-.216.354-.37.134.099.279.195.435.29.157.094.32.173.49.239a1.878 1.878 0 00.701.14c.12 0 .238-.015.357-.047.188-.052.348-.146.478-.28.13-.135.233-.293.309-.474a1.87 1.87 0 00.139-.498c.017-.15.026-.273.026-.365a2.09 2.09 0 00-.022-.305 2.63 2.63 0 00-.154-.574 1.79 1.79 0 00-.298-.504 1.47 1.47 0 00-.45-.359 1.295 1.295 0 00-.606-.137c-.192 0-.36.039-.503.116a1.413 1.413 0 00-.382.3 2.292 2.292 0 00-.3.421 8.885 8.885 0 00-.25.48c-.09.18-.18.355-.268.525-.088.17-.192.32-.313.452-.12.132-.266.238-.437.317-.17.08-.385.12-.643.12h-.087V183h.087zm3.304-.904c-.116 0-.246-.03-.391-.087a3.355 3.355 0 01-.722-.422l.235-.474c.073-.142.137-.265.194-.37.056-.104.11-.19.16-.26a.616.616 0 01.153-.155.292.292 0 01.163-.05c.087 0 .163.018.23.052a.63.63 0 01.174.133c.05.054.091.113.126.178a1.415 1.415 0 01.135.355 1.39 1.39 0 01.039.33 1.302 1.302 0 01-.08.44.74.74 0 01-.12.212.278.278 0 01-.144.1.627.627 0 01-.152.018zm-5.956-3.213l.704-.705-.713-.713-.704.709.713.709zm1.782.008l.705-.708-.713-.71-.705.705.713.713zM311.143 183c.273 0 .51-.01.711-.033.202-.021.378-.055.529-.1a1.624 1.624 0 00.695-.406c.125.16.284.289.479.389.194.1.437.15.73.15h.087v-.852h-.087a.614.614 0 01-.363-.1.713.713 0 01-.222-.252 1.19 1.19 0 01-.115-.33 3.07 3.07 0 01-.048-.34 13.335 13.335 0 00-.078-.752 4.084 4.084 0 00-.126-.591l-.818.23c.064.22.108.416.133.587.025.171.037.34.037.504 0 .174-.029.326-.087.457a.785.785 0 01-.272.326 1.32 1.32 0 01-.478.196 3.304 3.304 0 01-.707.065h-.647V183h.647zm-4.556 3.052a5.328 5.328 0 001.228-.348 4.494 4.494 0 001.078-.634c.324-.258.599-.56.827-.907.227-.346.384-.734.471-1.163h.479v-.852h-.413a4.035 4.035 0 00-.235-1.263 3.339 3.339 0 00-.252-.55 2.747 2.747 0 00-.33-.461c-.346-.371-.724-.557-1.136-.557-.185 0-.364.047-.537.142a1.632 1.632 0 00-.48.415 2.418 2.418 0 00-.317.559c-.09.216-.148.408-.172.578-.025.17-.037.31-.037.42 0 .115.01.231.03.347.035.22.12.415.252.583.302.374.767.58 1.396.617.16.015.302.022.428.022h.494a1.662 1.662 0 01-.268.663 2.718 2.718 0 01-.597.637 4.3 4.3 0 01-.909.54 5.61 5.61 0 01-1.2.373l.2.84zm2.317-3.913c-.127 0-.263-.004-.408-.013a2.191 2.191 0 01-.185-.02 1.545 1.545 0 01-.218-.047 1.022 1.022 0 01-.208-.087.512.512 0 01-.163-.142.407.407 0 01-.09-.206 1.521 1.521 0 01-.015-.194 1.975 1.975 0 01.246-.909.984.984 0 01.202-.25.36.36 0 01.24-.097c.052 0 .1.009.147.026.047.017.09.04.133.067a.908.908 0 01.117.092c.036.033.069.064.098.093a2.1 2.1 0 01.21.298c.069.114.13.243.186.385.055.142.1.295.134.46.035.166.057.341.066.527a5.083 5.083 0 01-.492.017zm-4.991.913c.27 0 .506-.038.709-.113.208-.075.382-.184.521-.326.14-.142.244-.314.314-.515.07-.202.104-.427.104-.676 0-.165-.015-.335-.046-.509a4.81 4.81 0 00-.117-.509 7.65 7.65 0 00-.49-1.262l-.047-.094-.761.4a7.67 7.67 0 01.367.889c.063.184.116.372.161.563.045.191.068.37.068.535 0 .127-.015.242-.044.343a.581.581 0 01-.141.252.477.477 0 01-.222.133.978.978 0 01-.25.033c-.05 0-.101-.003-.156-.009a.406.406 0 01-.22-.085.53.53 0 01-.143-.182.92.92 0 01-.079-.257 1.891 1.891 0 01-.024-.306c0-.12.01-.255.026-.407.018-.152.037-.296.06-.43.02-.135.04-.25.058-.346l.022-.14-.835-.151a10.4 10.4 0 01-.072.42c-.03.16-.07.326-.117.497-.048.171-.106.34-.174.504a2.297 2.297 0 01-.24.444c-.09.13-.195.236-.312.317a.683.683 0 01-.398.122.46.46 0 01-.23-.052.389.389 0 01-.144-.14.609.609 0 01-.074-.197 1.184 1.184 0 01-.022-.228c0-.113.012-.236.035-.368.023-.132.05-.26.083-.387a7.98 7.98 0 01.182-.624l-.86-.182a9.71 9.71 0 01-.105.452c-.04.16-.09.318-.148.476-.058.158-.126.31-.204.454-.078.145-.17.273-.276.385a1.295 1.295 0 01-.363.27c-.137.068-.29.102-.461.102h-.096V183h.091c.169 0 .323-.014.464-.041a1.69 1.69 0 00.707-.309c.098-.074.19-.157.277-.25a.853.853 0 00.198.283c.086.08.18.149.285.204a1.42 1.42 0 001.36-.013c.221-.119.418-.28.592-.483.061.093.135.18.222.259.087.08.181.15.282.209.102.06.208.106.32.141.112.035.222.052.333.052h.03zm-4.991-.052l.004-.852h-1.674c.044-.035.087-.071.13-.109a2.21 2.21 0 00.37-.413 2.242 2.242 0 00.346-.789 1.886 1.886 0 00.037-.502 1.219 1.219 0 00-.202-.648 1.592 1.592 0 00-.479-.465 1.639 1.639 0 00-.558-.235 2.454 2.454 0 00-.453-.052c-.113 0-.224.01-.334.03a3.223 3.223 0 00-.979.363 5.084 5.084 0 00-1.026.776 80.107 80.107 0 01-.026-.906 8.144 8.144 0 00-.024-.426l-.028-.39a13.426 13.426 0 00-.037-.421l-.048-.478a37.703 37.703 0 00-.098-.896l-.034-.296-.013-.113-.853.157.024.172c.016.111.036.265.06.46a33.967 33.967 0 01.147 1.568c.02.287.035.538.046.754.01.216.014.42.013.613-.002.193-.011.388-.029.585-.017.197-.043.42-.078.67-.26.339-.452.597-.574.773a9.377 9.377 0 01-1.122-.36l-.313.804c.244.093.487.177.73.254.244.077.5.143.768.198.268.055.552.098.85.128.299.03.625.046.978.046.227 0 .467-.01.722-.033.255-.021.52-.07.792-.145a6.672 6.672 0 00.543.093c.154.022.327.042.52.059.192.017.39.026.593.026h1.309zm-4.47-.857h-.048c-.31 0-.608-.015-.895-.047l.656-.83c.392-.436.761-.774 1.109-1.016s.67-.386.965-.433a1.925 1.925 0 01.326-.004c.113.012.22.04.318.083a.769.769 0 01.256.182.597.597 0 01.152.413.731.731 0 01-.013.135 1.338 1.338 0 01-.213.49 1.48 1.48 0 01-.16.193c-.21.214-.45.38-.722.5a3.761 3.761 0 01-.85.256 5.033 5.033 0 01-.88.078zM370.47 251.996c.173 0 .348-.013.523-.04a2.67 2.67 0 00.507-.126c.162-.058.314-.132.454-.223.14-.092.263-.201.368-.329a1.053 1.053 0 00.226-.46c.023-.102.035-.218.037-.348a2.009 2.009 0 00-.05-.44 3.16 3.16 0 00-.198-.567 4.6 4.6 0 00-.317-.583 5.757 5.757 0 00-.88-1.067 4.974 4.974 0 00-.507-.422 3.05 3.05 0 00-.516-.304l-.352.791c.13.058.264.136.4.235.136.099.27.212.402.34a5.166 5.166 0 01.713.862c.1.155.186.31.257.465.071.156.122.304.154.446.023.104.035.194.035.27 0 .104-.022.182-.065.234a.902.902 0 01-.365.266 1.4 1.4 0 01-.392.102 2.498 2.498 0 01-.6-.007 3.695 3.695 0 01-1.013-.276 2.643 2.643 0 01-.387-.202l-.356.817c.072.067.187.134.343.2a5.268 5.268 0 001.085.315c.19.034.354.05.494.05zm-5.766 3.117a7.53 7.53 0 00.72-.402c.236-.15.46-.312.674-.49.213-.176.41-.364.591-.564.181-.2.338-.41.47-.63.132-.221.234-.45.308-.686a2.44 2.44 0 00.08-1.124 6.217 6.217 0 00-.075-.406c-.03-.138-.064-.277-.1-.418l-.107-.42a6.466 6.466 0 00-.108-.397 46.72 46.72 0 01-.122-.402l-.826.26a23.345 23.345 0 01.417 1.47c.03.125.053.247.072.366.019.118.028.231.028.339 0 .28-.068.553-.204.817a3.221 3.221 0 01-.542.748c-.224.235-.48.451-.767.65a7.08 7.08 0 01-.887.524l.378.765zm-5.86-3.113c.437 0 .87-.04 1.3-.122a10.37 10.37 0 001.245-.315c.402-.129.786-.273 1.152-.433.367-.159.71-.318 1.029-.478.217-.107.426-.21.626-.306.2-.097.401-.188.604-.272l-.165-.826c-.18 0-.358-.019-.535-.057a4.276 4.276 0 01-.53-.15 7.031 7.031 0 01-.529-.21 24.5 24.5 0 01-.52-.24 61.09 61.09 0 00-.464-.213 6.33 6.33 0 00-.453-.185 3.523 3.523 0 00-.437-.128 1.95 1.95 0 00-.424-.048c-.28 0-.548.069-.802.205-.253.136-.493.34-.72.613a2.95 2.95 0 00-.206.274c-.06.09-.11.17-.152.239a2.214 2.214 0 00-.133.248l.783.352c0-.003.014-.031.041-.085.028-.054.068-.12.12-.2.052-.08.114-.165.187-.256.072-.092.154-.177.246-.257.09-.08.19-.146.297-.198a.766.766 0 01.34-.078c.09 0 .188.014.295.041.107.028.221.065.341.111.12.046.245.1.374.159.13.06.262.12.398.185.177.084.357.166.54.247.182.082.373.157.573.226-.33.166-.674.327-1.03.483-.357.157-.722.296-1.096.417-.374.122-.753.22-1.139.294a6.13 6.13 0 01-1.157.11h-.943V252h.943zm2.643 2.257l.709-.71-.713-.712-.71.708.714.714zm-5.872-3.71h-.028c-.101 0-.201-.005-.3-.017a1.351 1.351 0 01-.32-.067.591.591 0 01-.23-.141.316.316 0 01-.09-.23c0-.093.025-.183.075-.268.049-.086.114-.166.193-.241.08-.076.17-.145.27-.21a4.988 4.988 0 01.602-.32l.248-.105c.046.37.087.678.124.922.036.243.071.449.106.617a3.41 3.41 0 01-.276.04 3.26 3.26 0 01-.402.02h.028zm.255-3.125l.015.158.05.485a7.085 7.085 0 00-.287.111c-.11.045-.227.1-.35.165-.123.066-.25.14-.383.226-.132.086-.26.183-.382.292-.124.108-.24.23-.348.367a2.355 2.355 0 00-.28.448.979.979 0 00-.062.213c-.014.081-.021.16-.021.24v.077c.003.108.02.218.054.33.033.114.09.218.172.314.293.362.813.543 1.56.543.143 0 .291-.006.446-.02.155-.012.324-.033.507-.062.153.246.345.423.574.53.15.07.302.114.454.133.152.019.283.028.394.028h.087v-.852h-.087c-.203 0-.363-.028-.479-.085a.61.61 0 01-.278-.32.871.871 0 01-.039-.115 2.226 2.226 0 01-.03-.12l-.04-.182a13.761 13.761 0 01-.1-.57 28.423 28.423 0 01-.21-1.71 810.127 810.127 0 00-.085-.807l-.001.005-.851.178zm-.918-.63l.987-.549 1.052-.617-.256-.339-.605.326a.374.374 0 01-.182.048h-.018a.559.559 0 01-.206-.048.69.69 0 01-.311-.278.337.337 0 01-.043-.14v-.065a.475.475 0 01.132-.33.484.484 0 01.305-.154 1.143 1.143 0 01.302.007c.058.008.134.022.23.043l.122-.4-.165-.04a1.897 1.897 0 00-.166-.03 1.352 1.352 0 00-.19-.013c-.154 0-.297.028-.427.083a.902.902 0 00-.42.337.917.917 0 00-.158.502c0 .11.02.217.06.322.05.113.12.215.21.308s.195.164.317.213l-.779.435.21.378zm-5.4 5.247c.04-.481.065-.935.072-1.36a63.12 63.12 0 00-.002-2.379 39.74 39.74 0 00-.222-3.165l-.852.13c.098.913.177 2.073.235 3.478.008.241.013.496.013.766 0 .223-.003.456-.009.7-.015.539-.045 1.133-.091 1.782l.856.048zm-4.365-.026c.101 0 .213-.004.335-.013a3.403 3.403 0 00.708-.128c.11-.034.206-.075.287-.124.305-.162.532-.366.68-.611.15-.245.225-.51.225-.798 0-.382-.134-.76-.4-1.13a1.83 1.83 0 00-.379-.366 4.996 4.996 0 00-.563-.36 11.842 11.842 0 00-.695-.357 31.34 31.34 0 00-.78-.356l-1.514-.622-.413.782.344.135a1.56 1.56 0 00-.448.32 1.978 1.978 0 00-.311.417 1.942 1.942 0 00-.241.924c0 .212.054.431.163.659.108.227.272.458.489.693a6.678 6.678 0 01-.552.052c-.108.006-.227.01-.359.013-.132.003-.285.005-.459.005h-.117V252h.117a16.217 16.217 0 001.287-.054c.212-.02.414-.045.607-.076a4.15 4.15 0 00.52-.118c.246.099.489.167.728.205.239.037.486.056.741.056zm-1.513-1.191a2.957 2.957 0 01-.313-.237 1.833 1.833 0 01-.259-.274 1.299 1.299 0 01-.176-.311.939.939 0 01-.065-.348c0-.13.027-.266.082-.409.056-.142.132-.27.229-.382a.953.953 0 01.31-.248.733.733 0 01.314-.078.78.78 0 01.16.017.645.645 0 01.481.376c.042.089.07.181.083.279.013.097.02.189.02.276a1.495 1.495 0 01-.48 1.087 1.405 1.405 0 01-.386.252zm1.43.356a2.235 2.235 0 01-.4-.03c.11-.116.21-.244.3-.383s.166-.28.229-.424c.062-.143.11-.286.145-.428a1.67 1.67 0 00.052-.396c0-.087-.001-.18-.004-.278a1.261 1.261 0 00-.052-.313c.206.096.385.202.539.317.154.116.282.235.385.355.103.12.18.24.232.359a.827.827 0 01.079.33.762.762 0 01-.08.341.745.745 0 01-.262.285c-.12.081-.276.146-.467.194a2.908 2.908 0 01-.696.071zm-8.952.822a1.96 1.96 0 001.165-.352c.169-.116.29-.234.366-.352.542.38 1.103.605 1.682.678.05.006.097.009.144.009.298 0 .552-.138.76-.413.11.144.25.252.416.323.166.071.357.107.572.107h.104v-.852h-.104a.585.585 0 01-.448-.2.67.67 0 01-.122-.213.838.838 0 01-.048-.257 3.658 3.658 0 00-.05-.474 2.548 2.548 0 00-.335-.897 1.587 1.587 0 00-.293-.355 1.272 1.272 0 00-.865-.326c-.255 0-.474.067-.655.202-.18.135-.334.31-.458.524l-.033.055c-.013.021-.034.06-.063.117l-.122.243c-.052.106-.123.247-.213.424-.11.212-.216.387-.317.526-.313.418-.673.628-1.078.63h-.092V252h.087zm3.257-.865a.878.878 0 01-.144-.013 2.165 2.165 0 01-.48-.17 4.46 4.46 0 01-.594-.348l.024-.047.057-.116.12-.243.208-.428c.177-.325.342-.487.496-.487.13 0 .243.036.339.108a.864.864 0 01.237.28c.062.115.11.243.143.386.034.142.053.282.059.421v.07c0 .078-.007.15-.022.213a.624.624 0 01-.091.209c-.075.11-.193.165-.352.165zm-6.4.865c.272 0 .51-.01.71-.033.202-.021.378-.055.529-.1a1.624 1.624 0 00.695-.406c.125.16.285.289.479.389.194.1.437.15.73.15h.087v-.852h-.087a.614.614 0 01-.363-.1.713.713 0 01-.222-.252 1.19 1.19 0 01-.115-.33 3.07 3.07 0 01-.048-.34 13.335 13.335 0 00-.078-.752 4.084 4.084 0 00-.126-.591l-.817.23c.063.22.108.416.132.587.025.171.037.34.037.504 0 .174-.029.326-.087.457a.785.785 0 01-.272.326 1.32 1.32 0 01-.478.196 3.304 3.304 0 01-.706.065h-.648V252h.648zm.16 2.126l.705-.704-.713-.713-.704.708.713.71zm1.783.009l.705-.709-.714-.709-.704.705.713.713zm-8.63-5.705l.704-.704-.713-.713-.704.709.713.708zm1.782.01l.705-.71-.713-.708-.705.704.713.713zm-1.26 3.573c1.649 0 2.856-.4 3.621-1.2.064.177.154.335.27.474.362.467.92.704 1.674.713h.121v-.852h-.108c-.473-.003-.81-.134-1.013-.391a.87.87 0 01-.183-.366 2.16 2.16 0 01-.056-.391v-.035a3.622 3.622 0 01.098-.633 6.75 6.75 0 01.05-.193l-.827-.226c-.037.13-.08.264-.128.4a3.268 3.268 0 01-.174.404c-.068.134-.15.263-.246.387-.095.125-.21.24-.343.344-.299.243-.672.42-1.122.532-.449.112-.994.168-1.635.168-.715-.003-1.297-.078-1.745-.226-.448-.148-.759-.371-.933-.67a1.055 1.055 0 01-.139-.359 1.892 1.892 0 01.028-.802c.03-.119.062-.223.094-.313s.06-.162.087-.217c.026-.055.039-.084.039-.087l-.752-.413c-.015.02-.056.11-.124.272-.068.16-.139.379-.211.654-.035.13-.057.25-.065.359a2.891 2.891 0 00-.004.493c.011.15.04.302.084.452.045.151.11.297.194.44.26.44.68.762 1.258.967.579.204 1.308.31 2.19.315zM316.625 252c.238 0 .467-.016.69-.048a2.47 2.47 0 00.61-.165c.186-.078.35-.183.494-.313.143-.13.258-.294.345-.491.087-.2.13-.432.13-.696a2.23 2.23 0 00-.004-.14 4.855 4.855 0 00-.226-1.112 5.646 5.646 0 00-.139-.402 8.789 8.789 0 00-.239-.561 1.07 1.07 0 01-.04-.09l-.773.383.378.93a2.828 2.828 0 01.196.742 1.385 1.385 0 01-.004.367.843.843 0 01-.066.23.68.68 0 01-.243.286c-.105.068-.225.12-.361.154a2.195 2.195 0 01-.444.063c-.159.007-.323.01-.49.01h-.84V252h1.026zm1.657 2.265l.713-.713-.705-.704-.713.713.705.704zm-1.9.009l.713-.713-.705-.709-.713.713.705.709zm.97 1.243l.647-.647-.643-.644-.648.648.643.643zm-1.58-3.517v-.852h-.086c-.183 0-.34-.019-.472-.057a.678.678 0 01-.298-.156.362.362 0 01-.115-.224 2.349 2.349 0 01-.015-.276v-2.183a30.346 30.346 0 00-.09-2.291 6.445 6.445 0 00-.067-.544l-.852.157c.026.136.049.31.068.524a25.972 25.972 0 01.076 1.48c.006.27.008.53.008.779.003.255.005.497.005.726v.223l-.005.394a132.114 132.114 0 00-.008.648c0 .07.001.153.004.25s.017.2.041.306c.025.108.063.216.113.326.051.11.124.213.22.31.157.156.347.272.572.347.224.075.496.113.815.113h.087zm-10.273 0c.209 0 .422-.01.64-.03.217-.02.424-.053.623-.096.199-.044.38-.1.546-.172.165-.07.3-.157.404-.259.122.16.278.293.47.398.19.106.433.159.726.159l.862-.001.107-.001c.116-.002.238-.005.365-.011.128-.006.253-.015.374-.028.122-.013.222-.031.3-.055.525-.147.89-.455 1.096-.921.087-.2.13-.435.13-.705 0-.353-.076-.768-.23-1.243a5.646 5.646 0 00-.14-.402 12.68 12.68 0 00-.134-.333 5.03 5.03 0 00-.143-.317l-.774.382a11.074 11.074 0 01.378.93c.093.308.147.535.163.683.016.148.024.251.024.309a.85.85 0 01-.06.348.558.558 0 01-.17.208 1.076 1.076 0 01-.261.146 1.73 1.73 0 01-.324.091 4.108 4.108 0 01-.674.068h-.898a.594.594 0 01-.359-.1.71.71 0 01-.215-.252 1.136 1.136 0 01-.109-.33 2.973 2.973 0 01-.039-.34 5.838 5.838 0 00-.028-.346 9.232 9.232 0 00-.046-.35 6.193 6.193 0 00-.134-.66l-.813.23c.063.223.106.422.128.596.022.174.035.342.041.504v.052a.763.763 0 01-.135.465 1.003 1.003 0 01-.402.322c-.17.078-.366.132-.589.161a5.435 5.435 0 01-.7.043h-.387V252h.387zm4.404 2.204l.705-.704-.713-.713-.705.709.713.708zm1.653.009l.704-.709-.713-.708-.705.704.714.713zm-5.71.587l.705-.704-.713-.713-.704.708.713.709zm1.61.009l.704-.709-.713-.709-.705.705.714.713zm-6.348-4.909l.708-.709-.713-.713-.708.709.713.713zm-.179 5.083a4.42 4.42 0 001.016-.113c.32-.076.612-.191.876-.346a2.599 2.599 0 001.157-1.437 3.27 3.27 0 00.145-.635 4.624 4.624 0 00.028-.717c.307.177.657.265 1.048.265h.096v-.852h-.096c-.101 0-.21-.012-.324-.037a1.012 1.012 0 01-.363-.172 2.08 2.08 0 01-.404-.4 4.594 4.594 0 01-.452-.717 4.988 4.988 0 00-.318-.592l-.722.461.007.008.04.064.034.057c.05.085.11.202.176.352.067.149.134.324.202.526a4.134 4.134 0 01.215 1.324v.052a2.708 2.708 0 01-.126.752 1.681 1.681 0 01-.76.954 2.305 2.305 0 01-.657.255c-.25.058-.528.087-.835.087-.246 0-.466-.027-.659-.08a2.06 2.06 0 01-.504-.21 1.698 1.698 0 01-.367-.289 1.893 1.893 0 01-.253-.328 1.564 1.564 0 01-.15-.324 1.818 1.818 0 01-.093-.639 3.998 3.998 0 01.063-.657c.03-.167.069-.33.115-.484.047-.155.095-.298.146-.428.05-.13.1-.245.15-.342a1.75 1.75 0 01.13-.224l-.691-.508a6.18 6.18 0 00-.341.658c-.109.242-.2.498-.274.768-.074.27-.12.503-.137.702a3.839 3.839 0 00.013 1.007c.058.38.17.71.337.99.166.282.376.515.628.699.252.184.54.321.863.413.323.091.67.137 1.041.137z"/><g fill-rule="nonzero" transform="translate(147 93)"><rect width="82" height="32" fill="#EA475B" rx="16"/><path fill="#FFF" d="M62.951 20l1.449-.012c.641 0 1.211-.015 1.71-.046.5-.03.943-.07 1.33-.122a13.634 13.634 0 001.793-.35l-.146-1.156-.447.091c-.14.029-.282.053-.427.073a12.48 12.48 0 01-1.11.104c-.22 0-.43-.03-.633-.092a1.966 1.966 0 01-.655-.328 1.695 1.695 0 01-.453-.53 1.418 1.418 0 01-.17-.694c0-.186.03-.366.09-.538a1.293 1.293 0 01.718-.78 1.52 1.52 0 01.622-.118c.207 0 .393.021.56.064.166.042.32.101.46.176.14.075.27.162.392.262s.245.206.371.32l.749-.92c-.183-.15-.363-.292-.542-.426a3.698 3.698 0 00-.566-.35 3.08 3.08 0 00-1.424-.32c-.378 0-.726.07-1.044.21a2.6 2.6 0 00-1.382 1.406 2.623 2.623 0 00-.198 1.014c0 .365.06.698.18.999.12.3.328.584.624.852l-1.85.018V20zm-2.355-5.612l.992-.992-.998-.999-.993.993.999.998zM58.886 20c.596 0 1.097-.062 1.503-.186.405-.123.736-.313.992-.569.174.223.398.405.67.545.271.14.612.21 1.022.21h.122v-1.193h-.122a.86.86 0 01-.508-.14.999.999 0 01-.31-.353 1.667 1.667 0 01-.162-.463 4.299 4.299 0 01-.067-.474 18.669 18.669 0 00-.11-1.054 5.718 5.718 0 00-.176-.827l-1.144.322c.089.309.15.583.185.822.035.24.052.475.052.706 0 .483-.154.847-.463 1.093-.308.245-.803.368-1.485.368h-.225V20h.225zm-5.698 4.273a7.459 7.459 0 001.72-.487 6.291 6.291 0 001.509-.889 5.424 5.424 0 001.156-1.269 4.598 4.598 0 00.66-1.628h.67v-1.193h-.578a5.794 5.794 0 00-.329-1.768 4.675 4.675 0 00-.353-.77 3.846 3.846 0 00-.462-.646c-.483-.519-1.013-.779-1.589-.779-.26 0-.51.066-.752.198a2.284 2.284 0 00-.672.581c-.17.22-.319.48-.445.783a3.435 3.435 0 00-.24.81 4.237 4.237 0 00-.052.587c0 .162.015.324.043.487.049.308.166.58.353.815.422.524 1.073.812 1.954.865.223.02.423.03.6.03h.69c-.044.304-.17.614-.374.928a3.805 3.805 0 01-.837.892 6.02 6.02 0 01-1.272.755 7.854 7.854 0 01-1.68.523l.28 1.175zm3.342-5.479h-.098c-.178 0-.37-.005-.572-.017a3.068 3.068 0 01-.259-.028c-.1-.014-.2-.036-.304-.067a1.43 1.43 0 01-.292-.122.716.716 0 01-.228-.197.57.57 0 01-.125-.29 2.13 2.13 0 01-.022-.27 2.765 2.765 0 01.344-1.272c.084-.143.178-.26.283-.35a.505.505 0 01.335-.138c.073 0 .142.013.207.037a.94.94 0 01.186.094c.059.039.113.082.164.128.05.047.097.09.137.131.102.118.2.257.295.417.096.16.182.34.259.539.077.199.14.414.189.645.048.231.079.477.091.736a7.117 7.117 0 01-.59.024zm-5.034 1.26a28.5 28.5 0 00.1-1.904c.01-.597.015-1.074.015-1.43 0-.593-.006-1.226-.018-1.9a55.636 55.636 0 00-.31-4.431l-1.193.182c.138 1.279.247 2.902.328 4.87.012.337.019.694.019 1.071 0 .313-.005.64-.013.98-.02.755-.063 1.587-.127 2.496l1.199.067zM44.24 17.06l.992-.992-.998-.998-.992.992.998.998zm-.268 7.122c.5 0 .973-.053 1.421-.159a4.386 4.386 0 001.227-.483c.37-.218.693-.492.97-.825.279-.333.495-.729.65-1.187.145-.438.224-.788.237-1.05.012-.262.018-.437.018-.527a6.278 6.278 0 00-.344-2.066 9.757 9.757 0 00-.347-.889 6.902 6.902 0 00-.46-.867l-1.01.645a.39.39 0 01.043.065l.07.114c.07.12.153.285.246.494.093.209.188.454.283.736a5.788 5.788 0 01.301 1.854v.073a3.791 3.791 0 01-.176 1.053c-.09.284-.223.538-.402.764-.178.225-.4.415-.663.572-.264.156-.57.275-.92.356a5.17 5.17 0 01-1.168.122c-.345 0-.652-.038-.922-.113a2.885 2.885 0 01-.706-.292c-.201-.12-.373-.255-.515-.405a2.65 2.65 0 01-.353-.46 2.218 2.218 0 01-.21-.45 2.4 2.4 0 01-.094-.38 3.57 3.57 0 01-.03-.719c.012-.243.039-.483.082-.718.042-.235.096-.462.16-.679.066-.217.134-.417.205-.6a5.35 5.35 0 01.21-.477c.069-.136.13-.24.182-.314l-.967-.712a8.651 8.651 0 00-.478.922c-.152.34-.28.697-.384 1.075a5.673 5.673 0 00-.191.983 5.374 5.374 0 00.018 1.41c.08.53.238.993.472 1.387.233.393.526.72.88.977.352.257.755.45 1.207.578.453.128.939.192 1.458.192zM31.89 20c.803 0 1.418-.213 1.844-.64.15-.153.269-.322.356-.504a2.934 2.934 0 00.283-1.06c.008-.15.012-.28.012-.389v-.158c0-.134-.003-.29-.009-.469l-.021-.633-.03-.837c-.013-.314-.025-.673-.037-1.074a71.079 71.079 0 00-.231-3.39l-1.194.127a55.409 55.409 0 01.213 3.305l.074 1.842c.02.497.03.877.03 1.14v.068c0 .58-.103.976-.31 1.187-.195.195-.522.292-.98.292h-.463V20h.463zm-4.742 0c.381 0 .713-.015.995-.046.282-.03.529-.077.74-.14a2.273 2.273 0 00.974-.569c.174.223.397.405.67.545.271.14.612.21 1.022.21h.121v-1.193h-.121a.86.86 0 01-.509-.14.999.999 0 01-.31-.353 1.667 1.667 0 01-.161-.463 4.299 4.299 0 01-.067-.474 18.669 18.669 0 00-.11-1.054 5.718 5.718 0 00-.176-.827l-1.145.322c.09.309.151.583.186.822.034.24.052.475.052.706 0 .244-.04.457-.122.64a1.1 1.1 0 01-.38.456 1.85 1.85 0 01-.67.274c-.274.06-.604.091-.99.091h-.906V20h.907zm.225 2.977l.986-.987-.998-.998-.986.992.998.993zm2.496.012l.986-.992-.998-.993-.987.986.999.999zM22.175 20c.596 0 1.097-.062 1.503-.186.406-.123.737-.313.992-.569.175.223.398.405.67.545s.613.21 1.023.21h.121v-1.193h-.121a.86.86 0 01-.509-.14.999.999 0 01-.31-.353 1.667 1.667 0 01-.161-.463 4.299 4.299 0 01-.067-.474 18.669 18.669 0 00-.11-1.054 5.718 5.718 0 00-.176-.827l-1.145.322c.09.309.151.583.186.822.034.24.052.475.052.706 0 .483-.155.847-.463 1.093-.308.245-.803.368-1.485.368h-.225V20h.225zm1.942 3.171l.992-.992-.999-.998-.992.992.999.998zm-7.17.822c.21 0 .43-.016.656-.049a4.216 4.216 0 001.817-.724c.282-.199.532-.445.75-.74.216-.294.39-.639.52-1.034.13-.396.194-.85.194-1.36v-.354c.15.085.316.151.496.198.181.047.411.07.691.07h.122v-1.193h-.122c-.215 0-.398-.038-.55-.113a1.115 1.115 0 01-.381-.301 1.303 1.303 0 01-.228-.43 1.776 1.776 0 01-.082-.495 606.994 606.994 0 00-.18-4.867c-.026-.619-.056-1.255-.088-1.908l-1.193.049a268.238 268.238 0 01.158 3.707l.06 1.549.02.524.033 1.019c.014.499.026.968.036 1.406.01.438.015.818.015 1.138 0 .345-.045.653-.137.922-.091.27-.213.508-.365.713a2.37 2.37 0 01-.526.52 2.99 2.99 0 01-1.25.514c-.198.03-.376.046-.534.046a2.382 2.382 0 01-.612-.082 2.78 2.78 0 01-.496-.183 2.615 2.615 0 01-.484-.301 2.096 2.096 0 01-.414-.432 2.09 2.09 0 01-.286-.575 2.332 2.332 0 01-.106-.728 5.427 5.427 0 01.322-1.917c.045-.126.095-.243.15-.35.054-.108.11-.206.167-.295l-1.09-.487c-.138.198-.26.446-.365.742a6.77 6.77 0 00-.255.95c-.078.377-.118.83-.122 1.357v.049c0 .385.049.734.146 1.047a3.045 3.045 0 001.013 1.537c.23.184.472.338.728.46a4.093 4.093 0 001.771.402z"/></g><g fill="#000000" transform="translate(147 235)"><rect width="82" height="32" fill-opacity=".04" rx="16"/><path fill-opacity=".56" fill-rule="nonzero" d="M62.951 20l1.449-.012c.641 0 1.211-.015 1.71-.046.5-.03.943-.07 1.33-.122a13.634 13.634 0 001.793-.35l-.146-1.156-.447.091c-.14.029-.282.053-.427.073a12.48 12.48 0 01-1.11.104c-.22 0-.43-.03-.633-.092a1.966 1.966 0 01-.655-.328 1.695 1.695 0 01-.453-.53 1.418 1.418 0 01-.17-.694c0-.186.03-.366.09-.538a1.293 1.293 0 01.718-.78 1.52 1.52 0 01.622-.118c.207 0 .393.021.56.064.166.042.32.101.46.176.14.075.27.162.392.262s.245.206.371.32l.749-.92c-.183-.15-.363-.292-.542-.426a3.698 3.698 0 00-.566-.35 3.08 3.08 0 00-1.424-.32c-.378 0-.726.07-1.044.21a2.6 2.6 0 00-1.382 1.406 2.623 2.623 0 00-.198 1.014c0 .365.06.698.18.999.12.3.328.584.624.852l-1.85.018V20zm-2.355-5.612l.992-.992-.998-.999-.993.993.999.998zM58.886 20c.596 0 1.097-.062 1.503-.186.405-.123.736-.313.992-.569.174.223.398.405.67.545.271.14.612.21 1.022.21h.122v-1.193h-.122a.86.86 0 01-.508-.14.999.999 0 01-.31-.353 1.667 1.667 0 01-.162-.463 4.299 4.299 0 01-.067-.474 18.669 18.669 0 00-.11-1.054 5.718 5.718 0 00-.176-.827l-1.144.322c.089.309.15.583.185.822.035.24.052.475.052.706 0 .483-.154.847-.463 1.093-.308.245-.803.368-1.485.368h-.225V20h.225zm-5.698 4.273a7.459 7.459 0 001.72-.487 6.291 6.291 0 001.509-.889 5.424 5.424 0 001.156-1.269 4.598 4.598 0 00.66-1.628h.67v-1.193h-.578a5.794 5.794 0 00-.329-1.768 4.675 4.675 0 00-.353-.77 3.846 3.846 0 00-.462-.646c-.483-.519-1.013-.779-1.589-.779-.26 0-.51.066-.752.198a2.284 2.284 0 00-.672.581c-.17.22-.319.48-.445.783a3.435 3.435 0 00-.24.81 4.237 4.237 0 00-.052.587c0 .162.015.324.043.487.049.308.166.58.353.815.422.524 1.073.812 1.954.865.223.02.423.03.6.03h.69c-.044.304-.17.614-.374.928a3.805 3.805 0 01-.837.892 6.02 6.02 0 01-1.272.755 7.854 7.854 0 01-1.68.523l.28 1.175zm3.342-5.479h-.098c-.178 0-.37-.005-.572-.017a3.068 3.068 0 01-.259-.028c-.1-.014-.2-.036-.304-.067a1.43 1.43 0 01-.292-.122.716.716 0 01-.228-.197.57.57 0 01-.125-.29 2.13 2.13 0 01-.022-.27 2.765 2.765 0 01.344-1.272c.084-.143.178-.26.283-.35a.505.505 0 01.335-.138c.073 0 .142.013.207.037a.94.94 0 01.186.094c.059.039.113.082.164.128.05.047.097.09.137.131.102.118.2.257.295.417.096.16.182.34.259.539.077.199.14.414.189.645.048.231.079.477.091.736a7.117 7.117 0 01-.59.024zm-5.034 1.26a28.5 28.5 0 00.1-1.904c.01-.597.015-1.074.015-1.43 0-.593-.006-1.226-.018-1.9a55.636 55.636 0 00-.31-4.431l-1.193.182c.138 1.279.247 2.902.328 4.87.012.337.019.694.019 1.071 0 .313-.005.64-.013.98-.02.755-.063 1.587-.127 2.496l1.199.067zM44.24 17.06l.992-.992-.998-.998-.992.992.998.998zm-.268 7.122c.5 0 .973-.053 1.421-.159a4.386 4.386 0 001.227-.483c.37-.218.693-.492.97-.825.279-.333.495-.729.65-1.187.145-.438.224-.788.237-1.05.012-.262.018-.437.018-.527a6.278 6.278 0 00-.344-2.066 9.757 9.757 0 00-.347-.889 6.902 6.902 0 00-.46-.867l-1.01.645a.39.39 0 01.043.065l.07.114c.07.12.153.285.246.494.093.209.188.454.283.736a5.788 5.788 0 01.301 1.854v.073a3.791 3.791 0 01-.176 1.053c-.09.284-.223.538-.402.764-.178.225-.4.415-.663.572-.264.156-.57.275-.92.356a5.17 5.17 0 01-1.168.122c-.345 0-.652-.038-.922-.113a2.885 2.885 0 01-.706-.292c-.201-.12-.373-.255-.515-.405a2.65 2.65 0 01-.353-.46 2.218 2.218 0 01-.21-.45 2.4 2.4 0 01-.094-.38 3.57 3.57 0 01-.03-.719c.012-.243.039-.483.082-.718.042-.235.096-.462.16-.679.066-.217.134-.417.205-.6a5.35 5.35 0 01.21-.477c.069-.136.13-.24.182-.314l-.967-.712a8.651 8.651 0 00-.478.922c-.152.34-.28.697-.384 1.075a5.673 5.673 0 00-.191.983 5.374 5.374 0 00.018 1.41c.08.53.238.993.472 1.387.233.393.526.72.88.977.352.257.755.45 1.207.578.453.128.939.192 1.458.192zM31.89 20c.803 0 1.418-.213 1.844-.64.15-.153.269-.322.356-.504a2.934 2.934 0 00.283-1.06c.008-.15.012-.28.012-.389v-.158c0-.134-.003-.29-.009-.469l-.021-.633-.03-.837c-.013-.314-.025-.673-.037-1.074a71.079 71.079 0 00-.231-3.39l-1.194.127a55.409 55.409 0 01.213 3.305l.074 1.842c.02.497.03.877.03 1.14v.068c0 .58-.103.976-.31 1.187-.195.195-.522.292-.98.292h-.463V20h.463zm-4.742 0c.381 0 .713-.015.995-.046.282-.03.529-.077.74-.14a2.273 2.273 0 00.974-.569c.174.223.397.405.67.545.271.14.612.21 1.022.21h.121v-1.193h-.121a.86.86 0 01-.509-.14.999.999 0 01-.31-.353 1.667 1.667 0 01-.161-.463 4.299 4.299 0 01-.067-.474 18.669 18.669 0 00-.11-1.054 5.718 5.718 0 00-.176-.827l-1.145.322c.09.309.151.583.186.822.034.24.052.475.052.706 0 .244-.04.457-.122.64a1.1 1.1 0 01-.38.456 1.85 1.85 0 01-.67.274c-.274.06-.604.091-.99.091h-.906V20h.907zm.225 2.977l.986-.987-.998-.998-.986.992.998.993zm2.496.012l.986-.992-.998-.993-.987.986.999.999zM22.175 20c.596 0 1.097-.062 1.503-.186.406-.123.737-.313.992-.569.175.223.398.405.67.545s.613.21 1.023.21h.121v-1.193h-.121a.86.86 0 01-.509-.14.999.999 0 01-.31-.353 1.667 1.667 0 01-.161-.463 4.299 4.299 0 01-.067-.474 18.669 18.669 0 00-.11-1.054 5.718 5.718 0 00-.176-.827l-1.145.322c.09.309.151.583.186.822.034.24.052.475.052.706 0 .483-.155.847-.463 1.093-.308.245-.803.368-1.485.368h-.225V20h.225zm1.942 3.171l.992-.992-.999-.998-.992.992.999.998zm-7.17.822c.21 0 .43-.016.656-.049a4.216 4.216 0 001.817-.724c.282-.199.532-.445.75-.74.216-.294.39-.639.52-1.034.13-.396.194-.85.194-1.36v-.354c.15.085.316.151.496.198.181.047.411.07.691.07h.122v-1.193h-.122c-.215 0-.398-.038-.55-.113a1.115 1.115 0 01-.381-.301 1.303 1.303 0 01-.228-.43 1.776 1.776 0 01-.082-.495 606.994 606.994 0 00-.18-4.867c-.026-.619-.056-1.255-.088-1.908l-1.193.049a268.238 268.238 0 01.158 3.707l.06 1.549.02.524.033 1.019c.014.499.026.968.036 1.406.01.438.015.818.015 1.138 0 .345-.045.653-.137.922-.091.27-.213.508-.365.713a2.37 2.37 0 01-.526.52 2.99 2.99 0 01-1.25.514c-.198.03-.376.046-.534.046a2.382 2.382 0 01-.612-.082 2.78 2.78 0 01-.496-.183 2.615 2.615 0 01-.484-.301 2.096 2.096 0 01-.414-.432 2.09 2.09 0 01-.286-.575 2.332 2.332 0 01-.106-.728 5.427 5.427 0 01.322-1.917c.045-.126.095-.243.15-.35.054-.108.11-.206.167-.295l-1.09-.487c-.138.198-.26.446-.365.742a6.77 6.77 0 00-.255.95c-.078.377-.118.83-.122 1.357v.049c0 .385.049.734.146 1.047a3.045 3.045 0 001.013 1.537c.23.184.472.338.728.46a4.093 4.093 0 001.771.402z"/></g><g fill="#EA475B" transform="translate(147 164)"><rect width="81" height="31" x=".5" y=".5" fill-opacity=".04" stroke="#EA475B" stroke-opacity=".56" rx="15.5"/><path fill-rule="nonzero" d="M62.951 20l1.449-.012c.641 0 1.211-.015 1.71-.046.5-.03.943-.07 1.33-.122a13.634 13.634 0 001.793-.35l-.146-1.156-.447.091c-.14.029-.282.053-.427.073a12.48 12.48 0 01-1.11.104c-.22 0-.43-.03-.633-.092a1.966 1.966 0 01-.655-.328 1.695 1.695 0 01-.453-.53 1.418 1.418 0 01-.17-.694c0-.186.03-.366.09-.538a1.293 1.293 0 01.718-.78 1.52 1.52 0 01.622-.118c.207 0 .393.021.56.064.166.042.32.101.46.176.14.075.27.162.392.262s.245.206.371.32l.749-.92c-.183-.15-.363-.292-.542-.426a3.698 3.698 0 00-.566-.35 3.08 3.08 0 00-1.424-.32c-.378 0-.726.07-1.044.21a2.6 2.6 0 00-1.382 1.406 2.623 2.623 0 00-.198 1.014c0 .365.06.698.18.999.12.3.328.584.624.852l-1.85.018V20zm-2.355-5.612l.992-.992-.998-.999-.993.993.999.998zM58.886 20c.596 0 1.097-.062 1.503-.186.405-.123.736-.313.992-.569.174.223.398.405.67.545.271.14.612.21 1.022.21h.122v-1.193h-.122a.86.86 0 01-.508-.14.999.999 0 01-.31-.353 1.667 1.667 0 01-.162-.463 4.299 4.299 0 01-.067-.474 18.669 18.669 0 00-.11-1.054 5.718 5.718 0 00-.176-.827l-1.144.322c.089.309.15.583.185.822.035.24.052.475.052.706 0 .483-.154.847-.463 1.093-.308.245-.803.368-1.485.368h-.225V20h.225zm-5.698 4.273a7.459 7.459 0 001.72-.487 6.291 6.291 0 001.509-.889 5.424 5.424 0 001.156-1.269 4.598 4.598 0 00.66-1.628h.67v-1.193h-.578a5.794 5.794 0 00-.329-1.768 4.675 4.675 0 00-.353-.77 3.846 3.846 0 00-.462-.646c-.483-.519-1.013-.779-1.589-.779-.26 0-.51.066-.752.198a2.284 2.284 0 00-.672.581c-.17.22-.319.48-.445.783a3.435 3.435 0 00-.24.81 4.237 4.237 0 00-.052.587c0 .162.015.324.043.487.049.308.166.58.353.815.422.524 1.073.812 1.954.865.223.02.423.03.6.03h.69c-.044.304-.17.614-.374.928a3.805 3.805 0 01-.837.892 6.02 6.02 0 01-1.272.755 7.854 7.854 0 01-1.68.523l.28 1.175zm3.342-5.479h-.098c-.178 0-.37-.005-.572-.017a3.068 3.068 0 01-.259-.028c-.1-.014-.2-.036-.304-.067a1.43 1.43 0 01-.292-.122.716.716 0 01-.228-.197.57.57 0 01-.125-.29 2.13 2.13 0 01-.022-.27 2.765 2.765 0 01.344-1.272c.084-.143.178-.26.283-.35a.505.505 0 01.335-.138c.073 0 .142.013.207.037a.94.94 0 01.186.094c.059.039.113.082.164.128.05.047.097.09.137.131.102.118.2.257.295.417.096.16.182.34.259.539.077.199.14.414.189.645.048.231.079.477.091.736a7.117 7.117 0 01-.59.024zm-5.034 1.26a28.5 28.5 0 00.1-1.904c.01-.597.015-1.074.015-1.43 0-.593-.006-1.226-.018-1.9a55.636 55.636 0 00-.31-4.431l-1.193.182c.138 1.279.247 2.902.328 4.87.012.337.019.694.019 1.071 0 .313-.005.64-.013.98-.02.755-.063 1.587-.127 2.496l1.199.067zM44.24 17.06l.992-.992-.998-.998-.992.992.998.998zm-.268 7.122c.5 0 .973-.053 1.421-.159a4.386 4.386 0 001.227-.483c.37-.218.693-.492.97-.825.279-.333.495-.729.65-1.187.145-.438.224-.788.237-1.05.012-.262.018-.437.018-.527a6.278 6.278 0 00-.344-2.066 9.757 9.757 0 00-.347-.889 6.902 6.902 0 00-.46-.867l-1.01.645a.39.39 0 01.043.065l.07.114c.07.12.153.285.246.494.093.209.188.454.283.736a5.788 5.788 0 01.301 1.854v.073a3.791 3.791 0 01-.176 1.053c-.09.284-.223.538-.402.764-.178.225-.4.415-.663.572-.264.156-.57.275-.92.356a5.17 5.17 0 01-1.168.122c-.345 0-.652-.038-.922-.113a2.885 2.885 0 01-.706-.292c-.201-.12-.373-.255-.515-.405a2.65 2.65 0 01-.353-.46 2.218 2.218 0 01-.21-.45 2.4 2.4 0 01-.094-.38 3.57 3.57 0 01-.03-.719c.012-.243.039-.483.082-.718.042-.235.096-.462.16-.679.066-.217.134-.417.205-.6a5.35 5.35 0 01.21-.477c.069-.136.13-.24.182-.314l-.967-.712a8.651 8.651 0 00-.478.922c-.152.34-.28.697-.384 1.075a5.673 5.673 0 00-.191.983 5.374 5.374 0 00.018 1.41c.08.53.238.993.472 1.387.233.393.526.72.88.977.352.257.755.45 1.207.578.453.128.939.192 1.458.192zM31.89 20c.803 0 1.418-.213 1.844-.64.15-.153.269-.322.356-.504a2.934 2.934 0 00.283-1.06c.008-.15.012-.28.012-.389v-.158c0-.134-.003-.29-.009-.469l-.021-.633-.03-.837c-.013-.314-.025-.673-.037-1.074a71.079 71.079 0 00-.231-3.39l-1.194.127a55.409 55.409 0 01.213 3.305l.074 1.842c.02.497.03.877.03 1.14v.068c0 .58-.103.976-.31 1.187-.195.195-.522.292-.98.292h-.463V20h.463zm-4.742 0c.381 0 .713-.015.995-.046.282-.03.529-.077.74-.14a2.273 2.273 0 00.974-.569c.174.223.397.405.67.545.271.14.612.21 1.022.21h.121v-1.193h-.121a.86.86 0 01-.509-.14.999.999 0 01-.31-.353 1.667 1.667 0 01-.161-.463 4.299 4.299 0 01-.067-.474 18.669 18.669 0 00-.11-1.054 5.718 5.718 0 00-.176-.827l-1.145.322c.09.309.151.583.186.822.034.24.052.475.052.706 0 .244-.04.457-.122.64a1.1 1.1 0 01-.38.456 1.85 1.85 0 01-.67.274c-.274.06-.604.091-.99.091h-.906V20h.907zm.225 2.977l.986-.987-.998-.998-.986.992.998.993zm2.496.012l.986-.992-.998-.993-.987.986.999.999zM22.175 20c.596 0 1.097-.062 1.503-.186.406-.123.737-.313.992-.569.175.223.398.405.67.545s.613.21 1.023.21h.121v-1.193h-.121a.86.86 0 01-.509-.14.999.999 0 01-.31-.353 1.667 1.667 0 01-.161-.463 4.299 4.299 0 01-.067-.474 18.669 18.669 0 00-.11-1.054 5.718 5.718 0 00-.176-.827l-1.145.322c.09.309.151.583.186.822.034.24.052.475.052.706 0 .483-.155.847-.463 1.093-.308.245-.803.368-1.485.368h-.225V20h.225zm1.942 3.171l.992-.992-.999-.998-.992.992.999.998zm-7.17.822c.21 0 .43-.016.656-.049a4.216 4.216 0 001.817-.724c.282-.199.532-.445.75-.74.216-.294.39-.639.52-1.034.13-.396.194-.85.194-1.36v-.354c.15.085.316.151.496.198.181.047.411.07.691.07h.122v-1.193h-.122c-.215 0-.398-.038-.55-.113a1.115 1.115 0 01-.381-.301 1.303 1.303 0 01-.228-.43 1.776 1.776 0 01-.082-.495 606.994 606.994 0 00-.18-4.867c-.026-.619-.056-1.255-.088-1.908l-1.193.049a268.238 268.238 0 01.158 3.707l.06 1.549.02.524.033 1.019c.014.499.026.968.036 1.406.01.438.015.818.015 1.138 0 .345-.045.653-.137.922-.091.27-.213.508-.365.713a2.37 2.37 0 01-.526.52 2.99 2.99 0 01-1.25.514c-.198.03-.376.046-.534.046a2.382 2.382 0 01-.612-.082 2.78 2.78 0 01-.496-.183 2.615 2.615 0 01-.484-.301 2.096 2.096 0 01-.414-.432 2.09 2.09 0 01-.286-.575 2.332 2.332 0 01-.106-.728 5.427 5.427 0 01.322-1.917c.045-.126.095-.243.15-.35.054-.108.11-.206.167-.295l-1.09-.487c-.138.198-.26.446-.365.742a6.77 6.77 0 00-.255.95c-.078.377-.118.83-.122 1.357v.049c0 .385.049.734.146 1.047a3.045 3.045 0 001.013 1.537c.23.184.472.338.728.46a4.093 4.093 0 001.771.402z"/></g><g transform="translate(57 235)"><rect width="81" height="31" x=".5" y=".5" stroke="#000000" stroke-opacity=".12" rx="15.5"/><path fill="#000000" fill-opacity=".56" fill-rule="nonzero" d="M62.951 20l1.449-.012c.641 0 1.211-.015 1.71-.046.5-.03.943-.07 1.33-.122a13.634 13.634 0 001.793-.35l-.146-1.156-.447.091c-.14.029-.282.053-.427.073a12.48 12.48 0 01-1.11.104c-.22 0-.43-.03-.633-.092a1.966 1.966 0 01-.655-.328 1.695 1.695 0 01-.453-.53 1.418 1.418 0 01-.17-.694c0-.186.03-.366.09-.538a1.293 1.293 0 01.718-.78 1.52 1.52 0 01.622-.118c.207 0 .393.021.56.064.166.042.32.101.46.176.14.075.27.162.392.262s.245.206.371.32l.749-.92c-.183-.15-.363-.292-.542-.426a3.698 3.698 0 00-.566-.35 3.08 3.08 0 00-1.424-.32c-.378 0-.726.07-1.044.21a2.6 2.6 0 00-1.382 1.406 2.623 2.623 0 00-.198 1.014c0 .365.06.698.18.999.12.3.328.584.624.852l-1.85.018V20zm-2.355-5.612l.992-.992-.998-.999-.993.993.999.998zM58.886 20c.596 0 1.097-.062 1.503-.186.405-.123.736-.313.992-.569.174.223.398.405.67.545.271.14.612.21 1.022.21h.122v-1.193h-.122a.86.86 0 01-.508-.14.999.999 0 01-.31-.353 1.667 1.667 0 01-.162-.463 4.299 4.299 0 01-.067-.474 18.669 18.669 0 00-.11-1.054 5.718 5.718 0 00-.176-.827l-1.144.322c.089.309.15.583.185.822.035.24.052.475.052.706 0 .483-.154.847-.463 1.093-.308.245-.803.368-1.485.368h-.225V20h.225zm-5.698 4.273a7.459 7.459 0 001.72-.487 6.291 6.291 0 001.509-.889 5.424 5.424 0 001.156-1.269 4.598 4.598 0 00.66-1.628h.67v-1.193h-.578a5.794 5.794 0 00-.329-1.768 4.675 4.675 0 00-.353-.77 3.846 3.846 0 00-.462-.646c-.483-.519-1.013-.779-1.589-.779-.26 0-.51.066-.752.198a2.284 2.284 0 00-.672.581c-.17.22-.319.48-.445.783a3.435 3.435 0 00-.24.81 4.237 4.237 0 00-.052.587c0 .162.015.324.043.487.049.308.166.58.353.815.422.524 1.073.812 1.954.865.223.02.423.03.6.03h.69c-.044.304-.17.614-.374.928a3.805 3.805 0 01-.837.892 6.02 6.02 0 01-1.272.755 7.854 7.854 0 01-1.68.523l.28 1.175zm3.342-5.479h-.098c-.178 0-.37-.005-.572-.017a3.068 3.068 0 01-.259-.028c-.1-.014-.2-.036-.304-.067a1.43 1.43 0 01-.292-.122.716.716 0 01-.228-.197.57.57 0 01-.125-.29 2.13 2.13 0 01-.022-.27 2.765 2.765 0 01.344-1.272c.084-.143.178-.26.283-.35a.505.505 0 01.335-.138c.073 0 .142.013.207.037a.94.94 0 01.186.094c.059.039.113.082.164.128.05.047.097.09.137.131.102.118.2.257.295.417.096.16.182.34.259.539.077.199.14.414.189.645.048.231.079.477.091.736a7.117 7.117 0 01-.59.024zm-5.034 1.26a28.5 28.5 0 00.1-1.904c.01-.597.015-1.074.015-1.43 0-.593-.006-1.226-.018-1.9a55.636 55.636 0 00-.31-4.431l-1.193.182c.138 1.279.247 2.902.328 4.87.012.337.019.694.019 1.071 0 .313-.005.64-.013.98-.02.755-.063 1.587-.127 2.496l1.199.067zM44.24 17.06l.992-.992-.998-.998-.992.992.998.998zm-.268 7.122c.5 0 .973-.053 1.421-.159a4.386 4.386 0 001.227-.483c.37-.218.693-.492.97-.825.279-.333.495-.729.65-1.187.145-.438.224-.788.237-1.05.012-.262.018-.437.018-.527a6.278 6.278 0 00-.344-2.066 9.757 9.757 0 00-.347-.889 6.902 6.902 0 00-.46-.867l-1.01.645a.39.39 0 01.043.065l.07.114c.07.12.153.285.246.494.093.209.188.454.283.736a5.788 5.788 0 01.301 1.854v.073a3.791 3.791 0 01-.176 1.053c-.09.284-.223.538-.402.764-.178.225-.4.415-.663.572-.264.156-.57.275-.92.356a5.17 5.17 0 01-1.168.122c-.345 0-.652-.038-.922-.113a2.885 2.885 0 01-.706-.292c-.201-.12-.373-.255-.515-.405a2.65 2.65 0 01-.353-.46 2.218 2.218 0 01-.21-.45 2.4 2.4 0 01-.094-.38 3.57 3.57 0 01-.03-.719c.012-.243.039-.483.082-.718.042-.235.096-.462.16-.679.066-.217.134-.417.205-.6a5.35 5.35 0 01.21-.477c.069-.136.13-.24.182-.314l-.967-.712a8.651 8.651 0 00-.478.922c-.152.34-.28.697-.384 1.075a5.673 5.673 0 00-.191.983 5.374 5.374 0 00.018 1.41c.08.53.238.993.472 1.387.233.393.526.72.88.977.352.257.755.45 1.207.578.453.128.939.192 1.458.192zM31.89 20c.803 0 1.418-.213 1.844-.64.15-.153.269-.322.356-.504a2.934 2.934 0 00.283-1.06c.008-.15.012-.28.012-.389v-.158c0-.134-.003-.29-.009-.469l-.021-.633-.03-.837c-.013-.314-.025-.673-.037-1.074a71.079 71.079 0 00-.231-3.39l-1.194.127a55.409 55.409 0 01.213 3.305l.074 1.842c.02.497.03.877.03 1.14v.068c0 .58-.103.976-.31 1.187-.195.195-.522.292-.98.292h-.463V20h.463zm-4.742 0c.381 0 .713-.015.995-.046.282-.03.529-.077.74-.14a2.273 2.273 0 00.974-.569c.174.223.397.405.67.545.271.14.612.21 1.022.21h.121v-1.193h-.121a.86.86 0 01-.509-.14.999.999 0 01-.31-.353 1.667 1.667 0 01-.161-.463 4.299 4.299 0 01-.067-.474 18.669 18.669 0 00-.11-1.054 5.718 5.718 0 00-.176-.827l-1.145.322c.09.309.151.583.186.822.034.24.052.475.052.706 0 .244-.04.457-.122.64a1.1 1.1 0 01-.38.456 1.85 1.85 0 01-.67.274c-.274.06-.604.091-.99.091h-.906V20h.907zm.225 2.977l.986-.987-.998-.998-.986.992.998.993zm2.496.012l.986-.992-.998-.993-.987.986.999.999zM22.175 20c.596 0 1.097-.062 1.503-.186.406-.123.737-.313.992-.569.175.223.398.405.67.545s.613.21 1.023.21h.121v-1.193h-.121a.86.86 0 01-.509-.14.999.999 0 01-.31-.353 1.667 1.667 0 01-.161-.463 4.299 4.299 0 01-.067-.474 18.669 18.669 0 00-.11-1.054 5.718 5.718 0 00-.176-.827l-1.145.322c.09.309.151.583.186.822.034.24.052.475.052.706 0 .483-.155.847-.463 1.093-.308.245-.803.368-1.485.368h-.225V20h.225zm1.942 3.171l.992-.992-.999-.998-.992.992.999.998zm-7.17.822c.21 0 .43-.016.656-.049a4.216 4.216 0 001.817-.724c.282-.199.532-.445.75-.74.216-.294.39-.639.52-1.034.13-.396.194-.85.194-1.36v-.354c.15.085.316.151.496.198.181.047.411.07.691.07h.122v-1.193h-.122c-.215 0-.398-.038-.55-.113a1.115 1.115 0 01-.381-.301 1.303 1.303 0 01-.228-.43 1.776 1.776 0 01-.082-.495 606.994 606.994 0 00-.18-4.867c-.026-.619-.056-1.255-.088-1.908l-1.193.049a268.238 268.238 0 01.158 3.707l.06 1.549.02.524.033 1.019c.014.499.026.968.036 1.406.01.438.015.818.015 1.138 0 .345-.045.653-.137.922-.091.27-.213.508-.365.713a2.37 2.37 0 01-.526.52 2.99 2.99 0 01-1.25.514c-.198.03-.376.046-.534.046a2.382 2.382 0 01-.612-.082 2.78 2.78 0 01-.496-.183 2.615 2.615 0 01-.484-.301 2.096 2.096 0 01-.414-.432 2.09 2.09 0 01-.286-.575 2.332 2.332 0 01-.106-.728 5.427 5.427 0 01.322-1.917c.045-.126.095-.243.15-.35.054-.108.11-.206.167-.295l-1.09-.487c-.138.198-.26.446-.365.742a6.77 6.77 0 00-.255.95c-.078.377-.118.83-.122 1.357v.049c0 .385.049.734.146 1.047a3.045 3.045 0 001.013 1.537c.23.184.472.338.728.46a4.093 4.093 0 001.771.402z"/></g></g></svg>