<svg xmlns="http://www.w3.org/2000/svg" xmlns:xlink="http://www.w3.org/1999/xlink" width="860" height="438"><defs><filter id="behavior_2444-d" width="113.9%" height="113.3%" x="-6.9%" y="-5.6%" filterUnits="objectBoundingBox"><feOffset dy="4" in="SourceAlpha" result="shadowOffsetOuter1"/><feGaussianBlur in="shadowOffsetOuter1" result="shadowBlurOuter1" stdDeviation="8"/><feColorMatrix in="shadowBlurOuter1" values="0 0 0 0 0 0 0 0 0 0 0 0 0 0 0 0 0 0 0.12 0"/></filter><filter id="behavior_2444-f" width="110.7%" height="110.3%" x="-5.3%" y="-4.1%" filterUnits="objectBoundingBox"><feOffset dy="2" in="SourceAlpha" result="shadowOffsetOuter1"/><feGaussianBlur in="shadowOffsetOuter1" result="shadowBlurOuter1" stdDeviation="4"/><feColorMatrix in="shadowBlurOuter1" result="shadowMatrixOuter1" values="0 0 0 0 0 0 0 0 0 0 0 0 0 0 0 0 0 0 0.08 0"/><feOffset dy="4" in="SourceAlpha" result="shadowOffsetOuter2"/><feGaussianBlur in="shadowOffsetOuter2" result="shadowBlurOuter2" stdDeviation="6"/><feColorMatrix in="shadowBlurOuter2" result="shadowMatrixOuter2" values="0 0 0 0 0 0 0 0 0 0 0 0 0 0 0 0 0 0 0.04 0"/><feOffset in="SourceAlpha" result="shadowOffsetOuter3"/><feGaussianBlur in="shadowOffsetOuter3" result="shadowBlurOuter3" stdDeviation="2"/><feColorMatrix in="shadowBlurOuter3" result="shadowMatrixOuter3" values="0 0 0 0 0 0 0 0 0 0 0 0 0 0 0 0 0 0 0.04 0"/><feMerge><feMergeNode in="shadowMatrixOuter1"/><feMergeNode in="shadowMatrixOuter2"/><feMergeNode in="shadowMatrixOuter3"/></feMerge></filter><filter id="behavior_2444-i" width="101.9%" height="110.9%" x="-.9%" y="-3.9%" filterUnits="objectBoundingBox"><feOffset dy="1" in="SourceAlpha" result="shadowOffsetOuter1"/><feGaussianBlur in="shadowOffsetOuter1" result="shadowBlurOuter1" stdDeviation="1"/><feComposite in="shadowBlurOuter1" in2="SourceAlpha" operator="out" result="shadowBlurOuter1"/><feColorMatrix in="shadowBlurOuter1" values="0 0 0 0 0 0 0 0 0 0 0 0 0 0 0 0 0 0 0.12 0"/></filter><filter id="behavior_2444-k" width="159.4%" height="159.4%" x="-29.7%" y="-26.6%" filterUnits="objectBoundingBox"><feOffset dy="1" in="SourceAlpha" result="shadowOffsetOuter1"/><feGaussianBlur in="shadowOffsetOuter1" result="shadowBlurOuter1" stdDeviation="3"/><feComposite in="shadowBlurOuter1" in2="SourceAlpha" operator="out" result="shadowBlurOuter1"/><feColorMatrix in="shadowBlurOuter1" values="0 0 0 0 0 0 0 0 0 0 0 0 0 0 0 0 0 0 0.12 0"/></filter><filter id="behavior_2444-m" width="156.2%" height="156.2%" x="-28.1%" y="-25%" filterUnits="objectBoundingBox"><feGaussianBlur in="SourceAlpha" result="shadowBlurInner1" stdDeviation="2"/><feOffset dy="2" in="shadowBlurInner1" result="shadowOffsetInner1"/><feComposite in="shadowOffsetInner1" in2="SourceAlpha" k2="-1" k3="1" operator="arithmetic" result="shadowInnerInner1"/><feColorMatrix in="shadowInnerInner1" values="0 0 0 0 1 0 0 0 0 1 0 0 0 0 1 0 0 0 1 0"/></filter><path id="behavior_2444-c" d="M8 0h359a8 8 0 018 8v382H0V8a8 8 0 018-8z"/><path id="behavior_2444-g" d="M8 0h359a8 8 0 018 8v382H0V8a8 8 0 018-8z"/><path id="behavior_2444-h" d="M333.522 377.22a2.12 2.12 0 00.535-.071 1.74 1.74 0 00.417-.175c.123-.073.232-.16.326-.258.094-.1.18-.206.26-.321.07.104.15.207.238.308.089.1.19.19.303.268a1.404 1.404 0 00.822.248h.073c.351 0 .662-.049.934-.146.281-.097.519-.238.712-.423.193-.184.339-.407.438-.667.1-.261.149-.553.149-.877 0-.205-.017-.414-.05-.626a6.094 6.094 0 00-.13-.623 8.89 8.89 0 00-.624-1.662l-1.122.626c.06.122.13.275.21.459.08.184.155.38.226.59.071.208.132.422.183.641.05.22.075.423.075.61 0 .258-.078.45-.234.575-.157.125-.359.187-.606.187a.763.763 0 01-.334-.075.642.642 0 01-.329-.438 1.341 1.341 0 01-.025-.259v-.083c.01-.146.025-.292.044-.438a17.424 17.424 0 01.12-.793c.02-.115.034-.214.044-.298l-1.22-.235c-.021.146-.05.312-.087.496a7.589 7.589 0 01-.135.566 5.29 5.29 0 01-.193.566 2.583 2.583 0 01-.261.493c-.1.145-.211.261-.337.35a.714.714 0 01-.422.133c-.146 0-.252-.043-.316-.128a.494.494 0 01-.107-.258 2.68 2.68 0 01-.01-.183c0-.111.012-.231.036-.36.032-.17.07-.34.118-.509.047-.168.096-.328.148-.48.052-.15.094-.275.126-.373l-1.305-.287-.13.493a7.488 7.488 0 01-.172.556c-.067.188-.144.37-.233.548a2.424 2.424 0 01-.307.475c-.117.139-.25.25-.402.334a1.046 1.046 0 01-.514.125h-.209v1.336h.188c.244 0 .456-.021.637-.063.18-.042.338-.098.472-.17a1.46 1.46 0 00.339-.242c.092-.09.171-.185.237-.282.077.111.161.217.253.318s.195.189.308.264a1.449 1.449 0 00.806.237h.037zm-3.068-.063v-1.336h-.235c-.136 0-.255-.014-.357-.042a.518.518 0 01-.391-.38 1.294 1.294 0 01-.04-.335l.001-.244.002-.157a592.413 592.413 0 00.01-.655c.002-.117.003-.241.003-.373v-.165l-.005-.38a35.019 35.019 0 01-.005-.587 27.332 27.332 0 00-.157-2.91 9.53 9.53 0 00-.104-.737l-1.31.391c.031.163.06.352.084.566.024.214.045.444.062.689a31.199 31.199 0 01.073 1.55 60.878 60.878 0 01.021 1.478c0 .37-.003.681-.01.937s-.01.44-.01.55c.003.717.187 1.253.552 1.607.365.355.901.533 1.607.533h.209zm-7.482 3.422c.244 0 .498-.025.762-.076a3.502 3.502 0 001.51-.69c.232-.182.434-.402.608-.66.174-.26.312-.562.415-.906.103-.344.154-.736.154-1.174 0-.275-.004-.602-.013-.98a236.38 236.38 0 00-.073-2.563l-.045-1.356c-.017-.518-.039-1.058-.065-1.62-.026-.562-.051-1.128-.075-1.698l-1.362.255c.031.543.063 1.085.096 1.626.033.54.062 1.06.086 1.557l.063 1.304a136.475 136.475 0 01.094 2.484c.01.372.016.695.016.97 0 .393-.07.728-.21 1.005-.138.276-.316.502-.531.678a2.137 2.137 0 01-.712.386c-.26.082-.51.122-.75.122-.236 0-.48-.04-.73-.122-.25-.082-.478-.2-.683-.355a1.935 1.935 0 01-.506-.569 1.477 1.477 0 01-.198-.764c0-.358.048-.718.146-1.08a3.35 3.35 0 01.454-1.002l-1.127-.521a2.827 2.827 0 00-.308.573 4.92 4.92 0 00-.209.653 5.384 5.384 0 00-.122.688c-.027.233-.04.461-.04.684v.036c0 .362.05.687.146.976a2.767 2.767 0 001.002 1.406c.226.169.465.307.715.415a3.877 3.877 0 001.492.318zm-12.725-3.36a2.12 2.12 0 00.535-.07 1.74 1.74 0 00.417-.175c.124-.073.232-.16.326-.258.094-.1.181-.206.261-.321.07.104.149.207.237.308.09.1.19.19.303.268a1.404 1.404 0 00.822.248h.073c.351 0 .662-.049.934-.146.282-.097.519-.238.712-.423.193-.184.34-.407.438-.667.1-.261.149-.553.149-.877 0-.205-.017-.414-.05-.626a6.094 6.094 0 00-.13-.623 8.89 8.89 0 00-.624-1.662l-1.121.626c.059.122.128.275.208.459.08.184.156.38.227.59.072.208.133.422.183.641.05.22.076.423.076.61 0 .258-.079.45-.235.575-.157.125-.358.187-.605.187a.763.763 0 01-.334-.075.642.642 0 01-.329-.438 1.341 1.341 0 01-.026-.259v-.083c.01-.146.025-.292.044-.438a17.414 17.414 0 01.12-.793c.02-.115.034-.214.045-.298l-1.221-.235c-.021.146-.05.312-.086.496a7.589 7.589 0 01-.136.566 5.29 5.29 0 01-.193.566 2.583 2.583 0 01-.26.493c-.1.145-.212.261-.337.35a.714.714 0 01-.423.133c-.146 0-.251-.043-.316-.128a.494.494 0 01-.107-.258 2.68 2.68 0 01-.01-.183c0-.111.012-.231.036-.36.032-.17.07-.34.118-.509.047-.168.096-.328.149-.48.052-.15.093-.275.125-.373l-1.305-.287-.13.493a7.488 7.488 0 01-.172.556c-.066.188-.144.37-.232.548a2.424 2.424 0 01-.308.475c-.117.139-.25.25-.402.334a1.046 1.046 0 01-.514.125h-.209v1.336h.188c.244 0 .456-.021.637-.063.18-.042.338-.098.472-.17a1.46 1.46 0 00.34-.242c.091-.09.17-.185.236-.282.077.111.161.217.254.318.092.101.194.189.307.264a1.449 1.449 0 00.806.237h.037zm-3.068-.062v-1.336h-.235c-.135 0-.254-.014-.357-.042a.518.518 0 01-.391-.38 1.294 1.294 0 01-.04-.335v-.083c0-.108.001-.214.003-.318l.003-.158.002-.16.006-.337a25.072 25.072 0 00-.003-.918 35.009 35.009 0 01-.005-.587 27.332 27.332 0 00-.157-2.91 9.531 9.531 0 00-.104-.737l-1.31.391c.032.163.06.352.084.566.024.214.045.444.062.689a31.194 31.194 0 01.073 1.55 60.877 60.877 0 01.021 1.478c0 .37-.003.681-.01.937s-.01.44-.01.55c.003.717.187 1.253.552 1.607.366.355.901.533 1.607.533h.21zm-8.369-5.755l1.002-1.002-1.002-.997-.996.997.996 1.002zm-2.243 5.755a9.2 9.2 0 001.975-.248c.628-.152 1.23-.338 1.808-.559a19.46 19.46 0 001.659-.722c.528-.261 1.036-.508 1.523-.741l.11-1.346a3.279 3.279 0 01-.835-.118 7.004 7.004 0 01-.806-.276c-.266-.11-.53-.227-.79-.352a18.02 18.02 0 00-.78-.352c-.26-.11-.521-.2-.786-.272a3.053 3.053 0 00-.798-.107c-.26 0-.508.046-.74.139-.234.092-.45.215-.65.37s-.382.33-.546.527c-.163.197-.304.4-.422.608l1.085.704.073-.125a2.635 2.635 0 01.32-.433c.072-.08.153-.153.243-.22.09-.065.19-.12.295-.164a.892.892 0 01.342-.065c.209 0 .42.038.631.115.212.077.433.167.663.271.23.105.473.212.73.321.258.11.536.198.835.264a20.38 20.38 0 01-1.195.537c-.42.174-.852.328-1.294.462-.441.134-.886.242-1.333.323a7.313 7.313 0 01-1.317.123h-1.132v1.336h1.132zm-8.296-4.414l.887-.887-.897-.898-.887.892.897.893zm1.972.01l.887-.892-.897-.892-.887.887.897.897zm-1.424 4.42c1.906 0 3.338-.443 4.294-1.326.115.233.247.432.397.597.15.166.32.301.51.407.192.106.405.184.64.232.235.05.497.074.785.074h.198v-1.336h-.187c-.254 0-.469-.033-.645-.1a1.09 1.09 0 01-.425-.273 1.06 1.06 0 01-.235-.407 1.32 1.32 0 01-.073-.376v-.17c0-.163.018-.332.052-.505.039-.192.09-.38.157-.564l-1.2-.323c-.049.167-.094.34-.136.521-.041.181-.094.358-.156.53-.063.172-.141.336-.235.493a1.485 1.485 0 01-.37.412c-.167.14-.367.257-.6.352a4.53 4.53 0 01-.78.235c-.287.061-.598.105-.932.133-.334.028-.687.042-1.059.042a11.8 11.8 0 01-1.148-.052 6.33 6.33 0 01-.957-.162 2.873 2.873 0 01-.723-.282 1.199 1.199 0 01-.443-.417 1.32 1.32 0 01-.196-.449 1.7 1.7 0 01-.029-.548 1.89 1.89 0 01.126-.5c.066-.168.15-.334.25-.501l-1.007-.632a3.824 3.824 0 00-.344.775c-.087.273-.137.5-.149.68-.012.182-.018.312-.018.392 0 .205.02.41.062.616.056.282.157.553.303.814.337.546.862.95 1.573 1.213.711.262 1.611.397 2.7.404z"/><path id="behavior_2444-j" d="M0 0h375v64H0z"/><circle id="behavior_2444-l" cx="170" cy="301" r="16"/><style>@keyframes mouse_move{0%{transform:translate(100px,-60px);opacity:1}30%,32%{transform:translate(0,0);opacity:1}31%{transform:translate(0,0);opacity:.6}}@keyframes deselect_chip_base{0%,31%{fill:#ea475b;fill-opacity:.04;stroke:#ea475b;stroke-opacity:.56}36%,to{fill:#000000;fill-opacity:0;stroke:#000000;stroke-opacity:.12}}@keyframes deselect_chip_value{0%,31%{fill:#ea475b;fill-opacity:1}36%,to{fill:#000000;fill-opacity:.56}}@keyframes select_chip_base{0%,31%{fill:#000000;fill-opacity:0;stroke:#000000;stroke-opacity:.12}36%,to{fill:#ea475b;fill-opacity:.04;stroke:#ea475b;stroke-opacity:.56}}@keyframes select_chip_value{0%,31%{fill:#000000;fill-opacity:.56}36%,to{fill:#ea475b;fill-opacity:1}}</style><rect id="behavior_2444-a" width="860" height="438" x="0" y="0" rx="4"/></defs><g fill="none" fill-rule="evenodd"><mask id="behavior_2444-b" fill="#fff"><use xlink:href="#behavior_2444-a"/></mask><use fill="#000" fill-opacity="0" xlink:href="#behavior_2444-a"/><g mask="url(#behavior_2444-b)"><g transform="translate(243 48)"><mask id="behavior_2444-e" fill="#fff"><use xlink:href="#behavior_2444-c"/></mask><use fill="#000" filter="url(#behavior_2444-d)" xlink:href="#behavior_2444-c"/><g mask="url(#behavior_2444-e)"><use fill="#000" filter="url(#behavior_2444-f)" xlink:href="#behavior_2444-g"/><use fill="#FFF" xlink:href="#behavior_2444-g"/></g><path fill="#000000" fill-opacity=".56" fill-rule="nonzero" d="M304.306 98.443a8.147 8.147 0 002.285-2.822 8.267 8.267 0 00.866-3.72 8.31 8.31 0 00-.834-3.673c-.574-1.186-1.367-2.12-2.38-2.802l-.234.386-.12.188-.12.203c.852.717 1.485 1.512 1.899 2.385.455.95.692 2.07.71 3.36 0 2.163-.87 4.057-2.61 5.682.074.1.164.234.272.401l.13.204.136.208zM299.69 95c.18 0 .332-.012.454-.037.737-.135 1.26-.478 1.57-1.027.073-.133.137-.279.19-.439.054-.16.087-.303.1-.43.012-.127.018-.227.018-.3 0-.125-.01-.257-.031-.397a3.124 3.124 0 00-.188-.678 4.385 4.385 0 00-.397-.759 6.458 6.458 0 00-.652-.837 8.133 8.133 0 00-.6-.6c-.202-.181-.388-.345-.558-.49l3.735-1.571-.401-.95-4.289 1.837-.12 1.07a13.228 13.228 0 011.586 1.516c.223.251.41.488.561.709.151.22.246.402.284.545a2.106 2.106 0 01.068.662c-.02.206-.089.397-.203.574a.944.944 0 01-.402.337c-.17.078-.358.135-.564.172a4.25 4.25 0 01-.647.063c-.226.005-.443.007-.652.007h-.652V95h1.79zm-5.458 0c.327 0 .612-.013.853-.04.242-.025.453-.065.634-.12a1.948 1.948 0 00.835-.487c.15.191.34.347.574.467.233.12.525.18.876.18h.105v-1.023h-.105a.737.737 0 01-.435-.12.856.856 0 01-.266-.302 1.429 1.429 0 01-.139-.397 3.685 3.685 0 01-.057-.407 16.002 16.002 0 00-.094-.902 4.9 4.9 0 00-.151-.71l-.981.277c.077.264.13.499.16.704.029.205.043.407.043.605 0 .209-.034.392-.104.548a.942.942 0 01-.326.391c-.148.105-.34.183-.574.235a3.964 3.964 0 01-.848.078h-.777V95h.777zm.193 2.551l.846-.845-.856-.856-.845.85.855.851zm2.14.01l.845-.85-.856-.85-.845.845.855.856zM290.72 95c.1 0 .214-.007.34-.02.124-.015.25-.04.377-.08.127-.037.25-.091.366-.16a1.07 1.07 0 00.305-.277c.066.073.147.142.242.208.096.066.204.124.324.172a2.156 2.156 0 00.822.157h.167v-1.023h-.115c-.23-.003-.405-.04-.525-.11a.793.793 0 01-.279-.26.925.925 0 01-.133-.342 1.872 1.872 0 01-.028-.295 74.077 74.077 0 00.016-.856 249.488 249.488 0 00.018-1.726v-.984a54.27 54.27 0 00-.014-.954 22.985 22.985 0 00-.033-.848 8.865 8.865 0 00-.06-.658l-1.018.13c.021.171.038.385.05.643.012.257.021.539.028.845a54.896 54.896 0 01.01 1.943 906.693 906.693 0 01-.02 1.698 54.262 54.262 0 01-.016.747c-.007.09-.014.18-.023.268a1.633 1.633 0 01-.044.253c-.021.08-.048.152-.081.217a.43.43 0 01-.128.154.53.53 0 01-.217.094c-.05.01-.112.019-.185.026a4.426 4.426 0 01-.266.015h-.532V95h.652zm-5.343 3.663c.508-.08 1-.22 1.474-.418a5.392 5.392 0 001.294-.762c.388-.31.718-.672.992-1.087.273-.416.461-.881.566-1.396h.574v-1.023h-.496a4.843 4.843 0 00-.282-1.515 4.007 4.007 0 00-.302-.66 3.296 3.296 0 00-.397-.553c-.414-.446-.868-.668-1.362-.668-.222 0-.437.056-.644.17-.207.112-.4.279-.577.498a2.901 2.901 0 00-.38.67c-.108.26-.177.49-.207.694-.03.204-.044.371-.044.504 0 .139.012.278.037.417.041.264.142.497.302.699.362.449.92.696 1.675.74.191.018.363.027.514.027h.592c-.038.26-.145.526-.32.796-.176.27-.416.524-.718.764a5.16 5.16 0 01-1.09.647c-.425.191-.905.34-1.44.449l.24 1.007zm2.865-4.697l-.084.001c-.153 0-.316-.005-.49-.016a2.63 2.63 0 01-.222-.023 1.854 1.854 0 01-.26-.058 1.226 1.226 0 01-.251-.104.614.614 0 01-.196-.17.489.489 0 01-.107-.247 1.826 1.826 0 01-.018-.232 2.37 2.37 0 01.295-1.09c.071-.123.152-.223.242-.3a.433.433 0 01.287-.118c.063 0 .122.01.178.031.055.02.108.048.159.08.05.034.097.07.14.11.044.04.083.078.118.113.087.1.171.22.253.357.082.137.156.291.222.462.066.17.12.355.162.553.041.198.067.408.078.631a6.1 6.1 0 01-.506.02zM278.652 95c.212 0 .412-.01.6-.031.188-.021.365-.061.532-.12.167-.06.325-.145.473-.256.147-.111.29-.26.425-.443.16.118.334.233.521.347.188.113.384.208.587.286a2.254 2.254 0 00.843.17c.143 0 .285-.02.428-.057.226-.063.417-.175.574-.337.156-.162.28-.351.37-.569.09-.217.146-.416.167-.597.021-.18.031-.327.031-.438 0-.125-.008-.247-.026-.365a3.157 3.157 0 00-.185-.69 2.148 2.148 0 00-.357-.604c-.15-.178-.33-.321-.54-.43a1.554 1.554 0 00-.728-.165c-.23 0-.43.046-.603.138a1.696 1.696 0 00-.459.36 2.75 2.75 0 00-.36.506c-.106.19-.206.382-.3.577-.108.215-.215.425-.32.628a2.548 2.548 0 01-.376.543c-.145.158-.32.285-.525.38-.205.097-.462.144-.772.144h-.104V95h.104zm3.965-1.085c-.139 0-.295-.035-.47-.105a4.026 4.026 0 01-.865-.506l.281-.568c.087-.17.165-.319.233-.444.067-.125.132-.23.193-.313a.739.739 0 01.182-.185.35.35 0 01.196-.06.59.59 0 01.276.063c.08.041.15.094.21.159.058.064.109.135.15.214a1.698 1.698 0 01.162.425 1.669 1.669 0 01.047.396 1.562 1.562 0 01-.097.527.887.887 0 01-.143.256.333.333 0 01-.172.12.752.752 0 01-.183.02zm-7.147-3.856l.845-.845-.856-.856-.845.85.856.851zm2.139.01l.845-.85-.856-.85-.845.845.856.856zM274.88 95c.327 0 .611-.013.853-.04.242-.025.453-.065.634-.12a1.948 1.948 0 00.835-.487c.15.191.34.347.574.467.233.12.525.18.876.18h.105v-1.023h-.105a.737.737 0 01-.435-.12.856.856 0 01-.267-.302 1.429 1.429 0 01-.138-.397 3.685 3.685 0 01-.057-.407 16.002 16.002 0 00-.094-.902 4.901 4.901 0 00-.151-.71l-.981.277c.076.264.13.499.159.704.03.205.044.407.044.605 0 .209-.035.392-.104.548a.942.942 0 01-.326.391c-.148.105-.34.183-.574.235a3.964 3.964 0 01-.848.078h-.777V95h.777zm-5.118 3.85c.438-.219.864-.476 1.278-.772a6.813 6.813 0 001.103-.978c.322-.357.58-.742.775-1.156.195-.414.292-.848.292-1.304v-.02c.087.093.179.166.274.218a1.265 1.265 0 00.535.157c.077.003.14.005.188.005h.089v-1.023h-.084a.936.936 0 01-.477-.125 1.41 1.41 0 01-.415-.394c-.132-.179-.26-.41-.386-.694a11.278 11.278 0 01-.386-1.03l-.981.303c.042.128.092.29.151.482.06.193.119.4.178.618.059.22.114.443.164.67.05.229.088.442.112.64a1.947 1.947 0 01-.057.704 2.707 2.707 0 01-.285.673 3.5 3.5 0 01-.467.619 6.03 6.03 0 01-.605.56c-.219.178-.452.344-.699.499-.247.155-.496.296-.746.425l.449.923zm-.783-.407l.538-.813c-1.74-1.625-2.61-3.519-2.61-5.682.018-1.29.255-2.41.71-3.36.414-.873 1.047-1.668 1.9-2.385a8.061 8.061 0 01-.12-.203l-.12-.188-.115-.188a3.359 3.359 0 01-.12-.198c-1.023.678-1.82 1.609-2.39 2.791a8.355 8.355 0 00-.824 3.684c0 1.315.287 2.555.86 3.72a8.201 8.201 0 002.291 2.822z" mask="url(#behavior_2444-e)"/><path fill="#000000" fill-opacity=".87" fill-rule="nonzero" d="M336.306 95.157c.337 0 .66-.057.968-.17.308-.113.578-.273.811-.48a2.28 2.28 0 00.762-1.745c0-.185-.024-.388-.07-.61a3.993 3.993 0 00-.225-.705 5.241 5.241 0 00-.404-.77 5.93 5.93 0 00-.61-.8 8.441 8.441 0 00-.473-.486c-.155-.146-.31-.285-.467-.417L340 87.503l-.527-1.242-4.153 1.847-.14 1.247c.33.302.638.6.925.892.287.292.537.576.749.853.212.277.379.546.5.809.123.262.183.519.183.77 0 .19-.033.351-.099.482a.908.908 0 01-.271.323c-.115.086-.249.15-.402.196a2.995 2.995 0 01-.485.1c-.17.02-.347.032-.53.036-.182.003-.359.005-.53.005h-.651v1.336h1.737zm-1.529 0V93.82h-.234c-.136 0-.255-.014-.358-.042a.518.518 0 01-.391-.38 1.294 1.294 0 01-.04-.335v-.083c0-.108.002-.214.003-.318l.003-.158.003-.16.005-.337a25.072 25.072 0 00-.003-.918 35.019 35.019 0 01-.005-.587 27.332 27.332 0 00-.157-2.91 9.53 9.53 0 00-.104-.737l-1.31.391c.032.163.06.352.084.566.024.214.045.444.063.689a31.199 31.199 0 01.073 1.55 60.877 60.877 0 01.02 1.478c0 .37-.003.681-.01.937s-.01.44-.01.55c.003.717.188 1.253.553 1.607.365.355.9.533 1.607.533h.208zm-7.361 3.787c.31-.153.615-.325.918-.516.303-.191.59-.398.86-.621.272-.223.523-.46.755-.71.231-.25.431-.514.6-.79.168-.277.3-.564.396-.86.096-.298.144-.604.144-.917 0-.23-.02-.465-.058-.707a8.44 8.44 0 00-.148-.727 12.69 12.69 0 00-.204-.723l-.216-.686-1.31.423c.045.153.102.328.17.527.067.198.134.404.198.618.064.214.119.43.164.65a3.1 3.1 0 01.068.625c0 .213-.038.423-.115.632a2.832 2.832 0 01-.315.61 3.82 3.82 0 01-.48.574 6.38 6.38 0 01-.606.527 8.096 8.096 0 01-.686.472c-.24.148-.483.283-.73.405l.595 1.194zm-3.548-3.787c.337 0 .66-.057.968-.17.307-.113.578-.273.811-.48a2.28 2.28 0 00.762-1.745c0-.185-.024-.388-.07-.61a3.993 3.993 0 00-.225-.705 5.241 5.241 0 00-.404-.77 5.93 5.93 0 00-.61-.8 8.442 8.442 0 00-.473-.486 11.34 11.34 0 00-.467-.417l3.402-1.471-.527-1.242-4.153 1.847-.141 1.247c.33.302.639.6.926.892.287.292.536.576.749.853.212.277.379.546.5.809.122.262.183.519.183.77 0 .19-.033.351-.099.482a.908.908 0 01-.271.323c-.115.086-.249.15-.402.196a2.995 2.995 0 01-.485.1c-.17.02-.347.032-.53.036-.182.003-.359.005-.53.005h-.652v1.336h1.738zm-6.151 3.902c.441-.219.872-.475 1.29-.767.42-.292.797-.614 1.133-.965.336-.351.615-.728.837-1.13a3.27 3.27 0 00.402-1.26c.164.105.314.167.451.188.138.021.252.032.342.032h.162l.005-1.336h-.162a.893.893 0 01-.41-.091.99.99 0 01-.344-.324 3.443 3.443 0 01-.333-.631 13.853 13.853 0 01-.373-1.01l-1.253.522c.066.198.14.403.22.613.08.21.154.418.224.623.07.206.127.403.172.593.045.19.068.362.068.519 0 .219-.041.433-.123.642a2.846 2.846 0 01-.334.61c-.14.198-.308.388-.5.569a7.948 7.948 0 01-1.325.991c-.246.146-.49.282-.734.407l.585 1.205zm-2.458-3.845c.358 0 .687-.054.986-.162.348-.125.635-.305.861-.54.226-.235.371-.474.436-.717.064-.244.096-.452.096-.626 0-.181-.022-.37-.068-.569a3.915 3.915 0 00-.414-1.023 6.566 6.566 0 00-.684-.973 8.374 8.374 0 00-.86-.879 9.803 9.803 0 00-.948-.74l-.777 1.152c.167.105.347.233.54.384.193.151.385.316.576.496a9.9 9.9 0 01.554.56c.177.195.333.39.47.582.135.193.242.378.32.553.078.176.117.333.117.472v.016a.486.486 0 01-.078.263.602.602 0 01-.19.178 1.024 1.024 0 01-.264.11 2.167 2.167 0 01-.292.057c-.097.012-.19.02-.277.023a2.267 2.267 0 01-.728-.063 6.102 6.102 0 01-1.169-.407 4.35 4.35 0 01-.476-.255l-.553 1.278a5.99 5.99 0 001.244.58c.228.076.46.136.696.18.237.043.47.065.7.065.062.003.123.005.182.005z" mask="url(#behavior_2444-e)"/><path mask="url(#behavior_2444-e)" d="M16 176h258.781v40H16z"/><rect width="257.781" height="39" x="16.5" y="176.5" stroke="#000000" stroke-opacity=".24" mask="url(#behavior_2444-e)" rx="4"/><path mask="url(#behavior_2444-e)" d="M16 128h258.781v40H16z"/><rect width="257.781" height="39" x="16.5" y="128.5" stroke="#000000" stroke-opacity=".24" mask="url(#behavior_2444-e)" rx="4"/><path fill="#000" fill-opacity=".56" fill-rule="nonzero" d="M351.342 193.286l.986-.986-.998-.998-.987.992.999.992zm2.495.012l.986-.992-.998-.992-.986.986.998.998zM351.183 200c.333 0 .655-.022.965-.067.31-.045.596-.122.855-.231.26-.11.49-.256.691-.439.201-.182.363-.411.484-.687.122-.28.183-.605.183-.974 0-.065-.002-.13-.006-.195-.029-.45-.134-.97-.317-1.558a7.904 7.904 0 00-.195-.563 12.302 12.302 0 00-.334-.786 1.499 1.499 0 01-.055-.124l-1.084.535.53 1.303a3.959 3.959 0 01.274 1.038c.008.107.012.187.012.24 0 .098-.006.189-.018.274-.02.13-.05.237-.091.323a.953.953 0 01-.341.398 1.674 1.674 0 01-.506.216c-.19.05-.397.079-.62.089-.224.01-.453.015-.688.015h-1.175V200h1.436zm-1.193 0v-1.193h-.121c-.256 0-.476-.026-.66-.08a.95.95 0 01-.418-.218.507.507 0 01-.161-.314 3.288 3.288 0 01-.021-.386v-3.056a42.483 42.483 0 00-.125-3.208 9.022 9.022 0 00-.094-.76l-1.193.218c.036.191.067.436.094.734.026.298.049.624.067.977.018.353.031.718.04 1.096.008.377.012.74.012 1.09a89.654 89.654 0 010 1.88 184.943 184.943 0 00-.012.837v.07c0 .097.001.214.005.35a2.35 2.35 0 00.216.886c.072.154.174.298.308.432.22.219.486.381.8.487.315.105.695.158 1.142.158h.121zm4.073-47.945a28.5 28.5 0 00.1-1.905c.01-.597.015-1.074.015-1.43 0-.593-.006-1.226-.018-1.9a55.636 55.636 0 00-.31-4.431l-1.193.182c.137 1.279.247 2.902.328 4.87.012.337.018.694.018 1.071 0 .313-.004.64-.012.98-.02.755-.063 1.587-.128 2.496l1.2.067zm-4.42-5.515l.993-.992-.999-.998-.992.992.998.998zm-2.66 9.818c.341-.166.677-.354 1.008-.563.33-.209.645-.437.943-.685.299-.247.575-.51.828-.79.254-.28.473-.575.658-.883.184-.309.328-.628.432-.96.103-.33.155-.672.155-1.025 0-.178-.014-.361-.043-.548a8.704 8.704 0 00-.106-.569c-.043-.193-.09-.387-.14-.584l-.15-.588a9.053 9.053 0 00-.151-.556 65.409 65.409 0 01-.17-.564l-1.157.366c.11.34.213.681.31 1.022.045.167.091.337.14.512.049.174.093.349.134.523.04.175.074.345.1.511.027.167.04.325.04.475 0 .394-.095.775-.286 1.145a4.51 4.51 0 01-.758 1.046 6.964 6.964 0 01-1.074.91 9.912 9.912 0 01-1.242.734l.53 1.071z" mask="url(#behavior_2444-e)"/><circle cx="351" cy="177" r="1" fill="#000000" fill-opacity=".24" mask="url(#behavior_2444-e)"/><circle cx="351" cy="172" r="1" fill="#000000" fill-opacity=".24" mask="url(#behavior_2444-e)"/><circle cx="351" cy="167" r="1" fill="#000000" fill-opacity=".24" mask="url(#behavior_2444-e)"/><path fill="#000000" fill-opacity=".87" fill-rule="nonzero" d="M335.948 266.271l.887-.887-.898-.897-.887.892.898.892zm1.972.01l.887-.891-.897-.893-.887.887.897.898zm-2.322 5.876c.393 0 .763-.04 1.109-.12.346-.08.649-.208.908-.384a1.88 1.88 0 00.613-.686c.15-.282.224-.624.224-1.028 0-.226-.02-.457-.062-.694a6.81 6.81 0 00-.165-.707 7.944 7.944 0 00-.232-.686 16.717 16.717 0 00-.26-.631l-1.206.595a8.618 8.618 0 01.642 1.753c.038.163.057.29.057.38a.65.65 0 01-.159.46c-.106.114-.24.202-.402.263-.162.061-.337.101-.527.12-.19.02-.366.029-.53.029h-1.11v1.336h1.1zm-6.881 0a8.512 8.512 0 001.62-.16c.273-.054.533-.126.782-.216s.467-.202.655-.334c.174.143.365.26.574.35.209.09.429.162.66.216.231.054.475.091.73.112.256.021.518.032.785.032h.183v-1.336h-.172c-.271 0-.53-.015-.777-.044a4.606 4.606 0 01-.69-.134 4.3 4.3 0 00.905-1.096c.118-.2.205-.391.262-.57.057-.18.086-.339.086-.478a1.186 1.186 0 00-.052-.347 1.082 1.082 0 00-.149-.308 1.62 1.62 0 00-.292-.318 1.924 1.924 0 00-.483-.29 2.97 2.97 0 00-.86-.247 6.137 6.137 0 00-.705-.05c-.16 0-.318.009-.475.026a4.198 4.198 0 00-1.687.543c-.207.118-.41.264-.608.438l-.073 1.085a28.32 28.32 0 01.821.796c.124.123.246.247.368.37l.386.39a4.153 4.153 0 01-.414.098c-.148.028-.3.052-.454.073a6.92 6.92 0 01-.932.063h-.182v1.336h.188zm3.036-2.098c-.076-.076-.17-.17-.282-.279l-.36-.36c-.128-.13-.26-.27-.396-.417a9.952 9.952 0 01-.386-.446c.097-.046.208-.087.331-.126.123-.038.251-.07.383-.096.133-.026.263-.047.392-.063a2.843 2.843 0 01.712 0c.123.016.245.037.365.063a2.8 2.8 0 01.342.096c.108.039.203.08.287.126-.031.09-.1.205-.204.344-.104.139-.224.282-.36.428a6.415 6.415 0 01-.425.417c-.148.132-.28.237-.399.313zm-3.016 2.098v-1.336h-.12a.8.8 0 01-.32-.06.787.787 0 01-.246-.167 1.105 1.105 0 01-.188-.256 3.363 3.363 0 01-.153-.326l-1.31-3.156c-.083-.202-.162-.39-.235-.564a18.35 18.35 0 01-.198-.49l-1.237.516 1.665 4.018c-.09.066-.198.127-.321.185a3.047 3.047 0 01-1.187.279c-.25 0-.513-.065-.788-.196-.275-.13-.57-.341-.887-.634l-.767 1.08c.338.348.698.62 1.083.814a2.68 2.68 0 001.229.293c.23 0 .446-.01.652-.03a3.86 3.86 0 00.594-.1 2.936 2.936 0 001.06-.512c.083.09.17.175.26.253.09.078.195.146.314.203.118.058.256.103.414.136.159.033.347.05.566.05h.12zm-8.64-.01l1.367-.21c.014-.27.028-.562.042-.874.014-.31.024-.646.031-1.006a77.258 77.258 0 00.006-2.528 38.946 38.946 0 00-.063-1.772 26.373 26.373 0 00-.183-1.901l-1.34.438c.059.574.106 1.175.14 1.803.035.627.066 1.298.094 2.01.01.31.016.643.016.997 0 .88-.037 1.894-.11 3.042zm-3.563.067c.358 0 .687-.054.986-.162.348-.125.635-.305.86-.54.227-.235.372-.474.437-.717.064-.244.096-.452.096-.626 0-.181-.023-.37-.068-.569a3.915 3.915 0 00-.415-1.023 6.566 6.566 0 00-.683-.973 8.374 8.374 0 00-.86-.879 9.803 9.803 0 00-.948-.74l-.777 1.152c.167.105.347.233.54.384.193.151.385.316.576.496a9.9 9.9 0 01.553.56c.178.195.334.39.47.582.136.193.242.378.32.553.079.176.118.333.118.472v.016a.486.486 0 01-.078.263.602.602 0 01-.19.178 1.024 1.024 0 01-.264.11 2.167 2.167 0 01-.292.057c-.098.012-.19.02-.277.023a2.267 2.267 0 01-.728-.063 6.102 6.102 0 01-1.169-.407 4.35 4.35 0 01-.477-.255l-.553 1.278a5.99 5.99 0 001.245.58c.227.076.46.136.696.18.237.043.47.065.7.065.062.003.123.005.182.005zm-8.744-.068l1.367-.209.041-.874c.014-.31.025-.646.032-1.006a77.258 77.258 0 00.005-2.528 38.946 38.946 0 00-.063-1.772 26.373 26.373 0 00-.182-1.901l-1.341.438c.059.574.106 1.175.14 1.803.035.627.067 1.298.094 2.01.01.31.016.643.016.997 0 .88-.036 1.894-.11 3.042zm-4.221.01c.393 0 .762-.04 1.108-.12.346-.08.65-.207.908-.383a1.88 1.88 0 00.613-.686c.15-.282.225-.624.225-1.028 0-.226-.021-.457-.063-.694a6.81 6.81 0 00-.164-.707 7.944 7.944 0 00-.233-.686 16.717 16.717 0 00-.26-.631l-1.206.595c.094.184.184.382.27.594a8.62 8.62 0 01.372 1.159c.038.163.058.29.058.38a.65.65 0 01-.16.46c-.106.114-.24.202-.401.263-.162.061-.338.101-.527.12-.19.02-.366.029-.53.029h-1.111v1.336h1.1zm-.047 2.432l.887-.887-.898-.898-.887.893.898.892zm1.972.01l.887-.892-.898-.892-.886.887.897.897zm-7.44 1.461c.442-.219.872-.475 1.291-.767.42-.292.797-.614 1.132-.965.336-.351.615-.728.838-1.13a3.27 3.27 0 00.402-1.26c.163.105.313.167.45.188.138.021.252.032.343.032h.161l.006-1.336h-.162a.893.893 0 01-.41-.091.99.99 0 01-.344-.324 3.443 3.443 0 01-.334-.631 13.853 13.853 0 01-.373-1.01l-1.252.522c.066.198.139.403.219.613.08.21.155.418.224.623.07.206.127.403.172.593.046.19.068.362.068.519 0 .219-.04.433-.122.642a2.846 2.846 0 01-.334.61c-.141.198-.308.388-.501.569a7.948 7.948 0 01-1.325.991c-.246.146-.49.282-.733.407l.584 1.205zm-2.744-3.902c.393 0 .753-.043 1.082-.128.329-.086.611-.218.848-.397.237-.179.42-.409.553-.689.132-.28.198-.614.198-1.004 0-.226-.02-.457-.062-.694a6.81 6.81 0 00-.165-.707 7.944 7.944 0 00-.232-.686 16.717 16.717 0 00-.26-.631l-1.206.595a8.62 8.62 0 01.642 1.753c.038.163.057.29.057.38a.731.731 0 01-.133.46.858.858 0 01-.342.263 1.6 1.6 0 01-.467.12 4.56 4.56 0 01-.503.029h-.84v1.336h.83zm.855 2.697l1.002-1.002-1.002-.996-.996.996.996 1.002zm-7.413-10.355l4.57-1.826-.267-.543-4.264 1.681-.04.688zm-.642 7.673c.205 0 .427-.002.667-.005.24-.004.484-.017.73-.04.248-.022.493-.057.736-.106.244-.049.473-.117.687-.204.213-.087.407-.196.581-.328s.317-.294.428-.486c.327.38.705.666 1.135.859.43.193.914.291 1.453.295h.156v-1.336h-.198c-.233 0-.462-.049-.686-.146a2.419 2.419 0 01-.618-.389 2.821 2.821 0 01-.493-.553 2.202 2.202 0 01-.305-.644c-.08-.265-.2-.526-.36-.786a6.169 6.169 0 00-.559-.761 8.71 8.71 0 00-.694-.723c-.25-.233-.504-.459-.761-.678l4.007-1.685-.527-1.242-4.81 2.071-.152 1.367c.167.14.35.285.548.438.198.153.397.312.597.475.2.164.394.33.582.501.188.17.354.343.498.517.145.174.26.348.347.524.087.176.13.35.13.524 0 .195-.046.36-.14.493a1.11 1.11 0 01-.384.334 2.177 2.177 0 01-.558.206c-.21.049-.433.085-.668.107a9.636 9.636 0 01-.717.042 23.3 23.3 0 01-1.62-.01 13.268 13.268 0 01-.898-.066c-.29-.03-.564-.07-.821-.12a4.534 4.534 0 01-.697-.185 2.267 2.267 0 01-.524-.26.859.859 0 01-.303-.342.55.55 0 01-.042-.225c0-.045.004-.094.01-.146.022-.15.06-.302.118-.456.058-.155.123-.302.196-.441.073-.14.139-.249.198-.329l-.97-.814a6.237 6.237 0 00-.384.715c-.12.26-.206.513-.258.756a3.25 3.25 0 00-.073.887c.02.282.103.548.245.799.167.254.364.47.59.65.226.178.472.327.738.445a4.4 4.4 0 00.856.277c.304.066.62.115.947.149.327.033.661.053 1.004.062.343.009.688.013 1.036.013z" mask="url(#behavior_2444-e)"/><rect width="88" height="31" x="270.5" y="297.5" stroke="#000000" stroke-opacity=".12" mask="url(#behavior_2444-e)" rx="15.5"/><path fill="#000000" fill-opacity=".56" fill-rule="nonzero" d="M343.494 317c.333 0 .642-.022.928-.067a2.82 2.82 0 00.776-.231c.232-.11.435-.256.612-.439.177-.182.326-.411.447-.687.122-.28.183-.605.183-.974 0-.065-.002-.13-.006-.195-.028-.45-.134-.97-.317-1.558a7.904 7.904 0 00-.194-.563 12.306 12.306 0 00-.335-.786 1.499 1.499 0 01-.055-.124l-1.083.535.53 1.303a3.959 3.959 0 01.273 1.038c.008.107.012.187.012.24 0 .098-.006.189-.018.274-.02.13-.05.237-.091.323a1.09 1.09 0 01-.305.398 1.28 1.28 0 01-.426.216 2.29 2.29 0 01-.542.089c-.198.01-.415.015-.65.015h-.707V317h.968zm.998 3.171l.992-.992-.998-.998-.992.992.998.998zM342.77 317v-1.193h-.122c-.244 0-.445-.031-.603-.094a1.088 1.088 0 01-.395-.262 1.536 1.536 0 01-.271-.408c-.075-.16-.153-.338-.235-.533-.158-.369-.307-.723-.447-1.062a3423.239 3423.239 0 01-1.415-3.436l-1.108.463 1.923 4.626a2.31 2.31 0 01-.81.511c-.218.085-.404.135-.556.15a4.04 4.04 0 01-.344.02c-.162 0-.325-.018-.487-.054a2.792 2.792 0 01-.737-.28 3.6 3.6 0 01-.736-.542l-.688.968c.345.357.721.634 1.13.83a3.02 3.02 0 001.33.296c.287 0 .547-.017.778-.052.232-.034.446-.085.643-.152.196-.067.381-.151.553-.253a4.65 4.65 0 00.515-.353 2.1 2.1 0 00.304.314c.118.1.255.186.411.259.156.073.337.13.542.173.205.043.44.064.703.064h.122zm-13.617 4.273a7.348 7.348 0 001.23-.301 7.003 7.003 0 001.147-.505c.363-.201.702-.436 1.017-.704.314-.267.591-.566.83-.894.24-.329.437-.687.59-1.075.155-.387.254-.804.3-1.25a5.636 5.636 0 00.005-1.108 6.03 6.03 0 00-.2-1.066 5.049 5.049 0 00-.381-.958 3.741 3.741 0 00-.545-.789c-.483-.519-1.012-.779-1.589-.779-.26 0-.51.066-.751.198a2.284 2.284 0 00-.673.581c-.17.22-.319.48-.444.783a3.435 3.435 0 00-.24.81 4.237 4.237 0 00-.052.587c0 .162.014.324.042.487.049.308.167.58.353.815.422.524 1.074.812 1.954.865.223.02.423.03.6.03h.69c-.044.304-.169.614-.374.928a3.805 3.805 0 01-.837.892 6.02 6.02 0 01-1.272.755 7.854 7.854 0 01-1.68.523l.28 1.175zm3.343-5.479h-.099c-.178 0-.369-.005-.572-.017a3.068 3.068 0 01-.258-.028c-.1-.014-.201-.036-.305-.067a1.43 1.43 0 01-.292-.122.716.716 0 01-.228-.197.57.57 0 01-.125-.29 2.13 2.13 0 01-.021-.27 2.765 2.765 0 01.344-1.272c.083-.143.177-.26.283-.35a.505.505 0 01.334-.138c.073 0 .142.013.207.037a.94.94 0 01.186.094c.059.039.114.082.164.128.051.047.097.09.137.131.102.118.2.257.296.417.095.16.181.34.258.539.077.199.14.414.189.645.049.231.079.477.091.736-.158.013-.301.02-.429.022l-.088.001-.072.001zm-9.022-1.734l.992-.992-.998-.998-.992.992.998.998zm-.268 7.122c.5 0 .973-.053 1.421-.159a4.386 4.386 0 001.227-.483c.37-.218.693-.492.97-.825.279-.333.495-.729.649-1.187.146-.438.225-.788.237-1.05.013-.262.019-.437.019-.527a6.278 6.278 0 00-.344-2.066 9.757 9.757 0 00-.347-.889 6.902 6.902 0 00-.46-.867l-1.01.645a.39.39 0 01.043.065l.07.114c.07.12.153.285.246.494.093.209.188.454.283.736a5.788 5.788 0 01.301 1.854v.073a3.791 3.791 0 01-.176 1.053c-.09.284-.223.538-.402.764-.179.225-.4.415-.663.572-.264.156-.57.275-.92.356a5.17 5.17 0 01-1.168.122c-.345 0-.653-.038-.922-.113a2.885 2.885 0 01-.707-.292c-.2-.12-.372-.255-.514-.405a2.65 2.65 0 01-.353-.46 2.218 2.218 0 01-.21-.45 2.4 2.4 0 01-.094-.38 3.57 3.57 0 01-.03-.719c.011-.243.039-.483.081-.718.043-.235.097-.462.162-.679.065-.217.133-.417.204-.6.07-.182.14-.341.21-.477.069-.136.13-.24.182-.314l-.968-.712a8.651 8.651 0 00-.477.922c-.153.34-.28.697-.384 1.075a5.673 5.673 0 00-.192.983 5.374 5.374 0 00.018 1.41c.082.53.24.993.472 1.387.234.393.527.72.88.977s.756.45 1.208.578c.453.128.939.192 1.458.192zm-9.897-4.127a28.5 28.5 0 00.1-1.905c.01-.597.015-1.074.015-1.43 0-.593-.006-1.226-.018-1.9a55.636 55.636 0 00-.31-4.431l-1.193.182c.138 1.279.247 2.902.328 4.87.012.337.019.694.019 1.071 0 .313-.004.64-.013.98-.02.755-.063 1.587-.127 2.496l1.199.067zm-6.142-.055c.333 0 .654-.022.965-.067.31-.045.595-.122.855-.231.26-.11.49-.256.69-.439.202-.182.363-.411.485-.687.121-.28.182-.605.182-.974 0-.065-.002-.13-.006-.195-.028-.45-.134-.97-.316-1.558a7.904 7.904 0 00-.195-.563 12.304 12.304 0 00-.335-.786 1.499 1.499 0 01-.055-.124l-1.083.535.53 1.303a3.959 3.959 0 01.273 1.038c.009.107.013.187.013.24 0 .098-.007.189-.019.274-.02.13-.05.237-.091.323a.953.953 0 01-.34.398 1.674 1.674 0 01-.506.216c-.19.05-.398.079-.621.089-.223.01-.452.015-.688.015h-1.175V317h1.437zm-.304 2.977l.986-.987-.999-.998-.986.992.999.993zm2.495.012l.986-.992-.998-.993-.986.986.998.999zm-8.692 1.503a11.123 11.123 0 001.491-.9 7.948 7.948 0 001.288-1.142c.375-.416.676-.865.904-1.348.227-.483.34-.99.34-1.522v-.024c.102.11.209.194.32.255a1.475 1.475 0 00.624.183c.09.004.162.006.22.006h.103v-1.193h-.098c-.203 0-.388-.049-.557-.146a1.645 1.645 0 01-.484-.46 4.3 4.3 0 01-.45-.81c-.146-.33-.296-.73-.45-1.201l-1.145.353c.049.15.108.337.177.563.069.225.138.465.207.721.069.256.133.516.191.782.06.266.103.514.131.746a2.272 2.272 0 01-.067.822 3.158 3.158 0 01-.331.785c-.149.251-.33.492-.545.721-.215.23-.45.447-.706.654a8.3 8.3 0 01-.816.582c-.288.18-.578.346-.87.496l.523 1.077zM297.38 317c.333 0 .642-.022.928-.067a2.82 2.82 0 00.776-.231c.232-.11.436-.256.612-.439.177-.182.326-.411.448-.687.121-.28.182-.605.182-.974 0-.065-.002-.13-.006-.195-.028-.45-.134-.97-.316-1.558a7.904 7.904 0 00-.195-.563 12.302 12.302 0 00-.335-.786l-.041-.09a.247.247 0 01-.014-.034l-1.083.535.53 1.303a3.959 3.959 0 01.273 1.038c.008.107.012.187.012.24 0 .098-.006.189-.018.274-.02.13-.05.237-.091.323a1.09 1.09 0 01-.304.398 1.28 1.28 0 01-.427.216 2.29 2.29 0 01-.541.089c-.2.01-.416.015-.652.015h-.706V317h.968zm.998 3.171l.993-.992-.999-.998-.992.992.998.998zm-8.625-11.857l4.894-2.07-.286-.614-4.565 1.905-.043.779zm6.903 8.686v-1.193h-.17a4.062 4.062 0 01-.664-.06 2.172 2.172 0 01-.542-.171 2.384 2.384 0 01-.627-.42 2.84 2.84 0 01-.435-.524c-.12-.186-.22-.38-.298-.578-.08-.199-.151-.396-.216-.59a4.752 4.752 0 00-.442-.929 7.121 7.121 0 00-.657-.907 8.656 8.656 0 00-.834-.852c-.306-.274-.63-.53-.97-.77l4.82-2.033-.457-1.108-5.46 2.35-.164 1.345c.162.126.353.276.572.45a15.393 15.393 0 011.367 1.236c.225.231.423.465.593.7.17.235.299.458.384.667.085.209.128.398.128.569 0 .044-.002.089-.006.134-.025.215-.121.414-.29.596-.168.183-.43.341-.788.475-.272.105-.667.19-1.187.253-.52.062-1.193.112-2.02.149a7.446 7.446 0 01-.78-.012 10.485 10.485 0 01-1.753-.28 7.116 7.116 0 01-.797-.25 3.113 3.113 0 01-.627-.317 1.008 1.008 0 01-.36-.377.927.927 0 01-.09-.42v-.055c.007-.174.042-.355.103-.541.06-.187.139-.37.234-.548.096-.179.194-.34.295-.481l-.961-.718a1.723 1.723 0 00-.07.11c-.035.056-.077.128-.128.215a6.369 6.369 0 00-.35.71c-.179.405-.277.712-.295.918a5.82 5.82 0 00-.028.427c0 .247.037.474.11.681.093.272.24.514.441.725.201.21.44.396.715.557.276.16.584.295.922.404.34.11.694.2 1.066.268.371.07.751.119 1.141.15.39.03.775.045 1.157.045.718 0 1.346-.02 1.883-.058a7.414 7.414 0 001.41-.222c.401-.11.746-.264 1.034-.463.288-.198.54-.458.755-.779.361.503.82.882 1.376 1.135a4.443 4.443 0 001.838.387h.122z" mask="url(#behavior_2444-e)"/><rect width="31" height="31" x="230.5" y="297.5" stroke="#000000" stroke-opacity=".12" mask="url(#behavior_2444-e)" rx="15.5"/><path fill="#000000" fill-opacity=".56" fill-rule="nonzero" d="M247.294 317.158c0-.353-.003-.724-.01-1.114a40.27 40.27 0 00-.109-2.404c-.03-.406-.07-.8-.118-1.18a13.9 13.9 0 00-.509-2.384 8.054 8.054 0 00-.83-1.841l-1.011.645a6.36 6.36 0 01.727 1.656c.18.625.32 1.296.417 2.014.098.719.16 1.468.189 2.25.028.78.043 1.567.043 2.358h1.21z" mask="url(#behavior_2444-e)"/><rect width="31" height="31" x="110.5" y="297.5" stroke="#000000" stroke-opacity=".12" mask="url(#behavior_2444-e)" rx="15.5"/><path fill="#000000" fill-opacity=".56" fill-rule="nonzero" d="M125.417 317.06v-.797a46.604 46.604 0 00-.037-1.856c-.012-.32-.03-.63-.052-.928a15.35 15.35 0 00-.085-.843 6.482 6.482 0 00-.125-.694c.272.251.59.43.953.538.363.108.735.162 1.117.162.406 0 .8-.051 1.18-.152.382-.102.747-.28 1.096-.536l-.535-.986a1.856 1.856 0 01-.384.213 2.988 2.988 0 01-.432.14c-.15.036-.304.064-.463.082-.158.018-.312.03-.462.034h-.122c-.138 0-.27-.01-.396-.03a1.347 1.347 0 01-.447-.144 1.033 1.033 0 01-.338-.292 1.18 1.18 0 01-.2-.466 1.478 1.478 0 01-.007-.134c0-.134.023-.26.067-.377.061-.154.15-.29.265-.408a1.37 1.37 0 01.414-.286 1.25 1.25 0 01.6-.134c.109 0 .21.012.304.037a2.338 2.338 0 01.69.328c.1.07.185.134.256.195.071.061.13.112.174.152l.06.061.871-.84c-.081-.077-.18-.168-.298-.274a3.608 3.608 0 00-.45-.335 3.13 3.13 0 00-.859-.413 2.847 2.847 0 00-.791-.122h-.104c-.255.012-.502.06-.74.146a2.61 2.61 0 00-1.567 1.546 7.481 7.481 0 00-.328-.773c-.126-.256-.26-.5-.402-.73l-1.01.639a6.36 6.36 0 01.727 1.655c.18.625.32 1.297.417 2.015.097.718.16 1.468.189 2.25.028.78.042 1.567.042 2.358h1.212z" mask="url(#behavior_2444-e)"/><rect width="39" height="31" x="62.5" y="297.5" stroke="#000000" stroke-opacity=".12" mask="url(#behavior_2444-e)" rx="15.5"/><path fill="#000000" fill-opacity=".56" fill-rule="nonzero" d="M78.983 316.002v-3.147h2.775v-1.193h-2.775v-2.904h-1.266v2.904H74.94v1.193h2.776v3.147h1.266zm6.434 1.059v-.798a46.604 46.604 0 00-.037-1.856c-.012-.32-.03-.63-.052-.928a15.35 15.35 0 00-.085-.843 6.483 6.483 0 00-.125-.694c.272.251.59.43.953.538.363.108.735.162 1.117.162.406 0 .8-.051 1.18-.152.382-.102.747-.28 1.096-.536l-.535-.986a1.856 1.856 0 01-.384.213 2.988 2.988 0 01-.432.14c-.15.036-.304.064-.463.082-.158.018-.312.03-.462.034h-.122c-.138 0-.27-.01-.396-.03a1.347 1.347 0 01-.447-.144 1.033 1.033 0 01-.338-.292 1.18 1.18 0 01-.2-.466 1.478 1.478 0 01-.007-.134c0-.134.023-.26.067-.377.061-.154.15-.29.265-.408a1.37 1.37 0 01.414-.286 1.25 1.25 0 01.6-.134c.109 0 .21.012.304.037a2.338 2.338 0 01.69.328c.1.07.185.134.256.195.071.061.13.112.174.152l.06.061.871-.84c-.081-.077-.18-.168-.298-.274a3.608 3.608 0 00-.45-.335 3.13 3.13 0 00-.859-.413 2.847 2.847 0 00-.791-.122h-.104c-.255.012-.502.06-.74.146a2.61 2.61 0 00-1.567 1.546 7.481 7.481 0 00-.328-.773c-.126-.256-.26-.5-.402-.73l-1.01.639a6.36 6.36 0 01.727 1.655c.18.625.32 1.297.417 2.015.097.718.16 1.468.189 2.25.028.78.042 1.567.042 2.358h1.212z" mask="url(#behavior_2444-e)"/><g fill-opacity=".87" fill-rule="nonzero" mask="url(#behavior_2444-e)"><use fill="#000000" xlink:href="#behavior_2444-h"/></g><path fill="#000000" fill-opacity=".56" d="M354.254 372.196a.669.669 0 00-.946 0l-2.583 2.583-2.583-2.583a.669.669 0 10-.945.946l3.055 3.056a.667.667 0 00.947 0l3.055-3.056a.668.668 0 000-.946m0-105a.669.669 0 00-.946 0l-2.583 2.583-2.583-2.583a.669.669 0 10-.945.946l3.055 3.056a.667.667 0 00.947 0l3.055-3.056a.668.668 0 000-.946m0-177a.669.669 0 00-.946 0l-2.583 2.583-2.583-2.583a.669.669 0 10-.945.946l3.055 3.056a.667.667 0 00.947 0l3.055-3.056a.668.668 0 000-.946" mask="url(#behavior_2444-e)"/><path fill="#000000" fill-opacity=".12" mask="url(#behavior_2444-e)" d="M16 240h343v1H16zM16 345h343v1H16z"/><g mask="url(#behavior_2444-e)"><use fill="#000" filter="url(#behavior_2444-i)" xlink:href="#behavior_2444-j"/><use fill="#FFF" fill-opacity=".98" xlink:href="#behavior_2444-j"/></g><path fill="#000000" fill-opacity=".87" fill-rule="nonzero" d="M355.817 28.16l1.168-1.169-1.168-1.162-1.163 1.162 1.163 1.169zm-2.472 8.023c.47 0 .926-.017 1.367-.05.44-.032.853-.092 1.238-.182.386-.089.738-.21 1.057-.365a2.78 2.78 0 00.821-.596c.23-.244.408-.536.536-.877.128-.34.192-.743.192-1.205 0-.272-.028-.56-.083-.861a5.518 5.518 0 00-.24-.892 5.04 5.04 0 00-.39-.834 3.483 3.483 0 00-.53-.697c-.198-.201-.42-.36-.663-.478a1.78 1.78 0 00-.785-.176c-.227 0-.438.041-.633.124a1.966 1.966 0 00-.535.341 2.528 2.528 0 00-.433.502 3.63 3.63 0 00-.523 1.273 3.439 3.439 0 00-.067.663c0 .365.072.685.216.959.144.274.338.502.581.685.244.182.527.32.85.41.322.092.662.137 1.019.137h.62a1.777 1.777 0 01-.529.232 6.4 6.4 0 01-.84.176c-.324.049-.683.086-1.077.113-.394.026-.804.04-1.23.04h-.146v1.558h.207zm3.11-3.67a5.43 5.43 0 01-.813-.049 1.473 1.473 0 01-.389-.104.622.622 0 01-.264-.21.6.6 0 01-.098-.356v-.024c0-.147.03-.295.092-.445.06-.154.14-.292.237-.414a1.21 1.21 0 01.304-.28.553.553 0 01.28-.097c.02 0 .04.002.061.006.175.012.33.093.466.243s.253.328.353.533c.1.205.183.416.25.633.066.217.118.399.155.545a7.766 7.766 0 01-.369.015l-.264.003zm-8.278 3.67c.284 0 .596-.003.935-.01.339-.006.668-.03.989-.073.32-.042.612-.11.873-.2.262-.092.46-.223.594-.393.19.199.422.361.694.487.272.126.604.189.998.189h.122v-1.559h-.122a.776.776 0 01-.438-.124 1.193 1.193 0 01-.32-.31 1.536 1.536 0 01-.204-.409 1.914 1.914 0 01-.091-.417c-.016-.215-.031-.4-.046-.557a10.32 10.32 0 00-.048-.438 4.777 4.777 0 00-.073-.408 7.395 7.395 0 00-.125-.471l-1.498.42c.106.36.185.656.238.885.053.23.079.413.079.551 0 .211-.045.397-.134.557-.09.16-.234.293-.435.399-.201.105-.464.185-.788.24a7.369 7.369 0 01-1.2.082h-.225v1.559h.225zm1.005 2.836l1.035-1.035-1.047-1.047-1.035 1.041 1.047 1.041zm2.3.012l1.035-1.04-1.047-1.041-1.034 1.034 1.047 1.047zm-6.72-2.848c.114 0 .242-.007.384-.022.142-.014.286-.041.432-.082.146-.04.29-.096.43-.167.14-.071.268-.164.386-.277a2.433 2.433 0 001.135.508c.152.026.308.04.466.04h.2v-1.559h-.133c-.313 0-.548-.088-.706-.264-.159-.177-.238-.42-.238-.728 0-.438.007-.941.022-1.51.014-.568.02-1.235.02-2.002v-.515l-.002-.51a36.56 36.56 0 00-.058-1.854 10.727 10.727 0 00-.067-.743l-1.552.201c.024.203.043.428.058.676.014.247.024.511.03.791.006.28.01.571.012.874a137.433 137.433 0 01-.03 3.999c-.006.233-.01.396-.01.49-.015.24-.054.43-.115.572a.847.847 0 01-.237.332.748.748 0 01-.335.155 2.147 2.147 0 01-.408.036h-.444v1.559h.76zm-4.254-5.917l1.035-1.035-1.047-1.047-1.035 1.041 1.047 1.041zm2.3.012l1.035-1.04-1.046-1.041-1.035 1.034 1.047 1.047zm-3.767 5.905c.284 0 .595-.003.934-.01.34-.006.669-.03.99-.073.32-.042.611-.11.873-.2.262-.092.46-.223.593-.393.191.199.422.361.694.487.272.126.605.189.998.189h.122v-1.559h-.122a.776.776 0 01-.438-.124 1.193 1.193 0 01-.32-.31 1.536 1.536 0 01-.203-.409 1.914 1.914 0 01-.092-.417 37.15 37.15 0 00-.045-.557 10.32 10.32 0 00-.049-.438 4.777 4.777 0 00-.073-.408 7.394 7.394 0 00-.125-.471l-1.497.42c.105.36.185.656.237.885.053.23.08.413.08.551 0 .211-.045.397-.135.557-.089.16-.234.293-.435.399-.2.105-.463.185-.788.24a7.369 7.369 0 01-1.2.082h-.224v1.559h.225zm-5.375 4.553a11.814 11.814 0 001.507-.895c.489-.341.929-.716 1.32-1.126.392-.41.718-.85.977-1.318.26-.469.416-.959.47-1.47.19.122.365.195.526.22.16.023.293.036.398.036h.189l.006-1.559h-.189c-.178 0-.337-.035-.477-.106a1.156 1.156 0 01-.402-.378 4.017 4.017 0 01-.39-.736c-.132-.31-.277-.703-.435-1.178l-1.46.609c.076.231.162.47.255.715.093.246.18.488.262.727.08.24.148.47.2.691.053.221.08.423.08.606 0 .256-.048.505-.143.749a3.32 3.32 0 01-.39.712c-.164.231-.36.452-.584.663a8.676 8.676 0 01-.728.609c-.26.195-.532.377-.818.548-.287.17-.572.328-.856.475l.682 1.406zm-3.512-4.535a6.549 6.549 0 001.026-.097 5.06 5.06 0 00.53-.122c.168-.049.31-.108.428-.177.345-.207.624-.464.837-.773.213-.308.346-.588.399-.84.053-.251.079-.458.079-.62a2.479 2.479 0 00-.578-1.589 3.38 3.38 0 00-.502-.506 4.724 4.724 0 00-.603-.407 8.726 8.726 0 00-.77-.39l-.998-.45c-.183-.082-.38-.173-.59-.274a90.448 90.448 0 01-1.772-.877l-.21-.104a18.26 18.26 0 00-.167-.082.79.79 0 00-.17-.07l-.908 1.48c.126.069.218.117.277.146a.783.783 0 00.137.054 2.34 2.34 0 00-.502.445c-.144.17-.265.355-.362.554-.098.199-.17.409-.22.63a3.091 3.091 0 00.07 1.598c.096.304.243.584.442.84a82.246 82.246 0 00-.676.04c-.093.005-.19.01-.289.011-.1.002-.22.003-.362.003h-.116v1.559h.116c.613 0 1.185-.032 1.717-.095a7.42 7.42 0 001.37-.277c.157.07.338.128.54.177a7.539 7.539 0 001.258.192c.209.014.398.02.569.02zm-2.356-1.997a.97.97 0 01-.34-.185 1.62 1.62 0 01-.284-.305 1.816 1.816 0 01-.207-.374 1.553 1.553 0 01-.106-.396 1.425 1.425 0 01.073-.578c.065-.199.157-.38.277-.542.12-.162.248-.287.386-.374a.744.744 0 01.396-.13c.033 0 .065.001.097.005.11.016.232.056.366.119.134.063.256.148.368.256.112.107.196.227.253.359a1 1 0 01.085.398 2.154 2.154 0 01-.189.819c-.085.18-.188.334-.307.46a1.47 1.47 0 01-.402.301c-.148.075-.303.13-.466.167zm2.526.457a3.027 3.027 0 01-.39-.024c.244-.305.428-.64.552-1.008a3.494 3.494 0 00.161-1.555c.207.097.402.206.584.326.183.12.341.245.475.377.134.132.24.267.32.405.079.138.118.272.118.401a.697.697 0 01-.14.414c-.093.13-.22.244-.383.341a2.227 2.227 0 01-.575.235 2.8 2.8 0 01-.722.088zm-5.496 1.522v-1.559h-.274a1.6 1.6 0 01-.417-.048.604.604 0 01-.457-.444 1.51 1.51 0 01-.045-.39v-.098c0-.125 0-.25.003-.371a691.051 691.051 0 00.012-.764 29.25 29.25 0 00-.003-1.071c-.004-.242-.006-.47-.006-.685a31.888 31.888 0 00-.183-3.393 11.12 11.12 0 00-.121-.862l-1.528.457c.036.19.069.41.097.66.028.25.053.518.073.804a46.363 46.363 0 01.085 1.808 71.017 71.017 0 01.025 1.725v.25c-.002.323-.006.604-.012.843-.009.298-.013.512-.013.642.004.836.22 1.46.646 1.875.426.414 1.05.62 1.874.62h.244z" mask="url(#behavior_2444-e)"/><path fill="#000000" fill-opacity=".56" d="M37.162 32l4.124-4.125a.832.832 0 10-1.178-1.178l-4.124 4.125-4.125-4.125a.834.834 0 00-1.179 1.178L34.805 32l-4.125 4.125a.832.832 0 101.179 1.178l4.125-4.125 4.124 4.125a.831.831 0 001.178 0 .832.832 0 000-1.178L37.162 32z" mask="url(#behavior_2444-e)"/><circle cx="206" cy="313" r="15.5" style="animation:deselect_chip_base 4000ms ease-out infinite"/><circle cx="166" cy="313" r="15.5" style="animation:select_chip_base 4000ms ease-out infinite"/><path style="animation:deselect_chip_value 4000ms ease-out infinite" fill="#EA475B" fill-rule="nonzero" d="M206.086 317.122c0-.353-.003-.726-.009-1.117a40.26 40.26 0 00-.11-2.405 22.89 22.89 0 00-.118-1.177l-.049-.335c.154.06.31.104.466.13.156.027.331.04.526.04.71 0 1.272-.25 1.686-.748.426-.496.648-1.212.664-2.15v-.157c0-.106-.002-.21-.006-.31a8.054 8.054 0 00-.03-.393 4.541 4.541 0 00-.037-.28 1.637 1.637 0 01-.019-.12l-1.193.22a5.379 5.379 0 01.086.907c0 .134-.006.272-.019.414-.012.142-.033.28-.064.414-.03.134-.07.26-.118.38-.049.12-.112.224-.189.314-.17.207-.424.31-.76.31a1.46 1.46 0 01-.576-.1 1.242 1.242 0 01-.414-.29 2.004 2.004 0 01-.316-.447 8.364 8.364 0 01-.277-.581c-.07-.15-.132-.29-.19-.42a13.525 13.525 0 00-.33-.703 4.554 4.554 0 00-.18-.32l-1.017.645c.122.211.231.416.329.615a8.324 8.324 0 01.703 2.146c.103.55.181 1.126.234 1.729.053.602.085 1.223.098 1.862.012.64.018 1.282.018 1.927h1.211z"/><path style="animation:select_chip_value 4000ms ease-out infinite" fill-opacity=".56" fill-rule="nonzero" d="M165.223 317.116c0-.828-.013-1.658-.04-2.49a19.43 19.43 0 00-.24-2.49 2.052 2.052 0 00.761.122c.159 0 .313-.014.463-.042.15-.029.292-.075.426-.14a1.487 1.487 0 00.676-.67c.101.146.209.268.322.365a1.525 1.525 0 001.017.378c.32 0 .595-.06.825-.18.229-.12.415-.285.557-.496a1.99 1.99 0 00.295-.694 3.538 3.538 0 00.076-.962 17.397 17.397 0 00-.061-.812 11.536 11.536 0 00-.14-.971l-1.138.225c.065.353.104.654.118.904.015.25.022.466.022.648 0 .094-.004.204-.012.332-.009.128-.03.25-.064.368a.762.762 0 01-.165.302.4.4 0 01-.313.124.35.35 0 01-.265-.121 1.128 1.128 0 01-.198-.317 2.607 2.607 0 01-.143-.435 6.88 6.88 0 01-.158-.922l-.034-.335a6.576 6.576 0 00-.033-.326 3.794 3.794 0 01-.027-.356l-1.206.146c.004.025.01.089.019.192a25.775 25.775 0 01.043.922 5.68 5.68 0 01-.04.484 2.397 2.397 0 01-.131.548 1.316 1.316 0 01-.271.45.6.6 0 01-.46.186c-.182 0-.332-.023-.45-.07a.806.806 0 01-.314-.228 1.844 1.844 0 01-.258-.414 21.16 21.16 0 01-.286-.633l-.286-.615-.31-.617-.056-.11a3.94 3.94 0 00-.097-.18l-1.102.651c.094.146.18.3.259.463.079.162.165.355.259.578.328.844.572 1.794.73 2.849.158 1.055.237 2.173.237 3.354 0 .162 0 .333-.003.511-.002.179-.007.353-.015.524h1.211z"/><use fill="#000" filter="url(#behavior_2444-k)" xlink:href="#behavior_2444-l" style="animation:mouse_move 4000ms ease-out infinite"/><use fill="#FFF" fill-opacity=".56" xlink:href="#behavior_2444-l" style="animation:mouse_move 4000ms ease-out infinite"/><use fill="#000" filter="url(#behavior_2444-m)" xlink:href="#behavior_2444-l" style="animation:mouse_move 4000ms ease-out infinite"/></g></g></g></svg>