<svg xmlns="http://www.w3.org/2000/svg" width="200" height="200"><g fill="none" fill-rule="evenodd"><path d="M0 0h200v200H0z"/><path stroke="#EA475B" stroke-width=".4" d="M126 84.2c.497 0 .947.201 1.273.527.326.326.527.776.527 1.273h0v28c0 .497-.201.947-.527 1.273a1.794 1.794 0 01-1.273.527h0-9.8V84.2h9.8zm-41.2 0v31.6H75c-.497 0-.947-.201-1.273-.527A1.794 1.794 0 0173.2 114h0V86c0-.497.201-.947.527-1.273A1.794 1.794 0 0175 84.2h9.8z"/><g stroke="#EA475B" stroke-linecap="round" stroke-width=".4"><path d="M73.5 78v2M84.5 78v2M73.5 79h11"/></g><path fill="#EA475B" fill-rule="nonzero" d="M77.462 76v-4.28h-.09l-1.665.612v.6l1.046-.357V76h.709zm4.35 0v-.568h-1.98l1.043-1.117c.273-.296.47-.562.59-.795.12-.233.18-.457.18-.67 0-.367-.12-.654-.358-.862-.24-.208-.566-.312-.98-.312-.287 0-.54.057-.76.173a1.22 1.22 0 00-.507.484 1.395 1.395 0 00-.178.702h.712c0-.244.064-.436.19-.577.128-.14.306-.21.537-.21.193 0 .347.062.461.187.114.125.172.289.172.492a.928.928 0 01-.13.461 3.538 3.538 0 01-.439.573l-1.42 1.55V76h2.868z"/><path d="M73 80h12v4H73z"/><g stroke="#EA475B" stroke-linecap="round" stroke-width=".4"><path d="M116.5 78v2M127.5 78v2M116.5 79h11"/></g><path fill="#EA475B" fill-rule="nonzero" d="M120.462 76v-4.28h-.09l-1.665.612v.6l1.046-.357V76h.709zm4.35 0v-.568h-1.98l1.043-1.117c.273-.296.47-.562.59-.795.12-.233.18-.457.18-.67 0-.367-.12-.654-.358-.862-.24-.208-.566-.312-.98-.312-.287 0-.54.057-.76.173a1.22 1.22 0 00-.507.484 1.395 1.395 0 00-.178.702h.712c0-.244.064-.436.19-.577.128-.14.306-.21.537-.21.193 0 .347.062.461.187.114.125.172.289.172.492a.928.928 0 01-.13.461 3.538 3.538 0 01-.439.573l-1.42 1.55V76h2.868z"/><path d="M116 80h12v4h-12z"/><g><path d="M128 84h8v32h-8z"/><g stroke="#EA475B" stroke-linecap="round" stroke-width=".4"><path d="M136 85h2M136 115h2M137 85v30"/></g><path fill="#EA475B" fill-rule="nonzero" d="M143.632 102.059c.428 0 .773-.114 1.035-.34.263-.227.395-.531.395-.914 0-.239-.062-.444-.184-.616a1.047 1.047 0 00-.534-.377c.193-.086.35-.214.473-.383a.906.906 0 00.183-.54c0-.381-.122-.679-.365-.892-.243-.214-.577-.321-1.003-.321-.258 0-.49.05-.699.15-.208.101-.37.241-.486.421-.116.18-.175.379-.175.598h.712c0-.178.062-.322.185-.432a.68.68 0 01.472-.166c.218 0 .381.056.487.169.107.112.16.27.16.473 0 .21-.064.372-.192.483-.128.111-.301.168-.52.17h-.433v.562h.419c.261 0 .459.061.591.182.133.121.2.294.2.519 0 .222-.064.392-.19.51-.128.117-.302.175-.522.175-.213 0-.383-.058-.509-.176a.596.596 0 01-.189-.457h-.712c0 .364.131.655.393.873.262.22.598.329 1.008.329zm4.966-.059v-.568h-1.98l1.042-1.117c.274-.296.47-.562.59-.795.12-.233.18-.457.18-.67 0-.367-.119-.654-.358-.862-.24-.208-.566-.312-.98-.312-.287 0-.54.057-.76.173a1.22 1.22 0 00-.507.484 1.395 1.395 0 00-.178.702h.712c0-.244.064-.436.19-.577.128-.14.306-.21.537-.21.193 0 .347.062.461.187.115.125.172.289.172.492a.928.928 0 01-.13.461 3.538 3.538 0 01-.439.573l-1.42 1.55V102h2.868z"/></g><g><g stroke="#EA475B" stroke-linecap="round" stroke-width=".4"><path d="M73.5 127.274v2M127.5 127.274v2M73.5 128.274h54"/></g><path fill="#EA475B" fill-rule="nonzero" d="M95.563 136.059c.328 0 .605-.119.832-.355.023.137.05.235.082.296h.726v-.05c-.08-.17-.12-.397-.12-.682v-1.43c-.006-.338-.119-.6-.34-.787-.22-.186-.516-.28-.887-.28-.245 0-.466.043-.664.13a1.152 1.152 0 00-.47.355.79.79 0 00-.173.488h.712c0-.125.052-.228.155-.309a.627.627 0 01.399-.122c.187 0 .327.05.419.148.091.1.137.23.137.394v.208h-.436c-.467 0-.826.09-1.077.271-.25.181-.376.44-.376.778 0 .268.1.492.301.674.202.182.461.273.78.273zm.131-.572a.528.528 0 01-.364-.121.416.416 0 01-.136-.327c0-.168.066-.298.199-.39.133-.091.33-.137.594-.137h.384v.597a.685.685 0 01-.28.276.81.81 0 01-.397.102zm3.165.572c.384 0 .681-.123.89-.37l.018.311h.67v-3.17h-.711v2.276c-.121.248-.355.373-.7.373-.334 0-.501-.202-.501-.604v-2.045h-.712v2.054c0 .38.088.672.265.873.177.201.437.302.78.302zm3.304 0c.15 0 .307-.023.469-.068v-.55c-.084.019-.167.029-.249.029-.123 0-.209-.027-.256-.08-.048-.055-.072-.142-.072-.263v-1.77h.56v-.527h-.56v-.77h-.712v.77h-.522v.527h.522v1.796c0 .604.273.906.82.906zm2.338 0c.293 0 .551-.068.775-.203.224-.134.396-.325.516-.57.12-.247.18-.526.18-.839l-.003-.167c-.022-.455-.166-.82-.432-1.095-.267-.276-.614-.414-1.042-.414-.289 0-.545.067-.767.201a1.348 1.348 0 00-.519.574 1.87 1.87 0 00-.184.84v.035c0 .496.134.893.402 1.19.269.299.627.448 1.074.448zm0-.569a.657.657 0 01-.562-.277c-.135-.184-.203-.44-.203-.766 0-.367.069-.643.206-.827a.653.653 0 01.553-.277.66.66 0 01.561.281c.138.188.207.441.207.762 0 .361-.067.635-.2.823a.65.65 0 01-.562.281z"/><path d="M73 116h96v8H73z"/></g><g transform="translate(73 154)"><circle cx="13" cy="13" r="13.2" stroke="#000000" stroke-opacity=".12" stroke-width=".4"/><path fill="#000000" fill-opacity=".12" d="M16 8a2 2 0 012 2v15.003A12.96 12.96 0 0113 26C5.82 26 0 20.18 0 13c0-1.772.354-3.46.996-5H16z"/><circle cx="16" cy="10" r="2" fill="#EA475B"/><path fill="#EA475B" fill-rule="nonzero" d="M31.91 15.059c.385 0 .687-.146.907-.437.22-.29.33-.683.33-1.175v-.04c0-.516-.11-.918-.332-1.205-.22-.287-.524-.43-.91-.43-.348 0-.625.12-.83.363V10.5h-.712V15h.645l.035-.343c.207.268.496.402.867.402zm-.179-.58c-.31 0-.529-.138-.656-.414V12.76c.125-.27.342-.405.65-.405.231 0 .407.086.528.258.121.172.182.43.182.774v.09c-.004.336-.067.587-.188.753a.6.6 0 01-.516.25zm3.355.58c.293 0 .551-.068.775-.203.223-.134.395-.325.515-.57.12-.247.18-.526.18-.839l-.002-.167c-.022-.455-.166-.82-.432-1.095-.267-.276-.614-.414-1.042-.414-.289 0-.545.067-.767.201a1.348 1.348 0 00-.52.574 1.87 1.87 0 00-.184.84v.035c0 .496.135.893.403 1.19.269.299.627.448 1.074.448zm0-.569a.657.657 0 01-.563-.277c-.134-.184-.202-.44-.202-.766 0-.367.069-.643.205-.827a.653.653 0 01.554-.277.66.66 0 01.561.281c.138.188.207.441.207.762 0 .361-.067.635-.201.823a.65.65 0 01-.561.281zm2.783.51v-2.168c.113-.25.333-.375.66-.375.099 0 .196.008.29.023l.002-.668a.666.666 0 00-.252-.04c-.304 0-.543.137-.715.413l-.017-.355h-.68V15h.712zm2.51.059c.356 0 .64-.13.853-.387l.036.328h.644v-4.5H41.2v1.623a1.035 1.035 0 00-.814-.352c-.381 0-.685.148-.911.444-.227.296-.34.688-.34 1.177 0 .513.115.92.344 1.218.23.3.53.449.9.449zm.183-.58a.604.604 0 01-.53-.271c-.123-.181-.185-.433-.185-.755 0-.367.062-.642.187-.825a.608.608 0 01.533-.274c.291 0 .502.127.633.381v1.354a.672.672 0 01-.638.39zm3.489.58c.263 0 .501-.053.713-.157.212-.105.382-.252.508-.441l-.383-.366a.964.964 0 01-.797.395.787.787 0 01-.579-.228c-.153-.153-.24-.36-.262-.621h2.071v-.287c0-.504-.117-.894-.353-1.17-.235-.275-.569-.413-1-.413-.272 0-.518.07-.739.208-.22.14-.392.333-.514.582a1.902 1.902 0 00-.183.848v.088c0 .473.14.851.42 1.135.28.285.647.427 1.098.427zm.568-1.94h-1.356c.033-.244.11-.434.23-.571a.6.6 0 01.473-.205c.197 0 .351.06.463.183.111.122.175.302.19.54v.053zM46.585 15v-2.168c.113-.25.333-.375.66-.375.099 0 .195.008.29.023l.002-.668a.666.666 0 00-.252-.04c-.305 0-.543.137-.715.413l-.017-.355h-.68V15h.712zm2.78-1.526v-.575h-1.538v.575h1.538zM50.663 15v-2.168c.113-.25.333-.375.66-.375.099 0 .196.008.29.023l.002-.668a.666.666 0 00-.252-.04c-.304 0-.543.137-.715.413l-.017-.355h-.68V15h.712zm2.379.059c.328 0 .605-.119.832-.355.023.137.05.235.082.296h.727v-.05c-.08-.17-.12-.397-.12-.682v-1.43c-.006-.338-.12-.6-.34-.787-.221-.186-.517-.28-.888-.28-.244 0-.465.043-.664.13a1.152 1.152 0 00-.47.355.79.79 0 00-.173.488h.712c0-.125.052-.228.156-.309a.627.627 0 01.398-.122c.187 0 .327.05.419.148.092.1.138.23.138.394v.208h-.437c-.467 0-.826.09-1.077.271-.25.181-.376.44-.376.778 0 .268.1.492.302.674.2.182.46.273.779.273zm.132-.572a.528.528 0 01-.365-.121.416.416 0 01-.136-.327c0-.168.066-.298.2-.39.132-.091.33-.137.594-.137h.384v.597a.685.685 0 01-.28.276.81.81 0 01-.397.102zm3.246.572c.355 0 .64-.13.852-.387l.036.328h.644v-4.5h-.712v1.623a1.035 1.035 0 00-.814-.352c-.381 0-.685.148-.911.444-.227.296-.34.688-.34 1.177 0 .513.115.92.344 1.218.23.3.53.449.9.449zm.182-.58a.604.604 0 01-.53-.271c-.123-.181-.185-.433-.185-.755 0-.367.062-.642.187-.825a.608.608 0 01.533-.274c.291 0 .502.127.633.381v1.354a.672.672 0 01-.638.39zm2.496-3.097c.129 0 .228-.036.298-.107a.366.366 0 00.106-.268c0-.11-.035-.2-.106-.273-.07-.072-.17-.108-.298-.108-.13 0-.228.036-.298.108a.378.378 0 00-.104.273c0 .107.035.197.104.268.07.071.169.107.298.107zM59.452 15v-3.17h-.712V15h.712zm1.805.059c.385 0 .681-.123.89-.37l.018.311h.67v-3.17h-.711v2.276c-.121.248-.354.373-.7.373-.334 0-.501-.202-.501-.604V11.83h-.712v2.054c0 .38.088.672.265.873.177.201.437.302.78.302zm3.498 0c.383 0 .692-.089.929-.266a.826.826 0 00.354-.692.78.78 0 00-.116-.434.931.931 0 00-.354-.306 2.635 2.635 0 00-.658-.22c-.28-.061-.465-.122-.556-.183a.289.289 0 01-.138-.255c0-.121.05-.218.148-.29a.63.63 0 01.382-.108c.168 0 .303.045.404.136.102.09.153.205.153.341h.712a.892.892 0 00-.35-.73c-.234-.187-.54-.28-.919-.28-.355 0-.648.091-.879.275a.844.844 0 00-.346.685c0 .327.178.576.534.747.162.079.364.143.606.194.242.05.416.11.52.176a.323.323 0 01.157.29.331.331 0 01-.147.28c-.097.07-.24.106-.427.106a.74.74 0 01-.466-.136.502.502 0 01-.19-.388h-.692c0 .19.057.366.17.53.113.164.271.293.475.387.203.094.434.14.694.14zm2.332-2.514c.133 0 .235-.037.308-.11a.378.378 0 00.108-.277.392.392 0 00-.108-.283c-.073-.075-.175-.112-.308-.112a.403.403 0 00-.305.112.392.392 0 00-.108.283c0 .113.037.206.111.279a.414.414 0 00.302.108zm0 2.487c.133 0 .235-.036.308-.11a.378.378 0 00.108-.276.392.392 0 00-.108-.283c-.073-.075-.175-.113-.308-.113a.403.403 0 00-.305.113.392.392 0 00-.108.283c0 .113.037.206.111.278a.414.414 0 00.302.108zM72.565 15v-.568h-1.98l1.043-1.117c.273-.296.47-.562.59-.795.12-.233.18-.457.18-.67 0-.367-.12-.654-.358-.862-.24-.208-.566-.312-.98-.312-.288 0-.541.057-.76.173a1.22 1.22 0 00-.508.484 1.395 1.395 0 00-.177.702h.712c0-.244.064-.436.19-.577.128-.14.306-.21.537-.21.193 0 .347.062.461.187.114.125.172.289.172.492a.928.928 0 01-.13.461 3.538 3.538 0 01-.439.573l-1.42 1.55V15h2.867z"/></g></g></svg>