<svg width="860" height="320" xmlns="http://www.w3.org/2000/svg" xmlns:xlink="http://www.w3.org/1999/xlink"><defs><rect id="a" x="9" y="9" width="42" height="24" rx="12"/><rect id="d" x="9" y="9" width="42" height="24" rx="12"/><rect id="g" x="9" y="9" width="42" height="24" rx="12"/><rect id="i" x="9" y="9" width="42" height="24" rx="12"/><filter x="-35%" y="-25%" width="170%" height="170%" filterUnits="objectBoundingBox" id="b"><feOffset dy="2" in="SourceAlpha" result="shadowOffsetOuter1"/><feGaussianBlur stdDeviation="2" in="shadowOffsetOuter1" result="shadowBlurOuter1"/><feColorMatrix values="0 0 0 0 0 0 0 0 0 0 0 0 0 0 0 0 0 0 0.24 0" in="shadowBlurOuter1"/></filter><filter x="-35%" y="-25%" width="170%" height="170%" filterUnits="objectBoundingBox" id="e"><feOffset dy="2" in="SourceAlpha" result="shadowOffsetOuter1"/><feGaussianBlur stdDeviation="2" in="shadowOffsetOuter1" result="shadowBlurOuter1"/><feColorMatrix values="0 0 0 0 0 0 0 0 0 0 0 0 0 0 0 0 0 0 0.24 0" in="shadowBlurOuter1"/></filter><circle id="c" cx="21" cy="21" r="10"/><circle id="f" cx="39" cy="21" r="10"/></defs><g fill="none" fill-rule="evenodd"><rect fill="none" width="860" height="320" rx="4"/><path fill="none" d="M108 64h488v48H108z"/><path d="M108 111h488v1H108z" fill="#000000" fill-opacity=".12"/><g transform="translate(99 67)"><path fill="none" d="M0 0h60v42H0z"/><use fill="#EA475B" fill-rule="nonzero" xlink:href="#a"/><use fill="#000" filter="url(#b)" xlink:href="#c"/><use fill="#FFF" xlink:href="#c"/></g><path d="M592.438 82.845l1.134-1.134-1.14-1.14-1.135 1.133 1.141 1.141zM589.614 92c.459-.005.911-.022 1.356-.052.446-.03.871-.085 1.277-.164a6.536 6.536 0 001.134-.323c.35-.137.66-.314.932-.532a2.74 2.74 0 00.671-.793c.177-.311.293-.677.348-1.1a4.997 4.997 0 00.021-1.126 5.945 5.945 0 00-.212-1.096 5.3 5.3 0 00-.407-1.002 4.113 4.113 0 00-.57-.824c-.501-.543-1.058-.814-1.67-.814a1.71 1.71 0 00-.807.205c-.26.137-.494.344-.703.623-.366.473-.614 1.062-.744 1.767-.028.19-.042.364-.042.521v.119c.01.194.035.368.077.521.042.153.095.29.16.407.065.119.13.22.195.303.12.153.266.289.438.407.171.118.362.217.57.296.209.078.432.138.668.177.237.04.48.06.73.06h.703l-.111.124a1.453 1.453 0 01-.146.14 1.95 1.95 0 01-.522.278 6.013 6.013 0 01-.866.254c-.341.076-.728.139-1.162.187a12.73 12.73 0 01-1.415.074h-.14V92h.237zm3.819-3.798c-.209 0-.431-.005-.668-.014a2.745 2.745 0 01-.56-.09 1.009 1.009 0 01-.403-.21.633.633 0 01-.202-.305 1.224 1.224 0 01-.045-.32c0-.08.007-.163.02-.25.042-.237.102-.446.178-.627.077-.18.159-.334.247-.459a1.16 1.16 0 01.264-.282.419.419 0 01.23-.094c.13 0 .252.04.365.122.114.081.208.164.282.247.236.264.425.596.567.995.141.399.228.823.26 1.273-.152.01-.33.014-.535.014zm-10.31 8.681a8.524 8.524 0 001.966-.556 7.19 7.19 0 001.725-1.016 6.198 6.198 0 001.322-1.45A5.255 5.255 0 00588.89 92h.766v-1.363h-.661a6.622 6.622 0 00-.376-2.02 5.342 5.342 0 00-.403-.881 4.395 4.395 0 00-.529-.738c-.552-.593-1.157-.89-1.816-.89a1.77 1.77 0 00-.859.226 2.61 2.61 0 00-.769.664c-.194.25-.364.549-.507.894a3.926 3.926 0 00-.275.925c-.04.272-.06.495-.06.672 0 .185.017.37.05.556.055.353.19.663.403.932.482.599 1.227.928 2.233.988.255.023.483.035.685.035h.79c-.051.348-.194.701-.428 1.06-.234.36-.553.7-.957 1.02-.403.32-.888.608-1.454.863a8.976 8.976 0 01-1.92.598l.32 1.342zm3.755-6.26h-.047c-.204 0-.422-.007-.654-.021a3.506 3.506 0 01-.295-.032 2.472 2.472 0 01-.348-.076 1.635 1.635 0 01-.334-.14.819.819 0 01-.26-.225.651.651 0 01-.143-.33 2.434 2.434 0 01-.025-.31 3.16 3.16 0 01.153-.908c.065-.202.145-.384.24-.546.095-.163.203-.296.324-.4a.577.577 0 01.382-.157c.084 0 .163.014.237.042.074.028.145.064.212.108s.13.093.188.146c.058.053.11.103.156.15.116.134.229.293.338.476.109.183.207.388.295.616.089.227.16.473.216.737.056.264.09.545.104.842-.18.014-.344.022-.49.024l-.296.004h.047zm-7.511-6.213l1.134-1.133-1.141-1.141-1.134 1.134 1.141 1.14zM578.254 92c.38 0 .734-.026 1.06-.077.328-.05.623-.139.888-.264.264-.125.497-.292.699-.5.202-.21.372-.471.511-.787.14-.32.209-.69.209-1.113 0-.074-.002-.148-.007-.222-.033-.515-.153-1.109-.362-1.781a9.033 9.033 0 00-.222-.644 14.062 14.062 0 00-.383-.897 1.712 1.712 0 01-.063-.143l-1.238.612.605 1.489c.098.237.172.463.223.678.05.216.081.385.09.508.01.123.014.215.014.275 0 .111-.007.216-.02.313a1.35 1.35 0 01-.105.369 1.245 1.245 0 01-.348.455c-.139.11-.301.192-.487.247-.185.056-.392.09-.619.101-.227.012-.475.018-.744.018h-.807V92h1.106zm-10.769-5.711l1.127-1.127-1.14-1.141-1.128 1.134 1.141 1.134zm2.852.014l1.127-1.134-1.14-1.134-1.127 1.127 1.14 1.14zm-2.017 5.718c2.639 0 4.57-.64 5.795-1.92.102.283.246.536.431.758.58.747 1.473 1.127 2.678 1.141h.195v-1.363h-.174c-.756-.005-1.296-.214-1.62-.627a1.391 1.391 0 01-.293-.584 3.455 3.455 0 01-.09-.626v-.056c0-.074.007-.162.02-.264a5.795 5.795 0 01.136-.748c.03-.123.057-.226.08-.31l-1.321-.361c-.06.209-.13.422-.206.64-.076.218-.169.433-.278.647-.109.213-.24.42-.393.619-.153.2-.336.383-.55.55-.477.39-1.076.673-1.794.852-.72.178-1.591.268-2.616.268-1.146-.005-2.077-.126-2.793-.362-.717-.237-1.214-.594-1.492-1.072a1.688 1.688 0 01-.223-.573 3.026 3.026 0 01-.049-.512c0-.06.003-.118.007-.174a2.93 2.93 0 01.087-.598c.05-.19.099-.357.15-.5.051-.145.097-.26.14-.349.04-.088.062-.134.062-.139l-1.204-.66c-.023.032-.09.177-.198.434a8.028 8.028 0 00-.337 1.047c-.056.209-.09.4-.105.574a4.626 4.626 0 00-.007.79c.019.24.064.482.136.723.072.241.175.475.31.703.417.705 1.088 1.22 2.013 1.548.926.326 2.093.495 3.503.504zM552.327 92c.38 0 .734-.026 1.06-.077.328-.05.623-.139.888-.264.264-.125.497-.292.699-.5.202-.21.372-.471.511-.787.14-.32.209-.69.209-1.113 0-.074-.002-.148-.007-.222-.033-.515-.153-1.109-.362-1.781a9.033 9.033 0 00-.222-.644 14.061 14.061 0 00-.383-.897 1.713 1.713 0 01-.063-.143l-1.238.612.605 1.489c.098.237.172.463.223.678.051.216.081.385.09.508.01.123.014.215.014.275 0 .111-.007.216-.02.313a1.35 1.35 0 01-.105.369 1.245 1.245 0 01-.348.455c-.139.11-.301.192-.487.247-.185.056-.392.09-.619.101-.227.012-.475.018-.744.018h-.807V92h1.106zm1.14 3.624l1.135-1.134-1.141-1.14-1.134 1.133 1.14 1.141zm-5.036-9.864l1.134-1.134-1.14-1.14-1.135 1.133 1.141 1.141zm-2.998 11.374a12.712 12.712 0 001.704-1.03 9.084 9.084 0 001.472-1.304 6.295 6.295 0 001.033-1.54c.26-.553.39-1.132.39-1.74v-.028c.115.125.237.223.365.292a1.686 1.686 0 00.713.209c.102.005.185.007.25.007h.118v-1.363h-.111c-.232 0-.444-.056-.637-.167a1.88 1.88 0 01-.553-.526 4.913 4.913 0 01-.514-.925 15.038 15.038 0 01-.515-1.374l-1.308.404c.056.171.123.386.202.643.079.258.157.532.236.825.08.292.152.59.22.893.067.304.116.588.149.853a2.596 2.596 0 01-.077.94c-.083.31-.21.609-.379.896-.169.288-.377.562-.622.824a8.04 8.04 0 01-.807.748 9.486 9.486 0 01-.932.665c-.33.206-.661.395-.995.567l.598 1.23zm-5.183-.153c.39-.19.774-.405 1.152-.644.378-.238.737-.5 1.078-.782a9.21 9.21 0 00.946-.905c.29-.32.54-.656.751-1.008.211-.353.376-.718.494-1.096.119-.378.178-.769.178-1.172 0-.204-.017-.413-.049-.626a9.948 9.948 0 00-.122-.65 19.8 19.8 0 00-.16-.668 95.343 95.343 0 01-.17-.672 10.345 10.345 0 00-.174-.636c-.065-.211-.13-.426-.195-.644l-1.322.418c.126.39.244.779.355 1.168l.16.585c.056.2.107.399.153.598.047.2.085.394.115.584.03.19.045.371.045.543 0 .45-.109.886-.327 1.308-.218.422-.506.82-.866 1.196s-.769.723-1.228 1.04c-.459.318-.932.597-1.419.839l.605 1.224zm-6.253-14.908l5.593-2.365-.327-.703-5.218 2.178-.048.89zm-1.538 9.906c.31 0 .639-.006.984-.017.346-.012.695-.037 1.047-.077.353-.04.704-.094 1.054-.163.35-.07.686-.164 1.006-.282.32-.118.619-.264.897-.438s.524-.382.737-.623c.288-.413.456-.757.505-1.033.048-.276.073-.49.073-.643 0-.223-.028-.441-.084-.654a3.478 3.478 0 00-.497-1.058 8.094 8.094 0 00-.824-1.012 14.258 14.258 0 00-1.027-.974c-.368-.317-.736-.632-1.102-.942l5.3-2.22-.535-1.266-5.983 2.498-.173 1.593c.157.139.343.295.556.47.213.173.437.359.671.556.235.197.47.403.706.619.237.216.458.436.665.66.206.226.388.452.546.68.158.226.267.433.327.618.06.186.09.35.09.494 0 .065-.004.13-.014.195a1.144 1.144 0 01-.299.591c-.357.39-.902.668-1.635.835-.732.167-1.574.25-2.525.25-.144 0-.292-.002-.445-.006a16.919 16.919 0 01-1.791-.126 9.864 9.864 0 01-1.433-.281 4.003 4.003 0 01-1.037-.439c-.276-.174-.476-.372-.602-.594a.882.882 0 01-.097-.425v-.09c.014-.195.056-.4.125-.612.07-.214.157-.426.261-.637a8.49 8.49 0 01.31-.574l-1.1-.814-.086.122a3.427 3.427 0 00-.153.243 7.28 7.28 0 00-.192.355c-.07.137-.134.289-.195.456-.25.598-.376 1.02-.379 1.266l-.003.397c0 .44.093.83.278 1.168.195.353.482.652.863.898.38.245.832.445 1.356.598.524.153 1.112.264 1.764.334.651.07 1.348.104 2.09.104z" fill-opacity=".87" fill="#000000" fill-rule="nonzero"/><path fill="none" d="M108 112h488v48H108z"/><path d="M108 159h488v1H108z" fill="#000000" fill-opacity=".12"/><g transform="translate(99 115)"><path fill="none" d="M0 0h60v42H0z"/><use fill-opacity=".24" fill="#000000" xlink:href="#d"/><use fill="#000" filter="url(#e)" xlink:href="#f"/><use fill="#FFF" xlink:href="#f"/></g><path d="M546.33 140c.7 0 1.394-.065 2.08-.195.687-.13 1.351-.298 1.993-.504a19.848 19.848 0 001.844-.692c.587-.255 1.135-.51 1.645-.766.348-.171.682-.335 1.002-.49.32-.155.642-.3.967-.435l-.264-1.321c-.288 0-.573-.03-.856-.09a6.842 6.842 0 01-.849-.24 11.25 11.25 0 01-.845-.338 39.2 39.2 0 01-.831-.383c-.25-.116-.499-.23-.745-.34-.245-.112-.487-.21-.723-.296a5.637 5.637 0 00-.7-.206 3.12 3.12 0 00-.678-.076c-.45 0-.877.109-1.283.327-.406.218-.79.545-1.151.98a4.72 4.72 0 00-.33.439c-.096.144-.177.271-.244.383a3.542 3.542 0 00-.212.396l1.252.564a3.686 3.686 0 01.257-.456c.084-.128.183-.264.3-.41.115-.147.246-.283.392-.411.146-.128.305-.233.477-.317.171-.083.352-.125.542-.125.144 0 .302.022.473.066.172.044.354.104.547.178.192.074.391.159.598.254l.636.295c.283.135.57.267.863.397.292.13.598.25.918.362-.528.264-1.078.521-1.648.772-.57.25-1.155.473-1.754.668-.598.194-1.205.35-1.822.47a9.807 9.807 0 01-1.85.177h-1.51V140h1.51zm-1.23 0v-1.363h-.14a2.77 2.77 0 01-.755-.09c-.21-.061-.37-.145-.476-.251a.58.58 0 01-.185-.359 3.758 3.758 0 01-.024-.441v-3.493a48.553 48.553 0 00-.066-2.546 31.39 31.39 0 00-.077-1.12c-.03-.343-.066-.633-.107-.87l-1.364.251c.042.218.078.498.108.839.03.34.056.713.076 1.116.021.404.036.82.046 1.252.009.432.014.847.014 1.245.004.409.007.796.007 1.162 0 .371-.003.7-.007.988a211.628 211.628 0 00-.014 1.037c0 .11.002.244.007.4a2.686 2.686 0 00.247 1.012c.08.176.198.34.35.494.251.25.556.436.916.556.36.12.794.181 1.304.181h.14zm-8.05 0c.919 0 1.621-.243 2.108-.73.172-.177.308-.37.407-.578a3.353 3.353 0 00.324-1.21c.009-.172.014-.32.014-.445v-.181c0-.153-.004-.332-.01-.536l-.025-.723-.035-.957c-.014-.36-.028-.769-.042-1.228a81.23 81.23 0 00-.264-3.875l-1.364.146a63.316 63.316 0 01.243 3.777l.084 2.105c.024.568.035 1.003.035 1.305v.076c0 .663-.118 1.115-.355 1.357-.222.222-.596.334-1.12.334h-.528V140h.528zm-10.19-5.711l1.126-1.127-1.14-1.141-1.128 1.134 1.141 1.134zm2.851.014l1.127-1.134-1.14-1.134-1.128 1.127 1.141 1.14zm-2.017 5.718c2.639 0 4.57-.64 5.795-1.92.102.283.245.536.431.758.58.747 1.472 1.127 2.678 1.141h.195v-1.363h-.174c-.756-.005-1.296-.214-1.62-.627a1.391 1.391 0 01-.293-.584 3.455 3.455 0 01-.09-.626v-.056c0-.074.007-.162.02-.264a5.796 5.796 0 01.136-.748c.03-.123.057-.226.08-.31l-1.322-.361c-.06.209-.128.422-.205.64-.076.218-.17.433-.278.647-.109.213-.24.42-.393.619-.153.2-.336.383-.55.55-.477.39-1.076.673-1.794.852-.72.178-1.591.268-2.616.268-1.146-.005-2.077-.126-2.793-.362-.717-.237-1.214-.594-1.492-1.072a1.688 1.688 0 01-.223-.573 3.026 3.026 0 01-.049-.512c0-.06.003-.118.007-.174a2.93 2.93 0 01.087-.598c.049-.19.099-.357.15-.5.05-.145.097-.26.139-.349.042-.088.063-.134.063-.139l-1.204-.66c-.023.032-.09.177-.198.434a8.028 8.028 0 00-.338 1.047c-.055.209-.09.4-.104.574a4.626 4.626 0 00-.007.79c.019.24.064.482.136.723.072.241.175.475.31.703.417.705 1.088 1.22 2.013 1.548.926.326 2.093.495 3.503.504zm-17.12-9.273l1.03-1.03-1.037-1.036-1.03 1.03 1.037 1.036zm-1.572 2.198l1.127-1.134-1.141-1.14-1.127 1.133 1.14 1.141zm3.054.007l1.127-1.127-1.141-1.14-1.127 1.126 1.14 1.141zm.236 7.13c.431 0 .81-.06 1.134-.18.334-.121.612-.295.835-.522.222-.227.39-.502.5-.824a3.3 3.3 0 00.168-1.082c0-.265-.025-.536-.073-.814a7.696 7.696 0 00-.188-.814 12.239 12.239 0 00-.86-2.17l-1.217.64a12.273 12.273 0 01.588 1.422c.1.295.186.595.258.901.071.306.107.591.107.856a2 2 0 01-.07.55.93.93 0 01-.225.403.764.764 0 01-.355.212 1.566 1.566 0 01-.4.052c-.079 0-.162-.005-.25-.014a.65.65 0 01-.352-.136.847.847 0 01-.23-.292 1.47 1.47 0 01-.125-.41 3.026 3.026 0 01-.038-.49c0-.19.014-.408.042-.651.028-.243.059-.473.094-.689l.05-.3.044-.253.034-.222-1.335-.244c-.028.19-.066.414-.115.671a9.558 9.558 0 01-.188.797 7.21 7.21 0 01-.278.807c-.109.264-.237.5-.383.71a2.008 2.008 0 01-.5.507c-.188.13-.4.195-.637.195a.735.735 0 01-.369-.083.622.622 0 01-.23-.223.974.974 0 01-.118-.316 1.894 1.894 0 01-.034-.366c0-.18.018-.377.055-.588.037-.21.081-.417.132-.619a12.77 12.77 0 01.293-.998l-1.378-.292c-.046.227-.102.468-.167.723a7.784 7.784 0 01-.236.762 5.556 5.556 0 01-.327.727 2.873 2.873 0 01-.442.616c-.17.178-.363.322-.58.431a1.626 1.626 0 01-.738.164h-.153V140h.146c.269 0 .516-.022.74-.066a2.704 2.704 0 001.13-.494c.159-.118.307-.252.446-.4.075.172.18.322.317.452s.289.239.456.327c.167.088.342.154.525.198.183.044.36.066.532.066.394 0 .767-.095 1.12-.285.352-.19.668-.447.946-.772.097.148.216.286.355.414.139.128.29.239.452.334.162.095.333.17.511.226.179.056.356.083.532.083h.05zm-17.085-.062c2.639 0 4.57-.64 5.795-1.92.102.283.246.536.431.758.58.747 1.473 1.127 2.678 1.141h.195v-1.363h-.174c-.756-.005-1.296-.214-1.62-.627a1.391 1.391 0 01-.293-.584 3.455 3.455 0 01-.09-.626v-.056c0-.074.007-.162.02-.264a5.796 5.796 0 01.136-.748c.03-.123.057-.226.08-.31l-1.322-.361c-.06.209-.128.422-.205.64-.076.218-.169.433-.278.647-.109.213-.24.42-.393.619-.153.2-.336.383-.55.55-.477.39-1.076.673-1.794.852-.72.178-1.591.268-2.616.268-1.146-.005-2.077-.126-2.793-.362-.717-.237-1.214-.594-1.492-1.072a1.688 1.688 0 01-.223-.573 3.027 3.027 0 01-.049-.512c0-.06.003-.118.007-.174a2.93 2.93 0 01.087-.598c.049-.19.099-.357.15-.5.05-.145.097-.26.139-.349a1.61 1.61 0 00.063-.139l-1.204-.66c-.023.032-.09.177-.198.434a8.029 8.029 0 00-.337 1.047c-.056.209-.09.4-.105.574a4.626 4.626 0 00-.007.79c.019.24.064.482.136.723.072.241.175.475.31.703.417.705 1.088 1.22 2.013 1.548.926.326 2.093.495 3.503.504zm.216 3.603l1.134-1.134-1.141-1.14-1.134 1.133 1.14 1.141z" fill-opacity=".87" fill="#000" fill-rule="nonzero"/><g fill="#000000" fill-opacity=".56"><path d="M577.058 139.972A8.017 8.017 0 00584 144c4.412 0 8-3.589 8-8a8.015 8.015 0 00-4.028-6.943A8.47 8.47 0 01588.5 132c0 4.687-3.813 8.5-8.5 8.5a8.488 8.488 0 01-2.942-.528M584 146c-4.77 0-8.896-3.396-9.81-8.074a1 1 0 011.626-.956A6.503 6.503 0 00580 138.5c3.584 0 6.5-2.916 6.5-6.5a6.508 6.508 0 00-1.53-4.185 1.002 1.002 0 01-.098-1.15.996.996 0 011.054-.476c4.679.914 8.074 5.04 8.074 9.811 0 5.514-4.486 10-10 10"/></g><g><path fill="none" d="M108 160h488v48H108z"/><path d="M108 207h488v1H108z" fill="#000000" fill-opacity=".12"/><g transform="translate(99 163)"><path fill="none" d="M0 0h60v42H0z"/><mask id="h" fill="#fff"><use xlink:href="#g"/></mask><use fill-opacity="0" fill="#FFF" xlink:href="#g"/><circle fill-opacity=".12" fill="#000000" mask="url(#h)" cx="39" cy="21" r="30"/><circle fill="#FFF" cx="21" cy="21" r="10"/></g><path d="M592.438 178.845l1.134-1.134-1.14-1.14-1.135 1.133 1.141 1.141zM589.614 188c.459-.005.911-.022 1.356-.052.446-.03.871-.085 1.277-.164a6.536 6.536 0 001.134-.323c.35-.137.66-.314.932-.532a2.74 2.74 0 00.671-.793c.177-.311.293-.677.348-1.1a4.997 4.997 0 00.021-1.126 5.945 5.945 0 00-.212-1.096 5.3 5.3 0 00-.407-1.002 4.113 4.113 0 00-.57-.824c-.501-.543-1.058-.814-1.67-.814a1.71 1.71 0 00-.807.205c-.26.137-.494.344-.703.623-.366.473-.614 1.062-.744 1.767-.028.19-.042.364-.042.521v.119c.01.194.035.368.077.521.042.153.095.29.16.407.065.119.13.22.195.303.12.153.266.289.438.407.171.118.362.217.57.296.209.078.432.138.668.177.237.04.48.06.73.06h.703l-.111.124a1.453 1.453 0 01-.146.14 1.95 1.95 0 01-.522.278 6.013 6.013 0 01-.866.254c-.341.076-.728.139-1.162.187a12.73 12.73 0 01-1.415.074h-.14V188h.237zm3.819-3.798c-.209 0-.431-.005-.668-.014a2.745 2.745 0 01-.56-.09 1.009 1.009 0 01-.403-.21.633.633 0 01-.202-.305 1.224 1.224 0 01-.045-.32c0-.08.007-.163.02-.25.042-.237.102-.446.178-.627.077-.18.159-.334.247-.459a1.16 1.16 0 01.264-.282.419.419 0 01.23-.094c.13 0 .252.04.365.122.114.081.208.164.282.247.236.264.425.596.567.995.141.399.228.823.26 1.273-.152.01-.33.014-.535.014zm-10.31 8.681a8.524 8.524 0 001.966-.556 7.19 7.19 0 001.725-1.016 6.198 6.198 0 001.322-1.45 5.255 5.255 0 00.754-1.861h.766v-1.363h-.661a6.622 6.622 0 00-.376-2.02 5.342 5.342 0 00-.403-.881 4.395 4.395 0 00-.529-.738c-.552-.593-1.157-.89-1.816-.89a1.77 1.77 0 00-.859.226 2.61 2.61 0 00-.769.664c-.194.25-.364.549-.507.894a3.926 3.926 0 00-.275.925c-.04.272-.06.495-.06.672 0 .185.017.37.05.556.055.353.19.663.403.932.482.599 1.227.928 2.233.988.255.023.483.035.685.035h.79c-.051.348-.194.701-.428 1.06-.234.36-.553.7-.957 1.02-.403.32-.888.608-1.454.863a8.976 8.976 0 01-1.92.598l.32 1.342zm3.755-6.26h-.047c-.204 0-.422-.007-.654-.021a3.506 3.506 0 01-.295-.032 2.472 2.472 0 01-.348-.076 1.635 1.635 0 01-.334-.14.819.819 0 01-.26-.225.651.651 0 01-.143-.33 2.434 2.434 0 01-.025-.31 3.16 3.16 0 01.153-.908c.065-.202.145-.384.24-.546.095-.163.203-.296.324-.4a.577.577 0 01.382-.157c.084 0 .163.014.237.042.074.028.145.064.212.108s.13.093.188.146c.058.053.11.103.156.15.116.134.229.293.338.476.109.183.207.388.295.616.089.227.16.473.216.737.056.264.09.545.104.842-.18.014-.344.022-.49.024l-.296.004h.047zm-7.511-6.213l1.134-1.133-1.141-1.141-1.134 1.134 1.141 1.14zm-1.113 7.59c.38 0 .734-.026 1.06-.077.328-.05.623-.139.888-.264.264-.125.497-.292.699-.5.202-.21.372-.471.511-.787.14-.32.209-.69.209-1.113 0-.074-.002-.148-.007-.222-.033-.515-.153-1.109-.362-1.781a9.033 9.033 0 00-.222-.644 14.062 14.062 0 00-.383-.897 1.712 1.712 0 01-.063-.143l-1.238.612.605 1.489c.098.237.172.463.223.678.05.216.081.385.09.508.01.123.014.215.014.275 0 .111-.007.216-.02.313a1.35 1.35 0 01-.105.369 1.245 1.245 0 01-.348.455c-.139.11-.301.192-.487.247-.185.056-.392.09-.619.101-.227.012-.475.018-.744.018h-.807V188h1.106zm-10.769-5.711l1.127-1.127-1.14-1.141-1.128 1.134 1.141 1.134zm2.852.014l1.127-1.134-1.14-1.134-1.127 1.127 1.14 1.14zm-2.017 5.718c2.639 0 4.57-.64 5.795-1.92.102.283.246.536.431.758.58.747 1.473 1.127 2.678 1.141h.195v-1.363h-.174c-.756-.005-1.296-.214-1.62-.627a1.391 1.391 0 01-.293-.584 3.455 3.455 0 01-.09-.626v-.056c0-.074.007-.162.02-.264a5.795 5.795 0 01.136-.748c.03-.123.057-.226.08-.31l-1.321-.361c-.06.209-.13.422-.206.64-.076.218-.169.433-.278.647-.109.213-.24.42-.393.619-.153.2-.336.383-.55.55-.477.39-1.076.673-1.794.852-.72.178-1.591.268-2.616.268-1.146-.005-2.077-.126-2.793-.362-.717-.237-1.214-.594-1.492-1.072a1.688 1.688 0 01-.223-.573 3.026 3.026 0 01-.049-.512c0-.06.003-.118.007-.174a2.93 2.93 0 01.087-.598c.05-.19.099-.357.15-.5.051-.145.097-.26.14-.349.04-.088.062-.134.062-.139l-1.204-.66c-.023.032-.09.177-.198.434a8.028 8.028 0 00-.337 1.047c-.056.209-.09.4-.105.574a4.626 4.626 0 00-.007.79c.019.24.064.482.136.723.072.241.175.475.31.703.417.705 1.088 1.22 2.013 1.548.926.326 2.093.495 3.503.504zM552.327 188c.38 0 .734-.026 1.06-.077.328-.05.623-.139.888-.264.264-.125.497-.292.699-.5.202-.21.372-.471.511-.787.14-.32.209-.69.209-1.113 0-.074-.002-.148-.007-.222-.033-.515-.153-1.109-.362-1.781a9.033 9.033 0 00-.222-.644 14.061 14.061 0 00-.383-.897 1.713 1.713 0 01-.063-.143l-1.238.612.605 1.489c.098.237.172.463.223.678.051.216.081.385.09.508.01.123.014.215.014.275 0 .111-.007.216-.02.313a1.35 1.35 0 01-.105.369 1.245 1.245 0 01-.348.455c-.139.11-.301.192-.487.247-.185.056-.392.09-.619.101-.227.012-.475.018-.744.018h-.807V188h1.106zm1.14 3.624l1.135-1.134-1.141-1.14-1.134 1.133 1.14 1.141zm-5.036-9.864l1.134-1.134-1.14-1.14-1.135 1.133 1.141 1.141zm-2.998 11.374a12.712 12.712 0 001.704-1.03 9.084 9.084 0 001.472-1.304 6.295 6.295 0 001.033-1.54c.26-.553.39-1.132.39-1.74v-.028c.115.125.237.223.365.292a1.686 1.686 0 00.713.209c.102.005.185.007.25.007h.118v-1.363h-.111c-.232 0-.444-.056-.637-.167a1.88 1.88 0 01-.553-.526 4.913 4.913 0 01-.514-.925 15.038 15.038 0 01-.515-1.374l-1.308.404c.056.171.123.386.202.643.079.258.157.532.236.825.08.292.152.59.22.893.067.304.116.588.149.853a2.596 2.596 0 01-.077.94c-.083.31-.21.609-.379.896-.169.288-.377.562-.622.824a8.04 8.04 0 01-.807.748 9.486 9.486 0 01-.932.665c-.33.206-.661.395-.995.567l.598 1.23zm-5.183-.153c.39-.19.774-.405 1.152-.644.378-.238.737-.5 1.078-.782a9.21 9.21 0 00.946-.905c.29-.32.54-.656.751-1.008.211-.353.376-.718.494-1.096.119-.378.178-.769.178-1.172 0-.204-.017-.413-.049-.626a9.948 9.948 0 00-.122-.65 19.8 19.8 0 00-.16-.668 95.343 95.343 0 01-.17-.672 10.345 10.345 0 00-.174-.636c-.065-.211-.13-.426-.195-.644l-1.322.418c.126.39.244.779.355 1.168l.16.585c.056.2.107.399.153.598.047.2.085.394.115.584.03.19.045.371.045.543 0 .45-.109.886-.327 1.308-.218.422-.506.82-.866 1.196s-.769.723-1.228 1.04c-.459.318-.932.597-1.419.839l.605 1.224zm-6.253-14.908l5.593-2.365-.327-.703-5.218 2.178-.048.89zm-1.538 9.906c.31 0 .639-.006.984-.017.346-.012.695-.037 1.047-.077.353-.04.704-.094 1.054-.163.35-.07.686-.164 1.006-.282.32-.118.619-.264.897-.438s.524-.382.737-.623c.288-.413.456-.757.505-1.033.048-.276.073-.49.073-.643 0-.223-.028-.441-.084-.654a3.478 3.478 0 00-.497-1.058 8.094 8.094 0 00-.824-1.012 14.258 14.258 0 00-1.027-.974c-.368-.317-.736-.632-1.102-.942l5.3-2.22-.535-1.266-5.983 2.498-.173 1.593c.157.139.343.295.556.47.213.173.437.359.671.556.235.197.47.403.706.619.237.216.458.436.665.66.206.226.388.452.546.68.158.226.267.433.327.618.06.186.09.35.09.494 0 .065-.004.13-.014.195a1.144 1.144 0 01-.299.591c-.357.39-.902.668-1.635.835-.732.167-1.574.25-2.525.25-.144 0-.292-.002-.445-.006a16.919 16.919 0 01-1.791-.126 9.864 9.864 0 01-1.433-.281 4.003 4.003 0 01-1.037-.439c-.276-.174-.476-.372-.602-.594a.882.882 0 01-.097-.425v-.09c.014-.195.056-.4.125-.612.07-.214.157-.426.261-.637a8.49 8.49 0 01.31-.574l-1.1-.814-.086.122a3.427 3.427 0 00-.153.243 7.28 7.28 0 00-.192.355c-.07.137-.134.289-.195.456-.25.598-.376 1.02-.379 1.266l-.003.397c0 .44.093.83.278 1.168.195.353.482.652.863.898.38.245.832.445 1.356.598.524.153 1.112.264 1.764.334.651.07 1.348.104 2.09.104z" fill-opacity=".32" fill="#000000" fill-rule="nonzero"/><g><path fill="none" d="M108 208h488v48H108z"/><path d="M108 255h488v1H108z" fill="#000000" fill-opacity=".12"/><g transform="translate(99 211)"><path fill="none" d="M0 0h60v42H0z"/><use fill-opacity=".08" fill="#000000" xlink:href="#i"/><circle fill="#FFF" cx="39" cy="21" r="10"/></g><path d="M546.33 236c.7 0 1.394-.065 2.08-.195.687-.13 1.351-.298 1.993-.504a19.848 19.848 0 001.844-.692c.587-.255 1.135-.51 1.645-.766.348-.171.682-.335 1.002-.49.32-.155.642-.3.967-.435l-.264-1.321c-.288 0-.573-.03-.856-.09a6.842 6.842 0 01-.849-.24 11.25 11.25 0 01-.845-.338 39.2 39.2 0 01-.831-.383c-.25-.116-.499-.23-.745-.34-.245-.112-.487-.21-.723-.296a5.637 5.637 0 00-.7-.206 3.12 3.12 0 00-.678-.076c-.45 0-.877.109-1.283.327-.406.218-.79.545-1.151.98a4.72 4.72 0 00-.33.439c-.096.144-.177.271-.244.383a3.542 3.542 0 00-.212.396l1.252.564a3.686 3.686 0 01.257-.456c.084-.128.183-.264.3-.41.115-.147.246-.283.392-.411.146-.128.305-.233.477-.317.171-.083.352-.125.542-.125.144 0 .302.022.473.066.172.044.354.104.547.178.192.074.391.159.598.254l.636.295c.283.135.57.267.863.397.292.13.598.25.918.362-.528.264-1.078.521-1.648.772-.57.25-1.155.473-1.754.668-.598.194-1.205.35-1.822.47a9.807 9.807 0 01-1.85.177h-1.51V236h1.51zm-1.23 0v-1.363h-.14a2.77 2.77 0 01-.755-.09c-.21-.061-.37-.145-.476-.251a.58.58 0 01-.185-.359 3.758 3.758 0 01-.024-.441v-3.493a48.553 48.553 0 00-.066-2.546 31.39 31.39 0 00-.077-1.12c-.03-.343-.066-.633-.107-.87l-1.364.251c.042.218.078.498.108.839.03.34.056.713.076 1.116.021.404.036.82.046 1.252.009.432.014.847.014 1.245.004.409.007.796.007 1.162 0 .371-.003.7-.007.988a211.628 211.628 0 00-.014 1.037c0 .11.002.244.007.4a2.686 2.686 0 00.247 1.012c.08.176.198.34.35.494.251.25.556.436.916.556.36.12.794.181 1.304.181h.14zm-8.05 0c.919 0 1.621-.243 2.108-.73.172-.177.308-.37.407-.578a3.353 3.353 0 00.324-1.21c.009-.172.014-.32.014-.445v-.181c0-.153-.004-.332-.01-.536l-.025-.723-.035-.957c-.014-.36-.028-.769-.042-1.228a81.23 81.23 0 00-.264-3.875l-1.364.146a63.316 63.316 0 01.243 3.777l.084 2.105c.024.568.035 1.003.035 1.305v.076c0 .663-.118 1.115-.355 1.357-.222.222-.596.334-1.12.334h-.528V236h.528zm-10.19-5.711l1.126-1.127-1.14-1.141-1.128 1.134 1.141 1.134zm2.851.014l1.127-1.134-1.14-1.134-1.128 1.127 1.141 1.14zm-2.017 5.718c2.639 0 4.57-.64 5.795-1.92.102.283.245.536.431.758.58.747 1.472 1.127 2.678 1.141h.195v-1.363h-.174c-.756-.005-1.296-.214-1.62-.627a1.391 1.391 0 01-.293-.584 3.455 3.455 0 01-.09-.626v-.056c0-.074.007-.162.02-.264a5.796 5.796 0 01.136-.748c.03-.123.057-.226.08-.31l-1.322-.361c-.06.209-.128.422-.205.64-.076.218-.17.433-.278.647-.109.213-.24.42-.393.619-.153.2-.336.383-.55.55-.477.39-1.076.673-1.794.852-.72.178-1.591.268-2.616.268-1.146-.005-2.077-.126-2.793-.362-.717-.237-1.214-.594-1.492-1.072a1.688 1.688 0 01-.223-.573 3.026 3.026 0 01-.049-.512c0-.06.003-.118.007-.174a2.93 2.93 0 01.087-.598c.049-.19.099-.357.15-.5.05-.145.097-.26.139-.349.042-.088.063-.134.063-.139l-1.204-.66c-.023.032-.09.177-.198.434a8.028 8.028 0 00-.338 1.047c-.055.209-.09.4-.104.574a4.626 4.626 0 00-.007.79c.019.24.064.482.136.723.072.241.175.475.31.703.417.705 1.088 1.22 2.013 1.548.926.326 2.093.495 3.503.504zm-17.12-9.273l1.03-1.03-1.037-1.036-1.03 1.03 1.037 1.036zm-1.572 2.198l1.127-1.134-1.141-1.14-1.127 1.133 1.14 1.141zm3.054.007l1.127-1.127-1.141-1.14-1.127 1.126 1.14 1.141zm.236 7.13c.431 0 .81-.06 1.134-.18.334-.121.612-.295.835-.522.222-.227.39-.502.5-.824a3.3 3.3 0 00.168-1.082c0-.265-.025-.536-.073-.814a7.696 7.696 0 00-.188-.814 12.239 12.239 0 00-.86-2.17l-1.217.64a12.273 12.273 0 01.588 1.422c.1.295.186.595.258.901.071.306.107.591.107.856a2 2 0 01-.07.55.93.93 0 01-.225.403.764.764 0 01-.355.212 1.566 1.566 0 01-.4.052c-.079 0-.162-.005-.25-.014a.65.65 0 01-.352-.136.847.847 0 01-.23-.292 1.47 1.47 0 01-.125-.41 3.026 3.026 0 01-.038-.49c0-.19.014-.408.042-.651.028-.243.059-.473.094-.689l.05-.3.044-.253.034-.222-1.335-.244c-.028.19-.066.414-.115.671a9.558 9.558 0 01-.188.797 7.21 7.21 0 01-.278.807c-.109.264-.237.5-.383.71a2.008 2.008 0 01-.5.507c-.188.13-.4.195-.637.195a.735.735 0 01-.369-.083.622.622 0 01-.23-.223.974.974 0 01-.118-.316 1.894 1.894 0 01-.034-.366c0-.18.018-.377.055-.588.037-.21.081-.417.132-.619a12.77 12.77 0 01.293-.998l-1.378-.292c-.046.227-.102.468-.167.723a7.784 7.784 0 01-.236.762 5.556 5.556 0 01-.327.727 2.873 2.873 0 01-.442.616c-.17.178-.363.322-.58.431a1.626 1.626 0 01-.738.164h-.153V236h.146c.269 0 .516-.022.74-.066a2.704 2.704 0 001.13-.494c.159-.118.307-.252.446-.4.075.172.18.322.317.452s.289.239.456.327c.167.088.342.154.525.198.183.044.36.066.532.066.394 0 .767-.095 1.12-.285.352-.19.668-.447.946-.772.097.148.216.286.355.414.139.128.29.239.452.334.162.095.333.17.511.226.179.056.356.083.532.083h.05zm-17.085-.062c2.639 0 4.57-.64 5.795-1.92.102.283.246.536.431.758.58.747 1.473 1.127 2.678 1.141h.195v-1.363h-.174c-.756-.005-1.296-.214-1.62-.627a1.391 1.391 0 01-.293-.584 3.455 3.455 0 01-.09-.626v-.056c0-.074.007-.162.02-.264a5.796 5.796 0 01.136-.748c.03-.123.057-.226.08-.31l-1.322-.361c-.06.209-.128.422-.205.64-.076.218-.169.433-.278.647-.109.213-.24.42-.393.619-.153.2-.336.383-.55.55-.477.39-1.076.673-1.794.852-.72.178-1.591.268-2.616.268-1.146-.005-2.077-.126-2.793-.362-.717-.237-1.214-.594-1.492-1.072a1.688 1.688 0 01-.223-.573 3.027 3.027 0 01-.049-.512c0-.06.003-.118.007-.174a2.93 2.93 0 01.087-.598c.049-.19.099-.357.15-.5.05-.145.097-.26.139-.349a1.61 1.61 0 00.063-.139l-1.204-.66c-.023.032-.09.177-.198.434a8.029 8.029 0 00-.337 1.047c-.056.209-.09.4-.105.574a4.626 4.626 0 00-.007.79c.019.24.064.482.136.723.072.241.175.475.31.703.417.705 1.088 1.22 2.013 1.548.926.326 2.093.495 3.503.504zm.216 3.603l1.134-1.134-1.141-1.14-1.134 1.133 1.14 1.141z" fill-opacity=".32" fill="#000" fill-rule="nonzero"/><g fill="#000000" fill-opacity=".32"><path d="M577.058 235.972A8.017 8.017 0 00584 240c4.412 0 8-3.589 8-8a8.015 8.015 0 00-4.028-6.943A8.47 8.47 0 01588.5 228c0 4.687-3.813 8.5-8.5 8.5a8.488 8.488 0 01-2.942-.528M584 242c-4.77 0-8.896-3.396-9.81-8.074a1 1 0 011.626-.956A6.503 6.503 0 00580 234.5c3.584 0 6.5-2.916 6.5-6.5a6.508 6.508 0 00-1.53-4.185 1.002 1.002 0 01-.098-1.15.996.996 0 011.054-.476c4.679.914 8.074 5.04 8.074 9.811 0 5.514-4.486 10-10 10"/></g></g></g><path fill-opacity=".12" fill="#000000" d="M620 56h1v208h-1z"/><path d="M640.152 92.117c.723 0 1.31-.17 1.764-.513.453-.341.68-.795.68-1.362 0-.34-.081-.628-.243-.864-.163-.236-.412-.439-.748-.607-.335-.167-.774-.312-1.315-.433-.541-.121-.915-.248-1.122-.381a.658.658 0 01-.31-.592c0-.277.11-.502.333-.674.223-.171.532-.257.926-.257.383 0 .7.107.952.322.252.215.378.47.378.767h1.09c0-.578-.224-1.052-.67-1.423-.448-.371-1.031-.557-1.75-.557-.683 0-1.245.18-1.684.539-.44.36-.66.799-.66 1.318 0 .313.078.582.232.809.154.227.392.422.715.586.322.164.758.305 1.306.422.55.117.934.257 1.155.419.22.162.33.39.33.682 0 .278-.123.5-.371.665-.248.166-.577.25-.988.25-.445 0-.803-.107-1.075-.32a1.122 1.122 0 01-.436-.864h-1.084c0 .375.11.723.33 1.046.221.322.527.573.918.753.39.18.84.27 1.347.27zm6.006-.117l1.5-4.805L649.2 92h.88l1.845-6.34h-1.084l-1.219 4.846-1.506-4.846h-.873l-1.476 4.746-1.248-4.746h-1.079l1.84 6.34h.88zm7.512-7.406c.21 0 .371-.059.48-.176a.62.62 0 00.164-.44.64.64 0 00-.164-.445c-.109-.12-.27-.181-.48-.181-.211 0-.37.06-.478.181a.647.647 0 00-.16.446c0 .175.053.322.16.439.108.117.267.176.478.176zm.533 7.406v-6.34h-1.084V92h1.084zm3.586.117c.27 0 .547-.039.832-.117v-.879c-.219.047-.39.07-.516.07-.253 0-.433-.063-.539-.19-.105-.127-.158-.317-.158-.571v-3.932h1.184v-.838h-1.184v-1.535h-1.084v1.535h-1.154v.838h1.154v3.932c0 .539.123.955.37 1.248.245.293.61.44 1.095.44zm4.611 0c.43 0 .837-.097 1.222-.293a2.47 2.47 0 00.923-.785c.23-.328.355-.674.375-1.037h-1.025a1.237 1.237 0 01-.48.879c-.29.234-.628.351-1.015.351-.558 0-.988-.197-1.289-.591-.3-.395-.45-.957-.45-1.688v-.205c0-.75.15-1.323.453-1.72.303-.396.73-.594 1.28-.594.41 0 .755.131 1.035.395.279.264.434.6.466 1.01h1.025c-.031-.679-.282-1.232-.753-1.657-.47-.426-1.062-.639-1.772-.639-.579 0-1.08.133-1.503.398a2.588 2.588 0 00-.976 1.12c-.227.48-.34 1.029-.34 1.646v.182c0 1 .255 1.788.765 2.364.51.576 1.196.864 2.06.864zm4.823-.117v-4.518a1.91 1.91 0 01.62-.738c.266-.187.575-.281.927-.281.433 0 .752.11.958.328.205.219.31.557.313 1.014V92h1.084v-4.19c-.012-1.511-.688-2.267-2.027-2.267-.77 0-1.395.295-1.875.885V83h-1.084v9h1.084zm8.713.732l3.556-9.263h-.926l-3.562 9.263h.932zm10.03-.615c.723 0 1.311-.17 1.764-.513.454-.341.68-.795.68-1.362 0-.34-.08-.628-.243-.864-.162-.236-.411-.439-.747-.607-.336-.167-.774-.312-1.316-.433-.54-.121-.915-.248-1.122-.381a.658.658 0 01-.31-.592c0-.277.111-.502.334-.674.223-.171.531-.257.926-.257.382 0 .7.107.952.322.252.215.378.47.378.767h1.09c0-.578-.224-1.052-.671-1.423-.448-.371-1.03-.557-1.75-.557-.683 0-1.244.18-1.684.539-.44.36-.66.799-.66 1.318 0 .313.078.582.232.809.155.227.393.422.715.586.322.164.758.305 1.307.422.549.117.933.257 1.154.419.22.162.331.39.331.682 0 .278-.124.5-.372.665-.248.166-.577.25-.987.25-.446 0-.804-.107-1.075-.32a1.122 1.122 0 01-.437-.864h-1.084c0 .375.11.723.331 1.046.22.322.527.573.917.753.39.18.84.27 1.348.27zm6.487 0c1.063 0 1.86-.408 2.39-1.224l-.661-.516c-.2.258-.432.465-.698.621-.265.156-.59.234-.972.234-.54 0-.984-.192-1.333-.577-.35-.384-.533-.89-.548-1.514h4.295v-.452c0-1.011-.229-1.789-.686-2.332-.457-.543-1.097-.814-1.922-.814-.504 0-.971.14-1.403.419-.432.28-.768.666-1.008 1.16-.24.494-.36 1.056-.36 1.685v.199c0 .945.27 1.7.808 2.265.54.564 1.239.846 2.098.846zm1.389-3.867h-3.176c.07-.574.254-1.02.55-1.339a1.446 1.446 0 011.102-.477c.453 0 .813.151 1.078.454.266.302.415.73.446 1.28v.082zm3.515 3.75v-9h-1.084v9h1.084zm4.366.117c1.062 0 1.859-.408 2.39-1.224l-.662-.516c-.199.258-.431.465-.697.621-.266.156-.59.234-.973.234-.539 0-.983-.192-1.333-.577-.35-.384-.532-.89-.548-1.514h4.295v-.452c0-1.011-.228-1.789-.685-2.332-.457-.543-1.098-.814-1.922-.814-.504 0-.972.14-1.403.419-.432.28-.768.666-1.008 1.16-.24.494-.36 1.056-.36 1.685v.199c0 .945.269 1.7.808 2.265.54.564 1.238.846 2.098.846zm1.388-3.867h-3.175c.07-.574.253-1.02.55-1.339a1.446 1.446 0 011.102-.477c.453 0 .812.151 1.078.454.266.302.414.73.445 1.28v.082zm4.881 3.867c.43 0 .837-.097 1.222-.293a2.47 2.47 0 00.923-.785c.23-.328.355-.674.375-1.037h-1.026a1.237 1.237 0 01-.48.879c-.29.234-.627.351-1.014.351-.558 0-.988-.197-1.289-.591-.3-.395-.451-.957-.451-1.688v-.205c0-.75.151-1.323.454-1.72.303-.396.73-.594 1.28-.594.41 0 .755.131 1.035.395.279.264.434.6.465 1.01h1.026c-.032-.679-.283-1.232-.753-1.657-.47-.426-1.062-.639-1.773-.639-.578 0-1.079.133-1.503.398a2.588 2.588 0 00-.975 1.12c-.227.48-.34 1.029-.34 1.646v.182c0 1 .255 1.788.765 2.364.51.576 1.196.864 2.06.864zm5.59 0c.27 0 .547-.039.832-.117v-.879c-.219.047-.39.07-.516.07-.253 0-.433-.063-.539-.19-.105-.127-.158-.317-.158-.571v-3.932h1.184v-.838H713.2v-1.535h-1.084v1.535h-1.154v.838h1.154v3.932c0 .539.123.955.37 1.248.245.293.61.44 1.095.44zm4.7 0c1.062 0 1.859-.408 2.39-1.224l-.662-.516c-.2.258-.432.465-.697.621-.266.156-.59.234-.973.234-.54 0-.984-.192-1.333-.577-.35-.384-.532-.89-.548-1.514h4.295v-.452c0-1.011-.229-1.789-.686-2.332-.457-.543-1.097-.814-1.922-.814-.503 0-.971.14-1.403.419-.431.28-.767.666-1.008 1.16-.24.494-.36 1.056-.36 1.685v.199c0 .945.27 1.7.809 2.265.539.564 1.238.846 2.097.846zm1.388-3.867h-3.176c.07-.574.254-1.02.55-1.339a1.446 1.446 0 011.102-.477c.454 0 .813.151 1.079.454.265.302.414.73.445 1.28v.082zm4.564 3.867c.774 0 1.377-.265 1.81-.797l.054.68h.996v-9h-1.084v3.305c-.434-.508-1.022-.762-1.764-.762-.746 0-1.35.296-1.81.888-.461.591-.692 1.374-.692 2.346v.082c0 .97.232 1.754.694 2.356.463.601 1.062.902 1.796.902zm.27-.92c-.524 0-.934-.203-1.23-.61-.297-.405-.446-.968-.446-1.687 0-.804.149-1.412.445-1.822.297-.41.711-.615 1.243-.615.672 0 1.17.299 1.494.896v2.912c-.317.618-.819.926-1.506.926zM640.152 140.117c.723 0 1.31-.17 1.764-.513.453-.341.68-.795.68-1.362 0-.34-.081-.628-.243-.864-.163-.236-.412-.439-.748-.607-.335-.167-.774-.312-1.315-.433-.541-.121-.915-.248-1.122-.381a.658.658 0 01-.31-.592c0-.277.11-.502.333-.674.223-.171.532-.257.926-.257.383 0 .7.107.952.322.252.215.378.47.378.767h1.09c0-.578-.224-1.052-.67-1.423-.448-.371-1.031-.557-1.75-.557-.683 0-1.245.18-1.684.539-.44.36-.66.799-.66 1.318 0 .313.078.582.232.809.154.227.392.422.715.586.322.164.758.305 1.306.422.55.117.934.257 1.155.419.22.162.33.39.33.682 0 .278-.123.5-.371.665-.248.166-.577.25-.988.25-.445 0-.803-.107-1.075-.32a1.122 1.122 0 01-.436-.864h-1.084c0 .375.11.723.33 1.046.221.322.527.573.918.753.39.18.84.27 1.347.27zm6.006-.117l1.5-4.805L649.2 140h.88l1.845-6.34h-1.084l-1.219 4.846-1.506-4.846h-.873l-1.476 4.746-1.248-4.746h-1.079l1.84 6.34h.88zm7.512-7.406c.21 0 .371-.059.48-.176a.62.62 0 00.164-.44.64.64 0 00-.164-.445c-.109-.12-.27-.181-.48-.181-.211 0-.37.06-.478.181a.647.647 0 00-.16.446c0 .175.053.322.16.439.108.117.267.176.478.176zm.533 7.406v-6.34h-1.084V140h1.084zm3.586.117c.27 0 .547-.039.832-.117v-.879c-.219.047-.39.07-.516.07-.253 0-.433-.063-.539-.19-.105-.127-.158-.317-.158-.571v-3.932h1.184v-.838h-1.184v-1.535h-1.084v1.535h-1.154v.838h1.154v3.932c0 .539.123.955.37 1.248.245.293.61.44 1.095.44zm4.611 0c.43 0 .837-.097 1.222-.293a2.47 2.47 0 00.923-.785c.23-.328.355-.674.375-1.037h-1.025a1.237 1.237 0 01-.48.879c-.29.234-.628.351-1.015.351-.558 0-.988-.197-1.289-.591-.3-.395-.45-.957-.45-1.688v-.205c0-.75.15-1.323.453-1.72.303-.396.73-.594 1.28-.594.41 0 .755.131 1.035.395.279.264.434.6.466 1.01h1.025c-.031-.679-.282-1.232-.753-1.657-.47-.426-1.062-.639-1.772-.639-.579 0-1.08.133-1.503.398a2.588 2.588 0 00-.976 1.12c-.227.48-.34 1.029-.34 1.646v.182c0 1 .255 1.788.765 2.364.51.576 1.196.864 2.06.864zm4.823-.117v-4.518a1.91 1.91 0 01.62-.738c.266-.187.575-.281.927-.281.433 0 .752.11.958.328.205.219.31.557.313 1.014V140h1.084v-4.19c-.012-1.511-.688-2.267-2.027-2.267-.77 0-1.395.295-1.875.885V131h-1.084v9h1.084zm8.713.732l3.556-9.263h-.926l-3.562 9.263h.932zm9.85-.732l1.5-4.805 1.54 4.805h.88l1.845-6.34h-1.084l-1.219 4.846-1.506-4.846h-.873l-1.476 4.746-1.248-4.746h-1.079l1.84 6.34h.88zm7.51-7.406c.212 0 .372-.059.481-.176a.62.62 0 00.164-.44.64.64 0 00-.164-.445c-.109-.12-.27-.181-.48-.181-.211 0-.37.06-.478.181a.647.647 0 00-.16.446c0 .175.053.322.16.439.108.117.267.176.478.176zm.534 7.406v-6.34h-1.084V140h1.084zm3.586.117c.27 0 .547-.039.832-.117v-.879c-.219.047-.39.07-.516.07-.253 0-.433-.063-.539-.19-.105-.127-.158-.317-.158-.571v-3.932h1.184v-.838h-1.184v-1.535h-1.084v1.535h-1.154v.838h1.154v3.932c0 .539.123.955.37 1.248.245.293.61.44 1.095.44zm3.152-.117v-4.518a1.91 1.91 0 01.621-.738c.266-.187.575-.281.926-.281.434 0 .753.11.958.328.205.219.31.557.314 1.014V140h1.084v-4.19c-.012-1.511-.688-2.267-2.028-2.267-.77 0-1.394.295-1.875.885V131h-1.084v9h1.084zm9.141-7.406c.21 0 .371-.059.48-.176a.62.62 0 00.165-.44.64.64 0 00-.165-.445c-.109-.12-.27-.181-.48-.181-.211 0-.37.06-.478.181a.647.647 0 00-.16.446c0 .175.053.322.16.439.108.117.267.176.478.176zm.533 7.406v-6.34h-1.084V140h1.084zm4.278.117c.43 0 .836-.097 1.221-.293a2.47 2.47 0 00.923-.785c.23-.328.356-.674.375-1.037h-1.025a1.237 1.237 0 01-.48.879c-.29.234-.628.351-1.014.351-.56 0-.989-.197-1.29-.591-.3-.395-.45-.957-.45-1.688v-.205c0-.75.15-1.323.453-1.72.303-.396.73-.594 1.28-.594.41 0 .756.131 1.035.395.28.264.434.6.466 1.01h1.025c-.031-.679-.282-1.232-.753-1.657-.47-.426-1.061-.639-1.772-.639-.578 0-1.08.133-1.503.398a2.588 2.588 0 00-.976 1.12c-.226.48-.34 1.029-.34 1.646v.182c0 1 .255 1.788.765 2.364.51.576 1.196.864 2.06.864zm6.34 0c.57 0 1.075-.137 1.514-.41.44-.273.777-.655 1.014-1.145.236-.49.354-1.044.354-1.662v-.076c0-.992-.266-1.787-.8-2.385-.533-.597-1.231-.896-2.094-.896-.559 0-1.056.135-1.492.404-.435.27-.775.653-1.02 1.149-.243.496-.365 1.054-.365 1.675v.077c0 .984.266 1.775.8 2.373.533.597 1.229.896 2.088.896zm0-.885c-.548 0-.984-.212-1.31-.638-.326-.426-.49-.99-.49-1.694 0-.793.165-1.402.493-1.828.328-.426.76-.638 1.295-.638.547 0 .985.215 1.315.647.33.432.495.995.495 1.69 0 .778-.162 1.382-.486 1.814-.324.432-.762.647-1.313.647zm5.326.768v-4.518a1.91 1.91 0 01.62-.738c.266-.187.575-.281.926-.281.434 0 .753.11.958.328.206.219.31.557.314 1.014V140h1.084v-4.19c-.012-1.511-.688-2.267-2.027-2.267-.782 0-1.415.305-1.899.914l-.035-.797h-1.025V140h1.084zm8.724.732l3.557-9.263h-.926l-3.562 9.263h.931zm9.756-.615c.816 0 1.436-.248 1.857-.744l.024.627h1.031v-6.34h-1.084v4.611c-.273.618-.824.926-1.652.926-.781 0-1.172-.48-1.172-1.441v-4.096h-1.084v4.125c.004.77.183 1.35.536 1.743.354.393.868.59 1.544.59zm5.643-.117v-4.518a1.91 1.91 0 01.62-.738c.266-.187.575-.281.926-.281.434 0 .753.11.958.328.206.219.31.557.314 1.014V140h1.084v-4.19c-.012-1.511-.688-2.267-2.027-2.267-.782 0-1.414.305-1.899.914l-.035-.797h-1.025V140h1.084zm7.869.117c.722 0 1.31-.17 1.763-.513.454-.341.68-.795.68-1.362 0-.34-.081-.628-.243-.864-.162-.236-.411-.439-.747-.607-.336-.167-.775-.312-1.316-.433-.54-.121-.915-.248-1.122-.381a.658.658 0 01-.31-.592c0-.277.111-.502.334-.674.222-.171.531-.257.926-.257.382 0 .7.107.952.322.252.215.378.47.378.767h1.09c0-.578-.224-1.052-.671-1.423-.448-.371-1.03-.557-1.75-.557-.683 0-1.245.18-1.684.539-.44.36-.66.799-.66 1.318 0 .313.078.582.232.809.155.227.393.422.715.586.322.164.758.305 1.307.422.549.117.933.257 1.154.419.22.162.331.39.331.682 0 .278-.124.5-.372.665-.248.166-.577.25-.987.25-.446 0-.804-.107-1.075-.32a1.122 1.122 0 01-.437-.864h-1.084c0 .375.11.723.331 1.046.22.322.526.573.917.753.39.18.84.27 1.348.27zm6.486 0c1.063 0 1.86-.408 2.39-1.224l-.661-.516c-.2.258-.432.465-.698.621-.265.156-.59.234-.972.234-.54 0-.984-.192-1.333-.577-.35-.384-.533-.89-.548-1.514h4.295v-.452c0-1.011-.229-1.789-.686-2.332-.457-.543-1.097-.814-1.922-.814-.504 0-.971.14-1.403.419-.432.28-.768.666-1.008 1.16-.24.494-.36 1.056-.36 1.685v.199c0 .945.27 1.7.808 2.265.54.564 1.239.846 2.098.846zm1.389-3.867h-3.176c.07-.574.254-1.02.55-1.339a1.446 1.446 0 011.102-.477c.453 0 .813.151 1.078.454.266.302.414.73.446 1.28v.082zm3.515 3.75v-9h-1.084v9h1.084zm4.366.117c1.062 0 1.859-.408 2.39-1.224l-.662-.516c-.2.258-.432.465-.697.621-.266.156-.59.234-.973.234-.539 0-.983-.192-1.333-.577-.35-.384-.532-.89-.548-1.514h4.295v-.452c0-1.011-.228-1.789-.685-2.332-.457-.543-1.098-.814-1.922-.814-.504 0-.972.14-1.403.419-.432.28-.768.666-1.008 1.16-.24.494-.36 1.056-.36 1.685v.199c0 .945.269 1.7.808 2.265.539.564 1.238.846 2.098.846zm1.388-3.867h-3.176c.07-.574.254-1.02.551-1.339a1.446 1.446 0 011.102-.477c.453 0 .812.151 1.078.454.266.302.414.73.445 1.28v.082zm4.881 3.867c.43 0 .837-.097 1.222-.293a2.47 2.47 0 00.923-.785c.23-.328.355-.674.375-1.037h-1.026a1.237 1.237 0 01-.48.879c-.29.234-.627.351-1.014.351-.558 0-.988-.197-1.289-.591-.3-.395-.451-.957-.451-1.688v-.205c0-.75.151-1.323.454-1.72.303-.396.73-.594 1.28-.594.41 0 .755.131 1.034.395.28.264.435.6.466 1.01h1.026c-.032-.679-.283-1.232-.753-1.657-.471-.426-1.062-.639-1.773-.639-.578 0-1.079.133-1.503.398a2.588 2.588 0 00-.975 1.12c-.227.48-.34 1.029-.34 1.646v.182c0 1 .255 1.788.765 2.364.51.576 1.196.864 2.06.864zm5.59 0c.27 0 .547-.039.832-.117v-.879c-.219.047-.39.07-.516.07-.254 0-.433-.063-.539-.19-.105-.127-.158-.317-.158-.571v-3.932h1.184v-.838h-1.184v-1.535h-1.084v1.535h-1.154v.838h1.154v3.932c0 .539.123.955.37 1.248.245.293.61.44 1.095.44zm4.7 0c1.062 0 1.859-.408 2.39-1.224l-.662-.516c-.2.258-.432.465-.698.621-.265.156-.59.234-.972.234-.54 0-.984-.192-1.333-.577-.35-.384-.532-.89-.548-1.514h4.295v-.452c0-1.011-.229-1.789-.686-2.332-.457-.543-1.097-.814-1.922-.814-.503 0-.971.14-1.403.419-.432.28-.767.666-1.008 1.16-.24.494-.36 1.056-.36 1.685v.199c0 .945.27 1.7.809 2.265.539.564 1.238.846 2.097.846zm1.388-3.867h-3.176c.07-.574.254-1.02.55-1.339a1.446 1.446 0 011.102-.477c.454 0 .813.151 1.079.454.265.302.414.73.445 1.28v.082zm4.564 3.867c.774 0 1.377-.265 1.81-.797l.054.68h.996v-9h-1.084v3.305c-.434-.508-1.022-.762-1.764-.762-.746 0-1.35.296-1.81.888-.461.591-.692 1.374-.692 2.346v.082c0 .97.232 1.754.694 2.356.463.601 1.062.902 1.796.902zm.27-.92c-.524 0-.934-.203-1.23-.61-.298-.405-.446-.968-.446-1.687 0-.804.149-1.412.445-1.822.297-.41.711-.615 1.243-.615.671 0 1.17.299 1.494.896v2.912c-.317.618-.819.926-1.506.926zM640.152 181.117c.723 0 1.31-.17 1.764-.513.453-.341.68-.795.68-1.362 0-.34-.081-.628-.243-.864-.163-.236-.412-.439-.748-.607-.335-.167-.774-.312-1.315-.433-.541-.121-.915-.248-1.122-.381a.658.658 0 01-.31-.592c0-.277.11-.502.333-.674.223-.171.532-.257.926-.257.383 0 .7.107.952.322.252.215.378.47.378.767h1.09c0-.578-.224-1.052-.67-1.423-.448-.371-1.031-.557-1.75-.557-.683 0-1.245.18-1.684.539-.44.36-.66.799-.66 1.318 0 .313.078.582.232.809.154.227.392.422.715.586.322.164.758.305 1.306.422.55.117.934.257 1.155.419.22.162.33.39.33.682 0 .278-.123.5-.371.665-.248.166-.577.25-.988.25-.445 0-.803-.107-1.075-.32a1.122 1.122 0 01-.436-.864h-1.084c0 .375.11.723.33 1.046.221.322.527.573.918.753.39.18.84.27 1.347.27zm6.006-.117l1.5-4.805L649.2 181h.88l1.845-6.34h-1.084l-1.219 4.846-1.506-4.846h-.873l-1.476 4.746-1.248-4.746h-1.079l1.84 6.34h.88zm7.512-7.406c.21 0 .371-.059.48-.176a.62.62 0 00.164-.44.64.64 0 00-.164-.445c-.109-.12-.27-.181-.48-.181-.211 0-.37.06-.478.181a.647.647 0 00-.16.446c0 .175.053.322.16.439.108.117.267.176.478.176zm.533 7.406v-6.34h-1.084V181h1.084zm3.586.117c.27 0 .547-.039.832-.117v-.879c-.219.047-.39.07-.516.07-.253 0-.433-.063-.539-.19-.105-.127-.158-.317-.158-.571v-3.932h1.184v-.838h-1.184v-1.535h-1.084v1.535h-1.154v.838h1.154v3.932c0 .539.123.955.37 1.248.245.293.61.44 1.095.44zm4.611 0c.43 0 .837-.097 1.222-.293a2.47 2.47 0 00.923-.785c.23-.328.355-.674.375-1.037h-1.025a1.237 1.237 0 01-.48.879c-.29.234-.628.351-1.015.351-.558 0-.988-.197-1.289-.591-.3-.395-.45-.957-.45-1.688v-.205c0-.75.15-1.323.453-1.72.303-.396.73-.594 1.28-.594.41 0 .755.131 1.035.395.279.264.434.6.466 1.01h1.025c-.031-.679-.282-1.232-.753-1.657-.47-.426-1.062-.639-1.772-.639-.579 0-1.08.133-1.503.398a2.588 2.588 0 00-.976 1.12c-.227.48-.34 1.029-.34 1.646v.182c0 1 .255 1.788.765 2.364.51.576 1.196.864 2.06.864zm4.823-.117v-4.518a1.91 1.91 0 01.62-.738c.266-.187.575-.281.927-.281.433 0 .752.11.958.328.205.219.31.557.313 1.014V181h1.084v-4.19c-.012-1.511-.688-2.267-2.027-2.267-.77 0-1.395.295-1.875.885V172h-1.084v9h1.084zm8.713.732l3.556-9.263h-.926l-3.562 9.263h.932zm10.03-.615c.723 0 1.311-.17 1.764-.513.454-.341.68-.795.68-1.362 0-.34-.08-.628-.243-.864-.162-.236-.411-.439-.747-.607-.336-.167-.774-.312-1.316-.433-.54-.121-.915-.248-1.122-.381a.658.658 0 01-.31-.592c0-.277.111-.502.334-.674.223-.171.531-.257.926-.257.382 0 .7.107.952.322.252.215.378.47.378.767h1.09c0-.578-.224-1.052-.671-1.423-.448-.371-1.03-.557-1.75-.557-.683 0-1.244.18-1.684.539-.44.36-.66.799-.66 1.318 0 .313.078.582.232.809.155.227.393.422.715.586.322.164.758.305 1.307.422.549.117.933.257 1.154.419.22.162.331.39.331.682 0 .278-.124.5-.372.665-.248.166-.577.25-.987.25-.446 0-.804-.107-1.075-.32a1.122 1.122 0 01-.437-.864h-1.084c0 .375.11.723.331 1.046.22.322.527.573.917.753.39.18.84.27 1.348.27zm6.487 0c1.063 0 1.86-.408 2.39-1.224l-.661-.516c-.2.258-.432.465-.698.621-.265.156-.59.234-.972.234-.54 0-.984-.192-1.333-.577-.35-.384-.533-.89-.548-1.514h4.295v-.452c0-1.011-.229-1.789-.686-2.332-.457-.543-1.097-.814-1.922-.814-.504 0-.971.14-1.403.419-.432.28-.768.666-1.008 1.16-.24.494-.36 1.056-.36 1.685v.199c0 .945.27 1.7.808 2.265.54.564 1.239.846 2.098.846zm1.389-3.867h-3.176c.07-.574.254-1.02.55-1.339a1.446 1.446 0 011.102-.477c.453 0 .813.151 1.078.454.266.302.415.73.446 1.28v.082zm3.515 3.75v-9h-1.084v9h1.084zm4.366.117c1.062 0 1.859-.408 2.39-1.224l-.662-.516c-.199.258-.431.465-.697.621-.266.156-.59.234-.973.234-.539 0-.983-.192-1.333-.577-.35-.384-.532-.89-.548-1.514h4.295v-.452c0-1.011-.228-1.789-.685-2.332-.457-.543-1.098-.814-1.922-.814-.504 0-.972.14-1.403.419-.432.28-.768.666-1.008 1.16-.24.494-.36 1.056-.36 1.685v.199c0 .945.269 1.7.808 2.265.54.564 1.238.846 2.098.846zm1.388-3.867h-3.175c.07-.574.253-1.02.55-1.339a1.446 1.446 0 011.102-.477c.453 0 .812.151 1.078.454.266.302.414.73.445 1.28v.082zm4.881 3.867c.43 0 .837-.097 1.222-.293a2.47 2.47 0 00.923-.785c.23-.328.355-.674.375-1.037h-1.026a1.237 1.237 0 01-.48.879c-.29.234-.627.351-1.014.351-.558 0-.988-.197-1.289-.591-.3-.395-.451-.957-.451-1.688v-.205c0-.75.151-1.323.454-1.72.303-.396.73-.594 1.28-.594.41 0 .755.131 1.035.395.279.264.434.6.465 1.01h1.026c-.032-.679-.283-1.232-.753-1.657-.47-.426-1.062-.639-1.773-.639-.578 0-1.079.133-1.503.398a2.588 2.588 0 00-.975 1.12c-.227.48-.34 1.029-.34 1.646v.182c0 1 .255 1.788.765 2.364.51.576 1.196.864 2.06.864zm5.59 0c.27 0 .547-.039.832-.117v-.879c-.219.047-.39.07-.516.07-.253 0-.433-.063-.539-.19-.105-.127-.158-.317-.158-.571v-3.932h1.184v-.838H713.2v-1.535h-1.084v1.535h-1.154v.838h1.154v3.932c0 .539.123.955.37 1.248.245.293.61.44 1.095.44zm4.7 0c1.062 0 1.859-.408 2.39-1.224l-.662-.516c-.2.258-.432.465-.697.621-.266.156-.59.234-.973.234-.54 0-.984-.192-1.333-.577-.35-.384-.532-.89-.548-1.514h4.295v-.452c0-1.011-.229-1.789-.686-2.332-.457-.543-1.097-.814-1.922-.814-.503 0-.971.14-1.403.419-.431.28-.767.666-1.008 1.16-.24.494-.36 1.056-.36 1.685v.199c0 .945.27 1.7.809 2.265.539.564 1.238.846 2.097.846zm1.388-3.867h-3.176c.07-.574.254-1.02.55-1.339a1.446 1.446 0 011.102-.477c.454 0 .813.151 1.079.454.265.302.414.73.445 1.28v.082zm4.564 3.867c.774 0 1.377-.265 1.81-.797l.054.68h.996v-9h-1.084v3.305c-.434-.508-1.022-.762-1.764-.762-.746 0-1.35.296-1.81.888-.461.591-.692 1.374-.692 2.346v.082c0 .97.232 1.754.694 2.356.463.601 1.062.902 1.796.902zm.27-.92c-.524 0-.934-.203-1.23-.61-.297-.405-.446-.968-.446-1.687 0-.804.149-1.412.445-1.822.297-.41.711-.615 1.243-.615.672 0 1.17.299 1.494.896v2.912c-.317.618-.819.926-1.506.926zm7.459 1.535l3.557-9.263h-.926l-3.563 9.263h.932zm9.926-.615c.773 0 1.377-.265 1.81-.797l.053.68h.996v-9h-1.084v3.305c-.434-.508-1.021-.762-1.764-.762-.746 0-1.35.296-1.81.888-.461.591-.692 1.374-.692 2.346v.082c0 .97.232 1.754.695 2.356.463.601 1.061.902 1.796.902zm.27-.92c-.524 0-.934-.203-1.231-.61-.297-.405-.446-.968-.446-1.687 0-.804.149-1.412.446-1.822.297-.41.71-.615 1.242-.615.672 0 1.17.299 1.494.896v2.912c-.316.618-.818.926-1.506.926zm4.915-6.603c.211 0 .371-.059.48-.176a.62.62 0 00.165-.44.64.64 0 00-.164-.445c-.11-.12-.27-.181-.48-.181-.212 0-.37.06-.478.181a.647.647 0 00-.161.446c0 .175.053.322.16.439.108.117.267.176.478.176zm.533 7.406v-6.34h-1.084V181h1.084zm4.067.117c.722 0 1.31-.17 1.764-.513.453-.341.68-.795.68-1.362 0-.34-.082-.628-.244-.864-.162-.236-.411-.439-.747-.607-.336-.167-.774-.312-1.315-.433-.541-.121-.916-.248-1.123-.381a.658.658 0 01-.31-.592c0-.277.111-.502.334-.674.223-.171.531-.257.926-.257.382 0 .7.107.952.322.252.215.378.47.378.767h1.09c0-.578-.224-1.052-.671-1.423-.448-.371-1.03-.557-1.75-.557-.683 0-1.244.18-1.684.539-.44.36-.66.799-.66 1.318 0 .313.078.582.232.809.155.227.393.422.715.586.322.164.758.305 1.307.422.549.117.933.257 1.154.419.22.162.331.39.331.682 0 .278-.124.5-.372.665-.248.166-.577.25-.987.25-.445 0-.804-.107-1.075-.32a1.122 1.122 0 01-.437-.864h-1.084c0 .375.11.723.331 1.046.22.322.527.573.917.753.39.18.84.27 1.348.27zm5.812 0c.7 0 1.301-.262 1.805-.785.04.32.09.543.152.668h1.137v-.094c-.148-.344-.223-.806-.223-1.388V176.6c-.015-.641-.23-1.144-.644-1.51-.414-.364-.986-.547-1.717-.547-.46 0-.884.086-1.268.258a2.3 2.3 0 00-.915.7c-.224.295-.336.6-.336.917h1.09c0-.277.13-.514.392-.709.262-.195.586-.293.973-.293.441 0 .775.112 1.002.337.226.225.34.526.34.905v.498h-1.055c-.91 0-1.616.183-2.118.548-.502.365-.753.878-.753 1.538 0 .543.2.991.6 1.345.4.353.913.53 1.538.53zm.159-.943c-.356 0-.647-.096-.874-.287-.226-.192-.34-.457-.34-.797 0-.778.665-1.166 1.993-1.166h.85v1.3c-.137.282-.358.51-.663.686a1.905 1.905 0 01-.966.264zm7.318.943c.75 0 1.348-.294 1.793-.882.445-.588.668-1.366.668-2.335v-.093c0-1.012-.22-1.809-.66-2.391-.439-.582-1.043-.873-1.813-.873s-1.373.271-1.81.814V172h-1.084v9h.996l.052-.732c.438.566 1.057.85 1.858.85zm-.27-.92c-.703 0-1.22-.332-1.552-.996v-2.742c.312-.664.826-.996 1.54-.996.536 0 .946.201 1.231.603.285.403.428.973.428 1.711 0 .809-.145 1.414-.434 1.817-.289.402-.693.603-1.213.603zm5.274.803v-9h-1.084v9h1.084zm4.365.117c1.063 0 1.86-.408 2.39-1.224l-.661-.516c-.2.258-.432.465-.698.621-.265.156-.59.234-.972.234-.54 0-.984-.192-1.333-.577-.35-.384-.533-.89-.548-1.514h4.295v-.452c0-1.011-.229-1.789-.686-2.332-.457-.543-1.098-.814-1.922-.814-.504 0-.971.14-1.403.419-.432.28-.768.666-1.008 1.16-.24.494-.36 1.056-.36 1.685v.199c0 .945.27 1.7.808 2.265.54.564 1.239.846 2.098.846zm1.389-3.867h-3.176c.07-.574.254-1.02.55-1.339a1.446 1.446 0 011.102-.477c.453 0 .813.151 1.078.454.266.302.414.73.446 1.28v.082zm4.564 3.867c.774 0 1.377-.265 1.81-.797l.053.68h.997v-9h-1.084v3.305c-.434-.508-1.022-.762-1.764-.762-.746 0-1.35.296-1.81.888-.462.591-.692 1.374-.692 2.346v.082c0 .97.231 1.754.694 2.356.463.601 1.062.902 1.796.902zm.27-.92c-.524 0-.934-.203-1.23-.61-.298-.405-.446-.968-.446-1.687 0-.804.148-1.412.445-1.822.297-.41.711-.615 1.242-.615.672 0 1.17.299 1.495.896v2.912c-.317.618-.819.926-1.506.926zM640.152 227.117c.723 0 1.31-.17 1.764-.513.453-.341.68-.795.68-1.362 0-.34-.081-.628-.243-.864-.163-.236-.412-.439-.748-.607-.335-.167-.774-.312-1.315-.433-.541-.121-.915-.248-1.122-.381a.658.658 0 01-.31-.592c0-.277.11-.502.333-.674.223-.171.532-.257.926-.257.383 0 .7.107.952.322.252.215.378.47.378.767h1.09c0-.578-.224-1.052-.67-1.423-.448-.371-1.031-.557-1.75-.557-.683 0-1.245.18-1.684.539-.44.36-.66.799-.66 1.318 0 .313.078.582.232.809.154.227.392.422.715.586.322.164.758.305 1.306.422.55.117.934.257 1.155.419.22.162.33.39.33.682 0 .278-.123.5-.371.665-.248.166-.577.25-.988.25-.445 0-.803-.107-1.075-.32a1.122 1.122 0 01-.436-.864h-1.084c0 .375.11.723.33 1.046.221.322.527.573.918.753.39.18.84.27 1.347.27zm6.006-.117l1.5-4.805L649.2 227h.88l1.845-6.34h-1.084l-1.219 4.846-1.506-4.846h-.873l-1.476 4.746-1.248-4.746h-1.079l1.84 6.34h.88zm7.512-7.406c.21 0 .371-.059.48-.176a.62.62 0 00.164-.44.64.64 0 00-.164-.445c-.109-.12-.27-.181-.48-.181-.211 0-.37.06-.478.181a.647.647 0 00-.16.446c0 .175.053.322.16.439.108.117.267.176.478.176zm.533 7.406v-6.34h-1.084V227h1.084zm3.586.117c.27 0 .547-.039.832-.117v-.879c-.219.047-.39.07-.516.07-.253 0-.433-.063-.539-.19-.105-.127-.158-.317-.158-.571v-3.932h1.184v-.838h-1.184v-1.535h-1.084v1.535h-1.154v.838h1.154v3.932c0 .539.123.955.37 1.248.245.293.61.44 1.095.44zm4.611 0c.43 0 .837-.097 1.222-.293a2.47 2.47 0 00.923-.785c.23-.328.355-.674.375-1.037h-1.025a1.237 1.237 0 01-.48.879c-.29.234-.628.351-1.015.351-.558 0-.988-.197-1.289-.591-.3-.395-.45-.957-.45-1.688v-.205c0-.75.15-1.323.453-1.72.303-.396.73-.594 1.28-.594.41 0 .755.131 1.035.395.279.264.434.6.466 1.01h1.025c-.031-.679-.282-1.232-.753-1.657-.47-.426-1.062-.639-1.772-.639-.579 0-1.08.133-1.503.398a2.588 2.588 0 00-.976 1.12c-.227.48-.34 1.029-.34 1.646v.182c0 1 .255 1.788.765 2.364.51.576 1.196.864 2.06.864zm4.823-.117v-4.518a1.91 1.91 0 01.62-.738c.266-.187.575-.281.927-.281.433 0 .752.11.958.328.205.219.31.557.313 1.014V227h1.084v-4.19c-.012-1.511-.688-2.267-2.027-2.267-.77 0-1.395.295-1.875.885V218h-1.084v9h1.084zm8.713.732l3.556-9.263h-.926l-3.562 9.263h.932zm9.85-.732l1.5-4.805 1.54 4.805h.88l1.845-6.34h-1.084l-1.219 4.846-1.506-4.846h-.873l-1.476 4.746-1.248-4.746h-1.079l1.84 6.34h.88zm7.51-7.406c.212 0 .372-.059.481-.176a.62.62 0 00.164-.44.64.64 0 00-.164-.445c-.109-.12-.27-.181-.48-.181-.211 0-.37.06-.478.181a.647.647 0 00-.16.446c0 .175.053.322.16.439.108.117.267.176.478.176zm.534 7.406v-6.34h-1.084V227h1.084zm3.586.117c.27 0 .547-.039.832-.117v-.879c-.219.047-.39.07-.516.07-.253 0-.433-.063-.539-.19-.105-.127-.158-.317-.158-.571v-3.932h1.184v-.838h-1.184v-1.535h-1.084v1.535h-1.154v.838h1.154v3.932c0 .539.123.955.37 1.248.245.293.61.44 1.095.44zm3.152-.117v-4.518a1.91 1.91 0 01.621-.738c.266-.187.575-.281.926-.281.434 0 .753.11.958.328.205.219.31.557.314 1.014V227h1.084v-4.19c-.012-1.511-.688-2.267-2.028-2.267-.77 0-1.394.295-1.875.885V218h-1.084v9h1.084zm9.141-7.406c.21 0 .371-.059.48-.176a.62.62 0 00.165-.44.64.64 0 00-.165-.445c-.109-.12-.27-.181-.48-.181-.211 0-.37.06-.478.181a.647.647 0 00-.16.446c0 .175.053.322.16.439.108.117.267.176.478.176zm.533 7.406v-6.34h-1.084V227h1.084zm4.278.117c.43 0 .836-.097 1.221-.293a2.47 2.47 0 00.923-.785c.23-.328.356-.674.375-1.037h-1.025a1.237 1.237 0 01-.48.879c-.29.234-.628.351-1.014.351-.56 0-.989-.197-1.29-.591-.3-.395-.45-.957-.45-1.688v-.205c0-.75.15-1.323.453-1.72.303-.396.73-.594 1.28-.594.41 0 .756.131 1.035.395.28.264.434.6.466 1.01h1.025c-.031-.679-.282-1.232-.753-1.657-.47-.426-1.061-.639-1.772-.639-.578 0-1.08.133-1.503.398a2.588 2.588 0 00-.976 1.12c-.226.48-.34 1.029-.34 1.646v.182c0 1 .255 1.788.765 2.364.51.576 1.196.864 2.06.864zm6.34 0c.57 0 1.075-.137 1.514-.41.44-.273.777-.655 1.014-1.145.236-.49.354-1.044.354-1.662v-.076c0-.992-.266-1.787-.8-2.385-.533-.597-1.231-.896-2.094-.896-.559 0-1.056.135-1.492.404-.435.27-.775.653-1.02 1.149-.243.496-.365 1.054-.365 1.675v.077c0 .984.266 1.775.8 2.373.533.597 1.229.896 2.088.896zm0-.885c-.548 0-.984-.212-1.31-.638-.326-.426-.49-.99-.49-1.694 0-.793.165-1.402.493-1.828.328-.426.76-.638 1.295-.638.547 0 .985.215 1.315.647.33.432.495.995.495 1.69 0 .778-.162 1.382-.486 1.814-.324.432-.762.647-1.313.647zm5.326.768v-4.518a1.91 1.91 0 01.62-.738c.266-.187.575-.281.926-.281.434 0 .753.11.958.328.206.219.31.557.314 1.014V227h1.084v-4.19c-.012-1.511-.688-2.267-2.027-2.267-.782 0-1.415.305-1.899.914l-.035-.797h-1.025V227h1.084zm8.724.732l3.557-9.263h-.926l-3.562 9.263h.931zm9.756-.615c.816 0 1.436-.248 1.857-.744l.024.627h1.031v-6.34h-1.084v4.611c-.273.618-.824.926-1.652.926-.781 0-1.172-.48-1.172-1.441v-4.096h-1.084v4.125c.004.77.183 1.35.536 1.743.354.393.868.59 1.544.59zm5.643-.117v-4.518a1.91 1.91 0 01.62-.738c.266-.187.575-.281.926-.281.434 0 .753.11.958.328.206.219.31.557.314 1.014V227h1.084v-4.19c-.012-1.511-.688-2.267-2.027-2.267-.782 0-1.414.305-1.899.914l-.035-.797h-1.025V227h1.084zm7.869.117c.722 0 1.31-.17 1.763-.513.454-.341.68-.795.68-1.362 0-.34-.081-.628-.243-.864-.162-.236-.411-.439-.747-.607-.336-.167-.775-.312-1.316-.433-.54-.121-.915-.248-1.122-.381a.658.658 0 01-.31-.592c0-.277.111-.502.334-.674.222-.171.531-.257.926-.257.382 0 .7.107.952.322.252.215.378.47.378.767h1.09c0-.578-.224-1.052-.671-1.423-.448-.371-1.03-.557-1.75-.557-.683 0-1.245.18-1.684.539-.44.36-.66.799-.66 1.318 0 .313.078.582.232.809.155.227.393.422.715.586.322.164.758.305 1.307.422.549.117.933.257 1.154.419.22.162.331.39.331.682 0 .278-.124.5-.372.665-.248.166-.577.25-.987.25-.446 0-.804-.107-1.075-.32a1.122 1.122 0 01-.437-.864h-1.084c0 .375.11.723.331 1.046.22.322.526.573.917.753.39.18.84.27 1.348.27zm6.486 0c1.063 0 1.86-.408 2.39-1.224l-.661-.516c-.2.258-.432.465-.698.621-.265.156-.59.234-.972.234-.54 0-.984-.192-1.333-.577-.35-.384-.533-.89-.548-1.514h4.295v-.452c0-1.011-.229-1.789-.686-2.332-.457-.543-1.097-.814-1.922-.814-.504 0-.971.14-1.403.419-.432.28-.768.666-1.008 1.16-.24.494-.36 1.056-.36 1.685v.199c0 .945.27 1.7.808 2.265.54.564 1.239.846 2.098.846zm1.389-3.867h-3.176c.07-.574.254-1.02.55-1.339a1.446 1.446 0 011.102-.477c.453 0 .813.151 1.078.454.266.302.414.73.446 1.28v.082zm3.515 3.75v-9h-1.084v9h1.084zm4.366.117c1.062 0 1.859-.408 2.39-1.224l-.662-.516c-.2.258-.432.465-.697.621-.266.156-.59.234-.973.234-.539 0-.983-.192-1.333-.577-.35-.384-.532-.89-.548-1.514h4.295v-.452c0-1.011-.228-1.789-.685-2.332-.457-.543-1.098-.814-1.922-.814-.504 0-.972.14-1.403.419-.432.28-.768.666-1.008 1.16-.24.494-.36 1.056-.36 1.685v.199c0 .945.269 1.7.808 2.265.539.564 1.238.846 2.098.846zm1.388-3.867h-3.176c.07-.574.254-1.02.551-1.339a1.446 1.446 0 011.102-.477c.453 0 .812.151 1.078.454.266.302.414.73.445 1.28v.082zm4.881 3.867c.43 0 .837-.097 1.222-.293a2.47 2.47 0 00.923-.785c.23-.328.355-.674.375-1.037h-1.026a1.237 1.237 0 01-.48.879c-.29.234-.627.351-1.014.351-.558 0-.988-.197-1.289-.591-.3-.395-.451-.957-.451-1.688v-.205c0-.75.151-1.323.454-1.72.303-.396.73-.594 1.28-.594.41 0 .755.131 1.034.395.28.264.435.6.466 1.01h1.026c-.032-.679-.283-1.232-.753-1.657-.471-.426-1.062-.639-1.773-.639-.578 0-1.079.133-1.503.398a2.588 2.588 0 00-.975 1.12c-.227.48-.34 1.029-.34 1.646v.182c0 1 .255 1.788.765 2.364.51.576 1.196.864 2.06.864zm5.59 0c.27 0 .547-.039.832-.117v-.879c-.219.047-.39.07-.516.07-.254 0-.433-.063-.539-.19-.105-.127-.158-.317-.158-.571v-3.932h1.184v-.838h-1.184v-1.535h-1.084v1.535h-1.154v.838h1.154v3.932c0 .539.123.955.37 1.248.245.293.61.44 1.095.44zm4.7 0c1.062 0 1.859-.408 2.39-1.224l-.662-.516c-.2.258-.432.465-.698.621-.265.156-.59.234-.972.234-.54 0-.984-.192-1.333-.577-.35-.384-.532-.89-.548-1.514h4.295v-.452c0-1.011-.229-1.789-.686-2.332-.457-.543-1.097-.814-1.922-.814-.503 0-.971.14-1.403.419-.432.28-.767.666-1.008 1.16-.24.494-.36 1.056-.36 1.685v.199c0 .945.27 1.7.809 2.265.539.564 1.238.846 2.097.846zm1.388-3.867h-3.176c.07-.574.254-1.02.55-1.339a1.446 1.446 0 011.102-.477c.454 0 .813.151 1.079.454.265.302.414.73.445 1.28v.082zm4.564 3.867c.774 0 1.377-.265 1.81-.797l.054.68h.996v-9h-1.084v3.305c-.434-.508-1.022-.762-1.764-.762-.746 0-1.35.296-1.81.888-.461.591-.692 1.374-.692 2.346v.082c0 .97.232 1.754.694 2.356.463.601 1.062.902 1.796.902zm.27-.92c-.524 0-.934-.203-1.23-.61-.298-.405-.446-.968-.446-1.687 0-.804.149-1.412.445-1.822.297-.41.711-.615 1.243-.615.671 0 1.17.299 1.494.896v2.912c-.317.618-.819.926-1.506.926zm-155.707 19.535l3.556-9.263h-.925l-3.563 9.263h.932zm9.926-.615c.773 0 1.377-.265 1.81-.797l.053.68h.996v-9h-1.084v3.305c-.434-.508-1.021-.762-1.764-.762-.746 0-1.35.296-1.81.888-.461.591-.692 1.374-.692 2.346v.082c0 .97.232 1.754.695 2.356.463.601 1.061.902 1.796.902zm.27-.92c-.524 0-.934-.203-1.231-.61-.297-.405-.446-.968-.446-1.687 0-.804.149-1.412.446-1.822.297-.41.71-.615 1.242-.615.672 0 1.17.299 1.494.896v2.912c-.316.618-.818.926-1.506.926zm4.915-6.603c.211 0 .371-.059.48-.176a.62.62 0 00.165-.44.64.64 0 00-.164-.445c-.11-.12-.27-.181-.48-.181-.212 0-.371.06-.478.181a.647.647 0 00-.162.446c0 .175.054.322.162.439.107.117.266.176.477.176zm.533 7.406v-6.34h-1.084V245h1.084zm4.067.117c.722 0 1.31-.17 1.763-.513.454-.341.68-.795.68-1.362 0-.34-.08-.628-.243-.864-.162-.236-.411-.439-.747-.607-.336-.167-.775-.312-1.316-.433-.54-.121-.915-.248-1.122-.381a.658.658 0 01-.31-.592c0-.277.111-.502.334-.674.222-.171.531-.257.926-.257.382 0 .7.107.952.322.252.215.378.47.378.767h1.09c0-.578-.224-1.052-.671-1.423-.448-.371-1.03-.557-1.75-.557-.683 0-1.245.18-1.684.539-.44.36-.66.799-.66 1.318 0 .313.078.582.232.809.155.227.393.422.715.586.322.164.758.305 1.307.422.549.117.933.257 1.154.419.22.162.331.39.331.682 0 .278-.124.5-.372.665-.248.166-.577.25-.987.25-.446 0-.804-.107-1.075-.32a1.122 1.122 0 01-.437-.864h-1.084c0 .375.11.723.331 1.046.22.322.526.573.917.753.39.18.84.27 1.348.27zm5.812 0c.7 0 1.301-.262 1.805-.785.039.32.09.543.152.668h1.137v-.094c-.148-.344-.223-.806-.223-1.388V240.6c-.015-.641-.23-1.144-.644-1.51-.414-.364-.987-.547-1.717-.547-.46 0-.884.086-1.269.258a2.3 2.3 0 00-.914.7c-.224.295-.337.6-.337.917h1.09c0-.277.131-.514.393-.709.262-.195.586-.293.973-.293.441 0 .775.112 1.002.337.226.225.34.526.34.905v.498h-1.055c-.91 0-1.617.183-2.118.548-.502.365-.753.878-.753 1.538 0 .543.2.991.6 1.345.4.353.913.53 1.538.53zm.158-.943c-.355 0-.646-.096-.873-.287-.226-.192-.34-.457-.34-.797 0-.778.665-1.166 1.993-1.166h.85v1.3c-.137.282-.358.51-.663.686a1.905 1.905 0 01-.967.264zm7.319.943c.75 0 1.347-.294 1.793-.882.445-.588.668-1.366.668-2.335v-.093c0-1.012-.22-1.809-.66-2.391-.439-.582-1.043-.873-1.813-.873s-1.373.271-1.81.814V236h-1.084v9h.996l.052-.732c.438.566 1.057.85 1.858.85zm-.27-.92c-.703 0-1.22-.332-1.552-.996v-2.742c.312-.664.826-.996 1.54-.996.536 0 .946.201 1.231.603.285.403.428.973.428 1.711 0 .809-.145 1.414-.434 1.817-.289.402-.693.603-1.213.603zm5.274.803v-9h-1.084v9h1.084zm4.365.117c1.062 0 1.86-.408 2.39-1.224l-.662-.516c-.199.258-.431.465-.697.621-.265.156-.59.234-.972.234-.54 0-.984-.192-1.333-.577-.35-.384-.533-.89-.548-1.514h4.295v-.452c0-1.011-.229-1.789-.686-2.332-.457-.543-1.098-.814-1.922-.814-.504 0-.971.14-1.403.419-.432.28-.768.666-1.008 1.16-.24.494-.36 1.056-.36 1.685v.199c0 .945.27 1.7.808 2.265.54.564 1.239.846 2.098.846zm1.389-3.867h-3.176c.07-.574.254-1.02.55-1.339a1.446 1.446 0 011.102-.477c.453 0 .813.151 1.078.454.266.302.414.73.446 1.28v.082zm4.564 3.867c.774 0 1.377-.265 1.81-.797l.053.68h.996v-9h-1.084v3.305c-.433-.508-1.021-.762-1.763-.762-.746 0-1.35.296-1.81.888-.462.591-.692 1.374-.692 2.346v.082c0 .97.231 1.754.694 2.356.463.601 1.062.902 1.796.902zm.27-.92c-.524 0-.934-.203-1.23-.61-.298-.405-.446-.968-.446-1.687 0-.804.148-1.412.445-1.822.297-.41.711-.615 1.242-.615.672 0 1.17.299 1.494.896v2.912c-.316.618-.818.926-1.505.926z" fill-opacity=".56" fill="#000000" fill-rule="nonzero"/></g></svg>