<svg xmlns="http://www.w3.org/2000/svg" xmlns:xlink="http://www.w3.org/1999/xlink" width="860" height="342"><defs><path id="d" d="M40 32h780a8 8 0 018 8v302H32V40a8 8 0 018-8z"/><path id="e" d="M0 .115h86.501v50.951H0z"/><path id="g" d="M.279.513h80.79V43H.279z"/><path id="i" d="M.193.282h47.522v48.884H.193z"/><path id="k" d="M0 .319h56.509v46.028H0z"/><path id="m" d="M.263.354h37.431v17.51H.263z"/><path id="o" d="M0 .029h31.852v24.644H0z"/><path id="q" d="M.004.649h2.638v2.366H.004z"/><path id="s" d="M0 .314h4.84v5.74H0z"/><path id="u" d="M.398 3.352c0 1.515 2.19 2.744 4.891 2.744 2.702 0 4.891-1.229 4.891-2.744C10.18 1.837 7.991.61 5.29.61 2.587.609.397 1.837.397 3.352"/><filter id="c" width="105%" height="112.9%" x="-2.5%" y="-5.2%" filterUnits="objectBoundingBox"><feOffset dy="2" in="SourceAlpha" result="shadowOffsetOuter1"/><feGaussianBlur in="shadowOffsetOuter1" result="shadowBlurOuter1" stdDeviation="4"/><feColorMatrix in="shadowBlurOuter1" result="shadowMatrixOuter1" values="0 0 0 0 0 0 0 0 0 0 0 0 0 0 0 0 0 0 0.08 0"/><feOffset dy="4" in="SourceAlpha" result="shadowOffsetOuter2"/><feGaussianBlur in="shadowOffsetOuter2" result="shadowBlurOuter2" stdDeviation="6"/><feColorMatrix in="shadowBlurOuter2" result="shadowMatrixOuter2" values="0 0 0 0 0 0 0 0 0 0 0 0 0 0 0 0 0 0 0.04 0"/><feOffset in="SourceAlpha" result="shadowOffsetOuter3"/><feGaussianBlur in="shadowOffsetOuter3" result="shadowBlurOuter3" stdDeviation="2"/><feColorMatrix in="shadowBlurOuter3" result="shadowMatrixOuter3" values="0 0 0 0 0 0 0 0 0 0 0 0 0 0 0 0 0 0 0.04 0"/><feMerge><feMergeNode in="shadowMatrixOuter1"/><feMergeNode in="shadowMatrixOuter2"/><feMergeNode in="shadowMatrixOuter3"/></feMerge></filter><rect id="a" width="860" height="342" x="0" y="0" rx="4"/></defs><g fill="none" fill-rule="evenodd"><mask id="b" fill="#fff"><use xlink:href="#a"/></mask><use fill="#000" fill-opacity="0" xlink:href="#a"/><g mask="url(#b)"><use fill="#000" filter="url(#c)" xlink:href="#d"/><use fill="#FFF" xlink:href="#d"/></g><path fill="#000000" fill-opacity=".87" fill-rule="nonzero" d="M530.543 84.26a15.334 15.334 0 003.292-.412 24.47 24.47 0 003.013-.93c.962-.369 1.884-.77 2.765-1.205.881-.435 1.728-.846 2.54-1.235l.182-2.243a5.465 5.465 0 01-1.392-.196c-.452-.125-.9-.278-1.343-.46a25.34 25.34 0 01-1.317-.588 30.033 30.033 0 00-1.3-.587 10.137 10.137 0 00-1.31-.452 5.088 5.088 0 00-1.33-.178c-.434 0-.846.077-1.234.23-.389.154-.75.36-1.083.618-.333.258-.636.55-.909.878a6.92 6.92 0 00-.704 1.013l1.809 1.174.121-.209a4.835 4.835 0 01.535-.722c.12-.133.254-.255.405-.365.15-.11.314-.201.49-.274.178-.072.368-.108.57-.108.348 0 .699.063 1.053.191.353.128.721.278 1.104.452.383.174.788.352 1.217.535.43.183.893.329 1.392.44-.626.306-1.29.605-1.992.895-.701.29-1.42.546-2.156.77-.736.222-1.477.402-2.222.538a12.19 12.19 0 01-2.196.205h-1.886v2.226h1.886zm5.287 4.48l1.67-1.67-1.67-1.661-1.66 1.66 1.66 1.67zm-6.826-4.48v-2.225h-.391c-.226 0-.425-.023-.596-.07a.946.946 0 01-.421-.23.863.863 0 01-.23-.405 2.157 2.157 0 01-.066-.556v-.14c0-.179.001-.356.004-.53a987.263 987.263 0 00.018-1.091 41.778 41.778 0 00-.005-1.53 58.361 58.361 0 01-.008-.979 45.554 45.554 0 00-.122-3.295c-.04-.551-.087-1.068-.14-1.552-.051-.485-.11-.895-.173-1.23l-2.183.651c.052.273.099.587.14.944.04.356.075.739.104 1.148.029.408.053.831.074 1.27.02.437.036.874.048 1.312a101.456 101.456 0 01.034 2.465c0 .615-.005 1.135-.017 1.561-.012.426-.017.732-.017.918.005 1.194.313 2.087.921 2.678.609.591 1.502.887 2.679.887h.347zm-11.226 0c.655 0 1.271-.066 1.848-.2a4.458 4.458 0 001.513-.638 3.134 3.134 0 001.022-1.144c.25-.47.374-1.04.374-1.713 0-.377-.035-.762-.105-1.156a11.35 11.35 0 00-.273-1.179 13.24 13.24 0 00-.387-1.143c-.145-.371-.29-.722-.435-1.052l-2.009.991c.157.307.306.638.448.991.142.354.265.696.37 1.026.104.33.188.632.252.905.063.272.095.484.095.635 0 .318-.088.574-.265.765-.177.191-.4.338-.67.439-.269.101-.562.168-.878.2-.316.032-.61.048-.882.048h-1.853v2.226h1.835zm-.078 4.053l1.478-1.478-1.495-1.496-1.479 1.487 1.496 1.487zm3.287.017l1.478-1.487-1.495-1.486-1.479 1.478 1.496 1.495zm-13.974-16.736l7.34-2.99-.43-.888-6.846 2.752-.064 1.126zm1.522 12.667c.348-.018.685-.06 1.013-.126.327-.067.639-.168.935-.305a3.608 3.608 0 001.513-1.291c.272.307.549.57.83.787.281.217.583.396.904.535.322.139.671.24 1.048.304s.797.096 1.261.096h.252v-2.226h-.548c-.295 0-.566-.04-.813-.122a2.423 2.423 0 01-.678-.348 3.339 3.339 0 01-.574-.539 5.325 5.325 0 01-.5-.704 17.004 17.004 0 01-.47-.809c-.144-.267-.29-.54-.434-.817a44.501 44.501 0 00-.626-1.157 14.04 14.04 0 00-.718-1.143 12.279 12.279 0 00-2.065-2.291l6.565-2.696-.808-1.992-7.609 3.218-.209 2.452a12.972 12.972 0 012.44 2.596c.246.345.46.687.643 1.026.183.339.329.672.44 1 .11.327.164.63.164.908 0 .18-.05.355-.152.526a1.477 1.477 0 01-.43.453c-.186.13-.413.236-.683.317-.27.081-.572.122-.909.122h-2.704v2.226h2.922zm-2.574 0v-2.226h-.391c-.227 0-.425-.023-.596-.07a.946.946 0 01-.422-.23.863.863 0 01-.23-.405 2.157 2.157 0 01-.065-.556v-.14c0-.179.001-.356.004-.53a987.263 987.263 0 00.017-1.091c.003-.194.005-.401.005-.622v-.203a60.922 60.922 0 00-.01-.705 58.362 58.362 0 01-.008-.979 45.556 45.556 0 00-.122-3.295c-.04-.551-.086-1.068-.139-1.552-.052-.485-.11-.895-.174-1.23l-2.182.651c.052.273.098.587.139.944.04.356.075.739.104 1.148.03.408.054.831.074 1.27.02.437.036.874.048 1.312a101.437 101.437 0 01.035 2.465c0 .615-.006 1.135-.018 1.561-.011.426-.017.732-.017.918.006 1.194.313 2.087.922 2.678.608.591 1.501.887 2.678.887h.348zm-9.991 0c.59 0 1.121-.068 1.59-.204.47-.137.869-.343 1.197-.618a2.74 2.74 0 00.756-1.026c.177-.409.265-.885.265-1.43 0-1.264-.727-2.728-2.182-4.392a21.813 21.813 0 00-1.348-1.365 16.316 16.316 0 00-.905-.774l-1.408 1.722a8.685 8.685 0 00.556.47 26.14 26.14 0 00-.378.386c-.136.142-.288.312-.456.51-.986 1.193-1.479 2.341-1.479 3.443 0 .516.089.976.265 1.382.177.406.43.75.757 1.03.328.282.725.496 1.191.644.467.148.993.222 1.579.222zm0-2.252c-.169 0-.356-.018-.561-.052a2.496 2.496 0 01-.587-.174 1.422 1.422 0 01-.465-.318.672.672 0 01-.187-.482c0-.232.055-.492.165-.779.11-.287.248-.574.413-.86.165-.287.343-.558.535-.814.19-.255.37-.466.539-.634.26.249.511.518.752.808.24.29.454.577.639.861.186.284.333.55.444.8.11.25.165.455.165.618a.74.74 0 01-.174.504c-.116.133-.264.24-.444.317-.18.079-.38.132-.6.161a4.87 4.87 0 01-.634.044zm-16.696-9.426l1.356-1.357-1.365-1.365-1.356 1.356 1.365 1.366zm-1.644 2.626l1.479-1.479-1.496-1.495-1.478 1.487 1.495 1.487zm3.287.017l1.479-1.487-1.496-1.487-1.478 1.478 1.495 1.496zm-4.347 9.14c.336-.007.633-.046.89-.118a2.9 2.9 0 00.697-.291c.205-.122.386-.266.543-.43.157-.166.301-.344.435-.536.116.174.248.345.395.513.148.168.316.318.505.448a2.34 2.34 0 001.37.413h.121c.586 0 1.104-.08 1.557-.243.47-.163.865-.397 1.187-.705.321-.307.565-.678.73-1.113.165-.434.248-.921.248-1.46 0-.343-.028-.69-.083-1.044-.055-.354-.127-.7-.217-1.04a14.817 14.817 0 00-.87-2.42 7.155 7.155 0 00-.17-.349l-1.869 1.044c.099.203.215.458.348.765.133.307.26.635.378.983.12.347.22.704.305 1.07.084.364.126.704.126 1.017 0 .429-.13.747-.392.956-.26.209-.597.313-1.008.313a1.272 1.272 0 01-.557-.126 1.012 1.012 0 01-.365-.313 1.07 1.07 0 01-.183-.417 2.235 2.235 0 01-.043-.43v-.14c.017-.243.042-.487.074-.73.032-.244.065-.477.1-.7.035-.224.068-.43.1-.622.032-.191.056-.357.074-.496l-2.035-.391a15.79 15.79 0 01-.144.826c-.06.307-.136.622-.226.943-.09.322-.197.637-.321.944-.125.307-.27.581-.435.822-.165.24-.352.434-.561.582a1.19 1.19 0 01-.704.222c-.244 0-.42-.071-.527-.213a.823.823 0 01-.178-.43l-.007-.101-.01-.152v-.052c0-.185.02-.385.06-.6.053-.284.118-.566.196-.848.079-.28.161-.547.248-.8.087-.252.157-.459.209-.621l-2.174-.479-.217.822c-.082.304-.177.613-.287.926a7.91 7.91 0 01-.387.913 4.04 4.04 0 01-.513.792 2.351 2.351 0 01-.67.556c-.252.14-.538.209-.856.209h-.348v2.226h.313c.406 0 .76-.035 1.06-.104.302-.07.564-.164.788-.283.223-.119.411-.254.565-.404.153-.151.285-.308.395-.47.128.186.269.362.422.53.154.169.325.315.513.44a2.429 2.429 0 001.343.396h.062zm-9.853-10.096l1.67-1.67-1.67-1.66-1.66 1.66 1.66 1.67zm-5.243 9.99a14.186 14.186 0 002.7-.264c.455-.09.89-.21 1.304-.361.415-.15.779-.336 1.092-.557.29.238.608.432.956.583.348.15.715.27 1.1.36.386.09.791.153 1.217.188.427.034.863.052 1.31.052h.304v-2.226h-.287c-.453 0-.884-.025-1.296-.074a7.676 7.676 0 01-1.148-.222c.29-.25.565-.532.826-.848.261-.316.489-.642.683-.978.194-.336.339-.654.435-.952.095-.299.143-.564.143-.796 0-.046-.003-.095-.009-.148a1.976 1.976 0 00-.078-.43 1.803 1.803 0 00-.248-.513 2.7 2.7 0 00-.487-.53 3.207 3.207 0 00-.804-.483 4.95 4.95 0 00-1.435-.413 10.229 10.229 0 00-1.174-.083c-.266 0-.53.015-.791.044a6.997 6.997 0 00-1.8.421c-.33.125-.668.286-1.013.483-.345.197-.683.44-1.013.73l-.122 1.81a47.2 47.2 0 011.37 1.325l.613.618.643.647a6.921 6.921 0 01-.691.166c-.246.046-.499.087-.757.121a11.535 11.535 0 01-1.552.105h-.304v2.226h.313zm5.06-3.495a86.096 86.096 0 00-.469-.465 58.461 58.461 0 01-.6-.6c-.214-.217-.435-.45-.66-.696-.227-.246-.441-.494-.644-.743.162-.075.346-.145.552-.209.206-.064.419-.117.64-.16.22-.044.437-.079.651-.105.215-.026.412-.04.592-.04.191 0 .39.014.595.04.206.026.409.06.609.104s.39.097.57.161c.18.064.339.134.478.209-.052.15-.165.342-.34.574-.173.232-.373.47-.6.713-.225.243-.462.475-.708.695-.246.22-.468.395-.665.522zm-9.93 3.496c.163 0 .345-.01.548-.03.203-.02.409-.06.618-.118.208-.058.413-.138.613-.24.2-.1.384-.232.552-.395a3.475 3.475 0 001.622.726c.217.038.439.057.665.057h.287v-2.226h-.192c-.446 0-.782-.126-1.008-.378-.226-.253-.34-.599-.34-1.04 0-.626.01-1.345.031-2.156.02-.812.03-1.765.03-2.861 0-.493-.001-.981-.004-1.465a52.23 52.23 0 00-.083-2.648 15.325 15.325 0 00-.095-1.06l-2.218.286c.035.29.063.612.083.965.02.354.035.73.044 1.13.008.4.014.817.017 1.249a196.305 196.305 0 01-.044 5.713c-.008.333-.013.566-.013.7-.023.342-.078.614-.165.817-.087.203-.2.36-.339.474-.14.113-.299.187-.478.222-.18.034-.374.052-.583.052h-.635v2.226h1.087zm-8.608 5.67c.394 0 .833-.031 1.317-.092.484-.06.975-.158 1.474-.291a9.837 9.837 0 001.46-.518c.476-.211.9-.47 1.275-.773.374-.305.68-.658.917-1.061.238-.403.368-.86.391-1.37a3.01 3.01 0 00-.126-.726 2.373 2.373 0 00-.465-.84h1.626v-2.225h-6.904l-.296 2.174c.389.07.78.136 1.174.2.394.063.791.162 1.191.295.273.105.528.213.766.326.237.113.445.222.621.327.177.104.316.198.418.282.101.084.152.147.152.187 0 .25-.1.467-.3.652-.2.186-.458.348-.774.487-.316.14-.668.255-1.056.348-.389.093-.767.168-1.135.226a12.637 12.637 0 01-1.726.157c-.273 0-.593-.008-.961-.022a7.215 7.215 0 01-1.122-.135 4.486 4.486 0 01-1.083-.36 2.268 2.268 0 01-.852-.71 3.627 3.627 0 01-.574-2.009c0-.347.018-.71.053-1.086.034-.377.097-.78.186-1.209.09-.429.214-.894.37-1.395.157-.502.354-1.048.591-1.64l-1.791-.826a22.28 22.28 0 00-.626 1.67 17.687 17.687 0 00-.413 1.465c-.107.461-.191.9-.252 1.318-.061.417-.109.826-.144 1.226a7.332 7.332 0 00-.026.608c0 .742.122 1.406.365 1.992a4.63 4.63 0 001.348 1.865c.597.495 1.32.866 2.165 1.113a9.86 9.86 0 002.766.37zm-23.4-5.67c.684 0 1.288-.122 1.813-.365a5.24 5.24 0 001.474-1.044 10.138 10.138 0 00.895.557 8.815 8.815 0 00.87.426c.278.104.552.187.822.248.27.06.526.09.77.09.283 0 .556-.043.817-.13a2.795 2.795 0 001.334-.947 3.03 3.03 0 00.43-.757c.1-.26.173-.53.222-.809.05-.278.074-.565.074-.86a5.228 5.228 0 00-.365-1.91 4.164 4.164 0 00-.46-.851 3.44 3.44 0 00-.649-.696 2.876 2.876 0 00-1.856-.64c-.412 0-.774.084-1.087.249-.313.165-.591.38-.835.643-.243.264-.46.561-.652.892-.191.33-.368.663-.53 1-.163.318-.335.637-.518.956a4.528 4.528 0 01-.635.86c-.24.256-.517.463-.83.623-.313.16-.681.239-1.104.239h-.174v2.226h.174zM431.648 82c-.116 0-.244-.017-.383-.052a4.355 4.355 0 01-.756-.235c-.255-.104-.5-.22-.735-.348a7.723 7.723 0 01-.587-.348c.22-.44.406-.804.556-1.09.151-.288.282-.517.392-.688.11-.17.204-.293.282-.365a.515.515 0 01.24-.135c.086-.017.17-.026.252-.026.168 0 .324.035.47.104.214.11.4.267.556.47.156.203.28.436.37.7.09.264.134.526.134.787v.087c0 .139-.011.267-.035.382-.034.14-.08.261-.134.366a.902.902 0 01-.183.248.41.41 0 01-.187.108.855.855 0 01-.252.035zm-15.044 8.348a11.65 11.65 0 002.513-.713 9.355 9.355 0 002.196-1.261 7.899 7.899 0 001.691-1.796c.47-.687.803-1.46 1-2.317h.766v-2.226h-.583a8.02 8.02 0 00-.17-1.274 8.386 8.386 0 00-.352-1.196 7.101 7.101 0 00-.513-1.078 5.662 5.662 0 00-.66-.913c-.743-.8-1.563-1.2-2.462-1.2a2.38 2.38 0 00-.973.2 3.022 3.022 0 00-.827.543c-.249.23-.47.493-.66.792a5.398 5.398 0 00-.483.948 6.06 6.06 0 00-.3 1.021 5.1 5.1 0 00-.104 1c0 .499.066.928.2 1.287.133.36.32.665.56.918.241.252.528.455.861.608.334.154.699.273 1.096.357.397.084.819.14 1.265.17.447.028.905.043 1.374.043-.104.394-.314.788-.63 1.182a5.724 5.724 0 01-1.23 1.114c-.505.347-1.1.662-1.788.943-.687.281-1.456.506-2.308.674l.521 2.174zm5.557-8.313h-.426c-.15 0-.303-.003-.457-.009-.153-.006-.303-.01-.448-.013a5.373 5.373 0 01-.4-.022 4.856 4.856 0 01-.665-.1 2.199 2.199 0 01-.6-.221 1.283 1.283 0 01-.435-.392 1.04 1.04 0 01-.17-.608c0-.232.049-.47.144-.713.096-.244.216-.466.361-.666s.305-.363.478-.491c.174-.128.337-.191.487-.191.163 0 .325.055.487.165.163.11.32.256.474.439.154.183.297.391.43.626a6.37 6.37 0 01.614 1.496c.066.252.108.485.126.7zm-13.304 8.539a16.787 16.787 0 001.53-.861c.504-.319.983-.664 1.435-1.035.452-.37.87-.765 1.256-1.182a8.354 8.354 0 001-1.318c.281-.46.502-.939.661-1.435.16-.495.24-1.004.24-1.526 0-.382-.033-.775-.096-1.178a14.068 14.068 0 00-.248-1.213 21.15 21.15 0 00-.34-1.204c-.124-.397-.244-.779-.36-1.144l-2.183.705c.076.255.17.547.283.878.113.33.223.674.33 1.03.107.357.199.718.274 1.083.075.365.113.713.113 1.043 0 .354-.064.705-.191 1.053a4.72 4.72 0 01-.526 1.017c-.223.33-.49.65-.8.956-.31.308-.647.6-1.009.879-.362.278-.743.54-1.143.787-.4.246-.806.47-1.218.674l.992 1.99zm-4.287-6.217c.597 0 1.144-.09 1.643-.27.58-.209 1.058-.509 1.435-.9s.619-.79.726-1.196c.107-.405.16-.753.16-1.043 0-.302-.037-.618-.112-.948a6.525 6.525 0 00-.692-1.704 10.943 10.943 0 00-1.139-1.622 13.957 13.957 0 00-1.434-1.465 16.338 16.338 0 00-1.579-1.235l-1.295 1.922c.278.174.578.387.9.639.321.252.642.527.96.826.32.298.627.61.922.935.296.324.557.647.783.97.226.321.404.628.535.921.13.293.195.555.195.787V81a.81.81 0 01-.13.44 1.003 1.003 0 01-.318.295c-.13.078-.276.139-.439.182a3.612 3.612 0 01-.487.096c-.162.02-.316.033-.46.04a3.779 3.779 0 01-1.213-.104 10.17 10.17 0 01-1.948-.678 7.251 7.251 0 01-.796-.428l-.922 2.13a10.157 10.157 0 002.074.965c.38.129.767.229 1.161.301.394.073.783.109 1.165.109.105.006.206.009.305.009zm-19.322-.096c.927 0 1.756-.026 2.487-.078.73-.053 1.384-.118 1.96-.196a19.098 19.098 0 001.535-.265c.447-.099.85-.194 1.21-.287l-.27-2.165-.93.182c-.28.047-.588.094-.927.144-.34.049-.677.085-1.013.108a2.813 2.813 0 01-1.035-.122 2.826 2.826 0 01-.904-.456c-.261-.2-.464-.429-.609-.687a1.605 1.605 0 01-.217-.796.86.86 0 01.008-.121c.018-.232.07-.45.157-.652a1.656 1.656 0 01.94-.9c.225-.09.486-.135.782-.135.365 0 .701.068 1.008.204.308.136.577.289.81.457.277.197.52.417.73.66l1.408-1.73a6.102 6.102 0 00-.539-.478 8.48 8.48 0 00-.591-.426 7.902 7.902 0 00-.578-.33 5.697 5.697 0 00-.674-.296 5.023 5.023 0 00-.753-.209 4.226 4.226 0 00-.821-.078c-.574 0-1.106.107-1.596.321a3.99 3.99 0 00-1.27.87 4.028 4.028 0 00-1.143 2.826c0 .464.057.888.17 1.274.113.386.326.76.639 1.126l-1.661.009h-.383v2.226h2.07zm-10.096.652a9.058 9.058 0 001.961-.248 7.112 7.112 0 001.817-.708 5.012 5.012 0 001.492-1.279c.226.528.55.923.974 1.187.423.264.96.396 1.608.396h.522v-2.226h-.174c-.33 0-.593-.083-.787-.248a1.672 1.672 0 01-.46-.683c-.114-.29-.2-.632-.262-1.026-.06-.394-.12-.817-.178-1.27l-1.122-8.321-2.156.522 1.33 7.565c.035.191.053.374.053.548 0 .191-.02.377-.061.556a3.31 3.31 0 01-.366.935c-.162.275-.35.51-.565.704a2.502 2.502 0 01-.626.43 21.37 21.37 0 00-.517-1.708 27.62 27.62 0 00-.948-2.378 32.675 32.675 0 00-1.413-2.77 26.291 26.291 0 00-1.904-2.882l-1.635 1.67c.006.005.07.085.195.238a25.372 25.372 0 011.166 1.57 29.162 29.162 0 011.582 2.583c.264.487.503.985.718 1.495.214.51.395 1.026.543 1.548a7.99 7.99 0 01.283 1.53c-.22.035-.4.057-.54.066a5.034 5.034 0 01-.652.004 8.997 8.997 0 01-.639-.043 58.183 58.183 0 01-.795-.087l-.383 2.217c.545.075 1.113.113 1.704.113h.235zm-10.13-12.096l1.478-1.478-1.496-1.496-1.478 1.487 1.496 1.487zm3.287.018l1.478-1.487-1.496-1.487-1.478 1.478 1.496 1.496zm-5.2 11.426c.672 0 1.323-.023 1.952-.07a11.638 11.638 0 001.77-.26 7.16 7.16 0 001.508-.522 3.97 3.97 0 001.174-.852c.328-.348.583-.766.765-1.253.183-.487.274-1.06.274-1.721 0-.389-.039-.799-.117-1.23a7.883 7.883 0 00-.344-1.275 7.2 7.2 0 00-.556-1.191 4.975 4.975 0 00-.757-.996 3.426 3.426 0 00-.948-.682 2.544 2.544 0 00-1.121-.252c-.325 0-.626.059-.905.178a2.81 2.81 0 00-.765.487 3.611 3.611 0 00-.617.717c-.18.273-.334.562-.461.87a4.96 4.96 0 00-.287.948c-.064.324-.096.64-.096.947 0 .522.103.979.309 1.37.206.391.483.717.83.978.348.261.753.457 1.213.587.461.13.947.196 1.457.196h.887c-.168.122-.42.232-.757.33a9.142 9.142 0 01-1.2.252c-.463.07-.976.124-1.539.161-.562.038-1.148.057-1.756.057h-.209v2.226h.296zm4.512-5.244h-.069a7.758 7.758 0 01-1.16-.07 2.105 2.105 0 01-.557-.147.888.888 0 01-.378-.3.858.858 0 01-.14-.509v-.034c0-.21.044-.42.13-.635.088-.22.2-.418.34-.592.14-.173.284-.307.435-.4.15-.092.284-.139.4-.139.029 0 .058.003.087.009.249.017.47.133.665.348.194.214.362.468.504.76.142.293.261.595.357.905.095.31.17.57.222.778-.18.012-.356.02-.527.022-.17.003-.297.004-.378.004h.07zm-4.46 5.244v-2.226h-.174c-.18 0-.336-.01-.47-.03a1.168 1.168 0 01-.347-.105.871.871 0 01-.261-.2 1.241 1.241 0 01-.2-.317 2.102 2.102 0 01-.083-.222 5.093 5.093 0 01-.135-.583 34.958 34.958 0 01-.187-1.117 52.243 52.243 0 01-.339-2.77 248.969 248.969 0 01-.165-1.552 74.335 74.335 0 01-.1-.974l-2.2.47.113 1.322c-.29.115-.596.253-.917.413-.322.159-.64.339-.953.539a7.96 7.96 0 00-.895.665 5.052 5.052 0 00-.748.791 3.839 3.839 0 00-.513.913 2.78 2.78 0 00-.191 1.026c0 .337.052.638.156.905.105.266.248.501.43.704.183.203.398.375.644.517.246.142.512.26.796.353.284.092.58.159.891.2.31.04.619.06.926.06.278 0 .562-.011.852-.034.29-.023.6-.058.93-.105.198.342.407.603.627.783.22.18.453.312.7.396.246.084.504.133.774.147.27.015.558.025.865.03h.174zm-4.974-3.426c-.203 0-.417-.01-.644-.03a4.029 4.029 0 01-.63-.105 1.581 1.581 0 01-.483-.2c-.127-.084-.19-.19-.19-.317a.85.85 0 01.134-.435c.09-.15.207-.3.352-.448.145-.148.312-.293.5-.435a7.56 7.56 0 01.578-.395c.197-.122.389-.232.574-.33a6.43 6.43 0 01.505-.244c.034.272.068.545.1.817l.09.787c.03.252.059.486.088.7.029.214.058.4.087.557a7.143 7.143 0 01-1.06.078zm-1.322-7.078l2.087-1.157 2.235-1.304-.66-.887-.775.4c-.18.092-.319.16-.417.204a2.431 2.431 0 01-.23.091 2.28 2.28 0 01-.205.053 1.08 1.08 0 01-.209.017h-.078a1.032 1.032 0 01-.322-.07 1.243 1.243 0 01-.291-.16.516.516 0 01-.187-.257 1.023 1.023 0 01-.06-.34v-.069a.82.82 0 01.108-.339.981.981 0 01.23-.27 1.199 1.199 0 01.583-.252 2.064 2.064 0 01.365 0c.104.018.216.038.335.061.119.023.254.047.404.07l.322-1.052a21.78 21.78 0 00-.43-.1 5.767 5.767 0 00-.313-.061 3.093 3.093 0 00-.466-.04c-.156 0-.31.014-.46.04a1.995 1.995 0 00-1.07.565 2.16 2.16 0 00-.426.613c-.105.226-.16.41-.165.552a8.97 8.97 0 00-.01.274c0 .209.041.418.123.626a2.159 2.159 0 00.887 1l-1.444.809.54.983zm-15.835-1.174l1.357-1.357-1.365-1.365-1.357 1.356 1.365 1.366zm-1.643 2.626l1.478-1.479-1.495-1.495-1.479 1.487 1.496 1.487zm3.287.017l1.478-1.487-1.495-1.487-1.479 1.478 1.496 1.496zm-4.348 9.14c.336-.007.633-.046.891-.118a2.9 2.9 0 00.696-.291c.206-.122.387-.266.544-.43.156-.166.301-.344.434-.536.116.174.248.345.396.513.148.168.316.318.504.448a2.34 2.34 0 001.37.413h.122c.585 0 1.104-.08 1.556-.243.47-.163.865-.397 1.187-.705.322-.307.565-.678.73-1.113.166-.434.248-.921.248-1.46 0-.343-.027-.69-.082-1.044-.055-.354-.128-.7-.218-1.04a14.817 14.817 0 00-.87-2.42 7.154 7.154 0 00-.169-.349l-1.87 1.044c.1.203.215.458.348.765.134.307.26.635.379.983.119.347.22.704.304 1.07.084.364.126.704.126 1.017 0 .429-.13.747-.391.956-.261.209-.597.313-1.009.313a1.272 1.272 0 01-.556-.126 1.011 1.011 0 01-.366-.313 1.07 1.07 0 01-.182-.417 2.235 2.235 0 01-.044-.43v-.14c.018-.243.042-.487.074-.73.032-.244.065-.477.1-.7.035-.224.068-.43.1-.622.032-.191.057-.357.074-.496l-2.035-.391c-.034.243-.082.519-.143.826-.061.307-.136.622-.226.943-.09.322-.197.637-.322.944-.125.307-.27.581-.435.822-.165.24-.352.434-.56.582a1.19 1.19 0 01-.705.222c-.243 0-.419-.071-.526-.213a.823.823 0 01-.178-.43 4.468 4.468 0 01-.018-.305c0-.185.02-.385.061-.6.052-.284.118-.566.196-.848.078-.28.16-.547.248-.8.087-.252.156-.459.208-.621l-2.174-.479c-.063.244-.136.518-.217.822-.081.304-.177.613-.287.926a7.91 7.91 0 01-.387.913 4.04 4.04 0 01-.513.792 2.351 2.351 0 01-.67.556c-.252.14-.537.209-.856.209h-.348v2.226h.313c.406 0 .76-.035 1.061-.104.302-.07.564-.164.787-.283.223-.119.412-.254.565-.404.154-.151.286-.308.396-.47.127.186.268.362.422.53.153.169.324.315.513.44.188.124.394.221.617.29.223.07.465.105.726.105h.061zm-15.53-.105a4 4 0 00.917-.096c.27-.064.52-.155.752-.274.232-.119.455-.265.67-.439.214-.174.435-.374.66-.6.267.18.593.35.979.513.385.163.788.307 1.209.435.42.128.833.23 1.239.309.406.078.76.12 1.06.126a.689.689 0 00.288-.14c.098-.075.195-.16.29-.256.097-.096.186-.193.27-.291.084-.099.158-.177.222-.235.209.284.436.512.683.683a1.5 1.5 0 00.848.265h.33v-2.226h-.27a.372.372 0 01-.282-.126 1.229 1.229 0 01-.218-.37 3.76 3.76 0 01-.178-.587 26.758 26.758 0 01-.165-.787c-.099-.51-.22-.985-.365-1.426a3.956 3.956 0 00-.587-1.152 2.647 2.647 0 00-.922-.774c-.368-.188-.822-.283-1.36-.283a2.42 2.42 0 00-1.114.253c-.33.168-.627.387-.891.656-.264.27-.5.573-.709.909a10.9 10.9 0 00-.556 1.009c-.163.318-.32.637-.474.956a4.546 4.546 0 01-.535.86 2.468 2.468 0 01-.73.623c-.285.16-.638.239-1.061.239h-.174v2.226h.174zm7.93-2.226a5.454 5.454 0 01-.978-.178 14.829 14.829 0 01-1.057-.327 22.128 22.128 0 01-.974-.365 47.662 47.662 0 01-.739-.304c.087-.209.187-.44.3-.696.113-.255.244-.494.392-.717.147-.223.313-.41.495-.561a.95.95 0 01.622-.226c.203 0 .385.05.548.148.162.098.306.232.43.4.125.168.234.363.326.587.093.223.177.46.252.708.076.25.144.506.205.77.06.264.12.517.178.76zm-7.756 2.226v-2.226h-.392c-.226 0-.424-.023-.595-.07a.946.946 0 01-.422-.23.863.863 0 01-.23-.405 2.157 2.157 0 01-.066-.556v-.14c0-.179.002-.356.005-.53a987.15 987.15 0 00.017-1.091 41.792 41.792 0 00-.004-1.53 58.362 58.362 0 01-.01-.979 45.554 45.554 0 00-.12-3.295c-.041-.551-.088-1.068-.14-1.552-.052-.485-.11-.895-.174-1.23l-2.182.651c.052.273.098.587.139.944.04.356.075.739.104 1.148.029.408.054.831.074 1.27.02.437.036.874.048 1.312a101.456 101.456 0 01.035 2.465c0 .615-.006 1.135-.018 1.561-.011.426-.017.732-.017.918.006 1.194.313 2.087.921 2.678.61.591 1.502.887 2.679.887h.348z" mask="url(#b)"/><g mask="url(#b)"><path fill="#000000" fill-opacity=".56" fill-rule="nonzero" d="M696.875 280.32l.85-.85-.855-.856-.85.85.855.856zm-2.28 8.416c.293-.143.58-.304.864-.483.283-.18.553-.375.809-.587.255-.212.492-.438.71-.678.217-.24.404-.492.563-.757.158-.264.281-.538.37-.821a2.927 2.927 0 00.097-1.35 7.46 7.46 0 00-.092-.487 14.85 14.85 0 00-.12-.5 71.528 71.528 0 01-.128-.504 7.76 7.76 0 00-.13-.478c-.049-.158-.097-.319-.146-.482l-.991.313a28.014 28.014 0 01.386 1.315c.041.15.08.299.114.448.035.15.064.296.087.438.022.143.033.279.033.407 0 .338-.081.665-.245.981-.163.317-.38.616-.65.898a5.97 5.97 0 01-.92.78c-.345.238-.7.448-1.065.628l.454.919zM688.736 285c.212 0 .412-.01.6-.031.188-.021.365-.061.532-.12.167-.06.325-.145.473-.256.147-.111.29-.26.425-.443.16.118.334.233.522.347.187.113.383.208.587.286a2.254 2.254 0 00.842.17c.143 0 .285-.02.428-.057.226-.063.417-.175.574-.337.156-.162.28-.351.37-.569.09-.217.146-.416.167-.597.021-.18.032-.327.032-.438 0-.125-.01-.247-.027-.365a3.157 3.157 0 00-.185-.69 2.148 2.148 0 00-.357-.604c-.15-.178-.33-.321-.54-.43a1.554 1.554 0 00-.728-.165c-.23 0-.43.046-.603.138a1.696 1.696 0 00-.459.36 2.75 2.75 0 00-.36.506c-.106.19-.206.382-.3.577-.108.215-.214.425-.32.628a2.548 2.548 0 01-.376.543c-.145.158-.32.285-.525.38-.205.097-.462.144-.772.144h-.104V285h.104zm3.965-1.085c-.139 0-.295-.035-.47-.105a4.026 4.026 0 01-.865-.506l.282-.568c.087-.17.164-.319.232-.444s.132-.23.193-.313a.739.739 0 01.182-.185.35.35 0 01.196-.06.59.59 0 01.277.063c.08.041.15.094.208.159.06.064.11.135.152.214a1.698 1.698 0 01.161.425 1.669 1.669 0 01.047.396 1.562 1.562 0 01-.097.527.887.887 0 01-.143.256.333.333 0 01-.172.12.752.752 0 01-.183.02zm-3.86 1.085v-1.023h-.105c-.219 0-.408-.022-.566-.067a.814.814 0 01-.357-.188.435.435 0 01-.138-.269 2.819 2.819 0 01-.019-.331v-2.62a36.415 36.415 0 00-.107-2.749 7.734 7.734 0 00-.08-.652l-1.023.188a6.5 6.5 0 01.08.628c.023.256.042.535.058.838.016.302.027.615.034.939.007.323.01.635.01.934a76.848 76.848 0 010 1.612 158.525 158.525 0 00-.01.668V283.017c0 .084.002.184.005.3a2.015 2.015 0 00.185.76c.061.132.15.255.264.37.188.188.416.327.686.417.27.09.596.136.978.136h.105zm-7.586-2.52l.85-.85-.856-.856-.85.85.856.856zm-.23 6.104c.428 0 .834-.045 1.218-.135a3.76 3.76 0 001.052-.415c.316-.186.593-.422.832-.707.238-.285.423-.624.555-1.017.126-.376.193-.676.204-.9.01-.225.015-.375.015-.452a5.381 5.381 0 00-.294-1.771c-.1-.29-.199-.544-.298-.762a5.916 5.916 0 00-.394-.743l-.866.553c.004 0 .036.051.097.154.06.102.131.243.211.422.08.18.161.39.243.632a4.961 4.961 0 01.258 1.588v.063a3.25 3.25 0 01-.151.903 2.017 2.017 0 01-.345.654 2.05 2.05 0 01-.568.49 2.766 2.766 0 01-.788.306c-.3.07-.633.104-1.002.104-.296 0-.56-.032-.79-.096a2.473 2.473 0 01-.606-.25 2.037 2.037 0 01-.44-.348 2.272 2.272 0 01-.303-.394 1.901 1.901 0 01-.18-.386 2.058 2.058 0 01-.08-.326 3.06 3.06 0 01-.027-.615c.01-.209.034-.414.07-.616.037-.202.083-.396.139-.582.055-.186.114-.357.174-.514.061-.156.121-.293.18-.41a2.1 2.1 0 01.157-.268l-.83-.61c-.142.236-.279.5-.41.79-.13.29-.24.597-.328.921a4.863 4.863 0 00-.164.843 4.607 4.607 0 00.016 1.208c.069.455.204.852.404 1.189.2.337.451.616.754.837.302.221.648.386 1.035.496.388.11.805.164 1.25.164zM669.693 285c.18 0 .332-.012.454-.037.737-.135 1.26-.478 1.57-1.027.073-.133.137-.279.19-.439.054-.16.088-.303.1-.43.012-.127.018-.227.018-.3 0-.125-.01-.257-.031-.397a3.124 3.124 0 00-.188-.678 4.385 4.385 0 00-.397-.759 6.459 6.459 0 00-.652-.837 8.134 8.134 0 00-.6-.6c-.202-.181-.388-.345-.558-.49l3.736-1.571-.402-.95-4.289 1.837-.12 1.07a13.228 13.228 0 011.586 1.516c.223.251.41.488.561.709.151.22.246.402.284.545a2.106 2.106 0 01.068.662c-.02.206-.088.397-.203.574a.944.944 0 01-.402.337c-.17.078-.358.135-.563.172a4.25 4.25 0 01-.647.063c-.227.005-.444.007-.653.007h-.652V285h1.79zm-1.581 0v-1.023h-.104c-.22 0-.408-.022-.567-.067a.814.814 0 01-.357-.188.435.435 0 01-.138-.269 2.819 2.819 0 01-.018-.331v-2.62a36.414 36.414 0 00-.107-2.749 7.734 7.734 0 00-.081-.652l-1.023.188a6.5 6.5 0 01.081.628c.023.256.042.535.057.838.016.302.027.615.034.939.007.323.01.635.01.934.004.306.006.596.006.871v.203l-.005.538a158.552 158.552 0 00-.01.718v.148c0 .063.002.134.005.211a2.015 2.015 0 00.185.76c.06.132.148.255.263.37.188.188.417.327.686.417.27.09.596.136.979.136h.104zm-7.435 3.736c.292-.143.58-.304.864-.483.283-.18.553-.375.808-.587.256-.212.492-.438.71-.678.217-.24.405-.492.563-.757.159-.264.282-.538.37-.821a2.927 2.927 0 00.097-1.35 7.461 7.461 0 00-.091-.487 14.85 14.85 0 00-.12-.5 71.523 71.523 0 01-.128-.504 7.76 7.76 0 00-.13-.478c-.049-.158-.098-.319-.146-.482l-.992.313a28.014 28.014 0 01.386 1.315c.042.15.08.299.115.448.035.15.064.296.086.438.023.143.034.279.034.407 0 .338-.082.665-.245.981-.163.317-.38.616-.65.898a5.97 5.97 0 01-.92.78c-.345.238-.7.448-1.065.628l.454.919zm-4.936-.068c.574 0 1.102-.05 1.584-.149.482-.099.916-.248 1.302-.446.407-.202.731-.444.973-.728a1.98 1.98 0 00.456-.942c.025-.135.037-.259.037-.37 0-.115-.012-.217-.037-.308a1.106 1.106 0 00-.631-.748 3.205 3.205 0 00-.498-.188 7.929 7.929 0 00-.532-.133 4.383 4.383 0 01-.499-.136 1.61 1.61 0 01-.399-.196.62.62 0 01-.237-.305.908.908 0 01-.037-.48c.025-.17.078-.339.16-.506.081-.167.185-.328.312-.483.127-.154.265-.292.413-.412.147-.12.3-.219.456-.297.157-.078.308-.124.454-.138.125-.025.247-.037.365-.037h.078c.14.01.263.027.37.05.109.022.196.046.262.07l.094.042.454-.955a7.155 7.155 0 01-.17-.068 2.712 2.712 0 00-.404-.12 2.88 2.88 0 00-.449-.07 2.742 2.742 0 00-.82.044c-.27.06-.53.153-.777.282a3.4 3.4 0 00-.68.467c-.207.182-.39.388-.55.615-.16.228-.29.47-.387.723a2.653 2.653 0 00-.175.66c-.019.186-.028.33-.028.43 0 .174.017.35.052.527.052.261.157.472.315.632.159.16.341.29.548.388.207.1.424.177.65.233.226.055.433.108.62.159.189.05.339.106.452.167.113.06.17.141.17.242v.026c-.018.178-.105.35-.261.514a2.132 2.132 0 01-.655.444 4.46 4.46 0 01-1.015.313 6.928 6.928 0 01-1.336.117c-.504 0-.94-.062-1.31-.188a1.993 1.993 0 01-.88-.563 1.553 1.553 0 01-.27-.415 2.089 2.089 0 01-.18-.853v-.042c0-.146.01-.281.027-.407.066-.51.167-1.007.302-1.487.136-.48.282-.965.438-1.455l-.996-.35c-.007.014-.027.07-.06.167a30.148 30.148 0 00-.292.937 16.543 16.543 0 00-.337 1.361 9.327 9.327 0 00-.115.702c-.02.178-.03.35-.03.517 0 .32.037.619.114.897.115.431.315.81.6 1.138.327.365.742.641 1.244.83.503.187 1.085.28 1.745.28zM641.831 285c.213 0 .413-.01.6-.031.189-.021.366-.061.533-.12.167-.06.324-.145.472-.256.148-.111.29-.26.425-.443.16.118.334.233.522.347.188.113.384.208.587.286a2.254 2.254 0 00.843.17c.142 0 .285-.02.428-.057.226-.063.417-.175.574-.337.156-.162.28-.351.37-.569.09-.217.146-.416.167-.597.02-.18.031-.327.031-.438 0-.125-.008-.247-.026-.365a3.157 3.157 0 00-.185-.69 2.148 2.148 0 00-.357-.604c-.15-.178-.33-.321-.54-.43a1.554 1.554 0 00-.728-.165c-.23 0-.43.046-.603.138a1.696 1.696 0 00-.46.36 2.75 2.75 0 00-.36.506c-.105.19-.205.382-.3.577-.107.215-.214.425-.32.628a2.548 2.548 0 01-.376.543c-.144.158-.319.285-.524.38-.205.097-.463.144-.772.144h-.104V285h.104zm3.966-1.085c-.139 0-.296-.035-.47-.105a4.026 4.026 0 01-.866-.506l.282-.568c.087-.17.165-.319.232-.444.068-.125.133-.23.193-.313a.739.739 0 01.183-.185.35.35 0 01.196-.06.59.59 0 01.276.063c.08.041.15.094.209.159.059.064.11.135.151.214a1.698 1.698 0 01.162.425 1.67 1.67 0 01.047.396 1.562 1.562 0 01-.097.527.887.887 0 01-.143.256.333.333 0 01-.172.12.752.752 0 01-.183.02zm-6.089-3.725l.85-.85-.855-.857-.85.85.855.857zm-1.466 4.81c.512 0 .941-.053 1.289-.16.348-.105.631-.268.85-.487.15.191.341.347.574.467.233.12.526.18.877.18h.104v-1.023h-.104a.737.737 0 01-.436-.12.856.856 0 01-.266-.302 1.429 1.429 0 01-.138-.397 3.685 3.685 0 01-.057-.407 16.002 16.002 0 00-.094-.902 4.9 4.9 0 00-.152-.71l-.98.277c.076.264.129.499.159.704.03.205.044.407.044.605 0 .414-.132.726-.397.937-.264.21-.688.315-1.273.315h-.193V285h.193zm-6.057 0c.254 0 .52-.014.796-.042a8.944 8.944 0 001.627-.32c.26-.079.499-.17.718-.275.382.23.81.394 1.283.49.473.098.988.147 1.545.147h.104v-1.023h-.104c-.355 0-.693-.022-1.015-.067a3.965 3.965 0 01-.843-.204c.181-.136.36-.3.538-.493.177-.193.334-.395.472-.605.137-.21.24-.408.308-.592.067-.185.101-.345.101-.48 0-.035-.001-.07-.005-.105a.913.913 0 00-.162-.495 1.422 1.422 0 00-.266-.287 1.912 1.912 0 00-.448-.272 3.207 3.207 0 00-.81-.23 5.084 5.084 0 00-.667-.051c-.16 0-.322.008-.485.026a4.58 4.58 0 00-.485.075 3.976 3.976 0 00-1.12.42 3.054 3.054 0 00-.555.402l-.052.725c.146.167.291.337.435.509l.428.506c.141.165.281.324.42.475.14.151.277.29.412.415a3.28 3.28 0 01-.448.133 8.405 8.405 0 01-1.717.196h-.11V285h.105zm3.151-1.863a6.297 6.297 0 01-.735-.704c-.24-.268-.505-.577-.793-.929.222-.128.464-.224.725-.287.26-.062.52-.094.777-.094.258 0 .505.032.741.094.237.063.445.153.626.272 0 .059-.02.133-.06.221a2.37 2.37 0 01-.159.29 4.17 4.17 0 01-.514.65c-.1.102-.2.196-.305.281a1.91 1.91 0 01-.303.206zm-8.29 1.863c.275 0 .572-.012.892-.037.32-.024.649-.085.986-.182l.188.039c.115.023.263.047.446.073.183.026.391.05.626.073.235.023.48.034.733.034h1.367l.005-1.023h-1.826c.087-.066.172-.14.256-.224.097-.094.194-.212.29-.355a3.017 3.017 0 00.422-.975 2.182 2.182 0 00.05-.606 1.73 1.73 0 00-.157-.618 1.835 1.835 0 00-.365-.509c-.264-.257-.525-.413-.783-.467a3.343 3.343 0 00-.673-.08c-.153 0-.308.012-.464.036-.755.129-1.555.584-2.4 1.367.007-.268.01-.534.01-.798 0-1.34-.081-2.616-.245-3.83l-1.054.188.031.305c.021.2.05.506.09.916a23.24 23.24 0 01.12 2.322v.188c-.004.445-.016.83-.035 1.153-.019.323-.048.596-.086.819a6.462 6.462 0 00-.524.748c-.117.204-.2.344-.248.42h-.877V285h3.225zm-.647-1.023h-.501c.303-.407.491-.655.566-.746.075-.09.156-.182.243-.276.473-.518.917-.92 1.333-1.205.415-.286.802-.468 1.16-.548a1.353 1.353 0 01.402-.021c.14.014.269.05.389.107.12.057.224.135.31.232a.739.739 0 01.173.355 1.033 1.033 0 01-.057.59 1.33 1.33 0 01-.413.542c-.296.243-.6.43-.916.56-.314.131-.628.227-.941.288-.313.06-.618.096-.913.107-.296.01-.574.015-.835.015zm-4.972-5.165l.85-.85-.856-.856-.85.85.856.856zm-3.475 6.303a16.647 16.647 0 001.82-.1c.283-.03.543-.07.78-.12a4.51 4.51 0 00.619-.166l.308-.105c.177.063.369.118.574.165.205.047.416.086.634.117a9.053 9.053 0 001.343.094v-1.023a7.602 7.602 0 01-1.403-.125c.097-.097.18-.209.25-.334.07-.125.126-.259.17-.401.043-.143.075-.292.096-.447.021-.154.032-.31.032-.467 0-.208-.018-.396-.053-.563a2.59 2.59 0 00-.13-.443 1.667 1.667 0 00-.177-.334 2.142 2.142 0 00-.194-.24 1.49 1.49 0 00-.547-.392 1.756 1.756 0 00-.668-.125c-.265 0-.516.064-.754.193s-.451.31-.64.543a2.71 2.71 0 00-.578 1.711c0 .525.238.984.714 1.377a7.214 7.214 0 01-.965.138c-.195.016-.379.026-.553.03a15.272 15.272 0 01-.97-.005c-.425-.011-.8-.04-1.125-.09a4.355 4.355 0 01-.85-.206 2.16 2.16 0 01-.61-.33 1.716 1.716 0 01-.405-.46 1.175 1.175 0 01-.17-.43 2.44 2.44 0 01-.033-.384c0-.045.001-.089.005-.13.007-.157.029-.306.065-.45a4.02 4.02 0 01.115-.377c.04-.11.076-.197.107-.261.031-.065.047-.098.047-.102l-.908-.496-.078.165a4.723 4.723 0 00-.305.916 2.499 2.499 0 00-.074.498l-.002.237c0 .202.02.407.062.616.05.243.143.481.282.714.317.536.823.934 1.518 1.195.696.261 1.58.393 2.65.397zm3.485-1.607a1.624 1.624 0 01-.697-.42 1.124 1.124 0 01-.198-.274.588.588 0 01-.07-.261c0-.216.03-.41.091-.584s.138-.322.23-.444.193-.215.302-.282c.11-.066.213-.099.31-.099.043 0 .104.009.186.026.082.018.163.061.243.13.08.07.15.176.21.317.062.14.092.336.092.586 0 .122-.008.242-.026.36-.017.119-.05.234-.099.345-.049.111-.12.217-.211.318-.092.101-.213.195-.363.282z"/><path d="M599.804 246h112V134h-112z"/><path fill="#F5F5F0" d="M634.912 227.418L681.225 222v1.127c0 .492-.37.906-.859.964l-45.454 5.317v-1.99z"/><path fill="#DBD9CD" d="M633.804 227.547l1.108 1.861v-1.99z"/><g transform="translate(610.804 174.885)"><mask id="f" fill="#fff"><use xlink:href="#e"/></mask><path fill="#5D5ED8" d="M85.238 11.25l-4.93-8.275a5.853 5.853 0 00-5.71-2.82L8.76 7.857A9.91 9.91 0 000 17.7v19.667c0 .811.218 1.606.633 2.301l5.646 9.48 1.146 1.916L6.28 46.46V26.02a6.22 6.22 0 015.497-6.177l70.88-8.29L86.5 13.45l-1.263-2.202z" mask="url(#f)"/></g><g transform="translate(616.804 185.885)"><mask id="h" fill="#fff"><use xlink:href="#g"/></mask><path fill="#8586EB" d="M.28 36.323v-21.58a6.22 6.22 0 015.52-6.18L76.627.539a3.991 3.991 0 014.441 3.967v23.076a7.632 7.632 0 01-6.747 7.582l-66.59 7.79c-3.969.465-7.453-2.637-7.453-6.631" mask="url(#h)"/></g><path fill="#BAC5D1" d="M625.34 198.655l65.624-7.69a2.21 2.21 0 012.468 2.195v18.951a4.857 4.857 0 01-4.293 4.824l-63 7.37a4.133 4.133 0 01-4.614-4.105v-17.257c0-2.19 1.64-4.033 3.815-4.288"/><path fill="#FFF" d="M625.34 198.655l64.67-7.464a1.88 1.88 0 012.096 1.868v18.14a4.858 4.858 0 01-4.293 4.824l-63.059 7.264a2.898 2.898 0 01-3.229-2.879v-17.465c0-2.19 1.64-4.033 3.815-4.288"/><path fill="#6C7C8E" d="M643.188 207.407l-.545.57-.81-.74.33-3.61 1.506-1.53-.481 5.31zm-.62 6.826l-1.24-1.18.307-3.612.949-.959.465.46-.48 5.291zm.859-12.338l-1.49 1.528-4.53.573-1.267-1.179 7.287-.922zm-6.632 5.981l-.938.96-.478-.44.48-5.31 1.264 1.177-.328 3.613zm5.496 6.642l-7.32.927 1.53-1.532 4.539-.574 1.25 1.18zm-6.004-.828l-1.527 1.531.48-5.292.557-.587.798.737-.308 3.611zm15.592-7.723l.328-3.611 1.51-1.535-.484 5.315-.545.569-.809-.738zm1.215 1.703l-.48 5.298-1.242-1.188.308-3.61.95-.958.464.458zm-1.329-1.26l.652.587-.783.769-4.87.617-.617-.592.747-.763 4.871-.617zm-6.344.714l.483-5.314 1.262 1.183-.31 3.61-.952.96-.483-.44zm10.66-3.402l.131-1.355 1.397-.177-.13 1.355-1.398.177zm-.819 9.155l.13-1.354 1.397-.178-.13 1.356-1.397.176zm11.17-8.75l.312-3.611 1.508-1.531-.484 5.311-.538.567-.797-.736zm1.578-5.343l-1.491 1.528-4.53.574-1.267-1.179 7.288-.923zm-1.715 5.787l.652.587-.783.769-4.865.616-.615-.592.746-.763 4.865-.617zm.577 6.837l-7.317.926 1.528-1.532 4.538-.574 1.25 1.18zm-5.69-4.44l-.311 3.611-1.528 1.531.485-5.292.556-.588.798.738zm16.634-3.943l-.546.568-.808-.738.328-3.61 1.507-1.53-.481 5.31zm-.62 6.826l-1.241-1.18.307-3.612.949-.959.465.46-.48 5.291zm.859-12.338l-1.491 1.528-4.53.573-1.267-1.179 7.288-.922zm-6.633 5.98l-.938.96-.478-.44.48-5.31 1.264 1.178-.328 3.612zm5.496 6.643l-7.318.926 1.529-1.532 4.538-.574 1.25 1.18zm-6.004-.829l-1.527 1.532.48-5.292.557-.588.798.738-.308 3.61zm13.264-3.99l.118-1.308.548-.553-.176 1.923-.197.207-.293-.27zm.439.616l-.18 2.01-.45-.43.12-1.398.342-.348.168.166zm.136-2.55l-.539.553-1.64.207-.459-.427 2.638-.334zm-.617 2.094l.236.213-.283.278-1.767.224-.22-.215.271-.276 1.763-.224zm-2.295.26l.174-1.924.456.428-.117 1.306-.34.348-.173-.159zm.441.608l-.12 1.4-.552.555.181-2.008.201-.213.29.266zm5.536-1.488l.115-1.308.548-.554-.176 1.924-.196.205-.291-.266zm.437.616l-.181 2.01-.45-.43.124-1.399.34-.347.167.166zm-1.514-1.502l.273-.266.239.202-.104 1.092-.28.282-.231-.216.103-1.093zm1.65-1.049l-.54.553-1.64.208-.458-.428 2.638-.333zm-2.913 2.354l.174-1.924.456.428-.115 1.306-.341.348-.174-.157zm.444.608l-.123 1.4-.552.557.18-2.01.204-.212.29.266z"/><path fill="#ADCEF2" d="M625.34 198.655l65.624-7.69a2.21 2.21 0 012.468 2.195v18.951a4.857 4.857 0 01-4.293 4.824l-63 7.37a4.133 4.133 0 01-4.614-4.105v-17.257c0-2.19 1.64-4.033 3.815-4.288" opacity=".48"/><path fill="#FFF" opacity=".32" d="M654.897 195.148l-14.94 27.54 7.67-.897 15.09-27.515zM664.524 194.064l-14.962 27.508 3.649-.424 15.063-27.468z"/><path fill="#12255F" d="M673.76 182.637l-.547.627-1.2-2.015a2.444 2.444 0 00-2.387-1.177l-28.965 3.516a.91.91 0 00-.204.05l-.53-1.034-.053 1.97.001.023c-.013.103.017.323.017.323a.825.825 0 00.09.217l1.93 2.875a2.671 2.671 0 002.604 1.285l28.053-3.41a1.338 1.338 0 001.181-1.284l.01.01v-1.976z"/><path fill="#4A4D7E" d="M640.046 182.977l1.88 3.154a2.666 2.666 0 002.602 1.285l28.04-3.32a1.345 1.345 0 001-2.025l-1.555-2.613a2.445 2.445 0 00-2.387-1.177l-28.953 3.426a.845.845 0 00-.627 1.27"/><g><path fill="#7F58F3" d="M669.804 154.863a4.863 4.863 0 119.725 0 4.863 4.863 0 01-9.725 0"/><path fill="#FFC04F" d="M698.804 147.5a4.5 4.5 0 11-9 0 4.5 4.5 0 119 0"/><path fill="#6DA0FB" d="M612.804 152.704l6.512 8.605 3.581-9.625v-.002z"/><path fill="#E0744E" d="M606.804 170.682a3 3 0 116 0 3 3 0 01-6 0"/></g></g><g mask="url(#b)"><path fill="#000000" fill-opacity=".56" fill-rule="nonzero" d="M461.455 285c.286 0 .55-.02.796-.057.245-.039.467-.105.665-.199.199-.094.373-.219.525-.375.15-.157.279-.353.383-.59.104-.24.157-.518.157-.835 0-.055-.002-.111-.006-.167a5.826 5.826 0 00-.27-1.335 6.775 6.775 0 00-.168-.483 10.547 10.547 0 00-.287-.673 1.284 1.284 0 01-.047-.107l-.928.46.453 1.116a3.393 3.393 0 01.235.89c.007.092.01.16.01.205 0 .084-.005.162-.015.235a1.012 1.012 0 01-.078.277.934.934 0 01-.261.341 1.096 1.096 0 01-.365.186c-.14.041-.294.067-.465.075-.17.009-.356.013-.558.013h-.605V285h.83zm.856 2.718l.85-.85-.855-.856-.85.85.855.856zm-6.376.945c.508-.08 1-.22 1.474-.418a5.392 5.392 0 001.294-.762c.388-.31.718-.672.992-1.087.273-.416.461-.881.566-1.396h.574v-1.023h-.496a4.843 4.843 0 00-.282-1.515 4.007 4.007 0 00-.302-.66 3.296 3.296 0 00-.397-.553c-.414-.446-.868-.668-1.362-.668-.222 0-.437.056-.644.17-.207.112-.4.279-.577.498a2.901 2.901 0 00-.38.67c-.108.26-.177.49-.207.694-.03.204-.044.371-.044.504 0 .139.012.278.037.417.041.264.142.497.302.699.362.449.92.696 1.675.74.191.018.363.027.514.027h.592c-.038.26-.145.526-.32.796-.176.27-.416.524-.718.764a5.16 5.16 0 01-1.09.647c-.425.191-.905.34-1.44.449l.24 1.007zm2.865-4.697l-.084.001c-.153 0-.316-.005-.49-.016a2.63 2.63 0 01-.222-.023 1.854 1.854 0 01-.26-.058 1.226 1.226 0 01-.251-.104.614.614 0 01-.196-.17.489.489 0 01-.107-.247 1.826 1.826 0 01-.018-.232 2.37 2.37 0 01.295-1.09c.071-.123.152-.223.242-.3a.433.433 0 01.287-.118c.063 0 .122.01.178.031.055.02.108.048.159.08.05.034.097.07.14.11.044.04.083.078.118.113.087.1.171.22.253.357.082.137.156.291.222.462.066.17.12.355.162.553.041.198.067.408.078.631a6.1 6.1 0 01-.506.02zm-6.548 1.029c.209 0 .418-.016.629-.047.21-.031.413-.082.607-.151.195-.07.377-.16.546-.27.168-.109.315-.24.44-.393a1.264 1.264 0 00.271-.553c.029-.122.043-.261.045-.418a2.41 2.41 0 00-.06-.526 3.792 3.792 0 00-.237-.681 5.52 5.52 0 00-.381-.7 6.908 6.908 0 00-1.057-1.28 5.968 5.968 0 00-.607-.506 3.66 3.66 0 00-.619-.366l-.422.95c.156.07.316.163.48.282.163.118.324.254.482.407a6.2 6.2 0 01.457.493c.146.175.279.356.399.542.12.186.223.372.308.559.085.186.147.364.185.534.028.126.042.233.042.324 0 .125-.026.219-.079.282a1.082 1.082 0 01-.438.318c-.174.07-.33.11-.47.122a2.997 2.997 0 01-.72-.008 4.434 4.434 0 01-1.215-.33 3.171 3.171 0 01-.464-.243l-.428.98c.087.08.224.16.412.24.188.08.395.154.62.22.227.066.454.119.682.159.228.04.425.06.592.06zm-10.096.005c.525 0 1.045-.049 1.56-.146a12.443 12.443 0 001.495-.378c.482-.155.943-.328 1.383-.52.44-.19.85-.382 1.234-.573.26-.13.51-.252.75-.368.24-.117.483-.225.726-.326l-.198-.992a3.07 3.07 0 01-.642-.067 5.132 5.132 0 01-.636-.18 8.437 8.437 0 01-.634-.253c-.21-.094-.419-.19-.624-.287a73.32 73.32 0 00-.558-.256 7.597 7.597 0 00-.543-.222 4.228 4.228 0 00-.524-.154 2.34 2.34 0 00-.509-.057c-.337 0-.658.082-.962.245a2.96 2.96 0 00-.864.736 3.54 3.54 0 00-.248.328 8.463 8.463 0 00-.182.287 2.657 2.657 0 00-.16.298l.94.422a2.765 2.765 0 01.193-.342c.062-.095.137-.198.224-.307.087-.11.185-.212.295-.308.11-.096.229-.175.357-.237a.919.919 0 01.407-.094c.108 0 .226.016.355.05.129.032.265.077.41.132.144.056.294.12.448.19l.478.222c.212.101.428.2.647.298.219.097.448.188.688.271-.396.198-.808.391-1.236.58-.428.187-.866.354-1.315.5a11.26 11.26 0 01-1.367.352 7.355 7.355 0 01-1.388.133h-1.132V285h1.132zm3.172 2.708l.85-.85-.855-.856-.85.85.855.856zm-4.1-2.708v-1.023h-.105c-.243 0-.435-.034-.574-.101-.139-.068-.25-.196-.334-.384a1.045 1.045 0 01-.047-.138 5.103 5.103 0 01-.083-.363c-.035-.17-.075-.398-.12-.683a34.108 34.108 0 01-.253-2.053 973.464 973.464 0 00-.102-.968v.005l-1.022.214.018.19.06.582c-.098.035-.212.08-.345.133-.132.054-.272.12-.42.199-.147.078-.3.168-.459.27-.158.103-.311.22-.459.35-.148.13-.287.278-.417.441-.13.164-.243.343-.337.538a1.175 1.175 0 00-.073.255 1.63 1.63 0 00-.026.287v.094c.004.129.025.261.065.397.04.135.11.26.206.375.352.435.976.653 1.874.653.17 0 .348-.008.534-.024a8.38 8.38 0 00.608-.076c.184.296.414.508.689.637.18.083.362.136.545.16.183.022.34.033.472.033h.105zm-2.945-1.743h-.035c-.121 0-.241-.007-.36-.02a1.622 1.622 0 01-.383-.081.71.71 0 01-.277-.17.38.38 0 01-.107-.276c0-.112.03-.219.09-.321.058-.103.136-.2.231-.29.096-.09.204-.174.324-.25.12-.077.242-.147.365-.212.124-.064.243-.121.357-.172l.298-.128c.055.446.105.814.149 1.106.043.293.086.54.127.741-.09.018-.2.033-.331.047a3.912 3.912 0 01-.483.026h.035zm-.796-4.507l1.184-.658 1.263-.74-.308-.408-.725.392a.448.448 0 01-.22.057h-.02a.67.67 0 01-.248-.057.827.827 0 01-.373-.334.404.404 0 01-.052-.167v-.078a.57.57 0 01.036-.199.581.581 0 01.488-.383 1.371 1.371 0 01.363.008c.07.01.161.027.276.052l.146-.48-.198-.047a2.276 2.276 0 00-.198-.037 1.623 1.623 0 00-.23-.015c-.184 0-.355.033-.511.099a1.133 1.133 0 00-.644.691 1.057 1.057 0 00.023.702c.059.135.142.259.25.37.108.112.235.197.381.256l-.934.522.25.454zm-8.833-1.566c.014-.041.035-.098.065-.17.03-.07.066-.142.11-.213a.944.944 0 01.148-.188.303.303 0 01.178-.091.613.613 0 01.313.02c.1.032.207.07.32.113.113.043.234.085.363.125.129.04.271.06.428.06h.031c.122 0 .237-.017.345-.052.118-.038.226-.087.326-.146.099-.06.188-.125.268-.196.08-.071.149-.139.206-.203a1.788 1.788 0 00.186-.243l-.595-.386c-.021.028-.055.07-.102.125a1.451 1.451 0 01-.172.17c-.068.057-.14.105-.217.143a.51.51 0 01-.23.058h-.02a1.165 1.165 0 01-.3-.047 3.163 3.163 0 01-.28-.1 3.963 3.963 0 00-.344-.125 1.392 1.392 0 00-.417-.057c-.15 0-.296.032-.438.096a1.451 1.451 0 00-.391.261 1.57 1.57 0 00-.47.832l.689.214zm1.92 7.816c.048-.344.077-.733.086-1.166.008-.433.013-.789.013-1.067v-.284a93.147 93.147 0 00-.016-1.276c-.01-.56-.033-1.151-.068-1.774a69.754 69.754 0 00-.14-1.983l-1.023.157c.049.47.092 1.047.13 1.732.039.685.07 1.485.094 2.4a23.958 23.958 0 01-.005 1.591 28.42 28.42 0 01-.1 1.613l1.029.057zm-8.53 0c.211 0 .411-.01.6-.031.187-.021.364-.061.531-.12.167-.06.325-.145.473-.256.147-.111.29-.26.425-.443.16.118.334.233.522.347.187.113.383.208.586.286a2.254 2.254 0 00.843.17c.143 0 .285-.02.428-.057.226-.063.417-.175.574-.337.156-.162.28-.351.37-.569.09-.217.146-.416.167-.597.021-.18.032-.327.032-.438 0-.125-.01-.247-.027-.365a3.157 3.157 0 00-.185-.69 2.148 2.148 0 00-.357-.604c-.15-.178-.33-.321-.54-.43a1.554 1.554 0 00-.728-.165c-.23 0-.43.046-.603.138a1.696 1.696 0 00-.459.36 2.75 2.75 0 00-.36.506c-.106.19-.206.382-.3.577-.108.215-.215.425-.32.628a2.548 2.548 0 01-.376.543c-.145.158-.32.285-.525.38-.205.097-.462.144-.772.144h-.104V285h.104zm3.964-1.085c-.139 0-.295-.035-.47-.105a4.026 4.026 0 01-.865-.506l.282-.568c.086-.17.164-.319.232-.444s.132-.23.193-.313a.739.739 0 01.182-.185.35.35 0 01.196-.06.59.59 0 01.277.063c.08.041.15.094.208.159.06.064.11.135.152.214a1.698 1.698 0 01.161.425 1.669 1.669 0 01.047.396 1.562 1.562 0 01-.097.527.887.887 0 01-.143.256.333.333 0 01-.172.12.752.752 0 01-.183.02zm-8.76 4.748c.508-.08 1-.22 1.474-.418a5.392 5.392 0 001.294-.762c.388-.31.719-.672.992-1.087.273-.416.461-.881.566-1.396h.574v-1.023h-.496a4.843 4.843 0 00-.282-1.515 4.007 4.007 0 00-.302-.66 3.296 3.296 0 00-.397-.553c-.414-.446-.868-.668-1.362-.668-.222 0-.437.056-.644.17-.207.112-.4.279-.577.498a2.901 2.901 0 00-.38.67c-.108.26-.177.49-.207.694-.03.204-.044.371-.044.504 0 .139.012.278.037.417.041.264.142.497.302.699.362.449.92.696 1.675.74.191.018.363.027.514.027h.592c-.038.26-.145.526-.32.796-.176.27-.416.524-.718.764a5.16 5.16 0 01-1.09.647c-.425.191-.905.34-1.44.449l.24 1.007zm2.865-4.697l-.084.001c-.153 0-.316-.005-.49-.016a2.63 2.63 0 01-.222-.023 1.854 1.854 0 01-.26-.058 1.226 1.226 0 01-.251-.104.614.614 0 01-.196-.17.489.489 0 01-.107-.247 1.826 1.826 0 01-.018-.232 2.37 2.37 0 01.295-1.09c.071-.123.152-.223.242-.3a.433.433 0 01.287-.118c.063 0 .122.01.178.031.055.02.108.048.159.08.05.034.097.07.14.11.044.04.083.078.118.113.087.1.171.22.253.357.082.137.156.291.222.462.066.17.12.355.162.553.041.198.067.408.078.631a6.1 6.1 0 01-.506.02zm-5.306-3.646l.85-.85-.856-.856-.85.85.856.856zm-2.28 8.416c.292-.143.58-.304.863-.483.284-.18.553-.375.809-.587.256-.212.492-.438.71-.678.217-.24.405-.492.563-.757.158-.264.282-.538.37-.821a2.927 2.927 0 00.097-1.35 7.461 7.461 0 00-.091-.487 14.85 14.85 0 00-.12-.5 71.523 71.523 0 01-.128-.504 7.76 7.76 0 00-.13-.478c-.05-.158-.098-.319-.147-.482l-.991.313a28.014 28.014 0 01.386 1.315c.042.15.08.299.115.448.035.15.063.296.086.438.022.143.034.279.034.407 0 .338-.082.665-.245.981-.164.317-.38.616-.65.898a5.97 5.97 0 01-.92.78c-.345.238-.7.448-1.065.628l.454.919zm-3.632-10.675l.773-.772-.778-.778-.772.772.777.778zm-1.179 1.649l.845-.85-.855-.857-.845.85.855.857zm2.29.005l.846-.845-.856-.856-.845.845.856.856zm.178 5.348c.324 0 .607-.046.85-.136.25-.09.46-.22.627-.391a1.63 1.63 0 00.375-.619c.084-.241.125-.512.125-.81 0-.2-.018-.403-.054-.611a5.772 5.772 0 00-.141-.61 9.18 9.18 0 00-.607-1.552l-.038-.077-.913.48a9.204 9.204 0 01.441 1.067c.075.221.14.446.193.676.054.23.081.443.081.642a1.5 1.5 0 01-.052.412.698.698 0 01-.17.303.573.573 0 01-.266.159c-.099.026-.199.039-.3.039-.059 0-.121-.004-.187-.01a.487.487 0 01-.264-.102.636.636 0 01-.172-.22 1.103 1.103 0 01-.094-.307 2.27 2.27 0 01-.029-.368c0-.143.01-.305.032-.488.02-.183.044-.355.07-.517.026-.161.05-.3.07-.414l.027-.167-1.002-.183c-.021.143-.05.31-.086.504a7.168 7.168 0 01-.141.597 5.408 5.408 0 01-.209.605 2.756 2.756 0 01-.287.532c-.11.157-.235.284-.375.381a.82.82 0 01-.478.146.551.551 0 01-.276-.062.467.467 0 01-.173-.167.73.73 0 01-.088-.238 1.42 1.42 0 01-.026-.274c0-.135.014-.282.041-.44.028-.159.061-.313.1-.465a9.577 9.577 0 01.219-.748l-1.033-.22c-.035.17-.077.352-.126.543a5.838 5.838 0 01-.177.571c-.07.19-.151.372-.245.546a2.155 2.155 0 01-.331.461 1.554 1.554 0 01-.436.324 1.22 1.22 0 01-.553.122h-.115V285h.11c.201 0 .387-.017.555-.05a2.028 2.028 0 00.848-.37c.118-.089.23-.189.334-.3.056.129.135.242.237.34.103.097.217.178.342.244a1.705 1.705 0 001.633-.016c.265-.142.501-.335.71-.578.073.11.161.214.266.31.104.096.217.18.339.25.122.072.25.128.383.17.134.042.267.063.4.063h.036zm-10.706 3.339c.23 0 .487-.016.772-.047.285-.032.573-.084.864-.157.29-.073.573-.168.847-.284.275-.117.52-.26.736-.43.216-.171.39-.371.522-.6a1.589 1.589 0 00.182-1.028 1.097 1.097 0 00-.083-.272c-.042-.094-.1-.19-.175-.29a1.767 1.767 0 00-.29-.294h1.347v-1.023h-4.117l-.078 1.018.115.02a7.277 7.277 0 01.5.115c.105.028.217.06.337.094.12.035.241.073.363.115.198.073.365.146.5.22.136.072.247.141.332.205a.8.8 0 01.185.183.283.283 0 01.058.149c0 .17-.059.32-.175.448-.117.129-.265.24-.446.334-.181.094-.384.173-.608.238a6.537 6.537 0 01-1.26.234 5.418 5.418 0 01-.428.024c-.174 0-.373-.004-.597-.01a3.804 3.804 0 01-.679-.084 2.59 2.59 0 01-.657-.237 1.461 1.461 0 01-.53-.473c-.219-.333-.328-.768-.328-1.304 0-.845.273-1.939.819-3.282l-.955-.386c-.546 1.322-.842 2.456-.887 3.402a6.398 6.398 0 00-.005.256c0 .761.169 1.39.506 1.883.16.271.366.49.618.655.252.165.527.293.825.383.297.09.607.15.93.18.324.03.637.045.94.045z"/><path d="M373.804 246h112V134h-112z"/><g transform="translate(387.14 167.674)"><mask id="j" fill="#fff"><use xlink:href="#i"/></mask><path fill="#D0D5E1" d="M14.901.282l32.046 7.203s2.52 4.114-1.568 11.358c-4.088 7.244-15.707 30.323-15.707 30.323L.193 37.42 14.901.282z" mask="url(#j)"/></g><path fill="#DA9584" d="M396.992 178.465l-21.459 37.476a.658.658 0 00.427.969l32.287 7.257a2.015 2.015 0 002.19-.964l21.185-37.047a.805.805 0 00-.548-1.189l-34.082-6.502z"/><g transform="translate(374.804 176.927)"><mask id="l" fill="#fff"><use xlink:href="#k"/></mask><path fill="#E9EEF5" mask="url(#l)" d="M21.901.319L0 38.568l34.607 7.779L56.509 8.098z"/></g><g transform="translate(396.393 167.16)"><mask id="n" fill="#fff"><use xlink:href="#m"/></mask><path fill="#EDF2F9" d="M.312 10.085S-.277 4.047 2.62.761a1.238 1.238 0 011.2-.377L37.693 8s-2.962 2.638-2.774 9.865L.312 10.085z" mask="url(#n)"/></g><path fill="#EDF2F9" d="M434.176 175.328s-.072-.123-.253 0c-.182.123-.307-.092-.307-.092l.471-.077.09.169z"/><path fill="#CAD1DB" d="M426.68 190.41l-.018-.001-31.766-7.141a.077.077 0 01-.058-.092.076.076 0 01.092-.059l31.766 7.141c.042.01.068.05.058.092a.076.076 0 01-.075.06m-1.648 2.812c-.006 0-.012 0-.017-.002l-31.767-7.141a.077.077 0 01-.058-.092.075.075 0 01.092-.058l31.767 7.14c.041.01.068.051.058.093a.076.076 0 01-.075.06m-1.649 2.811l-.017-.001-31.766-7.141a.077.077 0 01-.058-.092.076.076 0 01.092-.059l31.766 7.141c.042.01.068.05.058.092a.076.076 0 01-.075.06m-1.648 2.812c-.006 0-.011 0-.017-.002l-31.766-7.14a.077.077 0 01.033-.151l31.767 7.14c.042.01.068.05.058.093a.076.076 0 01-.075.06m-1.272 2.811l-.017-.001-31.767-7.141a.077.077 0 01-.058-.092.076.076 0 01.092-.059l31.767 7.141c.041.01.068.05.058.092a.076.076 0 01-.075.06m-1.649 2.812c-.005 0-.011 0-.017-.002l-31.766-7.141a.077.077 0 01-.058-.092.076.076 0 01.092-.058l31.766 7.14c.042.01.068.051.058.093a.076.076 0 01-.075.06m-1.648 2.811l-.017-.001-31.766-7.141a.077.077 0 01-.059-.092.076.076 0 01.093-.059l31.766 7.141c.041.01.068.05.058.092a.076.076 0 01-.075.06m-1.648 2.812c-.006 0-.012 0-.017-.002l-31.767-7.14a.077.077 0 01.034-.151l31.767 7.14c.041.01.067.05.058.092a.076.076 0 01-.075.06m-1.649 2.812l-.017-.001-31.766-7.141a.077.077 0 01-.058-.092.077.077 0 01.092-.059l31.766 7.141c.042.01.068.05.058.092a.076.076 0 01-.075.06"/><g><path fill="#FFF" d="M436.588 232.213l-29.552-17.062-1.022-1.118-1.116 2.627 1.275 3.102 30.296 17.524s-.298-1.548-.298-2.946c0-.892.241-1.674.417-2.127"/><g transform="translate(404.617 213.569)"><mask id="p" fill="#fff"><use xlink:href="#o"/></mask><path fill="#CC5A73" d="M.883.03S-.09 1.051.006 3.346c.096 2.295.877 3.156.877 3.156l30.969 18.17v-.956L1.632 6.12S.774 4.564.807 3.368C.864 1.264 1.573.22 1.573.22L.883.03z" mask="url(#p)"/></g><path fill="#CC5A73" d="M436.469 237.286v.956l48.126-27.786-1.391-.763-.002.612z"/><path fill="#E6E8EC" d="M436.843 231.73s-.595 1.14-.595 2.538.298 2.946.298 2.946l46.976-27.122s-.833-.55-.833-2.129c0-1.578.833-3.182.833-3.182l-46.679 26.95z"/><path fill="#CC607C" d="M407.113 215.08c-.173-.255-1.29-1.538-1.613-1.481.39-.226 47.447-27.05 47.447-27.05l1.642.948-47.476 27.582z"/><path fill="#CC607C" d="M484.172 204.405l-29.285-16.908-47.775 27.583 29.731 17.165 47.775-27.583v-.514z"/><path fill="#EF7289" d="M454.887 186.983l-47.774 27.583 29.73 17.165 47.775-27.583z"/><path fill="#CC607C" d="M454.887 186.976c-.627-.853-1.606-.957-1.606-.957l-1.766 1.05.012.005-46.057 26.543c.323-.057 1.47.694 1.643.948l46.555-26.83-.033-.019c.406-.227.998-.564 1.252-.74"/><path fill="#90BE6A" d="M411.499 220.15s-.413 1.981-.991 2.642c-.578.66-2.436 1.734-2.436 1.734l2.397-.138-.306 2.106s1.955-1.39 2.657-2.298c.702-.909 1.277-2.565 1.277-2.565l-2.598-1.482z"/><path stroke="#E6E8EC" stroke-linecap="round" stroke-linejoin="round" stroke-width=".2" d="M406.353 217.153l13.317 7.689M419.001 225.921l8.237 4.755M423.496 226.494l8.238 4.756"/></g><g><g transform="matrix(-1 0 0 1 387.831 202.108)"><mask id="r" fill="#fff"><use xlink:href="#q"/></mask><path fill="#BDC4D2" d="M.004 1.846L1.146.649s.805-.02 1.132.308c.327.326.364.889.364.889L1.527 3.015.004 1.845z" mask="url(#r)"/></g><path fill="#686C9D" d="M388.108 203.743l22.455 28.225-2.43 2.112-22.174-28.89a.465.465 0 01-.077-.427c.15-.47.615-1.442 1.855-1.246.147.022.279.11.371.226"/><g transform="matrix(-1 0 0 1 412.804 231.622)"><mask id="t" fill="#fff"><use xlink:href="#s"/></mask><path fill="#BDC4D2" d="M.014 5.815L2.267.314s.923-.027 1.847.713c.924.739.702 1.32.702 1.32L.282 6.013c-.139.113-.336-.034-.268-.2" mask="url(#t)"/></g><path fill="#DBE4F1" d="M405.783 227.533l-3.866-4.963a.429.429 0 00-.57-.098l-.042.026a.43.43 0 00-.106.629l3.908 4.938a.43.43 0 00.677-.531"/></g></g><g mask="url(#b)"><path fill="#000000" fill-opacity=".56" fill-rule="nonzero" d="M235.82 285.047c.05-.577.078-1.122.087-1.633a75.744 75.744 0 00-.003-2.854 47.688 47.688 0 00-.266-3.798l-1.023.156c.119 1.096.213 2.487.282 4.174.01.289.016.595.016.918 0 .268-.004.548-.01.84-.018.647-.055 1.36-.11 2.14l1.028.057zm-5.128-5.802l.845-.845-.856-.856-.845.85.856.851zm2.139.01l.845-.85-.855-.85-.846.845.856.856zM230.556 285c.285 0 .561-.02.827-.057.266-.039.51-.105.733-.199.223-.094.42-.219.592-.375.173-.157.31-.353.415-.59.105-.24.157-.518.157-.835 0-.055-.002-.111-.005-.167a5.826 5.826 0 00-.272-1.335 6.775 6.775 0 00-.167-.483 10.547 10.547 0 00-.287-.673 1.284 1.284 0 01-.047-.107l-.928.46.454 1.116a3.393 3.393 0 01.234.89c.007.092.01.16.01.205 0 .084-.004.162-.015.235a1.012 1.012 0 01-.078.277.817.817 0 01-.292.341c-.126.082-.27.144-.433.186-.164.041-.341.067-.533.075a12.99 12.99 0 01-.59.013h-1.006V285h1.231zm-1.022 0v-1.023h-.105c-.219 0-.408-.022-.566-.067a.814.814 0 01-.357-.188.435.435 0 01-.138-.269 2.819 2.819 0 01-.019-.331v-2.62a36.414 36.414 0 00-.107-2.749 7.734 7.734 0 00-.08-.652l-1.023.188a6.5 6.5 0 01.08.628c.023.256.042.535.058.838.016.302.027.615.034.939.007.323.01.635.01.934.004.306.006.596.006.871v.203c-.001.197-.003.376-.006.538a158.548 158.548 0 00-.009.668v.086l-.001.023c0 .084.002.184.005.3a2.015 2.015 0 00.185.76c.061.132.15.255.264.37.188.188.416.327.686.417.27.09.596.136.978.136h.105zm-7.383-5.483l.845-.846-.855-.855-.846.85.856.85zm2.14.01l.844-.85-.855-.85-.845.844.855.856zm-2.375 8.807c.386 0 .744-.048 1.072-.144.33-.095.627-.227.895-.396s.505-.37.712-.603c.207-.233.383-.488.527-.764.145-.277.257-.57.337-.88a4.82 4.82 0 00.151-1.236c0-.219-.01-.436-.031-.652a5.63 5.63 0 00-.164-.9 4.353 4.353 0 00-.308-.816 3.055 3.055 0 00-.452-.673 2.353 2.353 0 00-.65-.504 1.562 1.562 0 00-.711-.17c-.223 0-.439.058-.647.173a1.864 1.864 0 00-.569.5 2.586 2.586 0 00-.263.413 3.538 3.538 0 00-.342 1.017 2.718 2.718 0 00-.042.454c0 .045.002.09.005.136.007.184.039.358.094.521.056.164.141.31.256.439.17.23.398.41.683.54.286.13.618.199.997.206l1.064.015a2.027 2.027 0 01-.091.51 2.403 2.403 0 01-.232.518c-.101.17-.225.332-.37.485a2.466 2.466 0 01-.502.402 2.53 2.53 0 01-1.351.376c-.25 0-.49-.023-.717-.068a2.823 2.823 0 01-.632-.2 2.285 2.285 0 01-.521-.33 1.85 1.85 0 01-.39-.45 1.965 1.965 0 01-.255-.656 3.308 3.308 0 01-.057-.576c0-.122.007-.247.02-.376.032-.306.104-.628.217-.968.113-.339.266-.686.457-1.04l-.913-.49c-.24.448-.427.88-.561 1.298a5.21 5.21 0 00-.243 1.242 3.575 3.575 0 00.073 1.122c.077.351.206.674.386.97.157.268.346.5.567.694.22.195.462.357.725.485.262.129.543.224.842.285.3.06.607.09.924.09h.01zm2.218-4.351a7.693 7.693 0 01-.827-.05 2.116 2.116 0 01-.261-.055 1.275 1.275 0 01-.253-.099.578.578 0 01-.198-.167.547.547 0 01-.102-.232 1.371 1.371 0 01-.024-.248v-.078a2.335 2.335 0 01.28-.937c.046-.085.092-.155.138-.21.146-.182.281-.272.407-.272.121 0 .234.035.336.107.103.071.19.145.264.221.087.101.17.22.253.358.081.137.154.291.219.462a3.964 3.964 0 01.237 1.184c-.132.01-.288.016-.47.016zm-10.644 1.064c.049-.577.078-1.122.086-1.633a75.744 75.744 0 00-.002-2.854 47.688 47.688 0 00-.266-3.798l-1.023.156c.118 1.096.212 2.487.282 4.174.01.289.015.595.015.918 0 .268-.003.548-.01.84-.017.647-.054 1.36-.11 2.14l1.028.057zm-4.555.016c.324 0 .607-.046.85-.136.251-.09.46-.22.627-.391a1.63 1.63 0 00.376-.619c.083-.241.125-.512.125-.81 0-.2-.018-.403-.055-.611a5.772 5.772 0 00-.14-.61 9.18 9.18 0 00-.58-1.496l-.065-.133-.913.48a9.204 9.204 0 01.44 1.067c.075.221.14.446.194.676.054.23.08.443.08.642a1.5 1.5 0 01-.052.412.698.698 0 01-.17.303.573.573 0 01-.265.159c-.1.026-.2.039-.3.039-.06 0-.122-.004-.188-.01a.487.487 0 01-.264-.102.636.636 0 01-.172-.22 1.103 1.103 0 01-.094-.307 2.27 2.27 0 01-.028-.368c0-.143.01-.305.03-.488.022-.183.045-.355.071-.517.026-.161.05-.3.07-.414l.027-.167-1.002-.183c-.02.143-.05.31-.086.504a7.168 7.168 0 01-.14.597 5.408 5.408 0 01-.21.605 2.756 2.756 0 01-.286.532c-.11.157-.235.284-.376.381a.82.82 0 01-.478.146.551.551 0 01-.276-.062.467.467 0 01-.172-.167.73.73 0 01-.089-.238 1.42 1.42 0 01-.026-.274c0-.135.014-.282.042-.44.028-.159.06-.313.099-.465a9.577 9.577 0 01.219-.748l-1.033-.22c-.035.17-.077.352-.125.543a5.838 5.838 0 01-.178.571c-.07.19-.151.372-.245.546a2.155 2.155 0 01-.331.461 1.554 1.554 0 01-.436.324 1.22 1.22 0 01-.553.122h-.115V285h.11c.202 0 .387-.017.556-.05a2.028 2.028 0 00.848-.37c.118-.089.229-.189.333-.3.056.129.135.242.238.34.102.097.216.178.341.244a1.705 1.705 0 001.633-.016c.265-.142.501-.335.71-.578.073.11.162.214.266.31.104.096.218.18.34.25.121.072.249.128.383.17.134.042.267.063.399.063h.036zm-9.27-5.004l.844-.845-.855-.856-.846.85.856.851zm2.138.01l.845-.85-.855-.85-.845.845.855.856zM199.075 285c.326 0 .61-.013.853-.04.241-.025.453-.065.633-.12a1.948 1.948 0 00.835-.487c.15.191.341.347.574.467.233.12.525.18.877.18h.104v-1.023h-.104a.737.737 0 01-.436-.12.856.856 0 01-.266-.302 1.429 1.429 0 01-.138-.397 3.685 3.685 0 01-.058-.407 16.002 16.002 0 00-.094-.902 4.9 4.9 0 00-.15-.71l-.982.277c.077.264.13.499.16.704.029.205.044.407.044.605 0 .209-.035.392-.105.548a.942.942 0 01-.326.391c-.148.105-.339.183-.574.235a3.964 3.964 0 01-.847.078h-.778V285h.778zm-5.119 3.85c.439-.219.865-.476 1.279-.772a6.813 6.813 0 001.103-.978c.322-.357.58-.742.775-1.156.195-.414.292-.848.292-1.304v-.02c.087.093.178.166.274.218a1.265 1.265 0 00.535.157c.076.003.139.005.187.005h.09v-1.023h-.084a.937.937 0 01-.478-.125 1.41 1.41 0 01-.414-.394c-.133-.179-.261-.41-.387-.694a11.278 11.278 0 01-.386-1.03l-.98.303c.041.128.092.29.15.482.06.193.119.4.178.618.06.22.114.443.165.67.05.229.087.442.112.64a1.947 1.947 0 01-.057.704 2.707 2.707 0 01-.285.673 3.5 3.5 0 01-.467.619 6.03 6.03 0 01-.605.56c-.22.178-.452.344-.7.499-.246.155-.495.296-.745.425l.448.923zm-.615-3.803c.048-.577.077-1.122.086-1.633a75.744 75.744 0 00-.003-2.854 47.688 47.688 0 00-.266-3.798l-1.023.156c.119 1.096.213 2.487.282 4.174.01.289.016.595.016.918 0 .268-.004.548-.01.84-.018.647-.055 1.36-.11 2.14l1.028.057zm-9.246-.047c.526 0 1.046-.049 1.56-.146a12.443 12.443 0 001.495-.378c.482-.155.943-.328 1.383-.52.44-.19.851-.382 1.234-.573.26-.13.511-.252.751-.368.24-.117.482-.225.725-.326l-.198-.992a3.07 3.07 0 01-.642-.067 5.132 5.132 0 01-.636-.18 8.437 8.437 0 01-.634-.253c-.21-.094-.418-.19-.624-.287a73.32 73.32 0 00-.558-.256 7.597 7.597 0 00-.543-.222 4.228 4.228 0 00-.524-.154 2.34 2.34 0 00-.509-.057c-.337 0-.658.082-.962.245a2.96 2.96 0 00-.864.736 3.54 3.54 0 00-.248.328 8.463 8.463 0 00-.182.287 2.657 2.657 0 00-.16.298l.94.422a2.765 2.765 0 01.193-.342c.063-.095.137-.198.224-.307.087-.11.185-.212.295-.308.11-.096.229-.175.357-.237a.919.919 0 01.407-.094c.108 0 .226.016.355.05.129.032.265.077.41.132.144.056.294.12.448.19l.478.222c.212.101.428.2.647.298.219.097.448.188.688.271-.396.198-.808.391-1.236.58-.428.187-.866.354-1.315.5a11.26 11.26 0 01-1.367.352 7.355 7.355 0 01-1.388.133h-1.132V285h1.132zm-8.379-4.283l.845-.846-.855-.855-.845.85.855.85zm2.14.01l.845-.85-.856-.85-.845.844.855.856zm-1.514 4.289c1.98 0 3.428-.48 4.346-1.44.077.212.185.401.324.568.435.56 1.104.846 2.009.856h.146v-1.023h-.13c-.568-.003-.973-.16-1.216-.47a1.044 1.044 0 01-.22-.437 2.591 2.591 0 01-.067-.47v-.042c0-.055.005-.121.015-.198a4.347 4.347 0 01.102-.56 8.1 8.1 0 01.06-.233l-.991-.271a8.945 8.945 0 01-.154.48 3.921 3.921 0 01-.209.485c-.082.16-.18.315-.295.464a2.31 2.31 0 01-.412.412c-.358.293-.807.506-1.346.64-.54.133-1.193.2-1.962.2-.859-.003-1.557-.094-2.094-.27-.538-.178-.91-.446-1.12-.804a1.266 1.266 0 01-.167-.43 2.27 2.27 0 01-.036-.384c0-.046.002-.089.005-.13.007-.157.029-.307.065-.45.037-.142.074-.267.113-.375.038-.108.073-.195.104-.261s.047-.1.047-.104l-.903-.496a3.212 3.212 0 00-.148.326 6.021 6.021 0 00-.253.785 2.44 2.44 0 00-.079.43 3.47 3.47 0 00-.005.592c.014.182.048.363.102.544.054.18.131.356.232.527.313.528.816.915 1.51 1.16.694.246 1.57.372 2.627.379z"/><path d="M147.804 246h112V134h-112z"/><path fill="#E9E8E9" d="M195.66 180.453c0 1.34 1.936 2.426 4.325 2.426 2.389 0 4.325-1.087 4.325-2.426 0-1.34-1.936-2.427-4.325-2.427-2.39 0-4.326 1.086-4.326 2.427"/><path fill="#DADBE2" d="M201.377 175.373l5.31-1.768-.984 6.414c0 1.34-1.937 2.426-4.326 2.426-2.39 0-4.326-1.086-4.326-2.426l-.985-6.414 5.311 1.768z"/><path fill="#C4C3CB" d="M195.328 171.98c0 1.874 2.708 3.393 6.05 3.393 3.34 0 6.049-1.52 6.049-3.394s-2.709-3.393-6.05-3.393c-3.341 0-6.05 1.519-6.05 3.393"/><path fill="#F0EFF1" d="M195.328 171.33c0 1.874 2.708 3.394 6.05 3.394 3.34 0 6.049-1.52 6.049-3.394 0-1.875-2.709-3.394-6.05-3.394-3.341 0-6.05 1.52-6.05 3.394"/><path fill="#C4CDD7" d="M196.486 171.33c0 1.515 2.19 2.744 4.89 2.744 2.703 0 4.893-1.229 4.893-2.744 0-1.516-2.19-2.744-4.892-2.744-2.701 0-4.891 1.228-4.891 2.744"/><g transform="matrix(-1 0 0 1 206.667 167.977)"><mask id="v" fill="#fff"><use xlink:href="#u"/></mask><path fill="#895257" d="M10.18 3.724c0 1.31-2.189 2.373-4.89 2.373-2.702 0-4.893-1.062-4.893-2.373 0-1.31 2.191-2.373 4.893-2.373 2.701 0 4.89 1.062 4.89 2.373" mask="url(#v)"/></g><g><path fill="#EB928B" d="M197.207 171.33c0 .314.825 1.604 1.14 1.604.314 0 .878-1.29.878-1.605 0-.314-.564.248-.879.248-.314 0-1.14-.562-1.14-.248m7.3-.195c0-.314-.316.467-.002.467s.26-.781.26-.467.054 1.387-.26 1.387.002-1.073.002-1.387m-4.387 1.931c0 .314.255-.467-.134-.467-.39 0-.395.781-.395.467 0-.315.006-1.387.395-1.387s.134 1.072.134 1.387m2.53-.668c0 .23.322-.618.014-.618-.307 0-.247.849-.247.618 0-.231-.06-1.236.247-1.236.308 0-.014 1.005-.014 1.236m-1.6-2.129c0 .228.342-.625.061-.625-.28 0-.198.853-.198.625 0-.227-.082-1.228.198-1.228.281 0-.062 1-.062 1.228"/><path fill="#487E19" d="M197.939 150.978s-.348-1.098-.847-1.346c.776-.39 3.858.567 4.672 2.727-.354.744-.496 1.452-.496 1.452s.425.32.814-.425c.072.78.142 1.842-1.31 3.507-.393.46-4.497.53-5.312-3.4.457-.154.673-.283.673-.283s-.637-.886.283-3.224c.426.532 1.523.992 1.523.992"/><path fill="#87C258" d="M197.053 162.842s.497-1.629-2.089-3.542c-.142.46-.142.85-.142.85s-.743-.778-.743-1.275c-.673-.425-3.607-.46-4.62 1.984.936.071 1.29.212 1.29.212s-.808.709-1.29.709c.087.602.583 1.983 2.637 2.94.318-.249 1.18-.709 1.18-.709l-.366.92s2.586.532 4.143-2.089"/><path fill="#77B549" d="M199.568 160.01s2.16-2.87-.567-5.773c-.247.318-.46.637-.46.637l-.39-1.382s-1.133-.637-2.69 0c.353.426.495.815.495.815s-.674-.248-1.099-.283c-.247.213-.637.779-.672 1.983.53.532 1.275 1.098 1.275 1.098s-.745.283-1.063.142c.142.601 1.77 3.4 5.17 2.762"/><path fill="#77B649" d="M200.594 153.14s4.341 1.01 6.774-4.642c-.712-.112-1.647 0-1.647 0l1.647-1.42s.037-1.947-2.02-3.032c-.45.561-.824 1.347-.824 1.347l-.188-1.61s-2.17.113-3.218 1.123c0 .861-.037 1.872-.037 1.872l-.711-.86s-.898.748-1.086 2.02c.375.748.934 1.669.934 1.669s-.372.284-.784 0c-.336.164-.785 2.82 1.16 3.532"/><path fill="#77B549" d="M203.818 161.036s1.522.567 4.428-1.664c-.71-.07-1.135-.248-1.135-.248s.214-.442 1.346-.47c.744-.663 1.31-1.62 1.346-2.86.036-1.239-1.381-2.974-1.841-3.187-.496.78-.886 1.381-.886 1.381s-.53-1.133-.265-1.558c-.726-.177-3.028.319-4.162 2.196.284.602.603 1.452.603 1.452s-.78.058-.992-.709c-.213.567-.496 1.31-.46 2.196.035.886 0 2.515 2.018 3.471"/><path fill="#77B649" d="M198.618 165.926a.965.965 0 01.184 1.151c-.332.626-.968 1.52-1.901 1.55a1.978 1.978 0 01-1.57-.673.948.948 0 01-.074-1.179c.386-.562 1.063-1.363 1.835-1.454.652-.077 1.18.27 1.526.605"/><path fill="#487E19" d="M199.524 164.855c.618.535 1.096 1.112 1.356 1.717 1.048 2.449.608 4.297.442 4.821-.46-.382-2.013-1.776-2.066-3.137-.025-.661.091-1.749.215-2.9l.053-.5m1.853 6.852a.119.119 0 00.108-.071c.038-.088.891-2.17-.389-5.157-.273-.637-.798-1.281-1.543-1.905.16-1.552.294-3.182.143-4.333-.266-2.031-1.53-4.787-3.678-6.037a.116.116 0 00-.161.043.118.118 0 00.043.161c1.781 1.037 3.247 3.448 3.563 5.864.142 1.088.023 2.633-.128 4.124-.775-.611-1.761-1.2-2.924-1.74-2.233-1.04-4.447-1.604-5.649-1.703h-.01a.118.118 0 00-.01.235c1.91.157 6.143 1.524 8.564 3.484l-.07.658c-.129 1.21-.24 2.255-.214 2.935.065 1.7 2.193 3.349 2.283 3.418a.12.12 0 00.072.024" opacity=".48"/><path fill="#487E19" d="M201.377 171.708c.056 0 .106-.04.115-.098.01-.055.992-5.641 1.877-9.056.948-3.661 2.795-7.087 3.806-8.496a.119.119 0 00-.028-.165.116.116 0 00-.164.027c-1.02 1.424-2.885 4.883-3.842 8.574-.888 3.425-1.87 9.02-1.88 9.076a.117.117 0 00.096.136c.006.002.013.002.02.002m.422-6.953c.059 0 .11-.044.117-.104.33-2.748.04-3.61-.296-4.61-.043-.128-.087-.259-.132-.398-.354-1.12-.84-2.655.426-8.392.513-2.32 1.523-3.914 2.335-5.194.134-.21.26-.41.378-.602a.118.118 0 00-.039-.162.116.116 0 00-.161.039c-.117.19-.244.39-.377.6-.822 1.295-1.844 2.907-2.365 5.269-1.28 5.798-.784 7.368-.42 8.514.045.14.09.272.132.401.34 1.012.61 1.812.286 4.507a.116.116 0 00.116.132" opacity=".48"/><path fill="#77B549" d="M202.508 162.56c2.596-.363 4.215 2.16 4.356 3.966-.567.07-1.24 0-1.24 0s.39 1.144 1.099 1.298c-.604.933-1.418 2.172-2.037 2.279-.478-.425-.903-1.063-.903-1.063s-.85 1.629-.78 2.178c-.602.053-1.204-1.01-1.38-1.293-.177-.283-1.595-.991-1.737-1.629.178-.602.674-1.327.674-1.327s-.674-.353-.92-.08c-.178-.54-.178-3.905 2.868-4.33"/></g><g><path fill="#E8C2B9" d="M190.258 236.979l-2.316 1.296-.044-5.615 2.36-1.363z"/><path fill="#DBA99E" d="M187.898 232.661l.043 5.614-2.85-1.554v-5.675z"/><path fill="#BF8B82" d="M185.091 230.216l2.807 1.612.043 2.362-2.85-1.553z"/><path fill="#DBACA2" d="M190.258 230.466l-2.36 1.363.043 2.361 2.317-1.296z"/><path fill="#E8C2B9" d="M162.058 214.733l-2.361 1.362.043 5.615 2.318-1.295z"/><path fill="#DBA99E" d="M156.89 214.483l2.807 1.612.043 5.615-2.85-1.553z"/><path fill="#BF8B82" d="M156.89 213.651l2.807 1.613.043 2.361-2.85-1.553z"/><path fill="#DBACA2" d="M162.058 213.901l-2.361 1.363.043 2.362 2.318-1.296z"/><path fill="#D6A094" d="M219.984 146l.769.497-.769.445v31.916l-2.198 1.269v.941l-.768-.497v-8.325l1.853-25.603z"/><path fill="#EAC5BC" d="M220.753 146.498l-1.112.642-1.855 25.604v8.325l2.967-1.713z"/><path fill="#CC9E97" d="M220.538 146.962l34.319 19.815v32.858l-34.319-19.814v-32.416l-.453-.29z"/><path fill="#DFB5AC" d="M254.404 166.93l-34.319-19.814v32.857l34.319 19.815z"/><path fill="#DCADA3" d="M255.804 166.73l-.77.444v31.917l-2.196 1.268v.941l-.77-.497v-8.325l1.855-25.604 1.111-.642z"/><path fill="#E8C1B8" d="M255.804 199.588l-2.966 1.712v-8.324l1.854-25.604 1.112-.642z"/><path fill="#E8C2B8" d="M252.168 190.059v5.946l-63.931 36.911v-5.947z"/><path fill="#DBADA2" d="M252.168 190.045l-63.931 36.911-31.729-18.319 63.931-36.911z"/><path fill="#DBACA2" d="M188.237 226.969v5.947l-31.729-18.318v-5.948z"/><path fill="#DCADA3" d="M255.804 166.73l-.77.444v31.917l-2.196 1.268v.941l-.77-.497v-8.325l1.855-25.604 1.111-.642z"/><path fill="#E8C1B8" d="M255.804 199.588l-2.966 1.712v-8.324l1.854-25.604 1.112-.642z"/><path fill="#E2E5EA" d="M162.144 206.483l58.182-33.464a7.69 7.69 0 017.693 0l23.983 13.845c.166.096.3.221.403.363l.249-.34v1.188l-.006.002c-.025.411-.24.811-.646 1.046l-57.546 33.097a9.748 9.748 0 01-9.746 0l-22.566-13.03a1.563 1.563 0 010-2.707"/><path fill="#F8F9FA" d="M252.001 185.778l-23.981-13.846a7.698 7.698 0 00-7.694 0l-58.183 33.465a1.563 1.563 0 000 2.708l22.567 13.028a9.745 9.745 0 009.747 0L252 188.037c.87-.502.87-1.756 0-2.259"/><path fill="#D28983" d="M247.178 183.13c.6-.868 1.976-4.478 1.18-5.772-.797-1.294-7.914-5.724-10.852-7.068-2.937-1.344-6.171-2.887-7.914-2.837-1.741.05-3.633 1.593-5.823 3.334-2.19 1.743-5.774 4.282-6.97 5.525-1.193 1.245-1.94 2.539-.447 3.684 1.493 1.145 17.471 9.606 19.014 10.055 1.543.447 1.459.623 2.952-.101 1.493-.725 7.865-5.376 8.86-6.82"/><path fill="#E2E5EA" d="M247.408 183.55c.392-.978.367-4.17-.43-5.465-.795-1.294-6.535-5.443-9.472-6.787-2.937-1.344-6.171-2.887-7.914-2.837-1.742.05-3.633 1.593-5.824 3.335-2.19 1.741-5.773 4.28-6.968 5.524-1.194 1.245-1.94 2.54-.448 3.684 1.493 1.145 17.471 9.606 19.014 10.055 1.544.447 1.459.623 2.952-.102 1.493-.724 8.292-5.405 9.09-7.406"/><path fill="#F2F4F3" d="M246.954 183.717c.599-.868 1.343-4.58.547-5.874-.796-1.293-7.915-5.724-10.85-7.068-2.937-1.343-6.173-2.886-7.915-2.837-1.743.05-3.634 1.593-5.823 3.335-2.19 1.742-5.774 4.28-6.969 5.525-1.195 1.244-1.941 2.539-.448 3.684 1.493 1.144 17.47 9.606 19.014 10.054 1.543.448 2.09.724 3.583 0 1.493-.725 7.866-5.376 8.86-6.82"/><path fill="#E3E5E4" d="M246.222 183.068c-.31.93-2.29 2.937-3.336 3.634-1.045.697-5.127 3.434-5.624 3.434-.497 0-1.145-.2-.747-1.094.398-.896 2.14-2.241 3.236-3.386 1.094-1.144 3.185-3.135 3.883-4.28.696-1.145 1.956-3.183 2.588-2.837.744.407.698 2.439 0 4.53"/><path fill="#FFF" d="M174.899 200.88l.97.52c.046-.038.095-.075.151-.107l24.214-17.804 10.632-6.714c.733-.423 2.749-.477 3.515-.118.646.304.473.126 1.102.294 1.283.342 2.824.855 4.022 1.197 1.197.343 1.283 1.028 2.994 1.883 1.711.856 4.707 3.765 7.737 5.904 1.608 1.135 4.174 2.215 6.229 2.978a4.956 4.956 0 013.234 4.646v6.38c0 .549-.293 1.055-.767 1.328l-15.862 9.159s-16.507 10.03-17.55 10.479c-1.043.45-1.437.483-1.437.483l-1.202.063s.024.457-.49.913c-.514.457-1.877.731-2.414.627-.538-.105-1.32-.64-1.32-.64l1.127-9.29s-2.698-.772-5.008-1.818c-2.311-1.046-7.53-4.43-9.327-5.371-1.797-.94-3.85-3.337-5.647-4.107-1.796-.77-2.996 0-4.45 0-.693 0 2.096 2.094 1.07 1.603a3.49 3.49 0 01-.167-.08l-.172-.085a1.106 1.106 0 01-.257-.176l-3.95-2.562c-.242-.185 3.379 2.143 3.301 2.037-.076-.107-.24-.358-.24-.358l-.038-1.264z"/><path fill="#CEDED4" d="M158.138 207.143c.051-.042.106-.082.166-.116l42.685-24.644a2.833 2.833 0 012.622-.115c.709.333 1.58.707 2.268.89 1.407.375 3.094.938 4.408 1.313 1.313.375 1.407 1.126 3.282 2.063 1.876.938 5.158 4.126 8.479 6.47 1.761 1.244 4.573 2.427 6.825 3.264a5.432 5.432 0 013.544 5.091v5.827a3.699 3.699 0 01-1.848 3.204l-16.375 9.454s-18.09 10.99-19.233 11.484c-1.143.491-1.574.528-1.574.528l-1.318.07s.026.5-.537 1c-.563.501-2.057.801-2.646.687-.59-.114-1.445-.702-1.445-.702l1.234-10.18s-2.956-.845-5.488-1.992c-2.532-1.147-8.252-4.855-10.221-5.886-1.97-1.031-4.22-3.657-6.189-4.5-1.97-.845-3.282 0-4.876 0-.76 0-2.032-.515-3.156-1.052-.003-.001-.078-.035-.183-.089-.064-.03-.127-.061-.189-.092a1.223 1.223 0 01-.282-.193c-.264-.202-.625-.46-.71-.576a13.632 13.632 0 01-.263-.393l1.02-.815z"/><path fill="#B3C6B9" d="M192.154 231.925l-.416-8.354c-.008-.159.224-.186.251-.029l1.457 8.315-1.292.068zm-35.477-23.39c.306-.475.44-.577.44-.577s.54.724 1.053 1.018c.054.031.11.076.167.126 1.21.601 2.71 1.25 3.564 1.25 1.594 0 2.907-.844 4.876 0 1.969.844 4.22 3.47 6.19 4.5 1.968 1.033 7.688 4.74 10.22 5.887 2.532 1.146 5.488 1.993 5.488 1.993l-1.234 10.18s-.55.156-1.745-.337c-1.196-.491-6.33-3.023-7.548-3.766-1.218-.742-5.042-1.93-9.261-4.954-4.22-3.024-12.429-6.822-12.429-6.822v-7.127s-.086-.896.22-1.37"/><path stroke="#EEF3EF" stroke-linecap="round" stroke-linejoin="round" d="M228.32 211.654l-.296-7.246a5.641 5.641 0 00-3.708-5.082c-1.015-.366-1.97-.754-2.432-1.06-1.23-.815-4.117-2.397-4.57-2.714-.451-.317-7.419-6.063-8.595-6.605-1.177-.543-4.886-2.082-6.29-2.489-1.402-.407-4.693-2.068-4.693-2.068"/><path stroke="#EEF3EF" stroke-linecap="round" stroke-linejoin="round" d="M225.892 213.097l-.296-7.245a5.64 5.64 0 00-3.708-5.081c-1.016-.367-1.971-.756-2.432-1.061-1.23-.814-4.117-2.398-4.57-2.714-.452-.317-7.42-6.063-8.596-6.606-1.176-.543-4.886-2.08-6.289-2.488-1.402-.407-4.723-2.092-4.723-2.092m7.385 40.949l-.296-7.244a5.64 5.64 0 00-3.708-5.083c-1.016-.367-1.971-.755-2.432-1.06-1.23-.815-4.117-2.398-4.57-2.715-.452-.317-7.42-6.062-8.596-6.605-1.176-.543-4.887-2.081-6.289-2.488-1.402-.407-4.815-2.128-4.815-2.128"/><path stroke="#EEF3EF" stroke-linecap="round" stroke-linejoin="round" d="M200.234 228.203l-.296-7.245a5.641 5.641 0 00-3.708-5.082c-1.015-.366-1.97-.755-2.432-1.06-1.23-.814-4.117-2.398-4.57-2.714-.452-.317-7.42-6.063-8.595-6.606-1.177-.543-4.887-2.08-6.29-2.488-1.402-.407-4.814-2.128-4.814-2.128"/></g></g></g></svg>