<svg xmlns="http://www.w3.org/2000/svg" width="860" height="205"><g fill="none" fill-rule="evenodd"><rect width="860" height="205" rx="4"/><g transform="translate(198 73)"><path fill="#000000" fill-opacity=".56" d="M67.19 48.795l-14.17-9.448a3.19 3.19 0 00-3.54 0l-14.17 9.448v-38.67a3.19 3.19 0 013.187-3.188h25.506a3.19 3.19 0 013.188 3.187v38.671zM64.004.562H38.497c-5.272 0-9.563 4.29-9.563 9.562V54.75a3.189 3.189 0 004.957 2.652l17.359-11.57L68.61 57.4a3.19 3.19 0 003.274.16 3.189 3.189 0 001.682-2.812V10.124c0-5.272-4.29-9.562-9.563-9.562z"/><circle cx="38.523" cy="10.151" r="9.339" fill="#EA475B" fill-opacity=".04" stroke="#EA475B" stroke-opacity=".87" stroke-width=".5"/><path stroke="#EA475B" stroke-opacity=".87" stroke-width=".5" d="M28.934 10.151h-21M88.256 10.151h-21"/><path fill="#EA475B" fill-rule="nonzero" d="M5.386 12.151v-.591H2.53l1.523-1.653c.715-.772 1.072-1.438 1.072-2 0-.459-.154-.827-.461-1.106-.307-.278-.725-.417-1.254-.417-.566 0-1.017.162-1.355.485-.337.324-.506.747-.506 1.272h.724c0-.367.1-.652.299-.856.2-.204.479-.306.838-.306.3 0 .539.095.718.285.18.19.27.434.27.73 0 .223-.055.438-.165.644-.11.206-.312.475-.604.807L1.66 11.633v.518h3.726zm87.492.076c.615 0 1.067-.205 1.355-.615.289-.41.433-1.039.433-1.885v-.94c-.007-.818-.154-1.423-.443-1.815-.289-.392-.74-.588-1.351-.588-.62 0-1.074.203-1.362.61-.289.407-.433 1.028-.433 1.863v.967c.011.798.163 1.398.454 1.8.29.402.74.603 1.347.603zm0-.587c-.361 0-.631-.147-.81-.44-.178-.294-.268-.748-.268-1.362V8.683c.005-.58.092-1.009.261-1.287.17-.278.44-.417.81-.417.372 0 .643.14.814.42.172.281.258.726.258 1.336v1.186c-.007.594-.097 1.029-.27 1.305-.172.276-.437.414-.795.414zm3.33.511a.482.482 0 00.35-.125.414.414 0 00.119-.306.444.444 0 00-.119-.324.468.468 0 00-.35-.129.451.451 0 00-.345.13.452.452 0 00-.115.323c0 .127.038.23.115.306a.458.458 0 00.344.125zm3.557.076c.569 0 1.01-.168 1.327-.504.317-.336.475-.798.475-1.384 0-.585-.152-1.048-.457-1.39-.305-.342-.717-.513-1.237-.513-.352 0-.669.082-.95.247l.175-1.551h2.299v-.668h-2.915l-.289 2.835.581.15.191-.157c.179-.14.426-.209.741-.209.344 0 .619.115.826.346.208.23.312.536.312.917 0 .403-.096.72-.287.95-.192.229-.455.344-.792.344-.308 0-.555-.083-.742-.249-.187-.166-.303-.411-.35-.736h-.681c.044.492.224.877.542 1.155.318.278.728.417 1.231.417z"/><circle cx="63.977" cy="10.151" r="3.029" fill="#EA475B" fill-opacity=".04" stroke="#EA475B" stroke-opacity=".87" stroke-width=".5"/></g><g transform="translate(366.75 70.5)"><path fill="#000000" fill-opacity=".56" d="M71.276 3.563c2.117 0 4.1 1.051 5.285 2.808l4.561 6.754h7.628a9.562 9.562 0 019.563 9.563v28.687a9.562 9.562 0 01-9.563 9.563h-51a9.562 9.562 0 01-9.563-9.563V22.687a9.562 9.562 0 019.563-9.562h7.628l4.561-6.754a6.375 6.375 0 015.285-2.809zm.344 6.374H55.667l-5.511 8.16A3.198 3.198 0 0147.51 19.5h-9.76a3.187 3.187 0 00-3.188 3.188v28.687a3.187 3.187 0 003.188 3.188h51a3.187 3.187 0 003.188-3.188V22.687A3.187 3.187 0 0088.75 19.5h-8.973a3.198 3.198 0 01-2.645-1.402l-5.512-8.16zM63.25 19.5c8.804 0 15.938 7.137 15.938 15.938 0 8.8-7.134 15.937-15.938 15.937s-15.938-7.137-15.938-15.938c0-8.8 7.134-15.937 15.938-15.937zm0 6.375c-5.272 0-9.563 4.29-9.563 9.563 0 5.272 4.29 9.562 9.563 9.562 5.272 0 9.563-4.29 9.563-9.563 0-5.272-4.29-9.562-9.563-9.562z"/><circle cx="72.072" cy="8.357" r="4.545" fill="#EA475B" fill-opacity=".04" stroke="#EA475B" stroke-opacity=".87" stroke-width=".5"/><path stroke="#EA475B" stroke-opacity=".87" stroke-width=".5" d="M97.867 8.357h-21"/><path fill="#EA475B" fill-rule="nonzero" d="M102.968 10.357V4.643h-.114l-2.07.775v.658l1.457-.536v4.817z"/><circle cx="37.777" cy="51.348" r="9.339" fill="#EA475B" fill-opacity=".04" stroke="#EA475B" stroke-opacity=".87" stroke-width=".5"/><path stroke="#EA475B" stroke-opacity=".87" stroke-width=".5" d="M28.188 51.348h-21"/><path fill="#EA475B" fill-rule="nonzero" d="M4.639 53.348v-.59H1.783l1.524-1.653c.714-.772 1.07-1.439 1.07-2 0-.46-.153-.828-.46-1.106-.307-.278-.725-.418-1.254-.418-.566 0-1.017.162-1.355.486-.337.323-.506.747-.506 1.271h.724c0-.366.1-.652.299-.856.2-.204.479-.306.838-.306.3 0 .539.095.718.285.18.19.27.434.27.73 0 .223-.055.438-.165.644-.11.207-.312.476-.604.807L.914 52.83v.518h3.725z"/></g><g transform="translate(588 81.5)"><circle cx="42.902" cy="21.252" r="3.047" fill="#EA475B" fill-opacity=".04" stroke="#EA475B" stroke-opacity=".87" stroke-width=".5"/><path stroke="#EA475B" stroke-opacity=".87" stroke-width=".5" d="M67.199 21.252h-21"/><path fill="#EA475B" fill-rule="nonzero" d="M73.944 23.252v-.612h-2.866v-2.017h2.466v-.612h-2.466v-1.83h2.825v-.616H70.33v5.687h3.614zm1.541 0V20.24c.1-.201.238-.365.414-.49s.381-.188.616-.188c.29 0 .503.073.64.22.137.145.206.37.208.674v2.796h.724V20.46c-.007-1.008-.458-1.513-1.353-1.513-.52 0-.942.204-1.266.613l-.021-.533h-.685v4.226h.723zm5.176.077c.515 0 .917-.176 1.207-.529l.035.452h.664v-6h-.724v2.202c-.287-.338-.679-.508-1.175-.508s-.898.198-1.205.593c-.308.396-.461.917-.461 1.564v.056c0 .646.154 1.17.462 1.57.309.4.708.6 1.197.6zm.18-.612a.964.964 0 01-.822-.405c-.198-.27-.297-.646-.297-1.126 0-.535.099-.94.297-1.214.198-.273.475-.41.83-.41.447 0 .779.2.994.598v1.941c-.21.41-.545.616-1.001.616zm7.41.612c.618 0 1.115-.163 1.488-.489.373-.326.596-.79.668-1.393h-.755c-.074.469-.223.797-.445.986-.223.19-.542.284-.957.284-.463 0-.825-.182-1.083-.546-.259-.364-.388-.855-.388-1.472v-.553c0-.654.136-1.157.409-1.511.272-.354.648-.53 1.128-.53.39 0 .694.101.912.304.218.203.36.53.424.983h.755c-.06-.596-.273-1.063-.638-1.4-.366-.338-.85-.507-1.453-.507-.456 0-.858.108-1.205.324a2.113 2.113 0 00-.802.925c-.187.401-.281.866-.281 1.395v.546c0 .807.202 1.451.607 1.932.404.481.943.722 1.615.722zm4.368 0c.466 0 .867-.174 1.204-.522.025.214.059.362.1.445h.759v-.062c-.098-.23-.146-.538-.146-.925V20.32c-.012-.429-.156-.765-.432-1.008-.276-.244-.657-.366-1.144-.366-.306 0-.588.058-.845.173-.258.114-.461.27-.61.467-.15.197-.225.402-.225.613h.727c0-.186.087-.344.26-.474.175-.13.391-.194.651-.194.295 0 .517.074.668.224.15.15.226.35.226.604v.33h-.703c-.607 0-1.078.122-1.413.365-.336.244-.503.586-.503 1.026 0 .362.134.66.402.896.268.235.609.353 1.024.353zm.108-.626c-.239 0-.434-.064-.584-.191-.151-.128-.227-.305-.227-.533 0-.519.443-.779 1.33-.779h.566v.87c-.09.188-.238.34-.442.457a1.274 1.274 0 01-.643.176zm3.662 2.174v-2.035c.295.325.698.487 1.21.487.504 0 .903-.197 1.197-.59.295-.393.442-.91.442-1.553v-.066c0-.681-.148-1.214-.443-1.598-.296-.384-.698-.576-1.206-.576-.524 0-.933.184-1.227.55l-.035-.47h-.661v5.85h.723zm.992-2.136c-.445 0-.776-.192-.992-.577v-2.021c.218-.387.547-.581.985-.581.355 0 .633.138.836.414.203.276.305.652.305 1.127 0 .542-.102.951-.306 1.226a.977.977 0 01-.828.412zm4.327.588c.482 0 .875-.114 1.177-.34a1.08 1.08 0 00.454-.909.99.99 0 00-.163-.577 1.283 1.283 0 00-.5-.404 3.95 3.95 0 00-.876-.288c-.36-.081-.61-.166-.748-.254a.436.436 0 01-.207-.393c0-.186.074-.336.223-.45.148-.115.353-.173.615-.173a.94.94 0 01.637.216c.167.144.25.314.25.511h.727c0-.385-.149-.701-.447-.95-.298-.248-.687-.372-1.167-.372-.454 0-.828.12-1.121.36-.294.24-.44.533-.44.879a.94.94 0 00.154.54c.104.152.262.283.477.392.214.109.505.202.871.28.367.077.623.17.77.278.148.108.222.26.222.457a.51.51 0 01-.25.442c-.165.111-.385.167-.658.167-.297 0-.536-.071-.717-.214a.754.754 0 01-.292-.575h-.72c0 .25.074.482.22.697.148.214.352.381.611.5.26.12.56.18.898.18zm5.854-.077v-2.299h1.339l1.231 2.3h.807v-.046l-1.336-2.417c.341-.13.607-.327.799-.59.191-.263.287-.57.287-.923 0-.56-.173-.984-.519-1.275-.345-.291-.838-.437-1.478-.437h-1.882v5.687h.752zm1.154-2.914h-1.154V18.18h1.151c.394.002.696.098.906.285.21.188.315.458.315.81 0 .323-.11.58-.33.773-.22.192-.517.289-.888.289zm4.644 2.991c.38 0 .717-.091 1.01-.273a1.78 1.78 0 00.675-.764 2.53 2.53 0 00.235-1.106v-.052c0-.66-.177-1.19-.532-1.59-.355-.398-.82-.598-1.395-.598-.373 0-.705.09-.995.27-.29.18-.516.435-.68.767a2.491 2.491 0 00-.245 1.116v.053c0 .656.178 1.183.534 1.58.356.398.82.597 1.393.597zm0-.588c-.364 0-.655-.142-.873-.426-.218-.284-.327-.66-.327-1.129 0-.528.11-.935.329-1.219a1.04 1.04 0 01.864-.426c.364 0 .656.144.876.431.22.288.33.664.33 1.127 0 .52-.107.923-.324 1.21a1.04 1.04 0 01-.875.432zm4.198.588c.545 0 .958-.165 1.238-.494l.018.417h.689v-4.226h-.724v3.075c-.183.41-.55.616-1.103.616-.521 0-.782-.32-.782-.96v-2.73h-.72v2.747c.002.515.121.903.356 1.164.236.26.578.391 1.028.391zm3.764-.077V20.24c.1-.201.237-.365.414-.49.176-.125.381-.188.615-.188.29 0 .503.073.64.22.137.145.207.37.209.674v2.796h.723V20.46c-.007-1.008-.458-1.513-1.353-1.513-.52 0-.941.204-1.266.613l-.02-.533h-.686v4.226h.724zm5.175.077c.515 0 .917-.176 1.207-.529l.035.452h.664v-6h-.723v2.202c-.288-.338-.68-.508-1.176-.508-.496 0-.898.198-1.205.593-.307.396-.46.917-.46 1.564v.056c0 .646.153 1.17.462 1.57.308.4.707.6 1.196.6zm.181-.612a.964.964 0 01-.822-.405c-.199-.27-.298-.646-.298-1.126 0-.535.1-.94.298-1.214.198-.273.474-.41.83-.41.447 0 .778.2.994.598v1.941c-.211.41-.545.616-1.002.616zm4.598.612c.71 0 1.242-.271 1.597-.814l-.442-.344c-.134.171-.29.31-.466.414a1.25 1.25 0 01-.647.156c-.36 0-.655-.128-.889-.384-.233-.256-.355-.593-.366-1.01h2.862v-.303c0-.673-.152-1.19-.456-1.553-.303-.363-.73-.545-1.28-.545-.336 0-.648.094-.935.28a1.89 1.89 0 00-.673.774c-.161.33-.242.704-.242 1.124v.132c0 .63.18 1.134.54 1.51.359.375.825.563 1.397.563zm.93-2.577h-2.12c.047-.383.17-.68.368-.893a.967.967 0 01.735-.318c.302 0 .541.101.719.303.177.201.276.487.297.855v.053zm3.043 2.577c.514 0 .917-.176 1.207-.529l.034.452h.665v-6h-.724v2.202c-.287-.338-.68-.508-1.175-.508-.497 0-.898.198-1.206.593-.307.396-.46.917-.46 1.564v.056c0 .646.154 1.17.462 1.57.308.4.707.6 1.197.6zm.18-.612a.964.964 0 01-.822-.405c-.198-.27-.298-.646-.298-1.126 0-.535.1-.94.298-1.214.198-.273.475-.41.83-.41.447 0 .779.2.994.598v1.941c-.21.41-.545.616-1.002.616z"/><circle cx="3.596" cy="21.252" r="3.047" fill="#EA475B" fill-opacity=".04" stroke="#EA475B" stroke-opacity=".87" stroke-width=".5"/><circle cx="21.474" cy="39.172" r="3.047" fill="#EA475B" fill-opacity=".04" stroke="#EA475B" stroke-opacity=".87" stroke-width=".5"/><path fill="#000000" fill-opacity=".56" d="M1.236 23.544L19.3 41.541a3.188 3.188 0 104.5-4.517l-12.6-12.55h31.812a3.187 3.187 0 003.187-3.187 3.185 3.185 0 00-3.187-3.187h-31.83L23.803 5.477a3.188 3.188 0 10-4.507-4.51L1.233 19.031a3.205 3.205 0 00-.934 2.256c0 .848.341 1.661.937 2.257"/><circle cx="21.474" cy="3.333" r="3.047" fill="#EA475B" fill-opacity=".04" stroke="#EA475B" stroke-opacity=".87" stroke-width=".5"/></g></g></svg>