<svg xmlns="http://www.w3.org/2000/svg" width="860" height="220"><g fill="#000000" fill-rule="evenodd"><rect width="860" height="220" fill="none" rx="4"/><path fill-opacity=".56" d="M310.669 86.176l-5.928-3.952a1.334 1.334 0 00-1.48 0l-5.928 3.952V70c0-.735.597-1.333 1.333-1.333h10.67c.735 0 1.333.598 1.333 1.333v16.176zM309.335 66h-10.67c-2.204 0-4 1.795-4 4v18.667a1.334 1.334 0 002.074 1.109l7.262-4.84 7.26 4.84a1.328 1.328 0 001.37.067c.434-.232.704-.684.704-1.176V70c0-2.205-1.794-4-4-4zm0 64h-10.67c-2.204 0-4 1.795-4 4v18.667a1.334 1.334 0 002.074 1.11l7.262-4.84 7.26 4.84a1.328 1.328 0 001.37.066c.434-.232.704-.684.704-1.176V134c0-2.205-1.794-4-4-4m-80.13-45.336v-2.052l.096.012c1.339.17 2.702.31 4.047.415.027.001.053.003.08.003a1 1 0 00.077-1.996 83.985 83.985 0 01-3.966-.408l-.334-.038v-.641c0-.45.058-.901.142-1.345a85.274 85.274 0 0021.308 0c.084.445.141.894.141 1.345v.641l-.356.039a83.205 83.205 0 01-3.95.407 1 1 0 00.077 1.996c.026 0 .054 0 .08-.003a84.655 84.655 0 004.03-.413l.119-.014v2.05c-7.172.717-14.421.717-21.59.002zm3.803-13.646c.313-.588.987-.97 1.715-.97h10.557c.728 0 1.4.382 1.716.97l2.677 5.02a82.716 82.716 0 01-19.345 0l2.68-5.02zm22.825 3.924a1.337 1.337 0 00-1.814-.516l-1.69.942c-.018-.034-.03-.07-.048-.105l-2.933-5.497c-.781-1.471-2.34-2.384-4.068-2.384h-10.557c-1.728 0-3.287.913-4.068 2.382l-2.935 5.5c-.019.034-.03.07-.047.103l-1.69-.941a1.333 1.333 0 00-1.298 2.329l2.086 1.161a9.78 9.78 0 00-.232 2.043v5.916h.014c0 .123 0 .248.032.363v2.013h-.004v1.67a1.669 1.669 0 003.339 0v-1.67h-.001v-.839c3.348.303 6.71.463 10.076.463 3.365 0 6.732-.16 10.081-.463v.839h-.004v1.67a1.669 1.669 0 003.339 0v-1.67h-.002v-2.1c.02-.09.026-.181.026-.276h.028v-5.916a9.87 9.87 0 00-.231-2.043l2.084-1.161c.643-.357.875-1.17.517-1.813zm-22.827 60.077c.314-.59.989-.97 1.717-.97h10.556c.728 0 1.402.38 1.716.97l2.677 5.02a82.63 82.63 0 01-19.344 0l2.678-5.02zm17.787 11.155a1.153 1.153 0 01-.193.146c-.09.05-.182.098-.288.119l-.85.165-.04.008a81.55 81.55 0 01-4.11.427c-.025.002-.053.002-.079.002a1 1 0 01-.077-1.995 82.845 82.845 0 003.95-.407l.823-.163a.886.886 0 01.455.027c.012.004.024.012.036.016.136.05.265.123.373.224a.98.98 0 01.31.523.984.984 0 01-.31.908zm-21.586-1.438c.107-.098.233-.17.37-.218.011-.003.02-.011.033-.014a.936.936 0 01.456-.028l.888.175c1.24.155 2.569.29 3.883.395a.999.999 0 11-.156 1.993 85.55 85.55 0 01-4.046-.415l-.955-.185a.985.985 0 01-.285-.119 1.148 1.148 0 01-.188-.14.986.986 0 01-.316-.914.977.977 0 01.316-.53zm26.623-5.794a1.334 1.334 0 00-1.813-.516l-1.69.941c-.017-.033-.027-.07-.046-.104l-2.933-5.499c-.784-1.469-2.343-2.382-4.07-2.382h-10.555c-1.727 0-3.285.913-4.07 2.382l-2.934 5.5c-.019.034-.03.07-.047.103l-1.69-.941a1.334 1.334 0 10-1.296 2.329l2.084 1.161a9.95 9.95 0 00-.231 2.043v5.916h.013c0 .122 0 .248.034.362v2.012h-.004v1.67a1.668 1.668 0 103.338 0v-1.67h-.001v-.837c3.348.303 6.71.463 10.074.463 3.367 0 6.73-.162 10.083-.464v.838h-.004v1.67a1.668 1.668 0 103.338 0v-1.67h-.001v-2.098c.019-.09.024-.183.024-.276h.03v-5.916c0-.685-.09-1.368-.233-2.041l2.086-1.163a1.33 1.33 0 00.514-1.813zm112.408-74.256c6.485 0 11.763 5.336 11.763 11.894v2.64c0 2.13-1.07 4.076-2.862 5.205-.25.159-.49.299-.712.43-1.085.638-1.168.703-1.168 1.431l.006.65a4 4 0 01-2.363 3.68 11.963 11.963 0 01-9.803-.006 4.009 4.009 0 01-2.357-3.648v-.676c0-.728-.083-.793-1.168-1.432-.223-.13-.461-.27-.712-.429A6.114 6.114 0 01356 79.22v-2.64c0-6.558 5.277-11.894 11.762-11.894zm0 2.667h-.475c-5.014 0-9.096 4.14-9.096 9.227v2.64c0 1.21.604 2.312 1.616 2.95.227.142.442.268.642.386 1.164.684 2.484 1.46 2.484 3.73v.676c0 .524.308 1.002.786 1.216a9.3 9.3 0 007.615.004 1.33 1.33 0 00.788-1.226l-.005-.659c0-2.281 1.32-3.057 2.484-3.741.2-.118.414-.244.64-.387a3.461 3.461 0 001.617-2.95v-2.64c0-5.086-4.081-9.226-9.096-9.226zm-1.162 15.136a1.333 1.333 0 011.85 0l1.184 1.14a1.333 1.333 0 11-1.849 1.922l-.26-.251-.261.25a1.332 1.332 0 11-1.848-1.92zm-6.888-5.867c.44-1.536 2.904-1.253 4.21-.879 1.306.375 3.026 1.646 2.68 2.854-.347 1.208-2.257 2.816-4.362 2.212-2.108-.603-3.044-2.392-2.528-4.187zm11.415-.95c1.306-.375 3.77-.657 4.21.879.516 1.794-.42 3.584-2.527 4.188-2.105.602-4.016-1.006-4.363-2.214-.346-1.208 1.375-2.478 2.68-2.853zm62.468 12.117a1.334 1.334 0 011.193 2.385l-1.475.737c-.56.28-1.174.42-1.789.42-.613 0-1.228-.14-1.788-.42l-1.475-.737a1.334 1.334 0 011.194-2.385l1.474.737c.372.187.818.187 1.191 0zM432 64.667c.738 0 1.334.597 1.334 1.333v2.114c4.146.645 7.334 4.229 7.334 8.553v6h.665a1.333 1.333 0 110 2.667h-18.667a1.333 1.333 0 110-2.667h.668v-6c0-4.324 3.188-7.908 7.334-8.553V66c0-.736.596-1.333 1.333-1.333zm0 6c-3.307 0-6 2.692-6 6v6h12v-6c0-3.308-2.691-6-6-6zm73.747-1.176l-6.867 7.244a4.463 4.463 0 00-1.628-1.615l7.25-6.862a.873.873 0 011.22.017.873.873 0 01.025 1.216M491.58 85.24c-1.336.81-2.75 1.128-4.498 1.162.508-.806.8-1.672 1.064-2.455.469-1.395.808-2.279 1.785-2.861a2.66 2.66 0 011.147-.352c.606-.011 1.366.176 1.864.672.032.032.05.06.078.092.067.08.142.152.196.244.636 1.065-.053 2.537-1.636 3.498m4.71-7.53c.369.369.51.8.566 1.16l-1.373 1.449c-.055-.084-.137-.16-.2-.243a4.688 4.688 0 00-1.707-1.474l1.528-1.447c.35.05.81.18 1.186.556m11.318-11.32a3.526 3.526 0 00-4.936-.07L490.13 78.19a5.328 5.328 0 00-1.562.604c-1.874 1.115-2.468 2.882-2.948 4.299-.566 1.683-.964 2.66-2.542 3.175a1.333 1.333 0 00.279 2.593c1.236.127 2.361.207 3.41.207 2.347 0 4.3-.4 6.198-1.55 1.641-.996 2.67-2.393 3.016-3.85l3.159-3.331.04-.041 8.509-8.975a3.53 3.53 0 00-.079-4.932m52.392-.39c6.617 0 12 5.383 12 12 0 6.616-5.383 12-12 12-6.618 0-12-5.384-12-12 0-6.617 5.382-12 12-12zm0 2.667a9.333 9.333 0 100 18.667 9.333 9.333 0 000-18.667zm-.391 3.326c.737 0 1.333.597 1.333 1.333v4.653l3.282 2.383a1.332 1.332 0 01-.786 2.412 1.33 1.33 0 01-.782-.255l-3.831-2.78-.057-.068a1.362 1.362 0 01-.274-.324c-.026-.045-.065-.08-.086-.129a1.314 1.314 0 01-.132-.559v-5.333c0-.736.596-1.333 1.333-1.333zM624 66.749c-.498 0-.997.27-1.227.812l-2.522 5.945-6.437.552c-1.175.1-1.65 1.564-.759 2.336l4.89 4.234-1.468 6.296c-.208.893.5 1.64 1.3 1.64.229 0 .465-.062.689-.196l5.533-3.342 5.543 3.343c.224.135.459.195.687.195.8 0 1.509-.747 1.3-1.64l-1.474-6.296 4.89-4.234c.893-.772.417-2.236-.758-2.336l-6.437-.552-2.521-5.945a1.316 1.316 0 00-1.228-.812m0 3.383l1.785 4.208.501 1.184 1.28.109 4.55.39-3.458 2.991-.973.844.292 1.255 1.043 4.45-3.922-2.363-1.101-.664-1.101.665-3.912 2.36 1.038-4.45.292-1.254-.973-.843-3.457-2.992 4.549-.39 1.28-.108.501-1.184 1.786-4.208m-250.765 74.436c-1.985.57-3.785-.945-4.112-2.084-.326-1.139 1.296-2.337 2.527-2.69 1.23-.353 3.553-.62 3.967.827.485 1.694-.398 3.378-2.382 3.947m-3.57 4.465a.663.663 0 01-.943.018l-.723-.696-.722.696a.666.666 0 11-.924-.96l1.185-1.142a.667.667 0 01.924 0l1.185 1.142a.666.666 0 01.018.942m-6.902-4.394c-1.984-.57-2.866-2.255-2.381-3.947.415-1.447 2.737-1.18 3.968-.827 1.23.352 2.853 1.551 2.525 2.69-.326 1.137-2.125 2.653-4.112 2.084M368.238 130h-.474c-5.737 0-10.43 4.752-10.43 10.56v2.64c0 1.721.894 3.23 2.238 4.079 1.504.946 2.503 1.194 2.503 2.988v.676c0 1.049.616 2.001 1.572 2.432a10.624 10.624 0 008.71.005v-.001a2.664 2.664 0 001.574-2.452l-.004-.66c0-1.794.999-2.042 2.503-2.988a4.814 4.814 0 002.237-4.079v-2.64c0-5.808-4.692-10.56-10.43-10.56m66.43 21.648c.619 0 1.155.425 1.299 1.027a1.336 1.336 0 01-.703 1.5l-1.473.736a4.005 4.005 0 01-3.577.001l-1.475-.737a1.336 1.336 0 01-.703-1.5 1.336 1.336 0 011.299-1.027zm-2.665-22.981c.737 0 1.333.597 1.333 1.333v2.114c4.146.645 7.334 4.229 7.334 8.553v6h.665a1.333 1.333 0 110 2.667h-18.667a1.333 1.333 0 110-2.667h.668v-6c0-4.324 3.188-7.908 7.334-8.553V130c0-.736.596-1.333 1.333-1.333zm63.506 15.707a4.714 4.714 0 00-2.242-1.93l1.41-1.327c.242-.003 1.04.018 1.615.593.543.543.612 1.241.604 1.612l-1.261 1.327c-.047-.091-.072-.186-.126-.275m12.102-13.983a3.526 3.526 0 00-4.938-.072l-8.958 8.498c-.235.224-.362.52-.395.829l-2.59 2.44c-.74.08-1.477.3-2.162.708-1.873 1.116-2.47 2.883-2.948 4.3-.567 1.683-.965 2.66-2.541 3.175a1.331 1.331 0 00.278 2.593c1.235.127 2.36.207 3.408.207 2.35 0 4.302-.399 6.2-1.551 1.866-1.132 2.96-2.783 3.13-4.452l2.286-2.404a1.31 1.31 0 00.816-.385l8.49-8.955a3.525 3.525 0 00-.076-4.93m56.91 15.832a1.332 1.332 0 01-1.863.296l-3.832-2.782c-.024-.018-.033-.048-.056-.068-.11-.09-.197-.2-.274-.322-.027-.046-.064-.082-.087-.13a1.314 1.314 0 01-.132-.558v-5.334a1.333 1.333 0 112.667 0v4.654l3.281 2.382c.36.26.55.667.55 1.08 0 .272-.083.546-.254.782M560 130c-6.627 0-12 5.372-12 12 0 6.627 5.373 12 12 12 6.628 0 12-5.373 12-12 0-6.628-5.372-12-12-12m67.75 7.506l6.437.552c1.174.1 1.65 1.564.758 2.336l-4.89 4.232 1.474 6.297c.268 1.148-.976 2.053-1.986 1.444l-5.544-3.341-5.534 3.341c-1.01.61-2.256-.296-1.988-1.444l1.468-6.297-4.89-4.232c-.891-.772-.415-2.236.76-2.336l6.437-.552 2.521-5.946c.459-1.082 1.996-1.082 2.455 0l2.521 5.946z"/></g></svg>