<svg xmlns="http://www.w3.org/2000/svg" width="510" height="314"><g fill="#000000" fill-rule="evenodd"><rect width="510" height="314" fill="none" rx="4"/><path fill-opacity=".56" d="M112.631 75.094a6.64 6.64 0 016.632 6.63V83H124v-1.922a3.3 3.3 0 00-3.296-3.295v-.002l-.049.002a.523.523 0 01-.481-.271 8.586 8.586 0 00-.836-1.227.203.203 0 01.103-.326 4.93 4.93 0 011.263-.176h.004l.218.004a5.302 5.302 0 015.074 5.29V84a1 1 0 01-1 1h-6.737a1 1 0 01-1-1v-2.275a4.637 4.637 0 00-4.632-4.631 4.636 4.636 0 00-4.631 4.63V83h5.259v-.001h1.001a1.002 1.002 0 010 2.004h-1.001V85H107a1 1 0 01-1-1v-2.275a6.639 6.639 0 016.631-6.631zm8.05-7.312c1.654 0 3 1.346 3 3s-1.346 3-3 3-3-1.346-3-3 1.346-3 3-3zm-8.05-.692c1.654 0 3 1.346 3 3s-1.346 3-3 3-3-1.346-3-3 1.346-3 3-3zm8.05 2.692a1 1 0 100 2 1 1 0 000-2zm-8.05-.692a1 1 0 100 2.001 1 1 0 000-2zM72.04 70a4.067 4.067 0 00-4.061 4.061c-.001 4.876 6.186 9.138 8 10.284 1.815-1.146 8.002-5.408 8-10.284A4.064 4.064 0 0079.92 70a4.047 4.047 0 00-3.162 1.516c-.379.471-1.178.471-1.557 0A4.046 4.046 0 0072.04 70m3.939 16.515a.999.999 0 01-.493-.13c-.388-.22-9.508-5.474-9.507-12.325A6.068 6.068 0 0172.04 68c1.463 0 2.851.521 3.939 1.457A6.03 6.03 0 0179.92 68a6.067 6.067 0 016.059 6.06c.002 6.851-9.118 12.105-9.506 12.325a1 1 0 01-.494.13m81.574-3.174a1 1 0 01.895 1.79l-1.106.552a3.002 3.002 0 01-2.683 0l-1.106-.553a1 1 0 01.895-1.789l1.106.553c.279.14.613.14.893 0zM156 66a1 1 0 011 1v1.585c3.109.484 5.5 3.172 5.5 6.415v4.5H163a1 1 0 110 2h-14a1 1 0 110-2h.501V75c0-3.243 2.391-5.931 5.5-6.415V67a1 1 0 011-1zm0 4.5a4.505 4.505 0 00-4.5 4.5v4.5h9V75c0-2.481-2.019-4.5-4.5-4.5zm42.517-3.5c.664 0 1.286.33 1.658.881L201.607 70H204a3 3 0 013 3v9a3 3 0 01-3 3h-16a3 3 0 01-3-3v-9a3 3 0 013-3h2.393l1.431-2.119a2 2 0 011.658-.881zm.108 2h-5.005l-1.729 2.56c-.187.275-.497.44-.83.44H188a1 1 0 00-1 1v9a1 1 0 001 1h16a1 1 0 001-1v-9a1 1 0 00-1-1h-2.815c-.332 0-.644-.165-.83-.44L198.626 69zM196 72a5 5 0 110 10 5 5 0 010-10zm0 2c-1.654 0-3 1.346-3 3s1.346 3 3 3 3-1.346 3-3-1.346-3-3-3zm31.904 6.998v-1.539l.072.009a64.3 64.3 0 003.035.311l.06.002a.75.75 0 00.058-1.497 62.989 62.989 0 01-2.975-.306l-.25-.028v-.481c0-.338.043-.676.106-1.009a63.956 63.956 0 0015.98 0c.064.334.107.671.107 1.009v.481l-.267.029c-.98.125-1.976.227-2.962.305a.75.75 0 00.057 1.497c.02 0 .04 0 .06-.002 1.01-.079 2.03-.184 3.023-.31l.089-.01v1.538a81.66 81.66 0 01-16.193.001zm2.852-10.235c.235-.441.74-.727 1.286-.727h7.918c.546 0 1.05.286 1.287.728l2.008 3.765a62.037 62.037 0 01-14.51 0l2.01-3.766zm17.119 2.943a1.003 1.003 0 00-1.361-.387l-1.267.707c-.014-.026-.023-.053-.036-.079l-2.2-4.123c-.586-1.103-1.755-1.788-3.051-1.788h-7.918c-1.296 0-2.465.685-3.051 1.787l-2.201 4.125c-.014.025-.023.052-.035.077l-1.268-.706a1 1 0 00-.973 1.747l1.564.871a7.336 7.336 0 00-.174 1.532v4.437h.01c0 .092 0 .186.025.272v1.51h-.003v1.252a1.252 1.252 0 002.504 0v-1.252h-.001v-.629c2.51.227 5.033.347 7.557.347s5.049-.12 7.56-.347v.629h-.002v1.252a1.252 1.252 0 002.504 0v-1.252h-.001v-1.575a.944.944 0 00.019-.207h.02v-4.437c0-.514-.065-1.027-.172-1.532l1.563-.871c.482-.268.656-.878.388-1.36zM281 82.132l-4.446-2.964a1 1 0 00-1.11 0l-4.446 2.964V70c0-.551.448-1 1-1h8.002c.552 0 1 .449 1 1v12.132zm-1-15.132h-8.002c-1.654 0-3 1.346-3 3v14a1 1 0 001.555.832l5.446-3.63 5.446 3.63a.996.996 0 001.027.05 1 1 0 00.528-.882V70c0-1.654-1.346-3-3-3zm43.31 2.618l-5.15 5.433a3.347 3.347 0 00-1.221-1.211l5.437-5.147a.655.655 0 01.915.013.655.655 0 01.018.912M312.685 81.43c-1.002.607-2.063.846-3.374.871.381-.604.601-1.254.798-1.84.352-1.047.606-1.71 1.34-2.147.273-.163.568-.239.86-.264.454-.008 1.024.132 1.397.504.024.024.038.046.06.07.05.06.105.113.146.182.477.8-.04 1.903-1.227 2.624m3.532-5.647c.277.276.383.6.425.87l-1.03 1.086c-.04-.063-.103-.12-.15-.182a3.516 3.516 0 00-1.28-1.106l1.146-1.085c.262.038.608.135.89.417m8.488-8.49a2.644 2.644 0 00-3.702-.053l-9.408 8.904c-.4.091-.798.23-1.172.453-1.405.836-1.85 2.161-2.21 3.224-.425 1.262-.724 1.995-1.907 2.381a1 1 0 00.21 1.945c.926.095 1.77.155 2.556.155 1.761 0 3.225-.299 4.65-1.162 1.23-.747 2.001-1.795 2.261-2.888l2.37-2.498.03-.03 6.381-6.732a2.648 2.648 0 00-.059-3.699m35.773 14.104h-9c-1.93 0-3.5-1.57-3.5-3.5s1.57-3.5 3.5-3.5a1 1 0 001-1c0-1.93 1.57-3.5 3.5-3.5 1.627 0 2.987 1.122 3.377 2.629a5.454 5.454 0 00-2.036.868 1 1 0 001.15 1.637 3.474 3.474 0 012.01-.634c1.93 0 3.5 1.57 3.5 3.5s-1.57 3.5-3.5 3.5m.916-8.917c-.438-2.597-2.698-4.583-5.417-4.583a5.51 5.51 0 00-5.423 4.577 5.51 5.51 0 00-4.577 5.423c0 3.033 2.468 5.5 5.5 5.5h9c3.032 0 5.5-2.467 5.5-5.5 0-2.72-1.986-4.98-4.583-5.417M396 68.499c4.7 0 8.982 2.784 10.912 7.092.116.258.116.56 0 .819-1.93 4.308-6.212 7.09-10.912 7.09-4.7 0-8.981-2.782-10.912-7.09a1.015 1.015 0 010-.82c1.93-4.307 6.213-7.09 10.912-7.09zm0 2a9.972 9.972 0 00-8.763 5.255.525.525 0 000 .493A9.974 9.974 0 00396 81.5a9.975 9.975 0 008.764-5.253.525.525 0 000-.493A9.974 9.974 0 00396 70.5zM396 72c2.205 0 4 1.795 4 4s-1.795 4-4 4-4-1.795-4-4 1.795-4 4-4zm0 2c-1.103 0-2 .898-2 2 0 1.102.897 2 2 2s2-.898 2-2c0-1.102-.897-2-2-2zm45.38 10h-4.4v-7h5.2v6.2c0 .441-.36.8-.8.8zm-11.601-.8V77h5.2v7h-4.4a.802.802 0 01-.8-.8zm-1.8-9.9a.8.8 0 01.8-.8H434.98V75h-6.5a.5.5 0 01-.5-.5v-1.2zm2.708-3.918a1.245 1.245 0 01.315-.97c.24-.266.57-.412.928-.412 1.425 0 2.263 1.42 2.693 2.5h-2.565c-.706 0-1.31-.491-1.371-1.118zM440.029 68c.359 0 .688.146.928.412.24.265.353.61.317.969-.064.628-.666 1.119-1.373 1.119h-2.565c.432-1.08 1.27-2.5 2.693-2.5zm3.95 5.3v1.2a.5.5 0 01-.5.5h-6.5v-2.5H443.18a.8.8 0 01.8.8zm-.8-2.8h-.172c.127-.29.224-.594.257-.918a3.263 3.263 0 00-.823-2.512 3.26 3.26 0 00-2.412-1.07c-2.035 0-3.296 1.369-4.05 2.717-.752-1.348-2.013-2.717-4.05-2.717a3.254 3.254 0 00-3.233 3.582c.033.324.129.628.257.918h-.174a2.8 2.8 0 00-2.8 2.8v1.8c0 1.015.798 1.837 1.8 1.89v6.21c0 1.544 1.257 2.8 2.8 2.8h10.8c1.545 0 2.8-1.256 2.8-2.8v-6.21a1.895 1.895 0 001.8-1.89v-1.8a2.8 2.8 0 00-2.8-2.8zM76.179 226.015c4.864 0 8.822 4.002 8.822 8.92v1.98a4.586 4.586 0 01-2.146 3.904c-.188.119-.367.224-.534.322-.814.479-.876.528-.876 1.074l.004.487a3 3 0 01-1.772 2.76 8.972 8.972 0 01-7.352-.004 3.006 3.006 0 01-1.768-2.736v-.604c-.01-.457-.113-.528-.876-.977-.167-.098-.346-.203-.534-.322A4.586 4.586 0 0167 236.915v-1.98c0-4.918 3.958-8.92 8.822-8.92zm0 2h-.356c-3.761 0-6.822 3.105-6.822 6.92v1.98c0 .907.453 1.734 1.212 2.212.17.107.331.202.481.29.873.513 1.863 1.095 1.863 2.798v.507a1 1 0 00.59.912 6.975 6.975 0 005.711.003.998.998 0 00.591-.92l-.004-.494c0-1.711.99-2.293 1.863-2.806.15-.088.311-.183.481-.29A2.596 2.596 0 0083 236.915v-1.98c0-3.815-3.061-6.92-6.822-6.92zm-.872 11.352a1 1 0 011.387 0l.89.855a1 1 0 11-1.388 1.44l-.195-.187-.196.188a1 1 0 11-1.386-1.441zm-5.165-4.4c.33-1.153 2.178-.94 3.157-.66.98.281 2.27 1.234 2.01 2.14-.26.906-1.692 2.112-3.271 1.66-1.581-.453-2.283-1.795-1.896-3.14zm8.561-.713c.98-.281 2.827-.493 3.157.659.387 1.346-.315 2.688-1.895 3.14-1.579.453-3.012-.753-3.272-1.66-.26-.905 1.031-1.858 2.01-2.14zm-.225-116.824L76 118.86l-2.476-1.43v-2.86L76 113.14l2.477 1.43v2.86zm6.112.28l-2.477.663-1.635-.943v-2.86l1.635-.943 2.477.664a1 1 0 00.518-1.932l-1.912-.512.51-1.913a.998.998 0 10-1.93-.517l-.663 2.478-1.635.943-2.477-1.43v-1.887l1.815-1.814a.999.999 0 10-1.414-1.414l-1.401 1.4-1.4-1.4a1 1 0 00-1.414 1.414L75 109.52v1.888l-2.476 1.429-1.635-.943-.663-2.478a1 1 0 10-1.932.517l.512 1.913-1.912.512a1 1 0 00.518 1.932l2.477-.664 1.635.944v2.859l-1.635.943-2.477-.663a.999.999 0 10-.518 1.931l1.912.513-.512 1.912a1.001 1.001 0 001.932.518l.663-2.478 1.635-.944 2.476 1.43v1.887l-1.814 1.814a.999.999 0 101.414 1.414l1.4-1.4 1.4 1.4a.993.993 0 00.708.293.999.999 0 00.707-1.707L77 122.479v-1.887l2.477-1.43 1.635.944.663 2.478a.998.998 0 101.93-.518l-.51-1.912 1.912-.513a1 1 0 10-.518-1.931zm38.41-7.71a.5.5 0 01.5.5v.5a1 1 0 01-1 1h-.65l-.632 10.047c-.103 1.658-1.42 2.957-2.993 2.957h-4.453c-1.573 0-2.89-1.299-2.994-2.956L110.144 112h-.65a1 1 0 01-1-1v-.5a.5.5 0 01.5-.5zm-3.153 2h-7.698l.625 9.922c.038.606.476 1.082.998 1.082h4.453c.52 0 .959-.476.997-1.082l.625-9.922zm-1.849-5a1 1 0 011 1v.5a.5.5 0 01-.5.5h-5a.5.5 0 01-.5-.5v-.5a1 1 0 011-1zm86.378 15.176a1.253 1.253 0 11-.001 2.505 1.253 1.253 0 01.001-2.505zm-5.594-15.433c.767 0 1.536.293 2.12.878l4.165 4.164a2 2 0 010 2.829l-7.816 7.815h2.93a1 1 0 110 2h-7.001a4.984 4.984 0 01-3.535-1.464l-2.042-2.043a3 3 0 010-4.243l9.057-9.058a2.995 2.995 0 012.122-.878zm-5.961 7.546l-3.804 3.805a.999.999 0 000 1.414l2.042 2.043c.566.566 1.32.878 2.12.878.803 0 1.556-.312 2.123-.878l2.39-2.391-4.871-4.871zm5.96-5.546a.993.993 0 00-.706.293l-3.84 3.839 4.87 4.87 4.548-4.545-4.164-4.164a.995.995 0 00-.707-.293zM162 114.036a1 1 0 011 1c0 3.52-2.613 6.432-6 6.92V124a1 1 0 11-2 0v-2.044c-3.387-.488-6-3.4-6-6.92a1 1 0 112 0c0 2.757 2.243 5 5 5s5-2.243 5-5a1 1 0 011-1zm-5.988-8.001c1.654 0 3 1.346 3 3v6c0 1.654-1.346 3-3 3s-3-1.346-3-3v-6c0-1.654 1.346-3 3-3zm0 2c-.552 0-1 .449-1 1v6a1.001 1.001 0 002 0v-6c0-.551-.448-1-1-1zM242.942 122h-13.885a1.059 1.059 0 01-1.057-1.058v-9.652l7.32 6.778a1 1 0 001.36 0l7.32-6.778v9.652a1.06 1.06 0 01-1.058 1.058zm-.494-12L236 115.971 229.551 110h12.897zm.494-2h-13.885a3.061 3.061 0 00-3.057 3.058v9.884a3.061 3.061 0 003.057 3.058h13.885a3.062 3.062 0 003.058-3.058v-9.884a3.062 3.062 0 00-3.058-3.058zM283 122c0 .551-.448 1-1 1h-1v-4h2v3zm-11.999 1H270c-.552 0-1-.449-1-1v-3h2l.001 4zM276 107c-4.963 0-9 4.038-9 9v6c0 1.654 1.346 3 3 3h1c1.103 0 2-.897 2-2v-4c0-1.103-.897-2-2-2h-2v-1c0-3.86 3.141-7 7-7s7 3.14 7 7v1h-2c-1.103 0-2 .897-2 2v4c0 1.103.897 2 2 2h1c1.654 0 3-1.346 3-3v-6c0-4.962-4.037-9-9-9zm37.174 10l.666-8h4.32l.666 8h-5.652zm8.826 0h-1.167l-.666-8h.333a1 1 0 100-2h-9a1 1 0 100 2h.333l-.666 8H310a1 1 0 100 2h5v5a1 1 0 102 0v-5h5a1 1 0 100-2zm27.058 2.972A8.017 8.017 0 00356 124c4.412 0 8-3.589 8-8a8.015 8.015 0 00-4.028-6.943A8.47 8.47 0 01360.5 112c0 4.687-3.813 8.5-8.5 8.5a8.488 8.488 0 01-2.942-.528M356 126c-4.77 0-8.896-3.396-9.81-8.074a1 1 0 011.626-.956A6.503 6.503 0 00352 118.5c3.584 0 6.5-2.916 6.5-6.5a6.508 6.508 0 00-1.53-4.185 1.002 1.002 0 01-.098-1.15.996.996 0 011.054-.476c4.679.914 8.074 5.04 8.074 9.811 0 5.514-4.486 10-10 10m38.973-19.935c4.868-.61 9.027 3.186 9.027 7.935 0 6.219-6.634 11.24-7.364 11.774l-.055.04a.999.999 0 01-1.162 0c-.323-.231-8.36-6.056-7.327-13.07.512-3.481 3.39-6.242 6.881-6.68zM402 114a6.008 6.008 0 00-6.753-5.954c-2.585.316-4.745 2.335-5.163 4.905-.743 4.574 3.636 8.856 5.592 10.513.188.16.46.16.648 0 1.805-1.53 5.676-5.296 5.676-9.464zm-6-4c2.206 0 4 1.794 4 4s-1.794 4-4 4-4-1.794-4-4 1.794-4 4-4zm0 2c-1.103 0-2 .897-2 2s.897 2 2 2 2-.897 2-2-.897-2-2-2zm46-5c1.654 0 3 1.346 3 3v12c0 1.654-1.346 3-3 3h-12c-1.654 0-3-1.346-3-3v-12c0-1.654 1.346-3 3-3zm0 2h-12c-.552 0-1 .449-1 1v12c0 .551.448 1 1 1h12c.552 0 1-.449 1-1v-12c0-.551-.448-1-1-1zm-4.262 7.378a.5.5 0 01.795.006l2.866 3.816a.5.5 0 01-.4.8h-9.978a.5.5 0 01-.394-.806l1.99-2.561a.5.5 0 01.78-.012l1.345 1.628a.5.5 0 00.78-.012zM433.5 112a1.5 1.5 0 110 3 1.5 1.5 0 010-3zM117.517 242.1l-1.852-3.117a1 1 0 01.054-1.103l2.479-3.372a.5.5 0 00-.707-.707l-3.412 2.464a.998.998 0 01-1.095.05l-3.084-1.832 11.366-3.748-3.75 11.365zm6.027-13.643a1.003 1.003 0 00-1.02-.242l-15.337 5.056a1 1 0 00-.197 1.81l6.229 3.7 3.7 6.23a1 1 0 001.809-.199l5.059-15.334a.998.998 0 00-.243-1.02zm-41.347-66.12a1.5 1.5 0 11.002 2.998 1.5 1.5 0 01-.002-2.999zm-7.358-.005a1.5 1.5 0 110 3 1.5 1.5 0 010-3zm-5.677-15.668c.933 0 1.74.644 1.949 1.553l.488 2.12h12.416c.612 0 1.182.275 1.564.753.38.479.522 1.096.385 1.694l-.511 2.224a3 3 0 01-2.925 2.329h-9.323l.28.89c.105.455.509.777.976.777h9.236a1 1 0 110 2H74.46a3.001 3.001 0 01-2.925-2.33l-2.285-9.622a.5.5 0 00-.487-.388H66.98a1 1 0 110-2zm14.225 5.673h-11.33l.689 3h9.783a1 1 0 00.975-.776l.37-1.612a.5.5 0 00-.487-.612zM110.306 159l2.961-11h5.466l2.961 11h-11.388zm13.659.74l-3.5-13a1 1 0 00-.966-.74H112.5a1 1 0 00-.965.74l-3.501 13A1 1 0 00109 161h6v3h-3.002a1 1 0 000 2H120a1 1 0 100-2H117v-3h6a1 1 0 00.965-1.26zM161 157.5a.5.5 0 01-.5.5h-5.748l-.005.001H151.5a.5.5 0 01-.5-.5V155h10v2.5zm-4.29 6.864a.652.652 0 01-.656.636c-.358 0-.646-.28-.658-.54l.292-4.46h.748l.274 4.364zM152 147h1v2a1 1 0 102 0v-1.25a.75.75 0 011.5 0V150a1 1 0 102 0v-2.25a.75.75 0 01.75-.75h.75v6h-8v-6zm10 6v-7a1 1 0 00-1-1h-10a1 1 0 00-1 1v7a1 1 0 00-1 1v4a2 2 0 002 2h2.685l-.287 4.426a2.645 2.645 0 002.656 2.574c1.446 0 2.613-1.132 2.654-2.669l-.27-4.331H161a2 2 0 002-2v-4a1 1 0 00-1-1zm38.5 10.273h-9c-.552 0-1-.45-1-1v-12.546c0-.551.448-1 1-1h4v4c0 1.103.897 2 2 2h4v7.546c0 .55-.448 1-1 1zm.582-10.546H197.5v-3.583l3.582 3.583zm1.824-1.005l-4.402-4.402a2.018 2.018 0 00-1.422-.593H191.5c-1.654 0-3 1.346-3 3v12.546c0 1.654 1.346 3 3 3h9c1.654 0 3-1.346 3-3v-9.128c0-.53-.216-1.048-.594-1.423zM236 146c5.514 0 10 4.486 10 10s-4.486 10-10 10-10-4.486-10-10 4.486-10 10-10zm0 2a8 8 0 100 16 8 8 0 000-16zm-.293 3.494a1 1 0 011 1v3.49l2.461 1.787a.999.999 0 11-1.176 1.618l-2.873-2.086c-.018-.014-.025-.036-.043-.05a1.022 1.022 0 01-.205-.243c-.02-.034-.049-.06-.065-.097a.986.986 0 01-.099-.419v-4a1 1 0 011-1zM284 147a1 1 0 011 1v14.344a3.7 3.7 0 01-1.319 2.86 3.41 3.41 0 01-1.906.77c-.043.006-.082.026-.127.026h-11.92c-2.056 0-3.728-1.57-3.728-3.5V161a1 1 0 011-1h3v-12a1 1 0 011-1zm-6 15h-10v.5c0 .827.775 1.5 1.728 1.5h8.632c-.059-.122-.088-.248-.132-.372l-.02-.056a3.544 3.544 0 01-.148-.58c-.005-.025-.006-.052-.01-.078-.019-.14-.05-.282-.05-.413V162zm5-13h-11v11h7a1 1 0 011 1v1.318c0 .609.296 1.158.737 1.452l.015.01c.109.07.235.109.361.147.139.037.292.06.465.066.298-.018.583-.127.822-.326.381-.317.6-.8.6-1.323V149zm-5.47 6a1 1 0 110 2h-3.035a1 1 0 110-2zm2.975-4.004a1 1 0 010 2h-6.01a1 1 0 110-2zM316.062 145c2.206 0 4 1.794 4 4v7.282a5.938 5.938 0 011.937 4.387c0 3.309-2.69 6-5.999 6-3.309 0-6-2.691-6-6 0-1.723.762-3.373 2.062-4.508V149c0-2.206 1.794-4 4-4zm0 2c-1.103 0-2 .897-2 2v7.641a.998.998 0 01-.41.807 3.957 3.957 0 00-1.652 3.221c0 2.206 1.793 4 4 4 2.206 0 4-1.794 4-4 0-1.222-.567-2.365-1.554-3.137a1 1 0 01-.384-.788V149c0-1.103-.897-2-2-2zm.188 4.703a.5.5 0 01.5.5v5.488c0 .361.2.684.511.866a2.48 2.48 0 011.239 2.146c0 1.6-1.503 2.85-3.175 2.412a2.47 2.47 0 01-1.739-1.748 2.488 2.488 0 011.148-2.808c.314-.183.516-.506.516-.868v-5.488a.5.5 0 01.5-.5zm41.751-.704l3 .001a5.005 5.005 0 014.999 5c0 2.757-2.243 5-5 5l-3.001-.001a1.001 1.001 0 01.001-2h.001l3 .001a3.003 3.003 0 002.999-3c0-1.654-1.346-3-3-3l-3.001-.001a1.001 1.001 0 01.001-2h.001zm-4.001 0a1 1 0 110 2h-3c-1.654 0-3 1.347-3 3 0 1.656 1.346 3 3 3h2.999a1 1 0 11.002 2h-3a5.006 5.006 0 01-5.001-5c0-2.755 2.243-5 5-5zm5 4.001a1 1 0 110 2h-6a1 1 0 110-2zm37.63-1.987a3.006 3.006 0 00-3.531 3.532 2.993 2.993 0 002.355 2.356 3.005 3.005 0 003.53-3.532 2.993 2.993 0 00-2.354-2.356zm.77 7.764a5.018 5.018 0 01-6.178-6.178 4.902 4.902 0 013.463-3.462 5.017 5.017 0 016.177 6.178 4.902 4.902 0 01-3.462 3.462zm-4.254-13.003a.501.501 0 00-.656-.14l-1.98 1.142a.497.497 0 00-.204.638l.25.557c.365.807.418 1.742.053 2.548a2.98 2.98 0 01-2.445 1.768l-.654.066a.566.566 0 00-.51.563v2.225c0 .257.194.472.45.497l.604.061c.88.088 1.719.508 2.235 1.227.647.9.757 2.015.31 3.003l-.27.6a.567.567 0 00.235.722l1.926 1.113a.502.502 0 00.657-.142l.418-.582a2.999 2.999 0 014.87-.001l.42.584a.5.5 0 00.655.141l1.98-1.143a.5.5 0 00.205-.639l-.262-.582c-.337-.745-.405-1.6-.108-2.363.428-1.098 1.378-1.813 2.51-1.927l.655-.065a.567.567 0 00.51-.564v-2.225a.498.498 0 00-.45-.497l-.604-.06c-.88-.088-1.718-.509-2.236-1.228a2.98 2.98 0 01-.31-3.002l.27-.6a.567.567 0 00-.232-.724l-1.927-1.112a.5.5 0 00-.655.141l-.423.587a3 3 0 01-2.432 1.245H396a2.997 2.997 0 01-2.435-1.249l-.42-.583zm-.262 18.82c-.341 0-.687-.089-1.002-.272l-2.763-1.595a2 2 0 01-.823-2.552l.467-1.038c.118-.26.138-.564.026-.827a.995.995 0 00-.824-.61l-1.164-.116a1.999 1.999 0 01-1.801-1.989v-3.19a2 2 0 011.802-1.992l1.137-.113c.257-.026.506-.137.675-.333a.995.995 0 00.163-1.076l-.481-1.067a2 2 0 01.823-2.555l2.763-1.594a1.999 1.999 0 012.623.564l.685.951a.997.997 0 00.81.416c.32 0 .623-.155.81-.415l.685-.95a2 2 0 012.625-.565l2.76 1.593a1.999 1.999 0 01.824 2.556l-.463 1.024a1.052 1.052 0 00-.031.832.99.99 0 00.825.616l1.163.116a2 2 0 011.802 1.991v3.19a2 2 0 01-1.802 1.99l-1.102.11c-.332.033-.65.201-.82.488a.994.994 0 00-.052.925l.48 1.065a2 2 0 01-.823 2.555l-2.761 1.595c-.89.514-2.025.27-2.626-.565l-.682-.95a1 1 0 00-1.624.001l-.683.95a1.993 1.993 0 01-1.621.835zm51.131-22.54a1 1 0 011.325.946v20a1 1 0 01-1 1H426.4a1 1 0 01-1-1v-6.095A1.005 1.005 0 01425 159a1 1 0 01-.583-1.813l1.398-1h.001l5.592-4a1 1 0 011.164 0l2.011 1.437V148c0-.428.271-.808.676-.946zm-12.024 10.175l-4.592 3.285V164h9.185v-6.486l-4.593-3.285zm11.35-7.83l-6.757 2.315v6.341l1.582 1.131.002.002 1.396 1a1 1 0 01-.583 1.812 1 1 0 01-.397-.095V164h4.756v-17.6zm-9.082 12.976a1 1 0 110 2h-4.49a1 1 0 110-2zm-283.303 69.592c-.13 0-.289.148-.326.186l-.869.868a2.623 2.623 0 00-.583 2.804 17.557 17.557 0 009.96 9.983 2.62 2.62 0 002.808-.58l.878-.879c.113-.113.184-.234.188-.325.002-.03-.002-.063-.043-.104l-2.304-2.305a.2.2 0 00-.283 0l-1.395 1.395a1.405 1.405 0 01-1.716.214 16.115 16.115 0 01-5.52-5.514 1.406 1.406 0 01.21-1.713l1.402-1.402a.201.201 0 000-.283l-2.306-2.304a.134.134 0 00-.1-.04zm9.143 16.022a4.634 4.634 0 01-1.687-.318 19.559 19.559 0 01-11.099-11.122 4.623 4.623 0 011.034-4.942l.87-.868c.967-.968 2.367-1.032 3.254-.146l2.306 2.306c.856.858.856 2.253.001 3.111l-1.067 1.066a14.105 14.105 0 004.194 4.187l1.062-1.062c.831-.83 2.282-.83 3.112 0l2.304 2.305c.438.437.66 1.015.626 1.628-.032.594-.299 1.157-.77 1.63l-.879.877a4.61 4.61 0 01-3.26 1.348zM82 187c1.654 0 3 1.346 3 3v12c0 1.654-1.346 3-3 3H70c-1.654 0-3-1.346-3-3v-7a1 1 0 112 0v7c0 .551.448 1 1 1h12c.552 0 1-.449 1-1v-12c0-.551-.448-1-1-1h-7a1 1 0 110-2zm-4.262 9.378a.5.5 0 01.795.006L81.4 200.2a.5.5 0 01-.4.8h-9.978a.5.5 0 01-.394-.806l1.99-2.561a.5.5 0 01.78-.012l1.345 1.628a.5.5 0 00.78-.012zM73.5 192a1.5 1.5 0 110 3 1.5 1.5 0 010-3zm-5.5-8a1 1 0 011 1v2h2a1 1 0 110 2h-2v2a1 1 0 11-2 0v-2h-2a1 1 0 110-2h2v-2a1 1 0 011-1zm53.6 16.186l-9.786-9.787A6.956 6.956 0 01116 189a7 7 0 017 7 6.956 6.956 0 01-1.4 4.186M109 196c0-1.572.525-3.018 1.4-4.186l9.787 9.787A6.957 6.957 0 01116 203a7 7 0 01-7-7m7-9c-4.962 0-9 4.037-9 9 0 4.962 4.038 9 9 9 4.963 0 9-4.038 9-9 0-4.963-4.037-9-9-9m46 0c1.654 0 3 1.346 3 3v12c0 1.654-1.346 3-3 3h-12c-1.654 0-3-1.346-3-3v-12c0-1.654 1.346-3 3-3zm0 2h-12c-.552 0-1 .449-1 1v12c0 .551.448 1 1 1h12c.552 0 1-.449 1-1v-12c0-.551-.448-1-1-1zm-2 1.96a1 1 0 011 1v8a1 1 0 11-2 0v-8a1 1 0 011-1zm-4 6a1 1 0 011 1v2a1 1 0 11-2 0v-2a1 1 0 011-1zm-4-2a1 1 0 011 1v4a1 1 0 11-2 0v-4a1 1 0 011-1zm4-1.96a1 1 0 110 2 1 1 0 010-2zm32.624-.635a.5.5 0 01.712 0l2.757 2.798a.5.5 0 01-.357.85h-1.756v.021c0 .903.2 1.775.595 2.595 1.362 2.831 4.712 4.137 7.626 2.973a1 1 0 01.742 1.857c-3.887 1.553-8.353-.187-10.17-3.963a8.045 8.045 0 01-.793-3.483h-1.756a.5.5 0 01-.356-.85zm4.433-3.79c3.887-1.553 8.354.187 10.17 3.963a7.93 7.93 0 01.793 3.462v.02h1.756a.5.5 0 01.356.85l-2.756 2.799a.501.501 0 01-.712 0l-2.756-2.798a.5.5 0 01.356-.851h1.756V196c0-.903-.2-1.775-.595-2.595-1.362-2.831-4.712-4.137-7.626-2.973a1 1 0 11-.742-1.857zm48.918 2.913a1 1 0 01.959 1.284l-1.008 3.398a.996.996 0 01-1.243.673 1 1 0 01-.675-1.243l.627-2.112h-1.576l-1.053 3.518 7.118 4.378a1 1 0 11-1.047 1.704l-3.706-2.28-.093.294a1.994 1.994 0 01-1.908 1.398h-3.4l-1.419 4.313a1.002 1.002 0 01-1.263.637 1 1 0 01-.638-1.262l1.419-4.313a1.997 1.997 0 011.901-1.375h3.4l.244-.772-2.31-1.42-.01-.01a.954.954 0 01-.259-.242.443.443 0 01-.028-.033.964.964 0 01-.127-.281c-.009-.028-.021-.054-.027-.084a.99.99 0 01-.009-.244c.002-.055.003-.108.014-.163.005-.023-.001-.046.006-.07l1.279-4.267a1.987 1.987 0 011.916-1.426zm-10.577-6.988c2.757 0 5 2.243 5 5s-2.243 5-5 5-5-2.243-5-5 2.243-5 5-5zm0 2c-1.654 0-3 1.346-3 3s1.346 3 3 3 3-1.346 3-3-1.346-3-3-3zm9.703-2c1.654 0 3 1.346 3 3s-1.346 3-3 3-3-1.346-3-3 1.346-3 3-3zm0 2a1.001 1.001 0 000 2 1.001 1.001 0 000-2zm40.885 11a.5.5 0 01-.5.5h-2.457a.5.5 0 01-.49-.402l-.24-1.196a.498.498 0 00-.49-.402h-6.83v-5.5a.5.5 0 01.5-.5h4.863l.321 1.599a.5.5 0 00.49.401h4.333a.5.5 0 01.5.5v5zm0-7.5h-3.604l-.158-.791A1.503 1.503 0 00276.75 188h-5.77a2 2 0 00-2 2v14a1 1 0 102 0v-6h5.6l.158.794A1.5 1.5 0 00278.21 200h3.777a2 2 0 002-2v-6a2 2 0 00-2-2zM316 186c5.514 0 10 4.486 10 10s-4.486 10-10 10-10-4.486-10-10 4.486-10 10-10zm0 2a8 8 0 100 16 8 8 0 000-16zm3.423 3.34a.891.891 0 011.253 1.251l-2.69 3.111a1.994 1.994 0 01-3.385 1.711 2 2 0 010-2.827 1.99 1.99 0 011.71-.557zm-9.172 3.735a1 1 0 11.74 1.857 1 1 0 01-.74-1.857zm10.759-.008a1 1 0 11.739 1.859 1 1 0 01-.74-1.86zm-9.734-3.264a.998.998 0 111.835.792.999.999 0 11-1.835-.792zm4.351-2.111a1 1 0 11.74 1.86 1 1 0 01-.74-1.86zm42.413.443l3.75 3.75-9.955 9.955a.498.498 0 01-.251.135l-3.104.654a1 1 0 01-1.184-1.184l.653-3.105a.5.5 0 01.136-.25l9.955-9.955zm0 2.828l-8.226 8.226-.246 1.167 1.168-.246 8.225-8.225-.921-.922zm3.629-5.629c.512 0 1.023.195 1.414.586l.922.922a2 2 0 010 2.828l-1.215 1.215-3.751-3.75 1.216-1.215a1.992 1.992 0 011.414-.586zM390 185a1 1 0 011 1v14c0 .551.448 1 1 1h14a1 1 0 110 2h-3v3a1 1 0 11-2 0v-3h-9c-1.654 0-3-1.346-3-3v-9h-3a1 1 0 110-2h3v-3a1 1 0 011-1zm10 4c1.654 0 3 1.346 3 3v7h-2v-7c0-.551-.448-1-1-1h-7v-2zm36-3.1l7.764 3.575a1.998 1.998 0 011.163 1.816v3.855c.055.828.308 8.378-8.569 11.787l-.358.137-.358-.137c-7.826-3.005-8.556-9.229-8.581-11.228v-.242c.002-.144.008-.251.012-.317v-3.855a2 2 0 011.163-1.817L436 185.9zm0 2.201l-6.637 3.056a.503.503 0 00-.291.453l-.005 3.68c-.026.266-.567 6.553 6.933 9.633 7.552-3.105 6.939-9.567 6.933-9.633l-.006-.109v-3.57a.5.5 0 00-.291-.454L436 188.101zm2.94 5.012a.999.999 0 111.413 1.414l-4.656 4.656a.995.995 0 01-.707.293.993.993 0 01-.707-.293l-2.344-2.343a.999.999 0 111.414-1.414l1.637 1.636zM199.998 225a3.002 3.002 0 013.001 3.001V244a3 3 0 01-3 3h-8a3 3 0 01-3-3v-16a3 3 0 013-3h7.999zm0 2H192a1 1 0 00-1 1v16a1 1 0 001 1h7.999a1 1 0 001.001-1.001v-15.998a1 1 0 00-1.001-1.001zM196 240.5a1.5 1.5 0 110 3 1.5 1.5 0 010-3zm39.618-5.743a1.001 1.001 0 011.09.217l2.999 3a.999.999 0 11-1.414 1.413L237 238.094v5.156a1 1 0 11-2 0v-5.156l-1.293 1.293a.997.997 0 01-1.414 0 .999.999 0 010-1.414l2.999-2.999a1 1 0 01.326-.217zm.382-7.007a5.509 5.509 0 015.423 4.577A5.51 5.51 0 01246 237.75c0 3.033-2.468 5.5-5.5 5.5h-.5a1 1 0 110-2h.5c1.93 0 3.5-1.57 3.5-3.5s-1.57-3.5-3.5-3.5a1 1 0 01-1-1c0-1.93-1.57-3.5-3.5-3.5s-3.5 1.57-3.5 3.5a1 1 0 01-1 1c-1.93 0-3.5 1.57-3.5 3.5s1.57 3.5 3.5 3.5h.5a1 1 0 110 2h-.5a5.506 5.506 0 01-5.5-5.5 5.51 5.51 0 014.577-5.423A5.51 5.51 0 01236 227.75zm38.118 1.22a5.124 5.124 0 00-5.118 5.117 4.87 4.87 0 004.865 4.866h.681a1 1 0 011 1v2.136l.586-.386c1.184-.78 2.37-1.562 3.547-2.358 2.265-1.53 3.321-3.202 3.321-5.258a5.124 5.124 0 00-5.118-5.118h-3.764zm.428 15.98a1.001 1.001 0 01-1-1v-3.004c-3.638-.168-6.546-3.18-6.546-6.859a7.126 7.126 0 017.118-7.118h3.764c3.924 0 7.118 3.193 7.118 7.118 0 2.742-1.374 5.005-4.202 6.916-1.183.8-2.374 1.584-3.566 2.37-.712.47-1.423.937-2.133 1.41a.999.999 0 01-.553.166zM323 226c1.654 0 3 1.346 3 3v8c0 1.654-1.346 3-3 3h-3v3c0 1.654-1.346 3-3 3h-8c-1.654 0-3-1.346-3-3v-8c0-1.654 1.346-3 3-3h3v-3c0-1.654 1.346-3 3-3zm-6 8h-8c-.552 0-1 .449-1 1v8c0 .551.448 1 1 1h8c.552 0 1-.449 1-1v-8c0-.551-.448-1-1-1zm-6 5.75a1.25 1.25 0 110 2.5 1.25 1.25 0 010-2.5zm4-4a1.25 1.25 0 110 2.5 1.25 1.25 0 010-2.5zm8-7.75h-8c-.552 0-1 .449-1 1v3h3c1.654 0 3 1.346 3 3v3h3c.552 0 1-.449 1-1v-8c0-.551-.448-1-1-1zm-2 1.75a1.25 1.25 0 110 2.5 1.25 1.25 0 010-2.5zM352 240v-1h8l.001.005V240H352zm1-6.014l.256-6.102c.053-1.056.799-1.884 1.698-1.884h2.092c.899 0 1.645.828 1.698 1.875l.246 6.125h-5.993a.026.026 0 00.003-.014zm12-.986h-1a1 1 0 00-1 1v3c0 .551-.448 1-1 1a1 1 0 00-1-1h-4v-1h2.1c.507 0 .984-.208 1.342-.584.381-.4.583-.955.556-1.514l-.256-6.119c-.107-2.121-1.73-3.783-3.696-3.783h-2.092c-1.966 0-3.589 1.662-3.696 3.792l-.256 6.103a2.068 2.068 0 00.556 1.521c.358.376.835.584 1.342.584h2.1v1h-4a1 1 0 00-1 1c-.552 0-1-.449-1-1v-3a1 1 0 00-1-1h-1a1 1 0 100 2v2c0 1.654 1.346 3 3 3 0 1.103.897 2 2 2h3v2h-1c-1.654 0-3 1.346-3 3a1 1 0 102 0c0-.551.448-1 1-1h4c.552 0 1 .449 1 1a1 1 0 102 0c0-1.654-1.346-3-3-3h-1v-2h3c1.103 0 2-.897 2-2 1.654 0 3-1.346 3-3v-2a1 1 0 100-2zm37-6h-12a2 2 0 00-2 2v1.001c0 .441.146.871.416 1.22l4.167 5.4c.271.35.417.779.417 1.222v6.075c0 .614.238 1.224.712 1.615.384.316.84.467 1.288.467.521 0 1.031-.203 1.414-.586l2-2A2 2 0 00399 242v-4.157c0-.443.146-.872.417-1.222l4.166-5.399c.271-.35.417-.78.417-1.222v-1a2 2 0 00-2-2m0 2v.889a.325.325 0 01-.067.199l-4.516 5.85c-.271.351-.417.78-.417 1.223v4.704a.32.32 0 01-.096.23L395 244v-6.839c0-.443-.146-.872-.417-1.223l-4.447-5.762a.652.652 0 01-.136-.398V229h12m40.496 2.785h.003v-1.001a1.001 1.001 0 10-2.003 0v1l.001 8.105a4.257 4.257 0 01-4.247 4.083 4.255 4.255 0 01-4.25-4.25v-9.248c0-1.348 1.121-2.445 2.5-2.445 1.325 0 2.413 1.014 2.494 2.29v9.39a.759.759 0 01-.748.768.76.76 0 01-.749-.768v-7.924h.001v-1.001a1.001 1.001 0 10-2.003 0v1h.002v7.925c0 1.526 1.233 2.768 2.75 2.768 1.515 0 2.747-1.242 2.747-2.768l.005-9.235c0-2.451-2.019-4.445-4.5-4.445-2.48 0-4.499 1.994-4.499 4.445v9.248a6.257 6.257 0 006.25 6.25 6.257 6.257 0 006.25-6.25l-.004-7.937z"/></g></svg>