<svg width="860" height="342" xmlns="http://www.w3.org/2000/svg"><g fill="#000000" fill-rule="evenodd"><rect width="860" height="342" rx="4" fill="none"/><path fill-opacity=".12" d="M430 90h1v40h-1z"/><path d="M352.282 98c.211 0 .388-.014.53-.043.86-.158 1.47-.558 1.832-1.199.085-.154.159-.324.222-.511s.101-.354.116-.502a3.123 3.123 0 00-.015-.813 3.644 3.644 0 00-.22-.791 5.116 5.116 0 00-.462-.886 7.535 7.535 0 00-.761-.977 9.489 9.489 0 00-.7-.7 39.17 39.17 0 00-.652-.572l4.359-1.832-.469-1.108-5.003 2.143-.14 1.248a15.432 15.432 0 011.85 1.768c.26.294.478.57.654.828.177.257.287.47.332.636.057.219.085.424.085.614a1.496 1.496 0 01-.243.828c-.114.17-.27.302-.469.393a2.705 2.705 0 01-.657.2c-.24.043-.491.068-.755.074-.264.006-.517.009-.761.009h-.76V98h2.087zm-1.844 0v-1.193h-.122c-.256 0-.476-.026-.66-.08a.95.95 0 01-.417-.218.507.507 0 01-.162-.314 3.288 3.288 0 01-.021-.386v-3.056a42.483 42.483 0 00-.125-3.208 9.022 9.022 0 00-.094-.76l-1.193.218c.036.191.068.436.094.734.026.298.049.624.067.977.018.353.031.718.04 1.096.008.377.012.74.012 1.09.004.356.006.695.006 1.016v.236c-.001.23-.003.44-.006.628a184.945 184.945 0 00-.012.837v.07c0 .097.002.214.006.35a2.35 2.35 0 00.216.886c.07.154.173.298.307.432.22.219.486.381.8.487.315.105.696.158 1.142.158h.122zm-8.674 4.358c.34-.166.676-.354 1.007-.563.33-.209.645-.437.944-.685.298-.247.574-.51.827-.79.254-.28.473-.575.658-.883.184-.309.329-.628.432-.96.103-.33.155-.672.155-1.025 0-.178-.014-.361-.042-.548a8.704 8.704 0 00-.107-.569c-.043-.193-.09-.387-.14-.584l-.15-.588a9.052 9.052 0 00-.151-.556 65.409 65.409 0 01-.17-.564l-1.157.366c.11.34.213.681.31 1.022l.14.512c.049.174.094.349.134.523.04.175.074.345.1.511.027.167.04.325.04.475 0 .394-.095.775-.286 1.145a4.51 4.51 0 01-.758 1.046 6.964 6.964 0 01-1.074.91 9.912 9.912 0 01-1.242.734l.53 1.071zM337.759 98c.21 0 .387-.014.53-.043.86-.158 1.47-.558 1.831-1.199.085-.154.16-.324.222-.511.063-.187.102-.354.116-.502.014-.148.021-.265.021-.35 0-.146-.012-.3-.036-.463a3.644 3.644 0 00-.22-.791 5.116 5.116 0 00-.462-.886 7.535 7.535 0 00-.76-.977 9.49 9.49 0 00-.7-.7 39.17 39.17 0 00-.652-.572l4.358-1.832-.468-1.108-5.004 2.143-.14 1.248a15.432 15.432 0 011.85 1.768c.26.294.478.57.655.828.176.257.287.47.332.636.056.219.085.424.085.614a1.495 1.495 0 01-.243.828c-.114.17-.27.302-.47.393a2.705 2.705 0 01-.657.2c-.24.043-.49.068-.755.074-.263.006-.517.009-.76.009h-.761V98h2.088zm-7.153 4.492a11.123 11.123 0 001.492-.9 7.948 7.948 0 001.287-1.142c.375-.416.677-.865.904-1.348.227-.483.34-.99.34-1.522v-.024c.102.11.209.194.32.255a1.475 1.475 0 00.624.183c.09.004.163.006.22.006h.103v-1.193h-.097c-.203 0-.389-.049-.557-.146a1.645 1.645 0 01-.484-.46 4.3 4.3 0 01-.45-.81c-.147-.33-.297-.73-.451-1.201l-1.145.353c.05.15.108.337.177.563.069.225.138.465.207.721.069.256.133.516.192.782.058.266.102.514.13.746a2.272 2.272 0 01-.067.822 3.158 3.158 0 01-.331.785c-.148.251-.33.492-.545.721-.215.23-.45.447-.706.654a8.3 8.3 0 01-.816.582c-.288.18-.578.346-.87.496l.523 1.077zm-3.323-4.498c.243 0 .488-.018.733-.055.246-.036.482-.095.71-.176a3.04 3.04 0 00.636-.314c.196-.128.368-.28.514-.46a1.474 1.474 0 00.317-.645c.032-.142.05-.304.051-.487a2.812 2.812 0 00-.07-.614 4.424 4.424 0 00-.277-.795 6.44 6.44 0 00-.444-.815 8.06 8.06 0 00-1.233-1.495 6.963 6.963 0 00-.709-.59 4.27 4.27 0 00-.721-.426l-.493 1.108c.182.08.37.19.56.328.19.138.378.296.563.475.184.179.362.37.532.575.17.205.326.416.466.633.14.217.26.435.36.652.099.217.17.425.215.624.033.146.049.271.049.377 0 .146-.03.256-.091.329-.138.166-.309.29-.512.37a1.959 1.959 0 01-.547.144 3.497 3.497 0 01-.84-.01 5.173 5.173 0 01-1.419-.386 3.7 3.7 0 01-.541-.283l-.5 1.145c.102.093.262.186.481.28a7.375 7.375 0 001.519.441c.266.047.496.07.69.07z" fill-opacity=".56" fill-rule="nonzero"/><path d="M347.41 130.391c0-.485-.002-1.008-.005-1.569a55.771 55.771 0 00-.125-3.486c-.039-.59-.095-1.159-.168-1.706.318.078.663.117 1.033.117.475 0 .91-.086 1.307-.258.396-.172.736-.43 1.017-.775.35-.444.591-.9.724-1.37.133-.47.2-.95.2-1.44 0-.25-.015-.514-.043-.79a24.093 24.093 0 00-.106-.861l-1.933.344c.031.204.055.384.07.54.016.157.024.34.024.548 0 .235-.005.475-.016.72-.01.245-.053.468-.129.67-.075.2-.2.367-.372.5s-.42.202-.743.208h-.047c-.24 0-.446-.037-.618-.11a1.366 1.366 0 01-.482-.325 2.35 2.35 0 01-.371-.52 8.623 8.623 0 01-.329-.689 7.764 7.764 0 01-.196-.466 7.008 7.008 0 00-.371-.825 8.283 8.283 0 00-.286-.501l-1.66 1.064a4.865 4.865 0 01.4.79c.047.116.093.233.137.353.044.12.098.256.16.407.21.59.376 1.253.501 1.992.125.738.22 1.517.286 2.336.065.819.108 1.661.129 2.528.02.866.031 1.724.031 2.574h1.98zm8.905-1.815c.386 0 .752-.075 1.096-.223.344-.15.646-.35.904-.603a2.787 2.787 0 00.833-2c0-.386-.074-.75-.223-1.095a2.88 2.88 0 00-1.514-1.515 2.734 2.734 0 00-1.096-.223 2.787 2.787 0 00-2 .833c-.252.26-.453.56-.602.905-.148.344-.223.71-.223 1.095 0 .392.075.76.223 1.104.149.344.35.643.603.896s.552.454.896.603c.344.148.712.223 1.103.223zm0-1.55c-.177 0-.343-.034-.497-.102a1.313 1.313 0 01-.677-.677 1.218 1.218 0 01-.101-.497c0-.177.034-.343.101-.497.068-.153.16-.29.274-.406.115-.118.25-.21.403-.278.154-.068.32-.102.497-.102.178 0 .343.034.497.102a1.327 1.327 0 01.685.684c.068.154.102.32.102.497 0 .178-.034.343-.102.497a1.28 1.28 0 01-.278.403 1.363 1.363 0 01-.407.274c-.154.068-.32.102-.497.102zm7.748 1.55c.386 0 .752-.075 1.096-.223.344-.15.646-.35.904-.603a2.787 2.787 0 00.833-2c0-.386-.074-.75-.223-1.095a2.88 2.88 0 00-1.514-1.515 2.734 2.734 0 00-1.096-.223 2.787 2.787 0 00-2 .833c-.252.26-.453.56-.602.905-.149.344-.223.71-.223 1.095 0 .392.074.76.223 1.104.149.344.35.643.603.896s.551.454.896.603c.344.148.712.223 1.103.223zm0-1.55c-.177 0-.343-.034-.497-.102a1.313 1.313 0 01-.677-.677 1.219 1.219 0 01-.101-.497c0-.177.033-.343.101-.497.068-.153.16-.29.274-.406.115-.118.25-.21.403-.278.154-.068.32-.102.497-.102.178 0 .343.034.497.102a1.327 1.327 0 01.685.684c.068.154.102.32.102.497 0 .178-.034.343-.102.497a1.28 1.28 0 01-.278.403 1.363 1.363 0 01-.407.274c-.154.068-.32.102-.497.102zm-31.007 3.232a8.42 8.42 0 001.319-.125c.237-.042.464-.094.68-.156.217-.063.401-.139.553-.227a3.43 3.43 0 001.076-.994c.274-.397.444-.757.512-1.08.068-.324.102-.59.102-.799a3.187 3.187 0 00-.743-2.043 4.346 4.346 0 00-.646-.649 6.073 6.073 0 00-.775-.524 11.22 11.22 0 00-.99-.501l-1.283-.58a28.102 28.102 0 01-.76-.351 116.273 116.273 0 01-2.277-1.127c-.198-.1-.36-.179-.485-.239a1.015 1.015 0 00-.22-.09l-1.165 1.902c.161.088.28.151.356.188.075.036.134.06.176.07a3.01 3.01 0 00-.646.571 3.45 3.45 0 00-.465.713c-.126.255-.22.525-.282.81a3.974 3.974 0 00.09 2.054c.122.391.312.751.567 1.08a105.653 105.653 0 00-.869.05c-.12.009-.243.014-.371.016-.128.003-.283.004-.466.004h-.149v2.004h.15c.787 0 1.523-.04 2.206-.122a9.54 9.54 0 001.76-.356 4.2 4.2 0 00.697.227 9.693 9.693 0 001.617.247c.268.018.512.027.731.027zm-3.028-2.567a1.246 1.246 0 01-.439-.238 2.083 2.083 0 01-.364-.392 2.335 2.335 0 01-.266-.481 1.997 1.997 0 01-.137-.509 1.653 1.653 0 01-.007-.164c0-.183.033-.376.101-.58.084-.255.202-.487.356-.696.154-.208.32-.369.497-.481a.957.957 0 01.509-.168c.042 0 .083.002.125.008.141.02.298.071.47.152s.33.19.473.329c.144.138.252.292.325.462.073.17.11.34.11.512a2.77 2.77 0 01-.243 1.053c-.11.232-.241.429-.395.59a1.89 1.89 0 01-.517.388c-.19.097-.39.168-.598.215zm3.247.587a3.892 3.892 0 01-.5-.031c.313-.391.549-.823.708-1.295a4.493 4.493 0 00.23-1.722 4.423 4.423 0 00-.023-.278c.266.125.517.265.751.419.235.154.439.316.61.485.173.17.31.343.412.52.102.178.152.35.152.517 0 .188-.06.365-.18.532-.12.167-.284.313-.493.438a2.863 2.863 0 01-.74.302 3.599 3.599 0 01-.927.113zm-10.518-5.079l1.503-1.502-1.503-1.495-1.495 1.495 1.495 1.502zm-3.482 12.89a15.19 15.19 0 001.936-1.15c.63-.439 1.195-.922 1.699-1.449a8.213 8.213 0 001.256-1.694 4.906 4.906 0 00.602-1.89c.246.157.471.25.677.282.206.031.377.047.513.047h.243l.007-2.004h-.242a1.34 1.34 0 01-.615-.137c-.18-.091-.352-.253-.516-.485a5.165 5.165 0 01-.5-.947c-.17-.399-.357-.904-.56-1.514l-1.879.782c.1.298.209.604.329.92.12.316.232.627.336.935.105.308.19.604.259.888.068.285.101.544.101.78 0 .328-.06.649-.183.962a4.27 4.27 0 01-.501.915 5.681 5.681 0 01-.752.853c-.29.272-.6.533-.935.783-.334.25-.685.485-1.052.704-.368.22-.735.423-1.1.61l.877 1.809zm-2.536-5.87l2.05-.313c.021-.407.042-.844.063-1.31.02-.468.036-.971.047-1.511a115.9 115.9 0 00.008-3.792 58.419 58.419 0 00-.094-2.657 39.56 39.56 0 00-.274-2.853l-2.011.658c.088.86.159 1.762.21 2.704.053.942.1 1.947.142 3.017.015.464.023.962.023 1.495 0 1.32-.055 2.84-.164 4.562zm-7.27 5.698c.464-.23.923-.488 1.377-.775.454-.287.884-.598 1.291-.932.407-.333.784-.688 1.131-1.064.347-.376.647-.77.9-1.186.253-.414.451-.845.595-1.29.143-.447.215-.905.215-1.374a6.78 6.78 0 00-.086-1.06 12.66 12.66 0 00-.223-1.093 19.036 19.036 0 00-.305-1.083l-.325-1.03-1.964.634c.067.23.152.493.254.79.102.298.2.607.297.928.097.321.179.646.247.975.068.328.102.641.102.939 0 .318-.058.634-.173.947a4.248 4.248 0 01-.473.915c-.201.298-.441.585-.72.861a9.57 9.57 0 01-.908.79c-.326.251-.67.487-1.03.709-.36.222-.724.424-1.095.606l.892 1.793z" fill-opacity=".87" fill-rule="nonzero"/><path d="M537.585 98.073c.378 0 .708-.053.992-.158.293-.106.536-.258.73-.457.196-.199.342-.439.44-.721.096-.282.145-.598.145-.947 0-.23-.021-.468-.064-.712a6.734 6.734 0 00-.164-.712 10.708 10.708 0 00-.752-1.899l-1.065.56a10.739 10.739 0 01.514 1.245c.088.257.163.52.226.788.062.268.094.517.094.749 0 .178-.02.339-.061.48a.814.814 0 01-.198.354.668.668 0 01-.31.185 1.37 1.37 0 01-.35.046c-.07 0-.142-.004-.22-.012a.568.568 0 01-.307-.119.741.741 0 01-.2-.256 1.287 1.287 0 01-.11-.359 2.647 2.647 0 01-.034-.429c0-.166.012-.356.037-.569.024-.213.052-.414.082-.603.03-.188.058-.35.082-.484l.03-.194-1.168-.213a14.56 14.56 0 01-.1.587 8.363 8.363 0 01-.165.697c-.067.24-.148.475-.243.706a3.216 3.216 0 01-.335.621c-.128.183-.274.33-.438.444a.956.956 0 01-.557.17.643.643 0 01-.323-.072.545.545 0 01-.2-.195.852.852 0 01-.104-.277c-.02-.104-.03-.21-.03-.32 0-.158.015-.33.048-.514.032-.185.071-.365.116-.542a11.173 11.173 0 01.255-.873l-1.205-.256c-.04.199-.09.41-.146.633a6.81 6.81 0 01-.207.667 4.861 4.861 0 01-.286.636c-.11.203-.238.382-.387.539a1.813 1.813 0 01-.508.377c-.19.095-.406.143-.645.143h-.134V98h.128c.235 0 .451-.02.648-.058a2.366 2.366 0 00.99-.432c.137-.103.267-.22.389-.35.065.15.157.282.277.396.12.113.252.209.398.286.147.077.3.135.46.173a1.989 1.989 0 001.446-.192c.308-.166.584-.391.827-.675.086.13.19.25.31.362.123.112.255.209.397.292.142.083.29.15.447.198.156.049.311.073.466.073h.042zM530.603 98v-1.193h-.121c-.256 0-.476-.026-.66-.08a.95.95 0 01-.418-.218.507.507 0 01-.161-.314 3.288 3.288 0 01-.021-.386v-3.056a42.483 42.483 0 00-.125-3.208 9.023 9.023 0 00-.094-.76l-1.193.218c.036.191.068.436.094.734.026.298.049.624.067.977.018.353.031.718.04 1.096.008.377.012.74.012 1.09.004.356.006.695.006 1.016v.236c-.001.23-.003.44-.006.628a184.985 184.985 0 00-.012.837v.07c0 .097.001.214.006.35.004.136.023.279.057.43.035.15.088.301.159.456.07.154.173.298.307.432.22.219.486.381.8.487.315.105.695.158 1.142.158h.121zm-9.763-6.702l.992-.992-.998-.998-.992.992.998.998zM518.223 98a9.77 9.77 0 001.82-.17c.6-.114 1.181-.261 1.744-.442.562-.18 1.1-.382 1.613-.605.513-.224.993-.447 1.44-.67.303-.15.596-.293.876-.43.28-.135.562-.262.846-.38l-.232-1.156c-.251 0-.5-.026-.748-.08a5.987 5.987 0 01-.743-.21 9.844 9.844 0 01-.74-.294 34.3 34.3 0 01-.727-.335c-.219-.102-.436-.201-.651-.298a8.863 8.863 0 00-.633-.26 4.933 4.933 0 00-.612-.179 2.73 2.73 0 00-.593-.067 2.34 2.34 0 00-1.123.286c-.356.191-.691.477-1.008.859a4.13 4.13 0 00-.289.383 9.874 9.874 0 00-.213.335 3.1 3.1 0 00-.186.347l1.096.493a3.226 3.226 0 01.225-.399c.073-.111.16-.231.262-.359.101-.128.216-.247.344-.359.128-.112.267-.204.417-.277.15-.073.308-.11.475-.11.125 0 .263.02.414.058.15.039.309.09.477.156.169.064.343.139.524.222l.557.258c.247.118.499.234.755.347.255.114.523.22.803.317-.463.231-.943.456-1.443.676-.499.219-1.01.413-1.533.584-.524.17-1.056.307-1.595.41a8.58 8.58 0 01-1.62.156h-1.32V98h1.32zm-9.776-4.997l.986-.986-.998-.999-.986.992.998.993zm2.496.012l.986-.992-.999-.993-.986.987.999.998zm-1.766 5.003c2.31 0 4-.56 5.07-1.68.09.248.216.469.378.664.507.653 1.289.986 2.344.998h.17v-1.193h-.152c-.661-.004-1.134-.187-1.418-.548a1.217 1.217 0 01-.256-.511 3.023 3.023 0 01-.08-.548v-.049a5.071 5.071 0 01.137-.886c.027-.107.05-.197.07-.27l-1.156-.317c-.052.183-.112.37-.18.56-.066.191-.147.38-.243.566a3.52 3.52 0 01-.344.542 2.696 2.696 0 01-.48.481c-.418.34-.942.59-1.57.746-.63.156-1.393.234-2.29.234-1.002-.004-1.817-.11-2.444-.317-.626-.207-1.062-.519-1.305-.937a1.477 1.477 0 01-.195-.502 2.648 2.648 0 01-.043-.448c0-.052.002-.103.007-.152.008-.182.033-.357.076-.523.042-.167.086-.313.13-.438.045-.126.086-.228.122-.305a1.41 1.41 0 00.055-.122l-1.053-.578c-.02.029-.078.155-.174.38-.095.226-.193.531-.295.917-.048.182-.079.35-.091.502a4.048 4.048 0 00-.006.69c.016.212.056.423.119.634.062.21.153.416.27.615.366.616.953 1.068 1.763 1.354.81.286 1.83.433 3.064.441z" fill-opacity=".56" fill-rule="nonzero"/><path d="M508.284 130.391c0-.485-.001-1.008-.004-1.569a55.774 55.774 0 00-.125-3.486c-.04-.59-.095-1.159-.168-1.706.318.078.662.117 1.033.117.474 0 .91-.086 1.307-.258.396-.172.735-.43 1.017-.775.35-.444.59-.9.724-1.37.133-.47.2-.95.2-1.44 0-.25-.015-.514-.044-.79a24.095 24.095 0 00-.105-.861l-1.933.344c.031.204.054.384.07.54.016.157.024.34.024.548 0 .235-.006.475-.016.72s-.054.468-.13.67c-.075.2-.199.367-.371.5s-.42.202-.743.208h-.047c-.24 0-.446-.037-.619-.11a1.366 1.366 0 01-.481-.325 2.35 2.35 0 01-.372-.52 8.623 8.623 0 01-.328-.689 7.764 7.764 0 01-.196-.466 7.008 7.008 0 00-.372-.825 8.283 8.283 0 00-.285-.501l-1.66 1.064a4.865 4.865 0 01.4.79c.047.116.092.233.137.353.044.12.097.256.16.407.209.59.376 1.253.5 1.992.126.738.221 1.517.286 2.336.066.819.109 1.661.13 2.528.02.866.03 1.724.03 2.574h1.98zm8.906-1.815c.386 0 .751-.075 1.096-.223.344-.15.645-.35.904-.603a2.787 2.787 0 00.833-2c0-.386-.074-.75-.223-1.095a2.88 2.88 0 00-1.514-1.515 2.734 2.734 0 00-1.096-.223 2.787 2.787 0 00-2 .833c-.253.26-.453.56-.602.905-.149.344-.223.71-.223 1.095 0 .392.074.76.223 1.104.149.344.35.643.602.896.253.253.552.454.897.603.344.148.712.223 1.103.223zm0-1.55c-.177 0-.343-.034-.497-.102a1.313 1.313 0 01-.677-.677 1.219 1.219 0 01-.102-.497c0-.177.034-.343.102-.497.068-.153.16-.29.274-.406.115-.118.25-.21.403-.278.154-.068.32-.102.497-.102s.343.034.497.102a1.327 1.327 0 01.685.684c.068.154.101.32.101.497 0 .178-.033.343-.101.497a1.28 1.28 0 01-.278.403 1.363 1.363 0 01-.407.274c-.154.068-.32.102-.497.102zm7.936 3.412v-1.14c-.002-.325-.004-.668-.008-1.028a55.834 55.834 0 00-.11-2.915c-.031-.477-.073-.92-.125-1.326-.073-.538-.149-1.066-.227-1.585a17.649 17.649 0 00-.29-1.495 12.045 12.045 0 00-.41-1.362c-.16-.43-.359-.83-.599-1.2l-1.651 1.016c.23.423.424.895.583 1.417.159.522.292 1.079.399 1.67.107.593.19 1.215.25 1.867.06.653.106 1.316.137 1.992.032.676.051 1.36.059 2.05.008.692.012 1.371.012 2.04h1.98zm7.207-.047c.01-.824.126-1.742.345-2.754.219-1.013.54-2.11.962-3.295.183-.512.37-1.01.56-1.495.19-.485.38-.944.567-1.377.188-.433.375-.837.56-1.21.185-.373.366-.703.544-.99l-1.644-1.056c-.214.334-.443.777-.688 1.33a30.354 30.354 0 00-.74 1.843 48.645 48.645 0 00-1.35 4.347 28.556 28.556 0 00-.512-1.885c-.19-.616-.41-1.229-.658-1.84a24.404 24.404 0 00-.841-1.842 28.894 28.894 0 00-1.057-1.898l-1.651 1.056c.454.73.899 1.492 1.334 2.285a20.16 20.16 0 011.166 2.536c.342.897.616 1.861.822 2.892.206 1.03.31 2.148.31 3.353h1.971z" fill-opacity=".87" fill-rule="nonzero"/><path fill-opacity=".12" d="M249 154h362v1H249zM369 213h1v40h-1zM490 213h1v40h-1z"/><path d="M321.528 221c.21 0 .387-.014.53-.043.86-.158 1.47-.558 1.832-1.199.085-.154.159-.324.222-.511s.101-.354.115-.502c.015-.148.022-.265.022-.35 0-.146-.012-.3-.037-.463a3.644 3.644 0 00-.219-.791 5.116 5.116 0 00-.463-.886 7.535 7.535 0 00-.76-.977 9.489 9.489 0 00-.7-.7 39.169 39.169 0 00-.652-.572l4.359-1.832-.47-1.108-5.003 2.143-.14 1.248a15.432 15.432 0 011.85 1.768c.26.294.479.57.655.828.177.257.287.47.332.636.057.219.085.424.085.614a1.496 1.496 0 01-.243.828c-.114.17-.27.302-.47.393a2.705 2.705 0 01-.656.2c-.24.043-.491.068-.755.074-.264.006-.518.009-.761.009h-.761V221h2.088zm-1.845 0v-1.193h-.121c-.256 0-.476-.026-.66-.08a.95.95 0 01-.418-.218.507.507 0 01-.161-.314 3.288 3.288 0 01-.021-.386v-3.056a42.483 42.483 0 00-.125-3.208 9.023 9.023 0 00-.094-.76l-1.193.218c.036.191.068.436.094.734.026.298.049.624.067.977.018.353.031.718.04 1.096.008.377.012.74.012 1.09.004.356.006.695.006 1.016v.236c-.001.23-.003.44-.006.628a184.984 184.984 0 00-.012.837v.07c0 .097.001.214.006.35.004.136.023.279.057.43.035.15.088.301.159.456.07.154.173.298.307.432.22.219.486.381.8.487.315.105.695.158 1.142.158h.121zm-8.673 4.358c.34-.166.676-.354 1.007-.563.33-.209.645-.437.943-.685.299-.247.575-.51.828-.79.254-.28.473-.575.658-.883.184-.309.328-.628.432-.96.103-.33.155-.672.155-1.025 0-.178-.014-.361-.043-.548a8.704 8.704 0 00-.106-.569c-.043-.193-.09-.387-.14-.584l-.15-.588a9.053 9.053 0 00-.151-.556 65.409 65.409 0 01-.17-.564l-1.157.366c.11.34.213.681.31 1.022.045.167.091.337.14.512.049.174.093.349.134.523.04.175.074.345.1.511.027.167.04.325.04.475 0 .394-.095.775-.286 1.145a4.51 4.51 0 01-.758 1.046 6.964 6.964 0 01-1.074.91 9.912 9.912 0 01-1.242.734l.53 1.071zM307.004 221c.211 0 .388-.014.53-.043.86-.158 1.47-.558 1.832-1.199.085-.154.16-.324.222-.511.063-.187.102-.354.116-.502.014-.148.021-.265.021-.35 0-.146-.012-.3-.036-.463a3.644 3.644 0 00-.22-.791 5.116 5.116 0 00-.462-.886 7.535 7.535 0 00-.76-.977 9.489 9.489 0 00-.7-.7 39.169 39.169 0 00-.652-.572l4.358-1.832-.469-1.108-5.003 2.143-.14 1.248a15.432 15.432 0 011.85 1.768c.26.294.478.57.655.828.176.257.287.47.331.636.057.219.086.424.086.614a1.496 1.496 0 01-.243.828c-.114.17-.27.302-.47.393a2.705 2.705 0 01-.657.2c-.24.043-.491.068-.755.074-.264.006-.517.009-.76.009h-.761V221h2.087zm-7.152 4.492a11.123 11.123 0 001.491-.9 7.948 7.948 0 001.288-1.142c.375-.416.677-.865.904-1.348.227-.483.34-.99.34-1.522v-.024c.102.11.209.194.32.255a1.475 1.475 0 00.624.183c.09.004.162.006.22.006h.103v-1.193h-.098c-.203 0-.388-.049-.557-.146a1.645 1.645 0 01-.484-.46 4.3 4.3 0 01-.45-.81c-.146-.33-.296-.73-.45-1.201l-1.145.353c.049.15.108.337.177.563.069.225.138.465.207.721.069.256.133.516.191.782.06.266.103.514.131.746a2.272 2.272 0 01-.067.822 3.158 3.158 0 01-.331.785c-.148.251-.33.492-.545.721-.215.23-.45.447-.706.654a8.3 8.3 0 01-.816.582c-.288.18-.578.346-.87.496l.523 1.077zm-3.323-4.498c.243 0 .488-.018.733-.055.246-.036.482-.095.71-.176a3.04 3.04 0 00.635-.314c.197-.128.369-.28.515-.46a1.474 1.474 0 00.317-.645c.032-.142.049-.304.051-.487a2.812 2.812 0 00-.07-.614 4.424 4.424 0 00-.277-.795 6.44 6.44 0 00-.444-.815 8.06 8.06 0 00-1.233-1.495 6.963 6.963 0 00-.709-.59 4.27 4.27 0 00-.721-.426l-.493 1.108c.182.08.369.19.56.328.19.138.378.296.563.475.184.179.362.37.532.575.17.205.326.416.466.633.14.217.26.435.359.652.1.217.171.425.216.624.033.146.049.271.049.377 0 .146-.03.256-.091.329-.138.166-.309.29-.512.37a1.959 1.959 0 01-.548.144 3.497 3.497 0 01-.84-.01 5.173 5.173 0 01-1.418-.386 3.7 3.7 0 01-.542-.283l-.499 1.145c.102.093.262.186.481.28a7.376 7.376 0 001.519.441c.266.047.496.07.69.07z" fill-opacity=".56" fill-rule="nonzero"/><path d="M317.163 253.391c0-.485 0-1.008-.003-1.569a55.771 55.771 0 00-.126-3.486c-.039-.59-.095-1.159-.168-1.706.318.078.663.117 1.033.117.475 0 .91-.086 1.307-.258.397-.172.736-.43 1.017-.775.35-.444.591-.9.724-1.37.133-.47.2-.95.2-1.44 0-.25-.014-.514-.043-.79a24.095 24.095 0 00-.106-.861l-1.933.344c.032.204.055.384.07.54.016.157.024.34.024.548 0 .235-.005.475-.016.72-.01.245-.053.468-.129.67-.075.2-.2.367-.371.5-.173.133-.42.202-.744.208h-.047c-.24 0-.446-.037-.618-.11a1.366 1.366 0 01-.481-.325 2.35 2.35 0 01-.372-.52 8.623 8.623 0 01-.329-.689 7.764 7.764 0 01-.195-.466 7.008 7.008 0 00-.372-.825 8.283 8.283 0 00-.286-.501l-1.659 1.064a4.865 4.865 0 01.4.79c.046.116.092.233.136.353.044.12.098.256.16.407.21.59.376 1.253.501 1.992.126.738.22 1.517.286 2.336.065.819.108 1.661.13 2.528.02.866.03 1.724.03 2.574h1.98zm8.907-1.815c.386 0 .75-.075 1.095-.223.345-.15.646-.35.904-.603a2.787 2.787 0 00.834-2c0-.386-.075-.75-.223-1.095a2.88 2.88 0 00-1.515-1.515 2.734 2.734 0 00-1.095-.223 2.787 2.787 0 00-2 .833c-.253.26-.454.56-.603.905-.148.344-.223.71-.223 1.095 0 .392.075.76.223 1.104.15.344.35.643.603.896s.552.454.896.603c.344.148.712.223 1.104.223zm0-1.55c-.178 0-.343-.034-.497-.102a1.313 1.313 0 01-.677-.677 1.219 1.219 0 01-.102-.497c0-.177.034-.343.102-.497.067-.153.159-.29.274-.406.114-.118.249-.21.403-.278.154-.068.32-.102.497-.102s.343.034.497.102a1.327 1.327 0 01.684.684c.068.154.102.32.102.497 0 .178-.034.343-.102.497a1.28 1.28 0 01-.278.403 1.363 1.363 0 01-.406.274c-.154.068-.32.102-.497.102zm7.747 1.55c.386 0 .752-.075 1.096-.223.344-.15.646-.35.904-.603a2.787 2.787 0 00.833-2c0-.386-.074-.75-.223-1.095a2.88 2.88 0 00-1.514-1.515 2.734 2.734 0 00-1.096-.223 2.787 2.787 0 00-2 .833c-.252.26-.453.56-.602.905-.148.344-.223.71-.223 1.095 0 .392.075.76.223 1.104.149.344.35.643.603.896s.552.454.896.603c.344.148.712.223 1.103.223zm0-1.55c-.177 0-.343-.034-.497-.102a1.313 1.313 0 01-.677-.677 1.219 1.219 0 01-.101-.497c0-.177.034-.343.101-.497.068-.153.16-.29.274-.406.115-.118.25-.21.403-.278.154-.068.32-.102.497-.102.178 0 .343.034.497.102a1.327 1.327 0 01.685.684c.068.154.102.32.102.497 0 .178-.034.343-.102.497a1.28 1.28 0 01-.278.403 1.363 1.363 0 01-.407.274c-.154.068-.32.102-.497.102zm-31.007 3.232a8.42 8.42 0 001.319-.125c.238-.042.464-.094.681-.156.217-.063.4-.139.552-.227a3.43 3.43 0 001.076-.994c.274-.397.445-.757.512-1.08.068-.324.102-.59.102-.799a3.187 3.187 0 00-.743-2.043 4.346 4.346 0 00-.646-.649 6.073 6.073 0 00-.775-.524 11.22 11.22 0 00-.99-.501l-1.283-.58a28.103 28.103 0 01-.76-.351 116.272 116.272 0 01-2.277-1.127c-.198-.1-.36-.179-.485-.239a1.015 1.015 0 00-.22-.09l-1.165 1.902c.162.088.28.151.356.188.076.036.134.06.176.07a3.01 3.01 0 00-.646.571 3.45 3.45 0 00-.465.713c-.126.255-.22.525-.282.81a3.974 3.974 0 00.09 2.054c.123.391.312.751.567 1.08a105.655 105.655 0 00-.868.05c-.12.009-.244.014-.372.016-.128.003-.283.004-.466.004h-.148v2.004h.148c.788 0 1.524-.04 2.207-.122a9.54 9.54 0 001.761-.356 4.2 4.2 0 00.697.227 9.693 9.693 0 001.616.247c.268.018.512.027.731.027zm-3.028-2.567a1.246 1.246 0 01-.439-.238 2.083 2.083 0 01-.363-.392 2.335 2.335 0 01-.267-.481 1.997 1.997 0 01-.136-.509 1.653 1.653 0 01-.008-.164c0-.183.034-.376.101-.58.084-.255.203-.487.357-.696.153-.208.32-.369.496-.481a.957.957 0 01.51-.168c.04 0 .083.002.124.008.141.02.298.071.47.152s.33.19.473.329c.144.138.252.292.325.462.073.17.11.34.11.512a2.77 2.77 0 01-.243 1.053c-.11.232-.241.429-.395.59a1.89 1.89 0 01-.517.388c-.19.097-.39.168-.598.215zm3.248.587a3.892 3.892 0 01-.501-.031c.313-.391.549-.823.708-1.295a4.493 4.493 0 00.23-1.722 4.423 4.423 0 00-.023-.278c.266.125.517.265.752.419.234.154.438.316.61.485.172.17.31.343.411.52.102.178.153.35.153.517 0 .188-.06.365-.18.532-.12.167-.285.313-.493.438a2.863 2.863 0 01-.74.302 3.599 3.599 0 01-.927.113zM292.51 246.2l1.503-1.502-1.503-1.495-1.494 1.495 1.494 1.502zm-3.482 12.89a15.19 15.19 0 001.937-1.15c.628-.439 1.194-.922 1.698-1.449a8.213 8.213 0 001.256-1.694 4.906 4.906 0 00.603-1.89c.245.157.47.25.677.282.206.031.377.047.512.047h.243l.008-2.004h-.243a1.34 1.34 0 01-.614-.137c-.18-.091-.353-.253-.517-.485a5.165 5.165 0 01-.5-.947c-.17-.399-.357-.904-.56-1.514l-1.879.782c.1.298.21.604.33.92.12.316.231.627.336.935.104.308.19.604.258.888.068.285.102.544.102.78 0 .328-.062.649-.184.962a4.27 4.27 0 01-.501.915 5.681 5.681 0 01-.751.853c-.29.272-.602.533-.936.783-.334.25-.684.485-1.052.704-.368.22-.735.423-1.1.61l.877 1.809zm-2.536-5.87l2.05-.313c.021-.407.042-.844.063-1.31.021-.468.037-.971.047-1.511a115.9 115.9 0 00.008-3.792 58.42 58.42 0 00-.094-2.657 39.56 39.56 0 00-.274-2.853l-2.011.658c.088.86.159 1.762.211 2.704.052.942.1 1.947.14 3.017.017.464.024.962.024 1.495 0 1.32-.054 2.84-.164 4.562zm-7.27 5.698c.464-.23.923-.488 1.377-.775.454-.287.884-.598 1.291-.932.407-.333.784-.688 1.131-1.064.347-.376.647-.77.9-1.186.253-.414.451-.845.595-1.29.143-.447.215-.905.215-1.374a6.78 6.78 0 00-.086-1.06 12.66 12.66 0 00-.223-1.093 19.035 19.035 0 00-.305-1.083l-.325-1.03-1.964.634c.068.23.152.493.254.79.102.298.2.607.297.928.097.321.18.646.247.975.068.328.102.641.102.939 0 .318-.058.634-.172.947a4.248 4.248 0 01-.474.915c-.2.298-.44.585-.72.861a9.57 9.57 0 01-.908.79c-.326.251-.669.487-1.029.709-.36.222-.725.424-1.096.606l.893 1.793z" fill-opacity=".87" fill-rule="nonzero"/><path d="M446.335 221.073c.378 0 .708-.053.992-.158.293-.106.536-.258.73-.457.196-.199.342-.439.44-.721.096-.282.145-.598.145-.947 0-.23-.021-.468-.064-.712a6.734 6.734 0 00-.164-.712 10.708 10.708 0 00-.752-1.899l-1.065.56a10.739 10.739 0 01.514 1.245c.088.257.163.52.226.788.062.268.094.517.094.749 0 .178-.02.339-.061.48a.814.814 0 01-.198.354.668.668 0 01-.31.185 1.37 1.37 0 01-.35.046c-.07 0-.142-.004-.22-.012a.568.568 0 01-.307-.119.741.741 0 01-.2-.256 1.287 1.287 0 01-.11-.359 2.647 2.647 0 01-.034-.429c0-.166.012-.356.037-.569.024-.213.052-.414.082-.603.03-.188.058-.35.082-.484l.03-.194-1.168-.213a14.56 14.56 0 01-.1.587 8.363 8.363 0 01-.165.697c-.067.24-.148.475-.243.706a3.216 3.216 0 01-.335.621c-.128.183-.274.33-.438.444a.956.956 0 01-.557.17.643.643 0 01-.323-.072.545.545 0 01-.2-.195.852.852 0 01-.104-.277c-.02-.104-.03-.21-.03-.32 0-.158.015-.33.048-.514.032-.185.071-.365.116-.542a11.174 11.174 0 01.255-.873l-1.205-.256c-.04.199-.09.41-.146.633a6.81 6.81 0 01-.207.667 4.861 4.861 0 01-.286.636c-.11.203-.238.382-.387.539a1.812 1.812 0 01-.508.377c-.19.095-.406.143-.645.143h-.134V221h.128c.235 0 .451-.02.648-.058a2.366 2.366 0 00.99-.432c.137-.103.267-.22.389-.35.065.15.157.282.277.396.12.113.252.209.398.286.147.077.3.135.46.173a1.989 1.989 0 001.446-.192c.308-.166.584-.391.827-.675.086.13.19.25.31.362.123.112.255.209.397.292.142.083.29.15.447.198.156.049.311.073.466.073h.042zm-6.982-.073v-1.193h-.121c-.256 0-.476-.026-.66-.08a.95.95 0 01-.418-.218.507.507 0 01-.161-.314 3.288 3.288 0 01-.021-.386v-3.056a42.483 42.483 0 00-.125-3.208 9.023 9.023 0 00-.094-.76l-1.193.218c.036.191.068.436.094.734.026.298.049.624.067.977.018.353.031.718.04 1.096.008.377.012.74.012 1.09.004.356.006.695.006 1.016v.236c-.001.23-.003.44-.006.628a184.984 184.984 0 00-.012.837v.07c0 .097.001.214.006.35.004.136.023.279.057.43.035.15.088.301.159.456.07.154.173.298.307.432.22.219.486.381.8.487.315.105.695.158 1.142.158h.121zm-9.763-6.702l.992-.992-.998-.998-.992.992.998.998zM426.973 221a9.77 9.77 0 001.82-.17c.6-.114 1.181-.261 1.744-.442.562-.18 1.1-.382 1.613-.605.513-.224.993-.447 1.44-.67.303-.15.596-.293.876-.43.28-.135.562-.262.846-.38l-.232-1.156c-.251 0-.5-.026-.748-.08a5.987 5.987 0 01-.743-.21 9.844 9.844 0 01-.74-.294c-.245-.11-.487-.222-.727-.335-.219-.102-.436-.201-.651-.298a8.863 8.863 0 00-.633-.26 4.933 4.933 0 00-.612-.179 2.73 2.73 0 00-.593-.067 2.34 2.34 0 00-1.123.286c-.356.191-.691.477-1.008.859a4.13 4.13 0 00-.289.383 9.873 9.873 0 00-.213.335 3.1 3.1 0 00-.186.347l1.096.493a3.225 3.225 0 01.225-.399c.073-.111.16-.231.262-.359.101-.128.216-.247.344-.359.128-.112.267-.204.417-.277.15-.073.308-.11.475-.11.125 0 .263.02.414.058.15.039.309.09.477.156.169.064.343.139.524.222l.557.258c.247.118.499.234.755.347.255.114.523.22.803.317-.463.231-.943.456-1.443.676-.499.219-1.01.413-1.533.584-.524.17-1.056.307-1.595.41a8.58 8.58 0 01-1.62.156h-1.32V221h1.32zm-9.776-4.997l.986-.986-.998-.999-.986.992.998.993zm2.496.012l.986-.992-.999-.993-.986.987.999.998zm-1.766 5.003c2.31 0 4-.56 5.07-1.68.09.248.216.469.378.664.507.653 1.289.986 2.344.998h.17v-1.193h-.152c-.661-.004-1.134-.187-1.418-.548a1.217 1.217 0 01-.256-.511 3.023 3.023 0 01-.08-.548v-.049a5.071 5.071 0 01.137-.886c.027-.107.05-.197.07-.27l-1.156-.317c-.052.183-.112.37-.18.56-.066.191-.147.38-.243.566a3.52 3.52 0 01-.344.542 2.696 2.696 0 01-.48.481c-.418.34-.942.59-1.57.746-.63.156-1.393.234-2.29.234-1.002-.004-1.817-.11-2.444-.317-.626-.207-1.062-.519-1.305-.937a1.477 1.477 0 01-.195-.502 2.648 2.648 0 01-.043-.448c0-.052.002-.103.007-.152.008-.182.033-.357.076-.523.042-.167.086-.313.13-.438.045-.126.086-.228.122-.305a1.41 1.41 0 00.055-.122l-1.053-.578c-.02.029-.078.155-.174.38-.095.226-.193.531-.295.917-.048.182-.079.35-.091.502a4.048 4.048 0 00-.006.69c.016.212.056.423.119.634.062.21.153.416.27.615.366.616.953 1.068 1.763 1.354.81.286 1.83.433 3.064.441z" fill-opacity=".56" fill-rule="nonzero"/><path d="M417.534 253.391c0-.485-.001-1.008-.004-1.569a55.774 55.774 0 00-.125-3.486c-.04-.59-.095-1.159-.168-1.706.318.078.662.117 1.033.117.474 0 .91-.086 1.307-.258.396-.172.735-.43 1.017-.775.35-.444.59-.9.724-1.37.133-.47.2-.95.2-1.44 0-.25-.015-.514-.044-.79a24.095 24.095 0 00-.105-.861l-1.933.344c.031.204.054.384.07.54.016.157.024.34.024.548 0 .235-.006.475-.016.72s-.054.468-.13.67c-.075.2-.199.367-.371.5s-.42.202-.743.208h-.047c-.24 0-.446-.037-.619-.11a1.366 1.366 0 01-.481-.325 2.35 2.35 0 01-.372-.52 8.623 8.623 0 01-.328-.689 7.764 7.764 0 01-.196-.466 7.008 7.008 0 00-.372-.825 8.283 8.283 0 00-.285-.501l-1.66 1.064a4.865 4.865 0 01.4.79c.047.116.092.233.137.353.044.12.097.256.16.407.209.59.376 1.253.5 1.992.126.738.221 1.517.286 2.336.066.819.109 1.661.13 2.528.02.866.03 1.724.03 2.574h1.98zm8.906-1.815c.386 0 .751-.075 1.096-.223.344-.15.645-.35.904-.603a2.787 2.787 0 00.833-2c0-.386-.074-.75-.223-1.095a2.88 2.88 0 00-1.514-1.515 2.734 2.734 0 00-1.096-.223 2.787 2.787 0 00-2 .833c-.253.26-.453.56-.602.905-.149.344-.223.71-.223 1.095 0 .392.074.76.223 1.104.149.344.35.643.602.896.253.253.552.454.897.603.344.148.712.223 1.103.223zm0-1.55c-.177 0-.343-.034-.497-.102a1.313 1.313 0 01-.677-.677 1.219 1.219 0 01-.102-.497c0-.177.034-.343.102-.497.068-.153.16-.29.274-.406.115-.118.25-.21.403-.278.154-.068.32-.102.497-.102s.343.034.497.102a1.327 1.327 0 01.685.684c.068.154.101.32.101.497 0 .178-.033.343-.101.497a1.28 1.28 0 01-.278.403 1.363 1.363 0 01-.407.274c-.154.068-.32.102-.497.102zm7.936 3.412v-1.14c-.002-.325-.004-.668-.008-1.028a55.834 55.834 0 00-.11-2.915c-.031-.477-.073-.92-.125-1.326-.073-.538-.149-1.066-.227-1.585a17.649 17.649 0 00-.29-1.495 12.045 12.045 0 00-.41-1.362c-.16-.43-.359-.83-.599-1.2l-1.651 1.016c.23.423.424.895.583 1.417.159.522.292 1.079.399 1.67.107.593.19 1.215.25 1.867.06.653.106 1.316.137 1.992.032.676.051 1.36.059 2.05.008.692.012 1.371.012 2.04h1.98zm7.207-.047c.01-.824.126-1.742.345-2.754.219-1.013.54-2.11.962-3.295.183-.512.37-1.01.56-1.495.19-.485.38-.944.567-1.377.188-.433.375-.837.56-1.21.185-.373.366-.703.544-.99l-1.644-1.056c-.214.334-.443.777-.688 1.33a30.354 30.354 0 00-.74 1.843 48.645 48.645 0 00-1.35 4.347 28.556 28.556 0 00-.512-1.885c-.19-.616-.41-1.229-.658-1.84a24.404 24.404 0 00-.841-1.842 28.894 28.894 0 00-1.057-1.898l-1.651 1.056c.454.73.899 1.492 1.334 2.285a20.16 20.16 0 011.166 2.536c.342.897.616 1.861.822 2.892.206 1.03.31 2.148.31 3.353h1.971z" fill-opacity=".87" fill-rule="nonzero"/><path d="M558.232 225.358c.341-.166.677-.354 1.008-.563.33-.209.645-.437.943-.685.298-.247.574-.51.828-.79.253-.28.473-.575.657-.883.185-.309.329-.628.432-.96.104-.33.156-.672.156-1.025 0-.178-.015-.361-.043-.548a8.704 8.704 0 00-.106-.569c-.043-.193-.09-.387-.14-.584l-.15-.588a9.052 9.052 0 00-.152-.556 65.409 65.409 0 01-.17-.564l-1.157.366c.11.34.213.681.31 1.022l.14.512c.05.174.094.349.135.523.04.175.074.345.1.511.026.167.04.325.04.475 0 .394-.096.775-.286 1.145a4.51 4.51 0 01-.758 1.046 6.964 6.964 0 01-1.075.91 9.912 9.912 0 01-1.241.734l.53 1.071zm-2.276-10.999l.992-.992-.998-.998-.993.992.999.998zm-.974 6.641c.332 0 .642-.022.928-.067a2.82 2.82 0 00.776-.231c.231-.11.435-.256.612-.439.176-.182.325-.411.447-.687.122-.28.183-.605.183-.974 0-.065-.002-.13-.006-.195-.029-.45-.134-.97-.317-1.558a7.904 7.904 0 00-.195-.563 12.306 12.306 0 00-.334-.786 1.498 1.498 0 01-.055-.124l-1.084.535.53 1.303a3.959 3.959 0 01.274 1.038c.008.107.012.187.012.24 0 .098-.006.189-.018.274-.02.13-.05.237-.092.323a1.09 1.09 0 01-.304.398 1.28 1.28 0 01-.426.216 2.29 2.29 0 01-.542.089c-.199.01-.416.015-.651.015h-.706V221h.968zm-7.627-8.686l4.894-2.07-.286-.614-4.566 1.905-.042.779zm6.902 8.686v-1.193h-.17a4.062 4.062 0 01-.664-.06 2.172 2.172 0 01-.541-.171 2.384 2.384 0 01-.627-.42 2.84 2.84 0 01-.435-.524c-.12-.186-.22-.38-.299-.578-.079-.199-.15-.396-.216-.59a4.752 4.752 0 00-.441-.929 7.121 7.121 0 00-.657-.907 8.656 8.656 0 00-.834-.852c-.307-.274-.63-.53-.971-.77l4.82-2.033-.456-1.108-5.46 2.35-.164 1.345c.162.126.353.276.572.45a15.394 15.394 0 011.366 1.236c.226.231.423.465.594.7.17.235.298.458.383.667.086.209.128.398.128.569 0 .044-.002.089-.006.134-.024.215-.12.414-.289.596-.168.183-.431.341-.788.475-.272.105-.668.19-1.187.253-.52.062-1.193.112-2.021.149a7.446 7.446 0 01-.78-.012 10.485 10.485 0 01-1.752-.28 7.116 7.116 0 01-.798-.25 3.113 3.113 0 01-.627-.317 1.008 1.008 0 01-.359-.377.927.927 0 01-.091-.42v-.055c.008-.174.043-.355.103-.541.061-.187.14-.37.235-.548.095-.179.194-.34.295-.481l-.962-.718a1.723 1.723 0 00-.07.11 6.37 6.37 0 00-.478.925c-.178.405-.277.712-.295.918a5.821 5.821 0 00-.027.427c0 .247.036.474.11.681.093.272.24.514.44.725.202.21.44.396.716.557.276.16.583.295.922.404.339.11.694.2 1.065.268.372.07.752.119 1.142.15.39.03.775.045 1.156.045.718 0 1.346-.02 1.884-.058a7.414 7.414 0 001.41-.222c.4-.11.746-.264 1.034-.463.288-.198.54-.458.755-.779.36.503.82.882 1.375 1.135a4.443 4.443 0 001.839.387h.121z" fill-opacity=".56" fill-rule="nonzero"/><path d="M560.96 253.329c.302-.006.57-.04.802-.106a2.61 2.61 0 00.626-.262 2.24 2.24 0 00.489-.388c.14-.148.271-.309.391-.48.105.156.223.31.356.46.133.152.285.287.454.404a2.106 2.106 0 001.233.372h.11c.526 0 .993-.073 1.4-.22a2.888 2.888 0 001.069-.633c.29-.277.508-.61.657-1.002.149-.391.223-.83.223-1.315 0-.308-.025-.62-.074-.939a9.14 9.14 0 00-.196-.935 13.336 13.336 0 00-.783-2.18 6.439 6.439 0 00-.152-.313l-1.683.94c.089.182.193.411.313.688.12.277.234.571.34.884.108.313.199.634.275.963a4.1 4.1 0 01.113.916c0 .386-.117.673-.352.86-.235.188-.538.282-.908.282a1.145 1.145 0 01-.5-.113.91.91 0 01-.33-.282.963.963 0 01-.164-.376 2.012 2.012 0 01-.039-.387v-.125c.016-.22.038-.439.067-.658.028-.219.058-.429.09-.63.03-.2.06-.387.09-.56.028-.171.05-.32.066-.445l-1.831-.352c-.032.219-.075.466-.13.743-.054.277-.122.56-.203.85-.08.289-.177.572-.29.848a3.875 3.875 0 01-.39.74 2.065 2.065 0 01-.506.524c-.187.133-.399.2-.633.2-.22 0-.377-.064-.474-.192a.74.74 0 01-.16-.387 4.02 4.02 0 01-.016-.274c0-.167.018-.347.055-.54.047-.256.105-.51.176-.763.07-.253.145-.493.223-.72.078-.227.14-.414.188-.56l-1.957-.43-.195.74c-.073.273-.16.551-.259.833-.099.281-.215.555-.348.821a3.636 3.636 0 01-.462.713 2.116 2.116 0 01-.602.5 1.569 1.569 0 01-.771.188h-.313v2.004h.282c.365 0 .683-.032.954-.094.272-.063.508-.148.709-.254.2-.107.37-.229.508-.364.139-.136.257-.277.356-.423.115.167.242.326.38.477.138.152.292.283.462.396.17.112.354.2.555.262.201.062.419.094.654.094h.055zm-8.734-9.235l1.502-1.503-1.502-1.494-1.495 1.494 1.495 1.503zm-3.859 9.14c.376 0 .763-.012 1.163-.038.399-.026.778-.067 1.138-.122.36-.054.685-.124.975-.207.29-.084.512-.183.669-.297.219.15.47.27.755.356.284.086.59.152.92.2.328.046.68.076 1.052.09.373.012.76.019 1.162.019h.157v-2.004h-.211a10.765 10.765 0 01-1.66-.14c.235-.33.427-.683.576-1.061.148-.378.223-.77.223-1.178a3.693 3.693 0 00-.853-2.324 3.309 3.309 0 00-.943-.779c-.363-.2-.756-.309-1.178-.325h-.086c-.261 0-.514.045-.76.133-.276.1-.534.24-.774.42s-.46.39-.658.633a4.186 4.186 0 00-.504.779 3.607 3.607 0 00-.298.81c-.06.263-.09.502-.09.716 0 .068.003.135.008.203.005.266.046.51.121.732.076.222.167.42.274.595.107.175.223.326.348.454.126.128.24.225.345.293-.235.026-.52.04-.857.04h-1.17v2.003h.156zm3.976-2.566a1.877 1.877 0 01-.58-.27 3.308 3.308 0 01-.5-.415 2.394 2.394 0 01-.352-.446c-.089-.149-.133-.27-.133-.364 0-.287.053-.535.16-.743a1.895 1.895 0 01.885-.865c.174-.081.33-.135.465-.16.13.025.27.087.419.183a2.085 2.085 0 01.743.861c.087.185.13.38.13.583 0 .146-.036.299-.106.458-.07.16-.163.313-.278.462a2.668 2.668 0 01-.395.41 2.331 2.331 0 01-.458.306zm-10.23 2.566c.287-.001.594-.005.92-.011.437-.008.86-.04 1.273-.094.412-.055.786-.14 1.123-.258.336-.118.59-.286.763-.505.245.256.542.464.892.626.35.162.777.243 1.283.243h.157v-2.004h-.157a.998.998 0 01-.563-.16 1.533 1.533 0 01-.411-.4c-.112-.158-.2-.333-.262-.524a2.46 2.46 0 01-.118-.536 47.77 47.77 0 00-.058-.716c-.018-.2-.04-.388-.063-.563a6.142 6.142 0 00-.094-.525 9.508 9.508 0 00-.16-.606l-1.925.54c.135.464.237.844.305 1.139.068.294.102.53.102.708 0 .271-.058.51-.173.716-.114.206-.3.377-.56.513-.257.135-.595.238-1.013.309-.417.07-.931.105-1.541.105h-.29v2.004l.57-.001zm1.01 3.648l1.331-1.33-1.346-1.347-1.33 1.338 1.346 1.339zm2.96.015l1.33-1.338-1.346-1.338-1.33 1.33 1.345 1.346zm-4.227-3.662v-2.004h-.18a1.2 1.2 0 01-.481-.09 1.18 1.18 0 01-.368-.25 1.658 1.658 0 01-.282-.384 5.045 5.045 0 01-.23-.489l-1.965-4.735-.352-.845c-.11-.26-.209-.506-.298-.735l-1.854.774 2.496 6.026c-.135.1-.296.192-.481.278a4.57 4.57 0 01-1.198.368c-.206.034-.4.051-.583.051-.375 0-.77-.098-1.181-.293-.412-.196-.856-.513-1.33-.951l-1.151 1.62a6.13 6.13 0 001.624 1.22c.576.293 1.19.439 1.843.439.344 0 .67-.015.978-.043a5.79 5.79 0 00.892-.153 4.404 4.404 0 001.589-.767c.125.136.256.262.391.38.136.117.292.219.47.305.177.086.385.154.622.203.237.05.52.075.85.075h.18z" fill-opacity=".87" fill-rule="nonzero"/><path fill-opacity=".12" d="M249 277h362v1H249z"/></g></svg>