<svg width="860" height="224" xmlns="http://www.w3.org/2000/svg"><g fill="none" fill-rule="evenodd"><rect fill="none" width="860" height="224" rx="4"/><g fill="#000000"><path d="M108 111h488v1H108z" fill-opacity=".12"/><path d="M179.137 92c.283 0 .55-.014.8-.042.25-.028.487-.08.71-.16.223-.079.432-.192.63-.34.197-.149.386-.346.566-.592.214.158.446.312.696.463.25.15.511.278.783.382a3.005 3.005 0 001.123.226c.19 0 .38-.025.57-.076a1.66 1.66 0 00.766-.449c.209-.215.373-.468.494-.758.12-.29.195-.555.222-.797.028-.24.042-.436.042-.584 0-.167-.011-.33-.035-.487a4.21 4.21 0 00-.247-.918 2.864 2.864 0 00-.476-.807c-.2-.237-.44-.428-.72-.574a2.071 2.071 0 00-.97-.22c-.307 0-.574.062-.804.185-.23.123-.434.283-.612.48a3.668 3.668 0 00-.48.675c-.142.253-.275.509-.4.769-.144.287-.287.567-.428.838a3.398 3.398 0 01-.5.723c-.193.211-.426.38-.7.508-.274.128-.617.192-1.03.192h-.139V92h.14zm5.287-1.447c-.185 0-.394-.046-.626-.14-.348-.138-.732-.363-1.155-.674l.376-.758c.116-.227.22-.424.31-.591a3.74 3.74 0 01.257-.418.985.985 0 01.244-.247.466.466 0 01.26-.08c.14 0 .262.028.37.084.106.055.199.126.277.212.08.086.146.18.202.285a2.264 2.264 0 01.216.567c.018.079.03.135.035.167.018.125.027.246.027.362a2.082 2.082 0 01-.129.703c-.053.138-.116.252-.19.34a.444.444 0 01-.23.16 1.003 1.003 0 01-.244.028zm-11.207-7.158l1.03-1.03-1.037-1.036-1.03 1.03 1.037 1.036zm-1.572 2.198l1.127-1.134-1.14-1.14-1.128 1.133 1.141 1.141zm3.054.007l1.127-1.127-1.14-1.14-1.128 1.126L174.7 85.6zm-4.195 6.42c.228 0 .444-.033.65-.1.207-.067.402-.162.585-.285.183-.123.353-.267.508-.432.155-.164.296-.344.42-.539.172.413.432.739.78.978.348.239.754.358 1.217.358.237 0 .46-.035.668-.104a2.24 2.24 0 001.058-.745c.139-.176.255-.373.347-.591.121.223.267.422.439.598.171.176.36.327.567.452.206.126.425.222.657.29.232.066.468.1.71.1h.167v-1.363h-.167c-.334 0-.637-.14-.908-.421-.272-.28-.5-.706-.685-1.277a5.48 5.48 0 01-.164-.591 9.327 9.327 0 01-.16-1.012l-.045-.463-1.364.111c.01.167.018.341.025.522a12.38 12.38 0 01.003.863 7.77 7.77 0 01-.07.803 3.115 3.115 0 01-.184.724c-.086.215-.2.39-.344.521a.78.78 0 01-.55.199c-.232 0-.415-.063-.55-.188a1.1 1.1 0 01-.295-.487c-.062-.2-.097-.38-.104-.543a5.315 5.315 0 01.017-.897c.019-.255.047-.499.084-.73.037-.232.067-.43.09-.592l-1.356-.257c-.024.213-.057.453-.101.72a8.21 8.21 0 01-.442 1.617 3.239 3.239 0 01-.369.703c-.144.204-.31.368-.497.494-.188.125-.4.187-.637.187-.19 0-.335-.064-.434-.194a.958.958 0 01-.188-.449 3.207 3.207 0 01-.032-.74c.014-.251.041-.498.08-.742a19.327 19.327 0 01.233-1.165l-1.335-.369c-.028.112-.058.244-.09.397a7.058 7.058 0 01-.13.504 9.977 9.977 0 01-.19.585 5.792 5.792 0 01-.272.63c-.102.19-.22.376-.355.56a3.353 3.353 0 01-.441.493c-.16.146-.332.263-.515.351a1.294 1.294 0 01-.567.133h-.146V92h.146a2.578 2.578 0 001.37-.38c.195-.117.374-.26.536-.427.162-.167.315-.352.459-.556a1.903 1.903 0 001.242 1.286c.202.065.411.098.63.098zM166.4 92v-1.363h-.14a2.77 2.77 0 01-.754-.09c-.21-.061-.37-.145-.476-.251a.58.58 0 01-.185-.359 3.758 3.758 0 01-.024-.441v-3.493a48.553 48.553 0 00-.066-2.546c-.021-.403-.047-.776-.077-1.12-.03-.343-.066-.633-.108-.87l-1.363.251c.042.218.078.498.108.839.03.34.055.713.076 1.116.021.404.036.82.046 1.252.009.432.013.847.013 1.245.005.409.007.796.007 1.162 0 .371-.002.7-.007.988a211.374 211.374 0 00-.013 1.037c0 .11.002.244.006.4a2.686 2.686 0 00.247 1.012c.082.176.199.34.352.494.25.25.555.436.915.556.359.12.794.181 1.304.181h.139zm-11.123 4.883a8.398 8.398 0 001.405-.344c.459-.155.896-.348 1.311-.577.415-.23.802-.498 1.162-.804a5.91 5.91 0 00.95-1.022c.273-.376.498-.785.674-1.228.176-.443.29-.92.341-1.43a6.442 6.442 0 00.007-1.266 6.891 6.891 0 00-.23-1.217 5.77 5.77 0 00-.434-1.096 4.275 4.275 0 00-.623-.9c-.552-.594-1.157-.891-1.816-.891a1.77 1.77 0 00-.859.226 2.61 2.61 0 00-.768.664c-.195.25-.365.549-.508.894a3.926 3.926 0 00-.275.925c-.04.272-.06.495-.06.672 0 .185.017.37.05.556.055.353.19.663.403.932.482.599 1.227.928 2.233.988.255.023.483.035.685.035h.79c-.051.348-.194.701-.428 1.06-.234.36-.553.7-.957 1.02-.403.32-.888.608-1.453.863a8.976 8.976 0 01-1.92.598l.32 1.342zm3.755-6.26h-.048c-.204 0-.422-.007-.654-.021a3.506 3.506 0 01-.295-.032 2.472 2.472 0 01-.348-.076 1.635 1.635 0 01-.334-.14.819.819 0 01-.26-.225.651.651 0 01-.143-.33 2.434 2.434 0 01-.025-.31 3.16 3.16 0 01.153-.908c.065-.202.145-.384.24-.546.095-.163.203-.296.324-.4a.577.577 0 01.382-.157c.084 0 .163.014.237.042.074.028.145.064.212.108s.13.093.188.146c.058.053.11.103.156.15.116.134.229.293.338.476.109.183.207.388.295.616.089.227.16.473.216.737.056.264.09.545.104.842-.18.014-.344.022-.49.024l-.296.004h.048zm-10.044 6.358c.39-.19.773-.405 1.151-.644.378-.238.738-.5 1.078-.782a9.21 9.21 0 00.946-.905c.29-.32.54-.656.752-1.008.21-.353.375-.718.494-1.096.118-.378.177-.769.177-1.172 0-.204-.016-.413-.049-.626a9.948 9.948 0 00-.121-.65 19.8 19.8 0 00-.16-.668 95.354 95.354 0 01-.17-.672 10.346 10.346 0 00-.175-.636c-.065-.211-.13-.426-.194-.644l-1.322.418c.125.39.243.779.355 1.168.05.19.104.385.16.585.055.2.106.399.153.598.046.2.084.394.114.584.03.19.046.371.046.543 0 .45-.11.886-.327 1.308-.218.422-.507.82-.866 1.196-.36.376-.77.723-1.228 1.04-.46.318-.932.597-1.42.839l.606 1.224zm-5.621-4.918c.065-.77.103-1.496.115-2.178.011-.682.017-1.226.017-1.635 0-.677-.007-1.4-.02-2.17a63.584 63.584 0 00-.356-5.064l-1.363.208c.158 1.461.283 3.316.376 5.566.014.384.02.793.02 1.224 0 .357-.004.73-.013 1.12a64.7 64.7 0 01-.146 2.852l1.37.077zM132.605 92c.283 0 .55-.014.8-.042.25-.028.487-.08.71-.16.222-.079.432-.192.63-.34.196-.149.385-.346.566-.592.214.158.446.312.696.463.25.15.511.278.783.382a3.005 3.005 0 001.123.226c.19 0 .38-.025.57-.076a1.66 1.66 0 00.766-.449c.208-.215.373-.468.494-.758.12-.29.194-.555.222-.797.028-.24.042-.436.042-.584 0-.167-.012-.33-.035-.487a4.21 4.21 0 00-.247-.918 2.864 2.864 0 00-.476-.807c-.2-.237-.44-.428-.72-.574a2.071 2.071 0 00-.97-.22c-.307 0-.575.062-.804.185-.23.123-.434.283-.612.48a3.668 3.668 0 00-.48.675c-.142.253-.275.509-.4.769-.144.287-.287.567-.428.838a3.398 3.398 0 01-.501.723c-.193.211-.426.38-.7.508-.273.128-.616.192-1.029.192h-.139V92h.14zm5.287-1.447c-.185 0-.394-.046-.626-.14-.348-.138-.733-.363-1.155-.674l.376-.758c.116-.227.22-.424.31-.591a3.74 3.74 0 01.257-.418.985.985 0 01.243-.247.466.466 0 01.261-.08c.14 0 .262.028.369.084.107.055.2.126.278.212.08.086.146.18.202.285a2.264 2.264 0 01.216.567c.018.079.03.135.034.167.019.125.028.246.028.362a2.082 2.082 0 01-.129.703c-.053.138-.117.252-.19.34a.444.444 0 01-.23.16 1.003 1.003 0 01-.244.028zm-11.916 1.962c.088 0 .178-.003.271-.007a7.422 7.422 0 001.28-.153 6.814 6.814 0 001.558-.57 4.24 4.24 0 001.197-.94c.171.278.365.495.58.65.216.156.424.27.623.345.2.074.377.12.532.136.156.016.259.024.31.024h.417v-1.363h-.139c-.19 0-.37-.027-.542-.08a1.282 1.282 0 01-.463-.258 1.367 1.367 0 01-.337-.456 1.972 1.972 0 01-.167-.674l-.105-1.232a1437.193 1437.193 0 01-.222-2.598l-.105-1.228-.09-1.085a568.805 568.805 0 00-.122-1.45 9.727 9.727 0 01-.017-.226l-1.364.146a1050.979 1050.979 0 01.115 1.172c.035.355.073.766.115 1.235l.132 1.485a134.838 134.838 0 01.244 3.169 1.577 1.577 0 01-.035.598 1.95 1.95 0 01-.233.542c-.105.167-.232.32-.383.46-.15.139-.316.26-.497.361a14.034 14.034 0 00-.766-2.39 25.634 25.634 0 00-1.37-2.778 31.609 31.609 0 00-1.21-2.007 27.53 27.53 0 00-.393-.588 2.885 2.885 0 01-.157-.237l-1.12.793a41.691 41.691 0 01.508.751c.153.232.327.508.522.828.194.32.398.67.612 1.047.213.378.426.778.64 1.2.213.422.414.851.602 1.287.187.436.353.873.497 1.312.144.438.253.861.327 1.27a5.072 5.072 0 01-.856.128c-.208.007-.348.01-.417.01a3.87 3.87 0 01-.758-.07l-.237 1.357c.339.056.68.084 1.023.084zm-11.186-.536c.31 0 .638-.006.984-.017.345-.012.694-.037 1.047-.077.352-.04.704-.094 1.054-.163.35-.07.685-.164 1.005-.282.32-.118.62-.264.897-.438.279-.174.524-.382.738-.623.287-.413.455-.757.504-1.033.049-.276.073-.49.073-.643 0-.223-.028-.441-.083-.654a3.478 3.478 0 00-.498-1.058 8.094 8.094 0 00-.824-1.012 14.258 14.258 0 00-1.026-.974c-.369-.317-.736-.632-1.103-.942l5.301-2.22-.536-1.266-5.982 2.498-.174 1.593c.158.139.343.295.556.47.214.173.438.359.672.556.234.197.47.403.706.619.236.216.458.436.664.66.207.226.389.452.546.68.158.226.267.433.327.618.06.186.09.35.09.494 0 .065-.004.13-.013.195a1.144 1.144 0 01-.3.591c-.356.39-.901.668-1.634.835-.733.167-1.575.25-2.525.25-.144 0-.293-.002-.446-.006a16.919 16.919 0 01-1.79-.126 9.864 9.864 0 01-1.434-.281 4.003 4.003 0 01-1.036-.439c-.276-.174-.477-.372-.602-.594a.882.882 0 01-.098-.425v-.09c.014-.195.056-.4.126-.612.07-.214.156-.426.26-.637a8.49 8.49 0 01.31-.574l-1.099-.814-.087.122a3.427 3.427 0 00-.153.243 7.28 7.28 0 00-.191.355c-.07.137-.135.289-.195.456-.25.598-.377 1.02-.38 1.266l-.002.34v.057c0 .44.092.83.278 1.168.194.353.482.652.862.898.38.245.833.445 1.357.598.524.153 1.112.264 1.763.334.652.07 1.349.104 2.09.104z" fill-opacity=".87" fill-rule="nonzero"/><path d="M591.791 81.58c.019-.057.048-.132.087-.227.04-.095.088-.19.146-.285.058-.095.124-.179.199-.25a.404.404 0 01.236-.122.896.896 0 01.417.028c.135.041.278.091.428.149.151.058.312.114.484.167.171.053.362.08.57.08h.042c.162 0 .315-.023.46-.07.157-.05.302-.116.434-.194.132-.08.252-.166.358-.261.107-.095.198-.186.275-.272a2.384 2.384 0 00.247-.323l-.793-.515a4.153 4.153 0 01-.136.167c-.062.074-.139.15-.23.226a1.45 1.45 0 01-.288.192.68.68 0 01-.306.076h-.028a1.553 1.553 0 01-.4-.063 4.217 4.217 0 01-.372-.132 5.284 5.284 0 00-.46-.167 1.856 1.856 0 00-.556-.076c-.2 0-.394.043-.584.129-.19.085-.364.201-.522.347a2.093 2.093 0 00-.626 1.11l.918.285zm2.56 10.42c.065-.46.103-.977.115-1.555.012-.577.017-1.051.017-1.422 0-.617-.006-1.31-.02-2.08a63.803 63.803 0 00-.09-2.366 93.008 93.008 0 00-.189-2.643l-1.363.209c.065.626.123 1.396.174 2.31.05.913.093 1.98.125 3.2a31.945 31.945 0 01-.007 2.12c-.023.71-.067 1.427-.132 2.15l1.37.077zm-9.648-9.927l5.593-2.365-.327-.703-5.218 2.178-.048.89zm1.51 9.927c.24 0 .442-.016.604-.049.984-.18 1.682-.637 2.094-1.37.098-.176.182-.371.254-.584.072-.214.116-.405.132-.574.017-.17.025-.303.025-.4a3.57 3.57 0 00-.042-.53 4.165 4.165 0 00-.25-.903 5.846 5.846 0 00-.53-1.013 8.611 8.611 0 00-.869-1.116 10.844 10.844 0 00-.8-.8c-.269-.241-.517-.46-.744-.654l4.98-2.094-.535-1.266-5.718 2.449-.16 1.426c.38.306.754.635 1.12.988.366.352.698.696.995 1.033.297.336.546.651.748.946.201.294.328.537.379.727.065.25.097.484.097.702a1.71 1.71 0 01-.278.946c-.13.195-.309.345-.536.449-.227.104-.478.18-.751.23a5.667 5.667 0 01-.863.083c-.301.007-.591.01-.87.01h-.869V92h2.386zm-4.578 4.577l.87-1.057a1.722 1.722 0 01-.446-.668 2.072 2.072 0 01-.118-.668 2.212 2.212 0 01.198-.88 2.38 2.38 0 01.428-.65c.176-.19.38-.344.609-.463.23-.118.474-.182.734-.191h.194v-1.363h-.139c-.269 0-.537.04-.803.121a3.587 3.587 0 00-1.986 1.52 2.731 2.731 0 00-.41 1.628 1.635 1.635 0 01-.429-.386 4.654 4.654 0 01-.379-.546 6.47 6.47 0 01-.31-.584 13.13 13.13 0 01-.218-.494c.31-.051.607-.134.89-.247.283-.114.545-.258.786-.432a3.317 3.317 0 001.12-1.415c.084-.2.133-.4.15-.602.016-.202.024-.365.024-.49 0-.172-.01-.35-.028-.536a5.268 5.268 0 00-.198-.929 3.399 3.399 0 00-.372-.824 1.945 1.945 0 00-.532-.57 1.156 1.156 0 00-.672-.21h-.07a1.673 1.673 0 00-.869.286 2.925 2.925 0 00-.713.685c-.21.28-.394.598-.55.953a8.207 8.207 0 00-.386 1.078c-.102.365-.172.7-.212 1.01-.04.308-.059.57-.059.789 0 .07.002.134.007.195h-1.12V92h1.377l.063.174a7.784 7.784 0 001.238 2.33c.293.38.631.747 1.016 1.1.385.352.823.677 1.315.973zm-2.303-6.01c-.07 0-.141-.005-.215-.014a2.48 2.48 0 01-.021-.334c0-.102.004-.209.014-.32.023-.241.066-.487.128-.737.063-.25.14-.496.233-.738.093-.24.197-.458.313-.65.116-.193.238-.35.366-.473a.669.669 0 01.386-.205c.208.153.36.35.455.591.095.241.142.496.14.765a2.359 2.359 0 01-.15.8c-.098.265-.233.5-.407.706-.174.207-.369.36-.584.46-.216.1-.435.149-.658.149zm-8.723 5.969c.306 0 .649-.021 1.03-.063.38-.042.763-.111 1.15-.209a7.705 7.705 0 001.131-.379c.366-.155.693-.346.98-.574.288-.227.52-.494.697-.8a2.118 2.118 0 00.243-1.37 1.463 1.463 0 00-.111-.362 1.989 1.989 0 00-.233-.386 2.356 2.356 0 00-.386-.393h1.794v-1.363h-5.488l-.105 1.356.153.028a9.7 9.7 0 01.668.153c.14.037.289.079.449.125.16.047.321.098.483.153.265.098.487.195.668.292.181.098.328.19.442.275.114.086.196.167.247.244a.377.377 0 01.076.198.864.864 0 01-.233.598c-.155.172-.353.32-.594.445a4.37 4.37 0 01-.81.317 8.716 8.716 0 01-1.68.313c-.247.02-.437.031-.571.031-.232 0-.498-.004-.797-.014-.299-.009-.6-.046-.904-.111a3.453 3.453 0 01-.877-.317 1.949 1.949 0 01-.706-.63c-.292-.444-.438-1.024-.438-1.738 0-1.127.364-2.586 1.092-4.376l-1.273-.515c-.728 1.763-1.122 3.275-1.183 4.536-.004.116-.006.23-.006.34 0 1.017.224 1.854.674 2.512.214.362.488.653.825.873.336.22.702.39 1.099.512.396.12.81.2 1.242.24.43.039.848.059 1.252.059zm-9.823-4.543c.278 0 .558-.02.838-.063.28-.041.551-.109.81-.201.26-.093.503-.212.728-.359.225-.146.42-.32.588-.525a1.685 1.685 0 00.362-.737c.036-.162.056-.348.058-.557a3.214 3.214 0 00-.08-.702 5.056 5.056 0 00-.316-.908 7.36 7.36 0 00-.508-.932 9.21 9.21 0 00-1.409-1.708 7.958 7.958 0 00-.81-.675 4.88 4.88 0 00-.824-.487l-.564 1.266c.209.093.422.218.64.376.218.158.433.338.644.542.21.205.414.424.608.658.195.234.372.475.532.723.16.248.297.497.41.745.115.248.197.485.248.713.037.167.056.31.056.431 0 .167-.035.292-.105.376-.158.19-.352.331-.584.424-.232.093-.44.147-.626.164a3.996 3.996 0 01-.96-.01 5.912 5.912 0 01-1.621-.443 4.229 4.229 0 01-.62-.323l-.57 1.308c.116.106.3.213.55.32a8.429 8.429 0 001.736.504c.303.053.566.08.79.08zm-8.118.028c.162 0 .34-.007.535-.021a5.445 5.445 0 001.134-.205c.177-.054.33-.12.46-.198.486-.26.85-.586 1.088-.978.24-.392.358-.817.358-1.276 0-.613-.213-1.215-.64-1.81a2.929 2.929 0 00-.605-.583 7.993 7.993 0 00-.9-.578c-.341-.19-.712-.38-1.114-.57-.4-.19-.817-.38-1.248-.57l-2.421-.995-.661 1.252.55.215a2.495 2.495 0 00-.717.512c-.2.206-.365.429-.497.667a3.108 3.108 0 00-.386 1.478c0 .34.086.69.26 1.055.174.364.435.734.783 1.11a10.684 10.684 0 01-.884.083c-.171.009-.362.016-.573.02a33.88 33.88 0 01-.734.008h-.188V92h.188c.329 0 .67-.007 1.022-.02.353-.015.698-.037 1.037-.067.338-.03.662-.07.97-.122a6.64 6.64 0 00.832-.188 5.4 5.4 0 001.165.327c.382.06.778.09 1.186.09zm-2.421-1.906a4.73 4.73 0 01-.5-.38 2.933 2.933 0 01-.415-.438 2.078 2.078 0 01-.282-.497 1.502 1.502 0 01-.104-.557c0-.208.044-.426.132-.653.088-.228.21-.432.365-.613.156-.18.322-.313.498-.396.176-.084.343-.125.5-.125.084 0 .17.009.258.027.2.042.36.118.484.227.123.109.218.234.285.375.067.142.111.29.132.445.02.156.031.303.031.442a2.392 2.392 0 01-.769 1.74c-.173.162-.379.296-.615.403zm2.289.57a3.577 3.577 0 01-.64-.049c.176-.185.336-.389.48-.612.143-.222.265-.448.365-.678.1-.23.177-.458.233-.685.056-.227.083-.438.083-.633 0-.14-.002-.288-.007-.445a2.018 2.018 0 00-.083-.501c.33.153.617.322.863.508.245.185.45.374.615.567.165.192.289.383.372.573.084.19.126.367.126.53 0 .19-.043.371-.13.545a1.192 1.192 0 01-.416.456c-.193.13-.442.233-.748.31a4.652 4.652 0 01-1.113.114zm-8.96-5.099l1.134-1.134-1.141-1.14-1.134 1.133 1.14 1.141zM541.62 92c.682 0 1.254-.07 1.718-.212.464-.142.842-.358 1.134-.65.2.254.455.462.765.622.311.16.7.24 1.169.24h.14v-1.363h-.14c-.237 0-.43-.054-.58-.16a1.141 1.141 0 01-.356-.404 1.905 1.905 0 01-.184-.529 4.913 4.913 0 01-.077-.542 21.335 21.335 0 00-.125-1.204 6.534 6.534 0 00-.202-.946l-1.307.369c.102.352.172.665.212.939.04.274.059.543.059.807 0 .552-.176.968-.529 1.249-.352.28-.918.42-1.697.42h-.258V92h.258zm.02 0v-1.363h-.138c-.279 0-.508-.036-.69-.108a1.244 1.244 0 01-.451-.3 1.755 1.755 0 01-.31-.466 15.474 15.474 0 01-.268-.608c-.18-.422-.351-.827-.511-1.214a3908.503 3908.503 0 01-1.617-3.927l-1.266.529 2.198 5.287a2.64 2.64 0 01-.925.584c-.25.097-.463.154-.637.17a4.617 4.617 0 01-.393.025c-.185 0-.371-.021-.556-.063a3.191 3.191 0 01-.842-.32 4.114 4.114 0 01-.842-.619l-.786 1.106c.394.408.824.725 1.29.95a3.45 3.45 0 001.52.337c.33 0 .626-.02.89-.06a4.2 4.2 0 00.735-.173c.225-.077.436-.173.633-.289.197-.116.393-.25.588-.403a2.4 2.4 0 00.347.358c.135.114.291.212.47.296.179.083.385.15.62.198.233.049.501.073.803.073h.139zm-12.43 0c.083 0 .186-.003.309-.01s.254-.024.393-.05c.14-.025.285-.06.438-.103.153-.045.304-.104.452-.178.409-.2.718-.475.93-.828.21-.352.316-.767.316-1.245 0-.478-.14-.997-.418-1.558-.278-.561-.702-1.167-1.273-1.816a13.94 13.94 0 00-.584-.615c-.19-.188-.36-.352-.511-.49l-.205-.187a8.462 8.462 0 00-.16-.14 1.407 1.407 0 01-.147-.133l-.876 1.064c0 .005.042.042.125.112.083.07.195.167.334.292a9.895 9.895 0 00-.814.848c-.756.91-1.134 1.784-1.134 2.623 0 .478.114.892.341 1.242.227.35.563.63 1.009.838.171.084.34.148.507.195.167.046.32.08.456.1a2.818 2.818 0 00.451.038l.06.001zm.05-1.385h-.05a2.245 2.245 0 01-.362-.034 2.836 2.836 0 01-.258-.06 1.662 1.662 0 01-.271-.1 1.07 1.07 0 01-.3-.188.867.867 0 01-.17-.212.669.669 0 01-.076-.22 1.397 1.397 0 01-.017-.215c0-.236.054-.475.163-.716a4.18 4.18 0 01.4-.696c.158-.223.326-.427.504-.612.179-.186.335-.339.47-.46.45.488.793.947 1.03 1.378.236.431.354.8.354 1.106 0 .209-.038.38-.115.511a.918.918 0 01-.372.338c-.088.042-.18.074-.278.097-.097.023-.19.042-.278.056-.088.014-.17.022-.244.024a6.035 6.035 0 01-.18.004h.05z" fill-opacity=".56" fill-rule="nonzero"/></g><path d="M108 159h488v1H108z" fill="#000000" fill-opacity=".12"/><path d="M198.129 140.083c.431 0 .809-.06 1.134-.18.334-.121.612-.295.834-.522.223-.227.39-.502.501-.824a3.3 3.3 0 00.167-1.082c0-.265-.024-.536-.073-.814a7.696 7.696 0 00-.188-.814 12.239 12.239 0 00-.859-2.17l-1.217.64a12.273 12.273 0 01.588 1.422c.1.295.185.595.257.901.072.306.108.591.108.856a2 2 0 01-.07.55.93.93 0 01-.226.403.764.764 0 01-.355.212 1.566 1.566 0 01-.4.052c-.078 0-.162-.005-.25-.014a.65.65 0 01-.351-.136.847.847 0 01-.23-.292 1.47 1.47 0 01-.125-.41 3.026 3.026 0 01-.038-.49c0-.19.014-.408.041-.651.028-.243.06-.473.094-.689.035-.215.066-.4.094-.553l.035-.222-1.336-.244c-.027.19-.066.414-.114.671a9.558 9.558 0 01-.188.797 7.21 7.21 0 01-.279.807c-.109.264-.236.5-.382.71a2.008 2.008 0 01-.501.507c-.188.13-.4.195-.637.195a.735.735 0 01-.368-.083.622.622 0 01-.23-.223.974.974 0 01-.118-.316 1.894 1.894 0 01-.035-.366c0-.18.019-.377.056-.588.037-.21.081-.417.132-.619a12.77 12.77 0 01.292-.998l-1.377-.292c-.047.227-.102.468-.167.723a7.783 7.783 0 01-.237.762 5.556 5.556 0 01-.327.727 2.873 2.873 0 01-.441.616c-.17.178-.363.322-.581.431a1.626 1.626 0 01-.738.164h-.153V140h.146c.27 0 .516-.022.741-.066a2.704 2.704 0 001.13-.494c.158-.118.307-.252.446-.4.074.172.18.322.316.452.137.13.29.239.456.327.167.088.342.154.525.198.183.044.36.066.532.066.395 0 .768-.095 1.12-.285.353-.19.668-.447.947-.772.097.148.215.286.354.414.14.128.29.239.453.334.162.095.332.17.51.226.18.056.357.083.533.083h.049zM184.98 140c.436 0 .815-.017 1.137-.052.323-.035.604-.088.845-.16a2.598 2.598 0 001.114-.65c.199.254.454.462.765.622.31.16.7.24 1.168.24h.14v-1.363h-.14c-.236 0-.43-.054-.58-.16a1.141 1.141 0 01-.355-.404 1.905 1.905 0 01-.185-.529 4.913 4.913 0 01-.076-.542 21.336 21.336 0 00-.125-1.204 6.534 6.534 0 00-.202-.946l-1.308.369c.102.352.173.665.212.939.04.274.06.543.06.807 0 .278-.047.522-.14.73a1.256 1.256 0 01-.434.522c-.198.14-.453.244-.766.313-.313.07-.69.105-1.13.105h-1.037V140h1.037zm.257 3.402l1.127-1.127-1.14-1.141-1.128 1.134 1.141 1.134zm2.852.014l1.127-1.134-1.14-1.134-1.127 1.127 1.14 1.14zm-8.25-10.004l1.127-1.127-1.14-1.14-1.128 1.133 1.141 1.134zm2.852.014l1.127-1.134-1.14-1.134-1.128 1.127 1.141 1.141zM179.054 140c.436 0 .815-.017 1.137-.052.323-.035.604-.088.846-.16a2.598 2.598 0 001.113-.65c.199.254.454.462.765.622.31.16.7.24 1.168.24h.14v-1.363h-.14c-.236 0-.43-.054-.58-.16a1.141 1.141 0 01-.355-.404 1.905 1.905 0 01-.185-.529 4.913 4.913 0 01-.076-.542 21.336 21.336 0 00-.125-1.204 6.534 6.534 0 00-.202-.946l-1.308.369c.102.352.173.665.212.939.04.274.06.543.06.807 0 .278-.047.522-.14.73a1.256 1.256 0 01-.434.522c-.198.14-.453.244-.766.313-.313.07-.69.105-1.13.105h-1.037V140h1.037zm-6.824 5.134a12.712 12.712 0 001.704-1.03 9.084 9.084 0 001.471-1.304 6.295 6.295 0 001.033-1.54c.26-.553.39-1.132.39-1.74v-.028c.116.125.238.223.365.292a1.686 1.686 0 00.713.209c.102.005.186.007.25.007h.119v-1.363h-.112c-.231 0-.444-.056-.636-.167a1.88 1.88 0 01-.553-.526 4.913 4.913 0 01-.515-.925 15.038 15.038 0 01-.515-1.374l-1.307.404c.055.171.122.386.201.643.08.258.158.532.237.825.079.292.152.59.219.893.067.304.117.588.15.853a2.596 2.596 0 01-.077.94c-.084.31-.21.609-.38.896-.168.288-.376.562-.622.824a8.04 8.04 0 01-.807.748 9.486 9.486 0 01-.932.665c-.33.206-.66.395-.995.567l.599 1.23zm-6.393-.25a8.398 8.398 0 001.405-.345c.459-.155.896-.348 1.311-.577.415-.23.802-.498 1.162-.804a5.91 5.91 0 00.95-1.022c.273-.376.498-.785.674-1.228.176-.443.29-.92.341-1.43a6.442 6.442 0 00.007-1.266 6.891 6.891 0 00-.23-1.217 5.77 5.77 0 00-.434-1.096 4.275 4.275 0 00-.623-.9c-.552-.594-1.157-.891-1.816-.891a1.77 1.77 0 00-.859.226 2.61 2.61 0 00-.768.664c-.195.25-.365.549-.508.894a3.926 3.926 0 00-.275.925c-.04.272-.06.495-.06.672 0 .185.017.37.05.556.055.353.19.663.403.932.482.599 1.227.928 2.233.988.255.023.483.035.685.035h.79c-.051.348-.194.701-.428 1.06-.234.36-.553.7-.957 1.02-.403.32-.888.608-1.453.863a8.976 8.976 0 01-1.92.598l.32 1.342zm3.755-6.262h-.048c-.204 0-.422-.006-.654-.02a3.506 3.506 0 01-.295-.032 2.472 2.472 0 01-.348-.076 1.635 1.635 0 01-.334-.14.819.819 0 01-.26-.225.651.651 0 01-.143-.33 2.434 2.434 0 01-.025-.31 3.16 3.16 0 01.153-.908c.065-.202.145-.384.24-.546.095-.163.203-.296.324-.4a.577.577 0 01.382-.157c.084 0 .163.014.237.042.074.028.145.064.212.108s.13.093.188.146c.058.053.11.103.156.15.116.134.229.293.338.476.109.183.207.388.295.616.089.227.16.473.216.737.056.264.09.545.104.842-.18.014-.344.022-.49.024l-.296.004h.048zm-8.945-5.44l1.58-.876 1.683-.988-.41-.542-.968.521a.598.598 0 01-.292.077h-.028a.894.894 0 01-.33-.077 1.103 1.103 0 01-.498-.445.539.539 0 01-.07-.222v-.105a.76.76 0 01.05-.264.826.826 0 01.163-.264.775.775 0 01.268-.188.719.719 0 01.219-.06 1.828 1.828 0 01.483.01c.093.015.216.038.37.07l.194-.64-.264-.062a3.035 3.035 0 00-.265-.049c-.097-.014-.2-.02-.306-.02-.246 0-.473.043-.682.132-.139.055-.265.13-.379.222a1.51 1.51 0 00-.48.7 1.409 1.409 0 00.031.936c.08.18.19.344.334.493.144.148.313.262.508.34l-1.245.696.334.606zm.007 6.818c.38 0 .748-.026 1.103-.077.354-.05.68-.139.977-.264.297-.125.56-.292.79-.5.229-.21.413-.471.553-.787.139-.32.208-.69.208-1.113 0-.074-.002-.148-.007-.222-.032-.515-.153-1.109-.361-1.781a9.033 9.033 0 00-.223-.644 14.062 14.062 0 00-.383-.897 1.713 1.713 0 01-.062-.143l-1.239.612.606 1.489c.097.237.171.463.222.678.051.216.081.385.09.508.01.123.015.215.015.275 0 .111-.007.216-.021.313a1.35 1.35 0 01-.105.369 1.089 1.089 0 01-.39.455c-.166.11-.359.192-.577.247-.218.056-.454.09-.71.101-.254.012-.516.018-.785.018h-1.343V140h1.642zm-8.049-3.36l1.134-1.134-1.14-1.14-1.135 1.133 1.141 1.141zm-.285 8.132c.57 0 1.112-.06 1.624-.18.513-.121.98-.306 1.402-.554a4.23 4.23 0 001.11-.942c.317-.38.564-.833.74-1.357.121-.37.199-.71.234-1.016a7.4 7.4 0 00.045-1.147c.491.283 1.05.424 1.676.424h.153v-1.363h-.153c-.162 0-.335-.02-.518-.06a1.619 1.619 0 01-.58-.274 3.328 3.328 0 01-.648-.64 7.351 7.351 0 01-.723-1.148 7.98 7.98 0 00-.508-.946l-1.155.737c.005 0 .048.068.129.205.081.137.175.325.282.564.106.239.214.52.323.842a6.615 6.615 0 01.344 2.118v.083c-.009.404-.076.805-.201 1.204a2.69 2.69 0 01-.46.873 2.733 2.733 0 01-.758.654 3.688 3.688 0 01-1.05.407c-.399.092-.844.139-1.336.139a3.94 3.94 0 01-1.054-.129 3.297 3.297 0 01-.807-.334 2.716 2.716 0 01-.588-.462 3.029 3.029 0 01-.403-.526 2.502 2.502 0 01-.24-.518 2.91 2.91 0 01-.108-.431 4.08 4.08 0 01-.035-.821c.014-.278.046-.552.094-.821.049-.269.11-.527.185-.776.074-.248.152-.476.233-.685.08-.209.16-.39.24-.546a2.8 2.8 0 01.208-.358l-1.106-.814c-.19.315-.372.667-.546 1.054-.174.387-.32.796-.438 1.228a6.484 6.484 0 00-.22 1.123 6.142 6.142 0 00.02 1.61c.094.608.274 1.137.54 1.587.267.45.603.822 1.006 1.116.404.295.864.515 1.38.661.518.146 1.073.22 1.667.22zm-6.762-4.779a1.253 1.253 0 00.804-.292c.109-.093.198-.202.268-.327a.957.957 0 00.118-.41v-.056a.926.926 0 00-.132-.494 1.038 1.038 0 00-.39-.362c-.158-.083-.285-.126-.383-.129l-.16-.003a.936.936 0 00-.486.132c0-.668.438-1.32 1.314-1.955l-.337-.27a5.81 5.81 0 00-.296-.224c-1.104.784-1.655 1.721-1.655 2.81 0 .21.029.409.087.6.058.19.142.357.253.504.112.146.25.262.418.347.167.086.36.129.577.129zm-9.913-6.233l1.134-1.134-1.14-1.14-1.135 1.133 1.141 1.141zm-3.04 11.22c.39-.19.774-.404 1.152-.643.377-.238.737-.5 1.078-.782a9.21 9.21 0 00.946-.905c.29-.32.54-.656.751-1.008.211-.353.376-.718.494-1.096.118-.378.177-.769.177-1.172 0-.204-.016-.413-.048-.626a9.948 9.948 0 00-.122-.65 19.8 19.8 0 00-.16-.668 95.355 95.355 0 01-.17-.672 10.346 10.346 0 00-.174-.636c-.065-.211-.13-.426-.195-.644l-1.322.418c.125.39.244.779.355 1.168.051.19.104.385.16.585.056.2.107.399.153.598.046.2.085.394.115.584.03.19.045.371.045.543 0 .45-.109.886-.327 1.308-.218.422-.507.82-.866 1.196-.36.376-.769.723-1.228 1.04-.459.318-.932.597-1.419.839l.605 1.224zm-.779-4.917c.065-.77.103-1.496.115-2.178.011-.682.017-1.226.017-1.635 0-.677-.007-1.4-.02-2.17a63.584 63.584 0 00-.355-5.064l-1.364.208c.158 1.461.283 3.316.376 5.566.014.384.02.793.02 1.224 0 .357-.004.73-.013 1.12a64.7 64.7 0 01-.146 2.852l1.37.077zm-5.551-7.653l1.134-1.133-1.141-1.141-1.134 1.134 1.14 1.14zm-1.113 7.59c.38 0 .734-.026 1.06-.077.328-.05.623-.139.888-.264.264-.125.497-.292.699-.5.201-.21.372-.471.511-.787.14-.32.209-.69.209-1.113 0-.074-.003-.148-.007-.222-.033-.515-.153-1.109-.362-1.781a9.033 9.033 0 00-.223-.644 14.062 14.062 0 00-.382-.897 1.713 1.713 0 01-.063-.143l-1.238.612.605 1.489c.098.237.172.463.223.678.05.216.08.385.09.508.01.123.014.215.014.275 0 .111-.007.216-.02.313a1.35 1.35 0 01-.105.369 1.245 1.245 0 01-.348.455c-.14.11-.301.192-.487.247-.185.056-.392.09-.619.101-.227.012-.475.018-.744.018h-.807V140h1.106zm-5.21-6.588l1.126-1.127-1.14-1.14-1.128 1.133 1.141 1.134zm2.851.014l1.127-1.134-1.14-1.134-1.127 1.127 1.14 1.141zM119.165 140c.436 0 .815-.017 1.138-.052.322-.035.604-.088.845-.16a2.598 2.598 0 001.113-.65c.2.254.454.462.765.622.31.16.7.24 1.169.24h.139v-1.363h-.14c-.236 0-.43-.054-.58-.16a1.141 1.141 0 01-.355-.404 1.905 1.905 0 01-.184-.529 4.913 4.913 0 01-.077-.542 21.336 21.336 0 00-.125-1.204 6.534 6.534 0 00-.202-.946l-1.308.369c.103.352.173.665.213.939.04.274.059.543.059.807 0 .278-.047.522-.14.73a1.256 1.256 0 01-.434.522c-.197.14-.452.244-.765.313-.313.07-.69.105-1.13.105h-1.037V140h1.036zm-5.927 0c.436 0 .815-.017 1.138-.052.322-.035.604-.088.845-.16a2.598 2.598 0 001.113-.65c.2.254.454.462.765.622.31.16.7.24 1.169.24h.139v-1.363h-.14c-.236 0-.43-.054-.58-.16a1.141 1.141 0 01-.355-.404 1.905 1.905 0 01-.184-.529 4.913 4.913 0 01-.077-.542 21.336 21.336 0 00-.125-1.204 6.534 6.534 0 00-.202-.946l-1.307.369c.102.352.172.665.212.939.04.274.059.543.059.807 0 .278-.047.522-.14.73a1.256 1.256 0 01-.434.522c-.197.14-.452.244-.765.313-.313.07-.69.105-1.13.105h-1.037V140h1.036zm.258 3.402l1.127-1.127-1.141-1.141-1.127 1.134 1.14 1.134zm2.852.014l1.127-1.134-1.141-1.134-1.127 1.127 1.14 1.14zM112.48 140v-1.363h-.14a2.77 2.77 0 01-.754-.09c-.21-.061-.37-.145-.476-.251a.58.58 0 01-.185-.359 3.758 3.758 0 01-.024-.441v-3.493a48.553 48.553 0 00-.066-2.546c-.021-.403-.047-.776-.077-1.12-.03-.343-.066-.633-.108-.87l-1.363.251c.042.218.078.498.108.839.03.34.055.713.076 1.116.021.404.036.82.046 1.252.009.432.013.847.013 1.245.005.409.007.796.007 1.162 0 .371-.002.7-.007.988a211.39 211.39 0 00-.013 1.037c0 .11.002.244.006.4a2.686 2.686 0 00.247 1.012c.082.176.199.34.352.494.25.25.555.436.915.556.359.12.794.181 1.304.181h.139z" fill="#EA475B" fill-rule="nonzero"/><path d="M591.993 140c.38 0 .734-.026 1.06-.077.328-.05.624-.139.888-.264s.497-.292.699-.5c.202-.21.372-.471.511-.787.14-.32.209-.69.209-1.113 0-.074-.002-.148-.007-.222-.032-.515-.153-1.109-.362-1.781a9.033 9.033 0 00-.222-.644 14.061 14.061 0 00-.383-.897 1.713 1.713 0 01-.063-.143l-1.238.612.605 1.489c.098.237.172.463.223.678.051.216.081.385.09.508.01.123.014.215.014.275 0 .111-.007.216-.02.313a1.35 1.35 0 01-.105.369 1.245 1.245 0 01-.348.455c-.139.11-.301.192-.487.247-.185.056-.391.09-.619.101-.227.012-.475.018-.744.018h-.807V140h1.106zm1.14 3.624l1.135-1.134-1.141-1.14-1.134 1.133 1.14 1.141zm-8.034 1.51a12.712 12.712 0 001.704-1.03 9.084 9.084 0 001.472-1.304 6.295 6.295 0 001.033-1.54c.26-.553.39-1.132.39-1.74v-.028c.115.125.237.223.365.292a1.686 1.686 0 00.713.209c.102.005.185.007.25.007h.118v-1.363h-.111c-.232 0-.444-.056-.636-.167a1.88 1.88 0 01-.554-.526 4.913 4.913 0 01-.514-.925 15.038 15.038 0 01-.515-1.374l-1.308.404c.056.171.123.386.202.643.079.258.158.532.236.825.08.292.152.59.22.893.067.304.117.588.149.853a2.596 2.596 0 01-.077.94c-.083.31-.21.609-.379.896-.169.288-.376.562-.622.824a8.04 8.04 0 01-.807.748 9.486 9.486 0 01-.932.665c-.33.206-.661.395-.995.567l.598 1.23zm-2.643-12.724l1.134-1.133-1.141-1.141-1.134 1.134 1.14 1.14zm-1.113 7.59c.38 0 .734-.026 1.06-.077.327-.05.623-.139.887-.264.265-.125.498-.292.7-.5.201-.21.372-.471.51-.787.14-.32.21-.69.21-1.113 0-.074-.003-.148-.007-.222-.033-.515-.153-1.109-.362-1.781a9.034 9.034 0 00-.223-.644 14.061 14.061 0 00-.382-.897 1.713 1.713 0 01-.063-.143l-1.238.612.605 1.489c.097.237.172.463.223.678.05.216.08.385.09.508.01.123.014.215.014.275 0 .111-.007.216-.02.313a1.35 1.35 0 01-.105.369 1.245 1.245 0 01-.348.455c-.14.11-.302.192-.487.247-.186.056-.392.09-.62.101-.226.012-.475.018-.744.018h-.806V140h1.106zm-.828 0v-1.363h-.14c-.278 0-.507-.036-.688-.108a1.244 1.244 0 01-.452-.3 1.755 1.755 0 01-.31-.466 15.476 15.476 0 01-.268-.608c-.18-.422-.35-.827-.51-1.214a3908.251 3908.251 0 01-1.618-3.927l-1.266.529 2.198 5.287a2.64 2.64 0 01-.925.584c-.25.097-.463.154-.637.17a4.617 4.617 0 01-.393.025c-.185 0-.37-.021-.556-.063a3.191 3.191 0 01-.842-.32 4.114 4.114 0 01-.842-.619l-.786 1.106c.394.408.824.725 1.29.95a3.45 3.45 0 001.52.337c.33 0 .627-.02.89-.06a4.2 4.2 0 00.735-.173c.225-.077.436-.173.633-.289.197-.116.393-.25.588-.403a2.4 2.4 0 00.347.358c.135.114.291.212.47.296.179.083.385.15.62.198.233.049.501.073.803.073h.139zm-20.404 4.883a8.398 8.398 0 001.406-.344c.459-.155.896-.348 1.31-.577.416-.23.803-.498 1.163-.804a5.91 5.91 0 00.95-1.022c.273-.376.498-.785.674-1.228.176-.443.29-.92.34-1.43a6.442 6.442 0 00.008-1.266 6.891 6.891 0 00-.23-1.217 5.77 5.77 0 00-.435-1.096 4.275 4.275 0 00-.622-.9c-.552-.594-1.157-.891-1.816-.891a1.77 1.77 0 00-.859.226 2.61 2.61 0 00-.769.664c-.194.25-.364.549-.508.894a3.926 3.926 0 00-.274.925c-.04.272-.06.495-.06.672 0 .185.017.37.05.556.055.353.19.663.403.932.482.599 1.226.928 2.233.988.255.023.483.035.685.035h.79c-.051.348-.194.701-.428 1.06-.234.36-.553.7-.957 1.02-.403.32-.888.608-1.454.863a8.976 8.976 0 01-1.92.598l.32 1.342zm3.755-6.26h-.047c-.204 0-.422-.007-.654-.021a3.506 3.506 0 01-.295-.032 2.472 2.472 0 01-.348-.076 1.635 1.635 0 01-.334-.14.819.819 0 01-.261-.225.651.651 0 01-.143-.33 2.434 2.434 0 01-.024-.31c0-.102.007-.207.02-.313a3.16 3.16 0 01.133-.595c.065-.202.145-.384.24-.546.095-.163.203-.296.324-.4a.577.577 0 01.382-.157c.084 0 .162.014.237.042.074.028.145.064.212.108s.13.093.188.146c.058.053.11.103.156.15.116.134.229.293.338.476.109.183.207.388.295.616.088.227.16.473.216.737.056.264.09.545.104.842-.18.014-.344.022-.49.024l-.296.004h.047zM546.31 140c.282 0 .55-.014.8-.042.25-.028.487-.08.71-.16.222-.079.432-.192.629-.34.197-.149.386-.346.567-.592.213.158.445.312.695.463.25.15.512.278.783.382a3.005 3.005 0 001.123.226c.19 0 .38-.025.57-.076a1.66 1.66 0 00.766-.449c.209-.215.373-.468.494-.758.12-.29.195-.555.223-.797.027-.24.041-.436.041-.584 0-.167-.011-.33-.034-.487a4.21 4.21 0 00-.247-.918 2.864 2.864 0 00-.477-.807c-.2-.237-.44-.428-.72-.574a2.071 2.071 0 00-.97-.22c-.306 0-.574.062-.804.185-.23.123-.433.283-.612.48a3.668 3.668 0 00-.48.675c-.141.253-.275.509-.4.769-.144.287-.286.567-.428.838a3.398 3.398 0 01-.5.723c-.193.211-.426.38-.7.508-.273.128-.617.192-1.03.192h-.139V140h.14zm5.287-1.447c-.186 0-.395-.046-.627-.14-.347-.138-.732-.363-1.154-.674l.375-.758c.116-.227.22-.424.31-.591a3.74 3.74 0 01.257-.418.985.985 0 01.244-.247.466.466 0 01.26-.08c.14 0 .263.028.37.084.106.055.199.126.278.212.078.086.146.18.201.285a2.264 2.264 0 01.216.567c.019.079.03.135.035.167.018.125.028.246.028.362a2.082 2.082 0 01-.129.703c-.053.138-.117.252-.191.34a.444.444 0 01-.23.16 1.003 1.003 0 01-.243.028zM546.449 140v-1.363h-.14c-.278 0-.507-.036-.688-.108a1.244 1.244 0 01-.452-.3 1.755 1.755 0 01-.31-.466 15.476 15.476 0 01-.268-.608c-.18-.422-.351-.827-.511-1.214a3908.251 3908.251 0 01-1.617-3.927l-1.266.529 2.198 5.287a2.64 2.64 0 01-.925.584c-.25.097-.463.154-.637.17a4.617 4.617 0 01-.393.025c-.186 0-.371-.021-.557-.063a3.191 3.191 0 01-.841-.32 4.114 4.114 0 01-.842-.619l-.786 1.106c.394.408.824.725 1.29.95a3.45 3.45 0 001.52.337c.33 0 .626-.02.89-.06a4.2 4.2 0 00.735-.173c.225-.077.436-.173.633-.289.197-.116.393-.25.588-.403a2.4 2.4 0 00.347.358c.135.114.291.212.47.296.179.083.385.15.62.198.233.049.501.073.803.073h.139zm-14.317 4.563c.241 0 .492-.018.751-.055a4.818 4.818 0 002.077-.828c.322-.227.608-.509.856-.845a4.16 4.16 0 00.594-1.183c.149-.452.223-.97.223-1.555 0-.366-.006-.8-.017-1.304-.012-.503-.026-1.041-.042-1.614a180.58 180.58 0 00-.06-1.77c-.022-.608-.046-1.201-.069-1.781a242.58 242.58 0 00-.18-4.265l-1.364.056a306.585 306.585 0 01.18 4.237c.024.575.047 1.165.07 1.77.023.605.043 1.193.06 1.764.016.57.03 1.106.041 1.607.012.5.018.934.018 1.3 0 .395-.053.746-.157 1.054-.104.309-.243.58-.417.814a2.709 2.709 0 01-.602.595 3.418 3.418 0 01-1.43.588 4.02 4.02 0 01-.608.052 2.722 2.722 0 01-.7-.094 3.177 3.177 0 01-.566-.209 2.989 2.989 0 01-.553-.344 2.395 2.395 0 01-.474-.494 2.388 2.388 0 01-.326-.657 2.665 2.665 0 01-.122-.832 6.202 6.202 0 01.368-2.19c.051-.145.108-.278.17-.4.064-.124.127-.236.192-.338l-1.245-.557c-.158.227-.297.51-.417.849a7.737 7.737 0 00-.293 1.085 8.18 8.18 0 00-.139 1.551v.056c0 .44.056.84.167 1.197a3.48 3.48 0 001.158 1.757c.263.21.54.385.832.524a4.678 4.678 0 002.024.46z" fill-opacity=".56" fill="#000000" fill-rule="nonzero"/><g fill="#000000"><path d="M640.316 92l2.274-6.34h-1.108l-1.57 4.87-1.611-4.87h-1.108L639.49 92h.826zm5.274.117c.7 0 1.3-.262 1.805-.785.039.32.09.543.152.668h1.137v-.094c-.149-.344-.223-.806-.223-1.388V87.6c-.016-.641-.23-1.144-.645-1.51-.414-.364-.986-.547-1.716-.547-.461 0-.884.086-1.269.258a2.3 2.3 0 00-.914.7c-.225.295-.337.6-.337.917h1.09c0-.277.13-.514.393-.709.261-.195.585-.293.972-.293.442 0 .776.112 1.002.337.227.225.34.526.34.905v.498h-1.055c-.91 0-1.616.183-2.118.548-.502.365-.753.878-.753 1.538 0 .543.2.991.6 1.345.401.353.914.53 1.539.53zm.158-.943c-.355 0-.646-.096-.873-.287-.227-.192-.34-.457-.34-.797 0-.777.664-1.166 1.992-1.166h.85v1.3c-.137.282-.357.51-.662.686a1.905 1.905 0 01-.967.264zm5.59.826v-9h-1.084v9h1.084zm3.79.117c.817 0 1.436-.248 1.858-.744l.024.627h1.031v-6.34h-1.084v4.611c-.273.618-.824.926-1.652.926-.782 0-1.172-.48-1.172-1.441V85.66h-1.084v4.125c.004.77.182 1.35.536 1.743.353.393.868.59 1.544.59zm7.19 0c1.063 0 1.86-.408 2.391-1.224l-.662-.516c-.2.258-.432.465-.697.621-.266.156-.59.234-.973.234-.54 0-.983-.192-1.333-.577-.35-.384-.532-.89-.548-1.514h4.295v-.452c0-1.011-.229-1.789-.686-2.332-.457-.543-1.097-.814-1.921-.814-.504 0-.972.14-1.404.419-.431.28-.767.666-1.008 1.16-.24.494-.36 1.056-.36 1.685v.199c0 .945.27 1.7.809 2.265.539.564 1.238.846 2.097.846zm1.389-3.867h-3.176c.07-.574.254-1.02.551-1.339a1.446 1.446 0 011.102-.477c.453 0 .812.151 1.078.454.265.302.414.73.445 1.28v.082zM638.998 140v-9h-1.084v9h1.084zm2.379-7.406c.21 0 .371-.059.48-.176a.62.62 0 00.164-.44.64.64 0 00-.164-.445c-.109-.12-.27-.181-.48-.181-.211 0-.37.06-.478.181a.647.647 0 00-.16.446c0 .175.053.322.16.439.108.117.267.176.478.176zm.533 7.406v-6.34h-1.084V140h1.084zm2.819 0v-4.518a1.91 1.91 0 01.62-.738c.266-.187.575-.281.926-.281.434 0 .753.11.958.328.205.219.31.557.314 1.014V140h1.084v-4.19c-.012-1.511-.688-2.267-2.027-2.267-.782 0-1.415.305-1.899.914l-.035-.797h-1.025V140h1.084zm6.626 0v-2.227l.68-.709 2.21 2.936h1.27l-2.753-3.691 2.467-2.649h-1.319l-1.974 2.086-.58.697V131h-1.085v9h1.084z" fill-opacity=".56" fill-rule="nonzero"/><path fill-opacity=".12" d="M620 64h1v104h-1z"/></g></g></svg>