<svg xmlns="http://www.w3.org/2000/svg" xmlns:xlink="http://www.w3.org/1999/xlink" width="422" height="360"><defs><filter id="d" width="113.9%" height="116.7%" x="-6.9%" y="-7.1%" filterUnits="objectBoundingBox"><feOffset dy="4" in="SourceAlpha" result="shadowOffsetOuter1"/><feGaussianBlur in="shadowOffsetOuter1" result="shadowBlurOuter1" stdDeviation="8"/><feColorMatrix in="shadowBlurOuter1" values="0 0 0 0 0 0 0 0 0 0 0 0 0 0 0 0 0 0 0.12 0"/></filter><filter id="f" width="110.7%" height="112.8%" x="-5.3%" y="-5.1%" filterUnits="objectBoundingBox"><feOffset dy="2" in="SourceAlpha" result="shadowOffsetOuter1"/><feGaussianBlur in="shadowOffsetOuter1" result="shadowBlurOuter1" stdDeviation="4"/><feColorMatrix in="shadowBlurOuter1" result="shadowMatrixOuter1" values="0 0 0 0 0 0 0 0 0 0 0 0 0 0 0 0 0 0 0.08 0"/><feOffset dy="4" in="SourceAlpha" result="shadowOffsetOuter2"/><feGaussianBlur in="shadowOffsetOuter2" result="shadowBlurOuter2" stdDeviation="6"/><feColorMatrix in="shadowBlurOuter2" result="shadowMatrixOuter2" values="0 0 0 0 0 0 0 0 0 0 0 0 0 0 0 0 0 0 0.04 0"/><feOffset in="SourceAlpha" result="shadowOffsetOuter3"/><feGaussianBlur in="shadowOffsetOuter3" result="shadowBlurOuter3" stdDeviation="2"/><feColorMatrix in="shadowBlurOuter3" result="shadowMatrixOuter3" values="0 0 0 0 0 0 0 0 0 0 0 0 0 0 0 0 0 0 0.04 0"/><feMerge><feMergeNode in="shadowMatrixOuter1"/><feMergeNode in="shadowMatrixOuter2"/><feMergeNode in="shadowMatrixOuter3"/></feMerge></filter><filter id="h" width="101.9%" height="110.9%" x="-.9%" y="-3.9%" filterUnits="objectBoundingBox"><feOffset dy="1" in="SourceAlpha" result="shadowOffsetOuter1"/><feGaussianBlur in="shadowOffsetOuter1" result="shadowBlurOuter1" stdDeviation="1"/><feComposite in="shadowBlurOuter1" in2="SourceAlpha" operator="out" result="shadowBlurOuter1"/><feColorMatrix in="shadowBlurOuter1" values="0 0 0 0 0 0 0 0 0 0 0 0 0 0 0 0 0 0 0.12 0"/></filter><path id="c" d="M8 0h359a8 8 0 018 8v304H0V8a8 8 0 018-8z"/><path id="g" d="M8 0h359a8 8 0 018 8v304H0V8a8 8 0 018-8z"/><path id="i" d="M0 0h375v64H0z"/><rect id="a" width="422" height="360" x="0" y="0" rx="4"/></defs><g fill="none" fill-rule="evenodd"><mask id="b" fill="#fff"><use xlink:href="#a"/></mask><g mask="url(#b)"><g transform="translate(23 48)"><mask id="e" fill="#fff"><use xlink:href="#c"/></mask><use fill="#000" filter="url(#d)" xlink:href="#c"/><g mask="url(#e)"><use fill="#000" filter="url(#f)" xlink:href="#g"/><use fill="#FFF" xlink:href="#g"/></g><g mask="url(#e)"><use fill="#000" filter="url(#h)" xlink:href="#i"/><use fill="#FFF" fill-opacity=".98" xlink:href="#i"/><path fill="#000000" fill-opacity=".87" fill-rule="nonzero" d="M355.817 28.16l1.168-1.169-1.168-1.162-1.163 1.162 1.163 1.169zm-2.472 8.023c.47 0 .926-.017 1.367-.05.44-.032.853-.092 1.238-.182.386-.089.738-.21 1.057-.365a2.78 2.78 0 00.821-.596c.23-.244.408-.536.536-.877.128-.34.192-.743.192-1.205 0-.272-.028-.56-.083-.861a5.518 5.518 0 00-.24-.892 5.04 5.04 0 00-.39-.834 3.483 3.483 0 00-.53-.697c-.198-.201-.42-.36-.663-.478a1.78 1.78 0 00-.785-.176c-.227 0-.438.041-.633.124a1.966 1.966 0 00-.535.341 2.528 2.528 0 00-.433.502 3.63 3.63 0 00-.523 1.273 3.439 3.439 0 00-.067.663c0 .365.072.685.216.959.144.274.338.502.581.685.244.182.527.32.85.41.322.092.662.137 1.019.137h.62a1.777 1.777 0 01-.529.232 6.4 6.4 0 01-.84.176c-.324.049-.683.086-1.077.113-.394.026-.804.04-1.23.04h-.146v1.558h.207zm3.11-3.67a5.43 5.43 0 01-.813-.049 1.473 1.473 0 01-.389-.104.622.622 0 01-.264-.21.6.6 0 01-.098-.356v-.024c0-.147.03-.295.092-.445.06-.154.14-.292.237-.414a1.21 1.21 0 01.304-.28.553.553 0 01.28-.097c.02 0 .04.002.061.006.175.012.33.093.466.243s.253.328.353.533c.1.205.183.416.25.633.066.217.118.399.155.545a7.766 7.766 0 01-.369.015l-.264.003zm-8.278 3.67c.284 0 .596-.003.935-.01.339-.006.668-.03.989-.073.32-.042.612-.11.873-.2.262-.092.46-.223.594-.393.19.199.422.361.694.487.272.126.604.189.998.189h.122v-1.559h-.122a.776.776 0 01-.438-.124 1.193 1.193 0 01-.32-.31 1.536 1.536 0 01-.204-.409 1.914 1.914 0 01-.091-.417c-.016-.215-.031-.4-.046-.557a10.32 10.32 0 00-.048-.438 4.777 4.777 0 00-.073-.408 7.395 7.395 0 00-.125-.471l-1.498.42c.106.36.185.656.238.885.053.23.079.413.079.551 0 .211-.045.397-.134.557-.09.16-.234.293-.435.399-.201.105-.464.185-.788.24a7.369 7.369 0 01-1.2.082h-.225v1.559h.225zm1.005 2.836l1.035-1.035-1.047-1.047-1.035 1.041 1.047 1.041zm2.3.012l1.035-1.04-1.047-1.041-1.034 1.034 1.047 1.047zm-6.72-2.848c.114 0 .242-.007.384-.022.142-.014.286-.041.432-.082.146-.04.29-.096.43-.167.14-.071.268-.164.386-.277a2.433 2.433 0 001.135.508c.152.026.308.04.466.04h.2v-1.559h-.133c-.313 0-.548-.088-.706-.264-.159-.177-.238-.42-.238-.728 0-.438.007-.941.022-1.51.014-.568.02-1.235.02-2.002v-.515l-.002-.51a36.56 36.56 0 00-.058-1.854 10.727 10.727 0 00-.067-.743l-1.552.201c.024.203.043.428.058.676.014.247.024.511.03.791.006.28.01.571.012.874a137.433 137.433 0 01-.03 3.999c-.006.233-.01.396-.01.49-.015.24-.054.43-.115.572a.847.847 0 01-.237.332.748.748 0 01-.335.155 2.147 2.147 0 01-.408.036h-.444v1.559h.76zm-4.254-5.917l1.035-1.035-1.047-1.047-1.035 1.041 1.047 1.041zm2.3.012l1.035-1.04-1.046-1.041-1.035 1.034 1.047 1.047zm-3.767 5.905c.284 0 .595-.003.934-.01.34-.006.669-.03.99-.073.32-.042.611-.11.873-.2.262-.092.46-.223.593-.393.191.199.422.361.694.487.272.126.605.189.998.189h.122v-1.559h-.122a.776.776 0 01-.438-.124 1.193 1.193 0 01-.32-.31 1.536 1.536 0 01-.203-.409 1.914 1.914 0 01-.092-.417 37.15 37.15 0 00-.045-.557 10.32 10.32 0 00-.049-.438 4.777 4.777 0 00-.073-.408 7.394 7.394 0 00-.125-.471l-1.497.42c.105.36.185.656.237.885.053.23.08.413.08.551 0 .211-.045.397-.135.557-.089.16-.234.293-.435.399-.2.105-.463.185-.788.24a7.369 7.369 0 01-1.2.082h-.224v1.559h.225zm-5.375 4.553a11.814 11.814 0 001.507-.895c.489-.341.929-.716 1.32-1.126.392-.41.718-.85.977-1.318.26-.469.416-.959.47-1.47.19.122.365.195.526.22.16.023.293.036.398.036h.189l.006-1.559h-.189c-.178 0-.337-.035-.477-.106a1.156 1.156 0 01-.402-.378 4.017 4.017 0 01-.39-.736c-.132-.31-.277-.703-.435-1.178l-1.46.609c.076.231.162.47.255.715.093.246.18.488.262.727.08.24.148.47.2.691.053.221.08.423.08.606 0 .256-.048.505-.143.749a3.32 3.32 0 01-.39.712c-.164.231-.36.452-.584.663a8.676 8.676 0 01-.728.609c-.26.195-.532.377-.818.548-.287.17-.572.328-.856.475l.682 1.406zm-3.512-4.535a6.549 6.549 0 001.026-.097 5.06 5.06 0 00.53-.122c.168-.049.31-.108.428-.177.345-.207.624-.464.837-.773.213-.308.346-.588.399-.84.053-.251.079-.458.079-.62a2.479 2.479 0 00-.578-1.589 3.38 3.38 0 00-.502-.506 4.724 4.724 0 00-.603-.407 8.726 8.726 0 00-.77-.39l-.998-.45c-.183-.082-.38-.173-.59-.274a90.448 90.448 0 01-1.772-.877l-.21-.104a18.26 18.26 0 00-.167-.082.79.79 0 00-.17-.07l-.908 1.48c.126.069.218.117.277.146a.783.783 0 00.137.054 2.34 2.34 0 00-.502.445c-.144.17-.265.355-.362.554-.098.199-.17.409-.22.63a3.091 3.091 0 00.07 1.598c.096.304.243.584.442.84a82.246 82.246 0 00-.676.04c-.093.005-.19.01-.289.011-.1.002-.22.003-.362.003h-.116v1.559h.116c.613 0 1.185-.032 1.717-.095a7.42 7.42 0 001.37-.277c.157.07.338.128.54.177a7.539 7.539 0 001.258.192c.209.014.398.02.569.02zm-2.356-1.997a.97.97 0 01-.34-.185 1.62 1.62 0 01-.284-.305 1.816 1.816 0 01-.207-.374 1.553 1.553 0 01-.106-.396 1.425 1.425 0 01.073-.578c.065-.199.157-.38.277-.542.12-.162.248-.287.386-.374a.744.744 0 01.396-.13c.033 0 .065.001.097.005.11.016.232.056.366.119.134.063.256.148.368.256.112.107.196.227.253.359a1 1 0 01.085.398 2.154 2.154 0 01-.189.819c-.085.18-.188.334-.307.46a1.47 1.47 0 01-.402.301c-.148.075-.303.13-.466.167zm2.526.457a3.027 3.027 0 01-.39-.024c.244-.305.428-.64.552-1.008a3.494 3.494 0 00.161-1.555c.207.097.402.206.584.326.183.12.341.245.475.377.134.132.24.267.32.405.079.138.118.272.118.401a.697.697 0 01-.14.414c-.093.13-.22.244-.383.341a2.227 2.227 0 01-.575.235 2.8 2.8 0 01-.722.088zm-5.496 1.522v-1.559h-.274a1.6 1.6 0 01-.417-.048.604.604 0 01-.457-.444 1.51 1.51 0 01-.045-.39v-.098c0-.125 0-.25.003-.371a691.051 691.051 0 00.012-.764 29.25 29.25 0 00-.003-1.071c-.004-.242-.006-.47-.006-.685a31.888 31.888 0 00-.183-3.393 11.12 11.12 0 00-.121-.862l-1.528.457c.036.19.069.41.097.66.028.25.053.518.073.804a46.363 46.363 0 01.085 1.808 71.017 71.017 0 01.025 1.725v.25c-.002.323-.006.604-.012.843-.009.298-.013.512-.013.642.004.836.22 1.46.646 1.875.426.414 1.05.62 1.874.62h.244z"/><path fill="#000000" fill-opacity=".56" d="M37.162 32l4.124-4.125a.832.832 0 10-1.178-1.178l-4.124 4.125-4.125-4.125a.834.834 0 00-1.179 1.178L34.805 32l-4.125 4.125a.832.832 0 101.179 1.178l4.125-4.125 4.124 4.125a.831.831 0 001.178 0 .832.832 0 000-1.178L37.162 32z"/><path d="M16 117h343v8H16z"/><path fill="#000000" fill-opacity=".56" fill-rule="nonzero" d="M252.306 103.443a8.147 8.147 0 002.285-2.822 8.267 8.267 0 00.866-3.72 8.31 8.31 0 00-.834-3.673c-.574-1.186-1.367-2.12-2.38-2.802l-.234.386-.12.188-.12.203c.852.717 1.485 1.512 1.899 2.385.455.95.692 2.07.71 3.36 0 2.163-.87 4.057-2.61 5.682.074.1.164.234.272.401l.13.204.136.208zm-3.527-3.38c.324 0 .607-.046.85-.136.251-.09.46-.22.627-.391a1.63 1.63 0 00.375-.619c.084-.241.126-.512.126-.81 0-.2-.019-.403-.055-.611a5.772 5.772 0 00-.141-.61 9.18 9.18 0 00-.579-1.496l-.065-.133-.914.48a9.204 9.204 0 01.441 1.067c.075.221.14.446.193.676.054.23.081.443.081.642a1.5 1.5 0 01-.052.412.698.698 0 01-.17.303.573.573 0 01-.266.159c-.099.026-.199.039-.3.039-.059 0-.121-.004-.187-.01a.487.487 0 01-.264-.102.636.636 0 01-.172-.22 1.103 1.103 0 01-.094-.307 2.27 2.27 0 01-.029-.368c0-.143.01-.305.032-.488.02-.183.044-.355.07-.517.026-.161.05-.3.07-.414l.027-.167-1.002-.183c-.021.143-.05.31-.086.504a7.169 7.169 0 01-.141.597 5.407 5.407 0 01-.209.605 2.756 2.756 0 01-.287.532c-.11.157-.235.284-.375.381a.82.82 0 01-.478.146.551.551 0 01-.276-.062.467.467 0 01-.172-.167.73.73 0 01-.09-.238 1.42 1.42 0 01-.025-.274c0-.135.014-.282.041-.44.028-.159.061-.313.1-.465a9.577 9.577 0 01.219-.748l-1.033-.22c-.035.17-.077.352-.126.543a5.838 5.838 0 01-.177.571c-.07.19-.151.372-.245.546a2.155 2.155 0 01-.331.461 1.554 1.554 0 01-.436.324 1.22 1.22 0 01-.553.122h-.115V100h.11c.201 0 .387-.017.555-.05a2.028 2.028 0 00.848-.37c.118-.089.23-.189.334-.3.056.129.135.242.237.34.103.097.217.178.342.244a1.705 1.705 0 001.633-.016c.265-.142.501-.335.71-.578.073.11.162.214.266.31.104.096.217.18.339.25.122.072.25.128.383.17.134.042.267.063.4.063h.036zm-5.984-.063v-1.023h-.105c-.219 0-.407-.022-.566-.067a.814.814 0 01-.357-.188.435.435 0 01-.138-.269 2.819 2.819 0 01-.019-.331v-2.62a36.413 36.413 0 00-.107-2.749 7.733 7.733 0 00-.08-.652l-1.023.188a6.5 6.5 0 01.08.628c.023.256.043.535.058.838.016.302.027.615.034.939.007.323.01.635.01.934.004.306.006.596.006.871v.203l-.005.538a158.303 158.303 0 00-.01.718v.148c0 .063.002.134.004.211a2.015 2.015 0 00.185.76c.061.132.15.255.264.37.188.188.417.327.686.417.27.09.596.136.978.136h.105zm-9.402 0l1.242-.01c.55 0 1.038-.013 1.466-.04.428-.026.808-.06 1.14-.104a11.687 11.687 0 001.536-.3l-.125-.991-.383.078a6.15 6.15 0 01-.366.063 10.696 10.696 0 01-.952.088c-.188 0-.368-.026-.542-.078a1.685 1.685 0 01-.561-.282 1.453 1.453 0 01-.389-.454 1.215 1.215 0 01-.146-.594c0-.16.026-.314.078-.462a1.108 1.108 0 01.616-.668c.153-.068.33-.102.532-.102.178 0 .338.019.48.055.143.037.274.087.394.151.12.065.232.14.337.225.104.085.21.176.318.274l.642-.788a13.24 13.24 0 00-.465-.365 3.17 3.17 0 00-.485-.3 2.64 2.64 0 00-1.22-.274 2.2 2.2 0 00-.896.18 2.228 2.228 0 00-1.184 1.205c-.113.273-.17.563-.17.869 0 .313.052.598.154.855.103.258.281.501.535.73l-1.586.016V100zm-7.247-4.283l.845-.846-.855-.855-.846.85.856.85zm2.14.01l.844-.85-.855-.85-.845.844.855.856zm-1.514 4.289c1.98 0 3.428-.48 4.346-1.44.077.212.185.401.324.568.435.56 1.104.846 2.008.856h.147v-1.023h-.13c-.568-.003-.973-.16-1.217-.47a1.044 1.044 0 01-.219-.437 2.591 2.591 0 01-.068-.47v-.042a4.346 4.346 0 01.117-.76l.06-.231-.99-.271a8.945 8.945 0 01-.154.48 3.921 3.921 0 01-.209.485c-.082.16-.18.315-.295.464a2.31 2.31 0 01-.412.412c-.358.293-.807.506-1.346.64-.54.133-1.193.2-1.962.2-.859-.003-1.557-.094-2.095-.27-.537-.178-.91-.446-1.119-.804a1.266 1.266 0 01-.167-.43 2.27 2.27 0 01-.036-.384c0-.046.002-.089.005-.13.007-.157.029-.307.065-.45.037-.142.074-.267.112-.375.039-.108.073-.195.105-.261.031-.066.047-.1.047-.104l-.903-.496a3.212 3.212 0 00-.149.326 6.021 6.021 0 00-.253.785 2.44 2.44 0 00-.078.43 3.47 3.47 0 00-.005.592c.014.182.048.363.102.544.054.18.13.356.232.527.313.528.816.915 1.51 1.16.694.246 1.57.372 2.627.379zm-6.329 3.427l.538-.813c-1.74-1.625-2.609-3.519-2.609-5.682.018-1.29.254-2.41.71-3.36.414-.873 1.047-1.668 1.899-2.385a8.061 8.061 0 01-.12-.203l-.12-.188-.115-.188a3.359 3.359 0 01-.12-.198c-1.023.678-1.819 1.609-2.39 2.791a8.355 8.355 0 00-.824 3.684c0 1.315.287 2.555.861 3.72a8.201 8.201 0 002.29 2.822z"/><path fill="#000000" fill-opacity=".87" fill-rule="nonzero" d="M332.922 100.157c.41 0 .773-.074 1.088-.22.314-.146.61-.354.884-.626a6.083 6.083 0 001.059.59c.167.062.331.112.493.149.162.036.316.054.462.054.17 0 .334-.026.49-.078a1.677 1.677 0 00.801-.569c.106-.135.192-.287.258-.454.06-.156.104-.318.133-.485.03-.167.045-.339.045-.516a3.137 3.137 0 00-.22-1.145 2.498 2.498 0 00-.276-.512 2.063 2.063 0 00-.389-.417 1.726 1.726 0 00-1.113-.384c-.247 0-.465.05-.653.149-.187.1-.354.228-.5.386a3.003 3.003 0 00-.392.535 9.05 9.05 0 00-.318.6c-.097.191-.201.383-.31.574-.11.191-.237.363-.381.516-.145.153-.31.278-.499.373a1.442 1.442 0 01-.662.144h-.105v1.336h.105zm4.231-1.357a.953.953 0 01-.23-.031c-.15-.032-.3-.079-.453-.141a4.634 4.634 0 01-.793-.417c.132-.265.243-.483.333-.655.09-.173.17-.31.235-.413.066-.102.123-.175.17-.219a.31.31 0 01.143-.08.771.771 0 01.152-.016c.1 0 .194.02.281.062.129.067.24.16.334.282.094.122.168.262.222.42.054.158.08.316.08.472v.053c0 .083-.006.16-.02.23a.976.976 0 01-.08.218.541.541 0 01-.11.149.246.246 0 01-.113.065.513.513 0 01-.151.021zm-4.127 1.357V98.82h-.12a.8.8 0 01-.32-.06.787.787 0 01-.246-.167 1.105 1.105 0 01-.188-.256 3.363 3.363 0 01-.154-.326l-1.31-3.156-.234-.564c-.073-.174-.14-.337-.198-.49l-1.237.516 1.664 4.018c-.09.066-.197.127-.32.185a3.047 3.047 0 01-1.187.279c-.25 0-.513-.065-.788-.196-.275-.13-.57-.341-.887-.634l-.767 1.08c.337.348.698.62 1.083.814a2.68 2.68 0 001.228.293c.23 0 .447-.01.652-.03a3.86 3.86 0 00.595-.1 2.936 2.936 0 001.06-.512c.083.09.17.175.26.253.09.078.195.146.313.203.118.058.257.103.415.136.158.033.347.05.566.05h.12zm-12.897-4.414l.887-.887-.898-.898-.887.892.898.893zm1.972.01l.887-.892-.898-.892-.887.887.898.897zm-.97 4.404c.152 0 .323-.006.51-.016a11.56 11.56 0 001.584-.183c.284-.052.56-.115.83-.19a6.07 6.07 0 00.764-.266c.24-.103.45-.222.631-.358.181-.135.324-.287.428-.454.105-.167.157-.353.157-.558 0-.146-.025-.319-.073-.519-.049-.2-.11-.408-.183-.623a12.674 12.674 0 00-.686-1.615c-.054-.103-.086-.154-.096-.154l-1.117.725c.104.177.207.354.308.53.1.175.196.354.287.534.09.181.171.366.242.553.072.188.128.383.17.585-.282.139-.592.251-.931.336-.34.086-.684.153-1.033.201-.35.049-.69.082-1.018.1-.328.017-.623.025-.884.025-.47 0-.91-.02-1.323-.062a7.616 7.616 0 01-1.1-.185 3.324 3.324 0 01-.804-.303c-.214-.12-.36-.258-.436-.415a.53.53 0 01-.047-.23c0-.045.004-.092.01-.14.022-.146.06-.298.118-.454a3.428 3.428 0 01.4-.772l-.971-.814-.25.472c-.084.158-.159.32-.225.488a3.75 3.75 0 00-.162.514c-.041.175-.062.359-.062.55 0 .386.068.721.203 1.004.136.284.32.525.553.723.233.198.508.36.825.483.316.123.653.22 1.012.292.358.071.73.12 1.116.149.386.027.767.043 1.143.047h.11zm-10.722-4.69l1.001-1.003-1.001-.996-.997.996.997 1.002zm-2.207 8.477c.31-.153.615-.325.918-.516.303-.191.59-.398.86-.621.272-.223.523-.46.755-.71.231-.25.431-.514.6-.79.168-.277.3-.564.396-.86.096-.298.144-.604.144-.917 0-.23-.02-.465-.058-.707a8.44 8.44 0 00-.148-.727 12.69 12.69 0 00-.204-.723l-.216-.686-1.31.423c.045.153.102.328.17.527.068.198.134.404.198.618.064.214.12.43.164.65a3.1 3.1 0 01.068.625c0 .213-.038.423-.115.632a2.832 2.832 0 01-.315.61 3.82 3.82 0 01-.48.574 6.38 6.38 0 01-.606.527 8.096 8.096 0 01-.686.472c-.24.148-.483.283-.73.405l.595 1.194zm-5.932-3.787c.41 0 .773-.074 1.087-.22.315-.146.61-.354.885-.626a6.083 6.083 0 001.059.59c.167.062.331.112.493.149.162.036.316.054.462.054.17 0 .334-.026.49-.078a1.677 1.677 0 00.801-.569c.106-.135.192-.287.258-.454.06-.156.104-.318.133-.485.03-.167.045-.339.045-.516a3.137 3.137 0 00-.22-1.145 2.498 2.498 0 00-.276-.512 2.063 2.063 0 00-.389-.417 1.726 1.726 0 00-1.114-.384c-.247 0-.464.05-.652.149-.188.1-.355.228-.5.386a3.003 3.003 0 00-.392.535 9.05 9.05 0 00-.318.6c-.098.191-.201.383-.31.574-.11.191-.237.363-.382.516-.144.153-.31.278-.498.373a1.442 1.442 0 01-.662.144h-.105v1.336h.105zm4.23-1.357a.953.953 0 01-.229-.031c-.15-.032-.3-.079-.454-.141a4.634 4.634 0 01-.793-.417c.133-.265.244-.483.334-.655.09-.173.169-.31.235-.413.066-.102.123-.175.17-.219a.31.31 0 01.143-.08.771.771 0 01.151-.016c.101 0 .195.02.282.062.129.067.24.16.334.282.094.122.168.262.222.42.054.158.08.316.08.472v.053c0 .083-.006.16-.02.23a.976.976 0 01-.081.218.541.541 0 01-.11.149.246.246 0 01-.112.065.513.513 0 01-.151.021zm-4.126 1.357V98.82h-.235c-.136 0-.255-.014-.357-.042a.518.518 0 01-.391-.38 1.294 1.294 0 01-.04-.335l.001-.244.002-.157a592.361 592.361 0 00.01-.655c.002-.117.003-.241.003-.373v-.165l-.005-.38a35.019 35.019 0 01-.005-.587 27.332 27.332 0 00-.157-2.91 9.53 9.53 0 00-.104-.737l-1.31.391c.031.163.06.352.084.566.024.214.045.444.062.689a31.199 31.199 0 01.073 1.55 60.877 60.877 0 01.021 1.478c0 .37-.003.681-.01.937s-.01.44-.01.55c.003.717.187 1.253.552 1.607.365.355.901.533 1.607.533h.209zm-7.529-2.53l1.002-1.003-1.002-.996-.996.996.996 1.002zm-.313 6.12c.508 0 .965-.05 1.372-.15.407-.099.765-.236 1.073-.412a3.185 3.185 0 001.32-1.406c.133-.282.225-.559.273-.832a4.395 4.395 0 00-.018-1.693 10.51 10.51 0 00-.373-1.385c-.073-.21-.14-.398-.203-.561a8.003 8.003 0 00-.162-.397 1.593 1.593 0 00-.084-.172l-1.226.684c.004 0 .028.045.073.135a12.08 12.08 0 01.59 1.466c.066.202.123.401.17.598.046.196.073.375.08.535v.088c0 .181-.026.355-.078.522-.066.195-.16.376-.282.543-.121.167-.27.318-.443.453a2.824 2.824 0 01-.58.347 3.11 3.11 0 01-.67.214c-.234.047-.474.07-.717.07h-.052a3.001 3.001 0 01-.932-.164 2.517 2.517 0 01-.774-.427 2.05 2.05 0 01-.53-.655 1.822 1.822 0 01-.196-.845c0-.261.03-.52.092-.778.06-.257.133-.497.216-.72a4.75 4.75 0 01.264-.59c.092-.17.17-.298.232-.385l-1.028-.747a5.746 5.746 0 00-.97 3.188c0 .54.085 1.024.255 1.453.17.43.412.794.723 1.093.311.3.686.53 1.124.69.439.16.926.24 1.461.24zm-9.548-3.6l1.367-.21c.014-.27.028-.562.042-.874.014-.31.024-.646.031-1.006a77.271 77.271 0 00.006-2.528 38.946 38.946 0 00-.063-1.772 26.374 26.374 0 00-.183-1.901l-1.34.438c.059.574.106 1.175.14 1.803.035.627.066 1.298.094 2.01.01.31.016.643.016.997 0 .88-.037 1.894-.11 3.042zm-3.057-5.693l1.002-1.002-1.002-.996-.997.996.997 1.002zm-.835 5.703c.393 0 .754-.043 1.083-.128.328-.086.611-.218.848-.397.236-.179.42-.409.553-.689.132-.28.198-.614.198-1.004 0-.226-.021-.457-.063-.694a6.81 6.81 0 00-.164-.707 7.945 7.945 0 00-.232-.686 16.718 16.718 0 00-.261-.631l-1.205.595a8.618 8.618 0 01.642 1.753c.038.163.057.29.057.38a.731.731 0 01-.133.46.858.858 0 01-.342.263 1.6 1.6 0 01-.467.12c-.172.02-.34.029-.503.029h-.84v1.336h.83zm-3.824-5.072l.887-.887-.898-.897-.887.892.898.892zm1.972.01l.887-.892-.897-.892-.887.887.897.898zm-3.23 5.062c.244 0 .51-.003.801-.008.29-.006.573-.026.848-.063.275-.036.524-.094.749-.172.224-.078.394-.19.509-.337.163.17.361.31.594.418.233.108.519.162.856.162h.104V98.82h-.104a.665.665 0 01-.376-.107c-.108-.071-.199-.16-.274-.266a1.316 1.316 0 01-.174-.35 1.64 1.64 0 01-.079-.357 31.84 31.84 0 00-.039-.478 8.847 8.847 0 00-.042-.375 4.095 4.095 0 00-.062-.35 6.338 6.338 0 00-.107-.404l-1.284.36c.09.31.159.563.204.759.045.197.068.354.068.472 0 .181-.039.34-.115.478a.876.876 0 01-.373.341c-.172.09-.397.16-.676.206-.278.047-.62.07-1.028.07h-.193v1.337h.193zm-5.227 0c.306 0 .61-.019.915-.055.305-.037.605-.095.9-.175.41.104.785.169 1.122.193.337.024.643.037.918.037h1.388V98.82h-1.471c.233-.254.41-.538.53-.85a2.804 2.804 0 00.174-1.164 2.065 2.065 0 00-.219-.762 1.95 1.95 0 00-.451-.576 1.931 1.931 0 00-.629-.363 2.24 2.24 0 00-.751-.125c-.261 0-.512.033-.752.099s-.47.155-.69.266c-.222.111-.434.24-.637.386-.204.146-.4.3-.587.46v-.423a31.292 31.292 0 00-.277-4.143l-1.372.355c.056.542.102 1.01.138 1.4.037.392.065.734.086 1.026a19.507 19.507 0 01.052 1.43c-.003.39-.015.75-.036 1.085-.021.334-.047.61-.078.83a8.665 8.665 0 00-.668 1.001l-.037.068h-.793v1.336h3.225zm2.556-6.486l1.002-1.001-1.002-.997-.996.997.996 1.001zm-3.042 5.15h-.495a6.89 6.89 0 01.866-1.169c.295-.313.58-.565.855-.756.275-.192.533-.328.773-.41.24-.082.447-.126.62-.133h.09c.145 0 .281.014.406.042.146.038.272.09.378.154.107.064.19.141.25.232.062.09.096.188.103.292a1.072 1.072 0 01-.157.694 1.523 1.523 0 01-.511.485 2.99 2.99 0 01-.738.308c-.277.077-.561.134-.854.172a9.262 9.262 0 01-.853.073c-.276.01-.52.016-.733.016zm-2.53 1.336V98.82h-.235c-.135 0-.255-.014-.357-.042a.518.518 0 01-.391-.38 1.294 1.294 0 01-.04-.335l.001-.244.002-.157a592.361 592.361 0 00.01-.655c.002-.117.003-.241.003-.373v-.165l-.005-.38a35.009 35.009 0 01-.005-.587 27.332 27.332 0 00-.157-2.91 9.531 9.531 0 00-.104-.737l-1.31.391c.031.163.06.352.084.566.024.214.045.444.062.689a31.194 31.194 0 01.073 1.55 60.877 60.877 0 01.021 1.478c0 .37-.003.681-.01.937s-.01.44-.01.55c.003.717.187 1.253.552 1.607.366.355.901.533 1.607.533h.209zm-7.362 3.787c.31-.153.616-.325.918-.516.303-.191.59-.398.861-.621.272-.223.523-.46.754-.71.232-.25.432-.514.6-.79.169-.277.301-.564.397-.86.095-.298.143-.604.143-.917 0-.23-.019-.465-.057-.707a8.44 8.44 0 00-.149-.727c-.06-.244-.129-.485-.203-.723l-.217-.686-1.31.423c.046.153.102.328.17.527.068.198.134.404.198.618.065.214.12.43.165.65a3.1 3.1 0 01.068.625c0 .213-.039.423-.115.632a2.832 2.832 0 01-.316.61 3.82 3.82 0 01-.48.574 6.38 6.38 0 01-.605.527 8.096 8.096 0 01-.686.472c-.24.148-.484.283-.73.405l.594 1.194z"/><path fill="#000000" fill-opacity=".56" d="M354.777 99.068a.669.669 0 01-.946 0l-2.582-2.583-2.583 2.583a.669.669 0 11-.946-.946l3.055-3.056a.667.667 0 01.947 0l3.055 3.056a.668.668 0 010 .946"/><path fill="#000000" fill-opacity=".12" d="M16 292h343v1H16z"/><path d="M16 233h258.781v40H16z"/><rect width="257.781" height="39" x="16.5" y="233.5" stroke="#000000" stroke-opacity=".24" rx="4"/><path fill="#000000" fill-opacity=".87" fill-rule="nonzero" d="M244.27 257c.7 0 1.394-.065 2.08-.195.686-.13 1.35-.298 1.993-.504a19.848 19.848 0 001.843-.692c.587-.255 1.136-.51 1.646-.766.348-.171.681-.335 1.001-.49.32-.155.643-.3.967-.435l-.264-1.321c-.288 0-.573-.03-.856-.09a6.842 6.842 0 01-.848-.24 11.25 11.25 0 01-.846-.338c-.28-.126-.557-.253-.83-.383-.251-.116-.5-.23-.745-.34-.246-.112-.487-.21-.724-.296a5.637 5.637 0 00-.699-.206 3.12 3.12 0 00-.678-.076c-.45 0-.878.109-1.284.327-.405.218-.79.545-1.15.98a4.72 4.72 0 00-.331.439c-.095.144-.177.271-.244.383a3.542 3.542 0 00-.212.396l1.252.564a3.686 3.686 0 01.257-.456c.084-.128.184-.264.3-.41.116-.147.247-.283.393-.411.146-.128.305-.233.476-.317.172-.083.353-.125.543-.125.144 0 .301.022.473.066.172.044.354.104.546.178.193.074.392.159.598.254l.637.295c.283.135.57.267.862.397.293.13.599.25.919.362-.529.264-1.079.521-1.649.772-.57.25-1.155.473-1.753.668-.598.194-1.206.35-1.823.47a9.806 9.806 0 01-1.85.177h-1.51V257h1.51zm-1.231 0v-1.363h-.14c-.278 0-.507-.036-.688-.108a1.244 1.244 0 01-.452-.3 1.755 1.755 0 01-.31-.466 15.476 15.476 0 01-.268-.608c-.18-.422-.351-.827-.511-1.214a3910.464 3910.464 0 01-1.617-3.927l-1.267.529 2.199 5.287a2.64 2.64 0 01-.925.584c-.25.097-.463.154-.637.17a4.617 4.617 0 01-.393.025c-.186 0-.371-.021-.557-.063a3.191 3.191 0 01-.841-.32 4.114 4.114 0 01-.842-.619l-.786 1.106c.394.408.824.725 1.29.95a3.45 3.45 0 001.52.337c.33 0 .626-.02.89-.06.265-.039.51-.097.735-.173.225-.077.436-.173.633-.289.197-.116.393-.25.588-.403a2.4 2.4 0 00.347.358c.135.114.291.212.47.296.178.083.385.15.619.198.234.049.502.073.804.073h.139zm-9.99.063c.065-.77.103-1.496.115-2.178.011-.682.017-1.226.017-1.635 0-.677-.007-1.4-.02-2.17a63.584 63.584 0 00-.355-5.064l-1.364.208c.158 1.461.283 3.316.376 5.566.014.384.02.793.02 1.224 0 .357-.004.73-.013 1.12a64.7 64.7 0 01-.146 2.852l1.37.077zm-7.527-.063c.241 0 .443-.016.605-.049.984-.18 1.681-.637 2.094-1.37.098-.176.182-.371.254-.584.072-.214.116-.405.132-.574.017-.17.025-.303.025-.4a3.57 3.57 0 00-.042-.53 4.165 4.165 0 00-.25-.903 5.846 5.846 0 00-.53-1.013 8.611 8.611 0 00-.869-1.116 10.844 10.844 0 00-.8-.8c-.269-.241-.517-.46-.744-.654l4.98-2.094-.535-1.266-5.718 2.449-.16 1.426a17.637 17.637 0 012.115 2.02c.296.337.546.652.747.947.202.294.329.537.38.727.065.25.097.484.097.702a1.71 1.71 0 01-.278.946c-.13.195-.309.345-.536.449-.227.104-.478.18-.751.23a5.667 5.667 0 01-.863.083c-.301.007-.591.01-.87.01h-.869V257h2.386zm-5.252-8.78l1.03-1.029-1.037-1.036-1.03 1.03 1.037 1.036zm-1.572 2.2l1.127-1.135-1.141-1.14-1.127 1.133 1.14 1.141zm3.054.006l1.127-1.127-1.141-1.14-1.127 1.126 1.14 1.141zM218.246 257c.436 0 .815-.017 1.137-.052.322-.035.604-.088.845-.16a2.598 2.598 0 001.113-.65c.2.254.455.462.765.622.311.16.7.24 1.17.24h.138v-1.363h-.139c-.236 0-.43-.054-.58-.16a1.141 1.141 0 01-.355-.404 1.905 1.905 0 01-.185-.529 4.913 4.913 0 01-.076-.542 21.335 21.335 0 00-.126-1.204 6.535 6.535 0 00-.201-.946l-1.308.369c.102.352.173.665.212.939.04.274.06.543.06.807 0 .278-.047.522-.14.73a1.256 1.256 0 01-.435.522c-.197.14-.452.244-.765.313-.313.07-.69.105-1.13.105h-1.037V257h1.037zm-6.825 5.134a12.712 12.712 0 001.705-1.03 9.084 9.084 0 001.47-1.304 6.295 6.295 0 001.034-1.54c.26-.553.39-1.132.39-1.74v-.028c.115.125.237.223.365.292a1.686 1.686 0 00.713.209c.102.005.185.007.25.007h.118v-1.363h-.11c-.233 0-.445-.056-.637-.167a1.88 1.88 0 01-.553-.526 4.913 4.913 0 01-.515-.925 15.038 15.038 0 01-.515-1.374l-1.308.404c.056.171.123.386.202.643.079.258.158.532.236.825.08.292.152.59.22.893.067.304.117.588.15.853a2.596 2.596 0 01-.077.94c-.084.31-.21.609-.38.896-.169.288-.376.562-.622.824a8.04 8.04 0 01-.807.748 9.486 9.486 0 01-.932.665c-.33.206-.661.395-.995.567l.598 1.23zm-13.579-4.953c0-.404-.003-.828-.01-1.273a46.026 46.026 0 00-.126-2.748c-.034-.464-.08-.914-.135-1.35a15.886 15.886 0 00-.581-2.723 9.204 9.204 0 00-.95-2.104l-1.154.737c.347.547.625 1.178.83 1.892.207.714.366 1.482.477 2.303.112.82.184 1.677.216 2.57.033.893.049 1.792.049 2.696h1.384zm2.824-.077a2.5 2.5 0 00.08-.212c.05-.137.121-.318.216-.542.095-.225.215-.485.358-.78.144-.294.315-.601.512-.921.197-.32.42-.645.671-.974.25-.33.53-.641.838-.936a6.892 6.892 0 011.016-.8 5.25 5.25 0 011.2-.574l.5-.167-.403-1.315c-.05.014-.12.035-.205.063l-.323.104c-.135.042-.295.089-.48.14a8.955 8.955 0 01-1.231.24 4.885 4.885 0 01-.592.038h-.09c-.149 0-.303-.019-.463-.056a1.568 1.568 0 01-.442-.174 1.02 1.02 0 01-.33-.306.78.78 0 01-.129-.452c0-.227.056-.435.167-.623.111-.187.255-.349.431-.483.177-.135.377-.24.602-.317.225-.076.451-.114.678-.114.2 0 .41.03.63.09.22.06.449.165.685.313l.703-1.196c-.663-.39-1.336-.585-2.018-.585-.26 0-.52.032-.779.094a3.638 3.638 0 00-1.43.706 3.028 3.028 0 00-.549.581 2.72 2.72 0 00-.365.706 2.497 2.497 0 00-.132.821c0 .343.059.65.177.922.118.271.284.504.497.699.214.195.465.354.755.476.29.123.609.208.957.254a9.168 9.168 0 00-.821.898 13.02 13.02 0 00-.758 1.043 14.371 14.371 0 00-1.044 1.9c-.116.254-.206.47-.271.646l-.068.187c-.029.082-.05.144-.064.189l1.314.417zm-14.88-.02c.432 0 .81-.06 1.134-.181.334-.121.613-.295.835-.522.223-.227.39-.502.501-.824a3.3 3.3 0 00.167-1.082c0-.265-.024-.536-.073-.814a7.696 7.696 0 00-.188-.814 12.239 12.239 0 00-.859-2.17l-1.217.64a12.272 12.272 0 01.587 1.422c.1.295.186.595.258.901.072.306.108.591.108.856a2 2 0 01-.07.55.93.93 0 01-.226.403.764.764 0 01-.355.212 1.566 1.566 0 01-.4.052c-.079 0-.162-.005-.25-.014a.65.65 0 01-.352-.136.847.847 0 01-.23-.292 1.47 1.47 0 01-.124-.41 3.026 3.026 0 01-.039-.49c0-.19.014-.408.042-.651.028-.243.06-.473.094-.689l.05-.3.044-.253.035-.222-1.336-.244c-.028.19-.066.414-.115.671a9.558 9.558 0 01-.187.797 7.21 7.21 0 01-.279.807c-.109.264-.236.5-.382.71a2.008 2.008 0 01-.501.507c-.188.13-.4.195-.637.195a.735.735 0 01-.368-.083.622.622 0 01-.23-.223.974.974 0 01-.118-.316 1.894 1.894 0 01-.035-.366c0-.18.018-.377.056-.588.037-.21.08-.417.132-.619a12.77 12.77 0 01.292-.998l-1.377-.292c-.047.227-.102.468-.167.723a7.783 7.783 0 01-.237.762 5.556 5.556 0 01-.327.727 2.873 2.873 0 01-.442.616c-.169.178-.363.322-.58.431a1.626 1.626 0 01-.738.164h-.153V257h.146c.27 0 .516-.022.741-.066a2.704 2.704 0 001.13-.494c.158-.118.307-.252.446-.4.074.172.18.322.316.452.137.13.289.239.456.327.167.088.342.154.525.198.183.044.36.066.532.066.394 0 .768-.095 1.12-.285.353-.19.668-.447.946-.772.098.148.216.286.355.414.14.128.29.239.452.334.163.095.333.17.512.226.178.056.356.083.532.083h.048zm-7.979-.084v-1.363h-.139a2.77 2.77 0 01-.755-.09c-.21-.061-.37-.145-.476-.251a.58.58 0 01-.184-.359 3.758 3.758 0 01-.025-.441v-3.493a48.553 48.553 0 00-.066-2.546 31.39 31.39 0 00-.076-1.12c-.03-.343-.066-.633-.108-.87l-1.364.251c.042.218.078.498.108.839.03.34.056.713.077 1.116.02.404.036.82.045 1.252.01.432.014.847.014 1.245.004.409.007.796.007 1.162 0 .371-.003.7-.007.988a211.356 211.356 0 00-.014 1.037c0 .11.002.244.007.4a2.686 2.686 0 00.247 1.012c.08.176.198.34.351.494.25.25.555.436.915.556.36.12.794.181 1.304.181h.14zm-12.535 0l1.655-.014c.733 0 1.385-.017 1.955-.052.57-.035 1.077-.081 1.52-.14a15.582 15.582 0 002.049-.4l-.167-1.321-.511.104a8.2 8.2 0 01-.487.084 14.261 14.261 0 01-1.27.118c-.25 0-.492-.035-.723-.104a2.247 2.247 0 01-.748-.376 1.937 1.937 0 01-.519-.605 1.62 1.62 0 01-.194-.793c0-.213.034-.419.104-.616.07-.197.173-.372.31-.525.136-.153.307-.275.51-.365.205-.09.441-.136.71-.136.237 0 .45.024.64.073.19.049.366.116.526.202.16.086.31.185.448.299.14.114.281.235.425.365l.855-1.05a17.653 17.653 0 00-.619-.487 4.226 4.226 0 00-.647-.4 3.52 3.52 0 00-1.628-.365c-.43 0-.829.08-1.193.24a2.971 2.971 0 00-1.58 1.607c-.15.364-.225.75-.225 1.158 0 .417.069.798.205 1.14.137.344.375.669.713.975l-2.114.02V257zm-9.663-5.711l1.127-1.127-1.14-1.141-1.128 1.134 1.141 1.134zm2.852.014l1.127-1.134-1.14-1.134-1.128 1.127 1.141 1.14zm-2.017 5.718c2.639 0 4.57-.64 5.795-1.92.102.283.245.536.43.758.58.747 1.473 1.127 2.68 1.141h.194v-1.363h-.174c-.756-.005-1.296-.214-1.62-.627a1.391 1.391 0 01-.293-.584 3.455 3.455 0 01-.09-.626v-.056c0-.074.007-.162.02-.264a5.795 5.795 0 01.136-.748c.03-.123.057-.226.08-.31l-1.322-.361c-.06.209-.128.422-.205.64-.076.218-.17.433-.278.647-.11.213-.24.42-.393.619-.153.2-.336.383-.55.55-.477.39-1.076.673-1.794.852-.72.178-1.591.268-2.616.268-1.146-.005-2.077-.126-2.793-.362-.717-.237-1.214-.594-1.492-1.072a1.688 1.688 0 01-.223-.573 3.026 3.026 0 01-.049-.512c0-.06.003-.118.007-.174a2.93 2.93 0 01.087-.598 5.86 5.86 0 01.15-.5c.05-.145.097-.26.139-.349.042-.088.063-.134.063-.139l-1.204-.66c-.023.032-.09.177-.198.434a8.029 8.029 0 00-.338 1.047c-.055.209-.09.4-.104.574a4.625 4.625 0 00-.007.79c.019.24.064.482.136.723.072.241.175.475.31.703.417.705 1.088 1.22 2.013 1.548.925.326 2.093.495 3.503.504z"/><path d="M16 185h258.781v40H16z"/><rect width="257.781" height="39" x="16.5" y="185.5" stroke="#000000" stroke-opacity=".24" rx="4"/><path fill="#000000" fill-opacity=".87" fill-rule="nonzero" d="M249.112 209c.7 0 1.393-.065 2.08-.195.686-.13 1.35-.298 1.993-.504a19.848 19.848 0 001.843-.692c.587-.255 1.135-.51 1.645-.766.348-.171.682-.335 1.002-.49.32-.155.642-.3.967-.435l-.264-1.321c-.288 0-.573-.03-.856-.09a6.842 6.842 0 01-.849-.24 11.25 11.25 0 01-.845-.338c-.28-.126-.557-.253-.831-.383-.25-.116-.499-.23-.744-.34-.246-.112-.487-.21-.724-.296a5.637 5.637 0 00-.7-.206 3.12 3.12 0 00-.677-.076c-.45 0-.878.109-1.284.327-.406.218-.79.545-1.151.98a4.72 4.72 0 00-.33.439c-.096.144-.177.271-.244.383a3.542 3.542 0 00-.212.396l1.252.564a3.686 3.686 0 01.257-.456c.084-.128.184-.264.3-.41.115-.147.246-.283.393-.411.146-.128.304-.233.476-.317.172-.083.353-.125.543-.125.143 0 .301.022.473.066.171.044.353.104.546.178.192.074.392.159.598.254l.637.295c.282.135.57.267.862.397.292.13.598.25.918.362-.528.264-1.078.521-1.648.772-.57.25-1.155.473-1.753.668-.599.194-1.206.35-1.823.47a9.807 9.807 0 01-1.85.177h-1.51V209h1.51zm-1.232 0v-1.363h-.139c-.278 0-.508-.036-.688-.108a1.244 1.244 0 01-.453-.3 1.755 1.755 0 01-.31-.466 15.476 15.476 0 01-.267-.608c-.18-.422-.351-.827-.511-1.214a3910.464 3910.464 0 01-1.618-3.927l-1.266.529 2.198 5.287a2.64 2.64 0 01-.925.584c-.25.097-.462.154-.636.17a4.617 4.617 0 01-.393.025c-.186 0-.371-.021-.557-.063a3.191 3.191 0 01-.842-.32 4.114 4.114 0 01-.841-.619l-.786 1.106c.394.408.824.725 1.29.95a3.45 3.45 0 001.52.337c.33 0 .626-.02.89-.06.265-.039.51-.097.734-.173.225-.077.436-.173.633-.289.198-.116.393-.25.588-.403a2.4 2.4 0 00.348.358c.135.114.291.212.47.296.178.083.385.15.619.198.234.049.502.073.803.073h.14zm-9.99.063c.066-.77.104-1.496.116-2.178.011-.682.017-1.226.017-1.635 0-.677-.007-1.4-.02-2.17a63.584 63.584 0 00-.356-5.064l-1.363.208c.158 1.461.283 3.316.376 5.566.013.384.02.793.02 1.224 0 .357-.004.73-.014 1.12a64.7 64.7 0 01-.146 2.852l1.37.077zm-7.624-9.044l1.127-1.127-1.14-1.14-1.127 1.133 1.14 1.134zm2.853.014l1.127-1.134-1.141-1.134-1.127 1.127 1.14 1.141zM228.847 209c.46-.005.912-.022 1.357-.052.445-.03.87-.085 1.276-.164a6.536 6.536 0 001.134-.323c.35-.137.661-.314.932-.532a2.74 2.74 0 00.672-.793c.176-.311.292-.677.348-1.1a4.997 4.997 0 00.02-1.126 5.945 5.945 0 00-.212-1.096 5.3 5.3 0 00-.407-1.002 4.113 4.113 0 00-.57-.824c-.501-.543-1.057-.814-1.67-.814a1.71 1.71 0 00-.807.205c-.26.137-.494.344-.702.623-.367.473-.615 1.062-.745 1.767-.027.19-.041.364-.041.521v.119c.009.194.034.368.076.521.042.153.095.29.16.407.065.119.13.22.195.303.12.153.267.289.438.407.172.118.362.217.57.296.21.078.432.138.669.177.236.04.48.06.73.06h.703c-.038.04-.075.083-.112.124a1.453 1.453 0 01-.146.14 1.95 1.95 0 01-.522.278 6.013 6.013 0 01-.866.254c-.34.076-.728.139-1.161.187a12.73 12.73 0 01-1.416.074h-.14V209h.237zm3.82-3.798c-.21 0-.432-.005-.668-.014a2.745 2.745 0 01-.56-.09 1.009 1.009 0 01-.404-.21.633.633 0 01-.202-.305 1.224 1.224 0 01-.045-.32c0-.08.007-.163.021-.25.042-.237.1-.446.177-.627.077-.18.16-.334.247-.459a1.16 1.16 0 01.265-.282.419.419 0 01.23-.094c.13 0 .25.04.365.122.113.081.207.164.281.247.237.264.426.596.567.995.142.399.229.823.261 1.273-.153.01-.331.014-.536.014zm-9.774 8.361c.24 0 .491-.018.75-.055a4.818 4.818 0 002.077-.828c.323-.227.608-.509.856-.845a4.16 4.16 0 00.595-1.183c.148-.452.222-.97.222-1.555v-.403c.172.097.361.173.567.226.207.053.47.08.79.08h.14v-1.363h-.14c-.246 0-.456-.043-.63-.13a1.274 1.274 0 01-.434-.344 1.489 1.489 0 01-.261-.49 2.03 2.03 0 01-.094-.567 694.112 694.112 0 00-.205-5.562c-.03-.707-.064-1.434-.101-2.18l-1.364.055a306.585 306.585 0 01.181 4.237l.07 1.77c.023.605.043 1.193.059 1.764.016.57.03 1.106.042 1.607.011.5.017.934.017 1.3 0 .395-.052.746-.157 1.054-.104.309-.243.58-.417.814a2.709 2.709 0 01-.602.595 3.418 3.418 0 01-1.43.588 4.02 4.02 0 01-.608.052 2.722 2.722 0 01-.7-.094 3.177 3.177 0 01-.566-.209 2.988 2.988 0 01-.553-.344 2.395 2.395 0 01-.473-.494 2.388 2.388 0 01-.327-.657 2.665 2.665 0 01-.122-.832 6.202 6.202 0 01.369-2.19c.05-.145.108-.278.17-.4.063-.124.127-.236.192-.338l-1.246-.557c-.157.227-.296.51-.417.849a7.737 7.737 0 00-.292 1.085 8.18 8.18 0 00-.14 1.551v.056c0 .44.056.84.168 1.197a3.48 3.48 0 001.158 1.757c.262.21.539.385.831.524a4.678 4.678 0 002.024.46zm-16.244-4.43c0-.947-.015-1.895-.045-2.846-.03-.95-.122-1.9-.275-2.845a2.344 2.344 0 00.87.139c.18 0 .357-.016.528-.049.172-.032.334-.086.487-.16a1.699 1.699 0 00.772-.765c.116.167.24.306.37.417a1.743 1.743 0 001.16.432c.367 0 .681-.069.944-.206.262-.136.474-.325.636-.567.162-.24.275-.505.337-.793a4.044 4.044 0 00.087-1.099 19.882 19.882 0 00-.07-.928 13.184 13.184 0 00-.16-1.11l-1.3.257c.074.404.12.748.136 1.033.016.286.024.533.024.741 0 .107-.005.233-.014.38-.01.146-.034.286-.073.42a.871.871 0 01-.188.345.458.458 0 01-.358.142.4.4 0 01-.303-.139 1.289 1.289 0 01-.226-.362 2.98 2.98 0 01-.163-.497 7.864 7.864 0 01-.181-1.054 52.627 52.627 0 01-.038-.382 7.515 7.515 0 00-.039-.373 4.335 4.335 0 01-.031-.407l-1.377.167a13.733 13.733 0 01.045.605 29.473 29.473 0 01.024.668c-.004.153-.02.338-.045.553a2.74 2.74 0 01-.15.627 1.504 1.504 0 01-.31.514.685.685 0 01-.524.212c-.21 0-.38-.026-.515-.08a.92.92 0 01-.358-.26 2.107 2.107 0 01-.296-.473 24.182 24.182 0 01-.327-.724l-.327-.703-.143-.285-.142-.285c-.047-.093-.09-.18-.132-.26a4.5 4.5 0 00-.112-.206l-1.259.744c.107.167.205.343.296.529.09.186.189.406.296.66.375.966.653 2.05.834 3.257.181 1.205.272 2.483.272 3.833 0 .185-.002.38-.004.584a16.53 16.53 0 01-.017.598h1.384zm-11.666-.05c.431 0 .81-.06 1.134-.18.334-.121.612-.295.835-.522.222-.227.39-.502.5-.824a3.3 3.3 0 00.168-1.082c0-.265-.025-.536-.074-.814a7.696 7.696 0 00-.187-.814 12.238 12.238 0 00-.86-2.17l-1.217.64a12.273 12.273 0 01.588 1.422c.1.295.185.595.257.901.072.306.108.591.108.856a2 2 0 01-.07.55.93.93 0 01-.225.403.764.764 0 01-.355.212 1.566 1.566 0 01-.4.052c-.08 0-.163-.005-.25-.014a.65.65 0 01-.352-.136.847.847 0 01-.23-.292 1.47 1.47 0 01-.125-.41 3.025 3.025 0 01-.038-.49c0-.19.014-.408.042-.651.028-.243.059-.473.094-.689.034-.215.066-.4.094-.553l.034-.222-1.335-.244c-.028.19-.066.414-.115.671a9.558 9.558 0 01-.188.797 7.21 7.21 0 01-.278.807c-.11.264-.237.5-.383.71a2.008 2.008 0 01-.5.507c-.189.13-.4.195-.637.195a.735.735 0 01-.369-.083.622.622 0 01-.23-.223.974.974 0 01-.118-.316 1.894 1.894 0 01-.035-.366c0-.18.019-.377.056-.588.037-.21.081-.417.132-.619a12.77 12.77 0 01.292-.998l-1.377-.292c-.046.227-.102.468-.167.723a7.784 7.784 0 01-.236.762 5.556 5.556 0 01-.327.727 2.873 2.873 0 01-.442.616c-.17.178-.363.322-.581.431a1.626 1.626 0 01-.737.164h-.153V209h.146c.269 0 .516-.022.74-.066a2.704 2.704 0 001.13-.494c.159-.118.307-.252.446-.4.074.172.18.322.317.452s.288.239.455.327c.167.088.342.154.526.198.183.044.36.066.532.066.394 0 .767-.095 1.12-.285.352-.19.668-.447.946-.772.097.148.216.286.355.414.139.128.29.239.452.334.162.095.333.17.511.226.179.056.356.083.532.083h.049zm-7.98-.083v-1.363h-.138a2.77 2.77 0 01-.755-.09c-.211-.061-.37-.145-.477-.251a.58.58 0 01-.184-.359 3.758 3.758 0 01-.024-.441v-3.493a48.553 48.553 0 00-.066-2.546 31.39 31.39 0 00-.077-1.12c-.03-.343-.066-.633-.108-.87l-1.363.251c.042.218.077.498.108.839.03.34.055.713.076 1.116.021.404.036.82.045 1.252.01.432.014.847.014 1.245.005.409.007.796.007 1.162v.27c-.001.263-.003.502-.007.718a211.588 211.588 0 00-.013.957v.198l.006.282a2.686 2.686 0 00.247 1.012c.081.176.199.34.352.494.25.25.555.436.914.556.36.12.795.181 1.305.181h.139zm-12.535 0l1.656-.014c.733 0 1.384-.017 1.955-.052.57-.035 1.077-.081 1.52-.14a15.582 15.582 0 002.048-.4l-.167-1.321-.51.104a8.2 8.2 0 01-.488.084 14.261 14.261 0 01-1.27.118c-.25 0-.491-.035-.723-.104a2.247 2.247 0 01-.748-.376 1.937 1.937 0 01-.518-.605 1.62 1.62 0 01-.195-.793c0-.213.035-.419.105-.616.07-.197.172-.372.31-.525.136-.153.306-.275.51-.365.204-.09.441-.136.71-.136.237 0 .45.024.64.073.19.049.365.116.525.202.16.086.31.185.449.299.139.114.28.235.424.365l.856-1.05a17.653 17.653 0 00-.62-.487 4.226 4.226 0 00-.646-.4 3.52 3.52 0 00-1.628-.365c-.431 0-.829.08-1.193.24a2.971 2.971 0 00-1.58 1.607c-.15.364-.225.75-.225 1.158 0 .417.068.798.205 1.14.137.344.374.669.713.975l-2.115.02V209zm-9.662-5.711l1.127-1.127-1.141-1.141-1.127 1.134 1.14 1.134zm2.852.014l1.127-1.134-1.141-1.134-1.127 1.127 1.14 1.14zm-2.018 5.718c2.64 0 4.57-.64 5.795-1.92.102.283.246.536.431.758.58.747 1.473 1.127 2.679 1.141h.195v-1.363h-.174c-.756-.005-1.297-.214-1.621-.627a1.391 1.391 0 01-.292-.584 3.455 3.455 0 01-.09-.626v-.056c0-.074.006-.162.02-.264a5.796 5.796 0 01.136-.748 10.8 10.8 0 01.08-.31l-1.322-.361c-.06.209-.129.422-.205.64-.077.218-.17.433-.279.647-.109.213-.24.42-.393.619-.153.2-.336.383-.55.55-.477.39-1.075.673-1.794.852-.719.178-1.59.268-2.616.268-1.145-.005-2.076-.126-2.793-.362-.716-.237-1.214-.594-1.492-1.072a1.688 1.688 0 01-.222-.573 3.027 3.027 0 01-.05-.512c0-.06.003-.118.008-.174a2.93 2.93 0 01.087-.598c.048-.19.098-.357.15-.5.05-.145.097-.26.138-.349a1.61 1.61 0 00.063-.139l-1.203-.66c-.024.032-.09.177-.199.434a8.028 8.028 0 00-.337 1.047c-.056.209-.09.4-.104.574a4.626 4.626 0 00-.007.79c.018.24.063.482.135.723.072.241.175.475.31.703.417.705 1.089 1.22 2.014 1.548.925.326 2.093.495 3.502.504z"/><path fill="#000000" fill-opacity=".56" fill-rule="nonzero" d="M351.342 250.286l.986-.986-.998-.998-.987.992.999.992zm2.495.012l.986-.992-.998-.992-.986.986.998.998zM351.183 257c.333 0 .655-.022.965-.067.31-.045.596-.122.855-.231.26-.11.49-.256.691-.439.201-.182.363-.411.484-.687.122-.28.183-.605.183-.974 0-.065-.002-.13-.006-.195-.029-.45-.134-.97-.317-1.558a7.904 7.904 0 00-.195-.563 12.302 12.302 0 00-.334-.786 1.499 1.499 0 01-.055-.124l-1.084.535.53 1.303a3.959 3.959 0 01.274 1.038c.008.107.012.187.012.24 0 .098-.006.189-.018.274-.02.13-.05.237-.091.323a.953.953 0 01-.341.398 1.674 1.674 0 01-.506.216c-.19.05-.397.079-.62.089-.224.01-.453.015-.688.015h-1.175V257h1.436zm-1.193 0v-1.193h-.121c-.256 0-.476-.026-.66-.08a.95.95 0 01-.418-.218.507.507 0 01-.161-.314 3.288 3.288 0 01-.021-.386v-3.056a42.483 42.483 0 00-.125-3.208 9.022 9.022 0 00-.094-.76l-1.193.218c.036.191.067.436.094.734.026.298.049.624.067.977.018.353.031.718.04 1.096.008.377.012.74.012 1.09a89.654 89.654 0 010 1.88 184.943 184.943 0 00-.012.837v.07c0 .097.001.214.005.35a2.35 2.35 0 00.216.886c.072.154.174.298.308.432.22.219.486.381.8.487.315.105.695.158 1.142.158h.121zm4.073-47.945a28.5 28.5 0 00.1-1.905c.01-.597.015-1.074.015-1.43 0-.593-.006-1.226-.018-1.9a55.636 55.636 0 00-.31-4.431l-1.193.182c.137 1.279.247 2.902.328 4.87.012.337.018.694.018 1.071 0 .313-.004.64-.012.98-.02.755-.063 1.587-.128 2.496l1.2.067zm-4.42-5.515l.993-.992-.999-.998-.992.992.998.998zm-2.66 9.818c.341-.166.677-.354 1.008-.563.33-.209.645-.437.943-.685.299-.247.575-.51.828-.79.254-.28.473-.575.658-.883.184-.309.328-.628.432-.96.103-.33.155-.672.155-1.025 0-.178-.014-.361-.043-.548a8.704 8.704 0 00-.106-.569c-.043-.193-.09-.387-.14-.584l-.15-.588a9.053 9.053 0 00-.151-.556 65.409 65.409 0 01-.17-.564l-1.157.366c.11.34.213.681.31 1.022.045.167.091.337.14.512.049.174.093.349.134.523.04.175.074.345.1.511.027.167.04.325.04.475 0 .394-.095.775-.286 1.145a4.51 4.51 0 01-.758 1.046 6.964 6.964 0 01-1.074.91 9.912 9.912 0 01-1.242.734l.53 1.071z"/><circle cx="351" cy="234" r="1" fill="#000000" fill-opacity=".24"/><circle cx="351" cy="229" r="1" fill="#000000" fill-opacity=".24"/><circle cx="351" cy="224" r="1" fill="#000000" fill-opacity=".24"/><rect width="343" height="2" x="16.022" y="142" fill="#000000" fill-opacity=".12" rx="1"/><path fill="#EA475B" fill-rule="nonzero" d="M101 142h192v2H101z"/><circle cx="92" cy="143" r="9.5" fill="#FFF" stroke="#000000" stroke-opacity=".12"/><path fill="#000000" fill-opacity=".56" d="M94.202 142.527l-3.053-3.053a.67.67 0 00-.945.946l2.58 2.58-2.58 2.58a.669.669 0 00.945.946l3.053-3.053a.668.668 0 000-.946"/><circle cx="302" cy="143" r="9.5" fill="#FFF" stroke="#000000" stroke-opacity=".12"/><path fill="#000000" fill-opacity=".56" d="M301.208 143l2.583-2.583a.669.669 0 10-.947-.946l-3.056 3.056a.67.67 0 000 .946l3.056 3.056a.667.667 0 00.947 0 .669.669 0 000-.946L301.208 143z"/></g></g></g></g></svg>