<svg xmlns="http://www.w3.org/2000/svg" xmlns:xlink="http://www.w3.org/1999/xlink" width="714" height="262" viewBox="0 0 714 262">
  <defs>
    <circle id="variation_all-b" cx="68" cy="52" r="16"/>
    <filter id="variation_all-a" width="159.4%" height="159.4%" x="-29.7%" y="-26.6%" filterUnits="objectBoundingBox">
      <feOffset dy="1" in="SourceAlpha" result="shadowOffsetOuter1"/>
      <feGaussianBlur in="shadowOffsetOuter1" result="shadowBlurOuter1" stdDeviation="3"/>
      <feComposite in="shadowBlurOuter1" in2="SourceAlpha" operator="out" result="shadowBlurOuter1"/>
      <feColorMatrix in="shadowBlurOuter1" values="0 0 0 0 0   0 0 0 0 0   0 0 0 0 0  0 0 0 0.12 0"/>
    </filter>
    <filter id="variation_all-c" width="156.2%" height="156.2%" x="-28.1%" y="-25%" filterUnits="objectBoundingBox">
      <feGaussianBlur in="SourceAlpha" result="shadowBlurInner1" stdDeviation="2"/>
      <feOffset dy="2" in="shadowBlurInner1" result="shadowOffsetInner1"/>
      <feComposite in="shadowOffsetInner1" in2="SourceAlpha" k2="-1" k3="1" operator="arithmetic" result="shadowInnerInner1"/>
      <feColorMatrix in="shadowInnerInner1" values="0 0 0 0 1   0 0 0 0 1   0 0 0 0 1  0 0 0 1 0"/>
    </filter>
    <circle id="variation_all-e" cx="68" cy="60" r="16"/>
    <filter id="variation_all-d" width="159.4%" height="159.4%" x="-29.7%" y="-26.6%" filterUnits="objectBoundingBox">
      <feOffset dy="1" in="SourceAlpha" result="shadowOffsetOuter1"/>
      <feGaussianBlur in="shadowOffsetOuter1" result="shadowBlurOuter1" stdDeviation="3"/>
      <feComposite in="shadowBlurOuter1" in2="SourceAlpha" operator="out" result="shadowBlurOuter1"/>
      <feColorMatrix in="shadowBlurOuter1" values="0 0 0 0 0   0 0 0 0 0   0 0 0 0 0  0 0 0 0.12 0"/>
    </filter>
    <filter id="variation_all-f" width="156.2%" height="156.2%" x="-28.1%" y="-25%" filterUnits="objectBoundingBox">
      <feGaussianBlur in="SourceAlpha" result="shadowBlurInner1" stdDeviation="2"/>
      <feOffset dy="2" in="shadowBlurInner1" result="shadowOffsetInner1"/>
      <feComposite in="shadowOffsetInner1" in2="SourceAlpha" k2="-1" k3="1" operator="arithmetic" result="shadowInnerInner1"/>
      <feColorMatrix in="shadowInnerInner1" values="0 0 0 0 1   0 0 0 0 1   0 0 0 0 1  0 0 0 1 0"/>
    </filter>
    <style>
    @keyframes mouse_1{
      0%{
        transform:translate(0px, 0px);
        opacity:1
      }
            10%{
        transform:translate(-48px, -24px);
        opacity:1
      }
        11%{
        transform:translate(-48px, -24px);
        opacity:1
      }
      16%{
        transform:translate(-48px, -24px);
        opacity:.5
      }
      46%{
        transform:translate(32px, -24px);
        opacity:.5
      }
     49%{
        transform:translate(32px, -24px);
        opacity:.5
      }
            79%{
        transform:translate(-48px, -24px);
        opacity:.5
      }
            84%{
        transform:translate(-48px, -24px);
        opacity:1
      }
            86%{
        transform:translate(-48px, -24px);
        opacity:1
      }
            100%{
        transform:translate(0px, 0px);
        opacity:1
      }
    }
    @keyframes handle_1{
0%{
  fill:#fff;
  stroke:#000000;
  stroke-opacity:0.12;
 }
16%{
  fill:#fff;
  stroke:#000000;
  stroke-opacity:0.12;
 }
22%{
  fill:#EA475B;
  stroke:none;
  stroke-opacity:0;
 }
79%{
  fill:#EA475B;
  stroke:none;
  stroke-opacity:0;
 }
87%{
  fill:#fff;
  stroke:#000000;
  stroke-opacity:0.12;
 }
93%{
  fill:#fff;
  stroke:#000000;
  stroke-opacity:0.12;
 }
 100%{
  fill:#fff;
  stroke:#000000;
  stroke-opacity:0.12;
 }
    }
    @keyframes handle_1_move{
0%{
transform:translateX(0px)
 }
16%{
transform:translateX(0px)
 }
      46%{
    transform:translateX(80px)
      }
     49%{
transform:translateX(80px)
      }
79%{
transform:translateX(0px)
 }
 100%{
transform:translateX(0px)
 }
    }
    @keyframes hover_1{
0%{
transform:scale(0);
opacity:0
 }
2%{
transform:scale(0);
opacity:0
 }
4%{
transform:scale(1);
opacity:1
 }
91%{
transform:scale(1);
opacity:1
 }
 93%{
transform:scale(0);
opacity:0
 }
 100%{
transform:scale(0);
opacity:0
 }
    }
        @keyframes bar_1{
0%{
transform:scaleX(0)
 }
16%{
transform:scaleX(0)
 }
      46%{
transform:scaleX(1.5)
      }
     49%{
transform:scaleX(1.5)
      }
79%{
transform:scaleX(0)
 }
 100%{
transform:scaleX(0)
 }
    }
    @keyframes mouse_2{
      0%{
        transform:translate(0px, 0px);
        opacity:1
      }
            10%{
        transform:translate(-48px, -24px);
        opacity:1
      }
        11%{
        transform:translate(-48px, -24px);
        opacity:1
      }
      16%{
        transform:translate(-48px, -24px);
        opacity:.5
      }
      46%{
        transform:translate(26px, -24px);
        opacity:.5
      }
      
     49%{
        transform:translate(26px, -24px);
        opacity:.5
      }
            79%{
        transform:translate(-48px, -24px);
        opacity:.5
      }
            84%{
        transform:translate(-48px, -24px);
        opacity:1
      }
            86%{
        transform:translate(-48px, -24px);
        opacity:1
      }
            100%{
        transform:translate(0px, 0px);
        opacity:1
      }
    }
    @keyframes hover_2_left{
0%{
transform:scale(0);
opacity:0
 }
2%{
transform:scale(0);
opacity:0
 }
4%{
transform:scale(1);
opacity:1
 }
91%{
transform:scale(1);
opacity:1
 }
 93%{
transform:scale(0);
opacity:0
 }
 100%{
transform:scale(0);
opacity:0
 }
    }
    @keyframes handle_2_move{
0%{
transform:translateX(0px)
 }
16%{
transform:translateX(0px)
 }
      46%{
    transform:translateX(74px)
      }
     50%{
transform:translateX(74px)
      }
79%{
transform:translateX(0px)
 }
 100%{
transform:translateX(0px)
 }
    }
    @keyframes handle_2{
0%{
  fill:#fff;
  stroke:#000000;
  stroke-opacity:0.12;
 }
16%{
  fill:#fff;
  stroke:#000000;
  stroke-opacity:0.12;
 }
22%{
  fill:#EA475B;
  stroke:none;
  stroke-opacity:0;
 }
79%{
  fill:#EA475B;
  stroke:none;
  stroke-opacity:0;
 }
87%{
  fill:#fff;
  stroke:#000000;
  stroke-opacity:0.12;
 }
93%{
  fill:#fff;
  stroke:#000000;
  stroke-opacity:0.12;
 }
 100%{
  fill:#fff;
  stroke:#000000;
  stroke-opacity:0.12;
 }
    }
    @keyframes icon{
0%{
  fill:#000000;
  fill-opacity:.56
 }
16%{
  fill:#000000;
    fill-opacity:.56
 }
22%{
  fill:#fff;
        fill-opacity:1
 }
79%{
  fill:#fff;
        fill-opacity:1
 }
87%{
  fill:#000000;
    fill-opacity:.56
 }
93%{
   fill:#000000;
     fill-opacity:.56
 }
 100%{
    fill:#000000;
      fill-opacity:.56
 }
    }
        @keyframes bar_2{
0%{
transform:scaleX(1)
 }
16%{
transform:scaleX(1)
 }
      46%{
transform:scaleX(0)
      }
     50%{
transform:scaleX(0)
      }
79%{
transform:scaleX(1)
 }
 100%{
transform:scaleX(1)
 }
    }



    @keyframes hover_2_right{
0%{
transform:scale(0);
opacity:0
 }
2%{
transform:scale(0);
opacity:0
 }
4%{
transform:scale(1);
opacity:1
 }
16%{
transform:scale(1);
opacity:1
 }

18%{
transform:scale(0);
opacity:0
 }



82%{
transform:scale(0);
opacity:0
 }
84%{
transform:scale(1);
opacity:1
 }
91%{
transform:scale(1);
opacity:1
 }
 93%{
transform:scale(0);
opacity:0
 }
 100%{
transform:scale(0);
opacity:0
 }
    }

    </style>
  </defs>
  <g fill="none" fill-rule="evenodd">
    <rect width="714" height="262"/>
    <g transform="translate(32 32)">
      <g transform="translate(151)">
        <g transform="translate(0 8)">
          <g transform="translate(399 8)">
            <rect width="100" height="2" fill="#000000" fill-opacity=".12" rx="1" transform="translate(0 9)"/>
            <rect width="53" height="2" y="9" fill="#EA475B" fill-rule="nonzero" rx="1"/>
            <circle cx="10" cy="10" r="9.5" fill="#FFF" stroke="#000000" stroke-opacity=".12" transform="translate(52)"/>
          </g>
          <g transform="translate(266)">
            <rect width="100" height="2" fill="#000000" fill-opacity=".12" rx="1" transform="translate(0 17)"/>
            <rect width="53" height="2" y="17" fill="#EA475B" fill-rule="nonzero" rx="1"/>
            <g transform="translate(44)">
              <circle cx="18" cy="18" r="18" fill="#EA475B" fill-opacity=".04"/>
              <circle cx="18" cy="18" r="9.5" fill="#FFF" stroke="#000000" stroke-opacity=".12"/>
            </g>
          </g>
          <g transform="translate(133)">
            <rect width="100" height="2" fill="#000000" fill-opacity=".12" rx="1" transform="translate(0 17)"/>
            <g fill="#EA475B">
              <rect width="53" height="2" y="17" fill-rule="nonzero" rx="1"/>
              <g transform="translate(44)">
                <circle cx="18" cy="18" r="18" fill-opacity=".04"/>
                <circle cx="18" cy="18" r="10" fill-rule="nonzero"/>
              </g>
            </g>
          </g>
          <g transform="translate(0 4)">
            <rect width="100" height="2" fill="#000000" fill-opacity=".08" rx="1" transform="translate(0 13)"/>
            <rect width="53" height="2" y="13" fill="#BDBDBD" rx="1"/>
            <g transform="translate(48)">
              <circle cx="14" cy="14" r="14" fill="#FFF" fill-opacity=".7"/>
              <circle cx="14" cy="14" r="10" fill="#BDBDBD"/>
            </g>
          </g>
        </g>
        <g fill="#000000" fill-opacity=".12" transform="translate(116)">
          <rect width="1" height="82" x="266"/>
          <rect width="1" height="82" x="133"/>
          <rect width="1" height="82"/>
        </g>
      </g>
      <g transform="translate(18 65)">
        <g transform="translate(133 57)">
          <g transform="translate(399 8)">
            <rect width="100" height="2" fill="#000000" fill-opacity=".12" rx="1" transform="translate(0 9)"/>
            <g transform="translate(16)">
              <rect width="30" height="2" x="19" y="9" fill="#EA475B" fill-rule="nonzero"/>
              <circle cx="10" cy="10" r="9.5" fill="#FFF" stroke="#000000" stroke-opacity=".12"/>
              <path fill="#000000" fill-opacity=".56" d="M4.20246667,3.52733333 L1.14913333,0.474 C0.8878,0.213333333 0.465133333,0.213333333 0.2038,0.474 C-0.0575333333,0.736 -0.0575333333,1.15866667 0.2038,1.42 L2.78446667,4 L0.2038,6.58 C-0.0575333333,6.84133333 -0.0575333333,7.264 0.2038,7.526 C0.334466667,7.656 0.5058,7.72133333 0.676466667,7.72133333 C0.8478,7.72133333 1.01913333,7.656 1.14913333,7.526 L4.20246667,4.47266667 C4.4638,4.21133333 4.4638,3.78866667 4.20246667,3.52733333" transform="translate(8 6)"/>
              <g transform="translate(48)">
                <circle cx="10" cy="10" r="9.5" fill="#FFF" stroke="#000000" stroke-opacity=".12"/>
                <path fill="#000000" fill-opacity=".56" d="M2.20833333,4 L4.791,1.41733333 C5.05233333,1.156 5.05233333,0.732666667 4.791,0.471333333 C4.529,0.209333333 4.10633333,0.209333333 3.84433333,0.471333333 L0.788333333,3.52733333 C0.527666667,3.78866667 0.527666667,4.21133333 0.788333333,4.47266667 L3.84433333,7.52866667 C3.975,7.65933333 4.14633333,7.72466667 4.31766667,7.72466667 C4.489,7.72466667 4.66033333,7.65933333 4.791,7.52866667 C5.05233333,7.26733333 5.05233333,6.844 4.791,6.58266667 L2.20833333,4 Z" transform="translate(7 6)"/>
              </g>
            </g>
          </g>
          <g transform="translate(266)">
            <rect width="100" height="2" fill="#000000" fill-opacity=".12" rx="1" transform="translate(0 17)"/>
            <g transform="translate(8)">
              <rect width="30" height="2" x="27" y="17" fill="#EA475B" fill-rule="nonzero"/>
              <circle cx="18" cy="18" r="18" fill="#EA475B" fill-opacity=".04"/>
              <circle cx="18" cy="18" r="9.5" fill="#FFF" stroke="#000000" stroke-opacity=".12"/>
              <path fill="#000000" fill-opacity=".56" d="M4.20246667,3.52733333 L1.14913333,0.474 C0.8878,0.213333333 0.465133333,0.213333333 0.2038,0.474 C-0.0575333333,0.736 -0.0575333333,1.15866667 0.2038,1.42 L2.78446667,4 L0.2038,6.58 C-0.0575333333,6.84133333 -0.0575333333,7.264 0.2038,7.526 C0.334466667,7.656 0.5058,7.72133333 0.676466667,7.72133333 C0.8478,7.72133333 1.01913333,7.656 1.14913333,7.526 L4.20246667,4.47266667 C4.4638,4.21133333 4.4638,3.78866667 4.20246667,3.52733333" transform="translate(16 14)"/>
              <g transform="translate(56 8)">
                <circle cx="10" cy="10" r="9.5" fill="#FFF" stroke="#000000" stroke-opacity=".12"/>
                <path fill="#000000" fill-opacity=".56" d="M2.20833333,4 L4.791,1.41733333 C5.05233333,1.156 5.05233333,0.732666667 4.791,0.471333333 C4.529,0.209333333 4.10633333,0.209333333 3.84433333,0.471333333 L0.788333333,3.52733333 C0.527666667,3.78866667 0.527666667,4.21133333 0.788333333,4.47266667 L3.84433333,7.52866667 C3.975,7.65933333 4.14633333,7.72466667 4.31766667,7.72466667 C4.489,7.72466667 4.66033333,7.65933333 4.791,7.52866667 C5.05233333,7.26733333 5.05233333,6.844 4.791,6.58266667 L2.20833333,4 Z" transform="translate(7 6)"/>
              </g>
            </g>
          </g>
          <g transform="translate(133)">
            <rect width="100" height="2" fill="#000000" fill-opacity=".12" rx="1" transform="translate(0 17)"/>
            <g transform="translate(8)">
              <rect width="30" height="2" x="27" y="17" fill="#EA475B" fill-rule="nonzero"/>
              <circle cx="18" cy="18" r="18" fill="#EA475B" fill-opacity=".04"/>
              <circle cx="18" cy="18" r="10" fill="#EA475B" fill-rule="nonzero"/>
              <path fill="#FFF" d="M4.20246667,3.52733333 L1.14913333,0.474 C0.8878,0.213333333 0.465133333,0.213333333 0.2038,0.474 C-0.0575333333,0.736 -0.0575333333,1.15866667 0.2038,1.42 L2.78446667,4 L0.2038,6.58 C-0.0575333333,6.84133333 -0.0575333333,7.264 0.2038,7.526 C0.334466667,7.656 0.5058,7.72133333 0.676466667,7.72133333 C0.8478,7.72133333 1.01913333,7.656 1.14913333,7.526 L4.20246667,4.47266667 C4.4638,4.21133333 4.4638,3.78866667 4.20246667,3.52733333" transform="translate(16 14)"/>
              <g transform="translate(56 8)">
                <circle cx="10" cy="10" r="9.5" fill="#FFF" stroke="#000000" stroke-opacity=".12"/>
                <path fill="#000000" fill-opacity=".56" d="M2.20833333,4 L4.791,1.41733333 C5.05233333,1.156 5.05233333,0.732666667 4.791,0.471333333 C4.529,0.209333333 4.10633333,0.209333333 3.84433333,0.471333333 L0.788333333,3.52733333 C0.527666667,3.78866667 0.527666667,4.21133333 0.788333333,4.47266667 L3.84433333,7.52866667 C3.975,7.65933333 4.14633333,7.72466667 4.31766667,7.72466667 C4.489,7.72466667 4.66033333,7.65933333 4.791,7.52866667 C5.05233333,7.26733333 5.05233333,6.844 4.791,6.58266667 L2.20833333,4 Z" transform="translate(7 6)"/>
              </g>
            </g>
          </g>
          <g transform="translate(0 4)">
            <rect width="100" height="2" fill="#000000" fill-opacity=".08" rx="1" transform="translate(0 13)"/>
            <g transform="translate(12)">
              <rect width="30" height="2" x="23" y="13" fill="#BDBDBD"/>
              <circle cx="14" cy="14" r="14" fill="#FFF" fill-opacity=".7"/>
              <circle cx="14" cy="14" r="10" fill="#BDBDBD"/>
              <path fill="#FFF" d="M4.20246667,3.52733333 L1.14913333,0.474 C0.8878,0.213333333 0.465133333,0.213333333 0.2038,0.474 C-0.0575333333,0.736 -0.0575333333,1.15866667 0.2038,1.42 L2.78446667,4 L0.2038,6.58 C-0.0575333333,6.84133333 -0.0575333333,7.264 0.2038,7.526 C0.334466667,7.656 0.5058,7.72133333 0.676466667,7.72133333 C0.8478,7.72133333 1.01913333,7.656 1.14913333,7.526 L4.20246667,4.47266667 C4.4638,4.21133333 4.4638,3.78866667 4.20246667,3.52733333" transform="translate(12 10)"/>
              <g transform="translate(48)">
                <circle cx="14" cy="14" r="14" fill="#FFF" fill-opacity=".7"/>
                <circle cx="14" cy="14" r="10" fill="#BDBDBD"/>
                <path fill="#FFF" d="M2.20833333,4 L4.791,1.41733333 C5.05233333,1.156 5.05233333,0.732666667 4.791,0.471333333 C4.529,0.209333333 4.10633333,0.209333333 3.84433333,0.471333333 L0.788333333,3.52733333 C0.527666667,3.78866667 0.527666667,4.21133333 0.788333333,4.47266667 L3.84433333,7.52866667 C3.975,7.65933333 4.14633333,7.72466667 4.31766667,7.72466667 C4.489,7.72466667 4.66033333,7.65933333 4.791,7.52866667 C5.05233333,7.26733333 5.05233333,6.844 4.791,6.58266667 L2.20833333,4 Z" transform="translate(11 10)"/>
              </g>
            </g>
          </g>
        </g>
        <g fill="#000000" fill-opacity=".12" transform="translate(249 49)">
          <rect width="1" height="82" x="266"/>
          <rect width="1" height="82" x="133"/>
          <rect width="1" height="82"/>
        </g>
        <path fill="#000000" fill-opacity=".56" fill-rule="nonzero" d="M536.144531 7L536.144531 6.38671875 533.566406 6.38671875 533.566406 4.29296875 535.585938 4.29296875 535.585938 3.6875 533.566406 3.6875 533.566406 1.83203125 535.976562 1.83203125 535.976562 1.21875 532.746094 1.21875 532.746094 7 536.144531 7zM537.875 7L537.875 4.25390625C538.291667 3.63671875 538.735677 3.328125 539.207031 3.328125 539.420573 3.328125 539.573568 3.39518229 539.666016 3.52929688 539.758464 3.66341146 539.804688 3.88802083 539.804688 4.203125L539.804688 4.203125 539.804688 7 540.574219 7 540.574219 3.953125C540.574219 3.55989583 540.464844 3.24674479 540.246094 3.01367188 540.027344 2.78059896 539.734375 2.6640625 539.367188 2.6640625 538.778646 2.6640625 538.28125 2.9609375 537.875 3.5546875L537.875 3.5546875 537.875 2.7578125 537.105469 2.7578125 537.105469 7 537.875 7zM544.945312 7.09765625C545.15625 7.09765625 545.348958 7.05598958 545.523438 6.97265625L545.523438 6.97265625 545.46875 6.546875C545.403646 6.55729167 545.354167 6.5625 545.320312 6.5625 545.049479 6.5625 544.914062 6.34244792 544.914062 5.90234375L544.914062 5.90234375 544.914062 3.98046875C544.914062 3.52994792 544.801432 3.19791667 544.576172 2.984375 544.350911 2.77083333 544.001302 2.6640625 543.527344 2.6640625 543.074219 2.6640625 542.588542 2.76953125 542.070312 2.98046875L542.070312 2.98046875 542.070312 3.6171875C542.541667 3.3671875 542.980469 3.2421875 543.386719 3.2421875 543.891927 3.2421875 544.144531 3.48828125 544.144531 3.98046875L544.144531 3.98046875 544.144531 4.4921875 543.960938 4.4921875C543.234375 4.4921875 542.676432 4.61653646 542.287109 4.86523438 541.897786 5.11393229 541.703125 5.47005208 541.703125 5.93359375 541.703125 6.26953125 541.81901 6.54752604 542.050781 6.76757812 542.282552 6.98763021 542.574219 7.09765625 542.925781 7.09765625 543.352865 7.09765625 543.796875 6.88541667 544.257812 6.4609375 544.356771 6.88541667 544.585938 7.09765625 544.945312 7.09765625zM543.144531 6.46875C542.957031 6.46875 542.798177 6.40494792 542.667969 6.27734375 542.53776 6.14973958 542.472656 5.99348958 542.472656 5.80859375 542.472656 5.54817708 542.602865 5.33789062 542.863281 5.17773438 543.123698 5.01757812 543.464844 4.9375 543.886719 4.9375L543.886719 4.9375 544.144531 4.9453125 544.144531 6.04296875C543.798177 6.32682292 543.464844 6.46875 543.144531 6.46875zM548.511719 7.09765625C549.053385 7.09765625 549.490234 6.88216146 549.822266 6.45117188 550.154297 6.02018229 550.320312 5.453125 550.320312 4.75 550.320312 4.10416667 550.173828 3.59505208 549.880859 3.22265625 549.587891 2.85026042 549.186198 2.6640625 548.675781 2.6640625 548.045573 2.6640625 547.572917 2.9609375 547.257812 3.5546875L547.257812 3.5546875 547.257812.83203125 546.488281.83203125 546.488281 7.046875 547.164062 7.046875 547.257812 6.51953125C547.591146 6.90494792 548.009115 7.09765625 548.511719 7.09765625zM548.390625 6.51953125C548.03125 6.51953125 547.653646 6.34244792 547.257812 5.98828125L547.257812 5.98828125 547.257812 4.03515625C547.666667 3.56901042 548.085938 3.3359375 548.515625 3.3359375 549.171875 3.3359375 549.5 3.83333333 549.5 4.828125 549.5 5.95572917 549.130208 6.51953125 548.390625 6.51953125zM552.292969 7L552.292969.83203125 551.523438.83203125 551.523438 7 552.292969 7zM555.621094 7.09765625C555.988281 7.09765625 556.429688 7.01953125 556.945312 6.86328125L556.945312 6.86328125 556.945312 6.25390625C556.479167 6.42578125 556.085938 6.51171875 555.765625 6.51171875 554.890625 6.51171875 554.397135 6.0078125 554.285156 5L554.285156 5 556.960938 5 556.964844 4.76171875C556.964844 4.08984375 556.82487 3.57161458 556.544922 3.20703125 556.264974 2.84244792 555.86849 2.66015625 555.355469 2.66015625 554.813802 2.66015625 554.369141 2.86588542 554.021484 3.27734375 553.673828 3.68880208 553.5 4.21614583 553.5 4.859375 553.5 5.52083333 553.697266 6.05924479 554.091797 6.47460938 554.486328 6.88997396 554.996094 7.09765625 555.621094 7.09765625zM556.191406 4.421875L554.320312 4.421875C554.388021 3.6328125 554.717448 3.23828125 555.308594 3.23828125 555.897135 3.23828125 556.191406 3.6328125 556.191406 4.421875L556.191406 4.421875zM559.601562 7.09765625C560.231771 7.09765625 560.703125 6.79947917 561.015625 6.203125L561.015625 6.203125 561.015625 7 561.789062 7 561.789062.83203125 561.015625.83203125 561.015625 3.2421875C560.684896 2.85677083 560.268229 2.6640625 559.765625 2.6640625 559.223958 2.6640625 558.787109 2.87890625 558.455078 3.30859375 558.123047 3.73828125 557.957031 4.30598958 557.957031 5.01171875 557.957031 5.65755208 558.103516 6.16666667 558.396484 6.5390625 558.689453 6.91145833 559.091146 7.09765625 559.601562 7.09765625zM559.761719 6.421875C559.105469 6.421875 558.777344 5.92578125 558.777344 4.93359375 558.777344 3.80598958 559.145833 3.2421875 559.882812 3.2421875 560.239583 3.2421875 560.617188 3.41796875 561.015625 3.76953125L561.015625 3.76953125 561.015625 5.72265625C560.606771 6.18880208 560.188802 6.421875 559.761719 6.421875zM400.566406 7L400.566406 4.26953125 403.316406 4.26953125 403.316406 7 404.136719 7 404.136719 1.21875 403.316406 1.21875 403.316406 3.65625 400.566406 3.65625 400.566406 1.21875 399.746094 1.21875 399.746094 7 400.566406 7zM407.308594 7.09765625C407.946615 7.09765625 408.447917 6.89973958 408.8125 6.50390625 409.177083 6.10807292 409.359375 5.56380208 409.359375 4.87109375 409.359375 4.19401042 409.177734 3.65690104 408.814453 3.25976562 408.451172 2.86263021 407.958333 2.6640625 407.335938 2.6640625 406.713542 2.6640625 406.220703 2.86263021 405.857422 3.25976562 405.494141 3.65690104 405.3125 4.19661458 405.3125 4.87890625 405.3125 5.55338542 405.49349 6.09179688 405.855469 6.49414062 406.217448 6.89648438 406.701823 7.09765625 407.308594 7.09765625zM407.320312 6.51953125C406.528646 6.51953125 406.132812 5.97265625 406.132812 4.87890625 406.132812 3.78776042 406.533854 3.2421875 407.335938 3.2421875 408.140625 3.2421875 408.542969 3.78515625 408.542969 4.87109375 408.542969 5.97005208 408.135417 6.51953125 407.320312 6.51953125zM412.210938 7L413.886719 2.7578125 413.167969 2.7578125 411.867188 6.05859375 410.632812 2.7578125 409.863281 2.7578125 411.441406 7 412.210938 7zM416.488281 7.09765625C416.855469 7.09765625 417.296875 7.01953125 417.8125 6.86328125L417.8125 6.86328125 417.8125 6.25390625C417.346354 6.42578125 416.953125 6.51171875 416.632812 6.51171875 415.757812 6.51171875 415.264323 6.0078125 415.152344 5L415.152344 5 417.828125 5 417.832031 4.76171875C417.832031 4.08984375 417.692057 3.57161458 417.412109 3.20703125 417.132161 2.84244792 416.735677 2.66015625 416.222656 2.66015625 415.68099 2.66015625 415.236328 2.86588542 414.888672 3.27734375 414.541016 3.68880208 414.367188 4.21614583 414.367188 4.859375 414.367188 5.52083333 414.564453 6.05924479 414.958984 6.47460938 415.353516 6.88997396 415.863281 7.09765625 416.488281 7.09765625zM417.058594 4.421875L415.1875 4.421875C415.255208 3.6328125 415.584635 3.23828125 416.175781 3.23828125 416.764323 3.23828125 417.058594 3.6328125 417.058594 4.421875L417.058594 4.421875zM419.929688 7L419.929688 4.203125C420.257812 3.625 420.665365 3.3359375 421.152344 3.3359375 421.253906 3.3359375 421.371094 3.35807292 421.503906 3.40234375L421.503906 3.40234375 421.503906 2.68359375C421.417969 2.67057292 421.335938 2.6640625 421.257812 2.6640625 420.677083 2.6640625 420.234375 2.9609375 419.929688 3.5546875L419.929688 3.5546875 419.929688 2.7578125 419.160156 2.7578125 419.160156 7 419.929688 7zM267.558594 7L267.558594 4.703125 267.921875 4.703125C268.661458 4.703125 269.239583 4.52864583 269.65625 4.1796875 270.072917 3.83072917 270.28125 3.34895833 270.28125 2.734375 270.28125 2.1953125 270.128906 1.80794271 269.824219 1.57226562 269.519531 1.33658854 269.018229 1.21875 268.320312 1.21875L268.320312 1.21875 266.746094 1.21875 266.746094 7 267.558594 7zM267.890625 4.08203125L267.558594 4.08203125 267.558594 1.83203125 268.0625 1.83203125C268.549479 1.83203125 268.897135 1.90625 269.105469 2.0546875 269.313802 2.203125 269.417969 2.45052083 269.417969 2.796875 269.417969 3.20572917 269.285156 3.52213542 269.019531 3.74609375 268.753906 3.97005208 268.377604 4.08203125 267.890625 4.08203125L267.890625 4.08203125zM271.960938 7L271.960938 4.203125C272.289062 3.625 272.696615 3.3359375 273.183594 3.3359375 273.285156 3.3359375 273.402344 3.35807292 273.535156 3.40234375L273.535156 3.40234375 273.535156 2.68359375C273.449219 2.67057292 273.367188 2.6640625 273.289062 2.6640625 272.708333 2.6640625 272.265625 2.9609375 271.960938 3.5546875L271.960938 3.5546875 271.960938 2.7578125 271.191406 2.7578125 271.191406 7 271.960938 7zM276.25 7.09765625C276.617188 7.09765625 277.058594 7.01953125 277.574219 6.86328125L277.574219 6.86328125 277.574219 6.25390625C277.108073 6.42578125 276.714844 6.51171875 276.394531 6.51171875 275.519531 6.51171875 275.026042 6.0078125 274.914062 5L274.914062 5 277.589844 5 277.59375 4.76171875C277.59375 4.08984375 277.453776 3.57161458 277.173828 3.20703125 276.89388 2.84244792 276.497396 2.66015625 275.984375 2.66015625 275.442708 2.66015625 274.998047 2.86588542 274.650391 3.27734375 274.302734 3.68880208 274.128906 4.21614583 274.128906 4.859375 274.128906 5.52083333 274.326172 6.05924479 274.720703 6.47460938 275.115234 6.88997396 275.625 7.09765625 276.25 7.09765625zM276.820312 4.421875L274.949219 4.421875C275.016927 3.6328125 275.346354 3.23828125 275.9375 3.23828125 276.526042 3.23828125 276.820312 3.6328125 276.820312 4.421875L276.820312 4.421875zM280.046875 7.09765625C280.505208 7.09765625 280.88151 6.97786458 281.175781 6.73828125 281.470052 6.49869792 281.617188 6.19270833 281.617188 5.8203125 281.617188 5.52604167 281.529948 5.28059896 281.355469 5.08398438 281.18099 4.88736979 280.884115 4.70052083 280.464844 4.5234375L280.464844 4.5234375 280.09375 4.3671875C279.71875 4.20833333 279.53125 4.01302083 279.53125 3.78125 279.53125 3.421875 279.778646 3.2421875 280.273438 3.2421875 280.526042 3.2421875 280.867188 3.30598958 281.296875 3.43359375L281.296875 3.43359375 281.296875 2.79296875 281.136719 2.76171875C280.78776 2.69661458 280.494792 2.6640625 280.257812 2.6640625 279.802083 2.6640625 279.443359 2.77018229 279.181641 2.98242188 278.919922 3.19466146 278.789062 3.48567708 278.789062 3.85546875 278.789062 4.37369792 279.121094 4.77083333 279.785156 5.046875L279.785156 5.046875 280.234375 5.23828125C280.643229 5.41015625 280.847656 5.62760417 280.847656 5.890625 280.847656 6.0703125 280.77474 6.22005208 280.628906 6.33984375 280.483073 6.45963542 280.299479 6.51953125 280.078125 6.51953125 279.705729 6.51953125 279.268229 6.39453125 278.765625 6.14453125L278.765625 6.14453125 278.765625 6.8515625C279.268229 7.015625 279.695312 7.09765625 280.046875 7.09765625zM284.125 7.09765625C284.583333 7.09765625 284.959635 6.97786458 285.253906 6.73828125 285.548177 6.49869792 285.695312 6.19270833 285.695312 5.8203125 285.695312 5.52604167 285.608073 5.28059896 285.433594 5.08398438 285.259115 4.88736979 284.96224 4.70052083 284.542969 4.5234375L284.542969 4.5234375 284.171875 4.3671875C283.796875 4.20833333 283.609375 4.01302083 283.609375 3.78125 283.609375 3.421875 283.856771 3.2421875 284.351562 3.2421875 284.604167 3.2421875 284.945312 3.30598958 285.375 3.43359375L285.375 3.43359375 285.375 2.79296875 285.214844 2.76171875C284.865885 2.69661458 284.572917 2.6640625 284.335938 2.6640625 283.880208 2.6640625 283.521484 2.77018229 283.259766 2.98242188 282.998047 3.19466146 282.867188 3.48567708 282.867188 3.85546875 282.867188 4.37369792 283.199219 4.77083333 283.863281 5.046875L283.863281 5.046875 284.3125 5.23828125C284.721354 5.41015625 284.925781 5.62760417 284.925781 5.890625 284.925781 6.0703125 284.852865 6.22005208 284.707031 6.33984375 284.561198 6.45963542 284.377604 6.51953125 284.15625 6.51953125 283.783854 6.51953125 283.346354 6.39453125 282.84375 6.14453125L282.84375 6.14453125 282.84375 6.8515625C283.346354 7.015625 283.773438 7.09765625 284.125 7.09765625zM288.863281 7.09765625C289.230469 7.09765625 289.671875 7.01953125 290.1875 6.86328125L290.1875 6.86328125 290.1875 6.25390625C289.721354 6.42578125 289.328125 6.51171875 289.007812 6.51171875 288.132812 6.51171875 287.639323 6.0078125 287.527344 5L287.527344 5 290.203125 5 290.207031 4.76171875C290.207031 4.08984375 290.067057 3.57161458 289.787109 3.20703125 289.507161 2.84244792 289.110677 2.66015625 288.597656 2.66015625 288.05599 2.66015625 287.611328 2.86588542 287.263672 3.27734375 286.916016 3.68880208 286.742188 4.21614583 286.742188 4.859375 286.742188 5.52083333 286.939453 6.05924479 287.333984 6.47460938 287.728516 6.88997396 288.238281 7.09765625 288.863281 7.09765625zM289.433594 4.421875L287.5625 4.421875C287.630208 3.6328125 287.959635 3.23828125 288.550781 3.23828125 289.139323 3.23828125 289.433594 3.6328125 289.433594 4.421875L289.433594 4.421875zM292.84375 7.09765625C293.473958 7.09765625 293.945312 6.79947917 294.257812 6.203125L294.257812 6.203125 294.257812 7 295.03125 7 295.03125.83203125 294.257812.83203125 294.257812 3.2421875C293.927083 2.85677083 293.510417 2.6640625 293.007812 2.6640625 292.466146 2.6640625 292.029297 2.87890625 291.697266 3.30859375 291.365234 3.73828125 291.199219 4.30598958 291.199219 5.01171875 291.199219 5.65755208 291.345703 6.16666667 291.638672 6.5390625 291.931641 6.91145833 292.333333 7.09765625 292.84375 7.09765625zM293.003906 6.421875C292.347656 6.421875 292.019531 5.92578125 292.019531 4.93359375 292.019531 3.80598958 292.388021 3.2421875 293.125 3.2421875 293.481771 3.2421875 293.859375 3.41796875 294.257812 3.76953125L294.257812 3.76953125 294.257812 5.72265625C293.848958 6.18880208 293.43099 6.421875 293.003906 6.421875zM135.679688 7C136.601562 7 137.316406 6.73567708 137.824219 6.20703125 138.332031 5.67838542 138.585938 4.93359375 138.585938 3.97265625 138.585938 3.18098958 138.38151 2.54296875 137.972656 2.05859375 137.714844 1.75390625 137.409505 1.53776042 137.056641 1.41015625 136.703776 1.28255208 136.240885 1.21875 135.667969 1.21875L135.667969 1.21875 133.746094 1.21875 133.746094 7 135.679688 7zM135.617188 6.38671875L134.566406 6.38671875 134.566406 1.83203125 135.242188 1.83203125C135.802083 1.83203125 136.221354 1.87565104 136.5 1.96289062 136.778646 2.05013021 137.018229 2.21223958 137.21875 2.44921875 137.549479 2.83723958 137.714844 3.37109375 137.714844 4.05078125 137.714844 4.77473958 137.546875 5.3515625 137.210938 5.78125 136.898438 6.18489583 136.367188 6.38671875 135.617188 6.38671875L135.617188 6.38671875zM140.53125 1.98828125L140.53125 1.21875 139.761719 1.21875 139.761719 1.98828125 140.53125 1.98828125zM140.53125 7L140.53125 2.7578125 139.761719 2.7578125 139.761719 7 140.53125 7zM143.199219 7.09765625C143.657552 7.09765625 144.033854 6.97786458 144.328125 6.73828125 144.622396 6.49869792 144.769531 6.19270833 144.769531 5.8203125 144.769531 5.52604167 144.682292 5.28059896 144.507812 5.08398438 144.333333 4.88736979 144.036458 4.70052083 143.617188 4.5234375L143.617188 4.5234375 143.246094 4.3671875C142.871094 4.20833333 142.683594 4.01302083 142.683594 3.78125 142.683594 3.421875 142.93099 3.2421875 143.425781 3.2421875 143.678385 3.2421875 144.019531 3.30598958 144.449219 3.43359375L144.449219 3.43359375 144.449219 2.79296875 144.289062 2.76171875C143.940104 2.69661458 143.647135 2.6640625 143.410156 2.6640625 142.954427 2.6640625 142.595703 2.77018229 142.333984 2.98242188 142.072266 3.19466146 141.941406 3.48567708 141.941406 3.85546875 141.941406 4.37369792 142.273438 4.77083333 142.9375 5.046875L142.9375 5.046875 143.386719 5.23828125C143.795573 5.41015625 144 5.62760417 144 5.890625 144 6.0703125 143.927083 6.22005208 143.78125 6.33984375 143.635417 6.45963542 143.451823 6.51953125 143.230469 6.51953125 142.858073 6.51953125 142.420573 6.39453125 141.917969 6.14453125L141.917969 6.14453125 141.917969 6.8515625C142.420573 7.015625 142.847656 7.09765625 143.199219 7.09765625zM149.027344 7.09765625C149.238281 7.09765625 149.43099 7.05598958 149.605469 6.97265625L149.605469 6.97265625 149.550781 6.546875C149.485677 6.55729167 149.436198 6.5625 149.402344 6.5625 149.13151 6.5625 148.996094 6.34244792 148.996094 5.90234375L148.996094 5.90234375 148.996094 3.98046875C148.996094 3.52994792 148.883464 3.19791667 148.658203 2.984375 148.432943 2.77083333 148.083333 2.6640625 147.609375 2.6640625 147.15625 2.6640625 146.670573 2.76953125 146.152344 2.98046875L146.152344 2.98046875 146.152344 3.6171875C146.623698 3.3671875 147.0625 3.2421875 147.46875 3.2421875 147.973958 3.2421875 148.226562 3.48828125 148.226562 3.98046875L148.226562 3.98046875 148.226562 4.4921875 148.042969 4.4921875C147.316406 4.4921875 146.758464 4.61653646 146.369141 4.86523438 145.979818 5.11393229 145.785156 5.47005208 145.785156 5.93359375 145.785156 6.26953125 145.901042 6.54752604 146.132812 6.76757812 146.364583 6.98763021 146.65625 7.09765625 147.007812 7.09765625 147.434896 7.09765625 147.878906 6.88541667 148.339844 6.4609375 148.438802 6.88541667 148.667969 7.09765625 149.027344 7.09765625zM147.226562 6.46875C147.039062 6.46875 146.880208 6.40494792 146.75 6.27734375 146.619792 6.14973958 146.554688 5.99348958 146.554688 5.80859375 146.554688 5.54817708 146.684896 5.33789062 146.945312 5.17773438 147.205729 5.01757812 147.546875 4.9375 147.96875 4.9375L147.96875 4.9375 148.226562 4.9453125 148.226562 6.04296875C147.880208 6.32682292 147.546875 6.46875 147.226562 6.46875zM152.59375 7.09765625C153.135417 7.09765625 153.572266 6.88216146 153.904297 6.45117188 154.236328 6.02018229 154.402344 5.453125 154.402344 4.75 154.402344 4.10416667 154.255859 3.59505208 153.962891 3.22265625 153.669922 2.85026042 153.268229 2.6640625 152.757812 2.6640625 152.127604 2.6640625 151.654948 2.9609375 151.339844 3.5546875L151.339844 3.5546875 151.339844.83203125 150.570312.83203125 150.570312 7.046875 151.246094 7.046875 151.339844 6.51953125C151.673177 6.90494792 152.091146 7.09765625 152.59375 7.09765625zM152.472656 6.51953125C152.113281 6.51953125 151.735677 6.34244792 151.339844 5.98828125L151.339844 5.98828125 151.339844 4.03515625C151.748698 3.56901042 152.167969 3.3359375 152.597656 3.3359375 153.253906 3.3359375 153.582031 3.83333333 153.582031 4.828125 153.582031 5.95572917 153.21224 6.51953125 152.472656 6.51953125zM156.375 7L156.375.83203125 155.605469.83203125 155.605469 7 156.375 7zM159.703125 7.09765625C160.070312 7.09765625 160.511719 7.01953125 161.027344 6.86328125L161.027344 6.86328125 161.027344 6.25390625C160.561198 6.42578125 160.167969 6.51171875 159.847656 6.51171875 158.972656 6.51171875 158.479167 6.0078125 158.367188 5L158.367188 5 161.042969 5 161.046875 4.76171875C161.046875 4.08984375 160.906901 3.57161458 160.626953 3.20703125 160.347005 2.84244792 159.950521 2.66015625 159.4375 2.66015625 158.895833 2.66015625 158.451172 2.86588542 158.103516 3.27734375 157.755859 3.68880208 157.582031 4.21614583 157.582031 4.859375 157.582031 5.52083333 157.779297 6.05924479 158.173828 6.47460938 158.568359 6.88997396 159.078125 7.09765625 159.703125 7.09765625zM160.273438 4.421875L158.402344 4.421875C158.470052 3.6328125 158.799479 3.23828125 159.390625 3.23828125 159.979167 3.23828125 160.273438 3.6328125 160.273438 4.421875L160.273438 4.421875zM163.683594 7.09765625C164.313802 7.09765625 164.785156 6.79947917 165.097656 6.203125L165.097656 6.203125 165.097656 7 165.871094 7 165.871094.83203125 165.097656.83203125 165.097656 3.2421875C164.766927 2.85677083 164.35026 2.6640625 163.847656 2.6640625 163.30599 2.6640625 162.869141 2.87890625 162.537109 3.30859375 162.205078 3.73828125 162.039062 4.30598958 162.039062 5.01171875 162.039062 5.65755208 162.185547 6.16666667 162.478516 6.5390625 162.771484 6.91145833 163.173177 7.09765625 163.683594 7.09765625zM163.84375 6.421875C163.1875 6.421875 162.859375 5.92578125 162.859375 4.93359375 162.859375 3.80598958 163.227865 3.2421875 163.964844 3.2421875 164.321615 3.2421875 164.699219 3.41796875 165.097656 3.76953125L165.097656 3.76953125 165.097656 5.72265625C164.688802 6.18880208 164.270833 6.421875 163.84375 6.421875zM536.144531 121L536.144531 120.386719 533.566406 120.386719 533.566406 118.292969 535.585938 118.292969 535.585938 117.6875 533.566406 117.6875 533.566406 115.832031 535.976562 115.832031 535.976562 115.21875 532.746094 115.21875 532.746094 121 536.144531 121zM537.875 121L537.875 118.253906C538.291667 117.636719 538.735677 117.328125 539.207031 117.328125 539.420573 117.328125 539.573568 117.395182 539.666016 117.529297 539.758464 117.663411 539.804688 117.888021 539.804688 118.203125L539.804688 118.203125 539.804688 121 540.574219 121 540.574219 117.953125C540.574219 117.559896 540.464844 117.246745 540.246094 117.013672 540.027344 116.780599 539.734375 116.664062 539.367188 116.664062 538.778646 116.664062 538.28125 116.960938 537.875 117.554688L537.875 117.554688 537.875 116.757812 537.105469 116.757812 537.105469 121 537.875 121zM544.945312 121.097656C545.15625 121.097656 545.348958 121.05599 545.523438 120.972656L545.523438 120.972656 545.46875 120.546875C545.403646 120.557292 545.354167 120.5625 545.320312 120.5625 545.049479 120.5625 544.914062 120.342448 544.914062 119.902344L544.914062 119.902344 544.914062 117.980469C544.914062 117.529948 544.801432 117.197917 544.576172 116.984375 544.350911 116.770833 544.001302 116.664062 543.527344 116.664062 543.074219 116.664062 542.588542 116.769531 542.070312 116.980469L542.070312 116.980469 542.070312 117.617188C542.541667 117.367188 542.980469 117.242188 543.386719 117.242188 543.891927 117.242188 544.144531 117.488281 544.144531 117.980469L544.144531 117.980469 544.144531 118.492188 543.960938 118.492188C543.234375 118.492188 542.676432 118.616536 542.287109 118.865234 541.897786 119.113932 541.703125 119.470052 541.703125 119.933594 541.703125 120.269531 541.81901 120.547526 542.050781 120.767578 542.282552 120.98763 542.574219 121.097656 542.925781 121.097656 543.352865 121.097656 543.796875 120.885417 544.257812 120.460938 544.356771 120.885417 544.585938 121.097656 544.945312 121.097656zM543.144531 120.46875C542.957031 120.46875 542.798177 120.404948 542.667969 120.277344 542.53776 120.14974 542.472656 119.99349 542.472656 119.808594 542.472656 119.548177 542.602865 119.337891 542.863281 119.177734 543.123698 119.017578 543.464844 118.9375 543.886719 118.9375L543.886719 118.9375 544.144531 118.945312 544.144531 120.042969C543.798177 120.326823 543.464844 120.46875 543.144531 120.46875zM548.511719 121.097656C549.053385 121.097656 549.490234 120.882161 549.822266 120.451172 550.154297 120.020182 550.320312 119.453125 550.320312 118.75 550.320312 118.104167 550.173828 117.595052 549.880859 117.222656 549.587891 116.85026 549.186198 116.664062 548.675781 116.664062 548.045573 116.664062 547.572917 116.960938 547.257812 117.554688L547.257812 117.554688 547.257812 114.832031 546.488281 114.832031 546.488281 121.046875 547.164062 121.046875 547.257812 120.519531C547.591146 120.904948 548.009115 121.097656 548.511719 121.097656zM548.390625 120.519531C548.03125 120.519531 547.653646 120.342448 547.257812 119.988281L547.257812 119.988281 547.257812 118.035156C547.666667 117.56901 548.085938 117.335938 548.515625 117.335938 549.171875 117.335938 549.5 117.833333 549.5 118.828125 549.5 119.955729 549.130208 120.519531 548.390625 120.519531zM552.292969 121L552.292969 114.832031 551.523438 114.832031 551.523438 121 552.292969 121zM555.621094 121.097656C555.988281 121.097656 556.429688 121.019531 556.945312 120.863281L556.945312 120.863281 556.945312 120.253906C556.479167 120.425781 556.085938 120.511719 555.765625 120.511719 554.890625 120.511719 554.397135 120.007812 554.285156 119L554.285156 119 556.960938 119 556.964844 118.761719C556.964844 118.089844 556.82487 117.571615 556.544922 117.207031 556.264974 116.842448 555.86849 116.660156 555.355469 116.660156 554.813802 116.660156 554.369141 116.865885 554.021484 117.277344 553.673828 117.688802 553.5 118.216146 553.5 118.859375 553.5 119.520833 553.697266 120.059245 554.091797 120.474609 554.486328 120.889974 554.996094 121.097656 555.621094 121.097656zM556.191406 118.421875L554.320312 118.421875C554.388021 117.632812 554.717448 117.238281 555.308594 117.238281 555.897135 117.238281 556.191406 117.632812 556.191406 118.421875L556.191406 118.421875zM559.601562 121.097656C560.231771 121.097656 560.703125 120.799479 561.015625 120.203125L561.015625 120.203125 561.015625 121 561.789062 121 561.789062 114.832031 561.015625 114.832031 561.015625 117.242188C560.684896 116.856771 560.268229 116.664062 559.765625 116.664062 559.223958 116.664062 558.787109 116.878906 558.455078 117.308594 558.123047 117.738281 557.957031 118.30599 557.957031 119.011719 557.957031 119.657552 558.103516 120.166667 558.396484 120.539062 558.689453 120.911458 559.091146 121.097656 559.601562 121.097656zM559.761719 120.421875C559.105469 120.421875 558.777344 119.925781 558.777344 118.933594 558.777344 117.80599 559.145833 117.242188 559.882812 117.242188 560.239583 117.242188 560.617188 117.417969 561.015625 117.769531L561.015625 117.769531 561.015625 119.722656C560.606771 120.188802 560.188802 120.421875 559.761719 120.421875zM400.566406 121L400.566406 118.269531 403.316406 118.269531 403.316406 121 404.136719 121 404.136719 115.21875 403.316406 115.21875 403.316406 117.65625 400.566406 117.65625 400.566406 115.21875 399.746094 115.21875 399.746094 121 400.566406 121zM407.308594 121.097656C407.946615 121.097656 408.447917 120.89974 408.8125 120.503906 409.177083 120.108073 409.359375 119.563802 409.359375 118.871094 409.359375 118.19401 409.177734 117.656901 408.814453 117.259766 408.451172 116.86263 407.958333 116.664062 407.335938 116.664062 406.713542 116.664062 406.220703 116.86263 405.857422 117.259766 405.494141 117.656901 405.3125 118.196615 405.3125 118.878906 405.3125 119.553385 405.49349 120.091797 405.855469 120.494141 406.217448 120.896484 406.701823 121.097656 407.308594 121.097656zM407.320312 120.519531C406.528646 120.519531 406.132812 119.972656 406.132812 118.878906 406.132812 117.78776 406.533854 117.242188 407.335938 117.242188 408.140625 117.242188 408.542969 117.785156 408.542969 118.871094 408.542969 119.970052 408.135417 120.519531 407.320312 120.519531zM412.210938 121L413.886719 116.757812 413.167969 116.757812 411.867188 120.058594 410.632812 116.757812 409.863281 116.757812 411.441406 121 412.210938 121zM416.488281 121.097656C416.855469 121.097656 417.296875 121.019531 417.8125 120.863281L417.8125 120.863281 417.8125 120.253906C417.346354 120.425781 416.953125 120.511719 416.632812 120.511719 415.757812 120.511719 415.264323 120.007812 415.152344 119L415.152344 119 417.828125 119 417.832031 118.761719C417.832031 118.089844 417.692057 117.571615 417.412109 117.207031 417.132161 116.842448 416.735677 116.660156 416.222656 116.660156 415.68099 116.660156 415.236328 116.865885 414.888672 117.277344 414.541016 117.688802 414.367188 118.216146 414.367188 118.859375 414.367188 119.520833 414.564453 120.059245 414.958984 120.474609 415.353516 120.889974 415.863281 121.097656 416.488281 121.097656zM417.058594 118.421875L415.1875 118.421875C415.255208 117.632812 415.584635 117.238281 416.175781 117.238281 416.764323 117.238281 417.058594 117.632812 417.058594 118.421875L417.058594 118.421875zM419.929688 121L419.929688 118.203125C420.257812 117.625 420.665365 117.335938 421.152344 117.335938 421.253906 117.335938 421.371094 117.358073 421.503906 117.402344L421.503906 117.402344 421.503906 116.683594C421.417969 116.670573 421.335938 116.664062 421.257812 116.664062 420.677083 116.664062 420.234375 116.960938 419.929688 117.554688L419.929688 117.554688 419.929688 116.757812 419.160156 116.757812 419.160156 121 419.929688 121zM267.558594 121L267.558594 118.703125 267.921875 118.703125C268.661458 118.703125 269.239583 118.528646 269.65625 118.179688 270.072917 117.830729 270.28125 117.348958 270.28125 116.734375 270.28125 116.195312 270.128906 115.807943 269.824219 115.572266 269.519531 115.336589 269.018229 115.21875 268.320312 115.21875L268.320312 115.21875 266.746094 115.21875 266.746094 121 267.558594 121zM267.890625 118.082031L267.558594 118.082031 267.558594 115.832031 268.0625 115.832031C268.549479 115.832031 268.897135 115.90625 269.105469 116.054688 269.313802 116.203125 269.417969 116.450521 269.417969 116.796875 269.417969 117.205729 269.285156 117.522135 269.019531 117.746094 268.753906 117.970052 268.377604 118.082031 267.890625 118.082031L267.890625 118.082031zM271.960938 121L271.960938 118.203125C272.289062 117.625 272.696615 117.335938 273.183594 117.335938 273.285156 117.335938 273.402344 117.358073 273.535156 117.402344L273.535156 117.402344 273.535156 116.683594C273.449219 116.670573 273.367188 116.664062 273.289062 116.664062 272.708333 116.664062 272.265625 116.960938 271.960938 117.554688L271.960938 117.554688 271.960938 116.757812 271.191406 116.757812 271.191406 121 271.960938 121zM276.25 121.097656C276.617188 121.097656 277.058594 121.019531 277.574219 120.863281L277.574219 120.863281 277.574219 120.253906C277.108073 120.425781 276.714844 120.511719 276.394531 120.511719 275.519531 120.511719 275.026042 120.007812 274.914062 119L274.914062 119 277.589844 119 277.59375 118.761719C277.59375 118.089844 277.453776 117.571615 277.173828 117.207031 276.89388 116.842448 276.497396 116.660156 275.984375 116.660156 275.442708 116.660156 274.998047 116.865885 274.650391 117.277344 274.302734 117.688802 274.128906 118.216146 274.128906 118.859375 274.128906 119.520833 274.326172 120.059245 274.720703 120.474609 275.115234 120.889974 275.625 121.097656 276.25 121.097656zM276.820312 118.421875L274.949219 118.421875C275.016927 117.632812 275.346354 117.238281 275.9375 117.238281 276.526042 117.238281 276.820312 117.632812 276.820312 118.421875L276.820312 118.421875zM280.046875 121.097656C280.505208 121.097656 280.88151 120.977865 281.175781 120.738281 281.470052 120.498698 281.617188 120.192708 281.617188 119.820312 281.617188 119.526042 281.529948 119.280599 281.355469 119.083984 281.18099 118.88737 280.884115 118.700521 280.464844 118.523438L280.464844 118.523438 280.09375 118.367188C279.71875 118.208333 279.53125 118.013021 279.53125 117.78125 279.53125 117.421875 279.778646 117.242188 280.273438 117.242188 280.526042 117.242188 280.867188 117.30599 281.296875 117.433594L281.296875 117.433594 281.296875 116.792969 281.136719 116.761719C280.78776 116.696615 280.494792 116.664062 280.257812 116.664062 279.802083 116.664062 279.443359 116.770182 279.181641 116.982422 278.919922 117.194661 278.789062 117.485677 278.789062 117.855469 278.789062 118.373698 279.121094 118.770833 279.785156 119.046875L279.785156 119.046875 280.234375 119.238281C280.643229 119.410156 280.847656 119.627604 280.847656 119.890625 280.847656 120.070312 280.77474 120.220052 280.628906 120.339844 280.483073 120.459635 280.299479 120.519531 280.078125 120.519531 279.705729 120.519531 279.268229 120.394531 278.765625 120.144531L278.765625 120.144531 278.765625 120.851562C279.268229 121.015625 279.695312 121.097656 280.046875 121.097656zM284.125 121.097656C284.583333 121.097656 284.959635 120.977865 285.253906 120.738281 285.548177 120.498698 285.695312 120.192708 285.695312 119.820312 285.695312 119.526042 285.608073 119.280599 285.433594 119.083984 285.259115 118.88737 284.96224 118.700521 284.542969 118.523438L284.542969 118.523438 284.171875 118.367188C283.796875 118.208333 283.609375 118.013021 283.609375 117.78125 283.609375 117.421875 283.856771 117.242188 284.351562 117.242188 284.604167 117.242188 284.945312 117.30599 285.375 117.433594L285.375 117.433594 285.375 116.792969 285.214844 116.761719C284.865885 116.696615 284.572917 116.664062 284.335938 116.664062 283.880208 116.664062 283.521484 116.770182 283.259766 116.982422 282.998047 117.194661 282.867188 117.485677 282.867188 117.855469 282.867188 118.373698 283.199219 118.770833 283.863281 119.046875L283.863281 119.046875 284.3125 119.238281C284.721354 119.410156 284.925781 119.627604 284.925781 119.890625 284.925781 120.070312 284.852865 120.220052 284.707031 120.339844 284.561198 120.459635 284.377604 120.519531 284.15625 120.519531 283.783854 120.519531 283.346354 120.394531 282.84375 120.144531L282.84375 120.144531 282.84375 120.851562C283.346354 121.015625 283.773438 121.097656 284.125 121.097656zM288.863281 121.097656C289.230469 121.097656 289.671875 121.019531 290.1875 120.863281L290.1875 120.863281 290.1875 120.253906C289.721354 120.425781 289.328125 120.511719 289.007812 120.511719 288.132812 120.511719 287.639323 120.007812 287.527344 119L287.527344 119 290.203125 119 290.207031 118.761719C290.207031 118.089844 290.067057 117.571615 289.787109 117.207031 289.507161 116.842448 289.110677 116.660156 288.597656 116.660156 288.05599 116.660156 287.611328 116.865885 287.263672 117.277344 286.916016 117.688802 286.742188 118.216146 286.742188 118.859375 286.742188 119.520833 286.939453 120.059245 287.333984 120.474609 287.728516 120.889974 288.238281 121.097656 288.863281 121.097656zM289.433594 118.421875L287.5625 118.421875C287.630208 117.632812 287.959635 117.238281 288.550781 117.238281 289.139323 117.238281 289.433594 117.632812 289.433594 118.421875L289.433594 118.421875zM292.84375 121.097656C293.473958 121.097656 293.945312 120.799479 294.257812 120.203125L294.257812 120.203125 294.257812 121 295.03125 121 295.03125 114.832031 294.257812 114.832031 294.257812 117.242188C293.927083 116.856771 293.510417 116.664062 293.007812 116.664062 292.466146 116.664062 292.029297 116.878906 291.697266 117.308594 291.365234 117.738281 291.199219 118.30599 291.199219 119.011719 291.199219 119.657552 291.345703 120.166667 291.638672 120.539062 291.931641 120.911458 292.333333 121.097656 292.84375 121.097656zM293.003906 120.421875C292.347656 120.421875 292.019531 119.925781 292.019531 118.933594 292.019531 117.80599 292.388021 117.242188 293.125 117.242188 293.481771 117.242188 293.859375 117.417969 294.257812 117.769531L294.257812 117.769531 294.257812 119.722656C293.848958 120.188802 293.43099 120.421875 293.003906 120.421875zM135.679688 121C136.601562 121 137.316406 120.735677 137.824219 120.207031 138.332031 119.678385 138.585938 118.933594 138.585938 117.972656 138.585938 117.18099 138.38151 116.542969 137.972656 116.058594 137.714844 115.753906 137.409505 115.53776 137.056641 115.410156 136.703776 115.282552 136.240885 115.21875 135.667969 115.21875L135.667969 115.21875 133.746094 115.21875 133.746094 121 135.679688 121zM135.617188 120.386719L134.566406 120.386719 134.566406 115.832031 135.242188 115.832031C135.802083 115.832031 136.221354 115.875651 136.5 115.962891 136.778646 116.05013 137.018229 116.21224 137.21875 116.449219 137.549479 116.83724 137.714844 117.371094 137.714844 118.050781 137.714844 118.77474 137.546875 119.351562 137.210938 119.78125 136.898438 120.184896 136.367188 120.386719 135.617188 120.386719L135.617188 120.386719zM140.53125 115.988281L140.53125 115.21875 139.761719 115.21875 139.761719 115.988281 140.53125 115.988281zM140.53125 121L140.53125 116.757812 139.761719 116.757812 139.761719 121 140.53125 121zM143.199219 121.097656C143.657552 121.097656 144.033854 120.977865 144.328125 120.738281 144.622396 120.498698 144.769531 120.192708 144.769531 119.820312 144.769531 119.526042 144.682292 119.280599 144.507812 119.083984 144.333333 118.88737 144.036458 118.700521 143.617188 118.523438L143.617188 118.523438 143.246094 118.367188C142.871094 118.208333 142.683594 118.013021 142.683594 117.78125 142.683594 117.421875 142.93099 117.242188 143.425781 117.242188 143.678385 117.242188 144.019531 117.30599 144.449219 117.433594L144.449219 117.433594 144.449219 116.792969 144.289062 116.761719C143.940104 116.696615 143.647135 116.664062 143.410156 116.664062 142.954427 116.664062 142.595703 116.770182 142.333984 116.982422 142.072266 117.194661 141.941406 117.485677 141.941406 117.855469 141.941406 118.373698 142.273438 118.770833 142.9375 119.046875L142.9375 119.046875 143.386719 119.238281C143.795573 119.410156 144 119.627604 144 119.890625 144 120.070312 143.927083 120.220052 143.78125 120.339844 143.635417 120.459635 143.451823 120.519531 143.230469 120.519531 142.858073 120.519531 142.420573 120.394531 141.917969 120.144531L141.917969 120.144531 141.917969 120.851562C142.420573 121.015625 142.847656 121.097656 143.199219 121.097656zM149.027344 121.097656C149.238281 121.097656 149.43099 121.05599 149.605469 120.972656L149.605469 120.972656 149.550781 120.546875C149.485677 120.557292 149.436198 120.5625 149.402344 120.5625 149.13151 120.5625 148.996094 120.342448 148.996094 119.902344L148.996094 119.902344 148.996094 117.980469C148.996094 117.529948 148.883464 117.197917 148.658203 116.984375 148.432943 116.770833 148.083333 116.664062 147.609375 116.664062 147.15625 116.664062 146.670573 116.769531 146.152344 116.980469L146.152344 116.980469 146.152344 117.617188C146.623698 117.367188 147.0625 117.242188 147.46875 117.242188 147.973958 117.242188 148.226562 117.488281 148.226562 117.980469L148.226562 117.980469 148.226562 118.492188 148.042969 118.492188C147.316406 118.492188 146.758464 118.616536 146.369141 118.865234 145.979818 119.113932 145.785156 119.470052 145.785156 119.933594 145.785156 120.269531 145.901042 120.547526 146.132812 120.767578 146.364583 120.98763 146.65625 121.097656 147.007812 121.097656 147.434896 121.097656 147.878906 120.885417 148.339844 120.460938 148.438802 120.885417 148.667969 121.097656 149.027344 121.097656zM147.226562 120.46875C147.039062 120.46875 146.880208 120.404948 146.75 120.277344 146.619792 120.14974 146.554688 119.99349 146.554688 119.808594 146.554688 119.548177 146.684896 119.337891 146.945312 119.177734 147.205729 119.017578 147.546875 118.9375 147.96875 118.9375L147.96875 118.9375 148.226562 118.945312 148.226562 120.042969C147.880208 120.326823 147.546875 120.46875 147.226562 120.46875zM152.59375 121.097656C153.135417 121.097656 153.572266 120.882161 153.904297 120.451172 154.236328 120.020182 154.402344 119.453125 154.402344 118.75 154.402344 118.104167 154.255859 117.595052 153.962891 117.222656 153.669922 116.85026 153.268229 116.664062 152.757812 116.664062 152.127604 116.664062 151.654948 116.960938 151.339844 117.554688L151.339844 117.554688 151.339844 114.832031 150.570312 114.832031 150.570312 121.046875 151.246094 121.046875 151.339844 120.519531C151.673177 120.904948 152.091146 121.097656 152.59375 121.097656zM152.472656 120.519531C152.113281 120.519531 151.735677 120.342448 151.339844 119.988281L151.339844 119.988281 151.339844 118.035156C151.748698 117.56901 152.167969 117.335938 152.597656 117.335938 153.253906 117.335938 153.582031 117.833333 153.582031 118.828125 153.582031 119.955729 153.21224 120.519531 152.472656 120.519531zM156.375 121L156.375 114.832031 155.605469 114.832031 155.605469 121 156.375 121zM159.703125 121.097656C160.070312 121.097656 160.511719 121.019531 161.027344 120.863281L161.027344 120.863281 161.027344 120.253906C160.561198 120.425781 160.167969 120.511719 159.847656 120.511719 158.972656 120.511719 158.479167 120.007812 158.367188 119L158.367188 119 161.042969 119 161.046875 118.761719C161.046875 118.089844 160.906901 117.571615 160.626953 117.207031 160.347005 116.842448 159.950521 116.660156 159.4375 116.660156 158.895833 116.660156 158.451172 116.865885 158.103516 117.277344 157.755859 117.688802 157.582031 118.216146 157.582031 118.859375 157.582031 119.520833 157.779297 120.059245 158.173828 120.474609 158.568359 120.889974 159.078125 121.097656 159.703125 121.097656zM160.273438 118.421875L158.402344 118.421875C158.470052 117.632812 158.799479 117.238281 159.390625 117.238281 159.979167 117.238281 160.273438 117.632812 160.273438 118.421875L160.273438 118.421875zM163.683594 121.097656C164.313802 121.097656 164.785156 120.799479 165.097656 120.203125L165.097656 120.203125 165.097656 121 165.871094 121 165.871094 114.832031 165.097656 114.832031 165.097656 117.242188C164.766927 116.856771 164.35026 116.664062 163.847656 116.664062 163.30599 116.664062 162.869141 116.878906 162.537109 117.308594 162.205078 117.738281 162.039062 118.30599 162.039062 119.011719 162.039062 119.657552 162.185547 120.166667 162.478516 120.539062 162.771484 120.911458 163.173177 121.097656 163.683594 121.097656zM163.84375 120.421875C163.1875 120.421875 162.859375 119.925781 162.859375 118.933594 162.859375 117.80599 163.227865 117.242188 163.964844 117.242188 164.321615 117.242188 164.699219 117.417969 165.097656 117.769531L165.097656 117.769531 165.097656 119.722656C164.688802 120.188802 164.270833 120.421875 163.84375 120.421875zM1.5625 7L1.5625 1.21875.7421875 1.21875.7421875 7 1.5625 7zM3.84375 7L3.84375 4.25390625C4.26041667 3.63671875 4.70442708 3.328125 5.17578125 3.328125 5.38932292 3.328125 5.54231771 3.39518229 5.63476562 3.52929688 5.72721354 3.66341146 5.7734375 3.88802083 5.7734375 4.203125L5.7734375 4.203125 5.7734375 7 6.54296875 7 6.54296875 3.953125C6.54296875 3.55989583 6.43359375 3.24674479 6.21484375 3.01367188 5.99609375 2.78059896 5.703125 2.6640625 5.3359375 2.6640625 4.74739583 2.6640625 4.25 2.9609375 3.84375 3.5546875L3.84375 3.5546875 3.84375 2.7578125 3.07421875 2.7578125 3.07421875 7 3.84375 7zM9.3125 7.09765625C9.48697917 7.09765625 9.69270833 7.06510417 9.9296875 7L9.9296875 7 9.9296875 6.46875C9.78385417 6.50260417 9.66015625 6.51953125 9.55859375 6.51953125 9.07942708 6.51953125 8.83984375 6.2421875 8.83984375 5.6875L8.83984375 5.6875 8.83984375 3.3359375 9.94921875 3.3359375 9.94921875 2.7578125 8.83984375 2.7578125 8.83984375 1.9140625 8.0703125 1.98828125 8.0703125 2.7578125 7.5390625 2.7578125 7.5390625 3.3359375 8.0703125 3.3359375 8.0703125 5.828125C8.0703125 6.2265625 8.1796875 6.53776042 8.3984375 6.76171875 8.6171875 6.98567708 8.921875 7.09765625 9.3125 7.09765625zM12.8164062 7.09765625C13.1835938 7.09765625 13.625 7.01953125 14.140625 6.86328125L14.140625 6.86328125 14.140625 6.25390625C13.6744792 6.42578125 13.28125 6.51171875 12.9609375 6.51171875 12.0859375 6.51171875 11.5924479 6.0078125 11.4804688 5L11.4804688 5 14.15625 5 14.1601562 4.76171875C14.1601562 4.08984375 14.0201823 3.57161458 13.7402344 3.20703125 13.4602865 2.84244792 13.0638021 2.66015625 12.5507812 2.66015625 12.0091146 2.66015625 11.5644531 2.86588542 11.2167969 3.27734375 10.8691406 3.68880208 10.6953125 4.21614583 10.6953125 4.859375 10.6953125 5.52083333 10.8925781 6.05924479 11.2871094 6.47460938 11.6816406 6.88997396 12.1914062 7.09765625 12.8164062 7.09765625zM13.3867188 4.421875L11.515625 4.421875C11.5833333 3.6328125 11.9127604 3.23828125 12.5039062 3.23828125 13.0924479 3.23828125 13.3867188 3.6328125 13.3867188 4.421875L13.3867188 4.421875zM16.2578125 7L16.2578125 4.203125C16.5859375 3.625 16.9934896 3.3359375 17.4804688 3.3359375 17.5820312 3.3359375 17.6992188 3.35807292 17.8320312 3.40234375L17.8320312 3.40234375 17.8320312 2.68359375C17.7460938 2.67057292 17.6640625 2.6640625 17.5859375 2.6640625 17.0052083 2.6640625 16.5625 2.9609375 16.2578125 3.5546875L16.2578125 3.5546875 16.2578125 2.7578125 15.4882812 2.7578125 15.4882812 7 16.2578125 7zM21.6367188 7.09765625C21.8476562 7.09765625 22.0403646 7.05598958 22.2148438 6.97265625L22.2148438 6.97265625 22.1601562 6.546875C22.0950521 6.55729167 22.0455729 6.5625 22.0117188 6.5625 21.7408854 6.5625 21.6054688 6.34244792 21.6054688 5.90234375L21.6054688 5.90234375 21.6054688 3.98046875C21.6054688 3.52994792 21.4928385 3.19791667 21.2675781 2.984375 21.0423177 2.77083333 20.6927083 2.6640625 20.21875 2.6640625 19.765625 2.6640625 19.2799479 2.76953125 18.7617188 2.98046875L18.7617188 2.98046875 18.7617188 3.6171875C19.2330729 3.3671875 19.671875 3.2421875 20.078125 3.2421875 20.5833333 3.2421875 20.8359375 3.48828125 20.8359375 3.98046875L20.8359375 3.98046875 20.8359375 4.4921875 20.6523438 4.4921875C19.9257812 4.4921875 19.3678385 4.61653646 18.9785156 4.86523438 18.5891927 5.11393229 18.3945312 5.47005208 18.3945312 5.93359375 18.3945312 6.26953125 18.5104167 6.54752604 18.7421875 6.76757812 18.9739583 6.98763021 19.265625 7.09765625 19.6171875 7.09765625 20.0442708 7.09765625 20.4882812 6.88541667 20.9492188 6.4609375 21.0481771 6.88541667 21.2773438 7.09765625 21.6367188 7.09765625zM19.8359375 6.46875C19.6484375 6.46875 19.4895833 6.40494792 19.359375 6.27734375 19.2291667 6.14973958 19.1640625 5.99348958 19.1640625 5.80859375 19.1640625 5.54817708 19.2942708 5.33789062 19.5546875 5.17773438 19.8151042 5.01757812 20.15625 4.9375 20.578125 4.9375L20.578125 4.9375 20.8359375 4.9453125 20.8359375 6.04296875C20.4895833 6.32682292 20.15625 6.46875 19.8359375 6.46875zM24.8359375 7.09765625C25.1979167 7.09765625 25.6276042 7.02213542 26.125 6.87109375L26.125 6.87109375 26.125 6.20703125C25.7526042 6.38671875 25.390625 6.4765625 25.0390625 6.4765625 24.6432292 6.4765625 24.3229167 6.32942708 24.078125 6.03515625 23.8333333 5.74088542 23.7109375 5.35546875 23.7109375 4.87890625 23.7109375 4.38671875 23.8300781 3.99283854 24.0683594 3.69726562 24.3066406 3.40169271 24.6223958 3.25390625 25.015625 3.25390625 25.2890625 3.25390625 25.6432292 3.31770833 26.078125 3.4453125L26.078125 3.4453125 26.078125 2.80078125C25.6692708 2.70963542 25.2994792 2.6640625 24.96875 2.6640625 24.2994792 2.6640625 23.7779948 2.85677083 23.4042969 3.2421875 23.030599 3.62760417 22.84375 4.16536458 22.84375 4.85546875 22.84375 5.50130208 23.0325521 6.03645833 23.4101562 6.4609375 23.7877604 6.88541667 24.2630208 7.09765625 24.8359375 7.09765625zM28.5507812 7.09765625C28.7252604 7.09765625 28.9309896 7.06510417 29.1679688 7L29.1679688 7 29.1679688 6.46875C29.0221354 6.50260417 28.8984375 6.51953125 28.796875 6.51953125 28.3177083 6.51953125 28.078125 6.2421875 28.078125 5.6875L28.078125 5.6875 28.078125 3.3359375 29.1875 3.3359375 29.1875 2.7578125 28.078125 2.7578125 28.078125 1.9140625 27.3085938 1.98828125 27.3085938 2.7578125 26.7773438 2.7578125 26.7773438 3.3359375 27.3085938 3.3359375 27.3085938 5.828125C27.3085938 6.2265625 27.4179688 6.53776042 27.6367188 6.76171875 27.8554688 6.98567708 28.1601562 7.09765625 28.5507812 7.09765625zM31.0390625 1.98828125L31.0390625 1.21875 30.2695312 1.21875 30.2695312 1.98828125 31.0390625 1.98828125zM31.0390625 7L31.0390625 2.7578125 30.2695312 2.7578125 30.2695312 7 31.0390625 7zM34.2421875 7.09765625C34.8802083 7.09765625 35.3815104 6.89973958 35.7460938 6.50390625 36.1106771 6.10807292 36.2929688 5.56380208 36.2929688 4.87109375 36.2929688 4.19401042 36.1113281 3.65690104 35.7480469 3.25976562 35.3847656 2.86263021 34.8919271 2.6640625 34.2695312 2.6640625 33.6471354 2.6640625 33.1542969 2.86263021 32.7910156 3.25976562 32.4277344 3.65690104 32.2460938 4.19661458 32.2460938 4.87890625 32.2460938 5.55338542 32.4270833 6.09179688 32.7890625 6.49414062 33.1510417 6.89648438 33.6354167 7.09765625 34.2421875 7.09765625zM34.2539062 6.51953125C33.4622396 6.51953125 33.0664062 5.97265625 33.0664062 4.87890625 33.0664062 3.78776042 33.4674479 3.2421875 34.2695312 3.2421875 35.0742188 3.2421875 35.4765625 3.78515625 35.4765625 4.87109375 35.4765625 5.97005208 35.0690104 6.51953125 34.2539062 6.51953125zM38.265625 7L38.265625 4.25390625C38.6822917 3.63671875 39.1263021 3.328125 39.5976562 3.328125 39.8111979 3.328125 39.9641927 3.39518229 40.0566406 3.52929688 40.1490885 3.66341146 40.1953125 3.88802083 40.1953125 4.203125L40.1953125 4.203125 40.1953125 7 40.9648438 7 40.9648438 3.953125C40.9648438 3.55989583 40.8554688 3.24674479 40.6367188 3.01367188 40.4179688 2.78059896 40.125 2.6640625 39.7578125 2.6640625 39.1692708 2.6640625 38.671875 2.9609375 38.265625 3.5546875L38.265625 3.5546875 38.265625 2.7578125 37.4960938 2.7578125 37.4960938 7 38.265625 7zM1.5625 121L1.5625 115.21875.7421875 115.21875.7421875 121 1.5625 121zM3.84375 121L3.84375 118.253906C4.26041667 117.636719 4.70442708 117.328125 5.17578125 117.328125 5.38932292 117.328125 5.54231771 117.395182 5.63476562 117.529297 5.72721354 117.663411 5.7734375 117.888021 5.7734375 118.203125L5.7734375 118.203125 5.7734375 121 6.54296875 121 6.54296875 117.953125C6.54296875 117.559896 6.43359375 117.246745 6.21484375 117.013672 5.99609375 116.780599 5.703125 116.664062 5.3359375 116.664062 4.74739583 116.664062 4.25 116.960938 3.84375 117.554688L3.84375 117.554688 3.84375 116.757812 3.07421875 116.757812 3.07421875 121 3.84375 121zM9.3125 121.097656C9.48697917 121.097656 9.69270833 121.065104 9.9296875 121L9.9296875 121 9.9296875 120.46875C9.78385417 120.502604 9.66015625 120.519531 9.55859375 120.519531 9.07942708 120.519531 8.83984375 120.242188 8.83984375 119.6875L8.83984375 119.6875 8.83984375 117.335938 9.94921875 117.335938 9.94921875 116.757812 8.83984375 116.757812 8.83984375 115.914062 8.0703125 115.988281 8.0703125 116.757812 7.5390625 116.757812 7.5390625 117.335938 8.0703125 117.335938 8.0703125 119.828125C8.0703125 120.226562 8.1796875 120.53776 8.3984375 120.761719 8.6171875 120.985677 8.921875 121.097656 9.3125 121.097656zM12.8164062 121.097656C13.1835938 121.097656 13.625 121.019531 14.140625 120.863281L14.140625 120.863281 14.140625 120.253906C13.6744792 120.425781 13.28125 120.511719 12.9609375 120.511719 12.0859375 120.511719 11.5924479 120.007812 11.4804688 119L11.4804688 119 14.15625 119 14.1601562 118.761719C14.1601562 118.089844 14.0201823 117.571615 13.7402344 117.207031 13.4602865 116.842448 13.0638021 116.660156 12.5507812 116.660156 12.0091146 116.660156 11.5644531 116.865885 11.2167969 117.277344 10.8691406 117.688802 10.6953125 118.216146 10.6953125 118.859375 10.6953125 119.520833 10.8925781 120.059245 11.2871094 120.474609 11.6816406 120.889974 12.1914062 121.097656 12.8164062 121.097656zM13.3867188 118.421875L11.515625 118.421875C11.5833333 117.632812 11.9127604 117.238281 12.5039062 117.238281 13.0924479 117.238281 13.3867188 117.632812 13.3867188 118.421875L13.3867188 118.421875zM16.2578125 121L16.2578125 118.203125C16.5859375 117.625 16.9934896 117.335938 17.4804688 117.335938 17.5820312 117.335938 17.6992188 117.358073 17.8320312 117.402344L17.8320312 117.402344 17.8320312 116.683594C17.7460938 116.670573 17.6640625 116.664062 17.5859375 116.664062 17.0052083 116.664062 16.5625 116.960938 16.2578125 117.554688L16.2578125 117.554688 16.2578125 116.757812 15.4882812 116.757812 15.4882812 121 16.2578125 121zM21.6367188 121.097656C21.8476562 121.097656 22.0403646 121.05599 22.2148438 120.972656L22.2148438 120.972656 22.1601562 120.546875C22.0950521 120.557292 22.0455729 120.5625 22.0117188 120.5625 21.7408854 120.5625 21.6054688 120.342448 21.6054688 119.902344L21.6054688 119.902344 21.6054688 117.980469C21.6054688 117.529948 21.4928385 117.197917 21.2675781 116.984375 21.0423177 116.770833 20.6927083 116.664062 20.21875 116.664062 19.765625 116.664062 19.2799479 116.769531 18.7617188 116.980469L18.7617188 116.980469 18.7617188 117.617188C19.2330729 117.367188 19.671875 117.242188 20.078125 117.242188 20.5833333 117.242188 20.8359375 117.488281 20.8359375 117.980469L20.8359375 117.980469 20.8359375 118.492188 20.6523438 118.492188C19.9257812 118.492188 19.3678385 118.616536 18.9785156 118.865234 18.5891927 119.113932 18.3945312 119.470052 18.3945312 119.933594 18.3945312 120.269531 18.5104167 120.547526 18.7421875 120.767578 18.9739583 120.98763 19.265625 121.097656 19.6171875 121.097656 20.0442708 121.097656 20.4882812 120.885417 20.9492188 120.460938 21.0481771 120.885417 21.2773438 121.097656 21.6367188 121.097656zM19.8359375 120.46875C19.6484375 120.46875 19.4895833 120.404948 19.359375 120.277344 19.2291667 120.14974 19.1640625 119.99349 19.1640625 119.808594 19.1640625 119.548177 19.2942708 119.337891 19.5546875 119.177734 19.8151042 119.017578 20.15625 118.9375 20.578125 118.9375L20.578125 118.9375 20.8359375 118.945312 20.8359375 120.042969C20.4895833 120.326823 20.15625 120.46875 19.8359375 120.46875zM24.8359375 121.097656C25.1979167 121.097656 25.6276042 121.022135 26.125 120.871094L26.125 120.871094 26.125 120.207031C25.7526042 120.386719 25.390625 120.476562 25.0390625 120.476562 24.6432292 120.476562 24.3229167 120.329427 24.078125 120.035156 23.8333333 119.740885 23.7109375 119.355469 23.7109375 118.878906 23.7109375 118.386719 23.8300781 117.992839 24.0683594 117.697266 24.3066406 117.401693 24.6223958 117.253906 25.015625 117.253906 25.2890625 117.253906 25.6432292 117.317708 26.078125 117.445312L26.078125 117.445312 26.078125 116.800781C25.6692708 116.709635 25.2994792 116.664062 24.96875 116.664062 24.2994792 116.664062 23.7779948 116.856771 23.4042969 117.242188 23.030599 117.627604 22.84375 118.165365 22.84375 118.855469 22.84375 119.501302 23.0325521 120.036458 23.4101562 120.460938 23.7877604 120.885417 24.2630208 121.097656 24.8359375 121.097656zM28.5507812 121.097656C28.7252604 121.097656 28.9309896 121.065104 29.1679688 121L29.1679688 121 29.1679688 120.46875C29.0221354 120.502604 28.8984375 120.519531 28.796875 120.519531 28.3177083 120.519531 28.078125 120.242188 28.078125 119.6875L28.078125 119.6875 28.078125 117.335938 29.1875 117.335938 29.1875 116.757812 28.078125 116.757812 28.078125 115.914062 27.3085938 115.988281 27.3085938 116.757812 26.7773438 116.757812 26.7773438 117.335938 27.3085938 117.335938 27.3085938 119.828125C27.3085938 120.226562 27.4179688 120.53776 27.6367188 120.761719 27.8554688 120.985677 28.1601562 121.097656 28.5507812 121.097656zM31.0390625 115.988281L31.0390625 115.21875 30.2695312 115.21875 30.2695312 115.988281 31.0390625 115.988281zM31.0390625 121L31.0390625 116.757812 30.2695312 116.757812 30.2695312 121 31.0390625 121zM34.2421875 121.097656C34.8802083 121.097656 35.3815104 120.89974 35.7460938 120.503906 36.1106771 120.108073 36.2929688 119.563802 36.2929688 118.871094 36.2929688 118.19401 36.1113281 117.656901 35.7480469 117.259766 35.3847656 116.86263 34.8919271 116.664062 34.2695312 116.664062 33.6471354 116.664062 33.1542969 116.86263 32.7910156 117.259766 32.4277344 117.656901 32.2460938 118.196615 32.2460938 118.878906 32.2460938 119.553385 32.4270833 120.091797 32.7890625 120.494141 33.1510417 120.896484 33.6354167 121.097656 34.2421875 121.097656zM34.2539062 120.519531C33.4622396 120.519531 33.0664062 119.972656 33.0664062 118.878906 33.0664062 117.78776 33.4674479 117.242188 34.2695312 117.242188 35.0742188 117.242188 35.4765625 117.785156 35.4765625 118.871094 35.4765625 119.970052 35.0690104 120.519531 34.2539062 120.519531zM38.265625 121L38.265625 118.253906C38.6822917 117.636719 39.1263021 117.328125 39.5976562 117.328125 39.8111979 117.328125 39.9641927 117.395182 40.0566406 117.529297 40.1490885 117.663411 40.1953125 117.888021 40.1953125 118.203125L40.1953125 118.203125 40.1953125 121 40.9648438 121 40.9648438 117.953125C40.9648438 117.559896 40.8554688 117.246745 40.6367188 117.013672 40.4179688 116.780599 40.125 116.664062 39.7578125 116.664062 39.1692708 116.664062 38.671875 116.960938 38.265625 117.554688L38.265625 117.554688 38.265625 116.757812 37.4960938 116.757812 37.4960938 121 38.265625 121z"/>
      </g>



      
      <g transform="translate(18)">
        <rect width="100" height="2" y="25" fill="#000000" fill-opacity=".12" rx="1"/>
        <!-- bar_1 -->
        <rect width="56" height="2"  rx="1" y="25" fill="#EA475B" fill-rule="nonzero" style="animation:bar_1 5000ms ease infinite; "/>
        <rect width="1" height="82" x="116" fill="#000000" fill-opacity=".12" />
        <rect width="100" height="2" y="139" fill="#000000" fill-opacity=".12" rx="1"/>
        <rect width="1" height="82" x="116" y="114" fill="#000000" fill-opacity=".12"/>
      </g>
      <g transform="translate(0 8)">
      <g style="animation:handle_1_move 5000ms ease infinite; ">
            <!-- hover_1 -->
        <circle cx="18" cy="18" r="18" fill="#EA475B" fill-opacity=".04" style="animation:hover_1 5000ms ease infinite;transform-origin:8px 8px "/>
        <!-- handle_1 -->
        <circle cx="18" cy="18" r="10"   fill-rule="nonzero" style="animation:handle_1 5000ms ease infinite; "/>
      </g>
        <!-- mouse_1 -->
        <use fill="#000" filter="url(#variation_all-a)" xlink:href="#variation_all-b" style="animation:mouse_1 5000ms ease infinite; "/>
        <use fill="#FFF" fill-opacity=".56" xlink:href="#variation_all-b" style="animation:mouse_1 5000ms ease infinite; "/>
        <use fill="#000" filter="url(#variation_all-c)" xlink:href="#variation_all-b" style="animation:mouse_1 5000ms ease infinite; "/>
      </g>





      <g transform="translate(0 122)">
      <!-- bar_2 -->
        <rect width="56" height="2" x="27" y="17" fill="#EA475B" fill-rule="nonzero" style="animation:bar_2 5000ms ease infinite;transform-origin:82px 0; "/>
                <!-- hover_2_right-->
        <circle cx="92" cy="18" r="18" fill="#EA475B" fill-opacity=".04" style="animation:hover_2_right 5000ms ease infinite;transform-origin:100px 8px  "/>


      <g transform="translate(82 8)">
        <circle cx="10" cy="10" r="9.5" fill="#FFF" stroke="#000000" stroke-opacity=".12"/>
        <path fill="#000000" fill-opacity=".56" d="M9.20833333,10 L11.791,7.41733333 C12.0523333,7.156 12.0523333,6.73266667 11.791,6.47133333 C11.529,6.20933333 11.1063333,6.20933333 10.8443333,6.47133333 L7.78833333,9.52733333 C7.52766667,9.78866667 7.52766667,10.2113333 7.78833333,10.4726667 L10.8443333,13.5286667 C10.975,13.6593333 11.1463333,13.7246667 11.3176667,13.7246667 C11.489,13.7246667 11.6603333,13.6593333 11.791,13.5286667 C12.0523333,13.2673333 12.0523333,12.844 11.791,12.5826667 L9.20833333,10 Z"/>
      </g>




<g style="animation:handle_2_move 5000ms ease infinite; ">
 <!-- hover_2_left-->
        <circle cx="18" cy="18" r="18" fill="#EA475B" fill-opacity=".04" style="animation:hover_2_left 5000ms ease infinite;transform-origin:8px 8px "/>
        <!-- handle_2 -->
        <circle cx="18" cy="18" r="10" fill="#EA475B" fill-rule="nonzero"  outline-offset="-10px" style="animation:handle_2 5000ms ease infinite; "/>
        <!-- icon_2 -->
        <path  style="animation:icon 5000ms ease infinite; " d="M20.2024667,17.5273333 L17.1491333,14.474 C16.8878,14.2133333 16.4651333,14.2133333 16.2038,14.474 C15.9424667,14.736 15.9424667,15.1586667 16.2038,15.42 L18.7844667,18 L16.2038,20.58 C15.9424667,20.8413333 15.9424667,21.264 16.2038,21.526 C16.3344667,21.656 16.5058,21.7213333 16.6764667,21.7213333 C16.8478,21.7213333 17.0191333,21.656 17.1491333,21.526 L20.2024667,18.4726667 C20.4638,18.2113333 20.4638,17.7886667 20.2024667,17.5273333"/>
</g>
        <use fill="#000" filter="url(#variation_all-d)" xlink:href="#variation_all-e" style="animation:mouse_2 5000ms ease infinite; "/>
        <use fill="#FFF" fill-opacity=".56" xlink:href="#variation_all-e" style="animation:mouse_2 5000ms ease infinite; "/>
        <use fill="#000" filter="url(#variation_all-f)" xlink:href="#variation_all-e" style="animation:mouse_2 5000ms ease infinite; "/>
      </g>

    </g>
  </g>
</svg>
