<?xml version="1.0" encoding="UTF-8"?>
<svg width="422px" height="168px" viewBox="0 0 422 168" version="1.1" xmlns="http://www.w3.org/2000/svg" xmlns:xlink="http://www.w3.org/1999/xlink">
    <title>usage_1</title>
    <defs>
        <rect id="path-1" x="0" y="0" width="422" height="168" rx="4"></rect>
        <rect id="path-3" x="71" y="46.6666667" width="280" height="74.6666667" rx="2.87179487"></rect>
        <filter x="-6.4%" y="-20.1%" width="112.9%" height="148.2%" filterUnits="objectBoundingBox" id="filter-4">
            <feOffset dx="0" dy="3" in="SourceAlpha" result="shadowOffsetOuter1"></feOffset>
            <feGaussianBlur stdDeviation="5.5" in="shadowOffsetOuter1" result="shadowBlurOuter1"></feGaussianBlur>
            <feColorMatrix values="0 0 0 0 0   0 0 0 0 0   0 0 0 0 0  0 0 0 0.12 0" type="matrix" in="shadowBlurOuter1"></feColorMatrix>
        </filter>
    </defs>
    <g id="Stepper" stroke="none" stroke-width="1" fill="none" fill-rule="evenodd">
        <g id="usage" transform="translate(-32.000000, -32.000000)">
            <g id="usage_1" transform="translate(32.000000, 32.000000)">
                <mask id="mask-2" fill="white">
                    <use xlink:href="#path-1"></use>
                </mask>
                <use id="base" fill-opacity="0" fill="#000000" xlink:href="#path-1"></use>
                <g id="Rectangle" fill="black" fill-opacity="1">
                    <use filter="url(#filter-4)" xlink:href="#path-3"></use>
                </g>
                <rect id="Rectangle" fill="#FFFFFF" x="71" y="46.6666667" width="280" height="74.6666667" rx="2.87179487"></rect>
                <g id="Group-3" transform="translate(105.461538, 69.641026)">
                    <rect id="stepper_base" stroke-opacity="0.24" stroke="#000000" stroke-width="0.717948718" x="0.358974359" y="0.358974359" width="210.358974" height="28" rx="2.87179487"></rect>
                    <g id="Group" transform="translate(10.769231, 5.743590)" fill="#000000">
                        <path d="M6.58119658,9.21367521 L0.598290598,9.21367521 C0.267435897,9.21367521 0,8.94564103 0,8.61538462 C0,8.28512821 0.267435897,8.01709402 0.598290598,8.01709402 L6.58119658,8.01709402 C6.91205128,8.01709402 7.17948718,8.28512821 7.17948718,8.61538462 C7.17948718,8.94564103 6.91205128,9.21367521 6.58119658,9.21367521" id="icon_color" fill-opacity="0.56"></path>
                        <rect id="control-/-divider-/-vertical" fill-opacity="0.12" x="17.9487179" y="0" width="1" height="17.2307692"></rect>
                    </g>
                    <g id="Group-2" transform="translate(181.641026, 5.743590)" fill="#000000">
                        <path d="M18.0683761,8.01709402 L15.6752137,8.01709402 L15.6752137,5.62393162 C15.6752137,5.29367521 15.4077778,5.02564103 15.0769231,5.02564103 C14.7460684,5.02564103 14.4786325,5.29367521 14.4786325,5.62393162 L14.4786325,8.01709402 L12.0854701,8.01709402 C11.7546154,8.01709402 11.4871795,8.28512821 11.4871795,8.61538462 C11.4871795,8.94564103 11.7546154,9.21367521 12.0854701,9.21367521 L14.4786325,9.21367521 L14.4786325,11.6068376 C14.4786325,11.937094 14.7460684,12.2051282 15.0769231,12.2051282 C15.4077778,12.2051282 15.6752137,11.937094 15.6752137,11.6068376 L15.6752137,9.21367521 L18.0683761,9.21367521 C18.3992308,9.21367521 18.6666667,8.94564103 18.6666667,8.61538462 C18.6666667,8.28512821 18.3992308,8.01709402 18.0683761,8.01709402" id="icon_color" fill-opacity="0.56"></path>
                        <rect id="control-/-divider-/-vertical" fill-opacity="0.12" x="0" y="0" width="1" height="17.2307692"></rect>
                    </g>
                    <path d="M106.885996,17.2307692 C106.885996,16.946724 106.883462,16.6479868 106.878394,16.3345577 C106.873326,16.0211285 106.863191,15.7019858 106.847987,15.3771295 C106.832783,15.0522732 106.812512,14.7266007 106.787173,14.4001119 C106.761833,14.0736232 106.728892,13.7569291 106.688349,13.4500297 C106.59037,12.7317545 106.449314,12.0926528 106.265182,11.5327247 C106.081049,10.9727965 105.850461,10.4789823 105.573417,10.0512821 L105.573417,10.0512821 L104.73215,10.5703991 C104.985544,10.9556558 105.187414,11.3996805 105.337761,11.9024732 C105.488108,12.4052658 105.603824,12.9456046 105.68491,13.5234897 C105.765996,14.1013748 105.818364,14.7045627 105.842014,15.3330535 C105.865664,15.9615443 105.877489,16.5941162 105.877489,17.2307692 L105.877489,17.2307692 L106.885996,17.2307692 Z" id="۱" fill-opacity="0.32" fill="#000000" fill-rule="nonzero"></path>
                </g>
            </g>
        </g>
    </g>
</svg>