<?xml version="1.0" encoding="UTF-8"?>
<svg width="422px" height="148px" viewBox="0 0 422 148" version="1.1" xmlns="http://www.w3.org/2000/svg" xmlns:xlink="http://www.w3.org/1999/xlink">
    <title>usage_2</title>
    <defs>
        <rect id="path-1" x="0" y="0" width="422" height="148" rx="4"></rect>
        <rect id="path-3" x="71" y="43.8461538" width="280" height="60.3076923" rx="4"></rect>
        <filter x="-9.3%" y="-36.5%" width="118.6%" height="186.2%" filterUnits="objectBoundingBox" id="filter-4">
            <feOffset dx="0" dy="4" in="SourceAlpha" result="shadowOffsetOuter1"></feOffset>
            <feGaussianBlur stdDeviation="8" in="shadowOffsetOuter1" result="shadowBlurOuter1"></feGaussianBlur>
            <feColorMatrix values="0 0 0 0 0   0 0 0 0 0   0 0 0 0 0  0 0 0 0.12 0" type="matrix" in="shadowBlurOuter1"></feColorMatrix>
        </filter>
    </defs>
    <g id="RangeSlider" stroke="none" stroke-width="1" fill="none" fill-rule="evenodd">
        <g id="usage" transform="translate(-32.000000, -212.000000)">
            <g id="usage_2" transform="translate(32.000000, 212.000000)">
                <mask id="mask-2" fill="white">
                    <use xlink:href="#path-1"></use>
                </mask>
                <use id="base" fill-opacity="0" fill="#000000" xlink:href="#path-1"></use>
                <g id="Rectangle" fill="black" fill-opacity="1">
                    <use filter="url(#filter-4)" xlink:href="#path-3"></use>
                </g>
                <rect id="Rectangle" fill="#FFFFFF" x="71" y="43.8461538" width="280" height="60.3076923" rx="4"></rect>
                <g id="Group" transform="translate(146.671795, 66.666667)">
                    <g id="control-/-range-/-slider-/-base-/-normal" transform="translate(0.000000, 7.200000)" fill="#000000" fill-opacity="0.12">
                        <g id="range_slider_base">
                            <rect x="0" y="0" width="128.65641" height="1.6" rx="0.8"></rect>
                        </g>
                    </g>
                    <g id="range_slider_content" transform="translate(39.056410, 0.000000)">
                        <rect id="range_slider_indicator" fill="#EA475B" fill-rule="nonzero" x="15.2" y="7.2" width="43.6923077" height="1.6"></rect>
                        <g id="element-/-handle-/-slider-/-iconed-/-norm">
                            <circle id="slider_handle" stroke-opacity="0.12" stroke="#000000" stroke-width="0.8" fill="#FFFFFF" cx="8" cy="8" r="7.6"></circle>
                            <g id="icon" transform="translate(6.406240, 5.022800)" fill="#000000" fill-opacity="0.56">
                                <g id="icon-/-16dp-/-outlined-/-keyboard-arrow-right">
                                    <path d="M3.35573333,2.59906667 L0.913066667,0.1564 C0.704,-0.0521333333 0.365866667,-0.0521333333 0.1568,0.1564 C-0.0522666667,0.366 -0.0522666667,0.704133333 0.1568,0.9132 L2.22133333,2.9772 L0.1568,5.0412 C-0.0522666667,5.25026667 -0.0522666667,5.5884 0.1568,5.798 C0.261333333,5.902 0.3984,5.95426667 0.534933333,5.95426667 C0.672,5.95426667 0.809066667,5.902 0.913066667,5.798 L3.35573333,3.35533333 C3.5648,3.14626667 3.5648,2.80813333 3.35573333,2.59906667" id="icon_color"></path>
                                </g>
                            </g>
                        </g>
                        <g id="element-/-handle-/-slider-/-iconed-/-norm" transform="translate(58.092308, 0.000000)">
                            <circle id="slider_handle" stroke-opacity="0.12" stroke="#000000" stroke-width="0.8" fill="#FFFFFF" cx="8" cy="8" r="7.6"></circle>
                            <g id="icon" transform="translate(6.074267, 5.019867)" fill="#000000" fill-opacity="0.56">
                                <g id="icon-/-16dp-/-outlined-/-keyboard-arrow-left">
                                    <path d="M1.2924,2.98013333 L3.35853333,0.914 C3.5676,0.704933333 3.5676,0.366266667 3.35853333,0.1572 C3.14893333,-0.0524 2.8108,-0.0524 2.6012,0.1572 L0.1564,2.602 C-0.0521333333,2.81106667 -0.0521333333,3.1492 0.1564,3.35826667 L2.6012,5.80306667 C2.70573333,5.9076 2.8428,5.95986667 2.97986667,5.95986667 C3.11693333,5.95986667 3.254,5.9076 3.35853333,5.80306667 C3.5676,5.594 3.5676,5.25533333 3.35853333,5.04626667 L1.2924,2.98013333 Z" id="icon_color"></path>
                                </g>
                            </g>
                        </g>
                    </g>
                </g>
            </g>
        </g>
    </g>
</svg>