<svg xmlns="http://www.w3.org/2000/svg" xmlns:xlink="http://www.w3.org/1999/xlink" width="422" height="360"><defs><path id="d" d="M0 0h366a8 8 0 018 8v304H0V0z"/><path id="e" d="M0 0h366a8 8 0 018 8v304H0V0z"/><path id="h" d="M0 0h374v64H0z"/><filter id="c" width="113.9%" height="116.7%" x="-7%" y="-7.1%" filterUnits="objectBoundingBox"><feOffset dy="4" in="SourceAlpha" result="shadowOffsetOuter1"/><feGaussianBlur in="shadowOffsetOuter1" result="shadowBlurOuter1" stdDeviation="8"/><feColorMatrix in="shadowBlurOuter1" values="0 0 0 0 0 0 0 0 0 0 0 0 0 0 0 0 0 0 0.12 0"/></filter><filter id="g" width="101.9%" height="110.9%" x="-.9%" y="-3.9%" filterUnits="objectBoundingBox"><feOffset dy="1" in="SourceAlpha" result="shadowOffsetOuter1"/><feGaussianBlur in="shadowOffsetOuter1" result="shadowBlurOuter1" stdDeviation="1"/><feComposite in="shadowBlurOuter1" in2="SourceAlpha" operator="out" result="shadowBlurOuter1"/><feColorMatrix in="shadowBlurOuter1" values="0 0 0 0 0 0 0 0 0 0 0 0 0 0 0 0 0 0 0.12 0"/></filter><rect id="a" width="422" height="360" x="0" y="0" rx="4"/></defs><g fill="none" fill-rule="evenodd"><mask id="b" fill="#fff"><use xlink:href="#a"/></mask><use fill="#000" fill-opacity="0" xlink:href="#a"/><g mask="url(#b)"><g transform="translate(0 48)"><use fill="#000" filter="url(#c)" xlink:href="#d"/><mask id="f" fill="#fff"><use xlink:href="#e"/></mask><use fill="#FFF" xlink:href="#e"/><g mask="url(#f)"><use fill="#000" filter="url(#g)" xlink:href="#h"/><use fill="#FFF" fill-opacity=".98" xlink:href="#h"/></g></g></g><g fill="#47ADEA" fill-opacity=".32" mask="url(#b)"><g transform="translate(63 60)"><circle cx="275" cy="20" r="20"/><rect width="168" height="24" x="64" y="8" rx="4"/><rect width="81" height="16" x="190" y="69" rx="4"/><rect width="81" height="16" x="64" y="69" rx="4"/><rect width="16" height="16" x="153" y="69" rx="8"/><rect width="16" height="16" x="279" y="69" rx="8"/><rect width="295" height="32" y="101" rx="4"/><rect width="231" height="16" x="64" y="141" rx="4"/><rect width="168" height="40" x="127" y="189" rx="4"/><rect width="105" height="40" y="189" rx="4"/></g></g><g fill="#EA475B" fill-opacity=".12" mask="url(#b)"><path d="M0 48h42.118v312H0zM63.176 48h42.118v312H63.176zM126.353 48h42.118v312h-42.118zM189.529 48h42.118v312h-42.118zM252.706 48h42.118v312h-42.118zM315.882 48H358v312h-42.118z"/></g></g></svg>