<svg xmlns="http://www.w3.org/2000/svg" xmlns:xlink="http://www.w3.org/1999/xlink" width="860" height="428"><defs><rect id="fixed_grid-a" width="860" height="428" x="0" y="0" rx="4"/><rect id="fixed_grid-d" width="520" height="300" x="0" y="0" rx="4"/><filter id="fixed_grid-c" width="110%" height="117.3%" x="-5%" y="-7.3%" filterUnits="objectBoundingBox"><feOffset dy="4" in="SourceAlpha" result="shadowOffsetOuter1"/><feGaussianBlur in="shadowOffsetOuter1" result="shadowBlurOuter1" stdDeviation="8"/><feColorMatrix in="shadowBlurOuter1" values="0 0 0 0 0 0 0 0 0 0 0 0 0 0 0 0 0 0 0.12 0"/></filter></defs><style>@keyframes screen{0%,20%,30%,85%,to{transform:translate(170px,64px) scale(1,1);transform-origin:260px 0}40%,70%{transform:translate(170px,64px) scale(.7,1);transform-origin:260px 0}}</style><g fill="none" fill-rule="evenodd"><mask id="fixed_grid-b" fill="#fff"><use xlink:href="#fixed_grid-a"/></mask><use fill="#000000" fill-opacity="0" xlink:href="#fixed_grid-a"/><g mask="url(#fixed_grid-b)"><g transform="translate(170 64)" style="animation:screen 5000ms cubic-bezier(.83,0,.17,1) infinite"><use fill="#000" filter="url(#fixed_grid-c)" xlink:href="#fixed_grid-d"/><rect width="520" height="300" fill="#FFF" rx="4"/></g></g><g mask="url(#fixed_grid-b)"><path d="M254 64h4v300h-4z"/><path fill="#EA475B" fill-opacity=".08" d="M258 64h21.333v300H258z"/><path d="M279.333 64h4v300h-4zM283.333 64h4v300h-4z"/><path fill="#EA475B" fill-opacity=".08" d="M287.333 64h21.333v300h-21.333z"/><path d="M308.666 64h4v300h-4zM312.667 64h4v300h-4z"/><path fill="#EA475B" fill-opacity=".08" d="M316.667 64H338v300h-21.333z"/><path d="M338 64h4v300h-4zM342 64h4v300h-4z"/><path fill="#EA475B" fill-opacity=".08" d="M346 64h21.333v300H346z"/><path d="M367.333 64h4v300h-4zM371.333 64h4v300h-4z"/><path fill="#EA475B" fill-opacity=".08" d="M375.333 64h21.333v300h-21.333z"/><path d="M396.666 64h4v300h-4z"/><g><path d="M400.667 64h4v300h-4z"/><path fill="#EA475B" fill-opacity=".08" d="M404.667 64H426v300h-21.333z"/><path d="M426 64h4v300h-4z"/></g><g><path d="M430 64h4v300h-4z"/><path fill="#EA475B" fill-opacity=".08" d="M434 64h21.333v300H434z"/><path d="M455.333 64h4v300h-4z"/></g><g><path d="M459.333 64h4v300h-4z"/><path fill="#EA475B" fill-opacity=".08" d="M463.333 64h21.333v300h-21.333z"/><path d="M484.666 64h4v300h-4z"/></g><g><path d="M488.667 64h4v300h-4z"/><path fill="#EA475B" fill-opacity=".08" d="M492.667 64H514v300h-21.333z"/><path d="M514 64h4v300h-4z"/></g><g><path d="M518 64h4v300h-4z"/><path fill="#EA475B" fill-opacity=".08" d="M522 64h21.333v300H522z"/><path d="M543.333 64h4v300h-4z"/></g><g><path d="M547.333 64h4v300h-4z"/><path fill="#EA475B" fill-opacity=".08" d="M551.333 64h21.333v300h-21.333z"/><path d="M572.666 64h4v300h-4z"/></g><g><path d="M576.667 64h4v300h-4z"/><path fill="#EA475B" fill-opacity=".08" d="M580.667 64H602v300h-21.333z"/><path d="M602 64h4v300h-4z"/></g></g></g></svg>