<svg xmlns="http://www.w3.org/2000/svg" xmlns:xlink="http://www.w3.org/1999/xlink" width="860" height="428"><defs><rect id="column_span-a" width="860" height="428" x="0" y="0" rx="4"/><rect id="column_span-d" width="520" height="300" x="0" y="0" rx="4"/><filter id="column_span-c" width="110%" height="117.3%" x="-5%" y="-7.3%" filterUnits="objectBoundingBox"><feOffset dy="4" in="SourceAlpha" result="shadowOffsetOuter1"/><feGaussianBlur in="shadowOffsetOuter1" result="shadowBlurOuter1" stdDeviation="8"/><feColorMatrix in="shadowBlurOuter1" values="0 0 0 0 0 0 0 0 0 0 0 0 0 0 0 0 0 0 0.12 0"/></filter></defs><style>@keyframes span12{0%,15%,to{transform:translate(234px,88px) scale(1,1)}25%,40%{transform:translate(234px,88px) scale(.49,1)}50%,65%{transform:translate(234px,88px) scale(.32,1)}75%,90%{transform:translate(234px,88px) scale(.235,1)}}@keyframes span6{0%,20%,48%,8%,to{opacity:0}32%,40%{opacity:1}}@keyframes span4{0%,40%,70%,to{opacity:0}52%,64%{opacity:1}}@keyframes span3{0%,40%,64%,98%,to{opacity:0}78%,90%{opacity:1}}@keyframes num12{0%,20%,to{opacity:1}25%,92%{opacity:0}}@keyframes num6{0%,18%,50%,to{opacity:0}32%,44%{opacity:1}}@keyframes num4{0%,40%,71%,to{opacity:0}56%,60%{opacity:1}}@keyframes num3{0%,60%,to{opacity:0}76%,92%{opacity:1}}</style><g fill="none" fill-rule="evenodd"><mask id="column_span-b" fill="#fff"><use xlink:href="#column_span-a"/></mask><use fill="#000000" fill-opacity="0" xlink:href="#column_span-a"/><g mask="url(#column_span-b)"><g transform="translate(170 64)"><use fill="#000" filter="url(#column_span-c)" xlink:href="#column_span-d"/><rect width="520" height="300" fill="#FFF" rx="4"/></g></g><g mask="url(#column_span-b)"><path d="M230 64h4v300h-4z"/><path fill="#EA475B" fill-opacity=".08" d="M234 64h25.322v300H234z"/><path d="M259.322 64h4v300h-4zM263.322 64h4v300h-4z"/><path fill="#EA475B" fill-opacity=".08" d="M267.322 64h25.322v300h-25.322z"/><path d="M292.644 64h4v300h-4zM296.644 64h4v300h-4z"/><path fill="#EA475B" fill-opacity=".08" d="M300.644 64h25.322v300h-25.322z"/><path d="M325.966 64h4v300h-4zM329.966 64h4v300h-4z"/><path fill="#EA475B" fill-opacity=".08" d="M333.966 64h25.322v300h-25.322z"/><path d="M359.288 64h4v300h-4zM363.288 64h4v300h-4z"/><path fill="#EA475B" fill-opacity=".08" d="M367.288 64h25.322v300h-25.322z"/><path d="M392.61 64h4v300h-4z"/><g><path d="M396.61 64h4v300h-4z"/><path fill="#EA475B" fill-opacity=".08" d="M400.61 64h25.322v300H400.61z"/><path d="M425.932 64h4v300h-4z"/></g><g><path d="M429.932 64h4v300h-4z"/><path fill="#EA475B" fill-opacity=".08" d="M433.932 64h25.322v300h-25.322z"/><path d="M459.254 64h4v300h-4z"/></g><g><path d="M463.254 64h4v300h-4z"/><path fill="#EA475B" fill-opacity=".08" d="M467.254 64h25.322v300h-25.322z"/><path d="M492.576 64h4v300h-4z"/></g><g><path d="M496.576 64h4v300h-4z"/><path fill="#EA475B" fill-opacity=".08" d="M500.576 64h25.322v300h-25.322z"/><path d="M525.898 64h4v300h-4z"/></g><g><path d="M529.898 64h4v300h-4z"/><path fill="#EA475B" fill-opacity=".08" d="M533.898 64h25.322v300h-25.322z"/><path d="M559.22 64h4v300h-4z"/></g><g><path d="M563.22 64h4v300h-4z"/><path fill="#EA475B" fill-opacity=".08" d="M567.22 64h25.322v300H567.22z"/><path d="M592.542 64h4v300h-4z"/></g><g><path d="M596.542 64h4v300h-4z"/><path fill="#EA475B" fill-opacity=".08" d="M600.542 64h25.413v300h-25.413z"/><path d="M625.955 64h4v300h-4z"/></g></g><g fill="#47ADEA" fill-opacity=".32" stroke="#000000" stroke-opacity=".12" stroke-width=".5" mask="url(#column_span-b)"><rect style="animation:span12 9000ms cubic-bezier(.83,0,.17,1) infinite" width="391.5" height="251.5" x=".25" y=".25" rx="2"/></g><g fill="#47ADEA" fill-opacity=".32" stroke="#000000" stroke-opacity=".12" stroke-width=".5" mask="url(#column_span-b)"><rect width="191.5" height="251.5" x=".25" y=".25" rx="2" style="animation:span6 9000ms cubic-bezier(.83,0,.17,1) infinite" transform="translate(434 88)"/></g><g fill="#47ADEA" fill-opacity=".32" stroke="#000000" stroke-opacity=".12" stroke-width=".5" mask="url(#column_span-b)"><g transform="translate(367 88)" style="animation:span4 9000ms cubic-bezier(.83,0,.17,1) infinite"><rect width="124.906" height="251.5" x="133.844" y=".25" rx="2"/><rect width="124.906" height="251.5" x=".42" y=".25" rx="2"/></g></g><g fill="#47ADEA" fill-opacity=".32" stroke="#000000" stroke-opacity=".12" stroke-width=".5" mask="url(#column_span-b)"><g transform="translate(333 88)" style="animation:span3 9000ms cubic-bezier(.83,0,.17,1) infinite"><rect width="91.5" height="251.5" x="201.25" y=".25" rx="2"/><rect width="91.5" height="251.5" x="101.182" y=".25" rx="2"/><rect width="91.5" height="251.5" x="1.114" y=".25" rx="2"/></g></g><g fill="#000000" fill-opacity=".56" fill-rule="nonzero" mask="url(#column_span-b)"><path d="M236.803 390.098c.358 0 .697-.082 1.018-.244.32-.163.577-.381.769-.655.192-.273.296-.561.312-.864h-.854a1.03 1.03 0 01-.4.732c-.241.196-.523.293-.845.293-.466 0-.824-.164-1.074-.493-.251-.329-.376-.797-.376-1.406v-.171c0-.625.126-1.103.378-1.433.252-.33.608-.496 1.067-.496.342 0 .629.11.862.33.232.22.362.5.388.842h.854c-.026-.566-.235-1.027-.627-1.382-.392-.354-.885-.532-1.477-.532-.482 0-.9.11-1.253.332a2.157 2.157 0 00-.813.933 3.18 3.18 0 00-.283 1.372v.151c0 .834.213 1.49.637 1.97.425.48.997.72 1.717.72zm5.283 0a2.34 2.34 0 001.262-.342c.366-.228.648-.546.845-.955.197-.408.295-.87.295-1.384v-.063c0-.827-.222-1.49-.666-1.988-.445-.498-1.026-.747-1.746-.747-.465 0-.88.112-1.243.337a2.277 2.277 0 00-.85.957 3.12 3.12 0 00-.304 1.397v.063c0 .82.222 1.48.666 1.978.445.498 1.025.747 1.74.747zm0-.738c-.456 0-.82-.177-1.091-.532-.272-.355-.408-.825-.408-1.411 0-.66.137-1.169.41-1.523a1.297 1.297 0 011.08-.533c.455 0 .82.18 1.095.54.275.36.413.83.413 1.409 0 .647-.135 1.151-.405 1.51-.27.36-.635.54-1.094.54zm4.517.64v-7.5h-.904v7.5h.904zm3.159.098c.68 0 1.196-.207 1.548-.62l.02.522h.858v-5.283h-.903v3.843c-.228.514-.687.771-1.377.771-.65 0-.976-.4-.976-1.201v-3.413h-.904v3.437c.004.642.153 1.126.447 1.453.295.327.724.49 1.287.49zm4.697-.098v-3.857c.218-.505.623-.757 1.216-.757.752 0 1.128.384 1.128 1.152V390h.908v-3.506c.036-.338.164-.608.386-.808.221-.2.5-.3.835-.3.407 0 .696.093.869.28.172.188.259.47.259.848V390h.903v-3.54c-.02-1.227-.609-1.84-1.768-1.84-.384 0-.717.077-.998.234-.282.156-.51.36-.686.615-.267-.567-.77-.85-1.509-.85-.658 0-1.18.228-1.567.684l-.025-.586h-.854V390h.903zm8.77 0v-3.765c.123-.254.296-.459.517-.615.221-.156.479-.234.772-.234.36 0 .627.09.798.273.17.182.258.464.261.845V390h.903v-3.491c-.01-1.26-.572-1.89-1.689-1.89-.651 0-1.178.254-1.582.762l-.03-.664h-.854V390h.904zm9.033.098c.602 0 1.092-.143 1.47-.428.377-.284.566-.663.566-1.135 0-.283-.068-.523-.203-.72-.135-.197-.342-.365-.622-.505-.28-.14-.646-.26-1.097-.362-.45-.1-.762-.206-.935-.317a.548.548 0 01-.258-.493c0-.231.092-.419.278-.562.185-.143.443-.215.771-.215.32 0 .584.09.794.269.21.179.315.392.315.64h.908c0-.482-.186-.878-.56-1.187-.372-.31-.858-.464-1.457-.464-.57 0-1.037.15-1.403.45-.367.299-.55.665-.55 1.098 0 .26.065.485.193.674.129.189.327.351.596.488.268.137.631.254 1.089.352.457.097.778.214.962.349a.665.665 0 01.276.569.638.638 0 01-.31.554c-.207.138-.481.207-.823.207-.371 0-.67-.088-.896-.266a.935.935 0 01-.364-.72h-.903c0 .313.092.603.276.872.183.268.438.477.764.627.325.15.7.225 1.123.225zm4.116 1.933v-2.544c.368.407.872.61 1.514.61.628 0 1.126-.245 1.494-.737.368-.491.552-1.139.552-1.943v-.083c0-.853-.185-1.519-.555-1.997-.37-.479-.871-.718-1.506-.718-.654 0-1.165.228-1.533.684l-.044-.586h-.825v7.314h.903zm1.24-2.67c-.556 0-.97-.242-1.24-.723v-2.525c.273-.485.684-.727 1.23-.727.443 0 .791.172 1.045.517.254.345.381.816.381 1.411 0 .678-.128 1.188-.383 1.531-.256.344-.6.515-1.033.515zm5.098.737c.583 0 1.084-.218 1.504-.655.032.267.075.453.127.557h.947v-.078c-.124-.287-.186-.672-.186-1.157v-2.432c-.013-.534-.192-.953-.537-1.257-.345-.305-.822-.457-1.43-.457-.384 0-.737.072-1.058.215-.32.143-.574.338-.761.583-.187.246-.281.501-.281.765h.908c0-.231.11-.428.327-.591.218-.163.489-.244.81-.244.369 0 .647.093.836.28.189.188.283.44.283.755v.415h-.879c-.758 0-1.347.152-1.765.456-.418.305-.627.732-.627 1.282 0 .453.166.826.5 1.12.334.295.761.443 1.282.443zm.132-.786c-.297 0-.54-.08-.728-.24-.189-.16-.283-.38-.283-.664 0-.648.553-.971 1.66-.971h.708v1.084a1.33 1.33 0 01-.552.57c-.254.147-.522.22-.805.22zm4.58.688v-3.765c.123-.254.296-.459.517-.615.222-.156.479-.234.772-.234.361 0 .627.09.798.273.171.182.258.464.261.845V390h.904v-3.491c-.01-1.26-.573-1.89-1.69-1.89-.65 0-1.178.254-1.582.762l-.03-.664h-.854V390h.904z"/></g><g fill="#000000" fill-rule="nonzero" fill-opacity=".56" mask="url(#column_span-b)"><path style="animation:num12 9000ms cubic-bezier(.83,0,.17,1) infinite" d="M299.56 390v-7.144h-.142l-2.588.972v.82l1.821-.668V390h.908zm7.304 0v-.737h-3.57l1.905-2.066c.892-.966 1.338-1.8 1.338-2.5 0-.576-.192-1.037-.576-1.384-.384-.347-.907-.52-1.568-.52-.706 0-1.27.202-1.691.605-.422.404-.633.933-.633 1.587h.904c0-.455.124-.811.373-1.067.25-.255.598-.383 1.047-.383.375 0 .674.119.899.357.225.237.337.542.337.913 0 .276-.07.544-.208.803-.138.259-.39.595-.754 1.008l-2.461 2.735V390h4.658z"/><path style="animation:num6 9000ms cubic-bezier(.83,0,.17,1) infinite" d="M298.935 390.098c.67 0 1.205-.22 1.604-.66.399-.439.598-1.025.598-1.757 0-.69-.185-1.253-.554-1.69-.37-.436-.863-.654-1.482-.654-.648 0-1.159.215-1.533.645.065-.733.306-1.3.723-1.704.416-.404.976-.612 1.68-.625h.165v-.767h-.16c-1.104.016-1.935.37-2.494 1.062-.558.692-.837 1.692-.837 3v.347c0 .824.212 1.497.635 2.02.423.522.975.783 1.655.783zm0-.747c-.394 0-.723-.18-.986-.537-.264-.358-.396-.83-.396-1.416v-.332c.101-.28.282-.513.542-.699.26-.185.545-.278.855-.278.39 0 .704.15.94.452.236.3.354.696.354 1.184 0 .485-.117.877-.35 1.177-.232.3-.552.449-.959.449z"/><path style="animation:num4 9000ms cubic-bezier(.83,0,.17,1) infinite" d="M300.405 390v-1.651h.986v-.737h-.986v-4.722h-.962l-3.184 4.927v.532h3.237v1.65h.909zm-.909-2.388h-2.212l2.105-3.291.107-.196v3.487z"/><path style="animation:num3 9000ms cubic-bezier(.83,0,.17,1) infinite" d="M298.715 390.098c.667 0 1.21-.187 1.626-.562.417-.374.625-.88.625-1.518 0-.414-.107-.764-.32-1.05-.213-.287-.515-.492-.906-.615.345-.144.618-.36.818-.65.2-.29.3-.589.3-.898 0-.632-.19-1.125-.57-1.48-.382-.355-.907-.532-1.578-.532-.635 0-1.158.186-1.57.56-.412.372-.618.84-.618 1.403h.904c0-.368.116-.663.349-.886.233-.223.544-.335.935-.335.83 0 1.245.417 1.245 1.25 0 .371-.122.666-.366.884-.244.218-.58.33-1.006.337h-.679v.737h.679c.479.007.845.12 1.099.342.254.221.38.539.38.952 0 .427-.115.754-.346.982-.231.227-.565.341-1.001.341-.41 0-.737-.112-.982-.337-.244-.224-.366-.524-.366-.898h-.908c0 .592.21 1.07.627 1.43.419.362.962.543 1.629.543z"/></g></g></svg>