<svg xmlns="http://www.w3.org/2000/svg" xmlns:xlink="http://www.w3.org/1999/xlink" width="860" height="396"><defs><rect id="a" width="860" height="396" x="0" y="0" rx="4"/></defs><g fill="none" fill-rule="evenodd"><mask id="b" fill="#fff"><use xlink:href="#a"/></mask><use fill="#000000" fill-opacity="0" xlink:href="#a"/><g mask="url(#b)"><g fill="#000000"><path fill-opacity=".24" d="M431 80h2v16h-2z"/><path fill-opacity=".56" fill-rule="nonzero" d="M422.703 91v-.758h-2.64l1.39-1.488c.365-.396.627-.75.787-1.06.16-.312.24-.61.24-.893 0-.49-.159-.873-.478-1.15-.32-.278-.755-.417-1.307-.417-.382 0-.72.077-1.013.23-.293.154-.519.37-.676.647a1.86 1.86 0 00-.236.936h.949c0-.326.084-.582.254-.77.169-.187.407-.28.714-.28.258 0 .463.082.616.25.152.166.228.385.228.655 0 .206-.058.411-.174.616-.115.204-.31.459-.584.763l-1.894 2.067V91h3.824z"/><path fill-opacity=".24" d="M431 104h6v16h-6z"/><path fill-opacity=".56" fill-rule="nonzero" d="M422.09 115v-1.266h.707v-.761h-.707v-3.66h-.98l-2.454 3.843.028.578h2.457V115h.949zm-.95-2.027h-1.488l1.418-2.25.07-.125v2.375z"/><path fill-opacity=".24" d="M431 128h6v16h-6z"/><path fill-opacity=".56" fill-rule="nonzero" d="M420.82 139.078c.552 0 .998-.179 1.338-.537.34-.358.51-.826.51-1.404 0-.56-.145-1.017-.436-1.371-.29-.355-.686-.532-1.189-.532-.474 0-.863.16-1.168.48.06-.52.249-.922.566-1.206.318-.284.743-.43 1.274-.438h.117v-.785h-.098c-.911 0-1.61.283-2.095.848-.486.565-.729 1.346-.729 2.344v.324c0 .68.177 1.229.53 1.648.352.42.813.63 1.38.63zm-.007-.766c-.282 0-.51-.124-.688-.373-.177-.248-.266-.584-.266-1.005v-.29a1.027 1.027 0 01.954-.644c.276 0 .497.108.664.324.166.216.25.496.25.84s-.082.621-.247.832a.801.801 0 01-.668.316z"/><path fill-opacity=".24" d="M431 152h8v16h-8z"/><path fill-opacity=".56" fill-rule="nonzero" d="M420.727 163.078c.562 0 1.013-.146 1.351-.44.339-.292.508-.689.508-1.189 0-.302-.08-.573-.24-.812a1.623 1.623 0 00-.686-.567 1.49 1.49 0 00.586-.513c.143-.218.215-.466.215-.745 0-.484-.156-.868-.469-1.152-.312-.284-.735-.426-1.27-.426-.53 0-.952.142-1.265.426-.312.284-.469.668-.469 1.153 0 .278.071.526.213.744.142.217.335.388.58.513-.291.13-.518.317-.68.559a1.445 1.445 0 00-.242.82c0 .498.17.893.51 1.188.34.294.792.441 1.358.441zm0-3.379c-.243 0-.435-.077-.577-.23-.142-.154-.212-.36-.212-.621 0-.263.07-.471.21-.623.141-.153.332-.229.575-.229.242 0 .435.08.578.24.143.16.215.364.215.612 0 .26-.071.467-.213.62-.142.154-.334.231-.576.231zm0 2.621c-.287 0-.512-.083-.674-.25-.163-.166-.244-.389-.244-.668 0-.284.082-.511.248-.683.165-.172.386-.258.662-.258s.498.087.666.26c.168.173.252.4.252.681 0 .29-.08.515-.24.676-.16.162-.384.242-.67.242z"/><path fill-opacity=".24" d="M431 176h10v16h-10z"/><path fill-opacity=".56" fill-rule="nonzero" d="M416.902 187v-5.707h-.12l-2.22.816v.801l1.395-.476V187h.945zm3.828.078c.625 0 1.091-.208 1.397-.623.306-.415.459-1.032.459-1.85v-.984c-.008-.794-.165-1.39-.47-1.789-.307-.398-.77-.598-1.393-.598-.628 0-1.095.205-1.4.614-.307.409-.46 1.022-.46 1.84v.984c.008.794.168 1.394.479 1.799.311.405.774.607 1.388.607zm0-.758c-.317 0-.55-.13-.699-.39-.148-.26-.222-.657-.222-1.188v-1.289c.007-.5.084-.868.23-1.103.146-.236.374-.354.684-.354.317 0 .55.124.695.373.146.249.219.64.219 1.174v1.285c-.008.513-.085.89-.23 1.131-.147.24-.372.361-.677.361z"/><path fill-opacity=".24" d="M431 200h12v16h-12z"/><path fill-opacity=".56" fill-rule="nonzero" d="M416.902 211v-5.707h-.12l-2.22.816v.801l1.395-.476V211h.945zm5.801 0v-.758h-2.64l1.39-1.488c.365-.396.627-.75.787-1.06.16-.312.24-.61.24-.893 0-.49-.159-.873-.478-1.15-.32-.278-.755-.417-1.307-.417-.382 0-.72.077-1.013.23-.293.154-.519.37-.676.647a1.86 1.86 0 00-.236.936h.949c0-.326.084-.582.254-.77.169-.187.407-.28.714-.28.258 0 .463.082.616.25.152.166.228.385.228.655 0 .206-.058.411-.174.616-.115.204-.31.459-.584.763l-1.894 2.067V211h3.824z"/><path fill-opacity=".24" d="M431 224h14v16h-14z"/><path fill-opacity=".56" fill-rule="nonzero" d="M416.902 235v-5.707h-.12l-2.22.816v.801l1.395-.476V235h.945zm5.188 0v-1.266h.707v-.761h-.707v-3.66h-.98l-2.454 3.843.028.578h2.457V235h.949zm-.95-2.027h-1.488l1.418-2.25.07-.125v2.375z"/><path fill-opacity=".24" d="M431 248h16v16h-16z"/><path fill-opacity=".56" fill-rule="nonzero" d="M416.902 259v-5.707h-.12l-2.22.816v.801l1.395-.476V259h.945zm3.918.078c.552 0 .998-.179 1.338-.537.34-.358.51-.826.51-1.404 0-.56-.145-1.017-.436-1.371-.29-.355-.686-.532-1.189-.532-.474 0-.863.16-1.168.48.06-.52.249-.922.566-1.206.318-.284.743-.43 1.274-.438h.117v-.785h-.098c-.911 0-1.61.283-2.095.848-.486.565-.729 1.346-.729 2.344v.324c0 .68.177 1.229.53 1.648.352.42.813.63 1.38.63zm-.007-.765c-.282 0-.51-.125-.688-.374-.177-.248-.266-.584-.266-1.005v-.29a1.027 1.027 0 01.954-.644c.276 0 .497.108.664.324.166.216.25.496.25.84s-.082.621-.247.832a.801.801 0 01-.668.316z"/></g><path stroke="#EA475B" stroke-dasharray="2 2" stroke-linecap="round" stroke-width=".5" d="M433 88l14 168"/><g fill="#000000"><path fill-opacity=".24" d="M646 80h4v16h-4z"/><path fill-opacity=".56" fill-rule="nonzero" d="M637.09 91v-1.266h.707v-.761h-.707v-3.66h-.98l-2.454 3.843.028.578h2.457V91h.949zm-.95-2.027h-1.488l1.418-2.25.07-.125v2.375z"/><path fill-opacity=".24" d="M646 104h8v16h-8z"/><path fill-opacity=".56" fill-rule="nonzero" d="M635.727 115.078c.562 0 1.013-.146 1.351-.44.339-.292.508-.689.508-1.189 0-.302-.08-.573-.24-.812a1.623 1.623 0 00-.686-.567 1.49 1.49 0 00.586-.513c.143-.218.215-.466.215-.745 0-.484-.156-.868-.469-1.152-.312-.284-.735-.426-1.27-.426-.53 0-.952.142-1.265.426-.312.284-.469.668-.469 1.152 0 .28.071.527.213.745.142.217.335.388.58.513-.291.13-.518.317-.68.559a1.445 1.445 0 00-.242.82c0 .498.17.893.51 1.188.34.294.792.441 1.358.441zm0-3.379c-.243 0-.435-.077-.577-.23-.142-.154-.212-.36-.212-.621 0-.263.07-.471.21-.623.141-.153.332-.229.575-.229.242 0 .435.08.578.24.143.16.215.364.215.612 0 .26-.071.467-.213.62-.142.154-.334.231-.576.231zm0 2.621c-.287 0-.512-.083-.674-.25-.163-.166-.244-.389-.244-.668 0-.284.082-.511.248-.683.165-.172.386-.258.662-.258s.498.087.666.26c.168.173.252.4.252.681 0 .29-.08.515-.24.676-.16.162-.384.242-.67.242z"/><path fill-opacity=".24" d="M646 128h16v16h-16z"/><path fill-opacity=".56" fill-rule="nonzero" d="M631.902 139v-5.707h-.12l-2.22.816v.801l1.395-.476V139h.945zm3.918.078c.552 0 .998-.179 1.338-.537.34-.358.51-.826.51-1.404 0-.56-.145-1.017-.436-1.371-.29-.355-.686-.532-1.189-.532-.474 0-.863.16-1.168.48.06-.52.249-.922.566-1.206.318-.284.743-.43 1.274-.438h.117v-.785h-.098c-.911 0-1.61.283-2.095.848-.486.565-.729 1.346-.729 2.344v.324c0 .68.177 1.229.53 1.648.352.42.813.63 1.38.63zm-.008-.766c-.28 0-.51-.124-.687-.373-.177-.248-.266-.584-.266-1.005v-.29a1.027 1.027 0 01.953-.644c.277 0 .498.108.665.324.166.216.25.496.25.84s-.082.621-.247.832a.801.801 0 01-.667.316z"/><path fill-opacity=".24" d="M646 152h24v16h-24z"/><path fill-opacity=".56" fill-rule="nonzero" d="M633.156 163v-.758h-2.64l1.39-1.488c.365-.396.627-.75.787-1.06.16-.312.24-.61.24-.893 0-.49-.159-.873-.478-1.15-.319-.278-.754-.417-1.307-.417-.382 0-.72.077-1.013.23-.293.154-.518.37-.676.647a1.86 1.86 0 00-.236.936h.949c0-.326.085-.582.254-.77.17-.187.407-.28.715-.28.257 0 .463.082.615.25.152.166.228.385.228.655 0 .206-.058.411-.173.616-.116.204-.311.459-.584.763l-1.895 2.067V163h3.824zm3.934 0v-1.266h.707v-.761h-.707v-3.66h-.98l-2.454 3.843.028.578h2.457V163h.949zm-.95-2.027h-1.488l1.418-2.25.07-.125v2.375z"/><path fill-opacity=".24" d="M646 176h32v16h-32z"/><path fill-opacity=".56" fill-rule="nonzero" d="M631.082 187.078c.57 0 1.03-.15 1.38-.453.351-.302.526-.708.526-1.219a1.38 1.38 0 00-.244-.82c-.163-.23-.4-.397-.713-.504.258-.115.468-.284.631-.51.163-.225.244-.465.244-.72 0-.508-.162-.905-.486-1.19-.324-.285-.77-.428-1.338-.428-.344 0-.654.067-.932.202a1.562 1.562 0 00-.648.56c-.155.24-.232.505-.232.797h.949c0-.237.082-.43.246-.576a.906.906 0 01.629-.22c.291 0 .508.074.65.224.142.15.213.36.213.63 0 .282-.085.497-.256.645-.17.149-.402.224-.693.227h-.578v.75h.558c.35 0 .612.08.79.242.176.161.265.392.265.691 0 .297-.085.524-.254.68-.17.156-.401.234-.695.234-.284 0-.51-.078-.678-.234a.794.794 0 01-.252-.61h-.95c0 .485.175.873.524 1.165.35.291.797.437 1.344.437zm6.621-.078v-.758h-2.64l1.39-1.488c.365-.396.627-.75.787-1.06.16-.312.24-.61.24-.893 0-.49-.159-.873-.478-1.15-.32-.278-.755-.417-1.307-.417-.383 0-.72.077-1.013.23-.293.154-.519.37-.676.647a1.86 1.86 0 00-.236.936h.949c0-.326.084-.582.254-.77.169-.187.407-.28.715-.28.257 0 .462.082.615.25.152.166.228.385.228.655 0 .206-.058.411-.174.616-.115.204-.31.459-.584.763l-1.894 2.067V187h3.824z"/><path fill-opacity=".24" d="M646 200h48v16h-48z"/><path fill-opacity=".56" fill-rule="nonzero" d="M631.531 211v-1.543h.676v-.867h-.676v-3.371h-1.058l-2.653 3.37v.868h2.7V211h1.011zm-.988-2.41h-1.797l1.797-2.266v2.266zm4.812 2.555c.652 0 1.178-.157 1.579-.47.4-.312.601-.722.601-1.23 0-.65-.411-1.191-1.234-1.62.65-.457.976-.94.976-1.45 0-.396-.16-.712-.482-.95-.322-.236-.75-.355-1.287-.355-.57 0-1.031.139-1.383.416a1.32 1.32 0 00-.527 1.088c0 .518.278.961.836 1.328-.771.44-1.157 1-1.157 1.68 0 .469.191.846.573 1.133.381.286.883.43 1.505.43zm.344-3.649c-.437-.237-.73-.426-.879-.568a.664.664 0 01-.222-.494c0-.19.075-.344.224-.461.15-.118.346-.176.588-.176.26 0 .47.067.63.201a.667.667 0 01.237.537c0 .341-.192.662-.578.961zm-.21 2.938c-.324 0-.59-.098-.8-.293a.975.975 0 01-.314-.746c0-.388.21-.757.629-1.106l.539.305c.372.21.623.386.752.527.129.14.193.31.193.508 0 .23-.095.42-.287.574-.191.154-.429.23-.713.23z"/><path fill-opacity=".24" d="M646 224h64v16h-64z"/><path fill-opacity=".56" fill-rule="nonzero" d="M631.273 235.078c.553 0 .998-.179 1.338-.537.34-.358.51-.826.51-1.404 0-.56-.145-1.017-.435-1.371-.29-.355-.687-.532-1.19-.532-.474 0-.863.16-1.168.48.06-.52.249-.922.567-1.206.317-.284.742-.43 1.273-.438h.117v-.785h-.097c-.912 0-1.61.283-2.096.848s-.729 1.346-.729 2.344v.324c0 .68.177 1.229.53 1.648.352.42.813.63 1.38.63zm-.007-.766c-.282 0-.51-.124-.688-.373-.177-.248-.265-.584-.265-1.005v-.29a1.027 1.027 0 01.953-.644c.276 0 .497.108.664.324.166.216.25.496.25.84s-.082.621-.246.832a.801.801 0 01-.668.316zm5.824.688v-1.266h.707v-.761h-.707v-3.66h-.98l-2.454 3.843.028.578h2.457V235h.949zm-.95-2.027h-1.488l1.418-2.25.07-.125v2.375z"/><path fill-opacity=".24" d="M646 248h128v16H646z"/><path fill-opacity=".56" fill-rule="nonzero" d="M627.355 259v-5.707h-.12l-2.22.816v.801l1.395-.476V259h.945zm5.801 0v-.758h-2.64l1.39-1.488c.365-.396.627-.75.787-1.06.16-.312.24-.61.24-.893 0-.49-.159-.873-.478-1.15-.319-.278-.754-.417-1.307-.417-.382 0-.72.077-1.013.23-.293.154-.518.37-.676.647a1.86 1.86 0 00-.236.936h.949c0-.326.085-.582.254-.77.17-.187.407-.28.715-.28.257 0 .463.082.615.25.152.166.228.385.228.655 0 .206-.058.411-.173.616-.116.204-.311.459-.584.763l-1.895 2.067V259h3.824zm2.57.078c.563 0 1.014-.146 1.352-.44.339-.292.508-.689.508-1.189 0-.302-.08-.573-.24-.812a1.623 1.623 0 00-.686-.567 1.49 1.49 0 00.586-.513c.143-.218.215-.466.215-.744 0-.485-.156-.869-.469-1.153-.312-.284-.735-.426-1.27-.426-.53 0-.952.142-1.265.426-.312.284-.469.668-.469 1.153 0 .278.071.526.213.744.142.217.335.388.58.513-.291.13-.518.317-.68.559a1.445 1.445 0 00-.242.82c0 .498.17.893.51 1.188.34.294.792.441 1.358.441zm0-3.379c-.242 0-.434-.077-.576-.23-.142-.154-.212-.36-.212-.621 0-.263.07-.471.21-.623.141-.153.332-.229.575-.229.242 0 .435.08.578.24.143.16.215.364.215.612 0 .26-.071.467-.213.62-.142.154-.334.231-.576.231zm0 2.621c-.286 0-.51-.083-.673-.25-.163-.166-.244-.389-.244-.668 0-.284.082-.511.248-.683.165-.172.386-.258.662-.258s.498.087.666.26c.168.173.252.4.252.681 0 .29-.08.515-.24.676-.16.162-.384.242-.67.242z"/></g><path stroke="#EA475B" stroke-dasharray="2 2" stroke-linecap="round" stroke-width=".5" d="M650 88c16.68 109.22 58.012 165.22 124 168"/><g fill="#000000" transform="translate(147 147)"><rect width="1" height="48" fill-opacity=".56" rx=".5"/><rect width="1" height="11.429" x="4.5" y="5.714" fill-opacity=".24" rx=".5"/><rect width="1" height="28.571" x="9" fill-opacity=".56" rx=".5"/><rect width="1" height="11.429" x="13.5" y="5.714" fill-opacity=".24" rx=".5"/><rect width="1" height="48" x="18" fill-opacity=".56" rx=".5"/><rect width="1" height="11.429" x="22.5" y="5.714" fill-opacity=".24" rx=".5"/><rect width="1" height="28.571" x="27" fill-opacity=".56" rx=".5"/><rect width="1" height="11.429" x="31.5" y="5.714" fill-opacity=".24" rx=".5"/><rect width="1" height="48" x="36" fill-opacity=".56" rx=".5"/><rect width="1" height="11.429" x="40.5" y="5.714" fill-opacity=".24" rx=".5"/><rect width="1" height="28.571" x="45" fill-opacity=".56" rx=".5"/><rect width="1" height="11.429" x="49.5" y="5.714" fill-opacity=".24" rx=".5"/><rect width="1" height="48" x="54" fill-opacity=".56" rx=".5"/><rect width="1" height="11.429" x="58.5" y="5.714" fill-opacity=".24" rx=".5"/><rect width="1" height="28.571" x="63" fill-opacity=".56" rx=".5"/><rect width="1" height="11.429" x="67.5" y="5.714" fill-opacity=".24" rx=".5"/><rect width="1" height="48" x="72" fill-opacity=".56" rx=".5"/><rect width="1" height="11.429" x="76.5" y="5.714" fill-opacity=".24" rx=".5"/><rect width="1" height="28.571" x="81" fill-opacity=".56" rx=".5"/><rect width="1" height="11.429" x="85.5" y="5.714" fill-opacity=".24" rx=".5"/><rect width="1" height="48" x="90" fill-opacity=".56" rx=".5"/><rect width="1" height="11.429" x="94.5" y="5.714" fill-opacity=".24" rx=".5"/><rect width="1" height="28.571" x="99" fill-opacity=".56" rx=".5"/><rect width="1" height="28.571" x="128.5" fill-opacity=".56" rx=".5"/><rect width="1" height="11.429" x="103.5" y="5.714" fill-opacity=".24" rx=".5"/><rect width="1" height="48" x="108" fill-opacity=".56" rx=".5"/></g><path fill="#EA475B" fill-rule="nonzero" d="M156 189.078c.563 0 1.013-.146 1.352-.44.338-.292.507-.689.507-1.189 0-.302-.08-.573-.24-.812a1.623 1.623 0 00-.685-.567 1.49 1.49 0 00.586-.513c.143-.218.214-.466.214-.744 0-.485-.156-.869-.468-1.153-.313-.284-.736-.426-1.27-.426-.531 0-.953.142-1.266.426-.312.284-.468.668-.468 1.153 0 .278.07.526.213.744.142.217.335.388.58.513-.292.13-.519.317-.68.559a1.445 1.445 0 00-.242.82c0 .498.17.893.51 1.188.34.294.792.441 1.357.441zm0-3.379c-.242 0-.434-.077-.576-.23-.142-.154-.213-.36-.213-.621 0-.263.07-.471.21-.623.142-.153.333-.229.575-.229.242 0 .435.08.578.24.143.16.215.364.215.612 0 .26-.07.467-.213.62-.142.154-.334.231-.576.231zm0 2.621c-.286 0-.511-.083-.674-.25-.163-.166-.244-.389-.244-.668 0-.284.083-.511.248-.683.165-.172.386-.258.662-.258s.498.087.666.26c.168.173.252.4.252.681 0 .29-.08.515-.24.676-.16.162-.384.242-.67.242zm-8.996 20.758c.625 0 1.09-.208 1.396-.623.306-.415.46-1.032.46-1.85v-.984c-.008-.794-.165-1.39-.471-1.789-.306-.398-.77-.598-1.393-.598-.628 0-1.094.205-1.4.614-.306.409-.46 1.022-.46 1.84v.984c.009.794.168 1.394.48 1.799.31.405.773.607 1.388.607zm0-.758c-.318 0-.55-.13-.7-.39-.148-.26-.222-.657-.222-1.188v-1.289c.008-.5.085-.868.23-1.103.146-.236.374-.354.684-.354.318 0 .55.124.695.373.146.249.22.64.22 1.174v1.285c-.009.513-.085.89-.231 1.131-.146.24-.371.361-.676.361zm27.7-19.32v-.758h-2.642l1.391-1.488c.365-.396.627-.75.787-1.06.16-.312.24-.61.24-.893 0-.49-.159-.873-.478-1.15-.32-.278-.755-.417-1.307-.417-.383 0-.72.077-1.013.23-.293.154-.519.37-.676.647a1.86 1.86 0 00-.236.936h.949c0-.326.084-.582.254-.77.169-.187.407-.28.714-.28.258 0 .463.082.616.25.152.166.228.385.228.655 0 .206-.058.411-.174.616-.115.204-.31.459-.584.763l-1.894 2.067V189h3.824zm3.933 0v-1.266h.707v-.761h-.707v-3.66h-.98l-2.454 3.843.027.578h2.458V189h.949zm-.95-2.027H176.2l1.418-2.25.07-.125v2.375zM164.45 209v-5.707h-.12l-2.22.816v.801l1.395-.476V209h.945zm3.918.078c.552 0 .998-.179 1.338-.537.34-.358.51-.826.51-1.404 0-.56-.145-1.017-.436-1.371-.29-.355-.687-.532-1.19-.532-.473 0-.862.16-1.167.48.06-.52.249-.922.566-1.206.318-.284.742-.43 1.274-.438h.117v-.785h-.098c-.911 0-1.61.283-2.095.848-.486.565-.729 1.346-.729 2.344v.324c0 .68.176 1.229.53 1.648.352.42.812.63 1.38.63zm-.008-.766c-.28 0-.51-.124-.687-.373-.177-.248-.266-.584-.266-1.005v-.29a1.027 1.027 0 01.953-.644c.276 0 .498.108.664.324.167.216.25.496.25.84s-.082.621-.246.832a.801.801 0 01-.668.317zM191.09 189v-1.266h.708v-.761h-.707v-3.66h-.98l-2.454 3.843.028.578h2.457V189h.949zm-.948-2.027h-1.489l1.418-2.25.07-.125v2.375zm4.136 2.105c.625 0 1.09-.208 1.397-.623.306-.415.459-1.032.459-1.85v-.984c-.008-.794-.165-1.39-.47-1.789-.307-.398-.771-.598-1.393-.598-.628 0-1.095.205-1.4.614-.307.409-.46 1.022-.46 1.84v.984c.008.794.167 1.394.479 1.799.31.405.774.607 1.388.607zm0-.758c-.317 0-.55-.13-.699-.39-.148-.26-.223-.657-.223-1.188v-1.289c.008-.5.085-.868.23-1.103.147-.236.375-.354.685-.354.317 0 .549.124.695.373.146.249.219.64.219 1.174v1.285c-.008.513-.085.89-.23 1.131-.147.24-.372.361-.677.361zm-13.648 20.758c.57 0 1.03-.15 1.38-.453.351-.302.526-.708.526-1.219a1.38 1.38 0 00-.244-.82c-.163-.23-.4-.397-.713-.504.258-.115.468-.284.631-.51.163-.225.244-.465.244-.72 0-.508-.162-.905-.486-1.19-.324-.285-.77-.428-1.338-.428-.344 0-.654.067-.932.202a1.562 1.562 0 00-.648.56c-.155.24-.233.505-.233.797h.95c0-.237.082-.43.246-.576a.906.906 0 01.629-.22c.291 0 .508.074.65.224.142.15.213.36.213.63 0 .282-.085.497-.256.645-.17.149-.402.224-.693.227h-.578v.75h.558c.35 0 .612.08.79.242.176.161.265.392.265.691 0 .297-.085.524-.254.68-.17.156-.401.234-.695.234-.284 0-.51-.078-.678-.234a.794.794 0 01-.252-.61h-.95c0 .485.175.873.524 1.165.35.291.797.437 1.344.437zm6.621-.078v-.758h-2.64l1.39-1.488c.365-.396.627-.75.787-1.06.16-.312.24-.61.24-.893 0-.49-.16-.873-.478-1.15-.32-.278-.755-.417-1.307-.417-.383 0-.72.077-1.013.23-.293.154-.519.37-.676.647a1.86 1.86 0 00-.237.936h.95c0-.326.084-.582.254-.77.169-.187.407-.28.714-.28.258 0 .463.082.616.25.152.166.228.385.228.655 0 .206-.058.411-.174.616-.116.204-.31.459-.584.763l-1.894 2.067V209h3.824zm20.559-19.922c.58 0 1.037-.171 1.37-.514.334-.342.5-.802.5-1.38 0-.586-.15-1.052-.45-1.399-.301-.346-.722-.52-1.264-.52-.33 0-.628.076-.89.227l.155-1.36h2.266v-.82h-3.055l-.308 2.868.758.187c.14-.133.27-.222.39-.267.12-.046.266-.069.438-.069.315 0 .562.101.742.303.18.202.27.476.27.822 0 .36-.082.643-.245.852-.162.208-.39.312-.681.312-.26 0-.472-.073-.633-.22-.162-.148-.26-.36-.297-.635h-.918c.029.484.214.874.557 1.17.342.295.774.443 1.295.443zm4.558 0c.552 0 .998-.179 1.338-.537.34-.358.51-.826.51-1.404 0-.56-.145-1.017-.436-1.371-.29-.355-.687-.532-1.19-.532-.473 0-.862.16-1.167.48.06-.52.249-.922.566-1.206.318-.284.742-.43 1.274-.438h.117v-.785h-.098c-.911 0-1.61.283-2.095.848-.486.565-.729 1.346-.729 2.344v.324c0 .68.176 1.229.53 1.648.352.42.812.63 1.38.63zm-.008-.766c-.28 0-.51-.124-.687-.373-.177-.248-.266-.584-.266-1.005v-.29a1.027 1.027 0 01.953-.644c.276 0 .498.108.664.324.167.216.25.496.25.84s-.082.621-.246.832a.801.801 0 01-.668.316zM200.09 209v-1.266h.708v-.761h-.707v-3.66h-.98l-2.454 3.843.028.578h2.457V209h.949zm-.948-2.027h-1.489l1.418-2.25.07-.125v2.375zm4.132 2.105c.563 0 1.013-.146 1.352-.44.339-.292.508-.689.508-1.189 0-.302-.08-.573-.24-.812a1.623 1.623 0 00-.686-.567 1.49 1.49 0 00.586-.513c.143-.218.215-.466.215-.745 0-.484-.156-.868-.469-1.152-.312-.284-.736-.426-1.27-.426-.53 0-.953.142-1.265.426-.313.284-.469.668-.469 1.152 0 .28.071.527.213.745.142.217.335.388.58.513-.292.13-.518.317-.68.559a1.445 1.445 0 00-.242.82c0 .498.17.893.51 1.188.34.294.792.441 1.357.441zm0-3.379c-.242 0-.434-.077-.576-.23-.142-.154-.213-.36-.213-.621 0-.263.07-.471.211-.623.14-.153.332-.229.575-.229.242 0 .434.08.578.24.143.16.215.364.215.612 0 .26-.071.467-.213.62-.142.154-.334.231-.577.231zm0 2.621c-.286 0-.51-.083-.673-.25-.163-.166-.245-.389-.245-.668 0-.284.083-.511.249-.683.165-.172.386-.258.662-.258s.498.087.666.26c.168.173.252.4.252.681 0 .29-.08.515-.24.676-.16.162-.384.242-.67.242zM225.391 189l2.273-5.16v-.528h-3.941v.762h2.941l-2.27 4.926h.997zm6.859 0v-.758h-2.64l1.39-1.488c.365-.396.627-.75.787-1.06.16-.312.24-.61.24-.893 0-.49-.16-.873-.478-1.15-.32-.278-.755-.417-1.307-.417-.383 0-.72.077-1.013.23-.293.154-.519.37-.676.647a1.86 1.86 0 00-.237.936h.95c0-.326.084-.582.254-.77.169-.187.407-.28.714-.28.258 0 .463.082.616.25.152.166.228.385.228.655 0 .206-.058.411-.174.616-.116.204-.31.459-.584.763l-1.894 2.067V189h3.824zm-15.43 20.078c.552 0 .998-.179 1.338-.537.34-.358.51-.826.51-1.404 0-.56-.145-1.017-.436-1.371-.29-.355-.686-.532-1.189-.532-.474 0-.863.16-1.168.48.06-.52.249-.922.566-1.206.318-.284.743-.43 1.274-.438h.117v-.785h-.098c-.911 0-1.61.283-2.095.848-.486.565-.729 1.346-.729 2.344v.324c0 .68.177 1.229.53 1.648.352.42.813.63 1.38.63zm-.007-.766c-.282 0-.51-.124-.688-.373-.177-.248-.266-.584-.266-1.005v-.29a1.027 1.027 0 01.953-.644c.277 0 .498.108.665.324.166.216.25.496.25.84s-.082.621-.247.832a.801.801 0 01-.668.317zm5.824.688v-1.266h.707v-.761h-.707v-3.66h-.98l-2.454 3.843.027.578h2.457V209h.95zm-.95-2.027H220.2l1.418-2.25.07-.125v2.375zm22.04-17.895c.562 0 1.013-.146 1.351-.44.339-.292.508-.689.508-1.189 0-.302-.08-.573-.24-.812a1.623 1.623 0 00-.686-.567 1.49 1.49 0 00.586-.513c.143-.218.215-.466.215-.744 0-.485-.156-.869-.469-1.153-.312-.284-.735-.426-1.27-.426-.53 0-.952.142-1.265.426-.312.284-.469.668-.469 1.153 0 .278.071.526.213.744.142.217.335.388.58.513-.291.13-.518.317-.68.559a1.445 1.445 0 00-.242.82c0 .498.17.893.51 1.188.34.294.792.441 1.358.441zm0-3.379c-.243 0-.435-.077-.577-.23-.142-.154-.213-.36-.213-.621 0-.263.07-.471.211-.623.141-.153.332-.229.575-.229.242 0 .435.08.578.24.143.16.215.364.215.612 0 .26-.071.467-.213.62-.142.154-.334.231-.576.231zm0 2.621c-.287 0-.512-.083-.674-.25-.163-.166-.244-.389-.244-.668 0-.284.082-.511.248-.683.165-.172.386-.258.662-.258s.498.087.666.26c.168.173.252.4.252.681 0 .29-.08.515-.24.676-.16.162-.384.242-.67.242zm4.546.758c.563 0 1.013-.146 1.352-.44.339-.292.508-.689.508-1.189 0-.302-.08-.573-.24-.812a1.623 1.623 0 00-.686-.567 1.49 1.49 0 00.586-.513c.143-.218.215-.466.215-.744 0-.485-.156-.869-.469-1.153-.312-.284-.736-.426-1.27-.426-.53 0-.953.142-1.265.426-.313.284-.469.668-.469 1.153 0 .278.071.526.213.744.142.217.335.388.58.513-.292.13-.518.317-.68.559a1.445 1.445 0 00-.242.82c0 .498.17.893.51 1.188.34.294.792.441 1.357.441zm0-3.379c-.242 0-.434-.077-.576-.23-.142-.154-.213-.36-.213-.621 0-.263.07-.471.211-.623.14-.153.332-.229.575-.229.242 0 .434.08.578.24.143.16.214.364.214.612 0 .26-.07.467-.212.62-.142.154-.334.231-.577.231zm0 2.621c-.286 0-.51-.083-.673-.25-.163-.166-.245-.389-.245-.668 0-.284.083-.511.249-.683.165-.172.386-.258.662-.258s.498.087.666.26c.168.173.252.4.252.681 0 .29-.08.515-.24.676-.16.162-.384.242-.67.242zm23.903.68v-5.707h-.121l-2.22.816v.801l1.395-.476V189h.946zm5.8 0v-.758h-2.64l1.39-1.488c.365-.396.628-.75.788-1.06.16-.312.24-.61.24-.893 0-.49-.16-.873-.479-1.15-.319-.278-.754-.417-1.306-.417-.383 0-.721.077-1.014.23-.293.154-.518.37-.676.647a1.86 1.86 0 00-.236.936h.95c0-.326.084-.582.253-.77.17-.187.408-.28.715-.28.258 0 .463.082.615.25.153.166.229.385.229.655 0 .206-.058.411-.174.616-.116.204-.31.459-.584.763l-1.895 2.067V189h3.825zm2.57.078c.563 0 1.014-.146 1.352-.44.339-.292.508-.689.508-1.189 0-.302-.08-.573-.24-.812a1.623 1.623 0 00-.686-.567 1.49 1.49 0 00.586-.513c.144-.218.215-.466.215-.744 0-.485-.156-.869-.468-1.153-.313-.284-.736-.426-1.27-.426-.531 0-.953.142-1.266.426-.312.284-.468.668-.468 1.153 0 .278.07.526.212.744.142.217.336.388.58.513-.291.13-.518.317-.68.559a1.445 1.445 0 00-.241.82c0 .498.17.893.51 1.188.34.294.792.441 1.357.441zm0-3.379c-.241 0-.433-.077-.575-.23-.142-.154-.213-.36-.213-.621 0-.263.07-.471.21-.623.141-.153.333-.229.575-.229.242 0 .435.08.578.24.143.16.215.364.215.612 0 .26-.071.467-.213.62-.142.154-.334.231-.576.231zm0 2.621c-.286 0-.51-.083-.673-.25-.163-.166-.244-.389-.244-.668 0-.284.083-.511.248-.683.165-.172.386-.258.662-.258s.498.087.666.26c.168.173.252.4.252.681 0 .29-.08.515-.24.676-.16.162-.384.242-.67.242zm-45.82 20.758c.563 0 1.014-.146 1.352-.44.339-.292.508-.689.508-1.189 0-.302-.08-.573-.24-.812a1.623 1.623 0 00-.686-.567 1.49 1.49 0 00.586-.513c.143-.218.215-.466.215-.745 0-.484-.156-.868-.469-1.152-.312-.284-.735-.426-1.27-.426-.53 0-.952.142-1.265.426-.312.284-.469.668-.469 1.152 0 .28.071.527.213.745.142.217.335.388.58.513-.291.13-.518.317-.68.559a1.445 1.445 0 00-.242.82c0 .498.17.893.51 1.188.34.294.792.441 1.358.441zm0-3.379c-.242 0-.434-.077-.576-.23-.142-.154-.212-.36-.212-.621 0-.263.07-.471.21-.623.141-.153.332-.229.575-.229.242 0 .435.08.578.24.143.16.215.364.215.612 0 .26-.071.467-.213.62-.142.154-.334.231-.576.231zm0 2.621c-.286 0-.51-.083-.673-.25-.163-.166-.244-.389-.244-.668 0-.284.082-.511.248-.683.165-.172.386-.258.662-.258s.498.087.666.26c.168.173.252.4.252.681 0 .29-.08.515-.24.676-.16.162-.384.242-.67.242zm4.551.758c.625 0 1.09-.208 1.397-.623.306-.415.459-1.032.459-1.85v-.984c-.008-.794-.165-1.39-.47-1.789-.307-.398-.771-.598-1.393-.598-.628 0-1.095.205-1.4.614-.307.409-.46 1.022-.46 1.84v.984c.008.794.167 1.394.479 1.799.31.405.774.607 1.388.607zm0-.758c-.317 0-.55-.13-.699-.39-.148-.26-.223-.657-.223-1.188v-1.289c.008-.5.085-.868.23-1.103.147-.236.375-.354.685-.354.317 0 .549.124.695.373.146.249.219.64.219 1.174v1.285c-.008.513-.085.89-.23 1.131-.147.24-.372.361-.677.361zm12.477.703c.92-.007 1.61-.28 2.074-.82.464-.539.695-1.321.695-2.348v-.265c0-.716-.168-1.288-.503-1.715-.336-.427-.79-.64-1.364-.64-.367 0-.69.084-.968.253a1.69 1.69 0 00-.645.711 2.264 2.264 0 00-.227 1.02c0 .57.149 1.03.446 1.38.297.35.695.526 1.195.526.425 0 .796-.168 1.113-.504-.036.547-.204.951-.504 1.213-.3.262-.729.396-1.289.404h-.136v.785h.113zm.902-2.64a.78.78 0 01-.656-.328c-.164-.22-.246-.507-.246-.864 0-.343.081-.628.244-.853a.767.767 0 01.654-.338c.274 0 .496.128.668.383.172.255.258.592.258 1.012v.37c-.091.193-.22.344-.387.454a.958.958 0 01-.535.164zm4.711 2.695c.552 0 .998-.179 1.338-.537.34-.358.51-.826.51-1.404 0-.56-.145-1.017-.436-1.371-.29-.355-.687-.532-1.19-.532-.473 0-.862.16-1.167.48.06-.52.249-.922.566-1.206.318-.284.742-.43 1.274-.438h.117v-.785h-.098c-.911 0-1.61.283-2.095.848-.486.565-.729 1.346-.729 2.344v.324c0 .68.176 1.229.53 1.648.352.42.812.63 1.38.63zm-.008-.766c-.28 0-.51-.124-.687-.373-.177-.248-.266-.584-.266-1.005v-.29a1.027 1.027 0 01.953-.644c.276 0 .498.108.664.324.167.216.25.496.25.84s-.082.621-.246.832a.801.801 0 01-.668.317z"/><path fill="#000000" fill-opacity=".87" fill-rule="nonzero" d="M101.012 183.469c3.547 0 6.351-.88 8.414-2.637 2.062-1.758 3.094-4.152 3.094-7.184 0-1.89-.485-3.535-1.454-4.933-.968-1.399-2.28-2.496-3.937-3.293 1.453-.766 2.594-1.79 3.422-3.07.828-1.282 1.242-2.75 1.242-4.407 0-2.937-.973-5.261-2.918-6.972-1.945-1.711-4.574-2.567-7.887-2.567-3.328 0-5.96.864-7.898 2.59-1.938 1.727-2.906 4.043-2.906 6.95 0 1.656.41 3.124 1.23 4.406.82 1.28 1.957 2.304 3.41 3.07-1.64.781-2.945 1.875-3.914 3.281-.969 1.406-1.453 3.055-1.453 4.945 0 3.016 1.04 5.407 3.117 7.172 2.078 1.766 4.89 2.649 8.438 2.649zm0-20.672c-1.282 0-2.274-.414-2.977-1.242-.703-.828-1.055-1.922-1.055-3.282 0-1.375.352-2.453 1.055-3.234.703-.781 1.688-1.172 2.953-1.172 1.282 0 2.274.403 2.977 1.207.703.805 1.055 1.871 1.055 3.2 0 1.359-.348 2.453-1.043 3.28-.696.829-1.684 1.243-2.965 1.243zm0 15.21c-1.5 0-2.672-.445-3.516-1.335-.844-.89-1.266-2.063-1.266-3.516 0-1.5.43-2.691 1.29-3.574.859-.883 2.007-1.324 3.445-1.324 1.453 0 2.61.445 3.469 1.336.859.89 1.289 2.078 1.289 3.562 0 1.516-.418 2.703-1.254 3.563-.836.86-1.989 1.289-3.457 1.289zm17.789 5.15c.885 0 1.61-.352 2.172-1.055l.109.898h2.04v-12h-2.267v4.313c-.536-.615-1.216-.922-2.039-.922-1.026 0-1.834.39-2.425 1.172-.592.78-.887 1.83-.887 3.148 0 1.396.3 2.486.902 3.27.602.783 1.4 1.175 2.395 1.175zm.578-1.829c-.526 0-.927-.21-1.203-.633-.276-.422-.414-1.028-.414-1.82 0-1.766.544-2.648 1.633-2.648.692 0 1.18.294 1.46.882v3.336c-.286.589-.778.883-1.476.883zm7.75 4.922v-3.984c.526.593 1.216.89 2.07.89 1.005 0 1.804-.392 2.395-1.176.59-.783.886-1.826.886-3.128v-.118c0-1.354-.289-2.416-.867-3.187-.578-.771-1.388-1.156-2.43-1.156-.88 0-1.593.328-2.14.984l-.078-.828h-2.094v11.703h2.258zm1.476-4.914c-.708 0-1.2-.279-1.476-.836v-3.46c.266-.543.753-.813 1.46-.813.532 0 .937.213 1.216.64.278.427.418 1.034.418 1.82 0 1.766-.54 2.649-1.618 2.649z"/><path fill="#000000" fill-opacity=".56" fill-rule="nonzero" d="M90.697 293.117c.903 0 1.623-.208 2.162-.624.54-.416.809-.97.809-1.661 0-.434-.097-.81-.29-1.13-.193-.321-.49-.601-.89-.842-.401-.24-.956-.46-1.665-.659-.709-.199-1.21-.419-1.506-.659-.295-.24-.442-.534-.442-.882 0-.433.155-.772.466-1.016.31-.245.743-.367 1.298-.367.597 0 1.06.148 1.388.443.328.295.493.7.493 1.216h1.13c0-.473-.126-.909-.378-1.307a2.577 2.577 0 00-1.066-.938c-.459-.226-.981-.34-1.567-.34-.86 0-1.558.22-2.095.66-.537.44-.806.995-.806 1.667 0 .593.22 1.093.66 1.497.439.404 1.141.745 2.106 1.022.77.223 1.3.449 1.594.677.293.229.44.552.44.97 0 .418-.16.748-.475.99-.317.242-.772.363-1.366.363-.636 0-1.145-.15-1.526-.448-.381-.299-.571-.706-.571-1.222h-1.131c0 .496.137.94.413 1.33.275.391.667.699 1.175.923a4.01 4.01 0 001.64.337zm5.326 2.32v-3.052c.442.488 1.047.732 1.817.732.754 0 1.351-.295 1.793-.885.441-.59.662-1.367.662-2.332v-.1c0-1.023-.222-1.821-.665-2.396-.443-.574-1.046-.861-1.808-.861-.785 0-1.398.273-1.84.82l-.052-.703h-.99v8.778h1.083zm1.489-3.205c-.668 0-1.164-.289-1.489-.867v-3.03c.329-.581.82-.872 1.477-.872.531 0 .95.207 1.254.621.305.414.457.978.457 1.693 0 .813-.153 1.425-.46 1.837-.307.412-.72.618-1.24.618zm6.117.885c.7 0 1.3-.262 1.805-.785.039.32.09.543.152.668h1.137v-.094c-.149-.344-.223-.806-.223-1.388V288.6c-.016-.641-.23-1.144-.645-1.51-.414-.364-.986-.547-1.716-.547-.461 0-.884.086-1.269.258a2.3 2.3 0 00-.914.7c-.225.295-.337.6-.337.917h1.09c0-.277.13-.514.393-.709.261-.195.585-.293.972-.293.442 0 .776.112 1.002.337.227.225.34.526.34.905v.498h-1.055c-.91 0-1.616.183-2.118.548-.502.365-.753.878-.753 1.538 0 .543.2.991.6 1.345.401.353.914.53 1.539.53zm.158-.943c-.355 0-.646-.096-.873-.287-.227-.192-.34-.457-.34-.797 0-.777.664-1.166 1.992-1.166h.85v1.3c-.137.282-.357.51-.662.686a1.905 1.905 0 01-.967.264zm6.955.943c.43 0 .837-.097 1.222-.293a2.47 2.47 0 00.923-.785c.23-.328.355-.674.375-1.037h-1.026a1.237 1.237 0 01-.48.879c-.29.234-.627.351-1.014.351-.558 0-.988-.197-1.289-.591-.3-.395-.451-.957-.451-1.688v-.205c0-.75.151-1.323.454-1.72.303-.396.73-.594 1.28-.594.41 0 .755.131 1.035.395.279.264.434.6.465 1.01h1.026c-.032-.679-.283-1.232-.753-1.657-.47-.426-1.062-.639-1.773-.639-.578 0-1.079.133-1.503.398a2.588 2.588 0 00-.975 1.12c-.227.48-.34 1.029-.34 1.646v.182c0 1 .255 1.788.765 2.364.51.576 1.196.864 2.06.864zm4.383-7.523c.21 0 .371-.059.48-.176a.62.62 0 00.165-.44.64.64 0 00-.165-.445c-.109-.12-.27-.181-.48-.181-.21 0-.37.06-.478.181a.647.647 0 00-.16.446c0 .175.053.322.16.439.108.117.267.176.478.176zm.533 7.406v-6.34h-1.084V293h1.084zm2.819 0v-4.518a1.91 1.91 0 01.62-.738c.266-.187.575-.281.926-.281.434 0 .753.11.958.328.206.219.31.557.314 1.014V293h1.084v-4.19c-.012-1.511-.688-2.267-2.027-2.267-.782 0-1.415.305-1.899.914l-.035-.797h-1.025V293h1.084zm7.945 2.496c.82 0 1.474-.236 1.96-.709s.73-1.119.73-1.94v-6.187h-.99l-.054.703c-.433-.547-1.037-.82-1.81-.82-.754 0-1.36.292-1.817.876-.457.584-.685 1.37-.685 2.358 0 1.032.23 1.846.688 2.444.46.597 1.06.896 1.802.896.75 0 1.342-.25 1.775-.75v.545c0 .54-.147.957-.442 1.254-.295.297-.706.445-1.233.445-.672 0-1.24-.287-1.705-.861l-.563.65c.23.34.565.608 1.002.803a3.26 3.26 0 001.342.293zm.094-3.299c-.528 0-.938-.204-1.23-.612-.294-.408-.44-.97-.44-1.685 0-.804.148-1.412.445-1.822.297-.41.709-.615 1.236-.615.664 0 1.162.303 1.494.908v2.895c-.32.62-.822.931-1.505.931zm6.562.92c.723 0 1.31-.17 1.764-.513.453-.341.68-.795.68-1.362 0-.34-.082-.628-.244-.864-.162-.236-.41-.439-.747-.607-.336-.167-.774-.312-1.315-.433-.541-.121-.915-.248-1.122-.381a.658.658 0 01-.31-.592c0-.277.11-.502.333-.674.223-.171.531-.257.926-.257.383 0 .7.107.952.322.252.215.378.47.378.767h1.09c0-.578-.224-1.052-.671-1.423-.447-.371-1.03-.557-1.749-.557-.684 0-1.245.18-1.685.539-.44.36-.659.799-.659 1.318 0 .313.077.582.232.809.154.227.392.422.715.586.322.164.757.305 1.306.422.549.117.934.257 1.154.419.221.162.331.39.331.682 0 .278-.124.5-.372.665-.248.166-.577.25-.987.25-.445 0-.804-.107-1.075-.32a1.122 1.122 0 01-.437-.864h-1.084c0 .375.11.723.331 1.046.221.322.527.573.917.753.391.18.84.27 1.348.27zm8.783 0c.7 0 1.301-.262 1.805-.785.04.32.09.543.152.668h1.137v-.094c-.148-.343-.223-.806-.223-1.388V288.6c-.015-.641-.23-1.144-.644-1.51-.414-.364-.986-.547-1.717-.547-.46 0-.884.086-1.268.258a2.3 2.3 0 00-.915.7c-.224.295-.336.6-.336.917h1.09c0-.277.13-.514.392-.709.262-.195.586-.293.973-.293.441 0 .775.112 1.002.337.226.225.34.526.34.905v.498h-1.055c-.91 0-1.616.183-2.118.548-.502.365-.753.878-.753 1.538 0 .543.2.991.6 1.345.4.353.913.53 1.538.53zm.159-.943c-.356 0-.647-.096-.874-.287-.226-.192-.34-.457-.34-.797 0-.777.665-1.166 1.993-1.166h.85v1.3c-.137.282-.358.51-.663.686a1.905 1.905 0 01-.966.264zm5.496.826v-4.5c.254-.605.736-.908 1.447-.908.191 0 .369.013.533.04v-1.007c-.11-.055-.27-.082-.48-.082-.653 0-1.157.283-1.512.85l-.018-.733h-1.054V293h1.084zm5.607.117c1.063 0 1.86-.408 2.39-1.224l-.661-.516c-.2.258-.432.465-.698.621-.265.156-.59.234-.972.234-.54 0-.984-.192-1.333-.577-.35-.384-.533-.89-.548-1.514h4.295v-.452c0-1.011-.229-1.789-.686-2.332-.457-.543-1.097-.814-1.922-.814-.504 0-.971.14-1.403.419-.432.28-.768.666-1.008 1.16-.24.494-.36 1.056-.36 1.685v.199c0 .945.27 1.7.808 2.265.54.564 1.239.846 2.098.846zm1.389-3.867h-3.176c.07-.574.254-1.02.55-1.339a1.446 1.446 0 011.102-.477c.453 0 .813.151 1.078.454.266.302.414.73.446 1.28v.082zm7.64 3.867c.723 0 1.31-.17 1.764-.513.453-.341.68-.795.68-1.362 0-.34-.081-.628-.243-.864-.163-.236-.412-.439-.748-.607-.335-.167-.774-.312-1.315-.433-.541-.121-.915-.248-1.122-.381a.658.658 0 01-.31-.592c0-.277.11-.502.333-.674.223-.171.532-.257.926-.257.383 0 .7.107.952.322.252.215.378.47.378.767h1.09c0-.578-.224-1.052-.67-1.423-.448-.371-1.031-.557-1.75-.557-.683 0-1.245.18-1.684.539-.44.36-.66.799-.66 1.318 0 .313.078.582.232.809.154.227.392.422.715.586.322.164.758.305 1.306.422.55.117.934.257 1.155.419.22.162.33.39.33.682 0 .278-.123.5-.371.665-.248.166-.577.25-.988.25-.445 0-.803-.107-1.075-.32a1.122 1.122 0 01-.436-.864h-1.084c0 .375.11.723.33 1.046.221.322.527.573.918.753.39.18.84.27 1.347.27zm5.707 0c.27 0 .547-.039.832-.117v-.879c-.218.047-.39.07-.515.07-.254 0-.434-.063-.54-.19-.105-.127-.157-.317-.157-.571v-3.932h1.183v-.838h-1.183v-1.535h-1.084v1.535h-1.155v.838h1.155v3.932c0 .539.123.955.369 1.248.246.293.611.44 1.095.44zm3.153-.117v-4.5c.254-.605.736-.908 1.447-.908.191 0 .37.013.533.04v-1.007c-.11-.055-.27-.082-.48-.082-.653 0-1.157.283-1.512.85l-.018-.733h-1.054V293h1.084zm5.033.117c.816 0 1.435-.248 1.857-.744l.024.627h1.031v-6.34h-1.084v4.611c-.273.618-.824.926-1.652.926-.782 0-1.172-.48-1.172-1.441v-4.096h-1.084v4.125c.004.77.182 1.35.536 1.743.353.393.868.59 1.544.59zm7.101 0c.43 0 .837-.097 1.222-.293a2.47 2.47 0 00.923-.785c.23-.328.355-.674.375-1.037h-1.025a1.237 1.237 0 01-.48.879c-.29.234-.628.351-1.015.351-.558 0-.988-.197-1.289-.591-.3-.395-.45-.957-.45-1.688v-.205c0-.75.15-1.323.453-1.72.303-.396.73-.594 1.28-.594.41 0 .756.131 1.035.395.28.264.434.6.466 1.01h1.025c-.031-.679-.282-1.232-.753-1.657-.47-.426-1.061-.639-1.772-.639-.578 0-1.08.133-1.503.398a2.588 2.588 0 00-.976 1.12c-.226.48-.34 1.029-.34 1.646v.182c0 1 .255 1.788.765 2.364.51.576 1.196.864 2.06.864zm5.59 0c.27 0 .547-.039.832-.117v-.879c-.218.047-.39.07-.515.07-.254 0-.434-.063-.54-.19-.105-.127-.158-.317-.158-.571v-3.932h1.184v-.838h-1.184v-1.535h-1.084v1.535h-1.154v.838h1.154v3.932c0 .539.124.955.37 1.248.246.293.611.44 1.095.44zm4.125 0c.817 0 1.436-.248 1.858-.744l.023.627h1.031v-6.34h-1.084v4.611c-.273.618-.824.926-1.652.926-.781 0-1.172-.48-1.172-1.441v-4.096h-1.084v4.125c.004.77.183 1.35.536 1.743.354.393.869.59 1.544.59zm5.643-.117v-4.5c.254-.605.736-.908 1.447-.908.192 0 .37.013.533.04v-1.007c-.109-.055-.27-.082-.48-.082-.652 0-1.156.283-1.512.85l-.017-.733h-1.055V293h1.084zm5.607.117c1.063 0 1.86-.408 2.391-1.224l-.662-.516c-.2.258-.432.465-.697.621-.266.156-.59.234-.973.234-.54 0-.983-.192-1.333-.577-.35-.384-.532-.89-.548-1.514h4.295v-.452c0-1.011-.229-1.789-.686-2.332-.457-.543-1.097-.814-1.921-.814-.504 0-.972.14-1.404.419-.431.28-.767.666-1.008 1.16-.24.494-.36 1.056-.36 1.685v.199c0 .945.27 1.7.809 2.265.539.564 1.238.846 2.097.846zm1.389-3.867h-3.176c.07-.574.254-1.02.551-1.339a1.446 1.446 0 011.102-.477c.453 0 .812.151 1.078.454.265.302.414.73.445 1.28v.082zm4.564 3.867c.774 0 1.377-.265 1.811-.797l.053.68h.996v-9h-1.084v3.305c-.434-.508-1.022-.762-1.764-.762-.746 0-1.35.296-1.81.888-.461.591-.692 1.374-.692 2.346v.082c0 .97.232 1.754.695 2.356.462.601 1.061.902 1.795.902zm.27-.92c-.523 0-.934-.203-1.23-.61-.297-.405-.446-.968-.446-1.687 0-.804.149-1.412.446-1.822.296-.41.71-.615 1.242-.615.672 0 1.17.299 1.494.896v2.912c-.317.618-.819.926-1.506.926zm10.148.92c.75 0 1.348-.294 1.793-.882.446-.588.668-1.366.668-2.335v-.093c0-1.012-.22-1.809-.659-2.391-.44-.582-1.044-.873-1.813-.873-.77 0-1.373.271-1.81.814V284h-1.085v9h.996l.053-.732c.437.566 1.057.85 1.857.85zm-.27-.92c-.702 0-1.22-.332-1.552-.996v-2.742c.313-.664.826-.996 1.541-.996.535 0 .945.201 1.23.603.286.403.428.973.428 1.711 0 .809-.144 1.414-.433 1.817-.29.402-.694.603-1.213.603zm6.054.92c.699 0 1.3-.262 1.804-.785.04.32.09.543.153.668h1.136v-.094c-.148-.343-.222-.806-.222-1.388V288.6c-.016-.641-.23-1.144-.645-1.51-.414-.364-.986-.547-1.717-.547-.46 0-.883.086-1.268.258a2.3 2.3 0 00-.914.7c-.225.295-.337.6-.337.917h1.09c0-.277.13-.514.392-.709.262-.195.586-.293.973-.293.441 0 .775.112 1.002.337.226.225.34.526.34.905v.498h-1.055c-.91 0-1.616.183-2.118.548-.502.365-.753.878-.753 1.538 0 .543.2.991.6 1.345.4.353.914.53 1.539.53zm.158-.943c-.356 0-.647-.096-.873-.287-.227-.192-.34-.457-.34-.797 0-.777.664-1.166 1.992-1.166h.85v1.3c-.137.282-.358.51-.662.686a1.905 1.905 0 01-.967.264zm6.744.943c.723 0 1.31-.17 1.764-.513.453-.341.68-.795.68-1.362 0-.34-.082-.628-.244-.864-.162-.236-.411-.439-.747-.607-.336-.167-.774-.312-1.315-.433-.541-.121-.915-.248-1.122-.381a.658.658 0 01-.311-.592c0-.277.111-.502.334-.674.223-.171.531-.257.926-.257.383 0 .7.107.952.322.252.215.378.47.378.767h1.09c0-.578-.224-1.052-.671-1.423-.447-.371-1.03-.557-1.75-.557-.683 0-1.244.18-1.684.539-.44.36-.659.799-.659 1.318 0 .313.077.582.232.809.154.227.392.422.714.586.323.164.758.305 1.307.422.549.117.934.257 1.154.419.221.162.331.39.331.682 0 .278-.124.5-.372.665-.248.166-.577.25-.987.25-.445 0-.804-.107-1.075-.32a1.122 1.122 0 01-.437-.864h-1.084c0 .375.11.723.331 1.046.221.322.527.573.917.753.39.18.84.27 1.348.27zm6.486 0c1.063 0 1.86-.408 2.39-1.224l-.661-.516c-.2.258-.432.465-.697.621-.266.156-.59.234-.973.234-.54 0-.984-.192-1.333-.577-.35-.384-.532-.89-.548-1.514h4.295v-.452c0-1.011-.229-1.789-.686-2.332-.457-.543-1.097-.814-1.921-.814-.504 0-.972.14-1.404.419-.431.28-.767.666-1.008 1.16-.24.494-.36 1.056-.36 1.685v.199c0 .945.27 1.7.809 2.265.539.564 1.238.846 2.097.846zm1.389-3.867h-3.176c.07-.574.254-1.02.551-1.339a1.446 1.446 0 011.102-.477c.453 0 .812.151 1.078.454.265.302.414.73.445 1.28v.082zm4.564 3.867c.774 0 1.377-.265 1.811-.797l.053.68h.996v-9h-1.084v3.305c-.434-.508-1.022-.762-1.764-.762-.746 0-1.35.296-1.81.888-.461.591-.692 1.374-.692 2.346v.082c0 .97.232 1.754.695 2.356.462.601 1.061.902 1.795.902zm.27-.92c-.523 0-.934-.203-1.23-.61-.297-.405-.446-.968-.446-1.687 0-.804.149-1.412.445-1.822.297-.41.711-.615 1.243-.615.672 0 1.17.299 1.494.896v2.912c-.317.618-.819.926-1.506.926zm9.844.92c.57 0 1.075-.137 1.514-.41.44-.273.778-.655 1.014-1.145s.355-1.044.355-1.662v-.076c0-.992-.267-1.787-.8-2.385-.533-.597-1.232-.896-2.095-.896-.559 0-1.056.135-1.491.404-.436.27-.776.653-1.02 1.149s-.366 1.054-.366 1.675v.077c0 .984.267 1.775.8 2.373.533.597 1.23.896 2.089.896zm0-.885c-.547 0-.984-.212-1.31-.638-.326-.426-.49-.99-.49-1.694 0-.793.165-1.402.493-1.828.328-.426.76-.638 1.295-.638.547 0 .985.215 1.315.647.33.432.496.995.496 1.69 0 .778-.163 1.382-.487 1.814-.324.432-.762.647-1.312.647zm5.326.768v-4.518a1.91 1.91 0 01.621-.738c.266-.187.574-.281.926-.281.433 0 .753.11.958.328.205.219.31.557.313 1.014V293h1.084v-4.19c-.012-1.511-.687-2.267-2.027-2.267-.781 0-1.414.305-1.899.914l-.035-.797h-1.025V293h1.084zM88.898 311v-4.629c.262-.605.748-.908 1.46-.908.902 0 1.353.46 1.353 1.383V311h1.09v-4.207c.043-.406.197-.73.463-.97.265-.24.6-.36 1.002-.36.488 0 .836.112 1.043.337.207.224.31.563.31 1.016V311h1.084v-4.248c-.023-1.473-.73-2.209-2.121-2.209-.46 0-.86.094-1.198.281a2.402 2.402 0 00-.823.738c-.32-.68-.924-1.019-1.811-1.019-.79 0-1.416.273-1.88.82l-.03-.703h-1.026V311h1.084zm11.497.117c.816 0 1.435-.248 1.857-.744l.023.627h1.032v-6.34h-1.084v4.611c-.274.618-.825.926-1.653.926-.78 0-1.172-.48-1.172-1.441v-4.096h-1.084v4.125c.004.77.183 1.35.537 1.743.353.393.868.59 1.544.59zm5.736-.117v-9h-1.084v9h1.084zm3.586.117c.27 0 .547-.039.832-.117v-.879c-.219.047-.39.07-.516.07-.254 0-.433-.063-.539-.19-.105-.127-.158-.317-.158-.571v-3.932h1.184v-.838h-1.184v-1.535h-1.084v1.535h-1.154v.838h1.154v3.932c0 .539.123.955.37 1.248.245.293.61.44 1.095.44zm2.713-7.523c.21 0 .37-.059.48-.176a.62.62 0 00.164-.44.64.64 0 00-.164-.445c-.11-.12-.27-.181-.48-.181-.211 0-.37.06-.478.181a.647.647 0 00-.161.446c0 .175.054.322.161.439.108.117.267.176.478.176zm.533 7.406v-6.34h-1.084V311h1.084zm2.818 2.438v-3.053c.442.488 1.047.732 1.817.732.754 0 1.351-.295 1.793-.885.441-.59.662-1.367.662-2.332v-.1c0-1.023-.222-1.821-.665-2.396-.444-.574-1.046-.861-1.808-.861-.785 0-1.398.273-1.84.82l-.053-.703h-.99v8.778h1.084zm1.489-3.206c-.668 0-1.165-.289-1.489-.867v-3.03c.328-.581.82-.872 1.477-.872.531 0 .949.207 1.254.621.304.414.457.978.457 1.693 0 .813-.154 1.425-.46 1.837-.307.412-.72.618-1.24.618zm5.337.768v-9h-1.084v9h1.084zm4.366.117c1.062 0 1.859-.408 2.39-1.224l-.662-.516c-.199.258-.431.465-.697.621-.266.156-.59.234-.973.234-.539 0-.983-.192-1.333-.577-.35-.384-.532-.89-.548-1.514h4.295v-.452c0-1.011-.228-1.789-.685-2.332-.457-.543-1.098-.814-1.922-.814-.504 0-.972.14-1.403.419-.432.28-.768.666-1.008 1.16-.24.494-.36 1.056-.36 1.685v.199c0 .945.269 1.7.808 2.265.54.564 1.238.846 2.098.846zm1.388-3.867h-3.175c.07-.574.253-1.02.55-1.339a1.446 1.446 0 011.102-.477c.453 0 .812.151 1.078.454.266.302.414.73.445 1.28v.082zm4.67 3.867c.723 0 1.31-.17 1.764-.513.453-.341.68-.795.68-1.362 0-.34-.081-.628-.244-.864-.162-.236-.41-.439-.747-.607-.336-.167-.774-.312-1.315-.433-.541-.121-.915-.248-1.122-.381a.658.658 0 01-.31-.592c0-.277.11-.502.333-.674.223-.171.532-.257.926-.257.383 0 .7.107.952.322.252.215.378.47.378.767h1.09c0-.578-.224-1.052-.67-1.423-.448-.371-1.031-.557-1.75-.557-.684 0-1.245.18-1.684.539-.44.36-.66.799-.66 1.318 0 .313.077.582.232.809.154.227.392.422.715.586.322.164.757.305 1.306.422.55.117.934.257 1.155.419.22.162.33.39.33.682 0 .278-.123.5-.371.665-.248.166-.578.25-.988.25-.445 0-.803-.107-1.075-.32a1.122 1.122 0 01-.436-.864h-1.084c0 .375.11.723.33 1.046.221.322.527.573.918.753.39.18.84.27 1.347.27zm9.428 0c.57 0 1.075-.137 1.515-.41.44-.273.777-.655 1.013-1.145.237-.49.355-1.044.355-1.662v-.076c0-.992-.267-1.787-.8-2.385-.533-.597-1.231-.896-2.095-.896-.558 0-1.055.135-1.49.404-.436.27-.776.653-1.02 1.149-.245.496-.367 1.054-.367 1.675v.077c0 .984.267 1.775.8 2.373.533.597 1.23.896 2.089.896zm0-.885c-.547 0-.983-.212-1.31-.638-.326-.426-.489-.99-.489-1.694 0-.793.164-1.402.492-1.828.328-.426.76-.638 1.295-.638.547 0 .986.215 1.316.647.33.432.495.995.495 1.69 0 .778-.162 1.382-.487 1.814-.324.432-.761.647-1.312.647zm5.86.768v-5.502h1.353v-.838h-1.354v-.668c0-.383.096-.677.287-.882.192-.205.463-.307.815-.307.207 0 .402.017.586.052l.058-.878a2.845 2.845 0 00-.744-.1c-.664 0-1.177.185-1.54.557-.364.37-.546.896-.546 1.576v.65h-1.002v.838h1.002V311h1.084zm7.476.117c.7 0 1.3-.262 1.805-.785.039.32.09.543.152.668h1.137v-.094c-.149-.344-.223-.806-.223-1.388V306.6c-.016-.641-.23-1.144-.645-1.51-.414-.364-.986-.547-1.716-.547-.461 0-.884.086-1.269.258a2.3 2.3 0 00-.914.7c-.225.295-.337.6-.337.917h1.09c0-.277.13-.514.393-.709.261-.195.586-.293.972-.293.442 0 .776.112 1.002.337.227.225.34.526.34.905v.498h-1.055c-.91 0-1.616.183-2.118.548-.502.365-.753.878-.753 1.538 0 .543.2.991.6 1.345.401.353.914.53 1.539.53zm.158-.943c-.355 0-.646-.096-.873-.287-.226-.192-.34-.457-.34-.797 0-.778.664-1.166 1.992-1.166h.85v1.3c-.137.282-.357.51-.662.686a1.905 1.905 0 01-.967.264zm8.836.826v-5.502h1.295v-.838h-1.295v-.55c0-.419.103-.732.308-.941.205-.209.54-.314 1.005-.314.441 0 .906.098 1.394.293l.182-.914c-.668-.238-1.221-.357-1.658-.357-.739 0-1.31.197-1.714.592-.405.394-.607.945-.607 1.652v.54h-1.002v.837h1.002V311h1.09zm3.428 0v-6.34h-1.09V311h1.09zm2.443 0l1.465-2.373L173.59 311h1.254l-2.139-3.205 2.074-3.135h-1.265l-1.407 2.315-1.388-2.315h-1.254l2.074 3.135L169.4 311h1.26zm7.899.117c1.062 0 1.859-.408 2.39-1.224l-.662-.516c-.2.258-.432.465-.697.621-.266.156-.59.234-.973.234-.539 0-.983-.192-1.333-.577-.35-.384-.532-.89-.548-1.514h4.295v-.452c0-1.011-.228-1.789-.685-2.332-.457-.543-1.098-.814-1.922-.814-.504 0-.972.14-1.403.419-.432.28-.768.666-1.008 1.16-.24.494-.36 1.056-.36 1.685v.199c0 .945.269 1.7.808 2.265.539.564 1.238.846 2.098.846zm1.388-3.867h-3.176c.07-.574.254-1.02.551-1.339a1.446 1.446 0 011.102-.477c.453 0 .812.151 1.078.454.266.302.414.73.445 1.28v.082zm4.565 3.867c.773 0 1.377-.265 1.81-.797l.053.68h.996v-9h-1.084v3.305c-.433-.508-1.021-.762-1.764-.762-.746 0-1.35.296-1.81.888-.461.591-.692 1.374-.692 2.346v.082c0 .97.232 1.754.695 2.356.463.601 1.061.902 1.796.902zm.27-.92c-.524 0-.934-.203-1.231-.61-.297-.405-.446-.968-.446-1.687 0-.804.149-1.412.446-1.822.297-.41.71-.615 1.242-.615.672 0 1.17.299 1.494.896v2.912c-.316.618-.818.926-1.506.926zm9.298.92c.816 0 1.436-.248 1.858-.744l.023.627h1.031v-6.34h-1.084v4.611c-.273.618-.824.926-1.652.926-.781 0-1.172-.48-1.172-1.441v-4.096H192v4.125c.004.77.183 1.35.536 1.743.354.393.868.59 1.544.59zm5.643-.117v-4.518a1.91 1.91 0 01.62-.738c.266-.187.575-.281.927-.281.433 0 .752.11.958.328.205.219.31.557.313 1.014V311h1.084v-4.19c-.012-1.511-.687-2.267-2.027-2.267-.782 0-1.414.305-1.899.914l-.035-.797h-1.025V311h1.084zm6.181-7.406c.211 0 .371-.059.48-.176a.62.62 0 00.165-.44.64.64 0 00-.164-.445c-.11-.12-.27-.181-.48-.181-.212 0-.37.06-.478.181a.647.647 0 00-.161.446c0 .175.053.322.16.439.108.117.267.176.478.176zm.534 7.406v-6.34h-1.084V311h1.084zm3.585.117c.27 0 .547-.039.832-.117v-.879c-.218.047-.39.07-.515.07-.254 0-.434-.063-.54-.19-.105-.127-.157-.317-.157-.571v-3.932h1.183v-.838h-1.183v-1.535h-1.084v1.535h-1.155v.838h1.155v3.932c0 .539.123.955.369 1.248.246.293.611.44 1.095.44zm7.641 0c.57 0 1.075-.137 1.515-.41.44-.273.777-.655 1.013-1.145.237-.49.355-1.044.355-1.662v-.076c0-.992-.267-1.787-.8-2.385-.533-.597-1.231-.896-2.095-.896-.558 0-1.055.135-1.49.404-.436.27-.776.653-1.02 1.149-.245.496-.367 1.054-.367 1.675v.077c0 .984.267 1.775.8 2.373.533.597 1.23.896 2.09.896zm0-.885c-.547 0-.983-.212-1.31-.638-.326-.426-.489-.99-.489-1.694 0-.793.164-1.402.492-1.828.329-.426.76-.638 1.295-.638.547 0 .986.215 1.316.647.33.432.495.995.495 1.69 0 .778-.162 1.382-.486 1.814-.325.432-.762.647-1.313.647zm5.86.768v-5.502h1.353v-.838h-1.354v-.668c0-.383.096-.677.288-.882.191-.205.462-.307.814-.307.207 0 .402.017.586.052l.059-.878a2.845 2.845 0 00-.745-.1c-.664 0-1.177.185-1.54.557-.364.37-.546.896-.546 1.576v.65h-1.001v.838h1.001V311h1.084zm8.068.117c.812 0 1.468-.219 1.966-.656.498-.438.747-1.025.747-1.764 0-.465-.13-.88-.39-1.248a2.445 2.445 0 00-1.058-.838c.383-.187.687-.447.912-.779.224-.332.336-.71.336-1.137 0-.718-.231-1.289-.694-1.71-.463-.423-1.07-.633-1.82-.633-.753 0-1.36.21-1.821.632-.461.422-.692.993-.692 1.711 0 .422.11.8.328 1.131.219.332.518.592.897.78a2.352 2.352 0 00-1.046.843 2.171 2.171 0 00-.378 1.248c0 .735.247 1.322.741 1.761.494.44 1.151.66 1.972.66zm0-4.951c-.434 0-.78-.134-1.04-.401-.26-.268-.39-.619-.39-1.052 0-.453.132-.812.396-1.075.263-.264.608-.396 1.034-.396.414 0 .756.137 1.025.41.27.274.404.627.404 1.06 0 .434-.13.785-.39 1.053-.259.267-.606.401-1.04.401zm0 4.066c-.512 0-.911-.138-1.198-.416-.288-.277-.431-.658-.431-1.142 0-.485.147-.875.442-1.172.295-.297.687-.445 1.175-.445s.884.15 1.187.45c.302.302.454.69.454 1.167 0 .48-.145.86-.434 1.14-.289.279-.687.418-1.195.418zm121.105-17.115c.903 0 1.623-.208 2.162-.624.54-.416.809-.97.809-1.661 0-.434-.097-.81-.29-1.13-.193-.321-.49-.601-.89-.842-.401-.24-.956-.46-1.665-.659-.709-.199-1.21-.419-1.506-.659-.295-.24-.442-.534-.442-.882 0-.433.155-.772.466-1.016.31-.245.743-.367 1.298-.367.597 0 1.06.148 1.388.443.328.295.493.7.493 1.216h1.13c0-.473-.126-.909-.378-1.307a2.577 2.577 0 00-1.066-.938c-.459-.226-.981-.34-1.567-.34-.86 0-1.558.22-2.095.66-.537.44-.806.995-.806 1.667 0 .593.22 1.093.66 1.497.439.404 1.141.745 2.106 1.022.77.223 1.3.449 1.594.677.293.229.44.552.44.97 0 .418-.16.748-.475.99-.317.242-.772.363-1.366.363-.636 0-1.145-.15-1.526-.448-.381-.299-.571-.706-.571-1.222h-1.131c0 .496.137.94.413 1.33.275.391.667.699 1.175.923a4.01 4.01 0 001.64.337zm5.326 2.32v-3.052c.442.488 1.047.732 1.817.732.754 0 1.351-.295 1.793-.885.441-.59.662-1.367.662-2.332v-.1c0-1.023-.222-1.821-.665-2.396-.443-.574-1.046-.861-1.808-.861-.785 0-1.398.273-1.84.82l-.052-.703h-.99v8.778h1.083zm1.489-3.205c-.668 0-1.164-.289-1.489-.867v-3.03c.329-.581.82-.872 1.477-.872.531 0 .95.207 1.254.621.305.414.457.978.457 1.693 0 .813-.153 1.425-.46 1.837-.307.412-.72.618-1.24.618zm6.117.885c.7 0 1.3-.262 1.805-.785.039.32.09.543.152.668h1.137v-.094c-.149-.344-.223-.806-.223-1.388V288.6c-.016-.641-.23-1.144-.645-1.51-.414-.364-.986-.547-1.716-.547-.461 0-.884.086-1.269.258a2.3 2.3 0 00-.914.7c-.225.295-.337.6-.337.917h1.09c0-.277.13-.514.393-.709.261-.195.586-.293.972-.293.442 0 .776.112 1.002.337.227.225.34.526.34.905v.498h-1.055c-.91 0-1.616.183-2.118.548-.502.365-.753.878-.753 1.538 0 .543.2.991.6 1.345.401.353.914.53 1.539.53zm.158-.943c-.355 0-.646-.096-.873-.287-.226-.192-.34-.457-.34-.797 0-.777.664-1.166 1.992-1.166h.85v1.3c-.137.282-.357.51-.662.686a1.905 1.905 0 01-.967.264zm6.955.943c.43 0 .837-.097 1.222-.293a2.47 2.47 0 00.923-.785c.23-.328.355-.674.375-1.037h-1.026a1.237 1.237 0 01-.48.879c-.29.234-.627.351-1.014.351-.558 0-.988-.197-1.289-.591-.3-.395-.451-.957-.451-1.688v-.205c0-.75.151-1.323.454-1.72.303-.396.73-.594 1.28-.594.41 0 .755.131 1.035.395.279.264.434.6.465 1.01h1.026c-.032-.679-.283-1.232-.753-1.657-.47-.426-1.062-.639-1.773-.639-.578 0-1.079.133-1.503.398a2.588 2.588 0 00-.975 1.12c-.227.48-.34 1.029-.34 1.646v.182c0 1 .255 1.788.765 2.364.51.576 1.196.864 2.06.864zm4.383-7.523c.21 0 .371-.059.48-.176a.62.62 0 00.165-.44.64.64 0 00-.165-.445c-.109-.12-.27-.181-.48-.181-.21 0-.37.06-.478.181a.647.647 0 00-.16.446c0 .175.053.322.16.439.108.117.267.176.478.176zm.533 7.406v-6.34h-1.084V293h1.084zm2.819 0v-4.518a1.91 1.91 0 01.62-.738c.266-.187.575-.281.926-.281.434 0 .753.11.958.328.206.219.31.557.314 1.014V293h1.084v-4.19c-.012-1.511-.688-2.267-2.027-2.267-.782 0-1.414.305-1.899.914l-.035-.797h-1.025V293h1.084zm7.945 2.496c.82 0 1.474-.236 1.96-.709s.73-1.119.73-1.94v-6.187h-.99l-.054.703c-.433-.547-1.037-.82-1.81-.82-.754 0-1.36.292-1.817.876-.457.584-.685 1.37-.685 2.358 0 1.032.23 1.846.688 2.444.46.597 1.06.896 1.802.896.75 0 1.342-.25 1.775-.75v.545c0 .54-.147.957-.442 1.254-.295.297-.706.445-1.233.445-.672 0-1.24-.287-1.705-.861l-.563.65c.23.34.565.608 1.002.803a3.26 3.26 0 001.342.293zm.094-3.299c-.528 0-.938-.204-1.23-.612-.294-.408-.44-.97-.44-1.685 0-.804.148-1.412.445-1.822.297-.41.709-.615 1.236-.615.664 0 1.162.303 1.494.908v2.895c-.32.62-.822.931-1.505.931zm6.562.92c.723 0 1.31-.17 1.764-.513.453-.341.68-.795.68-1.362 0-.34-.082-.628-.244-.864-.162-.236-.41-.439-.747-.607-.336-.167-.774-.312-1.315-.433-.541-.121-.915-.248-1.122-.381a.658.658 0 01-.31-.592c0-.277.11-.502.333-.674.223-.171.531-.257.926-.257.383 0 .7.107.952.322.252.215.378.47.378.767h1.09c0-.578-.224-1.052-.671-1.423-.447-.371-1.03-.557-1.749-.557-.684 0-1.245.18-1.685.539-.44.36-.659.799-.659 1.318 0 .313.077.582.232.809.154.227.392.422.715.586.322.164.757.305 1.306.422.549.117.934.257 1.154.419.221.162.332.39.332.682 0 .278-.125.5-.373.665-.248.166-.577.25-.987.25-.445 0-.804-.107-1.075-.32a1.122 1.122 0 01-.437-.864h-1.084c0 .375.11.723.331 1.046.221.322.527.573.917.753.391.18.84.27 1.348.27zm7.47-7.523c.212 0 .372-.059.481-.176a.62.62 0 00.164-.44.64.64 0 00-.164-.445c-.11-.12-.27-.181-.48-.181-.211 0-.37.06-.478.181a.647.647 0 00-.16.446c0 .175.053.322.16.439.108.117.267.176.478.176zm.534 7.406v-6.34h-1.084V293h1.084zm2.818 0v-4.518a1.91 1.91 0 01.621-.738c.266-.187.575-.281.926-.281.434 0 .753.11.958.328.205.219.31.557.314 1.014V293h1.084v-4.19c-.012-1.511-.688-2.267-2.028-2.267-.78 0-1.414.305-1.898.914l-.035-.797h-1.026V293h1.084zm7.87.117c.722 0 1.31-.17 1.763-.513.453-.341.68-.795.68-1.362 0-.34-.081-.628-.243-.864-.162-.236-.411-.439-.747-.607-.336-.167-.775-.312-1.316-.433-.54-.121-.915-.248-1.122-.381a.658.658 0 01-.31-.592c0-.277.11-.502.334-.674.222-.171.53-.257.925-.257.383 0 .7.107.953.322.251.215.377.47.377.767h1.09c0-.578-.223-1.052-.67-1.423-.448-.371-1.03-.557-1.75-.557-.683 0-1.245.18-1.684.539-.44.36-.66.799-.66 1.318 0 .313.078.582.232.809.154.227.393.422.715.586.322.164.758.305 1.307.422.548.117.933.257 1.154.419.22.162.33.39.33.682 0 .278-.123.5-.371.665-.248.166-.577.25-.987.25-.446 0-.804-.107-1.076-.32a1.122 1.122 0 01-.436-.864h-1.084c0 .375.11.723.33 1.046.222.322.527.573.918.753.39.18.84.27 1.348.27zm4.5-7.523c.21 0 .37-.059.48-.176a.62.62 0 00.164-.44.64.64 0 00-.164-.445c-.11-.12-.27-.181-.48-.181-.211 0-.37.06-.478.181a.647.647 0 00-.161.446c0 .175.054.322.161.439.107.117.267.176.478.176zm.533 7.406v-6.34h-1.084V293h1.084zm3.96.117c.774 0 1.378-.265 1.811-.797l.053.68h.996v-9h-1.084v3.305c-.434-.508-1.021-.762-1.764-.762-.746 0-1.35.296-1.81.888-.461.591-.692 1.374-.692 2.346v.082c0 .97.232 1.754.695 2.356.463.601 1.061.902 1.796.902zm.27-.92c-.523 0-.933-.203-1.23-.61-.297-.405-.446-.968-.446-1.687 0-.804.149-1.412.446-1.822.297-.41.71-.615 1.242-.615.672 0 1.17.299 1.494.896v2.912c-.316.618-.818.926-1.506.926zm6.903.92c1.062 0 1.859-.408 2.39-1.224l-.662-.516c-.2.258-.432.465-.697.621-.266.156-.59.234-.973.234-.539 0-.983-.192-1.333-.577-.35-.384-.532-.89-.548-1.514h4.295v-.452c0-1.011-.228-1.789-.685-2.332-.457-.543-1.098-.814-1.922-.814-.504 0-.972.14-1.404.419-.431.28-.767.666-1.007 1.16-.24.494-.36 1.056-.36 1.685v.199c0 .945.269 1.7.808 2.265.539.564 1.238.846 2.098.846zm1.388-3.867h-3.176c.07-.574.254-1.02.551-1.339a1.446 1.446 0 011.102-.477c.453 0 .812.151 1.078.454.266.302.414.73.445 1.28v.082zm-78.96 21.867c.429 0 .836-.097 1.221-.293a2.47 2.47 0 00.923-.785c.23-.328.355-.674.375-1.037h-1.026a1.237 1.237 0 01-.48.879c-.29.234-.627.351-1.014.351-.558 0-.988-.197-1.289-.591-.3-.395-.451-.957-.451-1.688v-.205c0-.75.151-1.323.454-1.72.303-.396.73-.594 1.28-.594.41 0 .755.131 1.035.395.279.264.434.6.465 1.01h1.026c-.031-.679-.282-1.232-.753-1.657-.47-.426-1.062-.639-1.773-.639-.578 0-1.079.133-1.503.398a2.588 2.588 0 00-.975 1.12c-.227.48-.34 1.029-.34 1.646v.182c0 1 .255 1.788.765 2.364.51.576 1.196.864 2.06.864zm6.34 0c.57 0 1.074-.137 1.514-.41.44-.273.777-.655 1.013-1.145.237-.49.355-1.044.355-1.662v-.076c0-.992-.267-1.787-.8-2.385-.533-.597-1.231-.896-2.095-.896-.558 0-1.055.135-1.49.404-.436.27-.776.653-1.02 1.149s-.367 1.054-.367 1.675v.077c0 .984.267 1.775.8 2.373.533.597 1.23.896 2.09.896zm0-.885c-.548 0-.984-.212-1.31-.638-.327-.426-.49-.99-.49-1.694 0-.793.164-1.402.492-1.828.329-.426.76-.638 1.295-.638.547 0 .986.215 1.316.647.33.432.495.995.495 1.69 0 .778-.162 1.382-.486 1.814-.325.432-.762.647-1.313.647zm5.32.768v-4.629c.261-.605.747-.908 1.458-.908.903 0 1.354.46 1.354 1.383V311h1.09v-4.207c.043-.406.197-.73.463-.97.265-.24.6-.36 1.002-.36.488 0 .836.112 1.043.337.207.224.31.563.31 1.016V311h1.084v-4.248c-.023-1.473-.73-2.209-2.121-2.209-.46 0-.86.094-1.198.281a2.402 2.402 0 00-.823.738c-.32-.68-.924-1.019-1.811-1.019-.79 0-1.416.273-1.88.82l-.03-.703h-1.026V311h1.084zm10.523 2.438v-3.053c.441.488 1.047.732 1.816.732.754 0 1.352-.295 1.793-.885.442-.59.662-1.367.662-2.332v-.1c0-1.023-.221-1.821-.665-2.396-.443-.574-1.046-.861-1.807-.861-.785 0-1.399.273-1.84.82l-.053-.703h-.99v8.778h1.084zm1.488-3.206c-.668 0-1.164-.289-1.488-.867v-3.03c.328-.581.82-.872 1.476-.872.532 0 .95.207 1.254.621.305.414.457.979.457 1.693 0 .813-.153 1.425-.46 1.837-.306.412-.72.618-1.239.618zm6.762.885c.57 0 1.075-.137 1.515-.41.439-.273.777-.655 1.013-1.145.237-.49.355-1.044.355-1.662v-.076c0-.992-.267-1.787-.8-2.385-.533-.597-1.232-.896-2.095-.896-.558 0-1.056.135-1.491.404-.436.27-.775.653-1.02 1.149-.244.496-.366 1.054-.366 1.675v.077c0 .984.267 1.775.8 2.373.533.597 1.23.896 2.089.896zm0-.885c-.547 0-.984-.212-1.31-.638-.326-.426-.489-.99-.489-1.694 0-.793.164-1.402.492-1.828.328-.426.76-.638 1.295-.638.547 0 .986.215 1.316.647.33.432.495.995.495 1.69 0 .778-.162 1.382-.487 1.814-.324.432-.761.647-1.312.647zm5.326.768v-4.518a1.91 1.91 0 01.621-.738c.266-.187.574-.281.926-.281.434 0 .753.11.958.328.205.219.31.557.313 1.014V311h1.084v-4.19c-.011-1.511-.687-2.267-2.027-2.267-.781 0-1.414.305-1.898.914l-.036-.797h-1.025V311h1.084zm8.168.117c1.063 0 1.86-.408 2.39-1.224l-.661-.516c-.2.258-.432.465-.698.621-.265.156-.59.234-.972.234-.54 0-.984-.192-1.333-.577-.35-.384-.533-.89-.548-1.514h4.295v-.452c0-1.011-.229-1.789-.686-2.332-.457-.543-1.098-.814-1.922-.814-.504 0-.971.14-1.403.419-.432.28-.768.666-1.008 1.16-.24.494-.36 1.056-.36 1.685v.199c0 .945.27 1.7.808 2.265.54.564 1.239.846 2.098.846zm1.389-3.867h-3.176c.07-.574.254-1.02.55-1.339a1.446 1.446 0 011.102-.477c.453 0 .813.151 1.078.454.266.302.414.73.446 1.28v.082zm3.422 3.75v-4.518a1.91 1.91 0 01.62-.738c.266-.187.575-.281.926-.281.434 0 .753.11.958.328.206.219.31.557.314 1.014V311h1.084v-4.19c-.012-1.511-.688-2.267-2.027-2.267-.782 0-1.414.305-1.899.914l-.035-.797h-1.025V311h1.084zm7.388.117c.27 0 .547-.039.832-.117v-.879c-.218.047-.39.07-.515.07-.254 0-.434-.063-.54-.19-.105-.127-.158-.317-.158-.571v-3.932h1.184v-.838h-1.184v-1.535h-1.084v1.535h-1.154v.838h1.154v3.932c0 .539.123.955.37 1.248.246.293.61.44 1.095.44zm4.4 0c.723 0 1.311-.17 1.764-.513.453-.341.68-.795.68-1.362 0-.34-.081-.628-.243-.864-.162-.236-.411-.439-.747-.607-.336-.167-.775-.312-1.316-.433-.54-.121-.915-.248-1.122-.381a.658.658 0 01-.31-.592c0-.277.111-.502.334-.674.222-.171.53-.257.925-.257.383 0 .7.107.953.322.252.215.378.47.378.767h1.09c0-.578-.224-1.052-.672-1.423-.447-.371-1.03-.557-1.749-.557-.683 0-1.245.18-1.684.539-.44.36-.66.799-.66 1.318 0 .313.078.582.232.809.154.227.393.422.715.586.322.164.758.305 1.307.422.548.117.933.257 1.154.419.22.162.331.39.331.682 0 .278-.124.5-.372.665-.248.166-.577.25-.987.25-.446 0-.804-.107-1.076-.32a1.122 1.122 0 01-.436-.864h-1.084c0 .375.11.723.331 1.046.22.322.526.573.917.753.39.18.84.27 1.348.27zm150.807-18c.903 0 1.623-.208 2.162-.624.54-.416.809-.97.809-1.661 0-.434-.097-.81-.29-1.13-.193-.321-.49-.601-.89-.842-.401-.24-.956-.46-1.665-.659-.709-.199-1.21-.419-1.506-.659-.295-.24-.442-.534-.442-.882 0-.433.155-.772.466-1.016.31-.245.743-.367 1.298-.367.597 0 1.06.148 1.388.443.328.295.493.7.493 1.216h1.13c0-.473-.126-.909-.378-1.307a2.577 2.577 0 00-1.066-.938c-.459-.226-.981-.34-1.567-.34-.86 0-1.558.22-2.095.66-.537.44-.806.995-.806 1.667 0 .593.22 1.093.66 1.497.439.404 1.141.745 2.106 1.022.77.223 1.3.449 1.594.677.293.229.44.552.44.97 0 .418-.16.748-.475.99-.317.242-.772.363-1.366.363-.636 0-1.145-.15-1.526-.448-.381-.299-.571-.706-.571-1.222h-1.131c0 .496.137.94.413 1.33.275.391.667.699 1.175.923a4.01 4.01 0 001.64.337zm5.326 2.32v-3.052c.442.488 1.047.732 1.817.732.754 0 1.351-.295 1.793-.885.441-.59.662-1.367.662-2.332v-.1c0-1.023-.222-1.821-.665-2.396-.443-.574-1.046-.861-1.808-.861-.785 0-1.398.273-1.84.82l-.052-.703h-.99v8.778h1.083zm1.489-3.205c-.668 0-1.164-.289-1.489-.867v-3.03c.329-.581.82-.872 1.477-.872.531 0 .95.207 1.254.621.305.414.457.979.457 1.693 0 .813-.153 1.425-.46 1.837-.307.412-.72.618-1.24.618zm6.117.885c.7 0 1.3-.262 1.805-.785.039.32.09.543.152.668h1.137v-.094c-.149-.343-.223-.806-.223-1.388V288.6c-.016-.641-.23-1.144-.645-1.51-.414-.364-.986-.547-1.716-.547-.461 0-.884.086-1.269.258a2.3 2.3 0 00-.914.7c-.225.295-.337.6-.337.917h1.09c0-.277.13-.514.393-.709.261-.195.586-.293.972-.293.442 0 .776.112 1.002.337.227.225.34.526.34.905v.498h-1.055c-.91 0-1.616.183-2.118.548-.502.365-.753.878-.753 1.538 0 .543.2.991.6 1.345.401.353.914.53 1.539.53zm.158-.943c-.355 0-.646-.096-.873-.287-.226-.192-.34-.457-.34-.797 0-.777.664-1.166 1.992-1.166h.85v1.3c-.137.282-.357.51-.662.686a1.905 1.905 0 01-.967.264zm6.955.943c.43 0 .837-.097 1.222-.293a2.47 2.47 0 00.923-.785c.23-.328.355-.674.375-1.037h-1.026a1.237 1.237 0 01-.48.879c-.29.234-.627.351-1.014.351-.558 0-.988-.197-1.289-.591-.3-.395-.451-.957-.451-1.688v-.205c0-.75.151-1.323.454-1.72.303-.396.73-.594 1.28-.594.41 0 .755.131 1.035.395.279.264.434.6.465 1.01h1.026c-.032-.679-.283-1.232-.753-1.657-.47-.426-1.062-.639-1.773-.639-.578 0-1.079.133-1.503.398a2.588 2.588 0 00-.975 1.12c-.227.48-.34 1.029-.34 1.646v.182c0 1 .255 1.788.765 2.364.51.576 1.196.864 2.06.864zm4.383-7.523c.21 0 .371-.059.48-.176a.62.62 0 00.165-.44.64.64 0 00-.165-.445c-.109-.12-.27-.181-.48-.181-.21 0-.37.06-.478.181a.647.647 0 00-.16.446c0 .175.053.322.16.439.108.117.267.176.478.176zm.533 7.406v-6.34h-1.084V293h1.084zm2.819 0v-4.518a1.91 1.91 0 01.62-.738c.266-.187.575-.281.926-.281.434 0 .753.11.958.328.206.219.31.557.314 1.014V293h1.084v-4.19c-.012-1.511-.688-2.267-2.027-2.267-.782 0-1.414.305-1.899.914l-.035-.797h-1.025V293h1.084zm7.945 2.496c.82 0 1.474-.236 1.96-.709s.73-1.119.73-1.94v-6.187h-.99l-.054.703c-.433-.547-1.037-.82-1.81-.82-.754 0-1.36.292-1.817.876-.457.584-.685 1.37-.685 2.358 0 1.032.23 1.846.688 2.444.46.597 1.06.896 1.802.896.75 0 1.342-.25 1.775-.75v.545c0 .54-.147.957-.442 1.254-.295.297-.706.445-1.233.445-.672 0-1.24-.287-1.705-.861l-.563.65c.23.34.565.608 1.002.803a3.26 3.26 0 001.342.293zm.094-3.299c-.528 0-.938-.204-1.23-.612-.294-.408-.44-.97-.44-1.685 0-.804.148-1.412.445-1.822.297-.41.709-.615 1.236-.615.664 0 1.162.303 1.494.908v2.895c-.32.62-.822.931-1.505.931zm6.562.92c.723 0 1.31-.17 1.764-.513.453-.341.68-.795.68-1.362 0-.34-.082-.628-.244-.864-.162-.236-.41-.439-.747-.607-.336-.167-.774-.312-1.315-.433-.541-.121-.915-.248-1.122-.381a.658.658 0 01-.31-.592c0-.277.11-.502.333-.674.223-.171.531-.257.926-.257.383 0 .7.107.952.322.252.215.378.47.378.767h1.09c0-.578-.224-1.052-.671-1.423-.447-.371-1.03-.557-1.749-.557-.684 0-1.245.18-1.685.539-.44.36-.659.799-.659 1.318 0 .313.077.582.232.809.154.227.392.422.715.586.322.164.757.305 1.306.422.549.117.934.257 1.154.419.221.162.332.39.332.682 0 .278-.125.5-.373.665-.248.166-.577.25-.987.25-.445 0-.804-.107-1.075-.32a1.122 1.122 0 01-.437-.864h-1.084c0 .375.11.723.331 1.046.221.322.527.573.917.753.391.18.84.27 1.348.27zm9.733 0c.75 0 1.347-.294 1.793-.882.445-.588.667-1.366.667-2.335v-.093c0-1.012-.22-1.809-.659-2.391-.44-.582-1.044-.873-1.813-.873-.77 0-1.373.271-1.81.814V284h-1.085v9h.996l.053-.732c.438.566 1.057.85 1.858.85zm-.27-.92c-.703 0-1.22-.332-1.553-.996v-2.742c.313-.664.826-.996 1.541-.996.535 0 .946.201 1.23.603.286.403.429.973.429 1.711 0 .809-.145 1.414-.434 1.817-.29.402-.693.603-1.213.603zm6.727.92c1.062 0 1.859-.408 2.39-1.224l-.662-.516c-.2.258-.432.465-.697.621-.266.156-.59.234-.973.234-.539 0-.983-.192-1.333-.577-.35-.384-.532-.89-.548-1.514h4.295v-.452c0-1.011-.228-1.789-.685-2.332-.457-.543-1.098-.814-1.922-.814-.504 0-.972.14-1.404.419-.431.28-.767.666-1.007 1.16-.24.494-.36 1.056-.36 1.685v.199c0 .945.269 1.7.808 2.265.539.564 1.238.846 2.098.846zm1.388-3.867h-3.176c.07-.574.254-1.02.551-1.339a1.446 1.446 0 011.102-.477c.453 0 .812.151 1.078.454.266.302.414.73.445 1.28v.082zm4.19 3.867c.27 0 .547-.039.832-.117v-.879c-.219.047-.39.07-.516.07-.254 0-.433-.063-.539-.19-.105-.127-.158-.317-.158-.571v-3.932h1.183v-.838h-1.183v-1.535h-1.084v1.535h-1.154v.838h1.154v3.932c0 .539.123.955.369 1.248.246.293.611.44 1.096.44zm4.218-.117l1.5-4.805 1.541 4.805h.88l1.845-6.34h-1.084l-1.219 4.846-1.506-4.846h-.873l-1.476 4.746-1.248-4.746h-1.078l1.84 6.34h.878zm9.499.117c1.062 0 1.859-.408 2.39-1.224l-.662-.516c-.2.258-.432.465-.697.621-.266.156-.59.234-.973.234-.539 0-.983-.192-1.333-.577-.35-.384-.532-.89-.548-1.514h4.295v-.452c0-1.011-.228-1.789-.685-2.332-.457-.543-1.098-.814-1.922-.814-.504 0-.972.14-1.404.419-.431.28-.767.666-1.007 1.16-.24.494-.36 1.056-.36 1.685v.199c0 .945.269 1.7.808 2.265.539.564 1.238.846 2.098.846zm1.388-3.867h-3.176c.07-.574.254-1.02.551-1.339a1.446 1.446 0 011.102-.477c.453 0 .812.151 1.078.454.265.302.414.73.445 1.28v.082zm4.969 3.867c1.062 0 1.86-.408 2.39-1.224l-.662-.516c-.199.258-.431.465-.697.621-.265.156-.59.234-.972.234-.54 0-.984-.192-1.333-.577-.35-.384-.533-.89-.548-1.514h4.295v-.452c0-1.011-.229-1.789-.686-2.332-.457-.543-1.098-.814-1.922-.814-.504 0-.972.14-1.403.419-.432.28-.768.666-1.008 1.16-.24.494-.36 1.056-.36 1.685v.199c0 .945.27 1.7.808 2.265.54.564 1.239.846 2.098.846zm1.389-3.867h-3.176c.07-.574.254-1.02.55-1.339a1.446 1.446 0 011.102-.477c.453 0 .813.151 1.078.454.266.302.414.73.446 1.28v.082zm3.421 3.75v-4.518a1.91 1.91 0 01.622-.738c.265-.187.574-.281.925-.281.434 0 .753.11.958.328.205.219.31.557.314 1.014V293h1.084v-4.19c-.012-1.511-.688-2.267-2.028-2.267-.78 0-1.414.305-1.898.914l-.035-.797h-1.026V293h1.084zm-89.367 18.117c.43 0 .837-.097 1.222-.293a2.47 2.47 0 00.923-.785c.23-.328.355-.674.375-1.037h-1.026a1.237 1.237 0 01-.48.879c-.29.234-.627.351-1.014.351-.558 0-.988-.197-1.289-.591-.3-.395-.451-.957-.451-1.688v-.205c0-.75.151-1.323.454-1.72.303-.396.73-.594 1.28-.594.41 0 .755.131 1.035.395.279.264.434.6.465 1.01h1.026c-.031-.679-.282-1.232-.753-1.657-.47-.426-1.062-.639-1.773-.639-.578 0-1.079.133-1.503.398a2.588 2.588 0 00-.975 1.12c-.227.48-.34 1.029-.34 1.646v.182c0 1 .255 1.788.765 2.364.51.576 1.196.864 2.06.864zm6.34 0c.57 0 1.075-.137 1.515-.41.44-.273.777-.655 1.013-1.145.237-.49.355-1.044.355-1.662v-.076c0-.992-.267-1.787-.8-2.385-.533-.597-1.231-.896-2.095-.896-.558 0-1.055.135-1.49.404-.436.27-.776.653-1.02 1.149s-.367 1.054-.367 1.675v.077c0 .984.267 1.775.8 2.373.533.597 1.23.896 2.09.896zm0-.885c-.547 0-.983-.212-1.31-.638-.326-.426-.489-.99-.489-1.694 0-.793.164-1.402.492-1.828.329-.426.76-.638 1.295-.638.547 0 .986.215 1.316.647.33.432.495.995.495 1.69 0 .778-.162 1.382-.486 1.814-.325.432-.762.647-1.313.647zm5.32.768v-4.629c.262-.605.748-.908 1.46-.908.902 0 1.353.46 1.353 1.383V311h1.09v-4.207c.043-.406.197-.73.463-.97.265-.24.6-.36 1.002-.36.488 0 .836.112 1.043.337.207.224.31.563.31 1.016V311h1.084v-4.248c-.023-1.473-.73-2.209-2.121-2.209-.46 0-.86.094-1.198.281a2.402 2.402 0 00-.823.739c-.32-.68-.924-1.02-1.811-1.02-.79 0-1.416.273-1.88.82l-.03-.703h-1.026V311h1.084zm10.524 2.438v-3.053c.441.488 1.047.732 1.816.732.754 0 1.352-.295 1.793-.885.442-.59.662-1.367.662-2.332v-.1c0-1.023-.221-1.821-.665-2.396-.443-.574-1.046-.861-1.807-.861-.785 0-1.399.273-1.84.82l-.053-.703h-.99v8.778h1.084zm1.488-3.206c-.668 0-1.164-.289-1.488-.867v-3.03c.328-.581.82-.872 1.476-.872.532 0 .95.207 1.254.621.305.414.457.979.457 1.693 0 .813-.153 1.425-.46 1.837-.306.412-.72.618-1.239.618zm6.762.885c.57 0 1.075-.137 1.515-.41.439-.273.777-.655 1.013-1.145.237-.49.355-1.044.355-1.662v-.076c0-.992-.267-1.787-.8-2.385-.533-.597-1.232-.896-2.095-.896-.558 0-1.056.135-1.491.404-.436.27-.775.653-1.02 1.149-.244.496-.366 1.054-.366 1.675v.077c0 .984.267 1.775.8 2.373.533.597 1.23.896 2.089.896zm0-.885c-.547 0-.984-.212-1.31-.638-.326-.426-.489-.99-.489-1.694 0-.793.164-1.402.492-1.828.328-.426.76-.638 1.295-.638.547 0 .986.215 1.316.647.33.432.495.995.495 1.69 0 .778-.162 1.382-.487 1.814-.324.432-.761.647-1.312.647zm5.326.768v-4.518a1.91 1.91 0 01.621-.738c.266-.187.574-.281.926-.281.434 0 .753.11.958.328.205.219.31.557.313 1.014V311h1.084v-4.19c-.011-1.511-.687-2.267-2.027-2.267-.781 0-1.414.305-1.898.914l-.036-.797h-1.025V311h1.084zm8.168.117c1.063 0 1.86-.408 2.39-1.224l-.661-.516c-.2.258-.432.465-.698.621-.265.156-.59.234-.972.234-.54 0-.984-.192-1.333-.577-.35-.384-.533-.89-.548-1.514h4.295v-.452c0-1.011-.229-1.789-.686-2.332-.457-.543-1.098-.814-1.922-.814-.504 0-.971.14-1.403.419-.432.28-.768.666-1.008 1.16-.24.494-.36 1.056-.36 1.685v.199c0 .945.27 1.7.808 2.265.54.564 1.239.846 2.098.846zm1.389-3.867h-3.176c.07-.574.254-1.02.55-1.339a1.446 1.446 0 011.102-.477c.453 0 .813.151 1.078.454.266.302.414.73.446 1.28v.082zm3.422 3.75v-4.518a1.91 1.91 0 01.62-.738c.266-.187.575-.281.926-.281.434 0 .753.11.958.328.206.219.31.557.314 1.014V311h1.084v-4.19c-.012-1.511-.688-2.267-2.027-2.267-.782 0-1.414.305-1.899.914l-.035-.797h-1.025V311h1.084zm7.388.117c.27 0 .547-.039.832-.117v-.879c-.218.047-.39.07-.515.07-.254 0-.434-.063-.54-.19-.105-.127-.158-.317-.158-.571v-3.932h1.184v-.838h-1.184v-1.535h-1.084v1.535h-1.154v.838h1.154v3.932c0 .539.123.955.37 1.248.246.293.61.44 1.095.44zm4.4 0c.723 0 1.311-.17 1.764-.513.453-.341.68-.795.68-1.362 0-.34-.081-.628-.243-.864-.162-.236-.411-.439-.747-.607-.336-.167-.775-.312-1.316-.433-.54-.121-.915-.248-1.122-.381a.658.658 0 01-.31-.592c0-.277.111-.502.334-.674.222-.171.53-.257.925-.257.383 0 .7.107.953.322.252.215.378.47.378.767h1.09c0-.578-.224-1.052-.672-1.423-.447-.371-1.03-.557-1.749-.557-.683 0-1.245.18-1.684.539-.44.36-.66.799-.66 1.318 0 .313.078.582.232.809.154.227.393.422.715.586.322.164.758.305 1.307.422.548.117.933.257 1.154.419.22.162.331.39.331.682 0 .278-.124.5-.372.665-.248.166-.577.25-.987.25-.446 0-.804-.107-1.076-.32a1.122 1.122 0 01-.436-.864h-1.084c0 .375.11.723.331 1.046.22.322.526.573.917.753.39.18.84.27 1.348.27z"/><path fill="#000000" fill-opacity=".12" d="M316 64h1v268h-1zM527 64h1v268h-1z"/></g></g></svg>