<svg width="860" height="156" xmlns="http://www.w3.org/2000/svg"><g fill="none" fill-rule="evenodd"><rect fill="none" width="860" height="156" rx="4"/><path d="M191 64h118v28H191a4 4 0 01-4-4V68a4 4 0 014-4z" fill="#2E7D32"/><path d="M257.597 81.157c.393 0 .763-.04 1.11-.12.345-.08.648-.208.907-.384a1.88 1.88 0 00.613-.686c.15-.282.224-.624.224-1.028 0-.226-.02-.457-.062-.694a6.81 6.81 0 00-.165-.707 7.944 7.944 0 00-.232-.686 16.718 16.718 0 00-.26-.631l-1.206.595a8.62 8.62 0 01.642 1.753c.038.163.057.29.057.38a.65.65 0 01-.159.46c-.106.114-.24.202-.402.263-.161.061-.337.101-.527.12-.19.02-.366.029-.53.029h-1.11v1.336h1.1zm.021 2.666l.887-.887-.897-.898-.887.892.897.893zm1.972.01l.887-.892-.897-.892-.887.887.897.897zm-.99 1.424l.813-.814-.814-.819-.819.814.82.82zm-1.895-4.1V79.82h-.235c-.135 0-.254-.014-.357-.042a.518.518 0 01-.391-.38 1.294 1.294 0 01-.04-.335v-.083c0-.108.001-.214.003-.318l.003-.158.002-.16.006-.337a25.071 25.071 0 00-.003-.918 35.016 35.016 0 01-.005-.587 27.333 27.333 0 00-.157-2.91 9.531 9.531 0 00-.104-.737l-1.31.391c.032.163.06.352.084.566.024.214.045.444.062.689a31.197 31.197 0 01.074 1.55 60.87 60.87 0 01.02 1.478c0 .37-.003.681-.01.937s-.01.44-.01.55c.003.717.187 1.253.553 1.607.365.355.9.533 1.607.533h.208zm-12.417 0c.243 0 .49-.01.74-.032.251-.02.493-.055.726-.102a4.06 4.06 0 00.65-.185c.2-.076.373-.17.519-.281.16.177.357.321.592.433.235.11.522.167.863.167h1.05l.262-.003a10.365 10.365 0 00.908-.052c.152-.016.278-.038.379-.065.33-.098.615-.245.855-.441a1.96 1.96 0 00.558-.754c.115-.265.173-.565.173-.903a3.73 3.73 0 00-.066-.647 8.067 8.067 0 00-.412-1.469 4.87 4.87 0 00-.279-.602l-1.216.6.17.357c.068.141.137.29.206.449.07.158.135.322.196.49.06.17.11.33.146.483.036.153.054.294.052.423a.552.552 0 01-.08.307.747.747 0 01-.32.248 2.294 2.294 0 01-.477.152c-.175.036-.359.06-.55.073a8.564 8.564 0 01-.543.018h-1.017a.555.555 0 01-.352-.104.72.72 0 01-.209-.267 1.338 1.338 0 01-.107-.357 5.333 5.333 0 01-.047-.373 86.74 86.74 0 00-.039-.438 8.834 8.834 0 00-.044-.389 6.325 6.325 0 00-.178-.853l-1.278.36.12.423c.035.121.064.234.086.336a4.4 4.4 0 01.06.566c-.01.237-.074.427-.19.572a1.126 1.126 0 01-.465.333c-.193.079-.413.13-.662.154a8.01 8.01 0 01-.78.037h-.465v1.336h.465zm5.415 2.478l.887-.887-.897-.898-.887.893.897.892zm1.973.01l.887-.892-.898-.892-.887.887.898.897zm-6.882.538l.887-.887-.898-.898-.886.892.897.893zm1.972.01l.887-.892-.897-.892-.887.887.897.897zm-7.758-5.567l1.002-1.002-1.002-.996-.997.996.997 1.002zm-.172 6.12c.507 0 .965-.05 1.372-.149.407-.099.764-.236 1.072-.412a3.185 3.185 0 001.32-1.406c.134-.282.225-.56.274-.837a4.562 4.562 0 00.068-.989c.111.063.243.112.396.149.153.036.324.055.512.055h.172V79.82h-.172a2.84 2.84 0 01-.337-.021.85.85 0 01-.357-.138 1.551 1.551 0 01-.373-.365 3.426 3.426 0 01-.39-.702c-.1-.237-.183-.434-.247-.592a4.14 4.14 0 00-.112-.264l-1.226.684c.003 0 .028.045.073.135a12.08 12.08 0 01.59 1.466c.066.202.122.401.169.598.047.196.074.375.08.535v.088c0 .181-.025.355-.077.522-.066.195-.16.376-.282.543-.122.167-.27.318-.444.453a2.824 2.824 0 01-.579.347 3.11 3.11 0 01-.67.214c-.235.047-.474.07-.718.07h-.052a3.001 3.001 0 01-.931-.164 2.517 2.517 0 01-.775-.427 2.05 2.05 0 01-.53-.655 1.822 1.822 0 01-.195-.845c0-.261.03-.52.091-.778.061-.257.133-.497.217-.72a4.75 4.75 0 01.263-.59c.092-.17.17-.298.232-.385l-1.027-.747a5.746 5.746 0 00-.97 3.188c0 .54.084 1.024.255 1.453.17.43.411.794.722 1.093.312.3.687.53 1.125.69.438.16.925.24 1.46.24z" fill="#FFF" fill-rule="nonzero"/><path fill="#7CB342" d="M309 64h243v28H309z"/><path d="M442.811 81.157c.41 0 .773-.074 1.088-.22.315-.146.61-.354.884-.626a6.083 6.083 0 001.06.59c.167.062.33.112.493.149.161.036.315.054.461.054.17 0 .334-.026.49-.078a1.677 1.677 0 00.802-.569c.106-.135.192-.287.258-.454.06-.156.103-.318.133-.485a3.137 3.137 0 00-.175-1.662 2.498 2.498 0 00-.276-.51 2.063 2.063 0 00-.389-.418 1.726 1.726 0 00-1.114-.384c-.247 0-.464.05-.652.149-.188.1-.355.228-.501.386a3.003 3.003 0 00-.391.535c-.115.198-.221.398-.319.6-.097.191-.2.383-.31.574-.11.191-.236.363-.38.516-.145.153-.311.278-.5.373a1.442 1.442 0 01-.662.144h-.104v1.336h.104zm4.232-1.357a.953.953 0 01-.23-.031c-.15-.032-.3-.079-.454-.141a4.634 4.634 0 01-.793-.417c.132-.265.244-.483.334-.655.09-.173.169-.31.235-.413.066-.102.122-.175.17-.219a.31.31 0 01.143-.08.771.771 0 01.151-.016c.101 0 .195.02.282.062.129.067.24.16.334.282.094.122.168.262.222.42.053.158.08.316.08.472v.053c0 .083-.007.16-.02.23a.976.976 0 01-.081.218.541.541 0 01-.11.149.246.246 0 01-.112.065.513.513 0 01-.151.021zm-6.355-3.464l1.002-1.002-1.002-.997-.997.997.997 1.002zm-1.466 4.82c.49 0 .907-.046 1.25-.14.342-.094.633-.24.873-.439.164.17.365.31.603.418.238.108.526.162.863.162h.105V79.82h-.105a.537.537 0 01-.347-.107.775.775 0 01-.211-.266 1.307 1.307 0 01-.112-.35 4.376 4.376 0 01-.05-.357 37.708 37.708 0 00-.039-.483 5.595 5.595 0 00-.222-1.155l-1.283.36c.09.31.16.567.209.774.048.207.073.37.073.488 0 .365-.135.64-.405.822-.27.183-.67.274-1.202.274h-.193v1.336h.193zm-5.03.1c.327 0 .674-.017 1.041-.05a6.65 6.65 0 001.104-.196 2.1 2.1 0 00.576.118c.231.019.533.029.905.029h1.42V79.82h-.976c.264-.362.414-.781.448-1.258v-.093c0-.29-.055-.56-.167-.814a2.316 2.316 0 00-.53-.73 2.478 2.478 0 00-.784-.491c-.3-.118-.61-.178-.934-.178-.254 0-.505.03-.752.09-.246.058-.486.142-.717.25a4.81 4.81 0 00-.673.383c-.217.148-.425.31-.623.488a6.2 6.2 0 00-.462.503 8.62 8.62 0 00-.384.504c-.114.163-.215.319-.302.467-.087.148-.162.28-.225.399a.726.726 0 01-.094-.149 1.205 1.205 0 01-.07-.182 1.49 1.49 0 01-.06-.394c0-.098.004-.186.013-.266a1.857 1.857 0 01.107-.447c.028-.07.06-.148.1-.232l-1.211-.401a4.73 4.73 0 00-.175.57c-.047.197-.097.39-.149.577a4.538 4.538 0 01-.185.538 1.59 1.59 0 01-.28.448c-.114.13-.256.23-.427.306-.17.074-.383.112-.636.112h-.147v1.336h.173c.434 0 .821-.063 1.16-.188.34-.126.645-.336.916-.632.122.153.258.287.407.402.15.115.337.21.561.287.224.077.5.134.827.172.327.039.729.058 1.205.058zm.146-1.367c-.094 0-.188-.002-.281-.006a7.997 7.997 0 01-.861-.062c.156-.275.33-.535.521-.78.192-.245.405-.465.64-.66.234-.195.492-.36.772-.496.28-.135.587-.233.92-.292a1.548 1.548 0 01.486.005c.17.032.331.086.482.165.152.078.281.179.39.302a.859.859 0 01.203.425 1.034 1.034 0 01-.29.577 1.968 1.968 0 01-.597.407c-.24.11-.51.196-.806.258-.298.063-.581.105-.85.125-.27.021-.513.032-.729.032zm-7.94-4.826l1.001-1.002-1.002-.997-.996.997.996 1.002zm-2.573 6.094c.25 0 .509-.01.775-.027s.52-.044.76-.08c.24-.037.456-.083.649-.139.193-.055.341-.121.446-.198.146.1.314.18.503.237.19.058.394.102.613.133.22.032.453.052.702.06.249.01.507.014.775.014h.104V79.82h-.14a7.177 7.177 0 01-1.106-.094 3.27 3.27 0 00.383-.707c.099-.252.148-.514.148-.785a2.462 2.462 0 00-.569-1.55 2.206 2.206 0 00-.628-.519 1.73 1.73 0 00-.785-.216h-.058c-.174 0-.342.03-.506.088-.184.066-.356.16-.516.28-.16.12-.306.26-.438.422a2.79 2.79 0 00-.337.52 2.405 2.405 0 00-.198.54c-.04.175-.06.334-.06.477 0 .045.001.09.005.135.003.178.03.34.08.488.051.148.112.28.183.397.072.116.15.217.233.302.083.085.16.15.23.196a5.29 5.29 0 01-.572.026h-.78v1.336h.104zm2.65-1.712a1.252 1.252 0 01-.385-.18 2.206 2.206 0 01-.334-.276 1.596 1.596 0 01-.235-.298.513.513 0 01-.089-.242c0-.192.036-.357.107-.496a1.263 1.263 0 01.59-.576c.116-.054.22-.09.31-.107.087.017.18.058.28.122a1.39 1.39 0 01.495.574.912.912 0 01.086.389c0 .097-.023.199-.07.305a1.492 1.492 0 01-.186.308 1.779 1.779 0 01-.568.477zm-2.545 1.712V79.82h-.235c-.136 0-.255-.014-.358-.042a.518.518 0 01-.391-.38 1.294 1.294 0 01-.039-.335v-.083c0-.108 0-.214.003-.318a602.818 602.818 0 00.01-.655 25.072 25.072 0 00-.003-.918 35.019 35.019 0 01-.005-.587 27.332 27.332 0 00-.156-2.91 9.53 9.53 0 00-.105-.737l-1.31.391c.032.163.06.352.084.566.025.214.045.444.063.689a31.199 31.199 0 01.073 1.55 60.896 60.896 0 01.02 1.478v.215c0 .277-.004.517-.01.722-.007.256-.01.44-.01.55.003.717.188 1.253.553 1.607.365.355.9.533 1.607.533h.209zm-5.573-5.703l1.002-1.002-1.002-.996-.996.996.996 1.002zm-.834 5.703c.393 0 .754-.043 1.082-.128.329-.086.612-.218.848-.397.237-.179.42-.409.553-.689.132-.28.198-.614.198-1.004 0-.226-.02-.457-.062-.694a6.81 6.81 0 00-.165-.707 7.944 7.944 0 00-.232-.686 16.718 16.718 0 00-.26-.631l-1.206.595a8.619 8.619 0 01.642 1.753c.038.163.057.29.057.38a.731.731 0 01-.133.46.858.858 0 01-.342.263 1.6 1.6 0 01-.466.12c-.173.02-.34.029-.504.029h-.84v1.336h.83zm-.621 0V79.82h-.105c-.107 0-.201-.006-.281-.018a.7.7 0 01-.209-.063.523.523 0 01-.157-.12.745.745 0 01-.12-.19 1.261 1.261 0 01-.05-.133 3.056 3.056 0 01-.08-.35 20.975 20.975 0 01-.112-.67 31.346 31.346 0 01-.204-1.662 149.438 149.438 0 01-.138-1.31l-.02-.206-1.32.282.067.793c-.174.07-.357.152-.55.248a6.051 6.051 0 00-.572.323c-.188.12-.367.253-.537.4-.17.145-.32.304-.449.474-.128.17-.231.353-.308.548-.076.195-.114.4-.114.616 0 .201.03.382.094.542.062.16.148.301.258.423.11.122.238.225.386.31.148.085.307.156.477.212.17.055.349.095.535.12.186.024.371.036.556.036.167 0 .337-.007.511-.02.174-.015.36-.036.558-.063.119.205.244.361.376.47.132.107.272.186.42.237.148.05.303.08.464.088.162.009.335.015.52.019h.104zm-2.985-2.056c-.121 0-.25-.006-.386-.018a2.417 2.417 0 01-.378-.063.949.949 0 01-.29-.12c-.076-.05-.114-.114-.114-.19a.51.51 0 01.08-.261c.054-.09.125-.18.212-.269a2.67 2.67 0 01.3-.26c.113-.086.229-.165.347-.238.118-.073.233-.14.344-.199.111-.059.212-.107.303-.146a47.17 47.17 0 01.115.963c.017.151.034.291.052.42.017.129.035.24.052.334a4.107 4.107 0 01-.637.047z" fill="#FFF" fill-rule="nonzero"/><path d="M552 64h117a4 4 0 014 4v20a4 4 0 01-4 4H552V64z" fill="#FBC02D"/><path d="M616.785 81.157c.393 0 .754-.043 1.083-.128.329-.086.611-.218.848-.397.236-.179.42-.409.553-.689.132-.28.198-.614.198-1.004 0-.226-.02-.457-.063-.694a6.81 6.81 0 00-.164-.707 7.944 7.944 0 00-.232-.686 16.718 16.718 0 00-.261-.631l-1.205.595a8.62 8.62 0 01.642 1.753c.038.163.057.29.057.38a.731.731 0 01-.133.46.858.858 0 01-.342.263 1.6 1.6 0 01-.467.12c-.172.02-.34.029-.503.029h-.84v1.336h.83zm.856 2.697l1.002-1.002-1.002-.996-.997.996.997 1.002zm-1.477-2.697V79.82h-.234c-.136 0-.255-.014-.358-.042a.518.518 0 01-.391-.38 1.294 1.294 0 01-.04-.335v-.083c0-.108.002-.214.003-.318l.003-.158.003-.16.005-.337a25.073 25.073 0 00-.003-.918 35.019 35.019 0 01-.005-.587 27.332 27.332 0 00-.157-2.91 9.531 9.531 0 00-.104-.737l-1.31.391c.032.163.06.352.084.566.024.214.045.444.063.689a31.199 31.199 0 01.073 1.55 60.859 60.859 0 01.02 1.478c0 .37-.003.681-.01.937s-.01.44-.01.55c.003.717.187 1.253.553 1.607.365.355.9.533 1.607.533h.208zm-7.643.39a5.616 5.616 0 001.088-.114 4.504 4.504 0 001.007-.334 3.177 3.177 0 001.278-1.09 3.52 3.52 0 00.344-.634c.096-.228.165-.449.206-.663.042-.214.063-.411.063-.592 0-.08-.004-.158-.01-.235l-.674-4.993-1.293.313.798 4.54c.02.114.031.224.031.328 0 .115-.012.226-.036.334a1.985 1.985 0 01-.22.56c-.097.166-.21.307-.339.423a1.501 1.501 0 01-.375.259c-.063-.258-.166-.6-.31-1.026a16.572 16.572 0 00-.57-1.426 19.604 19.604 0 00-.847-1.662c-.33-.583-.712-1.16-1.143-1.73l-.98 1.002.117.143.06.076a15.94 15.94 0 01.639.866 17.498 17.498 0 01.95 1.55c.158.292.301.591.43.897.128.306.237.616.326.929.089.313.145.619.17.918a3.605 3.605 0 01-.538.047 5.398 5.398 0 01-.56-.031 34.908 34.908 0 01-.478-.052l-.23 1.33c.317.045.638.068.965.068h.13z" fill="#FFF" fill-rule="nonzero"/><path stroke-opacity=".32" stroke="#000000" stroke-width=".5" stroke-linecap="round" stroke-dasharray="2,2" d="M187.5 101.25V92"/><g fill="#000000" fill-opacity=".56"><path d="M187.25 103.25h1v4h-1zM306.452 103.25h1v4h-1zM310.044 103.25h1v4h-1z"/><path d="M187.75 105h118.702v1H187.75z"/></g><g fill="#000000" fill-opacity=".56"><path d="M672.252 103.25h1v4h-1z"/><path d="M553.5 105h118.8v1H553.5z"/></g><path fill-opacity=".56" fill="#000000" fill-rule="nonzero" d="M246.542 121.28l1.46-2.373 1.467 2.374h1.252l-2.14-3.204 2.077-3.136h-1.268l-1.403 2.312-1.388-2.312h-1.257l2.076 3.136-2.139 3.204zM611.042 121.28l1.46-2.373 1.467 2.374h1.252l-2.14-3.204 2.077-3.136h-1.268l-1.403 2.312-1.388-2.312h-1.257l2.076 3.136-2.139 3.204z"/><path stroke-opacity=".32" stroke="#000000" stroke-width=".5" stroke-linecap="round" stroke-dasharray="2,2" d="M308.5 101.25V92M672.3 101.25V92"/><g fill="#000000" fill-opacity=".56"><path d="M549.384 103.25h1v4h-1zM553 103.25h1v4h-1z"/><path d="M310.5 105h239v1h-239z"/></g><path d="M430.315 122.051v-.887h-4.284l2.286-2.478c1.07-1.158 1.606-2.158 1.606-3 0-.689-.23-1.242-.69-1.66-.462-.417-1.089-.625-1.882-.625-.848 0-1.526.242-2.032.727-.506.486-.759 1.121-.759 1.907h1.085c0-.55.15-.977.449-1.283.299-.306.718-.46 1.257-.46.449 0 .808.143 1.078.429.27.285.404.65.404 1.095 0 .334-.083.656-.248.965-.165.31-.467.713-.905 1.21l-2.953 3.283v.777h5.588zm1.946 0l1.46-2.374 1.467 2.374h1.252l-2.14-3.203 2.077-3.136h-1.267l-1.404 2.311-1.388-2.311h-1.257l2.076 3.136-2.139 3.203h1.263z" fill-opacity=".56" fill="#000000" fill-rule="nonzero"/><path stroke-opacity=".32" stroke="#000000" stroke-width=".5" stroke-linecap="round" stroke-dasharray="2,2" d="M551.5 101.25V92"/></g></svg>