<svg xmlns="http://www.w3.org/2000/svg" width="667" height="260" viewBox="0 0 667 260">
<style>
<!-- style="animation:mouse_move 6000ms ease-out infinite" -->
@keyframes lin_deter {
0%{
transform:scaleX(0);
}
20%{
transform:scaleX(40);
}
40%{
transform:scaleX(72);
}
100%{
transform:scaleX(113);
}
}
@keyframes box_deter {
0%{
transform:scale(1, 0) translate(0px, 16.059px);
opacity:0
}
10%{
transform:scale(1, 0.5) translate(0px, 16.059px);
opacity:1
}
20%{
transform:scale(1, 1) translate(0px, 16.059px);
opacity:1
}
94%{
transform:scale(1, 1) translate(0px, 16.059px);
opacity:1
}
96%{
transform:scale(1, .5) translate(0px, 16.059px);
opacity:.5
}
100%{
transform:scale(1, 0) translate(0px, 16.059px);
opacity:0
}
}
@keyframes lin_indeter {
0%{
transform: scaleX(0) ;
}
60%{
transform: scaleX(60) ;
}
100%{
transform: scaleX(0) ;
}
}
@keyframes lin_indeter_move {
0%{
transform: translate(-2px) ;
}
100%{
transform: translate(240px) ;
}
}
@keyframes lin_indeter_move {
0%{
transform: translate(-2px) ;
}
100%{
transform: translate(240px) ;
}
}
@keyframes spin_deter{
0%{
stroke-dasharray: 0, 100;
stroke-dashoffset: 0;
opacity:0
}
 20%{
opacity:1
}
20%{
 stroke-dasharray: 16.63, 100;
stroke-dashoffset: 0;
}
40%{
 stroke-dasharray: 29.94, 100;
stroke-dashoffset: 0;
}
 92%{
opacity:1
}
100%{
stroke-dasharray: 47, 100;
stroke-dashoffset: 0;
opacity:0
}
}
@keyframes snakeProgress{
  0%,to{
    opacity:.2; transform:translateY(1px)
  }
  50%{
    opacity:1;
    transform:translateY(-4px)
}
}
@keyframes ioSpinner {
0% {
transform: translateX(-20px);
opacity: 0;
}
50% {
opacity: 1;
}
100% {
transform: translateX(20px);
opacity: 0;
}
}
  @keyframes svgRotateSpinnerMoving {
    0% {
      stroke-dasharray: 1, 100;
      stroke-dashoffset: 0;
    }
    50% {
      stroke-dasharray: 80, 100;
      stroke-dashoffset: 46;
    }
    100% {
      stroke-dasharray: 1, 100;
      stroke-dashoffset: 0;
    }
  }
    @keyframes svgRotateSpinner {
        0% {
      transform:translate(321px, 126px) rotate(0deg);
      transform-origin:8.5px 8.5px
    }
    100% {
      transform:translate(321px, 126px)  rotate(360deg);
      transform-origin:8.5px 8.5px
    }
  }
}
</style>
<g fill="none" fill-rule="evenodd" style="transform:translateX(24px)" >
<rect width="667" height="260"  />
<g transform="translate(54 32)">
<path fill="#000000" fill-opacity=".56" fill-rule="nonzero" d="M3.44695652 5.76695652L3.44695652 5.15478261.754782609 5.15478261.754782609.08 0 .08 0 5.76695652 3.44695652 5.76695652zM4.6226087.827826087C4.76173913.827826087 4.86782609.788985507 4.94086957.711304348 5.01391304.633623188 5.05043478.535652174 5.05043478.417391304 5.05043478.301449275 5.01391304.202898551 4.94086957.12173913 4.86782609.0405797101 4.76173913 0 4.6226087 0 4.48115942 0 4.37449275.0405797101 4.3026087.12173913 4.23072464.202898551 4.19478261.302608696 4.19478261.420869565 4.19478261.536811594 4.23072464.633623188 4.3026087.711304348 4.37449275.788985507 4.48115942.827826087 4.6226087.827826087zM4.9773913 5.76695652L4.9773913 1.54086957 4.25391304 1.54086957 4.25391304 5.76695652 4.9773913 5.76695652zM6.85565217 5.76695652L6.85565217 2.75478261C6.95536232 2.55304348 7.09333333 2.38956522 7.26956522 2.26434783 7.4457971 2.13913043 7.65101449 2.07652174 7.88521739 2.07652174 8.17507246 2.07652174 8.3884058 2.14956522 8.52521739 2.29565217 8.66202899 2.44173913 8.7315942 2.66666667 8.73391304 2.97043478L8.73391304 2.97043478 8.73391304 5.76695652 9.4573913 5.76695652 9.4573913 2.97391304C9.45043478 1.96521739 8.99942029 1.46086957 8.10434783 1.46086957 7.58492754 1.46086957 7.16289855 1.66492754 6.83826087 2.07304348L6.83826087 2.07304348 6.8173913 1.54086957 6.13217391 1.54086957 6.13217391 5.76695652 6.85565217 5.76695652zM12.2991304 5.84347826C13.0086957 5.84347826 13.5408696 5.57217391 13.8956522 5.02956522L13.8956522 5.02956522 13.453913 4.68521739C13.3194203 4.85681159 13.164058 4.99478261 12.9878261 5.09913043 12.8115942 5.20347826 12.595942 5.25565217 12.3408696 5.25565217 11.9814493 5.25565217 11.6852174 5.12753623 11.4521739 4.87130435 11.2191304 4.61507246 11.0968116 4.27826087 11.0852174 3.86086957L11.0852174 3.86086957 13.9478261 3.86086957 13.9478261 3.55826087C13.9478261 2.8857971 13.795942 2.36811594 13.4921739 2.00521739 13.1884058 1.64231884 12.7617391 1.46086957 12.2121739 1.46086957 11.875942 1.46086957 11.564058 1.5542029 11.2765217 1.74086957 10.9889855 1.92753623 10.7646377 2.18550725 10.6034783 2.51478261 10.4423188 2.84405797 10.3617391 3.21855072 10.3617391 3.63826087L10.3617391 3.63826087 10.3617391 3.77043478C10.3617391 4.40115942 10.5414493 4.90434783 10.9008696 5.28 11.2602899 5.65565217 11.7263768 5.84347826 12.2991304 5.84347826zM13.2278261 3.26608696L11.1095652 3.26608696C11.155942 2.88347826 11.2782609 2.58608696 11.4765217 2.37391304 11.6747826 2.16173913 11.92 2.05565217 12.2121739 2.05565217 12.5136232 2.05565217 12.7530435 2.15652174 12.9304348 2.35826087 13.1078261 2.56 13.2069565 2.84521739 13.2278261 3.21391304L13.2278261 3.21391304 13.2278261 3.26608696zM16.0904348 5.84347826C16.5565217 5.84347826 16.9576812 5.66956522 17.293913 5.32173913 17.3194203 5.53507246 17.3530435 5.68347826 17.3947826 5.76695652L17.3947826 5.76695652 18.1530435 5.76695652 18.1530435 5.70434783C18.0556522 5.47478261 18.0069565 5.16637681 18.0069565 4.77913043L18.0069565 4.77913043 18.0069565 2.83478261C17.9953623 2.4057971 17.8515942 2.06956522 17.5756522 1.82608696 17.2997101 1.5826087 16.9182609 1.46086957 16.4313043 1.46086957 16.1252174 1.46086957 15.8434783 1.51826087 15.586087 1.63304348 15.3286957 1.74782609 15.1252174 1.90376812 14.9756522 2.10086957 14.826087 2.29797101 14.7513043 2.50202899 14.7513043 2.71304348L14.7513043 2.71304348 15.4782609 2.71304348C15.4782609 2.52753623 15.5652174 2.36985507 15.7391304 2.24 15.9130435 2.11014493 16.1298551 2.04521739 16.3895652 2.04521739 16.684058 2.04521739 16.9066667 2.12 17.0573913 2.26956522 17.2081159 2.41913043 17.2834783 2.62028986 17.2834783 2.87304348L17.2834783 2.87304348 17.2834783 3.20347826 16.5808696 3.20347826C15.9733333 3.20347826 15.502029 3.32521739 15.1669565 3.56869565 14.8318841 3.81217391 14.6643478 4.1542029 14.6643478 4.59478261 14.6643478 4.95652174 14.7982609 5.25507246 15.066087 5.49043478 15.333913 5.7257971 15.6753623 5.84347826 16.0904348 5.84347826zM16.1982609 5.2173913C15.9594203 5.2173913 15.7646377 5.15362319 15.613913 5.02608696 15.4631884 4.89855072 15.3878261 4.72115942 15.3878261 4.49391304 15.3878261 3.97449275 15.8307246 3.71478261 16.7165217 3.71478261L16.7165217 3.71478261 17.2834783 3.71478261 17.2834783 4.58434783C17.1930435 4.77217391 17.0457971 4.92463768 16.8417391 5.04173913 16.6376812 5.15884058 16.4231884 5.2173913 16.1982609 5.2173913zM19.8608696 5.76695652L19.8608696 2.76521739C20.0301449 2.36173913 20.3513043 2.16 20.8243478 2.16 20.9518841 2.16 21.0713043 2.16927536 21.1826087 2.18782609L21.1826087 2.18782609 21.1826087 1.51652174C21.1084058 1.47942029 21.0005797 1.46086957 20.8591304 1.46086957 20.4255072 1.46086957 20.0904348 1.64985507 19.853913 2.02782609L19.853913 2.02782609 19.84 1.54086957 19.1373913 1.54086957 19.1373913 5.76695652 19.8608696 5.76695652zM1.57217391 15.7669565C2.08463768 15.7623188 2.53275362 15.6515942 2.91652174 15.4347826 3.30028986 15.217971 3.59536232 14.9078261 3.80173913 14.5043478 4.00811594 14.1008696 4.11130435 13.6313043 4.11130435 13.0956522L4.11130435 13.0956522 4.11130435 12.7304348C4.10898551 12.2086957 4.00463768 11.746087 3.79826087 11.3426087 3.59188406 10.9391304 3.29855072 10.6278261 2.91826087 10.4086957 2.53797101 10.1895652 2.09971014 10.08 1.60347826 10.08L1.60347826 10.08 0 10.08 0 15.7669565 1.57217391 15.7669565zM1.5373913 15.1547826L.747826087 15.1547826.747826087 10.6956522 1.62434783 10.6956522C2.18086957 10.7026087 2.61101449 10.8846377 2.91478261 11.2417391 3.21855072 11.5988406 3.37043478 12.1008696 3.37043478 12.7478261L3.37043478 12.7478261 3.37043478 13.0782609C3.37043478 13.7437681 3.20985507 14.2562319 2.88869565 14.6156522 2.56753623 14.9750725 2.11710145 15.1547826 1.5373913 15.1547826L1.5373913 15.1547826zM6.88347826 15.8434783C7.59304348 15.8434783 8.12521739 15.5721739 8.48 15.0295652L8.48 15.0295652 8.03826087 14.6852174C7.90376812 14.8568116 7.7484058 14.9947826 7.57217391 15.0991304 7.39594203 15.2034783 7.18028986 15.2556522 6.92521739 15.2556522 6.5657971 15.2556522 6.26956522 15.1275362 6.03652174 14.8713043 5.80347826 14.6150725 5.68115942 14.2782609 5.66956522 13.8608696L5.66956522 13.8608696 8.53217391 13.8608696 8.53217391 13.5582609C8.53217391 12.8857971 8.38028986 12.3681159 8.07652174 12.0052174 7.77275362 11.6423188 7.34608696 11.4608696 6.79652174 11.4608696 6.46028986 11.4608696 6.1484058 11.5542029 5.86086957 11.7408696 5.57333333 11.9275362 5.34898551 12.1855072 5.18782609 12.5147826 5.02666667 12.844058 4.94608696 13.2185507 4.94608696 13.6382609L4.94608696 13.6382609 4.94608696 13.7704348C4.94608696 14.4011594 5.1257971 14.9043478 5.48521739 15.28 5.84463768 15.6556522 6.31072464 15.8434783 6.88347826 15.8434783zM7.81217391 13.266087L5.69391304 13.266087C5.74028986 12.8834783 5.8626087 12.586087 6.06086957 12.373913 6.25913043 12.1617391 6.50434783 12.0556522 6.79652174 12.0556522 7.09797101 12.0556522 7.3373913 12.1565217 7.51478261 12.3582609 7.69217391 12.56 7.79130435 12.8452174 7.81217391 13.213913L7.81217391 13.213913 7.81217391 13.266087zM10.6052174 15.8434783C10.786087 15.8434783 10.9715942 15.817971 11.1617391 15.7669565L11.1617391 15.7669565 11.1617391 15.1826087C11.0156522 15.2127536 10.9008696 15.2278261 10.8173913 15.2278261 10.6481159 15.2278261 10.5281159 15.1855072 10.4573913 15.1008696 10.3866667 15.0162319 10.3513043 14.8892754 10.3513043 14.72L10.3513043 14.72 10.3513043 12.0973913 11.1408696 12.0973913 11.1408696 11.5408696 10.3513043 11.5408696 10.3513043 10.5182609 9.62782609 10.5182609 9.62782609 11.5408696 8.85913043 11.5408696 8.85913043 12.0973913 9.62782609 12.0973913 9.62782609 14.72C9.62782609 15.0794203 9.71014493 15.3565217 9.87478261 15.5513043 10.0394203 15.746087 10.2828986 15.8434783 10.6052174 15.8434783zM13.7356522 15.8434783C14.4452174 15.8434783 14.9773913 15.5721739 15.3321739 15.0295652L15.3321739 15.0295652 14.8904348 14.6852174C14.755942 14.8568116 14.6005797 14.9947826 14.4243478 15.0991304 14.2481159 15.2034783 14.0324638 15.2556522 13.7773913 15.2556522 13.417971 15.2556522 13.1217391 15.1275362 12.8886957 14.8713043 12.6556522 14.6150725 12.5333333 14.2782609 12.5217391 13.8608696L12.5217391 13.8608696 15.3843478 13.8608696 15.3843478 13.5582609C15.3843478 12.8857971 15.2324638 12.3681159 14.9286957 12.0052174 14.6249275 11.6423188 14.1982609 11.4608696 13.6486957 11.4608696 13.3124638 11.4608696 13.0005797 11.5542029 12.7130435 11.7408696 12.4255072 11.9275362 12.2011594 12.1855072 12.04 12.5147826 11.8788406 12.844058 11.7982609 13.2185507 11.7982609 13.6382609L11.7982609 13.6382609 11.7982609 13.7704348C11.7982609 14.4011594 11.977971 14.9043478 12.3373913 15.28 12.6968116 15.6556522 13.1628986 15.8434783 13.7356522 15.8434783zM14.6643478 13.266087L12.546087 13.266087C12.5924638 12.8834783 12.7147826 12.586087 12.9130435 12.373913 13.1113043 12.1617391 13.3565217 12.0556522 13.6486957 12.0556522 13.9501449 12.0556522 14.1895652 12.1565217 14.3669565 12.3582609 14.5443478 12.56 14.6434783 12.8452174 14.6643478 13.213913L14.6643478 13.213913 14.6643478 13.266087zM16.946087 15.7669565L16.946087 12.7652174C17.1153623 12.3617391 17.4365217 12.16 17.9095652 12.16 18.0371014 12.16 18.1565217 12.1692754 18.2678261 12.1878261L18.2678261 12.1878261 18.2678261 11.5165217C18.1936232 11.4794203 18.0857971 11.4608696 17.9443478 11.4608696 17.5107246 11.4608696 17.1756522 11.6498551 16.9391304 12.0278261L16.9391304 12.0278261 16.9252174 11.5408696 16.2226087 11.5408696 16.2226087 15.7669565 16.946087 15.7669565zM19.6486957 15.7669565L19.6486957 12.6817391C19.8226087 12.2782609 20.1472464 12.0765217 20.6226087 12.0765217 21.2231884 12.0765217 21.5234783 12.3837681 21.5234783 12.9982609L21.5234783 12.9982609 21.5234783 15.7669565 22.2504348 15.7669565 22.2504348 12.9634783C22.2782609 12.6921739 22.3808696 12.4765217 22.5582609 12.3165217 22.7356522 12.1565217 22.9588406 12.0765217 23.2278261 12.0765217 23.5524638 12.0765217 23.7837681 12.1513043 23.9217391 12.3008696 24.0597101 12.4504348 24.1286957 12.675942 24.1286957 12.9773913L24.1286957 12.9773913 24.1286957 15.7669565 24.8521739 15.7669565 24.8521739 12.9356522C24.835942 11.9524638 24.364058 11.4608696 23.4365217 11.4608696 23.1304348 11.4608696 22.8643478 11.5234783 22.6382609 11.6486957 22.4121739 11.773913 22.2295652 11.9385507 22.0904348 12.1426087 21.8771014 11.6881159 21.4747826 11.4608696 20.8834783 11.4608696 20.3571014 11.4608696 19.9385507 11.644058 19.6278261 12.0104348L19.6278261 12.0104348 19.6104348 11.5408696 18.9252174 11.5408696 18.9252174 15.7669565 19.6486957 15.7669565zM26.3721739 10.8278261C26.5113043 10.8278261 26.6173913 10.7889855 26.6904348 10.7113043 26.7634783 10.6336232 26.8 10.5356522 26.8 10.4173913 26.8 10.3014493 26.7634783 10.2028986 26.6904348 10.1217391 26.6173913 10.0405797 26.5113043 10 26.3721739 10 26.2307246 10 26.124058 10.0405797 26.0521739 10.1217391 25.9802899 10.2028986 25.9443478 10.3026087 25.9443478 10.4208696 25.9443478 10.5368116 25.9802899 10.6336232 26.0521739 10.7113043 26.124058 10.7889855 26.2307246 10.8278261 26.3721739 10.8278261zM26.7269565 15.7669565L26.7269565 11.5408696 26.0034783 11.5408696 26.0034783 15.7669565 26.7269565 15.7669565zM28.6052174 15.7669565L28.6052174 12.7547826C28.7049275 12.5530435 28.8428986 12.3895652 29.0191304 12.2643478 29.1953623 12.1391304 29.4005797 12.0765217 29.6347826 12.0765217 29.9246377 12.0765217 30.137971 12.1495652 30.2747826 12.2956522 30.4115942 12.4417391 30.4811594 12.6666667 30.4834783 12.9704348L30.4834783 12.9704348 30.4834783 15.7669565 31.2069565 15.7669565 31.2069565 12.973913C31.2 11.9652174 30.7489855 11.4608696 29.853913 11.4608696 29.3344928 11.4608696 28.9124638 11.6649275 28.5878261 12.0730435L28.5878261 12.0730435 28.5669565 11.5408696 27.8817391 11.5408696 27.8817391 15.7669565 28.6052174 15.7669565zM33.6 15.8434783C34.066087 15.8434783 34.4672464 15.6695652 34.8034783 15.3217391 34.8289855 15.5350725 34.8626087 15.6834783 34.9043478 15.7669565L34.9043478 15.7669565 35.6626087 15.7669565 35.6626087 15.7043478C35.5652174 15.4747826 35.5165217 15.1663768 35.5165217 14.7791304L35.5165217 14.7791304 35.5165217 12.8347826C35.5049275 12.4057971 35.3611594 12.0695652 35.0852174 11.826087 34.8092754 11.5826087 34.4278261 11.4608696 33.9408696 11.4608696 33.6347826 11.4608696 33.3530435 11.5182609 33.0956522 11.6330435 32.8382609 11.7478261 32.6347826 11.9037681 32.4852174 12.1008696 32.3356522 12.297971 32.2608696 12.502029 32.2608696 12.7130435L32.2608696 12.7130435 32.9878261 12.7130435C32.9878261 12.5275362 33.0747826 12.3698551 33.2486957 12.24 33.4226087 12.1101449 33.6394203 12.0452174 33.8991304 12.0452174 34.1936232 12.0452174 34.4162319 12.12 34.5669565 12.2695652 34.7176812 12.4191304 34.7930435 12.6202899 34.7930435 12.8730435L34.7930435 12.8730435 34.7930435 13.2034783 34.0904348 13.2034783C33.4828986 13.2034783 33.0115942 13.3252174 32.6765217 13.5686957 32.3414493 13.8121739 32.173913 14.1542029 32.173913 14.5947826 32.173913 14.9565217 32.3078261 15.2550725 32.5756522 15.4904348 32.8434783 15.7257971 33.1849275 15.8434783 33.6 15.8434783zM33.7078261 15.2173913C33.4689855 15.2173913 33.2742029 15.1536232 33.1234783 15.026087 32.9727536 14.8985507 32.8973913 14.7211594 32.8973913 14.493913 32.8973913 13.9744928 33.3402899 13.7147826 34.226087 13.7147826L34.226087 13.7147826 34.7930435 13.7147826 34.7930435 14.5843478C34.7026087 14.7721739 34.5553623 14.9246377 34.3513043 15.0417391 34.1472464 15.1588406 33.9327536 15.2173913 33.7078261 15.2173913zM37.8817391 15.8434783C38.0626087 15.8434783 38.2481159 15.817971 38.4382609 15.7669565L38.4382609 15.7669565 38.4382609 15.1826087C38.2921739 15.2127536 38.1773913 15.2278261 38.093913 15.2278261 37.9246377 15.2278261 37.8046377 15.1855072 37.733913 15.1008696 37.6631884 15.0162319 37.6278261 14.8892754 37.6278261 14.72L37.6278261 14.72 37.6278261 12.0973913 38.4173913 12.0973913 38.4173913 11.5408696 37.6278261 11.5408696 37.6278261 10.5182609 36.9043478 10.5182609 36.9043478 11.5408696 36.1356522 11.5408696 36.1356522 12.0973913 36.9043478 12.0973913 36.9043478 14.72C36.9043478 15.0794203 36.9866667 15.3565217 37.1513043 15.5513043 37.315942 15.746087 37.5594203 15.8434783 37.8817391 15.8434783zM41.0121739 15.8434783C41.7217391 15.8434783 42.253913 15.5721739 42.6086957 15.0295652L42.6086957 15.0295652 42.1669565 14.6852174C42.0324638 14.8568116 41.8771014 14.9947826 41.7008696 15.0991304 41.5246377 15.2034783 41.3089855 15.2556522 41.053913 15.2556522 40.6944928 15.2556522 40.3982609 15.1275362 40.1652174 14.8713043 39.9321739 14.6150725 39.8098551 14.2782609 39.7982609 13.8608696L39.7982609 13.8608696 42.6608696 13.8608696 42.6608696 13.5582609C42.6608696 12.8857971 42.5089855 12.3681159 42.2052174 12.0052174 41.9014493 11.6423188 41.4747826 11.4608696 40.9252174 11.4608696 40.5889855 11.4608696 40.2771014 11.5542029 39.9895652 11.7408696 39.702029 11.9275362 39.4776812 12.1855072 39.3165217 12.5147826 39.1553623 12.844058 39.0747826 13.2185507 39.0747826 13.6382609L39.0747826 13.6382609 39.0747826 13.7704348C39.0747826 14.4011594 39.2544928 14.9043478 39.613913 15.28 39.9733333 15.6556522 40.4394203 15.8434783 41.0121739 15.8434783zM41.9408696 13.266087L39.8226087 13.266087C39.8689855 12.8834783 39.9913043 12.586087 40.1895652 12.373913 40.3878261 12.1617391 40.6330435 12.0556522 40.9252174 12.0556522 41.2266667 12.0556522 41.466087 12.1565217 41.6434783 12.3582609 41.8208696 12.56 41.92 12.8452174 41.9408696 13.213913L41.9408696 13.213913 41.9408696 13.266087zM3.44695652 119.766957L3.44695652 119.154783.754782609 119.154783.754782609 114.08 0 114.08 0 119.766957 3.44695652 119.766957zM4.6226087 114.827826C4.76173913 114.827826 4.86782609 114.788986 4.94086957 114.711304 5.01391304 114.633623 5.05043478 114.535652 5.05043478 114.417391 5.05043478 114.301449 5.01391304 114.202899 4.94086957 114.121739 4.86782609 114.04058 4.76173913 114 4.6226087 114 4.48115942 114 4.37449275 114.04058 4.3026087 114.121739 4.23072464 114.202899 4.19478261 114.302609 4.19478261 114.42087 4.19478261 114.536812 4.23072464 114.633623 4.3026087 114.711304 4.37449275 114.788986 4.48115942 114.827826 4.6226087 114.827826zM4.9773913 119.766957L4.9773913 115.54087 4.25391304 115.54087 4.25391304 119.766957 4.9773913 119.766957zM6.85565217 119.766957L6.85565217 116.754783C6.95536232 116.553043 7.09333333 116.389565 7.26956522 116.264348 7.4457971 116.13913 7.65101449 116.076522 7.88521739 116.076522 8.17507246 116.076522 8.3884058 116.149565 8.52521739 116.295652 8.66202899 116.441739 8.7315942 116.666667 8.73391304 116.970435L8.73391304 116.970435 8.73391304 119.766957 9.4573913 119.766957 9.4573913 116.973913C9.45043478 115.965217 8.99942029 115.46087 8.10434783 115.46087 7.58492754 115.46087 7.16289855 115.664928 6.83826087 116.073043L6.83826087 116.073043 6.8173913 115.54087 6.13217391 115.54087 6.13217391 119.766957 6.85565217 119.766957zM12.2991304 119.843478C13.0086957 119.843478 13.5408696 119.572174 13.8956522 119.029565L13.8956522 119.029565 13.453913 118.685217C13.3194203 118.856812 13.164058 118.994783 12.9878261 119.09913 12.8115942 119.203478 12.595942 119.255652 12.3408696 119.255652 11.9814493 119.255652 11.6852174 119.127536 11.4521739 118.871304 11.2191304 118.615072 11.0968116 118.278261 11.0852174 117.86087L11.0852174 117.86087 13.9478261 117.86087 13.9478261 117.558261C13.9478261 116.885797 13.795942 116.368116 13.4921739 116.005217 13.1884058 115.642319 12.7617391 115.46087 12.2121739 115.46087 11.875942 115.46087 11.564058 115.554203 11.2765217 115.74087 10.9889855 115.927536 10.7646377 116.185507 10.6034783 116.514783 10.4423188 116.844058 10.3617391 117.218551 10.3617391 117.638261L10.3617391 117.638261 10.3617391 117.770435C10.3617391 118.401159 10.5414493 118.904348 10.9008696 119.28 11.2602899 119.655652 11.7263768 119.843478 12.2991304 119.843478zM13.2278261 117.266087L11.1095652 117.266087C11.155942 116.883478 11.2782609 116.586087 11.4765217 116.373913 11.6747826 116.161739 11.92 116.055652 12.2121739 116.055652 12.5136232 116.055652 12.7530435 116.156522 12.9304348 116.358261 13.1078261 116.56 13.2069565 116.845217 13.2278261 117.213913L13.2278261 117.213913 13.2278261 117.266087zM16.0904348 119.843478C16.5565217 119.843478 16.9576812 119.669565 17.293913 119.321739 17.3194203 119.535072 17.3530435 119.683478 17.3947826 119.766957L17.3947826 119.766957 18.1530435 119.766957 18.1530435 119.704348C18.0556522 119.474783 18.0069565 119.166377 18.0069565 118.77913L18.0069565 118.77913 18.0069565 116.834783C17.9953623 116.405797 17.8515942 116.069565 17.5756522 115.826087 17.2997101 115.582609 16.9182609 115.46087 16.4313043 115.46087 16.1252174 115.46087 15.8434783 115.518261 15.586087 115.633043 15.3286957 115.747826 15.1252174 115.903768 14.9756522 116.10087 14.826087 116.297971 14.7513043 116.502029 14.7513043 116.713043L14.7513043 116.713043 15.4782609 116.713043C15.4782609 116.527536 15.5652174 116.369855 15.7391304 116.24 15.9130435 116.110145 16.1298551 116.045217 16.3895652 116.045217 16.684058 116.045217 16.9066667 116.12 17.0573913 116.269565 17.2081159 116.41913 17.2834783 116.62029 17.2834783 116.873043L17.2834783 116.873043 17.2834783 117.203478 16.5808696 117.203478C15.9733333 117.203478 15.502029 117.325217 15.1669565 117.568696 14.8318841 117.812174 14.6643478 118.154203 14.6643478 118.594783 14.6643478 118.956522 14.7982609 119.255072 15.066087 119.490435 15.333913 119.725797 15.6753623 119.843478 16.0904348 119.843478zM16.1982609 119.217391C15.9594203 119.217391 15.7646377 119.153623 15.613913 119.026087 15.4631884 118.898551 15.3878261 118.721159 15.3878261 118.493913 15.3878261 117.974493 15.8307246 117.714783 16.7165217 117.714783L16.7165217 117.714783 17.2834783 117.714783 17.2834783 118.584348C17.1930435 118.772174 17.0457971 118.924638 16.8417391 119.041739 16.6376812 119.158841 16.4231884 119.217391 16.1982609 119.217391zM19.8608696 119.766957L19.8608696 116.765217C20.0301449 116.361739 20.3513043 116.16 20.8243478 116.16 20.9518841 116.16 21.0713043 116.169275 21.1826087 116.187826L21.1826087 116.187826 21.1826087 115.516522C21.1084058 115.47942 21.0005797 115.46087 20.8591304 115.46087 20.4255072 115.46087 20.0904348 115.649855 19.853913 116.027826L19.853913 116.027826 19.84 115.54087 19.1373913 115.54087 19.1373913 119.766957 19.8608696 119.766957zM.803478261 129.766957L.803478261 124.08.0556521739 124.08.0556521739 129.766957.803478261 129.766957zM2.78608696 129.766957L2.78608696 126.754783C2.8857971 126.553043 3.02376812 126.389565 3.2 126.264348 3.37623188 126.13913 3.58144928 126.076522 3.81565217 126.076522 4.10550725 126.076522 4.31884058 126.149565 4.45565217 126.295652 4.59246377 126.441739 4.66202899 126.666667 4.66434783 126.970435L4.66434783 126.970435 4.66434783 129.766957 5.38782609 129.766957 5.38782609 126.973913C5.38086957 125.965217 4.92985507 125.46087 4.03478261 125.46087 3.51536232 125.46087 3.09333333 125.664928 2.76869565 126.073043L2.76869565 126.073043 2.74782609 125.54087 2.0626087 125.54087 2.0626087 129.766957 2.78608696 129.766957zM7.96173913 129.843478C8.47652174 129.843478 8.87884058 129.667246 9.16869565 129.314783L9.16869565 129.314783 9.20347826 129.766957 9.86782609 129.766957 9.86782609 123.766957 9.14434783 123.766957 9.14434783 125.968696C8.85681159 125.630145 8.46492754 125.46087 7.96869565 125.46087 7.47246377 125.46087 7.07072464 125.658551 6.76347826 126.053913 6.45623188 126.449275 6.3026087 126.970435 6.3026087 127.617391L6.3026087 127.617391 6.3026087 127.673043C6.3026087 128.32 6.45681159 128.843478 6.76521739 129.243478 7.07362319 129.643478 7.47246377 129.843478 7.96173913 129.843478zM8.1426087 129.231304C7.79246377 129.231304 7.51826087 129.096232 7.32 128.826087 7.12173913 128.555942 7.0226087 128.18087 7.0226087 127.70087 7.0226087 127.165217 7.12173913 126.76058 7.32 126.486957 7.51826087 126.213333 7.79478261 126.076522 8.14956522 126.076522 8.59710145 126.076522 8.92869565 126.275942 9.14434783 126.674783L9.14434783 126.674783 9.14434783 128.615652C8.93333333 129.026087 8.59942029 129.231304 8.1426087 129.231304zM12.7408696 129.843478C13.4504348 129.843478 13.9826087 129.572174 14.3373913 129.029565L14.3373913 129.029565 13.8956522 128.685217C13.7611594 128.856812 13.6057971 128.994783 13.4295652 129.09913 13.2533333 129.203478 13.0376812 129.255652 12.7826087 129.255652 12.4231884 129.255652 12.1269565 129.127536 11.893913 128.871304 11.6608696 128.615072 11.5385507 128.278261 11.5269565 127.86087L11.5269565 127.86087 14.3895652 127.86087 14.3895652 127.558261C14.3895652 126.885797 14.2376812 126.368116 13.933913 126.005217 13.6301449 125.642319 13.2034783 125.46087 12.653913 125.46087 12.3176812 125.46087 12.0057971 125.554203 11.7182609 125.74087 11.4307246 125.927536 11.2063768 126.185507 11.0452174 126.514783 10.884058 126.844058 10.8034783 127.218551 10.8034783 127.638261L10.8034783 127.638261 10.8034783 127.770435C10.8034783 128.401159 10.9831884 128.904348 11.3426087 129.28 11.702029 129.655652 12.1681159 129.843478 12.7408696 129.843478zM13.6695652 127.266087L11.5513043 127.266087C11.5976812 126.883478 11.72 126.586087 11.9182609 126.373913 12.1165217 126.161739 12.3617391 126.055652 12.653913 126.055652 12.9553623 126.055652 13.1947826 126.156522 13.3721739 126.358261 13.5495652 126.56 13.6486957 126.845217 13.6695652 127.213913L13.6695652 127.213913 13.6695652 127.266087zM16.4626087 129.843478C16.6434783 129.843478 16.8289855 129.817971 17.0191304 129.766957L17.0191304 129.766957 17.0191304 129.182609C16.8730435 129.212754 16.7582609 129.227826 16.6747826 129.227826 16.5055072 129.227826 16.3855072 129.185507 16.3147826 129.10087 16.244058 129.016232 16.2086957 128.889275 16.2086957 128.72L16.2086957 128.72 16.2086957 126.097391 16.9982609 126.097391 16.9982609 125.54087 16.2086957 125.54087 16.2086957 124.518261 15.4852174 124.518261 15.4852174 125.54087 14.7165217 125.54087 14.7165217 126.097391 15.4852174 126.097391 15.4852174 128.72C15.4852174 129.07942 15.5675362 129.356522 15.7321739 129.551304 15.8968116 129.746087 16.1402899 129.843478 16.4626087 129.843478zM19.5930435 129.843478C20.3026087 129.843478 20.8347826 129.572174 21.1895652 129.029565L21.1895652 129.029565 20.7478261 128.685217C20.6133333 128.856812 20.457971 128.994783 20.2817391 129.09913 20.1055072 129.203478 19.8898551 129.255652 19.6347826 129.255652 19.2753623 129.255652 18.9791304 129.127536 18.746087 128.871304 18.5130435 128.615072 18.3907246 128.278261 18.3791304 127.86087L18.3791304 127.86087 21.2417391 127.86087 21.2417391 127.558261C21.2417391 126.885797 21.0898551 126.368116 20.786087 126.005217 20.4823188 125.642319 20.0556522 125.46087 19.506087 125.46087 19.1698551 125.46087 18.857971 125.554203 18.5704348 125.74087 18.2828986 125.927536 18.0585507 126.185507 17.8973913 126.514783 17.7362319 126.844058 17.6556522 127.218551 17.6556522 127.638261L17.6556522 127.638261 17.6556522 127.770435C17.6556522 128.401159 17.8353623 128.904348 18.1947826 129.28 18.5542029 129.655652 19.0202899 129.843478 19.5930435 129.843478zM20.5217391 127.266087L18.4034783 127.266087C18.4498551 126.883478 18.5721739 126.586087 18.7704348 126.373913 18.9686957 126.161739 19.213913 126.055652 19.506087 126.055652 19.8075362 126.055652 20.0469565 126.156522 20.2243478 126.358261 20.4017391 126.56 20.5008696 126.845217 20.5217391 127.213913L20.5217391 127.213913 20.5217391 127.266087zM22.8034783 129.766957L22.8034783 126.765217C22.9727536 126.361739 23.293913 126.16 23.7669565 126.16 23.8944928 126.16 24.013913 126.169275 24.1252174 126.187826L24.1252174 126.187826 24.1252174 125.516522C24.0510145 125.47942 23.9431884 125.46087 23.8017391 125.46087 23.3681159 125.46087 23.0330435 125.649855 22.7965217 126.027826L22.7965217 126.027826 22.7826087 125.54087 22.08 125.54087 22.08 129.766957 22.8034783 129.766957zM25.506087 129.766957L25.506087 126.681739C25.68 126.278261 26.0046377 126.076522 26.48 126.076522 27.0805797 126.076522 27.3808696 126.383768 27.3808696 126.998261L27.3808696 126.998261 27.3808696 129.766957 28.1078261 129.766957 28.1078261 126.963478C28.1356522 126.692174 28.2382609 126.476522 28.4156522 126.316522 28.5930435 126.156522 28.8162319 126.076522 29.0852174 126.076522 29.4098551 126.076522 29.6411594 126.151304 29.7791304 126.30087 29.9171014 126.450435 29.986087 126.675942 29.986087 126.977391L29.986087 126.977391 29.986087 129.766957 30.7095652 129.766957 30.7095652 126.935652C30.6933333 125.952464 30.2214493 125.46087 29.293913 125.46087 28.9878261 125.46087 28.7217391 125.523478 28.4956522 125.648696 28.2695652 125.773913 28.0869565 125.938551 27.9478261 126.142609 27.7344928 125.688116 27.3321739 125.46087 26.7408696 125.46087 26.2144928 125.46087 25.795942 125.644058 25.4852174 126.010435L25.4852174 126.010435 25.4678261 125.54087 24.7826087 125.54087 24.7826087 129.766957 25.506087 129.766957zM32.2295652 124.827826C32.3686957 124.827826 32.4747826 124.788986 32.5478261 124.711304 32.6208696 124.633623 32.6573913 124.535652 32.6573913 124.417391 32.6573913 124.301449 32.6208696 124.202899 32.5478261 124.121739 32.4747826 124.04058 32.3686957 124 32.2295652 124 32.0881159 124 31.9814493 124.04058 31.9095652 124.121739 31.8376812 124.202899 31.8017391 124.302609 31.8017391 124.42087 31.8017391 124.536812 31.8376812 124.633623 31.9095652 124.711304 31.9814493 124.788986 32.0881159 124.827826 32.2295652 124.827826zM32.5843478 129.766957L32.5843478 125.54087 31.8608696 125.54087 31.8608696 129.766957 32.5843478 129.766957zM34.4626087 129.766957L34.4626087 126.754783C34.5623188 126.553043 34.7002899 126.389565 34.8765217 126.264348 35.0527536 126.13913 35.257971 126.076522 35.4921739 126.076522 35.782029 126.076522 35.9953623 126.149565 36.1321739 126.295652 36.2689855 126.441739 36.3385507 126.666667 36.3408696 126.970435L36.3408696 126.970435 36.3408696 129.766957 37.0643478 129.766957 37.0643478 126.973913C37.0573913 125.965217 36.6063768 125.46087 35.7113043 125.46087 35.1918841 125.46087 34.7698551 125.664928 34.4452174 126.073043L34.4452174 126.073043 34.4243478 125.54087 33.7391304 125.54087 33.7391304 129.766957 34.4626087 129.766957zM39.4573913 129.843478C39.9234783 129.843478 40.3246377 129.669565 40.6608696 129.321739 40.6863768 129.535072 40.72 129.683478 40.7617391 129.766957L40.7617391 129.766957 41.52 129.766957 41.52 129.704348C41.4226087 129.474783 41.373913 129.166377 41.373913 128.77913L41.373913 128.77913 41.373913 126.834783C41.3623188 126.405797 41.2185507 126.069565 40.9426087 125.826087 40.6666667 125.582609 40.2852174 125.46087 39.7982609 125.46087 39.4921739 125.46087 39.2104348 125.518261 38.9530435 125.633043 38.6956522 125.747826 38.4921739 125.903768 38.3426087 126.10087 38.1930435 126.297971 38.1182609 126.502029 38.1182609 126.713043L38.1182609 126.713043 38.8452174 126.713043C38.8452174 126.527536 38.9321739 126.369855 39.106087 126.24 39.28 126.110145 39.4968116 126.045217 39.7565217 126.045217 40.0510145 126.045217 40.2736232 126.12 40.4243478 126.269565 40.5750725 126.41913 40.6504348 126.62029 40.6504348 126.873043L40.6504348 126.873043 40.6504348 127.203478 39.9478261 127.203478C39.3402899 127.203478 38.8689855 127.325217 38.533913 127.568696 38.1988406 127.812174 38.0313043 128.154203 38.0313043 128.594783 38.0313043 128.956522 38.1652174 129.255072 38.4330435 129.490435 38.7008696 129.725797 39.0423188 129.843478 39.4573913 129.843478zM39.5652174 129.217391C39.3263768 129.217391 39.1315942 129.153623 38.9808696 129.026087 38.8301449 128.898551 38.7547826 128.721159 38.7547826 128.493913 38.7547826 127.974493 39.1976812 127.714783 40.0834783 127.714783L40.0834783 127.714783 40.6504348 127.714783 40.6504348 128.584348C40.56 128.772174 40.4127536 128.924638 40.2086957 129.041739 40.0046377 129.158841 39.7901449 129.217391 39.5652174 129.217391zM43.7391304 129.843478C43.92 129.843478 44.1055072 129.817971 44.2956522 129.766957L44.2956522 129.766957 44.2956522 129.182609C44.1495652 129.212754 44.0347826 129.227826 43.9513043 129.227826 43.782029 129.227826 43.662029 129.185507 43.5913043 129.10087 43.5205797 129.016232 43.4852174 128.889275 43.4852174 128.72L43.4852174 128.72 43.4852174 126.097391 44.2747826 126.097391 44.2747826 125.54087 43.4852174 125.54087 43.4852174 124.518261 42.7617391 124.518261 42.7617391 125.54087 41.9930435 125.54087 41.9930435 126.097391 42.7617391 126.097391 42.7617391 128.72C42.7617391 129.07942 42.844058 129.356522 43.0086957 129.551304 43.1733333 129.746087 43.4168116 129.843478 43.7391304 129.843478zM46.8695652 129.843478C47.5791304 129.843478 48.1113043 129.572174 48.466087 129.029565L48.466087 129.029565 48.0243478 128.685217C47.8898551 128.856812 47.7344928 128.994783 47.5582609 129.09913 47.382029 129.203478 47.1663768 129.255652 46.9113043 129.255652 46.5518841 129.255652 46.2556522 129.127536 46.0226087 128.871304 45.7895652 128.615072 45.6672464 128.278261 45.6556522 127.86087L45.6556522 127.86087 48.5182609 127.86087 48.5182609 127.558261C48.5182609 126.885797 48.3663768 126.368116 48.0626087 126.005217 47.7588406 125.642319 47.3321739 125.46087 46.7826087 125.46087 46.4463768 125.46087 46.1344928 125.554203 45.8469565 125.74087 45.5594203 125.927536 45.3350725 126.185507 45.173913 126.514783 45.0127536 126.844058 44.9321739 127.218551 44.9321739 127.638261L44.9321739 127.638261 44.9321739 127.770435C44.9321739 128.401159 45.1118841 128.904348 45.4713043 129.28 45.8307246 129.655652 46.2968116 129.843478 46.8695652 129.843478zM47.7982609 127.266087L45.68 127.266087C45.7263768 126.883478 45.8486957 126.586087 46.0469565 126.373913 46.2452174 126.161739 46.4904348 126.055652 46.7826087 126.055652 47.084058 126.055652 47.3234783 126.156522 47.5008696 126.358261 47.6782609 126.56 47.7773913 126.845217 47.7982609 127.213913L47.7982609 127.213913 47.7982609 127.266087zM301.688696 6.07652174C302.307826 6.07652174 302.804058 5.91362319 303.177391 5.58782609 303.550725 5.26202899 303.773333 4.79768116 303.845217 4.19478261L303.845217 4.19478261 303.090435 4.19478261C303.016232 4.66318841 302.867826 4.99188406 302.645217 5.18086957 302.422609 5.36985507 302.103768 5.46434783 301.688696 5.46434783 301.224928 5.46434783 300.863768 5.28231884 300.605217 4.91826087 300.346667 4.5542029 300.217391 4.06376812 300.217391 3.44695652L300.217391 3.44695652 300.217391 2.89391304C300.217391 2.24 300.353623 1.73623188 300.626087 1.3826087 300.898551 1.02898551 301.274783.852173913 301.754783.852173913 302.144348.852173913 302.448116.953623188 302.666087 1.15652174 302.884058 1.35942029 303.025507 1.68695652 303.090435 2.13913043L303.090435 2.13913043 303.845217 2.13913043C303.784928 1.54318841 303.572174 1.07652174 303.206957.739130435 302.841739.40173913 302.357681.233043478 301.754783.233043478 301.297971.233043478 300.896232.340869565 300.549565.556521739 300.202899.772173913 299.935652 1.08057971 299.747826 1.48173913 299.56 1.88289855 299.466087 2.34782609 299.466087 2.87652174L299.466087 2.87652174 299.466087 3.4226087C299.466087 4.22956522 299.668406 4.87362319 300.073043 5.35478261 300.477681 5.83594203 301.016232 6.07652174 301.688696 6.07652174zM305.184348 1.06086957C305.323478 1.06086957 305.429565 1.02202899 305.502609.944347826 305.575652.866666667 305.612174.768695652 305.612174.650434783 305.612174.534492754 305.575652.435942029 305.502609.354782609 305.429565.273623188 305.323478.233043478 305.184348.233043478 305.042899.233043478 304.936232.273623188 304.864348.354782609 304.792464.435942029 304.756522.535652174 304.756522.653913043 304.756522.769855072 304.792464.866666667 304.864348.944347826 304.936232 1.02202899 305.042899 1.06086957 305.184348 1.06086957zM305.53913 6L305.53913 1.77391304 304.815652 1.77391304 304.815652 6 305.53913 6zM307.417391 6L307.417391 2.99826087C307.586667 2.59478261 307.907826 2.39304348 308.38087 2.39304348 308.508406 2.39304348 308.627826 2.40231884 308.73913 2.42086957L308.73913 2.42086957 308.73913 1.74956522C308.664928 1.71246377 308.557101 1.69391304 308.415652 1.69391304 307.982029 1.69391304 307.646957 1.88289855 307.410435 2.26086957L307.410435 2.26086957 307.396522 1.77391304 306.693913 1.77391304 306.693913 6 307.417391 6zM311.097391 6.07652174C311.382609 6.07652174 311.653333 6.0115942 311.909565 5.88173913 312.165797 5.75188406 312.371014 5.5773913 312.525217 5.35826087 312.67942 5.13913043 312.763478 4.90898551 312.777391 4.66782609L312.777391 4.66782609 312.092174 4.66782609C312.071304 4.90202899 311.964638 5.0973913 311.772174 5.25391304 311.57971 5.41043478 311.354783 5.48869565 311.097391 5.48869565 310.724058 5.48869565 310.437101 5.35710145 310.236522 5.09391304 310.035942 4.83072464 309.935652 4.45565217 309.935652 3.96869565L309.935652 3.96869565 309.935652 3.83304348C309.935652 3.33217391 310.036522 2.94956522 310.238261 2.68521739 310.44 2.42086957 310.725217 2.28869565 311.093913 2.28869565 311.365217 2.28869565 311.594203 2.37681159 311.78087 2.55304348 311.967536 2.72927536 312.071304 2.9542029 312.092174 3.22782609L312.092174 3.22782609 312.777391 3.22782609C312.756522 2.77333333 312.588986 2.40405797 312.274783 2.12 311.96058 1.83594203 311.566957 1.69391304 311.093913 1.69391304 310.706667 1.69391304 310.372174 1.7826087 310.090435 1.96 309.808696 2.1373913 309.591884 2.38608696 309.44 2.70608696 309.288116 3.02608696 309.212174 3.39246377 309.212174 3.80521739L309.212174 3.80521739 309.212174 3.92695652C309.212174 4.59246377 309.382029 5.11710145 309.721739 5.50086957 310.061449 5.88463768 310.52 6.07652174 311.097391 6.07652174zM314.958261 6.07652174C315.503188 6.07652174 315.915942 5.91188406 316.196522 5.5826087L316.196522 5.5826087 316.213913 6 316.902609 6 316.902609 1.77391304 316.17913 1.77391304 316.17913 4.84869565C315.995942 5.25913043 315.628406 5.46434783 315.076522 5.46434783 314.554783 5.46434783 314.293913 5.14434783 314.293913 4.50434783L314.293913 4.50434783 314.293913 1.77391304 313.573913 1.77391304 313.573913 4.52173913C313.576232 5.03652174 313.695072 5.42434783 313.930435 5.68521739 314.165797 5.94608696 314.508406 6.07652174 314.958261 6.07652174zM318.784348 6L318.784348 0 318.06087 0 318.06087 6 318.784348 6zM321.243478 6.07652174C321.709565 6.07652174 322.110725 5.9026087 322.446957 5.55478261 322.472464 5.76811594 322.506087 5.91652174 322.547826 6L322.547826 6 323.306087 6 323.306087 5.9373913C323.208696 5.70782609 323.16 5.39942029 323.16 5.01217391L323.16 5.01217391 323.16 3.06782609C323.148406 2.63884058 323.004638 2.3026087 322.728696 2.05913043 322.452754 1.81565217 322.071304 1.69391304 321.584348 1.69391304 321.278261 1.69391304 320.996522 1.75130435 320.73913 1.86608696 320.481739 1.98086957 320.278261 2.13681159 320.128696 2.33391304 319.97913 2.53101449 319.904348 2.73507246 319.904348 2.94608696L319.904348 2.94608696 320.631304 2.94608696C320.631304 2.76057971 320.718261 2.60289855 320.892174 2.47304348 321.066087 2.34318841 321.282899 2.27826087 321.542609 2.27826087 321.837101 2.27826087 322.05971 2.35304348 322.210435 2.5026087 322.361159 2.65217391 322.436522 2.85333333 322.436522 3.10608696L322.436522 3.10608696 322.436522 3.43652174 321.733913 3.43652174C321.126377 3.43652174 320.655072 3.55826087 320.32 3.80173913 319.984928 4.04521739 319.817391 4.38724638 319.817391 4.82782609 319.817391 5.18956522 319.951304 5.48811594 320.21913 5.72347826 320.486957 5.95884058 320.828406 6.07652174 321.243478 6.07652174zM321.351304 5.45043478C321.112464 5.45043478 320.917681 5.38666667 320.766957 5.25913043 320.616232 5.1315942 320.54087 4.9542029 320.54087 4.72695652 320.54087 4.20753623 320.983768 3.94782609 321.869565 3.94782609L321.869565 3.94782609 322.436522 3.94782609 322.436522 4.8173913C322.346087 5.00521739 322.198841 5.15768116 321.994783 5.27478261 321.790725 5.39188406 321.576232 5.45043478 321.351304 5.45043478zM325.013913 6L325.013913 2.99826087C325.183188 2.59478261 325.504348 2.39304348 325.977391 2.39304348 326.104928 2.39304348 326.224348 2.40231884 326.335652 2.42086957L326.335652 2.42086957 326.335652 1.74956522C326.261449 1.71246377 326.153623 1.69391304 326.012174 1.69391304 325.578551 1.69391304 325.243478 1.88289855 325.006957 2.26086957L325.006957 2.26086957 324.993043 1.77391304 324.290435 1.77391304 324.290435 6 325.013913 6zM301.233043 16C301.745507 15.9953623 302.193623 15.8846377 302.577391 15.6678261 302.961159 15.4510145 303.256232 15.1408696 303.462609 14.7373913 303.668986 14.333913 303.772174 13.8643478 303.772174 13.3286957L303.772174 13.3286957 303.772174 12.9634783C303.769855 12.4417391 303.665507 11.9791304 303.45913 11.5756522 303.252754 11.1721739 302.95942 10.8608696 302.57913 10.6417391 302.198841 10.4226087 301.76058 10.3130435 301.264348 10.3130435L301.264348 10.3130435 299.66087 10.3130435 299.66087 16 301.233043 16zM301.198261 15.3878261L300.408696 15.3878261 300.408696 10.9286957 301.285217 10.9286957C301.841739 10.9356522 302.271884 11.1176812 302.575652 11.4747826 302.87942 11.8318841 303.031304 12.333913 303.031304 12.9808696L303.031304 12.9808696 303.031304 13.3113043C303.031304 13.9768116 302.870725 14.4892754 302.549565 14.8486957 302.228406 15.2081159 301.777971 15.3878261 301.198261 15.3878261L301.198261 15.3878261zM306.544348 16.0765217C307.253913 16.0765217 307.786087 15.8052174 308.14087 15.2626087L308.14087 15.2626087 307.69913 14.9182609C307.564638 15.0898551 307.409275 15.2278261 307.233043 15.3321739 307.056812 15.4365217 306.841159 15.4886957 306.586087 15.4886957 306.226667 15.4886957 305.930435 15.3605797 305.697391 15.1043478 305.464348 14.8481159 305.342029 14.5113043 305.330435 14.093913L305.330435 14.093913 308.193043 14.093913 308.193043 13.7913043C308.193043 13.1188406 308.041159 12.6011594 307.737391 12.2382609 307.433623 11.8753623 307.006957 11.693913 306.457391 11.693913 306.121159 11.693913 305.809275 11.7872464 305.521739 11.973913 305.234203 12.1605797 305.009855 12.4185507 304.848696 12.7478261 304.687536 13.0771014 304.606957 13.4515942 304.606957 13.8713043L304.606957 13.8713043 304.606957 14.0034783C304.606957 14.6342029 304.786667 15.1373913 305.146087 15.5130435 305.505507 15.8886957 305.971594 16.0765217 306.544348 16.0765217zM307.473043 13.4991304L305.354783 13.4991304C305.401159 13.1165217 305.523478 12.8191304 305.721739 12.6069565 305.92 12.3947826 306.165217 12.2886957 306.457391 12.2886957 306.758841 12.2886957 306.998261 12.3895652 307.175652 12.5913043 307.353043 12.7930435 307.452174 13.0782609 307.473043 13.4469565L307.473043 13.4469565 307.473043 13.4991304zM310.266087 16.0765217C310.446957 16.0765217 310.632464 16.0510145 310.822609 16L310.822609 16 310.822609 15.4156522C310.676522 15.4457971 310.561739 15.4608696 310.478261 15.4608696 310.308986 15.4608696 310.188986 15.4185507 310.118261 15.333913 310.047536 15.2492754 310.012174 15.1223188 310.012174 14.9530435L310.012174 14.9530435 310.012174 12.3304348 310.801739 12.3304348 310.801739 11.773913 310.012174 11.773913 310.012174 10.7513043 309.288696 10.7513043 309.288696 11.773913 308.52 11.773913 308.52 12.3304348 309.288696 12.3304348 309.288696 14.9530435C309.288696 15.3124638 309.371014 15.5895652 309.535652 15.7843478 309.70029 15.9791304 309.943768 16.0765217 310.266087 16.0765217zM313.396522 16.0765217C314.106087 16.0765217 314.638261 15.8052174 314.993043 15.2626087L314.993043 15.2626087 314.551304 14.9182609C314.416812 15.0898551 314.261449 15.2278261 314.085217 15.3321739 313.908986 15.4365217 313.693333 15.4886957 313.438261 15.4886957 313.078841 15.4886957 312.782609 15.3605797 312.549565 15.1043478 312.316522 14.8481159 312.194203 14.5113043 312.182609 14.093913L312.182609 14.093913 315.045217 14.093913 315.045217 13.7913043C315.045217 13.1188406 314.893333 12.6011594 314.589565 12.2382609 314.285797 11.8753623 313.85913 11.693913 313.309565 11.693913 312.973333 11.693913 312.661449 11.7872464 312.373913 11.973913 312.086377 12.1605797 311.862029 12.4185507 311.70087 12.7478261 311.53971 13.0771014 311.45913 13.4515942 311.45913 13.8713043L311.45913 13.8713043 311.45913 14.0034783C311.45913 14.6342029 311.638841 15.1373913 311.998261 15.5130435 312.357681 15.8886957 312.823768 16.0765217 313.396522 16.0765217zM314.325217 13.4991304L312.206957 13.4991304C312.253333 13.1165217 312.375652 12.8191304 312.573913 12.6069565 312.772174 12.3947826 313.017391 12.2886957 313.309565 12.2886957 313.611014 12.2886957 313.850435 12.3895652 314.027826 12.5913043 314.205217 12.7930435 314.304348 13.0782609 314.325217 13.4469565L314.325217 13.4469565 314.325217 13.4991304zM316.606957 16L316.606957 12.9982609C316.776232 12.5947826 317.097391 12.3930435 317.570435 12.3930435 317.697971 12.3930435 317.817391 12.4023188 317.928696 12.4208696L317.928696 12.4208696 317.928696 11.7495652C317.854493 11.7124638 317.746667 11.693913 317.605217 11.693913 317.171594 11.693913 316.836522 11.8828986 316.6 12.2608696L316.6 12.2608696 316.586087 11.773913 315.883478 11.773913 315.883478 16 316.606957 16zM319.309565 16L319.309565 12.9147826C319.483478 12.5113043 319.808116 12.3095652 320.283478 12.3095652 320.884058 12.3095652 321.184348 12.6168116 321.184348 13.2313043L321.184348 13.2313043 321.184348 16 321.911304 16 321.911304 13.1965217C321.93913 12.9252174 322.041739 12.7095652 322.21913 12.5495652 322.396522 12.3895652 322.61971 12.3095652 322.888696 12.3095652 323.213333 12.3095652 323.444638 12.3843478 323.582609 12.533913 323.72058 12.6834783 323.789565 12.9089855 323.789565 13.2104348L323.789565 13.2104348 323.789565 16 324.513043 16 324.513043 13.1686957C324.496812 12.1855072 324.024928 11.693913 323.097391 11.693913 322.791304 11.693913 322.525217 11.7565217 322.29913 11.8817391 322.073043 12.0069565 321.890435 12.1715942 321.751304 12.3756522 321.537971 11.9211594 321.135652 11.693913 320.544348 11.693913 320.017971 11.693913 319.59942 11.8771014 319.288696 12.2434783L319.288696 12.2434783 319.271304 11.773913 318.586087 11.773913 318.586087 16 319.309565 16zM326.033043 11.0608696C326.172174 11.0608696 326.278261 11.022029 326.351304 10.9443478 326.424348 10.8666667 326.46087 10.7686957 326.46087 10.6504348 326.46087 10.5344928 326.424348 10.435942 326.351304 10.3547826 326.278261 10.2736232 326.172174 10.2330435 326.033043 10.2330435 325.891594 10.2330435 325.784928 10.2736232 325.713043 10.3547826 325.641159 10.435942 325.605217 10.5356522 325.605217 10.653913 325.605217 10.7698551 325.641159 10.8666667 325.713043 10.9443478 325.784928 11.022029 325.891594 11.0608696 326.033043 11.0608696zM326.387826 16L326.387826 11.773913 325.664348 11.773913 325.664348 16 326.387826 16zM328.266087 16L328.266087 12.9878261C328.365797 12.786087 328.503768 12.6226087 328.68 12.4973913 328.856232 12.3721739 329.061449 12.3095652 329.295652 12.3095652 329.585507 12.3095652 329.798841 12.3826087 329.935652 12.5286957 330.072464 12.6747826 330.142029 12.8997101 330.144348 13.2034783L330.144348 13.2034783 330.144348 16 330.867826 16 330.867826 13.2069565C330.86087 12.1982609 330.409855 11.693913 329.514783 11.693913 328.995362 11.693913 328.573333 11.897971 328.248696 12.306087L328.248696 12.306087 328.227826 11.773913 327.542609 11.773913 327.542609 16 328.266087 16zM333.26087 16.0765217C333.726957 16.0765217 334.128116 15.9026087 334.464348 15.5547826 334.489855 15.7681159 334.523478 15.9165217 334.565217 16L334.565217 16 335.323478 16 335.323478 15.9373913C335.226087 15.7078261 335.177391 15.3994203 335.177391 15.0121739L335.177391 15.0121739 335.177391 13.0678261C335.165797 12.6388406 335.022029 12.3026087 334.746087 12.0591304 334.470145 11.8156522 334.088696 11.693913 333.601739 11.693913 333.295652 11.693913 333.013913 11.7513043 332.756522 11.866087 332.49913 11.9808696 332.295652 12.1368116 332.146087 12.333913 331.996522 12.5310145 331.921739 12.7350725 331.921739 12.946087L331.921739 12.946087 332.648696 12.946087C332.648696 12.7605797 332.735652 12.6028986 332.909565 12.4730435 333.083478 12.3431884 333.30029 12.2782609 333.56 12.2782609 333.854493 12.2782609 334.077101 12.3530435 334.227826 12.5026087 334.378551 12.6521739 334.453913 12.8533333 334.453913 13.106087L334.453913 13.106087 334.453913 13.4365217 333.751304 13.4365217C333.143768 13.4365217 332.672464 13.5582609 332.337391 13.8017391 332.002319 14.0452174 331.834783 14.3872464 331.834783 14.8278261 331.834783 15.1895652 331.968696 15.4881159 332.236522 15.7234783 332.504348 15.9588406 332.845797 16.0765217 333.26087 16.0765217zM333.368696 15.4504348C333.129855 15.4504348 332.935072 15.3866667 332.784348 15.2591304 332.633623 15.1315942 332.558261 14.9542029 332.558261 14.7269565 332.558261 14.2075362 333.001159 13.9478261 333.886957 13.9478261L333.886957 13.9478261 334.453913 13.9478261 334.453913 14.8173913C334.363478 15.0052174 334.216232 15.1576812 334.012174 15.2747826 333.808116 15.3918841 333.593623 15.4504348 333.368696 15.4504348zM337.542609 16.0765217C337.723478 16.0765217 337.908986 16.0510145 338.09913 16L338.09913 16 338.09913 15.4156522C337.953043 15.4457971 337.838261 15.4608696 337.754783 15.4608696 337.585507 15.4608696 337.465507 15.4185507 337.394783 15.333913 337.324058 15.2492754 337.288696 15.1223188 337.288696 14.9530435L337.288696 14.9530435 337.288696 12.3304348 338.078261 12.3304348 338.078261 11.773913 337.288696 11.773913 337.288696 10.7513043 336.565217 10.7513043 336.565217 11.773913 335.796522 11.773913 335.796522 12.3304348 336.565217 12.3304348 336.565217 14.9530435C336.565217 15.3124638 336.647536 15.5895652 336.812174 15.7843478 336.976812 15.9791304 337.22029 16.0765217 337.542609 16.0765217zM340.673043 16.0765217C341.382609 16.0765217 341.914783 15.8052174 342.269565 15.2626087L342.269565 15.2626087 341.827826 14.9182609C341.693333 15.0898551 341.537971 15.2278261 341.361739 15.3321739 341.185507 15.4365217 340.969855 15.4886957 340.714783 15.4886957 340.355362 15.4886957 340.05913 15.3605797 339.826087 15.1043478 339.593043 14.8481159 339.470725 14.5113043 339.45913 14.093913L339.45913 14.093913 342.321739 14.093913 342.321739 13.7913043C342.321739 13.1188406 342.169855 12.6011594 341.866087 12.2382609 341.562319 11.8753623 341.135652 11.693913 340.586087 11.693913 340.249855 11.693913 339.937971 11.7872464 339.650435 11.973913 339.362899 12.1605797 339.138551 12.4185507 338.977391 12.7478261 338.816232 13.0771014 338.735652 13.4515942 338.735652 13.8713043L338.735652 13.8713043 338.735652 14.0034783C338.735652 14.6342029 338.915362 15.1373913 339.274783 15.5130435 339.634203 15.8886957 340.10029 16.0765217 340.673043 16.0765217zM341.601739 13.4991304L339.483478 13.4991304C339.529855 13.1165217 339.652174 12.8191304 339.850435 12.6069565 340.048696 12.3947826 340.293913 12.2886957 340.586087 12.2886957 340.887536 12.2886957 341.126957 12.3895652 341.304348 12.5913043 341.481739 12.7930435 341.58087 13.0782609 341.601739 13.4469565L341.601739 13.4469565 341.601739 13.4991304zM301.688696 120.076522C302.307826 120.076522 302.804058 119.913623 303.177391 119.587826 303.550725 119.262029 303.773333 118.797681 303.845217 118.194783L303.845217 118.194783 303.090435 118.194783C303.016232 118.663188 302.867826 118.991884 302.645217 119.18087 302.422609 119.369855 302.103768 119.464348 301.688696 119.464348 301.224928 119.464348 300.863768 119.282319 300.605217 118.918261 300.346667 118.554203 300.217391 118.063768 300.217391 117.446957L300.217391 117.446957 300.217391 116.893913C300.217391 116.24 300.353623 115.736232 300.626087 115.382609 300.898551 115.028986 301.274783 114.852174 301.754783 114.852174 302.144348 114.852174 302.448116 114.953623 302.666087 115.156522 302.884058 115.35942 303.025507 115.686957 303.090435 116.13913L303.090435 116.13913 303.845217 116.13913C303.784928 115.543188 303.572174 115.076522 303.206957 114.73913 302.841739 114.401739 302.357681 114.233043 301.754783 114.233043 301.297971 114.233043 300.896232 114.34087 300.549565 114.556522 300.202899 114.772174 299.935652 115.08058 299.747826 115.481739 299.56 115.882899 299.466087 116.347826 299.466087 116.876522L299.466087 116.876522 299.466087 117.422609C299.466087 118.229565 299.668406 118.873623 300.073043 119.354783 300.477681 119.835942 301.016232 120.076522 301.688696 120.076522zM305.184348 115.06087C305.323478 115.06087 305.429565 115.022029 305.502609 114.944348 305.575652 114.866667 305.612174 114.768696 305.612174 114.650435 305.612174 114.534493 305.575652 114.435942 305.502609 114.354783 305.429565 114.273623 305.323478 114.233043 305.184348 114.233043 305.042899 114.233043 304.936232 114.273623 304.864348 114.354783 304.792464 114.435942 304.756522 114.535652 304.756522 114.653913 304.756522 114.769855 304.792464 114.866667 304.864348 114.944348 304.936232 115.022029 305.042899 115.06087 305.184348 115.06087zM305.53913 120L305.53913 115.773913 304.815652 115.773913 304.815652 120 305.53913 120zM307.417391 120L307.417391 116.998261C307.586667 116.594783 307.907826 116.393043 308.38087 116.393043 308.508406 116.393043 308.627826 116.402319 308.73913 116.42087L308.73913 116.42087 308.73913 115.749565C308.664928 115.712464 308.557101 115.693913 308.415652 115.693913 307.982029 115.693913 307.646957 115.882899 307.410435 116.26087L307.410435 116.26087 307.396522 115.773913 306.693913 115.773913 306.693913 120 307.417391 120zM311.097391 120.076522C311.382609 120.076522 311.653333 120.011594 311.909565 119.881739 312.165797 119.751884 312.371014 119.577391 312.525217 119.358261 312.67942 119.13913 312.763478 118.908986 312.777391 118.667826L312.777391 118.667826 312.092174 118.667826C312.071304 118.902029 311.964638 119.097391 311.772174 119.253913 311.57971 119.410435 311.354783 119.488696 311.097391 119.488696 310.724058 119.488696 310.437101 119.357101 310.236522 119.093913 310.035942 118.830725 309.935652 118.455652 309.935652 117.968696L309.935652 117.968696 309.935652 117.833043C309.935652 117.332174 310.036522 116.949565 310.238261 116.685217 310.44 116.42087 310.725217 116.288696 311.093913 116.288696 311.365217 116.288696 311.594203 116.376812 311.78087 116.553043 311.967536 116.729275 312.071304 116.954203 312.092174 117.227826L312.092174 117.227826 312.777391 117.227826C312.756522 116.773333 312.588986 116.404058 312.274783 116.12 311.96058 115.835942 311.566957 115.693913 311.093913 115.693913 310.706667 115.693913 310.372174 115.782609 310.090435 115.96 309.808696 116.137391 309.591884 116.386087 309.44 116.706087 309.288116 117.026087 309.212174 117.392464 309.212174 117.805217L309.212174 117.805217 309.212174 117.926957C309.212174 118.592464 309.382029 119.117101 309.721739 119.50087 310.061449 119.884638 310.52 120.076522 311.097391 120.076522zM314.958261 120.076522C315.503188 120.076522 315.915942 119.911884 316.196522 119.582609L316.196522 119.582609 316.213913 120 316.902609 120 316.902609 115.773913 316.17913 115.773913 316.17913 118.848696C315.995942 119.25913 315.628406 119.464348 315.076522 119.464348 314.554783 119.464348 314.293913 119.144348 314.293913 118.504348L314.293913 118.504348 314.293913 115.773913 313.573913 115.773913 313.573913 118.521739C313.576232 119.036522 313.695072 119.424348 313.930435 119.685217 314.165797 119.946087 314.508406 120.076522 314.958261 120.076522zM318.784348 120L318.784348 114 318.06087 114 318.06087 120 318.784348 120zM321.243478 120.076522C321.709565 120.076522 322.110725 119.902609 322.446957 119.554783 322.472464 119.768116 322.506087 119.916522 322.547826 120L322.547826 120 323.306087 120 323.306087 119.937391C323.208696 119.707826 323.16 119.39942 323.16 119.012174L323.16 119.012174 323.16 117.067826C323.148406 116.638841 323.004638 116.302609 322.728696 116.05913 322.452754 115.815652 322.071304 115.693913 321.584348 115.693913 321.278261 115.693913 320.996522 115.751304 320.73913 115.866087 320.481739 115.98087 320.278261 116.136812 320.128696 116.333913 319.97913 116.531014 319.904348 116.735072 319.904348 116.946087L319.904348 116.946087 320.631304 116.946087C320.631304 116.76058 320.718261 116.602899 320.892174 116.473043 321.066087 116.343188 321.282899 116.278261 321.542609 116.278261 321.837101 116.278261 322.05971 116.353043 322.210435 116.502609 322.361159 116.652174 322.436522 116.853333 322.436522 117.106087L322.436522 117.106087 322.436522 117.436522 321.733913 117.436522C321.126377 117.436522 320.655072 117.558261 320.32 117.801739 319.984928 118.045217 319.817391 118.387246 319.817391 118.827826 319.817391 119.189565 319.951304 119.488116 320.21913 119.723478 320.486957 119.958841 320.828406 120.076522 321.243478 120.076522zM321.351304 119.450435C321.112464 119.450435 320.917681 119.386667 320.766957 119.25913 320.616232 119.131594 320.54087 118.954203 320.54087 118.726957 320.54087 118.207536 320.983768 117.947826 321.869565 117.947826L321.869565 117.947826 322.436522 117.947826 322.436522 118.817391C322.346087 119.005217 322.198841 119.157681 321.994783 119.274783 321.790725 119.391884 321.576232 119.450435 321.351304 119.450435zM325.013913 120L325.013913 116.998261C325.183188 116.594783 325.504348 116.393043 325.977391 116.393043 326.104928 116.393043 326.224348 116.402319 326.335652 116.42087L326.335652 116.42087 326.335652 115.749565C326.261449 115.712464 326.153623 115.693913 326.012174 115.693913 325.578551 115.693913 325.243478 115.882899 325.006957 116.26087L325.006957 116.26087 324.993043 115.773913 324.290435 115.773913 324.290435 120 325.013913 120zM300.464348 130L300.464348 124.313043 299.716522 124.313043 299.716522 130 300.464348 130zM302.446957 130L302.446957 126.987826C302.546667 126.786087 302.684638 126.622609 302.86087 126.497391 303.037101 126.372174 303.242319 126.309565 303.476522 126.309565 303.766377 126.309565 303.97971 126.382609 304.116522 126.528696 304.253333 126.674783 304.322899 126.89971 304.325217 127.203478L304.325217 127.203478 304.325217 130 305.048696 130 305.048696 127.206957C305.041739 126.198261 304.590725 125.693913 303.695652 125.693913 303.176232 125.693913 302.754203 125.897971 302.429565 126.306087L302.429565 126.306087 302.408696 125.773913 301.723478 125.773913 301.723478 130 302.446957 130zM307.622609 130.076522C308.137391 130.076522 308.53971 129.90029 308.829565 129.547826L308.829565 129.547826 308.864348 130 309.528696 130 309.528696 124 308.805217 124 308.805217 126.201739C308.517681 125.863188 308.125797 125.693913 307.629565 125.693913 307.133333 125.693913 306.731594 125.891594 306.424348 126.286957 306.117101 126.682319 305.963478 127.203478 305.963478 127.850435L305.963478 127.850435 305.963478 127.906087C305.963478 128.553043 306.117681 129.076522 306.426087 129.476522 306.734493 129.876522 307.133333 130.076522 307.622609 130.076522zM307.803478 129.464348C307.453333 129.464348 307.17913 129.329275 306.98087 129.05913 306.782609 128.788986 306.683478 128.413913 306.683478 127.933913 306.683478 127.398261 306.782609 126.993623 306.98087 126.72 307.17913 126.446377 307.455652 126.309565 307.810435 126.309565 308.257971 126.309565 308.589565 126.508986 308.805217 126.907826L308.805217 126.907826 308.805217 128.848696C308.594203 129.25913 308.26029 129.464348 307.803478 129.464348zM312.401739 130.076522C313.111304 130.076522 313.643478 129.805217 313.998261 129.262609L313.998261 129.262609 313.556522 128.918261C313.422029 129.089855 313.266667 129.227826 313.090435 129.332174 312.914203 129.436522 312.698551 129.488696 312.443478 129.488696 312.084058 129.488696 311.787826 129.36058 311.554783 129.104348 311.321739 128.848116 311.19942 128.511304 311.187826 128.093913L311.187826 128.093913 314.050435 128.093913 314.050435 127.791304C314.050435 127.118841 313.898551 126.601159 313.594783 126.238261 313.291014 125.875362 312.864348 125.693913 312.314783 125.693913 311.978551 125.693913 311.666667 125.787246 311.37913 125.973913 311.091594 126.16058 310.867246 126.418551 310.706087 126.747826 310.544928 127.077101 310.464348 127.451594 310.464348 127.871304L310.464348 127.871304 310.464348 128.003478C310.464348 128.634203 310.644058 129.137391 311.003478 129.513043 311.362899 129.888696 311.828986 130.076522 312.401739 130.076522zM313.330435 127.49913L311.212174 127.49913C311.258551 127.116522 311.38087 126.81913 311.57913 126.606957 311.777391 126.394783 312.022609 126.288696 312.314783 126.288696 312.616232 126.288696 312.855652 126.389565 313.033043 126.591304 313.210435 126.793043 313.309565 127.078261 313.330435 127.446957L313.330435 127.446957 313.330435 127.49913zM316.123478 130.076522C316.304348 130.076522 316.489855 130.051014 316.68 130L316.68 130 316.68 129.415652C316.533913 129.445797 316.41913 129.46087 316.335652 129.46087 316.166377 129.46087 316.046377 129.418551 315.975652 129.333913 315.904928 129.249275 315.869565 129.122319 315.869565 128.953043L315.869565 128.953043 315.869565 126.330435 316.65913 126.330435 316.65913 125.773913 315.869565 125.773913 315.869565 124.751304 315.146087 124.751304 315.146087 125.773913 314.377391 125.773913 314.377391 126.330435 315.146087 126.330435 315.146087 128.953043C315.146087 129.312464 315.228406 129.589565 315.393043 129.784348 315.557681 129.97913 315.801159 130.076522 316.123478 130.076522zM319.253913 130.076522C319.963478 130.076522 320.495652 129.805217 320.850435 129.262609L320.850435 129.262609 320.408696 128.918261C320.274203 129.089855 320.118841 129.227826 319.942609 129.332174 319.766377 129.436522 319.550725 129.488696 319.295652 129.488696 318.936232 129.488696 318.64 129.36058 318.406957 129.104348 318.173913 128.848116 318.051594 128.511304 318.04 128.093913L318.04 128.093913 320.902609 128.093913 320.902609 127.791304C320.902609 127.118841 320.750725 126.601159 320.446957 126.238261 320.143188 125.875362 319.716522 125.693913 319.166957 125.693913 318.830725 125.693913 318.518841 125.787246 318.231304 125.973913 317.943768 126.16058 317.71942 126.418551 317.558261 126.747826 317.397101 127.077101 317.316522 127.451594 317.316522 127.871304L317.316522 127.871304 317.316522 128.003478C317.316522 128.634203 317.496232 129.137391 317.855652 129.513043 318.215072 129.888696 318.681159 130.076522 319.253913 130.076522zM320.182609 127.49913L318.064348 127.49913C318.110725 127.116522 318.233043 126.81913 318.431304 126.606957 318.629565 126.394783 318.874783 126.288696 319.166957 126.288696 319.468406 126.288696 319.707826 126.389565 319.885217 126.591304 320.062609 126.793043 320.161739 127.078261 320.182609 127.446957L320.182609 127.446957 320.182609 127.49913zM322.464348 130L322.464348 126.998261C322.633623 126.594783 322.954783 126.393043 323.427826 126.393043 323.555362 126.393043 323.674783 126.402319 323.786087 126.42087L323.786087 126.42087 323.786087 125.749565C323.711884 125.712464 323.604058 125.693913 323.462609 125.693913 323.028986 125.693913 322.693913 125.882899 322.457391 126.26087L322.457391 126.26087 322.443478 125.773913 321.74087 125.773913 321.74087 130 322.464348 130zM325.166957 130L325.166957 126.914783C325.34087 126.511304 325.665507 126.309565 326.14087 126.309565 326.741449 126.309565 327.041739 126.616812 327.041739 127.231304L327.041739 127.231304 327.041739 130 327.768696 130 327.768696 127.196522C327.796522 126.925217 327.89913 126.709565 328.076522 126.549565 328.253913 126.389565 328.477101 126.309565 328.746087 126.309565 329.070725 126.309565 329.302029 126.384348 329.44 126.533913 329.577971 126.683478 329.646957 126.908986 329.646957 127.210435L329.646957 127.210435 329.646957 130 330.370435 130 330.370435 127.168696C330.354203 126.185507 329.882319 125.693913 328.954783 125.693913 328.648696 125.693913 328.382609 125.756522 328.156522 125.881739 327.930435 126.006957 327.747826 126.171594 327.608696 126.375652 327.395362 125.921159 326.993043 125.693913 326.401739 125.693913 325.875362 125.693913 325.456812 125.877101 325.146087 126.243478L325.146087 126.243478 325.128696 125.773913 324.443478 125.773913 324.443478 130 325.166957 130zM331.890435 125.06087C332.029565 125.06087 332.135652 125.022029 332.208696 124.944348 332.281739 124.866667 332.318261 124.768696 332.318261 124.650435 332.318261 124.534493 332.281739 124.435942 332.208696 124.354783 332.135652 124.273623 332.029565 124.233043 331.890435 124.233043 331.748986 124.233043 331.642319 124.273623 331.570435 124.354783 331.498551 124.435942 331.462609 124.535652 331.462609 124.653913 331.462609 124.769855 331.498551 124.866667 331.570435 124.944348 331.642319 125.022029 331.748986 125.06087 331.890435 125.06087zM332.245217 130L332.245217 125.773913 331.521739 125.773913 331.521739 130 332.245217 130zM334.123478 130L334.123478 126.987826C334.223188 126.786087 334.361159 126.622609 334.537391 126.497391 334.713623 126.372174 334.918841 126.309565 335.153043 126.309565 335.442899 126.309565 335.656232 126.382609 335.793043 126.528696 335.929855 126.674783 335.99942 126.89971 336.001739 127.203478L336.001739 127.203478 336.001739 130 336.725217 130 336.725217 127.206957C336.718261 126.198261 336.267246 125.693913 335.372174 125.693913 334.852754 125.693913 334.430725 125.897971 334.106087 126.306087L334.106087 126.306087 334.085217 125.773913 333.4 125.773913 333.4 130 334.123478 130zM339.118261 130.076522C339.584348 130.076522 339.985507 129.902609 340.321739 129.554783 340.347246 129.768116 340.38087 129.916522 340.422609 130L340.422609 130 341.18087 130 341.18087 129.937391C341.083478 129.707826 341.034783 129.39942 341.034783 129.012174L341.034783 129.012174 341.034783 127.067826C341.023188 126.638841 340.87942 126.302609 340.603478 126.05913 340.327536 125.815652 339.946087 125.693913 339.45913 125.693913 339.153043 125.693913 338.871304 125.751304 338.613913 125.866087 338.356522 125.98087 338.153043 126.136812 338.003478 126.333913 337.853913 126.531014 337.77913 126.735072 337.77913 126.946087L337.77913 126.946087 338.506087 126.946087C338.506087 126.76058 338.593043 126.602899 338.766957 126.473043 338.94087 126.343188 339.157681 126.278261 339.417391 126.278261 339.711884 126.278261 339.934493 126.353043 340.085217 126.502609 340.235942 126.652174 340.311304 126.853333 340.311304 127.106087L340.311304 127.106087 340.311304 127.436522 339.608696 127.436522C339.001159 127.436522 338.529855 127.558261 338.194783 127.801739 337.85971 128.045217 337.692174 128.387246 337.692174 128.827826 337.692174 129.189565 337.826087 129.488116 338.093913 129.723478 338.361739 129.958841 338.703188 130.076522 339.118261 130.076522zM339.226087 129.450435C338.987246 129.450435 338.792464 129.386667 338.641739 129.25913 338.491014 129.131594 338.415652 128.954203 338.415652 128.726957 338.415652 128.207536 338.858551 127.947826 339.744348 127.947826L339.744348 127.947826 340.311304 127.947826 340.311304 128.817391C340.22087 129.005217 340.073623 129.157681 339.869565 129.274783 339.665507 129.391884 339.451014 129.450435 339.226087 129.450435zM343.4 130.076522C343.58087 130.076522 343.766377 130.051014 343.956522 130L343.956522 130 343.956522 129.415652C343.810435 129.445797 343.695652 129.46087 343.612174 129.46087 343.442899 129.46087 343.322899 129.418551 343.252174 129.333913 343.181449 129.249275 343.146087 129.122319 343.146087 128.953043L343.146087 128.953043 343.146087 126.330435 343.935652 126.330435 343.935652 125.773913 343.146087 125.773913 343.146087 124.751304 342.422609 124.751304 342.422609 125.773913 341.653913 125.773913 341.653913 126.330435 342.422609 126.330435 342.422609 128.953043C342.422609 129.312464 342.504928 129.589565 342.669565 129.784348 342.834203 129.97913 343.077681 130.076522 343.4 130.076522zM346.530435 130.076522C347.24 130.076522 347.772174 129.805217 348.126957 129.262609L348.126957 129.262609 347.685217 128.918261C347.550725 129.089855 347.395362 129.227826 347.21913 129.332174 347.042899 129.436522 346.827246 129.488696 346.572174 129.488696 346.212754 129.488696 345.916522 129.36058 345.683478 129.104348 345.450435 128.848116 345.328116 128.511304 345.316522 128.093913L345.316522 128.093913 348.17913 128.093913 348.17913 127.791304C348.17913 127.118841 348.027246 126.601159 347.723478 126.238261 347.41971 125.875362 346.993043 125.693913 346.443478 125.693913 346.107246 125.693913 345.795362 125.787246 345.507826 125.973913 345.22029 126.16058 344.995942 126.418551 344.834783 126.747826 344.673623 127.077101 344.593043 127.451594 344.593043 127.871304L344.593043 127.871304 344.593043 128.003478C344.593043 128.634203 344.772754 129.137391 345.132174 129.513043 345.491594 129.888696 345.957681 130.076522 346.530435 130.076522zM347.45913 127.49913L345.34087 127.49913C345.387246 127.116522 345.509565 126.81913 345.707826 126.606957 345.906087 126.394783 346.151304 126.288696 346.443478 126.288696 346.744928 126.288696 346.984348 126.389565 347.161739 126.591304 347.33913 126.793043 347.438261 127.078261 347.45913 127.446957L347.45913 127.446957 347.45913 127.49913zM450.233043 6C450.745507 5.99536232 451.193623 5.88463768 451.577391 5.66782609 451.961159 5.45101449 452.256232 5.14086957 452.462609 4.7373913 452.668986 4.33391304 452.772174 3.86434783 452.772174 3.32869565L452.772174 3.32869565 452.772174 2.96347826C452.769855 2.44173913 452.665507 1.97913043 452.45913 1.57565217 452.252754 1.17217391 451.95942.860869565 451.57913.64173913 451.198841.422608696 450.76058.313043478 450.264348.313043478L450.264348.313043478 448.66087.313043478 448.66087 6 450.233043 6zM450.198261 5.38782609L449.408696 5.38782609 449.408696.928695652 450.285217.928695652C450.841739.935652174 451.271884 1.11768116 451.575652 1.47478261 451.87942 1.83188406 452.031304 2.33391304 452.031304 2.98086957L452.031304 2.98086957 452.031304 3.31130435C452.031304 3.97681159 451.870725 4.48927536 451.549565 4.84869565 451.228406 5.20811594 450.777971 5.38782609 450.198261 5.38782609L450.198261 5.38782609zM455.526957 6.07652174C455.907246 6.07652174 456.244058 5.98550725 456.537391 5.80347826 456.830725 5.62144928 457.055652 5.36695652 457.212174 5.04 457.368696 4.71304348 457.446957 4.34434783 457.446957 3.93391304L457.446957 3.93391304 457.446957 3.88173913C457.446957 3.22086957 457.269565 2.69101449 456.914783 2.29217391 456.56 1.89333333 456.095072 1.69391304 455.52 1.69391304 455.146667 1.69391304 454.815072 1.78376812 454.525217 1.96347826 454.235362 2.14318841 454.008696 2.39884058 453.845217 2.73043478 453.681739 3.06202899 453.6 3.4342029 453.6 3.84695652L453.6 3.84695652 453.6 3.89913043C453.6 4.55536232 453.777971 5.08231884 454.133913 5.48 454.489855 5.87768116 454.954203 6.07652174 455.526957 6.07652174zM455.526957 5.48869565C455.162899 5.48869565 454.871884 5.34666667 454.653913 5.0626087 454.435942 4.77855072 454.326957 4.40231884 454.326957 3.93391304 454.326957 3.40521739 454.436522 2.99884058 454.655652 2.71478261 454.874783 2.43072464 455.162899 2.28869565 455.52 2.28869565 455.884058 2.28869565 456.176232 2.43246377 456.396522 2.72 456.616812 3.00753623 456.726957 3.38318841 456.726957 3.84695652 456.726957 4.36637681 456.618551 4.76985507 456.401739 5.0573913 456.184928 5.34492754 455.893333 5.48869565 455.526957 5.48869565zM459.589565 6.07652174C459.770435 6.07652174 459.955942 6.05101449 460.146087 6L460.146087 6 460.146087 5.41565217C460 5.4457971 459.885217 5.46086957 459.801739 5.46086957 459.632464 5.46086957 459.512464 5.41855072 459.441739 5.33391304 459.371014 5.24927536 459.335652 5.12231884 459.335652 4.95304348L459.335652 4.95304348 459.335652 2.33043478 460.125217 2.33043478 460.125217 1.77391304 459.335652 1.77391304 459.335652.751304348 458.612174.751304348 458.612174 1.77391304 457.843478 1.77391304 457.843478 2.33043478 458.612174 2.33043478 458.612174 4.95304348C458.612174 5.31246377 458.694493 5.58956522 458.85913 5.78434783 459.023768 5.97913043 459.267246 6.07652174 459.589565 6.07652174zM462.201739 6.07652174C462.382609 6.07652174 462.568116 6.05101449 462.758261 6L462.758261 6 462.758261 5.41565217C462.612174 5.4457971 462.497391 5.46086957 462.413913 5.46086957 462.244638 5.46086957 462.124638 5.41855072 462.053913 5.33391304 461.983188 5.24927536 461.947826 5.12231884 461.947826 4.95304348L461.947826 4.95304348 461.947826 2.33043478 462.737391 2.33043478 462.737391 1.77391304 461.947826 1.77391304 461.947826.751304348 461.224348.751304348 461.224348 1.77391304 460.455652 1.77391304 460.455652 2.33043478 461.224348 2.33043478 461.224348 4.95304348C461.224348 5.31246377 461.306667 5.58956522 461.471304 5.78434783 461.635942 5.97913043 461.87942 6.07652174 462.201739 6.07652174zM465.332174 6.07652174C466.041739 6.07652174 466.573913 5.80521739 466.928696 5.2626087L466.928696 5.2626087 466.486957 4.91826087C466.352464 5.08985507 466.197101 5.22782609 466.02087 5.33217391 465.844638 5.43652174 465.628986 5.48869565 465.373913 5.48869565 465.014493 5.48869565 464.718261 5.36057971 464.485217 5.10434783 464.252174 4.84811594 464.129855 4.51130435 464.118261 4.09391304L464.118261 4.09391304 466.98087 4.09391304 466.98087 3.79130435C466.98087 3.11884058 466.828986 2.60115942 466.525217 2.23826087 466.221449 1.87536232 465.794783 1.69391304 465.245217 1.69391304 464.908986 1.69391304 464.597101 1.78724638 464.309565 1.97391304 464.022029 2.16057971 463.797681 2.41855072 463.636522 2.74782609 463.475362 3.07710145 463.394783 3.4515942 463.394783 3.87130435L463.394783 3.87130435 463.394783 4.00347826C463.394783 4.6342029 463.574493 5.1373913 463.933913 5.51304348 464.293333 5.88869565 464.75942 6.07652174 465.332174 6.07652174zM466.26087 3.49913043L464.142609 3.49913043C464.188986 3.11652174 464.311304 2.81913043 464.509565 2.60695652 464.707826 2.39478261 464.953043 2.28869565 465.245217 2.28869565 465.546667 2.28869565 465.786087 2.38956522 465.963478 2.59130435 466.14087 2.79304348 466.24 3.07826087 466.26087 3.44695652L466.26087 3.44695652 466.26087 3.49913043zM469.304348 6.07652174C469.81913 6.07652174 470.221449 5.90028986 470.511304 5.54782609L470.511304 5.54782609 470.546087 6 471.210435 6 471.210435 0 470.486957 0 470.486957 2.20173913C470.19942 1.86318841 469.807536 1.69391304 469.311304 1.69391304 468.815072 1.69391304 468.413333 1.8915942 468.106087 2.28695652 467.798841 2.68231884 467.645217 3.20347826 467.645217 3.85043478L467.645217 3.85043478 467.645217 3.90608696C467.645217 4.55304348 467.79942 5.07652174 468.107826 5.47652174 468.416232 5.87652174 468.815072 6.07652174 469.304348 6.07652174zM469.485217 5.46434783C469.135072 5.46434783 468.86087 5.32927536 468.662609 5.05913043 468.464348 4.78898551 468.365217 4.41391304 468.365217 3.93391304 468.365217 3.39826087 468.464348 2.99362319 468.662609 2.72 468.86087 2.44637681 469.137391 2.30956522 469.492174 2.30956522 469.93971 2.30956522 470.271304 2.50898551 470.486957 2.90782609L470.486957 2.90782609 470.486957 4.84869565C470.275942 5.25913043 469.942029 5.46434783 469.485217 5.46434783zM450.466087 16.0765217C451.066667 16.0765217 451.546667 15.937971 451.906087 15.6608696 452.265507 15.3837681 452.445217 15.0144928 452.445217 14.5530435 452.445217 14.2655072 452.38087 14.0150725 452.252174 13.8017391 452.123478 13.5884058 451.925797 13.4011594 451.65913 13.24 451.392464 13.0788406 451.022609 12.9321739 450.549565 12.8 450.076522 12.6678261 449.741449 12.5217391 449.544348 12.3617391 449.347246 12.2017391 449.248696 12.0057971 449.248696 11.773913 449.248696 11.484058 449.352464 11.257971 449.56 11.0956522 449.767536 10.9333333 450.055652 10.8521739 450.424348 10.8521739 450.823188 10.8521739 451.132174 10.9501449 451.351304 11.146087 451.570435 11.342029 451.68 11.6127536 451.68 11.9582609L451.68 11.9582609 452.434783 11.9582609C452.434783 11.6428986 452.350725 11.3524638 452.182609 11.0869565 452.014493 10.8214493 451.777391 10.6127536 451.471304 10.4608696 451.165217 10.3089855 450.816232 10.2330435 450.424348 10.2330435 449.851594 10.2330435 449.386667 10.3797101 449.029565 10.6730435 448.672464 10.9663768 448.493913 11.3368116 448.493913 11.7843478 448.493913 12.1808696 448.64 12.5136232 448.932174 12.7826087 449.224348 13.0515942 449.692754 13.2788406 450.337391 13.4643478 450.849855 13.6127536 451.203478 13.7634783 451.398261 13.9165217 451.593043 14.0695652 451.690435 14.2852174 451.690435 14.5634783 451.690435 14.8417391 451.584928 15.0614493 451.373913 15.2226087 451.162899 15.3837681 450.86029 15.4643478 450.466087 15.4643478 450.041739 15.4643478 449.702609 15.3646377 449.448696 15.1652174 449.194783 14.9657971 449.067826 14.6944928 449.067826 14.3513043L449.067826 14.3513043 448.313043 14.3513043C448.313043 14.6828986 448.404638 14.9785507 448.587826 15.2382609 448.771014 15.497971 449.031884 15.7026087 449.370435 15.8521739 449.708986 16.0017391 450.074203 16.0765217 450.466087 16.0765217zM455.046957 16.0765217C455.756522 16.0765217 456.288696 15.8052174 456.643478 15.2626087L456.643478 15.2626087 456.201739 14.9182609C456.067246 15.0898551 455.911884 15.2278261 455.735652 15.3321739 455.55942 15.4365217 455.343768 15.4886957 455.088696 15.4886957 454.729275 15.4886957 454.433043 15.3605797 454.2 15.1043478 453.966957 14.8481159 453.844638 14.5113043 453.833043 14.093913L453.833043 14.093913 456.695652 14.093913 456.695652 13.7913043C456.695652 13.1188406 456.543768 12.6011594 456.24 12.2382609 455.936232 11.8753623 455.509565 11.693913 454.96 11.693913 454.623768 11.693913 454.311884 11.7872464 454.024348 11.973913 453.736812 12.1605797 453.512464 12.4185507 453.351304 12.7478261 453.190145 13.0771014 453.109565 13.4515942 453.109565 13.8713043L453.109565 13.8713043 453.109565 14.0034783C453.109565 14.6342029 453.289275 15.1373913 453.648696 15.5130435 454.008116 15.8886957 454.474203 16.0765217 455.046957 16.0765217zM455.975652 13.4991304L453.857391 13.4991304C453.903768 13.1165217 454.026087 12.8191304 454.224348 12.6069565 454.422609 12.3947826 454.667826 12.2886957 454.96 12.2886957 455.261449 12.2886957 455.50087 12.3895652 455.678261 12.5913043 455.855652 12.7930435 455.954783 13.0782609 455.975652 13.4469565L455.975652 13.4469565 455.975652 13.4991304zM458.257391 16L458.257391 12.9878261C458.357101 12.786087 458.495072 12.6226087 458.671304 12.4973913 458.847536 12.3721739 459.052754 12.3095652 459.286957 12.3095652 459.576812 12.3095652 459.790145 12.3826087 459.926957 12.5286957 460.063768 12.6747826 460.133333 12.8997101 460.135652 13.2034783L460.135652 13.2034783 460.135652 16 460.85913 16 460.85913 13.2069565C460.852174 12.1982609 460.401159 11.693913 459.506087 11.693913 458.986667 11.693913 458.564638 11.897971 458.24 12.306087L458.24 12.306087 458.21913 11.773913 457.533913 11.773913 457.533913 16 458.257391 16zM463.433043 16.0765217C463.947826 16.0765217 464.350145 15.9002899 464.64 15.5478261L464.64 15.5478261 464.674783 16 465.33913 16 465.33913 10 464.615652 10 464.615652 12.2017391C464.328116 11.8631884 463.936232 11.693913 463.44 11.693913 462.943768 11.693913 462.542029 11.8915942 462.234783 12.2869565 461.927536 12.6823188 461.773913 13.2034783 461.773913 13.8504348L461.773913 13.8504348 461.773913 13.906087C461.773913 14.5530435 461.928116 15.0765217 462.236522 15.4765217 462.544928 15.8765217 462.943768 16.0765217 463.433043 16.0765217zM463.613913 15.4643478C463.263768 15.4643478 462.989565 15.3292754 462.791304 15.0591304 462.593043 14.7889855 462.493913 14.413913 462.493913 13.933913 462.493913 13.3982609 462.593043 12.9936232 462.791304 12.72 462.989565 12.4463768 463.266087 12.3095652 463.62087 12.3095652 464.068406 12.3095652 464.4 12.5089855 464.615652 12.9078261L464.615652 12.9078261 464.615652 14.8486957C464.404638 15.2591304 464.070725 15.4643478 463.613913 15.4643478zM466.890435 11.0608696C467.029565 11.0608696 467.135652 11.022029 467.208696 10.9443478 467.281739 10.8666667 467.318261 10.7686957 467.318261 10.6504348 467.318261 10.5344928 467.281739 10.435942 467.208696 10.3547826 467.135652 10.2736232 467.029565 10.2330435 466.890435 10.2330435 466.748986 10.2330435 466.642319 10.2736232 466.570435 10.3547826 466.498551 10.435942 466.462609 10.5356522 466.462609 10.653913 466.462609 10.7698551 466.498551 10.8666667 466.570435 10.9443478 466.642319 11.022029 466.748986 11.0608696 466.890435 11.0608696zM467.245217 16L467.245217 11.773913 466.521739 11.773913 466.521739 16 467.245217 16zM469.123478 16L469.123478 12.9878261C469.223188 12.786087 469.361159 12.6226087 469.537391 12.4973913 469.713623 12.3721739 469.918841 12.3095652 470.153043 12.3095652 470.442899 12.3095652 470.656232 12.3826087 470.793043 12.5286957 470.929855 12.6747826 470.99942 12.8997101 471.001739 13.2034783L471.001739 13.2034783 471.001739 16 471.725217 16 471.725217 13.2069565C471.718261 12.1982609 471.267246 11.693913 470.372174 11.693913 469.852754 11.693913 469.430725 11.897971 469.106087 12.306087L469.106087 12.306087 469.085217 11.773913 468.4 11.773913 468.4 16 469.123478 16zM474.42087 17.6626087C474.968116 17.6626087 475.403478 17.5055072 475.726957 17.1913043 476.050435 16.8771014 476.212174 16.4463768 476.212174 15.8991304L476.212174 15.8991304 476.212174 11.773913 475.551304 11.773913 475.516522 12.2434783C475.228986 11.8771014 474.826667 11.693913 474.309565 11.693913 473.808696 11.693913 473.405797 11.8886957 473.10087 12.2782609 472.795942 12.6678261 472.643478 13.1918841 472.643478 13.8504348 472.643478 14.5391304 472.796522 15.0823188 473.102609 15.48 473.408696 15.8776812 473.808696 16.0765217 474.302609 16.0765217 474.803478 16.0765217 475.197681 15.9107246 475.485217 15.5791304L475.485217 15.5791304 475.485217 15.9408696C475.485217 16.3002899 475.387246 16.5791304 475.191304 16.7773913 474.995362 16.9756522 474.721159 17.0747826 474.368696 17.0747826 473.921159 17.0747826 473.542029 16.8834783 473.231304 16.5008696L473.231304 16.5008696 472.85913 16.9321739C473.012174 17.1594203 473.234203 17.337971 473.525217 17.4678261 473.816232 17.5976812 474.114783 17.6626087 474.42087 17.6626087zM474.483478 15.4643478C474.131014 15.4643478 473.857391 15.3281159 473.662609 15.0556522 473.467826 14.7831884 473.370435 14.4092754 473.370435 13.933913 473.370435 13.3982609 473.468986 12.9936232 473.666087 12.72 473.863188 12.4463768 474.137971 12.3095652 474.490435 12.3095652 474.933333 12.3095652 475.264928 12.5113043 475.485217 12.9147826L475.485217 12.9147826 475.485217 14.8452174C475.271884 15.257971 474.937971 15.4643478 474.483478 15.4643478zM450.233043 120C450.745507 119.995362 451.193623 119.884638 451.577391 119.667826 451.961159 119.451014 452.256232 119.14087 452.462609 118.737391 452.668986 118.333913 452.772174 117.864348 452.772174 117.328696L452.772174 117.328696 452.772174 116.963478C452.769855 116.441739 452.665507 115.97913 452.45913 115.575652 452.252754 115.172174 451.95942 114.86087 451.57913 114.641739 451.198841 114.422609 450.76058 114.313043 450.264348 114.313043L450.264348 114.313043 448.66087 114.313043 448.66087 120 450.233043 120zM450.198261 119.387826L449.408696 119.387826 449.408696 114.928696 450.285217 114.928696C450.841739 114.935652 451.271884 115.117681 451.575652 115.474783 451.87942 115.831884 452.031304 116.333913 452.031304 116.98087L452.031304 116.98087 452.031304 117.311304C452.031304 117.976812 451.870725 118.489275 451.549565 118.848696 451.228406 119.208116 450.777971 119.387826 450.198261 119.387826L450.198261 119.387826zM455.526957 120.076522C455.907246 120.076522 456.244058 119.985507 456.537391 119.803478 456.830725 119.621449 457.055652 119.366957 457.212174 119.04 457.368696 118.713043 457.446957 118.344348 457.446957 117.933913L457.446957 117.933913 457.446957 117.881739C457.446957 117.22087 457.269565 116.691014 456.914783 116.292174 456.56 115.893333 456.095072 115.693913 455.52 115.693913 455.146667 115.693913 454.815072 115.783768 454.525217 115.963478 454.235362 116.143188 454.008696 116.398841 453.845217 116.730435 453.681739 117.062029 453.6 117.434203 453.6 117.846957L453.6 117.846957 453.6 117.89913C453.6 118.555362 453.777971 119.082319 454.133913 119.48 454.489855 119.877681 454.954203 120.076522 455.526957 120.076522zM455.526957 119.488696C455.162899 119.488696 454.871884 119.346667 454.653913 119.062609 454.435942 118.778551 454.326957 118.402319 454.326957 117.933913 454.326957 117.405217 454.436522 116.998841 454.655652 116.714783 454.874783 116.430725 455.162899 116.288696 455.52 116.288696 455.884058 116.288696 456.176232 116.432464 456.396522 116.72 456.616812 117.007536 456.726957 117.383188 456.726957 117.846957 456.726957 118.366377 456.618551 118.769855 456.401739 119.057391 456.184928 119.344928 455.893333 119.488696 455.526957 119.488696zM459.589565 120.076522C459.770435 120.076522 459.955942 120.051014 460.146087 120L460.146087 120 460.146087 119.415652C460 119.445797 459.885217 119.46087 459.801739 119.46087 459.632464 119.46087 459.512464 119.418551 459.441739 119.333913 459.371014 119.249275 459.335652 119.122319 459.335652 118.953043L459.335652 118.953043 459.335652 116.330435 460.125217 116.330435 460.125217 115.773913 459.335652 115.773913 459.335652 114.751304 458.612174 114.751304 458.612174 115.773913 457.843478 115.773913 457.843478 116.330435 458.612174 116.330435 458.612174 118.953043C458.612174 119.312464 458.694493 119.589565 458.85913 119.784348 459.023768 119.97913 459.267246 120.076522 459.589565 120.076522zM462.201739 120.076522C462.382609 120.076522 462.568116 120.051014 462.758261 120L462.758261 120 462.758261 119.415652C462.612174 119.445797 462.497391 119.46087 462.413913 119.46087 462.244638 119.46087 462.124638 119.418551 462.053913 119.333913 461.983188 119.249275 461.947826 119.122319 461.947826 118.953043L461.947826 118.953043 461.947826 116.330435 462.737391 116.330435 462.737391 115.773913 461.947826 115.773913 461.947826 114.751304 461.224348 114.751304 461.224348 115.773913 460.455652 115.773913 460.455652 116.330435 461.224348 116.330435 461.224348 118.953043C461.224348 119.312464 461.306667 119.589565 461.471304 119.784348 461.635942 119.97913 461.87942 120.076522 462.201739 120.076522zM465.332174 120.076522C466.041739 120.076522 466.573913 119.805217 466.928696 119.262609L466.928696 119.262609 466.486957 118.918261C466.352464 119.089855 466.197101 119.227826 466.02087 119.332174 465.844638 119.436522 465.628986 119.488696 465.373913 119.488696 465.014493 119.488696 464.718261 119.36058 464.485217 119.104348 464.252174 118.848116 464.129855 118.511304 464.118261 118.093913L464.118261 118.093913 466.98087 118.093913 466.98087 117.791304C466.98087 117.118841 466.828986 116.601159 466.525217 116.238261 466.221449 115.875362 465.794783 115.693913 465.245217 115.693913 464.908986 115.693913 464.597101 115.787246 464.309565 115.973913 464.022029 116.16058 463.797681 116.418551 463.636522 116.747826 463.475362 117.077101 463.394783 117.451594 463.394783 117.871304L463.394783 117.871304 463.394783 118.003478C463.394783 118.634203 463.574493 119.137391 463.933913 119.513043 464.293333 119.888696 464.75942 120.076522 465.332174 120.076522zM466.26087 117.49913L464.142609 117.49913C464.188986 117.116522 464.311304 116.81913 464.509565 116.606957 464.707826 116.394783 464.953043 116.288696 465.245217 116.288696 465.546667 116.288696 465.786087 116.389565 465.963478 116.591304 466.14087 116.793043 466.24 117.078261 466.26087 117.446957L466.26087 117.446957 466.26087 117.49913zM469.304348 120.076522C469.81913 120.076522 470.221449 119.90029 470.511304 119.547826L470.511304 119.547826 470.546087 120 471.210435 120 471.210435 114 470.486957 114 470.486957 116.201739C470.19942 115.863188 469.807536 115.693913 469.311304 115.693913 468.815072 115.693913 468.413333 115.891594 468.106087 116.286957 467.798841 116.682319 467.645217 117.203478 467.645217 117.850435L467.645217 117.850435 467.645217 117.906087C467.645217 118.553043 467.79942 119.076522 468.107826 119.476522 468.416232 119.876522 468.815072 120.076522 469.304348 120.076522zM469.485217 119.464348C469.135072 119.464348 468.86087 119.329275 468.662609 119.05913 468.464348 118.788986 468.365217 118.413913 468.365217 117.933913 468.365217 117.398261 468.464348 116.993623 468.662609 116.72 468.86087 116.446377 469.137391 116.309565 469.492174 116.309565 469.93971 116.309565 470.271304 116.508986 470.486957 116.907826L470.486957 116.907826 470.486957 118.848696C470.275942 119.25913 469.942029 119.464348 469.485217 119.464348zM450.295652 130L451.513043 125.853913 451.6 125.422609 451.690435 125.853913 452.862609 130 453.547826 130 454.925217 124.313043 454.170435 124.313043 453.290435 128.201739 453.168696 128.970435 453.012174 128.281739 451.913043 124.313043 451.28 124.313043 450.156522 128.281739 449.996522 128.956522 449.885217 128.208696 448.987826 124.313043 448.24 124.313043 449.613913 130 450.295652 130zM456.949565 130.076522C457.415652 130.076522 457.816812 129.902609 458.153043 129.554783 458.178551 129.768116 458.212174 129.916522 458.253913 130L458.253913 130 459.012174 130 459.012174 129.937391C458.914783 129.707826 458.866087 129.39942 458.866087 129.012174L458.866087 129.012174 458.866087 127.067826C458.854493 126.638841 458.710725 126.302609 458.434783 126.05913 458.158841 125.815652 457.777391 125.693913 457.290435 125.693913 456.984348 125.693913 456.702609 125.751304 456.445217 125.866087 456.187826 125.98087 455.984348 126.136812 455.834783 126.333913 455.685217 126.531014 455.610435 126.735072 455.610435 126.946087L455.610435 126.946087 456.337391 126.946087C456.337391 126.76058 456.424348 126.602899 456.598261 126.473043 456.772174 126.343188 456.988986 126.278261 457.248696 126.278261 457.543188 126.278261 457.765797 126.353043 457.916522 126.502609 458.067246 126.652174 458.142609 126.853333 458.142609 127.106087L458.142609 127.106087 458.142609 127.436522 457.44 127.436522C456.832464 127.436522 456.361159 127.558261 456.026087 127.801739 455.691014 128.045217 455.523478 128.387246 455.523478 128.827826 455.523478 129.189565 455.657391 129.488116 455.925217 129.723478 456.193043 129.958841 456.534493 130.076522 456.949565 130.076522zM457.057391 129.450435C456.818551 129.450435 456.623768 129.386667 456.473043 129.25913 456.322319 129.131594 456.246957 128.954203 456.246957 128.726957 456.246957 128.207536 456.689855 127.947826 457.575652 127.947826L457.575652 127.947826 458.142609 127.947826 458.142609 128.817391C458.052174 129.005217 457.904928 129.157681 457.70087 129.274783 457.496812 129.391884 457.282319 129.450435 457.057391 129.450435zM460.427826 125.06087C460.566957 125.06087 460.673043 125.022029 460.746087 124.944348 460.81913 124.866667 460.855652 124.768696 460.855652 124.650435 460.855652 124.534493 460.81913 124.435942 460.746087 124.354783 460.673043 124.273623 460.566957 124.233043 460.427826 124.233043 460.286377 124.233043 460.17971 124.273623 460.107826 124.354783 460.035942 124.435942 460 124.535652 460 124.653913 460 124.769855 460.035942 124.866667 460.107826 124.944348 460.17971 125.022029 460.286377 125.06087 460.427826 125.06087zM460.782609 130L460.782609 125.773913 460.05913 125.773913 460.05913 130 460.782609 130zM463.172174 130.076522C463.353043 130.076522 463.538551 130.051014 463.728696 130L463.728696 130 463.728696 129.415652C463.582609 129.445797 463.467826 129.46087 463.384348 129.46087 463.215072 129.46087 463.095072 129.418551 463.024348 129.333913 462.953623 129.249275 462.918261 129.122319 462.918261 128.953043L462.918261 128.953043 462.918261 126.330435 463.707826 126.330435 463.707826 125.773913 462.918261 125.773913 462.918261 124.751304 462.194783 124.751304 462.194783 125.773913 461.426087 125.773913 461.426087 126.330435 462.194783 126.330435 462.194783 128.953043C462.194783 129.312464 462.277101 129.589565 462.441739 129.784348 462.606377 129.97913 462.849855 130.076522 463.172174 130.076522zM464.98087 125.06087C465.12 125.06087 465.226087 125.022029 465.29913 124.944348 465.372174 124.866667 465.408696 124.768696 465.408696 124.650435 465.408696 124.534493 465.372174 124.435942 465.29913 124.354783 465.226087 124.273623 465.12 124.233043 464.98087 124.233043 464.83942 124.233043 464.732754 124.273623 464.66087 124.354783 464.588986 124.435942 464.553043 124.535652 464.553043 124.653913 464.553043 124.769855 464.588986 124.866667 464.66087 124.944348 464.732754 125.022029 464.83942 125.06087 464.98087 125.06087zM465.335652 130L465.335652 125.773913 464.612174 125.773913 464.612174 130 465.335652 130zM467.213913 130L467.213913 126.987826C467.313623 126.786087 467.451594 126.622609 467.627826 126.497391 467.804058 126.372174 468.009275 126.309565 468.243478 126.309565 468.533333 126.309565 468.746667 126.382609 468.883478 126.528696 469.02029 126.674783 469.089855 126.89971 469.092174 127.203478L469.092174 127.203478 469.092174 130 469.815652 130 469.815652 127.206957C469.808696 126.198261 469.357681 125.693913 468.462609 125.693913 467.943188 125.693913 467.521159 125.897971 467.196522 126.306087L467.196522 126.306087 467.175652 125.773913 466.490435 125.773913 466.490435 130 467.213913 130zM472.511304 131.662609C473.058551 131.662609 473.493913 131.505507 473.817391 131.191304 474.14087 130.877101 474.302609 130.446377 474.302609 129.89913L474.302609 129.89913 474.302609 125.773913 473.641739 125.773913 473.606957 126.243478C473.31942 125.877101 472.917101 125.693913 472.4 125.693913 471.89913 125.693913 471.496232 125.888696 471.191304 126.278261 470.886377 126.667826 470.733913 127.191884 470.733913 127.850435 470.733913 128.53913 470.886957 129.082319 471.193043 129.48 471.49913 129.877681 471.89913 130.076522 472.393043 130.076522 472.893913 130.076522 473.288116 129.910725 473.575652 129.57913L473.575652 129.57913 473.575652 129.94087C473.575652 130.30029 473.477681 130.57913 473.281739 130.777391 473.085797 130.975652 472.811594 131.074783 472.45913 131.074783 472.011594 131.074783 471.632464 130.883478 471.321739 130.50087L471.321739 130.50087 470.949565 130.932174C471.102609 131.15942 471.324638 131.337971 471.615652 131.467826 471.906667 131.597681 472.205217 131.662609 472.511304 131.662609zM472.573913 129.464348C472.221449 129.464348 471.947826 129.328116 471.753043 129.055652 471.558261 128.783188 471.46087 128.409275 471.46087 127.933913 471.46087 127.398261 471.55942 126.993623 471.756522 126.72 471.953623 126.446377 472.228406 126.309565 472.58087 126.309565 473.023768 126.309565 473.355362 126.511304 473.575652 126.914783L473.575652 126.914783 473.575652 128.845217C473.362319 129.257971 473.028406 129.464348 472.573913 129.464348z" transform="translate(0 55)"/>
<g fill="#000000" fill-opacity=".12" transform="translate(254)">
<rect width="1" height="82"/>
<rect width="1" height="82" y="114"/>
<rect width="1" height="82" x="149"/>
<rect width="1" height="82" x="149" y="114"/>
</g>
<g fill="#EA475B" fill-rule="nonzero" transform="translate(464 18)">
<circle cx="2" cy="2" r="2" style="animation:ioSpinner 1s infinite ease-in-out;transform-origin:center;animation-delay:0.45s;opacity:0"/>
<circle cx="4" cy="2" r="2" style="animation:ioSpinner 1s infinite ease-in-out;transform-origin:center;animation-delay:0.3s;opacity:0"/>
<circle cx="6" cy="2" r="2" style="animation:ioSpinner 1s infinite ease-in-out;transform-origin:center;animation-delay:0.15s;opacity:0"/>
<circle cx="8" cy="2" r="2" style="animation:ioSpinner 1s infinite ease-in-out;transform-origin:center;animation-delay:0s;opacity:0"/>
</g>
<g transform="translate(321 12)">
<path fill="#EA475B" fill-opacity=".12" fill-rule="nonzero" d="M8.5,0 C3.80557963,0 0,3.80557963 0,8.5 C0,13.1944204 3.80557963,17 8.5,17 C13.1944204,17 17,13.1944204 17,8.5 C17,3.80557963 13.1944204,0 8.5,0 Z M8.5,2 C12.0898509,2 15,4.91014913 15,8.5 C15,12.0898509 12.0898509,15 8.5,15 C4.91014913,15 2,12.0898509 2,8.5 C2,4.91014913 4.91014913,2 8.5,2 Z"/>
<circle style="animation:spin_deter 6000ms cubic-bezier(0.83, 0, 0.17, 1) infinite" cx="8.5" cy="8.5" r="7.5" stroke="#EA475B" stroke-linejoin="round" stroke-linecap="round" stroke-width="2"/>
</g>
<g fill="#EA475B" style="animation:box_deter 6000ms ease-out infinite; transform-origin:0px 18px">
 <rect width="226" height="4" fill-opacity=".12"/>
  <rect width="2" height="4" fill-rule="nonzero" style="animation:lin_deter 6000ms cubic-bezier(0.83, 0, 0.17, 1) infinite" />
</g>
<g transform="" style="animation-name: svgRotateSpinner;animation-duration: 0.8s;animation-timing-function: linear;animation-iteration-count: infinite;">
  <path fill="#EA475B" fill-opacity=".12" fill-rule="nonzero" d="M8.5,0 C3.80557963,0 0,3.80557963 0,8.5 C0,13.1944204 3.80557963,17 8.5,17 C13.1944204,17 17,13.1944204 17,8.5 C17,3.80557963 13.1944204,0 8.5,0 Z M8.5,2 C12.0898509,2 15,4.91014913 15,8.5 C15,12.0898509 12.0898509,15 8.5,15 C4.91014913,15 2,12.0898509 2,8.5 C2,4.91014913 4.91014913,2 8.5,2 Z"/>
<circle style="animation:svgRotateSpinnerMoving 1.6s ease-in infinite" cx="8.5" cy="8.5" r="7.5" stroke="#EA475B" stroke-linejoin="round" stroke-linecap="round" stroke-width="2"/>
</g>
 <g fill="#EA475B" transform="translate(0 130.059)">
  <rect width="226" height="4" fill-opacity=".12"/>
  <g style="animation:lin_indeter_move 1200ms ease-out infinite;" >
<rect width="2" height="4" fill-rule="nonzero" style="animation:lin_indeter 1200ms ease-out infinite;transform-origin:1.5px 0px" />
  </g>
<rect width="16" height="8" fill="#FBFBFC" fill-rule="nonzero" transform="translate(226 -2)"  />
</g>
 <g fill="#EA475B" fill-rule="nonzero" transform="translate(468 133.5)">
  <circle cx="18" cy="2" r="2" style="animation:snakeProgress 1.25s infinite ease-in-out;animation-delay:.3s"/>
  <circle cx="10" cy="2" r="2" style="animation:snakeProgress 1.25s infinite ease-in-out;animation-delay:.15s"/>
  <circle cx="2" cy="2" r="2" style="animation:snakeProgress 1.25s infinite ease-in-out;animation-delay:.0s"/>
</g>
 </g>
  </g>
</svg>
