<svg xmlns="http://www.w3.org/2000/svg" width="520" height="128" viewBox="0 0 520 128">
  <g fill="none" fill-rule="evenodd">
    <rect width="520" height="128"/>
    <g transform="translate(448.5 60)">
      <rect width="8" height="8"/>
      <g stroke="#EA475B" stroke-linecap="round" stroke-width=".4" transform="translate(8)">
        <line x2="2" y1="1" y2="1"/>
        <line x2="2" y1="7" y2="7"/>
        <line x1="1" x2="1" y1="1" y2="7"/>
      </g>
      <path fill="#EA475B" fill-rule="nonzero" d="M16.7275391,6 L16.7275391,5.05078125 L17.2578125,5.05078125 L17.2578125,4.47949219 L16.7275391,4.47949219 L16.7275391,1.734375 L15.9921875,1.734375 L14.1523438,4.6171875 L14.1728516,5.05078125 L16.015625,5.05078125 L16.015625,6 L16.7275391,6 Z M16.015625,4.47949219 L14.8994141,4.47949219 L15.9628906,2.79199219 L16.015625,2.69824219 L16.015625,4.47949219 Z"/>
    </g>
    <g transform="translate(71 82)">
      <g stroke="#EA475B" stroke-linecap="round" stroke-width=".4" transform="translate(0 .91)">
        <line x1=".5" x2=".5" y2="2"/>
        <line x1="377.5" x2="377.5" y2="2"/>
        <line x2="377" y1="1" y2="1"/>
      </g>
      <path fill="#EA475B" fill-rule="nonzero" d="M173.399414,10 L174.067383,7.82324219 L174.74707,10 L175.333008,10 L176.197266,6.83007812 L175.50293,6.83007812 L174.999023,9.01855469 L174.339844,6.83007812 L173.803711,6.83007812 L173.15332,8.99511719 L172.640625,6.83007812 L171.946289,6.83007812 L172.813477,10 L173.399414,10 Z M177.076172,6.38183594 C177.205078,6.38183594 177.304688,6.34619141 177.375,6.27490234 C177.445312,6.20361328 177.480469,6.11425781 177.480469,6.00683594 C177.480469,5.89746094 177.445312,5.80664062 177.375,5.734375 C177.304688,5.66210938 177.205078,5.62597656 177.076172,5.62597656 C176.947266,5.62597656 176.848145,5.66210938 176.778809,5.734375 C176.709473,5.80664062 176.674805,5.89746094 176.674805,6.00683594 C176.674805,6.11425781 176.709473,6.20361328 176.778809,6.27490234 C176.848145,6.34619141 176.947266,6.38183594 177.076172,6.38183594 Z M177.430664,10 L177.430664,6.83007812 L176.71875,6.83007812 L176.71875,10 L177.430664,10 Z M179.317383,10.0585938 C179.672852,10.0585938 179.957031,9.9296875 180.169922,9.671875 L180.169922,9.671875 L180.205078,10 L180.849609,10 L180.849609,5.5 L180.137695,5.5 L180.137695,7.12304688 C179.930664,6.88867188 179.65918,6.77148438 179.323242,6.77148438 C178.942383,6.77148438 178.638672,6.91943359 178.412109,7.21533203 C178.185547,7.51123047 178.072266,7.90332031 178.072266,8.39160156 C178.072266,8.90527344 178.187012,9.31152344 178.416504,9.61035156 C178.645996,9.90917969 178.946289,10.0585938 179.317383,10.0585938 Z M179.499023,9.47851562 C179.270508,9.47851562 179.094238,9.38818359 178.970215,9.20751953 C178.846191,9.02685547 178.78418,8.77539062 178.78418,8.453125 C178.78418,8.0859375 178.84668,7.81103516 178.97168,7.62841797 C179.09668,7.44580078 179.274414,7.35449219 179.504883,7.35449219 C179.795898,7.35449219 180.006836,7.48144531 180.137695,7.73535156 L180.137695,7.73535156 L180.137695,9.08886719 C180.00293,9.34863281 179.790039,9.47851562 179.499023,9.47851562 Z M182.592773,10.0585938 C182.743164,10.0585938 182.899414,10.0361328 183.061523,9.99121094 L183.061523,9.99121094 L183.061523,9.44042969 C182.977539,9.45996094 182.894531,9.46972656 182.8125,9.46972656 C182.689453,9.46972656 182.604004,9.44287109 182.556152,9.38916016 C182.508301,9.33544922 182.484375,9.24804688 182.484375,9.12695312 L182.484375,9.12695312 L182.484375,7.35742188 L183.043945,7.35742188 L183.043945,6.83007812 L182.484375,6.83007812 L182.484375,6.05957031 L181.772461,6.05957031 L181.772461,6.83007812 L181.250977,6.83007812 L181.250977,7.35742188 L181.772461,7.35742188 L181.772461,9.15332031 C181.772461,9.75683594 182.045898,10.0585938 182.592773,10.0585938 Z M184.289062,10 L184.289062,7.73535156 C184.429688,7.48144531 184.642578,7.35449219 184.927734,7.35449219 C185.111328,7.35449219 185.250488,7.39990234 185.345215,7.49072266 C185.439941,7.58154297 185.487305,7.73632812 185.487305,7.95507812 L185.487305,7.95507812 L185.487305,10 L186.199219,10 L186.199219,7.92871094 C186.189453,7.15722656 185.84668,6.77148438 185.170898,6.77148438 C184.81543,6.77148438 184.521484,6.90625 184.289062,7.17578125 L184.289062,7.17578125 L184.289062,5.5 L183.577148,5.5 L183.577148,10 L184.289062,10 Z M187.347656,7.54492188 C187.480469,7.54492188 187.583008,7.50830078 187.655273,7.43505859 C187.727539,7.36181641 187.763672,7.26953125 187.763672,7.15820312 C187.763672,7.04492188 187.727539,6.95068359 187.655273,6.87548828 C187.583008,6.80029297 187.480469,6.76269531 187.347656,6.76269531 C187.216797,6.76269531 187.115234,6.80029297 187.042969,6.87548828 C186.970703,6.95068359 186.93457,7.04492188 186.93457,7.15820312 C186.93457,7.27148438 186.97168,7.36425781 187.045898,7.43652344 C187.120117,7.50878906 187.220703,7.54492188 187.347656,7.54492188 Z M187.347656,10.0322266 C187.480469,10.0322266 187.583008,9.99560547 187.655273,9.92236328 C187.727539,9.84912109 187.763672,9.75683594 187.763672,9.64550781 C187.763672,9.53222656 187.727539,9.43798828 187.655273,9.36279297 C187.583008,9.28759766 187.480469,9.25 187.347656,9.25 C187.216797,9.25 187.115234,9.28759766 187.042969,9.36279297 C186.970703,9.43798828 186.93457,9.53222656 186.93457,9.64550781 C186.93457,9.75878906 186.97168,9.8515625 187.045898,9.92382812 C187.120117,9.99609375 187.220703,10.0322266 187.347656,10.0322266 Z M191.885742,10 L191.885742,5.71972656 L191.794922,5.71972656 L190.130859,6.33203125 L190.130859,6.93261719 L191.176758,6.57519531 L191.176758,10 L191.885742,10 Z M194.756836,10.0585938 C195.225586,10.0585938 195.574707,9.90283203 195.804199,9.59130859 C196.033691,9.27978516 196.148438,8.81738281 196.148438,8.20410156 L196.148438,8.20410156 L196.148438,7.46582031 C196.142578,6.87011719 196.024902,6.42285156 195.79541,6.12402344 C195.565918,5.82519531 195.217773,5.67578125 194.750977,5.67578125 C194.280273,5.67578125 193.930176,5.82910156 193.700684,6.13574219 C193.471191,6.44238281 193.356445,6.90234375 193.356445,7.515625 L193.356445,7.515625 L193.356445,8.25390625 C193.362305,8.84960938 193.481934,9.29931641 193.715332,9.60302734 C193.94873,9.90673828 194.295898,10.0585938 194.756836,10.0585938 Z M194.756836,9.49023438 C194.518555,9.49023438 194.34375,9.39257812 194.232422,9.19726562 C194.121094,9.00195312 194.06543,8.70507812 194.06543,8.30664062 L194.06543,8.30664062 L194.06543,7.33984375 C194.071289,6.96484375 194.128906,6.68896484 194.238281,6.51220703 C194.347656,6.33544922 194.518555,6.24707031 194.750977,6.24707031 C194.989258,6.24707031 195.163086,6.34033203 195.272461,6.52685547 C195.381836,6.71337891 195.436523,7.00683594 195.436523,7.40722656 L195.436523,7.40722656 L195.436523,8.37109375 C195.430664,8.75585938 195.373047,9.03857422 195.263672,9.21923828 C195.154297,9.39990234 194.985352,9.49023438 194.756836,9.49023438 Z M198.166992,10.0585938 C198.635742,10.0585938 198.984863,9.90283203 199.214355,9.59130859 C199.443848,9.27978516 199.558594,8.81738281 199.558594,8.20410156 L199.558594,8.20410156 L199.558594,7.46582031 C199.552734,6.87011719 199.435059,6.42285156 199.205566,6.12402344 C198.976074,5.82519531 198.62793,5.67578125 198.161133,5.67578125 C197.69043,5.67578125 197.340332,5.82910156 197.11084,6.13574219 C196.881348,6.44238281 196.766602,6.90234375 196.766602,7.515625 L196.766602,7.515625 L196.766602,8.25390625 C196.772461,8.84960938 196.89209,9.29931641 197.125488,9.60302734 C197.358887,9.90673828 197.706055,10.0585938 198.166992,10.0585938 Z M198.166992,9.49023438 C197.928711,9.49023438 197.753906,9.39257812 197.642578,9.19726562 C197.53125,9.00195312 197.475586,8.70507812 197.475586,8.30664062 L197.475586,8.30664062 L197.475586,7.33984375 C197.481445,6.96484375 197.539062,6.68896484 197.648438,6.51220703 C197.757812,6.33544922 197.928711,6.24707031 198.161133,6.24707031 C198.399414,6.24707031 198.573242,6.34033203 198.682617,6.52685547 C198.791992,6.71337891 198.84668,7.00683594 198.84668,7.40722656 L198.84668,7.40722656 L198.84668,8.37109375 C198.84082,8.75585938 198.783203,9.03857422 198.673828,9.21923828 C198.564453,9.39990234 198.395508,9.49023438 198.166992,9.49023438 Z M201.067383,7.65625 C201.336914,7.65625 201.554199,7.57421875 201.719238,7.41015625 C201.884277,7.24609375 201.966797,7.03613281 201.966797,6.78027344 L201.966797,6.78027344 L201.966797,6.56933594 C201.966797,6.30175781 201.884277,6.08544922 201.719238,5.92041016 C201.554199,5.75537109 201.334961,5.67285156 201.061523,5.67285156 C200.791992,5.67285156 200.574219,5.75537109 200.408203,5.92041016 C200.242188,6.08544922 200.15918,6.296875 200.15918,6.5546875 L200.15918,6.5546875 L200.15918,6.76269531 C200.15918,7.03613281 200.244629,7.25341797 200.415527,7.41455078 C200.586426,7.57568359 200.803711,7.65625 201.067383,7.65625 Z M201.067383,7.23144531 C200.944336,7.23144531 200.845215,7.18994141 200.77002,7.10693359 C200.694824,7.02392578 200.657227,6.91503906 200.657227,6.78027344 L200.657227,6.78027344 L200.657227,6.56347656 C200.657227,6.42480469 200.693848,6.31298828 200.76709,6.22802734 C200.840332,6.14306641 200.938477,6.10058594 201.061523,6.10058594 C201.18457,6.10058594 201.283691,6.14257812 201.358887,6.2265625 C201.434082,6.31054688 201.47168,6.41992188 201.47168,6.5546875 L201.47168,6.5546875 L201.47168,6.76855469 C201.47168,6.91113281 201.43457,7.02392578 201.360352,7.10693359 C201.286133,7.18994141 201.188477,7.23144531 201.067383,7.23144531 Z M201.213867,9.68066406 L203.296875,6.34667969 L202.930664,6.13574219 L200.847656,9.46972656 L201.213867,9.68066406 Z M203.121094,10.0585938 C203.394531,10.0585938 203.612793,9.97607422 203.775879,9.81103516 C203.938965,9.64599609 204.020508,9.43652344 204.020508,9.18261719 L204.020508,9.18261719 L204.020508,8.97460938 C204.020508,8.69921875 203.936035,8.48046875 203.76709,8.31835938 C203.598145,8.15625 203.380859,8.07519531 203.115234,8.07519531 C202.851562,8.07519531 202.634766,8.15625 202.464844,8.31835938 C202.294922,8.48046875 202.209961,8.69238281 202.209961,8.95410156 L202.209961,8.95410156 L202.209961,9.16796875 C202.209961,9.43554688 202.293457,9.65087891 202.460449,9.81396484 C202.627441,9.97705078 202.847656,10.0585938 203.121094,10.0585938 Z M203.121094,9.63671875 C203,9.63671875 202.900879,9.59423828 202.82373,9.50927734 C202.746582,9.42431641 202.708008,9.31542969 202.708008,9.18261719 L202.708008,9.18261719 L202.708008,8.96582031 C202.708008,8.82128906 202.745605,8.70800781 202.820801,8.62597656 C202.895996,8.54394531 202.994141,8.50292969 203.115234,8.50292969 C203.234375,8.50292969 203.332031,8.54394531 203.408203,8.62597656 C203.484375,8.70800781 203.522461,8.81738281 203.522461,8.95410156 L203.522461,8.95410156 L203.522461,9.17382812 C203.522461,9.3203125 203.486816,9.43408203 203.415527,9.51513672 C203.344238,9.59619141 203.246094,9.63671875 203.121094,9.63671875 Z"/>
    </g>
  </g>
</svg>
