<svg width="860" height="176" xmlns="http://www.w3.org/2000/svg" xmlns:xlink="http://www.w3.org/1999/xlink"><defs><filter x="-29.7%" y="-26.6%" width="159.4%" height="159.4%" filterUnits="objectBoundingBox" id="filter-2"><feOffset dy="1" in="SourceAlpha" result="shadowOffsetOuter1"/><feGaussianBlur stdDeviation="3" in="shadowOffsetOuter1" result="shadowBlurOuter1"/><feComposite in="shadowBlurOuter1" in2="SourceAlpha" operator="out" result="shadowBlurOuter1"/><feColorMatrix values="0 0 0 0 0 0 0 0 0 0 0 0 0 0 0 0 0 0 0.12 0" in="shadowBlurOuter1"/></filter><filter x="-28.1%" y="-25%" width="156.2%" height="156.2%" filterUnits="objectBoundingBox" id="filter-3"><feGaussianBlur stdDeviation="2" in="SourceAlpha" result="shadowBlurInner1"/><feOffset dy="2" in="shadowBlurInner1" result="shadowOffsetInner1"/><feComposite in="shadowOffsetInner1" in2="SourceAlpha" operator="arithmetic" k2="-1" k3="1" result="shadowInnerInner1"/><feColorMatrix values="0 0 0 0 1 0 0 0 0 1 0 0 0 0 1 0 0 0 1 0" in="shadowInnerInner1"/></filter><circle id="path-1" cx="16" cy="76" r="16"/></defs><style>@keyframes mouse_move{0%,12%,68%,to{transform:translate(0,0);opacity:1}20%,22%,26%,60%{transform:translate(40px,-40px);opacity:1}24%{transform:translate(40px,-40px);opacity:.2}}@keyframes emoji_back{0%,16%,82%,to{fill:#eee}22%,24%{fill:#bdbdbd}26%,80%{fill:#fbc02d}}</style><g id="Rows" stroke="none" stroke-width="1" fill="none" fill-rule="evenodd"><g id="rate_row_emoji"><rect id="base" fill-opacity="0" fill="#000000" x="0" y="0" width="860" height="176" rx="4"/><g id="Group" transform="translate(222 48)"><path id="row_base" fill-opacity="0" fill="#FFF" d="M0 .001h416v80H0z"/><path id="icon_base" fill-opacity="0" fill="#FFF" d="M76 20h40v40H76z"/><path d="M76 40c0-11.045 8.954-20 20-20s20 8.955 20 20c0 11.046-8.954 20-20 20s-20-8.954-20-20" id="face_base" fill="#EEE"/><path d="M102.978 45.383l1.002.961a1 1 0 01-1.385 1.444l-1.002-.962a8.053 8.053 0 00-11.187 0l-1.003.962a.999.999 0 01-1.414-.03 1 1 0 01.03-1.414l1.002-.962a10.045 10.045 0 0113.957.001zM84.98 33.434a1.002 1.002 0 011.367-.366l5.196 3c.004.003.006.007.011.01a.987.987 0 01.25.221c.02.024.04.047.057.073.015.021.034.04.048.062.022.038.023.08.04.12a.933.933 0 01.065.192.991.991 0 01.013.188c0 .064 0 .125-.013.19a.933.933 0 01-.065.192c-.017.04-.018.081-.04.118-.014.024-.033.041-.048.063a1.02 1.02 0 01-.057.073.987.987 0 01-.25.221c-.005.003-.007.007-.01.01l-5.197 3a1.001 1.001 0 01-1-1.733l3.695-2.134-3.695-2.133a1.001 1.001 0 01-.367-1.367zm20.654-.366a1.001 1.001 0 011 1.732l-3.696 2.134 3.696 2.134a1 1 0 11-1 1.732l-5.196-3-.011-.009a.99.99 0 01-.307-.294c-.015-.022-.035-.039-.048-.063-.022-.037-.024-.079-.041-.118a.993.993 0 01-.064-.193.926.926 0 01-.014-.189c0-.063 0-.125.014-.188.013-.069.038-.13.064-.194.017-.039.019-.08.04-.118.014-.023.034-.04.049-.062.018-.027.036-.049.056-.074a.987.987 0 01.25-.22l.012-.01z" id="face" fill-opacity=".56" fill="#000"/><path id="icon_base" fill-opacity="0" fill="#FFF" d="M132 20h40v40h-40z"/><path d="M132 40c0-11.046 8.954-20 20-20s20 8.954 20 20-8.954 20-20 20-20-8.954-20-20" id="face_base" fill="#EEE"/><path d="M158.978 46.382l1.003.964a1 1 0 01-1.387 1.442l-1.002-.963a8.051 8.051 0 00-11.186 0l-1.002.963a.998.998 0 01-1.414-.03.999.999 0 01.028-1.412l1.003-.963a10.05 10.05 0 0113.957-.001zm-14.267-11.32a2.364 2.364 0 110 4.73 2.365 2.365 0 010-4.73zm14.577 0a2.365 2.365 0 11.002 4.729 2.365 2.365 0 01-.002-4.73z" id="face" fill-opacity=".56" fill="#000"/><path id="icon_base" fill-opacity="0" fill="#FFF" d="M188 20h40v40h-40z"/><circle id="face_base" fill="#EEE" cx="208" cy="40.001" r="20"/><path d="M215.035 45c.534 0 .965.447.965 1 0 .553-.431 1-.965 1h-14.07c-.533 0-.965-.447-.965-1 0-.553.432-1 .965-1h14.07zM200.71 34.06a2.365 2.365 0 11.001 4.73 2.365 2.365 0 010-4.73zm14.577 0a2.365 2.365 0 11.001 4.732 2.365 2.365 0 01-.001-4.731z" id="face" fill-opacity=".56" fill="#000"/><path id="icon_base" fill-opacity="0" fill="#FFF" d="M244 20h40v40h-40zM300 20h40v40h-40z"/><path d="M300 40c0-11.045 8.954-20 20-20s20 8.955 20 20c0 11.046-8.954 20-20 20s-20-8.954-20-20" id="face_base" fill="#EEE"/><path d="M328.009 46.373a1 1 0 01-.028 1.415l-1.002.963a10.047 10.047 0 01-13.958.001l-1.002-.965a.999.999 0 111.385-1.441l1.003.962a8.05 8.05 0 0011.187 0l1.001-.962a1 1 0 011.414.028zM314.33 34.367l.152.008a1.953 1.953 0 011.723 2.074c-.156 1.958-2.61 3.566-3.31 3.985a.353.353 0 01-.368 0c-.698-.42-3.154-2.027-3.31-3.984a1.954 1.954 0 011.724-2.075c.715-.081 1.364.5 1.77.986.407-.485 1.056-1.067 1.771-.986zm14.577 0l.152.008a1.953 1.953 0 011.723 2.074c-.155 1.958-2.61 3.566-3.309 3.985a.355.355 0 01-.369 0c-.698-.42-3.154-2.027-3.31-3.984a1.955 1.955 0 011.724-2.075c.715-.081 1.364.5 1.77.986.407-.485 1.056-1.067 1.771-.986z" id="face" fill-opacity=".56" fill="#000"/></g><g id="Group-2" transform="translate(414 68)"><circle id="face_base" fill="#EEE" cx="72" cy="20" r="20" style="animation:emoji_back 5000ms ease-out infinite"/><path d="M80.01 26.374a1 1 0 01-.03 1.414l-1.001.962a10.047 10.047 0 01-13.958 0l-1.002-.962a1 1 0 011.385-1.444l1.002.962a8.052 8.052 0 0011.188 0l1.002-.962a1 1 0 011.414.03zM64.711 14.061a2.364 2.364 0 110 4.73 2.365 2.365 0 010-4.73zm14.577 0a2.365 2.365 0 11.002 4.73 2.365 2.365 0 01-.002-4.73z" id="face" fill-opacity=".56" fill="#000"/><g id="Oval"><use fill="#000" filter="url(#filter-2)" xlink:href="#path-1" style="animation:mouse_move 5000ms ease-out infinite"/><use fill-opacity=".56" fill="#FFF" xlink:href="#path-1" style="animation:mouse_move 5000ms ease-out infinite"/><use fill="#000" filter="url(#filter-3)" xlink:href="#path-1" style="animation:mouse_move 5000ms ease-out infinite"/></g></g></g></g></svg>