<svg width="860" height="176" xmlns="http://www.w3.org/2000/svg" xmlns:xlink="http://www.w3.org/1999/xlink"><defs><filter x="-29.7%" y="-26.6%" width="159.4%" height="159.4%" filterUnits="objectBoundingBox" id="filter-2"><feOffset dy="1" in="SourceAlpha" result="shadowOffsetOuter1"/><feGaussianBlur stdDeviation="3" in="shadowOffsetOuter1" result="shadowBlurOuter1"/><feComposite in="shadowBlurOuter1" in2="SourceAlpha" operator="out" result="shadowBlurOuter1"/><feColorMatrix values="0 0 0 0 0 0 0 0 0 0 0 0 0 0 0 0 0 0 0.12 0" in="shadowBlurOuter1"/></filter><filter x="-28.1%" y="-25%" width="156.2%" height="156.2%" filterUnits="objectBoundingBox" id="filter-3"><feGaussianBlur stdDeviation="2" in="SourceAlpha" result="shadowBlurInner1"/><feOffset dy="2" in="shadowBlurInner1" result="shadowOffsetInner1"/><feComposite in="shadowOffsetInner1" in2="SourceAlpha" operator="arithmetic" k2="-1" k3="1" result="shadowInnerInner1"/><feColorMatrix values="0 0 0 0 1 0 0 0 0 1 0 0 0 0 1 0 0 0 1 0" in="shadowInnerInner1"/></filter><circle id="path-1" cx="430" cy="144" r="16"/></defs><style>@keyframes mouse_move{0%,12%,68%,to{transform:translate(0,0);opacity:1}20%,22%,26%,60%{transform:translate(40px,-40px);opacity:1}24%{transform:translate(40px,-40px);opacity:.2}}@keyframes hover{0%,16%,30%,to{opacity:0}22%,28%{opacity:1}}@keyframes active{0%,22%,86%,to{opacity:0}28%,80%{opacity:1}}@keyframes stars{0%,22%,26%,82%,to{opacity:1}28%,80%{opacity:0}}</style><g id="Rows" stroke="none" stroke-width="1" fill="none" fill-rule="evenodd"><g id="rate_row_star"><rect id="base" fill-opacity="0" fill="#000000" x="0" y="0" width="860" height="176" rx="4"/><path style="animation:hover 5000ms ease-out infinite" d="M474.946 82.447l8.047.69c1.468.125 2.063 1.955.948 2.92l-6.113 5.29 1.843 7.872c.335 1.435-1.22 2.567-2.483 1.805l-6.93-4.177-6.917 4.177c-1.263.762-2.82-.37-2.485-1.805l1.835-7.872-6.113-5.29c-1.114-.965-.519-2.795.95-2.92l8.046-.69 3.152-7.431c.573-1.354 2.495-1.354 3.068 0l3.152 7.431z" id="hover" fill="#EEE"/><g id="Group" transform="translate(222 48)" style="animation:stars 5000ms ease-out infinite"><path id="row_base" fill-opacity="0" fill="#FFF" d="M0 0h416v80H0z"/><path d="M128 25.936c-.623 0-1.247.338-1.535 1.015l-3.152 7.431-8.046.69c-1.469.125-2.064 1.956-.949 2.92l6.114 5.292-1.837 7.87c-.26 1.117.625 2.05 1.625 2.05.287 0 .582-.077.862-.245l6.916-4.177 6.929 4.179c.28.168.573.243.858.243 1 0 1.887-.933 1.625-2.05l-1.842-7.87 6.114-5.291c1.115-.965.52-2.796-.949-2.92l-8.046-.69-3.152-7.432A1.645 1.645 0 00128 25.936m0 4.228l2.232 5.26.626 1.48 1.6.137 5.687.487-4.322 3.74-1.216 1.054.365 1.569 1.303 5.562-4.902-2.954-1.376-.83-1.377.832-4.89 2.95 1.298-5.562.365-1.568-1.216-1.053-4.322-3.74 5.687-.487 1.6-.137.626-1.48 2.232-5.26M168 25.936c-.623 0-1.247.338-1.535 1.015l-3.152 7.431-8.046.69c-1.469.125-2.064 1.956-.949 2.92l6.114 5.292-1.837 7.87c-.26 1.117.625 2.05 1.625 2.05.287 0 .582-.077.862-.245l6.916-4.177 6.929 4.179c.28.168.573.243.858.243 1 0 1.887-.933 1.625-2.05l-1.842-7.87 6.114-5.291c1.115-.965.52-2.796-.949-2.92l-8.046-.69-3.152-7.432A1.645 1.645 0 00168 25.936m0 4.228l2.232 5.26.626 1.48 1.6.137 5.687.487-4.322 3.74-1.216 1.054.365 1.569 1.303 5.562-4.902-2.954-1.376-.83-1.377.832-4.89 2.95 1.298-5.562.365-1.568-1.216-1.053-4.322-3.74 5.687-.487 1.6-.137.626-1.48 2.232-5.26M208 25.936c-.623 0-1.247.338-1.535 1.015l-3.152 7.431-8.046.69c-1.469.125-2.064 1.956-.949 2.92l6.114 5.292-1.837 7.87c-.26 1.117.625 2.05 1.625 2.05.287 0 .582-.077.862-.245l6.916-4.177 6.929 4.179c.28.168.573.243.858.243 1 0 1.887-.933 1.625-2.05l-1.842-7.87 6.114-5.291c1.115-.965.52-2.796-.949-2.92l-8.046-.69-3.152-7.432A1.645 1.645 0 00208 25.936m0 4.228l2.232 5.26.626 1.48 1.6.137 5.687.487-4.322 3.74-1.216 1.054.365 1.569 1.303 5.562-4.902-2.954-1.376-.83-1.377.832-4.89 2.95 1.298-5.562.365-1.568-1.216-1.053-4.322-3.74 5.687-.487 1.6-.137.626-1.48 2.232-5.26M248 25.936c-.623 0-1.247.338-1.535 1.015l-3.152 7.431-8.046.69c-1.469.125-2.064 1.956-.949 2.92l6.114 5.292-1.837 7.87c-.26 1.117.625 2.05 1.625 2.05.287 0 .582-.077.862-.245l6.916-4.177 6.929 4.179c.28.168.573.243.858.243 1 0 1.887-.933 1.625-2.05l-1.842-7.87 6.114-5.291c1.115-.965.52-2.796-.949-2.92l-8.046-.69-3.152-7.432A1.645 1.645 0 00248 25.936m0 4.228l2.232 5.26.626 1.48 1.6.137 5.687.487-4.322 3.74-1.216 1.054.365 1.569 1.303 5.562-4.902-2.954-1.376-.83-1.377.832-4.89 2.95 1.298-5.562.365-1.568-1.216-1.053-4.322-3.74 5.687-.487 1.6-.137.626-1.48 2.232-5.26" id="icon_shape" fill-opacity=".56" fill="#000"/></g><path d="M510 73.936c-.623 0-1.247.338-1.535 1.015l-3.152 7.431-8.046.69c-1.469.126-2.064 1.956-.949 2.92l6.114 5.292-1.837 7.87c-.26 1.117.625 2.05 1.625 2.05.287 0 .582-.076.862-.245l6.916-4.177 6.929 4.179c.28.168.573.243.858.243 1 0 1.887-.933 1.625-2.05l-1.842-7.87 6.114-5.291c1.115-.965.52-2.795-.949-2.92l-8.046-.69-3.152-7.432A1.645 1.645 0 00510 73.936m0 4.228l2.232 5.26.626 1.48 1.6.137 5.687.487-4.322 3.74-1.216 1.055.365 1.568 1.303 5.561-4.902-2.953-1.376-.83-1.377.832-4.89 2.95 1.298-5.562.365-1.568-1.216-1.053-4.322-3.74 5.687-.487 1.6-.137.626-1.48 2.232-5.26" id="deactive" fill-opacity=".56" fill="#000"/><g id="active" transform="translate(335.74 73.936)" fill="#FBC02D" style="animation:active 5000ms ease-out infinite"><path d="M18.946 8.447l8.046.69c1.469.125 2.064 1.955.949 2.92l-6.114 5.29 1.844 7.871c.335 1.435-1.22 2.567-2.484 1.805l-6.93-4.176-6.916 4.176c-1.264.762-2.82-.37-2.485-1.805l1.835-7.871-6.114-5.29c-1.113-.965-.518-2.795.95-2.92l8.047-.69 3.152-7.432c.573-1.353 2.495-1.353 3.068 0l3.152 7.432zM58.946 8.447l8.046.69c1.469.125 2.064 1.955.949 2.92l-6.114 5.29 1.844 7.871c.335 1.435-1.22 2.567-2.484 1.805l-6.93-4.176-6.916 4.176c-1.264.762-2.82-.37-2.485-1.805l1.835-7.871-6.114-5.29c-1.113-.965-.518-2.795.95-2.92l8.047-.69 3.152-7.432c.573-1.353 2.495-1.353 3.068 0l3.152 7.432zM98.946 8.447l8.046.69c1.469.125 2.064 1.955.949 2.92l-6.114 5.29 1.844 7.871c.335 1.435-1.22 2.567-2.484 1.805l-6.93-4.176-6.916 4.176c-1.264.762-2.82-.37-2.485-1.805l1.835-7.871-6.114-5.29c-1.113-.965-.518-2.795.95-2.92l8.047-.69 3.152-7.432c.573-1.353 2.495-1.353 3.068 0l3.152 7.432zM138.946 8.447l8.046.69c1.469.125 2.064 1.955.949 2.92l-6.114 5.29 1.844 7.871c.335 1.435-1.22 2.567-2.484 1.805l-6.93-4.176-6.916 4.176c-1.264.762-2.82-.37-2.485-1.805l1.835-7.871-6.114-5.29c-1.113-.965-.518-2.795.95-2.92l8.047-.69 3.152-7.432c.573-1.353 2.495-1.353 3.068 0l3.152 7.432z" id="icon_shape"/></g><g id="Oval"><use fill="#000" filter="url(#filter-2)" xlink:href="#path-1" style="animation:mouse_move 5000ms ease-out infinite"/><use fill-opacity=".56" fill="#FFF" xlink:href="#path-1" style="animation:mouse_move 5000ms ease-out infinite"/><use fill="#000" filter="url(#filter-3)" xlink:href="#path-1" style="animation:mouse_move 5000ms ease-out infinite"/></g></g></g></svg>