<svg width="860" height="224" xmlns="http://www.w3.org/2000/svg"><g fill="none" fill-rule="evenodd"><rect fill="none" width="860" height="224" rx="4"/><g transform="translate(108 81)"><path fill-opacity=".12" fill="#000000" d="M0 30h488v1H0z"/><circle fill="none" cx="44" cy="7" r="4"/><circle fill="#EA475B" fill-rule="nonzero" cx="44" cy="7" r="4"/><path d="M483.993 11c.38 0 .734-.026 1.06-.077.328-.05.624-.139.888-.264s.497-.292.699-.5c.202-.21.372-.471.511-.787.14-.32.209-.69.209-1.113 0-.074-.002-.148-.007-.222-.032-.515-.153-1.109-.362-1.781a9.033 9.033 0 00-.222-.644 14.061 14.061 0 00-.383-.897 1.713 1.713 0 01-.063-.143l-1.238.612.605 1.489c.098.237.172.463.223.678.051.216.081.385.09.508.01.123.014.215.014.275 0 .111-.007.216-.02.313a1.35 1.35 0 01-.105.369 1.245 1.245 0 01-.348.455c-.139.11-.301.192-.487.247-.185.056-.391.09-.619.101-.227.012-.475.018-.744.018h-.807V11h1.106zm1.14 3.624l1.135-1.134-1.141-1.14-1.134 1.133 1.14 1.141zM483.159 11V9.637h-.139c-.325 0-.58-.046-.765-.136-.186-.09-.334-.261-.445-.511a1.394 1.394 0 01-.063-.185 6.804 6.804 0 01-.111-.483c-.047-.228-.1-.531-.16-.912a45.477 45.477 0 01-.23-1.71 252.217 252.217 0 01-.167-1.597 352.946 352.946 0 00-.076-.72v.007l-1.364.285.025.254.08.775c-.13.047-.283.106-.46.178-.176.072-.362.16-.56.264a8.072 8.072 0 00-.612.362 5.207 5.207 0 00-.612.466c-.197.174-.382.37-.556.588a3.768 3.768 0 00-.45.716 1.566 1.566 0 00-.096.341c-.024.13-.035.258-.035.383v.125c.004.172.033.348.087.529.053.18.145.347.274.5.469.58 1.301.87 2.498.87.227 0 .465-.01.713-.031.248-.021.518-.055.81-.101.246.394.552.677.919.849.24.11.483.182.727.212.243.03.453.045.63.045h.138zm-3.94-2.324h-.032c-.162 0-.322-.009-.48-.027a2.162 2.162 0 01-.511-.108.946.946 0 01-.369-.226.506.506 0 01-.143-.369c0-.148.04-.29.119-.428.079-.137.182-.265.31-.386.127-.12.27-.232.43-.334.16-.102.323-.196.488-.281a7.98 7.98 0 01.476-.23c.153-.067.285-.124.397-.17.074.593.14 1.085.198 1.474.058.39.115.72.17.988-.12.023-.268.044-.441.063a5.216 5.216 0 01-.644.035h.032zm-9.208 7.305c.39-.19.774-.405 1.152-.644.378-.238.737-.5 1.078-.782a9.21 9.21 0 00.946-.905c.29-.32.54-.656.751-1.008.211-.353.376-.718.494-1.096.119-.378.178-.769.178-1.172 0-.204-.017-.413-.049-.626a9.948 9.948 0 00-.122-.65 19.8 19.8 0 00-.16-.668 95.344 95.344 0 01-.17-.672 10.345 10.345 0 00-.174-.636c-.065-.211-.13-.426-.195-.644l-1.322.418c.126.39.244.779.355 1.168l.16.585c.056.2.107.399.153.598.047.2.085.394.115.584.03.19.045.371.045.543 0 .45-.109.886-.327 1.308-.218.422-.506.82-.866 1.196s-.769.723-1.228 1.04c-.459.318-.932.597-1.419.839l.605 1.224zm-6.35-.098a8.398 8.398 0 001.404-.344c.46-.155.897-.348 1.312-.577.415-.23.802-.498 1.161-.804a5.91 5.91 0 00.95-1.022c.274-.376.499-.785.675-1.228.176-.443.29-.92.34-1.43a6.442 6.442 0 00.008-1.266 6.891 6.891 0 00-.23-1.217 5.77 5.77 0 00-.435-1.096 4.275 4.275 0 00-.622-.9c-.552-.594-1.157-.891-1.816-.891a1.77 1.77 0 00-.86.226 2.61 2.61 0 00-.768.664c-.195.25-.364.549-.508.894a3.926 3.926 0 00-.274.925c-.04.272-.06.495-.06.672 0 .185.017.37.05.556.055.353.19.663.403.932.482.599 1.226.928 2.233.988.255.023.483.035.685.035h.79c-.052.348-.194.701-.428 1.06-.235.36-.553.7-.957 1.02-.403.32-.888.608-1.454.863a8.976 8.976 0 01-1.92.598l.32 1.342zm3.754-6.26h-.047c-.204 0-.422-.007-.654-.021a3.506 3.506 0 01-.296-.032 2.472 2.472 0 01-.347-.076 1.635 1.635 0 01-.334-.14.819.819 0 01-.261-.225.651.651 0 01-.143-.33 2.434 2.434 0 01-.024-.31c0-.102.007-.207.02-.313a3.16 3.16 0 01.133-.595c.065-.202.145-.384.24-.546.095-.163.203-.296.323-.4a.577.577 0 01.383-.157c.083 0 .162.014.236.042.075.028.145.064.213.108.067.044.13.093.187.146.058.053.11.103.157.15.116.134.228.293.337.476.11.183.208.388.296.616.088.227.16.473.216.737.055.264.09.545.104.842-.18.014-.344.022-.49.024l-.296.004h.047zM460.41 4.76l1.134-1.134-1.14-1.14-1.134 1.133 1.14 1.141zm-3.04 11.22c.39-.19.774-.404 1.152-.643.378-.238.737-.5 1.078-.782a9.21 9.21 0 00.946-.905c.29-.32.54-.656.751-1.008.211-.353.376-.718.494-1.096.119-.378.178-.769.178-1.172 0-.204-.017-.413-.049-.626a9.948 9.948 0 00-.122-.65 19.8 19.8 0 00-.16-.668 95.344 95.344 0 01-.17-.672 10.345 10.345 0 00-.174-.636c-.065-.211-.13-.426-.195-.644l-1.322.418c.126.39.244.779.355 1.168l.16.585c.056.2.107.399.153.598.047.2.085.394.115.584.03.19.045.371.045.543 0 .45-.109.886-.327 1.308-.218.422-.506.82-.866 1.196s-.769.723-1.228 1.04c-.459.318-.932.597-1.419.839l.605 1.224zm-5.14 0c.39-.19.773-.404 1.15-.643.379-.238.738-.5 1.08-.782a9.21 9.21 0 00.945-.905c.29-.32.54-.656.752-1.008.21-.353.375-.718.493-1.096.119-.378.178-.769.178-1.172 0-.204-.016-.413-.049-.626a9.947 9.947 0 00-.122-.65c-.048-.22-.102-.444-.16-.668a95.343 95.343 0 01-.17-.672 10.346 10.346 0 00-.174-.636c-.065-.211-.13-.426-.195-.644l-1.321.418c.125.39.243.779.354 1.168l.16.585c.056.2.107.399.153.598.047.2.085.394.115.584.03.19.045.371.045.543 0 .45-.109.886-.327 1.308-.218.422-.506.82-.866 1.196s-.768.723-1.228 1.04c-.459.318-.932.597-1.419.839l.606 1.224zm-3.124-4.897c.431 0 .81-.06 1.134-.18.334-.121.612-.295.835-.522.222-.227.39-.502.5-.824a3.3 3.3 0 00.168-1.082c0-.265-.025-.536-.073-.814a7.696 7.696 0 00-.188-.814 12.239 12.239 0 00-.86-2.17l-1.217.64a12.273 12.273 0 01.588 1.422c.1.295.186.595.257.901.072.306.108.591.108.856a2 2 0 01-.07.55.93.93 0 01-.225.403.764.764 0 01-.355.212 1.566 1.566 0 01-.4.052c-.079 0-.162-.005-.25-.014a.65.65 0 01-.352-.136.847.847 0 01-.23-.292 1.47 1.47 0 01-.125-.41 3.026 3.026 0 01-.038-.49c0-.19.014-.408.042-.651.028-.243.059-.473.094-.689l.05-.3.044-.253.034-.222-1.335-.244c-.028.19-.066.414-.115.671a9.558 9.558 0 01-.188.797 7.21 7.21 0 01-.278.807c-.11.264-.237.5-.383.71a2.008 2.008 0 01-.5.507c-.188.13-.4.195-.637.195a.735.735 0 01-.369-.083.622.622 0 01-.23-.223.974.974 0 01-.118-.316 1.894 1.894 0 01-.034-.366c0-.18.018-.377.055-.588.037-.21.081-.417.132-.619a12.77 12.77 0 01.293-.998l-1.378-.292c-.046.227-.102.468-.167.723a7.784 7.784 0 01-.236.762 5.556 5.556 0 01-.327.727 2.873 2.873 0 01-.442.616c-.17.178-.363.322-.58.431a1.626 1.626 0 01-.738.164h-.153V11h.146c.269 0 .516-.022.74-.066a2.704 2.704 0 001.13-.494c.159-.118.307-.252.446-.4.075.172.18.322.317.452s.289.239.455.327c.167.088.343.154.526.198.183.044.36.066.532.066.394 0 .767-.095 1.12-.285.352-.19.668-.447.946-.772.097.148.216.286.355.414.139.128.29.239.452.334.162.095.333.17.511.226.179.056.356.083.532.083h.05zM441.127 11V9.637h-.14a2.77 2.77 0 01-.754-.09c-.211-.061-.37-.145-.476-.251a.58.58 0 01-.185-.359 3.758 3.758 0 01-.024-.441V5.003a48.553 48.553 0 00-.066-2.546c-.021-.403-.047-.776-.077-1.12-.03-.343-.066-.633-.108-.87l-1.363.251c.042.218.078.498.108.839.03.34.055.713.076 1.116.021.404.036.82.045 1.252.01.432.014.847.014 1.245.005.409.007.796.007 1.162 0 .371-.002.7-.007.988a211.315 211.315 0 00-.014 1.037c0 .11.003.244.007.4a2.686 2.686 0 00.247 1.012c.082.176.199.34.352.494.25.25.555.436.914.556.36.12.795.181 1.305.181h.139zm-7.374-7.59l1.134-1.133-1.14-1.141-1.135 1.134 1.141 1.14zM432.64 11c.38 0 .734-.026 1.06-.077.328-.05.623-.139.888-.264.264-.125.497-.292.699-.5.202-.21.372-.471.511-.787.14-.32.209-.69.209-1.113 0-.074-.002-.148-.007-.222-.032-.515-.153-1.109-.362-1.781a9.033 9.033 0 00-.222-.644 14.061 14.061 0 00-.383-.897 1.712 1.712 0 01-.063-.143l-1.238.612.605 1.489c.098.237.172.463.223.678.051.216.081.385.09.508.01.123.014.215.014.275 0 .111-.007.216-.02.313a1.35 1.35 0 01-.105.369 1.245 1.245 0 01-.348.455c-.139.11-.301.192-.487.247-.185.056-.392.09-.619.101-.227.012-.475.018-.744.018h-.807V11h1.106zm-7.123 4.536c.306 0 .649-.021 1.03-.063.38-.042.763-.111 1.15-.209a7.705 7.705 0 001.13-.379c.367-.155.694-.346.982-.574.287-.227.52-.494.695-.8a2.118 2.118 0 00.244-1.37 1.463 1.463 0 00-.111-.362 1.988 1.988 0 00-.234-.386 2.356 2.356 0 00-.386-.393h1.795V9.637h-5.489l-.104 1.356.153.028a9.7 9.7 0 01.668.153c.14.037.289.079.449.125.16.047.32.098.483.153.265.098.487.195.668.292.18.098.328.19.442.275.113.086.196.167.247.244a.377.377 0 01.076.198.864.864 0 01-.233.598c-.155.172-.353.32-.595.445a4.37 4.37 0 01-.81.317 8.716 8.716 0 01-1.68.313c-.246.02-.436.031-.57.031-.232 0-.498-.004-.797-.014-.3-.009-.6-.046-.904-.111a3.453 3.453 0 01-.877-.317 1.949 1.949 0 01-.706-.63c-.292-.444-.438-1.024-.438-1.738 0-1.127.364-2.586 1.092-4.376l-1.273-.515c-.728 1.763-1.122 3.275-1.183 4.536-.004.116-.007.23-.007.34 0 1.017.225 1.854.675 2.512.213.362.488.653.824.873.337.22.703.39 1.1.512.396.12.81.2 1.241.24.432.039.849.059 1.253.059z" fill-opacity=".87" fill="#000000" fill-rule="nonzero"/><path d="M10.813 7l3.873-3.874a1.003 1.003 0 10-1.42-1.419L8.683 6.291a1.004 1.004 0 000 1.418l4.585 4.584a1.001 1.001 0 001.42 0 1.003 1.003 0 000-1.419L10.813 7zM10.813 55l3.873-3.874a1.003 1.003 0 10-1.42-1.419l-4.584 4.584a1.004 1.004 0 000 1.418l4.585 4.584a1.001 1.001 0 001.42 0 1.003 1.003 0 000-1.419L10.813 55z" fill-opacity=".32" fill="#000000"/><g transform="translate(32 47)" fill-rule="nonzero"><rect fill="#EA475B" width="31" height="16" rx="8"/><path d="M20.715 10.13a7.667 7.667 0 001.646-.206 12.235 12.235 0 001.506-.465c.482-.184.942-.385 1.383-.602.44-.218.864-.424 1.27-.618l.09-1.122a2.732 2.732 0 01-.695-.097 5.837 5.837 0 01-.672-.23 12.67 12.67 0 01-.658-.294 15.016 15.016 0 00-.65-.294 5.069 5.069 0 00-.655-.226c-.22-.06-.442-.089-.665-.089-.217 0-.423.038-.617.115-.194.077-.375.18-.541.309a2.892 2.892 0 00-.455.439 3.46 3.46 0 00-.352.507l.904.586.061-.104a2.196 2.196 0 01.268-.36c.059-.067.126-.128.202-.183.075-.055.157-.101.245-.137a.744.744 0 01.285-.055c.174 0 .35.032.526.096.177.064.361.14.552.226.192.087.395.176.61.267.214.092.446.165.695.22-.313.154-.645.303-.996.448-.35.145-.71.273-1.078.385-.368.111-.738.201-1.111.27a6.095 6.095 0 01-1.098.101h-.943v1.113h.943zm2.644 2.24l.834-.835-.834-.83-.83.83.83.835zm-3.413-2.24V9.017h-.1a.667.667 0 01-.268-.05.656.656 0 01-.204-.139.92.92 0 01-.157-.213 2.803 2.803 0 01-.128-.272l-1.091-2.63-.196-.47c-.06-.144-.116-.28-.165-.408l-1.03.43 1.386 3.348a1.585 1.585 0 01-.267.154 2.539 2.539 0 01-.989.233c-.209 0-.428-.054-.657-.163a3.07 3.07 0 01-.739-.528l-.639.9c.281.29.582.516.902.678.32.162.662.243 1.024.243.192 0 .373-.008.544-.023.17-.016.336-.045.495-.085a2.447 2.447 0 00.883-.426c.07.075.142.145.217.21.076.066.163.122.261.17.099.048.214.086.346.113.132.028.289.041.472.041h.1zm-8.387 0c.327 0 .635-.033.924-.1.288-.066.54-.173.756-.32.216-.146.386-.336.511-.57.125-.236.187-.521.187-.857 0-.189-.017-.382-.052-.579a5.675 5.675 0 00-.137-.589 6.62 6.62 0 00-.194-.572c-.072-.185-.145-.36-.217-.526l-1.004.496a7.183 7.183 0 01.535 1.46c.031.137.047.243.047.318 0 .16-.044.287-.132.383a.86.86 0 01-.335.22c-.135.05-.281.084-.44.1a4.413 4.413 0 01-.44.023h-.927v1.113h.918zm-.04 2.027l.74-.74-.748-.747-.74.743.749.744zm1.644.008l.74-.743-.749-.744-.739.74.748.747zm-2.348-2.035V9.017h-.1a.667.667 0 01-.267-.05.656.656 0 01-.205-.139.92.92 0 01-.156-.213 2.803 2.803 0 01-.128-.272l-1.092-2.63-.195-.47c-.061-.144-.116-.28-.165-.408l-1.03.43 1.386 3.348a1.585 1.585 0 01-.267.154 2.539 2.539 0 01-.99.233c-.208 0-.427-.054-.656-.163a3.07 3.07 0 01-.74-.528l-.638.9c.28.29.582.516.902.678.32.162.662.243 1.024.243.191 0 .372-.008.543-.023.171-.016.337-.045.496-.085a2.447 2.447 0 00.883-.426c.07.075.142.145.217.21.075.066.162.122.26.17.1.048.215.086.346.113.132.028.29.041.472.041h.1z" fill="#FFF"/></g><circle fill="none" cx="44" cy="55" r="4"/><path fill-opacity=".12" fill="#000000" d="M0 78h488v1H0z"/><path d="M443.638 59c.38 0 .748-.026 1.103-.077.355-.05.68-.139.977-.264.297-.125.56-.292.79-.5.23-.21.414-.471.553-.787.139-.32.209-.69.209-1.113 0-.074-.003-.148-.007-.222-.033-.515-.153-1.109-.362-1.781a9.034 9.034 0 00-.223-.644 14.061 14.061 0 00-.382-.897 1.713 1.713 0 01-.063-.143l-1.238.612.605 1.489c.097.237.172.463.223.678.05.216.08.385.09.508.01.123.014.215.014.275 0 .111-.007.216-.02.313a1.35 1.35 0 01-.105.369 1.089 1.089 0 01-.39.455c-.167.11-.36.192-.577.247-.218.056-.455.09-.71.101-.255.012-.517.018-.786.018h-1.342V59h1.641zm-.348 3.402l1.127-1.127-1.14-1.141-1.127 1.134 1.14 1.134zm2.853.014l1.127-1.134-1.141-1.134-1.127 1.127 1.14 1.14zM442.275 59v-1.363h-.14a2.77 2.77 0 01-.754-.09c-.211-.061-.37-.145-.477-.251a.58.58 0 01-.184-.359 3.758 3.758 0 01-.024-.441v-3.493a48.553 48.553 0 00-.066-2.546c-.021-.403-.047-.776-.077-1.12a10.31 10.31 0 00-.108-.87l-1.363.251c.041.218.077.498.108.839.03.34.055.713.076 1.116.021.404.036.82.045 1.252.01.432.014.847.014 1.245.005.409.007.796.007 1.162 0 .371-.002.7-.007.988a211.315 211.315 0 00-.013.957v.08c0 .11.002.244.006.4a2.686 2.686 0 00.247 1.012c.081.176.198.34.352.494.25.25.555.436.914.556.36.12.795.181 1.305.181h.139zm-8.529-.007c.278 0 .558-.02.838-.063.28-.041.551-.109.81-.201.26-.093.503-.212.728-.359.225-.146.42-.32.588-.525a1.685 1.685 0 00.362-.737c.036-.162.056-.348.058-.557a3.214 3.214 0 00-.08-.702 5.056 5.056 0 00-.316-.908 7.36 7.36 0 00-.508-.932 9.21 9.21 0 00-1.409-1.708 7.958 7.958 0 00-.81-.675 4.88 4.88 0 00-.824-.487l-.564 1.266c.209.093.422.218.64.376.218.158.433.338.644.542.21.205.414.424.608.658.195.234.372.475.532.723.16.248.297.497.41.745.115.248.197.485.248.713.037.167.056.31.056.431 0 .167-.035.292-.105.376-.158.19-.352.331-.584.424-.232.093-.44.147-.626.164a3.996 3.996 0 01-.96-.01 5.912 5.912 0 01-1.621-.443 4.229 4.229 0 01-.62-.323l-.57 1.308c.116.106.3.213.55.32a8.429 8.429 0 001.736.504c.303.053.566.08.79.08zm-7.84 0c.278 0 .558-.02.838-.063.28-.041.551-.109.81-.201.26-.093.503-.212.728-.359.225-.146.42-.32.588-.525a1.685 1.685 0 00.362-.737c.036-.162.056-.348.058-.557a3.214 3.214 0 00-.08-.702 5.056 5.056 0 00-.316-.908 7.36 7.36 0 00-.508-.932 9.21 9.21 0 00-1.409-1.708 7.958 7.958 0 00-.81-.675 4.88 4.88 0 00-.824-.487l-.564 1.266c.209.093.422.218.64.376.218.158.433.338.644.542.21.205.414.424.608.658.195.234.372.475.532.723.16.248.297.497.41.745.115.248.197.485.248.713.037.167.056.31.056.431 0 .167-.035.292-.105.376-.158.19-.352.331-.584.424-.232.093-.44.147-.626.164a3.996 3.996 0 01-.96-.01 5.912 5.912 0 01-1.621-.443 4.229 4.229 0 01-.62-.323l-.57 1.308c.116.106.3.213.55.32a8.429 8.429 0 001.736.504c.303.053.566.08.79.08zm-4.863.07c.065-.77.104-1.496.115-2.178.012-.682.018-1.226.018-1.635 0-.677-.007-1.4-.021-2.17a63.584 63.584 0 00-.355-5.064l-1.363.208c.157 1.461.282 3.316.375 5.566.014.384.021.793.021 1.224 0 .357-.005.73-.014 1.12a64.7 64.7 0 01-.146 2.852l1.37.077zm-7.79-9.315l1.029-1.03-1.037-1.036-1.03 1.03 1.037 1.036zm-1.573 2.198l1.127-1.134-1.14-1.14-1.128 1.133 1.141 1.141zm3.054.007l1.127-1.127-1.141-1.14-1.127 1.126 1.14 1.141zm.236 7.13c.432 0 .81-.06 1.134-.18.334-.121.613-.295.835-.522.223-.227.39-.502.501-.824a3.3 3.3 0 00.167-1.082c0-.265-.024-.536-.073-.814a7.696 7.696 0 00-.188-.814 12.239 12.239 0 00-.859-2.17l-1.217.64a12.273 12.273 0 01.587 1.422c.1.295.186.595.258.901.072.306.108.591.108.856a2 2 0 01-.07.55.93.93 0 01-.226.403.764.764 0 01-.355.212 1.566 1.566 0 01-.4.052c-.079 0-.162-.005-.25-.014a.65.65 0 01-.352-.136.847.847 0 01-.23-.292 1.47 1.47 0 01-.124-.41 3.026 3.026 0 01-.039-.49c0-.19.014-.408.042-.651.028-.243.06-.473.094-.689.035-.215.066-.4.094-.553l.035-.222-1.336-.244c-.028.19-.066.414-.115.671a9.558 9.558 0 01-.188.797 7.21 7.21 0 01-.278.807c-.109.264-.236.5-.382.71a2.008 2.008 0 01-.501.507c-.188.13-.4.195-.637.195a.735.735 0 01-.368-.083.622.622 0 01-.23-.223.974.974 0 01-.118-.316 1.894 1.894 0 01-.035-.366c0-.18.018-.377.056-.588.037-.21.08-.417.132-.619a12.77 12.77 0 01.292-.998l-1.377-.292c-.047.227-.103.468-.167.723a7.783 7.783 0 01-.237.762 5.556 5.556 0 01-.327.727 2.873 2.873 0 01-.442.616c-.169.178-.363.322-.58.431a1.626 1.626 0 01-.738.164h-.153V59h.146c.27 0 .516-.022.741-.066a2.704 2.704 0 001.13-.494c.158-.118.307-.252.446-.4.074.172.18.322.316.452.137.13.289.239.456.327.167.088.342.154.525.198.183.044.36.066.532.066.394 0 .768-.095 1.12-.285.353-.19.668-.447.946-.772.098.148.216.286.355.414.14.128.29.239.452.334.163.095.333.17.512.226.178.056.356.083.532.083h.048zm-17.92-5.794l1.127-1.127-1.14-1.141-1.127 1.134 1.14 1.134zm2.853.014l1.127-1.134-1.141-1.134-1.127 1.127 1.14 1.14zm-2.018 5.718c2.64 0 4.57-.64 5.795-1.92.102.283.246.536.431.758.58.747 1.473 1.127 2.679 1.141h.194v-1.363h-.174c-.756-.005-1.296-.214-1.62-.627a1.391 1.391 0 01-.293-.584 3.455 3.455 0 01-.09-.626v-.056c0-.074.007-.162.02-.264a5.796 5.796 0 01.136-.748c.03-.123.057-.226.08-.31l-1.321-.361c-.06.209-.129.422-.205.64-.077.218-.17.433-.279.647-.109.213-.24.42-.393.619-.153.2-.336.383-.55.55-.477.39-1.075.673-1.794.852-.719.178-1.59.268-2.616.268-1.145-.005-2.076-.126-2.793-.362-.716-.237-1.214-.594-1.492-1.072a1.688 1.688 0 01-.223-.573 3.027 3.027 0 01-.048-.512c0-.06.002-.118.007-.174a2.93 2.93 0 01.087-.598c.048-.19.098-.357.15-.5.05-.145.097-.26.138-.349.042-.088.063-.134.063-.139l-1.204-.66c-.023.032-.089.177-.198.434a8.028 8.028 0 00-.337 1.047c-.056.209-.09.4-.105.574a4.626 4.626 0 00-.007.79c.019.24.064.482.136.723.072.241.175.475.31.703.417.705 1.088 1.22 2.014 1.548.925.326 2.092.495 3.502.504zm-11.471 0c.162 0 .34-.007.536-.021a5.445 5.445 0 001.133-.205c.177-.054.33-.12.46-.198.487-.26.85-.586 1.088-.978.24-.392.359-.817.359-1.276 0-.613-.214-1.215-.64-1.81a2.929 2.929 0 00-.606-.583 7.993 7.993 0 00-.9-.578c-.341-.19-.712-.38-1.114-.57-.4-.19-.817-.38-1.248-.57l-2.421-.995-.661 1.252.55.215a2.495 2.495 0 00-.717.512c-.2.206-.365.429-.497.667a3.108 3.108 0 00-.386 1.478c0 .34.087.69.26 1.055.174.364.435.734.783 1.11a10.684 10.684 0 01-.883.083c-.172.009-.363.016-.574.02a33.88 33.88 0 01-.734.008h-.188V59h.188c.329 0 .67-.007 1.022-.02.353-.015.698-.037 1.037-.067.338-.03.662-.07.97-.122a6.64 6.64 0 00.832-.188 5.4 5.4 0 001.165.327c.382.06.778.09 1.186.09zm-2.421-1.906a4.73 4.73 0 01-.5-.38 2.933 2.933 0 01-.415-.438 2.078 2.078 0 01-.281-.497 1.502 1.502 0 01-.105-.557c0-.208.044-.426.132-.653.088-.228.21-.432.366-.613.155-.18.32-.313.497-.396.176-.084.343-.125.5-.125.084 0 .17.009.258.027.2.042.36.118.484.227.123.109.218.234.285.375.067.142.111.29.132.445.021.156.031.303.031.442a2.392 2.392 0 01-.769 1.74c-.173.162-.378.296-.615.403zm2.289.57a3.576 3.576 0 01-.64-.049c.176-.185.336-.389.48-.612.144-.222.265-.448.365-.678.1-.23.177-.458.233-.685.056-.227.083-.438.083-.633 0-.14-.002-.288-.006-.445a2.018 2.018 0 00-.084-.501c.33.153.617.322.863.508.245.185.45.374.615.567.165.192.289.383.372.573.084.19.126.367.126.53 0 .19-.043.371-.129.545a1.192 1.192 0 01-.417.456c-.193.13-.442.233-.748.31a4.652 4.652 0 01-1.113.114zM380.292 59v-1.363h-.139a2.77 2.77 0 01-.755-.09c-.21-.061-.37-.145-.476-.251a.58.58 0 01-.185-.359 3.758 3.758 0 01-.024-.441v-3.493a48.553 48.553 0 00-.066-2.546 31.39 31.39 0 00-.077-1.12c-.03-.343-.066-.633-.107-.87l-1.364.251c.042.218.078.498.108.839.03.34.056.713.076 1.116.021.404.036.82.046 1.252.009.432.014.847.014 1.245.004.409.007.796.007 1.162 0 .371-.003.7-.007.988a211.355 211.355 0 00-.014 1.037c0 .11.002.244.007.4a2.686 2.686 0 00.247 1.012c.08.176.198.34.35.494.251.25.556.436.916.556.36.12.794.181 1.304.181h.14zm-11.353 4.89c.765 0 1.47-.066 2.111-.198a6.769 6.769 0 001.736-.595c.543-.269.975-.592 1.297-.97a2.64 2.64 0 00.61-1.256c.032-.18.048-.345.048-.494 0-.153-.016-.29-.049-.41a1.475 1.475 0 00-.313-.605 1.642 1.642 0 00-.529-.393c-.208-.1-.43-.183-.664-.25-.234-.068-.47-.127-.71-.178a5.844 5.844 0 01-.664-.181 2.147 2.147 0 01-.532-.26.827.827 0 01-.317-.408 1.211 1.211 0 01-.048-.64c.032-.227.103-.452.212-.675a3.31 3.31 0 01.417-.643c.17-.206.353-.39.55-.55.197-.16.4-.292.609-.396.208-.105.41-.166.605-.185.167-.032.33-.048.487-.048h.104c.186.014.35.036.494.066.144.03.26.061.348.094l.125.055.605-1.273a9.55 9.55 0 01-.226-.09 3.616 3.616 0 00-.539-.16 3.84 3.84 0 00-.598-.094 6.637 6.637 0 00-.362-.017c-.236 0-.48.025-.73.076a4.142 4.142 0 00-1.037.376c-.33.171-.632.379-.908.622a4.67 4.67 0 00-.734.821 4.435 4.435 0 00-.514.964c-.13.338-.208.632-.233.88-.026.248-.039.44-.039.574 0 .232.023.466.07.702.07.348.21.629.42.842.212.213.455.386.731.518.276.132.565.236.866.31.302.074.578.145.828.212s.451.141.602.223c.15.08.226.189.226.323v.035c-.023.236-.14.465-.348.685-.209.22-.5.418-.873.591a5.947 5.947 0 01-1.353.418 9.237 9.237 0 01-1.78.156c-.673 0-1.255-.083-1.747-.25-.492-.167-.883-.417-1.176-.751a2.071 2.071 0 01-.358-.553 2.785 2.785 0 01-.184-.585 2.923 2.923 0 01-.056-.553v-.055c0-.195.012-.376.035-.543a13.77 13.77 0 01.403-1.983c.181-.64.376-1.287.585-1.94l-1.329-.467c-.01.019-.036.093-.08.223a40.203 40.203 0 00-.39 1.249 22.056 22.056 0 00-.448 1.815c-.065.323-.116.635-.153.936a5.895 5.895 0 00-.042.689c0 .426.051.825.153 1.196.153.575.42 1.08.8 1.517.436.487.989.855 1.66 1.106.67.25 1.445.375 2.326.375zm-15.875.09c.39-.19.774-.404 1.152-.643.378-.238.737-.5 1.078-.782a9.21 9.21 0 00.946-.905c.29-.32.54-.656.751-1.008.211-.353.376-.718.494-1.096.118-.378.178-.769.178-1.172 0-.204-.017-.413-.05-.626a9.948 9.948 0 00-.12-.65 19.8 19.8 0 00-.16-.668 95.343 95.343 0 01-.171-.672 10.345 10.345 0 00-.174-.636c-.065-.211-.13-.426-.195-.644l-1.322.418c.126.39.244.779.355 1.168.051.19.104.385.16.585.056.2.107.399.153.598.047.2.085.394.115.584.03.19.045.371.045.543 0 .45-.109.886-.327 1.308-.218.422-.506.82-.866 1.196s-.769.723-1.228 1.04c-.459.318-.932.597-1.419.839l.605 1.224zm-6.351-.097a8.398 8.398 0 001.405-.344c.46-.155.896-.348 1.312-.577.415-.23.802-.498 1.161-.804a5.91 5.91 0 00.95-1.022c.273-.376.498-.785.675-1.228.176-.443.29-.92.34-1.43a6.442 6.442 0 00.007-1.266 6.891 6.891 0 00-.23-1.217 5.77 5.77 0 00-.434-1.096 4.275 4.275 0 00-.622-.9c-.552-.594-1.158-.891-1.816-.891a1.77 1.77 0 00-.86.226 2.61 2.61 0 00-.768.664c-.195.25-.364.549-.508.894a3.926 3.926 0 00-.275.925c-.039.272-.059.495-.059.672 0 .185.017.37.049.556.056.353.19.663.403.932.483.599 1.227.928 2.234.988.255.023.483.035.685.035h.79c-.052.348-.194.701-.429 1.06-.234.36-.553.7-.956 1.02-.404.32-.888.608-1.454.863a8.976 8.976 0 01-1.92.598l.32 1.342zm3.755-6.26h-.047c-.204 0-.422-.007-.654-.021a3.506 3.506 0 01-.296-.032 2.472 2.472 0 01-.348-.076 1.635 1.635 0 01-.333-.14.819.819 0 01-.261-.225.651.651 0 01-.143-.33 2.434 2.434 0 01-.024-.31c0-.102.007-.207.02-.313a3.16 3.16 0 01.133-.595c.065-.202.145-.384.24-.546.095-.163.203-.296.323-.4a.577.577 0 01.383-.157c.083 0 .162.014.236.042.075.028.145.064.213.108.067.044.13.093.187.146.058.053.11.103.157.15.116.134.228.293.337.476.11.183.208.388.296.616.088.227.16.473.216.737.055.264.09.545.104.842-.18.014-.344.022-.49.024l-.296.004h.047zm-7.004-4.863l1.134-1.134-1.14-1.14-1.135 1.133 1.141 1.141zm-3.04 11.22c.39-.19.774-.404 1.152-.643.378-.238.737-.5 1.078-.782a9.21 9.21 0 00.946-.905c.29-.32.54-.656.751-1.008.211-.353.376-.718.494-1.096.118-.378.178-.769.178-1.172 0-.204-.017-.413-.05-.626a9.948 9.948 0 00-.12-.65 19.8 19.8 0 00-.16-.668 95.343 95.343 0 01-.171-.672 10.345 10.345 0 00-.174-.636c-.065-.211-.13-.426-.195-.644l-1.322.418c.126.39.244.779.355 1.168.051.19.104.385.16.585.056.2.107.399.153.598.047.2.085.394.115.584.03.19.045.371.045.543 0 .45-.109.886-.327 1.308-.218.422-.506.82-.866 1.196s-.769.723-1.228 1.04c-.459.318-.932.597-1.419.839l.605 1.224zm-.779-4.917c.065-.77.103-1.496.115-2.178.012-.682.017-1.226.017-1.635 0-.677-.007-1.4-.02-2.17a63.584 63.584 0 00-.355-5.064l-1.364.208c.158 1.461.283 3.316.376 5.566.014.384.02.793.02 1.224 0 .357-.004.73-.013 1.12a64.701 64.701 0 01-.146 2.852l1.37.077zm-5.551-7.653l1.134-1.133-1.141-1.141-1.134 1.134 1.14 1.14zM332.98 59c.38 0 .734-.026 1.06-.077.328-.05.623-.139.888-.264.264-.125.497-.292.699-.5.202-.21.372-.471.511-.787.14-.32.209-.69.209-1.113 0-.074-.002-.148-.007-.222-.033-.515-.153-1.109-.362-1.781a9.033 9.033 0 00-.222-.644 14.061 14.061 0 00-.383-.897 1.713 1.713 0 01-.063-.143l-1.238.612.605 1.489c.098.237.172.463.223.678.05.216.081.385.09.508.01.123.014.215.014.275 0 .111-.007.216-.02.313a1.35 1.35 0 01-.105.369 1.245 1.245 0 01-.348.455c-.139.11-.301.192-.487.247-.185.056-.392.09-.619.101-.227.012-.475.018-.744.018h-.807V59h1.106zm-.835 0v-1.363h-.139c-.325 0-.58-.046-.765-.136-.186-.09-.334-.261-.445-.511a1.394 1.394 0 01-.063-.185 6.804 6.804 0 01-.111-.483c-.047-.228-.1-.531-.16-.912a45.474 45.474 0 01-.23-1.71 253.107 253.107 0 01-.167-1.597 352.968 352.968 0 00-.076-.72v.007l-1.364.285.024.254.08.775c-.13.047-.282.106-.459.178-.176.072-.363.16-.56.264a8.072 8.072 0 00-.612.362 5.207 5.207 0 00-.612.466c-.197.174-.383.37-.557.588a3.768 3.768 0 00-.448.716 1.566 1.566 0 00-.098.341c-.023.13-.034.258-.034.383v.125c.004.172.033.348.087.529.053.18.144.347.274.5.469.58 1.301.87 2.498.87.227 0 .465-.01.713-.031.248-.021.518-.055.81-.101.246.394.552.677.918.849.242.11.484.182.727.212.244.03.454.045.63.045h.14zm-3.94-2.324h-.032c-.162 0-.322-.009-.48-.027a2.162 2.162 0 01-.511-.108.946.946 0 01-.37-.226.506.506 0 01-.142-.369c0-.148.04-.29.119-.428.078-.137.182-.265.31-.386.127-.12.27-.232.43-.334.16-.102.323-.196.487-.281.165-.086.324-.163.477-.23.153-.067.285-.124.396-.17.075.593.14 1.085.199 1.474.058.39.114.72.17.988-.12.023-.268.044-.442.063a5.216 5.216 0 01-.643.035h.032z" fill-opacity=".87" fill="#000000" fill-rule="nonzero"/><path d="M483 44.879c1.654 0 3 1.346 3 3v12c0 1.654-1.346 3-3 3h-3.05l-2.536 2.535c-.39.39-.902.585-1.414.585a1.993 1.993 0 01-1.414-.585l-2.535-2.535H469c-1.654 0-3-1.346-3-3v-12c0-1.654 1.346-3 3-3zm0 2h-14c-.552 0-1 .449-1 1v12c0 .55.448 1 1 1h3.465a1 1 0 01.707.293L476 64l2.829-2.828a1 1 0 01.707-.293H483c.552 0 1-.45 1-1v-12c0-.551-.448-1-1-1zM476.02 55a1 1 0 110 2h-5a1 1 0 110-2zm5-4a1 1 0 110 2h-10a1 1 0 110-2z" fill="#000000" fill-opacity=".56"/></g><g fill="#000000"><path d="M638.904 92v-4.518a1.91 1.91 0 01.621-.738c.266-.187.575-.281.926-.281.434 0 .753.11.958.328.205.219.31.557.314 1.014V92h1.084v-4.19c-.012-1.511-.688-2.267-2.028-2.267-.781 0-1.414.305-1.898.914l-.035-.797h-1.026V92h1.084zm7.494.117c.7 0 1.301-.262 1.805-.785.04.32.09.543.152.668h1.137v-.094c-.148-.344-.222-.806-.222-1.388V87.6c-.016-.641-.23-1.144-.645-1.51-.414-.364-.986-.547-1.717-.547-.46 0-.884.086-1.268.258a2.3 2.3 0 00-.914.7c-.225.295-.337.6-.337.917h1.09c0-.277.13-.514.392-.709.262-.195.586-.293.973-.293.441 0 .775.112 1.002.337.226.225.34.526.34.905v.498h-1.055c-.91 0-1.616.183-2.118.548-.502.365-.753.878-.753 1.538 0 .543.2.991.6 1.345.4.353.913.53 1.538.53zm.159-.943c-.356 0-.647-.096-.873-.287-.227-.192-.34-.457-.34-.797 0-.777.664-1.166 1.992-1.166h.85v1.3c-.137.282-.358.51-.663.686a1.905 1.905 0 01-.966.264zm6.908.826l2.273-6.34h-1.107l-1.57 4.87-1.612-4.87h-1.107l2.297 6.34h.826zm3.96-7.406c.212 0 .372-.059.481-.176a.62.62 0 00.164-.44.64.64 0 00-.164-.445c-.11-.12-.27-.181-.48-.181-.211 0-.37.06-.478.181a.647.647 0 00-.16.446c0 .175.053.322.16.439.108.117.267.176.478.176zM657.96 92v-6.34h-1.084V92h1.084zm4.143 2.496c.82 0 1.473-.236 1.96-.709.486-.473.729-1.119.729-1.94V85.66h-.99l-.053.703c-.434-.547-1.037-.82-1.81-.82-.754 0-1.36.292-1.817.876-.457.584-.685 1.37-.685 2.358 0 1.032.229 1.846.688 2.444.459.597 1.06.896 1.802.896.75 0 1.342-.25 1.775-.75v.545c0 .54-.147.957-.442 1.254-.295.297-.706.445-1.234.445-.671 0-1.24-.287-1.705-.861l-.562.65c.23.34.564.608 1.002.803a3.26 3.26 0 001.342.293zm.093-3.299c-.527 0-.937-.204-1.23-.612-.293-.408-.44-.97-.44-1.685 0-.804.149-1.412.446-1.822.297-.41.709-.615 1.236-.615.664 0 1.162.303 1.494.908v2.895c-.32.62-.822.931-1.506.931zm6.188.92c.699 0 1.3-.262 1.805-.785.039.32.09.543.152.668h1.137v-.094c-.149-.344-.223-.806-.223-1.388V87.6c-.016-.641-.23-1.144-.645-1.51-.414-.364-.986-.547-1.716-.547-.461 0-.884.086-1.269.258a2.3 2.3 0 00-.914.7c-.225.295-.337.6-.337.917h1.09c0-.277.13-.514.392-.709.262-.195.586-.293.973-.293.442 0 .776.112 1.002.337.227.225.34.526.34.905v.498h-1.055c-.91 0-1.616.183-2.118.548-.502.365-.753.878-.753 1.538 0 .543.2.991.6 1.345.401.353.914.53 1.539.53zm.158-.943c-.355 0-.646-.096-.873-.287-.227-.192-.34-.457-.34-.797 0-.777.664-1.166 1.992-1.166h.85v1.3c-.137.282-.357.51-.662.686a1.905 1.905 0 01-.967.264zm7.318.943c.75 0 1.348-.294 1.793-.882.446-.588.668-1.366.668-2.335v-.093c0-1.012-.22-1.809-.659-2.391-.44-.582-1.044-.873-1.813-.873-.77 0-1.373.271-1.81.814V83h-1.085v9h.996l.053-.732c.437.566 1.057.85 1.857.85zm-.27-.92c-.702 0-1.22-.332-1.552-.996V87.46c.313-.664.826-.996 1.541-.996.535 0 .945.201 1.23.603.286.403.428.973.428 1.711 0 .809-.144 1.414-.433 1.817-.29.402-.694.603-1.213.603zm5.274.803v-9h-1.084v9h1.084zm4.366.117c1.062 0 1.859-.408 2.39-1.224l-.662-.516c-.2.258-.432.465-.697.621-.266.156-.59.234-.973.234-.539 0-.983-.192-1.333-.577-.35-.384-.532-.89-.548-1.514h4.295v-.452c0-1.011-.228-1.789-.685-2.332-.457-.543-1.098-.814-1.922-.814-.504 0-.972.14-1.404.419-.431.28-.767.666-1.007 1.16-.24.494-.36 1.056-.36 1.685v.199c0 .945.269 1.7.808 2.265.539.564 1.238.846 2.098.846zm1.388-3.867h-3.176c.07-.574.254-1.02.551-1.339a1.446 1.446 0 011.102-.477c.453 0 .812.151 1.078.454.266.302.414.73.445 1.28v.082zm5.526 4.482l3.556-9.263h-.926l-3.562 9.263h.932zm9.85-.732l1.5-4.805 1.54 4.805h.88l1.845-6.34h-1.084l-1.219 4.846-1.506-4.846h-.873l-1.476 4.746-1.248-4.746h-1.079l1.84 6.34h.88zm7.51-7.406c.212 0 .372-.059.481-.176a.62.62 0 00.164-.44.64.64 0 00-.164-.445c-.109-.12-.27-.181-.48-.181-.211 0-.37.06-.478.181a.647.647 0 00-.16.446c0 .175.053.322.16.439.108.117.267.176.478.176zm.534 7.406v-6.34h-1.084V92h1.084zm3.586.117c.27 0 .547-.039.832-.117v-.879c-.219.047-.39.07-.516.07-.253 0-.433-.063-.539-.19-.105-.127-.158-.317-.158-.571v-3.932h1.184v-.838h-1.184v-1.535h-1.084v1.535h-1.154v.838h1.154v3.932c0 .539.123.955.37 1.248.245.293.61.44 1.095.44zm3.152-.117v-4.518a1.91 1.91 0 01.621-.738c.266-.187.575-.281.926-.281.434 0 .753.11.958.328.205.219.31.557.314 1.014V92h1.084v-4.19c-.012-1.511-.688-2.267-2.028-2.267-.77 0-1.394.295-1.875.885V83h-1.084v9h1.084zm9.141-7.406c.211 0 .371-.059.48-.176a.62.62 0 00.165-.44.64.64 0 00-.165-.445c-.109-.12-.269-.181-.48-.181-.21 0-.37.06-.478.181a.647.647 0 00-.16.446c0 .175.053.322.16.439.108.117.267.176.478.176zm.533 7.406v-6.34h-1.084V92h1.084zm2.819 0v-4.518a1.91 1.91 0 01.62-.738c.266-.187.575-.281.926-.281.434 0 .753.11.958.328.206.219.31.557.314 1.014V92h1.084v-4.19c-.012-1.511-.688-2.267-2.027-2.267-.782 0-1.414.305-1.899.914l-.035-.797h-1.025V92h1.084zm7.763.117c.774 0 1.377-.265 1.81-.797l.054.68h.996v-9h-1.084v3.305c-.434-.508-1.022-.762-1.764-.762-.746 0-1.35.296-1.81.888-.462.591-.692 1.374-.692 2.346v.082c0 .97.231 1.754.694 2.356.463.601 1.062.902 1.796.902zm.27-.92c-.524 0-.934-.203-1.23-.61-.298-.405-.446-.968-.446-1.687 0-.804.148-1.412.445-1.822.297-.41.711-.615 1.243-.615.671 0 1.17.299 1.494.896v2.912c-.317.618-.819.926-1.506.926zm4.916-6.603c.21 0 .37-.059.48-.176a.62.62 0 00.164-.44.64.64 0 00-.164-.445c-.11-.12-.27-.181-.48-.181-.211 0-.37.06-.478.181a.647.647 0 00-.16.446c0 .175.053.322.16.439.108.117.267.176.478.176zM742.75 92v-6.34h-1.084V92h1.084zm4.277.117c.43 0 .837-.097 1.222-.293a2.47 2.47 0 00.923-.785c.23-.328.355-.674.375-1.037h-1.026a1.237 1.237 0 01-.48.879c-.289.234-.627.351-1.014.351-.558 0-.988-.197-1.289-.591-.3-.395-.45-.957-.45-1.688v-.205c0-.75.15-1.323.453-1.72.303-.396.73-.594 1.28-.594.41 0 .755.131 1.035.395.279.264.434.6.465 1.01h1.026c-.031-.679-.282-1.232-.753-1.657-.47-.426-1.062-.639-1.773-.639-.578 0-1.079.133-1.502.398a2.588 2.588 0 00-.976 1.12c-.227.48-.34 1.029-.34 1.646v.182c0 1 .255 1.788.765 2.364.51.576 1.196.864 2.06.864zm5.696 0c.699 0 1.3-.262 1.804-.785.04.32.09.543.153.668h1.136v-.094c-.148-.344-.222-.806-.222-1.388V87.6c-.016-.641-.23-1.144-.645-1.51-.414-.364-.986-.547-1.717-.547-.46 0-.883.086-1.268.258a2.3 2.3 0 00-.914.7c-.225.295-.337.6-.337.917h1.09c0-.277.13-.514.392-.709.262-.195.586-.293.973-.293.441 0 .775.112 1.002.337.226.225.34.526.34.905v.498h-1.055c-.91 0-1.616.183-2.118.548-.502.365-.753.878-.753 1.538 0 .543.2.991.6 1.345.401.353.914.53 1.539.53zm.158-.943c-.356 0-.647-.096-.873-.287-.227-.192-.34-.457-.34-.797 0-.777.664-1.166 1.992-1.166h.85v1.3c-.137.282-.358.51-.662.686a1.905 1.905 0 01-.967.264zm6.264.943c.27 0 .546-.039.832-.117v-.879c-.22.047-.391.07-.516.07-.254 0-.434-.063-.54-.19-.105-.127-.157-.317-.157-.571v-3.932h1.183v-.838h-1.183v-1.535h-1.084v1.535h-1.155v.838h1.155v3.932c0 .539.123.955.369 1.248.246.293.611.44 1.096.44zm4.67 0c.57 0 1.075-.137 1.514-.41.44-.273.777-.655 1.014-1.145.236-.49.354-1.044.354-1.662v-.076c0-.992-.266-1.787-.8-2.385-.533-.597-1.231-.896-2.094-.896-.559 0-1.056.135-1.491.404-.436.27-.776.653-1.02 1.149s-.366 1.054-.366 1.675v.077c0 .984.266 1.775.8 2.373.533.597 1.23.896 2.088.896zm0-.885c-.547 0-.984-.212-1.31-.638-.326-.426-.49-.99-.49-1.694 0-.793.165-1.402.493-1.828.328-.426.76-.638 1.295-.638.547 0 .985.215 1.315.647.33.432.495.995.495 1.69 0 .778-.162 1.382-.486 1.814-.324.432-.762.647-1.313.647zm5.326.768v-4.5c.254-.605.736-.908 1.447-.908.191 0 .369.013.533.04v-1.007c-.11-.055-.27-.082-.48-.082-.653 0-1.157.283-1.512.85l-.018-.733h-1.054V92h1.084zM639.97 139l1.5-4.805 1.542 4.805h.879l1.845-6.34h-1.084l-1.218 4.846-1.506-4.846h-.873l-1.477 4.746-1.248-4.746h-1.078l1.84 6.34h.879zm7.512-7.406c.211 0 .372-.059.48-.176a.62.62 0 00.165-.44.64.64 0 00-.164-.445c-.11-.12-.27-.181-.48-.181-.212 0-.37.06-.478.181a.647.647 0 00-.161.446c0 .175.053.322.16.439.108.117.267.176.478.176zm.534 7.406v-6.34h-1.084V139h1.084zm3.586.117c.27 0 .546-.039.832-.117v-.879c-.22.047-.391.07-.516.07-.254 0-.434-.063-.54-.19-.105-.127-.157-.317-.157-.571v-3.932h1.183v-.838h-1.183v-1.535h-1.084v1.535h-1.155v.838h1.155v3.932c0 .539.123.955.369 1.248.246.293.611.44 1.096.44zm3.152-.117v-4.518a1.91 1.91 0 01.621-.738c.266-.187.574-.281.926-.281.433 0 .753.11.958.328.205.219.31.557.313 1.014V139h1.084v-4.19c-.011-1.511-.687-2.267-2.027-2.267-.77 0-1.395.295-1.875.885V130h-1.084v9h1.084zm9.14-7.406c.211 0 .372-.059.481-.176a.62.62 0 00.164-.44.64.64 0 00-.164-.445c-.11-.12-.27-.181-.48-.181-.211 0-.37.06-.478.181a.647.647 0 00-.161.446c0 .175.054.322.161.439.107.117.267.176.478.176zm.534 7.406v-6.34h-1.084V139h1.084zm4.277.117c.43 0 .837-.097 1.222-.293a2.47 2.47 0 00.923-.785c.23-.328.355-.674.375-1.037h-1.026a1.237 1.237 0 01-.48.879c-.29.234-.627.351-1.014.351-.559 0-.988-.197-1.289-.591-.3-.395-.451-.957-.451-1.688v-.205c0-.75.151-1.323.454-1.72.303-.396.73-.594 1.28-.594.41 0 .755.131 1.034.395.28.264.435.6.466 1.01h1.026c-.032-.679-.283-1.232-.753-1.657-.471-.426-1.062-.639-1.773-.639-.578 0-1.079.133-1.503.398a2.588 2.588 0 00-.975 1.12c-.227.48-.34 1.029-.34 1.646v.182c0 1 .255 1.788.765 2.364.51.576 1.196.864 2.06.864zm6.34 0c.57 0 1.075-.137 1.515-.41.439-.273.777-.655 1.013-1.145.237-.49.355-1.044.355-1.662v-.076c0-.992-.267-1.787-.8-2.385-.533-.597-1.232-.896-2.095-.896-.558 0-1.055.135-1.491.404-.436.27-.775.653-1.02 1.149-.244.496-.366 1.054-.366 1.675v.077c0 .984.267 1.775.8 2.373.533.597 1.23.896 2.089.896zm0-.885c-.547 0-.983-.212-1.31-.638-.326-.426-.489-.99-.489-1.694 0-.793.164-1.402.492-1.828.328-.426.76-.638 1.295-.638.547 0 .986.215 1.316.647.33.432.495.995.495 1.69 0 .778-.162 1.382-.487 1.814-.324.432-.761.647-1.312.647zm5.326.768v-4.518a1.91 1.91 0 01.621-.738c.266-.187.574-.281.926-.281.434 0 .753.11.958.328.205.219.31.557.313 1.014V139h1.084v-4.19c-.011-1.511-.687-2.267-2.027-2.267-.781 0-1.414.305-1.898.914l-.035-.797h-1.026V139h1.084zm8.725.732l3.556-9.263h-.925l-3.563 9.263h.932zm8.783-.732v-4.518a1.91 1.91 0 01.621-.738c.266-.187.574-.281.926-.281.433 0 .753.11.958.328.205.219.31.557.313 1.014V139h1.084v-4.19c-.011-1.511-.687-2.267-2.027-2.267-.781 0-1.414.305-1.899.914l-.035-.797h-1.025V139h1.084zm7.494.117c.7 0 1.3-.262 1.805-.785.039.32.09.543.152.668h1.137v-.094c-.149-.344-.223-.806-.223-1.388V134.6c-.015-.641-.23-1.144-.644-1.51-.414-.364-.987-.547-1.717-.547-.461 0-.884.086-1.269.258a2.3 2.3 0 00-.914.7c-.224.295-.337.6-.337.917h1.09c0-.277.131-.514.393-.709.261-.195.586-.293.972-.293.442 0 .776.112 1.002.337.227.225.34.526.34.905v.498h-1.055c-.91 0-1.616.183-2.118.548-.502.365-.753.878-.753 1.538 0 .543.2.991.601 1.345.4.353.913.53 1.538.53zm.158-.943c-.355 0-.646-.096-.873-.287-.226-.192-.34-.457-.34-.797 0-.778.664-1.166 1.993-1.166h.85v1.3c-.138.282-.358.51-.663.686a1.905 1.905 0 01-.967.264zm6.908.826l2.274-6.34h-1.108l-1.57 4.87-1.611-4.87h-1.108l2.297 6.34h.826zm3.961-7.406c.211 0 .371-.059.48-.176a.62.62 0 00.165-.44.64.64 0 00-.164-.445c-.11-.12-.27-.181-.48-.181-.212 0-.37.06-.478.181a.647.647 0 00-.161.446c0 .175.053.322.16.439.108.117.267.176.478.176zm.534 7.406v-6.34h-1.084V139h1.084zm4.142 2.496c.82 0 1.474-.236 1.96-.709s.73-1.119.73-1.94v-6.187h-.99l-.053.703c-.434-.547-1.037-.82-1.81-.82-.755 0-1.36.292-1.817.876-.457.584-.686 1.37-.686 2.358 0 1.032.23 1.846.689 2.444.459.597 1.06.896 1.801.896.75 0 1.342-.25 1.776-.75v.545c0 .54-.148.957-.443 1.254-.295.297-.706.445-1.233.445-.672 0-1.24-.287-1.705-.861l-.563.65c.23.34.565.608 1.002.803a3.26 3.26 0 001.342.293zm.094-3.299c-.527 0-.938-.204-1.23-.612-.294-.408-.44-.97-.44-1.685 0-.804.148-1.412.445-1.822.297-.41.71-.615 1.237-.615.664 0 1.162.303 1.494.908v2.895c-.32.62-.822.931-1.506.931zm6.187.92c.7 0 1.301-.262 1.805-.785.04.32.09.543.152.668h1.137v-.094c-.148-.344-.222-.806-.222-1.388V134.6c-.016-.641-.231-1.144-.645-1.51-.414-.364-.986-.547-1.717-.547-.46 0-.884.086-1.268.258a2.3 2.3 0 00-.914.7c-.225.295-.337.6-.337.917h1.09c0-.277.13-.514.392-.709.262-.195.586-.293.973-.293.441 0 .775.112 1.002.337.226.225.34.526.34.905v.498h-1.055c-.91 0-1.616.183-2.118.548-.502.365-.753.878-.753 1.538 0 .543.2.991.6 1.345.4.353.913.53 1.538.53zm.159-.943c-.356 0-.647-.096-.873-.287-.227-.192-.34-.457-.34-.797 0-.778.664-1.166 1.992-1.166h.85v1.3c-.137.282-.358.51-.663.686a1.905 1.905 0 01-.966.264zm7.318.943c.75 0 1.348-.294 1.793-.882.445-.588.668-1.366.668-2.335v-.093c0-1.012-.22-1.809-.66-2.391-.439-.582-1.043-.873-1.813-.873s-1.373.271-1.81.814V130h-1.084v9h.996l.053-.732c.437.566 1.056.85 1.857.85zm-.27-.92c-.703 0-1.22-.332-1.552-.996v-2.742c.312-.664.826-.996 1.54-.996.536 0 .946.201 1.231.603.285.403.428.973.428 1.711 0 .809-.145 1.414-.434 1.817-.289.402-.693.603-1.213.603zm5.274.803v-9h-1.084v9h1.084zm4.365.117c1.063 0 1.86-.408 2.39-1.224l-.661-.516c-.2.258-.432.465-.698.621-.265.156-.59.234-.972.234-.54 0-.984-.192-1.333-.577-.35-.384-.533-.89-.548-1.514h4.295v-.452c0-1.011-.229-1.789-.686-2.332-.457-.543-1.097-.814-1.922-.814-.504 0-.971.14-1.403.419-.432.28-.768.666-1.008 1.16-.24.494-.36 1.056-.36 1.685v.199c0 .945.27 1.7.808 2.265.54.564 1.239.846 2.098.846zm1.389-3.867h-3.176c.07-.574.254-1.02.55-1.339a1.446 1.446 0 011.102-.477c.453 0 .813.151 1.078.454.266.302.415.73.446 1.28v.082zm5.525 4.482l3.557-9.263h-.926l-3.562 9.263h.931zm9.85-.732l1.5-4.805 1.54 4.805h.88l1.845-6.34h-1.084l-1.218 4.846-1.506-4.846h-.873l-1.477 4.746-1.248-4.746h-1.078l1.84 6.34h.879zm7.512-7.406c.21 0 .37-.059.48-.176a.62.62 0 00.164-.44.64.64 0 00-.164-.445c-.11-.12-.27-.181-.48-.181-.211 0-.37.06-.478.181a.647.647 0 00-.161.446c0 .175.054.322.161.439.107.117.267.176.478.176zm.533 7.406v-6.34h-1.084V139h1.084zm3.586.117c.27 0 .547-.039.832-.117v-.879c-.22.047-.39.07-.516.07-.254 0-.434-.063-.539-.19-.105-.127-.158-.317-.158-.571v-3.932h1.183v-.838h-1.183v-1.535h-1.084v1.535h-1.154v.838h1.154v3.932c0 .539.123.955.369 1.248.246.293.611.44 1.096.44zm3.152-.117v-4.518a1.91 1.91 0 01.621-.738c.266-.187.574-.281.926-.281.433 0 .753.11.958.328.205.219.31.557.313 1.014V139h1.084v-4.19c-.011-1.511-.687-2.267-2.027-2.267-.77 0-1.395.295-1.875.885V130h-1.084v9h1.084zm9.14-7.406c.212 0 .372-.059.481-.176a.62.62 0 00.164-.44.64.64 0 00-.164-.445c-.11-.12-.27-.181-.48-.181-.211 0-.37.06-.478.181a.647.647 0 00-.161.446c0 .175.054.322.161.439.108.117.267.176.478.176zm.534 7.406v-6.34h-1.084V139h1.084zm2.818 0v-4.518a1.91 1.91 0 01.621-.738c.266-.187.574-.281.926-.281.434 0 .753.11.958.328.205.219.31.557.314 1.014V139h1.084v-4.19c-.012-1.511-.688-2.267-2.028-2.267-.781 0-1.414.305-1.898.914l-.035-.797h-1.026V139h1.084zm7.764.117c.773 0 1.377-.265 1.81-.797l.053.68h.996v-9h-1.084v3.305c-.433-.508-1.021-.762-1.763-.762-.747 0-1.35.296-1.811.888-.46.591-.691 1.374-.691 2.346v.082c0 .97.231 1.754.694 2.356.463.601 1.061.902 1.796.902zm.27-.92c-.524 0-.934-.203-1.231-.61-.297-.405-.445-.968-.445-1.687 0-.804.148-1.412.445-1.822.297-.41.71-.615 1.242-.615.672 0 1.17.299 1.494.896v2.912c-.316.618-.818.926-1.506.926zm4.915-6.603c.211 0 .372-.059.48-.176a.62.62 0 00.165-.44.64.64 0 00-.164-.445c-.11-.12-.27-.181-.48-.181-.212 0-.37.06-.478.181a.647.647 0 00-.161.446c0 .175.053.322.16.439.108.117.267.176.478.176zm.534 7.406v-6.34h-1.084V139h1.084zm4.277.117c.43 0 .837-.097 1.222-.293a2.47 2.47 0 00.922-.785c.231-.328.356-.674.375-1.037h-1.025a1.237 1.237 0 01-.48.879c-.29.234-.627.351-1.014.351-.559 0-.988-.197-1.29-.591-.3-.395-.45-.957-.45-1.688v-.205c0-.75.151-1.323.454-1.72.303-.396.73-.594 1.28-.594.41 0 .755.131 1.034.395.28.264.435.6.466 1.01h1.025c-.03-.679-.282-1.232-.752-1.657-.471-.426-1.062-.639-1.773-.639-.578 0-1.079.133-1.503.398a2.588 2.588 0 00-.975 1.12c-.227.48-.34 1.029-.34 1.646v.182c0 1 .255 1.788.764 2.364.51.576 1.197.864 2.06.864zm5.695 0c.7 0 1.301-.262 1.805-.785.039.32.09.543.152.668h1.137v-.094c-.148-.344-.223-.806-.223-1.388V134.6c-.015-.641-.23-1.144-.644-1.51-.414-.364-.987-.547-1.717-.547-.46 0-.884.086-1.269.258a2.3 2.3 0 00-.914.7c-.224.295-.337.6-.337.917h1.09c0-.277.131-.514.393-.709.262-.195.586-.293.973-.293.441 0 .775.112 1.002.337.226.225.34.526.34.905v.498h-1.055c-.91 0-1.617.183-2.118.548-.502.365-.753.878-.753 1.538 0 .543.2.991.6 1.345.4.353.913.53 1.538.53zm.158-.943c-.355 0-.646-.096-.873-.287-.226-.192-.34-.457-.34-.797 0-.778.665-1.166 1.993-1.166h.85v1.3c-.137.282-.358.51-.663.686a1.905 1.905 0 01-.967.264zm6.264.943c.27 0 .547-.039.832-.117v-.879c-.219.047-.39.07-.515.07-.254 0-.434-.063-.54-.19-.105-.127-.158-.317-.158-.571v-3.932h1.184v-.838h-1.184v-1.535h-1.084v1.535H815.5v.838h1.154v3.932c0 .539.123.955.37 1.248.246.293.61.44 1.095.44zm4.67 0c.57 0 1.075-.137 1.515-.41.44-.273.777-.655 1.013-1.145.237-.49.355-1.044.355-1.662v-.076c0-.992-.267-1.787-.8-2.385-.533-.597-1.231-.896-2.095-.896-.558 0-1.055.135-1.49.404-.436.27-.776.653-1.02 1.149-.245.496-.367 1.054-.367 1.675v.077c0 .984.267 1.775.8 2.373.533.597 1.23.896 2.09.896zm0-.885c-.547 0-.983-.212-1.31-.638-.326-.426-.489-.99-.489-1.694 0-.793.164-1.402.492-1.828.329-.426.76-.638 1.295-.638.547 0 .986.215 1.316.647.33.432.495.995.495 1.69 0 .778-.162 1.382-.486 1.814-.325.432-.762.647-1.313.647zm5.326.768v-4.5c.254-.605.737-.908 1.448-.908.19 0 .369.013.533.04v-1.007c-.11-.055-.27-.082-.48-.082-.653 0-1.157.283-1.512.85l-.018-.733h-1.055V139h1.084z" fill-opacity=".56" fill-rule="nonzero"/><path fill-opacity=".12" d="M620 56h1v112h-1z"/></g></g></svg>