<svg xmlns="http://www.w3.org/2000/svg" xmlns:xlink="http://www.w3.org/1999/xlink" width="422" height="360"><defs><filter id="d" width="113.9%" height="116.7%" x="-6.9%" y="-7.1%" filterUnits="objectBoundingBox"><feOffset dy="4" in="SourceAlpha" result="shadowOffsetOuter1"/><feGaussianBlur in="shadowOffsetOuter1" result="shadowBlurOuter1" stdDeviation="8"/><feColorMatrix in="shadowBlurOuter1" values="0 0 0 0 0 0 0 0 0 0 0 0 0 0 0 0 0 0 0.12 0"/></filter><filter id="f" width="110.7%" height="112.8%" x="-5.3%" y="-5.1%" filterUnits="objectBoundingBox"><feOffset dy="2" in="SourceAlpha" result="shadowOffsetOuter1"/><feGaussianBlur in="shadowOffsetOuter1" result="shadowBlurOuter1" stdDeviation="4"/><feColorMatrix in="shadowBlurOuter1" result="shadowMatrixOuter1" values="0 0 0 0 0 0 0 0 0 0 0 0 0 0 0 0 0 0 0.08 0"/><feOffset dy="4" in="SourceAlpha" result="shadowOffsetOuter2"/><feGaussianBlur in="shadowOffsetOuter2" result="shadowBlurOuter2" stdDeviation="6"/><feColorMatrix in="shadowBlurOuter2" result="shadowMatrixOuter2" values="0 0 0 0 0 0 0 0 0 0 0 0 0 0 0 0 0 0 0.04 0"/><feOffset in="SourceAlpha" result="shadowOffsetOuter3"/><feGaussianBlur in="shadowOffsetOuter3" result="shadowBlurOuter3" stdDeviation="2"/><feColorMatrix in="shadowBlurOuter3" result="shadowMatrixOuter3" values="0 0 0 0 0 0 0 0 0 0 0 0 0 0 0 0 0 0 0.04 0"/><feMerge><feMergeNode in="shadowMatrixOuter1"/><feMergeNode in="shadowMatrixOuter2"/><feMergeNode in="shadowMatrixOuter3"/></feMerge></filter><filter id="h" width="101.9%" height="110.9%" x="-.9%" y="-3.9%" filterUnits="objectBoundingBox"><feOffset dy="1" in="SourceAlpha" result="shadowOffsetOuter1"/><feGaussianBlur in="shadowOffsetOuter1" result="shadowBlurOuter1" stdDeviation="1"/><feComposite in="shadowBlurOuter1" in2="SourceAlpha" operator="out" result="shadowBlurOuter1"/><feColorMatrix in="shadowBlurOuter1" values="0 0 0 0 0 0 0 0 0 0 0 0 0 0 0 0 0 0 0.12 0"/></filter><filter id="k" width="129.2%" height="228.9%" x="-14.6%" y="-64.4%" filterUnits="objectBoundingBox"><feOffset dy="1" in="SourceAlpha" result="shadowOffsetOuter1"/><feGaussianBlur in="shadowOffsetOuter1" result="shadowBlurOuter1" stdDeviation="3"/><feColorMatrix in="shadowBlurOuter1" result="shadowMatrixOuter1" values="0 0 0 0 0 0 0 0 0 0 0 0 0 0 0 0 0 0 0.08 0"/><feMorphology in="SourceAlpha" radius="2" result="shadowSpreadOuter2"/><feOffset dy="-8" in="shadowSpreadOuter2" result="shadowOffsetOuter2"/><feGaussianBlur in="shadowOffsetOuter2" result="shadowBlurOuter2" stdDeviation="16"/><feColorMatrix in="shadowBlurOuter2" result="shadowMatrixOuter2" values="0 0 0 0 0 0 0 0 0 0 0 0 0 0 0 0 0 0 0.04 0"/><feMorphology in="SourceAlpha" radius="3" result="shadowSpreadOuter3"/><feOffset dy="16" in="shadowSpreadOuter3" result="shadowOffsetOuter3"/><feGaussianBlur in="shadowOffsetOuter3" result="shadowBlurOuter3" stdDeviation="12"/><feColorMatrix in="shadowBlurOuter3" result="shadowMatrixOuter3" values="0 0 0 0 0 0 0 0 0 0 0 0 0 0 0 0 0 0 0.04 0"/><feMerge><feMergeNode in="shadowMatrixOuter1"/><feMergeNode in="shadowMatrixOuter2"/><feMergeNode in="shadowMatrixOuter3"/></feMerge></filter><path id="c" d="M8 0h359a8 8 0 018 8v304H0V8a8 8 0 018-8z"/><path id="g" d="M8 0h359a8 8 0 018 8v304H0V8a8 8 0 018-8z"/><path id="i" d="M0 0h375v64H0z"/><rect id="a" width="422" height="360" x="0" y="0" rx="4"/><rect id="j" width="343" height="90" x="0" y="0" rx="4"/></defs><g fill="none" fill-rule="evenodd"><mask id="b" fill="#fff"><use xlink:href="#a"/></mask><g mask="url(#b)"><g transform="translate(23 48)"><mask id="e" fill="#fff"><use xlink:href="#c"/></mask><use fill="#000" filter="url(#d)" xlink:href="#c"/><g mask="url(#e)"><use fill="#000" filter="url(#f)" xlink:href="#g"/><use fill="#FFF" xlink:href="#g"/></g><g fill-opacity=".87" mask="url(#e)"><path fill="#000000" fill-rule="nonzero" d="M350.896 102.209c.547 0 1.03-.098 1.45-.292.42-.195.813-.474 1.18-.835a8.11 8.11 0 001.411.786c.223.083.442.15.658.198.215.049.42.073.615.073.228 0 .446-.035.654-.104a2.236 2.236 0 001.068-.758c.142-.181.256-.383.345-.606.078-.208.137-.424.177-.647.04-.222.059-.452.059-.688a4.183 4.183 0 00-.292-1.527 3.331 3.331 0 00-.369-.682 2.751 2.751 0 00-.518-.557 2.3 2.3 0 00-1.485-.51c-.33 0-.62.065-.87.197-.25.133-.473.304-.668.515a4.004 4.004 0 00-.521.713c-.153.265-.295.531-.425.8-.13.255-.268.51-.414.765a3.622 3.622 0 01-.508.69 2.41 2.41 0 01-.664.497c-.25.127-.545.19-.883.19h-.14v1.782h.14zm5.641-1.809a1.27 1.27 0 01-.306-.042 3.484 3.484 0 01-.605-.188 5.95 5.95 0 01-.588-.278 6.178 6.178 0 01-.47-.278c.177-.353.325-.644.446-.873.12-.23.225-.413.313-.55.088-.137.163-.234.226-.292a.412.412 0 01.191-.108c.07-.014.137-.02.202-.02.135 0 .26.027.376.083.171.088.32.213.445.376.125.162.224.349.296.56.071.21.107.42.107.63v.069c0 .111-.009.213-.027.306a1.302 1.302 0 01-.108.292.721.721 0 01-.146.198.328.328 0 01-.15.087.684.684 0 01-.202.028zm-11.568-6.887l1.085-1.085-1.092-1.092-1.085 1.085 1.092 1.092zm-1.315 2.1l1.183-1.182-1.197-1.196-1.183 1.19 1.197 1.189zm2.63.015l1.182-1.19-1.196-1.19-1.183 1.183 1.196 1.197zm-4.021 6.602c.218 0 .426-.03.626-.087.2-.058.388-.14.567-.244.178-.104.345-.227.5-.369.156-.141.3-.298.435-.47.209.349.49.627.846.836.354.208.75.313 1.186.313.436 0 .834-.11 1.196-.327.362-.218.654-.508.877-.87.13.209.281.389.455.54a2.585 2.585 0 001.19.587c.22.047.444.07.671.07h.223v-1.781h-.258c-.143 0-.295-.03-.455-.09a1.48 1.48 0 01-.449-.272 1.711 1.711 0 01-.57-1.085 35.69 35.69 0 01-.073-.567c-.021-.174-.039-.339-.053-.494a80.603 80.603 0 00-.083-.9l-1.76.138c0 .102.001.182.003.24.003.058.004.11.004.157l.003.15a12.159 12.159 0 01-.028 1.071c-.02.294-.063.562-.128.803s-.159.44-.282.595a.587.587 0 01-.483.233.627.627 0 01-.428-.143.949.949 0 01-.254-.365c-.06-.148-.099-.3-.115-.456a3.981 3.981 0 01-.024-.406c0-.06.002-.121.007-.181.009-.237.032-.472.07-.706.036-.235.085-.49.145-.77l-1.641-.333c-.033.18-.08.39-.14.626a9.119 9.119 0 01-.51 1.46c-.11.242-.23.458-.363.648-.132.19-.274.345-.427.466a.811.811 0 01-.487.188h-.028a.39.39 0 01-.216-.063.505.505 0 01-.167-.188.865.865 0 01-.087-.257 1.536 1.536 0 01-.024-.264V99.6c.01-.255.058-.56.146-.915s.188-.724.3-1.11l-1.705-.48a11.821 11.821 0 01-.484 1.656c-.169.432-.35.771-.542 1.02-.193.248-.395.42-.606.514a1.616 1.616 0 01-.67.143h-.293v1.78h.3c.523 0 .954-.09 1.293-.27.339-.181.624-.476.856-.884a2.102 2.102 0 001.329 1.096c.194.053.396.08.605.08zm-12.035-7.722l1.335-1.336-1.335-1.329-1.329 1.33 1.329 1.335zm-2.532 7.7c.63 0 1.237-.05 1.819-.152a13.165 13.165 0 001.68-.407c.538-.17 1.057-.363 1.558-.581.5-.218.986-.443 1.454-.675.278.58.733 1.027 1.363 1.343.631.315 1.401.473 2.31.473h.278v-1.781h-.278c-.111 0-.263-.007-.456-.021a3.18 3.18 0 01-.598-.104 2.303 2.303 0 01-.588-.25 1.052 1.052 0 01-.417-.46c.171-.079.338-.161.5-.247.163-.086.332-.166.509-.24l.299-1.697c-.311 0-.637-.032-.978-.094a10 10 0 01-1.019-.244c-.338-.1-.668-.213-.988-.34-.32-.128-.614-.257-.883-.387l-.762-.34a10.693 10.693 0 00-.737-.3 5.913 5.913 0 00-.724-.212 3.263 3.263 0 00-.713-.08c-.283 0-.578.064-.887.191-.308.128-.608.3-.9.515a5.214 5.214 0 00-.811.745c-.248.28-.453.574-.616.88l1.392.758.07-.098c.04-.064.1-.144.177-.24.076-.095.169-.198.278-.31.109-.11.232-.214.369-.309.136-.095.282-.174.438-.236a1.3 1.3 0 01.49-.094c.218 0 .442.029.672.087.23.058.457.13.685.216.227.085.454.182.681.288.228.107.45.208.668.303.218.095.43.178.637.25.206.072.404.12.595.143-.469.232-.967.462-1.496.692-.529.23-1.074.436-1.635.62a14.49 14.49 0 01-1.711.444c-.58.114-1.155.17-1.725.17h-1.413v1.782h1.413zm-7.861.133c.436 0 .898-.022 1.388-.066.489-.044.98-.131 1.47-.261a2.8 2.8 0 00.77.156c.308.026.71.039 1.207.039h1.892v-1.781h-1.301a3.172 3.172 0 00.598-1.677v-.125c0-.385-.074-.747-.222-1.085a3.088 3.088 0 00-.707-.974 3.303 3.303 0 00-1.047-.654 3.357 3.357 0 00-1.245-.236c-.338 0-.672.039-1.001.118-.33.079-.649.19-.957.334a6.414 6.414 0 00-.897.511 7.95 7.95 0 00-.832.65 8.268 8.268 0 00-.615.672c-.188.23-.359.453-.512.671a9.263 9.263 0 00-.403.623c-.116.197-.216.374-.3.532a.967.967 0 01-.124-.198 1.606 1.606 0 01-.094-.244 1.986 1.986 0 01-.08-.525c0-.13.005-.248.017-.355a2.186 2.186 0 01.143-.595 5.87 5.87 0 01.132-.31l-1.614-.535c-.093.246-.17.5-.233.762s-.129.518-.198.769c-.07.25-.152.489-.247.716-.095.227-.22.427-.373.598a1.63 1.63 0 01-.57.407c-.227.1-.51.15-.849.15h-.194v1.78h.23c.579 0 1.095-.083 1.547-.25.452-.167.859-.447 1.22-.841.163.204.344.382.543.535.2.153.45.28.748.383.3.102.667.178 1.103.23.436.05.971.076 1.607.076zm.195-1.823c-.126 0-.25-.002-.376-.007-.413-.009-.795-.037-1.148-.083.209-.367.44-.713.696-1.04.255-.327.539-.62.852-.88.313-.26.656-.48 1.03-.661.373-.18.782-.31 1.227-.39a2.331 2.331 0 01.647.007c.228.042.442.115.644.22.201.104.374.238.518.403.144.165.234.354.271.567a1.378 1.378 0 01-.386.769 2.623 2.623 0 01-.796.542c-.32.146-.679.261-1.075.345a8.82 8.82 0 01-1.134.167c-.36.027-.683.041-.97.041zm-6.915 1.69v-1.78h-.313c-.181 0-.34-.019-.477-.056a.69.69 0 01-.522-.508 1.726 1.726 0 01-.052-.445v-.111c0-.144.001-.285.004-.425a800.349 800.349 0 00.014-.873 33.44 33.44 0 00-.004-1.224 46.696 46.696 0 01-.007-.783 36.443 36.443 0 00-.097-2.636c-.033-.44-.07-.855-.111-1.242a12.708 12.708 0 00-.14-.984l-1.746.522c.042.218.08.47.112.754.032.286.06.592.083.919.023.327.043.665.06 1.015.015.35.028.7.038 1.05a81.157 81.157 0 01.027 1.973c0 .492-.004.908-.014 1.249-.009.34-.013.585-.013.734.004.955.25 1.67.737 2.142.487.473 1.201.71 2.143.71h.278zm-12.758-5.885l1.182-1.182-1.196-1.197-1.183 1.19 1.197 1.19zm2.63.014l1.182-1.19-1.197-1.189-1.182 1.183 1.196 1.196zm-1.295 5.872c.204 0 .431-.007.682-.021a15.412 15.412 0 002.111-.244c.378-.07.747-.154 1.106-.254.36-.1.7-.218 1.02-.354.32-.137.6-.296.841-.477.241-.18.431-.382.57-.605.14-.223.21-.47.21-.744 0-.195-.033-.426-.098-.693a9.889 9.889 0 00-.244-.83 16.9 16.9 0 00-.915-2.153c-.071-.138-.114-.206-.128-.206l-1.489.967c.14.236.276.472.41.706.135.234.263.472.383.713s.229.487.324.737.17.51.226.78a6.22 6.22 0 01-1.242.448c-.452.114-.911.203-1.377.268-.466.065-.919.109-1.357.132-.438.023-.831.035-1.179.035-.626 0-1.214-.028-1.763-.084a10.155 10.155 0 01-1.468-.247 4.432 4.432 0 01-1.072-.403c-.285-.16-.478-.344-.58-.553a.707.707 0 01-.063-.306c0-.06.005-.123.014-.188.028-.195.08-.396.156-.605a4.57 4.57 0 01.533-1.03l-1.294-1.085c-.112.209-.223.419-.334.63a6.598 6.598 0 00-.3.65 5 5 0 00-.215.685 3.165 3.165 0 00-.083.734c0 .515.09.961.27 1.34.182.377.427.698.738.963.31.264.677.479 1.1.643.421.165.871.295 1.349.39.478.095.974.161 1.489.198.514.037 1.022.058 1.523.063h.146zm-20.007 0c.547 0 1.03-.098 1.45-.292.42-.195.813-.474 1.18-.835a8.11 8.11 0 001.412.786c.223.083.442.15.657.198.216.049.421.073.616.073.227 0 .445-.035.654-.104a2.236 2.236 0 001.068-.758c.141-.181.256-.383.344-.606.079-.208.138-.424.177-.647.04-.222.06-.452.06-.688a4.183 4.183 0 00-.293-1.527 3.331 3.331 0 00-.368-.682 2.751 2.751 0 00-.519-.557 2.301 2.301 0 00-1.485-.51c-.329 0-.619.065-.87.197-.25.133-.472.304-.667.515a4.004 4.004 0 00-.522.713c-.153.265-.294.531-.424.8-.13.255-.268.51-.414.765a3.622 3.622 0 01-.508.69 2.41 2.41 0 01-.664.497c-.25.127-.545.19-.884.19h-.139v1.782h.14zm5.642-1.809a1.27 1.27 0 01-.306-.042 3.484 3.484 0 01-.605-.188 5.95 5.95 0 01-.588-.278 6.179 6.179 0 01-.47-.278c.176-.353.325-.644.445-.873.121-.23.225-.413.314-.55.088-.137.163-.234.226-.292a.412.412 0 01.19-.108c.07-.014.138-.02.203-.02.134 0 .26.027.375.083.172.088.32.213.446.376.125.162.223.349.295.56.072.21.108.42.108.63v.069c0 .111-.01.213-.028.306a1.302 1.302 0 01-.108.292.721.721 0 01-.146.198.328.328 0 01-.15.087.684.684 0 01-.201.028zm-5.503 1.809v-1.781h-.313c-.18 0-.34-.019-.476-.056a.69.69 0 01-.522-.508 1.726 1.726 0 01-.052-.445v-.111c0-.144.001-.285.003-.425l.004-.21.003-.214.007-.449a33.428 33.428 0 00-.003-1.224 46.688 46.688 0 01-.007-.783 36.444 36.444 0 00-.098-2.636c-.032-.44-.07-.855-.11-1.242a12.708 12.708 0 00-.14-.984l-1.746.522c.042.218.079.47.111.754.033.286.06.592.084.919a52.979 52.979 0 01.097 2.066 81.165 81.165 0 01.028 1.972v.286c-.002.369-.007.69-.014.963-.01.34-.014.585-.014.734.005.955.25 1.67.737 2.142.487.473 1.202.71 2.143.71h.278zm-8.048 0c.533 0 .992-.072 1.377-.216.385-.144.703-.349.953-.616.25-.266.436-.59.557-.974.12-.382.18-.812.18-1.29 0-.158-.002-.321-.006-.49-.005-.17-.013-.388-.025-.654a113.66 113.66 0 01-.038-1.009c-.014-.406-.03-.924-.049-1.555-.037-.84-.077-1.623-.122-2.351a59.889 59.889 0 00-.142-1.913l-1.753.376a31.074 31.074 0 01.052.732l.023.369.012.206c.02.357.043.763.066 1.218.023.454.044.93.062 1.426.042.584.072 1.07.09 1.457a25.687 25.687 0 01.034 1.14v.3l-.002.122-.003.383c0 .278-.018.516-.052.713a1.132 1.132 0 01-.192.483.793.793 0 01-.39.275 1.957 1.957 0 01-.632.087h-.529v1.78h.529zm-9.023.02c.274 0 .57-.002.89-.006a12.7 12.7 0 00.974-.053c.33-.03.657-.077.981-.142.325-.065.63-.156.915-.271.285-.116.544-.263.776-.439.232-.176.422-.392.57-.647.436.506.94.887 1.513 1.145.573.257 1.219.388 1.938.393h.208v-1.781h-.264c-.31 0-.616-.065-.915-.195-.299-.13-.574-.303-.824-.518a3.762 3.762 0 01-.658-.738 2.936 2.936 0 01-.407-.859 4.444 4.444 0 00-.48-1.047 8.225 8.225 0 00-.744-1.015 11.613 11.613 0 00-.925-.964c-.334-.31-.673-.612-1.016-.904l5.343-2.247-.703-1.656-6.414 2.762-.201 1.823c.222.185.466.38.73.584.264.204.53.415.797.633.266.218.525.44.775.668.25.227.472.457.665.688.192.232.346.465.462.7.116.234.174.467.174.699 0 .26-.063.479-.188.657a1.48 1.48 0 01-.511.445c-.216.119-.464.21-.744.275a6.87 6.87 0 01-.89.143c-.314.03-.633.048-.957.055-.325.007-.636.01-.933.01-.408 0-.817-.007-1.227-.024a17.69 17.69 0 01-1.197-.086 13.938 13.938 0 01-1.096-.16 6.046 6.046 0 01-.928-.247 3.023 3.023 0 01-.7-.348 1.145 1.145 0 01-.403-.456.733.733 0 01-.056-.299c0-.06.005-.125.014-.195.028-.2.08-.402.157-.609a5.01 5.01 0 01.26-.587c.098-.186.186-.332.265-.439l-1.294-1.085c-.18.288-.351.605-.511.953-.16.348-.275.684-.344 1.009a4.334 4.334 0 00-.098 1.183 2.5 2.5 0 00.327 1.064c.223.338.485.627.786.866.302.239.63.437.985.595.354.157.735.28 1.14.368.406.089.827.155 1.263.199.436.044.882.072 1.34.083.456.012.916.018 1.38.018zm-15.986-9.189l1.336-1.336-1.336-1.328-1.329 1.328 1.329 1.336zm-2.824 9.169c.538 0 1.058-.019 1.561-.056a9.31 9.31 0 001.416-.209c.44-.102.843-.24 1.207-.417.364-.176.677-.404.94-.682.261-.278.465-.612.611-1.002.146-.39.22-.848.22-1.377 0-.31-.032-.639-.095-.984a6.307 6.307 0 00-.274-1.02 5.76 5.76 0 00-.446-.952 3.98 3.98 0 00-.605-.797 2.74 2.74 0 00-.758-.546 2.035 2.035 0 00-.897-.202c-.26 0-.501.048-.724.143a2.247 2.247 0 00-.612.39c-.186.164-.35.355-.494.573a4.15 4.15 0 00-.598 1.454 3.93 3.93 0 00-.077.758c0 .418.083.783.247 1.096.165.313.386.574.665.783.278.208.601.365.97.47a4.26 4.26 0 001.165.156h.71c-.135.097-.336.185-.605.264a7.314 7.314 0 01-.96.202c-.371.056-.782.098-1.232.129-.45.03-.918.045-1.405.045h-.167v1.78h.237zm3.679-4.196h-.125a6.206 6.206 0 01-.929-.056 1.684 1.684 0 01-.445-.117.71.71 0 01-.302-.24.687.687 0 01-.111-.407v-.028c0-.167.034-.336.104-.508.07-.176.16-.334.271-.473.112-.139.227-.245.348-.32a.632.632 0 01.32-.111c.023 0 .046.002.07.007a.78.78 0 01.532.278c.155.172.29.375.403.609.114.234.209.475.285.723.077.249.136.456.178.623a8.876 8.876 0 01-.6.02zm-9.801 9.4a13.502 13.502 0 001.722-1.023 9.945 9.945 0 001.51-1.287 7.3 7.3 0 001.116-1.506 4.36 4.36 0 00.535-1.68c.218.139.419.222.602.25.183.028.335.042.456.042h.215l.007-1.781h-.215a1.19 1.19 0 01-.546-.122c-.16-.081-.313-.225-.46-.431a4.59 4.59 0 01-.445-.842 18.47 18.47 0 01-.497-1.346l-1.67.696c.088.264.186.536.292.817.107.28.207.558.3.831.092.274.169.537.23.79.06.253.09.483.09.692 0 .292-.055.577-.164.856-.109.278-.257.55-.445.814a5.05 5.05 0 01-.668.758 9.915 9.915 0 01-.831.696c-.297.222-.609.43-.936.626-.327.194-.653.375-.977.542l.779 1.607zm-6.289-.335a9.3 9.3 0 001.572-.4c.51-.178.99-.4 1.44-.664.45-.264.863-.572 1.239-.922a5.72 5.72 0 001.603-2.609c.15-.517.226-1.072.226-1.666a6.76 6.76 0 00-.365-2.194 5.813 5.813 0 00-.431-.96 4.51 4.51 0 00-.574-.804c-.594-.64-1.25-.96-1.969-.96-.278 0-.538.053-.78.16a2.417 2.417 0 00-.66.435c-.2.183-.376.394-.529.633a4.319 4.319 0 00-.386.758c-.104.267-.184.54-.24.818a4.08 4.08 0 00-.083.8c0 .398.053.742.16 1.03.106.287.256.531.448.733.193.202.423.364.69.487.266.123.558.218.876.285.317.068.655.113 1.012.136.357.023.723.035 1.099.035-.083.315-.252.63-.504.946-.253.315-.581.612-.985.89-.403.278-.88.53-1.43.755a9.971 9.971 0 01-1.846.54l.417 1.738zm4.445-6.65c-.106 0-.22-.001-.34-.004l-.366-.007a16.986 16.986 0 01-.678-.024 4.796 4.796 0 01-.532-.087 1.76 1.76 0 01-.48-.177 1.041 1.041 0 01-.348-.31.816.816 0 01-.136-.483c0-.186.039-.376.115-.57.077-.196.173-.373.289-.533.116-.16.243-.291.382-.393.14-.102.27-.153.39-.153.13 0 .26.044.39.132.13.088.256.205.379.351.123.147.237.313.344.501a5.097 5.097 0 01.49 1.197c.054.202.087.388.101.56zm-10.448-7.562l1.085-1.085-1.092-1.092-1.085 1.085 1.092 1.092zm-1.315 2.101l1.183-1.183-1.197-1.196-1.183 1.19 1.197 1.189zm2.63.014l1.182-1.19-1.196-1.19-1.183 1.183 1.196 1.197zm-3.479 7.311c.27-.004.507-.036.713-.094a2.32 2.32 0 00.557-.233c.164-.097.31-.212.435-.344.125-.132.24-.275.347-.428.093.14.199.276.317.41.118.135.253.254.403.359a1.872 1.872 0 001.096.33h.097c.469 0 .884-.065 1.246-.195.375-.13.692-.317.95-.563.257-.246.451-.543.584-.89.132-.348.198-.738.198-1.17a5.42 5.42 0 00-.066-.834 8.125 8.125 0 00-.174-.831 11.854 11.854 0 00-.696-1.938 5.724 5.724 0 00-.135-.278l-1.496.835c.079.162.171.366.278.612.107.246.208.508.303.786s.176.564.243.856c.067.292.101.563.101.814 0 .343-.104.598-.313.765-.209.167-.478.25-.807.25a1.017 1.017 0 01-.445-.1.81.81 0 01-.292-.251.856.856 0 01-.146-.334 1.788 1.788 0 01-.035-.344v-.112a9.97 9.97 0 01.059-.584c.025-.195.052-.381.08-.56.028-.178.054-.344.08-.497.025-.153.045-.286.06-.397l-1.629-.313c-.028.195-.066.415-.115.661-.048.246-.109.497-.18.755a7.053 7.053 0 01-.258.755c-.1.245-.215.464-.348.657a1.836 1.836 0 01-.448.466.952.952 0 01-.564.177c-.195 0-.335-.056-.42-.17a.658.658 0 01-.143-.344 3.574 3.574 0 01-.014-.244c0-.148.016-.308.049-.48.041-.227.093-.453.156-.678.063-.225.129-.438.198-.64.07-.202.126-.368.167-.497l-1.739-.383c-.05.195-.109.414-.174.657-.065.244-.141.49-.23.741-.087.25-.19.494-.309.73a3.232 3.232 0 01-.41.634 1.881 1.881 0 01-.536.445c-.202.111-.43.167-.685.167h-.278v1.78h.25c.325 0 .607-.027.849-.083.24-.055.45-.13.63-.226.178-.095.328-.203.451-.323s.229-.246.317-.376c.102.148.214.29.337.424.123.135.26.252.41.352a1.932 1.932 0 001.076.316h.048zm-11.513-10.217l5.872-2.392-.344-.71-5.477 2.202-.05.9zm1.218 10.134c.278-.014.548-.048.81-.101.262-.054.511-.135.748-.244a2.887 2.887 0 001.21-1.033c.218.246.44.456.665.63.225.174.466.316.723.428.257.111.537.192.838.243.302.051.638.077 1.009.077h.202v-1.781h-.438a1.939 1.939 0 01-1.193-.376 2.671 2.671 0 01-.46-.431 4.26 4.26 0 01-.4-.564c-.134-.218-.26-.433-.375-.647a41.978 41.978 0 01-.348-.653 35.6 35.6 0 00-.501-.926 11.232 11.232 0 00-.574-.914 9.823 9.823 0 00-1.652-1.833l5.252-2.157-.647-1.593-6.087 2.574-.167 1.962a10.377 10.377 0 011.952 2.076c.197.276.368.55.514.821.146.271.263.538.352.8.088.262.132.504.132.727 0 .144-.04.284-.122.42a1.182 1.182 0 01-.344.363c-.149.104-.33.189-.546.253a2.519 2.519 0 01-.727.098h-2.164v1.78h2.338zm-2.06 0v-1.781h-.313c-.18 0-.34-.019-.476-.056a.69.69 0 01-.522-.508 1.726 1.726 0 01-.052-.445v-.111c0-.144.001-.285.003-.425l.004-.21.003-.214.007-.449a33.427 33.427 0 00-.003-1.224 46.688 46.688 0 01-.007-.783 36.443 36.443 0 00-.097-2.636c-.033-.44-.07-.855-.112-1.242a12.708 12.708 0 00-.139-.984l-1.746.522c.042.218.079.47.111.754.033.286.06.592.084.919a52.978 52.978 0 01.097 2.066 81.163 81.163 0 01.028 1.972c0 .492-.005.908-.014 1.249-.01.34-.014.585-.014.734.005.955.25 1.67.738 2.142.487.473 1.2.71 2.142.71h.278zm-7.993 0c.473 0 .898-.055 1.273-.164.376-.109.695-.273.957-.494.262-.22.464-.494.605-.82.142-.328.212-.709.212-1.145 0-1.01-.582-2.182-1.746-3.513a17.45 17.45 0 00-1.078-1.092 13.053 13.053 0 00-.723-.62l-1.127 1.378a6.948 6.948 0 00.445.376c-.093.093-.194.196-.303.31-.109.113-.23.249-.365.406-.788.956-1.183 1.874-1.183 2.755 0 .413.071.782.213 1.106.141.325.343.6.605.825.262.224.58.396.953.514.373.119.794.178 1.262.178zm0-1.802c-.134 0-.284-.014-.448-.042a1.997 1.997 0 01-.47-.139 1.138 1.138 0 01-.372-.254.537.537 0 01-.15-.386c0-.185.044-.393.133-.623.088-.23.198-.459.33-.688.132-.23.275-.447.428-.65a4.77 4.77 0 01.431-.508c.209.199.41.415.602.646.192.232.363.462.511.69.149.226.267.44.355.64.088.199.132.363.132.493a.593.593 0 01-.139.404.98.98 0 01-.355.253 1.778 1.778 0 01-.48.13 3.895 3.895 0 01-.508.034z"/></g><g fill-opacity=".56" mask="url(#e)"><path fill="#000000" fill-rule="nonzero" d="M355.342 129.286l.986-.986-.998-.998-.987.992.999.992zm2.495.012l.986-.992-.998-.992-.986.986.998.998zM355.183 136c.333 0 .655-.022.965-.067.31-.045.596-.122.855-.231.26-.11.49-.256.691-.439.201-.182.363-.411.484-.687.122-.28.183-.605.183-.974 0-.065-.002-.13-.006-.195-.029-.45-.134-.97-.317-1.558a7.904 7.904 0 00-.195-.563 12.303 12.303 0 00-.334-.786 1.498 1.498 0 01-.055-.124l-1.084.535.53 1.303a3.959 3.959 0 01.274 1.038c.008.107.012.187.012.24 0 .098-.006.189-.018.274-.02.13-.05.237-.091.323a.953.953 0 01-.341.398 1.674 1.674 0 01-.506.216c-.19.05-.397.079-.62.089-.224.01-.453.015-.688.015h-1.175V136h1.436zm-7.14.122c.276 0 .568-.008.874-.025.306-.016.618-.048.934-.097h4.14v-1.193h-1.522c.186-.207.34-.446.462-.718.122-.272.189-.587.201-.944v-.085c0-.264-.034-.51-.103-.737a2.317 2.317 0 00-.877-1.2 2.567 2.567 0 00-.679-.34 2.54 2.54 0 00-.605-.136 6.397 6.397 0 00-.305-.016c-.227 0-.456.027-.687.08a5.124 5.124 0 00-1.385.523c-.42.235-.803.516-1.148.843a6.744 6.744 0 00-.93 1.096c-.277.403-.52.828-.731 1.275a1.79 1.79 0 01-.274-.597 2.575 2.575 0 01-.073-.602v-.043c0-.21.02-.416.06-.615.041-.199.086-.381.135-.548l-1.15-.346a4.97 4.97 0 00-.135.48c-.036.163-.07.331-.103.506-.065.308-.132.594-.201.858a2.023 2.023 0 01-.317.688c-.044.06-.102.124-.173.191a1.121 1.121 0 01-.283.186 2.033 2.033 0 01-.432.143c-.17.039-.376.058-.615.058h-.14V136h.176c.56-.004 1.038-.09 1.434-.256a2.26 2.26 0 00.977-.785c.223.288.452.51.688.667.235.156.49.27.767.344.276.073.579.116.91.13.33.015.7.022 1.11.022zm0-1.23h-.267c-.362-.008-.676-.02-.944-.036.223-.406.453-.774.688-1.105.235-.33.484-.621.746-.87a4.19 4.19 0 01.843-.628c.3-.168.625-.29.974-.368a1.838 1.838 0 011.169.13c.13.06.244.137.343.232a1.112 1.112 0 01.338.819v.024c0 .313-.085.577-.256.792-.174.219-.405.397-.694.535a3.964 3.964 0 01-.983.31 8.504 8.504 0 01-1.047.135c-.33.02-.634.03-.91.03zm-11.534 5.381a7.459 7.459 0 001.72-.487 6.291 6.291 0 001.509-.889 5.424 5.424 0 001.156-1.269 4.598 4.598 0 00.66-1.628h.67v-1.193h-.578a5.794 5.794 0 00-.329-1.768 4.675 4.675 0 00-.353-.77 3.846 3.846 0 00-.462-.646c-.483-.519-1.013-.779-1.589-.779-.26 0-.51.066-.752.198a2.284 2.284 0 00-.672.581c-.17.22-.319.48-.445.783a3.435 3.435 0 00-.24.81 4.237 4.237 0 00-.052.587c0 .162.014.324.043.487.048.308.166.58.353.815.422.524 1.073.812 1.954.865.223.02.423.03.6.03h.69c-.044.304-.17.614-.374.928a3.805 3.805 0 01-.837.892c-.353.28-.777.532-1.272.755a7.854 7.854 0 01-1.68.523l.28 1.175zm3.342-5.479h-.098c-.179 0-.37-.005-.572-.017a3.068 3.068 0 01-.259-.028c-.1-.014-.2-.036-.304-.067a1.43 1.43 0 01-.292-.122.716.716 0 01-.229-.197.57.57 0 01-.124-.29 2.13 2.13 0 01-.022-.27 2.765 2.765 0 01.344-1.272c.083-.143.178-.26.283-.35a.505.505 0 01.335-.138c.073 0 .142.013.207.037a.94.94 0 01.186.094c.058.039.113.082.164.128.05.047.096.09.137.131.101.118.2.257.295.417.096.16.182.34.259.539.077.199.14.414.189.645.048.231.079.477.09.736a7.117 7.117 0 01-.589.024zM331.937 136c.333 0 .655-.022.965-.067.31-.045.596-.122.855-.231.26-.11.49-.256.691-.439.201-.182.362-.411.484-.687.122-.28.183-.605.183-.974 0-.065-.002-.13-.006-.195-.029-.45-.134-.97-.317-1.558a7.904 7.904 0 00-.195-.563 12.303 12.303 0 00-.334-.786 1.498 1.498 0 01-.055-.124l-1.084.535.53 1.303a3.959 3.959 0 01.274 1.038c.008.107.012.187.012.24 0 .098-.006.189-.018.274-.02.13-.051.237-.092.323a.953.953 0 01-.34.398 1.674 1.674 0 01-.506.216c-.19.05-.397.079-.62.089-.224.01-.453.015-.688.015H330.5V136h1.436zm-.304 2.977l.986-.987-.998-.998-.986.992.998.993zm2.496.012l.986-.992-.998-.993-.987.986.999.999zm-8.692 1.503a11.123 11.123 0 001.49-.9 7.948 7.948 0 001.288-1.142c.376-.416.677-.865.904-1.348.227-.483.341-.99.341-1.522v-.024c.101.11.208.194.32.255a1.475 1.475 0 00.623.183c.09.004.163.006.22.006h.103v-1.193h-.097c-.203 0-.389-.049-.557-.146a1.645 1.645 0 01-.484-.46 4.3 4.3 0 01-.45-.81c-.147-.33-.297-.73-.451-1.201l-1.144.353c.048.15.107.337.176.563.07.225.138.465.207.721.07.256.133.516.192.782s.102.514.13.746a2.272 2.272 0 01-.067.822 3.158 3.158 0 01-.331.785c-.148.251-.33.492-.545.721-.215.23-.45.447-.706.654a8.3 8.3 0 01-.816.582c-.288.18-.578.346-.87.496l.524 1.077zM317.158 136c.211 0 .388-.014.53-.043.86-.158 1.47-.558 1.832-1.199.085-.154.16-.324.222-.511.063-.187.102-.354.116-.502.014-.148.021-.265.021-.35 0-.146-.012-.3-.036-.463a3.644 3.644 0 00-.22-.791 5.116 5.116 0 00-.462-.886 7.535 7.535 0 00-.761-.977 9.489 9.489 0 00-.7-.7 39.17 39.17 0 00-.651-.572l4.358-1.832-.469-1.108-5.003 2.143-.14 1.248a15.433 15.433 0 011.85 1.768c.26.294.478.57.655.828.176.257.287.47.331.636.057.219.086.424.086.614a1.495 1.495 0 01-.243.828c-.115.17-.27.302-.47.393a2.705 2.705 0 01-.657.2c-.24.043-.491.068-.755.074-.264.006-.517.009-.76.009h-.762V136h2.088zm-1.844 0v-1.193h-.122c-.255 0-.476-.026-.66-.08a.95.95 0 01-.417-.218.507.507 0 01-.162-.314 3.288 3.288 0 01-.02-.386v-3.056a42.487 42.487 0 00-.126-3.208 9.022 9.022 0 00-.094-.76l-1.193.218c.037.191.068.436.094.734.027.298.049.624.067.977.019.353.032.718.04 1.096.008.377.012.74.012 1.09a89.654 89.654 0 010 1.88 185.217 185.217 0 00-.012.907c0 .097.002.214.006.35a2.35 2.35 0 00.216.886c.071.154.174.298.307.432.22.219.486.381.8.487.315.105.696.158 1.142.158h.122zm-8.674 4.358c.34-.166.677-.354 1.007-.563.331-.209.646-.437.944-.685a8.06 8.06 0 00.828-.79c.253-.28.472-.575.657-.883.185-.309.329-.628.432-.96.104-.33.155-.672.155-1.025a3.64 3.64 0 00-.042-.548 8.704 8.704 0 00-.107-.569c-.042-.193-.089-.387-.14-.584l-.149-.588a9.052 9.052 0 00-.152-.556 65.41 65.41 0 01-.17-.564l-1.157.366c.11.34.213.681.31 1.022l.14.512c.05.174.094.349.134.523.041.175.074.345.1.511.027.167.04.325.04.475 0 .394-.095.775-.286 1.145a4.51 4.51 0 01-.757 1.046 6.964 6.964 0 01-1.075.91 9.912 9.912 0 01-1.242.734l.53 1.071zm-7.085-9.355l.986-.986-.998-.999-.986.992.998.993zm2.495.012l.987-.992-.999-.993-.986.987.998.998zM300.803 136a12.11 12.11 0 001.637-.128 13.121 13.121 0 001.802-.392c.28-.084.541-.176.785-.277.243-.102.456-.21.64-.323.19-.122.337-.242.44-.362a.971.971 0 00.207-.356 1.21 1.21 0 00.046-.475 4.335 4.335 0 00-.097-.554 5.691 5.691 0 00-.302-.922 11.282 11.282 0 00-.38-.816 8.8 8.8 0 00-.332-.59 7.712 7.712 0 01-.155-.253l-1.01.658a7.255 7.255 0 01.29.46c.078.135.164.291.257.468.094.176.182.362.265.557.083.195.156.392.22.593.062.201.102.393.118.575-.341.191-.71.346-1.105.466a9.93 9.93 0 01-1.196.283c-.402.07-.795.117-1.18.143-.386.027-.74.04-1.06.04-1.136-.004-2.06-.113-2.77-.326-.71-.213-1.164-.518-1.363-.916a1.194 1.194 0 01-.122-.542c0-.223.049-.468.146-.736a2.35 2.35 0 01.183-.417 4.831 4.831 0 01.213-.35l-.968-.718-.067.1a4.867 4.867 0 00-.301.533 5.537 5.537 0 00-.174.401c-.158.418-.237.82-.237 1.206 0 .385.085.742.256 1.07.3.606.868 1.07 1.704 1.395.88.324 2.047.493 3.5.505h.11zm-17.488 0c.247 0 .48-.012.7-.037a2.77 2.77 0 00.62-.14 2.05 2.05 0 00.552-.298 2.48 2.48 0 00.496-.517c.186.138.39.273.608.405.22.131.448.243.685.334a2.63 2.63 0 00.983.198c.167 0 .333-.022.5-.067.263-.073.486-.204.669-.392.182-.189.326-.41.432-.664.106-.253.17-.486.195-.697.024-.21.036-.381.036-.511 0-.146-.01-.288-.03-.426a3.683 3.683 0 00-.216-.804 2.506 2.506 0 00-.417-.706 2.058 2.058 0 00-.63-.502 1.812 1.812 0 00-.85-.192c-.267 0-.501.054-.702.162-.201.107-.38.247-.536.42a3.21 3.21 0 00-.42.59c-.124.221-.24.445-.35.673-.126.251-.25.496-.374.733-.124.238-.27.449-.439.633a1.908 1.908 0 01-.611.445c-.24.111-.54.167-.901.167h-.122V136h.122zm4.626-1.266c-.162 0-.345-.04-.548-.122a4.697 4.697 0 01-1.01-.59l.328-.664c.102-.199.192-.371.271-.517.08-.146.154-.268.225-.365a.862.862 0 01.213-.216.408.408 0 01.229-.07c.121 0 .229.024.322.073.094.048.175.11.244.185s.128.159.176.25a1.98 1.98 0 01.189.496c.016.069.026.118.03.146.017.11.025.215.025.317a1.822 1.822 0 01-.113.615 1.035 1.035 0 01-.167.298.389.389 0 01-.201.14.878.878 0 01-.213.024zM280.003 136c.118 0 .25-.008.396-.024.146-.017.293-.047.441-.092.149-.044.29-.107.427-.188.135-.082.254-.189.356-.323.077.085.171.166.283.244.111.077.237.144.377.2a2.516 2.516 0 00.959.183h.195v-1.193h-.134c-.268-.004-.472-.047-.612-.128a.925.925 0 01-.326-.304 1.08 1.08 0 01-.155-.399 2.183 2.183 0 01-.033-.344l.006-.325.012-.673a290.728 290.728 0 00.021-2.015c.002-.377.002-.76 0-1.147a63.323 63.323 0 00-.015-1.114 26.816 26.816 0 00-.04-.99c-.018-.304-.041-.56-.07-.766l-1.187.152c.025.199.044.448.058.749.014.3.026.629.034.986a64.04 64.04 0 01.012 2.267 1054.456 1054.456 0 01-.025 1.981 63.307 63.307 0 01-.018.87c-.008.106-.017.21-.027.314-.01.104-.028.202-.052.296a1.233 1.233 0 01-.094.252.502.502 0 01-.15.18.617.617 0 01-.252.11c-.059.011-.13.022-.216.03a5.164 5.164 0 01-.31.018h-.621V136h.76zm-6.026 3.969c.268 0 .569-.019.901-.055a7.469 7.469 0 001.008-.183c.338-.085.668-.195.989-.331.32-.136.606-.304.858-.503.252-.198.455-.432.609-.7a1.854 1.854 0 00.213-1.199 1.28 1.28 0 00-.098-.316 1.74 1.74 0 00-.204-.338c-.087-.116-.2-.23-.337-.344h1.57v-1.193h-4.803l-.09 1.187.133.024a8.488 8.488 0 01.584.134c.122.033.253.07.393.11.14.04.281.085.423.134.231.085.426.17.584.255.159.086.288.166.387.24.1.076.171.147.216.214a.33.33 0 01.067.173.756.756 0 01-.204.524c-.136.15-.31.28-.52.39-.211.109-.448.201-.71.276a7.626 7.626 0 01-1.47.274 6.32 6.32 0 01-.499.028c-.203 0-.435-.004-.697-.013a4.438 4.438 0 01-.79-.097 3.022 3.022 0 01-.768-.277 1.705 1.705 0 01-.618-.55c-.255-.39-.383-.898-.383-1.523 0-.986.318-2.262.956-3.828l-1.114-.45c-.637 1.541-.982 2.864-1.035 3.968-.004.101-.006.2-.006.298 0 .889.197 1.621.59 2.198.187.316.427.57.721.764.295.192.615.341.962.447.347.105.71.175 1.087.21.377.034.742.052 1.095.052zM257.597 136c.248 0 .481-.012.7-.037a2.77 2.77 0 00.621-.14 2.05 2.05 0 00.551-.298 2.48 2.48 0 00.496-.517c.187.138.39.273.609.405.219.131.447.243.685.334a2.63 2.63 0 00.983.198c.166 0 .332-.022.499-.067.264-.073.487-.204.67-.392.182-.189.326-.41.432-.664.105-.253.17-.486.194-.697.025-.21.037-.381.037-.511 0-.146-.01-.288-.03-.426a3.683 3.683 0 00-.217-.804 2.506 2.506 0 00-.417-.706 2.058 2.058 0 00-.63-.502 1.812 1.812 0 00-.849-.192c-.268 0-.502.054-.703.162-.2.107-.38.247-.535.42a3.21 3.21 0 00-.42.59c-.124.221-.24.445-.35.673-.126.251-.251.496-.375.733-.124.238-.27.449-.438.633a1.908 1.908 0 01-.612.445c-.24.111-.54.167-.9.167h-.122V136h.121zm4.626-1.266c-.162 0-.344-.04-.547-.122a4.697 4.697 0 01-1.01-.59l.328-.664c.101-.199.192-.371.27-.517.08-.146.155-.268.226-.365a.862.862 0 01.213-.216.408.408 0 01.228-.07c.122 0 .23.024.323.073.093.048.174.11.243.185.07.075.128.159.177.25a1.98 1.98 0 01.189.496c.016.069.026.118.03.146.016.11.024.215.024.317a1.822 1.822 0 01-.113.615 1.035 1.035 0 01-.167.298.389.389 0 01-.2.14.878.878 0 01-.214.024zM257.72 136v-1.193h-.122c-.255 0-.475-.026-.66-.08a.95.95 0 01-.417-.218.507.507 0 01-.161-.314 3.288 3.288 0 01-.022-.386v-3.056a42.483 42.483 0 00-.124-3.208 9.022 9.022 0 00-.095-.76l-1.193.218c.037.191.068.436.095.734.026.298.048.624.067.977.018.353.031.718.04 1.096.007.377.011.74.011 1.09a89.654 89.654 0 010 1.88 184.985 184.985 0 00-.011.837v.174c0 .073.002.155.005.246a2.35 2.35 0 00.216.886c.071.154.174.298.308.432.219.219.486.381.8.487.315.105.695.158 1.141.158h.122zm-7.042 0c.803 0 1.418-.213 1.844-.64.15-.153.269-.322.356-.504a2.934 2.934 0 00.283-1.06c.008-.15.012-.28.012-.389v-.158c0-.134-.003-.29-.009-.469l-.021-.633-.03-.837a129.47 129.47 0 01-.037-1.074 71.078 71.078 0 00-.232-3.39l-1.193.127a55.43 55.43 0 01.213 3.305l.074 1.842c.02.497.03.877.03 1.14v.068c0 .58-.104.976-.31 1.187-.195.195-.522.292-.98.292h-.463V136h.463zm-.22 0v-1.193h-.17a4.062 4.062 0 01-.664-.06 2.172 2.172 0 01-.541-.171 2.384 2.384 0 01-.627-.42 2.84 2.84 0 01-.435-.524c-.12-.186-.22-.38-.299-.578-.079-.199-.15-.396-.216-.59a4.752 4.752 0 00-.441-.929 7.121 7.121 0 00-.657-.907 8.656 8.656 0 00-.834-.852c-.307-.274-.63-.53-.971-.77l4.82-2.033-.456-1.108-5.46 2.35-.164 1.345c.162.126.353.276.572.45a15.393 15.393 0 011.366 1.236c.226.231.423.465.594.7.17.235.298.458.383.667.086.209.128.398.128.569 0 .044-.002.089-.006.134-.024.215-.12.414-.289.596-.168.183-.431.341-.788.475-.272.105-.668.19-1.187.253-.52.062-1.193.112-2.021.149a7.446 7.446 0 01-.78-.012 10.485 10.485 0 01-1.752-.28 7.116 7.116 0 01-.798-.25 3.113 3.113 0 01-.627-.317 1.008 1.008 0 01-.359-.377.927.927 0 01-.091-.42v-.055c.008-.174.043-.355.103-.541.061-.187.14-.37.235-.548.095-.179.194-.34.295-.481l-.962-.718a1.723 1.723 0 00-.07.11l-.128.215a6.37 6.37 0 00-.35.71c-.178.405-.277.712-.295.918a5.821 5.821 0 00-.027.427c0 .247.036.474.11.681.093.272.24.514.44.725.202.21.44.396.716.557.276.16.583.295.922.404.339.11.694.2 1.065.268.372.07.752.119 1.142.15.39.03.775.045 1.156.045.718 0 1.346-.02 1.884-.058a7.414 7.414 0 001.41-.222c.4-.11.746-.264 1.034-.463.288-.198.54-.458.755-.779.36.503.82.882 1.375 1.135a4.443 4.443 0 001.839.387h.121zm-21.596-8.01l.992-.993-.998-.998-.992.992.998.999zM226.39 136c.401-.004.797-.02 1.187-.046s.761-.074 1.116-.143c.356-.069.686-.163.993-.283.306-.12.578-.275.815-.465.238-.191.433-.422.588-.694.154-.272.255-.593.304-.962a4.372 4.372 0 00.018-.986 5.202 5.202 0 00-.185-.959 4.637 4.637 0 00-.356-.876 3.6 3.6 0 00-.5-.722c-.438-.474-.925-.712-1.46-.712-.244 0-.48.06-.707.18a1.86 1.86 0 00-.614.545c-.32.413-.538.929-.652 1.546a3.174 3.174 0 00-.036.456v.104c.008.17.03.322.067.456.036.134.083.253.14.356.057.104.113.192.17.265.106.134.234.253.384.356.15.104.316.19.499.259.182.069.377.12.584.155.207.034.42.052.64.052h.614l-.097.11a1.272 1.272 0 01-.128.121c-.097.081-.25.162-.457.244-.207.08-.46.155-.757.222a9.533 9.533 0 01-1.017.164c-.38.043-.792.064-1.239.064h-.121V136h.207zm3.341-3.323c-.182 0-.377-.005-.584-.013a2.402 2.402 0 01-.49-.079.883.883 0 01-.353-.182.554.554 0 01-.177-.268 1.07 1.07 0 01-.04-.28c0-.07.007-.142.02-.22a2.54 2.54 0 01.154-.547c.067-.158.14-.292.216-.402.077-.11.155-.192.232-.246a.367.367 0 01.2-.083.54.54 0 01.32.107c.1.07.182.143.247.216.207.231.372.521.496.87.124.35.2.72.228 1.114-.134.008-.29.013-.469.013zm-8.613 7.815a11.123 11.123 0 001.492-.9 7.948 7.948 0 001.287-1.142c.375-.416.677-.865.904-1.348.227-.483.34-.99.34-1.522v-.024c.102.11.209.194.32.255a1.475 1.475 0 00.624.183c.09.004.163.006.22.006h.103v-1.193h-.098c-.202 0-.388-.049-.557-.146a1.645 1.645 0 01-.483-.46 4.3 4.3 0 01-.45-.81c-.147-.33-.297-.73-.451-1.201l-1.145.353c.049.15.108.337.177.563.069.225.138.465.207.721.069.256.133.516.192.782.058.266.102.514.13.746a2.272 2.272 0 01-.067.822 3.158 3.158 0 01-.331.785c-.148.251-.33.492-.545.721-.215.23-.45.447-.706.654a8.3 8.3 0 01-.816.582c-.288.18-.578.346-.87.496l.523 1.077zm-5.594-.219a7.348 7.348 0 001.23-.301 7.003 7.003 0 001.147-.505c.363-.201.702-.436 1.017-.704.314-.267.591-.566.83-.894.24-.329.437-.687.591-1.075.154-.387.254-.804.298-1.25a5.636 5.636 0 00.006-1.108 6.03 6.03 0 00-.2-1.066 5.049 5.049 0 00-.38-.958 3.741 3.741 0 00-.546-.789c-.483-.519-1.012-.779-1.588-.779-.26 0-.51.066-.752.198a2.284 2.284 0 00-.673.581c-.17.22-.318.48-.444.783a3.435 3.435 0 00-.24.81 4.237 4.237 0 00-.052.587c0 .162.014.324.042.487.05.308.167.58.353.815.423.524 1.074.812 1.954.865.224.02.423.03.6.03h.69c-.044.304-.169.614-.374.928a3.805 3.805 0 01-.836.892c-.354.28-.778.532-1.273.755a7.854 7.854 0 01-1.68.523l.28 1.175zm3.343-5.479h-.098c-.179 0-.37-.005-.572-.017a3.068 3.068 0 01-.26-.028c-.099-.014-.2-.036-.304-.067a1.43 1.43 0 01-.292-.122.716.716 0 01-.228-.197.57.57 0 01-.125-.29 2.13 2.13 0 01-.021-.27 2.765 2.765 0 01.344-1.272c.083-.143.177-.26.283-.35a.505.505 0 01.335-.138c.073 0 .142.013.207.037a.94.94 0 01.185.094c.06.039.114.082.165.128.05.047.096.09.137.131.101.118.2.257.295.417.095.16.181.34.259.539.077.199.14.414.188.645.049.231.08.477.092.736a7.117 7.117 0 01-.59.024zm-8.584-6.89l.901-.9-.907-.907-.9.9.906.907zm-1.375 1.924l.986-.992-.998-.999-.986.993.998.998zm2.672.006l.986-.986-.998-.998-.986.986.998.998zm.207 6.239c.377 0 .708-.053.992-.158.292-.106.536-.258.73-.457.195-.199.341-.439.439-.721.097-.282.146-.598.146-.947 0-.23-.021-.468-.064-.712a6.734 6.734 0 00-.164-.712 10.708 10.708 0 00-.752-1.899l-1.065.56a10.739 10.739 0 01.514 1.245c.087.257.162.52.225.788s.095.517.095.749c0 .178-.02.339-.061.48a.814.814 0 01-.198.354.668.668 0 01-.31.185 1.37 1.37 0 01-.35.046c-.07 0-.143-.004-.22-.012a.568.568 0 01-.307-.119.741.741 0 01-.2-.256 1.287 1.287 0 01-.11-.359 2.647 2.647 0 01-.034-.429c0-.166.012-.356.037-.569.024-.213.051-.414.082-.603.03-.188.058-.35.082-.484l.03-.194-1.168-.213a14.56 14.56 0 01-.1.587 8.363 8.363 0 01-.165.697c-.067.24-.148.475-.244.706a3.216 3.216 0 01-.334.621c-.128.183-.274.33-.439.444a.956.956 0 01-.557.17.643.643 0 01-.322-.072.545.545 0 01-.201-.195.852.852 0 01-.104-.277c-.02-.104-.03-.21-.03-.32 0-.158.016-.33.049-.514.032-.185.07-.365.115-.542a11.173 11.173 0 01.256-.873l-1.205-.256c-.04.199-.09.41-.146.633a6.81 6.81 0 01-.207.667 4.861 4.861 0 01-.286.636c-.11.203-.239.382-.387.539a1.813 1.813 0 01-.508.377c-.19.095-.406.143-.645.143h-.134V136h.128c.235 0 .451-.02.648-.058a2.366 2.366 0 00.99-.432c.137-.103.267-.22.389-.35.064.15.157.282.276.396.12.113.253.209.4.286a1.989 1.989 0 001.905-.018c.308-.167.584-.392.827-.676.085.13.189.25.31.362.122.112.254.209.396.292.142.083.291.15.448.198.156.049.311.073.465.073h.043zm-13.477-8.76l4.894-2.069-.286-.614-4.565 1.905-.043.779zm1.066 8.687c.17-.008.338-.024.505-.049.166-.024.329-.06.487-.11a2.355 2.355 0 00.883-.493c.215-.198.389-.425.523-.681.183.235.395.454.636.657s.508.357.8.463c.211.069.428.122.649.158.22.037.478.055.77.055h.176v-1.193h-.383a2.083 2.083 0 01-.624-.1 2.045 2.045 0 01-.52-.26 2.233 2.233 0 01-.436-.398 4.106 4.106 0 01-.374-.526c-.154-.26-.298-.518-.432-.773-.134-.256-.27-.51-.405-.761a23.623 23.623 0 00-.426-.755 8.539 8.539 0 00-1.135-1.507 8.372 8.372 0 00-.81-.745l4.827-2.027-.469-1.108-5.38 2.32-.159 1.344a10.538 10.538 0 011.239 1.142c.213.229.417.47.612.724.194.254.365.51.51.77.147.26.256.503.327.73a2.1 2.1 0 01.106.621c0 .049-.002.098-.006.146a.956.956 0 01-.15.43c-.086.14-.196.264-.328.374-.132.11-.28.197-.444.262a1.326 1.326 0 01-.49.097h-2.125V136h2.046zm-1.802 0v-1.193h-.122c-.255 0-.476-.026-.66-.08a.95.95 0 01-.417-.218.507.507 0 01-.162-.314 3.288 3.288 0 01-.02-.386v-3.056a42.484 42.484 0 00-.126-3.208 9.023 9.023 0 00-.094-.76l-1.193.218c.037.191.068.436.094.734.027.298.049.624.067.977.019.353.032.718.04 1.096.008.377.012.74.012 1.09a89.656 89.656 0 010 1.88 184.965 184.965 0 00-.012.907c0 .097.002.214.006.35a2.35 2.35 0 00.216.886c.071.154.174.298.307.432.22.219.486.381.8.487.315.105.696.158 1.142.158h.122zm-6.994 0c.073 0 .163-.003.27-.01.108-.005.223-.02.345-.042.122-.022.25-.052.383-.091.134-.039.266-.09.396-.155.357-.175.628-.416.813-.725.184-.308.276-.671.276-1.09 0-.417-.121-.872-.365-1.363-.243-.49-.615-1.02-1.114-1.588a12.198 12.198 0 00-.511-.539 18.559 18.559 0 00-.447-.43 11.027 11.027 0 00-.32-.285 1.231 1.231 0 01-.128-.116l-.767.931a.92.92 0 00.11.098c.073.06.17.146.292.255a8.658 8.658 0 00-.712.743c-.662.795-.992 1.56-.992 2.295 0 .418.1.78.298 1.086.199.307.493.551.883.734.15.073.298.13.444.17.146.04.279.07.399.089a2.466 2.466 0 00.447.033zm.045-1.212h-.078c-.025 0-.057-.003-.095-.005a2.482 2.482 0 01-.414-.076 1.455 1.455 0 01-.237-.089.936.936 0 01-.262-.164.759.759 0 01-.149-.186.585.585 0 01-.067-.191 1.222 1.222 0 01-.015-.19c0-.206.048-.415.143-.626.095-.211.212-.414.35-.609.138-.195.285-.373.441-.535.156-.163.293-.297.411-.402.394.426.694.828.9 1.205.208.377.311.7.311.968a.885.885 0 01-.1.447.803.803 0 01-.326.295 1.236 1.236 0 01-.243.086c-.085.02-.167.036-.244.048-.077.013-.148.02-.213.022a5.281 5.281 0 01-.158.003h.045zm-11.988 5.57c.341-.166.677-.354 1.008-.563.33-.209.645-.437.943-.685.299-.247.574-.51.828-.79s.473-.575.657-.883c.185-.309.33-.628.433-.96.103-.33.155-.672.155-1.025 0-.178-.014-.361-.043-.548a8.704 8.704 0 00-.106-.569c-.043-.193-.09-.387-.14-.584l-.15-.588a9.052 9.052 0 00-.152-.556 65.409 65.409 0 01-.17-.564l-1.157.366c.11.34.214.681.31 1.022l.14.512c.05.174.094.349.135.523.04.175.074.345.1.511.027.167.04.325.04.475 0 .394-.096.775-.286 1.145a4.51 4.51 0 01-.758 1.046 6.964 6.964 0 01-1.074.91 9.912 9.912 0 01-1.242.734l.53 1.071zm-.681-4.303a28.5 28.5 0 00.1-1.905c.01-.597.015-1.074.015-1.43 0-.593-.006-1.226-.018-1.9a55.636 55.636 0 00-.31-4.431l-1.193.182c.138 1.279.247 2.902.328 4.87.012.337.019.694.019 1.071 0 .313-.005.64-.013.98-.02.755-.063 1.587-.127 2.496l1.199.067zm-7.5 0a28.5 28.5 0 00.101-1.905c.01-.597.015-1.074.015-1.43 0-.593-.006-1.226-.018-1.9a55.636 55.636 0 00-.31-4.431l-1.194.182c.138 1.279.248 2.902.33 4.87.011.337.017.694.017 1.071 0 .313-.004.64-.012.98-.02.755-.063 1.587-.128 2.496l1.2.067zm-5.41-6.708l.991-.992-.998-.998-.992.992.998.998zm-2.66 6.775c.32 0 .666-.011 1.037-.034.371-.022.743-.07 1.114-.143.371-.073.73-.175 1.074-.307.345-.132.653-.309.922-.53.27-.22.49-.492.66-.812.171-.32.265-.704.28-1.15v-.116a2.43 2.43 0 00-.096-.694 2.307 2.307 0 00-.883-1.2 2.728 2.728 0 00-.676-.346 2.371 2.371 0 00-.602-.143 3.086 3.086 0 00-.998.064 5.124 5.124 0 00-1.385.523c-.42.235-.803.516-1.148.843a6.744 6.744 0 00-.931 1.096c-.276.403-.52.828-.73 1.275a1.79 1.79 0 01-.274-.597 2.575 2.575 0 01-.073-.602v-.043c0-.21.02-.416.06-.615.041-.199.086-.381.134-.548l-1.15-.346a4.969 4.969 0 00-.134.48c-.037.163-.071.331-.104.506-.064.308-.131.594-.2.858a2.023 2.023 0 01-.317.688c-.045.06-.102.124-.173.191a1.121 1.121 0 01-.283.186 2.033 2.033 0 01-.433.143c-.17.039-.375.058-.614.058h-.14V136h.176c.56-.004 1.038-.09 1.434-.256a2.26 2.26 0 00.977-.785c.223.288.452.51.687.667.236.156.491.27.767.344.276.073.58.116.91.13.331.015.701.022 1.111.022zm0-1.23h-.269c-.36-.008-.675-.02-.943-.036.223-.406.452-.774.688-1.105.235-.33.484-.621.745-.87a4.19 4.19 0 01.843-.628c.3-.168.625-.29.974-.368a1.838 1.838 0 011.169.13 1.135 1.135 0 01.587.578c.063.137.095.295.095.473v.024c0 .313-.085.577-.256.792-.174.219-.406.397-.694.535a3.964 3.964 0 01-.983.31 8.504 8.504 0 01-1.047.135c-.33.02-.634.03-.91.03zm-5.82 1.108v-1.193h-.122c-.255 0-.475-.026-.66-.08a.95.95 0 01-.417-.218.507.507 0 01-.161-.314 3.288 3.288 0 01-.022-.386v-3.056a42.483 42.483 0 00-.124-3.208 9.023 9.023 0 00-.095-.76l-1.193.218c.037.191.068.436.095.734.026.298.048.624.066.977.019.353.032.718.04 1.096.008.377.012.74.012 1.09a89.654 89.654 0 010 1.88 184.934 184.934 0 00-.011.837v.174c0 .073.002.155.005.246a2.35 2.35 0 00.216.886c.071.154.174.298.308.432.219.219.486.381.8.487.315.105.695.158 1.141.158h.122zm-7.036-8.01l.992-.993-.999-.998-.992.992.999.999zm-2.472 8.01c.402-.004.798-.02 1.187-.046.39-.026.762-.074 1.117-.143.355-.069.686-.163.992-.283.307-.12.579-.275.816-.465.237-.191.433-.422.587-.694.155-.272.256-.593.305-.962a4.372 4.372 0 00.018-.986 5.202 5.202 0 00-.186-.959 4.637 4.637 0 00-.356-.876 3.6 3.6 0 00-.499-.722c-.438-.474-.925-.712-1.46-.712-.244 0-.48.06-.707.18a1.86 1.86 0 00-.615.545c-.32.413-.537.929-.65 1.546a3.174 3.174 0 00-.037.456v.104c.008.17.03.322.067.456.036.134.083.253.14.356.056.104.113.192.17.265.105.134.233.253.383.356.15.104.317.19.5.259.182.069.377.12.584.155.207.034.42.052.639.052h.615l-.098.11a1.272 1.272 0 01-.127.121c-.098.081-.25.162-.457.244-.207.08-.46.155-.758.222a9.533 9.533 0 01-1.016.164c-.38.043-.793.064-1.239.064h-.122V136h.207zm3.342-3.323c-.183 0-.377-.005-.584-.013a2.402 2.402 0 01-.49-.079.883.883 0 01-.353-.182.554.554 0 01-.177-.268 1.07 1.07 0 01-.04-.28c0-.07.007-.142.019-.22a2.54 2.54 0 01.155-.547c.067-.158.139-.292.216-.402.077-.11.154-.192.231-.246a.367.367 0 01.201-.083.54.54 0 01.32.107c.1.07.181.143.246.216.207.231.373.521.496.87.124.35.2.72.229 1.114-.134.008-.29.013-.469.013zM147.089 136v-1.193h-.122c-.284 0-.507-.04-.67-.119-.162-.079-.292-.228-.39-.447a1.22 1.22 0 01-.054-.161 5.954 5.954 0 01-.097-.423c-.04-.2-.088-.465-.14-.798a39.793 39.793 0 01-.296-2.395 1137.507 1137.507 0 00-.118-1.13v.007l-1.193.25.021.222.07.678a9.92 9.92 0 00-.402.156c-.154.062-.317.14-.49.23a7.063 7.063 0 00-.535.317c-.185.12-.364.256-.536.408a4.062 4.062 0 00-.487.515c-.152.19-.283.4-.393.626a1.37 1.37 0 00-.085.299c-.02.113-.03.225-.03.335v.11c.004.15.03.303.076.462.046.158.127.304.24.438.41.507 1.139.76 2.185.76.2 0 .407-.008.624-.027.217-.018.454-.047.71-.088.215.345.482.593.803.743.211.097.423.16.636.185.213.027.397.04.551.04h.122zm-3.407-2.034l-.069.001c-.142 0-.282-.008-.42-.024a1.892 1.892 0 01-.447-.095.828.828 0 01-.323-.198.443.443 0 01-.125-.322.74.74 0 01.104-.375c.069-.12.159-.232.27-.337.112-.106.238-.203.378-.293.14-.089.282-.171.426-.246.144-.075.283-.142.417-.2.134-.06.25-.11.347-.15.065.52.123.95.173 1.29.051.341.1.63.15.865-.106.02-.235.038-.387.055a4.564 4.564 0 01-.494.03zM131.84 136c.21 0 .387-.014.53-.043.86-.158 1.47-.558 1.832-1.199.085-.154.159-.324.222-.511s.101-.354.115-.502c.015-.148.022-.265.022-.35 0-.146-.012-.3-.037-.463a3.644 3.644 0 00-.219-.791 5.116 5.116 0 00-.463-.886 7.535 7.535 0 00-.76-.977 9.489 9.489 0 00-.7-.7 39.169 39.169 0 00-.652-.572l4.359-1.832-.47-1.108-5.003 2.143-.14 1.248a15.432 15.432 0 011.85 1.768c.26.294.479.57.655.828.177.257.287.47.332.636.057.219.085.424.085.614a1.496 1.496 0 01-.243.828c-.114.17-.27.302-.469.393a2.705 2.705 0 01-.657.2c-.24.043-.491.068-.755.074-.264.006-.518.009-.761.009h-.761V136h2.088zm-4.444-5.612l.993-.992-.999-.999-.992.993.998.998zm-1.71 5.612c.596 0 1.098-.062 1.503-.186.406-.123.737-.313.993-.569.174.223.397.405.67.545.271.14.612.21 1.022.21h.122v-1.193h-.122a.86.86 0 01-.508-.14.999.999 0 01-.31-.353 1.667 1.667 0 01-.162-.463 4.299 4.299 0 01-.067-.474 18.67 18.67 0 00-.11-1.054 5.718 5.718 0 00-.176-.827l-1.145.322c.09.309.152.583.186.822.035.24.052.475.052.706 0 .483-.154.847-.463 1.093-.308.245-.803.368-1.485.368h-.225V136h.225zm-4.504 0c.381 0 .713-.015.995-.046.282-.03.528-.077.74-.14a2.273 2.273 0 00.973-.569c.175.223.398.405.67.545s.613.21 1.022.21h.122v-1.193h-.122a.86.86 0 01-.508-.14.999.999 0 01-.31-.353 1.667 1.667 0 01-.162-.463 4.299 4.299 0 01-.066-.474 18.669 18.669 0 00-.11-1.054 5.718 5.718 0 00-.177-.827l-1.144.322c.09.309.151.583.186.822.034.24.051.475.051.706 0 .244-.04.457-.121.64a1.1 1.1 0 01-.38.456 1.85 1.85 0 01-.67.274c-.274.06-.604.091-.99.091h-.906V136h.907zm.225 2.977l.986-.987-.998-.998-.986.992.998.993zm2.495.012l.987-.992-.999-.993-.986.986.998.999zM120.52 136v-1.193h-.122c-.243 0-.444-.031-.602-.094a1.088 1.088 0 01-.396-.262 1.536 1.536 0 01-.27-.408 13.54 13.54 0 01-.235-.533 88.25 88.25 0 01-.447-1.062 3412.498 3412.498 0 01-1.416-3.436l-1.108.463 1.924 4.626a2.31 2.31 0 01-.81.511c-.219.085-.404.135-.557.15a4.04 4.04 0 01-.343.02c-.163 0-.325-.018-.487-.054a2.792 2.792 0 01-.737-.28 3.6 3.6 0 01-.736-.542l-.688.968c.345.357.721.634 1.129.83a3.02 3.02 0 001.33.296c.288 0 .548-.017.779-.052.231-.034.445-.085.642-.152.197-.067.382-.151.554-.253.173-.101.344-.219.514-.353a2.1 2.1 0 00.305.314c.117.1.254.186.41.259.157.073.337.13.542.173.205.043.44.064.703.064h.122zm-9.873 0c.26 0 .465-.073.615-.22a.725.725 0 00.207-.535c0-.235-.07-.424-.207-.566-.146-.15-.351-.225-.615-.225-.26 0-.46.075-.603.225-.133.142-.2.33-.2.566 0 .223.067.402.2.536.143.146.343.219.603.219z"/></g><g mask="url(#e)"><g transform="translate(16 161.5)"><rect width="342" height="39" x=".5" y=".5" stroke="#000000" stroke-opacity=".48" rx="4"/><path fill="#000000" fill-opacity=".32" fill-rule="nonzero" d="M322.638 24c.38 0 .748-.026 1.103-.077.355-.05.68-.139.977-.264.297-.125.56-.292.79-.5.23-.21.414-.471.553-.787.139-.32.209-.69.209-1.113 0-.074-.003-.148-.007-.222-.033-.515-.153-1.109-.362-1.781a9.034 9.034 0 00-.223-.644 14.061 14.061 0 00-.382-.897 1.713 1.713 0 01-.063-.143l-1.238.612.605 1.489c.097.237.172.463.223.678.05.216.08.385.09.508.01.123.014.215.014.275 0 .111-.007.216-.02.313a1.35 1.35 0 01-.105.369 1.089 1.089 0 01-.39.455c-.167.11-.36.192-.577.247-.218.056-.455.09-.71.101-.255.012-.517.018-.786.018h-1.342V24h1.641zm-.348 3.402l1.127-1.127-1.14-1.141-1.127 1.134 1.14 1.134zm2.853.014l1.127-1.134-1.141-1.134-1.127 1.127 1.14 1.14zM321.275 24v-1.363h-.195a4.643 4.643 0 01-.758-.07 2.482 2.482 0 01-.62-.195 2.725 2.725 0 01-.716-.48 3.246 3.246 0 01-.497-.598 3.881 3.881 0 01-.341-.661 12.61 12.61 0 01-.247-.675 5.431 5.431 0 00-.504-1.06 8.138 8.138 0 00-.752-1.037 9.893 9.893 0 00-.953-.974c-.35-.313-.72-.606-1.11-.88l5.51-2.324-.522-1.266-6.24 2.686-.187 1.537c.185.144.403.315.654.515a17.592 17.592 0 011.561 1.412c.258.264.484.531.679.8.194.269.34.523.438.762.097.239.146.455.146.65 0 .051-.002.102-.007.153a1.193 1.193 0 01-.33.682c-.193.209-.493.39-.901.543-.311.12-.763.216-1.357.288-.594.072-1.363.129-2.31.17a8.51 8.51 0 01-.89-.014 11.983 11.983 0 01-2.003-.32 8.132 8.132 0 01-.912-.284 3.558 3.558 0 01-.716-.362c-.2-.135-.336-.278-.41-.432a1.06 1.06 0 01-.105-.48v-.062c.01-.2.049-.406.118-.62.07-.213.16-.421.268-.625a4.99 4.99 0 01.337-.55l-1.099-.82c-.014.018-.04.06-.08.124-.04.065-.088.148-.146.247a7.279 7.279 0 00-.4.81c-.204.465-.316.815-.337 1.051-.021.237-.031.4-.031.487 0 .283.041.543.125.78.106.31.275.586.504.827.23.241.502.454.818.637.315.183.666.337 1.053.462a9.73 9.73 0 001.218.306c.424.08.859.136 1.304.17.445.036.886.053 1.322.053.82 0 1.538-.022 2.153-.066a8.473 8.473 0 001.61-.254c.46-.125.854-.301 1.183-.529.33-.227.617-.524.863-.89a3.897 3.897 0 001.572 1.297c.635.29 1.335.437 2.1.442h.14zm-29.225 0c.283 0 .55-.014.8-.042.25-.028.487-.08.71-.16.223-.079.432-.192.63-.34.197-.149.386-.346.567-.592.213.158.445.312.695.463.25.15.511.278.783.382a3.005 3.005 0 001.123.226c.19 0 .38-.025.57-.076a1.66 1.66 0 00.766-.449c.209-.215.373-.468.494-.758.12-.29.195-.555.222-.797.028-.24.042-.436.042-.584 0-.167-.011-.33-.035-.487a4.21 4.21 0 00-.247-.918 2.864 2.864 0 00-.476-.807c-.2-.237-.44-.428-.72-.574a2.071 2.071 0 00-.97-.22c-.307 0-.574.062-.804.185-.23.123-.434.283-.612.48a3.668 3.668 0 00-.48.675c-.142.253-.275.509-.4.769-.144.287-.287.567-.428.838a3.398 3.398 0 01-.5.723c-.193.211-.426.38-.7.508-.274.128-.617.192-1.03.192h-.139V24h.14zm5.287-1.447c-.185 0-.394-.046-.626-.14-.348-.138-.732-.363-1.154-.674l.375-.758c.116-.227.22-.424.31-.591a3.74 3.74 0 01.257-.418.985.985 0 01.244-.247.466.466 0 01.26-.08c.14 0 .263.028.37.084.106.055.199.126.277.212.08.086.147.18.202.285a2.264 2.264 0 01.216.567c.018.079.03.135.035.167.018.125.027.246.027.362a2.082 2.082 0 01-.129.703c-.053.138-.116.252-.19.34a.444.444 0 01-.23.16 1.003 1.003 0 01-.244.028zm-11.68 6.33a8.524 8.524 0 001.966-.556 7.19 7.19 0 001.725-1.016 6.198 6.198 0 001.322-1.45 5.255 5.255 0 00.754-1.861h.766v-1.363h-.661a6.622 6.622 0 00-.376-2.02 5.342 5.342 0 00-.403-.881 4.395 4.395 0 00-.53-.738c-.551-.593-1.156-.89-1.815-.89a1.77 1.77 0 00-.859.226 2.61 2.61 0 00-.769.664c-.194.25-.364.549-.507.894a3.926 3.926 0 00-.275.925c-.04.272-.06.495-.06.672 0 .185.017.37.05.556.055.353.19.663.403.932.482.599 1.226.928 2.233.988.255.023.483.035.685.035h.79c-.051.348-.194.701-.428 1.06-.234.36-.553.7-.957 1.02-.403.32-.888.608-1.454.863a8.976 8.976 0 01-1.92.598l.32 1.342zm3.755-6.26h-.047c-.204 0-.422-.007-.654-.021a3.506 3.506 0 01-.295-.032 2.472 2.472 0 01-.348-.076 1.635 1.635 0 01-.334-.14.819.819 0 01-.261-.225.651.651 0 01-.143-.33 2.434 2.434 0 01-.024-.31 3.16 3.16 0 01.153-.908c.065-.202.145-.384.24-.546.095-.163.203-.296.324-.4a.577.577 0 01.382-.157c.084 0 .163.014.237.042.074.028.145.064.212.108s.13.093.188.146c.058.053.11.103.156.15.116.134.229.293.338.476.109.183.207.388.295.616.088.227.16.473.216.737.056.264.09.545.104.842-.18.014-.344.022-.49.024l-.296.004h.047zm-10.05 6.358c.39-.19.773-.405 1.151-.644.378-.238.737-.5 1.078-.782a9.21 9.21 0 00.946-.905c.29-.32.54-.656.752-1.008.21-.353.375-.718.494-1.096.118-.378.177-.769.177-1.172 0-.204-.016-.413-.049-.626a9.947 9.947 0 00-.121-.65c-.05-.22-.102-.444-.16-.668a95.398 95.398 0 01-.17-.672 10.345 10.345 0 00-.175-.636c-.065-.211-.13-.426-.195-.644l-1.321.418c.125.39.243.779.354 1.168l.16.585c.056.2.107.399.154.598.046.2.084.394.114.584.03.19.046.371.046.543 0 .45-.11.886-.327 1.308-.218.422-.507.82-.867 1.196-.359.376-.768.723-1.227 1.04-.46.318-.933.597-1.42.839l.606 1.224zm-3.757-4.988c.278 0 .558-.02.838-.063.281-.041.551-.109.81-.201.26-.093.503-.212.728-.359.225-.146.42-.32.588-.525a1.685 1.685 0 00.362-.737c.037-.162.056-.348.059-.557a3.214 3.214 0 00-.08-.702 5.056 5.056 0 00-.317-.908 7.36 7.36 0 00-.508-.932 9.21 9.21 0 00-1.408-1.708 7.958 7.958 0 00-.81-.675 4.88 4.88 0 00-.825-.487l-.564 1.266c.209.093.422.218.64.376.218.158.433.338.644.542.21.205.414.424.608.658.195.234.373.475.533.723.16.248.296.497.41.745.114.248.196.485.247.713.037.167.056.31.056.431 0 .167-.035.292-.105.376-.157.19-.352.331-.584.424-.232.093-.44.147-.626.164a3.996 3.996 0 01-.96-.01 5.912 5.912 0 01-1.621-.443 4.229 4.229 0 01-.62-.323l-.57 1.308c.116.106.3.213.55.32a8.429 8.429 0 001.736.504c.303.053.567.08.79.08zm-14.066 4.988c.39-.19.773-.405 1.151-.644.378-.238.738-.5 1.079-.782a9.21 9.21 0 00.946-.905c.29-.32.54-.656.751-1.008.211-.353.376-.718.494-1.096.118-.378.177-.769.177-1.172 0-.204-.016-.413-.048-.626a9.948 9.948 0 00-.122-.65 19.8 19.8 0 00-.16-.668 95.343 95.343 0 01-.17-.672 10.346 10.346 0 00-.174-.636c-.065-.211-.13-.426-.195-.644l-1.322.418c.125.39.244.779.355 1.168.05.19.104.385.16.585.056.2.107.399.153.598.046.2.085.394.115.584.03.19.045.371.045.543 0 .45-.11.886-.327 1.308-.218.422-.507.82-.866 1.196-.36.376-.769.723-1.228 1.04-.46.318-.932.597-1.42.839l.606 1.224zm-.779-4.918c.065-.77.103-1.496.115-2.178.011-.682.017-1.226.017-1.635 0-.677-.007-1.4-.02-2.17a63.584 63.584 0 00-.355-5.064l-1.364.208c.158 1.461.283 3.316.376 5.566.014.384.02.793.02 1.224 0 .357-.004.73-.013 1.12a64.7 64.7 0 01-.146 2.852l1.37.077zm-8.57 0c.064-.77.103-1.496.114-2.178.012-.682.018-1.226.018-1.635 0-.677-.007-1.4-.021-2.17a63.584 63.584 0 00-.355-5.064l-1.363.208c.157 1.461.283 3.316.375 5.566.014.384.021.793.021 1.224 0 .357-.005.73-.014 1.12a64.7 64.7 0 01-.146 2.852l1.37.077zm-5.552-7.653l1.134-1.133-1.14-1.141-1.135 1.134 1.141 1.14zM245.525 24c.38 0 .734-.026 1.061-.077.327-.05.623-.139.887-.264s.497-.292.7-.5c.2-.21.371-.471.51-.787.14-.32.21-.69.21-1.113 0-.074-.003-.148-.008-.222-.032-.515-.153-1.109-.362-1.781a9.033 9.033 0 00-.222-.644 14.061 14.061 0 00-.383-.897 1.713 1.713 0 01-.062-.143l-1.239.612.606 1.489c.097.237.171.463.222.678.051.216.081.385.09.508.01.123.015.215.015.275 0 .111-.007.216-.021.313a1.35 1.35 0 01-.105.369 1.245 1.245 0 01-.347.455c-.14.11-.302.192-.487.247-.186.056-.392.09-.62.101-.227.012-.475.018-.744.018h-.807V24h1.106zm-5.21-6.588l1.127-1.127-1.141-1.14-1.127 1.133 1.14 1.134zm2.852.014l1.127-1.134-1.141-1.134-1.127 1.127 1.141 1.141zM239.529 24c.436 0 .815-.017 1.137-.052.322-.035.604-.088.845-.16a2.598 2.598 0 001.113-.65c.2.254.455.462.766.622.31.16.7.24 1.168.24h.14v-1.363h-.14c-.236 0-.43-.054-.58-.16a1.141 1.141 0 01-.355-.404 1.905 1.905 0 01-.185-.529 4.913 4.913 0 01-.076-.542 21.339 21.339 0 00-.125-1.204 6.535 6.535 0 00-.202-.946l-1.308.369c.102.352.173.665.212.939.04.274.06.543.06.807 0 .278-.047.522-.14.73a1.256 1.256 0 01-.435.522c-.197.14-.452.244-.765.313-.313.07-.69.105-1.13.105h-1.037V24h1.037zm-8.689-7.687l1.134-1.134-1.141-1.14-1.134 1.133 1.141 1.141zM227.897 24c.724 0 1.408-.054 2.053-.163a14.231 14.231 0 001.833-.432c.577-.178 1.125-.38 1.645-.605.52-.225 1.018-.456 1.495-.692.116.297.29.562.519.796.23.235.503.433.82.595.318.162.677.287 1.075.372.4.086.828.129 1.287.129h.146v-1.363h-.146c-.083 0-.194-.004-.334-.01a4.04 4.04 0 01-.459-.053 4.861 4.861 0 01-.511-.115 2.302 2.302 0 01-.494-.202 1.718 1.718 0 01-.41-.313 1.06 1.06 0 01-.254-.448c.213-.107.424-.207.633-.3l.633-.278-.265-1.321c-.287 0-.572-.03-.855-.09a6.842 6.842 0 01-.849-.24 11.25 11.25 0 01-.845-.338 39.2 39.2 0 01-.831-.383c-.25-.116-.499-.23-.745-.34a10.13 10.13 0 00-.723-.296 5.637 5.637 0 00-.7-.206 3.12 3.12 0 00-.678-.076c-.45 0-.877.109-1.283.327-.406.218-.79.545-1.151.98a4.719 4.719 0 00-.33.439c-.096.144-.177.271-.244.383a3.542 3.542 0 00-.212.396l1.252.564a3.686 3.686 0 01.257-.456c.084-.128.183-.264.3-.41.115-.147.246-.283.392-.411.146-.128.305-.233.477-.317.171-.083.352-.125.542-.125.144 0 .302.022.473.066.172.044.354.104.547.178.192.074.391.159.598.254l.636.295c.283.135.57.267.863.397.292.13.598.25.918.362a57.07 57.07 0 01-1.607.772c-.542.25-1.102.473-1.68.668a13.45 13.45 0 01-1.805.47 10.67 10.67 0 01-1.983.177h-1.001V24h1.001zm-.723 0v-1.363h-.14a2.77 2.77 0 01-.754-.09c-.211-.061-.37-.145-.477-.251a.58.58 0 01-.184-.359 3.758 3.758 0 01-.024-.441v-3.493a48.55 48.55 0 00-.066-2.546 31.39 31.39 0 00-.077-1.12c-.03-.343-.066-.633-.108-.87l-1.363.251c.042.218.078.498.108.839.03.34.055.713.076 1.116.021.404.036.82.045 1.252.01.432.014.847.014 1.245.005.409.007.796.007 1.162 0 .371-.002.7-.007.988a211.355 211.355 0 00-.013.957v.08c0 .11.002.244.006.4a2.686 2.686 0 00.247 1.012c.082.176.199.34.352.494.25.25.555.436.914.556.36.12.795.181 1.305.181h.139zm-11.444 0c.265 0 .543-.012.835-.035.339-.023.684-.06 1.037-.111a14.996 14.996 0 002.059-.449c.32-.095.619-.2.897-.316.279-.116.522-.24.73-.369.219-.14.387-.277.505-.414a1.11 1.11 0 00.237-.407 1.383 1.383 0 00.052-.542 4.954 4.954 0 00-.112-.634 6.504 6.504 0 00-.344-1.053 12.893 12.893 0 00-.435-.933c-.143-.276-.27-.5-.379-.674a8.81 8.81 0 01-.177-.29l-1.155.752a8.292 8.292 0 01.33.525c.09.156.19.334.296.536.107.202.208.414.303.637.095.222.178.448.25.678.072.23.117.449.136.657-.39.218-.81.396-1.263.532-.452.137-.908.245-1.367.324-.459.079-.909.133-1.35.163-.44.03-.843.046-1.21.046-1.298-.005-2.353-.13-3.165-.373-.812-.243-1.331-.592-1.558-1.047a1.365 1.365 0 01-.14-.619c0-.255.056-.535.168-.841a2.686 2.686 0 01.208-.477 5.521 5.521 0 01.244-.4l-1.106-.82c-.01.013-.035.051-.077.114a5.562 5.562 0 00-.344.609c-.067.139-.134.292-.198.459-.181.478-.272.937-.272 1.377 0 .44.098.849.292 1.225.344.69.993 1.222 1.948 1.593 1.007.37 2.34.563 4 .577h.125zm-.153 3.624l1.134-1.134-1.14-1.14-1.134 1.133 1.14 1.141zM198.98 24c.241 0 .443-.016.605-.049.984-.18 1.682-.637 2.094-1.37.098-.176.182-.371.254-.584.072-.214.116-.405.132-.574.017-.17.025-.303.025-.4a3.57 3.57 0 00-.042-.53 4.165 4.165 0 00-.25-.903 5.846 5.846 0 00-.53-1.013 8.611 8.611 0 00-.869-1.116 10.845 10.845 0 00-.8-.8c-.269-.241-.517-.46-.744-.654l4.98-2.094-.535-1.266-5.718 2.449-.16 1.426a17.637 17.637 0 012.115 2.02c.296.337.546.652.747.947.202.294.329.537.38.727.065.25.097.484.097.702a1.71 1.71 0 01-.278.946c-.13.195-.309.345-.536.449-.227.104-.478.18-.751.23a5.667 5.667 0 01-.863.083c-.301.007-.591.01-.87.01h-.869V24h2.386zm-5.078-6.414l1.134-1.134-1.141-1.14-1.134 1.133 1.14 1.141zM191.946 24c.682 0 1.255-.07 1.718-.212.464-.142.842-.358 1.134-.65.2.254.455.462.765.622.311.16.7.24 1.17.24h.138v-1.363h-.139c-.236 0-.43-.054-.58-.16a1.141 1.141 0 01-.355-.404 1.905 1.905 0 01-.185-.529 4.913 4.913 0 01-.076-.542 21.339 21.339 0 00-.126-1.204 6.535 6.535 0 00-.201-.946l-1.308.369c.102.352.173.665.212.939.04.274.06.543.06.807 0 .552-.177.968-.53 1.249-.352.28-.918.42-1.697.42h-.257V24h.257zm-5.148 0c.436 0 .815-.017 1.138-.052.322-.035.604-.088.845-.16a2.598 2.598 0 001.113-.65c.2.254.454.462.765.622.31.16.7.24 1.169.24h.139v-1.363h-.14c-.236 0-.43-.054-.58-.16a1.141 1.141 0 01-.355-.404 1.905 1.905 0 01-.184-.529 4.913 4.913 0 01-.077-.542 21.336 21.336 0 00-.125-1.204 6.535 6.535 0 00-.202-.946l-1.307.369c.102.352.172.665.212.939.04.274.059.543.059.807 0 .278-.047.522-.14.73a1.256 1.256 0 01-.434.522c-.197.14-.452.244-.765.313-.313.07-.69.105-1.13.105h-1.037V24h1.036zm.258 3.402l1.127-1.127-1.141-1.141-1.127 1.134 1.14 1.134zm2.852.014l1.127-1.134-1.141-1.134-1.127 1.127 1.14 1.14zM186.04 24v-1.363h-.14c-.277 0-.507-.036-.688-.108a1.244 1.244 0 01-.452-.3 1.755 1.755 0 01-.31-.466 15.474 15.474 0 01-.267-.608c-.181-.422-.352-.827-.512-1.214a3908.51 3908.51 0 01-1.617-3.927l-1.266.529 2.198 5.287a2.64 2.64 0 01-.925.584c-.25.097-.463.154-.637.17a4.617 4.617 0 01-.393.025c-.185 0-.37-.021-.556-.063a3.191 3.191 0 01-.842-.32 4.114 4.114 0 01-.842-.619l-.786 1.106c.394.408.825.725 1.29.95a3.45 3.45 0 001.52.337c.33 0 .627-.02.891-.06a4.2 4.2 0 00.734-.173c.225-.077.436-.173.633-.289.197-.116.393-.25.588-.403a2.4 2.4 0 00.348.358c.134.114.29.212.47.296.178.083.384.15.618.198.235.049.502.073.804.073h.139z"/><path fill="#000000" fill-opacity=".56" d="M14.707 22.7a1.003 1.003 0 001.419 0L20 18.824l3.874 3.874a1.003 1.003 0 101.419-1.419l-4.583-4.584a1.001 1.001 0 00-1.42 0l-4.583 4.584a1.001 1.001 0 000 1.42"/></g></g><g mask="url(#e)"><use fill="#000" filter="url(#h)" xlink:href="#i"/><use fill="#FFF" fill-opacity=".98" xlink:href="#i"/></g><g fill="#000000" mask="url(#e)"><path fill-opacity=".87" fill-rule="nonzero" d="M356.42 27.448l.949-.95-.956-.955-.95.95.956.955zm-1.151 1.838l1.034-1.035-1.046-1.047-1.035 1.041 1.047 1.041zm2.3.012l1.035-1.04-1.047-1.041-1.034 1.034 1.047 1.047zm-2.538 6.885c.459 0 .89-.047 1.294-.14a3.12 3.12 0 001.059-.448c.302-.205.54-.472.715-.8.175-.329.262-.729.262-1.2 0-.263-.024-.533-.073-.809a7.945 7.945 0 00-.192-.825c-.079-.274-.17-.54-.27-.8-.102-.26-.204-.505-.305-.737l-1.406.694a10.056 10.056 0 01.749 2.045c.044.191.066.34.066.445 0 .223-.061.402-.185.535-.124.134-.28.237-.469.308a2.432 2.432 0 01-.615.14 6.178 6.178 0 01-.618.033h-1.296v1.559h1.284zm-5.35 0c.572 0 1.058-.055 1.458-.165.4-.11.74-.28 1.02-.511.19.199.424.361.702.487.278.126.614.189 1.008.189h.121v-1.559h-.121a.626.626 0 01-.405-.124.905.905 0 01-.247-.31 1.525 1.525 0 01-.13-.409 5.105 5.105 0 01-.058-.417 43.994 43.994 0 00-.046-.563 6.527 6.527 0 00-.134-.87c-.03-.14-.072-.3-.125-.478l-1.497.42c.105.361.187.663.243.904.057.241.086.431.086.57 0 .425-.158.745-.472.958-.315.213-.782.32-1.403.32h-.225v1.558h.225zm1.942 3.147l1.168-1.17-1.168-1.162-1.163 1.163 1.163 1.169zm-10.525-8.297l1.035-1.035-1.047-1.047-1.035 1.041 1.047 1.041zm2.301.012l1.035-1.04-1.047-1.042-1.035 1.035 1.047 1.047zm-1.662 5.156c2.224 0 3.894-.515 5.01-1.546.134.272.288.504.463.697.174.192.373.35.596.475.223.123.472.214.746.27.274.057.579.086.916.086h.231v-1.559h-.219c-.296 0-.547-.038-.752-.115a1.272 1.272 0 01-.496-.32 1.236 1.236 0 01-.274-.475 1.54 1.54 0 01-.085-.438v-.198c0-.19.02-.387.06-.59.046-.223.106-.442.184-.658l-1.4-.377c-.057.195-.11.398-.159.609a5.28 5.28 0 01-.182.618c-.073.2-.165.392-.274.575-.11.182-.254.343-.432.48-.195.163-.429.3-.7.412a5.286 5.286 0 01-.91.273 8.745 8.745 0 01-1.087.156c-.39.032-.801.048-1.236.048-.478 0-.925-.02-1.339-.06a7.384 7.384 0 01-1.117-.19 3.352 3.352 0 01-.843-.328 1.399 1.399 0 01-.517-.487 1.539 1.539 0 01-.228-.523 1.983 1.983 0 01-.033-.64c.02-.194.068-.389.145-.584.077-.195.175-.39.292-.584l-1.174-.737a4.46 4.46 0 00-.402.904c-.102.319-.16.584-.174.795a7.701 7.701 0 00-.02.456c0 .24.023.479.072.718.065.329.183.646.353.95.394.637 1.006 1.109 1.835 1.415.83.307 1.88.464 3.15.472zM328.06 28.16l1.169-1.169-1.169-1.162-1.163 1.162 1.163 1.169zm-2.471 8.023c.47 0 .926-.017 1.366-.05.44-.032.853-.092 1.239-.182.385-.089.737-.21 1.056-.365a2.78 2.78 0 00.822-.596c.229-.244.408-.536.535-.877.128-.34.192-.743.192-1.205 0-.272-.027-.56-.082-.861a5.518 5.518 0 00-.24-.892 5.04 5.04 0 00-.39-.834 3.483 3.483 0 00-.53-.697c-.198-.201-.42-.36-.663-.478a1.78 1.78 0 00-.785-.176c-.228 0-.439.041-.633.124a1.966 1.966 0 00-.536.341 2.528 2.528 0 00-.432.502 3.63 3.63 0 00-.524 1.273 3.439 3.439 0 00-.067.663c0 .365.072.685.216.959.145.274.338.502.582.685.243.182.526.32.849.41.323.092.662.137 1.02.137h.62a1.777 1.777 0 01-.53.232 6.4 6.4 0 01-.84.176c-.324.049-.683.086-1.077.113-.393.026-.803.04-1.23.04h-.145v1.558h.207zm3.11-3.67a5.43 5.43 0 01-.813-.049 1.473 1.473 0 01-.389-.104.622.622 0 01-.265-.21.6.6 0 01-.097-.356v-.024c0-.147.03-.295.091-.445.061-.154.14-.292.237-.414a1.21 1.21 0 01.305-.28.553.553 0 01.28-.097c.02 0 .04.002.06.006.175.012.33.093.466.243s.254.328.353.533c.1.205.183.416.25.633.067.217.119.399.155.545a7.766 7.766 0 01-.368.015l-.265.003zm-8.467 8.223a11.814 11.814 0 001.507-.895c.489-.341.929-.716 1.32-1.126.392-.41.718-.85.978-1.318.26-.469.415-.959.468-1.47.19.122.366.195.527.22.16.023.293.036.398.036h.19l.005-1.559h-.188c-.179 0-.338-.035-.478-.106a1.156 1.156 0 01-.402-.378 4.017 4.017 0 01-.39-.736c-.131-.31-.277-.703-.435-1.178l-1.46.609c.076.231.162.47.255.715.093.246.18.488.262.727.08.24.148.47.2.691.053.221.08.423.08.606 0 .256-.048.505-.143.749a3.32 3.32 0 01-.39.712c-.164.231-.359.452-.584.663a8.676 8.676 0 01-.728.609c-.26.195-.532.377-.818.548-.286.17-.572.328-.856.475l.682 1.406zm-5.502-.293c.47-.077.929-.193 1.375-.35.447-.156.867-.35 1.26-.58.394-.232.755-.501 1.084-.807a5.004 5.004 0 001.403-2.283c.132-.452.198-.938.198-1.458a5.916 5.916 0 00-.32-1.92 5.086 5.086 0 00-.377-.84 3.947 3.947 0 00-.503-.703c-.519-.56-1.093-.84-1.722-.84-.244 0-.47.046-.682.14-.21.093-.404.22-.578.38-.175.16-.329.345-.463.554-.134.21-.246.43-.338.664a4.243 4.243 0 00-.21.715 3.57 3.57 0 00-.073.7c0 .349.047.65.14.9a1.848 1.848 0 00.996 1.069c.233.107.489.19.767.25.277.058.573.098.885.118.313.02.633.03.962.03-.073.277-.22.552-.441.828a4.007 4.007 0 01-.862.78 6.61 6.61 0 01-1.25.66c-.481.197-1.02.354-1.617.472l.366 1.521zm3.89-5.819c-.094 0-.194 0-.3-.003l-.319-.006a14.864 14.864 0 01-.593-.021 4.197 4.197 0 01-.466-.076 1.54 1.54 0 01-.42-.155.911.911 0 01-.304-.271.714.714 0 01-.119-.423c0-.163.034-.329.1-.5.068-.17.152-.325.253-.465.102-.14.213-.255.335-.344a.589.589 0 01.34-.134c.114 0 .228.039.342.116.113.077.224.18.331.307.108.128.208.274.302.438a4.46 4.46 0 01.429 1.047c.047.177.076.34.088.49zm-9.143-6.616l.95-.95-.957-.955-.95.95.957.955zm-1.15 1.838l1.034-1.035-1.047-1.047-1.035 1.041 1.047 1.041zm2.3.012l1.035-1.04-1.047-1.041-1.035 1.034 1.047 1.047zm-3.044 6.398c.236-.004.444-.032.624-.083.181-.05.343-.118.487-.203.144-.086.271-.186.38-.302.11-.115.212-.24.305-.374.081.122.174.241.277.359.104.118.221.222.353.314a1.638 1.638 0 00.959.289h.085c.41 0 .773-.057 1.09-.17.328-.114.605-.279.83-.494.226-.215.396-.475.512-.779a2.86 2.86 0 00.173-1.023c0-.239-.019-.482-.058-.73a7.11 7.11 0 00-.152-.727 10.373 10.373 0 00-.608-1.696 5.008 5.008 0 00-.12-.243l-1.308.73c.07.142.15.32.244.536.093.215.181.444.264.688.084.243.155.493.213.749.06.255.089.493.089.712 0 .3-.092.523-.274.67-.183.145-.418.218-.706.218a.89.89 0 01-.39-.088.708.708 0 01-.255-.219.749.749 0 01-.128-.292 1.565 1.565 0 01-.03-.301v-.098c.011-.17.029-.34.051-.511a20.321 20.321 0 01.14-.925c.022-.134.04-.25.052-.347l-1.425-.274c-.024.17-.057.363-.1.578a8.854 8.854 0 01-.158.66 6.171 6.171 0 01-.226.66 3.014 3.014 0 01-.304.576 1.606 1.606 0 01-.392.408.833.833 0 01-.494.155c-.17 0-.293-.05-.368-.149a.576.576 0 01-.125-.301 3.127 3.127 0 01-.012-.213c0-.13.014-.27.043-.42.036-.2.082-.397.137-.594.055-.197.112-.383.173-.56.061-.176.11-.321.146-.435l-1.521-.335-.153.575c-.056.213-.123.43-.2.649-.077.219-.168.432-.271.639a2.828 2.828 0 01-.36.554 1.646 1.646 0 01-.468.39 1.22 1.22 0 01-.6.145h-.243v1.559h.219c.284 0 .532-.025.743-.073.21-.05.394-.115.55-.198.157-.083.289-.178.396-.283.108-.106.2-.215.277-.329.09.13.188.254.295.371.108.118.228.22.36.308a1.69 1.69 0 00.94.277h.042zm-10.073-8.94l5.137-2.093-.3-.622-4.793 1.927-.044.788zm1.065 8.867c.243-.013.48-.042.709-.089.23-.046.447-.117.654-.213a2.526 2.526 0 001.06-.904c.19.215.384.4.58.551.198.152.409.277.634.375.225.097.47.168.733.213.264.044.558.067.883.067h.176v-1.559h-.383a1.696 1.696 0 01-1.044-.329 2.337 2.337 0 01-.402-.377 3.728 3.728 0 01-.35-.493c-.117-.19-.227-.38-.328-.566a36.723 36.723 0 01-.305-.572 31.15 31.15 0 00-.438-.81 9.828 9.828 0 00-.502-.8 8.595 8.595 0 00-1.446-1.604l4.596-1.887-.566-1.394-5.326 2.252-.147 1.717a9.08 9.08 0 011.708 1.817c.172.241.322.48.45.718.128.237.23.47.308.7.077.23.115.441.115.636a.713.713 0 01-.106.368c-.071.12-.172.226-.301.317-.13.091-.29.165-.478.222-.189.057-.401.085-.636.085h-1.893v1.559h2.045zm-1.802 0v-1.559h-.274a1.6 1.6 0 01-.417-.048.604.604 0 01-.457-.444 1.51 1.51 0 01-.045-.39v-.098c0-.125.001-.25.003-.371a691.051 691.051 0 00.012-.764 29.249 29.249 0 00-.003-1.071c-.004-.242-.006-.47-.006-.685a31.888 31.888 0 00-.183-3.393 11.12 11.12 0 00-.121-.862l-1.528.457c.036.19.069.41.097.66.029.25.053.518.073.804a46.356 46.356 0 01.085 1.808 71.017 71.017 0 01.025 1.725v.25c-.002.323-.006.604-.012.843-.008.298-.012.512-.012.642.004.836.219 1.46.645 1.875.426.414 1.05.62 1.875.62h.243zm-6.994 0c.414 0 .785-.048 1.114-.143a2.26 2.26 0 00.837-.433c.23-.192.406-.432.53-.718.123-.286.185-.62.185-1.001 0-.885-.51-1.91-1.528-3.074-.369-.402-.683-.72-.943-.956-.26-.235-.47-.416-.633-.541l-.986 1.205a6.078 6.078 0 00.39.328c-.082.082-.17.172-.265.271-.096.1-.202.218-.32.356-.69.836-1.035 1.64-1.035 2.41 0 .362.062.685.186.969.124.284.3.524.53.721.229.197.507.347.833.45.327.104.695.156 1.105.156zm0-1.577c-.118 0-.248-.012-.392-.036a1.747 1.747 0 01-.411-.122.996.996 0 01-.326-.222.47.47 0 01-.13-.338c0-.162.038-.344.115-.545.077-.2.173-.402.289-.603.116-.2.24-.39.374-.569.134-.178.26-.326.378-.444a6.702 6.702 0 01.974 1.169c.13.198.233.385.31.56.077.174.116.318.116.432 0 .142-.04.26-.122.353a.857.857 0 01-.31.222 1.556 1.556 0 01-.42.113c-.155.02-.303.03-.445.03z"/><path fill-opacity=".56" d="M41.119 29.096a.835.835 0 011.083.465c1.294 3.24-.156 6.962-3.303 8.475-.91.439-1.88.661-2.885.661h-.016v1.464c0 .37-.446.556-.71.296l-2.331-2.296a.416.416 0 010-.594l2.33-2.296a.417.417 0 01.71.296v1.464h.017c.753 0 1.48-.167 2.163-.496a5.012 5.012 0 002.478-6.355.833.833 0 01.464-1.084zm-5.117-5.228c0-.37.446-.557.71-.297l2.331 2.297a.416.416 0 010 .593l-2.33 2.297a.417.417 0 01-.71-.297v-1.463h-.017c-.753 0-1.48.166-2.163.496a5.012 5.012 0 00-2.477 6.355.834.834 0 01-1.548.618c-1.294-3.24.156-6.962 3.303-8.475a6.703 6.703 0 012.901-.66z"/></g></g></g><g mask="url(#b)"><g transform="translate(39 254)"><mask id="l" fill="#fff"><use xlink:href="#j"/></mask><use fill="#000" filter="url(#k)" xlink:href="#j"/><use fill="#FFF" xlink:href="#j"/><g fill="#000000" fill-rule="nonzero" fill-opacity=".56" mask="url(#l)"><path d="M326.063 24.055a28.5 28.5 0 00.1-1.905c.01-.597.015-1.074.015-1.43 0-.593-.006-1.226-.018-1.9a55.636 55.636 0 00-.31-4.431l-1.193.182c.137 1.279.247 2.902.328 4.87.012.337.018.694.018 1.071 0 .313-.004.64-.012.98-.02.755-.063 1.587-.128 2.496l1.2.067zm-4.858-6.696l.992-.992-.998-.998-.992.992.998.998zM320.231 24c.333 0 .642-.022.929-.067a2.82 2.82 0 00.776-.231c.231-.11.435-.256.611-.439.177-.182.326-.411.448-.687.122-.28.182-.605.182-.974 0-.065-.002-.13-.006-.195-.028-.45-.134-.97-.316-1.558a7.904 7.904 0 00-.195-.563 12.306 12.306 0 00-.335-.786 1.499 1.499 0 01-.055-.124l-1.083.535.53 1.303a3.959 3.959 0 01.273 1.038c.009.107.013.187.013.24 0 .098-.006.189-.019.274-.02.13-.05.237-.091.323a1.09 1.09 0 01-.304.398 1.28 1.28 0 01-.426.216 2.29 2.29 0 01-.542.089c-.199.01-.416.015-.651.015h-.707V24h.968zm-4.559-5.764l.986-.986-.998-.999-.986.992.998.993zm2.496.012l.986-.992-.998-.993-.986.987.998.998zM314.984 24c.382 0 .714-.015.996-.046.282-.03.528-.077.74-.14a2.273 2.273 0 00.973-.569c.175.223.398.405.67.545.271.14.612.21 1.022.21h.122v-1.193h-.122a.86.86 0 01-.508-.14.999.999 0 01-.31-.353 1.667 1.667 0 01-.162-.463 4.3 4.3 0 01-.067-.474 18.669 18.669 0 00-.11-1.054 5.718 5.718 0 00-.176-.827l-1.144.322c.09.309.151.583.185.822.035.24.052.475.052.706 0 .244-.04.457-.122.64a1.1 1.1 0 01-.38.456 1.85 1.85 0 01-.67.274c-.273.06-.603.091-.989.091h-.907V24h.907zm-7.602-6.726l.992-.992-.998-.999-.993.993.999.998zM304.807 24c.633 0 1.232-.048 1.796-.143a12.452 12.452 0 001.604-.377c.505-.157.985-.333 1.44-.53.454-.197.89-.399 1.308-.606.101.26.252.492.453.697.201.205.44.379.719.52.277.143.591.251.94.326a5.35 5.35 0 001.126.113h.128v-1.193h-.128c-.073 0-.17-.003-.292-.01a3.534 3.534 0 01-.402-.045 4.253 4.253 0 01-.447-.1 2.014 2.014 0 01-.432-.177 1.503 1.503 0 01-.36-.274.928.928 0 01-.222-.392c.187-.094.372-.18.554-.262l.554-.244-.231-1.156c-.252 0-.501-.026-.749-.08a5.987 5.987 0 01-.743-.21 9.844 9.844 0 01-.74-.294 34.3 34.3 0 01-.726-.335c-.22-.102-.437-.201-.652-.298a8.863 8.863 0 00-.633-.26 4.933 4.933 0 00-.612-.179 2.73 2.73 0 00-.593-.067 2.34 2.34 0 00-1.123.286c-.355.191-.691.477-1.007.859a4.13 4.13 0 00-.29.383 9.873 9.873 0 00-.213.335 3.1 3.1 0 00-.185.347l1.095.493a3.225 3.225 0 01.225-.399c.074-.111.16-.231.262-.359.102-.128.216-.247.344-.359.128-.112.267-.204.417-.277.15-.073.309-.11.475-.11.126 0 .264.02.414.058.15.039.31.09.478.156.168.064.343.139.523.222l.557.258c.248.118.5.234.755.347.256.114.523.22.803.317-.462.231-.93.456-1.406.676-.474.219-.964.413-1.47.584a11.77 11.77 0 01-1.58.41 9.336 9.336 0 01-1.734.156h-.877V24h.877zm-.633 0v-1.193h-.122c-.255 0-.476-.026-.66-.08a.95.95 0 01-.417-.218.507.507 0 01-.162-.314 3.288 3.288 0 01-.02-.386v-3.056a42.484 42.484 0 00-.126-3.208 9.023 9.023 0 00-.094-.76l-1.193.218c.037.191.068.436.094.734.027.298.049.624.067.977.019.353.032.718.04 1.096.008.377.012.74.012 1.09a89.656 89.656 0 010 1.88 184.965 184.965 0 00-.012.907c0 .097.002.214.006.35a2.35 2.35 0 00.216.886c.071.154.174.298.307.432.22.219.486.381.8.487.315.105.696.158 1.142.158h.122zm-10.013 0a12.11 12.11 0 001.637-.128 13.121 13.121 0 001.802-.392c.28-.084.542-.176.785-.277.244-.102.457-.21.64-.323.19-.122.337-.242.44-.362a.971.971 0 00.208-.356 1.21 1.21 0 00.045-.475 4.335 4.335 0 00-.097-.554 5.691 5.691 0 00-.301-.922 11.282 11.282 0 00-.38-.816 8.8 8.8 0 00-.333-.59 7.712 7.712 0 01-.155-.253l-1.01.658a7.255 7.255 0 01.29.46c.078.135.164.291.258.468.093.176.181.362.264.557.084.195.157.392.22.593.062.201.102.393.118.575-.34.191-.709.346-1.105.466a9.93 9.93 0 01-1.196.283c-.401.07-.795.117-1.18.143-.386.027-.74.04-1.06.04-1.136-.004-2.06-.113-2.77-.326-.71-.213-1.164-.518-1.363-.916a1.194 1.194 0 01-.121-.542c0-.223.048-.468.146-.736a2.35 2.35 0 01.182-.417 4.831 4.831 0 01.213-.35l-.968-.718-.067.1a4.866 4.866 0 00-.3.533 5.538 5.538 0 00-.174.401c-.159.418-.238.82-.238 1.206 0 .385.086.742.256 1.07.3.606.868 1.07 1.704 1.395.88.324 2.048.493 3.5.505h.11zm-.134 3.171l.992-.992-.998-.998-.992.992.998.998zM276.716 24l1.448-.012c.642 0 1.212-.015 1.71-.046.5-.03.943-.07 1.33-.122a13.634 13.634 0 001.793-.35l-.146-1.156-.447.091c-.14.029-.282.053-.426.073a12.48 12.48 0 01-1.111.104c-.22 0-.43-.03-.633-.092a1.966 1.966 0 01-.654-.328 1.695 1.695 0 01-.454-.53 1.418 1.418 0 01-.17-.694c0-.186.03-.366.091-.538a1.293 1.293 0 01.718-.78 1.52 1.52 0 01.621-.118c.207 0 .394.021.56.064.166.042.32.101.46.176.14.075.27.162.392.262s.246.206.372.32l.748-.92c-.182-.15-.363-.292-.541-.426a3.698 3.698 0 00-.567-.35 3.08 3.08 0 00-1.424-.32c-.377 0-.725.07-1.044.21a2.6 2.6 0 00-1.382 1.406 2.623 2.623 0 00-.197 1.014c0 .365.06.698.18.999.119.3.327.584.623.852l-1.85.018V24zm-5.186 0c.17-.008.338-.024.505-.049.166-.024.328-.06.487-.11a2.355 2.355 0 00.883-.493c.214-.198.389-.425.523-.681.182.235.394.454.636.657.241.203.508.357.8.463.211.069.427.122.649.158.22.037.477.055.77.055h.176v-1.193h-.383a2.083 2.083 0 01-.624-.1 2.045 2.045 0 01-.52-.26 2.233 2.233 0 01-.436-.398 4.106 4.106 0 01-.374-.526c-.154-.26-.299-.518-.432-.773-.134-.256-.27-.51-.405-.761a23.623 23.623 0 00-.426-.755 8.539 8.539 0 00-1.136-1.507 8.372 8.372 0 00-.81-.745l4.828-2.027-.469-1.108-5.38 2.32-.159 1.344a10.538 10.538 0 011.239 1.142c.213.229.417.47.611.724.195.254.366.51.512.77.146.26.254.503.325.73a2.1 2.1 0 01.107.621c0 .049-.002.098-.006.146a.956.956 0 01-.15.43c-.087.14-.196.264-.328.374-.132.11-.28.197-.444.262a1.326 1.326 0 01-.49.097h-2.125V24h2.046zm-14.755 4.036a7.56 7.56 0 001.795-.283 3.726 3.726 0 001.416-.755c.395-.343.704-.788.925-1.336.221-.548.332-1.224.332-2.027.089.065.176.12.261.167a1.569 1.569 0 00.57.183c.107.014.232.021.374.021.345 0 .67-.064.977-.192.306-.127.581-.333.825-.617.085.13.185.244.3.343.117.1.238.184.366.253s.257.122.387.158c.13.037.25.055.359.055a1.802 1.802 0 001.096-.353c.154-.114.29-.247.41-.402.12-.154.22-.326.302-.517.101.199.23.376.386.533a2.515 2.515 0 001.114.648c.209.057.421.085.636.085h.122v-1.193h-.122c-.231 0-.433-.053-.606-.158a1.615 1.615 0 01-.453-.42 2.51 2.51 0 01-.326-.603 5.076 5.076 0 01-.213-.706 7.082 7.082 0 01-.125-.727 8.702 8.702 0 01-.054-.673l-1.193.085c.008.138.021.313.04.524a7.854 7.854 0 01-.01 1.394c-.024.239-.073.455-.146.648s-.177.35-.31.472a.748.748 0 01-.524.182.568.568 0 01-.39-.134.913.913 0 01-.24-.356 2.093 2.093 0 01-.125-.505 3.853 3.853 0 01-.036-.48v-.302c0-.13.002-.26.006-.39.008-.19.014-.363.018-.517l-1.236-.091c-.008.207-.015.418-.02.633a6.9 6.9 0 01-.046.627c-.025.202-.06.394-.107.575-.047.18-.117.338-.21.472-.093.133-.212.24-.356.32-.144.078-.324.118-.539.118-.28 0-.51-.068-.69-.204a1.75 1.75 0 01-.46-.53 4.094 4.094 0 01-.326-.724 25.136 25.136 0 00-.283-.782 13.103 13.103 0 01-.225-.59l-1.01.657c.133.349.254.699.362 1.05.107.35.185.687.234 1.007a6.053 6.053 0 01.067 1.169 5.05 5.05 0 01-.207 1.162c-.37 1.129-1.416 1.733-3.14 1.814h-.208c-.345 0-.645-.037-.9-.112a2.56 2.56 0 01-.664-.292 1.95 1.95 0 01-.466-.408 2.592 2.592 0 01-.304-.463 2.316 2.316 0 01-.177-.453 3.749 3.749 0 01-.082-.378 3.527 3.527 0 01-.03-.712c.012-.24.04-.478.082-.715a6.898 6.898 0 01.359-1.288c.071-.182.142-.341.213-.477.071-.136.133-.239.186-.308l-.968-.718a8.79 8.79 0 00-.478.92c-.152.336-.28.694-.383 1.073-.104.38-.168.709-.192.987a5.374 5.374 0 00.018 1.41c.073.494.218.935.435 1.323.217.387.493.717.828.989.335.272.717.479 1.147.62.43.143.895.214 1.394.214h.238zm-9.928-3.981a28.5 28.5 0 00.1-1.905c.01-.597.016-1.074.016-1.43 0-.593-.006-1.226-.019-1.9a55.636 55.636 0 00-.31-4.431l-1.193.182c.138 1.279.247 2.902.329 4.87.012.337.018.694.018 1.071 0 .313-.004.64-.012.98-.02.755-.063 1.587-.128 2.496l1.199.067zm-4.42-5.515l.993-.992-.998-.998-.992.992.998.998zm-2.66 9.818c.342-.166.677-.354 1.008-.563.33-.209.645-.437.944-.685.298-.247.574-.51.828-.79.253-.28.472-.575.657-.883.185-.309.329-.628.432-.96.104-.33.155-.672.155-1.025 0-.178-.014-.361-.042-.548a8.704 8.704 0 00-.107-.569c-.042-.193-.09-.387-.14-.584l-.149-.588a9.052 9.052 0 00-.152-.556 65.409 65.409 0 01-.17-.564l-1.157.366c.11.34.213.681.31 1.022l.14.512c.049.174.094.349.134.523.04.175.074.345.1.511.027.167.04.325.04.475 0 .394-.095.775-.286 1.145a4.51 4.51 0 01-.758 1.046 6.964 6.964 0 01-1.074.91 9.912 9.912 0 01-1.242.734l.53 1.071zm-9.562-13.044l4.894-2.07-.286-.614-4.565 1.905-.043.779zM231.526 24c.211 0 .388-.014.53-.043.86-.158 1.47-.558 1.832-1.199.085-.154.16-.324.222-.511.063-.187.101-.354.116-.502.014-.148.021-.265.021-.35 0-.146-.012-.3-.037-.463a3.644 3.644 0 00-.219-.791 5.116 5.116 0 00-.462-.886 7.535 7.535 0 00-.761-.977 9.489 9.489 0 00-.7-.7 39.169 39.169 0 00-.651-.572l4.358-1.832-.469-1.108-5.003 2.143-.14 1.248a15.432 15.432 0 011.85 1.768c.26.294.478.57.654.828.177.257.287.47.332.636.057.219.085.424.085.614a1.496 1.496 0 01-.243.828c-.114.17-.27.302-.469.393a2.705 2.705 0 01-.657.2c-.24.043-.491.068-.755.074-.264.006-.517.009-.76.009h-.762V24h2.088zm-1.844 0v-1.193h-.122c-.256 0-.476-.026-.66-.08a.95.95 0 01-.417-.218.507.507 0 01-.162-.314 3.288 3.288 0 01-.021-.386v-3.056a42.484 42.484 0 00-.125-3.208 9.023 9.023 0 00-.094-.76l-1.193.218c.036.191.068.436.094.734.027.298.049.624.067.977.018.353.032.718.04 1.096.008.377.012.74.012 1.09.004.356.006.695.006 1.016v.236c-.001.23-.003.44-.006.628a184.965 184.965 0 00-.012.907c0 .097.002.214.006.35a2.35 2.35 0 00.216.886c.07.154.173.298.307.432.22.219.486.381.8.487.315.105.696.158 1.142.158h.122zm-7.043 0c.804 0 1.418-.213 1.844-.64.15-.153.27-.322.357-.504a2.934 2.934 0 00.283-1.06c.008-.15.012-.28.012-.389v-.158c0-.134-.003-.29-.01-.469l-.02-.633-.031-.837c-.012-.314-.024-.673-.037-1.074a71.079 71.079 0 00-.23-3.39l-1.194.127.03.326a55.411 55.411 0 01.183 2.98l.073 1.84c.02.498.03.878.03 1.142v.067c0 .58-.103.976-.31 1.187-.195.195-.521.292-.98.292h-.462V24h.462zm-5.527 4.492a11.123 11.123 0 001.491-.9 7.948 7.948 0 001.288-1.142c.375-.416.677-.865.904-1.348.227-.483.34-.99.34-1.522v-.024c.102.11.209.194.32.255a1.475 1.475 0 00.624.183c.09.004.162.006.22.006h.103v-1.193h-.098c-.203 0-.388-.049-.557-.146a1.645 1.645 0 01-.484-.46 4.3 4.3 0 01-.45-.81c-.146-.33-.296-.73-.45-1.201l-1.145.353c.049.15.108.337.177.563.069.225.138.465.207.721.069.256.133.516.191.782.06.266.103.514.131.746a2.272 2.272 0 01-.067.822 3.158 3.158 0 01-.331.785c-.148.251-.33.492-.545.721-.215.23-.45.447-.706.654a8.3 8.3 0 01-.816.582c-.288.18-.578.346-.87.496l.523 1.077zm-5.795-.213c.67 0 1.286-.058 1.848-.173a5.922 5.922 0 001.518-.52c.475-.236.854-.52 1.136-.85.282-.33.46-.697.532-1.099.029-.158.043-.302.043-.432 0-.134-.014-.253-.043-.359a1.29 1.29 0 00-.736-.873 3.74 3.74 0 00-.582-.22 9.25 9.25 0 00-.62-.155 5.114 5.114 0 01-.582-.158 1.879 1.879 0 01-.465-.228.724.724 0 01-.277-.356 1.06 1.06 0 01-.043-.56c.028-.2.09-.396.186-.59.095-.196.217-.383.365-.564.148-.18.308-.34.48-.48.173-.14.35-.256.533-.348.183-.091.36-.145.53-.161a2.23 2.23 0 01.426-.043h.091c.163.013.307.032.433.058.125.027.227.054.304.082l.11.05.529-1.115a8.355 8.355 0 01-.198-.079 3.164 3.164 0 00-.472-.14 3.36 3.36 0 00-.523-.082 3.199 3.199 0 00-.956.052 3.624 3.624 0 00-.907.328c-.288.15-.553.332-.794.545a4.086 4.086 0 00-.642.718 3.881 3.881 0 00-.45.843 3.095 3.095 0 00-.204.77 5.275 5.275 0 00-.034.503c0 .203.02.407.06.614.062.305.185.55.37.737.184.187.397.338.638.453.242.116.494.206.758.271.264.065.505.127.724.186a2.5 2.5 0 01.527.195c.132.07.198.165.198.283v.03c-.02.207-.122.407-.305.6-.182.192-.437.365-.763.517a5.203 5.203 0 01-1.184.365 8.082 8.082 0 01-1.559.137c-.588 0-1.097-.073-1.527-.219-.43-.146-.773-.365-1.03-.657a1.812 1.812 0 01-.313-.484 2.437 2.437 0 01-.21-.995v-.049c0-.17.01-.329.03-.475a12.05 12.05 0 01.354-1.735c.158-.56.329-1.126.511-1.698l-1.162-.408a2.871 2.871 0 00-.07.195 35.171 35.171 0 00-.34 1.093 19.3 19.3 0 00-.394 1.588c-.057.282-.101.555-.134.82a5.158 5.158 0 00-.036.602c0 .373.044.722.134 1.047.133.503.367.945.7 1.327.381.426.865.748 1.451.967.587.22 1.265.33 2.036.33zM324.425 55.344l.901-.9-.907-.907-.9.9.906.907zm-1.375 1.924l.986-.992-.999-.999-.986.993.999.998zm2.672.006l.986-.986-.998-.998-.987.986.999.998zM323.183 64c.333 0 .655-.022.965-.067.31-.045.596-.122.855-.231.26-.11.49-.256.691-.439.201-.182.363-.411.484-.687.122-.28.183-.605.183-.974 0-.065-.002-.13-.006-.195-.029-.45-.134-.97-.317-1.558a7.904 7.904 0 00-.195-.563 12.303 12.303 0 00-.334-.786 1.498 1.498 0 01-.055-.124l-1.084.535.53 1.303a3.959 3.959 0 01.274 1.038c.008.107.012.187.012.24 0 .098-.006.189-.018.274-.02.13-.05.237-.091.323a.953.953 0 01-.341.398 1.674 1.674 0 01-.506.216c-.19.05-.397.079-.62.089-.224.01-.453.015-.688.015h-1.175V64h1.436zm-5.502 0c.596 0 1.098-.062 1.503-.186.406-.123.737-.313.993-.569.174.223.397.405.67.545.271.14.612.21 1.022.21h.121v-1.193h-.121a.86.86 0 01-.509-.14.999.999 0 01-.31-.353 1.667 1.667 0 01-.161-.463 4.299 4.299 0 01-.067-.474 18.669 18.669 0 00-.11-1.054 5.718 5.718 0 00-.176-.827l-1.145.322c.09.309.151.583.186.822.034.24.052.475.052.706 0 .483-.155.847-.463 1.093-.308.245-.803.368-1.485.368h-.225V64h.225zm1.942 3.171l.992-.992-.998-.998-.993.992.999.998zM309 59.003l.986-.986-.998-.999-.986.992.998.993zm2.496.012l.986-.992-.999-.993-.986.987.999.998zm-1.766 5.003c2.31 0 4-.56 5.07-1.68.09.248.216.469.378.664.507.653 1.289.986 2.344.998h.17v-1.193h-.152c-.662-.004-1.134-.187-1.418-.548a1.217 1.217 0 01-.256-.511 3.023 3.023 0 01-.08-.548v-.049a5.071 5.071 0 01.137-.886c.027-.107.05-.197.07-.27l-1.156-.317c-.052.183-.112.37-.18.56-.066.191-.147.38-.243.566a3.52 3.52 0 01-.344.542 2.696 2.696 0 01-.48.481c-.419.34-.942.59-1.571.746-.629.156-1.392.234-2.289.234-1.002-.004-1.817-.11-2.444-.317-.627-.207-1.062-.519-1.305-.937a1.477 1.477 0 01-.195-.502 2.648 2.648 0 01-.043-.448c0-.052.002-.103.006-.152.009-.182.034-.357.077-.523.042-.167.086-.313.13-.438.045-.126.086-.228.122-.305a1.41 1.41 0 00.055-.122l-1.053-.578c-.02.029-.078.155-.174.38-.095.226-.193.531-.295.917-.049.182-.079.35-.091.502a4.048 4.048 0 00-.006.69c.016.212.056.423.118.634.063.21.154.416.271.615.366.616.953 1.068 1.763 1.354.81.286 1.83.433 3.064.441zM292.195 64l1.448-.012c.642 0 1.212-.015 1.71-.046.5-.03.943-.07 1.33-.122a13.634 13.634 0 001.794-.35l-.147-1.156-.447.091c-.14.029-.282.053-.426.073a12.48 12.48 0 01-1.11.104c-.22 0-.431-.03-.634-.092a1.966 1.966 0 01-.654-.328 1.695 1.695 0 01-.454-.53 1.418 1.418 0 01-.17-.694c0-.186.03-.366.091-.538a1.293 1.293 0 01.718-.78 1.52 1.52 0 01.621-.118c.207 0 .394.021.56.064.167.042.32.101.46.176.14.075.27.162.392.262s.246.206.372.32l.748-.92c-.182-.15-.363-.292-.541-.426a3.698 3.698 0 00-.566-.35 3.08 3.08 0 00-1.425-.32c-.377 0-.725.07-1.044.21a2.6 2.6 0 00-1.382 1.406 2.623 2.623 0 00-.197 1.014c0 .365.06.698.18.999.119.3.327.584.623.852l-1.85.018V64zm-5.186 0c.17-.008.339-.024.505-.049.166-.024.329-.06.487-.11a2.355 2.355 0 00.883-.493c.215-.198.389-.425.523-.681.183.235.395.454.636.657s.508.357.8.463c.211.069.428.122.649.158.22.037.478.055.77.055h.176v-1.193h-.383a2.083 2.083 0 01-.624-.1 2.045 2.045 0 01-.52-.26 2.233 2.233 0 01-.436-.398 4.106 4.106 0 01-.374-.526c-.154-.26-.298-.518-.432-.773-.134-.256-.27-.51-.405-.761a23.623 23.623 0 00-.426-.755 8.539 8.539 0 00-1.135-1.507 8.372 8.372 0 00-.81-.745l4.827-2.027-.469-1.108-5.38 2.32-.159 1.344a10.538 10.538 0 011.239 1.142c.213.229.417.47.612.724.194.254.365.51.51.77.147.26.256.503.327.73a2.1 2.1 0 01.106.621c0 .049-.002.098-.006.146a.956.956 0 01-.15.43c-.086.14-.196.264-.328.374-.132.11-.28.197-.444.262a1.326 1.326 0 01-.49.097h-2.125V64h2.046zm-14.755 4.036a7.56 7.56 0 001.796-.283 3.726 3.726 0 001.415-.755c.395-.343.704-.788.925-1.336.221-.548.332-1.224.332-2.027.089.065.176.12.261.167a1.569 1.569 0 00.57.183c.107.014.232.021.374.021.345 0 .67-.064.977-.192.306-.127.581-.333.825-.617.085.13.185.244.301.343.116.1.237.184.365.253s.257.122.387.158c.13.037.25.055.359.055a1.802 1.802 0 001.096-.353c.154-.114.29-.247.41-.402.12-.154.22-.326.302-.517.101.199.23.376.386.533a2.515 2.515 0 001.114.648c.21.057.421.085.636.085h.122v-1.193h-.122c-.231 0-.433-.053-.605-.158a1.615 1.615 0 01-.454-.42 2.51 2.51 0 01-.326-.603 5.076 5.076 0 01-.213-.706 7.082 7.082 0 01-.124-.727 8.702 8.702 0 01-.055-.673l-1.193.085c.008.138.021.313.04.524a7.854 7.854 0 01-.01 1.394c-.024.239-.073.455-.146.648s-.176.35-.31.472a.748.748 0 01-.524.182.568.568 0 01-.39-.134.913.913 0 01-.24-.356 2.093 2.093 0 01-.125-.505 3.853 3.853 0 01-.036-.48v-.302c0-.13.002-.26.006-.39.008-.19.014-.363.018-.517l-1.235-.091c-.009.207-.016.418-.022.633a6.9 6.9 0 01-.045.627c-.025.202-.06.394-.107.575-.047.18-.117.338-.21.472-.093.133-.212.24-.356.32-.144.078-.324.118-.539.118-.28 0-.51-.068-.69-.204a1.75 1.75 0 01-.46-.53 4.094 4.094 0 01-.326-.724 25.136 25.136 0 00-.283-.782 13.103 13.103 0 01-.225-.59l-1.01.657c.133.349.254.699.362 1.05.107.35.185.687.234 1.007a6.053 6.053 0 01.067 1.169 5.05 5.05 0 01-.207 1.162c-.37 1.129-1.416 1.733-3.14 1.814h-.208c-.345 0-.645-.037-.9-.112a2.56 2.56 0 01-.664-.292 1.95 1.95 0 01-.466-.408 2.592 2.592 0 01-.304-.463 2.316 2.316 0 01-.177-.453 3.749 3.749 0 01-.082-.378 3.527 3.527 0 01-.03-.712c.012-.24.04-.478.082-.715a6.898 6.898 0 01.36-1.288c.07-.182.141-.341.212-.477.071-.136.133-.239.186-.308l-.968-.718a8.79 8.79 0 00-.478.92c-.152.336-.28.694-.383 1.073-.104.38-.168.709-.192.987a5.374 5.374 0 00.018 1.41c.073.494.218.935.435 1.323.217.387.493.717.828.989.335.272.717.479 1.148.62.43.143.894.214 1.394.214h.237zM259.757 64c.333 0 .643-.022.929-.067a2.82 2.82 0 00.776-.231c.231-.11.435-.256.611-.439.177-.182.326-.411.448-.687.122-.28.182-.605.182-.974 0-.065-.002-.13-.006-.195-.028-.45-.134-.97-.316-1.558a7.904 7.904 0 00-.195-.563 12.304 12.304 0 00-.335-.786 1.498 1.498 0 01-.054-.124l-1.084.535.53 1.303a3.959 3.959 0 01.274 1.038c.008.107.012.187.012.24 0 .098-.006.189-.019.274a1.09 1.09 0 01-.396.721 1.28 1.28 0 01-.425.216 2.29 2.29 0 01-.542.089c-.199.01-.416.015-.651.015h-.706V64h.967zm.999 3.171l.992-.992-.998-.998-.993.992.999.998zM259.033 64v-1.193h-.122c-.255 0-.475-.026-.66-.08a.95.95 0 01-.417-.218.507.507 0 01-.161-.314 3.288 3.288 0 01-.022-.386v-3.056a42.484 42.484 0 00-.124-3.208 9.023 9.023 0 00-.095-.76l-1.193.218c.037.191.068.436.094.734.027.298.05.624.067.977.019.353.032.718.04 1.096.008.377.012.74.012 1.09a89.654 89.654 0 010 1.88 184.96 184.96 0 00-.012.837v.174l.006.246a2.35 2.35 0 00.216.886c.071.154.174.298.308.432.219.219.486.381.8.487.314.105.695.158 1.141.158h.122zm-11.7-.006c.244 0 .489-.018.734-.055.246-.036.482-.095.71-.176a3.04 3.04 0 00.636-.314c.196-.128.368-.28.514-.46a1.474 1.474 0 00.317-.645c.032-.142.05-.304.051-.487a2.812 2.812 0 00-.07-.614 4.424 4.424 0 00-.277-.795 6.44 6.44 0 00-.444-.815 8.06 8.06 0 00-1.233-1.495 6.963 6.963 0 00-.709-.59 4.27 4.27 0 00-.721-.426l-.493 1.108c.182.08.37.19.56.328.19.138.378.296.563.475.185.179.362.37.532.575.17.205.326.416.466.633.14.217.26.435.36.652.099.217.17.425.215.624.033.146.049.271.049.377 0 .146-.03.256-.091.329-.138.166-.309.29-.512.37a1.959 1.959 0 01-.547.144 3.497 3.497 0 01-.84-.01 5.173 5.173 0 01-1.419-.386 3.7 3.7 0 01-.541-.283l-.5 1.145c.102.093.262.186.481.28a7.375 7.375 0 001.519.441c.266.047.496.07.69.07zm-9.13 4.279a7.348 7.348 0 001.23-.301 7.003 7.003 0 001.147-.505c.364-.201.702-.436 1.017-.704.314-.267.591-.566.83-.894.24-.329.437-.687.591-1.075.154-.387.254-.804.299-1.25a5.636 5.636 0 00.006-1.108 6.03 6.03 0 00-.201-1.066 5.049 5.049 0 00-.38-.958 3.741 3.741 0 00-.545-.789c-.483-.519-1.013-.779-1.59-.779-.259 0-.51.066-.75.198a2.284 2.284 0 00-.674.581c-.17.22-.318.48-.444.783a3.435 3.435 0 00-.24.81 4.237 4.237 0 00-.052.587c0 .162.014.324.043.487.048.308.166.58.353.815.422.524 1.073.812 1.954.865.223.02.423.03.6.03h.69c-.045.304-.17.614-.374.928a3.805 3.805 0 01-.837.892 6.02 6.02 0 01-1.273.755 7.854 7.854 0 01-1.68.523l.28 1.175zm3.343-5.479h-.098c-.179 0-.37-.005-.572-.017a3.068 3.068 0 01-.259-.028c-.1-.014-.2-.036-.304-.067a1.43 1.43 0 01-.293-.122.716.716 0 01-.228-.197.57.57 0 01-.125-.29 2.13 2.13 0 01-.02-.27c0-.09.005-.181.017-.274a2.765 2.765 0 01.326-.999c.083-.142.178-.258.283-.35a.505.505 0 01.335-.137c.073 0 .142.013.207.037a.94.94 0 01.185.094c.06.039.114.082.165.128.05.047.096.09.137.131.101.118.2.257.295.417.095.16.182.34.259.539.077.199.14.414.188.645.049.231.08.477.092.736a7.117 7.117 0 01-.59.024zm-8.845 5.564c.34-.166.677-.354 1.007-.563.331-.209.645-.437.944-.685.298-.247.574-.51.828-.79.253-.28.472-.575.657-.883.185-.309.329-.628.432-.96.104-.33.155-.672.155-1.025 0-.178-.014-.361-.042-.548a8.704 8.704 0 00-.107-.569c-.042-.193-.09-.387-.14-.584l-.149-.588a9.052 9.052 0 00-.152-.556 65.409 65.409 0 01-.17-.564l-1.157.366c.11.34.213.681.31 1.022l.14.512c.05.174.094.349.134.523.04.175.074.345.1.511.027.167.04.325.04.475 0 .394-.095.775-.286 1.145a4.51 4.51 0 01-.758 1.046 6.964 6.964 0 01-1.074.91 9.912 9.912 0 01-1.242.734l.53 1.071zM229.45 64c.332 0 .642-.022.928-.067a2.82 2.82 0 00.776-.231c.231-.11.435-.256.612-.439.176-.182.325-.411.447-.687.122-.28.183-.605.183-.974 0-.065-.003-.13-.007-.195-.028-.45-.133-.97-.316-1.558a7.904 7.904 0 00-.195-.563 12.304 12.304 0 00-.335-.786 1.498 1.498 0 01-.054-.124l-1.084.535.53 1.303a3.959 3.959 0 01.274 1.038c.008.107.012.187.012.24 0 .098-.006.189-.019.274a1.09 1.09 0 01-.396.721 1.28 1.28 0 01-.425.216 2.29 2.29 0 01-.542.089c-.199.01-.416.015-.651.015h-.706V64h.967zm.998 3.171l.992-.992-.998-.998-.993.992.999.998zM224.203 64c.382 0 .714-.015.996-.046.282-.03.528-.077.74-.14a2.273 2.273 0 00.973-.569c.175.223.398.405.67.545s.612.21 1.022.21h.122v-1.193h-.122a.86.86 0 01-.508-.14.999.999 0 01-.31-.353 1.667 1.667 0 01-.162-.463 4.299 4.299 0 01-.067-.474 18.67 18.67 0 00-.11-1.054 5.718 5.718 0 00-.176-.827l-1.144.322c.09.309.151.583.186.822.034.24.051.475.051.706 0 .244-.04.457-.121.64a1.1 1.1 0 01-.38.456 1.85 1.85 0 01-.67.274c-.274.06-.604.091-.99.091h-.906V64h.906zm.226 2.977l.986-.987-.998-.998-.987.992.999.993zm2.495.012l.986-.992-.998-.993-.986.986.998.999zm-9.234-5.929l.993-.992-.999-.998-.992.992.998.998zm-.25 7.116c.5 0 .974-.053 1.422-.159a4.386 4.386 0 001.227-.484c.369-.217.693-.492.97-.824.279-.333.495-.729.649-1.187.105-.325.173-.621.204-.889a6.474 6.474 0 00.04-1.004c.43.247.918.371 1.466.371h.134v-1.193h-.134a2.16 2.16 0 01-.453-.052 1.417 1.417 0 01-.508-.24 2.912 2.912 0 01-.567-.56 6.432 6.432 0 01-.633-1.005 6.983 6.983 0 00-.444-.827l-1.01.645a.39.39 0 01.043.064l.07.115c.07.12.152.284.246.493.093.21.187.455.283.737a5.788 5.788 0 01.301 1.853v.073a3.791 3.791 0 01-.176 1.054c-.09.284-.224.538-.402.763-.179.226-.4.416-.664.573-.263.156-.57.275-.919.356a5.17 5.17 0 01-1.168.121c-.345 0-.653-.037-.923-.112a2.885 2.885 0 01-.706-.292c-.2-.12-.372-.255-.514-.405a2.65 2.65 0 01-.353-.46 2.189 2.189 0 01-.21-.453 2.546 2.546 0 01-.094-.378 3.57 3.57 0 01-.03-.718c.011-.243.039-.483.081-.718.043-.235.097-.462.162-.679.064-.217.132-.417.203-.6a5.35 5.35 0 01.21-.477c.07-.136.13-.24.183-.314l-.968-.712a8.651 8.651 0 00-.478.922c-.152.34-.28.697-.383 1.075a5.673 5.673 0 00-.192.983 5.374 5.374 0 00.018 1.41c.082.53.239.993.472 1.387.234.393.527.719.88.977.353.257.756.45 1.208.578.453.128.938.192 1.458.192z"/></g></g></g></g></svg>