<svg xmlns="http://www.w3.org/2000/svg" xmlns:xlink="http://www.w3.org/1999/xlink" width="860" height="168"><defs><rect id="a" width="860" height="168" x="0" y="0" rx="4"/><rect id="c" width="424" height="104" x="218" y="32" rx="4"/><filter id="b" width="112.3%" height="150%" x="-6.1%" y="-21.2%" filterUnits="objectBoundingBox"><feOffset dy="4" in="SourceAlpha" result="shadowOffsetOuter1"/><feGaussianBlur in="shadowOffsetOuter1" result="shadowBlurOuter1" stdDeviation="8"/><feColorMatrix in="shadowBlurOuter1" values="0 0 0 0 0 0 0 0 0 0 0 0 0 0 0 0 0 0 0.12 0"/></filter></defs><g fill="none" fill-rule="evenodd"><use fill="#000" fill-opacity="0" xlink:href="#a"/><use fill="#000" filter="url(#b)" xlink:href="#c"/><rect width="424" height="104" x="218" y="32" fill="#FFF" rx="4"/><g transform="translate(250 64)"><rect width="359" height="39" x=".5" y=".5" stroke="#000000" stroke-opacity=".24" rx="4"/><path fill="#000000" fill-opacity=".32" d="M25.293 17.3a1.003 1.003 0 00-1.419 0L20 21.176 16.126 17.3a1.003 1.003 0 10-1.419 1.419l4.583 4.584a1.001 1.001 0 001.42 0l4.583-4.584a1.001 1.001 0 000-1.42"/><rect width="104" height="32" x="252" y="4" fill="#000000" fill-opacity=".12" rx="2"/><path fill="#000000" fill-opacity=".56" fill-rule="nonzero" d="M341.011 24.073c.378 0 .708-.053.992-.158.293-.106.536-.258.73-.457.196-.199.342-.439.44-.721.097-.282.145-.598.145-.947 0-.23-.021-.468-.064-.712a6.734 6.734 0 00-.164-.712 10.71 10.71 0 00-.752-1.899l-1.065.56a10.738 10.738 0 01.514 1.245c.088.257.163.52.226.788s.094.517.094.749c0 .178-.02.339-.06.48a.814.814 0 01-.199.354.668.668 0 01-.31.185 1.37 1.37 0 01-.35.046c-.07 0-.142-.004-.22-.012a.568.568 0 01-.307-.119.741.741 0 01-.2-.256 1.287 1.287 0 01-.11-.359 2.647 2.647 0 01-.034-.429c0-.166.013-.356.037-.569.024-.213.052-.414.082-.603.03-.188.058-.35.082-.484l.03-.194-1.168-.213a14.56 14.56 0 01-.1.587 8.363 8.363 0 01-.165.697c-.067.24-.148.475-.243.706a3.216 3.216 0 01-.335.621c-.128.183-.274.33-.438.444a.956.956 0 01-.557.17.643.643 0 01-.323-.072.545.545 0 01-.2-.195.852.852 0 01-.104-.277c-.02-.104-.03-.21-.03-.32 0-.158.016-.33.048-.514.033-.185.071-.365.116-.542a11.173 11.173 0 01.255-.873l-1.205-.256c-.04.199-.09.41-.146.633a6.81 6.81 0 01-.207.667 4.861 4.861 0 01-.286.636c-.11.203-.238.382-.387.539a1.813 1.813 0 01-.508.377c-.19.095-.406.143-.645.143h-.134V24h.128c.235 0 .451-.02.648-.058a2.366 2.366 0 00.99-.432c.137-.103.267-.22.389-.35.065.15.157.282.277.396.12.113.252.209.399.286.146.077.299.135.46.173a1.989 1.989 0 001.445-.192c.308-.166.584-.391.828-.675.085.13.188.25.31.362.122.112.254.209.396.292.142.083.29.15.447.198.156.049.311.073.466.073h.042zM326.944 24c.297 0 .606-.016.929-.049a10.435 10.435 0 001.899-.374c.302-.091.581-.198.837-.32.446.268.945.459 1.497.573a8.94 8.94 0 001.802.17h.122v-1.193h-.122c-.414 0-.809-.026-1.184-.08a4.625 4.625 0 01-.983-.237c.21-.158.42-.35.627-.575.207-.225.39-.46.55-.706.161-.245.28-.476.36-.69.079-.216.119-.402.119-.56 0-.041-.003-.082-.007-.122a1.065 1.065 0 00-.188-.579 1.658 1.658 0 00-.31-.335 2.23 2.23 0 00-.524-.316 3.741 3.741 0 00-.944-.268c-.3-.04-.56-.06-.779-.06-.186 0-.375.01-.566.03-.17.016-.359.045-.566.088a4.639 4.639 0 00-1.306.49 3.563 3.563 0 00-.648.469l-.06.846a37 37 0 01.508.593c.168.201.334.398.499.59.164.193.327.378.49.555.162.176.322.337.48.483-.146.057-.32.109-.523.156a9.805 9.805 0 01-2.003.228h-.127V24h.121zm3.677-2.173a7.347 7.347 0 01-.858-.822c-.28-.312-.589-.673-.926-1.083.26-.15.542-.262.846-.335.305-.073.607-.11.907-.11.3 0 .589.037.865.11.276.073.52.179.73.316a.66.66 0 01-.07.26 2.764 2.764 0 01-.185.337 4.864 4.864 0 01-.6.758c-.116.12-.234.23-.356.329-.122.099-.24.18-.353.24zM327.066 24v-1.193h-.122c-.255 0-.475-.026-.66-.08a.95.95 0 01-.417-.218.507.507 0 01-.161-.314 3.288 3.288 0 01-.022-.386v-3.056a42.483 42.483 0 00-.124-3.208 9.022 9.022 0 00-.095-.76l-1.193.218c.037.191.068.436.095.734.026.298.048.624.066.977.019.353.032.718.04 1.096.008.377.012.74.012 1.09a89.654 89.654 0 010 1.88 184.945 184.945 0 00-.011.837v.174c0 .073.002.155.005.246a2.35 2.35 0 00.216.886c.071.154.174.298.308.432.219.219.486.381.8.487.315.105.695.158 1.141.158h.122zm-7.463-.006c.244 0 .488-.018.734-.055.245-.036.482-.095.71-.176a3.04 3.04 0 00.635-.314c.197-.128.368-.28.515-.46a1.474 1.474 0 00.317-.645c.032-.142.049-.304.05-.487a2.812 2.812 0 00-.07-.614 4.424 4.424 0 00-.276-.795 6.44 6.44 0 00-.445-.815 8.06 8.06 0 00-1.232-1.495 6.963 6.963 0 00-.71-.59 4.27 4.27 0 00-.72-.426l-.494 1.108c.183.08.37.19.56.328.191.138.379.296.563.475.185.179.363.37.533.575.17.205.326.416.466.633.14.217.26.435.359.652.1.217.171.425.216.624.032.146.049.271.049.377 0 .146-.03.256-.092.329-.138.166-.308.29-.511.37a1.959 1.959 0 01-.548.144 3.497 3.497 0 01-.84-.01 5.173 5.173 0 01-1.418-.386 3.7 3.7 0 01-.542-.283l-.499 1.145c.101.093.262.186.48.28a7.375 7.375 0 001.519.441c.266.047.497.07.691.07zm-10.658-4.991l.986-.986-.998-.999-.986.992.998.993zm2.496.012l.986-.992-.998-.993-.986.987.998.998zM310.193 24a12.11 12.11 0 001.637-.128 13.121 13.121 0 001.802-.392c.28-.084.542-.176.785-.277.244-.102.457-.21.64-.323.19-.122.337-.242.44-.362a.971.971 0 00.208-.356 1.21 1.21 0 00.045-.475 4.335 4.335 0 00-.097-.554 5.691 5.691 0 00-.301-.922 11.282 11.282 0 00-.38-.816 8.8 8.8 0 00-.332-.59 7.712 7.712 0 01-.156-.253l-1.01.658a7.254 7.254 0 01.29.46c.078.135.164.291.258.468.093.176.181.362.265.557.083.195.156.392.219.593.063.201.102.393.118.575-.34.191-.709.346-1.104.466a9.93 9.93 0 01-1.197.283c-.401.07-.795.117-1.18.143-.386.027-.739.04-1.06.04-1.136-.004-2.059-.113-2.77-.326-.71-.213-1.164-.518-1.363-.916a1.194 1.194 0 01-.121-.542c0-.223.048-.468.146-.736a2.35 2.35 0 01.182-.417 4.831 4.831 0 01.213-.35l-.967-.718-.067.1a4.866 4.866 0 00-.302.533 5.537 5.537 0 00-.173.401c-.158.418-.238.82-.238 1.206 0 .385.086.742.256 1.07.3.606.869 1.07 1.704 1.395.881.324 2.048.493 3.5.505h.11zm-9.843-9.118c.017-.049.042-.115.077-.198.034-.083.077-.166.127-.25.051-.083.109-.156.174-.219a.353.353 0 01.207-.106.784.784 0 01.365.024c.118.037.242.08.374.13.132.052.273.1.423.147.15.047.317.07.5.07h.036a1.3 1.3 0 00.402-.06c.138-.046.265-.102.38-.171a2.04 2.04 0 00.314-.229c.093-.083.173-.162.24-.237a2.086 2.086 0 00.216-.283l-.694-.45a3.633 3.633 0 01-.118.146c-.055.065-.122.13-.201.197-.08.067-.164.123-.253.168a.594.594 0 01-.268.067h-.024a1.359 1.359 0 01-.35-.055 3.69 3.69 0 01-.326-.116 4.624 4.624 0 00-.401-.146 1.624 1.624 0 00-.487-.067c-.175 0-.345.038-.512.113a1.693 1.693 0 00-.456.304 1.831 1.831 0 00-.548.971l.803.25zM302.59 24c.057-.402.09-.855.1-1.36.011-.506.016-.92.016-1.245 0-.54-.006-1.147-.018-1.82a55.83 55.83 0 00-.08-2.07 81.383 81.383 0 00-.164-2.313l-1.193.183c.057.548.108 1.221.152 2.02.045.8.082 1.733.11 2.8a27.95 27.95 0 01-.006 1.857c-.02.621-.059 1.248-.116 1.881l1.2.067zm-6.367 0c.333 0 .643-.022.929-.067a2.82 2.82 0 00.776-.231c.231-.11.435-.256.612-.439.176-.182.325-.411.447-.687.122-.28.183-.605.183-.974 0-.065-.002-.13-.007-.195-.028-.45-.133-.97-.316-1.558a7.904 7.904 0 00-.195-.563 12.306 12.306 0 00-.335-.786 1.499 1.499 0 01-.054-.124l-1.084.535.53 1.303a3.959 3.959 0 01.274 1.038c.008.107.012.187.012.24 0 .098-.006.189-.018.274-.02.13-.051.237-.092.323a1.09 1.09 0 01-.304.398 1.28 1.28 0 01-.426.216 2.29 2.29 0 01-.542.089c-.199.01-.416.015-.651.015h-.706V24h.967zm.999 3.171l.992-.992-.998-.998-.993.992.999.998zM295.499 24v-1.193h-.122c-.255 0-.475-.026-.66-.08a.95.95 0 01-.417-.218.507.507 0 01-.161-.314 3.288 3.288 0 01-.022-.386v-3.056a42.483 42.483 0 00-.124-3.208 9.022 9.022 0 00-.095-.76l-1.193.218c.037.191.068.436.095.734.026.298.048.624.067.977.018.353.031.718.04 1.096.007.377.011.74.011 1.09a89.654 89.654 0 010 1.88 184.985 184.985 0 00-.011.837v.174c0 .073.002.155.005.246a2.35 2.35 0 00.216.886c.071.154.174.298.308.432.219.219.486.381.8.487.315.105.695.158 1.141.158h.122zm-7.462-.006c.243 0 .487-.018.733-.055.246-.036.482-.095.71-.176a3.04 3.04 0 00.635-.314c.197-.128.368-.28.515-.46a1.474 1.474 0 00.317-.645c.032-.142.049-.304.05-.487a2.812 2.812 0 00-.07-.614 4.424 4.424 0 00-.276-.795 6.44 6.44 0 00-.444-.815 8.06 8.06 0 00-1.233-1.495 6.963 6.963 0 00-.71-.59 4.27 4.27 0 00-.72-.426l-.494 1.108c.183.08.37.19.56.328.191.138.379.296.563.475.185.179.363.37.533.575.17.205.326.416.466.633.14.217.26.435.359.652.1.217.171.425.216.624.032.146.049.271.049.377 0 .146-.03.256-.092.329-.138.166-.308.29-.511.37a1.959 1.959 0 01-.548.144 3.497 3.497 0 01-.84-.01 5.173 5.173 0 01-1.418-.386 3.7 3.7 0 01-.542-.283l-.499 1.145c.102.093.262.186.481.28a7.375 7.375 0 001.519.441c.265.047.496.07.69.07z"/><path fill="#000000" fill-opacity=".56" d="M268.943 20l1.886-1.886a.666.666 0 10-.943-.943L268 19.057l-1.885-1.886a.667.667 0 00-.943.943L267.057 20l-1.885 1.886a.666.666 0 10.943.943L268 20.943l1.886 1.886a.665.665 0 00.943 0 .666.666 0 000-.943L268.943 20z"/><rect width="74" height="32" x="174" y="4" fill="#000000" fill-opacity=".12" rx="2"/><path fill="#000000" fill-opacity=".56" fill-rule="nonzero" d="M232.183 24c.333 0 .655-.022.965-.067.31-.045.596-.122.855-.231.26-.11.49-.256.691-.439.201-.182.363-.411.484-.687.122-.28.183-.605.183-.974 0-.065-.002-.13-.006-.195-.029-.45-.134-.97-.317-1.558a7.904 7.904 0 00-.195-.563 12.302 12.302 0 00-.334-.786 1.499 1.499 0 01-.055-.124l-1.084.535.53 1.303a3.959 3.959 0 01.274 1.038c.008.107.012.187.012.24 0 .098-.006.189-.018.274-.02.13-.05.237-.091.323a.953.953 0 01-.341.398 1.674 1.674 0 01-.506.216c-.19.05-.397.079-.62.089-.224.01-.453.015-.688.015h-1.175V24h1.436zm2.32 3.171l.998-.998-.986-.986-.998.998.986.986zm-2.66.012l.998-.998-.986-.992-.998.998.986.992zm1.357 1.741l.907-.907-.9-.9-.908.906.901.901zm-7.925-.651a7.459 7.459 0 001.72-.487 6.291 6.291 0 001.509-.889 5.424 5.424 0 001.156-1.269 4.598 4.598 0 00.66-1.628h.67v-1.193h-.578a5.794 5.794 0 00-.329-1.768 4.675 4.675 0 00-.353-.77 3.846 3.846 0 00-.462-.646c-.483-.519-1.013-.779-1.589-.779-.26 0-.51.066-.752.198a2.284 2.284 0 00-.672.581c-.17.22-.319.48-.445.783a3.435 3.435 0 00-.24.81 4.237 4.237 0 00-.052.587c0 .162.014.324.043.487.049.308.166.58.353.815.422.524 1.073.812 1.954.865.223.02.423.03.6.03h.69c-.044.304-.17.614-.374.928a3.805 3.805 0 01-.837.892c-.353.28-.777.532-1.272.755a7.854 7.854 0 01-1.68.523l.28 1.175zm3.342-5.479h-.098c-.178 0-.37-.005-.572-.017a3.068 3.068 0 01-.259-.028c-.1-.014-.2-.036-.304-.067a1.43 1.43 0 01-.292-.122.716.716 0 01-.229-.197.57.57 0 01-.124-.29 2.13 2.13 0 01-.022-.27 2.765 2.765 0 01.344-1.272c.083-.143.178-.26.283-.35a.505.505 0 01.335-.138c.073 0 .142.013.207.037a.94.94 0 01.186.094c.059.039.113.082.164.128.05.047.096.09.137.131.101.118.2.257.295.417.096.16.182.34.259.539.077.199.14.414.189.645.048.231.079.477.091.736a7.117 7.117 0 01-.59.024zm-6.63-5.435l.993-.992-.998-.998-.992.992.998.998zM221.015 24c.333 0 .642-.022.928-.067a2.82 2.82 0 00.776-.231c.232-.11.435-.256.612-.439.177-.182.326-.411.447-.687.122-.28.183-.605.183-.974 0-.065-.002-.13-.006-.195-.028-.45-.134-.97-.317-1.558a7.904 7.904 0 00-.194-.563 12.306 12.306 0 00-.335-.786 1.499 1.499 0 01-.055-.124l-1.083.535.53 1.303a3.959 3.959 0 01.273 1.038c.008.107.012.187.012.24 0 .098-.006.189-.018.274-.02.13-.05.237-.091.323a1.09 1.09 0 01-.305.398 1.28 1.28 0 01-.426.216 2.29 2.29 0 01-.542.089c-.198.01-.415.015-.65.015h-.707V24h.968zm-.724 0v-1.193h-.17a4.062 4.062 0 01-.664-.06 2.172 2.172 0 01-.542-.171 2.384 2.384 0 01-.627-.42 2.84 2.84 0 01-.435-.524c-.12-.186-.22-.38-.299-.578-.079-.199-.15-.396-.216-.59a4.752 4.752 0 00-.44-.929 7.121 7.121 0 00-.658-.907 8.656 8.656 0 00-.834-.852c-.307-.274-.63-.53-.971-.77l4.82-2.033-.456-1.108-5.46 2.35-.164 1.345c.162.126.353.276.572.45a15.393 15.393 0 011.367 1.236c.225.231.423.465.593.7.17.235.298.458.384.667.085.209.127.398.127.569 0 .044-.002.089-.006.134-.024.215-.12.414-.289.596-.168.183-.431.341-.788.475-.272.105-.668.19-1.187.253-.52.062-1.193.112-2.02.149a7.446 7.446 0 01-.78-.012 10.485 10.485 0 01-1.753-.28 7.116 7.116 0 01-.797-.25 3.113 3.113 0 01-.627-.317 1.008 1.008 0 01-.36-.377.927.927 0 01-.09-.42v-.055c.007-.174.042-.355.103-.541.06-.187.139-.37.234-.548.095-.179.194-.34.295-.481l-.962-.718a1.723 1.723 0 00-.07.11 6.37 6.37 0 00-.478.925c-.178.405-.276.712-.295.918a5.82 5.82 0 00-.027.427c0 .247.037.474.11.681.093.272.24.514.44.725.202.21.44.396.716.557.276.16.583.295.922.404.34.11.694.2 1.065.268.372.07.752.119 1.142.15.39.03.775.045 1.156.045.719 0 1.347-.02 1.884-.058a7.414 7.414 0 001.41-.222c.401-.11.746-.264 1.034-.463.288-.198.54-.458.755-.779.361.503.82.882 1.376 1.135a4.443 4.443 0 001.838.387h.122z"/><path fill="#000000" fill-opacity=".56" d="M190.943 20l1.886-1.886a.666.666 0 10-.943-.943L190 19.057l-1.885-1.886a.667.667 0 00-.943.943L189.057 20l-1.885 1.886a.666.666 0 10.943.943L190 20.943l1.886 1.886a.665.665 0 00.943 0 .666.666 0 000-.943L190.943 20z"/><rect width="95" height="32" x="75" y="4" fill="#000000" fill-opacity=".12" rx="2"/><path fill="#000000" fill-opacity=".56" fill-rule="nonzero" d="M154.494 24c.333 0 .642-.022.928-.067a2.82 2.82 0 00.776-.231c.232-.11.435-.256.612-.439.177-.182.326-.411.447-.687.122-.28.183-.605.183-.974 0-.065-.002-.13-.006-.195-.028-.45-.134-.97-.317-1.558a7.904 7.904 0 00-.194-.563 12.306 12.306 0 00-.335-.786 1.499 1.499 0 01-.055-.124l-1.083.535.53 1.303a3.959 3.959 0 01.273 1.038c.008.107.012.187.012.24 0 .098-.006.189-.018.274-.02.13-.05.237-.091.323a1.09 1.09 0 01-.305.398 1.28 1.28 0 01-.426.216 2.29 2.29 0 01-.542.089c-.198.01-.415.015-.65.015h-.707V24h.968zm.998 3.171l.992-.992-.998-.998-.992.992.998.998zM153.77 24v-1.193h-.122c-.256 0-.476-.026-.66-.08a.95.95 0 01-.418-.218.507.507 0 01-.16-.314 3.288 3.288 0 01-.022-.386v-3.056a42.483 42.483 0 00-.125-3.208 9.023 9.023 0 00-.094-.76l-1.193.218c.036.191.068.436.094.734.026.298.049.624.067.977.018.353.031.718.04 1.096.008.377.012.74.012 1.09.004.356.006.695.006 1.016v.236c-.001.23-.003.44-.006.628a184.985 184.985 0 00-.012.907c0 .097.002.214.006.35.004.136.023.279.057.43.035.15.088.301.159.456.07.154.173.298.307.432.22.219.486.381.8.487.315.105.695.158 1.142.158h.122zm-7.694-9.423l.992-.992-.998-.998-.993.992.999.998zm-.512 13.714c.28 0 .567-.015.862-.045.294-.03.595-.092.904-.183a5.35 5.35 0 001.923-1.05l-.7-1.01a4.25 4.25 0 01-1.245.715c-.456.168-.83.262-1.12.28-.29.018-.492.027-.605.027-.35 0-.69-.038-1.023-.115a3.279 3.279 0 01-1.16-.506 2.433 2.433 0 01-.77-.861 2.384 2.384 0 01-.267-1.13 2.553 2.553 0 01.15-.895c.078-.218.175-.418.29-.598.117-.181.244-.344.384-.49.14-.147.281-.276.423-.39.142-.114.28-.209.411-.286.132-.077.247-.138.344-.183.183-.089.361-.171.536-.246.174-.075.366-.145.575-.21.21-.065.444-.126.706-.183.262-.057.57-.113.922-.17.224-.037.43-.071.618-.104.189-.032.353-.06.493-.082a18.142 18.142 0 00.46-.076l-.256-1.169-1.4.22c-.219.032-.428.048-.627.048-.09 0-.178-.004-.268-.012a2.466 2.466 0 01-.754-.152 1.397 1.397 0 01-.54-.36 1.021 1.021 0 01-.252-.578 2.097 2.097 0 01-.012-.219 1.287 1.287 0 01.38-.925c.136-.134.299-.238.487-.313a2.024 2.024 0 01.728-.143c.13 0 .253.018.371.054.158.049.31.114.454.195.144.081.28.175.41.28l.378.31.876-.833a.315.315 0 01-.076-.064 4.264 4.264 0 00-.69-.551c-.613-.39-1.212-.585-1.796-.585h-.122c-.361.017-.71.106-1.047.268a2.94 2.94 0 00-.876.64c-.248.263-.424.54-.53.827a2.362 2.362 0 00-.158.81c0 .118.01.24.03.365.033.349.127.657.283.925.156.268.383.505.679.712a6.572 6.572 0 00-1.172.6 4.655 4.655 0 00-.974.837c-.282.32-.513.686-.694 1.096-.18.41-.293.866-.337 1.37a4.305 4.305 0 00-.019.389c0 .296.033.574.098.834.089.377.231.719.426 1.025.195.307.432.578.712.813.28.235.59.433.928.593.34.16.7.281 1.084.363.383.08.772.121 1.165.121zM133.171 15.99l.992-.993-.998-.998-.992.992.998.999zM130.7 24c.402-.004.797-.02 1.187-.046s.762-.074 1.117-.143c.355-.069.686-.163.992-.283.306-.12.578-.275.816-.465.237-.191.433-.422.587-.694.154-.272.256-.593.304-.962a4.372 4.372 0 00.019-.986 5.202 5.202 0 00-.186-.959 4.637 4.637 0 00-.356-.876 3.6 3.6 0 00-.5-.722c-.437-.474-.924-.712-1.46-.712-.243 0-.479.06-.706.18a1.86 1.86 0 00-.615.545c-.32.413-.538.929-.651 1.546a3.174 3.174 0 00-.037.456v.104c.008.17.03.322.067.456.037.134.083.253.14.356.057.104.114.192.17.265.106.134.234.253.384.356.15.104.317.19.5.259.182.069.377.12.584.155.207.034.42.052.639.052h.615l-.098.11a1.272 1.272 0 01-.128.121c-.097.081-.25.162-.456.244-.207.08-.46.155-.758.222a9.533 9.533 0 01-1.017.164c-.379.043-.792.064-1.238.064h-.122V24h.207zm3.342-3.323c-.183 0-.378-.005-.585-.013a2.402 2.402 0 01-.49-.079.883.883 0 01-.353-.182.554.554 0 01-.176-.268 1.07 1.07 0 01-.04-.28c0-.07.006-.142.019-.22a2.54 2.54 0 01.155-.547c.067-.158.139-.292.216-.402.077-.11.154-.192.231-.246a.367.367 0 01.201-.083.54.54 0 01.32.107c.099.07.181.143.246.216.207.231.372.521.496.87.124.35.2.72.228 1.114-.133.008-.29.013-.468.013zM126.214 24c.381 0 .713-.015.995-.046.282-.03.529-.077.74-.14a2.273 2.273 0 00.974-.569c.174.223.397.405.67.545.271.14.612.21 1.022.21h.122v-1.193h-.122a.86.86 0 01-.508-.14.999.999 0 01-.31-.353 1.667 1.667 0 01-.162-.463 4.299 4.299 0 01-.067-.474 18.669 18.669 0 00-.11-1.054 5.718 5.718 0 00-.176-.827l-1.145.322c.09.309.152.583.186.822.035.24.052.475.052.706 0 .244-.04.457-.122.64a1.1 1.1 0 01-.38.456 1.85 1.85 0 01-.67.274c-.274.06-.604.091-.99.091h-.906V24h.907zm.225 2.977l.986-.987-.998-.998-.986.992.998.993zm2.496.012l.986-.992-.998-.993-.986.986.998.999zm-6.635-9.642l.992-.992-.998-.998-.992.992.998.998zm-9.471 10.603c.588 0 1.136-.078 1.643-.234.507-.156.95-.393 1.33-.709.38-.317.686-.714.92-1.193.233-.479.37-1.043.41-1.692a7.575 7.575 0 000-.877c.54.378 1.096.632 1.668.764a7.889 7.889 0 002.045.192c.19-.004.4-.018.63-.043a5.723 5.723 0 001.43-.347 3.76 3.76 0 00.692-.353l.048-.03c.07.069.167.137.292.204.126.067.268.128.426.182.159.055.33.1.512.134.182.035.367.052.554.052h.121v-1.193h-.121c-.09 0-.183-.007-.28-.021a2.85 2.85 0 01-.28-.055 2.084 2.084 0 01-.238-.073.426.426 0 01-.146-.082 2.796 2.796 0 00.42-1.443c0-.158-.016-.312-.048-.463a2.242 2.242 0 00-.204-.55 2.355 2.355 0 00-.335-.478 2.498 2.498 0 00-.448-.39c-.365-.251-.684-.392-.958-.423a6.092 6.092 0 00-.6-.046c-.292 0-.584.035-.876.104a4.651 4.651 0 00-1.22.487 5.422 5.422 0 00-1.54 1.296 9.886 9.886 0 00-.412.53 7.218 7.218 0 00-.334.505c-.098.163-.183.31-.256.445a3.824 3.824 0 01-.435-.472 4.691 4.691 0 01-.332-.496 7.762 7.762 0 01-.298-.57l-.329-.69-1.12.468a9.362 9.362 0 01.31.843c.061.19.121.395.18.618.059.223.11.456.155.697.045.242.077.47.098.685.02.215.03.412.03.59 0 .07-.002.138-.006.207-.02.504-.124.933-.31 1.288a2.37 2.37 0 01-.755.861c-.317.22-.66.366-1.029.441a5.403 5.403 0 01-1.467.1c-.422-.028-.777-.106-1.065-.233a2.075 2.075 0 01-.706-.494c-.183-.2-.319-.429-.408-.684a2.467 2.467 0 01-.15-.649 4.238 4.238 0 01.033-1.013c.042-.292.102-.574.18-.846.08-.272.17-.526.272-.761a5.3 5.3 0 01.304-.609l-1.01-.645a2.508 2.508 0 00-.15.265 8.685 8.685 0 00-.648 1.738 6.522 6.522 0 00-.213 1.588c0 .163.008.321.025.475.056.633.241 1.179.553 1.638.313.458.755.816 1.327 1.074.573.258 1.279.386 2.119.386zm7.812-4.943h-.064a5.98 5.98 0 01-.541-.024 6.172 6.172 0 01-.706-.097 4.499 4.499 0 01-.597-.158c.06-.114.132-.24.213-.378a7.236 7.236 0 01.63-.889 5.14 5.14 0 01.423-.45c.187-.174.41-.343.67-.505.26-.162.531-.293.815-.393.284-.099.5-.15.646-.155l.23-.006c.277 0 .528.065.756.195a1.114 1.114 0 01.59 1.004v.049c-.049.54-.306.956-.773 1.248a2.92 2.92 0 01-.636.301 5.376 5.376 0 01-1.36.25c-.167.006-.287.009-.36.009h.064z"/><path fill="#000000" fill-opacity=".56" d="M91.943 20l1.886-1.886a.666.666 0 10-.943-.943L91 19.057l-1.885-1.886a.667.667 0 00-.943.943L90.057 20l-1.885 1.886a.666.666 0 10.943.943L91 20.943l1.886 1.886a.665.665 0 00.943 0 .666.666 0 000-.943L91.943 20z"/></g></g></svg>