<svg xmlns="http://www.w3.org/2000/svg" xmlns:xlink="http://www.w3.org/1999/xlink" width="860" height="342"><defs><filter id="d" width="123.6%" height="149.6%" x="-11.8%" y="-24.8%" filterUnits="objectBoundingBox"><feOffset dy="1" in="SourceAlpha" result="shadowOffsetOuter1"/><feGaussianBlur in="shadowOffsetOuter1" result="shadowBlurOuter1" stdDeviation="3"/><feColorMatrix in="shadowBlurOuter1" result="shadowMatrixOuter1" values="0 0 0 0 0 0 0 0 0 0 0 0 0 0 0 0 0 0 0.08 0"/><feMorphology in="SourceAlpha" radius="2" result="shadowSpreadOuter2"/><feOffset dy="-8" in="shadowSpreadOuter2" result="shadowOffsetOuter2"/><feGaussianBlur in="shadowOffsetOuter2" result="shadowBlurOuter2" stdDeviation="16"/><feColorMatrix in="shadowBlurOuter2" result="shadowMatrixOuter2" values="0 0 0 0 0 0 0 0 0 0 0 0 0 0 0 0 0 0 0.04 0"/><feMorphology in="SourceAlpha" radius="3" result="shadowSpreadOuter3"/><feOffset dy="16" in="shadowSpreadOuter3" result="shadowOffsetOuter3"/><feGaussianBlur in="shadowOffsetOuter3" result="shadowBlurOuter3" stdDeviation="12"/><feColorMatrix in="shadowBlurOuter3" result="shadowMatrixOuter3" values="0 0 0 0 0 0 0 0 0 0 0 0 0 0 0 0 0 0 0.04 0"/><feMerge><feMergeNode in="shadowMatrixOuter1"/><feMergeNode in="shadowMatrixOuter2"/><feMergeNode in="shadowMatrixOuter3"/></feMerge></filter><filter id="g" width="101.7%" height="115.9%" x="-.8%" y="-5.7%" filterUnits="objectBoundingBox"><feOffset dy="1" in="SourceAlpha" result="shadowOffsetOuter1"/><feGaussianBlur in="shadowOffsetOuter1" result="shadowBlurOuter1" stdDeviation="1"/><feComposite in="shadowBlurOuter1" in2="SourceAlpha" operator="out" result="shadowBlurOuter1"/><feColorMatrix in="shadowBlurOuter1" values="0 0 0 0 0 0 0 0 0 0 0 0 0 0 0 0 0 0 0.12 0"/></filter><rect id="a" width="860" height="342" x="0" y="0" rx="4"/><rect id="c" width="424" height="234" x="0" y="0" rx="4"/><linearGradient id="f" x1="50%" x2="50%" y1="0%" y2="100%"><stop offset="0%" stop-color="#FFF" stop-opacity="0"/><stop offset="100%" stop-color="#FFF"/></linearGradient><path id="h" d="M4 0h416a4 4 0 014 4v40H0V4a4 4 0 014-4z"/></defs><g fill="none" fill-rule="evenodd"><mask id="b" fill="#fff"><use xlink:href="#a"/></mask><use fill="#000" fill-opacity="0" xlink:href="#a"/><g mask="url(#b)"><g transform="translate(218 76)"><mask id="e" fill="#fff"><use xlink:href="#c"/></mask><use fill="#000" filter="url(#d)" xlink:href="#c"/><use fill="#FFF" xlink:href="#c"/><path fill="#000000" fill-opacity=".56" fill-rule="nonzero" d="M404.317 58.882c.017-.049.042-.115.076-.198.035-.083.078-.166.128-.25.051-.083.109-.156.174-.219a.353.353 0 01.207-.106.784.784 0 01.365.024c.118.037.242.08.374.13.132.052.273.1.423.147.15.047.317.07.5.07h.036a1.3 1.3 0 00.402-.06c.138-.046.265-.102.38-.171a2.04 2.04 0 00.314-.229c.093-.083.173-.162.24-.237a2.086 2.086 0 00.216-.283l-.694-.45a3.633 3.633 0 01-.118.146c-.055.065-.122.13-.201.197-.08.067-.164.123-.253.168a.594.594 0 01-.268.067h-.024a1.359 1.359 0 01-.35-.055 3.69 3.69 0 01-.326-.116 4.624 4.624 0 00-.401-.146 1.624 1.624 0 00-.487-.067c-.175 0-.345.038-.512.113a1.693 1.693 0 00-.456.304 1.831 1.831 0 00-.548.971l.803.25zm2.24 9.118c.057-.402.09-.855.1-1.36.011-.506.016-.92.016-1.245 0-.54-.006-1.147-.018-1.82a55.828 55.828 0 00-.08-2.07 81.379 81.379 0 00-.164-2.313l-1.193.183c.057.548.108 1.221.152 2.02.045.8.082 1.733.11 2.8a27.95 27.95 0 01-.006 1.857c-.02.621-.059 1.248-.116 1.881l1.2.067zm-6.367 0c.333 0 .643-.022.929-.067a2.82 2.82 0 00.776-.231c.231-.11.435-.256.612-.439.176-.182.325-.411.447-.687.122-.28.183-.605.183-.974 0-.065-.003-.13-.007-.195-.028-.45-.133-.97-.316-1.558a7.904 7.904 0 00-.195-.563 12.302 12.302 0 00-.335-.786 1.499 1.499 0 01-.054-.124l-1.084.535.53 1.303a3.959 3.959 0 01.274 1.038c.008.107.012.187.012.24 0 .098-.006.189-.019.274a1.09 1.09 0 01-.396.721 1.28 1.28 0 01-.425.216 2.29 2.29 0 01-.542.089c-.199.01-.416.015-.651.015h-.706V68h.967zm.999 3.171l.992-.992-.998-.998-.993.992.999.998zM399.466 68v-1.193h-.122c-.255 0-.475-.026-.66-.08a.95.95 0 01-.417-.218.507.507 0 01-.161-.314 3.288 3.288 0 01-.022-.386v-3.056a42.483 42.483 0 00-.124-3.208 9.022 9.022 0 00-.095-.76l-1.193.218c.037.191.068.436.095.734.026.298.048.624.066.977.019.353.032.718.04 1.096.008.377.012.74.012 1.09a89.654 89.654 0 010 1.88 184.945 184.945 0 00-.011.837v.174c0 .073.002.155.005.246a2.35 2.35 0 00.216.886c.071.154.174.298.308.432.219.219.486.381.8.487.315.105.695.158 1.141.158h.122zm-7.463-.006c.244 0 .488-.018.734-.055.245-.036.482-.095.71-.176a3.04 3.04 0 00.635-.314c.197-.128.368-.28.515-.46a1.474 1.474 0 00.317-.645c.032-.142.049-.304.05-.487a2.812 2.812 0 00-.07-.614 4.424 4.424 0 00-.276-.795 6.44 6.44 0 00-.445-.815 8.06 8.06 0 00-1.232-1.495 6.963 6.963 0 00-.71-.59 4.27 4.27 0 00-.72-.426l-.494 1.108c.183.08.37.19.56.328.191.138.379.296.563.475.185.179.363.37.533.575.17.205.326.416.466.633.14.217.26.435.359.652.1.217.171.425.216.624.032.146.049.271.049.377 0 .146-.03.256-.092.329-.138.166-.308.29-.511.37a1.959 1.959 0 01-.548.144 3.497 3.497 0 01-.84-.01 5.173 5.173 0 01-1.418-.386 3.7 3.7 0 01-.542-.283l-.499 1.145c.101.093.262.186.48.28a7.375 7.375 0 001.519.441c.266.047.497.07.691.07zm-4.254.06a28.5 28.5 0 00.1-1.904c.01-.597.015-1.074.015-1.43 0-.593-.006-1.226-.018-1.9a55.636 55.636 0 00-.31-4.431l-1.193.182c.138 1.279.247 2.902.328 4.87.012.337.019.694.019 1.071 0 .313-.004.64-.013.98-.02.755-.063 1.587-.127 2.496l1.199.067zm-7.256-2.994l.992-.992-.998-.998-.992.992.998.998zm-.268 7.122c.5 0 .973-.053 1.422-.159a4.386 4.386 0 001.226-.483c.37-.218.693-.492.97-.825.279-.333.495-.729.65-1.187.145-.438.224-.788.237-1.05.012-.262.018-.437.018-.527a6.278 6.278 0 00-.344-2.066 9.757 9.757 0 00-.347-.889 6.902 6.902 0 00-.46-.867l-1.01.645a.39.39 0 01.043.065l.07.114c.07.12.153.285.246.494.093.209.188.454.283.736a5.788 5.788 0 01.301 1.854v.073a3.791 3.791 0 01-.176 1.053c-.09.284-.223.538-.402.764-.178.225-.4.415-.663.572-.264.156-.57.275-.92.356a5.17 5.17 0 01-1.168.122c-.345 0-.652-.038-.922-.113a2.885 2.885 0 01-.706-.292c-.201-.12-.373-.255-.515-.405a2.65 2.65 0 01-.353-.46 2.218 2.218 0 01-.21-.45 2.4 2.4 0 01-.094-.38 3.57 3.57 0 01-.03-.719c.012-.243.039-.483.082-.718.042-.235.096-.462.16-.679.066-.217.134-.417.205-.6a5.35 5.35 0 01.21-.477c.069-.136.13-.24.182-.314l-.967-.712a8.651 8.651 0 00-.478.922c-.152.34-.28.697-.384 1.075a5.673 5.673 0 00-.191.983 5.374 5.374 0 00.018 1.41c.081.53.238.993.472 1.387.233.393.526.72.88.977.352.257.755.45 1.207.578.453.128.939.192 1.458.192zm24.092 26.7c.017-.049.042-.115.076-.198.035-.083.078-.166.128-.25.051-.083.109-.156.174-.219a.353.353 0 01.207-.106.784.784 0 01.365.024c.118.037.242.08.374.13.132.052.273.1.423.147.15.047.317.07.5.07h.036a1.3 1.3 0 00.402-.06c.138-.046.265-.102.38-.171a2.04 2.04 0 00.314-.229c.093-.083.173-.162.24-.237a2.086 2.086 0 00.216-.283l-.694-.45a3.633 3.633 0 01-.118.146c-.055.065-.122.13-.201.197-.08.067-.164.123-.253.168a.594.594 0 01-.268.067h-.024a1.359 1.359 0 01-.35-.055 3.69 3.69 0 01-.326-.116 4.624 4.624 0 00-.401-.146 1.624 1.624 0 00-.487-.067c-.175 0-.345.038-.512.113a1.693 1.693 0 00-.456.304 1.831 1.831 0 00-.548.971l.803.25zm2.24 9.118c.057-.402.09-.855.1-1.36.011-.506.016-.92.016-1.245 0-.54-.006-1.147-.018-1.82a55.828 55.828 0 00-.08-2.07 81.38 81.38 0 00-.164-2.313l-1.193.183c.057.548.108 1.221.152 2.02.045.8.082 1.733.11 2.8a27.95 27.95 0 01-.006 1.857c-.02.621-.059 1.248-.116 1.881l1.2.067zm-6.367 0c.333 0 .643-.022.929-.067a2.82 2.82 0 00.776-.231c.231-.11.435-.256.612-.439.176-.182.325-.411.447-.687.122-.28.183-.605.183-.974 0-.065-.003-.13-.007-.195-.028-.45-.133-.97-.316-1.558a7.904 7.904 0 00-.195-.563 12.302 12.302 0 00-.335-.786 1.499 1.499 0 01-.054-.124l-1.084.535.53 1.303a3.959 3.959 0 01.274 1.038c.008.107.012.187.012.24 0 .098-.006.189-.019.274a1.09 1.09 0 01-.396.721 1.28 1.28 0 01-.425.216 2.29 2.29 0 01-.542.089c-.199.01-.416.015-.651.015h-.706V108h.967zm.999 3.171l.992-.992-.998-.998-.993.992.999.998zM399.466 108v-1.193h-.122c-.255 0-.475-.026-.66-.08a.95.95 0 01-.417-.218.507.507 0 01-.161-.314 3.288 3.288 0 01-.022-.386v-3.056a42.483 42.483 0 00-.124-3.208 9.022 9.022 0 00-.095-.76l-1.193.218c.037.191.068.436.095.734.026.298.048.624.066.977.019.353.032.718.04 1.096.008.377.012.74.012 1.09a89.654 89.654 0 010 1.88 184.943 184.943 0 00-.011.837v.174c0 .073.002.155.005.246a2.35 2.35 0 00.216.886c.071.154.174.298.308.432.219.219.486.381.8.487.315.105.695.158 1.141.158h.122zm-7.463-.006c.244 0 .488-.018.734-.055.245-.036.482-.095.71-.176a3.04 3.04 0 00.635-.314c.197-.128.368-.28.515-.46a1.474 1.474 0 00.317-.645c.032-.142.049-.304.05-.487a2.812 2.812 0 00-.07-.614 4.424 4.424 0 00-.276-.795 6.44 6.44 0 00-.445-.815 8.06 8.06 0 00-1.232-1.495 6.963 6.963 0 00-.71-.59 4.27 4.27 0 00-.72-.426l-.494 1.108c.183.08.37.19.56.328.191.138.379.296.563.475.185.179.363.37.533.575.17.205.326.416.466.633.14.217.26.435.359.652.1.217.171.425.216.624.032.146.049.271.049.377 0 .146-.03.256-.092.329-.138.166-.308.29-.511.37a1.959 1.959 0 01-.548.144 3.497 3.497 0 01-.84-.01 5.173 5.173 0 01-1.418-.386 3.7 3.7 0 01-.542-.283l-.499 1.145c.101.093.262.186.48.28a7.376 7.376 0 001.519.441c.266.047.497.07.691.07zm-6.39.006c.072 0 .163-.003.27-.01.108-.005.222-.02.344-.042.122-.022.25-.052.383-.091.134-.039.266-.09.396-.155.357-.175.628-.416.813-.725.184-.308.277-.671.277-1.09 0-.417-.122-.872-.366-1.363-.243-.49-.614-1.02-1.113-1.588a12.198 12.198 0 00-.512-.539 18.557 18.557 0 00-.447-.43 11.029 11.029 0 00-.32-.285 1.231 1.231 0 01-.128-.116l-.767.931a.92.92 0 00.11.098c.073.06.17.146.292.255a8.658 8.658 0 00-.712.743c-.661.795-.992 1.56-.992 2.295 0 .418.1.78.298 1.086.199.307.493.551.883.734.15.073.298.13.444.17.146.04.28.07.399.089a2.466 2.466 0 00.447.033zm.044-1.212h-.078c-.025 0-.057-.003-.095-.005a2.482 2.482 0 01-.414-.076 1.455 1.455 0 01-.237-.089.936.936 0 01-.262-.164.759.759 0 01-.149-.186.585.585 0 01-.067-.191 1.222 1.222 0 01-.015-.19c0-.206.048-.415.143-.626.095-.211.212-.414.35-.609.138-.195.285-.373.441-.535.157-.163.294-.297.411-.402.394.426.694.828.901 1.205.207.377.31.7.31.968a.885.885 0 01-.1.447.803.803 0 01-.326.295 1.236 1.236 0 01-.243.086c-.085.02-.166.036-.244.048-.077.013-.148.02-.213.022a5.281 5.281 0 01-.158.003h.045zm18.66 32.094c.017-.049.042-.115.076-.198.035-.083.078-.166.128-.25.051-.083.109-.156.174-.219a.353.353 0 01.207-.106.784.784 0 01.365.024c.118.037.242.08.374.13.132.052.273.1.423.147.15.047.317.07.5.07h.036a1.3 1.3 0 00.402-.06c.138-.046.265-.102.38-.171a2.04 2.04 0 00.314-.229c.093-.083.173-.162.24-.237a2.086 2.086 0 00.216-.283l-.694-.45a3.633 3.633 0 01-.118.146c-.055.065-.122.13-.201.197-.08.067-.164.123-.253.168a.594.594 0 01-.268.067h-.024a1.359 1.359 0 01-.35-.055 3.69 3.69 0 01-.326-.116 4.624 4.624 0 00-.401-.146 1.624 1.624 0 00-.487-.067c-.175 0-.345.038-.512.113a1.693 1.693 0 00-.456.304 1.831 1.831 0 00-.548.971l.803.25zm2.24 9.118c.057-.402.09-.855.1-1.36.011-.506.016-.92.016-1.245 0-.54-.006-1.147-.018-1.82a55.828 55.828 0 00-.08-2.07 81.38 81.38 0 00-.164-2.313l-1.193.183c.057.548.108 1.221.152 2.02.045.8.082 1.733.11 2.8a27.95 27.95 0 01-.006 1.857c-.02.621-.059 1.248-.116 1.881l1.2.067zm-6.367 0c.333 0 .643-.022.929-.067a2.82 2.82 0 00.776-.231c.231-.11.435-.256.612-.439.176-.182.325-.411.447-.687.122-.28.183-.605.183-.974 0-.065-.003-.13-.007-.195-.028-.45-.133-.97-.316-1.558a7.904 7.904 0 00-.195-.563 12.302 12.302 0 00-.335-.786 1.499 1.499 0 01-.054-.124l-1.084.535.53 1.303a3.959 3.959 0 01.274 1.038c.008.107.012.187.012.24 0 .098-.006.189-.019.274a1.09 1.09 0 01-.396.721 1.28 1.28 0 01-.425.216 2.29 2.29 0 01-.542.089c-.199.01-.416.015-.651.015h-.706V148h.967zm.999 3.171l.992-.992-.998-.998-.993.992.999.998zM399.466 148v-1.193h-.122c-.243 0-.444-.031-.602-.094a1.088 1.088 0 01-.396-.262 1.536 1.536 0 01-.27-.408 13.54 13.54 0 01-.235-.533c-.158-.369-.308-.723-.448-1.062a3423.239 3423.239 0 01-1.415-3.436l-1.108.463 1.924 4.626a2.31 2.31 0 01-.81.511c-.219.085-.404.135-.557.15a4.04 4.04 0 01-.344.02c-.162 0-.324-.018-.486-.054a2.792 2.792 0 01-.737-.28 3.6 3.6 0 01-.737-.542l-.687.968c.345.357.721.634 1.129.83a3.02 3.02 0 001.33.296c.288 0 .548-.017.779-.052.231-.034.445-.085.642-.152.197-.067.382-.151.554-.253a4.65 4.65 0 00.514-.353 2.1 2.1 0 00.305.314c.117.1.254.186.41.259.157.073.337.13.542.173.205.043.44.064.703.064h.122zm-8.74.055a28.5 28.5 0 00.1-1.905c.01-.597.015-1.074.015-1.43 0-.593-.006-1.226-.018-1.9a55.636 55.636 0 00-.31-4.431l-1.194.182c.138 1.279.248 2.902.329 4.87.012.337.018.694.018 1.071 0 .313-.004.64-.012.98-.02.755-.063 1.587-.128 2.496l1.2.067zm-4.858-6.696l.992-.992-.998-.998-.992.992.998.998zm-.974 6.641c.333 0 .642-.022.928-.067a2.82 2.82 0 00.776-.231c.232-.11.435-.256.612-.439.177-.182.326-.411.447-.687.122-.28.183-.605.183-.974 0-.065-.002-.13-.006-.195-.028-.45-.134-.97-.317-1.558a7.904 7.904 0 00-.194-.563 12.306 12.306 0 00-.335-.786 1.499 1.499 0 01-.055-.124l-1.083.535.53 1.303a3.959 3.959 0 01.273 1.038c.008.107.012.187.012.24 0 .098-.006.189-.018.274-.02.13-.05.237-.091.323a1.09 1.09 0 01-.305.398 1.28 1.28 0 01-.426.216 2.29 2.29 0 01-.542.089c-.198.01-.415.015-.65.015h-.707V148h.968zm-.724 0v-1.193h-.122c-.256 0-.476-.026-.66-.08a.95.95 0 01-.418-.218.507.507 0 01-.16-.314 3.288 3.288 0 01-.022-.386v-3.056a42.483 42.483 0 00-.125-3.208 9.023 9.023 0 00-.094-.76l-1.193.218c.036.191.068.436.094.734.026.298.049.624.067.977.018.353.031.718.04 1.096.008.377.012.74.012 1.09.004.356.006.695.006 1.016v.236c-.001.23-.003.44-.006.628a184.984 184.984 0 00-.012.907c0 .097.002.214.006.35.004.136.023.279.057.43.035.15.088.301.159.456.07.154.173.298.307.432.22.219.486.381.8.487.315.105.695.158 1.142.158h.122zm-8.85-2.94l.991-.992-.998-.998-.992.992.998.998zm-.269 7.122c.5 0 .973-.053 1.422-.159a4.386 4.386 0 001.226-.483c.37-.218.693-.492.971-.825.278-.333.494-.729.648-1.187.146-.438.225-.788.238-1.05.012-.262.018-.437.018-.527a6.278 6.278 0 00-.344-2.066 9.757 9.757 0 00-.347-.889 6.902 6.902 0 00-.46-.867l-1.01.645c.004 0 .042.06.113.18.07.12.153.284.246.493.094.209.188.454.283.736a5.788 5.788 0 01.302 1.854v.073a3.791 3.791 0 01-.177 1.053c-.09.284-.223.538-.402.764-.178.225-.4.415-.663.572-.264.156-.57.275-.92.356a5.17 5.17 0 01-1.168.122c-.345 0-.652-.038-.922-.113a2.885 2.885 0 01-.706-.292c-.201-.12-.373-.255-.515-.405a2.65 2.65 0 01-.353-.46 2.218 2.218 0 01-.21-.45 2.4 2.4 0 01-.094-.38 3.57 3.57 0 01-.03-.719c.012-.243.04-.483.082-.718s.096-.462.161-.679c.065-.217.133-.417.204-.6a5.35 5.35 0 01.21-.477c.069-.136.13-.24.183-.314l-.968-.712a8.651 8.651 0 00-.478.922c-.152.34-.28.697-.384 1.075a5.673 5.673 0 00-.191.983 5.374 5.374 0 00.018 1.41c.081.53.238.993.472 1.387.233.393.526.72.88.977.352.257.755.45 1.207.578.453.128.939.192 1.458.192zm29.266 26.7c.017-.049.042-.115.076-.198.035-.083.078-.166.128-.25.051-.083.109-.156.174-.219a.353.353 0 01.207-.106.784.784 0 01.365.024c.118.037.242.08.374.13.132.052.273.1.423.147.15.047.317.07.5.07h.036a1.3 1.3 0 00.402-.06c.138-.046.265-.102.38-.171a2.04 2.04 0 00.314-.229c.093-.083.173-.162.24-.237a2.086 2.086 0 00.216-.283l-.694-.45a3.633 3.633 0 01-.118.146c-.055.065-.122.13-.201.197-.08.067-.164.123-.253.168a.594.594 0 01-.268.067h-.024a1.359 1.359 0 01-.35-.055 3.69 3.69 0 01-.326-.116 4.624 4.624 0 00-.401-.146 1.624 1.624 0 00-.487-.067c-.175 0-.345.038-.512.113a1.693 1.693 0 00-.456.304 1.831 1.831 0 00-.548.971l.803.25zm2.24 9.118c.057-.402.09-.855.1-1.36.011-.506.016-.92.016-1.245 0-.54-.006-1.147-.018-1.82a55.828 55.828 0 00-.08-2.07 81.38 81.38 0 00-.164-2.313l-1.193.183c.057.548.108 1.221.152 2.02.045.8.082 1.733.11 2.8a27.95 27.95 0 01-.006 1.857c-.02.621-.059 1.248-.116 1.881l1.2.067zm-6.367 0c.333 0 .643-.022.929-.067a2.82 2.82 0 00.776-.231c.231-.11.435-.256.612-.439.176-.182.325-.411.447-.687.122-.28.183-.605.183-.974 0-.065-.003-.13-.007-.195-.028-.45-.133-.97-.316-1.558a7.904 7.904 0 00-.195-.563 12.302 12.302 0 00-.335-.786 1.499 1.499 0 01-.054-.124l-1.084.535.53 1.303a3.959 3.959 0 01.274 1.038c.008.107.012.187.012.24 0 .098-.006.189-.019.274a1.09 1.09 0 01-.396.721 1.28 1.28 0 01-.425.216 2.29 2.29 0 01-.542.089c-.199.01-.416.015-.651.015h-.706V188h.967zm.999 3.171l.992-.992-.998-.998-.993.992.999.998zM394.943 188c.382 0 .714-.015.996-.046.282-.03.528-.077.74-.14a2.273 2.273 0 00.973-.569c.175.223.398.405.67.545s.612.21 1.022.21h.122v-1.193h-.122a.86.86 0 01-.508-.14.999.999 0 01-.31-.353 1.667 1.667 0 01-.162-.463 4.299 4.299 0 01-.067-.474 18.669 18.669 0 00-.11-1.054 5.718 5.718 0 00-.176-.827l-1.144.322c.09.309.151.583.186.822.034.24.051.475.051.706 0 .244-.04.457-.121.64a1.1 1.1 0 01-.38.456 1.85 1.85 0 01-.67.274c-.274.06-.604.091-.99.091h-.906V188h.906zm.226 2.977l.986-.987-.998-.998-.987.992.999.993zm2.495.012l.986-.992-.998-.993-.986.986.998.999zM394.28 188v-1.193h-.17a4.062 4.062 0 01-.664-.06 2.172 2.172 0 01-.542-.171 2.384 2.384 0 01-.627-.42 2.84 2.84 0 01-.435-.524c-.12-.186-.219-.38-.298-.578-.08-.199-.151-.396-.216-.59a4.752 4.752 0 00-.441-.929 7.121 7.121 0 00-.658-.907 8.656 8.656 0 00-.834-.852c-.306-.274-.63-.53-.97-.77l4.82-2.033-.456-1.108-5.46 2.35-.165 1.345c.163.126.353.276.573.45a15.393 15.393 0 011.366 1.236c.225.231.423.465.594.7.17.235.298.458.383.667.085.209.128.398.128.569 0 .044-.002.089-.006.134-.025.215-.121.414-.29.596-.168.183-.43.341-.788.475-.272.105-.667.19-1.187.253-.519.062-1.193.112-2.02.149a7.446 7.446 0 01-.78-.012 10.485 10.485 0 01-1.753-.28 7.116 7.116 0 01-.797-.25 3.113 3.113 0 01-.627-.317 1.008 1.008 0 01-.36-.377.927.927 0 01-.09-.42v-.055c.008-.174.042-.355.103-.541.06-.187.139-.37.234-.548.096-.179.194-.34.296-.481l-.962-.718a1.722 1.722 0 00-.07.11c-.035.056-.077.128-.128.215a6.37 6.37 0 00-.35.71c-.179.405-.277.712-.295.918a5.82 5.82 0 00-.028.427c0 .247.037.474.11.681.093.272.24.514.441.725.201.21.44.396.716.557.275.16.583.295.922.404.339.11.694.2 1.065.268.371.07.752.119 1.141.15.39.03.775.045 1.157.045.718 0 1.346-.02 1.884-.058a7.414 7.414 0 001.409-.222c.402-.11.746-.264 1.035-.463.288-.198.54-.458.754-.779.362.503.82.882 1.376 1.135a4.443 4.443 0 001.838.387h.122zm10.037 30.882c.017-.049.042-.115.076-.198.035-.083.078-.166.128-.25.051-.083.109-.156.174-.219a.353.353 0 01.207-.106.784.784 0 01.365.024c.118.037.242.08.374.13.132.052.273.1.423.147.15.047.317.07.5.07h.036a1.3 1.3 0 00.402-.06c.138-.046.265-.102.38-.171a2.04 2.04 0 00.314-.229c.093-.083.173-.162.24-.237a2.086 2.086 0 00.216-.283l-.694-.45a3.633 3.633 0 01-.118.146c-.055.065-.122.13-.201.197-.08.067-.164.123-.253.168a.594.594 0 01-.268.067h-.024a1.359 1.359 0 01-.35-.055 3.69 3.69 0 01-.326-.116 4.624 4.624 0 00-.401-.146 1.624 1.624 0 00-.487-.067c-.175 0-.345.038-.512.113a1.693 1.693 0 00-.456.304 1.831 1.831 0 00-.548.971l.803.25zm2.24 9.118c.057-.402.09-.855.1-1.36.011-.506.016-.92.016-1.245 0-.54-.006-1.147-.018-1.82a55.828 55.828 0 00-.08-2.07 81.38 81.38 0 00-.164-2.313l-1.193.183c.057.548.108 1.221.152 2.02.045.8.082 1.733.11 2.8a27.95 27.95 0 01-.006 1.857c-.02.621-.059 1.248-.116 1.881l1.2.067zm-6.908-8.04l.992-.993-.998-.998-.993.992.999.998zm.505 8.034c.243 0 .488-.018.733-.055.246-.036.482-.095.71-.176a3.04 3.04 0 00.636-.314c.196-.128.368-.28.514-.46a1.474 1.474 0 00.317-.645c.032-.142.05-.304.051-.487a2.812 2.812 0 00-.07-.614 4.424 4.424 0 00-.277-.795 6.44 6.44 0 00-.444-.815 8.06 8.06 0 00-1.233-1.495 6.963 6.963 0 00-.709-.59 4.27 4.27 0 00-.721-.426l-.493 1.108c.182.08.37.19.56.328.19.138.378.296.563.475.185.179.362.37.532.575.17.205.326.416.466.633.14.217.26.435.36.652.099.217.17.425.215.624.033.146.049.271.049.377 0 .146-.03.256-.091.329-.138.166-.309.29-.512.37a1.959 1.959 0 01-.547.144 3.497 3.497 0 01-.84-.01 5.173 5.173 0 01-1.419-.386 3.7 3.7 0 01-.541-.283l-.5 1.145c.102.093.262.186.481.28a7.376 7.376 0 001.519.441c.266.047.496.07.69.07zm-8.071 4.364c.34-.166.676-.354 1.007-.563.33-.209.645-.437.943-.685.299-.247.575-.51.828-.79.254-.28.473-.575.658-.883.184-.309.328-.628.432-.96.103-.33.155-.672.155-1.025 0-.178-.014-.361-.043-.548a8.705 8.705 0 00-.106-.569c-.043-.193-.09-.387-.14-.584l-.15-.588a9.052 9.052 0 00-.151-.556 65.444 65.444 0 01-.17-.564l-1.157.366c.11.34.213.681.31 1.022.045.167.091.337.14.512.049.174.093.349.134.523.04.175.074.345.1.511.027.167.04.325.04.475 0 .394-.095.775-.286 1.145a4.51 4.51 0 01-.758 1.046 6.964 6.964 0 01-1.074.91 9.912 9.912 0 01-1.242.734l.53 1.071zm-4.237-12.454l.901-.9-.907-.907-.9.9.906.907zm-1.376 1.924l.987-.992-.999-.999-.986.993.998.998zm2.673.006l.986-.986-.999-.998-.986.986.999.998zm.207 6.239c.377 0 .708-.053.992-.158.292-.106.535-.258.73-.457.195-.199.341-.439.438-.721.098-.282.147-.598.147-.947 0-.23-.022-.468-.064-.712a6.734 6.734 0 00-.165-.712 10.71 10.71 0 00-.751-1.899l-1.066.56a10.738 10.738 0 01.515 1.245c.087.257.162.52.225.788s.094.517.094.749c0 .178-.02.339-.06.48a.814.814 0 01-.198.354.668.668 0 01-.31.185 1.37 1.37 0 01-.35.046c-.07 0-.143-.004-.22-.012a.568.568 0 01-.307-.119.741.741 0 01-.201-.256 1.287 1.287 0 01-.11-.359 2.647 2.647 0 01-.033-.429c0-.166.012-.356.036-.569.025-.213.052-.414.082-.603.03-.188.058-.35.083-.484l.03-.194-1.169-.213a14.56 14.56 0 01-.1.587 8.363 8.363 0 01-.165.697c-.066.24-.148.475-.243.706a3.216 3.216 0 01-.335.621c-.128.183-.274.33-.438.444a.956.956 0 01-.557.17.643.643 0 01-.323-.072.545.545 0 01-.2-.195.852.852 0 01-.104-.277c-.02-.104-.03-.21-.03-.32 0-.158.016-.33.048-.514.033-.185.071-.365.116-.542a11.172 11.172 0 01.256-.873l-1.206-.256c-.04.199-.089.41-.146.633a6.81 6.81 0 01-.207.667 4.861 4.861 0 01-.286.636c-.11.203-.238.382-.386.539a1.812 1.812 0 01-.509.377c-.19.095-.405.143-.645.143h-.134V228h.128c.236 0 .452-.02.648-.058a2.366 2.366 0 00.99-.432c.138-.103.267-.22.39-.35.064.15.156.282.276.396.12.113.253.209.399.286.146.077.3.135.46.173a1.989 1.989 0 001.445-.192c.308-.166.584-.391.828-.675.085.13.189.25.31.362.122.112.254.209.396.292.142.083.291.15.447.198.157.049.312.073.466.073h.043zm-9.143 3.932l.76-.925a1.506 1.506 0 01-.389-.584 1.813 1.813 0 01-.103-.585 1.935 1.935 0 01.173-.77c.096-.213.22-.402.375-.569a1.92 1.92 0 01.532-.405c.201-.103.415-.159.642-.167h.17v-1.193h-.12c-.236 0-.47.035-.704.106a3.138 3.138 0 00-1.738 1.33 2.39 2.39 0 00-.359 1.425 1.43 1.43 0 01-.374-.338 4.072 4.072 0 01-.332-.478 5.662 5.662 0 01-.27-.511c-.08-.17-.144-.315-.193-.432.272-.045.532-.117.78-.216.247-.1.476-.226.687-.378a2.902 2.902 0 00.98-1.238c.073-.175.117-.35.131-.527.014-.177.022-.32.022-.43 0-.15-.009-.306-.025-.468a4.61 4.61 0 00-.173-.812 2.974 2.974 0 00-.326-.722 1.702 1.702 0 00-.466-.499 1.012 1.012 0 00-.587-.182h-.06c-.277.012-.53.095-.762.25a2.56 2.56 0 00-.624.599 4.15 4.15 0 00-.48.834c-.136.31-.25.624-.338.943-.09.319-.152.613-.186.883s-.052.5-.052.69c0 .061.002.118.006.171h-.98V228h1.206l.054.152a6.811 6.811 0 001.084 2.04c.255.332.552.653.889.961.336.308.72.593 1.15.852zm-2.015-5.259c-.06 0-.124-.004-.189-.012a2.17 2.17 0 01-.018-.292c0-.09.004-.183.012-.28.02-.211.058-.426.113-.645.055-.22.123-.435.204-.646.081-.21.172-.4.274-.569.101-.168.208-.306.32-.414a.585.585 0 01.337-.18c.183.135.316.307.399.518.083.211.124.434.122.67a2.064 2.064 0 01-.131.7 2.05 2.05 0 01-.356.617c-.152.181-.323.315-.512.402-.188.087-.38.131-.575.131zm-7.432 5.746a11.123 11.123 0 001.491-.9 7.948 7.948 0 001.288-1.142c.375-.416.676-.865.904-1.348.227-.483.34-.99.34-1.522v-.024c.102.11.208.194.32.255a1.475 1.475 0 00.624.183c.09.004.162.006.22.006h.103v-1.193h-.098c-.203 0-.388-.049-.557-.146a1.645 1.645 0 01-.484-.46 4.3 4.3 0 01-.45-.81c-.146-.33-.296-.73-.45-1.201l-1.145.353c.049.15.108.337.177.563.069.225.138.465.207.721.069.256.132.516.191.782.06.266.103.514.131.746a2.272 2.272 0 01-.067.822 3.158 3.158 0 01-.332.785c-.148.251-.33.492-.544.721-.215.23-.45.447-.706.654a8.3 8.3 0 01-.816.582c-.288.18-.578.346-.87.496l.523 1.077z" mask="url(#e)"/><path fill="url(#f)" d="M0 218h424v12a4 4 0 01-4 4H4a4 4 0 01-4-4v-12z" mask="url(#e)"/><rect width="4" height="64" x="4" y="48" fill="#000000" fill-opacity=".12" mask="url(#e)" rx="2"/><g mask="url(#e)"><use fill="#000" filter="url(#g)" xlink:href="#h"/><use fill="#FFF" fill-opacity=".98" xlink:href="#h"/></g><path fill="#000000" fill-opacity=".32" fill-rule="nonzero" d="M379.326 25c.525 0 1.045-.049 1.56-.146a12.443 12.443 0 001.494-.378c.482-.155.943-.328 1.383-.52.44-.19.851-.382 1.234-.573.26-.13.511-.252.751-.368.24-.117.482-.225.725-.326l-.198-.992a3.07 3.07 0 01-.642-.067 5.132 5.132 0 01-.636-.18 8.437 8.437 0 01-.634-.253c-.21-.094-.418-.19-.623-.287a73.307 73.307 0 00-.559-.256 7.597 7.597 0 00-.542-.222 4.228 4.228 0 00-.525-.154 2.34 2.34 0 00-.508-.057c-.338 0-.659.082-.963.245a2.96 2.96 0 00-.863.736 3.54 3.54 0 00-.248.328 8.462 8.462 0 00-.183.287 2.656 2.656 0 00-.159.298l.94.422a2.765 2.765 0 01.193-.342c.062-.095.137-.198.223-.307.087-.11.186-.212.295-.308.11-.096.229-.175.358-.237a.919.919 0 01.407-.094c.107 0 .226.016.354.05.13.032.266.077.41.132.144.056.294.12.449.19l.477.222c.212.101.428.2.647.298.22.097.449.188.689.271-.397.198-.809.391-1.237.58-.428.187-.866.354-1.315.5a11.26 11.26 0 01-1.367.352 7.355 7.355 0 01-1.387.133h-1.133V25h1.133zm3.172 2.708l.85-.85-.855-.856-.85.85.855.856zm-10.675-2.692c.17 0 .333-.026.488-.076.155-.05.3-.122.438-.214.137-.092.264-.2.381-.323a2.77 2.77 0 00.316-.405c.128.31.323.554.584.733.26.18.565.269.913.269.177 0 .344-.026.5-.078a1.68 1.68 0 00.794-.559c.104-.132.191-.28.26-.443.091.167.2.317.33.449.128.132.27.245.425.339.154.094.319.166.493.216.174.05.351.076.532.076h.125v-1.023h-.125c-.25 0-.477-.105-.681-.315-.203-.21-.375-.53-.514-.958a4.11 4.11 0 01-.122-.443 6.996 6.996 0 01-.12-.76 25.941 25.941 0 01-.034-.346l-1.023.083c.007.125.013.256.018.392a9.286 9.286 0 01.003.647 5.828 5.828 0 01-.052.602c-.028.2-.074.381-.139.543-.064.161-.15.292-.258.391a.585.585 0 01-.412.149.581.581 0 01-.412-.141.825.825 0 01-.222-.365 1.602 1.602 0 01-.078-.407 3.986 3.986 0 01.013-.673c.014-.192.035-.374.062-.548.028-.174.05-.322.068-.444l-1.017-.193c-.017.16-.043.34-.076.54a6.157 6.157 0 01-.331 1.213 2.43 2.43 0 01-.277.527 1.423 1.423 0 01-.373.37c-.14.095-.3.142-.477.142a.386.386 0 01-.326-.146.719.719 0 01-.141-.337 2.405 2.405 0 01-.023-.556c.01-.187.03-.373.06-.555a10.925 10.925 0 01.174-.874l-1.001-.277c-.021.084-.044.183-.068.298-.025.114-.057.24-.097.378-.04.137-.088.283-.143.438a4.344 4.344 0 01-.204.472 3.531 3.531 0 01-.266.42c-.1.138-.211.261-.331.37-.12.11-.249.198-.386.264a.97.97 0 01-.425.1h-.11V25h.11a1.934 1.934 0 001.027-.284c.147-.089.28-.196.402-.321s.237-.265.345-.418a1.427 1.427 0 001.403 1.039zm-6.365-4.957l.845-.845-.856-.856-.845.85.856.851zm2.139.01l.845-.85-.856-.85-.845.845.856.856zM364.868 25c.327 0 .612-.013.853-.04.242-.025.453-.065.634-.12a1.948 1.948 0 00.835-.487c.15.191.34.347.574.467.233.12.525.18.876.18h.105v-1.023h-.105a.737.737 0 01-.435-.12.856.856 0 01-.266-.302 1.429 1.429 0 01-.139-.397 3.685 3.685 0 01-.057-.407 16 16 0 00-.094-.902 4.9 4.9 0 00-.151-.71l-.981.277c.076.264.13.499.159.704.03.205.044.407.044.605 0 .209-.034.392-.104.548a.942.942 0 01-.326.391c-.148.105-.34.183-.574.235a3.964 3.964 0 01-.848.078h-.777V25h.777zm-8.723 0c.542 0 1.055-.04 1.539-.123.483-.081.942-.19 1.375-.323.433-.134.844-.285 1.234-.454.39-.169.763-.342 1.121-.52.087.223.217.423.389.598.172.176.377.325.616.446.238.122.507.215.806.28.299.064.62.096.965.096h.11v-1.023h-.11c-.063 0-.146-.002-.25-.007a3.646 3.646 0 01-.728-.125 1.726 1.726 0 01-.37-.152 1.288 1.288 0 01-.309-.235.795.795 0 01-.19-.336c.16-.08.318-.155.475-.225.156-.07.315-.139.475-.208l-.199-.992a3.07 3.07 0 01-.641-.067 5.132 5.132 0 01-.637-.18 8.437 8.437 0 01-.634-.253 29.4 29.4 0 01-.623-.287 73.307 73.307 0 00-.559-.256 7.597 7.597 0 00-.542-.222 4.228 4.228 0 00-.525-.154 2.34 2.34 0 00-.508-.057c-.338 0-.659.082-.963.245a2.96 2.96 0 00-.863.736 3.54 3.54 0 00-.248.328 8.462 8.462 0 00-.183.287 2.657 2.657 0 00-.159.298l.94.422a2.764 2.764 0 01.193-.342c.062-.095.137-.198.224-.307.087-.11.185-.212.294-.308.11-.096.23-.175.358-.237a.919.919 0 01.407-.094c.108 0 .226.016.355.05.128.032.265.077.41.132.143.056.293.12.448.19l.477.222c.212.101.428.2.647.298.22.097.449.188.689.271-.397.198-.798.391-1.205.58-.407.187-.827.354-1.26.5-.433.146-.885.264-1.354.352-.47.089-.966.133-1.487.133h-.752V25h.752zm3.553 2.718l.85-.85-.855-.856-.85.85.855.856zm-8.995.945c.508-.08 1-.22 1.474-.418a5.392 5.392 0 001.294-.762c.388-.31.718-.672.991-1.087.273-.416.462-.881.566-1.396h.574v-1.023h-.496a4.842 4.842 0 00-.281-1.515 4.007 4.007 0 00-.303-.66 3.296 3.296 0 00-.396-.553c-.414-.446-.868-.668-1.362-.668-.223 0-.438.056-.644.17-.207.112-.4.279-.577.498a2.901 2.901 0 00-.38.67c-.109.26-.177.49-.207.694-.03.204-.044.371-.044.504 0 .139.012.278.036.417.042.264.143.497.303.699.362.449.92.696 1.675.74.19.018.362.027.514.027h.592c-.039.26-.146.526-.321.796-.176.27-.415.524-.718.764a5.16 5.16 0 01-1.09.647c-.424.191-.904.34-1.44.449l.24 1.007zm2.865-4.697l-.084.001c-.153 0-.317-.005-.49-.016a2.63 2.63 0 01-.222-.023 1.854 1.854 0 01-.261-.058 1.226 1.226 0 01-.25-.104.614.614 0 01-.196-.17.489.489 0 01-.107-.247 1.826 1.826 0 01-.018-.232 2.37 2.37 0 01.295-1.09c.07-.123.151-.223.242-.3a.433.433 0 01.287-.118c.062 0 .122.01.177.031.056.02.109.048.16.08.05.034.097.07.14.11.044.04.083.078.118.113.087.1.171.22.253.357.081.137.155.291.221.462.067.17.12.355.162.553.042.198.068.408.078.631a6.1 6.1 0 01-.505.02zm-10.18 1.029c.209 0 .418-.016.629-.047.21-.031.413-.082.608-.151.195-.07.376-.16.545-.27.169-.109.316-.24.44-.393a1.264 1.264 0 00.271-.553c.029-.122.044-.261.045-.418a2.41 2.41 0 00-.06-.526 3.792 3.792 0 00-.237-.681 5.52 5.52 0 00-.38-.7 6.908 6.908 0 00-1.057-1.28 5.968 5.968 0 00-.608-.506 3.66 3.66 0 00-.618-.366l-.423.95c.157.07.317.163.48.282.163.118.324.254.483.407a6.2 6.2 0 01.456.493c.146.175.28.356.4.542.12.186.222.372.307.559.085.186.147.364.185.534.028.126.042.233.042.324 0 .125-.026.219-.078.282a1.082 1.082 0 01-.438.318c-.174.07-.33.11-.47.122a2.997 2.997 0 01-.72-.008 4.434 4.434 0 01-1.216-.33 3.171 3.171 0 01-.464-.243l-.428.98c.087.08.224.16.412.24a6.322 6.322 0 001.302.378c.228.04.425.06.592.06zm-6.918 3.74c.292-.142.58-.303.863-.482.284-.18.553-.375.81-.587.255-.212.491-.438.709-.678.217-.24.405-.492.563-.757.158-.264.282-.538.37-.821a2.927 2.927 0 00.097-1.35 7.46 7.46 0 00-.091-.487 14.846 14.846 0 00-.12-.5 71.521 71.521 0 01-.128-.504 7.759 7.759 0 00-.13-.478 56.1 56.1 0 01-.147-.482l-.99.313a28.013 28.013 0 01.385 1.315c.042.15.08.299.115.448.035.15.064.296.086.438.023.143.034.279.034.407 0 .338-.082.665-.245.981-.164.317-.38.616-.65.898a5.97 5.97 0 01-.92.78c-.345.238-.7.448-1.065.628l.454.919zm-7.263-10.674l.773-.772-.778-.778-.772.772.777.778zm-1.179 1.649l.845-.85-.855-.857-.845.85.855.857zm2.29.005l.846-.845-.856-.856-.845.845.856.856zm.178 5.348c.324 0 .607-.046.85-.136.25-.09.46-.22.627-.391a1.63 1.63 0 00.375-.619c.084-.241.125-.512.125-.81 0-.2-.018-.403-.054-.611a5.772 5.772 0 00-.141-.61 9.18 9.18 0 00-.579-1.496l-.066-.133-.913.48a9.203 9.203 0 01.441 1.067c.075.221.14.446.193.676.054.23.081.443.081.642a1.5 1.5 0 01-.052.412.698.698 0 01-.17.303.573.573 0 01-.266.159c-.099.026-.199.039-.3.039-.059 0-.121-.004-.187-.01a.487.487 0 01-.264-.102.635.635 0 01-.172-.22 1.103 1.103 0 01-.094-.307 2.27 2.27 0 01-.029-.368c0-.143.01-.305.032-.488.02-.183.044-.355.07-.517.026-.161.05-.3.07-.414l.027-.167-1.002-.183c-.021.143-.05.31-.086.504a7.168 7.168 0 01-.141.597 5.408 5.408 0 01-.209.605 2.756 2.756 0 01-.287.532c-.11.157-.235.284-.375.381a.82.82 0 01-.478.146.551.551 0 01-.276-.062.467.467 0 01-.173-.167.73.73 0 01-.088-.238 1.42 1.42 0 01-.026-.274c0-.135.014-.282.041-.44.028-.159.061-.313.1-.465a9.577 9.577 0 01.219-.748l-1.033-.22c-.035.17-.077.352-.126.543a5.838 5.838 0 01-.177.571c-.07.19-.151.372-.245.546a2.155 2.155 0 01-.332.461 1.554 1.554 0 01-.435.324 1.22 1.22 0 01-.553.122h-.115V25h.11c.201 0 .387-.017.555-.05a2.028 2.028 0 00.848-.37c.118-.089.23-.189.334-.3.056.129.135.242.237.34.103.097.217.178.342.244a1.705 1.705 0 001.633-.016c.264-.142.501-.335.71-.578.073.11.161.214.266.31.104.096.217.18.339.25.122.072.25.128.383.17.134.042.267.063.4.063h.036zm-7.836 3.37l.652-.793a1.291 1.291 0 01-.334-.5 1.554 1.554 0 01-.089-.502 1.659 1.659 0 01.149-.66c.082-.182.188-.345.32-.488.133-.142.285-.258.457-.347.172-.088.356-.136.55-.143h.147v-1.023h-.105c-.201 0-.402.03-.602.092a2.69 2.69 0 00-1.49 1.14 2.048 2.048 0 00-.308 1.22 1.226 1.226 0 01-.32-.289 3.49 3.49 0 01-.285-.41 4.852 4.852 0 01-.232-.438 9.848 9.848 0 01-.164-.37c.233-.039.455-.1.667-.185.213-.086.41-.194.59-.324a2.488 2.488 0 00.84-1.062c.063-.15.1-.3.112-.451a4.04 4.04 0 00-.003-.77 3.95 3.95 0 00-.148-.696 2.55 2.55 0 00-.28-.618 1.459 1.459 0 00-.398-.428.867.867 0 00-.504-.157h-.052c-.237.01-.454.082-.652.214a2.194 2.194 0 00-.535.514c-.158.21-.296.449-.412.715a6.155 6.155 0 00-.29.809 5.327 5.327 0 00-.203 1.348c0 .052.002.101.005.146h-.84V25h1.033l.047.13a5.838 5.838 0 00.929 1.748 6.197 6.197 0 001.748 1.555zm-1.727-4.508c-.053 0-.107-.003-.162-.01a1.86 1.86 0 01-.016-.25c0-.077.004-.157.01-.24.018-.182.05-.366.097-.554.047-.188.105-.372.175-.553.07-.18.148-.343.235-.488.087-.144.178-.262.274-.354a.501.501 0 01.29-.154.99.99 0 01.34.443c.072.181.107.372.105.574-.001.202-.039.402-.112.6a1.756 1.756 0 01-.305.53c-.13.154-.277.27-.438.344a1.164 1.164 0 01-.493.112zm-6.37 4.925c.437-.219.863-.476 1.277-.772a6.813 6.813 0 001.104-.978c.322-.357.58-.742.775-1.156.194-.414.292-.848.292-1.304v-.02c.087.093.178.166.274.218a1.265 1.265 0 00.535.157c.076.003.139.005.187.005h.089v-1.023h-.083a.936.936 0 01-.478-.125 1.41 1.41 0 01-.415-.394c-.132-.179-.26-.41-.386-.694a11.278 11.278 0 01-.386-1.03l-.98.303c.041.128.092.29.15.482.06.193.119.4.178.618.06.22.114.443.164.67.05.229.088.442.113.64a1.947 1.947 0 01-.057.704 2.707 2.707 0 01-.285.673 3.5 3.5 0 01-.467.619 6.03 6.03 0 01-.605.56c-.22.178-.453.344-.7.499-.246.155-.495.296-.746.425l.45.923zm-3.058-3.834c.121 0 .255-.006.401-.016a4.084 4.084 0 00.85-.154c.133-.04.248-.09.345-.149.365-.194.638-.439.817-.733.179-.294.268-.613.268-.957 0-.46-.16-.911-.48-1.357a2.196 2.196 0 00-.453-.438 5.995 5.995 0 00-.676-.433 14.211 14.211 0 00-.835-.428 37.61 37.61 0 00-.936-.428l-1.816-.746-.496.94.412.161c-.208.101-.387.229-.537.384-.15.155-.274.321-.373.5a2.33 2.33 0 00-.29 1.109c0 .254.066.518.196.79.13.274.326.551.587.833a8.013 8.013 0 01-.663.063c-.128.006-.272.012-.43.015a25.41 25.41 0 01-.55.005h-.141V25h.14c.248 0 .503-.005.768-.016.264-.01.523-.027.777-.05.254-.022.496-.052.728-.09a4.98 4.98 0 00.623-.141c.296.118.587.2.874.245.287.045.584.068.89.068zm-1.816-1.43a3.548 3.548 0 01-.376-.284 2.2 2.2 0 01-.31-.329 1.559 1.559 0 01-.211-.373 1.126 1.126 0 01-.079-.417c0-.157.033-.32.1-.49a1.57 1.57 0 01.273-.46c.117-.136.241-.235.374-.297a.88.88 0 01.375-.094c.063 0 .127.007.193.02.15.032.27.088.363.17a.878.878 0 01.214.282c.05.106.083.217.099.334.016.116.023.227.023.331a1.794 1.794 0 01-.577 1.304c-.13.122-.284.223-.46.303zm1.717.428a2.682 2.682 0 01-.48-.037 3.13 3.13 0 00.36-.459c.107-.167.199-.336.274-.508.074-.173.133-.344.174-.514.042-.17.063-.329.063-.475 0-.104-.002-.216-.005-.334a1.514 1.514 0 00-.063-.376c.247.115.463.242.647.381.184.14.338.281.462.425.123.145.216.288.279.43a.993.993 0 01.094.397c0 .143-.032.28-.097.41a.894.894 0 01-.313.342 1.768 1.768 0 01-.56.232 3.49 3.49 0 01-.835.086zm-4.493.986v-1.023h-.104c-.219 0-.408-.022-.566-.067a.814.814 0 01-.357-.188.435.435 0 01-.139-.269 2.819 2.819 0 01-.018-.331v-2.62a36.417 36.417 0 00-.107-2.749 7.734 7.734 0 00-.08-.652l-1.023.188a6.5 6.5 0 01.08.628c.023.256.042.535.058.838.016.302.027.615.034.939.007.323.01.635.01.934.004.306.005.596.005.871v.203c0 .197-.002.376-.005.538a158.575 158.575 0 00-.01.668v.198l.005.211a2.015 2.015 0 00.185.76c.061.132.149.255.264.37.188.188.416.327.686.417.27.09.595.136.978.136h.104z" mask="url(#e)"/><path fill="#000000" fill-opacity=".32" d="M393.244 20.68c0-2.207 1.794-4 4-4s4 1.793 4 4c0 2.205-1.794 4-4 4s-4-1.795-4-4m11.185 6.23l-2.972-2.973a5.3 5.3 0 001.12-3.258 5.34 5.34 0 00-5.333-5.333 5.34 5.34 0 00-5.333 5.333 5.34 5.34 0 005.333 5.333 5.3 5.3 0 003.272-1.13l2.97 2.97a.663.663 0 00.943 0 .666.666 0 000-.943" mask="url(#e)"/></g></g><g mask="url(#b)"><g transform="translate(218 32)"><rect width="423" height="39" x=".5" y=".5" stroke="#000000" stroke-opacity=".48" rx="4"/><path fill="#000000" fill-opacity=".32" fill-rule="nonzero" d="M403.638 24c.38 0 .748-.026 1.103-.077.355-.05.68-.139.977-.264.297-.125.56-.292.79-.5.23-.21.414-.471.553-.787.139-.32.209-.69.209-1.113 0-.074-.003-.148-.007-.222-.033-.515-.153-1.109-.362-1.781a9.034 9.034 0 00-.223-.644 14.061 14.061 0 00-.382-.897 1.713 1.713 0 01-.063-.143l-1.238.612.605 1.489c.097.237.172.463.223.678.05.216.08.385.09.508.01.123.014.215.014.275 0 .111-.007.216-.02.313a1.35 1.35 0 01-.105.369 1.089 1.089 0 01-.39.455c-.167.11-.36.192-.577.247-.218.056-.455.09-.71.101-.255.012-.517.018-.786.018h-1.342V24h1.641zm-.348 3.402l1.127-1.127-1.14-1.141-1.127 1.134 1.14 1.134zm2.853.014l1.127-1.134-1.141-1.134-1.127 1.127 1.14 1.14zM402.275 24v-1.363h-.195a4.643 4.643 0 01-.758-.07 2.482 2.482 0 01-.62-.195 2.725 2.725 0 01-.716-.48 3.246 3.246 0 01-.497-.598 3.881 3.881 0 01-.341-.661 12.61 12.61 0 01-.247-.675 5.431 5.431 0 00-.504-1.06 8.138 8.138 0 00-.752-1.037 9.893 9.893 0 00-.953-.974c-.35-.313-.72-.606-1.11-.88l5.51-2.324-.522-1.266-6.24 2.686-.187 1.537c.185.144.403.315.654.515a17.592 17.592 0 011.561 1.412c.258.264.484.531.679.8.194.269.34.523.438.762.097.239.146.455.146.65 0 .051-.002.102-.007.153a1.193 1.193 0 01-.33.682c-.193.209-.493.39-.901.543-.311.12-.763.216-1.357.288-.594.072-1.363.129-2.31.17a8.51 8.51 0 01-.89-.014 11.983 11.983 0 01-2.003-.32 8.132 8.132 0 01-.912-.284 3.558 3.558 0 01-.716-.362c-.2-.135-.336-.278-.41-.432a1.06 1.06 0 01-.105-.48v-.062c.01-.2.049-.406.118-.62.07-.213.16-.421.268-.625a4.99 4.99 0 01.337-.55l-1.099-.82c-.014.018-.04.06-.08.124-.04.065-.088.148-.146.247a7.279 7.279 0 00-.4.81c-.204.465-.316.815-.337 1.051-.021.237-.031.4-.031.487 0 .283.041.543.125.78.106.31.275.586.504.827.23.241.502.454.818.637.315.183.666.337 1.053.462a9.73 9.73 0 001.218.306c.424.08.859.136 1.304.17.445.036.886.053 1.322.053.82 0 1.538-.022 2.153-.066a8.473 8.473 0 001.61-.254c.46-.125.854-.301 1.183-.529.33-.227.617-.524.863-.89a3.897 3.897 0 001.572 1.297c.635.29 1.335.437 2.1.442h.14zm-26.254-9.252l1.03-1.03-1.037-1.036-1.03 1.03 1.037 1.036zm-1.572 2.198l1.127-1.134-1.141-1.14-1.127 1.133 1.14 1.141zm3.054.007l1.127-1.127-1.141-1.14-1.127 1.126 1.14 1.141zm.236 7.13c.431 0 .81-.06 1.134-.18.334-.121.612-.295.835-.522.222-.227.39-.502.5-.824a3.3 3.3 0 00.168-1.082c0-.265-.025-.536-.073-.814a7.696 7.696 0 00-.188-.814 12.239 12.239 0 00-.86-2.17l-1.217.64a12.272 12.272 0 01.588 1.422c.1.295.186.595.257.901.072.306.108.591.108.856a2 2 0 01-.07.55.93.93 0 01-.225.403.764.764 0 01-.355.212 1.566 1.566 0 01-.4.052c-.079 0-.162-.005-.25-.014a.65.65 0 01-.352-.136.847.847 0 01-.23-.292 1.47 1.47 0 01-.125-.41 3.026 3.026 0 01-.038-.49c0-.19.014-.408.042-.651.028-.243.059-.473.094-.689l.05-.3.044-.253.034-.222-1.335-.244c-.028.19-.066.414-.115.671a9.558 9.558 0 01-.188.797 7.21 7.21 0 01-.278.807c-.11.264-.237.5-.383.71a2.008 2.008 0 01-.5.507c-.188.13-.4.195-.637.195a.735.735 0 01-.369-.083.622.622 0 01-.23-.223.974.974 0 01-.118-.316 1.894 1.894 0 01-.034-.366c0-.18.018-.377.055-.588.037-.21.081-.417.132-.619a12.768 12.768 0 01.293-.998l-1.378-.292c-.046.227-.102.468-.167.723a7.784 7.784 0 01-.236.762 5.556 5.556 0 01-.327.727 2.873 2.873 0 01-.442.616c-.17.178-.363.322-.58.431a1.626 1.626 0 01-.738.164h-.153V24h.146c.269 0 .516-.022.74-.066a2.704 2.704 0 001.13-.494c.159-.118.307-.252.446-.4.075.172.18.322.317.452s.289.239.456.327c.166.088.342.154.525.198.183.044.36.066.532.066.394 0 .767-.095 1.12-.285.352-.19.668-.447.946-.772.097.148.216.286.355.414.139.128.29.239.452.334.162.095.333.17.511.226.179.056.356.083.532.083h.05zm-10.449 4.494l.87-1.057a1.722 1.722 0 01-.445-.668 2.072 2.072 0 01-.118-.668 2.212 2.212 0 01.198-.88 2.38 2.38 0 01.428-.65c.176-.19.379-.344.608-.463.23-.118.475-.182.734-.191h.195v-1.363h-.14c-.268 0-.536.04-.803.121a3.587 3.587 0 00-1.986 1.52 2.731 2.731 0 00-.41 1.628 1.635 1.635 0 01-.428-.386 4.654 4.654 0 01-.38-.546 6.47 6.47 0 01-.309-.584c-.09-.195-.163-.36-.219-.494.31-.051.608-.134.89-.247.284-.114.546-.258.787-.432a3.317 3.317 0 001.12-1.415c.083-.2.133-.4.15-.602.016-.202.024-.365.024-.49 0-.172-.01-.35-.028-.536a5.268 5.268 0 00-.198-.929 3.399 3.399 0 00-.373-.824 1.945 1.945 0 00-.532-.57 1.156 1.156 0 00-.671-.21h-.07a1.673 1.673 0 00-.87.286 2.925 2.925 0 00-.712.685c-.211.28-.394.598-.55.953a8.207 8.207 0 00-.386 1.078c-.102.365-.173.7-.212 1.01-.04.308-.06.57-.06.789 0 .07.003.134.008.195h-1.12V24h1.377l.063.174a7.784 7.784 0 001.238 2.33c.292.38.63.747 1.016 1.1.385.352.823.677 1.314.973zm-2.302-6.01c-.07 0-.142-.005-.216-.014a2.48 2.48 0 01-.02-.334c0-.102.004-.209.013-.32.023-.241.066-.487.129-.737s.14-.496.233-.738c.093-.24.197-.458.313-.65.116-.193.238-.35.365-.473a.669.669 0 01.386-.205c.209.153.36.35.456.591.095.241.141.496.14.765a2.359 2.359 0 01-.15.8c-.098.265-.234.5-.407.706-.174.207-.37.36-.585.46-.215.1-.435.149-.657.149zm-8.494 6.567a12.712 12.712 0 001.704-1.03 9.084 9.084 0 001.472-1.304 6.295 6.295 0 001.033-1.54c.26-.553.39-1.132.39-1.74v-.028c.115.125.237.223.364.292a1.686 1.686 0 00.713.209c.102.005.186.007.25.007h.12v-1.363h-.112c-.232 0-.444-.056-.637-.167a1.88 1.88 0 01-.553-.526 4.913 4.913 0 01-.515-.925 15.038 15.038 0 01-.514-1.374l-1.308.404c.056.171.123.386.202.643.078.258.157.532.236.825.079.292.152.59.22.893.067.304.116.588.149.853a2.596 2.596 0 01-.077.94c-.083.31-.21.609-.379.896-.17.288-.377.562-.622.824a8.04 8.04 0 01-.807.748 9.486 9.486 0 01-.933.665c-.329.206-.66.395-.994.567l.598 1.23zm-10.024-.153c.39-.19.773-.405 1.15-.644.379-.238.738-.5 1.08-.782a9.21 9.21 0 00.945-.905c.29-.32.54-.656.752-1.008.21-.353.375-.718.493-1.096.119-.378.178-.769.178-1.172 0-.204-.016-.413-.049-.626a9.947 9.947 0 00-.122-.65c-.048-.22-.102-.444-.16-.668a95.343 95.343 0 01-.17-.672 10.346 10.346 0 00-.174-.636c-.065-.211-.13-.426-.195-.644l-1.321.418c.125.39.243.779.354 1.168l.16.585c.056.2.107.399.153.598.047.2.085.394.115.584.03.19.045.371.045.543 0 .45-.109.886-.327 1.308-.218.422-.506.82-.866 1.196s-.768.723-1.228 1.04c-.459.318-.932.597-1.419.839l.606 1.224zm-.78-4.918c.065-.77.104-1.496.115-2.178.012-.682.018-1.226.018-1.635 0-.677-.007-1.4-.021-2.17a63.584 63.584 0 00-.355-5.064l-1.364.208c.158 1.461.283 3.316.376 5.566.014.384.021.793.021 1.224 0 .357-.005.73-.014 1.12a64.7 64.7 0 01-.146 2.852l1.37.077zm-8.57 0c.065-.77.103-1.496.115-2.178.011-.682.017-1.226.017-1.635 0-.677-.007-1.4-.02-2.17a63.584 63.584 0 00-.355-5.064l-1.364.208c.158 1.461.283 3.316.376 5.566.014.384.02.793.02 1.224 0 .357-.004.73-.013 1.12a64.7 64.7 0 01-.146 2.852l1.37.077zm-5.551-7.653l1.134-1.133-1.141-1.141-1.134 1.134 1.14 1.14zM330.456 24c.38 0 .734-.026 1.06-.077.327-.05.623-.139.887-.264.265-.125.498-.292.7-.5.201-.21.372-.471.51-.787.14-.32.21-.69.21-1.113 0-.074-.003-.148-.007-.222-.033-.515-.153-1.109-.362-1.781a9.033 9.033 0 00-.223-.644 14.062 14.062 0 00-.382-.897 1.713 1.713 0 01-.063-.143l-1.238.612.605 1.489c.097.237.172.463.223.678.05.216.08.385.09.508.01.123.014.215.014.275 0 .111-.007.216-.02.313a1.35 1.35 0 01-.105.369 1.245 1.245 0 01-.348.455c-.14.11-.301.192-.487.247-.186.056-.392.09-.62.101-.226.012-.474.018-.743.018h-.807V24h1.106zm-5.21-6.588l1.126-1.127-1.14-1.14-1.128 1.133 1.141 1.134zm2.851.014l1.127-1.134-1.14-1.134-1.127 1.127 1.14 1.141zM324.46 24c.436 0 .815-.017 1.138-.052.322-.035.604-.088.845-.16a2.598 2.598 0 001.113-.65c.2.254.454.462.765.622.31.16.7.24 1.169.24h.139v-1.363h-.14c-.236 0-.43-.054-.58-.16a1.141 1.141 0 01-.355-.404 1.905 1.905 0 01-.184-.529 4.913 4.913 0 01-.077-.542 21.335 21.335 0 00-.125-1.204 6.535 6.535 0 00-.202-.946l-1.308.369c.102.352.173.665.213.939.039.274.059.543.059.807 0 .278-.047.522-.14.73a1.256 1.256 0 01-.434.522c-.197.14-.452.244-.765.313-.313.07-.69.105-1.13.105h-1.037V24h1.036zm-8.689-7.687l1.134-1.134-1.14-1.14-1.134 1.133 1.14 1.141zM312.828 24c.723 0 1.407-.054 2.052-.163a14.231 14.231 0 001.833-.432c.577-.178 1.126-.38 1.645-.605.52-.225 1.018-.456 1.496-.692.116.297.289.562.518.796.23.235.503.433.821.595.318.162.676.287 1.075.372.399.086.828.129 1.287.129h.146v-1.363h-.146c-.084 0-.195-.004-.334-.01a4.04 4.04 0 01-.46-.053 4.861 4.861 0 01-.51-.115 2.302 2.302 0 01-.494-.202 1.718 1.718 0 01-.41-.313 1.06 1.06 0 01-.255-.448c.214-.107.425-.207.633-.3l.633-.278-.264-1.321c-.288 0-.573-.03-.856-.09a6.842 6.842 0 01-.848-.24 11.25 11.25 0 01-.846-.338c-.28-.126-.557-.253-.831-.383-.25-.116-.499-.23-.744-.34-.246-.112-.487-.21-.724-.296a5.637 5.637 0 00-.699-.206 3.12 3.12 0 00-.678-.076c-.45 0-.878.109-1.284.327-.405.218-.79.545-1.151.98a4.72 4.72 0 00-.33.439c-.095.144-.177.271-.244.383a3.543 3.543 0 00-.212.396l1.252.564a3.686 3.686 0 01.257-.456c.084-.128.184-.264.3-.41.116-.147.247-.283.393-.411.146-.128.305-.233.476-.317.172-.083.353-.125.543-.125.144 0 .301.022.473.066.171.044.353.104.546.178.192.074.392.159.598.254l.637.295c.283.135.57.267.862.397.293.13.599.25.919.362a57.07 57.07 0 01-1.607.772c-.543.25-1.103.473-1.68.668a13.45 13.45 0 01-1.806.47 10.67 10.67 0 01-1.982.177h-1.002V24h1.002zm-.724 0v-1.363h-.139a2.77 2.77 0 01-.755-.09c-.21-.061-.37-.145-.476-.251a.58.58 0 01-.184-.359 3.758 3.758 0 01-.025-.441v-3.493a48.553 48.553 0 00-.066-2.546c-.02-.403-.046-.776-.076-1.12-.03-.343-.066-.633-.108-.87l-1.364.251c.042.218.078.498.108.839.03.34.056.713.077 1.116.02.404.036.82.045 1.252.01.432.014.847.014 1.245.004.409.007.796.007 1.162 0 .371-.003.7-.007.988a211.355 211.355 0 00-.014 1.037c0 .11.002.244.007.4a2.686 2.686 0 00.247 1.012c.08.176.198.34.351.494.25.25.555.436.915.556.36.12.794.181 1.304.181h.14zm-11.443 0c.264 0 .542-.012.835-.035a14.996 14.996 0 003.096-.56c.32-.095.618-.2.897-.316.278-.116.521-.24.73-.369.218-.14.386-.277.504-.414a1.11 1.11 0 00.237-.407 1.383 1.383 0 00.052-.542 4.954 4.954 0 00-.111-.634 6.504 6.504 0 00-.344-1.053 12.893 12.893 0 00-.435-.933c-.144-.276-.27-.5-.38-.674a8.814 8.814 0 01-.177-.29l-1.155.752a8.291 8.291 0 01.33.525c.091.156.19.334.297.536.106.202.207.414.302.637.095.222.179.448.25.678.072.23.118.449.136.657-.39.218-.81.396-1.262.532-.453.137-.908.245-1.367.324-.46.079-.91.133-1.35.163-.44.03-.844.046-1.21.046-1.299-.005-2.354-.13-3.166-.373-.811-.243-1.33-.592-1.558-1.047a1.365 1.365 0 01-.139-.619c0-.255.056-.535.167-.841a2.686 2.686 0 01.209-.477 5.521 5.521 0 01.243-.4l-1.106-.82a5.562 5.562 0 00-.42.723c-.068.139-.134.292-.199.459-.18.478-.271.937-.271 1.377 0 .44.097.849.292 1.225.343.69.992 1.222 1.948 1.593 1.006.37 2.34.563 4 .577h.125zm-.153 3.624l1.134-1.134-1.141-1.14-1.134 1.133 1.14 1.141zM283.91 24c.24 0 .442-.016.605-.049.983-.18 1.68-.637 2.094-1.37.097-.176.182-.371.254-.584.071-.214.116-.405.132-.574.016-.17.024-.303.024-.4a3.57 3.57 0 00-.042-.53 4.165 4.165 0 00-.25-.903 5.846 5.846 0 00-.529-1.013 8.611 8.611 0 00-.87-1.116 10.845 10.845 0 00-.8-.8c-.268-.241-.516-.46-.744-.654l4.981-2.094-.535-1.266-5.719 2.449-.16 1.426c.38.306.754.635 1.12.988.367.352.698.696.995 1.033.297.336.546.651.748.946.202.294.328.537.379.727.065.25.097.484.097.702a1.71 1.71 0 01-.278.946c-.13.195-.308.345-.535.449-.228.104-.478.18-.752.23a5.667 5.667 0 01-.862.083c-.302.007-.592.01-.87.01h-.87V24h2.387zm-5.079-6.414l1.134-1.134-1.14-1.14-1.135 1.133 1.141 1.141zM276.877 24c.681 0 1.254-.07 1.718-.212.464-.142.842-.358 1.134-.65.2.254.454.462.765.622.31.16.7.24 1.169.24h.139v-1.363h-.14c-.236 0-.43-.054-.58-.16a1.141 1.141 0 01-.355-.404 1.905 1.905 0 01-.184-.529 4.913 4.913 0 01-.077-.542 21.339 21.339 0 00-.125-1.204 6.535 6.535 0 00-.202-.946l-1.308.369c.102.352.173.665.212.939.04.274.06.543.06.807 0 .552-.177.968-.53 1.249-.352.28-.917.42-1.696.42h-.258V24h.258zm-5.148 0c.436 0 .815-.017 1.137-.052.322-.035.604-.088.845-.16a2.598 2.598 0 001.113-.65c.2.254.455.462.766.622.31.16.7.24 1.168.24h.14v-1.363h-.14c-.236 0-.43-.054-.58-.16a1.141 1.141 0 01-.355-.404 1.905 1.905 0 01-.185-.529 4.913 4.913 0 01-.076-.542 21.339 21.339 0 00-.125-1.204 6.535 6.535 0 00-.202-.946l-1.308.369c.102.352.173.665.212.939.04.274.06.543.06.807 0 .278-.047.522-.14.73a1.256 1.256 0 01-.435.522c-.197.14-.452.244-.765.313-.313.07-.69.105-1.13.105h-1.037V24h1.037zm.257 3.402l1.127-1.127-1.14-1.141-1.128 1.134 1.141 1.134zm2.852.014l1.127-1.134-1.14-1.134-1.128 1.127 1.141 1.14zM270.97 24v-1.363h-.139c-.278 0-.508-.036-.688-.108a1.244 1.244 0 01-.453-.3 1.755 1.755 0 01-.31-.466 15.474 15.474 0 01-.267-.608c-.18-.422-.351-.827-.511-1.214a3882.653 3882.653 0 01-1.618-3.927l-1.266.529 2.199 5.287a2.64 2.64 0 01-.925.584c-.251.097-.463.154-.637.17a4.617 4.617 0 01-.393.025c-.186 0-.371-.021-.557-.063a3.191 3.191 0 01-.842-.32 4.114 4.114 0 01-.841-.619l-.786 1.106c.394.408.824.725 1.29.95a3.45 3.45 0 001.52.337c.33 0 .626-.02.89-.06a4.2 4.2 0 00.734-.173c.225-.077.436-.173.633-.289.198-.116.394-.25.588-.403a2.4 2.4 0 00.348.358c.135.114.291.212.47.296.178.083.385.15.619.198.234.049.502.073.803.073h.14z"/><path fill="#000000" fill-opacity=".56" d="M24.88 23.297a1.003 1.003 0 01-1.418 0l-3.874-3.874-3.874 3.874a1.003 1.003 0 11-1.42-1.419l4.584-4.584a1.001 1.001 0 011.42 0l4.583 4.584a1.001 1.001 0 010 1.419"/></g></g></g></svg>