<svg width="860" height="320" xmlns="http://www.w3.org/2000/svg"><g fill="#000000" fill-rule="evenodd"><rect width="860" height="320" rx="4" fill="none"/><path d="M108 111h488v1H108z" fill-opacity=".12"/><path d="M592.438 82.845l1.134-1.134-1.14-1.14-1.135 1.133 1.141 1.141zM589.614 92c.459-.005.911-.022 1.356-.052.446-.03.871-.085 1.277-.164a6.536 6.536 0 001.134-.323c.35-.137.66-.314.932-.532a2.74 2.74 0 00.671-.793c.177-.311.293-.677.348-1.1a4.997 4.997 0 00.021-1.126 5.945 5.945 0 00-.212-1.096 5.3 5.3 0 00-.407-1.002 4.113 4.113 0 00-.57-.824c-.501-.543-1.058-.814-1.67-.814a1.71 1.71 0 00-.807.205c-.26.137-.494.344-.703.623-.366.473-.614 1.062-.744 1.767-.028.19-.042.364-.042.521v.119c.01.194.035.368.077.521.042.153.095.29.16.407.065.119.13.22.195.303.12.153.266.289.438.407.171.118.362.217.57.296.209.078.432.138.668.177.237.04.48.06.73.06h.703l-.111.124a1.453 1.453 0 01-.146.14 1.95 1.95 0 01-.522.278 6.013 6.013 0 01-.866.254c-.341.076-.728.139-1.162.187a12.73 12.73 0 01-1.415.074h-.14V92h.237zm3.819-3.798c-.209 0-.431-.005-.668-.014a2.745 2.745 0 01-.56-.09 1.009 1.009 0 01-.403-.21.633.633 0 01-.202-.305 1.224 1.224 0 01-.045-.32c0-.08.007-.163.02-.25.042-.237.102-.446.178-.627.077-.18.159-.334.247-.459a1.16 1.16 0 01.264-.282.419.419 0 01.23-.094c.13 0 .252.04.365.122.114.081.208.164.282.247.236.264.425.596.567.995.141.399.228.823.26 1.273-.152.01-.33.014-.535.014zm-9.843 8.932a12.712 12.712 0 001.704-1.03 9.084 9.084 0 001.471-1.304 6.295 6.295 0 001.033-1.54c.26-.553.39-1.132.39-1.74v-.028c.116.125.238.223.365.292a1.686 1.686 0 00.713.209c.102.005.186.007.25.007h.119v-1.363h-.112c-.231 0-.444-.056-.636-.167a1.88 1.88 0 01-.553-.526 4.913 4.913 0 01-.515-.925 15.038 15.038 0 01-.515-1.374l-1.307.404c.055.171.122.386.201.643.08.258.158.532.237.825.079.292.152.59.219.893.067.304.117.588.15.853a2.596 2.596 0 01-.077.94c-.084.31-.21.609-.38.896-.168.288-.376.562-.622.824a8.04 8.04 0 01-.807.748 9.486 9.486 0 01-.932.665c-.33.206-.66.395-.995.567l.599 1.23zm-6.393-.25a8.398 8.398 0 001.405-.345c.459-.155.896-.348 1.311-.577.415-.23.802-.498 1.162-.804a5.91 5.91 0 00.95-1.022c.273-.376.498-.785.674-1.228.176-.443.29-.92.341-1.43a6.442 6.442 0 00.007-1.266 6.891 6.891 0 00-.23-1.217 5.77 5.77 0 00-.434-1.096 4.275 4.275 0 00-.623-.9c-.552-.594-1.157-.891-1.816-.891a1.77 1.77 0 00-.859.226 2.61 2.61 0 00-.768.664c-.195.25-.365.549-.508.894a3.926 3.926 0 00-.275.925c-.04.272-.06.495-.06.672 0 .185.017.37.05.556.055.353.19.663.403.932.482.599 1.227.928 2.233.988.255.023.483.035.685.035h.79c-.051.348-.194.701-.428 1.06-.234.36-.553.7-.957 1.02-.403.32-.888.608-1.453.863a8.976 8.976 0 01-1.92.598l.32 1.342zm3.755-6.262h-.048c-.204 0-.422-.006-.654-.02a3.506 3.506 0 01-.295-.032 2.472 2.472 0 01-.348-.076 1.635 1.635 0 01-.334-.14.819.819 0 01-.26-.225.651.651 0 01-.143-.33 2.434 2.434 0 01-.025-.31 3.16 3.16 0 01.153-.908c.065-.202.145-.384.24-.546.095-.163.203-.296.324-.4a.577.577 0 01.382-.157c.084 0 .163.014.237.042.074.028.145.064.212.108s.13.093.188.146c.058.053.11.103.156.15.116.134.229.293.338.476.109.183.207.388.295.616.089.227.16.473.216.737.056.264.09.545.104.842-.18.014-.344.022-.49.024l-.296.004h.048zm-9.898-7.874l1.03-1.03-1.037-1.036-1.03 1.03 1.037 1.036zm-1.572 2.198l1.127-1.134-1.141-1.14-1.127 1.133 1.14 1.141zm3.054.007l1.127-1.127-1.141-1.14-1.127 1.126 1.14 1.141zm-9.496 11.631a8.324 8.324 0 001.82-.271 4.896 4.896 0 001.45-.66c.352-.233.648-.5.887-.804.238-.304.43-.632.573-.985.144-.352.243-.703.296-1.054.053-.35.08-.685.08-1.005 0-.083-.002-.164-.007-.243.102.07.202.132.3.188a1.882 1.882 0 00.946.243c.046 0 .097-.002.152-.007.39-.018.759-.095 1.106-.23.348-.134.661-.366.94-.695.097.148.213.28.347.396a2.18 2.18 0 00.87.463c.148.04.288.06.417.06.422 0 .782-.075 1.079-.223.296-.149.539-.353.727-.613.187-.26.327-.563.417-.911.09-.348.138-.721.143-1.12 0-.26-.024-.52-.07-.783a7.153 7.153 0 00-.177-.761 8.042 8.042 0 00-.24-.703 14.951 14.951 0 00-.25-.598 8.663 8.663 0 00-.213-.445 21.91 21.91 0 01-.129-.25l-1.217.64c.074.148.162.321.264.52a7.362 7.362 0 01.54 1.433c.071.275.114.557.128.85v.125c0 .167-.014.33-.042.487-.041.2-.103.375-.184.529a1.06 1.06 0 01-.306.365.692.692 0 01-.42.135.656.656 0 01-.44-.153 1.223 1.223 0 01-.302-.4 2.765 2.765 0 01-.198-.553 5.746 5.746 0 01-.118-.608 7.965 7.965 0 01-.06-.57 18.43 18.43 0 01-.024-.443l-.028-.598-1.412.14v.952c0 .158-.002.313-.007.466-.009.232-.031.45-.066.654a1.606 1.606 0 01-.184.536 1.02 1.02 0 01-.362.369c-.153.092-.35.141-.591.146h-.063c-.255 0-.482-.056-.682-.167a2.017 2.017 0 01-.573-.494 3.99 3.99 0 01-.46-.72 14.998 14.998 0 01-.393-.845l-.438-1.009-1.162.751c0 .01.04.081.122.216.081.134.177.327.289.577.116.274.227.575.334.905.106.329.188.664.243 1.005.056.34.084.678.084 1.012v.153a4.296 4.296 0 01-.202 1.148c-.422 1.299-1.621 1.99-3.597 2.073h-.23c-.393 0-.737-.043-1.029-.129a2.925 2.925 0 01-.758-.334 2.228 2.228 0 01-.532-.466 2.962 2.962 0 01-.348-.528 2.677 2.677 0 01-.202-.515 4.109 4.109 0 01-.094-.428 4.08 4.08 0 01-.034-.82c.013-.28.045-.553.093-.822a7.966 7.966 0 01.41-1.468 5.47 5.47 0 01.244-.546c.082-.155.152-.272.213-.351l-1.107-.814a8.754 8.754 0 00-.55 1.054 8.714 8.714 0 00-.434 1.228 6.484 6.484 0 00-.219 1.123 6.142 6.142 0 00.02 1.61c.075.52.227.997.457 1.43.23.434.52.806.873 1.117.783.696 1.79 1.043 3.019 1.043h.271zM548.563 81.58c.019-.056.048-.13.087-.226.04-.095.089-.19.147-.285.057-.095.124-.179.198-.25a.404.404 0 01.236-.122.896.896 0 01.417.028c.135.041.278.091.429.149.15.058.311.114.483.167.172.053.362.08.57.08h.042c.162 0 .316-.023.46-.07.157-.05.302-.116.434-.194.132-.08.252-.166.358-.261.107-.095.199-.186.275-.272a2.384 2.384 0 00.247-.323l-.793-.515a4.152 4.152 0 01-.136.167c-.062.074-.139.15-.23.226a1.45 1.45 0 01-.288.192.68.68 0 01-.306.076h-.028a1.553 1.553 0 01-.4-.063 4.217 4.217 0 01-.372-.132 5.284 5.284 0 00-.46-.167 1.856 1.856 0 00-.556-.076c-.199 0-.394.043-.584.129-.19.085-.364.201-.522.347a2.093 2.093 0 00-.626 1.11l.918.285zM551.123 92c.065-.46.104-.977.115-1.555.012-.577.018-1.051.018-1.422 0-.617-.007-1.31-.021-2.08a63.803 63.803 0 00-.09-2.366 93.008 93.008 0 00-.188-2.643l-1.364.209c.065.626.123 1.396.174 2.31.051.913.093 1.98.125 3.2a31.945 31.945 0 01-.007 2.12c-.023.71-.067 1.427-.132 2.15l1.37.077zm-7.63 0c.38 0 .747-.026 1.102-.077.355-.05.68-.139.977-.264.297-.125.56-.292.79-.5.23-.21.414-.471.553-.787.139-.32.208-.69.208-1.113 0-.074-.002-.148-.006-.222-.033-.515-.154-1.109-.362-1.781a9.034 9.034 0 00-.223-.644 14.061 14.061 0 00-.382-.897 1.712 1.712 0 01-.063-.143l-1.238.612.605 1.489c.097.237.172.463.223.678.05.216.08.385.09.508.01.123.014.215.014.275 0 .111-.007.216-.021.313a1.35 1.35 0 01-.104.369 1.089 1.089 0 01-.39.455c-.167.11-.36.192-.577.247-.218.056-.455.09-.71.101-.255.012-.517.018-.786.018h-1.343V92h1.642zm2.65 3.624l1.14-1.14-1.126-1.127-1.141 1.14 1.127 1.127zm-3.04.014l1.14-1.14-1.126-1.135-1.141 1.141 1.127 1.134zm1.55 1.99l1.037-1.037-1.03-1.03-1.036 1.037 1.03 1.03zM542.13 92v-1.363h-.14a2.77 2.77 0 01-.754-.09c-.211-.061-.37-.145-.477-.251a.58.58 0 01-.184-.359 3.758 3.758 0 01-.024-.441v-3.493a48.553 48.553 0 00-.067-2.546 31.39 31.39 0 00-.076-1.12c-.03-.343-.066-.633-.108-.87l-1.363.251c.041.218.077.498.107.839.03.34.056.713.077 1.116.02.404.036.82.045 1.252.01.432.014.847.014 1.245.005.409.007.796.007 1.162 0 .371-.002.7-.007.988a211.315 211.315 0 00-.013.957v.198l.006.282a2.686 2.686 0 00.247 1.012c.081.176.198.34.351.494.25.25.556.436.915.556.36.12.794.181 1.305.181h.139zm-9.913 4.98c.39-.19.773-.404 1.151-.643.378-.238.737-.5 1.078-.782a9.21 9.21 0 00.946-.905c.29-.32.54-.656.752-1.008.21-.353.375-.718.494-1.096.118-.378.177-.769.177-1.172 0-.204-.016-.413-.049-.626a9.947 9.947 0 00-.122-.65c-.048-.22-.102-.444-.16-.668a95.398 95.398 0 01-.17-.672 10.345 10.345 0 00-.174-.636c-.065-.211-.13-.426-.195-.644l-1.321.418c.125.39.243.779.354 1.168l.16.585c.056.2.107.399.153.598.047.2.085.394.115.584.03.19.045.371.045.543 0 .45-.109.886-.327 1.308-.217.422-.506.82-.866 1.196-.359.376-.768.723-1.227 1.04-.46.318-.933.597-1.42.839l.606 1.224zm-3.889-12.653l1.127-1.127-1.141-1.14-1.127 1.133 1.141 1.134zm2.852.014l1.127-1.134-1.14-1.134-1.128 1.127 1.141 1.14zM528.146 92c.38 0 .748-.026 1.103-.077.354-.05.68-.139.977-.264.297-.125.56-.292.79-.5.23-.21.414-.471.553-.787.139-.32.208-.69.208-1.113 0-.074-.002-.148-.007-.222-.032-.515-.153-1.109-.361-1.781a9.033 9.033 0 00-.223-.644 14.063 14.063 0 00-.383-.897 1.712 1.712 0 01-.062-.143l-1.238.612.605 1.489c.097.237.171.463.222.678.051.216.082.385.09.508.01.123.015.215.015.275 0 .111-.007.216-.021.313a1.35 1.35 0 01-.104.369 1.089 1.089 0 01-.39.455c-.167.11-.36.192-.577.247-.218.056-.455.09-.71.101-.255.012-.517.018-.786.018h-1.343V92h1.642zm-9.697 0c.714 0 1.335-.188 1.864-.563.269-.186.464-.374.584-.564.868.608 1.765.97 2.693 1.085.078.01.155.014.23.014.477 0 .883-.22 1.217-.66.176.231.397.404.664.518.267.113.571.17.915.17h.167v-1.363h-.167a.926.926 0 01-.717-.32 1.072 1.072 0 01-.195-.341 1.341 1.341 0 01-.076-.41 5.854 5.854 0 00-.08-.759 4.076 4.076 0 00-.536-1.437 2.539 2.539 0 00-.47-.567 2.081 2.081 0 00-.615-.382 2.035 2.035 0 00-.769-.14c-.408 0-.757.109-1.047.324-.29.216-.534.495-.734.838-.014.024-.03.053-.052.087-.02.035-.054.098-.1.188-.047.09-.112.22-.195.39-.084.17-.198.395-.341.678-.177.339-.346.62-.508.842-.501.668-1.076 1.004-1.725 1.009h-.146V92h.139zm5.21-1.384c-.07 0-.146-.007-.23-.021a3.463 3.463 0 01-.768-.272 7.137 7.137 0 01-.95-.556l.039-.077.09-.184.191-.39c.084-.169.195-.397.334-.685.283-.52.547-.779.793-.779.209 0 .39.058.543.174.153.116.28.266.379.449.1.183.176.388.23.615.053.228.084.453.093.675v.112c0 .125-.011.238-.034.34a1 1 0 01-.146.334c-.121.177-.309.265-.564.265zM518.588 92v-1.363h-.14a2.77 2.77 0 01-.754-.09c-.211-.061-.37-.145-.477-.251a.58.58 0 01-.184-.359 3.758 3.758 0 01-.024-.441v-3.493a48.55 48.55 0 00-.066-2.546 31.39 31.39 0 00-.077-1.12c-.03-.343-.066-.633-.108-.87l-1.363.251c.042.218.077.498.108.839.03.34.055.713.076 1.116.021.404.036.82.045 1.252.01.432.014.847.014 1.245.005.409.007.796.007 1.162 0 .371-.002.7-.007.988a211.355 211.355 0 00-.013.957v.08c0 .11.002.244.006.4a2.686 2.686 0 00.247 1.012c.081.176.199.34.352.494.25.25.555.436.914.556.36.12.795.181 1.305.181h.139zm-10.115-3.36l1.134-1.134-1.14-1.14-1.135 1.133 1.141 1.141zm-.306 8.14c.57 0 1.112-.061 1.624-.182.513-.12.98-.305 1.402-.553a4.23 4.23 0 001.11-.942c.317-.38.564-.833.74-1.357.167-.5.258-.9.272-1.2.014-.299.02-.5.02-.602a7.175 7.175 0 00-.392-2.361 11.15 11.15 0 00-.397-1.016 7.888 7.888 0 00-.525-.991l-1.155.737c.005 0 .048.068.129.205.08.137.175.325.282.564.106.239.214.52.323.841a6.615 6.615 0 01.344 2.119v.083c-.009.404-.076.805-.201 1.204a2.69 2.69 0 01-.46.873 2.733 2.733 0 01-.758.654 3.688 3.688 0 01-1.05.407c-.4.092-.844.139-1.336.139a3.94 3.94 0 01-1.054-.129 3.297 3.297 0 01-.807-.334 2.717 2.717 0 01-.588-.462 3.029 3.029 0 01-.403-.526 2.535 2.535 0 01-.24-.514 2.744 2.744 0 01-.108-.435 4.08 4.08 0 01-.035-.821c.014-.278.046-.552.094-.821.049-.269.11-.528.185-.776.074-.248.151-.476.233-.685.08-.209.16-.39.24-.546a2.8 2.8 0 01.208-.358l-1.106-.814c-.19.315-.372.667-.546 1.054-.174.387-.32.796-.438 1.228a6.484 6.484 0 00-.22 1.123 6.142 6.142 0 00.02 1.61c.094.608.274 1.137.54 1.587.267.45.603.822 1.006 1.116.403.295.864.515 1.38.661.518.146 1.073.22 1.667.22zM489.823 92c.283 0 .55-.014.8-.042.25-.028.487-.08.71-.16.222-.079.432-.192.629-.34.197-.149.386-.346.567-.592.213.158.445.312.695.463.25.15.512.278.783.382a3.005 3.005 0 001.123.226c.19 0 .38-.025.57-.076a1.66 1.66 0 00.766-.449c.209-.215.373-.468.494-.758.12-.29.195-.555.223-.797.027-.24.041-.436.041-.584 0-.167-.011-.33-.034-.487a4.21 4.21 0 00-.247-.918 2.864 2.864 0 00-.477-.807c-.2-.237-.44-.428-.72-.574a2.071 2.071 0 00-.97-.22c-.306 0-.574.062-.804.185-.23.123-.433.283-.612.48a3.668 3.668 0 00-.48.675c-.141.253-.275.509-.4.769-.144.287-.286.567-.428.838a3.398 3.398 0 01-.5.723c-.193.211-.426.38-.7.508-.273.128-.617.192-1.03.192h-.139V92h.14zm5.287-1.447c-.186 0-.395-.046-.627-.14-.347-.138-.732-.363-1.154-.674l.375-.758c.116-.227.22-.424.31-.591a3.74 3.74 0 01.257-.418.985.985 0 01.244-.247.466.466 0 01.26-.08c.14 0 .263.028.37.084.106.055.199.126.278.212.078.086.146.18.201.285a2.264 2.264 0 01.216.567c.019.079.03.135.035.167.018.125.028.246.028.362a2.082 2.082 0 01-.129.703c-.053.138-.117.252-.191.34a.444.444 0 01-.23.16 1.003 1.003 0 01-.243.028zm-13.92 1.468c.227 0 .444-.034.65-.101.206-.067.401-.162.584-.285.184-.123.353-.267.508-.432.156-.164.296-.344.421-.539.172.413.431.739.78.978.347.239.753.358 1.217.358.236 0 .459-.035.667-.104a2.24 2.24 0 001.058-.745c.139-.176.255-.373.348-.591.12.223.266.422.438.598.171.176.36.327.567.452.206.126.425.222.657.29.232.066.469.1.71.1h.167v-1.363h-.167c-.334 0-.637-.14-.908-.421-.271-.28-.5-.706-.685-1.277a5.48 5.48 0 01-.164-.591 9.327 9.327 0 01-.16-1.012 34.6 34.6 0 01-.045-.463l-1.363.111c.009.167.017.341.024.522a12.379 12.379 0 01.003.863 7.77 7.77 0 01-.07.803 3.115 3.115 0 01-.184.724c-.085.215-.2.39-.344.521a.78.78 0 01-.55.199c-.231 0-.415-.063-.549-.188a1.1 1.1 0 01-.296-.487c-.062-.2-.097-.38-.104-.543a5.315 5.315 0 01.017-.897c.019-.255.047-.499.084-.73.037-.232.067-.43.09-.592l-1.356-.257c-.023.213-.057.453-.101.72a8.21 8.21 0 01-.442 1.617 3.239 3.239 0 01-.369.703c-.143.204-.31.368-.497.494-.188.125-.4.187-.636.187-.19 0-.336-.064-.435-.194a.958.958 0 01-.188-.449 3.207 3.207 0 01-.031-.74c.014-.251.04-.498.08-.742.04-.243.08-.47.125-.678.044-.209.08-.371.108-.487l-1.336-.369c-.028.112-.058.244-.09.397a7.058 7.058 0 01-.13.504 9.976 9.976 0 01-.19.585 5.792 5.792 0 01-.272.63c-.102.19-.22.376-.354.56a3.353 3.353 0 01-.442.493c-.16.146-.332.263-.515.351a1.294 1.294 0 01-.567.133h-.146V92h.146a2.578 2.578 0 001.37-.38c.195-.117.374-.26.536-.427.162-.167.315-.352.46-.556a1.903 1.903 0 001.241 1.286c.202.065.412.098.63.098zM470.88 92c.195-.01.387-.028.577-.056.19-.027.376-.07.557-.125a2.691 2.691 0 001.009-.563c.245-.228.445-.487.598-.78.209.27.45.52.727.752.276.232.58.408.915.529.24.078.488.139.74.18.253.042.547.063.88.063h.202v-1.363h-.438a2.38 2.38 0 01-.713-.115 2.337 2.337 0 01-.595-.296 2.552 2.552 0 01-.497-.456 4.692 4.692 0 01-.428-.601c-.176-.297-.341-.592-.494-.884a76.516 76.516 0 00-.463-.87 26.997 26.997 0 00-.487-.862 9.759 9.759 0 00-1.297-1.722 9.568 9.568 0 00-.925-.852l5.516-2.316-.535-1.266-6.15 2.65-.18 1.537a12.043 12.043 0 011.415 1.305c.243.262.476.538.699.828.223.29.417.583.584.88a4.4 4.4 0 01.373.834c.08.26.121.497.121.71 0 .056-.002.111-.007.167-.014.167-.07.33-.17.49a1.856 1.856 0 01-.883.727 1.515 1.515 0 01-.56.112h-2.428V92h2.337zm-8.591 4.883a8.524 8.524 0 001.965-.556 7.19 7.19 0 001.725-1.016 6.198 6.198 0 001.322-1.45 5.255 5.255 0 00.755-1.861h.765v-1.363h-.661a6.622 6.622 0 00-.376-2.02 5.342 5.342 0 00-.403-.881 4.395 4.395 0 00-.529-.738c-.552-.593-1.157-.89-1.815-.89a1.77 1.77 0 00-.86.226 2.61 2.61 0 00-.768.664c-.195.25-.364.549-.508.894a3.926 3.926 0 00-.275.925c-.04.272-.059.495-.059.672 0 .185.016.37.049.556.055.353.19.663.403.932.482.599 1.227.928 2.233.988.255.023.484.035.685.035h.79c-.051.348-.194.701-.428 1.06-.234.36-.553.7-.956 1.02-.404.32-.889.608-1.454.863a8.976 8.976 0 01-1.92.598l.32 1.342zm3.755-6.26h-.047c-.205 0-.423-.007-.654-.021a3.506 3.506 0 01-.296-.032 2.472 2.472 0 01-.348-.076 1.635 1.635 0 01-.334-.14.819.819 0 01-.26-.225.651.651 0 01-.143-.33 2.434 2.434 0 01-.025-.31 3.16 3.16 0 01.153-.908c.065-.202.145-.384.24-.546.096-.163.203-.296.324-.4a.577.577 0 01.383-.157c.083 0 .162.014.236.042.074.028.145.064.212.108s.13.093.188.146c.058.053.11.103.157.15.116.134.228.293.337.476.109.183.207.388.296.616.088.227.16.473.215.737.056.264.09.545.105.842-.181.014-.345.022-.49.024l-.296.004h.047zm-7.512-6.213l1.134-1.133-1.14-1.141-1.135 1.134 1.141 1.14zM457.42 92c.38 0 .734-.026 1.061-.077.327-.05.623-.139.887-.264s.497-.292.7-.5c.2-.21.371-.471.51-.787.14-.32.21-.69.21-1.113 0-.074-.003-.148-.008-.222-.032-.515-.153-1.109-.362-1.781a9.033 9.033 0 00-.222-.644 14.061 14.061 0 00-.383-.897 1.713 1.713 0 01-.062-.143l-1.239.612.606 1.489c.097.237.171.463.222.678.051.216.081.385.09.508.01.123.014.215.014.275 0 .111-.006.216-.02.313a1.35 1.35 0 01-.105.369 1.245 1.245 0 01-.348.455c-.139.11-.301.192-.487.247-.185.056-.391.09-.619.101-.227.012-.475.018-.744.018h-.807V92h1.106zm-7.123 4.536c.306 0 .649-.021 1.03-.063.38-.042.763-.111 1.15-.209a7.705 7.705 0 001.131-.379c.366-.155.693-.346.98-.574.288-.227.52-.494.696-.8a2.118 2.118 0 00.244-1.37 1.463 1.463 0 00-.111-.362 1.988 1.988 0 00-.233-.386 2.356 2.356 0 00-.386-.393h1.794v-1.363h-5.488l-.105 1.356.153.028a9.7 9.7 0 01.668.153c.14.037.289.079.449.125.16.047.321.098.483.153.265.098.487.195.668.292.181.098.328.19.442.275.113.086.196.167.247.244a.377.377 0 01.076.198.864.864 0 01-.233.598c-.155.172-.353.32-.594.445a4.37 4.37 0 01-.81.317 8.716 8.716 0 01-1.68.313c-.247.02-.437.031-.571.031-.232 0-.498-.004-.797-.014-.299-.009-.6-.046-.904-.111a3.453 3.453 0 01-.877-.317 1.949 1.949 0 01-.706-.63c-.292-.444-.438-1.024-.438-1.738 0-1.127.364-2.586 1.092-4.376l-1.273-.515c-.728 1.763-1.122 3.275-1.183 4.536a8.53 8.53 0 00-.007.34c0 1.017.225 1.854.675 2.512.214.362.488.653.825.873.336.22.702.39 1.099.512.396.12.81.2 1.241.24.432.039.85.059 1.253.059z" fill-opacity=".87" fill-rule="nonzero"/><path d="M108 159h488v1H108z" fill-opacity=".12"/><g fill-rule="nonzero"><path d="M552.963 139.995c.21 0 .419-.016.63-.047.21-.031.412-.082.607-.151.195-.07.377-.16.545-.27.169-.109.316-.24.441-.393a1.264 1.264 0 00.271-.553c.028-.122.043-.261.045-.418a2.41 2.41 0 00-.06-.526 3.792 3.792 0 00-.238-.681 5.52 5.52 0 00-.38-.7 6.908 6.908 0 00-1.057-1.28 5.968 5.968 0 00-.608-.506 3.66 3.66 0 00-.618-.366l-.423.95c.157.07.317.163.48.282.164.118.325.254.483.407a6.2 6.2 0 01.456.493c.146.175.28.356.4.542.12.186.222.372.307.559.086.186.147.364.186.534.027.126.041.233.041.324 0 .125-.026.219-.078.282a1.082 1.082 0 01-.438.318c-.174.07-.33.11-.47.122a2.997 2.997 0 01-.72-.008 4.434 4.434 0 01-1.215-.33 3.171 3.171 0 01-.465-.243l-.428.98c.087.08.225.16.413.24.187.08.394.154.62.22.227.066.453.119.681.159.228.04.426.06.592.06zm-6.918 3.74c.292-.142.58-.303.864-.482.283-.18.553-.375.808-.587.256-.212.493-.438.71-.678.217-.24.405-.492.563-.757.159-.264.282-.538.37-.821a2.927 2.927 0 00.097-1.35 7.46 7.46 0 00-.09-.487 14.851 14.851 0 00-.12-.5 71.521 71.521 0 01-.129-.504 7.759 7.759 0 00-.13-.478c-.049-.158-.098-.319-.146-.482l-.992.313a28.016 28.016 0 01.387 1.315c.041.15.08.299.114.448.035.15.064.296.086.438.023.143.034.279.034.407 0 .338-.081.665-.245.981-.163.317-.38.616-.65.898a5.97 5.97 0 01-.92.78c-.345.238-.7.448-1.065.628l.454.919zM538.981 140c.18 0 .332-.012.454-.037.737-.135 1.26-.478 1.57-1.027.073-.133.137-.279.19-.439.055-.16.088-.303.1-.43.012-.127.018-.227.018-.3 0-.125-.01-.257-.031-.397a3.124 3.124 0 00-.188-.678 4.385 4.385 0 00-.397-.759 6.458 6.458 0 00-.652-.837 8.133 8.133 0 00-.6-.6c-.202-.181-.388-.345-.558-.49l3.736-1.571-.402-.95-4.289 1.837-.12 1.07a13.228 13.228 0 011.586 1.516c.223.251.41.488.561.709.151.22.246.402.284.545a2.106 2.106 0 01.068.662c-.02.206-.088.397-.203.574a.944.944 0 01-.402.337c-.17.078-.358.135-.563.172a4.25 4.25 0 01-.647.063c-.226.005-.444.007-.653.007h-.652V140h1.79zm-5.458 0c.327 0 .612-.013.854-.04.241-.025.453-.065.633-.12a1.948 1.948 0 00.835-.487c.15.191.341.347.574.467.233.12.525.18.877.18h.104v-1.023h-.104a.737.737 0 01-.436-.12.856.856 0 01-.266-.302 1.429 1.429 0 01-.138-.397 3.685 3.685 0 01-.058-.407 16.002 16.002 0 00-.094-.902 4.9 4.9 0 00-.151-.71l-.98.277c.076.264.129.499.158.704.03.205.045.407.045.605 0 .209-.035.392-.105.548a.942.942 0 01-.326.391c-.148.105-.339.183-.574.235a3.964 3.964 0 01-.848.078h-.777V140h.777zm.194 2.551l.845-.845-.856-.856-.845.85.856.851zm2.139.01l.845-.85-.856-.85-.845.845.856.856zm-5.505-8.749l.85-.85-.855-.856-.85.85.855.856zm-3.474 6.303a16.647 16.647 0 001.82-.1c.282-.03.542-.07.78-.12a4.51 4.51 0 00.619-.166l.307-.105c.178.063.37.118.574.165.206.047.417.086.634.117a9.053 9.053 0 001.344.094v-1.023a7.602 7.602 0 01-1.404-.125c.098-.097.181-.209.25-.334.07-.125.127-.259.17-.401.044-.143.076-.292.097-.447.02-.154.031-.31.031-.467 0-.208-.017-.396-.052-.563a2.59 2.59 0 00-.13-.443 1.668 1.668 0 00-.178-.334 2.142 2.142 0 00-.193-.24 1.49 1.49 0 00-.548-.392 1.756 1.756 0 00-.668-.125c-.264 0-.515.064-.753.193-.239.129-.452.31-.64.543a2.71 2.71 0 00-.579 1.711c0 .525.239.984.715 1.377a7.213 7.213 0 01-.965.138c-.195.016-.38.026-.553.03a15.27 15.27 0 01-.97-.005c-.425-.011-.8-.04-1.125-.09a4.355 4.355 0 01-.85-.206 2.16 2.16 0 01-.61-.33 1.716 1.716 0 01-.405-.46 1.175 1.175 0 01-.17-.43 2.44 2.44 0 01-.034-.384c0-.045.002-.089.006-.13.006-.157.028-.306.065-.45a4.02 4.02 0 01.115-.377c.04-.11.075-.197.106-.261.032-.065.047-.098.047-.102l-.907-.496-.079.165a4.723 4.723 0 00-.305.916 2.499 2.499 0 00-.073.498l-.003.237c0 .202.021.407.063.616.049.243.143.481.282.714.316.536.822.934 1.518 1.195.696.261 1.58.393 2.65.397zm3.485-1.607a1.624 1.624 0 01-.697-.42 1.124 1.124 0 01-.198-.274.588.588 0 01-.07-.261c0-.216.03-.41.09-.584.062-.174.138-.322.23-.444.093-.122.193-.215.303-.282.11-.066.213-.099.31-.099.042 0 .104.009.186.026.081.018.162.061.242.13.08.07.15.176.212.317.06.14.09.336.09.586 0 .122-.008.242-.025.36-.018.119-.05.234-.1.345-.048.111-.118.217-.21.318-.093.101-.214.195-.363.282zm-17.113 5.155c.358-.056.71-.142 1.054-.259.344-.116.672-.26.983-.433.311-.172.602-.373.871-.602.27-.23.507-.486.713-.767.205-.282.373-.589.506-.921.132-.332.217-.69.255-1.072a4.831 4.831 0 00.006-.95 5.168 5.168 0 00-.173-.913 4.328 4.328 0 00-.326-.822 3.207 3.207 0 00-.467-.675c-.414-.446-.868-.668-1.361-.668-.223 0-.438.056-.645.17-.207.112-.399.279-.576.498a2.901 2.901 0 00-.381.67c-.108.26-.177.49-.206.694-.03.204-.045.371-.045.504 0 .139.013.278.037.417.042.264.143.497.303.699.361.449.92.696 1.674.74.192.018.363.027.514.027h.592c-.038.26-.145.526-.32.796-.176.27-.415.524-.718.764a5.16 5.16 0 01-1.09.647c-.425.191-.905.34-1.44.449l.24 1.007zm2.865-4.697l-.084.001c-.153 0-.317-.005-.49-.016a2.63 2.63 0 01-.223-.023 1.854 1.854 0 01-.26-.058 1.226 1.226 0 01-.25-.104.614.614 0 01-.197-.17.489.489 0 01-.107-.247 1.826 1.826 0 01-.018-.232 2.37 2.37 0 01.295-1.09c.071-.123.152-.223.243-.3a.433.433 0 01.287-.118c.062 0 .121.01.177.031.056.02.109.048.16.08.05.034.096.07.14.11.043.04.083.078.117.113.087.1.172.22.253.357.082.137.156.291.222.462.066.17.12.355.162.553.042.198.068.408.078.631a6.1 6.1 0 01-.505.02zM505.324 140c.18 0 .332-.012.453-.037.738-.135 1.261-.478 1.57-1.027.074-.133.137-.279.191-.439.054-.16.087-.303.1-.43.012-.127.018-.227.018-.3 0-.125-.01-.257-.032-.397a3.124 3.124 0 00-.187-.678 4.385 4.385 0 00-.397-.759 6.458 6.458 0 00-.652-.837 8.133 8.133 0 00-.6-.6c-.202-.181-.388-.345-.558-.49l3.735-1.571-.402-.95-4.288 1.837-.12 1.07a13.228 13.228 0 011.586 1.516c.222.251.41.488.56.709.152.22.247.402.285.545a2.106 2.106 0 01.068.662c-.021.206-.089.397-.204.574a.944.944 0 01-.401.337c-.17.078-.359.135-.564.172a4.25 4.25 0 01-.647.063c-.226.005-.443.007-.652.007h-.652V140h1.79zm-4.336-6.083l.85-.85-.855-.857-.85.85.855.857zM498.416 140c.532 0 1.033-.03 1.502-.091.47-.061.868-.154 1.195-.28.4.133.812.228 1.237.285.424.057.853.086 1.288.086h.105v-1.023h-.1c-.11 0-.227-.003-.35-.01a12.258 12.258 0 01-.711-.063 3.289 3.289 0 01-.31-.052c.187-.205.33-.439.43-.702.099-.262.152-.47.159-.626.007-.154.01-.247.01-.279 0-.24-.031-.475-.094-.704a2.139 2.139 0 00-.341-.704 1.789 1.789 0 00-1.396-.73h-.057c-.233 0-.461.058-.684.176a2.02 2.02 0 00-.647.554c-.188.24-.331.504-.43.793-.1.288-.149.596-.149.923 0 .5.226.95.678 1.346a16.39 16.39 0 01-.59.052c-.236.018-.484.026-.745.026h-.105V140h.105zm2.66-1.492a1.559 1.559 0 01-.712-.415 1.124 1.124 0 01-.198-.274.597.597 0 01-.07-.266c0-.212.03-.406.091-.582.06-.175.138-.325.232-.448.094-.124.196-.22.305-.287a.588.588 0 01.306-.102c.114 0 .224.046.328.138.105.092.192.21.264.355.071.144.117.28.138.41.02.128.031.233.031.313a1.39 1.39 0 01-.248.787 1.16 1.16 0 01-.466.37zm-7.33-4.962l.772-.772-.777-.777-.772.772.777.777zm-1.179 1.649l.845-.85-.855-.856-.846.85.856.856zm2.29.005l.846-.845-.856-.856-.845.845.855.856zm-7.44 8.26a6.48 6.48 0 001.54-.243c.47-.138.873-.354 1.213-.647a2.94 2.94 0 00.793-1.146c.19-.47.284-1.048.284-1.737.076.056.151.103.224.143a1.345 1.345 0 00.488.157c.092.012.2.018.321.018.296 0 .575-.055.837-.164.263-.11.499-.286.707-.53.073.112.16.21.259.295.099.085.203.157.313.217.11.059.22.104.331.135.111.032.214.047.308.047a1.545 1.545 0 00.94-.303c.131-.097.248-.212.351-.344a1.99 1.99 0 00.258-.443c.087.17.198.322.332.456a2.156 2.156 0 00.954.556c.18.049.361.073.546.073h.104v-1.023h-.104a.975.975 0 01-.52-.135 1.384 1.384 0 01-.388-.36 2.15 2.15 0 01-.28-.517 4.35 4.35 0 01-.182-.605 6.07 6.07 0 01-.107-.623c-.024-.207-.04-.4-.047-.577l-1.022.073c.007.118.018.268.033.449a6.732 6.732 0 01-.007 1.195 2.19 2.19 0 01-.126.555c-.062.165-.15.3-.266.405a.641.641 0 01-.448.156.487.487 0 01-.334-.115.782.782 0 01-.206-.305 1.794 1.794 0 01-.107-.433c-.021-.162-.032-.3-.032-.412v-.258c0-.112.002-.223.006-.334.007-.164.012-.312.015-.444l-1.059-.078c-.007.177-.013.358-.018.543a5.914 5.914 0 01-.04.537c-.02.174-.05.338-.09.493-.04.155-.1.29-.18.404a.888.888 0 01-.306.274.95.95 0 01-.462.102c-.24 0-.437-.058-.592-.175a1.5 1.5 0 01-.394-.454 3.51 3.51 0 01-.279-.62 21.545 21.545 0 00-.35-.942l-.085-.235-.866.563c.114.3.218.6.31.9.092.301.16.589.2.864a5.188 5.188 0 01.058 1.002 4.328 4.328 0 01-.177.996c-.317.967-1.214 1.485-2.692 1.555h-.178c-.295 0-.553-.032-.772-.097a2.194 2.194 0 01-.569-.25 1.671 1.671 0 01-.399-.35 2.221 2.221 0 01-.26-.396 1.985 1.985 0 01-.152-.389 3.213 3.213 0 01-.07-.323 3.023 3.023 0 01-.026-.61c.01-.206.033-.41.07-.614a5.913 5.913 0 01.308-1.103c.06-.157.122-.293.182-.41.061-.116.114-.204.16-.263l-.83-.616c-.143.237-.28.5-.41.788-.13.289-.24.595-.328.92a4.918 4.918 0 00-.165.846c-.02.238-.03.423-.03.556 0 .215.015.433.046.652.063.424.187.802.373 1.135.186.332.423.614.71.847.287.233.614.41.983.533.369.121.767.182 1.195.182h.203zm-12.688.203c.358-.056.71-.142 1.054-.259.344-.116.672-.26.983-.433.311-.172.602-.373.871-.602.27-.23.507-.486.713-.767.205-.282.373-.589.506-.921.132-.332.217-.69.255-1.072a4.831 4.831 0 00.006-.95 5.168 5.168 0 00-.173-.913 4.328 4.328 0 00-.326-.822 3.207 3.207 0 00-.467-.675c-.414-.446-.868-.668-1.361-.668-.223 0-.438.056-.645.17-.207.112-.399.279-.576.498a2.901 2.901 0 00-.381.67c-.108.26-.177.49-.206.694-.03.204-.045.371-.045.504 0 .139.013.278.037.417.042.264.143.497.303.699.361.449.92.696 1.674.74.192.018.363.027.514.027h.592c-.038.26-.145.526-.32.796-.176.27-.415.524-.718.764a5.16 5.16 0 01-1.09.647c-.425.191-.905.34-1.44.449l.24 1.007zm2.865-4.697l-.084.001c-.153 0-.317-.005-.49-.016a2.63 2.63 0 01-.223-.023 1.854 1.854 0 01-.26-.058 1.226 1.226 0 01-.25-.104.614.614 0 01-.197-.17.489.489 0 01-.107-.247 1.826 1.826 0 01-.018-.232 2.37 2.37 0 01.295-1.09c.071-.123.152-.223.243-.3a.433.433 0 01.287-.118c.062 0 .121.01.177.031.056.02.109.048.16.08.05.034.096.07.14.11.043.04.083.078.117.113.087.1.172.22.253.357.082.137.156.291.222.462.066.17.12.355.162.553.042.198.068.408.078.631a6.1 6.1 0 01-.505.02zM467.779 140c.689 0 1.216-.183 1.581-.548.129-.132.23-.276.305-.433a2.515 2.515 0 00.243-.908c.007-.128.01-.24.01-.334v-.135c0-.115-.002-.249-.008-.402-.005-.153-.01-.334-.018-.543-.007-.208-.015-.447-.026-.717l-.031-.92a60.924 60.924 0 00-.198-2.907l-1.023.11.026.279c.014.155.03.357.05.608l.028.406a58.389 58.389 0 01.079 1.54l.062 1.578c.018.426.026.752.026.978v.058c0 .497-.088.836-.266 1.017-.167.167-.447.25-.84.25h-.396V140h.396zm-3.882 0c.512 0 .941-.053 1.29-.16.347-.105.63-.268.85-.487.15.191.34.347.573.467.233.12.526.18.877.18h.104v-1.023h-.104a.737.737 0 01-.436-.12.856.856 0 01-.266-.302 1.429 1.429 0 01-.138-.397 3.685 3.685 0 01-.057-.407 16.002 16.002 0 00-.094-.902 4.9 4.9 0 00-.152-.71l-.98.277c.076.264.129.499.159.704.03.205.044.407.044.605 0 .414-.132.726-.397.937-.264.21-.688.315-1.273.315h-.193V140h.193zm1.665 2.718l.85-.85-.855-.856-.85.85.855.856zM463.913 140v-1.023h-.104c-.22 0-.408-.022-.566-.067a.814.814 0 01-.358-.188.435.435 0 01-.138-.269 2.819 2.819 0 01-.018-.331v-2.62a36.415 36.415 0 00-.107-2.749 7.734 7.734 0 00-.081-.652l-1.023.188a6.5 6.5 0 01.081.628c.023.256.042.535.058.838a43.486 43.486 0 01.044 1.873 76.848 76.848 0 010 1.612 158.524 158.524 0 00-.01.718v.06c0 .083.001.183.005.3a2.015 2.015 0 00.185.76c.06.13.149.254.263.369.188.188.417.327.686.417.27.09.596.136.979.136h.104zm-13.336 3.438a6.243 6.243 0 001.365-.203 3.672 3.672 0 001.088-.496 2.78 2.78 0 00.665-.602c.179-.228.322-.474.43-.739.108-.264.182-.528.222-.79.04-.263.06-.514.06-.754a3.11 3.11 0 00-.005-.183c.076.052.151.1.224.141a1.332 1.332 0 00.475.165 1.56 1.56 0 00.35.013c.292-.014.568-.072.829-.173.26-.1.496-.274.704-.521.073.111.16.21.261.297a1.635 1.635 0 00.652.347c.112.03.216.044.313.044.317 0 .587-.055.81-.167.222-.11.403-.264.544-.459.141-.195.246-.422.313-.683a3.362 3.362 0 00.055-1.427 5.365 5.365 0 00-.133-.571 6.031 6.031 0 00-.18-.527 11.213 11.213 0 00-.188-.45 6.498 6.498 0 00-.159-.333l-.096-.188-.913.48c.055.111.121.242.198.391a5.521 5.521 0 01.404 1.075c.054.205.086.418.097.637v.094c0 .125-.01.247-.032.365-.03.15-.077.282-.138.396a.796.796 0 01-.23.274.519.519 0 01-.315.102.492.492 0 01-.329-.115.917.917 0 01-.227-.3 2.074 2.074 0 01-.148-.415 4.31 4.31 0 01-.09-.456 5.974 5.974 0 01-.043-.428 13.821 13.821 0 01-.019-.331l-.02-.449-1.06.104v.715c0 .119-.001.235-.005.35a3.834 3.834 0 01-.05.49 1.204 1.204 0 01-.138.402.766.766 0 01-.271.277.88.88 0 01-.444.11h-.046c-.192 0-.362-.043-.512-.126a1.513 1.513 0 01-.43-.37 2.993 2.993 0 01-.345-.54c-.102-.204-.2-.415-.294-.634l-.329-.757-.871.563c0 .007.03.061.091.162.06.101.133.245.216.433.087.205.17.432.25.679.08.246.142.498.184.753.041.256.062.51.062.76v.114c-.01.289-.06.576-.151.861-.317.974-1.216 1.492-2.698 1.555h-.172c-.295 0-.553-.032-.772-.097a2.194 2.194 0 01-.569-.25 1.671 1.671 0 01-.399-.35 2.221 2.221 0 01-.26-.396 2.008 2.008 0 01-.152-.386 3.082 3.082 0 01-.07-.321 3.06 3.06 0 01-.026-.616c.01-.208.033-.414.07-.615a5.975 5.975 0 01.308-1.101c.06-.157.122-.293.182-.41.061-.116.114-.204.16-.263l-.83-.61a6.565 6.565 0 00-.738 1.71 4.863 4.863 0 00-.165.843c-.02.239-.03.424-.03.556 0 .216.015.433.046.652.056.39.17.747.342 1.072.172.325.39.605.655.838.587.521 1.342.782 2.264.782h.203z" fill-opacity=".56"/><path d="M592.431 140c.919 0 1.621-.243 2.108-.73.172-.177.307-.37.407-.578a3.353 3.353 0 00.324-1.21c.009-.172.013-.32.013-.445v-.181c0-.153-.003-.332-.01-.536l-.024-.723-.035-.957c-.014-.36-.028-.769-.042-1.228a81.23 81.23 0 00-.264-3.875l-1.364.146a63.316 63.316 0 01.243 3.777l.084 2.105c.023.568.035 1.003.035 1.305v.076c0 .663-.118 1.115-.355 1.357-.222.222-.596.334-1.12.334h-.528V140h.528zm-5.175 0c.681 0 1.254-.07 1.718-.212.464-.142.842-.358 1.134-.65.2.254.454.462.765.622.31.16.7.24 1.169.24h.139v-1.363h-.14c-.236 0-.43-.054-.58-.16a1.141 1.141 0 01-.355-.404 1.905 1.905 0 01-.184-.529 4.913 4.913 0 01-.077-.542 21.332 21.332 0 00-.125-1.204 6.534 6.534 0 00-.202-.946l-1.308.369c.102.352.173.665.213.939.039.274.059.543.059.807 0 .552-.176.968-.529 1.249-.352.28-.918.42-1.697.42h-.258V140h.258zm2.219 3.624l1.134-1.134-1.141-1.14-1.134 1.133 1.14 1.141zM587.277 140v-1.363h-.14a2.77 2.77 0 01-.754-.09c-.211-.061-.37-.145-.477-.251a.58.58 0 01-.184-.359 3.758 3.758 0 01-.025-.441v-3.493a48.553 48.553 0 00-.066-2.546c-.02-.403-.046-.776-.076-1.12-.03-.343-.066-.633-.108-.87l-1.364.251c.042.218.078.498.108.839.03.34.056.713.077 1.116.02.404.036.82.045 1.252.01.432.014.847.014 1.245.005.409.007.796.007 1.162v.27c-.001.263-.004.502-.007.718a211.355 211.355 0 00-.013.957v.198c0 .084.003.178.006.282a2.686 2.686 0 00.247 1.012c.081.176.198.34.351.494.25.25.556.436.915.556.36.12.794.181 1.304.181h.14zm-17.781 4.584a8.324 8.324 0 001.819-.271 4.896 4.896 0 001.45-.66c.353-.233.648-.5.887-.804.239-.304.43-.632.574-.985.144-.352.242-.703.296-1.054.053-.35.08-.685.08-1.005 0-.083-.003-.164-.007-.243.102.07.202.132.299.188a1.882 1.882 0 00.946.243c.046 0 .097-.002.153-.007.39-.018.758-.095 1.106-.23.348-.134.661-.366.94-.695.097.148.213.28.347.396a2.18 2.18 0 00.87.463c.148.04.287.06.417.06.422 0 .781-.075 1.078-.223.297-.149.54-.353.727-.613.188-.26.327-.563.418-.911a4.483 4.483 0 00.073-1.903 7.153 7.153 0 00-.178-.761 8.042 8.042 0 00-.24-.703 14.953 14.953 0 00-.25-.598 8.665 8.665 0 00-.212-.445l-.129-.25-1.217.64c.074.148.162.321.264.52a7.362 7.362 0 01.54 1.433c.071.275.114.557.128.85v.125c0 .167-.014.33-.042.487-.042.2-.103.375-.184.529a1.06 1.06 0 01-.306.365.692.692 0 01-.421.135.656.656 0 01-.439-.153 1.223 1.223 0 01-.302-.4 2.765 2.765 0 01-.198-.553 5.746 5.746 0 01-.119-.608 7.965 7.965 0 01-.059-.57c-.011-.18-.02-.327-.024-.443l-.028-.598-1.412.14v.952c0 .158-.002.313-.007.466-.01.232-.031.45-.066.654a1.606 1.606 0 01-.185.536 1.02 1.02 0 01-.361.369c-.153.092-.35.141-.592.146h-.062c-.255 0-.482-.056-.682-.167a2.017 2.017 0 01-.574-.494 3.99 3.99 0 01-.459-.72 14.998 14.998 0 01-.393-.845l-.438-1.009-1.162.751c0 .01.04.081.122.216.08.134.177.327.288.577.116.274.228.575.334.905.107.329.188.664.244 1.005.055.34.083.678.083 1.012v.153a4.296 4.296 0 01-.201 1.148c-.422 1.299-1.621 1.99-3.597 2.073h-.23c-.394 0-.737-.043-1.03-.129a2.925 2.925 0 01-.757-.334 2.228 2.228 0 01-.533-.466 2.962 2.962 0 01-.347-.528 2.677 2.677 0 01-.202-.515 4.109 4.109 0 01-.094-.428 4.08 4.08 0 01-.035-.82c.014-.28.045-.553.094-.822a7.966 7.966 0 01.41-1.468 5.47 5.47 0 01.244-.546c.081-.155.152-.272.212-.351l-1.106-.814a8.754 8.754 0 00-.55 1.054 8.714 8.714 0 00-.434 1.228 6.484 6.484 0 00-.22 1.123 6.142 6.142 0 00.02 1.61c.076.52.228.997.457 1.43.23.434.52.806.873 1.117.784.696 1.79 1.043 3.02 1.043h.27z" fill-opacity=".87"/></g><g><path d="M108 207h488v1H108z" fill-opacity=".12"/><path d="M592.438 178.845l1.134-1.134-1.14-1.14-1.135 1.133 1.141 1.141zM589.614 188c.459-.005.911-.022 1.356-.052.446-.03.871-.085 1.277-.164a6.536 6.536 0 001.134-.323c.35-.137.66-.314.932-.532a2.74 2.74 0 00.671-.793c.177-.311.293-.677.348-1.1a4.997 4.997 0 00.021-1.126 5.945 5.945 0 00-.212-1.096 5.3 5.3 0 00-.407-1.002 4.113 4.113 0 00-.57-.824c-.501-.543-1.058-.814-1.67-.814a1.71 1.71 0 00-.807.205c-.26.137-.494.344-.703.623-.366.473-.614 1.062-.744 1.767-.028.19-.042.364-.042.521v.119c.01.194.035.368.077.521.042.153.095.29.16.407.065.119.13.22.195.303.12.153.266.289.438.407.171.118.362.217.57.296.209.078.432.138.668.177.237.04.48.06.73.06h.703l-.111.124a1.453 1.453 0 01-.146.14 1.95 1.95 0 01-.522.278 6.013 6.013 0 01-.866.254c-.341.076-.728.139-1.162.187a12.73 12.73 0 01-1.415.074h-.14V188h.237zm3.819-3.798c-.209 0-.431-.005-.668-.014a2.745 2.745 0 01-.56-.09 1.009 1.009 0 01-.403-.21.633.633 0 01-.202-.305 1.224 1.224 0 01-.045-.32c0-.08.007-.163.02-.25.042-.237.102-.446.178-.627.077-.18.159-.334.247-.459a1.16 1.16 0 01.264-.282.419.419 0 01.23-.094c.13 0 .252.04.365.122.114.081.208.164.282.247.236.264.425.596.567.995.141.399.228.823.26 1.273-.152.01-.33.014-.535.014zm-9.843 8.932a12.712 12.712 0 001.704-1.03 9.084 9.084 0 001.471-1.304 6.295 6.295 0 001.033-1.54c.26-.553.39-1.132.39-1.74v-.028c.116.125.238.223.365.292a1.686 1.686 0 00.713.209c.102.005.186.007.25.007h.119v-1.363h-.112c-.231 0-.444-.056-.636-.167a1.88 1.88 0 01-.553-.526 4.913 4.913 0 01-.515-.925 15.038 15.038 0 01-.515-1.374l-1.307.404c.055.171.122.386.201.643.08.258.158.532.237.825.079.292.152.59.219.893.067.304.117.588.15.853a2.596 2.596 0 01-.077.94c-.084.31-.21.609-.38.896-.168.288-.376.562-.622.824a8.04 8.04 0 01-.807.748 9.486 9.486 0 01-.932.665c-.33.206-.66.395-.995.567l.599 1.23zm-6.393-.25a8.398 8.398 0 001.405-.345c.459-.155.896-.348 1.311-.577.415-.23.802-.498 1.162-.804a5.91 5.91 0 00.95-1.022c.273-.376.498-.785.674-1.228.176-.443.29-.92.341-1.43a6.442 6.442 0 00.007-1.266 6.891 6.891 0 00-.23-1.217 5.77 5.77 0 00-.434-1.096 4.275 4.275 0 00-.623-.9c-.552-.594-1.157-.891-1.816-.891a1.77 1.77 0 00-.859.226 2.61 2.61 0 00-.768.664c-.195.25-.365.549-.508.894a3.926 3.926 0 00-.275.925c-.04.272-.06.495-.06.672 0 .185.017.37.05.556.055.353.19.663.403.932.482.599 1.227.928 2.233.988.255.023.483.035.685.035h.79c-.051.348-.194.701-.428 1.06-.234.36-.553.7-.957 1.02-.403.32-.888.608-1.453.863a8.976 8.976 0 01-1.92.598l.32 1.342zm3.755-6.262h-.048c-.204 0-.422-.006-.654-.02a3.506 3.506 0 01-.295-.032 2.472 2.472 0 01-.348-.076 1.635 1.635 0 01-.334-.14.819.819 0 01-.26-.225.651.651 0 01-.143-.33 2.434 2.434 0 01-.025-.31 3.16 3.16 0 01.153-.908c.065-.202.145-.384.24-.546.095-.163.203-.296.324-.4a.577.577 0 01.382-.157c.084 0 .163.014.237.042.074.028.145.064.212.108s.13.093.188.146c.058.053.11.103.156.15.116.134.229.293.338.476.109.183.207.388.295.616.089.227.16.473.216.737.056.264.09.545.104.842-.18.014-.344.022-.49.024l-.296.004h.048zm-9.898-7.874l1.03-1.03-1.037-1.036-1.03 1.03 1.037 1.036zm-1.572 2.198l1.127-1.134-1.141-1.14-1.127 1.133 1.14 1.141zm3.054.007l1.127-1.127-1.141-1.14-1.127 1.126 1.14 1.141zm-9.496 11.631a8.324 8.324 0 001.82-.271 4.896 4.896 0 001.45-.66c.352-.233.648-.5.887-.804.238-.304.43-.632.573-.985.144-.352.243-.703.296-1.054.053-.35.08-.685.08-1.005 0-.083-.002-.164-.007-.243.102.07.202.132.3.188a1.882 1.882 0 00.946.243c.046 0 .097-.002.152-.007.39-.018.759-.095 1.106-.23.348-.134.661-.366.94-.695.097.148.213.28.347.396a2.18 2.18 0 00.87.463c.148.04.288.06.417.06.422 0 .782-.075 1.079-.223.296-.149.539-.353.727-.613.187-.26.327-.563.417-.911.09-.348.138-.721.143-1.12 0-.26-.024-.52-.07-.783a7.153 7.153 0 00-.177-.761 8.042 8.042 0 00-.24-.703 14.951 14.951 0 00-.25-.598 8.663 8.663 0 00-.213-.445 21.91 21.91 0 01-.129-.25l-1.217.64c.074.148.162.321.264.52a7.362 7.362 0 01.54 1.433c.071.275.114.557.128.85v.125c0 .167-.014.33-.042.487-.041.2-.103.375-.184.529a1.06 1.06 0 01-.306.365.692.692 0 01-.42.135.656.656 0 01-.44-.153 1.223 1.223 0 01-.302-.4 2.765 2.765 0 01-.198-.553 5.746 5.746 0 01-.118-.608 7.965 7.965 0 01-.06-.57 18.43 18.43 0 01-.024-.443l-.028-.598-1.412.14v.952c0 .158-.002.313-.007.466-.009.232-.031.45-.066.654a1.606 1.606 0 01-.184.536 1.02 1.02 0 01-.362.369c-.153.092-.35.141-.591.146h-.063c-.255 0-.482-.056-.682-.167a2.017 2.017 0 01-.573-.494 3.99 3.99 0 01-.46-.72 14.998 14.998 0 01-.393-.845l-.438-1.009-1.162.751c0 .01.04.081.122.216.081.134.177.327.289.577.116.274.227.575.334.905.106.329.188.664.243 1.005.056.34.084.678.084 1.012v.153a4.296 4.296 0 01-.202 1.148c-.422 1.299-1.621 1.99-3.597 2.073h-.23c-.393 0-.737-.043-1.029-.129a2.925 2.925 0 01-.758-.334 2.228 2.228 0 01-.532-.466 2.962 2.962 0 01-.348-.528 2.677 2.677 0 01-.202-.515 4.109 4.109 0 01-.094-.428 4.08 4.08 0 01-.034-.82c.013-.28.045-.553.093-.822a7.966 7.966 0 01.41-1.468 5.47 5.47 0 01.244-.546c.082-.155.152-.272.213-.351l-1.107-.814a8.754 8.754 0 00-.55 1.054 8.714 8.714 0 00-.434 1.228 6.484 6.484 0 00-.219 1.123 6.142 6.142 0 00.02 1.61c.075.52.227.997.457 1.43.23.434.52.806.873 1.117.783.696 1.79 1.043 3.019 1.043h.271zm-14.477-15.005c.019-.056.048-.13.087-.226.04-.095.089-.19.147-.285.057-.095.124-.179.198-.25a.404.404 0 01.236-.122.896.896 0 01.417.028c.135.041.278.091.429.149.15.058.311.114.483.167.172.053.362.08.57.08h.042c.162 0 .316-.023.46-.07.157-.05.302-.116.434-.194.132-.08.252-.166.358-.261.107-.095.199-.186.275-.272a2.384 2.384 0 00.247-.323l-.793-.515a4.152 4.152 0 01-.136.167c-.062.074-.139.15-.23.226a1.45 1.45 0 01-.288.192.68.68 0 01-.306.076h-.028a1.553 1.553 0 01-.4-.063 4.217 4.217 0 01-.372-.132 5.284 5.284 0 00-.46-.167 1.856 1.856 0 00-.556-.076c-.199 0-.394.043-.584.129-.19.085-.364.201-.522.347a2.093 2.093 0 00-.626 1.11l.918.285zm2.56 10.421c.065-.46.104-.977.115-1.555.012-.577.018-1.051.018-1.422 0-.617-.007-1.31-.021-2.08a63.803 63.803 0 00-.09-2.366 93.008 93.008 0 00-.188-2.643l-1.364.209c.065.626.123 1.396.174 2.31.051.913.093 1.98.125 3.2a31.945 31.945 0 01-.007 2.12c-.023.71-.067 1.427-.132 2.15l1.37.077zm-7.63 0c.38 0 .747-.026 1.102-.077.355-.05.68-.139.977-.264.297-.125.56-.292.79-.5.23-.21.414-.471.553-.787.139-.32.208-.69.208-1.113 0-.074-.002-.148-.006-.222-.033-.515-.154-1.109-.362-1.781a9.034 9.034 0 00-.223-.644 14.061 14.061 0 00-.382-.897 1.712 1.712 0 01-.063-.143l-1.238.612.605 1.489c.097.237.172.463.223.678.05.216.08.385.09.508.01.123.014.215.014.275 0 .111-.007.216-.021.313a1.35 1.35 0 01-.104.369 1.089 1.089 0 01-.39.455c-.167.11-.36.192-.577.247-.218.056-.455.09-.71.101-.255.012-.517.018-.786.018h-1.343V188h1.642zm2.65 3.624l1.14-1.14-1.126-1.127-1.141 1.14 1.127 1.127zm-3.04.014l1.14-1.14-1.126-1.135-1.141 1.141 1.127 1.134zm1.55 1.99l1.037-1.037-1.03-1.03-1.036 1.037 1.03 1.03zM542.13 188v-1.363h-.14a2.77 2.77 0 01-.754-.09c-.211-.061-.37-.145-.477-.251a.58.58 0 01-.184-.359 3.758 3.758 0 01-.024-.441v-3.493a48.553 48.553 0 00-.067-2.546 31.39 31.39 0 00-.076-1.12c-.03-.343-.066-.633-.108-.87l-1.363.251c.041.218.077.498.107.839.03.34.056.713.077 1.116.02.404.036.82.045 1.252.01.432.014.847.014 1.245.005.409.007.796.007 1.162 0 .371-.002.7-.007.988a211.315 211.315 0 00-.013.957v.198l.006.282a2.686 2.686 0 00.247 1.012c.081.176.198.34.351.494.25.25.556.436.915.556.36.12.794.181 1.305.181h.139zm-9.913 4.98c.39-.19.773-.404 1.151-.643.378-.238.737-.5 1.078-.782a9.21 9.21 0 00.946-.905c.29-.32.54-.656.752-1.008.21-.353.375-.718.494-1.096.118-.378.177-.769.177-1.172 0-.204-.016-.413-.049-.626a9.947 9.947 0 00-.122-.65c-.048-.22-.102-.444-.16-.668a95.398 95.398 0 01-.17-.672 10.345 10.345 0 00-.174-.636c-.065-.211-.13-.426-.195-.644l-1.321.418c.125.39.243.779.354 1.168l.16.585c.056.2.107.399.153.598.047.2.085.394.115.584.03.19.045.371.045.543 0 .45-.109.886-.327 1.308-.217.422-.506.82-.866 1.196-.359.376-.768.723-1.227 1.04-.46.318-.933.597-1.42.839l.606 1.224zm-3.889-12.653l1.127-1.127-1.141-1.14-1.127 1.133 1.141 1.134zm2.852.014l1.127-1.134-1.14-1.134-1.128 1.127 1.141 1.14zM528.146 188c.38 0 .748-.026 1.103-.077.354-.05.68-.139.977-.264.297-.125.56-.292.79-.5.23-.21.414-.471.553-.787.139-.32.208-.69.208-1.113 0-.074-.002-.148-.007-.222-.032-.515-.153-1.109-.361-1.781a9.033 9.033 0 00-.223-.644 14.063 14.063 0 00-.383-.897 1.712 1.712 0 01-.062-.143l-1.238.612.605 1.489c.097.237.171.463.222.678.051.216.082.385.09.508.01.123.015.215.015.275 0 .111-.007.216-.021.313a1.35 1.35 0 01-.104.369 1.089 1.089 0 01-.39.455c-.167.11-.36.192-.577.247-.218.056-.455.09-.71.101-.255.012-.517.018-.786.018h-1.343V188h1.642zm-9.697 0c.714 0 1.335-.188 1.864-.563.269-.186.464-.374.584-.564.868.608 1.765.97 2.693 1.085.078.01.155.014.23.014.477 0 .883-.22 1.217-.66.176.231.397.404.664.518.267.113.571.17.915.17h.167v-1.363h-.167a.926.926 0 01-.717-.32 1.072 1.072 0 01-.195-.341 1.341 1.341 0 01-.076-.41 5.854 5.854 0 00-.08-.759 4.076 4.076 0 00-.536-1.437 2.539 2.539 0 00-.47-.567 2.081 2.081 0 00-.615-.382 2.035 2.035 0 00-.769-.14c-.408 0-.757.109-1.047.324-.29.216-.534.495-.734.838-.014.024-.03.053-.052.087-.02.035-.054.098-.1.188-.047.09-.112.22-.195.39-.084.17-.198.395-.341.678-.177.339-.346.62-.508.842-.501.668-1.076 1.004-1.725 1.009h-.146V188h.139zm5.21-1.384c-.07 0-.146-.007-.23-.021a3.463 3.463 0 01-.768-.272 7.137 7.137 0 01-.95-.556l.039-.077.09-.184.191-.39c.084-.169.195-.397.334-.685.283-.52.547-.779.793-.779.209 0 .39.058.543.174.153.116.28.266.379.449.1.183.176.388.23.615.053.228.084.453.093.675v.112c0 .125-.011.238-.034.34a1 1 0 01-.146.334c-.121.177-.309.265-.564.265zM518.588 188v-1.363h-.14a2.77 2.77 0 01-.754-.09c-.211-.061-.37-.145-.477-.251a.58.58 0 01-.184-.359 3.758 3.758 0 01-.024-.441v-3.493a48.55 48.55 0 00-.066-2.546 31.39 31.39 0 00-.077-1.12c-.03-.343-.066-.633-.108-.87l-1.363.251c.042.218.077.498.108.839.03.34.055.713.076 1.116.021.404.036.82.045 1.252.01.432.014.847.014 1.245.005.409.007.796.007 1.162 0 .371-.002.7-.007.988a211.355 211.355 0 00-.013.957v.08c0 .11.002.244.006.4a2.686 2.686 0 00.247 1.012c.081.176.199.34.352.494.25.25.555.436.914.556.36.12.795.181 1.305.181h.139zm-10.115-3.36l1.134-1.134-1.14-1.14-1.135 1.133 1.141 1.141zm-.306 8.14c.57 0 1.112-.061 1.624-.182.513-.12.98-.305 1.402-.553a4.23 4.23 0 001.11-.942c.317-.38.564-.833.74-1.357.167-.5.258-.9.272-1.2.014-.299.02-.5.02-.602a7.175 7.175 0 00-.392-2.361 11.15 11.15 0 00-.397-1.016 7.888 7.888 0 00-.525-.991l-1.155.737c.005 0 .048.068.129.205.08.137.175.325.282.564.106.239.214.52.323.841a6.615 6.615 0 01.344 2.119v.083c-.009.404-.076.805-.201 1.204a2.69 2.69 0 01-.46.873 2.733 2.733 0 01-.758.654 3.688 3.688 0 01-1.05.407c-.4.092-.844.139-1.336.139a3.94 3.94 0 01-1.054-.129 3.297 3.297 0 01-.807-.334 2.717 2.717 0 01-.588-.462 3.029 3.029 0 01-.403-.526 2.535 2.535 0 01-.24-.514 2.744 2.744 0 01-.108-.435 4.08 4.08 0 01-.035-.821c.014-.278.046-.552.094-.821.049-.269.11-.528.185-.776.074-.248.151-.476.233-.685.08-.209.16-.39.24-.546a2.8 2.8 0 01.208-.358l-1.106-.814c-.19.315-.372.667-.546 1.054-.174.387-.32.796-.438 1.228a6.484 6.484 0 00-.22 1.123 6.142 6.142 0 00.02 1.61c.094.608.274 1.137.54 1.587.267.45.603.822 1.006 1.116.403.295.864.515 1.38.661.518.146 1.073.22 1.667.22zM489.823 188c.283 0 .55-.014.8-.042.25-.028.487-.08.71-.16.222-.079.432-.192.629-.34.197-.149.386-.346.567-.592.213.158.445.312.695.463.25.15.512.278.783.382a3.005 3.005 0 001.123.226c.19 0 .38-.025.57-.076a1.66 1.66 0 00.766-.449c.209-.215.373-.468.494-.758.12-.29.195-.555.223-.797.027-.24.041-.436.041-.584 0-.167-.011-.33-.034-.487a4.21 4.21 0 00-.247-.918 2.864 2.864 0 00-.477-.807c-.2-.237-.44-.428-.72-.574a2.071 2.071 0 00-.97-.22c-.306 0-.574.062-.804.185-.23.123-.433.283-.612.48a3.668 3.668 0 00-.48.675c-.141.253-.275.509-.4.769-.144.287-.286.567-.428.838a3.398 3.398 0 01-.5.723c-.193.211-.426.38-.7.508-.273.128-.617.192-1.03.192h-.139V188h.14zm5.287-1.447c-.186 0-.395-.046-.627-.14-.347-.138-.732-.363-1.154-.674l.375-.758c.116-.227.22-.424.31-.591a3.74 3.74 0 01.257-.418.985.985 0 01.244-.247.466.466 0 01.26-.08c.14 0 .263.028.37.084.106.055.199.126.278.212.078.086.146.18.201.285a2.264 2.264 0 01.216.567c.019.079.03.135.035.167.018.125.028.246.028.362a2.082 2.082 0 01-.129.703c-.053.138-.117.252-.191.34a.444.444 0 01-.23.16 1.003 1.003 0 01-.243.028zm-13.92 1.468c.227 0 .444-.034.65-.101.206-.067.401-.162.584-.285.184-.123.353-.267.508-.432.156-.164.296-.344.421-.539.172.413.431.739.78.978.347.239.753.358 1.217.358.236 0 .459-.035.667-.104a2.24 2.24 0 001.058-.745c.139-.176.255-.373.348-.591.12.223.266.422.438.598.171.176.36.327.567.452.206.126.425.222.657.29.232.066.469.1.71.1h.167v-1.363h-.167c-.334 0-.637-.14-.908-.421-.271-.28-.5-.706-.685-1.277a5.48 5.48 0 01-.164-.591 9.327 9.327 0 01-.16-1.012 34.6 34.6 0 01-.045-.463l-1.363.111c.009.167.017.341.024.522a12.379 12.379 0 01.003.863 7.77 7.77 0 01-.07.803 3.115 3.115 0 01-.184.724c-.085.215-.2.39-.344.521a.78.78 0 01-.55.199c-.231 0-.415-.063-.549-.188a1.1 1.1 0 01-.296-.487c-.062-.2-.097-.38-.104-.543a5.315 5.315 0 01.017-.897c.019-.255.047-.499.084-.73.037-.232.067-.43.09-.592l-1.356-.257c-.023.213-.057.453-.101.72a8.21 8.21 0 01-.442 1.617 3.239 3.239 0 01-.369.703c-.143.204-.31.368-.497.494-.188.125-.4.187-.636.187-.19 0-.336-.064-.435-.194a.958.958 0 01-.188-.449 3.207 3.207 0 01-.031-.74c.014-.251.04-.498.08-.742.04-.243.08-.47.125-.678.044-.209.08-.371.108-.487l-1.336-.369c-.028.112-.058.244-.09.397a7.058 7.058 0 01-.13.504 9.976 9.976 0 01-.19.585 5.792 5.792 0 01-.272.63c-.102.19-.22.376-.354.56a3.353 3.353 0 01-.442.493c-.16.146-.332.263-.515.351a1.294 1.294 0 01-.567.133h-.146V188h.146a2.578 2.578 0 001.37-.38c.195-.117.374-.26.536-.427.162-.167.315-.352.46-.556a1.903 1.903 0 001.241 1.286c.202.065.412.098.63.098zM470.88 188c.195-.01.387-.028.577-.056.19-.027.376-.07.557-.125a2.691 2.691 0 001.009-.563c.245-.228.445-.487.598-.78.209.27.45.52.727.752.276.232.58.408.915.529.24.078.488.139.74.18.253.042.547.063.88.063h.202v-1.363h-.438a2.38 2.38 0 01-.713-.115 2.337 2.337 0 01-.595-.296 2.552 2.552 0 01-.497-.456 4.692 4.692 0 01-.428-.601c-.176-.297-.341-.592-.494-.884a76.516 76.516 0 00-.463-.87 26.997 26.997 0 00-.487-.862 9.759 9.759 0 00-1.297-1.722 9.568 9.568 0 00-.925-.852l5.516-2.316-.535-1.266-6.15 2.65-.18 1.537a12.043 12.043 0 011.415 1.305c.243.262.476.538.699.828.223.29.417.583.584.88a4.4 4.4 0 01.373.834c.08.26.121.497.121.71 0 .056-.002.111-.007.167-.014.167-.07.33-.17.49a1.856 1.856 0 01-.883.727 1.515 1.515 0 01-.56.112h-2.428V188h2.337zm-8.591 4.883a8.524 8.524 0 001.965-.556 7.19 7.19 0 001.725-1.016 6.198 6.198 0 001.322-1.45 5.255 5.255 0 00.755-1.861h.765v-1.363h-.661a6.622 6.622 0 00-.376-2.02 5.342 5.342 0 00-.403-.881 4.395 4.395 0 00-.529-.738c-.552-.593-1.157-.89-1.815-.89a1.77 1.77 0 00-.86.226 2.61 2.61 0 00-.768.664c-.195.25-.364.549-.508.894a3.926 3.926 0 00-.275.925c-.04.272-.059.495-.059.672 0 .185.016.37.049.556.055.353.19.663.403.932.482.599 1.227.928 2.233.988.255.023.484.035.685.035h.79c-.051.348-.194.701-.428 1.06-.234.36-.553.7-.956 1.02-.404.32-.889.608-1.454.863a8.976 8.976 0 01-1.92.598l.32 1.342zm3.755-6.26h-.047c-.205 0-.423-.007-.654-.021a3.506 3.506 0 01-.296-.032 2.472 2.472 0 01-.348-.076 1.635 1.635 0 01-.334-.14.819.819 0 01-.26-.225.651.651 0 01-.143-.33 2.434 2.434 0 01-.025-.31 3.16 3.16 0 01.153-.908c.065-.202.145-.384.24-.546.096-.163.203-.296.324-.4a.577.577 0 01.383-.157c.083 0 .162.014.236.042.074.028.145.064.212.108s.13.093.188.146c.058.053.11.103.157.15.116.134.228.293.337.476.109.183.207.388.296.616.088.227.16.473.215.737.056.264.09.545.105.842-.181.014-.345.022-.49.024l-.296.004h.047zm-7.512-6.213l1.134-1.133-1.14-1.141-1.135 1.134 1.141 1.14zM457.42 188c.38 0 .734-.026 1.061-.077.327-.05.623-.139.887-.264s.497-.292.7-.5c.2-.21.371-.471.51-.787.14-.32.21-.69.21-1.113 0-.074-.003-.148-.008-.222-.032-.515-.153-1.109-.362-1.781a9.033 9.033 0 00-.222-.644 14.061 14.061 0 00-.383-.897 1.713 1.713 0 01-.062-.143l-1.239.612.606 1.489c.097.237.171.463.222.678.051.216.081.385.09.508.01.123.014.215.014.275 0 .111-.006.216-.02.313a1.35 1.35 0 01-.105.369 1.245 1.245 0 01-.348.455c-.139.11-.301.192-.487.247-.185.056-.391.09-.619.101-.227.012-.475.018-.744.018h-.807V188h1.106zm-7.123 4.536c.306 0 .649-.021 1.03-.063.38-.042.763-.111 1.15-.209a7.705 7.705 0 001.131-.379c.366-.155.693-.346.98-.574.288-.227.52-.494.696-.8a2.118 2.118 0 00.244-1.37 1.463 1.463 0 00-.111-.362 1.988 1.988 0 00-.233-.386 2.356 2.356 0 00-.386-.393h1.794v-1.363h-5.488l-.105 1.356.153.028a9.7 9.7 0 01.668.153c.14.037.289.079.449.125.16.047.321.098.483.153.265.098.487.195.668.292.181.098.328.19.442.275.113.086.196.167.247.244a.377.377 0 01.076.198.864.864 0 01-.233.598c-.155.172-.353.32-.594.445a4.37 4.37 0 01-.81.317 8.716 8.716 0 01-1.68.313c-.247.02-.437.031-.571.031-.232 0-.498-.004-.797-.014-.299-.009-.6-.046-.904-.111a3.453 3.453 0 01-.877-.317 1.949 1.949 0 01-.706-.63c-.292-.444-.438-1.024-.438-1.738 0-1.127.364-2.586 1.092-4.376l-1.273-.515c-.728 1.763-1.122 3.275-1.183 4.536a8.53 8.53 0 00-.007.34c0 1.017.225 1.854.675 2.512.214.362.488.653.825.873.336.22.702.39 1.099.512.396.12.81.2 1.241.24.432.039.85.059 1.253.059z" fill-opacity=".32" fill-rule="nonzero"/><g><path d="M108 255h488v1H108z" fill-opacity=".12"/><g fill-opacity=".32" fill-rule="nonzero"><path d="M552.963 235.995c.21 0 .419-.016.63-.047.21-.031.412-.082.607-.151.195-.07.377-.16.545-.27.169-.109.316-.24.441-.393a1.264 1.264 0 00.271-.553c.028-.122.043-.261.045-.418a2.41 2.41 0 00-.06-.526 3.792 3.792 0 00-.238-.681 5.52 5.52 0 00-.38-.7 6.908 6.908 0 00-1.057-1.28 5.968 5.968 0 00-.608-.506 3.66 3.66 0 00-.618-.366l-.423.95c.157.07.317.163.48.282.164.118.325.254.483.407a6.2 6.2 0 01.456.493c.146.175.28.356.4.542.12.186.222.372.307.559.086.186.147.364.186.534.027.126.041.233.041.324 0 .125-.026.219-.078.282a1.082 1.082 0 01-.438.318c-.174.07-.33.11-.47.122a2.997 2.997 0 01-.72-.008 4.434 4.434 0 01-1.215-.33 3.171 3.171 0 01-.465-.243l-.428.98c.087.08.225.16.413.24.187.08.394.154.62.22.227.066.453.119.681.159.228.04.426.06.592.06zm-6.918 3.74c.292-.142.58-.303.864-.482.283-.18.553-.375.808-.587.256-.212.493-.438.71-.678.217-.24.405-.492.563-.757.159-.264.282-.538.37-.821a2.927 2.927 0 00.097-1.35 7.46 7.46 0 00-.09-.487 14.851 14.851 0 00-.12-.5 71.521 71.521 0 01-.129-.504 7.759 7.759 0 00-.13-.478c-.049-.158-.098-.319-.146-.482l-.992.313a28.016 28.016 0 01.387 1.315c.041.15.08.299.114.448.035.15.064.296.086.438.023.143.034.279.034.407 0 .338-.081.665-.245.981-.163.317-.38.616-.65.898a5.97 5.97 0 01-.92.78c-.345.238-.7.448-1.065.628l.454.919zM538.981 236c.18 0 .332-.012.454-.037.737-.135 1.26-.478 1.57-1.027.073-.133.137-.279.19-.439.055-.16.088-.303.1-.43.012-.127.018-.227.018-.3 0-.125-.01-.257-.031-.397a3.124 3.124 0 00-.188-.678 4.385 4.385 0 00-.397-.759 6.458 6.458 0 00-.652-.837 8.133 8.133 0 00-.6-.6c-.202-.181-.388-.345-.558-.49l3.736-1.571-.402-.95-4.289 1.837-.12 1.07a13.228 13.228 0 011.586 1.516c.223.251.41.488.561.709.151.22.246.402.284.545a2.106 2.106 0 01.068.662c-.02.206-.088.397-.203.574a.944.944 0 01-.402.337c-.17.078-.358.135-.563.172a4.25 4.25 0 01-.647.063c-.226.005-.444.007-.653.007h-.652V236h1.79zm-5.458 0c.327 0 .612-.013.854-.04.241-.025.453-.065.633-.12a1.948 1.948 0 00.835-.487c.15.191.341.347.574.467.233.12.525.18.877.18h.104v-1.023h-.104a.737.737 0 01-.436-.12.856.856 0 01-.266-.302 1.429 1.429 0 01-.138-.397 3.685 3.685 0 01-.058-.407 16.002 16.002 0 00-.094-.902 4.9 4.9 0 00-.151-.71l-.98.277c.076.264.129.499.158.704.03.205.045.407.045.605 0 .209-.035.392-.105.548a.942.942 0 01-.326.391c-.148.105-.339.183-.574.235a3.964 3.964 0 01-.848.078h-.777V236h.777zm.194 2.551l.845-.845-.856-.856-.845.85.856.851zm2.139.01l.845-.85-.856-.85-.845.845.856.856zm-5.505-8.749l.85-.85-.855-.856-.85.85.855.856zm-3.474 6.303a16.647 16.647 0 001.82-.1c.282-.03.542-.07.78-.12a4.51 4.51 0 00.619-.166l.307-.105c.178.063.37.118.574.165.206.047.417.086.634.117a9.053 9.053 0 001.344.094v-1.023a7.602 7.602 0 01-1.404-.125c.098-.097.181-.209.25-.334.07-.125.127-.259.17-.401.044-.143.076-.292.097-.447.02-.154.031-.31.031-.467 0-.208-.017-.396-.052-.563a2.59 2.59 0 00-.13-.443 1.668 1.668 0 00-.178-.334 2.142 2.142 0 00-.193-.24 1.49 1.49 0 00-.548-.392 1.756 1.756 0 00-.668-.125c-.264 0-.515.064-.753.193-.239.129-.452.31-.64.543a2.71 2.71 0 00-.579 1.711c0 .525.239.984.715 1.377a7.213 7.213 0 01-.965.138c-.195.016-.38.026-.553.03a15.27 15.27 0 01-.97-.005c-.425-.011-.8-.04-1.125-.09a4.355 4.355 0 01-.85-.206 2.16 2.16 0 01-.61-.33 1.716 1.716 0 01-.405-.46 1.175 1.175 0 01-.17-.43 2.44 2.44 0 01-.034-.384c0-.045.002-.089.006-.13.006-.157.028-.306.065-.45a4.02 4.02 0 01.115-.377c.04-.11.075-.197.106-.261.032-.065.047-.098.047-.102l-.907-.496-.079.165a4.723 4.723 0 00-.305.916 2.499 2.499 0 00-.073.498l-.003.237c0 .202.021.407.063.616.049.243.143.481.282.714.316.536.822.934 1.518 1.195.696.261 1.58.393 2.65.397zm3.485-1.607a1.624 1.624 0 01-.697-.42 1.124 1.124 0 01-.198-.274.588.588 0 01-.07-.261c0-.216.03-.41.09-.584.062-.174.138-.322.23-.444.093-.122.193-.215.303-.282.11-.066.213-.099.31-.099.042 0 .104.009.186.026.081.018.162.061.242.13.08.07.15.176.212.317.06.14.09.336.09.586 0 .122-.008.242-.025.36-.018.119-.05.234-.1.345-.048.111-.118.217-.21.318-.093.101-.214.195-.363.282zm-17.113 5.155c.358-.056.71-.142 1.054-.259.344-.116.672-.26.983-.433.311-.172.602-.373.871-.602.27-.23.507-.486.713-.767.205-.282.373-.589.506-.921.132-.332.217-.69.255-1.072a4.831 4.831 0 00.006-.95 5.168 5.168 0 00-.173-.913 4.328 4.328 0 00-.326-.822 3.207 3.207 0 00-.467-.675c-.414-.446-.868-.668-1.361-.668-.223 0-.438.056-.645.17-.207.112-.399.279-.576.498a2.901 2.901 0 00-.381.67c-.108.26-.177.49-.206.694-.03.204-.045.371-.045.504 0 .139.013.278.037.417.042.264.143.497.303.699.361.449.92.696 1.674.74.192.018.363.027.514.027h.592c-.038.26-.145.526-.32.796-.176.27-.415.524-.718.764a5.16 5.16 0 01-1.09.647c-.425.191-.905.34-1.44.449l.24 1.007zm2.865-4.697l-.084.001c-.153 0-.317-.005-.49-.016a2.63 2.63 0 01-.223-.023 1.854 1.854 0 01-.26-.058 1.226 1.226 0 01-.25-.104.614.614 0 01-.197-.17.489.489 0 01-.107-.247 1.826 1.826 0 01-.018-.232 2.37 2.37 0 01.295-1.09c.071-.123.152-.223.243-.3a.433.433 0 01.287-.118c.062 0 .121.01.177.031.056.02.109.048.16.08.05.034.096.07.14.11.043.04.083.078.117.113.087.1.172.22.253.357.082.137.156.291.222.462.066.17.12.355.162.553.042.198.068.408.078.631a6.1 6.1 0 01-.505.02zM505.324 236c.18 0 .332-.012.453-.037.738-.135 1.261-.478 1.57-1.027.074-.133.137-.279.191-.439.054-.16.087-.303.1-.43.012-.127.018-.227.018-.3 0-.125-.01-.257-.032-.397a3.124 3.124 0 00-.187-.678 4.385 4.385 0 00-.397-.759 6.458 6.458 0 00-.652-.837 8.133 8.133 0 00-.6-.6c-.202-.181-.388-.345-.558-.49l3.735-1.571-.402-.95-4.288 1.837-.12 1.07a13.228 13.228 0 011.586 1.516c.222.251.41.488.56.709.152.22.247.402.285.545a2.106 2.106 0 01.068.662c-.021.206-.089.397-.204.574a.944.944 0 01-.401.337c-.17.078-.359.135-.564.172a4.25 4.25 0 01-.647.063c-.226.005-.443.007-.652.007h-.652V236h1.79zm-4.336-6.083l.85-.85-.855-.857-.85.85.855.857zM498.416 236c.532 0 1.033-.03 1.502-.091.47-.061.868-.154 1.195-.28.4.133.812.228 1.237.285.424.057.853.086 1.288.086h.105v-1.023h-.1c-.11 0-.227-.003-.35-.01a12.258 12.258 0 01-.711-.063 3.289 3.289 0 01-.31-.052c.187-.205.33-.439.43-.702.099-.262.152-.47.159-.626.007-.154.01-.247.01-.279 0-.24-.031-.475-.094-.704a2.139 2.139 0 00-.341-.704 1.789 1.789 0 00-1.396-.73h-.057c-.233 0-.461.058-.684.176a2.02 2.02 0 00-.647.554c-.188.24-.331.504-.43.793-.1.288-.149.596-.149.923 0 .5.226.95.678 1.346a16.39 16.39 0 01-.59.052c-.236.018-.484.026-.745.026h-.105V236h.105zm2.66-1.492a1.559 1.559 0 01-.712-.415 1.124 1.124 0 01-.198-.274.597.597 0 01-.07-.266c0-.212.03-.406.091-.582.06-.175.138-.325.232-.448.094-.124.196-.22.305-.287a.588.588 0 01.306-.102c.114 0 .224.046.328.138.105.092.192.21.264.355.071.144.117.28.138.41.02.128.031.233.031.313a1.39 1.39 0 01-.248.787 1.16 1.16 0 01-.466.37zm-7.33-4.962l.772-.772-.777-.777-.772.772.777.777zm-1.179 1.649l.845-.85-.855-.856-.846.85.856.856zm2.29.005l.846-.845-.856-.856-.845.845.855.856zm-7.44 8.26a6.48 6.48 0 001.54-.243c.47-.138.873-.354 1.213-.647a2.94 2.94 0 00.793-1.146c.19-.47.284-1.048.284-1.737.076.056.151.103.224.143a1.345 1.345 0 00.488.157c.092.012.2.018.321.018.296 0 .575-.055.837-.164.263-.11.499-.286.707-.53.073.112.16.21.259.295.099.085.203.157.313.217.11.059.22.104.331.135.111.032.214.047.308.047a1.545 1.545 0 00.94-.303c.131-.097.248-.212.351-.344a1.99 1.99 0 00.258-.443c.087.17.198.322.332.456a2.156 2.156 0 00.954.556c.18.049.361.073.546.073h.104v-1.023h-.104a.975.975 0 01-.52-.135 1.384 1.384 0 01-.388-.36 2.15 2.15 0 01-.28-.517 4.35 4.35 0 01-.182-.605 6.07 6.07 0 01-.107-.623c-.024-.207-.04-.4-.047-.577l-1.022.073c.007.118.018.268.033.449a6.732 6.732 0 01-.007 1.195 2.19 2.19 0 01-.126.555c-.062.165-.15.3-.266.405a.641.641 0 01-.448.156.487.487 0 01-.334-.115.782.782 0 01-.206-.305 1.794 1.794 0 01-.107-.433c-.021-.162-.032-.3-.032-.412v-.258c0-.112.002-.223.006-.334.007-.164.012-.312.015-.444l-1.059-.078c-.007.177-.013.358-.018.543a5.914 5.914 0 01-.04.537c-.02.174-.05.338-.09.493-.04.155-.1.29-.18.404a.888.888 0 01-.306.274.95.95 0 01-.462.102c-.24 0-.437-.058-.592-.175a1.5 1.5 0 01-.394-.454 3.51 3.51 0 01-.279-.62 21.545 21.545 0 00-.35-.942l-.085-.235-.866.563c.114.3.218.6.31.9.092.301.16.589.2.864a5.188 5.188 0 01.058 1.002 4.328 4.328 0 01-.177.996c-.317.967-1.214 1.485-2.692 1.555h-.178c-.295 0-.553-.032-.772-.097a2.194 2.194 0 01-.569-.25 1.671 1.671 0 01-.399-.35 2.221 2.221 0 01-.26-.396 1.985 1.985 0 01-.152-.389 3.213 3.213 0 01-.07-.323 3.023 3.023 0 01-.026-.61c.01-.206.033-.41.07-.614a5.913 5.913 0 01.308-1.103c.06-.157.122-.293.182-.41.061-.116.114-.204.16-.263l-.83-.616c-.143.237-.28.5-.41.788-.13.289-.24.595-.328.92a4.918 4.918 0 00-.165.846c-.02.238-.03.423-.03.556 0 .215.015.433.046.652.063.424.187.802.373 1.135.186.332.423.614.71.847.287.233.614.41.983.533.369.121.767.182 1.195.182h.203zm-12.688.203c.358-.056.71-.142 1.054-.259.344-.116.672-.26.983-.433.311-.172.602-.373.871-.602.27-.23.507-.486.713-.767.205-.282.373-.589.506-.921.132-.332.217-.69.255-1.072a4.831 4.831 0 00.006-.95 5.168 5.168 0 00-.173-.913 4.328 4.328 0 00-.326-.822 3.207 3.207 0 00-.467-.675c-.414-.446-.868-.668-1.361-.668-.223 0-.438.056-.645.17-.207.112-.399.279-.576.498a2.901 2.901 0 00-.381.67c-.108.26-.177.49-.206.694-.03.204-.045.371-.045.504 0 .139.013.278.037.417.042.264.143.497.303.699.361.449.92.696 1.674.74.192.018.363.027.514.027h.592c-.038.26-.145.526-.32.796-.176.27-.415.524-.718.764a5.16 5.16 0 01-1.09.647c-.425.191-.905.34-1.44.449l.24 1.007zm2.865-4.697l-.084.001c-.153 0-.317-.005-.49-.016a2.63 2.63 0 01-.223-.023 1.854 1.854 0 01-.26-.058 1.226 1.226 0 01-.25-.104.614.614 0 01-.197-.17.489.489 0 01-.107-.247 1.826 1.826 0 01-.018-.232 2.37 2.37 0 01.295-1.09c.071-.123.152-.223.243-.3a.433.433 0 01.287-.118c.062 0 .121.01.177.031.056.02.109.048.16.08.05.034.096.07.14.11.043.04.083.078.117.113.087.1.172.22.253.357.082.137.156.291.222.462.066.17.12.355.162.553.042.198.068.408.078.631a6.1 6.1 0 01-.505.02zM467.779 236c.689 0 1.216-.183 1.581-.548.129-.132.23-.276.305-.433a2.515 2.515 0 00.243-.908c.007-.128.01-.24.01-.334v-.135c0-.115-.002-.249-.008-.402-.005-.153-.01-.334-.018-.543-.007-.208-.015-.447-.026-.717l-.031-.92a60.924 60.924 0 00-.198-2.907l-1.023.11.026.279c.014.155.03.357.05.608l.028.406a58.389 58.389 0 01.079 1.54l.062 1.578c.018.426.026.752.026.978v.058c0 .497-.088.836-.266 1.017-.167.167-.447.25-.84.25h-.396V236h.396zm-3.882 0c.512 0 .941-.053 1.29-.16.347-.105.63-.268.85-.487.15.191.34.347.573.467.233.12.526.18.877.18h.104v-1.023h-.104a.737.737 0 01-.436-.12.856.856 0 01-.266-.302 1.429 1.429 0 01-.138-.397 3.685 3.685 0 01-.057-.407 16.002 16.002 0 00-.094-.902 4.9 4.9 0 00-.152-.71l-.98.277c.076.264.129.499.159.704.03.205.044.407.044.605 0 .414-.132.726-.397.937-.264.21-.688.315-1.273.315h-.193V236h.193zm1.665 2.718l.85-.85-.855-.856-.85.85.855.856zM463.913 236v-1.023h-.104c-.22 0-.408-.022-.566-.067a.814.814 0 01-.358-.188.435.435 0 01-.138-.269 2.819 2.819 0 01-.018-.331v-2.62a36.415 36.415 0 00-.107-2.749 7.734 7.734 0 00-.081-.652l-1.023.188a6.5 6.5 0 01.081.628c.023.256.042.535.058.838a43.486 43.486 0 01.044 1.873 76.848 76.848 0 010 1.612 158.524 158.524 0 00-.01.718v.06c0 .083.001.183.005.3a2.015 2.015 0 00.185.76c.06.13.149.254.263.369.188.188.417.327.686.417.27.09.596.136.979.136h.104zm-13.336 3.438a6.243 6.243 0 001.365-.203 3.672 3.672 0 001.088-.496 2.78 2.78 0 00.665-.602c.179-.228.322-.474.43-.739.108-.264.182-.528.222-.79.04-.263.06-.514.06-.754a3.11 3.11 0 00-.005-.183c.076.052.151.1.224.141a1.332 1.332 0 00.475.165 1.56 1.56 0 00.35.013c.292-.014.568-.072.829-.173.26-.1.496-.274.704-.521.073.111.16.21.261.297a1.635 1.635 0 00.652.347c.112.03.216.044.313.044.317 0 .587-.055.81-.167.222-.11.403-.264.544-.459.141-.195.246-.422.313-.683a3.362 3.362 0 00.055-1.427 5.365 5.365 0 00-.133-.571 6.031 6.031 0 00-.18-.527 11.213 11.213 0 00-.188-.45 6.498 6.498 0 00-.159-.333l-.096-.188-.913.48c.055.111.121.242.198.391a5.521 5.521 0 01.404 1.075c.054.205.086.418.097.637v.094c0 .125-.01.247-.032.365-.03.15-.077.282-.138.396a.796.796 0 01-.23.274.519.519 0 01-.315.102.492.492 0 01-.329-.115.917.917 0 01-.227-.3 2.074 2.074 0 01-.148-.415 4.31 4.31 0 01-.09-.456 5.974 5.974 0 01-.043-.428 13.821 13.821 0 01-.019-.331l-.02-.449-1.06.104v.715c0 .119-.001.235-.005.35a3.834 3.834 0 01-.05.49 1.204 1.204 0 01-.138.402.766.766 0 01-.271.277.88.88 0 01-.444.11h-.046c-.192 0-.362-.043-.512-.126a1.513 1.513 0 01-.43-.37 2.993 2.993 0 01-.345-.54c-.102-.204-.2-.415-.294-.634l-.329-.757-.871.563c0 .007.03.061.091.162.06.101.133.245.216.433.087.205.17.432.25.679.08.246.142.498.184.753.041.256.062.51.062.76v.114c-.01.289-.06.576-.151.861-.317.974-1.216 1.492-2.698 1.555h-.172c-.295 0-.553-.032-.772-.097a2.194 2.194 0 01-.569-.25 1.671 1.671 0 01-.399-.35 2.221 2.221 0 01-.26-.396 2.008 2.008 0 01-.152-.386 3.082 3.082 0 01-.07-.321 3.06 3.06 0 01-.026-.616c.01-.208.033-.414.07-.615a5.975 5.975 0 01.308-1.101c.06-.157.122-.293.182-.41.061-.116.114-.204.16-.263l-.83-.61a6.565 6.565 0 00-.738 1.71 4.863 4.863 0 00-.165.843c-.02.239-.03.424-.03.556 0 .216.015.433.046.652.056.39.17.747.342 1.072.172.325.39.605.655.838.587.521 1.342.782 2.264.782h.203zM592.431 236c.919 0 1.621-.243 2.108-.73.172-.177.307-.37.407-.578a3.353 3.353 0 00.324-1.21c.009-.172.013-.32.013-.445v-.181c0-.153-.003-.332-.01-.536l-.024-.723-.035-.957c-.014-.36-.028-.769-.042-1.228a81.23 81.23 0 00-.264-3.875l-1.364.146a63.316 63.316 0 01.243 3.777l.084 2.105c.023.568.035 1.003.035 1.305v.076c0 .663-.118 1.115-.355 1.357-.222.222-.596.334-1.12.334h-.528V236h.528zm-5.175 0c.681 0 1.254-.07 1.718-.212.464-.142.842-.358 1.134-.65.2.254.454.462.765.622.31.16.7.24 1.169.24h.139v-1.363h-.14c-.236 0-.43-.054-.58-.16a1.141 1.141 0 01-.355-.404 1.905 1.905 0 01-.184-.529 4.913 4.913 0 01-.077-.542 21.332 21.332 0 00-.125-1.204 6.534 6.534 0 00-.202-.946l-1.308.369c.102.352.173.665.213.939.039.274.059.543.059.807 0 .552-.176.968-.529 1.249-.352.28-.918.42-1.697.42h-.258V236h.258zm2.219 3.624l1.134-1.134-1.141-1.14-1.134 1.133 1.14 1.141zM587.277 236v-1.363h-.14a2.77 2.77 0 01-.754-.09c-.211-.061-.37-.145-.477-.251a.58.58 0 01-.184-.359 3.758 3.758 0 01-.025-.441v-3.493a48.553 48.553 0 00-.066-2.546c-.02-.403-.046-.776-.076-1.12-.03-.343-.066-.633-.108-.87l-1.364.251c.042.218.078.498.108.839.03.34.056.713.077 1.116.02.404.036.82.045 1.252.01.432.014.847.014 1.245.005.409.007.796.007 1.162v.27c-.001.263-.004.502-.007.718a211.355 211.355 0 00-.013.957v.198c0 .084.003.178.006.282a2.686 2.686 0 00.247 1.012c.081.176.198.34.351.494.25.25.556.436.915.556.36.12.794.181 1.304.181h.14zm-17.781 4.584a8.324 8.324 0 001.819-.271 4.896 4.896 0 001.45-.66c.353-.233.648-.5.887-.804.239-.304.43-.632.574-.985.144-.352.242-.703.296-1.054.053-.35.08-.685.08-1.005 0-.083-.003-.164-.007-.243.102.07.202.132.299.188a1.882 1.882 0 00.946.243c.046 0 .097-.002.153-.007.39-.018.758-.095 1.106-.23.348-.134.661-.366.94-.695.097.148.213.28.347.396a2.18 2.18 0 00.87.463c.148.04.287.06.417.06.422 0 .781-.075 1.078-.223.297-.149.54-.353.727-.613.188-.26.327-.563.418-.911a4.483 4.483 0 00.073-1.903 7.153 7.153 0 00-.178-.761 8.042 8.042 0 00-.24-.703 14.953 14.953 0 00-.25-.598 8.665 8.665 0 00-.212-.445l-.129-.25-1.217.64c.074.148.162.321.264.52a7.362 7.362 0 01.54 1.433c.071.275.114.557.128.85v.125c0 .167-.014.33-.042.487-.042.2-.103.375-.184.529a1.06 1.06 0 01-.306.365.692.692 0 01-.421.135.656.656 0 01-.439-.153 1.223 1.223 0 01-.302-.4 2.765 2.765 0 01-.198-.553 5.746 5.746 0 01-.119-.608 7.965 7.965 0 01-.059-.57c-.011-.18-.02-.327-.024-.443l-.028-.598-1.412.14v.952c0 .158-.002.313-.007.466-.01.232-.031.45-.066.654a1.606 1.606 0 01-.185.536 1.02 1.02 0 01-.361.369c-.153.092-.35.141-.592.146h-.062c-.255 0-.482-.056-.682-.167a2.017 2.017 0 01-.574-.494 3.99 3.99 0 01-.459-.72 14.998 14.998 0 01-.393-.845l-.438-1.009-1.162.751c0 .01.04.081.122.216.08.134.177.327.288.577.116.274.228.575.334.905.107.329.188.664.244 1.005.055.34.083.678.083 1.012v.153a4.296 4.296 0 01-.201 1.148c-.422 1.299-1.621 1.99-3.597 2.073h-.23c-.394 0-.737-.043-1.03-.129a2.925 2.925 0 01-.757-.334 2.228 2.228 0 01-.533-.466 2.962 2.962 0 01-.347-.528 2.677 2.677 0 01-.202-.515 4.109 4.109 0 01-.094-.428 4.08 4.08 0 01-.035-.82c.014-.28.045-.553.094-.822a7.966 7.966 0 01.41-1.468 5.47 5.47 0 01.244-.546c.081-.155.152-.272.212-.351l-1.106-.814a8.754 8.754 0 00-.55 1.054 8.714 8.714 0 00-.434 1.228 6.484 6.484 0 00-.22 1.123 6.142 6.142 0 00.02 1.61c.076.52.228.997.457 1.43.23.434.52.806.873 1.117.784.696 1.79 1.043 3.02 1.043h.27z"/></g></g></g><g><path d="M638.904 92v-4.518a1.91 1.91 0 01.621-.738c.266-.187.575-.281.926-.281.434 0 .753.11.958.328.205.219.31.557.314 1.014V92h1.084v-4.19c-.012-1.511-.688-2.267-2.028-2.267-.781 0-1.414.305-1.898.914l-.035-.797h-1.026V92h1.084zm8.139.117c.57 0 1.075-.137 1.515-.41.44-.273.777-.655 1.013-1.145.237-.49.355-1.044.355-1.662v-.076c0-.992-.267-1.787-.8-2.385-.533-.597-1.231-.896-2.095-.896-.558 0-1.055.135-1.491.404-.436.27-.775.653-1.02 1.149-.244.496-.366 1.054-.366 1.675v.077c0 .984.267 1.775.8 2.373.533.597 1.23.896 2.089.896zm0-.885c-.547 0-.983-.212-1.31-.638-.326-.426-.489-.99-.489-1.694 0-.793.164-1.402.492-1.828.328-.426.76-.638 1.295-.638.547 0 .986.215 1.316.647.33.432.495.995.495 1.69 0 .778-.162 1.382-.487 1.814-.324.432-.761.647-1.312.647zm5.326.768v-4.5c.254-.605.736-.908 1.447-.908.192 0 .37.013.534.04v-1.007c-.11-.055-.27-.082-.48-.082-.653 0-1.157.283-1.513.85l-.017-.733h-1.055V92h1.084zm4.055 0v-4.629c.262-.605.748-.908 1.459-.908.902 0 1.353.46 1.353 1.383V92h1.09v-4.207c.043-.406.197-.73.463-.97s.6-.36 1.002-.36c.488 0 .836.112 1.043.337.207.224.31.563.31 1.016V92h1.085v-4.248c-.024-1.473-.731-2.209-2.122-2.209-.46 0-.86.094-1.198.281a2.402 2.402 0 00-.823.738c-.32-.68-.924-1.019-1.81-1.019-.79 0-1.417.273-1.881.82l-.03-.703h-1.025V92h1.084zm11.396.117c.7 0 1.301-.262 1.805-.785.04.32.09.543.152.668h1.137v-.094c-.148-.344-.223-.806-.223-1.388V87.6c-.015-.641-.23-1.144-.644-1.51-.414-.364-.986-.547-1.717-.547-.46 0-.884.086-1.268.258a2.3 2.3 0 00-.915.7c-.224.295-.336.6-.336.917h1.09c0-.277.13-.514.392-.709.262-.195.586-.293.973-.293.441 0 .775.112 1.002.337.226.225.34.526.34.905v.498h-1.055c-.91 0-1.616.183-2.118.548-.502.365-.753.878-.753 1.538 0 .543.2.991.6 1.345.4.353.913.53 1.538.53zm.159-.943c-.356 0-.647-.096-.874-.287-.226-.192-.34-.457-.34-.797 0-.777.665-1.166 1.993-1.166h.85v1.3c-.137.282-.358.51-.663.686a1.905 1.905 0 01-.966.264zm5.59.826v-9h-1.085v9h1.084zM639.97 139l1.5-4.805 1.542 4.805h.879l1.845-6.34h-1.084l-1.218 4.846-1.506-4.846h-.873l-1.477 4.746-1.248-4.746h-1.078l1.84 6.34h.879zm7.512-7.406c.211 0 .372-.059.48-.176a.62.62 0 00.165-.44.64.64 0 00-.164-.445c-.11-.12-.27-.181-.48-.181-.212 0-.37.06-.478.181a.647.647 0 00-.161.446c0 .175.053.322.16.439.108.117.267.176.478.176zm.534 7.406v-6.34h-1.084V139h1.084zm3.586.117c.27 0 .546-.039.832-.117v-.879c-.22.047-.391.07-.516.07-.254 0-.434-.063-.54-.19-.105-.127-.157-.317-.157-.571v-3.932h1.183v-.838h-1.183v-1.535h-1.084v1.535h-1.155v.838h1.155v3.932c0 .539.123.955.369 1.248.246.293.611.44 1.096.44zm3.152-.117v-4.518a1.91 1.91 0 01.621-.738c.266-.187.574-.281.926-.281.433 0 .753.11.958.328.205.219.31.557.313 1.014V139h1.084v-4.19c-.011-1.511-.687-2.267-2.027-2.267-.77 0-1.395.295-1.875.885V130h-1.084v9h1.084zm10.828.117c.723 0 1.31-.17 1.764-.513.453-.341.68-.795.68-1.362 0-.34-.082-.628-.244-.864-.162-.236-.41-.439-.747-.607-.336-.167-.774-.312-1.315-.433-.541-.121-.915-.248-1.122-.381a.658.658 0 01-.31-.592c0-.277.11-.502.333-.674.223-.171.531-.257.926-.257.383 0 .7.107.952.322.252.215.378.47.378.767h1.09c0-.578-.224-1.052-.671-1.423-.447-.371-1.03-.557-1.75-.557-.683 0-1.244.18-1.684.539-.44.36-.659.799-.659 1.318 0 .313.077.582.232.809.154.227.392.422.714.586.323.164.758.305 1.307.422.549.117.934.257 1.154.419.221.162.331.39.331.682 0 .278-.124.5-.372.665-.248.166-.577.25-.987.25-.445 0-.804-.107-1.075-.32a1.122 1.122 0 01-.437-.864h-1.084c0 .375.11.723.331 1.046.221.322.527.573.917.753.391.18.84.27 1.348.27zm5.912 0c.817 0 1.436-.248 1.858-.744l.023.627h1.031v-6.34h-1.084v4.611c-.273.618-.824.926-1.652.926-.781 0-1.172-.48-1.172-1.441v-4.096h-1.084v4.125c.004.77.183 1.35.536 1.743.354.393.868.59 1.544.59zm7.465 0c.75 0 1.348-.294 1.793-.882.445-.588.668-1.366.668-2.335v-.093c0-1.012-.22-1.809-.66-2.391-.439-.582-1.043-.873-1.813-.873s-1.373.271-1.81.814V130h-1.084v9h.996l.053-.732c.437.566 1.056.85 1.857.85zm-.27-.92c-.703 0-1.22-.332-1.552-.996v-2.742c.312-.664.826-.996 1.54-.996.536 0 .946.201 1.231.603.285.403.428.973.428 1.711 0 .809-.145 1.414-.434 1.817-.289.402-.693.603-1.213.603zm5.948.92c.27 0 .547-.039.832-.117v-.879c-.219.047-.39.07-.516.07-.254 0-.433-.063-.539-.19-.105-.127-.158-.317-.158-.571v-3.932h1.183v-.838h-1.183v-1.535h-1.084v1.535h-1.154v.838h1.154v3.932c0 .539.123.955.369 1.248.246.293.611.44 1.096.44zm2.713-7.523c.21 0 .37-.059.48-.176a.62.62 0 00.164-.44.64.64 0 00-.164-.445c-.11-.12-.27-.181-.48-.181-.211 0-.37.06-.478.181a.647.647 0 00-.161.446c0 .175.054.322.161.439.107.117.267.176.478.176zm.533 7.406v-6.34h-1.084V139h1.084zm3.586.117c.27 0 .547-.039.832-.117v-.879c-.219.047-.39.07-.516.07-.254 0-.433-.063-.539-.19-.105-.127-.158-.317-.158-.571v-3.932h1.183v-.838h-1.183v-1.535h-1.084v1.535h-1.154v.838h1.154v3.932c0 .539.123.955.369 1.248.246.293.611.44 1.096.44zm3.246-.117v-9h-1.084v9h1.084zm4.365.117c1.063 0 1.86-.408 2.39-1.224l-.661-.516c-.2.258-.432.465-.698.621-.265.156-.59.234-.972.234-.54 0-.984-.192-1.333-.577-.35-.384-.533-.89-.548-1.514h4.295v-.452c0-1.011-.229-1.789-.686-2.332-.457-.543-1.097-.814-1.922-.814-.504 0-.971.14-1.403.419-.432.28-.768.666-1.008 1.16-.24.494-.36 1.056-.36 1.685v.199c0 .945.27 1.7.808 2.265.54.564 1.239.846 2.098.846zm1.389-3.867h-3.176c.07-.574.254-1.02.55-1.339a1.446 1.446 0 011.102-.477c.453 0 .813.151 1.078.454.266.302.415.73.446 1.28v.082zM640.047 188.117c.773 0 1.377-.265 1.81-.797l.053.68h.996v-9h-1.084v3.305c-.433-.508-1.021-.762-1.763-.762-.746 0-1.35.296-1.811.888-.46.591-.691 1.374-.691 2.346v.082c0 .97.231 1.754.694 2.356.463.601 1.062.902 1.796.902zm.27-.92c-.524 0-.934-.203-1.231-.61-.297-.405-.445-.968-.445-1.687 0-.804.148-1.412.445-1.822.297-.41.71-.615 1.242-.615.672 0 1.17.299 1.494.896v2.912c-.316.618-.818.926-1.506.926zm4.915-6.603c.211 0 .372-.059.48-.176a.62.62 0 00.165-.44.64.64 0 00-.164-.445c-.11-.12-.27-.181-.48-.181-.212 0-.37.06-.478.181a.647.647 0 00-.161.446c0 .175.053.322.16.439.108.117.267.176.478.176zm.534 7.406v-6.34h-1.084V188h1.084zm4.066.117c.723 0 1.31-.17 1.764-.513.453-.341.68-.795.68-1.362 0-.34-.082-.628-.244-.864-.162-.236-.41-.439-.747-.607-.336-.167-.774-.312-1.315-.433-.541-.121-.915-.248-1.122-.381a.658.658 0 01-.31-.592c0-.277.11-.502.333-.674.223-.171.531-.257.926-.257.383 0 .7.107.952.322.252.215.378.47.378.767h1.09c0-.578-.224-1.052-.671-1.423-.447-.371-1.03-.557-1.75-.557-.683 0-1.244.18-1.684.539-.44.36-.659.799-.659 1.318 0 .313.077.582.232.809.154.227.392.422.714.586.323.164.758.305 1.307.422.549.117.934.257 1.154.419.221.162.331.39.331.682 0 .278-.124.5-.372.665-.248.166-.577.25-.987.25-.445 0-.804-.107-1.075-.32a1.122 1.122 0 01-.437-.864h-1.084c0 .375.11.723.331 1.046.221.322.527.573.917.753.391.18.84.27 1.348.27zm5.813 0c.699 0 1.3-.262 1.804-.785.04.32.09.543.153.668h1.136v-.094c-.148-.344-.222-.806-.222-1.388V183.6c-.016-.641-.23-1.144-.645-1.51-.414-.364-.986-.547-1.717-.547-.46 0-.883.086-1.268.258a2.3 2.3 0 00-.914.7c-.225.295-.337.6-.337.917h1.09c0-.277.13-.514.392-.709.262-.195.586-.293.973-.293.441 0 .775.112 1.002.337.226.225.34.526.34.905v.498h-1.055c-.91 0-1.616.183-2.118.548-.502.365-.753.878-.753 1.538 0 .543.2.991.6 1.345.4.353.914.53 1.539.53zm.158-.943c-.356 0-.647-.096-.873-.287-.227-.192-.34-.457-.34-.797 0-.778.664-1.166 1.992-1.166h.85v1.3c-.137.282-.358.51-.662.686a1.905 1.905 0 01-.967.264zm7.318.943c.75 0 1.348-.294 1.793-.882.445-.588.668-1.366.668-2.335v-.093c0-1.012-.22-1.809-.66-2.391-.439-.582-1.043-.873-1.813-.873s-1.373.271-1.81.814V179h-1.084v9h.996l.053-.732c.437.566 1.056.85 1.857.85zm-.27-.92c-.703 0-1.22-.332-1.552-.996v-2.742c.312-.664.826-.996 1.54-.996.536 0 .946.201 1.231.603.285.403.428.973.428 1.711 0 .809-.144 1.414-.434 1.817-.289.402-.693.603-1.212.603zm5.274.803v-9h-1.084v9h1.084zm4.365.117c1.063 0 1.86-.408 2.39-1.224l-.661-.516c-.2.258-.432.465-.698.621-.265.156-.59.234-.972.234-.54 0-.984-.192-1.333-.577-.35-.384-.532-.89-.548-1.514h4.295v-.452c0-1.011-.229-1.789-.686-2.332-.457-.543-1.097-.814-1.922-.814-.503 0-.971.14-1.403.419-.431.28-.767.666-1.008 1.16-.24.494-.36 1.056-.36 1.685v.199c0 .945.27 1.7.809 2.265.539.564 1.238.846 2.097.846zm1.389-3.867h-3.176c.07-.574.254-1.02.55-1.339a1.446 1.446 0 011.102-.477c.454 0 .813.151 1.079.454.265.302.414.73.445 1.28v.082zm4.564 3.867c.774 0 1.377-.265 1.81-.797l.054.68h.996v-9h-1.084v3.305c-.434-.508-1.022-.762-1.764-.762-.746 0-1.35.296-1.81.888-.461.591-.692 1.374-.692 2.346v.082c0 .97.232 1.754.694 2.356.463.601 1.062.902 1.796.902zm.27-.92c-.524 0-.934-.203-1.23-.61-.297-.405-.446-.968-.446-1.687 0-.804.149-1.412.445-1.822.297-.41.711-.615 1.243-.615.671 0 1.17.299 1.494.896v2.912c-.317.618-.819.926-1.506.926zM639.97 236l1.5-4.805 1.542 4.805h.879l1.845-6.34h-1.084l-1.218 4.846-1.506-4.846h-.873l-1.477 4.746-1.248-4.746h-1.078l1.84 6.34h.879zm7.512-7.406c.211 0 .372-.059.48-.176a.62.62 0 00.165-.44.64.64 0 00-.164-.445c-.11-.12-.27-.181-.48-.181-.212 0-.37.06-.478.181a.647.647 0 00-.161.446c0 .175.053.322.16.439.108.117.267.176.478.176zm.534 7.406v-6.34h-1.084V236h1.084zm3.586.117c.27 0 .546-.039.832-.117v-.879c-.22.047-.391.07-.516.07-.254 0-.434-.063-.54-.19-.105-.127-.157-.317-.157-.571v-3.932h1.183v-.838h-1.183v-1.535h-1.084v1.535h-1.155v.838h1.155v3.932c0 .539.123.955.369 1.248.246.293.611.44 1.096.44zm3.152-.117v-4.518a1.91 1.91 0 01.621-.738c.266-.187.574-.281.926-.281.433 0 .753.11.958.328.205.219.31.557.313 1.014V236h1.084v-4.19c-.011-1.511-.687-2.267-2.027-2.267-.77 0-1.395.295-1.875.885V227h-1.084v9h1.084zm10.828.117c.723 0 1.31-.17 1.764-.513.453-.341.68-.795.68-1.362 0-.34-.082-.628-.244-.864-.162-.236-.41-.439-.747-.607-.336-.167-.774-.312-1.315-.433-.541-.121-.915-.248-1.122-.381a.658.658 0 01-.31-.592c0-.277.11-.502.333-.674.223-.171.531-.257.926-.257.383 0 .7.107.952.322.252.215.378.47.378.767h1.09c0-.578-.224-1.052-.671-1.423-.447-.371-1.03-.557-1.75-.557-.683 0-1.244.18-1.684.539-.44.36-.659.799-.659 1.318 0 .313.077.582.232.809.154.227.392.422.714.586.323.164.758.305 1.307.422.549.117.934.257 1.154.419.221.162.331.39.331.682 0 .278-.124.5-.372.665-.248.166-.577.25-.987.25-.445 0-.804-.107-1.075-.32a1.122 1.122 0 01-.437-.864h-1.084c0 .375.11.723.331 1.046.221.322.527.573.917.753.391.18.84.27 1.348.27zm5.912 0c.817 0 1.436-.248 1.858-.744l.023.627h1.031v-6.34h-1.084v4.611c-.273.618-.824.926-1.652.926-.781 0-1.172-.48-1.172-1.441v-4.096h-1.084v4.125c.004.77.183 1.35.536 1.743.354.393.868.59 1.544.59zm7.465 0c.75 0 1.348-.294 1.793-.882.445-.588.668-1.366.668-2.335v-.093c0-1.012-.22-1.809-.66-2.391-.439-.582-1.043-.873-1.813-.873s-1.373.271-1.81.814V227h-1.084v9h.996l.053-.732c.437.566 1.056.85 1.857.85zm-.27-.92c-.703 0-1.22-.332-1.552-.996v-2.742c.312-.664.826-.996 1.54-.996.536 0 .946.201 1.231.603.285.403.428.973.428 1.711 0 .809-.145 1.414-.434 1.817-.289.402-.693.603-1.213.603zm5.948.92c.27 0 .547-.039.832-.117v-.879c-.219.047-.39.07-.516.07-.254 0-.433-.063-.539-.19-.105-.127-.158-.317-.158-.571v-3.932h1.183v-.838h-1.183v-1.535h-1.084v1.535h-1.154v.838h1.154v3.932c0 .539.123.955.369 1.248.246.293.611.44 1.096.44zm2.713-7.523c.21 0 .37-.059.48-.176a.62.62 0 00.164-.44.64.64 0 00-.164-.445c-.11-.12-.27-.181-.48-.181-.211 0-.37.06-.478.181a.647.647 0 00-.161.446c0 .175.054.322.161.439.107.117.267.176.478.176zm.533 7.406v-6.34h-1.084V236h1.084zm3.586.117c.27 0 .547-.039.832-.117v-.879c-.219.047-.39.07-.516.07-.254 0-.433-.063-.539-.19-.105-.127-.158-.317-.158-.571v-3.932h1.183v-.838h-1.183v-1.535h-1.084v1.535h-1.154v.838h1.154v3.932c0 .539.123.955.369 1.248.246.293.611.44 1.096.44zm3.246-.117v-9h-1.084v9h1.084zm4.365.117c1.063 0 1.86-.408 2.39-1.224l-.661-.516c-.2.258-.432.465-.698.621-.265.156-.59.234-.972.234-.54 0-.984-.192-1.333-.577-.35-.384-.533-.89-.548-1.514h4.295v-.452c0-1.011-.229-1.789-.686-2.332-.457-.543-1.097-.814-1.922-.814-.504 0-.971.14-1.403.419-.432.28-.768.666-1.008 1.16-.24.494-.36 1.056-.36 1.685v.199c0 .945.27 1.7.808 2.265.54.564 1.239.846 2.098.846zm1.389-3.867h-3.176c.07-.574.254-1.02.55-1.339a1.446 1.446 0 011.102-.477c.453 0 .813.151 1.078.454.266.302.415.73.446 1.28v.082zm5.525 4.482l3.557-9.263h-.926l-3.562 9.263h.931zm9.926-.615c.773 0 1.377-.265 1.81-.797l.053.68h.996v-9h-1.084v3.305c-.433-.508-1.021-.762-1.763-.762-.746 0-1.35.296-1.81.888-.462.591-.692 1.374-.692 2.346v.082c0 .97.231 1.754.694 2.356.463.601 1.062.902 1.796.902zm.27-.92c-.524 0-.934-.203-1.231-.61-.297-.405-.445-.968-.445-1.687 0-.804.148-1.412.445-1.822.297-.41.71-.615 1.242-.615.672 0 1.17.299 1.494.896v2.912c-.316.618-.818.926-1.506.926zm4.915-6.603c.211 0 .372-.059.48-.176a.62.62 0 00.165-.44.64.64 0 00-.164-.445c-.11-.12-.27-.181-.48-.181-.211 0-.37.06-.478.181a.647.647 0 00-.161.446c0 .175.054.322.16.439.108.117.268.176.478.176zm.534 7.406v-6.34h-1.084V236h1.084zm4.066.117c.723 0 1.31-.17 1.764-.513.453-.341.68-.795.68-1.362 0-.34-.082-.628-.244-.864-.162-.236-.41-.439-.747-.607-.336-.167-.774-.312-1.315-.433-.541-.121-.915-.248-1.122-.381a.658.658 0 01-.31-.592c0-.277.11-.502.333-.674.223-.171.531-.257.926-.257.383 0 .7.107.952.322.252.215.378.47.378.767h1.09c0-.578-.224-1.052-.671-1.423-.447-.371-1.03-.557-1.75-.557-.683 0-1.244.18-1.684.539-.44.36-.659.799-.659 1.318 0 .313.077.582.232.809.154.227.392.422.714.586.323.164.758.305 1.307.422.549.117.934.257 1.154.419.221.162.331.39.331.682 0 .278-.124.5-.372.665-.248.166-.577.25-.987.25-.445 0-.804-.107-1.075-.32a1.122 1.122 0 01-.437-.864h-1.084c0 .375.11.723.331 1.046.221.322.527.573.917.753.391.18.84.27 1.348.27zm5.813 0c.699 0 1.3-.262 1.804-.785.04.32.09.543.153.668h1.136v-.094c-.148-.344-.222-.806-.222-1.388V231.6c-.016-.641-.23-1.144-.645-1.51-.414-.364-.986-.547-1.717-.547-.46 0-.883.086-1.268.258a2.3 2.3 0 00-.914.7c-.225.295-.337.6-.337.917h1.09c0-.277.13-.514.392-.709.262-.195.586-.293.973-.293.441 0 .775.112 1.002.337.226.225.34.526.34.905v.498h-1.055c-.91 0-1.616.183-2.118.548-.502.365-.753.878-.753 1.538 0 .543.2.991.6 1.345.4.353.914.53 1.539.53zm.158-.943c-.356 0-.647-.096-.873-.287-.227-.192-.34-.457-.34-.797 0-.778.664-1.166 1.992-1.166h.85v1.3c-.137.282-.358.51-.662.686a1.905 1.905 0 01-.967.264zm7.318.943c.75 0 1.348-.294 1.793-.882.445-.588.668-1.366.668-2.335v-.093c0-1.012-.22-1.809-.66-2.391-.439-.582-1.043-.873-1.813-.873s-1.373.271-1.81.814V227h-1.084v9h.996l.053-.732c.437.566 1.056.85 1.857.85zm-.27-.92c-.703 0-1.22-.332-1.552-.996v-2.742c.312-.664.826-.996 1.54-.996.536 0 .946.201 1.231.603.286.403.428.973.428 1.711 0 .809-.144 1.414-.433 1.817-.29.402-.694.603-1.213.603zm5.274.803v-9h-1.084v9h1.084zm4.365.117c1.063 0 1.86-.408 2.39-1.224l-.661-.516c-.2.258-.432.465-.697.621-.266.156-.59.234-.973.234-.54 0-.984-.192-1.333-.577-.35-.384-.532-.89-.548-1.514h4.295v-.452c0-1.011-.229-1.789-.686-2.332-.457-.543-1.097-.814-1.921-.814-.504 0-.972.14-1.404.419-.431.28-.767.666-1.008 1.16-.24.494-.36 1.056-.36 1.685v.199c0 .945.27 1.7.809 2.265.539.564 1.238.846 2.097.846zm1.389-3.867h-3.176c.07-.574.254-1.02.551-1.339a1.446 1.446 0 011.102-.477c.453 0 .812.151 1.078.454.265.302.414.73.445 1.28v.082zm4.564 3.867c.774 0 1.377-.265 1.811-.797l.053.68h.996v-9h-1.084v3.305c-.434-.508-1.022-.762-1.764-.762-.746 0-1.35.296-1.81.888-.461.591-.692 1.374-.692 2.346v.082c0 .97.232 1.754.695 2.356.462.601 1.061.902 1.795.902zm.27-.92c-.524 0-.934-.203-1.23-.61-.297-.405-.446-.968-.446-1.687 0-.804.149-1.412.445-1.822.297-.41.711-.615 1.243-.615.672 0 1.17.299 1.494.896v2.912c-.317.618-.819.926-1.506.926z" fill-opacity=".56" fill-rule="nonzero"/><path fill-opacity=".12" d="M620 56h1v208h-1z"/></g></g></svg>