<svg xmlns="http://www.w3.org/2000/svg" xmlns:xlink="http://www.w3.org/1999/xlink" width="860" height="276"><defs><linearGradient id="f" x1="50%" x2="50%" y1="0%" y2="100%"><stop offset="0%" stop-color="#FFF" stop-opacity="0"/><stop offset="100%" stop-color="#FFF"/></linearGradient><linearGradient id="g" x1="50%" x2="50%" y1="0%" y2="100%"><stop offset="0%" stop-color="#FFF"/><stop offset="100%" stop-color="#FFF" stop-opacity="0"/></linearGradient><rect id="a" width="860" height="276" x="0" y="0" rx="4"/><rect id="c" width="424" height="168" x="0" y="0" rx="4"/><filter id="d" width="123.6%" height="169%" x="-11.8%" y="-34.5%" filterUnits="objectBoundingBox"><feOffset dy="1" in="SourceAlpha" result="shadowOffsetOuter1"/><feGaussianBlur in="shadowOffsetOuter1" result="shadowBlurOuter1" stdDeviation="3"/><feColorMatrix in="shadowBlurOuter1" result="shadowMatrixOuter1" values="0 0 0 0 0 0 0 0 0 0 0 0 0 0 0 0 0 0 0.08 0"/><feMorphology in="SourceAlpha" radius="2" result="shadowSpreadOuter2"/><feOffset dy="-8" in="shadowSpreadOuter2" result="shadowOffsetOuter2"/><feGaussianBlur in="shadowOffsetOuter2" result="shadowBlurOuter2" stdDeviation="16"/><feColorMatrix in="shadowBlurOuter2" result="shadowMatrixOuter2" values="0 0 0 0 0 0 0 0 0 0 0 0 0 0 0 0 0 0 0.04 0"/><feMorphology in="SourceAlpha" radius="3" result="shadowSpreadOuter3"/><feOffset dy="16" in="shadowSpreadOuter3" result="shadowOffsetOuter3"/><feGaussianBlur in="shadowOffsetOuter3" result="shadowBlurOuter3" stdDeviation="12"/><feColorMatrix in="shadowBlurOuter3" result="shadowMatrixOuter3" values="0 0 0 0 0 0 0 0 0 0 0 0 0 0 0 0 0 0 0.04 0"/><feMerge><feMergeNode in="shadowMatrixOuter1"/><feMergeNode in="shadowMatrixOuter2"/><feMergeNode in="shadowMatrixOuter3"/></feMerge></filter></defs><g fill="none" fill-rule="evenodd"><mask id="b" fill="#fff"><use xlink:href="#a"/></mask><use fill="#000" fill-opacity="0" xlink:href="#a"/><g mask="url(#b)"><g transform="translate(218 76)"><mask id="e" fill="#fff"><use xlink:href="#c"/></mask><use fill="#000" filter="url(#d)" xlink:href="#c"/><use fill="#FFF" xlink:href="#c"/><path fill="#000000" fill-opacity=".56" fill-rule="nonzero" d="M404.317 2.882c.017-.049.042-.115.076-.198.035-.083.078-.166.128-.25.051-.083.109-.156.174-.219a.353.353 0 01.207-.106.784.784 0 01.365.024c.118.037.242.08.374.13.132.052.273.1.423.147.15.047.317.07.5.07h.036a1.3 1.3 0 00.402-.06c.138-.046.265-.102.38-.171a2.04 2.04 0 00.314-.229c.093-.083.173-.162.24-.237a2.086 2.086 0 00.216-.283l-.694-.45a3.633 3.633 0 01-.118.146c-.055.065-.122.13-.201.197-.08.067-.164.123-.253.168a.594.594 0 01-.268.067h-.024a1.359 1.359 0 01-.35-.055 3.69 3.69 0 01-.326-.116 4.624 4.624 0 00-.401-.146 1.624 1.624 0 00-.487-.067c-.175 0-.345.038-.512.113a1.693 1.693 0 00-.456.304 1.831 1.831 0 00-.548.971l.803.25zm2.24 9.118c.057-.402.09-.855.1-1.36.011-.506.016-.92.016-1.245 0-.54-.006-1.147-.018-1.82a55.828 55.828 0 00-.08-2.07 81.379 81.379 0 00-.164-2.313l-1.193.183c.057.548.108 1.221.152 2.02.045.8.082 1.733.11 2.8a27.95 27.95 0 01-.006 1.857c-.02.621-.059 1.248-.116 1.881l1.2.067zm-7.614 4.358c.34-.166.676-.354 1.007-.563.33-.209.645-.437.943-.685.299-.247.575-.51.828-.79.254-.28.473-.575.658-.883.184-.309.328-.628.432-.96.103-.33.155-.672.155-1.025 0-.178-.014-.361-.043-.548a8.705 8.705 0 00-.106-.569c-.043-.193-.09-.387-.14-.584l-.15-.588a9.052 9.052 0 00-.151-.556 65.444 65.444 0 01-.17-.564l-1.157.366c.11.34.213.681.31 1.022.045.167.091.337.14.512.049.174.093.349.134.523.04.175.074.345.1.511.027.167.04.325.04.475 0 .394-.095.775-.286 1.145a4.51 4.51 0 01-.758 1.046 6.964 6.964 0 01-1.074.91 9.912 9.912 0 01-1.242.734l.53 1.071zM395.54 5.286l.986-.986-.998-.998-.986.992.998.992zm2.496.012l.986-.992-.999-.992-.986.986.999.998zM395.382 12c.332 0 .654-.022.965-.067.31-.045.595-.122.855-.231.26-.11.49-.256.69-.439.201-.182.363-.411.485-.687.121-.28.182-.605.182-.974 0-.065-.002-.13-.006-.195-.028-.45-.134-.97-.316-1.558a7.904 7.904 0 00-.195-.563 12.303 12.303 0 00-.335-.786 1.498 1.498 0 01-.055-.124l-1.083.535.53 1.303a3.959 3.959 0 01.273 1.038c.008.107.012.187.012.24 0 .098-.006.189-.018.274-.02.13-.05.237-.091.323a.953.953 0 01-.341.398 1.674 1.674 0 01-.505.216c-.191.05-.398.079-.621.089-.223.01-.453.015-.688.015h-1.175V12h1.437zm-6.909 4.273a7.459 7.459 0 001.72-.487 6.291 6.291 0 001.51-.889 5.424 5.424 0 001.156-1.269 4.598 4.598 0 00.66-1.628h.67v-1.193h-.579a5.794 5.794 0 00-.329-1.768 4.675 4.675 0 00-.352-.77 3.846 3.846 0 00-.463-.646c-.483-.519-1.012-.779-1.589-.779-.26 0-.51.066-.751.198a2.284 2.284 0 00-.673.581c-.17.22-.319.48-.444.783a3.435 3.435 0 00-.24.81 4.237 4.237 0 00-.052.587c0 .162.014.324.042.487.049.308.167.58.353.815.422.524 1.074.812 1.954.865.223.02.423.03.6.03h.69c-.044.304-.169.614-.374.928a3.805 3.805 0 01-.837.892 6.02 6.02 0 01-1.272.755 7.854 7.854 0 01-1.68.523l.28 1.175zm3.343-5.479h-.099c-.178 0-.369-.005-.572-.017a3.068 3.068 0 01-.258-.028c-.1-.014-.201-.036-.305-.067a1.43 1.43 0 01-.292-.122.716.716 0 01-.228-.197.57.57 0 01-.125-.29 2.13 2.13 0 01-.021-.27 2.765 2.765 0 01.344-1.272c.083-.143.177-.26.283-.35a.505.505 0 01.334-.138c.073 0 .142.013.207.037a.94.94 0 01.186.094c.059.039.114.082.164.128.051.047.097.09.137.131.102.118.2.257.296.417.095.16.181.34.258.539.077.199.14.414.189.645.049.231.079.477.091.736-.158.013-.301.02-.429.022l-.088.001-.072.001zm-4.372-2.507V7.258h-3.335v1.029h3.335zm-7.134 3.707c.244 0 .488-.018.734-.055.245-.036.482-.095.709-.176a3.04 3.04 0 00.636-.314c.197-.128.368-.28.514-.46a1.474 1.474 0 00.317-.645c.032-.142.05-.304.052-.487a2.812 2.812 0 00-.07-.614 4.424 4.424 0 00-.277-.795 6.44 6.44 0 00-.445-.815 8.06 8.06 0 00-1.232-1.495 6.963 6.963 0 00-.71-.59 4.27 4.27 0 00-.72-.426l-.494 1.108c.183.08.37.19.56.328.191.138.379.296.563.475.185.179.363.37.533.575.17.205.326.416.466.633.14.217.26.435.359.652.1.217.171.425.216.624.032.146.049.271.049.377 0 .146-.03.256-.092.329-.138.166-.308.29-.511.37a1.959 1.959 0 01-.548.144 3.497 3.497 0 01-.84-.01 5.173 5.173 0 01-1.418-.386 3.7 3.7 0 01-.542-.283l-.499 1.145c.101.093.262.186.48.28a7.375 7.375 0 001.519.441c.266.047.497.07.691.07zm-9.33 4.285c.669 0 1.284-.058 1.847-.173a5.922 5.922 0 001.518-.52c.475-.236.853-.52 1.135-.85.282-.33.46-.697.533-1.099.028-.158.043-.302.043-.432 0-.134-.015-.253-.043-.359a1.29 1.29 0 00-.736-.873 3.74 3.74 0 00-.582-.22 9.25 9.25 0 00-.62-.155 5.114 5.114 0 01-.582-.158 1.879 1.879 0 01-.466-.228.724.724 0 01-.277-.356 1.06 1.06 0 01-.042-.56c.028-.2.09-.396.185-.59.096-.196.218-.383.366-.564.148-.18.308-.34.48-.48.173-.14.35-.256.533-.348.183-.091.36-.145.53-.161a2.23 2.23 0 01.426-.043h.091c.162.013.307.032.432.058.126.027.228.054.305.082l.11.05.529-1.115a8.354 8.354 0 01-.198-.079 3.164 3.164 0 00-.472-.14 3.36 3.36 0 00-.523-.082 3.199 3.199 0 00-.956.052 3.624 3.624 0 00-.907.328c-.288.15-.553.332-.794.545a4.086 4.086 0 00-.642.718 3.88 3.88 0 00-.45.843 3.095 3.095 0 00-.205.77 5.275 5.275 0 00-.033.503c0 .203.02.407.06.614.062.305.184.55.369.737.185.187.398.338.639.453.241.116.494.206.758.271.264.065.505.127.724.186a2.5 2.5 0 01.527.195c.132.07.198.165.198.283v.03c-.02.207-.122.407-.305.6-.182.192-.437.365-.764.517a5.203 5.203 0 01-1.184.365 8.082 8.082 0 01-1.558.137c-.588 0-1.098-.073-1.528-.219-.43-.146-.773-.365-1.028-.657a1.812 1.812 0 01-.314-.484 2.437 2.437 0 01-.21-.995v-.049c0-.17.01-.329.03-.475a12.05 12.05 0 01.354-1.735c.158-.56.328-1.126.51-1.698l-1.162-.408a2.871 2.871 0 00-.07.195 35.172 35.172 0 00-.34 1.093 19.3 19.3 0 00-.393 1.588c-.057.282-.102.555-.134.82a5.158 5.158 0 00-.037.602c0 .373.045.722.134 1.047.134.503.368.945.7 1.327.382.426.866.748 1.452.967.586.22 1.265.33 2.036.33zm-8.56-10.993l.987-.986-.998-.998-.986.992.998.992zm2.497.012l.986-.992-.999-.992-.986.986.999.998zM362.263 12c.332 0 .654-.022.964-.067.31-.045.596-.122.856-.231.26-.11.49-.256.69-.439.201-.182.363-.411.484-.687.122-.28.183-.605.183-.974 0-.065-.002-.13-.006-.195-.028-.45-.134-.97-.317-1.558a7.904 7.904 0 00-.194-.563 12.306 12.306 0 00-.335-.786 1.498 1.498 0 01-.055-.124l-1.083.535.53 1.303a3.959 3.959 0 01.273 1.038c.008.107.012.187.012.24 0 .098-.006.189-.018.274-.02.13-.05.237-.091.323a.953.953 0 01-.341.398 1.674 1.674 0 01-.505.216c-.191.05-.398.079-.621.089-.223.01-.453.015-.688.015h-1.175V12h1.437zm-6.91 4.273a7.459 7.459 0 001.72-.487 6.291 6.291 0 001.51-.889 5.424 5.424 0 001.157-1.269A4.598 4.598 0 00360.4 12h.67v-1.193h-.579a5.794 5.794 0 00-.329-1.768 4.675 4.675 0 00-.352-.77 3.846 3.846 0 00-.463-.646c-.483-.519-1.013-.779-1.589-.779-.26 0-.51.066-.751.198a2.284 2.284 0 00-.673.581c-.17.22-.319.48-.444.783a3.435 3.435 0 00-.24.81 4.237 4.237 0 00-.053.587c0 .162.015.324.043.487.049.308.166.58.353.815.422.524 1.073.812 1.954.865.223.02.423.03.6.03h.69c-.044.304-.169.614-.374.928a3.805 3.805 0 01-.837.892 6.02 6.02 0 01-1.272.755 7.854 7.854 0 01-1.68.523l.28 1.175zm3.343-5.479h-.098c-.178 0-.369-.005-.572-.017a3.068 3.068 0 01-.259-.028c-.099-.014-.2-.036-.304-.067a1.43 1.43 0 01-.292-.122.716.716 0 01-.228-.197.57.57 0 01-.125-.29 2.13 2.13 0 01-.021-.27 2.765 2.765 0 01.344-1.272c.083-.143.177-.26.282-.35a.505.505 0 01.335-.138c.073 0 .142.013.207.037a.94.94 0 01.186.094c.059.039.113.082.164.128.05.047.097.09.137.131.102.118.2.257.295.417.096.16.182.34.26.539.076.199.14.414.188.645.048.231.079.477.091.736a7.117 7.117 0 01-.59.024zm45.518 41.224c.142 0 .298-.006.469-.018a4.765 4.765 0 00.992-.18c.154-.046.288-.104.402-.173.426-.227.743-.512.952-.855.21-.343.314-.715.314-1.117 0-.536-.187-1.063-.56-1.583a2.562 2.562 0 00-.53-.511 6.994 6.994 0 00-.788-.505 16.58 16.58 0 00-.974-.5 43.878 43.878 0 00-1.093-.499l-2.118-.87-.578 1.096.48.188a2.183 2.183 0 00-.626.448 2.77 2.77 0 00-.436.584 2.72 2.72 0 00-.338 1.293c0 .297.077.604.229.923.152.318.38.642.685.97a9.349 9.349 0 01-.773.074c-.15.008-.318.014-.503.018-.184.004-.398.006-.642.006h-.164V52h.164c.288 0 .587-.006.895-.018.308-.012.61-.032.907-.058.296-.026.58-.062.85-.107.269-.044.511-.099.727-.164.344.138.684.233 1.02.286.334.053.68.08 1.037.08zm-2.118-1.668a4.14 4.14 0 01-.439-.331 2.566 2.566 0 01-.362-.384 1.819 1.819 0 01-.246-.435 1.314 1.314 0 01-.092-.487c0-.183.039-.373.116-.572.077-.199.184-.378.32-.536.136-.158.28-.274.435-.347.154-.073.3-.11.438-.11.073 0 .148.009.225.025a.903.903 0 01.423.198c.108.095.191.205.25.329.059.123.097.253.116.39.018.135.027.264.027.386a2.093 2.093 0 01-.673 1.522c-.152.141-.331.26-.538.352zm2.002.5a3.13 3.13 0 01-.56-.043c.154-.162.294-.34.42-.536.126-.194.233-.392.32-.593.087-.201.155-.4.204-.6.048-.199.073-.383.073-.554 0-.121-.002-.251-.006-.39a1.766 1.766 0 00-.073-.437c.288.133.54.282.754.444.216.162.395.328.54.496.143.168.252.336.325.502.073.167.11.32.11.463 0 .166-.038.325-.113.478a1.043 1.043 0 01-.365.398 2.063 2.063 0 01-.655.271 4.07 4.07 0 01-.974.1zm-5.24 1.15v-1.193h-.122c-.256 0-.476-.026-.66-.08a.95.95 0 01-.418-.218.507.507 0 01-.161-.314 3.288 3.288 0 01-.021-.386v-3.056a42.483 42.483 0 00-.125-3.208 9.023 9.023 0 00-.094-.76l-1.194.218c.037.191.068.436.095.734.026.298.049.624.067.977.018.353.031.718.04 1.096.007.377.012.74.012 1.09a89.654 89.654 0 010 1.88 184.985 184.985 0 00-.012.837v.07c0 .097.001.214.005.35a2.35 2.35 0 00.216.886c.072.154.174.298.308.432.219.219.486.381.8.487.315.105.695.158 1.142.158h.121zm-8.644 3.993c.21 0 .43-.016.657-.049a4.216 4.216 0 001.817-.724c.282-.199.532-.445.749-.74.217-.294.39-.639.52-1.034.13-.396.195-.85.195-1.36 0-.321-.005-.702-.015-1.142-.01-.44-.022-.911-.037-1.412-.014-.501-.031-1.018-.051-1.55-.02-.531-.04-1.05-.061-1.558a212.273 212.273 0 00-.158-3.731l-1.193.049a268.233 268.233 0 01.158 3.707l.06 1.549c.02.53.038 1.044.052 1.543.015.499.027.968.037 1.406.01.438.015.818.015 1.138 0 .345-.046.653-.137.922-.091.27-.213.508-.365.713a2.37 2.37 0 01-.527.52 2.99 2.99 0 01-1.25.514c-.197.03-.375.046-.533.046a2.382 2.382 0 01-.612-.082 2.78 2.78 0 01-.496-.183 2.615 2.615 0 01-.484-.301 2.096 2.096 0 01-.414-.432 2.09 2.09 0 01-.286-.575 2.332 2.332 0 01-.106-.728 5.427 5.427 0 01.322-1.917c.045-.126.095-.243.15-.35.054-.108.11-.206.167-.295l-1.09-.487c-.138.198-.26.446-.365.742a6.77 6.77 0 00-.256.95c-.077.377-.117.83-.121 1.357v.049c0 .385.048.734.146 1.047a3.045 3.045 0 001.013 1.537c.23.184.472.338.728.46a4.093 4.093 0 001.771.402zm-8.814-7.706v-1.029h-3.336v1.029h3.336zm-27.452 4.017l.736-.95c-.182-.218-.38-.823-.59-1.813-.053-.248-.1-.487-.14-.718-.04-.232-.074-.478-.1-.74-.027-.262-.045-.53-.055-.806-.01-.276-.016-.56-.016-.853v-.298a9.623 9.623 0 00-.073-1.163c-.117-.892-.37-1.54-.76-1.941a1.741 1.741 0 00-1.273-.542c-.328 0-.637.093-.925.28a2.28 2.28 0 00-.48.426 2.998 2.998 0 00-.369.542 3.797 3.797 0 00-.399 1.254 2.854 2.854 0 00-.024.365c0 .17.018.33.055.48.06.252.161.473.301.661.14.189.314.347.52.475.207.128.436.225.685.292.25.067.455.103.615.107l.295.006c.24 0 .481-.02.725-.061.004.479.04.967.106 1.464.067.497.17 1.007.308 1.53.26.999.545 1.667.858 2.003zm-2.033-6.13c-.098 0-.193-.003-.286-.011-.755-.077-1.132-.372-1.132-.883 0-.04.002-.081.006-.122.012-.126.043-.274.094-.444.05-.17.12-.333.21-.487.09-.154.199-.284.329-.39a.702.702 0 01.456-.158c.13 0 .247.037.35.11a1.1 1.1 0 01.271.277c.077.111.141.233.192.365.05.132.09.257.118.374.041.183.075.38.1.594.027.213.045.443.053.69a3.672 3.672 0 01-.761.086zm6.677 4.59c.284 0 .551-.053.8-.161a2.096 2.096 0 001.105-1.096c.11-.25.165-.518.165-.806 0-.284-.055-.551-.165-.8a2.133 2.133 0 00-1.104-1.105 1.97 1.97 0 00-.8-.165c-.289 0-.558.055-.807.165a2.096 2.096 0 00-1.096 1.104c-.108.25-.161.517-.161.8 0 .289.053.558.161.807a2.08 2.08 0 001.096 1.096c.25.108.518.161.806.161zm0-.992c-.146 0-.284-.028-.414-.085a1.101 1.101 0 01-.572-.572 1.043 1.043 0 010-.83 1.092 1.092 0 01.572-.576 1.043 1.043 0 01.83 0 1.092 1.092 0 01.576.575 1.043 1.043 0 010 .83 1.101 1.101 0 01-.575.573c-.132.057-.27.085-.417.085zm6.026.992c.284 0 .551-.053.8-.161a2.096 2.096 0 001.105-1.096c.11-.25.165-.518.165-.806 0-.284-.055-.551-.165-.8a2.133 2.133 0 00-1.104-1.105 1.97 1.97 0 00-.8-.165c-.289 0-.558.055-.807.165a2.096 2.096 0 00-1.096 1.104c-.107.25-.161.517-.161.8 0 .289.054.558.161.807a2.08 2.08 0 001.096 1.096c.25.108.518.161.806.161zm0-.992c-.146 0-.284-.028-.414-.085a1.101 1.101 0 01-.572-.572 1.043 1.043 0 010-.83 1.092 1.092 0 01.572-.576 1.043 1.043 0 01.83 0 1.092 1.092 0 01.576.575 1.043 1.043 0 010 .83 1.101 1.101 0 01-.575.573c-.132.057-.27.085-.417.085zm6.026.992c.284 0 .551-.053.8-.161a2.096 2.096 0 001.105-1.096c.11-.25.165-.518.165-.806 0-.284-.055-.551-.164-.8a2.133 2.133 0 00-1.105-1.105 1.97 1.97 0 00-.8-.165c-.289 0-.558.055-.807.165a2.096 2.096 0 00-1.096 1.104c-.107.25-.161.517-.161.8 0 .289.054.558.161.807a2.08 2.08 0 001.096 1.096c.25.108.518.161.806.161zm0-.992c-.146 0-.284-.028-.414-.085a1.101 1.101 0 01-.572-.572 1.043 1.043 0 010-.83 1.092 1.092 0 01.572-.576 1.043 1.043 0 01.83 0 1.092 1.092 0 01.577.575 1.043 1.043 0 010 .83 1.101 1.101 0 01-.576.573c-.132.057-.27.085-.417.085zM400.91 92c.247 0 .48-.012.7-.037a2.77 2.77 0 00.62-.14 2.05 2.05 0 00.551-.298 2.48 2.48 0 00.497-.517c.186.138.39.273.608.405.22.131.448.243.685.334a2.63 2.63 0 00.983.198c.166 0 .333-.022.5-.067.263-.073.486-.204.669-.392.182-.189.326-.41.432-.664.105-.253.17-.486.195-.697.024-.21.036-.381.036-.511 0-.146-.01-.288-.03-.426a3.683 3.683 0 00-.216-.804 2.506 2.506 0 00-.417-.706 2.058 2.058 0 00-.63-.502 1.812 1.812 0 00-.85-.192c-.267 0-.502.054-.702.162-.201.107-.38.247-.536.42a3.21 3.21 0 00-.42.59c-.124.221-.24.445-.35.673-.126.251-.25.496-.374.733-.124.238-.27.449-.439.633a1.908 1.908 0 01-.611.445c-.24.111-.54.167-.901.167h-.122V92h.122zm4.626-1.266c-.163 0-.345-.04-.548-.122a4.697 4.697 0 01-1.01-.59l.328-.664c.102-.199.192-.371.271-.517.08-.146.154-.268.225-.365a.862.862 0 01.213-.216.408.408 0 01.229-.07c.121 0 .229.024.322.073.094.048.175.11.244.185s.128.159.176.25a1.98 1.98 0 01.189.496c.016.069.026.118.03.146.017.11.025.215.025.317a1.822 1.822 0 01-.113.615 1.035 1.035 0 01-.167.298.389.389 0 01-.201.14.878.878 0 01-.213.024zM401.03 92v-1.193h-.121c-.256 0-.476-.026-.66-.08a.95.95 0 01-.418-.218.507.507 0 01-.161-.314 3.288 3.288 0 01-.021-.386v-3.056a42.483 42.483 0 00-.125-3.208 9.022 9.022 0 00-.094-.76l-1.193.218c.036.191.067.436.094.734.026.298.049.624.067.977.018.353.031.718.04 1.096.008.377.012.74.012 1.09a89.654 89.654 0 010 1.88 184.945 184.945 0 00-.012.837v.07c0 .097.001.214.005.35a2.35 2.35 0 00.216.886c.072.154.174.298.308.432.22.219.486.381.8.487.315.105.695.158 1.142.158h.121zm-8.412-8.096l.901-.9-.907-.907-.9.9.906.907zm-1.375 1.924l.986-.992-.999-.999-.986.993.999.998zm2.672.006l.986-.986-.998-.998-.986.986.998.998zm.207 6.239c.377 0 .708-.053.992-.158.292-.106.536-.258.73-.457.195-.199.341-.439.439-.721.097-.282.146-.598.146-.947 0-.23-.022-.468-.064-.712a6.734 6.734 0 00-.165-.712 10.71 10.71 0 00-.751-1.899l-1.066.56a10.738 10.738 0 01.515 1.245c.087.257.162.52.225.788s.094.517.094.749c0 .178-.02.339-.06.48a.814.814 0 01-.198.354.668.668 0 01-.31.185 1.37 1.37 0 01-.35.046c-.07 0-.143-.004-.22-.012a.568.568 0 01-.307-.119.741.741 0 01-.201-.256 1.287 1.287 0 01-.11-.359 2.647 2.647 0 01-.033-.429c0-.166.012-.356.036-.569.025-.213.052-.414.083-.603.03-.188.057-.35.082-.484l.03-.194-1.169-.213a14.56 14.56 0 01-.1.587 8.363 8.363 0 01-.164.697c-.067.24-.148.475-.244.706a3.216 3.216 0 01-.335.621c-.127.183-.274.33-.438.444a.956.956 0 01-.557.17.643.643 0 01-.322-.072.545.545 0 01-.201-.195.852.852 0 01-.104-.277c-.02-.104-.03-.21-.03-.32 0-.158.016-.33.048-.514.033-.185.071-.365.116-.542a11.173 11.173 0 01.256-.873l-1.205-.256c-.041.199-.09.41-.147.633a6.81 6.81 0 01-.206.667 4.862 4.862 0 01-.287.636c-.11.203-.238.382-.386.539a1.813 1.813 0 01-.508.377c-.191.095-.406.143-.646.143h-.133V92h.127c.236 0 .452-.02.649-.058a2.366 2.366 0 00.99-.432c.137-.103.267-.22.388-.35.065.15.158.282.277.396.12.113.253.209.399.286.146.077.3.135.46.173a1.989 1.989 0 001.445-.192c.309-.166.585-.391.828-.675.085.13.189.25.31.362.122.112.254.209.396.292.142.083.291.15.447.198.157.049.312.073.466.073h.043zM382.617 92c.382 0 .714-.015.996-.046.282-.03.528-.077.74-.14a2.273 2.273 0 00.973-.569c.175.223.398.405.67.545s.612.21 1.022.21h.122v-1.193h-.122a.86.86 0 01-.508-.14.999.999 0 01-.31-.353 1.667 1.667 0 01-.162-.463 4.299 4.299 0 01-.067-.474 18.669 18.669 0 00-.11-1.054 5.718 5.718 0 00-.176-.827l-1.144.322c.09.309.151.583.186.822.034.24.051.475.051.706 0 .244-.04.457-.121.64a1.1 1.1 0 01-.38.456 1.85 1.85 0 01-.67.274c-.274.06-.604.091-.99.091h-.907V92h.907zm.226 2.977l.986-.987-.999-.998-.986.992.999.993zm2.495.012l.986-.992-.998-.993-.986.986.998.999zm-5.983-8.601l.992-.992-.998-.999-.992.993.998.998zM377.645 92c.596 0 1.097-.062 1.503-.186.406-.123.736-.313.992-.569.174.223.398.405.67.545.271.14.612.21 1.022.21h.122v-1.193h-.122a.86.86 0 01-.508-.14.999.999 0 01-.31-.353 1.667 1.667 0 01-.162-.463 4.299 4.299 0 01-.067-.474 18.666 18.666 0 00-.11-1.054 5.718 5.718 0 00-.176-.827l-1.144.322c.09.309.15.583.185.822.035.24.052.475.052.706 0 .483-.154.847-.462 1.093-.309.245-.804.368-1.486.368h-.225V92h.225zm-5.832-2.94l.992-.992-.998-.998-.992.992.998.998zm-.25 7.116c.5 0 .973-.053 1.422-.159a4.386 4.386 0 001.226-.484c.37-.217.693-.492.971-.824.278-.333.494-.729.648-1.187.106-.325.174-.621.204-.889a6.474 6.474 0 00.04-1.004c.43.247.919.371 1.467.371h.134v-1.193h-.134a2.16 2.16 0 01-.454-.052 1.417 1.417 0 01-.508-.24 2.912 2.912 0 01-.566-.56 6.432 6.432 0 01-.633-1.005 6.982 6.982 0 00-.444-.827l-1.01.645c.003 0 .04.06.112.18.07.12.153.283.246.492.094.21.188.455.283.737a5.788 5.788 0 01.302 1.853v.073a3.791 3.791 0 01-.177 1.054c-.09.284-.223.538-.402.763-.178.226-.4.416-.663.573-.264.156-.57.275-.92.356a5.17 5.17 0 01-1.168.121c-.345 0-.652-.037-.922-.112a2.885 2.885 0 01-.706-.292c-.201-.12-.372-.255-.514-.405a2.65 2.65 0 01-.354-.46 2.189 2.189 0 01-.21-.453 2.546 2.546 0 01-.094-.378 3.57 3.57 0 01-.03-.718c.012-.243.04-.483.082-.718s.096-.462.161-.679c.065-.217.133-.417.204-.6a5.35 5.35 0 01.21-.477c.07-.136.13-.24.183-.314l-.968-.712a8.651 8.651 0 00-.478.922c-.152.34-.28.697-.383 1.075a5.673 5.673 0 00-.192.983 5.374 5.374 0 00.018 1.41c.081.53.238.993.472 1.387.233.393.526.719.88.977.352.257.755.45 1.208.578.452.128.938.192 1.457.192zM355.81 92c.248 0 .481-.012.7-.037a2.77 2.77 0 00.621-.14 2.05 2.05 0 00.551-.298 2.48 2.48 0 00.496-.517c.187.138.39.273.609.405.22.131.447.243.685.334a2.63 2.63 0 00.983.198c.166 0 .333-.022.499-.067.264-.073.487-.204.67-.392.182-.189.326-.41.432-.664.105-.253.17-.486.194-.697.025-.21.037-.381.037-.511 0-.146-.01-.288-.03-.426a3.683 3.683 0 00-.217-.804 2.506 2.506 0 00-.417-.706 2.058 2.058 0 00-.63-.502 1.812 1.812 0 00-.849-.192c-.267 0-.502.054-.703.162-.2.107-.38.247-.535.42a3.21 3.21 0 00-.42.59c-.124.221-.24.445-.35.673-.126.251-.25.496-.375.733-.123.238-.27.449-.438.633a1.908 1.908 0 01-.612.445c-.24.111-.54.167-.9.167h-.122V92h.121zm4.627-1.266c-.163 0-.345-.04-.548-.122a4.697 4.697 0 01-1.01-.59l.328-.664c.101-.199.192-.371.27-.517.08-.146.155-.268.226-.365a.862.862 0 01.213-.216.408.408 0 01.228-.07c.122 0 .23.024.323.073.093.048.174.11.243.185.07.075.128.159.177.25a1.98 1.98 0 01.189.496c.016.069.026.118.03.146.016.11.024.215.024.317a1.822 1.822 0 01-.113.615 1.035 1.035 0 01-.167.298.389.389 0 01-.2.14.878.878 0 01-.213.024zM355.932 92v-1.193h-.122c-.255 0-.475-.026-.66-.08a.95.95 0 01-.417-.218.507.507 0 01-.161-.314 3.288 3.288 0 01-.022-.386v-3.056a42.483 42.483 0 00-.124-3.208 9.022 9.022 0 00-.095-.76l-1.193.218c.037.191.068.436.095.734.026.298.048.624.067.977.018.353.031.718.04 1.096.007.377.011.74.011 1.09a89.654 89.654 0 010 1.88 184.945 184.945 0 00-.011.837v.174c0 .073.003.155.005.246a2.35 2.35 0 00.216.886c.071.154.174.298.308.432.219.219.486.381.8.487.315.105.695.158 1.141.158h.122zm-8.674 4.358c.341-.166.677-.354 1.008-.563.33-.209.645-.437.943-.685.298-.247.574-.51.828-.79s.473-.575.657-.883c.185-.309.329-.628.433-.96.103-.33.155-.672.155-1.025 0-.178-.014-.361-.043-.548a8.704 8.704 0 00-.106-.569c-.043-.193-.09-.387-.14-.584l-.15-.588a9.052 9.052 0 00-.152-.556 65.409 65.409 0 01-.17-.564l-1.157.366c.11.34.213.681.31 1.022l.14.512c.05.174.094.349.135.523.04.175.074.345.1.511.027.167.04.325.04.475 0 .394-.096.775-.286 1.145a4.51 4.51 0 01-.758 1.046 6.964 6.964 0 01-1.075.91 9.912 9.912 0 01-1.241.734l.53 1.071zM343.698 92c.332 0 .654-.022.964-.067.31-.045.596-.122.855-.231.26-.11.49-.256.691-.439.201-.182.362-.411.484-.687.122-.28.183-.605.183-.974 0-.065-.002-.13-.006-.195-.029-.45-.134-.97-.317-1.558a7.904 7.904 0 00-.195-.563 12.302 12.302 0 00-.334-.786 1.499 1.499 0 01-.055-.124l-1.084.535.53 1.303a3.959 3.959 0 01.274 1.038c.008.107.012.187.012.24 0 .098-.006.189-.018.274-.02.13-.051.237-.092.323a.953.953 0 01-.34.398 1.674 1.674 0 01-.506.216c-.19.05-.397.079-.62.089-.224.01-.453.015-.688.015h-1.175V92h1.436zm-.305 2.977l.986-.987-.998-.998-.986.992.998.993zm2.496.012l.986-.992-.998-.993-.987.986.999.999zM342.504 92v-1.193h-.121c-.256 0-.476-.026-.66-.08a.95.95 0 01-.418-.218.507.507 0 01-.161-.314 3.288 3.288 0 01-.021-.386v-3.056a42.483 42.483 0 00-.125-3.208 9.022 9.022 0 00-.095-.76l-1.193.218c.037.191.068.436.095.734.026.298.048.624.067.977.018.353.031.718.04 1.096.007.377.011.74.011 1.09a89.654 89.654 0 010 1.88 184.945 184.945 0 00-.011.837v.174c0 .073.003.155.005.246a2.35 2.35 0 00.216.886c.071.154.174.298.308.432.219.219.486.381.8.487.315.105.695.158 1.142.158h.121zm61.813 30.882c.017-.049.042-.115.076-.198.035-.083.078-.166.128-.25.051-.083.109-.156.174-.219a.353.353 0 01.207-.106.784.784 0 01.365.024c.118.037.242.08.374.13.132.052.273.1.423.147.15.047.317.07.5.07h.036a1.3 1.3 0 00.402-.06c.138-.046.265-.102.38-.171a2.04 2.04 0 00.314-.229c.093-.083.173-.162.24-.237a2.086 2.086 0 00.216-.283l-.694-.45a3.633 3.633 0 01-.118.146c-.055.065-.122.13-.201.197-.08.067-.164.123-.253.168a.594.594 0 01-.268.067h-.024a1.359 1.359 0 01-.35-.055 3.69 3.69 0 01-.326-.116 4.624 4.624 0 00-.401-.146 1.624 1.624 0 00-.487-.067c-.175 0-.345.038-.512.113a1.693 1.693 0 00-.456.304 1.831 1.831 0 00-.548.971l.803.25zm2.24 9.118c.057-.402.09-.855.1-1.36.011-.506.016-.92.016-1.245 0-.54-.006-1.147-.018-1.82a55.828 55.828 0 00-.08-2.07 81.38 81.38 0 00-.164-2.313l-1.193.183c.057.548.108 1.221.152 2.02.045.8.082 1.733.11 2.8a27.95 27.95 0 01-.006 1.857c-.02.621-.059 1.248-.116 1.881l1.2.067zm-6.519-6.714l.986-.986-.998-.998-.986.992.998.992zm2.496.012l.986-.992-.998-.992-.986.986.998.998zM399.88 132c.333 0 .654-.022.965-.067.31-.045.595-.122.855-.231.26-.11.49-.256.69-.439.202-.182.363-.411.485-.687.122-.28.182-.605.182-.974 0-.065-.002-.13-.006-.195-.028-.45-.134-.97-.316-1.558a7.904 7.904 0 00-.195-.563 12.306 12.306 0 00-.335-.786 1.499 1.499 0 01-.055-.124l-1.083.535.53 1.303a3.959 3.959 0 01.273 1.038c.009.107.013.187.013.24 0 .098-.006.189-.019.274-.02.13-.05.237-.091.323a.953.953 0 01-.34.398 1.674 1.674 0 01-.506.216c-.19.05-.398.079-.62.089-.224.01-.453.015-.689.015h-1.175V132h1.437zm-6.909 4.273a7.459 7.459 0 001.72-.487 6.291 6.291 0 001.51-.889 5.424 5.424 0 001.156-1.269 4.598 4.598 0 00.66-1.628h.67v-1.193h-.578a5.794 5.794 0 00-.329-1.768 4.675 4.675 0 00-.353-.77 3.846 3.846 0 00-.463-.646c-.483-.519-1.012-.779-1.588-.779-.26 0-.51.066-.752.198a2.284 2.284 0 00-.673.581c-.17.22-.318.48-.444.783a3.435 3.435 0 00-.24.81 4.237 4.237 0 00-.052.587c0 .162.014.324.042.487.05.308.167.58.353.815.422.524 1.074.812 1.954.865.224.02.423.03.6.03h.69c-.044.304-.169.614-.374.928a3.805 3.805 0 01-.837.892 6.02 6.02 0 01-1.272.755 7.854 7.854 0 01-1.68.523l.28 1.175zm3.343-5.479h-.098c-.179 0-.37-.005-.573-.017a3.068 3.068 0 01-.258-.028c-.1-.014-.201-.036-.305-.067a1.43 1.43 0 01-.292-.122.716.716 0 01-.228-.197.57.57 0 01-.125-.29 2.13 2.13 0 01-.021-.27 2.765 2.765 0 01.344-1.272c.083-.143.177-.26.283-.35a.505.505 0 01.335-.138c.073 0 .142.013.207.037a.94.94 0 01.185.094c.06.039.114.082.165.128.05.047.096.09.137.131.101.118.2.257.295.417.095.16.181.34.258.539.078.199.14.414.19.645.048.231.078.477.09.736a7.117 7.117 0 01-.59.024zM385.125 132c.248 0 .481-.012.7-.037a2.77 2.77 0 00.621-.14 2.05 2.05 0 00.551-.298 2.48 2.48 0 00.496-.517c.187.138.39.273.609.405.219.131.447.243.685.334a2.63 2.63 0 00.983.198c.166 0 .332-.022.499-.067.263-.073.487-.204.67-.392.182-.189.326-.41.431-.664.106-.253.17-.486.195-.697.025-.21.037-.381.037-.511 0-.146-.01-.288-.03-.426a3.683 3.683 0 00-.217-.804 2.506 2.506 0 00-.417-.706 2.058 2.058 0 00-.63-.502 1.812 1.812 0 00-.849-.192c-.268 0-.502.054-.703.162-.2.107-.38.247-.536.42a3.21 3.21 0 00-.42.59c-.123.221-.24.445-.35.673-.125.251-.25.496-.374.733-.124.238-.27.449-.438.633a1.908 1.908 0 01-.612.445c-.24.111-.54.167-.9.167h-.123V132h.122zm4.626-1.266c-.162 0-.345-.04-.548-.122a4.697 4.697 0 01-1.01-.59l.329-.664c.101-.199.191-.371.27-.517.08-.146.155-.268.226-.365a.862.862 0 01.213-.216.408.408 0 01.228-.07c.122 0 .23.024.323.073.093.048.174.11.243.185.07.075.128.159.177.25a1.98 1.98 0 01.188.496c.017.069.027.118.03.146.017.11.025.215.025.317a1.822 1.822 0 01-.113.615 1.035 1.035 0 01-.167.298.389.389 0 01-.2.14.878.878 0 01-.214.024zM385.247 132v-1.193h-.122c-.255 0-.476-.026-.66-.08a.95.95 0 01-.417-.218.507.507 0 01-.161-.314 3.288 3.288 0 01-.022-.386v-3.056a42.483 42.483 0 00-.125-3.208 9.022 9.022 0 00-.094-.76l-1.193.218c.037.191.068.436.094.734.027.298.05.624.067.977.019.353.032.718.04 1.096.008.377.012.74.012 1.09a89.654 89.654 0 010 1.88 184.943 184.943 0 00-.012.907c0 .097.002.214.006.35a2.35 2.35 0 00.216.886c.071.154.174.298.307.432.22.219.486.381.8.487.315.105.696.158 1.142.158h.122zm-7.578-6.714l.986-.986-.998-.998-.987.992.999.992zm2.495.012l.986-.992-.998-.992-.986.986.998.998zM377.51 132c.333 0 .655-.022.965-.067.31-.045.596-.122.855-.231.26-.11.49-.256.691-.439.201-.182.362-.411.484-.687.122-.28.183-.605.183-.974 0-.065-.002-.13-.006-.195-.029-.45-.134-.97-.317-1.558a7.904 7.904 0 00-.195-.563 12.306 12.306 0 00-.334-.786 1.498 1.498 0 01-.055-.124l-1.084.535.53 1.303a3.959 3.959 0 01.274 1.038c.008.107.012.187.012.24 0 .098-.006.189-.018.274-.02.13-.05.237-.092.323a.953.953 0 01-.34.398 1.674 1.674 0 01-.506.216c-.19.05-.397.079-.62.089-.224.01-.453.015-.688.015h-1.175V132h1.436zm-1.193 0v-1.193h-.121c-.256 0-.476-.026-.66-.08a.95.95 0 01-.418-.218.507.507 0 01-.161-.314 3.288 3.288 0 01-.021-.386v-3.056a42.483 42.483 0 00-.125-3.208 9.023 9.023 0 00-.094-.76l-1.194.218c.037.191.068.436.095.734.026.298.049.624.067.977.018.353.031.718.04 1.096.007.377.012.74.012 1.09a89.654 89.654 0 010 1.88 184.984 184.984 0 00-.012.837v.07c0 .097.001.214.005.35a2.35 2.35 0 00.216.886c.072.154.174.298.308.432.219.219.486.381.8.487.315.105.695.158 1.142.158h.121zm23.222 36a9.77 9.77 0 001.82-.17c.6-.114 1.182-.261 1.744-.442.562-.18 1.1-.382 1.613-.605.513-.224.993-.447 1.44-.67l.876-.43c.28-.135.562-.262.846-.38l-.231-1.156c-.252 0-.501-.026-.749-.08a5.987 5.987 0 01-.742-.21 9.844 9.844 0 01-.74-.294c-.245-.11-.488-.222-.727-.335-.22-.102-.437-.201-.652-.298a8.863 8.863 0 00-.633-.26 4.933 4.933 0 00-.611-.179 2.73 2.73 0 00-.594-.067 2.34 2.34 0 00-1.123.286c-.355.191-.69.477-1.007.859a4.13 4.13 0 00-.29.383 9.872 9.872 0 00-.212.335 3.1 3.1 0 00-.186.347l1.096.493c0-.004.019-.044.057-.119.039-.075.095-.168.168-.28.073-.111.16-.231.261-.359.102-.128.217-.247.344-.359.128-.112.267-.204.417-.277.15-.073.309-.11.475-.11.126 0 .264.02.414.058.15.039.31.09.478.156.168.064.343.139.523.222l.557.258c.248.118.5.234.755.347.256.114.524.22.804.317-.463.231-.944.456-1.443.676-.5.219-1.01.413-1.534.584-.523.17-1.055.307-1.595.41a8.58 8.58 0 01-1.619.156h-1.32V168h1.32zm5.016 3.171l.998-.998-.986-.986-.998.998.986.986zm-2.66.012l.998-.998-.986-.992-.998.998.986.992zm1.357 1.741l.907-.907-.9-.9-.908.906.901.901zm-4.79-4.924v-1.193h-.122c-.256 0-.476-.026-.66-.08a.95.95 0 01-.417-.218.507.507 0 01-.162-.314 3.288 3.288 0 01-.021-.386v-3.056a42.483 42.483 0 00-.125-3.208 9.023 9.023 0 00-.094-.76l-1.193.218c.036.191.068.436.094.734.027.298.049.624.067.977.018.353.032.718.04 1.096.008.377.012.74.012 1.09.004.356.006.695.006 1.016v.236c-.001.23-.003.44-.006.628a184.984 184.984 0 00-.012.907c0 .097.002.214.006.35a2.35 2.35 0 00.216.886c.07.154.173.298.307.432.22.219.486.381.8.487.315.105.696.158 1.142.158h.122zm-7.737 0c.333 0 .655-.022.965-.067.31-.045.596-.122.855-.231.26-.11.49-.256.691-.439.201-.182.362-.411.484-.687.122-.28.183-.605.183-.974 0-.065-.002-.13-.006-.195-.029-.45-.134-.97-.317-1.558a7.904 7.904 0 00-.195-.563 12.302 12.302 0 00-.335-.786 1.499 1.499 0 01-.054-.124l-1.084.535.53 1.303a3.959 3.959 0 01.274 1.038c.008.107.012.187.012.24 0 .098-.006.189-.018.274-.02.13-.051.237-.092.323a.953.953 0 01-.34.398 1.674 1.674 0 01-.506.216c-.19.05-.398.079-.62.089-.224.01-.453.015-.689.015h-1.174V168h1.436zm2.32 3.171l.998-.998-.986-.986-.999.998.986.986zm-2.66.012l.998-.998-.986-.992-.999.998.986.992zm1.357 1.741l.907-.907-.901-.9-.907.906.9.901zm-7.719-.955c.268 0 .569-.019.901-.055a7.469 7.469 0 001.008-.183c.339-.085.668-.195.989-.331.32-.136.607-.304.858-.503.252-.198.455-.432.609-.7a1.854 1.854 0 00.213-1.199 1.28 1.28 0 00-.098-.316 1.74 1.74 0 00-.203-.338c-.088-.116-.2-.23-.338-.344h1.57v-1.193h-4.802l-.092 1.187.134.024a8.487 8.487 0 01.585.134l.392.11c.14.04.281.085.423.134.231.085.426.17.585.255.158.086.287.166.386.24.1.076.171.147.216.214a.33.33 0 01.067.173.756.756 0 01-.204.524c-.136.15-.31.28-.52.39-.211.109-.448.201-.71.276a7.627 7.627 0 01-1.47.274 6.32 6.32 0 01-.499.028c-.202 0-.435-.004-.696-.013a4.438 4.438 0 01-.792-.097 3.022 3.022 0 01-.767-.277 1.705 1.705 0 01-.618-.55c-.255-.39-.383-.898-.383-1.523 0-.986.319-2.262.956-3.828l-1.114-.45c-.637 1.541-.982 2.864-1.035 3.968-.004.101-.006.2-.006.298 0 .889.197 1.621.59 2.198.187.316.427.57.722.764.294.192.614.341.961.447.347.105.71.175 1.087.21.377.034.742.052 1.095.052z" mask="url(#e)"/><path fill="url(#f)" d="M0 152h424v12a4 4 0 01-4 4H4a4 4 0 01-4-4v-12z" mask="url(#e)"/><path fill="url(#g)" d="M4 0h416a4 4 0 014 4v12H0V4a4 4 0 014-4z" mask="url(#e)"/><rect width="4" height="64" x="4" y="29" fill="#000000" fill-opacity=".12" mask="url(#e)" rx="2"/></g></g><g mask="url(#b)"><g transform="translate(218 32)"><rect width="423" height="39" x=".5" y=".5" stroke="#000000" stroke-opacity=".48" rx="4"/><path fill="#000000" fill-opacity=".32" fill-rule="nonzero" d="M403.638 24c.38 0 .748-.026 1.103-.077.355-.05.68-.139.977-.264.297-.125.56-.292.79-.5.23-.21.414-.471.553-.787.139-.32.209-.69.209-1.113 0-.074-.003-.148-.007-.222-.033-.515-.153-1.109-.362-1.781a9.034 9.034 0 00-.223-.644 14.061 14.061 0 00-.382-.897 1.713 1.713 0 01-.063-.143l-1.238.612.605 1.489c.097.237.172.463.223.678.05.216.08.385.09.508.01.123.014.215.014.275 0 .111-.007.216-.02.313a1.35 1.35 0 01-.105.369 1.089 1.089 0 01-.39.455c-.167.11-.36.192-.577.247-.218.056-.455.09-.71.101-.255.012-.517.018-.786.018h-1.342V24h1.641zm-.348 3.402l1.127-1.127-1.14-1.141-1.127 1.134 1.14 1.134zm2.853.014l1.127-1.134-1.141-1.134-1.127 1.127 1.14 1.14zM402.275 24v-1.363h-.195a4.643 4.643 0 01-.758-.07 2.482 2.482 0 01-.62-.195 2.725 2.725 0 01-.716-.48 3.246 3.246 0 01-.497-.598 3.881 3.881 0 01-.341-.661 12.61 12.61 0 01-.247-.675 5.431 5.431 0 00-.504-1.06 8.138 8.138 0 00-.752-1.037 9.893 9.893 0 00-.953-.974c-.35-.313-.72-.606-1.11-.88l5.51-2.324-.522-1.266-6.24 2.686-.187 1.537c.185.144.403.315.654.515a17.592 17.592 0 011.561 1.412c.258.264.484.531.679.8.194.269.34.523.438.762.097.239.146.455.146.65 0 .051-.002.102-.007.153a1.193 1.193 0 01-.33.682c-.193.209-.493.39-.901.543-.311.12-.763.216-1.357.288-.594.072-1.363.129-2.31.17a8.51 8.51 0 01-.89-.014 11.983 11.983 0 01-2.003-.32 8.132 8.132 0 01-.912-.284 3.558 3.558 0 01-.716-.362c-.2-.135-.336-.278-.41-.432a1.06 1.06 0 01-.105-.48v-.062c.01-.2.049-.406.118-.62.07-.213.16-.421.268-.625a4.99 4.99 0 01.337-.55l-1.099-.82c-.014.018-.04.06-.08.124-.04.065-.088.148-.146.247a7.279 7.279 0 00-.4.81c-.204.465-.316.815-.337 1.051-.021.237-.031.4-.031.487 0 .283.041.543.125.78.106.31.275.586.504.827.23.241.502.454.818.637.315.183.666.337 1.053.462a9.73 9.73 0 001.218.306c.424.08.859.136 1.304.17.445.036.886.053 1.322.053.82 0 1.538-.022 2.153-.066a8.473 8.473 0 001.61-.254c.46-.125.854-.301 1.183-.529.33-.227.617-.524.863-.89a3.897 3.897 0 001.572 1.297c.635.29 1.335.437 2.1.442h.14zm-29.225 0c.283 0 .55-.014.8-.042.25-.028.487-.08.71-.16.223-.079.432-.192.63-.34.197-.149.386-.346.567-.592.213.158.445.312.695.463.25.15.511.278.783.382a3.005 3.005 0 001.123.226c.19 0 .38-.025.57-.076a1.66 1.66 0 00.766-.449c.209-.215.373-.468.494-.758.12-.29.195-.555.222-.797.028-.24.042-.436.042-.584 0-.167-.011-.33-.035-.487a4.21 4.21 0 00-.247-.918 2.864 2.864 0 00-.476-.807c-.2-.237-.44-.428-.72-.574a2.071 2.071 0 00-.97-.22c-.307 0-.574.062-.804.185-.23.123-.434.283-.612.48a3.668 3.668 0 00-.48.675c-.142.253-.275.509-.4.769-.144.287-.287.567-.428.838a3.398 3.398 0 01-.5.723c-.193.211-.426.38-.7.508-.274.128-.617.192-1.03.192h-.139V24h.14zm5.287-1.447c-.185 0-.394-.046-.626-.14-.348-.138-.732-.363-1.154-.674l.375-.758c.116-.227.22-.424.31-.591a3.74 3.74 0 01.257-.418.985.985 0 01.244-.247.466.466 0 01.26-.08c.14 0 .263.028.37.084.106.055.199.126.277.212.08.086.147.18.202.285a2.264 2.264 0 01.216.567c.018.079.03.135.035.167.018.125.027.246.027.362a2.082 2.082 0 01-.129.703c-.053.138-.116.252-.19.34a.444.444 0 01-.23.16 1.003 1.003 0 01-.244.028zM362.317 24c.723 0 1.407-.054 2.052-.163a14.231 14.231 0 001.833-.432c.577-.178 1.126-.38 1.645-.605.52-.225 1.018-.456 1.496-.692.116.297.288.562.518.796.23.235.503.433.82.595.318.162.677.287 1.076.372.398.086.827.129 1.286.129h.147v-1.363h-.147c-.083 0-.194-.004-.333-.01a4.039 4.039 0 01-.46-.053 4.861 4.861 0 01-.51-.115 2.302 2.302 0 01-.495-.202 1.718 1.718 0 01-.41-.313 1.06 1.06 0 01-.254-.448c.213-.107.424-.207.633-.3l.633-.278-.264-1.321c-.288 0-.573-.03-.856-.09a6.842 6.842 0 01-.849-.24 11.25 11.25 0 01-.845-.338c-.28-.126-.558-.253-.831-.383-.25-.116-.499-.23-.745-.34-.245-.112-.487-.21-.723-.296a5.637 5.637 0 00-.7-.206 3.12 3.12 0 00-.677-.076c-.45 0-.878.109-1.284.327-.406.218-.79.545-1.151.98a4.72 4.72 0 00-.33.439c-.096.144-.177.271-.244.383a3.542 3.542 0 00-.212.396l1.252.564a.05.05 0 01.004-.012l.033-.067.029-.057c.044-.086.108-.193.191-.32.084-.128.183-.264.3-.41.115-.147.246-.283.392-.411.146-.128.305-.233.477-.317.172-.083.352-.125.543-.125.143 0 .301.022.473.066.171.044.353.104.546.178.192.074.392.159.598.254l.636.295c.283.135.57.267.863.397.292.13.598.25.918.362-.528.264-1.064.521-1.607.772-.542.25-1.102.473-1.68.668a13.45 13.45 0 01-1.805.47 10.67 10.67 0 01-1.982.177h-1.002V24h1.002zm-7.52.14c.315 0 .648-.01.998-.029.35-.018.706-.055 1.068-.111h4.73v-1.363h-1.74c.214-.237.39-.51.53-.821.139-.311.215-.67.23-1.079v-.097c0-.301-.04-.582-.12-.842a2.648 2.648 0 00-1.002-1.37 2.933 2.933 0 00-.774-.39 2.904 2.904 0 00-.693-.156 7.311 7.311 0 00-.347-.018c-.26 0-.522.03-.787.09-.575.13-1.102.33-1.582.599-.48.269-.917.59-1.311.964-.395.373-.75.79-1.065 1.252a10.63 10.63 0 00-.835 1.457 2.046 2.046 0 01-.313-.682 2.943 2.943 0 01-.083-.688v-.049c0-.241.023-.475.07-.703.046-.227.097-.436.152-.626l-1.314-.396c-.06.18-.112.364-.153.55-.042.185-.082.377-.119.577-.074.352-.15.68-.23.98-.078.302-.199.564-.36.787-.052.07-.118.142-.2.219a1.281 1.281 0 01-.323.212c-.134.065-.299.12-.494.163a3.229 3.229 0 01-.702.067h-.16V24h.202c.64-.005 1.186-.102 1.638-.292.452-.19.824-.49 1.116-.898.255.33.517.584.786.762.27.179.562.31.877.393.315.084.662.134 1.04.15.378.016.801.024 1.27.024zm0-1.406h-.307c-.412-.01-.772-.023-1.078-.042.255-.464.517-.884.786-1.262a6.88 6.88 0 01.852-.995c.3-.285.62-.524.964-.717a4.046 4.046 0 011.113-.42 2.1 2.1 0 01.88 0c.155.032.307.082.456.149a1.297 1.297 0 01.671.66c.072.156.108.336.108.54v.028c0 .357-.098.658-.292.904-.2.25-.464.455-.793.612a4.53 4.53 0 01-1.124.355 9.72 9.72 0 01-1.196.153c-.378.023-.725.035-1.04.035zm-13.183 6.15a8.524 8.524 0 001.965-.557 7.19 7.19 0 001.725-1.016 6.198 6.198 0 001.322-1.45 5.255 5.255 0 00.755-1.861h.765v-1.363h-.66a6.622 6.622 0 00-.376-2.02 5.342 5.342 0 00-.404-.881 4.395 4.395 0 00-.529-.738c-.551-.593-1.157-.89-1.815-.89a1.77 1.77 0 00-.86.226 2.61 2.61 0 00-.768.664c-.195.25-.364.549-.508.894a3.926 3.926 0 00-.275.925c-.04.272-.059.495-.059.672 0 .185.016.37.049.556.056.353.19.663.403.932.483.599 1.227.928 2.233.988.255.023.484.035.686.035h.79c-.052.348-.194.701-.429 1.06-.234.36-.553.7-.956 1.02-.404.32-.888.608-1.454.863a8.976 8.976 0 01-1.92.598l.32 1.342zm3.755-6.262h-.047c-.204 0-.422-.006-.654-.02a3.506 3.506 0 01-.296-.032 2.472 2.472 0 01-.348-.076 1.635 1.635 0 01-.334-.14.819.819 0 01-.26-.225.651.651 0 01-.143-.33 2.434 2.434 0 01-.024-.31c0-.102.007-.207.02-.313a3.16 3.16 0 01.133-.595c.065-.202.145-.384.24-.546.095-.163.203-.296.323-.4a.577.577 0 01.383-.157c.083 0 .162.014.236.042.074.028.145.064.212.108.068.044.13.093.188.146.058.053.11.103.157.15.116.134.228.293.337.476.11.183.208.388.296.616.088.227.16.473.215.737.056.264.09.545.105.842-.181.014-.345.022-.49.024l-.296.004h.047zm-10.016 5.941c.241 0 .492-.018.751-.055a4.818 4.818 0 002.077-.828c.322-.227.607-.509.856-.845a4.16 4.16 0 00.594-1.183c.149-.452.223-.97.223-1.555 0-.366-.006-.8-.017-1.304a305.93 305.93 0 00-.042-1.614 180.55 180.55 0 00-.06-1.77l-.069-1.781a242.58 242.58 0 00-.18-4.265l-1.364.056a306.526 306.526 0 01.18 4.237c.024.575.047 1.165.07 1.77.023.605.043 1.193.06 1.764.016.57.03 1.106.041 1.607.012.5.017.934.017 1.3 0 .395-.052.746-.156 1.054-.104.309-.244.58-.417.814a2.709 2.709 0 01-.602.595 3.418 3.418 0 01-1.43.588 4.02 4.02 0 01-.608.052 2.722 2.722 0 01-.7-.094 3.177 3.177 0 01-.567-.209 2.989 2.989 0 01-.553-.344 2.395 2.395 0 01-.473-.494 2.388 2.388 0 01-.327-.657 2.665 2.665 0 01-.121-.832 6.202 6.202 0 01.368-2.19c.051-.145.108-.278.17-.4a4.07 4.07 0 01.192-.338l-1.245-.557c-.158.227-.297.51-.418.849a7.737 7.737 0 00-.292 1.085 8.18 8.18 0 00-.139 1.551v.056c0 .44.056.84.167 1.197a3.48 3.48 0 001.158 1.757c.262.21.54.385.832.524a4.678 4.678 0 002.024.46zm-15.193.418c.39-.19.773-.405 1.151-.644.378-.238.738-.5 1.079-.782a9.21 9.21 0 00.946-.905c.29-.32.54-.656.751-1.008.211-.353.376-.718.494-1.096.118-.378.177-.769.177-1.172 0-.204-.016-.413-.048-.626a9.948 9.948 0 00-.122-.65 19.8 19.8 0 00-.16-.668 95.343 95.343 0 01-.17-.672 10.345 10.345 0 00-.175-.636c-.064-.211-.13-.426-.194-.644l-1.322.418c.125.39.243.779.355 1.168.05.19.104.385.16.585.055.2.106.399.153.598.046.2.084.394.115.584.03.19.045.371.045.543 0 .45-.11.886-.327 1.308-.218.422-.507.82-.866 1.196-.36.376-.769.723-1.228 1.04-.46.318-.932.597-1.42.839l.606 1.224zm-.78-4.918c.066-.77.104-1.496.116-2.178.011-.682.017-1.226.017-1.635 0-.677-.007-1.4-.02-2.17a63.584 63.584 0 00-.356-5.064l-1.363.208c.158 1.461.283 3.316.376 5.566.013.384.02.793.02 1.224 0 .357-.004.73-.013 1.12a64.701 64.701 0 01-.147 2.852l1.37.077zm-8.57 0c.065-.77.104-1.496.115-2.178.012-.682.018-1.226.018-1.635 0-.677-.007-1.4-.021-2.17a63.584 63.584 0 00-.355-5.064l-1.364.208c.158 1.461.283 3.316.376 5.566.014.384.021.793.021 1.224 0 .357-.005.73-.014 1.12a64.7 64.7 0 01-.146 2.852l1.37.077zm-5.55-7.653l1.133-1.133-1.14-1.141-1.135 1.134 1.141 1.14zM304.145 24c.38 0 .734-.026 1.061-.077.327-.05.623-.139.887-.264s.497-.292.699-.5c.202-.21.372-.471.511-.787.14-.32.209-.69.209-1.113 0-.074-.002-.148-.007-.222-.032-.515-.153-1.109-.362-1.781a9.033 9.033 0 00-.222-.644 14.062 14.062 0 00-.383-.897 1.712 1.712 0 01-.062-.143l-1.239.612.605 1.489c.098.237.172.463.223.678.051.216.081.385.09.508.01.123.014.215.014.275 0 .111-.007.216-.02.313a1.35 1.35 0 01-.105.369 1.245 1.245 0 01-.348.455c-.139.11-.301.192-.487.247-.185.056-.391.09-.619.101-.227.012-.475.018-.744.018h-.807V24h1.106zm-5.21-6.588l1.127-1.127-1.141-1.14-1.127 1.133 1.14 1.134zm2.852.014l1.127-1.134-1.141-1.134-1.127 1.127 1.14 1.141zM298.15 24c.436 0 .815-.017 1.137-.052.322-.035.604-.088.845-.16a2.598 2.598 0 001.113-.65c.2.254.455.462.765.622.311.16.7.24 1.17.24h.138v-1.363h-.139c-.236 0-.43-.054-.58-.16a1.141 1.141 0 01-.356-.404 1.905 1.905 0 01-.184-.529 4.913 4.913 0 01-.076-.542 21.335 21.335 0 00-.126-1.204 6.534 6.534 0 00-.201-.946l-1.308.369c.102.352.173.665.212.939.04.274.06.543.06.807 0 .278-.047.522-.14.73a1.256 1.256 0 01-.435.522c-.197.14-.452.244-.765.313-.313.07-.69.105-1.13.105h-1.037V24h1.037zm-8.69-7.687l1.135-1.134-1.141-1.14-1.134 1.133 1.14 1.141zM286.519 24c.724 0 1.408-.054 2.052-.163a14.231 14.231 0 001.833-.432c.578-.178 1.126-.38 1.646-.605.52-.225 1.018-.456 1.495-.692.116.297.289.562.519.796.23.235.503.433.82.595.318.162.676.287 1.075.372.4.086.828.129 1.287.129h.146v-1.363h-.146c-.083 0-.195-.004-.334-.01a4.039 4.039 0 01-.459-.053 4.861 4.861 0 01-.511-.115 2.302 2.302 0 01-.494-.202 1.718 1.718 0 01-.41-.313 1.06 1.06 0 01-.254-.448c.213-.107.424-.207.633-.3l.633-.278-.265-1.321c-.287 0-.572-.03-.855-.09a6.842 6.842 0 01-.849-.24 11.25 11.25 0 01-.845-.338 39.2 39.2 0 01-.832-.383c-.25-.116-.498-.23-.744-.34-.246-.112-.487-.21-.723-.296a5.637 5.637 0 00-.7-.206 3.12 3.12 0 00-.678-.076c-.45 0-.877.109-1.283.327-.406.218-.79.545-1.152.98a4.72 4.72 0 00-.33.439c-.095.144-.176.271-.243.383a3.542 3.542 0 00-.213.396l1.253.564a3.686 3.686 0 01.257-.456c.083-.128.183-.264.3-.41.115-.147.246-.283.392-.411.146-.128.305-.233.477-.317.171-.083.352-.125.542-.125.144 0 .302.022.473.066.172.044.354.104.546.178.193.074.392.159.599.254l.636.295c.283.135.57.267.863.397.292.13.598.25.918.362-.529.264-1.064.521-1.607.772-.543.25-1.103.473-1.68.668a13.45 13.45 0 01-1.805.47 10.67 10.67 0 01-1.983.177h-1.001V24h1.001zm-.723 0v-1.363h-.14a2.77 2.77 0 01-.754-.09c-.211-.061-.37-.145-.477-.251a.58.58 0 01-.184-.359 3.758 3.758 0 01-.024-.441v-3.493a48.553 48.553 0 00-.066-2.546c-.021-.403-.047-.776-.077-1.12a10.31 10.31 0 00-.108-.87l-1.363.251c.041.218.077.498.108.839.03.34.055.713.076 1.116.021.404.036.82.045 1.252.01.432.014.847.014 1.245.005.409.007.796.007 1.162 0 .371-.002.7-.007.988a211.315 211.315 0 00-.013.957v.08c0 .11.002.244.006.4a2.686 2.686 0 00.247 1.012c.081.176.198.34.352.494.25.25.555.436.914.556.36.12.795.181 1.305.181h.139zm-11.444 0c.265 0 .543-.012.835-.035.339-.023.684-.06 1.037-.111a14.996 14.996 0 002.059-.449c.32-.095.619-.2.897-.316.278-.116.522-.24.73-.369.219-.14.387-.277.505-.414a1.11 1.11 0 00.236-.407 1.383 1.383 0 00.053-.542 4.954 4.954 0 00-.112-.634 6.504 6.504 0 00-.344-1.053 12.893 12.893 0 00-.435-.933c-.144-.276-.27-.5-.379-.674a8.815 8.815 0 01-.177-.29l-1.155.752a8.29 8.29 0 01.33.525c.09.156.19.334.296.536.107.202.207.414.303.637.095.222.178.448.25.678.072.23.117.449.136.657-.39.218-.81.396-1.263.532-.452.137-.908.245-1.367.324-.459.079-.909.133-1.35.163-.44.03-.844.046-1.21.046-1.298-.005-2.354-.13-3.165-.373-.812-.243-1.331-.592-1.558-1.047a1.365 1.365 0 01-.14-.619c0-.255.056-.535.167-.841a2.687 2.687 0 01.21-.477 5.523 5.523 0 01.243-.4l-1.106-.82c-.01.013-.035.051-.077.114a5.56 5.56 0 00-.344.609 6.33 6.33 0 00-.199.459c-.18.478-.27.937-.27 1.377 0 .44.096.849.291 1.225.343.69.993 1.222 1.948 1.593 1.006.37 2.34.563 4 .577h.125zm-.153 3.624l1.134-1.134-1.14-1.14-1.135 1.133 1.141 1.141zM257.6 24c.241 0 .443-.016.605-.049.983-.18 1.681-.637 2.094-1.37.098-.176.182-.371.254-.584.072-.214.116-.405.132-.574.016-.17.025-.303.025-.4a3.57 3.57 0 00-.042-.53 4.165 4.165 0 00-.25-.903 5.846 5.846 0 00-.53-1.013 8.611 8.611 0 00-.869-1.116 10.844 10.844 0 00-.8-.8c-.269-.241-.517-.46-.744-.654l4.98-2.094-.535-1.266-5.718 2.449-.16 1.426a17.637 17.637 0 012.115 2.02c.296.337.546.652.747.947.202.294.328.537.38.727.064.25.097.484.097.702a1.71 1.71 0 01-.278.946c-.13.195-.309.345-.536.449-.227.104-.478.18-.751.23a5.667 5.667 0 01-.863.083c-.301.007-.591.01-.87.01h-.87V24h2.387zm-5.078-6.414l1.134-1.134-1.141-1.14-1.134 1.133 1.14 1.141zM250.567 24c.682 0 1.254-.07 1.718-.212.464-.142.842-.358 1.134-.65.2.254.455.462.765.622.311.16.7.24 1.169.24h.14v-1.363h-.14c-.236 0-.43-.054-.58-.16a1.141 1.141 0 01-.356-.404 1.905 1.905 0 01-.184-.529 4.913 4.913 0 01-.076-.542 21.335 21.335 0 00-.126-1.204 6.534 6.534 0 00-.201-.946l-1.308.369c.102.352.172.665.212.939.04.274.059.543.059.807 0 .552-.176.968-.529 1.249-.352.28-.918.42-1.697.42h-.257V24h.257zm-5.148 0c.436 0 .815-.017 1.138-.052.322-.035.604-.088.845-.16a2.598 2.598 0 001.113-.65c.2.254.454.462.765.622.31.16.7.24 1.169.24h.139v-1.363h-.14c-.236 0-.43-.054-.58-.16a1.141 1.141 0 01-.355-.404 1.905 1.905 0 01-.184-.529 4.913 4.913 0 01-.077-.542 21.335 21.335 0 00-.125-1.204 6.535 6.535 0 00-.202-.946l-1.308.369c.102.352.173.665.213.939.039.274.059.543.059.807 0 .278-.047.522-.14.73a1.256 1.256 0 01-.434.522c-.197.14-.452.244-.765.313-.313.07-.69.105-1.13.105h-1.037V24h1.036zm.258 3.402l1.126-1.127-1.14-1.141-1.127 1.134 1.14 1.134zm2.852.014l1.127-1.134-1.141-1.134-1.127 1.127 1.14 1.14zM244.66 24v-1.363h-.14c-.278 0-.507-.036-.688-.108a1.244 1.244 0 01-.452-.3 1.755 1.755 0 01-.31-.466 15.476 15.476 0 01-.268-.608c-.18-.422-.35-.827-.51-1.214a3908.258 3908.258 0 01-1.618-3.927l-1.266.529 2.198 5.287a2.64 2.64 0 01-.925.584c-.25.097-.463.154-.637.17a4.617 4.617 0 01-.393.025c-.185 0-.37-.021-.556-.063a3.191 3.191 0 01-.842-.32 4.114 4.114 0 01-.842-.619l-.786 1.106c.394.408.824.725 1.29.95a3.45 3.45 0 001.52.337c.33 0 .627-.02.891-.06a4.2 4.2 0 00.734-.173c.225-.077.436-.173.633-.289.197-.116.393-.25.588-.403a2.4 2.4 0 00.348.358c.134.114.29.212.47.296.178.083.384.15.618.198.234.049.502.073.804.073h.139z"/><path fill="#000000" fill-opacity=".56" d="M14.295 22.296a1.003 1.003 0 001.42 0l3.873-3.874 3.874 3.874a1.003 1.003 0 101.42-1.419l-4.584-4.584a1.001 1.001 0 00-1.42 0l-4.583 4.584a1.001 1.001 0 000 1.419"/></g></g></g></svg>