<svg xmlns="http://www.w3.org/2000/svg" width="200" height="200"><g fill="none" fill-rule="evenodd"><path d="M0 0h200v200H0z"/><g transform="translate(43.832 52.5)"><path fill="#47EAD2" fill-opacity=".48" d="M48.168 35.5c6.627 0 12 5.373 12 12s-5.373 12-12 12-12-5.373-12-12 5.373-12 12-12zm0 2c-5.523 0-10 4.477-10 10s4.477 10 10 10 10-4.477 10-10-4.477-10-10-10z"/><path fill="#EA475B" fill-opacity=".32" d="M66.168 17.5c16.569 0 30 13.431 30 30 0 16.569-13.431 30-30 30-16.569 0-30-13.431-30-30 0-16.569 13.431-30 30-30zm0 18h-18c-6.627 0-12 5.373-12 12s5.373 12 12 12h18c6.627 0 12-5.373 12-12s-5.373-12-12-12z"/><path fill="#EA475B" fill-rule="nonzero" d="M36.668 115.073a.2.2 0 01.193.147l.007.053v2a.2.2 0 01-.393.053l-.007-.053v-2c0-.11.09-.2.2-.2zm59 0a.2.2 0 01.193.147l.007.053v2a.2.2 0 01-.393.053l-.007-.053v-2c0-.11.09-.2.2-.2z"/><path fill="#EA475B" fill-rule="nonzero" d="M95.668 116.073a.2.2 0 01.053.393l-.053.007h-59a.2.2 0 01-.053-.393l.053-.007h59zm-31.447 7.986c.414 0 .748-.135 1.003-.403.255-.269.382-.62.382-1.053 0-.42-.108-.763-.326-1.029-.218-.265-.515-.398-.892-.398-.356 0-.648.12-.876.36.045-.39.186-.692.425-.905.238-.213.556-.322.955-.328h.087v-.59h-.073c-.683 0-1.207.213-1.572.637-.364.423-.546 1.01-.546 1.757v.244c0 .51.132.921.397 1.236.265.314.61.472 1.036.472zm-.006-.575a.608.608 0 01-.516-.28c-.133-.186-.199-.437-.199-.754v-.217a.77.77 0 01.715-.483c.207 0 .373.081.498.243.125.162.187.372.187.63s-.061.466-.184.624a.6.6 0 01-.501.237zm3.348.575c.47 0 .818-.156 1.048-.468.23-.311.344-.774.344-1.387v-.738c-.006-.596-.123-1.043-.353-1.342-.23-.299-.578-.448-1.044-.448-.471 0-.821.153-1.05.46-.23.306-.345.766-.345 1.38v.738c.006.596.126 1.045.359 1.349.233.304.58.456 1.041.456zm0-.569a.56.56 0 01-.524-.293c-.111-.195-.167-.492-.167-.89v-.967c.006-.375.064-.651.173-.828.11-.177.28-.265.513-.265.238 0 .412.093.521.28.11.186.164.48.164.88v.964c-.006.385-.063.668-.173.848-.11.18-.278.271-.507.271z"/><path d="M36.168 104h96v8h-96z"/><path fill="#EA475B" fill-rule="nonzero" d="M36.668 93.073a.2.2 0 01.193.147l.007.053v2a.2.2 0 01-.393.053l-.007-.053v-2c0-.11.09-.2.2-.2zm41 0a.2.2 0 01.193.147l.007.053v2a.2.2 0 01-.393.053l-.007-.053v-2c0-.11.09-.2.2-.2z"/><path fill="#EA475B" fill-rule="nonzero" d="M77.668 94.073a.2.2 0 01.053.393l-.053.007h-41a.2.2 0 01-.053-.393l.053-.007h41zM56.267 102v-.95h.53v-.57h-.53v-2.746h-.736l-1.84 2.883.02.434h1.844V102h.712zm-.712-1.52h-1.117l1.064-1.688.053-.094v1.781zm4.582 1.52v-.568h-1.98l1.042-1.117c.274-.296.47-.562.59-.795.12-.233.18-.457.18-.67 0-.367-.119-.654-.358-.862-.24-.208-.566-.312-.98-.312-.287 0-.54.057-.76.173a1.22 1.22 0 00-.507.484 1.395 1.395 0 00-.177.702h.711c0-.244.064-.436.19-.577.128-.14.307-.21.537-.21.193 0 .347.062.461.187.115.125.172.289.172.492a.928.928 0 01-.13.461 3.538 3.538 0 01-.439.573l-1.42 1.55V102h2.868z"/><path fill="#EA475B" fill-rule="nonzero" d="M36.468 49.524v2a.2.2 0 10.4 0v-2a.2.2 0 00-.4 0zm0 4v2a.2.2 0 10.4 0v-2a.2.2 0 00-.4 0zm0 4v2a.2.2 0 10.4 0v-2a.2.2 0 00-.4 0zm0 4v2a.2.2 0 10.4 0v-2a.2.2 0 00-.4 0zm0 4v2a.2.2 0 10.4 0v-2a.2.2 0 00-.4 0zm0 4v2a.2.2 0 10.4 0v-2a.2.2 0 00-.4 0zm0 4v2a.2.2 0 10.4 0v-2a.2.2 0 00-.4 0zm0 4v2a.2.2 0 10.4 0v-2a.2.2 0 00-.4 0zm0 4v2a.2.2 0 10.4 0v-2a.2.2 0 00-.4 0zm0 4v2a.2.2 0 10.4 0v-2a.2.2 0 00-.4 0zm0 4v2a.2.2 0 10.4 0v-2a.2.2 0 00-.4 0zm0 4v2a.2.2 0 10.4 0v-2a.2.2 0 00-.4 0zm0 4v2a.2.2 0 10.4 0v-2a.2.2 0 00-.4 0zm0 4v2a.2.2 0 00.4 0v-2a.2.2 0 10-.4 0zm0 4v2a.2.2 0 00.4 0v-2a.2.2 0 10-.4 0zm0 4v.952a.2.2 0 10.4 0v-.952a.2.2 0 10-.4 0zm59-60v2a.2.2 0 10.4 0v-2a.2.2 0 10-.4 0zm0 4v2a.2.2 0 10.4 0v-2a.2.2 0 10-.4 0zm0 4v2a.2.2 0 10.4 0v-2a.2.2 0 10-.4 0zm0 4v2a.2.2 0 10.4 0v-2a.2.2 0 10-.4 0zm0 4v2a.2.2 0 10.4 0v-2a.2.2 0 10-.4 0zm0 4v2a.2.2 0 10.4 0v-2a.2.2 0 10-.4 0zm0 4v2a.2.2 0 10.4 0v-2a.2.2 0 10-.4 0zm0 4v2a.2.2 0 10.4 0v-2a.2.2 0 10-.4 0zm0 4v2a.2.2 0 10.4 0v-2a.2.2 0 10-.4 0zm0 4v2a.2.2 0 10.4 0v-2a.2.2 0 10-.4 0zm0 4v2a.2.2 0 10.4 0v-2a.2.2 0 10-.4 0zm0 4v2a.2.2 0 10.4 0v-2a.2.2 0 10-.4 0zm0 4v2a.2.2 0 10.4 0v-2a.2.2 0 10-.4 0zm0 4v2a.2.2 0 00.4 0v-2a.2.2 0 10-.4 0zm0 4v2a.2.2 0 00.4 0v-2a.2.2 0 10-.4 0zm0 4v.952a.2.2 0 10.4 0v-.952a.2.2 0 10-.4 0zM77.468 49v2a.2.2 0 10.4 0v-2a.2.2 0 10-.4 0zm0 4v2a.2.2 0 10.4 0v-2a.2.2 0 10-.4 0zm0 4v2a.2.2 0 10.4 0v-2a.2.2 0 10-.4 0zm0 4v2a.2.2 0 10.4 0v-2a.2.2 0 10-.4 0zm0 4v2a.2.2 0 10.4 0v-2a.2.2 0 10-.4 0zm0 4v2a.2.2 0 10.4 0v-2a.2.2 0 10-.4 0zm0 4v2a.2.2 0 10.4 0v-2a.2.2 0 10-.4 0zm0 4v2a.2.2 0 10.4 0v-2a.2.2 0 10-.4 0zm0 4v2a.2.2 0 10.4 0v-2a.2.2 0 10-.4 0zm0 4v2a.2.2 0 10.4 0v-2a.2.2 0 10-.4 0z"/><path d="M9.668 26.5h4v42h-4z"/><path fill="#EA475B" fill-rule="nonzero" d="M8.668 26.8a.2.2 0 01.193.147l.007.053v40.6a.2.2 0 01-.393.053l-.007-.053V27c0-.11.09-.2.2-.2z"/><path fill="#EA475B" fill-rule="nonzero" d="M9.668 26.8a.2.2 0 01.053.393l-.053.007h-2a.2.2 0 01-.053-.393l.053-.007h2zm0 40.6a.2.2 0 01.053.393l-.053.007h-2a.2.2 0 01-.053-.393l.053-.007h2zM2.575 49.5v-.95h.53v-.57h-.53v-2.746H1.84L0 48.117l.02.434h1.843v.949h.712zm-.712-1.52H.747l1.064-1.688.052-.094v1.781zm4.582 1.52v-.568h-1.98l1.043-1.117c.273-.296.47-.562.59-.795.12-.233.18-.457.18-.67 0-.367-.12-.654-.359-.862-.239-.208-.565-.312-.98-.312-.287 0-.54.057-.76.173a1.22 1.22 0 00-.507.484 1.395 1.395 0 00-.177.702h.712c0-.244.064-.436.19-.577.127-.14.306-.21.537-.21.193 0 .347.062.461.187.114.125.171.289.171.492a.928.928 0 01-.13.461 3.538 3.538 0 01-.438.573l-1.42 1.55v.489h2.867z"/><g fill="#EA475B" fill-rule="nonzero"><path d="M119.668 35.3a.2.2 0 01.053.393l-.053.007h-2a.2.2 0 01-.053-.393l.053-.007h2zm0 24a.2.2 0 01.053.393l-.053.007h-2a.2.2 0 01-.053-.393l.053-.007h2z"/><path d="M118.668 35.3a.2.2 0 01.193.147l.007.053v24a.2.2 0 01-.393.053l-.007-.053v-24c0-.11.09-.2.2-.2zm8.188 14.2v-.568h-1.981l1.043-1.117c.273-.296.47-.562.59-.795.12-.233.18-.457.18-.67 0-.367-.12-.654-.358-.862-.24-.208-.566-.312-.98-.312-.287 0-.54.057-.76.173a1.22 1.22 0 00-.507.484 1.395 1.395 0 00-.178.702h.712c0-.244.064-.436.19-.577.128-.14.306-.21.537-.21.193 0 .347.062.461.187.114.125.172.289.172.492a.928.928 0 01-.13.461 3.538 3.538 0 01-.439.573l-1.42 1.55v.489h2.868zm2.95 0v-.95h.53v-.57h-.53v-2.746h-.736l-1.84 2.883.021.434h1.843v.949h.712zm-.712-1.52h-1.116l1.063-1.688.053-.094v1.781z"/></g><g fill="#EA475B" fill-rule="nonzero"><path d="M102.668 37.3a.2.2 0 01.053.393l-.053.007h-2a.2.2 0 01-.053-.393l.053-.007h2zm0 20a.2.2 0 01.053.393l-.053.007h-2a.2.2 0 01-.053-.393l.053-.007h2z"/><path d="M101.668 37.3a.2.2 0 01.193.147l.007.053v20a.2.2 0 01-.393.053l-.007-.053v-20c0-.11.09-.2.2-.2zm8.188 12.2v-.568h-1.981l1.043-1.117c.273-.296.47-.562.59-.795.12-.233.18-.457.18-.67 0-.367-.12-.654-.358-.862-.24-.208-.566-.312-.98-.312-.287 0-.54.057-.76.173a1.22 1.22 0 00-.507.484 1.395 1.395 0 00-.178.702h.712c0-.244.064-.436.19-.577.128-.14.306-.21.537-.21.193 0 .347.062.461.187.114.125.172.289.172.492a.928.928 0 01-.13.461 3.538 3.538 0 01-.439.573l-1.42 1.55v.489h2.868zm1.93.059c.469 0 .818-.156 1.048-.468.229-.311.344-.774.344-1.387v-.738c-.006-.596-.124-1.043-.353-1.342-.23-.299-.578-.448-1.045-.448-.47 0-.82.153-1.05.46-.23.306-.344.766-.344 1.38v.738c.006.596.125 1.045.359 1.349.233.304.58.456 1.041.456zm0-.569a.56.56 0 01-.524-.293c-.112-.195-.167-.492-.167-.89v-.967c.006-.375.063-.651.173-.828.109-.177.28-.265.512-.265.239 0 .412.093.522.28.11.186.164.48.164.88v.964c-.006.385-.064.668-.173.848-.11.18-.278.271-.507.271z"/></g><path fill="#EA475B" fill-rule="nonzero" d="M114.168 59.3h-2a.2.2 0 100 .4h2a.2.2 0 100-.4zm-4 0h-2a.2.2 0 100 .4h2a.2.2 0 100-.4zm-4 0h-2a.2.2 0 100 .4h2a.2.2 0 100-.4zm-4 0h-2a.2.2 0 100 .4h2a.2.2 0 100-.4zm-4 0h-2a.2.2 0 100 .4h2a.2.2 0 000-.4zm-4 0h-2a.2.2 0 100 .4h2a.2.2 0 000-.4zm-4 0h-2a.2.2 0 100 .4h2a.2.2 0 000-.4zm-4 0h-2a.2.2 0 100 .4h2a.2.2 0 000-.4zm-4 0h-2a.2.2 0 100 .4h2a.2.2 0 000-.4zm-4 0h-2a.2.2 0 100 .4h2a.2.2 0 000-.4zm-4 0h-2a.2.2 0 100 .4h2a.2.2 0 000-.4zm-4 0h-2a.2.2 0 100 .4h2a.2.2 0 000-.4zm-4 0h-2a.2.2 0 100 .4h2a.2.2 0 000-.4zm32-2h-2a.2.2 0 000 .4h2a.2.2 0 100-.4zm-4 0h-2a.2.2 0 000 .4h2a.2.2 0 100-.4zm-4 0h-2a.2.2 0 000 .4h2a.2.2 0 100-.4zm-4 0h-2a.2.2 0 000 .4h2a.2.2 0 100-.4zm-4 0h-2a.2.2 0 000 .4h2a.2.2 0 100-.4zm-4 0h-2a.2.2 0 000 .4h2a.2.2 0 100-.4zm-4 0h-2a.2.2 0 000 .4h2a.2.2 0 100-.4zm-4 0h-2a.2.2 0 000 .4h2a.2.2 0 100-.4zm-4 0h-2a.2.2 0 000 .4h2a.2.2 0 100-.4zm-4 0h-2a.2.2 0 000 .4h2a.2.2 0 100-.4zm-4 0h-2a.2.2 0 000 .4h2a.2.2 0 100-.4zm-4 0h-2a.2.2 0 000 .4h2a.2.2 0 100-.4zm-4 0h-2a.2.2 0 000 .4h2a.2.2 0 100-.4zm48-20h-2a.2.2 0 000 .4h2a.2.2 0 100-.4zm-4 0h-2a.2.2 0 000 .4h2a.2.2 0 100-.4zm-4 0h-2a.2.2 0 000 .4h2a.2.2 0 100-.4zm-4 0h-2a.2.2 0 000 .4h2a.2.2 0 100-.4zm-4 0h-2a.2.2 0 000 .4h2a.2.2 0 100-.4zm-4 0h-2a.2.2 0 000 .4h2a.2.2 0 100-.4zm-4 0h-2a.2.2 0 000 .4h2a.2.2 0 100-.4zm-4 0h-2a.2.2 0 000 .4h2a.2.2 0 100-.4zm-4 0h-2a.2.2 0 000 .4h2a.2.2 0 100-.4zm-4 0h-2a.2.2 0 000 .4h2a.2.2 0 100-.4zm-4 0h-2a.2.2 0 000 .4h2a.2.2 0 100-.4zm-4 0h-2a.2.2 0 000 .4h2a.2.2 0 100-.4zm-4 0h-2a.2.2 0 000 .4h2a.2.2 0 100-.4zm64-2h-2a.2.2 0 100 .4h2a.2.2 0 100-.4zm-4 0h-2a.2.2 0 100 .4h2a.2.2 0 100-.4zm-4 0h-2a.2.2 0 100 .4h2a.2.2 0 100-.4zm-4 0h-2a.2.2 0 100 .4h2a.2.2 0 100-.4zm-4 0h-2a.2.2 0 100 .4h2a.2.2 0 000-.4zm-4 0h-2a.2.2 0 100 .4h2a.2.2 0 000-.4zm-4 0h-2a.2.2 0 100 .4h2a.2.2 0 000-.4zm-4 0h-2a.2.2 0 100 .4h2a.2.2 0 000-.4zm-4 0h-2a.2.2 0 100 .4h2a.2.2 0 000-.4zm-4 0h-2a.2.2 0 100 .4h2a.2.2 0 000-.4zm-4 0h-2a.2.2 0 100 .4h2a.2.2 0 000-.4zm-4 0h-2a.2.2 0 100 .4h2a.2.2 0 000-.4zm-4 0h-2a.2.2 0 100 .4h2a.2.2 0 000-.4z"/><circle cx="26.668" cy="70" r="1" fill="#EA475B"/><path fill="#EA475B" fill-rule="nonzero" d="M26.668 69.8a.2.2 0 01.193.147l.007.053v46a.2.2 0 01-.393.053l-.007-.053V70c0-.11.09-.2.2-.2zm-2.84 54.2v-4.28h-.091l-1.664.612v.6l1.046-.357V124h.709zm2.64.059c.355 0 .639-.13.852-.387l.035.328H28v-4.5h-.712v1.623a1.035 1.035 0 00-.815-.352c-.38 0-.684.148-.911.444-.227.296-.34.688-.34 1.177 0 .513.115.92.344 1.218.23.3.53.449.901.449zm.18-.58a.604.604 0 01-.528-.271c-.124-.181-.186-.433-.186-.755 0-.367.063-.642.188-.825a.608.608 0 01.533-.274c.29 0 .502.127.633.381v1.354a.672.672 0 01-.64.39zm2.805 1.74v-1.503c.209.228.487.343.835.343.375 0 .673-.146.896-.438.223-.292.334-.683.334-1.174v-.044c0-.511-.11-.911-.33-1.2-.22-.287-.522-.432-.91-.432-.359 0-.643.127-.852.381l-.029-.322h-.656v4.389h.712zm.632-1.729c-.293 0-.503-.123-.632-.369v-1.406c.127-.24.336-.36.627-.36.234 0 .414.092.54.278.126.185.19.436.19.753 0 .37-.065.648-.193.83a.614.614 0 01-.532.274z"/><circle cx="48.168" cy="36.5" r="1" fill="#EA475B"/><path fill="#EA475B" fill-rule="nonzero" d="M48.168 8.3a.2.2 0 01.193.147l.007.053v28a.2.2 0 01-.393.053l-.007-.053v-28c0-.11.09-.2.2-.2zm-1.9-3.8v-.568h-1.98l1.043-1.117c.273-.296.47-.562.59-.795.12-.233.18-.457.18-.67 0-.367-.12-.654-.359-.862-.24-.208-.566-.312-.98-.312-.287 0-.54.057-.76.173a1.22 1.22 0 00-.507.484 1.395 1.395 0 00-.177.702h.712c0-.244.063-.436.19-.577.127-.14.306-.21.536-.21.194 0 .348.062.462.187.114.125.171.289.171.492a.928.928 0 01-.13.461 3.538 3.538 0 01-.438.573L43.4 4.01V4.5h2.868zm1.7.059c.355 0 .639-.13.852-.387l.035.328h.645V0h-.712v1.623a1.035 1.035 0 00-.815-.352c-.38 0-.684.148-.911.444-.227.296-.34.688-.34 1.177 0 .513.115.92.344 1.218.23.3.53.449.901.449zm.18-.58a.604.604 0 01-.528-.271c-.124-.181-.186-.433-.186-.755 0-.367.063-.642.188-.825a.608.608 0 01.533-.274c.29 0 .502.127.633.381V3.59a.672.672 0 01-.64.39zm2.805 1.74V4.216c.209.228.487.343.835.343.375 0 .673-.146.896-.438.223-.292.334-.684.334-1.174v-.044c0-.511-.11-.911-.33-1.2-.22-.287-.522-.432-.91-.432-.359 0-.643.127-.852.381l-.029-.322h-.656V5.72h.712zm.632-1.729c-.293 0-.503-.123-.632-.369V2.215c.127-.24.336-.36.627-.36.234 0 .414.092.54.278.126.185.19.436.19.753 0 .37-.065.648-.193.83a.614.614 0 01-.532.274zM45.168 26.8h-2a.2.2 0 100 .4h2a.2.2 0 000-.4zm-4 0h-2a.2.2 0 100 .4h2a.2.2 0 000-.4zm-4 0h-2a.2.2 0 100 .4h2a.2.2 0 000-.4zm-4 0h-2a.2.2 0 100 .4h2a.2.2 0 000-.4zm-4 0h-2a.2.2 0 100 .4h2a.2.2 0 000-.4zm-4 0h-2a.2.2 0 100 .4h2a.2.2 0 000-.4zm-4 0h-2a.2.2 0 100 .4h2a.2.2 0 000-.4zm-4 0h-2a.2.2 0 100 .4h2a.2.2 0 000-.4zm-4 0h-2a.2.2 0 100 .4h2a.2.2 0 000-.4zm32 40.5h-2a.2.2 0 100 .4h2a.2.2 0 000-.4zm-4 0h-2a.2.2 0 100 .4h2a.2.2 0 000-.4zm-4 0h-2a.2.2 0 100 .4h2a.2.2 0 000-.4zm-4 0h-2a.2.2 0 100 .4h2a.2.2 0 000-.4zm-4 0h-2a.2.2 0 100 .4h2a.2.2 0 000-.4zm-4 0h-2a.2.2 0 100 .4h2a.2.2 0 000-.4zm-4 0h-2a.2.2 0 100 .4h2a.2.2 0 000-.4zm-4 0h-2a.2.2 0 100 .4h2a.2.2 0 000-.4zm-4 0h-2a.2.2 0 100 .4h2a.2.2 0 000-.4z"/><path fill="#EA475B" fill-opacity=".12" d="M26.168 23.5h1v48h-1z"/><path fill="#EA475B" fill-opacity=".12" d="M26.168 23.5h1v48h-1z"/></g><g fill="#EA475B" fill-rule="nonzero"><path d="M182 76.8a.2.2 0 01.053.393L182 77.2h-2a.2.2 0 01-.053-.393L180 76.8h2zm0 46a.2.2 0 01.053.393l-.053.007h-2a.2.2 0 01-.053-.393l.053-.007h2z"/><path d="M181 76.8a.2.2 0 01.193.147l.007.053v46a.2.2 0 01-.393.053L180.8 123V77c0-.11.09-.2.2-.2zm7.728 25.2v-.95h.53v-.57h-.53v-2.746h-.736l-1.84 2.883.02.434h1.844V102h.712zm-.712-1.52h-1.117l1.064-1.688.053-.094v1.781zm3.1 1.579c.421 0 .759-.11 1.013-.33.254-.22.38-.517.38-.892 0-.227-.06-.43-.18-.61a1.217 1.217 0 00-.514-.424c.186-.094.332-.222.44-.386a.992.992 0 00.161-.558c0-.363-.117-.651-.352-.864-.234-.213-.551-.32-.952-.32-.398 0-.715.107-.949.32-.234.213-.351.501-.351.864 0 .21.053.395.16.558.106.164.25.292.434.386a1.167 1.167 0 00-.51.419 1.084 1.084 0 00-.181.615c0 .373.127.67.382.89.255.221.594.332 1.018.332zm0-2.535a.56.56 0 01-.433-.172c-.106-.116-.16-.27-.16-.466 0-.198.053-.353.159-.468a.557.557 0 01.43-.17c.182 0 .326.06.434.18.107.12.161.272.161.458 0 .195-.053.35-.16.466a.56.56 0 01-.432.172zm0 1.966c-.216 0-.384-.062-.506-.187a.686.686 0 01-.183-.501c0-.213.062-.384.186-.513a.657.657 0 01.496-.193c.207 0 .374.065.5.195s.189.3.189.51c0 .218-.06.386-.18.508-.12.12-.288.181-.503.181z"/></g></g></svg>