<svg xmlns="http://www.w3.org/2000/svg" width="200" height="200"><g fill="none" fill-rule="evenodd"><path d="M0 0h200v200H0z"/><circle cx="100" cy="109" r="1" fill="#EA475B"/><path fill="#EA475B" fill-rule="nonzero" d="M100 108.8a.2.2 0 01.193.147l.007.053v30a.2.2 0 01-.393.053L99.8 139v-30c0-.11.09-.2.2-.2zM93.273 147v-.568h-1.98l1.043-1.117c.273-.296.47-.562.59-.795.12-.233.18-.457.18-.67 0-.367-.12-.654-.358-.862-.24-.208-.566-.312-.98-.312-.288 0-.54.057-.76.173a1.22 1.22 0 00-.508.484 1.395 1.395 0 00-.177.702h.712c0-.244.064-.436.19-.577.128-.14.306-.21.537-.21.193 0 .347.062.461.187.114.125.172.289.172.492a.928.928 0 01-.13.461 3.538 3.538 0 01-.439.573l-1.42 1.55V147h2.867zm1.931.059c.469 0 .818-.156 1.047-.468.23-.311.345-.774.345-1.387v-.738c-.006-.596-.124-1.043-.353-1.342-.23-.299-.578-.448-1.045-.448-.47 0-.82.153-1.05.46-.23.306-.344.766-.344 1.38v.738c.006.596.125 1.045.359 1.349.233.304.58.456 1.041.456zm0-.569a.56.56 0 01-.524-.293c-.112-.195-.167-.492-.167-.89v-.967c.006-.375.063-.651.173-.828.109-.177.28-.265.512-.265.239 0 .412.093.522.28.11.186.164.48.164.88v.964c-.006.385-.064.668-.173.848-.11.18-.278.271-.507.271zm5.704-.117l.434-.44-.926-.943.926-.943-.434-.44-.926.944-.922-.944-.434.44.926.943-.926.944.434.439.922-.94.926.94zm5.373.627v-.568h-1.98l1.043-1.117c.273-.296.47-.562.59-.795.12-.233.18-.457.18-.67 0-.367-.12-.654-.359-.862-.239-.208-.566-.312-.98-.312-.287 0-.54.057-.76.173a1.22 1.22 0 00-.507.484 1.395 1.395 0 00-.177.702h.712c0-.244.063-.436.19-.577.127-.14.306-.21.537-.21.193 0 .347.062.461.187.114.125.171.289.171.492a.928.928 0 01-.13.461 3.538 3.538 0 01-.438.573l-1.42 1.55V147h2.867zm1.93.059c.47 0 .819-.156 1.048-.468.23-.311.345-.774.345-1.387v-.738c-.006-.596-.124-1.043-.354-1.342-.229-.299-.577-.448-1.044-.448-.47 0-.82.153-1.05.46-.23.306-.344.766-.344 1.38v.738c.005.596.125 1.045.358 1.349.234.304.581.456 1.042.456zm0-.569a.56.56 0 01-.523-.293c-.112-.195-.167-.492-.167-.89v-.967c.005-.375.063-.651.172-.828.11-.177.28-.265.513-.265.238 0 .412.093.522.28.109.186.164.48.164.88v.964c-.006.385-.064.668-.173.848-.11.18-.279.271-.507.271z"/><circle cx="100" cy="100" r="1" fill="#EA475B"/><path fill="#EA475B" fill-rule="nonzero" d="M100 70.8a.2.2 0 01.193.147l.007.053v29a.2.2 0 01-.393.053L99.8 100V71c0-.11.09-.2.2-.2zM92.333 67v-4.28h-.09l-1.665.612v.6l1.046-.357V67h.709zm2.871.059c.469 0 .818-.156 1.047-.468.23-.311.345-.774.345-1.387v-.738c-.006-.596-.124-1.043-.353-1.342-.23-.299-.578-.448-1.045-.448-.47 0-.82.153-1.05.46-.23.306-.344.766-.344 1.38v.738c.006.596.125 1.045.359 1.349.233.304.58.456 1.041.456zm0-.569a.56.56 0 01-.524-.293c-.112-.195-.167-.492-.167-.89v-.967c.006-.375.063-.651.173-.828.109-.177.28-.265.512-.265.239 0 .412.093.522.28.11.186.164.48.164.88v.964c-.006.385-.064.668-.173.848-.11.18-.278.271-.507.271zm5.704-.117l.434-.44-.926-.943.926-.943-.434-.44-.926.944-.922-.944-.434.44.926.943-.926.944.434.439.922-.94.926.94zm4.433.627v-4.28h-.091l-1.664.612v.6l1.046-.357V67h.709zm2.87.059c.47 0 .819-.156 1.048-.468.23-.311.345-.774.345-1.387v-.738c-.006-.596-.124-1.043-.354-1.342-.229-.299-.577-.448-1.044-.448-.47 0-.82.153-1.05.46-.23.306-.344.766-.344 1.38v.738c.005.596.125 1.045.358 1.349.234.304.581.456 1.042.456zm0-.569a.56.56 0 01-.523-.293c-.112-.195-.167-.492-.167-.89v-.967c.005-.375.063-.651.172-.828.11-.177.28-.265.513-.265.238 0 .412.093.522.28.109.186.164.48.164.88v.964c-.006.385-.064.668-.173.848-.11.18-.279.271-.507.271z"/><path d="M26 76h16v4H26z"/><path fill="#EA475B" fill-rule="nonzero" d="M149 80.8a.2.2 0 01.053.393L149 81.2h-2a.2.2 0 01-.053-.393L147 80.8h2zm0 38a.2.2 0 01.053.393l-.053.007h-2a.2.2 0 01-.053-.393l.053-.007h2z"/><path fill="#EA475B" fill-rule="nonzero" d="M148 80.8a.2.2 0 01.193.147l.007.053v38a.2.2 0 01-.393.053L147.8 119V81c0-.11.09-.2.2-.2zm7.728 21.2v-.95h.53v-.57h-.53v-2.746h-.736l-1.84 2.883.02.434h1.844V102h.712zm-.712-1.52h-1.117l1.064-1.688.053-.094v1.781zm3.102 1.579c.469 0 .818-.156 1.048-.468.229-.311.344-.774.344-1.387v-.738c-.006-.596-.124-1.043-.353-1.342-.23-.299-.578-.448-1.045-.448-.47 0-.82.153-1.05.46-.23.306-.344.766-.344 1.38v.738c.006.596.125 1.045.359 1.349.233.304.58.456 1.041.456zm0-.569a.56.56 0 01-.524-.293c-.112-.195-.167-.492-.167-.89v-.967c.006-.375.063-.651.173-.828.109-.177.28-.265.512-.265.239 0 .412.093.522.28.11.186.164.48.164.88v.964c-.006.385-.064.668-.173.848-.11.18-.278.271-.507.271zM128 82.8a.2.2 0 01.053.393L128 83.2h-2a.2.2 0 01-.053-.393L126 82.8h2zm0 34a.2.2 0 01.053.393l-.053.007h-2a.2.2 0 01-.053-.393l.053-.007h2z"/><path fill="#EA475B" fill-rule="nonzero" d="M127 82.8a.2.2 0 01.193.147l.007.053v34a.2.2 0 01-.393.053L126.8 117V83c0-.11.09-.2.2-.2zm6.632 19.259c.428 0 .773-.114 1.035-.34.263-.227.395-.531.395-.914 0-.239-.062-.444-.184-.616a1.047 1.047 0 00-.534-.377c.193-.086.35-.214.473-.383a.906.906 0 00.183-.54c0-.381-.122-.679-.365-.892-.243-.214-.577-.321-1.003-.321-.258 0-.49.05-.699.15-.208.101-.37.241-.486.421-.116.18-.175.379-.175.598h.712c0-.178.062-.322.185-.432a.68.68 0 01.472-.166c.218 0 .381.056.487.169.107.112.16.27.16.473 0 .21-.064.372-.192.483-.128.111-.301.168-.52.17h-.433v.562h.419c.261 0 .459.061.591.182.133.121.2.294.2.519 0 .222-.064.392-.19.51-.128.117-.302.175-.522.175-.213 0-.383-.058-.509-.176a.596.596 0 01-.189-.457h-.712c0 .364.131.655.393.873.262.22.598.329 1.008.329zm3.554 0c.414 0 .748-.135 1.003-.403.255-.269.382-.62.382-1.053 0-.42-.109-.763-.326-1.029-.218-.265-.516-.398-.892-.398-.356 0-.648.12-.876.36.044-.39.186-.692.424-.905.239-.213.557-.322.955-.328h.088v-.59h-.073c-.684 0-1.207.213-1.572.637-.364.423-.546 1.01-.546 1.757v.244c0 .51.132.921.397 1.236.265.314.61.472 1.036.472zm-.006-.575a.608.608 0 01-.516-.28c-.133-.186-.2-.437-.2-.754v-.217a.77.77 0 01.716-.483c.207 0 .373.081.498.243.125.162.187.372.187.63s-.061.466-.184.624a.6.6 0 01-.501.237zM123.5 82.8h-2a.2.2 0 100 .4h2a.2.2 0 100-.4zm-4 0h-2a.2.2 0 100 .4h2a.2.2 0 100-.4zm-4 0h-2a.2.2 0 100 .4h2a.2.2 0 100-.4zm-4 0h-2a.2.2 0 100 .4h2a.2.2 0 100-.4zm-4 0h-2a.2.2 0 100 .4h2a.2.2 0 100-.4zm-4 0h-2a.2.2 0 100 .4h2a.2.2 0 100-.4zm20 34h-2a.2.2 0 100 .4h2a.2.2 0 100-.4zm-4 0h-2a.2.2 0 100 .4h2a.2.2 0 100-.4zm-4 0h-2a.2.2 0 100 .4h2a.2.2 0 100-.4zm-4 0h-2a.2.2 0 100 .4h2a.2.2 0 100-.4zm-4 0h-2a.2.2 0 100 .4h2a.2.2 0 100-.4zm-4 0h-2a.2.2 0 100 .4h2a.2.2 0 100-.4z"/></g></svg>