<svg xmlns="http://www.w3.org/2000/svg" xmlns:xlink="http://www.w3.org/1999/xlink" width="422" height="344"><defs><linearGradient id="h" x1="50.001%" x2="50.001%" y1="100%" y2="0%"><stop offset="0%" stop-color="#F4E683" stop-opacity=".64"/><stop offset="100%" stop-color="#F4E683" stop-opacity="0"/></linearGradient><linearGradient id="i" x1="50.001%" x2="50.001%" y1="100%" y2="0%"><stop offset="0%" stop-color="#F4E683" stop-opacity=".64"/><stop offset="100%" stop-color="#F4E683" stop-opacity="0"/></linearGradient><linearGradient id="j" x1="50.001%" x2="50.001%" y1="100%" y2="0%"><stop offset="0%" stop-color="#F4E683" stop-opacity=".64"/><stop offset="100%" stop-color="#F4E683" stop-opacity="0"/></linearGradient><linearGradient id="k" x1="50.001%" x2="50.001%" y1="100%" y2="0%"><stop offset="0%" stop-color="#F4E683" stop-opacity=".64"/><stop offset="100%" stop-color="#F4E683" stop-opacity="0"/></linearGradient><linearGradient id="l" x1="50.001%" x2="50.001%" y1="100%" y2="0%"><stop offset="0%" stop-color="#F4E683" stop-opacity=".64"/><stop offset="100%" stop-color="#F4E683" stop-opacity="0"/></linearGradient><linearGradient id="m" x1="50.001%" x2="50.001%" y1="100%" y2="0%"><stop offset="0%" stop-color="#F4E683" stop-opacity=".64"/><stop offset="100%" stop-color="#F4E683" stop-opacity="0"/></linearGradient><linearGradient id="p" x1="50%" x2="100%" y1="50%" y2="50%"><stop offset="0%" stop-color="#FFF"/><stop offset="100%" stop-color="#FFF" stop-opacity="0"/></linearGradient><filter id="d" width="113.9%" height="117.6%" x="-6.9%" y="-7.4%" filterUnits="objectBoundingBox"><feOffset dy="4" in="SourceAlpha" result="shadowOffsetOuter1"/><feGaussianBlur in="shadowOffsetOuter1" result="shadowBlurOuter1" stdDeviation="8"/><feColorMatrix in="shadowBlurOuter1" values="0 0 0 0 0 0 0 0 0 0 0 0 0 0 0 0 0 0 0.12 0"/></filter><filter id="f" width="110.7%" height="113.5%" x="-5.3%" y="-5.4%" filterUnits="objectBoundingBox"><feOffset dy="2" in="SourceAlpha" result="shadowOffsetOuter1"/><feGaussianBlur in="shadowOffsetOuter1" result="shadowBlurOuter1" stdDeviation="4"/><feColorMatrix in="shadowBlurOuter1" result="shadowMatrixOuter1" values="0 0 0 0 0 0 0 0 0 0 0 0 0 0 0 0 0 0 0.08 0"/><feOffset dy="4" in="SourceAlpha" result="shadowOffsetOuter2"/><feGaussianBlur in="shadowOffsetOuter2" result="shadowBlurOuter2" stdDeviation="6"/><feColorMatrix in="shadowBlurOuter2" result="shadowMatrixOuter2" values="0 0 0 0 0 0 0 0 0 0 0 0 0 0 0 0 0 0 0.04 0"/><feOffset in="SourceAlpha" result="shadowOffsetOuter3"/><feGaussianBlur in="shadowOffsetOuter3" result="shadowBlurOuter3" stdDeviation="2"/><feColorMatrix in="shadowBlurOuter3" result="shadowMatrixOuter3" values="0 0 0 0 0 0 0 0 0 0 0 0 0 0 0 0 0 0 0.04 0"/><feMerge><feMergeNode in="shadowMatrixOuter1"/><feMergeNode in="shadowMatrixOuter2"/><feMergeNode in="shadowMatrixOuter3"/></feMerge></filter><filter id="n" width="101.9%" height="110.9%" x="-.9%" y="-3.9%" filterUnits="objectBoundingBox"><feOffset dy="1" in="SourceAlpha" result="shadowOffsetOuter1"/><feGaussianBlur in="shadowOffsetOuter1" result="shadowBlurOuter1" stdDeviation="1"/><feComposite in="shadowBlurOuter1" in2="SourceAlpha" operator="out" result="shadowBlurOuter1"/><feColorMatrix in="shadowBlurOuter1" values="0 0 0 0 0 0 0 0 0 0 0 0 0 0 0 0 0 0 0.12 0"/></filter><filter id="q" width="194.6%" height="431.2%" x="-47.3%" y="-128.1%" filterUnits="objectBoundingBox"><feMorphology in="SourceAlpha" radius="4" result="shadowSpreadOuter1"/><feOffset dy="12" in="shadowSpreadOuter1" result="shadowOffsetOuter1"/><feGaussianBlur in="shadowOffsetOuter1" result="shadowBlurOuter1" stdDeviation="15"/><feComposite in="shadowBlurOuter1" in2="SourceAlpha" operator="out" result="shadowBlurOuter1"/><feColorMatrix in="shadowBlurOuter1" result="shadowMatrixOuter1" values="0 0 0 0 0.917647059 0 0 0 0 0.278431373 0 0 0 0 0.356862745 0 0 0 0.12 0"/><feMorphology in="SourceAlpha" operator="dilate" radius="1" result="shadowSpreadOuter2"/><feOffset dy="16" in="shadowSpreadOuter2" result="shadowOffsetOuter2"/><feGaussianBlur in="shadowOffsetOuter2" result="shadowBlurOuter2" stdDeviation="12"/><feComposite in="shadowBlurOuter2" in2="SourceAlpha" operator="out" result="shadowBlurOuter2"/><feColorMatrix in="shadowBlurOuter2" result="shadowMatrixOuter2" values="0 0 0 0 0.917647059 0 0 0 0 0.278431373 0 0 0 0 0.356862745 0 0 0 0.14 0"/><feMorphology in="SourceAlpha" radius="6" result="shadowSpreadOuter3"/><feOffset dy="14" in="shadowSpreadOuter3" result="shadowOffsetOuter3"/><feGaussianBlur in="shadowOffsetOuter3" result="shadowBlurOuter3" stdDeviation="10"/><feComposite in="shadowBlurOuter3" in2="SourceAlpha" operator="out" result="shadowBlurOuter3"/><feColorMatrix in="shadowBlurOuter3" result="shadowMatrixOuter3" values="0 0 0 0 0.917647059 0 0 0 0 0.278431373 0 0 0 0 0.356862745 0 0 0 0.32 0"/><feMerge><feMergeNode in="shadowMatrixOuter1"/><feMergeNode in="shadowMatrixOuter2"/><feMergeNode in="shadowMatrixOuter3"/></feMerge></filter><path id="c" d="M8 0h359a8 8 0 018 8v288H0V8a8 8 0 018-8z"/><path id="g" d="M8 0h359a8 8 0 018 8v288H0V8a8 8 0 018-8z"/><path id="o" d="M0 0h375v64H0z"/><rect id="a" width="422" height="344" x="0" y="0" rx="4"/><rect id="r" width="112" height="32" x="0" y="0" rx="4"/></defs><g fill="none" fill-rule="evenodd"><mask id="b" fill="#fff"><use xlink:href="#a"/></mask><use fill="#000" fill-opacity="0" xlink:href="#a"/><g mask="url(#b)"><g transform="translate(24 48)"><mask id="e" fill="#fff"><use xlink:href="#c"/></mask><use fill="#000" filter="url(#d)" xlink:href="#c"/><g mask="url(#e)"><use fill="#000" filter="url(#f)" xlink:href="#g"/><use fill="#FFF" xlink:href="#g"/></g><rect width="342" height="183" x="16.5" y="129.5" stroke="#000000" stroke-opacity=".24" mask="url(#e)" rx="4"/><g mask="url(#e)"><path fill="#57A07E" d="M168.495 245.48c0 1.417-1.167 2.567-2.607 2.567-1.44 0-2.607-1.15-2.607-2.568 0-1.418 1.167-2.567 2.607-2.567 1.44 0 2.607 1.15 2.607 2.567"/><path fill="#57A07E" d="M175.925 244.34c0 2.416-1.989 4.376-4.442 4.376-2.454 0-4.443-1.96-4.443-4.377 0-2.416 1.99-4.375 4.443-4.375 2.453 0 4.442 1.959 4.442 4.375"/><path fill="#F4E6D5" d="M119.778 330.913h11.632v-44.132h-11.632zM142.352 330.913h9.269v-67.249h-9.269zM248.189 330.913h11.496v-39.929h-11.496zM233.266 330.913h10.615v-64.097h-10.615z"/><path fill="#F29499" d="M172.318 250.808h14.206v-13.995h-14.206z"/><path fill="#9A443F" d="M175.451 242.227h7.939v-1.643h-7.939z"/><path fill="#E3CCA1" d="M151.476 283.443h27.986v-39.199h-27.986z"/><path fill="#9A443F" d="M157.244 252.194h2.278v-1.648h-2.278zM161.557 252.194h2.278v-1.648h-2.278zM165.92 252.194h2.277v-1.648h-2.277zM157.244 257.332h2.278v-1.647h-2.278zM161.557 257.332h2.278v-1.647h-2.278zM165.92 257.332h2.277v-1.647h-2.277zM157.244 262.197h2.278v-1.647h-2.278zM161.557 262.197h2.278v-1.647h-2.278zM165.92 262.197h2.277v-1.647h-2.277z"/><path fill="#57A07E" d="M155.74 282.533c0 3.378-2.78 6.116-6.21 6.116-3.428 0-6.208-2.738-6.208-6.116 0-3.378 2.78-6.116 6.209-6.116s6.208 2.738 6.208 6.116"/><path fill="#57A07E" d="M159.896 277.742c0 2.473-2.035 4.477-4.544 4.477-2.51 0-4.545-2.004-4.545-4.477 0-2.472 2.035-4.476 4.545-4.476s4.544 2.004 4.544 4.476"/><path fill="#57A07E" d="M162.15 273.068c0 1.85-1.521 3.35-3.399 3.35-1.878 0-3.4-1.5-3.4-3.35s1.522-3.348 3.4-3.348 3.4 1.499 3.4 3.348m14.25-6.697c0 1.85-1.523 3.349-3.4 3.349-1.878 0-3.4-1.5-3.4-3.35 0-1.849 1.522-3.348 3.4-3.348 1.877 0 3.4 1.5 3.4 3.349"/><path fill="#57A07E" d="M175.172 270.861c0 3.66-3.42 6.626-7.638 6.626s-7.638-2.966-7.638-6.626 3.42-6.625 7.638-6.625c4.219 0 7.638 2.966 7.638 6.625"/><path fill="#D77E68" d="M131.41 330.913h18.612v-52.539H131.41z"/><path fill="#912B34" d="M135.118 290.175h3.781v-6.063h-3.781z"/><path fill="#DABA9A" d="M135.118 291.226h3.781v-1.051h-3.781z"/><path fill="#F68871" d="M208.959 263.844h16.625v-8.833h-16.625z"/><path fill="#57A07E" d="M213.376 263.336c0 1.418 1.167 2.568 2.607 2.568 1.439 0 2.606-1.15 2.606-2.568 0-1.418-1.167-2.567-2.606-2.567-1.44 0-2.607 1.15-2.607 2.567"/><path fill="#57A07E" d="M205.946 262.196c0 2.417 1.989 4.376 4.442 4.376 2.453 0 4.442-1.959 4.442-4.376 0-2.416-1.989-4.375-4.442-4.375-2.453 0-4.442 1.959-4.442 4.375"/><path fill="#CC624C" d="M208.959 299.955h24.307v-36.167h-24.307z"/><path fill="#912B34" d="M221.997 274.96h-4.171v-3.245c0-1.134.933-2.054 2.085-2.054s2.086.92 2.086 2.054v3.245z"/><path fill="#EB9581" d="M217.826 276.011h4.171v-1.051h-4.171z"/><path fill="#912B34" d="M228.928 274.96h-4.171v-3.245c0-1.134.934-2.054 2.085-2.054 1.152 0 2.086.92 2.086 2.054v3.245z"/><path fill="#EB9581" d="M224.757 276.011h4.171v-1.051h-4.171z"/><path fill="#AB5645" d="M210.952 299.955h17.976v-22.257h-17.976z"/><path fill="#E37962" d="M186.524 255.011h30.457v-24.804h-30.457z"/><path fill="#912B34" d="M190.81 243.057h21.885v-1.66H190.81zM190.81 238.474h21.885v-1.661H190.81z"/><path fill="#952731" d="M172.317 250.737l36.642-6.397v29.459h-36.642z"/><path fill="#750A15" d="M180.557 256.395h3.199v-2.769h-3.199z"/><path fill="#C84A56" d="M180.557 257.446h3.199v-1.051h-3.199z"/><path fill="#750A15" d="M188.752 256.395h3.199v-2.769h-3.199z"/><path fill="#C84A56" d="M188.752 257.446h3.199v-1.051h-3.199z"/><path fill="#750A15" d="M196.798 256.395h3.199v-2.769h-3.199z"/><path fill="#C84A56" d="M196.798 257.446h3.199v-1.051h-3.199z"/><path fill="#750A15" d="M180.557 266.906h3.199v-2.769h-3.199z"/><path fill="#C84A56" d="M180.557 267.957h3.199v-1.051h-3.199z"/><path fill="#750A15" d="M188.752 266.906h3.199v-2.769h-3.199z"/><path fill="#C84A56" d="M188.752 267.957h3.199v-1.051h-3.199z"/><path fill="#750A15" d="M196.798 266.906h3.199v-2.769h-3.199z"/><path fill="#C84A56" d="M196.798 267.957h3.199v-1.051h-3.199zM172.318 261.17h36.641v-1.051h-36.641z"/><path fill="#C23A48" d="M178.14 269.08h-12.124l-18.514 17.761v32.006h30.638z"/><path fill="#991D22" d="M156.08 287.558h3.781v-3.725h-3.781zM165.823 287.558h3.78v-3.725h-3.78zM165.823 279.56h3.78v-3.724h-3.78zM156.08 297.687h3.781v-3.724h-3.781z"/><path fill="#000" opacity=".12" d="M173.194 291.703h4.946v-19.265h-4.946z"/><path fill="#57A07E" d="M203.619 270.325c0 3.165-2.604 5.73-5.817 5.73-3.212 0-5.816-2.565-5.816-5.73 0-3.164 2.604-5.73 5.816-5.73 3.213 0 5.817 2.566 5.817 5.73"/><path fill="#57A07E" d="M207.536 273.24c0 1.766-1.452 3.197-3.244 3.197-1.792 0-3.245-1.431-3.245-3.196 0-1.766 1.453-3.197 3.245-3.197s3.244 1.431 3.244 3.197"/><path fill="#57A07E" d="M207.536 277.351c0 2.723-2.241 4.931-5.005 4.931-2.765 0-5.006-2.208-5.006-4.931s2.241-4.931 5.006-4.931c2.764 0 5.005 2.208 5.005 4.931"/><path fill="#57A07E" d="M213.824 276.547c0 2.434-2.002 4.407-4.473 4.407-2.47 0-4.472-1.973-4.472-4.407 0-2.433 2.002-4.406 4.472-4.406 2.47 0 4.473 1.973 4.473 4.406"/><path fill="#57A07E" d="M219.298 280.461c0 2.434-2.002 4.407-4.473 4.407-2.47 0-4.473-1.973-4.473-4.407 0-2.433 2.003-4.406 4.473-4.406 2.47 0 4.473 1.973 4.473 4.406"/><path fill="#57A07E" d="M221.77 280.954c0 1.454-1.197 2.633-2.673 2.633-1.477 0-2.674-1.179-2.674-2.633 0-1.455 1.197-2.634 2.674-2.634 1.476 0 2.673 1.18 2.673 2.634"/><path fill="#57A07E" d="M224.193 283.587c0 1.455-1.197 2.634-2.673 2.634-1.477 0-2.673-1.18-2.673-2.634s1.196-2.633 2.673-2.633c1.476 0 2.673 1.179 2.673 2.633"/><path fill="#DAB955" d="M216.981 279.743h-42.022v-5.944h38.968z"/><path fill="#E6CA9F" d="M174.959 291.703h35.993v-11.96h-35.993z"/><path fill="#9A443F" d="M178.158 285.562h26.779v-4.387h-26.779zM179.764 291.703h2.865v-3.962h-2.865z"/><path fill="#000" opacity=".12" d="M174.959 291.703h6.398v-17.904h-6.398z"/><path fill="#D05959" d="M186.524 304.369h38.236v-16.947h-38.236z"/><path fill="#EB9581" d="M197.144 288.056h27.616v-1.051h-27.616z"/><path fill="#D05959" d="M197.144 287.005h27.616v-4.813h-27.616z"/><path fill="#912B34" d="M215.754 294.486h4.144v-3.68h-4.144z"/><path fill="#EB9581" d="M215.754 295.536h4.144v-1.05h-4.144z"/><path fill="#8A2F27" d="M186.524 304.369h7.071v-15.061h-7.071zM193.608 304.369h5.998v-10.716h-5.998z"/><path fill="#539979" d="M242.087 313.244c-3.613 0-6.543-2.886-6.543-6.445v-14.42c0-3.56 2.93-6.446 6.543-6.446 3.614 0 6.543 2.886 6.543 6.446v14.42c0 3.56-2.929 6.445-6.543 6.445"/><path fill="#000" d="M244.171 312.096c-3.613 0-6.543-2.886-6.543-6.446v-14.419c0-1.995.92-3.778 2.366-4.961-2.587.86-4.45 3.269-4.45 6.107v14.42c0 3.56 2.93 6.445 6.543 6.445a6.575 6.575 0 004.177-1.485 6.625 6.625 0 01-2.093.339" opacity=".12"/><path fill="#E4AC7A" d="M256.095 330.913v-23.07l-31.335-12.656v35.726z"/><path fill="#000" opacity=".32" d="M224.76 295.187v35.725l7.726.001v-32.605z"/><path fill="#F6C43F" d="M182.156 273.807h16.48v-3.67h-16.48z"/><path fill="#F8D553" d="M190.374 258.153c6.83 2.435 9.552 7.257 8.195 11.984H182.134c-1.357-4.727 1.366-9.55 8.196-11.984"/><path fill="#000" opacity=".12" d="M182.156 273.807h2.825v-3.67h-2.825zM190.396 258.16h-.087c-6.814 2.438-9.53 7.255-8.175 11.977h2.847s-2.776-6.842 5.415-11.976"/><path fill="#000" fill-opacity=".12" d="M211.46 255.011h-2.501v-9.43l2.501-.716z"/><path fill="#000" opacity=".12" d="M208.959 263.784h4.402v-8.773h-4.402zM147.502 289.722l-4.387 2.911v14.947l4.387-3.068zM186.524 295.714h5.915v-4.738h-5.915zM192.439 304.424h5.869v-9.552h-5.869z"/><path fill="#CCA876" d="M161.656 295.714h29.297v-4.011h-29.297z"/><path fill="#E6CA9F" d="M158.31 330.913h38.435v-35.726H158.31z"/><path fill="url(#h)" d="M35.878 109.405h3.781V42.847h-3.781z" transform="translate(109.277 209.442)"/><path fill="url(#i)" d="M58.174 86.272h3.78V22.2h-3.78z" transform="translate(109.277 209.442)"/><path fill="url(#j)" d="M98.305 72.75h3.781V14.523h-3.781z" transform="translate(109.277 209.442)"/><path fill="url(#k)" d="M121.319 121.471h3.781V34.257h-3.781z" transform="translate(109.277 209.442)"/><path fill="url(#l)" d="M129.664 33.9v58.022l2.527 1.01V33.9z" transform="translate(109.277 209.442)"/><path fill="url(#m)" d="M76.422 0v38.959l2.526-.441V0z" transform="translate(109.277 209.442)"/><path fill="#EED3AE" d="M170.968 218.79c-2.53 0-4.58-2.02-4.58-4.513 0 2.492-2.051 4.513-4.581 4.513 2.53 0 4.58 2.02 4.58 4.511 0-2.492 2.05-4.511 4.58-4.511m-27.624 30.758c-2.101 0-3.805-1.678-3.805-3.747 0 2.07-1.703 3.747-3.805 3.747 2.102 0 3.805 1.679 3.805 3.749 0-2.07 1.704-3.749 3.805-3.749M249.91 228.19c-2.958 0-5.355-2.362-5.355-5.276 0 2.914-2.398 5.276-5.356 5.276 2.958 0 5.356 2.362 5.356 5.276 0-2.914 2.397-5.276 5.355-5.276m-15.402 18.594c-1.432 0-2.593-1.144-2.593-2.555 0 1.41-1.16 2.555-2.593 2.555 1.432 0 2.593 1.143 2.593 2.554 0-1.41 1.161-2.554 2.593-2.554m-98.405-13.107c-1.432 0-2.594-1.143-2.594-2.554 0 1.41-1.16 2.554-2.592 2.554 1.432 0 2.592 1.144 2.592 2.555 0-1.411 1.162-2.555 2.594-2.555"/></g><path fill="#000000" fill-opacity=".56" fill-rule="nonzero" d="M229.398 164.195l1.823-.278.056-1.166c.018-.415.032-.862.041-1.342a103.028 103.028 0 00.007-3.37c-.01-.77-.037-1.558-.083-2.362a35.164 35.164 0 00-.244-2.536l-1.788.584c.08.765.142 1.567.188 2.404.047.837.088 1.73.125 2.681.014.413.021.856.021 1.33 0 1.172-.048 2.524-.146 4.055zm-10.796.014a12.267 12.267 0 002.633-.33c.837-.202 1.64-.45 2.41-.745.77-.295 1.507-.616 2.212-.964.705-.347 1.382-.677 2.032-.987l.146-1.795a4.372 4.372 0 01-1.113-.157c-.362-.1-.72-.222-1.075-.368a20.271 20.271 0 01-1.054-.47 24.027 24.027 0 00-1.04-.47 8.11 8.11 0 00-1.047-.361 4.07 4.07 0 00-1.064-.143c-.348 0-.677.062-.988.184-.31.123-.6.288-.866.494-.267.207-.51.441-.727.703a5.536 5.536 0 00-.564.81l1.447.94c.019-.033.051-.089.098-.167a3.868 3.868 0 01.428-.577c.095-.107.202-.205.323-.293.12-.088.252-.161.393-.22a1.19 1.19 0 01.456-.086c.278 0 .559.051.841.153.283.102.578.223.884.362.306.139.63.281.974.428.343.146.714.263 1.113.35-.501.247-1.032.486-1.593.717-.561.232-1.136.437-1.725.616-.59.179-1.182.322-1.778.431a9.751 9.751 0 01-1.756.164h-1.51v1.78h1.51zm4.23 3.582l1.335-1.335-1.336-1.329-1.328 1.329 1.328 1.335zm-5.462-3.582v-1.781h-.313c-.18 0-.34-.019-.476-.056a.69.69 0 01-.522-.508 1.726 1.726 0 01-.052-.445v-.111c0-.144.001-.285.003-.425l.004-.21.003-.214.007-.449a33.426 33.426 0 00-.003-1.224 46.685 46.685 0 01-.007-.783 36.443 36.443 0 00-.097-2.636c-.033-.44-.07-.855-.112-1.242a12.708 12.708 0 00-.139-.984l-1.746.522c.042.218.079.47.111.754.033.286.06.592.084.919a52.975 52.975 0 01.097 2.066 81.157 81.157 0 01.028 1.972v.286c-.002.369-.006.69-.014.963-.01.34-.014.585-.014.734.005.955.25 1.67.738 2.142.487.473 1.2.71 2.142.71h.278zm-9.815 5.05c.413-.204.82-.433 1.224-.689.404-.255.786-.53 1.148-.827.362-.297.697-.613 1.005-.946.309-.334.575-.686.8-1.054.225-.37.401-.752.529-1.148.127-.397.191-.804.191-1.221 0-.306-.025-.62-.076-.943a11.254 11.254 0 00-.199-.97 16.92 16.92 0 00-.27-.964l-.29-.914-1.746.563c.06.204.136.438.226.703.09.264.179.539.265.824.086.285.159.574.219.866.06.292.09.57.09.835 0 .283-.05.563-.153.842-.102.278-.242.55-.42.814-.18.264-.392.519-.64.765-.249.246-.518.48-.808.702-.29.223-.594.433-.914.63-.32.197-.645.377-.974.54l.793 1.592zm-3.318-5.05c.473 0 .897-.055 1.273-.164.375-.109.694-.273.956-.494.262-.22.464-.494.605-.82.142-.328.212-.709.212-1.145 0-1.01-.582-2.182-1.746-3.513a17.45 17.45 0 00-1.078-1.092 13.052 13.052 0 00-.723-.62l-1.127 1.378a6.948 6.948 0 00.445.376 20.91 20.91 0 00-.303.31c-.109.113-.23.249-.365.406-.788.956-1.183 1.874-1.183 2.755 0 .413.071.782.213 1.106.141.325.343.6.605.825.262.224.58.396.953.514.373.119.794.178 1.263.178zm0-1.802c-.135 0-.285-.014-.45-.042a1.997 1.997 0 01-.469-.139 1.138 1.138 0 01-.372-.254.537.537 0 01-.15-.386c0-.185.045-.393.133-.623.088-.23.198-.459.33-.688.132-.23.275-.447.428-.65a4.77 4.77 0 01.431-.508c.209.199.41.415.602.646.192.232.363.462.511.69.149.226.267.44.355.64.088.199.132.363.132.493a.593.593 0 01-.139.404.98.98 0 01-.355.253 1.778 1.778 0 01-.48.13 3.895 3.895 0 01-.507.034zm-1.802-6.602l1.67-.925 1.787-1.043-.529-.71-.619.32a6.567 6.567 0 01-.334.163c-.078.035-.14.06-.184.073a1.824 1.824 0 01-.163.042.864.864 0 01-.167.014h-.063a.826.826 0 01-.257-.056.994.994 0 01-.233-.128.413.413 0 01-.15-.205.819.819 0 01-.049-.272v-.055a.655.655 0 01.087-.272.785.785 0 01.185-.215.96.96 0 01.466-.202 1.65 1.65 0 01.292 0c.083.014.173.03.268.049.095.018.203.037.323.055l.258-.841a17.42 17.42 0 00-.345-.08 4.613 4.613 0 00-.25-.05 2.474 2.474 0 00-.372-.03c-.126 0-.248.01-.369.03a1.596 1.596 0 00-.856.452c-.143.147-.257.31-.34.491-.084.181-.128.329-.133.442a7.176 7.176 0 00-.007.22c0 .166.033.333.098.5a1.727 1.727 0 00.71.8l-1.156.647.432.786zm-10.866-2.1a2.16 2.16 0 00.059-.237c.02-.102.052-.202.094-.3a.774.774 0 01.174-.253.427.427 0 01.292-.115h.055c.154 0 .3.019.439.056.148.046.294.097.438.153.144.055.289.105.435.15.146.043.302.065.47.065h.048c.186-.004.362-.037.529-.097.167-.06.322-.136.466-.226.144-.09.273-.188.39-.292a3.545 3.545 0 00.486-.532.794.794 0 00.077-.119l-.953-.612c-.135.176-.261.318-.38.424a.942.942 0 01-.33.21.926.926 0 01-.452.034 2.29 2.29 0 01-.529-.16 4.243 4.243 0 00-.476-.174 2.015 2.015 0 00-.581-.077c-.213 0-.42.048-.623.143a2.034 2.034 0 00-.553.386c-.167.162-.31.35-.431.564a2.11 2.11 0 00-.243.667l1.099.341zm.967 10.455l1.822-.271c.023-.622.039-1.27.045-1.945.007-.674.01-1.274.01-1.798v-.4c0-.407-.003-.835-.006-1.283a33.524 33.524 0 00-.084-2.188 30.901 30.901 0 00-.222-2.105l-1.788.564c.116 1.118.213 2.61.292 4.48a38.337 38.337 0 01.028 2.282c-.014.82-.046 1.709-.097 2.664zm-6.414.049c.524 0 1.017-.054 1.478-.16a3.566 3.566 0 001.21-.512c.346-.234.618-.539.818-.914.2-.376.299-.833.299-1.37 0-.302-.028-.61-.084-.926a9.08 9.08 0 00-.219-.943c-.09-.313-.193-.618-.31-.914a22.291 22.291 0 00-.347-.842l-1.607.793a11.492 11.492 0 01.856 2.337c.05.218.076.388.076.508 0 .255-.07.46-.212.612-.141.153-.32.27-.536.352a2.78 2.78 0 01-.702.16 7.06 7.06 0 01-.706.038h-1.482v1.78h1.468zm.028 3.554l1.182-1.182-1.196-1.197-1.183 1.19 1.197 1.19zm2.63.014l1.182-1.19-1.197-1.189-1.182 1.183 1.196 1.196zm-1.323 1.9l1.086-1.086-1.086-1.092-1.092 1.085 1.092 1.093zm-2.525-5.468v-1.781h-.313c-.18 0-.34-.019-.476-.056a.69.69 0 01-.522-.508 1.726 1.726 0 01-.052-.445v-.111c0-.144 0-.285.003-.425l.004-.21.003-.214.007-.449a33.426 33.426 0 00-.003-1.224 46.685 46.685 0 01-.007-.783 36.443 36.443 0 00-.098-2.636c-.032-.44-.07-.855-.111-1.242a12.708 12.708 0 00-.14-.984l-1.745.522c.041.218.079.47.111.754.033.286.06.592.084.919a52.975 52.975 0 01.097 2.066 81.176 81.176 0 01.028 1.972c0 .492-.005.908-.014 1.249-.01.34-.014.585-.014.734.005.955.25 1.67.737 2.142.487.473 1.201.71 2.143.71h.278zm-9.815 5.05c.412-.204.82-.433 1.224-.689.403-.255.786-.53 1.148-.827.361-.297.697-.613 1.005-.946.308-.334.575-.686.8-1.054.225-.37.401-.752.529-1.148.127-.397.19-.804.19-1.221 0-.306-.025-.62-.076-.943a11.254 11.254 0 00-.198-.97 16.92 16.92 0 00-.271-.964l-.289-.914-1.746.563c.06.204.136.438.226.703.09.264.179.539.264.824.086.285.16.574.22.866.06.292.09.57.09.835 0 .283-.051.563-.153.842-.102.278-.242.55-.42.814-.18.264-.393.519-.64.765-.249.246-.518.48-.808.702-.29.223-.595.433-.915.63-.32.197-.644.377-.974.54l.794 1.592zm-3.875-12.897l1.182-1.183-1.196-1.196-1.183 1.19 1.197 1.189zm2.63.014l1.182-1.19-1.197-1.19-1.182 1.183 1.196 1.197zm-3.096 7.833c.524 0 1.016-.054 1.478-.16a3.566 3.566 0 001.21-.512c.346-.234.618-.539.818-.914.2-.376.299-.833.299-1.37 0-.302-.028-.61-.084-.926a9.08 9.08 0 00-.219-.943c-.09-.313-.193-.618-.31-.914a22.291 22.291 0 00-.347-.842l-1.607.793a11.492 11.492 0 01.856 2.337c.05.218.076.388.076.508 0 .255-.07.46-.212.612-.142.153-.32.27-.536.352a2.78 2.78 0 01-.702.16 7.06 7.06 0 01-.706.038h-1.482v1.78h1.468zm-9.524 0a3.2 3.2 0 00.734-.077c.216-.05.416-.124.602-.219.185-.095.364-.212.535-.351.172-.14.348-.3.53-.48a4.6 4.6 0 00.782.41c.308.13.63.246.967.348.336.102.666.184.991.247.325.063.608.096.849.1a.551.551 0 00.23-.11c.078-.06.156-.13.232-.206a4.01 4.01 0 00.216-.233c.067-.079.126-.141.177-.188.167.228.35.41.546.547a1.2 1.2 0 00.679.212h.264v-1.781h-.216a.298.298 0 01-.226-.101.983.983 0 01-.174-.296c-.053-.13-.1-.286-.142-.47a21.407 21.407 0 01-.132-.629 9.295 9.295 0 00-.293-1.14 3.165 3.165 0 00-.47-.922 2.118 2.118 0 00-.736-.62c-.295-.15-.658-.226-1.09-.226-.328 0-.625.068-.89.202-.264.135-.502.31-.713.525-.21.216-.4.458-.567.727a8.72 8.72 0 00-.445.807c-.13.255-.256.51-.379.765a3.637 3.637 0 01-.428.69c-.162.203-.357.369-.584.497-.227.127-.51.19-.849.19h-.139v1.782h.14zm6.345-1.781a4.363 4.363 0 01-.783-.143 11.863 11.863 0 01-.845-.26 17.702 17.702 0 01-.78-.293 38.132 38.132 0 01-.59-.243c.069-.167.149-.353.24-.557.09-.204.194-.395.312-.574.119-.178.25-.328.397-.448a.76.76 0 01.497-.181c.163 0 .309.04.438.118.13.079.245.185.345.32.1.134.186.291.26.47.075.178.142.367.202.566.06.2.115.405.164.616.049.211.096.414.143.609zm-6.206 1.78v-1.78h-.313c-.18 0-.34-.019-.476-.056a.69.69 0 01-.522-.508 1.726 1.726 0 01-.052-.445v-.111c0-.144.001-.285.003-.425l.004-.21.003-.214.007-.449a33.425 33.425 0 00-.003-1.224 46.685 46.685 0 01-.007-.783 36.443 36.443 0 00-.098-2.636c-.032-.44-.07-.855-.11-1.242a12.708 12.708 0 00-.14-.984l-1.746.522c.042.218.079.47.111.754.033.286.06.592.084.919a52.982 52.982 0 01.097 2.066 81.157 81.157 0 01.028 1.972v.286c-.002.369-.007.69-.014.963-.01.34-.014.585-.014.734.005.955.25 1.67.737 2.142.487.473 1.202.71 2.143.71h.278zm-10.038-3.373l1.336-1.336-1.336-1.329-1.329 1.33 1.329 1.335zm-.417 8.16c.677 0 1.287-.066 1.83-.198a5.498 5.498 0 001.429-.55 4.246 4.246 0 001.76-1.875c.178-.375.3-.745.365-1.11a5.86 5.86 0 00-.024-2.257 14.014 14.014 0 00-.497-1.847c-.098-.28-.189-.53-.272-.748a10.67 10.67 0 00-.277-.662l-.039-.078-.011-.018-1.635.911c.005 0 .037.06.098.181a16.108 16.108 0 01.786 1.955c.088.27.163.535.226.797.062.262.098.5.108.713v.118c0 .241-.035.473-.105.696-.088.26-.213.5-.375.723-.163.223-.36.424-.592.605-.232.181-.489.335-.772.463-.283.127-.58.223-.894.285a4.865 4.865 0 01-.956.094h-.07a4.002 4.002 0 01-1.242-.22 3.356 3.356 0 01-1.033-.57 2.734 2.734 0 01-.706-.873 2.43 2.43 0 01-.26-1.127c0-.347.04-.693.121-1.036.081-.343.178-.663.289-.96.111-.297.228-.559.351-.786a5 5 0 01.31-.515l-1.37-.995a7.66 7.66 0 00-1.295 4.25c0 .72.114 1.365.341 1.938.227.573.549 1.059.964 1.458.415.398.914.704 1.499.918.584.213 1.233.32 1.948.32z" mask="url(#e)"/><g mask="url(#e)"><use fill="#000" filter="url(#n)" xlink:href="#o"/><use fill="#FFF" fill-opacity=".98" xlink:href="#o"/></g><path fill="#000000" fill-opacity=".87" fill-rule="nonzero" d="M351.909 36.183c.479 0 .902-.086 1.269-.256.367-.17.711-.414 1.032-.73a7.096 7.096 0 001.235.687c.195.073.387.131.575.174.19.042.369.064.54.064.198 0 .389-.03.571-.092a1.956 1.956 0 00.935-.663c.123-.158.224-.335.301-.53.069-.182.12-.37.155-.566a3.45 3.45 0 00.052-.602 3.66 3.66 0 00-.256-1.336 2.915 2.915 0 00-.322-.597 2.407 2.407 0 00-.454-.487 2.013 2.013 0 00-1.3-.447c-.288 0-.541.058-.76.173-.22.116-.414.266-.585.45-.17.185-.322.393-.456.625a10.56 10.56 0 00-.371.7c-.114.223-.235.446-.363.67a3.17 3.17 0 01-.444.602 2.108 2.108 0 01-.581.435c-.22.112-.477.167-.773.167h-.122v1.559h.122zm4.936-1.583c-.08 0-.17-.012-.268-.037a3.048 3.048 0 01-.53-.164 5.406 5.406 0 01-.925-.487c.155-.308.285-.563.39-.764.106-.2.197-.36.274-.48.077-.12.143-.206.198-.256a.36.36 0 01.167-.095.9.9 0 01.177-.018.75.75 0 01.329.073c.15.077.28.187.39.329.109.142.195.305.258.49a1.7 1.7 0 01.094.55v.062c0 .097-.008.186-.024.267a1.14 1.14 0 01-.095.256.631.631 0 01-.127.174.287.287 0 01-.131.076.599.599 0 01-.177.024zm-4.815 1.583v-1.559h-.14a.933.933 0 01-.374-.07.918.918 0 01-.286-.194 1.29 1.29 0 01-.22-.299 3.924 3.924 0 01-.179-.38l-1.528-3.683a135.13 135.13 0 00-.273-.657 21.409 21.409 0 01-.232-.572l-1.442.602 1.941 4.687a2.22 2.22 0 01-.374.216 3.554 3.554 0 01-1.385.326c-.292 0-.598-.076-.919-.228-.32-.152-.665-.399-1.035-.74l-.894 1.26c.393.406.814.722 1.263.95.448.227.926.34 1.433.34.268 0 .522-.01.761-.033.24-.022.47-.062.694-.119a3.426 3.426 0 001.236-.596c.097.105.198.204.304.295.105.091.227.17.365.238.138.066.3.12.484.158.185.038.405.058.66.058h.14zm-11.741 0c.458 0 .89-.047 1.293-.14a3.12 3.12 0 001.06-.448c.302-.205.54-.472.715-.8.174-.329.261-.729.261-1.2 0-.263-.024-.533-.073-.809a7.945 7.945 0 00-.192-.825c-.079-.274-.169-.54-.27-.8-.102-.26-.203-.505-.305-.737l-1.406.694c.11.215.214.447.314.694a10.056 10.056 0 01.435 1.351c.045.191.067.34.067.445 0 .223-.062.402-.186.535-.124.134-.28.237-.469.308a2.432 2.432 0 01-.614.14 6.178 6.178 0 01-.618.033h-1.297v1.559h1.285zm-.055 2.836l1.035-1.035-1.047-1.047-1.035 1.041 1.047 1.041zm2.3.012l1.036-1.04-1.047-1.041-1.035 1.034 1.047 1.047zm-8.68 1.705a11.814 11.814 0 001.507-.895c.49-.341.93-.716 1.321-1.126.392-.41.717-.85.977-1.318.26-.469.416-.959.469-1.47.19.122.366.195.526.22.16.023.294.036.399.036h.189l.006-1.559h-.189c-.178 0-.338-.035-.478-.106a1.156 1.156 0 01-.401-.378 4.017 4.017 0 01-.39-.736c-.132-.31-.277-.703-.435-1.178l-1.461.609c.077.231.162.47.256.715.093.246.18.488.261.727.081.24.148.47.201.691.053.221.08.423.08.606 0 .256-.048.505-.144.749a3.32 3.32 0 01-.39.712c-.164.231-.358.452-.584.663a8.676 8.676 0 01-.727.609c-.26.195-.533.377-.819.548-.286.17-.57.328-.855.475l.682 1.406zm-3.633-4.553c.458 0 .89-.047 1.293-.14a3.12 3.12 0 001.06-.448c.302-.205.54-.472.715-.8.174-.329.261-.729.261-1.2 0-.263-.024-.533-.073-.809a7.945 7.945 0 00-.191-.825c-.08-.274-.17-.54-.271-.8-.102-.26-.203-.505-.305-.737l-1.406.694c.11.215.214.447.314.694a10.056 10.056 0 01.435 1.351c.045.191.067.34.067.445 0 .223-.062.402-.186.535-.123.134-.28.237-.468.308a2.432 2.432 0 01-.615.14 6.178 6.178 0 01-.618.033h-1.296v1.559h1.284zm-.055 2.836l1.035-1.035-1.047-1.047-1.035 1.041 1.047 1.041zm2.301.012l1.035-1.04-1.047-1.041-1.035 1.034 1.047 1.047zm-11.888-7.998l1.035-1.035-1.047-1.047-1.035 1.041 1.047 1.041zm2.301.012l1.035-1.04-1.047-1.042-1.035 1.035 1.047 1.047zm-1.662 5.156c2.224 0 3.894-.515 5.01-1.546.134.272.288.504.462.697.175.192.374.35.597.475.223.123.472.214.746.27.274.057.579.086.916.086h.231v-1.559h-.22c-.295 0-.546-.038-.75-.115a1.272 1.272 0 01-.497-.32 1.236 1.236 0 01-.274-.475 1.54 1.54 0 01-.085-.438v-.198c0-.19.02-.387.06-.59.045-.223.106-.442.183-.658l-1.4-.377c-.056.195-.11.398-.158.609a5.28 5.28 0 01-.182.618c-.074.2-.165.392-.274.575-.11.182-.254.343-.433.48-.194.163-.428.3-.7.412a5.286 5.286 0 01-.91.273 8.745 8.745 0 01-1.086.156c-.39.032-.802.048-1.236.048-.479 0-.925-.02-1.339-.06a7.384 7.384 0 01-1.117-.19 3.352 3.352 0 01-.843-.328 1.399 1.399 0 01-.517-.487 1.54 1.54 0 01-.229-.523 1.983 1.983 0 01-.033-.64c.02-.194.069-.389.146-.584.077-.195.175-.39.292-.584l-1.175-.737a4.46 4.46 0 00-.401.904c-.102.319-.16.584-.174.795a7.701 7.701 0 00-.021.456c0 .24.024.479.073.718.065.329.183.646.353.95.394.637 1.005 1.109 1.835 1.415.83.307 1.88.464 3.15.472zm-14.39-9.21a1.89 1.89 0 00.052-.207 1.35 1.35 0 01.083-.261.677.677 0 01.152-.223.374.374 0 01.255-.1h.05c.133 0 .26.016.383.049.13.04.257.085.383.134.126.048.253.092.38.13.128.039.265.058.411.058h.043a1.46 1.46 0 00.463-.085c.146-.053.282-.119.407-.198.126-.079.24-.164.341-.255a3.101 3.101 0 00.426-.466.695.695 0 00.067-.104l-.834-.535a2.745 2.745 0 01-.331.371.824.824 0 01-.29.183.81.81 0 01-.395.03 2.003 2.003 0 01-.463-.14 3.712 3.712 0 00-.417-.152 1.763 1.763 0 00-.508-.067c-.187 0-.368.042-.545.125a1.78 1.78 0 00-.484.338 2.176 2.176 0 00-.377.493 1.845 1.845 0 00-.213.584l.962.298zm.847 9.149l1.595-.237c.02-.544.033-1.111.04-1.702a154.474 154.474 0 00.002-3.046 29.333 29.333 0 00-.073-1.915 27.039 27.039 0 00-.195-1.84l-1.564.492c.101.978.187 2.285.256 3.92a33.546 33.546 0 01.024 1.997c-.012.718-.04 1.495-.085 2.331zm-7.223-8.825l4.675-2.06-.273-.612-4.36 1.897-.042.775zm1.258 8.868c.393 0 .77-.066 1.129-.198s.674-.319.946-.56a2.66 2.66 0 00.889-2.036c0-.215-.027-.453-.082-.712a4.659 4.659 0 00-.262-.822 6.115 6.115 0 00-.472-.898 6.918 6.918 0 00-.712-.934 9.848 9.848 0 00-.55-.566 13.23 13.23 0 00-.546-.487l3.97-1.717-.616-1.449-4.845 2.155-.164 1.455c.385.353.745.7 1.08 1.04.335.342.626.673.874.996.247.323.442.637.584.943.142.307.213.606.213.898 0 .223-.038.411-.116.563a1.059 1.059 0 01-.316.378c-.134.1-.29.175-.469.228a3.494 3.494 0 01-.566.116 6.027 6.027 0 01-.618.042 32.47 32.47 0 01-.618.006h-.76v1.559h2.027zm-4.079 3.859l.968-1.175a2.052 2.052 0 01-.182-.231 1.017 1.017 0 01-.173-.453 2.041 2.041 0 01-.016-.26c0-.206.043-.413.13-.62a2.05 2.05 0 01.35-.56c.147-.167.312-.302.497-.405a1.15 1.15 0 01.569-.155h.152v-1.559h-.122c-.227 0-.455.04-.684.122-.23.081-.449.194-.658.338a3.523 3.523 0 00-.584.508 3.287 3.287 0 00-.746 1.318c-.06.225-.091.44-.091.642 0 .049.002.098.006.146a3.877 3.877 0 01-.265-.34 14.84 14.84 0 01-.6-.923 3.66 3.66 0 01-.194-.368c.353-.093.675-.241.968-.444a3.86 3.86 0 00.77-.703c.22-.266.403-.553.547-.862.145-.308.247-.617.308-.925a2.582 2.582 0 00.036-.663 3.05 3.05 0 00-.404-1.267 2.337 2.337 0 00-.387-.499 1.736 1.736 0 00-.472-.331 1.224 1.224 0 00-.526-.12h-.025c-.251.005-.49.08-.718.226a2.712 2.712 0 00-.633.578 4.61 4.61 0 00-.526.82 7.102 7.102 0 00-.652 1.895 4.64 4.64 0 00-.088.852h-.803v1.559h1.083a6.592 6.592 0 001.19 2.154c.262.317.557.616.886.898.328.282.692.551 1.09.807zm-2.081-5.4h-.013v-.097c0-.13.013-.278.037-.444.032-.203.079-.413.14-.63.06-.217.133-.432.216-.645.083-.213.171-.407.265-.582a2.64 2.64 0 01.289-.441c.1-.12.194-.194.283-.222a.965.965 0 01.268.219 1.51 1.51 0 01.329.673c.024.12.036.232.036.337v.092c-.016.223-.081.439-.195.648a2.179 2.179 0 01-1.013.947 1.532 1.532 0 01-.642.146zm-7.433 5.51c.276 0 .584-.022.923-.065.338-.042.682-.11 1.031-.204.35-.093.69-.214 1.023-.362.333-.148.63-.328.892-.541.261-.213.475-.461.642-.743.166-.282.258-.602.274-.959a2.107 2.107 0 00-.089-.508 1.66 1.66 0 00-.325-.587h1.138v-1.559h-4.833l-.207 1.522c.272.049.546.095.822.14.276.045.554.114.834.207.19.073.369.15.535.228.167.08.312.156.436.229.123.073.22.139.292.197.07.06.106.103.106.131 0 .175-.07.327-.21.457-.14.13-.32.243-.541.34a4.33 4.33 0 01-.74.244c-.272.065-.537.118-.794.158a8.846 8.846 0 01-1.209.11c-.19 0-.415-.005-.672-.015a5.05 5.05 0 01-.785-.095 3.14 3.14 0 01-.758-.252 1.588 1.588 0 01-.597-.496 2.539 2.539 0 01-.402-1.406 7.51 7.51 0 01.167-1.607c.064-.3.15-.626.26-.977.11-.351.247-.734.413-1.148l-1.253-.578c-.175.418-.321.808-.439 1.169-.117.36-.214.703-.289 1.025-.075.323-.134.63-.176.923-.043.292-.076.578-.1.858a5.132 5.132 0 00-.019.426c0 .52.085.984.256 1.394.21.523.525.959.943 1.305a4.16 4.16 0 001.516.78 6.902 6.902 0 001.935.258z" mask="url(#e)"/><path fill="#000000" fill-opacity=".56" fill-rule="nonzero" d="M221.929 93.063c.065-.77.103-1.496.114-2.178.012-.682.018-1.226.018-1.635 0-.677-.007-1.4-.021-2.17a63.583 63.583 0 00-.355-5.064l-1.363.208c.157 1.461.283 3.316.375 5.566.014.384.021.793.021 1.224 0 .357-.004.73-.014 1.12a64.701 64.701 0 01-.146 2.852l1.37.077zm-6.22-9.218l1.134-1.134-1.14-1.14-1.134 1.133 1.14 1.141zM212.886 93c.46-.005.912-.022 1.357-.052.445-.03.87-.085 1.276-.164a6.536 6.536 0 001.134-.323c.35-.137.661-.314.932-.532a2.74 2.74 0 00.672-.793c.176-.311.292-.677.347-1.1a4.997 4.997 0 00.021-1.126 5.945 5.945 0 00-.212-1.096 5.3 5.3 0 00-.407-1.002 4.113 4.113 0 00-.57-.824c-.501-.543-1.058-.814-1.67-.814a1.71 1.71 0 00-.807.205c-.26.137-.494.344-.702.623-.367.473-.615 1.062-.745 1.767-.028.19-.041.364-.041.521v.119c.009.194.034.368.076.521.042.153.095.29.16.407.065.119.13.22.195.303.12.153.267.289.438.407.172.118.362.217.57.296.21.078.432.138.668.177.237.04.48.06.73.06h.703c-.037.04-.074.083-.11.124a1.453 1.453 0 01-.147.14 1.95 1.95 0 01-.522.278 6.013 6.013 0 01-.866.254c-.34.076-.728.139-1.162.187a12.73 12.73 0 01-1.415.074h-.14V93h.237zm3.82-3.798c-.21 0-.432-.005-.668-.014a2.745 2.745 0 01-.56-.09 1.009 1.009 0 01-.404-.21.633.633 0 01-.202-.305 1.224 1.224 0 01-.045-.32c0-.08.007-.163.021-.25.042-.237.1-.446.177-.627.077-.18.16-.334.247-.459a1.16 1.16 0 01.265-.282.419.419 0 01.23-.094c.13 0 .25.04.364.122.114.081.208.164.282.247.237.264.426.596.567.995.142.399.229.823.261 1.273-.153.01-.332.014-.536.014zm-6.846-2.442l1.134-1.134-1.14-1.14-1.135 1.133 1.141 1.141zm-2.998 11.374a12.712 12.712 0 001.704-1.03 9.084 9.084 0 001.472-1.304 6.295 6.295 0 001.033-1.54c.26-.553.39-1.132.39-1.74v-.028c.115.125.237.223.364.292a1.686 1.686 0 00.713.209c.102.005.186.007.25.007h.12v-1.363h-.112c-.232 0-.444-.056-.637-.167a1.88 1.88 0 01-.553-.526 4.913 4.913 0 01-.515-.925 15.038 15.038 0 01-.514-1.374l-1.308.404c.055.171.123.386.202.643.078.258.157.532.236.825.079.292.152.59.22.893.066.304.116.588.149.853a2.596 2.596 0 01-.077.94c-.083.31-.21.609-.379.896-.17.288-.377.562-.622.824a8.04 8.04 0 01-.807.748 9.486 9.486 0 01-.933.665c-.329.206-.66.395-.994.567l.598 1.23zm-6.393-.25a8.398 8.398 0 001.405-.345c.46-.155.896-.348 1.311-.577.415-.23.803-.498 1.162-.804a5.91 5.91 0 00.95-1.022c.273-.376.498-.785.674-1.228.177-.443.29-.92.341-1.43a6.441 6.441 0 00.007-1.266 6.891 6.891 0 00-.23-1.217 5.77 5.77 0 00-.434-1.096 4.275 4.275 0 00-.623-.9c-.552-.594-1.157-.891-1.815-.891a1.77 1.77 0 00-.86.226 2.61 2.61 0 00-.768.664c-.195.25-.364.549-.508.894a3.926 3.926 0 00-.275.925c-.04.272-.059.495-.059.672 0 .185.016.37.049.556.055.353.19.663.403.932.483.599 1.227.928 2.233.988.255.023.484.035.686.035h.79c-.052.348-.195.701-.429 1.06-.234.36-.553.7-.956 1.02-.404.32-.888.608-1.454.863a8.976 8.976 0 01-1.92.598l.32 1.342zm3.755-6.262h-.047c-.204 0-.422-.006-.654-.02a3.506 3.506 0 01-.296-.032 2.472 2.472 0 01-.348-.076 1.635 1.635 0 01-.334-.14.819.819 0 01-.26-.225.651.651 0 01-.143-.33 2.434 2.434 0 01-.024-.31c0-.102.006-.207.02-.313a3.16 3.16 0 01.133-.595c.064-.202.144-.384.24-.546.095-.163.202-.296.323-.4a.577.577 0 01.383-.157c.083 0 .162.014.236.042.074.028.145.064.212.108.068.044.13.093.188.146.058.053.11.103.157.15.116.134.228.293.337.476.11.183.208.388.296.616.088.227.16.473.215.737.056.264.09.545.105.842-.181.014-.345.022-.49.024l-.296.004h.047zm-8.66 1.371c.279 0 .558-.02.839-.063.28-.041.55-.109.81-.201.26-.093.502-.212.727-.359.225-.146.421-.32.588-.525a1.685 1.685 0 00.362-.737c.037-.162.057-.348.059-.557a3.214 3.214 0 00-.08-.702 5.056 5.056 0 00-.317-.908 7.36 7.36 0 00-.508-.932 9.21 9.21 0 00-1.408-1.708 7.958 7.958 0 00-.81-.675 4.88 4.88 0 00-.825-.487l-.563 1.266c.208.093.422.218.64.376.217.158.432.338.643.542.211.205.414.424.609.658.194.234.372.475.532.723.16.248.297.497.41.745.114.248.196.485.247.713.037.167.056.31.056.431 0 .167-.035.292-.104.376-.158.19-.353.331-.585.424-.232.093-.44.147-.626.164a3.996 3.996 0 01-.96-.01 5.912 5.912 0 01-1.62-.443 4.229 4.229 0 01-.62-.323l-.57 1.308c.116.106.299.213.55.32a8.429 8.429 0 001.736.504c.303.053.566.08.788.08zm-9.426-3.353l1.134-1.134-1.14-1.14-1.134 1.133 1.14 1.141zm-.306 8.14c.57 0 1.112-.061 1.625-.182.512-.12.98-.305 1.401-.553a4.23 4.23 0 001.11-.942c.318-.38.565-.833.74-1.357.168-.5.258-.9.272-1.2.014-.299.021-.5.021-.602a7.175 7.175 0 00-.393-2.361 11.15 11.15 0 00-.397-1.016 7.888 7.888 0 00-.525-.991l-1.155.737c.005 0 .048.068.13.205.08.137.174.325.28.564.108.239.215.52.324.841a6.615 6.615 0 01.345 2.119v.083c-.01.404-.077.805-.202 1.204a2.69 2.69 0 01-.46.873 2.733 2.733 0 01-.757.654 3.688 3.688 0 01-1.05.407c-.4.092-.845.139-1.337.139a3.94 3.94 0 01-1.053-.129 3.297 3.297 0 01-.807-.334 2.716 2.716 0 01-.588-.462 3.029 3.029 0 01-.404-.526 2.535 2.535 0 01-.24-.514 2.744 2.744 0 01-.108-.435 4.08 4.08 0 01-.034-.821c.014-.278.045-.552.094-.821.048-.269.11-.528.184-.776s.152-.476.233-.685c.081-.209.161-.39.24-.546a2.8 2.8 0 01.209-.358l-1.106-.814c-.19.315-.373.667-.546 1.054-.174.387-.32.796-.439 1.228a6.484 6.484 0 00-.219 1.123 6.142 6.142 0 00.02 1.61c.094.608.273 1.137.54 1.587.267.45.602.822 1.005 1.116.404.295.864.515 1.381.661.517.146 1.073.22 1.666.22zM161.323 93l4.216-11.374h-1.642l-3.248 9.384-3.235-9.384h-1.635L159.995 93h1.328zm7.235 0v-4.598h2.679L173.699 93h1.614v-.09l-2.671-4.835c.681-.26 1.214-.653 1.596-1.18.383-.526.574-1.141.574-1.846 0-1.118-.345-1.968-1.036-2.55-.691-.582-1.677-.873-2.957-.873h-3.763V93h1.502zm2.31-5.83h-2.31v-4.313h2.303c.788.005 1.392.195 1.812.57.42.376.63.917.63 1.622 0 .644-.22 1.16-.661 1.544-.44.385-1.032.577-1.774.577z" mask="url(#e)"/><path fill="#EA475B" fill-rule="nonzero" mask="url(#e)" d="M247 111h112v2H247zM320.857 97.883a8.398 8.398 0 001.405-.344c.459-.155.896-.348 1.311-.577.415-.23.802-.498 1.162-.804a5.91 5.91 0 00.95-1.022c.273-.376.498-.785.674-1.228.176-.443.29-.92.341-1.43a6.442 6.442 0 00.007-1.266 6.891 6.891 0 00-.23-1.217 5.77 5.77 0 00-.434-1.096 4.275 4.275 0 00-.623-.9c-.552-.594-1.157-.891-1.816-.891a1.77 1.77 0 00-.859.226 2.61 2.61 0 00-.768.664c-.195.25-.365.549-.508.894a3.926 3.926 0 00-.275.925c-.04.272-.06.495-.06.672 0 .185.017.37.05.556.055.353.19.663.403.932.482.599 1.227.928 2.233.988.255.023.483.035.685.035h.79c-.051.348-.194.701-.428 1.06-.234.36-.553.7-.957 1.02-.403.32-.888.608-1.453.863a8.976 8.976 0 01-1.92.598l.32 1.342zm3.755-6.26h-.048c-.204 0-.422-.007-.654-.021a3.506 3.506 0 01-.295-.032 2.472 2.472 0 01-.348-.076 1.635 1.635 0 01-.334-.14.819.819 0 01-.26-.225.651.651 0 01-.143-.33 2.434 2.434 0 01-.025-.31 3.16 3.16 0 01.153-.908c.065-.202.145-.384.24-.546.095-.163.203-.296.324-.4a.577.577 0 01.382-.157c.084 0 .163.014.237.042.074.028.145.064.212.108s.13.093.188.146c.058.053.11.103.156.15.116.134.229.293.338.476.109.183.207.388.295.616.089.227.16.473.216.737.056.264.09.545.104.842-.18.014-.344.022-.49.024l-.296.004h.048zM315.639 93c.38 0 .748-.026 1.103-.077.355-.05.68-.139.977-.264.297-.125.56-.292.79-.5.23-.21.414-.471.553-.787.139-.32.208-.69.208-1.113 0-.074-.002-.148-.007-.222-.032-.515-.153-1.109-.361-1.781a9.033 9.033 0 00-.223-.644 14.062 14.062 0 00-.382-.897 1.713 1.713 0 01-.063-.143l-1.238.612.605 1.489c.097.237.171.463.222.678.051.216.082.385.09.508.01.123.015.215.015.275 0 .111-.007.216-.021.313a1.35 1.35 0 01-.104.369 1.089 1.089 0 01-.39.455c-.167.11-.36.192-.577.247-.218.056-.455.09-.71.101-.255.012-.517.018-.786.018h-1.343V93h1.642zm-.348 3.402l1.127-1.127-1.14-1.141-1.128 1.134 1.141 1.134zm2.852.014l1.127-1.134-1.14-1.134-1.127 1.127 1.14 1.14zm-9.933 1.718a12.712 12.712 0 001.704-1.03 9.084 9.084 0 001.471-1.304 6.295 6.295 0 001.033-1.54c.26-.553.39-1.132.39-1.74v-.028c.116.125.238.223.365.292a1.686 1.686 0 00.713.209c.102.005.186.007.25.007h.119v-1.363h-.112c-.231 0-.444-.056-.636-.167a1.88 1.88 0 01-.553-.526 4.913 4.913 0 01-.515-.925 15.038 15.038 0 01-.515-1.374l-1.307.404c.055.171.122.386.201.643.08.258.158.532.237.825.079.292.152.59.219.893.067.304.117.588.15.853a2.596 2.596 0 01-.077.94c-.084.31-.21.609-.38.896-.168.288-.376.562-.622.824a8.04 8.04 0 01-.807.748 9.486 9.486 0 01-.932.665c-.33.206-.66.395-.995.567l.599 1.23zm-.821-5.071c.065-.77.103-1.496.114-2.178.012-.682.018-1.226.018-1.635 0-.677-.007-1.4-.021-2.17a63.583 63.583 0 00-.355-5.064l-1.363.208c.157 1.461.283 3.316.375 5.566.014.384.021.793.021 1.224 0 .357-.004.73-.014 1.12a64.701 64.701 0 01-.146 2.852l1.37.077zm-7.02-.063c.38 0 .748-.026 1.103-.077.355-.05.68-.139.978-.264.296-.125.56-.292.79-.5.229-.21.413-.471.552-.787.14-.32.209-.69.209-1.113 0-.074-.002-.148-.007-.222-.033-.515-.153-1.109-.362-1.781a9.033 9.033 0 00-.222-.644 14.062 14.062 0 00-.383-.897 1.712 1.712 0 01-.063-.143l-1.238.612.605 1.489c.098.237.172.463.223.678.05.216.081.385.09.508.01.123.014.215.014.275 0 .111-.007.216-.02.313a1.35 1.35 0 01-.105.369 1.089 1.089 0 01-.39.455c-.166.11-.359.192-.577.247-.218.056-.454.09-.71.101-.255.012-.517.018-.786.018h-1.342V93h1.642zm-.347 3.402l1.127-1.127-1.141-1.141-1.127 1.134 1.14 1.134zm2.852.014L304 95.282l-1.141-1.134-1.127 1.127 1.14 1.14zM292.64 84.395l1.03-1.03-1.037-1.036-1.03 1.03 1.037 1.036zm-1.572 2.198l1.127-1.134-1.141-1.14-1.127 1.133 1.14 1.141zm3.054.007l1.127-1.127-1.141-1.14-1.127 1.126 1.14 1.141zm-9.92 11.012a8.64 8.64 0 002.052-.323 4.259 4.259 0 001.617-.863c.452-.392.805-.9 1.058-1.527.252-.626.379-1.398.379-2.316.102.074.201.138.299.19a1.793 1.793 0 00.65.21c.123.016.266.024.428.024a2.87 2.87 0 001.117-.22c.35-.145.664-.38.942-.705.098.148.212.28.345.393.132.113.27.21.417.288.146.08.293.14.442.181.148.042.285.063.41.063a2.06 2.06 0 001.252-.403c.177-.13.333-.283.47-.46.137-.176.251-.373.344-.591.116.227.263.43.442.609a2.875 2.875 0 001.273.74c.239.066.481.098.727.098h.14v-1.363h-.14a1.3 1.3 0 01-.692-.181c-.197-.12-.37-.28-.518-.48a2.868 2.868 0 01-.373-.689 5.8 5.8 0 01-.243-.807 8.093 8.093 0 01-.143-.831 9.945 9.945 0 01-.062-.769l-1.364.097c.01.158.025.357.045.599a8.976 8.976 0 01-.01 1.593 2.92 2.92 0 01-.167.74c-.083.22-.202.4-.355.54-.153.139-.352.208-.598.208a.65.65 0 01-.445-.153 1.043 1.043 0 01-.275-.407 2.392 2.392 0 01-.143-.577 4.403 4.403 0 01-.041-.55v-.344c0-.148.002-.297.007-.445.009-.218.016-.415.02-.591l-1.412-.105c-.009.237-.017.478-.024.724a7.885 7.885 0 01-.052.716 5.015 5.015 0 01-.122.658 1.66 1.66 0 01-.24.539 1.184 1.184 0 01-.407.365c-.165.09-.37.136-.616.136-.32 0-.583-.078-.79-.233a2 2 0 01-.524-.606 4.68 4.68 0 01-.373-.827 28.728 28.728 0 00-.323-.894 14.972 14.972 0 01-.257-.675l-1.155.751c.153.399.29.799.414 1.2.123.401.212.785.268 1.151a6.918 6.918 0 01.076 1.336 5.77 5.77 0 01-.236 1.329c-.423 1.29-1.619 1.98-3.59 2.073h-.237c-.394 0-.737-.043-1.03-.129a2.925 2.925 0 01-.757-.334 2.228 2.228 0 01-.533-.466 2.962 2.962 0 01-.347-.529 2.646 2.646 0 01-.202-.518 4.284 4.284 0 01-.094-.431 4.03 4.03 0 01-.035-.814c.014-.274.045-.546.094-.817a7.883 7.883 0 01.41-1.472 5.47 5.47 0 01.244-.546c.081-.155.152-.272.212-.351L280.766 89c-.19.315-.372.666-.546 1.05-.174.385-.32.795-.438 1.228-.119.434-.192.81-.22 1.127a6.142 6.142 0 00.02 1.61c.085.566.25 1.07.499 1.514.248.443.563.82.946 1.13.383.31.82.547 1.311.71a5.052 5.052 0 001.593.243h.272z"/><path fill="#000000" fill-opacity=".56" fill-rule="nonzero" d="M102.951 92.993c.279 0 .558-.02.839-.063.28-.041.55-.109.81-.201.26-.093.502-.212.727-.359.225-.146.42-.32.588-.525a1.685 1.685 0 00.362-.737c.037-.162.056-.348.059-.557a3.214 3.214 0 00-.08-.702 5.056 5.056 0 00-.317-.908 7.36 7.36 0 00-.508-.932 9.21 9.21 0 00-1.408-1.708 7.958 7.958 0 00-.81-.675 4.88 4.88 0 00-.825-.487l-.564 1.266c.209.093.422.218.64.376.218.158.433.338.644.542.21.205.414.424.609.658.194.234.372.475.532.723.16.248.297.497.41.745.114.248.196.485.247.713.037.167.056.31.056.431 0 .167-.035.292-.105.376-.157.19-.352.331-.584.424-.232.093-.44.147-.626.164a3.996 3.996 0 01-.96-.01 5.912 5.912 0 01-1.62-.443 4.229 4.229 0 01-.62-.323l-.57 1.308c.115.106.299.213.55.32a8.429 8.429 0 001.736.504c.303.053.566.08.788.08zm-9.224 4.988c.39-.19.773-.405 1.151-.644.378-.238.738-.5 1.079-.782a9.21 9.21 0 00.946-.905c.29-.32.54-.656.75-1.008.212-.353.377-.718.495-1.096.118-.378.177-.769.177-1.172 0-.204-.016-.413-.048-.626a9.948 9.948 0 00-.122-.65 19.8 19.8 0 00-.16-.668 95.354 95.354 0 01-.17-.672 10.346 10.346 0 00-.175-.636 74.75 74.75 0 01-.194-.644l-1.322.418c.125.39.243.779.355 1.168.05.19.104.385.16.585.055.2.106.399.153.598.046.2.084.394.115.584.03.19.045.371.045.543 0 .45-.11.886-.327 1.308-.218.422-.507.82-.866 1.196-.36.376-.769.723-1.228 1.04-.46.318-.932.597-1.42.839l.606 1.224zm-6.386-12.64l1.134-1.134-1.141-1.14L86.2 84.2l1.14 1.14zM84.35 93c.7 0 1.393-.065 2.08-.195.686-.13 1.35-.298 1.993-.504a19.848 19.848 0 001.843-.692c.587-.255 1.135-.51 1.645-.766.348-.171.682-.335 1.002-.49.32-.155.642-.3.967-.435l-.264-1.321c-.288 0-.573-.03-.856-.09a6.842 6.842 0 01-.849-.24 11.25 11.25 0 01-.845-.338 39.2 39.2 0 01-.831-.383c-.25-.116-.499-.23-.745-.34-.245-.112-.487-.21-.723-.296a5.637 5.637 0 00-.7-.206 3.12 3.12 0 00-.677-.076c-.45 0-.878.109-1.284.327-.406.218-.79.545-1.151.98a4.72 4.72 0 00-.33.439c-.096.144-.177.271-.244.383a3.542 3.542 0 00-.212.396l1.252.564a3.686 3.686 0 01.257-.456c.084-.128.183-.264.3-.41.115-.147.246-.283.392-.411.147-.128.305-.233.477-.317.172-.083.352-.125.543-.125.143 0 .301.022.473.066.171.044.353.104.546.178.192.074.392.159.598.254.206.095.419.193.636.295.283.135.57.267.863.397.292.13.598.25.918.362-.528.264-1.078.521-1.648.772-.57.25-1.155.473-1.753.668-.599.194-1.206.35-1.823.47a9.807 9.807 0 01-1.85.177h-1.51V93h1.51zm-7.764 4.883a8.524 8.524 0 001.965-.556 7.19 7.19 0 001.726-1.016 6.198 6.198 0 001.321-1.45A5.255 5.255 0 0082.353 93h.765v-1.363h-.66a6.622 6.622 0 00-.376-2.02 5.342 5.342 0 00-.404-.881 4.395 4.395 0 00-.528-.738c-.552-.593-1.158-.89-1.816-.89a1.77 1.77 0 00-.86.226 2.61 2.61 0 00-.768.664c-.195.25-.364.549-.508.894a3.926 3.926 0 00-.275.925c-.039.272-.059.495-.059.672 0 .185.017.37.049.556.056.353.19.663.404.932.482.599 1.226.928 2.233.988.255.023.483.035.685.035h.79c-.052.348-.194.701-.428 1.06-.235.36-.554.7-.957 1.02-.403.32-.888.608-1.454.863a8.976 8.976 0 01-1.92.598l.32 1.342zm3.755-6.26h-.047c-.204 0-.422-.007-.654-.021a3.506 3.506 0 01-.296-.032 2.472 2.472 0 01-.347-.076 1.635 1.635 0 01-.334-.14.819.819 0 01-.261-.225.651.651 0 01-.143-.33 2.434 2.434 0 01-.024-.31c0-.102.007-.207.02-.313a3.16 3.16 0 01.133-.595c.065-.202.145-.384.24-.546.095-.163.203-.296.323-.4a.577.577 0 01.383-.157c.083 0 .162.014.236.042.075.028.145.064.213.108.067.044.13.093.187.146.058.053.11.103.157.15.116.134.228.293.337.476.11.183.208.388.296.616.088.227.16.473.216.737.055.264.09.545.104.842-.18.014-.344.022-.49.024l-.296.004h.047zm-5.689 1.44c.065-.77.103-1.496.115-2.178.012-.682.017-1.226.017-1.635 0-.677-.007-1.4-.02-2.17a63.584 63.584 0 00-.355-5.064l-1.364.208c.158 1.461.283 3.316.376 5.566.014.384.02.793.02 1.224 0 .357-.004.73-.013 1.12a64.7 64.7 0 01-.146 2.852l1.37.077zm-6.073.02c.431 0 .81-.06 1.134-.18.334-.121.612-.295.835-.522.222-.227.39-.502.5-.824a3.3 3.3 0 00.168-1.082c0-.265-.025-.536-.073-.814a7.696 7.696 0 00-.188-.814 12.239 12.239 0 00-.86-2.17l-1.217.64a12.273 12.273 0 01.588 1.422c.1.295.186.595.257.901.072.306.108.591.108.856a2 2 0 01-.07.55.93.93 0 01-.225.403.764.764 0 01-.355.212 1.566 1.566 0 01-.4.052c-.079 0-.162-.005-.25-.014a.65.65 0 01-.352-.136.847.847 0 01-.23-.292 1.47 1.47 0 01-.125-.41 3.026 3.026 0 01-.038-.49c0-.19.014-.408.042-.651.028-.243.059-.473.094-.689l.05-.3.044-.253.034-.222-1.335-.244c-.028.19-.066.414-.115.671a9.558 9.558 0 01-.188.797 7.21 7.21 0 01-.278.807c-.11.264-.237.5-.383.71a2.008 2.008 0 01-.5.507c-.188.13-.4.195-.637.195a.735.735 0 01-.369-.083.622.622 0 01-.23-.223.974.974 0 01-.118-.316 1.894 1.894 0 01-.034-.366c0-.18.018-.377.055-.588.037-.21.081-.417.132-.619a12.77 12.77 0 01.293-.998l-1.378-.292c-.046.227-.102.468-.167.723a7.784 7.784 0 01-.236.762 5.556 5.556 0 01-.327.727 2.873 2.873 0 01-.442.616c-.17.178-.363.322-.58.431a1.626 1.626 0 01-.738.164h-.153V93h.146c.269 0 .516-.022.74-.066a2.704 2.704 0 001.13-.494c.159-.118.307-.252.446-.4.075.172.18.322.317.452s.289.239.456.327c.166.088.342.154.525.198.183.044.36.066.532.066.394 0 .767-.095 1.12-.285.352-.19.668-.447.946-.772.097.148.216.286.355.414.139.128.29.239.452.334.162.095.333.17.511.226.179.056.356.083.532.083h.05zM50.66 87.29l1.127-1.127-1.14-1.141-1.128 1.134 1.141 1.134zm2.852.014l1.127-1.134-1.14-1.134-1.128 1.127 1.141 1.14zm-2.017 5.718c2.639 0 4.57-.64 5.795-1.92.102.283.245.536.431.758.58.747 1.472 1.127 2.678 1.141h.195v-1.363h-.174c-.756-.005-1.296-.214-1.62-.627a1.391 1.391 0 01-.293-.584 3.455 3.455 0 01-.09-.626v-.056c0-.074.007-.162.02-.264a5.796 5.796 0 01.136-.748 10.8 10.8 0 01.08-.31l-1.322-.361c-.06.209-.128.422-.205.64-.076.218-.17.433-.278.647-.109.213-.24.42-.393.619-.153.2-.336.383-.55.55-.477.39-1.076.673-1.794.852-.72.178-1.591.268-2.616.268-1.146-.005-2.077-.126-2.793-.362-.717-.237-1.214-.594-1.492-1.072a1.688 1.688 0 01-.223-.573 3.026 3.026 0 01-.049-.512c0-.06.003-.118.007-.174a2.93 2.93 0 01.087-.598 5.86 5.86 0 01.15-.5c.05-.145.097-.26.139-.349.042-.088.063-.134.063-.139l-1.204-.66c-.023.032-.09.177-.198.434a8.028 8.028 0 00-.338 1.047c-.055.209-.09.4-.104.574a4.626 4.626 0 00-.007.79c.019.24.064.482.136.723.072.241.175.475.31.703.417.705 1.088 1.22 2.013 1.548.926.326 2.093.495 3.503.504zm-16.167-7.694l1.127-1.127-1.141-1.14-1.127 1.133 1.141 1.134zm2.852.014l1.127-1.134-1.14-1.134-1.128 1.127 1.141 1.14zM35.146 93c.38 0 .748-.026 1.103-.077.354-.05.68-.139.977-.264.297-.125.56-.292.79-.5.23-.21.414-.471.553-.787.139-.32.208-.69.208-1.113 0-.074-.002-.148-.007-.222-.032-.515-.153-1.109-.361-1.781a9.033 9.033 0 00-.223-.644 14.062 14.062 0 00-.383-.897 1.713 1.713 0 01-.062-.143l-1.238.612.605 1.489c.097.237.171.463.222.678.051.216.082.385.09.508.01.123.015.215.015.275 0 .111-.007.216-.021.313a1.35 1.35 0 01-.104.369 1.089 1.089 0 01-.39.455c-.167.11-.36.192-.577.247-.218.056-.455.09-.71.101-.255.012-.517.018-.786.018h-1.343V93h1.642zm-5.363-10.108l1.579-.876 1.683-.988-.41-.543-.967.522a.598.598 0 01-.292.076h-.028a.894.894 0 01-.33-.076 1.103 1.103 0 01-.498-.445.539.539 0 01-.07-.223v-.104a.76.76 0 01.05-.265.826.826 0 01.163-.264.775.775 0 01.267-.188.719.719 0 01.22-.059 1.828 1.828 0 01.483.01c.093.014.216.038.369.07l.195-.64-.265-.062a3.035 3.035 0 00-.264-.05c-.098-.013-.2-.02-.306-.02-.246 0-.473.044-.682.132a1.51 1.51 0 00-.86.922 1.409 1.409 0 00.031.936c.08.18.191.345.335.493.144.149.313.262.508.341l-1.245.696.334.605zm4 10.108v-1.363h-.167c-.209 0-.398-.016-.567-.046a1.06 1.06 0 01-.439-.177.845.845 0 01-.285-.38c-.067-.164-.1-.385-.1-.664a413.818 413.818 0 00.02-2.618v-.168-.135c0-.844-.028-1.702-.083-2.574a24.838 24.838 0 00-.077-1.05c-.032-.344-.07-.634-.111-.87l-1.364.25c.042.223.08.502.112.838.032.337.058.686.076 1.047.037.752.056 1.517.056 2.296v.257c-.01.872-.014 1.733-.014 2.581 0 .427.043.81.129 1.152.085.34.234.632.445.873.21.24.497.426.859.556.362.13.819.195 1.37.195h.14zm-16.55 0c.334 0 .675-.016 1.023-.049.347-.032.68-.083.998-.153.318-.07.609-.16.873-.275.264-.113.48-.251.647-.413.195.255.445.467.751.636.306.17.694.254 1.162.254h1.304l.247-.003c.186-.003.38-.009.585-.018.204-.01.403-.024.598-.045.195-.021.355-.05.48-.087.84-.237 1.424-.728 1.753-1.475.139-.32.209-.695.209-1.127 0-.566-.123-1.229-.37-1.99a9.033 9.033 0 00-.222-.643c-.079-.202-.15-.379-.215-.532a8.05 8.05 0 00-.164-.365 1.666 1.666 0 01-.066-.143l-1.238.612c.079.172.155.346.23.522a13.677 13.677 0 01.376.967c.147.492.234.856.26 1.092.025.237.038.401.038.494 0 .227-.032.413-.097.557a.892.892 0 01-.272.334c-.12.092-.26.17-.417.233-.158.062-.33.11-.518.146a6.573 6.573 0 01-1.078.108h-1.437c-.236 0-.428-.054-.574-.16a1.136 1.136 0 01-.344-.404 1.817 1.817 0 01-.174-.529 4.756 4.756 0 01-.063-.542 9.341 9.341 0 00-.045-.553 14.77 14.77 0 00-.073-.56 9.909 9.909 0 00-.216-1.058l-1.3.369c.102.357.17.675.205.953.034.278.057.547.066.807v.083c0 .302-.072.55-.216.745-.158.218-.372.39-.643.515a3.237 3.237 0 01-.943.257c-.357.046-.73.07-1.12.07h-.62V93h.62zm7.047 3.527l1.127-1.127-1.14-1.14-1.128 1.133 1.141 1.134zm2.643.014l1.127-1.134-1.14-1.134-1.127 1.127 1.14 1.14zm-9.133.939l1.127-1.127-1.141-1.14-1.127 1.133 1.14 1.134zm2.573.014l1.127-1.134-1.14-1.134-1.127 1.127 1.14 1.14zM16.893 93v-1.363h-.14c-.278 0-.508-.036-.689-.108a1.244 1.244 0 01-.452-.3 1.755 1.755 0 01-.31-.466 15.475 15.475 0 01-.267-.608c-.181-.422-.352-.827-.512-1.214a3900.566 3900.566 0 01-1.617-3.927l-1.266.529 2.198 5.287a2.64 2.64 0 01-.925.584c-.25.097-.463.154-.636.17a4.617 4.617 0 01-.394.025c-.185 0-.37-.021-.556-.063a3.191 3.191 0 01-.842-.32 4.114 4.114 0 01-.842-.619l-.786 1.106c.395.408.825.725 1.29.95a3.45 3.45 0 001.52.337c.33 0 .627-.02.891-.06a4.2 4.2 0 00.734-.173c.225-.077.436-.173.633-.289.197-.116.393-.25.588-.403a2.4 2.4 0 00.348.358c.134.114.29.212.47.296.178.083.384.15.619.198.234.049.502.073.803.073h.14z" mask="url(#e)"/><path fill="url(#p)" mask="url(#e)" d="M0 65h32v48H0z"/><path fill="#EA475B" fill-rule="nonzero" d="M13.01 89l3.229-3.228a.836.836 0 10-1.184-1.183l-3.82 3.82a.836.836 0 000 1.182l3.82 3.82a.834.834 0 001.184 0 .836.836 0 000-1.183L13.01 89z" mask="url(#e)"/><path fill="#000000" fill-opacity=".12" mask="url(#e)" d="M0 113h375v1H0z"/></g></g><g transform="translate(156 231)"><use fill="#000" filter="url(#q)" xlink:href="#r"/><rect width="111" height="31" x=".5" y=".5" fill="#EA475B" rx="4"/><path fill="#FFF" fill-rule="nonzero" d="M96.375 13.317l1.035-1.035-1.047-1.047-1.035 1.04 1.047 1.042zm2.3.012l1.035-1.041-1.047-1.041-1.034 1.035 1.047 1.047zm-2.708 6.854c.459 0 .89-.047 1.293-.14a3.12 3.12 0 001.06-.448c.302-.205.54-.472.715-.8.174-.329.262-.729.262-1.2 0-.263-.025-.533-.074-.809a7.945 7.945 0 00-.191-.825c-.08-.274-.17-.54-.271-.8-.102-.26-.203-.505-.304-.737l-1.407.694c.11.215.214.447.314.694a10.056 10.056 0 01.435 1.351c.045.191.067.34.067.445 0 .223-.062.402-.186.535-.123.134-.28.237-.468.308a2.432 2.432 0 01-.615.14 6.178 6.178 0 01-.618.033h-1.296v1.559h1.284zm-4.358-6.994l1.168-1.169-1.168-1.163-1.163 1.163 1.163 1.169zm-3.67 6.994a9.93 9.93 0 001.89-.186c.318-.063.622-.147.912-.253a3.25 3.25 0 00.764-.39c.203.167.426.303.67.409.243.105.5.19.77.252.27.063.554.107.852.131.298.024.604.037.916.037h.213v-1.559h-.2c-.317 0-.62-.017-.908-.051a5.373 5.373 0 01-.803-.156 5.017 5.017 0 001.056-1.278c.136-.235.237-.457.304-.666.067-.21.1-.395.1-.557a.94.94 0 00-.005-.104 1.383 1.383 0 00-.055-.301 1.262 1.262 0 00-.174-.36 1.89 1.89 0 00-.34-.37 2.245 2.245 0 00-.564-.338 3.466 3.466 0 00-1.004-.29 7.16 7.16 0 00-.822-.057c-.186 0-.371.01-.554.03a4.898 4.898 0 00-1.969.633 4.356 4.356 0 00-.709.511l-.085 1.267a33.043 33.043 0 01.959.928l.429.432.45.453c-.15.045-.311.084-.484.116-.172.033-.349.061-.53.085a8.074 8.074 0 01-1.086.073h-.213v1.559h.22zm3.542-2.447l-.329-.326a40.92 40.92 0 01-.42-.42c-.15-.152-.304-.314-.462-.487a11.612 11.612 0 01-.45-.52c.113-.053.242-.102.386-.146.144-.045.293-.083.447-.113.154-.03.306-.055.457-.073.15-.018.288-.028.413-.028.134 0 .273.01.417.028.144.018.287.042.427.073.14.03.272.068.398.113.126.044.238.093.335.146-.037.105-.116.239-.237.401a6.24 6.24 0 01-.42.5c-.159.17-.324.332-.496.486a3.894 3.894 0 01-.466.366zm-13.897 2.447c.284 0 .573-.013.865-.037.292-.024.574-.064.846-.119.272-.054.524-.126.758-.216.233-.089.435-.199.605-.328.187.207.417.375.691.505.274.13.61.195 1.008.195h.633c.284 0 .572-.013.864-.037.292-.024.574-.064.846-.119.272-.054.524-.126.758-.216.233-.089.435-.199.605-.328.187.207.417.375.691.505.274.13.61.195 1.008.195h.207v-1.559h-.213a.647.647 0 01-.411-.121.84.84 0 01-.244-.31 1.561 1.561 0 01-.124-.418 6.222 6.222 0 01-.055-.435 101.19 101.19 0 00-.046-.511 10.307 10.307 0 00-.052-.454 7.38 7.38 0 00-.207-.995l-1.49.42c.052.187.099.351.14.493.04.142.073.273.1.393.026.12.05.34.07.66-.013.276-.087.498-.223.667a1.314 1.314 0 01-.541.39 2.772 2.772 0 01-.773.179c-.29.028-.594.042-.91.042h-.64a.647.647 0 01-.41-.121.84.84 0 01-.244-.31 1.561 1.561 0 01-.125-.418 6.222 6.222 0 01-.054-.435l-.046-.511a10.307 10.307 0 00-.052-.454 7.38 7.38 0 00-.207-.995l-1.491.42.14.493c.04.142.074.273.1.393.027.12.05.34.07.66-.012.276-.086.498-.222.667a1.314 1.314 0 01-.542.39 2.772 2.772 0 01-.773.179c-.29.028-.593.042-.91.042h-.541v1.559h.541zm6.24 3.165l1.034-1.035-1.047-1.047-1.034 1.041 1.046 1.04zm2.3.012l1.035-1.04-1.047-1.042-1.035 1.035 1.047 1.047zm-7.767.536l1.035-1.035-1.047-1.047-1.035 1.04 1.047 1.042zm2.301.012l1.035-1.041-1.047-1.04-1.035 1.034 1.047 1.047zm-8.765.828a11.814 11.814 0 001.507-.895c.489-.341.929-.716 1.32-1.126.392-.41.718-.85.977-1.318.26-.469.416-.959.47-1.47.19.122.365.195.526.22.16.023.293.036.398.036h.189l.006-1.559h-.189c-.178 0-.337-.035-.477-.106a1.156 1.156 0 01-.402-.378 4.017 4.017 0 01-.39-.736c-.132-.31-.277-.703-.435-1.178l-1.46.609c.076.231.161.47.255.715.093.246.18.488.262.727.08.24.148.47.2.691.053.221.08.423.08.606 0 .256-.048.505-.143.749a3.32 3.32 0 01-.39.712c-.164.231-.36.452-.584.663a8.676 8.676 0 01-.728.609c-.26.195-.532.377-.818.548-.287.17-.572.328-.856.475l.682 1.406zM64.79 20.25a3.37 3.37 0 001.15-.19c.406-.145.74-.355 1.004-.63.264-.273.434-.552.509-.836.075-.284.112-.528.112-.73 0-.212-.026-.433-.079-.664a4.568 4.568 0 00-.484-1.193 7.66 7.66 0 00-.797-1.135 9.77 9.77 0 00-1.005-1.026c-.363-.32-.731-.609-1.104-.864l-.907 1.345c.194.122.404.27.63.447.225.177.45.37.672.579.223.209.439.427.646.654.206.227.39.453.547.679.159.225.283.44.375.645.091.205.137.388.137.55v.019a.567.567 0 01-.092.307.702.702 0 01-.222.207 1.195 1.195 0 01-.307.128c-.114.03-.227.053-.341.067a3.847 3.847 0 01-.323.028 2.645 2.645 0 01-.85-.073 7.12 7.12 0 01-1.363-.475 5.076 5.076 0 01-.556-.299l-.645 1.492a6.988 6.988 0 001.451.675c.266.09.537.16.813.21.276.051.548.076.816.076.073.005.144.007.213.007zm-10.08.006c.235-.004.443-.032.623-.083.181-.05.343-.118.487-.203.144-.086.271-.186.38-.302.11-.115.212-.24.305-.374.081.122.174.241.277.359.104.118.221.222.353.314a1.638 1.638 0 00.959.289h.085c.41 0 .773-.057 1.09-.17.328-.114.605-.279.83-.494.226-.215.396-.475.512-.779a2.86 2.86 0 00.173-1.023c0-.239-.019-.482-.057-.73a7.11 7.11 0 00-.153-.727 10.372 10.372 0 00-.608-1.696 5.008 5.008 0 00-.119-.243l-1.309.73c.07.142.15.32.244.536.093.215.181.444.265.688.083.243.154.493.213.749.058.255.088.493.088.712 0 .3-.091.523-.274.67-.183.145-.418.218-.706.218a.89.89 0 01-.39-.088.708.708 0 01-.255-.219.749.749 0 01-.128-.292 1.565 1.565 0 01-.03-.301v-.098c.012-.17.029-.34.051-.511a20.32 20.32 0 01.14-.925c.022-.134.04-.25.052-.347l-1.425-.274c-.024.17-.057.363-.1.578a8.853 8.853 0 01-.158.66 6.171 6.171 0 01-.225.66 3.014 3.014 0 01-.305.576 1.606 1.606 0 01-.392.408.833.833 0 01-.493.155c-.17 0-.294-.05-.369-.149a.576.576 0 01-.124-.301 3.127 3.127 0 01-.013-.213c0-.13.015-.27.043-.42a6.78 6.78 0 01.137-.594c.055-.197.113-.383.173-.56.061-.176.11-.321.146-.435l-1.521-.335-.152.575c-.057.213-.124.43-.201.649-.077.219-.168.432-.271.639a2.828 2.828 0 01-.36.554 1.646 1.646 0 01-.468.39 1.22 1.22 0 01-.6.145h-.243v1.559h.22c.283 0 .53-.025.742-.073.21-.05.394-.115.55-.198.157-.083.289-.178.396-.283.108-.106.2-.215.277-.329.09.13.188.254.295.371.108.118.228.22.36.308a1.69 1.69 0 00.94.277h.043zm-7.317-5.99l1.035-1.035-1.047-1.047-1.035 1.041 1.047 1.041zm2.3.012l1.036-1.04-1.047-1.041-1.035 1.034 1.047 1.047zm-3.767 5.905c.284 0 .596-.003.934-.01.34-.006.669-.03.99-.073.32-.042.611-.11.873-.2.262-.092.46-.223.594-.393.19.199.422.361.693.487.272.126.605.189.999.189h.121v-1.559h-.121a.776.776 0 01-.439-.124 1.193 1.193 0 01-.32-.31 1.536 1.536 0 01-.203-.409 1.914 1.914 0 01-.091-.417 37.15 37.15 0 00-.046-.557 10.32 10.32 0 00-.049-.438 4.777 4.777 0 00-.073-.408 7.394 7.394 0 00-.125-.471l-1.497.42c.106.36.185.656.237.885.053.23.08.413.08.551 0 .211-.045.397-.134.557-.09.16-.235.293-.436.399-.2.105-.463.185-.788.24a7.369 7.369 0 01-1.199.082h-.225v1.559h.225zm.018 0v-1.559h-.121c-.126 0-.236-.007-.33-.021a.818.818 0 01-.243-.073.61.61 0 01-.182-.14.869.869 0 01-.14-.222 1.472 1.472 0 01-.058-.155 3.565 3.565 0 01-.094-.408 24.47 24.47 0 01-.131-.782 36.57 36.57 0 01-.238-1.94 174.394 174.394 0 01-.115-1.086 52.048 52.048 0 01-.07-.681l-1.54.328.079.926a8.886 8.886 0 00-.642.289 7.06 7.06 0 00-.667.377c-.219.14-.428.295-.627.466-.199.17-.373.355-.523.554-.15.198-.27.412-.36.639-.089.227-.133.466-.133.718 0 .235.036.446.11.633.072.187.173.351.3.493.128.142.279.263.451.362.172.1.358.182.557.247.199.065.407.111.624.14.217.028.433.042.648.042.195 0 .394-.008.597-.024.203-.016.42-.04.651-.073.138.24.284.422.438.548.154.126.318.218.49.277.173.059.353.093.542.103.189.01.39.018.606.022h.121zm-3.481-2.399a5.05 5.05 0 01-.45-.021 2.82 2.82 0 01-.442-.073 1.107 1.107 0 01-.338-.14c-.09-.059-.134-.133-.134-.222 0-.098.032-.199.094-.305.063-.105.146-.21.247-.313.101-.103.218-.205.35-.304.132-.1.267-.192.405-.277.138-.086.272-.163.402-.232s.247-.125.353-.17a54.997 54.997 0 01.133 1.123c.02.177.041.34.061.49.02.15.04.28.061.39a4.792 4.792 0 01-.742.054zm-6.781 2.399c.458 0 .88-.05 1.263-.15.383-.099.713-.253.989-.462a2.13 2.13 0 00.645-.804c.154-.326.231-.717.231-1.171 0-.264-.024-.534-.073-.81a7.945 7.945 0 00-.191-.825c-.08-.274-.17-.54-.271-.8-.102-.26-.203-.505-.305-.737l-1.406.694c.11.215.214.447.314.694a10.056 10.056 0 01.435 1.351c.045.191.067.34.067.445 0 .223-.052.402-.155.535a1.001 1.001 0 01-.399.308 1.867 1.867 0 01-.545.14c-.2.022-.396.033-.587.033h-.98v1.559h.968zm.998 3.147l1.169-1.17-1.169-1.162-1.163 1.163 1.163 1.169zm-4.322-8.772l1.169-1.168-1.169-1.163-1.162 1.163 1.162 1.168zm-1.71 5.625c.572 0 1.058-.055 1.458-.165.4-.11.74-.28 1.02-.511.19.199.424.361.702.487.278.126.614.189 1.008.189h.121v-1.559h-.121a.626.626 0 01-.405-.124.905.905 0 01-.247-.31 1.525 1.525 0 01-.13-.409 5.105 5.105 0 01-.058-.417 43.995 43.995 0 00-.046-.563 6.528 6.528 0 00-.134-.87c-.03-.14-.072-.3-.125-.478l-1.497.42c.105.361.187.663.243.904.057.241.086.431.086.57 0 .425-.158.745-.472.958-.315.213-.782.32-1.403.32h-.225v1.558h.225zm.018 0v-1.559h-.14a.933.933 0 01-.374-.07.918.918 0 01-.286-.194 1.29 1.29 0 01-.22-.299 3.924 3.924 0 01-.179-.38l-1.528-3.683a135.22 135.22 0 00-.274-.657 21.41 21.41 0 01-.231-.572l-1.443.602 1.942 4.687a2.22 2.22 0 01-.374.216 3.555 3.555 0 01-1.385.326c-.292 0-.599-.076-.92-.228-.32-.152-.665-.399-1.034-.74l-.895 1.26c.394.406.815.722 1.263.95.449.227.926.34 1.434.34.268 0 .521-.01.76-.033.24-.022.471-.062.695-.119a3.426 3.426 0 001.235-.596c.098.105.199.204.305.295.105.091.227.17.365.238.138.066.299.12.484.158.184.038.404.058.66.058h.14zM16.91 24.462c.353 0 .724-.02 1.113-.061.39-.04.776-.11 1.157-.207a6.43 6.43 0 001.096-.387c.349-.16.66-.36.931-.6.272-.239.493-.522.663-.848.17-.327.268-.703.293-1.13.004-.04.006-.079.006-.115 0-.268-.051-.493-.152-.676a1.426 1.426 0 00-.475-.502 2.581 2.581 0 00-.67-.301 13.204 13.204 0 00-.736-.195c-.2-.053-.39-.098-.573-.137a2.383 2.383 0 01-.483-.152.917.917 0 01-.335-.244c-.083-.099-.125-.236-.125-.41 0-.155.033-.314.1-.478.067-.165.156-.325.265-.481a3.11 3.11 0 01.38-.445 3.47 3.47 0 01.451-.37c.156-.108.314-.197.472-.266.158-.069.306-.11.444-.121a2.242 2.242 0 011.345.17l.554-1.46a3.007 3.007 0 00-.52-.22 2.942 2.942 0 00-.511-.116c-.16-.02-.308-.03-.442-.03-.052 0-.105.002-.158.006-.19.008-.377.033-.56.073-.446.098-.858.27-1.236.518a4.32 4.32 0 00-1.661 2.045c-.167.422-.26.856-.28 1.302 0 .406.06.743.182 1.01.122.269.29.49.505.664.216.175.47.316.761.423.292.108.609.204.95.29.122.032.248.063.38.094.132.03.253.06.362.091.11.03.201.062.274.094.073.033.112.067.116.104-.024.183-.139.36-.344.533a3.032 3.032 0 01-.822.465 6.179 6.179 0 01-1.21.332 8.556 8.556 0 01-1.507.125 4.71 4.71 0 01-1.279-.165 2.746 2.746 0 01-.995-.496 1.836 1.836 0 01-.578-.76 2.354 2.354 0 01-.168-.862c0-.126.009-.256.025-.39.036-.288.08-.56.13-.818.051-.258.11-.515.174-.77.065-.256.138-.517.22-.782.08-.266.17-.551.267-.856l-1.339-.541a11.713 11.713 0 00-.22.615c-.056.174-.119.377-.188.608a17.71 17.71 0 00-.383 1.534 10.03 10.03 0 00-.134.816 5.709 5.709 0 00-.049.73c0 .442.06.846.183 1.211.182.56.476 1.028.882 1.404.406.375.904.658 1.495.849a6.34 6.34 0 001.957.286z"/></g></g></svg>