<svg xmlns="http://www.w3.org/2000/svg" width="200" height="200"><g fill="none" fill-rule="evenodd"><path d="M0 0h200v200H0z"/><g fill-rule="nonzero"><path fill="#000000" fill-opacity=".24" d="M44 76h112v48H44z"/><path fill="#000000" fill-opacity=".24" d="M44 122h112v2H44z"/><path fill="#FFF" d="M109.944 104l1.656-.014c.733 0 1.384-.017 1.955-.052.57-.035 1.077-.081 1.52-.14a15.582 15.582 0 002.048-.4l-.166-1.321-.512.104a8.2 8.2 0 01-.487.084 14.262 14.262 0 01-1.27.118c-.25 0-.49-.035-.723-.104a2.247 2.247 0 01-.748-.376 1.937 1.937 0 01-.518-.605 1.62 1.62 0 01-.195-.793c0-.213.035-.419.105-.616.07-.197.172-.372.31-.525.136-.153.307-.275.51-.365.205-.09.441-.136.71-.136.237 0 .45.024.64.073.19.049.365.116.525.202.16.086.31.185.449.299.14.114.28.235.424.365l.856-1.05a17.654 17.654 0 00-.62-.487 4.226 4.226 0 00-.646-.4 3.52 3.52 0 00-1.628-.365c-.431 0-.829.08-1.193.24a2.971 2.971 0 00-1.58 1.607c-.15.364-.225.75-.225 1.158 0 .417.068.798.205 1.14.137.344.375.669.713.975l-2.115.02V104zm-2.692-6.414l1.134-1.134-1.14-1.14-1.135 1.133 1.141 1.141zM105.297 104c.682 0 1.255-.07 1.719-.212.463-.142.841-.358 1.134-.65.199.254.454.462.765.622.31.16.7.24 1.168.24h.14v-1.363h-.14c-.236 0-.43-.054-.58-.16a1.141 1.141 0 01-.355-.404 1.905 1.905 0 01-.185-.529 4.913 4.913 0 01-.076-.542 21.336 21.336 0 00-.125-1.204 6.534 6.534 0 00-.202-.946l-1.308.369c.102.352.173.665.212.939.04.274.06.543.06.807 0 .552-.177.968-.53 1.249-.352.28-.917.42-1.697.42h-.257V104h.257zm-6.51 4.883a8.524 8.524 0 001.964-.556 7.19 7.19 0 001.726-1.016 6.198 6.198 0 001.321-1.45 5.255 5.255 0 00.755-1.861h.765v-1.363h-.66a6.622 6.622 0 00-.376-2.02 5.342 5.342 0 00-.404-.881 4.395 4.395 0 00-.528-.738c-.552-.593-1.158-.89-1.816-.89a1.77 1.77 0 00-.86.226 2.61 2.61 0 00-.768.664c-.195.25-.364.549-.508.894a3.926 3.926 0 00-.275.925c-.039.272-.059.495-.059.672 0 .185.017.37.049.556.056.353.19.663.404.932.482.599 1.226.928 2.233.988.255.023.483.035.685.035h.79c-.052.348-.194.701-.428 1.06-.235.36-.554.7-.957 1.02-.403.32-.888.608-1.454.863a8.976 8.976 0 01-1.92.598l.32 1.342zm3.754-6.26h-.047c-.204 0-.422-.007-.654-.021a3.506 3.506 0 01-.296-.032 2.472 2.472 0 01-.347-.076 1.635 1.635 0 01-.334-.14.819.819 0 01-.261-.225.651.651 0 01-.143-.33 2.434 2.434 0 01-.024-.31c0-.102.007-.207.02-.313a3.16 3.16 0 01.133-.595c.065-.202.145-.384.24-.546.095-.163.203-.296.323-.4a.577.577 0 01.383-.157c.083 0 .162.014.236.042.075.028.145.064.213.108.067.044.13.093.187.146.058.053.11.103.157.15.116.134.228.293.337.476.11.183.208.388.296.616.088.227.16.473.216.737.055.264.09.545.104.842-.18.014-.344.022-.49.024l-.296.004h.047zm-5.689 1.44c.065-.77.103-1.496.115-2.178.012-.682.017-1.226.017-1.635 0-.677-.007-1.4-.02-2.17a63.584 63.584 0 00-.355-5.064l-1.364.208c.158 1.461.283 3.316.376 5.566.014.384.02.793.02 1.224 0 .357-.004.73-.013 1.12a64.7 64.7 0 01-.146 2.852l1.37.077zm-8.292-3.423l1.134-1.134-1.141-1.14-1.134 1.133 1.141 1.141zm-.306 8.14c.57 0 1.112-.061 1.624-.182.513-.12.98-.305 1.402-.553a4.23 4.23 0 001.11-.942c.317-.38.564-.833.74-1.357.167-.5.258-.9.272-1.2.014-.299.02-.5.02-.602a7.175 7.175 0 00-.392-2.361 11.15 11.15 0 00-.397-1.016 7.888 7.888 0 00-.525-.991l-1.155.737c.005 0 .048.068.129.205.08.137.175.325.281.564.107.239.215.52.324.841a6.615 6.615 0 01.344 2.119v.083c-.009.404-.076.805-.201 1.204a2.69 2.69 0 01-.46.873 2.733 2.733 0 01-.758.654 3.688 3.688 0 01-1.05.407c-.4.092-.844.139-1.336.139a3.94 3.94 0 01-1.054-.129 3.297 3.297 0 01-.807-.334 2.716 2.716 0 01-.588-.462 3.029 3.029 0 01-.403-.526 2.535 2.535 0 01-.24-.514 2.744 2.744 0 01-.108-.435 4.08 4.08 0 01-.035-.821c.014-.278.046-.552.094-.821.049-.269.11-.528.185-.776.074-.248.151-.476.233-.685.08-.209.16-.39.24-.546a2.8 2.8 0 01.208-.358l-1.106-.814c-.19.315-.372.667-.546 1.054-.174.387-.32.796-.438 1.228a6.484 6.484 0 00-.22 1.123 6.142 6.142 0 00.02 1.61c.094.608.274 1.137.54 1.587.267.45.602.822 1.006 1.116.403.295.864.515 1.38.661.518.146 1.073.22 1.667.22z"/></g></g></svg>