<svg xmlns="http://www.w3.org/2000/svg" xmlns:xlink="http://www.w3.org/1999/xlink" width="422" height="344"><defs><filter id="d" width="113.9%" height="117.6%" x="-6.9%" y="-7.4%" filterUnits="objectBoundingBox"><feOffset dy="4" in="SourceAlpha" result="shadowOffsetOuter1"/><feGaussianBlur in="shadowOffsetOuter1" result="shadowBlurOuter1" stdDeviation="8"/><feColorMatrix in="shadowBlurOuter1" values="0 0 0 0 0 0 0 0 0 0 0 0 0 0 0 0 0 0 0.12 0"/></filter><filter id="f" width="110.7%" height="113.5%" x="-5.3%" y="-5.4%" filterUnits="objectBoundingBox"><feOffset dy="2" in="SourceAlpha" result="shadowOffsetOuter1"/><feGaussianBlur in="shadowOffsetOuter1" result="shadowBlurOuter1" stdDeviation="4"/><feColorMatrix in="shadowBlurOuter1" result="shadowMatrixOuter1" values="0 0 0 0 0 0 0 0 0 0 0 0 0 0 0 0 0 0 0.08 0"/><feOffset dy="4" in="SourceAlpha" result="shadowOffsetOuter2"/><feGaussianBlur in="shadowOffsetOuter2" result="shadowBlurOuter2" stdDeviation="6"/><feColorMatrix in="shadowBlurOuter2" result="shadowMatrixOuter2" values="0 0 0 0 0 0 0 0 0 0 0 0 0 0 0 0 0 0 0.04 0"/><feOffset in="SourceAlpha" result="shadowOffsetOuter3"/><feGaussianBlur in="shadowOffsetOuter3" result="shadowBlurOuter3" stdDeviation="2"/><feColorMatrix in="shadowBlurOuter3" result="shadowMatrixOuter3" values="0 0 0 0 0 0 0 0 0 0 0 0 0 0 0 0 0 0 0.04 0"/><feMerge><feMergeNode in="shadowMatrixOuter1"/><feMergeNode in="shadowMatrixOuter2"/><feMergeNode in="shadowMatrixOuter3"/></feMerge></filter><filter id="h" width="101.9%" height="110.9%" x="-.9%" y="-3.9%" filterUnits="objectBoundingBox"><feOffset dy="1" in="SourceAlpha" result="shadowOffsetOuter1"/><feGaussianBlur in="shadowOffsetOuter1" result="shadowBlurOuter1" stdDeviation="1"/><feComposite in="shadowBlurOuter1" in2="SourceAlpha" operator="out" result="shadowBlurOuter1"/><feColorMatrix in="shadowBlurOuter1" values="0 0 0 0 0 0 0 0 0 0 0 0 0 0 0 0 0 0 0.12 0"/></filter><path id="c" d="M8 0h359a8 8 0 018 8v288H0V8a8 8 0 018-8z"/><path id="g" d="M8 0h359a8 8 0 018 8v288H0V8a8 8 0 018-8z"/><path id="i" d="M0 0h375v64H0z"/><rect id="a" width="422" height="344" x="0" y="0" rx="4"/></defs><g fill="none" fill-rule="evenodd"><mask id="b" fill="#fff"><use xlink:href="#a"/></mask><use fill="#000" fill-opacity="0" xlink:href="#a"/><g mask="url(#b)"><g transform="translate(24 48)"><mask id="e" fill="#fff"><use xlink:href="#c"/></mask><use fill="#000" filter="url(#d)" xlink:href="#c"/><g mask="url(#e)"><use fill="#000" filter="url(#f)" xlink:href="#g"/><use fill="#FFF" xlink:href="#g"/></g><rect width="342" height="175" x="16.5" y="130.5" fill="#FFF" stroke="#000000" stroke-opacity=".12" mask="url(#e)" rx="4"/><path fill="#000000" fill-opacity=".12" mask="url(#e)" d="M32 289h311v1H32z"/><path fill="#000000" fill-opacity=".87" fill-rule="nonzero" d="M35.798 270.18c0-.403-.003-.827-.01-1.272a46.023 46.023 0 00-.125-2.748c-.035-.464-.08-.914-.136-1.35a15.886 15.886 0 00-.58-2.723 9.204 9.204 0 00-.95-2.104l-1.155.737c.348.547.625 1.178.831 1.892.206.714.365 1.482.477 2.303.11.82.183 1.677.215 2.57.033.893.049 1.792.049 2.696h1.384zm4.216-.048c0-.946-.015-1.894-.045-2.845-.03-.95-.122-1.9-.275-2.845a2.344 2.344 0 00.87.139c.18 0 .357-.016.528-.049.172-.032.334-.086.487-.16a1.699 1.699 0 00.772-.765c.116.167.24.306.369.417a1.743 1.743 0 001.162.432c.366 0 .68-.069.942-.206.262-.136.475-.325.637-.567.162-.24.275-.505.337-.793a4.044 4.044 0 00.087-1.099 19.882 19.882 0 00-.07-.928 13.184 13.184 0 00-.16-1.11l-1.3.257c.074.404.12.748.135 1.033.017.286.025.533.025.741 0 .107-.005.233-.014.38-.01.146-.034.286-.073.42a.871.871 0 01-.188.345.458.458 0 01-.358.142.4.4 0 01-.303-.139 1.289 1.289 0 01-.226-.362 2.98 2.98 0 01-.163-.497 7.864 7.864 0 01-.181-1.054 52.649 52.649 0 01-.039-.382 7.515 7.515 0 00-.038-.373 4.336 4.336 0 01-.031-.407l-1.378.167a13.73 13.73 0 01.045.605 29.46 29.46 0 01.025.668c-.005.153-.02.338-.045.553a2.74 2.74 0 01-.15.627 1.504 1.504 0 01-.31.514.685.685 0 01-.525.212c-.208 0-.38-.026-.514-.08a.92.92 0 01-.359-.26 2.107 2.107 0 01-.295-.473 24.182 24.182 0 01-.327-.724l-.327-.703-.143-.285-.142-.285c-.047-.093-.09-.18-.133-.26a4.5 4.5 0 00-.11-.206l-1.26.744c.107.167.205.343.296.529.09.186.189.406.295.66.376.966.654 2.05.835 3.257.181 1.205.271 2.483.271 3.833 0 .185 0 .38-.003.584a16.53 16.53 0 01-.017.598h1.384zm12.473.216l.842-1.085c-.209-.25-.434-.942-.675-2.073-.06-.283-.114-.557-.16-.821a11.674 11.674 0 01-.115-.846c-.03-.299-.05-.606-.062-.921-.012-.316-.018-.64-.018-.974v-.341c-.005-.5-.032-.944-.083-1.329-.135-1.02-.425-1.76-.87-2.219a1.99 1.99 0 00-1.454-.619 1.91 1.91 0 00-1.057.32 2.605 2.605 0 00-.55.487c-.162.19-.302.396-.42.62a4.34 4.34 0 00-.456 1.433 3.262 3.262 0 00-.028.417c0 .194.02.377.062.55.07.287.185.538.345.754.16.216.358.396.595.542.236.147.497.258.782.334.285.077.52.117.703.122.183.005.295.007.337.007.274 0 .55-.023.828-.07.005.548.045 1.105.122 1.674.076.568.193 1.15.351 1.75.297 1.14.624 1.903.981 2.288zm-2.324-7.005c-.11 0-.22-.005-.326-.014-.863-.088-1.294-.425-1.294-1.009 0-.046.002-.093.007-.14a2.75 2.75 0 01.107-.507 2.57 2.57 0 01.24-.556c.102-.177.228-.325.376-.446a.802.802 0 01.522-.18c.148 0 .282.041.4.125.118.083.221.189.31.316.087.128.16.267.218.418.058.15.104.293.136.427.047.21.085.435.115.679.03.243.05.506.059.79a4.197 4.197 0 01-.87.097zm11.792 6.88l1.148-.71a41.217 41.217 0 01-1.193-1.969 18.078 18.078 0 01-1.072-2.233 16.122 16.122 0 01-.772-2.532 13.307 13.307 0 01-.296-2.866h-1.377a13.293 13.293 0 01-.174 1.906 16.594 16.594 0 01-.396 1.781 17.615 17.615 0 01-.557 1.66 31.181 31.181 0 01-1.35 2.957c-.236.45-.46.883-.674 1.296l1.148.71c.185-.288.393-.654.622-1.1.23-.445.464-.937.703-1.478a35.406 35.406 0 001.332-3.523c.032.134.065.255.097.361l.098.314c.032.102.068.206.108.313l.128.354a21.29 21.29 0 001.016 2.286c.399.776.886 1.6 1.46 2.473zm3.082.75l4.737-12.347h-1.231l-4.752 12.348h1.246zm8.75-2.385c.325 0 .63-.062.916-.185a2.396 2.396 0 001.263-1.252c.124-.285.187-.592.187-.921 0-.325-.063-.63-.188-.915a2.438 2.438 0 00-1.262-1.263 2.25 2.25 0 00-.915-.188c-.33 0-.637.063-.922.188a2.396 2.396 0 00-1.252 1.263c-.123.285-.184.59-.184.915 0 .329.061.636.184.921a2.376 2.376 0 001.252 1.252c.285.123.593.185.922.185zm0-1.134c-.166 0-.324-.033-.472-.097a1.259 1.259 0 01-.654-.654 1.192 1.192 0 010-.95 1.248 1.248 0 01.654-.657 1.192 1.192 0 01.95 0 1.248 1.248 0 01.657.657 1.192 1.192 0 010 .95 1.259 1.259 0 01-.658.654c-.15.064-.31.097-.476.097zm11.048 2.769l1.148-.71a41.217 41.217 0 01-1.193-1.969 18.078 18.078 0 01-1.072-2.233 16.122 16.122 0 01-.772-2.532 13.307 13.307 0 01-.296-2.866h-1.377a13.293 13.293 0 01-.174 1.906 16.594 16.594 0 01-.396 1.781 17.615 17.615 0 01-.557 1.66 31.181 31.181 0 01-1.35 2.957c-.236.45-.46.883-.674 1.296l1.148.71c.185-.288.393-.654.622-1.1.23-.445.464-.937.703-1.478a35.406 35.406 0 001.332-3.523c.032.134.065.255.097.361l.098.314c.032.102.068.206.108.313l.128.354a21.29 21.29 0 001.016 2.286c.399.776.886 1.6 1.46 2.473zm3.082.75l4.737-12.347h-1.231l-4.752 12.348h1.246zm8.646-.834c0-.403-.003-.829-.01-1.276a46.011 46.011 0 00-.125-2.748 26.16 26.16 0 00-.136-1.346l-.055-.383c.176.07.353.12.532.15.178.03.379.045.601.045.812 0 1.454-.285 1.927-.856.487-.566.74-1.384.759-2.455v-.181c0-.12-.003-.24-.007-.355a9.205 9.205 0 00-.035-.449 5.19 5.19 0 00-.042-.32 1.87 1.87 0 01-.02-.135l-1.364.25a6.148 6.148 0 01.097 1.037c0 .153-.007.31-.02.473-.015.162-.039.32-.074.473-.034.153-.08.298-.135.434a1.282 1.282 0 01-.216.359c-.195.236-.485.354-.87.354a1.67 1.67 0 01-.657-.114 1.42 1.42 0 01-.473-.33 2.29 2.29 0 01-.362-.512 9.559 9.559 0 01-.316-.664 28.91 28.91 0 01-.216-.48 15.459 15.459 0 00-.379-.804 5.204 5.204 0 00-.205-.365l-1.162.737c.14.241.264.476.376.703a9.513 9.513 0 01.803 2.452c.118.628.208 1.287.268 1.976.06.688.097 1.398.111 2.128.014.73.021 1.465.021 2.202h1.384zm8.014-1.551c.325 0 .63-.062.915-.185a2.396 2.396 0 001.263-1.252c.125-.285.188-.592.188-.921 0-.325-.063-.63-.188-.915a2.438 2.438 0 00-1.263-1.263 2.25 2.25 0 00-.915-.188c-.329 0-.636.063-.921.188a2.396 2.396 0 00-1.253 1.263c-.122.285-.184.59-.184.915 0 .329.062.636.184.921a2.376 2.376 0 001.253 1.252c.285.123.592.185.921.185zm0-1.134c-.167 0-.324-.033-.473-.097a1.259 1.259 0 01-.654-.654 1.192 1.192 0 010-.95 1.248 1.248 0 01.654-.657 1.192 1.192 0 01.95 0 1.248 1.248 0 01.657.657 1.192 1.192 0 010 .95 1.259 1.259 0 01-.657.654c-.15.064-.31.097-.477.097zm17.287-2.54v-1.182h-7.826v1.183h7.826zm9.781 3.674c.325 0 .63-.062.915-.185a2.396 2.396 0 001.263-1.252c.125-.285.187-.592.187-.921 0-.325-.062-.63-.187-.915a2.438 2.438 0 00-1.263-1.263 2.25 2.25 0 00-.915-.188c-.33 0-.636.063-.922.188a2.396 2.396 0 00-1.252 1.263c-.123.285-.184.59-.184.915 0 .329.061.636.184.921a2.376 2.376 0 001.252 1.252c.286.123.593.185.922.185zm0-1.134c-.167 0-.324-.033-.473-.097a1.259 1.259 0 01-.654-.654 1.192 1.192 0 010-.95 1.248 1.248 0 01.654-.657 1.192 1.192 0 01.95 0 1.248 1.248 0 01.657.657 1.192 1.192 0 010 .95 1.259 1.259 0 01-.657.654c-.151.064-.31.097-.477.097zm9.218 2.894l.841-1.085c-.208-.25-.433-.942-.674-2.073-.06-.283-.114-.557-.16-.821a11.674 11.674 0 01-.115-.846c-.03-.299-.051-.606-.063-.921-.011-.316-.017-.64-.017-.974v-.341c-.005-.5-.033-.944-.084-1.329-.134-1.02-.424-1.76-.87-2.219a1.99 1.99 0 00-1.453-.619 1.91 1.91 0 00-1.058.32 2.605 2.605 0 00-.55.487c-.161.19-.302.396-.42.62a4.34 4.34 0 00-.456 1.433 3.262 3.262 0 00-.027.417c0 .194.02.377.062.55.07.287.184.538.344.754.16.216.359.396.595.542.237.147.498.258.783.334.285.077.52.117.702.122.184.005.296.007.338.007.273 0 .55-.023.828-.07.004.548.045 1.105.121 1.674.077.568.194 1.15.352 1.75.297 1.14.624 1.903.98 2.288zm-2.324-7.005c-.111 0-.22-.005-.327-.014-.862-.088-1.294-.425-1.294-1.009 0-.046.003-.093.007-.14a2.75 2.75 0 01.108-.507 2.57 2.57 0 01.24-.556c.102-.177.227-.325.376-.446a.802.802 0 01.521-.18c.149 0 .282.041.4.125.119.083.222.189.31.316.088.128.161.267.22.418.057.15.102.293.135.427.046.21.084.435.115.679.03.243.05.506.059.79a4.197 4.197 0 01-.87.097zm6.184 1.92c.297 0 .531-.084.703-.25.158-.154.237-.358.237-.613 0-.269-.08-.485-.237-.647-.167-.172-.401-.257-.703-.257-.296 0-.526.085-.688.257-.153.162-.23.378-.23.647 0 .255.077.46.23.612.167.167.396.25.688.25zm-.006 4.723c.296 0 .53-.083.702-.25a.828.828 0 00.237-.613c0-.269-.08-.484-.237-.646-.171-.172-.406-.258-.702-.258-.297 0-.527.086-.69.258-.152.162-.229.377-.229.646 0 .256.077.46.23.613.162.167.392.25.689.25zm8.521.23a2.113 2.113 0 001.075-.282c.308-.183.564-.422.765-.717.202-.294.354-.627.456-.998.102-.37.153-.749.153-1.134 0-.482-.067-.946-.202-1.391-.408-1.29-1.066-2.514-1.975-3.673a15.233 15.233 0 00-1.27-1.409 52.419 52.419 0 00-1.38-1.304l-.975.974.258.257a34.212 34.212 0 00-.901 1.51c-.262.468-.49.912-.682 1.332-.192.42-.355.822-.487 1.207-.132.385-.24.765-.323 1.14a6.99 6.99 0 00-.122.776 6.928 6.928 0 00-.038.672c0 .134.004.271.013.41.019.334.07.659.154.974.083.315.21.595.382.838.172.244.395.44.671.588.276.148.616.223 1.02.223.361 0 .692-.088.99-.265.3-.176.55-.415.749-.716l.02.028c.195.31.433.548.714.713.28.164.59.247.928.247h.007zm0-1.37a.695.695 0 01-.386-.175 1.28 1.28 0 01-.278-.365 2.397 2.397 0 01-.188-.49 4.47 4.47 0 01-.111-.546 6.344 6.344 0 01-.052-.533 8.404 8.404 0 01-.014-.445l-1.12-.014c-.019.112-.04.252-.066.421-.026.17-.057.347-.094.532a5.667 5.667 0 01-.143.56c-.058.188-.13.357-.216.508-.085.15-.189.275-.31.372a.697.697 0 01-.43.153.664.664 0 01-.463-.16 1.02 1.02 0 01-.271-.417 2.071 2.071 0 01-.119-.522 5.213 5.213 0 01-.024-.473 5.44 5.44 0 01.146-1.238c.074-.325.168-.655.282-.991.113-.337.254-.688.42-1.054.168-.367.362-.754.585-1.162.223-.408.48-.849.772-1.322.26.25.531.536.814.856.283.32.559.673.828 1.06.269.388.522.807.758 1.256.237.45.439.933.605 1.447.051.158.089.32.112.487a3.54 3.54 0 01-.01 1.047c-.03.202-.085.39-.164.564a1.27 1.27 0 01-.327.441.878.878 0 01-.536.202zm9.593 1.37a2.113 2.113 0 001.075-.282c.308-.183.564-.422.765-.717.202-.294.354-.627.456-.998.102-.37.153-.749.153-1.134 0-.482-.067-.946-.202-1.391-.408-1.29-1.066-2.514-1.975-3.673a15.233 15.233 0 00-1.27-1.409 52.417 52.417 0 00-1.38-1.304l-.975.974.258.257a34.212 34.212 0 00-.901 1.51c-.262.468-.49.912-.682 1.332-.192.42-.355.822-.487 1.207-.132.385-.24.765-.323 1.14a6.99 6.99 0 00-.122.776 6.927 6.927 0 00-.038.672c0 .134.004.271.014.41.018.334.07.659.153.974.083.315.21.595.382.838.172.244.396.44.671.588.276.148.616.223 1.02.223.361 0 .692-.088.99-.265.3-.176.55-.415.749-.716l.02.028c.195.31.433.548.714.713.28.164.59.247.928.247h.007zm0-1.37a.695.695 0 01-.386-.175 1.28 1.28 0 01-.278-.365 2.397 2.397 0 01-.188-.49 4.47 4.47 0 01-.111-.546 6.345 6.345 0 01-.052-.533 8.405 8.405 0 01-.014-.445l-1.12-.014c-.019.112-.04.252-.066.421-.026.17-.057.347-.094.532a5.667 5.667 0 01-.143.56c-.058.188-.13.357-.216.508-.085.15-.189.275-.31.372a.697.697 0 01-.43.153.664.664 0 01-.463-.16 1.02 1.02 0 01-.271-.417 2.071 2.071 0 01-.119-.522 5.213 5.213 0 01-.024-.473 5.44 5.44 0 01.146-1.238c.074-.325.168-.655.282-.991.114-.337.254-.688.42-1.054.168-.367.363-.754.585-1.162.223-.408.48-.849.772-1.322.26.25.531.536.814.856.283.32.56.673.828 1.06.269.388.522.807.758 1.256.237.45.439.933.606 1.447.05.158.088.32.11.487a3.54 3.54 0 01-.01 1.047c-.03.202-.084.39-.163.564a1.27 1.27 0 01-.327.441.878.878 0 01-.536.202z" mask="url(#e)"/><path fill="#000000" fill-opacity=".56" fill-rule="nonzero" d="M340.607 263.76l1.134-1.134-1.141-1.14-1.134 1.133 1.141 1.141zm-3.04 11.22c.39-.19.773-.404 1.151-.643.378-.238.738-.5 1.079-.782a9.21 9.21 0 00.946-.905c.29-.32.54-.656.75-1.008.212-.353.377-.718.495-1.096.118-.378.177-.769.177-1.172 0-.204-.016-.413-.048-.626a9.948 9.948 0 00-.122-.65 19.8 19.8 0 00-.16-.668 95.332 95.332 0 01-.17-.672 10.346 10.346 0 00-.175-.636c-.064-.211-.13-.426-.194-.644l-1.322.418c.125.39.243.779.355 1.168.05.19.104.385.16.585.055.2.106.399.153.598.046.2.084.394.115.584.03.19.045.371.045.543 0 .45-.11.886-.327 1.308-.218.422-.507.82-.866 1.196-.36.376-.769.723-1.228 1.04-.46.318-.932.597-1.42.839l.606 1.224zm-7.812-4.98c.283 0 .55-.014.8-.042.25-.028.487-.08.71-.16.222-.079.432-.192.629-.34.197-.149.386-.346.567-.592.213.158.445.312.696.463.25.15.51.278.782.382a3.005 3.005 0 001.124.226c.19 0 .38-.025.57-.076a1.66 1.66 0 00.765-.449c.209-.215.374-.468.494-.758s.195-.555.223-.797c.028-.24.042-.436.042-.584 0-.167-.012-.33-.035-.487a4.21 4.21 0 00-.247-.918 2.864 2.864 0 00-.477-.807c-.2-.237-.44-.428-.72-.574a2.071 2.071 0 00-.97-.22c-.306 0-.574.062-.804.185-.23.123-.433.283-.612.48a3.668 3.668 0 00-.48.675c-.141.253-.275.509-.4.769-.144.287-.286.567-.428.838a3.398 3.398 0 01-.5.723c-.193.211-.426.38-.7.508-.273.128-.616.192-1.03.192h-.138V270h.139zm5.287-1.447c-.186 0-.394-.046-.626-.14-.348-.138-.733-.363-1.155-.674l.376-.758c.115-.227.219-.424.31-.591a3.74 3.74 0 01.256-.418.985.985 0 01.244-.247.466.466 0 01.26-.08c.14 0 .263.028.37.084.106.055.199.126.278.212.079.086.146.18.202.285a2.264 2.264 0 01.215.567c.019.079.03.135.035.167.019.125.028.246.028.362a2.082 2.082 0 01-.129.703c-.053.138-.117.252-.191.34a.444.444 0 01-.23.16 1.003 1.003 0 01-.243.028zM329.894 270v-1.363h-.14a2.77 2.77 0 01-.754-.09c-.211-.061-.37-.145-.477-.251a.58.58 0 01-.184-.359 3.758 3.758 0 01-.024-.441v-3.493a48.55 48.55 0 00-.066-2.546 31.39 31.39 0 00-.077-1.12c-.03-.343-.066-.633-.108-.87l-1.363.251c.042.218.078.498.108.839.03.34.055.713.076 1.116.021.404.036.82.045 1.252.01.432.014.847.014 1.245.005.409.007.796.007 1.162 0 .371-.002.7-.007.988a211.356 211.356 0 00-.013.957v.08c0 .11.002.244.006.4a2.686 2.686 0 00.247 1.012c.082.176.199.34.352.494.25.25.555.436.914.556.36.12.795.181 1.305.181h.139zm-10.115-3.36l1.134-1.134-1.14-1.14-1.135 1.133 1.141 1.141zm-.306 8.14c.57 0 1.112-.061 1.624-.182.513-.12.98-.305 1.402-.553a4.23 4.23 0 001.11-.942c.317-.38.564-.833.74-1.357.168-.5.258-.9.272-1.2.014-.299.02-.5.02-.602a7.175 7.175 0 00-.392-2.361 11.15 11.15 0 00-.397-1.016 7.888 7.888 0 00-.525-.991l-1.155.737c.005 0 .048.068.129.205.081.137.175.325.282.564.106.239.214.52.323.841a6.615 6.615 0 01.344 2.119v.083c-.009.404-.076.805-.201 1.204a2.69 2.69 0 01-.46.873 2.733 2.733 0 01-.758.654 3.688 3.688 0 01-1.05.407c-.399.092-.844.139-1.336.139a3.94 3.94 0 01-1.054-.129 3.297 3.297 0 01-.807-.334 2.716 2.716 0 01-.587-.462 3.029 3.029 0 01-.404-.526 2.535 2.535 0 01-.24-.514 2.744 2.744 0 01-.108-.435 4.08 4.08 0 01-.035-.821c.014-.278.046-.552.094-.821.049-.269.11-.528.185-.776.074-.248.152-.476.233-.685.08-.209.16-.39.24-.546a2.8 2.8 0 01.208-.358l-1.106-.814c-.19.315-.372.667-.546 1.054-.174.387-.32.796-.438 1.228a6.484 6.484 0 00-.22 1.123 6.142 6.142 0 00.02 1.61c.094.608.274 1.137.54 1.587.268.45.603.822 1.006 1.116.404.295.864.515 1.381.661.517.146 1.072.22 1.666.22zM304.871 270c.38 0 .748-.026 1.103-.077.355-.05.68-.139.977-.264.297-.125.56-.292.79-.5.23-.21.414-.471.553-.787.139-.32.209-.69.209-1.113 0-.074-.003-.148-.007-.222-.033-.515-.153-1.109-.362-1.781a9.033 9.033 0 00-.223-.644 14.061 14.061 0 00-.382-.897 1.713 1.713 0 01-.063-.143l-1.238.612.605 1.489c.097.237.172.463.223.678.05.216.08.385.09.508.01.123.014.215.014.275 0 .111-.007.216-.02.313a1.35 1.35 0 01-.105.369 1.089 1.089 0 01-.39.455c-.167.11-.36.192-.577.247-.218.056-.455.09-.71.101-.255.012-.517.018-.786.018h-1.342V270h1.641zm2.65 3.624l1.142-1.14-1.127-1.127-1.141 1.14 1.127 1.127zm-3.04.014l1.142-1.14-1.127-1.135-1.141 1.141 1.127 1.134zm1.552 1.99l1.037-1.037-1.03-1.03-1.037 1.037 1.03 1.03zm-8.591-.494a12.712 12.712 0 001.704-1.03 9.084 9.084 0 001.471-1.304 6.295 6.295 0 001.033-1.54c.26-.553.39-1.132.39-1.74v-.028c.116.125.238.223.365.292a1.686 1.686 0 00.713.209c.102.005.186.007.25.007h.119v-1.363h-.111c-.232 0-.444-.056-.637-.167a1.88 1.88 0 01-.553-.526 4.913 4.913 0 01-.515-.925 15.038 15.038 0 01-.514-1.374l-1.308.404c.055.171.123.386.201.643.08.258.158.532.237.825.079.292.152.59.22.893.066.304.116.588.149.853a2.596 2.596 0 01-.077.94c-.083.31-.21.609-.379.896-.17.288-.377.562-.623.824a8.04 8.04 0 01-.807.748 9.486 9.486 0 01-.932.665c-.329.206-.66.395-.995.567l.599 1.23zm-3.799-5.141c.279 0 .558-.02.839-.063.28-.041.55-.109.81-.201.26-.093.502-.212.727-.359.225-.146.421-.32.588-.525a1.685 1.685 0 00.362-.737c.037-.162.057-.348.059-.557a3.214 3.214 0 00-.08-.702 5.056 5.056 0 00-.317-.908 7.36 7.36 0 00-.508-.932 9.21 9.21 0 00-1.408-1.708 7.958 7.958 0 00-.81-.675 4.88 4.88 0 00-.825-.487l-.563 1.266c.208.093.422.218.64.376.217.158.432.338.643.542.211.205.414.424.609.658.194.234.372.475.532.723.16.248.297.497.41.745.114.248.196.485.247.713.037.167.056.31.056.431 0 .167-.035.292-.104.376-.158.19-.353.331-.585.424-.232.093-.44.147-.626.164a3.996 3.996 0 01-.96-.01 5.912 5.912 0 01-1.62-.443 4.229 4.229 0 01-.62-.323l-.57 1.308c.116.106.299.213.55.32a8.429 8.429 0 001.736.504c.303.053.566.08.788.08zm-4.862.07c.065-.77.103-1.496.115-2.178.011-.682.017-1.226.017-1.635 0-.677-.007-1.4-.02-2.17a63.584 63.584 0 00-.356-5.064l-1.363.208c.158 1.461.283 3.316.376 5.566.013.384.02.793.02 1.224 0 .357-.004.73-.013 1.12a64.701 64.701 0 01-.147 2.852l1.37.077zm-9.336-7.722l1.134-1.134-1.14-1.14-1.135 1.133 1.141 1.14zM276.454 270c.7 0 1.394-.065 2.08-.195.686-.13 1.35-.298 1.993-.504a19.848 19.848 0 001.843-.692c.587-.255 1.136-.51 1.646-.766.347-.171.681-.335 1.001-.49.32-.155.643-.3.967-.435l-.264-1.321c-.288 0-.573-.03-.856-.09a6.842 6.842 0 01-.848-.24 11.25 11.25 0 01-.846-.338c-.28-.126-.557-.253-.83-.383a97.76 97.76 0 00-.745-.34 10.13 10.13 0 00-.724-.296 5.637 5.637 0 00-.699-.206 3.12 3.12 0 00-.678-.076c-.45 0-.878.109-1.284.327-.405.218-.79.545-1.15.98a4.72 4.72 0 00-.331.439c-.095.144-.177.271-.244.383a3.542 3.542 0 00-.212.396l1.252.564a3.686 3.686 0 01.257-.456c.084-.128.184-.264.3-.41.116-.147.247-.283.393-.411.146-.128.305-.233.476-.317.172-.083.353-.125.543-.125.144 0 .301.022.473.066.172.044.354.104.546.178.193.074.392.159.598.254l.637.295c.283.135.57.267.862.397.293.13.599.25.919.362-.529.264-1.079.521-1.649.772-.57.25-1.155.473-1.753.668-.598.194-1.206.35-1.823.47a9.806 9.806 0 01-1.85.177h-1.51V270h1.51zm-11.172-5.711l1.127-1.127-1.141-1.141-1.127 1.134 1.14 1.134zm2.852.014l1.127-1.134-1.141-1.134-1.127 1.127 1.14 1.14zm-2.017 5.718c2.638 0 4.57-.64 5.794-1.92.102.283.246.536.432.758.58.747 1.472 1.127 2.678 1.141h.195v-1.363h-.174c-.756-.005-1.296-.214-1.621-.627a1.391 1.391 0 01-.292-.584 3.455 3.455 0 01-.09-.626v-.056c0-.074.006-.162.02-.264a5.795 5.795 0 01.136-.748c.03-.123.057-.226.08-.31l-1.322-.361c-.06.209-.129.422-.205.64-.077.218-.17.433-.278.647-.11.213-.24.42-.393.619-.154.2-.337.383-.55.55-.478.39-1.076.673-1.795.852-.719.178-1.59.268-2.615.268-1.146-.005-2.077-.126-2.794-.362-.716-.237-1.213-.594-1.492-1.072a1.688 1.688 0 01-.222-.573 3.026 3.026 0 01-.049-.512c0-.06.002-.118.007-.174a2.93 2.93 0 01.087-.598 5.86 5.86 0 01.15-.5c.05-.145.097-.26.139-.349.041-.088.062-.134.062-.139l-1.203-.66c-.023.032-.09.177-.199.434a8.029 8.029 0 00-.337 1.047c-.056.209-.09.4-.104.574a4.625 4.625 0 00-.007.79c.018.24.064.482.135.723.072.241.176.475.31.703.417.705 1.089 1.22 2.014 1.548.925.326 2.093.495 3.503.504z" mask="url(#e)"/><path fill="#000" fill-opacity=".12" mask="url(#e)" d="M32 241h311v1H32z"/><path fill="#000000" fill-opacity=".87" fill-rule="nonzero" d="M77.544 222.18c0-.403-.003-.827-.01-1.272a46.022 46.022 0 00-.125-2.748c-.035-.464-.08-.914-.136-1.35a15.886 15.886 0 00-.58-2.723 9.204 9.204 0 00-.95-2.104l-1.155.737c.348.547.625 1.178.831 1.892.207.714.365 1.482.477 2.303.111.82.183 1.677.215 2.57.033.893.049 1.792.049 2.696h1.384zm7.242.036a2.113 2.113 0 001.075-.282c.308-.183.563-.422.765-.717.202-.294.354-.627.456-.998.102-.37.153-.749.153-1.134 0-.482-.067-.946-.202-1.391-.408-1.29-1.067-2.514-1.976-3.673a15.233 15.233 0 00-1.27-1.409 52.419 52.419 0 00-1.38-1.304l-.974.974.257.257a34.212 34.212 0 00-.9 1.51c-.262.468-.49.912-.682 1.332-.193.42-.355.822-.487 1.207-.132.385-.24.765-.324 1.14a6.99 6.99 0 00-.121.776 6.928 6.928 0 00-.039.672c0 .134.005.271.014.41.019.334.07.659.153.974.084.315.211.595.383.838.172.244.395.44.671.588.276.148.616.223 1.02.223.361 0 .692-.088.99-.265.3-.176.55-.415.749-.716l.02.028c.195.31.433.548.713.713.281.164.59.247.93.247h.006zm0-1.37a.695.695 0 01-.386-.175 1.28 1.28 0 01-.278-.365 2.397 2.397 0 01-.188-.49 4.47 4.47 0 01-.111-.546 6.345 6.345 0 01-.053-.533 8.404 8.404 0 01-.013-.445l-1.12-.014c-.019.112-.041.252-.067.421-.025.17-.056.347-.093.532a5.667 5.667 0 01-.143.56c-.058.188-.13.357-.216.508-.086.15-.189.275-.31.372a.697.697 0 01-.43.153.664.664 0 01-.463-.16 1.02 1.02 0 01-.272-.417 2.071 2.071 0 01-.118-.522 5.213 5.213 0 01-.024-.473 5.44 5.44 0 01.146-1.238c.074-.325.168-.655.282-.991.113-.337.254-.688.42-1.054.168-.367.362-.754.585-1.162.223-.408.48-.849.772-1.322.26.25.531.536.814.856.283.32.559.673.828 1.06.269.388.522.807.758 1.256.237.45.438.933.605 1.447.051.158.088.32.112.487a3.54 3.54 0 01-.01 1.047c-.031.202-.085.39-.164.564a1.27 1.27 0 01-.327.441.878.878 0 01-.536.202zm3.903 2.858l3.346-7.54h-1.002l-3.353 7.54h1.009zm7.59-3.116c.324 0 .629-.062.914-.185a2.396 2.396 0 001.263-1.252c.125-.285.187-.592.187-.921 0-.325-.062-.63-.187-.915a2.438 2.438 0 00-1.263-1.263 2.25 2.25 0 00-.915-.188c-.329 0-.636.063-.921.188a2.396 2.396 0 00-1.253 1.263c-.123.285-.184.59-.184.915 0 .329.061.636.184.921a2.376 2.376 0 001.253 1.252c.285.123.592.185.921.185zm0-1.134c-.168 0-.325-.033-.474-.097a1.259 1.259 0 01-.654-.654 1.192 1.192 0 010-.95 1.248 1.248 0 01.654-.657 1.192 1.192 0 01.95 0 1.248 1.248 0 01.657.657 1.192 1.192 0 010 .95 1.259 1.259 0 01-.657.654c-.15.064-.31.097-.477.097zm6.886 1.134c.325 0 .63-.062.915-.185a2.396 2.396 0 001.263-1.252c.125-.285.187-.592.187-.921 0-.325-.062-.63-.187-.915a2.438 2.438 0 00-1.263-1.263 2.25 2.25 0 00-.915-.188c-.33 0-.636.063-.922.188a2.396 2.396 0 00-1.252 1.263c-.123.285-.184.59-.184.915 0 .329.061.636.184.921a2.376 2.376 0 001.252 1.252c.286.123.593.185.922.185zm0-1.134c-.167 0-.324-.033-.473-.097a1.259 1.259 0 01-.654-.654 1.192 1.192 0 010-.95 1.248 1.248 0 01.654-.657 1.192 1.192 0 01.95 0 1.248 1.248 0 01.657.657 1.192 1.192 0 010 .95 1.259 1.259 0 01-.657.654c-.151.064-.31.097-.477.097zm6.887 1.134c.325 0 .63-.062.915-.185a2.396 2.396 0 001.263-1.252c.125-.285.187-.592.187-.921 0-.325-.062-.63-.187-.915a2.438 2.438 0 00-1.263-1.263 2.25 2.25 0 00-.915-.188c-.33 0-.636.063-.922.188a2.396 2.396 0 00-1.252 1.263c-.123.285-.184.59-.184.915 0 .329.061.636.184.921a2.376 2.376 0 001.252 1.252c.286.123.593.185.922.185zm0-1.134c-.167 0-.324-.033-.473-.097a1.259 1.259 0 01-.654-.654 1.192 1.192 0 010-.95 1.248 1.248 0 01.654-.657 1.192 1.192 0 01.95 0 1.248 1.248 0 01.657.657 1.192 1.192 0 010 .95 1.259 1.259 0 01-.657.654c-.151.064-.31.097-.477.097zm-45.329-5.127l1.127-1.127-1.14-1.14-1.127 1.133 1.14 1.134zm2.853.014l1.127-1.134-1.141-1.134-1.127 1.127 1.14 1.14zM64.543 222c.38 0 .747-.026 1.102-.077.355-.05.68-.139.978-.264.296-.125.56-.292.79-.5.229-.21.413-.471.552-.787.14-.32.209-.69.209-1.113 0-.074-.002-.148-.007-.222-.033-.515-.153-1.109-.362-1.781a9.033 9.033 0 00-.222-.644 14.062 14.062 0 00-.383-.897 1.713 1.713 0 01-.063-.143l-1.238.612.605 1.489c.098.237.172.463.223.678.051.216.081.385.09.508.01.123.014.215.014.275 0 .111-.007.216-.02.313a1.35 1.35 0 01-.105.369 1.089 1.089 0 01-.39.455c-.166.11-.359.192-.577.247-.218.056-.454.09-.71.101-.255.012-.517.018-.786.018h-1.342V222h1.642zm-7.896 4.883a8.524 8.524 0 001.965-.556 7.19 7.19 0 001.725-1.016 6.198 6.198 0 001.322-1.45 5.255 5.255 0 00.755-1.861h.765v-1.363h-.66a6.622 6.622 0 00-.376-2.02 5.342 5.342 0 00-.404-.881 4.395 4.395 0 00-.529-.738c-.551-.593-1.157-.89-1.815-.89a1.77 1.77 0 00-.86.226 2.61 2.61 0 00-.768.664c-.195.25-.364.549-.508.894a3.926 3.926 0 00-.275.925c-.04.272-.059.495-.059.672 0 .185.016.37.049.556.056.353.19.663.403.932.483.599 1.227.928 2.233.988.256.023.484.035.686.035h.79c-.052.348-.194.701-.429 1.06-.234.36-.553.7-.956 1.02-.404.32-.888.608-1.454.863a8.976 8.976 0 01-1.92.598l.32 1.342zm3.755-6.26h-.047c-.204 0-.422-.007-.654-.021a3.506 3.506 0 01-.296-.032 2.472 2.472 0 01-.348-.076 1.635 1.635 0 01-.334-.14.819.819 0 01-.26-.225.651.651 0 01-.143-.33 2.434 2.434 0 01-.024-.31c0-.102.007-.207.02-.313a3.16 3.16 0 01.133-.595c.065-.202.145-.384.24-.546.095-.163.203-.296.323-.4a.577.577 0 01.383-.157c.083 0 .162.014.236.042.075.028.145.064.212.108.068.044.13.093.188.146.058.053.11.103.157.15.116.134.228.293.337.476.11.183.208.388.296.616.088.227.16.473.216.737.055.264.09.545.104.842-.181.014-.344.022-.49.024l-.296.004h.047zM47.68 222c.283 0 .55-.014.8-.042.25-.028.487-.08.71-.16.222-.079.432-.192.63-.34.196-.149.385-.346.566-.592.213.158.445.312.696.463.25.15.511.278.782.382a3.005 3.005 0 001.124.226c.19 0 .38-.025.57-.076a1.66 1.66 0 00.765-.449c.21-.215.374-.468.494-.758.121-.29.195-.555.223-.797.028-.24.042-.436.042-.584 0-.167-.012-.33-.035-.487a4.21 4.21 0 00-.247-.918 2.864 2.864 0 00-.477-.807c-.199-.237-.439-.428-.72-.574a2.071 2.071 0 00-.97-.22c-.306 0-.574.062-.803.185-.23.123-.434.283-.613.48a3.668 3.668 0 00-.48.675c-.141.253-.274.509-.4.769-.143.287-.286.567-.427.838a3.398 3.398 0 01-.501.723c-.193.211-.426.38-.7.508-.273.128-.616.192-1.029.192h-.14V222h.14zm5.287-1.447c-.186 0-.394-.046-.626-.14-.348-.138-.733-.363-1.155-.674l.376-.758c.116-.227.219-.424.31-.591a3.74 3.74 0 01.257-.418.985.985 0 01.243-.247.466.466 0 01.261-.08c.14 0 .262.028.369.084.106.055.2.126.278.212.079.086.146.18.202.285a2.264 2.264 0 01.215.567c.019.079.03.135.035.167.019.125.028.246.028.362a2.082 2.082 0 01-.129.703c-.053.138-.117.252-.191.34a.444.444 0 01-.23.16 1.003 1.003 0 01-.243.028zM47.819 222v-1.363h-.139a2.77 2.77 0 01-.755-.09c-.21-.061-.37-.145-.476-.251a.58.58 0 01-.185-.359 3.758 3.758 0 01-.024-.441v-3.493a48.553 48.553 0 00-.066-2.546c-.021-.403-.046-.776-.077-1.12-.03-.343-.066-.633-.107-.87l-1.364.251c.042.218.078.498.108.839.03.34.056.713.076 1.116.021.404.036.82.046 1.252.009.432.014.847.014 1.245.004.409.007.796.007 1.162 0 .371-.003.7-.007.988a211.402 211.402 0 00-.014 1.037c0 .11.002.244.007.4a2.686 2.686 0 00.247 1.012c.08.176.198.34.35.494.251.25.556.436.916.556.36.12.794.181 1.304.181h.14zm-10.115-3.36l1.134-1.134-1.14-1.14-1.135 1.133 1.141 1.141zm-.306 8.14c.57 0 1.112-.061 1.625-.182.512-.12.98-.305 1.401-.553a4.23 4.23 0 001.11-.942c.318-.38.565-.833.74-1.357.168-.5.258-.9.272-1.2.014-.299.021-.5.021-.602a7.175 7.175 0 00-.393-2.361 11.15 11.15 0 00-.397-1.016 7.888 7.888 0 00-.525-.991l-1.155.737c.005 0 .048.068.13.205.08.137.174.325.28.564.107.239.215.52.324.841a6.615 6.615 0 01.345 2.119v.083c-.01.404-.077.805-.202 1.204a2.69 2.69 0 01-.46.873 2.733 2.733 0 01-.757.654 3.688 3.688 0 01-1.05.407c-.4.092-.845.139-1.337.139a3.94 3.94 0 01-1.053-.129 3.297 3.297 0 01-.807-.334 2.716 2.716 0 01-.588-.462 3.029 3.029 0 01-.404-.526 2.535 2.535 0 01-.24-.514 2.744 2.744 0 01-.108-.435 4.08 4.08 0 01-.034-.821c.014-.278.045-.552.094-.821.048-.269.11-.528.184-.776s.152-.476.233-.685c.081-.209.161-.39.24-.546a2.8 2.8 0 01.209-.358l-1.106-.814c-.19.315-.373.667-.547 1.054-.173.387-.32.796-.438 1.228a6.484 6.484 0 00-.219 1.123 6.142 6.142 0 00.02 1.61c.094.608.273 1.137.54 1.587.267.45.602.822 1.005 1.116.404.295.864.515 1.381.661.517.146 1.073.22 1.666.22z" mask="url(#e)"/><path fill="#000000" fill-opacity=".56" fill-rule="nonzero" d="M338.673 222.02c.162 0 .34-.006.536-.02a5.446 5.446 0 001.134-.205c.176-.054.329-.12.459-.198.487-.26.85-.586 1.088-.978.24-.392.359-.817.359-1.276 0-.613-.214-1.215-.64-1.81a2.929 2.929 0 00-.606-.583 7.993 7.993 0 00-.9-.578c-.341-.19-.712-.38-1.113-.57-.402-.19-.818-.38-1.25-.57l-2.42-.995-.66 1.252.549.215a2.495 2.495 0 00-.717.512c-.2.206-.365.429-.497.667a3.108 3.108 0 00-.386 1.478c0 .34.087.69.26 1.055.174.364.435.734.783 1.11a10.684 10.684 0 01-.883.083c-.172.009-.363.016-.574.02-.211.005-.456.008-.734.008h-.188V222h.188c.33 0 .67-.007 1.022-.02.353-.015.698-.037 1.037-.067.339-.03.662-.07.97-.122a6.64 6.64 0 00.832-.188 5.4 5.4 0 001.165.327c.383.06.778.09 1.186.09zm-2.42-1.905a4.73 4.73 0 01-.502-.38 2.933 2.933 0 01-.414-.438 2.078 2.078 0 01-.281-.497 1.502 1.502 0 01-.105-.557c0-.208.044-.426.132-.653.089-.228.21-.432.366-.613.155-.18.32-.313.497-.396.176-.084.343-.125.501-.125.083 0 .17.009.257.027.2.042.36.118.484.227.123.109.218.234.285.375.067.142.111.29.132.445.021.156.032.303.032.442a2.392 2.392 0 01-.769 1.74c-.174.162-.38.296-.616.403zm2.288.57a3.577 3.577 0 01-.64-.049c.176-.185.336-.389.48-.612.144-.222.265-.448.365-.678.1-.23.177-.458.233-.685.056-.227.084-.438.084-.633 0-.14-.003-.288-.007-.445a2.018 2.018 0 00-.084-.501c.33.153.617.322.863.508.246.185.45.374.615.567.165.192.29.383.373.573.083.19.125.367.125.53 0 .19-.043.371-.129.545a1.192 1.192 0 01-.417.456c-.193.13-.442.233-.748.31a4.652 4.652 0 01-1.113.114zm-9.058-4.925l1.134-1.134-1.14-1.14-1.134 1.133 1.14 1.141zm-2.998 11.374a12.712 12.712 0 001.705-1.03 9.084 9.084 0 001.47-1.304 6.295 6.295 0 001.034-1.54c.26-.553.39-1.132.39-1.74v-.028c.115.125.237.223.365.292a1.686 1.686 0 00.713.209c.102.005.185.007.25.007h.118v-1.363h-.11c-.233 0-.445-.056-.637-.167a1.88 1.88 0 01-.553-.526 4.913 4.913 0 01-.515-.925 15.038 15.038 0 01-.515-1.374l-1.308.404c.056.171.123.386.202.643.079.258.158.532.236.825.08.292.152.59.22.893.067.304.117.588.15.853a2.596 2.596 0 01-.077.94c-.084.31-.21.609-.38.896-.169.288-.376.562-.622.824a8.04 8.04 0 01-.807.748 9.486 9.486 0 01-.932.665c-.33.206-.661.395-.995.567l.598 1.23zM322.374 222c.38 0 .748-.026 1.103-.077.354-.05.68-.139.977-.264.297-.125.56-.292.79-.5.229-.21.413-.471.553-.787.139-.32.208-.69.208-1.113 0-.074-.002-.148-.007-.222-.032-.515-.153-1.109-.361-1.781a9.033 9.033 0 00-.223-.644 14.063 14.063 0 00-.383-.897 1.712 1.712 0 01-.062-.143l-1.239.612.606 1.489c.097.237.171.463.222.678.051.216.081.385.09.508.01.123.015.215.015.275 0 .111-.007.216-.021.313a1.35 1.35 0 01-.105.369 1.089 1.089 0 01-.39.455c-.166.11-.359.192-.577.247-.218.056-.454.09-.71.101-.254.012-.516.018-.785.018h-1.343V222h1.642zm-.348 3.402l1.127-1.127-1.14-1.141-1.128 1.134 1.141 1.134zm2.852.014l1.127-1.134-1.14-1.134-1.128 1.127 1.141 1.14zm-6.838-9.83l1.134-1.134-1.141-1.14-1.134 1.133 1.141 1.141zM316.085 222c.682 0 1.255-.07 1.718-.212.464-.142.842-.358 1.134-.65.2.254.455.462.766.622.31.16.7.24 1.168.24h.14v-1.363h-.14c-.236 0-.43-.054-.58-.16a1.141 1.141 0 01-.355-.404 1.905 1.905 0 01-.185-.529 4.913 4.913 0 01-.076-.542 21.335 21.335 0 00-.125-1.204 6.534 6.534 0 00-.202-.946l-1.308.369c.102.352.173.665.212.939.04.274.06.543.06.807 0 .552-.177.968-.53 1.249-.352.28-.918.42-1.697.42h-.257V222h.257zm.014 0v-1.363h-.139c-.325 0-.58-.046-.765-.136-.186-.09-.334-.261-.445-.511a1.394 1.394 0 01-.063-.185 6.804 6.804 0 01-.111-.483c-.047-.228-.1-.531-.16-.912a45.477 45.477 0 01-.23-1.71 253.002 253.002 0 01-.167-1.597 351.388 351.388 0 00-.076-.72v.007l-1.364.285.024.254.08.775c-.13.047-.282.106-.459.178-.176.072-.363.16-.56.264a8.072 8.072 0 00-.612.362 5.207 5.207 0 00-.612.466c-.197.174-.383.37-.557.588a3.768 3.768 0 00-.448.716 1.566 1.566 0 00-.098.341c-.023.13-.034.258-.034.383v.125c.004.172.033.348.087.529.053.18.144.347.274.5.469.58 1.301.87 2.498.87.227 0 .465-.01.713-.031.248-.021.518-.055.81-.101.246.394.552.677.918.849.242.11.484.182.727.212.244.03.454.045.63.045h.14zm-3.94-2.324h-.032c-.162 0-.322-.009-.48-.027a2.162 2.162 0 01-.511-.108.946.946 0 01-.369-.226.506.506 0 01-.143-.369c0-.148.04-.29.119-.428.078-.137.182-.265.31-.386.127-.12.27-.232.43-.334.16-.102.323-.196.487-.281a7.98 7.98 0 01.477-.23c.153-.067.285-.124.396-.17.075.593.14 1.085.199 1.474.058.39.115.72.17.988-.12.023-.268.044-.442.063a5.215 5.215 0 01-.643.035h.032z" mask="url(#e)"/><path fill="#000000" fill-opacity=".12" mask="url(#e)" d="M32 193h311v1H32z"/><path fill="#000000" fill-opacity=".87" fill-rule="nonzero" d="M68.25 166.41l1.134-1.133-1.14-1.141-1.134 1.134 1.14 1.14zM67.137 174c.38 0 .734-.026 1.061-.077.327-.05.623-.139.887-.264.265-.125.498-.292.7-.5.201-.21.372-.471.51-.787.14-.32.21-.69.21-1.113 0-.074-.003-.148-.008-.222-.032-.515-.153-1.109-.361-1.781a9.033 9.033 0 00-.223-.644 14.062 14.062 0 00-.383-.897 1.713 1.713 0 01-.062-.143l-1.238.612.605 1.489c.097.237.171.463.222.678.051.216.082.385.09.508.01.123.015.215.015.275 0 .111-.007.216-.021.313a1.35 1.35 0 01-.104.369 1.245 1.245 0 01-.348.455c-.14.11-.302.192-.487.247-.186.056-.392.09-.62.101a14.68 14.68 0 01-.744.018h-.807V174h1.106zm-6.894 5.134a12.712 12.712 0 001.705-1.03 9.084 9.084 0 001.471-1.304 6.295 6.295 0 001.033-1.54c.26-.553.39-1.132.39-1.74v-.028c.116.125.237.223.365.292a1.686 1.686 0 00.713.209c.102.005.186.007.25.007h.119v-1.363h-.112c-.231 0-.444-.056-.636-.167a1.88 1.88 0 01-.553-.526 4.913 4.913 0 01-.515-.925 15.038 15.038 0 01-.515-1.374l-1.308.404c.056.171.123.386.202.643.079.258.158.532.237.825.079.292.152.59.219.893.067.304.117.588.15.853a2.596 2.596 0 01-.077.94c-.084.31-.21.609-.38.896-.169.288-.376.562-.622.824a8.04 8.04 0 01-.807.748 9.486 9.486 0 01-.932.665c-.33.206-.66.395-.995.567l.598 1.23zm-3.798-5.141c.278 0 .558-.02.838-.063.281-.041.551-.109.81-.201.26-.093.503-.212.728-.359.225-.146.42-.32.588-.525a1.685 1.685 0 00.362-.737c.037-.162.056-.348.059-.557a3.214 3.214 0 00-.08-.702 5.056 5.056 0 00-.317-.908 7.36 7.36 0 00-.508-.932 9.21 9.21 0 00-1.408-1.708 7.958 7.958 0 00-.81-.675 4.88 4.88 0 00-.825-.487l-.564 1.266c.209.093.422.218.64.376.218.158.433.338.644.542.21.205.414.424.608.658.195.234.373.475.533.723.16.248.296.497.41.745.114.248.196.485.247.713.037.167.056.31.056.431 0 .167-.035.292-.105.376-.157.19-.352.331-.584.424-.232.093-.44.147-.626.164a3.996 3.996 0 01-.96-.01 5.912 5.912 0 01-1.621-.443 4.229 4.229 0 01-.62-.323l-.57 1.308c.116.106.3.213.55.32a8.429 8.429 0 001.736.504c.303.053.567.08.79.08zm-7.798.007c.38 0 .734-.026 1.06-.077.328-.05.623-.139.888-.264.264-.125.497-.292.699-.5.202-.21.372-.471.511-.787.14-.32.209-.69.209-1.113 0-.074-.002-.148-.007-.222-.033-.515-.153-1.109-.362-1.781a9.033 9.033 0 00-.222-.644 14.062 14.062 0 00-.383-.897 1.713 1.713 0 01-.063-.143l-1.238.612.605 1.489c.098.237.172.463.223.678.051.216.081.385.09.508.01.123.014.215.014.275 0 .111-.007.216-.02.313a1.35 1.35 0 01-.105.369 1.245 1.245 0 01-.348.455c-.139.11-.301.192-.487.247-.185.056-.392.09-.619.101a14.68 14.68 0 01-.744.018h-.807V174h1.106zm1.14 3.624l1.135-1.134-1.141-1.14-1.134 1.133 1.14 1.141zM47.82 174v-1.363h-.139a2.77 2.77 0 01-.755-.09c-.21-.061-.37-.145-.476-.251a.58.58 0 01-.185-.359 3.758 3.758 0 01-.024-.441v-3.493a48.553 48.553 0 00-.066-2.546c-.021-.403-.046-.776-.077-1.12-.03-.343-.066-.633-.107-.87l-1.364.251c.042.218.078.498.108.839.03.34.056.713.076 1.116.021.404.036.82.046 1.252.009.432.014.847.014 1.245.004.409.007.796.007 1.162 0 .371-.003.7-.007.988a211.402 211.402 0 00-.014 1.037c0 .11.002.244.007.4a2.686 2.686 0 00.247 1.012c.08.176.198.34.35.494.251.25.556.436.916.556.36.12.794.181 1.304.181h.14zm-10.115-3.36l1.134-1.134-1.14-1.14-1.135 1.133 1.141 1.141zm-.306 8.14c.57 0 1.112-.061 1.625-.182.512-.12.98-.305 1.401-.553a4.23 4.23 0 001.11-.942c.318-.38.565-.833.74-1.357.168-.5.258-.9.272-1.2.014-.299.021-.5.021-.602a7.175 7.175 0 00-.393-2.361 11.15 11.15 0 00-.397-1.016 7.888 7.888 0 00-.525-.991l-1.155.737c.005 0 .048.068.13.205.08.137.174.325.28.564.107.239.215.52.324.841a6.615 6.615 0 01.345 2.119v.083c-.01.404-.077.805-.202 1.204a2.69 2.69 0 01-.46.873 2.733 2.733 0 01-.757.654 3.688 3.688 0 01-1.05.407c-.4.092-.845.139-1.337.139a3.94 3.94 0 01-1.053-.129 3.297 3.297 0 01-.807-.334 2.716 2.716 0 01-.588-.462 3.029 3.029 0 01-.404-.526 2.535 2.535 0 01-.24-.514 2.744 2.744 0 01-.108-.435 4.08 4.08 0 01-.034-.821c.014-.278.045-.552.094-.821.048-.269.11-.528.184-.776s.152-.476.233-.685c.081-.209.161-.39.24-.546a2.8 2.8 0 01.209-.358l-1.106-.814c-.19.315-.373.667-.547 1.054-.173.387-.32.796-.438 1.228a6.484 6.484 0 00-.219 1.123 6.142 6.142 0 00.02 1.61c.094.608.273 1.137.54 1.587.267.45.602.822 1.005 1.116.404.295.864.515 1.381.661.517.146 1.073.22 1.666.22z" mask="url(#e)"/><path fill="#000000" fill-opacity=".56" fill-rule="nonzero" d="M340.106 166.41l1.134-1.133-1.14-1.141-1.135 1.134 1.141 1.14zm-1.113 7.59c.38 0 .734-.026 1.06-.077.328-.05.624-.139.888-.264s.497-.292.699-.5c.202-.21.372-.471.511-.787.14-.32.209-.69.209-1.113 0-.074-.002-.148-.007-.222-.032-.515-.153-1.109-.362-1.781a9.033 9.033 0 00-.222-.644 14.061 14.061 0 00-.383-.897 1.713 1.713 0 01-.063-.143l-1.238.612.605 1.489c.098.237.172.463.223.678.051.216.081.385.09.508.01.123.014.215.014.275 0 .111-.007.216-.02.313a1.35 1.35 0 01-.105.369 1.245 1.245 0 01-.348.455c-.139.11-.301.192-.487.247-.185.056-.391.09-.619.101-.227.012-.475.018-.744.018h-.807V174h1.106zm-7.36 4.883a8.524 8.524 0 001.965-.556 7.19 7.19 0 001.725-1.016 6.198 6.198 0 001.322-1.45A5.255 5.255 0 00337.4 174h.765v-1.363h-.66a6.622 6.622 0 00-.376-2.02 5.342 5.342 0 00-.404-.881 4.395 4.395 0 00-.528-.738c-.552-.593-1.158-.89-1.816-.89a1.77 1.77 0 00-.86.226 2.61 2.61 0 00-.768.664c-.195.25-.364.549-.508.894a3.926 3.926 0 00-.275.925c-.039.272-.059.495-.059.672 0 .185.017.37.049.556.056.353.19.663.403.932.483.599 1.227.928 2.234.988.255.023.483.035.685.035h.79c-.052.348-.194.701-.429 1.06-.234.36-.553.7-.956 1.02-.404.32-.888.608-1.454.863a8.976 8.976 0 01-1.92.598l.32 1.342zm3.755-6.26h-.047c-.204 0-.422-.007-.654-.021a3.506 3.506 0 01-.296-.032 2.472 2.472 0 01-.348-.076 1.635 1.635 0 01-.333-.14.819.819 0 01-.261-.225.651.651 0 01-.143-.33 2.434 2.434 0 01-.024-.31c0-.102.007-.207.02-.313a3.16 3.16 0 01.133-.595c.065-.202.145-.384.24-.546.095-.163.203-.296.323-.4a.577.577 0 01.383-.157c.083 0 .162.014.236.042.075.028.145.064.213.108.067.044.13.093.187.146.058.053.11.103.157.15.116.134.228.293.337.476.11.183.208.388.296.616.088.227.16.473.216.737.055.264.09.545.104.842-.18.014-.344.022-.49.024l-.296.004h.047zm-9.515 6.281c.32 0 .648-.017.984-.052.337-.035.681-.104 1.033-.209a6.115 6.115 0 002.199-1.2l-.8-1.154c-.427.352-.901.625-1.423.817-.522.193-.948.3-1.28.32-.332.021-.562.031-.692.031a5.16 5.16 0 01-1.169-.132 3.747 3.747 0 01-1.325-.577 2.78 2.78 0 01-.88-.985 2.725 2.725 0 01-.306-1.29 2.917 2.917 0 01.17-1.023c.09-.25.202-.478.334-.685.132-.206.279-.393.439-.56a4.99 4.99 0 01.483-.445c.162-.13.319-.239.47-.327a4.59 4.59 0 01.393-.209c.208-.102.412-.196.612-.281.2-.086.418-.166.657-.24.239-.075.508-.144.807-.21.3-.064.65-.129 1.054-.194l.706-.118c.216-.037.404-.069.564-.094.16-.026.285-.046.375-.063.09-.016.14-.024.15-.024l-.292-1.336-1.6.25c-.25.038-.49.056-.717.056a3.38 3.38 0 01-.306-.013 2.818 2.818 0 01-.863-.174 1.597 1.597 0 01-.615-.41 1.167 1.167 0 01-.289-.662 2.397 2.397 0 01-.014-.25 1.471 1.471 0 01.435-1.057c.155-.154.34-.273.556-.359a2.313 2.313 0 01.832-.163c.148 0 .29.02.424.062.181.056.354.13.518.223.165.093.322.2.47.32.148.12.292.239.431.355l1.002-.953a.36.36 0 01-.087-.073 4.871 4.871 0 00-.79-.63c-.7-.445-1.384-.668-2.052-.668h-.139c-.413.019-.811.12-1.196.306a3.36 3.36 0 00-1.002.73 2.795 2.795 0 00-.605.947c-.12.33-.181.638-.181.925 0 .135.011.274.035.417.037.4.145.752.323 1.058.179.306.437.577.776.814-.473.185-.92.414-1.34.685-.42.271-.79.59-1.112.957a4.828 4.828 0 00-.793 1.252 4.94 4.94 0 00-.387 1.565 4.92 4.92 0 00-.02.445c0 .339.037.656.11.953.103.431.265.822.488 1.172.222.35.494.66.814.929.32.269.673.495 1.06.678.388.183.8.321 1.239.414.438.093.882.14 1.332.14zm-14.017-4.82c.431 0 .809-.06 1.134-.181.333-.121.612-.295.834-.522.223-.227.39-.502.501-.824a3.3 3.3 0 00.167-1.082c0-.265-.024-.536-.073-.814a7.696 7.696 0 00-.188-.814 12.238 12.238 0 00-.859-2.17l-1.217.64a12.272 12.272 0 01.588 1.422c.1.295.185.595.257.901.072.306.108.591.108.856a2 2 0 01-.07.55.93.93 0 01-.226.403.764.764 0 01-.355.212 1.566 1.566 0 01-.4.052c-.078 0-.162-.005-.25-.014a.65.65 0 01-.351-.136.847.847 0 01-.23-.292 1.47 1.47 0 01-.125-.41 3.025 3.025 0 01-.038-.49c0-.19.014-.408.041-.651.028-.243.06-.473.094-.689.035-.215.066-.4.094-.553l.035-.222-1.336-.244c-.028.19-.066.414-.114.671a9.558 9.558 0 01-.188.797 7.21 7.21 0 01-.279.807c-.109.264-.236.5-.382.71a2.008 2.008 0 01-.501.507c-.188.13-.4.195-.637.195a.735.735 0 01-.368-.083.622.622 0 01-.23-.223.974.974 0 01-.118-.316 1.894 1.894 0 01-.035-.366c0-.18.019-.377.056-.588.037-.21.08-.417.132-.619a12.77 12.77 0 01.292-.998l-1.377-.292c-.047.227-.102.468-.167.723a7.784 7.784 0 01-.237.762 5.556 5.556 0 01-.327.727 2.873 2.873 0 01-.441.616c-.17.178-.363.322-.581.431a1.626 1.626 0 01-.738.164h-.153V174h.146c.27 0 .516-.022.741-.066a2.704 2.704 0 001.13-.494c.158-.118.307-.252.446-.4.074.172.18.322.316.452.137.13.29.239.456.327.167.088.342.154.525.198.183.044.36.066.532.066.395 0 .768-.095 1.12-.285.353-.19.668-.447.947-.772.097.148.215.286.354.414.14.128.29.239.452.334.163.095.333.17.512.226.178.056.356.083.532.083h.049zm-14.046 5.05a12.712 12.712 0 001.705-1.03 9.084 9.084 0 001.471-1.304 6.295 6.295 0 001.033-1.54c.26-.553.39-1.132.39-1.74v-.028c.116.125.237.223.365.292a1.686 1.686 0 00.713.209c.102.005.185.007.25.007h.119v-1.363h-.112c-.232 0-.444-.056-.636-.167a1.88 1.88 0 01-.553-.526 4.913 4.913 0 01-.515-.925 15.038 15.038 0 01-.515-1.374l-1.308.404c.056.171.123.386.202.643.079.258.158.532.237.825.078.292.152.59.219.893.067.304.117.588.15.853a2.596 2.596 0 01-.077.94c-.084.31-.21.609-.38.896-.169.288-.376.562-.622.824a8.04 8.04 0 01-.807.748 9.486 9.486 0 01-.932.665c-.33.206-.66.395-.995.567l.598 1.23zm-6.393-.25a8.398 8.398 0 001.406-.345c.459-.155.896-.348 1.31-.577.416-.23.803-.498 1.163-.804a5.91 5.91 0 00.95-1.022c.273-.376.498-.785.674-1.228.176-.443.29-.92.34-1.43a6.442 6.442 0 00.008-1.266 6.891 6.891 0 00-.23-1.217 5.77 5.77 0 00-.435-1.096 4.275 4.275 0 00-.622-.9c-.552-.594-1.157-.891-1.816-.891a1.77 1.77 0 00-.859.226 2.61 2.61 0 00-.769.664c-.194.25-.364.549-.507.894a3.926 3.926 0 00-.275.925c-.04.272-.06.495-.06.672 0 .185.017.37.05.556.055.353.19.663.403.932.482.599 1.226.928 2.233.988.255.023.483.035.685.035h.79c-.051.348-.194.701-.428 1.06-.234.36-.553.7-.957 1.02-.403.32-.888.608-1.454.863a8.976 8.976 0 01-1.92.598l.32 1.342zm3.755-6.262h-.047c-.204 0-.422-.006-.654-.02a3.506 3.506 0 01-.295-.032 2.472 2.472 0 01-.348-.076 1.635 1.635 0 01-.334-.14.819.819 0 01-.261-.225.651.651 0 01-.143-.33 2.434 2.434 0 01-.024-.31 3.16 3.16 0 01.153-.908c.065-.202.145-.384.24-.546.095-.163.203-.296.324-.4a.577.577 0 01.382-.157c.084 0 .163.014.237.042.074.028.145.064.212.108s.13.093.188.146c.058.053.11.103.156.15.116.134.229.293.338.476.109.183.207.388.295.616.088.227.16.473.216.737.056.264.09.545.104.842-.18.014-.344.022-.49.024l-.296.004h.047zM286.2 174c.38 0 .748-.026 1.103-.077.354-.05.68-.139.977-.264.297-.125.56-.292.79-.5.23-.21.413-.471.553-.787.139-.32.208-.69.208-1.113 0-.074-.002-.148-.007-.222-.032-.515-.153-1.109-.361-1.781a9.033 9.033 0 00-.223-.644 14.063 14.063 0 00-.383-.897 1.712 1.712 0 01-.062-.143l-1.238.612.605 1.489c.097.237.171.463.222.678.051.216.082.385.09.508.01.123.015.215.015.275 0 .111-.007.216-.021.313a1.35 1.35 0 01-.105.369 1.089 1.089 0 01-.39.455c-.166.11-.359.192-.576.247-.218.056-.455.09-.71.101-.255.012-.517.018-.786.018h-1.343V174h1.642zm-.348 3.402l1.127-1.127-1.14-1.141-1.128 1.134 1.141 1.134zm2.852.014l1.127-1.134-1.14-1.134-1.128 1.127 1.141 1.14zm-18.671 1.196a8.64 8.64 0 002.052-.323 4.259 4.259 0 001.618-.863c.452-.392.804-.9 1.057-1.527.253-.626.38-1.398.38-2.316.101.074.2.138.298.19a1.793 1.793 0 00.65.21c.124.016.266.024.429.024a2.87 2.87 0 001.116-.22c.35-.145.664-.38.943-.705.097.148.212.28.344.393.132.113.271.21.417.288.146.08.294.14.442.181.149.042.285.063.41.063a2.06 2.06 0 001.252-.403c.177-.13.333-.283.47-.46.137-.176.252-.373.345-.591.116.227.263.43.441.609a2.875 2.875 0 001.273.74c.24.066.482.098.727.098h.14v-1.363h-.14a1.3 1.3 0 01-.692-.181c-.197-.12-.37-.28-.518-.48a2.868 2.868 0 01-.372-.689 5.8 5.8 0 01-.244-.807 8.093 8.093 0 01-.142-.831 9.945 9.945 0 01-.063-.769l-1.363.097c.009.158.024.357.045.599a8.976 8.976 0 01-.01 1.593 2.92 2.92 0 01-.168.74c-.083.22-.201.4-.354.54-.153.139-.353.208-.599.208a.65.65 0 01-.445-.153 1.043 1.043 0 01-.275-.407 2.392 2.392 0 01-.142-.577 4.403 4.403 0 01-.042-.55v-.344c0-.148.002-.297.007-.445.01-.218.016-.415.02-.591l-1.411-.105c-.01.237-.018.478-.025.724a7.886 7.886 0 01-.052.716 5.015 5.015 0 01-.122.658 1.66 1.66 0 01-.24.539 1.184 1.184 0 01-.407.365c-.164.09-.37.136-.615.136-.32 0-.583-.078-.79-.233a2 2 0 01-.525-.606 4.68 4.68 0 01-.372-.827 28.726 28.726 0 00-.324-.894 14.972 14.972 0 01-.257-.675l-1.155.751c.153.399.291.799.414 1.2.123.401.212.785.268 1.151a6.918 6.918 0 01.076 1.336 5.77 5.77 0 01-.236 1.329c-.422 1.29-1.619 1.98-3.59 2.073h-.236c-.394 0-.738-.043-1.03-.129a2.925 2.925 0 01-.758-.334 2.228 2.228 0 01-.532-.466 2.962 2.962 0 01-.348-.529 2.646 2.646 0 01-.202-.518 4.285 4.285 0 01-.094-.431 4.03 4.03 0 01-.034-.814c.014-.274.045-.546.094-.817a7.883 7.883 0 01.41-1.472 5.47 5.47 0 01.243-.546c.082-.155.152-.272.213-.351l-1.106-.821c-.19.315-.373.666-.547 1.05-.173.385-.32.795-.438 1.228-.118.434-.191.81-.219 1.127a6.142 6.142 0 00.02 1.61c.084.566.25 1.07.498 1.514.248.443.564.82.946 1.13.383.31.82.547 1.312.71a5.052 5.052 0 001.593.243h.271z" mask="url(#e)"/><g mask="url(#e)"><use fill="#000" filter="url(#h)" xlink:href="#i"/><use fill="#FFF" fill-opacity=".98" xlink:href="#i"/></g><path fill="#000000" fill-opacity=".87" fill-rule="nonzero" d="M351.909 36.183c.479 0 .902-.086 1.269-.256.367-.17.711-.414 1.032-.73a7.096 7.096 0 001.235.687c.195.073.387.131.575.174.19.042.369.064.54.064.198 0 .389-.03.571-.092a1.956 1.956 0 00.935-.663c.123-.158.224-.335.301-.53.069-.182.12-.37.155-.566a3.45 3.45 0 00.052-.602 3.66 3.66 0 00-.256-1.336 2.915 2.915 0 00-.322-.597 2.407 2.407 0 00-.454-.487 2.013 2.013 0 00-1.3-.447c-.288 0-.541.058-.76.173-.22.116-.414.266-.585.45-.17.185-.322.393-.456.625a10.56 10.56 0 00-.371.7c-.114.223-.235.446-.363.67a3.17 3.17 0 01-.444.602 2.108 2.108 0 01-.581.435c-.22.112-.477.167-.773.167h-.122v1.559h.122zm4.936-1.583c-.08 0-.17-.012-.268-.037a3.048 3.048 0 01-.53-.164 5.406 5.406 0 01-.925-.487c.155-.308.285-.563.39-.764.106-.2.197-.36.274-.48.077-.12.143-.206.198-.256a.36.36 0 01.167-.095.9.9 0 01.177-.018.75.75 0 01.329.073c.15.077.28.187.39.329.109.142.195.305.258.49a1.7 1.7 0 01.094.55v.062c0 .097-.008.186-.024.267a1.14 1.14 0 01-.095.256.631.631 0 01-.127.174.287.287 0 01-.131.076.599.599 0 01-.177.024zm-4.815 1.583v-1.559h-.14a.933.933 0 01-.374-.07.918.918 0 01-.286-.194 1.29 1.29 0 01-.22-.299 3.924 3.924 0 01-.179-.38l-1.528-3.683a135.13 135.13 0 00-.273-.657 21.409 21.409 0 01-.232-.572l-1.442.602 1.941 4.687a2.22 2.22 0 01-.374.216 3.554 3.554 0 01-1.385.326c-.292 0-.598-.076-.919-.228-.32-.152-.665-.399-1.035-.74l-.894 1.26c.393.406.814.722 1.263.95.448.227.926.34 1.433.34.268 0 .522-.01.761-.033.24-.022.47-.062.694-.119a3.426 3.426 0 001.236-.596c.097.105.198.204.304.295.105.091.227.17.365.238.138.066.3.12.484.158.185.038.405.058.66.058h.14zm-11.741 0c.458 0 .89-.047 1.293-.14a3.12 3.12 0 001.06-.448c.302-.205.54-.472.715-.8.174-.329.261-.729.261-1.2 0-.263-.024-.533-.073-.809a7.945 7.945 0 00-.192-.825c-.079-.274-.169-.54-.27-.8-.102-.26-.203-.505-.305-.737l-1.406.694c.11.215.214.447.314.694a10.056 10.056 0 01.435 1.351c.045.191.067.34.067.445 0 .223-.062.402-.186.535-.124.134-.28.237-.469.308a2.432 2.432 0 01-.614.14 6.178 6.178 0 01-.618.033h-1.297v1.559h1.285zm-.055 2.836l1.035-1.035-1.047-1.047-1.035 1.041 1.047 1.041zm2.3.012l1.036-1.04-1.047-1.041-1.035 1.034 1.047 1.047zm-8.68 1.705a11.814 11.814 0 001.507-.895c.49-.341.93-.716 1.321-1.126.392-.41.717-.85.977-1.318.26-.469.416-.959.469-1.47.19.122.366.195.526.22.16.023.294.036.399.036h.189l.006-1.559h-.189c-.178 0-.338-.035-.478-.106a1.156 1.156 0 01-.401-.378 4.017 4.017 0 01-.39-.736c-.132-.31-.277-.703-.435-1.178l-1.461.609c.077.231.162.47.256.715.093.246.18.488.261.727.081.24.148.47.201.691.053.221.08.423.08.606 0 .256-.048.505-.144.749a3.32 3.32 0 01-.39.712c-.164.231-.358.452-.584.663a8.676 8.676 0 01-.727.609c-.26.195-.533.377-.819.548-.286.17-.57.328-.855.475l.682 1.406zm-3.633-4.553c.458 0 .89-.047 1.293-.14a3.12 3.12 0 001.06-.448c.302-.205.54-.472.715-.8.174-.329.261-.729.261-1.2 0-.263-.024-.533-.073-.809a7.945 7.945 0 00-.191-.825c-.08-.274-.17-.54-.271-.8-.102-.26-.203-.505-.305-.737l-1.406.694c.11.215.214.447.314.694a10.056 10.056 0 01.435 1.351c.045.191.067.34.067.445 0 .223-.062.402-.186.535-.123.134-.28.237-.468.308a2.432 2.432 0 01-.615.14 6.178 6.178 0 01-.618.033h-1.296v1.559h1.284zm-.055 2.836l1.035-1.035-1.047-1.047-1.035 1.041 1.047 1.041zm2.301.012l1.035-1.04-1.047-1.041-1.035 1.034 1.047 1.047zm-11.888-7.998l1.035-1.035-1.047-1.047-1.035 1.041 1.047 1.041zm2.301.012l1.035-1.04-1.047-1.042-1.035 1.035 1.047 1.047zm-1.662 5.156c2.224 0 3.894-.515 5.01-1.546.134.272.288.504.462.697.175.192.374.35.597.475.223.123.472.214.746.27.274.057.579.086.916.086h.231v-1.559h-.22c-.295 0-.546-.038-.75-.115a1.272 1.272 0 01-.497-.32 1.236 1.236 0 01-.274-.475 1.54 1.54 0 01-.085-.438v-.198c0-.19.02-.387.06-.59.045-.223.106-.442.183-.658l-1.4-.377c-.056.195-.11.398-.158.609a5.28 5.28 0 01-.182.618c-.074.2-.165.392-.274.575-.11.182-.254.343-.433.48-.194.163-.428.3-.7.412a5.286 5.286 0 01-.91.273 8.745 8.745 0 01-1.086.156c-.39.032-.802.048-1.236.048-.479 0-.925-.02-1.339-.06a7.384 7.384 0 01-1.117-.19 3.352 3.352 0 01-.843-.328 1.399 1.399 0 01-.517-.487 1.54 1.54 0 01-.229-.523 1.983 1.983 0 01-.033-.64c.02-.194.069-.389.146-.584.077-.195.175-.39.292-.584l-1.175-.737a4.46 4.46 0 00-.401.904c-.102.319-.16.584-.174.795a7.701 7.701 0 00-.021.456c0 .24.024.479.073.718.065.329.183.646.353.95.394.637 1.005 1.109 1.835 1.415.83.307 1.88.464 3.15.472zm-18.955-.018a10.734 10.734 0 002.304-.29 17.13 17.13 0 002.11-.65 22.704 22.704 0 001.935-.844c.617-.304 1.21-.592 1.778-.864l.127-1.57a3.825 3.825 0 01-.974-.138 8.172 8.172 0 01-.94-.322c-.31-.128-.618-.265-.922-.411a21.024 21.024 0 00-.91-.411 7.096 7.096 0 00-.916-.316 3.562 3.562 0 00-.932-.125c-.304 0-.592.054-.864.161a3.089 3.089 0 00-.758.432c-.233.18-.445.386-.636.615-.19.23-.355.466-.493.71l1.266.82.085-.145a3.385 3.385 0 01.374-.505 1.8 1.8 0 01.284-.256c.105-.077.22-.141.344-.192.124-.05.256-.076.398-.076.244 0 .49.045.737.134.248.09.505.195.773.317.268.121.552.246.852.374.3.128.625.23.974.307-.438.215-.903.424-1.394.627-.49.203-.994.383-1.51.539-.515.156-1.033.282-1.555.377a8.532 8.532 0 01-1.537.143h-1.32v1.559h1.32zm-8.753.018c.191 0 .374-.025.548-.076.175-.05.34-.122.496-.213.157-.092.303-.2.439-.323.136-.124.262-.26.38-.41.183.304.43.547.74.73.31.182.656.274 1.037.274.382 0 .73-.096 1.047-.286.317-.191.573-.445.767-.761.114.182.247.34.399.471a2.262 2.262 0 001.04.515c.194.04.39.06.588.06h.195v-1.558h-.225c-.126 0-.259-.026-.399-.079a1.295 1.295 0 01-.392-.237 1.497 1.497 0 01-.5-.95 31.222 31.222 0 01-.063-.496 14.463 14.463 0 01-.046-.432 70.527 70.527 0 00-.073-.788l-1.54.121c0 .09 0 .16.003.21l.003.137c0 .041 0 .085.003.131a10.638 10.638 0 01-.024.937 3.72 3.72 0 01-.113.704 1.427 1.427 0 01-.247.52.514.514 0 01-.423.204.549.549 0 01-.374-.125.83.83 0 01-.222-.32 1.457 1.457 0 01-.1-.398 3.483 3.483 0 01-.022-.356 5.264 5.264 0 01.067-.776c.033-.205.075-.43.128-.673l-1.437-.292a7.914 7.914 0 01-.313 1.184 7.55 7.55 0 01-.256.642c-.095.211-.2.4-.316.566-.116.167-.24.303-.375.408a.71.71 0 01-.426.164h-.024a.342.342 0 01-.189-.054.442.442 0 01-.146-.165.757.757 0 01-.076-.225 1.344 1.344 0 01-.021-.231V33.9c.008-.223.05-.49.128-.8.077-.31.164-.634.261-.971l-1.49-.42a10.344 10.344 0 01-.424 1.448c-.148.378-.306.675-.475.892-.168.217-.345.367-.53.45-.184.084-.38.125-.587.125h-.255v1.559h.261c.459 0 .836-.08 1.133-.238.296-.158.545-.416.748-.773a1.84 1.84 0 001.163.959c.17.047.347.07.53.07zm-3.59-.018v-1.559h-.275a1.6 1.6 0 01-.417-.048.604.604 0 01-.457-.444 1.51 1.51 0 01-.045-.39v-.285l.003-.184a691.051 691.051 0 00.012-.764 29.249 29.249 0 00-.003-1.071c-.004-.242-.006-.47-.006-.685a31.89 31.89 0 00-.182-3.393 11.12 11.12 0 00-.122-.862l-1.528.457c.037.19.069.41.097.66.029.25.053.518.073.804a46.356 46.356 0 01.085 1.808 71.017 71.017 0 01.025 1.725v.25a36.97 36.97 0 01-.012.843c-.008.298-.012.512-.012.642.004.836.219 1.46.645 1.875.426.414 1.05.62 1.875.62h.243zm-9.996 0c.179 0 .378-.006.597-.019a13.485 13.485 0 001.847-.213c.331-.06.654-.135.968-.222.315-.087.612-.19.892-.31s.525-.259.736-.417c.211-.159.378-.335.5-.53.121-.195.182-.412.182-.651 0-.17-.028-.372-.085-.606a8.653 8.653 0 00-.213-.727 14.787 14.787 0 00-.8-1.884c-.064-.12-.101-.18-.113-.18l-1.303.846c.122.207.242.413.36.618.117.205.229.413.334.624.106.211.2.426.283.645.083.22.15.447.198.682-.329.162-.69.293-1.087.393-.395.1-.797.177-1.205.234a13.95 13.95 0 01-1.187.116c-.383.02-.727.03-1.031.03-.548 0-1.063-.024-1.544-.073a8.885 8.885 0 01-1.284-.216 3.878 3.878 0 01-.937-.353c-.25-.14-.42-.301-.509-.484a.62.62 0 01-.054-.268c0-.052.004-.107.012-.164.024-.17.07-.347.137-.53a3.999 3.999 0 01.465-.9l-1.132-.95-.292.55a5.774 5.774 0 00-.262.57c-.077.195-.14.395-.188.6a2.769 2.769 0 00-.073.642c0 .45.079.84.237 1.171.158.331.373.612.645.843.272.232.593.42.962.563.37.145.763.258 1.18.341.419.084.853.141 1.303.174.45.032.895.05 1.334.055h.127zm-.152 3.147l1.169-1.17-1.169-1.162-1.162 1.163 1.162 1.169z" mask="url(#e)"/><path fill="#EA475B" fill-rule="nonzero" mask="url(#e)" d="M247.5 111h128v2h-128zM319.938 83.845l1.134-1.134-1.14-1.14-1.135 1.133 1.141 1.141zM317.114 93c.459-.005.911-.022 1.356-.052.446-.03.871-.085 1.277-.164a6.536 6.536 0 001.134-.323c.35-.137.66-.314.932-.532a2.74 2.74 0 00.671-.793c.177-.311.293-.677.348-1.1a4.997 4.997 0 00.021-1.126 5.945 5.945 0 00-.212-1.096 5.3 5.3 0 00-.407-1.002 4.113 4.113 0 00-.57-.824c-.501-.543-1.058-.814-1.67-.814a1.71 1.71 0 00-.807.205c-.26.137-.494.344-.703.623-.366.473-.614 1.062-.744 1.767-.028.19-.042.364-.042.521v.119c.01.194.035.368.077.521.042.153.095.29.16.407.065.119.13.22.195.303.12.153.266.289.438.407.171.118.362.217.57.296.209.078.432.138.668.177.237.04.48.06.73.06h.703l-.111.124a1.453 1.453 0 01-.146.14 1.95 1.95 0 01-.522.278 6.013 6.013 0 01-.866.254c-.341.076-.728.139-1.162.187a12.73 12.73 0 01-1.415.074h-.14V93h.237zm3.819-3.798c-.209 0-.431-.005-.668-.014a2.745 2.745 0 01-.56-.09 1.009 1.009 0 01-.403-.21.633.633 0 01-.202-.305 1.224 1.224 0 01-.045-.32c0-.08.007-.163.02-.25.042-.237.102-.446.178-.627.077-.18.159-.334.247-.459a1.16 1.16 0 01.264-.282.419.419 0 01.23-.094c.13 0 .252.04.365.122.114.081.208.164.282.247.236.264.425.596.567.995.141.399.228.823.26 1.273-.152.01-.33.014-.535.014zM317.156 93v-1.363h-.14a2.77 2.77 0 01-.754-.09c-.211-.061-.37-.145-.477-.251a.58.58 0 01-.184-.359 3.758 3.758 0 01-.024-.441v-3.493a48.55 48.55 0 00-.067-2.546 31.39 31.39 0 00-.076-1.12c-.03-.343-.066-.633-.108-.87l-1.363.251c.041.218.077.498.107.839.03.34.056.713.077 1.116.02.404.036.82.045 1.252.01.432.014.847.014 1.245.005.409.007.796.007 1.162 0 .371-.002.7-.007.988a211.355 211.355 0 00-.013.957v.198l.006.282a2.686 2.686 0 00.247 1.012c.081.176.198.34.351.494.25.25.556.436.915.556.36.12.794.181 1.305.181h.139zm-9.35 0c.241 0 .443-.016.605-.049.983-.18 1.681-.637 2.094-1.37.098-.176.182-.371.254-.584.072-.214.116-.405.132-.574.017-.17.025-.303.025-.4a3.57 3.57 0 00-.042-.53 4.165 4.165 0 00-.25-.903 5.846 5.846 0 00-.53-1.013 8.611 8.611 0 00-.869-1.116 10.844 10.844 0 00-.8-.8c-.269-.241-.517-.46-.744-.654l4.98-2.094-.535-1.266-5.718 2.449-.16 1.426a17.637 17.637 0 012.115 2.02c.296.337.546.652.747.947.202.294.329.537.38.727.064.25.097.484.097.702a1.71 1.71 0 01-.278.946c-.13.195-.309.345-.536.449-.227.104-.478.18-.751.23a5.667 5.667 0 01-.863.083c-.301.007-.591.01-.87.01h-.869V93h2.386zm-6.49-6.588l1.127-1.127-1.141-1.14-1.127 1.133 1.14 1.134zm2.852.014l1.127-1.134-1.141-1.134-1.127 1.127 1.14 1.141zM300.53 93c.436 0 .815-.017 1.137-.052.322-.035.604-.088.845-.16a2.598 2.598 0 001.113-.65c.2.254.455.462.765.622.311.16.7.24 1.17.24h.138v-1.363h-.139c-.236 0-.43-.054-.58-.16a1.141 1.141 0 01-.356-.404 1.905 1.905 0 01-.184-.529 4.913 4.913 0 01-.076-.542 21.335 21.335 0 00-.126-1.204 6.534 6.534 0 00-.201-.946l-1.308.369c.102.352.173.665.212.939.04.274.06.543.06.807 0 .278-.047.522-.14.73a1.256 1.256 0 01-.435.522c-.197.14-.452.244-.765.313-.313.07-.69.105-1.13.105h-1.037V93h1.037zm-7.29 4.883a8.524 8.524 0 001.964-.556 7.19 7.19 0 001.726-1.016 6.198 6.198 0 001.321-1.45 5.255 5.255 0 00.755-1.861h.765v-1.363h-.66a6.622 6.622 0 00-.376-2.02 5.342 5.342 0 00-.404-.881 4.395 4.395 0 00-.528-.738c-.552-.593-1.157-.89-1.816-.89a1.77 1.77 0 00-.86.226 2.61 2.61 0 00-.768.664c-.195.25-.364.549-.508.894a3.926 3.926 0 00-.274.925c-.04.272-.06.495-.06.672 0 .185.017.37.05.556.055.353.19.663.403.932.482.599 1.226.928 2.233.988.255.023.483.035.685.035h.79c-.052.348-.194.701-.428 1.06-.235.36-.553.7-.957 1.02-.403.32-.888.608-1.454.863a8.976 8.976 0 01-1.92.598l.32 1.342zm3.754-6.26h-.047c-.204 0-.422-.007-.654-.021a3.506 3.506 0 01-.296-.032 2.472 2.472 0 01-.347-.076 1.635 1.635 0 01-.334-.14.819.819 0 01-.261-.225.651.651 0 01-.143-.33 2.434 2.434 0 01-.024-.31c0-.102.007-.207.02-.313a3.16 3.16 0 01.133-.595c.065-.202.145-.384.24-.546.095-.163.203-.296.323-.4a.577.577 0 01.383-.157c.083 0 .162.014.236.042.075.028.145.064.213.108.067.044.13.093.187.146.058.053.11.103.157.15.116.134.228.293.337.476.11.183.208.388.296.616.088.227.16.473.216.737.055.264.09.545.104.842-.18.014-.344.022-.49.024l-.296.004h.047zm-10.05 6.358c.389-.19.773-.405 1.15-.644.379-.238.738-.5 1.079-.782a9.21 9.21 0 00.946-.905c.29-.32.54-.656.751-1.008.211-.353.376-.718.494-1.096.119-.378.178-.769.178-1.172 0-.204-.016-.413-.049-.626a9.947 9.947 0 00-.122-.65c-.048-.22-.102-.444-.16-.668a95.343 95.343 0 01-.17-.672 10.346 10.346 0 00-.174-.636c-.065-.211-.13-.426-.195-.644l-1.322.418c.126.39.244.779.355 1.168l.16.585c.056.2.107.399.153.598.047.2.085.394.115.584.03.19.045.371.045.543 0 .45-.109.886-.327 1.308-.218.422-.506.82-.866 1.196s-.768.723-1.228 1.04c-.459.318-.932.597-1.419.839l.605 1.224zm-4.035-4.96c.162 0 .34-.007.535-.021a5.445 5.445 0 001.134-.205c.176-.054.33-.12.46-.198.486-.26.85-.586 1.088-.978.239-.392.358-.817.358-1.276 0-.613-.213-1.215-.64-1.81a2.929 2.929 0 00-.605-.583 7.993 7.993 0 00-.9-.578c-.342-.19-.713-.38-1.114-.57-.4-.19-.817-.38-1.248-.57l-2.421-.995-.661 1.252.55.215a2.495 2.495 0 00-.717.512c-.2.206-.365.429-.498.667a3.108 3.108 0 00-.386 1.478c0 .34.087.69.261 1.055.174.364.435.734.783 1.11a10.685 10.685 0 01-.884.083c-.171.009-.363.016-.574.02-.21.005-.455.008-.733.008h-.188V93h.188c.329 0 .67-.007 1.022-.02.353-.015.698-.037 1.037-.067.338-.03.662-.07.97-.122a6.64 6.64 0 00.831-.188 5.4 5.4 0 001.166.327c.382.06.778.09 1.186.09zm-2.421-1.906a4.73 4.73 0 01-.501-.38 2.933 2.933 0 01-.414-.438 2.078 2.078 0 01-.282-.497 1.502 1.502 0 01-.104-.557c0-.208.044-.426.132-.653.088-.228.21-.432.365-.613.156-.18.322-.313.498-.396.176-.084.343-.125.5-.125.084 0 .17.009.258.027.2.042.36.118.483.227.123.109.218.234.286.375.067.142.111.29.132.445.02.156.031.303.031.442a2.392 2.392 0 01-.769 1.74c-.173.162-.379.296-.615.403zm2.289.57a3.577 3.577 0 01-.64-.049c.176-.185.336-.389.48-.612.143-.222.265-.448.365-.678.1-.23.177-.458.233-.685.055-.227.083-.438.083-.633 0-.14-.002-.288-.007-.445a2.018 2.018 0 00-.083-.501c.33.153.617.322.862.508.246.185.451.374.616.567.165.192.289.383.372.573.084.19.125.367.125.53 0 .19-.042.371-.128.545a1.192 1.192 0 01-.418.456c-.192.13-.441.233-.747.31a4.652 4.652 0 01-1.113.114zM276.787 93v-1.363h-.14a2.77 2.77 0 01-.754-.09c-.211-.061-.37-.145-.476-.251a.58.58 0 01-.185-.359 3.758 3.758 0 01-.024-.441v-3.493a48.553 48.553 0 00-.066-2.546c-.021-.403-.047-.776-.077-1.12-.03-.343-.066-.633-.108-.87l-1.363.251c.042.218.078.498.108.839.03.34.055.713.076 1.116.021.404.036.82.045 1.252.01.432.014.847.014 1.245.005.409.007.796.007 1.162 0 .371-.002.7-.007.988a211.315 211.315 0 00-.014 1.037c0 .11.003.244.007.4a2.686 2.686 0 00.247 1.012c.082.176.199.34.352.494.25.25.555.436.914.556.36.12.795.181 1.305.181h.139zm72.63-8.2h-2.5v-1.25a1.251 1.251 0 012.5 0v1.25zm-4.167 9.583c0 .69-.56 1.25-1.25 1.25s-1.25-.56-1.25-1.25v-1.25a.833.833 0 00-.833-.834h-5v-8.717c0-.707.575-1.282 1.282-1.282h7.333c-.009.017-.012.038-.02.056-.055.12-.094.249-.132.378-.018.066-.045.128-.06.195-.044.201-.07.408-.07.621v10.833zm-10.417 1.25c-.689 0-1.25-.56-1.25-1.25v-.417h7.5v.417c0 .213.026.42.07.62.015.068.042.13.06.196.039.129.078.257.132.378.008.018.012.038.02.056h-6.532zm13.334-15h-9.968a2.952 2.952 0 00-2.949 2.949v8.717h-2.5a.833.833 0 00-.833.833v1.251a2.92 2.92 0 002.916 2.917H344a2.92 2.92 0 002.917-2.917v-7.916h3.333c.46 0 .833-.374.833-.834V83.55a2.92 2.92 0 00-2.916-2.917z"/><path fill="#000000" fill-opacity=".56" fill-rule="nonzero" d="M206.929 93.063c.065-.77.103-1.496.114-2.178.012-.682.018-1.226.018-1.635 0-.677-.007-1.4-.021-2.17a63.583 63.583 0 00-.355-5.064l-1.363.208c.157 1.461.283 3.316.375 5.566.014.384.021.793.021 1.224 0 .357-.004.73-.014 1.12a64.701 64.701 0 01-.146 2.852l1.37.077zM196.216 93l1.655-.014c.733 0 1.385-.017 1.955-.052.57-.035 1.077-.081 1.52-.14a15.582 15.582 0 002.049-.4l-.167-1.321-.511.104a8.2 8.2 0 01-.487.084 14.262 14.262 0 01-1.27.118c-.25 0-.492-.035-.723-.104a2.247 2.247 0 01-.748-.376 1.937 1.937 0 01-.519-.605 1.62 1.62 0 01-.194-.793c0-.213.034-.419.104-.616.07-.197.173-.372.31-.525.136-.153.307-.275.51-.365.205-.09.441-.136.71-.136.237 0 .45.024.64.073.19.049.366.116.526.202.16.086.31.185.448.299.14.114.28.235.425.365l.855-1.05a17.654 17.654 0 00-.619-.487 4.226 4.226 0 00-.647-.4 3.52 3.52 0 00-1.628-.365c-.43 0-.829.08-1.193.24a2.971 2.971 0 00-1.58 1.607c-.15.364-.225.75-.225 1.158 0 .417.069.798.205 1.14.137.344.375.669.713.975l-2.114.02V93zm-4.105-6.588l1.127-1.127-1.14-1.14-1.128 1.133 1.141 1.134zm2.852.014l1.127-1.134-1.14-1.134-1.127 1.127 1.14 1.141zM191.325 93c.436 0 .815-.017 1.138-.052.322-.035.604-.088.845-.16a2.598 2.598 0 001.113-.65c.2.254.454.462.765.622.31.16.7.24 1.169.24h.139v-1.363h-.14c-.236 0-.43-.054-.58-.16a1.141 1.141 0 01-.355-.404 1.905 1.905 0 01-.184-.529 4.913 4.913 0 01-.077-.542 21.335 21.335 0 00-.125-1.204 6.534 6.534 0 00-.202-.946l-1.308.369c.103.352.173.665.213.939.04.274.059.543.059.807 0 .278-.047.522-.14.73a1.256 1.256 0 01-.434.522c-.197.14-.452.244-.765.313-.313.07-.69.105-1.13.105h-1.037V93h1.036zm-5.683 0c.681 0 1.254-.07 1.718-.212.464-.142.842-.358 1.134-.65.2.254.454.462.765.622.31.16.7.24 1.169.24h.139v-1.363h-.14c-.236 0-.43-.054-.58-.16a1.141 1.141 0 01-.355-.404 1.905 1.905 0 01-.184-.529 4.913 4.913 0 01-.077-.542 21.336 21.336 0 00-.125-1.204 6.535 6.535 0 00-.202-.946l-1.307.369c.102.352.172.665.212.939.04.274.059.543.059.807 0 .552-.176.968-.529 1.249-.352.28-.918.42-1.697.42h-.258V93h.258zm2.219 3.624l1.134-1.134-1.141-1.14-1.134 1.133 1.14 1.141zM185.663 93v-1.363h-.14a2.77 2.77 0 01-.754-.09c-.211-.061-.37-.145-.477-.251a.58.58 0 01-.184-.359 3.758 3.758 0 01-.025-.441v-3.493a48.553 48.553 0 00-.066-2.546 31.39 31.39 0 00-.076-1.12c-.03-.343-.066-.633-.108-.87l-1.363.251c.041.218.077.498.107.839.03.34.056.713.077 1.116.02.404.036.82.045 1.252.01.432.014.847.014 1.245.005.409.007.796.007 1.162v.27c-.001.263-.003.502-.007.718a211.587 211.587 0 00-.013.957v.198c0 .084.003.178.006.282a2.686 2.686 0 00.247 1.012c.081.176.198.34.351.494.25.25.556.436.915.556.36.12.794.181 1.304.181h.14zm-9.913 4.98c.39-.19.773-.404 1.15-.643.379-.238.738-.5 1.08-.782a9.21 9.21 0 00.945-.905c.29-.32.54-.656.752-1.008.21-.353.375-.718.493-1.096.119-.378.178-.769.178-1.172 0-.204-.016-.413-.049-.626a9.947 9.947 0 00-.122-.65c-.048-.22-.102-.444-.16-.668a95.343 95.343 0 01-.17-.672 10.346 10.346 0 00-.174-.636c-.065-.211-.13-.426-.195-.644l-1.321.418c.125.39.243.779.354 1.168l.16.585c.056.2.107.399.153.598.047.2.085.394.115.584.03.19.045.371.045.543 0 .45-.109.886-.327 1.308-.218.422-.506.82-.866 1.196s-.768.723-1.228 1.04c-.459.318-.932.597-1.419.839l.606 1.224zM163.096 93c.283 0 .55-.014.8-.042.25-.028.487-.08.71-.16.222-.079.432-.192.629-.34.197-.149.386-.346.567-.592.213.158.445.312.695.463.25.15.512.278.783.382a3.005 3.005 0 001.123.226c.19 0 .38-.025.57-.076a1.66 1.66 0 00.766-.449c.209-.215.373-.468.494-.758.12-.29.195-.555.223-.797.027-.24.041-.436.041-.584 0-.167-.011-.33-.034-.487a4.21 4.21 0 00-.247-.918 2.864 2.864 0 00-.477-.807c-.2-.237-.44-.428-.72-.574a2.071 2.071 0 00-.97-.22c-.306 0-.574.062-.804.185-.23.123-.433.283-.612.48a3.668 3.668 0 00-.48.675c-.141.253-.275.509-.4.769-.144.287-.286.567-.428.838a3.398 3.398 0 01-.5.723c-.193.211-.426.38-.7.508-.273.128-.617.192-1.03.192h-.138V93h.139zm5.287-1.447c-.186 0-.395-.046-.626-.14-.348-.138-.733-.363-1.155-.674l.375-.758c.116-.227.22-.424.31-.591a3.74 3.74 0 01.257-.418.985.985 0 01.244-.247.466.466 0 01.26-.08c.14 0 .263.028.37.084.106.055.199.126.278.212.078.086.146.18.201.285a2.264 2.264 0 01.216.567c.019.079.03.135.035.167.018.125.028.246.028.362a2.082 2.082 0 01-.129.703c-.053.138-.117.252-.191.34a.444.444 0 01-.23.16 1.003 1.003 0 01-.243.028zM156.55 89.64l1.133-1.134-1.14-1.14-1.134 1.133 1.14 1.141zm-.286 8.132c.57 0 1.112-.06 1.625-.18.512-.121.98-.306 1.401-.554a4.23 4.23 0 001.11-.942c.318-.38.565-.833.74-1.357.121-.37.2-.71.234-1.016a7.399 7.399 0 00.045-1.147c.492.283 1.05.424 1.677.424h.153v-1.363h-.153c-.163 0-.335-.02-.519-.06a1.619 1.619 0 01-.58-.274 3.328 3.328 0 01-.647-.64 7.351 7.351 0 01-.724-1.148 7.98 7.98 0 00-.508-.946l-1.155.737c.005 0 .048.068.13.205.08.137.174.325.28.564.108.239.215.52.324.842a6.615 6.615 0 01.345 2.118v.083c-.01.404-.077.805-.202 1.204a2.69 2.69 0 01-.46.873 2.733 2.733 0 01-.757.654 3.688 3.688 0 01-1.05.407c-.4.092-.845.139-1.336.139a3.94 3.94 0 01-1.054-.129 3.297 3.297 0 01-.807-.334 2.717 2.717 0 01-.588-.462 3.029 3.029 0 01-.404-.526 2.502 2.502 0 01-.24-.518 2.909 2.909 0 01-.107-.431 4.08 4.08 0 01-.035-.821c.014-.278.045-.552.094-.821.048-.269.11-.527.184-.776.074-.248.152-.476.233-.685.081-.209.161-.39.24-.546a2.8 2.8 0 01.209-.358l-1.106-.814c-.19.315-.373.667-.546 1.054-.174.387-.32.796-.439 1.228a6.484 6.484 0 00-.219 1.123 6.142 6.142 0 00.02 1.61c.094.608.274 1.137.54 1.587.267.45.602.822 1.005 1.116.404.295.864.515 1.381.661.517.146 1.073.22 1.666.22z" mask="url(#e)"/><path fill="#000000" fill-opacity=".56" d="M231.417 82.3c.92 0 1.666.746 1.666 1.666v.834h.834c.92 0 1.666.746 1.666 1.666v7.5c0 .92-.746 1.667-1.666 1.667h-13.334c-.92 0-1.666-.747-1.666-1.667v-.833h-.834c-.92 0-1.666-.747-1.666-1.667v-7.5c0-.92.746-1.666 1.666-1.666zm2.083 4.166h-.417v5c0 .92-.746 1.667-1.666 1.667h-10.834v.417c0 .23.187.416.417.416h12.5c.23 0 .417-.186.417-.416v-6.667a.417.417 0 00-.417-.417zm-2.5-2.5h-12.5a.417.417 0 00-.417.417v6.667c0 .23.187.416.417.416H231a.417.417 0 00.417-.413v-6.67a.417.417 0 00-.417-.417zm-6.25.8a2.92 2.92 0 012.917 2.916 2.92 2.92 0 01-2.917 2.917 2.92 2.92 0 01-2.917-2.917 2.92 2.92 0 012.917-2.916zm0 1.666c-.69 0-1.25.561-1.25 1.25 0 .69.56 1.25 1.25 1.25s1.25-.56 1.25-1.25c0-.689-.56-1.25-1.25-1.25z" mask="url(#e)"/><path fill="#000000" fill-opacity=".56" fill-rule="nonzero" d="M93.364 87.245l.846-.845-.856-.856-.845.85.855.851zm2.14.01l.845-.85-.856-.85-.845.845.855.856zM93.228 93c.285 0 .56-.02.827-.057.266-.039.51-.105.733-.199.222-.094.42-.219.592-.375.172-.157.31-.353.415-.59.104-.24.156-.518.156-.835 0-.055-.002-.111-.005-.167a5.826 5.826 0 00-.271-1.335 6.775 6.775 0 00-.167-.483 10.546 10.546 0 00-.287-.673 1.284 1.284 0 01-.047-.107l-.929.46.454 1.116a3.393 3.393 0 01.235.89c.007.092.01.16.01.205 0 .084-.005.162-.015.235a1.012 1.012 0 01-.079.277.817.817 0 01-.292.341c-.125.082-.27.144-.433.186-.163.041-.34.067-.532.075-.191.009-.388.013-.59.013h-1.007V93h1.232zm-3.25-4.81l.85-.85-.856-.857-.85.85.855.857zM88.511 93c.511 0 .941-.053 1.289-.16.348-.105.631-.268.85-.487.15.191.341.347.574.467.233.12.525.18.877.18h.104v-1.023h-.104a.737.737 0 01-.436-.12.856.856 0 01-.266-.302 1.429 1.429 0 01-.138-.397 3.685 3.685 0 01-.058-.407 16.002 16.002 0 00-.094-.902 4.9 4.9 0 00-.15-.71l-.982.277c.077.264.13.499.16.704.029.205.044.407.044.605 0 .414-.132.726-.397.937-.264.21-.688.315-1.273.315h-.193V93h.193zm-2.671-6.475l.85-.85-.855-.856-.85.85.855.856zM83.284 93c.275 0 .573-.012.893-.037.32-.024.648-.085.986-.182l.187.039c.115.023.264.047.447.073.182.026.39.05.626.073.234.023.479.034.733.034h1.367l.005-1.023h-1.826c.087-.066.172-.14.255-.224.098-.094.194-.212.29-.355a3.017 3.017 0 00.423-.975 2.182 2.182 0 00.05-.606 1.73 1.73 0 00-.157-.618 1.835 1.835 0 00-.366-.509c-.264-.257-.525-.413-.782-.467a3.343 3.343 0 00-.673-.08c-.153 0-.308.012-.465.036-.754.129-1.554.584-2.4 1.367.007-.268.01-.534.01-.798 0-1.34-.08-2.616-.244-3.83l-1.054.188.031.305.089.916a23.24 23.24 0 01.12 2.322v.188c-.004.445-.015.83-.034 1.153-.02.323-.048.596-.086.819a6.462 6.462 0 00-.525.748c-.116.204-.199.344-.247.42h-.877V93h3.224zm-.647-1.023h-.5c.302-.407.49-.655.566-.746.074-.09.155-.182.242-.276.473-.518.918-.92 1.333-1.205.416-.286.803-.468 1.161-.548a1.353 1.353 0 01.402-.021c.139.014.269.05.389.107.12.057.223.135.31.232a.739.739 0 01.172.355 1.033 1.033 0 01-.057.59 1.33 1.33 0 01-.412.542c-.296.243-.601.43-.916.56-.315.131-.629.227-.942.288-.313.06-.617.096-.913.107-.295.01-.574.015-.835.015zM76.392 93c.327 0 .611-.013.853-.04.242-.025.453-.065.634-.12a1.948 1.948 0 00.835-.487c.15.191.34.347.574.467.233.12.525.18.876.18h.105v-1.023h-.105a.737.737 0 01-.435-.12.856.856 0 01-.266-.302 1.429 1.429 0 01-.139-.397 3.685 3.685 0 01-.057-.407 16.002 16.002 0 00-.094-.902 4.9 4.9 0 00-.151-.71l-.981.277c.076.264.13.499.159.704.03.205.044.407.044.605 0 .209-.034.392-.104.548a.942.942 0 01-.326.391c-.148.105-.34.183-.574.235a3.964 3.964 0 01-.848.078h-.777V93h.777zm.193 2.551l.845-.845-.855-.856-.845.85.855.851zm2.14.01l.845-.85-.856-.85-.845.845.855.856zM69.572 93c.536 0 1.002-.14 1.398-.423.202-.139.348-.28.439-.422.65.455 1.323.727 2.019.814.059.007.116.01.172.01.358 0 .662-.165.913-.496.132.174.298.304.498.39.2.084.429.127.686.127h.125v-1.023h-.125a.702.702 0 01-.537-.24.804.804 0 01-.146-.255 1.006 1.006 0 01-.058-.308 4.39 4.39 0 00-.06-.569 3.057 3.057 0 00-.401-1.077 1.904 1.904 0 00-.353-.425 1.561 1.561 0 00-.461-.287 1.526 1.526 0 00-.577-.105c-.306 0-.568.081-.785.243-.217.162-.4.371-.55.629l-.04.065a2.81 2.81 0 00-.075.14 49.774 49.774 0 01-.402.8 5.01 5.01 0 01-.38.633c-.376.5-.808.753-1.295.756h-.11V93h.105zm3.908-1.038c-.052 0-.11-.005-.172-.016a2.597 2.597 0 01-.577-.203c-.214-.101-.451-.24-.712-.418a10686.744 10686.744 0 01.097-.195l.143-.293c.063-.127.146-.298.25-.514.213-.39.41-.584.595-.584.157 0 .292.044.407.13.115.088.21.2.285.337.074.137.132.291.172.462.04.17.063.339.07.506v.083c0 .094-.009.18-.026.256a.75.75 0 01-.11.25c-.09.133-.23.199-.422.199zM69.677 93v-1.023h-.104c-.22 0-.408-.022-.566-.067a.814.814 0 01-.357-.188.435.435 0 01-.139-.269 2.819 2.819 0 01-.018-.331v-2.62a36.414 36.414 0 00-.107-2.749 7.734 7.734 0 00-.08-.652l-1.023.188a6.5 6.5 0 01.08.628c.023.256.042.535.058.838.016.302.027.615.034.939.007.323.01.635.01.934a76.846 76.846 0 010 1.612 158.524 158.524 0 00-.01.777c0 .084.002.184.005.3a2.015 2.015 0 00.185.76c.061.132.149.255.264.37.188.188.416.327.686.417.27.09.595.136.978.136h.104zm-9.652-4.283l.845-.846-.855-.855-.845.85.855.85zm2.14.01l.845-.85-.856-.85-.845.844.855.856zM61.094 93a10.38 10.38 0 001.403-.11 11.247 11.247 0 001.545-.336c.24-.071.464-.15.673-.237a3.82 3.82 0 00.547-.277c.164-.104.29-.208.379-.31a.833.833 0 00.177-.306 1.037 1.037 0 00.04-.407 3.715 3.715 0 00-.084-.474 4.878 4.878 0 00-.258-.79 9.67 9.67 0 00-.327-.7 7.543 7.543 0 00-.284-.506 6.61 6.61 0 01-.133-.217l-.866.564a6.219 6.219 0 01.248.394c.068.116.142.25.222.402.08.15.155.31.226.477.072.167.134.336.188.509.054.172.088.336.102.493a4.749 4.749 0 01-.947.399c-.339.102-.68.183-1.025.242-.344.06-.682.1-1.012.123-.33.023-.633.034-.908.034-.974-.004-1.765-.097-2.374-.28-.609-.182-.998-.444-1.169-.784a1.024 1.024 0 01-.104-.465c0-.191.042-.401.125-.631a2.015 2.015 0 01.157-.357 4.141 4.141 0 01.182-.3l-.83-.616-.057.086a4.171 4.171 0 00-.258.457c-.05.104-.1.219-.149.344a2.913 2.913 0 00-.203 1.033c0 .33.073.636.219.918.257.518.744.917 1.46 1.195.756.278 1.756.423 3 .433h.095zm-12.183 0c.285 0 .561-.02.827-.057.266-.039.51-.105.733-.199.223-.094.42-.219.592-.375.173-.157.31-.353.415-.59.104-.24.157-.518.157-.835 0-.055-.002-.111-.006-.167a5.826 5.826 0 00-.27-1.335 6.775 6.775 0 00-.168-.483 10.546 10.546 0 00-.287-.673 1.284 1.284 0 01-.047-.107l-.928.46.453 1.116a3.393 3.393 0 01.235.89c.007.092.01.16.01.205 0 .084-.005.162-.015.235a1.012 1.012 0 01-.078.277.817.817 0 01-.292.341c-.126.082-.27.144-.433.186-.164.041-.341.067-.533.075-.19.009-.387.013-.59.013h-1.006V93h1.231zm1.988 2.718l.856-.855-.846-.846-.855.856.845.845zm-2.28.01l.856-.855-.846-.85-.855.855.845.85zm1.163 1.493l.778-.778-.772-.772-.778.778.772.772zm-6.443-.37c.438-.22.864-.477 1.278-.773a6.813 6.813 0 001.104-.978c.321-.357.58-.742.775-1.156.194-.414.292-.848.292-1.304v-.02c.087.093.178.166.274.218a1.265 1.265 0 00.534.157c.077.003.14.005.188.005h.089v-1.023h-.084a.936.936 0 01-.477-.125 1.41 1.41 0 01-.415-.394c-.132-.179-.26-.41-.386-.694a11.278 11.278 0 01-.386-1.03l-.98.303c.041.128.091.29.15.482.06.193.119.4.178.618.059.22.114.443.164.67.05.229.088.442.112.64a1.947 1.947 0 01-.057.704 2.707 2.707 0 01-.284.673 3.5 3.5 0 01-.467.619 6.03 6.03 0 01-.605.56c-.22.178-.453.344-.7.499-.247.155-.495.296-.746.425l.449.923zm-2.849-3.856c.209 0 .419-.016.629-.047.21-.031.413-.082.608-.151.195-.07.376-.16.545-.27.169-.109.316-.24.44-.393a1.264 1.264 0 00.271-.553c.029-.122.044-.261.046-.418a2.41 2.41 0 00-.06-.526 3.792 3.792 0 00-.238-.681 5.52 5.52 0 00-.38-.7 6.908 6.908 0 00-1.057-1.28 5.968 5.968 0 00-.608-.506 3.66 3.66 0 00-.618-.366l-.423.95c.157.07.317.163.48.282.164.118.324.254.483.407a6.2 6.2 0 01.456.493c.146.175.28.356.4.542.12.186.222.372.307.559.085.186.147.364.185.534.028.126.042.233.042.324 0 .125-.026.219-.078.282a1.082 1.082 0 01-.438.318c-.174.07-.33.11-.47.122a2.997 2.997 0 01-.72-.008 4.434 4.434 0 01-1.216-.33 3.171 3.171 0 01-.464-.243l-.428.98c.087.08.225.16.412.24a6.322 6.322 0 001.302.378c.228.04.425.06.592.06zm-3.647.052c.049-.577.078-1.122.086-1.633a75.745 75.745 0 00-.002-2.854 47.688 47.688 0 00-.266-3.798l-1.023.156c.118 1.096.212 2.487.282 4.174.01.289.016.595.016.918 0 .268-.004.548-.01.84-.018.647-.055 1.36-.11 2.14l1.027.057zm-7.001-5.791l.85-.85-.856-.856-.85.85.856.856zM27.599 93c.525 0 1.045-.049 1.56-.146a12.443 12.443 0 001.495-.378c.482-.155.943-.328 1.383-.52.44-.19.85-.382 1.233-.573.261-.13.512-.252.752-.368.24-.117.481-.225.725-.326l-.198-.992a3.07 3.07 0 01-.642-.067 5.132 5.132 0 01-.637-.18 8.437 8.437 0 01-.633-.253 29.4 29.4 0 01-.624-.287 73.312 73.312 0 00-.558-.256 7.597 7.597 0 00-.543-.222 4.228 4.228 0 00-.524-.154 2.34 2.34 0 00-.509-.057c-.337 0-.658.082-.962.245a2.96 2.96 0 00-.864.736 3.54 3.54 0 00-.248.328 8.462 8.462 0 00-.182.287 2.657 2.657 0 00-.16.298l.94.422a2.765 2.765 0 01.193-.342c.062-.095.137-.198.224-.307.087-.11.185-.212.295-.308.11-.096.228-.175.357-.237a.919.919 0 01.407-.094c.108 0 .226.016.355.05.129.032.265.077.41.132.144.056.293.12.448.19l.478.222c.212.101.427.2.647.298.219.097.448.188.688.271-.396.198-.808.391-1.236.58-.428.187-.866.354-1.315.5a11.26 11.26 0 01-1.367.352 7.355 7.355 0 01-1.388.133h-1.132V93h1.132zm-8.379-4.283l.845-.846-.855-.855-.846.85.856.85zm2.14.01l.844-.85-.855-.85-.846.844.856.856zm-1.514 4.289c1.98 0 3.428-.48 4.346-1.44.077.212.185.401.324.568.434.56 1.104.846 2.008.856h.146v-1.023h-.13c-.567-.003-.972-.16-1.216-.47a1.044 1.044 0 01-.219-.437 2.591 2.591 0 01-.068-.47v-.042a4.347 4.347 0 01.117-.76 8.1 8.1 0 01.06-.231l-.99-.271a8.945 8.945 0 01-.154.48 3.921 3.921 0 01-.21.485c-.08.16-.18.315-.294.464a2.31 2.31 0 01-.412.412c-.358.293-.807.506-1.346.64-.54.133-1.193.2-1.962.2-.859-.003-1.557-.094-2.095-.27-.537-.178-.91-.446-1.119-.804a1.266 1.266 0 01-.167-.43 2.27 2.27 0 01-.036-.384c0-.046.001-.089.005-.13.007-.157.029-.307.065-.45.037-.142.074-.267.112-.375.039-.108.073-.195.105-.261.031-.066.047-.1.047-.104l-.903-.496a3.212 3.212 0 00-.149.326 6.021 6.021 0 00-.253.785 2.44 2.44 0 00-.078.43 3.47 3.47 0 00-.005.592c.014.182.048.363.102.544.053.18.13.356.232.527.313.528.816.915 1.51 1.16.694.246 1.57.372 2.627.379z" mask="url(#e)"/><path fill="#000000" fill-opacity=".56" d="M115.025 86.511a2.505 2.505 0 00-2.943 2.943c.187.983.98 1.776 1.963 1.964a2.504 2.504 0 002.942-2.944 2.494 2.494 0 00-1.962-1.963zm.642 6.47a4.181 4.181 0 01-5.149-5.148 4.085 4.085 0 012.886-2.885 4.18 4.18 0 015.148 5.148 4.085 4.085 0 01-2.885 2.885zm-3.545-10.836a.418.418 0 00-.547-.117l-1.65.952a.414.414 0 00-.17.532l.21.464c.302.672.347 1.452.042 2.123a2.484 2.484 0 01-2.037 1.474l-.545.055a.472.472 0 00-.425.469v1.854c0 .214.162.393.375.414l.503.051c.734.073 1.433.423 1.863 1.023.539.749.63 1.679.259 2.502l-.225.5c-.1.22-.015.48.195.602l1.605.927a.418.418 0 00.547-.118l.349-.485a2.499 2.499 0 014.058 0l.35.486c.124.173.36.224.546.117l1.65-.952a.416.416 0 00.17-.533l-.218-.485c-.28-.62-.337-1.334-.09-1.969a2.49 2.49 0 012.093-1.606l.545-.054a.473.473 0 00.425-.47v-1.854a.415.415 0 00-.375-.414l-.503-.05c-.734-.074-1.432-.424-1.864-1.024a2.483 2.483 0 01-.258-2.501l.226-.5a.473.473 0 00-.194-.604l-1.606-.926a.416.416 0 00-.546.117l-.353.49a2.5 2.5 0 01-2.026 1.037h-.001c-.805 0-1.56-.388-2.03-1.041l-.348-.486zm-.219 15.683a1.66 1.66 0 01-.835-.226l-2.302-1.33a1.666 1.666 0 01-.686-2.126l.39-.865a.863.863 0 00.02-.69.83.83 0 00-.686-.507l-.97-.097a1.666 1.666 0 01-1.5-1.658V87.67c0-.856.648-1.574 1.5-1.659l.948-.094a.852.852 0 00.563-.278c.223-.259.27-.599.136-.896l-.401-.89c-.353-.78-.055-1.7.686-2.129l2.302-1.328a1.666 1.666 0 012.186.47l.57.793a.83.83 0 00.676.346c.267 0 .52-.129.676-.346l.57-.792c.5-.695 1.446-.9 2.187-.47l2.301 1.327c.743.429 1.04 1.35.686 2.13l-.386.854a.877.877 0 00-.026.693c.123.293.381.483.688.513l.969.097a1.667 1.667 0 011.502 1.66v2.657c0 .856-.65 1.574-1.502 1.659l-.918.092c-.277.027-.542.167-.684.406a.828.828 0 00-.043.771l.4.888c.352.78.056 1.701-.686 2.129l-2.3 1.329a1.668 1.668 0 01-2.19-.471l-.567-.792a.834.834 0 00-1.354.001l-.569.791a1.66 1.66 0 01-1.35.697z" mask="url(#e)"/><path fill="#000000" fill-opacity=".12" mask="url(#e)" d="M0 113h375v1H0z"/></g></g></g></svg>