<svg xmlns="http://www.w3.org/2000/svg" xmlns:xlink="http://www.w3.org/1999/xlink" width="422" height="344"><defs><filter id="d" width="113.9%" height="117.6%" x="-6.9%" y="-7.4%" filterUnits="objectBoundingBox"><feOffset dy="4" in="SourceAlpha" result="shadowOffsetOuter1"/><feGaussianBlur in="shadowOffsetOuter1" result="shadowBlurOuter1" stdDeviation="8"/><feColorMatrix in="shadowBlurOuter1" values="0 0 0 0 0 0 0 0 0 0 0 0 0 0 0 0 0 0 0.12 0"/></filter><filter id="f" width="110.7%" height="113.5%" x="-5.3%" y="-5.4%" filterUnits="objectBoundingBox"><feOffset dy="2" in="SourceAlpha" result="shadowOffsetOuter1"/><feGaussianBlur in="shadowOffsetOuter1" result="shadowBlurOuter1" stdDeviation="4"/><feColorMatrix in="shadowBlurOuter1" result="shadowMatrixOuter1" values="0 0 0 0 0 0 0 0 0 0 0 0 0 0 0 0 0 0 0.08 0"/><feOffset dy="4" in="SourceAlpha" result="shadowOffsetOuter2"/><feGaussianBlur in="shadowOffsetOuter2" result="shadowBlurOuter2" stdDeviation="6"/><feColorMatrix in="shadowBlurOuter2" result="shadowMatrixOuter2" values="0 0 0 0 0 0 0 0 0 0 0 0 0 0 0 0 0 0 0.04 0"/><feOffset in="SourceAlpha" result="shadowOffsetOuter3"/><feGaussianBlur in="shadowOffsetOuter3" result="shadowBlurOuter3" stdDeviation="2"/><feColorMatrix in="shadowBlurOuter3" result="shadowMatrixOuter3" values="0 0 0 0 0 0 0 0 0 0 0 0 0 0 0 0 0 0 0.04 0"/><feMerge><feMergeNode in="shadowMatrixOuter1"/><feMergeNode in="shadowMatrixOuter2"/><feMergeNode in="shadowMatrixOuter3"/></feMerge></filter><filter id="h" width="101.9%" height="110.9%" x="-.9%" y="-3.9%" filterUnits="objectBoundingBox"><feOffset dy="1" in="SourceAlpha" result="shadowOffsetOuter1"/><feGaussianBlur in="shadowOffsetOuter1" result="shadowBlurOuter1" stdDeviation="1"/><feComposite in="shadowBlurOuter1" in2="SourceAlpha" operator="out" result="shadowBlurOuter1"/><feColorMatrix in="shadowBlurOuter1" values="0 0 0 0 0 0 0 0 0 0 0 0 0 0 0 0 0 0 0.12 0"/></filter><path id="c" d="M8.73 0h359a8 8 0 018 8v288H.73V8a8 8 0 018-8z"/><path id="g" d="M8.73 0h359a8 8 0 018 8v288H.73V8a8 8 0 018-8z"/><path id="i" d="M.73 0h375v64H.73z"/><linearGradient id="j" x1="50%" x2="100%" y1="50%" y2="50%"><stop offset="0%" stop-color="#FFF"/><stop offset="100%" stop-color="#FFF" stop-opacity="0"/></linearGradient><rect id="a" width="422" height="344" x="0" y="0" rx="4"/></defs><g fill="none" fill-rule="evenodd"><mask id="b" fill="#fff"><use xlink:href="#a"/></mask><use fill="#000" fill-opacity="0" xlink:href="#a"/><g mask="url(#b)"><g transform="translate(23.27 48)"><mask id="e" fill="#fff"><use xlink:href="#c"/></mask><use fill="#000" filter="url(#d)" xlink:href="#c"/><g mask="url(#e)"><use fill="#000" filter="url(#f)" xlink:href="#g"/><use fill="#FFF" xlink:href="#g"/></g><g mask="url(#e)"><use fill="#000" filter="url(#h)" xlink:href="#i"/><use fill="#FFF" fill-opacity=".98" xlink:href="#i"/></g><path fill="#000000" fill-opacity=".87" fill-rule="nonzero" d="M352.64 36.183c.478 0 .901-.086 1.268-.256.368-.17.711-.414 1.032-.73a7.096 7.096 0 001.236.687c.194.073.386.131.575.174.189.042.368.064.539.064.198 0 .39-.03.572-.092a1.956 1.956 0 00.934-.663c.124-.158.224-.335.301-.53.07-.182.121-.37.156-.566a3.45 3.45 0 00.051-.602 3.66 3.66 0 00-.255-1.336 2.915 2.915 0 00-.323-.597 2.407 2.407 0 00-.453-.487 2.013 2.013 0 00-1.3-.447c-.288 0-.542.058-.76.173-.22.116-.415.266-.585.45-.17.185-.323.393-.457.625a10.56 10.56 0 00-.371.7c-.114.223-.234.446-.362.67a3.17 3.17 0 01-.445.602 2.108 2.108 0 01-.58.435c-.22.112-.478.167-.774.167h-.122v1.559h.122zm4.936-1.583c-.082 0-.17-.012-.268-.037a3.048 3.048 0 01-.53-.164 5.406 5.406 0 01-.925-.487c.154-.308.284-.563.39-.764.105-.2.196-.36.274-.48.077-.12.143-.206.197-.256a.36.36 0 01.168-.095.9.9 0 01.176-.018.75.75 0 01.329.073c.15.077.28.187.39.329.11.142.195.305.258.49a1.7 1.7 0 01.095.55v.062c0 .097-.009.186-.025.267a1.14 1.14 0 01-.094.256.631.631 0 01-.128.174.287.287 0 01-.13.076.599.599 0 01-.177.024zm-4.815 1.583v-1.559h-.14a.933.933 0 01-.374-.07.918.918 0 01-.287-.194 1.29 1.29 0 01-.219-.299 3.924 3.924 0 01-.18-.38l-1.527-3.683a135.23 135.23 0 00-.274-.657 21.409 21.409 0 01-.231-.572l-1.443.602 1.942 4.687a2.22 2.22 0 01-.375.216 3.555 3.555 0 01-1.384.326c-.292 0-.599-.076-.92-.228-.32-.152-.665-.399-1.034-.74l-.895 1.26c.394.406.815.722 1.263.95.448.227.926.34 1.434.34.267 0 .521-.01.76-.033.24-.022.471-.062.694-.119a3.426 3.426 0 001.236-.596c.097.105.199.204.304.295.106.091.228.17.366.238.137.066.299.12.483.158.185.038.405.058.66.058h.14zm-11.742 0c.459 0 .89-.047 1.294-.14a3.12 3.12 0 001.059-.448c.302-.205.54-.472.715-.8.174-.329.262-.729.262-1.2 0-.263-.025-.533-.073-.809a7.945 7.945 0 00-.192-.825c-.08-.274-.17-.54-.271-.8s-.203-.505-.304-.737l-1.406.694a10.056 10.056 0 01.749 2.045c.044.191.066.34.066.445 0 .223-.062.402-.185.535-.124.134-.28.237-.47.308a2.432 2.432 0 01-.614.14 6.178 6.178 0 01-.618.033h-1.296v1.559h1.284zm-.055 2.836L342 37.984l-1.047-1.047-1.035 1.041 1.047 1.041zm2.301.012l1.035-1.04-1.047-1.041-1.035 1.034 1.047 1.047zm-8.68 1.705a11.814 11.814 0 001.507-.895c.489-.341.929-.716 1.32-1.126.392-.41.718-.85.978-1.318.26-.469.416-.959.468-1.47.191.122.366.195.527.22.16.023.293.036.398.036h.19l.005-1.559h-.188c-.179 0-.338-.035-.478-.106a1.156 1.156 0 01-.402-.378 4.017 4.017 0 01-.39-.736c-.131-.31-.277-.703-.435-1.178l-1.46.609c.076.231.162.47.255.715.093.246.18.488.262.727.08.24.148.47.2.691.053.221.08.423.08.606 0 .256-.048.505-.143.749a3.32 3.32 0 01-.39.712c-.164.231-.359.452-.584.663a8.676 8.676 0 01-.728.609c-.26.195-.532.377-.818.548-.286.17-.571.328-.856.475l.682 1.406zm-3.634-4.553c.459 0 .89-.047 1.294-.14a3.12 3.12 0 001.059-.448c.302-.205.54-.472.715-.8.175-.329.262-.729.262-1.2 0-.263-.024-.533-.073-.809a7.945 7.945 0 00-.192-.825c-.079-.274-.17-.54-.27-.8-.102-.26-.204-.505-.305-.737l-1.406.694a10.056 10.056 0 01.749 2.045c.044.191.066.34.066.445 0 .223-.061.402-.185.535-.124.134-.28.237-.469.308a2.432 2.432 0 01-.615.14 6.178 6.178 0 01-.618.033h-1.296v1.559h1.284zm-.054 2.836l1.034-1.035-1.047-1.047-1.034 1.041 1.047 1.041zm2.3.012l1.035-1.04-1.047-1.041-1.035 1.034 1.047 1.047zm-11.887-7.998l1.034-1.035-1.047-1.047-1.034 1.041 1.047 1.041zm2.3.012l1.035-1.04-1.047-1.042-1.035 1.035 1.047 1.047zm-1.661 5.156c2.223 0 3.893-.515 5.01-1.546.133.272.287.504.462.697.174.192.373.35.596.475.224.123.472.214.746.27.274.057.58.086.916.086h.231v-1.559h-.219c-.296 0-.547-.038-.751-.115a1.272 1.272 0 01-.497-.32 1.236 1.236 0 01-.273-.475 1.54 1.54 0 01-.086-.438v-.198c0-.19.02-.387.061-.59.045-.223.106-.442.183-.658l-1.4-.377c-.057.195-.11.398-.158.609a5.28 5.28 0 01-.183.618c-.073.2-.164.392-.274.575-.11.182-.254.343-.432.48-.195.163-.428.3-.7.412a5.286 5.286 0 01-.91.273 8.745 8.745 0 01-1.087.156c-.39.032-.801.048-1.235.048-.48 0-.926-.02-1.34-.06a7.384 7.384 0 01-1.116-.19 3.352 3.352 0 01-.843-.328 1.399 1.399 0 01-.518-.487 1.54 1.54 0 01-.228-.523 1.983 1.983 0 01-.033-.64c.02-.194.068-.389.146-.584.077-.195.174-.39.292-.584l-1.175-.737a4.46 4.46 0 00-.402.904c-.101.319-.16.584-.173.795a7.702 7.702 0 00-.022.456c0 .24.025.479.073.718.065.329.183.646.353.95.394.637 1.006 1.109 1.836 1.415.83.307 1.88.464 3.15.472zm-18.955-.018a10.734 10.734 0 002.304-.29 17.13 17.13 0 002.109-.65 22.704 22.704 0 001.936-.844c.616-.304 1.209-.592 1.777-.864l.128-1.57a3.825 3.825 0 01-.974-.138 8.171 8.171 0 01-.94-.322c-.311-.128-.618-.265-.923-.411a21.023 21.023 0 00-.91-.411 7.096 7.096 0 00-.916-.316 3.562 3.562 0 00-.931-.125c-.304 0-.593.054-.864.161a3.089 3.089 0 00-.758.432c-.234.18-.446.386-.636.615-.191.23-.355.466-.493.71l1.266.82.085-.145a3.385 3.385 0 01.374-.505 1.8 1.8 0 01.283-.256c.106-.077.22-.141.344-.192.124-.05.257-.076.399-.076.243 0 .489.045.736.134.248.09.506.195.773.317.268.121.552.246.853.374.3.128.625.23.974.307-.439.215-.903.424-1.394.627-.491.203-.995.383-1.51.539-.515.156-1.034.282-1.555.377a8.532 8.532 0 01-1.537.143h-1.321v1.559h1.32zm-8.753.018c.19 0 .373-.025.548-.076.174-.05.34-.122.496-.213.156-.092.302-.2.438-.323.136-.124.263-.26.38-.41.183.304.43.547.74.73.31.182.656.274 1.038.274.381 0 .73-.096 1.047-.286.316-.191.572-.445.767-.761.113.182.246.34.398.471a2.262 2.262 0 001.041.515c.193.04.389.06.588.06h.195v-1.558h-.226c-.125 0-.258-.026-.398-.079a1.295 1.295 0 01-.393-.237 1.497 1.497 0 01-.5-.95 31.21 31.21 0 01-.063-.496 14.467 14.467 0 01-.046-.432 70.529 70.529 0 00-.073-.788l-1.54.121c0 .09.001.16.003.21l.003.137.003.131a10.638 10.638 0 01-.024.937 3.72 3.72 0 01-.113.704 1.427 1.427 0 01-.246.52.514.514 0 01-.423.204.549.549 0 01-.374-.125.83.83 0 01-.223-.32 1.457 1.457 0 01-.1-.398 3.483 3.483 0 01-.021-.356 5.263 5.263 0 01.067-.776c.032-.205.075-.43.127-.673l-1.436-.292a7.913 7.913 0 01-.314 1.184 7.55 7.55 0 01-.255.642c-.096.211-.201.4-.317.566-.115.167-.24.303-.374.408a.71.71 0 01-.426.164h-.025a.342.342 0 01-.188-.054.442.442 0 01-.146-.165.757.757 0 01-.076-.225 1.344 1.344 0 01-.022-.231V33.9c.008-.223.051-.49.128-.8.077-.31.164-.634.262-.971l-1.491-.42a10.344 10.344 0 01-.424 1.448c-.148.378-.306.675-.474.892-.169.217-.345.367-.53.45-.185.084-.38.125-.587.125h-.256v1.559h.262c.458 0 .836-.08 1.132-.238.296-.158.546-.416.749-.773a1.84 1.84 0 001.163.959c.17.047.346.07.529.07zm-3.591-.018v-1.559h-.274a1.6 1.6 0 01-.417-.048.604.604 0 01-.457-.444 1.51 1.51 0 01-.045-.39v-.285l.003-.184a691.051 691.051 0 00.012-.764 29.249 29.249 0 00-.003-1.071c-.004-.242-.006-.47-.006-.685a31.888 31.888 0 00-.183-3.393 11.12 11.12 0 00-.122-.862l-1.528.457c.037.19.07.41.098.66.028.25.053.518.073.804a46.356 46.356 0 01.085 1.808 71.017 71.017 0 01.024 1.725v.25a36.97 36.97 0 01-.012.843c-.008.298-.012.512-.012.642.004.836.22 1.46.645 1.875.426.414 1.051.62 1.875.62h.244zm-9.995 0c.178 0 .377-.006.596-.019a13.485 13.485 0 001.848-.213c.33-.06.653-.135.968-.222.314-.087.611-.19.891-.31s.526-.259.737-.417c.21-.159.377-.335.499-.53s.183-.412.183-.651c0-.17-.029-.372-.086-.606a8.653 8.653 0 00-.213-.727 14.786 14.786 0 00-.8-1.884c-.063-.12-.1-.18-.113-.18l-1.302.846.359.618c.117.205.229.413.335.624.105.211.2.426.283.645.083.22.149.447.197.682-.328.162-.69.293-1.086.393-.396.1-.798.177-1.205.234a13.95 13.95 0 01-1.187.116c-.384.02-.728.03-1.032.03-.548 0-1.062-.024-1.543-.073a8.885 8.885 0 01-1.284-.216 3.878 3.878 0 01-.938-.353c-.25-.14-.419-.301-.508-.484a.619.619 0 01-.055-.268c0-.052.004-.107.012-.164.025-.17.07-.347.137-.53a3.999 3.999 0 01.466-.9l-1.132-.95-.292.55a5.774 5.774 0 00-.262.57c-.077.195-.14.395-.189.6a2.769 2.769 0 00-.073.642c0 .45.08.84.237 1.171.159.331.374.612.646.843.272.232.592.42.961.563.37.145.763.258 1.181.341.418.084.852.141 1.303.174.45.032.895.05 1.333.055h.128zm-.152 3.147l1.168-1.17-1.168-1.162-1.163 1.163 1.163 1.169z" mask="url(#e)"/><path fill="#EA475B" fill-rule="nonzero" mask="url(#e)" d="M248.23 111h112v2h-112zM312.669 83.845l1.134-1.134-1.141-1.14-1.134 1.133 1.14 1.141zM309.844 93c.46-.005.912-.022 1.357-.052.445-.03.87-.085 1.276-.164a6.536 6.536 0 001.134-.323c.35-.137.661-.314.932-.532a2.74 2.74 0 00.672-.793c.176-.311.292-.677.348-1.1a4.997 4.997 0 00.02-1.126 5.945 5.945 0 00-.212-1.096 5.3 5.3 0 00-.407-1.002 4.113 4.113 0 00-.57-.824c-.501-.543-1.057-.814-1.67-.814a1.71 1.71 0 00-.807.205c-.26.137-.494.344-.702.623-.367.473-.615 1.062-.745 1.767-.027.19-.041.364-.041.521v.119c.009.194.034.368.076.521.042.153.095.29.16.407.065.119.13.22.195.303.12.153.267.289.438.407.172.118.362.217.57.296.21.078.432.138.669.177.236.04.48.06.73.06h.703c-.038.04-.075.083-.112.124a1.454 1.454 0 01-.146.14 1.95 1.95 0 01-.522.278 6.013 6.013 0 01-.866.254c-.34.076-.728.139-1.161.187a12.73 12.73 0 01-1.416.074h-.14V93h.237zm3.82-3.798c-.21 0-.432-.005-.668-.014a2.745 2.745 0 01-.56-.09 1.009 1.009 0 01-.404-.21.633.633 0 01-.202-.305 1.224 1.224 0 01-.045-.32c0-.08.007-.163.021-.25.042-.237.101-.446.177-.627.077-.18.16-.334.247-.459a1.16 1.16 0 01.265-.282.419.419 0 01.23-.094c.13 0 .25.04.365.122.113.081.207.164.281.247.237.264.426.596.567.995.142.399.229.823.261 1.273-.153.01-.331.014-.536.014zM309.885 93v-1.363h-.139a2.77 2.77 0 01-.755-.09c-.21-.061-.37-.145-.476-.251a.58.58 0 01-.185-.359 3.758 3.758 0 01-.024-.441v-3.493a48.553 48.553 0 00-.066-2.546 31.39 31.39 0 00-.077-1.12c-.03-.343-.066-.633-.107-.87l-1.364.251c.042.218.078.498.108.839.03.34.056.713.076 1.116.021.404.036.82.046 1.252.009.432.014.847.014 1.245.004.409.006.796.006 1.162 0 .371-.002.7-.006.988a211.355 211.355 0 00-.014.957v.198c.001.084.003.178.007.282a2.686 2.686 0 00.247 1.012c.08.176.198.34.35.494.251.25.556.436.916.556.359.12.794.181 1.304.181h.14zm-9.35 0c.242 0 .443-.016.606-.049.983-.18 1.68-.637 2.094-1.37.097-.176.182-.371.254-.584.071-.214.116-.405.132-.574.016-.17.024-.303.024-.4a3.57 3.57 0 00-.042-.53 4.165 4.165 0 00-.25-.903 5.846 5.846 0 00-.529-1.013 8.611 8.611 0 00-.87-1.116 10.845 10.845 0 00-.8-.8 44.76 44.76 0 00-.744-.654l4.981-2.094-.535-1.266-5.719 2.449-.16 1.426c.38.306.754.635 1.12.988.367.352.698.696.995 1.033.297.336.546.651.748.946.202.294.328.537.379.727.065.25.097.484.097.702a1.71 1.71 0 01-.278.946c-.13.195-.308.345-.536.449-.227.104-.477.18-.75.23a5.667 5.667 0 01-.863.083c-.302.007-.592.01-.87.01h-.87V93h2.387zm-6.49-6.588l1.127-1.127-1.14-1.14-1.128 1.133 1.141 1.134zm2.852.014l1.127-1.134-1.14-1.134-1.128 1.127 1.141 1.141zM293.26 93c.436 0 .815-.017 1.137-.052.323-.035.604-.088.846-.16a2.598 2.598 0 001.113-.65c.2.254.454.462.765.622.31.16.7.24 1.169.24h.139v-1.363h-.14c-.236 0-.43-.054-.58-.16a1.141 1.141 0 01-.355-.404 1.905 1.905 0 01-.184-.529 4.913 4.913 0 01-.077-.542 21.332 21.332 0 00-.125-1.204 6.534 6.534 0 00-.202-.946l-1.308.369c.102.352.173.665.212.939.04.274.06.543.06.807 0 .278-.047.522-.14.73a1.256 1.256 0 01-.434.522c-.197.14-.453.244-.766.313-.313.07-.69.105-1.13.105h-1.037V93h1.037zm-7.29 4.883a8.524 8.524 0 001.965-.556 7.19 7.19 0 001.725-1.016 6.198 6.198 0 001.322-1.45 5.255 5.255 0 00.755-1.861h.765v-1.363h-.661a6.622 6.622 0 00-.376-2.02 5.342 5.342 0 00-.403-.881 4.395 4.395 0 00-.529-.738c-.552-.593-1.157-.89-1.816-.89a1.77 1.77 0 00-.859.226 2.61 2.61 0 00-.768.664c-.195.25-.364.549-.508.894a3.926 3.926 0 00-.275.925c-.04.272-.06.495-.06.672 0 .185.017.37.05.556.055.353.19.663.403.932.482.599 1.227.928 2.233.988.255.023.484.035.685.035h.79c-.051.348-.194.701-.428 1.06-.234.36-.553.7-.957 1.02-.403.32-.888.608-1.453.863a8.976 8.976 0 01-1.92.598l.32 1.342zm3.755-6.26h-.048c-.204 0-.422-.007-.654-.021a3.506 3.506 0 01-.295-.032 2.472 2.472 0 01-.348-.076 1.635 1.635 0 01-.334-.14.819.819 0 01-.26-.225.651.651 0 01-.143-.33 2.434 2.434 0 01-.025-.31 3.16 3.16 0 01.153-.908c.065-.202.145-.384.24-.546.095-.163.203-.296.324-.4a.577.577 0 01.382-.157c.084 0 .163.014.237.042.074.028.145.064.212.108s.13.093.188.146c.058.053.11.103.156.15.116.134.229.293.338.476.109.183.207.388.295.616.089.227.16.473.216.737.056.264.09.545.104.842-.18.014-.344.022-.49.024l-.296.004h.048zm-10.051 6.358c.39-.19.773-.405 1.151-.644.378-.238.738-.5 1.078-.782a9.21 9.21 0 00.947-.905c.29-.32.54-.656.75-1.008.212-.353.377-.718.495-1.096.118-.378.177-.769.177-1.172 0-.204-.016-.413-.049-.626a9.948 9.948 0 00-.121-.65 19.8 19.8 0 00-.16-.668 95.398 95.398 0 01-.17-.672 10.345 10.345 0 00-.175-.636c-.065-.211-.13-.426-.194-.644l-1.322.418c.125.39.243.779.355 1.168.05.19.104.385.16.585.055.2.106.399.153.598.046.2.084.394.114.584.03.19.046.371.046.543 0 .45-.11.886-.327 1.308-.218.422-.507.82-.866 1.196-.36.376-.769.723-1.228 1.04-.46.318-.932.597-1.42.839l.606 1.224zm-4.035-4.96c.162 0 .341-.007.536-.021a5.445 5.445 0 001.134-.205c.176-.054.329-.12.459-.198.487-.26.85-.586 1.089-.978.238-.392.358-.817.358-1.276 0-.613-.214-1.215-.64-1.81a2.929 2.929 0 00-.605-.583 7.993 7.993 0 00-.901-.578c-.341-.19-.712-.38-1.113-.57-.402-.19-.818-.38-1.249-.57l-2.42-.995-.662 1.252.55.215a2.495 2.495 0 00-.717.512c-.2.206-.365.429-.497.667a3.108 3.108 0 00-.386 1.478c0 .34.087.69.26 1.055.175.364.435.734.783 1.11a10.685 10.685 0 01-.883.083c-.172.009-.363.016-.574.02-.211.005-.456.008-.734.008h-.188V93h.188c.33 0 .67-.007 1.023-.02.352-.015.698-.037 1.036-.067.339-.03.662-.07.97-.122a6.64 6.64 0 00.832-.188 5.4 5.4 0 001.165.327c.383.06.778.09 1.186.09zm-2.42-1.906a4.73 4.73 0 01-.502-.38 2.933 2.933 0 01-.414-.438 2.078 2.078 0 01-.281-.497 1.502 1.502 0 01-.105-.557c0-.208.044-.426.133-.653.088-.228.21-.432.365-.613.155-.18.32-.313.497-.396.176-.084.343-.125.501-.125.084 0 .17.009.257.027.2.042.361.118.484.227.123.109.218.234.285.375.067.142.111.29.132.445.021.156.032.303.032.442a2.392 2.392 0 01-.769 1.74c-.174.162-.38.296-.616.403zm2.288.57a3.576 3.576 0 01-.64-.049c.176-.185.336-.389.48-.612.144-.222.265-.448.365-.678.1-.23.178-.458.233-.685.056-.227.084-.438.084-.633 0-.14-.003-.288-.007-.445a2.018 2.018 0 00-.084-.501c.33.153.617.322.863.508.246.185.45.374.616.567.164.192.288.383.372.573.083.19.125.367.125.53 0 .19-.043.371-.129.545a1.192 1.192 0 01-.417.456c-.193.13-.442.233-.748.31a4.652 4.652 0 01-1.113.114zM269.517 93v-1.363h-.139a2.77 2.77 0 01-.755-.09c-.21-.061-.37-.145-.476-.251a.58.58 0 01-.184-.359 3.758 3.758 0 01-.025-.441v-3.493a48.553 48.553 0 00-.066-2.546 31.39 31.39 0 00-.076-1.12c-.03-.343-.066-.633-.108-.87l-1.364.251c.042.218.078.498.108.839.03.34.056.713.077 1.116.02.404.036.82.045 1.252.01.432.014.847.014 1.245.004.409.007.796.007 1.162 0 .371-.003.7-.007.988a211.355 211.355 0 00-.014 1.037c0 .11.002.244.007.4a2.686 2.686 0 00.247 1.012c.081.176.198.34.351.494.25.25.555.436.915.556.36.12.794.181 1.304.181h.14zm72.63-8.2h-2.5v-1.25a1.251 1.251 0 012.5 0v1.25zm-4.167 9.583c0 .69-.56 1.25-1.25 1.25-.689 0-1.25-.56-1.25-1.25v-1.25a.833.833 0 00-.833-.834h-5v-8.717c0-.707.575-1.282 1.283-1.282h7.332c-.008.017-.012.038-.02.056-.054.12-.093.249-.132.378-.018.066-.045.128-.06.195-.044.201-.07.408-.07.621v10.833zm-10.416 1.25c-.69 0-1.25-.56-1.25-1.25v-.417h7.5v.417c0 .213.026.42.07.62.015.068.041.13.06.196.038.129.077.257.131.378.009.018.012.038.02.056h-6.531zm13.333-15h-9.967a2.952 2.952 0 00-2.95 2.949v8.717h-2.5a.833.833 0 00-.833.833v1.251a2.92 2.92 0 002.917 2.917h9.166a2.92 2.92 0 002.917-2.917v-7.916h3.333c.461 0 .834-.374.834-.834V83.55a2.92 2.92 0 00-2.917-2.917z"/><path fill="#000000" fill-opacity=".56" fill-rule="nonzero" d="M202.66 93.063c.064-.77.102-1.496.114-2.178.012-.682.017-1.226.017-1.635 0-.677-.007-1.4-.02-2.17a63.584 63.584 0 00-.355-5.064l-1.364.208c.158 1.461.283 3.316.376 5.566.014.384.02.793.02 1.224 0 .357-.004.73-.013 1.12a64.701 64.701 0 01-.146 2.852l1.37.077zM191.945 93l1.656-.014c.732 0 1.384-.017 1.955-.052.57-.035 1.077-.081 1.52-.14a15.582 15.582 0 002.048-.4l-.167-1.321-.511.104a8.2 8.2 0 01-.487.084 14.262 14.262 0 01-1.27.118c-.25 0-.491-.035-.723-.104a2.247 2.247 0 01-.748-.376 1.937 1.937 0 01-.518-.605 1.62 1.62 0 01-.195-.793c0-.213.035-.419.104-.616.07-.197.173-.372.31-.525.137-.153.307-.275.511-.365.204-.09.44-.136.71-.136.236 0 .45.024.64.073.19.049.365.116.525.202.16.086.31.185.449.299.139.114.28.235.424.365l.856-1.05a17.654 17.654 0 00-.62-.487 4.226 4.226 0 00-.646-.4 3.52 3.52 0 00-1.628-.365c-.431 0-.83.08-1.193.24a2.971 2.971 0 00-1.58 1.607c-.15.364-.225.75-.225 1.158 0 .417.068.798.205 1.14.137.344.374.669.713.975l-2.115.02V93zm-4.104-6.588l1.127-1.127-1.141-1.14-1.127 1.133 1.14 1.134zm2.852.014l1.127-1.134-1.141-1.134-1.127 1.127 1.14 1.141zM187.056 93c.436 0 .815-.017 1.137-.052.322-.035.604-.088.845-.16a2.598 2.598 0 001.113-.65c.2.254.455.462.766.622.31.16.7.24 1.168.24h.14v-1.363h-.14c-.236 0-.43-.054-.58-.16a1.141 1.141 0 01-.355-.404 1.905 1.905 0 01-.185-.529 4.913 4.913 0 01-.076-.542 21.335 21.335 0 00-.126-1.204 6.534 6.534 0 00-.201-.946l-1.308.369c.102.352.173.665.212.939.04.274.06.543.06.807 0 .278-.047.522-.14.73a1.256 1.256 0 01-.435.522c-.197.14-.452.244-.765.313-.313.07-.69.105-1.13.105h-1.037V93h1.037zm-5.684 0c.682 0 1.255-.07 1.718-.212.464-.142.842-.358 1.134-.65.2.254.455.462.766.622.31.16.7.24 1.168.24h.14v-1.363h-.14c-.236 0-.43-.054-.58-.16a1.141 1.141 0 01-.355-.404 1.905 1.905 0 01-.185-.529 4.913 4.913 0 01-.076-.542 21.339 21.339 0 00-.125-1.204 6.535 6.535 0 00-.202-.946l-1.308.369c.102.352.173.665.212.939.04.274.06.543.06.807 0 .552-.177.968-.53 1.249-.352.28-.918.42-1.697.42h-.257V93h.257zm2.22 3.624l1.133-1.134-1.14-1.14-1.135 1.133 1.141 1.141zM181.392 93v-1.363h-.14a2.77 2.77 0 01-.754-.09c-.21-.061-.37-.145-.476-.251a.58.58 0 01-.185-.359 3.758 3.758 0 01-.024-.441v-3.493a48.553 48.553 0 00-.066-2.546c-.021-.403-.047-.776-.077-1.12-.03-.343-.066-.633-.108-.87l-1.363.251c.042.218.078.498.108.839.03.34.055.713.076 1.116.021.404.036.82.046 1.252.009.432.013.847.013 1.245.005.409.007.796.007 1.162v.27c0 .263-.003.502-.007.718a211.628 211.628 0 00-.013.957v.198c.001.084.003.178.007.282a2.686 2.686 0 00.247 1.012c.08.176.198.34.35.494.251.25.556.436.916.556.359.12.794.181 1.304.181h.139zm-9.913 4.98c.39-.19.773-.404 1.151-.643.378-.238.738-.5 1.079-.782a9.21 9.21 0 00.946-.905c.29-.32.54-.656.751-1.008.211-.353.376-.718.494-1.096.118-.378.177-.769.177-1.172 0-.204-.016-.413-.048-.626a9.948 9.948 0 00-.122-.65 19.8 19.8 0 00-.16-.668 95.343 95.343 0 01-.17-.672 10.345 10.345 0 00-.175-.636c-.064-.211-.13-.426-.194-.644l-1.322.418c.125.39.243.779.355 1.168.05.19.104.385.16.585.055.2.106.399.153.598.046.2.084.394.115.584.03.19.045.371.045.543 0 .45-.11.886-.327 1.308-.218.422-.507.82-.866 1.196-.36.376-.769.723-1.228 1.04-.46.318-.932.597-1.42.839l.606 1.224zM158.826 93c.283 0 .55-.014.8-.042.25-.028.487-.08.71-.16.222-.079.432-.192.63-.34.196-.149.385-.346.566-.592.214.158.445.312.696.463.25.15.511.278.782.382a3.005 3.005 0 001.124.226c.19 0 .38-.025.57-.076a1.66 1.66 0 00.766-.449c.208-.215.373-.468.493-.758.121-.29.195-.555.223-.797.028-.24.042-.436.042-.584 0-.167-.012-.33-.035-.487a4.21 4.21 0 00-.247-.918 2.864 2.864 0 00-.476-.807c-.2-.237-.44-.428-.72-.574a2.071 2.071 0 00-.97-.22c-.307 0-.575.062-.804.185-.23.123-.434.283-.613.48a3.668 3.668 0 00-.48.675c-.141.253-.274.509-.4.769-.143.287-.286.567-.427.838a3.398 3.398 0 01-.501.723c-.193.211-.426.38-.7.508-.273.128-.616.192-1.029.192h-.139V93h.14zm5.287-1.447c-.185 0-.394-.046-.626-.14-.348-.138-.733-.363-1.155-.674l.376-.758c.116-.227.219-.424.31-.591a3.74 3.74 0 01.257-.418.985.985 0 01.243-.247.466.466 0 01.261-.08c.14 0 .262.028.369.084.106.055.2.126.278.212.079.086.146.18.202.285a2.264 2.264 0 01.215.567c.019.079.03.135.035.167.019.125.028.246.028.362a2.082 2.082 0 01-.129.703c-.053.138-.117.252-.19.34a.444.444 0 01-.23.16 1.003 1.003 0 01-.244.028zM152.28 89.64l1.134-1.134-1.141-1.14-1.134 1.133 1.141 1.141zm-.285 8.132c.57 0 1.112-.06 1.624-.18.513-.121.98-.306 1.402-.554a4.23 4.23 0 001.11-.942c.317-.38.564-.833.74-1.357.12-.37.199-.71.233-1.016a7.4 7.4 0 00.046-1.147c.491.283 1.05.424 1.676.424h.153v-1.363h-.153c-.162 0-.335-.02-.518-.06a1.619 1.619 0 01-.581-.274 3.328 3.328 0 01-.647-.64 7.351 7.351 0 01-.723-1.148 7.98 7.98 0 00-.508-.946l-1.155.737c.005 0 .047.068.129.205.08.137.175.325.281.564.107.239.215.52.324.842a6.615 6.615 0 01.344 2.118v.083c-.01.404-.076.805-.202 1.204a2.69 2.69 0 01-.459.873 2.733 2.733 0 01-.758.654 3.688 3.688 0 01-1.05.407c-.4.092-.844.139-1.336.139a3.94 3.94 0 01-1.054-.129 3.297 3.297 0 01-.807-.334 2.717 2.717 0 01-.588-.462 3.029 3.029 0 01-.403-.526 2.502 2.502 0 01-.24-.518 2.909 2.909 0 01-.108-.431 4.08 4.08 0 01-.035-.821c.014-.278.045-.552.094-.821.049-.269.11-.527.184-.776.075-.248.152-.476.233-.685.082-.209.162-.39.24-.546a2.8 2.8 0 01.21-.358l-1.107-.814c-.19.315-.372.667-.546 1.054-.174.387-.32.796-.438 1.228a6.484 6.484 0 00-.22 1.123 6.142 6.142 0 00.02 1.61c.094.608.274 1.137.54 1.587.267.45.602.822 1.006 1.116.403.295.864.515 1.38.661.518.146 1.073.22 1.667.22z" mask="url(#e)"/><path fill="#000000" fill-opacity=".56" d="M227.147 82.3c.92 0 1.667.746 1.667 1.666v.834h.833c.92 0 1.667.746 1.667 1.666v7.5c0 .92-.747 1.667-1.667 1.667h-13.333c-.92 0-1.667-.747-1.667-1.667v-.833h-.833c-.92 0-1.667-.747-1.667-1.667v-7.5c0-.92.747-1.666 1.667-1.666zm2.083 4.166h-.416v5c0 .92-.747 1.667-1.667 1.667h-10.833v.417c0 .23.186.416.416.416h12.5c.23 0 .417-.186.417-.416v-6.667a.417.417 0 00-.417-.417zm-2.5-2.5h-12.5a.417.417 0 00-.416.417v6.667c0 .23.186.416.416.416h12.501a.417.417 0 00.416-.413v-6.67a.417.417 0 00-.417-.417zm-6.25.8a2.92 2.92 0 012.917 2.916 2.92 2.92 0 01-2.917 2.917 2.92 2.92 0 01-2.916-2.917 2.92 2.92 0 012.916-2.916zm0 1.666c-.689 0-1.25.561-1.25 1.25 0 .69.561 1.25 1.25 1.25.69 0 1.25-.56 1.25-1.25 0-.689-.56-1.25-1.25-1.25z" mask="url(#e)"/><path fill="#000000" fill-opacity=".56" fill-rule="nonzero" d="M82.55 85.327l1.127-1.127-1.141-1.14-1.127 1.133 1.14 1.134zm2.852.014l1.127-1.134-1.141-1.134L84.26 84.2l1.14 1.14zM82.369 93c.38 0 .748-.026 1.102-.077.355-.05.68-.139.978-.264.297-.125.56-.292.79-.5.229-.21.413-.471.552-.787.14-.32.209-.69.209-1.113 0-.074-.002-.148-.007-.222-.032-.515-.153-1.109-.362-1.781a9.033 9.033 0 00-.222-.644 14.062 14.062 0 00-.383-.897 1.713 1.713 0 01-.063-.143l-1.238.612.605 1.489c.098.237.172.463.223.678.051.216.081.385.09.508.01.123.014.215.014.275 0 .111-.007.216-.02.313a1.35 1.35 0 01-.105.369 1.089 1.089 0 01-.39.455c-.166.11-.359.192-.577.247-.218.056-.454.09-.71.101-.254.012-.516.018-.785.018h-1.343V93h1.642zm-1.364 0v-1.363h-.139a2.77 2.77 0 01-.755-.09c-.21-.061-.37-.145-.476-.251a.58.58 0 01-.185-.359 3.758 3.758 0 01-.024-.441v-3.493a48.553 48.553 0 00-.066-2.546c-.02-.403-.046-.776-.077-1.12-.03-.343-.066-.633-.107-.87l-1.364.251c.042.218.078.498.108.839.03.34.056.713.077 1.116.02.404.035.82.045 1.252.009.432.014.847.014 1.245.004.409.007.796.007 1.162 0 .371-.003.7-.007.988a211.374 211.374 0 00-.014.957v.08c0 .11.002.244.007.4a2.686 2.686 0 00.247 1.012c.08.176.198.34.351.494.25.25.555.436.915.556.36.12.794.181 1.304.181h.14zm-9.913 4.98c.39-.19.774-.404 1.151-.643.378-.238.738-.5 1.079-.782a9.21 9.21 0 00.946-.905c.29-.32.54-.656.751-1.008.211-.353.376-.718.494-1.096.118-.378.177-.769.177-1.172 0-.204-.016-.413-.048-.626a9.948 9.948 0 00-.122-.65 19.8 19.8 0 00-.16-.668 95.354 95.354 0 01-.17-.672 10.346 10.346 0 00-.174-.636 74.75 74.75 0 01-.195-.644l-1.322.418c.125.39.244.779.355 1.168.05.19.104.385.16.585.056.2.107.399.153.598.046.2.085.394.115.584.03.19.045.371.045.543 0 .45-.109.886-.327 1.308-.218.422-.507.82-.866 1.196-.36.376-.769.723-1.228 1.04-.459.318-.932.597-1.419.839l.605 1.224zM67.022 93c.38 0 .748-.026 1.103-.077.355-.05.68-.139.978-.264.296-.125.56-.292.79-.5.229-.21.413-.471.552-.787.14-.32.209-.69.209-1.113 0-.074-.002-.148-.007-.222-.033-.515-.153-1.109-.362-1.781a9.033 9.033 0 00-.222-.644 14.062 14.062 0 00-.383-.897 1.713 1.713 0 01-.063-.143l-1.238.612.605 1.489c.098.237.172.463.223.678.051.216.081.385.09.508.01.123.014.215.014.275 0 .111-.007.216-.02.313a1.35 1.35 0 01-.105.369 1.089 1.089 0 01-.39.455c-.166.11-.359.192-.577.247-.218.056-.454.09-.71.101-.255.012-.517.018-.786.018h-1.342V93h1.642zm-.347 3.402l1.127-1.127-1.141-1.141-1.127 1.134 1.14 1.134zm2.852.014l1.127-1.134-1.141-1.134-1.127 1.127 1.141 1.14zM57.729 85.313l1.134-1.134-1.141-1.14-1.134 1.133 1.14 1.141zM54.786 93c.724 0 1.408-.054 2.052-.163a14.231 14.231 0 001.833-.432c.578-.178 1.126-.38 1.646-.605.519-.225 1.017-.456 1.495-.692.116.297.289.562.518.796.23.235.504.433.821.595.318.162.676.287 1.075.372.399.086.828.129 1.287.129h.146v-1.363h-.146c-.083 0-.195-.004-.334-.01a4.039 4.039 0 01-.459-.053 4.861 4.861 0 01-.511-.115 2.302 2.302 0 01-.494-.202 1.718 1.718 0 01-.41-.313 1.06 1.06 0 01-.255-.448c.214-.107.425-.207.633-.3l.634-.278-.265-1.321c-.287 0-.573-.03-.855-.09a6.842 6.842 0 01-.85-.24 11.25 11.25 0 01-.844-.338 39.2 39.2 0 01-.832-.383 97.74 97.74 0 00-.744-.34c-.246-.112-.487-.21-.724-.296a5.637 5.637 0 00-.699-.206 3.12 3.12 0 00-.678-.076c-.45 0-.878.109-1.283.327-.406.218-.79.545-1.152.98a4.72 4.72 0 00-.33.439c-.095.144-.176.271-.244.383a3.542 3.542 0 00-.212.396l1.252.564a3.686 3.686 0 01.257-.456c.084-.128.184-.264.3-.41.116-.147.247-.283.393-.411.146-.128.305-.233.476-.317.172-.083.353-.125.543-.125.144 0 .302.022.473.066.172.044.354.104.546.178.193.074.392.159.598.254l.637.295c.283.135.57.267.863.397.292.13.598.25.918.362a57.07 57.07 0 01-1.607.772c-.543.25-1.103.473-1.68.668a13.45 13.45 0 01-1.805.47 10.67 10.67 0 01-1.983.177h-1.002V93h1.002zM43.19 93c.723 0 1.407-.054 2.052-.163a14.231 14.231 0 001.833-.432c.577-.178 1.126-.38 1.645-.605.52-.225 1.018-.456 1.496-.692.116.297.288.562.518.796.23.235.503.433.82.595.318.162.677.287 1.076.372.398.086.827.129 1.287.129h.146v-1.363h-.146c-.084 0-.195-.004-.334-.01a4.039 4.039 0 01-.46-.053 4.861 4.861 0 01-.51-.115 2.302 2.302 0 01-.495-.202 1.718 1.718 0 01-.41-.313 1.06 1.06 0 01-.254-.448c.213-.107.424-.207.633-.3l.633-.278-.264-1.321c-.288 0-.573-.03-.856-.09a6.842 6.842 0 01-.849-.24 11.25 11.25 0 01-.845-.338 39.2 39.2 0 01-.831-.383c-.25-.116-.499-.23-.745-.34-.245-.112-.487-.21-.723-.296a5.637 5.637 0 00-.7-.206 3.12 3.12 0 00-.677-.076c-.45 0-.878.109-1.284.327-.406.218-.79.545-1.151.98a4.72 4.72 0 00-.33.439c-.096.144-.177.271-.244.383a3.542 3.542 0 00-.212.396l1.252.564a3.686 3.686 0 01.257-.456c.084-.128.183-.264.3-.41.115-.147.246-.283.392-.411.147-.128.305-.233.477-.317.172-.083.352-.125.543-.125.143 0 .301.022.473.066.171.044.353.104.546.178.192.074.392.159.598.254.206.095.419.193.636.295.283.135.57.267.863.397.292.13.598.25.918.362a57.07 57.07 0 01-1.607.772c-.542.25-1.102.473-1.68.668a13.45 13.45 0 01-1.805.47 10.67 10.67 0 01-1.982.177h-1.002V93h1.002zm5.767 3.61l1.14-1.14-1.127-1.127-1.14 1.14 1.127 1.127zm-3.04.014l1.14-1.14-1.127-1.134-1.14 1.14 1.127 1.134zm1.55 1.99l1.037-1.037-1.03-1.03-1.036 1.037 1.03 1.03zM42.46 93v-1.363h-.139c-.325 0-.58-.046-.765-.136-.186-.09-.334-.261-.445-.511a1.394 1.394 0 01-.063-.185 6.804 6.804 0 01-.111-.483c-.047-.228-.1-.531-.16-.912a45.477 45.477 0 01-.23-1.71 252.683 252.683 0 01-.167-1.597 352.525 352.525 0 00-.076-.72v.007l-1.364.285.024.254.08.775c-.13.047-.282.106-.459.178-.176.072-.363.16-.56.264a8.072 8.072 0 00-.612.362 5.207 5.207 0 00-.612.466c-.197.174-.383.37-.557.588a3.768 3.768 0 00-.448.716 1.566 1.566 0 00-.098.341c-.023.13-.034.258-.034.383v.125c.004.172.033.348.087.529.053.18.144.347.274.5.469.58 1.301.87 2.498.87.227 0 .465-.01.713-.031.248-.021.518-.055.81-.101.246.394.552.677.918.849.242.11.484.182.727.212.244.03.454.045.63.045h.14zm-3.94-2.324h-.032c-.162 0-.322-.009-.48-.027a2.162 2.162 0 01-.511-.108.946.946 0 01-.369-.226.506.506 0 01-.143-.369c0-.148.04-.29.119-.428.078-.137.182-.265.31-.386.127-.12.27-.232.43-.334.16-.102.323-.196.487-.281a7.98 7.98 0 01.477-.23c.153-.067.285-.124.396-.17.075.593.14 1.085.199 1.474.058.39.115.72.17.988-.12.023-.268.044-.442.063a5.216 5.216 0 01-.643.035h.032zm-1.048-6.01l1.58-.876 1.683-.988-.41-.543-.967.522a.598.598 0 01-.293.076h-.027a.894.894 0 01-.33-.076 1.103 1.103 0 01-.498-.445.539.539 0 01-.07-.223v-.104a.76.76 0 01.049-.265.826.826 0 01.163-.264.775.775 0 01.268-.188.719.719 0 01.22-.059 1.828 1.828 0 01.483.01c.092.014.215.038.368.07l.195-.64-.264-.063a3.035 3.035 0 00-.264-.048c-.098-.014-.2-.021-.307-.021-.245 0-.473.044-.681.132a1.51 1.51 0 00-.86.922 1.409 1.409 0 00.031.936c.08.18.191.345.335.493.144.149.313.262.508.341l-1.246.696.334.605zM25.541 93c.38 0 .748-.026 1.102-.077.355-.05.681-.139.978-.264.297-.125.56-.292.79-.5.229-.21.413-.471.552-.787.14-.32.21-.69.21-1.113 0-.074-.003-.148-.008-.222-.032-.515-.153-1.109-.362-1.781a9.033 9.033 0 00-.222-.644 14.062 14.062 0 00-.383-.897 1.713 1.713 0 01-.062-.143l-1.239.612.606 1.489c.097.237.171.463.222.678.051.216.081.385.09.508.01.123.015.215.015.275 0 .111-.007.216-.021.313a1.35 1.35 0 01-.105.369 1.089 1.089 0 01-.39.455c-.166.11-.359.192-.577.247-.218.056-.454.09-.71.101-.254.012-.516.018-.785.018h-1.343V93h1.642zm2.65 3.624l1.141-1.14-1.127-1.127-1.14 1.14 1.126 1.127zm-3.04.014l1.141-1.14-1.127-1.135-1.14 1.141 1.126 1.134zm1.552 1.99l1.036-1.037-1.03-1.03-1.036 1.037 1.03 1.03zm-8.592-.494a12.712 12.712 0 001.705-1.03 9.084 9.084 0 001.471-1.304 6.295 6.295 0 001.033-1.54c.26-.553.39-1.132.39-1.74v-.028c.116.125.237.223.365.292a1.686 1.686 0 00.713.209c.102.005.185.007.25.007h.119v-1.363h-.112c-.232 0-.444-.056-.636-.167a1.88 1.88 0 01-.553-.526 4.913 4.913 0 01-.515-.925 15.038 15.038 0 01-.515-1.374l-1.308.404c.056.171.123.386.202.643.079.258.158.532.237.825.078.292.151.59.219.893.067.304.117.588.15.853a2.596 2.596 0 01-.077.94c-.084.31-.21.609-.38.896-.169.288-.376.562-.622.824a8.04 8.04 0 01-.807.748 9.486 9.486 0 01-.932.665c-.33.206-.661.395-.995.567l.598 1.23zm-3.798-5.141c.278 0 .558-.02.838-.063.28-.041.551-.109.81-.201.26-.093.503-.212.728-.359.225-.146.42-.32.588-.525a1.685 1.685 0 00.362-.737c.036-.162.056-.348.058-.557a3.214 3.214 0 00-.08-.702 5.056 5.056 0 00-.316-.908 7.36 7.36 0 00-.508-.932 9.21 9.21 0 00-1.409-1.708 7.958 7.958 0 00-.81-.675 4.88 4.88 0 00-.824-.487l-.564 1.266c.209.093.422.218.64.376.218.158.433.338.644.542.21.205.413.424.608.658.195.234.372.475.532.723.16.248.297.497.41.745.114.248.197.485.248.713.037.167.055.31.055.431 0 .167-.034.292-.104.376-.158.19-.352.331-.584.424-.232.093-.44.147-.626.164a3.996 3.996 0 01-.96-.01 5.912 5.912 0 01-1.621-.443 4.229 4.229 0 01-.62-.323l-.57 1.308c.116.106.3.213.55.32a8.429 8.429 0 001.736.504c.303.053.566.08.789.08zm-4.863.07c.065-.77.104-1.496.115-2.178.012-.682.018-1.226.018-1.635 0-.677-.007-1.4-.021-2.17a63.584 63.584 0 00-.355-5.064l-1.364.208c.158 1.461.283 3.316.376 5.566.014.384.021.793.021 1.224 0 .357-.005.73-.014 1.12a64.7 64.7 0 01-.146 2.852l1.37.077zM.115 85.34l1.134-1.134-1.141-1.14-1.134 1.133 1.14 1.14zM-2.877 93c.7 0 1.394-.065 2.08-.195.687-.13 1.351-.298 1.994-.504a19.848 19.848 0 001.843-.692c.587-.255 1.135-.51 1.645-.766.348-.171.682-.335 1.002-.49.32-.155.642-.3.967-.435l-.264-1.321c-.288 0-.573-.03-.856-.09a6.842 6.842 0 01-.849-.24 11.25 11.25 0 01-.845-.338 39.2 39.2 0 01-.831-.383 97.74 97.74 0 00-.745-.34c-.245-.112-.487-.21-.723-.296a5.637 5.637 0 00-.7-.206 3.12 3.12 0 00-.678-.076c-.45 0-.877.109-1.283.327-.406.218-.79.545-1.151.98a4.72 4.72 0 00-.33.439c-.096.144-.177.271-.244.383a3.542 3.542 0 00-.212.396l1.252.564a3.686 3.686 0 01.257-.456c.084-.128.183-.264.3-.41.115-.147.246-.283.392-.411.146-.128.305-.233.477-.317.171-.083.352-.125.542-.125.144 0 .302.022.474.066.171.044.353.104.546.178.192.074.391.159.598.254l.636.295c.283.135.57.267.863.397.292.13.598.25.918.362-.528.264-1.078.521-1.648.772-.57.25-1.155.473-1.753.668-.599.194-1.206.35-1.823.47a9.807 9.807 0 01-1.85.177h-1.51V93h1.51zm-11.172-5.711l1.127-1.127-1.14-1.141-1.128 1.134 1.141 1.134zm2.852.014l1.127-1.134-1.14-1.134-1.127 1.127 1.14 1.14zm-2.017 5.718c2.639 0 4.57-.64 5.795-1.92.102.283.246.536.431.758.58.747 1.473 1.127 2.678 1.141h.195v-1.363h-.174c-.756-.005-1.296-.214-1.62-.627a1.391 1.391 0 01-.293-.584 3.455 3.455 0 01-.09-.626v-.056c0-.074.007-.162.02-.264a5.796 5.796 0 01.136-.748 10.8 10.8 0 01.08-.31l-1.321-.361c-.06.209-.13.422-.206.64-.076.218-.169.433-.278.647-.109.213-.24.42-.393.619-.153.2-.336.383-.55.55-.477.39-1.075.673-1.794.852-.72.178-1.591.268-2.616.268-1.145-.005-2.076-.126-2.793-.362-.716-.237-1.214-.594-1.492-1.072a1.688 1.688 0 01-.223-.573 3.026 3.026 0 01-.048-.512c0-.06.002-.118.007-.174a2.93 2.93 0 01.086-.598c.05-.19.099-.357.15-.5.051-.145.097-.26.14-.349.04-.088.062-.134.062-.139l-1.204-.66c-.023.032-.089.177-.198.434a8.028 8.028 0 00-.337 1.047c-.056.209-.09.4-.105.574a4.626 4.626 0 00-.007.79c.019.24.064.482.136.723.072.241.175.475.31.703.417.705 1.088 1.22 2.013 1.548.926.326 2.093.495 3.503.504zm-11.471 0c.162 0 .34-.007.535-.021a5.445 5.445 0 001.134-.205c.177-.054.33-.12.46-.198.486-.26.85-.586 1.088-.978.239-.392.358-.817.358-1.276 0-.613-.213-1.215-.64-1.81a2.929 2.929 0 00-.605-.583 7.993 7.993 0 00-.9-.578c-.342-.19-.713-.38-1.114-.57-.4-.19-.817-.38-1.248-.57l-2.421-.995-.661 1.252.55.215a2.495 2.495 0 00-.717.512c-.2.206-.365.429-.497.667a3.108 3.108 0 00-.386 1.478c0 .34.086.69.26 1.055.174.364.435.734.783 1.11a10.684 10.684 0 01-.884.083c-.171.009-.362.016-.573.02a33.88 33.88 0 01-.734.008h-.188V93h.188c.329 0 .67-.007 1.022-.02.353-.015.698-.037 1.037-.067.338-.03.662-.07.97-.122a6.64 6.64 0 00.831-.188 5.4 5.4 0 001.166.327c.382.06.778.09 1.186.09zm-2.421-1.906a4.73 4.73 0 01-.501-.38 2.933 2.933 0 01-.414-.438 2.078 2.078 0 01-.282-.497 1.502 1.502 0 01-.104-.557c0-.208.044-.426.132-.653.088-.228.21-.432.365-.613.156-.18.322-.313.498-.396.176-.084.343-.125.5-.125.084 0 .17.009.258.027.2.042.36.118.484.227.122.109.218.234.285.375.067.142.111.29.132.445.02.156.031.303.031.442a2.392 2.392 0 01-.769 1.74c-.173.162-.379.296-.615.403zm2.289.57a3.577 3.577 0 01-.64-.049c.176-.185.336-.389.48-.612.143-.222.265-.448.365-.678.1-.23.177-.458.233-.685.056-.227.083-.438.083-.633 0-.14-.002-.288-.007-.445a2.018 2.018 0 00-.083-.501c.33.153.617.322.863.508.245.185.45.374.615.567.165.192.289.383.372.573.084.19.126.367.126.53 0 .19-.043.371-.13.545a1.192 1.192 0 01-.417.456c-.192.13-.441.233-.747.31a4.652 4.652 0 01-1.113.114zM-30.807 93v-1.363h-.14a2.77 2.77 0 01-.754-.09c-.21-.061-.37-.145-.476-.251a.58.58 0 01-.185-.359 3.758 3.758 0 01-.024-.441v-3.493a48.553 48.553 0 00-.066-2.546c-.021-.403-.047-.776-.077-1.12-.03-.343-.066-.633-.108-.87l-1.363.251c.042.218.078.498.108.839.03.34.055.713.076 1.116.021.404.036.82.046 1.252.009.432.013.847.013 1.245.005.409.007.796.007 1.162 0 .371-.002.7-.007.988a211.374 211.374 0 00-.013.957v.198c.001.084.003.178.007.282a2.686 2.686 0 00.247 1.012c.08.176.198.34.35.494.251.25.556.436.916.556.359.12.794.181 1.304.181h.139z" mask="url(#e)"/><path fill="#000000" fill-opacity=".56" d="M105.157 81.222c4.054 0 7.351 3.49 7.351 7.778 0 4.288-3.297 7.778-7.351 7.778a7.121 7.121 0 01-4.613-1.722.898.898 0 01-.123-1.215.787.787 0 011.148-.13 5.466 5.466 0 003.588 1.338c3.152 0 5.718-2.713 5.718-6.049 0-3.336-2.566-6.05-5.718-6.05-3.127 0-5.673 2.672-5.714 5.971h1.352c.363 0 .546.463.29.736l-2.272 2.433a.393.393 0 01-.58 0l-2.273-2.433c-.255-.273-.072-.736.291-.736h1.559c.04-4.252 3.318-7.699 7.347-7.699zm-.24 3.884c.452 0 .817.387.817.864v3.016l2.01 1.545c.22.169.337.433.337.7 0 .176-.05.353-.155.506a.785.785 0 01-1.142.192l-2.347-1.803c-.014-.012-.02-.031-.035-.043a.885.885 0 01-.167-.21c-.017-.03-.04-.053-.053-.084a.89.89 0 01-.081-.362V85.97c0-.477.365-.864.817-.864z" mask="url(#e)"/><path fill="url(#j)" mask="url(#e)" d="M.73 65h32v48h-32z"/><path fill="#EA475B" fill-rule="nonzero" d="M13.74 89l3.23-3.228a.836.836 0 10-1.184-1.183l-3.82 3.82a.836.836 0 000 1.182l3.82 3.82a.834.834 0 001.183 0 .836.836 0 000-1.183L13.741 89z" mask="url(#e)"/><path fill="#000000" fill-opacity=".12" mask="url(#e)" d="M242.23 168h118v2h-118z"/><path fill="#000000" fill-opacity=".56" fill-rule="nonzero" d="M315.869 150c.38 0 .748-.026 1.102-.077.355-.05.68-.139.978-.264.297-.125.56-.292.79-.5.229-.21.413-.471.552-.787.14-.32.209-.69.209-1.113 0-.074-.002-.148-.007-.222-.032-.515-.153-1.109-.362-1.781a9.033 9.033 0 00-.222-.644 14.061 14.061 0 00-.383-.897 1.713 1.713 0 01-.063-.143l-1.238.612.605 1.489c.098.237.172.463.223.678.051.216.081.385.09.508.01.123.014.215.014.275 0 .111-.007.216-.02.313a1.35 1.35 0 01-.105.369 1.089 1.089 0 01-.39.455c-.166.11-.359.192-.577.247-.218.056-.454.09-.71.101-.254.012-.516.018-.785.018h-1.343V150h1.642zm2.65 3.624l1.141-1.14-1.127-1.127-1.14 1.14 1.126 1.127zm-3.04.014l1.141-1.14-1.127-1.135-1.14 1.141 1.126 1.134zm1.551 1.99l1.037-1.037-1.03-1.03-1.036 1.037 1.03 1.03zm-8.59-.494a12.712 12.712 0 001.703-1.03 9.084 9.084 0 001.472-1.304 6.295 6.295 0 001.033-1.54c.26-.553.39-1.132.39-1.74v-.028c.115.125.237.223.365.292a1.686 1.686 0 00.713.209c.102.005.185.007.25.007h.118v-1.363h-.111c-.232 0-.444-.056-.636-.167a1.88 1.88 0 01-.554-.526 4.913 4.913 0 01-.514-.925 15.038 15.038 0 01-.515-1.374l-1.308.404c.056.171.123.386.202.643.079.258.158.532.236.825.08.292.152.59.22.893.067.304.117.588.149.853a2.596 2.596 0 01-.077.94c-.083.31-.21.609-.379.896-.169.288-.376.562-.622.824a8.04 8.04 0 01-.807.748 9.486 9.486 0 01-.932.665c-.33.206-.661.395-.995.567l.598 1.23zm-3.8-5.141c.28 0 .559-.02.84-.063.28-.041.55-.109.81-.201.26-.093.502-.212.727-.359.224-.146.42-.32.587-.525a1.685 1.685 0 00.362-.737c.037-.162.057-.348.06-.557a3.214 3.214 0 00-.08-.702 5.056 5.056 0 00-.317-.908 7.36 7.36 0 00-.508-.932 9.21 9.21 0 00-1.409-1.708 7.958 7.958 0 00-.81-.675 4.88 4.88 0 00-.825-.487l-.563 1.266c.209.093.422.218.64.376.218.158.432.338.643.542.211.205.414.424.61.658.194.234.371.475.531.723.16.248.297.497.41.745.114.248.197.485.248.713.037.167.055.31.055.431 0 .167-.034.292-.104.376-.158.19-.353.331-.584.424-.232.093-.441.147-.626.164a3.996 3.996 0 01-.96-.01 5.912 5.912 0 01-1.621-.443 4.229 4.229 0 01-.62-.323l-.57 1.308c.116.106.3.213.55.32a8.429 8.429 0 001.736.504c.303.053.566.08.789.08zm-4.862.07c.065-.77.103-1.496.115-2.178.012-.682.017-1.226.017-1.635 0-.677-.007-1.4-.02-2.17a63.584 63.584 0 00-.355-5.064l-1.364.208c.158 1.461.283 3.316.376 5.566.014.384.02.793.02 1.224 0 .357-.004.73-.013 1.12a64.7 64.7 0 01-.146 2.852l1.37.077zm-9.335-7.722l1.134-1.134-1.141-1.14-1.134 1.133 1.14 1.14zM287.45 150c.7 0 1.394-.065 2.08-.195.687-.13 1.351-.298 1.993-.504a19.848 19.848 0 001.844-.692c.586-.255 1.135-.51 1.645-.766.348-.171.682-.335 1.002-.49.32-.155.642-.3.967-.435l-.265-1.321c-.287 0-.572-.03-.855-.09a6.842 6.842 0 01-.849-.24 11.25 11.25 0 01-.845-.338c-.28-.126-.558-.253-.831-.383-.25-.116-.499-.23-.745-.34a10.13 10.13 0 00-.723-.296 5.637 5.637 0 00-.7-.206 3.12 3.12 0 00-.678-.076c-.45 0-.877.109-1.283.327-.406.218-.79.545-1.151.98a4.72 4.72 0 00-.33.439c-.096.144-.177.271-.244.383a3.542 3.542 0 00-.213.396l1.253.564a3.686 3.686 0 01.257-.456c.083-.128.183-.264.3-.41.115-.147.246-.283.392-.411.146-.128.305-.233.477-.317.171-.083.352-.125.542-.125.144 0 .302.022.473.066.172.044.354.104.546.178.193.074.392.159.599.254l.636.295c.283.135.57.267.863.397.292.13.598.25.918.362-.529.264-1.078.521-1.649.772-.57.25-1.154.473-1.753.668-.598.194-1.205.35-1.822.47a9.806 9.806 0 01-1.85.177h-1.51V150h1.51zm-11.172-5.711l1.127-1.127-1.14-1.141-1.128 1.134 1.141 1.134zm2.852.014l1.127-1.134-1.14-1.134-1.128 1.127 1.141 1.14zm-2.017 5.718c2.639 0 4.57-.64 5.795-1.92.102.283.245.536.431.758.58.747 1.472 1.127 2.678 1.141h.195v-1.363h-.174c-.756-.005-1.296-.214-1.62-.627a1.391 1.391 0 01-.293-.584 3.455 3.455 0 01-.09-.626v-.056c0-.074.007-.162.02-.264a5.796 5.796 0 01.136-.748 10.8 10.8 0 01.08-.31l-1.322-.361c-.06.209-.128.422-.205.64-.076.218-.17.433-.278.647-.109.213-.24.42-.393.619-.153.2-.336.383-.55.55-.477.39-1.076.673-1.794.852-.72.178-1.591.268-2.616.268-1.146-.005-2.077-.126-2.793-.362-.717-.237-1.214-.594-1.492-1.072a1.688 1.688 0 01-.223-.573 3.026 3.026 0 01-.049-.512c0-.06.003-.118.007-.174a2.93 2.93 0 01.087-.598 5.86 5.86 0 01.15-.5c.05-.145.097-.26.139-.349.042-.088.063-.134.063-.139l-1.204-.66c-.023.032-.09.177-.198.434a8.028 8.028 0 00-.338 1.047c-.055.209-.09.4-.104.574a4.626 4.626 0 00-.007.79c.019.24.064.482.136.723.072.241.175.475.31.703.417.705 1.088 1.22 2.013 1.548.926.326 2.093.495 3.503.504zm-11.471 0c.162 0 .34-.007.535-.021a5.446 5.446 0 001.134-.205c.176-.054.33-.12.46-.198.486-.26.85-.586 1.088-.978.239-.392.358-.817.358-1.276 0-.613-.213-1.215-.64-1.81a2.929 2.929 0 00-.605-.583 7.993 7.993 0 00-.9-.578c-.342-.19-.713-.38-1.114-.57-.401-.19-.817-.38-1.249-.57l-2.42-.995-.661 1.252.55.215a2.495 2.495 0 00-.717.512c-.2.206-.365.429-.498.667a3.108 3.108 0 00-.386 1.478c0 .34.087.69.261 1.055.174.364.435.734.783 1.11a10.684 10.684 0 01-.884.083c-.171.009-.363.016-.574.02-.21.005-.455.008-.734.008h-.187V150h.187c.33 0 .67-.007 1.023-.02.353-.015.698-.037 1.037-.067.338-.03.662-.07.97-.122a6.64 6.64 0 00.831-.188 5.4 5.4 0 001.166.327c.382.06.777.09 1.186.09zm-2.421-1.906a4.73 4.73 0 01-.501-.38 2.933 2.933 0 01-.414-.438 2.078 2.078 0 01-.282-.497 1.502 1.502 0 01-.104-.557c0-.208.044-.426.132-.653.088-.228.21-.432.365-.613.156-.18.321-.313.498-.396.176-.084.343-.125.5-.125.084 0 .17.009.258.027.2.042.36.118.483.227.123.109.218.234.286.375.067.142.11.29.132.445.02.156.031.303.031.442a2.392 2.392 0 01-.769 1.74c-.174.162-.379.296-.615.403zm2.288.57a3.577 3.577 0 01-.64-.049c.177-.185.337-.389.48-.612.144-.222.266-.448.366-.678.1-.23.177-.458.233-.685.055-.227.083-.438.083-.633 0-.14-.002-.288-.007-.445a2.018 2.018 0 00-.083-.501c.329.153.617.322.862.508.246.185.451.374.616.567.165.192.289.383.372.573.084.19.125.367.125.53 0 .19-.043.371-.128.545a1.192 1.192 0 01-.418.456c-.192.13-.441.233-.748.31a4.652 4.652 0 01-1.113.114zM259.52 150v-1.363h-.138a2.77 2.77 0 01-.755-.09c-.211-.061-.37-.145-.477-.251a.58.58 0 01-.184-.359 3.758 3.758 0 01-.024-.441v-3.493a48.553 48.553 0 00-.066-2.546c-.021-.403-.047-.776-.077-1.12-.03-.343-.066-.633-.108-.87l-1.363.251c.042.218.078.498.108.839.03.34.055.713.076 1.116.021.404.036.82.045 1.252.01.432.014.847.014 1.245.005.409.007.796.007 1.162v.27c-.001.263-.003.502-.007.718a211.316 211.316 0 00-.014 1.037c0 .11.003.244.007.4a2.686 2.686 0 00.247 1.012c.081.176.199.34.352.494.25.25.555.436.914.556.36.12.795.181 1.305.181h.139z" mask="url(#e)"/><path fill="#000000" fill-opacity=".56" d="M344.355 141.22h-2.25v-1.125a1.126 1.126 0 012.25 0v1.125zm-3.75 8.625c0 .62-.504 1.125-1.125 1.125-.62 0-1.125-.505-1.125-1.125v-1.125a.75.75 0 00-.75-.75h-4.5v-7.846c0-.636.518-1.154 1.155-1.154h6.599c-.008.016-.01.034-.018.05a2.724 2.724 0 00-.119.34c-.016.06-.04.115-.054.176-.04.181-.063.367-.063.559v9.75zm-9.375 1.125c-.62 0-1.125-.505-1.125-1.125v-.376h2.247l.003.001h4.5v.375c0 .191.024.377.063.558.014.06.038.116.054.176.035.116.07.231.119.34.007.016.01.034.018.051h-5.879zm12-13.5h-8.97a2.657 2.657 0 00-2.655 2.654v7.845h-2.25a.75.75 0 00-.75.75v1.126a2.628 2.628 0 002.625 2.625h8.25a2.628 2.628 0 002.625-2.625v-7.125h3a.75.75 0 00.75-.75v-1.875a2.628 2.628 0 00-2.625-2.625z" mask="url(#e)"/><rect width="342" height="119" x="17.23" y="186.5" fill="#FFF" stroke="#000000" stroke-opacity=".12" mask="url(#e)" rx="4"/><path fill="#000000" fill-opacity=".87" fill-rule="nonzero" d="M78.275 278.18c0-.403-.004-.827-.01-1.272a46.022 46.022 0 00-.126-2.748c-.035-.464-.08-.914-.136-1.35a15.886 15.886 0 00-.58-2.723 9.204 9.204 0 00-.95-2.104l-1.155.737c.348.547.625 1.178.832 1.892.206.714.365 1.482.476 2.303.111.82.183 1.677.216 2.57.032.893.048 1.792.048 2.696h1.385zm7.242.036a2.113 2.113 0 001.074-.282c.309-.183.564-.422.766-.717.201-.294.353-.627.455-.998.102-.37.153-.749.153-1.134 0-.482-.067-.946-.202-1.391-.408-1.29-1.066-2.514-1.975-3.673a15.233 15.233 0 00-1.27-1.409 52.419 52.419 0 00-1.38-1.304l-.975.974.258.257a34.212 34.212 0 00-.901 1.51c-.262.468-.49.912-.682 1.332-.192.42-.355.822-.487 1.207-.132.385-.24.765-.323 1.14a6.99 6.99 0 00-.122.776 6.928 6.928 0 00-.038.672c0 .134.004.271.014.41.018.334.07.659.153.974.083.315.21.595.382.838.172.244.396.44.672.588.276.148.615.223 1.019.223.362 0 .692-.088.991-.265.3-.176.549-.415.748-.716l.02.028c.196.31.433.548.714.713.28.164.59.247.929.247h.007zm0-1.37a.695.695 0 01-.387-.175 1.28 1.28 0 01-.278-.365 2.397 2.397 0 01-.188-.49 4.47 4.47 0 01-.111-.546 6.345 6.345 0 01-.052-.533 8.404 8.404 0 01-.014-.445l-1.12-.014c-.019.112-.04.252-.066.421-.026.17-.057.347-.094.532a5.667 5.667 0 01-.143.56c-.058.188-.13.357-.215.508-.086.15-.19.275-.31.372a.697.697 0 01-.431.153.664.664 0 01-.463-.16 1.02 1.02 0 01-.271-.417 2.071 2.071 0 01-.118-.522 5.213 5.213 0 01-.025-.473 5.44 5.44 0 01.146-1.238c.075-.325.169-.655.282-.991.114-.337.254-.688.421-1.054.167-.367.362-.754.584-1.162.223-.408.48-.849.773-1.322.26.25.53.536.813.856.283.32.56.673.828 1.06.27.388.522.807.759 1.256.236.45.438.933.605 1.447.05.158.088.32.111.487a3.54 3.54 0 01-.01 1.047c-.03.202-.085.39-.164.564a1.27 1.27 0 01-.327.441.878.878 0 01-.535.202zm3.902 2.858l3.346-7.54h-1.002l-3.353 7.54h1.01zm7.59-3.116c.324 0 .63-.062.914-.185a2.396 2.396 0 001.263-1.252c.125-.285.188-.592.188-.921 0-.325-.063-.63-.188-.915a2.438 2.438 0 00-1.263-1.263 2.25 2.25 0 00-.914-.188c-.33 0-.637.063-.922.188a2.396 2.396 0 00-1.252 1.263c-.123.285-.185.59-.185.915 0 .329.062.636.185.921a2.376 2.376 0 001.252 1.252c.285.123.592.185.922.185zm0-1.134c-.167 0-.325-.033-.473-.097a1.259 1.259 0 01-.654-.654 1.192 1.192 0 010-.95 1.248 1.248 0 01.654-.657 1.192 1.192 0 01.95 0 1.248 1.248 0 01.657.657 1.192 1.192 0 010 .95 1.259 1.259 0 01-.658.654c-.15.064-.31.097-.476.097zm6.887 1.134c.324 0 .63-.062.914-.185a2.396 2.396 0 001.263-1.252c.125-.285.188-.592.188-.921 0-.325-.063-.63-.188-.915a2.438 2.438 0 00-1.263-1.263 2.25 2.25 0 00-.914-.188c-.33 0-.637.063-.922.188a2.396 2.396 0 00-1.252 1.263c-.123.285-.185.59-.185.915 0 .329.062.636.185.921a2.376 2.376 0 001.252 1.252c.285.123.592.185.922.185zm0-1.134c-.167 0-.325-.033-.473-.097a1.259 1.259 0 01-.654-.654 1.192 1.192 0 010-.95 1.248 1.248 0 01.654-.657 1.192 1.192 0 01.95 0 1.248 1.248 0 01.657.657 1.192 1.192 0 010 .95 1.259 1.259 0 01-.658.654c-.15.064-.31.097-.476.097zm6.887 1.134c.324 0 .63-.062.914-.185a2.396 2.396 0 001.263-1.252c.125-.285.188-.592.188-.921 0-.325-.063-.63-.188-.915a2.438 2.438 0 00-1.263-1.263 2.25 2.25 0 00-.914-.188c-.33 0-.637.063-.922.188a2.396 2.396 0 00-1.252 1.263c-.123.285-.185.59-.185.915 0 .329.062.636.185.921a2.376 2.376 0 001.252 1.252c.285.123.592.185.922.185zm0-1.134c-.167 0-.325-.033-.473-.097a1.259 1.259 0 01-.654-.654 1.192 1.192 0 010-.95 1.248 1.248 0 01.654-.657 1.192 1.192 0 01.95 0 1.248 1.248 0 01.657.657 1.192 1.192 0 010 .95 1.259 1.259 0 01-.658.654c-.15.064-.31.097-.476.097zm-45.33-5.127l1.128-1.127-1.141-1.14-1.127 1.133 1.14 1.134zm2.853.014l1.127-1.134-1.14-1.134-1.128 1.127 1.141 1.14zM65.273 278c.38 0 .748-.026 1.103-.077.354-.05.68-.139.977-.264.297-.125.56-.292.79-.5.23-.21.414-.471.553-.787.139-.32.208-.69.208-1.113 0-.074-.002-.148-.007-.222-.032-.515-.153-1.109-.361-1.781a9.033 9.033 0 00-.223-.644 14.062 14.062 0 00-.383-.897 1.713 1.713 0 01-.062-.143l-1.238.612.605 1.489c.097.237.171.463.222.678.051.216.082.385.09.508.01.123.015.215.015.275 0 .111-.007.216-.021.313a1.35 1.35 0 01-.104.369 1.089 1.089 0 01-.39.455c-.167.11-.36.192-.577.247-.218.056-.455.09-.71.101-.255.012-.517.018-.786.018H63.63V278h1.642zm-7.896 4.883a8.524 8.524 0 001.966-.556 7.19 7.19 0 001.725-1.016 6.198 6.198 0 001.322-1.45 5.255 5.255 0 00.754-1.861h.766v-1.363h-.661a6.622 6.622 0 00-.376-2.02 5.342 5.342 0 00-.403-.881 4.395 4.395 0 00-.53-.738c-.551-.593-1.156-.89-1.815-.89a1.77 1.77 0 00-.859.226 2.61 2.61 0 00-.769.664c-.194.25-.364.549-.507.894a3.926 3.926 0 00-.275.925c-.04.272-.06.495-.06.672 0 .185.017.37.05.556.055.353.19.663.403.932.482.599 1.226.928 2.233.988.255.023.483.035.685.035h.79c-.051.348-.194.701-.428 1.06-.234.36-.553.7-.957 1.02-.403.32-.888.608-1.454.863a8.976 8.976 0 01-1.92.598l.32 1.342zm3.755-6.26h-.047c-.204 0-.422-.007-.654-.021a3.506 3.506 0 01-.295-.032 2.472 2.472 0 01-.348-.076 1.635 1.635 0 01-.334-.14.819.819 0 01-.261-.225.651.651 0 01-.143-.33 2.434 2.434 0 01-.024-.31 3.16 3.16 0 01.153-.908c.065-.202.145-.384.24-.546.095-.163.203-.296.324-.4a.577.577 0 01.382-.157c.084 0 .163.014.237.042.074.028.145.064.212.108s.13.093.188.146c.058.053.11.103.156.15.116.134.229.293.338.476.109.183.207.388.295.616.088.227.16.473.216.737.056.264.09.545.104.842-.18.014-.344.022-.49.024l-.296.004h.047zM48.41 278c.283 0 .55-.014.8-.042.25-.028.487-.08.71-.16.223-.079.432-.192.63-.34.197-.149.386-.346.567-.592.213.158.445.312.695.463.25.15.511.278.783.382a3.005 3.005 0 001.123.226c.19 0 .38-.025.57-.076a1.66 1.66 0 00.766-.449c.209-.215.373-.468.494-.758.12-.29.195-.555.222-.797.028-.24.042-.436.042-.584 0-.167-.011-.33-.035-.487a4.21 4.21 0 00-.247-.918 2.864 2.864 0 00-.476-.807c-.2-.237-.44-.428-.72-.574a2.071 2.071 0 00-.97-.22c-.307 0-.574.062-.804.185-.23.123-.434.283-.612.48a3.668 3.668 0 00-.48.675c-.142.253-.275.509-.4.769-.144.287-.287.567-.428.838a3.398 3.398 0 01-.5.723c-.193.211-.426.38-.7.508-.274.128-.617.192-1.03.192h-.139V278h.14zm5.287-1.447c-.185 0-.394-.046-.626-.14-.348-.138-.732-.363-1.154-.674l.375-.758c.116-.227.22-.424.31-.591a3.74 3.74 0 01.257-.418.985.985 0 01.244-.247.466.466 0 01.26-.08c.14 0 .263.028.37.084.106.055.199.126.277.212.08.086.147.18.202.285a2.264 2.264 0 01.216.567c.018.079.03.135.035.167.018.125.027.246.027.362a2.082 2.082 0 01-.129.703c-.053.138-.116.252-.19.34a.444.444 0 01-.23.16 1.003 1.003 0 01-.244.028zM48.55 278v-1.363h-.14a2.77 2.77 0 01-.754-.09c-.211-.061-.37-.145-.477-.251a.58.58 0 01-.184-.359 3.758 3.758 0 01-.025-.441v-3.493a48.553 48.553 0 00-.066-2.546c-.02-.403-.046-.776-.076-1.12-.03-.343-.066-.633-.108-.87l-1.363.251c.041.218.077.498.107.839.03.34.056.713.077 1.116.02.404.036.82.045 1.252.01.432.014.847.014 1.245.005.409.007.796.007 1.162 0 .371-.002.7-.007.988a211.402 211.402 0 00-.014 1.037c0 .11.002.244.007.4a2.686 2.686 0 00.247 1.012c.081.176.198.34.351.494.25.25.556.436.915.556.36.12.794.181 1.304.181h.14zm-10.115-3.36l1.134-1.134-1.141-1.14-1.134 1.133 1.14 1.141zm-.306 8.14c.57 0 1.112-.061 1.624-.182.513-.12.98-.305 1.402-.553a4.23 4.23 0 001.11-.942c.317-.38.564-.833.74-1.357.167-.5.258-.9.272-1.2.013-.299.02-.5.02-.602a7.175 7.175 0 00-.393-2.361 11.15 11.15 0 00-.396-1.016 7.888 7.888 0 00-.525-.991l-1.155.737c.004 0 .047.068.129.205.08.137.175.325.281.564.107.239.215.52.324.841a6.615 6.615 0 01.344 2.119v.083c-.01.404-.076.805-.202 1.204a2.69 2.69 0 01-.459.873 2.733 2.733 0 01-.758.654 3.688 3.688 0 01-1.05.407c-.4.092-.845.139-1.336.139a3.94 3.94 0 01-1.054-.129 3.297 3.297 0 01-.807-.334 2.716 2.716 0 01-.588-.462 3.029 3.029 0 01-.403-.526 2.535 2.535 0 01-.24-.514 2.744 2.744 0 01-.108-.435 4.08 4.08 0 01-.035-.821c.014-.278.045-.552.094-.821.049-.269.11-.528.184-.776.075-.248.152-.476.233-.685.082-.209.162-.39.24-.546a2.8 2.8 0 01.21-.358l-1.107-.814c-.19.315-.372.667-.546 1.054-.174.387-.32.796-.438 1.228a6.484 6.484 0 00-.22 1.123 6.142 6.142 0 00.02 1.61c.094.608.274 1.137.54 1.587.267.45.602.822 1.006 1.116.403.295.864.515 1.38.661.518.146 1.073.22 1.667.22z" mask="url(#e)"/><path fill="#000000" fill-opacity=".56" fill-rule="nonzero" d="M339.403 278.02c.163 0 .341-.006.536-.02a5.446 5.446 0 001.134-.205c.176-.054.33-.12.46-.198.486-.26.849-.586 1.088-.978.239-.392.358-.817.358-1.276 0-.613-.213-1.215-.64-1.81a2.929 2.929 0 00-.605-.583 7.993 7.993 0 00-.901-.578c-.34-.19-.712-.38-1.113-.57-.401-.19-.817-.38-1.249-.57l-2.42-.995-.661 1.252.55.215a2.495 2.495 0 00-.717.512c-.2.206-.366.429-.498.667a3.108 3.108 0 00-.386 1.478c0 .34.087.69.261 1.055.174.364.435.734.783 1.11a10.684 10.684 0 01-.884.083c-.171.009-.363.016-.574.02-.21.005-.455.008-.734.008h-.188V278h.188c.33 0 .67-.007 1.023-.02.352-.015.698-.037 1.036-.067.339-.03.662-.07.97-.122a6.64 6.64 0 00.832-.188 5.4 5.4 0 001.165.327c.383.06.778.09 1.186.09zm-2.42-1.905a4.73 4.73 0 01-.501-.38 2.933 2.933 0 01-.414-.438 2.078 2.078 0 01-.282-.497 1.502 1.502 0 01-.104-.557c0-.208.044-.426.132-.653.088-.228.21-.432.365-.613.155-.18.321-.313.498-.396.176-.084.343-.125.5-.125.084 0 .17.009.258.027.2.042.36.118.483.227.123.109.218.234.285.375.068.142.112.29.133.445.02.156.031.303.031.442a2.392 2.392 0 01-.769 1.74c-.174.162-.379.296-.615.403zm2.288.57a3.577 3.577 0 01-.64-.049c.177-.185.337-.389.48-.612.144-.222.266-.448.366-.678.1-.23.177-.458.233-.685.055-.227.083-.438.083-.633 0-.14-.002-.288-.007-.445a2.018 2.018 0 00-.083-.501c.329.153.616.322.862.508.246.185.451.374.616.567.165.192.289.383.372.573.084.19.125.367.125.53 0 .19-.043.371-.128.545a1.192 1.192 0 01-.418.456c-.192.13-.442.233-.748.31a4.652 4.652 0 01-1.113.114zm-9.057-4.925l1.134-1.134-1.141-1.14-1.134 1.133 1.14 1.141zm-2.998 11.374a12.712 12.712 0 001.704-1.03 9.084 9.084 0 001.471-1.304 6.295 6.295 0 001.033-1.54c.26-.553.39-1.132.39-1.74v-.028c.116.125.238.223.365.292a1.686 1.686 0 00.713.209c.102.005.186.007.25.007h.119v-1.363h-.111c-.232 0-.444-.056-.637-.167a1.88 1.88 0 01-.553-.526 4.913 4.913 0 01-.515-.925 15.038 15.038 0 01-.515-1.374l-1.307.404c.055.171.123.386.201.643.08.258.158.532.237.825.079.292.152.59.219.893.067.304.117.588.15.853a2.596 2.596 0 01-.077.94c-.083.31-.21.609-.38.896-.168.288-.376.562-.622.824a8.04 8.04 0 01-.807.748 9.486 9.486 0 01-.932.665c-.33.206-.66.395-.995.567l.599 1.23zM323.104 278c.38 0 .748-.026 1.103-.077.355-.05.68-.139.977-.264.297-.125.56-.292.79-.5.23-.21.414-.471.553-.787.14-.32.209-.69.209-1.113 0-.074-.003-.148-.007-.222-.033-.515-.153-1.109-.362-1.781a9.034 9.034 0 00-.223-.644 14.061 14.061 0 00-.382-.897 1.713 1.713 0 01-.063-.143l-1.238.612.605 1.489c.097.237.172.463.223.678.05.216.08.385.09.508.01.123.014.215.014.275 0 .111-.007.216-.02.313a1.35 1.35 0 01-.105.369 1.089 1.089 0 01-.39.455c-.167.11-.36.192-.577.247-.218.056-.455.09-.71.101-.255.012-.517.018-.786.018h-1.342V278h1.641zm-.347 3.402l1.126-1.127-1.14-1.141-1.127 1.134 1.14 1.134zm2.852.014l1.127-1.134-1.141-1.134-1.127 1.127 1.14 1.14zm-6.839-9.83l1.134-1.134-1.14-1.14-1.134 1.133 1.14 1.141zM316.816 278c.681 0 1.254-.07 1.718-.212.464-.142.842-.358 1.134-.65.2.254.454.462.765.622.31.16.7.24 1.169.24h.139v-1.363h-.14c-.236 0-.43-.054-.58-.16a1.141 1.141 0 01-.355-.404 1.905 1.905 0 01-.184-.529 4.913 4.913 0 01-.077-.542 21.332 21.332 0 00-.125-1.204 6.534 6.534 0 00-.202-.946l-1.308.369c.102.352.173.665.213.939.039.274.059.543.059.807 0 .552-.176.968-.529 1.249-.352.28-.918.42-1.697.42h-.258V278h.258zm.014 0v-1.363h-.14c-.324 0-.58-.046-.765-.136-.185-.09-.334-.261-.445-.511a1.394 1.394 0 01-.063-.185 6.804 6.804 0 01-.11-.483c-.047-.228-.1-.531-.16-.912a45.477 45.477 0 01-.23-1.71 253.002 253.002 0 01-.167-1.597 353.083 353.083 0 00-.077-.72v.007l-1.363.285.024.254.08.775c-.13.047-.283.106-.46.178-.175.072-.362.16-.56.264a8.072 8.072 0 00-.611.362 5.207 5.207 0 00-.613.466c-.197.174-.382.37-.556.588a3.768 3.768 0 00-.449.716 1.566 1.566 0 00-.097.341c-.023.13-.035.258-.035.383v.125c.005.172.034.348.087.529.053.18.145.347.275.5.468.58 1.3.87 2.497.87.227 0 .465-.01.713-.031.248-.021.518-.055.81-.101.246.394.553.677.919.849.241.11.483.182.727.212.243.03.453.045.63.045h.139zm-3.94-2.324h-.033c-.162 0-.322-.009-.48-.027a2.162 2.162 0 01-.51-.108.946.946 0 01-.37-.226.506.506 0 01-.142-.369c0-.148.04-.29.118-.428.079-.137.182-.265.31-.386.127-.12.27-.232.43-.334.16-.102.323-.196.488-.281a7.98 7.98 0 01.476-.23c.153-.067.286-.124.397-.17.074.593.14 1.085.198 1.474.058.39.115.72.17.988-.12.023-.267.044-.441.063a5.215 5.215 0 01-.644.035h.032z" mask="url(#e)"/><path fill="#000000" fill-opacity=".12" mask="url(#e)" d="M32.73 249h311v1h-311z"/><path fill="#000000" fill-opacity=".87" fill-rule="nonzero" d="M68.98 222.41l1.135-1.133-1.141-1.141-1.134 1.134 1.14 1.14zM67.869 230c.38 0 .734-.026 1.06-.077.328-.05.623-.139.888-.264.264-.125.497-.292.699-.5.202-.21.372-.471.511-.787.14-.32.209-.69.209-1.113 0-.074-.003-.148-.007-.222-.033-.515-.153-1.109-.362-1.781a9.033 9.033 0 00-.223-.644 14.062 14.062 0 00-.382-.897 1.712 1.712 0 01-.063-.143l-1.238.612.605 1.489c.098.237.172.463.223.678.05.216.081.385.09.508.01.123.014.215.014.275 0 .111-.007.216-.02.313a1.35 1.35 0 01-.105.369 1.245 1.245 0 01-.348.455c-.139.11-.301.192-.487.247-.185.056-.392.09-.619.101a14.68 14.68 0 01-.744.018h-.807V230h1.106zm-6.894 5.134a12.712 12.712 0 001.704-1.03 9.084 9.084 0 001.472-1.304 6.295 6.295 0 001.033-1.54c.26-.553.39-1.132.39-1.74v-.028c.115.125.237.223.364.292a1.686 1.686 0 00.713.209c.102.005.186.007.25.007h.12v-1.363h-.112c-.232 0-.444-.056-.637-.167a1.88 1.88 0 01-.553-.526 4.913 4.913 0 01-.515-.925 15.038 15.038 0 01-.514-1.374l-1.308.404c.056.171.123.386.202.643.078.258.157.532.236.825.079.292.152.59.22.893.067.304.116.588.149.853a2.596 2.596 0 01-.077.94c-.083.31-.21.609-.379.896-.17.288-.377.562-.622.824a8.04 8.04 0 01-.807.748 9.486 9.486 0 01-.933.665c-.329.206-.66.395-.994.567l.598 1.23zm-3.798-5.141c.278 0 .557-.02.838-.063.28-.041.55-.109.81-.201.26-.093.502-.212.727-.359.225-.146.421-.32.588-.525a1.685 1.685 0 00.362-.737c.037-.162.057-.348.059-.557a3.214 3.214 0 00-.08-.702 5.056 5.056 0 00-.317-.908 7.36 7.36 0 00-.507-.932 9.21 9.21 0 00-1.409-1.708 7.958 7.958 0 00-.81-.675 4.88 4.88 0 00-.825-.487l-.563 1.266c.208.093.422.218.64.376.218.158.432.338.643.542.211.205.414.424.609.658.195.234.372.475.532.723.16.248.297.497.41.745.114.248.196.485.247.713.038.167.056.31.056.431 0 .167-.035.292-.104.376-.158.19-.353.331-.585.424-.231.093-.44.147-.626.164a3.996 3.996 0 01-.96-.01 5.912 5.912 0 01-1.62-.443 4.229 4.229 0 01-.62-.323l-.57 1.308c.116.106.299.213.55.32a8.429 8.429 0 001.736.504c.303.053.566.08.789.08zm-7.799.007c.38 0 .734-.026 1.061-.077.327-.05.623-.139.887-.264.265-.125.498-.292.7-.5.201-.21.372-.471.51-.787.14-.32.21-.69.21-1.113 0-.074-.003-.148-.008-.222-.032-.515-.153-1.109-.361-1.781a9.033 9.033 0 00-.223-.644 14.062 14.062 0 00-.383-.897 1.713 1.713 0 01-.062-.143l-1.238.612.605 1.489c.097.237.171.463.222.678.051.216.082.385.09.508.01.123.015.215.015.275 0 .111-.007.216-.021.313a1.35 1.35 0 01-.104.369 1.245 1.245 0 01-.348.455c-.14.11-.302.192-.487.247-.186.056-.392.09-.62.101a14.68 14.68 0 01-.744.018h-.807V230h1.106zm1.141 3.624l1.134-1.134-1.14-1.14-1.135 1.133 1.141 1.141zM48.55 230v-1.363h-.14a2.77 2.77 0 01-.754-.09c-.211-.061-.37-.145-.477-.251a.58.58 0 01-.184-.359 3.758 3.758 0 01-.025-.441v-3.493a48.553 48.553 0 00-.066-2.546c-.02-.403-.046-.776-.076-1.12-.03-.343-.066-.633-.108-.87l-1.363.251c.041.218.077.498.107.839.03.34.056.713.077 1.116.02.404.036.82.045 1.252.01.432.014.847.014 1.245.005.409.007.796.007 1.162 0 .371-.002.7-.007.988a211.402 211.402 0 00-.014 1.037c0 .11.002.244.007.4a2.686 2.686 0 00.247 1.012c.081.176.198.34.351.494.25.25.556.436.915.556.36.12.794.181 1.304.181h.14zm-10.115-3.36l1.134-1.134-1.141-1.14-1.134 1.133 1.14 1.141zm-.306 8.14c.57 0 1.112-.061 1.624-.182.513-.12.98-.305 1.402-.553a4.23 4.23 0 001.11-.942c.317-.38.564-.833.74-1.357.167-.5.258-.9.272-1.2.013-.299.02-.5.02-.602a7.175 7.175 0 00-.393-2.361 11.15 11.15 0 00-.396-1.016 7.888 7.888 0 00-.525-.991l-1.155.737c.004 0 .047.068.129.205.08.137.175.325.281.564.107.239.215.52.324.841a6.615 6.615 0 01.344 2.119v.083c-.01.404-.076.805-.202 1.204a2.69 2.69 0 01-.459.873 2.733 2.733 0 01-.758.654 3.688 3.688 0 01-1.05.407c-.4.092-.845.139-1.336.139a3.94 3.94 0 01-1.054-.129 3.297 3.297 0 01-.807-.334 2.716 2.716 0 01-.588-.462 3.029 3.029 0 01-.403-.526 2.535 2.535 0 01-.24-.514 2.744 2.744 0 01-.108-.435 4.08 4.08 0 01-.035-.821c.014-.278.045-.552.094-.821.049-.269.11-.528.184-.776.075-.248.152-.476.233-.685.082-.209.162-.39.24-.546a2.8 2.8 0 01.21-.358l-1.107-.814c-.19.315-.372.667-.546 1.054-.174.387-.32.796-.438 1.228a6.484 6.484 0 00-.22 1.123 6.142 6.142 0 00.02 1.61c.094.608.274 1.137.54 1.587.267.45.602.822 1.006 1.116.403.295.864.515 1.38.661.518.146 1.073.22 1.667.22z" mask="url(#e)"/><path fill="#000000" fill-opacity=".56" fill-rule="nonzero" d="M340.837 222.41l1.133-1.133-1.14-1.141-1.134 1.134 1.14 1.14zm-1.114 7.59c.38 0 .734-.026 1.061-.077.327-.05.623-.139.887-.264.265-.125.498-.292.7-.5.201-.21.372-.471.51-.787.14-.32.21-.69.21-1.113 0-.074-.003-.148-.008-.222-.032-.515-.153-1.109-.361-1.781a9.033 9.033 0 00-.223-.644 14.061 14.061 0 00-.382-.897 1.713 1.713 0 01-.063-.143l-1.238.612.605 1.489c.097.237.171.463.222.678.051.216.082.385.09.508.01.123.015.215.015.275 0 .111-.007.216-.021.313a1.35 1.35 0 01-.104.369 1.245 1.245 0 01-.348.455c-.14.11-.302.192-.487.247-.186.056-.392.09-.62.101-.227.012-.475.018-.744.018h-.807V230h1.106zm-7.36 4.883a8.524 8.524 0 001.966-.556 7.19 7.19 0 001.725-1.016 6.198 6.198 0 001.322-1.45 5.255 5.255 0 00.754-1.861h.766v-1.363h-.661a6.622 6.622 0 00-.376-2.02 5.342 5.342 0 00-.403-.881 4.395 4.395 0 00-.529-.738c-.552-.593-1.157-.89-1.816-.89a1.77 1.77 0 00-.859.226 2.61 2.61 0 00-.769.664c-.194.25-.364.549-.507.894a3.926 3.926 0 00-.275.925c-.04.272-.06.495-.06.672 0 .185.017.37.05.556.055.353.19.663.403.932.482.599 1.227.928 2.233.988.255.023.483.035.685.035h.79c-.051.348-.194.701-.428 1.06-.234.36-.553.7-.957 1.02-.403.32-.888.608-1.454.863a8.976 8.976 0 01-1.92.598l.32 1.342zm3.755-6.26h-.047c-.204 0-.422-.007-.654-.021a3.506 3.506 0 01-.295-.032 2.472 2.472 0 01-.348-.076 1.635 1.635 0 01-.334-.14.819.819 0 01-.26-.225.651.651 0 01-.143-.33 2.434 2.434 0 01-.025-.31 3.16 3.16 0 01.153-.908c.065-.202.145-.384.24-.546.095-.163.203-.296.324-.4a.577.577 0 01.382-.157c.084 0 .163.014.237.042.074.028.145.064.212.108s.13.093.188.146c.058.053.11.103.156.15.116.134.229.293.338.476.109.183.207.388.295.616.089.227.16.473.216.737.056.264.09.545.104.842-.18.014-.344.022-.49.024l-.296.004h.047zm-9.515 6.281c.32 0 .649-.017.985-.052.336-.035.68-.104 1.033-.209a6.115 6.115 0 002.198-1.2l-.8-1.154c-.427.352-.9.625-1.422.817-.522.193-.949.3-1.28.32-.332.021-.563.031-.693.031a5.16 5.16 0 01-1.168-.132 3.747 3.747 0 01-1.326-.577 2.78 2.78 0 01-.88-.985 2.725 2.725 0 01-.306-1.29 2.917 2.917 0 01.17-1.023c.091-.25.203-.478.335-.685.132-.206.278-.393.438-.56a4.99 4.99 0 01.483-.445c.163-.13.32-.239.47-.327a4.59 4.59 0 01.393-.209c.209-.102.413-.196.612-.281.2-.086.419-.166.658-.24.238-.075.507-.144.807-.21.299-.064.65-.129 1.053-.194l.707-.118c.215-.037.403-.069.563-.094.16-.026.285-.046.376-.063.09-.016.14-.024.15-.024l-.293-1.336-1.6.25c-.25.038-.49.056-.716.056a3.38 3.38 0 01-.307-.013 2.818 2.818 0 01-.862-.174 1.597 1.597 0 01-.616-.41 1.167 1.167 0 01-.288-.662 2.397 2.397 0 01-.014-.25 1.471 1.471 0 01.435-1.057c.155-.154.34-.273.556-.359a2.313 2.313 0 01.831-.163c.149 0 .29.02.425.062.18.056.353.13.518.223.164.093.321.2.47.32.148.12.292.239.43.355l1.002-.953a.36.36 0 01-.087-.073 4.872 4.872 0 00-.79-.63c-.7-.445-1.383-.668-2.051-.668h-.14c-.412.019-.811.12-1.196.306a3.36 3.36 0 00-1.002.73 2.795 2.795 0 00-.605.947c-.12.33-.18.638-.18.925 0 .135.01.274.034.417.037.4.145.752.324 1.058.178.306.437.577.775.814-.473.185-.92.414-1.339.685-.42.271-.79.59-1.113.957a4.828 4.828 0 00-.793 1.252 4.94 4.94 0 00-.386 1.565 4.92 4.92 0 00-.021.445c0 .339.037.656.111.953.102.431.265.822.487 1.172.223.35.494.66.814.929.32.269.674.495 1.061.678.387.183.8.321 1.238.414.439.093.883.14 1.332.14zm-14.017-4.82c.431 0 .81-.06 1.134-.181.334-.121.612-.295.835-.522.222-.227.39-.502.5-.824a3.3 3.3 0 00.168-1.082c0-.265-.025-.536-.073-.814a7.696 7.696 0 00-.188-.814 12.239 12.239 0 00-.86-2.17l-1.217.64a12.273 12.273 0 01.588 1.422c.1.295.186.595.257.901.072.306.108.591.108.856a2 2 0 01-.07.55.93.93 0 01-.225.403.764.764 0 01-.355.212 1.566 1.566 0 01-.4.052c-.079 0-.162-.005-.25-.014a.65.65 0 01-.352-.136.847.847 0 01-.23-.292 1.47 1.47 0 01-.125-.41 3.026 3.026 0 01-.038-.49c0-.19.014-.408.042-.651.028-.243.059-.473.094-.689.034-.215.066-.4.094-.553l.034-.222-1.335-.244c-.028.19-.066.414-.115.671a9.558 9.558 0 01-.188.797 7.21 7.21 0 01-.278.807c-.11.264-.237.5-.383.71a2.008 2.008 0 01-.5.507c-.188.13-.4.195-.637.195a.735.735 0 01-.369-.083.622.622 0 01-.23-.223.974.974 0 01-.118-.316 1.894 1.894 0 01-.034-.366c0-.18.018-.377.055-.588.037-.21.081-.417.132-.619a12.77 12.77 0 01.293-.998l-1.378-.292c-.046.227-.102.468-.167.723a7.783 7.783 0 01-.236.762 5.556 5.556 0 01-.327.727 2.873 2.873 0 01-.442.616c-.17.178-.363.322-.58.431a1.626 1.626 0 01-.738.164h-.153V230h.146c.269 0 .516-.022.74-.066a2.704 2.704 0 001.13-.494c.159-.118.307-.252.446-.4.075.172.18.322.317.452s.289.239.455.327c.167.088.343.154.526.198.183.044.36.066.532.066.394 0 .767-.095 1.12-.285.352-.19.668-.447.946-.772.097.148.216.286.355.414.139.128.29.239.452.334.162.095.333.17.511.226.179.056.356.083.532.083h.05zm-14.045 5.05a12.712 12.712 0 001.704-1.03 9.084 9.084 0 001.472-1.304 6.295 6.295 0 001.033-1.54c.26-.553.39-1.132.39-1.74v-.028c.115.125.237.223.364.292a1.686 1.686 0 00.713.209c.102.005.186.007.25.007h.12v-1.363h-.112c-.232 0-.444-.056-.637-.167a1.88 1.88 0 01-.553-.526 4.913 4.913 0 01-.515-.925 15.038 15.038 0 01-.514-1.374l-1.308.404c.055.171.123.386.202.643.078.258.157.532.236.825.079.292.152.59.22.893.066.304.116.588.149.853a2.596 2.596 0 01-.077.94c-.083.31-.21.609-.379.896-.17.288-.377.562-.622.824a8.04 8.04 0 01-.807.748 9.486 9.486 0 01-.933.665c-.329.206-.66.395-.994.567l.598 1.23zm-6.393-.25a8.398 8.398 0 001.405-.345c.46-.155.896-.348 1.311-.577.415-.23.803-.498 1.162-.804a5.91 5.91 0 00.95-1.022c.273-.376.498-.785.674-1.228.177-.443.29-.92.341-1.43a6.441 6.441 0 00.007-1.266 6.891 6.891 0 00-.23-1.217 5.77 5.77 0 00-.434-1.096 4.275 4.275 0 00-.623-.9c-.552-.594-1.157-.891-1.815-.891a1.77 1.77 0 00-.86.226 2.61 2.61 0 00-.768.664c-.195.25-.364.549-.508.894a3.926 3.926 0 00-.275.925c-.04.272-.059.495-.059.672 0 .185.016.37.049.556.055.353.19.663.403.932.483.599 1.227.928 2.233.988.255.023.484.035.686.035h.79c-.052.348-.195.701-.429 1.06-.234.36-.553.7-.956 1.02-.404.32-.888.608-1.454.863a8.976 8.976 0 01-1.92.598l.32 1.342zm3.755-6.262h-.047c-.204 0-.422-.006-.654-.02a3.506 3.506 0 01-.296-.032 2.472 2.472 0 01-.348-.076 1.635 1.635 0 01-.334-.14.819.819 0 01-.26-.225.651.651 0 01-.143-.33 2.434 2.434 0 01-.024-.31c0-.102.006-.207.02-.313a3.16 3.16 0 01.133-.595c.064-.202.144-.384.24-.546.095-.163.202-.296.323-.4a.577.577 0 01.383-.157c.083 0 .162.014.236.042.074.028.145.064.212.108.068.044.13.093.188.146.058.053.11.103.157.15.116.134.228.293.337.476.11.183.208.388.296.616.088.227.16.473.215.737.056.264.09.545.105.842-.181.014-.345.022-.49.024l-.296.004h.047zM286.93 230c.38 0 .748-.026 1.103-.077.355-.05.68-.139.977-.264.297-.125.56-.292.79-.5.23-.21.414-.471.553-.787.14-.32.209-.69.209-1.113 0-.074-.003-.148-.007-.222-.033-.515-.153-1.109-.362-1.781a9.033 9.033 0 00-.223-.644 14.061 14.061 0 00-.382-.897 1.713 1.713 0 01-.063-.143l-1.238.612.605 1.489c.098.237.172.463.223.678.05.216.08.385.09.508.01.123.014.215.014.275 0 .111-.007.216-.02.313a1.35 1.35 0 01-.105.369 1.089 1.089 0 01-.39.455c-.167.11-.36.192-.577.247-.218.056-.455.09-.71.101-.255.012-.517.018-.786.018h-1.342V230h1.641zm-.347 3.402l1.127-1.127-1.141-1.141-1.127 1.134 1.14 1.134zm2.852.014l1.127-1.134-1.141-1.134-1.127 1.127 1.14 1.14zm-18.672 1.196a8.64 8.64 0 002.053-.323 4.259 4.259 0 001.617-.863c.452-.392.805-.9 1.057-1.527.253-.626.38-1.398.38-2.316.102.074.201.138.299.19a1.793 1.793 0 00.65.21c.123.016.266.024.428.024a2.87 2.87 0 001.116-.22c.35-.145.665-.38.943-.705.097.148.212.28.344.393.133.113.272.21.418.288.146.08.293.14.442.181.148.042.285.063.41.063a2.06 2.06 0 001.252-.403c.176-.13.333-.283.47-.46.137-.176.251-.373.344-.591.116.227.263.43.442.609a2.875 2.875 0 001.273.74c.239.066.481.098.727.098h.139v-1.363h-.14a1.3 1.3 0 01-.691-.181c-.197-.12-.37-.28-.519-.48a2.868 2.868 0 01-.372-.689 5.8 5.8 0 01-.243-.807 8.093 8.093 0 01-.143-.831 9.945 9.945 0 01-.062-.769l-1.364.097c.01.158.024.357.045.599a8.977 8.977 0 01-.01 1.593 2.92 2.92 0 01-.167.74c-.084.22-.202.4-.355.54-.153.139-.352.208-.598.208a.65.65 0 01-.445-.153 1.043 1.043 0 01-.275-.407 2.392 2.392 0 01-.143-.577 4.403 4.403 0 01-.042-.55v-.344c0-.148.003-.297.007-.445.01-.218.017-.415.021-.591l-1.412-.105c-.01.237-.017.478-.024.724a7.886 7.886 0 01-.052.716 5.015 5.015 0 01-.122.658 1.66 1.66 0 01-.24.539 1.184 1.184 0 01-.407.365c-.165.09-.37.136-.616.136-.32 0-.583-.078-.79-.233a2 2 0 01-.525-.606 4.68 4.68 0 01-.372-.827 28.726 28.726 0 00-.323-.894 14.977 14.977 0 01-.258-.675l-1.154.751c.153.399.29.799.414 1.2.122.401.212.785.267 1.151a6.918 6.918 0 01.077 1.336 5.77 5.77 0 01-.237 1.329c-.422 1.29-1.618 1.98-3.59 2.073h-.236c-.394 0-.737-.043-1.03-.129a2.925 2.925 0 01-.758-.334 2.228 2.228 0 01-.532-.466 2.962 2.962 0 01-.348-.529 2.646 2.646 0 01-.201-.518 4.285 4.285 0 01-.094-.431 4.03 4.03 0 01-.035-.814c.014-.274.045-.546.094-.817a7.883 7.883 0 01.41-1.472 5.47 5.47 0 01.244-.546c.081-.155.152-.272.212-.351l-1.106-.821c-.19.315-.372.666-.546 1.05-.174.385-.32.795-.438 1.228-.119.434-.192.81-.22 1.127a6.142 6.142 0 00.02 1.61c.085.566.25 1.07.499 1.514.248.443.563.82.946 1.13.382.31.82.547 1.311.71a5.052 5.052 0 001.593.243h.271z" mask="url(#e)"/><path fill="#000000" fill-opacity=".12" mask="url(#e)" d="M.73 113h375v1H.73z"/></g></g></g></svg>