<svg xmlns="http://www.w3.org/2000/svg" xmlns:xlink="http://www.w3.org/1999/xlink" width="422" height="344"><defs><filter id="d" width="113.9%" height="117.6%" x="-6.9%" y="-7.4%" filterUnits="objectBoundingBox"><feOffset dy="4" in="SourceAlpha" result="shadowOffsetOuter1"/><feGaussianBlur in="shadowOffsetOuter1" result="shadowBlurOuter1" stdDeviation="8"/><feColorMatrix in="shadowBlurOuter1" values="0 0 0 0 0 0 0 0 0 0 0 0 0 0 0 0 0 0 0.12 0"/></filter><filter id="f" width="110.7%" height="113.5%" x="-5.3%" y="-5.4%" filterUnits="objectBoundingBox"><feOffset dy="2" in="SourceAlpha" result="shadowOffsetOuter1"/><feGaussianBlur in="shadowOffsetOuter1" result="shadowBlurOuter1" stdDeviation="4"/><feColorMatrix in="shadowBlurOuter1" result="shadowMatrixOuter1" values="0 0 0 0 0 0 0 0 0 0 0 0 0 0 0 0 0 0 0.08 0"/><feOffset dy="4" in="SourceAlpha" result="shadowOffsetOuter2"/><feGaussianBlur in="shadowOffsetOuter2" result="shadowBlurOuter2" stdDeviation="6"/><feColorMatrix in="shadowBlurOuter2" result="shadowMatrixOuter2" values="0 0 0 0 0 0 0 0 0 0 0 0 0 0 0 0 0 0 0.04 0"/><feOffset in="SourceAlpha" result="shadowOffsetOuter3"/><feGaussianBlur in="shadowOffsetOuter3" result="shadowBlurOuter3" stdDeviation="2"/><feColorMatrix in="shadowBlurOuter3" result="shadowMatrixOuter3" values="0 0 0 0 0 0 0 0 0 0 0 0 0 0 0 0 0 0 0.04 0"/><feMerge><feMergeNode in="shadowMatrixOuter1"/><feMergeNode in="shadowMatrixOuter2"/><feMergeNode in="shadowMatrixOuter3"/></feMerge></filter><filter id="h" width="101.9%" height="110.9%" x="-.9%" y="-3.9%" filterUnits="objectBoundingBox"><feOffset dy="1" in="SourceAlpha" result="shadowOffsetOuter1"/><feGaussianBlur in="shadowOffsetOuter1" result="shadowBlurOuter1" stdDeviation="1"/><feComposite in="shadowBlurOuter1" in2="SourceAlpha" operator="out" result="shadowBlurOuter1"/><feColorMatrix in="shadowBlurOuter1" values="0 0 0 0 0 0 0 0 0 0 0 0 0 0 0 0 0 0 0.12 0"/></filter><path id="c" d="M8 0h359a8 8 0 018 8v288H0V8a8 8 0 018-8z"/><path id="g" d="M8 0h359a8 8 0 018 8v288H0V8a8 8 0 018-8z"/><path id="i" d="M0 0h375v64H0z"/><rect id="a" width="422" height="344" x="0" y="0" rx="4"/></defs><g fill="none" fill-rule="evenodd"><mask id="b" fill="#fff"><use xlink:href="#a"/></mask><use fill="#000" fill-opacity="0" xlink:href="#a"/><g mask="url(#b)"><g transform="translate(24 48)"><mask id="e" fill="#fff"><use xlink:href="#c"/></mask><use fill="#000" filter="url(#d)" xlink:href="#c"/><g mask="url(#e)"><use fill="#000" filter="url(#f)" xlink:href="#g"/><use fill="#FFF" xlink:href="#g"/></g><path fill="#000000" fill-opacity=".56" d="M326.253 157.165v-1.282l.06.007a53.584 53.584 0 002.58.26.625.625 0 00.048-1.247 52.491 52.491 0 01-2.48-.255l-.208-.023v-.4c0-.282.036-.564.088-.842a53.296 53.296 0 0013.318 0c.052.279.088.56.088.841v.401l-.222.024c-.817.104-1.647.19-2.469.254a.625.625 0 00.048 1.248c.017 0 .034 0 .05-.002a52.91 52.91 0 002.519-.258l.074-.008v1.281a68.05 68.05 0 01-13.494.001zm2.377-8.53c.195-.367.616-.605 1.071-.605h6.599c.455 0 .875.238 1.072.607l1.673 3.137a51.697 51.697 0 01-12.09 0l1.675-3.138zm14.266 2.453a.836.836 0 00-1.135-.322l-1.056.589-.03-.066-1.833-3.436c-.488-.919-1.462-1.49-2.542-1.49H329.7c-1.08 0-2.054.571-2.542 1.49l-1.834 3.437c-.012.02-.02.043-.03.064l-1.056-.588a.833.833 0 00-.811 1.456l1.303.725c-.09.421-.145.849-.145 1.277v3.698h.01c0 .076 0 .155.02.226v1.259h-.003v1.043a1.043 1.043 0 002.087 0v-1.043h-.001v-.525c2.092.19 4.194.29 6.297.29 2.104 0 4.208-.1 6.301-.29v.525h-.002v1.043a1.043 1.043 0 002.086 0v-2.356a.787.787 0 00.015-.172h.018v-3.698c0-.428-.055-.856-.144-1.276l1.302-.726a.834.834 0 00.324-1.134z" mask="url(#e)"/><path fill="#000000" fill-opacity=".56" fill-rule="nonzero" d="M307.909 157c.247 0 .48-.012.7-.037a2.77 2.77 0 00.62-.14 2.05 2.05 0 00.551-.298 2.48 2.48 0 00.497-.517c.186.138.39.273.608.405.22.131.448.243.685.334a2.63 2.63 0 00.983.198c.166 0 .333-.022.5-.067.263-.073.486-.204.669-.392.182-.189.326-.41.432-.664.105-.253.17-.486.195-.697.024-.21.036-.381.036-.511 0-.146-.01-.288-.03-.426a3.683 3.683 0 00-.216-.804 2.506 2.506 0 00-.417-.706 2.058 2.058 0 00-.63-.502 1.812 1.812 0 00-.85-.192c-.267 0-.502.054-.702.162-.201.107-.38.247-.536.42a3.21 3.21 0 00-.42.59c-.124.221-.24.445-.35.673-.126.251-.25.496-.374.733-.124.238-.27.449-.439.633a1.908 1.908 0 01-.611.445c-.24.111-.54.167-.901.167h-.122V157h.122zm4.626-1.266c-.163 0-.345-.04-.548-.122a4.697 4.697 0 01-1.01-.59l.328-.664c.102-.199.192-.371.271-.517.08-.146.154-.268.225-.365a.862.862 0 01.213-.216.408.408 0 01.229-.07c.121 0 .229.024.322.073.094.048.175.11.244.185s.128.159.176.25a1.98 1.98 0 01.189.496c.016.069.026.118.03.146.017.11.025.215.025.317a1.822 1.822 0 01-.113.615 1.035 1.035 0 01-.167.298.389.389 0 01-.201.14.878.878 0 01-.213.024zM308.03 157v-1.193h-.121c-.244 0-.445-.031-.603-.094a1.088 1.088 0 01-.396-.262 1.536 1.536 0 01-.27-.408c-.076-.16-.154-.338-.235-.533-.158-.369-.307-.723-.447-1.062a3423.239 3423.239 0 01-1.415-3.436l-1.108.463 1.923 4.626a2.31 2.31 0 01-.81.511c-.218.085-.404.135-.556.15a4.04 4.04 0 01-.344.02c-.162 0-.325-.018-.487-.054a2.792 2.792 0 01-.737-.28 3.6 3.6 0 01-.736-.542l-.688.968c.345.357.721.634 1.13.83a3.02 3.02 0 001.33.296c.287 0 .547-.017.778-.052.232-.034.446-.085.642-.152.197-.067.382-.151.554-.253a4.65 4.65 0 00.515-.353 2.1 2.1 0 00.304.314c.118.1.255.186.41.259.157.073.338.13.543.173.205.043.439.064.703.064h.121zm-11.62 0c.333 0 .655-.022.965-.067.31-.045.596-.122.855-.231.26-.11.49-.256.691-.439.201-.182.362-.411.484-.687.122-.28.183-.605.183-.974 0-.065-.002-.13-.006-.195-.029-.45-.134-.97-.317-1.558a7.904 7.904 0 00-.195-.563 12.306 12.306 0 00-.334-.786 1.498 1.498 0 01-.055-.124l-1.084.535.53 1.303a3.959 3.959 0 01.274 1.038c.008.107.012.187.012.24 0 .098-.006.189-.018.274-.02.13-.05.237-.092.323a.953.953 0 01-.34.398 1.674 1.674 0 01-.506.216c-.19.05-.397.079-.62.089-.224.01-.453.015-.688.015h-1.175V157h1.436zm-.304 2.977l.986-.987-.998-.998-.986.992.998.993zm2.496.012l.986-.992-.998-.993-.987.986.999.999zm-8.692 1.503a11.123 11.123 0 001.49-.9 7.948 7.948 0 001.288-1.142c.376-.416.677-.865.904-1.348.227-.483.341-.99.341-1.522v-.024c.101.11.208.194.32.255a1.475 1.475 0 00.624.183c.089.004.162.006.219.006h.103v-1.193h-.097c-.203 0-.389-.049-.557-.146a1.645 1.645 0 01-.484-.46 4.3 4.3 0 01-.45-.81c-.147-.33-.297-.73-.451-1.201l-1.144.353c.048.15.107.337.176.563.07.225.138.465.207.721.07.256.133.516.192.782s.102.514.13.746a2.272 2.272 0 01-.067.822 3.158 3.158 0 01-.331.785c-.148.251-.33.492-.545.721-.215.23-.45.447-.706.654a8.3 8.3 0 01-.815.582c-.289.18-.579.346-.87.496l.523 1.077zM286.312 157c.333 0 .655-.022.965-.067.31-.045.595-.122.855-.231.26-.11.49-.256.691-.439.2-.182.362-.411.484-.687.122-.28.183-.605.183-.974 0-.065-.002-.13-.007-.195-.028-.45-.133-.97-.316-1.558a7.904 7.904 0 00-.195-.563 12.306 12.306 0 00-.335-.786 1.499 1.499 0 01-.054-.124l-1.084.535.53 1.303a3.959 3.959 0 01.274 1.038c.008.107.012.187.012.24 0 .098-.006.189-.018.274-.02.13-.051.237-.092.323a.953.953 0 01-.34.398 1.674 1.674 0 01-.506.216c-.19.05-.398.079-.62.089-.224.01-.453.015-.689.015h-1.174V157h1.436zm-.304 2.977l.986-.987-.998-.998-.986.992.998.993zm2.495.012l.987-.992-.999-.993-.986.986.998.999zm-12.082-7.986l.986-.986-.998-.999-.986.992.998.993zm2.496.012l.986-.992-.999-.993-.986.987.999.998zm-1.766 5.003c2.31 0 4-.56 5.07-1.68.09.248.216.469.378.664.507.653 1.289.986 2.344.998h.17v-1.193h-.152c-.662-.004-1.134-.187-1.418-.548a1.217 1.217 0 01-.256-.511 3.023 3.023 0 01-.08-.548v-.049a5.071 5.071 0 01.137-.886c.027-.107.05-.197.07-.27l-1.156-.317c-.052.183-.112.37-.18.56-.066.191-.147.38-.243.566a3.52 3.52 0 01-.344.542 2.696 2.696 0 01-.48.481c-.419.34-.942.59-1.571.746-.629.156-1.392.234-2.289.234-1.002-.004-1.817-.11-2.444-.317-.627-.207-1.062-.519-1.305-.937a1.477 1.477 0 01-.195-.502 2.648 2.648 0 01-.043-.448c0-.052.002-.103.006-.152.009-.182.034-.357.077-.523.042-.167.086-.313.13-.438.045-.126.086-.228.122-.305a1.41 1.41 0 00.055-.122l-1.053-.578c-.02.029-.078.155-.174.38-.095.226-.193.531-.295.917-.049.182-.079.35-.091.502a4.048 4.048 0 00-.006.69c.016.212.056.423.118.634.063.21.154.416.271.615.366.616.953 1.068 1.763 1.354.81.286 1.83.433 3.064.441zm-13.02-6.659l.992-.992-.998-.998-.992.992.998.998zm-.974 6.641c.333 0 .643-.022.929-.067a2.82 2.82 0 00.776-.231c.231-.11.435-.256.611-.439.177-.182.326-.411.448-.687.122-.28.182-.605.182-.974 0-.065-.002-.13-.006-.195-.028-.45-.134-.97-.316-1.558a7.904 7.904 0 00-.195-.563 12.306 12.306 0 00-.335-.786 1.499 1.499 0 01-.054-.124l-1.084.535.53 1.303a3.959 3.959 0 01.274 1.038c.008.107.012.187.012.24 0 .098-.006.189-.019.274a1.09 1.09 0 01-.396.721 1.28 1.28 0 01-.425.216 2.29 2.29 0 01-.542.089c-.199.01-.416.015-.651.015h-.706V157h.967zm-8.016 0c.625 0 1.169-.164 1.631-.493.236-.162.406-.327.511-.493.76.532 1.545.848 2.356.95.07.008.136.012.201.012.418 0 .773-.193 1.065-.579.154.203.348.354.582.454.233.1.5.149.8.149h.146v-1.193h-.146a.81.81 0 01-.627-.28.938.938 0 01-.17-.298 1.174 1.174 0 01-.067-.36 5.122 5.122 0 00-.07-.663 3.567 3.567 0 00-.47-1.257 2.222 2.222 0 00-.41-.496 1.821 1.821 0 00-.539-.335 1.78 1.78 0 00-.672-.121c-.357 0-.663.094-.916.283a2.405 2.405 0 00-.643.733l-.045.076c-.018.03-.048.085-.088.164a58.056 58.056 0 01-.469.934 5.844 5.844 0 01-.444.737c-.439.585-.942.879-1.51.883h-.128V157h.122zm4.559-1.211a1.23 1.23 0 01-.2-.019 3.03 3.03 0 01-.673-.237 6.245 6.245 0 01-.831-.487l.033-.067a93.703 93.703 0 00.539-1.102c.247-.454.479-.681.694-.681.182 0 .34.05.475.152.133.101.244.232.331.392.088.16.154.34.201.54.047.198.074.395.082.59v.097c0 .11-.01.209-.03.298a.874.874 0 01-.128.292c-.105.155-.27.232-.493.232zM255.263 157v-1.193h-.122c-.256 0-.476-.026-.66-.08a.95.95 0 01-.418-.218.507.507 0 01-.16-.314 3.288 3.288 0 01-.022-.386v-3.056a42.483 42.483 0 00-.125-3.208 9.022 9.022 0 00-.094-.76l-1.193.218c.036.191.068.436.094.734.026.298.049.624.067.977.018.353.031.718.04 1.096.008.377.012.74.012 1.09.004.356.006.695.006 1.016v.236c-.001.23-.003.44-.006.628a184.943 184.943 0 00-.012.907c0 .097.002.214.006.35.004.136.023.279.057.43.035.15.088.301.159.456.07.154.173.298.307.432.22.219.486.381.8.487.315.105.695.158 1.142.158h.122zm-7.737 0c.333 0 .654-.022.965-.067.31-.045.595-.122.855-.231.26-.11.49-.256.691-.439.2-.182.362-.411.484-.687.122-.28.182-.605.182-.974 0-.065-.002-.13-.006-.195-.028-.45-.134-.97-.316-1.558a7.904 7.904 0 00-.195-.563 12.306 12.306 0 00-.335-.786 1.499 1.499 0 01-.054-.124l-1.084.535.53 1.303a3.959 3.959 0 01.274 1.038c.008.107.012.187.012.24 0 .098-.006.189-.019.274-.02.13-.05.237-.09.323a.953.953 0 01-.342.398 1.674 1.674 0 01-.505.216c-.19.05-.398.079-.62.089-.224.01-.453.015-.689.015h-1.174V157h1.436zm-.304 2.977l.986-.987-.998-.998-.987.992.999.993zm2.495.012l.986-.992-.998-.993-.986.986.998.999zm-8.686-10.519l.901-.9-.907-.907-.9.9.906.907zm-1.375 1.924l.986-.992-.999-.999-.986.993.999.998zm2.672.006l.986-.986-.998-.998-.986.986.998.998zm-3.67 5.618c.198 0 .388-.03.569-.088.18-.059.35-.142.51-.25.161-.107.31-.233.445-.377.136-.144.259-.301.368-.472.15.361.378.647.682.856.305.209.66.313 1.065.313.207 0 .402-.03.585-.091a1.96 1.96 0 00.925-.652c.122-.154.223-.326.304-.517.106.195.234.37.384.523.15.155.315.287.496.396.18.11.372.194.575.253.203.059.41.088.621.088h.146v-1.193h-.146c-.292 0-.557-.123-.794-.368-.238-.246-.438-.618-.6-1.117a4.796 4.796 0 01-.143-.518 8.16 8.16 0 01-.14-.885l-.04-.405-1.193.097c.009.146.016.299.022.457a10.832 10.832 0 01.003.755c-.008.235-.029.47-.061.703a2.725 2.725 0 01-.161.633 1.22 1.22 0 01-.302.456.683.683 0 01-.48.174c-.204 0-.364-.055-.481-.165a.962.962 0 01-.26-.426 1.87 1.87 0 01-.09-.475 4.65 4.65 0 01.015-.785c.016-.223.04-.436.073-.639.032-.203.059-.375.079-.517l-1.187-.225c-.02.186-.05.396-.088.63a7.183 7.183 0 01-.387 1.415c-.09.231-.197.436-.322.615a1.66 1.66 0 01-.436.432.981.981 0 01-.557.164.45.45 0 01-.38-.17.838.838 0 01-.164-.393 2.806 2.806 0 01-.028-.648c.012-.22.036-.435.07-.649a12.743 12.743 0 01.204-1.02l-1.169-.322c-.024.098-.05.213-.079.347a6.176 6.176 0 01-.112.442 8.73 8.73 0 01-.168.51c-.065.181-.144.365-.237.552a4.12 4.12 0 01-.31.49c-.118.16-.247.304-.387.432s-.29.23-.45.307c-.16.077-.326.116-.497.116h-.127V157h.127a2.256 2.256 0 001.2-.332 2.36 2.36 0 00.468-.374c.142-.146.276-.308.402-.487a1.665 1.665 0 001.637 1.211zm-10.087-8.704l4.894-2.07-.286-.614-4.565 1.905-.043.779zm1.066 8.686c.17-.008.338-.024.505-.049.166-.024.328-.06.487-.11a2.355 2.355 0 00.883-.493c.214-.198.389-.425.523-.681.182.235.394.454.636.657.241.203.508.357.8.463.211.069.427.122.649.158.22.037.477.055.77.055h.176v-1.193h-.383a2.083 2.083 0 01-.624-.1 2.045 2.045 0 01-.52-.26 2.233 2.233 0 01-.436-.398 4.106 4.106 0 01-.374-.526c-.155-.26-.299-.518-.432-.773-.134-.256-.27-.51-.405-.761a23.621 23.621 0 00-.426-.755 8.539 8.539 0 00-1.136-1.507 8.372 8.372 0 00-.81-.745l4.828-2.027-.469-1.108-5.38 2.32-.159 1.344a10.538 10.538 0 011.239 1.142c.213.229.417.47.611.724.195.254.366.51.512.77.146.26.254.503.325.73a2.1 2.1 0 01.107.621c0 .049-.002.098-.006.146a.956.956 0 01-.15.43c-.087.14-.196.264-.328.374-.132.11-.28.197-.444.262a1.326 1.326 0 01-.49.097h-2.125V157h2.046zm-1.802 0v-1.193h-.122c-.256 0-.476-.026-.66-.08a.95.95 0 01-.417-.218.507.507 0 01-.162-.314 3.288 3.288 0 01-.021-.386v-3.056a42.483 42.483 0 00-.125-3.208 9.022 9.022 0 00-.094-.76l-1.193.218c.036.191.068.436.094.734.027.298.049.624.067.977.018.353.032.718.04 1.096.008.377.012.74.012 1.09.004.356.006.695.006 1.016v.236c-.001.23-.003.44-.006.628a184.943 184.943 0 00-.012.907c0 .097.002.214.006.35a2.35 2.35 0 00.216.886c.07.154.173.298.307.432.22.219.486.381.8.487.315.105.696.158 1.142.158h.122zm-6.994 0c.073 0 .163-.003.27-.01.108-.005.223-.02.345-.042.121-.022.25-.052.383-.091.134-.039.266-.09.396-.155.357-.175.628-.416.812-.725.185-.308.277-.671.277-1.09 0-.417-.121-.872-.365-1.363-.243-.49-.615-1.02-1.114-1.588a12.198 12.198 0 00-.511-.539 18.559 18.559 0 00-.447-.43 11.029 11.029 0 00-.32-.285 1.231 1.231 0 01-.128-.116l-.767.931a.92.92 0 00.11.098c.073.06.17.146.292.255a8.658 8.658 0 00-.712.743c-.662.795-.992 1.56-.992 2.295 0 .418.099.78.298 1.086.199.307.493.551.882.734.15.073.299.13.445.17.146.04.279.07.398.089a2.466 2.466 0 00.448.033zm.045-1.212h-.078c-.026 0-.057-.003-.095-.005a2.482 2.482 0 01-.414-.076 1.455 1.455 0 01-.237-.089.936.936 0 01-.262-.164.759.759 0 01-.15-.186.585.585 0 01-.066-.191 1.222 1.222 0 01-.015-.19c0-.206.047-.415.143-.626.095-.211.212-.414.35-.609.138-.195.285-.373.441-.535.156-.163.293-.297.41-.402.395.426.695.828.902 1.205.207.377.31.7.31.968a.885.885 0 01-.1.447.803.803 0 01-.326.295 1.235 1.235 0 01-.243.086c-.086.02-.167.036-.244.048-.077.013-.148.02-.213.022a5.281 5.281 0 01-.158.003h.045z" mask="url(#e)"/><path fill="#000000" fill-opacity=".56" d="M330.192 200.245a5.533 5.533 0 015.527 5.526v1.062h3.948v-1.602a2.75 2.75 0 00-2.747-2.745h-.04a.436.436 0 01-.402-.226 7.155 7.155 0 00-.696-1.023.17.17 0 01.086-.271c.338-.09.687-.147 1.052-.147h.003l.214.005a4.418 4.418 0 014.196 4.407v2.435c0 .461-.372.834-.833.834h-5.614a.833.833 0 01-.834-.834v-1.895a3.864 3.864 0 00-3.86-3.86 3.864 3.864 0 00-3.859 3.86v1.062h5.217a.835.835 0 010 1.67h-.834v-.003H325.5a.833.833 0 01-.833-.834v-1.895a5.532 5.532 0 015.526-5.526zm6.709-6.093c1.378 0 2.5 1.122 2.5 2.5s-1.122 2.5-2.5 2.5a2.503 2.503 0 01-2.5-2.5c0-1.378 1.121-2.5 2.5-2.5zm-6.709-.577c1.379 0 2.5 1.122 2.5 2.5 0 1.379-1.121 2.5-2.5 2.5a2.503 2.503 0 01-2.5-2.5c0-1.378 1.122-2.5 2.5-2.5zm6.709 2.244a.833.833 0 100 1.666.833.833 0 000-1.667zm-6.709-.577a.834.834 0 10.001 1.667.834.834 0 000-1.667z" mask="url(#e)"/><path fill="#000000" fill-opacity=".56" fill-rule="nonzero" d="M307.909 205c.247 0 .48-.012.7-.037a2.77 2.77 0 00.62-.14 2.05 2.05 0 00.551-.298 2.48 2.48 0 00.497-.517c.186.138.39.273.608.405.22.131.448.243.685.334a2.63 2.63 0 00.983.198c.166 0 .333-.022.5-.067.263-.073.486-.204.669-.392.182-.189.326-.41.432-.664.105-.253.17-.486.195-.697.024-.21.036-.381.036-.511 0-.146-.01-.288-.03-.426a3.683 3.683 0 00-.216-.804 2.506 2.506 0 00-.417-.706 2.058 2.058 0 00-.63-.502 1.812 1.812 0 00-.85-.192c-.267 0-.502.054-.702.162-.201.107-.38.247-.536.42a3.21 3.21 0 00-.42.59c-.124.221-.24.445-.35.673-.126.251-.25.496-.374.733-.124.238-.27.449-.439.633a1.908 1.908 0 01-.611.445c-.24.111-.54.167-.901.167h-.122V205h.122zm4.626-1.266c-.163 0-.345-.04-.548-.122a4.697 4.697 0 01-1.01-.59l.328-.664c.102-.199.192-.371.271-.517.08-.146.154-.268.225-.365a.862.862 0 01.213-.216.408.408 0 01.229-.07c.121 0 .229.024.322.073.094.048.175.11.244.185s.128.159.176.25a1.98 1.98 0 01.189.496c.016.069.026.118.03.146.017.11.025.215.025.317a1.822 1.822 0 01-.113.615 1.035 1.035 0 01-.167.298.389.389 0 01-.201.14.878.878 0 01-.213.024zM308.03 205v-1.193h-.121c-.244 0-.445-.031-.603-.094a1.088 1.088 0 01-.396-.262 1.536 1.536 0 01-.27-.408c-.076-.16-.154-.338-.235-.533-.158-.369-.307-.723-.447-1.062a3423.239 3423.239 0 01-1.415-3.436l-1.108.463 1.923 4.626a2.31 2.31 0 01-.81.511c-.218.085-.404.135-.556.15a4.04 4.04 0 01-.344.02c-.162 0-.325-.018-.487-.054a2.792 2.792 0 01-.737-.28 3.6 3.6 0 01-.736-.542l-.688.968c.345.357.721.634 1.13.83a3.02 3.02 0 001.33.296c.287 0 .547-.017.778-.052.232-.034.446-.085.642-.152.197-.067.382-.151.554-.253a4.65 4.65 0 00.515-.353 2.1 2.1 0 00.304.314c.118.1.255.186.41.259.157.073.338.13.543.173.205.043.439.064.703.064h.121zm-11.62 0c.333 0 .655-.022.965-.067.31-.045.596-.122.855-.231.26-.11.49-.256.691-.439.201-.182.362-.411.484-.687.122-.28.183-.605.183-.974 0-.065-.002-.13-.006-.195-.029-.45-.134-.97-.317-1.558a7.904 7.904 0 00-.195-.563 12.306 12.306 0 00-.334-.786 1.498 1.498 0 01-.055-.124l-1.084.535.53 1.303a3.959 3.959 0 01.274 1.038c.008.107.012.187.012.24 0 .098-.006.189-.018.274-.02.13-.05.237-.092.323a.953.953 0 01-.34.398 1.674 1.674 0 01-.506.216c-.19.05-.397.079-.62.089-.224.01-.453.015-.688.015h-1.175V205h1.436zm-.304 2.977l.986-.987-.998-.998-.986.992.998.993zm2.496.012l.986-.992-.998-.993-.987.986.999.999zm-8.692 1.503a11.123 11.123 0 001.49-.9 7.948 7.948 0 001.288-1.142c.376-.416.677-.865.904-1.348.227-.483.341-.99.341-1.522v-.024c.101.11.208.194.32.255a1.475 1.475 0 00.624.183c.089.004.162.006.219.006h.103v-1.193h-.097c-.203 0-.389-.049-.557-.146a1.645 1.645 0 01-.484-.46 4.3 4.3 0 01-.45-.81c-.147-.33-.297-.73-.451-1.201l-1.144.353c.048.15.107.337.176.563.07.225.138.465.207.721.07.256.133.516.192.782s.102.514.13.746a2.272 2.272 0 01-.067.822 3.158 3.158 0 01-.331.785c-.148.251-.33.492-.545.721-.215.23-.45.447-.706.654a8.3 8.3 0 01-.815.582c-.289.18-.579.346-.87.496l.523 1.077zM286.312 205c.333 0 .655-.022.965-.067.31-.045.595-.122.855-.231.26-.11.49-.256.691-.439.2-.182.362-.411.484-.687.122-.28.183-.605.183-.974 0-.065-.002-.13-.007-.195-.028-.45-.133-.97-.316-1.558a7.904 7.904 0 00-.195-.563 12.306 12.306 0 00-.335-.786 1.499 1.499 0 01-.054-.124l-1.084.535.53 1.303a3.959 3.959 0 01.274 1.038c.008.107.012.187.012.24 0 .098-.006.189-.018.274-.02.13-.051.237-.092.323a.953.953 0 01-.34.398 1.674 1.674 0 01-.506.216c-.19.05-.398.079-.62.089-.224.01-.453.015-.689.015h-1.174V205h1.436zm-.304 2.977l.986-.987-.998-.998-.986.992.998.993zm2.495.012l.987-.992-.999-.993-.986.986.998.999zm-12.082-7.986l.986-.986-.998-.999-.986.992.998.993zm2.496.012l.986-.992-.999-.993-.986.987.999.998zm-1.766 5.003c2.31 0 4-.56 5.07-1.68.09.248.216.469.378.664.507.653 1.289.986 2.344.998h.17v-1.193h-.152c-.662-.004-1.134-.187-1.418-.548a1.217 1.217 0 01-.256-.511 3.023 3.023 0 01-.08-.548v-.049a5.071 5.071 0 01.137-.886c.027-.107.05-.197.07-.27l-1.156-.317c-.052.183-.112.37-.18.56-.066.191-.147.38-.243.566a3.52 3.52 0 01-.344.542 2.696 2.696 0 01-.48.481c-.419.34-.942.59-1.571.746-.629.156-1.392.234-2.289.234-1.002-.004-1.817-.11-2.444-.317-.627-.207-1.062-.519-1.305-.937a1.477 1.477 0 01-.195-.502 2.648 2.648 0 01-.043-.448c0-.052.002-.103.006-.152.009-.182.034-.357.077-.523.042-.167.086-.313.13-.438.045-.126.086-.228.122-.305a1.41 1.41 0 00.055-.122l-1.053-.578c-.02.029-.078.155-.174.38-.095.226-.193.531-.295.917-.049.182-.079.35-.091.502a4.048 4.048 0 00-.006.69c.016.212.056.423.118.634.063.21.154.416.271.615.366.616.953 1.068 1.763 1.354.81.286 1.83.433 3.064.441zm-14.274 0c.142 0 .299-.006.47-.018a4.765 4.765 0 00.991-.18c.154-.046.288-.104.402-.173.426-.227.744-.512.953-.855.209-.343.313-.715.313-1.117 0-.536-.187-1.063-.56-1.583a2.562 2.562 0 00-.53-.511 6.994 6.994 0 00-.788-.505 16.58 16.58 0 00-.974-.5 43.878 43.878 0 00-1.092-.499l-2.119-.87-.578 1.096.481.188a2.183 2.183 0 00-.627.448 2.77 2.77 0 00-.435.584 2.72 2.72 0 00-.338 1.293c0 .297.076.604.228.923.153.318.38.642.685.97a9.349 9.349 0 01-.773.074c-.15.008-.317.014-.502.018-.185.004-.399.006-.642.006h-.165V205h.165c.288 0 .586-.006.895-.018.308-.012.61-.032.906-.058.297-.026.58-.062.85-.107.27-.044.512-.099.727-.164.345.138.685.233 1.02.286.334.053.68.08 1.037.08zm-2.118-1.668a4.14 4.14 0 01-.438-.331 2.566 2.566 0 01-.362-.384 1.819 1.819 0 01-.247-.435 1.314 1.314 0 01-.091-.487c0-.183.038-.373.116-.572.077-.199.183-.378.32-.536.135-.158.28-.274.434-.347.155-.073.3-.11.439-.11.073 0 .148.009.225.025a.903.903 0 01.423.198c.107.095.19.205.25.329.058.123.097.253.115.39.018.135.027.264.027.386a2.093 2.093 0 01-.673 1.522c-.151.141-.33.26-.538.352zm2.003.5a3.13 3.13 0 01-.56-.043c.154-.162.294-.34.42-.536.126-.194.232-.392.32-.593.087-.201.155-.4.203-.6.049-.199.073-.383.073-.554 0-.121-.002-.251-.006-.39a1.766 1.766 0 00-.073-.437c.288.133.54.282.755.444.215.162.395.328.539.496.144.168.252.336.325.502.073.167.11.32.11.463 0 .166-.038.325-.113.478a1.043 1.043 0 01-.365.398 2.063 2.063 0 01-.654.271 4.07 4.07 0 01-.974.1zM250.229 205c.625 0 1.168-.164 1.631-.493.235-.162.406-.327.511-.493.76.532 1.544.848 2.356.95.069.008.136.012.2.012.419 0 .774-.193 1.066-.579.154.203.348.354.581.454.234.1.5.149.8.149h.147v-1.193h-.146a.81.81 0 01-.627-.28.938.938 0 01-.17-.298 1.174 1.174 0 01-.068-.36 5.122 5.122 0 00-.07-.663 3.567 3.567 0 00-.468-1.257 2.222 2.222 0 00-.411-.496 1.821 1.821 0 00-.539-.335 1.78 1.78 0 00-.672-.121c-.358 0-.663.094-.917.283a2.405 2.405 0 00-.642.733l-.045.076c-.019.03-.048.085-.089.164l-.17.341a58.08 58.08 0 01-.298.594 5.844 5.844 0 01-.445.736c-.438.585-.941.879-1.51.883h-.127V205h.122zm4.559-1.211a1.23 1.23 0 01-.201-.019 3.03 3.03 0 01-.673-.237 6.245 6.245 0 01-.83-.487l.033-.067.08-.161.166-.341c.074-.148.17-.348.293-.6.247-.454.478-.681.694-.681.182 0 .34.05.474.152.134.101.245.232.332.392.087.16.154.34.201.54.047.198.074.395.082.59v.097c0 .11-.01.209-.03.298a.874.874 0 01-.128.292c-.106.155-.27.232-.493.232zM244.92 205c.17-.008.339-.024.505-.049.166-.024.329-.06.487-.11a2.355 2.355 0 00.883-.493c.215-.198.39-.425.523-.681.183.235.395.454.636.657.242.203.508.357.8.463.212.069.428.122.649.158.221.037.478.055.77.055h.176v-1.193h-.383a2.083 2.083 0 01-.624-.1 2.045 2.045 0 01-.52-.26 2.233 2.233 0 01-.436-.398 4.106 4.106 0 01-.374-.526c-.154-.26-.298-.518-.432-.773-.134-.256-.269-.51-.405-.761a23.621 23.621 0 00-.426-.755 8.539 8.539 0 00-1.135-1.507 8.372 8.372 0 00-.81-.745l4.827-2.027-.469-1.108-5.38 2.32-.159 1.344a10.538 10.538 0 011.239 1.142c.213.229.417.47.612.724s.365.51.511.77c.146.26.255.503.326.73a2.1 2.1 0 01.106.621c0 .049-.002.098-.006.146a.956.956 0 01-.149.43 1.624 1.624 0 01-.773.636 1.326 1.326 0 01-.49.097h-2.124V205h2.045zm-1.802 0v-1.193h-.122c-.255 0-.475-.026-.66-.08a.95.95 0 01-.417-.218.507.507 0 01-.161-.314 3.288 3.288 0 01-.022-.386v-3.056a42.483 42.483 0 00-.124-3.208 9.022 9.022 0 00-.095-.76l-1.193.218c.037.191.068.436.095.734.026.298.048.624.067.977.018.353.031.718.04 1.096.007.377.011.74.011 1.09a89.654 89.654 0 010 1.88 184.984 184.984 0 00-.011.837v.174c0 .073.002.155.005.246a2.35 2.35 0 00.216.886c.071.154.174.298.308.432.219.219.486.381.8.487.315.105.695.158 1.141.158h.122zm-8.674 4.358c.341-.166.677-.354 1.008-.563.33-.209.645-.437.943-.685.298-.247.574-.51.828-.79s.473-.575.657-.883c.185-.309.329-.628.432-.96.104-.33.156-.672.156-1.025 0-.178-.015-.361-.043-.548a8.704 8.704 0 00-.106-.569c-.043-.193-.09-.387-.14-.584l-.15-.588a9.053 9.053 0 00-.152-.556 65.409 65.409 0 01-.17-.564l-1.157.366c.11.34.213.681.31 1.022l.14.512c.05.174.094.349.135.523.04.175.074.345.1.511.026.167.04.325.04.475 0 .394-.096.775-.286 1.145a4.51 4.51 0 01-.758 1.046 6.964 6.964 0 01-1.075.91 9.912 9.912 0 01-1.241.734l.53 1.071zm-.682-4.303a28.5 28.5 0 00.1-1.905c.011-.597.016-1.074.016-1.43 0-.593-.006-1.226-.018-1.9a55.636 55.636 0 00-.31-4.431l-1.194.182c.138 1.279.248 2.902.33 4.87.011.337.017.694.017 1.071 0 .313-.004.64-.012.98-.02.755-.063 1.587-.128 2.496l1.2.067zm-7.255-2.995l.992-.992-.998-.998-.992.992.998.998zm-.268 7.122c.5 0 .973-.053 1.421-.159a4.386 4.386 0 001.227-.483c.37-.218.693-.492.97-.825.279-.333.495-.729.649-1.187.146-.438.225-.788.237-1.05.013-.262.019-.437.019-.527a6.278 6.278 0 00-.344-2.066 9.757 9.757 0 00-.347-.889 6.902 6.902 0 00-.46-.867l-1.01.645a.39.39 0 01.043.065l.07.114c.07.12.153.285.246.494.093.209.188.454.283.736a5.788 5.788 0 01.301 1.854v.073a3.791 3.791 0 01-.176 1.053c-.09.284-.223.538-.402.764-.179.225-.4.415-.664.572-.263.156-.57.275-.919.356a5.17 5.17 0 01-1.168.122c-.345 0-.653-.038-.923-.113a2.885 2.885 0 01-.706-.292c-.2-.12-.372-.255-.514-.405a2.65 2.65 0 01-.353-.46 2.218 2.218 0 01-.21-.45 2.4 2.4 0 01-.094-.38 3.57 3.57 0 01-.03-.719c.011-.243.039-.483.081-.718.043-.235.097-.462.162-.679.065-.217.133-.417.204-.6.07-.182.14-.341.21-.477.069-.136.13-.24.182-.314l-.968-.712a8.651 8.651 0 00-.477.922c-.153.34-.28.697-.384 1.075a5.673 5.673 0 00-.192.983 5.374 5.374 0 00.018 1.41c.082.53.239.993.472 1.387.234.393.527.72.88.977s.756.45 1.208.578c.453.128.939.192 1.458.192z" mask="url(#e)"/><path fill="#000000" fill-opacity=".56" d="M333 240.667c4.595 0 8.333 3.738 8.333 8.333 0 4.595-3.738 8.333-8.333 8.333-4.595 0-8.333-3.738-8.333-8.333 0-4.595 3.738-8.333 8.333-8.333zm0 1.666a6.667 6.667 0 100 13.334 6.667 6.667 0 000-13.334zm0 2.298c.461 0 .834.373.834.833v2.703h2.701a.833.833 0 110 1.666h-2.702v2.703a.833.833 0 11-1.666 0v-2.703h-2.702a.833.833 0 110-1.666h2.702v-2.703c0-.46.372-.833.833-.833z" mask="url(#e)"/><path fill="#000000" fill-opacity=".56" fill-rule="nonzero" d="M312.425 244.344l.901-.9-.907-.907-.9.9.906.907zm-1.375 1.924l.986-.992-.999-.999-.986.993.999.998zm2.672.006l.986-.986-.998-.998-.987.986.999.998zM311.183 253c.333 0 .655-.022.965-.067.31-.045.596-.122.855-.231.26-.11.49-.256.691-.439.201-.182.363-.411.484-.687.122-.28.183-.605.183-.974 0-.065-.002-.13-.006-.195-.029-.45-.134-.97-.317-1.558a7.904 7.904 0 00-.195-.563 12.302 12.302 0 00-.334-.786 1.499 1.499 0 01-.055-.124l-1.084.535.53 1.303a3.959 3.959 0 01.274 1.038c.008.107.012.187.012.24 0 .098-.006.189-.018.274-.02.13-.05.237-.091.323a.953.953 0 01-.341.398 1.674 1.674 0 01-.506.216c-.19.05-.397.079-.62.089-.224.01-.453.015-.688.015h-1.175V253h1.436zm-5.502 0c.596 0 1.098-.062 1.503-.186.406-.123.737-.313.993-.569.174.223.397.405.67.545.271.14.612.21 1.022.21h.121v-1.193h-.121a.86.86 0 01-.509-.14.999.999 0 01-.31-.353 1.667 1.667 0 01-.161-.463 4.299 4.299 0 01-.067-.474 18.669 18.669 0 00-.11-1.054 5.718 5.718 0 00-.176-.827l-1.145.322c.09.309.151.583.186.822.034.24.052.475.052.706 0 .483-.155.847-.463 1.093-.308.245-.803.368-1.485.368h-.225V253h.225zm1.942 3.171l.992-.992-.998-.998-.993.992.999.998zM297 248.003l.986-.986-.998-.999-.986.992.998.993zm2.496.012l.986-.992-.999-.993-.986.987.999.998zm-1.766 5.003c2.31 0 4-.56 5.07-1.68.09.248.216.469.378.664.507.653 1.289.986 2.344.998h.17v-1.193h-.152c-.662-.004-1.134-.187-1.418-.548a1.217 1.217 0 01-.256-.511 3.023 3.023 0 01-.08-.548v-.049a5.071 5.071 0 01.137-.886c.027-.107.05-.197.07-.27l-1.156-.317c-.052.183-.112.37-.18.56-.066.191-.147.38-.243.566a3.52 3.52 0 01-.344.542 2.696 2.696 0 01-.48.481c-.419.34-.942.59-1.571.746-.629.156-1.392.234-2.289.234-1.002-.004-1.817-.11-2.444-.317-.627-.207-1.062-.519-1.305-.937a1.477 1.477 0 01-.195-.502 2.648 2.648 0 01-.043-.448c0-.052.002-.103.006-.152.009-.182.034-.357.077-.523.042-.167.086-.313.13-.438.045-.126.086-.228.122-.305a1.41 1.41 0 00.055-.122l-1.053-.578c-.02.029-.078.155-.174.38-.095.226-.193.531-.295.917-.049.182-.079.35-.091.502a4.048 4.048 0 00-.006.69c.016.212.056.423.118.634.063.21.154.416.271.615.366.616.953 1.068 1.763 1.354.81.286 1.83.433 3.064.441zm-14.17-9.136c.016-.049.041-.115.076-.198.034-.083.077-.166.128-.25.05-.083.108-.156.173-.219a.353.353 0 01.207-.106.784.784 0 01.365.024c.118.037.243.08.375.13.132.052.273.1.423.147.15.047.316.07.499.07h.036a1.3 1.3 0 00.402-.06c.138-.046.265-.102.38-.171a2.04 2.04 0 00.314-.229c.093-.083.174-.162.24-.237a2.086 2.086 0 00.217-.283l-.694-.45a3.633 3.633 0 01-.119.146c-.055.065-.122.13-.2.197-.08.067-.164.123-.253.168a.594.594 0 01-.268.067h-.025a1.359 1.359 0 01-.35-.055 3.69 3.69 0 01-.325-.116 4.624 4.624 0 00-.402-.146 1.624 1.624 0 00-.487-.067c-.174 0-.345.038-.511.113a1.693 1.693 0 00-.457.304 1.831 1.831 0 00-.548.971l.804.25zM285.8 253c.057-.402.09-.855.1-1.36.01-.506.016-.92.016-1.245 0-.54-.007-1.147-.019-1.82a55.828 55.828 0 00-.079-2.07 81.379 81.379 0 00-.164-2.313l-1.193.183c.057.548.107 1.221.152 2.02.045.8.081 1.733.11 2.8a27.95 27.95 0 01-.007 1.857c-.02.621-.058 1.248-.115 1.881l1.199.067zm-8.443-8.686l4.894-2.07-.286-.614-4.565 1.905-.043.779zM278.68 253c.211 0 .388-.014.53-.043.86-.158 1.47-.558 1.832-1.199.085-.154.16-.324.222-.511.063-.187.101-.354.116-.502.014-.148.021-.265.021-.35 0-.146-.012-.3-.037-.463a3.644 3.644 0 00-.219-.791 5.116 5.116 0 00-.462-.886 7.535 7.535 0 00-.761-.977 9.49 9.49 0 00-.7-.7 39.169 39.169 0 00-.651-.572l4.358-1.832-.469-1.108-5.003 2.143-.14 1.248a15.432 15.432 0 011.85 1.768c.26.294.478.57.654.828.177.257.288.47.332.636.057.219.085.424.085.614a1.495 1.495 0 01-.243.828c-.114.17-.27.302-.469.393a2.705 2.705 0 01-.657.2c-.24.043-.491.068-.755.074-.264.006-.517.009-.76.009h-.762V253h2.088zm-4.005 4.005l.76-.925a1.506 1.506 0 01-.389-.584 1.813 1.813 0 01-.103-.585 1.935 1.935 0 01.173-.77c.096-.213.22-.402.375-.569a1.92 1.92 0 01.532-.405c.201-.103.415-.159.642-.167h.17v-1.193h-.121c-.235 0-.47.035-.703.106a3.138 3.138 0 00-1.738 1.33 2.39 2.39 0 00-.359 1.425 1.43 1.43 0 01-.374-.338 4.072 4.072 0 01-.332-.478 5.661 5.661 0 01-.27-.511 11.49 11.49 0 01-.193-.432c.272-.045.532-.117.78-.216.247-.1.476-.226.687-.378a2.902 2.902 0 00.98-1.238c.073-.175.117-.35.131-.527.014-.177.021-.32.021-.43 0-.15-.008-.306-.024-.468a4.609 4.609 0 00-.173-.812 2.974 2.974 0 00-.326-.722 1.702 1.702 0 00-.466-.499 1.012 1.012 0 00-.587-.182h-.06c-.277.012-.53.095-.762.25a2.56 2.56 0 00-.624.599 4.15 4.15 0 00-.48.834c-.137.31-.25.624-.338.943-.09.319-.152.613-.186.883-.035.27-.052.5-.052.69 0 .061.002.118.006.171h-.98V253h1.206l.054.152a6.811 6.811 0 001.084 2.04c.255.332.552.653.888.961.337.308.72.593 1.15.852zm-2.015-5.259c-.06 0-.124-.004-.189-.012a2.17 2.17 0 01-.018-.292c0-.09.004-.183.012-.28.02-.211.058-.426.113-.645.055-.22.123-.435.204-.646.081-.21.172-.4.274-.569.101-.168.208-.306.32-.414a.585.585 0 01.337-.18c.183.135.316.307.399.518.083.211.124.434.122.67a2.064 2.064 0 01-.131.7 2.05 2.05 0 01-.356.617c-.153.181-.323.315-.512.402-.188.087-.38.131-.575.131zm-7.633 5.223c.268 0 .568-.019.901-.055a7.469 7.469 0 001.007-.183c.34-.085.669-.195.99-.331.32-.136.606-.304.858-.503.251-.198.454-.432.608-.7a1.854 1.854 0 00.213-1.199 1.28 1.28 0 00-.097-.316 1.74 1.74 0 00-.204-.338c-.087-.116-.2-.23-.338-.344h1.57v-1.193h-4.802l-.091 1.187.134.024a8.487 8.487 0 01.584.134c.122.033.253.07.393.11.14.04.28.085.423.134.231.085.426.17.584.255.158.086.287.166.387.24.1.076.171.147.216.214a.33.33 0 01.067.173.756.756 0 01-.204.524c-.136.15-.31.28-.52.39-.212.109-.448.201-.71.276a7.626 7.626 0 01-1.47.274 6.32 6.32 0 01-.499.028c-.203 0-.435-.004-.697-.013a4.438 4.438 0 01-.791-.097 3.022 3.022 0 01-.767-.277 1.705 1.705 0 01-.618-.55c-.256-.39-.383-.898-.383-1.523 0-.986.318-2.262.955-3.828l-1.114-.45c-.637 1.541-.982 2.864-1.034 3.968-.005.101-.007.2-.007.298 0 .889.197 1.621.59 2.198.188.316.428.57.722.764.294.192.615.341.962.447.347.105.709.175 1.086.21.378.034.743.052 1.096.052zm-12.831-3.975c.243 0 .488-.018.733-.055.246-.036.482-.095.71-.176a3.04 3.04 0 00.635-.314c.197-.128.369-.28.515-.46a1.474 1.474 0 00.317-.645c.032-.142.05-.304.051-.487a2.812 2.812 0 00-.07-.614 4.424 4.424 0 00-.277-.795 6.44 6.44 0 00-.444-.815 8.06 8.06 0 00-1.233-1.495 6.963 6.963 0 00-.709-.59 4.27 4.27 0 00-.721-.426l-.493 1.108c.182.08.369.19.56.328.19.138.378.296.563.475.184.179.362.37.532.575.17.205.326.416.466.633.14.217.26.435.36.652.099.217.17.425.215.624.033.146.049.271.049.377 0 .146-.03.256-.091.329-.138.166-.309.29-.512.37a1.959 1.959 0 01-.548.144 3.497 3.497 0 01-.84-.01 5.173 5.173 0 01-1.418-.386 3.7 3.7 0 01-.542-.283l-.499 1.145c.102.093.262.186.481.28a7.376 7.376 0 001.519.441c.266.047.496.07.69.07zm-8.072 4.364c.341-.166.677-.354 1.008-.563.33-.209.645-.437.943-.685.299-.247.575-.51.828-.79.254-.28.473-.575.658-.883.184-.309.328-.628.432-.96.103-.33.155-.672.155-1.025 0-.178-.014-.361-.043-.548a8.704 8.704 0 00-.106-.569c-.043-.193-.09-.387-.14-.584l-.15-.588a9.053 9.053 0 00-.151-.556 65.409 65.409 0 01-.17-.564l-1.157.366c.11.34.213.681.31 1.022.045.167.091.337.14.512.049.174.093.349.134.523.04.175.074.345.1.511.027.167.04.325.04.475 0 .394-.095.775-.286 1.145a4.51 4.51 0 01-.758 1.046 6.964 6.964 0 01-1.074.91 9.912 9.912 0 01-1.242.734l.53 1.071zm-6.513-10.999l.993-.992-.999-.998-.992.992.998.998zm-.973 6.641c.332 0 .642-.022.928-.067a2.82 2.82 0 00.776-.231c.231-.11.435-.256.612-.439.176-.182.325-.411.447-.687.122-.28.183-.605.183-.974 0-.065-.002-.13-.006-.195-.029-.45-.134-.97-.317-1.558a7.904 7.904 0 00-.195-.563 12.302 12.302 0 00-.335-.786 1.499 1.499 0 01-.054-.124l-1.084.535.53 1.303a3.959 3.959 0 01.274 1.038c.008.107.012.187.012.24 0 .098-.006.189-.018.274-.02.13-.051.237-.092.323a1.09 1.09 0 01-.304.398 1.28 1.28 0 01-.426.216 2.29 2.29 0 01-.542.089c-.199.01-.416.015-.651.015h-.706V253h.968zm-8.017 0c.625 0 1.169-.164 1.631-.493.236-.162.406-.327.512-.493.758.532 1.544.848 2.355.95.07.008.136.012.201.012.418 0 .773-.193 1.065-.579.155.203.348.354.582.454.233.1.5.149.8.149h.146v-1.193h-.146a.81.81 0 01-.627-.28.938.938 0 01-.17-.298 1.174 1.174 0 01-.067-.36 5.122 5.122 0 00-.07-.663 3.566 3.566 0 00-.469-1.257 2.221 2.221 0 00-.41-.496 1.821 1.821 0 00-.54-.335 1.78 1.78 0 00-.672-.121c-.357 0-.663.094-.916.283a2.405 2.405 0 00-.642.733l-.046.076c-.018.03-.048.085-.088.164-.04.08-.098.193-.17.341a58.08 58.08 0 01-.299.594 5.844 5.844 0 01-.444.736c-.439.585-.942.879-1.51.883h-.128V253h.122zm4.56-1.211a1.23 1.23 0 01-.202-.019 3.03 3.03 0 01-.672-.237 6.245 6.245 0 01-.831-.487c.008-.016.02-.038.033-.067l.08-.161c.038-.08.094-.193.167-.341l.292-.6c.247-.454.479-.681.694-.681.182 0 .34.05.475.152.134.101.244.232.331.392.088.16.155.34.201.54.047.198.074.395.082.59v.097c0 .11-.01.209-.03.298a.874.874 0 01-.128.292c-.105.155-.27.232-.493.232zM228.741 253v-1.193h-.122c-.256 0-.476-.026-.66-.08a.95.95 0 01-.417-.218.507.507 0 01-.162-.314 3.288 3.288 0 01-.021-.386v-3.056a42.483 42.483 0 00-.125-3.208 9.023 9.023 0 00-.094-.76l-1.193.218c.036.191.068.436.094.734.027.298.049.624.067.977.018.353.032.718.04 1.096.008.377.012.74.012 1.09.004.356.006.695.006 1.016v.236c-.001.23-.003.44-.006.628a184.984 184.984 0 00-.012.907c0 .097.002.214.006.35a2.35 2.35 0 00.216.886c.07.154.173.298.307.432.22.219.486.381.8.487.315.105.696.158 1.142.158h.122zm-7.737 0c.333 0 .655-.022.965-.067.31-.045.596-.122.855-.231.26-.11.49-.256.691-.439.201-.182.362-.411.484-.687.122-.28.183-.605.183-.974 0-.065-.002-.13-.006-.195-.029-.45-.134-.97-.317-1.558a7.904 7.904 0 00-.195-.563 12.302 12.302 0 00-.335-.786 1.499 1.499 0 01-.054-.124l-1.084.535.53 1.303a3.959 3.959 0 01.274 1.038c.008.107.012.187.012.24 0 .098-.006.189-.018.274-.02.13-.051.237-.092.323a.953.953 0 01-.34.398 1.674 1.674 0 01-.506.216c-.19.05-.398.079-.62.089-.224.01-.453.015-.689.015h-1.174V253h1.436zm-.304 2.977l.986-.987-.998-.998-.986.992.998.993zm2.496.012l.986-.992-.999-.993-.986.986.999.999zm-8.687-10.519l.901-.9-.907-.907-.9.9.906.907zm-1.375 1.924l.986-.992-.998-.999-.986.993.998.998zm2.672.006l.986-.986-.998-.998-.986.986.998.998zm-3.67 5.618c.198 0 .388-.03.569-.088.18-.059.35-.142.511-.25.16-.107.308-.233.444-.377s.259-.301.369-.472c.15.361.377.647.681.856.305.209.66.313 1.066.313.206 0 .401-.03.584-.091a1.96 1.96 0 00.925-.652c.122-.154.223-.326.304-.517.106.195.234.37.384.523.15.155.315.287.496.396.18.11.372.194.575.253.203.059.41.088.621.088h.146v-1.193h-.146c-.292 0-.557-.123-.794-.368-.238-.246-.438-.618-.6-1.117a4.796 4.796 0 01-.143-.518 8.162 8.162 0 01-.14-.885l-.04-.405-1.192.097c.008.146.015.299.02.457a10.833 10.833 0 01.004.755c-.008.235-.029.47-.061.703a2.725 2.725 0 01-.161.633 1.22 1.22 0 01-.302.456.683.683 0 01-.48.174c-.203 0-.364-.055-.481-.165a.962.962 0 01-.259-.426 1.87 1.87 0 01-.091-.475 4.65 4.65 0 01.015-.785c.016-.223.04-.436.073-.639.032-.203.059-.375.079-.517l-1.187-.225c-.02.186-.05.396-.088.63a7.183 7.183 0 01-.387 1.415c-.089.231-.197.436-.322.615a1.66 1.66 0 01-.436.432.981.981 0 01-.556.164.45.45 0 01-.38-.17.838.838 0 01-.165-.393 2.806 2.806 0 01-.028-.648c.013-.22.036-.435.07-.649a12.743 12.743 0 01.204-1.02l-1.168-.322c-.025.098-.051.213-.08.347a6.176 6.176 0 01-.112.442 8.73 8.73 0 01-.168.51c-.064.181-.144.365-.237.552a4.12 4.12 0 01-.31.49c-.118.16-.247.304-.387.432s-.29.23-.45.307c-.16.077-.326.116-.496.116h-.128V253h.128a2.256 2.256 0 001.199-.332 2.36 2.36 0 00.468-.374c.142-.146.276-.308.402-.487a1.665 1.665 0 001.638 1.211zm-10.087-8.704l4.894-2.07-.286-.614-4.565 1.905-.043.779zm1.066 8.686c.17-.008.338-.024.505-.049.166-.024.329-.06.487-.11a2.355 2.355 0 00.883-.493c.215-.198.389-.425.523-.681.183.235.395.454.636.657s.508.357.8.463c.211.069.428.122.649.158.22.037.478.055.77.055h.176v-1.193h-.383a2.083 2.083 0 01-.624-.1 2.045 2.045 0 01-.52-.26 2.233 2.233 0 01-.436-.398 4.106 4.106 0 01-.374-.526c-.154-.26-.298-.518-.432-.773-.134-.256-.27-.51-.405-.761a23.621 23.621 0 00-.426-.755 8.54 8.54 0 00-1.135-1.507 8.372 8.372 0 00-.81-.745l4.827-2.027-.469-1.108-5.38 2.32-.159 1.344a10.537 10.537 0 011.239 1.142c.213.229.417.47.612.724.194.254.365.51.51.77.147.26.256.503.327.73a2.1 2.1 0 01.106.621c0 .049-.002.098-.006.146a.956.956 0 01-.15.43c-.086.14-.196.264-.328.374-.132.11-.28.197-.444.262a1.326 1.326 0 01-.49.097h-2.125V253h2.046zm-1.802 0v-1.193h-.122c-.255 0-.476-.026-.66-.08a.95.95 0 01-.417-.218.507.507 0 01-.162-.314 3.288 3.288 0 01-.02-.386v-3.056a42.487 42.487 0 00-.126-3.208 9.022 9.022 0 00-.094-.76l-1.193.218c.037.191.068.436.094.734.027.298.049.624.067.977.019.353.032.718.04 1.096.008.377.012.74.012 1.09a89.654 89.654 0 010 1.88 185.216 185.216 0 00-.012.907c0 .097.002.214.006.35a2.35 2.35 0 00.216.886c.071.154.174.298.307.432.22.219.486.381.8.487.315.105.696.158 1.142.158h.122zm-6.994 0c.073 0 .163-.003.27-.01.108-.005.223-.02.345-.042.122-.022.25-.052.383-.091.134-.039.266-.09.396-.155.357-.175.628-.416.813-.725.184-.308.276-.671.276-1.09 0-.417-.121-.872-.365-1.363-.243-.49-.615-1.02-1.114-1.588a12.198 12.198 0 00-.511-.539 18.557 18.557 0 00-.447-.43 11.029 11.029 0 00-.32-.285 1.231 1.231 0 01-.128-.116l-.767.931a.92.92 0 00.11.098c.073.06.17.146.292.255a8.658 8.658 0 00-.712.743c-.662.795-.992 1.56-.992 2.295 0 .418.1.78.298 1.086.199.307.493.551.883.734.15.073.298.13.444.17.146.04.279.07.399.089a2.466 2.466 0 00.447.033zm.045-1.212h-.078c-.025 0-.057-.003-.095-.005a2.482 2.482 0 01-.414-.076 1.455 1.455 0 01-.237-.089.936.936 0 01-.262-.164.759.759 0 01-.149-.186.585.585 0 01-.067-.191 1.222 1.222 0 01-.015-.19c0-.206.048-.415.143-.626.095-.211.212-.414.35-.609.138-.195.285-.373.441-.535.156-.163.293-.297.411-.402.394.426.694.828.9 1.205.208.377.311.7.311.968a.885.885 0 01-.1.447.803.803 0 01-.326.295 1.236 1.236 0 01-.243.086c-.085.02-.167.036-.244.048-.077.013-.148.02-.213.022a5.281 5.281 0 01-.158.003h.045z" mask="url(#e)"/><path fill="#000000" fill-opacity=".56" d="M330.087 304.488a.833.833 0 110 1.667h-6.254a.833.833 0 110-1.667zm1.179-15.96a.834.834 0 011.178 0l5.304 5.303a.832.832 0 11-1.179 1.179l-.208-.209-1.516 1.516 5.588 5.232c.864.914.843 2.269-.01 3.12a2.206 2.206 0 01-3.08.048l-5.262-5.637-1.613 1.614.209.208a.834.834 0 01-1.179 1.178l-.797-.797-3.713-3.713-.794-.793a.834.834 0 011.18-1.178l.204.204 5.892-5.892-.204-.206a.832.832 0 010-1.178zm2.4 8.968l-.406.405 5.263 5.64c.176.164.511.16.722-.05l.063-.075a.545.545 0 00-.051-.688l-5.591-5.232zm-1.018-6.407l-5.892 5.892 2.534 2.534 2.222-2.221v-.001l1.546-1.546 2.125-2.124-2.535-2.534z" mask="url(#e)"/><path fill="#000000" fill-opacity=".56" fill-rule="nonzero" d="M307.909 301c.247 0 .48-.012.7-.037a2.77 2.77 0 00.62-.14 2.05 2.05 0 00.551-.298 2.48 2.48 0 00.497-.517c.186.138.39.273.608.405.22.131.448.243.685.334a2.63 2.63 0 00.983.198c.166 0 .333-.022.5-.067.263-.073.486-.204.669-.392.182-.189.326-.41.432-.664.105-.253.17-.486.195-.697.024-.21.036-.381.036-.511 0-.146-.01-.288-.03-.426a3.683 3.683 0 00-.216-.804 2.506 2.506 0 00-.417-.706 2.058 2.058 0 00-.63-.502 1.812 1.812 0 00-.85-.192c-.267 0-.502.054-.702.162-.201.107-.38.247-.536.42a3.21 3.21 0 00-.42.59c-.124.221-.24.445-.35.673-.126.251-.25.496-.374.733-.124.238-.27.449-.439.633a1.908 1.908 0 01-.611.445c-.24.111-.54.167-.901.167h-.122V301h.122zm4.626-1.266c-.163 0-.345-.04-.548-.122a4.697 4.697 0 01-1.01-.59l.328-.664c.102-.199.192-.371.271-.517.08-.146.154-.268.225-.365a.862.862 0 01.213-.216.408.408 0 01.229-.07c.121 0 .229.024.322.073.094.048.175.11.244.185s.128.159.176.25a1.98 1.98 0 01.189.496c.016.069.026.118.03.146.017.11.025.215.025.317a1.822 1.822 0 01-.113.615 1.035 1.035 0 01-.167.298.389.389 0 01-.201.14.878.878 0 01-.213.024zm-7.189-4.194l.992-.992-.998-.998-.992.992.998.998zm-2.623 9.952a11.123 11.123 0 001.49-.9 7.948 7.948 0 001.288-1.142c.376-.416.677-.865.904-1.348.227-.483.341-.99.341-1.522v-.024c.102.11.208.194.32.255a1.475 1.475 0 00.624.183c.089.004.162.006.219.006h.103v-1.193h-.097c-.203 0-.389-.049-.557-.146a1.645 1.645 0 01-.484-.46 4.3 4.3 0 01-.45-.81c-.147-.33-.297-.73-.451-1.201l-1.144.353c.048.15.107.337.176.563.07.225.138.465.207.721.07.256.133.516.192.782s.102.514.13.746a2.272 2.272 0 01-.067.822 3.158 3.158 0 01-.33.785c-.149.251-.33.492-.546.721-.215.23-.45.447-.706.654a8.3 8.3 0 01-.815.582c-.289.18-.579.346-.87.496l.523 1.077zm-.719-4.437a28.5 28.5 0 00.1-1.905c.01-.597.016-1.074.016-1.43 0-.593-.006-1.226-.018-1.9a55.636 55.636 0 00-.31-4.431l-1.194.182c.138 1.279.248 2.902.329 4.87.012.337.018.694.018 1.071 0 .313-.004.64-.012.98-.02.755-.063 1.587-.128 2.496l1.2.067zm-6.141-.055c.332 0 .654-.022.964-.067.31-.045.596-.122.856-.231.26-.11.49-.256.69-.439.201-.182.363-.411.484-.687.122-.28.183-.605.183-.974 0-.065-.002-.13-.006-.195-.028-.45-.134-.97-.317-1.558a7.904 7.904 0 00-.194-.563 12.306 12.306 0 00-.335-.786 1.499 1.499 0 01-.055-.124l-1.083.535.53 1.303a3.959 3.959 0 01.273 1.038c.008.107.012.187.012.24 0 .098-.006.189-.018.274-.02.13-.05.237-.091.323a.953.953 0 01-.341.398 1.674 1.674 0 01-.505.216c-.191.05-.398.079-.621.089-.223.01-.453.015-.688.015h-1.175V301h1.437zm-.305 2.977l.986-.987-.998-.998-.986.992.998.993zm2.496.012l.986-.992-.998-.993-.986.986.998.999zM294.67 301v-1.193h-.122c-.244 0-.445-.031-.603-.094a1.088 1.088 0 01-.395-.262 1.536 1.536 0 01-.271-.408c-.075-.16-.153-.338-.235-.533-.158-.369-.307-.723-.447-1.062a3423.239 3423.239 0 01-1.415-3.436l-1.108.463 1.923 4.626a2.31 2.31 0 01-.81.511c-.218.085-.404.135-.556.15a4.04 4.04 0 01-.344.02c-.162 0-.325-.018-.487-.054a2.792 2.792 0 01-.737-.28 3.6 3.6 0 01-.736-.542l-.688.968c.345.357.721.634 1.13.83a3.02 3.02 0 001.33.296c.287 0 .547-.017.778-.052.232-.034.446-.085.643-.152.196-.067.381-.151.553-.253a4.65 4.65 0 00.515-.353 2.1 2.1 0 00.304.314c.118.1.255.186.411.259.156.073.337.13.542.173.205.043.44.064.703.064h.122zm-10.878 0c.073 0 .164-.003.271-.01.108-.005.222-.02.344-.042.122-.022.25-.052.383-.091.134-.039.266-.09.396-.155.357-.175.628-.416.813-.725.184-.308.277-.671.277-1.09 0-.417-.122-.872-.366-1.363-.243-.49-.614-1.02-1.113-1.588a12.198 12.198 0 00-.512-.539 18.557 18.557 0 00-.447-.43 11.029 11.029 0 00-.32-.285 1.231 1.231 0 01-.128-.116l-.767.931a.92.92 0 00.11.098c.073.06.17.146.292.255a8.658 8.658 0 00-.712.743c-.661.795-.992 1.56-.992 2.295 0 .418.1.78.298 1.086.199.307.493.551.883.734.15.073.298.13.444.17.146.04.28.07.399.089a2.466 2.466 0 00.447.033zm.045-1.212h-.078c-.025 0-.057-.003-.095-.005a2.482 2.482 0 01-.414-.076 1.455 1.455 0 01-.237-.089.936.936 0 01-.262-.164.759.759 0 01-.149-.186.585.585 0 01-.067-.191 1.222 1.222 0 01-.015-.19c0-.206.048-.415.143-.626.095-.211.212-.414.35-.609.138-.195.285-.373.441-.535.157-.163.294-.297.411-.402.394.426.694.828.901 1.205.207.377.31.7.31.968a.885.885 0 01-.1.447.803.803 0 01-.326.295 1.236 1.236 0 01-.243.086c-.085.02-.166.036-.244.048-.077.013-.148.02-.213.022a5.281 5.281 0 01-.158.003h.045zm-1.585-6.08l1.382-.767 1.473-.864-.36-.475-.845.456a.523.523 0 01-.256.067h-.024a.782.782 0 01-.29-.067.965.965 0 01-.435-.39.472.472 0 01-.06-.194v-.091c0-.077.014-.155.042-.232a.723.723 0 01.143-.231.678.678 0 01.426-.216 1.6 1.6 0 01.423.01c.081.011.189.032.323.06l.17-.56-.231-.055a2.656 2.656 0 00-.231-.042 1.893 1.893 0 00-.268-.019c-.215 0-.414.039-.597.116a1.322 1.322 0 00-.752.807 1.233 1.233 0 00.027.819c.07.157.167.301.293.431.126.13.274.23.445.299l-1.09.608.292.53zm-11.492.59l.992-.992-.998-.998-.992.992.998.998zM268.143 301a9.77 9.77 0 001.82-.17c.6-.114 1.181-.261 1.744-.442.562-.18 1.1-.382 1.613-.605.513-.224.993-.447 1.44-.67.303-.15.596-.293.876-.43.28-.135.562-.262.846-.38l-.232-1.156c-.251 0-.5-.026-.748-.08a5.987 5.987 0 01-.743-.21 9.844 9.844 0 01-.74-.294c-.245-.11-.487-.222-.727-.335-.219-.102-.436-.201-.651-.298a8.863 8.863 0 00-.633-.26 4.933 4.933 0 00-.612-.179 2.73 2.73 0 00-.593-.067 2.34 2.34 0 00-1.123.286c-.356.191-.691.477-1.008.859a4.13 4.13 0 00-.289.383 9.873 9.873 0 00-.213.335 3.1 3.1 0 00-.186.347l1.096.493a3.225 3.225 0 01.225-.399c.073-.111.16-.231.262-.359.101-.128.216-.247.344-.359.128-.112.267-.204.417-.277.15-.073.308-.11.475-.11.125 0 .263.02.414.058.15.039.309.09.477.156.169.064.343.139.524.222l.557.258c.247.118.499.234.755.347.255.114.523.22.803.317-.463.231-.943.456-1.443.676-.499.219-1.01.413-1.533.584-.524.17-1.056.307-1.595.41a8.58 8.58 0 01-1.62.156h-1.32V301h1.32zm-6.793 4.273a7.459 7.459 0 001.72-.487 6.291 6.291 0 001.509-.889 5.424 5.424 0 001.156-1.269 4.598 4.598 0 00.66-1.628h.67v-1.193h-.578a5.794 5.794 0 00-.329-1.768 4.675 4.675 0 00-.353-.77 3.846 3.846 0 00-.462-.646c-.483-.519-1.013-.779-1.59-.779-.259 0-.51.066-.75.198a2.284 2.284 0 00-.673.581c-.17.22-.319.48-.445.783a3.435 3.435 0 00-.24.81 4.237 4.237 0 00-.052.587c0 .162.014.324.043.487.048.308.166.58.353.815.422.524 1.073.812 1.954.865.223.02.423.03.6.03h.69c-.045.304-.17.614-.374.928a3.805 3.805 0 01-.837.892 6.02 6.02 0 01-1.272.755 7.854 7.854 0 01-1.68.523l.28 1.175zm3.342-5.479h-.098c-.179 0-.37-.005-.572-.017a3.068 3.068 0 01-.259-.028c-.1-.014-.2-.036-.304-.067a1.43 1.43 0 01-.292-.122.716.716 0 01-.229-.197.57.57 0 01-.125-.29 2.13 2.13 0 01-.02-.27c0-.09.005-.181.017-.274a2.765 2.765 0 01.326-.999c.083-.142.178-.258.283-.35a.505.505 0 01.335-.137c.073 0 .142.013.207.037a.94.94 0 01.186.094c.058.039.113.082.164.128.05.047.096.09.137.131.101.118.2.257.295.417.095.16.182.34.259.539.077.199.14.414.188.645.05.231.08.477.092.736a7.117 7.117 0 01-.59.024zm-7.64 1.2c.244 0 .488-.018.734-.055.245-.036.482-.095.709-.176a3.04 3.04 0 00.636-.314c.197-.128.368-.28.514-.46a1.474 1.474 0 00.317-.645c.032-.142.05-.304.051-.487a2.812 2.812 0 00-.07-.614 4.424 4.424 0 00-.276-.795 6.44 6.44 0 00-.445-.815 8.06 8.06 0 00-1.232-1.495 6.963 6.963 0 00-.71-.59 4.27 4.27 0 00-.72-.426l-.494 1.108c.183.08.37.19.56.328.19.138.378.296.563.475.185.179.362.37.533.575.17.205.325.416.465.633.14.217.26.435.36.652.099.217.171.425.216.624.032.146.048.271.048.377 0 .146-.03.256-.091.329-.138.166-.308.29-.511.37a1.96 1.96 0 01-.548.144 3.497 3.497 0 01-.84-.01 5.173 5.173 0 01-1.418-.386 3.7 3.7 0 01-.542-.283l-.5 1.145c.102.093.262.186.482.28a7.376 7.376 0 001.519.441c.265.047.495.07.69.07zm-8.071 4.364c.34-.166.677-.354 1.007-.563.331-.209.645-.437.944-.685.298-.247.574-.51.828-.79.253-.28.472-.575.657-.883.185-.309.329-.628.432-.96.104-.33.155-.672.155-1.025 0-.178-.014-.361-.042-.548a8.704 8.704 0 00-.107-.569c-.042-.193-.09-.387-.14-.584l-.149-.588a9.052 9.052 0 00-.152-.556 65.409 65.409 0 01-.17-.564l-1.157.366c.11.34.213.681.31 1.022l.14.512c.05.174.094.349.134.523.04.175.074.345.1.511.027.167.04.325.04.475 0 .394-.095.775-.286 1.145a4.51 4.51 0 01-.758 1.046 6.964 6.964 0 01-1.074.91 9.912 9.912 0 01-1.242.734l.53 1.071zm-5.558-.085a7.348 7.348 0 001.23-.301 7.003 7.003 0 001.147-.505c.364-.201.702-.436 1.017-.704.314-.267.591-.566.83-.894.24-.329.437-.687.591-1.075.154-.387.254-.804.299-1.25a5.636 5.636 0 00.006-1.108 6.03 6.03 0 00-.201-1.066 5.049 5.049 0 00-.38-.958 3.741 3.741 0 00-.545-.789c-.483-.519-1.013-.779-1.59-.779-.259 0-.51.066-.75.198a2.284 2.284 0 00-.674.581c-.17.22-.318.48-.444.783a3.435 3.435 0 00-.24.81 4.237 4.237 0 00-.052.587c0 .162.014.324.043.487.048.308.166.58.353.815.422.524 1.073.812 1.954.865.223.02.423.03.6.03h.69c-.045.304-.17.614-.374.928a3.805 3.805 0 01-.837.892 6.02 6.02 0 01-1.273.755 7.854 7.854 0 01-1.68.523l.28 1.175zm3.343-5.479h-.098c-.179 0-.37-.005-.572-.017a3.068 3.068 0 01-.259-.028c-.1-.014-.2-.036-.304-.067a1.43 1.43 0 01-.293-.122.716.716 0 01-.228-.197.57.57 0 01-.125-.29 2.13 2.13 0 01-.02-.27c0-.09.005-.181.017-.274a2.765 2.765 0 01.326-.999c.083-.142.178-.258.283-.35a.505.505 0 01.335-.137c.073 0 .142.013.207.037a.94.94 0 01.185.094c.06.039.114.082.165.128.05.047.096.09.137.131.101.118.2.257.295.417.095.16.182.34.259.539.077.199.14.414.188.645.049.231.08.477.092.736a7.117 7.117 0 01-.59.024z" mask="url(#e)"/><g mask="url(#e)"><use fill="#000" filter="url(#h)" xlink:href="#i"/><use fill="#FFF" fill-opacity=".98" xlink:href="#i"/></g><path fill="#000000" fill-opacity=".87" fill-rule="nonzero" d="M350.54 36.183a10.734 10.734 0 002.303-.29 17.13 17.13 0 002.11-.65 22.704 22.704 0 001.935-.844c.617-.304 1.21-.592 1.777-.864l.128-1.57a3.825 3.825 0 01-.974-.138 8.171 8.171 0 01-.94-.322c-.31-.128-.618-.265-.922-.411a21.023 21.023 0 00-.91-.411 7.096 7.096 0 00-.917-.316 3.562 3.562 0 00-.93-.125c-.305 0-.593.054-.865.161a3.089 3.089 0 00-.758.432c-.233.18-.445.386-.636.615-.19.23-.355.466-.493.71l1.266.82.085-.145a3.385 3.385 0 01.374-.505 1.8 1.8 0 01.284-.256c.105-.077.22-.141.343-.192.124-.05.257-.076.4-.076.243 0 .488.045.736.134.247.09.505.195.773.317.268.121.552.246.852.374.3.128.625.23.974.307-.438.215-.903.424-1.394.627-.491.203-.994.383-1.51.539-.515.156-1.033.282-1.555.377a8.532 8.532 0 01-1.537.143h-1.32v1.559h1.32zm-8.754.018c.19 0 .373-.025.548-.076.174-.05.34-.122.496-.213.156-.092.302-.2.438-.323.136-.124.263-.26.38-.41.183.304.43.547.74.73.31.182.657.274 1.038.274.382 0 .73-.096 1.047-.286.317-.191.572-.445.767-.761.114.182.247.34.399.471a2.262 2.262 0 001.04.515c.193.04.39.06.588.06h.195v-1.558h-.225c-.126 0-.26-.026-.4-.079a1.295 1.295 0 01-.392-.237 1.497 1.497 0 01-.5-.95 31.222 31.222 0 01-.063-.496 14.467 14.467 0 01-.045-.432 70.527 70.527 0 00-.074-.788l-1.54.121c0 .09.001.16.004.21l.003.137c0 .041 0 .085.003.131a10.638 10.638 0 01-.024.937 3.72 3.72 0 01-.113.704 1.427 1.427 0 01-.247.52.514.514 0 01-.423.204.549.549 0 01-.374-.125.83.83 0 01-.222-.32 1.457 1.457 0 01-.1-.398 3.484 3.484 0 01-.022-.356 5.263 5.263 0 01.067-.776c.032-.205.075-.43.128-.673l-1.437-.292a7.914 7.914 0 01-.313 1.184 7.55 7.55 0 01-.256.642c-.095.211-.2.4-.317.566-.115.167-.24.303-.374.408a.71.71 0 01-.426.164h-.024a.342.342 0 01-.189-.054.442.442 0 01-.146-.165.757.757 0 01-.076-.225 1.344 1.344 0 01-.022-.231V33.9c.009-.223.051-.49.128-.8.077-.31.165-.634.262-.971l-1.491-.42a10.344 10.344 0 01-.423 1.448c-.148.378-.307.675-.475.892-.168.217-.345.367-.53.45-.184.084-.38.125-.587.125h-.256v1.559h.262c.459 0 .836-.08 1.132-.238.296-.158.546-.416.749-.773a1.84 1.84 0 001.163.959c.17.047.346.07.53.07zm-3.591-.018v-1.559h-.274a1.6 1.6 0 01-.417-.048.604.604 0 01-.457-.444 1.51 1.51 0 01-.045-.39v-.098c0-.125 0-.25.003-.371a691.051 691.051 0 00.012-.764c.002-.136.003-.28.003-.435v-.193l-.006-.443c-.004-.242-.006-.47-.006-.685a31.888 31.888 0 00-.183-3.393 11.12 11.12 0 00-.122-.862l-1.527.457c.036.19.069.41.097.66.028.25.053.518.073.804a46.356 46.356 0 01.085 1.808 71.017 71.017 0 01.025 1.725c0 .43-.004.795-.013 1.093-.008.298-.012.512-.012.642.004.836.22 1.46.646 1.875.426.414 1.05.62 1.874.62h.244zm-9.995 0c.179 0 .377-.006.597-.019a13.485 13.485 0 001.847-.213c.33-.06.653-.135.968-.222.314-.087.611-.19.891-.31s.526-.259.737-.417c.211-.159.377-.335.5-.53.12-.195.182-.412.182-.651 0-.17-.029-.372-.085-.606a8.653 8.653 0 00-.214-.727 14.787 14.787 0 00-.8-1.884c-.063-.12-.1-.18-.113-.18l-1.302.846c.122.207.241.413.359.618.118.205.23.413.335.624.105.211.2.426.283.645.083.22.149.447.198.682-.33.162-.691.293-1.087.393-.396.1-.797.177-1.205.234a13.95 13.95 0 01-1.187.116c-.384.02-.727.03-1.032.03-.548 0-1.062-.024-1.543-.073a8.885 8.885 0 01-1.284-.216 3.878 3.878 0 01-.938-.353c-.25-.14-.419-.301-.508-.484a.62.62 0 01-.055-.268c0-.052.004-.107.013-.164.024-.17.07-.347.136-.53a3.999 3.999 0 01.466-.9l-1.132-.95a136.2 136.2 0 00-.292.55 5.774 5.774 0 00-.262.57c-.077.195-.14.395-.189.6a2.769 2.769 0 00-.073.642c0 .45.08.84.238 1.171.158.331.373.612.645.843.272.232.592.42.962.563.369.145.763.258 1.18.341.418.084.853.141 1.303.174.45.032.895.05 1.333.055h.128zm-.152 3.147l1.169-1.17-1.17-1.162-1.162 1.163 1.163 1.169zm-9.843-3.13c.138 0 .297-.007.478-.023.18-.017.363-.041.548-.074a5.06 5.06 0 00.53-.121c.168-.049.31-.108.429-.177.344-.207.623-.464.837-.773.213-.308.345-.588.398-.84.053-.251.08-.458.08-.62a2.479 2.479 0 00-.578-1.589 3.38 3.38 0 00-.503-.506 4.723 4.723 0 00-.603-.407 8.726 8.726 0 00-.77-.39l-.998-.45c-.183-.082-.38-.173-.59-.274a90.448 90.448 0 01-1.772-.877l-.377-.186a.79.79 0 00-.17-.07l-.907 1.48c.125.069.218.117.276.146a.783.783 0 00.137.054 2.34 2.34 0 00-.502.445c-.144.17-.265.355-.362.554-.097.199-.17.409-.219.63a3.09 3.09 0 00.07 1.598c.095.304.242.584.441.84a82.246 82.246 0 00-.675.04c-.094.005-.19.01-.29.011-.099.002-.22.003-.362.003h-.115v1.559h.115c.613 0 1.185-.032 1.717-.095a7.42 7.42 0 001.37-.277c.158.07.338.128.541.177a7.539 7.539 0 001.257.192c.21.014.399.02.57.02zm-2.355-1.996a.97.97 0 01-.341-.185 1.62 1.62 0 01-.283-.305 1.816 1.816 0 01-.207-.374 1.553 1.553 0 01-.107-.396 1.425 1.425 0 01.073-.578c.065-.199.157-.38.277-.542.12-.162.249-.287.387-.374a.744.744 0 01.395-.13c.033 0 .065.001.098.005.11.016.231.056.365.119.134.063.257.148.368.256.112.107.196.227.253.359a1 1 0 01.085.398 2.154 2.154 0 01-.189.819c-.085.18-.187.334-.307.46a1.47 1.47 0 01-.402.301c-.148.075-.303.13-.465.167zm2.526.457a3.027 3.027 0 01-.39-.024c.244-.305.427-.64.551-1.008a3.494 3.494 0 00.161-1.555c.207.097.402.206.585.326.182.12.34.245.474.377.134.132.24.267.32.405.08.138.119.272.119.401a.697.697 0 01-.14.414c-.094.13-.222.244-.384.341a2.227 2.227 0 01-.575.235 2.8 2.8 0 01-.721.088zm-5.497 1.522v-1.559h-.274a1.6 1.6 0 01-.417-.048.604.604 0 01-.457-.444 1.51 1.51 0 01-.045-.39v-.285l.003-.184a691.051 691.051 0 00.012-.764 29.249 29.249 0 00-.003-1.071c-.004-.242-.006-.47-.006-.685a31.89 31.89 0 00-.182-3.393 11.12 11.12 0 00-.122-.862l-1.528.457c.037.19.069.41.097.66.029.25.053.518.073.804a46.356 46.356 0 01.085 1.808 71.017 71.017 0 01.025 1.725v.25a36.97 36.97 0 01-.012.843c-.008.298-.012.512-.012.642.004.836.219 1.46.645 1.875.426.414 1.05.62 1.875.62h.243zm-9.873 4.279c.353 0 .724-.02 1.114-.061.39-.04.775-.11 1.157-.207a6.43 6.43 0 001.095-.387c.35-.16.66-.36.931-.6.272-.239.494-.522.664-.848.17-.327.268-.703.292-1.13.004-.04.006-.079.006-.115 0-.268-.05-.493-.152-.676a1.426 1.426 0 00-.475-.502 2.581 2.581 0 00-.67-.301 13.204 13.204 0 00-.736-.195c-.199-.053-.39-.098-.572-.137a2.383 2.383 0 01-.484-.152.917.917 0 01-.335-.244c-.083-.099-.124-.236-.124-.41 0-.155.033-.314.1-.478.067-.165.155-.325.265-.481a3.11 3.11 0 01.38-.445 3.47 3.47 0 01.45-.37c.157-.108.314-.197.472-.266.159-.069.307-.11.445-.121a2.242 2.242 0 011.345.17l.554-1.46a3.007 3.007 0 00-.52-.22 2.942 2.942 0 00-.512-.116c-.16-.02-.307-.03-.441-.03-.053 0-.106.002-.158.006-.191.008-.378.033-.56.073-.447.098-.859.27-1.236.518a4.32 4.32 0 00-1.662 2.045c-.166.422-.26.856-.28 1.302 0 .406.061.743.183 1.01.121.269.29.49.505.664.215.175.469.316.76.423.293.108.61.204.95.29.122.032.249.063.38.094.133.03.253.06.363.091.11.03.2.062.274.094.073.033.112.067.116.104-.025.183-.14.36-.344.533a3.032 3.032 0 01-.822.465 6.179 6.179 0 01-1.211.332 8.556 8.556 0 01-1.507.125 4.71 4.71 0 01-1.278-.165 2.746 2.746 0 01-.995-.496 1.836 1.836 0 01-.579-.76 2.354 2.354 0 01-.167-.862c0-.126.008-.256.024-.39.037-.288.08-.56.131-.818.05-.258.109-.515.174-.77.065-.256.138-.517.219-.782.08-.266.17-.551.268-.856l-1.34-.541a11.712 11.712 0 00-.22.615c-.055.174-.118.377-.187.608a17.71 17.71 0 00-.384 1.534 10.03 10.03 0 00-.134.816 5.709 5.709 0 00-.048.73c0 .442.06.846.182 1.211.183.56.477 1.028.883 1.404.406.375.904.658 1.494.849.59.19 1.243.286 1.957.286zm-16.173-4.28c.479 0 .902-.085 1.27-.255.366-.17.71-.414 1.03-.73a7.096 7.096 0 001.237.687c.194.073.386.131.575.174.188.042.368.064.538.064.2 0 .39-.03.573-.092a1.956 1.956 0 00.934-.663c.124-.158.224-.335.301-.53.07-.182.121-.37.156-.566a3.45 3.45 0 00.051-.602 3.66 3.66 0 00-.255-1.336 2.915 2.915 0 00-.323-.597 2.407 2.407 0 00-.453-.487 2.013 2.013 0 00-1.3-.447c-.288 0-.542.058-.76.173-.22.116-.415.266-.585.45-.17.185-.323.393-.457.625a10.56 10.56 0 00-.371.7c-.114.223-.234.446-.362.67a3.17 3.17 0 01-.445.602 2.108 2.108 0 01-.58.435c-.22.112-.478.167-.774.167h-.122v1.559h.122zm4.937-1.582c-.082 0-.17-.012-.268-.037a3.048 3.048 0 01-.53-.164 5.406 5.406 0 01-.925-.487c.154-.308.284-.563.39-.764.105-.2.196-.36.273-.48.078-.12.143-.206.198-.256a.36.36 0 01.168-.095.9.9 0 01.176-.018.75.75 0 01.329.073c.15.077.28.187.39.329.109.142.195.305.258.49a1.7 1.7 0 01.094.55v.062c0 .097-.008.186-.024.267a1.14 1.14 0 01-.094.256.631.631 0 01-.128.174.287.287 0 01-.13.076.599.599 0 01-.177.024zm-10.677-1.37l1.169-1.168-1.169-1.163-1.163 1.163 1.163 1.168zm-.2 7.14c.592 0 1.125-.057 1.6-.173a4.81 4.81 0 001.25-.48 3.715 3.715 0 001.54-1.64c.157-.33.264-.656.32-.978a5.323 5.323 0 00.08-1.154c.13.073.284.131.462.174.179.042.378.064.597.064h.2v-1.559h-.2c-.126 0-.257-.008-.393-.024a.992.992 0 01-.417-.161 1.81 1.81 0 01-.435-.426 3.997 3.997 0 01-.454-.82 45.617 45.617 0 01-.289-.69 4.83 4.83 0 00-.13-.307l-1.431.797c.004 0 .033.053.085.158a14.092 14.092 0 01.688 1.71c.077.236.143.468.198.698.055.229.086.437.094.624v.103c0 .211-.03.414-.091.609a2.35 2.35 0 01-.329.633 2.658 2.658 0 01-.517.53 3.295 3.295 0 01-.676.404 3.627 3.627 0 01-.782.25 4.257 4.257 0 01-.837.082h-.06a3.501 3.501 0 01-1.087-.192 2.937 2.937 0 01-.904-.499 2.393 2.393 0 01-.618-.764 2.126 2.126 0 01-.228-.986c0-.304.035-.607.106-.907.071-.3.155-.58.253-.84.097-.26.2-.489.307-.688.108-.199.198-.349.271-.45l-1.199-.87a6.703 6.703 0 00-1.132 3.719c0 .629.1 1.194.298 1.695.199.5.48.926.843 1.275.363.349.8.617 1.312.803a4.94 4.94 0 001.704.28z" mask="url(#e)"/><path fill="#EA475B" fill-rule="nonzero" mask="url(#e)" d="M187.5 111h188v2h-188zM292.606 85.41l1.134-1.133-1.14-1.141-1.135 1.134 1.141 1.14zM291.493 93c.38 0 .734-.026 1.06-.077.328-.05.624-.139.888-.264s.497-.292.699-.5c.202-.21.372-.471.511-.787.14-.32.209-.69.209-1.113 0-.074-.002-.148-.007-.222-.032-.515-.153-1.109-.362-1.781a9.033 9.033 0 00-.222-.644 14.061 14.061 0 00-.383-.897 1.713 1.713 0 01-.063-.143l-1.238.612.605 1.489c.098.237.172.463.223.678.051.216.081.385.09.508.01.123.014.215.014.275 0 .111-.007.216-.02.313a1.35 1.35 0 01-.105.369 1.245 1.245 0 01-.348.455c-.139.11-.301.192-.487.247-.185.056-.391.09-.619.101-.227.012-.475.018-.744.018h-.807V93h1.106zm-9.162 0c.715 0 1.336-.188 1.865-.563.269-.186.463-.374.584-.564.867.608 1.765.97 2.692 1.085.079.01.156.014.23.014.477 0 .883-.22 1.217-.66.176.231.398.404.664.518.267.113.572.17.915.17h.167v-1.363h-.167a.926.926 0 01-.717-.32 1.072 1.072 0 01-.194-.341 1.341 1.341 0 01-.077-.41 5.854 5.854 0 00-.08-.759 4.076 4.076 0 00-.535-1.437 2.539 2.539 0 00-.47-.567 2.081 2.081 0 00-.615-.382 2.035 2.035 0 00-.77-.14c-.407 0-.756.109-1.046.324-.29.216-.535.495-.734.838l-.052.087c-.021.035-.055.098-.101.188l-.195.39c-.083.17-.197.395-.34.678-.177.339-.346.62-.509.842-.5.668-1.075 1.004-1.725 1.009h-.146V93h.14zm5.21-1.384c-.069 0-.145-.007-.229-.021a3.463 3.463 0 01-.769-.272 7.137 7.137 0 01-.95-.556l.04-.077.09-.184.19-.39c.084-.169.196-.397.335-.685.283-.52.547-.779.793-.779.209 0 .39.058.542.174.154.116.28.266.38.449.1.183.176.388.23.615.053.228.084.453.093.675v.112c0 .125-.012.238-.035.34a1 1 0 01-.146.334c-.12.177-.308.265-.563.265zM282.472 93v-1.363h-.14a2.77 2.77 0 01-.754-.09c-.211-.061-.37-.145-.477-.251a.58.58 0 01-.184-.359 3.758 3.758 0 01-.025-.441v-3.493a48.553 48.553 0 00-.066-2.546c-.02-.403-.046-.776-.076-1.12-.03-.343-.066-.633-.108-.87l-1.364.251c.042.218.078.498.108.839.03.34.056.713.077 1.116.02.404.036.82.045 1.252.01.432.014.847.014 1.245.005.409.007.796.007 1.162v.27c-.001.263-.004.502-.007.718a211.355 211.355 0 00-.014 1.037c0 .11.002.244.007.4a2.686 2.686 0 00.247 1.012c.081.176.198.34.351.494.25.25.556.436.915.556.36.12.794.181 1.304.181h.14zm-8.842 0c.38 0 .748-.026 1.102-.077.355-.05.68-.139.978-.264.297-.125.56-.292.79-.5.229-.21.413-.471.552-.787.14-.32.209-.69.209-1.113 0-.074-.002-.148-.007-.222-.032-.515-.153-1.109-.362-1.781a9.033 9.033 0 00-.222-.644 14.061 14.061 0 00-.383-.897 1.713 1.713 0 01-.063-.143l-1.238.612.605 1.489c.098.237.172.463.223.678.051.216.081.385.09.508.01.123.014.215.014.275 0 .111-.007.216-.02.313a1.35 1.35 0 01-.105.369 1.089 1.089 0 01-.39.455c-.166.11-.359.192-.577.247-.218.056-.454.09-.71.101-.254.012-.516.018-.785.018h-1.343V93h1.642zm-.348 3.402l1.127-1.127-1.141-1.141-1.127 1.134 1.14 1.134zm2.852.014l1.127-1.134-1.14-1.134-1.128 1.127 1.141 1.14zm-9.927-12.021l1.03-1.03-1.037-1.036-1.03 1.03 1.037 1.036zm-1.572 2.198l1.127-1.134-1.141-1.14-1.127 1.133 1.14 1.141zm3.054.007l1.127-1.127-1.141-1.14-1.127 1.126 1.14 1.141zm-4.195 6.42c.227 0 .444-.033.65-.1.207-.067.402-.162.585-.285.183-.123.352-.267.508-.432.155-.164.295-.344.42-.539.172.413.432.739.78.978.347.239.753.358 1.217.358.237 0 .46-.035.668-.104a2.24 2.24 0 001.057-.745c.14-.176.255-.373.348-.591.12.223.267.422.438.598.172.176.36.327.567.452.207.126.426.222.658.29.232.066.468.1.71.1h.166v-1.363h-.167c-.334 0-.636-.14-.908-.421-.27-.28-.5-.706-.685-1.277a5.48 5.48 0 01-.163-.591 9.327 9.327 0 01-.16-1.012c-.016-.156-.032-.31-.045-.463l-1.364.111c.01.167.017.341.024.522a12.379 12.379 0 01.004.863 7.77 7.77 0 01-.07.803 3.115 3.115 0 01-.184.724c-.086.215-.2.39-.344.521a.78.78 0 01-.55.199c-.232 0-.415-.063-.55-.188a1.1 1.1 0 01-.295-.487c-.063-.2-.098-.38-.105-.543a5.315 5.315 0 01.017-.897c.02-.255.047-.499.084-.73.037-.232.068-.43.09-.592l-1.356-.257c-.023.213-.057.453-.1.72a8.21 8.21 0 01-.442 1.617 3.239 3.239 0 01-.369.703c-.144.204-.31.368-.497.494-.188.125-.4.187-.637.187-.19 0-.335-.064-.435-.194a.958.958 0 01-.188-.449 3.207 3.207 0 01-.03-.74c.013-.251.04-.498.08-.742.039-.243.08-.47.124-.678.044-.209.08-.371.108-.487l-1.335-.369c-.028.112-.058.244-.09.397a7.058 7.058 0 01-.13.504 9.976 9.976 0 01-.19.585 5.792 5.792 0 01-.272.63c-.102.19-.22.376-.355.56a3.353 3.353 0 01-.442.493c-.16.146-.331.263-.515.351a1.294 1.294 0 01-.566.133h-.147V93h.147a2.578 2.578 0 001.37-.38c.195-.117.373-.26.536-.427.162-.167.315-.352.459-.556a1.903 1.903 0 001.241 1.286c.202.065.412.098.63.098zm-11.527-9.947l5.593-2.365-.327-.703-5.217 2.178-.049.89zM253.183 93c.195-.01.388-.028.578-.056.19-.027.376-.07.556-.125a2.691 2.691 0 001.009-.563c.246-.228.445-.487.598-.78.209.27.451.52.727.752.276.232.581.408.915.529.241.078.488.139.741.18.253.042.546.063.88.063h.202v-1.363h-.439a2.38 2.38 0 01-.713-.115 2.337 2.337 0 01-.594-.296 2.552 2.552 0 01-.498-.456 4.692 4.692 0 01-.428-.601c-.176-.297-.34-.592-.494-.884a76.532 76.532 0 00-.462-.87 27 27 0 00-.487-.862 9.759 9.759 0 00-1.297-1.722 9.568 9.568 0 00-.926-.852l5.517-2.316-.536-1.266-6.15 2.65-.18 1.537a12.043 12.043 0 011.415 1.305c.244.262.477.538.7.828.222.29.417.583.584.88a4.4 4.4 0 01.372.834 2.4 2.4 0 01.122.71c0 .056-.003.111-.007.167-.014.167-.07.33-.17.49a1.856 1.856 0 01-.883.727 1.515 1.515 0 01-.561.112h-2.428V93h2.337zm-2.059 0v-1.363h-.139a2.77 2.77 0 01-.755-.09c-.21-.061-.37-.145-.476-.251a.58.58 0 01-.184-.359 3.758 3.758 0 01-.025-.441v-3.493a48.553 48.553 0 00-.066-2.546c-.02-.403-.046-.776-.076-1.12-.03-.343-.066-.633-.108-.87l-1.364.251c.042.218.078.498.108.839.03.34.056.713.077 1.116.02.404.036.82.045 1.252.01.432.014.847.014 1.245.004.409.007.796.007 1.162 0 .371-.003.7-.007.988a211.355 211.355 0 00-.014 1.037c0 .11.002.244.007.4a2.686 2.686 0 00.247 1.012c.08.176.198.34.351.494.25.25.555.436.915.556.36.12.794.181 1.304.181h.14zm-7.993 0c.084 0 .187-.003.31-.01s.254-.024.393-.05c.139-.025.285-.06.438-.103.153-.045.304-.104.452-.178.408-.2.718-.475.929-.828.211-.352.317-.767.317-1.245 0-.478-.14-.997-.418-1.558-.278-.561-.702-1.167-1.273-1.816a13.94 13.94 0 00-.584-.615 21.21 21.21 0 00-.512-.49l-.204-.187a8.46 8.46 0 00-.16-.14 1.407 1.407 0 01-.147-.133l-.876 1.064c0 .005.041.042.125.112.083.07.195.167.334.292a9.895 9.895 0 00-.814.848c-.756.91-1.134 1.784-1.134 2.623 0 .478.114.892.34 1.242.228.35.564.63 1.01.838.171.084.34.148.507.195.167.046.32.08.456.1a2.818 2.818 0 00.451.038l.06.001zm.051-1.385h-.05a2.245 2.245 0 01-.362-.034 2.836 2.836 0 01-.258-.06 1.662 1.662 0 01-.271-.1 1.07 1.07 0 01-.3-.188.867.867 0 01-.17-.212.669.669 0 01-.076-.22 1.397 1.397 0 01-.018-.215c0-.236.055-.475.164-.716a4.18 4.18 0 01.4-.696c.158-.223.326-.427.504-.612.179-.186.335-.339.47-.46.45.488.793.947 1.03 1.378.236.431.354.8.354 1.106 0 .209-.038.38-.115.511a.918.918 0 01-.372.338c-.088.042-.18.074-.278.097-.097.023-.19.042-.278.056-.088.014-.17.022-.244.024a6.035 6.035 0 01-.18.004h.05zm65.946-6.978c.197-.368.619-.607 1.074-.607h6.597c.455 0 .877.239 1.073.607l1.673 3.137a51.645 51.645 0 01-12.09 0l1.673-3.137zm11.118 6.972a.72.72 0 01-.121.091.626.626 0 01-.18.074l-.53.104-.026.005c-.877.113-1.727.2-2.57.266-.015.002-.032.002-.048.002a.625.625 0 01-.049-1.248 51.78 51.78 0 002.469-.254l.515-.101a.554.554 0 01.284.016c.007.003.015.008.022.01.085.031.166.077.234.14a.612.612 0 01.193.327.615.615 0 01-.193.568zm-13.492-.899a.658.658 0 01.232-.136c.006-.002.012-.007.02-.009a.585.585 0 01.285-.017l.555.109c.775.097 1.606.181 2.427.246a.624.624 0 11-.097 1.246 53.47 53.47 0 01-2.53-.259l-.596-.116a.718.718 0 01-.296-.162.616.616 0 01-.197-.571.61.61 0 01.197-.33zm16.64-3.621a.834.834 0 00-1.133-.323l-1.056.588c-.01-.02-.018-.044-.03-.065l-1.833-3.436c-.49-.919-1.464-1.49-2.543-1.49h-6.597c-1.08 0-2.054.571-2.544 1.49l-1.834 3.437c-.012.021-.018.043-.03.064l-1.056-.588a.834.834 0 10-.81 1.456l1.303.726a6.22 6.22 0 00-.144 1.276v3.698h.008c0 .077 0 .155.02.227v1.257h-.002v1.043a1.043 1.043 0 102.087 0V94.883c2.092.189 4.193.289 6.296.289 2.104 0 4.206-.101 6.301-.29v.524h-.002v1.043a1.043 1.043 0 102.087 0v-1.043h-.001v-1.312a.846.846 0 00.015-.172h.018v-3.698c0-.428-.056-.855-.145-1.276l1.303-.726a.832.832 0 00.322-1.133z"/><path fill="#000000" fill-opacity=".56" fill-rule="nonzero" d="M117.83 93c.7 0 1.394-.065 2.08-.195.687-.13 1.351-.298 1.993-.504a19.848 19.848 0 001.844-.692c.587-.255 1.135-.51 1.645-.766.348-.171.682-.335 1.002-.49.32-.155.642-.3.967-.435l-.264-1.321c-.288 0-.573-.03-.856-.09a6.842 6.842 0 01-.849-.24 11.25 11.25 0 01-.845-.338 39.2 39.2 0 01-.831-.383c-.25-.116-.499-.23-.745-.34-.245-.112-.487-.21-.723-.296a5.637 5.637 0 00-.7-.206 3.12 3.12 0 00-.678-.076c-.45 0-.877.109-1.283.327-.406.218-.79.545-1.151.98a4.72 4.72 0 00-.33.439c-.096.144-.177.271-.244.383a3.542 3.542 0 00-.212.396l1.252.564a3.686 3.686 0 01.257-.456c.084-.128.183-.264.3-.41.115-.147.246-.283.392-.411.146-.128.305-.233.477-.317.171-.083.352-.125.542-.125.144 0 .302.022.473.066.172.044.354.104.547.178.192.074.391.159.598.254l.636.295c.283.135.57.267.863.397.292.13.598.25.918.362-.528.264-1.078.521-1.648.772-.57.25-1.155.473-1.754.668-.598.194-1.205.35-1.822.47a9.807 9.807 0 01-1.85.177h-1.51V93h1.51zm-10.003.02c.227 0 .444-.033.65-.1.207-.067.402-.162.585-.285.183-.123.352-.267.508-.432.155-.164.295-.344.42-.539.172.413.432.739.78.978.347.239.753.358 1.217.358.236 0 .46-.035.668-.104a2.24 2.24 0 001.057-.745c.14-.176.255-.373.348-.591.12.223.267.422.438.598.172.176.36.327.567.452.207.126.426.222.658.29.231.066.468.1.71.1h.166v-1.363h-.167c-.334 0-.636-.14-.908-.421-.271-.28-.5-.706-.685-1.277a5.48 5.48 0 01-.163-.591 9.327 9.327 0 01-.16-1.012c-.017-.156-.032-.31-.046-.463l-1.363.111c.01.167.017.341.024.522a12.379 12.379 0 01.004.863 7.77 7.77 0 01-.07.803 3.115 3.115 0 01-.184.724c-.086.215-.2.39-.344.521a.78.78 0 01-.55.199c-.232 0-.415-.063-.55-.188a1.1 1.1 0 01-.295-.487c-.063-.2-.098-.38-.105-.543a5.315 5.315 0 01.017-.897c.02-.255.047-.499.084-.73.037-.232.068-.43.09-.592l-1.356-.257c-.023.213-.057.453-.1.72a8.21 8.21 0 01-.442 1.617 3.239 3.239 0 01-.37.703c-.143.204-.309.368-.497.494-.187.125-.4.187-.636.187-.19 0-.335-.064-.435-.194a.958.958 0 01-.188-.449 3.207 3.207 0 01-.031-.74c.014-.251.04-.498.08-.742.04-.243.081-.47.125-.678.044-.209.08-.371.108-.487l-1.336-.369c-.027.112-.058.244-.09.397a7.058 7.058 0 01-.129.504 9.976 9.976 0 01-.191.585 5.792 5.792 0 01-.271.63c-.102.19-.22.376-.355.56a3.353 3.353 0 01-.442.493c-.16.146-.331.263-.515.351a1.294 1.294 0 01-.567.133h-.146V93h.146a2.578 2.578 0 001.37-.38c.196-.117.374-.26.537-.427.162-.167.315-.352.459-.556a1.903 1.903 0 001.241 1.286c.202.065.412.098.63.098zm-4.104-.02v-1.363h-.14a2.77 2.77 0 01-.754-.09c-.211-.061-.37-.145-.477-.251a.58.58 0 01-.184-.359 3.758 3.758 0 01-.025-.441v-3.493a48.553 48.553 0 00-.066-2.546 31.39 31.39 0 00-.076-1.12c-.03-.343-.066-.633-.108-.87l-1.363.251c.041.218.077.498.107.839.03.34.056.713.077 1.116.02.404.036.82.045 1.252.01.432.014.847.014 1.245.005.409.007.796.007 1.162v.27c-.001.263-.003.502-.007.718a211.587 211.587 0 00-.013.957v.198c0 .084.003.178.006.282a2.686 2.686 0 00.247 1.012c.081.176.198.34.351.494.25.25.556.436.915.556.36.12.794.181 1.304.181h.14zm-11.444 0c.264 0 .543-.012.835-.035a14.996 14.996 0 003.096-.56c.32-.095.619-.2.897-.316.278-.116.522-.24.73-.369.218-.14.386-.277.505-.414a1.11 1.11 0 00.236-.407 1.383 1.383 0 00.052-.542 4.954 4.954 0 00-.11-.634 6.504 6.504 0 00-.345-1.053 12.893 12.893 0 00-.435-.933c-.144-.276-.27-.5-.38-.674a8.813 8.813 0 01-.177-.29l-1.154.752a8.292 8.292 0 01.33.525c.09.156.19.334.296.536.106.202.207.414.302.637.095.222.179.448.25.678.073.23.118.449.136.657-.39.218-.81.396-1.262.532-.452.137-.908.245-1.367.324-.46.079-.91.133-1.35.163-.44.03-.844.046-1.21.046-1.299-.005-2.354-.13-3.165-.373-.812-.243-1.331-.592-1.559-1.047a1.365 1.365 0 01-.139-.619c0-.255.056-.535.167-.841a2.686 2.686 0 01.209-.477 5.522 5.522 0 01.243-.4l-1.106-.82-.076.114a5.561 5.561 0 00-.345.609c-.067.139-.133.292-.198.459-.18.478-.271.937-.271 1.377 0 .44.097.849.292 1.225.343.69.993 1.222 1.948 1.593 1.006.37 2.34.563 4 .577h.125zm-.153 3.624l1.134-1.134-1.14-1.14-1.135 1.133 1.141 1.141zM75.263 83.748l1.03-1.03-1.036-1.036-1.03 1.03 1.036 1.036zm-1.572 2.198l1.127-1.134-1.14-1.14-1.128 1.133 1.141 1.141zm3.054.007l1.127-1.127-1.14-1.14-1.128 1.126 1.141 1.141zm.237 7.13c.431 0 .809-.06 1.134-.18.334-.121.612-.295.834-.522.223-.227.39-.502.501-.824a3.3 3.3 0 00.167-1.082c0-.265-.024-.536-.073-.814a7.696 7.696 0 00-.188-.814 12.239 12.239 0 00-.859-2.17l-1.217.64a12.273 12.273 0 01.588 1.422c.1.295.185.595.257.901.072.306.108.591.108.856a2 2 0 01-.07.55.93.93 0 01-.226.403.764.764 0 01-.355.212 1.566 1.566 0 01-.4.052c-.078 0-.162-.005-.25-.014a.65.65 0 01-.351-.136.847.847 0 01-.23-.292 1.47 1.47 0 01-.125-.41 3.026 3.026 0 01-.038-.49c0-.19.014-.408.041-.651.028-.243.06-.473.094-.689.035-.215.066-.4.094-.553l.035-.222-1.336-.244c-.027.19-.066.414-.114.671a9.558 9.558 0 01-.188.797 7.21 7.21 0 01-.278.807c-.11.264-.237.5-.383.71a2.008 2.008 0 01-.501.507c-.188.13-.4.195-.636.195a.735.735 0 01-.37-.083.622.622 0 01-.229-.223.974.974 0 01-.118-.316 1.894 1.894 0 01-.035-.366c0-.18.019-.377.056-.588.037-.21.081-.417.132-.619a12.77 12.77 0 01.292-.998l-1.377-.292c-.047.227-.102.468-.167.723a7.784 7.784 0 01-.237.762 5.556 5.556 0 01-.327.727 2.873 2.873 0 01-.441.616c-.17.178-.363.322-.581.431a1.626 1.626 0 01-.738.164h-.153V93h.146c.27 0 .516-.022.741-.066a2.704 2.704 0 001.13-.494c.158-.118.307-.252.446-.4.074.172.18.322.316.452.137.13.29.239.456.327.167.088.342.154.525.198.184.044.36.066.533.066.394 0 .767-.095 1.12-.285.352-.19.667-.447.946-.772.097.148.215.286.354.414.14.128.29.239.453.334.162.095.332.17.51.226.18.056.357.083.533.083h.049zm-15.91-7.77l1.134-1.134-1.14-1.14-1.135 1.133 1.141 1.141zM58.13 93c.723 0 1.407-.054 2.052-.163a14.231 14.231 0 001.833-.432c.577-.178 1.126-.38 1.645-.605.52-.225 1.018-.456 1.496-.692.116.297.288.562.518.796.23.235.503.433.82.595.318.162.677.287 1.076.372.398.086.827.129 1.287.129h.146v-1.363h-.146c-.084 0-.195-.004-.334-.01a4.039 4.039 0 01-.46-.053 4.861 4.861 0 01-.51-.115 2.302 2.302 0 01-.495-.202 1.718 1.718 0 01-.41-.313 1.06 1.06 0 01-.254-.448c.213-.107.424-.207.633-.3l.633-.278-.264-1.321c-.288 0-.573-.03-.856-.09a6.842 6.842 0 01-.849-.24 11.25 11.25 0 01-.845-.338 39.2 39.2 0 01-.831-.383c-.25-.116-.499-.23-.745-.34-.245-.112-.487-.21-.723-.296a5.637 5.637 0 00-.7-.206 3.12 3.12 0 00-.677-.076c-.45 0-.878.109-1.284.327-.406.218-.79.545-1.151.98a4.72 4.72 0 00-.33.439c-.096.144-.177.271-.244.383a3.542 3.542 0 00-.212.396l1.252.564a.05.05 0 01.004-.012l.033-.067.029-.057c.044-.086.108-.193.191-.32.084-.128.183-.264.3-.41.115-.147.246-.283.392-.411.147-.128.305-.233.477-.317.172-.083.352-.125.543-.125.143 0 .301.022.473.066.171.044.353.104.546.178.192.074.392.159.598.254.206.095.419.193.636.295.283.135.57.267.863.397.292.13.598.25.918.362a57.07 57.07 0 01-1.607.772c-.542.25-1.102.473-1.68.668a13.45 13.45 0 01-1.805.47 10.67 10.67 0 01-1.982.177h-1.002V93h1.002zm-7.52.14c.315 0 .648-.01.998-.029.35-.018.706-.055 1.068-.111h4.73v-1.363h-1.739c.213-.237.39-.51.529-.821.139-.311.215-.67.23-1.079v-.097c0-.301-.04-.582-.119-.842a2.648 2.648 0 00-1.002-1.37 2.933 2.933 0 00-.775-.39 2.904 2.904 0 00-.693-.156 7.311 7.311 0 00-.347-.018c-.26 0-.522.03-.787.09-.575.13-1.102.33-1.582.599-.48.269-.917.59-1.311.964-.395.373-.75.79-1.065 1.252a10.63 10.63 0 00-.835 1.457 2.046 2.046 0 01-.313-.682 2.943 2.943 0 01-.083-.688v-.049c0-.241.023-.475.07-.703.046-.227.097-.436.153-.626l-1.315-.396c-.06.18-.112.364-.153.55-.042.185-.081.377-.119.577-.074.352-.15.68-.23.98-.078.302-.199.564-.36.787-.052.07-.118.142-.2.219a1.281 1.281 0 01-.323.212c-.134.065-.299.12-.494.163a3.229 3.229 0 01-.702.067h-.16V93h.202c.64-.005 1.186-.102 1.638-.292.452-.19.824-.49 1.116-.898.255.33.517.584.786.762.27.179.562.31.877.393.315.084.662.134 1.04.15.378.016.801.024 1.27.024zm0-1.406h-.307c-.412-.01-.772-.023-1.078-.042.255-.464.517-.884.786-1.262.27-.378.553-.71.852-.995.3-.285.62-.524.964-.717a4.046 4.046 0 011.113-.42 2.1 2.1 0 01.88 0c.155.032.307.082.456.149a1.297 1.297 0 01.671.66c.072.156.108.336.108.54v.028c0 .357-.098.658-.292.904-.2.25-.464.455-.793.612a4.53 4.53 0 01-1.124.355 9.72 9.72 0 01-1.196.153c-.378.023-.725.035-1.04.035zm-12.947 5.802c.307 0 .65-.021 1.03-.063.38-.042.764-.111 1.151-.209a7.705 7.705 0 001.13-.379c.367-.155.694-.346.982-.574.287-.227.52-.494.695-.8a2.118 2.118 0 00.244-1.37 1.463 1.463 0 00-.112-.362 1.988 1.988 0 00-.233-.386 2.356 2.356 0 00-.386-.393h1.795v-1.363H38.47l-.104 1.356.153.028a9.7 9.7 0 01.668.153c.14.037.289.079.449.125.16.047.32.098.483.153.264.098.487.195.668.292.18.098.328.19.442.275.113.086.196.167.247.244a.377.377 0 01.076.198.864.864 0 01-.233.598c-.155.172-.353.32-.595.445a4.37 4.37 0 01-.81.317 8.716 8.716 0 01-1.68.313c-.246.02-.436.031-.57.031-.232 0-.498-.004-.797-.014-.3-.009-.6-.046-.904-.111a3.453 3.453 0 01-.877-.317 1.949 1.949 0 01-.706-.63c-.292-.444-.438-1.024-.438-1.738 0-1.127.364-2.586 1.092-4.376l-1.273-.515c-.728 1.763-1.122 3.275-1.183 4.536a8.53 8.53 0 00-.007.34c0 1.017.225 1.854.675 2.512.213.362.488.653.824.873.337.22.703.39 1.1.512.396.12.81.2 1.241.24.432.039.849.059 1.252.059z" mask="url(#e)"/><path fill="#000000" fill-opacity=".56" d="M148 89.833A4.171 4.171 0 01152.167 94c0 1.378-1.122 2.5-2.5 2.5h-8.334a2.503 2.503 0 01-2.5-2.5A4.171 4.171 0 01143 89.833zm-2.5-8.333a3.337 3.337 0 013.333 3.333 3.337 3.337 0 01-3.333 3.334 3.337 3.337 0 01-3.333-3.334A3.337 3.337 0 01145.5 81.5z" mask="url(#e)"/><path fill="#000000" fill-opacity=".12" mask="url(#e)" d="M0 113h375v1H0z"/></g></g></g></svg>