<svg xmlns="http://www.w3.org/2000/svg" xmlns:xlink="http://www.w3.org/1999/xlink" width="860" height="422"><defs><filter id="d" width="113.9%" height="113.9%" x="-6.9%" y="-5.9%" filterUnits="objectBoundingBox"><feOffset dy="4" in="SourceAlpha" result="shadowOffsetOuter1"/><feGaussianBlur in="shadowOffsetOuter1" result="shadowBlurOuter1" stdDeviation="8"/><feColorMatrix in="shadowBlurOuter1" values="0 0 0 0 0 0 0 0 0 0 0 0 0 0 0 0 0 0 0.12 0"/></filter><filter id="f" width="110.7%" height="110.7%" x="-5.3%" y="-4.3%" filterUnits="objectBoundingBox"><feOffset dy="2" in="SourceAlpha" result="shadowOffsetOuter1"/><feGaussianBlur in="shadowOffsetOuter1" result="shadowBlurOuter1" stdDeviation="4"/><feColorMatrix in="shadowBlurOuter1" result="shadowMatrixOuter1" values="0 0 0 0 0 0 0 0 0 0 0 0 0 0 0 0 0 0 0.08 0"/><feOffset dy="4" in="SourceAlpha" result="shadowOffsetOuter2"/><feGaussianBlur in="shadowOffsetOuter2" result="shadowBlurOuter2" stdDeviation="6"/><feColorMatrix in="shadowBlurOuter2" result="shadowMatrixOuter2" values="0 0 0 0 0 0 0 0 0 0 0 0 0 0 0 0 0 0 0.04 0"/><feOffset in="SourceAlpha" result="shadowOffsetOuter3"/><feGaussianBlur in="shadowOffsetOuter3" result="shadowBlurOuter3" stdDeviation="2"/><feColorMatrix in="shadowBlurOuter3" result="shadowMatrixOuter3" values="0 0 0 0 0 0 0 0 0 0 0 0 0 0 0 0 0 0 0.04 0"/><feMerge><feMergeNode in="shadowMatrixOuter1"/><feMergeNode in="shadowMatrixOuter2"/><feMergeNode in="shadowMatrixOuter3"/></feMerge></filter><filter id="h" width="101.9%" height="110.9%" x="-.9%" y="-3.9%" filterUnits="objectBoundingBox"><feOffset dy="1" in="SourceAlpha" result="shadowOffsetOuter1"/><feGaussianBlur in="shadowOffsetOuter1" result="shadowBlurOuter1" stdDeviation="1"/><feComposite in="shadowBlurOuter1" in2="SourceAlpha" operator="out" result="shadowBlurOuter1"/><feColorMatrix in="shadowBlurOuter1" values="0 0 0 0 0 0 0 0 0 0 0 0 0 0 0 0 0 0 0.12 0"/></filter><path id="c" d="M8 0h359a8 8 0 018 8v366H0V8a8 8 0 018-8z"/><path id="g" d="M8 0h359a8 8 0 018 8v366H0V8a8 8 0 018-8z"/><path id="i" d="M0 0h375v64H0z"/><rect id="a" width="860" height="422" x="0" y="0" rx="4"/></defs><g fill="none" fill-rule="evenodd"><mask id="b" fill="#fff"><use xlink:href="#a"/></mask><use fill="#000" fill-opacity="0" xlink:href="#a"/><g mask="url(#b)"><g transform="translate(243 48)"><mask id="e" fill="#fff"><use xlink:href="#c"/></mask><use fill="#000" filter="url(#d)" xlink:href="#c"/><g mask="url(#e)"><use fill="#000" filter="url(#f)" xlink:href="#g"/><use fill="#FFF" xlink:href="#g"/></g><g mask="url(#e)"><use fill="#000" filter="url(#h)" xlink:href="#i"/><use fill="#FFF" fill-opacity=".98" xlink:href="#i"/></g><path fill="#000000" fill-opacity=".87" fill-rule="nonzero" d="M355.829 36.25a3.37 3.37 0 001.15-.19c.406-.145.74-.355 1.004-.63.264-.273.434-.552.509-.836.075-.284.112-.528.112-.73 0-.212-.026-.433-.079-.664a4.568 4.568 0 00-.484-1.193 7.66 7.66 0 00-.797-1.135 9.77 9.77 0 00-1.004-1.026c-.364-.32-.732-.609-1.105-.864l-.907 1.345c.195.122.405.27.63.447.225.177.45.37.672.579.224.209.439.427.646.654.207.227.39.453.547.679.159.225.284.44.375.645.091.205.137.388.137.55v.019a.567.567 0 01-.092.307.702.702 0 01-.222.207 1.195 1.195 0 01-.307.128c-.114.03-.227.053-.341.067a3.847 3.847 0 01-.323.028 2.645 2.645 0 01-.85-.073 7.12 7.12 0 01-1.363-.475 5.076 5.076 0 01-.556-.299l-.645 1.492a6.988 6.988 0 001.451.675c.266.09.537.16.813.21.276.051.548.076.816.076.073.005.144.007.213.007zm-7.627-.067c.458 0 .89-.047 1.293-.14a3.12 3.12 0 001.06-.448c.302-.205.54-.472.715-.8.174-.329.261-.729.261-1.2 0-.263-.024-.533-.073-.809a7.945 7.945 0 00-.191-.825c-.08-.274-.17-.54-.271-.8-.102-.26-.203-.505-.305-.737l-1.406.694c.11.215.214.447.314.694a10.056 10.056 0 01.435 1.351c.045.191.067.34.067.445 0 .223-.062.402-.186.535-.124.134-.28.237-.468.308a2.432 2.432 0 01-.615.14 6.178 6.178 0 01-.618.033h-1.297v1.559h1.285zm-.055 2.836l1.035-1.035-1.047-1.047-1.035 1.041 1.047 1.041zm2.3.012l1.036-1.04-1.047-1.041-1.035 1.034 1.047 1.047zm-9.002 1.412a8.155 8.155 0 001.76-.499 6.548 6.548 0 001.536-.882c.46-.357.856-.776 1.184-1.257.329-.481.562-1.022.7-1.622h.536v-1.559h-.408a5.613 5.613 0 00-.119-.891 5.87 5.87 0 00-.246-.837 4.97 4.97 0 00-.36-.755 3.963 3.963 0 00-.462-.64c-.52-.56-1.094-.84-1.723-.84-.243 0-.47.047-.681.14-.211.094-.404.22-.579.381-.174.16-.328.345-.462.554-.134.21-.247.43-.338.664a4.243 4.243 0 00-.21.715 3.57 3.57 0 00-.073.7c0 .349.047.65.14.9a1.848 1.848 0 00.995 1.069c.234.107.49.19.767.25.278.058.573.098.886.118.312.02.633.03.962.03-.073.277-.22.552-.442.828a4.007 4.007 0 01-.861.78 6.61 6.61 0 01-1.25.66c-.482.197-1.02.354-1.617.472l.365 1.521zm3.89-5.819h-.298c-.106 0-.213-.002-.32-.006a17.709 17.709 0 00-.314-.009 3.761 3.761 0 01-.745-.085 1.54 1.54 0 01-.42-.155.898.898 0 01-.305-.274.728.728 0 01-.118-.426c0-.163.033-.329.1-.5.067-.17.151-.325.253-.465.101-.14.213-.255.335-.344a.589.589 0 01.34-.134c.114 0 .228.039.341.116.114.077.225.18.332.307.108.128.208.274.301.438a4.46 4.46 0 01.43 1.047c.046.177.076.34.088.49zm-6.921 1.546l1.595-.243c.016-.317.032-.656.048-1.02.017-.363.029-.754.037-1.174a90.143 90.143 0 00.006-2.95 45.438 45.438 0 00-.073-2.066 30.769 30.769 0 00-.213-2.219l-1.564.512c.069.67.123 1.37.164 2.103.04.732.077 1.514.11 2.346.012.361.018.749.018 1.163 0 1.026-.043 2.21-.128 3.548zm-5.655 4.432c.361-.179.718-.38 1.071-.603.353-.223.688-.465 1.005-.724.316-.26.61-.536.88-.828.27-.292.503-.6.7-.922a4.67 4.67 0 00.462-1.005c.112-.347.167-.703.167-1.068 0-.268-.022-.543-.067-.825a9.847 9.847 0 00-.173-.849c-.071-.284-.15-.565-.237-.843l-.253-.8-1.528.493c.053.178.119.383.198.615l.117.353.114.368c.075.25.14.502.192.758.053.255.08.499.08.73 0 .248-.046.493-.135.737-.09.243-.212.48-.368.712a4.456 4.456 0 01-.56.67c-.217.215-.453.42-.706.614-.254.195-.52.379-.8.551-.28.173-.565.33-.853.472l.694 1.394zm-11.157-4.42c.479 0 .902-.085 1.269-.255.367-.17.711-.414 1.032-.73a7.096 7.096 0 001.235.687c.195.073.387.131.575.174.19.042.369.064.54.064.198 0 .389-.03.571-.092a1.956 1.956 0 00.935-.663c.123-.158.224-.335.301-.53.069-.182.12-.37.155-.566a3.45 3.45 0 00.052-.602 3.66 3.66 0 00-.256-1.336 2.915 2.915 0 00-.322-.597 2.407 2.407 0 00-.454-.487 2.013 2.013 0 00-1.3-.447c-.287 0-.541.058-.76.173-.22.116-.414.266-.585.45-.17.185-.322.393-.456.625a10.56 10.56 0 00-.371.7c-.114.223-.235.446-.363.67a3.17 3.17 0 01-.444.602 2.108 2.108 0 01-.581.435c-.22.112-.477.167-.773.167h-.122v1.559h.122zm4.936-1.582c-.08 0-.17-.012-.268-.037a3.048 3.048 0 01-.53-.164 5.406 5.406 0 01-.925-.487c.155-.308.285-.563.39-.764.106-.2.197-.36.274-.48.077-.12.143-.206.198-.256a.36.36 0 01.167-.095.9.9 0 01.177-.018.75.75 0 01.329.073c.15.077.28.187.39.329.109.142.195.305.258.49a1.7 1.7 0 01.094.55v.062c0 .097-.008.186-.024.267a1.14 1.14 0 01-.095.256.631.631 0 01-.127.174.287.287 0 01-.131.076.599.599 0 01-.177.024zm-10.676-1.37l1.168-1.168-1.168-1.163-1.163 1.163 1.163 1.168zm-.201 7.14c.592 0 1.126-.057 1.6-.173a4.81 4.81 0 001.252-.48 3.715 3.715 0 001.54-1.64c.156-.33.262-.656.32-.978a5.323 5.323 0 00.078-1.154c.13.073.284.131.463.174.178.042.377.064.596.064h.201v-1.559h-.2c-.126 0-.257-.008-.393-.024a.992.992 0 01-.417-.161 1.81 1.81 0 01-.435-.426 3.997 3.997 0 01-.454-.82 45.628 45.628 0 01-.289-.69 4.829 4.829 0 00-.13-.307l-1.431.797c.004 0 .032.053.085.158a14.094 14.094 0 01.688 1.71c.077.236.143.468.198.698.054.229.086.437.094.624v.103c0 .211-.03.414-.091.609a2.35 2.35 0 01-.329.633 2.658 2.658 0 01-.517.53 3.295 3.295 0 01-.676.404 3.627 3.627 0 01-.782.25 4.257 4.257 0 01-.837.082h-.061a3.501 3.501 0 01-1.087-.192 2.937 2.937 0 01-.904-.499 2.393 2.393 0 01-.617-.764 2.126 2.126 0 01-.229-.986c0-.304.036-.607.107-.907.07-.3.155-.58.253-.84.097-.26.2-.489.307-.688.107-.199.198-.349.27-.45l-1.198-.87a6.703 6.703 0 00-1.133 3.719c0 .629.1 1.194.299 1.695.199.5.48.926.843 1.275.363.349.8.617 1.312.803a4.94 4.94 0 001.704.28z" mask="url(#e)"/><path fill="#000000" fill-opacity=".56" d="M339.68 143.045a.833.833 0 011.104.789V160.5c0 .46-.374.834-.834.834H325a.833.833 0 01-.834-.834v-5.079a.838.838 0 01-.332.08.834.834 0 01-.486-1.51v-.002l1.166-.833 4.66-3.334a.834.834 0 01.97 0l1.676 1.198v-4.686c0-.357.226-.674.564-.789zm-10.02 8.48l-3.827 2.737v5.405h7.654v-5.405l-3.828-2.738zm9.457-6.526l-5.63 1.93v5.284l1.318.942.002.002 1.163.832a.834.834 0 01-.486 1.511.834.834 0 01-.33-.079v4.246h3.963v-14.668zm-7.568 10.814a.833.833 0 110 1.666h-3.74a.833.833 0 110-1.666z" mask="url(#e)"/><path fill="#000000" fill-opacity=".56" fill-rule="nonzero" d="M307.909 157c.247 0 .48-.012.7-.037a2.77 2.77 0 00.62-.14 2.05 2.05 0 00.551-.298 2.48 2.48 0 00.497-.517c.186.138.39.273.608.405.22.131.448.243.685.334a2.63 2.63 0 00.983.198c.166 0 .333-.022.5-.067.263-.073.486-.204.669-.392.182-.189.326-.41.432-.664.105-.253.17-.486.195-.697.024-.21.036-.381.036-.511 0-.146-.01-.288-.03-.426a3.683 3.683 0 00-.216-.804 2.506 2.506 0 00-.417-.706 2.058 2.058 0 00-.63-.502 1.812 1.812 0 00-.85-.192c-.267 0-.502.054-.702.162-.201.107-.38.247-.536.42a3.21 3.21 0 00-.42.59c-.124.221-.24.445-.35.673-.126.251-.25.496-.374.733-.124.238-.27.449-.439.633a1.908 1.908 0 01-.611.445c-.24.111-.54.167-.901.167h-.122V157h.122zm4.626-1.266c-.163 0-.345-.04-.548-.122a4.697 4.697 0 01-1.01-.59l.328-.664c.102-.199.192-.371.271-.517.08-.146.154-.268.225-.365a.862.862 0 01.213-.216.408.408 0 01.229-.07c.121 0 .229.024.322.073.094.048.175.11.244.185s.128.159.176.25a1.98 1.98 0 01.189.496c.016.069.026.118.03.146.017.11.025.215.025.317a1.822 1.822 0 01-.113.615 1.035 1.035 0 01-.167.298.389.389 0 01-.201.14.878.878 0 01-.213.024zM308.03 157v-1.193h-.121c-.244 0-.445-.031-.603-.094a1.088 1.088 0 01-.396-.262 1.536 1.536 0 01-.27-.408c-.076-.16-.154-.338-.235-.533-.158-.369-.307-.723-.447-1.062a3423.239 3423.239 0 01-1.415-3.436l-1.108.463 1.923 4.626a2.31 2.31 0 01-.81.511c-.218.085-.404.135-.556.15a4.04 4.04 0 01-.344.02c-.162 0-.325-.018-.487-.054a2.792 2.792 0 01-.737-.28 3.6 3.6 0 01-.736-.542l-.688.968c.345.357.721.634 1.13.83a3.02 3.02 0 001.33.296c.287 0 .547-.017.778-.052.232-.034.446-.085.642-.152.197-.067.382-.151.554-.253a4.65 4.65 0 00.515-.353 2.1 2.1 0 00.304.314c.118.1.255.186.41.259.157.073.338.13.543.173.205.043.439.064.703.064h.121zm-11.62 0c.333 0 .655-.022.965-.067.31-.045.596-.122.855-.231.26-.11.49-.256.691-.439.201-.182.362-.411.484-.687.122-.28.183-.605.183-.974 0-.065-.002-.13-.006-.195-.029-.45-.134-.97-.317-1.558a7.904 7.904 0 00-.195-.563 12.306 12.306 0 00-.334-.786 1.498 1.498 0 01-.055-.124l-1.084.535.53 1.303a3.959 3.959 0 01.274 1.038c.008.107.012.187.012.24 0 .098-.006.189-.018.274-.02.13-.05.237-.092.323a.953.953 0 01-.34.398 1.674 1.674 0 01-.506.216c-.19.05-.397.079-.62.089-.224.01-.453.015-.688.015h-1.175V157h1.436zm-.304 2.977l.986-.987-.998-.998-.986.992.998.993zm2.496.012l.986-.992-.998-.993-.987.986.999.999zm-8.692 1.503a11.123 11.123 0 001.49-.9 7.948 7.948 0 001.288-1.142c.376-.416.677-.865.904-1.348.227-.483.341-.99.341-1.522v-.024c.101.11.208.194.32.255a1.475 1.475 0 00.624.183c.089.004.162.006.219.006h.103v-1.193h-.097c-.203 0-.389-.049-.557-.146a1.645 1.645 0 01-.484-.46 4.3 4.3 0 01-.45-.81c-.147-.33-.297-.73-.451-1.201l-1.144.353c.048.15.107.337.176.563.07.225.138.465.207.721.07.256.133.516.192.782s.102.514.13.746a2.272 2.272 0 01-.067.822 3.158 3.158 0 01-.331.785c-.148.251-.33.492-.545.721-.215.23-.45.447-.706.654a8.3 8.3 0 01-.815.582c-.289.18-.579.346-.87.496l.523 1.077zM286.312 157c.333 0 .655-.022.965-.067.31-.045.595-.122.855-.231.26-.11.49-.256.691-.439.2-.182.362-.411.484-.687.122-.28.183-.605.183-.974 0-.065-.002-.13-.007-.195-.028-.45-.133-.97-.316-1.558a7.904 7.904 0 00-.195-.563 12.306 12.306 0 00-.335-.786 1.499 1.499 0 01-.054-.124l-1.084.535.53 1.303a3.959 3.959 0 01.274 1.038c.008.107.012.187.012.24 0 .098-.006.189-.018.274-.02.13-.051.237-.092.323a.953.953 0 01-.34.398 1.674 1.674 0 01-.506.216c-.19.05-.398.079-.62.089-.224.01-.453.015-.689.015h-1.174V157h1.436zm-.304 2.977l.986-.987-.998-.998-.986.992.998.993zm2.495.012l.987-.992-.999-.993-.986.986.998.999zm-12.082-7.986l.986-.986-.998-.999-.986.992.998.993zm2.496.012l.986-.992-.999-.993-.986.987.999.998zm-1.766 5.003c2.31 0 4-.56 5.07-1.68.09.248.216.469.378.664.507.653 1.289.986 2.344.998h.17v-1.193h-.152c-.662-.004-1.134-.187-1.418-.548a1.217 1.217 0 01-.256-.511 3.023 3.023 0 01-.08-.548v-.049a5.071 5.071 0 01.137-.886c.027-.107.05-.197.07-.27l-1.156-.317c-.052.183-.112.37-.18.56-.066.191-.147.38-.243.566a3.52 3.52 0 01-.344.542 2.696 2.696 0 01-.48.481c-.419.34-.942.59-1.571.746-.629.156-1.392.234-2.289.234-1.002-.004-1.817-.11-2.444-.317-.627-.207-1.062-.519-1.305-.937a1.477 1.477 0 01-.195-.502 2.648 2.648 0 01-.043-.448c0-.052.002-.103.006-.152.009-.182.034-.357.077-.523.042-.167.086-.313.13-.438.045-.126.086-.228.122-.305a1.41 1.41 0 00.055-.122l-1.053-.578c-.02.029-.078.155-.174.38-.095.226-.193.531-.295.917-.049.182-.079.35-.091.502a4.048 4.048 0 00-.006.69c.016.212.056.423.118.634.063.21.154.416.271.615.366.616.953 1.068 1.763 1.354.81.286 1.83.433 3.064.441zm-14.17-9.136c.016-.049.041-.115.076-.198.034-.083.077-.166.128-.25.05-.083.108-.156.173-.219a.353.353 0 01.207-.106.784.784 0 01.365.024c.118.037.243.08.375.13.132.052.273.1.423.147.15.047.316.07.499.07h.036a1.3 1.3 0 00.402-.06c.138-.046.265-.102.38-.171a2.04 2.04 0 00.314-.229c.093-.083.174-.162.24-.237a2.086 2.086 0 00.217-.283l-.694-.45a3.633 3.633 0 01-.119.146c-.055.065-.122.13-.2.197-.08.067-.164.123-.253.168a.594.594 0 01-.268.067h-.025a1.359 1.359 0 01-.35-.055 3.69 3.69 0 01-.325-.116 4.624 4.624 0 00-.402-.146 1.624 1.624 0 00-.487-.067c-.174 0-.345.038-.511.113a1.693 1.693 0 00-.457.304 1.831 1.831 0 00-.548.971l.804.25zm2.24 9.118c.057-.402.09-.855.1-1.36.01-.506.016-.92.016-1.245 0-.54-.007-1.147-.019-1.82a55.828 55.828 0 00-.079-2.07 81.379 81.379 0 00-.164-2.313l-1.193.183c.057.548.107 1.221.152 2.02.045.8.081 1.733.11 2.8a27.95 27.95 0 01-.007 1.857c-.02.621-.058 1.248-.115 1.881l1.199.067zm-8.443-8.686l4.894-2.07-.286-.614-4.565 1.905-.043.779zM258.1 157c.211 0 .388-.014.53-.043.86-.158 1.47-.558 1.832-1.199.085-.154.16-.324.222-.511.063-.187.101-.354.116-.502.014-.148.021-.265.021-.35 0-.146-.012-.3-.037-.463a3.644 3.644 0 00-.219-.791 5.116 5.116 0 00-.462-.886 7.535 7.535 0 00-.761-.977 9.49 9.49 0 00-.7-.7 39.169 39.169 0 00-.651-.572l4.358-1.832-.469-1.108-5.003 2.143-.14 1.248a15.432 15.432 0 011.85 1.768c.26.294.478.57.654.828.177.257.288.47.332.636.057.219.085.424.085.614a1.495 1.495 0 01-.243.828c-.114.17-.27.302-.469.393a2.705 2.705 0 01-.657.2c-.24.043-.491.068-.755.074-.264.006-.517.009-.76.009h-.762V157h2.088zm-4.005 4.005l.76-.925a1.506 1.506 0 01-.389-.584 1.813 1.813 0 01-.103-.585 1.935 1.935 0 01.173-.77c.096-.213.22-.402.375-.569a1.92 1.92 0 01.532-.405c.201-.103.415-.159.642-.167h.17v-1.193h-.121c-.235 0-.47.035-.703.106a3.138 3.138 0 00-1.738 1.33 2.39 2.39 0 00-.359 1.425 1.43 1.43 0 01-.374-.338 4.072 4.072 0 01-.332-.478 5.661 5.661 0 01-.27-.511 11.49 11.49 0 01-.193-.432c.272-.045.532-.117.78-.216.247-.1.476-.226.687-.378a2.902 2.902 0 00.98-1.238c.073-.175.117-.35.131-.527.014-.177.021-.32.021-.43 0-.15-.008-.306-.024-.468a4.609 4.609 0 00-.173-.812 2.974 2.974 0 00-.326-.722 1.702 1.702 0 00-.466-.499 1.012 1.012 0 00-.587-.182h-.06c-.277.012-.53.095-.762.25a2.56 2.56 0 00-.624.599 4.15 4.15 0 00-.48.834c-.137.31-.25.624-.338.943-.09.319-.152.613-.186.883-.035.27-.052.5-.052.69 0 .061.002.118.006.171h-.98V157h1.206l.054.152a6.811 6.811 0 001.084 2.04c.255.332.552.653.888.961.337.308.72.593 1.15.852zm-2.015-5.259c-.06 0-.124-.004-.189-.012a2.17 2.17 0 01-.018-.292c0-.09.004-.183.012-.28.02-.211.058-.426.113-.645.055-.22.123-.435.204-.646.081-.21.172-.4.274-.569.101-.168.208-.306.32-.414a.585.585 0 01.337-.18c.183.135.316.307.399.518.083.211.124.434.122.67a2.064 2.064 0 01-.131.7 2.05 2.05 0 01-.356.617c-.153.181-.323.315-.512.402-.188.087-.38.131-.575.131zm-7.633 5.223c.268 0 .568-.019.901-.055a7.469 7.469 0 001.007-.183c.34-.085.669-.195.99-.331.32-.136.606-.304.858-.503.251-.198.454-.432.608-.7a1.854 1.854 0 00.213-1.199 1.28 1.28 0 00-.097-.316 1.74 1.74 0 00-.204-.338c-.087-.116-.2-.23-.338-.344h1.57v-1.193h-4.802l-.091 1.187.134.024a8.487 8.487 0 01.584.134c.122.033.253.07.393.11.14.04.28.085.423.134.231.085.426.17.584.255.158.086.287.166.387.24.1.076.171.147.216.214a.33.33 0 01.067.173.756.756 0 01-.204.524c-.136.15-.31.28-.52.39-.212.109-.448.201-.71.276a7.626 7.626 0 01-1.47.274 6.32 6.32 0 01-.499.028c-.203 0-.435-.004-.697-.013a4.438 4.438 0 01-.791-.097 3.022 3.022 0 01-.767-.277 1.705 1.705 0 01-.618-.55c-.256-.39-.383-.898-.383-1.523 0-.986.318-2.262.955-3.828l-1.114-.45c-.637 1.541-.982 2.864-1.034 3.968-.005.101-.007.2-.007.298 0 .889.197 1.621.59 2.198.188.316.428.57.722.764.294.192.615.341.962.447.347.105.709.175 1.086.21.378.034.743.052 1.096.052zm-8.838-3.95c.142 0 .298-.007.469-.019a4.765 4.765 0 00.992-.18c.154-.046.288-.104.401-.173.427-.227.744-.512.953-.855.209-.343.314-.715.314-1.117 0-.536-.187-1.063-.56-1.583a2.562 2.562 0 00-.53-.511 6.994 6.994 0 00-.788-.505 16.58 16.58 0 00-.974-.5 43.878 43.878 0 00-1.093-.499l-2.118-.87-.578 1.096.48.188a2.183 2.183 0 00-.626.448 2.77 2.77 0 00-.436.584 2.72 2.72 0 00-.338 1.293c0 .297.077.604.229.923.152.318.38.642.685.97a9.349 9.349 0 01-.773.074c-.15.008-.318.014-.503.018-.184.004-.398.006-.642.006h-.164V157h.164c.288 0 .587-.006.895-.018.308-.012.61-.032.907-.058.296-.026.58-.062.849-.107.27-.044.512-.099.727-.164.345.138.685.233 1.02.286.335.053.68.08 1.038.08zm-2.118-1.669a4.14 4.14 0 01-.439-.331 2.566 2.566 0 01-.362-.384 1.819 1.819 0 01-.246-.435 1.314 1.314 0 01-.092-.487c0-.183.039-.373.116-.572.077-.199.184-.378.32-.536.135-.158.28-.274.435-.347.154-.073.3-.11.438-.11.073 0 .148.009.225.025a.903.903 0 01.423.198c.108.095.191.205.25.329.059.123.097.253.115.39.019.135.028.264.028.386a2.093 2.093 0 01-.673 1.522c-.152.141-.331.26-.538.352zm2.002.5a3.13 3.13 0 01-.56-.043c.154-.162.294-.34.42-.536.126-.194.232-.392.32-.593.087-.201.155-.4.204-.6.048-.199.073-.383.073-.554 0-.121-.002-.251-.006-.39a1.766 1.766 0 00-.073-.437c.288.133.54.282.754.444.215.162.395.328.539.496.144.168.253.336.326.502.073.167.11.32.11.463 0 .166-.038.325-.113.478a1.043 1.043 0 01-.366.398 2.063 2.063 0 01-.654.271 4.07 4.07 0 01-.974.1zm-5.24 1.15v-1.193h-.122c-.256 0-.476-.026-.66-.08a.95.95 0 01-.418-.218.507.507 0 01-.161-.314 3.288 3.288 0 01-.021-.386v-3.056a42.483 42.483 0 00-.125-3.208 9.022 9.022 0 00-.095-.76l-1.193.218c.037.191.068.436.095.734.026.298.048.624.067.977.018.353.031.718.04 1.096.007.377.011.74.011 1.09a89.654 89.654 0 010 1.88 184.984 184.984 0 00-.011.837v.174c0 .073.003.155.005.246a2.35 2.35 0 00.216.886c.071.154.174.298.308.432.219.219.486.381.8.487.315.105.695.158 1.142.158h.121z" mask="url(#e)"/><path fill="#000000" fill-opacity=".12" mask="url(#e)" d="M0 112h375v1H0z"/><path fill="#EA475B" fill-rule="nonzero" mask="url(#e)" d="M186.5 110h189v2h-189zM317.291 81.58c.019-.057.048-.132.087-.227.04-.095.088-.19.146-.285.058-.095.124-.179.199-.25a.404.404 0 01.236-.122.896.896 0 01.417.028c.135.041.278.091.428.149.151.058.312.114.484.167.171.053.362.08.57.08h.042c.162 0 .315-.023.46-.07.157-.05.302-.116.434-.194.132-.08.252-.166.358-.261.107-.095.198-.186.275-.272a2.384 2.384 0 00.247-.323l-.793-.515a4.153 4.153 0 01-.136.167c-.062.074-.139.15-.23.226a1.45 1.45 0 01-.288.192.68.68 0 01-.306.076h-.028a1.553 1.553 0 01-.4-.063 4.217 4.217 0 01-.372-.132 5.284 5.284 0 00-.46-.167 1.856 1.856 0 00-.556-.076c-.2 0-.394.043-.584.129-.19.085-.364.201-.522.347a2.093 2.093 0 00-.626 1.11l.918.285zm2.56 10.42c.065-.46.103-.977.115-1.555.012-.577.017-1.051.017-1.422 0-.617-.006-1.31-.02-2.08a63.803 63.803 0 00-.09-2.366 93.008 93.008 0 00-.189-2.643l-1.363.209c.065.626.123 1.396.174 2.31.05.913.093 1.98.125 3.2a31.945 31.945 0 01-.007 2.12c-.023.71-.067 1.427-.132 2.15l1.37.077zm-5.808-7.944l1.03-1.03-1.037-1.036-1.03 1.03 1.037 1.036zm-1.573 2.198l1.127-1.134-1.14-1.14-1.127 1.133 1.14 1.14zm3.054.007l1.127-1.127-1.14-1.141-1.128 1.127 1.141 1.14zm-4.521 10.72c.39-.19.773-.405 1.15-.644.379-.238.738-.5 1.08-.782a9.21 9.21 0 00.945-.905c.29-.32.54-.656.752-1.008.21-.353.375-.718.493-1.096.119-.378.178-.769.178-1.172 0-.204-.016-.413-.049-.626a9.948 9.948 0 00-.122-.65 19.8 19.8 0 00-.16-.668 95.343 95.343 0 01-.17-.672 10.346 10.346 0 00-.174-.636c-.065-.211-.13-.426-.195-.644l-1.321.418c.125.39.243.779.354 1.168l.16.585c.056.2.107.399.153.598.047.2.085.394.115.584.03.19.045.371.045.543 0 .45-.109.886-.327 1.308-.218.422-.506.82-.866 1.196s-.768.723-1.227 1.04c-.46.318-.933.597-1.42.839l.606 1.224zm-.78-4.918c.065-.77.104-1.496.115-2.178.012-.682.018-1.226.018-1.635 0-.677-.007-1.4-.021-2.17a63.584 63.584 0 00-.355-5.064l-1.363.208c.157 1.461.282 3.316.375 5.566.014.384.021.793.021 1.224 0 .357-.005.73-.014 1.12a64.7 64.7 0 01-.146 2.852l1.37.077zm-5.55-7.653l1.133-1.133-1.14-1.141-1.135 1.134 1.141 1.14zM303.558 92c.38 0 .734-.026 1.061-.077.327-.05.623-.139.887-.264s.497-.292.7-.5c.2-.21.371-.471.51-.787.14-.32.21-.69.21-1.113 0-.074-.003-.148-.008-.222-.032-.515-.153-1.109-.362-1.781a9.033 9.033 0 00-.222-.644 14.061 14.061 0 00-.383-.897 1.713 1.713 0 01-.062-.143l-1.239.612.606 1.489c.097.237.171.463.222.678.051.216.081.385.09.508.01.123.014.215.014.275 0 .111-.006.216-.02.313a1.35 1.35 0 01-.105.369 1.245 1.245 0 01-.348.455c-.139.11-.301.192-.487.247-.185.056-.391.09-.619.101-.227.012-.475.018-.744.018h-.807V92h1.106zm-15.631 4.612a8.64 8.64 0 002.052-.323 4.259 4.259 0 001.617-.863c.453-.392.805-.9 1.058-1.527.253-.626.379-1.398.379-2.316.102.074.202.138.299.19a1.793 1.793 0 00.65.21c.123.016.266.024.428.024a2.87 2.87 0 001.117-.22c.35-.145.664-.38.942-.705.098.148.213.28.345.393.132.113.271.21.417.288.146.08.294.14.442.181.148.042.285.063.41.063a2.06 2.06 0 001.252-.403c.177-.13.333-.283.47-.46.137-.176.252-.373.344-.591.116.227.264.43.442.609a2.875 2.875 0 001.273.74c.24.066.481.098.727.098h.14v-1.363h-.14a1.3 1.3 0 01-.692-.181c-.197-.12-.37-.28-.518-.48a2.868 2.868 0 01-.372-.689 5.8 5.8 0 01-.244-.807 8.093 8.093 0 01-.143-.831 9.945 9.945 0 01-.062-.769l-1.364.097c.01.158.025.357.046.599a8.977 8.977 0 01-.01 1.593 2.92 2.92 0 01-.168.74c-.083.22-.202.4-.355.54-.153.139-.352.208-.598.208a.65.65 0 01-.445-.153 1.043 1.043 0 01-.275-.407 2.392 2.392 0 01-.142-.577 4.403 4.403 0 01-.042-.55v-.344c0-.148.002-.297.007-.445.01-.218.016-.415.02-.591l-1.412-.105c-.009.237-.017.478-.024.724a7.885 7.885 0 01-.052.716 5.015 5.015 0 01-.122.658 1.66 1.66 0 01-.24.539 1.184 1.184 0 01-.407.365c-.164.09-.37.136-.615.136-.32 0-.584-.078-.79-.233a2 2 0 01-.525-.606 4.68 4.68 0 01-.372-.827 28.728 28.728 0 00-.324-.894 14.976 14.976 0 01-.257-.675l-1.155.751c.153.399.291.799.414 1.2.123.401.212.785.268 1.151a6.918 6.918 0 01.076 1.336 5.77 5.77 0 01-.236 1.329c-.422 1.29-1.619 1.98-3.59 2.073h-.236c-.395 0-.738-.043-1.03-.129a2.925 2.925 0 01-.758-.334 2.228 2.228 0 01-.532-.466 2.962 2.962 0 01-.348-.529 2.646 2.646 0 01-.202-.518 4.285 4.285 0 01-.094-.431 4.03 4.03 0 01-.035-.814c.014-.274.046-.546.094-.817a7.884 7.884 0 01.41-1.472 5.47 5.47 0 01.244-.546c.081-.155.152-.272.212-.351L284.491 88c-.19.315-.372.666-.546 1.05-.174.385-.32.795-.438 1.228-.118.434-.191.81-.22 1.127a6.142 6.142 0 00.02 1.61c.085.566.251 1.07.5 1.514.247.443.563.82.945 1.13.383.31.82.547 1.311.71a5.052 5.052 0 001.594.243h.27zm-11.346-4.55c.065-.77.103-1.495.115-2.177.011-.682.017-1.226.017-1.635 0-.677-.007-1.4-.021-2.17a63.584 63.584 0 00-.355-5.064l-1.363.208c.157 1.461.283 3.316.375 5.566.014.384.021.793.021 1.224 0 .357-.004.73-.014 1.12a64.7 64.7 0 01-.146 2.852l1.37.077zM265.82 92c.283 0 .55-.014.8-.042.25-.028.487-.08.71-.16.222-.079.432-.192.63-.34.196-.149.385-.346.566-.592.213.158.445.312.696.463.25.15.511.278.782.382a3.005 3.005 0 001.124.226c.19 0 .38-.025.57-.076a1.66 1.66 0 00.765-.449c.21-.215.374-.468.494-.758.121-.29.195-.555.223-.797.028-.24.042-.436.042-.584 0-.167-.012-.33-.035-.487a4.21 4.21 0 00-.247-.918 2.864 2.864 0 00-.477-.807c-.199-.237-.439-.428-.72-.574a2.071 2.071 0 00-.97-.22c-.306 0-.574.062-.803.185-.23.123-.434.283-.613.48a3.668 3.668 0 00-.48.675c-.141.253-.274.509-.4.769-.143.287-.286.567-.427.838a3.398 3.398 0 01-.501.723c-.193.211-.426.38-.7.508-.273.128-.616.192-1.029.192h-.14V92h.14zm5.287-1.447c-.186 0-.394-.046-.626-.14-.348-.138-.733-.363-1.155-.674l.376-.758c.116-.227.219-.424.31-.591a3.74 3.74 0 01.257-.418.985.985 0 01.243-.247.466.466 0 01.261-.08c.14 0 .262.028.369.084.106.055.2.126.278.212.079.086.146.18.202.285a2.264 2.264 0 01.215.567c.019.079.03.135.035.167.019.125.028.246.028.362a2.082 2.082 0 01-.129.703c-.053.138-.117.252-.191.34a.444.444 0 01-.23.16 1.003 1.003 0 01-.243.028zm-11.917 1.962c.089 0 .179-.003.272-.007a7.422 7.422 0 001.28-.153 6.814 6.814 0 001.558-.57 4.24 4.24 0 001.197-.94c.171.278.365.495.58.65.216.156.424.27.623.345.2.074.377.12.532.136.156.016.259.024.31.024h.417v-1.363h-.139c-.19 0-.371-.027-.543-.08a1.282 1.282 0 01-.462-.258 1.367 1.367 0 01-.338-.456 1.972 1.972 0 01-.167-.674l-.104-1.232a1437.162 1437.162 0 01-.223-2.598l-.104-1.228-.09-1.085a568.086 568.086 0 00-.122-1.45 9.724 9.724 0 01-.017-.226l-1.364.146.031.323c.021.211.05.494.084.849.035.355.073.766.115 1.235l.132 1.485a134.832 134.832 0 01.243 3.169 1.577 1.577 0 01-.034.598 1.95 1.95 0 01-.234.542c-.104.167-.231.32-.382.46-.15.139-.317.26-.498.361a14.034 14.034 0 00-.765-2.39 25.634 25.634 0 00-1.37-2.778 31.608 31.608 0 00-1.21-2.007 27.531 27.531 0 00-.394-.588 2.885 2.885 0 01-.156-.237l-1.12.793a41.685 41.685 0 01.508.751c.153.232.327.508.521.828.195.32.4.67.613 1.047.213.378.426.778.64 1.2.213.422.413.851.601 1.287.188.436.354.873.498 1.312.143.438.252.861.327 1.27a5.072 5.072 0 01-.856.128c-.209.007-.348.01-.417.01a3.87 3.87 0 01-.759-.07l-.236 1.357c.338.056.68.084 1.022.084zm-11.186-.536c.311 0 .64-.006.985-.017.345-.012.694-.037 1.047-.077.352-.04.703-.094 1.054-.163.35-.07.685-.164 1.005-.282.32-.118.619-.264.897-.438s.524-.382.738-.623c.287-.413.455-.757.504-1.033.049-.276.073-.49.073-.643 0-.223-.028-.441-.084-.654a3.478 3.478 0 00-.497-1.058 8.094 8.094 0 00-.824-1.012 14.258 14.258 0 00-1.026-.974c-.369-.317-.737-.632-1.103-.942l5.3-2.22-.535-1.266-5.982 2.498-.174 1.593c.157.139.343.295.556.47.214.173.437.359.672.556.234.197.47.403.706.619.236.216.458.436.664.66.206.226.388.452.546.68.158.226.267.433.327.618.06.186.09.35.09.494 0 .065-.004.13-.013.195a1.144 1.144 0 01-.3.591c-.357.39-.902.668-1.634.835-.733.167-1.575.25-2.526.25-.143 0-.292-.002-.445-.006a16.919 16.919 0 01-1.791-.126 9.864 9.864 0 01-1.433-.281 4.003 4.003 0 01-1.037-.439c-.276-.174-.476-.372-.601-.594a.882.882 0 01-.098-.425v-.09c.014-.195.056-.4.125-.612.07-.214.157-.426.261-.637a8.49 8.49 0 01.31-.574l-1.1-.814-.086.122a3.427 3.427 0 00-.153.243c-.058.1-.122.218-.192.355-.07.137-.134.289-.194.456-.25.598-.377 1.02-.38 1.266l-.002.283-.001.114c0 .44.093.83.278 1.168.195.353.483.652.863.898.38.245.832.445 1.356.598.524.153 1.112.264 1.764.334.652.07 1.348.104 2.09.104z"/><path fill="#000000" fill-opacity=".56" fill-rule="nonzero" d="M131.83 92c.7 0 1.394-.065 2.08-.195.687-.13 1.351-.298 1.993-.504a19.848 19.848 0 001.844-.692c.587-.255 1.135-.51 1.645-.766.348-.171.682-.335 1.002-.49.32-.155.642-.3.967-.435l-.264-1.321c-.288 0-.573-.03-.856-.09a6.842 6.842 0 01-.849-.24 11.25 11.25 0 01-.845-.338 39.2 39.2 0 01-.831-.383c-.25-.116-.499-.23-.745-.34-.245-.112-.487-.21-.723-.296a5.637 5.637 0 00-.7-.206 3.12 3.12 0 00-.678-.076c-.45 0-.877.109-1.283.327-.406.218-.79.545-1.151.98a4.72 4.72 0 00-.33.439c-.096.144-.177.271-.244.383a3.542 3.542 0 00-.212.396l1.252.564a3.686 3.686 0 01.257-.456c.084-.128.183-.264.3-.41.115-.147.246-.283.392-.411.146-.128.305-.233.477-.317.171-.083.352-.125.542-.125.144 0 .302.022.473.066.172.044.354.104.547.178.192.074.391.159.598.254l.636.295c.283.135.57.267.863.397.292.13.598.25.918.362-.528.264-1.078.521-1.648.772-.57.25-1.155.473-1.754.668-.598.194-1.205.35-1.822.47a9.807 9.807 0 01-1.85.177h-1.51V92h1.51zm-10.003.02c.227 0 .444-.033.65-.1.207-.067.402-.162.585-.285.183-.123.352-.267.508-.432.155-.164.295-.344.42-.539.172.413.432.739.78.978.347.239.753.358 1.217.358.236 0 .46-.035.668-.104a2.24 2.24 0 001.057-.745c.14-.176.255-.373.348-.591.12.223.267.422.438.598.172.176.36.327.567.452.207.126.426.222.658.29.231.066.468.1.71.1h.166v-1.363h-.167c-.334 0-.636-.14-.908-.421-.271-.28-.5-.706-.685-1.277a5.48 5.48 0 01-.163-.591 9.327 9.327 0 01-.16-1.012c-.017-.156-.032-.31-.046-.463l-1.363.111c.01.167.017.341.024.522a12.379 12.379 0 01.004.863 7.77 7.77 0 01-.07.803 3.115 3.115 0 01-.184.724c-.086.215-.2.39-.344.521a.78.78 0 01-.55.199c-.232 0-.415-.063-.55-.188a1.1 1.1 0 01-.295-.487c-.063-.2-.098-.38-.105-.543a5.315 5.315 0 01.017-.897c.02-.255.047-.499.084-.73.037-.232.068-.43.09-.592l-1.356-.257c-.023.213-.057.453-.1.72a8.21 8.21 0 01-.442 1.617 3.239 3.239 0 01-.37.703c-.143.204-.309.368-.497.494-.187.125-.4.187-.636.187-.19 0-.335-.064-.435-.194a.958.958 0 01-.188-.449 3.207 3.207 0 01-.031-.74c.014-.251.04-.498.08-.742.04-.243.081-.47.125-.678.044-.209.08-.371.108-.487l-1.336-.369c-.027.112-.058.244-.09.397a7.058 7.058 0 01-.129.504 9.976 9.976 0 01-.191.585 5.792 5.792 0 01-.271.63c-.102.19-.22.376-.355.56a3.353 3.353 0 01-.442.493c-.16.146-.331.263-.515.351a1.294 1.294 0 01-.567.133h-.146V92h.146a2.578 2.578 0 001.37-.38c.196-.117.374-.26.537-.427.162-.167.315-.352.459-.556a1.903 1.903 0 001.241 1.286c.202.065.412.098.63.098zm-4.104-.02v-1.363h-.14a2.77 2.77 0 01-.754-.09c-.211-.061-.37-.145-.477-.251a.58.58 0 01-.184-.359 3.758 3.758 0 01-.025-.441v-3.493a48.553 48.553 0 00-.066-2.546 31.39 31.39 0 00-.076-1.12c-.03-.343-.066-.633-.108-.87l-1.363.251c.041.218.077.498.107.839.03.34.056.713.077 1.116.02.404.036.82.045 1.252.01.432.014.847.014 1.245.005.409.007.796.007 1.162v.27c-.001.263-.003.502-.007.718a211.587 211.587 0 00-.013.957v.198c0 .084.003.178.006.282a2.686 2.686 0 00.247 1.012c.081.176.198.34.351.494.25.25.556.436.915.556.36.12.794.181 1.304.181h.14zm-11.444 0c.264 0 .543-.012.835-.035a14.996 14.996 0 003.096-.56c.32-.095.619-.2.897-.316.278-.116.522-.24.73-.369.218-.14.386-.277.505-.414a1.11 1.11 0 00.236-.407 1.383 1.383 0 00.052-.542 4.954 4.954 0 00-.11-.634 6.504 6.504 0 00-.345-1.053 12.893 12.893 0 00-.435-.933c-.144-.276-.27-.5-.38-.674a8.814 8.814 0 01-.177-.29l-1.154.752a8.29 8.29 0 01.33.525c.09.156.19.334.296.536.106.202.207.414.302.637.095.222.179.448.25.678.073.23.118.449.136.657-.39.218-.81.396-1.262.532-.452.137-.908.245-1.367.324-.46.079-.91.133-1.35.163-.44.03-.844.046-1.21.046-1.299-.005-2.354-.13-3.165-.373-.812-.243-1.331-.592-1.559-1.047a1.365 1.365 0 01-.139-.619c0-.255.056-.535.167-.841a2.687 2.687 0 01.209-.477 5.521 5.521 0 01.243-.4l-1.106-.82-.076.114a5.56 5.56 0 00-.345.609 6.33 6.33 0 00-.198.459c-.18.478-.271.937-.271 1.377 0 .44.097.849.292 1.225.343.69.993 1.222 1.948 1.593 1.006.37 2.34.563 4 .577h.125zm-.153 3.624l1.134-1.134-1.14-1.14-1.135 1.133 1.141 1.141zM89.263 82.748l1.03-1.03-1.036-1.036-1.03 1.03 1.036 1.036zm-1.572 2.198l1.127-1.134-1.14-1.14-1.128 1.133 1.141 1.141zm3.054.007l1.127-1.127-1.14-1.14-1.128 1.126 1.141 1.141zm.237 7.13c.431 0 .809-.06 1.134-.18.334-.121.612-.295.834-.522.223-.227.39-.502.501-.824a3.3 3.3 0 00.167-1.082c0-.265-.024-.536-.073-.814a7.696 7.696 0 00-.188-.814 12.239 12.239 0 00-.859-2.17l-1.217.64a12.273 12.273 0 01.588 1.422c.1.295.185.595.257.901.072.306.108.591.108.856a2 2 0 01-.07.55.93.93 0 01-.226.403.764.764 0 01-.355.212 1.566 1.566 0 01-.4.052c-.078 0-.162-.005-.25-.014a.65.65 0 01-.351-.136.847.847 0 01-.23-.292 1.47 1.47 0 01-.125-.41 3.026 3.026 0 01-.038-.49c0-.19.014-.408.041-.651.028-.243.06-.473.094-.689.035-.215.066-.4.094-.553l.035-.222-1.336-.244c-.027.19-.066.414-.114.671a9.558 9.558 0 01-.188.797 7.21 7.21 0 01-.278.807c-.11.264-.237.5-.383.71a2.008 2.008 0 01-.501.507c-.188.13-.4.195-.636.195a.735.735 0 01-.37-.083.622.622 0 01-.229-.223.974.974 0 01-.118-.316 1.894 1.894 0 01-.035-.366c0-.18.019-.377.056-.588.037-.21.081-.417.132-.619a12.77 12.77 0 01.292-.998l-1.377-.292c-.047.227-.102.468-.167.723a7.784 7.784 0 01-.237.762 5.556 5.556 0 01-.327.727 2.873 2.873 0 01-.441.616c-.17.178-.363.322-.581.431a1.626 1.626 0 01-.738.164h-.153V92h.146c.27 0 .516-.022.741-.066a2.704 2.704 0 001.13-.494c.158-.118.307-.252.446-.4.074.172.18.322.316.452.137.13.29.239.456.327.167.088.342.154.525.198.184.044.36.066.533.066.394 0 .767-.095 1.12-.285.352-.19.667-.447.946-.772.097.148.215.286.354.414.14.128.29.239.453.334.162.095.332.17.51.226.18.056.357.083.533.083h.049zm-15.91-7.77l1.134-1.134-1.14-1.14-1.135 1.133 1.141 1.141zM72.13 92c.723 0 1.407-.054 2.052-.163a14.231 14.231 0 001.833-.432c.577-.178 1.126-.38 1.645-.605.52-.225 1.018-.456 1.496-.692.116.297.288.562.518.796.23.235.503.433.82.595.318.162.677.287 1.076.372.398.086.827.129 1.287.129h.146v-1.363h-.146c-.084 0-.195-.004-.334-.01a4.039 4.039 0 01-.46-.053 4.861 4.861 0 01-.51-.115 2.302 2.302 0 01-.495-.202 1.718 1.718 0 01-.41-.313 1.06 1.06 0 01-.254-.448c.213-.107.424-.207.633-.3l.633-.278-.264-1.321c-.288 0-.573-.03-.856-.09a6.842 6.842 0 01-.849-.24 11.25 11.25 0 01-.845-.338 39.2 39.2 0 01-.831-.383c-.25-.116-.499-.23-.745-.34-.245-.112-.487-.21-.723-.296a5.637 5.637 0 00-.7-.206 3.12 3.12 0 00-.677-.076c-.45 0-.878.109-1.284.327-.406.218-.79.545-1.151.98a4.72 4.72 0 00-.33.439c-.096.144-.177.271-.244.383a3.542 3.542 0 00-.212.396l1.252.564a.05.05 0 01.004-.012l.033-.067.029-.057c.044-.086.108-.193.191-.32.084-.128.183-.264.3-.41.115-.147.246-.283.392-.411.147-.128.305-.233.477-.317.172-.083.352-.125.543-.125.143 0 .301.022.473.066.171.044.353.104.546.178.192.074.392.159.598.254.206.095.419.193.636.295.283.135.57.267.863.397.292.13.598.25.918.362a57.07 57.07 0 01-1.607.772c-.542.25-1.102.473-1.68.668a13.45 13.45 0 01-1.805.47 10.67 10.67 0 01-1.982.177h-1.002V92h1.002zm-7.52.14c.315 0 .648-.01.998-.029.35-.018.706-.055 1.068-.111h4.73v-1.363h-1.739c.213-.237.39-.51.529-.821.139-.311.215-.67.23-1.079v-.097c0-.301-.04-.582-.119-.842a2.648 2.648 0 00-1.002-1.37 2.933 2.933 0 00-.775-.39 2.904 2.904 0 00-.693-.156 7.311 7.311 0 00-.347-.018c-.26 0-.522.03-.787.09-.575.13-1.102.33-1.582.599-.48.269-.917.59-1.311.964-.395.373-.75.79-1.065 1.252a10.63 10.63 0 00-.835 1.457 2.046 2.046 0 01-.313-.682 2.943 2.943 0 01-.083-.688v-.049c0-.241.023-.475.07-.703.046-.227.097-.436.153-.626l-1.315-.396c-.06.18-.112.364-.153.55-.042.185-.081.377-.119.577-.074.352-.15.68-.23.98-.078.302-.199.564-.36.787-.052.07-.118.142-.2.219a1.281 1.281 0 01-.323.212c-.134.065-.299.12-.494.163a3.229 3.229 0 01-.702.067h-.16V92h.202c.64-.005 1.186-.102 1.638-.292.452-.19.824-.49 1.116-.898.255.33.517.584.786.762.27.179.562.31.877.393.315.084.662.134 1.04.15.378.016.801.024 1.27.024zm0-1.406h-.307c-.412-.01-.772-.023-1.078-.042.255-.464.517-.884.786-1.262.27-.378.553-.71.852-.995.3-.285.62-.524.964-.717a4.046 4.046 0 011.113-.42 2.1 2.1 0 01.88 0c.155.032.307.082.456.149a1.297 1.297 0 01.671.66c.072.156.108.336.108.54v.028c0 .357-.098.658-.292.904-.2.25-.464.455-.793.612a4.53 4.53 0 01-1.124.355 9.72 9.72 0 01-1.196.153c-.378.023-.725.035-1.04.035zm-12.947 5.802c.307 0 .65-.021 1.03-.063.38-.042.764-.111 1.151-.209a7.705 7.705 0 001.13-.379c.367-.155.694-.346.982-.574.287-.227.52-.494.695-.8a2.118 2.118 0 00.244-1.37 1.463 1.463 0 00-.112-.362 1.988 1.988 0 00-.233-.386 2.356 2.356 0 00-.386-.393h1.795v-1.363H52.47l-.104 1.356.153.028a9.7 9.7 0 01.668.153c.14.037.289.079.449.125.16.047.32.098.483.153.264.098.487.195.668.292.18.098.328.19.442.275.113.086.196.167.247.244a.377.377 0 01.076.198.864.864 0 01-.233.598c-.155.172-.353.32-.595.445a4.37 4.37 0 01-.81.317 8.716 8.716 0 01-1.68.313c-.246.02-.436.031-.57.031-.232 0-.498-.004-.797-.014-.3-.009-.6-.046-.904-.111a3.453 3.453 0 01-.877-.317 1.949 1.949 0 01-.706-.63c-.292-.444-.438-1.024-.438-1.738 0-1.127.364-2.586 1.092-4.376l-1.273-.515c-.728 1.763-1.122 3.275-1.183 4.536a8.53 8.53 0 00-.007.34c0 1.017.225 1.854.675 2.512.213.362.488.653.824.873.337.22.703.39 1.1.512.396.12.81.2 1.241.24.432.039.849.059 1.252.059z" mask="url(#e)"/><path fill="#000000" fill-opacity=".56" d="M330.192 200.245a5.533 5.533 0 015.527 5.526v1.062h3.948v-1.602a2.75 2.75 0 00-2.747-2.745h-.04a.436.436 0 01-.402-.226 7.155 7.155 0 00-.696-1.023.17.17 0 01.086-.271c.338-.09.687-.147 1.052-.147h.003l.214.005a4.418 4.418 0 014.196 4.407v2.435c0 .461-.372.834-.833.834h-5.614a.833.833 0 01-.834-.834v-1.895a3.864 3.864 0 00-3.86-3.86 3.864 3.864 0 00-3.859 3.86v1.062h5.217a.835.835 0 010 1.67h-.834v-.003H325.5a.833.833 0 01-.833-.834v-1.895a5.532 5.532 0 015.526-5.526zm6.709-6.093c1.378 0 2.5 1.122 2.5 2.5s-1.122 2.5-2.5 2.5a2.503 2.503 0 01-2.5-2.5c0-1.378 1.121-2.5 2.5-2.5zm-6.709-.577c1.379 0 2.5 1.122 2.5 2.5 0 1.379-1.121 2.5-2.5 2.5a2.503 2.503 0 01-2.5-2.5c0-1.378 1.122-2.5 2.5-2.5zm6.709 2.244a.833.833 0 100 1.666.833.833 0 000-1.667zm-6.709-.577a.834.834 0 10.001 1.667.834.834 0 000-1.667z" mask="url(#e)"/><path fill="#000000" fill-opacity=".56" fill-rule="nonzero" d="M307.909 205c.247 0 .48-.012.7-.037a2.77 2.77 0 00.62-.14 2.05 2.05 0 00.551-.298 2.48 2.48 0 00.497-.517c.186.138.39.273.608.405.22.131.448.243.685.334a2.63 2.63 0 00.983.198c.166 0 .333-.022.5-.067.263-.073.486-.204.669-.392.182-.189.326-.41.432-.664.105-.253.17-.486.195-.697.024-.21.036-.381.036-.511 0-.146-.01-.288-.03-.426a3.683 3.683 0 00-.216-.804 2.506 2.506 0 00-.417-.706 2.058 2.058 0 00-.63-.502 1.812 1.812 0 00-.85-.192c-.267 0-.502.054-.702.162-.201.107-.38.247-.536.42a3.21 3.21 0 00-.42.59c-.124.221-.24.445-.35.673-.126.251-.25.496-.374.733-.124.238-.27.449-.439.633a1.908 1.908 0 01-.611.445c-.24.111-.54.167-.901.167h-.122V205h.122zm4.626-1.266c-.163 0-.345-.04-.548-.122a4.697 4.697 0 01-1.01-.59l.328-.664c.102-.199.192-.371.271-.517.08-.146.154-.268.225-.365a.862.862 0 01.213-.216.408.408 0 01.229-.07c.121 0 .229.024.322.073.094.048.175.11.244.185s.128.159.176.25a1.98 1.98 0 01.189.496c.016.069.026.118.03.146.017.11.025.215.025.317a1.822 1.822 0 01-.113.615 1.035 1.035 0 01-.167.298.389.389 0 01-.201.14.878.878 0 01-.213.024zM308.03 205v-1.193h-.121c-.244 0-.445-.031-.603-.094a1.088 1.088 0 01-.396-.262 1.536 1.536 0 01-.27-.408c-.076-.16-.154-.338-.235-.533-.158-.369-.307-.723-.447-1.062a3423.239 3423.239 0 01-1.415-3.436l-1.108.463 1.923 4.626a2.31 2.31 0 01-.81.511c-.218.085-.404.135-.556.15a4.04 4.04 0 01-.344.02c-.162 0-.325-.018-.487-.054a2.792 2.792 0 01-.737-.28 3.6 3.6 0 01-.736-.542l-.688.968c.345.357.721.634 1.13.83a3.02 3.02 0 001.33.296c.287 0 .547-.017.778-.052.232-.034.446-.085.642-.152.197-.067.382-.151.554-.253a4.65 4.65 0 00.515-.353 2.1 2.1 0 00.304.314c.118.1.255.186.41.259.157.073.338.13.543.173.205.043.439.064.703.064h.121zm-11.62 0c.333 0 .655-.022.965-.067.31-.045.596-.122.855-.231.26-.11.49-.256.691-.439.201-.182.362-.411.484-.687.122-.28.183-.605.183-.974 0-.065-.002-.13-.006-.195-.029-.45-.134-.97-.317-1.558a7.904 7.904 0 00-.195-.563 12.306 12.306 0 00-.334-.786 1.498 1.498 0 01-.055-.124l-1.084.535.53 1.303a3.959 3.959 0 01.274 1.038c.008.107.012.187.012.24 0 .098-.006.189-.018.274-.02.13-.05.237-.092.323a.953.953 0 01-.34.398 1.674 1.674 0 01-.506.216c-.19.05-.397.079-.62.089-.224.01-.453.015-.688.015h-1.175V205h1.436zm-.304 2.977l.986-.987-.998-.998-.986.992.998.993zm2.496.012l.986-.992-.998-.993-.987.986.999.999zm-8.692 1.503a11.123 11.123 0 001.49-.9 7.948 7.948 0 001.288-1.142c.376-.416.677-.865.904-1.348.227-.483.341-.99.341-1.522v-.024c.101.11.208.194.32.255a1.475 1.475 0 00.624.183c.089.004.162.006.219.006h.103v-1.193h-.097c-.203 0-.389-.049-.557-.146a1.645 1.645 0 01-.484-.46 4.3 4.3 0 01-.45-.81c-.147-.33-.297-.73-.451-1.201l-1.144.353c.048.15.107.337.176.563.07.225.138.465.207.721.07.256.133.516.192.782s.102.514.13.746a2.272 2.272 0 01-.067.822 3.158 3.158 0 01-.331.785c-.148.251-.33.492-.545.721-.215.23-.45.447-.706.654a8.3 8.3 0 01-.815.582c-.289.18-.579.346-.87.496l.523 1.077zM286.312 205c.333 0 .655-.022.965-.067.31-.045.595-.122.855-.231.26-.11.49-.256.691-.439.2-.182.362-.411.484-.687.122-.28.183-.605.183-.974 0-.065-.002-.13-.007-.195-.028-.45-.133-.97-.316-1.558a7.904 7.904 0 00-.195-.563 12.306 12.306 0 00-.335-.786 1.499 1.499 0 01-.054-.124l-1.084.535.53 1.303a3.959 3.959 0 01.274 1.038c.008.107.012.187.012.24 0 .098-.006.189-.018.274-.02.13-.051.237-.092.323a.953.953 0 01-.34.398 1.674 1.674 0 01-.506.216c-.19.05-.398.079-.62.089-.224.01-.453.015-.689.015h-1.174V205h1.436zm-.304 2.977l.986-.987-.998-.998-.986.992.998.993zm2.495.012l.987-.992-.999-.993-.986.986.998.999zm-12.082-7.986l.986-.986-.998-.999-.986.992.998.993zm2.496.012l.986-.992-.999-.993-.986.987.999.998zm-1.766 5.003c2.31 0 4-.56 5.07-1.68.09.248.216.469.378.664.507.653 1.289.986 2.344.998h.17v-1.193h-.152c-.662-.004-1.134-.187-1.418-.548a1.217 1.217 0 01-.256-.511 3.023 3.023 0 01-.08-.548v-.049a5.071 5.071 0 01.137-.886c.027-.107.05-.197.07-.27l-1.156-.317c-.052.183-.112.37-.18.56-.066.191-.147.38-.243.566a3.52 3.52 0 01-.344.542 2.696 2.696 0 01-.48.481c-.419.34-.942.59-1.571.746-.629.156-1.392.234-2.289.234-1.002-.004-1.817-.11-2.444-.317-.627-.207-1.062-.519-1.305-.937a1.477 1.477 0 01-.195-.502 2.648 2.648 0 01-.043-.448c0-.052.002-.103.006-.152.009-.182.034-.357.077-.523.042-.167.086-.313.13-.438.045-.126.086-.228.122-.305a1.41 1.41 0 00.055-.122l-1.053-.578c-.02.029-.078.155-.174.38-.095.226-.193.531-.295.917-.049.182-.079.35-.091.502a4.048 4.048 0 00-.006.69c.016.212.056.423.118.634.063.21.154.416.271.615.366.616.953 1.068 1.763 1.354.81.286 1.83.433 3.064.441zM259.572 205c.248 0 .481-.012.7-.037a2.77 2.77 0 00.621-.14 2.05 2.05 0 00.55-.298 2.48 2.48 0 00.497-.517c.187.138.39.273.609.405.219.131.447.243.684.334a2.63 2.63 0 00.984.198c.166 0 .332-.022.499-.067.263-.073.487-.204.67-.392.182-.189.326-.41.431-.664.106-.253.17-.486.195-.697.025-.21.037-.381.037-.511 0-.146-.01-.288-.03-.426a3.683 3.683 0 00-.217-.804 2.506 2.506 0 00-.417-.706 2.058 2.058 0 00-.63-.502 1.812 1.812 0 00-.849-.192c-.268 0-.502.054-.703.162-.2.107-.38.247-.536.42a3.21 3.21 0 00-.42.59c-.123.221-.24.445-.35.673-.125.251-.25.496-.374.733-.124.238-.27.449-.438.633a1.908 1.908 0 01-.612.445c-.24.111-.54.167-.9.167h-.123V205h.122zm4.626-1.266c-.162 0-.345-.04-.548-.122a4.697 4.697 0 01-1.01-.59l.329-.664c.101-.199.191-.371.27-.517.08-.146.155-.268.226-.365a.862.862 0 01.213-.216.408.408 0 01.228-.07c.122 0 .23.024.323.073.093.048.174.11.243.185.07.075.128.159.177.25a1.98 1.98 0 01.188.496c.017.069.027.118.03.146.017.11.025.215.025.317a1.822 1.822 0 01-.113.615 1.035 1.035 0 01-.167.298.389.389 0 01-.2.14.878.878 0 01-.214.024zm-9.806-6.264l.901-.9-.907-.907-.9.9.906.907zm-1.375 1.924l.986-.992-.999-.999-.986.993.999.998zm2.672.006l.986-.986-.998-.998-.987.986.999.998zm-3.67 5.618c.198 0 .388-.03.568-.088.181-.059.351-.142.512-.25.16-.107.308-.233.444-.377s.259-.301.368-.472c.15.361.378.647.682.856.304.209.66.313 1.065.313.207 0 .402-.03.585-.091a1.96 1.96 0 00.925-.652c.122-.154.223-.326.304-.517.106.195.234.37.384.523.15.155.315.287.496.396.18.11.372.194.575.253.203.059.41.088.62.088h.147v-1.193h-.146c-.292 0-.557-.123-.795-.368-.237-.246-.437-.618-.6-1.117a4.796 4.796 0 01-.142-.518 8.161 8.161 0 01-.14-.885c-.014-.136-.028-.271-.04-.405l-1.193.097.022.457a10.833 10.833 0 01.003.755c-.009.235-.029.47-.061.703a2.725 2.725 0 01-.162.633 1.22 1.22 0 01-.3.456.683.683 0 01-.482.174c-.203 0-.363-.055-.48-.165a.962.962 0 01-.26-.426 1.87 1.87 0 01-.09-.475 4.65 4.65 0 01.015-.785c.016-.223.04-.436.073-.639l.079-.517-1.187-.225c-.02.186-.05.396-.088.63a7.183 7.183 0 01-.387 1.415c-.09.231-.197.436-.323.615a1.66 1.66 0 01-.435.432.981.981 0 01-.557.164.45.45 0 01-.38-.17.838.838 0 01-.165-.393 2.806 2.806 0 01-.027-.648c.012-.22.036-.435.07-.649a12.743 12.743 0 01.204-1.02l-1.169-.322c-.024.098-.05.213-.079.347a6.176 6.176 0 01-.112.442 8.73 8.73 0 01-.168.51c-.065.181-.144.365-.237.552a4.12 4.12 0 01-.31.49c-.118.16-.247.304-.387.432s-.29.23-.45.307c-.16.077-.326.116-.497.116h-.128V205h.128a2.256 2.256 0 001.2-.332 2.36 2.36 0 00.468-.374c.142-.146.276-.308.402-.487a1.665 1.665 0 001.637 1.211zm-3.592-.018v-1.193h-.122c-.255 0-.476-.026-.66-.08a.95.95 0 01-.417-.218.507.507 0 01-.161-.314 3.288 3.288 0 01-.022-.386v-3.056a42.483 42.483 0 00-.125-3.208 9.022 9.022 0 00-.094-.76l-1.193.218c.037.191.068.436.094.734.027.298.05.624.067.977.019.353.032.718.04 1.096.008.377.012.74.012 1.09a89.654 89.654 0 010 1.88 184.943 184.943 0 00-.012.907c0 .097.002.214.006.35a2.35 2.35 0 00.216.886c.071.154.174.298.307.432.22.219.486.381.8.487.315.105.696.158 1.142.158h.122zm-9.733 4.273a7.348 7.348 0 001.23-.301 7.003 7.003 0 001.147-.505c.363-.201.702-.436 1.016-.704.315-.267.592-.566.831-.894.24-.329.436-.687.59-1.075.155-.387.254-.804.299-1.25a5.637 5.637 0 00.006-1.108 6.03 6.03 0 00-.2-1.066 5.049 5.049 0 00-.381-.958 3.741 3.741 0 00-.545-.789c-.483-.519-1.013-.779-1.589-.779-.26 0-.51.066-.751.198a2.284 2.284 0 00-.673.581c-.17.22-.319.48-.444.783a3.435 3.435 0 00-.24.81 4.237 4.237 0 00-.053.587c0 .162.015.324.043.487.049.308.166.58.353.815.422.524 1.073.812 1.954.865.223.02.423.03.6.03h.69c-.044.304-.169.614-.374.928a3.805 3.805 0 01-.837.892c-.353.28-.777.532-1.272.755a7.854 7.854 0 01-1.68.523l.28 1.175zm3.342-5.479h-.098c-.178 0-.369-.005-.572-.017a3.068 3.068 0 01-.259-.028c-.099-.014-.2-.036-.304-.067a1.43 1.43 0 01-.292-.122.716.716 0 01-.228-.197.57.57 0 01-.125-.29 2.13 2.13 0 01-.021-.27 2.765 2.765 0 01.344-1.272c.083-.143.177-.26.282-.35a.505.505 0 01.335-.138c.073 0 .142.013.207.037a.94.94 0 01.186.094c.059.039.113.082.164.128.05.047.097.09.137.131.102.118.2.257.295.417.096.16.182.34.26.539.076.199.14.414.188.645.048.231.079.477.091.736a7.117 7.117 0 01-.59.024zm-8.845 5.564c.341-.166.677-.354 1.008-.563.33-.209.645-.437.943-.685.298-.247.574-.51.828-.79s.473-.575.657-.883c.185-.309.33-.628.433-.96.103-.33.155-.672.155-1.025 0-.178-.014-.361-.043-.548a8.704 8.704 0 00-.106-.569c-.043-.193-.09-.387-.14-.584l-.15-.588a9.053 9.053 0 00-.152-.556 65.409 65.409 0 01-.17-.564l-1.157.366c.11.34.213.681.31 1.022l.14.512c.05.174.094.349.135.523.04.175.074.345.1.511.027.167.04.325.04.475 0 .394-.096.775-.286 1.145a4.51 4.51 0 01-.758 1.046 6.964 6.964 0 01-1.075.91 9.912 9.912 0 01-1.241.734l.53 1.071zm-.681-4.303a28.5 28.5 0 00.1-1.905c.01-.597.015-1.074.015-1.43 0-.593-.006-1.226-.018-1.9a55.636 55.636 0 00-.31-4.431l-1.194.182c.138 1.279.248 2.902.33 4.87.011.337.017.694.017 1.071 0 .313-.004.64-.012.98-.02.755-.063 1.587-.128 2.496l1.2.067zm-7.256-2.995l.992-.992-.998-.998-.992.992.998.998zm-.268 7.122c.5 0 .973-.053 1.421-.159a4.386 4.386 0 001.227-.483c.37-.218.693-.492.97-.825.279-.333.495-.729.649-1.187.146-.438.225-.788.237-1.05.013-.262.019-.437.019-.527a6.278 6.278 0 00-.344-2.066 9.757 9.757 0 00-.347-.889 6.902 6.902 0 00-.46-.867l-1.01.645a.39.39 0 01.043.065l.07.114c.07.12.153.285.246.494.093.209.188.454.283.736a5.788 5.788 0 01.301 1.854v.073a3.791 3.791 0 01-.176 1.053c-.09.284-.223.538-.402.764-.179.225-.4.415-.663.572-.264.156-.57.275-.92.356a5.17 5.17 0 01-1.168.122c-.345 0-.653-.038-.922-.113a2.885 2.885 0 01-.707-.292c-.2-.12-.372-.255-.514-.405a2.65 2.65 0 01-.353-.46 2.218 2.218 0 01-.21-.45 2.4 2.4 0 01-.094-.38 3.57 3.57 0 01-.03-.719c.011-.243.039-.483.081-.718.043-.235.097-.462.162-.679.065-.217.133-.417.204-.6.07-.182.14-.341.21-.477.069-.136.13-.24.182-.314l-.968-.712a8.651 8.651 0 00-.477.922c-.153.34-.28.697-.384 1.075a5.673 5.673 0 00-.192.983 5.374 5.374 0 00.018 1.41c.082.53.24.993.472 1.387.234.393.527.72.88.977s.756.45 1.208.578c.453.128.939.192 1.458.192z" mask="url(#e)"/><path fill="#000000" fill-opacity=".56" d="M337.167 240.633c.46 0 .833.373.833.833v.834h.833c1.379 0 2.5 1.121 2.5 2.5v10c0 1.378-1.121 2.5-2.5 2.5h-11.666a2.503 2.503 0 01-2.5-2.5v-10c0-1.379 1.121-2.5 2.5-2.5H328v-.834a.833.833 0 111.667 0v.834h6.666v-.834c0-.46.373-.833.834-.833zm2.5 5.833h-13.334v8.334c0 .459.374.833.834.833h11.666c.46 0 .834-.374.834-.833v-8.334zm-6.667 5a.833.833 0 110 1.667h-4.167a.833.833 0 110-1.667zm2.5-3.333a.833.833 0 110 1.667h-6.667a.833.833 0 110-1.667z" mask="url(#e)"/><path fill="#000000" fill-opacity=".56" fill-rule="nonzero" d="M309.418 244.314l4.894-2.07-.286-.614-4.565 1.905-.043.779zM310.74 253c.211 0 .388-.014.53-.043.86-.158 1.47-.558 1.832-1.199.085-.154.16-.324.222-.511.063-.187.101-.354.116-.502.014-.148.021-.265.021-.35 0-.146-.012-.3-.037-.463a3.644 3.644 0 00-.219-.791 5.116 5.116 0 00-.462-.886 7.535 7.535 0 00-.761-.977 9.49 9.49 0 00-.7-.7 39.169 39.169 0 00-.651-.572l4.358-1.832-.469-1.108-5.003 2.143-.14 1.248a15.432 15.432 0 011.85 1.768c.26.294.478.57.654.828.177.257.288.47.332.636.057.219.085.424.085.614a1.495 1.495 0 01-.243.828c-.114.17-.27.302-.469.393a2.705 2.705 0 01-.657.2c-.24.043-.491.068-.755.074-.264.006-.517.009-.76.009h-.762V253h2.088zm-4.529-5.46l.993-.992-.999-.998-.992.992.998.998zm-2.623 9.952a11.123 11.123 0 001.491-.9 7.948 7.948 0 001.288-1.142c.375-.416.676-.865.904-1.348.227-.483.34-.99.34-1.522v-.024c.102.11.208.194.32.255a1.475 1.475 0 00.624.183c.09.004.162.006.219.006h.104v-1.193h-.098c-.203 0-.388-.049-.557-.146a1.645 1.645 0 01-.484-.46 4.3 4.3 0 01-.45-.81c-.146-.33-.296-.73-.45-1.201l-1.145.353c.049.15.108.337.177.563.069.225.138.465.207.721.069.256.132.516.191.782.06.266.103.514.131.746a2.272 2.272 0 01-.067.822 3.158 3.158 0 01-.332.785c-.148.251-.33.492-.544.721-.215.23-.45.447-.706.654a8.3 8.3 0 01-.816.582c-.288.18-.578.346-.87.496l.523 1.077zm-.718-4.437a28.5 28.5 0 00.1-1.905c.01-.597.015-1.074.015-1.43 0-.593-.006-1.226-.018-1.9a55.636 55.636 0 00-.31-4.431l-1.193.182c.138 1.279.247 2.902.328 4.87.012.337.019.694.019 1.071 0 .313-.004.64-.013.98-.02.755-.063 1.587-.127 2.496l1.199.067zm-7.08 4.303c.341-.166.677-.354 1.008-.563.33-.209.645-.437.943-.685.299-.247.575-.51.828-.79.254-.28.473-.575.658-.883.184-.309.328-.628.432-.96.103-.33.155-.672.155-1.025 0-.178-.014-.361-.043-.548a8.704 8.704 0 00-.106-.569c-.043-.193-.09-.387-.14-.584l-.15-.588a9.053 9.053 0 00-.151-.556 65.409 65.409 0 01-.17-.564l-1.157.366c.11.34.213.681.31 1.022.045.167.091.337.14.512.049.174.093.349.134.523.04.175.074.345.1.511.027.167.04.325.04.475 0 .394-.095.775-.286 1.145a4.51 4.51 0 01-.758 1.046 6.964 6.964 0 01-1.074.91 9.912 9.912 0 01-1.242.734l.53 1.071zm-4.37-12.454l.901-.9-.907-.907-.9.9.906.907zm-1.376 1.924l.987-.992-.999-.999-.986.993.998.998zm2.673.006l.986-.986-.999-.998-.986.986.999.998zm-8.309 10.177a7.284 7.284 0 001.592-.237c.468-.13.891-.323 1.269-.578.308-.203.567-.438.776-.703.209-.266.376-.553.502-.862.126-.308.212-.615.259-.922.046-.306.07-.6.07-.88a3.63 3.63 0 00-.006-.212c.089.06.176.115.261.164a1.647 1.647 0 00.828.213c.04 0 .085-.002.134-.006a3.07 3.07 0 00.968-.201c.304-.118.578-.32.822-.609.085.13.186.246.304.347a1.907 1.907 0 00.761.405c.13.034.252.052.365.052.37 0 .684-.065.944-.195.26-.13.471-.308.636-.536.164-.227.286-.493.365-.797a3.923 3.923 0 00.064-1.665 6.259 6.259 0 00-.155-.666 7.036 7.036 0 00-.21-.615c-.077-.195-.15-.37-.22-.524a7.582 7.582 0 00-.185-.39 19.17 19.17 0 01-.113-.218l-1.065.56.231.456a6.442 6.442 0 01.472 1.254c.063.24.1.487.113.743v.11c0 .145-.012.287-.037.425-.036.175-.09.329-.161.463a.928.928 0 01-.268.32.605.605 0 01-.368.118.574.574 0 01-.384-.134 1.07 1.07 0 01-.264-.35 2.42 2.42 0 01-.174-.484 5.028 5.028 0 01-.103-.532 6.97 6.97 0 01-.052-.5c-.01-.156-.017-.284-.021-.386l-.025-.523-1.235.121v.834c0 .138-.003.274-.007.408a4.473 4.473 0 01-.057.572c-.03.179-.085.335-.162.469a.893.893 0 01-.316.323 1.026 1.026 0 01-.518.127h-.054c-.224 0-.422-.048-.597-.146a1.765 1.765 0 01-.502-.432 3.491 3.491 0 01-.402-.63c-.12-.237-.234-.484-.344-.74l-.383-.882-1.017.657c0 .009.036.071.107.19.07.117.155.285.252.504.102.24.2.503.293.792.093.288.164.58.213.88.048.297.073.593.073.885v.134a3.76 3.76 0 01-.177 1.004c-.37 1.136-1.418 1.741-3.147 1.814h-.2c-.346 0-.646-.038-.902-.113a2.56 2.56 0 01-.663-.292 1.95 1.95 0 01-.466-.408 2.592 2.592 0 01-.304-.462 2.342 2.342 0 01-.177-.45 3.595 3.595 0 01-.082-.375 3.57 3.57 0 01-.03-.718c.012-.244.04-.483.082-.719a6.97 6.97 0 01.36-1.284c.07-.182.141-.342.212-.478.071-.136.133-.238.186-.307l-.968-.712a7.66 7.66 0 00-.861 1.996 5.673 5.673 0 00-.192.983 5.375 5.375 0 00.018 1.41 3.8 3.8 0 00.399 1.25c.2.38.455.705.764.977.686.609 1.566.913 2.642.913h.237zM268.331 253c.248 0 .481-.012.7-.037a2.77 2.77 0 00.621-.14 2.05 2.05 0 00.551-.298 2.48 2.48 0 00.496-.517c.187.138.39.273.609.405.219.131.447.243.685.334a2.63 2.63 0 00.983.198c.166 0 .332-.022.499-.067.264-.073.487-.204.67-.392.182-.189.326-.41.432-.664.105-.253.17-.486.194-.697.025-.21.037-.381.037-.511 0-.146-.01-.288-.03-.426a3.683 3.683 0 00-.217-.804 2.506 2.506 0 00-.417-.706 2.058 2.058 0 00-.63-.502 1.812 1.812 0 00-.849-.192c-.268 0-.502.054-.703.162-.2.107-.38.247-.535.42a3.21 3.21 0 00-.42.59c-.124.221-.24.445-.35.673-.126.251-.251.496-.375.733-.124.238-.27.449-.438.633a1.908 1.908 0 01-.612.445c-.24.111-.54.167-.9.167h-.122V253h.121zm4.626-1.266c-.162 0-.345-.04-.547-.122a4.697 4.697 0 01-1.01-.59l.328-.664c.101-.199.192-.371.27-.517.08-.146.155-.268.226-.365a.862.862 0 01.213-.216.408.408 0 01.228-.07c.122 0 .23.024.323.073.093.048.174.11.243.185.07.075.128.159.177.25a1.98 1.98 0 01.189.496c.016.069.026.118.03.146.016.11.024.215.024.317a1.822 1.822 0 01-.113.615 1.035 1.035 0 01-.167.298.389.389 0 01-.2.14.878.878 0 01-.214.024zm-10.45 1.388c.275 0 .566-.008.873-.025.306-.016.617-.048.934-.097h4.139v-1.193h-1.522a2.501 2.501 0 00.663-1.662v-.085c0-.264-.034-.51-.103-.737a2.317 2.317 0 00-.877-1.2 2.567 2.567 0 00-.678-.34 2.54 2.54 0 00-.606-.136 6.398 6.398 0 00-.304-.016c-.227 0-.456.027-.688.08a5.124 5.124 0 00-1.385.523c-.42.235-.802.516-1.147.843a6.743 6.743 0 00-.931 1.096c-.276.403-.52.828-.73 1.275a1.79 1.79 0 01-.275-.597 2.575 2.575 0 01-.073-.602v-.043c0-.21.02-.416.061-.615.04-.199.085-.381.134-.548l-1.15-.346a4.97 4.97 0 00-.134.48c-.037.163-.071.331-.104.506-.065.308-.132.594-.2.858a2.023 2.023 0 01-.317.688c-.045.06-.103.124-.174.191a1.121 1.121 0 01-.283.186 2.032 2.032 0 01-.432.143c-.17.039-.375.058-.615.058h-.14V253h.177c.56-.004 1.038-.09 1.433-.256a2.26 2.26 0 00.977-.785c.224.288.453.51.688.667.236.156.491.27.767.344.276.073.58.116.91.13.33.015.701.022 1.111.022zm0-1.23h-.269c-.36-.008-.675-.02-.943-.036.223-.406.452-.774.688-1.105.235-.33.484-.621.745-.87a4.19 4.19 0 01.843-.628c.3-.168.625-.29.974-.368a1.838 1.838 0 011.169.13 1.135 1.135 0 01.587.578c.063.137.095.295.095.473v.024c0 .313-.086.577-.256.792-.174.219-.406.397-.694.535a3.964 3.964 0 01-.983.31 8.504 8.504 0 01-1.047.135c-.33.02-.634.03-.91.03zm-11.128 5.6a11.123 11.123 0 001.491-.9 7.948 7.948 0 001.288-1.142c.375-.416.676-.865.904-1.348.227-.483.34-.99.34-1.522v-.024c.102.11.209.194.32.255a1.475 1.475 0 00.624.183c.09.004.162.006.22.006h.103v-1.193h-.098c-.203 0-.388-.049-.557-.146a1.645 1.645 0 01-.484-.46 4.3 4.3 0 01-.45-.81c-.146-.33-.296-.73-.45-1.201l-1.145.353c.049.15.108.337.177.563.069.225.138.465.207.721.069.256.133.516.191.782.06.266.103.514.131.746a2.272 2.272 0 01-.067.822 3.158 3.158 0 01-.331.785c-.149.251-.33.492-.545.721-.215.23-.45.447-.706.654a8.3 8.3 0 01-.816.582c-.288.18-.578.346-.87.496l.523 1.077zm-2.8-12.502l.992-.993-.998-.998-.992.992.998.999zm-3.232 8.004c.373 0 .754-.008 1.141-.024.388-.017.77-.05 1.145-.098.375-.049.735-.12 1.08-.216.345-.095.658-.222.94-.38a2.84 2.84 0 00.734-.585c.207-.231.36-.509.456-.834.11-.369.165-.74.165-1.114v-.042a4.921 4.921 0 00-.15-1.12 4.56 4.56 0 00-.374-.99 3.534 3.534 0 00-.517-.757c-.434-.483-.921-.724-1.46-.724-.28 0-.533.07-.756.21-.223.14-.417.32-.581.538-.164.22-.3.464-.405.734-.105.27-.18.534-.225.794a3.051 3.051 0 00-.037.45v.104c.009.17.03.324.064.46a1.522 1.522 0 00.314.623c.195.244.44.429.736.554a3.496 3.496 0 001.215.253l.185.006c.07.002.15.003.24.003h.326a1.505 1.505 0 01-.197.186 1.943 1.943 0 01-.326.204 4.507 4.507 0 01-.52.234c-.205.08-.46.15-.764.21-.305.06-.633.105-.986.13-.353.027-.707.04-1.06.04-.178 0-.365-.002-.56-.006a10.143 10.143 0 01-1.32-.11 5.316 5.316 0 01-1.014-.252 2.746 2.746 0 01-.736-.395 1.957 1.957 0 01-.484-.54 1.418 1.418 0 01-.201-.498 2.596 2.596 0 01-.043-.445c0-.052.002-.103.006-.152.008-.182.034-.358.076-.526a4.59 4.59 0 01.259-.752l.055-.116-1.06-.578c-.003.016-.032.08-.085.192a5.826 5.826 0 00-.356 1.068 3.024 3.024 0 00-.088.578l-.006.28c0 .236.024.475.073.719.057.284.166.562.329.833.722 1.234 2.313 1.85 4.772 1.85zm3.98-3.354c-.174 0-.366-.006-.577-.018a2.01 2.01 0 01-.573-.107.744.744 0 01-.353-.234.62.62 0 01-.146-.314 1.43 1.43 0 01.006-.502c.029-.15.076-.297.143-.441a2.44 2.44 0 01.22-.384c.079-.111.156-.195.23-.252.076-.057.142-.085.199-.085a1.006 1.006 0 01.43.186c.114.087.217.193.306.319.09.126.166.266.228.42.063.154.117.312.162.475.044.162.083.322.115.48.033.159.061.305.086.439a5.464 5.464 0 01-.475.018z" mask="url(#e)"/><path fill="#000000" fill-opacity=".56" d="M333 288.667c4.595 0 8.333 3.738 8.333 8.333 0 4.595-3.738 8.333-8.333 8.333-4.595 0-8.333-3.738-8.333-8.333 0-4.595 3.738-8.333 8.333-8.333zm0 1.666a6.667 6.667 0 100 13.334 6.667 6.667 0 000-13.334zm0 2.298c.461 0 .834.373.834.833v2.703h2.701a.833.833 0 110 1.666h-2.702v2.703a.833.833 0 11-1.666 0v-2.703h-2.702a.833.833 0 110-1.666h2.702v-2.703c0-.46.372-.833.833-.833z" mask="url(#e)"/><path fill="#000000" fill-opacity=".56" fill-rule="nonzero" d="M312.425 292.344l.901-.9-.907-.907-.9.9.906.907zm-1.375 1.924l.986-.992-.999-.999-.986.993.999.998zm2.672.006l.986-.986-.998-.998-.987.986.999.998zM311.183 301c.333 0 .655-.022.965-.067.31-.045.596-.122.855-.231.26-.11.49-.256.691-.439.201-.182.363-.411.484-.687.122-.28.183-.605.183-.974 0-.065-.002-.13-.006-.195-.029-.45-.134-.97-.317-1.558a7.904 7.904 0 00-.195-.563 12.302 12.302 0 00-.334-.786 1.499 1.499 0 01-.055-.124l-1.084.535.53 1.303a3.959 3.959 0 01.274 1.038c.008.107.012.187.012.24 0 .098-.006.189-.018.274-.02.13-.05.237-.091.323a.953.953 0 01-.341.398 1.674 1.674 0 01-.506.216c-.19.05-.397.079-.62.089-.224.01-.453.015-.688.015h-1.175V301h1.436zm-5.502 0c.596 0 1.098-.062 1.503-.186.406-.123.737-.313.993-.569.174.223.397.405.67.545.271.14.612.21 1.022.21h.121v-1.193h-.121a.86.86 0 01-.509-.14.999.999 0 01-.31-.353 1.667 1.667 0 01-.161-.463 4.299 4.299 0 01-.067-.474 18.669 18.669 0 00-.11-1.054 5.718 5.718 0 00-.176-.827l-1.145.322c.09.309.151.583.186.822.034.24.052.475.052.706 0 .483-.155.847-.463 1.093-.308.245-.803.368-1.485.368h-.225V301h.225zm1.942 3.171l.992-.992-.998-.998-.993.992.999.998zM297 296.003l.986-.986-.998-.999-.986.992.998.993zm2.496.012l.986-.992-.999-.993-.986.987.999.998zm-1.766 5.003c2.31 0 4-.56 5.07-1.68.09.248.216.469.378.664.507.653 1.289.986 2.344.998h.17v-1.193h-.152c-.662-.004-1.134-.187-1.418-.548a1.217 1.217 0 01-.256-.511 3.023 3.023 0 01-.08-.548v-.049a5.071 5.071 0 01.137-.886c.027-.107.05-.197.07-.27l-1.156-.317c-.052.183-.112.37-.18.56-.066.191-.147.38-.243.566a3.52 3.52 0 01-.344.542 2.696 2.696 0 01-.48.481c-.419.34-.942.59-1.571.746-.629.156-1.392.234-2.289.234-1.002-.004-1.817-.11-2.444-.317-.627-.207-1.062-.519-1.305-.937a1.477 1.477 0 01-.195-.502 2.648 2.648 0 01-.043-.448c0-.052.002-.103.006-.152.009-.182.034-.357.077-.523.042-.167.086-.313.13-.438.045-.126.086-.228.122-.305a1.41 1.41 0 00.055-.122l-1.053-.578c-.02.029-.078.155-.174.38-.095.226-.193.531-.295.917-.049.182-.079.35-.091.502a4.048 4.048 0 00-.006.69c.016.212.056.423.118.634.063.21.154.416.271.615.366.616.953 1.068 1.763 1.354.81.286 1.83.433 3.064.441zm-14.17-9.136c.016-.049.041-.115.076-.198.034-.083.077-.166.128-.25.05-.083.108-.156.173-.219a.353.353 0 01.207-.106.784.784 0 01.365.024c.118.037.243.08.375.13.132.052.273.1.423.147.15.047.316.07.499.07h.036a1.3 1.3 0 00.402-.06c.138-.046.265-.102.38-.171a2.04 2.04 0 00.314-.229c.093-.083.174-.162.24-.237a2.086 2.086 0 00.217-.283l-.694-.45a3.633 3.633 0 01-.119.146c-.055.065-.122.13-.2.197-.08.067-.164.123-.253.168a.594.594 0 01-.268.067h-.025a1.359 1.359 0 01-.35-.055 3.69 3.69 0 01-.325-.116 4.624 4.624 0 00-.402-.146 1.624 1.624 0 00-.487-.067c-.174 0-.345.038-.511.113a1.693 1.693 0 00-.457.304 1.831 1.831 0 00-.548.971l.804.25zM285.8 301c.057-.402.09-.855.1-1.36.01-.506.016-.92.016-1.245 0-.54-.007-1.147-.019-1.82a55.828 55.828 0 00-.079-2.07 81.379 81.379 0 00-.164-2.313l-1.193.183c.057.548.107 1.221.152 2.02.045.8.081 1.733.11 2.8a27.95 27.95 0 01-.007 1.857c-.02.621-.058 1.248-.115 1.881l1.199.067zm-8.443-8.686l4.894-2.07-.286-.614-4.565 1.905-.043.779zM278.68 301c.211 0 .388-.014.53-.043.86-.158 1.47-.558 1.832-1.199.085-.154.16-.324.222-.511.063-.187.101-.354.116-.502.014-.148.021-.265.021-.35 0-.146-.012-.3-.037-.463a3.644 3.644 0 00-.219-.791 5.116 5.116 0 00-.462-.886 7.535 7.535 0 00-.761-.977 9.49 9.49 0 00-.7-.7 39.169 39.169 0 00-.651-.572l4.358-1.832-.469-1.108-5.003 2.143-.14 1.248a15.432 15.432 0 011.85 1.768c.26.294.478.57.654.828.177.257.288.47.332.636.057.219.085.424.085.614a1.495 1.495 0 01-.243.828c-.114.17-.27.302-.469.393a2.705 2.705 0 01-.657.2c-.24.043-.491.068-.755.074-.264.006-.517.009-.76.009h-.762V301h2.088zm-4.005 4.005l.76-.925a1.506 1.506 0 01-.389-.584 1.813 1.813 0 01-.103-.585 1.935 1.935 0 01.173-.77c.096-.213.22-.402.375-.569a1.92 1.92 0 01.532-.405c.201-.103.415-.159.642-.167h.17v-1.193h-.121c-.235 0-.47.035-.703.106a3.138 3.138 0 00-1.738 1.33 2.39 2.39 0 00-.359 1.425 1.43 1.43 0 01-.374-.338 4.072 4.072 0 01-.332-.478 5.661 5.661 0 01-.27-.511 11.49 11.49 0 01-.193-.432c.272-.045.532-.117.78-.216.247-.1.476-.226.687-.378a2.902 2.902 0 00.98-1.238c.073-.175.117-.35.131-.527.014-.177.021-.32.021-.43 0-.15-.008-.306-.024-.468a4.609 4.609 0 00-.173-.812 2.974 2.974 0 00-.326-.722 1.702 1.702 0 00-.466-.499 1.012 1.012 0 00-.587-.182h-.06c-.277.012-.53.095-.762.25a2.56 2.56 0 00-.624.599 4.15 4.15 0 00-.48.834c-.137.31-.25.624-.338.943-.09.319-.152.613-.186.883-.035.27-.052.5-.052.69 0 .061.002.118.006.171h-.98V301h1.206l.054.152a6.811 6.811 0 001.084 2.04c.255.332.552.653.888.961.337.308.72.593 1.15.852zm-2.015-5.259c-.06 0-.124-.004-.189-.012a2.17 2.17 0 01-.018-.292c0-.09.004-.183.012-.28.02-.211.058-.426.113-.645.055-.22.123-.435.204-.646.081-.21.172-.4.274-.569.101-.168.208-.306.32-.414a.585.585 0 01.337-.18c.183.135.316.307.399.518.083.211.124.434.122.67a2.064 2.064 0 01-.131.7 2.05 2.05 0 01-.356.617c-.153.181-.323.315-.512.402-.188.087-.38.131-.575.131zm-7.633 5.223c.268 0 .568-.019.901-.055a7.469 7.469 0 001.007-.183c.34-.085.669-.195.99-.331.32-.136.606-.304.858-.503.251-.198.454-.432.608-.7a1.854 1.854 0 00.213-1.199 1.28 1.28 0 00-.097-.316 1.74 1.74 0 00-.204-.338c-.087-.116-.2-.23-.338-.344h1.57v-1.193h-4.802l-.091 1.187.134.024a8.487 8.487 0 01.584.134c.122.033.253.07.393.11.14.04.28.085.423.134.231.085.426.17.584.255.158.086.287.166.387.24.1.076.171.147.216.214a.33.33 0 01.067.173.756.756 0 01-.204.524c-.136.15-.31.28-.52.39-.212.109-.448.201-.71.276a7.626 7.626 0 01-1.47.274 6.32 6.32 0 01-.499.028c-.203 0-.435-.004-.697-.013a4.438 4.438 0 01-.791-.097 3.022 3.022 0 01-.767-.277 1.705 1.705 0 01-.618-.55c-.256-.39-.383-.898-.383-1.523 0-.986.318-2.262.955-3.828l-1.114-.45c-.637 1.541-.982 2.864-1.034 3.968-.005.101-.007.2-.007.298 0 .889.197 1.621.59 2.198.188.316.428.57.722.764.294.192.615.341.962.447.347.105.709.175 1.086.21.378.034.743.052 1.096.052zm-12.831-3.975c.243 0 .488-.018.733-.055.246-.036.482-.095.71-.176a3.04 3.04 0 00.635-.314c.197-.128.369-.28.515-.46a1.474 1.474 0 00.317-.645c.032-.142.05-.304.051-.487a2.812 2.812 0 00-.07-.614 4.424 4.424 0 00-.277-.795 6.44 6.44 0 00-.444-.815 8.06 8.06 0 00-1.233-1.495 6.963 6.963 0 00-.709-.59 4.27 4.27 0 00-.721-.426l-.493 1.108c.182.08.369.19.56.328.19.138.378.296.563.475.184.179.362.37.532.575.17.205.326.416.466.633.14.217.26.435.36.652.099.217.17.425.215.624.033.146.049.271.049.377 0 .146-.03.256-.091.329-.138.166-.309.29-.512.37a1.959 1.959 0 01-.548.144 3.497 3.497 0 01-.84-.01 5.173 5.173 0 01-1.418-.386 3.7 3.7 0 01-.542-.283l-.499 1.145c.102.093.262.186.481.28a7.376 7.376 0 001.519.441c.266.047.496.07.69.07zm-8.072 4.364c.341-.166.677-.354 1.008-.563.33-.209.645-.437.943-.685.299-.247.575-.51.828-.79.254-.28.473-.575.658-.883.184-.309.328-.628.432-.96.103-.33.155-.672.155-1.025 0-.178-.014-.361-.043-.548a8.704 8.704 0 00-.106-.569c-.043-.193-.09-.387-.14-.584l-.15-.588a9.053 9.053 0 00-.151-.556 65.409 65.409 0 01-.17-.564l-1.157.366c.11.34.213.681.31 1.022.045.167.091.337.14.512.049.174.093.349.134.523.04.175.074.345.1.511.027.167.04.325.04.475 0 .394-.095.775-.286 1.145a4.51 4.51 0 01-.758 1.046 6.964 6.964 0 01-1.074.91 9.912 9.912 0 01-1.242.734l.53 1.071zm-7.663-13.476c.016-.049.042-.115.076-.198.035-.083.077-.166.128-.25.05-.083.108-.156.173-.219a.353.353 0 01.207-.106.784.784 0 01.365.024c.118.037.243.08.375.13.132.052.273.1.423.147.15.047.316.07.5.07h.036a1.3 1.3 0 00.401-.06c.138-.046.265-.102.38-.171a2.04 2.04 0 00.314-.229c.094-.083.174-.162.24-.237a2.086 2.086 0 00.217-.283l-.694-.45a3.633 3.633 0 01-.119.146c-.055.065-.122.13-.2.197-.08.067-.164.123-.253.168a.594.594 0 01-.268.067h-.024a1.359 1.359 0 01-.35-.055 3.69 3.69 0 01-.326-.116 4.624 4.624 0 00-.402-.146 1.624 1.624 0 00-.487-.067c-.174 0-.345.038-.511.113a1.693 1.693 0 00-.457.304 1.831 1.831 0 00-.547.971l.803.25zM238.7 301c.057-.402.09-.855.1-1.36.01-.506.016-.92.016-1.245 0-.54-.006-1.147-.019-1.82a55.828 55.828 0 00-.079-2.07 81.38 81.38 0 00-.164-2.313l-1.193.183c.057.548.107 1.221.152 2.02.045.8.081 1.733.11 2.8a27.95 27.95 0 01-.006 1.857c-.02.621-.06 1.248-.116 1.881l1.199.067zm-5.083-6.951l.901-.901-.907-.907-.9.9.906.908zm-1.375 1.923l.986-.992-.998-.998-.987.992.999.998zm2.672.006l.986-.986-.998-.998-.986.986.998.998zm-3.957 9.38c.341-.166.677-.354 1.008-.563.33-.209.645-.437.943-.685.299-.247.574-.51.828-.79s.473-.575.657-.883c.185-.309.33-.628.433-.96.103-.33.155-.672.155-1.025 0-.178-.014-.361-.043-.548a8.704 8.704 0 00-.106-.569c-.043-.193-.09-.387-.14-.584l-.15-.588a9.053 9.053 0 00-.152-.556 65.409 65.409 0 01-.17-.564l-1.157.366c.11.34.214.681.31 1.022l.14.512c.05.174.094.349.135.523.04.175.074.345.1.511.027.167.04.325.04.475 0 .394-.096.775-.286 1.145a4.51 4.51 0 01-.758 1.046 6.964 6.964 0 01-1.074.91 9.912 9.912 0 01-1.242.734l.53 1.071zm-.681-4.303a28.5 28.5 0 00.1-1.905c.01-.597.015-1.074.015-1.43 0-.593-.006-1.226-.018-1.9a55.636 55.636 0 00-.31-4.431l-1.193.182c.138 1.279.247 2.902.328 4.87.012.337.019.694.019 1.071 0 .313-.005.64-.013.98-.02.755-.063 1.587-.127 2.496l1.199.067zm-4.858-6.696l.992-.992-.998-.998-.992.992.998.998zm-.974 6.641c.333 0 .643-.022.929-.067a2.82 2.82 0 00.776-.231c.231-.11.435-.256.611-.439.177-.182.326-.411.448-.687.122-.28.182-.605.182-.974 0-.065-.002-.13-.006-.195-.028-.45-.134-.97-.316-1.558a7.903 7.903 0 00-.195-.563 12.302 12.302 0 00-.335-.786 1.499 1.499 0 01-.055-.124l-1.083.535.53 1.303a3.959 3.959 0 01.273 1.038c.009.107.013.187.013.24 0 .098-.006.189-.019.274a1.09 1.09 0 01-.396.721 1.28 1.28 0 01-.425.216 2.29 2.29 0 01-.542.089c-.199.01-.416.015-.651.015h-.706V301h.967zm-13.677 4.036a7.56 7.56 0 001.796-.283 3.726 3.726 0 001.415-.755c.395-.343.704-.788.925-1.336.221-.548.332-1.224.332-2.027.09.065.176.12.262.167a1.569 1.569 0 00.569.183c.107.014.232.021.374.021.345 0 .67-.064.977-.192.306-.127.581-.333.825-.617.085.13.185.244.301.343.116.1.237.184.365.253s.257.122.387.158c.13.037.25.055.359.055a1.802 1.802 0 001.096-.353c.154-.114.29-.247.41-.402.12-.154.22-.326.302-.517.101.199.23.376.386.533a2.515 2.515 0 001.114.648c.21.057.421.085.636.085h.122v-1.193h-.122c-.231 0-.433-.053-.605-.158a1.615 1.615 0 01-.454-.42 2.51 2.51 0 01-.326-.603 5.076 5.076 0 01-.213-.706 7.082 7.082 0 01-.124-.727 8.702 8.702 0 01-.055-.673l-1.193.085c.008.138.021.313.04.524a7.854 7.854 0 01-.01 1.394c-.024.239-.073.455-.146.648s-.176.35-.31.472a.748.748 0 01-.524.182.568.568 0 01-.39-.134.913.913 0 01-.24-.356 2.093 2.093 0 01-.125-.505 3.853 3.853 0 01-.036-.48v-.302c0-.13.002-.26.006-.39.008-.19.014-.363.018-.517l-1.235-.091c-.008.207-.016.418-.022.633a6.9 6.9 0 01-.045.627c-.025.202-.06.394-.107.575-.046.18-.116.338-.21.472-.093.133-.212.24-.356.32-.144.078-.324.118-.539.118-.28 0-.51-.068-.69-.204a1.75 1.75 0 01-.46-.53 4.094 4.094 0 01-.326-.724 25.135 25.135 0 00-.283-.782 13.103 13.103 0 01-.225-.59l-1.01.657c.134.349.254.699.362 1.05.107.35.185.687.234 1.007a6.053 6.053 0 01.067 1.169 5.05 5.05 0 01-.207 1.162c-.37 1.129-1.416 1.733-3.14 1.814h-.208c-.345 0-.645-.037-.9-.112a2.56 2.56 0 01-.664-.292 1.95 1.95 0 01-.466-.408 2.592 2.592 0 01-.304-.463 2.316 2.316 0 01-.177-.453 3.749 3.749 0 01-.082-.378 3.527 3.527 0 01-.03-.712c.012-.24.04-.478.082-.715a6.898 6.898 0 01.36-1.288c.07-.182.141-.341.212-.477.071-.136.133-.239.186-.308l-.968-.718a8.79 8.79 0 00-.478.92c-.152.336-.28.694-.383 1.073-.104.38-.168.709-.192.987a5.375 5.375 0 00.018 1.41c.073.494.218.935.435 1.323.218.387.493.717.828.989.335.272.718.479 1.148.62.43.143.894.214 1.394.214h.237zm-9.928-3.981a28.5 28.5 0 00.1-1.905c.01-.597.016-1.074.016-1.43 0-.593-.006-1.226-.018-1.9a55.636 55.636 0 00-.31-4.431l-1.194.182c.138 1.279.248 2.902.329 4.87.012.337.018.694.018 1.071 0 .313-.004.64-.012.98-.02.755-.063 1.587-.128 2.496l1.2.067zm-9.416-.055c.247 0 .48-.012.7-.037a2.77 2.77 0 00.62-.14 2.05 2.05 0 00.551-.298 2.48 2.48 0 00.496-.517c.187.138.39.273.61.405.218.131.447.243.684.334a2.63 2.63 0 00.983.198c.166 0 .333-.022.5-.067.263-.073.486-.204.669-.392.182-.189.326-.41.432-.664.105-.253.17-.486.195-.697.024-.21.036-.381.036-.511 0-.146-.01-.288-.03-.426a3.683 3.683 0 00-.216-.804 2.506 2.506 0 00-.417-.706 2.058 2.058 0 00-.63-.502 1.812 1.812 0 00-.85-.192c-.267 0-.502.054-.703.162-.2.107-.379.247-.535.42a3.21 3.21 0 00-.42.59c-.124.221-.24.445-.35.673-.126.251-.25.496-.375.733-.123.238-.27.449-.438.633a1.908 1.908 0 01-.612.445c-.239.111-.54.167-.9.167h-.122V301h.122zm4.626-1.266c-.163 0-.345-.04-.548-.122a4.697 4.697 0 01-1.01-.59l.328-.664c.102-.199.192-.371.271-.517.08-.146.154-.268.225-.365a.862.862 0 01.213-.216.408.408 0 01.229-.07c.121 0 .229.024.322.073.093.048.175.11.244.185s.127.159.176.25a1.98 1.98 0 01.189.496c.016.069.026.118.03.146.016.11.025.215.025.317a1.822 1.822 0 01-.113.615 1.035 1.035 0 01-.167.298.389.389 0 01-.201.14.878.878 0 01-.213.024zm-10.427 1.716c.077 0 .156-.002.237-.006.378-.012.75-.056 1.12-.134.515-.125.97-.292 1.364-.499a3.71 3.71 0 001.047-.821c.15.243.32.433.508.569.189.136.37.236.545.301.174.065.33.104.465.119.136.014.226.021.271.021h.365v-1.193h-.121a1.59 1.59 0 01-.475-.07 1.122 1.122 0 01-.7-.624 1.726 1.726 0 01-.146-.59 405.893 405.893 0 00-.189-2.216 829.97 829.97 0 00-.189-2.21l-.079-.95a496.442 496.442 0 00-.106-1.268 8.513 8.513 0 01-.016-.198l-1.193.128.028.283.073.742c.03.31.064.67.1 1.08l.116 1.3a118.006 118.006 0 01.213 2.773 1.38 1.38 0 01-.03.523c-.045.17-.113.33-.204.475-.092.146-.203.28-.335.402a2.319 2.319 0 01-.435.316 12.28 12.28 0 00-.67-2.09 22.43 22.43 0 00-1.199-2.432 27.66 27.66 0 00-1.06-1.756 24.088 24.088 0 00-.343-.515 2.524 2.524 0 01-.137-.207l-.98.694a36.47 36.47 0 01.444.657c.134.204.286.445.457.725.17.28.349.585.535.916.187.33.374.68.56 1.05.187.37.363.745.527 1.126.164.382.31.764.435 1.148.126.383.221.753.286 1.11a4.438 4.438 0 01-1.114.122c-.239 0-.46-.02-.663-.06l-.207 1.186c.296.05.594.073.895.073zm-9.788-.468c.272 0 .559-.005.861-.015a11.8 11.8 0 001.838-.21c.307-.061.6-.144.88-.247.28-.103.542-.231.785-.383.244-.153.459-.334.645-.545.252-.361.4-.663.442-.904.042-.242.064-.43.064-.563 0-.195-.025-.386-.073-.572a3.044 3.044 0 00-.436-.926 7.082 7.082 0 00-.72-.885c-.277-.29-.576-.574-.899-.852-.322-.278-.644-.553-.964-.825l4.638-1.942-.469-1.108-5.235 2.185-.152 1.394c.138.122.3.259.487.411.187.152.383.315.587.487.205.173.411.353.618.542.207.189.401.381.582.578.18.197.34.395.477.594.138.198.234.38.287.541.052.163.079.307.079.433a1.001 1.001 0 01-.274.688c-.313.34-.79.584-1.43.73-.642.146-1.378.219-2.21.219-.126 0-.256-.002-.39-.006a14.804 14.804 0 01-1.567-.11 8.63 8.63 0 01-1.254-.246 3.503 3.503 0 01-.907-.384 1.502 1.502 0 01-.527-.52.772.772 0 01-.085-.371v-.08c.012-.17.049-.349.11-.535a4.18 4.18 0 01.228-.557c.091-.185.182-.352.27-.502l-.96-.713a3 3 0 00-.21.32 6.37 6.37 0 00-.168.31c-.061.12-.118.253-.17.4-.22.523-.33.892-.332 1.107l-.003.298v.049c0 .385.08.726.243 1.023.17.308.422.57.755.785a4.5 4.5 0 001.187.523c.458.134.973.232 1.543.292.57.061 1.18.092 1.829.092z" mask="url(#e)"/><path fill="#000000" fill-opacity=".56" d="M334.739 337.445a.834.834 0 011.58.528l-5 15a.834.834 0 01-1.58-.528l.82-2.458h-4.91l-.996 2.985a.834.834 0 01-1.58-.527l5-15a.834.834 0 011.58.528l-.672 2.014h4.911zm5.833 0a.834.834 0 011.58.527h.001l-5 15a.833.833 0 11-1.58-.527l.82-2.459h-1.833a.416.416 0 01-.395-.548l.277-.833a.417.417 0 01.396-.285h2.11l.833-2.5h-1.832a.417.417 0 01-.396-.548l.278-.834a.416.416 0 01.395-.285h2.11l.834-2.5h-1.832a.417.417 0 01-.396-.548l.278-.834a.418.418 0 01.395-.285h2.11zm-8.624 8.375h-4.91l-.834 2.5h4.91l.834-2.5zm1.388-4.167h-4.91l-.834 2.5h4.911l.833-2.5z" mask="url(#e)"/><path fill="#000000" fill-opacity=".56" fill-rule="nonzero" d="M312.468 342.36l.992-.993-.998-.998-.992.992.998.998zm-.974 6.64c.333 0 .642-.022.928-.067a2.82 2.82 0 00.776-.231c.232-.11.435-.256.612-.439.177-.182.326-.411.447-.687.122-.28.183-.605.183-.974 0-.065-.002-.13-.006-.195-.028-.45-.134-.97-.317-1.558a7.904 7.904 0 00-.194-.563 12.306 12.306 0 00-.335-.786 1.499 1.499 0 01-.055-.124l-1.083.535.53 1.303a3.959 3.959 0 01.273 1.038c.008.107.012.187.012.24 0 .098-.006.189-.018.274-.02.13-.05.237-.091.323a1.09 1.09 0 01-.305.398 1.28 1.28 0 01-.426.216 2.29 2.29 0 01-.542.089c-.198.01-.415.015-.65.015h-.707V349h.968zm-6.032 4.492a11.123 11.123 0 001.491-.9 7.948 7.948 0 001.287-1.142c.376-.416.677-.865.904-1.348.228-.483.341-.99.341-1.522v-.024c.102.11.208.194.32.255a1.475 1.475 0 00.624.183c.089.004.162.006.219.006h.103v-1.193h-.097c-.203 0-.389-.049-.557-.146a1.645 1.645 0 01-.484-.46 4.3 4.3 0 01-.45-.81c-.146-.33-.297-.73-.45-1.201l-1.145.353c.049.15.107.337.176.563.07.225.138.465.207.721.07.256.133.516.192.782s.103.514.13.746a2.272 2.272 0 01-.067.822 3.158 3.158 0 01-.33.785c-.149.251-.33.492-.546.721-.215.23-.45.447-.706.654a8.3 8.3 0 01-.815.582c-.288.18-.579.346-.87.496l.523 1.077zm-3.324-4.498c.244 0 .488-.018.734-.055.245-.036.482-.095.709-.176a3.04 3.04 0 00.636-.314c.197-.128.368-.28.514-.46a1.474 1.474 0 00.317-.645c.032-.142.05-.304.052-.487a2.812 2.812 0 00-.07-.614 4.424 4.424 0 00-.277-.795 6.44 6.44 0 00-.445-.815 8.06 8.06 0 00-1.232-1.495 6.963 6.963 0 00-.71-.59 4.27 4.27 0 00-.72-.426l-.494 1.108c.183.08.37.19.56.328.19.138.379.296.563.475.185.179.362.37.533.575.17.205.325.416.465.633.14.217.26.435.36.652.099.217.171.425.216.624.032.146.048.271.048.377 0 .146-.03.256-.09.329-.139.166-.31.29-.512.37a1.96 1.96 0 01-.548.144 3.497 3.497 0 01-.84-.01 5.173 5.173 0 01-1.418-.386 3.7 3.7 0 01-.542-.283l-.5 1.145c.102.093.263.186.482.28a7.376 7.376 0 001.519.441c.265.047.495.07.69.07zm-6.823.006c.333 0 .642-.022.928-.067a2.82 2.82 0 00.776-.231c.231-.11.435-.256.612-.439.176-.182.326-.411.447-.687.122-.28.183-.605.183-.974 0-.065-.002-.13-.006-.195-.029-.45-.134-.97-.317-1.558a7.904 7.904 0 00-.195-.563 12.302 12.302 0 00-.334-.786 1.499 1.499 0 01-.055-.124l-1.084.535.53 1.303a3.959 3.959 0 01.274 1.038c.008.107.012.187.012.24 0 .098-.006.189-.018.274-.02.13-.05.237-.091.323a1.09 1.09 0 01-.305.398 1.28 1.28 0 01-.426.216 2.29 2.29 0 01-.542.089c-.198.01-.416.015-.651.015h-.706V349h.968zm.998 3.171l.992-.992-.998-.998-.992.992.998.998zM294.59 349v-1.193h-.121c-.256 0-.476-.026-.66-.08a.95.95 0 01-.418-.218.507.507 0 01-.161-.314 3.288 3.288 0 01-.021-.386v-3.056a42.483 42.483 0 00-.125-3.208 9.022 9.022 0 00-.094-.76l-1.193.218c.036.191.067.436.094.734.026.298.049.624.067.977.018.353.031.718.04 1.096.008.377.012.74.012 1.09a89.654 89.654 0 010 1.88 184.943 184.943 0 00-.012.837v.07c0 .097.001.214.005.35a2.35 2.35 0 00.216.886c.072.154.174.298.308.432.22.219.486.381.8.487.315.105.695.158 1.142.158h.121zm-8.85-2.94l.992-.992-.998-.998-.992.992.998.998zm-.268 7.122c.5 0 .973-.053 1.421-.159a4.386 4.386 0 001.227-.483c.37-.218.693-.492.97-.825.279-.333.495-.729.65-1.187.145-.438.224-.788.237-1.05.012-.262.018-.437.018-.527a6.278 6.278 0 00-.344-2.066 9.757 9.757 0 00-.347-.889 6.902 6.902 0 00-.46-.867l-1.01.645a.39.39 0 01.043.065l.07.114c.07.12.153.285.246.494.093.209.188.454.283.736a5.788 5.788 0 01.301 1.854v.073a3.791 3.791 0 01-.176 1.053c-.09.284-.223.538-.402.764-.178.225-.4.415-.663.572-.264.156-.57.275-.92.356a5.17 5.17 0 01-1.168.122c-.345 0-.652-.038-.922-.113a2.885 2.885 0 01-.706-.292c-.201-.12-.373-.255-.515-.405a2.65 2.65 0 01-.353-.46 2.218 2.218 0 01-.21-.45 2.4 2.4 0 01-.094-.38 3.57 3.57 0 01-.03-.719c.012-.243.039-.483.082-.718.042-.235.096-.462.16-.679.066-.217.134-.417.205-.6.07-.182.14-.341.21-.477.069-.136.13-.24.182-.314l-.967-.712a8.651 8.651 0 00-.478.922c-.152.34-.28.697-.384 1.075a5.673 5.673 0 00-.191.983 5.374 5.374 0 00.018 1.41c.08.53.238.993.472 1.387.233.393.526.72.88.977.352.257.755.45 1.207.578.453.128.939.192 1.458.192zm-14.542-12.868l4.894-2.07-.286-.614-4.565 1.905-.043.779zm1.321 8.686c.211 0 .388-.014.53-.043.86-.158 1.47-.558 1.832-1.199.085-.154.16-.324.222-.511.063-.187.102-.354.116-.502.014-.148.021-.265.021-.35 0-.146-.012-.3-.036-.463a3.644 3.644 0 00-.22-.791 5.116 5.116 0 00-.462-.886 7.535 7.535 0 00-.761-.977 9.489 9.489 0 00-.7-.7 39.165 39.165 0 00-.651-.572l4.358-1.832-.469-1.108-5.003 2.143-.14 1.248a15.432 15.432 0 011.85 1.768c.26.294.478.57.655.828.176.257.287.47.331.636.057.219.086.424.086.614a1.496 1.496 0 01-.243.828c-.115.17-.27.302-.47.393a2.705 2.705 0 01-.657.2c-.24.043-.491.068-.755.074-.264.006-.517.009-.76.009h-.762V349h2.088zm-7.152 4.492a11.123 11.123 0 001.491-.9 7.948 7.948 0 001.288-1.142c.375-.416.676-.865.904-1.348.227-.483.34-.99.34-1.522v-.024c.102.11.209.194.32.255a1.475 1.475 0 00.624.183c.09.004.162.006.22.006h.103v-1.193h-.098c-.203 0-.388-.049-.557-.146a1.645 1.645 0 01-.484-.46 4.3 4.3 0 01-.45-.81c-.146-.33-.296-.73-.45-1.201l-1.145.353c.049.15.108.337.177.563.069.225.138.465.207.721.069.256.133.516.191.782.06.266.103.514.131.746a2.272 2.272 0 01-.067.822 3.158 3.158 0 01-.331.785c-.149.251-.33.492-.545.721-.215.23-.45.447-.706.654a8.3 8.3 0 01-.816.582c-.288.18-.578.346-.87.496l.523 1.077zm-5.594-.219a7.348 7.348 0 001.23-.301 7.003 7.003 0 001.147-.505c.363-.201.702-.436 1.017-.704.314-.267.591-.566.83-.894.24-.329.437-.687.591-1.075.154-.387.254-.804.298-1.25a5.636 5.636 0 00.006-1.108 6.03 6.03 0 00-.2-1.066 5.049 5.049 0 00-.381-.958 3.741 3.741 0 00-.545-.789c-.483-.519-1.012-.779-1.588-.779-.26 0-.51.066-.752.198a2.284 2.284 0 00-.673.581c-.17.22-.318.48-.444.783a3.435 3.435 0 00-.24.81 4.237 4.237 0 00-.052.587c0 .162.014.324.042.487.049.308.167.58.353.815.422.524 1.074.812 1.954.865.223.02.423.03.6.03h.69c-.044.304-.169.614-.374.928a3.805 3.805 0 01-.837.892 6.02 6.02 0 01-1.272.755 7.854 7.854 0 01-1.68.523l.28 1.175zm3.343-5.479h-.098c-.179 0-.37-.005-.573-.017a3.068 3.068 0 01-.258-.028c-.1-.014-.201-.036-.305-.067a1.43 1.43 0 01-.292-.122.716.716 0 01-.228-.197.57.57 0 01-.125-.29 2.13 2.13 0 01-.021-.27 2.765 2.765 0 01.344-1.272c.083-.143.177-.26.283-.35a.505.505 0 01.335-.138c.073 0 .142.013.207.037a.94.94 0 01.185.094c.059.039.114.082.165.128.05.047.096.09.136.131.102.118.2.257.296.417.095.16.181.34.258.539.077.199.14.414.19.645.048.231.078.477.09.736a7.117 7.117 0 01-.59.024zm-7.878 1.224c.142 0 .299-.006.47-.018a4.765 4.765 0 00.991-.18c.155-.046.288-.104.402-.173.426-.227.744-.512.953-.855.209-.343.313-.715.313-1.117 0-.536-.187-1.063-.56-1.583a2.562 2.562 0 00-.53-.511 6.994 6.994 0 00-.788-.505 16.58 16.58 0 00-.974-.5 43.876 43.876 0 00-1.092-.499l-2.118-.87-.579 1.096.481.188a2.183 2.183 0 00-.627.448 2.77 2.77 0 00-.435.584 2.72 2.72 0 00-.338 1.293c0 .297.076.604.228.923.153.318.38.642.685.97a9.349 9.349 0 01-.773.074c-.15.008-.317.014-.502.018-.185.004-.399.006-.642.006h-.165V349h.165c.288 0 .586-.006.895-.018.308-.012.61-.032.907-.058.296-.026.579-.062.849-.107.27-.044.512-.099.727-.164.345.138.685.233 1.02.286.334.053.68.08 1.037.08zm-2.118-1.668a4.14 4.14 0 01-.438-.331 2.566 2.566 0 01-.362-.384 1.819 1.819 0 01-.247-.435 1.314 1.314 0 01-.091-.487c0-.183.038-.373.116-.572.077-.199.183-.378.32-.536.135-.158.28-.274.434-.347.155-.073.3-.11.439-.11.073 0 .148.009.225.025a.903.903 0 01.423.198c.107.095.19.205.25.329.058.123.097.253.115.39.018.135.027.264.027.386a2.093 2.093 0 01-.673 1.522c-.151.141-.33.26-.538.352zm2.003.5a3.13 3.13 0 01-.56-.043c.154-.162.294-.34.42-.536.126-.194.232-.392.32-.593.087-.201.155-.4.203-.6.049-.199.073-.383.073-.554 0-.121-.002-.251-.006-.39a1.766 1.766 0 00-.073-.437c.288.133.54.282.755.444.215.162.395.328.539.496.144.168.252.336.325.502.073.167.11.32.11.463 0 .166-.038.325-.113.478a1.043 1.043 0 01-.365.398 2.063 2.063 0 01-.654.271 4.07 4.07 0 01-.974.1zm-10.75 5.119c.268 0 .568-.019.901-.055a7.469 7.469 0 001.007-.183c.34-.085.669-.195.99-.331.32-.136.606-.304.858-.503.251-.198.454-.432.609-.7a1.854 1.854 0 00.213-1.199 1.28 1.28 0 00-.098-.316 1.74 1.74 0 00-.204-.338c-.087-.116-.2-.23-.338-.344h1.57v-1.193h-4.802l-.091 1.187.134.024a8.487 8.487 0 01.584.134c.122.033.253.07.393.11.14.04.28.085.423.134.231.085.426.17.584.255.159.086.287.166.387.24.1.076.171.147.216.214a.33.33 0 01.067.173.756.756 0 01-.204.524c-.136.15-.31.28-.52.39-.212.109-.448.201-.71.276a7.627 7.627 0 01-1.47.274 6.32 6.32 0 01-.499.028c-.203 0-.435-.004-.697-.013a4.438 4.438 0 01-.791-.097 3.022 3.022 0 01-.767-.277 1.705 1.705 0 01-.618-.55c-.255-.39-.383-.898-.383-1.523 0-.986.318-2.262.955-3.828l-1.114-.45c-.637 1.541-.982 2.864-1.034 3.968-.004.101-.006.2-.006.298 0 .889.196 1.621.59 2.198.187.316.427.57.721.764.295.192.615.341.962.447.347.105.71.175 1.087.21.377.034.742.052 1.095.052zm-12.971-13.087c.016-.049.042-.115.076-.198.034-.083.077-.166.128-.25.05-.083.108-.156.173-.219a.353.353 0 01.207-.106.784.784 0 01.365.024c.118.037.243.08.375.13.132.052.273.1.423.147.15.047.316.07.499.07h.037a1.3 1.3 0 00.401-.06c.138-.046.265-.102.38-.171a2.04 2.04 0 00.314-.229c.094-.083.174-.162.24-.237a2.086 2.086 0 00.217-.283l-.694-.45a3.633 3.633 0 01-.119.146c-.055.065-.122.13-.2.197-.08.067-.164.123-.253.168a.594.594 0 01-.268.067h-.025a1.359 1.359 0 01-.35-.055 3.69 3.69 0 01-.325-.116 4.624 4.624 0 00-.402-.146 1.624 1.624 0 00-.487-.067c-.174 0-.345.038-.511.113a1.693 1.693 0 00-.457.304 1.831 1.831 0 00-.548.971l.804.25zm2.24 9.118c.057-.402.09-.855.1-1.36.01-.506.016-.92.016-1.245 0-.54-.007-1.147-.019-1.82a55.828 55.828 0 00-.079-2.07 81.38 81.38 0 00-.164-2.313l-1.193.183c.057.548.107 1.221.152 2.02.045.8.081 1.733.11 2.8a27.95 27.95 0 01-.007 1.857c-.02.621-.058 1.248-.115 1.881l1.199.067zm-8.443-8.686l4.894-2.07-.286-.614-4.565 1.905-.043.779zm1.321 8.686c.211 0 .388-.014.53-.043.86-.158 1.47-.558 1.832-1.199.085-.154.16-.324.222-.511.063-.187.102-.354.116-.502.014-.148.021-.265.021-.35 0-.146-.012-.3-.036-.463a3.644 3.644 0 00-.22-.791 5.116 5.116 0 00-.462-.886 7.535 7.535 0 00-.761-.977 9.489 9.489 0 00-.7-.7 39.169 39.169 0 00-.651-.572l4.358-1.832-.469-1.108-5.003 2.143-.14 1.248a15.432 15.432 0 011.85 1.768c.26.294.478.57.654.828.177.257.288.47.332.636.057.219.085.424.085.614a1.496 1.496 0 01-.243.828c-.114.17-.27.302-.469.393a2.705 2.705 0 01-.657.2c-.24.043-.491.068-.755.074-.264.006-.517.009-.76.009h-.762V349h2.088zm-4.005 4.005l.76-.925a1.506 1.506 0 01-.389-.584 1.813 1.813 0 01-.103-.585 1.935 1.935 0 01.173-.77c.096-.213.22-.402.375-.569a1.92 1.92 0 01.532-.405c.201-.103.415-.159.642-.167h.17v-1.193h-.12c-.236 0-.47.035-.704.106a3.138 3.138 0 00-1.738 1.33 2.39 2.39 0 00-.359 1.425 1.43 1.43 0 01-.374-.338 4.072 4.072 0 01-.332-.478 5.662 5.662 0 01-.27-.511c-.08-.17-.144-.315-.193-.432.272-.045.532-.117.78-.216.247-.1.476-.226.687-.378a2.902 2.902 0 00.98-1.238c.073-.175.117-.35.131-.527.014-.177.022-.32.022-.43 0-.15-.009-.306-.025-.468a4.61 4.61 0 00-.173-.812 2.974 2.974 0 00-.326-.722 1.702 1.702 0 00-.466-.499 1.012 1.012 0 00-.587-.182h-.06c-.277.012-.53.095-.762.25a2.56 2.56 0 00-.624.599 4.15 4.15 0 00-.48.834c-.136.31-.25.624-.338.943-.09.319-.152.613-.186.883s-.052.5-.052.69c0 .061.002.118.006.171h-.98V349h1.206l.054.152a6.811 6.811 0 001.084 2.04c.255.332.552.653.889.961.336.308.72.593 1.15.852zm-2.015-5.259c-.06 0-.124-.004-.189-.012a2.17 2.17 0 01-.018-.292c0-.09.004-.183.012-.28.02-.211.058-.426.113-.645.055-.22.123-.435.204-.646.081-.21.172-.4.274-.569.101-.168.208-.306.32-.414a.585.585 0 01.337-.18c.183.135.316.307.399.518.083.211.124.434.122.67a2.064 2.064 0 01-.131.7 2.05 2.05 0 01-.356.617c-.152.181-.323.315-.512.402-.188.087-.38.131-.575.131zm-7.633 5.223c.268 0 .568-.019.901-.055a7.469 7.469 0 001.007-.183c.34-.085.669-.195.99-.331.32-.136.606-.304.858-.503.251-.198.454-.432.608-.7a1.854 1.854 0 00.214-1.199 1.28 1.28 0 00-.098-.316 1.74 1.74 0 00-.204-.338c-.087-.116-.2-.23-.338-.344h1.57v-1.193h-4.802l-.091 1.187.134.024a8.487 8.487 0 01.584.134c.122.033.253.07.393.11.14.04.28.085.423.134.231.085.426.17.584.255.158.086.287.166.387.24.1.076.171.147.216.214a.33.33 0 01.067.173.756.756 0 01-.204.524c-.136.15-.31.28-.52.39-.212.109-.448.201-.71.276a7.627 7.627 0 01-1.47.274 6.32 6.32 0 01-.499.028c-.203 0-.435-.004-.697-.013a4.438 4.438 0 01-.791-.097 3.022 3.022 0 01-.767-.277 1.705 1.705 0 01-.618-.55c-.256-.39-.383-.898-.383-1.523 0-.986.318-2.262.955-3.828l-1.114-.45c-.637 1.541-.982 2.864-1.034 3.968-.004.101-.007.2-.007.298 0 .889.197 1.621.59 2.198.188.316.428.57.722.764.294.192.615.341.962.447.347.105.71.175 1.086.21.378.034.743.052 1.096.052zm-8.838-3.95c.142 0 .298-.007.469-.019a4.765 4.765 0 00.992-.18c.154-.046.288-.104.401-.173.427-.227.744-.512.953-.855.21-.343.314-.715.314-1.117 0-.536-.187-1.063-.56-1.583a2.562 2.562 0 00-.53-.511 6.994 6.994 0 00-.788-.505 16.58 16.58 0 00-.974-.5 43.874 43.874 0 00-1.093-.499l-2.118-.87-.578 1.096.48.188a2.183 2.183 0 00-.626.448 2.77 2.77 0 00-.436.584 2.72 2.72 0 00-.338 1.293c0 .297.077.604.229.923.152.318.38.642.685.97a9.349 9.349 0 01-.773.074c-.15.008-.318.014-.503.018-.184.004-.398.006-.642.006h-.164V349h.164c.288 0 .587-.006.895-.018.308-.012.61-.032.907-.058.296-.026.58-.062.85-.107.269-.044.511-.099.726-.164.345.138.685.233 1.02.286.335.053.68.08 1.038.08zm-2.118-1.669a4.14 4.14 0 01-.439-.331 2.566 2.566 0 01-.362-.384 1.819 1.819 0 01-.246-.435 1.314 1.314 0 01-.092-.487c0-.183.039-.373.116-.572.077-.199.184-.378.32-.536.136-.158.28-.274.435-.347.154-.073.3-.11.438-.11.073 0 .148.009.225.025a.903.903 0 01.423.198c.108.095.191.205.25.329.059.123.097.253.116.39.018.135.027.264.027.386a2.093 2.093 0 01-.673 1.522c-.152.141-.331.26-.538.352zm2.002.5a3.13 3.13 0 01-.56-.043c.154-.162.294-.34.42-.536.126-.194.233-.392.32-.593.087-.201.155-.4.204-.6.048-.199.073-.383.073-.554 0-.121-.002-.251-.006-.39a1.766 1.766 0 00-.073-.437c.288.133.54.282.754.444.215.162.395.328.54.496.143.168.252.336.325.502.073.167.11.32.11.463 0 .166-.038.325-.113.478a1.043 1.043 0 01-.366.398 2.063 2.063 0 01-.654.271 4.07 4.07 0 01-.974.1zm-5.24 1.15v-1.193h-.122c-.256 0-.476-.026-.66-.08a.95.95 0 01-.418-.218.507.507 0 01-.161-.314 3.288 3.288 0 01-.021-.386v-3.056a42.483 42.483 0 00-.125-3.208 9.022 9.022 0 00-.095-.76l-1.193.218c.037.191.068.436.095.734.026.298.048.624.067.977.018.353.031.718.04 1.096.007.377.011.74.011 1.09a89.654 89.654 0 010 1.88 184.943 184.943 0 00-.011.837v.174c0 .073.003.155.005.246a2.35 2.35 0 00.216.886c.071.154.174.298.308.432.219.219.486.381.8.487.315.105.695.158 1.142.158h.121z" mask="url(#e)"/></g></g></g></svg>