<svg xmlns="http://www.w3.org/2000/svg" width="200" height="200"><g fill="none" fill-rule="evenodd"><path d="M0 0h200v200H0z"/><path d="M45 85h110v30H45z"/><rect width="110" height="30" x="45" y="85" fill="#000000" fill-opacity=".24" rx="2"/><path fill="#FFF" fill-rule="nonzero" d="M126.74 104c.21 0 .387-.014.529-.043.86-.158 1.47-.558 1.832-1.199.085-.154.16-.324.222-.511.063-.187.101-.354.116-.502.014-.148.021-.265.021-.35 0-.146-.012-.3-.037-.463a3.644 3.644 0 00-.219-.791 5.116 5.116 0 00-.462-.886 7.535 7.535 0 00-.761-.977 9.49 9.49 0 00-.7-.7 39.17 39.17 0 00-.651-.572l4.358-1.832-.469-1.108-5.003 2.143-.14 1.248a15.432 15.432 0 011.85 1.768c.26.294.478.57.654.828.177.257.288.47.332.636.057.219.085.424.085.614a1.495 1.495 0 01-.243.828c-.114.17-.27.302-.469.393a2.705 2.705 0 01-.657.2c-.24.043-.491.068-.755.074-.264.006-.517.009-.76.009h-.762V104h2.088zm-1.845 0v-1.193h-.122c-.256 0-.476-.026-.66-.08a.95.95 0 01-.417-.218.507.507 0 01-.162-.314 3.288 3.288 0 01-.021-.386v-3.056a42.483 42.483 0 00-.125-3.208 9.022 9.022 0 00-.094-.76l-1.193.218c.036.191.068.436.094.734.027.298.049.624.067.977.018.353.032.718.04 1.096.008.377.012.74.012 1.09.004.356.006.695.006 1.016v.236c-.001.23-.003.44-.006.628a184.943 184.943 0 00-.012.907c0 .097.002.214.006.35a2.35 2.35 0 00.216.886c.07.154.173.298.307.432.22.219.486.381.8.487.315.105.696.158 1.142.158h.122zm-8.674 4.358c.34-.166.677-.354 1.007-.563.331-.209.645-.437.944-.685.298-.247.574-.51.828-.79.253-.28.472-.575.657-.883.185-.309.329-.628.432-.96.104-.33.155-.672.155-1.025 0-.178-.014-.361-.042-.548a8.704 8.704 0 00-.107-.569c-.042-.193-.09-.387-.14-.584l-.149-.588a9.052 9.052 0 00-.152-.556 65.409 65.409 0 01-.17-.564l-1.157.366c.11.34.213.681.31 1.022l.14.512c.05.174.094.349.134.523.04.175.074.345.1.511.027.167.04.325.04.475 0 .394-.095.775-.286 1.145a4.51 4.51 0 01-.758 1.046 6.964 6.964 0 01-1.074.91 9.912 9.912 0 01-1.242.734l.53 1.071zm-4.237-12.454l.901-.9-.907-.907-.9.9.906.907zm-1.375 1.924l.986-.992-.998-.999-.987.993.999.998zm2.672.006l.986-.986-.998-.998-.986.986.998.998zm.207 6.239c.377 0 .708-.053.992-.158.292-.106.536-.258.73-.457.195-.199.341-.439.439-.721.097-.282.146-.598.146-.947 0-.23-.022-.468-.064-.712a6.734 6.734 0 00-.164-.712 10.71 10.71 0 00-.752-1.899l-1.065.56a10.738 10.738 0 01.514 1.245c.087.257.162.52.225.788s.094.517.094.749c0 .178-.02.339-.06.48a.814.814 0 01-.198.354.668.668 0 01-.31.185 1.37 1.37 0 01-.35.046c-.07 0-.143-.004-.22-.012a.568.568 0 01-.307-.119.741.741 0 01-.201-.256 1.287 1.287 0 01-.11-.359 2.647 2.647 0 01-.033-.429c0-.166.012-.356.036-.569.025-.213.052-.414.083-.603.03-.188.057-.35.082-.484l.03-.194-1.168-.213a14.56 14.56 0 01-.1.587 8.363 8.363 0 01-.165.697c-.067.24-.148.475-.244.706a3.216 3.216 0 01-.335.621c-.127.183-.273.33-.438.444a.956.956 0 01-.557.17.643.643 0 01-.322-.072.545.545 0 01-.201-.195.852.852 0 01-.104-.277c-.02-.104-.03-.21-.03-.32 0-.158.016-.33.049-.514.032-.185.07-.365.115-.542a11.174 11.174 0 01.256-.873l-1.205-.256c-.04.199-.09.41-.146.633a6.81 6.81 0 01-.207.667 4.861 4.861 0 01-.286.636c-.11.203-.239.382-.387.539a1.812 1.812 0 01-.508.377c-.191.095-.406.143-.645.143h-.134V104h.127c.236 0 .452-.02.649-.058a2.366 2.366 0 00.99-.432c.137-.103.267-.22.388-.35.065.15.158.282.277.396.12.113.253.209.399.286.146.077.3.135.46.173a1.989 1.989 0 001.445-.192c.309-.166.585-.391.828-.675.085.13.189.25.31.362.122.112.254.209.396.292.142.083.291.15.448.198.156.049.311.073.465.073h.043zm-9.581-5.685l.992-.992-.998-.999-.992.993.998.998zm-1.71 5.612c.596 0 1.097-.062 1.503-.186.406-.123.737-.313.992-.569.175.223.398.405.67.545s.612.21 1.022.21h.122v-1.193h-.122a.86.86 0 01-.508-.14.999.999 0 01-.31-.353 1.667 1.667 0 01-.162-.463 4.299 4.299 0 01-.067-.474 18.669 18.669 0 00-.11-1.054 5.718 5.718 0 00-.176-.827l-1.144.322c.09.309.151.583.186.822.034.24.051.475.051.706 0 .483-.154.847-.462 1.093-.309.245-.804.368-1.485.368h-.226V104h.226zm.018 0v-1.193h-.122c-.256 0-.476-.026-.66-.08a.95.95 0 01-.417-.218.507.507 0 01-.162-.314 3.288 3.288 0 01-.021-.386v-3.056a42.483 42.483 0 00-.125-3.208 9.022 9.022 0 00-.094-.76l-1.193.218c.036.191.068.436.094.734.027.298.049.624.067.977.018.353.032.718.04 1.096.008.377.012.74.012 1.09.004.356.006.695.006 1.016v.236c-.001.23-.003.44-.006.628a184.987 184.987 0 00-.012.907c0 .097.002.214.006.35a2.35 2.35 0 00.216.886c.07.154.173.298.307.432.22.219.486.381.8.487.315.105.696.158 1.142.158h.122zm-6.909.073c.377 0 .708-.053.992-.158.292-.106.536-.258.73-.457.195-.199.342-.439.439-.721.097-.282.146-.598.146-.947 0-.23-.021-.468-.064-.712a6.734 6.734 0 00-.164-.712 10.709 10.709 0 00-.752-1.899l-1.065.56a10.738 10.738 0 01.514 1.245c.087.257.162.52.225.788s.095.517.095.749c0 .178-.02.339-.061.48a.814.814 0 01-.198.354.668.668 0 01-.31.185 1.37 1.37 0 01-.35.046c-.07 0-.142-.004-.22-.012a.568.568 0 01-.307-.119.741.741 0 01-.2-.256 1.287 1.287 0 01-.11-.359 2.647 2.647 0 01-.034-.429c0-.166.012-.356.037-.569.024-.213.051-.414.082-.603.03-.188.058-.35.082-.484l.03-.194-1.168-.213a14.56 14.56 0 01-.1.587 8.363 8.363 0 01-.165.697c-.067.24-.148.475-.243.706a3.216 3.216 0 01-.335.621c-.128.183-.274.33-.439.444a.956.956 0 01-.556.17.643.643 0 01-.323-.072.545.545 0 01-.201-.195.852.852 0 01-.103-.277c-.02-.104-.03-.21-.03-.32 0-.158.015-.33.048-.514.032-.185.07-.365.115-.542a11.173 11.173 0 01.256-.873l-1.205-.256c-.04.199-.09.41-.146.633a6.81 6.81 0 01-.207.667 4.861 4.861 0 01-.286.636c-.11.203-.239.382-.387.539a1.812 1.812 0 01-.508.377c-.19.095-.406.143-.645.143h-.134V104h.128c.235 0 .451-.02.648-.058a2.366 2.366 0 00.99-.432c.137-.103.267-.22.389-.35.065.15.157.282.277.396.12.113.252.209.398.286.146.077.3.135.46.173a1.989 1.989 0 001.446-.192c.308-.166.584-.391.827-.675.086.13.189.25.31.362.123.112.254.209.396.292.142.083.292.15.448.198.156.049.311.073.465.073h.043zm-12.49 3.896c.267 0 .568-.019.9-.055a7.469 7.469 0 001.008-.183c.339-.085.668-.195.989-.331.32-.136.607-.304.858-.503.252-.198.455-.432.609-.7a1.854 1.854 0 00.213-1.199 1.28 1.28 0 00-.097-.316 1.74 1.74 0 00-.204-.338c-.088-.116-.2-.23-.338-.344h1.57v-1.193h-4.802l-.092 1.187.134.024a8.487 8.487 0 01.585.134l.392.11c.14.04.281.085.423.134.232.085.426.17.585.255.158.086.287.166.386.24.1.076.172.147.216.214a.33.33 0 01.067.173.756.756 0 01-.204.524c-.136.15-.31.28-.52.39-.211.109-.447.201-.71.276a7.626 7.626 0 01-1.47.274 6.32 6.32 0 01-.498.028c-.203 0-.436-.004-.697-.013a4.438 4.438 0 01-.792-.097 3.022 3.022 0 01-.767-.277 1.705 1.705 0 01-.617-.55c-.256-.39-.384-.898-.384-1.523 0-.986.319-2.262.956-3.828l-1.114-.45c-.637 1.541-.982 2.864-1.035 3.968-.004.101-.006.2-.006.298 0 .889.197 1.621.59 2.198.187.316.428.57.722.764.294.192.615.341.961.447.347.105.71.175 1.087.21.377.034.743.052 1.096.052zM73.27 95.904l.901-.9-.907-.907-.9.9.906.907zm-1.375 1.924l.986-.992-.999-.999-.986.993.999.998zm2.672.006l.986-.986-.998-.998-.986.986.998.998zm.207 6.239c.377 0 .708-.053.992-.158.292-.106.536-.258.73-.457.195-.199.341-.439.439-.721.097-.282.146-.598.146-.947 0-.23-.022-.468-.064-.712a6.734 6.734 0 00-.165-.712 10.709 10.709 0 00-.751-1.899l-1.065.56a10.738 10.738 0 01.514 1.245c.087.257.162.52.225.788s.094.517.094.749c0 .178-.02.339-.06.48a.814.814 0 01-.198.354.668.668 0 01-.31.185 1.37 1.37 0 01-.35.046c-.07 0-.143-.004-.22-.012a.568.568 0 01-.307-.119.741.741 0 01-.201-.256 1.287 1.287 0 01-.11-.359 2.647 2.647 0 01-.033-.429c0-.166.012-.356.036-.569.025-.213.052-.414.083-.603.03-.188.057-.35.082-.484l.03-.194-1.169-.213a14.56 14.56 0 01-.1.587 8.363 8.363 0 01-.164.697c-.067.24-.148.475-.244.706a3.216 3.216 0 01-.335.621c-.127.183-.273.33-.438.444a.956.956 0 01-.557.17.643.643 0 01-.322-.072.545.545 0 01-.201-.195.852.852 0 01-.104-.277c-.02-.104-.03-.21-.03-.32 0-.158.016-.33.049-.514.032-.185.07-.365.115-.542a11.174 11.174 0 01.256-.873l-1.205-.256c-.041.199-.09.41-.146.633a6.81 6.81 0 01-.207.667 4.861 4.861 0 01-.287.636c-.11.203-.238.382-.386.539a1.812 1.812 0 01-.508.377c-.191.095-.406.143-.646.143h-.133V104h.127c.236 0 .452-.02.649-.058a2.366 2.366 0 00.99-.432c.137-.103.267-.22.388-.35.065.15.158.282.277.396.12.113.253.209.399.286.146.077.3.135.46.173a1.989 1.989 0 001.445-.192c.309-.166.585-.391.828-.675.085.13.189.25.31.362.122.112.254.209.396.292.142.083.291.15.448.198.156.049.311.073.465.073h.043zM67.793 104v-1.193h-.122c-.243 0-.444-.031-.602-.094a1.088 1.088 0 01-.396-.262 1.536 1.536 0 01-.27-.408 13.54 13.54 0 01-.235-.533c-.158-.369-.308-.723-.448-1.062a3417.895 3417.895 0 01-1.415-3.436l-1.108.463 1.924 4.626a2.31 2.31 0 01-.81.511c-.219.085-.404.135-.557.15a4.04 4.04 0 01-.344.02c-.162 0-.324-.018-.487-.054a2.792 2.792 0 01-.736-.28 3.6 3.6 0 01-.737-.542l-.687.968c.345.357.72.634 1.129.83a3.02 3.02 0 001.33.296c.288 0 .548-.017.779-.052.231-.034.445-.085.642-.152.197-.067.381-.151.554-.253a4.65 4.65 0 00.514-.353 2.1 2.1 0 00.305.314c.117.1.254.186.41.259.157.073.337.13.542.173.205.043.44.064.703.064h.122zm-10.877 0c.073 0 .163-.003.27-.01.108-.005.223-.02.344-.042.122-.022.25-.052.384-.091s.266-.09.396-.155c.357-.175.628-.416.812-.725.185-.308.277-.671.277-1.09 0-.417-.122-.872-.365-1.363-.244-.49-.615-1.02-1.114-1.588a12.198 12.198 0 00-.511-.539 18.559 18.559 0 00-.448-.43 11.027 11.027 0 00-.412-.366l-.035-.035-.767.931a.92.92 0 00.11.098c.073.06.17.146.292.255a8.658 8.658 0 00-.712.743c-.662.795-.993 1.56-.993 2.295 0 .418.1.78.299 1.086.198.307.493.551.882.734.15.073.298.13.445.17.146.04.279.07.398.089a2.466 2.466 0 00.448.033zm.044-1.212h-.077c-.026 0-.057-.003-.095-.005a2.482 2.482 0 01-.414-.076 1.455 1.455 0 01-.237-.089.936.936 0 01-.262-.164.759.759 0 01-.15-.186.585.585 0 01-.066-.191 1.222 1.222 0 01-.016-.19c0-.206.048-.415.144-.626.095-.211.212-.414.35-.609.137-.195.285-.373.44-.535.157-.163.294-.297.412-.402.393.426.694.828.9 1.205.208.377.311.7.311.968a.885.885 0 01-.1.447.803.803 0 01-.326.295 1.235 1.235 0 01-.244.086c-.085.02-.166.036-.243.048-.077.013-.148.02-.213.022a5.281 5.281 0 01-.158.003h.044z"/><circle cx="8" cy="8" r="8" fill="#FFF" transform="translate(135 92)"/></g></svg>