<svg xmlns="http://www.w3.org/2000/svg" width="520" height="220" viewBox="0 0 520 220">
  <g fill="none" fill-rule="evenodd">
    <rect width="520" height="220"/>
    <g fill="#EA475B" transform="translate(81 60)">
      <rect width="360" height="30" fill-opacity=".12"/>
      <text font-family="Roboto-Medium, Roboto" font-size="4" font-weight="400">
        <tspan x="177.727" y="16">30</tspan>
      </text>
    </g>
    <g transform="translate(425 46)">
      <g stroke="#EA475B" stroke-linecap="round" stroke-width=".4" transform="translate(0 8)">
        <line x1=".5" x2=".5" y2="2"/>
        <line x1="15.5" x2="15.5" y2="2"/>
        <line x1=".5" x2="15.5" y1="1" y2="1"/>
      </g>
      <path fill="#EA475B" fill-rule="nonzero" d="M6.33691406,6 L6.33691406,1.71972656 L6.24609375,1.71972656 L4.58203125,2.33203125 L4.58203125,2.93261719 L5.62792969,2.57519531 L5.62792969,6 L6.33691406,6 Z M9.27539062,6.05859375 C9.68945312,6.05859375 10.0239258,5.92431641 10.2788086,5.65576172 C10.5336914,5.38720703 10.6611328,5.03613281 10.6611328,4.60253906 C10.6611328,4.18261719 10.5522461,3.83984375 10.3344727,3.57421875 C10.1166992,3.30859375 9.81933594,3.17578125 9.44238281,3.17578125 C9.08691406,3.17578125 8.79492188,3.29589844 8.56640625,3.53613281 C8.61132812,3.14550781 8.75292969,2.84375 8.99121094,2.63085938 C9.22949219,2.41796875 9.54785156,2.30859375 9.94628906,2.30273438 L9.94628906,2.30273438 L10.0341797,2.30273438 L10.0341797,1.71386719 L9.9609375,1.71386719 C9.27734375,1.71386719 8.75341797,1.92578125 8.38916016,2.34960938 C8.02490234,2.7734375 7.84277344,3.359375 7.84277344,4.10742188 L7.84277344,4.10742188 L7.84277344,4.35058594 C7.84277344,4.86035156 7.97509766,5.27246094 8.23974609,5.58691406 C8.50439453,5.90136719 8.84960938,6.05859375 9.27539062,6.05859375 Z M9.26953125,5.484375 C9.05859375,5.484375 8.88671875,5.39111328 8.75390625,5.20458984 C8.62109375,5.01806641 8.5546875,4.76660156 8.5546875,4.45019531 L8.5546875,4.45019531 L8.5546875,4.23339844 C8.61523438,4.08691406 8.71044922,3.96972656 8.84033203,3.88183594 C8.97021484,3.79394531 9.11328125,3.75 9.26953125,3.75 C9.4765625,3.75 9.64257812,3.83105469 9.76757812,3.99316406 C9.89257812,4.15527344 9.95507812,4.36523438 9.95507812,4.62304688 C9.95507812,4.88085938 9.89355469,5.08886719 9.77050781,5.24707031 C9.64746094,5.40527344 9.48046875,5.484375 9.26953125,5.484375 Z"/>
      <rect width="16" height="4" y="10"/>
    </g>
    <g transform="translate(462 90)">
      <rect width="8" height="40"/>
      <g stroke="#EA475B" stroke-linecap="round" stroke-width=".4" transform="translate(8)">
        <line x2="2" y1="1" y2="1"/>
        <line x2="2" y1="39" y2="39"/>
        <line x1="1" x2="1" y1="1" y2="39"/>
      </g>
      <path fill="#EA475B" fill-rule="nonzero" d="M16.7275391,22 L16.7275391,21.0507812 L17.2578125,21.0507812 L17.2578125,20.4794922 L16.7275391,20.4794922 L16.7275391,17.734375 L15.9921875,17.734375 L14.1523438,20.6171875 L14.1728516,21.0507812 L16.015625,21.0507812 L16.015625,22 L16.7275391,22 Z M16.015625,20.4794922 L14.8994141,20.4794922 L15.9628906,18.7919922 L16.015625,18.6982422 L16.015625,20.4794922 Z M19.1181641,22.0585938 C19.5869141,22.0585938 19.9360352,21.902832 20.1655273,21.5913086 C20.3950195,21.2797852 20.5097656,20.8173828 20.5097656,20.2041016 L20.5097656,20.2041016 L20.5097656,19.4658203 C20.5039062,18.8701172 20.3862305,18.4228516 20.1567383,18.1240234 C19.9272461,17.8251953 19.5791016,17.6757812 19.1123047,17.6757812 C18.6416016,17.6757812 18.2915039,17.8291016 18.0620117,18.1357422 C17.8325195,18.4423828 17.7177734,18.9023438 17.7177734,19.515625 L17.7177734,19.515625 L17.7177734,20.2539062 C17.7236328,20.8496094 17.8432617,21.2993164 18.0766602,21.6030273 C18.3100586,21.9067383 18.6572266,22.0585938 19.1181641,22.0585938 Z M19.1181641,21.4902344 C18.8798828,21.4902344 18.7050781,21.3925781 18.59375,21.1972656 C18.4824219,21.0019531 18.4267578,20.7050781 18.4267578,20.3066406 L18.4267578,20.3066406 L18.4267578,19.3398438 C18.4326172,18.9648438 18.4902344,18.6889648 18.5996094,18.512207 C18.7089844,18.3354492 18.8798828,18.2470703 19.1123047,18.2470703 C19.3505859,18.2470703 19.5244141,18.340332 19.6337891,18.5268555 C19.7431641,18.7133789 19.7978516,19.0068359 19.7978516,19.4072266 L19.7978516,19.4072266 L19.7978516,20.3710938 C19.7919922,20.7558594 19.734375,21.0385742 19.625,21.2192383 C19.515625,21.3999023 19.3466797,21.4902344 19.1181641,21.4902344 Z"/>
    </g>
    <g transform="translate(224 184)">
      <circle cx="13" cy="13" r="13.2" stroke="#000000" stroke-opacity=".12" stroke-width=".4"/>
      <path fill="#000000" fill-opacity=".12" d="M14,-7.10542736e-15 C16.209139,-7.51123961e-15 18,1.790861 18,4 L18.0006957,17.0033832 C16.4613248,17.6454369 14.7720687,18 13,18 C5.82029825,18 0,12.1797017 0,5 C0,3.22821001 0.354451581,1.53920663 0.996313896,3.06986628e-05 L14,-7.10542736e-15 Z" transform="translate(0 8)"/>
      <circle cx="14" cy="12" r="4" fill="#EA475B"/>
      <path fill="#EA475B" fill-rule="nonzero" d="M31.546875,15.5585938 C31.9316406,15.5585938 32.2338867,15.4130859 32.4536133,15.1220703 C32.6733398,14.8310547 32.7832031,14.4394531 32.7832031,13.9472656 L32.7832031,13.9472656 L32.7832031,13.90625 C32.7832031,13.390625 32.6728516,12.9892578 32.4521484,12.7021484 C32.2314453,12.4150391 31.9277344,12.2714844 31.5410156,12.2714844 C31.1933594,12.2714844 30.9169922,12.3925781 30.7119141,12.6347656 L30.7119141,12.6347656 L30.7119141,11 L30,11 L30,15.5 L30.6445312,15.5 L30.6796875,15.1572266 C30.8867188,15.4248047 31.1757812,15.5585938 31.546875,15.5585938 Z M31.3681641,14.9785156 C31.0576172,14.9785156 30.8388672,14.8408203 30.7119141,14.5654297 L30.7119141,14.5654297 L30.7119141,13.2587891 C30.8369141,12.9892578 31.0537109,12.8544922 31.3623047,12.8544922 C31.5927734,12.8544922 31.7685547,12.9404297 31.8896484,13.1123047 C32.0107422,13.2841797 32.0712891,13.5419922 32.0712891,13.8857422 L32.0712891,13.8857422 L32.0712891,13.9765625 C32.0673828,14.3125 32.0048828,14.5634766 31.8837891,14.7294922 C31.7626953,14.8955078 31.5908203,14.9785156 31.3681641,14.9785156 Z M34.7226562,15.5585938 C35.015625,15.5585938 35.2739258,15.4912109 35.4975586,15.3564453 C35.7211914,15.2216797 35.8930664,15.03125 36.0131836,14.7851562 C36.1333008,14.5390625 36.1933594,14.2597656 36.1933594,13.9472656 L36.1933594,13.9472656 L36.1904297,13.7802734 C36.1689453,13.3251953 36.0249023,12.9599609 35.7583008,12.6845703 C35.4916992,12.4091797 35.1445312,12.2714844 34.7167969,12.2714844 C34.4277344,12.2714844 34.171875,12.3383789 33.9492188,12.472168 C33.7265625,12.605957 33.5537109,12.7973633 33.4306641,13.0463867 C33.3076172,13.2954102 33.2460938,13.5751953 33.2460938,13.8857422 L33.2460938,13.8857422 L33.2460938,13.9208984 C33.2460938,14.4169922 33.3803711,14.8139648 33.6489258,15.1118164 C33.9174805,15.409668 34.2753906,15.5585938 34.7226562,15.5585938 Z M34.7226562,14.9902344 C34.4824219,14.9902344 34.2949219,14.8979492 34.1601562,14.7133789 C34.0253906,14.5288086 33.9580078,14.2734375 33.9580078,13.9472656 C33.9580078,13.5800781 34.0263672,13.3041992 34.1630859,13.1196289 C34.2998047,12.9350586 34.484375,12.8427734 34.7167969,12.8427734 C34.953125,12.8427734 35.1401367,12.9365234 35.277832,13.1240234 C35.4155273,13.3115234 35.484375,13.5654297 35.484375,13.8857422 C35.484375,14.2470703 35.4174805,14.5214844 35.2836914,14.7089844 C35.1499023,14.8964844 34.9628906,14.9902344 34.7226562,14.9902344 Z M37.5058594,15.5 L37.5058594,13.3320312 C37.6191406,13.0820312 37.8388672,12.9570312 38.1650391,12.9570312 C38.2646484,12.9570312 38.3613281,12.9648438 38.4550781,12.9804688 L38.4550781,12.9804688 L38.4580078,12.3125 C38.3916016,12.2851562 38.3076172,12.2714844 38.2060547,12.2714844 C37.9013672,12.2714844 37.6630859,12.4091797 37.4912109,12.6845703 L37.4912109,12.6845703 L37.4736328,12.3300781 L36.7939453,12.3300781 L36.7939453,15.5 L37.5058594,15.5 Z M40.0166016,15.5585938 C40.3720703,15.5585938 40.65625,15.4296875 40.8691406,15.171875 L40.8691406,15.171875 L40.9042969,15.5 L41.5488281,15.5 L41.5488281,11 L40.8369141,11 L40.8369141,12.6230469 C40.6298828,12.3886719 40.3583984,12.2714844 40.0224609,12.2714844 C39.6416016,12.2714844 39.3378906,12.4194336 39.1113281,12.715332 C38.8847656,13.0112305 38.7714844,13.4033203 38.7714844,13.8916016 C38.7714844,14.4052734 38.8862305,14.8115234 39.1157227,15.1103516 C39.3452148,15.4091797 39.6455078,15.5585938 40.0166016,15.5585938 Z M40.1982422,14.9785156 C39.9697266,14.9785156 39.793457,14.8881836 39.6694336,14.7075195 C39.5454102,14.5268555 39.4833984,14.2753906 39.4833984,13.953125 C39.4833984,13.5859375 39.5458984,13.3110352 39.6708984,13.128418 C39.7958984,12.9458008 39.9736328,12.8544922 40.2041016,12.8544922 C40.4951172,12.8544922 40.7060547,12.9814453 40.8369141,13.2353516 L40.8369141,13.2353516 L40.8369141,14.5888672 C40.7021484,14.8486328 40.4892578,14.9785156 40.1982422,14.9785156 Z M43.6875,15.5585938 C43.9511719,15.5585938 44.1889648,15.5063477 44.4008789,15.4018555 C44.612793,15.2973633 44.7822266,15.1503906 44.9091797,14.9609375 L44.9091797,14.9609375 L44.5253906,14.5947266 C44.3203125,14.8583984 44.0546875,14.9902344 43.7285156,14.9902344 C43.4960938,14.9902344 43.3032227,14.9140625 43.1499023,14.7617188 C42.996582,14.609375 42.9091797,14.4023438 42.8876953,14.140625 L42.8876953,14.140625 L44.9589844,14.140625 L44.9589844,13.8535156 C44.9589844,13.3496094 44.8413086,12.9599609 44.605957,12.6845703 C44.3706055,12.4091797 44.0371094,12.2714844 43.6054688,12.2714844 C43.3339844,12.2714844 43.0878906,12.3408203 42.8671875,12.4794922 C42.6464844,12.6181641 42.4750977,12.8120117 42.3530273,13.0610352 C42.230957,13.3100586 42.1699219,13.5927734 42.1699219,13.9091797 L42.1699219,13.9091797 L42.1699219,13.9970703 C42.1699219,14.4697266 42.3100586,14.8481445 42.590332,15.1323242 C42.8706055,15.4165039 43.2363281,15.5585938 43.6875,15.5585938 Z M44.2558594,13.6191406 L42.8994141,13.6191406 C42.9326172,13.375 43.0092773,13.1845703 43.1293945,13.0478516 C43.2495117,12.9111328 43.4072266,12.8427734 43.6025391,12.8427734 C43.7998047,12.8427734 43.9541016,12.9038086 44.0654297,13.0258789 C44.1767578,13.1479492 44.2402344,13.328125 44.2558594,13.5664062 L44.2558594,13.5664062 L44.2558594,13.6191406 Z M46.2216797,15.5 L46.2216797,13.3320312 C46.3349609,13.0820312 46.5546875,12.9570312 46.8808594,12.9570312 C46.9804688,12.9570312 47.0771484,12.9648438 47.1708984,12.9804688 L47.1708984,12.9804688 L47.1738281,12.3125 C47.1074219,12.2851562 47.0234375,12.2714844 46.921875,12.2714844 C46.6171875,12.2714844 46.3789062,12.4091797 46.2070312,12.6845703 L46.2070312,12.6845703 L46.1894531,12.3300781 L45.5097656,12.3300781 L45.5097656,15.5 L46.2216797,15.5 Z M49.0019531,13.9736328 L49.0019531,13.3994141 L47.4638672,13.3994141 L47.4638672,13.9736328 L49.0019531,13.9736328 Z M50.2998047,15.5 L50.2998047,13.3320312 C50.4130859,13.0820312 50.6328125,12.9570312 50.9589844,12.9570312 C51.0585938,12.9570312 51.1552734,12.9648438 51.2490234,12.9804688 L51.2490234,12.9804688 L51.2519531,12.3125 C51.1855469,12.2851562 51.1015625,12.2714844 51,12.2714844 C50.6953125,12.2714844 50.4570312,12.4091797 50.2851562,12.6845703 L50.2851562,12.6845703 L50.2675781,12.3300781 L49.5878906,12.3300781 L49.5878906,15.5 L50.2998047,15.5 Z M52.6787109,15.5585938 C53.0068359,15.5585938 53.2841797,15.4404297 53.5107422,15.2041016 C53.5341797,15.3408203 53.5615234,15.4394531 53.5927734,15.5 L53.5927734,15.5 L54.3193359,15.5 L54.3193359,15.4501953 C54.2392578,15.2802734 54.1992188,15.0527344 54.1992188,14.7675781 L54.1992188,14.7675781 L54.1992188,13.3378906 C54.1933594,13 54.0800781,12.737793 53.859375,12.5512695 C53.6386719,12.3647461 53.3427734,12.2714844 52.9716797,12.2714844 C52.7275391,12.2714844 52.5063477,12.3144531 52.3081055,12.4003906 C52.1098633,12.4863281 51.953125,12.6049805 51.8378906,12.7563477 C51.7226562,12.9077148 51.6650391,13.0703125 51.6650391,13.2441406 L51.6650391,13.2441406 L52.3769531,13.2441406 C52.3769531,13.1191406 52.4287109,13.0161133 52.5322266,12.9350586 C52.6357422,12.8540039 52.7685547,12.8134766 52.9306641,12.8134766 C53.1181641,12.8134766 53.2578125,12.862793 53.3496094,12.9614258 C53.4414062,13.0600586 53.4873047,13.1914062 53.4873047,13.3554688 L53.4873047,13.3554688 L53.4873047,13.5634766 L53.0507812,13.5634766 C52.5839844,13.5634766 52.2250977,13.6538086 51.9741211,13.8344727 C51.7231445,14.0151367 51.5976562,14.2744141 51.5976562,14.6123047 C51.5976562,14.8798828 51.6982422,15.1044922 51.8994141,15.2861328 C52.1005859,15.4677734 52.3603516,15.5585938 52.6787109,15.5585938 Z M52.8105469,14.9873047 C52.6582031,14.9873047 52.5366211,14.9467773 52.4458008,14.8657227 C52.3549805,14.784668 52.3095703,14.6757812 52.3095703,14.5390625 C52.3095703,14.3710938 52.3759766,14.2412109 52.5087891,14.1494141 C52.6416016,14.0576172 52.8398438,14.0117188 53.1035156,14.0117188 L53.1035156,14.0117188 L53.4873047,14.0117188 L53.4873047,14.609375 C53.4248047,14.7246094 53.331543,14.8164062 53.2075195,14.8847656 C53.0834961,14.953125 52.9511719,14.9873047 52.8105469,14.9873047 Z M56.0566406,15.5585938 C56.4121094,15.5585938 56.6962891,15.4296875 56.9091797,15.171875 L56.9091797,15.171875 L56.9443359,15.5 L57.5888672,15.5 L57.5888672,11 L56.8769531,11 L56.8769531,12.6230469 C56.6699219,12.3886719 56.3984375,12.2714844 56.0625,12.2714844 C55.6816406,12.2714844 55.3779297,12.4194336 55.1513672,12.715332 C54.9248047,13.0112305 54.8115234,13.4033203 54.8115234,13.8916016 C54.8115234,14.4052734 54.9262695,14.8115234 55.1557617,15.1103516 C55.3852539,15.4091797 55.6855469,15.5585938 56.0566406,15.5585938 Z M56.2382812,14.9785156 C56.0097656,14.9785156 55.8334961,14.8881836 55.7094727,14.7075195 C55.5854492,14.5268555 55.5234375,14.2753906 55.5234375,13.953125 C55.5234375,13.5859375 55.5859375,13.3110352 55.7109375,13.128418 C55.8359375,12.9458008 56.0136719,12.8544922 56.2441406,12.8544922 C56.5351562,12.8544922 56.7460938,12.9814453 56.8769531,13.2353516 L56.8769531,13.2353516 L56.8769531,14.5888672 C56.7421875,14.8486328 56.5292969,14.9785156 56.2382812,14.9785156 Z M58.734375,11.8818359 C58.8632812,11.8818359 58.9628906,11.8461914 59.0332031,11.7749023 C59.1035156,11.7036133 59.1386719,11.6142578 59.1386719,11.5068359 C59.1386719,11.3974609 59.1035156,11.3066406 59.0332031,11.234375 C58.9628906,11.1621094 58.8632812,11.1259766 58.734375,11.1259766 C58.6054688,11.1259766 58.5063477,11.1621094 58.4370117,11.234375 C58.3676758,11.3066406 58.3330078,11.3974609 58.3330078,11.5068359 C58.3330078,11.6142578 58.3676758,11.7036133 58.4370117,11.7749023 C58.5063477,11.8461914 58.6054688,11.8818359 58.734375,11.8818359 Z M59.0888672,15.5 L59.0888672,12.3300781 L58.3769531,12.3300781 L58.3769531,15.5 L59.0888672,15.5 Z M60.8935547,15.5585938 C61.2783203,15.5585938 61.5751953,15.4355469 61.7841797,15.1894531 L61.7841797,15.1894531 L61.8017578,15.5 L62.4726562,15.5 L62.4726562,12.3300781 L61.7607422,12.3300781 L61.7607422,14.6064453 C61.6396484,14.8544922 61.40625,14.9785156 61.0605469,14.9785156 C60.7265625,14.9785156 60.5595703,14.7773438 60.5595703,14.375 L60.5595703,14.375 L60.5595703,12.3300781 L59.8476562,12.3300781 L59.8476562,14.3837891 C59.8476562,14.7646484 59.9360352,15.0556641 60.112793,15.2568359 C60.2895508,15.4580078 60.5498047,15.5585938 60.8935547,15.5585938 Z M64.3916016,15.5585938 C64.7744141,15.5585938 65.0839844,15.4702148 65.3203125,15.293457 C65.5566406,15.1166992 65.6748047,14.8857422 65.6748047,14.6005859 C65.6748047,14.4306641 65.6362305,14.2861328 65.559082,14.1669922 C65.4819336,14.0478516 65.3637695,13.9458008 65.2045898,13.8608398 C65.0454102,13.7758789 64.8261719,13.7026367 64.546875,13.6411133 C64.2675781,13.5795898 64.0820312,13.5185547 63.9902344,13.4580078 C63.8984375,13.3974609 63.8525391,13.3125 63.8525391,13.203125 C63.8525391,13.0820312 63.9018555,12.9853516 64.0004883,12.9130859 C64.0991211,12.8408203 64.2265625,12.8046875 64.3828125,12.8046875 C64.5507812,12.8046875 64.6855469,12.8500977 64.7871094,12.940918 C64.8886719,13.0317383 64.9394531,13.1455078 64.9394531,13.2822266 L64.9394531,13.2822266 L65.6513672,13.2822266 C65.6513672,12.9833984 65.534668,12.7402344 65.3012695,12.5527344 C65.0678711,12.3652344 64.7617188,12.2714844 64.3828125,12.2714844 C64.0273438,12.2714844 63.734375,12.3632812 63.5039062,12.546875 C63.2734375,12.7304688 63.1582031,12.9589844 63.1582031,13.2324219 C63.1582031,13.5585938 63.3359375,13.8076172 63.6914062,13.9794922 C63.8535156,14.0576172 64.0556641,14.1220703 64.2978516,14.1728516 C64.5400391,14.2236328 64.7133789,14.2822266 64.8178711,14.3486328 C64.9223633,14.4150391 64.9746094,14.5117188 64.9746094,14.6386719 C64.9746094,14.7539062 64.9257812,14.847168 64.828125,14.918457 C64.7304688,14.9897461 64.5878906,15.0253906 64.4003906,15.0253906 C64.2070312,15.0253906 64.0517578,14.9799805 63.9345703,14.8891602 C63.8173828,14.7983398 63.7539062,14.6689453 63.7441406,14.5009766 L63.7441406,14.5009766 L63.0527344,14.5009766 C63.0527344,14.6904297 63.109375,14.8671875 63.2226562,15.03125 C63.3359375,15.1953125 63.4941406,15.3242188 63.6972656,15.4179688 C63.9003906,15.5117188 64.1318359,15.5585938 64.3916016,15.5585938 Z M66.7236328,13.0449219 C66.8564453,13.0449219 66.9589844,13.0083008 67.03125,12.9350586 C67.1035156,12.8618164 67.1396484,12.7695312 67.1396484,12.6582031 C67.1396484,12.5449219 67.1035156,12.4506836 67.03125,12.3754883 C66.9589844,12.300293 66.8564453,12.2626953 66.7236328,12.2626953 C66.5927734,12.2626953 66.4912109,12.300293 66.4189453,12.3754883 C66.3466797,12.4506836 66.3105469,12.5449219 66.3105469,12.6582031 C66.3105469,12.7714844 66.3476562,12.8642578 66.421875,12.9365234 C66.4960938,13.0087891 66.5966797,13.0449219 66.7236328,13.0449219 Z M66.7236328,15.5322266 C66.8564453,15.5322266 66.9589844,15.4956055 67.03125,15.4223633 C67.1035156,15.3491211 67.1396484,15.2568359 67.1396484,15.1455078 C67.1396484,15.0322266 67.1035156,14.9379883 67.03125,14.862793 C66.9589844,14.7875977 66.8564453,14.75 66.7236328,14.75 C66.5927734,14.75 66.4912109,14.7875977 66.4189453,14.862793 C66.3466797,14.9379883 66.3105469,15.0322266 66.3105469,15.1455078 C66.3105469,15.2587891 66.3476562,15.3515625 66.421875,15.4238281 C66.4960938,15.4960938 66.5966797,15.5322266 66.7236328,15.5322266 Z M71.7421875,15.5 L71.7421875,14.5507812 L72.2724609,14.5507812 L72.2724609,13.9794922 L71.7421875,13.9794922 L71.7421875,11.234375 L71.0068359,11.234375 L69.1669922,14.1171875 L69.1875,14.5507812 L71.0302734,14.5507812 L71.0302734,15.5 L71.7421875,15.5 Z M71.0302734,13.9794922 L69.9140625,13.9794922 L70.9775391,12.2919922 L71.0302734,12.1982422 L71.0302734,13.9794922 Z"/>
    </g>
    <g transform="translate(441 60)">
      <rect width="8" height="16"/>
      <g stroke="#EA475B" stroke-linecap="round" stroke-width=".4" transform="translate(8)">
        <line x2="2" y1="1" y2="1"/>
        <line x2="2" y1="15" y2="15"/>
        <line x1="1" x2="1" y1="1" y2="15"/>
      </g>
      <path fill="#EA475B" fill-rule="nonzero" d="M16.2470703,10 L16.2470703,5.71972656 L16.15625,5.71972656 L14.4921875,6.33203125 L14.4921875,6.93261719 L15.5380859,6.57519531 L15.5380859,10 L16.2470703,10 Z M19.1855469,10.0585938 C19.5996094,10.0585938 19.934082,9.92431641 20.1889648,9.65576172 C20.4438477,9.38720703 20.5712891,9.03613281 20.5712891,8.60253906 C20.5712891,8.18261719 20.4624023,7.83984375 20.2446289,7.57421875 C20.0268555,7.30859375 19.7294922,7.17578125 19.3525391,7.17578125 C18.9970703,7.17578125 18.7050781,7.29589844 18.4765625,7.53613281 C18.5214844,7.14550781 18.6630859,6.84375 18.9013672,6.63085938 C19.1396484,6.41796875 19.4580078,6.30859375 19.8564453,6.30273438 L19.8564453,6.30273438 L19.9443359,6.30273438 L19.9443359,5.71386719 L19.8710938,5.71386719 C19.1875,5.71386719 18.6635742,5.92578125 18.2993164,6.34960938 C17.9350586,6.7734375 17.7529297,7.359375 17.7529297,8.10742188 L17.7529297,8.10742188 L17.7529297,8.35058594 C17.7529297,8.86035156 17.8852539,9.27246094 18.1499023,9.58691406 C18.4145508,9.90136719 18.7597656,10.0585938 19.1855469,10.0585938 Z M19.1796875,9.484375 C18.96875,9.484375 18.796875,9.39111328 18.6640625,9.20458984 C18.53125,9.01806641 18.4648438,8.76660156 18.4648438,8.45019531 L18.4648438,8.45019531 L18.4648438,8.23339844 C18.5253906,8.08691406 18.6206055,7.96972656 18.7504883,7.88183594 C18.8803711,7.79394531 19.0234375,7.75 19.1796875,7.75 C19.3867188,7.75 19.5527344,7.83105469 19.6777344,7.99316406 C19.8027344,8.15527344 19.8652344,8.36523438 19.8652344,8.62304688 C19.8652344,8.88085938 19.8037109,9.08886719 19.6806641,9.24707031 C19.5576172,9.40527344 19.390625,9.484375 19.1796875,9.484375 Z"/>
    </g>
    <g transform="translate(441 76)">
      <rect width="8" height="24"/>
      <g stroke="#EA475B" stroke-linecap="round" stroke-width=".4" transform="translate(8)">
        <line x2="2" y1="1" y2="1"/>
        <line x2="2" y1="23" y2="23"/>
        <line x1="1" x2="1" y1="1" y2="23"/>
      </g>
      <path fill="#EA475B" fill-rule="nonzero" d="M17.1875,14 L17.1875,13.4316406 L15.2070312,13.4316406 L16.25,12.3154297 C16.5234375,12.0185547 16.7202148,11.753418 16.840332,11.5200195 C16.9604492,11.2866211 17.0205078,11.0634766 17.0205078,10.8505859 C17.0205078,10.4833984 16.9008789,10.1958008 16.6616211,9.98779297 C16.4223633,9.77978516 16.0957031,9.67578125 15.6816406,9.67578125 C15.3945312,9.67578125 15.1411133,9.73339844 14.9213867,9.84863281 C14.7016602,9.96386719 14.5327148,10.1254883 14.4145508,10.3334961 C14.2963867,10.5415039 14.2373047,10.7753906 14.2373047,11.0351562 L14.2373047,11.0351562 L14.9492188,11.0351562 C14.9492188,10.7910156 15.0126953,10.5986328 15.1396484,10.4580078 C15.2666016,10.3173828 15.4453125,10.2470703 15.6757812,10.2470703 C15.8691406,10.2470703 16.0229492,10.3095703 16.137207,10.4345703 C16.2514648,10.5595703 16.3085938,10.7236328 16.3085938,10.9267578 C16.3085938,11.0810547 16.2651367,11.2348633 16.1782227,11.3881836 C16.0913086,11.5415039 15.9453125,11.7324219 15.7402344,11.9609375 L15.7402344,11.9609375 L14.3193359,13.5107422 L14.3193359,14 L17.1875,14 Z M20.1376953,14 L20.1376953,13.0507812 L20.6679688,13.0507812 L20.6679688,12.4794922 L20.1376953,12.4794922 L20.1376953,9.734375 L19.4023438,9.734375 L17.5625,12.6171875 L17.5830078,13.0507812 L19.4257812,13.0507812 L19.4257812,14 L20.1376953,14 Z M19.4257812,12.4794922 L18.3095703,12.4794922 L19.3730469,10.7919922 L19.4257812,10.6982422 L19.4257812,12.4794922 Z"/>
    </g>
    <line x1="53.5" y1=".5" y2=".5" stroke="#EA475B" stroke-dasharray="2 2" stroke-linecap="round" stroke-width=".4" transform="translate(394 60.5)"/>
    <line x1="53.5" y1=".5" y2=".5" stroke="#EA475B" stroke-dasharray="2 2" stroke-linecap="round" stroke-width=".4" transform="translate(394 75.5)"/>
    <line x1="53.5" y1=".5" y2=".5" stroke="#EA475B" stroke-dasharray="2 2" stroke-linecap="round" stroke-width=".4" transform="translate(394 99.5)"/>
    <g transform="translate(81 46)">
      <g stroke="#EA475B" stroke-linecap="round" stroke-width=".4" transform="translate(0 8)">
        <line x1=".5" x2=".5" y2="2"/>
        <line x1="15.5" x2="15.5" y2="2"/>
        <line x1=".5" x2="15.5" y1="1" y2="1"/>
      </g>
      <path fill="#EA475B" fill-rule="nonzero" d="M6.33691406,6 L6.33691406,1.71972656 L6.24609375,1.71972656 L4.58203125,2.33203125 L4.58203125,2.93261719 L5.62792969,2.57519531 L5.62792969,6 L6.33691406,6 Z M9.27539062,6.05859375 C9.68945312,6.05859375 10.0239258,5.92431641 10.2788086,5.65576172 C10.5336914,5.38720703 10.6611328,5.03613281 10.6611328,4.60253906 C10.6611328,4.18261719 10.5522461,3.83984375 10.3344727,3.57421875 C10.1166992,3.30859375 9.81933594,3.17578125 9.44238281,3.17578125 C9.08691406,3.17578125 8.79492188,3.29589844 8.56640625,3.53613281 C8.61132812,3.14550781 8.75292969,2.84375 8.99121094,2.63085938 C9.22949219,2.41796875 9.54785156,2.30859375 9.94628906,2.30273438 L9.94628906,2.30273438 L10.0341797,2.30273438 L10.0341797,1.71386719 L9.9609375,1.71386719 C9.27734375,1.71386719 8.75341797,1.92578125 8.38916016,2.34960938 C8.02490234,2.7734375 7.84277344,3.359375 7.84277344,4.10742188 L7.84277344,4.10742188 L7.84277344,4.35058594 C7.84277344,4.86035156 7.97509766,5.27246094 8.23974609,5.58691406 C8.50439453,5.90136719 8.84960938,6.05859375 9.27539062,6.05859375 Z M9.26953125,5.484375 C9.05859375,5.484375 8.88671875,5.39111328 8.75390625,5.20458984 C8.62109375,5.01806641 8.5546875,4.76660156 8.5546875,4.45019531 L8.5546875,4.45019531 L8.5546875,4.23339844 C8.61523438,4.08691406 8.71044922,3.96972656 8.84033203,3.88183594 C8.97021484,3.79394531 9.11328125,3.75 9.26953125,3.75 C9.4765625,3.75 9.64257812,3.83105469 9.76757812,3.99316406 C9.89257812,4.15527344 9.95507812,4.36523438 9.95507812,4.62304688 C9.95507812,4.88085938 9.89355469,5.08886719 9.77050781,5.24707031 C9.64746094,5.40527344 9.48046875,5.484375 9.26953125,5.484375 Z"/>
      <rect width="16" height="4" y="10"/>
    </g>
    <g transform="translate(78 128)">
      <circle cx="29" cy="1" r="1" fill="#EA475B"/>
      <line x1="29" x2="29" y1="1" y2="56" stroke="#EA475B" stroke-linecap="round" stroke-width=".4"/>
      <path fill="#EA475B" fill-rule="nonzero" d="M1.75488281,69.5615234 L1.75488281,65.28125 L1.6640625,65.28125 L0,65.8935547 L0,66.4941406 L1.04589844,66.1367188 L1.04589844,69.5615234 L1.75488281,69.5615234 Z M4.39453125,69.6201172 C4.75,69.6201172 5.03417969,69.4912109 5.24707031,69.2333984 L5.24707031,69.2333984 L5.28222656,69.5615234 L5.92675781,69.5615234 L5.92675781,65.0615234 L5.21484375,65.0615234 L5.21484375,66.6845703 C5.0078125,66.4501953 4.73632812,66.3330078 4.40039062,66.3330078 C4.01953125,66.3330078 3.71582031,66.480957 3.48925781,66.7768555 C3.26269531,67.0727539 3.14941406,67.4648438 3.14941406,67.953125 C3.14941406,68.4667969 3.26416016,68.8730469 3.49365234,69.171875 C3.72314453,69.4707031 4.0234375,69.6201172 4.39453125,69.6201172 Z M4.57617188,69.0400391 C4.34765625,69.0400391 4.17138672,68.949707 4.04736328,68.769043 C3.92333984,68.5883789 3.86132812,68.3369141 3.86132812,68.0146484 C3.86132812,67.6474609 3.92382812,67.3725586 4.04882812,67.1899414 C4.17382812,67.0073242 4.3515625,66.9160156 4.58203125,66.9160156 C4.87304688,66.9160156 5.08398438,67.0429688 5.21484375,67.296875 L5.21484375,67.296875 L5.21484375,68.6503906 C5.08007812,68.9101562 4.8671875,69.0400391 4.57617188,69.0400391 Z M7.37988281,70.7802734 L7.37988281,69.2773438 C7.58886719,69.5058594 7.8671875,69.6201172 8.21484375,69.6201172 C8.58984375,69.6201172 8.88867188,69.4741211 9.11132812,69.1821289 C9.33398438,68.8901367 9.4453125,68.4990234 9.4453125,68.0087891 L9.4453125,68.0087891 L9.4453125,67.9648438 C9.4453125,67.453125 9.33544922,67.0532227 9.11572266,66.7651367 C8.89599609,66.4770508 8.59277344,66.3330078 8.20605469,66.3330078 C7.84667969,66.3330078 7.5625,66.4599609 7.35351562,66.7138672 L7.35351562,66.7138672 L7.32421875,66.3916016 L6.66796875,66.3916016 L6.66796875,70.7802734 L7.37988281,70.7802734 Z M8.01269531,69.0517578 C7.71972656,69.0517578 7.50878906,68.9287109 7.37988281,68.6826172 L7.37988281,68.6826172 L7.37988281,67.2763672 C7.50683594,67.0361328 7.71582031,66.9160156 8.00683594,66.9160156 C8.24121094,66.9160156 8.42138672,67.0087891 8.54736328,67.1943359 C8.67333984,67.3798828 8.73632812,67.6308594 8.73632812,67.9472656 C8.73632812,68.3183594 8.67236328,68.5952148 8.54443359,68.777832 C8.41650391,68.9604492 8.23925781,69.0517578 8.01269531,69.0517578 Z M13.0195312,67.8359375 L13.4443359,67.5253906 L12.8583984,66.7460938 L13.7666016,66.4882812 L13.6083984,65.984375 L12.7382812,66.3212891 L12.7822266,65.2958984 L12.2578125,65.2958984 L12.3017578,66.3037109 L11.4169922,65.9609375 L11.2558594,66.4560547 L12.1494141,66.7138672 L11.5429688,67.5107422 L11.9707031,67.8095703 L12.4921875,66.9921875 L13.0195312,67.8359375 Z M14.3935547,69.9277344 L16.0722656,65.2958984 L15.5126953,65.2958984 L13.8339844,69.9277344 L14.3935547,69.9277344 Z M19.4033203,69.6201172 C19.6962891,69.6201172 19.9545898,69.5527344 20.1782227,69.4179688 C20.4018555,69.2832031 20.5737305,69.0927734 20.6938477,68.8466797 C20.8139648,68.6005859 20.8740234,68.3212891 20.8740234,68.0087891 L20.8740234,68.0087891 L20.8710938,67.8417969 C20.8496094,67.3867188 20.7055664,67.0214844 20.4389648,66.7460938 C20.1723633,66.4707031 19.8251953,66.3330078 19.3974609,66.3330078 C19.1083984,66.3330078 18.8525391,66.3999023 18.6298828,66.5336914 C18.4072266,66.6674805 18.234375,66.8588867 18.1113281,67.1079102 C17.9882812,67.3569336 17.9267578,67.6367188 17.9267578,67.9472656 L17.9267578,67.9472656 L17.9267578,67.9824219 C17.9267578,68.4785156 18.0610352,68.8754883 18.3295898,69.1733398 C18.5981445,69.4711914 18.9560547,69.6201172 19.4033203,69.6201172 Z M19.4033203,69.0517578 C19.1630859,69.0517578 18.9755859,68.9594727 18.8408203,68.7749023 C18.7060547,68.590332 18.6386719,68.3349609 18.6386719,68.0087891 C18.6386719,67.6416016 18.7070312,67.3657227 18.84375,67.1811523 C18.9804688,66.996582 19.1650391,66.9042969 19.3974609,66.9042969 C19.6337891,66.9042969 19.8208008,66.9980469 19.9584961,67.1855469 C20.0961914,67.3730469 20.1650391,67.6269531 20.1650391,67.9472656 C20.1650391,68.3085938 20.0981445,68.5830078 19.9643555,68.7705078 C19.8305664,68.9580078 19.6435547,69.0517578 19.4033203,69.0517578 Z M22.1777344,69.5615234 L22.1777344,67.3056641 C22.3183594,67.0458984 22.5322266,66.9160156 22.8193359,66.9160156 C23.0166016,66.9160156 23.1586914,66.9643555 23.2456055,67.0610352 C23.3325195,67.1577148 23.3759766,67.3066406 23.3759766,67.5078125 L23.3759766,67.5078125 L23.3759766,69.5615234 L24.0878906,69.5615234 L24.0878906,67.4667969 C24.0761719,66.7109375 23.7402344,66.3330078 23.0800781,66.3330078 C22.6992188,66.3330078 22.3916016,66.4746094 22.1572266,66.7578125 L22.1572266,66.7578125 L22.1367188,66.3916016 L21.4658203,66.3916016 L21.4658203,69.5615234 L22.1777344,69.5615234 Z M27.2695312,69.5615234 L27.2695312,66.9189453 L27.9140625,66.9189453 L27.9140625,66.3916016 L27.2695312,66.3916016 L27.2695312,66.1103516 C27.2695312,65.7607422 27.4394531,65.5859375 27.7792969,65.5859375 C27.8828125,65.5859375 27.9736328,65.59375 28.0517578,65.609375 L28.0517578,65.609375 L28.0693359,65.0527344 C27.9287109,65.0175781 27.7958984,65 27.6708984,65 C27.3193359,65 27.0458984,65.0957031 26.8505859,65.2871094 C26.6552734,65.4785156 26.5576172,65.75 26.5576172,66.1015625 L26.5576172,66.1015625 L26.5576172,66.3916016 L26.0742188,66.3916016 L26.0742188,66.9189453 L26.5576172,66.9189453 L26.5576172,69.5615234 L27.2695312,69.5615234 Z M29.7773438,69.6201172 C30.0703125,69.6201172 30.3286133,69.5527344 30.5522461,69.4179688 C30.7758789,69.2832031 30.9477539,69.0927734 31.0678711,68.8466797 C31.1879883,68.6005859 31.2480469,68.3212891 31.2480469,68.0087891 L31.2480469,68.0087891 L31.2451172,67.8417969 C31.2236328,67.3867188 31.0795898,67.0214844 30.8129883,66.7460938 C30.5463867,66.4707031 30.1992188,66.3330078 29.7714844,66.3330078 C29.4824219,66.3330078 29.2265625,66.3999023 29.0039062,66.5336914 C28.78125,66.6674805 28.6083984,66.8588867 28.4853516,67.1079102 C28.3623047,67.3569336 28.3007812,67.6367188 28.3007812,67.9472656 L28.3007812,67.9472656 L28.3007812,67.9824219 C28.3007812,68.4785156 28.4350586,68.8754883 28.7036133,69.1733398 C28.972168,69.4711914 29.3300781,69.6201172 29.7773438,69.6201172 Z M29.7773438,69.0517578 C29.5371094,69.0517578 29.3496094,68.9594727 29.2148438,68.7749023 C29.0800781,68.590332 29.0126953,68.3349609 29.0126953,68.0087891 C29.0126953,67.6416016 29.0810547,67.3657227 29.2177734,67.1811523 C29.3544922,66.996582 29.5390625,66.9042969 29.7714844,66.9042969 C30.0078125,66.9042969 30.1948242,66.9980469 30.3325195,67.1855469 C30.4702148,67.3730469 30.5390625,67.6269531 30.5390625,67.9472656 C30.5390625,68.3085938 30.472168,68.5830078 30.3383789,68.7705078 C30.2045898,68.9580078 30.0175781,69.0517578 29.7773438,69.0517578 Z M33.1611328,69.6201172 C33.3896484,69.6201172 33.6025391,69.5703125 33.7998047,69.4707031 C33.9970703,69.3710938 34.1533203,69.2358398 34.2685547,69.0649414 C34.3837891,68.894043 34.4453125,68.7099609 34.453125,68.5126953 L34.453125,68.5126953 L33.7822266,68.5126953 C33.7744141,68.6650391 33.7119141,68.7929688 33.5947266,68.8964844 C33.4775391,69 33.3300781,69.0517578 33.1523438,69.0517578 C32.9179688,69.0517578 32.7387695,68.9672852 32.6147461,68.7983398 C32.4907227,68.6293945 32.4287109,68.3730469 32.4287109,68.0292969 L32.4287109,68.0292969 L32.4287109,67.9150391 C32.4306641,67.5751953 32.4941406,67.3217773 32.6191406,67.1547852 C32.7441406,66.987793 32.921875,66.9042969 33.1523438,66.9042969 C33.3320312,66.9042969 33.4799805,66.9628906 33.5961914,67.0800781 C33.7124023,67.1972656 33.7744141,67.3466797 33.7822266,67.5283203 L33.7822266,67.5283203 L34.453125,67.5283203 C34.4414062,67.1708984 34.3168945,66.8823242 34.0795898,66.6625977 C33.8422852,66.4428711 33.5351562,66.3330078 33.1582031,66.3330078 C32.7128906,66.3330078 32.3613281,66.4780273 32.1035156,66.7680664 C31.8457031,67.0581055 31.7167969,67.4443359 31.7167969,67.9267578 L31.7167969,67.9267578 L31.7167969,68 C31.7167969,68.5058594 31.8466797,68.9023438 32.1064453,69.1894531 C32.3662109,69.4765625 32.7177734,69.6201172 33.1611328,69.6201172 Z M36.0205078,69.6201172 C36.4052734,69.6201172 36.7021484,69.4970703 36.9111328,69.2509766 L36.9111328,69.2509766 L36.9287109,69.5615234 L37.5996094,69.5615234 L37.5996094,66.3916016 L36.8876953,66.3916016 L36.8876953,68.6679688 C36.7666016,68.9160156 36.5332031,69.0400391 36.1875,69.0400391 C35.8535156,69.0400391 35.6865234,68.8388672 35.6865234,68.4365234 L35.6865234,68.4365234 L35.6865234,66.3916016 L34.9746094,66.3916016 L34.9746094,68.4453125 C34.9746094,68.8261719 35.0629883,69.1171875 35.2397461,69.3183594 C35.4165039,69.5195312 35.6767578,69.6201172 36.0205078,69.6201172 Z M39.5185547,69.6201172 C39.9013672,69.6201172 40.2109375,69.5317383 40.4472656,69.3549805 C40.6835938,69.1782227 40.8017578,68.9472656 40.8017578,68.6621094 C40.8017578,68.4921875 40.7631836,68.3476562 40.6860352,68.2285156 C40.6088867,68.109375 40.4907227,68.0073242 40.331543,67.9223633 C40.1723633,67.8374023 39.953125,67.7641602 39.6738281,67.7026367 C39.3945312,67.6411133 39.2089844,67.5800781 39.1171875,67.5195312 C39.0253906,67.4589844 38.9794922,67.3740234 38.9794922,67.2646484 C38.9794922,67.1435547 39.0288086,67.046875 39.1274414,66.9746094 C39.2260742,66.9023438 39.3535156,66.8662109 39.5097656,66.8662109 C39.6777344,66.8662109 39.8125,66.9116211 39.9140625,67.0024414 C40.015625,67.0932617 40.0664062,67.2070312 40.0664062,67.34375 L40.0664062,67.34375 L40.7783203,67.34375 C40.7783203,67.0449219 40.6616211,66.8017578 40.4282227,66.6142578 C40.1948242,66.4267578 39.8886719,66.3330078 39.5097656,66.3330078 C39.1542969,66.3330078 38.8613281,66.4248047 38.6308594,66.6083984 C38.4003906,66.7919922 38.2851562,67.0205078 38.2851562,67.2939453 C38.2851562,67.6201172 38.4628906,67.8691406 38.8183594,68.0410156 C38.9804688,68.1191406 39.1826172,68.1835938 39.4248047,68.234375 C39.6669922,68.2851562 39.840332,68.34375 39.9448242,68.4101562 C40.0493164,68.4765625 40.1015625,68.5732422 40.1015625,68.7001953 C40.1015625,68.8154297 40.0527344,68.9086914 39.9550781,68.9799805 C39.8574219,69.0512695 39.7148438,69.0869141 39.5273438,69.0869141 C39.3339844,69.0869141 39.1787109,69.0415039 39.0615234,68.9506836 C38.9443359,68.8598633 38.8808594,68.7304688 38.8710938,68.5625 L38.8710938,68.5625 L38.1796875,68.5625 C38.1796875,68.7519531 38.2363281,68.9287109 38.3496094,69.0927734 C38.4628906,69.2568359 38.6210938,69.3857422 38.8242188,69.4794922 C39.0273438,69.5732422 39.2587891,69.6201172 39.5185547,69.6201172 Z M45.7382812,69.5615234 L45.7382812,68.9931641 L43.7578125,68.9931641 L44.8007812,67.8769531 C45.0742188,67.5800781 45.2709961,67.3149414 45.3911133,67.081543 C45.5112305,66.8481445 45.5712891,66.625 45.5712891,66.4121094 C45.5712891,66.0449219 45.4516602,65.7573242 45.2124023,65.5493164 C44.9731445,65.3413086 44.6464844,65.2373047 44.2324219,65.2373047 C43.9453125,65.2373047 43.6918945,65.2949219 43.472168,65.4101562 C43.2524414,65.5253906 43.0834961,65.6870117 42.965332,65.8950195 C42.847168,66.1030273 42.7880859,66.3369141 42.7880859,66.5966797 L42.7880859,66.5966797 L43.5,66.5966797 C43.5,66.3525391 43.5634766,66.1601562 43.6904297,66.0195312 C43.8173828,65.8789062 43.9960938,65.8085938 44.2265625,65.8085938 C44.4199219,65.8085938 44.5737305,65.8710938 44.6879883,65.9960938 C44.8022461,66.1210938 44.859375,66.2851562 44.859375,66.4882812 C44.859375,66.6425781 44.815918,66.7963867 44.7290039,66.949707 C44.6420898,67.1030273 44.4960938,67.2939453 44.2910156,67.5224609 L44.2910156,67.5224609 L42.8701172,69.0722656 L42.8701172,69.5615234 L45.7382812,69.5615234 Z M47.4375,69.6201172 C47.7929688,69.6201172 48.0771484,69.4912109 48.2900391,69.2333984 L48.2900391,69.2333984 L48.3251953,69.5615234 L48.9697266,69.5615234 L48.9697266,65.0615234 L48.2578125,65.0615234 L48.2578125,66.6845703 C48.0507812,66.4501953 47.7792969,66.3330078 47.4433594,66.3330078 C47.0625,66.3330078 46.7587891,66.480957 46.5322266,66.7768555 C46.3056641,67.0727539 46.1923828,67.4648438 46.1923828,67.953125 C46.1923828,68.4667969 46.3071289,68.8730469 46.5366211,69.171875 C46.7661133,69.4707031 47.0664062,69.6201172 47.4375,69.6201172 Z M47.6191406,69.0400391 C47.390625,69.0400391 47.2143555,68.949707 47.090332,68.769043 C46.9663086,68.5883789 46.9042969,68.3369141 46.9042969,68.0146484 C46.9042969,67.6474609 46.9667969,67.3725586 47.0917969,67.1899414 C47.2167969,67.0073242 47.3945312,66.9160156 47.625,66.9160156 C47.9160156,66.9160156 48.1269531,67.0429688 48.2578125,67.296875 L48.2578125,67.296875 L48.2578125,68.6503906 C48.1230469,68.9101562 47.9101562,69.0400391 47.6191406,69.0400391 Z M50.4228516,70.7802734 L50.4228516,69.2773438 C50.6318359,69.5058594 50.9101562,69.6201172 51.2578125,69.6201172 C51.6328125,69.6201172 51.9316406,69.4741211 52.1542969,69.1821289 C52.3769531,68.8901367 52.4882812,68.4990234 52.4882812,68.0087891 L52.4882812,68.0087891 L52.4882812,67.9648438 C52.4882812,67.453125 52.378418,67.0532227 52.1586914,66.7651367 C51.9389648,66.4770508 51.6357422,66.3330078 51.2490234,66.3330078 C50.8896484,66.3330078 50.6054688,66.4599609 50.3964844,66.7138672 L50.3964844,66.7138672 L50.3671875,66.3916016 L49.7109375,66.3916016 L49.7109375,70.7802734 L50.4228516,70.7802734 Z M51.0556641,69.0517578 C50.7626953,69.0517578 50.5517578,68.9287109 50.4228516,68.6826172 L50.4228516,68.6826172 L50.4228516,67.2763672 C50.5498047,67.0361328 50.7587891,66.9160156 51.0498047,66.9160156 C51.2841797,66.9160156 51.4643555,67.0087891 51.590332,67.1943359 C51.7163086,67.3798828 51.7792969,67.6308594 51.7792969,67.9472656 C51.7792969,68.3183594 51.715332,68.5952148 51.5874023,68.777832 C51.4594727,68.9604492 51.2822266,69.0517578 51.0556641,69.0517578 Z M54.7851562,69.9277344 L56.4638672,65.2958984 L55.9042969,65.2958984 L54.2255859,69.9277344 L54.7851562,69.9277344 Z M58.4355469,67.8359375 L58.8603516,67.5253906 L58.2744141,66.7460938 L59.1826172,66.4882812 L59.0244141,65.984375 L58.1542969,66.3212891 L58.1982422,65.2958984 L57.6738281,65.2958984 L57.7177734,66.3037109 L56.8330078,65.9609375 L56.671875,66.4560547 L57.5654297,66.7138672 L56.9589844,67.5107422 L57.3867188,67.8095703 L57.9082031,66.9921875 L58.4355469,67.8359375 Z"/>
    </g>
    <g transform="translate(81 140)">
      <g stroke="#EA475B" stroke-linecap="round" stroke-width=".4" transform="translate(0 .91)">
        <line x1=".5" x2=".5" y1=".364" y2="2.364"/>
        <line x1="359.5" x2="359.5" y1=".364" y2="2.364"/>
        <line x1=".5" x2="359.5" y1="1.364" y2="1.364"/>
      </g>
      <path fill="#EA475B" fill-rule="nonzero" d="M163.461914,10 L164.129883,7.82324219 L164.80957,10 L165.395508,10 L166.259766,6.83007812 L165.56543,6.83007812 L165.061523,9.01855469 L164.402344,6.83007812 L163.866211,6.83007812 L163.21582,8.99511719 L162.703125,6.83007812 L162.008789,6.83007812 L162.875977,10 L163.461914,10 Z M167.138672,6.38183594 C167.267578,6.38183594 167.367188,6.34619141 167.4375,6.27490234 C167.507812,6.20361328 167.542969,6.11425781 167.542969,6.00683594 C167.542969,5.89746094 167.507812,5.80664062 167.4375,5.734375 C167.367188,5.66210938 167.267578,5.62597656 167.138672,5.62597656 C167.009766,5.62597656 166.910645,5.66210938 166.841309,5.734375 C166.771973,5.80664062 166.737305,5.89746094 166.737305,6.00683594 C166.737305,6.11425781 166.771973,6.20361328 166.841309,6.27490234 C166.910645,6.34619141 167.009766,6.38183594 167.138672,6.38183594 Z M167.493164,10 L167.493164,6.83007812 L166.78125,6.83007812 L166.78125,10 L167.493164,10 Z M169.379883,10.0585938 C169.735352,10.0585938 170.019531,9.9296875 170.232422,9.671875 L170.232422,9.671875 L170.267578,10 L170.912109,10 L170.912109,5.5 L170.200195,5.5 L170.200195,7.12304688 C169.993164,6.88867188 169.72168,6.77148438 169.385742,6.77148438 C169.004883,6.77148438 168.701172,6.91943359 168.474609,7.21533203 C168.248047,7.51123047 168.134766,7.90332031 168.134766,8.39160156 C168.134766,8.90527344 168.249512,9.31152344 168.479004,9.61035156 C168.708496,9.90917969 169.008789,10.0585938 169.379883,10.0585938 Z M169.561523,9.47851562 C169.333008,9.47851562 169.156738,9.38818359 169.032715,9.20751953 C168.908691,9.02685547 168.84668,8.77539062 168.84668,8.453125 C168.84668,8.0859375 168.90918,7.81103516 169.03418,7.62841797 C169.15918,7.44580078 169.336914,7.35449219 169.567383,7.35449219 C169.858398,7.35449219 170.069336,7.48144531 170.200195,7.73535156 L170.200195,7.73535156 L170.200195,9.08886719 C170.06543,9.34863281 169.852539,9.47851562 169.561523,9.47851562 Z M172.655273,10.0585938 C172.805664,10.0585938 172.961914,10.0361328 173.124023,9.99121094 L173.124023,9.99121094 L173.124023,9.44042969 C173.040039,9.45996094 172.957031,9.46972656 172.875,9.46972656 C172.751953,9.46972656 172.666504,9.44287109 172.618652,9.38916016 C172.570801,9.33544922 172.546875,9.24804688 172.546875,9.12695312 L172.546875,9.12695312 L172.546875,7.35742188 L173.106445,7.35742188 L173.106445,6.83007812 L172.546875,6.83007812 L172.546875,6.05957031 L171.834961,6.05957031 L171.834961,6.83007812 L171.313477,6.83007812 L171.313477,7.35742188 L171.834961,7.35742188 L171.834961,9.15332031 C171.834961,9.75683594 172.108398,10.0585938 172.655273,10.0585938 Z M174.351562,10 L174.351562,7.73535156 C174.492188,7.48144531 174.705078,7.35449219 174.990234,7.35449219 C175.173828,7.35449219 175.312988,7.39990234 175.407715,7.49072266 C175.502441,7.58154297 175.549805,7.73632812 175.549805,7.95507812 L175.549805,7.95507812 L175.549805,10 L176.261719,10 L176.261719,7.92871094 C176.251953,7.15722656 175.90918,6.77148438 175.233398,6.77148438 C174.87793,6.77148438 174.583984,6.90625 174.351562,7.17578125 L174.351562,7.17578125 L174.351562,5.5 L173.639648,5.5 L173.639648,10 L174.351562,10 Z M177.410156,7.54492188 C177.542969,7.54492188 177.645508,7.50830078 177.717773,7.43505859 C177.790039,7.36181641 177.826172,7.26953125 177.826172,7.15820312 C177.826172,7.04492188 177.790039,6.95068359 177.717773,6.87548828 C177.645508,6.80029297 177.542969,6.76269531 177.410156,6.76269531 C177.279297,6.76269531 177.177734,6.80029297 177.105469,6.87548828 C177.033203,6.95068359 176.99707,7.04492188 176.99707,7.15820312 C176.99707,7.27148438 177.03418,7.36425781 177.108398,7.43652344 C177.182617,7.50878906 177.283203,7.54492188 177.410156,7.54492188 Z M177.410156,10.0322266 C177.542969,10.0322266 177.645508,9.99560547 177.717773,9.92236328 C177.790039,9.84912109 177.826172,9.75683594 177.826172,9.64550781 C177.826172,9.53222656 177.790039,9.43798828 177.717773,9.36279297 C177.645508,9.28759766 177.542969,9.25 177.410156,9.25 C177.279297,9.25 177.177734,9.28759766 177.105469,9.36279297 C177.033203,9.43798828 176.99707,9.53222656 176.99707,9.64550781 C176.99707,9.75878906 177.03418,9.8515625 177.108398,9.92382812 C177.182617,9.99609375 177.283203,10.0322266 177.410156,10.0322266 Z M181.948242,10 L181.948242,5.71972656 L181.857422,5.71972656 L180.193359,6.33203125 L180.193359,6.93261719 L181.239258,6.57519531 L181.239258,10 L181.948242,10 Z M184.819336,10.0585938 C185.288086,10.0585938 185.637207,9.90283203 185.866699,9.59130859 C186.096191,9.27978516 186.210938,8.81738281 186.210938,8.20410156 L186.210938,8.20410156 L186.210938,7.46582031 C186.205078,6.87011719 186.087402,6.42285156 185.85791,6.12402344 C185.628418,5.82519531 185.280273,5.67578125 184.813477,5.67578125 C184.342773,5.67578125 183.992676,5.82910156 183.763184,6.13574219 C183.533691,6.44238281 183.418945,6.90234375 183.418945,7.515625 L183.418945,7.515625 L183.418945,8.25390625 C183.424805,8.84960938 183.544434,9.29931641 183.777832,9.60302734 C184.01123,9.90673828 184.358398,10.0585938 184.819336,10.0585938 Z M184.819336,9.49023438 C184.581055,9.49023438 184.40625,9.39257812 184.294922,9.19726562 C184.183594,9.00195312 184.12793,8.70507812 184.12793,8.30664062 L184.12793,8.30664062 L184.12793,7.33984375 C184.133789,6.96484375 184.191406,6.68896484 184.300781,6.51220703 C184.410156,6.33544922 184.581055,6.24707031 184.813477,6.24707031 C185.051758,6.24707031 185.225586,6.34033203 185.334961,6.52685547 C185.444336,6.71337891 185.499023,7.00683594 185.499023,7.40722656 L185.499023,7.40722656 L185.499023,8.37109375 C185.493164,8.75585938 185.435547,9.03857422 185.326172,9.21923828 C185.216797,9.39990234 185.047852,9.49023438 184.819336,9.49023438 Z M188.229492,10.0585938 C188.698242,10.0585938 189.047363,9.90283203 189.276855,9.59130859 C189.506348,9.27978516 189.621094,8.81738281 189.621094,8.20410156 L189.621094,8.20410156 L189.621094,7.46582031 C189.615234,6.87011719 189.497559,6.42285156 189.268066,6.12402344 C189.038574,5.82519531 188.69043,5.67578125 188.223633,5.67578125 C187.75293,5.67578125 187.402832,5.82910156 187.17334,6.13574219 C186.943848,6.44238281 186.829102,6.90234375 186.829102,7.515625 L186.829102,7.515625 L186.829102,8.25390625 C186.834961,8.84960938 186.95459,9.29931641 187.187988,9.60302734 C187.421387,9.90673828 187.768555,10.0585938 188.229492,10.0585938 Z M188.229492,9.49023438 C187.991211,9.49023438 187.816406,9.39257812 187.705078,9.19726562 C187.59375,9.00195312 187.538086,8.70507812 187.538086,8.30664062 L187.538086,8.30664062 L187.538086,7.33984375 C187.543945,6.96484375 187.601562,6.68896484 187.710938,6.51220703 C187.820312,6.33544922 187.991211,6.24707031 188.223633,6.24707031 C188.461914,6.24707031 188.635742,6.34033203 188.745117,6.52685547 C188.854492,6.71337891 188.90918,7.00683594 188.90918,7.40722656 L188.90918,7.40722656 L188.90918,8.37109375 C188.90332,8.75585938 188.845703,9.03857422 188.736328,9.21923828 C188.626953,9.39990234 188.458008,9.49023438 188.229492,9.49023438 Z M191.129883,7.65625 C191.399414,7.65625 191.616699,7.57421875 191.781738,7.41015625 C191.946777,7.24609375 192.029297,7.03613281 192.029297,6.78027344 L192.029297,6.78027344 L192.029297,6.56933594 C192.029297,6.30175781 191.946777,6.08544922 191.781738,5.92041016 C191.616699,5.75537109 191.397461,5.67285156 191.124023,5.67285156 C190.854492,5.67285156 190.636719,5.75537109 190.470703,5.92041016 C190.304688,6.08544922 190.22168,6.296875 190.22168,6.5546875 L190.22168,6.5546875 L190.22168,6.76269531 C190.22168,7.03613281 190.307129,7.25341797 190.478027,7.41455078 C190.648926,7.57568359 190.866211,7.65625 191.129883,7.65625 Z M191.129883,7.23144531 C191.006836,7.23144531 190.907715,7.18994141 190.83252,7.10693359 C190.757324,7.02392578 190.719727,6.91503906 190.719727,6.78027344 L190.719727,6.78027344 L190.719727,6.56347656 C190.719727,6.42480469 190.756348,6.31298828 190.82959,6.22802734 C190.902832,6.14306641 191.000977,6.10058594 191.124023,6.10058594 C191.24707,6.10058594 191.346191,6.14257812 191.421387,6.2265625 C191.496582,6.31054688 191.53418,6.41992188 191.53418,6.5546875 L191.53418,6.5546875 L191.53418,6.76855469 C191.53418,6.91113281 191.49707,7.02392578 191.422852,7.10693359 C191.348633,7.18994141 191.250977,7.23144531 191.129883,7.23144531 Z M191.276367,9.68066406 L193.359375,6.34667969 L192.993164,6.13574219 L190.910156,9.46972656 L191.276367,9.68066406 Z M193.183594,10.0585938 C193.457031,10.0585938 193.675293,9.97607422 193.838379,9.81103516 C194.001465,9.64599609 194.083008,9.43652344 194.083008,9.18261719 L194.083008,9.18261719 L194.083008,8.97460938 C194.083008,8.69921875 193.998535,8.48046875 193.82959,8.31835938 C193.660645,8.15625 193.443359,8.07519531 193.177734,8.07519531 C192.914062,8.07519531 192.697266,8.15625 192.527344,8.31835938 C192.357422,8.48046875 192.272461,8.69238281 192.272461,8.95410156 L192.272461,8.95410156 L192.272461,9.16796875 C192.272461,9.43554688 192.355957,9.65087891 192.522949,9.81396484 C192.689941,9.97705078 192.910156,10.0585938 193.183594,10.0585938 Z M193.183594,9.63671875 C193.0625,9.63671875 192.963379,9.59423828 192.88623,9.50927734 C192.809082,9.42431641 192.770508,9.31542969 192.770508,9.18261719 L192.770508,9.18261719 L192.770508,8.96582031 C192.770508,8.82128906 192.808105,8.70800781 192.883301,8.62597656 C192.958496,8.54394531 193.056641,8.50292969 193.177734,8.50292969 C193.296875,8.50292969 193.394531,8.54394531 193.470703,8.62597656 C193.546875,8.70800781 193.584961,8.81738281 193.584961,8.95410156 L193.584961,8.95410156 L193.584961,9.17382812 C193.584961,9.3203125 193.549316,9.43408203 193.478027,9.51513672 C193.406738,9.59619141 193.308594,9.63671875 193.183594,9.63671875 Z"/>
    </g>
    <g fill="#EA475B" transform="translate(425 76)">
      <rect width="4" height="24" fill-opacity=".12"/>
      <path fill-rule="nonzero" d="M2.68164062,13 L2.68164062,12.3671875 L3.03515625,12.3671875 L3.03515625,11.9863281 L2.68164062,11.9863281 L2.68164062,10.15625 L2.19140625,10.15625 L0.96484375,12.078125 L0.978515625,12.3671875 L2.20703125,12.3671875 L2.20703125,13 L2.68164062,13 Z M2.20703125,11.9863281 L1.46289062,11.9863281 L2.171875,10.8613281 L2.20703125,10.7988281 L2.20703125,11.9863281 Z"/>
    </g>
    <g fill="#EA475B" transform="translate(394 76)">
      <rect width="4" height="24" fill-opacity=".12"/>
      <path fill-rule="nonzero" d="M2.68164062,13 L2.68164062,12.3671875 L3.03515625,12.3671875 L3.03515625,11.9863281 L2.68164062,11.9863281 L2.68164062,10.15625 L2.19140625,10.15625 L0.96484375,12.078125 L0.978515625,12.3671875 L2.20703125,12.3671875 L2.20703125,13 L2.68164062,13 Z M2.20703125,11.9863281 L1.46289062,11.9863281 L2.171875,10.8613281 L2.20703125,10.7988281 L2.20703125,11.9863281 Z"/>
    </g>
    <line x1=".5" x2=".5" y1="1.762" y2="72.238" stroke="#EA475B" stroke-dasharray="2 2" stroke-linecap="round" stroke-width=".4" transform="translate(440 56)"/>
    <line x1=".5" x2=".5" y1="1.762" y2="72.238" stroke="#EA475B" stroke-dasharray="2 2" stroke-linecap="round" stroke-width=".4" transform="translate(96 56)"/>
    <line x1=".5" x2=".5" y1="1.762" y2="72.238" stroke="#EA475B" stroke-dasharray="2 2" stroke-linecap="round" stroke-width=".4" transform="translate(425 56)"/>
    <line x1=".5" x2=".5" y1=".929" y2="38.071" stroke="#EA475B" stroke-dasharray="2 2" stroke-linecap="round" stroke-width=".4" transform="translate(393.5 61)"/>
    <line x1=".5" x2=".5" y1="1.762" y2="72.238" stroke="#EA475B" stroke-dasharray="2 2" stroke-linecap="round" stroke-width=".4" transform="translate(81 56)"/>
  </g>
</svg>
