<svg xmlns="http://www.w3.org/2000/svg" width="520" height="220" viewBox="0 0 520 220">
  <g fill="none" fill-rule="evenodd">
    <rect width="520" height="220"/>
    <g transform="translate(81 60)">
      <rect width="360" height="70"/>
      <g transform="translate(0 30)">
        <rect width="360" height="40" fill="#000000" fill-opacity=".24" rx="4"/>
        <path fill="#FFF" fill-rule="nonzero" d="M335.895652,24 C336.178551,24 336.445217,23.986087 336.695652,23.9582609 C336.946087,23.9304348 337.182609,23.8771014 337.405217,23.7982609 C337.627826,23.7194203 337.837681,23.6057971 338.034783,23.4573913 C338.231884,23.3089855 338.42087,23.1118841 338.601739,22.866087 C338.815072,23.0237681 339.046957,23.177971 339.297391,23.3286957 C339.547826,23.4794203 339.808696,23.6069565 340.08,23.7113043 C340.351304,23.8156522 340.583188,23.8794203 340.775652,23.9026087 C340.968116,23.9257971 341.110725,23.9373913 341.203478,23.9373913 C341.393623,23.9373913 341.583768,23.9118841 341.773913,23.8608696 C342.075362,23.7773913 342.330435,23.6278261 342.53913,23.4121739 C342.747826,23.1965217 342.912464,22.9437681 343.033043,22.653913 C343.153623,22.364058 343.227826,22.0985507 343.255652,21.8573913 C343.283478,21.6162319 343.297391,21.4214493 343.297391,21.2730435 C343.297391,21.106087 343.285797,20.9437681 343.262609,20.786087 C343.216232,20.4753623 343.133913,20.1692754 343.015652,19.8678261 C342.897391,19.5663768 342.738551,19.2973913 342.53913,19.0608696 C342.33971,18.8243478 342.09971,18.6330435 341.81913,18.4869565 C341.538551,18.3408696 341.215072,18.2678261 340.848696,18.2678261 C340.542609,18.2678261 340.274783,18.3292754 340.045217,18.4521739 C339.815652,18.5750725 339.611594,18.7350725 339.433043,18.9321739 C339.254493,19.1292754 339.094493,19.3542029 338.953043,19.6069565 C338.811594,19.8597101 338.678261,20.115942 338.553043,20.3756522 C338.409275,20.6631884 338.266667,20.9426087 338.125217,21.213913 C337.983768,21.4852174 337.816812,21.7263768 337.624348,21.9373913 C337.431884,22.1484058 337.198841,22.3176812 336.925217,22.4452174 C336.651594,22.5727536 336.308406,22.6365217 335.895652,22.6365217 L335.895652,22.6365217 L335.756522,22.6365217 L335.756522,24 L335.895652,24 Z M341.182609,22.5530435 C340.997101,22.5530435 340.788406,22.5066667 340.556522,22.413913 C340.208696,22.2747826 339.823768,22.0498551 339.401739,21.7391304 L339.401739,21.7391304 L339.777391,20.9808696 C339.893333,20.7536232 339.996522,20.5565217 340.086957,20.3895652 C340.177391,20.2226087 340.263188,20.0834783 340.344348,19.9721739 C340.425507,19.8608696 340.506667,19.7785507 340.587826,19.7252174 C340.668986,19.6718841 340.755942,19.6452174 340.848696,19.6452174 C340.987826,19.6452174 341.110725,19.6730435 341.217391,19.7286957 C341.324058,19.7843478 341.416812,19.8550725 341.495652,19.9408696 C341.574493,20.0266667 341.641739,20.1217391 341.697391,20.226087 C341.753043,20.3304348 341.798261,20.4313043 341.833043,20.5286957 C341.867826,20.626087 341.894493,20.7142029 341.913043,20.7930435 C341.931594,20.8718841 341.943188,20.9275362 341.947826,20.96 C341.966377,21.0852174 341.975652,21.2057971 341.975652,21.3217391 C341.975652,21.395942 341.971014,21.4701449 341.961739,21.5443478 C341.938551,21.7252174 341.90029,21.8852174 341.846957,22.0243478 C341.793623,22.1634783 341.729855,22.2771014 341.655652,22.3652174 C341.581449,22.4533333 341.504928,22.5066667 341.426087,22.5252174 C341.351884,22.5437681 341.270725,22.5530435 341.182609,22.5530435 Z M331.652174,17.4121739 L332.77913,16.2852174 L331.638261,15.1443478 L330.511304,16.2782609 L331.652174,17.4121739 Z M334.504348,17.426087 L335.631304,16.2921739 L334.490435,15.1582609 L333.363478,16.2852174 L334.504348,17.426087 Z M330.866087,24 C331.302029,24 331.681159,23.9826087 332.003478,23.9478261 C332.325797,23.9130435 332.607536,23.8597101 332.848696,23.7878261 C333.089855,23.715942 333.298551,23.6255072 333.474783,23.5165217 C333.651014,23.4075362 333.813333,23.2811594 333.961739,23.1373913 C334.161159,23.3924638 334.416232,23.6 334.726957,23.76 C335.037681,23.92 335.427246,24 335.895652,24 L335.895652,24 L336.034783,24 L336.034783,22.6365217 L335.895652,22.6365217 C335.65913,22.6365217 335.465507,22.5831884 335.314783,22.4765217 C335.164058,22.3698551 335.045797,22.2353623 334.96,22.0730435 C334.874203,21.9107246 334.812754,21.7344928 334.775652,21.5443478 C334.738551,21.3542029 334.713043,21.1733333 334.69913,21.0017391 C334.68058,20.755942 334.66087,20.5356522 334.64,20.3408696 C334.61913,20.146087 334.597101,19.9652174 334.573913,19.7982609 C334.550725,19.6313043 334.522899,19.4724638 334.490435,19.3217391 C334.457971,19.1710145 334.418551,19.0144928 334.372174,18.8521739 L334.372174,18.8521739 L333.064348,19.2208696 C333.166377,19.5733333 333.237101,19.8863768 333.276522,20.16 C333.315942,20.4336232 333.335652,20.7026087 333.335652,20.9669565 C333.335652,21.2452174 333.289275,21.4886957 333.196522,21.6973913 C333.103768,21.906087 332.958841,22.08 332.761739,22.2191304 C332.564638,22.3582609 332.309565,22.4626087 331.996522,22.5321739 C331.683478,22.6017391 331.306667,22.6365217 330.866087,22.6365217 L330.866087,22.6365217 L329.829565,22.6365217 L329.829565,24 L330.866087,24 Z M323.422609,20.64 L324.556522,19.506087 L323.415652,18.3652174 L322.281739,19.4991304 L323.422609,20.64 Z M323.137391,28.7721739 C323.707826,28.7721739 324.249275,28.7118841 324.761739,28.5913043 C325.274203,28.4707246 325.741449,28.2863768 326.163478,28.0382609 C326.585507,27.7901449 326.955362,27.475942 327.273043,27.0956522 C327.590725,26.7153623 327.837681,26.2631884 328.013913,25.7391304 C328.134493,25.3681159 328.212174,25.0295652 328.246957,24.7234783 C328.281739,24.4173913 328.29913,24.1414493 328.29913,23.8956522 C328.29913,23.7889855 328.296812,23.6823188 328.292174,23.5756522 C328.783768,23.8585507 329.342609,24 329.968696,24 L329.968696,24 L330.121739,24 L330.121739,22.6365217 L329.968696,22.6365217 C329.806377,22.6365217 329.633623,22.6168116 329.450435,22.5773913 C329.267246,22.537971 329.073623,22.4463768 328.869565,22.3026087 C328.665507,22.1588406 328.449855,21.9455072 328.222609,21.6626087 C327.995362,21.3797101 327.754203,20.9971014 327.49913,20.5147826 C327.369275,20.2365217 327.255652,20.0150725 327.158261,19.8504348 C327.06087,19.6857971 327.005217,19.5918841 326.991304,19.5686957 L326.991304,19.5686957 L325.836522,20.306087 C325.841159,20.306087 325.884058,20.3744928 325.965217,20.5113043 C326.046377,20.6481159 326.14029,20.835942 326.246957,21.0747826 C326.353623,21.3136232 326.461449,21.5942029 326.570435,21.9165217 C326.67942,22.2388406 326.764058,22.5785507 326.824348,22.9356522 C326.884638,23.2927536 326.914783,23.6591304 326.914783,24.0347826 L326.914783,24.0347826 L326.914783,24.1182609 C326.905507,24.5217391 326.838261,24.9228986 326.713043,25.3217391 C326.611014,25.6463768 326.457971,25.9373913 326.253913,26.1947826 C326.049855,26.4521739 325.797101,26.6701449 325.495652,26.8486957 C325.194203,27.0272464 324.844058,27.1628986 324.445217,27.2556522 C324.046377,27.3484058 323.601159,27.3947826 323.109565,27.3947826 C322.715362,27.3947826 322.364058,27.3518841 322.055652,27.266087 C321.747246,27.1802899 321.478261,27.0689855 321.248696,26.9321739 C321.01913,26.7953623 320.823188,26.6411594 320.66087,26.4695652 C320.498551,26.297971 320.364058,26.1228986 320.257391,25.9443478 C320.150725,25.7657971 320.070725,25.5930435 320.017391,25.426087 C319.964058,25.2591304 319.928116,25.1153623 319.909565,24.9947826 C319.881739,24.8046377 319.867826,24.6075362 319.867826,24.4034783 C319.867826,24.3292754 319.870145,24.2527536 319.874783,24.173913 C319.888696,23.8956522 319.92,23.622029 319.968696,23.3530435 C320.017391,23.084058 320.078841,22.8255072 320.153043,22.5773913 C320.227246,22.3292754 320.304928,22.1008696 320.386087,21.8921739 C320.467246,21.6834783 320.547246,21.5014493 320.626087,21.346087 C320.704928,21.1907246 320.774493,21.0713043 320.834783,20.9878261 L320.834783,20.9878261 L319.728696,20.173913 C319.538551,20.4892754 319.356522,20.8405797 319.182609,21.2278261 C319.008696,21.6150725 318.862609,22.0243478 318.744348,22.4556522 C318.626087,22.8869565 318.553043,23.2614493 318.525217,23.5791304 C318.497391,23.8968116 318.483478,24.1437681 318.483478,24.32 C318.483478,24.6075362 318.504348,24.8973913 318.546087,25.1895652 C318.638841,25.7971014 318.818551,26.3257971 319.085217,26.7756522 C319.351884,27.2255072 319.686957,27.5976812 320.090435,27.8921739 C320.493913,28.1866667 320.954203,28.4069565 321.471304,28.5530435 C321.988406,28.6991304 322.543768,28.7721739 323.137391,28.7721739 Z M306.594783,28.8834783 C307.072464,28.8092754 307.54087,28.6944928 308,28.5391304 C308.45913,28.3837681 308.896232,28.1913043 309.311304,27.9617391 C309.726377,27.7321739 310.113623,27.4643478 310.473043,27.1582609 C310.832464,26.8521739 311.148986,26.5113043 311.422609,26.1356522 C311.696232,25.76 311.921159,25.3507246 312.097391,24.9078261 C312.273623,24.4649275 312.387246,23.9884058 312.438261,23.4782609 C312.461449,23.2556522 312.473043,23.0330435 312.473043,22.8104348 C312.473043,22.6110145 312.463768,22.4115942 312.445217,22.2121739 C312.403478,21.7901449 312.326957,21.3843478 312.215652,20.9947826 C312.104348,20.6052174 311.95942,20.24 311.78087,19.8991304 C311.602319,19.5582609 311.394783,19.257971 311.158261,18.9982609 C310.606377,18.4046377 310.001159,18.1078261 309.342609,18.1078261 C309.045797,18.1078261 308.75942,18.1831884 308.483478,18.333913 C308.207536,18.4846377 307.951304,18.706087 307.714783,18.9982609 C307.52,19.2486957 307.350725,19.5466667 307.206957,19.8921739 C307.063188,20.2376812 306.971594,20.546087 306.932174,20.8173913 C306.892754,21.0886957 306.873043,21.3124638 306.873043,21.4886957 C306.873043,21.6742029 306.889275,21.8597101 306.921739,22.0452174 C306.977391,22.3976812 307.111884,22.7084058 307.325217,22.9773913 C307.807536,23.5756522 308.551884,23.9049275 309.558261,23.9652174 C309.813333,23.9884058 310.041739,24 310.243478,24 L310.243478,24 L311.033043,24 C310.982029,24.3478261 310.83942,24.7014493 310.605217,25.0608696 C310.371014,25.4202899 310.052174,25.76 309.648696,26.08 C309.245217,26.4 308.76058,26.6875362 308.194783,26.9426087 C307.628986,27.1976812 306.988986,27.3971014 306.274783,27.5408696 L306.274783,27.5408696 L306.594783,28.8834783 Z M310.349783,22.6223913 L310.302609,22.6226087 C310.098551,22.6226087 309.88058,22.6156522 309.648696,22.6017391 C309.565217,22.5971014 309.466667,22.5866667 309.353043,22.5704348 C309.23942,22.5542029 309.123478,22.5286957 309.005217,22.493913 C308.886957,22.4591304 308.775652,22.4127536 308.671304,22.3547826 C308.566957,22.2968116 308.48,22.2214493 308.410435,22.1286957 C308.331594,22.0313043 308.284058,21.9211594 308.267826,21.7982609 C308.251594,21.6753623 308.243478,21.5721739 308.243478,21.4886957 C308.243478,21.3866667 308.250435,21.2823188 308.264348,21.1756522 C308.287536,20.9808696 308.331594,20.7826087 308.396522,20.5808696 C308.461449,20.3791304 308.541449,20.1971014 308.636522,20.0347826 C308.731594,19.8724638 308.83942,19.7391304 308.96,19.6347826 C309.08058,19.5304348 309.208116,19.4782609 309.342609,19.4782609 C309.426087,19.4782609 309.504928,19.4921739 309.57913,19.52 C309.653333,19.5478261 309.724058,19.5837681 309.791304,19.6278261 C309.858551,19.6718841 309.921159,19.7205797 309.97913,19.773913 C310.037101,19.8272464 310.089275,19.8771014 310.135652,19.9234783 C310.251594,20.057971 310.364058,20.2168116 310.473043,20.4 C310.582029,20.5831884 310.68058,20.7884058 310.768696,21.0156522 C310.856812,21.2428986 310.928696,21.4886957 310.984348,21.7530435 C311.04,22.0173913 311.074783,22.297971 311.088696,22.5947826 C310.907826,22.6086957 310.744348,22.6168116 310.598261,22.6191304 C310.452174,22.6214493 310.353623,22.6226087 310.302609,22.6226087 L310.349783,22.6223913 Z M304.667826,24.0626087 C304.732754,23.2927536 304.771014,22.5669565 304.782609,21.8852174 C304.794203,21.2034783 304.8,20.6585507 304.8,20.2504348 C304.8,19.5733333 304.793043,18.8498551 304.77913,18.08 C304.742029,16.5866667 304.623768,14.8985507 304.424348,13.0156522 L304.424348,13.0156522 L303.06087,13.2243478 C303.218551,14.6852174 303.343768,16.5402899 303.436522,18.7895652 C303.450435,19.1744928 303.457391,19.5826087 303.457391,20.013913 C303.457391,20.3710145 303.452754,20.7443478 303.443478,21.133913 C303.42029,21.9965217 303.371594,22.9472464 303.297391,23.986087 L303.297391,23.986087 L304.667826,24.0626087 Z M296.577391,28.9808696 C296.966957,28.7907246 297.350725,28.5762319 297.728696,28.3373913 C298.106667,28.0985507 298.466087,27.8376812 298.806957,27.5547826 C299.147826,27.2718841 299.463188,26.9704348 299.753043,26.6504348 C300.042899,26.3304348 300.293333,25.9942029 300.504348,25.6417391 C300.715362,25.2892754 300.88,24.924058 300.998261,24.546087 C301.116522,24.1681159 301.175652,23.7773913 301.175652,23.373913 C301.175652,23.1698551 301.15942,22.9611594 301.126957,22.7478261 C301.094493,22.5344928 301.053913,22.3176812 301.005217,22.0973913 C300.956522,21.8771014 300.903188,21.6544928 300.845217,21.4295652 C300.787246,21.2046377 300.730435,20.9808696 300.674783,20.7582609 C300.623768,20.5449275 300.565797,20.3327536 300.50087,20.1217391 C300.435942,19.9107246 300.371014,19.6962319 300.306087,19.4782609 L300.306087,19.4782609 L298.984348,19.8956522 C299.109565,20.2852174 299.227826,20.6747826 299.33913,21.0643478 C299.390145,21.2544928 299.443478,21.4492754 299.49913,21.6486957 C299.554783,21.8481159 299.605797,22.0475362 299.652174,22.2469565 C299.698551,22.4463768 299.736812,22.6411594 299.766957,22.8313043 C299.797101,23.0214493 299.812174,23.2023188 299.812174,23.373913 C299.812174,23.8237681 299.703188,24.2597101 299.485217,24.6817391 C299.267246,25.1037681 298.978551,25.5026087 298.61913,25.8782609 C298.25971,26.253913 297.850435,26.6005797 297.391304,26.9182609 C296.932174,27.235942 296.45913,27.5153623 295.972174,27.7565217 L295.972174,27.7565217 L296.577391,28.9808696 Z M292.82087,23.9930435 C293.09913,23.9930435 293.378551,23.9721739 293.65913,23.9304348 C293.93971,23.8886957 294.209855,23.8214493 294.469565,23.7286957 C294.729275,23.635942 294.971594,23.5165217 295.196522,23.3704348 C295.421449,23.2243478 295.617391,23.0492754 295.784348,22.8452174 C295.858551,22.7571014 295.928116,22.6527536 295.993043,22.5321739 C296.057971,22.4115942 296.108986,22.2701449 296.146087,22.1078261 C296.183188,21.9455072 296.202899,21.76 296.205217,21.5513043 C296.207536,21.3426087 296.18087,21.1084058 296.125217,20.8486957 C296.055652,20.5565217 295.950145,20.253913 295.808696,19.9408696 C295.667246,19.6278261 295.497971,19.3171014 295.30087,19.0086957 C295.103768,18.7002899 294.885797,18.4011594 294.646957,18.1113043 C294.408116,17.8214493 294.156522,17.5513043 293.892174,17.3008696 C293.627826,17.0504348 293.357681,16.8255072 293.081739,16.626087 C292.805797,16.4266667 292.531014,16.2643478 292.257391,16.1391304 L292.257391,16.1391304 L291.693913,17.4052174 C291.902609,17.497971 292.115942,17.6231884 292.333913,17.7808696 C292.551884,17.9385507 292.766377,18.1194203 292.977391,18.3234783 C293.188406,18.5275362 293.391304,18.7466667 293.586087,18.9808696 C293.78087,19.2150725 293.958261,19.4562319 294.118261,19.7043478 C294.278261,19.9524638 294.415072,20.2005797 294.528696,20.4486957 C294.642319,20.6968116 294.724638,20.9344928 294.775652,21.1617391 C294.812754,21.3286957 294.831304,21.4724638 294.831304,21.5930435 C294.831304,21.76 294.796522,21.8852174 294.726957,21.9686957 C294.569275,22.1588406 294.374493,22.3002899 294.142609,22.3930435 C293.910725,22.4857971 293.702029,22.5402899 293.516522,22.5565217 C293.331014,22.5727536 293.184928,22.5808696 293.078261,22.5808696 C292.906667,22.5808696 292.732754,22.5692754 292.556522,22.546087 C292.264348,22.5089855 291.981449,22.4521739 291.707826,22.3756522 C291.434203,22.2991304 291.176812,22.2086957 290.935652,22.1043478 C290.694493,22 290.488116,21.8921739 290.316522,21.7808696 L290.316522,21.7808696 L289.746087,23.0886957 C289.862029,23.1953623 290.045217,23.302029 290.295652,23.4086957 C290.546087,23.5153623 290.822029,23.6127536 291.123478,23.7008696 C291.424928,23.7889855 291.727536,23.8597101 292.031304,23.9130435 C292.335072,23.9663768 292.598261,23.9930435 292.82087,23.9930435 Z M279.053913,14.7478261 L280.083478,13.7182609 L279.046957,12.6817391 L278.017391,13.7113043 L279.053913,14.7478261 Z M277.481739,16.946087 L278.608696,15.8121739 L277.467826,14.6713043 L276.34087,15.8052174 L277.481739,16.946087 Z M280.535652,16.9530435 L281.662609,15.826087 L280.521739,14.6852174 L279.394783,15.8121739 L280.535652,16.9530435 Z M280.772174,24.0834783 C281.203478,24.0834783 281.581449,24.0231884 281.906087,23.9026087 C282.24,23.782029 282.518261,23.6081159 282.74087,23.3808696 C282.963478,23.1536232 283.130435,22.8788406 283.241739,22.5565217 C283.353043,22.2342029 283.408696,21.8736232 283.408696,21.4747826 C283.408696,21.2104348 283.384348,20.9391304 283.335652,20.6608696 C283.286957,20.3826087 283.224348,20.1113043 283.147826,19.8469565 C283.071304,19.5826087 282.988986,19.3286957 282.90087,19.0852174 C282.812754,18.8417391 282.726957,18.6237681 282.643478,18.4313043 C282.56,18.2388406 282.485797,18.0765217 282.42087,17.9443478 C282.355942,17.8121739 282.311884,17.7228986 282.288696,17.6765217 L282.288696,17.6765217 L281.071304,18.3165217 C281.145507,18.4649275 281.237101,18.6655072 281.346087,18.9182609 C281.455072,19.1710145 281.55942,19.4446377 281.65913,19.7391304 C281.758841,20.0336232 281.844638,20.333913 281.916522,20.64 C281.988406,20.946087 282.024348,21.2313043 282.024348,21.4956522 C282.024348,21.6997101 282.001159,21.8828986 281.954783,22.0452174 C281.908406,22.2075362 281.833043,22.342029 281.728696,22.4486957 C281.624348,22.5553623 281.506087,22.626087 281.373913,22.6608696 C281.241739,22.6956522 281.108406,22.7130435 280.973913,22.7130435 C280.895072,22.7130435 280.811594,22.7084058 280.723478,22.6991304 C280.584348,22.6852174 280.467246,22.64 280.372174,22.5634783 C280.277101,22.4869565 280.20058,22.3895652 280.142609,22.2713043 C280.084638,22.1530435 280.042899,22.0162319 280.017391,21.8608696 C279.991884,21.7055072 279.97913,21.542029 279.97913,21.3704348 C279.97913,21.1802899 279.993043,20.9634783 280.02087,20.72 C280.048696,20.4765217 280.08,20.2469565 280.114783,20.0313043 L280.114783,20.0313043 L280.164348,19.7313043 C280.18,19.6391304 280.194783,19.5547826 280.208696,19.4782609 L280.208696,19.4782609 L280.243478,19.2556522 L278.907826,19.0121739 C278.88,19.2023188 278.841739,19.426087 278.793043,19.6834783 C278.744348,19.9408696 278.681739,20.2063768 278.605217,20.48 C278.528696,20.7536232 278.435942,21.0226087 278.326957,21.2869565 C278.217971,21.5513043 278.090435,21.7878261 277.944348,21.9965217 C277.798261,22.2052174 277.631304,22.3744928 277.443478,22.5043478 C277.255652,22.6342029 277.043478,22.6991304 276.806957,22.6991304 C276.658551,22.6991304 276.535652,22.6713043 276.438261,22.6156522 C276.34087,22.56 276.264348,22.4857971 276.208696,22.3930435 C276.153043,22.3002899 276.113623,22.1947826 276.090435,22.0765217 C276.067246,21.9582609 276.055652,21.8365217 276.055652,21.7113043 C276.055652,21.5304348 276.074203,21.3344928 276.111304,21.1234783 C276.148406,20.9124638 276.192464,20.706087 276.243478,20.5043478 C276.294493,20.3026087 276.346667,20.1136232 276.4,19.9373913 C276.453333,19.7611594 276.498551,19.6173913 276.535652,19.506087 L276.535652,19.506087 L275.158261,19.213913 C275.111884,19.4411594 275.056232,19.6823188 274.991304,19.9373913 C274.926377,20.1924638 274.847536,20.4463768 274.754783,20.6991304 C274.662029,20.9518841 274.553043,21.1942029 274.427826,21.426087 C274.302609,21.657971 274.155362,21.8631884 273.986087,22.0417391 C273.816812,22.2202899 273.623188,22.364058 273.405217,22.4730435 C273.187246,22.582029 272.941449,22.6365217 272.667826,22.6365217 L272.667826,22.6365217 L272.514783,22.6365217 L272.514783,24 L272.66087,24 C272.929855,24 273.176812,23.977971 273.401739,23.933913 C273.626667,23.8898551 273.831884,23.826087 274.017391,23.7426087 C274.202899,23.6591304 274.374493,23.5582609 274.532174,23.44 C274.689855,23.3217391 274.838261,23.1884058 274.977391,23.04 C275.051594,23.2115942 275.157101,23.3623188 275.293913,23.4921739 C275.430725,23.622029 275.582609,23.7310145 275.749565,23.8191304 C275.916522,23.9072464 276.091594,23.9733333 276.274783,24.0173913 C276.457971,24.0614493 276.635362,24.0834783 276.806957,24.0834783 C277.201159,24.0834783 277.574493,23.9884058 277.926957,23.7982609 C278.27942,23.6081159 278.594783,23.3507246 278.873043,23.026087 C278.970435,23.1744928 279.088696,23.3124638 279.227826,23.44 C279.366957,23.5675362 279.517681,23.6788406 279.68,23.773913 C279.842319,23.8689855 280.012754,23.9443478 280.191304,24 C280.369855,24.0556522 280.547246,24.0834783 280.723478,24.0834783 L280.723478,24.0834783 L280.772174,24.0834783 Z M272.793043,24 L272.793043,22.6365217 L272.653913,22.6365217 C272.375652,22.6365217 272.146087,22.6005797 271.965217,22.5286957 C271.784348,22.4568116 271.633623,22.3571014 271.513043,22.2295652 C271.392464,22.102029 271.289275,21.9466667 271.203478,21.7634783 C271.117681,21.5802899 271.028406,21.3773913 270.935652,21.1547826 C270.754783,20.7327536 270.584348,20.3281159 270.424348,19.9408696 C270.264348,19.5536232 270.102029,19.1605797 269.937391,18.7617391 C269.772754,18.3628986 269.598841,17.9408696 269.415652,17.4956522 C269.232464,17.0504348 269.029565,16.5565217 268.806957,16.013913 L268.806957,16.013913 L267.54087,16.5426087 L269.73913,21.8295652 C269.66029,21.9084058 269.545507,22.0023188 269.394783,22.1113043 C269.244058,22.2202899 269.050435,22.3211594 268.813913,22.413913 C268.563478,22.5113043 268.351304,22.5681159 268.177391,22.5843478 C268.003478,22.6005797 267.872464,22.6086957 267.784348,22.6086957 C267.598841,22.6086957 267.413333,22.5878261 267.227826,22.546087 C266.949565,22.4857971 266.668986,22.3791304 266.386087,22.226087 C266.103188,22.0730435 265.822609,21.8666667 265.544348,21.6069565 L265.544348,21.6069565 L264.758261,22.7130435 C265.152464,23.1211594 265.582609,23.4376812 266.048696,23.6626087 C266.514783,23.8875362 267.021449,24 267.568696,24 C267.897971,24 268.194783,23.9802899 268.45913,23.9408696 C268.723478,23.9014493 268.968116,23.8434783 269.193043,23.7669565 C269.417971,23.6904348 269.628986,23.5942029 269.826087,23.4782609 C270.023188,23.3623188 270.21913,23.2278261 270.413913,23.0747826 C270.511304,23.2 270.627246,23.3194203 270.761739,23.4330435 C270.896232,23.5466667 271.052754,23.6452174 271.231304,23.7286957 C271.409855,23.8121739 271.616232,23.8782609 271.850435,23.9269565 C272.084638,23.9756522 272.352464,24 272.653913,24 L272.653913,24 L272.793043,24 Z M260.361739,24 C260.445217,24 260.548406,23.9965217 260.671304,23.9895652 C260.794203,23.9826087 260.925217,23.9663768 261.064348,23.9408696 C261.203478,23.9153623 261.349565,23.8805797 261.502609,23.8365217 C261.655652,23.7924638 261.806377,23.7333333 261.954783,23.6591304 C262.362899,23.4597101 262.672464,23.1837681 262.883478,22.8313043 C263.094493,22.4788406 263.2,22.0637681 263.2,21.586087 C263.2,21.1084058 263.06087,20.5889855 262.782609,20.0278261 C262.504348,19.4666667 262.08,18.8614493 261.509565,18.2121739 C261.310145,17.9895652 261.115362,17.7843478 260.925217,17.5965217 C260.735072,17.4086957 260.564638,17.2452174 260.413913,17.106087 C260.263188,16.9669565 260.141449,16.857971 260.048696,16.7791304 C259.955942,16.7002899 259.907246,16.6562319 259.902609,16.6469565 L259.902609,16.6469565 L259.026087,17.7113043 C259.026087,17.715942 259.067826,17.7530435 259.151304,17.8226087 C259.234783,17.8921739 259.346087,17.9895652 259.485217,18.1147826 C259.378551,18.2121739 259.254493,18.3327536 259.113043,18.4765217 C258.971594,18.6202899 258.824348,18.7826087 258.671304,18.9634783 C257.915362,19.8724638 257.537391,20.7466667 257.537391,21.586087 C257.537391,22.0637681 257.651014,22.4776812 257.878261,22.8278261 C258.105507,23.177971 258.441739,23.4573913 258.886957,23.666087 C259.058551,23.7495652 259.227826,23.8144928 259.394783,23.8608696 C259.561739,23.9072464 259.713623,23.9408696 259.850435,23.9617391 C259.987246,23.9826087 260.10087,23.9942029 260.191304,23.9965217 C260.236522,23.9976812 260.273333,23.9985507 260.301739,23.9991304 L260.361739,24 Z M260.412754,22.6152657 L260.361739,22.6156522 C260.329275,22.6156522 260.28058,22.6133333 260.215652,22.6086957 C260.150725,22.604058 260.078841,22.5947826 260,22.5808696 C259.921159,22.5669565 259.835362,22.5472464 259.742609,22.5217391 C259.649855,22.4962319 259.55942,22.4626087 259.471304,22.4208696 C259.346087,22.3652174 259.246377,22.3026087 259.172174,22.2330435 C259.097971,22.1634783 259.041159,22.0927536 259.001739,22.0208696 C258.962319,21.9489855 258.936812,21.875942 258.925217,21.8017391 C258.913623,21.7275362 258.907826,21.6556522 258.907826,21.586087 C258.907826,21.3495652 258.962319,21.1107246 259.071304,20.8695652 C259.18029,20.6284058 259.313623,20.3965217 259.471304,20.173913 C259.628986,19.9513043 259.797101,19.7472464 259.975652,19.5617391 C260.154203,19.3762319 260.310725,19.2231884 260.445217,19.1026087 C260.895072,19.5895652 261.238261,20.0486957 261.474783,20.48 C261.711304,20.9113043 261.829565,21.28 261.829565,21.586087 C261.829565,21.7947826 261.791304,21.9652174 261.714783,22.0973913 C261.638261,22.2295652 261.514203,22.342029 261.342609,22.4347826 C261.254493,22.4765217 261.161739,22.5089855 261.064348,22.5321739 C260.966957,22.5553623 260.874203,22.573913 260.786087,22.5878261 C260.697971,22.6017391 260.616812,22.6098551 260.542609,22.6121739 C260.468406,22.6144928 260.408116,22.6156522 260.361739,22.6156522 L260.412754,22.6152657 Z"/>
      </g>
      <g transform="translate(313 16)">
        <rect width="35" height="24"/>
        <path fill="#000" fill-opacity=".56" fill-rule="nonzero" d="M24.9582609,15 L26.2,14.9895652 C26.7495652,14.9895652 27.2382609,14.9765217 27.666087,14.9504348 C28.093913,14.9243478 28.473913,14.8895652 28.806087,14.846087 C29.1382609,14.8026087 29.4286957,14.7547826 29.6773913,14.7026087 C29.926087,14.6504348 30.1478261,14.5982609 30.3426087,14.546087 L30.3426087,14.546087 L30.2173913,13.5547826 C30.0817391,13.5826087 29.953913,13.6086957 29.833913,13.6330435 C29.713913,13.6573913 29.5921739,13.6782609 29.4686957,13.6956522 C29.3452174,13.7130435 29.2165217,13.7286957 29.0826087,13.7426087 C28.9486957,13.7565217 28.8017391,13.7686957 28.6417391,13.7791304 C28.6,13.7826087 28.5582609,13.7843478 28.5165217,13.7843478 C28.3286957,13.7843478 28.1478261,13.7582609 27.973913,13.706087 C27.7617391,13.6434783 27.5747826,13.5495652 27.4130435,13.4243478 C27.2513043,13.2991304 27.1217391,13.1478261 27.0243478,12.9704348 C26.9269565,12.7930435 26.8782609,12.5947826 26.8782609,12.3756522 C26.8782609,12.2156522 26.9043478,12.0617391 26.9565217,11.913913 C27.0086957,11.766087 27.086087,11.6347826 27.1886957,11.52 C27.2913043,11.4052174 27.4191304,11.313913 27.5721739,11.246087 C27.7252174,11.1782609 27.9026087,11.1443478 28.1043478,11.1443478 C28.2817391,11.1443478 28.4417391,11.1626087 28.5843478,11.1991304 C28.7269565,11.2356522 28.8582609,11.286087 28.9782609,11.3504348 C29.0982609,11.4147826 29.2104348,11.4895652 29.3147826,11.5747826 C29.4191304,11.66 29.5252174,11.7513043 29.6330435,11.8486957 L29.6330435,11.8486957 L30.2747826,11.0608696 C30.1182609,10.9321739 29.9634783,10.8104348 29.8104348,10.6956522 C29.6573913,10.5808696 29.4956522,10.4808696 29.3252174,10.3956522 C29.1547826,10.3104348 28.9704348,10.2434783 28.7721739,10.1947826 C28.573913,10.146087 28.3513043,10.1217391 28.1043478,10.1217391 C27.7808696,10.1217391 27.4826087,10.1817391 27.2095652,10.3017391 C26.9365217,10.4217391 26.6991304,10.5843478 26.4973913,10.7895652 C26.2956522,10.9947826 26.1382609,11.233913 26.0252174,11.5069565 C25.9121739,11.78 25.8556522,12.0695652 25.8556522,12.3756522 C25.8556522,12.6886957 25.9069565,12.973913 26.0095652,13.2313043 C26.1121739,13.4886957 26.2904348,13.7321739 26.5443478,13.9617391 L26.5443478,13.9617391 L24.9582609,13.9773913 L24.9582609,15 Z M22.9391304,10.1895652 L23.7895652,9.33913043 L22.933913,8.48347826 L22.0834783,9.33391304 L22.9391304,10.1895652 Z M21.4730435,15 C21.9843478,15 22.413913,14.9469565 22.7617391,14.8408696 C23.1095652,14.7347826 23.3930435,14.5721739 23.6121739,14.3530435 C23.7617391,14.5443478 23.9530435,14.7 24.186087,14.82 C24.4191304,14.94 24.7113043,15 25.0626087,15 L25.0626087,15 L25.1669565,15 L25.1669565,13.9773913 L25.0626087,13.9773913 C24.8852174,13.9773913 24.74,13.9373913 24.6269565,13.8573913 C24.513913,13.7773913 24.4252174,13.6765217 24.3608696,13.5547826 C24.2965217,13.4330435 24.2504348,13.3008696 24.2226087,13.1582609 C24.1947826,13.0156522 24.1756522,12.88 24.1652174,12.7513043 C24.1513043,12.5669565 24.1365217,12.4017391 24.1208696,12.2556522 C24.1052174,12.1095652 24.0886957,11.973913 24.0713043,11.8486957 C24.053913,11.7234783 24.0330435,11.6043478 24.0086957,11.4913043 C23.9843478,11.3782609 23.9547826,11.2608696 23.92,11.1391304 L23.92,11.1391304 L22.9391304,11.4156522 C23.0156522,11.68 23.0686957,11.9147826 23.0982609,12.12 C23.1278261,12.3252174 23.1426087,12.5269565 23.1426087,12.7252174 C23.1426087,13.1391304 23.0104348,13.4513043 22.746087,13.6617391 C22.4817391,13.8721739 22.0573913,13.9773913 21.4730435,13.9773913 L21.4730435,13.9773913 L21.28,13.9773913 L21.28,15 L21.4730435,15 Z M16.5895652,18.6626087 C17.0973913,18.5826087 17.5886957,18.4434783 18.0634783,18.2452174 C18.5382609,18.0469565 18.9695652,17.7930435 19.3573913,17.4834783 C19.7452174,17.173913 20.0756522,16.8113043 20.3486957,16.3956522 C20.6217391,15.98 20.8104348,15.5147826 20.9147826,15 L20.9147826,15 L21.4886957,15 L21.4886957,13.9773913 L20.9930435,13.9773913 C20.986087,13.7130435 20.9582609,13.4530435 20.9095652,13.1973913 C20.8608696,12.9417391 20.7947826,12.6965217 20.7113043,12.4617391 C20.6278261,12.2269565 20.5269565,12.0069565 20.4086957,11.8017391 C20.2904348,11.5965217 20.1582609,11.4121739 20.0121739,11.2486957 C19.5982609,10.8034783 19.1443478,10.5808696 18.6504348,10.5808696 C18.4278261,10.5808696 18.2130435,10.6373913 18.006087,10.7504348 C17.7991304,10.8634783 17.6069565,11.0295652 17.4295652,11.2486957 C17.2834783,11.4365217 17.1565217,11.66 17.0486957,11.9191304 C16.9408696,12.1782609 16.8721739,12.4095652 16.8426087,12.6130435 C16.8130435,12.8165217 16.7982609,12.9843478 16.7982609,13.1165217 C16.7982609,13.2556522 16.8104348,13.3947826 16.8347826,13.533913 C16.8765217,13.7982609 16.9773913,14.0313043 17.1373913,14.2330435 C17.4991304,14.6817391 18.0573913,14.9286957 18.8121739,14.973913 C19.0034783,14.9913043 19.1747826,15 19.326087,15 L19.326087,15 L19.9182609,15 C19.88,15.2608696 19.7730435,15.526087 19.5973913,15.7956522 C19.4217391,16.0652174 19.1826087,16.32 18.88,16.56 C18.5773913,16.8 18.213913,17.0156522 17.7895652,17.2069565 C17.3652174,17.3982609 16.8852174,17.5478261 16.3495652,17.6556522 L16.3495652,17.6556522 L16.5895652,18.6626087 Z M19.4545652,13.9663043 L19.3704348,13.9669565 C19.2173913,13.9669565 19.053913,13.9617391 18.88,13.9513043 C18.8173913,13.9478261 18.7434783,13.94 18.6582609,13.9278261 C18.5730435,13.9156522 18.486087,13.8965217 18.3973913,13.8704348 C18.3086957,13.8443478 18.2252174,13.8095652 18.1469565,13.766087 C18.0686957,13.7226087 18.0034783,13.666087 17.9513043,13.5965217 C17.8921739,13.5234783 17.8565217,13.4408696 17.8443478,13.3486957 C17.8321739,13.2565217 17.826087,13.1791304 17.826087,13.1165217 C17.826087,13.04 17.8313043,12.9617391 17.8417391,12.8817391 C17.8591304,12.7356522 17.8921739,12.5869565 17.9408696,12.4356522 C17.9895652,12.2843478 18.0495652,12.1478261 18.1208696,12.026087 C18.1921739,11.9043478 18.2730435,11.8043478 18.3634783,11.726087 C18.453913,11.6478261 18.5495652,11.6086957 18.6504348,11.6086957 C18.7130435,11.6086957 18.7721739,11.6191304 18.8278261,11.64 C18.8834783,11.6608696 18.9365217,11.6878261 18.9869565,11.7208696 C19.0373913,11.753913 19.0843478,11.7904348 19.1278261,11.8304348 C19.1713043,11.8704348 19.2104348,11.9078261 19.2452174,11.9426087 C19.3321739,12.0434783 19.4165217,12.1626087 19.4982609,12.3 C19.58,12.4373913 19.653913,12.5913043 19.72,12.7617391 C19.786087,12.9321739 19.84,13.1165217 19.8817391,13.3147826 C19.9234783,13.5130435 19.9495652,13.7234783 19.96,13.946087 C19.8243478,13.9565217 19.7017391,13.9626087 19.5921739,13.9643478 C19.5373913,13.9652174 19.4915217,13.9658696 19.4545652,13.9663043 Z M15.1391304,15.0469565 C15.1878261,14.4695652 15.2165217,13.9252174 15.2252174,13.413913 C15.233913,12.9026087 15.2382609,12.493913 15.2382609,12.1878261 C15.2382609,11.68 15.2330435,11.1373913 15.2226087,10.56 C15.1947826,9.44 15.106087,8.17391304 14.9565217,6.76173913 L14.9565217,6.76173913 L13.933913,6.91826087 C14.0521739,8.01391304 14.146087,9.40521739 14.2156522,11.0921739 C14.226087,11.3808696 14.2313043,11.6869565 14.2313043,12.0104348 C14.2313043,12.2782609 14.2278261,12.5582609 14.2208696,12.8504348 C14.2034783,13.4973913 14.1669565,14.2104348 14.1113043,14.9895652 L14.1113043,14.9895652 L15.1391304,15.0469565 Z M8.92,12.48 L9.77043478,11.6295652 L8.91478261,10.773913 L8.06434783,11.6243478 L8.92,12.48 Z M8.69043478,18.5843478 C9.11826087,18.5843478 9.52434783,18.5391304 9.90869565,18.4486957 C10.2930435,18.3582609 10.6434783,18.22 10.96,18.033913 C11.2765217,17.8478261 11.553913,17.6121739 11.7921739,17.3269565 C12.0304348,17.0417391 12.2156522,16.7026087 12.3478261,16.3095652 C12.4730435,15.933913 12.5408696,15.633913 12.5513043,15.4095652 C12.5617391,15.1852174 12.5669565,15.0347826 12.5669565,14.9582609 C12.5669565,14.6730435 12.546087,14.3965217 12.5043478,14.1286957 C12.4486957,13.7913043 12.3713043,13.4773913 12.2721739,13.1869565 C12.1730435,12.8965217 12.073913,12.6426087 11.9747826,12.4252174 C11.8756522,12.2078261 11.7878261,12.033913 11.7113043,11.9034783 C11.6347826,11.7730435 11.5913043,11.6991304 11.5808696,11.6817391 L11.5808696,11.6817391 L10.7147826,12.2347826 C10.7182609,12.2347826 10.7504348,12.286087 10.8113043,12.3886957 C10.8721739,12.4913043 10.9426087,12.6321739 11.0226087,12.8113043 C11.1026087,12.9904348 11.1834783,13.2008696 11.2652174,13.4426087 C11.3469565,13.6843478 11.4104348,13.9391304 11.4556522,14.2069565 C11.5008696,14.4747826 11.5234783,14.7495652 11.5234783,15.0313043 L11.5234783,15.0313043 L11.5234783,15.093913 C11.5165217,15.3965217 11.466087,15.6973913 11.3721739,15.9965217 C11.2956522,16.24 11.1808696,16.4582609 11.0278261,16.6513043 C10.8747826,16.8443478 10.6852174,17.0078261 10.4591304,17.1417391 C10.2330435,17.2756522 9.97043478,17.3773913 9.67130435,17.4469565 C9.37217391,17.5165217 9.03826087,17.5513043 8.66956522,17.5513043 C8.37391304,17.5513043 8.11043478,17.5191304 7.87913043,17.4547826 C7.64782609,17.3904348 7.44608696,17.3069565 7.27391304,17.2043478 C7.10173913,17.1017391 6.95478261,16.986087 6.83304348,16.8573913 C6.71130435,16.7286957 6.61043478,16.5973913 6.53043478,16.4634783 C6.45043478,16.3295652 6.39043478,16.2008696 6.35043478,16.0773913 C6.31043478,15.953913 6.28347826,15.8452174 6.26956522,15.7513043 C6.24869565,15.6086957 6.23826087,15.4608696 6.23826087,15.3078261 C6.23826087,15.2521739 6.24,15.1947826 6.24347826,15.1356522 C6.25391304,14.9269565 6.2773913,14.7217391 6.31391304,14.52 C6.35043478,14.3182609 6.39652174,14.1243478 6.45217391,13.9382609 C6.50782609,13.7521739 6.56608696,13.5808696 6.62695652,13.4243478 C6.68782609,13.2678261 6.74782609,13.1313043 6.80695652,13.0147826 C6.86608696,12.8982609 6.91826087,12.8086957 6.96347826,12.746087 L6.96347826,12.746087 L6.13391304,12.1356522 C5.99130435,12.3721739 5.85478261,12.6356522 5.72434783,12.926087 C5.59391304,13.2165217 5.48434783,13.5234783 5.39565217,13.8469565 C5.30695652,14.1704348 5.25217391,14.4513043 5.23130435,14.6895652 C5.21043478,14.9278261 5.2,15.1130435 5.2,15.2452174 C5.2,15.4608696 5.21565217,15.6782609 5.24695652,15.8973913 C5.31652174,16.3530435 5.45130435,16.7495652 5.65130435,17.0869565 C5.85130435,17.4243478 6.1026087,17.7034783 6.40521739,17.9243478 C6.70782609,18.1452174 7.05304348,18.3104348 7.44086957,18.42 C7.82869565,18.5295652 8.24521739,18.5843478 8.69043478,18.5843478 Z"/>
      </g>
    </g>
    <g stroke="#000000" stroke-opacity=".48" transform="translate(81 90.5)">
      <path d="M348,0 L356,0 C358.209139,-4.05812251e-16 360,1.790861 360,4 L360,35 C360,37.209139 358.209139,39 356,39 L348,39 L348,39"/>
      <path d="M0,0 L302.5,0 L309,0 C311.209139,-4.05812251e-16 313,1.790861 313,4 L313,35 C313,37.209139 311.209139,39 309,39 L302.5,39 L302.5,39 L0,39" transform="matrix(-1 0 0 1 313 0)"/>
      <line x1="348" x2="313" y1="39" y2="39"/>
    </g>
  </g>
</svg>
