<svg xmlns="http://www.w3.org/2000/svg" width="520" height="220" viewBox="0 0 520 220">
  <g fill="none" fill-rule="evenodd">
    <rect width="520" height="220"/>
    <rect width="360" height="70" x="81" y="60"/>
    <rect width="360" height="40" x="81" y="90" fill="#000000" fill-opacity=".24" stroke="#000000" stroke-opacity=".48" rx="4"/>
    <path fill="#FFF" fill-rule="nonzero" d="M416.895652,114 C417.178551,114 417.445217,113.986087 417.695652,113.958261 C417.946087,113.930435 418.182609,113.877101 418.405217,113.798261 C418.627826,113.71942 418.837681,113.605797 419.034783,113.457391 C419.231884,113.308986 419.42087,113.111884 419.601739,112.866087 C419.815072,113.023768 420.046957,113.177971 420.297391,113.328696 C420.547826,113.47942 420.808696,113.606957 421.08,113.711304 C421.351304,113.815652 421.583188,113.87942 421.775652,113.902609 C421.968116,113.925797 422.110725,113.937391 422.203478,113.937391 C422.393623,113.937391 422.583768,113.911884 422.773913,113.86087 C423.075362,113.777391 423.330435,113.627826 423.53913,113.412174 C423.747826,113.196522 423.912464,112.943768 424.033043,112.653913 C424.153623,112.364058 424.227826,112.098551 424.255652,111.857391 C424.283478,111.616232 424.297391,111.421449 424.297391,111.273043 C424.297391,111.106087 424.285797,110.943768 424.262609,110.786087 C424.216232,110.475362 424.133913,110.169275 424.015652,109.867826 C423.897391,109.566377 423.738551,109.297391 423.53913,109.06087 C423.33971,108.824348 423.09971,108.633043 422.81913,108.486957 C422.538551,108.34087 422.215072,108.267826 421.848696,108.267826 C421.542609,108.267826 421.274783,108.329275 421.045217,108.452174 C420.815652,108.575072 420.611594,108.735072 420.433043,108.932174 C420.254493,109.129275 420.094493,109.354203 419.953043,109.606957 C419.811594,109.85971 419.678261,110.115942 419.553043,110.375652 C419.409275,110.663188 419.266667,110.942609 419.125217,111.213913 C418.983768,111.485217 418.816812,111.726377 418.624348,111.937391 C418.431884,112.148406 418.198841,112.317681 417.925217,112.445217 C417.651594,112.572754 417.308406,112.636522 416.895652,112.636522 L416.895652,112.636522 L416.756522,112.636522 L416.756522,114 L416.895652,114 Z M422.182609,112.553043 C421.997101,112.553043 421.788406,112.506667 421.556522,112.413913 C421.208696,112.274783 420.823768,112.049855 420.401739,111.73913 L420.401739,111.73913 L420.777391,110.98087 C420.893333,110.753623 420.996522,110.556522 421.086957,110.389565 C421.177391,110.222609 421.263188,110.083478 421.344348,109.972174 C421.425507,109.86087 421.506667,109.778551 421.587826,109.725217 C421.668986,109.671884 421.755942,109.645217 421.848696,109.645217 C421.987826,109.645217 422.110725,109.673043 422.217391,109.728696 C422.324058,109.784348 422.416812,109.855072 422.495652,109.94087 C422.574493,110.026667 422.641739,110.121739 422.697391,110.226087 C422.753043,110.330435 422.798261,110.431304 422.833043,110.528696 C422.867826,110.626087 422.894493,110.714203 422.913043,110.793043 C422.931594,110.871884 422.943188,110.927536 422.947826,110.96 C422.966377,111.085217 422.975652,111.205797 422.975652,111.321739 C422.975652,111.395942 422.971014,111.470145 422.961739,111.544348 C422.938551,111.725217 422.90029,111.885217 422.846957,112.024348 C422.793623,112.163478 422.729855,112.277101 422.655652,112.365217 C422.581449,112.453333 422.504928,112.506667 422.426087,112.525217 C422.351884,112.543768 422.270725,112.553043 422.182609,112.553043 Z M412.652174,107.412174 L413.77913,106.285217 L412.638261,105.144348 L411.511304,106.278261 L412.652174,107.412174 Z M415.504348,107.426087 L416.631304,106.292174 L415.490435,105.158261 L414.363478,106.285217 L415.504348,107.426087 Z M411.866087,114 C412.302029,114 412.681159,113.982609 413.003478,113.947826 C413.325797,113.913043 413.607536,113.85971 413.848696,113.787826 C414.089855,113.715942 414.298551,113.625507 414.474783,113.516522 C414.651014,113.407536 414.813333,113.281159 414.961739,113.137391 C415.161159,113.392464 415.416232,113.6 415.726957,113.76 C416.037681,113.92 416.427246,114 416.895652,114 L416.895652,114 L417.034783,114 L417.034783,112.636522 L416.895652,112.636522 C416.65913,112.636522 416.465507,112.583188 416.314783,112.476522 C416.164058,112.369855 416.045797,112.235362 415.96,112.073043 C415.874203,111.910725 415.812754,111.734493 415.775652,111.544348 C415.738551,111.354203 415.713043,111.173333 415.69913,111.001739 C415.68058,110.755942 415.66087,110.535652 415.64,110.34087 C415.61913,110.146087 415.597101,109.965217 415.573913,109.798261 C415.550725,109.631304 415.522899,109.472464 415.490435,109.321739 C415.457971,109.171014 415.418551,109.014493 415.372174,108.852174 L415.372174,108.852174 L414.064348,109.22087 C414.166377,109.573333 414.237101,109.886377 414.276522,110.16 C414.315942,110.433623 414.335652,110.702609 414.335652,110.966957 C414.335652,111.245217 414.289275,111.488696 414.196522,111.697391 C414.103768,111.906087 413.958841,112.08 413.761739,112.21913 C413.564638,112.358261 413.309565,112.462609 412.996522,112.532174 C412.683478,112.601739 412.306667,112.636522 411.866087,112.636522 L411.866087,112.636522 L410.829565,112.636522 L410.829565,114 L411.866087,114 Z M404.422609,110.64 L405.556522,109.506087 L404.415652,108.365217 L403.281739,109.49913 L404.422609,110.64 Z M404.137391,118.772174 C404.707826,118.772174 405.249275,118.711884 405.761739,118.591304 C406.274203,118.470725 406.741449,118.286377 407.163478,118.038261 C407.585507,117.790145 407.955362,117.475942 408.273043,117.095652 C408.590725,116.715362 408.837681,116.263188 409.013913,115.73913 C409.134493,115.368116 409.212174,115.029565 409.246957,114.723478 C409.281739,114.417391 409.29913,114.141449 409.29913,113.895652 C409.29913,113.788986 409.296812,113.682319 409.292174,113.575652 C409.783768,113.858551 410.342609,114 410.968696,114 L410.968696,114 L411.121739,114 L411.121739,112.636522 L410.968696,112.636522 C410.806377,112.636522 410.633623,112.616812 410.450435,112.577391 C410.267246,112.537971 410.073623,112.446377 409.869565,112.302609 C409.665507,112.158841 409.449855,111.945507 409.222609,111.662609 C408.995362,111.37971 408.754203,110.997101 408.49913,110.514783 C408.369275,110.236522 408.255652,110.015072 408.158261,109.850435 C408.06087,109.685797 408.005217,109.591884 407.991304,109.568696 L407.991304,109.568696 L406.836522,110.306087 C406.841159,110.306087 406.884058,110.374493 406.965217,110.511304 C407.046377,110.648116 407.14029,110.835942 407.246957,111.074783 C407.353623,111.313623 407.461449,111.594203 407.570435,111.916522 C407.67942,112.238841 407.764058,112.578551 407.824348,112.935652 C407.884638,113.292754 407.914783,113.65913 407.914783,114.034783 L407.914783,114.034783 L407.914783,114.118261 C407.905507,114.521739 407.838261,114.922899 407.713043,115.321739 C407.611014,115.646377 407.457971,115.937391 407.253913,116.194783 C407.049855,116.452174 406.797101,116.670145 406.495652,116.848696 C406.194203,117.027246 405.844058,117.162899 405.445217,117.255652 C405.046377,117.348406 404.601159,117.394783 404.109565,117.394783 C403.715362,117.394783 403.364058,117.351884 403.055652,117.266087 C402.747246,117.18029 402.478261,117.068986 402.248696,116.932174 C402.01913,116.795362 401.823188,116.641159 401.66087,116.469565 C401.498551,116.297971 401.364058,116.122899 401.257391,115.944348 C401.150725,115.765797 401.070725,115.593043 401.017391,115.426087 C400.964058,115.25913 400.928116,115.115362 400.909565,114.994783 C400.881739,114.804638 400.867826,114.607536 400.867826,114.403478 C400.867826,114.329275 400.870145,114.252754 400.874783,114.173913 C400.888696,113.895652 400.92,113.622029 400.968696,113.353043 C401.017391,113.084058 401.078841,112.825507 401.153043,112.577391 C401.227246,112.329275 401.304928,112.10087 401.386087,111.892174 C401.467246,111.683478 401.547246,111.501449 401.626087,111.346087 C401.704928,111.190725 401.774493,111.071304 401.834783,110.987826 L401.834783,110.987826 L400.728696,110.173913 C400.538551,110.489275 400.356522,110.84058 400.182609,111.227826 C400.008696,111.615072 399.862609,112.024348 399.744348,112.455652 C399.626087,112.886957 399.553043,113.261449 399.525217,113.57913 C399.497391,113.896812 399.483478,114.143768 399.483478,114.32 C399.483478,114.607536 399.504348,114.897391 399.546087,115.189565 C399.638841,115.797101 399.818551,116.325797 400.085217,116.775652 C400.351884,117.225507 400.686957,117.597681 401.090435,117.892174 C401.493913,118.186667 401.954203,118.406957 402.471304,118.553043 C402.988406,118.69913 403.543768,118.772174 404.137391,118.772174 Z M389.104348,104.747826 L390.133913,103.718261 L389.097391,102.681739 L388.067826,103.711304 L389.104348,104.747826 Z M387.532174,106.946087 L388.65913,105.812174 L387.518261,104.671304 L386.391304,105.805217 L387.532174,106.946087 Z M390.586087,106.953043 L391.713043,105.826087 L390.572174,104.685217 L389.445217,105.812174 L390.586087,106.953043 Z M390.822609,114.083478 C391.253913,114.083478 391.631884,114.023188 391.956522,113.902609 C392.290435,113.782029 392.568696,113.608116 392.791304,113.38087 C393.013913,113.153623 393.18087,112.878841 393.292174,112.556522 C393.403478,112.234203 393.45913,111.873623 393.45913,111.474783 C393.45913,111.210435 393.434783,110.93913 393.386087,110.66087 C393.337391,110.382609 393.274783,110.111304 393.198261,109.846957 C393.121739,109.582609 393.03942,109.328696 392.951304,109.085217 C392.863188,108.841739 392.777391,108.623768 392.693913,108.431304 C392.610435,108.238841 392.536232,108.076522 392.471304,107.944348 C392.406377,107.812174 392.362319,107.722899 392.33913,107.676522 L392.33913,107.676522 L391.121739,108.316522 C391.195942,108.464928 391.287536,108.665507 391.396522,108.918261 C391.505507,109.171014 391.609855,109.444638 391.709565,109.73913 C391.809275,110.033623 391.895072,110.333913 391.966957,110.64 C392.038841,110.946087 392.074783,111.231304 392.074783,111.495652 C392.074783,111.69971 392.051594,111.882899 392.005217,112.045217 C391.958841,112.207536 391.883478,112.342029 391.77913,112.448696 C391.674783,112.555362 391.556522,112.626087 391.424348,112.66087 C391.292174,112.695652 391.158841,112.713043 391.024348,112.713043 C390.945507,112.713043 390.862029,112.708406 390.773913,112.69913 C390.634783,112.685217 390.517681,112.64 390.422609,112.563478 C390.327536,112.486957 390.251014,112.389565 390.193043,112.271304 C390.135072,112.153043 390.093333,112.016232 390.067826,111.86087 C390.042319,111.705507 390.029565,111.542029 390.029565,111.370435 C390.029565,111.18029 390.043478,110.963478 390.071304,110.72 C390.09913,110.476522 390.130435,110.246957 390.165217,110.031304 C390.2,109.815652 390.231304,109.631304 390.25913,109.478261 L390.25913,109.478261 L390.293913,109.255652 L388.958261,109.012174 C388.930435,109.202319 388.892174,109.426087 388.843478,109.683478 C388.794783,109.94087 388.732174,110.206377 388.655652,110.48 C388.57913,110.753623 388.486377,111.022609 388.377391,111.286957 C388.268406,111.551304 388.14087,111.787826 387.994783,111.996522 C387.848696,112.205217 387.681739,112.374493 387.493913,112.504348 C387.306087,112.634203 387.093913,112.69913 386.857391,112.69913 C386.708986,112.69913 386.586087,112.671304 386.488696,112.615652 C386.391304,112.56 386.314783,112.485797 386.25913,112.393043 C386.203478,112.30029 386.164058,112.194783 386.14087,112.076522 C386.117681,111.958261 386.106087,111.836522 386.106087,111.711304 C386.106087,111.530435 386.124638,111.334493 386.161739,111.123478 C386.198841,110.912464 386.242899,110.706087 386.293913,110.504348 C386.344928,110.302609 386.397101,110.113623 386.450435,109.937391 C386.503768,109.761159 386.548986,109.617391 386.586087,109.506087 L386.586087,109.506087 L385.208696,109.213913 C385.162319,109.441159 385.106667,109.682319 385.041739,109.937391 C384.976812,110.192464 384.897971,110.446377 384.805217,110.69913 C384.712464,110.951884 384.603478,111.194203 384.478261,111.426087 C384.353043,111.657971 384.205797,111.863188 384.036522,112.041739 C383.867246,112.22029 383.673623,112.364058 383.455652,112.473043 C383.237681,112.582029 382.991884,112.636522 382.718261,112.636522 L382.718261,112.636522 L382.565217,112.636522 L382.565217,114 L382.711304,114 C382.98029,114 383.227246,113.977971 383.452174,113.933913 C383.677101,113.889855 383.882319,113.826087 384.067826,113.742609 C384.253333,113.65913 384.424928,113.558261 384.582609,113.44 C384.74029,113.321739 384.888696,113.188406 385.027826,113.04 C385.102029,113.211594 385.207536,113.362319 385.344348,113.492174 C385.481159,113.622029 385.633043,113.731014 385.8,113.81913 C385.966957,113.907246 386.142029,113.973333 386.325217,114.017391 C386.508406,114.061449 386.685797,114.083478 386.857391,114.083478 C387.251594,114.083478 387.624928,113.988406 387.977391,113.798261 C388.329855,113.608116 388.645217,113.350725 388.923478,113.026087 C389.02087,113.174493 389.13913,113.312464 389.278261,113.44 C389.417391,113.567536 389.568116,113.678841 389.730435,113.773913 C389.892754,113.868986 390.063188,113.944348 390.241739,114 C390.42029,114.055652 390.597681,114.083478 390.773913,114.083478 L390.773913,114.083478 L390.822609,114.083478 Z M377.918261,114 C378.6,114 379.172754,113.929275 379.636522,113.787826 C380.10029,113.646377 380.478261,113.429565 380.770435,113.137391 C380.969855,113.392464 381.224928,113.6 381.535652,113.76 C381.846377,113.92 382.235942,114 382.704348,114 L382.704348,114 L382.843478,114 L382.843478,112.636522 L382.704348,112.636522 C382.467826,112.636522 382.274203,112.583188 382.123478,112.476522 C381.972754,112.369855 381.854493,112.235362 381.768696,112.073043 C381.682899,111.910725 381.621449,111.734493 381.584348,111.544348 C381.547246,111.354203 381.521739,111.173333 381.507826,111.001739 C381.489275,110.755942 381.469565,110.535652 381.448696,110.34087 C381.427826,110.146087 381.405797,109.965217 381.382609,109.798261 C381.35942,109.631304 381.331594,109.472464 381.29913,109.321739 C381.266667,109.171014 381.227246,109.014493 381.18087,108.852174 L381.18087,108.852174 L379.873043,109.22087 C379.975072,109.573333 380.045797,109.886377 380.085217,110.16 C380.124638,110.433623 380.144348,110.702609 380.144348,110.966957 C380.144348,111.518841 379.968116,111.935072 379.615652,112.215652 C379.263188,112.496232 378.697391,112.636522 377.918261,112.636522 L377.918261,112.636522 L377.66087,112.636522 L377.66087,114 L377.918261,114 Z M380.137391,117.624348 L381.271304,116.490435 L380.130435,115.349565 L378.996522,116.483478 L380.137391,117.624348 Z M372.304348,119.502609 C372.675362,119.502609 373.052174,119.478261 373.434783,119.429565 C373.817391,119.38087 374.197681,119.29971 374.575652,119.186087 C374.953623,119.072464 375.323478,118.91942 375.685217,118.726957 C376.046957,118.534493 376.392464,118.292174 376.721739,118 L376.721739,118 L375.824348,116.942609 C375.518261,117.234783 375.175072,117.474783 374.794783,117.662609 C374.414493,117.850435 374.026087,117.987246 373.629565,118.073043 C373.233043,118.158841 372.844638,118.201739 372.464348,118.201739 L372.464348,118.201739 L372.346087,118.201739 C371.91942,118.197101 371.507826,118.143768 371.111304,118.041739 C370.714783,117.93971 370.344928,117.793623 370.001739,117.603478 C369.658551,117.413333 369.364058,117.177971 369.118261,116.897391 C368.872464,116.616812 368.689275,116.309565 368.568696,115.975652 C368.448116,115.641739 368.387826,115.296232 368.387826,114.93913 C368.387826,114.864928 368.390145,114.790725 368.394783,114.716522 C368.417971,114.428986 368.477101,114.163478 368.572174,113.92 C368.667246,113.676522 368.783188,113.452754 368.92,113.248696 C369.056812,113.044638 369.208696,112.861449 369.375652,112.69913 C369.542609,112.536812 369.709565,112.394203 369.876522,112.271304 C370.043478,112.148406 370.203478,112.044058 370.356522,111.958261 C370.509565,111.872464 370.63942,111.804058 370.746087,111.753043 C371.237681,111.530435 371.748986,111.356522 372.28,111.231304 C372.811014,111.106087 373.336232,111.011014 373.855652,110.946087 C373.855652,111.488696 373.946087,111.953623 374.126957,112.34087 C374.307826,112.728116 374.567536,113.044638 374.906087,113.290435 C375.244638,113.536232 375.657391,113.715942 376.144348,113.829565 C376.631304,113.943188 377.183188,114 377.8,114 L377.8,114 L377.93913,114 L377.93913,112.636522 L377.8,112.636522 C377.396522,112.636522 377.037101,112.612174 376.721739,112.563478 C376.406377,112.514783 376.138551,112.423188 375.918261,112.288696 C375.697971,112.154203 375.529855,111.969855 375.413913,111.735652 C375.297971,111.501449 375.24,111.196522 375.24,110.82087 C375.467246,110.806957 375.674783,110.797681 375.862609,110.793043 C376.050435,110.788406 376.212754,110.787246 376.349565,110.789565 C376.486377,110.791884 376.593043,110.794203 376.669565,110.796522 C376.707826,110.797681 376.737681,110.798551 376.75913,110.79913 L376.798261,110.8 L377.062609,109.464348 C376.390145,109.241739 375.768696,108.998261 375.198261,108.733913 C374.627826,108.469565 374.089855,108.212174 373.584348,107.961739 L373.25447,107.799652 C372.823722,107.590029 372.429333,107.406377 372.071304,107.248696 C371.623768,107.051594 371.205217,106.927536 370.815652,106.876522 C370.653333,106.853333 370.495652,106.841739 370.342609,106.841739 C369.957681,106.841739 369.588986,106.908986 369.236522,107.043478 C368.744928,107.228986 368.295072,107.546667 367.886957,107.996522 C367.743188,108.149565 367.617971,108.301449 367.511304,108.452174 C367.404638,108.602899 367.315362,108.738551 367.243478,108.85913 C367.171594,108.97971 367.114783,109.081739 367.073043,109.165217 C367.052174,109.206957 367.035362,109.24058 367.022609,109.266087 L366.996522,109.318261 L368.276522,109.846957 C368.336812,109.721739 368.415652,109.57913 368.513043,109.41913 C368.610435,109.25913 368.735652,109.095652 368.888696,108.928696 C369.333913,108.455652 369.827826,108.21913 370.370435,108.21913 C370.458551,108.21913 370.546667,108.226087 370.634783,108.24 C370.903768,108.277101 371.24,108.384928 371.643478,108.563478 C372.046957,108.742029 372.492174,108.954203 372.97913,109.2 L372.97913,109.2 L373.730435,109.561739 C373.141449,109.631304 372.545507,109.74029 371.942609,109.888696 C371.33971,110.037101 370.750725,110.243478 370.175652,110.507826 C369.744348,110.707246 369.345507,110.954203 368.97913,111.248696 C368.612754,111.543188 368.292754,111.872464 368.01913,112.236522 C367.745507,112.60058 367.522899,112.990145 367.351304,113.405217 C367.17971,113.82029 367.073043,114.250435 367.031304,114.695652 C367.017391,114.825507 367.010435,114.950725 367.010435,115.071304 C367.010435,115.391304 367.049855,115.69971 367.128696,115.996522 C367.230725,116.409275 367.393043,116.793043 367.615652,117.147826 C367.838261,117.502609 368.113043,117.824928 368.44,118.114783 C368.766957,118.404638 369.133333,118.652754 369.53913,118.85913 C369.944928,119.065507 370.38087,119.224348 370.846957,119.335652 C371.313043,119.446957 371.798841,119.502609 372.304348,119.502609 Z"/>
    <rect width="360" height="56" x="81" y="34"/>
    <path fill="#000000" fill-rule="nonzero" d="M434.6,70.2086957 C435.342029,70.2086957 436.005217,70.1878261 436.589565,70.146087 C437.173913,70.1043478 437.696812,70.0521739 438.158261,69.9895652 C438.61971,69.9269565 439.028986,69.8562319 439.386087,69.7773913 C439.743188,69.6985507 440.065507,69.622029 440.353043,69.5478261 L440.353043,69.5478261 L440.137391,67.8156522 L439.393043,67.9617391 C439.170435,67.9988406 438.923478,68.0371014 438.652174,68.0765217 C438.38087,68.115942 438.110725,68.1449275 437.841739,68.1634783 C437.790725,68.1681159 437.73971,68.1704348 437.688696,68.1704348 C437.461449,68.1704348 437.236522,68.1356522 437.013913,68.066087 C436.74029,67.9826087 436.49913,67.8608696 436.290435,67.7008696 C436.081739,67.5408696 435.91942,67.3576812 435.803478,67.1513043 C435.687536,66.9449275 435.629565,66.7327536 435.629565,66.5147826 C435.629565,66.4823188 435.631884,66.4498551 435.636522,66.4173913 C435.650435,66.2318841 435.692174,66.057971 435.761739,65.8956522 C435.831304,65.7333333 435.928696,65.5907246 436.053913,65.4678261 C436.17913,65.3449275 436.332174,65.2475362 436.513043,65.1756522 C436.693913,65.1037681 436.902609,65.0678261 437.13913,65.0678261 C437.431304,65.0678261 437.70029,65.1223188 437.946087,65.2313043 C438.191884,65.3402899 438.407536,65.462029 438.593043,65.5965217 C438.815652,65.7542029 439.010435,65.9304348 439.177391,66.1252174 L439.177391,66.1252174 L440.304348,64.7408696 C440.169855,64.6063768 440.026087,64.4788406 439.873043,64.3582609 C439.72,64.2376812 439.562319,64.124058 439.4,64.0173913 C439.26087,63.9292754 439.106667,63.8411594 438.937391,63.7530435 C438.768116,63.6649275 438.588406,63.586087 438.398261,63.5165217 C438.208116,63.4469565 438.007536,63.3913043 437.796522,63.3495652 C437.585507,63.3078261 437.366377,63.2869565 437.13913,63.2869565 C436.68,63.2869565 436.254493,63.3727536 435.862609,63.5443478 C435.470725,63.715942 435.132174,63.9478261 434.846957,64.24 C434.561739,64.5321739 434.337971,64.8730435 434.175652,65.2626087 C434.013333,65.6521739 433.932174,66.0649275 433.932174,66.5008696 C433.932174,66.8718841 433.977391,67.2115942 434.067826,67.52 C434.158261,67.8284058 434.328696,68.1286957 434.57913,68.4208696 L434.57913,68.4208696 L433.250435,68.4278261 L432.944348,68.4278261 L432.944348,70.2086957 L434.6,70.2086957 Z M430.252174,63.7808696 L431.587826,62.4452174 L430.252174,61.1165217 L428.923478,62.4452174 L430.252174,63.7808696 Z M428.297391,70.2086957 C428.951304,70.2086957 429.506667,70.146087 429.963478,70.0208696 C430.42029,69.8956522 430.808696,69.7008696 431.128696,69.4365217 C431.346667,69.6637681 431.614493,69.8492754 431.932174,69.9930435 C432.249855,70.1368116 432.633623,70.2086957 433.083478,70.2086957 L433.083478,70.2086957 L433.222609,70.2086957 L433.222609,68.4278261 L433.083478,68.4278261 C432.893333,68.4278261 432.73913,68.3802899 432.62087,68.2852174 C432.502609,68.1901449 432.408696,68.0718841 432.33913,67.9304348 C432.269565,67.7889855 432.21971,67.6336232 432.189565,67.4643478 C432.15942,67.2950725 432.137391,67.1362319 432.123478,66.9878261 C432.104928,66.742029 432.087536,66.5275362 432.071304,66.3443478 C432.055072,66.1611594 432.034203,65.9895652 432.008696,65.8295652 C431.983188,65.6695652 431.953043,65.5095652 431.918261,65.3495652 C431.883478,65.1895652 431.835942,65.0075362 431.775652,64.8034783 L431.775652,64.8034783 L430.064348,65.2834783 C430.184928,65.6962319 430.277681,66.0405797 430.342609,66.3165217 C430.407536,66.5924638 430.44,66.8092754 430.44,66.9669565 C430.44,67.453913 430.26029,67.8191304 429.90087,68.0626087 C429.541449,68.306087 429.006957,68.4278261 428.297391,68.4278261 L428.297391,68.4278261 L428.04,68.4278261 L428.04,70.2086957 L428.297391,70.2086957 Z M421.786087,75.0782609 C422.481739,74.9623188 423.151884,74.7721739 423.796522,74.5078261 C424.441159,74.2434783 425.026667,73.9072464 425.553043,73.4991304 C426.07942,73.0910145 426.530435,72.6121739 426.906087,72.0626087 C427.281739,71.5130435 427.548406,70.8950725 427.706087,70.2086957 L427.706087,70.2086957 L428.318261,70.2086957 L428.318261,68.4278261 L427.852174,68.4278261 C427.833623,68.08 427.788406,67.7402899 427.716522,67.4086957 C427.644638,67.0771014 427.550725,66.7582609 427.434783,66.4521739 C427.318841,66.146087 427.182029,65.8585507 427.024348,65.5895652 C426.866667,65.3205797 426.690435,65.0771014 426.495652,64.8591304 C425.902029,64.2191304 425.245797,63.8991304 424.526957,63.8991304 C424.248696,63.8991304 423.988986,63.9524638 423.747826,64.0591304 C423.506667,64.1657971 423.286377,64.3107246 423.086957,64.493913 C422.887536,64.6771014 422.711304,64.8881159 422.558261,65.1269565 C422.405217,65.3657971 422.276522,65.6185507 422.172174,65.8852174 C422.067826,66.1518841 421.987826,66.4243478 421.932174,66.7026087 C421.876522,66.9808696 421.848696,67.2475362 421.848696,67.5026087 C421.848696,67.9014493 421.902029,68.2446377 422.008696,68.5321739 C422.115362,68.8197101 422.264928,69.0643478 422.457391,69.266087 C422.649855,69.4678261 422.87942,69.6301449 423.146087,69.7530435 C423.412754,69.875942 423.704928,69.9710145 424.022609,70.0382609 C424.34029,70.1055072 424.677681,70.1507246 425.034783,70.173913 C425.391884,70.1971014 425.758261,70.2086957 426.133913,70.2086957 C426.050435,70.524058 425.882319,70.8394203 425.629565,71.1547826 C425.376812,71.4701449 425.048696,71.7669565 424.645217,72.0452174 C424.241739,72.3234783 423.765217,72.5750725 423.215652,72.8 C422.666087,73.0249275 422.050435,73.2046377 421.368696,73.3391304 L421.368696,73.3391304 L421.786087,75.0782609 Z M426.231304,68.4278261 L425.890435,68.4278261 C425.769855,68.4278261 425.648116,68.4255072 425.525217,68.4208696 C425.402319,68.4162319 425.282899,68.4127536 425.166957,68.4104348 C425.051014,68.4081159 424.944348,68.4023188 424.846957,68.3930435 C424.670725,68.3791304 424.493333,68.3524638 424.314783,68.3130435 C424.136232,68.2736232 423.976232,68.2144928 423.834783,68.1356522 C423.693333,68.0568116 423.577391,67.9524638 423.486957,67.8226087 C423.396522,67.6927536 423.351304,67.5304348 423.351304,67.3356522 C423.351304,67.1501449 423.389565,66.96 423.466087,66.7652174 C423.542609,66.5704348 423.638841,66.3930435 423.754783,66.2330435 C423.870725,66.0730435 423.998261,65.942029 424.137391,65.84 C424.276522,65.737971 424.406377,65.6869565 424.526957,65.6869565 C424.656812,65.6869565 424.786667,65.7310145 424.916522,65.8191304 C425.046377,65.9072464 425.172754,66.0243478 425.295652,66.1704348 C425.418551,66.3165217 425.533333,66.4834783 425.64,66.6713043 C425.746667,66.8591304 425.841739,67.0550725 425.925217,67.2591304 C426.008696,67.4631884 426.077101,67.666087 426.130435,67.8678261 C426.183768,68.0695652 426.217391,68.2562319 426.231304,68.4278261 L426.231304,68.4278261 Z M418.321739,70.1947826 L420.144348,69.9165217 C420.162899,69.5547826 420.181449,69.1663768 420.2,68.7513043 C420.218551,68.3362319 420.232464,67.8886957 420.241739,67.4086957 C420.251014,66.9286957 420.256812,66.4104348 420.25913,65.853913 C420.261449,65.2973913 420.257971,64.6921739 420.248696,64.0382609 C420.23942,63.2684058 420.211594,62.4811594 420.165217,61.6765217 C420.118841,60.8718841 420.037681,60.0266667 419.921739,59.1408696 L419.921739,59.1408696 L418.133913,59.7252174 C418.212754,60.4904348 418.275362,61.2915942 418.321739,62.1286957 C418.368116,62.9657971 418.409855,63.8597101 418.446957,64.8104348 C418.46087,65.2231884 418.467826,65.666087 418.467826,66.1391304 C418.467826,67.3124638 418.41913,68.6643478 418.321739,70.1947826 L418.321739,70.1947826 Z M411.636522,66.8347826 L412.972174,65.4991304 L411.636522,64.1704348 L410.307826,65.4991304 L411.636522,66.8347826 Z M411.21913,74.9947826 C411.896232,74.9947826 412.506087,74.9286957 413.048696,74.7965217 C413.591304,74.6643478 414.067826,74.4811594 414.478261,74.2469565 C414.888696,74.0127536 415.24,73.7356522 415.532174,73.4156522 C415.824348,73.0956522 416.05971,72.7478261 416.238261,72.3721739 C416.416812,71.9965217 416.538551,71.6266667 416.603478,71.2626087 C416.668406,70.8985507 416.70087,70.5565217 416.70087,70.2365217 C416.70087,70.1391304 416.698551,70.0394203 416.693913,69.9373913 C416.68,69.6405797 416.641739,69.3298551 416.57913,69.0052174 C416.516522,68.6805797 416.442319,68.3617391 416.356522,68.0486957 C416.270725,67.7356522 416.17913,67.4388406 416.081739,67.1582609 C415.984348,66.8776812 415.893913,66.6284058 415.810435,66.4104348 C415.726957,66.1924638 415.655072,66.0162319 415.594783,65.8817391 C415.534493,65.7472464 415.497391,65.6707246 415.483478,65.6521739 L415.483478,65.6521739 L413.848696,66.5634783 C413.853333,66.5634783 413.885797,66.6237681 413.946087,66.7443478 C414.006377,66.8649275 414.08058,67.0249275 414.168696,67.2243478 C414.256812,67.4237681 414.350725,67.6521739 414.450435,67.9095652 C414.550145,68.1669565 414.644058,68.4301449 414.732174,68.6991304 C414.82029,68.9681159 414.895652,69.2336232 414.958261,69.4956522 C415.02087,69.7576812 415.056812,69.9953623 415.066087,70.2086957 L415.066087,70.2086957 L415.066087,70.3269565 C415.066087,70.5681159 415.031304,70.8 414.961739,71.0226087 C414.873623,71.2823188 414.748406,71.5234783 414.586087,71.746087 C414.423768,71.9686957 414.226667,72.1704348 413.994783,72.3513043 C413.762899,72.5321739 413.505507,72.6863768 413.222609,72.813913 C412.93971,72.9414493 412.641739,73.0365217 412.328696,73.0991304 C412.015652,73.1617391 411.696812,73.1930435 411.372174,73.1930435 L411.372174,73.1930435 L411.302609,73.1930435 C410.866667,73.1837681 410.452754,73.1107246 410.06087,72.973913 C409.668986,72.8371014 409.324638,72.6469565 409.027826,72.4034783 C408.731014,72.16 408.495652,71.8689855 408.321739,71.5304348 C408.147826,71.1918841 408.06087,70.8162319 408.06087,70.4034783 C408.06087,70.0556522 408.101449,69.7101449 408.182609,69.3669565 C408.263768,69.0237681 408.36,68.7037681 408.471304,68.4069565 C408.582609,68.1101449 408.69971,67.8481159 408.822609,67.6208696 C408.945507,67.3936232 409.048696,67.222029 409.132174,67.106087 L409.132174,67.106087 L407.761739,66.1113043 C407.330435,66.7605797 407.006957,67.4469565 406.791304,68.1704348 C406.575652,68.893913 406.467826,69.6243478 406.467826,70.3617391 C406.467826,71.0805797 406.581449,71.7263768 406.808696,72.2991304 C407.035942,72.8718841 407.357101,73.3576812 407.772174,73.7565217 C408.187246,74.1553623 408.686957,74.4614493 409.271304,74.6747826 C409.855652,74.8881159 410.504928,74.9947826 411.21913,74.9947826 Z"/>
  </g>
</svg>
