<svg xmlns="http://www.w3.org/2000/svg" width="236" height="220"><g fill="none" fill-rule="evenodd"><path d="M0 0h236v220H0z"/><g transform="translate(29 90)"><rect width="179" height="40" fill="#000000" fill-opacity=".24" rx="4"/><path fill="#FFF" fill-rule="nonzero" d="M149.95 23.047c.048-.577.077-1.122.086-1.633a75.742 75.742 0 00-.003-2.854 47.688 47.688 0 00-.266-3.798l-1.023.156c.119 1.096.213 2.487.282 4.174.01.289.016.595.016.918 0 .268-.004.548-.01.84-.018.647-.055 1.36-.11 2.14l1.028.057zM142.854 23c.26 0 .543-.011.845-.034a5.25 5.25 0 00.934-.159c.32-.084.64-.208.963-.373.321-.165.632-.392.931-.681.097-.094.194-.212.29-.355a3.017 3.017 0 00.422-.975 2.182 2.182 0 00.05-.606 1.73 1.73 0 00-.157-.618 1.835 1.835 0 00-.365-.509c-.264-.257-.525-.413-.783-.467a3.343 3.343 0 00-.673-.08c-.153 0-.308.012-.464.036-.755.129-1.555.584-2.4 1.367.007-.268.01-.534.01-.798 0-1.34-.081-2.616-.245-3.83l-1.054.188a91.885 91.885 0 01.12 1.22 23.239 23.239 0 01.12 2.323v.188c-.003.445-.015.83-.034 1.153-.019.323-.047.596-.086.819a6.461 6.461 0 00-.524.748c-.117.204-.2.344-.248.42h-.876V23h3.224zm-.647-1.023h-.5c.302-.407.49-.655.565-.746.075-.09.156-.182.243-.276.473-.518.917-.92 1.333-1.205.415-.286.802-.468 1.16-.548a1.353 1.353 0 01.402-.021c.14.014.27.05.39.107.12.057.223.135.31.232a.739.739 0 01.172.355 1.033 1.033 0 01-.057.59 1.377 1.377 0 01-.413.542 3.809 3.809 0 01-.944.584 4.636 4.636 0 01-.937.285 5.426 5.426 0 01-.897.094c-.29.005-.566.007-.827.007zm-7.445 1.41c.066 0 .134-.003.203-.006.324-.01.644-.049.96-.115a5.11 5.11 0 001.169-.428 3.18 3.18 0 00.897-.704c.129.209.274.371.436.488.162.116.317.202.467.258.15.056.283.09.399.102.117.012.194.018.232.018h.313v-1.023h-.104c-.143 0-.278-.02-.407-.06a.962.962 0 01-.6-.534 1.48 1.48 0 01-.125-.506 348.026 348.026 0 00-.162-1.9 712.899 712.899 0 00-.162-1.894l-.068-.813a427.341 427.341 0 00-.104-1.258l-1.023.11.024.242.063.637c.026.266.054.575.086.926l.099 1.114a101.134 101.134 0 01.182 2.376 1.183 1.183 0 01-.026.45 1.462 1.462 0 01-.174.406c-.079.125-.174.24-.287.344a1.988 1.988 0 01-.373.272c-.119-.553-.31-1.15-.574-1.792a19.226 19.226 0 00-1.028-2.085 23.707 23.707 0 00-.908-1.505c-.122-.186-.22-.333-.295-.44a2.163 2.163 0 01-.117-.178l-.84.594.107.154a20.398 20.398 0 01.665 1.03c.146.24.3.503.46.786.16.284.32.584.48.9.16.317.31.638.45.965.141.327.266.655.373.984.108.328.19.646.246.952a3.804 3.804 0 01-.955.104c-.205 0-.395-.017-.569-.052l-.177 1.017c.254.042.51.063.767.063zM126.393 23l1.242-.01c.55 0 1.038-.013 1.466-.04.428-.026.808-.06 1.14-.104a11.687 11.687 0 001.536-.3l-.125-.991-.383.078a6.15 6.15 0 01-.366.063 10.696 10.696 0 01-.952.088c-.188 0-.368-.026-.542-.078a1.685 1.685 0 01-.561-.282 1.453 1.453 0 01-.389-.454 1.215 1.215 0 01-.146-.594c0-.16.026-.314.078-.462a1.108 1.108 0 01.616-.668c.153-.068.33-.102.532-.102.178 0 .338.019.48.055.143.037.274.087.394.151.12.065.232.14.337.225.104.085.21.176.318.274l.642-.788a13.24 13.24 0 00-.465-.365 3.17 3.17 0 00-.485-.3 2.64 2.64 0 00-1.22-.274 2.2 2.2 0 00-.896.18 2.228 2.228 0 00-1.184 1.205c-.113.273-.17.563-.17.869 0 .313.052.598.154.855.103.258.281.501.535.73l-1.586.016V23zm.209 0v-1.023h-.105c-.219 0-.407-.022-.566-.067a.814.814 0 01-.357-.188.435.435 0 01-.138-.269 2.819 2.819 0 01-.019-.331v-2.62a36.417 36.417 0 00-.107-2.749 7.733 7.733 0 00-.08-.652l-1.023.188a6.5 6.5 0 01.08.628c.023.256.043.535.058.838.016.302.027.615.034.939.007.323.01.635.01.934.004.306.006.596.006.871v.203l-.005.538a158.575 158.575 0 00-.01.718v.148c0 .063.002.134.004.211a2.015 2.015 0 00.185.76c.061.132.15.255.264.37.188.188.417.327.686.417.27.09.596.136.978.136h.105zm-9.652-4.283l.845-.846-.856-.855-.845.85.856.85zm2.139.01l.845-.85-.856-.85-.845.844.856.856zM118.019 23a10.38 10.38 0 001.403-.11 11.247 11.247 0 001.545-.336c.24-.071.464-.15.673-.237a3.82 3.82 0 00.548-.277c.163-.104.29-.208.378-.31a.833.833 0 00.177-.306 1.037 1.037 0 00.04-.407 3.715 3.715 0 00-.084-.474 4.878 4.878 0 00-.258-.79 9.67 9.67 0 00-.326-.7 7.543 7.543 0 00-.285-.506 6.612 6.612 0 01-.133-.217l-.866.564a6.22 6.22 0 01.248.394c.068.116.142.25.222.402.08.15.156.31.227.477.071.167.134.336.188.509.054.172.087.336.101.493a4.749 4.749 0 01-.947.399c-.339.102-.68.183-1.025.242-.344.06-.682.1-1.012.123-.33.023-.633.034-.908.034-.974-.004-1.765-.097-2.374-.28-.608-.182-.998-.444-1.168-.784a1.024 1.024 0 01-.105-.465c0-.191.042-.401.125-.631a2.015 2.015 0 01.157-.357 4.141 4.141 0 01.183-.3l-.83-.616-.057.086a4.171 4.171 0 00-.259.457c-.05.104-.1.219-.148.344a2.913 2.913 0 00-.204 1.033c0 .33.073.636.22.918.257.518.744.917 1.46 1.195.755.278 1.755.423 3 .433h.094zm-14.99 0c.213 0 .413-.01.6-.031.188-.021.366-.061.533-.12.167-.06.324-.145.472-.256.148-.111.29-.26.425-.443.16.118.334.233.522.347.188.113.383.208.587.286a2.254 2.254 0 00.842.17c.143 0 .286-.02.428-.057.226-.063.418-.175.574-.337.157-.162.28-.351.37-.569.091-.217.147-.416.168-.597.02-.18.03-.327.03-.438 0-.125-.008-.247-.025-.365a3.157 3.157 0 00-.185-.69 2.148 2.148 0 00-.358-.604c-.15-.178-.33-.321-.54-.43a1.554 1.554 0 00-.728-.165c-.23 0-.43.046-.602.138a1.696 1.696 0 00-.46.36 2.75 2.75 0 00-.36.506c-.105.19-.205.382-.3.577-.107.215-.214.425-.32.628a2.548 2.548 0 01-.376.543c-.144.158-.319.285-.524.38-.205.097-.463.144-.772.144h-.105V23h.105zm3.966-1.085c-.14 0-.296-.035-.47-.105a4.026 4.026 0 01-.866-.506l.282-.568c.087-.17.164-.319.232-.444s.132-.23.193-.313a.739.739 0 01.183-.185.35.35 0 01.195-.06.59.59 0 01.277.063c.08.041.15.094.209.159.059.064.11.135.15.214a1.698 1.698 0 01.163.425 1.67 1.67 0 01.047.396 1.562 1.562 0 01-.097.527.887.887 0 01-.143.256.333.333 0 01-.173.12.752.752 0 01-.182.02zm-8.76 4.748c.508-.08.999-.22 1.474-.418a5.392 5.392 0 001.294-.762c.387-.31.718-.672.99-1.087.274-.416.463-.881.567-1.396h.574v-1.023h-.496a4.843 4.843 0 00-.281-1.515 4.007 4.007 0 00-.303-.66 3.296 3.296 0 00-.397-.553c-.414-.446-.867-.668-1.361-.668-.223 0-.438.056-.645.17-.207.112-.399.279-.576.498a2.901 2.901 0 00-.381.67c-.108.26-.177.49-.206.694-.03.204-.045.371-.045.504 0 .139.013.278.037.417.042.264.143.497.303.699.361.449.92.696 1.674.74.192.018.363.027.514.027h.592c-.038.26-.145.526-.32.796-.176.27-.415.524-.718.764a5.16 5.16 0 01-1.09.647c-.425.191-.905.34-1.44.449l.24 1.007zm2.865-4.697l-.084.001c-.153 0-.317-.005-.49-.016a2.63 2.63 0 01-.223-.023 1.854 1.854 0 01-.26-.058 1.226 1.226 0 01-.25-.104.614.614 0 01-.196-.17.489.489 0 01-.107-.247 1.826 1.826 0 01-.019-.232 2.37 2.37 0 01.295-1.09c.071-.123.152-.223.243-.3a.433.433 0 01.287-.118c.062 0 .121.01.177.031.056.02.109.048.16.08.05.034.097.07.14.11.044.04.083.078.117.113.087.1.172.22.253.357.082.137.156.291.222.462.066.17.12.355.162.553.042.198.068.408.078.631a6.1 6.1 0 01-.505.02zM90.336 23c.525 0 1.045-.049 1.56-.146a12.443 12.443 0 001.494-.378c.482-.155.943-.328 1.383-.52.44-.19.851-.382 1.234-.573.26-.13.511-.252.751-.368.24-.117.482-.225.725-.326l-.198-.992a3.07 3.07 0 01-.642-.067 5.132 5.132 0 01-.636-.18 8.437 8.437 0 01-.634-.253 29.4 29.4 0 01-.623-.287 73.31 73.31 0 00-.559-.256 7.597 7.597 0 00-.542-.222 4.228 4.228 0 00-.525-.154 2.34 2.34 0 00-.508-.057c-.338 0-.659.082-.963.245a2.96 2.96 0 00-.863.736 3.54 3.54 0 00-.248.328 8.463 8.463 0 00-.183.287 2.657 2.657 0 00-.159.298l.94.422a2.765 2.765 0 01.193-.342c.062-.095.137-.198.224-.307.086-.11.185-.212.294-.308.11-.096.229-.175.358-.237a.919.919 0 01.407-.094c.107 0 .226.016.354.05.13.032.266.077.41.132.144.056.294.12.449.19l.477.222c.212.101.428.2.647.298.22.097.449.188.689.271-.397.198-.809.391-1.237.58-.428.187-.866.354-1.315.5a11.26 11.26 0 01-1.367.352 7.355 7.355 0 01-1.387.133h-1.133V23h1.133zm3.172 2.708l.85-.85-.855-.856-.85.85.855.856zm-8.995.955c.508-.08 1-.22 1.474-.418a5.392 5.392 0 001.294-.762c.388-.31.718-.672.991-1.087.273-.416.462-.881.566-1.396h.574v-1.023h-.495a4.843 4.843 0 00-.282-1.515 4.007 4.007 0 00-.303-.66 3.296 3.296 0 00-.396-.553c-.414-.446-.868-.668-1.362-.668-.223 0-.437.056-.644.17-.207.112-.4.279-.577.498a2.901 2.901 0 00-.38.67c-.109.26-.177.49-.207.694-.03.204-.044.371-.044.504 0 .139.012.278.036.417.042.264.143.497.303.699.362.449.92.696 1.675.74.191.018.362.027.514.027h.592c-.039.26-.145.526-.321.796-.176.27-.415.524-.718.764a5.16 5.16 0 01-1.09.647c-.424.191-.904.34-1.44.449l.24 1.007zm2.865-4.697l-.084.001c-.153 0-.317-.005-.49-.016a2.63 2.63 0 01-.222-.023 1.854 1.854 0 01-.261-.058 1.226 1.226 0 01-.25-.104.614.614 0 01-.196-.17.489.489 0 01-.107-.247 1.826 1.826 0 01-.018-.232 2.37 2.37 0 01.295-1.09c.07-.123.152-.223.242-.3a.433.433 0 01.287-.118c.063 0 .122.01.177.031.056.02.109.048.16.08.05.034.097.07.14.11.044.04.083.078.118.113.087.1.171.22.253.357.081.137.155.291.221.462.067.17.12.355.162.553.042.198.068.408.078.631a6.1 6.1 0 01-.505.02zm-6.548 1.029c.208 0 .418-.016.628-.047.21-.031.413-.082.608-.151.195-.07.377-.16.545-.27.169-.109.316-.24.441-.393a1.264 1.264 0 00.271-.553c.028-.122.043-.261.045-.418a2.41 2.41 0 00-.06-.526 3.792 3.792 0 00-.238-.681 5.52 5.52 0 00-.38-.7 6.908 6.908 0 00-1.057-1.28 5.968 5.968 0 00-.608-.506 3.66 3.66 0 00-.618-.366l-.423.95c.157.07.317.163.48.282.164.118.325.254.483.407a6.2 6.2 0 01.456.493c.147.175.28.356.4.542.12.186.222.372.307.559.086.186.147.364.186.534.027.126.041.233.041.324 0 .125-.026.219-.078.282a1.082 1.082 0 01-.438.318c-.174.07-.33.11-.47.122a2.997 2.997 0 01-.72-.008 4.434 4.434 0 01-1.215-.33 3.171 3.171 0 01-.465-.243l-.428.98c.087.08.225.16.413.24.187.08.394.154.62.22.227.066.454.119.681.159.228.04.426.06.593.06zm-9.512 0c.209 0 .419-.016.629-.047.21-.031.413-.082.608-.151.195-.07.376-.16.545-.27.169-.109.316-.24.44-.393a1.264 1.264 0 00.271-.553c.029-.122.044-.261.046-.418a2.41 2.41 0 00-.06-.526 3.792 3.792 0 00-.238-.681 5.52 5.52 0 00-.38-.7 6.908 6.908 0 00-1.057-1.28 5.968 5.968 0 00-.608-.506 3.66 3.66 0 00-.618-.366l-.423.95c.157.07.317.163.48.282.164.118.324.254.483.407a6.2 6.2 0 01.456.493c.146.175.28.356.4.542.12.186.222.372.307.559.085.186.147.364.185.534.028.126.042.233.042.324 0 .125-.026.219-.078.282a1.082 1.082 0 01-.438.318c-.174.07-.33.11-.47.122a2.997 2.997 0 01-.72-.008 4.434 4.434 0 01-1.216-.33 3.171 3.171 0 01-.464-.243l-.428.98c.087.08.225.16.412.24a6.322 6.322 0 001.302.378c.228.04.425.06.592.06zm-6.918 3.74c.292-.142.58-.303.863-.482.284-.18.554-.375.81-.587.255-.212.491-.438.709-.678.217-.24.405-.492.563-.757.158-.264.282-.538.37-.821a2.927 2.927 0 00.097-1.35 7.46 7.46 0 00-.091-.487 14.85 14.85 0 00-.12-.5 71.51 71.51 0 01-.128-.504 7.76 7.76 0 00-.13-.478c-.05-.158-.098-.319-.146-.482l-.992.313a28.014 28.014 0 01.386 1.315c.042.15.08.299.115.448.035.15.064.296.086.438.023.143.034.279.034.407 0 .338-.082.665-.245.981-.164.317-.38.616-.65.898a5.97 5.97 0 01-.92.78c-.345.238-.7.448-1.065.628l.454.919zm-4.216-3.688c.049-.577.078-1.122.086-1.633a75.745 75.745 0 00-.002-2.854 47.688 47.688 0 00-.266-3.798l-1.023.156c.118 1.096.212 2.487.282 4.174.01.289.016.595.016.918 0 .268-.004.548-.01.84-.018.647-.055 1.36-.11 2.14l1.027.057zM55.186 23c.285 0 .55-.02.796-.057.245-.039.467-.105.665-.199.198-.094.373-.219.524-.375.152-.157.28-.353.384-.59.104-.24.156-.518.156-.835 0-.055-.001-.111-.005-.167a5.826 5.826 0 00-.271-1.335 6.775 6.775 0 00-.167-.483 10.546 10.546 0 00-.287-.673 1.284 1.284 0 01-.047-.107l-.929.46.454 1.116a3.393 3.393 0 01.235.89c.007.092.01.16.01.205 0 .084-.005.162-.015.235a1.012 1.012 0 01-.079.277.934.934 0 01-.26.341 1.096 1.096 0 01-.366.186c-.139.041-.294.067-.464.075-.17.009-.357.013-.558.013h-.605V23h.83zm.856 2.718l.85-.85-.855-.856-.85.85.855.856zm-3.778-7.398l.85-.85-.855-.856-.85.85.855.856zm-2.248 8.53c.438-.219.864-.476 1.278-.772a6.813 6.813 0 001.103-.978c.322-.357.58-.742.775-1.156.195-.414.292-.848.292-1.304v-.02c.087.093.179.166.274.218a1.265 1.265 0 00.535.157c.077.003.14.005.188.005h.089v-1.023h-.084a.936.936 0 01-.477-.125 1.41 1.41 0 01-.415-.394c-.132-.179-.261-.41-.386-.694a11.278 11.278 0 01-.386-1.03l-.981.303c.042.128.092.29.151.482.06.193.118.4.178.618.059.22.113.443.164.67.05.229.088.442.112.64a1.947 1.947 0 01-.057.704 2.707 2.707 0 01-.285.673 3.5 3.5 0 01-.467.619 6.03 6.03 0 01-.605.56c-.219.178-.452.344-.699.499-.247.155-.496.296-.746.425l.449.923zm-.616-3.803c.049-.577.077-1.122.086-1.633a75.745 75.745 0 00-.003-2.854 47.688 47.688 0 00-.266-3.798l-1.022.156c.118 1.096.212 2.487.282 4.174.01.289.015.595.015.918 0 .268-.003.548-.01.84-.018.647-.054 1.36-.11 2.14l1.028.057zm-6.068 3.689c.292-.143.58-.304.864-.483.283-.18.553-.375.808-.587.256-.212.493-.438.71-.678.217-.24.405-.492.563-.757.159-.264.282-.538.37-.821a2.927 2.927 0 00.097-1.35 7.46 7.46 0 00-.091-.487 14.85 14.85 0 00-.12-.5 71.51 71.51 0 01-.128-.504 7.76 7.76 0 00-.13-.478c-.049-.158-.098-.319-.146-.482l-.992.313a28.014 28.014 0 01.386 1.315c.042.15.08.299.115.448.035.15.064.296.086.438.023.143.034.279.034.407 0 .338-.081.665-.245.981-.163.317-.38.616-.65.898a5.97 5.97 0 01-.92.78c-.345.238-.7.448-1.065.628l.454.919zm-7.487 0c.292-.143.58-.304.864-.483.283-.18.553-.375.808-.587.256-.212.493-.438.71-.678.217-.24.405-.492.563-.757.159-.264.282-.538.37-.821a2.927 2.927 0 00.097-1.35 7.46 7.46 0 00-.09-.487 14.85 14.85 0 00-.12-.5 71.51 71.51 0 01-.129-.504 7.76 7.76 0 00-.13-.478c-.049-.158-.098-.319-.146-.482l-.992.313a28.014 28.014 0 01.387 1.315c.041.15.08.299.114.448.035.15.064.296.086.438.023.143.034.279.034.407 0 .338-.081.665-.245.981-.163.317-.38.616-.65.898a5.97 5.97 0 01-.92.78c-.345.238-.7.448-1.065.628l.454.919zm-.584-3.689c.049-.577.077-1.122.086-1.633.009-.511.013-.92.013-1.226l-.001-.388a94.83 94.83 0 00-.015-1.24 47.688 47.688 0 00-.266-3.798l-1.022.156c.118 1.096.212 2.487.281 4.174.01.289.016.595.016.918 0 .268-.003.548-.01.84-.018.647-.054 1.36-.11 2.14l1.028.057zm-5.238-.031c.121 0 .255-.006.401-.016a4.084 4.084 0 00.85-.154c.133-.04.248-.09.345-.149.365-.194.638-.439.817-.733.179-.294.268-.613.268-.957 0-.46-.16-.911-.48-1.357a2.196 2.196 0 00-.454-.438 5.995 5.995 0 00-.675-.433 14.21 14.21 0 00-.835-.428c-.3-.142-.613-.285-.937-.428l-1.815-.746-.496.94.412.161c-.208.101-.387.229-.537.384-.15.155-.274.321-.373.5a2.33 2.33 0 00-.29 1.109c0 .254.066.518.196.79.13.274.326.551.587.833a8.013 8.013 0 01-.663.063c-.128.006-.272.012-.43.015a25.41 25.41 0 01-.55.005h-.141V23h.14c.247 0 .503-.005.767-.016.265-.01.524-.027.778-.05.254-.022.496-.052.728-.09a4.98 4.98 0 00.623-.141c.296.118.587.2.874.245.287.045.584.068.89.068zm-1.816-1.43a3.548 3.548 0 01-.376-.284 2.2 2.2 0 01-.31-.329 1.559 1.559 0 01-.211-.373 1.126 1.126 0 01-.079-.417c0-.157.033-.32.1-.49a1.57 1.57 0 01.273-.46c.117-.136.241-.235.373-.297a.88.88 0 01.376-.094c.063 0 .127.007.193.02.15.032.27.088.363.17a.878.878 0 01.214.282c.05.106.083.217.099.334.015.116.023.227.023.331a1.794 1.794 0 01-.577 1.304c-.13.122-.284.223-.461.303zm1.716.428a2.682 2.682 0 01-.48-.037 3.13 3.13 0 00.36-.459c.108-.167.2-.336.274-.508.075-.173.133-.344.175-.514.042-.17.063-.329.063-.475 0-.104-.002-.216-.005-.334a1.514 1.514 0 00-.063-.376c.247.115.463.242.647.381.184.14.338.281.462.425.123.145.216.288.279.43a.993.993 0 01.094.397c0 .143-.032.28-.097.41a.894.894 0 01-.313.342 1.768 1.768 0 01-.56.232 3.49 3.49 0 01-.836.086zm-6.72-3.824l.85-.85-.855-.857-.85.85.855.857zM21.737 23c.512 0 .941-.053 1.29-.16.347-.105.63-.268.85-.487.15.191.34.347.573.467.233.12.526.18.877.18h.104v-1.023h-.104a.737.737 0 01-.436-.12.856.856 0 01-.266-.302 1.429 1.429 0 01-.138-.397 3.685 3.685 0 01-.057-.407 16.002 16.002 0 00-.094-.902 4.9 4.9 0 00-.152-.71l-.98.277c.076.264.129.499.159.704.03.205.044.407.044.605 0 .414-.132.726-.397.937-.264.21-.688.315-1.273.315h-.193V23h.193zm-6.234 0c.535 0 1.001-.14 1.398-.423.202-.139.348-.28.438-.422.65.455 1.324.727 2.02.814.058.007.116.01.171.01.359 0 .663-.165.913-.496.133.174.299.304.499.39.2.084.428.127.686.127h.125v-1.023h-.125a.702.702 0 01-.538-.24.804.804 0 01-.146-.255 1.006 1.006 0 01-.057-.308 4.39 4.39 0 00-.06-.569 3.057 3.057 0 00-.402-1.077 1.904 1.904 0 00-.352-.425 1.561 1.561 0 00-.462-.287 1.526 1.526 0 00-.576-.105c-.306 0-.568.081-.785.243-.218.162-.401.371-.55.629l-.04.065a2.81 2.81 0 00-.076.14l-.146.293c-.062.127-.148.296-.255.509a5.01 5.01 0 01-.381.63c-.376.502-.807.754-1.294.757h-.11V23h.105zm3.907-1.038c-.052 0-.11-.005-.172-.016a2.597 2.597 0 01-.576-.203c-.214-.101-.452-.24-.712-.418l.028-.057.068-.138.144-.293.25-.514c.212-.39.41-.584.595-.584.156 0 .292.044.407.13.115.088.21.2.284.337.075.137.132.291.172.462.04.17.064.339.07.506v.083c0 .094-.008.18-.025.256a.75.75 0 01-.11.25c-.09.133-.231.199-.423.199zM15.607 23v-1.023h-.104c-.22 0-.408-.022-.566-.067a.814.814 0 01-.358-.188.435.435 0 01-.138-.269 2.819 2.819 0 01-.018-.331v-2.62a36.414 36.414 0 00-.107-2.749 7.734 7.734 0 00-.081-.652l-1.023.188a6.5 6.5 0 01.081.628c.023.256.042.535.057.838.016.302.027.615.034.939.007.323.01.635.01.934.004.306.006.596.006.871v.203l-.005.538a158.551 158.551 0 00-.01.718v.148c0 .063.002.134.005.211a2.015 2.015 0 00.185.76c.06.132.148.255.263.37.188.188.417.327.686.417.27.09.596.136.979.136h.104z"/><circle cx="8" cy="8" r="8" fill="#FFF" transform="translate(155 12)"/></g></g></svg>