<svg xmlns="http://www.w3.org/2000/svg" xmlns:xlink="http://www.w3.org/1999/xlink" width="422" height="202" viewBox="0 0 422 202">
  <defs>
    <rect id="variation_2-a" width="422" height="202" x="0" y="0" rx="4"/>
    <rect id="variation_2-d" width="390" height="170" x="16" y="16" rx="4"/>
    <filter id="variation_2-c" width="113.3%" height="130.6%" x="-6.7%" y="-12.9%" filterUnits="objectBoundingBox">
      <feOffset dy="4" in="SourceAlpha" result="shadowOffsetOuter1"/>
      <feGaussianBlur in="shadowOffsetOuter1" result="shadowBlurOuter1" stdDeviation="8"/>
      <feColorMatrix in="shadowBlurOuter1" values="0 0 0 0 0   0 0 0 0 0   0 0 0 0 0  0 0 0 0.12 0"/>
    </filter>
    <filter id="variation_2-e" width="190%" height="160%" x="-45%" y="-30%" filterUnits="objectBoundingBox">
      <feOffset dy="1" in="SourceAlpha" result="shadowOffsetOuter1"/>
      <feGaussianBlur in="shadowOffsetOuter1" result="shadowBlurOuter1" stdDeviation=".9"/>
      <feColorMatrix in="shadowBlurOuter1" result="shadowMatrixOuter1" values="0 0 0 0 0   0 0 0 0 0   0 0 0 0 0  0 0 0 0.65 0"/>
      <feMerge>
        <feMergeNode in="shadowMatrixOuter1"/>
        <feMergeNode in="SourceGraphic"/>
      </feMerge>
    </filter>
    <style>
            @keyframes mouse_move {
	0% {
     transform: translate(170px, 140px);
 	}
     	10% {
     transform: translate(170px, 140px);
 	}
  	30% {
     transform: translate(206px, 110px);
 	}
     	70% {
     transform: translate(206px, 110px);
 	}
  100% {
     transform: translate(170px, 140px);
 	}
}
           @keyframes button_base {
	0% {
fill: #000000;
fill-opacity:0;
 	}
  	25% {
fill: #000000;
fill-opacity:0;
 	}
  	29% {
fill: #000000;
fill-opacity:.04;
 	}
  	36% {
fill: #000000;
fill-opacity:.04;
 	}
  	40% {
fill: #000000;
fill-opacity:.12;
 	}
  	44% {
fill: #000000;
fill-opacity:.04;
 	}
        	74% {
fill: #000000;
fill-opacity:.04;
 	}
     	78% {
fill: #000000;
fill-opacity:0;
 	}
  100% {
fill: #000000;
fill-opacity:0;
 	}
}
           @keyframes button_icon {
	0% {
fill: #000000;
fill-opacity:0.56;
 	}
  	25% {
fill: #000000;
fill-opacity:0.56;
 	}
  	29% {
fill: #000000;
fill-opacity:.87;
 	}
        	74% {
fill: #000000;
fill-opacity:.87;
 	}
     	78% {
fill: #000000;
fill-opacity:0.56;
 	}
  100% {
fill: #000000;
fill-opacity:0.56;
 	}
}
           @keyframes tooltip {
	0% {
transform:scale(.5) translate(178px, 43px);
opacity:0
 	}
  	42% {
transform:scale(0.5) translate(178px, 43px);
opacity:0
 	}
     	50% {
transform:scale(1) translate(178px, 33px);
opacity:1
 	}
       80% {
transform:scale(1) translate(178px, 33px);
opacity:1
 	}
     	86% {
transform:scale(0.8) translate(178px, 36px);
opacity:0
 	}
  100% {
transform:scale(0.5) translate(178px, 43px);
opacity:0
 	}
}
           @keyframes button_icon {
	0% {
fill: #000000;
fill-opacity:0.56;
 	}
  	25% {
fill: #000000;
fill-opacity:0.56;
 	}
  	29% {
fill: #000000;
fill-opacity:.87;
 	}
        	74% {
fill: #000000;
fill-opacity:.87;
 	}
     	78% {
fill: #000000;
fill-opacity:0.56;
 	}
  100% {
fill: #000000;
fill-opacity:0.56;
 	}
}
    </style>
  </defs>
  <g fill="none" fill-rule="evenodd">
    <mask id="variation_2-b" fill="#fff">
      <use xlink:href="#variation_2-a"/>
    </mask>
    <use fill="#000" fill-opacity="0" xlink:href="#variation_2-a"/>
    <g fill="#000" mask="url(#variation_2-b)">
      <use filter="url(#variation_2-c)" xlink:href="#variation_2-d"/>
    </g>
    <rect width="390" height="170" x="16" y="16" fill="#FFF" mask="url(#variation_2-b)" rx="4"/>
    <g mask="url(#variation_2-b)">
      <g transform="translate(191 81)">
        <circle cx="20" cy="20" r="19.5" style="animation:button_base 4000ms ease-out infinite"/>
        <path style="animation:button_icon 4000ms ease-out infinite"  d="M14,9.500375 C14,9.913625 13.664,10.250375 13.25,10.250375 L11.75,10.250375 L11.75,6.500375 C11.75,5.259875 10.7405,4.250375 9.5,4.250375 L5.75,4.250375 L5.75,2.749625 C5.75,2.336375 6.086,1.999625 6.5,1.999625 L13.25,1.999625 C13.664,1.999625 14,2.336375 14,2.749625 L14,9.500375 Z M10.25,13.250375 C10.25,13.663625 9.914,14.000375 9.5,14.000375 L2.75,14.000375 C2.336,14.000375 2,13.663625 2,13.250375 L2,6.500375 C2,6.087125 2.336,5.750375 2.75,5.750375 L9.5,5.750375 C9.914,5.750375 10.25,6.087125 10.25,6.500375 L10.25,13.250375 Z M13.25,0.499625 L6.5,0.499625 C5.2595,0.499625 4.25,1.509125 4.25,2.749625 L4.25,4.250375 L2.75,4.250375 C1.5095,4.250375 0.5,5.259875 0.5,6.500375 L0.5,13.250375 C0.5,14.490875 1.5095,15.500375 2.75,15.500375 L9.5,15.500375 C10.7405,15.500375 11.75,14.490875 11.75,13.250375 L11.75,11.750375 L13.25,11.750375 C14.4905,11.750375 15.5,10.740875 15.5,9.500375 L15.5,2.749625 C15.5,1.509125 14.4905,0.499625 13.25,0.499625 L13.25,0.499625 Z" transform="translate(12 12)"/>
      </g>
    </g>
    <g filter="url(#variation_2-e)" mask="url(#variation_2-b)" >
      <g   style="animation:mouse_move 4000ms linear infinite">
        <path fill="#FFF" fill-rule="nonzero" d="M8.92307692,15.0295982 C9.09845673,15.4505097 8.9299152,17.0446791 8,17.4142136 C7.0700848,17.783748 5.88196601,17.4142136 5.88196601,17.4142136 L3.72604853,13.1023786 L-2.36658272e-30,16.8284271 L-2.36658272e-30,7.10542736e-15 L11.4142136,11.4142136 L7.16151449,11.4142136 C7.37022472,11.8143972 8.7002619,14.4948421 8.92307692,15.0295982 Z"/>
        <path fill="#000" d="M1,2.41421356 L1,14.4142136 L4,11.4142136 L6.5,16.4142136 C6.5,16.4142136 7.17630686,16.630009 7.5,16.4142136 C7.82369314,16.1984181 8.14566022,15.7637981 8,15.4142136 C7.31232691,13.7637981 5.5,10.4142136 5.5,10.4142136 L9,10.4142136 L1,2.41421356 Z"/>
      </g>
    </g>
    <g mask="url(#variation_2-b)">
      <g style="animation:tooltip 4000ms cubic-bezier(0.0, 0.0, 0.2, 1) infinite; transform-origin:220px 100px" >
        <rect width="65" height="40" fill="#2D284D" fill-opacity=".87" rx="4"/>
        <path fill="#FFF" fill-rule="nonzero" d="M49.1565217,23 C49.3373913,23 49.4886957,22.9878261 49.6104348,22.9634783 C50.3478261,22.8278261 50.8713043,22.4852174 51.1808696,21.9356522 C51.253913,21.8034783 51.3173913,21.6573913 51.3713043,21.4973913 C51.4252174,21.3373913 51.4582609,21.193913 51.4704348,21.0669565 C51.4826087,20.94 51.4886957,20.84 51.4886957,20.7669565 C51.4886957,20.6417391 51.4782609,20.5095652 51.4573913,20.3704348 C51.426087,20.1582609 51.3634783,19.9321739 51.2695652,19.6921739 C51.1756522,19.4521739 51.0434783,19.1991304 50.8730435,18.9330435 C50.7026087,18.6669565 50.4852174,18.3878261 50.2208696,18.0956522 C50.0226087,17.8765217 49.8226087,17.6765217 49.6208696,17.4956522 C49.4191304,17.3147826 49.2330435,17.1513043 49.0626087,17.0052174 L49.0626087,17.0052174 L52.7982609,15.4347826 L52.3965217,14.4852174 L48.1078261,16.3217391 L47.9878261,17.3913043 C48.2730435,17.6208696 48.5530435,17.8678261 48.8278261,18.1321739 C49.1026087,18.3965217 49.3513043,18.6547826 49.573913,18.9069565 C49.7965217,19.1591304 49.9834783,19.3956522 50.1347826,19.6165217 C50.286087,19.8373913 50.3808696,20.0191304 50.4191304,20.1617391 C50.4678261,20.3495652 50.4921739,20.5252174 50.4921739,20.6886957 C50.4921739,20.733913 50.4904348,20.7791304 50.4869565,20.8243478 C50.466087,21.0295652 50.3982609,21.2208696 50.2834783,21.3982609 C50.186087,21.5443478 50.0521739,21.6565217 49.8817391,21.7347826 C49.7113043,21.8130435 49.5234783,21.8704348 49.3182609,21.9069565 C49.1130435,21.9434783 48.8973913,21.9643478 48.6713043,21.9695652 C48.4452174,21.9747826 48.2278261,21.9773913 48.0191304,21.9773913 L48.0191304,21.9773913 L47.3669565,21.9773913 L47.3669565,23 L49.1565217,23 Z M43.6991304,23 C44.026087,23 44.3104348,22.9869565 44.5521739,22.9608696 C44.793913,22.9347826 45.0052174,22.8947826 45.186087,22.8408696 C45.3669565,22.7869565 45.5234783,22.7191304 45.6556522,22.6373913 C45.7878261,22.5556522 45.9095652,22.4608696 46.0208696,22.3530435 C46.1704348,22.5443478 46.3617391,22.7 46.5947826,22.82 C46.8278261,22.94 47.12,23 47.4713043,23 L47.4713043,23 L47.5756522,23 L47.5756522,21.9773913 L47.4713043,21.9773913 C47.293913,21.9773913 47.1486957,21.9373913 47.0356522,21.8573913 C46.9226087,21.7773913 46.833913,21.6765217 46.7695652,21.5547826 C46.7052174,21.4330435 46.6591304,21.3008696 46.6313043,21.1582609 C46.6034783,21.0156522 46.5843478,20.88 46.573913,20.7513043 C46.56,20.5669565 46.5452174,20.4017391 46.5295652,20.2556522 C46.513913,20.1095652 46.4973913,19.973913 46.48,19.8486957 C46.4626087,19.7234783 46.4417391,19.6043478 46.4173913,19.4913043 C46.3930435,19.3782609 46.3634783,19.2608696 46.3286957,19.1391304 L46.3286957,19.1391304 L45.3478261,19.4156522 C45.4243478,19.68 45.4773913,19.9147826 45.5069565,20.12 C45.5365217,20.3252174 45.5513043,20.5269565 45.5513043,20.7252174 C45.5513043,20.933913 45.5165217,21.1165217 45.4469565,21.2730435 C45.3773913,21.4295652 45.2686957,21.56 45.1208696,21.6643478 C44.9730435,21.7686957 44.7817391,21.8469565 44.5469565,21.8991304 C44.3121739,21.9513043 44.0295652,21.9773913 43.6991304,21.9773913 L43.6991304,21.9773913 L42.9217391,21.9773913 L42.9217391,23 L43.6991304,23 Z M46.1408696,25.7182609 L46.9965217,24.8626087 L46.1513043,24.0173913 L45.2956522,24.8730435 L46.1408696,25.7182609 Z M43.8608696,25.7286957 L44.7165217,24.8730435 L43.8713043,24.0226087 L43.0156522,24.8782609 L43.8608696,25.7286957 Z M45.0243478,27.2208696 L45.8017391,26.4434783 L45.0295652,25.6713043 L44.2521739,26.4486957 L45.0243478,27.2208696 Z M38.4086957,26.4017391 C38.6382609,26.4017391 38.8956522,26.386087 39.1808696,26.3547826 C39.466087,26.3234783 39.753913,26.2713043 40.0443478,26.1982609 C40.3347826,26.1252174 40.6173913,26.0304348 40.8921739,25.913913 C41.1669565,25.7973913 41.4121739,25.653913 41.6278261,25.4834783 C41.8434783,25.3130435 42.0173913,25.1130435 42.1495652,24.8834783 C42.2817391,24.653913 42.3495652,24.3913043 42.3530435,24.0956522 C42.3530435,24.0226087 42.346087,23.9426087 42.3321739,23.8556522 C42.3182609,23.7686957 42.2904348,23.6782609 42.2486957,23.5843478 C42.2069565,23.4904348 42.1486957,23.393913 42.073913,23.2947826 C41.9991304,23.1956522 41.9026087,23.0973913 41.7843478,23 L41.7843478,23 L43.1304348,23 L43.1304348,21.9773913 L39.013913,21.9773913 L38.9356522,22.9947826 L39.0504348,23.0156522 C39.106087,23.026087 39.1773913,23.0408696 39.2643478,23.06 C39.3513043,23.0791304 39.4469565,23.1026087 39.5513043,23.1304348 C39.6556522,23.1582609 39.7678261,23.1895652 39.8878261,23.2243478 C40.0078261,23.2591304 40.1286957,23.2973913 40.2504348,23.3391304 C40.4486957,23.4121739 40.6156522,23.4852174 40.7513043,23.5582609 C40.8869565,23.6313043 40.9973913,23.7 41.0826087,23.7643478 C41.1678261,23.8286957 41.2295652,23.8895652 41.2678261,23.9469565 C41.306087,24.0043478 41.3252174,24.053913 41.3252174,24.0956522 C41.3252174,24.266087 41.2669565,24.4156522 41.1504348,24.5443478 C41.033913,24.6730435 40.8852174,24.7843478 40.7043478,24.8782609 C40.5234783,24.9721739 40.3208696,25.0513043 40.0965217,25.1156522 C39.8721739,25.18 39.6521739,25.2313043 39.4365217,25.2695652 C39.2208696,25.3078261 39.0208696,25.3347826 38.8365217,25.3504348 C38.6521739,25.366087 38.5095652,25.373913 38.4086957,25.373913 C38.2347826,25.373913 38.0356522,25.3704348 37.8113043,25.3634783 C37.5869565,25.3565217 37.3608696,25.3286957 37.1330435,25.28 C36.9052174,25.2313043 36.686087,25.1521739 36.4756522,25.0426087 C36.2652174,24.9330435 36.0886957,24.7756522 35.946087,24.5704348 C35.7269565,24.2365217 35.6173913,23.8017391 35.6173913,23.266087 C35.6173913,22.4208696 35.8904348,21.3269565 36.4365217,19.9843478 L36.4365217,19.9843478 L35.4817391,19.5982609 C34.9356522,20.92 34.64,22.053913 34.5947826,23 C34.5913043,23.0869565 34.5895652,23.1721739 34.5895652,23.2556522 C34.5895652,24.0173913 34.7582609,24.6452174 35.0956522,25.1391304 C35.2556522,25.4104348 35.4617391,25.6286957 35.713913,25.793913 C35.966087,25.9591304 36.2408696,26.0869565 36.5382609,26.1773913 C36.8356522,26.2678261 37.146087,26.3278261 37.4695652,26.3573913 C37.7930435,26.3869565 38.106087,26.4017391 38.4086957,26.4017391 Z M26.5965217,16.0608696 L27.3686957,15.2886957 L26.5913043,14.5113043 L25.8191304,15.2834783 L26.5965217,16.0608696 Z M25.4173913,17.7095652 L26.2626087,16.8591304 L25.4069565,16.0034783 L24.5617391,16.853913 L25.4173913,17.7095652 Z M27.7078261,17.7147826 L28.5530435,16.8695652 L27.6973913,16.013913 L26.8521739,16.8591304 L27.7078261,17.7147826 Z M27.8852174,23.0626087 C28.2086957,23.0626087 28.4921739,23.0173913 28.7356522,22.9269565 C28.986087,22.8365217 29.1947826,22.706087 29.3617391,22.5356522 C29.5286957,22.3652174 29.653913,22.1591304 29.7373913,21.9173913 C29.8208696,21.6756522 29.8626087,21.4052174 29.8626087,21.106087 C29.8626087,20.9078261 29.8443478,20.7043478 29.8078261,20.4956522 C29.7713043,20.2869565 29.7243478,20.0834783 29.6669565,19.8852174 C29.6095652,19.6869565 29.5478261,19.4965217 29.4817391,19.313913 C29.4156522,19.1313043 29.3513043,18.9678261 29.2886957,18.8234783 C29.226087,18.6791304 29.1704348,18.5573913 29.1217391,18.4582609 C29.1095652,18.4334783 29.0983696,18.4107065 29.0881522,18.3899457 L29.0226087,18.2573913 L28.1095652,18.7373913 C28.1652174,18.8486957 28.233913,18.9991304 28.3156522,19.1886957 C28.3973913,19.3782609 28.4756522,19.5834783 28.5504348,19.8043478 C28.6252174,20.0252174 28.6895652,20.2504348 28.7434783,20.48 C28.7973913,20.7095652 28.8243478,20.9234783 28.8243478,21.1217391 C28.8243478,21.2747826 28.8069565,21.4121739 28.7721739,21.533913 C28.7373913,21.6556522 28.6808696,21.7565217 28.6026087,21.8365217 C28.5243478,21.9165217 28.4356522,21.9695652 28.3365217,21.9956522 C28.2373913,22.0217391 28.1373913,22.0347826 28.0365217,22.0347826 C27.9773913,22.0347826 27.9147826,22.0313043 27.8486957,22.0243478 C27.7443478,22.013913 27.6565217,21.98 27.5852174,21.9226087 C27.513913,21.8652174 27.4565217,21.7921739 27.4130435,21.7034783 C27.3695652,21.6147826 27.3382609,21.5121739 27.3191304,21.3956522 C27.3,21.2791304 27.2904348,21.1565217 27.2904348,21.0278261 C27.2904348,20.8852174 27.3008696,20.7226087 27.3217391,20.54 C27.3426087,20.3573913 27.366087,20.1852174 27.3921739,20.0234783 C27.4182609,19.8617391 27.4417391,19.7234783 27.4626087,19.6086957 L27.4626087,19.6086957 L27.4886957,19.4417391 L26.4869565,19.2591304 C26.466087,19.4017391 26.4373913,19.5695652 26.4008696,19.7626087 C26.3643478,19.9556522 26.3173913,20.1547826 26.26,20.36 C26.2026087,20.5652174 26.1330435,20.7669565 26.0513043,20.9652174 C25.9695652,21.1634783 25.873913,21.3408696 25.7643478,21.4973913 C25.6547826,21.653913 25.5295652,21.7808696 25.3886957,21.8782609 C25.2478261,21.9756522 25.0886957,22.0243478 24.9113043,22.0243478 C24.8,22.0243478 24.7078261,22.0034783 24.6347826,21.9617391 C24.5617391,21.92 24.5043478,21.8643478 24.4626087,21.7947826 C24.4208696,21.7252174 24.3913043,21.646087 24.373913,21.5573913 C24.3565217,21.4686957 24.3478261,21.3773913 24.3478261,21.2834783 C24.3478261,21.1478261 24.3617391,21.0008696 24.3895652,20.8426087 C24.4173913,20.6843478 24.4504348,20.5295652 24.4886957,20.3782609 C24.5269565,20.2269565 24.566087,20.0852174 24.606087,19.9530435 C24.646087,19.8208696 24.68,19.7130435 24.7078261,19.6295652 L24.7078261,19.6295652 L23.6747826,19.4104348 C23.64,19.5808696 23.5982609,19.7617391 23.5495652,19.9530435 C23.5008696,20.1443478 23.4417391,20.3347826 23.3721739,20.5243478 C23.3026087,20.713913 23.2208696,20.8956522 23.1269565,21.0695652 C23.0330435,21.2434783 22.9226087,21.3973913 22.7956522,21.5313043 C22.6686957,21.6652174 22.5234783,21.7730435 22.36,21.8547826 C22.1965217,21.9365217 22.0121739,21.9773913 21.8069565,21.9773913 L21.8069565,21.9773913 L21.6921739,21.9773913 L21.6921739,23 L21.8017391,23 C22.0034783,23 22.1886957,22.9834783 22.3573913,22.9504348 C22.526087,22.9173913 22.68,22.8695652 22.8191304,22.8069565 C22.9582609,22.7443478 23.0869565,22.6686957 23.2052174,22.58 C23.3234783,22.4913043 23.4347826,22.3913043 23.5391304,22.28 C23.5947826,22.4086957 23.673913,22.5217391 23.7765217,22.6191304 C23.8791304,22.7165217 23.9930435,22.7982609 24.1182609,22.8643478 C24.2434783,22.9304348 24.3747826,22.98 24.5121739,23.0130435 C24.6495652,23.046087 24.7826087,23.0626087 24.9113043,23.0626087 C25.2069565,23.0626087 25.4869565,22.9913043 25.7513043,22.8486957 C26.0156522,22.706087 26.2521739,22.5130435 26.4608696,22.2695652 C26.533913,22.3808696 26.6226087,22.4843478 26.7269565,22.58 C26.8313043,22.6756522 26.9443478,22.7591304 27.066087,22.8304348 C27.1878261,22.9017391 27.3156522,22.9582609 27.4495652,23 C27.5834783,23.0417391 27.7165217,23.0626087 27.8486957,23.0626087 L27.8486957,23.0626087 L27.8852174,23.0626087 Z M21.9008696,23 L21.9008696,21.9773913 L21.7965217,21.9773913 C21.5878261,21.9773913 21.4156522,21.9504348 21.28,21.8965217 C21.1443478,21.8426087 21.0313043,21.7678261 20.9408696,21.6721739 C20.8504348,21.5765217 20.7730435,21.46 20.7086957,21.3226087 C20.6443478,21.1852174 20.5773913,21.0330435 20.5078261,20.866087 C20.3721739,20.5495652 20.2443478,20.246087 20.1243478,19.9556522 C20.0043478,19.6652174 19.8826087,19.3704348 19.7591304,19.0713043 C19.6356522,18.7721739 19.5052174,18.4556522 19.3678261,18.1217391 C19.2304348,17.7878261 19.0782609,17.4173913 18.9113043,17.0104348 L18.9113043,17.0104348 L17.9617391,17.4069565 L19.6104348,21.3721739 C19.5513043,21.4313043 19.4652174,21.5017391 19.3521739,21.5834783 C19.2391304,21.6652174 19.093913,21.7408696 18.9165217,21.8104348 C18.7286957,21.8834783 18.5695652,21.926087 18.4391304,21.9382609 C18.3086957,21.9504348 18.2104348,21.9565217 18.1443478,21.9565217 C18.0052174,21.9565217 17.866087,21.9408696 17.7269565,21.9095652 C17.5182609,21.8643478 17.3078261,21.7843478 17.0956522,21.6695652 C16.8834783,21.5547826 16.6730435,21.4 16.4643478,21.2052174 L16.4643478,21.2052174 L15.8747826,22.0347826 C16.1704348,22.3408696 16.4930435,22.5782609 16.8426087,22.7469565 C17.1921739,22.9156522 17.5721739,23 17.9826087,23 C18.2295652,23 18.4521739,22.9852174 18.6504348,22.9556522 C18.8486957,22.926087 19.0321739,22.8826087 19.2008696,22.8252174 C19.3695652,22.7678261 19.5278261,22.6956522 19.6756522,22.6086957 C19.8234783,22.5217391 19.9704348,22.4208696 20.1165217,22.306087 C20.1895652,22.4 20.2765217,22.4895652 20.3773913,22.5747826 C20.4782609,22.66 20.5956522,22.733913 20.7295652,22.7965217 C20.8634783,22.8591304 21.0182609,22.9086957 21.193913,22.9452174 C21.3695652,22.9817391 21.5704348,23 21.7965217,23 L21.7965217,23 L21.9008696,23 Z M14.1843478,20.5947826 L14.32,16.0452174 L14.32,14.4591304 L13.1147826,14.4591304 L13.1147826,16.0452174 L13.3130435,20.5947826 L14.1843478,20.5947826 Z M13.6782609,23.0417391 L14.5286957,22.1913043 L13.7147826,21.3773913 L12.8695652,22.2330435 L13.6782609,23.0417391 Z"/>
      </g>
    </g>
  </g>
</svg>
