<svg xmlns="http://www.w3.org/2000/svg" width="236" height="220"><g fill="none" fill-rule="evenodd"><path d="M0 0h236v220H0z"/><g stroke="#EA475B" stroke-linecap="round" stroke-width=".4"><path d="M37.5 84v2M48.5 84v2M37.5 85h11"/></g><path fill="#EA475B" fill-rule="nonzero" d="M41.462 82v-4.28h-.09l-1.665.612v.6l1.046-.357V82h.709zm4.35 0v-.568h-1.98l1.043-1.117c.273-.296.47-.562.59-.795.12-.233.18-.457.18-.67 0-.367-.12-.654-.358-.862-.24-.208-.566-.312-.98-.312-.287 0-.54.057-.76.173a1.22 1.22 0 00-.507.484 1.395 1.395 0 00-.178.702h.712c0-.244.064-.436.19-.577.128-.14.306-.21.537-.21.193 0 .347.062.461.187.114.125.172.289.172.492a.928.928 0 01-.13.461 3.538 3.538 0 01-.439.573l-1.42 1.55V82h2.867z"/><path d="M37 86h12v4H37zM33 90h4v8h-4z"/><g stroke="#EA475B" stroke-linecap="round" stroke-width=".4"><path d="M32 90.5v6.6M31 90.5h2M31 97.1h2"/></g><path fill="#EA475B" fill-rule="nonzero" d="M28.295 96.059c.422 0 .76-.11 1.014-.33.253-.22.38-.517.38-.892 0-.227-.06-.43-.18-.61a1.217 1.217 0 00-.514-.424c.186-.094.332-.222.44-.386a.992.992 0 00.16-.558c0-.363-.116-.651-.35-.864-.235-.213-.553-.32-.953-.32-.398 0-.715.107-.95.32-.234.213-.35.501-.35.864 0 .21.052.395.159.558.106.164.251.292.435.386a1.167 1.167 0 00-.51.419 1.084 1.084 0 00-.181.615c0 .373.127.67.382.89.255.221.594.332 1.018.332zm0-2.535a.56.56 0 01-.432-.172c-.107-.116-.16-.27-.16-.466 0-.198.053-.353.158-.468a.557.557 0 01.431-.17c.182 0 .326.06.434.18.107.12.16.272.16.458 0 .195-.053.35-.159.466a.56.56 0 01-.432.172zm0 1.966c-.215 0-.383-.062-.505-.187a.686.686 0 01-.184-.501c0-.213.062-.384.186-.513a.657.657 0 01.497-.193c.207 0 .374.065.5.195s.189.3.189.51c0 .218-.06.386-.18.508-.12.12-.288.181-.503.181z"/><path d="M33 122h4v8h-4z"/><g stroke="#EA475B" stroke-linecap="round" stroke-width=".4"><path d="M32 122.5v6.6M31 122.5h2M31 129.1h2"/></g><path fill="#EA475B" fill-rule="nonzero" d="M28.295 128.059c.422 0 .76-.11 1.014-.33.253-.22.38-.517.38-.892 0-.227-.06-.43-.18-.61a1.217 1.217 0 00-.514-.424c.186-.094.332-.222.44-.386a.992.992 0 00.16-.558c0-.363-.116-.651-.35-.864-.235-.213-.553-.32-.953-.32-.398 0-.715.107-.95.32-.234.213-.35.501-.35.864 0 .21.052.395.159.558.106.164.251.292.435.386a1.167 1.167 0 00-.51.419 1.084 1.084 0 00-.181.615c0 .373.127.67.382.89.255.221.594.332 1.018.332zm0-2.535a.56.56 0 01-.432-.172c-.107-.116-.16-.27-.16-.466 0-.198.053-.353.158-.468a.557.557 0 01.431-.17c.182 0 .326.06.434.18.107.12.16.272.16.458 0 .195-.053.35-.159.466a.56.56 0 01-.432.172zm0 1.966c-.215 0-.383-.062-.505-.187a.686.686 0 01-.184-.501c0-.213.062-.384.186-.513a.657.657 0 01.497-.193c.207 0 .374.065.5.195s.189.3.189.51c0 .218-.06.386-.18.508-.12.12-.288.181-.503.181z"/><g stroke="#EA475B" stroke-linecap="round" stroke-width=".4"><path d="M188.5 84v2M199.5 84v2M188.5 85h11"/></g><path fill="#EA475B" fill-rule="nonzero" d="M192.462 82v-4.28h-.09l-1.665.612v.6l1.046-.357V82h.709zm4.35 0v-.568h-1.98l1.043-1.117c.273-.296.47-.562.59-.795.12-.233.18-.457.18-.67 0-.367-.12-.654-.358-.862-.24-.208-.566-.312-.98-.312-.287 0-.54.057-.76.173a1.22 1.22 0 00-.507.484 1.395 1.395 0 00-.178.702h.712c0-.244.064-.436.19-.577.128-.14.306-.21.537-.21.193 0 .347.062.461.187.114.125.172.289.172.492a.928.928 0 01-.13.461 3.538 3.538 0 01-.439.573l-1.42 1.55V82h2.868z"/><path d="M188 86h12v4h-12z"/><g><path d="M200 90h8v40h-8z"/><g stroke="#EA475B" stroke-linecap="round" stroke-width=".4"><path d="M208 91h2M208 129h2M209 91v38"/></g><path fill="#EA475B" fill-rule="nonzero" d="M216.728 112v-.95h.53v-.57h-.53v-2.746h-.736l-1.84 2.883.02.434h1.844V112h.712zm-.712-1.52h-1.117l1.064-1.688.053-.094v1.781zm3.102 1.579c.469 0 .818-.156 1.048-.468.229-.311.344-.774.344-1.387v-.738c-.006-.596-.124-1.043-.353-1.342-.23-.299-.578-.448-1.045-.448-.47 0-.82.153-1.05.46-.23.306-.344.766-.344 1.38v.738c.006.596.125 1.045.359 1.349.233.304.58.456 1.041.456zm0-.569a.56.56 0 01-.524-.293c-.112-.195-.167-.492-.167-.89v-.967c.006-.375.063-.651.173-.828.109-.177.28-.265.512-.265.239 0 .412.093.522.28.11.186.164.48.164.88v.964c-.006.385-.064.668-.173.848-.11.18-.278.271-.507.271z"/></g><g transform="translate(83 168)"><circle cx="13" cy="13" r="13.2" stroke="#000000" stroke-opacity=".12" stroke-width=".4"/><path fill="#000000" fill-opacity=".12" d="M14 8a4 4 0 014 4v13.003A12.96 12.96 0 0113 26C5.82 26 0 20.18 0 13c0-1.772.354-3.46.996-5H14z"/><circle cx="14" cy="12" r="4" fill="#EA475B"/><path fill="#EA475B" fill-rule="nonzero" d="M31.91 15.059c.385 0 .687-.146.907-.437.22-.29.33-.683.33-1.175v-.04c0-.516-.11-.918-.332-1.205-.22-.287-.524-.43-.91-.43-.348 0-.625.12-.83.363V10.5h-.712V15h.645l.035-.343c.207.268.496.402.867.402zm-.179-.58c-.31 0-.529-.138-.656-.414V12.76c.125-.27.342-.405.65-.405.231 0 .407.086.528.258.121.172.182.43.182.774v.09c-.004.336-.067.587-.188.753a.6.6 0 01-.516.25zm3.355.58c.293 0 .551-.068.775-.203.223-.134.395-.325.515-.57.12-.247.18-.526.18-.839l-.002-.167c-.022-.455-.166-.82-.432-1.095-.267-.276-.614-.414-1.042-.414-.289 0-.545.067-.767.201a1.348 1.348 0 00-.52.574 1.87 1.87 0 00-.184.84v.035c0 .496.135.893.403 1.19.269.299.627.448 1.074.448zm0-.569a.657.657 0 01-.563-.277c-.134-.184-.202-.44-.202-.766 0-.367.069-.643.205-.827a.653.653 0 01.554-.277.66.66 0 01.561.281c.138.188.207.441.207.762 0 .361-.067.635-.201.823a.65.65 0 01-.561.281zm2.783.51v-2.168c.113-.25.333-.375.66-.375.099 0 .196.008.29.023l.002-.668a.666.666 0 00-.252-.04c-.304 0-.543.137-.715.413l-.017-.355h-.68V15h.712zm2.51.059c.356 0 .64-.13.853-.387l.036.328h.644v-4.5H41.2v1.623a1.035 1.035 0 00-.814-.352c-.381 0-.685.148-.911.444-.227.296-.34.688-.34 1.177 0 .513.115.92.344 1.218.23.3.53.449.9.449zm.183-.58a.604.604 0 01-.53-.271c-.123-.181-.185-.433-.185-.755 0-.367.062-.642.187-.825a.608.608 0 01.533-.274c.291 0 .502.127.633.381v1.354a.672.672 0 01-.638.39zm3.489.58c.263 0 .501-.053.713-.157.212-.105.382-.252.508-.441l-.383-.366a.964.964 0 01-.797.395.787.787 0 01-.579-.228c-.153-.153-.24-.36-.262-.621h2.071v-.287c0-.504-.117-.894-.353-1.17-.235-.275-.569-.413-1-.413-.272 0-.518.07-.739.208-.22.14-.392.333-.514.582a1.902 1.902 0 00-.183.848v.088c0 .473.14.851.42 1.135.28.285.647.427 1.098.427zm.568-1.94h-1.356c.033-.244.11-.434.23-.571a.6.6 0 01.473-.205c.197 0 .351.06.463.183.111.122.175.302.19.54v.053zM46.585 15v-2.168c.113-.25.333-.375.66-.375.099 0 .195.008.29.023l.002-.668a.666.666 0 00-.252-.04c-.305 0-.543.137-.715.413l-.017-.355h-.68V15h.712zm2.78-1.526v-.575h-1.538v.575h1.538zM50.663 15v-2.168c.113-.25.333-.375.66-.375.099 0 .196.008.29.023l.002-.668a.666.666 0 00-.252-.04c-.304 0-.543.137-.715.413l-.017-.355h-.68V15h.712zm2.379.059c.328 0 .605-.119.832-.355.023.137.05.235.082.296h.727v-.05c-.08-.17-.12-.397-.12-.682v-1.43c-.006-.338-.12-.6-.34-.787-.221-.186-.517-.28-.888-.28-.244 0-.465.043-.664.13a1.152 1.152 0 00-.47.355.79.79 0 00-.173.488h.712c0-.125.052-.228.156-.309a.627.627 0 01.398-.122c.187 0 .327.05.419.148.092.1.138.23.138.394v.208h-.437c-.467 0-.826.09-1.077.271-.25.181-.376.44-.376.778 0 .268.1.492.302.674.2.182.46.273.779.273zm.132-.572a.528.528 0 01-.365-.121.416.416 0 01-.136-.327c0-.168.066-.298.2-.39.132-.091.33-.137.594-.137h.384v.597a.685.685 0 01-.28.276.81.81 0 01-.397.102zm3.246.572c.355 0 .64-.13.852-.387l.036.328h.644v-4.5h-.712v1.623a1.035 1.035 0 00-.814-.352c-.381 0-.685.148-.911.444-.227.296-.34.688-.34 1.177 0 .513.115.92.344 1.218.23.3.53.449.9.449zm.182-.58a.604.604 0 01-.53-.271c-.123-.181-.185-.433-.185-.755 0-.367.062-.642.187-.825a.608.608 0 01.533-.274c.291 0 .502.127.633.381v1.354a.672.672 0 01-.638.39zm2.496-3.097c.129 0 .228-.036.298-.107a.366.366 0 00.106-.268c0-.11-.035-.2-.106-.273-.07-.072-.17-.108-.298-.108-.13 0-.228.036-.298.108a.378.378 0 00-.104.273c0 .107.035.197.104.268.07.071.169.107.298.107zM59.452 15v-3.17h-.712V15h.712zm1.805.059c.385 0 .681-.123.89-.37l.018.311h.67v-3.17h-.711v2.276c-.121.248-.354.373-.7.373-.334 0-.501-.202-.501-.604V11.83h-.712v2.054c0 .38.088.672.265.873.177.201.437.302.78.302zm3.498 0c.383 0 .692-.089.929-.266a.826.826 0 00.354-.692.78.78 0 00-.116-.434.931.931 0 00-.354-.306 2.635 2.635 0 00-.658-.22c-.28-.061-.465-.122-.556-.183a.289.289 0 01-.138-.255c0-.121.05-.218.148-.29a.63.63 0 01.382-.108c.168 0 .303.045.404.136.102.09.153.205.153.341h.712a.892.892 0 00-.35-.73c-.234-.187-.54-.28-.919-.28-.355 0-.648.091-.879.275a.844.844 0 00-.346.685c0 .327.178.576.534.747.162.079.364.143.606.194.242.05.416.11.52.176a.323.323 0 01.157.29.331.331 0 01-.147.28c-.097.07-.24.106-.427.106a.74.74 0 01-.466-.136.502.502 0 01-.19-.388h-.692c0 .19.057.366.17.53.113.164.271.293.475.387.203.094.434.14.694.14zm2.332-2.514c.133 0 .235-.037.308-.11a.378.378 0 00.108-.277.392.392 0 00-.108-.283c-.073-.075-.175-.112-.308-.112a.403.403 0 00-.305.112.392.392 0 00-.108.283c0 .113.037.206.111.279a.414.414 0 00.302.108zm0 2.487c.133 0 .235-.036.308-.11a.378.378 0 00.108-.276.392.392 0 00-.108-.283c-.073-.075-.175-.113-.308-.113a.403.403 0 00-.305.113.392.392 0 00-.108.283c0 .113.037.206.111.278a.414.414 0 00.302.108zM72.105 15v-.95h.53v-.57h-.53v-2.746h-.735l-1.84 2.883.02.434h1.844V15h.711zm-.711-1.52h-1.117l1.064-1.688.053-.094v1.781z"/></g><g><g stroke="#EA475B" stroke-linecap="round" stroke-width=".4"><path d="M37.5 141.274v2M199.5 141.274v2M37.5 142.274h162"/></g><path fill="#EA475B" fill-rule="nonzero" d="M94.42 150v-2.297c.12-.232.321-.349.607-.349.37 0 .561.187.57.56V150h.713l-.003-2.174a.688.688 0 01.215-.341.593.593 0 01.397-.13c.203 0 .349.046.437.14.088.094.131.241.131.443V150h.712v-2.083c-.004-.377-.09-.662-.262-.855-.17-.194-.431-.29-.78-.29-.419 0-.743.162-.973.486-.156-.324-.447-.487-.87-.487-.387 0-.692.13-.914.39l-.02-.33h-.672V150h.712zm5.49.059c.328 0 .606-.119.832-.355.024.137.051.235.082.296h.727v-.05c-.08-.17-.12-.397-.12-.682v-1.43c-.006-.338-.12-.6-.34-.787-.22-.186-.517-.28-.888-.28-.244 0-.465.043-.663.13a1.152 1.152 0 00-.47.355.79.79 0 00-.173.488h.712c0-.125.051-.228.155-.309a.627.627 0 01.398-.122c.188 0 .327.05.42.148.091.1.137.23.137.394v.208h-.437c-.466 0-.825.09-1.076.271-.251.181-.377.44-.377.778 0 .268.1.492.302.674.201.182.461.273.78.273zm.132-.572a.528.528 0 01-.365-.121.416.416 0 01-.136-.327c0-.168.067-.298.2-.39.132-.091.33-.137.594-.137h.384v.597a.685.685 0 01-.28.276.81.81 0 01-.397.102zm2.652.513l.63-1.084.632 1.084h.785l-1.002-1.608.97-1.562h-.79l-.604 1.043-.592-1.043h-.785l.966 1.562-1.001 1.608h.79zm3.881-1.526v-.575h-1.538v.575h1.538zm1.773 1.526l.668-2.177.68 2.177h.585l.865-3.17h-.695l-.504 2.189-.659-2.189h-.536l-.65 2.165-.513-2.165h-.694l.867 3.17h.586zm3.677-3.618c.128 0 .228-.036.298-.107a.366.366 0 00.106-.268c0-.11-.035-.2-.106-.273-.07-.072-.17-.108-.298-.108-.13 0-.228.036-.298.108a.378.378 0 00-.104.273c0 .107.035.197.104.268.07.071.169.107.298.107zm.354 3.618v-3.17h-.712V150h.712zm1.887.059c.355 0 .64-.13.852-.387l.035.328h.645v-4.5h-.712v1.623a1.035 1.035 0 00-.814-.352c-.381 0-.685.148-.911.444-.227.296-.34.688-.34 1.177 0 .513.114.92.344 1.218.23.3.53.449.9.449zm.181-.58a.604.604 0 01-.528-.271c-.124-.181-.186-.433-.186-.755 0-.367.062-.642.187-.825a.608.608 0 01.533-.274c.291 0 .502.127.633.381v1.354a.672.672 0 01-.639.39zm3.094.58c.15 0 .307-.023.469-.068v-.55c-.084.019-.167.029-.25.029-.122 0-.208-.027-.255-.08-.048-.055-.072-.142-.072-.263v-1.77h.56v-.527h-.56v-.77h-.712v.77h-.522v.527h.522v1.796c0 .604.273.906.82.906zm1.696-.059v-2.265a.686.686 0 01.64-.38c.183 0 .322.045.417.136.094.09.142.245.142.464V150h.712v-2.071c-.01-.772-.353-1.158-1.029-1.158-.355 0-.65.135-.882.405V145.5h-.711v4.5h.711zm3.06-2.455c.132 0 .234-.037.307-.11a.378.378 0 00.108-.277.392.392 0 00-.108-.283c-.073-.075-.175-.112-.308-.112a.403.403 0 00-.305.112.392.392 0 00-.108.283c0 .113.037.206.111.279a.414.414 0 00.302.108zm0 2.487c.132 0 .234-.036.307-.11a.378.378 0 00.108-.276.392.392 0 00-.108-.283c-.073-.075-.175-.113-.308-.113a.403.403 0 00-.305.113.392.392 0 00-.108.283c0 .113.037.206.111.278a.414.414 0 00.302.108zm4.537-.032v-4.28h-.09l-1.665.612v.6l1.046-.357V150h.71zm4.35 0v-.568h-1.98l1.043-1.117c.274-.296.47-.562.59-.795.12-.233.18-.457.18-.67 0-.367-.119-.654-.358-.862-.24-.208-.566-.312-.98-.312-.287 0-.54.057-.76.173a1.22 1.22 0 00-.507.484 1.395 1.395 0 00-.177.702h.711c0-.244.064-.436.19-.577.128-.14.307-.21.537-.21.193 0 .347.062.461.187.115.125.172.289.172.492a.928.928 0 01-.13.461 3.538 3.538 0 01-.439.573l-1.42 1.55V150h2.868zm1.299 0v-2.168c.113-.25.333-.375.659-.375.1 0 .196.008.29.023l.003-.668a.666.666 0 00-.252-.04c-.305 0-.543.137-.715.413l-.018-.355h-.68V150h.713zm2.795.059c.263 0 .501-.053.713-.157.212-.105.381-.252.508-.441l-.384-.366a.964.964 0 01-.796.395.787.787 0 01-.58-.228c-.152-.153-.24-.36-.261-.621h2.071v-.287c0-.504-.118-.894-.353-1.17-.235-.275-.569-.413-1-.413-.272 0-.518.07-.739.208-.22.14-.392.333-.514.582a1.902 1.902 0 00-.183.848v.088c0 .473.14.851.42 1.135.28.285.646.427 1.098.427zm.568-1.94h-1.357c.034-.244.11-.434.23-.571a.6.6 0 01.474-.205c.197 0 .351.06.462.183.112.122.175.302.19.54v.053zm1.966 1.881v-2.297c.119-.232.321-.349.606-.349.371 0 .562.187.571.56V150h.712l-.003-2.174a.688.688 0 01.216-.341.593.593 0 01.397-.13c.203 0 .348.046.436.14.088.094.132.241.132.443V150h.712v-2.083c-.004-.377-.091-.662-.262-.855-.171-.194-.431-.29-.781-.29-.418 0-.742.162-.973.486-.156-.324-.446-.487-.87-.487-.386 0-.691.13-.914.39l-.02-.33h-.671V150h.712z"/><path d="M37 130h163v8H37z"/></g><path stroke="#EA475B" stroke-width=".4" d="M48.8 90.2v39.6H41c-1.05 0-2-.425-2.687-1.113A3.788 3.788 0 0137.2 126h0V94c0-1.05.425-2 1.113-2.687A3.788 3.788 0 0141 90.2h7.8zM48.8 90.2h139.4v7.6H48.8zM48.8 122.2h139.4v7.6H48.8zM196 90.2c1.05 0 2 .425 2.687 1.113A3.788 3.788 0 01199.8 94h0v32c0 1.05-.425 2-1.113 2.687A3.788 3.788 0 01196 129.8h0-7.8V90.2z"/></g></svg>