<svg xmlns="http://www.w3.org/2000/svg" xmlns:xlink="http://www.w3.org/1999/xlink" width="860" height="314"><defs><rect id="a" width="860" height="314" x="0" y="0" rx="4"/></defs><g fill="none" fill-rule="evenodd"><mask id="b" fill="#fff"><use xlink:href="#a"/></mask><use fill="#000" fill-opacity="0" xlink:href="#a"/><g mask="url(#b)"><path fill="#000000" fill-opacity=".12" d="M256 64h1v186h-1z"/><path fill="#000000" fill-opacity=".56" fill-rule="nonzero" d="M110.95 219c.905 0 1.607-.219 2.103-.656.496-.438.744-1.04.744-1.805 0-.5-.134-.93-.401-1.292a1.979 1.979 0 00-1.093-.735c.39-.168.699-.406.926-.712.226-.307.34-.66.34-1.058 0-.75-.234-1.316-.7-1.699-.468-.383-1.164-.574-2.09-.574h-2.789V219h2.96zm-.136-4.893h-1.699v-2.712h1.664c.559 0 .975.106 1.248.319.274.213.41.554.41 1.022 0 .422-.147.756-.442 1.002-.295.246-.688.37-1.18.37zm.159 3.973h-1.858v-3.07h1.875c1.117 0 1.676.513 1.676 1.54 0 .477-.151.851-.454 1.123-.303.271-.716.407-1.24.407zm6.92 1.037c.57 0 1.075-.137 1.514-.41.44-.273.778-.655 1.014-1.145s.354-1.044.354-1.662v-.076c0-.992-.266-1.787-.8-2.385-.533-.597-1.23-.896-2.094-.896-.559 0-1.056.135-1.491.404-.436.27-.776.653-1.02 1.149s-.366 1.054-.366 1.675v.077c0 .984.267 1.775.8 2.373.533.597 1.23.896 2.089.896zm0-.885c-.547 0-.984-.212-1.31-.638-.326-.426-.49-.99-.49-1.694 0-.793.165-1.402.493-1.828.328-.426.76-.638 1.295-.638.547 0 .985.215 1.315.647.33.432.495.995.495 1.69 0 .778-.162 1.382-.486 1.814-.324.432-.762.647-1.312.647zm5.42.768v-9h-1.084v9h1.083zm3.96.117c.774 0 1.377-.265 1.811-.797l.053.68h.996v-9h-1.084v3.305c-.434-.508-1.022-.762-1.764-.762-.746 0-1.35.296-1.81.888-.461.591-.692 1.374-.692 2.346v.082c0 .97.232 1.754.695 2.356.462.601 1.061.902 1.795.902zm.27-.92c-.523 0-.934-.203-1.23-.61-.297-.405-.446-.968-.446-1.687 0-.804.149-1.412.445-1.822.297-.41.711-.615 1.243-.615.672 0 1.17.299 1.494.896v2.912c-.317.618-.819.926-1.506.926zM109.437 237v-5.502h1.354v-.838h-1.354v-.668c0-.383.096-.677.288-.882.191-.205.463-.307.814-.307.207 0 .402.017.586.052l.059-.878a2.845 2.845 0 00-.745-.1c-.664 0-1.177.185-1.54.557-.364.37-.545.896-.545 1.576v.65h-1.002v.838h1.002V237h1.083zm5.15.117c.571 0 1.076-.137 1.516-.41.439-.273.777-.655 1.013-1.145.237-.49.355-1.044.355-1.662v-.076c0-.992-.267-1.787-.8-2.385-.533-.597-1.232-.896-2.095-.896-.558 0-1.055.135-1.491.404-.436.27-.775.653-1.02 1.149-.244.496-.366 1.054-.366 1.675v.077c0 .984.267 1.775.8 2.373.533.597 1.23.896 2.089.896zm0-.885c-.546 0-.983-.212-1.309-.638-.326-.426-.489-.99-.489-1.694 0-.793.164-1.402.492-1.828.328-.426.76-.638 1.295-.638.547 0 .986.215 1.316.647.33.432.495.995.495 1.69 0 .778-.162 1.382-.487 1.814-.324.432-.761.647-1.312.647zm5.327.768v-4.518a1.91 1.91 0 01.621-.738c.266-.187.574-.281.926-.281.434 0 .753.11.958.328.205.219.31.557.313 1.014V237h1.084v-4.19c-.011-1.511-.687-2.267-2.027-2.267-.781 0-1.414.305-1.898.914l-.036-.797h-1.025V237h1.084zm7.389.117c.27 0 .547-.039.832-.117v-.879c-.219.047-.39.07-.516.07-.254 0-.433-.063-.539-.19-.105-.127-.158-.317-.158-.571v-3.932h1.183v-.838h-1.183v-1.535h-1.084v1.535h-1.154v.838h1.154v3.932c0 .539.123.955.369 1.248.246.293.611.44 1.096.44zm4.324-3.299v-.884h-2.86v.884h2.86zm3.205 3.182l1.5-4.805 1.541 4.805h.879l1.846-6.34h-1.084l-1.22 4.846-1.505-4.846h-.873l-1.477 4.746-1.248-4.746h-1.078l1.84 6.34h.879zm9.498.117c1.063 0 1.86-.408 2.39-1.224l-.661-.516c-.2.258-.432.465-.698.621-.265.156-.59.234-.972.234-.54 0-.984-.192-1.333-.577-.35-.384-.533-.89-.548-1.514h4.295v-.452c0-1.011-.229-1.789-.686-2.332-.457-.543-1.097-.814-1.922-.814-.504 0-.971.14-1.403.419-.432.28-.768.666-1.008 1.16-.24.494-.36 1.056-.36 1.685v.199c0 .945.27 1.7.808 2.265.54.564 1.239.846 2.098.846zm1.389-3.867h-3.176c.07-.574.254-1.02.55-1.339a1.446 1.446 0 011.102-.477c.453 0 .813.151 1.078.454.266.302.415.73.446 1.28v.082zm2.982-3.656c.211 0 .371-.059.48-.176a.62.62 0 00.165-.44.64.64 0 00-.164-.445c-.11-.12-.27-.181-.48-.181-.212 0-.37.06-.478.181a.647.647 0 00-.162.446c0 .175.054.322.162.439.107.117.266.176.477.176zm.533 7.406v-6.34h-1.084V237h1.084zm4.143 2.496c.82 0 1.474-.236 1.96-.709s.73-1.119.73-1.94v-6.187h-.99l-.054.703c-.433-.547-1.037-.82-1.81-.82-.754 0-1.36.292-1.817.876-.457.584-.685 1.37-.685 2.358 0 1.032.23 1.846.688 2.444.46.597 1.06.896 1.802.896.75 0 1.342-.25 1.776-.75v.545c0 .54-.148.957-.443 1.254-.295.297-.706.445-1.233.445-.672 0-1.24-.287-1.705-.861l-.563.65c.23.34.565.608 1.002.803a3.26 3.26 0 001.342.293zm.094-3.299c-.528 0-.938-.204-1.23-.612-.294-.408-.44-.97-.44-1.685 0-.804.148-1.412.445-1.822.297-.41.71-.615 1.236-.615.664 0 1.163.303 1.495.908v2.895c-.32.62-.823.931-1.506.931zm5.314.803v-4.518a1.91 1.91 0 01.621-.738c.266-.187.574-.281.926-.281.434 0 .753.11.958.328.205.219.31.557.314 1.014V237h1.083v-4.19c-.011-1.511-.687-2.267-2.027-2.267-.77 0-1.394.295-1.875.885V228h-1.084v9h1.084zm7.377.117c.27 0 .547-.039.832-.117v-.879c-.219.047-.39.07-.515.07-.254 0-.434-.063-.54-.19-.105-.127-.158-.317-.158-.571v-3.932h1.184v-.838h-1.184v-1.535h-1.084v1.535h-1.154v.838h1.154v3.932c0 .539.123.955.37 1.248.246.293.61.44 1.095.44zm2.707-5.226c.223 0 .392-.06.507-.182a.63.63 0 00.173-.451.665.665 0 00-.173-.469c-.115-.125-.284-.187-.507-.187-.223 0-.39.062-.5.187a.679.679 0 00-.168.469c0 .18.056.33.167.451.111.121.278.182.501.182zm-.006 5.173c.223 0 .392-.06.507-.181a.63.63 0 00.173-.451.665.665 0 00-.173-.47c-.115-.124-.284-.187-.507-.187-.222 0-.39.063-.5.188a.679.679 0 00-.168.469c0 .18.056.33.167.45.112.122.279.182.501.182zm7.108-.064l3.533-7.922v-.61h-5.766v.891h4.617L174.834 237h1.137zm7.43.117c.921 0 1.599-.308 2.033-.926.433-.617.65-1.56.65-2.83v-1.406c-.012-1.226-.234-2.134-.668-2.722-.434-.587-1.11-.881-2.027-.881-.926 0-1.606.304-2.04.914-.433.609-.65 1.54-.65 2.795v1.447c.016 1.199.242 2.1.68 2.704.437.603 1.111.905 2.021.905zm0-.885c-.544 0-.949-.22-1.216-.659-.268-.44-.402-1.12-.402-2.042v-1.734c.008-.867.139-1.51.393-1.928.254-.418.658-.627 1.213-.627.558 0 .966.21 1.224.63.258.42.387 1.089.387 2.007v1.775c-.012.89-.147 1.543-.407 1.957-.26.414-.657.621-1.193.621zm6.738.885c.922 0 1.6-.308 2.033-.926.433-.617.65-1.56.65-2.83v-1.406c-.011-1.226-.234-2.134-.668-2.722-.433-.587-1.11-.881-2.027-.881-.926 0-1.606.304-2.04.914-.433.609-.65 1.54-.65 2.795v1.447c.016 1.199.243 2.1.68 2.704.438.603 1.112.905 2.022.905zm0-.885c-.543 0-.949-.22-1.216-.659-.268-.44-.402-1.12-.402-2.042v-1.734c.008-.867.14-1.51.393-1.928.254-.418.658-.627 1.213-.627.559 0 .967.21 1.225.63.257.42.386 1.089.386 2.007v1.775c-.011.89-.147 1.543-.407 1.957-.26.414-.657.621-1.192.621z"/><path stroke="#000000" stroke-linejoin="round" stroke-opacity=".56" stroke-width=".2" d="M182.778 97.9c4.7 0 9.022 2.129 12.963 6.396 1.684 1.862 3.162 4.014 4.434 6.458a41.492 41.492 0 013.094 7.848 49.636 49.636 0 011.633 8.717 46.533 46.533 0 01-.05 9.067c-.362 3.655-1.171 7.069-2.426 10.242a40.045 40.045 0 01-4.802 8.795 42.229 42.229 0 01-6.756 7.325 50.129 50.129 0 01-8.264 5.753 56.728 56.728 0 01-9.325 4.133 59.4 59.4 0 01-9.15 2.327l-.933.152-2.317-9.784.99-.206c4.705-1.01 8.945-2.37 12.72-4.083 4.007-1.819 7.44-3.87 10.3-6.151 2.854-2.28 5.11-4.699 6.768-7.259 1.532-2.367 2.51-4.7 2.932-6.996l.073-.43h-5.49a57.695 57.695 0 01-4.87-.249c-7.178-.433-12.484-2.801-15.924-7.096-1.525-1.936-2.486-4.172-2.884-6.706a23.277 23.277 0 01-.347-3.994c0-1.263.14-2.867.42-4.811.282-1.946.934-4.158 1.958-6.636 1.024-2.478 2.23-4.614 3.62-6.412 1.687-2.099 3.517-3.69 5.486-4.772 1.974-1.086 4.023-1.628 6.147-1.628zm0 9.993c-.932 0-1.815.366-2.65 1.094-.849.739-1.607 1.683-2.276 2.833-.672 1.154-1.236 2.448-1.695 3.882a22.609 22.609 0 00-.934 4.232c-.099.759-.148 1.5-.148 2.225 0 .593.058 1.326.172 2.199.113.86.444 1.63.991 2.311a5.73 5.73 0 001.823 1.591c.735.411 1.518.74 2.35.986.835.247 1.653.428 2.455.544.803.115 1.5.19 2.09.222 1.645.1 3.19.15 4.734.15.383-.002 1.05-.01 2-.025a56.8 56.8 0 003.378-.167 37.808 37.808 0 00-.734-5.902 33.922 33.922 0 00-1.526-5.253c-.623-1.619-1.32-3.08-2.092-4.385-.77-1.303-1.565-2.434-2.385-3.39a37.61 37.61 0 00-1.103-1.061 10.22 10.22 0 00-1.32-1.034 7.51 7.51 0 00-1.487-.76 4.615 4.615 0 00-1.643-.292z"/><path stroke="#000000" stroke-linejoin="round" stroke-opacity=".56" stroke-width=".2" d="M182.96 98.91c2.462 0 4.692.54 6.688 1.623 1.993 1.079 3.779 2.515 5.356 4.309 1.575 1.79 2.943 3.854 4.104 6.192a46.49 46.49 0 012.88 7.302 51.978 51.978 0 011.69 7.623c.363 2.55.545 4.933.545 7.151 0 3.745-.505 7.274-1.516 10.587a37.853 37.853 0 01-4.199 9.219 38.472 38.472 0 01-6.41 7.702 48.397 48.397 0 01-8.196 6.11 52.724 52.724 0 01-9.484 4.419 59.168 59.168 0 01-9.406 2.46l-.963.161-1.88-7.822.98-.219c4.665-1.072 8.89-2.523 12.679-4.355 4.023-1.946 7.477-4.13 10.363-6.554 2.882-2.422 5.172-4.999 6.869-7.733 1.669-2.69 2.708-5.347 3.115-7.973-1.05.03-2.085.046-3.105.046-1.554 0-3.34-.041-5.357-.124a50.343 50.343 0 01-6.382-.695c-2.238-.381-4.277-.945-6.117-1.691-1.846-.749-3.434-1.763-4.765-3.044-1.332-1.282-2.364-2.855-3.097-4.72-.73-1.86-1.097-4.086-1.097-6.68.033-1.591.224-3.274.572-5.048a33.037 33.037 0 011.491-5.245 31.51 31.51 0 012.362-4.947c.93-1.578 2.01-2.957 3.239-4.136a15.586 15.586 0 014.09-2.843c1.5-.717 3.15-1.075 4.95-1.075zm0 7.981c-1.203 0-2.387.49-3.555 1.464-1.182.985-2.24 2.233-3.176 3.743a22.494 22.494 0 00-2.27 4.935c-.574 1.771-.862 3.444-.862 5.02.163 1.594.667 2.914 1.514 3.956.85 1.047 1.93 1.897 3.238 2.551 1.314.657 2.784 1.141 4.41 1.454 1.632.313 3.297.527 4.994.642 1.7.116 3.358.174 4.975.174h4.261l-.008-.552a32.477 32.477 0 00-.412-4.215 41.776 41.776 0 00-1.211-5.315 36.573 36.573 0 00-1.977-5.19c-.79-1.679-1.686-3.16-2.69-4.442-1-1.28-2.107-2.305-3.32-3.075a7.16 7.16 0 00-3.912-1.15z"/><path stroke="#000000" stroke-linejoin="round" stroke-opacity=".56" stroke-width=".2" d="M182.36 96.9c5.115 0 9.786 2.298 14.012 6.903 1.515 1.698 2.874 3.62 4.076 5.768a41.919 41.919 0 013.06 6.886 47.781 47.781 0 011.926 7.658 48.99 48.99 0 01.666 8.081c0 4.258-.535 8.241-1.605 11.95-1.07 3.71-2.567 7.128-4.492 10.256a41.369 41.369 0 01-6.887 8.458 50 50 0 01-8.784 6.61 57.477 57.477 0 01-10.213 4.762 65.3 65.3 0 01-10.28 2.717l-.96.165-3-12.637 1-.205c4.463-.939 8.516-2.161 12.159-3.668 3.883-1.607 7.25-3.404 10.102-5.391 2.848-1.985 5.164-4.102 6.948-6.352 1.746-2.203 2.92-4.406 3.518-6.609a118.787 118.787 0 01-7.658-.249 49.954 49.954 0 01-7.18-.972c-2.257-.483-4.332-1.166-6.227-2.049-1.9-.885-3.535-2.054-4.906-3.506-1.372-1.454-2.438-3.215-3.198-5.287-.759-2.067-1.139-4.534-1.139-7.402 0-1.831.198-3.746.593-5.744a35.082 35.082 0 011.704-5.866 31.132 31.132 0 012.742-5.444 22.905 22.905 0 013.76-4.55 17.2 17.2 0 014.706-3.13c1.588-.71 3.288-1.092 5.101-1.146l.456-.007h0zm0 12.994c-.836 0-1.735.361-2.699 1.076-.977.724-1.872 1.654-2.687 2.79a17.09 17.09 0 00-2.032 3.786c-.537 1.382-.806 2.73-.806 4.046 0 1.37.313 2.505.943 3.403a7.3 7.3 0 002.43 2.185c.993.56 2.116.98 3.37 1.26 1.26.28 2.513.488 3.757.62.683.033 1.438.066 2.259.099.82.033 1.665.058 2.534.075l2.586.05c.812.015 1.58.023 2.302.024-.103-1.193-.337-2.487-.702-3.882a35.57 35.57 0 00-1.449-4.344 36.541 36.541 0 00-2.013-4.195 23.741 23.741 0 00-2.428-3.57c-.864-1.037-1.751-1.869-2.664-2.495-.9-.617-1.8-.928-2.701-.928z"/><path fill="#000000" fill-opacity=".56" fill-rule="nonzero" d="M161.63 179a70.174 70.174 0 0011.111-2.682 59.827 59.827 0 0010.228-4.446 54.347 54.347 0 008.928-6.159 44.443 44.443 0 007.236-7.798 41.808 41.808 0 005.101-9.388c1.325-3.394 2.183-7.028 2.576-10.903.261-2.616.253-5.464-.025-8.543a54.362 54.362 0 00-1.668-9.264 51.771 51.771 0 00-3.31-8.94c-1.374-2.865-3.018-5.398-4.93-7.6-1.914-2.202-4.113-3.966-6.599-5.29-2.485-1.325-5.232-1.987-8.241-1.987-2.093 0-4.047.39-5.862 1.167a17.95 17.95 0 00-4.98 3.204 25.052 25.052 0 00-4.046 4.719 30.536 30.536 0 00-2.993 5.712 36.023 36.023 0 00-1.84 6.209 31.528 31.528 0 00-.637 6.209c0 3.179.523 5.993 1.57 8.444 1.046 2.45 2.526 4.528 4.44 6.233 1.913 1.706 4.194 3.047 6.843 4.024 2.649.977 5.592 1.597 8.83 1.862 1.013.067 2.305.125 3.875.174 1.57.05 3.058.075 4.464.075-.785 2.02-2.118 4.006-3.998 5.96-1.88 1.954-4.252 3.8-7.113 5.539-2.862 1.738-6.19 3.31-9.983 4.718s-7.996 2.575-12.607 3.502L161.63 179zm31.2-50.664h-3.042c-1.21 0-2.486-.042-3.827-.124a34.165 34.165 0 01-4.047-.497c-1.357-.249-2.575-.604-3.654-1.068-1.08-.464-1.962-1.068-2.65-1.813-.686-.745-1.03-1.68-1.03-2.806 0-1.16.254-2.368.76-3.626a16.263 16.263 0 011.89-3.453c.752-1.043 1.57-1.87 2.452-2.483.883-.613 1.668-.853 2.355-.72 1.373.265 2.616.894 3.728 1.887 1.112.994 2.11 2.235 2.992 3.725.883 1.49 1.66 3.18 2.33 5.067a57.739 57.739 0 011.742 5.91z"/><g fill="#000000"><path fill-opacity=".12" d="M438 64h1v186h-1z"/><path fill-opacity=".56" fill-rule="nonzero" d="M291.115 219v-3.322l-.111-3.569 2.795 6.891h.861l2.8-6.908-.105 3.586V219h1.125v-8.531h-1.459l-2.789 6.96-2.789-6.96h-1.453V219h1.125zm11.813.117c1.062 0 1.86-.408 2.39-1.224l-.662-.516c-.199.258-.431.465-.697.621-.266.156-.59.234-.973.234-.539 0-.983-.192-1.333-.577-.35-.384-.532-.89-.548-1.514h4.295v-.452c0-1.011-.228-1.789-.685-2.332-.457-.543-1.098-.814-1.922-.814-.504 0-.972.14-1.403.419-.432.28-.768.666-1.008 1.16-.24.494-.36 1.056-.36 1.685v.199c0 .945.269 1.7.808 2.265.54.564 1.238.846 2.098.846zm1.388-3.867h-3.175c.07-.574.254-1.02.55-1.339a1.446 1.446 0 011.102-.477c.453 0 .812.151 1.078.454.266.302.414.73.445 1.28v.082zm4.565 3.867c.773 0 1.377-.265 1.81-.797l.053.68h.996v-9h-1.084v3.305c-.433-.508-1.021-.762-1.763-.762-.747 0-1.35.296-1.811.888-.46.591-.691 1.374-.691 2.346v.082c0 .97.231 1.754.694 2.356.463.601 1.061.902 1.796.902zm.27-.92c-.524 0-.934-.203-1.231-.61-.297-.405-.445-.968-.445-1.687 0-.804.148-1.412.445-1.822.297-.41.71-.615 1.242-.615.672 0 1.17.299 1.494.896v2.912c-.316.618-.818.926-1.506.926zm4.915-6.603c.211 0 .372-.059.48-.176a.62.62 0 00.165-.44.64.64 0 00-.164-.445c-.11-.12-.27-.181-.48-.181-.212 0-.37.06-.478.181a.647.647 0 00-.161.446c0 .175.053.322.16.439.108.117.267.176.478.176zM314.6 219v-6.34h-1.084V219h1.084zm3.79.117c.817 0 1.436-.248 1.858-.744l.023.627h1.032v-6.34h-1.084v4.611c-.274.618-.824.926-1.653.926-.78 0-1.171-.48-1.171-1.441v-4.096h-1.084v4.125c.003.77.182 1.35.536 1.743.353.393.868.59 1.544.59zm5.637-.117v-4.629c.262-.605.748-.908 1.46-.908.902 0 1.353.46 1.353 1.383V219h1.09v-4.207c.043-.406.197-.73.463-.97.265-.24.6-.36 1.002-.36.488 0 .835.112 1.042.337.208.224.311.563.311 1.016V219h1.084v-4.248c-.023-1.473-.73-2.209-2.121-2.209-.461 0-.86.094-1.198.281a2.402 2.402 0 00-.824.738c-.32-.68-.923-1.019-1.81-1.019-.79 0-1.416.273-1.881.82l-.03-.703h-1.025V219h1.084zm-32.59 18v-5.502h1.354v-.838h-1.354v-.668c0-.383.096-.677.288-.882.191-.205.462-.307.814-.307.207 0 .402.017.586.052l.059-.878a2.845 2.845 0 00-.745-.1c-.664 0-1.177.185-1.54.557-.364.37-.545.896-.545 1.576v.65h-1.002v.838h1.002V237h1.084zm5.15.117c.571 0 1.076-.137 1.516-.41.439-.273.777-.655 1.013-1.145.237-.49.355-1.044.355-1.662v-.076c0-.992-.267-1.787-.8-2.385-.533-.597-1.232-.896-2.095-.896-.558 0-1.055.135-1.491.404-.436.27-.775.653-1.02 1.149-.244.496-.366 1.054-.366 1.675v.077c0 .984.267 1.775.8 2.373.533.597 1.23.896 2.089.896zm0-.885c-.546 0-.983-.212-1.309-.638-.326-.426-.489-.99-.489-1.694 0-.793.164-1.402.492-1.828.328-.426.76-.638 1.295-.638.547 0 .986.215 1.316.647.33.432.495.995.495 1.69 0 .778-.162 1.382-.487 1.814-.324.432-.761.647-1.312.647zm5.327.768v-4.518a1.91 1.91 0 01.621-.738c.266-.187.574-.281.926-.281.434 0 .753.11.958.328.205.219.31.557.313 1.014V237h1.084v-4.19c-.011-1.511-.687-2.267-2.027-2.267-.781 0-1.414.305-1.898.914l-.036-.797h-1.025V237h1.084zm7.389.117c.27 0 .547-.039.832-.117v-.879c-.219.047-.39.07-.516.07-.254 0-.433-.063-.539-.19-.105-.127-.158-.317-.158-.571v-3.932h1.183v-.838h-1.183v-1.535h-1.084v1.535h-1.154v.838h1.154v3.932c0 .539.123.955.369 1.248.246.293.611.44 1.096.44zm4.324-3.299v-.884h-2.86v.884h2.86zm3.205 3.182l1.5-4.805 1.541 4.805h.879l1.846-6.34h-1.084l-1.22 4.846-1.505-4.846h-.873l-1.477 4.746-1.248-4.746h-1.078l1.84 6.34h.879zm9.498.117c1.063 0 1.86-.408 2.39-1.224l-.661-.516c-.2.258-.432.465-.698.621-.265.156-.59.234-.972.234-.54 0-.984-.192-1.333-.577-.35-.384-.533-.89-.548-1.514h4.295v-.452c0-1.011-.229-1.789-.686-2.332-.457-.543-1.097-.814-1.922-.814-.504 0-.971.14-1.403.419-.432.28-.768.666-1.008 1.16-.24.494-.36 1.056-.36 1.685v.199c0 .945.27 1.7.808 2.265.54.564 1.239.846 2.098.846zm1.389-3.867h-3.176c.07-.574.254-1.02.55-1.339a1.446 1.446 0 011.102-.477c.453 0 .813.151 1.078.454.266.302.415.73.446 1.28v.082zm2.982-3.656c.211 0 .371-.059.48-.176a.62.62 0 00.165-.44.64.64 0 00-.164-.445c-.11-.12-.27-.181-.48-.181-.212 0-.37.06-.478.181a.647.647 0 00-.161.446c0 .175.053.322.16.439.108.117.267.176.478.176zm.533 7.406v-6.34h-1.084V237h1.084zm4.143 2.496c.82 0 1.474-.236 1.96-.709s.73-1.119.73-1.94v-6.187h-.99l-.054.703c-.433-.547-1.037-.82-1.81-.82-.754 0-1.36.292-1.817.876-.457.584-.685 1.37-.685 2.358 0 1.032.23 1.846.688 2.444.46.597 1.06.896 1.802.896.75 0 1.342-.25 1.776-.75v.545c0 .54-.148.957-.443 1.254-.295.297-.706.445-1.233.445-.672 0-1.24-.287-1.705-.861l-.563.65c.23.34.565.608 1.002.803a3.26 3.26 0 001.342.293zm.094-3.299c-.528 0-.938-.204-1.23-.612-.294-.408-.44-.97-.44-1.685 0-.804.148-1.412.445-1.822.297-.41.71-.615 1.236-.615.664 0 1.163.303 1.495.908v2.895c-.32.62-.823.931-1.506.931zm5.314.803v-4.518a1.91 1.91 0 01.621-.738c.266-.187.574-.281.926-.281.434 0 .753.11.958.328.205.219.31.557.314 1.014V237h1.083v-4.19c-.011-1.511-.687-2.267-2.027-2.267-.77 0-1.394.295-1.875.885V228h-1.084v9h1.084zm7.377.117c.27 0 .547-.039.832-.117v-.879c-.219.047-.39.07-.515.07-.254 0-.434-.063-.54-.19-.105-.127-.158-.317-.158-.571v-3.932h1.184v-.838h-1.184v-1.535h-1.084v1.535h-1.154v.838h1.154v3.932c0 .539.123.955.37 1.248.246.293.61.44 1.095.44zm2.707-5.226c.223 0 .392-.06.507-.182a.63.63 0 00.173-.451.665.665 0 00-.173-.469c-.115-.125-.284-.187-.507-.187-.223 0-.39.062-.5.187a.679.679 0 00-.168.469c0 .18.056.33.167.451.111.121.278.182.501.182zm-.006 5.173c.223 0 .392-.06.507-.181a.63.63 0 00.173-.451.665.665 0 00-.173-.47c-.115-.124-.284-.187-.507-.187-.222 0-.39.063-.5.188a.679.679 0 00-.168.469c0 .18.056.33.167.45.112.122.279.182.501.182zm7.987.053c.851 0 1.514-.253 1.989-.759.474-.505.712-1.198.712-2.077 0-.875-.229-1.57-.686-2.083-.457-.513-1.074-.77-1.851-.77-.532 0-1.006.123-1.424.369l.258-2.326h3.45v-1.002h-4.37l-.434 4.254.867.222.287-.234c.27-.207.641-.31 1.114-.31.515 0 .928.172 1.239.518.31.346.466.804.466 1.374 0 .605-.144 1.08-.43 1.424-.288.344-.683.515-1.187.515-.461 0-.832-.124-1.114-.372-.28-.248-.455-.616-.521-1.104h-1.026c.067.738.338 1.316.815 1.734.476.418 1.092.627 1.846.627zm6.55 0c.922 0 1.6-.308 2.034-.926.433-.617.65-1.56.65-2.83v-1.406c-.012-1.226-.234-2.134-.668-2.722-.434-.587-1.11-.881-2.027-.881-.926 0-1.606.304-2.04.914-.433.609-.65 1.54-.65 2.795v1.447c.016 1.199.242 2.1.68 2.704.437.603 1.111.905 2.021.905zm0-.885c-.543 0-.948-.22-1.215-.659-.268-.44-.402-1.12-.402-2.042v-1.734c.008-.867.139-1.51.393-1.928.254-.418.658-.627 1.213-.627.558 0 .966.21 1.224.63.258.42.387 1.089.387 2.007v1.775c-.012.89-.147 1.543-.407 1.957-.26.414-.657.621-1.193.621zm6.739.885c.922 0 1.6-.308 2.033-.926.433-.617.65-1.56.65-2.83v-1.406c-.011-1.226-.234-2.134-.668-2.722-.433-.587-1.11-.881-2.027-.881-.926 0-1.606.304-2.04.914-.433.609-.65 1.54-.65 2.795v1.447c.016 1.199.243 2.1.68 2.704.438.603 1.112.905 2.022.905zm0-.885c-.543 0-.949-.22-1.216-.659-.268-.44-.402-1.12-.402-2.042v-1.734c.008-.867.14-1.51.393-1.928.254-.418.658-.627 1.213-.627.559 0 .967.21 1.225.63.257.42.386 1.089.386 2.007v1.775c-.011.89-.147 1.543-.407 1.957-.26.414-.657.621-1.192.621z"/></g><path stroke="#000000" stroke-linejoin="round" stroke-opacity=".56" stroke-width=".2" d="M364.96 98.91c2.462 0 4.692.54 6.688 1.623 1.993 1.079 3.779 2.515 5.356 4.309 1.575 1.79 2.943 3.854 4.104 6.192a46.49 46.49 0 012.88 7.302 51.978 51.978 0 011.69 7.623c.363 2.55.545 4.933.545 7.151 0 3.745-.505 7.274-1.516 10.587a37.853 37.853 0 01-4.199 9.219 38.472 38.472 0 01-6.41 7.702 48.397 48.397 0 01-8.196 6.11 52.724 52.724 0 01-9.484 4.419 59.168 59.168 0 01-9.406 2.46l-.963.161-1.88-7.822.98-.219c4.665-1.072 8.89-2.523 12.679-4.355 4.023-1.946 7.477-4.13 10.363-6.554 2.882-2.422 5.172-4.999 6.869-7.733 1.669-2.69 2.708-5.347 3.115-7.973-1.05.03-2.085.046-3.105.046-1.554 0-3.34-.041-5.357-.124a50.343 50.343 0 01-6.382-.695c-2.238-.381-4.277-.945-6.117-1.691-1.846-.749-3.434-1.763-4.765-3.044-1.332-1.282-2.364-2.855-3.097-4.72-.73-1.86-1.097-4.086-1.097-6.68.033-1.591.224-3.274.572-5.048a33.037 33.037 0 011.491-5.245 31.51 31.51 0 012.362-4.947c.93-1.578 2.01-2.957 3.239-4.136a15.586 15.586 0 014.09-2.843c1.5-.717 3.15-1.075 4.95-1.075zm0 7.981c-1.203 0-2.387.49-3.555 1.464-1.182.985-2.24 2.233-3.176 3.743a22.494 22.494 0 00-2.27 4.935c-.574 1.771-.862 3.444-.862 5.02.163 1.594.667 2.914 1.514 3.956.85 1.047 1.93 1.897 3.238 2.551 1.314.657 2.784 1.141 4.41 1.454 1.632.313 3.297.527 4.994.642 1.7.116 3.358.174 4.975.174h4.261l-.008-.552a32.477 32.477 0 00-.412-4.215 41.776 41.776 0 00-1.211-5.315 36.573 36.573 0 00-1.977-5.19c-.79-1.679-1.686-3.16-2.69-4.442-1-1.28-2.107-2.305-3.32-3.075a7.16 7.16 0 00-3.912-1.15z"/><path stroke="#000000" stroke-linejoin="round" stroke-opacity=".56" stroke-width=".2" d="M364.778 97.9c4.7 0 9.022 2.129 12.963 6.396 1.684 1.862 3.162 4.014 4.434 6.458a41.492 41.492 0 013.094 7.848 49.636 49.636 0 011.633 8.717 46.533 46.533 0 01-.05 9.067c-.362 3.655-1.171 7.069-2.426 10.242a40.045 40.045 0 01-4.802 8.795 42.229 42.229 0 01-6.756 7.325 50.129 50.129 0 01-8.264 5.753 56.728 56.728 0 01-9.325 4.133 59.4 59.4 0 01-9.15 2.327l-.933.152-2.317-9.784.99-.206c4.705-1.01 8.945-2.37 12.72-4.083 4.007-1.819 7.44-3.87 10.3-6.151 2.854-2.28 5.11-4.699 6.768-7.259 1.532-2.367 2.51-4.7 2.932-6.996l.073-.43h-5.49a57.695 57.695 0 01-4.87-.249c-7.178-.433-12.484-2.801-15.924-7.096-1.525-1.936-2.486-4.172-2.884-6.706a23.277 23.277 0 01-.347-3.994c0-1.263.14-2.867.42-4.811.282-1.946.934-4.158 1.958-6.636 1.024-2.478 2.23-4.614 3.62-6.412 1.687-2.099 3.517-3.69 5.486-4.772 1.974-1.086 4.023-1.628 6.147-1.628zm0 9.993c-.932 0-1.815.366-2.65 1.094-.849.739-1.607 1.683-2.276 2.833-.672 1.154-1.236 2.448-1.695 3.882a22.609 22.609 0 00-.934 4.232c-.099.759-.148 1.5-.148 2.225 0 .593.058 1.326.172 2.199.113.86.444 1.63.991 2.311a5.73 5.73 0 001.823 1.591c.735.411 1.518.74 2.35.986.835.247 1.653.428 2.455.544.803.115 1.5.19 2.09.222 1.645.1 3.19.15 4.734.15.383-.002 1.05-.01 2-.025a56.8 56.8 0 003.378-.167 37.808 37.808 0 00-.734-5.902 33.922 33.922 0 00-1.526-5.253c-.623-1.619-1.32-3.08-2.092-4.385-.77-1.303-1.565-2.434-2.385-3.39a37.61 37.61 0 00-1.103-1.061 10.22 10.22 0 00-1.32-1.034 7.51 7.51 0 00-1.487-.76 4.615 4.615 0 00-1.643-.292z"/><path fill="#000000" fill-opacity=".56" fill-rule="nonzero" d="M344.955 177a65.272 65.272 0 0011.13-2.862 57.377 57.377 0 0010.196-4.755 49.9 49.9 0 008.766-6.596 41.27 41.27 0 006.87-8.438c1.921-3.12 3.415-6.53 4.482-10.23 1.067-3.7 1.601-7.675 1.601-11.923 0-2.721-.222-5.41-.665-8.065a47.681 47.681 0 00-1.92-7.641 41.82 41.82 0 00-3.054-6.87c-1.199-2.14-2.553-4.057-4.063-5.75-4.203-4.58-8.849-6.87-13.938-6.87-1.97 0-3.809.382-5.516 1.145a17.1 17.1 0 00-4.68 3.111 22.805 22.805 0 00-3.742 4.53 31.032 31.032 0 00-2.734 5.427 34.982 34.982 0 00-1.699 5.85c-.394 1.99-.59 3.899-.59 5.724 0 2.854.377 5.31 1.132 7.368.755 2.058 1.814 3.808 3.177 5.252 1.362 1.444 2.988 2.605 4.876 3.485 1.887.88 3.956 1.56 6.205 2.04 2.25.482 4.638.806 7.166.972 2.528.165 5.122.248 7.782.248-.591 2.257-1.782 4.514-3.571 6.77-1.79 2.258-4.112 4.382-6.969 6.373-2.857 1.991-6.23 3.792-10.121 5.401-3.89 1.61-8.25 2.896-13.076 3.858L344.955 177zm31.471-47.592c-.755 0-1.56-.008-2.413-.025l-2.586-.05c-.87-.016-1.715-.04-2.536-.074-.821-.033-1.576-.067-2.266-.1a33.623 33.623 0 01-3.767-.622c-1.264-.282-2.397-.705-3.399-1.27a7.399 7.399 0 01-2.462-2.215c-.64-.912-.96-2.066-.96-3.46 0-1.327.27-2.688.812-4.082a17.19 17.19 0 012.044-3.808c.82-1.145 1.724-2.083 2.709-2.813.985-.73 1.904-1.095 2.758-1.095.92 0 1.838.315 2.758.946.92.63 1.814 1.468 2.684 2.514a23.841 23.841 0 012.438 3.584 36.641 36.641 0 012.02 4.207 35.67 35.67 0 011.452 4.356c.378 1.443.616 2.78.714 4.007z"/><path stroke="#000000" stroke-linejoin="round" stroke-opacity=".56" stroke-width=".2" d="M364.037 95.9c3.026 0 5.789.666 8.288 1.999 2.496 1.33 4.705 3.1 6.627 5.312 1.918 2.209 3.567 4.75 4.944 7.622a51.87 51.87 0 013.318 8.958 54.462 54.462 0 011.67 9.28c.28 3.087.287 5.941.025 8.563-.393 3.884-1.254 7.527-2.582 10.93a41.908 41.908 0 01-5.113 9.41 44.543 44.543 0 01-7.252 7.815 54.447 54.447 0 01-8.945 6.17 59.927 59.927 0 01-10.245 4.454 70.18 70.18 0 01-10.175 2.53l-1.043.17-3.675-15.44 1.082-.222c4.223-.892 8.093-1.99 11.611-3.296 3.787-1.404 7.11-2.974 9.966-4.71 2.853-1.733 5.218-3.574 7.093-5.522 1.828-1.9 3.136-3.83 3.923-5.791a142.388 142.388 0 01-4.32-.075c-1.572-.05-2.864-.108-3.88-.174-3.248-.266-6.2-.889-8.857-1.868-2.661-.982-4.953-2.33-6.875-4.043-1.924-1.715-3.413-3.805-4.465-6.27-1.051-2.46-1.578-5.289-1.578-8.482 0-2.027.213-4.103.64-6.229a36.123 36.123 0 011.844-6.226 30.636 30.636 0 013.003-5.73 25.151 25.151 0 014.063-4.738 18.05 18.05 0 015.006-3.222c1.828-.783 3.795-1.175 5.902-1.175zm-.019 15.944c-.666-.129-1.425.112-2.279.704-.874.607-1.683 1.427-2.428 2.46a16.163 16.163 0 00-1.877 3.43c-.502 1.246-.753 2.442-.753 3.59 0 1.098.333 2.011 1.003 2.738.678.736 1.55 1.331 2.615 1.789 1.073.46 2.284.815 3.633 1.061 1.354.248 2.699.413 4.036.496 1.338.082 2.612.124 3.82.124h2.914l-.212-.855c-.436-1.699-.934-3.34-1.497-4.923-.668-1.88-1.442-3.564-2.322-5.049-.877-1.48-1.868-2.714-2.972-3.701-1.098-.981-2.325-1.603-3.681-1.864z"/><g fill="#000000"><path fill-opacity=".12" d="M620 64h1v186h-1z"/><path fill-opacity=".56" fill-rule="nonzero" d="M473.115 219v-3.451h2.004l1.852 3.451h1.207v-.07l-2.004-3.621c.512-.196.911-.49 1.198-.885.287-.395.43-.858.43-1.389 0-.836-.258-1.472-.776-1.91-.517-.438-1.256-.656-2.217-.656h-2.825V219h1.131zm1.729-4.371h-1.729v-3.234h1.723c.594.003 1.048.146 1.362.427.315.282.472.686.472 1.213 0 .485-.165.871-.495 1.16-.33.29-.775.434-1.333.434zm6.996 4.488c1.062 0 1.86-.408 2.39-1.224l-.662-.516c-.199.258-.431.465-.697.621-.266.156-.59.234-.973.234-.539 0-.983-.192-1.333-.577-.35-.384-.532-.89-.547-1.514h4.295v-.452c0-1.011-.229-1.789-.686-2.332-.457-.543-1.098-.814-1.922-.814-.504 0-.972.14-1.403.419-.432.28-.768.666-1.008 1.16-.24.494-.36 1.056-.36 1.685v.199c0 .945.27 1.7.808 2.265.54.564 1.238.846 2.098.846zm1.389-3.867h-3.176c.07-.574.254-1.02.55-1.339a1.446 1.446 0 011.102-.477c.453 0 .813.151 1.078.454.266.302.414.73.446 1.28v.082zm4.746 6.246c.82 0 1.473-.236 1.96-.709.486-.473.73-1.119.73-1.94v-6.187h-.991l-.053.703c-.434-.547-1.037-.82-1.81-.82-.754 0-1.36.292-1.817.876-.457.584-.685 1.37-.685 2.358 0 1.032.23 1.846.688 2.444.46.597 1.06.896 1.802.896.75 0 1.342-.25 1.775-.75v.545c0 .54-.147.957-.442 1.254-.295.297-.706.445-1.234.445-.671 0-1.24-.287-1.705-.861l-.562.65c.23.34.564.608 1.002.803a3.26 3.26 0 001.342.293zm.093-3.299c-.527 0-.937-.204-1.23-.612-.293-.408-.44-.97-.44-1.685 0-.804.149-1.412.446-1.822.297-.41.709-.615 1.236-.615.664 0 1.162.303 1.494.908v2.895c-.32.62-.822.931-1.506.931zm6.287.92c.817 0 1.436-.248 1.858-.744l.023.627h1.032v-6.34h-1.084v4.611c-.274.618-.825.926-1.653.926-.781 0-1.172-.48-1.172-1.441v-4.096h-1.084v4.125c.004.77.183 1.35.537 1.743.353.393.868.59 1.543.59zm5.737-.117v-9h-1.084v9h1.084zm3.691.117c.7 0 1.301-.262 1.805-.785.039.32.09.543.152.668h1.137v-.094c-.148-.344-.223-.806-.223-1.388V214.6c-.015-.641-.23-1.144-.644-1.51-.414-.364-.987-.547-1.717-.547-.461 0-.884.086-1.269.258a2.3 2.3 0 00-.914.7c-.224.295-.337.6-.337.917h1.09c0-.277.131-.514.393-.709.262-.195.586-.293.973-.293.44 0 .775.112 1.001.337.227.225.34.526.34.905v.498h-1.054c-.91 0-1.617.183-2.119.548-.501.365-.752.878-.752 1.538 0 .543.2.991.6 1.345.4.353.913.53 1.538.53zm.158-.943c-.355 0-.646-.096-.873-.287-.226-.192-.34-.457-.34-.797 0-.778.665-1.166 1.993-1.166h.85v1.3c-.137.282-.358.51-.663.686a1.905 1.905 0 01-.967.264zm5.496.826v-4.5c.254-.605.737-.908 1.448-.908.191 0 .369.013.533.04v-1.007c-.11-.055-.27-.082-.48-.082-.653 0-1.157.283-1.512.85l-.018-.733h-1.054V219h1.083zm-36 18v-5.502h1.354v-.838h-1.354v-.668c0-.383.096-.677.288-.882.191-.205.462-.307.814-.307.207 0 .402.017.586.052l.059-.878a2.845 2.845 0 00-.745-.1c-.664 0-1.177.185-1.54.557-.364.37-.545.896-.545 1.576v.65h-1.002v.838h1.002V237h1.083zm5.15.117c.571 0 1.076-.137 1.516-.41.439-.273.777-.655 1.013-1.145.237-.49.355-1.044.355-1.662v-.076c0-.992-.267-1.787-.8-2.385-.533-.597-1.232-.896-2.095-.896-.558 0-1.055.135-1.491.404-.436.27-.775.653-1.02 1.149-.244.496-.366 1.054-.366 1.675v.077c0 .984.267 1.775.8 2.373.533.597 1.23.896 2.089.896zm0-.885c-.546 0-.983-.212-1.309-.638-.326-.426-.489-.99-.489-1.694 0-.793.164-1.402.492-1.828.328-.426.76-.638 1.295-.638.547 0 .986.215 1.316.647.33.432.495.995.495 1.69 0 .778-.162 1.382-.487 1.814-.324.432-.761.647-1.312.647zm5.327.768v-4.518a1.91 1.91 0 01.621-.738c.266-.187.574-.281.926-.281.434 0 .753.11.958.328.205.219.31.557.313 1.014V237h1.084v-4.19c-.011-1.511-.687-2.267-2.027-2.267-.781 0-1.414.305-1.898.914l-.036-.797h-1.025V237h1.084zm7.389.117c.27 0 .547-.039.832-.117v-.879c-.219.047-.39.07-.516.07-.254 0-.433-.063-.539-.19-.105-.127-.158-.317-.158-.571v-3.932h1.183v-.838h-1.183v-1.535h-1.084v1.535h-1.154v.838h1.154v3.932c0 .539.123.955.369 1.248.246.293.611.44 1.096.44zm4.324-3.299v-.884h-2.86v.884h2.86zm3.205 3.182l1.5-4.805 1.541 4.805h.879l1.846-6.34h-1.084l-1.22 4.846-1.505-4.846h-.873l-1.477 4.746-1.248-4.746h-1.078l1.84 6.34h.879zm9.498.117c1.063 0 1.86-.408 2.39-1.224l-.661-.516c-.2.258-.432.465-.698.621-.265.156-.59.234-.972.234-.54 0-.984-.192-1.333-.577-.35-.384-.533-.89-.548-1.514h4.295v-.452c0-1.011-.229-1.789-.686-2.332-.457-.543-1.097-.814-1.922-.814-.504 0-.971.14-1.403.419-.432.28-.768.666-1.008 1.16-.24.494-.36 1.056-.36 1.685v.199c0 .945.27 1.7.808 2.265.54.564 1.239.846 2.098.846zm1.389-3.867h-3.176c.07-.574.254-1.02.55-1.339a1.446 1.446 0 011.102-.477c.453 0 .813.151 1.078.454.266.302.414.73.446 1.28v.082zm2.982-3.656c.211 0 .371-.059.48-.176a.62.62 0 00.165-.44.64.64 0 00-.164-.445c-.11-.12-.27-.181-.48-.181-.212 0-.37.06-.478.181a.647.647 0 00-.162.446c0 .175.054.322.162.439.107.117.266.176.477.176zm.533 7.406v-6.34h-1.084V237h1.084zm4.143 2.496c.82 0 1.474-.236 1.96-.709s.73-1.119.73-1.94v-6.187h-.99l-.054.703c-.433-.547-1.037-.82-1.81-.82-.754 0-1.36.292-1.817.876-.457.584-.685 1.37-.685 2.358 0 1.032.23 1.846.688 2.444.46.597 1.06.896 1.802.896.75 0 1.342-.25 1.776-.75v.545c0 .54-.148.957-.443 1.254-.295.297-.706.445-1.233.445-.672 0-1.24-.287-1.705-.861l-.563.65c.23.34.565.608 1.002.803a3.26 3.26 0 001.342.293zm.094-3.299c-.528 0-.938-.204-1.23-.612-.294-.408-.44-.97-.44-1.685 0-.804.148-1.412.445-1.822.297-.41.71-.615 1.236-.615.664 0 1.163.303 1.495.908v2.895c-.32.62-.823.931-1.506.931zm5.314.803v-4.518a1.91 1.91 0 01.621-.738c.266-.187.574-.281.926-.281.434 0 .753.11.958.328.205.219.31.557.314 1.014V237h1.083v-4.19c-.011-1.511-.687-2.267-2.027-2.267-.77 0-1.394.295-1.875.885V228h-1.084v9h1.084zm7.377.117c.27 0 .547-.039.832-.117v-.879c-.219.047-.39.07-.515.07-.254 0-.434-.063-.54-.19-.105-.127-.158-.317-.158-.571v-3.932h1.184v-.838h-1.184v-1.535h-1.084v1.535h-1.154v.838h1.154v3.932c0 .539.123.955.37 1.248.246.293.61.44 1.095.44zm2.707-5.226c.223 0 .392-.06.507-.182a.63.63 0 00.173-.451.665.665 0 00-.173-.469c-.115-.125-.284-.187-.507-.187-.223 0-.39.062-.5.187a.679.679 0 00-.168.469c0 .18.056.33.167.451.111.121.278.182.501.182zm-.006 5.173c.223 0 .392-.06.507-.181a.63.63 0 00.173-.451.665.665 0 00-.173-.47c-.115-.124-.284-.187-.507-.187-.222 0-.39.063-.5.188a.679.679 0 00-.168.469c0 .18.056.33.167.45.112.122.279.182.501.182zm9.71-.064v-1.98h1.183v-.885h-1.184v-5.666h-1.154l-3.82 5.912v.639h3.884V237h1.09zm-1.09-2.865h-2.655l2.526-3.95.128-.234v4.184zm5.917 2.982c.922 0 1.6-.308 2.034-.926.433-.617.65-1.56.65-2.83v-1.406c-.012-1.226-.234-2.134-.668-2.722-.434-.587-1.11-.881-2.027-.881-.926 0-1.606.304-2.04.914-.433.609-.65 1.54-.65 2.795v1.447c.016 1.199.242 2.1.68 2.704.437.603 1.111.905 2.021.905zm0-.885c-.543 0-.948-.22-1.215-.659-.268-.44-.402-1.12-.402-2.042v-1.734c.008-.867.139-1.51.393-1.928.254-.418.658-.627 1.213-.627.558 0 .966.21 1.224.63.258.42.387 1.089.387 2.007v1.775c-.012.89-.147 1.543-.407 1.957-.26.414-.657.621-1.193.621zm6.739.885c.922 0 1.6-.308 2.033-.926.433-.617.65-1.56.65-2.83v-1.406c-.011-1.226-.234-2.134-.668-2.722-.433-.587-1.11-.881-2.027-.881-.926 0-1.606.304-2.04.914-.433.609-.65 1.54-.65 2.795v1.447c.016 1.199.243 2.1.68 2.704.438.603 1.112.905 2.022.905zm0-.885c-.543 0-.949-.22-1.216-.659-.268-.44-.402-1.12-.402-2.042v-1.734c.008-.867.14-1.51.393-1.928.254-.418.658-.627 1.213-.627.559 0 .967.21 1.225.63.257.42.386 1.089.386 2.007v1.775c-.011.89-.147 1.543-.407 1.957-.26.414-.657.621-1.192.621z"/></g><g><path stroke="#000000" stroke-linejoin="round" stroke-opacity=".56" stroke-width=".2" d="M546.96 98.91c2.462 0 4.692.54 6.688 1.623 1.993 1.079 3.779 2.515 5.356 4.309 1.575 1.79 2.943 3.854 4.104 6.192a46.49 46.49 0 012.88 7.302 51.978 51.978 0 011.69 7.623c.363 2.55.545 4.933.545 7.151 0 3.745-.505 7.274-1.516 10.587a37.853 37.853 0 01-4.199 9.219 38.472 38.472 0 01-6.41 7.702 48.397 48.397 0 01-8.196 6.11 52.724 52.724 0 01-9.484 4.419 59.168 59.168 0 01-9.406 2.46l-.963.161-1.88-7.822.98-.219c4.665-1.072 8.89-2.523 12.679-4.355 4.023-1.946 7.477-4.13 10.363-6.554 2.882-2.422 5.172-4.999 6.869-7.733 1.669-2.69 2.708-5.347 3.115-7.973-1.05.03-2.085.046-3.105.046-1.554 0-3.34-.041-5.357-.124a50.343 50.343 0 01-6.382-.695c-2.238-.381-4.277-.945-6.117-1.691-1.846-.749-3.434-1.763-4.765-3.044-1.332-1.282-2.364-2.855-3.097-4.72-.73-1.86-1.097-4.086-1.097-6.68.033-1.591.224-3.274.572-5.048a33.037 33.037 0 011.491-5.245 31.51 31.51 0 012.362-4.947c.93-1.578 2.01-2.957 3.239-4.136a15.586 15.586 0 014.09-2.843c1.5-.717 3.15-1.075 4.95-1.075zm0 7.981c-1.203 0-2.387.49-3.555 1.464-1.182.985-2.24 2.233-3.176 3.743a22.494 22.494 0 00-2.27 4.935c-.574 1.771-.862 3.444-.862 5.02.163 1.594.667 2.914 1.514 3.956.85 1.047 1.93 1.897 3.238 2.551 1.314.657 2.784 1.141 4.41 1.454 1.632.313 3.297.527 4.994.642 1.7.116 3.358.174 4.975.174h4.261l-.008-.552a32.477 32.477 0 00-.412-4.215 41.776 41.776 0 00-1.211-5.315 36.573 36.573 0 00-1.977-5.19c-.79-1.679-1.686-3.16-2.69-4.442-1-1.28-2.107-2.305-3.32-3.075a7.16 7.16 0 00-3.912-1.15z"/><path fill="#000000" fill-opacity=".56" fill-rule="nonzero" d="M527.272 175c3.39-.53 6.716-1.35 9.975-2.46a56.628 56.628 0 009.309-4.127 50.03 50.03 0 008.246-5.741 42.13 42.13 0 006.741-7.307 39.946 39.946 0 004.79-8.774c1.251-3.165 2.058-6.57 2.42-10.215a46.331 46.331 0 00.05-9.047 49.535 49.535 0 00-1.63-8.7 41.392 41.392 0 00-3.087-7.829c-1.267-2.436-2.74-4.581-4.42-6.437C555.75 100.12 551.454 98 546.779 98c-2.107 0-4.14.539-6.099 1.616-1.959 1.077-3.778 2.659-5.457 4.747-1.382 1.79-2.584 3.919-3.605 6.387-1.02 2.47-1.67 4.673-1.95 6.612s-.42 3.538-.42 4.797c0 1.325.115 2.651.346 3.977.395 2.518 1.35 4.739 2.864 6.66 3.424 4.276 8.708 6.629 15.852 7.06 1.81.165 3.432.248 4.864.248h5.605c-.362 2.485-1.375 5.012-3.037 7.58-1.663 2.569-3.926 4.996-6.79 7.283-2.865 2.287-6.305 4.341-10.321 6.164-4.017 1.823-8.56 3.248-13.63 4.275l2.272 9.594zm26.472-44.739h-.151c-1.449 0-2.996-.05-4.642-.149a24.73 24.73 0 01-2.1-.223 17.448 17.448 0 01-2.468-.547c-.84-.249-1.63-.58-2.37-.994a5.823 5.823 0 01-1.853-1.616 4.67 4.67 0 01-1.012-2.361c-.115-.878-.173-1.616-.173-2.212 0-.73.05-1.475.148-2.237.165-1.392.478-2.809.939-4.25.46-1.442 1.029-2.743 1.703-3.902.675-1.16 1.44-2.113 2.297-2.859.856-.745 1.761-1.118 2.716-1.118.592 0 1.152.1 1.679.298a7.61 7.61 0 011.506.77c.477.315.922.663 1.333 1.044.412.382.782.738 1.111 1.07.823.96 1.622 2.095 2.395 3.404.774 1.31 1.474 2.776 2.1 4.4a34.022 34.022 0 011.53 5.269c.395 1.889.642 3.894.74 6.015-1.283.099-2.444.157-3.48.174-1.038.016-1.737.024-2.1.024h.152z"/><path stroke="#000000" stroke-linejoin="round" stroke-opacity=".56" stroke-width=".2" d="M546.36 96.9c5.115 0 9.786 2.298 14.012 6.903 1.515 1.698 2.874 3.62 4.076 5.768a41.919 41.919 0 013.06 6.886 47.781 47.781 0 011.926 7.658 48.99 48.99 0 01.666 8.081c0 4.258-.535 8.241-1.605 11.95-1.07 3.71-2.567 7.128-4.492 10.256a41.369 41.369 0 01-6.887 8.458 50 50 0 01-8.784 6.61 57.477 57.477 0 01-10.213 4.762 65.3 65.3 0 01-10.28 2.717l-.96.165-3-12.637 1-.205c4.463-.939 8.516-2.161 12.159-3.668 3.883-1.607 7.25-3.404 10.102-5.391 2.848-1.985 5.164-4.102 6.948-6.352 1.746-2.203 2.92-4.406 3.518-6.609a118.787 118.787 0 01-7.658-.249 49.954 49.954 0 01-7.18-.972c-2.257-.483-4.332-1.166-6.227-2.049-1.9-.885-3.535-2.054-4.906-3.506-1.372-1.454-2.438-3.215-3.198-5.287-.759-2.067-1.139-4.534-1.139-7.402 0-1.831.198-3.746.593-5.744a35.082 35.082 0 011.704-5.866 31.132 31.132 0 012.742-5.444 22.905 22.905 0 013.76-4.55 17.2 17.2 0 014.706-3.13c1.588-.71 3.288-1.092 5.101-1.146l.456-.007h0zm0 12.994c-.836 0-1.735.361-2.699 1.076-.977.724-1.872 1.654-2.687 2.79a17.09 17.09 0 00-2.032 3.786c-.537 1.382-.806 2.73-.806 4.046 0 1.37.313 2.505.943 3.403a7.3 7.3 0 002.43 2.185c.993.56 2.116.98 3.37 1.26 1.26.28 2.513.488 3.757.62.683.033 1.438.066 2.259.099.82.033 1.665.058 2.534.075l2.586.05c.812.015 1.58.023 2.302.024-.103-1.193-.337-2.487-.702-3.882a35.57 35.57 0 00-1.449-4.344 36.541 36.541 0 00-2.013-4.195 23.741 23.741 0 00-2.428-3.57c-.864-1.037-1.751-1.869-2.664-2.495-.9-.617-1.8-.928-2.701-.928z"/><path stroke="#000000" stroke-linejoin="round" stroke-opacity=".56" stroke-width=".2" d="M546.037 95.9c3.026 0 5.789.666 8.288 1.999 2.496 1.33 4.705 3.1 6.627 5.312 1.918 2.209 3.567 4.75 4.944 7.622a51.87 51.87 0 013.318 8.958 54.462 54.462 0 011.67 9.28c.28 3.087.287 5.941.025 8.563-.393 3.884-1.254 7.527-2.582 10.93a41.908 41.908 0 01-5.113 9.41 44.543 44.543 0 01-7.252 7.815 54.447 54.447 0 01-8.945 6.17 59.927 59.927 0 01-10.245 4.454 70.18 70.18 0 01-10.175 2.53l-1.043.17-3.675-15.44 1.082-.222c4.223-.892 8.093-1.99 11.611-3.296 3.787-1.404 7.11-2.974 9.966-4.71 2.853-1.733 5.218-3.574 7.093-5.522 1.828-1.9 3.136-3.83 3.923-5.791a142.388 142.388 0 01-4.32-.075c-1.572-.05-2.864-.108-3.88-.174-3.248-.266-6.2-.889-8.857-1.868-2.661-.982-4.953-2.33-6.875-4.043-1.924-1.715-3.413-3.805-4.465-6.27-1.051-2.46-1.578-5.289-1.578-8.482 0-2.027.213-4.103.64-6.229a36.123 36.123 0 011.844-6.226 30.636 30.636 0 013.003-5.73 25.151 25.151 0 014.063-4.738 18.05 18.05 0 015.006-3.222c1.828-.783 3.795-1.175 5.902-1.175zm-.019 15.944c-.666-.129-1.425.112-2.279.704-.874.607-1.683 1.427-2.428 2.46a16.163 16.163 0 00-1.877 3.43c-.502 1.246-.753 2.442-.753 3.59 0 1.098.333 2.011 1.003 2.738.678.736 1.55 1.331 2.615 1.789 1.073.46 2.284.815 3.633 1.061 1.354.248 2.699.413 4.036.496 1.338.082 2.612.124 3.82.124h2.914l-.212-.855c-.436-1.699-.934-3.34-1.497-4.923-.668-1.88-1.442-3.564-2.322-5.049-.877-1.48-1.868-2.714-2.972-3.701-1.098-.981-2.325-1.603-3.681-1.864z"/></g><path fill="#000000" fill-opacity=".56" fill-rule="nonzero" d="M659.164 219v-.92h-4.043v-7.611h-1.13V219h5.173zm1.758-7.406c.21 0 .371-.059.48-.176a.62.62 0 00.164-.44.64.64 0 00-.164-.445c-.109-.12-.27-.181-.48-.181-.211 0-.37.06-.478.181a.647.647 0 00-.16.446c0 .175.053.322.16.439.108.117.267.176.478.176zm.533 7.406v-6.34h-1.084V219h1.084zm4.143 2.496c.82 0 1.473-.236 1.96-.709.486-.473.73-1.119.73-1.94v-6.187h-.991l-.053.703c-.433-.547-1.037-.82-1.81-.82-.754 0-1.36.292-1.817.876-.457.584-.685 1.37-.685 2.358 0 1.032.23 1.846.688 2.444.46.597 1.06.896 1.802.896.75 0 1.342-.25 1.775-.75v.545c0 .54-.147.957-.442 1.254-.295.297-.706.445-1.234.445-.671 0-1.24-.287-1.705-.861l-.562.65c.23.34.564.608 1.002.803a3.26 3.26 0 001.342.293zm.093-3.299c-.527 0-.937-.204-1.23-.612-.293-.408-.44-.97-.44-1.685 0-.804.149-1.412.446-1.822.297-.41.709-.615 1.236-.615.664 0 1.162.303 1.494.908v2.895c-.32.62-.822.931-1.506.931zm5.315.803v-4.518a1.91 1.91 0 01.621-.738c.266-.187.574-.281.926-.281.433 0 .753.11.958.328.205.219.31.557.313 1.014V219h1.084v-4.19c-.012-1.511-.687-2.267-2.027-2.267-.77 0-1.395.295-1.875.885V210h-1.084v9h1.084zm7.377.117c.27 0 .547-.039.832-.117v-.879c-.219.047-.39.07-.516.07-.254 0-.433-.063-.539-.19-.105-.127-.158-.317-.158-.571v-3.932h1.184v-.838h-1.184v-1.535h-1.084v1.535h-1.154v.838h1.154v3.932c0 .539.123.955.37 1.248.245.293.61.44 1.095.44zM655.438 237v-5.502h1.353v-.838h-1.353v-.668c0-.383.095-.677.287-.882.191-.205.463-.307.814-.307.207 0 .402.017.586.052l.059-.878a2.845 2.845 0 00-.745-.1c-.664 0-1.177.185-1.54.557-.364.37-.545.896-.545 1.576v.65h-1.002v.838h1.002V237h1.084zm5.15.117c.57 0 1.075-.137 1.515-.41.439-.273.777-.655 1.013-1.145.237-.49.355-1.044.355-1.662v-.076c0-.992-.267-1.787-.8-2.385-.533-.597-1.232-.896-2.095-.896-.558 0-1.055.135-1.491.404-.436.27-.775.653-1.02 1.149-.244.496-.366 1.054-.366 1.675v.077c0 .984.267 1.775.8 2.373.533.597 1.23.896 2.089.896zm0-.885c-.547 0-.984-.212-1.31-.638-.326-.426-.489-.99-.489-1.694 0-.793.164-1.402.492-1.828.328-.426.76-.638 1.295-.638.547 0 .986.215 1.316.647.33.432.495.995.495 1.69 0 .778-.162 1.382-.487 1.814-.324.432-.761.647-1.312.647zm5.326.768v-4.518a1.91 1.91 0 01.621-.738c.266-.187.574-.281.926-.281.434 0 .753.11.958.328.205.219.31.557.313 1.014V237h1.084v-4.19c-.011-1.511-.687-2.267-2.027-2.267-.781 0-1.414.305-1.898.914l-.036-.797h-1.025V237h1.084zm7.389.117c.27 0 .547-.039.832-.117v-.879c-.219.047-.39.07-.516.07-.254 0-.433-.063-.539-.19-.105-.127-.158-.317-.158-.571v-3.932h1.183v-.838h-1.183v-1.535h-1.084v1.535h-1.154v.838h1.154v3.932c0 .539.123.955.369 1.248.246.293.611.44 1.096.44zm4.324-3.299v-.884h-2.86v.884h2.86zm3.205 3.182l1.5-4.805 1.541 4.805h.879l1.846-6.34h-1.084l-1.22 4.846-1.505-4.846h-.873l-1.477 4.746-1.248-4.746h-1.078l1.84 6.34h.879zm9.498.117c1.063 0 1.86-.408 2.39-1.224l-.661-.516c-.2.258-.432.465-.698.621-.265.156-.59.234-.972.234-.54 0-.984-.192-1.333-.577-.35-.384-.533-.89-.548-1.514h4.295v-.452c0-1.011-.229-1.789-.686-2.332-.457-.543-1.097-.814-1.922-.814-.504 0-.971.14-1.403.419-.432.28-.768.666-1.008 1.16-.24.494-.36 1.056-.36 1.685v.199c0 .945.27 1.7.808 2.265.54.564 1.239.846 2.098.846zm1.389-3.867h-3.176c.07-.574.254-1.02.55-1.339a1.446 1.446 0 011.102-.477c.453 0 .813.151 1.078.454.266.302.414.73.446 1.28v.082zm2.982-3.656c.211 0 .371-.059.48-.176a.62.62 0 00.165-.44.64.64 0 00-.164-.445c-.11-.12-.27-.181-.48-.181-.212 0-.37.06-.478.181a.647.647 0 00-.162.446c0 .175.054.322.162.439.107.117.266.176.477.176zm.533 7.406v-6.34h-1.084V237h1.084zm4.143 2.496c.82 0 1.474-.236 1.96-.709s.73-1.119.73-1.94v-6.187h-.99l-.054.703c-.433-.547-1.037-.82-1.81-.82-.754 0-1.36.292-1.817.876-.457.584-.685 1.37-.685 2.358 0 1.032.23 1.846.688 2.444.46.597 1.06.896 1.802.896.75 0 1.342-.25 1.776-.75v.545c0 .54-.148.957-.443 1.254-.295.297-.706.445-1.233.445-.672 0-1.24-.287-1.705-.861l-.563.65c.23.34.565.608 1.002.803a3.26 3.26 0 001.342.293zm.094-3.299c-.528 0-.938-.204-1.23-.612-.294-.408-.44-.97-.44-1.685 0-.804.148-1.412.445-1.822.297-.41.71-.615 1.236-.615.664 0 1.163.303 1.495.908v2.895c-.32.62-.823.931-1.506.931zm5.314.803v-4.518a1.91 1.91 0 01.621-.738c.266-.187.574-.281.926-.281.434 0 .753.11.958.328.205.219.31.557.314 1.014V237h1.083v-4.19c-.011-1.511-.687-2.267-2.027-2.267-.77 0-1.394.295-1.875.885V228h-1.084v9h1.084zm7.377.117c.27 0 .547-.039.832-.117v-.879c-.219.047-.39.07-.515.07-.254 0-.434-.063-.54-.19-.105-.127-.158-.317-.158-.571v-3.932h1.184v-.838h-1.184v-1.535h-1.084v1.535h-1.154v.838h1.154v3.932c0 .539.123.955.37 1.248.246.293.61.44 1.095.44zm2.707-5.226c.223 0 .392-.06.507-.182a.63.63 0 00.173-.451.665.665 0 00-.173-.469c-.115-.125-.284-.187-.507-.187-.223 0-.39.062-.5.187a.679.679 0 00-.168.469c0 .18.056.33.167.451.111.121.278.182.501.182zm-.006 5.173c.223 0 .392-.06.507-.181a.63.63 0 00.173-.451.665.665 0 00-.173-.47c-.115-.124-.284-.187-.507-.187-.222 0-.39.063-.5.188a.679.679 0 00-.168.469c0 .18.056.33.167.45.112.122.279.182.501.182zm7.682.053c.8 0 1.451-.224 1.951-.674.5-.449.75-1.056.75-1.822 0-.496-.128-.916-.384-1.26-.256-.343-.618-.59-1.087-.738.414-.172.742-.432.982-.78.24-.347.36-.706.36-1.077 0-.758-.228-1.35-.685-1.776-.457-.426-1.088-.638-1.893-.638-.762 0-1.39.223-1.884.67a2.176 2.176 0 00-.74 1.685h1.083c0-.441.14-.796.419-1.063.28-.268.653-.402 1.122-.402.996 0 1.494.5 1.494 1.5 0 .445-.146.799-.44 1.06-.292.262-.695.397-1.206.405h-.815v.885h.815c.574.008 1.013.144 1.318.41.305.266.457.646.457 1.143 0 .511-.139.904-.416 1.177-.277.274-.678.41-1.201.41-.492 0-.885-.134-1.178-.404-.293-.27-.44-.629-.44-1.078h-1.09c0 .71.252 1.283.754 1.717.502.433 1.153.65 1.954.65zm6.855 0c.922 0 1.6-.308 2.034-.926.433-.617.65-1.56.65-2.83v-1.406c-.012-1.226-.234-2.134-.668-2.722-.434-.587-1.11-.881-2.027-.881-.926 0-1.606.304-2.04.914-.433.609-.65 1.54-.65 2.795v1.447c.016 1.199.242 2.1.68 2.704.437.603 1.111.905 2.021.905zm0-.885c-.543 0-.948-.22-1.215-.659-.268-.44-.402-1.12-.402-2.042v-1.734c.008-.867.139-1.51.393-1.928.254-.418.658-.627 1.213-.627.558 0 .966.21 1.224.63.258.42.387 1.089.387 2.007v1.775c-.012.89-.147 1.543-.407 1.957-.26.414-.657.621-1.193.621zm6.739.885c.922 0 1.6-.308 2.033-.926.433-.617.65-1.56.65-2.83v-1.406c-.011-1.226-.234-2.134-.668-2.722-.433-.587-1.11-.881-2.027-.881-.926 0-1.606.304-2.04.914-.433.609-.65 1.54-.65 2.795v1.447c.016 1.199.243 2.1.68 2.704.438.603 1.112.905 2.022.905zm0-.885c-.543 0-.949-.22-1.216-.659-.268-.44-.402-1.12-.402-2.042v-1.734c.008-.867.14-1.51.393-1.928.254-.418.658-.627 1.213-.627.559 0 .967.21 1.225.63.257.42.386 1.089.386 2.007v1.775c-.011.89-.147 1.543-.407 1.957-.26.414-.657.621-1.192.621z"/><g><path fill="#000000" fill-opacity=".56" fill-rule="nonzero" d="M710.124 173.655a59.103 59.103 0 0010.26-2.602 52.624 52.624 0 009.467-4.412c2.974-1.768 5.7-3.8 8.179-6.096a38.372 38.372 0 006.393-7.683 37.753 37.753 0 004.189-9.194c1.008-3.305 1.511-6.824 1.511-10.558 0-2.213-.181-4.593-.545-7.137a51.879 51.879 0 00-1.685-7.608 46.39 46.39 0 00-2.875-7.286c-1.156-2.33-2.52-4.387-4.089-6.171-1.57-1.785-3.346-3.214-5.328-4.288-1.983-1.073-4.197-1.61-6.642-1.61-1.784 0-3.42.355-4.907 1.065a15.487 15.487 0 00-4.064 2.825c-1.223 1.173-2.297 2.545-3.222 4.114a31.411 31.411 0 00-2.354 4.932 32.937 32.937 0 00-1.487 5.23c-.347 1.767-.537 3.444-.57 5.03 0 2.577.363 4.791 1.09 6.642.727 1.85 1.752 3.412 3.073 4.684 1.322 1.272 2.9 2.28 4.734 3.023 1.834.744 3.866 1.305 6.096 1.685 2.23.38 4.354.612 6.37.694 2.015.083 3.8.124 5.352.124 1.058 0 2.132-.016 3.222-.05-.396 2.677-1.445 5.387-3.147 8.13-1.702 2.742-3.998 5.328-6.89 7.756-2.891 2.429-6.352 4.618-10.384 6.568-4.031 1.95-8.558 3.47-13.58 4.56l1.833 7.633zm32.466-42.725h-4.362c-1.62 0-3.28-.058-4.981-.174a41.446 41.446 0 01-5.007-.644c-1.635-.314-3.114-.802-4.436-1.462-1.321-.661-2.412-1.52-3.271-2.578-.86-1.057-1.371-2.395-1.536-4.015 0-1.586.289-3.27.867-5.055a22.594 22.594 0 012.28-4.957c.942-1.52 2.007-2.775 3.197-3.767 1.19-.991 2.396-1.487 3.618-1.487 1.421 0 2.743.389 3.965 1.165 1.223.777 2.338 1.81 3.346 3.098 1.008 1.289 1.908 2.776 2.701 4.46a36.673 36.673 0 011.983 5.205c.529 1.784.933 3.56 1.214 5.328.281 1.768.422 3.396.422 4.883z"/><path stroke="#000000" stroke-linejoin="round" stroke-opacity=".56" stroke-width=".2" d="M728.778 97.9c4.7 0 9.022 2.129 12.963 6.396 1.684 1.862 3.162 4.014 4.434 6.458a41.492 41.492 0 013.094 7.848 49.636 49.636 0 011.633 8.717 46.533 46.533 0 01-.05 9.067c-.362 3.655-1.171 7.069-2.426 10.242a40.045 40.045 0 01-4.802 8.795 42.229 42.229 0 01-6.756 7.325 50.129 50.129 0 01-8.264 5.753 56.728 56.728 0 01-9.325 4.133 59.4 59.4 0 01-9.15 2.327l-.933.152-2.317-9.784.99-.206c4.705-1.01 8.945-2.37 12.72-4.083 4.007-1.819 7.44-3.87 10.3-6.151 2.854-2.28 5.11-4.699 6.768-7.259 1.532-2.367 2.51-4.7 2.932-6.996l.073-.43h-5.49a57.695 57.695 0 01-4.87-.249c-7.178-.433-12.484-2.801-15.924-7.096-1.525-1.936-2.486-4.172-2.884-6.706a23.277 23.277 0 01-.347-3.994c0-1.263.14-2.867.42-4.811.282-1.946.934-4.158 1.958-6.636 1.024-2.478 2.23-4.614 3.62-6.412 1.687-2.099 3.517-3.69 5.486-4.772 1.974-1.086 4.023-1.628 6.147-1.628zm0 9.993c-.932 0-1.815.366-2.65 1.094-.849.739-1.607 1.683-2.276 2.833-.672 1.154-1.236 2.448-1.695 3.882a22.609 22.609 0 00-.934 4.232c-.099.759-.148 1.5-.148 2.225 0 .593.058 1.326.172 2.199.113.86.444 1.63.991 2.311a5.73 5.73 0 001.823 1.591c.735.411 1.518.74 2.35.986.835.247 1.653.428 2.455.544.803.115 1.5.19 2.09.222 1.645.1 3.19.15 4.734.15.383-.002 1.05-.01 2-.025a56.8 56.8 0 003.378-.167 37.808 37.808 0 00-.734-5.902 33.922 33.922 0 00-1.526-5.253c-.623-1.619-1.32-3.08-2.092-4.385-.77-1.303-1.565-2.434-2.385-3.39a37.61 37.61 0 00-1.103-1.061 10.22 10.22 0 00-1.32-1.034 7.51 7.51 0 00-1.487-.76 4.615 4.615 0 00-1.643-.292z"/><path stroke="#000000" stroke-linejoin="round" stroke-opacity=".56" stroke-width=".2" d="M728.36 96.9c5.115 0 9.786 2.298 14.012 6.903 1.515 1.698 2.874 3.62 4.076 5.768a41.919 41.919 0 013.06 6.886 47.781 47.781 0 011.926 7.658 48.99 48.99 0 01.666 8.081c0 4.258-.535 8.241-1.605 11.95-1.07 3.71-2.567 7.128-4.492 10.256a41.369 41.369 0 01-6.887 8.458 50 50 0 01-8.784 6.61 57.477 57.477 0 01-10.213 4.762 65.3 65.3 0 01-10.28 2.717l-.96.165-3-12.637 1-.205c4.463-.939 8.516-2.161 12.159-3.668 3.883-1.607 7.25-3.404 10.102-5.391 2.848-1.985 5.164-4.102 6.948-6.352 1.746-2.203 2.92-4.406 3.518-6.609a118.787 118.787 0 01-7.658-.249 49.954 49.954 0 01-7.18-.972c-2.257-.483-4.332-1.166-6.227-2.049-1.9-.885-3.535-2.054-4.906-3.506-1.372-1.454-2.438-3.215-3.198-5.287-.759-2.067-1.139-4.534-1.139-7.402 0-1.831.198-3.746.593-5.744a35.082 35.082 0 011.704-5.866 31.132 31.132 0 012.742-5.444 22.905 22.905 0 013.76-4.55 17.2 17.2 0 014.706-3.13c1.588-.71 3.288-1.092 5.101-1.146l.456-.007h0zm0 12.994c-.836 0-1.735.361-2.699 1.076-.977.724-1.872 1.654-2.687 2.79a17.09 17.09 0 00-2.032 3.786c-.537 1.382-.806 2.73-.806 4.046 0 1.37.313 2.505.943 3.403a7.3 7.3 0 002.43 2.185c.993.56 2.116.98 3.37 1.26 1.26.28 2.513.488 3.757.62.683.033 1.438.066 2.259.099.82.033 1.665.058 2.534.075l2.586.05c.812.015 1.58.023 2.302.024-.103-1.193-.337-2.487-.702-3.882a35.57 35.57 0 00-1.449-4.344 36.541 36.541 0 00-2.013-4.195 23.741 23.741 0 00-2.428-3.57c-.864-1.037-1.751-1.869-2.664-2.495-.9-.617-1.8-.928-2.701-.928z"/><path stroke="#000000" stroke-linejoin="round" stroke-opacity=".56" stroke-width=".2" d="M728.037 95.9c3.026 0 5.789.666 8.288 1.999 2.496 1.33 4.705 3.1 6.627 5.312 1.918 2.209 3.567 4.75 4.944 7.622a51.87 51.87 0 013.318 8.958 54.462 54.462 0 011.67 9.28c.28 3.087.287 5.941.025 8.563-.393 3.884-1.254 7.527-2.582 10.93a41.908 41.908 0 01-5.113 9.41 44.543 44.543 0 01-7.252 7.815 54.447 54.447 0 01-8.945 6.17 59.927 59.927 0 01-10.245 4.454 70.18 70.18 0 01-10.175 2.53l-1.043.17-3.675-15.44 1.082-.222c4.223-.892 8.093-1.99 11.611-3.296 3.787-1.404 7.11-2.974 9.966-4.71 2.853-1.733 5.218-3.574 7.093-5.522 1.828-1.9 3.136-3.83 3.923-5.791a142.388 142.388 0 01-4.32-.075c-1.572-.05-2.864-.108-3.88-.174-3.248-.266-6.2-.889-8.857-1.868-2.661-.982-4.953-2.33-6.875-4.043-1.924-1.715-3.413-3.805-4.465-6.27-1.051-2.46-1.578-5.289-1.578-8.482 0-2.027.213-4.103.64-6.229a36.123 36.123 0 011.844-6.226 30.636 30.636 0 013.003-5.73 25.151 25.151 0 014.063-4.738 18.05 18.05 0 015.006-3.222c1.828-.783 3.795-1.175 5.902-1.175zm-.019 15.944c-.666-.129-1.425.112-2.279.704-.874.607-1.683 1.427-2.428 2.46a16.163 16.163 0 00-1.877 3.43c-.502 1.246-.753 2.442-.753 3.59 0 1.098.333 2.011 1.003 2.738.678.736 1.55 1.331 2.615 1.789 1.073.46 2.284.815 3.633 1.061 1.354.248 2.699.413 4.036.496 1.338.082 2.612.124 3.82.124h2.914l-.212-.855c-.436-1.699-.934-3.34-1.497-4.923-.668-1.88-1.442-3.564-2.322-5.049-.877-1.48-1.868-2.714-2.972-3.701-1.098-.981-2.325-1.603-3.681-1.864z"/></g></g></g></svg>