<svg width="860" height="256" viewBox="0 0 860 256" fill="none" xmlns="http://www.w3.org/2000/svg">
<path d="M621 96H239C236.791 96 235 97.7909 235 100V156C235 158.209 236.791 160 239 160H621C623.209 160 625 158.209 625 156V100C625 97.7909 623.209 96 621 96Z" fill="black" fill-opacity="0.04"/>
<path fill-rule="evenodd" clip-rule="evenodd" d="M235 104H625V152H235V104Z" fill="black" fill-opacity="0.04"/>
<path fill-rule="evenodd" clip-rule="evenodd" d="M235 112H625V144H235V112Z" fill="black" fill-opacity="0.04"/>
<path d="M585.692 136.167C586.555 136.167 587.311 136.047 587.96 135.805C588.628 135.565 589.184 135.216 589.63 134.762C590.083 134.294 590.425 133.731 590.631 133.113C590.854 132.468 590.965 131.747 590.965 130.95C590.965 130.42 590.917 129.878 590.819 129.322C590.722 128.765 590.597 128.222 590.443 127.694C590.165 126.731 589.829 125.785 589.435 124.863C589.246 124.421 589.042 123.986 588.826 123.557L588.752 123.407L588.725 123.353L586.29 124.633C586.741 125.556 587.134 126.506 587.466 127.478C587.666 128.068 587.837 128.668 587.981 129.28C588.125 129.892 588.197 130.463 588.197 130.991C588.197 131.399 588.15 131.766 588.057 132.091C587.977 132.393 587.821 132.671 587.605 132.897C587.412 133.101 587.166 133.248 586.895 133.322C586.631 133.392 586.365 133.426 586.095 133.426C585.938 133.426 585.771 133.416 585.595 133.398C585.339 133.379 585.094 133.285 584.892 133.127C584.698 132.969 584.541 132.769 584.433 132.543C584.317 132.306 584.233 132.033 584.183 131.722C584.131 131.398 584.105 131.07 584.106 130.741C584.106 130.361 584.134 129.927 584.19 129.44C584.245 128.953 584.308 128.494 584.377 128.063C584.447 127.631 584.51 127.263 584.565 126.957L584.635 126.511L581.963 126.024C581.908 126.404 581.831 126.852 581.733 127.367C581.631 127.903 581.506 128.435 581.358 128.96C581.205 129.509 581.019 130.047 580.802 130.574C580.6 131.074 580.343 131.55 580.037 131.993C579.766 132.389 579.427 132.733 579.035 133.009C578.659 133.269 578.235 133.399 577.762 133.399C577.465 133.399 577.219 133.343 577.024 133.231C576.835 133.125 576.677 132.972 576.565 132.786C576.45 132.59 576.37 132.376 576.329 132.153C576.282 131.913 576.259 131.668 576.259 131.423C576.259 131.061 576.296 130.669 576.37 130.247C576.445 129.825 576.533 129.412 576.635 129.009C576.737 128.605 576.841 128.227 576.948 127.875C577.054 127.522 577.145 127.235 577.219 127.012L574.464 126.428C574.372 126.882 574.26 127.365 574.13 127.875C574 128.385 573.843 128.893 573.657 129.398C573.472 129.904 573.254 130.388 573.003 130.852C572.753 131.316 572.459 131.726 572.12 132.083C571.786 132.437 571.393 132.729 570.958 132.946C570.499 133.169 569.993 133.281 569.483 133.273H569.177V136H569.47C570.008 136 570.501 135.956 570.951 135.868C571.77 135.717 572.544 135.379 573.211 134.88C573.531 134.64 573.829 134.372 574.103 134.08C574.251 134.423 574.462 134.725 574.736 134.984C575.009 135.244 575.313 135.462 575.647 135.638C575.981 135.814 576.331 135.947 576.697 136.035C577.064 136.123 577.419 136.167 577.762 136.167C578.545 136.169 579.315 135.973 580.002 135.597C580.723 135.204 581.364 134.68 581.894 134.052C582.089 134.349 582.325 134.625 582.604 134.88C582.882 135.135 583.184 135.358 583.508 135.548C583.832 135.738 584.173 135.888 584.53 136C584.888 136.111 585.242 136.167 585.595 136.167H585.692V136.167ZM563.793 123.172L566.061 120.904L563.779 118.623L561.511 120.89L563.793 123.172ZM559.883 136C561.247 136 562.393 135.859 563.32 135.576C564.248 135.293 565.003 134.859 565.588 134.275C565.987 134.785 566.497 135.2 567.118 135.52C567.74 135.84 568.518 136 569.456 136H569.734V133.273H569.456C568.983 133.273 568.596 133.166 568.294 132.953C567.996 132.744 567.753 132.468 567.584 132.146C567.41 131.814 567.286 131.458 567.216 131.089C567.145 130.73 567.094 130.368 567.063 130.003C567.03 129.562 566.99 129.122 566.944 128.682C566.903 128.292 566.859 127.93 566.812 127.597C566.725 126.957 566.59 126.324 566.409 125.704L563.793 126.442C563.997 127.147 564.139 127.772 564.217 128.32C564.297 128.867 564.336 129.405 564.336 129.934C564.336 131.038 563.983 131.87 563.278 132.431C562.573 132.992 561.442 133.273 559.883 133.273H559.369V136H559.883ZM562.958 114.657C563.394 114.657 563.768 114.581 564.078 114.427C564.389 114.275 564.623 114.041 564.781 113.725C565.013 114.022 565.271 114.217 565.553 114.31C565.836 114.402 566.084 114.449 566.297 114.449C566.483 114.449 566.677 114.421 566.882 114.365C567.086 114.31 567.282 114.217 567.473 114.087C567.663 113.957 567.837 113.786 567.995 113.572C568.167 113.33 568.299 113.063 568.385 112.779C568.44 112.594 568.468 112.403 568.468 112.209C568.467 112.055 568.453 111.901 568.426 111.749C568.354 111.387 568.247 111.033 568.106 110.692C567.981 110.386 567.832 110.091 567.661 109.809C567.557 109.638 567.45 109.469 567.341 109.301L566.353 109.983C566.483 110.131 566.608 110.314 566.729 110.533C566.85 110.751 566.952 110.978 567.035 111.213C567.118 111.45 567.174 111.659 567.202 111.84C567.23 112.02 567.243 112.162 567.243 112.264C567.243 112.376 567.234 112.478 567.216 112.57C567.174 112.757 567.077 112.926 566.937 113.057C566.798 113.187 566.603 113.261 566.353 113.28C566.253 113.277 566.155 113.258 566.061 113.224C565.95 113.187 565.838 113.088 565.727 112.925C565.616 112.763 565.511 112.515 565.414 112.181C565.317 111.847 565.235 111.388 565.17 110.803L564.1 110.901V111.409C564.1 111.609 564.09 111.817 564.071 112.035C564.053 112.253 564.011 112.466 563.946 112.675C563.891 112.866 563.796 113.044 563.668 113.197C563.587 113.306 563.472 113.384 563.341 113.419C563.221 113.454 563.097 113.473 562.972 113.475C562.925 113.475 562.879 113.47 562.833 113.461C562.681 113.444 562.533 113.402 562.395 113.336C562.282 113.288 562.184 113.211 562.11 113.113C562.05 113.019 562.016 112.911 562.012 112.8V112.598C562.012 112.468 562.026 112.334 562.054 112.195C562.082 112.019 562.124 111.847 562.179 111.68C562.235 111.513 562.29 111.37 562.346 111.249L561.275 110.748C561.228 110.822 561.161 110.968 561.073 111.186C560.985 111.404 560.92 111.636 560.878 111.882C560.837 112.119 560.817 112.358 560.816 112.598V112.835C560.834 113.159 560.927 113.461 561.094 113.739C561.237 113.994 561.446 114.205 561.699 114.351C561.852 114.444 562.033 114.518 562.242 114.574C562.45 114.63 562.689 114.657 562.958 114.657V114.657ZM540.043 124.577L542.297 122.323L540.016 120.042L537.762 122.31L540.043 124.577ZM545.748 124.605L548.002 122.337L545.72 120.07L543.466 122.323L545.748 124.605ZM541.713 136.042C546.991 136.042 550.853 134.762 553.303 132.202C553.507 132.768 553.794 133.273 554.165 133.718C555.325 135.212 557.11 135.972 559.522 136H559.912V133.273H559.563C558.052 133.263 556.971 132.846 556.322 132.021C556.037 131.683 555.836 131.283 555.737 130.852C555.639 130.441 555.579 130.022 555.557 129.6V129.489C555.557 129.34 555.57 129.164 555.598 128.96C555.658 128.456 555.749 127.957 555.869 127.464C555.929 127.219 555.983 127.012 556.029 126.845L553.386 126.122C553.266 126.539 553.129 126.966 552.976 127.402C552.823 127.838 552.637 128.269 552.419 128.696C552.201 129.122 551.939 129.536 551.633 129.934C551.314 130.345 550.945 130.715 550.533 131.033C549.579 131.813 548.382 132.38 546.944 132.737C545.507 133.094 543.763 133.273 541.713 133.273C539.422 133.263 537.56 133.023 536.127 132.55C534.694 132.077 533.699 131.362 533.143 130.407C532.925 130.055 532.774 129.666 532.697 129.259C532.636 128.922 532.603 128.58 532.6 128.237C532.6 128.116 532.605 128 532.614 127.889C532.631 127.485 532.689 127.084 532.788 126.692C532.885 126.312 532.985 125.978 533.087 125.69C533.168 125.454 533.261 125.222 533.365 124.995C533.449 124.819 533.49 124.725 533.49 124.717L531.083 123.395C531.037 123.46 530.905 123.75 530.687 124.265C530.469 124.779 530.244 125.477 530.012 126.358C529.901 126.776 529.832 127.158 529.803 127.506C529.778 127.795 529.764 128.086 529.762 128.376C529.762 128.608 529.771 128.844 529.79 129.086C529.827 129.568 529.917 130.05 530.06 130.532C530.205 131.014 530.411 131.482 530.68 131.937C531.515 133.347 532.857 134.379 534.708 135.033C536.558 135.687 538.893 136.023 541.713 136.042V136.042Z" fill="black" fill-opacity="0.87"/>
<path d="M591 112H529C527.895 112 527 112.895 527 114V142C527 143.105 527.895 144 529 144H591C592.105 144 593 143.105 593 142V114C593 112.895 592.105 112 591 112Z" stroke="black" stroke-opacity="0.16" stroke-width="0.5" stroke-linejoin="round"/>
<path d="M460 104H398C396.895 104 396 104.895 396 106V150C396 151.105 396.895 152 398 152H460C461.105 152 462 151.105 462 150V106C462 104.895 461.105 104 460 104Z" stroke="black" stroke-opacity="0.16" stroke-width="0.5" stroke-linejoin="round"/>
<path d="M331 96H269C267.895 96 267 96.8954 267 98V158C267 159.105 267.895 160 269 160H331C332.105 160 333 159.105 333 158V98C333 96.8954 332.105 96 331 96Z" stroke="black" stroke-opacity="0.16" stroke-width="0.5" stroke-linejoin="round"/>
<path d="M454.692 136.167C455.555 136.167 456.311 136.047 456.96 135.805C457.628 135.565 458.184 135.216 458.63 134.762C459.083 134.294 459.425 133.731 459.631 133.113C459.854 132.468 459.965 131.747 459.965 130.95C459.965 130.42 459.917 129.878 459.819 129.322C459.722 128.765 459.597 128.222 459.443 127.694C459.165 126.731 458.829 125.785 458.435 124.863C458.246 124.421 458.042 123.986 457.826 123.557L457.752 123.407L457.725 123.353L455.29 124.633C455.741 125.556 456.134 126.506 456.466 127.478C456.666 128.068 456.837 128.668 456.981 129.28C457.125 129.892 457.197 130.463 457.197 130.991C457.197 131.399 457.15 131.766 457.057 132.091C456.977 132.393 456.821 132.671 456.605 132.897C456.412 133.101 456.166 133.248 455.895 133.322C455.631 133.392 455.365 133.426 455.095 133.426C454.938 133.426 454.771 133.416 454.595 133.398C454.339 133.379 454.094 133.285 453.892 133.127C453.698 132.969 453.541 132.769 453.433 132.543C453.317 132.306 453.233 132.033 453.183 131.722C453.131 131.398 453.105 131.07 453.106 130.741C453.106 130.361 453.134 129.927 453.19 129.44C453.245 128.953 453.308 128.494 453.377 128.063C453.447 127.631 453.51 127.263 453.565 126.957L453.635 126.511L450.963 126.024C450.908 126.404 450.831 126.852 450.733 127.367C450.631 127.903 450.506 128.435 450.358 128.96C450.205 129.509 450.019 130.047 449.802 130.574C449.6 131.074 449.343 131.55 449.037 131.993C448.766 132.389 448.427 132.733 448.035 133.009C447.659 133.269 447.235 133.399 446.762 133.399C446.465 133.399 446.219 133.343 446.024 133.231C445.835 133.125 445.677 132.972 445.565 132.786C445.45 132.59 445.37 132.376 445.329 132.153C445.282 131.913 445.259 131.668 445.259 131.423C445.259 131.061 445.296 130.669 445.37 130.247C445.445 129.825 445.533 129.412 445.635 129.009C445.737 128.605 445.841 128.227 445.948 127.875C446.054 127.522 446.145 127.235 446.219 127.012L443.464 126.428C443.372 126.882 443.26 127.365 443.13 127.875C443 128.385 442.843 128.893 442.657 129.398C442.472 129.904 442.254 130.388 442.003 130.852C441.753 131.316 441.459 131.726 441.12 132.083C440.786 132.437 440.393 132.729 439.958 132.946C439.499 133.169 438.993 133.281 438.483 133.273H438.177V136H438.47C439.008 136 439.501 135.956 439.951 135.868C440.77 135.717 441.544 135.379 442.211 134.88C442.531 134.64 442.829 134.372 443.103 134.08C443.251 134.423 443.462 134.725 443.736 134.984C444.009 135.244 444.313 135.462 444.647 135.638C444.981 135.814 445.331 135.947 445.697 136.035C446.064 136.123 446.419 136.167 446.762 136.167C447.545 136.169 448.315 135.973 449.002 135.597C449.723 135.204 450.364 134.68 450.894 134.052C451.089 134.349 451.325 134.625 451.604 134.88C451.882 135.135 452.184 135.358 452.508 135.548C452.832 135.738 453.173 135.888 453.53 136C453.888 136.111 454.242 136.167 454.595 136.167H454.692V136.167ZM432.793 123.172L435.061 120.904L432.779 118.623L430.511 120.89L432.793 123.172ZM428.883 136C430.247 136 431.393 135.859 432.32 135.576C433.248 135.293 434.003 134.859 434.588 134.275C434.987 134.785 435.497 135.2 436.118 135.52C436.74 135.84 437.518 136 438.456 136H438.734V133.273H438.456C437.983 133.273 437.596 133.166 437.294 132.953C436.996 132.744 436.753 132.468 436.584 132.146C436.41 131.814 436.286 131.458 436.216 131.089C436.145 130.73 436.094 130.368 436.063 130.003C436.03 129.562 435.99 129.122 435.944 128.682C435.903 128.292 435.859 127.93 435.812 127.597C435.725 126.957 435.59 126.324 435.409 125.704L432.793 126.442C432.997 127.147 433.139 127.772 433.217 128.32C433.297 128.867 433.336 129.405 433.336 129.934C433.336 131.038 432.983 131.87 432.278 132.431C431.573 132.992 430.442 133.273 428.883 133.273H428.369V136H428.883ZM431.958 114.657C432.394 114.657 432.768 114.581 433.078 114.427C433.389 114.275 433.623 114.041 433.781 113.725C434.013 114.022 434.271 114.217 434.553 114.31C434.836 114.402 435.084 114.449 435.297 114.449C435.483 114.449 435.677 114.421 435.882 114.365C436.086 114.31 436.282 114.217 436.473 114.087C436.663 113.957 436.837 113.786 436.995 113.572C437.167 113.33 437.299 113.063 437.385 112.779C437.44 112.594 437.468 112.403 437.468 112.209C437.467 112.055 437.453 111.901 437.426 111.749C437.354 111.387 437.247 111.033 437.106 110.692C436.981 110.386 436.832 110.091 436.661 109.809C436.557 109.638 436.45 109.469 436.341 109.301L435.353 109.983C435.483 110.131 435.608 110.314 435.729 110.533C435.85 110.751 435.952 110.978 436.035 111.213C436.118 111.45 436.174 111.659 436.202 111.84C436.23 112.02 436.243 112.162 436.243 112.264C436.243 112.376 436.234 112.478 436.216 112.57C436.174 112.757 436.077 112.926 435.937 113.057C435.798 113.187 435.603 113.261 435.353 113.28C435.253 113.277 435.155 113.258 435.061 113.224C434.95 113.187 434.838 113.088 434.727 112.925C434.616 112.763 434.511 112.515 434.414 112.181C434.317 111.847 434.235 111.388 434.17 110.803L433.1 110.901V111.409C433.1 111.609 433.09 111.817 433.071 112.035C433.053 112.253 433.011 112.466 432.946 112.675C432.89 112.866 432.796 113.044 432.668 113.197C432.587 113.306 432.472 113.384 432.341 113.419C432.221 113.454 432.097 113.473 431.972 113.475C431.925 113.475 431.879 113.47 431.833 113.461C431.681 113.444 431.533 113.402 431.395 113.336C431.282 113.288 431.184 113.211 431.11 113.113C431.05 113.019 431.016 112.911 431.012 112.8V112.598C431.012 112.468 431.026 112.334 431.054 112.195C431.082 112.019 431.124 111.847 431.179 111.68C431.235 111.513 431.29 111.37 431.346 111.249L430.275 110.748C430.228 110.822 430.161 110.968 430.073 111.186C429.985 111.404 429.92 111.636 429.878 111.882C429.837 112.119 429.816 112.358 429.816 112.598V112.835C429.834 113.159 429.927 113.461 430.094 113.739C430.237 113.994 430.446 114.205 430.699 114.351C430.852 114.444 431.033 114.518 431.242 114.574C431.45 114.63 431.689 114.657 431.958 114.657V114.657ZM409.043 124.577L411.297 122.323L409.016 120.042L406.762 122.31L409.043 124.577ZM414.748 124.605L417.002 122.337L414.72 120.07L412.466 122.323L414.748 124.605ZM410.713 136.042C415.991 136.042 419.853 134.762 422.303 132.202C422.507 132.768 422.794 133.273 423.165 133.718C424.325 135.212 426.11 135.972 428.522 136H428.912V133.273H428.563C427.052 133.263 425.971 132.846 425.322 132.021C425.037 131.683 424.836 131.283 424.737 130.852C424.639 130.441 424.579 130.022 424.557 129.6V129.489C424.557 129.34 424.57 129.164 424.598 128.96C424.658 128.456 424.749 127.957 424.869 127.464C424.929 127.219 424.983 127.012 425.029 126.845L422.386 126.122C422.266 126.539 422.129 126.966 421.976 127.402C421.823 127.838 421.637 128.269 421.419 128.696C421.201 129.122 420.939 129.536 420.633 129.934C420.314 130.345 419.945 130.715 419.533 131.033C418.579 131.813 417.382 132.38 415.944 132.737C414.507 133.094 412.763 133.273 410.713 133.273C408.422 133.263 406.56 133.023 405.127 132.55C403.694 132.077 402.699 131.362 402.143 130.407C401.925 130.055 401.774 129.666 401.697 129.259C401.636 128.922 401.603 128.58 401.6 128.237C401.6 128.116 401.605 128 401.614 127.889C401.631 127.485 401.689 127.084 401.788 126.692C401.885 126.312 401.985 125.978 402.087 125.69C402.168 125.454 402.261 125.222 402.365 124.995C402.449 124.819 402.49 124.725 402.49 124.717L400.083 123.395C400.037 123.46 399.905 123.75 399.687 124.265C399.469 124.779 399.244 125.477 399.012 126.358C398.901 126.776 398.832 127.158 398.803 127.506C398.778 127.795 398.764 128.086 398.762 128.376C398.762 128.608 398.771 128.844 398.79 129.086C398.827 129.568 398.917 130.05 399.06 130.532C399.205 131.014 399.411 131.482 399.68 131.937C400.515 133.347 401.857 134.379 403.708 135.033C405.558 135.687 407.893 136.023 410.713 136.042V136.042ZM325.693 136.167C326.555 136.167 327.311 136.047 327.96 135.805C328.628 135.565 329.184 135.216 329.63 134.762C330.083 134.294 330.425 133.731 330.631 133.113C330.854 132.468 330.965 131.747 330.965 130.95C330.965 130.42 330.917 129.878 330.819 129.322C330.722 128.765 330.597 128.222 330.443 127.694C330.165 126.731 329.829 125.785 329.435 124.863C329.246 124.421 329.042 123.986 328.826 123.557L328.752 123.407L328.725 123.353L326.29 124.633C326.741 125.556 327.134 126.506 327.466 127.478C327.666 128.068 327.837 128.668 327.981 129.28C328.125 129.892 328.197 130.463 328.197 130.991C328.197 131.399 328.15 131.766 328.057 132.091C327.976 132.393 327.821 132.671 327.605 132.897C327.412 133.101 327.166 133.248 326.895 133.322C326.631 133.392 326.365 133.426 326.095 133.426C325.938 133.426 325.771 133.416 325.595 133.398C325.339 133.379 325.094 133.285 324.892 133.127C324.698 132.969 324.541 132.769 324.433 132.543C324.317 132.306 324.233 132.033 324.183 131.722C324.131 131.398 324.105 131.07 324.106 130.741C324.106 130.361 324.134 129.927 324.19 129.44C324.245 128.953 324.308 128.494 324.377 128.063C324.447 127.631 324.51 127.263 324.565 126.957L324.635 126.511L321.963 126.024C321.908 126.404 321.831 126.852 321.733 127.367C321.631 127.903 321.506 128.435 321.358 128.96C321.205 129.509 321.019 130.047 320.802 130.574C320.6 131.074 320.343 131.55 320.037 131.993C319.766 132.389 319.427 132.733 319.035 133.009C318.659 133.269 318.235 133.399 317.762 133.399C317.465 133.399 317.219 133.343 317.024 133.231C316.835 133.125 316.677 132.972 316.565 132.786C316.45 132.59 316.37 132.376 316.329 132.153C316.282 131.913 316.259 131.668 316.259 131.423C316.259 131.061 316.296 130.669 316.37 130.247C316.445 129.825 316.533 129.412 316.635 129.009C316.737 128.605 316.841 128.227 316.948 127.875C317.054 127.522 317.145 127.235 317.219 127.012L314.464 126.428C314.364 126.913 314.253 127.395 314.13 127.875C314 128.385 313.843 128.893 313.657 129.398C313.472 129.904 313.254 130.388 313.003 130.852C312.753 131.316 312.459 131.726 312.12 132.083C311.786 132.437 311.393 132.729 310.958 132.946C310.499 133.169 309.993 133.281 309.483 133.273H309.177V136H309.47C310.008 136 310.501 135.956 310.951 135.868C311.77 135.717 312.544 135.379 313.211 134.88C313.531 134.64 313.829 134.372 314.103 134.08C314.251 134.423 314.462 134.725 314.736 134.984C315.009 135.244 315.313 135.462 315.647 135.638C315.981 135.814 316.331 135.947 316.697 136.035C317.064 136.123 317.419 136.167 317.762 136.167C318.545 136.169 319.315 135.973 320.002 135.597C320.723 135.204 321.364 134.68 321.894 134.052C322.089 134.349 322.325 134.625 322.604 134.88C322.882 135.135 323.184 135.358 323.508 135.548C323.832 135.738 324.173 135.888 324.53 136C324.888 136.111 325.242 136.167 325.595 136.167H325.692H325.693ZM303.793 123.172L306.061 120.904L303.779 118.623L301.511 120.89L303.793 123.172ZM299.883 136C301.247 136 302.393 135.859 303.32 135.576C304.248 135.293 305.003 134.859 305.588 134.275C305.987 134.785 306.497 135.2 307.118 135.52C307.74 135.84 308.518 136 309.456 136H309.734V133.273H309.456C308.983 133.273 308.596 133.166 308.294 132.953C307.996 132.744 307.753 132.468 307.584 132.146C307.41 131.814 307.286 131.458 307.216 131.089C307.145 130.73 307.094 130.368 307.063 130.003C307.03 129.562 306.99 129.122 306.944 128.682C306.903 128.292 306.859 127.93 306.812 127.597C306.725 126.957 306.59 126.324 306.409 125.704L303.793 126.442C303.997 127.147 304.139 127.772 304.217 128.32C304.297 128.867 304.336 129.405 304.336 129.934C304.336 131.038 303.983 131.87 303.278 132.431C302.573 132.992 301.442 133.273 299.883 133.273H299.369V136H299.883V136ZM302.958 114.657C303.394 114.657 303.768 114.581 304.078 114.427C304.389 114.275 304.623 114.041 304.781 113.725C305.013 114.022 305.271 114.217 305.553 114.31C305.836 114.402 306.084 114.449 306.297 114.449C306.483 114.449 306.677 114.421 306.882 114.365C307.086 114.31 307.282 114.217 307.473 114.087C307.663 113.957 307.837 113.786 307.995 113.572C308.167 113.33 308.299 113.063 308.385 112.779C308.44 112.594 308.468 112.403 308.468 112.209C308.467 112.055 308.453 111.901 308.426 111.749C308.354 111.387 308.247 111.033 308.106 110.692C307.981 110.386 307.832 110.091 307.661 109.809C307.557 109.638 307.45 109.469 307.341 109.301L306.353 109.983C306.483 110.131 306.608 110.314 306.729 110.533C306.85 110.751 306.952 110.978 307.035 111.213C307.118 111.45 307.174 111.659 307.202 111.84C307.23 112.02 307.243 112.162 307.243 112.264C307.243 112.376 307.234 112.478 307.216 112.57C307.174 112.757 307.077 112.926 306.937 113.057C306.798 113.187 306.603 113.261 306.353 113.28C306.253 113.277 306.155 113.258 306.061 113.224C305.95 113.187 305.838 113.088 305.727 112.925C305.616 112.763 305.511 112.515 305.414 112.181C305.317 111.847 305.235 111.388 305.17 110.803L304.1 110.901V111.409C304.1 111.609 304.09 111.817 304.071 112.035C304.053 112.253 304.011 112.466 303.946 112.675C303.89 112.866 303.796 113.044 303.668 113.197C303.587 113.306 303.472 113.384 303.341 113.419C303.221 113.454 303.097 113.473 302.972 113.475C302.925 113.475 302.879 113.47 302.833 113.461C302.681 113.444 302.533 113.402 302.395 113.336C302.282 113.288 302.184 113.211 302.11 113.113C302.05 113.019 302.016 112.911 302.012 112.8V112.598C302.012 112.468 302.026 112.334 302.054 112.195C302.082 112.019 302.124 111.847 302.179 111.68C302.235 111.513 302.29 111.37 302.346 111.249L301.275 110.748C301.228 110.822 301.161 110.968 301.073 111.186C300.985 111.404 300.92 111.636 300.878 111.882C300.837 112.119 300.817 112.358 300.816 112.598V112.835C300.834 113.159 300.927 113.461 301.094 113.739C301.237 113.994 301.446 114.205 301.699 114.351C301.852 114.444 302.033 114.518 302.242 114.574C302.45 114.63 302.689 114.657 302.958 114.657V114.657ZM280.043 124.577L282.297 122.323L280.016 120.042L277.762 122.31L280.043 124.577ZM285.748 124.605L288.002 122.337L285.72 120.07L283.466 122.323L285.748 124.605V124.605ZM281.713 136.042C286.991 136.042 290.853 134.762 293.303 132.202C293.507 132.768 293.794 133.273 294.165 133.718C295.325 135.212 297.11 135.972 299.522 136H299.912V133.273H299.563C298.052 133.263 296.971 132.846 296.322 132.021C296.037 131.683 295.836 131.283 295.737 130.852C295.639 130.441 295.579 130.022 295.557 129.6V129.489C295.557 129.34 295.57 129.164 295.598 128.96C295.658 128.456 295.749 127.957 295.869 127.464C295.929 127.219 295.983 127.012 296.029 126.845L293.386 126.122C293.266 126.539 293.129 126.966 292.976 127.402C292.823 127.838 292.637 128.269 292.419 128.696C292.201 129.122 291.939 129.536 291.633 129.934C291.314 130.345 290.945 130.715 290.533 131.033C289.579 131.813 288.382 132.38 286.944 132.737C285.507 133.094 283.763 133.273 281.713 133.273C279.422 133.263 277.56 133.023 276.127 132.55C274.694 132.077 273.699 131.362 273.143 130.407C272.925 130.055 272.774 129.666 272.697 129.259C272.636 128.922 272.603 128.58 272.6 128.237C272.6 128.116 272.605 128 272.614 127.889C272.631 127.485 272.689 127.084 272.788 126.692C272.885 126.312 272.985 125.978 273.087 125.69C273.168 125.454 273.261 125.222 273.365 124.995C273.449 124.819 273.49 124.725 273.49 124.717L271.083 123.395C271.037 123.46 270.905 123.75 270.687 124.265C270.469 124.779 270.244 125.477 270.012 126.358C269.901 126.776 269.832 127.158 269.803 127.506C269.778 127.795 269.764 128.086 269.762 128.376C269.762 128.608 269.771 128.844 269.79 129.086C269.827 129.568 269.917 130.05 270.06 130.532C270.205 131.014 270.411 131.482 270.68 131.937C271.515 133.347 272.857 134.379 274.708 135.033C276.558 135.687 278.893 136.023 281.713 136.042V136.042ZM455.93 183.866C456.793 183.866 457.549 183.746 458.198 183.504C458.866 183.264 459.423 182.915 459.868 182.461C460.321 181.993 460.664 181.43 460.87 180.812C461.092 180.168 461.203 179.446 461.203 178.649C461.203 178.12 461.155 177.577 461.057 177.021C460.96 176.464 460.835 175.921 460.682 175.393C460.404 174.43 460.067 173.484 459.673 172.562C459.484 172.12 459.28 171.685 459.064 171.256L458.99 171.106L458.963 171.052L456.529 172.332C456.98 173.255 457.372 174.205 457.704 175.177C457.904 175.767 458.075 176.367 458.219 176.979C458.363 177.591 458.435 178.162 458.435 178.69C458.435 179.099 458.388 179.465 458.295 179.79C458.215 180.093 458.059 180.37 457.843 180.597C457.65 180.801 457.404 180.948 457.133 181.021C456.87 181.091 456.603 181.125 456.333 181.125C456.176 181.125 456.009 181.115 455.833 181.097C455.577 181.078 455.333 180.984 455.13 180.827C454.936 180.668 454.779 180.469 454.671 180.242C454.555 180.005 454.471 179.732 454.421 179.421C454.369 179.097 454.343 178.769 454.344 178.44C454.344 178.06 454.372 177.626 454.428 177.14C454.483 176.652 454.546 176.193 454.616 175.762C454.686 175.33 454.748 174.962 454.803 174.656L454.873 174.21L452.202 173.723C452.146 174.103 452.07 174.551 451.972 175.066C451.87 175.602 451.745 176.134 451.597 176.659C451.443 177.208 451.257 177.746 451.04 178.273C450.838 178.773 450.581 179.249 450.275 179.693C450.004 180.088 449.665 180.432 449.273 180.708C448.897 180.968 448.473 181.098 448 181.098C447.703 181.098 447.457 181.042 447.263 180.93C447.073 180.824 446.915 180.671 446.803 180.485C446.688 180.289 446.608 180.075 446.567 179.852C446.52 179.612 446.497 179.367 446.497 179.122C446.497 178.76 446.534 178.368 446.609 177.946C446.683 177.524 446.771 177.111 446.873 176.708C446.975 176.304 447.079 175.926 447.186 175.574C447.293 175.221 447.383 174.934 447.457 174.711L444.703 174.127C444.61 174.581 444.499 175.064 444.369 175.574C444.239 176.084 444.081 176.592 443.896 177.097C443.71 177.603 443.492 178.087 443.242 178.551C442.992 179.015 442.697 179.426 442.358 179.783C442.024 180.136 441.631 180.428 441.197 180.645C440.738 180.868 440.232 180.98 439.722 180.972H439.416V183.7H439.708C440.246 183.7 440.74 183.656 441.19 183.568C442.009 183.417 442.783 183.079 443.45 182.58C443.769 182.34 444.067 182.072 444.34 181.78C444.49 182.123 444.7 182.425 444.974 182.684C445.248 182.944 445.551 183.162 445.885 183.338C446.219 183.515 446.569 183.647 446.935 183.735C447.302 183.823 447.657 183.867 448 183.867C448.783 183.869 449.553 183.673 450.24 183.297C450.961 182.904 451.602 182.38 452.132 181.752C452.327 182.049 452.563 182.325 452.842 182.58C453.12 182.835 453.422 183.058 453.746 183.248C454.071 183.438 454.412 183.588 454.769 183.7C455.126 183.811 455.481 183.867 455.833 183.867H455.93V183.866ZM434.031 170.871L436.299 168.603L434.017 166.322L431.75 168.59L434.031 170.871ZM430.121 183.699C431.485 183.699 432.631 183.558 433.558 183.275C434.486 182.992 435.242 182.558 435.826 181.974C436.225 182.484 436.736 182.899 437.356 183.219C437.978 183.539 438.757 183.699 439.694 183.699H439.972V180.972H439.694C439.221 180.972 438.834 180.866 438.532 180.652C438.234 180.443 437.991 180.167 437.822 179.845C437.648 179.513 437.524 179.157 437.454 178.788C437.383 178.429 437.332 178.067 437.301 177.703C437.268 177.262 437.229 176.821 437.183 176.381C437.141 175.991 437.097 175.63 437.05 175.296C436.963 174.656 436.828 174.023 436.647 173.403L434.031 174.141C434.235 174.846 434.377 175.471 434.456 176.019C434.534 176.566 434.574 177.104 434.574 177.633C434.574 178.737 434.221 179.569 433.517 180.13C432.812 180.692 431.68 180.972 430.122 180.972H429.607V183.7H430.122L430.121 183.699ZM433.197 162.357C433.632 162.357 434.006 162.28 434.317 162.127C434.627 161.974 434.861 161.74 435.019 161.424C435.251 161.721 435.509 161.916 435.791 162.009C436.074 162.101 436.322 162.148 436.536 162.148C436.721 162.148 436.916 162.12 437.12 162.064C437.324 162.009 437.521 161.916 437.711 161.786C437.901 161.656 438.075 161.485 438.233 161.271C438.405 161.029 438.537 160.762 438.623 160.478C438.678 160.293 438.706 160.103 438.706 159.908C438.705 159.754 438.691 159.6 438.664 159.448C438.592 159.086 438.485 158.732 438.344 158.391C438.219 158.085 438.07 157.79 437.899 157.508C437.795 157.337 437.688 157.168 437.579 157L436.591 157.682C436.721 157.83 436.846 158.013 436.967 158.232C437.088 158.45 437.19 158.678 437.273 158.913C437.357 159.15 437.413 159.358 437.44 159.539C437.468 159.72 437.482 159.861 437.482 159.963C437.482 160.075 437.472 160.177 437.454 160.27C437.412 160.457 437.315 160.626 437.176 160.757C437.036 160.887 436.842 160.961 436.591 160.979C436.491 160.976 436.393 160.957 436.299 160.923C436.188 160.886 436.077 160.787 435.965 160.624C435.854 160.462 435.75 160.214 435.652 159.88C435.555 159.546 435.474 159.087 435.409 158.503L434.337 158.6V159.108C434.337 159.308 434.328 159.516 434.31 159.734C434.291 159.952 434.25 160.165 434.184 160.374C434.128 160.565 434.034 160.743 433.906 160.896C433.825 161.005 433.71 161.083 433.579 161.118C433.459 161.153 433.335 161.172 433.21 161.174C433.163 161.174 433.117 161.169 433.071 161.16C432.919 161.143 432.771 161.101 432.633 161.035C432.52 160.987 432.422 160.91 432.348 160.812C432.288 160.718 432.254 160.61 432.25 160.499V160.297C432.25 160.167 432.264 160.033 432.292 159.894C432.32 159.718 432.362 159.546 432.417 159.379C432.473 159.212 432.529 159.069 432.584 158.948L431.513 158.447C431.467 158.521 431.399 158.667 431.311 158.885C431.223 159.103 431.158 159.335 431.117 159.581C431.076 159.818 431.055 160.057 431.054 160.297V160.534C431.072 160.859 431.165 161.16 431.332 161.438C431.475 161.693 431.684 161.904 431.937 162.05C432.09 162.143 432.271 162.217 432.48 162.273C432.689 162.329 432.928 162.357 433.197 162.357V162.357ZM410.282 172.277L412.536 170.023L410.254 167.741L408 170.009L410.282 172.277ZM415.986 172.304L418.24 170.037L415.958 167.769L413.704 170.023L415.986 172.304V172.304ZM411.951 183.741C417.229 183.741 421.092 182.461 423.541 179.901C423.745 180.467 424.032 180.972 424.403 181.417C425.563 182.911 427.348 183.671 429.76 183.699H430.15V180.972H429.802C428.29 180.962 427.209 180.546 426.56 179.72C426.275 179.382 426.075 178.982 425.976 178.551C425.877 178.14 425.817 177.721 425.795 177.299V177.188C425.795 177.039 425.809 176.863 425.837 176.659C425.897 176.155 425.988 175.656 426.108 175.163C426.168 174.918 426.221 174.711 426.268 174.544L423.624 173.821C423.504 174.238 423.367 174.665 423.214 175.101C423.061 175.537 422.875 175.968 422.657 176.395C422.439 176.821 422.177 177.235 421.871 177.633C421.553 178.045 421.183 178.414 420.772 178.733C419.817 179.511 418.62 180.079 417.182 180.437C415.745 180.794 414.002 180.972 411.952 180.972C409.66 180.962 407.798 180.722 406.365 180.249C404.932 179.776 403.937 179.061 403.381 178.106C403.164 177.754 403.013 177.365 402.936 176.958C402.874 176.621 402.842 176.279 402.838 175.936C402.838 175.816 402.843 175.699 402.852 175.588C402.869 175.184 402.927 174.783 403.026 174.391C403.123 174.011 403.223 173.677 403.326 173.39C403.407 173.154 403.499 172.921 403.603 172.694C403.687 172.518 403.729 172.424 403.729 172.416L401.322 171.094C401.275 171.159 401.143 171.449 400.925 171.964C400.707 172.478 400.482 173.176 400.25 174.057C400.14 174.475 400.07 174.857 400.042 175.205C400.017 175.494 400.003 175.785 400 176.075C400 176.307 400.01 176.543 400.028 176.785C400.065 177.267 400.155 177.749 400.299 178.231C400.443 178.714 400.649 179.182 400.919 179.637C401.753 181.047 403.096 182.078 404.946 182.732C406.796 183.386 409.132 183.722 411.951 183.741V183.741ZM325.692 200.167C326.555 200.167 327.311 200.047 327.96 199.805C328.628 199.565 329.184 199.216 329.63 198.762C330.083 198.294 330.425 197.731 330.631 197.113C330.854 196.468 330.965 195.747 330.965 194.95C330.965 194.42 330.917 193.878 330.819 193.322C330.722 192.765 330.597 192.222 330.443 191.694C330.165 190.731 329.829 189.785 329.435 188.863C329.246 188.421 329.042 187.986 328.826 187.557L328.752 187.407L328.725 187.353L326.29 188.633C326.741 189.556 327.134 190.506 327.466 191.478C327.666 192.068 327.837 192.668 327.981 193.28C328.125 193.892 328.197 194.463 328.197 194.991C328.197 195.399 328.15 195.766 328.057 196.091C327.976 196.393 327.821 196.671 327.605 196.897C327.412 197.101 327.166 197.248 326.895 197.322C326.631 197.392 326.365 197.426 326.095 197.426C325.938 197.426 325.771 197.416 325.595 197.398C325.339 197.379 325.094 197.285 324.892 197.127C324.698 196.969 324.541 196.769 324.433 196.543C324.317 196.306 324.233 196.033 324.183 195.722C324.131 195.398 324.105 195.07 324.106 194.741C324.106 194.361 324.134 193.927 324.19 193.44C324.245 192.953 324.308 192.494 324.377 192.063C324.447 191.631 324.51 191.263 324.565 190.957L324.635 190.511L321.963 190.024C321.908 190.404 321.831 190.852 321.733 191.367C321.631 191.903 321.506 192.435 321.358 192.96C321.205 193.509 321.019 194.047 320.802 194.574C320.6 195.074 320.343 195.549 320.037 195.993C319.766 196.389 319.427 196.733 319.035 197.009C318.659 197.269 318.235 197.399 317.762 197.399C317.465 197.399 317.219 197.343 317.024 197.231C316.835 197.125 316.677 196.972 316.565 196.786C316.45 196.59 316.37 196.376 316.329 196.153C316.282 195.913 316.259 195.668 316.259 195.423C316.259 195.061 316.296 194.669 316.37 194.247C316.445 193.825 316.533 193.412 316.635 193.009C316.737 192.605 316.841 192.227 316.948 191.875C317.054 191.522 317.145 191.235 317.219 191.012L314.464 190.428C314.364 190.913 314.253 191.395 314.13 191.875C314 192.385 313.843 192.893 313.657 193.398C313.472 193.904 313.254 194.388 313.003 194.852C312.753 195.316 312.459 195.726 312.12 196.083C311.786 196.437 311.393 196.729 310.958 196.946C310.499 197.169 309.993 197.281 309.483 197.273H309.177V200H309.47C310.008 200 310.501 199.956 310.951 199.868C311.77 199.717 312.544 199.379 313.211 198.88C313.531 198.64 313.829 198.372 314.103 198.08C314.251 198.423 314.462 198.725 314.736 198.984C315.009 199.244 315.313 199.462 315.647 199.638C315.981 199.814 316.331 199.947 316.697 200.035C317.064 200.123 317.419 200.167 317.762 200.167C318.545 200.169 319.315 199.973 320.002 199.597C320.723 199.204 321.364 198.68 321.894 198.052C322.089 198.349 322.325 198.625 322.604 198.88C322.882 199.135 323.184 199.358 323.508 199.548C323.832 199.738 324.173 199.888 324.53 200C324.888 200.111 325.242 200.167 325.595 200.167H325.692V200.167ZM303.793 187.172L306.061 184.904L303.779 182.623L301.511 184.89L303.793 187.172V187.172ZM299.883 200C301.247 200 302.393 199.859 303.32 199.576C304.248 199.293 305.003 198.859 305.588 198.275C305.987 198.785 306.497 199.2 307.118 199.52C307.74 199.84 308.518 200 309.456 200H309.734V197.273H309.456C308.983 197.273 308.596 197.166 308.294 196.953C307.996 196.744 307.753 196.468 307.584 196.146C307.41 195.814 307.286 195.458 307.216 195.089C307.145 194.73 307.094 194.368 307.063 194.003C307.03 193.562 306.99 193.122 306.944 192.682C306.903 192.292 306.859 191.93 306.812 191.597C306.725 190.957 306.59 190.324 306.409 189.704L303.793 190.442C303.997 191.147 304.139 191.772 304.217 192.32C304.297 192.867 304.336 193.405 304.336 193.934C304.336 195.038 303.983 195.87 303.278 196.431C302.573 196.992 301.442 197.273 299.883 197.273H299.369V200H299.883V200ZM302.958 178.657C303.394 178.657 303.768 178.581 304.078 178.427C304.389 178.275 304.623 178.041 304.781 177.725C305.013 178.022 305.271 178.217 305.553 178.31C305.836 178.402 306.084 178.449 306.297 178.449C306.483 178.449 306.677 178.421 306.882 178.365C307.086 178.31 307.282 178.217 307.473 178.087C307.663 177.957 307.837 177.786 307.995 177.572C308.167 177.33 308.299 177.063 308.385 176.779C308.44 176.594 308.468 176.403 308.468 176.209C308.467 176.055 308.453 175.901 308.426 175.749C308.354 175.387 308.247 175.033 308.106 174.692C307.981 174.386 307.832 174.091 307.661 173.809C307.557 173.638 307.45 173.469 307.341 173.301L306.353 173.983C306.483 174.131 306.608 174.314 306.729 174.533C306.85 174.751 306.952 174.978 307.035 175.213C307.118 175.45 307.174 175.659 307.202 175.84C307.23 176.02 307.243 176.162 307.243 176.264C307.243 176.376 307.234 176.478 307.216 176.57C307.174 176.757 307.077 176.926 306.937 177.057C306.798 177.187 306.603 177.261 306.353 177.28C306.253 177.277 306.155 177.258 306.061 177.224C305.95 177.187 305.838 177.088 305.727 176.925C305.616 176.763 305.511 176.515 305.414 176.181C305.317 175.847 305.235 175.388 305.17 174.803L304.1 174.901V175.409C304.1 175.609 304.09 175.817 304.071 176.035C304.053 176.253 304.011 176.466 303.946 176.675C303.89 176.866 303.796 177.044 303.668 177.197C303.587 177.306 303.472 177.384 303.341 177.419C303.221 177.454 303.097 177.473 302.972 177.475C302.925 177.475 302.879 177.47 302.833 177.461C302.681 177.444 302.533 177.402 302.395 177.336C302.282 177.288 302.184 177.211 302.11 177.113C302.05 177.019 302.016 176.911 302.012 176.8V176.598C302.012 176.468 302.026 176.334 302.054 176.195C302.082 176.019 302.124 175.847 302.179 175.68C302.235 175.513 302.29 175.37 302.346 175.249L301.275 174.748C301.228 174.822 301.161 174.968 301.073 175.186C300.985 175.404 300.92 175.636 300.878 175.882C300.837 176.119 300.817 176.358 300.816 176.598V176.835C300.834 177.159 300.927 177.461 301.094 177.739C301.237 177.994 301.446 178.205 301.699 178.351C301.852 178.444 302.033 178.518 302.242 178.574C302.45 178.63 302.689 178.657 302.958 178.657V178.657ZM280.043 188.577L282.297 186.323L280.016 184.042L277.762 186.31L280.043 188.577V188.577ZM285.748 188.605L288.002 186.337L285.72 184.07L283.466 186.323L285.748 188.605V188.605ZM281.713 200.042C286.991 200.042 290.853 198.762 293.303 196.202C293.507 196.768 293.794 197.273 294.165 197.718C295.325 199.212 297.11 199.972 299.522 200H299.912V197.273H299.563C298.052 197.263 296.971 196.846 296.322 196.021C296.037 195.683 295.836 195.283 295.737 194.852C295.639 194.441 295.579 194.022 295.557 193.6V193.489C295.557 193.34 295.57 193.164 295.598 192.96C295.658 192.456 295.749 191.957 295.869 191.464C295.929 191.219 295.983 191.012 296.029 190.845L293.386 190.122C293.266 190.539 293.129 190.966 292.976 191.402C292.823 191.838 292.637 192.269 292.419 192.696C292.201 193.122 291.939 193.536 291.633 193.934C291.314 194.345 290.945 194.715 290.533 195.033C289.579 195.813 288.382 196.38 286.944 196.737C285.507 197.094 283.763 197.273 281.713 197.273C279.422 197.263 277.56 197.023 276.127 196.55C274.694 196.077 273.699 195.362 273.143 194.407C272.925 194.055 272.774 193.666 272.697 193.259C272.636 192.922 272.603 192.58 272.6 192.237C272.6 192.116 272.605 192 272.614 191.889C272.631 191.485 272.689 191.084 272.788 190.692C272.885 190.312 272.985 189.978 273.087 189.69C273.168 189.454 273.261 189.222 273.365 188.995C273.449 188.819 273.49 188.725 273.49 188.717L271.083 187.395C271.037 187.46 270.905 187.75 270.687 188.265C270.469 188.779 270.244 189.477 270.012 190.358C269.901 190.776 269.832 191.158 269.803 191.506C269.778 191.795 269.764 192.086 269.762 192.376C269.762 192.608 269.771 192.844 269.79 193.086C269.827 193.568 269.917 194.05 270.06 194.532C270.205 195.014 270.411 195.482 270.68 195.937C271.515 197.347 272.857 198.379 274.708 199.033C276.558 199.687 278.893 200.023 281.713 200.042V200.042ZM585.93 167.866C586.793 167.866 587.549 167.746 588.198 167.504C588.866 167.264 589.423 166.915 589.868 166.461C590.321 165.993 590.664 165.43 590.87 164.812C591.092 164.168 591.203 163.446 591.203 162.649C591.203 162.12 591.155 161.577 591.057 161.021C590.96 160.464 590.835 159.921 590.682 159.393C590.404 158.43 590.067 157.484 589.673 156.562C589.484 156.12 589.28 155.685 589.064 155.256L588.99 155.106L588.963 155.052L586.529 156.332C586.98 157.255 587.372 158.205 587.704 159.177C587.904 159.767 588.075 160.367 588.219 160.979C588.363 161.591 588.435 162.162 588.435 162.69C588.435 163.099 588.388 163.465 588.295 163.79C588.215 164.093 588.059 164.37 587.843 164.597C587.65 164.801 587.404 164.948 587.133 165.021C586.87 165.091 586.603 165.125 586.333 165.125C586.176 165.125 586.009 165.115 585.833 165.097C585.577 165.078 585.333 164.984 585.13 164.827C584.936 164.668 584.779 164.469 584.671 164.242C584.555 164.005 584.471 163.732 584.421 163.421C584.369 163.097 584.343 162.769 584.344 162.44C584.344 162.06 584.372 161.626 584.428 161.14C584.483 160.652 584.546 160.193 584.616 159.762C584.686 159.33 584.748 158.962 584.803 158.656L584.873 158.21L582.202 157.723C582.146 158.103 582.07 158.551 581.972 159.066C581.87 159.602 581.745 160.134 581.597 160.659C581.443 161.208 581.257 161.747 581.04 162.273C580.838 162.773 580.581 163.249 580.275 163.693C580.004 164.088 579.665 164.432 579.273 164.708C578.897 164.968 578.473 165.098 578 165.098C577.703 165.098 577.457 165.042 577.263 164.93C577.073 164.824 576.915 164.671 576.803 164.485C576.688 164.289 576.608 164.075 576.567 163.852C576.52 163.612 576.497 163.367 576.497 163.122C576.497 162.76 576.534 162.368 576.609 161.946C576.683 161.524 576.771 161.111 576.873 160.708C576.975 160.304 577.079 159.926 577.186 159.574C577.293 159.221 577.383 158.934 577.457 158.711L574.703 158.127C574.61 158.581 574.499 159.064 574.369 159.574C574.239 160.084 574.081 160.592 573.896 161.097C573.71 161.603 573.492 162.087 573.242 162.551C572.992 163.015 572.697 163.426 572.358 163.783C572.024 164.136 571.631 164.428 571.197 164.645C570.738 164.868 570.232 164.98 569.722 164.972H569.416V167.7H569.708C570.246 167.7 570.74 167.656 571.19 167.568C572.009 167.417 572.783 167.079 573.45 166.58C573.769 166.34 574.067 166.072 574.34 165.78C574.49 166.123 574.7 166.425 574.974 166.684C575.248 166.944 575.551 167.162 575.885 167.338C576.219 167.515 576.569 167.647 576.935 167.735C577.302 167.823 577.657 167.867 578 167.867C578.783 167.869 579.553 167.673 580.24 167.297C580.961 166.904 581.602 166.38 582.132 165.752C582.327 166.049 582.563 166.325 582.842 166.58C583.12 166.835 583.422 167.058 583.746 167.248C584.071 167.438 584.412 167.588 584.769 167.7C585.126 167.811 585.481 167.867 585.833 167.867H585.93V167.866ZM564.031 154.871L566.299 152.603L564.017 150.322L561.75 152.59L564.031 154.871ZM560.121 167.699C561.485 167.699 562.631 167.558 563.558 167.275C564.486 166.992 565.242 166.558 565.826 165.974C566.225 166.484 566.736 166.899 567.356 167.219C567.978 167.539 568.757 167.699 569.694 167.699H569.972V164.972H569.694C569.221 164.972 568.834 164.866 568.532 164.652C568.234 164.443 567.991 164.167 567.822 163.845C567.648 163.513 567.524 163.157 567.454 162.788C567.383 162.429 567.332 162.067 567.301 161.703C567.268 161.262 567.229 160.821 567.183 160.381C567.141 159.991 567.097 159.63 567.05 159.296C566.963 158.656 566.828 158.023 566.647 157.403L564.031 158.141C564.235 158.846 564.377 159.471 564.456 160.019C564.534 160.566 564.574 161.104 564.574 161.633C564.574 162.737 564.221 163.569 563.517 164.13C562.812 164.692 561.68 164.972 560.122 164.972H559.607V167.7H560.122L560.121 167.699ZM563.197 146.357C563.632 146.357 564.006 146.28 564.317 146.127C564.627 145.974 564.861 145.74 565.019 145.424C565.251 145.721 565.509 145.916 565.791 146.009C566.074 146.101 566.322 146.148 566.536 146.148C566.721 146.148 566.916 146.12 567.12 146.064C567.324 146.009 567.521 145.916 567.711 145.786C567.901 145.656 568.075 145.485 568.233 145.271C568.405 145.029 568.537 144.762 568.623 144.478C568.678 144.293 568.706 144.103 568.706 143.908C568.705 143.754 568.691 143.6 568.664 143.448C568.592 143.086 568.485 142.732 568.344 142.391C568.219 142.085 568.07 141.79 567.899 141.508C567.795 141.337 567.688 141.168 567.579 141L566.591 141.682C566.721 141.83 566.846 142.013 566.967 142.232C567.088 142.45 567.19 142.678 567.273 142.913C567.357 143.15 567.413 143.358 567.44 143.539C567.468 143.72 567.482 143.861 567.482 143.963C567.482 144.075 567.472 144.177 567.454 144.27C567.412 144.457 567.315 144.626 567.176 144.757C567.036 144.887 566.842 144.961 566.591 144.979C566.491 144.976 566.393 144.957 566.299 144.923C566.188 144.886 566.077 144.787 565.965 144.624C565.854 144.462 565.75 144.214 565.652 143.88C565.555 143.546 565.474 143.087 565.409 142.503L564.337 142.6V143.108C564.337 143.308 564.328 143.516 564.31 143.734C564.291 143.952 564.25 144.165 564.184 144.374C564.128 144.565 564.034 144.743 563.906 144.896C563.825 145.005 563.71 145.083 563.579 145.118C563.459 145.153 563.335 145.172 563.21 145.174C563.163 145.174 563.117 145.169 563.071 145.16C562.919 145.143 562.771 145.101 562.633 145.035C562.52 144.987 562.422 144.91 562.348 144.812C562.288 144.718 562.254 144.61 562.25 144.499V144.297C562.25 144.167 562.264 144.033 562.292 143.894C562.32 143.718 562.362 143.546 562.417 143.379C562.473 143.212 562.529 143.069 562.584 142.948L561.513 142.447C561.467 142.521 561.399 142.667 561.311 142.885C561.223 143.103 561.158 143.335 561.117 143.581C561.076 143.818 561.055 144.057 561.054 144.297V144.534C561.072 144.859 561.165 145.16 561.332 145.438C561.475 145.693 561.684 145.904 561.937 146.05C562.09 146.143 562.271 146.217 562.48 146.273C562.689 146.329 562.928 146.357 563.197 146.357V146.357ZM540.282 156.277L542.536 154.023L540.254 151.741L538 154.009L540.282 156.277ZM545.986 156.304L548.24 154.037L545.958 151.769L543.704 154.023L545.986 156.304V156.304ZM541.951 167.741C547.229 167.741 551.092 166.461 553.541 163.901C553.745 164.467 554.032 164.972 554.403 165.417C555.563 166.911 557.348 167.671 559.76 167.699H560.15V164.972H559.802C558.29 164.962 557.209 164.546 556.56 163.72C556.275 163.382 556.075 162.982 555.976 162.551C555.877 162.14 555.817 161.721 555.795 161.299V161.188C555.795 161.039 555.809 160.863 555.837 160.659C555.897 160.155 555.988 159.656 556.108 159.163C556.168 158.918 556.221 158.711 556.268 158.544L553.624 157.821C553.504 158.238 553.367 158.665 553.214 159.101C553.061 159.537 552.875 159.968 552.657 160.395C552.439 160.821 552.177 161.235 551.871 161.633C551.553 162.045 551.183 162.414 550.772 162.733C549.817 163.511 548.62 164.079 547.182 164.437C545.745 164.794 544.002 164.972 541.952 164.972C539.66 164.962 537.798 164.722 536.365 164.249C534.932 163.776 533.937 163.061 533.381 162.106C533.164 161.754 533.013 161.365 532.936 160.958C532.874 160.621 532.842 160.279 532.838 159.936C532.838 159.816 532.843 159.699 532.852 159.588C532.869 159.184 532.927 158.783 533.026 158.391C533.123 158.011 533.223 157.677 533.326 157.39C533.407 157.154 533.499 156.921 533.603 156.694C533.687 156.518 533.729 156.424 533.729 156.416L531.322 155.094C531.275 155.159 531.143 155.449 530.925 155.964C530.707 156.478 530.482 157.176 530.25 158.057C530.14 158.475 530.07 158.857 530.042 159.205C530.017 159.494 530.003 159.785 530 160.075C530 160.307 530.01 160.543 530.028 160.785C530.065 161.267 530.155 161.749 530.299 162.231C530.443 162.714 530.649 163.182 530.919 163.637C531.753 165.047 533.096 166.078 534.946 166.732C536.796 167.386 539.132 167.722 541.951 167.741Z" fill="black" fill-opacity="0.87"/>
<path fill-rule="evenodd" clip-rule="evenodd" d="M267 160H333V224H267V160Z" fill="url(#paint0_linear_65:196)"/>
<path fill-rule="evenodd" clip-rule="evenodd" d="M396 160H462V200H396V160Z" fill="url(#paint1_linear_65:196)"/>
<path fill-rule="evenodd" clip-rule="evenodd" d="M527 144H593V176H527V144Z" fill="url(#paint2_linear_65:196)"/>
<path fill-rule="evenodd" clip-rule="evenodd" d="M174 138H174.5V159.5H176.25V160H172.25V159.5H174V138ZM174.5 96.5V118H174V96.5H174.5ZM176.25 96V96.5H172.25V96H176.25Z" fill="black" fill-opacity="0.56"/>
<path d="M175.952 130H172.226V129.48L174.194 127.293C174.486 126.962 174.687 126.694 174.796 126.488C174.908 126.28 174.964 126.065 174.964 125.844C174.964 125.547 174.874 125.303 174.694 125.113C174.515 124.923 174.275 124.828 173.976 124.828C173.616 124.828 173.336 124.931 173.136 125.137C172.938 125.34 172.839 125.624 172.839 125.988H172.116C172.116 125.465 172.284 125.042 172.62 124.719C172.959 124.396 173.411 124.234 173.976 124.234C174.504 124.234 174.922 124.374 175.23 124.652C175.537 124.928 175.69 125.297 175.69 125.758C175.69 126.318 175.334 126.984 174.62 127.758L173.097 129.41H175.952V130Z" fill="black" fill-opacity="0.56"/>
<path fill-rule="evenodd" clip-rule="evenodd" d="M184 159.5C184.066 159.5 184.13 159.526 184.177 159.573C184.224 159.62 184.25 159.684 184.25 159.75C184.25 159.816 184.224 159.88 184.177 159.927C184.13 159.974 184.066 160 184 160H180.5C180.434 160 180.37 159.974 180.323 159.927C180.276 159.88 180.25 159.816 180.25 159.75C180.25 159.684 180.276 159.62 180.323 159.573C180.37 159.526 180.434 159.5 180.5 159.5H184ZM192 159.5C192.066 159.5 192.13 159.526 192.177 159.573C192.224 159.62 192.25 159.684 192.25 159.75C192.25 159.816 192.224 159.88 192.177 159.927C192.13 159.974 192.066 160 192 160H188.5C188.434 160 188.37 159.974 188.323 159.927C188.276 159.88 188.25 159.816 188.25 159.75C188.25 159.684 188.276 159.62 188.323 159.573C188.37 159.526 188.434 159.5 188.5 159.5H192ZM200 159.5C200.066 159.5 200.13 159.526 200.177 159.573C200.224 159.62 200.25 159.684 200.25 159.75C200.25 159.816 200.224 159.88 200.177 159.927C200.13 159.974 200.066 160 200 160H196.5C196.434 160 196.37 159.974 196.323 159.927C196.276 159.88 196.25 159.816 196.25 159.75C196.25 159.684 196.276 159.62 196.323 159.573C196.37 159.526 196.434 159.5 196.5 159.5H200ZM208 159.5C208.066 159.5 208.13 159.526 208.177 159.573C208.224 159.62 208.25 159.684 208.25 159.75C208.25 159.816 208.224 159.88 208.177 159.927C208.13 159.974 208.066 160 208 160H204.5C204.434 160 204.37 159.974 204.323 159.927C204.276 159.88 204.25 159.816 204.25 159.75C204.25 159.684 204.276 159.62 204.323 159.573C204.37 159.526 204.434 159.5 204.5 159.5H208ZM216 159.5C216.066 159.5 216.13 159.526 216.177 159.573C216.224 159.62 216.25 159.684 216.25 159.75C216.25 159.816 216.224 159.88 216.177 159.927C216.13 159.974 216.066 160 216 160H212.5C212.434 160 212.37 159.974 212.323 159.927C212.276 159.88 212.25 159.816 212.25 159.75C212.25 159.684 212.276 159.62 212.323 159.573C212.37 159.526 212.434 159.5 212.5 159.5H216ZM224 159.5C224.066 159.5 224.13 159.526 224.177 159.573C224.224 159.62 224.25 159.684 224.25 159.75C224.25 159.816 224.224 159.88 224.177 159.927C224.13 159.974 224.066 160 224 160H220.5C220.434 160 220.37 159.974 220.323 159.927C220.276 159.88 220.25 159.816 220.25 159.75C220.25 159.684 220.276 159.62 220.323 159.573C220.37 159.526 220.434 159.5 220.5 159.5H224ZM232 159.5C232.066 159.5 232.13 159.526 232.177 159.573C232.224 159.62 232.25 159.684 232.25 159.75C232.25 159.816 232.224 159.88 232.177 159.927C232.13 159.974 232.066 160 232 160H228.5C228.434 160 228.37 159.974 228.323 159.927C228.276 159.88 228.25 159.816 228.25 159.75C228.25 159.684 228.276 159.62 228.323 159.573C228.37 159.526 228.434 159.5 228.5 159.5H232ZM184 96C184.066 96 184.13 96.0263 184.177 96.0732C184.224 96.1201 184.25 96.1837 184.25 96.25C184.25 96.3163 184.224 96.3799 184.177 96.4268C184.13 96.4737 184.066 96.5 184 96.5H180.5C180.434 96.5 180.37 96.4737 180.323 96.4268C180.276 96.3799 180.25 96.3163 180.25 96.25C180.25 96.1837 180.276 96.1201 180.323 96.0732C180.37 96.0263 180.434 96 180.5 96H184ZM192 96C192.066 96 192.13 96.0263 192.177 96.0732C192.224 96.1201 192.25 96.1837 192.25 96.25C192.25 96.3163 192.224 96.3799 192.177 96.4268C192.13 96.4737 192.066 96.5 192 96.5H188.5C188.434 96.5 188.37 96.4737 188.323 96.4268C188.276 96.3799 188.25 96.3163 188.25 96.25C188.25 96.1837 188.276 96.1201 188.323 96.0732C188.37 96.0263 188.434 96 188.5 96H192ZM200 96C200.066 96 200.13 96.0263 200.177 96.0732C200.224 96.1201 200.25 96.1837 200.25 96.25C200.25 96.3163 200.224 96.3799 200.177 96.4268C200.13 96.4737 200.066 96.5 200 96.5H196.5C196.434 96.5 196.37 96.4737 196.323 96.4268C196.276 96.3799 196.25 96.3163 196.25 96.25C196.25 96.1837 196.276 96.1201 196.323 96.0732C196.37 96.0263 196.434 96 196.5 96H200ZM208 96C208.066 96 208.13 96.0263 208.177 96.0732C208.224 96.1201 208.25 96.1837 208.25 96.25C208.25 96.3163 208.224 96.3799 208.177 96.4268C208.13 96.4737 208.066 96.5 208 96.5H204.5C204.434 96.5 204.37 96.4737 204.323 96.4268C204.276 96.3799 204.25 96.3163 204.25 96.25C204.25 96.1837 204.276 96.1201 204.323 96.0732C204.37 96.0263 204.434 96 204.5 96H208ZM216 96C216.066 96 216.13 96.0263 216.177 96.0732C216.224 96.1201 216.25 96.1837 216.25 96.25C216.25 96.3163 216.224 96.3799 216.177 96.4268C216.13 96.4737 216.066 96.5 216 96.5H212.5C212.434 96.5 212.37 96.4737 212.323 96.4268C212.276 96.3799 212.25 96.3163 212.25 96.25C212.25 96.1837 212.276 96.1201 212.323 96.0732C212.37 96.0263 212.434 96 212.5 96H216ZM224 96C224.066 96 224.13 96.0263 224.177 96.0732C224.224 96.1201 224.25 96.1837 224.25 96.25C224.25 96.3163 224.224 96.3799 224.177 96.4268C224.13 96.4737 224.066 96.5 224 96.5H220.5C220.434 96.5 220.37 96.4737 220.323 96.4268C220.276 96.3799 220.25 96.3163 220.25 96.25C220.25 96.1837 220.276 96.1201 220.323 96.0732C220.37 96.0263 220.434 96 220.5 96H224ZM232 96C232.066 96 232.13 96.0263 232.177 96.0732C232.224 96.1201 232.25 96.1837 232.25 96.25C232.25 96.3163 232.224 96.3799 232.177 96.4268C232.13 96.4737 232.066 96.5 232 96.5H228.5C228.434 96.5 228.37 96.4737 228.323 96.4268C228.276 96.3799 228.25 96.3163 228.25 96.25C228.25 96.1837 228.276 96.1201 228.323 96.0732C228.37 96.0263 228.434 96 228.5 96H232ZM209 104C209.066 104 209.13 104.026 209.177 104.073C209.224 104.12 209.25 104.184 209.25 104.25C209.25 104.316 209.224 104.38 209.177 104.427C209.13 104.474 209.066 104.5 209 104.5H205.5C205.434 104.5 205.37 104.474 205.323 104.427C205.276 104.38 205.25 104.316 205.25 104.25C205.25 104.184 205.276 104.12 205.323 104.073C205.37 104.026 205.434 104 205.5 104H209ZM217 104C217.066 104 217.13 104.026 217.177 104.073C217.224 104.12 217.25 104.184 217.25 104.25C217.25 104.316 217.224 104.38 217.177 104.427C217.13 104.474 217.066 104.5 217 104.5H213.5C213.434 104.5 213.37 104.474 213.323 104.427C213.276 104.38 213.25 104.316 213.25 104.25C213.25 104.184 213.276 104.12 213.323 104.073C213.37 104.026 213.434 104 213.5 104H217ZM225 104C225.066 104 225.13 104.026 225.177 104.073C225.224 104.12 225.25 104.184 225.25 104.25C225.25 104.316 225.224 104.38 225.177 104.427C225.13 104.474 225.066 104.5 225 104.5H221.5C221.434 104.5 221.37 104.474 221.323 104.427C221.276 104.38 221.25 104.316 221.25 104.25C221.25 104.184 221.276 104.12 221.323 104.073C221.37 104.026 221.434 104 221.5 104H225ZM233 104C233.066 104 233.13 104.026 233.177 104.073C233.224 104.12 233.25 104.184 233.25 104.25C233.25 104.316 233.224 104.38 233.177 104.427C233.13 104.474 233.066 104.5 233 104.5H229.5C229.434 104.5 229.37 104.474 229.323 104.427C229.276 104.38 229.25 104.316 229.25 104.25C229.25 104.184 229.276 104.12 229.323 104.073C229.37 104.026 229.434 104 229.5 104H233Z" fill="black" fill-opacity="0.24"/>
<path d="M233.25 144.5V144C233.25 143.862 233.138 143.75 233 143.75H229.5C229.362 143.75 229.25 143.862 229.25 144V144.5C229.25 144.638 229.362 144.75 229.5 144.75H233C233.138 144.75 233.25 144.638 233.25 144.5Z" fill="black" fill-opacity="0.24"/>
<path d="M233.25 112.75V112.25C233.25 112.112 233.138 112 233 112H229.5C229.362 112 229.25 112.112 229.25 112.25V112.75C229.25 112.888 229.362 113 229.5 113H233C233.138 113 233.25 112.888 233.25 112.75Z" fill="black" fill-opacity="0.24"/>
<path fill-rule="evenodd" clip-rule="evenodd" d="M209 151.5C209.066 151.5 209.13 151.526 209.177 151.573C209.224 151.62 209.25 151.684 209.25 151.75C209.25 151.816 209.224 151.88 209.177 151.927C209.13 151.974 209.066 152 209 152H205.5C205.434 152 205.37 151.974 205.323 151.927C205.276 151.88 205.25 151.816 205.25 151.75C205.25 151.684 205.276 151.62 205.323 151.573C205.37 151.526 205.434 151.5 205.5 151.5H209ZM217 151.5C217.066 151.5 217.13 151.526 217.177 151.573C217.224 151.62 217.25 151.684 217.25 151.75C217.25 151.816 217.224 151.88 217.177 151.927C217.13 151.974 217.066 152 217 152H213.5C213.434 152 213.37 151.974 213.323 151.927C213.276 151.88 213.25 151.816 213.25 151.75C213.25 151.684 213.276 151.62 213.323 151.573C213.37 151.526 213.434 151.5 213.5 151.5H217ZM225 151.5C225.066 151.5 225.13 151.526 225.177 151.573C225.224 151.62 225.25 151.684 225.25 151.75C225.25 151.816 225.224 151.88 225.177 151.927C225.13 151.974 225.066 152 225 152H221.5C221.434 152 221.37 151.974 221.323 151.927C221.276 151.88 221.25 151.816 221.25 151.75C221.25 151.684 221.276 151.62 221.323 151.573C221.37 151.526 221.434 151.5 221.5 151.5H225ZM233 151.5C233.066 151.5 233.13 151.526 233.177 151.573C233.224 151.62 233.25 151.684 233.25 151.75C233.25 151.816 233.224 151.88 233.177 151.927C233.13 151.974 233.066 152 233 152H229.5C229.434 152 229.37 151.974 229.323 151.927C229.276 151.88 229.25 151.816 229.25 151.75C229.25 151.684 229.276 151.62 229.323 151.573C229.37 151.526 229.434 151.5 229.5 151.5H233Z" fill="black" fill-opacity="0.24"/>
<path fill-rule="evenodd" clip-rule="evenodd" d="M199 138H199.5V151.5H201.25V152H197.25V151.5H199V138ZM199.5 104.5V118H199V104.5H199.5ZM201.25 104V104.5H197.25V104H201.25Z" fill="black" fill-opacity="0.56"/>
<path d="M196.22 130H195.493V125.184L194.036 125.719V125.062L196.106 124.285H196.22V130Z" fill="black" fill-opacity="0.56"/>
<path d="M198.427 129.621C198.427 129.496 198.463 129.392 198.536 129.309C198.612 129.225 198.724 129.184 198.872 129.184C199.02 129.184 199.132 129.225 199.208 129.309C199.286 129.392 199.325 129.496 199.325 129.621C199.325 129.741 199.286 129.841 199.208 129.922C199.132 130.003 199.02 130.043 198.872 130.043C198.724 130.043 198.612 130.003 198.536 129.922C198.463 129.841 198.427 129.741 198.427 129.621Z" fill="black" fill-opacity="0.56"/>
<path d="M200.778 127.148L201.067 124.312H203.981V124.98H201.681L201.509 126.531C201.787 126.367 202.104 126.285 202.458 126.285C202.976 126.285 203.388 126.457 203.692 126.801C203.997 127.142 204.149 127.604 204.149 128.188C204.149 128.773 203.99 129.236 203.673 129.574C203.358 129.91 202.916 130.078 202.349 130.078C201.846 130.078 201.436 129.939 201.118 129.66C200.8 129.382 200.619 128.996 200.575 128.504H201.259C201.303 128.829 201.419 129.076 201.606 129.242C201.794 129.406 202.041 129.488 202.349 129.488C202.684 129.488 202.947 129.374 203.138 129.145C203.33 128.915 203.427 128.599 203.427 128.195C203.427 127.815 203.322 127.51 203.114 127.281C202.908 127.049 202.634 126.934 202.29 126.934C201.975 126.934 201.727 127.003 201.548 127.141L201.356 127.297L200.778 127.148Z" fill="black" fill-opacity="0.56"/>
<path fill-rule="evenodd" clip-rule="evenodd" d="M224 138H224.5V143.5H226.25V144H222.25V143.5H224V138ZM224.5 112.5V120H224V112.5H224.5ZM226.25 112V112.5H222.25V112H226.25Z" fill="black" fill-opacity="0.56"/>
<path d="M215.811 130V124.312H217.671C218.288 124.312 218.751 124.44 219.061 124.695C219.374 124.951 219.53 125.328 219.53 125.828C219.53 126.094 219.454 126.329 219.303 126.535C219.152 126.738 218.947 126.896 218.686 127.008C218.993 127.094 219.236 127.258 219.413 127.5C219.592 127.74 219.682 128.026 219.682 128.359C219.682 128.87 219.517 129.271 219.186 129.562C218.855 129.854 218.388 130 217.784 130H215.811ZM216.561 127.34V129.387H217.799C218.148 129.387 218.423 129.297 218.624 129.117C218.827 128.935 218.928 128.685 218.928 128.367C218.928 127.682 218.556 127.34 217.811 127.34H216.561ZM216.561 126.738H217.694C218.022 126.738 218.284 126.656 218.479 126.492C218.677 126.328 218.776 126.105 218.776 125.824C218.776 125.512 218.685 125.285 218.503 125.145C218.32 125.001 218.043 124.93 217.671 124.93H216.561V126.738Z" fill="black" fill-opacity="0.56"/>
<path d="M223.292 130C223.25 129.917 223.216 129.768 223.19 129.555C222.854 129.904 222.453 130.078 221.987 130.078C221.57 130.078 221.228 129.961 220.96 129.727C220.694 129.49 220.561 129.19 220.561 128.828C220.561 128.388 220.728 128.047 221.061 127.805C221.397 127.56 221.868 127.438 222.475 127.438H223.178V127.105C223.178 126.853 223.103 126.652 222.952 126.504C222.801 126.353 222.578 126.277 222.284 126.277C222.026 126.277 221.81 126.342 221.635 126.473C221.461 126.603 221.374 126.76 221.374 126.945H220.647C220.647 126.734 220.721 126.531 220.87 126.336C221.021 126.138 221.224 125.982 221.479 125.867C221.737 125.753 222.019 125.695 222.327 125.695C222.814 125.695 223.195 125.818 223.471 126.062C223.747 126.305 223.891 126.639 223.901 127.066V129.012C223.901 129.4 223.95 129.708 224.049 129.938V130H223.292ZM222.092 129.449C222.319 129.449 222.534 129.391 222.737 129.273C222.94 129.156 223.087 129.004 223.178 128.816V127.949H222.612C221.727 127.949 221.284 128.208 221.284 128.727C221.284 128.953 221.359 129.13 221.51 129.258C221.661 129.385 221.855 129.449 222.092 129.449Z" fill="black" fill-opacity="0.56"/>
<path d="M227.495 128.879C227.495 128.684 227.421 128.533 227.272 128.426C227.126 128.316 226.87 128.223 226.503 128.145C226.138 128.066 225.848 127.973 225.631 127.863C225.418 127.754 225.259 127.624 225.155 127.473C225.053 127.322 225.003 127.142 225.003 126.934C225.003 126.587 225.148 126.294 225.44 126.055C225.734 125.815 226.109 125.695 226.565 125.695C227.044 125.695 227.432 125.819 227.729 126.066C228.029 126.314 228.178 126.63 228.178 127.016H227.452C227.452 126.818 227.367 126.647 227.198 126.504C227.031 126.361 226.82 126.289 226.565 126.289C226.302 126.289 226.096 126.346 225.948 126.461C225.799 126.576 225.725 126.725 225.725 126.91C225.725 127.085 225.794 127.216 225.932 127.305C226.07 127.393 226.319 127.478 226.678 127.559C227.04 127.639 227.333 127.736 227.557 127.848C227.781 127.96 227.947 128.095 228.053 128.254C228.163 128.41 228.217 128.602 228.217 128.828C228.217 129.206 228.066 129.509 227.764 129.738C227.462 129.965 227.07 130.078 226.589 130.078C226.25 130.078 225.95 130.018 225.69 129.898C225.43 129.779 225.225 129.612 225.077 129.398C224.931 129.182 224.858 128.949 224.858 128.699H225.581C225.594 128.941 225.69 129.134 225.87 129.277C226.052 129.418 226.292 129.488 226.589 129.488C226.862 129.488 227.081 129.434 227.245 129.324C227.411 129.212 227.495 129.064 227.495 128.879Z" fill="black" fill-opacity="0.56"/>
<path d="M230.913 130.078C230.34 130.078 229.874 129.891 229.514 129.516C229.155 129.138 228.975 128.634 228.975 128.004V127.871C228.975 127.452 229.055 127.078 229.214 126.75C229.375 126.419 229.599 126.161 229.885 125.977C230.174 125.789 230.487 125.695 230.823 125.695C231.372 125.695 231.799 125.876 232.104 126.238C232.409 126.6 232.561 127.118 232.561 127.793V128.094H229.698C229.708 128.51 229.829 128.848 230.061 129.105C230.296 129.361 230.592 129.488 230.952 129.488C231.207 129.488 231.423 129.436 231.6 129.332C231.777 129.228 231.932 129.09 232.065 128.918L232.506 129.262C232.152 129.806 231.621 130.078 230.913 130.078ZM230.823 126.289C230.531 126.289 230.286 126.396 230.089 126.609C229.891 126.82 229.768 127.117 229.721 127.5H231.839V127.445C231.818 127.078 231.719 126.794 231.542 126.594C231.365 126.391 231.125 126.289 230.823 126.289Z" fill="black" fill-opacity="0.56"/>
<defs>
<linearGradient id="paint0_linear_65:196" x1="300" y1="160" x2="300" y2="204" gradientUnits="userSpaceOnUse">
<stop stop-color="#FAFAFB" stop-opacity="0"/>
<stop offset="1" stop-color="#FAFAFB"/>
</linearGradient>
<linearGradient id="paint1_linear_65:196" x1="429" y1="160" x2="429" y2="190.5" gradientUnits="userSpaceOnUse">
<stop stop-color="#FAFAFB" stop-opacity="0"/>
<stop offset="1" stop-color="#FAFAFB"/>
</linearGradient>
<linearGradient id="paint2_linear_65:196" x1="560" y1="144" x2="560" y2="172" gradientUnits="userSpaceOnUse">
<stop stop-color="#FAFAFB" stop-opacity="0"/>
<stop offset="1" stop-color="#FAFAFB"/>
</linearGradient>
</defs>
</svg>
