<svg xmlns="http://www.w3.org/2000/svg" xmlns:xlink="http://www.w3.org/1999/xlink" width="422" height="168"><defs><rect id="a" width="422" height="168" x="0" y="0" rx="4"/><rect id="c" width="390" height="104" x="16" y="32" rx="4"/><filter id="b" width="113.3%" height="150%" x="-6.7%" y="-21.2%" filterUnits="objectBoundingBox"><feOffset dy="4" in="SourceAlpha" result="shadowOffsetOuter1"/><feGaussianBlur in="shadowOffsetOuter1" result="shadowBlurOuter1" stdDeviation="8"/><feColorMatrix in="shadowBlurOuter1" values="0 0 0 0 0 0 0 0 0 0 0 0 0 0 0 0 0 0 0.12 0"/></filter></defs><g fill="none" fill-rule="evenodd"><use fill="#000" fill-opacity="0" xlink:href="#a"/><use fill="#000" filter="url(#b)" xlink:href="#c"/><rect width="390" height="104" x="16" y="32" fill="#FFF" rx="4"/><g transform="translate(64 64)"><rect width="293" height="39" x=".5" y=".5" stroke="#000000" stroke-opacity=".24" rx="4"/><g fill="#000000"><path fill-opacity=".56" d="M24.167 20.833h-8.334a.833.833 0 110-1.666h8.334a.833.833 0 110 1.666"/><path fill-opacity=".12" d="M40 8h1v24h-1z"/></g><g fill="#000000"><path fill-opacity=".56" d="M278.167 19.167h-3.334v-3.334a.833.833 0 10-1.666 0v3.334h-3.334a.833.833 0 100 1.666h3.334v3.334a.833.833 0 101.666 0v-3.334h3.334a.833.833 0 100-1.666"/><path fill-opacity=".12" d="M253 8h1v24h-1z"/></g><path fill="#000000" fill-opacity=".32" fill-rule="nonzero" d="M148.877 24c0-.396-.004-.812-.01-1.248a43.616 43.616 0 00-.128-2.695 24.702 24.702 0 00-.137-1.323c-.137-1-.333-1.89-.59-2.67A8.882 8.882 0 00147.05 14l-1.172.723c.353.537.634 1.155.843 1.855.21.7.371 1.453.484 2.258.113.805.186 1.645.219 2.52.033.876.05 1.757.05 2.644h1.404z"/></g></g></svg>