<svg xmlns="http://www.w3.org/2000/svg" width="276" height="184"><g fill="none" fill-rule="evenodd"><path d="M0 0h276v184H0z"/><g transform="translate(90 76)"><rect width="96" height="32" fill="#EA475B" rx="16"/><path fill="#FFF" d="M16.943 16l1.886-1.886a.666.666 0 10-.943-.943L16 15.057l-1.885-1.886a.667.667 0 00-.943.943L15.057 16l-1.885 1.886a.666.666 0 10.943.943L16 16.943l1.886 1.886a.665.665 0 00.943 0 .666.666 0 000-.943L16.943 16z"/><circle cx="80" cy="16" r="8" fill="#FFF"/></g></g></svg>