<svg xmlns="http://www.w3.org/2000/svg" width="276" height="184"><g fill="none" fill-rule="evenodd"><path d="M0 0h276v184H0z"/><g transform="translate(28 72)"><rect width="219" height="39" x=".5" y=".5" fill="#FFF" stroke="#000000" stroke-opacity=".24" rx="4"/><path fill="#000000" fill-opacity=".32" d="M195.005 18.747a3.75 3.75 0 117.5 0 3.75 3.75 0 01-7.5 0m10.89 5.97l-2.776-2.776a5.38 5.38 0 001.053-3.194 5.423 5.423 0 00-5.417-5.416 5.422 5.422 0 00-5.417 5.416 5.422 5.422 0 005.417 5.417c1.19 0 2.29-.391 3.185-1.045l2.777 2.776a.832.832 0 101.179-1.178"/></g></g></svg>