<svg width="276" height="184" xmlns="http://www.w3.org/2000/svg"><g fill="none" fill-rule="evenodd"><path fill="none" d="M0 0h276v184H0z"/><rect fill-opacity=".12" fill="#000000" x="46" y="96" width="184" height="1" rx=".5"/><rect fill-opacity=".12" fill="#000000" x="163" y="81" width="43" height="6" rx="1"/><rect fill-opacity=".12" fill="#000000" x="46" y="81" width="31" height="6" rx="1"/><rect fill="#EA475B" fill-rule="nonzero" x="83" y="81" width="14" height="6" rx="1"/><path d="M225.429 84.556h-.667l-.38-4.445h.19a.564.564 0 00.57-.555.564.564 0 00-.57-.556h-5.143a.564.564 0 00-.572.556c0 .306.256.555.572.555h.19l-.38 4.445h-.668a.564.564 0 00-.571.555c0 .307.255.556.571.556h2.858v2.777c0 .307.255.556.571.556a.564.564 0 00.571-.556v-2.777h2.858a.564.564 0 00.571-.556.564.564 0 00-.571-.555" fill="#EA475B" fill-rule="nonzero"/></g></svg>