<svg width="276" height="184" xmlns="http://www.w3.org/2000/svg"><g fill="none" fill-rule="evenodd"><path fill="none" d="M0 0h276v184H0z"/><path d="M102.636 89.717l3.668.304c.67.055.94.86.432 1.285l-2.786 2.328.84 3.464c.153.631-.556 1.13-1.132.794l-3.159-1.838-3.153 1.838c-.576.335-1.285-.163-1.133-.794l.837-3.464-2.787-2.328c-.507-.425-.236-1.23.433-1.285l3.668-.304 1.437-3.27c.261-.596 1.137-.596 1.398 0l1.437 3.27zM121.636 89.717l3.668.304c.67.055.94.86.432 1.285l-2.786 2.328.84 3.464c.153.631-.556 1.13-1.132.794l-3.159-1.838-3.153 1.838c-.576.335-1.285-.163-1.133-.794l.837-3.464-2.787-2.328c-.507-.425-.236-1.23.433-1.285l3.668-.304 1.437-3.27c.261-.596 1.137-.596 1.398 0l1.437 3.27zM140.636 89.717l3.668.304c.67.055.94.86.432 1.285l-2.786 2.328.84 3.464c.153.631-.556 1.13-1.132.794l-3.159-1.838-3.153 1.838c-.576.335-1.285-.163-1.133-.794l.837-3.464-2.787-2.328c-.507-.425-.236-1.23.433-1.285l3.668-.304 1.437-3.27c.261-.596 1.137-.596 1.398 0l1.437 3.27z" fill="#EA475B"/><path d="M159.636 89.717l3.668.304c.67.055.94.86.432 1.285l-2.786 2.328.84 3.464c.153.631-.556 1.13-1.132.794l-3.159-1.838-3.153 1.838c-.576.335-1.285-.163-1.133-.794l.837-3.464-2.787-2.328c-.507-.425-.236-1.23.433-1.285l3.668-.304 1.437-3.27c.261-.596 1.137-.596 1.398 0l1.437 3.27zM178.636 89.717l3.668.304c.67.055.94.86.432 1.285l-2.786 2.328.84 3.464c.153.631-.556 1.13-1.132.794l-3.159-1.838-3.153 1.838c-.576.335-1.285-.163-1.133-.794l.837-3.464-2.787-2.328c-.507-.425-.236-1.23.433-1.285l3.668-.304 1.437-3.27c.261-.596 1.137-.596 1.398 0l1.437 3.27z" fill-opacity=".12" fill="#000000"/></g></svg>