<svg width="276" height="184" xmlns="http://www.w3.org/2000/svg"><g fill="none" fill-rule="evenodd"><path fill="none" d="M0 0h276v184H0z"/><g transform="translate(28 49)"><rect stroke-opacity=".24" stroke="#000000" fill="#FFF" x=".5" y=".5" width="219" height="85" rx="4"/><path fill-opacity=".08" fill="#000000" d="M8.184 38h204v6h-204zM8.184 51h204v6h-204zM102.184 64h110v6h-110z"/><rect fill-opacity=".12" fill="#000000" x="110" y="12" width="102" height="12" rx="1"/><path d="M20.197 17.143l2.583 2.583a.669.669 0 10.945-.947l-3.056-3.056a.67.67 0 00-.945 0l-3.056 3.056a.667.667 0 000 .947.669.669 0 00.946 0l2.583-2.583z" fill-opacity=".32" fill="#000000"/></g></g></svg>