<svg xmlns="http://www.w3.org/2000/svg" width="276" height="184"><g fill="none" fill-rule="evenodd"><path d="M0 0h276v184H0z"/><g fill="#000000" transform="translate(24 84)"><rect width="60" height="16" x="168" fill-opacity=".24" rx="2"/><rect width="60" height="16" x="84" fill-opacity=".24" rx="2"/><rect width="60" height="16" fill-opacity=".12" rx="2"/><path fill-opacity=".32" d="M155.208 8l2.583-2.583a.669.669 0 10-.947-.946l-3.056 3.056a.67.67 0 000 .946l3.056 3.056a.667.667 0 00.947 0 .669.669 0 000-.946L155.208 8zM71.208 8l2.583-2.583a.669.669 0 10-.947-.946l-3.056 3.056a.67.67 0 000 .946l3.056 3.056a.667.667 0 00.947 0 .669.669 0 000-.946L71.208 8z"/></g></g></svg>