<svg xmlns="http://www.w3.org/2000/svg" width="276" height="184"><g fill="none" fill-rule="evenodd"><path d="M0 0h276v184H0z"/><g fill="#EA475B"><path fill-opacity=".12" fill-rule="nonzero" d="M138.483 78c-7.732 0-14 6.268-14 14s6.268 14 14 14 14-6.268 14-14-6.268-14-14-14zm0 4c5.523 0 10 4.477 10 10s-4.477 10-10 10c-5.522 0-10-4.477-10-10s4.478-10 10-10z"/><path d="M124.483 92c0-4.048 1.73-7.822 4.695-10.46a2 2 0 112.66 2.987A9.969 9.969 0 00128.482 92c0 5.523 4.477 10 10 10a2 2 0 110 4c-7.732 0-14-6.268-14-14z"/></g></g></svg>