<svg xmlns="http://www.w3.org/2000/svg" width="276" height="184"><g fill="none" fill-rule="evenodd"><path d="M0 0h276v184H0z"/><path fill="#FFF" stroke="#000000" stroke-opacity=".24" d="M200 68.5c.966 0 1.841.392 2.475 1.025A3.489 3.489 0 01203.5 72h0v32c0 .966-.392 1.841-1.025 2.475A3.489 3.489 0 01200 107.5h0-54.128l-7.216 7.218c-.293.292-.677.439-1.06.439-.385 0-.769-.147-1.062-.44h0l-7.217-7.217H76a3.489 3.489 0 01-2.475-1.025A3.489 3.489 0 0172.5 104h0V72c0-.966.392-1.841 1.025-2.475A3.489 3.489 0 0176 68.5h0z"/></g></svg>