<svg xmlns="http://www.w3.org/2000/svg" xmlns:xlink="http://www.w3.org/1999/xlink" width="728" height="280"><defs><path id="a" d="M2.564 0h194.872c.892 0 1.215.093 1.54.267.327.174.583.43.757.756.174.326.267.65.267 1.54v74.873c0 .892-.093 1.215-.267 1.54-.174.327-.43.583-.756.757-.326.174-.65.267-1.54.267H2.563c-.892 0-1.215-.093-1.54-.267a1.817 1.817 0 01-.757-.756C.093 78.65 0 78.327 0 77.437V2.563c0-.892.093-1.215.267-1.54.174-.327.43-.583.756-.757C1.35.093 1.673 0 2.563 0z"/><path id="c" d="M2.564 0h194.872c.892 0 1.215.093 1.54.267.327.174.583.43.757.756.174.326.267.65.267 1.54v74.873c0 .892-.093 1.215-.267 1.54-.174.327-.43.583-.756.757-.326.174-.65.267-1.54.267H2.563c-.892 0-1.215-.093-1.54-.267a1.817 1.817 0 01-.757-.756C.093 78.65 0 78.327 0 77.437V2.563c0-.892.093-1.215.267-1.54.174-.327.43-.583.756-.757C1.35.093 1.673 0 2.563 0z"/><path id="d" d="M2.564 0h194.872c.892 0 1.215.093 1.54.267.327.174.583.43.757.756.174.326.267.65.267 1.54v74.873c0 .892-.093 1.215-.267 1.54-.174.327-.43.583-.756.757-.326.174-.65.267-1.54.267H2.563c-.892 0-1.215-.093-1.54-.267a1.817 1.817 0 01-.757-.756C.093 78.65 0 78.327 0 77.437V2.563c0-.892.093-1.215.267-1.54.174-.327.43-.583.756-.757C1.35.093 1.673 0 2.563 0z"/><path id="f" d="M2.564 0h194.872c.892 0 1.215.093 1.54.267.327.174.583.43.757.756.174.326.267.65.267 1.54v74.873c0 .892-.093 1.215-.267 1.54-.174.327-.43.583-.756.757-.326.174-.65.267-1.54.267H2.563c-.892 0-1.215-.093-1.54-.267a1.817 1.817 0 01-.757-.756C.093 78.65 0 78.327 0 77.437V2.563c0-.892.093-1.215.267-1.54.174-.327.43-.583.756-.757C1.35.093 1.673 0 2.563 0z"/><path id="g" d="M2.564 0h194.872c.892 0 1.215.093 1.54.267.327.174.583.43.757.756.174.326.267.65.267 1.54v74.873c0 .892-.093 1.215-.267 1.54-.174.327-.43.583-.756.757-.326.174-.65.267-1.54.267H2.563c-.892 0-1.215-.093-1.54-.267a1.817 1.817 0 01-.757-.756C.093 78.65 0 78.327 0 77.437V2.563c0-.892.093-1.215.267-1.54.174-.327.43-.583.756-.757C1.35.093 1.673 0 2.563 0z"/><path id="i" d="M2.564 0h194.872c.892 0 1.215.093 1.54.267.327.174.583.43.757.756.174.326.267.65.267 1.54v74.873c0 .892-.093 1.215-.267 1.54-.174.327-.43.583-.756.757-.326.174-.65.267-1.54.267H2.563c-.892 0-1.215-.093-1.54-.267a1.817 1.817 0 01-.757-.756C.093 78.65 0 78.327 0 77.437V2.563c0-.892.093-1.215.267-1.54.174-.327.43-.583.756-.757C1.35.093 1.673 0 2.563 0z"/></defs><g fill="none" fill-rule="evenodd"><path d="M0 0h728v280H0z"/><g transform="translate(32 64)"><path fill="#000000" fill-opacity=".56" fill-rule="nonzero" d="M1.587 147v-3.765c.125-.252.297-.457.517-.613.22-.157.477-.235.77-.235.362 0 .629.091.8.274.17.182.258.464.26.843V147h.905v-3.491c-.009-1.261-.572-1.892-1.691-1.892-.64 0-1.161.247-1.561.74V139.5H.683v7.5h.904zm6.548.096c.603 0 1.093-.142 1.472-.426.378-.284.567-.663.567-1.135 0-.284-.068-.525-.204-.722-.137-.197-.345-.365-.624-.504-.28-.14-.645-.26-1.096-.361-.45-.102-.762-.207-.935-.318a.545.545 0 01-.258-.49c0-.233.092-.42.278-.564.185-.143.442-.215.77-.215.321 0 .586.09.795.27.209.18.313.392.313.639h.909c0-.482-.186-.877-.559-1.187-.372-.31-.859-.466-1.459-.466-.568 0-1.035.15-1.402.45-.366.3-.55.666-.55 1.098 0 .261.065.486.194.676.129.19.327.353.595.49.268.136.631.252 1.09.35.457.097.778.212.962.347a.667.667 0 01.277.572c0 .229-.104.413-.311.552-.208.14-.482.209-.824.209-.371 0-.67-.09-.896-.268a.943.943 0 01-.365-.72h-.9c0 .314.092.605.276.873.184.268.438.476.763.626.325.149.699.224 1.122.224zM12.33 147v-7.5h-.904v7.5h.904zm3.074.096c.583 0 1.084-.218 1.505-.653.032.267.074.453.126.557h.948v-.078c-.122-.287-.183-.673-.183-1.157v-2.43c-.014-.536-.194-.957-.54-1.261-.344-.304-.82-.457-1.43-.457-.382 0-.734.072-1.056.216a1.91 1.91 0 00-.763.584c-.187.247-.28.502-.28.766h.908c0-.232.109-.43.326-.592.218-.162.489-.243.813-.243.368 0 .647.093.835.28.188.187.283.439.283.755v.413h-.879c-.759 0-1.348.152-1.767.456-.419.305-.628.732-.628 1.283 0 .452.167.825.502 1.12.335.294.762.44 1.28.44zm.135-.783c-.298 0-.542-.08-.73-.24-.189-.159-.283-.38-.283-.664 0-.65.554-.974 1.661-.974h.709v1.087a1.317 1.317 0 01-.553.571c-.255.147-.523.22-.804.22zm9.061 3.557l.448-.679c-1.45-1.353-2.174-2.932-2.174-4.734.014-1.076.212-2.01.591-2.8.345-.728.873-1.39 1.583-1.987a6.718 6.718 0 01-.1-.17l-.1-.157-.096-.156a2.799 2.799 0 01-.1-.165c-.852.565-1.516 1.34-1.991 2.326a6.962 6.962 0 00-.687 3.07c0 1.095.239 2.128.717 3.1a6.835 6.835 0 001.909 2.352zm3.622-2.774c.768 0 1.332-.257 1.693-.77s.542-1.298.542-2.356v-1.174c-.01-1.024-.194-1.78-.555-2.27-.36-.49-.924-.735-1.689-.735-.774 0-1.341.255-1.702.763-.361.509-.541 1.285-.541 2.329v1.208c.014.997.203 1.747.567 2.25.364.503.925.755 1.685.755zm0-.735c-.452 0-.79-.183-1.013-.55-.223-.367-.335-.934-.335-1.702v-1.444c.006-.724.114-1.26.326-1.608.212-.348.55-.522 1.013-.522.464 0 .803.175 1.017.526.215.35.322.907.322 1.67v1.482c-.009.742-.12 1.286-.337 1.63-.216.345-.547.518-.993.518zm3.456 2.056c.247-.2.45-.464.611-.793.161-.33.241-.657.241-.985v-.709h-.882v.818c-.015.452-.174.891-.478 1.317l.508.352zm7.148-1.321c.768 0 1.333-.257 1.694-.77.36-.513.54-1.298.54-2.356v-1.174c-.008-1.024-.193-1.78-.553-2.27-.361-.49-.924-.735-1.69-.735-.774 0-1.34.255-1.702.763-.36.509-.541 1.285-.541 2.329v1.208c.014.997.204 1.747.567 2.25.364.503.926.755 1.685.755zm0-.735c-.452 0-.79-.183-1.013-.55-.223-.367-.335-.934-.335-1.702v-1.444c.006-.724.115-1.26.326-1.608.212-.348.55-.522 1.013-.522.464 0 .803.175 1.018.526.214.35.322.907.322 1.67v1.482c-.01.742-.121 1.286-.337 1.63-.216.345-.548.518-.994.518zm4.783-3.265c.42 0 .766-.137 1.037-.409.27-.273.406-.623.406-1.052v-.348c0-.444-.134-.804-.402-1.083-.268-.278-.618-.417-1.05-.417-.429 0-.779.138-1.05.415-.271.277-.407.628-.407 1.055v.343c0 .452.139.814.416 1.087.277.272.627.409 1.05.409zm0-.587a.725.725 0 01-.576-.248.92.92 0 01-.216-.626v-.357c0-.266.07-.483.21-.65.138-.166.33-.25.573-.25.24 0 .43.084.57.25.139.167.208.376.208.629v.356c0 .278-.07.497-.21.657a.708.708 0 01-.56.239zm.204 3.952l3.47-5.557-.51-.321-3.473 5.556.513.322zm3.257.643c.423 0 .77-.137 1.043-.413.273-.275.409-.626.409-1.052v-.348c0-.452-.137-.815-.411-1.089-.274-.274-.624-.41-1.05-.41-.426 0-.775.137-1.048.412-.272.276-.409.626-.409 1.053v.352c0 .452.139.814.416 1.087.276.272.626.408 1.05.408zm0-.587a.725.725 0 01-.577-.247.927.927 0 01-.215-.63v-.362c0-.275.073-.493.218-.654a.725.725 0 01.565-.241c.238 0 .427.08.57.243.141.162.212.373.212.63v.361c0 .279-.07.498-.21.66a.71.71 0 01-.563.24zm2.539 1.9c.246-.2.45-.464.61-.793.161-.33.242-.657.242-.985v-.709h-.883v.818c-.014.452-.174.891-.478 1.317l.509.352zM57.504 147v-7.143h-.143l-2.587.97v.82l1.822-.669V147h.908zm4.87.096c.768 0 1.333-.257 1.693-.77.361-.513.542-1.298.542-2.356v-1.174c-.009-1.024-.194-1.78-.555-2.27-.36-.49-.924-.735-1.689-.735-.774 0-1.341.255-1.702.763-.36.509-.541 1.285-.541 2.329v1.208c.014.997.203 1.747.567 2.25.364.503.925.755 1.685.755zm0-.735c-.452 0-.79-.183-1.013-.55-.223-.367-.335-.934-.335-1.702v-1.444c.006-.724.115-1.26.326-1.608.212-.348.55-.522 1.013-.522.464 0 .803.175 1.018.526.214.35.321.907.321 1.67v1.482c-.008.742-.12 1.286-.337 1.63-.216.345-.547.518-.993.518zm5.617.735c.768 0 1.333-.257 1.694-.77.36-.513.541-1.298.541-2.356v-1.174c-.009-1.024-.193-1.78-.554-2.27-.361-.49-.924-.735-1.69-.735-.773 0-1.34.255-1.702.763-.36.509-.54 1.285-.54 2.329v1.208c.014.997.203 1.747.567 2.25.363.503.925.755 1.684.755zm0-.735c-.452 0-.79-.183-1.013-.55-.223-.367-.335-.934-.335-1.702v-1.444c.006-.724.115-1.26.327-1.608.211-.348.549-.522 1.013-.522.463 0 .803.175 1.017.526.214.35.322.907.322 1.67v1.482c-.009.742-.121 1.286-.337 1.63-.216.345-.547.518-.994.518zm4.783-3.265c.42 0 .766-.137 1.037-.409.27-.273.406-.623.406-1.052v-.348c0-.444-.134-.804-.402-1.083-.268-.278-.618-.417-1.05-.417-.429 0-.779.138-1.05.415-.27.277-.406.628-.406 1.055v.343c0 .452.138.814.415 1.087.277.272.627.409 1.05.409zm0-.587a.725.725 0 01-.576-.248.92.92 0 01-.215-.626v-.357c0-.266.07-.483.208-.65.14-.166.33-.25.574-.25.24 0 .43.084.57.25.139.167.208.376.208.629v.356c0 .278-.07.497-.21.657a.708.708 0 01-.56.239zm.204 3.952l3.47-5.557-.509-.321-3.474 5.556.513.322zm3.257.643c.423 0 .77-.137 1.043-.413.273-.275.409-.626.409-1.052v-.348c0-.452-.137-.815-.41-1.089-.275-.274-.625-.41-1.05-.41-.427 0-.776.137-1.049.412-.272.276-.408.626-.408 1.053v.352c0 .452.138.814.415 1.087.277.272.627.408 1.05.408zm0-.587a.725.725 0 01-.576-.247.927.927 0 01-.216-.63v-.362c0-.275.073-.493.218-.654a.725.725 0 01.565-.241c.238 0 .428.08.57.243.142.162.213.373.213.63v.361c0 .279-.07.498-.211.66a.71.71 0 01-.563.24zm2.539 1.9c.246-.2.45-.464.61-.793.162-.33.242-.657.242-.985v-.709h-.883v.818c-.014.452-.173.891-.478 1.317l.509.352zm7.148-1.321c.768 0 1.332-.257 1.693-.77s.542-1.298.542-2.356v-1.174c-.01-1.024-.194-1.78-.555-2.27-.36-.49-.924-.735-1.689-.735-.774 0-1.341.255-1.702.763-.361.509-.541 1.285-.541 2.329v1.208c.014.997.203 1.747.567 2.25.364.503.925.755 1.685.755zm0-.735c-.452 0-.79-.183-1.013-.55-.223-.367-.335-.934-.335-1.702v-1.444c.006-.724.114-1.26.326-1.608.212-.348.55-.522 1.013-.522.464 0 .803.175 1.017.526.215.35.322.907.322 1.67v1.482c-.009.742-.12 1.286-.337 1.63-.216.345-.547.518-.993.518zm4.16.639a.603.603 0 00.44-.157.518.518 0 00.148-.382.556.556 0 00-.148-.404c-.105-.108-.251-.161-.44-.161-.185 0-.328.053-.43.16a.565.565 0 00-.143.405c0 .16.048.287.143.382.102.105.245.157.43.157zm3.144.004c1.104-.014 1.93-.34 2.476-.978.547-.638.82-1.648.82-3.03v-.266c0-.907-.203-1.623-.609-2.15-.406-.526-.96-.789-1.66-.789-.444 0-.832.102-1.164.305a2.008 2.008 0 00-.77.874c-.18.38-.271.807-.271 1.282 0 .444.083.849.25 1.215.166.367.402.651.706.853.305.201.661.302 1.07.302.313 0 .6-.068.863-.205.262-.136.488-.317.676-.543-.035.814-.252 1.41-.652 1.785s-.974.57-1.722.584h-.187v.761h.174zm.996-3.13c-.392 0-.703-.157-.935-.47-.232-.313-.348-.713-.348-1.2 0-.498.12-.9.361-1.204.24-.304.56-.457.957-.457.394 0 .72.186.976.557.256.371.384.854.384 1.448v.36a1.63 1.63 0 01-.556.688 1.396 1.396 0 01-.84.278zm5.765 3.222c.675 0 1.221-.182 1.637-.546.416-.364.624-.853.624-1.467 0-.389-.109-.736-.326-1.042a2.047 2.047 0 00-.883-.698c.319-.156.573-.373.761-.65.188-.276.283-.592.283-.945 0-.6-.194-1.076-.58-1.428-.388-.353-.893-.529-1.516-.529-.629 0-1.136.176-1.52.529-.384.352-.576.828-.576 1.428 0 .35.092.664.274.941.183.277.432.494.748.65-.371.16-.662.394-.872.702-.21.309-.315.656-.315 1.042 0 .611.206 1.1.617 1.465.412.365.96.548 1.644.548zm0-4.126c-.362 0-.651-.111-.867-.333-.216-.222-.324-.514-.324-.876 0-.377.11-.675.328-.896.219-.22.506-.33.863-.33.345 0 .63.114.854.341.225.228.337.523.337.885s-.108.654-.326.876c-.217.222-.506.333-.865.333zm0 3.39c-.426 0-.759-.115-.998-.347-.239-.232-.359-.55-.359-.952 0-.403.123-.728.368-.976s.572-.372.98-.372c.406 0 .735.125.987.376.252.25.378.575.378.972 0 .4-.12.717-.36.95-.241.233-.573.35-.996.35zm3.613 3.51a6.79 6.79 0 001.904-2.353 6.89 6.89 0 00.722-3.1 6.925 6.925 0 00-.696-3.06c-.478-.989-1.139-1.767-1.982-2.335-.047.075-.112.182-.196.321l-.1.157a6.72 6.72 0 01-.1.17c.71.597 1.238 1.259 1.583 1.987.38.79.577 1.724.591 2.8 0 1.802-.725 3.38-2.174 4.734.061.084.136.196.226.335l.109.17.113.174zM2.474 129l1.252-4.004L5.01 129h.734l1.535-5.283h-.9l-1.017 4.04-1.257-4.04h-.726l-1.23 3.957-1.04-3.957h-.9L1.744 129h.73zm6.626 0v-3.765c.125-.252.297-.457.517-.613.22-.157.477-.235.77-.235.362 0 .629.091.8.274.171.182.258.464.26.843V129h.905v-3.491c-.009-1.261-.572-1.892-1.691-1.892-.64 0-1.161.247-1.561.74V121.5h-.904v7.5H9.1zm5.143-6.174c.174 0 .307-.048.398-.146a.515.515 0 00.137-.367.533.533 0 00-.137-.37c-.091-.101-.224-.152-.398-.152-.176 0-.31.051-.4.152a.544.544 0 00-.134.374c0 .145.045.266.134.363.09.098.224.146.4.146zm.444 6.174v-5.283h-.904V129h.904zm2.987.096c.226 0 .458-.032.696-.096v-.73a2.27 2.27 0 01-.43.056c-.212 0-.362-.053-.45-.159-.09-.105-.133-.264-.133-.476v-3.278h.986v-.696h-.986v-1.278h-.905v1.278h-.96v.696h.96v3.278c0 .45.103.796.309 1.04.206.243.51.365.913.365zm3.913 0c.887 0 1.552-.34 1.996-1.018l-.553-.43a2.093 2.093 0 01-.582.517c-.22.13-.49.196-.809.196-.45 0-.82-.16-1.11-.48-.292-.32-.445-.742-.46-1.264h3.579v-.378c0-.84-.19-1.488-.57-1.941-.38-.454-.913-.68-1.6-.68-.42 0-.81.116-1.17.35-.359.233-.64.555-.84.967-.202.411-.303.88-.303 1.404v.165c0 .789.225 1.418.674 1.887.45.47 1.032.705 1.748.705zm1.16-3.222H20.1c.058-.478.21-.85.459-1.115.248-.266.554-.398.92-.398.376 0 .675.126.897.378.222.252.346.609.372 1.07v.065zm5.875 4.443v-8.426h-.726v8.426h.726zM34.087 129v-3.765c.125-.252.297-.457.517-.613.22-.157.477-.235.77-.235.362 0 .629.091.8.274.17.182.258.464.26.843V129h.905v-3.491c-.009-1.261-.572-1.892-1.691-1.892-.65 0-1.177.255-1.583.766l-.026-.666h-.856V129h.904zm6.243.096c.583 0 1.084-.218 1.505-.653.032.267.074.453.126.557h.948v-.078c-.122-.287-.183-.673-.183-1.157v-2.43c-.014-.536-.194-.957-.539-1.261-.345-.304-.822-.457-1.43-.457-.383 0-.735.072-1.057.216a1.91 1.91 0 00-.763.584c-.187.247-.28.502-.28.766h.908c0-.232.109-.43.326-.592.218-.162.489-.243.813-.243.368 0 .647.093.835.28.189.187.283.439.283.755v.413h-.879c-.759 0-1.348.152-1.767.456-.419.305-.628.732-.628 1.283 0 .452.167.825.502 1.12.335.294.762.44 1.28.44zm.135-.783c-.298 0-.542-.08-.73-.24-.189-.159-.283-.38-.283-.664 0-.65.554-.974 1.661-.974h.709v1.087a1.317 1.317 0 01-.552.571c-.256.147-.524.22-.805.22zm5.757.687l1.891-5.283h-.922l-1.308 4.057-1.344-4.057h-.922L45.53 129h.692z"/><path fill="#000000" fill-opacity=".87" fill-rule="nonzero" d="M3.445 106.134c.828 0 1.492-.3 1.99-.901l.08.767h1.503V95.5H5.357v3.786c-.483-.548-1.116-.822-1.9-.822-.888 0-1.596.346-2.124 1.038-.527.692-.791 1.606-.791 2.742 0 1.202.268 2.15.803 2.846.536.696 1.236 1.044 2.1 1.044zm.426-1.351c-.535 0-.947-.211-1.235-.633-.288-.422-.433-1.009-.433-1.76 0-.856.146-1.497.436-1.923.29-.426.705-.64 1.244-.64.678 0 1.17.297 1.474.89v3.159c-.313.604-.808.907-1.486.907zm5.82-7.226c.3 0 .532-.083.696-.25a.856.856 0 00.247-.626.874.874 0 00-.247-.636c-.164-.169-.396-.253-.697-.253-.3 0-.531.084-.693.253a.88.88 0 00-.244.636c0 .251.081.46.244.627.162.166.393.25.693.25zm.827 8.443v-7.396H8.857V106h1.661zm5.132 0l2.562-7.396h-1.716l-1.565 5.29-1.582-5.29h-1.723L14.207 106h1.443zm4.54-8.443c.3 0 .533-.083.697-.25a.856.856 0 00.247-.626.874.874 0 00-.247-.636c-.164-.169-.396-.253-.697-.253-.3 0-.531.084-.693.253a.88.88 0 00-.244.636c0 .251.081.46.244.627.162.166.393.25.693.25zm.828 8.443v-7.396h-1.661V106h1.661zm4.401.134c.828 0 1.491-.3 1.99-.901l.08.767h1.503V95.5H27.33v3.786c-.482-.548-1.116-.822-1.899-.822-.888 0-1.597.346-2.124 1.038-.528.692-.791 1.606-.791 2.742 0 1.202.267 2.15.803 2.846.536.696 1.236 1.044 2.1 1.044zm.426-1.351c-.535 0-.947-.211-1.235-.633-.289-.422-.433-1.009-.433-1.76 0-.856.145-1.497.436-1.923.29-.426.705-.64 1.244-.64.678 0 1.17.297 1.473.89v3.159c-.312.604-.807.907-1.485.907zm8.138 1.35a3.71 3.71 0 001.665-.364 2.99 2.99 0 001.184-1.029l-.895-.852c-.478.617-1.097.925-1.856.925-.544 0-.994-.179-1.351-.536-.358-.357-.562-.84-.615-1.448h4.833v-.67c0-1.177-.274-2.087-.822-2.73-.548-.643-1.325-.965-2.331-.965-.637 0-1.213.163-1.726.487a3.283 3.283 0 00-1.199 1.358c-.286.58-.43 1.24-.43 1.978v.207c0 1.104.329 1.986.984 2.648.655.661 1.508.992 2.56.992zm1.327-4.522h-3.165c.077-.568.256-1.012.536-1.333.28-.32.647-.48 1.102-.48.462 0 .823.142 1.083.429.26.286.408.707.444 1.263v.121zM39.894 106v-5.058c.264-.585.777-.877 1.54-.877.231 0 .456.018.676.055l.006-1.558a1.515 1.515 0 00-.585-.098c-.714 0-1.27.323-1.668.968l-.042-.828h-1.589V106h1.662zm6.489-3.56v-1.34h-3.586v1.34h3.586zm3.14 3.56V95.5h-1.661V106h1.661zm2.746-8.443c.3 0 .532-.083.697-.25a.856.856 0 00.246-.626.874.874 0 00-.246-.636c-.165-.169-.397-.253-.697-.253-.3 0-.532.084-.694.253a.88.88 0 00-.244.636c0 .251.081.46.244.627.162.166.393.25.694.25zm.828 8.443v-7.396h-1.662V106h1.662zm4.686 2.91c1.027 0 1.842-.28 2.444-.84.603-.56.904-1.325.904-2.295v-7.17H59.64l-.08.742c-.482-.588-1.146-.883-1.99-.883-.892 0-1.609.343-2.148 1.029-.54.686-.81 1.603-.81 2.751 0 1.218.275 2.17.825 2.858.55.688 1.257 1.032 2.121 1.032.8 0 1.439-.266 1.918-.797v.499c0 .58-.16 1.02-.481 1.317-.32.299-.757.448-1.309.448-.747 0-1.374-.304-1.88-.913l-.792.998c.272.365.666.66 1.184.886a3.937 3.937 0 001.585.338zm.201-4.127c-.54 0-.96-.213-1.263-.64-.302-.426-.453-1.01-.453-1.753 0-.844.151-1.482.453-1.914.303-.432.728-.648 1.276-.648.67 0 1.162.28 1.479.84v3.256c-.325.573-.822.859-1.492.859zM64.48 106v-5.283c.329-.593.826-.89 1.491-.89.427 0 .75.106.971.317.221.211.332.573.332 1.084V106h1.662v-4.833c-.025-1.802-.824-2.703-2.398-2.703-.832 0-1.518.315-2.058.944V95.5h-1.662V106h1.662zm8.467.134c.353 0 .718-.05 1.096-.152v-1.29a2.377 2.377 0 01-.579.072c-.288 0-.487-.063-.6-.188-.11-.126-.166-.331-.166-.615v-4.127h1.302v-1.23h-1.302V96.81h-1.662v1.795h-1.218v1.23h1.218v4.188c0 1.408.637 2.112 1.911 2.112z"/><mask id="b" fill="#fff"><use xlink:href="#a"/></mask><path stroke="#000000" stroke-opacity=".12" d="M197.436-.5c1.033 0 1.4.125 1.777.326.414.222.74.547.96.961.202.376.327.744.327 1.777h0v74.872c0 1.033-.125 1.4-.326 1.777a2.31 2.31 0 01-.961.96c-.376.202-.744.327-1.777.327h0H2.564c-1.033 0-1.4-.125-1.777-.326a2.31 2.31 0 01-.96-.961c-.202-.376-.327-.744-.327-1.777h0V2.564c0-1.033.125-1.4.326-1.777a2.31 2.31 0 01.961-.96C1.163-.376 1.531-.5 2.564-.5h194.872z"/><g stroke="#000000" stroke-width=".2" stroke-linecap="round" stroke-opacity=".24" mask="url(#b)"><path d="M-.781 8.5h265.688M-.781 16.5h265.688M-.781 24.5h265.688M-.781 32.5h265.688M-.781 40.5h265.688M-.781 48.5h265.688M-.781 56.5h265.688M-.781 64.5h265.688M-.781 72.5h265.688"/><g><path d="M71.219 0v80M79.219 0v80M87.219 0v80M95.219 0v80M103.219 0v80M111.219 0v80M119.219 0v80M63.219 0v80M55.219 0v80M47.219 0v80M39.219 0v80M31.219 0v80M23.219 0v80M15.219 0v80M7.219 0v80M193.219 0v80M201.219 0v80M209.219 0v80M217.219 0v80M225.219 0v80M233.219 0v80M241.219 0v80M185.219 0v80M177.219 0v80M169.219 0v80M161.219 0v80M153.219 0v80M145.219 0v80M137.219 0v80M129.219 0v80"/></g></g><use fill="#FFF" fill-opacity=".98" xlink:href="#c"/></g><g transform="translate(264 64)"><path fill="#000000" fill-opacity=".56" fill-rule="nonzero" d="M1.587 147v-3.765c.125-.252.297-.457.517-.613.22-.157.477-.235.77-.235.362 0 .629.091.8.274.17.182.258.464.26.843V147h.905v-3.491c-.009-1.261-.572-1.892-1.691-1.892-.64 0-1.161.247-1.561.74V139.5H.683v7.5h.904zm6.548.096c.603 0 1.093-.142 1.472-.426.378-.284.567-.663.567-1.135 0-.284-.068-.525-.204-.722-.137-.197-.345-.365-.624-.504-.28-.14-.645-.26-1.096-.361-.45-.102-.762-.207-.935-.318a.545.545 0 01-.258-.49c0-.233.092-.42.278-.564.185-.143.442-.215.77-.215.321 0 .586.09.795.27.209.18.313.392.313.639h.909c0-.482-.186-.877-.559-1.187-.372-.31-.859-.466-1.459-.466-.568 0-1.035.15-1.402.45-.366.3-.55.666-.55 1.098 0 .261.065.486.194.676.129.19.327.353.595.49.268.136.631.252 1.09.35.457.097.778.212.962.347a.667.667 0 01.277.572c0 .229-.104.413-.311.552-.208.14-.482.209-.824.209-.371 0-.67-.09-.896-.268a.943.943 0 01-.365-.72h-.9c0 .314.092.605.276.873.184.268.438.476.763.626.325.149.699.224 1.122.224zM12.33 147v-7.5h-.904v7.5h.904zm3.074.096c.583 0 1.084-.218 1.505-.653.032.267.074.453.126.557h.948v-.078c-.122-.287-.183-.673-.183-1.157v-2.43c-.014-.536-.194-.957-.54-1.261-.344-.304-.82-.457-1.43-.457-.382 0-.734.072-1.056.216a1.91 1.91 0 00-.763.584c-.187.247-.28.502-.28.766h.908c0-.232.109-.43.326-.592.218-.162.489-.243.813-.243.368 0 .647.093.835.28.188.187.283.439.283.755v.413h-.879c-.759 0-1.348.152-1.767.456-.419.305-.628.732-.628 1.283 0 .452.167.825.502 1.12.335.294.762.44 1.28.44zm.135-.783c-.298 0-.542-.08-.73-.24-.189-.159-.283-.38-.283-.664 0-.65.554-.974 1.661-.974h.709v1.087a1.317 1.317 0 01-.553.571c-.255.147-.523.22-.804.22zm9.061 3.557l.448-.679c-1.45-1.353-2.174-2.932-2.174-4.734.014-1.076.212-2.01.591-2.8.345-.728.873-1.39 1.583-1.987a6.718 6.718 0 01-.1-.17l-.1-.157-.096-.156a2.799 2.799 0 01-.1-.165c-.852.565-1.516 1.34-1.991 2.326a6.962 6.962 0 00-.687 3.07c0 1.095.239 2.128.717 3.1a6.835 6.835 0 001.909 2.352zm3.622-2.774c.768 0 1.332-.257 1.693-.77s.542-1.298.542-2.356v-1.174c-.01-1.024-.194-1.78-.555-2.27-.36-.49-.924-.735-1.689-.735-.774 0-1.341.255-1.702.763-.361.509-.541 1.285-.541 2.329v1.208c.014.997.203 1.747.567 2.25.364.503.925.755 1.685.755zm0-.735c-.452 0-.79-.183-1.013-.55-.223-.367-.335-.934-.335-1.702v-1.444c.006-.724.114-1.26.326-1.608.212-.348.55-.522 1.013-.522.464 0 .803.175 1.017.526.215.35.322.907.322 1.67v1.482c-.009.742-.12 1.286-.337 1.63-.216.345-.547.518-.993.518zm3.456 2.056c.247-.2.45-.464.611-.793.161-.33.241-.657.241-.985v-.709h-.882v.818c-.015.452-.174.891-.478 1.317l.508.352zm7.148-1.321c.768 0 1.333-.257 1.694-.77.36-.513.54-1.298.54-2.356v-1.174c-.008-1.024-.193-1.78-.553-2.27-.361-.49-.924-.735-1.69-.735-.774 0-1.34.255-1.702.763-.36.509-.541 1.285-.541 2.329v1.208c.014.997.204 1.747.567 2.25.364.503.926.755 1.685.755zm0-.735c-.452 0-.79-.183-1.013-.55-.223-.367-.335-.934-.335-1.702v-1.444c.006-.724.115-1.26.326-1.608.212-.348.55-.522 1.013-.522.464 0 .803.175 1.018.526.214.35.322.907.322 1.67v1.482c-.01.742-.121 1.286-.337 1.63-.216.345-.548.518-.994.518zm4.783-3.265c.42 0 .766-.137 1.037-.409.27-.273.406-.623.406-1.052v-.348c0-.444-.134-.804-.402-1.083-.268-.278-.618-.417-1.05-.417-.429 0-.779.138-1.05.415-.271.277-.407.628-.407 1.055v.343c0 .452.139.814.416 1.087.277.272.627.409 1.05.409zm0-.587a.725.725 0 01-.576-.248.92.92 0 01-.216-.626v-.357c0-.266.07-.483.21-.65.138-.166.33-.25.573-.25.24 0 .43.084.57.25.139.167.208.376.208.629v.356c0 .278-.07.497-.21.657a.708.708 0 01-.56.239zm.204 3.952l3.47-5.557-.51-.321-3.473 5.556.513.322zm3.257.643c.423 0 .77-.137 1.043-.413.273-.275.409-.626.409-1.052v-.348c0-.452-.137-.815-.411-1.089-.274-.274-.624-.41-1.05-.41-.426 0-.775.137-1.048.412-.272.276-.409.626-.409 1.053v.352c0 .452.139.814.416 1.087.276.272.626.408 1.05.408zm0-.587a.725.725 0 01-.577-.247.927.927 0 01-.215-.63v-.362c0-.275.073-.493.218-.654a.725.725 0 01.565-.241c.238 0 .427.08.57.243.141.162.212.373.212.63v.361c0 .279-.07.498-.21.66a.71.71 0 01-.563.24zm2.539 1.9c.246-.2.45-.464.61-.793.161-.33.242-.657.242-.985v-.709h-.883v.818c-.014.452-.174.891-.478 1.317l.509.352zM57.504 147v-7.143h-.143l-2.587.97v.82l1.822-.669V147h.908zm4.87.096c.768 0 1.333-.257 1.693-.77.361-.513.542-1.298.542-2.356v-1.174c-.009-1.024-.194-1.78-.555-2.27-.36-.49-.924-.735-1.689-.735-.774 0-1.341.255-1.702.763-.36.509-.541 1.285-.541 2.329v1.208c.014.997.203 1.747.567 2.25.364.503.925.755 1.685.755zm0-.735c-.452 0-.79-.183-1.013-.55-.223-.367-.335-.934-.335-1.702v-1.444c.006-.724.115-1.26.326-1.608.212-.348.55-.522 1.013-.522.464 0 .803.175 1.018.526.214.35.321.907.321 1.67v1.482c-.008.742-.12 1.286-.337 1.63-.216.345-.547.518-.993.518zm5.617.735c.768 0 1.333-.257 1.694-.77.36-.513.541-1.298.541-2.356v-1.174c-.009-1.024-.193-1.78-.554-2.27-.361-.49-.924-.735-1.69-.735-.773 0-1.34.255-1.702.763-.36.509-.54 1.285-.54 2.329v1.208c.014.997.203 1.747.567 2.25.363.503.925.755 1.684.755zm0-.735c-.452 0-.79-.183-1.013-.55-.223-.367-.335-.934-.335-1.702v-1.444c.006-.724.115-1.26.327-1.608.211-.348.549-.522 1.013-.522.463 0 .803.175 1.017.526.214.35.322.907.322 1.67v1.482c-.009.742-.121 1.286-.337 1.63-.216.345-.547.518-.994.518zm4.783-3.265c.42 0 .766-.137 1.037-.409.27-.273.406-.623.406-1.052v-.348c0-.444-.134-.804-.402-1.083-.268-.278-.618-.417-1.05-.417-.429 0-.779.138-1.05.415-.27.277-.406.628-.406 1.055v.343c0 .452.138.814.415 1.087.277.272.627.409 1.05.409zm0-.587a.725.725 0 01-.576-.248.92.92 0 01-.215-.626v-.357c0-.266.07-.483.208-.65.14-.166.33-.25.574-.25.24 0 .43.084.57.25.139.167.208.376.208.629v.356c0 .278-.07.497-.21.657a.708.708 0 01-.56.239zm.204 3.952l3.47-5.557-.509-.321-3.474 5.556.513.322zm3.257.643c.423 0 .77-.137 1.043-.413.273-.275.409-.626.409-1.052v-.348c0-.452-.137-.815-.41-1.089-.275-.274-.625-.41-1.05-.41-.427 0-.776.137-1.049.412-.272.276-.408.626-.408 1.053v.352c0 .452.138.814.415 1.087.277.272.627.408 1.05.408zm0-.587a.725.725 0 01-.576-.247.927.927 0 01-.216-.63v-.362c0-.275.073-.493.218-.654a.725.725 0 01.565-.241c.238 0 .428.08.57.243.142.162.213.373.213.63v.361c0 .279-.07.498-.211.66a.71.71 0 01-.563.24zm2.539 1.9c.246-.2.45-.464.61-.793.162-.33.242-.657.242-.985v-.709h-.883v.818c-.014.452-.173.891-.478 1.317l.509.352zm7.148-1.321c.768 0 1.332-.257 1.693-.77s.542-1.298.542-2.356v-1.174c-.01-1.024-.194-1.78-.555-2.27-.36-.49-.924-.735-1.689-.735-.774 0-1.341.255-1.702.763-.361.509-.541 1.285-.541 2.329v1.208c.014.997.203 1.747.567 2.25.364.503.925.755 1.685.755zm0-.735c-.452 0-.79-.183-1.013-.55-.223-.367-.335-.934-.335-1.702v-1.444c.006-.724.114-1.26.326-1.608.212-.348.55-.522 1.013-.522.464 0 .803.175 1.017.526.215.35.322.907.322 1.67v1.482c-.009.742-.12 1.286-.337 1.63-.216.345-.547.518-.993.518zm4.16.639a.603.603 0 00.44-.157.518.518 0 00.148-.382.556.556 0 00-.148-.404c-.105-.108-.251-.161-.44-.161-.185 0-.328.053-.43.16a.565.565 0 00-.143.405c0 .16.048.287.143.382.102.105.245.157.43.157zm3.714 0l2.947-6.6v-.509h-4.808v.744h3.848L92.848 147h.948zm6.195.096c.768 0 1.333-.257 1.694-.77.36-.513.541-1.298.541-2.356v-1.174c-.009-1.024-.193-1.78-.554-2.27-.361-.49-.924-.735-1.69-.735-.773 0-1.34.255-1.702.763-.36.509-.54 1.285-.54 2.329v1.208c.014.997.203 1.747.567 2.25.363.503.925.755 1.684.755zm0-.735c-.452 0-.79-.183-1.013-.55-.223-.367-.335-.934-.335-1.702v-1.444c.006-.724.115-1.26.327-1.608.211-.348.549-.522 1.013-.522.463 0 .803.175 1.017.526.214.35.322.907.322 1.67v1.482c-.009.742-.121 1.286-.337 1.63-.216.345-.547.518-.994.518zm3.609 3.509a6.79 6.79 0 001.904-2.353 6.89 6.89 0 00.722-3.1 6.925 6.925 0 00-.696-3.06c-.478-.989-1.139-1.767-1.982-2.335-.047.075-.112.182-.196.321l-.1.157a6.72 6.72 0 01-.1.17c.71.597 1.238 1.259 1.583 1.987.38.79.577 1.724.591 2.8 0 1.802-.725 3.38-2.174 4.734.061.084.136.196.226.335l.109.17.113.174zM2.474 129l1.252-4.004L5.01 129h.734l1.535-5.283h-.9l-1.017 4.04-1.257-4.04h-.726l-1.23 3.957-1.04-3.957h-.9L1.744 129h.73zm6.626 0v-3.765c.125-.252.297-.457.517-.613.22-.157.477-.235.77-.235.362 0 .629.091.8.274.171.182.258.464.26.843V129h.905v-3.491c-.009-1.261-.572-1.892-1.691-1.892-.64 0-1.161.247-1.561.74V121.5h-.904v7.5H9.1zm5.143-6.174c.174 0 .307-.048.398-.146a.515.515 0 00.137-.367.533.533 0 00-.137-.37c-.091-.101-.224-.152-.398-.152-.176 0-.31.051-.4.152a.544.544 0 00-.134.374c0 .145.045.266.134.363.09.098.224.146.4.146zm.444 6.174v-5.283h-.904V129h.904zm2.987.096c.226 0 .458-.032.696-.096v-.73a2.27 2.27 0 01-.43.056c-.212 0-.362-.053-.45-.159-.09-.105-.133-.264-.133-.476v-3.278h.986v-.696h-.986v-1.278h-.905v1.278h-.96v.696h.96v3.278c0 .45.103.796.309 1.04.206.243.51.365.913.365zm3.913 0c.887 0 1.552-.34 1.996-1.018l-.553-.43a2.093 2.093 0 01-.582.517c-.22.13-.49.196-.809.196-.45 0-.82-.16-1.11-.48-.292-.32-.445-.742-.46-1.264h3.579v-.378c0-.84-.19-1.488-.57-1.941-.38-.454-.913-.68-1.6-.68-.42 0-.81.116-1.17.35-.359.233-.64.555-.84.967-.202.411-.303.88-.303 1.404v.165c0 .789.225 1.418.674 1.887.45.47 1.032.705 1.748.705zm1.16-3.222H20.1c.058-.478.21-.85.459-1.115.248-.266.554-.398.92-.398.376 0 .675.126.897.378.222.252.346.609.372 1.07v.065zm5.875 4.443v-8.426h-.726v8.426h.726zm6.504-1.221c.603 0 1.094-.142 1.472-.426.378-.284.567-.663.567-1.135 0-.284-.068-.525-.204-.722-.136-.197-.344-.365-.624-.504-.28-.14-.645-.26-1.096-.361-.45-.102-.762-.207-.934-.318a.545.545 0 01-.26-.49c0-.233.094-.42.28-.564.185-.143.441-.215.769-.215.321 0 .587.09.795.27.209.18.313.392.313.639h.909c0-.482-.186-.877-.559-1.187-.372-.31-.858-.466-1.458-.466-.568 0-1.036.15-1.403.45-.366.3-.55.666-.55 1.098 0 .261.065.486.194.676.129.19.327.353.596.49.268.136.63.252 1.089.35.458.097.779.212.963.347a.667.667 0 01.276.572c0 .229-.104.413-.311.552-.207.14-.482.209-.824.209-.37 0-.67-.09-.896-.268a.943.943 0 01-.365-.72h-.9c0 .314.092.605.276.873.184.268.439.476.763.626.325.149.699.224 1.122.224zm5.404 0c.887 0 1.553-.34 1.996-1.018l-.552-.43a2.093 2.093 0 01-.583.517c-.22.13-.49.196-.808.196-.45 0-.82-.16-1.111-.48-.292-.32-.444-.742-.459-1.264h3.578v-.378c0-.84-.19-1.488-.57-1.941-.379-.454-.912-.68-1.6-.68-.42 0-.81.116-1.169.35-.36.233-.64.555-.841.967-.202.411-.302.88-.302 1.404v.165c0 .789.224 1.418.674 1.887.449.47 1.031.705 1.747.705zm1.161-3.222h-2.648c.058-.478.211-.85.46-1.115.247-.266.554-.398.919-.398.377 0 .676.126.898.378.221.252.345.609.371 1.07v.065zm4.07 3.222c.356 0 .695-.082 1.015-.244.32-.162.577-.38.77-.654.192-.274.297-.562.315-.863h-.857c-.026.293-.16.537-.4.732-.24.196-.521.294-.843.294-.467 0-.825-.165-1.076-.494-.25-.329-.376-.797-.376-1.406v-.17c0-.626.126-1.104.378-1.434.252-.33.609-.496 1.07-.496.339 0 .625.11.858.33.234.22.363.502.39.844h.856c-.026-.568-.236-1.03-.628-1.385-.393-.355-.885-.533-1.476-.533-.485 0-.903.111-1.255.333a2.175 2.175 0 00-.813.933c-.19.4-.285.858-.285 1.374v.152c0 .832.213 1.487.637 1.967.425.48.998.72 1.72.72zm5.282 0c.476 0 .897-.114 1.264-.342.366-.227.647-.545.843-.954.196-.409.293-.87.293-1.383v-.065c0-.826-.221-1.488-.665-1.987-.443-.498-1.024-.748-1.743-.748a2.31 2.31 0 00-1.244.337 2.286 2.286 0 00-.85.959c-.204.415-.306.88-.306 1.396v.065c0 .82.222 1.479.667 1.976.445.497 1.026.746 1.741.746zm0-.735c-.455 0-.818-.178-1.09-.533-.273-.355-.41-.825-.41-1.41 0-.661.137-1.17.411-1.525a1.3 1.3 0 011.08-.532c.456 0 .821.18 1.096.539.276.36.413.829.413 1.409 0 .649-.135 1.153-.406 1.513a1.3 1.3 0 01-1.094.539zm4.44.639v-3.765c.124-.252.297-.457.517-.613.22-.157.477-.235.77-.235.362 0 .629.091.8.274.17.182.258.464.26.843V129h.905v-3.491c-.009-1.261-.573-1.892-1.692-1.892-.649 0-1.176.255-1.582.766l-.026-.666h-.857V129h.905zm6.47.096c.643 0 1.146-.22 1.508-.661l.043.565h.83v-7.5h-.904v2.752c-.359-.423-.849-.635-1.47-.635-.62 0-1.122.247-1.506.742-.384.494-.576 1.145-.576 1.954v.07c0 .808.193 1.463.579 1.963.385.5.884.75 1.495.75zm.225-.766c-.437 0-.78-.168-1.028-.506-.248-.338-.372-.807-.372-1.407 0-.67.124-1.175.372-1.517.248-.342.593-.513 1.037-.513.56 0 .974.25 1.243.748v2.426c-.263.513-.68.77-1.252.77zm5.187.766c.583 0 1.084-.218 1.505-.653.031.267.073.453.126.557h.947v-.078c-.121-.287-.182-.673-.182-1.157v-2.43c-.015-.536-.194-.957-.54-1.261-.344-.304-.821-.457-1.43-.457-.382 0-.734.072-1.056.216a1.91 1.91 0 00-.763.584c-.187.247-.28.502-.28.766h.908c0-.232.109-.43.326-.592.217-.162.488-.243.813-.243.368 0 .647.093.835.28.188.187.283.439.283.755v.413h-.879c-.76 0-1.348.152-1.767.456-.419.305-.628.732-.628 1.283 0 .452.167.825.502 1.12.335.294.761.44 1.28.44zm.135-.783c-.299 0-.542-.08-.73-.24-.189-.159-.283-.38-.283-.664 0-.65.554-.974 1.66-.974h.71v1.087a1.317 1.317 0 01-.553.571c-.255.147-.523.22-.804.22zm4.578.687v-3.752c.212-.505.613-.757 1.205-.757.159 0 .308.012.447.035v-.839a.93.93 0 00-.404-.07c-.542 0-.96.237-1.256.71l-.018-.61h-.878V129h.904zm2.713 2.135c.716 0 1.24-.44 1.57-1.318l2.122-6.1h-.966l-1.23 3.961-1.317-3.96h-.987l1.882 5.225-.2.535c-.11.328-.25.554-.422.679-.17.124-.41.186-.717.186l-.243-.021v.735l.339.06.17.018z"/><path fill="#000000" fill-opacity=".87" fill-rule="nonzero" d="M3.445 106.134c.828 0 1.492-.3 1.99-.901l.08.767h1.503V95.5H5.357v3.786c-.483-.548-1.116-.822-1.9-.822-.888 0-1.596.346-2.124 1.038-.527.692-.791 1.606-.791 2.742 0 1.202.268 2.15.803 2.846.536.696 1.236 1.044 2.1 1.044zm.426-1.351c-.535 0-.947-.211-1.235-.633-.288-.422-.433-1.009-.433-1.76 0-.856.146-1.497.436-1.923.29-.426.705-.64 1.244-.64.678 0 1.17.297 1.474.89v3.159c-.313.604-.808.907-1.486.907zm5.82-7.226c.3 0 .532-.083.696-.25a.856.856 0 00.247-.626.874.874 0 00-.247-.636c-.164-.169-.396-.253-.697-.253-.3 0-.531.084-.693.253a.88.88 0 00-.244.636c0 .251.081.46.244.627.162.166.393.25.693.25zm.827 8.443v-7.396H8.857V106h1.661zm5.132 0l2.562-7.396h-1.716l-1.565 5.29-1.582-5.29h-1.723L14.207 106h1.443zm4.54-8.443c.3 0 .533-.083.697-.25a.856.856 0 00.247-.626.874.874 0 00-.247-.636c-.164-.169-.396-.253-.697-.253-.3 0-.531.084-.693.253a.88.88 0 00-.244.636c0 .251.081.46.244.627.162.166.393.25.693.25zm.828 8.443v-7.396h-1.661V106h1.661zm4.401.134c.828 0 1.491-.3 1.99-.901l.08.767h1.503V95.5H27.33v3.786c-.482-.548-1.116-.822-1.899-.822-.888 0-1.597.346-2.124 1.038-.528.692-.791 1.606-.791 2.742 0 1.202.267 2.15.803 2.846.536.696 1.236 1.044 2.1 1.044zm.426-1.351c-.535 0-.947-.211-1.235-.633-.289-.422-.433-1.009-.433-1.76 0-.856.145-1.497.436-1.923.29-.426.705-.64 1.244-.64.678 0 1.17.297 1.473.89v3.159c-.312.604-.807.907-1.485.907zm8.138 1.35a3.71 3.71 0 001.665-.364 2.99 2.99 0 001.184-1.029l-.895-.852c-.478.617-1.097.925-1.856.925-.544 0-.994-.179-1.351-.536-.358-.357-.562-.84-.615-1.448h4.833v-.67c0-1.177-.274-2.087-.822-2.73-.548-.643-1.325-.965-2.331-.965-.637 0-1.213.163-1.726.487a3.283 3.283 0 00-1.199 1.358c-.286.58-.43 1.24-.43 1.978v.207c0 1.104.329 1.986.984 2.648.655.661 1.508.992 2.56.992zm1.327-4.522h-3.165c.077-.568.256-1.012.536-1.333.28-.32.647-.48 1.102-.48.462 0 .823.142 1.083.429.26.286.408.707.444 1.263v.121zM39.894 106v-5.058c.264-.585.777-.877 1.54-.877.231 0 .456.018.676.055l.006-1.558a1.515 1.515 0 00-.585-.098c-.714 0-1.27.323-1.668.968l-.042-.828h-1.589V106h1.662zm8.704 1.309V106h-6.27v1.309h6.27zM51.246 106V95.5h-1.662V106h1.662zm2.745-8.443c.3 0 .533-.083.697-.25a.856.856 0 00.247-.626.874.874 0 00-.247-.636c-.164-.169-.396-.253-.697-.253-.3 0-.531.084-.694.253a.88.88 0 00-.243.636c0 .251.081.46.243.627.163.166.394.25.694.25zM54.82 106v-7.396h-1.662V106h1.662zm4.687 2.91c1.027 0 1.841-.28 2.444-.84.603-.56.904-1.325.904-2.295v-7.17h-1.491l-.08.742c-.482-.588-1.146-.883-1.99-.883-.893 0-1.609.343-2.149 1.029-.54.686-.81 1.603-.81 2.751 0 1.218.276 2.17.826 2.858.55.688 1.257 1.032 2.12 1.032.8 0 1.44-.266 1.918-.797v.499c0 .58-.16 1.02-.48 1.317-.321.299-.757.448-1.31.448-.746 0-1.373-.304-1.88-.913l-.791.998c.271.365.666.66 1.183.886a3.937 3.937 0 001.586.338zm.201-4.127c-.54 0-.96-.213-1.263-.64-.302-.426-.454-1.01-.454-1.753 0-.844.152-1.482.454-1.914.302-.432.727-.648 1.275-.648.67 0 1.163.28 1.48.84v3.256c-.325.573-.822.859-1.492.859zM66.202 106v-5.283c.328-.593.826-.89 1.491-.89.426 0 .75.106.97.317.222.211.333.573.333 1.084V106h1.661v-4.833c-.024-1.802-.823-2.703-2.398-2.703-.832 0-1.518.315-2.057.944V95.5H64.54V106h1.662zm8.467.134c.353 0 .718-.05 1.095-.152v-1.29a2.377 2.377 0 01-.578.072c-.288 0-.488-.063-.6-.188-.111-.126-.167-.331-.167-.615v-4.127h1.303v-1.23h-1.303V96.81h-1.662v1.795H71.54v1.23h1.217v4.188c0 1.408.637 2.112 1.912 2.112zm5.581 0a3.71 3.71 0 001.665-.365 2.99 2.99 0 001.184-1.029l-.895-.852c-.478.617-1.097.925-1.856.925-.544 0-.994-.179-1.351-.536-.358-.357-.563-.84-.615-1.448h4.833v-.67c0-1.177-.274-2.087-.822-2.73-.548-.643-1.325-.965-2.331-.965-.637 0-1.213.163-1.726.487a3.283 3.283 0 00-1.199 1.358c-.286.58-.43 1.24-.43 1.978v.207c0 1.104.329 1.986.984 2.648.655.661 1.508.992 2.56.992zm1.327-4.523h-3.165c.077-.568.256-1.012.536-1.333.28-.32.647-.48 1.102-.48.462 0 .823.142 1.083.429.26.286.408.707.444 1.263v.121zM86.161 106v-5.058c.264-.585.777-.877 1.54-.877.231 0 .456.018.676.055l.006-1.558a1.515 1.515 0 00-.585-.098c-.714 0-1.27.323-1.668.968l-.042-.828h-1.589V106h1.662z"/><mask id="e" fill="#fff"><use xlink:href="#d"/></mask><path stroke="#000000" stroke-opacity=".12" d="M197.436-.5c1.033 0 1.4.125 1.777.326.414.222.74.547.96.961.202.376.327.744.327 1.777h0v74.872c0 1.033-.125 1.4-.326 1.777a2.31 2.31 0 01-.961.96c-.376.202-.744.327-1.777.327h0H2.564c-1.033 0-1.4-.125-1.777-.326a2.31 2.31 0 01-.96-.961c-.202-.376-.327-.744-.327-1.777h0V2.564c0-1.033.125-1.4.326-1.777a2.31 2.31 0 01.961-.96C1.163-.376 1.531-.5 2.564-.5h194.872z"/><g stroke="#000000" stroke-width=".2" stroke-linecap="round" stroke-opacity=".24" mask="url(#e)"><path d="M-.781 8.5h265.688M-.781 16.5h265.688M-.781 24.5h265.688M-.781 32.5h265.688M-.781 40.5h265.688M-.781 48.5h265.688M-.781 56.5h265.688M-.781 64.5h265.688M-.781 72.5h265.688"/><g><path d="M71.219 0v80M79.219 0v80M87.219 0v80M95.219 0v80M103.219 0v80M111.219 0v80M119.219 0v80M63.219 0v80M55.219 0v80M47.219 0v80M39.219 0v80M31.219 0v80M23.219 0v80M15.219 0v80M7.219 0v80M193.219 0v80M201.219 0v80M209.219 0v80M217.219 0v80M225.219 0v80M233.219 0v80M241.219 0v80M185.219 0v80M177.219 0v80M169.219 0v80M161.219 0v80M153.219 0v80M145.219 0v80M137.219 0v80M129.219 0v80"/></g></g><use fill="#FFF" fill-opacity=".7" xlink:href="#f"/></g><g transform="translate(496 64)"><path fill="#000000" fill-opacity=".56" fill-rule="nonzero" d="M1.587 147v-3.765c.125-.252.297-.457.517-.613.22-.157.477-.235.77-.235.362 0 .629.091.8.274.17.182.258.464.26.843V147h.905v-3.491c-.009-1.261-.572-1.892-1.691-1.892-.64 0-1.161.247-1.561.74V139.5H.683v7.5h.904zm6.548.096c.603 0 1.093-.142 1.472-.426.378-.284.567-.663.567-1.135 0-.284-.068-.525-.204-.722-.137-.197-.345-.365-.624-.504-.28-.14-.645-.26-1.096-.361-.45-.102-.762-.207-.935-.318a.545.545 0 01-.258-.49c0-.233.092-.42.278-.564.185-.143.442-.215.77-.215.321 0 .586.09.795.27.209.18.313.392.313.639h.909c0-.482-.186-.877-.559-1.187-.372-.31-.859-.466-1.459-.466-.568 0-1.035.15-1.402.45-.366.3-.55.666-.55 1.098 0 .261.065.486.194.676.129.19.327.353.595.49.268.136.631.252 1.09.35.457.097.778.212.962.347a.667.667 0 01.277.572c0 .229-.104.413-.311.552-.208.14-.482.209-.824.209-.371 0-.67-.09-.896-.268a.943.943 0 01-.365-.72h-.9c0 .314.092.605.276.873.184.268.438.476.763.626.325.149.699.224 1.122.224zM12.33 147v-7.5h-.904v7.5h.904zm3.074.096c.583 0 1.084-.218 1.505-.653.032.267.074.453.126.557h.948v-.078c-.122-.287-.183-.673-.183-1.157v-2.43c-.014-.536-.194-.957-.54-1.261-.344-.304-.82-.457-1.43-.457-.382 0-.734.072-1.056.216a1.91 1.91 0 00-.763.584c-.187.247-.28.502-.28.766h.908c0-.232.109-.43.326-.592.218-.162.489-.243.813-.243.368 0 .647.093.835.28.188.187.283.439.283.755v.413h-.879c-.759 0-1.348.152-1.767.456-.419.305-.628.732-.628 1.283 0 .452.167.825.502 1.12.335.294.762.44 1.28.44zm.135-.783c-.298 0-.542-.08-.73-.24-.189-.159-.283-.38-.283-.664 0-.65.554-.974 1.661-.974h.709v1.087a1.317 1.317 0 01-.553.571c-.255.147-.523.22-.804.22zm9.061 3.557l.448-.679c-1.45-1.353-2.174-2.932-2.174-4.734.014-1.076.212-2.01.591-2.8.345-.728.873-1.39 1.583-1.987a6.718 6.718 0 01-.1-.17l-.1-.157-.096-.156a2.799 2.799 0 01-.1-.165c-.852.565-1.516 1.34-1.991 2.326a6.962 6.962 0 00-.687 3.07c0 1.095.239 2.128.717 3.1a6.835 6.835 0 001.909 2.352zm3.622-2.774c.768 0 1.332-.257 1.693-.77s.542-1.298.542-2.356v-1.174c-.01-1.024-.194-1.78-.555-2.27-.36-.49-.924-.735-1.689-.735-.774 0-1.341.255-1.702.763-.361.509-.541 1.285-.541 2.329v1.208c.014.997.203 1.747.567 2.25.364.503.925.755 1.685.755zm0-.735c-.452 0-.79-.183-1.013-.55-.223-.367-.335-.934-.335-1.702v-1.444c.006-.724.114-1.26.326-1.608.212-.348.55-.522 1.013-.522.464 0 .803.175 1.017.526.215.35.322.907.322 1.67v1.482c-.009.742-.12 1.286-.337 1.63-.216.345-.547.518-.993.518zm3.456 2.056c.247-.2.45-.464.611-.793.161-.33.241-.657.241-.985v-.709h-.882v.818c-.015.452-.174.891-.478 1.317l.508.352zm7.148-1.321c.768 0 1.333-.257 1.694-.77.36-.513.54-1.298.54-2.356v-1.174c-.008-1.024-.193-1.78-.553-2.27-.361-.49-.924-.735-1.69-.735-.774 0-1.34.255-1.702.763-.36.509-.541 1.285-.541 2.329v1.208c.014.997.204 1.747.567 2.25.364.503.926.755 1.685.755zm0-.735c-.452 0-.79-.183-1.013-.55-.223-.367-.335-.934-.335-1.702v-1.444c.006-.724.115-1.26.326-1.608.212-.348.55-.522 1.013-.522.464 0 .803.175 1.018.526.214.35.322.907.322 1.67v1.482c-.01.742-.121 1.286-.337 1.63-.216.345-.548.518-.994.518zm4.783-3.265c.42 0 .766-.137 1.037-.409.27-.273.406-.623.406-1.052v-.348c0-.444-.134-.804-.402-1.083-.268-.278-.618-.417-1.05-.417-.429 0-.779.138-1.05.415-.271.277-.407.628-.407 1.055v.343c0 .452.139.814.416 1.087.277.272.627.409 1.05.409zm0-.587a.725.725 0 01-.576-.248.92.92 0 01-.216-.626v-.357c0-.266.07-.483.21-.65.138-.166.33-.25.573-.25.24 0 .43.084.57.25.139.167.208.376.208.629v.356c0 .278-.07.497-.21.657a.708.708 0 01-.56.239zm.204 3.952l3.47-5.557-.51-.321-3.473 5.556.513.322zm3.257.643c.423 0 .77-.137 1.043-.413.273-.275.409-.626.409-1.052v-.348c0-.452-.137-.815-.411-1.089-.274-.274-.624-.41-1.05-.41-.426 0-.775.137-1.048.412-.272.276-.409.626-.409 1.053v.352c0 .452.139.814.416 1.087.276.272.626.408 1.05.408zm0-.587a.725.725 0 01-.577-.247.927.927 0 01-.215-.63v-.362c0-.275.073-.493.218-.654a.725.725 0 01.565-.241c.238 0 .427.08.57.243.141.162.212.373.212.63v.361c0 .279-.07.498-.21.66a.71.71 0 01-.563.24zm2.539 1.9c.246-.2.45-.464.61-.793.161-.33.242-.657.242-.985v-.709h-.883v.818c-.014.452-.174.891-.478 1.317l.509.352zM57.504 147v-7.143h-.143l-2.587.97v.82l1.822-.669V147h.908zm4.87.096c.768 0 1.333-.257 1.693-.77.361-.513.542-1.298.542-2.356v-1.174c-.009-1.024-.194-1.78-.555-2.27-.36-.49-.924-.735-1.689-.735-.774 0-1.341.255-1.702.763-.36.509-.541 1.285-.541 2.329v1.208c.014.997.203 1.747.567 2.25.364.503.925.755 1.685.755zm0-.735c-.452 0-.79-.183-1.013-.55-.223-.367-.335-.934-.335-1.702v-1.444c.006-.724.115-1.26.326-1.608.212-.348.55-.522 1.013-.522.464 0 .803.175 1.018.526.214.35.321.907.321 1.67v1.482c-.008.742-.12 1.286-.337 1.63-.216.345-.547.518-.993.518zm5.617.735c.768 0 1.333-.257 1.694-.77.36-.513.541-1.298.541-2.356v-1.174c-.009-1.024-.193-1.78-.554-2.27-.361-.49-.924-.735-1.69-.735-.773 0-1.34.255-1.702.763-.36.509-.54 1.285-.54 2.329v1.208c.014.997.203 1.747.567 2.25.363.503.925.755 1.684.755zm0-.735c-.452 0-.79-.183-1.013-.55-.223-.367-.335-.934-.335-1.702v-1.444c.006-.724.115-1.26.327-1.608.211-.348.549-.522 1.013-.522.463 0 .803.175 1.017.526.214.35.322.907.322 1.67v1.482c-.009.742-.121 1.286-.337 1.63-.216.345-.547.518-.994.518zm4.783-3.265c.42 0 .766-.137 1.037-.409.27-.273.406-.623.406-1.052v-.348c0-.444-.134-.804-.402-1.083-.268-.278-.618-.417-1.05-.417-.429 0-.779.138-1.05.415-.27.277-.406.628-.406 1.055v.343c0 .452.138.814.415 1.087.277.272.627.409 1.05.409zm0-.587a.725.725 0 01-.576-.248.92.92 0 01-.215-.626v-.357c0-.266.07-.483.208-.65.14-.166.33-.25.574-.25.24 0 .43.084.57.25.139.167.208.376.208.629v.356c0 .278-.07.497-.21.657a.708.708 0 01-.56.239zm.204 3.952l3.47-5.557-.509-.321-3.474 5.556.513.322zm3.257.643c.423 0 .77-.137 1.043-.413.273-.275.409-.626.409-1.052v-.348c0-.452-.137-.815-.41-1.089-.275-.274-.625-.41-1.05-.41-.427 0-.776.137-1.049.412-.272.276-.408.626-.408 1.053v.352c0 .452.138.814.415 1.087.277.272.627.408 1.05.408zm0-.587a.725.725 0 01-.576-.247.927.927 0 01-.216-.63v-.362c0-.275.073-.493.218-.654a.725.725 0 01.565-.241c.238 0 .428.08.57.243.142.162.213.373.213.63v.361c0 .279-.07.498-.211.66a.71.71 0 01-.563.24zm2.539 1.9c.246-.2.45-.464.61-.793.162-.33.242-.657.242-.985v-.709h-.883v.818c-.014.452-.173.891-.478 1.317l.509.352zm7.148-1.321c.768 0 1.332-.257 1.693-.77s.542-1.298.542-2.356v-1.174c-.01-1.024-.194-1.78-.555-2.27-.36-.49-.924-.735-1.689-.735-.774 0-1.341.255-1.702.763-.361.509-.541 1.285-.541 2.329v1.208c.014.997.203 1.747.567 2.25.364.503.925.755 1.685.755zm0-.735c-.452 0-.79-.183-1.013-.55-.223-.367-.335-.934-.335-1.702v-1.444c.006-.724.114-1.26.326-1.608.212-.348.55-.522 1.013-.522.464 0 .803.175 1.017.526.215.35.322.907.322 1.67v1.482c-.009.742-.12 1.286-.337 1.63-.216.345-.547.518-.993.518zm4.16.639a.603.603 0 00.44-.157.518.518 0 00.148-.382.556.556 0 00-.148-.404c-.105-.108-.251-.161-.44-.161-.185 0-.328.053-.43.16a.565.565 0 00-.143.405c0 .16.048.287.143.382.102.105.245.157.43.157zm4.448.096c.71 0 1.263-.21 1.66-.63.395-.421.593-.998.593-1.731 0-.73-.191-1.31-.572-1.737-.381-.428-.897-.641-1.546-.641-.44 0-.836.102-1.187.308l.218-1.939h2.874v-.835h-3.644l-.36 3.544.725.187.24-.196c.223-.174.531-.26.926-.26.429 0 .773.143 1.032.432.26.288.39.67.39 1.145 0 .505-.12.9-.36 1.187-.239.287-.568.43-.989.43-.385 0-.694-.103-.928-.31-.233-.207-.379-.514-.437-.92h-.852c.055.615.281 1.096.678 1.444.397.348.91.522 1.54.522zm5.583 0c.67 0 1.204-.22 1.602-.659.399-.44.598-1.024.598-1.754 0-.693-.184-1.258-.552-1.694-.368-.436-.862-.654-1.483-.654-.646 0-1.158.216-1.535.648.067-.734.308-1.302.724-1.705s.976-.611 1.68-.626h.166v-.765h-.16c-1.105.014-1.936.368-2.494 1.06-.558.694-.837 1.694-.837 3v.349c0 .823.211 1.495.635 2.017.423.522.975.783 1.656.783zm0-.744c-.394 0-.723-.179-.987-.537-.264-.358-.396-.83-.396-1.42v-.33c.102-.28.283-.514.544-.7a1.44 1.44 0 01.852-.278c.391 0 .705.15.941.452.237.302.355.697.355 1.187 0 .484-.117.876-.35 1.176-.234.3-.553.45-.959.45zm3.487 3.518a6.79 6.79 0 001.904-2.353 6.89 6.89 0 00.722-3.1 6.925 6.925 0 00-.696-3.06c-.478-.989-1.139-1.767-1.982-2.335-.047.075-.112.182-.196.321l-.1.157a6.72 6.72 0 01-.1.17c.71.597 1.238 1.259 1.583 1.987.38.79.577 1.724.591 2.8 0 1.802-.725 3.38-2.174 4.734.061.084.136.196.226.335l.109.17.113.174zM2.474 129l1.252-4.004L5.01 129h.734l1.535-5.283h-.9l-1.017 4.04-1.257-4.04h-.726l-1.23 3.957-1.04-3.957h-.9L1.744 129h.73zm6.626 0v-3.765c.125-.252.297-.457.517-.613.22-.157.477-.235.77-.235.362 0 .629.091.8.274.171.182.258.464.26.843V129h.905v-3.491c-.009-1.261-.572-1.892-1.691-1.892-.64 0-1.161.247-1.561.74V121.5h-.904v7.5H9.1zm5.143-6.174c.174 0 .307-.048.398-.146a.515.515 0 00.137-.367.533.533 0 00-.137-.37c-.091-.101-.224-.152-.398-.152-.176 0-.31.051-.4.152a.544.544 0 00-.134.374c0 .145.045.266.134.363.09.098.224.146.4.146zm.444 6.174v-5.283h-.904V129h.904zm2.987.096c.226 0 .458-.032.696-.096v-.73a2.27 2.27 0 01-.43.056c-.212 0-.362-.053-.45-.159-.09-.105-.133-.264-.133-.476v-3.278h.986v-.696h-.986v-1.278h-.905v1.278h-.96v.696h.96v3.278c0 .45.103.796.309 1.04.206.243.51.365.913.365zm3.913 0c.887 0 1.552-.34 1.996-1.018l-.553-.43a2.093 2.093 0 01-.582.517c-.22.13-.49.196-.809.196-.45 0-.82-.16-1.11-.48-.292-.32-.445-.742-.46-1.264h3.579v-.378c0-.84-.19-1.488-.57-1.941-.38-.454-.913-.68-1.6-.68-.42 0-.81.116-1.17.35-.359.233-.64.555-.84.967-.202.411-.303.88-.303 1.404v.165c0 .789.225 1.418.674 1.887.45.47 1.032.705 1.748.705zm1.16-3.222H20.1c.058-.478.21-.85.459-1.115.248-.266.554-.398.92-.398.376 0 .675.126.897.378.222.252.346.609.372 1.07v.065zm5.875 4.443v-8.426h-.726v8.426h.726zM34.087 129v-3.765c.125-.252.297-.457.517-.613.22-.157.477-.235.77-.235.362 0 .629.091.8.274.17.182.258.464.26.843V129h.905v-3.491c-.009-1.261-.572-1.892-1.691-1.892-.64 0-1.161.247-1.561.74V121.5h-.904v7.5h.904zm5.143-6.174c.174 0 .307-.048.398-.146a.515.515 0 00.137-.367.533.533 0 00-.137-.37c-.091-.101-.224-.152-.398-.152-.176 0-.31.051-.4.152a.544.544 0 00-.134.374c0 .145.045.266.134.363.09.098.224.146.4.146zm.444 6.174v-5.283h-.904V129h.904zm2.348 0v-3.765c.124-.252.297-.457.517-.613.22-.157.477-.235.77-.235.362 0 .629.091.8.274.17.182.258.464.26.843V129h.905v-3.491c-.009-1.261-.573-1.892-1.691-1.892-.65 0-1.177.255-1.583.766l-.026-.666h-.857V129h.905zm6.156.096c.226 0 .458-.032.696-.096v-.73a2.27 2.27 0 01-.43.056c-.212 0-.362-.053-.45-.159-.089-.105-.133-.264-.133-.476v-3.278h.987v-.696h-.987v-1.278h-.904v1.278h-.961v.696h.96v3.278c0 .45.103.796.31 1.04.205.243.51.365.912.365z"/><path fill="#000000" fill-opacity=".87" fill-rule="nonzero" d="M3.445 106.134c.828 0 1.492-.3 1.99-.901l.08.767h1.503V95.5H5.357v3.786c-.483-.548-1.116-.822-1.9-.822-.888 0-1.596.346-2.124 1.038-.527.692-.791 1.606-.791 2.742 0 1.202.268 2.15.803 2.846.536.696 1.236 1.044 2.1 1.044zm.426-1.351c-.535 0-.947-.211-1.235-.633-.288-.422-.433-1.009-.433-1.76 0-.856.146-1.497.436-1.923.29-.426.705-.64 1.244-.64.678 0 1.17.297 1.474.89v3.159c-.313.604-.808.907-1.486.907zm5.82-7.226c.3 0 .532-.083.696-.25a.856.856 0 00.247-.626.874.874 0 00-.247-.636c-.164-.169-.396-.253-.697-.253-.3 0-.531.084-.693.253a.88.88 0 00-.244.636c0 .251.081.46.244.627.162.166.393.25.693.25zm.827 8.443v-7.396H8.857V106h1.661zm5.132 0l2.562-7.396h-1.716l-1.565 5.29-1.582-5.29h-1.723L14.207 106h1.443zm4.54-8.443c.3 0 .533-.083.697-.25a.856.856 0 00.247-.626.874.874 0 00-.247-.636c-.164-.169-.396-.253-.697-.253-.3 0-.531.084-.693.253a.88.88 0 00-.244.636c0 .251.081.46.244.627.162.166.393.25.693.25zm.828 8.443v-7.396h-1.661V106h1.661zm4.401.134c.828 0 1.491-.3 1.99-.901l.08.767h1.503V95.5H27.33v3.786c-.482-.548-1.116-.822-1.899-.822-.888 0-1.597.346-2.124 1.038-.528.692-.791 1.606-.791 2.742 0 1.202.267 2.15.803 2.846.536.696 1.236 1.044 2.1 1.044zm.426-1.351c-.535 0-.947-.211-1.235-.633-.289-.422-.433-1.009-.433-1.76 0-.856.145-1.497.436-1.923.29-.426.705-.64 1.244-.64.678 0 1.17.297 1.473.89v3.159c-.312.604-.807.907-1.485.907zm8.138 1.35a3.71 3.71 0 001.665-.364 2.99 2.99 0 001.184-1.029l-.895-.852c-.478.617-1.097.925-1.856.925-.544 0-.994-.179-1.351-.536-.358-.357-.562-.84-.615-1.448h4.833v-.67c0-1.177-.274-2.087-.822-2.73-.548-.643-1.325-.965-2.331-.965-.637 0-1.213.163-1.726.487a3.283 3.283 0 00-1.199 1.358c-.286.58-.43 1.24-.43 1.978v.207c0 1.104.329 1.986.984 2.648.655.661 1.508.992 2.56.992zm1.327-4.522h-3.165c.077-.568.256-1.012.536-1.333.28-.32.647-.48 1.102-.48.462 0 .823.142 1.083.429.26.286.408.707.444 1.263v.121zM39.894 106v-5.058c.264-.585.777-.877 1.54-.877.231 0 .456.018.676.055l.006-1.558a1.515 1.515 0 00-.585-.098c-.714 0-1.27.323-1.668.968l-.042-.828h-1.589V106h1.662zm8.704 1.309V106h-6.27v1.309h6.27zM51.246 106V95.5h-1.662V106h1.662zm2.745-8.443c.3 0 .533-.083.697-.25a.856.856 0 00.247-.626.874.874 0 00-.247-.636c-.164-.169-.396-.253-.697-.253-.3 0-.531.084-.694.253a.88.88 0 00-.243.636c0 .251.081.46.243.627.163.166.394.25.694.25zM54.82 106v-7.396h-1.662V106h1.662zm4.687 2.91c1.027 0 1.841-.28 2.444-.84.603-.56.904-1.325.904-2.295v-7.17h-1.491l-.08.742c-.482-.588-1.146-.883-1.99-.883-.893 0-1.609.343-2.149 1.029-.54.686-.81 1.603-.81 2.751 0 1.218.276 2.17.826 2.858.55.688 1.257 1.032 2.12 1.032.8 0 1.44-.266 1.918-.797v.499c0 .58-.16 1.02-.48 1.317-.321.299-.757.448-1.31.448-.746 0-1.373-.304-1.88-.913l-.791.998c.271.365.666.66 1.183.886a3.937 3.937 0 001.586.338zm.201-4.127c-.54 0-.96-.213-1.263-.64-.302-.426-.454-1.01-.454-1.753 0-.844.152-1.482.454-1.914.302-.432.727-.648 1.275-.648.67 0 1.163.28 1.48.84v3.256c-.325.573-.822.859-1.492.859zM66.202 106v-5.283c.328-.593.826-.89 1.491-.89.426 0 .75.106.97.317.222.211.333.573.333 1.084V106h1.661v-4.833c-.024-1.802-.823-2.703-2.398-2.703-.832 0-1.518.315-2.057.944V95.5H64.54V106h1.662zm8.467.134c.353 0 .718-.05 1.095-.152v-1.29a2.377 2.377 0 01-.578.072c-.288 0-.488-.063-.6-.188-.111-.126-.167-.331-.167-.615v-4.127h1.303v-1.23h-1.303V96.81h-1.662v1.795H71.54v1.23h1.217v4.188c0 1.408.637 2.112 1.912 2.112zm5.581 0a3.71 3.71 0 001.665-.365 2.99 2.99 0 001.184-1.029l-.895-.852c-.478.617-1.097.925-1.856.925-.544 0-.994-.179-1.351-.536-.358-.357-.563-.84-.615-1.448h4.833v-.67c0-1.177-.274-2.087-.822-2.73-.548-.643-1.325-.965-2.331-.965-.637 0-1.213.163-1.726.487a3.283 3.283 0 00-1.199 1.358c-.286.58-.43 1.24-.43 1.978v.207c0 1.104.329 1.986.984 2.648.655.661 1.508.992 2.56.992zm1.327-4.523h-3.165c.077-.568.256-1.012.536-1.333.28-.32.647-.48 1.102-.48.462 0 .823.142 1.083.429.26.286.408.707.444 1.263v.121zm5.71 4.523c.897 0 1.62-.206 2.17-.618.55-.412.825-.95.825-1.616 0-.394-.09-.73-.268-1.007-.179-.278-.454-.517-.825-.716-.371-.198-.883-.37-1.537-.514-.653-.144-1.086-.287-1.3-.43a.672.672 0 01-.319-.59.8.8 0 01.344-.678c.23-.169.526-.253.892-.253.393 0 .708.106.943.317.236.21.353.477.353.797h1.662c0-.698-.272-1.266-.816-1.704-.543-.439-1.258-.658-2.142-.658-.828 0-1.51.215-2.049.646-.537.43-.806.963-.806 1.6 0 .76.414 1.34 1.242 1.741.377.183.849.333 1.415.45.566.118.97.255 1.214.412a.758.758 0 01.365.678.772.772 0 01-.34.652c-.228.166-.56.25-.999.25-.45 0-.812-.106-1.086-.317-.274-.211-.423-.514-.448-.907h-1.613c0 .442.133.855.399 1.238.266.384.635.684 1.108.901.473.217 1.011.326 1.616.326zm6.775 0c.353 0 .718-.05 1.095-.152v-1.29a2.377 2.377 0 01-.578.072c-.288 0-.488-.063-.6-.188-.111-.126-.167-.331-.167-.615v-4.127h1.303v-1.23h-1.303V96.81H92.15v1.795h-1.217v1.23h1.217v4.188c0 1.408.638 2.112 1.912 2.112z"/><mask id="h" fill="#fff"><use xlink:href="#g"/></mask><path stroke="#000000" stroke-opacity=".12" d="M197.436-.5c1.033 0 1.4.125 1.777.326.414.222.74.547.96.961.202.376.327.744.327 1.777h0v74.872c0 1.033-.125 1.4-.326 1.777a2.31 2.31 0 01-.961.96c-.376.202-.744.327-1.777.327h0H2.564c-1.033 0-1.4-.125-1.777-.326a2.31 2.31 0 01-.96-.961c-.202-.376-.327-.744-.327-1.777h0V2.564c0-1.033.125-1.4.326-1.777a2.31 2.31 0 01.961-.96C1.163-.376 1.531-.5 2.564-.5h194.872z"/><g stroke="#000000" stroke-width=".2" stroke-linecap="round" stroke-opacity=".24" mask="url(#h)"><path d="M-.781 8.5h265.688M-.781 16.5h265.688M-.781 24.5h265.688M-.781 32.5h265.688M-.781 40.5h265.688M-.781 48.5h265.688M-.781 56.5h265.688M-.781 64.5h265.688M-.781 72.5h265.688"/><g><path d="M71.219 0v80M79.219 0v80M87.219 0v80M95.219 0v80M103.219 0v80M111.219 0v80M119.219 0v80M63.219 0v80M55.219 0v80M47.219 0v80M39.219 0v80M31.219 0v80M23.219 0v80M15.219 0v80M7.219 0v80M193.219 0v80M201.219 0v80M209.219 0v80M217.219 0v80M225.219 0v80M185.219 0v80M177.219 0v80M169.219 0v80M161.219 0v80M153.219 0v80M145.219 0v80M137.219 0v80M129.219 0v80"/></g></g><use fill="#FFF" fill-opacity=".5" xlink:href="#i"/></g></g></svg>