<svg xmlns="http://www.w3.org/2000/svg" width="200" height="200"><g fill="none" fill-rule="evenodd"><path d="M0 0h200v200H0z"/><path fill="#000000" fill-opacity=".24" d="M63 88h74v24H63z"/><path d="M63 88h74v24H63z"/><path fill="#FFF" fill-rule="nonzero" d="M110.958 103l1.242-.01c.55 0 1.038-.013 1.466-.04.428-.026.808-.06 1.14-.104a11.686 11.686 0 001.537-.3l-.126-.991-.383.078a6.15 6.15 0 01-.365.063 10.696 10.696 0 01-.952.088c-.188 0-.37-.026-.543-.078a1.685 1.685 0 01-.561-.282 1.453 1.453 0 01-.389-.454 1.215 1.215 0 01-.146-.594c0-.16.026-.314.079-.462a1.108 1.108 0 01.616-.668c.152-.068.33-.102.531-.102.178 0 .338.019.48.055.143.037.274.087.394.151.12.065.232.14.337.225.104.085.21.176.318.274l.642-.788a13.24 13.24 0 00-.465-.365 3.17 3.17 0 00-.485-.3 2.64 2.64 0 00-1.22-.274 2.2 2.2 0 00-.895.18 2.228 2.228 0 00-1.184 1.205c-.114.273-.17.563-.17.869 0 .313.051.598.154.855.102.258.28.501.534.73l-1.586.016V103zm-2.019-4.81l.85-.85-.855-.857-.85.85.855.857zm-1.466 4.81c.511 0 .94-.053 1.289-.16.348-.105.631-.268.85-.487.15.191.341.347.574.467.233.12.525.18.877.18h.104v-1.023h-.104a.737.737 0 01-.436-.12.856.856 0 01-.266-.302 1.429 1.429 0 01-.138-.397 3.685 3.685 0 01-.058-.407 16.002 16.002 0 00-.094-.902 4.9 4.9 0 00-.151-.71l-.98.277c.076.264.129.499.158.704.03.205.045.407.045.605 0 .414-.133.726-.397.937-.264.21-.689.315-1.273.315h-.193V103h.193zm-4.883 3.663c.507-.08.999-.22 1.473-.418a5.392 5.392 0 001.294-.762c.388-.31.719-.672.992-1.087.273-.416.461-.881.566-1.396h.574v-1.023h-.496a4.843 4.843 0 00-.282-1.515 4.007 4.007 0 00-.302-.66 3.296 3.296 0 00-.397-.553c-.414-.446-.868-.668-1.362-.668-.222 0-.437.056-.644.17-.207.112-.399.279-.576.498a2.901 2.901 0 00-.381.67c-.108.26-.177.49-.206.694-.03.204-.045.371-.045.504 0 .139.012.278.037.417.042.264.142.497.302.699.362.449.92.696 1.675.74.191.018.363.027.514.027h.592c-.038.26-.145.526-.32.796-.176.27-.415.524-.718.764a5.16 5.16 0 01-1.09.647c-.425.191-.905.34-1.44.449l.24 1.007zm2.865-4.697l-.085.001c-.153 0-.316-.005-.49-.016a2.63 2.63 0 01-.222-.023 1.854 1.854 0 01-.26-.058 1.226 1.226 0 01-.251-.104.614.614 0 01-.196-.17.489.489 0 01-.107-.247 1.826 1.826 0 01-.018-.232 2.37 2.37 0 01.295-1.09c.071-.123.152-.223.242-.3a.433.433 0 01.287-.118c.063 0 .122.01.178.031.055.02.109.048.159.08.05.034.097.07.14.11.044.04.083.078.118.113.087.1.172.22.253.357.082.137.156.291.222.462.066.17.12.355.162.553.041.198.068.408.078.631a6.1 6.1 0 01-.505.02zm-4.316 1.081c.049-.577.078-1.122.086-1.633a75.745 75.745 0 00-.002-2.854 47.688 47.688 0 00-.266-3.798l-1.023.156c.118 1.096.212 2.487.282 4.174.01.289.015.595.015.918 0 .268-.003.548-.01.84-.018.647-.054 1.36-.11 2.14l1.028.057zm-6.219-2.567l.85-.85-.855-.856-.85.85.855.856zm-.23 6.104c.428 0 .834-.045 1.219-.135a3.76 3.76 0 001.051-.415c.317-.186.594-.422.832-.707s.424-.624.556-1.017c.125-.376.193-.676.203-.9.01-.225.016-.375.016-.452a5.381 5.381 0 00-.295-1.771c-.099-.29-.198-.544-.297-.762a5.916 5.916 0 00-.394-.743l-.866.553c.003 0 .035.051.096.154.061.102.132.243.212.422.08.18.16.39.242.632a4.961 4.961 0 01.258 1.588v.063a3.25 3.25 0 01-.15.903 2.017 2.017 0 01-.345.654 2.05 2.05 0 01-.569.49 2.766 2.766 0 01-.788.306c-.299.07-.633.104-1.001.104-.296 0-.56-.032-.79-.096a2.473 2.473 0 01-.606-.25 2.037 2.037 0 01-.441-.348 2.272 2.272 0 01-.303-.394 1.901 1.901 0 01-.18-.386 2.058 2.058 0 01-.08-.326 3.06 3.06 0 01-.027-.615c.01-.209.034-.414.07-.616.037-.202.084-.396.14-.582.055-.186.113-.357.174-.514.06-.156.12-.293.18-.41a2.1 2.1 0 01.156-.268l-.83-.61c-.142.236-.278.5-.409.79-.13.29-.24.597-.328.921a4.863 4.863 0 00-.165.843 4.607 4.607 0 00.016 1.208c.07.455.204.852.404 1.189.2.337.452.616.754.837.303.221.648.386 1.036.496.388.11.804.164 1.25.164zM84.334 103c.689 0 1.216-.183 1.58-.548.13-.132.231-.276.306-.433a2.515 2.515 0 00.243-.908c.007-.128.01-.24.01-.334v-.135c0-.115-.003-.249-.008-.402l-.018-.543-.026-.717c-.01-.27-.021-.577-.031-.92a60.924 60.924 0 00-.199-2.907l-1.022.11.026.279c.014.155.03.357.05.608l.028.406a58.389 58.389 0 01.078 1.54l.063 1.578c.017.426.026.752.026.978v.058c0 .497-.089.836-.266 1.017-.167.167-.447.25-.84.25h-.397V103h.397zm-4.064 0c.327 0 .61-.013.853-.04.241-.025.453-.065.634-.12a1.948 1.948 0 00.834-.487c.15.191.341.347.574.467.233.12.525.18.877.18h.104v-1.023h-.104a.737.737 0 01-.436-.12.856.856 0 01-.266-.302 1.429 1.429 0 01-.138-.397 3.685 3.685 0 01-.058-.407 16.002 16.002 0 00-.094-.902 4.9 4.9 0 00-.15-.71l-.982.277c.077.264.13.499.16.704.029.205.044.407.044.605 0 .209-.035.392-.105.548a.942.942 0 01-.326.391c-.148.105-.339.183-.574.235a3.964 3.964 0 01-.847.078h-.778V103h.778zm.193 2.551l.845-.845-.856-.856-.845.85.856.851zm2.139.01l.845-.85-.856-.85-.845.845.856.856zm-5.129-7.371l.85-.85-.855-.857-.85.85.855.857zM76.007 103c.511 0 .94-.053 1.289-.16.347-.105.631-.268.85-.487.15.191.341.347.574.467.233.12.525.18.877.18h.104v-1.023h-.104a.737.737 0 01-.436-.12.856.856 0 01-.266-.302 1.429 1.429 0 01-.138-.397 3.685 3.685 0 01-.058-.407 16.002 16.002 0 00-.094-.902 4.9 4.9 0 00-.151-.71l-.981.277c.077.264.13.499.16.704.029.205.044.407.044.605 0 .414-.133.726-.397.937-.264.21-.689.315-1.273.315h-.193V103h.193zm.016 0v-1.023h-.146a3.482 3.482 0 01-.57-.052 1.862 1.862 0 01-.464-.146c-.212-.1-.39-.22-.537-.36a2.435 2.435 0 01-.373-.449 2.91 2.91 0 01-.256-.495c-.067-.17-.13-.34-.185-.506a4.073 4.073 0 00-.378-.796 6.104 6.104 0 00-.564-.777 7.42 7.42 0 00-.714-.73 9.061 9.061 0 00-.833-.66l4.133-1.743-.392-.95-4.68 2.014-.14 1.153c.139.108.302.237.49.386a13.194 13.194 0 011.171 1.06c.193.197.363.397.509.6.146.201.256.391.329.57.073.18.11.342.11.488 0 .039-.003.077-.006.115a.895.895 0 01-.248.511c-.144.157-.37.293-.676.407-.233.09-.572.163-1.017.217a23.643 23.643 0 01-1.967.133c-.136 0-.28-.005-.433-.016a8.987 8.987 0 01-1.503-.24 6.1 6.1 0 01-.683-.214 2.669 2.669 0 01-.537-.27.864.864 0 01-.308-.324.795.795 0 01-.078-.36v-.047c.006-.15.036-.305.088-.465.052-.16.12-.316.201-.47.082-.152.166-.29.253-.411l-.824-.616a11.685 11.685 0 00-.17.28 5.46 5.46 0 00-.3.607c-.153.348-.237.61-.253.788a4.99 4.99 0 00-.023.365c0 .212.031.407.094.584.08.233.206.44.378.621.172.181.376.34.613.478.236.137.5.253.79.346.29.094.595.17.913.23.319.06.645.102.979.128.334.026.664.039.991.039.616 0 1.154-.017 1.615-.05.46-.033.863-.096 1.208-.19.344-.094.64-.226.887-.397.246-.17.462-.393.646-.667.31.431.703.755 1.18.973a3.808 3.808 0 001.575.331h.105z"/><path d="M117 88h4v24h-4z"/><g fill="#FFF"><path fill="none" d="M137 92h-16v16h16z"/><path d="M129.792 100l-2.583 2.583a.669.669 0 10.947.946l3.056-3.056a.67.67 0 000-.946l-3.056-3.056a.667.667 0 00-.947 0 .669.669 0 000 .946l2.583 2.583z"/></g></g></svg>