<?xml version="1.0" encoding="UTF-8"?>
<svg width="422px" height="128px" viewBox="0 0 422 128" version="1.1" xmlns="http://www.w3.org/2000/svg" xmlns:xlink="http://www.w3.org/1999/xlink">
    <title>variation_1</title>
    <defs>
        <rect id="path-1" x="0" y="0" width="422" height="128" rx="4"></rect>
        <rect id="path-3" x="74.5" y="41.6" width="273" height="44.8" rx="2.8"></rect>
        <filter x="-6.6%" y="-33.5%" width="113.2%" height="180.4%" filterUnits="objectBoundingBox" id="filter-4">
            <feOffset dx="0" dy="3" in="SourceAlpha" result="shadowOffsetOuter1"></feOffset>
            <feGaussianBlur stdDeviation="5.5" in="shadowOffsetOuter1" result="shadowBlurOuter1"></feGaussianBlur>
            <feColorMatrix values="0 0 0 0 0   0 0 0 0 0   0 0 0 0 0  0 0 0 0.12 0" type="matrix" in="shadowBlurOuter1"></feColorMatrix>
        </filter>
    </defs>
    <g id="Breadcrumb" stroke="none" stroke-width="1" fill="none" fill-rule="evenodd">
        <g id="variation" transform="translate(-32.000000, -32.000000)">
            <g id="variation_1" transform="translate(32.000000, 32.000000)">
                <mask id="mask-2" fill="white">
                    <use xlink:href="#path-1"></use>
                </mask>
                <use id="base" fill-opacity="0" fill="#000000" xlink:href="#path-1"></use>
                <g id="Rectangle" fill="black" fill-opacity="1">
                    <use filter="url(#filter-4)" xlink:href="#path-3"></use>
                </g>
                <rect id="Rectangle" fill="#FFFFFF" x="74.5" y="41.6" width="273" height="44.8" rx="2.8"></rect>
                <path d="M334.028348,66.1109565 C334.113565,66.1109565 334.207304,66.1073043 334.309565,66.1 C334.411826,66.0926957 334.513478,66.079913 334.614522,66.0616522 C334.715565,66.0433913 334.812348,66.0202609 334.90487,65.9922609 C334.997391,65.9642609 335.077739,65.9295652 335.145913,65.8881739 L335.145913,65.8881739 C335.401565,65.7518261 335.592087,65.5807826 335.717478,65.3750435 C335.84287,65.1693043 335.905565,64.945913 335.905565,64.7048696 C335.905565,64.3834783 335.793565,64.0669565 335.569565,63.7553043 C335.494087,63.6530435 335.388174,63.5507826 335.251826,63.4485217 C335.115478,63.3462609 334.957826,63.2452174 334.77887,63.1453913 C334.599913,63.0455652 334.40513,62.9457391 334.194522,62.845913 C333.983913,62.746087 333.765391,62.6462609 333.538957,62.5464348 L333.538957,62.5464348 L332.268,62.0241739 L331.921043,62.6815652 L332.209565,62.7947826 C332.063478,62.8653913 331.938087,62.9548696 331.833391,63.0632174 C331.728696,63.1715652 331.641652,63.2884348 331.572261,63.4138261 C331.50287,63.5392174 331.451739,63.6694783 331.41887,63.8046087 C331.386,63.9397391 331.369565,64.0681739 331.369565,64.189913 C331.369565,64.3676522 331.415217,64.552087 331.506522,64.7432174 C331.597826,64.9343478 331.734783,65.1285217 331.917391,65.3257391 C331.846783,65.3354783 331.774348,65.344 331.700087,65.3513043 C331.625826,65.3586087 331.543652,65.3646957 331.453565,65.3695652 C331.363478,65.3744348 331.263043,65.378087 331.152261,65.3805217 C331.041478,65.3829565 330.913043,65.3841739 330.766957,65.3841739 L330.766957,65.3841739 L330.668348,65.3841739 L330.668348,66.1 L330.766957,66.1 C330.939826,66.1 331.118783,66.0963478 331.303826,66.0890435 C331.48887,66.0817391 331.670261,66.0701739 331.848,66.0543478 C332.025739,66.0385217 332.195565,66.0172174 332.357478,65.9904348 C332.519391,65.9636522 332.66487,65.9307826 332.793913,65.8918261 C333.00087,65.9746087 333.204783,66.0318261 333.405652,66.0634783 C333.606522,66.0951304 333.814087,66.1109565 334.028348,66.1109565 Z M332.757391,65.1102609 C332.66487,65.0493913 332.577217,64.9830435 332.494435,64.9112174 C332.411652,64.8393913 332.339217,64.7626957 332.27713,64.6811304 C332.215043,64.5995652 332.165739,64.5125217 332.129217,64.42 C332.092696,64.3274783 332.074435,64.230087 332.074435,64.1278261 C332.074435,64.0182609 332.097565,63.9038261 332.143826,63.7845217 C332.190087,63.6652174 332.254,63.558087 332.335565,63.4631304 C332.41713,63.3681739 332.504174,63.2987826 332.596696,63.2549565 C332.689217,63.2111304 332.77687,63.1892174 332.859652,63.1892174 C332.903478,63.1892174 332.948522,63.194087 332.994783,63.2038261 C333.099478,63.2257391 333.184087,63.2653043 333.248609,63.3225217 C333.31313,63.3797391 333.363043,63.4454783 333.398348,63.5197391 C333.433652,63.594 333.456783,63.671913 333.467739,63.7534783 C333.478696,63.8350435 333.484174,63.9123478 333.484174,63.9853913 C333.484174,64.0876522 333.469565,64.1935652 333.440348,64.3031304 C333.41113,64.4126957 333.366696,64.518 333.307043,64.6190435 C333.247391,64.720087 333.171913,64.8132174 333.080609,64.8984348 C332.989304,64.9836522 332.881565,65.0542609 332.757391,65.1102609 Z M333.958957,65.4097391 C333.91513,65.4097391 333.867652,65.4085217 333.816522,65.406087 C333.765391,65.4036522 333.70087,65.3963478 333.622957,65.3841739 C333.715478,65.2867826 333.799478,65.1796522 333.874957,65.0627826 C333.950435,64.945913 334.014348,64.8272174 334.066696,64.7066957 C334.119043,64.5861739 334.159826,64.4662609 334.189043,64.3469565 C334.218261,64.2276522 334.23287,64.1168696 334.23287,64.0146087 C334.23287,63.9415652 334.231652,63.8636522 334.229217,63.7808696 C334.226783,63.698087 334.212174,63.6104348 334.185391,63.517913 C334.358261,63.5982609 334.509217,63.6871304 334.638261,63.7845217 C334.767304,63.881913 334.875043,63.9811304 334.961478,64.0821739 C335.047913,64.1832174 335.113043,64.2836522 335.15687,64.3834783 C335.200696,64.4833043 335.222609,64.5758261 335.222609,64.6610435 C335.222609,64.7608696 335.200087,64.8564348 335.155043,64.9477391 C335.11,65.0390435 335.036957,65.1187826 334.935913,65.1869565 C334.83487,65.2551304 334.704,65.3093043 334.543304,65.3494783 C334.382609,65.3896522 334.187826,65.4097391 333.958957,65.4097391 Z M326.43913,66.1 C326.814087,66.1 327.140348,66.0013913 327.417913,65.8041739 C327.55913,65.7067826 327.661391,65.6081739 327.724696,65.5083478 C328.18,65.8273043 328.65113,66.0172174 329.138087,66.078087 C329.179478,66.0829565 329.219652,66.0853913 329.258609,66.0853913 C329.509391,66.0853913 329.722435,65.9697391 329.897739,65.7384348 C329.990261,65.8601739 330.106522,65.9508696 330.246522,66.0105217 C330.386522,66.0701739 330.546609,66.1 330.726783,66.1 L330.726783,66.1 L330.814435,66.1 L330.814435,65.3841739 L330.726783,65.3841739 C330.646435,65.3841739 330.574609,65.3689565 330.511304,65.3385217 C330.448,65.308087 330.394435,65.2673043 330.350609,65.2161739 C330.306783,65.1650435 330.272696,65.1053913 330.248348,65.0372174 C330.224,64.9690435 330.210609,64.8972174 330.208174,64.8217391 C330.203304,64.6926957 330.189304,64.56 330.166174,64.4236522 C330.143043,64.2873043 330.107739,64.1558261 330.060261,64.0292174 C330.012783,63.9026087 329.954348,63.7826957 329.884957,63.6694783 C329.815565,63.5562609 329.733391,63.4570435 329.638435,63.3718261 C329.543478,63.2866087 329.435739,63.2196522 329.315217,63.1709565 C329.194696,63.1222609 329.060174,63.097913 328.911652,63.097913 C328.697391,63.097913 328.514174,63.1545217 328.362,63.2677391 C328.209826,63.3809565 328.081391,63.5276522 327.976696,63.7078261 C327.969391,63.72 327.960261,63.7352174 327.949304,63.7534783 C327.938348,63.7717391 327.920696,63.8046087 327.896348,63.852087 C327.872,63.8995652 327.837913,63.9677391 327.794087,64.0566087 C327.750261,64.1454783 327.690609,64.2641739 327.61513,64.4126957 C327.522609,64.5904348 327.433739,64.7377391 327.348522,64.8546087 C327.085565,65.2052174 326.783652,65.3817391 326.442783,65.3841739 L326.442783,65.3841739 L326.366087,65.3841739 L326.366087,66.1 L326.43913,66.1 Z M329.174609,65.3732174 C329.138087,65.3732174 329.097913,65.3695652 329.054087,65.3622609 C328.934783,65.337913 328.800261,65.2904348 328.650522,65.2198261 C328.500783,65.1492174 328.334609,65.0518261 328.152,64.9276522 C328.15687,64.917913 328.163565,64.9045217 328.172087,64.8874783 C328.180609,64.8704348 328.196435,64.8381739 328.219565,64.7906957 C328.242696,64.7432174 328.276174,64.6750435 328.32,64.5861739 C328.363826,64.4973043 328.422261,64.3773913 328.495304,64.2264348 C328.643826,63.9537391 328.782609,63.8173913 328.911652,63.8173913 C329.021217,63.8173913 329.116174,63.8478261 329.196522,63.9086957 C329.27687,63.9695652 329.343217,64.048087 329.395565,64.1442609 C329.447913,64.2404348 329.488087,64.3481739 329.516087,64.4674783 C329.544087,64.5867826 329.560522,64.7048696 329.565391,64.8217391 L329.565391,64.8217391 L329.565391,64.8801739 C329.565391,64.945913 329.559304,65.0055652 329.54713,65.0591304 C329.530087,65.1273043 329.504522,65.1857391 329.470435,65.2344348 C329.40713,65.3269565 329.308522,65.3732174 329.174609,65.3732174 Z M326.508522,66.1 L326.508522,65.3841739 L326.435478,65.3841739 C326.265043,65.3841739 326.13113,65.3604348 326.033739,65.3129565 C325.936348,65.2654783 325.858435,65.176 325.8,65.0445217 C325.792696,65.029913 325.781739,64.9976522 325.76713,64.9477391 C325.752522,64.8978261 325.733043,64.8132174 325.708696,64.693913 C325.684348,64.5746087 325.656348,64.4151304 325.624696,64.2154783 C325.593043,64.0158261 325.557739,63.7589565 325.518783,63.4448696 C325.516348,63.4278261 325.511478,63.3852174 325.504174,63.3170435 C325.49687,63.2488696 325.488348,63.1685217 325.478609,63.076 C325.46887,62.9834783 325.458522,62.8842609 325.447565,62.7783478 L325.431587,62.6240435 L325.431587,62.6240435 L325.416522,62.4788696 C325.406783,62.3851304 325.398261,62.3035652 325.390957,62.2341739 C325.383652,62.1647826 325.378783,62.1203478 325.376348,62.1008696 L325.376348,62.1008696 L325.376348,62.1045217 L324.660522,62.2542609 C324.660522,62.2566957 324.664783,62.3011304 324.673304,62.3875652 C324.681826,62.474 324.695826,62.6097391 324.715304,62.7947826 C324.64713,62.8191304 324.566783,62.8501739 324.474261,62.887913 C324.381739,62.9256522 324.283739,62.971913 324.180261,63.0266957 C324.076783,63.0814783 323.969652,63.1447826 323.85887,63.2166087 C323.748087,63.2884348 323.640957,63.37 323.537478,63.4613043 C323.434,63.5526087 323.336609,63.6554783 323.245304,63.769913 C323.154,63.8843478 323.075478,64.0097391 323.009739,64.146087 C322.987826,64.1972174 322.970783,64.2568696 322.958609,64.3250435 C322.946435,64.3932174 322.940348,64.4601739 322.940348,64.525913 L322.940348,64.525913 L322.940348,64.5916522 C322.942783,64.6817391 322.958,64.7742609 322.986,64.8692174 C323.014,64.9641739 323.062087,65.0518261 323.130261,65.1321739 C323.376174,65.4365217 323.813217,65.5886957 324.441391,65.5886957 C324.560696,65.5886957 324.685478,65.5832174 324.815739,65.5722609 C324.946,65.5613043 325.087826,65.5436522 325.241217,65.5193043 C325.370261,65.7262609 325.530957,65.8747826 325.723304,65.9648696 C325.849913,66.0233043 325.97713,66.0604348 326.104957,66.0762609 C326.232783,66.092087 326.342957,66.1 326.435478,66.1 L326.435478,66.1 L326.508522,66.1 Z M324.447072,64.879971 L324.42313,64.8801739 C324.337913,64.8801739 324.253913,64.8753043 324.17113,64.8655652 C324.071304,64.8558261 323.981826,64.8369565 323.902696,64.8089565 C323.823565,64.7809565 323.759043,64.7413913 323.70913,64.6902609 C323.659217,64.6391304 323.634261,64.5746087 323.634261,64.4966957 C323.634261,64.4187826 323.654957,64.343913 323.696348,64.272087 C323.737739,64.2002609 323.791913,64.1326957 323.85887,64.0693913 C323.925826,64.006087 324.001304,63.9476522 324.085304,63.894087 C324.169304,63.8405217 324.254522,63.7912174 324.340957,63.7461739 C324.427391,63.7011304 324.510783,63.6609565 324.59113,63.6256522 C324.671478,63.5903478 324.74087,63.5605217 324.799304,63.5361739 C324.838261,63.8478261 324.872957,64.105913 324.903391,64.3104348 C324.933826,64.5149565 324.963652,64.6878261 324.99287,64.8290435 C324.929565,64.8412174 324.852261,64.8521739 324.760957,64.861913 C324.669652,64.8716522 324.594783,64.8771304 324.536348,64.8783478 C324.477913,64.8795652 324.440174,64.8801739 324.42313,64.8801739 L324.447072,64.879971 Z M323.889913,61.7246957 L324.718957,61.2645217 L325.602783,60.745913 L325.387304,60.4610435 L324.879652,60.7349565 C324.830957,60.7617391 324.779826,60.7751304 324.726261,60.7751304 L324.726261,60.7751304 L324.711652,60.7751304 C324.650783,60.7726957 324.592957,60.7593043 324.538174,60.7349565 C324.483391,60.7106087 324.43287,60.6777391 324.386609,60.6363478 C324.340348,60.5949565 324.303826,60.549913 324.277043,60.5012174 C324.252696,60.4525217 324.240522,60.4135652 324.240522,60.3843478 L324.240522,60.3843478 L324.240522,60.3295652 C324.240522,60.2833043 324.249043,60.2370435 324.266087,60.1907826 C324.285565,60.1396522 324.314174,60.0933913 324.351913,60.052 C324.389652,60.0106087 324.436522,59.9777391 324.492522,59.9533913 C324.531478,59.9363478 324.569826,59.926 324.607565,59.9223478 C324.645304,59.9186957 324.682435,59.9168696 324.718957,59.9168696 C324.765217,59.9168696 324.812696,59.9205217 324.861391,59.9278261 C324.910087,59.9351304 324.974609,59.9473043 325.054957,59.9643478 L325.054957,59.9643478 L325.157217,59.6283478 L325.018435,59.5954783 C324.977043,59.5857391 324.930783,59.5772174 324.879652,59.569913 C324.828522,59.5626087 324.774957,59.5589565 324.718957,59.5589565 C324.589913,59.5589565 324.470609,59.582087 324.361043,59.6283478 C324.288,59.6575652 324.221652,59.6965217 324.162,59.7452174 C324.102348,59.793913 324.051217,59.8493043 324.008609,59.9113913 C323.966,59.9734783 323.93313,60.0404348 323.91,60.1122609 C323.88687,60.184087 323.875304,60.2577391 323.875304,60.3332174 C323.875304,60.4257391 323.892348,60.5158261 323.926435,60.6034783 C323.967826,60.6984348 324.026261,60.7848696 324.101739,60.8627826 C324.177217,60.9406957 324.266087,61.0003478 324.368348,61.0417391 L324.368348,61.0417391 L323.714609,61.4069565 L323.889913,61.7246957 Z M317.359826,66.1 C317.486435,66.1 317.592348,66.0914783 317.677565,66.0744348 C318.193739,65.9794783 318.560174,65.7396522 318.77687,65.3549565 C318.828,65.2624348 318.872435,65.1601739 318.910174,65.0481739 C318.947913,64.9361739 318.971043,64.8357391 318.979565,64.7468696 C318.988087,64.658 318.992348,64.588 318.992348,64.5368696 C318.992348,64.4492174 318.985043,64.3566957 318.970435,64.2593043 C318.948522,64.1107826 318.904696,63.9525217 318.838957,63.7845217 C318.773217,63.6165217 318.680696,63.4393913 318.561391,63.2531304 C318.442087,63.0668696 318.289913,62.8714783 318.10487,62.6669565 C317.966087,62.5135652 317.826087,62.3735652 317.68487,62.2469565 C317.543652,62.1203478 317.413391,62.005913 317.294087,61.9036522 L317.294087,61.9036522 L319.909043,60.8043478 L319.627826,60.1396522 L316.625739,61.4252174 L316.541739,62.173913 C316.741391,62.3346087 316.937391,62.5074783 317.129739,62.6925217 C317.322087,62.8775652 317.496174,63.0583478 317.652,63.2348696 C317.807826,63.4113913 317.938696,63.5769565 318.044609,63.7315652 C318.150522,63.8861739 318.21687,64.0133913 318.243652,64.1132174 C318.277739,64.2446957 318.294783,64.3676522 318.294783,64.482087 C318.294783,64.5137391 318.293565,64.5453913 318.29113,64.5770435 C318.276522,64.7206957 318.229043,64.8546087 318.148696,64.9787826 C318.080522,65.0810435 317.986783,65.1595652 317.867478,65.2143478 C317.748174,65.2691304 317.616696,65.3093043 317.473043,65.3348696 C317.329391,65.3604348 317.178435,65.3750435 317.020174,65.3786957 C316.861913,65.3823478 316.709739,65.3841739 316.563652,65.3841739 L316.563652,65.3841739 L316.10713,65.3841739 L316.10713,66.1 L317.359826,66.1 Z M316.253217,66.1 L316.253217,65.3841739 L316.180174,65.3841739 C316.026783,65.3841739 315.894696,65.3683478 315.783913,65.3366957 C315.67313,65.3050435 315.589739,65.2612174 315.533739,65.2052174 C315.477739,65.1516522 315.445478,65.0889565 315.436957,65.0171304 C315.428435,64.9453043 315.424174,64.868 315.424174,64.7852174 L315.424174,64.7852174 L315.424174,62.9518261 C315.424174,62.7326957 315.42113,62.508087 315.415043,62.278 C315.408957,62.047913 315.400435,61.8269565 315.389478,61.6151304 C315.378522,61.4033043 315.36513,61.2073043 315.349304,61.0271304 C315.333478,60.8469565 315.314609,60.6947826 315.292696,60.5706087 L315.292696,60.5706087 L314.57687,60.702087 C314.598783,60.8165217 314.617652,60.9632174 314.633478,61.1421739 C314.649304,61.3211304 314.662696,61.5165217 314.673652,61.7283478 C314.684609,61.9401739 314.692522,62.1593043 314.697391,62.3857391 C314.702261,62.6121739 314.704696,62.830087 314.704696,63.0394783 C314.70713,63.2537391 314.708348,63.4570435 314.708348,63.6493913 L314.70812,63.7913696 C314.707663,63.9292391 314.706522,64.0547826 314.704696,64.168 C314.702261,64.3189565 314.700435,64.4425217 314.699217,64.5386957 C314.698487,64.5964 314.697976,64.6402991 314.697683,64.670393 L314.697797,64.7744638 C314.698338,64.8185604 314.69942,64.8677971 314.701043,64.9221739 C314.703478,65.0037391 314.715043,65.0895652 314.735739,65.1796522 C314.756435,65.2697391 314.788087,65.3610435 314.830696,65.4535652 C314.873304,65.546087 314.934783,65.6325217 315.01513,65.7128696 C315.146609,65.8443478 315.306696,65.9417391 315.495391,66.0050435 C315.684087,66.0683478 315.912348,66.1 316.180174,66.1 L316.180174,66.1 L316.253217,66.1 Z M310.866261,66.3885217 C310.912522,66.3885217 310.96,66.3873043 311.008696,66.3848696 C311.23513,66.3775652 311.45913,66.3507826 311.680696,66.3045217 C311.938783,66.2436522 312.176174,66.1608696 312.39287,66.0561739 C312.609565,65.9514783 312.798261,65.826087 312.958957,65.68 C313.063652,65.5850435 313.156783,65.4675652 313.238348,65.3275652 C313.319913,65.1875652 313.388087,65.0384348 313.44287,64.8801739 C313.497652,64.721913 313.536,64.5727826 313.557913,64.4327826 C313.579826,64.2927826 313.590783,64.1704348 313.590783,64.0657391 C313.590783,64.0243478 313.589565,63.9829565 313.58713,63.9415652 C313.570087,63.6713043 313.548783,63.3992174 313.523217,63.1253043 C313.497652,62.8513913 313.47087,62.5884348 313.44287,62.3364348 C313.41487,62.0844348 313.38687,61.8488696 313.35887,61.6297391 C313.33087,61.4106087 313.305913,61.220087 313.284,61.0581739 C313.262087,60.8962609 313.243826,60.7678261 313.229217,60.6728696 C313.214609,60.577913 313.207304,60.5292174 313.207304,60.5267826 L313.207304,60.5267826 L312.491478,60.5961739 L312.867652,63.9926957 C312.870087,64.0267826 312.871304,64.0608696 312.871304,64.0949565 C312.871304,64.1801739 312.861565,64.2678261 312.842087,64.357913 C312.810435,64.4893913 312.764783,64.6172174 312.70513,64.7413913 C312.645478,64.8655652 312.572435,64.9806087 312.486,65.0865217 C312.399565,65.1924348 312.306435,65.2770435 312.206609,65.3403478 C312.123826,64.9532174 311.989913,64.5350435 311.80487,64.0858261 C311.619826,63.6366087 311.38,63.1502609 311.085391,62.6267826 C310.966087,62.4125217 310.851652,62.215913 310.742087,62.0369565 C310.632522,61.858 310.53513,61.7033913 310.449913,61.5731304 C310.364696,61.4428696 310.295913,61.34 310.243565,61.2645217 C310.191217,61.1890435 310.163826,61.1476522 310.161391,61.1403478 L310.161391,61.1403478 L309.566087,61.5566957 C309.568522,61.5591304 309.594087,61.5950435 309.642783,61.6644348 C309.691478,61.7338261 309.756,61.83 309.836348,61.9529565 C309.916696,62.075913 310.008609,62.2207826 310.112087,62.3875652 C310.215565,62.5543478 310.322696,62.7369565 310.433478,62.9353913 C310.544261,63.1338261 310.656261,63.3432174 310.769478,63.5635652 C310.882696,63.783913 310.988609,64.0085217 311.087217,64.2373913 C311.185826,64.4662609 311.27287,64.6957391 311.348348,64.9258261 C311.423826,65.155913 311.481043,65.3793043 311.52,65.596 C311.330087,65.6373913 311.180348,65.659913 311.070783,65.6635652 C310.961217,65.6672174 310.888174,65.6690435 310.851652,65.6690435 C310.708,65.6690435 310.575304,65.6568696 310.453565,65.6325217 L310.453565,65.6325217 L310.329391,66.3446957 C310.50713,66.373913 310.686087,66.3885217 310.866261,66.3885217 Z M307.013217,66.1109565 C307.098435,66.1109565 307.192174,66.1073043 307.294435,66.1 C307.396696,66.0926957 307.498348,66.079913 307.599391,66.0616522 C307.700435,66.0433913 307.797217,66.0202609 307.889739,65.9922609 C307.982261,65.9642609 308.062609,65.9295652 308.130783,65.8881739 L308.130783,65.8881739 C308.386435,65.7518261 308.576957,65.5807826 308.702348,65.3750435 C308.827739,65.1693043 308.890435,64.945913 308.890435,64.7048696 C308.890435,64.3834783 308.778435,64.0669565 308.554435,63.7553043 C308.478957,63.6530435 308.373043,63.5507826 308.236696,63.4485217 C308.100348,63.3462609 307.942696,63.2452174 307.763739,63.1453913 C307.584783,63.0455652 307.39,62.9457391 307.179391,62.845913 C306.968783,62.746087 306.750261,62.6462609 306.523826,62.5464348 L306.523826,62.5464348 L305.25287,62.0241739 L304.905913,62.6815652 L305.194435,62.7947826 C305.048348,62.8653913 304.922957,62.9548696 304.818261,63.0632174 C304.713565,63.1715652 304.626522,63.2884348 304.55713,63.4138261 C304.487739,63.5392174 304.436609,63.6694783 304.403739,63.8046087 C304.37087,63.9397391 304.354435,64.0681739 304.354435,64.189913 C304.354435,64.3676522 304.400087,64.552087 304.491391,64.7432174 C304.582696,64.9343478 304.719652,65.1285217 304.902261,65.3257391 C304.831652,65.3354783 304.759217,65.344 304.684957,65.3513043 C304.610696,65.3586087 304.528522,65.3646957 304.438435,65.3695652 C304.348348,65.3744348 304.247913,65.378087 304.13713,65.3805217 C304.026348,65.3829565 303.897913,65.3841739 303.751826,65.3841739 L303.751826,65.3841739 L303.653217,65.3841739 L303.653217,66.1 L303.751826,66.1 C303.924696,66.1 304.103652,66.0963478 304.288696,66.0890435 C304.473739,66.0817391 304.65513,66.0701739 304.83287,66.0543478 C305.010609,66.0385217 305.180435,66.0172174 305.342348,65.9904348 C305.504261,65.9636522 305.649739,65.9307826 305.778783,65.8918261 C305.985739,65.9746087 306.189652,66.0318261 306.390522,66.0634783 C306.591391,66.0951304 306.798957,66.1109565 307.013217,66.1109565 Z M305.742261,65.1102609 C305.649739,65.0493913 305.562087,64.9830435 305.479304,64.9112174 C305.396522,64.8393913 305.324087,64.7626957 305.262,64.6811304 C305.199913,64.5995652 305.150609,64.5125217 305.114087,64.42 C305.077565,64.3274783 305.059304,64.230087 305.059304,64.1278261 C305.059304,64.0182609 305.082435,63.9038261 305.128696,63.7845217 C305.174957,63.6652174 305.23887,63.558087 305.320435,63.4631304 C305.402,63.3681739 305.489043,63.2987826 305.581565,63.2549565 C305.674087,63.2111304 305.761739,63.1892174 305.844522,63.1892174 C305.888348,63.1892174 305.933391,63.194087 305.979652,63.2038261 C306.084348,63.2257391 306.168957,63.2653043 306.233478,63.3225217 C306.298,63.3797391 306.347913,63.4454783 306.383217,63.5197391 C306.418522,63.594 306.441652,63.671913 306.452609,63.7534783 C306.463565,63.8350435 306.469043,63.9123478 306.469043,63.9853913 C306.469043,64.0876522 306.454435,64.1935652 306.425217,64.3031304 C306.396,64.4126957 306.351565,64.518 306.291913,64.6190435 C306.232261,64.720087 306.156783,64.8132174 306.065478,64.8984348 C305.974174,64.9836522 305.866435,65.0542609 305.742261,65.1102609 Z M306.943826,65.4097391 C306.9,65.4097391 306.852522,65.4085217 306.801391,65.406087 C306.750261,65.4036522 306.685739,65.3963478 306.607826,65.3841739 C306.700348,65.2867826 306.784348,65.1796522 306.859826,65.0627826 C306.935304,64.945913 306.999217,64.8272174 307.051565,64.7066957 C307.103913,64.5861739 307.144696,64.4662609 307.173913,64.3469565 C307.20313,64.2276522 307.217739,64.1168696 307.217739,64.0146087 C307.217739,63.9415652 307.216522,63.8636522 307.214087,63.7808696 C307.211652,63.698087 307.197043,63.6104348 307.170261,63.517913 C307.34313,63.5982609 307.494087,63.6871304 307.62313,63.7845217 C307.752174,63.881913 307.859913,63.9811304 307.946348,64.0821739 C308.032783,64.1832174 308.097913,64.2836522 308.141739,64.3834783 C308.185565,64.4833043 308.207478,64.5758261 308.207478,64.6610435 C308.207478,64.7608696 308.184957,64.8564348 308.139913,64.9477391 C308.09487,65.0390435 308.021826,65.1187826 307.920783,65.1869565 C307.819739,65.2551304 307.68887,65.3093043 307.528174,65.3494783 C307.367478,65.3896522 307.172696,65.4097391 306.943826,65.4097391 Z M303.799304,66.1 L303.799304,65.3841739 L303.726261,65.3841739 C303.57287,65.3841739 303.440783,65.3683478 303.33,65.3366957 C303.219217,65.3050435 303.135826,65.2612174 303.079826,65.2052174 C303.023826,65.1516522 302.991565,65.0889565 302.983043,65.0171304 C302.974522,64.9453043 302.970261,64.868 302.970261,64.7852174 L302.970261,64.7852174 L302.970261,62.9518261 C302.970261,62.7326957 302.967217,62.508087 302.96113,62.278 C302.955043,62.047913 302.946522,61.8269565 302.935565,61.6151304 C302.924609,61.4033043 302.911217,61.2073043 302.895391,61.0271304 C302.879565,60.8469565 302.860696,60.6947826 302.838783,60.5706087 L302.838783,60.5706087 L302.122957,60.702087 C302.14487,60.8165217 302.163739,60.9632174 302.179565,61.1421739 C302.195391,61.3211304 302.208783,61.5165217 302.219739,61.7283478 C302.230696,61.9401739 302.238609,62.1593043 302.243478,62.3857391 C302.248348,62.6121739 302.250783,62.830087 302.250783,63.0394783 C302.253217,63.2537391 302.254435,63.4570435 302.254435,63.6493913 C302.254435,63.8441739 302.253217,64.0170435 302.250783,64.168 C302.248348,64.3189565 302.246522,64.4425217 302.245304,64.5386957 C302.244087,64.6348696 302.243478,64.6926957 302.243478,64.7121739 C302.243478,64.7706087 302.244696,64.8406087 302.24713,64.9221739 C302.249565,65.0037391 302.26113,65.0895652 302.281826,65.1796522 C302.302522,65.2697391 302.334174,65.3610435 302.376783,65.4535652 C302.419391,65.546087 302.48087,65.6325217 302.561217,65.7128696 C302.692696,65.8443478 302.852783,65.9417391 303.041478,66.0050435 C303.230174,66.0683478 303.458435,66.1 303.726261,66.1 L303.726261,66.1 L303.799304,66.1 Z" id="همهٔکالها" fill-opacity="0.56" fill="#000000" fill-rule="nonzero"></path>
                <path d="M292.345833,64 L294.1537,62.1921333 C294.336633,62.0092 294.336633,61.7128667 294.1537,61.5299333 C293.9703,61.3465333 293.674433,61.3465333 293.491033,61.5299333 L291.351833,63.6691333 C291.169367,63.8520667 291.169367,64.1479333 291.351833,64.3308667 L293.491033,66.4700667 C293.5825,66.5615333 293.702433,66.6072667 293.822367,66.6072667 C293.9423,66.6072667 294.062233,66.5615333 294.1537,66.4700667 C294.336633,66.2871333 294.336633,65.9908 294.1537,65.8078667 L292.345833,64 Z" id="icon_color" fill-opacity="0.56" fill="#000000"></path>
                <path d="M280.993913,62.0789565 L281.589217,61.4836522 L280.990261,60.8846957 L280.394957,61.48 L280.993913,62.0789565 Z M279.423478,66.1 C279.79113,66.1 280.15513,66.065913 280.515478,65.9977391 C280.875826,65.9295652 281.224609,65.8413043 281.561826,65.7329565 C281.899043,65.6246087 282.221652,65.5034783 282.529652,65.3695652 C282.837652,65.2356522 283.125565,65.1017391 283.393391,64.9678261 C283.576,64.8777391 283.751304,64.791913 283.919304,64.7103478 C284.087304,64.6287826 284.256522,64.5526957 284.426957,64.482087 L284.426957,64.482087 L284.288174,63.7881739 C284.137217,63.7881739 283.987478,63.7723478 283.838957,63.7406957 C283.690435,63.7090435 283.541913,63.6670435 283.393391,63.6146957 C283.24487,63.5623478 283.096957,63.5033043 282.949652,63.4375652 C282.802348,63.3718261 282.65687,63.3048696 282.513217,63.2366957 C282.381739,63.1758261 282.251478,63.1161739 282.122435,63.0577391 C281.993391,62.9993043 281.866783,62.9475652 281.742609,62.9025217 C281.618435,62.8574783 281.496087,62.8215652 281.375565,62.7947826 C281.255043,62.768 281.136348,62.7546087 281.019478,62.7546087 C280.783304,62.7546087 280.558696,62.8118261 280.345652,62.9262609 C280.132609,63.0406957 279.93113,63.2123478 279.741217,63.4412174 C279.675478,63.5191304 279.617652,63.5958261 279.567739,63.6713043 C279.517826,63.7467826 279.475217,63.8137391 279.439913,63.8721739 C279.404609,63.9306087 279.377826,63.9786957 279.359565,64.0164348 C279.341304,64.0541739 279.330957,64.0754783 279.328522,64.0803478 L279.328522,64.0803478 L279.985913,64.3761739 C279.985913,64.3737391 279.997478,64.35 280.020609,64.3049565 C280.043739,64.259913 280.077217,64.203913 280.121043,64.1369565 C280.16487,64.07 280.217217,63.9981739 280.278087,63.9214783 C280.338957,63.8447826 280.407739,63.7729565 280.484435,63.706 C280.56113,63.6390435 280.644522,63.5836522 280.734609,63.5398261 C280.824696,63.496 280.919652,63.474087 281.019478,63.474087 C281.094957,63.474087 281.177739,63.4856522 281.267826,63.5087826 C281.357913,63.531913 281.453478,63.5629565 281.554522,63.601913 C281.655565,63.6408696 281.760261,63.6853043 281.868609,63.7352174 C281.976957,63.7851304 282.088348,63.8368696 282.202783,63.8904348 C282.351304,63.9610435 282.502261,64.0304348 282.655652,64.0986087 C282.809043,64.1667826 282.969739,64.230087 283.137739,64.2885217 C282.860174,64.4273043 282.571652,64.5624348 282.272174,64.693913 C281.972696,64.8253913 281.665913,64.9422609 281.351826,65.0445217 C281.037739,65.1467826 280.718783,65.2289565 280.394957,65.2910435 C280.07113,65.3531304 279.747304,65.3841739 279.423478,65.3841739 L279.423478,65.3841739 L278.630957,65.3841739 L278.630957,66.1 L279.423478,66.1 Z M275.347652,68.6638261 C275.70313,68.6078261 276.047043,68.5104348 276.379391,68.3716522 C276.711739,68.2328696 277.013652,68.0551304 277.28513,67.8384348 C277.556609,67.6217391 277.787913,67.367913 277.979043,67.0769565 C278.170174,66.786 278.302261,66.4603478 278.375304,66.1 L278.375304,66.1 L278.777043,66.1 L278.777043,65.3841739 L278.430087,65.3841739 C278.425217,65.1991304 278.405739,65.0171304 278.371652,64.8381739 C278.337565,64.6592174 278.291304,64.4875652 278.23287,64.3232174 C278.174435,64.1588696 278.103826,64.0048696 278.021043,63.8612174 C277.938261,63.7175652 277.845739,63.5885217 277.743478,63.474087 C277.453739,63.1624348 277.136,63.0066087 276.790261,63.0066087 C276.634435,63.0066087 276.484087,63.0461739 276.339217,63.1253043 C276.194348,63.2044348 276.059826,63.3206957 275.935652,63.474087 C275.833391,63.6055652 275.744522,63.762 275.669043,63.9433913 C275.593565,64.1247826 275.545478,64.2866957 275.524783,64.4291304 C275.504087,64.5715652 275.493739,64.6890435 275.493739,64.7815652 C275.493739,64.8789565 275.502261,64.9763478 275.519304,65.0737391 C275.548522,65.2587826 275.61913,65.421913 275.73113,65.5631304 C275.984348,65.8772174 276.37513,66.050087 276.903478,66.0817391 C277.037391,66.093913 277.157304,66.1 277.263217,66.1 L277.263217,66.1 L277.677739,66.1 C277.650957,66.2826087 277.576087,66.4682609 277.45313,66.6569565 C277.330174,66.8456522 277.162783,67.024 276.950957,67.192 C276.73913,67.36 276.484696,67.5109565 276.187652,67.6448696 C275.890609,67.7787826 275.554609,67.8834783 275.179652,67.9589565 L275.179652,67.9589565 L275.347652,68.6638261 Z M277.353152,65.376413 L277.294261,65.3768696 C277.18713,65.3768696 277.072696,65.3732174 276.950957,65.365913 C276.90713,65.3634783 276.855391,65.358 276.795739,65.3494783 C276.736087,65.3409565 276.675217,65.3275652 276.61313,65.3093043 C276.551043,65.2910435 276.492609,65.2666957 276.437826,65.2362609 C276.383043,65.2058261 276.337391,65.1662609 276.30087,65.1175652 C276.259478,65.0664348 276.234522,65.0086087 276.226,64.944087 C276.217478,64.8795652 276.213217,64.8253913 276.213217,64.7815652 C276.213217,64.728 276.21687,64.6732174 276.224174,64.6172174 C276.236348,64.5149565 276.259478,64.4108696 276.293565,64.3049565 C276.327652,64.1990435 276.369652,64.1034783 276.419565,64.0182609 C276.469478,63.9330435 276.526087,63.8630435 276.589391,63.8082609 C276.652696,63.7534783 276.719652,63.726087 276.790261,63.726087 C276.834087,63.726087 276.875478,63.7333913 276.914435,63.748 C276.953391,63.7626087 276.990522,63.7814783 277.025826,63.8046087 C277.06113,63.8277391 277.094,63.8533043 277.124435,63.8813043 C277.15487,63.9093043 277.182261,63.9354783 277.206609,63.9598261 C277.267478,64.0304348 277.326522,64.1138261 277.383739,64.21 C277.440957,64.3061739 277.492696,64.413913 277.538957,64.5332174 C277.585217,64.6525217 277.622957,64.7815652 277.652174,64.9203478 C277.681391,65.0591304 277.699652,65.2064348 277.706957,65.3622609 C277.612,65.3695652 277.526174,65.3738261 277.449478,65.3750435 C277.41113,65.3756522 277.379022,65.3761087 277.353152,65.376413 Z M272.769217,66.0963478 C272.915304,66.0963478 273.062,66.0853913 273.209304,66.0634783 C273.356609,66.0415652 273.498435,66.0062609 273.634783,65.9575652 C273.77113,65.9088696 273.898348,65.8461739 274.016435,65.7694783 C274.134522,65.6927826 274.237391,65.6008696 274.325043,65.4937391 C274.364,65.4474783 274.400522,65.3926957 274.434609,65.3293913 C274.468696,65.266087 274.495478,65.1918261 274.514957,65.1066087 C274.534435,65.0213913 274.544783,64.924 274.546,64.8144348 C274.547217,64.7048696 274.533217,64.581913 274.504,64.4455652 C274.467478,64.2921739 274.412087,64.1333043 274.337826,63.9689565 C274.263565,63.8046087 274.174696,63.6414783 274.071217,63.4795652 C273.967739,63.3176522 273.853304,63.1606087 273.727913,63.0084348 C273.602522,62.8562609 273.470435,62.7144348 273.331652,62.5829565 C273.19287,62.4514783 273.051043,62.3333913 272.906174,62.2286957 C272.761304,62.124 272.617043,62.0387826 272.473391,61.9730435 L272.473391,61.9730435 L272.177565,62.6377391 C272.28713,62.6864348 272.39913,62.7521739 272.513565,62.8349565 C272.628,62.9177391 272.740609,63.0126957 272.851391,63.1198261 C272.962174,63.2269565 273.068696,63.342 273.170957,63.4649565 C273.273217,63.587913 273.366348,63.7145217 273.450348,63.8447826 C273.534348,63.9750435 273.606174,64.1053043 273.665826,64.2355652 C273.725478,64.3658261 273.768696,64.4906087 273.795478,64.609913 C273.814957,64.6975652 273.824696,64.7730435 273.824696,64.8363478 C273.824696,64.924 273.806435,64.9897391 273.769913,65.0335652 C273.68713,65.1333913 273.58487,65.2076522 273.46313,65.2563478 C273.341391,65.3050435 273.231826,65.3336522 273.134435,65.3421739 C273.037043,65.3506957 272.960348,65.3549565 272.904348,65.3549565 C272.814261,65.3549565 272.722957,65.3488696 272.630435,65.3366957 C272.477043,65.3172174 272.328522,65.2873913 272.18487,65.2472174 C272.041217,65.2070435 271.906087,65.1595652 271.779478,65.1047826 C271.65287,65.05 271.544522,64.9933913 271.454435,64.9349565 L271.454435,64.9349565 L271.154957,65.6215652 C271.215826,65.6775652 271.312,65.7335652 271.443478,65.7895652 C271.574957,65.8455652 271.719826,65.8966957 271.878087,65.9429565 C272.036348,65.9892174 272.195217,66.0263478 272.354696,66.0543478 C272.514174,66.0823478 272.652348,66.0963478 272.769217,66.0963478 Z M267.926435,68.7149565 C268.130957,68.6151304 268.332435,68.5025217 268.53087,68.3771304 C268.729304,68.2517391 268.918,68.1147826 269.096957,67.9662609 C269.275913,67.8177391 269.441478,67.6594783 269.593652,67.4914783 C269.745826,67.3234783 269.877304,67.1469565 269.988087,66.961913 C270.09887,66.7768696 270.185304,66.5851304 270.247391,66.3866957 C270.309478,66.1882609 270.340522,65.9831304 270.340522,65.7713043 C270.340522,65.6641739 270.332,65.5546087 270.314957,65.4426087 C270.297913,65.3306087 270.276609,65.2167826 270.251043,65.1011304 C270.225478,64.9854783 270.197478,64.8686087 270.167043,64.7505217 C270.136609,64.6324348 270.106783,64.5149565 270.077565,64.398087 C270.050783,64.286087 270.020348,64.1746957 269.986261,64.063913 C269.952174,63.9531304 269.918087,63.8405217 269.884,63.726087 L269.884,63.726087 L269.190087,63.9452174 C269.255826,64.1497391 269.317913,64.3542609 269.376348,64.5587826 C269.40313,64.6586087 269.43113,64.7608696 269.460348,64.8655652 C269.489565,64.9702609 269.516348,65.0749565 269.540696,65.1796522 C269.565043,65.2843478 269.58513,65.3866087 269.600957,65.4864348 C269.616783,65.5862609 269.624696,65.6812174 269.624696,65.7713043 C269.624696,66.0074783 269.567478,66.2363478 269.453043,66.457913 C269.338609,66.6794783 269.187043,66.8888696 268.998348,67.086087 C268.809652,67.2833043 268.594783,67.4653043 268.353739,67.632087 C268.112696,67.7988696 267.864348,67.9455652 267.608696,68.0721739 L267.608696,68.0721739 L267.926435,68.7149565 Z M264.592,68.6638261 C264.842783,68.6248696 265.088696,68.5646087 265.329739,68.4830435 C265.570783,68.4014783 265.800261,68.3004348 266.018174,68.179913 C266.236087,68.0593913 266.439391,67.9187826 266.628087,67.758087 C266.816783,67.5973913 266.982957,67.4184348 267.126609,67.2212174 C267.270261,67.024 267.388348,66.8091304 267.48087,66.5766087 C267.573391,66.344087 267.633043,66.093913 267.659826,65.826087 C267.672,65.7092174 267.678087,65.5923478 267.678087,65.4754783 C267.678087,65.3707826 267.673217,65.266087 267.663478,65.1613913 C267.641565,64.9398261 267.601391,64.7267826 267.542957,64.5222609 C267.484522,64.3177391 267.408435,64.126 267.314696,63.9470435 C267.220957,63.768087 267.112,63.6104348 266.987826,63.474087 C266.698087,63.1624348 266.380348,63.0066087 266.034609,63.0066087 C265.878783,63.0066087 265.728435,63.0461739 265.583565,63.1253043 C265.438696,63.2044348 265.304174,63.3206957 265.18,63.474087 C265.077739,63.6055652 264.98887,63.762 264.913391,63.9433913 C264.837913,64.1247826 264.789826,64.2866957 264.76913,64.4291304 C264.748435,64.5715652 264.738087,64.6890435 264.738087,64.7815652 C264.738087,64.8789565 264.746609,64.9763478 264.763652,65.0737391 C264.79287,65.2587826 264.863478,65.421913 264.975478,65.5631304 C265.228696,65.8772174 265.619478,66.050087 266.147826,66.0817391 C266.281739,66.093913 266.401652,66.1 266.507565,66.1 L266.507565,66.1 L266.922087,66.1 C266.895304,66.2826087 266.820435,66.4682609 266.697478,66.6569565 C266.574522,66.8456522 266.40713,67.024 266.195304,67.192 C265.983478,67.36 265.729043,67.5109565 265.432,67.6448696 C265.134957,67.7787826 264.798957,67.8834783 264.424,67.9589565 L264.424,67.9589565 L264.592,68.6638261 Z M266.5975,65.376413 L266.538609,65.3768696 C266.431478,65.3768696 266.317043,65.3732174 266.195304,65.365913 C266.151478,65.3634783 266.099739,65.358 266.040087,65.3494783 C265.980435,65.3409565 265.919565,65.3275652 265.857478,65.3093043 C265.795391,65.2910435 265.736957,65.2666957 265.682174,65.2362609 C265.627391,65.2058261 265.581739,65.1662609 265.545217,65.1175652 C265.503826,65.0664348 265.47887,65.0086087 265.470348,64.944087 C265.461826,64.8795652 265.457565,64.8253913 265.457565,64.7815652 C265.457565,64.728 265.461217,64.6732174 265.468522,64.6172174 C265.480696,64.5149565 265.503826,64.4108696 265.537913,64.3049565 C265.572,64.1990435 265.614,64.1034783 265.663913,64.0182609 C265.713826,63.9330435 265.770435,63.8630435 265.833739,63.8082609 C265.897043,63.7534783 265.964,63.726087 266.034609,63.726087 C266.078435,63.726087 266.119826,63.7333913 266.158783,63.748 C266.197739,63.7626087 266.23487,63.7814783 266.270174,63.8046087 C266.305478,63.8277391 266.338348,63.8533043 266.368783,63.8813043 C266.399217,63.9093043 266.426609,63.9354783 266.450957,63.9598261 C266.511826,64.0304348 266.57087,64.1138261 266.628087,64.21 C266.685304,64.3061739 266.737043,64.413913 266.783304,64.5332174 C266.829565,64.6525217 266.867304,64.7815652 266.896522,64.9203478 C266.925739,65.0591304 266.944,65.2064348 266.951304,65.3622609 C266.856348,65.3695652 266.770522,65.3738261 266.693826,65.3750435 C266.655478,65.3756522 266.62337,65.3761087 266.5975,65.376413 Z M259.807652,66.1438261 C260.034087,66.1438261 260.232522,66.1121739 260.402957,66.0488696 C260.578261,65.9855652 260.724348,65.8942609 260.841217,65.7749565 C260.958087,65.6556522 261.045739,65.5113913 261.104174,65.3421739 C261.162609,65.1729565 261.191826,64.9836522 261.191826,64.7742609 C261.191826,64.6354783 261.179043,64.4930435 261.153478,64.3469565 C261.127913,64.2008696 261.095043,64.0584348 261.05487,63.9196522 C261.014696,63.7808696 260.971478,63.6475652 260.925217,63.5197391 C260.878957,63.391913 260.833913,63.2774783 260.790087,63.1764348 C260.746261,63.0753913 260.707304,62.9901739 260.673217,62.9207826 C260.664696,62.9034348 260.656859,62.8874946 260.649707,62.872962 L260.603826,62.7801739 L259.964696,63.1161739 C260.003652,63.194087 260.051739,63.2993913 260.108957,63.432087 C260.166174,63.5647826 260.220957,63.7084348 260.273304,63.8630435 C260.325652,64.0176522 260.370696,64.1753043 260.408435,64.336 C260.446174,64.4966957 260.465043,64.6464348 260.465043,64.7852174 C260.465043,64.8923478 260.45287,64.9885217 260.428522,65.0737391 C260.404174,65.1589565 260.364609,65.2295652 260.309826,65.2855652 C260.255043,65.3415652 260.192957,65.3786957 260.123565,65.3969565 C260.054174,65.4152174 259.984174,65.4243478 259.913565,65.4243478 C259.872174,65.4243478 259.828348,65.421913 259.782087,65.4170435 C259.709043,65.4097391 259.647565,65.386 259.597652,65.3458261 C259.547739,65.3056522 259.507565,65.2545217 259.47713,65.1924348 C259.446696,65.1303478 259.424783,65.0585217 259.411391,64.9769565 C259.398,64.8953913 259.391304,64.8095652 259.391304,64.7194783 C259.391304,64.6196522 259.398609,64.5058261 259.413217,64.378 C259.427826,64.2501739 259.444261,64.1296522 259.462522,64.0164348 C259.480783,63.9032174 259.497217,63.8064348 259.511826,63.726087 L259.511826,63.726087 L259.530087,63.6092174 L258.82887,63.4813913 C258.814261,63.5812174 258.794174,63.6986957 258.768609,63.8338261 C258.743043,63.9689565 258.710174,64.1083478 258.67,64.252 C258.629826,64.3956522 258.58113,64.5368696 258.523913,64.6756522 C258.466696,64.8144348 258.399739,64.9386087 258.323043,65.0481739 C258.246348,65.1577391 258.158696,65.2466087 258.060087,65.3147826 C257.961478,65.3829565 257.850087,65.4170435 257.725913,65.4170435 C257.648,65.4170435 257.583478,65.4024348 257.532348,65.3732174 C257.481217,65.344 257.441043,65.3050435 257.411826,65.2563478 C257.382609,65.2076522 257.361913,65.1522609 257.349739,65.0901739 C257.337565,65.028087 257.331478,64.9641739 257.331478,64.8984348 C257.331478,64.8034783 257.341217,64.7006087 257.360696,64.5898261 C257.380174,64.4790435 257.403304,64.3706957 257.430087,64.2647826 C257.45687,64.1588696 257.484261,64.0596522 257.512261,63.9671304 C257.540261,63.8746087 257.564,63.7991304 257.583478,63.7406957 L257.583478,63.7406957 L256.860348,63.5873043 C256.836,63.7066087 256.806783,63.8332174 256.772696,63.9671304 C256.738609,64.1010435 256.697217,64.2343478 256.648522,64.3670435 C256.599826,64.4997391 256.542609,64.6269565 256.47687,64.7486957 C256.41113,64.8704348 256.333826,64.9781739 256.244957,65.071913 C256.156087,65.1656522 256.054435,65.2411304 255.94,65.2983478 C255.825565,65.3555652 255.696522,65.3841739 255.55287,65.3841739 L255.55287,65.3841739 L255.472522,65.3841739 L255.472522,66.1 L255.549217,66.1 C255.690435,66.1 255.820087,66.0884348 255.938174,66.0653043 C256.056261,66.0421739 256.164,66.0086957 256.261391,65.9648696 C256.358783,65.9210435 256.44887,65.868087 256.531652,65.806 C256.614435,65.743913 256.692348,65.673913 256.765391,65.596 C256.804348,65.686087 256.859739,65.7652174 256.931565,65.8333913 C257.003391,65.9015652 257.08313,65.9587826 257.170783,66.0050435 C257.258435,66.0513043 257.350348,66.086 257.446522,66.1091304 C257.542696,66.1322609 257.635826,66.1438261 257.725913,66.1438261 C257.93287,66.1438261 258.12887,66.093913 258.313913,65.994087 C258.498957,65.8942609 258.664522,65.7591304 258.810609,65.5886957 C258.861739,65.6666087 258.923826,65.7390435 258.99687,65.806 C259.069913,65.8729565 259.149043,65.9313913 259.234261,65.9813043 C259.319478,66.0312174 259.408957,66.0707826 259.502696,66.1 C259.596435,66.1292174 259.689565,66.1438261 259.782087,66.1438261 L259.782087,66.1438261 L259.807652,66.1438261 Z M252.189217,68.6638261 C252.544696,68.6078261 252.888609,68.5104348 253.220957,68.3716522 C253.553304,68.2328696 253.855217,68.0551304 254.126696,67.8384348 C254.398174,67.6217391 254.629478,67.367913 254.820609,67.0769565 C255.011739,66.786 255.143826,66.4603478 255.21687,66.1 L255.21687,66.1 L255.618609,66.1 L255.618609,65.3841739 L255.271652,65.3841739 C255.266783,65.1991304 255.247304,65.0171304 255.213217,64.8381739 C255.17913,64.6592174 255.13287,64.4875652 255.074435,64.3232174 C255.016,64.1588696 254.945391,64.0048696 254.862609,63.8612174 C254.779826,63.7175652 254.687304,63.5885217 254.585043,63.474087 C254.295304,63.1624348 253.977565,63.0066087 253.631826,63.0066087 C253.476,63.0066087 253.325652,63.0461739 253.180783,63.1253043 C253.035913,63.2044348 252.901391,63.3206957 252.777217,63.474087 C252.674957,63.6055652 252.586087,63.762 252.510609,63.9433913 C252.43513,64.1247826 252.387043,64.2866957 252.366348,64.4291304 C252.345652,64.5715652 252.335304,64.6890435 252.335304,64.7815652 C252.335304,64.8789565 252.343826,64.9763478 252.36087,65.0737391 C252.390087,65.2587826 252.460696,65.421913 252.572696,65.5631304 C252.825913,65.8772174 253.216696,66.050087 253.745043,66.0817391 C253.878957,66.093913 253.99887,66.1 254.104783,66.1 L254.104783,66.1 L254.519304,66.1 C254.492522,66.2826087 254.417652,66.4682609 254.294696,66.6569565 C254.171739,66.8456522 254.004348,67.024 253.792522,67.192 C253.580696,67.36 253.326261,67.5109565 253.029217,67.6448696 C252.732174,67.7787826 252.396174,67.8834783 252.021217,67.9589565 L252.021217,67.9589565 L252.189217,68.6638261 Z M254.194717,65.376413 L254.135826,65.3768696 C254.028696,65.3768696 253.914261,65.3732174 253.792522,65.365913 C253.748696,65.3634783 253.696957,65.358 253.637304,65.3494783 C253.577652,65.3409565 253.516783,65.3275652 253.454696,65.3093043 C253.392609,65.2910435 253.334174,65.2666957 253.279391,65.2362609 C253.224609,65.2058261 253.178957,65.1662609 253.142435,65.1175652 C253.101043,65.0664348 253.076087,65.0086087 253.067565,64.944087 C253.059043,64.8795652 253.054783,64.8253913 253.054783,64.7815652 C253.054783,64.728 253.058435,64.6732174 253.065739,64.6172174 C253.077913,64.5149565 253.101043,64.4108696 253.13513,64.3049565 C253.169217,64.1990435 253.211217,64.1034783 253.26113,64.0182609 C253.311043,63.9330435 253.367652,63.8630435 253.430957,63.8082609 C253.494261,63.7534783 253.561217,63.726087 253.631826,63.726087 C253.675652,63.726087 253.717043,63.7333913 253.756,63.748 C253.794957,63.7626087 253.832087,63.7814783 253.867391,63.8046087 C253.902696,63.8277391 253.935565,63.8533043 253.966,63.8813043 C253.996435,63.9093043 254.023826,63.9354783 254.048174,63.9598261 C254.109043,64.0304348 254.168087,64.1138261 254.225304,64.21 C254.282522,64.3061739 254.334261,64.413913 254.380522,64.5332174 C254.426783,64.6525217 254.464522,64.7815652 254.493739,64.9203478 C254.522957,65.0591304 254.541217,65.2064348 254.548522,65.3622609 C254.453565,65.3695652 254.367739,65.3738261 254.291043,65.3750435 C254.252696,65.3756522 254.220587,65.3761087 254.194717,65.376413 Z M251.173913,66.1328696 C251.208,65.7286957 251.228087,65.3476522 251.234174,64.9897391 C251.240261,64.6318261 251.243304,64.3457391 251.243304,64.1314783 C251.243304,63.776 251.239652,63.3961739 251.232348,62.992 C251.21287,62.208 251.150783,61.3217391 251.046087,60.3332174 L251.046087,60.3332174 L250.330261,60.4427826 C250.413043,61.2097391 250.478783,62.1836522 250.527478,63.3645217 C250.534783,63.5666087 250.538435,63.7808696 250.538435,64.0073043 C250.538435,64.1947826 250.536,64.3907826 250.53113,64.5953043 C250.518957,65.0481739 250.493391,65.5473043 250.454435,66.0926957 L250.454435,66.0926957 L251.173913,66.1328696 Z M246.926435,68.7149565 C247.130957,68.6151304 247.332435,68.5025217 247.53087,68.3771304 C247.729304,68.2517391 247.918,68.1147826 248.096957,67.9662609 C248.275913,67.8177391 248.441478,67.6594783 248.593652,67.4914783 C248.745826,67.3234783 248.877304,67.1469565 248.988087,66.961913 C249.09887,66.7768696 249.185304,66.5851304 249.247391,66.3866957 C249.309478,66.1882609 249.340522,65.9831304 249.340522,65.7713043 C249.340522,65.6641739 249.332,65.5546087 249.314957,65.4426087 C249.297913,65.3306087 249.276609,65.2167826 249.251043,65.1011304 C249.225478,64.9854783 249.197478,64.8686087 249.167043,64.7505217 C249.136609,64.6324348 249.106783,64.5149565 249.077565,64.398087 C249.050783,64.286087 249.020348,64.1746957 248.986261,64.063913 C248.952174,63.9531304 248.918087,63.8405217 248.884,63.726087 L248.884,63.726087 L248.190087,63.9452174 C248.255826,64.1497391 248.317913,64.3542609 248.376348,64.5587826 C248.40313,64.6586087 248.43113,64.7608696 248.460348,64.8655652 C248.489565,64.9702609 248.516348,65.0749565 248.540696,65.1796522 C248.565043,65.2843478 248.58513,65.3866087 248.600957,65.4864348 C248.616783,65.5862609 248.624696,65.6812174 248.624696,65.7713043 C248.624696,66.0074783 248.567478,66.2363478 248.453043,66.457913 C248.338609,66.6794783 248.187043,66.8888696 247.998348,67.086087 C247.809652,67.2833043 247.594783,67.4653043 247.353739,67.632087 C247.112696,67.7988696 246.864348,67.9455652 246.608696,68.0721739 L246.608696,68.0721739 L246.926435,68.7149565 Z M243.471478,68.6674783 C243.873217,68.6674783 244.242696,68.6327826 244.579913,68.5633913 C244.91713,68.494 245.22087,68.389913 245.49113,68.2511304 C245.776,68.109913 246.003043,67.940087 246.172261,67.7416522 C246.341478,67.5432174 246.448,67.3234783 246.491826,67.0824348 C246.50887,66.9874783 246.517391,66.9010435 246.517391,66.8231304 C246.517391,66.7427826 246.50887,66.6709565 246.491826,66.6076522 C246.457739,66.4810435 246.402957,66.3751304 246.327478,66.289913 C246.252,66.2046957 246.159478,66.135913 246.049913,66.0835652 C245.940348,66.0312174 245.824087,65.9873913 245.70113,65.952087 C245.578174,65.9167826 245.454,65.8857391 245.328609,65.8589565 C245.203217,65.8321739 245.086957,65.8005217 244.979826,65.764 C244.872696,65.7274783 244.779565,65.6818261 244.700435,65.6270435 C244.621304,65.5722609 244.565913,65.5010435 244.534261,65.4133913 C244.509913,65.3452174 244.497739,65.2733913 244.497739,65.197913 C244.497739,65.1589565 244.501391,65.1187826 244.508696,65.0773913 C244.525739,64.958087 244.56287,64.84 244.620087,64.7231304 C244.677304,64.6062609 244.750348,64.4936522 244.839217,64.3853043 C244.928087,64.2769565 245.024261,64.1807826 245.127739,64.0967826 C245.231217,64.0127826 245.337739,63.9433913 245.447304,63.8886087 C245.55687,63.8338261 245.662783,63.8015652 245.765043,63.7918261 C245.852696,63.7747826 245.937913,63.7662609 246.020696,63.7662609 L246.020696,63.7662609 L246.075478,63.7662609 C246.17287,63.7735652 246.259304,63.7851304 246.334783,63.8009565 C246.410261,63.8167826 246.47113,63.8332174 246.517391,63.8502609 L246.517391,63.8502609 L246.58313,63.8794783 L246.90087,63.2111304 C246.893565,63.2086957 246.854,63.1928696 246.782174,63.1636522 C246.710348,63.1344348 246.616,63.1064348 246.49913,63.0796522 C246.382261,63.0528696 246.277565,63.0364348 246.185043,63.0303478 C246.092522,63.0242609 246.029217,63.0212174 245.99513,63.0212174 C245.870957,63.0212174 245.74313,63.0346087 245.611652,63.0613913 C245.421739,63.1027826 245.240348,63.1685217 245.067478,63.2586087 C244.894609,63.3486957 244.735739,63.4576522 244.59087,63.5854783 C244.446,63.7133043 244.317565,63.8569565 244.205565,64.0164348 C244.093565,64.175913 244.003478,64.3445217 243.935304,64.5222609 C243.86713,64.7 243.826348,64.854 243.812957,64.9842609 C243.799565,65.1145217 243.79287,65.2149565 243.79287,65.2855652 C243.79287,65.4073043 243.805043,65.5302609 243.829391,65.6544348 C243.865913,65.8370435 243.939565,65.9843478 244.050348,66.0963478 C244.16113,66.2083478 244.288957,66.2990435 244.433826,66.3684348 C244.578696,66.4378261 244.730261,66.492 244.888522,66.5309565 C245.046783,66.569913 245.191652,66.6070435 245.32313,66.6423478 C245.454609,66.6776522 245.559913,66.7166087 245.639043,66.7592174 C245.718174,66.8018261 245.757739,66.8584348 245.757739,66.9290435 L245.757739,66.9290435 L245.757739,66.9473043 C245.745565,67.0714783 245.684696,67.1913913 245.57513,67.3070435 C245.465565,67.4226957 245.312783,67.5261739 245.116783,67.6174783 C244.920783,67.7087826 244.684,67.7818261 244.406435,67.8366087 C244.12887,67.8913913 243.817217,67.9187826 243.471478,67.9187826 C243.118435,67.9187826 242.81287,67.8749565 242.554783,67.7873043 C242.296696,67.6996522 242.090957,67.5681739 241.937565,67.3928696 C241.857217,67.3027826 241.794522,67.206 241.749478,67.1025217 C241.704435,66.9990435 241.672174,66.8967826 241.652696,66.7957391 C241.633217,66.6946957 241.623478,66.597913 241.623478,66.5053913 L241.623478,66.5053913 L241.623478,66.4761739 C241.623478,66.373913 241.629565,66.2789565 241.641739,66.1913043 C241.688,65.8333913 241.758609,65.4864348 241.853565,65.1504348 C241.948522,64.8144348 242.050783,64.4747826 242.160348,64.1314783 L242.160348,64.1314783 L241.462783,63.8867826 C241.457913,63.8965217 241.443913,63.9354783 241.420783,64.0036522 C241.397652,64.0718261 241.368435,64.161913 241.33313,64.273913 C241.297826,64.385913 241.25887,64.5143478 241.216261,64.6592174 C241.173652,64.804087 241.132261,64.9568696 241.092087,65.1175652 C241.051913,65.2782609 241.014783,65.4432174 240.980696,65.6124348 C240.946609,65.7816522 240.919826,65.9453913 240.900348,66.1036522 C240.885739,66.2278261 240.878435,66.3483478 240.878435,66.4652174 C240.878435,66.6892174 240.905217,66.8986087 240.958783,67.0933913 C241.03913,67.3953043 241.17913,67.6606957 241.378783,67.8895652 C241.607652,68.1452174 241.898,68.3387826 242.249826,68.4702609 C242.601652,68.6017391 243.00887,68.6674783 243.471478,68.6674783 Z" id="خودروسواری" fill-opacity="0.56" fill="#000000" fill-rule="nonzero"></path>
                <path d="M231.445833,64 L233.2537,62.1921333 C233.436633,62.0092 233.436633,61.7128667 233.2537,61.5299333 C233.0703,61.3465333 232.774433,61.3465333 232.591033,61.5299333 L230.451833,63.6691333 C230.269367,63.8520667 230.269367,64.1479333 230.451833,64.3308667 L232.591033,66.4700667 C232.6825,66.5615333 232.802433,66.6072667 232.922367,66.6072667 C233.0423,66.6072667 233.162233,66.5615333 233.2537,66.4700667 C233.436633,66.2871333 233.436633,65.9908 233.2537,65.8078667 L231.445833,64 Z" id="icon_color" fill-opacity="0.56" fill="#000000"></path>
                <path d="M221.310087,66.1 C221.509739,66.1 221.702696,66.0866087 221.888957,66.0598261 C222.075217,66.0330435 222.246261,65.9867826 222.402087,65.9210435 C222.557913,65.8553043 222.696087,65.7676522 222.816609,65.658087 C222.93713,65.5485217 223.033913,65.4109565 223.106957,65.2453913 C223.18,65.0773913 223.216522,64.8826087 223.216522,64.6610435 C223.216522,64.622087 223.215304,64.5831304 223.21287,64.5441739 C223.195826,64.273913 223.132522,63.9622609 223.022957,63.6092174 C222.986435,63.489913 222.947478,63.3773043 222.906087,63.2713913 C222.864696,63.1654783 222.826348,63.0723478 222.791043,62.992 C222.755739,62.9116522 222.72713,62.8477391 222.705217,62.8002609 C222.683304,62.7527826 222.672348,62.7278261 222.672348,62.7253913 L222.672348,62.7253913 L222.022261,63.0467826 L222.34,63.8283478 C222.39113,63.9525217 222.430087,64.0712174 222.45687,64.1844348 C222.483652,64.2976522 222.499478,64.3865217 222.504348,64.4510435 C222.509217,64.5155652 222.511652,64.5636522 222.511652,64.5953043 C222.511652,64.6537391 222.508,64.7085217 222.500696,64.7596522 C222.488522,64.8375652 222.470261,64.902087 222.445913,64.9532174 C222.397217,65.0554783 222.329043,65.1352174 222.241391,65.1924348 C222.153739,65.2496522 222.052696,65.2928696 221.938261,65.322087 C221.823826,65.3513043 221.699652,65.3689565 221.565739,65.3750435 C221.431826,65.3811304 221.294261,65.3841739 221.153043,65.3841739 L221.153043,65.3841739 L220.448174,65.3841739 L220.448174,66.1 L221.310087,66.1 Z M222.701565,68.0027826 L223.300522,67.4038261 L222.70887,66.8121739 L222.109913,67.4111304 L222.701565,68.0027826 Z M221.105565,68.010087 L221.704522,67.4111304 L221.11287,66.8158261 L220.513913,67.4147826 L221.105565,68.010087 Z M221.92,69.0546087 L222.464174,68.5104348 L221.923652,67.969913 L221.379478,68.514087 L221.92,69.0546087 Z M219.009217,61.9292174 L219.549739,61.3886957 L219.005565,60.8445217 L218.465043,61.3850435 L219.009217,61.9292174 Z M218.183826,63.0833043 L218.775478,62.488 L218.176522,61.8890435 L217.58487,62.4843478 L218.183826,63.0833043 Z M219.78713,63.0869565 L220.378783,62.4953043 L219.779826,61.8963478 L219.188174,62.488 L219.78713,63.0869565 Z M217.420522,68.7953043 C217.727304,68.641913 218.025565,68.4617391 218.315304,68.2547826 C218.605043,68.0478261 218.862522,67.8195652 219.087739,67.57 C219.312957,67.3204348 219.493739,67.0507826 219.630087,66.7610435 C219.766435,66.4713043 219.834609,66.1669565 219.834609,65.848 L219.834609,65.848 L219.834609,65.8333913 C219.895478,65.8991304 219.959391,65.9502609 220.026348,65.9867826 C220.093304,66.0233043 220.159043,66.050087 220.223565,66.0671304 C220.288087,66.0841739 220.34713,66.093913 220.400696,66.0963478 C220.454261,66.0987826 220.498087,66.1 220.532174,66.1 L220.594261,66.1 L220.594261,65.3841739 L220.535826,65.3841739 C220.414087,65.3841739 220.302696,65.3549565 220.201652,65.2965217 C220.100609,65.238087 220.003826,65.1461739 219.911304,65.0207826 C219.818783,64.8953913 219.728696,64.7334783 219.641043,64.5350435 C219.553391,64.3366087 219.463304,64.0961739 219.370783,63.8137391 L219.370783,63.8137391 L218.684174,64.0255652 C218.713391,64.1156522 218.748696,64.2282609 218.790087,64.3633913 C218.831478,64.4985217 218.87287,64.6427826 218.914261,64.7961739 C218.955652,64.9495652 218.994,65.106 219.029304,65.2654783 C219.064609,65.4249565 219.090783,65.574087 219.107826,65.7128696 C219.112696,65.7542609 219.11513,65.7993043 219.11513,65.848 C219.11513,65.9697391 219.099304,66.0890435 219.067652,66.205913 C219.023826,66.3690435 218.957478,66.526087 218.868609,66.6770435 C218.779739,66.828 218.670783,66.9722609 218.541739,67.1098261 C218.412696,67.2473913 218.271478,67.3782609 218.118087,67.5024348 C217.964696,67.6266087 217.801565,67.7428696 217.628696,67.8512174 C217.455826,67.9595652 217.281739,68.0587826 217.106435,68.1488696 L217.106435,68.1488696 L217.420522,68.7953043 Z M214.064174,68.6638261 C214.314957,68.6248696 214.56087,68.5646087 214.801913,68.4830435 C215.042957,68.4014783 215.272435,68.3004348 215.490348,68.179913 C215.708261,68.0593913 215.911565,67.9187826 216.100261,67.758087 C216.288957,67.5973913 216.45513,67.4184348 216.598783,67.2212174 C216.742435,67.024 216.860522,66.8091304 216.953043,66.5766087 C217.045565,66.344087 217.105217,66.093913 217.132,65.826087 C217.144174,65.7092174 217.150261,65.5923478 217.150261,65.4754783 C217.150261,65.3707826 217.145391,65.266087 217.135652,65.1613913 C217.113739,64.9398261 217.073565,64.7267826 217.01513,64.5222609 C216.956696,64.3177391 216.880609,64.126 216.78687,63.9470435 C216.69313,63.768087 216.584174,63.6104348 216.46,63.474087 C216.170261,63.1624348 215.852522,63.0066087 215.506783,63.0066087 C215.350957,63.0066087 215.200609,63.0461739 215.055739,63.1253043 C214.91087,63.2044348 214.776348,63.3206957 214.652174,63.474087 C214.549913,63.6055652 214.461043,63.762 214.385565,63.9433913 C214.310087,64.1247826 214.262,64.2866957 214.241304,64.4291304 C214.220609,64.5715652 214.210261,64.6890435 214.210261,64.7815652 C214.210261,64.8789565 214.218783,64.9763478 214.235826,65.0737391 C214.265043,65.2587826 214.335652,65.421913 214.447652,65.5631304 C214.70087,65.8772174 215.091652,66.050087 215.62,66.0817391 C215.753913,66.093913 215.873826,66.1 215.979739,66.1 L215.979739,66.1 L216.394261,66.1 C216.367478,66.2826087 216.292609,66.4682609 216.169652,66.6569565 C216.046696,66.8456522 215.879304,67.024 215.667478,67.192 C215.455652,67.36 215.201217,67.5109565 214.904174,67.6448696 C214.60713,67.7787826 214.27113,67.8834783 213.896174,67.9589565 L213.896174,67.9589565 L214.064174,68.6638261 Z M216.069674,65.376413 L216.010783,65.3768696 C215.903652,65.3768696 215.789217,65.3732174 215.667478,65.365913 C215.623652,65.3634783 215.571913,65.358 215.512261,65.3494783 C215.452609,65.3409565 215.391739,65.3275652 215.329652,65.3093043 C215.267565,65.2910435 215.20913,65.2666957 215.154348,65.2362609 C215.099565,65.2058261 215.053913,65.1662609 215.017391,65.1175652 C214.976,65.0664348 214.951043,65.0086087 214.942522,64.944087 C214.934,64.8795652 214.929739,64.8253913 214.929739,64.7815652 C214.929739,64.728 214.933391,64.6732174 214.940696,64.6172174 C214.95287,64.5149565 214.976,64.4108696 215.010087,64.3049565 C215.044174,64.1990435 215.086174,64.1034783 215.136087,64.0182609 C215.186,63.9330435 215.242609,63.8630435 215.305913,63.8082609 C215.369217,63.7534783 215.436174,63.726087 215.506783,63.726087 C215.550609,63.726087 215.592,63.7333913 215.630957,63.748 C215.669913,63.7626087 215.707043,63.7814783 215.742348,63.8046087 C215.777652,63.8277391 215.810522,63.8533043 215.840957,63.8813043 C215.871391,63.9093043 215.898783,63.9354783 215.92313,63.9598261 C215.984,64.0304348 216.043043,64.1138261 216.100261,64.21 C216.157478,64.3061739 216.209217,64.413913 216.255478,64.5332174 C216.301739,64.6525217 216.339478,64.7815652 216.368696,64.9203478 C216.397913,65.0591304 216.416174,65.2064348 216.423478,65.3622609 C216.328522,65.3695652 216.242696,65.3738261 216.166,65.3750435 C216.127652,65.3756522 216.095543,65.3761087 216.069674,65.376413 Z M200.394087,66.1730435 C200.394087,65.9612174 200.392261,65.7378261 200.388609,65.5028696 C200.384957,65.267913 200.377652,65.0293043 200.366696,64.7870435 C200.355739,64.5447826 200.34113,64.3025217 200.32287,64.0602609 C200.304609,63.818 200.28087,63.5824348 200.251652,63.3535652 L200.251652,63.3535652 L200.222435,63.1526957 C200.314957,63.1892174 200.408087,63.2153913 200.501826,63.2312174 C200.595565,63.2470435 200.70087,63.2549565 200.817739,63.2549565 C201.243826,63.2549565 201.581043,63.1052174 201.829391,62.8057391 L201.829391,62.8057391 C202.085043,62.5086957 202.217739,62.0789565 202.227478,61.5165217 L202.227478,61.5165217 L202.227478,61.4215652 C202.227478,61.3582609 202.226261,61.2961739 202.223826,61.2353043 C202.218957,61.1476522 202.21287,61.0691304 202.205565,60.9997391 C202.198261,60.9303478 202.190957,60.8743478 202.183652,60.8317391 C202.176348,60.7891304 202.172696,60.7653913 202.172696,60.7605217 L202.172696,60.7605217 L201.45687,60.892 C201.469043,60.9553043 201.480609,61.0356522 201.491565,61.1330435 C201.502522,61.2304348 201.508,61.3314783 201.508,61.4361739 C201.508,61.5165217 201.504348,61.5993043 201.497043,61.6845217 C201.489739,61.7697391 201.476957,61.8525217 201.458696,61.9328696 C201.440435,62.0132174 201.416696,62.0893043 201.387478,62.1611304 C201.358261,62.2329565 201.320522,62.2956522 201.274261,62.3492174 C201.172,62.4733913 201.019826,62.5354783 200.817739,62.5354783 C200.681391,62.5354783 200.566348,62.5153913 200.472609,62.4752174 C200.37887,62.4350435 200.296087,62.3772174 200.224261,62.3017391 C200.152435,62.2262609 200.08913,62.1367826 200.034348,62.0333043 C199.979565,61.9298261 199.924174,61.8135652 199.868174,61.6845217 C199.826783,61.5944348 199.789043,61.5104348 199.754957,61.4325217 C199.72087,61.3546087 199.687391,61.2809565 199.654522,61.2115652 C199.621652,61.1421739 199.588783,61.0752174 199.555913,61.0106957 C199.523043,60.9461739 199.48713,60.8822609 199.448174,60.8189565 L199.448174,60.8189565 L198.838261,61.206087 C198.911304,61.3326957 198.977043,61.4556522 199.035478,61.5749565 C199.093913,61.6942609 199.148696,61.8196522 199.199826,61.9511304 C199.309391,62.2286957 199.395217,62.5324348 199.457304,62.8623478 C199.519391,63.1922609 199.566261,63.538 199.597913,63.8995652 C199.629565,64.2611304 199.649043,64.6336522 199.656348,65.0171304 C199.663652,65.4006087 199.667304,65.785913 199.667304,66.1730435 L199.667304,66.1730435 L200.394087,66.1730435 Z M204.601391,65.3586087 C204.771826,65.3586087 204.931913,65.3263478 205.081652,65.2618261 C205.231391,65.1973043 205.36287,65.1090435 205.476087,64.9970435 C205.589304,64.8850435 205.678783,64.7541739 205.744522,64.6044348 C205.810261,64.4546957 205.84313,64.2933913 205.84313,64.1205217 C205.84313,63.950087 205.810261,63.79 205.744522,63.6402609 C205.678783,63.4905217 205.589304,63.3590435 205.476087,63.2458261 C205.36287,63.1326087 205.231391,63.0431304 205.081652,62.9773913 C204.931913,62.9116522 204.771826,62.8787826 204.601391,62.8787826 C204.428522,62.8787826 204.267217,62.9116522 204.117478,62.9773913 C203.967739,63.0431304 203.83687,63.1326087 203.72487,63.2458261 C203.61287,63.3590435 203.524609,63.4905217 203.460087,63.6402609 C203.395565,63.79 203.363304,63.950087 203.363304,64.1205217 C203.363304,64.2933913 203.395565,64.4546957 203.460087,64.6044348 C203.524609,64.7541739 203.61287,64.8850435 203.72487,64.9970435 C203.83687,65.1090435 203.967739,65.1973043 204.117478,65.2618261 C204.267217,65.3263478 204.428522,65.3586087 204.601391,65.3586087 Z M204.601391,64.7633043 C204.513739,64.7633043 204.430957,64.7462609 204.353043,64.7121739 C204.27513,64.678087 204.206957,64.6318261 204.148522,64.5733913 C204.090087,64.5149565 204.043826,64.4467826 204.009739,64.3688696 C203.975652,64.2909565 203.958609,64.2081739 203.958609,64.1205217 C203.958609,64.0328696 203.975652,63.9494783 204.009739,63.8703478 C204.043826,63.7912174 204.090087,63.7224348 204.148522,63.664 C204.206957,63.6055652 204.27513,63.5593043 204.353043,63.5252174 C204.430957,63.4911304 204.513739,63.474087 204.601391,63.474087 C204.689043,63.474087 204.772435,63.4911304 204.851565,63.5252174 C204.930696,63.5593043 204.999478,63.6055652 205.057913,63.664 C205.116348,63.7224348 205.162609,63.7912174 205.196696,63.8703478 C205.230783,63.9494783 205.247826,64.0328696 205.247826,64.1205217 C205.247826,64.2081739 205.230783,64.2909565 205.196696,64.3688696 C205.162609,64.4467826 205.116348,64.5149565 205.057913,64.5733913 C204.999478,64.6318261 204.930696,64.678087 204.851565,64.7121739 C204.772435,64.7462609 204.689043,64.7633043 204.601391,64.7633043 Z M209.155652,66.184 C209.162957,65.8358261 209.193391,65.4986087 209.246957,65.1723478 C209.300522,64.846087 209.369913,64.5307826 209.45513,64.2264348 C209.540348,63.922087 209.637739,63.6286957 209.747304,63.3462609 C209.85687,63.0638261 209.971304,62.7923478 210.090609,62.5318261 C210.209913,62.2713043 210.331652,62.0205217 210.455826,61.7794783 C210.58,61.5384348 210.698087,61.3083478 210.810087,61.0892174 L210.810087,61.0892174 L210.207478,60.7130435 C210.110087,60.8664348 210.00113,61.0612174 209.880609,61.2973913 C209.760087,61.5335652 209.637739,61.7946957 209.513565,62.0807826 C209.389391,62.3668696 209.266435,62.67 209.144696,62.9901739 C209.022957,63.3103478 208.912174,63.629913 208.812348,63.9488696 C208.795304,63.8782609 208.778261,63.8143478 208.761217,63.7571304 C208.744174,63.699913 208.72713,63.6445217 208.710087,63.5909565 C208.693043,63.5373913 208.674174,63.4826087 208.653478,63.4266087 C208.632783,63.3706087 208.610261,63.3073043 208.585913,63.2366957 C208.51287,63.0370435 208.432522,62.8373913 208.34487,62.6377391 C208.257217,62.438087 208.159826,62.2341739 208.052696,62.026 C207.945565,61.8178261 207.828696,61.6053913 207.702087,61.3886957 C207.575478,61.172 207.436696,60.9467826 207.285739,60.7130435 L207.285739,60.7130435 L206.68313,61.0892174 C206.892522,61.417913 207.101304,61.7666957 207.309478,62.1355652 C207.517652,62.5044348 207.70513,62.8988696 207.871913,63.3188696 C208.038696,63.7388696 208.173826,64.1862609 208.277304,64.6610435 C208.380783,65.1358261 208.432522,65.6434783 208.432522,66.184 L208.432522,66.184 L209.155652,66.184 Z" id="پژو۲۰۷" fill-opacity="0.32" fill="#000000" fill-rule="nonzero"></path>
            </g>
        </g>
    </g>
</svg>