<svg xmlns="http://www.w3.org/2000/svg" xmlns:xlink="http://www.w3.org/1999/xlink" width="860" height="320"><defs><path id="d" d="M0 0h482v276a8 8 0 01-8 8H8a8 8 0 01-8-8V0z"/><path id="e" d="M0 0h482v276a8 8 0 01-8 8H8a8 8 0 01-8-8V0z"/><filter id="c" width="110.8%" height="118.3%" x="-5.4%" y="-7.7%" filterUnits="objectBoundingBox"><feOffset dy="4" in="SourceAlpha" result="shadowOffsetOuter1"/><feGaussianBlur in="shadowOffsetOuter1" result="shadowBlurOuter1" stdDeviation="8"/><feColorMatrix in="shadowBlurOuter1" values="0 0 0 0 0 0 0 0 0 0 0 0 0 0 0 0 0 0 0.12 0"/></filter><rect id="a" width="860" height="320" x="0" y="0" rx="4"/></defs><g fill="none" fill-rule="evenodd"><mask id="b" fill="#fff"><use xlink:href="#a"/></mask><use fill="#000" fill-opacity="0" xlink:href="#a"/><g mask="url(#b)"><g transform="translate(189)"><use fill="#000" filter="url(#c)" xlink:href="#d"/><mask id="f" fill="#fff"><use xlink:href="#e"/></mask><use fill="#FFF" xlink:href="#e"/><g mask="url(#f)"><g transform="translate(32 12)"><path fill="#000000" fill-opacity=".87" fill-rule="nonzero" d="M411.6 20.209c.742 0 1.405-.021 1.99-.063a25.052 25.052 0 001.568-.156c.462-.063.871-.134 1.228-.213.357-.078.68-.155.967-.23l-.216-1.731-.744.146c-.223.037-.47.075-.74.115-.272.039-.542.068-.811.086a2.25 2.25 0 01-.828-.097 2.261 2.261 0 01-.724-.365 1.811 1.811 0 01-.487-.55 1.284 1.284 0 01-.173-.636c0-.033.002-.065.007-.098.013-.185.055-.359.125-.521a1.325 1.325 0 01.751-.72c.18-.072.39-.108.626-.108.292 0 .561.054.807.163.246.11.462.231.647.366.223.157.417.333.584.528l1.127-1.384a4.881 4.881 0 00-.431-.383 6.785 6.785 0 00-.473-.34 6.321 6.321 0 00-.463-.265 4.557 4.557 0 00-.539-.236c-.19-.07-.39-.126-.601-.167a3.38 3.38 0 00-.658-.063c-.459 0-.885.086-1.276.257-.392.172-.73.404-1.016.696a3.223 3.223 0 00-.915 2.26c0 .372.045.712.136 1.02.09.308.26.609.511.9l-1.329.008h-.306v1.78h1.656zm-4.348-6.428l1.336-1.336-1.336-1.328-1.329 1.328 1.33 1.336zm-1.955 6.428c.654 0 1.21-.063 1.666-.188.457-.125.846-.32 1.166-.584.218.227.485.412.803.556.318.144.702.216 1.151.216h.14v-1.781h-.14a.716.716 0 01-.462-.143 1.034 1.034 0 01-.282-.355 1.743 1.743 0 01-.15-.466 5.835 5.835 0 01-.066-.476c-.018-.246-.035-.46-.052-.644a7.46 7.46 0 00-.153-.994 7.807 7.807 0 00-.142-.547l-1.712.48c.12.413.214.758.279 1.034.065.275.097.492.097.65 0 .487-.18.852-.54 1.096-.359.243-.893.365-1.603.365h-.257v1.78h.257zm-6.51 4.87a9.32 9.32 0 002.01-.571c.644-.265 1.23-.6 1.756-1.009a6.319 6.319 0 001.353-1.436 5.39 5.39 0 00.8-1.854h.612v-1.781h-.466a6.415 6.415 0 00-.135-1.02 6.709 6.709 0 00-.282-.956 5.681 5.681 0 00-.41-.862 4.53 4.53 0 00-.53-.73c-.593-.64-1.25-.96-1.968-.96-.278 0-.538.052-.78.16a2.417 2.417 0 00-.66.434c-.2.183-.376.394-.529.633a4.319 4.319 0 00-.386.758c-.104.267-.184.54-.24.818a4.08 4.08 0 00-.083.8c0 .398.053.742.16 1.03.106.287.256.531.448.733.193.202.422.364.69.487.266.123.558.218.876.285.317.068.655.113 1.012.136.357.023.723.035 1.099.035-.084.315-.252.63-.504.946-.253.315-.581.612-.985.89-.403.278-.88.53-1.43.755a9.971 9.971 0 01-1.846.54l.417 1.738zm4.444-6.651h-.34c-.121 0-.243-.002-.366-.007a20.238 20.238 0 00-.358-.01 4.298 4.298 0 01-.32-.018 3.885 3.885 0 01-.532-.08 1.76 1.76 0 01-.48-.177 1.027 1.027 0 01-.348-.313.832.832 0 01-.136-.487c0-.186.039-.376.115-.57.077-.196.173-.373.289-.533.116-.16.243-.291.382-.393.14-.102.27-.153.39-.153.13 0 .26.044.39.132.13.088.256.205.379.351.123.147.237.313.344.501a5.097 5.097 0 01.49 1.197c.054.202.087.388.101.56zm-7.91 1.767l1.823-.278c.019-.362.037-.75.056-1.166.019-.415.032-.862.042-1.342a103.02 103.02 0 00.007-3.37c-.01-.77-.037-1.558-.084-2.362a35.164 35.164 0 00-.243-2.536l-1.788.584c.079.765.141 1.567.188 2.404.046.837.088 1.73.125 2.681.014.413.02.856.02 1.33 0 1.172-.048 2.524-.145 4.055zm-6.684-3.36l1.335-1.336-1.335-1.329-1.33 1.33 1.33 1.335zm-.418 8.16c.677 0 1.287-.066 1.83-.198a5.498 5.498 0 001.43-.55 4.246 4.246 0 001.76-1.875c.178-.375.3-.745.364-1.11a5.86 5.86 0 00-.024-2.257 14.013 14.013 0 00-.497-1.847c-.098-.28-.188-.53-.272-.748a10.67 10.67 0 00-.215-.528 2.125 2.125 0 00-.112-.23l-1.634.911c.004 0 .037.06.097.181.06.12.135.28.223.48a16.107 16.107 0 01.563 1.475c.088.27.164.535.226.797.063.262.099.5.108.713v.118c0 .241-.035.473-.104.696-.088.26-.214.5-.376.723-.162.223-.36.424-.591.605-.232.181-.49.335-.772.463-.283.127-.581.223-.894.285a4.865 4.865 0 01-.957.094h-.07a4.002 4.002 0 01-1.241-.22 3.356 3.356 0 01-1.033-.57 2.734 2.734 0 01-.706-.873 2.43 2.43 0 01-.261-1.127c0-.347.04-.693.122-1.036.08-.343.177-.663.288-.96.112-.297.229-.559.352-.786a5 5 0 01.31-.515l-1.371-.995a7.66 7.66 0 00-1.294 4.25c0 .72.113 1.365.34 1.938.228.573.55 1.059.964 1.458.415.398.915.704 1.5.918.584.213 1.233.32 1.947.32zm-14.58-15.29a2.16 2.16 0 00.058-.237c.021-.102.053-.202.094-.3a.774.774 0 01.174-.253.427.427 0 01.292-.115h.056c.153 0 .3.019.438.056.149.046.295.097.439.153.143.055.288.105.434.15.146.043.303.065.47.065h.049c.185-.004.361-.037.528-.097.167-.06.323-.136.466-.226.144-.09.274-.188.39-.292a3.545 3.545 0 00.487-.532.794.794 0 00.076-.119l-.953-.612c-.134.176-.26.318-.379.424a.942.942 0 01-.33.21.926.926 0 01-.452.034 2.29 2.29 0 01-.529-.16 4.243 4.243 0 00-.477-.174 2.015 2.015 0 00-.58-.077c-.214 0-.421.048-.623.143a2.034 2.034 0 00-.553.386c-.167.162-.31.35-.431.564-.121.213-.202.436-.244.667l1.1.341zm.966 10.455l1.823-.271c.023-.622.038-1.27.045-1.945.007-.674.01-1.274.01-1.798v-.4c0-.407-.003-.835-.006-1.283a33.524 33.524 0 00-.084-2.188 30.901 30.901 0 00-.223-2.105l-1.787.564c.116 1.118.213 2.61.292 4.48a38.338 38.338 0 01.028 2.282c-.014.82-.047 1.709-.098 2.664zm-8.254-10.085l5.343-2.355-.313-.7-4.983 2.168-.047.887zm1.437 10.134c.45 0 .88-.076 1.29-.226a3.35 3.35 0 001.082-.64 3.04 3.04 0 001.016-2.327 3.97 3.97 0 00-.094-.814 5.324 5.324 0 00-.3-.94 6.989 6.989 0 00-.539-1.025 7.906 7.906 0 00-.813-1.068 11.255 11.255 0 00-.63-.647 15.12 15.12 0 00-.623-.557l4.536-1.962-.703-1.655-5.537 2.462-.188 1.663c.44.404.852.8 1.235 1.19.383.39.715.768.998 1.137.283.369.506.728.668 1.078.162.35.244.692.244 1.026 0 .255-.044.47-.133.644a1.21 1.21 0 01-.361.431c-.153.114-.332.2-.536.261-.204.06-.42.104-.647.132a6.888 6.888 0 01-.706.049 37.11 37.11 0 01-.706.007h-.87v1.78h2.317zm-4.661 4.41l1.106-1.342a2.346 2.346 0 01-.209-.265 1.162 1.162 0 01-.198-.518 2.333 2.333 0 01-.017-.296c0-.236.05-.473.15-.71.099-.236.232-.45.4-.64.166-.19.355-.344.566-.462.211-.118.428-.177.65-.177h.175v-1.781h-.14c-.26 0-.52.046-.782.139a3.205 3.205 0 00-.751.386 4.026 4.026 0 00-.668.58 3.757 3.757 0 00-.852 1.507c-.07.257-.105.502-.105.734 0 .056.002.111.007.167a4.43 4.43 0 01-.302-.39 16.96 16.96 0 01-.355-.521c-.119-.181-.229-.359-.33-.533a4.183 4.183 0 01-.223-.42 3.484 3.484 0 001.106-.508c.334-.232.627-.5.88-.804.253-.304.461-.632.626-.984.165-.353.282-.705.351-1.058a2.95 2.95 0 00.042-.758 3.486 3.486 0 00-.463-1.447 2.67 2.67 0 00-.441-.57 1.984 1.984 0 00-.54-.38 1.399 1.399 0 00-.601-.135h-.028c-.288.005-.561.09-.821.257a3.1 3.1 0 00-.723.661 5.27 5.27 0 00-.602.936 8.117 8.117 0 00-.745 2.167c-.067.357-.1.682-.1.974h-.919v1.78h1.239a7.534 7.534 0 001.36 2.463c.299.362.636.704 1.012 1.026.375.323.79.63 1.245.922zm-2.38-6.17h-.013v-.112c0-.148.014-.317.042-.507.037-.232.09-.472.16-.72a7.86 7.86 0 01.247-.738c.095-.243.196-.465.302-.664.107-.2.217-.368.33-.505.114-.136.222-.221.324-.253.111.06.213.143.306.25a1.726 1.726 0 01.376.769c.028.137.042.265.042.386v.104a1.813 1.813 0 01-.223.741 2.49 2.49 0 01-1.158 1.082 1.751 1.751 0 01-.734.167zm-8.493 6.295c.315 0 .667-.024 1.054-.073.387-.048.78-.126 1.179-.233a7.87 7.87 0 001.169-.414c.38-.169.72-.375 1.019-.619.299-.243.544-.526.734-.848a2.33 2.33 0 00.313-1.096 2.408 2.408 0 00-.101-.581 1.898 1.898 0 00-.372-.671h1.3v-1.781h-5.523l-.236 1.739c.31.056.623.109.939.16.315.051.633.13.953.236.218.084.422.17.612.261.19.09.356.178.497.261.142.084.253.16.334.226.081.068.122.117.122.15 0 .2-.08.373-.24.522-.16.148-.366.278-.62.39a4.949 4.949 0 01-.844.277c-.311.075-.614.135-.908.181a10.11 10.11 0 01-1.381.126c-.218 0-.474-.006-.769-.018a5.772 5.772 0 01-.897-.108 3.589 3.589 0 01-.866-.288 1.814 1.814 0 01-.682-.567 2.901 2.901 0 01-.46-1.607c0-.279.015-.568.043-.87.027-.301.077-.624.15-.967.071-.343.17-.715.295-1.116.125-.402.283-.839.473-1.312l-1.433-.66c-.2.477-.367.922-.501 1.335a14.15 14.15 0 00-.33 1.172c-.086.369-.154.72-.202 1.054-.049.334-.087.661-.115.981-.014.167-.02.33-.02.487 0 .594.097 1.125.291 1.593.241.598.6 1.096 1.079 1.492.477.397 1.055.694 1.732.89a7.888 7.888 0 002.212.296z"/><path fill="#000000" fill-opacity=".56" fill-rule="nonzero" d="M414.457 53.994c.244 0 .488-.018.734-.055.245-.036.482-.095.709-.176a3.04 3.04 0 00.636-.314c.197-.128.368-.28.514-.46a1.474 1.474 0 00.317-.645c.032-.142.05-.304.052-.487a2.812 2.812 0 00-.07-.614 4.424 4.424 0 00-.277-.795 6.44 6.44 0 00-.445-.815 8.06 8.06 0 00-1.232-1.495 6.963 6.963 0 00-.71-.59 4.27 4.27 0 00-.72-.426l-.494 1.108c.183.08.37.19.56.328.191.138.379.296.563.475.185.179.363.37.533.575.17.205.326.416.466.633.14.217.26.435.359.652.1.217.171.425.216.624.032.146.049.271.049.377 0 .146-.03.256-.092.329-.138.166-.308.29-.511.37a1.959 1.959 0 01-.548.144 3.497 3.497 0 01-.84-.01 5.173 5.173 0 01-1.418-.386 3.7 3.7 0 01-.542-.283l-.499 1.145c.101.093.262.186.48.28a7.375 7.375 0 001.519.441c.266.047.497.07.691.07zm-8.07 4.364c.34-.166.676-.354 1.006-.563.331-.209.646-.437.944-.685a8.06 8.06 0 00.828-.79c.253-.28.473-.575.657-.883.185-.309.329-.628.432-.96.104-.33.156-.672.156-1.025a3.64 3.64 0 00-.043-.548 8.705 8.705 0 00-.107-.569c-.042-.193-.089-.387-.14-.584l-.149-.588a9.052 9.052 0 00-.152-.556 65.409 65.409 0 01-.17-.564l-1.157.366c.11.34.213.681.31 1.022l.14.512c.05.174.094.349.135.523.04.175.074.345.1.511.026.167.04.325.04.475 0 .394-.096.775-.287 1.145a4.51 4.51 0 01-.757 1.046 6.964 6.964 0 01-1.075.91 9.912 9.912 0 01-1.241.734l.53 1.071zM395.356 54l1.448-.012c.641 0 1.212-.015 1.71-.046.5-.03.943-.07 1.33-.122a13.634 13.634 0 001.793-.35l-.146-1.156-.447.091c-.14.029-.282.053-.426.073a12.48 12.48 0 01-1.111.104c-.22 0-.43-.03-.633-.092a1.966 1.966 0 01-.655-.328 1.695 1.695 0 01-.453-.53 1.418 1.418 0 01-.17-.694c0-.186.03-.366.09-.538.062-.173.152-.326.272-.46.12-.134.269-.24.447-.32a1.52 1.52 0 01.621-.118c.207 0 .394.021.56.064.166.042.32.101.46.176.14.075.27.162.392.262s.246.206.371.32l.75-.92c-.183-.15-.364-.292-.543-.426a3.698 3.698 0 00-.566-.35 3.08 3.08 0 00-1.424-.32c-.377 0-.725.07-1.044.21a2.6 2.6 0 00-1.382 1.406 2.623 2.623 0 00-.198 1.014c0 .365.06.698.18.999.12.3.328.584.624.852l-1.85.018V54zM393 48.388l.992-.992-.998-.999-.992.993.998.998zM391.29 54c.596 0 1.097-.062 1.503-.186.406-.123.736-.313.992-.569.175.223.398.405.67.545s.612.21 1.022.21h.122v-1.193h-.122a.86.86 0 01-.508-.14.999.999 0 01-.31-.353 1.667 1.667 0 01-.162-.463 4.299 4.299 0 01-.067-.474 18.669 18.669 0 00-.11-1.054 5.718 5.718 0 00-.176-.827l-1.144.322c.09.309.151.583.186.822.034.24.051.475.051.706 0 .483-.154.847-.462 1.093-.309.245-.804.368-1.486.368h-.225V54h.225zm-5.698 4.273a7.459 7.459 0 001.72-.487 6.291 6.291 0 001.51-.889 5.424 5.424 0 001.156-1.269 4.598 4.598 0 00.66-1.628h.67v-1.193h-.579a5.794 5.794 0 00-.329-1.768 4.675 4.675 0 00-.352-.77 3.846 3.846 0 00-.463-.646c-.483-.519-1.012-.779-1.589-.779-.26 0-.51.066-.751.198a2.284 2.284 0 00-.673.581c-.17.22-.319.48-.444.783a3.435 3.435 0 00-.24.81 4.237 4.237 0 00-.052.587c0 .162.014.324.042.487.049.308.167.58.353.815.422.524 1.074.812 1.954.865.223.02.423.03.6.03h.69c-.044.304-.169.614-.374.928a3.805 3.805 0 01-.837.892 6.02 6.02 0 01-1.272.755 7.854 7.854 0 01-1.68.523l.28 1.175zm3.343-5.479h-.099c-.178 0-.369-.005-.572-.017a3.068 3.068 0 01-.258-.028c-.1-.014-.201-.036-.305-.067a1.43 1.43 0 01-.292-.122.716.716 0 01-.228-.197.57.57 0 01-.125-.29 2.13 2.13 0 01-.021-.27 2.765 2.765 0 01.344-1.272c.083-.143.177-.26.283-.35a.505.505 0 01.334-.138c.073 0 .142.013.207.037a.94.94 0 01.186.094c.059.039.114.082.164.128.051.047.097.09.137.131.102.118.2.257.296.417.095.16.181.34.258.539.077.199.14.414.189.645.049.231.079.477.091.736-.158.013-.301.02-.429.022l-.088.001-.072.001zm-5.035 1.26a28.5 28.5 0 00.1-1.904c.01-.597.016-1.074.016-1.43 0-.593-.007-1.226-.019-1.9a55.636 55.636 0 00-.31-4.431l-1.193.182c.138 1.279.247 2.902.328 4.87.013.337.019.694.019 1.071 0 .313-.004.64-.012.98-.02.755-.063 1.587-.128 2.496l1.199.067zm-7.256-2.994l.992-.992-.998-.998-.992.992.998.998zm-.268 7.122c.5 0 .973-.053 1.422-.159a4.386 4.386 0 001.226-.483c.37-.218.693-.492.971-.825.278-.333.494-.729.648-1.187.146-.438.226-.788.238-1.05.012-.262.018-.437.018-.527a6.278 6.278 0 00-.344-2.066 9.757 9.757 0 00-.347-.889 6.902 6.902 0 00-.46-.867l-1.01.645c.004 0 .042.06.113.18.07.12.153.284.246.493.094.209.188.454.283.736a5.788 5.788 0 01.302 1.854v.073a3.791 3.791 0 01-.177 1.053c-.09.284-.223.538-.402.764-.178.225-.4.415-.663.572-.264.156-.57.275-.92.356a5.17 5.17 0 01-1.168.122c-.345 0-.652-.038-.922-.113a2.885 2.885 0 01-.706-.292c-.201-.12-.373-.255-.515-.405a2.65 2.65 0 01-.353-.46 2.218 2.218 0 01-.21-.45 2.4 2.4 0 01-.094-.38 3.57 3.57 0 01-.03-.719c.012-.243.04-.483.082-.718s.096-.462.161-.679c.065-.217.133-.417.204-.6a5.35 5.35 0 01.21-.477c.069-.136.13-.24.183-.314l-.968-.712a8.651 8.651 0 00-.478.922c-.152.34-.28.697-.384 1.075a5.673 5.673 0 00-.191.983 5.374 5.374 0 00.018 1.41c.081.53.238.993.472 1.387.233.393.526.72.88.977.352.257.755.45 1.208.578.452.128.938.192 1.457.192zm-12.642-13.3c.016-.049.041-.115.076-.198.034-.083.077-.166.128-.25.05-.083.108-.156.173-.219a.353.353 0 01.207-.106.784.784 0 01.365.024c.118.037.243.08.375.13.132.052.273.1.423.147.15.047.316.07.499.07h.036a1.3 1.3 0 00.402-.06c.138-.046.265-.102.38-.171a2.04 2.04 0 00.314-.229c.093-.083.174-.162.24-.237a2.086 2.086 0 00.217-.283l-.694-.45a3.634 3.634 0 01-.119.146c-.055.065-.122.13-.2.197-.08.067-.164.123-.254.168a.594.594 0 01-.267.067h-.025a1.359 1.359 0 01-.35-.055 3.69 3.69 0 01-.325-.116 4.624 4.624 0 00-.402-.146 1.624 1.624 0 00-.487-.067c-.175 0-.345.038-.511.113a1.693 1.693 0 00-.457.304 1.831 1.831 0 00-.548.971l.804.25zm2.24 9.118c.057-.402.09-.855.1-1.36.01-.506.015-.92.015-1.245 0-.54-.006-1.147-.018-1.82a55.828 55.828 0 00-.079-2.07 81.379 81.379 0 00-.164-2.313l-1.193.183c.056.548.107 1.221.152 2.02.044.8.081 1.733.11 2.8a27.95 27.95 0 01-.007 1.857c-.02.621-.059 1.248-.115 1.881l1.199.067zm-8.443-8.686l4.894-2.07-.286-.614-4.565 1.905-.043.779zM358.853 54c.211 0 .388-.014.53-.043.86-.158 1.47-.558 1.832-1.199.085-.154.16-.324.222-.511.063-.187.101-.354.116-.502a3.123 3.123 0 00-.015-.813 3.644 3.644 0 00-.22-.791 5.116 5.116 0 00-.462-.886 7.535 7.535 0 00-.761-.977 9.49 9.49 0 00-.7-.7 39.17 39.17 0 00-.652-.572l4.359-1.832-.469-1.108-5.003 2.143-.14 1.248a15.432 15.432 0 011.85 1.768c.26.294.478.57.654.828.177.257.287.47.332.636.057.219.085.424.085.614a1.495 1.495 0 01-.243.828c-.114.17-.27.302-.469.393a2.705 2.705 0 01-.657.2c-.24.043-.491.068-.755.074-.264.006-.517.009-.76.009h-.762V54h2.088zm-4.005 4.005l.76-.925a1.506 1.506 0 01-.389-.584 1.813 1.813 0 01-.103-.585 1.935 1.935 0 01.173-.77c.095-.213.22-.402.374-.569a1.92 1.92 0 01.533-.405c.201-.103.415-.159.642-.167h.17v-1.193h-.121c-.235 0-.47.035-.703.106a3.138 3.138 0 00-1.738 1.33 2.39 2.39 0 00-.359 1.425 1.43 1.43 0 01-.374-.338 4.072 4.072 0 01-.332-.478 5.661 5.661 0 01-.271-.511c-.08-.17-.143-.315-.192-.432.272-.045.532-.117.78-.216.247-.1.476-.226.687-.378a2.902 2.902 0 00.98-1.238c.073-.175.117-.35.131-.527.014-.177.021-.32.021-.43 0-.15-.008-.306-.024-.468a4.609 4.609 0 00-.173-.812 2.974 2.974 0 00-.326-.722 1.702 1.702 0 00-.466-.499 1.012 1.012 0 00-.587-.182h-.061c-.276.012-.53.095-.76.25a2.56 2.56 0 00-.625.599 4.151 4.151 0 00-.48.834c-.137.31-.25.624-.338.943-.09.319-.152.613-.186.883-.035.27-.052.5-.052.69 0 .061.002.118.006.171h-.98V54h1.205l.055.152a6.811 6.811 0 001.084 2.04c.255.332.552.653.888.961.337.308.72.593 1.15.852zm-2.015-5.259c-.06 0-.124-.004-.189-.012a2.17 2.17 0 01-.018-.292c0-.09.004-.183.012-.28.02-.211.058-.426.113-.645.055-.22.123-.435.204-.646.08-.21.172-.4.274-.569.101-.168.208-.306.32-.414a.585.585 0 01.337-.18c.183.135.316.307.399.518.083.211.124.434.122.67a2.064 2.064 0 01-.131.7 2.05 2.05 0 01-.356.617c-.153.181-.323.315-.512.402-.188.087-.38.131-.575.131zM345.2 57.97c.268 0 .568-.019.9-.055a7.469 7.469 0 001.008-.183c.34-.085.669-.195.99-.331.32-.136.606-.304.858-.503.251-.198.454-.432.608-.7a1.854 1.854 0 00.213-1.199 1.28 1.28 0 00-.097-.316 1.74 1.74 0 00-.204-.338c-.087-.116-.2-.23-.338-.344h1.57v-1.193h-4.802l-.091 1.187.134.024a8.488 8.488 0 01.584.134c.122.033.253.07.393.11.14.04.28.085.423.134.231.085.426.17.584.255.158.086.287.166.387.24.099.076.171.147.216.214a.33.33 0 01.067.173.756.756 0 01-.204.524c-.136.15-.31.28-.52.39-.212.109-.448.201-.71.276a7.626 7.626 0 01-1.47.274 6.32 6.32 0 01-.499.028c-.203 0-.435-.004-.697-.013a4.438 4.438 0 01-.791-.097 3.022 3.022 0 01-.767-.277 1.705 1.705 0 01-.618-.55c-.256-.39-.384-.898-.384-1.523 0-.986.319-2.262.956-3.828l-1.114-.45c-.637 1.541-.982 2.864-1.035 3.968-.004.101-.006.2-.006.298 0 .889.197 1.621.59 2.198.187.316.428.57.722.764.294.192.615.341.962.447.347.105.709.175 1.086.21.378.034.743.052 1.096.052zM332.405 54c.333 0 .642-.022.928-.067a2.82 2.82 0 00.777-.231c.23-.11.435-.256.611-.439.177-.182.326-.411.448-.687.121-.28.182-.605.182-.974 0-.065-.002-.13-.006-.195-.028-.45-.134-.97-.316-1.558a7.904 7.904 0 00-.195-.563 12.304 12.304 0 00-.335-.786 1.499 1.499 0 01-.055-.124l-1.083.535.53 1.303a3.959 3.959 0 01.273 1.038c.008.107.013.187.013.24 0 .098-.007.189-.019.274-.02.13-.05.237-.091.323a1.09 1.09 0 01-.304.398 1.28 1.28 0 01-.426.216 2.29 2.29 0 01-.542.089c-.2.01-.416.015-.652.015h-.706V54h.968zm.998 3.171l.993-.992-.999-.998-.992.992.998.998zM331.675 54v-1.193h-.122c-.284 0-.507-.04-.67-.119-.162-.079-.292-.228-.39-.447a1.22 1.22 0 01-.054-.161 5.954 5.954 0 01-.097-.423c-.04-.2-.088-.465-.14-.798a39.795 39.795 0 01-.201-1.497 221.172 221.172 0 01-.146-1.397 308.406 308.406 0 00-.067-.63v.006l-1.193.25.021.222.07.678a9.92 9.92 0 00-.402.156c-.154.062-.317.14-.49.23a7.063 7.063 0 00-.535.317c-.185.12-.363.256-.536.408a4.062 4.062 0 00-.487.515c-.152.19-.283.4-.393.626a1.37 1.37 0 00-.085.299c-.02.113-.03.225-.03.335v.11c.004.15.03.303.076.462.047.158.127.304.24.438.41.507 1.139.76 2.186.76.198 0 .406-.008.623-.027.218-.018.454-.047.71-.088.215.345.483.593.803.743.211.097.423.16.636.185.213.027.397.04.551.04h.122zm-3.407-2.034l-.069.001c-.142 0-.282-.008-.42-.024a1.892 1.892 0 01-.447-.095.828.828 0 01-.323-.198.443.443 0 01-.125-.322.74.74 0 01.104-.375c.069-.12.16-.232.27-.337.112-.106.238-.203.378-.293.14-.089.282-.171.426-.246.144-.075.283-.142.417-.2.134-.06.25-.11.347-.15.065.52.123.95.174 1.29.05.341.1.63.149.865-.106.02-.235.038-.387.055a4.564 4.564 0 01-.494.03zM313.597 54c.247 0 .48-.012.7-.037a2.77 2.77 0 00.62-.14 2.05 2.05 0 00.551-.298 2.48 2.48 0 00.496-.517c.187.138.39.273.609.405.22.131.447.243.685.334a2.63 2.63 0 00.983.198c.166 0 .333-.022.499-.067.264-.073.487-.204.67-.392.182-.189.326-.41.432-.664.105-.253.17-.486.195-.697.024-.21.036-.381.036-.511 0-.146-.01-.288-.03-.426a3.683 3.683 0 00-.216-.804 2.506 2.506 0 00-.417-.706 2.058 2.058 0 00-.63-.502 1.812 1.812 0 00-.85-.192c-.267 0-.502.054-.703.162-.2.107-.379.247-.535.42a3.21 3.21 0 00-.42.59c-.124.221-.24.445-.35.673-.126.251-.25.496-.375.733-.123.238-.27.449-.438.633a1.908 1.908 0 01-.612.445c-.239.111-.54.167-.9.167h-.122V54h.122zm4.626-1.266c-.163 0-.345-.04-.548-.122a4.697 4.697 0 01-1.01-.59l.328-.664c.101-.199.192-.371.27-.517.08-.146.155-.268.226-.365a.862.862 0 01.213-.216.408.408 0 01.228-.07c.122 0 .23.024.323.073.093.048.175.11.244.185s.127.159.176.25a1.98 1.98 0 01.189.496c.016.069.026.118.03.146.016.11.025.215.025.317a1.822 1.822 0 01-.113.615 1.035 1.035 0 01-.167.298.389.389 0 01-.201.14.878.878 0 01-.213.024zm-10.22 5.539a7.459 7.459 0 001.72-.487 6.291 6.291 0 001.509-.889 5.424 5.424 0 001.156-1.269 4.598 4.598 0 00.66-1.628h.67v-1.193h-.578a5.794 5.794 0 00-.329-1.768 4.675 4.675 0 00-.353-.77 3.846 3.846 0 00-.462-.646c-.483-.519-1.013-.779-1.589-.779-.26 0-.51.066-.752.198a2.284 2.284 0 00-.672.581c-.17.22-.319.48-.445.783a3.435 3.435 0 00-.24.81 4.237 4.237 0 00-.052.587c0 .162.014.324.043.487.048.308.166.58.353.815.422.524 1.073.812 1.954.865.223.02.423.03.6.03h.69c-.045.304-.17.614-.374.928a3.805 3.805 0 01-.837.892c-.353.28-.777.532-1.272.755a7.854 7.854 0 01-1.68.523l.28 1.175zm3.342-5.479h-.098c-.179 0-.37-.005-.572-.017a3.068 3.068 0 01-.259-.028c-.1-.014-.2-.036-.304-.067a1.43 1.43 0 01-.292-.122.716.716 0 01-.229-.197.57.57 0 01-.124-.29 2.13 2.13 0 01-.022-.27 2.765 2.765 0 01.344-1.272c.083-.143.178-.26.283-.35a.505.505 0 01.335-.138c.073 0 .142.013.207.037a.94.94 0 01.186.094c.058.039.113.082.164.128.05.047.096.09.137.131.101.118.2.257.295.417.095.16.182.34.259.539.077.199.14.414.188.645.05.231.08.477.092.736a7.117 7.117 0 01-.59.024zm-5.035 1.26a28.5 28.5 0 00.1-1.904c.011-.597.016-1.074.016-1.43 0-.593-.006-1.226-.018-1.9a55.636 55.636 0 00-.31-4.431l-1.194.182c.138 1.279.248 2.902.329 4.87.012.337.018.694.018 1.071 0 .313-.004.64-.012.98-.02.755-.063 1.587-.128 2.496l1.2.067zm-7.079 4.304c.341-.166.677-.354 1.008-.563.33-.209.645-.437.943-.685.298-.247.574-.51.828-.79s.473-.575.657-.883c.185-.309.33-.628.433-.96.103-.33.155-.672.155-1.025 0-.178-.014-.361-.043-.548a8.704 8.704 0 00-.106-.569c-.043-.193-.09-.387-.14-.584l-.15-.588a9.053 9.053 0 00-.152-.556 65.408 65.408 0 01-.17-.564l-1.157.366c.11.34.213.681.31 1.022l.14.512c.05.174.094.349.135.523.04.175.074.345.1.511.027.167.04.325.04.475 0 .394-.096.775-.286 1.145a4.51 4.51 0 01-.758 1.046 6.964 6.964 0 01-1.075.91 9.912 9.912 0 01-1.241.734l.53 1.071zm-3.287-4.364c.244 0 .488-.018.734-.055.245-.036.482-.095.709-.176a3.04 3.04 0 00.636-.314c.197-.128.368-.28.514-.46a1.474 1.474 0 00.317-.645c.032-.142.05-.304.052-.487a2.812 2.812 0 00-.07-.614 4.424 4.424 0 00-.277-.795 6.44 6.44 0 00-.445-.815 8.06 8.06 0 00-1.232-1.495 6.963 6.963 0 00-.71-.59 4.27 4.27 0 00-.72-.426l-.494 1.108c.183.08.37.19.56.328.191.138.379.296.563.475.185.179.362.37.533.575.17.205.326.416.466.633.14.217.26.435.359.652.1.217.171.425.216.624.032.146.048.271.048.377 0 .146-.03.256-.09.329-.139.166-.31.29-.512.37a1.959 1.959 0 01-.548.144 3.497 3.497 0 01-.84-.01 5.173 5.173 0 01-1.418-.386 3.7 3.7 0 01-.542-.283l-.5 1.145c.102.093.263.186.482.28a7.375 7.375 0 001.519.441c.265.047.496.07.69.07zM281.3 54c.248 0 .481-.012.7-.037a2.77 2.77 0 00.621-.14 2.05 2.05 0 00.55-.298 2.48 2.48 0 00.497-.517c.187.138.39.273.609.405.219.131.447.243.684.334a2.63 2.63 0 00.983.198c.167 0 .333-.022.5-.067.263-.073.487-.204.67-.392.182-.189.326-.41.431-.664.106-.253.17-.486.195-.697.024-.21.037-.381.037-.511 0-.146-.01-.288-.03-.426a3.683 3.683 0 00-.217-.804 2.506 2.506 0 00-.417-.706 2.058 2.058 0 00-.63-.502 1.812 1.812 0 00-.849-.192c-.268 0-.502.054-.703.162-.2.107-.38.247-.536.42a3.21 3.21 0 00-.42.59c-.123.221-.24.445-.35.673-.125.251-.25.496-.374.733-.124.238-.27.449-.438.633a1.908 1.908 0 01-.612.445c-.24.111-.54.167-.9.167h-.123V54h.122zm4.626-1.266c-.162 0-.345-.04-.548-.122a4.697 4.697 0 01-1.01-.59l.329-.664c.101-.199.191-.371.27-.517.08-.146.155-.268.226-.365a.862.862 0 01.213-.216.408.408 0 01.228-.07c.122 0 .23.024.323.073.093.048.174.11.243.185.07.075.128.159.177.25a1.98 1.98 0 01.188.496c.017.069.027.118.03.146.017.11.025.215.025.317a1.822 1.822 0 01-.113.615 1.035 1.035 0 01-.167.298.389.389 0 01-.2.14.878.878 0 01-.214.024zm-6.665 5.271l.76-.925a1.506 1.506 0 01-.389-.584 1.813 1.813 0 01-.103-.585 1.935 1.935 0 01.173-.77c.096-.213.22-.402.375-.569a1.92 1.92 0 01.532-.405c.201-.103.415-.159.642-.167h.17v-1.193h-.12c-.236 0-.47.035-.704.106a3.138 3.138 0 00-1.738 1.33 2.39 2.39 0 00-.359 1.425 1.43 1.43 0 01-.374-.338 4.072 4.072 0 01-.332-.478 5.661 5.661 0 01-.27-.511c-.08-.17-.144-.315-.193-.432.272-.045.532-.117.78-.216.247-.1.476-.226.687-.378a2.902 2.902 0 00.98-1.238c.073-.175.117-.35.131-.527.014-.177.022-.32.022-.43 0-.15-.009-.306-.025-.468a4.609 4.609 0 00-.173-.812 2.974 2.974 0 00-.326-.722 1.702 1.702 0 00-.466-.499 1.012 1.012 0 00-.587-.182h-.06c-.277.012-.53.095-.762.25a2.56 2.56 0 00-.624.599 4.151 4.151 0 00-.48.834c-.136.31-.249.624-.338.943-.09.319-.151.613-.186.883-.034.27-.052.5-.052.69 0 .061.002.118.006.171h-.98V54h1.206l.054.152a6.811 6.811 0 001.084 2.04c.256.332.552.653.889.961.336.308.72.593 1.15.852zm-2.015-5.259c-.06 0-.124-.004-.188-.012a2.17 2.17 0 01-.019-.292c0-.09.004-.183.012-.28.02-.211.058-.426.113-.645.055-.22.123-.435.204-.646.081-.21.172-.4.274-.569.101-.168.208-.306.32-.414a.585.585 0 01.337-.18c.183.135.316.307.399.518.083.211.124.434.122.67a2.064 2.064 0 01-.131.7 2.05 2.05 0 01-.356.617c-.152.181-.323.315-.512.402-.188.087-.38.131-.575.131zm-7.767 5.825a1968.844 1968.844 0 01-.204-5.57 16.973 16.973 0 01-.003-.212c0-.029.002-.047.006-.055l1.498.554c.292.118.55.22.776.307.225.087.427.158.606.213.178.055.321.09.429.107.107.016.195.024.264.024.057 0 .11-.004.159-.012a1.43 1.43 0 00.417-.195c.123-.085.236-.186.337-.304.15.178.334.317.551.417.217.1.446.15.685.155h.122v-1.193h-.122a.402.402 0 01-.277-.107.967.967 0 01-.2-.255c-.055-.1-.098-.201-.129-.305a3.04 3.04 0 01-.063-.246 3.445 3.445 0 000-.578 3.663 3.663 0 00-.092-.56 3.16 3.16 0 00-.173-.518 2.19 2.19 0 00-.253-.438 1.952 1.952 0 00-.694-.581 2.185 2.185 0 00-.895-.216h-.066c-.195 0-.376.032-.542.097-.19.077-.368.18-.533.31-.164.13-.314.283-.45.46a4.92 4.92 0 00-.372.557 6.318 6.318 0 00-.3.596c-.09.203-.167.396-.232.579a1.523 1.523 0 00-.326-.064 6.193 6.193 0 00-.143-.003c-.093 0-.178.006-.256.018a1.02 1.02 0 00-.258.088 1.256 1.256 0 00-.192.119c-.13.097-.23.209-.298.335a1.52 1.52 0 00-.146.359 1.403 1.403 0 00-.046.304l-.003.17.225 5.643h1.193zm3.458-5.8a4.293 4.293 0 01-.657-.189l-.497-.186a12.377 12.377 0 01-.545-.222l-.383-.158.149-.375c.055-.136.119-.27.192-.404a3.4 3.4 0 01.511-.764c.17-.181.325-.271.463-.271h.012c.045 0 .106.006.186.018.079.012.163.047.252.103.09.057.178.144.265.26.087.115.161.276.222.483.037.118.059.228.067.332a2.76 2.76 0 01-.006.55 2.888 2.888 0 01-.082.46 1.333 1.333 0 01-.15.362zm-15.559 5.502a7.348 7.348 0 001.23-.301 7.003 7.003 0 001.147-.505c.364-.201.702-.436 1.017-.704.314-.267.591-.566.83-.894.24-.329.437-.687.591-1.075.154-.387.254-.804.298-1.25a5.636 5.636 0 00.007-1.108 6.03 6.03 0 00-.201-1.066 5.049 5.049 0 00-.38-.958 3.741 3.741 0 00-.546-.789c-.482-.519-1.012-.779-1.588-.779-.26 0-.51.066-.752.198a2.284 2.284 0 00-.673.581c-.17.22-.318.48-.444.783a3.435 3.435 0 00-.24.81 4.237 4.237 0 00-.052.587c0 .162.014.324.042.487.05.308.167.58.354.815.422.524 1.073.812 1.953.865.224.02.423.03.6.03h.69c-.044.304-.169.614-.373.928a3.805 3.805 0 01-.837.892 6.02 6.02 0 01-1.273.755 7.854 7.854 0 01-1.68.523l.28 1.175zm3.343-5.479h-.098c-.179 0-.37-.005-.572-.017a3.068 3.068 0 01-.26-.028c-.099-.014-.2-.036-.303-.067a1.43 1.43 0 01-.293-.122.716.716 0 01-.228-.197.57.57 0 01-.125-.29 2.13 2.13 0 01-.021-.27 2.765 2.765 0 01.344-1.272c.083-.143.177-.26.283-.35a.505.505 0 01.335-.138c.073 0 .142.013.207.037a.94.94 0 01.185.094c.06.039.114.082.165.128.05.047.096.09.137.131.101.118.2.257.295.417.095.16.181.34.259.539.077.199.14.414.188.645.049.231.08.477.092.736a7.117 7.117 0 01-.59.024zM243.93 54a9.77 9.77 0 001.82-.17c.6-.114 1.182-.261 1.744-.442.562-.18 1.1-.382 1.613-.605.514-.224.993-.447 1.44-.67l.876-.43c.28-.135.562-.262.846-.38l-.23-1.156c-.252 0-.502-.026-.75-.08a5.987 5.987 0 01-.742-.21 9.844 9.844 0 01-.74-.294 34.3 34.3 0 01-.727-.335c-.22-.102-.436-.201-.651-.298a8.863 8.863 0 00-.633-.26 4.933 4.933 0 00-.612-.179 2.73 2.73 0 00-.594-.067 2.34 2.34 0 00-1.123.286c-.355.191-.69.477-1.007.859a4.13 4.13 0 00-.29.383 9.873 9.873 0 00-.212.335 3.1 3.1 0 00-.186.347l1.096.493a3.225 3.225 0 01.225-.399c.073-.111.16-.231.262-.359.101-.128.216-.247.344-.359.127-.112.266-.204.417-.277.15-.073.308-.11.474-.11.126 0 .264.02.414.058.15.039.31.09.478.156.168.064.343.139.524.222l.556.258c.248.118.5.234.755.347.256.114.524.22.804.317-.463.231-.944.456-1.443.676-.499.219-1.01.413-1.534.584-.523.17-1.055.307-1.595.41a8.58 8.58 0 01-1.619.156h-1.32V54h1.32zm5.016 3.171l.998-.998-.986-.986-.998.998.986.986zm-2.66.012l.998-.998-.986-.992-.998.998.986.992zm1.357 1.741l.907-.907-.9-.9-.908.906.901.901zM237.552 46.47l.901-.9-.907-.907-.9.9.906.907zm-1.375 1.924l.986-.992-.999-.999-.986.993.999.998zm2.672.006l.986-.986-.998-.998-.987.986.999.998zm-3.67 5.618c.198 0 .388-.03.568-.088.181-.059.351-.142.512-.25.16-.107.308-.233.444-.377s.259-.301.368-.472c.15.361.378.647.682.856.304.209.66.313 1.065.313.207 0 .402-.03.585-.091a1.96 1.96 0 00.925-.652c.122-.154.223-.326.304-.517.106.195.234.37.384.523.15.155.315.287.496.396.18.11.372.194.575.253.203.059.41.088.62.088h.147v-1.193h-.146c-.292 0-.557-.123-.795-.368-.237-.246-.437-.618-.6-1.117a4.796 4.796 0 01-.142-.518 8.161 8.161 0 01-.14-.885c-.014-.136-.028-.271-.04-.405l-1.193.097.022.457a10.833 10.833 0 01.003.755c-.009.235-.029.47-.061.703a2.725 2.725 0 01-.162.633 1.22 1.22 0 01-.3.456.683.683 0 01-.482.174c-.203 0-.363-.055-.48-.165a.962.962 0 01-.26-.426 1.87 1.87 0 01-.09-.475 4.65 4.65 0 01.015-.785c.016-.223.04-.436.073-.639l.079-.517-1.187-.225c-.02.186-.05.396-.088.63a7.183 7.183 0 01-.387 1.415c-.09.231-.197.436-.323.615a1.66 1.66 0 01-.435.432.981.981 0 01-.557.164.45.45 0 01-.38-.17.838.838 0 01-.165-.393 2.806 2.806 0 01-.027-.648c.012-.22.036-.435.07-.649a12.743 12.743 0 01.204-1.02l-1.169-.322c-.024.098-.05.213-.079.347a6.176 6.176 0 01-.112.442 8.73 8.73 0 01-.168.51c-.065.181-.144.365-.237.552a4.12 4.12 0 01-.31.49c-.118.16-.247.304-.387.432s-.29.23-.45.307c-.16.077-.326.116-.497.116h-.128V54h.128a2.256 2.256 0 001.2-.332 2.36 2.36 0 00.468-.374c.142-.146.276-.308.402-.487a1.665 1.665 0 001.637 1.211zM224.294 54c.625 0 1.168-.164 1.631-.493.235-.162.406-.327.511-.493.76.532 1.544.848 2.356.95.069.008.136.012.2.012.419 0 .774-.193 1.066-.579.154.203.348.354.581.454.234.1.5.149.8.149h.147v-1.193h-.146a.81.81 0 01-.627-.28.938.938 0 01-.17-.298 1.174 1.174 0 01-.067-.36 5.122 5.122 0 00-.07-.663 3.567 3.567 0 00-.47-1.257 2.222 2.222 0 00-.41-.496 1.821 1.821 0 00-.539-.335 1.78 1.78 0 00-.672-.121c-.357 0-.663.094-.916.283a2.405 2.405 0 00-.643.733l-.045.076c-.019.03-.048.085-.089.164l-.17.341c-.073.148-.172.346-.298.594a5.844 5.844 0 01-.445.736c-.438.585-.941.879-1.51.883h-.127V54h.122zm4.559-1.211a1.23 1.23 0 01-.201-.019 3.03 3.03 0 01-.673-.237 6.245 6.245 0 01-.83-.487l.033-.067.08-.161c.038-.08.094-.193.167-.341l.292-.6c.247-.454.479-.681.694-.681.182 0 .34.05.474.152.134.101.245.232.332.392.087.16.154.34.201.54.047.198.074.395.082.59v.097c0 .11-.01.209-.03.298a.874.874 0 01-.128.292c-.106.155-.27.232-.493.232zm-10.932-7.475l4.894-2.07-.286-.614-4.566 1.905-.042.779zM218.987 54c.17-.008.339-.024.505-.049.167-.024.329-.06.487-.11a2.355 2.355 0 00.883-.493c.215-.198.39-.425.523-.681.183.235.395.454.636.657.242.203.509.357.8.463.212.069.428.122.649.158.221.037.478.055.77.055h.177v-1.193h-.384a2.083 2.083 0 01-.624-.1 2.045 2.045 0 01-.52-.26 2.233 2.233 0 01-.436-.398 4.106 4.106 0 01-.374-.526c-.154-.26-.298-.518-.432-.773-.134-.256-.269-.51-.405-.761a23.622 23.622 0 00-.426-.755 8.539 8.539 0 00-1.135-1.507 8.372 8.372 0 00-.81-.745l4.827-2.027-.468-1.108-5.381 2.32-.159 1.344a10.538 10.538 0 011.24 1.142c.212.229.416.47.61.724.196.254.366.51.512.77.146.26.255.503.326.73a2.1 2.1 0 01.106.621c0 .049-.002.098-.006.146a.956.956 0 01-.149.43 1.624 1.624 0 01-.773.636 1.326 1.326 0 01-.49.097h-2.124V54h2.045zm-6.324 0c.381 0 .713-.015.995-.046.282-.03.528-.077.74-.14a2.273 2.273 0 00.973-.569c.175.223.398.405.67.545s.613.21 1.022.21h.122v-1.193h-.122a.86.86 0 01-.508-.14.999.999 0 01-.31-.353 1.667 1.667 0 01-.162-.463 4.299 4.299 0 01-.066-.474 18.672 18.672 0 00-.11-1.054 5.718 5.718 0 00-.177-.827l-1.144.322c.09.309.151.583.186.822.034.24.051.475.051.706 0 .244-.04.457-.121.64a1.1 1.1 0 01-.38.456 1.85 1.85 0 01-.67.274c-.274.06-.604.091-.99.091h-.906V54h.907zm.225 2.977l.986-.987-.998-.998-.986.992.998.993zm2.495.012l.987-.992-.999-.993-.986.986.998.999zm-8.692 1.503a11.123 11.123 0 001.492-.9 7.948 7.948 0 001.287-1.142c.375-.416.677-.865.904-1.348.227-.483.34-.99.34-1.522v-.024c.102.11.209.194.32.255a1.475 1.475 0 00.624.183c.09.004.163.006.22.006h.103v-1.193h-.098c-.202 0-.388-.049-.556-.146a1.645 1.645 0 01-.484-.46 4.3 4.3 0 01-.45-.81c-.147-.33-.297-.73-.451-1.201l-1.145.353c.05.15.108.337.177.563.069.225.138.465.207.721.069.256.133.516.192.782.058.266.102.514.13.746a2.272 2.272 0 01-.067.822 3.158 3.158 0 01-.331.785c-.148.251-.33.492-.545.721-.215.23-.45.447-.706.654a8.3 8.3 0 01-.816.582c-.288.18-.578.346-.87.496l.523 1.077zm-4.954-4.437a28.5 28.5 0 00.1-1.905c.01-.597.015-1.074.015-1.43 0-.593-.006-1.226-.018-1.9a55.636 55.636 0 00-.31-4.431l-1.194.182c.138 1.279.248 2.902.33 4.87.011.337.017.694.017 1.071 0 .313-.004.64-.012.98-.02.755-.063 1.587-.128 2.496l1.2.067zm-6.818-8.15l.901-.902-.907-.906-.9.9.906.907zm-1.376 1.923l.987-.992-.999-.999-.986.993.998.998zm2.673.006l.986-.986-.999-.998-.986.986.999.998zm.207 6.239c.377 0 .708-.053.992-.158.292-.106.535-.258.73-.457.195-.199.341-.439.438-.721.098-.282.147-.598.147-.947 0-.23-.022-.468-.064-.712a6.734 6.734 0 00-.165-.712 10.708 10.708 0 00-.751-1.899l-1.066.56a10.74 10.74 0 01.515 1.245c.087.257.162.52.225.788s.094.517.094.749c0 .178-.02.339-.06.48a.814.814 0 01-.198.354.668.668 0 01-.31.185 1.37 1.37 0 01-.35.046c-.07 0-.143-.004-.22-.012a.568.568 0 01-.307-.119.741.741 0 01-.201-.256 1.287 1.287 0 01-.11-.359 2.647 2.647 0 01-.033-.429c0-.166.012-.356.036-.569.025-.213.052-.414.082-.603.03-.188.058-.35.083-.484l.03-.194-1.169-.213a14.56 14.56 0 01-.1.587 8.363 8.363 0 01-.164.697c-.067.24-.149.475-.244.706a3.216 3.216 0 01-.335.621c-.128.183-.274.33-.438.444a.956.956 0 01-.557.17.643.643 0 01-.323-.072.545.545 0 01-.2-.195.852.852 0 01-.104-.277c-.02-.104-.03-.21-.03-.32 0-.158.016-.33.048-.514.033-.185.071-.365.116-.542a11.173 11.173 0 01.256-.873l-1.206-.256c-.04.199-.089.41-.146.633a6.81 6.81 0 01-.207.667 4.861 4.861 0 01-.286.636c-.11.203-.238.382-.386.539a1.813 1.813 0 01-.508.377c-.191.095-.406.143-.646.143h-.134V54h.128c.236 0 .452-.02.648-.058a2.366 2.366 0 00.99-.432c.138-.103.267-.22.39-.35.064.15.156.282.276.396.12.113.253.209.399.286.146.077.3.135.46.173a1.99 1.99 0 001.445-.192c.308-.166.584-.391.828-.675.085.13.189.25.31.362.122.112.254.209.396.292.142.083.291.15.447.198.157.049.312.073.466.073h.043zM189.44 54v-1.193h-.122c-.256 0-.476-.026-.66-.08a.95.95 0 01-.417-.218.507.507 0 01-.162-.314 3.288 3.288 0 01-.02-.386v-3.056a42.483 42.483 0 00-.126-3.208 9.022 9.022 0 00-.094-.76l-1.193.218c.036.191.068.436.094.734.027.298.049.624.067.977.019.353.032.718.04 1.096.008.377.012.74.012 1.09a89.654 89.654 0 010 1.88 184.945 184.945 0 00-.012.907c0 .097.002.214.006.35a2.35 2.35 0 00.216.886c.071.154.173.298.307.432.22.219.486.381.8.487.315.105.696.158 1.142.158h.122zm-8.674 4.358c.34-.166.677-.354 1.007-.563.331-.209.646-.437.944-.685.298-.247.574-.51.828-.79.253-.28.472-.575.657-.883.185-.309.329-.628.432-.96.104-.33.155-.672.155-1.025 0-.178-.014-.361-.042-.548a8.704 8.704 0 00-.107-.569c-.042-.193-.089-.387-.14-.584l-.149-.588a9.052 9.052 0 00-.152-.556 65.408 65.408 0 01-.17-.564l-1.157.366c.11.34.213.681.31 1.022l.14.512c.05.174.094.349.134.523.041.175.074.345.1.511.027.167.04.325.04.475 0 .394-.095.775-.286 1.145a4.51 4.51 0 01-.758 1.046 6.964 6.964 0 01-1.074.91 9.912 9.912 0 01-1.242.734l.53 1.071zM177.949 54c.073 0 .163-.003.27-.01.108-.005.223-.02.344-.042.122-.022.25-.052.384-.091s.266-.09.396-.155c.357-.175.628-.416.812-.725.185-.308.277-.671.277-1.09 0-.417-.122-.872-.365-1.363-.244-.49-.615-1.02-1.114-1.588a12.198 12.198 0 00-.511-.539 18.56 18.56 0 00-.448-.43 11.028 11.028 0 00-.412-.366l-.035-.035-.767.931a.92.92 0 00.11.098c.073.06.17.146.292.255a8.659 8.659 0 00-.712.743c-.662.795-.993 1.56-.993 2.295 0 .418.1.78.299 1.086.198.307.493.551.882.734.15.073.299.13.445.17.146.04.279.07.398.089a2.466 2.466 0 00.448.033zm.044-1.212h-.077c-.026 0-.057-.003-.095-.005a2.481 2.481 0 01-.414-.076 1.455 1.455 0 01-.237-.089.936.936 0 01-.262-.164.759.759 0 01-.15-.186.585.585 0 01-.066-.191 1.222 1.222 0 01-.015-.19c0-.206.047-.415.143-.626.095-.211.212-.414.35-.609.138-.195.285-.373.44-.535.157-.163.294-.297.412-.402.393.426.694.828.9 1.205.208.377.311.7.311.968a.885.885 0 01-.1.447.803.803 0 01-.326.295 1.236 1.236 0 01-.244.086c-.085.02-.166.036-.243.048-.077.013-.148.02-.213.022a5.281 5.281 0 01-.158.003h.044zM166.5 54c.211 0 .388-.014.53-.043.86-.158 1.47-.558 1.832-1.199.085-.154.16-.324.222-.511.063-.187.101-.354.116-.502.014-.148.021-.265.021-.35 0-.146-.012-.3-.037-.463a3.644 3.644 0 00-.219-.791 5.116 5.116 0 00-.462-.886 7.535 7.535 0 00-.761-.977 9.49 9.49 0 00-.7-.7 39.17 39.17 0 00-.651-.572l4.358-1.832-.469-1.108-5.003 2.143-.14 1.248a15.432 15.432 0 011.85 1.768c.26.294.478.57.654.828.177.257.288.47.332.636.057.219.085.424.085.614a1.495 1.495 0 01-.243.828c-.114.17-.27.302-.469.393a2.705 2.705 0 01-.657.2c-.24.043-.491.068-.755.074-.264.006-.517.009-.76.009h-.762V54h2.088zm-4.443-5.612l.992-.992-.998-.999-.993.993.999.998zM160.346 54c.596 0 1.097-.062 1.503-.186.405-.123.736-.313.992-.569.174.223.398.405.67.545.271.14.612.21 1.022.21h.122v-1.193h-.122a.86.86 0 01-.508-.14.999.999 0 01-.31-.353 1.667 1.667 0 01-.162-.463 4.3 4.3 0 01-.067-.474 18.669 18.669 0 00-.11-1.054 5.718 5.718 0 00-.176-.827l-1.144.322c.089.309.15.583.185.822.035.24.052.475.052.706 0 .483-.154.847-.463 1.093-.308.245-.803.368-1.485.368h-.225V54h.225zm-4.505 0c.381 0 .713-.015.995-.046.282-.03.529-.077.74-.14a2.273 2.273 0 00.974-.569c.174.223.397.405.67.545.271.14.612.21 1.022.21h.121v-1.193h-.121a.86.86 0 01-.509-.14.999.999 0 01-.31-.353 1.667 1.667 0 01-.161-.463 4.299 4.299 0 01-.067-.474 18.669 18.669 0 00-.11-1.054 5.717 5.717 0 00-.176-.827l-1.145.322c.09.309.152.583.186.822.034.24.052.475.052.706 0 .244-.04.457-.122.64a1.1 1.1 0 01-.38.456 1.85 1.85 0 01-.67.274c-.274.06-.604.091-.99.091h-.906V54h.907zm.225 2.977l.986-.987-.998-.998-.986.992.998.993zm2.496.012l.986-.992-.998-.993-.987.986.999.999zM155.177 54v-1.193h-.121c-.244 0-.445-.031-.603-.094a1.088 1.088 0 01-.396-.262 1.536 1.536 0 01-.27-.408 13.54 13.54 0 01-.235-.533c-.158-.369-.307-.723-.447-1.062a3413.595 3413.595 0 01-1.415-3.436l-1.108.463 1.923 4.626a2.31 2.31 0 01-.81.511c-.218.085-.404.135-.556.15a4.04 4.04 0 01-.344.02c-.163 0-.325-.018-.487-.054a2.792 2.792 0 01-.737-.28 3.6 3.6 0 01-.736-.542l-.688.968c.345.357.721.634 1.13.83a3.02 3.02 0 001.33.296c.287 0 .547-.017.778-.052.232-.034.446-.085.642-.152.197-.067.382-.151.554-.253.173-.101.344-.219.515-.353a2.1 2.1 0 00.304.314c.118.1.255.186.41.259.157.073.338.13.543.173.205.043.439.064.703.064h.121zm-9.873 0c.26 0 .465-.073.615-.22a.725.725 0 00.207-.535c0-.235-.069-.424-.207-.566-.146-.15-.35-.225-.615-.225-.26 0-.46.075-.602.225-.134.142-.201.33-.201.566 0 .223.067.402.2.536.143.146.344.219.603.219z"/><rect width="417" height="39" x=".5" y=".5" stroke="#000000" stroke-opacity=".24" rx="4" transform="translate(0 80)"/></g></g><g mask="url(#f)"><g transform="translate(32 164)"><g transform="translate(0 48)"><rect width="103" height="39" x=".5" y=".5" fill="#EA475B" rx="4"/><path fill="#FFF" fill-rule="nonzero" d="M85.155 24.195l1.822-.278c.019-.362.037-.75.056-1.166.019-.415.033-.862.042-1.342a103.02 103.02 0 00.007-3.37c-.01-.77-.037-1.558-.084-2.362a35.164 35.164 0 00-.243-2.536l-1.788.584c.079.765.141 1.567.188 2.404.046.837.088 1.73.125 2.681.014.413.02.856.02 1.33 0 1.172-.048 2.524-.145 4.055zm-6.463 5.064c.413-.204.821-.433 1.225-.689.403-.255.786-.53 1.147-.827.362-.297.697-.613 1.006-.946.308-.334.575-.686.8-1.054.224-.37.4-.752.528-1.148.128-.397.192-.804.192-1.221 0-.306-.026-.62-.077-.943a11.254 11.254 0 00-.198-.97 16.92 16.92 0 00-.272-.964l-.288-.914-1.746.563c.06.204.135.438.226.703.09.264.178.539.264.824.086.285.159.574.22.866.06.292.09.57.09.835 0 .283-.051.563-.153.842-.102.278-.243.55-.421.814-.179.264-.392.519-.64.765s-.517.48-.807.702c-.29.223-.595.433-.915.63-.32.197-.645.377-.974.54l.793 1.592zm-7.11-4.967c.27-.004.507-.036.714-.094a2.32 2.32 0 00.556-.233c.165-.097.31-.212.435-.344.125-.132.241-.275.348-.428.093.14.198.276.316.41.119.135.253.254.404.359a1.872 1.872 0 001.095.33h.098c.468 0 .883-.065 1.245-.195.376-.13.692-.317.95-.563.257-.246.452-.543.584-.89.132-.348.198-.738.198-1.17a5.42 5.42 0 00-.066-.834 8.125 8.125 0 00-.174-.831 11.854 11.854 0 00-.695-1.938 5.724 5.724 0 00-.136-.278l-1.496.835c.08.162.172.366.279.612.106.246.207.508.302.786s.176.564.244.856c.067.292.1.563.1.814 0 .343-.104.598-.313.765-.208.167-.477.25-.807.25a1.017 1.017 0 01-.445-.1.81.81 0 01-.292-.251.856.856 0 01-.146-.334 1.788 1.788 0 01-.035-.344v-.112a9.97 9.97 0 01.06-.584c.025-.195.052-.381.08-.56.027-.178.054-.344.08-.497.025-.153.045-.286.058-.397l-1.627-.313c-.028.195-.066.415-.115.661-.049.246-.11.497-.181.755a7.053 7.053 0 01-.257.755c-.1.245-.216.464-.348.657a1.836 1.836 0 01-.449.466.952.952 0 01-.563.177c-.195 0-.335-.056-.421-.17a.658.658 0 01-.143-.344 3.574 3.574 0 01-.014-.244c0-.148.016-.308.049-.48.042-.227.094-.453.156-.678.063-.225.13-.438.199-.64.07-.202.125-.368.167-.497l-1.74-.383c-.05.195-.108.414-.173.657-.065.244-.142.49-.23.741-.088.25-.191.494-.31.73a3.232 3.232 0 01-.41.634 1.881 1.881 0 01-.536.445c-.201.111-.43.167-.685.167h-.278v1.78h.25c.325 0 .608-.027.849-.083.241-.055.451-.13.63-.226.178-.095.329-.203.452-.323s.228-.246.316-.376c.102.148.215.29.338.424.123.135.26.252.41.352a1.932 1.932 0 001.075.316h.049zm-4.09-.083v-1.781h-.313c-.18 0-.34-.019-.476-.056a.69.69 0 01-.522-.508 1.726 1.726 0 01-.052-.445v-.111c0-.144 0-.285.003-.425l.004-.21.003-.214.007-.449a33.428 33.428 0 00-.003-1.224 46.688 46.688 0 01-.007-.783 36.444 36.444 0 00-.098-2.636c-.032-.44-.07-.855-.111-1.242a12.708 12.708 0 00-.14-.984l-1.745.522c.041.218.079.47.111.754.033.286.06.592.084.919a52.978 52.978 0 01.097 2.066 81.163 81.163 0 01.028 1.972c0 .492-.005.908-.014 1.249-.01.34-.014.585-.014.734.005.955.25 1.67.737 2.142.487.473 1.201.71 2.143.71h.278zm-9.975 4.563a5.42 5.42 0 001.015-.1 4.67 4.67 0 002.014-.922 3.78 3.78 0 00.81-.88c.232-.346.417-.748.554-1.207.136-.46.205-.981.205-1.566 0-.366-.006-.802-.018-1.307A315.133 315.133 0 0062 19.374l-.06-1.809a168.28 168.28 0 00-.086-2.16c-.035-.749-.068-1.504-.101-2.264l-1.816.34c.042.724.085 1.447.13 2.168.043.72.081 1.413.114 2.076.028.566.056 1.146.083 1.74a181.995 181.995 0 01.126 3.31c.013.497.02.928.02 1.295 0 .524-.092.97-.278 1.339-.185.368-.422.67-.71.904a2.85 2.85 0 01-.949.515 3.314 3.314 0 01-.998.163 3.13 3.13 0 01-.974-.163 3.098 3.098 0 01-.911-.473 2.58 2.58 0 01-.675-.758 1.97 1.97 0 01-.265-1.02c0-.477.065-.957.195-1.44.13-.482.332-.927.605-1.335l-1.502-.696a3.77 3.77 0 00-.41.765 6.56 6.56 0 00-.279.87 7.179 7.179 0 00-.163.918 8.19 8.19 0 00-.053.911v.05c0 .481.065.915.195 1.3.13.403.31.76.54 1.071.229.311.494.579.796.804.301.225.619.41.953.553a5.17 5.17 0 001.99.424zM43.402 13.704a2.16 2.16 0 00.059-.236c.02-.102.052-.202.094-.3a.774.774 0 01.174-.253.427.427 0 01.292-.115h.056c.153 0 .299.019.438.056.148.046.294.097.438.153.144.055.289.105.435.15.146.043.302.065.47.065h.048c.186-.004.362-.037.529-.097.167-.06.322-.136.466-.226.144-.09.273-.188.39-.292a3.545 3.545 0 00.486-.532.794.794 0 00.077-.119l-.953-.612c-.135.176-.261.318-.38.424a.942.942 0 01-.33.21.926.926 0 01-.452.034 2.29 2.29 0 01-.529-.16 4.243 4.243 0 00-.476-.174 2.015 2.015 0 00-.581-.077c-.213 0-.42.048-.623.143a2.034 2.034 0 00-.553.386c-.167.162-.31.35-.43.564-.121.213-.203.436-.244.667l1.099.341zm.967 10.456l1.822-.271c.023-.622.039-1.27.046-1.945.006-.674.01-1.274.01-1.798v-.4c-.001-.407-.004-.835-.007-1.283a33.524 33.524 0 00-.083-2.188 30.901 30.901 0 00-.223-2.105l-1.788.564c.116 1.118.213 2.61.292 4.48a38.338 38.338 0 01.028 2.282c-.014.82-.046 1.709-.097 2.664zm-8.254-10.085l5.342-2.355-.312-.7-4.984 2.168-.046.887zm1.436 10.134c.45 0 .88-.076 1.29-.226a3.35 3.35 0 001.082-.64 3.04 3.04 0 001.016-2.327 3.97 3.97 0 00-.094-.814 5.324 5.324 0 00-.299-.94 6.989 6.989 0 00-.539-1.025 7.906 7.906 0 00-.814-1.068 11.255 11.255 0 00-.63-.647 15.12 15.12 0 00-.622-.557l4.536-1.962-.703-1.655-5.537 2.462-.188 1.663c.44.404.852.8 1.234 1.19.383.39.716.768.999 1.137.283.369.505.728.668 1.078.162.35.243.692.243 1.026 0 .255-.044.47-.132.644a1.21 1.21 0 01-.362.431c-.153.114-.331.2-.536.261-.204.06-.42.104-.646.132a6.888 6.888 0 01-.707.049 37.11 37.11 0 01-.706.007h-.87v1.78h2.317zm-4.66 4.41l1.106-1.342a2.346 2.346 0 01-.21-.265 1.162 1.162 0 01-.198-.518 2.333 2.333 0 01-.017-.296c0-.236.05-.473.15-.71.1-.236.233-.45.4-.64s.356-.344.567-.462c.21-.118.428-.177.65-.177h.174v-1.781h-.14c-.259 0-.52.046-.782.139a3.205 3.205 0 00-.751.386 4.026 4.026 0 00-.668.58 3.757 3.757 0 00-.852 1.507c-.07.257-.104.502-.104.734 0 .056.002.111.007.167a4.43 4.43 0 01-.303-.39 16.96 16.96 0 01-.355-.521c-.118-.181-.228-.359-.33-.533a4.182 4.182 0 01-.223-.42 3.484 3.484 0 001.106-.508c.334-.232.628-.5.88-.804.253-.304.462-.632.626-.984.165-.353.282-.705.352-1.058a2.95 2.95 0 00.041-.758 3.486 3.486 0 00-.462-1.447 2.67 2.67 0 00-.442-.57 1.984 1.984 0 00-.54-.38 1.399 1.399 0 00-.6-.135h-.029c-.287.005-.56.09-.82.257a3.1 3.1 0 00-.724.661 5.27 5.27 0 00-.602.936 8.116 8.116 0 00-.744 2.167c-.067.357-.101.682-.101.974h-.918v1.78h1.238a7.534 7.534 0 001.36 2.463c.3.362.637.704 1.012 1.026.376.323.79.63 1.245.922zm-2.38-6.17h-.014v-.112c0-.148.014-.317.042-.507.037-.232.09-.472.16-.72a7.86 7.86 0 01.247-.738c.095-.243.196-.465.303-.664.106-.2.217-.368.33-.505.114-.136.222-.221.324-.253.11.06.213.143.306.25a1.726 1.726 0 01.376.769c.027.137.041.265.041.386v.104a1.813 1.813 0 01-.223.741 2.49 2.49 0 01-1.158 1.082 1.751 1.751 0 01-.734.167zm-8.494 6.295c.316 0 .667-.024 1.054-.073.388-.048.78-.126 1.18-.233a7.87 7.87 0 001.168-.414c.38-.169.72-.375 1.02-.619.298-.243.543-.526.733-.848a2.33 2.33 0 00.313-1.096 2.408 2.408 0 00-.1-.581 1.898 1.898 0 00-.373-.671h1.301v-1.781H22.79l-.237 1.739c.31.056.624.109.94.16.315.051.632.13.952.236.218.084.422.17.612.261.19.09.356.178.498.261.141.084.253.16.334.226.08.068.121.117.121.15 0 .2-.08.373-.24.522-.16.148-.366.278-.619.39a4.949 4.949 0 01-.845.277c-.31.075-.613.135-.908.181a10.11 10.11 0 01-1.38.126c-.219 0-.475-.006-.77-.018a5.772 5.772 0 01-.897-.108 3.589 3.589 0 01-.866-.288 1.814 1.814 0 01-.682-.567 2.901 2.901 0 01-.46-1.607c.001-.279.015-.568.043-.87.028-.301.078-.624.15-.967.072-.343.17-.715.295-1.116.126-.402.283-.839.473-1.312l-1.433-.66c-.2.477-.366.922-.5 1.335a14.15 14.15 0 00-.331 1.172c-.086.369-.153.72-.202 1.054-.048.334-.087.661-.115.981-.013.167-.02.33-.02.487 0 .594.097 1.125.292 1.593.24.598.6 1.096 1.078 1.492.478.397 1.055.694 1.732.89a7.888 7.888 0 002.212.296z"/></g><rect width="95" height="39" x=".5" y=".5" stroke="#000000" stroke-opacity=".48" rx="4"/><path fill="#000000" fill-opacity=".56" fill-rule="nonzero" d="M68.108 24.195l1.822-.278c.019-.362.038-.75.056-1.166.019-.415.033-.862.042-1.342a103.022 103.022 0 00.007-3.37c-.01-.77-.037-1.558-.084-2.362a35.164 35.164 0 00-.243-2.536l-1.788.584c.079.765.141 1.567.188 2.404.046.837.088 1.73.125 2.681.014.413.02.856.02 1.33 0 1.172-.048 2.524-.145 4.055zm-4.077-7.59l1.336-1.335-1.336-1.33-1.328 1.33 1.328 1.335zm-1.113 7.604c.524 0 1.005-.057 1.444-.17.438-.114.815-.29 1.13-.53.316-.238.561-.544.738-.918.176-.373.264-.82.264-1.339 0-.301-.028-.61-.084-.925a9.08 9.08 0 00-.219-.943c-.09-.313-.193-.618-.31-.914a22.29 22.29 0 00-.347-.842l-1.607.793a11.492 11.492 0 01.856 2.337c.05.218.076.388.076.508 0 .255-.059.46-.177.612-.119.153-.27.27-.456.352a2.133 2.133 0 01-.623.16c-.23.025-.453.038-.67.038h-1.12v1.78h1.105zm-7.555.132c.436 0 .899-.022 1.388-.066.49-.044.98-.131 1.472-.261a2.8 2.8 0 00.768.156c.309.026.711.039 1.207.039h1.892v-1.781h-1.3a3.172 3.172 0 00.598-1.677v-.125c0-.385-.074-.747-.223-1.085a3.088 3.088 0 00-.706-.974 3.303 3.303 0 00-1.047-.654 3.357 3.357 0 00-1.245-.236c-.339 0-.673.039-1.002.118-.33.079-.648.19-.956.334a6.414 6.414 0 00-.898.511 7.95 7.95 0 00-.831.65 8.268 8.268 0 00-.616.672c-.187.23-.358.453-.511.671a9.264 9.264 0 00-.403.623c-.116.197-.216.374-.3.532a.967.967 0 01-.125-.198 1.606 1.606 0 01-.094-.244 1.986 1.986 0 01-.08-.525c0-.13.006-.248.018-.355a2.186 2.186 0 01.143-.595 5.87 5.87 0 01.131-.31l-1.613-.535c-.093.246-.17.5-.233.762a21.81 21.81 0 01-.199.769c-.07.25-.152.489-.247.716-.095.227-.219.427-.372.598a1.63 1.63 0 01-.57.407c-.228.1-.51.15-.849.15h-.195v1.78h.23c.58 0 1.095-.083 1.548-.25.452-.167.859-.447 1.22-.841.163.204.344.382.543.535.2.153.449.28.748.383.299.102.667.178 1.103.23.435.05.971.076 1.606.076zm.195-1.823c-.125 0-.25-.002-.375-.007-.413-.009-.796-.037-1.148-.083.208-.367.44-.713.695-1.04.256-.327.54-.62.853-.88.313-.26.656-.48 1.03-.661.373-.18.782-.31 1.227-.39a2.331 2.331 0 01.647.007c.227.042.442.115.643.22.202.104.375.238.519.403.143.165.234.354.271.567a1.378 1.378 0 01-.386.769 2.623 2.623 0 01-.797.542c-.32.146-.678.261-1.074.345a8.82 8.82 0 01-1.134.167c-.36.027-.683.041-.97.041zM42.48 29.412a13.502 13.502 0 001.722-1.022 9.945 9.945 0 001.51-1.287 7.3 7.3 0 001.116-1.506 4.36 4.36 0 00.535-1.68c.218.139.419.222.602.25.183.028.335.042.456.042h.216l.006-1.781h-.215a1.19 1.19 0 01-.546-.122c-.16-.081-.313-.225-.46-.431a4.59 4.59 0 01-.445-.842 18.47 18.47 0 01-.497-1.346l-1.67.696c.089.264.186.536.293.817.106.28.206.558.299.831.092.274.169.537.23.79.06.253.09.483.09.692 0 .292-.055.577-.164.856-.109.278-.257.55-.445.814a5.05 5.05 0 01-.668.758 9.915 9.915 0 01-.831.696c-.297.222-.609.43-.936.626-.327.194-.652.375-.977.542l.779 1.607zm-2.254-5.217l1.823-.278c.018-.362.037-.75.055-1.166.019-.415.033-.862.042-1.342a103.023 103.023 0 00.007-3.37c-.01-.77-.037-1.558-.083-2.362a35.164 35.164 0 00-.244-2.536l-1.788.584c.08.765.142 1.567.188 2.404.046.837.088 1.73.125 2.681.014.413.021.856.021 1.33 0 1.172-.049 2.524-.146 4.055zm-4.598-9.155l1.335-1.336-1.335-1.328-1.329 1.328 1.329 1.336zm-3.18 9.169c.539 0 1.06-.019 1.562-.056a9.31 9.31 0 001.416-.209c.44-.102.843-.24 1.207-.417.364-.176.677-.404.94-.682.261-.278.465-.612.611-1.002.146-.39.22-.848.22-1.377 0-.31-.032-.639-.094-.984a6.307 6.307 0 00-.275-1.02 5.76 5.76 0 00-.445-.952 3.98 3.98 0 00-.606-.797 2.74 2.74 0 00-.758-.546 2.035 2.035 0 00-.897-.202c-.26 0-.501.048-.724.143a2.247 2.247 0 00-.612.39 2.982 2.982 0 00-.497.573c-.146.218-.27.45-.369.696a4.13 4.13 0 00-.303 1.516c0 .418.083.783.247 1.096.165.313.386.574.665.783.278.208.601.365.97.47a4.26 4.26 0 001.165.156h.71c-.135.097-.335.185-.602.264a7.208 7.208 0 01-.95.202c-.366.056-.772.098-1.217.129-.445.03-.909.045-1.391.045-.626 0-1.214-.03-1.764-.087a10.1 10.1 0 01-1.467-.254 4.525 4.525 0 01-1.072-.407c-.285-.16-.479-.344-.58-.553a.707.707 0 01-.063-.306c0-.06.004-.123.014-.188.028-.195.08-.396.156-.605a4.57 4.57 0 01.532-1.03l-1.294-1.085c-.11.209-.223.42-.337.633a6.769 6.769 0 00-.306.657 4.8 4.8 0 00-.22.693 3.21 3.21 0 00-.083.737c0 .506.09.944.272 1.315.18.37.428.69.74.956.314.267.681.485 1.103.654.422.17.874.302 1.357.397.482.095.983.16 1.502.198.52.037 1.032.056 1.538.056zm3.68-4.196h-.125a6.206 6.206 0 01-.929-.056 1.684 1.684 0 01-.444-.117.71.71 0 01-.303-.24.687.687 0 01-.111-.407v-.028c0-.167.034-.336.104-.508.07-.176.16-.334.271-.473.112-.139.228-.245.348-.32a.632.632 0 01.32-.111c.023 0 .047.002.07.007a.78.78 0 01.532.278c.155.172.29.375.403.609.114.234.209.475.286.723.076.249.135.456.177.623a8.876 8.876 0 01-.6.02z"/></g></g></g></g></g></svg>