<svg xmlns="http://www.w3.org/2000/svg" width="200" height="200"><g fill="none" fill-rule="evenodd"><path d="M0 0h200v200H0z"/><g fill="#EA475B" fill-rule="nonzero"><path d="M80.5 127.8a.2.2 0 01.193.147l.007.053v2a.2.2 0 01-.393.053L80.3 130v-2c0-.11.09-.2.2-.2zm39 0a.2.2 0 01.193.147l.007.053v2a.2.2 0 01-.393.053L119.3 130v-2c0-.11.09-.2.2-.2z"/><path d="M119.5 128.8a.2.2 0 01.053.393l-.053.007h-39a.2.2 0 01-.053-.393l.053-.007h39z"/></g><path fill="#EA475B" fill-rule="nonzero" d="M99.109 140v-.95h.53v-.57h-.53v-2.746h-.735l-1.84 2.883.02.434h1.843V140h.712zm-.712-1.52h-1.116l1.063-1.688.053-.094v1.781zm3.103 1.579c.468 0 .818-.156 1.047-.468.23-.311.344-.774.344-1.387v-.738c-.006-.596-.123-1.043-.353-1.342-.23-.299-.577-.448-1.044-.448-.47 0-.821.153-1.05.46-.23.306-.345.766-.345 1.38v.738c.006.596.126 1.045.36 1.349.233.304.58.456 1.04.456zm0-.569a.56.56 0 01-.525-.293c-.111-.195-.167-.492-.167-.89v-.967c.006-.375.064-.651.173-.828.11-.177.28-.265.513-.265.238 0 .412.093.521.28.11.186.164.48.164.88v.964c-.005.385-.063.668-.172.848-.11.18-.279.271-.507.271z"/><path d="M80 120h96v8H80zM120 80h8v40h-8z"/><g fill="#EA475B" fill-rule="nonzero"><path d="M130 80.8a.2.2 0 01.053.393L130 81.2h-2a.2.2 0 01-.053-.393L128 80.8h2zm0 38a.2.2 0 01.053.393l-.053.007h-2a.2.2 0 01-.053-.393l.053-.007h2z"/><path d="M129 80.8a.2.2 0 01.193.147l.007.053v38a.2.2 0 01-.393.053L128.8 119V81c0-.11.09-.2.2-.2z"/></g><path fill="#EA475B" fill-rule="nonzero" d="M136.728 102v-.95h.53v-.57h-.53v-2.746h-.736l-1.84 2.883.02.434h1.844V102h.712zm-.712-1.52h-1.117l1.064-1.688.053-.094v1.781zm3.102 1.579c.469 0 .818-.156 1.048-.468.229-.311.344-.774.344-1.387v-.738c-.006-.596-.124-1.043-.353-1.342-.23-.299-.578-.448-1.045-.448-.47 0-.82.153-1.05.46-.23.306-.344.766-.344 1.38v.738c.006.596.125 1.045.359 1.349.233.304.58.456 1.041.456zm0-.569a.56.56 0 01-.524-.293c-.112-.195-.167-.492-.167-.89v-.967c.006-.375.063-.651.173-.828.109-.177.28-.265.512-.265.239 0 .412.093.522.28.11.186.164.48.164.88v.964c-.006.385-.064.668-.173.848-.11.18-.278.271-.507.271z"/><g fill="#EA475B" fill-rule="nonzero"><path d="M110.5 73.8a.2.2 0 01.193.147l.007.053v2a.2.2 0 01-.393.053L110.3 76v-2c0-.11.09-.2.2-.2zm9 0a.2.2 0 01.193.147l.007.053v2a.2.2 0 01-.393.053L119.3 76v-2c0-.11.09-.2.2-.2z"/><path d="M119.5 74.8a.2.2 0 01.053.393l-.053.007h-9a.2.2 0 01-.053-.393l.053-.007h9z"/></g><path fill="#EA475B" fill-rule="nonzero" d="M113.524 72v-4.28h-.09l-1.664.612v.6l1.045-.357V72h.71zm2.872.059c.468 0 .817-.156 1.047-.468.23-.311.344-.774.344-1.387v-.738c-.006-.596-.123-1.043-.353-1.342-.23-.299-.578-.448-1.044-.448-.471 0-.821.153-1.05.46-.23.306-.345.766-.345 1.38v.738c.006.596.126 1.045.359 1.349.233.304.58.456 1.042.456zm0-.569a.56.56 0 01-.525-.293c-.111-.195-.167-.492-.167-.89v-.967c.006-.375.064-.651.173-.828.11-.177.28-.265.513-.265.238 0 .412.093.521.28.11.186.164.48.164.88v.964c-.006.385-.063.668-.173.848-.109.18-.278.271-.506.271z"/><path d="M110 76h10v4h-10z"/><g><path d="M76 80h4v10h-4z"/><g fill="#EA475B" fill-rule="nonzero"><path d="M75 80.3a.2.2 0 01.193.147l.007.053v8.6a.2.2 0 01-.393.053L74.8 89.1v-8.6c0-.11.09-.2.2-.2z"/><path d="M76 80.3a.2.2 0 01.053.393L76 80.7h-2a.2.2 0 01-.053-.393L74 80.3h2zm0 8.6a.2.2 0 01.053.393L76 89.3h-2a.2.2 0 01-.053-.393L74 88.9h2z"/></g><path fill="#EA475B" fill-rule="nonzero" d="M68.427 87v-4.28h-.091l-1.664.612v.6l1.046-.357V87h.709zm2.87.059c.47 0 .819-.156 1.048-.468.23-.311.344-.774.344-1.387v-.738c-.005-.596-.123-1.043-.353-1.342-.23-.299-.577-.448-1.044-.448-.47 0-.82.153-1.05.46-.23.306-.345.766-.345 1.38v.738c.006.596.126 1.045.36 1.349.233.304.58.456 1.04.456zm0-.569a.56.56 0 01-.524-.293c-.11-.195-.167-.492-.167-.89v-.967c.006-.375.064-.651.173-.828.11-.177.28-.265.513-.265.238 0 .412.093.521.28.11.186.165.48.165.88v.964c-.006.385-.064.668-.173.848-.11.18-.279.271-.507.271z"/></g><g><path d="M76 110h4v10h-4z"/><g fill="#EA475B" fill-rule="nonzero"><path d="M75 110.3a.2.2 0 01.193.147l.007.053v8.6a.2.2 0 01-.393.053l-.007-.053v-8.6c0-.11.09-.2.2-.2z"/><path d="M76 110.3a.2.2 0 01.053.393L76 110.7h-2a.2.2 0 01-.053-.393L74 110.3h2zm0 8.6a.2.2 0 01.053.393L76 119.3h-2a.2.2 0 01-.053-.393L74 118.9h2z"/></g><path fill="#EA475B" fill-rule="nonzero" d="M68.427 117v-4.28h-.091l-1.664.612v.6l1.046-.357V117h.709zm2.87.059c.47 0 .819-.156 1.048-.468.23-.311.344-.774.344-1.387v-.738c-.005-.596-.123-1.043-.353-1.342-.23-.299-.577-.448-1.044-.448-.47 0-.82.153-1.05.46-.23.306-.345.766-.345 1.38v.738c.006.596.126 1.045.36 1.349.233.304.58.456 1.04.456zm0-.569a.56.56 0 01-.524-.293c-.11-.195-.167-.492-.167-.89v-.967c.006-.375.064-.651.173-.828.11-.177.28-.265.513-.265.238 0 .412.093.521.28.11.186.165.48.165.88v.964c-.006.385-.064.668-.173.848-.11.18-.279.271-.507.271z"/></g><g fill-rule="nonzero" transform="translate(90 90)"><circle cx="10" cy="10" r="10" fill="#FFF"/><circle cx="10" cy="10" r="6" fill="#EA475B" fill-opacity=".12"/><path fill="#EA475B" d="M10 0c5.523 0 10 4.477 10 10s-4.477 10-10 10S0 15.523 0 10 4.477 0 10 0zm0 .2C4.588.2.2 4.588.2 10c0 5.412 4.388 9.8 9.8 9.8 5.412 0 9.8-4.388 9.8-9.8 0-5.412-4.388-9.8-9.8-9.8z"/><path fill="#EA475B" d="M9.852 11v-.379h-1.32l.695-.744c.182-.198.313-.375.393-.53a.976.976 0 00.12-.447c0-.244-.08-.436-.239-.575-.16-.138-.377-.208-.653-.208-.192 0-.36.039-.507.115a.814.814 0 00-.338.324.93.93 0 00-.118.467h.474c0-.162.043-.29.127-.384a.457.457 0 01.358-.141c.129 0 .231.042.307.125a.467.467 0 01.115.328.619.619 0 01-.087.308c-.058.102-.156.23-.292.382l-.948 1.033V11h1.913zm1.287.04c.312 0 .545-.105.698-.312.153-.208.23-.516.23-.925V9.31c-.005-.398-.083-.696-.236-.895-.153-.2-.385-.299-.696-.299-.314 0-.547.102-.7.307-.153.204-.23.51-.23.92v.492c.004.397.084.697.24.9.155.202.386.303.694.303zm0-.38a.374.374 0 01-.35-.195c-.074-.13-.111-.328-.111-.594v-.644c.004-.25.042-.434.115-.552.073-.118.187-.177.342-.177.159 0 .275.062.347.187.073.124.11.32.11.586v.643c-.004.257-.043.445-.115.565a.367.367 0 01-.338.181z"/></g><g><g fill="#EA475B" fill-rule="nonzero"><path d="M80.5 73.8a.2.2 0 01.193.147L80.7 74v2a.2.2 0 01-.393.053L80.3 76v-2c0-.11.09-.2.2-.2zm9 0a.2.2 0 01.193.147L89.7 74v2a.2.2 0 01-.393.053L89.3 76v-2c0-.11.09-.2.2-.2z"/><path d="M89.5 74.8a.2.2 0 01.053.393l-.053.007h-9a.2.2 0 01-.053-.393l.053-.007h9z"/></g><path fill="#EA475B" fill-rule="nonzero" d="M83.524 72v-4.28h-.09l-1.664.612v.6l1.045-.357V72h.71zm2.872.059c.468 0 .817-.156 1.047-.468.23-.311.344-.774.344-1.387v-.738c-.006-.596-.123-1.043-.353-1.342-.23-.299-.578-.448-1.044-.448-.471 0-.821.153-1.05.46-.23.306-.345.766-.345 1.38v.738c.006.596.126 1.045.359 1.349.233.304.58.456 1.042.456zm0-.569a.56.56 0 01-.525-.293c-.111-.195-.167-.492-.167-.89v-.967c.006-.375.064-.651.173-.828.11-.177.28-.265.513-.265.238 0 .412.093.521.28.11.186.164.48.164.88v.964c-.006.385-.063.668-.173.848-.109.18-.278.271-.506.271z"/><path d="M80 76h10v4H80z"/></g></g></svg>