<svg width="200" height="205" viewBox="0 0 200 205" fill="none" xmlns="http://www.w3.org/2000/svg">
<path d="M158 82.82C158.048 82.8199 158.095 82.8378 158.132 82.8705C158.169 82.9032 158.192 82.9483 158.199 82.9976C158.205 83.0469 158.194 83.0969 158.167 83.1383C158.14 83.1798 158.1 83.2098 158.053 83.2228L158 83.23H156C155.951 83.2301 155.905 83.2122 155.868 83.1795C155.831 83.1469 155.808 83.1017 155.801 83.0524C155.795 83.0031 155.806 82.9531 155.833 82.9117C155.86 82.8702 155.9 82.8402 155.947 82.8272L156 82.82H158ZM158 121.77C158.048 121.77 158.095 121.788 158.132 121.82C158.169 121.853 158.192 121.898 158.199 121.948C158.205 121.997 158.194 122.047 158.167 122.088C158.14 122.13 158.1 122.16 158.053 122.173L158 122.18H156C155.951 122.18 155.905 122.162 155.868 122.13C155.831 122.097 155.808 122.052 155.801 122.002C155.795 121.953 155.806 121.903 155.833 121.862C155.86 121.82 155.9 121.79 155.947 121.777L156 121.77H158Z" fill="#EA475B"/>
<path d="M157 82.82C157.044 82.82 157.086 82.8347 157.121 82.8619C157.156 82.8891 157.181 82.9274 157.193 82.9707L157.2 83.025V121.975C157.2 122.025 157.183 122.073 157.151 122.11C157.119 122.148 157.075 122.172 157.027 122.179C156.979 122.185 156.93 122.174 156.889 122.146C156.849 122.119 156.82 122.077 156.807 122.029L156.8 121.975V83.025C156.8 82.9123 156.89 82.82 157 82.82Z" fill="#EA475B"/>
<path d="M164.728 104.55V103.576H165.258V102.992H164.728V100.177H163.992L162.152 103.132L162.172 103.577H164.016V104.55H164.728ZM164.016 102.992H162.899L163.963 101.262L164.016 101.165V102.991V102.992ZM167.118 104.61C167.587 104.61 167.936 104.451 168.166 104.131C168.395 103.812 168.51 103.337 168.51 102.709V101.953C168.504 101.342 168.386 100.884 168.157 100.577C167.927 100.271 167.579 100.118 167.112 100.118C166.642 100.118 166.292 100.275 166.062 100.589C165.832 100.903 165.718 101.375 165.718 102.004V102.76C165.724 103.371 165.843 103.831 166.077 104.143C166.31 104.455 166.657 104.61 167.118 104.61ZM167.118 104.027C167.012 104.033 166.906 104.008 166.813 103.955C166.721 103.902 166.645 103.823 166.594 103.727C166.482 103.527 166.427 103.223 166.427 102.815V101.823C166.433 101.439 166.49 101.156 166.6 100.975C166.709 100.793 166.88 100.703 167.112 100.703C167.351 100.703 167.524 100.799 167.634 100.99C167.744 101.181 167.798 101.482 167.798 101.892V102.88C167.792 103.275 167.734 103.565 167.625 103.749C167.515 103.934 167.347 104.027 167.118 104.027V104.027Z" fill="#EA475B"/>
<path d="M52.5 130.995C52.5438 130.995 52.5865 131.01 52.6213 131.037C52.6562 131.064 52.6814 131.102 52.693 131.146L52.7 131.2V133.25C52.7001 133.3 52.6826 133.348 52.6507 133.385C52.6189 133.423 52.5748 133.447 52.5267 133.454C52.4786 133.46 52.4299 133.449 52.3894 133.421C52.349 133.394 52.3197 133.352 52.307 133.304L52.3 133.25V131.2C52.3 131.087 52.39 130.995 52.5 130.995ZM147.5 130.995C147.544 130.995 147.586 131.01 147.621 131.037C147.656 131.064 147.681 131.102 147.693 131.146L147.7 131.2V133.25C147.7 133.3 147.683 133.348 147.651 133.385C147.619 133.423 147.575 133.447 147.527 133.454C147.479 133.46 147.43 133.449 147.389 133.421C147.349 133.394 147.32 133.352 147.307 133.304L147.3 133.25V131.2C147.3 131.087 147.39 130.995 147.5 130.995Z" fill="#EA475B"/>
<path d="M147.5 132.02C147.549 132.02 147.595 132.038 147.632 132.07C147.669 132.103 147.692 132.148 147.699 132.198C147.705 132.247 147.694 132.297 147.667 132.338C147.64 132.38 147.6 132.41 147.553 132.423L147.5 132.43H52.5C52.4515 132.43 52.4046 132.412 52.368 132.38C52.3314 132.347 52.3077 132.302 52.3012 132.252C52.2948 132.203 52.306 132.153 52.3328 132.112C52.3596 132.07 52.4002 132.04 52.447 132.027L52.5 132.02H147.5Z" fill="#EA475B"/>
<path d="M82.241 143.5V141.146C82.361 140.908 82.563 140.788 82.848 140.788C83.218 140.788 83.409 140.98 83.418 141.362V143.5H84.131L84.128 141.272C84.164 141.136 84.2389 141.014 84.343 140.922C84.4552 140.83 84.5963 140.782 84.74 140.789C84.943 140.789 85.089 140.836 85.177 140.932C85.265 141.029 85.309 141.179 85.309 141.386V143.5H86.021V141.365C86.017 140.979 85.929 140.686 85.758 140.489C85.588 140.29 85.328 140.191 84.978 140.191C84.56 140.191 84.235 140.357 84.005 140.689C83.849 140.357 83.559 140.19 83.135 140.19C82.748 140.19 82.443 140.324 82.221 140.59L82.201 140.252H81.529V143.5H82.241ZM87.154 139.792C87.284 139.792 87.383 139.755 87.454 139.682C87.4887 139.646 87.5159 139.603 87.5339 139.556C87.552 139.508 87.5605 139.458 87.559 139.407C87.559 139.294 87.523 139.202 87.453 139.127C87.383 139.054 87.283 139.017 87.154 139.017C87.025 139.017 86.926 139.054 86.857 139.127C86.8224 139.165 86.7954 139.209 86.7775 139.257C86.7597 139.305 86.7513 139.356 86.753 139.407C86.753 139.517 86.788 139.609 86.857 139.682C86.927 139.755 87.025 139.792 87.154 139.792ZM87.51 143.5V140.251H86.798V143.5H87.51ZM88.986 143.5V141.188C89.127 140.921 89.341 140.788 89.628 140.788C89.825 140.788 89.968 140.838 90.054 140.938C90.141 141.036 90.184 141.189 90.184 141.395V143.5H90.897V141.353C90.885 140.578 90.549 140.19 89.889 140.19C89.508 140.19 89.2 140.336 88.966 140.626L88.946 140.251H88.274V143.5H88.986ZM93.003 141.936V141.346H91.465V141.936H93.003ZM94.774 143.5L95.442 141.269L96.122 143.5H96.708L97.572 140.251H96.878L96.374 142.494L95.714 140.251H95.179L94.529 142.47L94.016 140.251H93.321L94.188 143.5H94.774V143.5ZM98.451 139.792C98.581 139.792 98.68 139.755 98.75 139.682C98.7847 139.646 98.8119 139.603 98.8299 139.556C98.848 139.508 98.8565 139.458 98.855 139.407C98.855 139.294 98.82 139.202 98.75 139.127C98.68 139.054 98.58 139.017 98.451 139.017C98.322 139.017 98.223 139.054 98.154 139.127C98.1194 139.165 98.0924 139.209 98.0746 139.257C98.0567 139.305 98.0484 139.356 98.05 139.407C98.05 139.517 98.084 139.609 98.154 139.682C98.224 139.755 98.322 139.792 98.451 139.792ZM98.806 143.5V140.251H98.094V143.5H98.806ZM100.692 143.56C101.048 143.56 101.332 143.427 101.545 143.164L101.58 143.5H102.225V138.887H101.513V140.551C101.412 140.433 101.286 140.339 101.145 140.277C101.004 140.214 100.851 140.185 100.698 140.19C100.318 140.19 100.014 140.342 99.788 140.645C99.561 140.949 99.448 141.351 99.448 141.852C99.448 142.378 99.562 142.795 99.792 143.1C100.021 143.408 100.322 143.56 100.692 143.56V143.56ZM100.874 142.966C100.77 142.97 100.667 142.947 100.574 142.898C100.481 142.85 100.402 142.777 100.345 142.688C100.221 142.503 100.159 142.244 100.159 141.914C100.159 141.538 100.222 141.256 100.347 141.069C100.405 140.979 100.484 140.905 100.577 140.856C100.671 140.807 100.775 140.783 100.88 140.788C101.17 140.788 101.382 140.918 101.513 141.178V142.566C101.457 142.69 101.367 142.795 101.253 142.866C101.139 142.937 101.007 142.972 100.874 142.966V142.966ZM103.968 143.56C104.118 143.56 104.274 143.537 104.437 143.491V142.927C104.353 142.946 104.27 142.957 104.187 142.957C104.064 142.957 103.979 142.929 103.931 142.875C103.883 142.818 103.859 142.729 103.859 142.605V140.791H104.419V140.251H103.859V139.461H103.147V140.251H102.626V140.791H103.147V142.632C103.147 143.251 103.421 143.56 103.967 143.56H103.968ZM105.664 143.5V141.178C105.723 141.057 105.814 140.956 105.928 140.887C106.041 140.818 106.171 140.784 106.303 140.789C106.486 140.789 106.625 140.835 106.72 140.928C106.815 141.021 106.862 141.179 106.862 141.404V143.5H107.574V141.377C107.564 140.586 107.222 140.19 106.546 140.19C106.19 140.19 105.896 140.329 105.664 140.605V138.887H104.952V143.5H105.664V143.5ZM108.723 140.984C108.855 140.984 108.958 140.946 109.03 140.871C109.066 140.834 109.094 140.789 109.113 140.74C109.132 140.692 109.141 140.639 109.139 140.587C109.141 140.534 109.132 140.48 109.113 140.431C109.094 140.381 109.066 140.335 109.03 140.297C108.958 140.22 108.855 140.182 108.723 140.182C108.667 140.178 108.611 140.187 108.559 140.207C108.506 140.226 108.458 140.257 108.418 140.297C108.382 140.335 108.354 140.381 108.336 140.431C108.317 140.481 108.308 140.534 108.31 140.587C108.31 140.703 108.347 140.798 108.42 140.873C108.461 140.911 108.509 140.941 108.561 140.96C108.613 140.979 108.668 140.987 108.723 140.984V140.984ZM108.723 143.533C108.855 143.533 108.958 143.496 109.03 143.42C109.066 143.383 109.094 143.339 109.113 143.29C109.131 143.241 109.14 143.189 109.139 143.137C109.141 143.084 109.132 143.031 109.113 142.981C109.094 142.931 109.066 142.886 109.03 142.847C108.958 142.77 108.855 142.731 108.723 142.731C108.667 142.728 108.611 142.736 108.559 142.756C108.506 142.776 108.458 142.807 108.418 142.847C108.382 142.886 108.354 142.931 108.336 142.981C108.317 143.031 108.308 143.084 108.31 143.137C108.31 143.253 108.347 143.348 108.42 143.422C108.461 143.46 108.509 143.49 108.561 143.509C108.613 143.528 108.668 143.536 108.723 143.533V143.533ZM111.989 143.518C112.679 143.512 113.197 143.302 113.545 142.887C113.893 142.473 114.066 141.872 114.066 141.083V140.878C114.066 140.328 113.94 139.889 113.688 139.56C113.437 139.232 113.096 139.068 112.666 139.068C112.391 139.068 112.148 139.132 111.939 139.263C111.73 139.393 111.569 139.575 111.456 139.809C111.343 140.044 111.286 140.305 111.286 140.593C111.286 141.032 111.397 141.385 111.62 141.655C111.843 141.924 112.142 142.059 112.517 142.059C112.835 142.059 113.113 141.93 113.352 141.671C113.324 142.092 113.198 142.402 112.974 142.604C112.749 142.805 112.427 142.909 112.007 142.915H111.904V143.518H111.989V143.518ZM112.666 141.489C112.57 141.491 112.475 141.47 112.389 141.425C112.303 141.381 112.229 141.316 112.174 141.236C112.051 141.068 111.989 140.846 111.989 140.573C111.989 140.308 112.05 140.089 112.172 139.917C112.226 139.834 112.299 139.768 112.385 139.722C112.471 139.677 112.566 139.654 112.663 139.656C112.868 139.656 113.035 139.755 113.164 139.95C113.293 140.147 113.357 140.406 113.357 140.728V141.013C113.294 141.155 113.194 141.276 113.067 141.362C112.949 141.444 112.809 141.488 112.666 141.488V141.489ZM116.199 143.559C116.613 143.559 116.948 143.422 117.203 143.147C117.458 142.872 117.585 142.512 117.585 142.068C117.585 141.638 117.476 141.286 117.258 141.013C117.041 140.742 116.743 140.605 116.366 140.605C116.011 140.605 115.719 140.728 115.49 140.974C115.535 140.575 115.677 140.265 115.915 140.047C116.153 139.828 116.472 139.717 116.87 139.711H116.958V139.106H116.885C116.201 139.106 115.677 139.324 115.313 139.759C114.949 140.192 114.767 140.794 114.767 141.56V141.81C114.767 142.333 114.899 142.754 115.164 143.077C115.428 143.399 115.774 143.56 116.199 143.56V143.559ZM116.193 142.971C116.091 142.972 115.99 142.946 115.9 142.895C115.809 142.845 115.733 142.773 115.678 142.684C115.545 142.493 115.478 142.236 115.478 141.911V141.689C115.535 141.543 115.634 141.417 115.761 141.329C115.889 141.241 116.039 141.194 116.193 141.194C116.4 141.194 116.566 141.277 116.691 141.443C116.816 141.609 116.879 141.824 116.879 142.089C116.879 142.353 116.817 142.566 116.694 142.728C116.636 142.807 116.56 142.87 116.473 142.912C116.386 142.955 116.29 142.975 116.194 142.971H116.193Z" fill="#EA475B"/>
<path d="M52.5 75.645C52.5438 75.645 52.5865 75.6597 52.6213 75.6869C52.6562 75.7141 52.6814 75.7524 52.693 75.7957L52.7 75.85V77.9C52.7001 77.9497 52.6826 77.9978 52.6507 78.0353C52.6189 78.0727 52.5748 78.0971 52.5267 78.1037C52.4786 78.1104 52.4299 78.0989 52.3894 78.0714C52.349 78.0439 52.3197 78.0023 52.307 77.9543L52.3 77.9V75.85C52.3 75.7373 52.39 75.645 52.5 75.645ZM67.5 75.645C67.5438 75.645 67.5865 75.6597 67.6213 75.6869C67.6562 75.7141 67.6814 75.7524 67.693 75.7957L67.7 75.85V77.9C67.7001 77.9497 67.6826 77.9978 67.6507 78.0353C67.6189 78.0727 67.5748 78.0971 67.5267 78.1037C67.4786 78.1104 67.4299 78.0989 67.3894 78.0714C67.349 78.0439 67.3197 78.0023 67.307 77.9543L67.3 77.9V75.85C67.3 75.7373 67.39 75.645 67.5 75.645Z" fill="#EA475B"/>
<path d="M67.5 76.67C67.5485 76.6699 67.5954 76.6878 67.632 76.7205C67.6685 76.7532 67.6923 76.7983 67.6988 76.8476C67.7052 76.8969 67.694 76.9469 67.6672 76.9883C67.6404 77.0298 67.5998 77.0598 67.553 77.0728L67.5 77.08H52.5C52.4515 77.0801 52.4046 77.0622 52.368 77.0295C52.3314 76.9969 52.3077 76.9517 52.3012 76.9024C52.2948 76.8531 52.306 76.8031 52.3328 76.7617C52.3596 76.7203 52.4002 76.6902 52.447 76.6772L52.5 76.67H67.5Z" fill="#EA475B"/>
<path d="M58.337 73.8V69.413H58.247L56.582 70.0403V70.6553L57.628 70.2894V73.8H58.337ZM61.275 73.8605C61.689 73.8605 62.024 73.7221 62.279 73.4474C62.534 73.1717 62.661 72.8119 62.661 72.3681C62.661 71.9376 62.552 71.586 62.334 71.3133C62.117 71.0417 61.819 70.9054 61.442 70.9054C61.087 70.9054 60.795 71.0284 60.566 71.2744C60.611 70.8747 60.753 70.5651 60.991 70.3468C61.229 70.1284 61.548 70.0167 61.946 70.0106H62.034V69.4058H61.961C61.277 69.4058 60.753 69.6241 60.389 70.0587C60.025 70.4923 59.843 71.094 59.843 71.8597V72.1098C59.843 72.6325 59.975 73.0538 60.24 73.3767C60.504 73.6985 60.85 73.8605 61.275 73.8605V73.8605ZM61.27 73.2711C61.1673 73.2718 61.0662 73.2459 60.976 73.1957C60.8857 73.1455 60.8094 73.0727 60.754 72.9841C60.621 72.7935 60.554 72.5362 60.554 72.2112V71.9888C60.6114 71.8424 60.7103 71.717 60.8379 71.6287C60.9655 71.5405 61.116 71.4934 61.27 71.4938C61.477 71.4938 61.643 71.5768 61.768 71.7428C61.893 71.9089 61.955 72.1241 61.955 72.3886C61.955 72.653 61.894 72.8662 61.771 73.0282C61.7127 73.107 61.6367 73.1702 61.5495 73.2125C61.4623 73.2548 61.3664 73.2749 61.27 73.2711V73.2711Z" fill="#EA475B"/>
<path d="M132.5 75.645C132.544 75.645 132.586 75.6597 132.621 75.6869C132.656 75.7141 132.681 75.7524 132.693 75.7957L132.7 75.85V77.9C132.7 77.9497 132.683 77.9978 132.651 78.0353C132.619 78.0727 132.575 78.0971 132.527 78.1037C132.479 78.1104 132.43 78.0989 132.389 78.0714C132.349 78.0439 132.32 78.0023 132.307 77.9543L132.3 77.9V75.85C132.3 75.7373 132.39 75.645 132.5 75.645ZM147.5 75.645C147.544 75.645 147.586 75.6597 147.621 75.6869C147.656 75.7141 147.681 75.7524 147.693 75.7957L147.7 75.85V77.9C147.7 77.9497 147.683 77.9978 147.651 78.0353C147.619 78.0727 147.575 78.0971 147.527 78.1037C147.479 78.1104 147.43 78.0989 147.389 78.0714C147.349 78.0439 147.32 78.0023 147.307 77.9543L147.3 77.9V75.85C147.3 75.7373 147.39 75.645 147.5 75.645Z" fill="#EA475B"/>
<path d="M147.5 76.67C147.548 76.6699 147.595 76.6878 147.632 76.7205C147.669 76.7532 147.692 76.7983 147.699 76.8476C147.705 76.8969 147.694 76.9469 147.667 76.9883C147.64 77.0298 147.6 77.0598 147.553 77.0728L147.5 77.08H132.5C132.451 77.0801 132.405 77.0622 132.368 77.0295C132.331 76.9969 132.308 76.9517 132.301 76.9024C132.295 76.8531 132.306 76.8031 132.333 76.7617C132.36 76.7203 132.4 76.6902 132.447 76.6772L132.5 76.67H147.5Z" fill="#EA475B"/>
<path d="M138.337 73.8V69.413H138.247L136.582 70.0403V70.6553L137.628 70.2894V73.8H138.337ZM141.275 73.8605C141.689 73.8605 142.024 73.7221 142.279 73.4474C142.534 73.1717 142.661 72.8119 142.661 72.3681C142.661 71.9376 142.552 71.586 142.334 71.3133C142.117 71.0417 141.819 70.9054 141.442 70.9054C141.087 70.9054 140.795 71.0284 140.566 71.2744C140.611 70.8747 140.753 70.5651 140.991 70.3468C141.229 70.1284 141.548 70.0167 141.946 70.0106H142.034V69.4058H141.961C141.277 69.4058 140.753 69.6241 140.389 70.0587C140.025 70.4923 139.843 71.094 139.843 71.8597V72.1098C139.843 72.6325 139.975 73.0538 140.24 73.3767C140.504 73.6985 140.85 73.8605 141.275 73.8605ZM141.27 73.2711C141.167 73.2718 141.066 73.2459 140.976 73.1957C140.886 73.1455 140.809 73.0727 140.754 72.9841C140.621 72.7935 140.554 72.5362 140.554 72.2112V71.9888C140.611 71.8424 140.71 71.717 140.838 71.6287C140.966 71.5405 141.116 71.4934 141.27 71.4938C141.477 71.4938 141.643 71.5768 141.768 71.7428C141.893 71.9089 141.955 72.1241 141.955 72.3886C141.955 72.653 141.894 72.8662 141.771 73.0282C141.713 73.107 141.637 73.1702 141.549 73.2125C141.462 73.2548 141.366 73.2749 141.27 73.2711V73.2711Z" fill="#EA475B"/>
<path d="M83 161.54C75.6 161.54 69.6 167.69 69.6 175.275C69.6 182.86 75.6 189.01 83 189.01C90.4 189.01 96.4 182.86 96.4 175.275C96.4 167.69 90.4 161.54 83 161.54ZM83 161.95C90.18 161.95 96 167.916 96 175.275C96 182.635 90.18 188.6 83 188.6C75.82 188.6 70 182.635 70 175.275C70 167.916 75.82 161.95 83 161.95Z" fill="#000000" fill-opacity="0.12"/>
<path d="M84 170.15C85.0609 170.15 86.0783 170.582 86.8284 171.351C87.5786 172.12 88 173.163 88 174.25V187.578C86.4158 188.255 84.7162 188.602 83 188.6C75.82 188.6 70 182.635 70 175.275C70 173.459 70.354 171.728 70.996 170.15H84Z" fill="#000000" fill-opacity="0.12"/>
<path d="M84 178.35C86.2091 178.35 88 176.514 88 174.25C88 171.986 86.2091 170.15 84 170.15C81.7909 170.15 80 171.986 80 174.25C80 176.514 81.7909 178.35 84 178.35Z" fill="#EA475B"/>
<path d="M101.91 177.385C102.295 177.385 102.597 177.236 102.817 176.938C103.037 176.64 103.147 176.237 103.147 175.733V175.692C103.147 175.163 103.037 174.751 102.815 174.457C102.595 174.163 102.291 174.016 101.905 174.016C101.557 174.016 101.28 174.139 101.075 174.388V172.712H100.363V177.325H101.008L101.043 176.973C101.25 177.248 101.539 177.385 101.91 177.385V177.385ZM101.731 176.791C101.421 176.791 101.202 176.65 101.075 176.367V175.029C101.2 174.752 101.417 174.614 101.725 174.614C101.956 174.614 102.132 174.702 102.253 174.878C102.374 175.055 102.435 175.319 102.435 175.672V175.764C102.431 176.108 102.368 176.366 102.247 176.536C102.189 176.619 102.111 176.686 102.021 176.731C101.931 176.776 101.831 176.797 101.731 176.792V176.791ZM105.086 177.385C105.379 177.385 105.637 177.316 105.861 177.177C106.084 177.04 106.256 176.844 106.376 176.593C106.496 176.34 106.556 176.054 106.556 175.733L106.554 175.562C106.532 175.096 106.388 174.721 106.122 174.44C105.855 174.157 105.508 174.015 105.08 174.015C104.791 174.015 104.535 174.084 104.313 174.221C104.087 174.361 103.906 174.566 103.793 174.81C103.667 175.078 103.604 175.373 103.609 175.671V175.707C103.609 176.215 103.744 176.622 104.012 176.926C104.281 177.233 104.639 177.385 105.086 177.385V177.385ZM105.086 176.802C104.977 176.807 104.868 176.783 104.769 176.734C104.671 176.684 104.586 176.61 104.523 176.518C104.389 176.33 104.321 176.067 104.321 175.733C104.321 175.357 104.39 175.074 104.526 174.885C104.588 174.795 104.671 174.721 104.768 174.672C104.865 174.622 104.972 174.598 105.08 174.602C105.189 174.598 105.298 174.623 105.396 174.673C105.494 174.723 105.578 174.798 105.641 174.89C105.779 175.082 105.848 175.342 105.848 175.671C105.848 176.041 105.781 176.322 105.647 176.514C105.585 176.607 105.501 176.682 105.403 176.732C105.305 176.783 105.196 176.807 105.086 176.802V176.802ZM107.869 177.325V175.103C107.982 174.847 108.202 174.718 108.529 174.718C108.628 174.718 108.725 174.727 108.819 174.742L108.821 174.057C108.74 174.027 108.655 174.013 108.569 174.016C108.265 174.016 108.026 174.157 107.854 174.44L107.837 174.076H107.157V177.325H107.869V177.325ZM110.379 177.385C110.735 177.385 111.019 177.252 111.232 176.989L111.268 177.325H111.912V172.712H111.2V174.376C111.099 174.258 110.973 174.164 110.833 174.102C110.692 174.039 110.539 174.01 110.386 174.015C110.005 174.015 109.701 174.167 109.475 174.47C109.248 174.774 109.135 175.176 109.135 175.677C109.135 176.203 109.25 176.62 109.479 176.925C109.709 177.233 110.009 177.385 110.379 177.385V177.385ZM110.562 176.791C110.458 176.796 110.354 176.772 110.261 176.724C110.168 176.675 110.089 176.602 110.032 176.513C109.909 176.328 109.847 176.069 109.847 175.739C109.847 175.363 109.909 175.081 110.034 174.894C110.092 174.804 110.171 174.73 110.264 174.681C110.358 174.632 110.462 174.608 110.567 174.613C110.858 174.613 111.069 174.743 111.2 175.003V176.391C111.144 176.515 111.054 176.619 110.94 176.69C110.827 176.762 110.695 176.797 110.562 176.791V176.791ZM114.051 177.385C114.314 177.385 114.552 177.331 114.764 177.225C114.976 177.117 115.146 176.966 115.272 176.773L114.889 176.397C114.798 176.525 114.678 176.629 114.539 176.7C114.4 176.77 114.247 176.805 114.092 176.802C113.985 176.806 113.879 176.787 113.779 176.747C113.679 176.706 113.589 176.646 113.513 176.569C113.36 176.412 113.273 176.2 113.251 175.932H115.322V175.638C115.322 175.121 115.205 174.721 114.969 174.439C114.734 174.157 114.4 174.015 113.969 174.015C113.697 174.015 113.451 174.087 113.23 174.228C113.01 174.372 112.838 174.57 112.716 174.825C112.59 175.096 112.528 175.394 112.533 175.694V175.784C112.533 176.269 112.673 176.657 112.953 176.948C113.233 177.24 113.6 177.385 114.051 177.385ZM114.619 175.397H113.263C113.296 175.147 113.373 174.952 113.493 174.812C113.552 174.743 113.625 174.688 113.706 174.652C113.788 174.616 113.877 174.598 113.966 174.602C114.163 174.602 114.317 174.663 114.429 174.789C114.54 174.914 114.604 175.099 114.619 175.343V175.397V175.397ZM116.585 177.325V175.103C116.698 174.847 116.918 174.718 117.245 174.718C117.344 174.718 117.44 174.727 117.535 174.742L117.537 174.057C117.456 174.027 117.371 174.013 117.285 174.016C116.98 174.016 116.742 174.157 116.57 174.44L116.553 174.076H115.873V177.325H116.585V177.325ZM119.365 175.761V175.171H117.827V175.761H119.365ZM120.663 177.325V175.103C120.776 174.847 120.996 174.718 121.323 174.718C121.422 174.718 121.519 174.727 121.613 174.742L121.615 174.057C121.534 174.027 121.449 174.013 121.363 174.016C121.059 174.016 120.82 174.157 120.648 174.44L120.631 174.076H119.951V177.325H120.663V177.325ZM123.042 177.385C123.37 177.385 123.647 177.263 123.874 177.022C123.897 177.162 123.924 177.262 123.956 177.325H124.683V177.274C124.603 177.099 124.563 176.867 124.563 176.575V175.109C124.557 174.762 124.443 174.494 124.223 174.302C124.002 174.112 123.706 174.015 123.335 174.015C123.091 174.015 122.87 174.059 122.671 174.149C122.486 174.226 122.324 174.351 122.201 174.512C122.09 174.654 122.029 174.831 122.028 175.013H122.74C122.74 174.884 122.792 174.779 122.896 174.696C123.011 174.609 123.151 174.565 123.294 174.571C123.481 174.571 123.621 174.622 123.713 174.723C123.805 174.825 123.851 174.958 123.851 175.126V175.34H123.414C122.947 175.34 122.588 175.432 122.337 175.617C122.087 175.803 121.961 176.068 121.961 176.415C121.961 176.689 122.061 176.919 122.263 177.106C122.463 177.292 122.723 177.385 123.042 177.385V177.385ZM123.174 176.799C123.041 176.806 122.911 176.762 122.809 176.675C122.764 176.633 122.728 176.581 122.704 176.523C122.681 176.465 122.67 176.403 122.673 176.34C122.673 176.168 122.739 176.035 122.873 175.94C123.005 175.847 123.203 175.8 123.467 175.8H123.851V176.412C123.787 176.532 123.689 176.63 123.571 176.695C123.45 176.764 123.313 176.8 123.174 176.799V176.799ZM126.42 177.385C126.775 177.385 127.06 177.252 127.272 176.989L127.308 177.325H127.952V172.712H127.24V174.376C127.139 174.258 127.013 174.164 126.873 174.102C126.732 174.039 126.579 174.01 126.426 174.015C126.045 174.015 125.741 174.167 125.515 174.47C125.288 174.774 125.175 175.176 125.175 175.677C125.175 176.203 125.29 176.62 125.519 176.925C125.749 177.233 126.049 177.385 126.419 177.385H126.42ZM126.602 176.791C126.498 176.796 126.394 176.772 126.301 176.724C126.208 176.675 126.129 176.602 126.072 176.513C125.949 176.328 125.887 176.069 125.887 175.739C125.887 175.363 125.949 175.081 126.074 174.894C126.132 174.804 126.211 174.73 126.304 174.681C126.398 174.632 126.502 174.608 126.607 174.613C126.898 174.613 127.109 174.743 127.24 175.003V176.391C127.184 176.515 127.094 176.619 126.98 176.69C126.867 176.762 126.735 176.797 126.602 176.791V176.791ZM129.098 173.617C129.227 173.617 129.326 173.58 129.396 173.507C129.431 173.471 129.458 173.428 129.477 173.381C129.495 173.333 129.503 173.283 129.502 173.232C129.502 173.119 129.467 173.027 129.396 172.952C129.326 172.879 129.226 172.842 129.098 172.842C128.968 172.842 128.87 172.879 128.8 172.952C128.765 172.99 128.738 173.034 128.721 173.082C128.703 173.13 128.694 173.181 128.696 173.232C128.696 173.342 128.731 173.434 128.8 173.507C128.87 173.58 128.969 173.617 129.098 173.617ZM129.452 177.325V174.076H128.74V177.325H129.452ZM131.257 177.385C131.642 177.385 131.938 177.259 132.147 177.006L132.165 177.325H132.835V174.076H132.124V176.409C132.003 176.663 131.77 176.791 131.424 176.791C131.09 176.791 130.923 176.584 130.923 176.172V174.076H130.211V176.181C130.211 176.571 130.299 176.87 130.476 177.076C130.653 177.282 130.913 177.385 131.256 177.385H131.257ZM134.755 177.385C135.138 177.385 135.447 177.294 135.684 177.113C135.795 177.033 135.886 176.927 135.948 176.804C136.009 176.68 136.04 176.542 136.038 176.404C136.043 176.247 136.002 176.092 135.922 175.959C135.832 175.825 135.71 175.717 135.568 175.645C135.359 175.54 135.138 175.465 134.91 175.42C134.63 175.357 134.445 175.294 134.354 175.232C134.311 175.205 134.275 175.166 134.251 175.12C134.226 175.074 134.215 175.023 134.216 174.971C134.216 174.847 134.266 174.747 134.364 174.673C134.476 174.595 134.61 174.556 134.746 174.563C134.914 174.563 135.049 174.609 135.15 174.702C135.252 174.794 135.303 174.912 135.303 175.052H136.015C136.018 174.907 135.988 174.764 135.928 174.634C135.867 174.504 135.777 174.391 135.665 174.303C135.431 174.112 135.125 174.016 134.746 174.016C134.391 174.016 134.098 174.11 133.867 174.298C133.759 174.379 133.672 174.485 133.612 174.607C133.552 174.729 133.52 174.864 133.521 175C133.521 175.335 133.699 175.591 134.055 175.766C134.217 175.847 134.419 175.913 134.661 175.965C134.903 176.016 135.077 176.078 135.181 176.145C135.231 176.176 135.272 176.219 135.299 176.272C135.327 176.324 135.34 176.383 135.338 176.442C135.339 176.499 135.326 176.555 135.3 176.605C135.274 176.655 135.237 176.698 135.191 176.729C135.094 176.801 134.951 176.838 134.764 176.838C134.598 176.847 134.434 176.798 134.298 176.699C134.239 176.651 134.192 176.591 134.159 176.522C134.126 176.453 134.109 176.378 134.108 176.301H133.416C133.416 176.496 133.473 176.676 133.586 176.844C133.699 177.012 133.857 177.145 134.061 177.241C134.264 177.337 134.495 177.384 134.755 177.384V177.385ZM137.087 174.809C137.22 174.809 137.322 174.771 137.395 174.696C137.431 174.658 137.459 174.614 137.477 174.565C137.496 174.516 137.505 174.464 137.503 174.412C137.505 174.359 137.496 174.306 137.477 174.256C137.459 174.206 137.431 174.16 137.395 174.122C137.322 174.045 137.22 174.007 137.087 174.007C137.031 174.003 136.975 174.012 136.923 174.032C136.87 174.051 136.822 174.082 136.782 174.122C136.746 174.16 136.718 174.206 136.7 174.256C136.681 174.306 136.672 174.359 136.674 174.412C136.674 174.528 136.711 174.623 136.785 174.698C136.826 174.736 136.873 174.765 136.925 174.784C136.977 174.803 137.032 174.812 137.087 174.809V174.809ZM137.087 177.358C137.22 177.358 137.322 177.321 137.395 177.245C137.431 177.208 137.459 177.164 137.477 177.115C137.496 177.066 137.505 177.014 137.503 176.962C137.505 176.909 137.496 176.856 137.477 176.806C137.459 176.756 137.431 176.711 137.395 176.672C137.322 176.595 137.22 176.556 137.087 176.556C137.031 176.553 136.975 176.561 136.923 176.581C136.87 176.601 136.822 176.632 136.782 176.672C136.746 176.711 136.718 176.756 136.7 176.806C136.681 176.856 136.672 176.909 136.674 176.962C136.674 177.078 136.711 177.173 136.785 177.247C136.826 177.285 136.873 177.315 136.925 177.334C136.977 177.353 137.032 177.361 137.087 177.358V177.358ZM142.105 177.325V176.351H142.635V175.767H142.105V172.952H141.37L139.53 175.907L139.55 176.352H141.394V177.325H142.105V177.325ZM141.394 175.767H140.277L141.341 174.037L141.394 173.94V175.766V175.767Z" fill="#EA475B"/>
<path d="M68 82V123H56C54.9391 123 53.9217 122.568 53.1716 121.799C52.4214 121.03 52 119.987 52 118.9V86.1C52 85.0126 52.4214 83.9698 53.1716 83.2009C53.9217 82.432 54.9391 82 56 82H68ZM67.6 122.59V82.41H56C55.0783 82.41 54.1917 82.7723 53.5228 83.4224C52.854 84.0725 52.4539 84.9608 52.405 85.9042L52.4 86.1V118.9C52.4 119.845 52.7535 120.754 53.3877 121.439C54.022 122.125 54.8886 122.535 55.809 122.585L56 122.59H67.6ZM144 82C145.061 82 146.078 82.432 146.828 83.2009C147.579 83.9698 148 85.0126 148 86.1V118.9C148 119.987 147.579 121.03 146.828 121.799C146.078 122.568 145.061 123 144 123H132V82H144ZM132.4 122.59H144C144.922 122.59 145.808 122.228 146.477 121.578C147.146 120.927 147.546 120.039 147.595 119.096L147.6 118.9V86.1C147.6 85.1552 147.246 84.2464 146.612 83.5609C145.978 82.8753 145.111 82.4652 144.191 82.4151L144 82.41H132.4V122.59V122.59Z" fill="#EA475B"/>
</svg>
