<svg xmlns="http://www.w3.org/2000/svg" width="200" height="200"><g fill="none" fill-rule="evenodd"><path d="M0 0h200v200H0z"/><rect width="96" height="40" x="52" y="84" fill="#000000" fill-opacity=".24" fill-rule="nonzero" rx="4"/><g fill="#FFF" fill-rule="nonzero" transform="translate(69 94)"><path d="M28.6 14.209c.742 0 1.405-.021 1.99-.063a25.052 25.052 0 001.568-.156c.462-.063.871-.134 1.228-.213.357-.078.68-.155.967-.23l-.216-1.731-.744.146c-.223.037-.47.075-.74.115-.272.039-.542.068-.811.086a2.25 2.25 0 01-.828-.097 2.261 2.261 0 01-.724-.365 1.811 1.811 0 01-.487-.55 1.284 1.284 0 01-.173-.636c0-.033.002-.065.007-.098.013-.185.055-.359.125-.521a1.325 1.325 0 01.751-.72c.18-.072.39-.108.626-.108.292 0 .561.054.807.163.246.11.462.231.647.366.223.157.417.333.584.528l1.127-1.384a4.881 4.881 0 00-.431-.383 6.785 6.785 0 00-.473-.34 6.321 6.321 0 00-.463-.265 4.557 4.557 0 00-.539-.236c-.19-.07-.39-.126-.601-.167a3.38 3.38 0 00-.658-.063c-.459 0-.885.086-1.276.257-.392.172-.73.404-1.016.696a3.223 3.223 0 00-.915 2.26c0 .372.045.712.136 1.02.09.308.26.609.511.9l-1.329.008h-.306v1.78H28.6zM24.252 7.78l1.336-1.336-1.336-1.328-1.329 1.328 1.33 1.336zm-1.955 6.428c.654 0 1.21-.063 1.666-.188.457-.125.846-.32 1.166-.584.218.227.485.412.803.556.318.144.702.216 1.151.216h.14v-1.781h-.14a.716.716 0 01-.462-.143 1.034 1.034 0 01-.282-.355 1.743 1.743 0 01-.15-.466 5.835 5.835 0 01-.066-.476c-.018-.246-.035-.46-.052-.644a7.46 7.46 0 00-.153-.994 7.807 7.807 0 00-.142-.547l-1.712.48c.12.413.214.758.279 1.034.065.275.097.492.097.65 0 .487-.18.852-.54 1.096-.359.243-.893.365-1.603.365h-.257v1.78h.257zm-6.51 4.87a9.32 9.32 0 002.01-.571c.644-.265 1.23-.6 1.756-1.009a6.319 6.319 0 001.353-1.436 5.39 5.39 0 00.8-1.854h.612v-1.781h-.466a6.415 6.415 0 00-.135-1.02 6.709 6.709 0 00-.282-.956 5.681 5.681 0 00-.41-.862 4.53 4.53 0 00-.53-.73c-.593-.64-1.25-.96-1.968-.96-.278 0-.538.052-.78.16a2.417 2.417 0 00-.66.434c-.2.183-.376.394-.529.633a4.319 4.319 0 00-.386.758c-.104.267-.184.54-.24.818a4.08 4.08 0 00-.083.8c0 .398.053.742.16 1.03.106.287.256.531.448.733.193.202.422.364.69.487.266.123.558.218.876.285.317.068.655.113 1.012.136.357.023.723.035 1.099.035-.084.315-.252.63-.504.946-.253.315-.581.612-.985.89-.403.278-.88.53-1.43.755a9.971 9.971 0 01-1.846.54l.417 1.738zm4.444-6.651h-.34c-.121 0-.243-.002-.366-.007a20.238 20.238 0 00-.358-.01 4.298 4.298 0 01-.32-.018 3.885 3.885 0 01-.532-.08 1.76 1.76 0 01-.48-.177 1.027 1.027 0 01-.348-.313.832.832 0 01-.136-.487c0-.186.039-.376.115-.57.077-.196.173-.373.289-.533.116-.16.243-.291.382-.393.14-.102.27-.153.39-.153.13 0 .26.044.39.132.13.088.256.205.379.351.123.147.237.313.344.501a5.097 5.097 0 01.49 1.197c.054.202.087.388.101.56zm-7.91 1.767l1.823-.278c.019-.362.037-.75.056-1.166.019-.415.032-.862.042-1.342a103.02 103.02 0 00.007-3.37c-.01-.77-.037-1.558-.084-2.362a35.164 35.164 0 00-.243-2.536l-1.788.584c.079.765.141 1.567.188 2.404.046.837.088 1.73.125 2.681.014.413.02.856.02 1.33 0 1.172-.048 2.524-.145 4.055zm-6.684-3.36l1.335-1.336L5.637 8.17 4.307 9.5l1.33 1.335zm-.418 8.16c.677 0 1.287-.066 1.83-.198a5.498 5.498 0 001.43-.55 4.246 4.246 0 001.76-1.875c.178-.375.3-.745.364-1.11a5.86 5.86 0 00-.024-2.257 14.013 14.013 0 00-.497-1.847c-.098-.28-.188-.53-.272-.748a10.67 10.67 0 00-.215-.528 2.125 2.125 0 00-.112-.23l-1.634.911c.004 0 .037.06.097.181.06.12.135.28.223.48a16.107 16.107 0 01.563 1.475c.088.27.164.535.226.797.063.262.099.5.108.713v.118c0 .241-.035.473-.104.696-.088.26-.214.5-.376.723-.162.223-.36.424-.591.605-.232.181-.49.335-.772.463-.283.127-.581.223-.894.285a4.865 4.865 0 01-.957.094h-.07a4.002 4.002 0 01-1.241-.22 3.356 3.356 0 01-1.033-.57 2.734 2.734 0 01-.706-.873 2.43 2.43 0 01-.261-1.127c0-.347.04-.693.122-1.036.08-.343.177-.663.288-.96.112-.297.229-.559.352-.786a5 5 0 01.31-.515l-1.371-.995a7.66 7.66 0 00-1.294 4.25c0 .72.113 1.365.34 1.938.228.573.55 1.059.964 1.458.415.398.915.704 1.5.918.584.213 1.233.32 1.947.32z"/><circle cx="53" cy="10" r="10"/></g></g></svg>