<svg xmlns="http://www.w3.org/2000/svg" width="200" height="200"><g fill="none" fill-rule="evenodd"><path d="M0 0h200v200H0z"/><rect width="55" height="32" x="73" y="84" fill="#000000" fill-opacity=".24" fill-rule="nonzero" rx="2"/><path fill="#FFF" fill-rule="nonzero" d="M108.951 104l1.449-.012c.641 0 1.211-.015 1.71-.046.5-.03.943-.07 1.33-.122a13.634 13.634 0 001.793-.35l-.146-1.156-.447.091c-.14.029-.282.053-.427.073a12.477 12.477 0 01-1.11.104c-.22 0-.43-.03-.633-.092a1.966 1.966 0 01-.655-.328 1.695 1.695 0 01-.453-.53 1.418 1.418 0 01-.17-.694c0-.186.03-.366.09-.538a1.293 1.293 0 01.718-.78 1.52 1.52 0 01.622-.118c.207 0 .393.021.56.064.166.042.32.101.46.176.14.075.27.162.392.262s.245.206.371.32l.749-.92c-.183-.15-.363-.292-.542-.426a3.698 3.698 0 00-.566-.35 3.08 3.08 0 00-1.424-.32c-.378 0-.726.07-1.044.21a2.6 2.6 0 00-1.382 1.406 2.623 2.623 0 00-.198 1.014c0 .365.06.698.18.999.12.3.328.584.624.852l-1.85.018V104zm-2.355-5.612l.992-.992-.998-.999-.993.993.999.998zm-1.71 5.612c.596 0 1.097-.062 1.503-.186.405-.123.736-.313.992-.569.174.223.398.405.67.545.271.14.612.21 1.022.21h.122v-1.193h-.122a.86.86 0 01-.508-.14.999.999 0 01-.31-.353 1.667 1.667 0 01-.162-.463 4.3 4.3 0 01-.067-.474 18.669 18.669 0 00-.11-1.054 5.718 5.718 0 00-.176-.827l-1.144.322c.089.309.15.583.185.822.035.24.052.475.052.706 0 .483-.154.847-.463 1.093-.308.245-.803.368-1.485.368h-.225V104h.225zm-5.698 4.273a7.459 7.459 0 001.72-.487 6.291 6.291 0 001.509-.889 5.424 5.424 0 001.156-1.269 4.598 4.598 0 00.66-1.628h.67v-1.193h-.578a5.794 5.794 0 00-.329-1.768 4.675 4.675 0 00-.353-.77 3.846 3.846 0 00-.462-.646c-.483-.519-1.013-.779-1.589-.779-.26 0-.51.066-.752.198a2.284 2.284 0 00-.672.581c-.17.22-.319.48-.445.783a3.435 3.435 0 00-.24.81 4.237 4.237 0 00-.052.587c0 .162.015.324.043.487.049.308.166.58.353.815.422.524 1.073.812 1.954.865.223.02.423.03.6.03h.69c-.044.304-.17.614-.374.928a3.805 3.805 0 01-.837.892 6.02 6.02 0 01-1.272.755 7.854 7.854 0 01-1.68.523l.28 1.175zm3.342-5.479h-.098c-.178 0-.37-.005-.572-.017a3.068 3.068 0 01-.259-.028c-.1-.014-.2-.036-.304-.067a1.43 1.43 0 01-.292-.122.716.716 0 01-.228-.197.57.57 0 01-.125-.29 2.13 2.13 0 01-.022-.27 2.765 2.765 0 01.344-1.272c.084-.143.178-.26.283-.35a.505.505 0 01.335-.138c.073 0 .142.013.207.037a.94.94 0 01.186.094c.059.039.113.082.164.128.05.047.097.09.137.131.102.118.2.257.295.417.096.16.182.34.259.539.077.199.14.414.189.645.048.231.079.477.091.736a7.117 7.117 0 01-.59.024zm-5.034 1.26a28.5 28.5 0 00.1-1.904c.01-.597.015-1.074.015-1.43 0-.593-.006-1.226-.018-1.9a55.636 55.636 0 00-.31-4.431l-1.193.182c.138 1.279.247 2.902.328 4.87.012.337.019.694.019 1.071 0 .313-.005.64-.013.98-.02.755-.063 1.587-.127 2.496l1.199.067zm-7.256-2.994l.992-.992-.998-.998-.992.992.998.998zm-.268 7.122c.5 0 .973-.053 1.421-.159a4.386 4.386 0 001.227-.483c.37-.218.693-.492.97-.825.279-.333.495-.729.65-1.187.145-.438.224-.788.237-1.05.012-.262.018-.437.018-.527a6.278 6.278 0 00-.344-2.066 9.757 9.757 0 00-.347-.889 6.902 6.902 0 00-.46-.867l-1.01.645a.39.39 0 01.043.065l.07.114c.07.12.153.285.246.494.093.209.188.454.283.736a5.788 5.788 0 01.301 1.854v.073a3.791 3.791 0 01-.176 1.053c-.09.284-.223.538-.402.764-.178.225-.4.415-.663.572-.264.156-.57.275-.92.356a5.17 5.17 0 01-1.168.122c-.345 0-.652-.038-.922-.113a2.885 2.885 0 01-.706-.292c-.201-.12-.373-.255-.515-.405a2.65 2.65 0 01-.353-.46 2.218 2.218 0 01-.21-.45 2.4 2.4 0 01-.094-.38 3.57 3.57 0 01-.03-.719c.012-.243.039-.483.082-.718.042-.235.096-.462.16-.679.066-.217.134-.417.205-.6a5.35 5.35 0 01.21-.477c.069-.136.13-.24.182-.314l-.967-.712a8.651 8.651 0 00-.478.922c-.152.34-.28.697-.384 1.075a5.673 5.673 0 00-.191.983 5.374 5.374 0 00.018 1.41c.08.53.238.993.472 1.387.233.393.526.72.88.977.352.257.755.45 1.207.578.453.128.939.192 1.458.192z"/></g></svg>