<svg xmlns="http://www.w3.org/2000/svg" xmlns:xlink="http://www.w3.org/1999/xlink" width="860" height="438"><defs><filter id="behavior_3-d" width="113.9%" height="113.3%" x="-6.9%" y="-5.6%" filterUnits="objectBoundingBox"><feOffset dy="4" in="SourceAlpha" result="shadowOffsetOuter1"/><feGaussianBlur in="shadowOffsetOuter1" result="shadowBlurOuter1" stdDeviation="8"/><feColorMatrix in="shadowBlurOuter1" values="0 0 0 0 0 0 0 0 0 0 0 0 0 0 0 0 0 0 0.12 0"/></filter><filter id="behavior_3-f" width="110.7%" height="110.3%" x="-5.3%" y="-4.1%" filterUnits="objectBoundingBox"><feOffset dy="2" in="SourceAlpha" result="shadowOffsetOuter1"/><feGaussianBlur in="shadowOffsetOuter1" result="shadowBlurOuter1" stdDeviation="4"/><feColorMatrix in="shadowBlurOuter1" result="shadowMatrixOuter1" values="0 0 0 0 0 0 0 0 0 0 0 0 0 0 0 0 0 0 0.08 0"/><feOffset dy="4" in="SourceAlpha" result="shadowOffsetOuter2"/><feGaussianBlur in="shadowOffsetOuter2" result="shadowBlurOuter2" stdDeviation="6"/><feColorMatrix in="shadowBlurOuter2" result="shadowMatrixOuter2" values="0 0 0 0 0 0 0 0 0 0 0 0 0 0 0 0 0 0 0.04 0"/><feOffset in="SourceAlpha" result="shadowOffsetOuter3"/><feGaussianBlur in="shadowOffsetOuter3" result="shadowBlurOuter3" stdDeviation="2"/><feColorMatrix in="shadowBlurOuter3" result="shadowMatrixOuter3" values="0 0 0 0 0 0 0 0 0 0 0 0 0 0 0 0 0 0 0.04 0"/><feMerge><feMergeNode in="shadowMatrixOuter1"/><feMergeNode in="shadowMatrixOuter2"/><feMergeNode in="shadowMatrixOuter3"/></feMerge></filter><filter id="behavior_3-h" width="101.9%" height="104.2%" x="-.9%" y="-1.5%" filterUnits="objectBoundingBox"><feOffset dy="1" in="SourceAlpha" result="shadowOffsetOuter1"/><feGaussianBlur in="shadowOffsetOuter1" result="shadowBlurOuter1" stdDeviation="1"/><feComposite in="shadowBlurOuter1" in2="SourceAlpha" operator="out" result="shadowBlurOuter1"/><feColorMatrix in="shadowBlurOuter1" values="0 0 0 0 0 0 0 0 0 0 0 0 0 0 0 0 0 0 0.12 0"/></filter><filter id="behavior_3-j" width="159.4%" height="159.4%" x="-29.7%" y="-26.6%" filterUnits="objectBoundingBox"><feOffset dy="1" in="SourceAlpha" result="shadowOffsetOuter1"/><feGaussianBlur in="shadowOffsetOuter1" result="shadowBlurOuter1" stdDeviation="3"/><feComposite in="shadowBlurOuter1" in2="SourceAlpha" operator="out" result="shadowBlurOuter1"/><feColorMatrix in="shadowBlurOuter1" values="0 0 0 0 0 0 0 0 0 0 0 0 0 0 0 0 0 0 0.12 0"/></filter><filter id="behavior_3-l" width="156.2%" height="156.2%" x="-28.1%" y="-25%" filterUnits="objectBoundingBox"><feGaussianBlur in="SourceAlpha" result="shadowBlurInner1" stdDeviation="2"/><feOffset dy="2" in="shadowBlurInner1" result="shadowOffsetInner1"/><feComposite in="shadowOffsetInner1" in2="SourceAlpha" k2="-1" k3="1" operator="arithmetic" result="shadowInnerInner1"/><feColorMatrix in="shadowInnerInner1" values="0 0 0 0 1 0 0 0 0 1 0 0 0 0 1 0 0 0 1 0"/></filter><path id="behavior_3-c" d="M8 0h359a8 8 0 018 8v382H0V8a8 8 0 018-8z"/><path id="behavior_3-g" d="M8 0h359a8 8 0 018 8v382H0V8a8 8 0 018-8z"/><path id="behavior_3-i" d="M0 0h375v165H0z"/><circle id="behavior_3-k" cx="262" cy="21" r="16"/><style>@keyframes mouse_move{0%{transform:translate(-212px,170px);opacity:1}16%,20%{transform:translate(0,0);opacity:1}18%{transform:translate(0,0);opacity:.6}}@keyframes clear_circle{0%,16%{transform:scale(0) translate(0,0);opacity:0}18%,to{transform:scale(1) translate(0,0);opacity:1}}@keyframes chip_base{0%,20%,24%,to{fill-opacity:.04}22%{fill-opacity:.24}}@keyframes chip_remove{0%,24%{opacity:1}27%,to{opacity:0}}@keyframes chip_move{0%,27%{transform:translate(155px,0)}32%,to{transform:translate(256px,0)}}@keyframes uncheck{0%{stroke-dashoffset:0;stroke-dasharray:10}25%{stroke-dashoffset:0;stroke-dasharray:14}27%,to{stroke-dashoffset:48;stroke-dasharray:48}}@keyframes uncheck_base{0%,27%{fill:#ea475b;fill-opacity:1;stroke:#000000;stroke-opacity:0}29%,to{fill:#ea475b;fill-opacity:0;stroke:#000000;stroke-opacity:.24}}</style><rect id="behavior_3-a" width="860" height="438" x="0" y="0" rx="4"/></defs><g fill="none" fill-rule="evenodd"><mask id="behavior_3-b" fill="#fff"><use xlink:href="#behavior_3-a"/></mask><use fill="#000" fill-opacity="0" xlink:href="#behavior_3-a"/><g mask="url(#behavior_3-b)"><g transform="translate(243 48)"><mask id="behavior_3-e" fill="#fff"><use xlink:href="#behavior_3-c"/></mask><use fill="#000" filter="url(#behavior_3-d)" xlink:href="#behavior_3-c"/><g mask="url(#behavior_3-e)"><use fill="#000" filter="url(#behavior_3-f)" xlink:href="#behavior_3-g"/><use fill="#FFF" xlink:href="#behavior_3-g"/></g><g mask="url(#behavior_3-e)"><use fill="#000" filter="url(#behavior_3-h)" xlink:href="#behavior_3-i"/><use fill="#FFF" fill-opacity=".98" xlink:href="#behavior_3-i"/></g><path fill="#000000" fill-opacity=".87" fill-rule="nonzero" d="M356.073 36.22l2.05-.314c.021-.407.042-.844.063-1.31.021-.468.037-.971.047-1.511a115.9 115.9 0 00.008-3.792 58.42 58.42 0 00-.094-2.657 39.56 39.56 0 00-.274-2.853l-2.011.658c.088.86.159 1.762.211 2.704.052.942.1 1.947.14 3.017.017.464.024.962.024 1.495 0 1.32-.054 2.84-.164 4.562zm-4.586-8.54l1.503-1.502-1.503-1.495-1.495 1.495 1.495 1.503zm-1.252 8.555c.59 0 1.13-.064 1.624-.192a3.56 3.56 0 001.271-.595 2.74 2.74 0 00.83-1.033c.198-.42.297-.922.297-1.506 0-.34-.03-.686-.094-1.041a10.215 10.215 0 00-.246-1.06 11.917 11.917 0 00-.348-1.03c-.13-.334-.261-.65-.392-.947l-1.807.892a12.929 12.929 0 01.736 1.816c.093.298.169.569.226.814.058.245.086.436.086.571 0 .287-.066.517-.2.689a1.287 1.287 0 01-.512.395 2.4 2.4 0 01-.7.18c-.259.029-.51.043-.756.043h-1.26v2.004h1.245zm-5.737-7.607l1.33-1.33-1.345-1.347-1.33 1.339 1.345 1.338zm2.959.015l1.33-1.338-1.346-1.338-1.33 1.33 1.346 1.346zm-4.564 7.591c.287-.001.594-.005.92-.011.436-.008.86-.04 1.272-.094.412-.055.787-.14 1.123-.258.337-.118.591-.286.763-.505.246.256.543.464.892.626.35.162.778.243 1.284.243h.156V34.23h-.156a.998.998 0 01-.564-.16 1.533 1.533 0 01-.41-.4c-.113-.158-.2-.333-.263-.524a2.46 2.46 0 01-.117-.536c-.02-.276-.04-.515-.059-.716-.018-.2-.039-.388-.062-.563a6.142 6.142 0 00-.094-.525 9.507 9.507 0 00-.16-.606l-1.926.54c.136.464.238.844.305 1.139.068.294.102.53.102.708 0 .271-.057.51-.172.716-.115.206-.301.377-.56.513-.258.135-.596.238-1.013.309-.417.07-.931.105-1.542.105h-.29v2.004l.57-.001zm-9.18-8.663l1.504-1.502-1.503-1.495-1.495 1.495 1.495 1.502zm-2.848 8.664c.71 0 1.392-.058 2.047-.172a14.81 14.81 0 001.89-.458c.605-.19 1.19-.408 1.753-.654a36.653 36.653 0 001.635-.759c.313.652.825 1.156 1.534 1.51.71.355 1.576.533 2.599.533h.313V34.23h-.313c-.126 0-.296-.008-.513-.023a3.577 3.577 0 01-.673-.118 2.59 2.59 0 01-.661-.281 1.183 1.183 0 01-.47-.517c.193-.089.381-.181.564-.278.182-.096.373-.186.57-.27l.337-1.91a6.09 6.09 0 01-1.1-.105c-.383-.07-.765-.162-1.146-.274-.38-.112-.751-.24-1.111-.383-.36-.144-.691-.289-.994-.435l-.857-.383c-.279-.125-.556-.237-.83-.337a6.652 6.652 0 00-.813-.238 3.671 3.671 0 00-.803-.09c-.318 0-.65.071-.997.215a4.79 4.79 0 00-1.014.579 5.866 5.866 0 00-.912.837 5.11 5.11 0 00-.692.99l1.565.853.078-.11c.047-.072.114-.162.2-.27.086-.106.19-.222.313-.347.123-.126.26-.242.415-.349.154-.107.318-.195.493-.266.175-.07.358-.105.551-.105.246 0 .497.032.756.097.258.066.515.147.77.243.256.097.512.205.768.325.255.12.506.233.75.34.246.107.485.201.717.282.232.08.455.134.669.16-.527.261-1.088.52-1.683.78-.594.257-1.207.49-1.839.696-.631.206-1.273.373-1.925.5-.652.128-1.299.192-1.94.192h-1.59v2.004h1.59zm-1.275 0V34.23h-.353c-.203 0-.382-.02-.536-.062a.777.777 0 01-.587-.571 1.941 1.941 0 01-.058-.501v-.126c0-.161.001-.32.004-.477a878.209 878.209 0 00.015-.982 37.602 37.602 0 00-.004-1.378c-.005-.31-.008-.604-.008-.88a40.999 40.999 0 00-.11-2.966 41.598 41.598 0 00-.124-1.397c-.047-.436-.1-.805-.157-1.108l-1.964.587c.047.246.089.529.125.85.037.32.068.665.094 1.033a59.601 59.601 0 01.11 2.324 91.297 91.297 0 01.03 2.219c0 .553-.004 1.021-.015 1.404-.01.384-.015.66-.015.826.005 1.075.281 1.878.83 2.41.547.533 1.35.799 2.41.799h.313zm-12.85 0c.229 0 .484-.008.766-.024a17.338 17.338 0 002.375-.274c.426-.078.84-.173 1.245-.285a9.105 9.105 0 001.146-.4c.36-.153.676-.332.947-.535a2.54 2.54 0 00.642-.681c.156-.25.235-.53.235-.838 0-.219-.037-.478-.11-.778-.073-.3-.164-.612-.274-.936a19.012 19.012 0 00-1.03-2.422c-.08-.154-.128-.23-.144-.23l-1.675 1.087c.157.266.31.531.462.794.152.264.295.531.43.803.136.271.258.547.365.83.107.281.191.573.254.876a6.998 6.998 0 01-1.397.505c-.509.127-1.025.228-1.55.3-.524.074-1.033.123-1.526.15-.493.026-.935.039-1.326.039-.705 0-1.366-.032-1.984-.094a11.424 11.424 0 01-1.651-.278 4.985 4.985 0 01-1.206-.454c-.32-.18-.538-.387-.653-.622a.796.796 0 01-.07-.345c0-.067.005-.138.015-.21.031-.22.09-.447.176-.682a5.141 5.141 0 01.599-1.158l-1.456-1.22-.375.707a7.423 7.423 0 00-.337.732c-.1.25-.18.508-.243.771a3.56 3.56 0 00-.093.826c0 .579.101 1.081.305 1.506.203.425.48.787.83 1.084.349.298.761.539 1.236.724.475.185.98.331 1.518.438.537.107 1.096.182 1.675.223.579.042 1.15.066 1.714.07h.164zm-.197 4.046l1.503-1.503-1.503-1.495-1.494 1.495 1.494 1.503zm-17.702-4.046c.59 0 1.13-.064 1.624-.192a3.56 3.56 0 001.272-.595 2.74 2.74 0 00.83-1.033c.197-.42.296-.922.296-1.506 0-.34-.03-.686-.093-1.041a10.215 10.215 0 00-.247-1.06 11.917 11.917 0 00-.348-1.03c-.13-.334-.261-.65-.392-.947l-1.807.892a12.929 12.929 0 01.736 1.816c.093.298.169.569.226.814.058.245.086.436.086.571 0 .287-.066.517-.2.689a1.287 1.287 0 01-.512.395 2.4 2.4 0 01-.7.18c-.259.029-.51.043-.755.043h-1.26v2.004h1.244zm1.283 4.046l1.503-1.503-1.503-1.495-1.494 1.495 1.494 1.503zm-9.148 1.808a15.19 15.19 0 001.937-1.15c.628-.439 1.194-.922 1.698-1.449a8.213 8.213 0 001.256-1.694 4.906 4.906 0 00.603-1.89c.245.157.47.25.677.282.206.031.376.047.512.047h.243l.008-2.004h-.243a1.34 1.34 0 01-.614-.137c-.18-.091-.353-.253-.517-.485a5.165 5.165 0 01-.5-.947c-.17-.399-.357-.904-.56-1.514l-1.879.782c.1.298.21.604.33.92.12.316.231.627.336.935.104.308.19.604.258.888.068.285.102.544.102.78 0 .328-.062.649-.184.962a4.27 4.27 0 01-.501.915 5.681 5.681 0 01-.751.853c-.29.272-.602.533-.936.783-.334.25-.684.485-1.052.704a20.2 20.2 0 01-1.1.61l.877 1.809zm-2.927-14.408l1.502-1.503-1.502-1.495-1.495 1.495 1.495 1.503zm-1.252 8.554c.59 0 1.13-.064 1.623-.192a3.56 3.56 0 001.272-.595 2.74 2.74 0 00.83-1.033c.198-.42.297-.922.297-1.506 0-.34-.031-.686-.094-1.041a10.215 10.215 0 00-.246-1.06 11.916 11.916 0 00-.349-1.03c-.13-.334-.26-.65-.39-.947l-1.809.892a12.93 12.93 0 01.736 1.816c.094.298.17.569.227.814.057.245.086.436.086.571 0 .287-.067.517-.2.689a1.287 1.287 0 01-.512.395 2.4 2.4 0 01-.7.18c-.259.029-.51.043-.756.043h-1.26v2.004h1.245zm-.932 0V34.23h-.18a1.2 1.2 0 01-.481-.09 1.18 1.18 0 01-.368-.25 1.657 1.657 0 01-.282-.384 5.045 5.045 0 01-.23-.489l-1.965-4.735a173.84 173.84 0 00-.352-.845c-.11-.26-.209-.506-.297-.735l-1.855.774 2.496 6.026c-.135.1-.296.192-.481.278a4.57 4.57 0 01-1.197.368c-.206.034-.4.051-.583.051-.376 0-.77-.098-1.182-.293-.412-.196-.856-.513-1.33-.951l-1.151 1.62a6.13 6.13 0 001.624 1.22c.576.293 1.19.439 1.843.439.344 0 .67-.015.978-.043a5.79 5.79 0 00.892-.153 4.405 4.405 0 001.589-.767c.125.136.256.262.391.38.136.117.293.219.47.305s.385.154.622.203c.237.05.52.075.85.075h.18zm-22.946 5.478c.605-.1 1.195-.25 1.769-.45.574-.2 1.114-.45 1.62-.747.506-.298.97-.643 1.393-1.037a6.434 6.434 0 001.804-2.935 6.67 6.67 0 00.254-1.874 7.606 7.606 0 00-.41-2.47 6.54 6.54 0 00-.486-1.08 5.074 5.074 0 00-.646-.903c-.667-.72-1.406-1.08-2.214-1.08-.313 0-.606.06-.877.18a2.72 2.72 0 00-.743.489 3.594 3.594 0 00-.595.712 4.858 4.858 0 00-.435.853c-.117.3-.207.606-.27.92a4.59 4.59 0 00-.093.9c0 .448.06.834.18 1.158.12.323.288.598.504.825.217.227.475.41.775.548.3.138.629.245.986.321.358.076.737.127 1.139.153.402.026.814.039 1.236.039-.093.355-.283.71-.567 1.064a5.151 5.151 0 01-1.107 1.002c-.454.313-.99.596-1.609.849-.618.253-1.31.455-2.077.607l.47 1.956zm5.001-7.482a20 20 0 01-.383-.004l-.411-.007a19.11 19.11 0 01-.763-.028 5.396 5.396 0 01-.6-.098 1.98 1.98 0 01-.54-.2 1.171 1.171 0 01-.39-.347.918.918 0 01-.153-.544c0-.21.043-.423.13-.642.085-.22.193-.419.324-.599.13-.18.274-.327.43-.442.157-.115.303-.172.439-.172.146 0 .292.05.438.149.146.099.288.23.426.395.139.164.268.352.388.563a5.734 5.734 0 01.552 1.346c.06.227.097.437.113.63zm-20.536 2.004c.616 0 1.16-.11 1.632-.329.472-.219.914-.532 1.327-.939a9.124 9.124 0 00.806.5 7.933 7.933 0 00.782.384c.25.094.497.169.74.223.242.055.473.083.692.083.256 0 .501-.04.736-.118a2.515 2.515 0 001.201-.853c.16-.203.289-.43.388-.68.089-.236.155-.478.2-.729.044-.25.066-.508.066-.774a4.705 4.705 0 00-.329-1.718 3.747 3.747 0 00-.415-.767 3.095 3.095 0 00-.583-.626 2.589 2.589 0 00-1.67-.575c-.37 0-.697.074-.979.223a2.786 2.786 0 00-.751.579c-.22.237-.415.504-.587.802-.172.297-.331.597-.477.9-.146.287-.302.574-.466.86a4.075 4.075 0 01-.571.776 2.71 2.71 0 01-.748.56 2.164 2.164 0 01-.994.214h-.156v2.004h.156zm6.347-2.035c-.104 0-.219-.016-.344-.047a3.92 3.92 0 01-.68-.211 6.694 6.694 0 01-.662-.313 6.95 6.95 0 01-.528-.313c.198-.397.365-.724.5-.983.136-.258.253-.464.353-.618.099-.154.183-.263.254-.328a.464.464 0 01.215-.122c.078-.015.154-.023.227-.023.151 0 .292.031.423.094.193.099.36.24.5.422.141.183.252.393.333.63.081.238.121.474.121.709v.078c0 .125-.01.24-.03.344a1.465 1.465 0 01-.122.329.812.812 0 01-.164.223.369.369 0 01-.169.098.77.77 0 01-.227.031zm-6.19 2.035V34.23h-.18a1.2 1.2 0 01-.481-.09 1.18 1.18 0 01-.368-.25 1.658 1.658 0 01-.282-.384 5.045 5.045 0 01-.23-.489l-1.965-4.735-.352-.845c-.11-.26-.21-.506-.298-.735l-1.855.774 2.497 6.026c-.136.1-.296.192-.481.278a4.57 4.57 0 01-1.198.368c-.206.034-.4.051-.583.051-.375 0-.77-.098-1.182-.293-.412-.196-.855-.513-1.33-.951l-1.15 1.62a6.13 6.13 0 001.624 1.22c.576.293 1.19.439 1.843.439.344 0 .67-.015.978-.043a5.79 5.79 0 00.892-.153 4.404 4.404 0 001.589-.767c.125.136.255.262.391.38.136.117.292.219.47.305.177.086.384.154.622.203.237.05.52.075.849.075h.18zm-16.216 5.134c.365 0 .746-.038 1.143-.114a5.254 5.254 0 002.265-1.037c.347-.271.651-.601.912-.99.261-.388.468-.841.622-1.358.154-.516.231-1.103.231-1.76 0-.413-.006-.903-.02-1.472a354.574 354.574 0 00-.109-3.842c-.023-.694-.046-1.373-.066-2.035-.026-.778-.06-1.588-.098-2.43-.04-.843-.077-1.692-.114-2.548l-2.042.384c.047.814.095 1.626.144 2.438.05.811.093 1.59.13 2.336l.094 1.956a204.78 204.78 0 01.14 3.726c.016.558.024 1.043.024 1.455 0 .59-.104 1.092-.313 1.507a3.067 3.067 0 01-.798 1.017c-.324.264-.68.457-1.069.58a3.728 3.728 0 01-1.123.183c-.355 0-.72-.061-1.095-.184a3.485 3.485 0 01-1.026-.532 2.903 2.903 0 01-.759-.853 2.216 2.216 0 01-.297-1.146c0-.538.073-1.078.219-1.62a5.024 5.024 0 01.68-1.503l-1.69-.783c-.182.261-.336.548-.461.861a7.38 7.38 0 00-.313.978c-.084.34-.145.684-.184 1.034-.04.35-.059.69-.059 1.025v.055c0 .542.073 1.03.22 1.463.145.454.347.856.606 1.205.258.35.557.651.896.904.339.253.696.46 1.072.622a5.816 5.816 0 002.238.478z" mask="url(#behavior_3-e)"/><rect width="342" height="39" x="16.5" y="109.5" stroke="#000000" stroke-opacity=".24" mask="url(#behavior_3-e)" rx="4"/><path fill="#000000" fill-opacity=".32" fill-rule="nonzero" d="M309.33 133c.7 0 1.394-.065 2.08-.195.687-.13 1.351-.298 1.993-.504a19.848 19.848 0 001.844-.692c.587-.255 1.135-.51 1.645-.766.348-.171.682-.335 1.002-.49.32-.155.642-.3.967-.435l-.264-1.321c-.288 0-.573-.03-.856-.09a6.842 6.842 0 01-.849-.24 11.25 11.25 0 01-.845-.338c-.28-.126-.558-.253-.831-.383-.25-.116-.499-.23-.745-.34-.245-.112-.487-.21-.723-.296a5.637 5.637 0 00-.7-.206 3.12 3.12 0 00-.678-.076c-.45 0-.877.109-1.283.327-.406.218-.79.545-1.151.98a4.72 4.72 0 00-.33.439c-.096.144-.177.271-.244.383a3.542 3.542 0 00-.212.396l1.252.564a3.686 3.686 0 01.257-.456c.084-.128.183-.264.3-.41.115-.147.246-.283.392-.411.146-.128.305-.233.477-.317.171-.083.352-.125.542-.125.144 0 .302.022.473.066.172.044.354.104.547.178.192.074.391.159.598.254l.636.295c.283.135.57.267.863.397.292.13.598.25.918.362-.528.264-1.078.521-1.648.772-.57.25-1.155.473-1.754.668-.598.194-1.205.35-1.822.47a9.807 9.807 0 01-1.85.177h-1.51V133h1.51zm4.23 3.61l1.134-1.133-1.141-1.141-1.134 1.134 1.141 1.14zm-14.233-3.59c.227 0 .444-.033.65-.1.207-.067.402-.162.585-.285.183-.123.352-.267.508-.432.155-.164.295-.344.42-.539.172.413.432.739.78.978.347.239.753.358 1.217.358.236 0 .46-.035.668-.104a2.24 2.24 0 001.057-.745c.14-.176.255-.373.348-.591.12.223.267.422.438.598.172.176.36.327.567.452.207.126.426.222.658.29.231.066.468.1.71.1h.166v-1.363h-.167c-.334 0-.636-.14-.908-.421-.271-.28-.5-.706-.685-1.277a5.48 5.48 0 01-.163-.591 9.327 9.327 0 01-.16-1.012c-.017-.156-.032-.31-.046-.463l-1.363.111c.01.167.017.341.024.522a12.38 12.38 0 01.004.863 7.77 7.77 0 01-.07.803 3.115 3.115 0 01-.184.724c-.086.215-.2.39-.344.521a.78.78 0 01-.55.199c-.232 0-.415-.063-.55-.188a1.1 1.1 0 01-.295-.487c-.063-.2-.098-.38-.105-.543a5.315 5.315 0 01.017-.897c.02-.255.047-.499.084-.73.037-.232.068-.43.09-.592l-1.356-.257c-.023.213-.057.453-.1.72a8.21 8.21 0 01-.442 1.617 3.239 3.239 0 01-.37.703c-.143.204-.309.368-.497.494-.187.125-.4.187-.636.187-.19 0-.335-.064-.435-.194a.958.958 0 01-.188-.449 3.207 3.207 0 01-.031-.74c.014-.251.04-.498.08-.742.04-.243.081-.47.125-.678.044-.209.08-.371.108-.487l-1.336-.369c-.027.112-.058.244-.09.397a7.058 7.058 0 01-.129.504 9.976 9.976 0 01-.191.585 5.792 5.792 0 01-.271.63c-.102.19-.22.376-.355.56a3.353 3.353 0 01-.442.493c-.16.146-.331.263-.515.351a1.294 1.294 0 01-.567.133h-.146V133h.146a2.578 2.578 0 001.37-.38c.196-.117.374-.26.537-.427.162-.167.315-.352.459-.556a1.903 1.903 0 001.241 1.286c.202.065.412.098.63.098zm-8.487-6.608l1.127-1.127-1.14-1.14-1.128 1.133 1.141 1.134zm2.852.014l1.127-1.134-1.14-1.134-1.128 1.127 1.141 1.141zM290.054 133c.436 0 .815-.017 1.137-.052.323-.035.604-.088.846-.16a2.598 2.598 0 001.113-.65c.199.254.454.462.765.622.31.16.7.24 1.168.24h.14v-1.363h-.14c-.236 0-.43-.054-.58-.16a1.141 1.141 0 01-.355-.404 1.905 1.905 0 01-.185-.529 4.913 4.913 0 01-.076-.542 21.335 21.335 0 00-.125-1.204 6.534 6.534 0 00-.202-.946l-1.308.369c.102.352.173.665.212.939.04.274.06.543.06.807 0 .278-.047.522-.14.73a1.256 1.256 0 01-.434.522c-.198.14-.453.244-.766.313-.313.07-.69.105-1.13.105h-1.037V133h1.037zm-11.631 0c.723 0 1.407-.054 2.052-.163a14.231 14.231 0 001.833-.432c.577-.178 1.126-.38 1.645-.605.52-.225 1.018-.456 1.496-.692.116.297.288.562.518.796.23.235.503.433.82.595.319.162.677.287 1.076.372.398.086.827.129 1.287.129h.146v-1.363h-.146c-.084 0-.195-.004-.334-.01a4.04 4.04 0 01-.46-.053 4.861 4.861 0 01-.51-.115 2.302 2.302 0 01-.495-.202 1.718 1.718 0 01-.41-.313 1.06 1.06 0 01-.254-.448c.213-.107.424-.207.633-.3l.633-.278-.264-1.321c-.288 0-.573-.03-.856-.09a6.842 6.842 0 01-.849-.24 11.25 11.25 0 01-.845-.338c-.28-.126-.558-.253-.831-.383-.25-.116-.499-.23-.745-.34-.245-.112-.486-.21-.723-.296a5.637 5.637 0 00-.7-.206 3.12 3.12 0 00-.677-.076c-.45 0-.878.109-1.284.327-.406.218-.79.545-1.151.98a4.72 4.72 0 00-.33.439c-.096.144-.177.271-.244.383a3.542 3.542 0 00-.212.396l1.252.564a3.686 3.686 0 01.257-.456c.084-.128.183-.264.3-.41.115-.147.246-.283.392-.411.147-.128.305-.233.477-.317.172-.083.352-.125.543-.125.143 0 .301.022.473.066.171.044.353.104.546.178.192.074.392.159.598.254l.637.295c.282.135.57.267.862.397.292.13.598.25.918.362a57.07 57.07 0 01-1.607.772c-.542.25-1.102.473-1.68.668a13.45 13.45 0 01-1.805.47 10.67 10.67 0 01-1.982.177h-1.002V133h1.002zm4.737 3.624l1.134-1.134-1.141-1.14-1.134 1.133 1.141 1.141zm-11.993 1.26a8.524 8.524 0 001.965-.557 7.19 7.19 0 001.725-1.016 6.198 6.198 0 001.322-1.45 5.255 5.255 0 00.755-1.861h.765v-1.363h-.66a6.622 6.622 0 00-.376-2.02 5.342 5.342 0 00-.404-.881 4.395 4.395 0 00-.529-.738c-.551-.593-1.157-.89-1.815-.89a1.77 1.77 0 00-.86.226 2.61 2.61 0 00-.768.664c-.195.25-.364.549-.508.894a3.926 3.926 0 00-.275.925c-.04.272-.059.495-.059.672 0 .185.016.37.049.556.056.353.19.663.403.932.483.599 1.227.928 2.233.988.256.023.484.035.686.035h.79c-.052.348-.194.701-.429 1.06-.234.36-.553.7-.956 1.02-.404.32-.888.608-1.454.863a8.976 8.976 0 01-1.92.598l.32 1.342zm3.755-6.262h-.047c-.204 0-.422-.006-.654-.02a3.506 3.506 0 01-.296-.032 2.472 2.472 0 01-.348-.076 1.635 1.635 0 01-.334-.14.819.819 0 01-.26-.225.651.651 0 01-.143-.33 2.434 2.434 0 01-.024-.31c0-.102.007-.207.02-.313a3.16 3.16 0 01.133-.595c.065-.202.145-.384.24-.546.095-.163.203-.296.323-.4a.577.577 0 01.383-.157c.083 0 .162.014.236.042.075.028.145.064.212.108.068.044.13.093.188.146.058.053.11.103.157.15.116.134.228.293.337.476.11.183.208.388.296.616.088.227.16.473.216.737.055.264.09.545.104.842-.181.014-.344.022-.49.024l-.296.004h.047zm-13.508 1.371c.278 0 .558-.02.838-.063.28-.041.55-.109.81-.201.26-.093.503-.212.728-.359.224-.146.42-.32.587-.525a1.685 1.685 0 00.362-.737c.037-.162.057-.348.06-.557a3.214 3.214 0 00-.08-.702 5.056 5.056 0 00-.317-.908 7.36 7.36 0 00-.508-.932 9.21 9.21 0 00-1.409-1.708 7.958 7.958 0 00-.81-.675 4.88 4.88 0 00-.825-.487l-.563 1.266c.209.093.422.218.64.376.218.158.432.338.643.542.211.205.414.424.61.658.194.234.371.475.531.723.16.248.297.497.41.745.114.248.197.485.248.713.037.167.055.31.055.431 0 .167-.034.292-.104.376-.158.19-.352.331-.584.424-.232.093-.44.147-.626.164a3.996 3.996 0 01-.96-.01 5.912 5.912 0 01-1.621-.443 4.229 4.229 0 01-.62-.323l-.57 1.308c.116.106.3.213.55.32a8.429 8.429 0 001.736.504c.303.053.566.08.789.08zm-9.224 4.988c.39-.19.773-.405 1.15-.644.379-.238.738-.5 1.08-.782a9.21 9.21 0 00.945-.905c.29-.32.54-.656.752-1.008.21-.353.375-.718.493-1.096.119-.378.178-.769.178-1.172 0-.204-.016-.413-.049-.626a9.947 9.947 0 00-.122-.65c-.048-.22-.102-.444-.16-.668a95.332 95.332 0 01-.17-.672 10.346 10.346 0 00-.174-.636c-.065-.211-.13-.426-.195-.644l-1.321.418c.125.39.243.779.354 1.168l.16.585c.056.2.107.399.153.598.047.2.085.394.115.584.03.19.045.371.045.543 0 .45-.109.886-.327 1.308-.218.422-.506.82-.866 1.196s-.768.723-1.228 1.04c-.459.318-.932.597-1.419.839l.606 1.224zM243.633 133c.38 0 .734-.026 1.06-.077.328-.05.624-.139.888-.264s.497-.292.699-.5c.202-.21.372-.471.511-.787.14-.32.209-.69.209-1.113 0-.074-.002-.148-.007-.222-.032-.515-.153-1.109-.362-1.781a9.033 9.033 0 00-.222-.644 14.061 14.061 0 00-.383-.897 1.713 1.713 0 01-.063-.143l-1.238.612.605 1.489c.098.237.172.463.223.678.051.216.081.385.09.508.01.123.014.215.014.275 0 .111-.007.216-.02.313a1.35 1.35 0 01-.105.369 1.245 1.245 0 01-.348.455c-.139.11-.301.192-.487.247-.185.056-.391.09-.619.101-.227.012-.475.018-.744.018h-.807V133h1.106zm1.14 3.624l1.135-1.134-1.141-1.14-1.134 1.133 1.14 1.141zm-8.034 1.51a12.712 12.712 0 001.704-1.03 9.084 9.084 0 001.472-1.304 6.295 6.295 0 001.033-1.54c.26-.553.39-1.132.39-1.74v-.028c.115.125.237.223.365.292a1.686 1.686 0 00.713.209c.102.005.185.007.25.007h.118v-1.363h-.111c-.232 0-.444-.056-.636-.167a1.88 1.88 0 01-.554-.526 4.913 4.913 0 01-.514-.925 15.038 15.038 0 01-.515-1.374l-1.308.404c.056.171.123.386.202.643.079.258.158.532.236.825.08.292.152.59.22.893.067.304.117.588.149.853a2.596 2.596 0 01-.077.94c-.083.31-.21.609-.379.896-.169.288-.376.562-.622.824a8.04 8.04 0 01-.807.748 9.486 9.486 0 01-.932.665c-.33.206-.661.395-.995.567l.598 1.23zm-2.643-12.724l1.134-1.133-1.141-1.141-1.134 1.134 1.14 1.14zm-1.113 7.59c.38 0 .734-.026 1.06-.077.327-.05.623-.139.887-.264.265-.125.498-.292.7-.5.201-.21.372-.471.51-.787.14-.32.21-.69.21-1.113 0-.074-.003-.148-.007-.222-.033-.515-.153-1.109-.362-1.781a9.034 9.034 0 00-.223-.644 14.061 14.061 0 00-.382-.897 1.713 1.713 0 01-.063-.143l-1.238.612.605 1.489c.097.237.172.463.223.678.05.216.08.385.09.508.01.123.014.215.014.275 0 .111-.007.216-.02.313a1.35 1.35 0 01-.105.369 1.245 1.245 0 01-.348.455c-.14.11-.302.192-.487.247-.186.056-.392.09-.62.101a14.68 14.68 0 01-.744.018h-.806V133h1.106zm-.828 0v-1.363h-.14c-.278 0-.507-.036-.688-.108a1.244 1.244 0 01-.452-.3 1.755 1.755 0 01-.31-.466 15.476 15.476 0 01-.268-.608c-.18-.422-.35-.827-.51-1.214a3910.464 3910.464 0 01-1.618-3.927l-1.266.529 2.198 5.287a2.64 2.64 0 01-.925.584c-.25.097-.463.154-.637.17a4.617 4.617 0 01-.393.025c-.185 0-.37-.021-.556-.063a3.191 3.191 0 01-.842-.32 4.114 4.114 0 01-.842-.619l-.786 1.106c.394.408.824.725 1.29.95a3.45 3.45 0 001.52.337c.33 0 .627-.02.89-.06.265-.039.51-.097.735-.173.225-.077.436-.173.633-.289.197-.116.393-.25.588-.403a2.4 2.4 0 00.347.358c.135.114.291.212.47.296.179.083.385.15.62.198.233.049.501.073.803.073h.139zm-20.404 4.883a8.398 8.398 0 001.406-.344c.459-.155.896-.348 1.31-.577.416-.23.803-.498 1.163-.804a5.91 5.91 0 00.95-1.022c.273-.376.498-.785.674-1.228.176-.443.29-.92.34-1.43a6.442 6.442 0 00.008-1.266 6.891 6.891 0 00-.23-1.217 5.77 5.77 0 00-.435-1.096 4.275 4.275 0 00-.622-.9c-.552-.594-1.157-.891-1.816-.891a1.77 1.77 0 00-.859.226 2.61 2.61 0 00-.769.664c-.194.25-.364.549-.508.894a3.926 3.926 0 00-.274.925c-.04.272-.06.495-.06.672 0 .185.017.37.05.556.055.353.19.663.403.932.482.599 1.226.928 2.233.988.255.023.483.035.685.035h.79c-.051.348-.194.701-.428 1.06-.234.36-.553.7-.957 1.02-.403.32-.888.608-1.454.863a8.976 8.976 0 01-1.92.598l.32 1.342zm3.755-6.26h-.047c-.204 0-.422-.007-.654-.021a3.506 3.506 0 01-.295-.032 2.472 2.472 0 01-.348-.076 1.635 1.635 0 01-.334-.14.819.819 0 01-.261-.225.651.651 0 01-.143-.33 2.434 2.434 0 01-.024-.31c0-.102.007-.207.02-.313a3.16 3.16 0 01.133-.595c.065-.202.145-.384.24-.546.095-.163.203-.296.324-.4a.577.577 0 01.382-.157c.084 0 .162.014.237.042.074.028.145.064.212.108s.13.093.188.146c.058.053.11.103.156.15.116.134.229.293.338.476.109.183.207.388.295.616.088.227.16.473.216.737.056.264.09.545.104.842-.18.014-.344.022-.49.024l-.296.004h.047zM197.95 133c.282 0 .55-.014.8-.042.25-.028.487-.08.71-.16.222-.079.432-.192.629-.34.197-.149.386-.346.567-.592.213.158.445.312.695.463.25.15.512.278.783.382a3.005 3.005 0 001.123.226c.19 0 .38-.025.57-.076a1.66 1.66 0 00.766-.449c.209-.215.373-.468.494-.758.12-.29.195-.555.223-.797.027-.24.041-.436.041-.584 0-.167-.011-.33-.034-.487a4.21 4.21 0 00-.247-.918 2.864 2.864 0 00-.477-.807c-.2-.237-.44-.428-.72-.574a2.071 2.071 0 00-.97-.22c-.306 0-.574.062-.804.185-.23.123-.433.283-.612.48a3.668 3.668 0 00-.48.675c-.141.253-.275.509-.4.769-.144.287-.286.567-.428.838a3.398 3.398 0 01-.5.723 2.18 2.18 0 01-.7.508c-.273.128-.617.192-1.03.192h-.139V133h.14zm5.287-1.447c-.186 0-.395-.046-.627-.14-.347-.138-.732-.363-1.154-.674l.375-.758c.116-.227.22-.424.31-.591a3.74 3.74 0 01.257-.418.985.985 0 01.244-.247.466.466 0 01.26-.08c.14 0 .263.028.37.084.106.055.199.126.278.212.078.086.146.18.201.285a2.264 2.264 0 01.216.567c.019.079.03.135.035.167.018.125.028.246.028.362a2.082 2.082 0 01-.129.703c-.053.138-.117.252-.191.34a.444.444 0 01-.23.16 1.003 1.003 0 01-.243.028zM198.089 133v-1.363h-.14c-.278 0-.507-.036-.688-.108a1.244 1.244 0 01-.452-.3 1.755 1.755 0 01-.31-.466 15.476 15.476 0 01-.268-.608c-.18-.422-.351-.827-.511-1.214a3910.464 3910.464 0 01-1.617-3.927l-1.266.529 2.198 5.287a2.64 2.64 0 01-.925.584c-.25.097-.463.154-.637.17a4.617 4.617 0 01-.393.025c-.186 0-.371-.021-.557-.063a3.191 3.191 0 01-.841-.32 4.114 4.114 0 01-.842-.619l-.786 1.106c.394.408.824.725 1.29.95a3.45 3.45 0 001.52.337c.33 0 .626-.02.89-.06.265-.039.51-.097.735-.173.225-.077.436-.173.633-.289.197-.116.393-.25.588-.403a2.4 2.4 0 00.347.358c.135.114.291.212.47.296.179.083.385.15.62.198.233.049.501.073.803.073h.139zm-14.317 4.563c.241 0 .492-.018.751-.055a4.818 4.818 0 002.077-.828c.322-.227.608-.509.856-.845a4.16 4.16 0 00.594-1.183c.149-.452.223-.97.223-1.555 0-.366-.006-.8-.017-1.304-.012-.503-.026-1.041-.042-1.614a180.58 180.58 0 00-.06-1.77c-.022-.608-.046-1.201-.069-1.781a242.58 242.58 0 00-.18-4.265l-1.364.056a306.584 306.584 0 01.18 4.237c.024.575.047 1.165.07 1.77.023.605.043 1.193.06 1.764.016.57.03 1.106.041 1.607.012.5.018.934.018 1.3 0 .395-.053.746-.157 1.054-.104.309-.243.58-.417.814a2.709 2.709 0 01-.602.595 3.418 3.418 0 01-1.43.588 4.02 4.02 0 01-.608.052 2.722 2.722 0 01-.7-.094 3.177 3.177 0 01-.566-.209 2.988 2.988 0 01-.553-.344 2.395 2.395 0 01-.474-.494 2.388 2.388 0 01-.326-.657 2.665 2.665 0 01-.122-.832 6.202 6.202 0 01.368-2.19c.051-.145.108-.278.17-.4.064-.124.127-.236.192-.338l-1.245-.557c-.158.227-.297.51-.417.849a7.737 7.737 0 00-.293 1.085 8.18 8.18 0 00-.139 1.551v.056c0 .44.056.84.167 1.197a3.48 3.48 0 001.158 1.757c.263.21.54.385.832.524a4.678 4.678 0 002.024.46z" mask="url(#behavior_3-e)"/><path fill="#000000" fill-opacity=".32" d="M333.006 127.497a4.5 4.5 0 119 0 4.5 4.5 0 01-9 0m13.069 7.164l-3.332-3.331a6.455 6.455 0 001.263-3.833c0-3.584-2.916-6.5-6.5-6.5a6.507 6.507 0 00-6.5 6.5c0 3.584 2.915 6.5 6.5 6.5a6.455 6.455 0 003.822-1.254l3.333 3.332a.999.999 0 101.414-1.414" mask="url(#behavior_3-e)"/><path fill="#000000" fill-opacity=".12" mask="url(#behavior_3-e)" d="M16 220h343v1H16z"/><path fill="#000000" fill-opacity=".87" fill-rule="nonzero" d="M314.673 201.02c.162 0 .34-.006.536-.02a5.446 5.446 0 001.134-.205c.176-.054.329-.12.459-.198.487-.26.85-.586 1.088-.978.24-.392.359-.817.359-1.276 0-.613-.214-1.215-.64-1.81a2.929 2.929 0 00-.606-.583 7.993 7.993 0 00-.9-.578c-.341-.19-.712-.38-1.113-.57-.402-.19-.818-.38-1.25-.57l-2.42-.995-.66 1.252.549.215a2.495 2.495 0 00-.717.512c-.2.206-.365.429-.497.667a3.108 3.108 0 00-.386 1.478c0 .34.087.69.26 1.055.174.364.435.734.783 1.11a10.684 10.684 0 01-.883.083c-.172.009-.363.016-.574.02-.211.005-.456.008-.734.008h-.188V201h.188c.33 0 .67-.007 1.022-.02.353-.015.698-.037 1.037-.067.339-.03.662-.07.97-.122a6.64 6.64 0 00.832-.188 5.4 5.4 0 001.165.327c.383.06.778.09 1.186.09zm-2.42-1.905a4.73 4.73 0 01-.502-.38 2.933 2.933 0 01-.414-.438 2.078 2.078 0 01-.281-.497 1.502 1.502 0 01-.105-.557c0-.208.044-.426.132-.653.089-.228.21-.432.366-.613.155-.18.32-.313.497-.396.176-.084.343-.125.501-.125.083 0 .17.009.257.027.2.042.36.118.484.227.123.109.218.234.285.375.067.142.111.29.132.445.021.156.032.303.032.442a2.392 2.392 0 01-.769 1.74c-.174.162-.38.296-.616.403zm2.288.57a3.577 3.577 0 01-.64-.049c.176-.185.336-.389.48-.612.144-.222.265-.448.365-.678.1-.23.177-.458.233-.685.056-.227.084-.438.084-.633 0-.14-.003-.288-.007-.445a2.018 2.018 0 00-.084-.501c.33.153.617.322.863.508.246.185.45.374.615.567.165.192.29.383.373.573.083.19.125.367.125.53 0 .19-.043.371-.129.545a1.192 1.192 0 01-.417.456c-.193.13-.442.233-.748.31a4.652 4.652 0 01-1.113.114zM300.217 201c.715 0 1.336-.188 1.865-.563.269-.186.464-.374.584-.564.867.608 1.765.97 2.692 1.085.08.01.156.014.23.014.478 0 .883-.22 1.217-.66.176.231.398.404.665.518.266.113.571.17.914.17h.167v-1.363h-.167a.926.926 0 01-.717-.32 1.072 1.072 0 01-.194-.341 1.341 1.341 0 01-.076-.41 5.854 5.854 0 00-.08-.759 4.076 4.076 0 00-.536-1.437 2.539 2.539 0 00-.47-.567 2.081 2.081 0 00-.615-.382 2.035 2.035 0 00-.769-.14c-.408 0-.757.109-1.047.324-.29.216-.534.495-.734.838l-.052.087c-.021.035-.055.098-.101.188l-.195.39c-.083.17-.197.395-.34.678-.177.339-.346.62-.508.842-.501.668-1.076 1.004-1.726 1.009h-.146V201h.14zm5.21-1.384c-.069 0-.145-.007-.229-.021a3.463 3.463 0 01-.768-.272 7.137 7.137 0 01-.95-.556l.038-.077c.016-.032.047-.093.09-.184l.192-.39c.083-.169.195-.397.334-.685.283-.52.547-.779.793-.779.209 0 .39.058.543.174.153.116.279.266.379.449.1.183.176.388.23.615.053.228.084.453.093.675v.112c0 .125-.011.238-.035.34a.999.999 0 01-.146.334c-.12.177-.308.265-.563.265zM300.35 201v-1.363h-.14c-.324 0-.58-.046-.765-.136-.185-.09-.334-.261-.445-.511a1.394 1.394 0 01-.063-.185 6.804 6.804 0 01-.11-.483c-.047-.228-.1-.531-.16-.912a45.477 45.477 0 01-.23-1.71 253.002 253.002 0 01-.167-1.597 353.083 353.083 0 00-.077-.72v.007l-1.363.285.024.254.08.775c-.13.047-.283.106-.46.178-.175.072-.362.16-.56.264a8.072 8.072 0 00-.611.362 5.207 5.207 0 00-.613.466c-.197.174-.382.37-.556.588a3.768 3.768 0 00-.449.716 1.566 1.566 0 00-.097.341c-.023.13-.035.258-.035.383v.125c.005.172.034.348.087.529.053.18.145.347.275.5.468.58 1.3.87 2.497.87.227 0 .465-.01.713-.031.248-.021.518-.055.81-.101.246.394.553.677.919.849.241.11.483.182.727.212.243.03.453.045.63.045h.139zm-3.94-2.324h-.033c-.162 0-.322-.009-.48-.027a2.162 2.162 0 01-.51-.108.946.946 0 01-.37-.226.506.506 0 01-.142-.369c0-.148.04-.29.118-.428.079-.137.182-.265.31-.386.127-.12.27-.232.43-.334.16-.102.323-.196.488-.281a7.98 7.98 0 01.476-.23c.153-.067.286-.124.397-.17.074.593.14 1.085.198 1.474.058.39.115.72.17.988-.12.023-.267.044-.441.063a5.215 5.215 0 01-.644.035h.032zm-1.048-6.01l1.579-.876 1.683-.988-.41-.543-.967.522a.598.598 0 01-.292.076h-.028a.894.894 0 01-.33-.076 1.103 1.103 0 01-.498-.445.539.539 0 01-.07-.223v-.104a.76.76 0 01.05-.265.826.826 0 01.163-.264.775.775 0 01.268-.188.719.719 0 01.219-.059 1.828 1.828 0 01.483.01c.093.014.216.038.369.07l.195-.64-.265-.063a3.034 3.034 0 00-.264-.048c-.097-.014-.2-.021-.306-.021-.246 0-.473.044-.682.132a1.51 1.51 0 00-.86.922 1.409 1.409 0 00.031.936c.08.18.191.345.335.493.144.149.313.262.508.341l-1.245.696.334.605zM283.786 201c.38 0 .734-.026 1.061-.077.327-.05.623-.139.887-.264s.497-.292.699-.5c.202-.21.372-.471.511-.787.14-.32.209-.69.209-1.113 0-.074-.002-.148-.007-.222-.032-.515-.153-1.109-.362-1.781a9.033 9.033 0 00-.222-.644 14.061 14.061 0 00-.383-.897 1.712 1.712 0 01-.062-.143l-1.239.612.605 1.489c.098.237.172.463.223.678.051.216.081.385.09.508.01.123.014.215.014.275 0 .111-.007.216-.02.313a1.35 1.35 0 01-.105.369 1.245 1.245 0 01-.348.455c-.139.11-.301.192-.487.247-.185.056-.391.09-.619.101a14.68 14.68 0 01-.744.018h-.807V201h1.106zm1.141 3.624l1.134-1.134-1.141-1.14-1.134 1.133 1.141 1.141zm-8.035 1.51a12.712 12.712 0 001.705-1.03 9.084 9.084 0 001.47-1.304 6.295 6.295 0 001.034-1.54c.26-.553.39-1.132.39-1.74v-.028c.115.125.237.223.365.292a1.686 1.686 0 00.713.209c.102.005.185.007.25.007h.118v-1.363h-.11c-.233 0-.445-.056-.637-.167a1.88 1.88 0 01-.553-.526 4.913 4.913 0 01-.515-.925 15.038 15.038 0 01-.515-1.374l-1.308.404c.056.171.123.386.202.643.079.258.158.532.236.825.08.292.152.59.22.893.067.304.117.588.15.853a2.596 2.596 0 01-.077.94c-.084.31-.21.609-.38.896-.169.288-.376.562-.622.824a8.04 8.04 0 01-.807.748 9.486 9.486 0 01-.932.665c-.33.206-.661.395-.995.567l.598 1.23zm-2.643-12.724l1.134-1.133-1.141-1.141-1.134 1.134 1.14 1.14zm-1.113 7.59c.38 0 .734-.026 1.06-.077.327-.05.623-.139.887-.264.265-.125.498-.292.7-.5.201-.21.372-.471.51-.787.14-.32.21-.69.21-1.113 0-.074-.003-.148-.007-.222-.033-.515-.153-1.109-.362-1.781a9.033 9.033 0 00-.223-.644 14.061 14.061 0 00-.382-.897 1.713 1.713 0 01-.063-.143l-1.238.612.605 1.489c.097.237.172.463.223.678.05.216.08.385.09.508.01.123.014.215.014.275 0 .111-.007.216-.02.313a1.35 1.35 0 01-.105.369 1.245 1.245 0 01-.348.455c-.14.11-.301.192-.487.247-.186.056-.392.09-.62.101-.226.012-.474.018-.743.018h-.807V201h1.106zm-.828 0v-1.363h-.14c-.278 0-.507-.036-.688-.108a1.244 1.244 0 01-.452-.3 1.755 1.755 0 01-.31-.466 15.474 15.474 0 01-.268-.608c-.18-.422-.35-.827-.51-1.214a3910.717 3910.717 0 01-1.618-3.927l-1.266.529 2.198 5.287a2.64 2.64 0 01-.925.584c-.25.097-.463.154-.637.17a4.617 4.617 0 01-.393.025c-.185 0-.37-.021-.556-.063a3.191 3.191 0 01-.842-.32 4.114 4.114 0 01-.842-.619l-.786 1.106c.394.408.824.725 1.29.95a3.45 3.45 0 001.52.337c.33 0 .627-.02.89-.06.265-.039.51-.097.735-.173.225-.077.436-.173.633-.289.197-.116.393-.25.588-.403a2.4 2.4 0 00.348.358c.134.114.29.212.47.296.178.083.384.15.618.198.234.049.502.073.804.073h.139zm-13.245.02c.162 0 .34-.006.535-.02a5.446 5.446 0 001.134-.205c.176-.054.33-.12.46-.198.486-.26.85-.586 1.088-.978.239-.392.358-.817.358-1.276 0-.613-.213-1.215-.64-1.81a2.929 2.929 0 00-.605-.583 7.993 7.993 0 00-.9-.578c-.342-.19-.713-.38-1.114-.57-.401-.19-.817-.38-1.249-.57l-2.42-.995-.661 1.252.55.215a2.495 2.495 0 00-.717.512c-.2.206-.365.429-.498.667a3.108 3.108 0 00-.386 1.478c0 .34.087.69.261 1.055.174.364.435.734.783 1.11a10.684 10.684 0 01-.884.083c-.171.009-.363.016-.574.02-.21.005-.455.008-.734.008h-.187V201h.187c.33 0 .67-.007 1.023-.02.353-.015.698-.037 1.037-.067.338-.03.662-.07.97-.122a6.64 6.64 0 00.831-.188 5.4 5.4 0 001.166.327c.382.06.777.09 1.186.09zm-2.421-1.905a4.73 4.73 0 01-.501-.38 2.933 2.933 0 01-.414-.438 2.078 2.078 0 01-.282-.497 1.502 1.502 0 01-.104-.557c0-.208.044-.426.132-.653.088-.228.21-.432.365-.613.156-.18.321-.313.498-.396.176-.084.343-.125.5-.125.084 0 .17.009.258.027.2.042.36.118.483.227.123.109.218.234.286.375.067.142.11.29.132.445.02.156.031.303.031.442a2.392 2.392 0 01-.769 1.74c-.174.162-.379.296-.615.403zm2.288.57a3.577 3.577 0 01-.64-.049c.177-.185.337-.389.48-.612.144-.222.266-.448.366-.678.1-.23.177-.458.233-.685.055-.227.083-.438.083-.633 0-.14-.002-.288-.007-.445a2.018 2.018 0 00-.083-.501c.329.153.617.322.862.508.246.185.451.374.616.567.165.192.289.383.372.573.084.19.125.367.125.53 0 .19-.043.371-.128.545a1.192 1.192 0 01-.418.456c-.192.13-.441.233-.748.31a4.652 4.652 0 01-1.113.114zM252.94 201v-1.363h-.138a2.77 2.77 0 01-.755-.09c-.211-.061-.37-.145-.477-.251a.58.58 0 01-.184-.359 3.758 3.758 0 01-.024-.441v-3.493a48.553 48.553 0 00-.066-2.546c-.021-.403-.047-.776-.077-1.12-.03-.343-.066-.633-.108-.87l-1.363.251c.042.218.078.498.108.839.03.34.055.713.076 1.116.021.404.036.82.045 1.252.01.432.014.847.014 1.245.005.409.007.796.007 1.162 0 .371-.002.7-.007.988a211.316 211.316 0 00-.013.957v.08c0 .11.002.244.006.4a2.686 2.686 0 00.247 1.012c.081.176.199.34.352.494.25.25.555.436.914.556.36.12.795.181 1.305.181h.139z" mask="url(#behavior_3-e)"/><path fill="#000000" fill-opacity=".56" d="M352.923 197.382a.992.992 0 00-.217-1.09l-4.565-4.565a.999.999 0 10-1.414 1.414l2.859 2.859H342a1 1 0 100 2h7.586l-2.86 2.86a.999.999 0 101.415 1.414l4.565-4.566a1 1 0 00.217-.326" mask="url(#behavior_3-e)"/><path fill="#000000" fill-opacity=".12" mask="url(#behavior_3-e)" d="M16 364h343v1H16z"/><path fill="#000000" fill-opacity=".87" fill-rule="nonzero" d="M354.638 345c.38 0 .748-.026 1.103-.077.355-.05.68-.139.977-.264.297-.125.56-.292.79-.5.23-.21.414-.471.553-.787.139-.32.209-.69.209-1.113 0-.074-.003-.148-.007-.222-.033-.515-.153-1.109-.362-1.781a9.034 9.034 0 00-.223-.644 14.061 14.061 0 00-.382-.897 1.713 1.713 0 01-.063-.143l-1.238.612.605 1.489c.097.237.172.463.223.678.05.216.08.385.09.508.01.123.014.215.014.275 0 .111-.007.216-.02.313a1.35 1.35 0 01-.105.369 1.089 1.089 0 01-.39.455c-.167.11-.36.192-.577.247-.218.056-.455.09-.71.101-.255.012-.517.018-.786.018h-1.342V345h1.641zm2.65 3.624l1.142-1.14-1.127-1.127-1.141 1.14 1.127 1.127zm-3.04.014l1.142-1.14-1.127-1.135-1.141 1.141 1.127 1.134zm1.552 1.99l1.037-1.037-1.03-1.03-1.037 1.037 1.03 1.03zm-5.544-13.572l1.03-1.03-1.037-1.036-1.03 1.03 1.037 1.036zm-1.573 2.198l1.127-1.134-1.14-1.14-1.127 1.133 1.14 1.14zm3.054.007l1.127-1.127-1.14-1.141-1.127 1.127 1.14 1.14zm-4.507 10.873a12.712 12.712 0 001.704-1.03 9.084 9.084 0 001.471-1.304 6.295 6.295 0 001.033-1.54c.26-.553.39-1.132.39-1.74v-.028c.116.125.238.223.365.292a1.686 1.686 0 00.713.209c.102.005.186.007.25.007h.119v-1.363h-.112c-.231 0-.444-.056-.636-.167a1.88 1.88 0 01-.553-.526 4.913 4.913 0 01-.515-.925 15.038 15.038 0 01-.515-1.374l-1.307.404c.055.171.122.386.201.643.08.258.158.532.237.825.079.292.152.59.219.893.067.304.117.588.15.853a2.596 2.596 0 01-.077.94c-.084.31-.21.609-.38.896-.168.288-.376.562-.622.824a8.04 8.04 0 01-.807.748 9.486 9.486 0 01-.932.665c-.33.206-.66.395-.995.567l.599 1.23zm-6.393-.25a8.398 8.398 0 001.405-.345c.459-.155.896-.348 1.311-.577.415-.23.802-.498 1.162-.804a5.91 5.91 0 00.95-1.022c.273-.376.498-.785.674-1.228.176-.443.29-.92.341-1.43a6.442 6.442 0 00.007-1.266 6.891 6.891 0 00-.23-1.217 5.77 5.77 0 00-.434-1.096 4.275 4.275 0 00-.623-.9c-.552-.594-1.157-.891-1.816-.891a1.77 1.77 0 00-.859.226 2.61 2.61 0 00-.768.664c-.195.25-.365.549-.508.894a3.926 3.926 0 00-.275.925c-.04.272-.06.495-.06.672 0 .185.017.37.05.556.055.353.19.663.403.932.482.599 1.227.928 2.233.988.255.023.483.035.685.035h.79c-.051.348-.194.701-.428 1.06-.234.36-.553.7-.957 1.02-.403.32-.888.608-1.453.863a8.976 8.976 0 01-1.92.598l.32 1.342zm3.755-6.262h-.048c-.204 0-.422-.006-.654-.02a3.506 3.506 0 01-.295-.032 2.472 2.472 0 01-.348-.076 1.635 1.635 0 01-.334-.14.819.819 0 01-.26-.225.651.651 0 01-.143-.33 2.434 2.434 0 01-.025-.31 3.16 3.16 0 01.153-.908c.065-.202.145-.384.24-.546.095-.163.203-.296.324-.4a.577.577 0 01.382-.157c.084 0 .163.014.237.042.074.028.145.064.212.108s.13.093.188.146c.058.053.11.103.156.15.116.134.229.293.338.476.109.183.207.388.295.616.089.227.16.473.216.737.056.264.09.545.104.842-.18.014-.344.022-.49.024l-.296.004h.048zm-28.994 1.517c0-.403-.003-.829-.01-1.276a46.008 46.008 0 00-.125-2.748c-.035-.462-.08-.91-.136-1.346l-.056-.383c.177.07.354.12.532.15.179.03.38.045.602.045.812 0 1.454-.285 1.927-.856.487-.566.74-1.384.758-2.455v-.181c0-.12-.002-.24-.007-.355a9.204 9.204 0 00-.034-.449 5.19 5.19 0 00-.042-.32 1.87 1.87 0 01-.02-.135l-1.364.25a6.148 6.148 0 01.097 1.037c0 .153-.007.31-.02.473-.015.162-.04.32-.074.473-.035.153-.08.298-.136.434a1.282 1.282 0 01-.215.359c-.195.236-.485.354-.87.354a1.67 1.67 0 01-.657-.114 1.42 1.42 0 01-.473-.33 2.29 2.29 0 01-.362-.512 9.56 9.56 0 01-.316-.664 28.9 28.9 0 01-.216-.48 15.459 15.459 0 00-.38-.804 5.205 5.205 0 00-.204-.365l-1.162.737c.139.241.264.476.375.703a9.513 9.513 0 01.803 2.452c.12.628.208 1.287.269 1.976.06.688.097 1.398.111 2.128.014.73.02 1.465.02 2.202h1.385zm8.014-1.551c.325 0 .63-.062.915-.185a2.396 2.396 0 001.263-1.252c.125-.285.187-.592.187-.921 0-.325-.062-.63-.187-.915a2.438 2.438 0 00-1.263-1.263 2.25 2.25 0 00-.915-.188c-.33 0-.636.063-.922.188a2.396 2.396 0 00-1.252 1.263c-.123.285-.184.59-.184.915 0 .329.061.636.184.921a2.376 2.376 0 001.252 1.252c.286.123.593.185.922.185zm0-1.134c-.167 0-.324-.033-.473-.097a1.259 1.259 0 01-.654-.654 1.192 1.192 0 010-.95 1.248 1.248 0 01.654-.657 1.192 1.192 0 01.95 0 1.248 1.248 0 01.657.657 1.192 1.192 0 010 .95 1.259 1.259 0 01-.657.654c-.151.064-.31.097-.477.097zm5.364 2.65a2.5 2.5 0 00.08-.212c.048-.137.12-.318.215-.542.095-.225.215-.485.359-.78.143-.294.314-.601.51-.921.198-.32.422-.645.672-.974.25-.33.53-.641.838-.936a6.892 6.892 0 011.016-.8 5.25 5.25 0 011.2-.574l.501-.167-.404-1.315c-.05.014-.119.035-.205.063l-.323.104c-.135.042-.295.089-.48.14a8.955 8.955 0 01-1.231.24 4.885 4.885 0 01-.592.038h-.09c-.149 0-.303-.019-.463-.056a1.568 1.568 0 01-.442-.174 1.02 1.02 0 01-.33-.306.78.78 0 01-.129-.452c0-.227.056-.435.167-.623.112-.187.255-.349.432-.483.176-.135.376-.24.601-.317.225-.076.451-.114.679-.114.199 0 .409.03.63.09.22.06.448.165.684.313l.703-1.196c-.663-.39-1.336-.585-2.017-.585-.26 0-.52.032-.78.094a3.638 3.638 0 00-1.43.706 3.028 3.028 0 00-.549.581 2.72 2.72 0 00-.365.706 2.497 2.497 0 00-.132.821c0 .343.059.65.177.922.119.271.284.504.498.699.213.195.465.354.754.476.29.123.61.208.957.254a9.168 9.168 0 00-.82.898 13.02 13.02 0 00-.76 1.043 14.37 14.37 0 00-1.043 1.9 9.816 9.816 0 00-.403 1.022l1.315.417z" mask="url(#behavior_3-e)"/><path fill="#000000" fill-opacity=".32" d="M26.813 341l3.873-3.874a1.003 1.003 0 10-1.42-1.419l-4.583 4.584a1.004 1.004 0 000 1.418l4.584 4.584a1.001 1.001 0 001.42 0 1.003 1.003 0 000-1.419L26.811 341z" mask="url(#behavior_3-e)"/><path fill="#000000" fill-opacity=".87" fill-rule="nonzero" d="M354.638 393c.38 0 .748-.026 1.103-.077.355-.05.68-.139.977-.264.297-.125.56-.292.79-.5.23-.21.414-.471.553-.787.139-.32.209-.69.209-1.113 0-.074-.003-.148-.007-.222-.033-.515-.153-1.109-.362-1.781a9.034 9.034 0 00-.223-.644 14.061 14.061 0 00-.382-.897 1.713 1.713 0 01-.063-.143l-1.238.612.605 1.489c.097.237.172.463.223.678.05.216.08.385.09.508.01.123.014.215.014.275 0 .111-.007.216-.02.313a1.35 1.35 0 01-.105.369 1.089 1.089 0 01-.39.455c-.167.11-.36.192-.577.247-.218.056-.455.09-.71.101-.255.012-.517.018-.786.018h-1.342V393h1.641zm2.65 3.624l1.142-1.14-1.127-1.127-1.141 1.14 1.127 1.127zm-3.04.014l1.142-1.14-1.127-1.135-1.141 1.141 1.127 1.134zm1.552 1.99l1.037-1.037-1.03-1.03-1.037 1.037 1.03 1.03zm-5.544-13.572l1.03-1.03-1.037-1.036-1.03 1.03 1.037 1.036zm-1.573 2.198l1.127-1.134-1.14-1.14-1.127 1.133 1.14 1.14zm3.054.007l1.127-1.127-1.14-1.141-1.127 1.127 1.14 1.14zm-4.507 10.873a12.712 12.712 0 001.704-1.03 9.084 9.084 0 001.471-1.304 6.295 6.295 0 001.033-1.54c.26-.553.39-1.132.39-1.74v-.028c.116.125.238.223.365.292a1.686 1.686 0 00.713.209c.102.005.186.007.25.007h.119v-1.363h-.112c-.231 0-.444-.056-.636-.167a1.88 1.88 0 01-.553-.526 4.913 4.913 0 01-.515-.925 15.038 15.038 0 01-.515-1.374l-1.307.404c.055.171.122.386.201.643.08.258.158.532.237.825.079.292.152.59.219.893.067.304.117.588.15.853a2.596 2.596 0 01-.077.94c-.084.31-.21.609-.38.896-.168.288-.376.562-.622.824a8.04 8.04 0 01-.807.748 9.486 9.486 0 01-.932.665c-.33.206-.66.395-.995.567l.599 1.23zm-6.393-.25a8.398 8.398 0 001.405-.345c.459-.155.896-.348 1.311-.577.415-.23.802-.498 1.162-.804a5.91 5.91 0 00.95-1.022c.273-.376.498-.785.674-1.228.176-.443.29-.92.341-1.43a6.442 6.442 0 00.007-1.266 6.891 6.891 0 00-.23-1.217 5.77 5.77 0 00-.434-1.096 4.275 4.275 0 00-.623-.9c-.552-.594-1.157-.891-1.816-.891a1.77 1.77 0 00-.859.226 2.61 2.61 0 00-.768.664c-.195.25-.365.549-.508.894a3.926 3.926 0 00-.275.925c-.04.272-.06.495-.06.672 0 .185.017.37.05.556.055.353.19.663.403.932.482.599 1.227.928 2.233.988.255.023.483.035.685.035h.79c-.051.348-.194.701-.428 1.06-.234.36-.553.7-.957 1.02-.403.32-.888.608-1.453.863a8.976 8.976 0 01-1.92.598l.32 1.342zm3.755-6.262h-.048c-.204 0-.422-.006-.654-.02a3.506 3.506 0 01-.295-.032 2.472 2.472 0 01-.348-.076 1.635 1.635 0 01-.334-.14.819.819 0 01-.26-.225.651.651 0 01-.143-.33 2.434 2.434 0 01-.025-.31 3.16 3.16 0 01.153-.908c.065-.202.145-.384.24-.546.095-.163.203-.296.324-.4a.577.577 0 01.382-.157c.084 0 .163.014.237.042.074.028.145.064.212.108s.13.093.188.146c.058.053.11.103.156.15.116.134.229.293.338.476.109.183.207.388.295.616.089.227.16.473.216.737.056.264.09.545.104.842-.18.014-.344.022-.49.024l-.296.004h.048zm-29.794 1.517c0-.403-.003-.829-.01-1.276a46.008 46.008 0 00-.125-2.748c-.035-.462-.08-.91-.136-1.346l-.056-.383c.177.07.354.12.532.15.179.03.38.045.602.045.812 0 1.454-.285 1.927-.856.487-.566.74-1.384.758-2.455v-.181c0-.12-.002-.24-.007-.355a9.204 9.204 0 00-.034-.449 5.19 5.19 0 00-.042-.32 1.87 1.87 0 01-.02-.135l-1.364.25a6.148 6.148 0 01.097 1.037c0 .153-.007.31-.02.473-.015.162-.04.32-.074.473-.035.153-.08.298-.136.434a1.282 1.282 0 01-.215.359c-.195.236-.485.354-.87.354a1.67 1.67 0 01-.657-.114 1.42 1.42 0 01-.473-.33 2.29 2.29 0 01-.362-.512 9.56 9.56 0 01-.316-.664 28.9 28.9 0 01-.216-.48 15.459 15.459 0 00-.38-.804 5.205 5.205 0 00-.204-.365l-1.162.737c.139.241.264.476.375.703a9.513 9.513 0 01.803 2.452c.12.628.208 1.287.269 1.976.06.688.097 1.398.111 2.128.014.73.02 1.465.02 2.202h1.385zm8.014-1.551c.325 0 .63-.062.915-.185a2.396 2.396 0 001.263-1.252c.125-.285.187-.592.187-.921 0-.325-.062-.63-.187-.915a2.438 2.438 0 00-1.263-1.263 2.25 2.25 0 00-.915-.188c-.33 0-.636.063-.922.188a2.396 2.396 0 00-1.252 1.263c-.123.285-.184.59-.184.915 0 .329.061.636.184.921a2.376 2.376 0 001.252 1.252c.286.123.593.185.922.185zm0-1.134c-.167 0-.324-.033-.473-.097a1.259 1.259 0 01-.654-.654 1.192 1.192 0 010-.95 1.248 1.248 0 01.654-.657 1.192 1.192 0 01.95 0 1.248 1.248 0 01.657.657 1.192 1.192 0 010 .95 1.259 1.259 0 01-.657.654c-.151.064-.31.097-.477.097zm8.675 2.706a13.65 13.65 0 01.174-1.927 16.73 16.73 0 01.396-1.802c.163-.58.348-1.138.557-1.676.209-.538.427-1.055.654-1.552.227-.496.459-.973.695-1.433.237-.459.462-.897.675-1.314l-1.148-.717c-.185.292-.393.663-.622 1.113-.23.45-.463.947-.7 1.492a40.56 40.56 0 00-.702 1.733c-.232.61-.443 1.218-.633 1.826a7.229 7.229 0 00-.097-.366 17.867 17.867 0 00-.098-.316 7.212 7.212 0 00-.108-.313 19.533 19.533 0 00-1.144-2.668 25.92 25.92 0 00-.668-1.214 33.909 33.909 0 00-.793-1.287l-1.148.717c.4.626.797 1.29 1.193 1.993.397.702.754 1.454 1.072 2.254.317.8.575 1.652.772 2.556.197.904.296 1.871.296 2.901h1.377z" mask="url(#behavior_3-e)"/><path fill="#000000" fill-opacity=".32" d="M26.813 389l3.873-3.874a1.003 1.003 0 10-1.42-1.419l-4.583 4.584a1.004 1.004 0 000 1.418l4.584 4.584a1.001 1.001 0 001.42 0 1.003 1.003 0 000-1.419L26.811 389z" mask="url(#behavior_3-e)"/><path fill="#000000" fill-opacity=".12" mask="url(#behavior_3-e)" d="M16 268h343v1H16z"/><path fill="#000000" fill-opacity=".87" fill-rule="nonzero" d="M354.638 249c.38 0 .748-.026 1.103-.077.355-.05.68-.139.977-.264.297-.125.56-.292.79-.5.23-.21.414-.471.553-.787.139-.32.209-.69.209-1.113 0-.074-.003-.148-.007-.222-.033-.515-.153-1.109-.362-1.781a9.034 9.034 0 00-.223-.644 14.061 14.061 0 00-.382-.897 1.713 1.713 0 01-.063-.143l-1.238.612.605 1.489c.097.237.172.463.223.678.05.216.08.385.09.508.01.123.014.215.014.275 0 .111-.007.216-.02.313a1.35 1.35 0 01-.105.369 1.089 1.089 0 01-.39.455c-.167.11-.36.192-.577.247-.218.056-.455.09-.71.101-.255.012-.517.018-.786.018h-1.342V249h1.641zm2.65 3.624l1.142-1.14-1.127-1.127-1.141 1.14 1.127 1.127zm-3.04.014l1.142-1.14-1.127-1.135-1.141 1.141 1.127 1.134zm1.552 1.99l1.037-1.037-1.03-1.03-1.037 1.037 1.03 1.03zm-5.544-13.572l1.03-1.03-1.037-1.036-1.03 1.03 1.037 1.036zm-1.573 2.198l1.127-1.134-1.14-1.14-1.127 1.133 1.14 1.14zm3.054.007l1.127-1.127-1.14-1.141-1.127 1.127 1.14 1.14zm-4.507 10.873a12.712 12.712 0 001.704-1.03 9.084 9.084 0 001.471-1.304 6.295 6.295 0 001.033-1.54c.26-.553.39-1.132.39-1.74v-.028c.116.125.238.223.365.292a1.686 1.686 0 00.713.209c.102.005.186.007.25.007h.119v-1.363h-.112c-.231 0-.444-.056-.636-.167a1.88 1.88 0 01-.553-.526 4.913 4.913 0 01-.515-.925 15.038 15.038 0 01-.515-1.374l-1.307.404c.055.171.122.386.201.643.08.258.158.532.237.825.079.292.152.59.219.893.067.304.117.588.15.853a2.596 2.596 0 01-.077.94c-.084.31-.21.609-.38.896-.168.288-.376.562-.622.824a8.04 8.04 0 01-.807.748 9.486 9.486 0 01-.932.665c-.33.206-.66.395-.995.567l.599 1.23zm-6.393-.25a8.398 8.398 0 001.405-.345c.459-.155.896-.348 1.311-.577.415-.23.802-.498 1.162-.804a5.91 5.91 0 00.95-1.022c.273-.376.498-.785.674-1.228.176-.443.29-.92.341-1.43a6.442 6.442 0 00.007-1.266 6.891 6.891 0 00-.23-1.217 5.77 5.77 0 00-.434-1.096 4.275 4.275 0 00-.623-.9c-.552-.594-1.157-.891-1.816-.891a1.77 1.77 0 00-.859.226 2.61 2.61 0 00-.768.664c-.195.25-.365.549-.508.894a3.926 3.926 0 00-.275.925c-.04.272-.06.495-.06.672 0 .185.017.37.05.556.055.353.19.663.403.932.482.599 1.227.928 2.233.988.255.023.483.035.685.035h.79c-.051.348-.194.701-.428 1.06-.234.36-.553.7-.957 1.02-.403.32-.888.608-1.453.863a8.976 8.976 0 01-1.92.598l.32 1.342zm3.755-6.262h-.048c-.204 0-.422-.006-.654-.02a3.506 3.506 0 01-.295-.032 2.472 2.472 0 01-.348-.076 1.635 1.635 0 01-.334-.14.819.819 0 01-.26-.225.651.651 0 01-.143-.33 2.434 2.434 0 01-.025-.31 3.16 3.16 0 01.153-.908c.065-.202.145-.384.24-.546.095-.163.203-.296.324-.4a.577.577 0 01.382-.157c.084 0 .163.014.237.042.074.028.145.064.212.108s.13.093.188.146c.058.053.11.103.156.15.116.134.229.293.338.476.109.183.207.388.295.616.089.227.16.473.216.737.056.264.09.545.104.842-.18.014-.344.022-.49.024l-.296.004h.048zm-14.378 5.97a10.863 10.863 0 003.047-3.764 11.023 11.023 0 001.155-4.96 11.08 11.08 0 00-1.113-4.898c-.766-1.581-1.823-2.826-3.173-3.735l-.313.515-.16.25c-.055.097-.109.188-.16.271 1.137.956 1.98 2.015 2.533 3.18.607 1.266.922 2.759.946 4.48 0 2.884-1.16 5.41-3.479 7.575.098.135.218.313.362.536l.174.271.18.278zm-5.614-4.571c.162 0 .34-.007.536-.021a5.446 5.446 0 001.134-.205c.176-.054.329-.12.459-.198.487-.26.85-.586 1.088-.978.24-.392.359-.817.359-1.276 0-.613-.214-1.215-.64-1.81a2.929 2.929 0 00-.606-.583 7.993 7.993 0 00-.9-.578c-.341-.19-.712-.38-1.113-.57-.402-.19-.818-.38-1.25-.57l-2.42-.995-.66 1.252.549.215a2.495 2.495 0 00-.717.512c-.2.206-.365.429-.497.667a3.108 3.108 0 00-.386 1.478c0 .34.087.69.26 1.055.174.364.435.734.783 1.11a10.684 10.684 0 01-.883.083c-.172.009-.363.016-.574.02-.211.005-.456.008-.734.008h-.188V249h.188c.33 0 .67-.007 1.022-.02.353-.015.698-.037 1.037-.067.339-.03.662-.07.97-.122a6.64 6.64 0 00.832-.188 5.4 5.4 0 001.165.327c.383.06.778.09 1.186.09zm-2.42-1.906a4.73 4.73 0 01-.502-.38 2.933 2.933 0 01-.414-.438 2.078 2.078 0 01-.281-.497 1.502 1.502 0 01-.105-.557c0-.208.044-.426.132-.653.089-.228.21-.432.366-.613.155-.18.32-.313.497-.396.176-.084.343-.125.5-.125.084 0 .17.009.258.027.2.042.36.118.484.227.123.109.218.234.285.375.067.142.111.29.132.445.021.156.031.303.031.442a2.392 2.392 0 01-.769 1.74c-.173.162-.378.296-.615.403zm2.288.57a3.577 3.577 0 01-.64-.049c.176-.185.336-.389.48-.612.144-.222.265-.448.365-.678.1-.23.177-.458.233-.685.056-.227.084-.438.084-.633 0-.14-.003-.288-.007-.445a2.018 2.018 0 00-.084-.501c.33.153.617.322.863.508.246.185.45.374.615.567.165.192.29.383.373.573.083.19.125.367.125.53 0 .19-.043.371-.129.545a1.192 1.192 0 01-.417.456c-.193.13-.442.233-.748.31a4.652 4.652 0 01-1.113.114zM310.144 249c.715 0 1.336-.188 1.865-.563.269-.186.463-.374.584-.564.867.608 1.765.97 2.692 1.085.08.01.156.014.23.014.477 0 .883-.22 1.217-.66.176.231.398.404.665.518.266.113.571.17.914.17h.167v-1.363h-.167a.926.926 0 01-.717-.32 1.072 1.072 0 01-.194-.341 1.341 1.341 0 01-.077-.41 5.854 5.854 0 00-.08-.759 4.076 4.076 0 00-.535-1.437 2.539 2.539 0 00-.47-.567 2.081 2.081 0 00-.615-.382 2.035 2.035 0 00-.77-.14c-.407 0-.756.109-1.046.324-.29.216-.535.495-.734.838l-.052.087c-.021.035-.055.098-.101.188l-.195.39c-.083.17-.197.395-.34.678-.177.339-.346.62-.508.842-.501.668-1.076 1.004-1.726 1.009h-.146V249h.14zm5.21-1.384c-.069 0-.145-.007-.229-.021a3.463 3.463 0 01-.768-.272 7.137 7.137 0 01-.95-.556l.038-.077c.016-.032.047-.093.09-.184l.192-.39c.083-.169.195-.397.334-.685.283-.52.547-.779.793-.779.209 0 .39.058.543.174.153.116.279.266.379.449.1.183.176.388.23.615.053.228.084.453.093.675v.112c0 .125-.011.238-.035.34a1 1 0 01-.146.334c-.12.177-.308.265-.563.265zM310.278 249v-1.363h-.14c-.324 0-.58-.046-.765-.136-.185-.09-.334-.261-.445-.511a1.394 1.394 0 01-.063-.185 6.804 6.804 0 01-.111-.483 22.02 22.02 0 01-.16-.912 45.48 45.48 0 01-.23-1.71 252.195 252.195 0 01-.166-1.597 352.914 352.914 0 00-.077-.72v.007l-1.363.285.024.254.08.775c-.13.047-.283.106-.46.178-.175.072-.362.16-.56.264a8.072 8.072 0 00-.611.362 5.207 5.207 0 00-.613.466c-.197.174-.382.37-.556.588a3.768 3.768 0 00-.449.716 1.566 1.566 0 00-.097.341c-.023.13-.035.258-.035.383v.125c.005.172.034.348.087.529.053.18.145.347.275.5.468.58 1.3.87 2.497.87.227 0 .465-.01.713-.031.248-.021.518-.055.81-.101.246.394.552.677.919.849.241.11.483.182.727.212.243.03.453.045.63.045h.139zm-3.94-2.324h-.033c-.162 0-.322-.009-.48-.027a2.162 2.162 0 01-.511-.108.946.946 0 01-.369-.226.506.506 0 01-.142-.369c0-.148.04-.29.118-.428.079-.137.182-.265.31-.386.127-.12.27-.232.43-.334.16-.102.323-.196.488-.281a7.98 7.98 0 01.476-.23c.153-.067.286-.124.397-.17.074.593.14 1.085.198 1.474.058.39.115.72.17.988-.12.023-.267.044-.441.063a5.215 5.215 0 01-.644.035h.032zm-1.048-6.01l1.579-.876 1.683-.988-.41-.543-.967.522a.598.598 0 01-.292.076h-.028a.894.894 0 01-.33-.076 1.103 1.103 0 01-.498-.445.539.539 0 01-.07-.223v-.104a.76.76 0 01.05-.265.826.826 0 01.163-.264.775.775 0 01.268-.188.719.719 0 01.219-.059 1.828 1.828 0 01.483.01c.093.014.216.038.369.07l.195-.64-.265-.063a3.034 3.034 0 00-.264-.048c-.097-.014-.2-.021-.306-.021-.246 0-.473.044-.682.132a1.51 1.51 0 00-.86.922 1.409 1.409 0 00.031.936c.08.18.191.345.335.493.144.149.313.262.508.341l-1.245.696.334.605zM289.616 249c.283 0 .55-.014.8-.042.25-.028.487-.08.71-.16.222-.079.432-.192.629-.34.197-.149.386-.346.567-.592.213.158.445.312.695.463.25.15.512.278.783.382a3.005 3.005 0 001.123.226c.19 0 .38-.025.57-.076a1.66 1.66 0 00.766-.449c.209-.215.373-.468.494-.758.12-.29.195-.555.223-.797.027-.24.041-.436.041-.584 0-.167-.011-.33-.034-.487a4.21 4.21 0 00-.247-.918 2.864 2.864 0 00-.477-.807c-.2-.237-.44-.428-.72-.574a2.071 2.071 0 00-.97-.22c-.306 0-.574.062-.804.185-.23.123-.433.283-.612.48a3.668 3.668 0 00-.48.675c-.141.253-.275.509-.4.769-.144.287-.286.567-.428.838a3.398 3.398 0 01-.5.723 2.18 2.18 0 01-.7.508c-.273.128-.617.192-1.03.192h-.138V249h.139zm5.287-1.447c-.186 0-.395-.046-.626-.14-.348-.138-.733-.363-1.155-.674l.375-.758c.116-.227.22-.424.31-.591a3.74 3.74 0 01.257-.418.985.985 0 01.244-.247.466.466 0 01.26-.08c.14 0 .263.028.37.084.106.055.199.126.278.212.078.086.146.18.201.285a2.263 2.263 0 01.216.567c.019.079.03.135.035.167.018.125.028.246.028.362a2.082 2.082 0 01-.129.703c-.053.138-.117.252-.191.34a.444.444 0 01-.23.16 1.003 1.003 0 01-.243.028zM289.755 249v-1.363h-.14c-.278 0-.507-.036-.688-.108a1.244 1.244 0 01-.452-.3 1.755 1.755 0 01-.31-.466 15.476 15.476 0 01-.268-.608c-.18-.422-.35-.827-.51-1.214a3910.464 3910.464 0 01-1.618-3.927l-1.266.529 2.198 5.287a2.64 2.64 0 01-.925.584c-.25.097-.463.154-.637.17a4.617 4.617 0 01-.393.025c-.185 0-.37-.021-.556-.063a3.191 3.191 0 01-.842-.32 4.114 4.114 0 01-.842-.619l-.786 1.106c.394.408.824.725 1.29.95a3.45 3.45 0 001.52.337c.33 0 .627-.02.89-.06.265-.039.51-.097.735-.173.225-.077.436-.173.633-.289.197-.116.393-.25.588-.403a2.4 2.4 0 00.347.358c.135.114.291.212.47.296.179.083.385.15.62.198.233.049.501.073.803.073h.139zm-14.317 4.563c.241 0 .492-.018.752-.055a4.818 4.818 0 002.076-.828c.322-.227.608-.509.856-.845a4.16 4.16 0 00.595-1.183c.148-.452.222-.97.222-1.555 0-.366-.006-.8-.017-1.304-.012-.503-.026-1.041-.042-1.614a180.58 180.58 0 00-.06-1.77c-.022-.608-.046-1.201-.069-1.781a242.58 242.58 0 00-.18-4.265l-1.364.056a306.584 306.584 0 01.18 4.237c.024.575.047 1.165.07 1.77.024.605.043 1.193.06 1.764.016.57.03 1.106.041 1.607.012.5.018.934.018 1.3 0 .395-.053.746-.157 1.054-.104.309-.243.58-.417.814a2.709 2.709 0 01-.602.595 3.418 3.418 0 01-1.43.588 4.02 4.02 0 01-.608.052 2.722 2.722 0 01-.7-.094 3.177 3.177 0 01-.566-.209 2.988 2.988 0 01-.553-.344 2.395 2.395 0 01-.473-.494 2.388 2.388 0 01-.327-.657 2.665 2.665 0 01-.122-.832 6.202 6.202 0 01.369-2.19c.05-.145.107-.278.17-.4.063-.124.126-.236.191-.338l-1.245-.557c-.158.227-.297.51-.417.849a7.737 7.737 0 00-.292 1.085 8.18 8.18 0 00-.14 1.551v.056c0 .44.056.84.167 1.197a3.48 3.48 0 001.158 1.757c.263.21.54.385.832.524a4.678 4.678 0 002.024.46zm-9.245-4.542c.162 0 .34-.007.536-.021a5.446 5.446 0 001.134-.205c.176-.054.329-.12.459-.198.487-.26.85-.586 1.088-.978.24-.392.359-.817.359-1.276 0-.613-.214-1.215-.64-1.81a2.929 2.929 0 00-.606-.583 7.993 7.993 0 00-.9-.578c-.341-.19-.712-.38-1.113-.57-.402-.19-.818-.38-1.25-.57l-2.42-.995-.66 1.252.549.215a2.495 2.495 0 00-.717.512c-.2.206-.365.429-.497.667a3.108 3.108 0 00-.386 1.478c0 .34.087.69.26 1.055.174.364.435.734.783 1.11a10.684 10.684 0 01-.883.083c-.172.009-.363.016-.574.02-.211.005-.456.008-.734.008h-.188V249h.188c.33 0 .67-.007 1.022-.02.353-.015.698-.037 1.037-.067.339-.03.662-.07.97-.122a6.64 6.64 0 00.832-.188 5.4 5.4 0 001.165.327c.383.06.778.09 1.186.09zm-2.42-1.906a4.73 4.73 0 01-.502-.38 2.933 2.933 0 01-.414-.438 2.078 2.078 0 01-.281-.497 1.502 1.502 0 01-.105-.557c0-.208.044-.426.132-.653.089-.228.21-.432.366-.613.155-.18.32-.313.497-.396.176-.084.343-.125.501-.125.083 0 .17.009.257.027.2.042.36.118.484.227.123.109.218.234.285.375.067.142.111.29.132.445.021.156.032.303.032.442a2.392 2.392 0 01-.769 1.74c-.174.162-.38.296-.616.403zm2.288.57a3.577 3.577 0 01-.64-.049c.176-.185.336-.389.48-.612.144-.222.265-.448.365-.678.1-.23.177-.458.233-.685.056-.227.084-.438.084-.633 0-.14-.003-.288-.007-.445a2.018 2.018 0 00-.084-.501c.33.153.617.322.863.508.246.185.45.374.615.567.165.192.29.383.373.573.083.19.125.367.125.53 0 .19-.043.371-.129.545a1.192 1.192 0 01-.417.456c-.193.13-.442.233-.748.31a4.652 4.652 0 01-1.113.114zM260.07 249v-1.363h-.139a2.77 2.77 0 01-.755-.09c-.21-.061-.37-.145-.476-.251a.58.58 0 01-.184-.359 3.758 3.758 0 01-.025-.441v-3.493a48.553 48.553 0 00-.066-2.546 31.39 31.39 0 00-.076-1.12c-.03-.343-.067-.633-.108-.87l-1.364.251c.042.218.078.498.108.839.03.34.056.713.077 1.116.02.404.036.82.045 1.252.01.432.014.847.014 1.245.004.409.007.796.007 1.162 0 .371-.003.7-.007.988a211.356 211.356 0 00-.014 1.037c0 .11.002.244.007.4a2.686 2.686 0 00.247 1.012c.08.176.198.34.351.494.25.25.555.436.915.556.36.12.794.181 1.304.181h.14zm-5.774 4.591l.717-1.085c-2.319-2.166-3.478-4.69-3.478-7.576.023-1.72.338-3.213.946-4.48.552-1.164 1.396-2.223 2.532-3.179a10.75 10.75 0 01-.16-.271l-.16-.25-.153-.25a4.477 4.477 0 01-.16-.265c-1.364.904-2.426 2.145-3.186 3.722-.733 1.516-1.1 3.153-1.1 4.91 0 1.754.383 3.407 1.148 4.96a10.935 10.935 0 003.054 3.764z" mask="url(#behavior_3-e)"/><path fill="#000000" fill-opacity=".12" mask="url(#behavior_3-e)" d="M16 316h343v1H16z"/><path fill="#000000" fill-opacity=".87" fill-rule="nonzero" d="M354.638 297c.38 0 .748-.026 1.103-.077.355-.05.68-.139.977-.264.297-.125.56-.292.79-.5.23-.21.414-.471.553-.787.139-.32.209-.69.209-1.113 0-.074-.003-.148-.007-.222-.033-.515-.153-1.109-.362-1.781a9.034 9.034 0 00-.223-.644 14.061 14.061 0 00-.382-.897 1.713 1.713 0 01-.063-.143l-1.238.612.605 1.489c.097.237.172.463.223.678.05.216.08.385.09.508.01.123.014.215.014.275 0 .111-.007.216-.02.313a1.35 1.35 0 01-.105.369 1.089 1.089 0 01-.39.455c-.167.11-.36.192-.577.247-.218.056-.455.09-.71.101-.255.012-.517.018-.786.018h-1.342V297h1.641zm2.65 3.624l1.142-1.14-1.127-1.127-1.141 1.14 1.127 1.127zm-3.04.014l1.142-1.14-1.127-1.135-1.141 1.141 1.127 1.134zm1.552 1.99l1.037-1.037-1.03-1.03-1.037 1.037 1.03 1.03zm-5.544-13.572l1.03-1.03-1.037-1.036-1.03 1.03 1.037 1.036zm-1.573 2.198l1.127-1.134-1.14-1.14-1.127 1.133 1.14 1.14zm3.054.007l1.127-1.127-1.14-1.141-1.127 1.127 1.14 1.14zm-4.507 10.873a12.712 12.712 0 001.704-1.03 9.084 9.084 0 001.471-1.304 6.295 6.295 0 001.033-1.54c.26-.553.39-1.132.39-1.74v-.028c.116.125.238.223.365.292a1.686 1.686 0 00.713.209c.102.005.186.007.25.007h.119v-1.363h-.112c-.231 0-.444-.056-.636-.167a1.88 1.88 0 01-.553-.526 4.913 4.913 0 01-.515-.925 15.038 15.038 0 01-.515-1.374l-1.307.404c.055.171.122.386.201.643.08.258.158.532.237.825.079.292.152.59.219.893.067.304.117.588.15.853a2.596 2.596 0 01-.077.94c-.084.31-.21.609-.38.896-.168.288-.376.562-.622.824a8.04 8.04 0 01-.807.748 9.486 9.486 0 01-.932.665c-.33.206-.66.395-.995.567l.599 1.23zm-6.393-.25a8.398 8.398 0 001.405-.345c.459-.155.896-.348 1.311-.577.415-.23.802-.498 1.162-.804a5.91 5.91 0 00.95-1.022c.273-.376.498-.785.674-1.228.176-.443.29-.92.341-1.43a6.442 6.442 0 00.007-1.266 6.891 6.891 0 00-.23-1.217 5.77 5.77 0 00-.434-1.096 4.275 4.275 0 00-.623-.9c-.552-.594-1.157-.891-1.816-.891a1.77 1.77 0 00-.859.226 2.61 2.61 0 00-.768.664c-.195.25-.365.549-.508.894a3.926 3.926 0 00-.275.925c-.04.272-.06.495-.06.672 0 .185.017.37.05.556.055.353.19.663.403.932.482.599 1.227.928 2.233.988.255.023.483.035.685.035h.79c-.051.348-.194.701-.428 1.06-.234.36-.553.7-.957 1.02-.403.32-.888.608-1.453.863a8.976 8.976 0 01-1.92.598l.32 1.342zm3.755-6.262h-.048c-.204 0-.422-.006-.654-.02a3.506 3.506 0 01-.295-.032 2.472 2.472 0 01-.348-.076 1.635 1.635 0 01-.334-.14.819.819 0 01-.26-.225.651.651 0 01-.143-.33 2.434 2.434 0 01-.025-.31 3.16 3.16 0 01.153-.908c.065-.202.145-.384.24-.546.095-.163.203-.296.324-.4a.577.577 0 01.382-.157c.084 0 .163.014.237.042.074.028.145.064.212.108s.13.093.188.146c.058.053.11.103.156.15.116.134.229.293.338.476.109.183.207.388.295.616.089.227.16.473.216.737.056.264.09.545.104.842-.18.014-.344.022-.49.024l-.296.004h.048zm-37.098 1.517c0-.403-.004-.829-.01-1.276a46.008 46.008 0 00-.126-2.748c-.035-.462-.08-.91-.135-1.346l-.056-.383c.176.07.354.12.532.15.179.03.38.045.602.045.811 0 1.454-.285 1.927-.856.487-.566.74-1.384.758-2.455v-.181c0-.12-.002-.24-.007-.355a9.204 9.204 0 00-.035-.449 5.19 5.19 0 00-.041-.32 1.871 1.871 0 01-.021-.135l-1.364.25a6.148 6.148 0 01.098 1.037c0 .153-.007.31-.021.473-.014.162-.038.32-.073.473-.035.153-.08.298-.136.434a1.282 1.282 0 01-.216.359c-.194.236-.484.354-.87.354a1.67 1.67 0 01-.657-.114 1.42 1.42 0 01-.473-.33 2.29 2.29 0 01-.361-.512 9.56 9.56 0 01-.317-.664 28.9 28.9 0 01-.215-.48 15.459 15.459 0 00-.38-.804 5.204 5.204 0 00-.205-.365l-1.162.737c.14.241.265.476.376.703a9.513 9.513 0 01.803 2.452c.119.628.208 1.287.268 1.976.06.688.098 1.398.112 2.128.014.73.02 1.465.02 2.202h1.385zm8.014-1.551c.324 0 .63-.062.915-.185a2.396 2.396 0 001.263-1.252c.124-.285.187-.592.187-.921 0-.325-.063-.63-.188-.915a2.438 2.438 0 00-1.262-1.263 2.25 2.25 0 00-.915-.188c-.33 0-.637.063-.922.188a2.396 2.396 0 00-1.252 1.263c-.123.285-.184.59-.184.915 0 .329.061.636.184.921a2.376 2.376 0 001.252 1.252c.285.123.593.185.922.185zm0-1.134c-.167 0-.325-.033-.473-.097a1.259 1.259 0 01-.654-.654 1.192 1.192 0 010-.95 1.248 1.248 0 01.654-.657 1.192 1.192 0 01.95 0 1.248 1.248 0 01.657.657 1.192 1.192 0 010 .95 1.259 1.259 0 01-.658.654c-.15.064-.31.097-.476.097zm6.887 1.134c.324 0 .63-.062.915-.185a2.396 2.396 0 001.263-1.252c.124-.285.187-.592.187-.921 0-.325-.063-.63-.188-.915a2.438 2.438 0 00-1.262-1.263 2.25 2.25 0 00-.915-.188c-.33 0-.637.063-.922.188a2.396 2.396 0 00-1.252 1.263c-.123.285-.184.59-.184.915 0 .329.061.636.184.921a2.376 2.376 0 001.252 1.252c.285.123.593.185.922.185zm0-1.134c-.167 0-.325-.033-.473-.097a1.259 1.259 0 01-.654-.654 1.192 1.192 0 010-.95 1.248 1.248 0 01.654-.657 1.192 1.192 0 01.95 0 1.248 1.248 0 01.657.657 1.192 1.192 0 010 .95 1.259 1.259 0 01-.658.654c-.15.064-.31.097-.476.097zm11.047 2.769l1.148-.71a41.217 41.217 0 01-1.193-1.969 18.078 18.078 0 01-1.072-2.233 16.122 16.122 0 01-.772-2.532 13.307 13.307 0 01-.296-2.866h-1.377a13.292 13.292 0 01-.174 1.906 16.594 16.594 0 01-.396 1.781 17.615 17.615 0 01-.557 1.66 31.18 31.18 0 01-1.35 2.957c-.236.45-.461.883-.674 1.296l1.148.71c.185-.288.393-.654.622-1.1.23-.445.464-.937.703-1.478a35.406 35.406 0 001.332-3.523c.032.134.065.255.097.361a26 26 0 00.098.314c.032.102.068.206.108.313l.128.354a21.29 21.29 0 001.016 2.286c.399.776.886 1.6 1.46 2.473z" mask="url(#behavior_3-e)"/><rect width="18" height="18" x="16" y="236" fill="#EA475B" fill-rule="nonzero" mask="url(#behavior_3-e)" rx="2"/><path fill="#FFF" fill-rule="nonzero" d="M30 244a1 1 0 01.117 1.993L30 246h-9.967a1 1 0 01-.117-1.993l.117-.007H30z" mask="url(#behavior_3-e)"/></g></g><g mask="url(#behavior_3-b)"><g transform="translate(259 109)"><g transform="translate(0 223)"><rect width="18" height="18" fill-rule="nonzero" rx="2" style="animation:uncheck_base 6000ms ease-out infinite"/><path stroke="#FFF" stroke-linecap="round" stroke-linejoin="round" stroke-width="2" style="animation:uncheck 6000ms ease-out infinite" d="M4.721 9.393L7.55 12.22l5.707-5.535"/></g><g transform="translate(155)" style="animation:chip_move 6000ms ease-out infinite" fill="#EA475B"><rect width="86" height="31" x=".5" y=".5" fill-opacity=".04" stroke="#EA475B" stroke-opacity=".56" rx="15.5"/><path fill-rule="nonzero" d="M71.183 20c.333 0 .655-.022.965-.067.31-.045.596-.122.855-.231.26-.11.49-.256.691-.439.201-.182.363-.411.484-.687.122-.28.183-.605.183-.974 0-.065-.002-.13-.006-.195-.029-.45-.134-.97-.317-1.558a7.904 7.904 0 00-.195-.563 12.304 12.304 0 00-.334-.786 1.499 1.499 0 01-.055-.124l-1.084.535.53 1.303a3.959 3.959 0 01.274 1.038c.008.107.012.187.012.24 0 .098-.006.189-.018.274-.02.13-.05.237-.091.323a.953.953 0 01-.341.398 1.674 1.674 0 01-.506.216c-.19.05-.397.079-.62.089-.224.01-.453.015-.688.015h-1.175V20h1.436zm2.32 3.171l.998-.998-.986-.986-.998.998.986.986zm-2.66.012l.998-.998-.986-.992-.998.998.986.992zm1.357 1.741l.907-.907-.9-.9-.908.906.901.901zM67.349 13.05l.9-.901-.906-.907-.901.9.907.908zm-1.376 1.923l.986-.992-.998-.998-.986.992.998.998zm2.672.006l.986-.986-.998-.998-.986.986.998.998zm-3.944 9.514a11.123 11.123 0 001.491-.9 7.948 7.948 0 001.288-1.142c.375-.416.676-.865.903-1.348.228-.483.341-.99.341-1.522v-.024c.102.11.208.194.32.255a1.475 1.475 0 00.624.183c.09.004.162.006.219.006h.103v-1.193h-.097c-.203 0-.389-.049-.557-.146a1.645 1.645 0 01-.484-.46 4.3 4.3 0 01-.45-.81c-.146-.33-.296-.73-.45-1.201l-1.145.353c.049.15.107.337.176.563.07.225.138.465.207.721.07.256.133.516.192.782s.103.514.131.746a2.272 2.272 0 01-.067.822 3.158 3.158 0 01-.332.785c-.148.251-.33.492-.544.721-.216.23-.45.447-.707.654a8.3 8.3 0 01-.815.582c-.288.18-.578.346-.87.496l.523 1.077zm-5.594-.219a7.348 7.348 0 001.23-.301 7.003 7.003 0 001.147-.505c.363-.201.702-.436 1.016-.704.315-.267.592-.566.831-.894.24-.329.437-.687.59-1.075.155-.387.254-.804.299-1.25a5.636 5.636 0 00.006-1.108 6.03 6.03 0 00-.2-1.066 5.049 5.049 0 00-.381-.958 3.741 3.741 0 00-.545-.789c-.483-.519-1.012-.779-1.589-.779-.26 0-.51.066-.751.198a2.284 2.284 0 00-.673.581c-.17.22-.319.48-.444.783a3.435 3.435 0 00-.24.81 4.237 4.237 0 00-.053.587c0 .162.015.324.043.487.049.308.166.58.353.815.422.524 1.073.812 1.954.865.223.02.423.03.6.03h.69c-.044.304-.169.614-.374.928a3.805 3.805 0 01-.837.892 6.02 6.02 0 01-1.272.755 7.854 7.854 0 01-1.68.523l.28 1.175zm3.342-5.479h-.098c-.178 0-.369-.005-.572-.017a3.068 3.068 0 01-.259-.028c-.099-.014-.2-.036-.304-.067a1.43 1.43 0 01-.292-.122.716.716 0 01-.228-.197.57.57 0 01-.125-.29 2.13 2.13 0 01-.021-.27 2.765 2.765 0 01.344-1.272c.083-.143.177-.26.283-.35a.505.505 0 01.334-.138c.073 0 .142.013.207.037a.94.94 0 01.186.094c.059.039.114.082.164.128.051.047.097.09.137.131.102.118.2.257.295.417.096.16.182.34.26.539.076.199.14.414.188.645.049.231.079.477.091.736a7.117 7.117 0 01-.59.024zm-27.33 1.267v-.798a46.604 46.604 0 00-.037-1.856c-.012-.32-.03-.63-.052-.928a15.35 15.35 0 00-.085-.843 6.483 6.483 0 00-.125-.694c.272.251.59.43.953.538.363.108.735.162 1.117.162.405 0 .799-.051 1.18-.152.382-.102.747-.28 1.096-.536l-.536-.986a1.856 1.856 0 01-.383.213 2.988 2.988 0 01-.432.14c-.15.036-.305.064-.463.082-.158.018-.312.03-.462.034h-.122c-.138 0-.27-.01-.396-.03a1.347 1.347 0 01-.447-.144 1.033 1.033 0 01-.338-.292 1.18 1.18 0 01-.2-.466 1.478 1.478 0 01-.007-.134c0-.134.022-.26.067-.377.06-.154.15-.29.265-.408a1.37 1.37 0 01.414-.286 1.25 1.25 0 01.6-.134c.109 0 .21.012.304.037a2.338 2.338 0 01.69.328c.1.07.185.134.256.195l.174.152.06.061.87-.84a14.35 14.35 0 00-.297-.274 3.608 3.608 0 00-.45-.335 3.13 3.13 0 00-.86-.413 2.847 2.847 0 00-.79-.122h-.104c-.256.012-.502.06-.74.146a2.61 2.61 0 00-1.567 1.546 7.481 7.481 0 00-.329-.773c-.125-.256-.26-.5-.401-.73l-1.01.639a6.36 6.36 0 01.727 1.655c.18.625.32 1.297.417 2.015.097.718.16 1.468.188 2.25.029.78.043 1.567.043 2.358h1.211zm7.681-1.297c.284 0 .55-.053.8-.161a2.096 2.096 0 001.105-1.096c.11-.25.165-.518.165-.806 0-.284-.055-.551-.165-.8a2.133 2.133 0 00-1.105-1.105 1.97 1.97 0 00-.8-.165c-.288 0-.557.055-.807.165a2.096 2.096 0 00-1.095 1.104c-.108.25-.161.517-.161.8 0 .289.053.558.16.807a2.08 2.08 0 001.096 1.096c.25.108.519.161.807.161zm0-.992c-.146 0-.284-.028-.414-.085a1.101 1.101 0 01-.572-.572 1.043 1.043 0 010-.83 1.092 1.092 0 01.572-.576 1.043 1.043 0 01.83 0 1.092 1.092 0 01.576.575 1.043 1.043 0 010 .83 1.101 1.101 0 01-.575.573c-.132.057-.27.085-.417.085zm8.558 2.417c.357-.004.67-.087.94-.247.27-.16.494-.37.67-.627.177-.257.31-.549.399-.873.09-.325.134-.656.134-.992 0-.422-.059-.828-.177-1.218-.357-1.128-.933-2.2-1.728-3.214a13.33 13.33 0 00-1.111-1.232 45.867 45.867 0 00-1.208-1.142l-.853.853.226.225c-.297.47-.56.91-.789 1.32-.229.41-.428.799-.596 1.166-.169.368-.31.72-.426 1.056a9.26 9.26 0 00-.283.999 6.116 6.116 0 00-.107.678 5.399 5.399 0 00-.021.947c.016.292.06.576.134.852.073.276.184.52.335.733.15.214.345.385.587.515.241.13.539.195.892.195.316 0 .605-.077.867-.232.262-.154.48-.363.654-.627l.019.025c.17.272.378.48.624.624.245.144.516.216.812.216h.006zm0-1.2a.608.608 0 01-.338-.152 1.12 1.12 0 01-.243-.32 2.098 2.098 0 01-.164-.428 3.911 3.911 0 01-.098-.478 5.552 5.552 0 01-.045-.466 7.354 7.354 0 01-.013-.39l-.98-.012c-.016.098-.035.22-.057.369-.023.148-.05.303-.083.465a4.959 4.959 0 01-.124.49c-.051.165-.114.313-.19.445-.074.132-.164.24-.27.325a.61.61 0 01-.377.134.581.581 0 01-.405-.14.893.893 0 01-.238-.365 1.812 1.812 0 01-.103-.456 4.561 4.561 0 01-.021-.414 4.76 4.76 0 01.128-1.083c.064-.285.147-.574.246-.868.1-.294.222-.602.368-.922.146-.321.317-.66.512-1.017.194-.357.42-.743.675-1.156.228.219.465.468.712.748a10.439 10.439 0 011.388 2.027c.207.394.384.816.53 1.266.044.138.077.28.097.426a3.097 3.097 0 01-.009.916 1.85 1.85 0 01-.143.494 1.112 1.112 0 01-.286.386.768.768 0 01-.469.177zM16.943 16l1.886-1.886a.666.666 0 10-.943-.943L16 15.057l-1.885-1.886a.667.667 0 00-.943.943L15.057 16l-1.885 1.886a.666.666 0 10.943.943L16 16.943l1.886 1.886a.665.665 0 00.943 0 .666.666 0 000-.943L16.943 16z"/></g><g transform="translate(250)" style="animation:chip_remove 6000ms ease-out infinite" fill="#EA475B"><rect width="92" height="31" x=".5" y=".5" stroke="#EA475B" stroke-opacity=".56" rx="15.5" style="animation:chip_base 6000ms ease-out infinite"/><path fill-rule="nonzero" d="M77.183 20c.333 0 .655-.022.965-.067.31-.045.596-.122.855-.231.26-.11.49-.256.691-.439.201-.182.363-.411.484-.687.122-.28.183-.605.183-.974 0-.065-.002-.13-.006-.195-.029-.45-.134-.97-.317-1.558a7.904 7.904 0 00-.195-.563 12.304 12.304 0 00-.334-.786 1.499 1.499 0 01-.055-.124l-1.084.535.53 1.303a3.959 3.959 0 01.274 1.038c.008.107.012.187.012.24 0 .098-.006.189-.018.274-.02.13-.05.237-.091.323a.953.953 0 01-.341.398 1.674 1.674 0 01-.506.216c-.19.05-.397.079-.62.089-.224.01-.453.015-.688.015h-1.175V20h1.436zm2.32 3.171l.998-.998-.986-.986-.998.998.986.986zm-2.66.012l.998-.998-.986-.992-.998.998.986.992zm1.357 1.741l.907-.907-.9-.9-.908.906.901.901zM73.349 13.05l.9-.901-.906-.907-.901.9.907.908zm-1.376 1.923l.986-.992-.998-.998-.986.992.998.998zm2.672.006l.986-.986-.998-.998-.986.986.998.998zm-3.944 9.514a11.123 11.123 0 001.491-.9 7.948 7.948 0 001.288-1.142c.375-.416.676-.865.903-1.348.228-.483.341-.99.341-1.522v-.024c.102.11.208.194.32.255a1.475 1.475 0 00.624.183c.09.004.162.006.219.006h.103v-1.193h-.097c-.203 0-.389-.049-.557-.146a1.645 1.645 0 01-.484-.46 4.3 4.3 0 01-.45-.81c-.146-.33-.296-.73-.45-1.201l-1.145.353c.049.15.107.337.176.563.07.225.138.465.207.721.07.256.133.516.192.782s.103.514.131.746a2.272 2.272 0 01-.067.822 3.158 3.158 0 01-.332.785c-.148.251-.33.492-.544.721-.216.23-.45.447-.707.654a8.3 8.3 0 01-.815.582c-.288.18-.578.346-.87.496l.523 1.077zm-5.594-.219a7.348 7.348 0 001.23-.301 7.003 7.003 0 001.147-.505c.363-.201.702-.436 1.016-.704.315-.267.592-.566.831-.894.24-.329.437-.687.59-1.075.155-.387.254-.804.299-1.25a5.636 5.636 0 00.006-1.108 6.03 6.03 0 00-.2-1.066 5.049 5.049 0 00-.381-.958 3.741 3.741 0 00-.545-.789c-.483-.519-1.012-.779-1.589-.779-.26 0-.51.066-.751.198a2.284 2.284 0 00-.673.581c-.17.22-.319.48-.444.783a3.435 3.435 0 00-.24.81 4.237 4.237 0 00-.053.587c0 .162.015.324.043.487.049.308.166.58.353.815.422.524 1.073.812 1.954.865.223.02.423.03.6.03h.69c-.044.304-.169.614-.374.928a3.805 3.805 0 01-.837.892 6.02 6.02 0 01-1.272.755 7.854 7.854 0 01-1.68.523l.28 1.175zm3.342-5.479h-.098c-.178 0-.369-.005-.572-.017a3.068 3.068 0 01-.259-.028c-.099-.014-.2-.036-.304-.067a1.43 1.43 0 01-.292-.122.716.716 0 01-.228-.197.57.57 0 01-.125-.29 2.13 2.13 0 01-.021-.27 2.765 2.765 0 01.344-1.272c.083-.143.177-.26.283-.35a.505.505 0 01.334-.138c.073 0 .142.013.207.037a.94.94 0 01.186.094c.059.039.114.082.164.128.051.047.097.09.137.131.102.118.2.257.295.417.096.16.182.34.26.539.076.199.14.414.188.645.049.231.079.477.091.736a7.117 7.117 0 01-.59.024zm-32.517 1.328c0-.353-.003-.726-.009-1.117a40.26 40.26 0 00-.11-2.405 22.89 22.89 0 00-.118-1.177l-.049-.335c.154.06.31.104.466.13.156.027.331.04.526.04.71 0 1.272-.25 1.686-.748.426-.496.648-1.212.664-2.15v-.157c0-.106-.002-.21-.006-.31a8.054 8.054 0 00-.03-.393 4.541 4.541 0 00-.037-.28 1.637 1.637 0 01-.018-.12l-1.194.22a5.38 5.38 0 01.086.907c0 .134-.006.272-.019.414-.012.142-.033.28-.063.414-.03.134-.07.26-.12.38-.048.12-.11.224-.188.314-.17.207-.424.31-.76.31a1.46 1.46 0 01-.576-.1 1.242 1.242 0 01-.414-.29 2.004 2.004 0 01-.316-.447 8.364 8.364 0 01-.277-.581c-.07-.15-.132-.29-.189-.42a13.527 13.527 0 00-.332-.703 4.554 4.554 0 00-.18-.32l-1.016.645c.122.211.231.416.329.615a8.324 8.324 0 01.703 2.146c.103.55.181 1.126.234 1.729.053.602.085 1.223.098 1.862.012.64.018 1.282.018 1.927h1.211zm7.012-1.358c.284 0 .551-.053.8-.161a2.096 2.096 0 001.105-1.096c.11-.25.165-.518.165-.806 0-.284-.055-.551-.164-.8a2.133 2.133 0 00-1.105-1.105 1.97 1.97 0 00-.8-.165c-.289 0-.558.055-.807.165a2.096 2.096 0 00-1.096 1.104c-.107.25-.161.517-.161.8 0 .289.054.558.161.807a2.08 2.08 0 001.096 1.096c.25.108.518.161.806.161zm0-.992c-.146 0-.284-.028-.414-.085a1.101 1.101 0 01-.572-.572 1.043 1.043 0 010-.83 1.092 1.092 0 01.572-.576 1.043 1.043 0 01.83 0 1.092 1.092 0 01.577.575 1.043 1.043 0 010 .83 1.101 1.101 0 01-.576.573c-.132.057-.27.085-.417.085zm6.026.992c.284 0 .551-.053.8-.161a2.096 2.096 0 001.105-1.096c.11-.25.165-.518.165-.806 0-.284-.055-.551-.164-.8a2.133 2.133 0 00-1.105-1.105 1.97 1.97 0 00-.8-.165c-.289 0-.558.055-.807.165a2.096 2.096 0 00-1.096 1.104c-.107.25-.161.517-.161.8 0 .289.054.558.161.807a2.08 2.08 0 001.096 1.096c.25.108.518.161.806.161zm0-.992c-.146 0-.284-.028-.413-.085a1.101 1.101 0 01-.573-.572 1.043 1.043 0 010-.83 1.092 1.092 0 01.573-.576 1.043 1.043 0 01.83 0 1.092 1.092 0 01.576.575 1.043 1.043 0 010 .83 1.101 1.101 0 01-.576.573c-.131.057-.27.085-.417.085zm9.667 2.423l1.004-.621a36.065 36.065 0 01-1.044-1.723c-.347-.608-.66-1.26-.937-1.954a14.107 14.107 0 01-.676-2.215 11.643 11.643 0 01-.259-2.508H55.52a11.631 11.631 0 01-.152 1.668 14.52 14.52 0 01-.347 1.558c-.142.503-.304.987-.487 1.452a25.77 25.77 0 01-1.181 2.587c-.207.395-.404.774-.59 1.135l1.004.62c.162-.25.344-.571.545-.961.2-.39.406-.82.615-1.293a30.98 30.98 0 001.165-3.083c.029.117.057.223.085.316.029.093.057.185.086.274.028.09.06.18.094.274l.113.31c.243.654.54 1.32.888 2 .35.68.775 1.4 1.279 2.164z"/><circle cx="16" cy="16" r="8" fill-opacity=".24" style="animation:clear_circle 6000ms ease-out infinite;transform-origin:16px 16px"/><path fill-rule="nonzero" d="M16.943 16l1.886-1.886a.666.666 0 10-.943-.943L16 15.057l-1.885-1.886a.667.667 0 00-.943.943L15.057 16l-1.885 1.886a.666.666 0 10.943.943L16 16.943l1.886 1.886a.665.665 0 00.943 0 .666.666 0 000-.943L16.943 16z"/></g><use fill="#000" filter="url(#behavior_3-j)" xlink:href="#behavior_3-k" style="animation:mouse_move 6000ms ease-out infinite"/><use fill="#FFF" fill-opacity=".56" xlink:href="#behavior_3-k" style="animation:mouse_move 6000ms ease-out infinite"/><use fill="#000" filter="url(#behavior_3-l)" xlink:href="#behavior_3-k" style="animation:mouse_move 6000ms ease-out infinite"/></g></g></g></svg>