<svg xmlns="http://www.w3.org/2000/svg" width="200" height="200" viewBox="0 0 200 200">
  <g fill="none" fill-rule="evenodd">
    <rect width="200" height="200"/>
    <g fill-rule="nonzero" transform="translate(23 73)">
      <g transform="translate(38.955 36.42)">
        <path fill="#EAEDEF" d="M85.559322,17.0370575 C85.356516,17.0369979 85.157464,16.9823562 84.9830508,16.8788654 C84.4532242,16.5609213 84.2770485,15.8763527 84.5875706,15.3421423 C84.6779661,15.1613513 94.9152542,-1.91209501 114.19209,2.29129482 C131.649718,6.09920442 135.80791,1.71502363 135.853107,1.66982589 C136.260977,1.20627816 136.965415,1.15596117 137.435028,1.55683154 C137.898257,1.94962347 137.968126,2.63833356 137.59322,3.11615357 C137.129944,3.69242476 132.542373,8.607679 113.706215,4.49468465 C96.0677966,0.641577303 86.9152542,15.7941197 86.5875706,16.4833852 C86.3741551,16.8444886 85.9782701,17.0576575 85.559322,17.0370575 Z"/>
        <path fill="#919BAA" d="M101.694403,31.5202747 C103.582092,30.5466935 103.582092,28.9714611 101.694403,27.9978799 L82.1628257,18.0323469 C80.9496602,17.4967847 79.5678793,17.4967847 78.3547137,18.0323469 L4.5275342,55.7504126 C3.97104792,56.0348295 3.97104792,56.5052114 4.5275342,56.7896284 L23.873616,66.7114049 C26.6549215,67.9370986 29.821507,67.9370986 32.6028125,66.7114049 L101.694403,31.5202747 Z" opacity=".32"/>
        <path fill="#EAEDEF" d="M2.36158192,51.7941197 C2.36158192,50.4720858 0,47.8167185 0,44.8223683 L0,39.2856451 C0.0892818961,37.6059421 1.02558818,36.0865724 2.48587571,35.2517468 L70.3841808,1.44383719 C73.1025159,0.268583643 76.1856197,0.268583643 78.9039548,1.44383719 L94.7231638,9.35344171 C97.1315274,10.720753 98.6774921,13.2207014 98.8248588,15.9862101 L98.8248588,25.38734 C98.6754202,28.1521993 97.1300208,30.6512336 94.7231638,32.0201084 L28.9152542,64.6754756 C25.8894505,65.9636922 22.4764394,66.0002601 19.4237288,64.7771705 C19.2558024,64.6979085 19.0934684,64.6073035 18.9378531,64.5059841 L7.23163842,56.5963796 C4.55367232,55.2969445 2.36158192,53.1161536 2.36158192,51.7941197 Z"/>
        <path fill="#EAEDEF" d="M24.0564972,53.9636112 C23.8902541,50.6684547 22.0539038,47.6859834 19.1864407,46.0540067 L3.28813559,38.1444022 C1.48022599,37.2517468 0.011299435,38.1444022 0.011299435,40.1783005 L0.011299435,52.2234982 C0.116805021,53.9485605 1.08570182,55.5038948 2.58757062,56.3590914 L19.2090395,64.6641762 C21.8870056,65.9975095 24.079096,64.6641762 24.079096,61.647227 L24.0564972,53.9636112 Z"/>
        <path fill="#EAEDEF" d="M24.0564972,53.9636112 C24.2185564,50.6671567 26.0560478,47.6828319 28.9265537,46.0540067 L93.9661017,13.7376225 C96.6440678,12.4042892 98.8361582,13.7376225 98.8361582,16.7658711 L98.8361582,27.2404474 C98.7527567,28.8391978 97.8575801,30.2842685 96.4632768,31.0709558 L28.9265537,64.6302779 C26.2485876,65.9636112 24.0564972,64.6302779 24.0564972,61.6020293 L24.0564972,53.9636112 Z"/>
        <path fill="#F9FBFC" d="M96.3728814,12.5963796 C97.6497175,11.9636112 97.6610169,10.9240632 96.3728814,10.3364926 L76.3615819,0.381690297 C75.178589,-0.127230099 73.8383602,-0.127230099 72.6553672,0.381690297 L3.08474576,35.0370575 C1.3220339,35.9184135 1.31073446,37.3534417 3.08474576,38.2347976 L19.6723164,46.528583 C22.380053,47.6981104 25.4504555,47.6981104 28.1581921,46.528583 L96.3728814,12.5963796 Z"/>
        <path fill="#EAEDEF" d="M27.5932203 40.2347976C28.5649718 39.7263231 28.5536723 38.9014643 27.5932203 38.4155886L18.779661 34.0088089C17.6478165 33.4997899 16.3521835 33.4997899 15.220339 34.0088089L11.6271186 35.9636112C10.6553672 36.4833852 10.6666667 37.308244 11.6271186 37.8054191L20.3615819 42.1895999C21.4958353 42.6872629 22.7866506 42.6872629 23.920904 42.1895999L27.5932203 40.2347976zM36.5875706 33.7828202C37.1412429 33.5003344 37.1299435 33.0370575 36.5875706 32.7545717L31.2768362 30.1105039C30.6360422 29.8285743 29.9063307 29.8285743 29.2655367 30.1105039L28.3389831 30.5963796C27.7966102 30.8901649 27.7966102 31.3534417 28.3389831 31.6359276L33.6045198 34.2686959C34.2491347 34.5511565 34.9825037 34.5511565 35.6271186 34.2686959L36.5875706 33.7828202z"/>
        <path fill="#919BAA" d="M33.6158192,34.3025943 C34.2566132,34.5845238 34.9863247,34.5845238 35.6271186,34.3025943 L36.5875706,33.8054191 C36.6780558,33.7610037 36.7617579,33.7039341 36.8361582,33.6359276 C36.7632385,33.5580218 36.6746733,33.4964113 36.5762712,33.4551366 L31.2655367,30.8110688 C30.6259518,30.5234465 29.8938222,30.5234465 29.2542373,30.8110688 L28.3276836,31.2969445 C28.2409452,31.3464565 28.1611539,31.4072498 28.0903955,31.4777355 C28.1656955,31.5558227 28.253539,31.6207505 28.3502825,31.6698259 L33.6158192,34.3025943 Z" opacity=".32"/>
        <path fill="#EAEDEF" d="M42.700565,30.5963796 C43.2429379,30.3138937 43.2429379,29.8393174 42.700565,29.568131 L37.3898305,26.9240632 C36.7502455,26.6364409 36.018116,26.6364409 35.3785311,26.9240632 L34.4519774,27.4099389 C33.8983051,27.7037242 33.9096045,28.167001 34.4519774,28.4494869 L39.7175141,31.0709558 C40.3583081,31.3528854 41.0880196,31.3528854 41.7288136,31.0709558 L42.700565,30.5963796 Z"/>
        <path fill="#919BAA" d="M39.7175141,31.0822553 C40.3583081,31.3641848 41.0880196,31.3641848 41.7288136,31.0822553 L42.700565,30.5850801 C42.790128,30.5399569 42.8705762,30.478663 42.9378531,30.4042892 C42.8610557,30.3360989 42.7778003,30.2755495 42.6892655,30.2234982 L37.3785311,27.5794304 C36.7377371,27.2975008 36.0080256,27.2975008 35.3672316,27.5794304 L34.440678,28.0653061 C34.3521432,28.1173574 34.2688878,28.1779068 34.1920904,28.2460971 C34.2696437,28.3215739 34.3570683,28.3861921 34.4519774,28.4381875 L39.7175141,31.0822553 Z" opacity=".32"/>
        <path fill="#EE6078" d="M25.5367232,39.9975095 C26.1581921,39.6811253 26.1581921,39.1726507 25.5367232,38.867566 L18.0338983,35.1161536 C17.3145942,34.7961181 16.4933154,34.7961181 15.7740113,35.1161536 L13.5141243,36.3025943 C12.9039548,36.6189784 12.9039548,37.127453 13.5141243,37.4325378 L20.9491525,41.1500519 C21.6690534,41.4672658 22.4891387,41.4672658 23.2090395,41.1500519 L25.5367232,39.9975095 Z"/>
        <path fill="#EE6078" d="M13.220339,37.0144587 L22.4971751,39.1500519 C22.7581404,39.8528483 22.7897857,40.6202457 22.5875706,41.3421423 C23.0943925,41.1971073 23.5862541,41.0041462 24.0564972,40.7658711 L26.0903955,39.6924248 C26.346561,39.5658753 26.5300149,39.3282192 26.5875706,39.048357 C26.7851879,38.2276943 26.7851879,37.3718445 26.5875706,36.5511818 C25.4576271,35.9297129 18.3954802,34.4720858 18.3954802,34.4720858 L13.220339,37.0144587 Z"/>
        <path fill="#EF7389" d="M25.9322034,37.2856451 C26.6440678,36.9127637 26.7344633,36.4833852 26.1129944,36.3138937 L18.6440678,34.3251931 C17.8189016,34.1883858 16.9716096,34.319043 16.2259887,34.6980745 L13.5480226,36.0766056 C12.8361582,36.4381875 13.1073446,36.9692609 13.7175141,37.1387524 L20.779661,39.0370575 C21.6048493,39.1683743 22.4504441,39.0379789 23.1977401,38.6641762 L25.9322034,37.2856451 Z"/>
        <path fill="#EFF3F4" d="M81.1864407,7.53423267 C76.1812319,5.37640529 70.5080336,5.37640529 65.5028249,7.53423267 C61.220339,9.7037242 61.220339,13.1839502 65.5028249,15.3760406 C70.5102298,17.5231997 76.1790357,17.5231997 81.1864407,15.3760406 C85.5141243,13.2291479 85.5141243,9.7037242 81.1864407,7.53423267 Z"/>
        <path fill="#E4E8EA" d="M80.4067797,9.81671855 C75.4056583,7.65811476 69.7355846,7.65811476 64.7344633,9.81671855 C63.7913863,10.2575192 62.9578117,10.9019959 62.2937853,11.7037242 C62.4067797,13.0370575 63.4237288,14.3590914 65.480226,15.3760406 C70.487631,17.5231997 76.1564368,17.5231997 81.1638418,15.3760406 C82.116434,14.9350127 82.9610304,14.2909597 83.6384181,13.4890349 C83.5141243,12.1557016 82.4519774,10.8336677 80.4067797,9.81671855 Z"/>
        <path fill="#919BAA" d="M71.7514124 13.828018C70.8221348 13.4216979 69.7654358 13.4216979 68.8361582 13.828018 68.0338983 14.2347976 68.0338983 14.8901649 68.8361582 15.2856451 69.7676462 15.6812509 70.8199244 15.6812509 71.7514124 15.2856451 72.5536723 14.8901649 72.5536723 14.2347976 71.7514124 13.828018zM77.0847458 11.2630462C76.1532577 10.8674405 75.1009796 10.8674405 74.1694915 11.2630462 73.3672316 11.6698259 73.3672316 12.3251931 74.1694915 12.7206733 75.1009796 13.1162791 76.1532577 13.1162791 77.0847458 12.7206733 77.8870056 12.3251931 77.8870056 11.6698259 77.0847458 11.2630462z" opacity=".32"/>
        <path fill="#EFF3F4" d="M60.4519774,17.2065491 C55.4508561,15.0479453 49.7807824,15.0479453 44.779661,17.2065491 C40.4858757,19.3760406 40.4858757,22.8562666 44.779661,25.0370575 C49.783259,27.1836403 55.4483794,27.1836403 60.4519774,25.0370575 C64.7344633,22.9014643 64.7344633,19.3760406 60.4519774,17.2065491 Z"/>
        <path fill="#E4E8EA" d="M59.6836158,19.4890349 C54.6809185,17.3190726 49.0026973,17.3190726 44,19.4890349 C43.056923,19.9298356 42.2233485,20.5743123 41.559322,21.3760406 C41.6723164,22.7093739 42.6892655,24.0314078 44.7570621,25.0370575 C49.7606601,27.1836403 55.4257806,27.1836403 60.4293785,25.0370575 C61.3833731,24.603477 62.2287289,23.962705 62.9039548,23.1613513 C62.779661,21.828018 61.7175141,20.5059841 59.6836158,19.4890349 Z"/>
        <path fill="#919BAA" d="M51.0169492 23.5003344C50.0876716 23.0940143 49.0309725 23.0940143 48.1016949 23.5003344 47.3107345 23.8958146 47.3107345 24.5511818 48.1016949 24.9579615 49.033183 25.3535673 50.0854611 25.3535673 51.0169492 24.9579615 51.819209 24.5511818 51.819209 23.8958146 51.0169492 23.5003344zM56.3502825 20.9353626C55.4210049 20.5290426 54.3643058 20.5290426 53.4350282 20.9353626 52.6327684 21.3421423 52.6327684 21.9975095 53.4350282 22.3929897 54.3665163 22.7885955 55.4187944 22.7885955 56.3502825 22.3929897 57.1525424 21.9975095 57.1525424 21.3421423 56.3502825 20.9353626z" opacity=".32"/>
      </g>
      <path fill="#3A304D" d="M31.6236699,41.1473299 L31.5332745,41.1473299 C27.9965513,40.8535445 23.9965513,40.5258609 20.5954213,38.5371604 C19.5283865,37.9712354 18.6195437,37.1478393 17.9513535,36.1416801 C16.301636,33.5315106 17.262088,30.1868779 19.0812971,28.2320756 C20.9626246,26.4145491 23.3643046,25.2295097 25.9513535,24.8422451 C29.2739218,24.2526285 32.6450194,23.9802165 36.0191502,24.0286858 C40.2564383,23.9495897 44.2564383,23.8817931 48.041749,22.5936575 C48.9073896,22.332525 49.7161807,21.9108803 50.4259298,21.3507197 C50.9812282,20.8892398 51.3072782,20.2082493 51.3185852,19.4863129 C51.2281897,18.1190813 49.4767773,17.2264259 48.9344044,17.0004372 C45.6801671,15.5541095 41.9513535,15.8704937 38.3355343,16.1190813 C37.4880767,16.1868779 36.6293197,16.2546745 35.781862,16.2998722 C32.3920315,16.4806632 27.8157603,16.7292508 23.2168903,17.0908327 C14.1773423,17.8139965 3.35248349,17.9495897 0.505025866,12.684053 C-0.241945492,11.2788282 -0.155096035,9.57657882 0.731014567,8.25467449 C3.29598632,4.05128466 13.5558733,-0.31029726 29.9287547,0.0173863555 C30.5528052,0.0173863555 31.0586982,0.523279294 31.0586982,1.14732986 C31.0586982,1.77138042 30.5528052,2.27727336 29.9287547,2.27727336 C15.2394891,1.97218862 4.95700327,5.73490048 2.7084157,9.42981573 C2.23795157,10.0639312 2.17208488,10.9114159 2.53892417,11.6106067 C4.21124056,14.6953525 11.1151954,15.7800982 23.0925965,14.8422451 C27.702766,14.4806632 32.2564383,14.2207762 35.7140654,14.0399852 L38.2112406,13.8704937 C42.0982462,13.565409 46.1208451,13.2603242 49.8948564,14.9326406 C52.1547434,15.9269909 53.4993761,17.5315106 53.6236699,19.3394203 C53.660164,20.7513808 53.0582828,22.1045759 51.9852519,23.0230361 C51.0574222,23.8006881 49.9809308,24.3812245 48.82141,24.7292508 C44.6971163,26.1303807 40.3242349,26.2094768 36.1095456,26.2885728 C32.8797751,26.2425448 29.6528143,26.4997938 26.4711276,27.0569344 C24.346703,27.3725708 22.3726349,28.3398641 20.82141,29.825296 C19.6914665,31.1134316 18.9344044,33.3620191 19.962653,35.0004372 C20.4451931,35.6911231 21.0890727,36.2535481 21.8383592,36.6388553 C24.7988112,38.3676688 28.5276247,38.6727536 31.8157603,38.8987423 C32.4398109,38.9237043 32.9254681,39.449833 32.9005061,40.0738835 C32.8755441,40.6979341 32.3494154,41.1835913 31.7253648,41.1586293 L31.6236699,41.1473299 Z"/>
      <path fill="#919BAA" d="M54.6067208,42.5710587 C54.8591489,41.1191369 54.4902208,39.6279454 53.5899247,38.4612133 C52.6896286,37.2944811 51.3407327,36.559471 49.8722575,36.4354655 C47.7540376,35.6359625 45.4109791,35.6723203 43.3185852,36.5371604 C42.5408584,36.819005 41.7854319,37.1589469 41.0586982,37.5541095 C40.8367022,37.4649383 40.6055501,37.4005189 40.3694326,37.3620191 C37.521975,36.8874429 34.9570033,36.3789683 31.7931615,38.2094768 C29.9392687,39.3233278 28.3872385,40.875358 27.2733874,42.7292508 C26.1276411,44.373955 25.6732117,46.4026577 26.0078507,48.3789683 C26.4937264,50.1981773 28.0530485,51.2603242 30.2564383,51.565409 C30.9570033,51.6671039 31.6914665,51.7913977 32.4259298,51.825296 C33.0360993,53.8026971 37.9400541,56.8761434 43.4767773,55.2151265 C49.2055908,53.6219061 54.1547434,47.5880078 54.6067208,42.5710587 Z" opacity=".32"/>
      <path fill="#302842" d="M40.4485287,38.1077818 L40.5502236,36.9778383 C40.6503828,36.1130435 40.631373,35.2385934 40.4937264,34.3789683 C40.184384,32.7158626 38.7912229,31.4713053 37.1038959,31.3507197 C33.9852519,31.124731 31.1264948,30.8196462 28.7310146,33.2942225 C25.7199705,36.7523881 25.2173216,41.7335942 27.4767773,45.723601 C28.747897,47.6999004 30.9238625,48.9087701 33.2733874,48.94394 C35.3072858,49.0343355 37.5558733,49.3055219 38.7762123,47.2716236 C39.1661412,46.519301 39.4223093,45.7049158 39.5332745,44.864844 C39.9174552,42.6501547 40.2338394,40.3789683 40.4485287,38.1077818 Z"/>
      <path fill="#3A304D" d="M39.7366643,30.0738835 C34.8327095,32.9891378 32.3129355,40.1755784 34.0869468,46.0399852 C35.8609581,51.904392 41.4315795,54.2998722 46.3468338,51.3733186 C51.262088,48.4467649 53.7931615,41.203827 51.9965513,35.3959174 C50.1999411,29.5880078 44.6858168,27.1473299 39.7366643,30.0738835 Z"/>
      <path fill="#6C667F" d="M41.7592632,30.4467649 C36.8666078,33.3733186 34.3468338,40.6162564 36.1660428,46.424166 C37.9852519,52.2320756 43.5106756,54.684053 48.4372293,51.7461999 C53.3637829,48.8083468 55.8722575,41.5767084 54.0304496,35.7800982 C52.1886417,29.9834881 46.663218,27.5315106 41.7592632,30.4467649 Z"/>
      <path fill="#3A304D" d="M42.7762123,32.4919626 C38.8101106,34.8535445 36.7762123,40.6614542 38.2564383,45.3959174 C39.7366643,50.1303807 44.1999411,52.0738835 48.1773423,49.7123016 C52.1547434,47.3507197 54.1886417,41.5315106 52.6971163,36.7970474 C51.2055908,32.0625841 46.7310146,30.1303807 42.7762123,32.4919626 Z"/>
      <path fill="#F5D793" d="M48.8440089,37.5936575 C47.9815236,37.9802589 47.5482013,38.9540169 47.8383592,39.8535445 C47.9520288,40.2752219 48.2409847,40.627955 48.6320386,40.8224017 C49.0230924,41.0168483 49.4787343,41.0343573 49.8835569,40.8704937 C50.7427482,40.4802575 51.1782544,39.5124657 50.9005061,38.6106067 C50.781006,38.1902565 50.4894033,37.8399977 50.0976758,37.6462863 C49.7059482,37.4525748 49.2505935,37.4334591 48.8440089,37.5936575 L48.8440089,37.5936575 Z"/>
      <polygon fill="#F5D793" points="55.782 38.17 49.42 37.458 49.319 40.995 55.68 41.684"/>
      <path fill="#E5BC60" d="M55.2055908,38.2829231 C54.3386937,38.6654387 53.9000043,39.640304 54.1886417,40.5428101 C54.3050236,40.9652526 54.5962076,41.3179218 54.9889879,41.5121538 C55.3817683,41.7063858 55.8387843,41.7237058 56.2451389,41.5597592 C57.0999273,41.1655228 57.5301221,40.1987929 57.2507886,39.2998722 C57.1371189,38.8781948 56.8481631,38.5254618 56.4571092,38.3310151 C56.0660554,38.1365684 55.6104134,38.1190595 55.2055908,38.2829231 L55.2055908,38.2829231 Z"/>
      <path fill="#F5D793" d="M41.4315795,41.2716236 C40.5723883,41.6618599 40.136882,42.6296516 40.4146304,43.5315106 C40.5335522,43.9518902 40.8257792,44.3017828 41.2182436,44.4937022 C41.610708,44.6856216 42.0663084,44.7014248 42.4711276,44.5371604 C43.3336129,44.150559 43.7669352,43.176801 43.4767773,42.2772734 C43.3574235,41.8597628 43.0670026,41.5122366 42.6773275,41.3206284 C42.2876524,41.1290202 41.8351021,41.111218 41.4315795,41.2716236 L41.4315795,41.2716236 Z"/>
      <polygon fill="#F5D793" points="48.358 41.814 42.008 41.102 41.906 44.639 48.268 45.328"/>
      <path fill="#E5BC60" d="M47.781862,41.9269909 C46.9232584,42.317453 46.491521,43.2876495 46.7762123,44.1868779 C46.8898819,44.6085553 47.1788378,44.9612884 47.5698917,45.155735 C47.9609455,45.3501817 48.4165874,45.3676906 48.82141,45.203827 C49.6883071,44.8213115 50.1269966,43.8464461 49.8383592,42.94394 C49.7219773,42.5214975 49.4307933,42.1688283 49.0380129,41.9745963 C48.6452326,41.7803643 48.1882165,41.7630444 47.781862,41.9269909 L47.781862,41.9269909 Z"/>
    </g>
  </g>
</svg>
