<svg width="860" height="320" xmlns="http://www.w3.org/2000/svg"><g fill="none" fill-rule="evenodd"><rect fill="none" width="860" height="320" rx="4"/><g transform="translate(108 78)"><path fill-opacity=".12" fill="#000000" d="M0 33h488v1H0z"/><circle stroke-opacity=".24" stroke="#000000" cx="478" cy="10" r="9.5"/><path d="M454.929 14.063c.065-.77.103-1.496.114-2.178.012-.682.018-1.226.018-1.635 0-.677-.007-1.4-.021-2.17a63.583 63.583 0 00-.355-5.064l-1.363.208c.157 1.461.283 3.316.375 5.566.014.384.021.793.021 1.224 0 .357-.004.73-.014 1.12a64.701 64.701 0 01-.146 2.852l1.37.077zm-8.09 4.918c.389-.19.773-.405 1.15-.644.379-.238.738-.5 1.079-.782a9.21 9.21 0 00.946-.905c.29-.32.54-.656.751-1.008.211-.353.376-.718.494-1.096.118-.378.178-.769.178-1.172 0-.204-.017-.413-.05-.626a9.948 9.948 0 00-.12-.65 19.8 19.8 0 00-.16-.668 95.343 95.343 0 01-.171-.672 10.345 10.345 0 00-.174-.636c-.065-.211-.13-.426-.195-.644l-1.322.418c.125.39.244.779.355 1.168.051.19.104.385.16.585.056.2.107.399.153.598.046.2.085.394.115.584.03.19.045.371.045.543 0 .45-.109.886-.327 1.308-.218.422-.507.82-.866 1.196-.36.376-.769.723-1.228 1.04-.459.318-.932.597-1.419.839l.605 1.224zm-3.124-4.898c.431 0 .81-.06 1.134-.18.334-.121.612-.295.834-.522.223-.227.39-.502.501-.824a3.3 3.3 0 00.167-1.082c0-.265-.024-.536-.073-.814a7.696 7.696 0 00-.188-.814 12.239 12.239 0 00-.859-2.17l-1.217.64a12.273 12.273 0 01.588 1.422c.1.295.185.595.257.901.072.306.108.591.108.856a2 2 0 01-.07.55.93.93 0 01-.226.403.764.764 0 01-.354.212 1.566 1.566 0 01-.4.052c-.08 0-.163-.005-.25-.014a.65.65 0 01-.352-.136.847.847 0 01-.23-.292 1.47 1.47 0 01-.125-.41 3.026 3.026 0 01-.038-.49c0-.19.014-.408.041-.651.028-.243.06-.473.094-.689.035-.215.066-.4.094-.553l.035-.222-1.336-.244c-.027.19-.066.414-.114.671a9.558 9.558 0 01-.188.797 7.21 7.21 0 01-.278.807c-.11.264-.237.5-.383.71a2.008 2.008 0 01-.5.507c-.189.13-.4.195-.637.195a.735.735 0 01-.37-.083.622.622 0 01-.229-.223.974.974 0 01-.118-.316 1.894 1.894 0 01-.035-.366c0-.18.019-.377.056-.588.037-.21.081-.417.132-.619a12.768 12.768 0 01.292-.998l-1.377-.292c-.047.227-.102.468-.167.723a7.783 7.783 0 01-.237.762 5.556 5.556 0 01-.327.727 2.873 2.873 0 01-.441.616c-.17.178-.363.322-.581.431a1.626 1.626 0 01-.738.164h-.153V14h.146c.27 0 .516-.022.741-.066a2.704 2.704 0 001.13-.494c.158-.118.307-.252.446-.4.074.172.18.322.317.452.136.13.288.239.455.327.167.088.342.154.525.198.184.044.361.066.533.066.394 0 .767-.095 1.12-.285.352-.19.667-.447.946-.772.097.148.215.286.354.414.14.128.29.239.453.334.162.095.332.17.51.226.18.056.357.083.533.083h.049zm-7.98-.083v-1.363h-.138a2.77 2.77 0 01-.755-.09c-.211-.061-.37-.145-.477-.251a.58.58 0 01-.184-.359 3.758 3.758 0 01-.024-.441V8.003a48.55 48.55 0 00-.067-2.546 31.39 31.39 0 00-.076-1.12c-.03-.343-.066-.633-.108-.87l-1.363.251c.041.218.077.498.107.839.03.34.056.713.077 1.116.02.404.036.82.045 1.252.01.432.014.847.014 1.245.005.409.007.796.007 1.162 0 .371-.002.7-.007.988a211.355 211.355 0 00-.013.957v.198l.006.282a2.686 2.686 0 00.247 1.012c.081.176.198.34.351.494.25.25.556.436.915.556.36.12.794.181 1.305.181h.139zm-9.878 4.563c.242 0 .492-.018.752-.055a4.818 4.818 0 002.076-.828c.323-.227.608-.509.856-.845a4.16 4.16 0 00.595-1.183c.148-.452.222-.97.222-1.555 0-.366-.006-.8-.017-1.304-.012-.503-.026-1.041-.042-1.614a180.55 180.55 0 00-.059-1.77c-.023-.608-.046-1.201-.07-1.781a242.62 242.62 0 00-.18-4.265l-1.364.056a306.586 306.586 0 01.181 4.237l.07 1.77c.023.605.042 1.193.059 1.764.016.57.03 1.106.041 1.607.012.5.018.934.018 1.3 0 .395-.052.746-.157 1.054-.104.309-.243.58-.417.814a2.709 2.709 0 01-.602.595 3.418 3.418 0 01-1.43.588 4.02 4.02 0 01-.608.052 2.722 2.722 0 01-.7-.094 3.177 3.177 0 01-.566-.209 2.989 2.989 0 01-.553-.344 2.395 2.395 0 01-.473-.494 2.388 2.388 0 01-.327-.657 2.665 2.665 0 01-.122-.832 6.202 6.202 0 01.369-2.19c.05-.145.108-.278.17-.4.063-.124.127-.236.191-.338l-1.245-.557c-.157.227-.297.51-.417.849a7.737 7.737 0 00-.292 1.085 8.18 8.18 0 00-.14 1.551v.056c0 .44.056.84.167 1.197a3.48 3.48 0 001.158 1.757c.263.21.54.385.832.524a4.678 4.678 0 002.024.46zM412.09 14c.38 0 .734-.026 1.061-.077.327-.05.623-.139.887-.264.265-.125.498-.292.7-.5.201-.21.372-.471.51-.787.14-.32.21-.69.21-1.113 0-.074-.003-.148-.008-.222-.032-.515-.153-1.109-.361-1.781a9.033 9.033 0 00-.223-.644 14.063 14.063 0 00-.383-.897 1.712 1.712 0 01-.062-.143l-1.238.612.605 1.489c.097.237.171.463.222.678.051.216.082.385.09.508.01.123.015.215.015.275 0 .111-.007.216-.021.313a1.35 1.35 0 01-.104.369 1.245 1.245 0 01-.348.455c-.14.11-.302.192-.487.247-.186.056-.392.09-.62.101-.227.012-.475.018-.744.018h-.807V14h1.106zm1.141 3.624l1.134-1.134-1.14-1.14-1.135 1.133 1.141 1.141zM411.256 14v-1.363h-.14c-.324 0-.58-.046-.765-.136-.185-.09-.334-.261-.445-.511a.583.583 0 01-.026-.067l-.037-.118a6.804 6.804 0 01-.11-.483c-.047-.228-.1-.531-.16-.912a45.477 45.477 0 01-.23-1.71 253.025 253.025 0 01-.167-1.597 353.115 353.115 0 00-.077-.72v.007l-1.363.285.024.254.08.775c-.13.047-.283.106-.46.178-.175.072-.362.16-.56.264a8.072 8.072 0 00-.611.362 5.207 5.207 0 00-.612.466c-.198.174-.383.37-.557.588a3.768 3.768 0 00-.449.716 1.566 1.566 0 00-.097.341c-.023.13-.035.258-.035.383v.125c.005.172.034.348.087.529.053.18.145.347.275.5.468.58 1.3.87 2.497.87.228 0 .465-.01.713-.031.248-.021.519-.055.81-.101.247.394.553.677.919.849.241.11.483.182.727.212.243.03.453.045.63.045h.139zm-3.94-2.324h-.033c-.162 0-.322-.009-.48-.027a2.162 2.162 0 01-.51-.108.946.946 0 01-.37-.226.506.506 0 01-.142-.369c0-.148.04-.29.118-.428.079-.137.182-.265.31-.386.127-.12.271-.232.431-.334.16-.102.322-.196.487-.281a7.98 7.98 0 01.476-.23c.154-.067.286-.124.397-.17.074.593.14 1.085.198 1.474.058.39.115.72.17.988-.12.023-.267.044-.441.063a5.216 5.216 0 01-.644.035h.032zM390.594 14c.283 0 .55-.014.8-.042.25-.028.487-.08.71-.16.222-.079.432-.192.629-.34.197-.149.386-.346.567-.592.213.158.445.312.696.463.25.15.51.278.782.382a3.005 3.005 0 001.124.226c.19 0 .38-.025.57-.076a1.66 1.66 0 00.765-.449c.209-.215.374-.468.494-.758s.195-.555.223-.797c.028-.24.042-.436.042-.584 0-.167-.012-.33-.035-.487a4.21 4.21 0 00-.247-.918 2.864 2.864 0 00-.477-.807c-.2-.237-.44-.428-.72-.574a2.071 2.071 0 00-.97-.22c-.306 0-.574.062-.804.185-.23.123-.433.283-.612.48a3.668 3.668 0 00-.48.675c-.141.253-.275.509-.4.769-.144.287-.286.567-.428.838a3.398 3.398 0 01-.5.723c-.193.211-.426.38-.7.508-.273.128-.616.192-1.03.192h-.138V14h.139zm5.287-1.447c-.186 0-.394-.046-.626-.14-.348-.138-.733-.363-1.155-.674l.376-.758c.115-.227.219-.424.31-.591a3.74 3.74 0 01.256-.418.985.985 0 01.244-.247.466.466 0 01.26-.08c.14 0 .263.028.37.084.106.055.199.126.278.212.079.086.146.18.202.285a2.264 2.264 0 01.215.567c.019.079.03.135.035.167.019.125.028.246.028.362a2.082 2.082 0 01-.129.703c-.053.138-.117.252-.191.34a.444.444 0 01-.23.16 1.003 1.003 0 01-.243.028zm-8.119-4.967l1.134-1.134-1.14-1.14-1.134 1.133 1.14 1.141zM385.81 14c.681 0 1.254-.07 1.718-.212.464-.142.842-.358 1.134-.65.2.254.454.462.765.622.31.16.7.24 1.169.24h.139v-1.363h-.14c-.236 0-.43-.054-.58-.16a1.141 1.141 0 01-.355-.404 1.905 1.905 0 01-.184-.529 4.913 4.913 0 01-.077-.542 21.335 21.335 0 00-.125-1.204 6.534 6.534 0 00-.202-.946l-1.308.369c.103.352.173.665.213.939.04.274.059.543.059.807 0 .552-.176.968-.529 1.249-.352.28-.918.42-1.697.42h-.258V14h.258zm-3.047-6.24l1.134-1.134-1.141-1.14-1.134 1.133 1.14 1.141zm-2.999 11.374a12.712 12.712 0 001.705-1.03 9.084 9.084 0 001.471-1.304 6.295 6.295 0 001.033-1.54c.26-.553.39-1.132.39-1.74v-.028c.116.125.237.223.365.292a1.686 1.686 0 00.713.209c.102.005.186.007.25.007h.119v-1.363h-.112c-.231 0-.444-.056-.636-.167a1.88 1.88 0 01-.553-.526 4.913 4.913 0 01-.515-.925 15.038 15.038 0 01-.515-1.374l-1.308.404c.056.171.123.386.202.643.079.258.158.532.237.825.079.292.152.59.219.893.067.304.117.588.15.853a2.596 2.596 0 01-.077.94c-.084.31-.21.609-.38.896-.169.288-.376.562-.622.824a8.04 8.04 0 01-.807.748 9.486 9.486 0 01-.932.665c-.33.206-.66.395-.995.567l.598 1.23zm-5.147-.57c.24 0 .491-.02.751-.056a4.818 4.818 0 002.076-.828c.323-.227.608-.509.856-.845a4.16 4.16 0 00.595-1.183c.148-.452.223-.97.223-1.555 0-.366-.006-.8-.018-1.304-.011-.503-.025-1.041-.042-1.614a180.58 180.58 0 00-.059-1.77c-.023-.608-.046-1.201-.07-1.781a242.62 242.62 0 00-.18-4.265l-1.364.056a306.585 306.585 0 01.181 4.237l.07 1.77c.023.605.043 1.193.059 1.764.016.57.03 1.106.042 1.607.011.5.017.934.017 1.3 0 .395-.052.746-.156 1.054-.105.309-.244.58-.418.814a2.709 2.709 0 01-.602.595 3.418 3.418 0 01-1.43.588 4.02 4.02 0 01-.608.052 2.722 2.722 0 01-.7-.094 3.177 3.177 0 01-.566-.209 2.989 2.989 0 01-.553-.344 2.395 2.395 0 01-.473-.494 2.388 2.388 0 01-.327-.657 2.665 2.665 0 01-.122-.832 6.202 6.202 0 01.369-2.19c.051-.145.108-.278.17-.4.063-.124.127-.236.192-.338l-1.246-.557c-.157.227-.296.51-.417.849a7.737 7.737 0 00-.292 1.085 8.18 8.18 0 00-.14 1.551v.056c0 .44.056.84.168 1.197a3.48 3.48 0 001.158 1.757c.262.21.54.385.831.524a4.678 4.678 0 002.024.46z" fill-opacity=".87" fill="#000000" fill-rule="nonzero"/><path fill-opacity=".12" fill="#000000" d="M0 81h488v1H0z"/><circle stroke-opacity=".32" stroke="#EA475B" cx="478" cy="58" r="9.5"/><circle fill="#EA475B" fill-rule="nonzero" cx="478" cy="58" r="5"/><path d="M454.929 62.063c.065-.77.103-1.496.114-2.178.012-.682.018-1.226.018-1.635 0-.677-.007-1.4-.021-2.17a63.583 63.583 0 00-.355-5.064l-1.363.208c.157 1.461.283 3.316.375 5.566.014.384.021.793.021 1.224 0 .357-.004.73-.014 1.12a64.701 64.701 0 01-.146 2.852l1.37.077zm-8.09 4.918c.389-.19.773-.405 1.15-.644.379-.238.738-.5 1.079-.782a9.21 9.21 0 00.946-.905c.29-.32.54-.656.751-1.008.211-.353.376-.718.494-1.096.118-.378.178-.769.178-1.172 0-.204-.017-.413-.05-.626a9.948 9.948 0 00-.12-.65 19.8 19.8 0 00-.16-.668 95.343 95.343 0 01-.171-.672 10.345 10.345 0 00-.174-.636c-.065-.211-.13-.426-.195-.644l-1.322.418c.125.39.244.779.355 1.168.051.19.104.385.16.585.056.2.107.399.153.598.046.2.085.394.115.584.03.19.045.371.045.543 0 .45-.109.886-.327 1.308-.218.422-.507.82-.866 1.196-.36.376-.769.723-1.228 1.04-.459.318-.932.597-1.419.839l.605 1.224zm-3.124-4.898c.431 0 .81-.06 1.134-.18.334-.121.612-.295.834-.522.223-.227.39-.502.501-.824a3.3 3.3 0 00.167-1.082c0-.265-.024-.536-.073-.814a7.696 7.696 0 00-.188-.814 12.239 12.239 0 00-.859-2.17l-1.217.64a12.273 12.273 0 01.588 1.422c.1.295.185.595.257.901.072.306.108.591.108.856a2 2 0 01-.07.55.93.93 0 01-.226.403.764.764 0 01-.354.212 1.566 1.566 0 01-.4.052c-.08 0-.163-.005-.25-.014a.65.65 0 01-.352-.136.847.847 0 01-.23-.292 1.47 1.47 0 01-.125-.41 3.026 3.026 0 01-.038-.49c0-.19.014-.408.041-.651.028-.243.06-.473.094-.689.035-.215.066-.4.094-.553l.035-.222-1.336-.244c-.027.19-.066.414-.114.671a9.558 9.558 0 01-.188.797 7.21 7.21 0 01-.278.807c-.11.264-.237.5-.383.71a2.008 2.008 0 01-.5.507c-.189.13-.4.195-.637.195a.735.735 0 01-.37-.083.622.622 0 01-.229-.223.974.974 0 01-.118-.316 1.894 1.894 0 01-.035-.366c0-.18.019-.377.056-.588.037-.21.081-.417.132-.619a12.768 12.768 0 01.292-.998l-1.377-.292c-.047.227-.102.468-.167.723a7.783 7.783 0 01-.237.762 5.556 5.556 0 01-.327.727 2.873 2.873 0 01-.441.616c-.17.178-.363.322-.581.431a1.626 1.626 0 01-.738.164h-.153V62h.146c.27 0 .516-.022.741-.066a2.704 2.704 0 001.13-.494c.158-.118.307-.252.446-.4.074.172.18.322.317.452.136.13.288.239.455.327.167.088.342.154.525.198.184.044.361.066.533.066.394 0 .767-.095 1.12-.285.352-.19.667-.447.946-.772.097.148.215.286.354.414.14.128.29.239.453.334.162.095.332.17.51.226.18.056.357.083.533.083h.049zm-7.98-.083v-1.363h-.138a2.77 2.77 0 01-.755-.09c-.211-.061-.37-.145-.477-.251a.58.58 0 01-.184-.359 3.758 3.758 0 01-.024-.441v-3.493a48.55 48.55 0 00-.067-2.546 31.39 31.39 0 00-.076-1.12c-.03-.343-.066-.633-.108-.87l-1.363.251c.041.218.077.498.107.839.03.34.056.713.077 1.116.02.404.036.82.045 1.252.01.432.014.847.014 1.245.005.409.007.796.007 1.162 0 .371-.002.7-.007.988a211.355 211.355 0 00-.013.957v.198l.006.282a2.686 2.686 0 00.247 1.012c.081.176.198.34.351.494.25.25.556.436.915.556.36.12.794.181 1.305.181h.139zm-9.878 4.563c.242 0 .492-.018.752-.055a4.818 4.818 0 002.076-.828c.323-.227.608-.509.856-.845a4.16 4.16 0 00.595-1.183c.148-.452.222-.97.222-1.555 0-.366-.006-.8-.017-1.304-.012-.503-.026-1.041-.042-1.614a180.55 180.55 0 00-.059-1.77c-.023-.608-.046-1.201-.07-1.781a242.62 242.62 0 00-.18-4.265l-1.364.056a306.586 306.586 0 01.181 4.237l.07 1.77c.023.605.042 1.193.059 1.764.016.57.03 1.106.041 1.607.012.5.018.934.018 1.3 0 .395-.052.746-.157 1.054-.104.309-.243.58-.417.814a2.709 2.709 0 01-.602.595 3.418 3.418 0 01-1.43.588 4.02 4.02 0 01-.608.052 2.722 2.722 0 01-.7-.094 3.177 3.177 0 01-.566-.209 2.989 2.989 0 01-.553-.344 2.395 2.395 0 01-.473-.494 2.388 2.388 0 01-.327-.657 2.665 2.665 0 01-.122-.832 6.202 6.202 0 01.369-2.19c.05-.145.108-.278.17-.4.063-.124.127-.236.191-.338l-1.245-.557c-.157.227-.297.51-.417.849a7.737 7.737 0 00-.292 1.085 8.18 8.18 0 00-.14 1.551v.056c0 .44.056.84.167 1.197a3.48 3.48 0 001.158 1.757c.263.21.54.385.832.524a4.678 4.678 0 002.024.46zM412.09 62c.38 0 .734-.026 1.061-.077.327-.05.623-.139.887-.264.265-.125.498-.292.7-.5.201-.21.372-.471.51-.787.14-.32.21-.69.21-1.113 0-.074-.003-.148-.008-.222-.032-.515-.153-1.109-.361-1.781a9.033 9.033 0 00-.223-.644 14.063 14.063 0 00-.383-.897 1.712 1.712 0 01-.062-.143l-1.238.612.605 1.489c.097.237.171.463.222.678.051.216.082.385.09.508.01.123.015.215.015.275 0 .111-.007.216-.021.313a1.35 1.35 0 01-.104.369 1.245 1.245 0 01-.348.455c-.14.11-.302.192-.487.247-.186.056-.392.09-.62.101-.227.012-.475.018-.744.018h-.807V62h1.106zm1.141 3.624l1.134-1.134-1.14-1.14-1.135 1.133 1.141 1.141zM411.256 62v-1.363h-.14c-.324 0-.58-.046-.765-.136-.185-.09-.334-.261-.445-.511a.583.583 0 01-.026-.067l-.037-.118a6.804 6.804 0 01-.11-.483c-.047-.228-.1-.531-.16-.912a45.477 45.477 0 01-.23-1.71 253.016 253.016 0 01-.167-1.597 353.137 353.137 0 00-.077-.72v.007l-1.363.285.024.254.08.775c-.13.047-.283.106-.46.178-.175.072-.362.16-.56.264a8.072 8.072 0 00-.611.362 5.207 5.207 0 00-.612.466c-.198.174-.383.37-.557.588a3.768 3.768 0 00-.449.716 1.566 1.566 0 00-.097.341c-.023.13-.035.258-.035.383v.125c.005.172.034.348.087.529.053.18.145.347.275.5.468.58 1.3.87 2.497.87.228 0 .465-.01.713-.031.248-.021.519-.055.81-.101.247.394.553.677.919.849.241.11.483.182.727.212.243.03.453.045.63.045h.139zm-3.94-2.324h-.033c-.162 0-.322-.009-.48-.027a2.162 2.162 0 01-.51-.108.946.946 0 01-.37-.226.506.506 0 01-.142-.369c0-.148.04-.29.118-.428.079-.137.182-.265.31-.386.127-.12.271-.232.431-.334.16-.102.322-.196.487-.281a7.98 7.98 0 01.476-.23c.154-.067.286-.124.397-.17.074.593.14 1.085.198 1.474.058.39.115.72.17.988-.12.023-.267.044-.441.063a5.216 5.216 0 01-.644.035h.032zM390.594 62c.283 0 .55-.014.8-.042.25-.028.487-.08.71-.16.222-.079.432-.192.629-.34.197-.149.386-.346.567-.592.213.158.445.312.696.463.25.15.51.278.782.382a3.005 3.005 0 001.124.226c.19 0 .38-.025.57-.076a1.66 1.66 0 00.765-.449c.209-.215.374-.468.494-.758s.195-.555.223-.797c.028-.24.042-.436.042-.584 0-.167-.012-.33-.035-.487a4.21 4.21 0 00-.247-.918 2.864 2.864 0 00-.477-.807c-.2-.237-.44-.428-.72-.574a2.071 2.071 0 00-.97-.22c-.306 0-.574.062-.804.185-.23.123-.433.283-.612.48a3.668 3.668 0 00-.48.675c-.141.253-.275.509-.4.769-.144.287-.286.567-.428.838a3.398 3.398 0 01-.5.723c-.193.211-.426.38-.7.508-.273.128-.616.192-1.03.192h-.138V62h.139zm5.287-1.447c-.186 0-.394-.046-.626-.14-.348-.138-.733-.363-1.155-.674l.376-.758c.115-.227.219-.424.31-.591a3.74 3.74 0 01.256-.418.985.985 0 01.244-.247.466.466 0 01.26-.08c.14 0 .263.028.37.084.106.055.199.126.278.212.079.086.146.18.202.285a2.264 2.264 0 01.215.567c.019.079.03.135.035.167.019.125.028.246.028.362a2.082 2.082 0 01-.129.703c-.053.138-.117.252-.191.34a.444.444 0 01-.23.16 1.003 1.003 0 01-.243.028zM379.86 62c.723 0 1.407-.054 2.052-.163a14.231 14.231 0 001.833-.432c.577-.178 1.126-.38 1.645-.605.52-.225 1.018-.456 1.496-.692.116.297.289.562.518.796.23.235.503.433.821.595.318.162.676.287 1.075.372.399.086.828.129 1.287.129h.146v-1.363h-.146c-.084 0-.195-.004-.334-.01a4.039 4.039 0 01-.46-.053 4.861 4.861 0 01-.51-.115 2.302 2.302 0 01-.494-.202 1.718 1.718 0 01-.41-.313 1.06 1.06 0 01-.255-.448c.214-.107.425-.207.633-.3l.633-.278-.264-1.321c-.288 0-.573-.03-.856-.09a6.842 6.842 0 01-.848-.24 11.25 11.25 0 01-.846-.338c-.28-.126-.557-.253-.83-.383-.251-.116-.5-.23-.745-.34-.246-.112-.487-.21-.724-.296a5.637 5.637 0 00-.699-.206 3.12 3.12 0 00-.678-.076c-.45 0-.878.109-1.284.327-.405.218-.79.545-1.15.98a4.72 4.72 0 00-.331.439c-.095.144-.177.271-.244.383a3.543 3.543 0 00-.212.396l1.252.564a3.686 3.686 0 01.257-.456c.084-.128.184-.264.3-.41.116-.147.247-.283.393-.411.146-.128.305-.233.476-.317.172-.083.353-.125.543-.125.144 0 .301.022.473.066.172.044.354.104.546.178.192.074.392.159.598.254l.637.295c.283.135.57.267.862.397.293.13.599.25.919.362a57.07 57.07 0 01-1.607.772c-.543.25-1.103.473-1.68.668a13.45 13.45 0 01-1.806.47 10.67 10.67 0 01-1.982.177h-1.002V62h1.002zm-6.72 4.563c.241 0 .491-.018.751-.055a4.818 4.818 0 002.077-.828c.322-.227.607-.509.855-.845a4.16 4.16 0 00.595-1.183c.149-.452.223-.97.223-1.555v-.403c.171.097.36.173.567.226.206.053.47.08.79.08h.138v-1.363h-.139c-.246 0-.455-.043-.63-.13a1.274 1.274 0 01-.434-.344 1.489 1.489 0 01-.261-.49 2.03 2.03 0 01-.094-.567 693.158 693.158 0 00-.205-5.562c-.03-.707-.064-1.434-.101-2.18l-1.363.055a306.526 306.526 0 01.18 4.237c.024.575.047 1.165.07 1.77.023.605.043 1.193.06 1.764.015.57.03 1.106.04 1.607.012.5.018.934.018 1.3 0 .395-.052.746-.156 1.054-.105.309-.244.58-.418.814a2.709 2.709 0 01-.601.595 3.418 3.418 0 01-1.43.588 4.02 4.02 0 01-.609.052 2.722 2.722 0 01-.7-.094 3.177 3.177 0 01-.566-.209 2.989 2.989 0 01-.553-.344 2.395 2.395 0 01-.473-.494 2.388 2.388 0 01-.327-.657 2.665 2.665 0 01-.122-.832 6.202 6.202 0 01.37-2.19c.05-.145.107-.278.17-.4.062-.124.126-.236.19-.338l-1.244-.557c-.158.227-.297.51-.418.849a7.737 7.737 0 00-.292 1.085 8.18 8.18 0 00-.139 1.551v.056c0 .44.056.84.167 1.197a3.48 3.48 0 001.158 1.757c.262.21.54.385.832.524a4.678 4.678 0 002.024.46zM358.63 62c.24 0 .442-.016.605-.049.983-.18 1.68-.637 2.094-1.37.097-.176.182-.371.254-.584.071-.214.116-.405.132-.574.016-.17.024-.303.024-.4a3.57 3.57 0 00-.042-.53 4.165 4.165 0 00-.25-.903 5.846 5.846 0 00-.529-1.013 8.611 8.611 0 00-.87-1.116 10.845 10.845 0 00-.8-.8c-.268-.241-.516-.46-.744-.654l4.981-2.094-.535-1.266-5.719 2.449-.16 1.426c.38.306.754.635 1.12.988.367.352.698.696.995 1.033.297.336.546.651.748.946.202.294.328.537.379.727.065.25.097.484.097.702a1.71 1.71 0 01-.278.946c-.13.195-.308.345-.535.449-.228.104-.478.18-.752.23a5.667 5.667 0 01-.862.083c-.302.007-.592.01-.87.01h-.87V62h2.387zm-2.108 0v-1.363h-.14a2.77 2.77 0 01-.754-.09c-.211-.061-.37-.145-.477-.251a.58.58 0 01-.184-.359 3.758 3.758 0 01-.024-.441v-3.493a48.55 48.55 0 00-.066-2.546 31.39 31.39 0 00-.077-1.12c-.03-.343-.066-.633-.108-.87l-1.363.251c.041.218.077.498.108.839.03.34.055.713.076 1.116.02.404.036.82.045 1.252.01.432.014.847.014 1.245.005.409.007.796.007 1.162 0 .371-.002.7-.007.988a211.355 211.355 0 00-.013.957v.08c0 .11.002.244.006.4a2.686 2.686 0 00.247 1.012c.081.176.198.34.351.494.25.25.556.436.915.556.36.12.794.181 1.305.181h.139zm-9.913 4.98c.39-.19.773-.404 1.151-.643.378-.238.737-.5 1.078-.782a9.21 9.21 0 00.946-.905c.29-.32.54-.656.752-1.008.21-.353.375-.718.494-1.096.118-.378.177-.769.177-1.172 0-.204-.016-.413-.049-.626a9.948 9.948 0 00-.121-.65 19.8 19.8 0 00-.16-.668 95.343 95.343 0 01-.17-.672 10.346 10.346 0 00-.175-.636c-.065-.211-.13-.426-.195-.644l-1.321.418c.125.39.243.779.354 1.168l.16.585c.056.2.107.399.153.598.047.2.085.394.115.584.03.19.045.371.045.543 0 .45-.109.886-.326 1.308-.218.422-.507.82-.867 1.196-.359.376-.768.723-1.227 1.04-.46.318-.933.597-1.42.839l.606 1.224z" fill-opacity=".87" fill="#000000" fill-rule="nonzero"/></g><g transform="translate(108 174)"><path fill-opacity=".12" fill="#000000" d="M0 33h488v1H0z"/><circle stroke-opacity=".12" stroke="#000000" cx="478" cy="10" r="9.5"/><path d="M454.929 14.063c.065-.77.103-1.496.114-2.178.012-.682.018-1.226.018-1.635 0-.677-.007-1.4-.021-2.17a63.583 63.583 0 00-.355-5.064l-1.363.208c.157 1.461.283 3.316.375 5.566.014.384.021.793.021 1.224 0 .357-.004.73-.014 1.12a64.701 64.701 0 01-.146 2.852l1.37.077zm-8.09 4.918c.389-.19.773-.405 1.15-.644.379-.238.738-.5 1.079-.782a9.21 9.21 0 00.946-.905c.29-.32.54-.656.751-1.008.211-.353.376-.718.494-1.096.118-.378.178-.769.178-1.172 0-.204-.017-.413-.05-.626a9.948 9.948 0 00-.12-.65 19.8 19.8 0 00-.16-.668 95.343 95.343 0 01-.171-.672 10.345 10.345 0 00-.174-.636c-.065-.211-.13-.426-.195-.644l-1.322.418c.125.39.244.779.355 1.168.051.19.104.385.16.585.056.2.107.399.153.598.046.2.085.394.115.584.03.19.045.371.045.543 0 .45-.109.886-.327 1.308-.218.422-.507.82-.866 1.196-.36.376-.769.723-1.228 1.04-.459.318-.932.597-1.419.839l.605 1.224zm-3.124-4.898c.431 0 .81-.06 1.134-.18.334-.121.612-.295.834-.522.223-.227.39-.502.501-.824a3.3 3.3 0 00.167-1.082c0-.265-.024-.536-.073-.814a7.696 7.696 0 00-.188-.814 12.239 12.239 0 00-.859-2.17l-1.217.64a12.273 12.273 0 01.588 1.422c.1.295.185.595.257.901.072.306.108.591.108.856a2 2 0 01-.07.55.93.93 0 01-.226.403.764.764 0 01-.354.212 1.566 1.566 0 01-.4.052c-.08 0-.163-.005-.25-.014a.65.65 0 01-.352-.136.847.847 0 01-.23-.292 1.47 1.47 0 01-.125-.41 3.026 3.026 0 01-.038-.49c0-.19.014-.408.041-.651.028-.243.06-.473.094-.689.035-.215.066-.4.094-.553l.035-.222-1.336-.244c-.027.19-.066.414-.114.671a9.558 9.558 0 01-.188.797 7.21 7.21 0 01-.278.807c-.11.264-.237.5-.383.71a2.008 2.008 0 01-.5.507c-.189.13-.4.195-.637.195a.735.735 0 01-.37-.083.622.622 0 01-.229-.223.974.974 0 01-.118-.316 1.894 1.894 0 01-.035-.366c0-.18.019-.377.056-.588.037-.21.081-.417.132-.619a12.768 12.768 0 01.292-.998l-1.377-.292c-.047.227-.102.468-.167.723a7.783 7.783 0 01-.237.762 5.556 5.556 0 01-.327.727 2.873 2.873 0 01-.441.616c-.17.178-.363.322-.581.431a1.626 1.626 0 01-.738.164h-.153V14h.146c.27 0 .516-.022.741-.066a2.704 2.704 0 001.13-.494c.158-.118.307-.252.446-.4.074.172.18.322.317.452.136.13.288.239.455.327.167.088.342.154.525.198.184.044.361.066.533.066.394 0 .767-.095 1.12-.285.352-.19.667-.447.946-.772.097.148.215.286.354.414.14.128.29.239.453.334.162.095.332.17.51.226.18.056.357.083.533.083h.049zm-7.98-.083v-1.363h-.138a2.77 2.77 0 01-.755-.09c-.211-.061-.37-.145-.477-.251a.58.58 0 01-.184-.359 3.758 3.758 0 01-.024-.441V8.003a48.55 48.55 0 00-.067-2.546 31.39 31.39 0 00-.076-1.12c-.03-.343-.066-.633-.108-.87l-1.363.251c.041.218.077.498.107.839.03.34.056.713.077 1.116.02.404.036.82.045 1.252.01.432.014.847.014 1.245.005.409.007.796.007 1.162 0 .371-.002.7-.007.988a211.355 211.355 0 00-.013.957v.198l.006.282a2.686 2.686 0 00.247 1.012c.081.176.198.34.351.494.25.25.556.436.915.556.36.12.794.181 1.305.181h.139zm-9.878 4.563c.242 0 .492-.018.752-.055a4.818 4.818 0 002.076-.828c.323-.227.608-.509.856-.845a4.16 4.16 0 00.595-1.183c.148-.452.222-.97.222-1.555 0-.366-.006-.8-.017-1.304-.012-.503-.026-1.041-.042-1.614a180.55 180.55 0 00-.059-1.77c-.023-.608-.046-1.201-.07-1.781a242.62 242.62 0 00-.18-4.265l-1.364.056a306.586 306.586 0 01.181 4.237l.07 1.77c.023.605.042 1.193.059 1.764.016.57.03 1.106.041 1.607.012.5.018.934.018 1.3 0 .395-.052.746-.157 1.054-.104.309-.243.58-.417.814a2.709 2.709 0 01-.602.595 3.418 3.418 0 01-1.43.588 4.02 4.02 0 01-.608.052 2.722 2.722 0 01-.7-.094 3.177 3.177 0 01-.566-.209 2.989 2.989 0 01-.553-.344 2.395 2.395 0 01-.473-.494 2.388 2.388 0 01-.327-.657 2.665 2.665 0 01-.122-.832 6.202 6.202 0 01.369-2.19c.05-.145.108-.278.17-.4.063-.124.127-.236.191-.338l-1.245-.557c-.157.227-.297.51-.417.849a7.737 7.737 0 00-.292 1.085 8.18 8.18 0 00-.14 1.551v.056c0 .44.056.84.167 1.197a3.48 3.48 0 001.158 1.757c.263.21.54.385.832.524a4.678 4.678 0 002.024.46zM412.09 14c.38 0 .734-.026 1.061-.077.327-.05.623-.139.887-.264.265-.125.498-.292.7-.5.201-.21.372-.471.51-.787.14-.32.21-.69.21-1.113 0-.074-.003-.148-.008-.222-.032-.515-.153-1.109-.361-1.781a9.033 9.033 0 00-.223-.644 14.063 14.063 0 00-.383-.897 1.712 1.712 0 01-.062-.143l-1.238.612.605 1.489c.097.237.171.463.222.678.051.216.082.385.09.508.01.123.015.215.015.275 0 .111-.007.216-.021.313a1.35 1.35 0 01-.104.369 1.245 1.245 0 01-.348.455c-.14.11-.302.192-.487.247-.186.056-.392.09-.62.101-.227.012-.475.018-.744.018h-.807V14h1.106zm1.141 3.624l1.134-1.134-1.14-1.14-1.135 1.133 1.141 1.141zM411.256 14v-1.363h-.14c-.324 0-.58-.046-.765-.136-.185-.09-.334-.261-.445-.511a.583.583 0 01-.026-.067l-.037-.118a6.804 6.804 0 01-.11-.483c-.047-.228-.1-.531-.16-.912a45.477 45.477 0 01-.23-1.71 253.025 253.025 0 01-.167-1.597 353.115 353.115 0 00-.077-.72v.007l-1.363.285.024.254.08.775c-.13.047-.283.106-.46.178-.175.072-.362.16-.56.264a8.072 8.072 0 00-.611.362 5.207 5.207 0 00-.612.466c-.198.174-.383.37-.557.588a3.768 3.768 0 00-.449.716 1.566 1.566 0 00-.097.341c-.023.13-.035.258-.035.383v.125c.005.172.034.348.087.529.053.18.145.347.275.5.468.58 1.3.87 2.497.87.228 0 .465-.01.713-.031.248-.021.519-.055.81-.101.247.394.553.677.919.849.241.11.483.182.727.212.243.03.453.045.63.045h.139zm-3.94-2.324h-.033c-.162 0-.322-.009-.48-.027a2.162 2.162 0 01-.51-.108.946.946 0 01-.37-.226.506.506 0 01-.142-.369c0-.148.04-.29.118-.428.079-.137.182-.265.31-.386.127-.12.271-.232.431-.334.16-.102.322-.196.487-.281a7.98 7.98 0 01.476-.23c.154-.067.286-.124.397-.17.074.593.14 1.085.198 1.474.058.39.115.72.17.988-.12.023-.267.044-.441.063a5.216 5.216 0 01-.644.035h.032zM390.594 14c.283 0 .55-.014.8-.042.25-.028.487-.08.71-.16.222-.079.432-.192.629-.34.197-.149.386-.346.567-.592.213.158.445.312.696.463.25.15.51.278.782.382a3.005 3.005 0 001.124.226c.19 0 .38-.025.57-.076a1.66 1.66 0 00.765-.449c.209-.215.374-.468.494-.758s.195-.555.223-.797c.028-.24.042-.436.042-.584 0-.167-.012-.33-.035-.487a4.21 4.21 0 00-.247-.918 2.864 2.864 0 00-.477-.807c-.2-.237-.44-.428-.72-.574a2.071 2.071 0 00-.97-.22c-.306 0-.574.062-.804.185-.23.123-.433.283-.612.48a3.668 3.668 0 00-.48.675c-.141.253-.275.509-.4.769-.144.287-.286.567-.428.838a3.398 3.398 0 01-.5.723c-.193.211-.426.38-.7.508-.273.128-.616.192-1.03.192h-.138V14h.139zm5.287-1.447c-.186 0-.394-.046-.626-.14-.348-.138-.733-.363-1.155-.674l.376-.758c.115-.227.219-.424.31-.591a3.74 3.74 0 01.256-.418.985.985 0 01.244-.247.466.466 0 01.26-.08c.14 0 .263.028.37.084.106.055.199.126.278.212.079.086.146.18.202.285a2.264 2.264 0 01.215.567c.019.079.03.135.035.167.019.125.028.246.028.362a2.082 2.082 0 01-.129.703c-.053.138-.117.252-.191.34a.444.444 0 01-.23.16 1.003 1.003 0 01-.243.028zm-8.119-4.967l1.134-1.134-1.14-1.14-1.134 1.133 1.14 1.141zM385.81 14c.681 0 1.254-.07 1.718-.212.464-.142.842-.358 1.134-.65.2.254.454.462.765.622.31.16.7.24 1.169.24h.139v-1.363h-.14c-.236 0-.43-.054-.58-.16a1.141 1.141 0 01-.355-.404 1.905 1.905 0 01-.184-.529 4.913 4.913 0 01-.077-.542 21.335 21.335 0 00-.125-1.204 6.534 6.534 0 00-.202-.946l-1.308.369c.103.352.173.665.213.939.04.274.059.543.059.807 0 .552-.176.968-.529 1.249-.352.28-.918.42-1.697.42h-.258V14h.258zm-3.047-6.24l1.134-1.134-1.141-1.14-1.134 1.133 1.14 1.141zm-2.999 11.374a12.712 12.712 0 001.705-1.03 9.084 9.084 0 001.471-1.304 6.295 6.295 0 001.033-1.54c.26-.553.39-1.132.39-1.74v-.028c.116.125.237.223.365.292a1.686 1.686 0 00.713.209c.102.005.186.007.25.007h.119v-1.363h-.112c-.231 0-.444-.056-.636-.167a1.88 1.88 0 01-.553-.526 4.913 4.913 0 01-.515-.925 15.038 15.038 0 01-.515-1.374l-1.308.404c.056.171.123.386.202.643.079.258.158.532.237.825.079.292.152.59.219.893.067.304.117.588.15.853a2.596 2.596 0 01-.077.94c-.084.31-.21.609-.38.896-.169.288-.376.562-.622.824a8.04 8.04 0 01-.807.748 9.486 9.486 0 01-.932.665c-.33.206-.66.395-.995.567l.598 1.23zm-5.147-.57c.24 0 .491-.02.751-.056a4.818 4.818 0 002.076-.828c.323-.227.608-.509.856-.845a4.16 4.16 0 00.595-1.183c.148-.452.223-.97.223-1.555 0-.366-.006-.8-.018-1.304-.011-.503-.025-1.041-.042-1.614a180.58 180.58 0 00-.059-1.77c-.023-.608-.046-1.201-.07-1.781a242.62 242.62 0 00-.18-4.265l-1.364.056a306.585 306.585 0 01.181 4.237l.07 1.77c.023.605.043 1.193.059 1.764.016.57.03 1.106.042 1.607.011.5.017.934.017 1.3 0 .395-.052.746-.156 1.054-.105.309-.244.58-.418.814a2.709 2.709 0 01-.602.595 3.418 3.418 0 01-1.43.588 4.02 4.02 0 01-.608.052 2.722 2.722 0 01-.7-.094 3.177 3.177 0 01-.566-.209 2.989 2.989 0 01-.553-.344 2.395 2.395 0 01-.473-.494 2.388 2.388 0 01-.327-.657 2.665 2.665 0 01-.122-.832 6.202 6.202 0 01.369-2.19c.051-.145.108-.278.17-.4.063-.124.127-.236.192-.338l-1.246-.557c-.157.227-.296.51-.417.849a7.737 7.737 0 00-.292 1.085 8.18 8.18 0 00-.14 1.551v.056c0 .44.056.84.168 1.197a3.48 3.48 0 001.158 1.757c.262.21.54.385.831.524a4.678 4.678 0 002.024.46z" fill-opacity=".32" fill="#000000" fill-rule="nonzero"/><path fill-opacity=".12" fill="#000000" d="M0 81h488v1H0z"/><circle fill-opacity=".12" fill="#000000" cx="478" cy="58" r="10"/><circle fill="#FFF" fill-rule="nonzero" cx="478" cy="58" r="5"/><path d="M454.929 62.063c.065-.77.103-1.496.114-2.178.012-.682.018-1.226.018-1.635 0-.677-.007-1.4-.021-2.17a63.583 63.583 0 00-.355-5.064l-1.363.208c.157 1.461.283 3.316.375 5.566.014.384.021.793.021 1.224 0 .357-.004.73-.014 1.12a64.701 64.701 0 01-.146 2.852l1.37.077zm-8.09 4.918c.389-.19.773-.405 1.15-.644.379-.238.738-.5 1.079-.782a9.21 9.21 0 00.946-.905c.29-.32.54-.656.751-1.008.211-.353.376-.718.494-1.096.118-.378.178-.769.178-1.172 0-.204-.017-.413-.05-.626a9.948 9.948 0 00-.12-.65 19.8 19.8 0 00-.16-.668 95.343 95.343 0 01-.171-.672 10.345 10.345 0 00-.174-.636c-.065-.211-.13-.426-.195-.644l-1.322.418c.125.39.244.779.355 1.168.051.19.104.385.16.585.056.2.107.399.153.598.046.2.085.394.115.584.03.19.045.371.045.543 0 .45-.109.886-.327 1.308-.218.422-.507.82-.866 1.196-.36.376-.769.723-1.228 1.04-.459.318-.932.597-1.419.839l.605 1.224zm-3.124-4.898c.431 0 .81-.06 1.134-.18.334-.121.612-.295.834-.522.223-.227.39-.502.501-.824a3.3 3.3 0 00.167-1.082c0-.265-.024-.536-.073-.814a7.696 7.696 0 00-.188-.814 12.239 12.239 0 00-.859-2.17l-1.217.64a12.273 12.273 0 01.588 1.422c.1.295.185.595.257.901.072.306.108.591.108.856a2 2 0 01-.07.55.93.93 0 01-.226.403.764.764 0 01-.354.212 1.566 1.566 0 01-.4.052c-.08 0-.163-.005-.25-.014a.65.65 0 01-.352-.136.847.847 0 01-.23-.292 1.47 1.47 0 01-.125-.41 3.026 3.026 0 01-.038-.49c0-.19.014-.408.041-.651.028-.243.06-.473.094-.689.035-.215.066-.4.094-.553l.035-.222-1.336-.244c-.027.19-.066.414-.114.671a9.558 9.558 0 01-.188.797 7.21 7.21 0 01-.278.807c-.11.264-.237.5-.383.71a2.008 2.008 0 01-.5.507c-.189.13-.4.195-.637.195a.735.735 0 01-.37-.083.622.622 0 01-.229-.223.974.974 0 01-.118-.316 1.894 1.894 0 01-.035-.366c0-.18.019-.377.056-.588.037-.21.081-.417.132-.619a12.768 12.768 0 01.292-.998l-1.377-.292c-.047.227-.102.468-.167.723a7.783 7.783 0 01-.237.762 5.556 5.556 0 01-.327.727 2.873 2.873 0 01-.441.616c-.17.178-.363.322-.581.431a1.626 1.626 0 01-.738.164h-.153V62h.146c.27 0 .516-.022.741-.066a2.704 2.704 0 001.13-.494c.158-.118.307-.252.446-.4.074.172.18.322.317.452.136.13.288.239.455.327.167.088.342.154.525.198.184.044.361.066.533.066.394 0 .767-.095 1.12-.285.352-.19.667-.447.946-.772.097.148.215.286.354.414.14.128.29.239.453.334.162.095.332.17.51.226.18.056.357.083.533.083h.049zm-7.98-.083v-1.363h-.138a2.77 2.77 0 01-.755-.09c-.211-.061-.37-.145-.477-.251a.58.58 0 01-.184-.359 3.758 3.758 0 01-.024-.441v-3.493a48.55 48.55 0 00-.067-2.546 31.39 31.39 0 00-.076-1.12c-.03-.343-.066-.633-.108-.87l-1.363.251c.041.218.077.498.107.839.03.34.056.713.077 1.116.02.404.036.82.045 1.252.01.432.014.847.014 1.245.005.409.007.796.007 1.162 0 .371-.002.7-.007.988a211.355 211.355 0 00-.013.957v.198l.006.282a2.686 2.686 0 00.247 1.012c.081.176.198.34.351.494.25.25.556.436.915.556.36.12.794.181 1.305.181h.139zm-9.878 4.563c.242 0 .492-.018.752-.055a4.818 4.818 0 002.076-.828c.323-.227.608-.509.856-.845a4.16 4.16 0 00.595-1.183c.148-.452.222-.97.222-1.555 0-.366-.006-.8-.017-1.304-.012-.503-.026-1.041-.042-1.614a180.55 180.55 0 00-.059-1.77c-.023-.608-.046-1.201-.07-1.781a242.62 242.62 0 00-.18-4.265l-1.364.056a306.586 306.586 0 01.181 4.237l.07 1.77c.023.605.042 1.193.059 1.764.016.57.03 1.106.041 1.607.012.5.018.934.018 1.3 0 .395-.052.746-.157 1.054-.104.309-.243.58-.417.814a2.709 2.709 0 01-.602.595 3.418 3.418 0 01-1.43.588 4.02 4.02 0 01-.608.052 2.722 2.722 0 01-.7-.094 3.177 3.177 0 01-.566-.209 2.989 2.989 0 01-.553-.344 2.395 2.395 0 01-.473-.494 2.388 2.388 0 01-.327-.657 2.665 2.665 0 01-.122-.832 6.202 6.202 0 01.369-2.19c.05-.145.108-.278.17-.4.063-.124.127-.236.191-.338l-1.245-.557c-.157.227-.297.51-.417.849a7.737 7.737 0 00-.292 1.085 8.18 8.18 0 00-.14 1.551v.056c0 .44.056.84.167 1.197a3.48 3.48 0 001.158 1.757c.263.21.54.385.832.524a4.678 4.678 0 002.024.46zM412.09 62c.38 0 .734-.026 1.061-.077.327-.05.623-.139.887-.264.265-.125.498-.292.7-.5.201-.21.372-.471.51-.787.14-.32.21-.69.21-1.113 0-.074-.003-.148-.008-.222-.032-.515-.153-1.109-.361-1.781a9.033 9.033 0 00-.223-.644 14.063 14.063 0 00-.383-.897 1.712 1.712 0 01-.062-.143l-1.238.612.605 1.489c.097.237.171.463.222.678.051.216.082.385.09.508.01.123.015.215.015.275 0 .111-.007.216-.021.313a1.35 1.35 0 01-.104.369 1.245 1.245 0 01-.348.455c-.14.11-.302.192-.487.247-.186.056-.392.09-.62.101-.227.012-.475.018-.744.018h-.807V62h1.106zm1.141 3.624l1.134-1.134-1.14-1.14-1.135 1.133 1.141 1.141zM411.256 62v-1.363h-.14c-.324 0-.58-.046-.765-.136-.185-.09-.334-.261-.445-.511a.583.583 0 01-.026-.067l-.037-.118a6.804 6.804 0 01-.11-.483c-.047-.228-.1-.531-.16-.912a45.477 45.477 0 01-.23-1.71 253.016 253.016 0 01-.167-1.597 353.137 353.137 0 00-.077-.72v.007l-1.363.285.024.254.08.775c-.13.047-.283.106-.46.178-.175.072-.362.16-.56.264a8.072 8.072 0 00-.611.362 5.207 5.207 0 00-.612.466c-.198.174-.383.37-.557.588a3.768 3.768 0 00-.449.716 1.566 1.566 0 00-.097.341c-.023.13-.035.258-.035.383v.125c.005.172.034.348.087.529.053.18.145.347.275.5.468.58 1.3.87 2.497.87.228 0 .465-.01.713-.031.248-.021.519-.055.81-.101.247.394.553.677.919.849.241.11.483.182.727.212.243.03.453.045.63.045h.139zm-3.94-2.324h-.033c-.162 0-.322-.009-.48-.027a2.162 2.162 0 01-.51-.108.946.946 0 01-.37-.226.506.506 0 01-.142-.369c0-.148.04-.29.118-.428.079-.137.182-.265.31-.386.127-.12.271-.232.431-.334.16-.102.322-.196.487-.281a7.98 7.98 0 01.476-.23c.154-.067.286-.124.397-.17.074.593.14 1.085.198 1.474.058.39.115.72.17.988-.12.023-.267.044-.441.063a5.216 5.216 0 01-.644.035h.032zM390.594 62c.283 0 .55-.014.8-.042.25-.028.487-.08.71-.16.222-.079.432-.192.629-.34.197-.149.386-.346.567-.592.213.158.445.312.696.463.25.15.51.278.782.382a3.005 3.005 0 001.124.226c.19 0 .38-.025.57-.076a1.66 1.66 0 00.765-.449c.209-.215.374-.468.494-.758s.195-.555.223-.797c.028-.24.042-.436.042-.584 0-.167-.012-.33-.035-.487a4.21 4.21 0 00-.247-.918 2.864 2.864 0 00-.477-.807c-.2-.237-.44-.428-.72-.574a2.071 2.071 0 00-.97-.22c-.306 0-.574.062-.804.185-.23.123-.433.283-.612.48a3.668 3.668 0 00-.48.675c-.141.253-.275.509-.4.769-.144.287-.286.567-.428.838a3.398 3.398 0 01-.5.723c-.193.211-.426.38-.7.508-.273.128-.616.192-1.03.192h-.138V62h.139zm5.287-1.447c-.186 0-.394-.046-.626-.14-.348-.138-.733-.363-1.155-.674l.376-.758c.115-.227.219-.424.31-.591a3.74 3.74 0 01.256-.418.985.985 0 01.244-.247.466.466 0 01.26-.08c.14 0 .263.028.37.084.106.055.199.126.278.212.079.086.146.18.202.285a2.264 2.264 0 01.215.567c.019.079.03.135.035.167.019.125.028.246.028.362a2.082 2.082 0 01-.129.703c-.053.138-.117.252-.191.34a.444.444 0 01-.23.16 1.003 1.003 0 01-.243.028zM379.86 62c.723 0 1.407-.054 2.052-.163a14.231 14.231 0 001.833-.432c.577-.178 1.126-.38 1.645-.605.52-.225 1.018-.456 1.496-.692.116.297.289.562.518.796.23.235.503.433.821.595.318.162.676.287 1.075.372.399.086.828.129 1.287.129h.146v-1.363h-.146c-.084 0-.195-.004-.334-.01a4.039 4.039 0 01-.46-.053 4.861 4.861 0 01-.51-.115 2.302 2.302 0 01-.494-.202 1.718 1.718 0 01-.41-.313 1.06 1.06 0 01-.255-.448c.214-.107.425-.207.633-.3l.633-.278-.264-1.321c-.288 0-.573-.03-.856-.09a6.842 6.842 0 01-.848-.24 11.25 11.25 0 01-.846-.338c-.28-.126-.557-.253-.83-.383-.251-.116-.5-.23-.745-.34-.246-.112-.487-.21-.724-.296a5.637 5.637 0 00-.699-.206 3.12 3.12 0 00-.678-.076c-.45 0-.878.109-1.284.327-.405.218-.79.545-1.15.98a4.72 4.72 0 00-.331.439c-.095.144-.177.271-.244.383a3.543 3.543 0 00-.212.396l1.252.564a3.686 3.686 0 01.257-.456c.084-.128.184-.264.3-.41.116-.147.247-.283.393-.411.146-.128.305-.233.476-.317.172-.083.353-.125.543-.125.144 0 .301.022.473.066.172.044.354.104.546.178.192.074.392.159.598.254l.637.295c.283.135.57.267.862.397.293.13.599.25.919.362a57.07 57.07 0 01-1.607.772c-.543.25-1.103.473-1.68.668a13.45 13.45 0 01-1.806.47 10.67 10.67 0 01-1.982.177h-1.002V62h1.002zm-6.72 4.563c.241 0 .491-.018.751-.055a4.818 4.818 0 002.077-.828c.322-.227.607-.509.855-.845a4.16 4.16 0 00.595-1.183c.149-.452.223-.97.223-1.555v-.403c.171.097.36.173.567.226.206.053.47.08.79.08h.138v-1.363h-.139c-.246 0-.455-.043-.63-.13a1.274 1.274 0 01-.434-.344 1.489 1.489 0 01-.261-.49 2.03 2.03 0 01-.094-.567 693.158 693.158 0 00-.205-5.562c-.03-.707-.064-1.434-.101-2.18l-1.363.055a306.526 306.526 0 01.18 4.237c.024.575.047 1.165.07 1.77.023.605.043 1.193.06 1.764.015.57.03 1.106.04 1.607.012.5.018.934.018 1.3 0 .395-.052.746-.156 1.054-.105.309-.244.58-.418.814a2.709 2.709 0 01-.601.595 3.418 3.418 0 01-1.43.588 4.02 4.02 0 01-.609.052 2.722 2.722 0 01-.7-.094 3.177 3.177 0 01-.566-.209 2.989 2.989 0 01-.553-.344 2.395 2.395 0 01-.473-.494 2.388 2.388 0 01-.327-.657 2.665 2.665 0 01-.122-.832 6.202 6.202 0 01.37-2.19c.05-.145.107-.278.17-.4.062-.124.126-.236.19-.338l-1.244-.557c-.158.227-.297.51-.418.849a7.737 7.737 0 00-.292 1.085 8.18 8.18 0 00-.139 1.551v.056c0 .44.056.84.167 1.197a3.48 3.48 0 001.158 1.757c.262.21.54.385.832.524a4.678 4.678 0 002.024.46zM358.63 62c.24 0 .442-.016.605-.049.983-.18 1.68-.637 2.094-1.37.097-.176.182-.371.254-.584.071-.214.116-.405.132-.574.016-.17.024-.303.024-.4a3.57 3.57 0 00-.042-.53 4.165 4.165 0 00-.25-.903 5.846 5.846 0 00-.529-1.013 8.611 8.611 0 00-.87-1.116 10.845 10.845 0 00-.8-.8c-.268-.241-.516-.46-.744-.654l4.981-2.094-.535-1.266-5.719 2.449-.16 1.426c.38.306.754.635 1.12.988.367.352.698.696.995 1.033.297.336.546.651.748.946.202.294.328.537.379.727.065.25.097.484.097.702a1.71 1.71 0 01-.278.946c-.13.195-.308.345-.535.449-.228.104-.478.18-.752.23a5.667 5.667 0 01-.862.083c-.302.007-.592.01-.87.01h-.87V62h2.387zm-2.108 0v-1.363h-.14a2.77 2.77 0 01-.754-.09c-.211-.061-.37-.145-.477-.251a.58.58 0 01-.184-.359 3.758 3.758 0 01-.024-.441v-3.493a48.55 48.55 0 00-.066-2.546 31.39 31.39 0 00-.077-1.12c-.03-.343-.066-.633-.108-.87l-1.363.251c.041.218.077.498.108.839.03.34.055.713.076 1.116.02.404.036.82.045 1.252.01.432.014.847.014 1.245.005.409.007.796.007 1.162 0 .371-.002.7-.007.988a211.355 211.355 0 00-.013.957v.08c0 .11.002.244.006.4a2.686 2.686 0 00.247 1.012c.081.176.198.34.351.494.25.25.556.436.915.556.36.12.794.181 1.305.181h.139zm-9.913 4.98c.39-.19.773-.404 1.151-.643.378-.238.737-.5 1.078-.782a9.21 9.21 0 00.946-.905c.29-.32.54-.656.752-1.008.21-.353.375-.718.494-1.096.118-.378.177-.769.177-1.172 0-.204-.016-.413-.049-.626a9.948 9.948 0 00-.121-.65 19.8 19.8 0 00-.16-.668 95.343 95.343 0 01-.17-.672 10.346 10.346 0 00-.175-.636c-.065-.211-.13-.426-.195-.644l-1.321.418c.125.39.243.779.354 1.168l.16.585c.056.2.107.399.153.598.047.2.085.394.115.584.03.19.045.371.045.543 0 .45-.109.886-.326 1.308-.218.422-.507.82-.867 1.196-.359.376-.768.723-1.227 1.04-.46.318-.933.597-1.42.839l.606 1.224z" fill-opacity=".32" fill="#000000" fill-rule="nonzero"/></g><g fill="#000000"><path d="M638.904 92v-4.5c.254-.605.737-.908 1.448-.908.191 0 .369.013.533.04v-1.007c-.11-.055-.27-.082-.48-.082-.653 0-1.157.283-1.512.85l-.018-.733h-1.055V92h1.084zm4.934.117c.7 0 1.3-.262 1.805-.785.039.32.09.543.152.668h1.137v-.094c-.149-.344-.223-.806-.223-1.388V87.6c-.016-.641-.23-1.144-.645-1.51-.414-.364-.986-.547-1.716-.547-.461 0-.884.086-1.269.258a2.3 2.3 0 00-.914.7c-.225.295-.337.6-.337.917h1.09c0-.277.13-.514.393-.709.261-.195.585-.293.972-.293.442 0 .776.112 1.002.337.227.225.34.526.34.905v.498h-1.055c-.91 0-1.616.183-2.118.548-.502.365-.753.878-.753 1.538 0 .543.2.991.6 1.345.401.353.914.53 1.539.53zm.158-.943c-.355 0-.646-.096-.873-.287-.227-.192-.34-.457-.34-.797 0-.777.664-1.166 1.992-1.166h.85v1.3c-.137.282-.357.51-.662.686a1.905 1.905 0 01-.967.264zm6.639.943c.773 0 1.377-.265 1.81-.797l.053.68h.996v-9h-1.084v3.305c-.433-.508-1.021-.762-1.764-.762-.746 0-1.35.296-1.81.888-.461.591-.691 1.374-.691 2.346v.082c0 .97.231 1.754.694 2.356.463.601 1.061.902 1.796.902zm.27-.92c-.524 0-.934-.203-1.231-.61-.297-.405-.445-.968-.445-1.687 0-.804.148-1.412.445-1.822.297-.41.71-.615 1.242-.615.672 0 1.17.299 1.494.896v2.912c-.316.618-.818.926-1.506.926zm4.915-6.603c.211 0 .371-.059.48-.176a.62.62 0 00.165-.44.64.64 0 00-.164-.445c-.11-.12-.27-.181-.48-.181-.212 0-.37.06-.478.181a.647.647 0 00-.161.446c0 .175.053.322.16.439.108.117.267.176.478.176zm.534 7.406v-6.34h-1.084V92h1.084zm4.335.117c.57 0 1.076-.137 1.515-.41.44-.273.777-.655 1.014-1.145.236-.49.354-1.044.354-1.662v-.076c0-.992-.266-1.787-.8-2.385-.533-.597-1.231-.896-2.094-.896-.559 0-1.056.135-1.491.404-.436.27-.776.653-1.02 1.149s-.366 1.054-.366 1.675v.077c0 .984.266 1.775.8 2.373.533.597 1.23.896 2.088.896zm0-.885c-.546 0-.983-.212-1.31-.638-.325-.426-.488-.99-.488-1.694 0-.793.164-1.402.492-1.828.328-.426.76-.638 1.295-.638.547 0 .985.215 1.315.647.33.432.495.995.495 1.69 0 .778-.162 1.382-.486 1.814-.324.432-.762.647-1.313.647zm10.12.885c.75 0 1.347-.294 1.793-.882.445-.588.668-1.366.668-2.335v-.093c0-1.012-.22-1.809-.66-2.391-.44-.582-1.044-.873-1.813-.873-.77 0-1.373.271-1.81.814V83h-1.085v9h.996l.053-.732c.438.566 1.057.85 1.858.85zm-.27-.92c-.703 0-1.22-.332-1.553-.996V87.46c.313-.664.827-.996 1.541-.996.535 0 .946.201 1.23.603.286.403.429.973.429 1.711 0 .809-.145 1.414-.434 1.817-.29.402-.693.603-1.213.603zm6.152.92c.817 0 1.436-.248 1.858-.744l.023.627h1.032v-6.34h-1.084v4.611c-.274.618-.825.926-1.653.926-.781 0-1.172-.48-1.172-1.441V85.66h-1.084v4.125c.004.77.183 1.35.536 1.743.354.393.869.59 1.544.59zm6.41 0c.27 0 .547-.039.833-.117v-.879c-.22.047-.391.07-.516.07-.254 0-.434-.063-.54-.19-.105-.127-.157-.317-.157-.571v-3.932h1.183v-.838h-1.183v-1.535h-1.084v1.535h-1.155v.838h1.155v3.932c0 .539.123.955.369 1.248.246.293.611.44 1.096.44zm3.92 0c.27 0 .547-.039.833-.117v-.879c-.22.047-.391.07-.516.07-.254 0-.434-.063-.54-.19-.105-.127-.157-.317-.157-.571v-3.932h1.183v-.838h-1.183v-1.535h-1.084v1.535h-1.155v.838h1.155v3.932c0 .539.123.955.369 1.248.246.293.611.44 1.095.44zm4.67 0c.57 0 1.076-.137 1.515-.41.44-.273.777-.655 1.014-1.145.236-.49.354-1.044.354-1.662v-.076c0-.992-.266-1.787-.8-2.385-.533-.597-1.231-.896-2.094-.896-.559 0-1.056.135-1.492.404-.435.27-.775.653-1.02 1.149-.243.496-.365 1.054-.365 1.675v.077c0 .984.266 1.775.8 2.373.533.597 1.229.896 2.088.896zm0-.885c-.546 0-.983-.212-1.31-.638-.325-.426-.488-.99-.488-1.694 0-.793.164-1.402.492-1.828.328-.426.76-.638 1.295-.638.547 0 .985.215 1.315.647.33.432.495.995.495 1.69 0 .778-.162 1.382-.486 1.814-.324.432-.762.647-1.313.647zm5.327.768v-4.518a1.91 1.91 0 01.62-.738c.266-.187.575-.281.926-.281.434 0 .753.11.958.328.206.219.31.557.314 1.014V92h1.084v-4.19c-.012-1.511-.688-2.267-2.027-2.267-.782 0-1.414.305-1.899.914l-.035-.797h-1.025V92h1.084zm8.724.732l3.557-9.263h-.926l-3.562 9.263h.931zm9.756-.615c.816 0 1.436-.248 1.857-.744l.024.627h1.031v-6.34h-1.084v4.611c-.273.618-.824.926-1.652.926-.781 0-1.172-.48-1.172-1.441V85.66h-1.084v4.125c.004.77.183 1.35.536 1.743.354.393.868.59 1.544.59zm5.643-.117v-4.518a1.91 1.91 0 01.62-.738c.266-.187.575-.281.926-.281.434 0 .753.11.959.328.205.219.31.557.313 1.014V92h1.084v-4.19c-.012-1.511-.688-2.267-2.027-2.267-.782 0-1.414.305-1.899.914l-.035-.797h-1.025V92h1.084zm7.869.117c.722 0 1.31-.17 1.763-.513.454-.341.68-.795.68-1.362 0-.34-.08-.628-.243-.864-.162-.236-.411-.439-.747-.607-.336-.167-.775-.312-1.316-.433-.54-.121-.915-.248-1.122-.381a.658.658 0 01-.31-.592c0-.277.111-.502.334-.674.222-.171.531-.257.926-.257.382 0 .7.107.952.322.252.215.378.47.378.767h1.09c0-.578-.224-1.052-.671-1.423-.448-.371-1.03-.557-1.75-.557-.683 0-1.245.18-1.684.539-.44.36-.66.799-.66 1.318 0 .313.078.582.232.809.155.227.393.422.715.586.322.164.758.305 1.307.422.549.117.933.257 1.154.419.22.162.331.39.331.682 0 .278-.124.5-.372.665-.248.166-.577.25-.987.25-.446 0-.804-.107-1.075-.32a1.122 1.122 0 01-.437-.864h-1.084c0 .375.11.723.331 1.046.22.322.526.573.917.753.39.18.84.27 1.348.27zm6.486 0c1.063 0 1.86-.408 2.39-1.224l-.661-.516c-.2.258-.432.465-.698.621-.265.156-.59.234-.972.234-.54 0-.984-.192-1.333-.577-.35-.384-.533-.89-.548-1.514h4.295v-.452c0-1.011-.229-1.789-.686-2.332-.457-.543-1.097-.814-1.922-.814-.504 0-.971.14-1.403.419-.432.28-.768.666-1.008 1.16-.24.494-.36 1.056-.36 1.685v.199c0 .945.27 1.7.808 2.265.54.564 1.239.846 2.098.846zm1.389-3.867h-3.176c.07-.574.254-1.02.55-1.339a1.446 1.446 0 011.102-.477c.453 0 .813.151 1.078.454.266.302.415.73.446 1.28v.082zM740.4 92v-9h-1.084v9h1.084zm4.366.117c1.062 0 1.859-.408 2.39-1.224l-.662-.516c-.2.258-.432.465-.697.621-.266.156-.59.234-.973.234-.539 0-.983-.192-1.333-.577-.35-.384-.532-.89-.548-1.514h4.295v-.452c0-1.011-.228-1.789-.685-2.332-.457-.543-1.098-.814-1.922-.814-.504 0-.972.14-1.403.419-.432.28-.768.666-1.008 1.16-.24.494-.36 1.056-.36 1.685v.199c0 .945.269 1.7.808 2.265.539.564 1.238.846 2.098.846zm1.388-3.867h-3.175c.07-.574.253-1.02.55-1.339a1.446 1.446 0 011.102-.477c.453 0 .812.151 1.078.454.266.302.414.73.445 1.28v.082zm4.881 3.867c.43 0 .837-.097 1.222-.293a2.47 2.47 0 00.923-.785c.23-.328.355-.674.375-1.037h-1.026a1.237 1.237 0 01-.48.879c-.29.234-.627.351-1.014.351-.558 0-.988-.197-1.289-.591-.3-.395-.451-.957-.451-1.688v-.205c0-.75.151-1.323.454-1.72.303-.396.73-.594 1.28-.594.41 0 .755.131 1.034.395.28.264.435.6.466 1.01h1.026c-.032-.679-.283-1.232-.753-1.657-.47-.426-1.062-.639-1.773-.639-.578 0-1.079.133-1.503.398a2.588 2.588 0 00-.975 1.12c-.227.48-.34 1.029-.34 1.646v.182c0 1 .255 1.788.765 2.364.51.576 1.196.864 2.06.864zm5.59 0c.27 0 .547-.039.832-.117v-.879c-.219.047-.39.07-.516.07-.254 0-.433-.063-.539-.19-.105-.127-.158-.317-.158-.571v-3.932h1.184v-.838h-1.184v-1.535h-1.084v1.535h-1.154v.838h1.154v3.932c0 .539.123.955.37 1.248.245.293.61.44 1.095.44zm4.7 0c1.062 0 1.859-.408 2.39-1.224l-.662-.516c-.2.258-.432.465-.698.621-.265.156-.59.234-.972.234-.54 0-.984-.192-1.333-.577-.35-.384-.532-.89-.548-1.514h4.295v-.452c0-1.011-.229-1.789-.686-2.332-.457-.543-1.097-.814-1.922-.814-.503 0-.971.14-1.403.419-.432.28-.767.666-1.008 1.16-.24.494-.36 1.056-.36 1.685v.199c0 .945.27 1.7.809 2.265.539.564 1.238.846 2.097.846zm1.388-3.867h-3.176c.07-.574.254-1.02.55-1.339a1.446 1.446 0 011.102-.477c.454 0 .813.151 1.079.454.265.302.414.73.445 1.28v.082zm4.564 3.867c.774 0 1.377-.265 1.81-.797l.054.68h.996v-9h-1.084v3.305c-.434-.508-1.022-.762-1.764-.762-.746 0-1.35.296-1.81.888-.461.591-.692 1.374-.692 2.346v.082c0 .97.232 1.754.694 2.356.463.601 1.062.902 1.796.902zm.27-.92c-.524 0-.934-.203-1.23-.61-.297-.405-.446-.968-.446-1.687 0-.804.149-1.412.445-1.822.297-.41.711-.615 1.243-.615.671 0 1.17.299 1.494.896v2.912c-.317.618-.819.926-1.506.926zM638.904 140v-4.5c.254-.605.737-.908 1.448-.908.191 0 .369.013.533.04v-1.007c-.11-.055-.27-.082-.48-.082-.653 0-1.157.283-1.512.85l-.018-.733h-1.055V140h1.084zm4.934.117c.7 0 1.3-.262 1.805-.785.039.32.09.543.152.668h1.137v-.094c-.149-.344-.223-.806-.223-1.388V135.6c-.016-.641-.23-1.144-.645-1.51-.414-.364-.986-.547-1.716-.547-.461 0-.884.086-1.269.258a2.3 2.3 0 00-.914.7c-.225.295-.337.6-.337.917h1.09c0-.277.13-.514.393-.709.261-.195.585-.293.972-.293.442 0 .776.112 1.002.337.227.225.34.526.34.905v.498h-1.055c-.91 0-1.616.183-2.118.548-.502.365-.753.878-.753 1.538 0 .543.2.991.6 1.345.401.353.914.53 1.539.53zm.158-.943c-.355 0-.646-.096-.873-.287-.227-.192-.34-.457-.34-.797 0-.778.664-1.166 1.992-1.166h.85v1.3c-.137.282-.357.51-.662.686a1.905 1.905 0 01-.967.264zm6.639.943c.773 0 1.377-.265 1.81-.797l.053.68h.996v-9h-1.084v3.305c-.433-.508-1.021-.762-1.764-.762-.746 0-1.35.296-1.81.888-.461.591-.691 1.374-.691 2.346v.082c0 .97.231 1.754.694 2.356.463.601 1.061.902 1.796.902zm.27-.92c-.524 0-.934-.203-1.231-.61-.297-.405-.445-.968-.445-1.687 0-.804.148-1.412.445-1.822.297-.41.71-.615 1.242-.615.672 0 1.17.299 1.494.896v2.912c-.316.618-.818.926-1.506.926zm4.915-6.603c.211 0 .371-.059.48-.176a.62.62 0 00.165-.44.64.64 0 00-.164-.445c-.11-.12-.27-.181-.48-.181-.212 0-.37.06-.478.181a.647.647 0 00-.161.446c0 .175.053.322.16.439.108.117.267.176.478.176zm.534 7.406v-6.34h-1.084V140h1.084zm4.335.117c.57 0 1.076-.137 1.515-.41.44-.273.777-.655 1.014-1.145.236-.49.354-1.044.354-1.662v-.076c0-.992-.266-1.787-.8-2.385-.533-.597-1.231-.896-2.094-.896-.559 0-1.056.135-1.491.404-.436.27-.776.653-1.02 1.149s-.366 1.054-.366 1.675v.077c0 .984.266 1.775.8 2.373.533.597 1.23.896 2.088.896zm0-.885c-.546 0-.983-.212-1.31-.638-.325-.426-.488-.99-.488-1.694 0-.793.164-1.402.492-1.828.328-.426.76-.638 1.295-.638.547 0 .985.215 1.315.647.33.432.495.995.495 1.69 0 .778-.162 1.382-.486 1.814-.324.432-.762.647-1.313.647zm10.12.885c.75 0 1.347-.294 1.793-.882.445-.588.668-1.366.668-2.335v-.093c0-1.012-.22-1.809-.66-2.391-.44-.582-1.044-.873-1.813-.873-.77 0-1.373.271-1.81.814V131h-1.085v9h.996l.053-.732c.438.566 1.057.85 1.858.85zm-.27-.92c-.703 0-1.22-.332-1.553-.996v-2.742c.313-.664.827-.996 1.541-.996.535 0 .946.201 1.23.603.286.403.429.973.429 1.711 0 .809-.145 1.414-.434 1.817-.29.402-.693.603-1.213.603zm6.152.92c.817 0 1.436-.248 1.858-.744l.023.627h1.032v-6.34h-1.084v4.611c-.274.618-.825.926-1.653.926-.781 0-1.172-.48-1.172-1.441v-4.096h-1.084v4.125c.004.77.183 1.35.536 1.743.354.393.869.59 1.544.59zm6.41 0c.27 0 .547-.039.833-.117v-.879c-.22.047-.391.07-.516.07-.254 0-.434-.063-.54-.19-.105-.127-.157-.317-.157-.571v-3.932h1.183v-.838h-1.183v-1.535h-1.084v1.535h-1.155v.838h1.155v3.932c0 .539.123.955.369 1.248.246.293.611.44 1.096.44zm3.92 0c.27 0 .547-.039.833-.117v-.879c-.22.047-.391.07-.516.07-.254 0-.434-.063-.54-.19-.105-.127-.157-.317-.157-.571v-3.932h1.183v-.838h-1.183v-1.535h-1.084v1.535h-1.155v.838h1.155v3.932c0 .539.123.955.369 1.248.246.293.611.44 1.095.44zm4.67 0c.57 0 1.076-.137 1.515-.41.44-.273.777-.655 1.014-1.145.236-.49.354-1.044.354-1.662v-.076c0-.992-.266-1.787-.8-2.385-.533-.597-1.231-.896-2.094-.896-.559 0-1.056.135-1.492.404-.435.27-.775.653-1.02 1.149-.243.496-.365 1.054-.365 1.675v.077c0 .984.266 1.775.8 2.373.533.597 1.229.896 2.088.896zm0-.885c-.546 0-.983-.212-1.31-.638-.325-.426-.488-.99-.488-1.694 0-.793.164-1.402.492-1.828.328-.426.76-.638 1.295-.638.547 0 .985.215 1.315.647.33.432.495.995.495 1.69 0 .778-.162 1.382-.486 1.814-.324.432-.762.647-1.313.647zm5.327.768v-4.518a1.91 1.91 0 01.62-.738c.266-.187.575-.281.926-.281.434 0 .753.11.958.328.206.219.31.557.314 1.014V140h1.084v-4.19c-.012-1.511-.688-2.267-2.027-2.267-.782 0-1.414.305-1.899.914l-.035-.797h-1.025V140h1.084zm8.724.732l3.557-9.263h-.926l-3.562 9.263h.931zm10.031-.615c.723 0 1.311-.17 1.764-.513.453-.341.68-.795.68-1.362 0-.34-.081-.628-.243-.864-.162-.236-.412-.439-.747-.607-.336-.167-.775-.312-1.316-.433-.54-.121-.915-.248-1.122-.381a.658.658 0 01-.31-.592c0-.277.11-.502.333-.674.223-.171.532-.257.926-.257.383 0 .7.107.952.322.252.215.378.47.378.767h1.09c0-.578-.223-1.052-.67-1.423-.448-.371-1.031-.557-1.75-.557-.683 0-1.245.18-1.684.539-.44.36-.66.799-.66 1.318 0 .313.078.582.232.809.154.227.393.422.715.586.322.164.758.305 1.306.422.55.117.934.257 1.155.419.22.162.33.39.33.682 0 .278-.123.5-.371.665-.248.166-.577.25-.988.25-.445 0-.803-.107-1.075-.32a1.122 1.122 0 01-.436-.864h-1.084c0 .375.11.723.33 1.046.221.322.527.573.918.753.39.18.84.27 1.347.27zm6.487 0c1.062 0 1.86-.408 2.39-1.224l-.662-.516c-.199.258-.431.465-.697.621-.266.156-.59.234-.973.234-.539 0-.983-.192-1.333-.577-.35-.384-.532-.89-.548-1.514h4.295v-.452c0-1.011-.228-1.789-.685-2.332-.457-.543-1.098-.814-1.922-.814-.504 0-.972.14-1.403.419-.432.28-.768.666-1.008 1.16-.24.494-.36 1.056-.36 1.685v.199c0 .945.269 1.7.808 2.265.54.564 1.238.846 2.098.846zm1.388-3.867h-3.175c.07-.574.254-1.02.55-1.339a1.446 1.446 0 011.102-.477c.453 0 .813.151 1.078.454.266.302.414.73.445 1.28v.082zm3.516 3.75v-9h-1.084v9h1.084zm4.365.117c1.063 0 1.86-.408 2.39-1.224l-.661-.516c-.2.258-.432.465-.697.621-.266.156-.59.234-.973.234-.54 0-.984-.192-1.333-.577-.35-.384-.532-.89-.548-1.514h4.295v-.452c0-1.011-.229-1.789-.686-2.332-.457-.543-1.097-.814-1.921-.814-.504 0-.972.14-1.404.419-.431.28-.767.666-1.008 1.16-.24.494-.36 1.056-.36 1.685v.199c0 .945.27 1.7.809 2.265.539.564 1.238.846 2.097.846zm1.389-3.867h-3.176c.07-.574.254-1.02.551-1.339a1.446 1.446 0 011.102-.477c.453 0 .812.151 1.078.454.265.302.414.73.445 1.28v.082zm4.88 3.867c.43 0 .838-.097 1.223-.293a2.47 2.47 0 00.922-.785c.23-.328.356-.674.375-1.037h-1.025a1.237 1.237 0 01-.48.879c-.29.234-.627.351-1.014.351-.559 0-.988-.197-1.29-.591-.3-.395-.45-.957-.45-1.688v-.205c0-.75.151-1.323.454-1.72.302-.396.73-.594 1.28-.594.41 0 .755.131 1.034.395.28.264.435.6.466 1.01h1.025c-.03-.679-.282-1.232-.753-1.657-.47-.426-1.061-.639-1.772-.639-.578 0-1.08.133-1.503.398a2.588 2.588 0 00-.976 1.12c-.226.48-.34 1.029-.34 1.646v.182c0 1 .255 1.788.765 2.364.51.576 1.197.864 2.06.864zm5.59 0c.27 0 .548-.039.833-.117v-.879c-.219.047-.39.07-.516.07-.254 0-.434-.063-.539-.19-.105-.127-.158-.317-.158-.571v-3.932h1.183v-.838h-1.183v-1.535h-1.084v1.535h-1.154v.838h1.154v3.932c0 .539.123.955.369 1.248.246.293.611.44 1.096.44zm4.7 0c1.062 0 1.86-.408 2.39-1.224l-.662-.516c-.199.258-.431.465-.697.621-.265.156-.59.234-.973.234-.539 0-.983-.192-1.333-.577-.35-.384-.532-.89-.547-1.514h4.295v-.452c0-1.011-.229-1.789-.686-2.332-.457-.543-1.098-.814-1.922-.814-.504 0-.972.14-1.403.419-.432.28-.768.666-1.008 1.16-.24.494-.36 1.056-.36 1.685v.199c0 .945.27 1.7.808 2.265.54.564 1.239.846 2.098.846zm1.389-3.867H746.3c.07-.574.254-1.02.55-1.339a1.446 1.446 0 011.102-.477c.453 0 .813.151 1.078.454.266.302.414.73.446 1.28v.082zm4.564 3.867c.773 0 1.377-.265 1.81-.797l.053.68h.996v-9h-1.084v3.305c-.433-.508-1.021-.762-1.763-.762-.746 0-1.35.296-1.81.888-.462.591-.692 1.374-.692 2.346v.082c0 .97.231 1.754.694 2.356.463.601 1.062.902 1.796.902zm.27-.92c-.524 0-.934-.203-1.23-.61-.298-.405-.446-.968-.446-1.687 0-.804.148-1.412.445-1.822.297-.41.711-.615 1.242-.615.672 0 1.17.299 1.494.896v2.912c-.316.618-.818.926-1.505.926zM639.725 187v-4.5c.254-.605.736-.908 1.447-.908.191 0 .369.013.533.04v-1.007c-.11-.055-.27-.082-.48-.082-.653 0-1.157.283-1.512.85l-.018-.733h-1.054V187h1.084zm4.933.117c.7 0 1.301-.262 1.805-.785.039.32.09.543.152.668h1.137v-.094c-.148-.344-.223-.806-.223-1.388V182.6c-.015-.641-.23-1.144-.644-1.51-.414-.364-.987-.547-1.717-.547-.461 0-.884.086-1.269.258a2.3 2.3 0 00-.914.7c-.224.295-.337.6-.337.917h1.09c0-.277.131-.514.393-.709.262-.195.586-.293.973-.293.44 0 .775.112 1.001.337.227.225.34.526.34.905v.498h-1.054c-.91 0-1.617.183-2.119.548-.501.365-.752.878-.752 1.538 0 .543.2.991.6 1.345.4.353.913.53 1.538.53zm.158-.943c-.355 0-.646-.096-.873-.287-.226-.192-.34-.457-.34-.797 0-.778.665-1.166 1.993-1.166h.85v1.3c-.137.282-.358.51-.663.686a1.905 1.905 0 01-.967.264zm6.64.943c.773 0 1.376-.265 1.81-.797l.052.68h.996v-9h-1.084v3.305c-.433-.508-1.021-.762-1.763-.762-.746 0-1.35.296-1.81.888-.462.591-.692 1.374-.692 2.346v.082c0 .97.231 1.754.694 2.356.463.601 1.062.902 1.796.902zm.269-.92c-.524 0-.934-.203-1.23-.61-.298-.405-.446-.968-.446-1.687 0-.804.148-1.412.445-1.822.297-.41.711-.615 1.242-.615.672 0 1.17.299 1.494.896v2.912c-.316.618-.818.926-1.505.926zm4.916-6.603c.21 0 .37-.059.48-.176a.62.62 0 00.164-.44.64.64 0 00-.164-.445c-.11-.12-.27-.181-.48-.181-.211 0-.37.06-.478.181a.647.647 0 00-.161.446c0 .175.054.322.161.439.108.117.267.176.478.176zm.533 7.406v-6.34h-1.084V187h1.084zm4.336.117c.57 0 1.075-.137 1.514-.41.44-.273.778-.655 1.014-1.145s.355-1.044.355-1.662v-.076c0-.992-.267-1.787-.8-2.385-.533-.597-1.232-.896-2.095-.896-.559 0-1.056.135-1.491.404-.436.27-.776.653-1.02 1.149s-.366 1.054-.366 1.675v.077c0 .984.267 1.775.8 2.373.533.597 1.23.896 2.089.896zm0-.885c-.547 0-.984-.212-1.31-.638-.326-.426-.49-.99-.49-1.694 0-.793.165-1.402.493-1.828.328-.426.76-.638 1.295-.638.547 0 .985.215 1.315.647.33.432.496.995.496 1.69 0 .778-.163 1.382-.487 1.814-.324.432-.761.647-1.312.647zm10.119.885c.75 0 1.348-.294 1.793-.882.445-.588.668-1.366.668-2.335v-.093c0-1.012-.22-1.809-.66-2.391-.439-.582-1.043-.873-1.813-.873s-1.373.271-1.81.814V178h-1.084v9h.996l.052-.732c.438.566 1.057.85 1.858.85zm-.27-.92c-.703 0-1.22-.332-1.552-.996v-2.742c.312-.664.826-.996 1.54-.996.536 0 .946.201 1.231.603.285.403.428.973.428 1.711 0 .809-.145 1.414-.434 1.817-.289.402-.693.603-1.213.603zm6.153.92c.816 0 1.435-.248 1.857-.744l.024.627h1.03v-6.34h-1.083v4.611c-.274.618-.824.926-1.652.926-.782 0-1.172-.48-1.172-1.441v-4.096h-1.084v4.125c.004.77.182 1.35.536 1.743.353.393.868.59 1.544.59zm6.41 0c.27 0 .547-.039.832-.117v-.879c-.219.047-.39.07-.516.07-.254 0-.433-.063-.539-.19-.105-.127-.158-.317-.158-.571v-3.932h1.184v-.838h-1.184v-1.535h-1.084v1.535h-1.154v.838h1.154v3.932c0 .539.123.955.37 1.248.245.293.61.44 1.095.44zm3.92 0c.27 0 .547-.039.832-.117v-.879c-.219.047-.39.07-.516.07-.254 0-.433-.063-.539-.19-.105-.127-.158-.317-.158-.571v-3.932h1.184v-.838h-1.184v-1.535h-1.084v1.535h-1.154v.838h1.154v3.932c0 .539.123.955.37 1.248.245.293.61.44 1.095.44zm4.67 0c.57 0 1.075-.137 1.514-.41.44-.273.778-.655 1.014-1.145s.355-1.044.355-1.662v-.076c0-.992-.267-1.787-.8-2.385-.533-.597-1.232-.896-2.095-.896-.559 0-1.056.135-1.491.404-.436.27-.776.653-1.02 1.149s-.366 1.054-.366 1.675v.077c0 .984.267 1.775.8 2.373.533.597 1.23.896 2.089.896zm0-.885c-.547 0-.984-.212-1.31-.638-.326-.426-.49-.99-.49-1.694 0-.793.165-1.402.493-1.828.328-.426.76-.638 1.295-.638.547 0 .985.215 1.315.647.33.432.496.995.496 1.69 0 .778-.163 1.382-.487 1.814-.324.432-.762.647-1.312.647zm5.326.768v-4.518a1.91 1.91 0 01.621-.738c.266-.187.574-.281.926-.281.433 0 .753.11.958.328.205.219.31.557.313 1.014V187h1.084v-4.19c-.011-1.511-.687-2.267-2.027-2.267-.781 0-1.414.305-1.899.914l-.035-.797h-1.025V187h1.084zm8.725.732l3.556-9.263h-.926l-3.562 9.263h.932zm9.755-.615c.817 0 1.436-.248 1.858-.744l.023.627h1.031v-6.34h-1.084v4.611c-.273.618-.824.926-1.652.926-.781 0-1.172-.48-1.172-1.441v-4.096h-1.084v4.125c.004.77.183 1.35.536 1.743.354.393.869.59 1.544.59zm5.643-.117v-4.518a1.91 1.91 0 01.621-.738c.266-.187.574-.281.926-.281.433 0 .753.11.958.328.205.219.31.557.313 1.014V187h1.084v-4.19c-.011-1.511-.687-2.267-2.027-2.267-.781 0-1.414.305-1.899.914l-.035-.797h-1.025V187h1.084zm7.87.117c.722 0 1.31-.17 1.763-.513.453-.341.68-.795.68-1.362 0-.34-.082-.628-.244-.864-.162-.236-.41-.439-.747-.607-.336-.167-.774-.312-1.315-.433-.541-.121-.915-.248-1.122-.381a.658.658 0 01-.31-.592c0-.277.11-.502.333-.674.223-.171.531-.257.926-.257.383 0 .7.107.952.322.252.215.378.47.378.767h1.09c0-.578-.224-1.052-.671-1.423-.447-.371-1.03-.557-1.75-.557-.683 0-1.244.18-1.684.539-.44.36-.659.799-.659 1.318 0 .313.077.582.232.809.154.227.392.422.714.586.323.164.758.305 1.307.422.549.117.934.257 1.154.419.221.162.331.39.331.682 0 .278-.124.5-.372.665-.248.166-.577.25-.987.25-.445 0-.804-.107-1.075-.32a1.122 1.122 0 01-.437-.864h-1.084c0 .375.11.723.331 1.046.221.322.527.573.917.753.391.18.84.27 1.348.27zm6.485 0c1.063 0 1.86-.408 2.391-1.224l-.662-.516c-.2.258-.432.465-.697.621-.266.156-.59.234-.973.234-.54 0-.983-.192-1.333-.577-.35-.384-.532-.89-.548-1.514h4.295v-.452c0-1.011-.228-1.789-.685-2.332-.458-.543-1.098-.814-1.922-.814-.504 0-.972.14-1.404.419-.431.28-.767.666-1.007 1.16-.24.494-.36 1.056-.36 1.685v.199c0 .945.269 1.7.808 2.265.539.564 1.238.846 2.097.846zm1.39-3.867h-3.177c.07-.574.254-1.02.551-1.339a1.446 1.446 0 011.102-.477c.453 0 .812.151 1.078.454.265.302.414.73.445 1.28v.082zm3.515 3.75v-9h-1.084v9h1.084zm4.365.117c1.062 0 1.86-.408 2.39-1.224l-.662-.516c-.199.258-.431.465-.697.621-.265.156-.59.234-.972.234-.54 0-.984-.192-1.333-.577-.35-.384-.533-.89-.548-1.514h4.295v-.452c0-1.011-.229-1.789-.686-2.332-.457-.543-1.098-.814-1.922-.814-.504 0-.972.14-1.403.419-.432.28-.768.666-1.008 1.16-.24.494-.36 1.056-.36 1.685v.199c0 .945.27 1.7.808 2.265.54.564 1.239.846 2.098.846zm1.389-3.867h-3.176c.07-.574.254-1.02.55-1.339a1.446 1.446 0 011.102-.477c.453 0 .813.151 1.078.454.266.302.414.73.446 1.28v.082zm4.88 3.867c.43 0 .837-.097 1.222-.293a2.47 2.47 0 00.923-.785c.23-.328.355-.674.375-1.037h-1.025a1.237 1.237 0 01-.48.879c-.29.234-.628.351-1.015.351-.558 0-.988-.197-1.289-.591-.3-.395-.45-.957-.45-1.688v-.205c0-.75.15-1.323.453-1.72.303-.396.73-.594 1.28-.594.41 0 .755.131 1.035.395.28.264.434.6.466 1.01h1.025c-.031-.679-.282-1.232-.753-1.657-.47-.426-1.061-.639-1.772-.639-.579 0-1.08.133-1.503.398a2.588 2.588 0 00-.976 1.12c-.226.48-.34 1.029-.34 1.646v.182c0 1 .255 1.788.765 2.364.51.576 1.196.864 2.06.864zm5.59 0c.27 0 .547-.039.832-.117v-.879c-.218.047-.39.07-.515.07-.254 0-.434-.063-.54-.19-.105-.127-.158-.317-.158-.571v-3.932h1.184v-.838h-1.184v-1.535h-1.084v1.535h-1.154v.838h1.154v3.932c0 .539.124.955.37 1.248.246.293.61.44 1.095.44zm4.7 0c1.062 0 1.859-.408 2.39-1.224l-.662-.516c-.2.258-.432.465-.697.621-.266.156-.59.234-.973.234-.539 0-.983-.192-1.333-.577-.35-.384-.532-.89-.548-1.514h4.295v-.452c0-1.011-.228-1.789-.685-2.332-.457-.543-1.098-.814-1.922-.814-.504 0-.972.14-1.404.419-.431.28-.767.666-1.007 1.16-.24.494-.36 1.056-.36 1.685v.199c0 .945.269 1.7.808 2.265.539.564 1.238.846 2.098.846zm1.388-3.867h-3.176c.07-.574.254-1.02.551-1.339a1.446 1.446 0 011.102-.477c.453 0 .812.151 1.078.454.266.302.414.73.445 1.28v.082zm4.565 3.867c.773 0 1.377-.265 1.81-.797l.053.68h.996v-9h-1.084v3.305c-.434-.508-1.021-.762-1.764-.762-.746 0-1.35.296-1.81.888-.461.591-.692 1.374-.692 2.346v.082c0 .97.232 1.754.695 2.356.463.601 1.061.902 1.796.902zm.27-.92c-.524 0-.934-.203-1.231-.61-.297-.405-.446-.968-.446-1.687 0-.804.149-1.412.446-1.822.297-.41.71-.615 1.242-.615.672 0 1.17.299 1.494.896v2.912c-.316.618-.818.926-1.506.926zm7.458 1.535l3.557-9.263h-.926l-3.562 9.263h.931zm9.926-.615c.773 0 1.377-.265 1.81-.797l.053.68h.996v-9h-1.084v3.305c-.433-.508-1.021-.762-1.763-.762-.746 0-1.35.296-1.81.888-.462.591-.692 1.374-.692 2.346v.082c0 .97.231 1.754.694 2.356.463.601 1.062.902 1.796.902zm.27-.92c-.524 0-.934-.203-1.231-.61-.297-.405-.445-.968-.445-1.687 0-.804.148-1.412.445-1.822.297-.41.711-.615 1.242-.615.672 0 1.17.299 1.494.896v2.912c-.316.618-.818.926-1.506.926zm4.915-6.603c.211 0 .372-.059.481-.176a.62.62 0 00.164-.44.64.64 0 00-.164-.445c-.11-.12-.27-.181-.48-.181-.211 0-.37.06-.478.181a.647.647 0 00-.161.446c0 .175.054.322.161.439.107.117.267.176.477.176zm.534 7.406v-6.34h-1.084V187h1.084zm4.066.117c.723 0 1.31-.17 1.764-.513.453-.341.68-.795.68-1.362 0-.34-.082-.628-.244-.864-.162-.236-.41-.439-.747-.607-.336-.167-.774-.312-1.315-.433-.541-.121-.915-.248-1.122-.381a.658.658 0 01-.31-.592c0-.277.11-.502.333-.674.223-.171.531-.257.926-.257.383 0 .7.107.952.322.252.215.378.47.378.767h1.09c0-.578-.224-1.052-.671-1.423-.447-.371-1.03-.557-1.749-.557-.684 0-1.245.18-1.685.539-.44.36-.659.799-.659 1.318 0 .313.077.582.232.809.154.227.392.422.714.586.323.164.758.305 1.307.422.549.117.934.257 1.154.419.221.162.331.39.331.682 0 .278-.124.5-.372.665-.248.166-.577.25-.987.25-.445 0-.804-.107-1.075-.32a1.122 1.122 0 01-.437-.864h-1.084c0 .375.11.723.331 1.046.221.322.527.573.917.753.391.18.84.27 1.348.27zm5.813 0c.699 0 1.3-.262 1.804-.785.04.32.09.543.153.668h1.136v-.094c-.148-.344-.222-.806-.222-1.388V182.6c-.016-.641-.23-1.144-.645-1.51-.414-.364-.986-.547-1.717-.547-.46 0-.883.086-1.268.258a2.3 2.3 0 00-.914.7c-.225.295-.337.6-.337.917h1.09c0-.277.13-.514.392-.709.262-.195.586-.293.973-.293.441 0 .775.112 1.002.337.226.225.34.526.34.905v.498h-1.055c-.91 0-1.616.183-2.118.548-.502.365-.753.878-.753 1.538 0 .543.2.991.6 1.345.4.353.914.53 1.539.53zm.158-.943c-.356 0-.647-.096-.873-.287-.227-.192-.34-.457-.34-.797 0-.778.664-1.166 1.992-1.166h.85v1.3c-.137.282-.358.51-.662.686a1.905 1.905 0 01-.967.264zm7.318.943c.75 0 1.348-.294 1.793-.882.445-.588.668-1.366.668-2.335v-.093c0-1.012-.22-1.809-.66-2.391-.439-.582-1.043-.873-1.813-.873s-1.373.271-1.81.814V178h-1.084v9h.996l.053-.732c.437.566 1.056.85 1.857.85zm-.27-.92c-.702 0-1.22-.332-1.552-.996v-2.742c.312-.664.826-.996 1.54-.996.536 0 .946.201 1.231.603.286.403.428.973.428 1.711 0 .809-.144 1.414-.433 1.817-.29.402-.694.603-1.213.603zm5.274.803v-9h-1.084v9h1.084zm4.365.117c1.063 0 1.86-.408 2.39-1.224l-.661-.516c-.2.258-.432.465-.697.621-.266.156-.59.234-.973.234-.54 0-.983-.192-1.333-.577-.35-.384-.532-.89-.548-1.514h4.295v-.452c0-1.011-.229-1.789-.686-2.332-.457-.543-1.097-.814-1.921-.814-.504 0-.972.14-1.404.419-.431.28-.767.666-1.008 1.16-.24.494-.36 1.056-.36 1.685v.199c0 .945.27 1.7.809 2.265.539.564 1.238.846 2.097.846zm1.389-3.867h-3.176c.07-.574.254-1.02.551-1.339a1.446 1.446 0 011.102-.477c.453 0 .812.151 1.078.454.265.302.414.73.445 1.28v.082zm4.564 3.867c.774 0 1.377-.265 1.811-.797l.053.68h.996v-9h-1.084v3.305c-.434-.508-1.022-.762-1.764-.762-.746 0-1.35.296-1.81.888-.461.591-.692 1.374-.692 2.346v.082c0 .97.232 1.754.695 2.356.462.601 1.061.902 1.795.902zm.27-.92c-.523 0-.934-.203-1.23-.61-.297-.405-.446-.968-.446-1.687 0-.804.149-1.412.445-1.822.297-.41.711-.615 1.243-.615.672 0 1.17.299 1.494.896v2.912c-.317.618-.819.926-1.506.926zM639.725 236v-4.5c.254-.605.736-.908 1.447-.908.191 0 .369.013.533.04v-1.007c-.11-.055-.27-.082-.48-.082-.653 0-1.157.283-1.512.85l-.018-.733h-1.054V236h1.084zm4.933.117c.7 0 1.301-.262 1.805-.785.039.32.09.543.152.668h1.137v-.094c-.148-.344-.223-.806-.223-1.388V231.6c-.015-.641-.23-1.144-.644-1.51-.414-.364-.987-.547-1.717-.547-.461 0-.884.086-1.269.258a2.3 2.3 0 00-.914.7c-.224.295-.337.6-.337.917h1.09c0-.277.131-.514.393-.709.262-.195.586-.293.973-.293.44 0 .775.112 1.001.337.227.225.34.526.34.905v.498h-1.054c-.91 0-1.617.183-2.119.548-.501.365-.752.878-.752 1.538 0 .543.2.991.6 1.345.4.353.913.53 1.538.53zm.158-.943c-.355 0-.646-.096-.873-.287-.226-.192-.34-.457-.34-.797 0-.778.665-1.166 1.993-1.166h.85v1.3c-.137.282-.358.51-.663.686a1.905 1.905 0 01-.967.264zm6.64.943c.773 0 1.376-.265 1.81-.797l.052.68h.996v-9h-1.084v3.305c-.433-.508-1.021-.762-1.763-.762-.746 0-1.35.296-1.81.888-.462.591-.692 1.374-.692 2.346v.082c0 .97.231 1.754.694 2.356.463.601 1.062.902 1.796.902zm.269-.92c-.524 0-.934-.203-1.23-.61-.298-.405-.446-.968-.446-1.687 0-.804.148-1.412.445-1.822.297-.41.711-.615 1.242-.615.672 0 1.17.299 1.494.896v2.912c-.316.618-.818.926-1.505.926zm4.916-6.603c.21 0 .37-.059.48-.176a.62.62 0 00.164-.44.64.64 0 00-.164-.445c-.11-.12-.27-.181-.48-.181-.211 0-.37.06-.478.181a.647.647 0 00-.161.446c0 .175.054.322.161.439.108.117.267.176.478.176zm.533 7.406v-6.34h-1.084V236h1.084zm4.336.117c.57 0 1.075-.137 1.514-.41.44-.273.778-.655 1.014-1.145s.355-1.044.355-1.662v-.076c0-.992-.267-1.787-.8-2.385-.533-.597-1.232-.896-2.095-.896-.559 0-1.056.135-1.491.404-.436.27-.776.653-1.02 1.149s-.366 1.054-.366 1.675v.077c0 .984.267 1.775.8 2.373.533.597 1.23.896 2.089.896zm0-.885c-.547 0-.984-.212-1.31-.638-.326-.426-.49-.99-.49-1.694 0-.793.165-1.402.493-1.828.328-.426.76-.638 1.295-.638.547 0 .985.215 1.315.647.33.432.496.995.496 1.69 0 .778-.163 1.382-.487 1.814-.324.432-.761.647-1.312.647zm10.119.885c.75 0 1.348-.294 1.793-.882.445-.588.668-1.366.668-2.335v-.093c0-1.012-.22-1.809-.66-2.391-.439-.582-1.043-.873-1.813-.873s-1.373.271-1.81.814V227h-1.084v9h.996l.052-.732c.438.566 1.057.85 1.858.85zm-.27-.92c-.703 0-1.22-.332-1.552-.996v-2.742c.312-.664.826-.996 1.54-.996.536 0 .946.201 1.231.603.285.403.428.973.428 1.711 0 .809-.145 1.414-.434 1.817-.289.402-.693.603-1.213.603zm6.153.92c.816 0 1.435-.248 1.857-.744l.024.627h1.03v-6.34h-1.083v4.611c-.274.618-.824.926-1.652.926-.782 0-1.172-.48-1.172-1.441v-4.096h-1.084v4.125c.004.77.182 1.35.536 1.743.353.393.868.59 1.544.59zm6.41 0c.27 0 .547-.039.832-.117v-.879c-.219.047-.39.07-.516.07-.254 0-.433-.063-.539-.19-.105-.127-.158-.317-.158-.571v-3.932h1.184v-.838h-1.184v-1.535h-1.084v1.535h-1.154v.838h1.154v3.932c0 .539.123.955.37 1.248.245.293.61.44 1.095.44zm3.92 0c.27 0 .547-.039.832-.117v-.879c-.219.047-.39.07-.516.07-.254 0-.433-.063-.539-.19-.105-.127-.158-.317-.158-.571v-3.932h1.184v-.838h-1.184v-1.535h-1.084v1.535h-1.154v.838h1.154v3.932c0 .539.123.955.37 1.248.245.293.61.44 1.095.44zm4.67 0c.57 0 1.075-.137 1.514-.41.44-.273.778-.655 1.014-1.145s.355-1.044.355-1.662v-.076c0-.992-.267-1.787-.8-2.385-.533-.597-1.232-.896-2.095-.896-.559 0-1.056.135-1.491.404-.436.27-.776.653-1.02 1.149s-.366 1.054-.366 1.675v.077c0 .984.267 1.775.8 2.373.533.597 1.23.896 2.089.896zm0-.885c-.547 0-.984-.212-1.31-.638-.326-.426-.49-.99-.49-1.694 0-.793.165-1.402.493-1.828.328-.426.76-.638 1.295-.638.547 0 .985.215 1.315.647.33.432.496.995.496 1.69 0 .778-.163 1.382-.487 1.814-.324.432-.762.647-1.312.647zm5.326.768v-4.518a1.91 1.91 0 01.621-.738c.266-.187.574-.281.926-.281.433 0 .753.11.958.328.205.219.31.557.313 1.014V236h1.084v-4.19c-.011-1.511-.687-2.267-2.027-2.267-.781 0-1.414.305-1.899.914l-.035-.797h-1.025V236h1.084zm8.725.732l3.556-9.263h-.926l-3.562 9.263h.932zm10.03-.615c.723 0 1.311-.17 1.764-.513.454-.341.68-.795.68-1.362 0-.34-.08-.628-.243-.864-.162-.236-.411-.439-.747-.607-.336-.167-.775-.312-1.316-.433-.54-.121-.915-.248-1.122-.381a.658.658 0 01-.31-.592c0-.277.111-.502.334-.674.222-.171.531-.257.926-.257.382 0 .7.107.952.322.252.215.378.47.378.767h1.09c0-.578-.224-1.052-.671-1.423-.448-.371-1.03-.557-1.75-.557-.683 0-1.245.18-1.684.539-.44.36-.66.799-.66 1.318 0 .313.078.582.232.809.155.227.393.422.715.586.322.164.758.305 1.307.422.549.117.933.257 1.154.419.22.162.331.39.331.682 0 .278-.124.5-.372.665-.248.166-.577.25-.987.25-.446 0-.804-.107-1.075-.32a1.122 1.122 0 01-.437-.864h-1.084c0 .375.11.723.331 1.046.22.322.526.573.917.753.39.18.84.27 1.348.27zm6.487 0c1.063 0 1.86-.408 2.39-1.224l-.661-.516c-.2.258-.432.465-.698.621-.265.156-.59.234-.972.234-.54 0-.984-.192-1.333-.577-.35-.384-.533-.89-.548-1.514h4.295v-.452c0-1.011-.229-1.789-.686-2.332-.457-.543-1.097-.814-1.922-.814-.504 0-.971.14-1.403.419-.432.28-.768.666-1.008 1.16-.24.494-.36 1.056-.36 1.685v.199c0 .945.27 1.7.808 2.265.54.564 1.239.846 2.098.846zm1.389-3.867h-3.176c.07-.574.254-1.02.55-1.339a1.446 1.446 0 011.102-.477c.453 0 .813.151 1.078.454.266.302.415.73.446 1.28v.082zm3.515 3.75v-9H726.9v9h1.084zm4.366.117c1.062 0 1.859-.408 2.39-1.224l-.662-.516c-.2.258-.432.465-.697.621-.266.156-.59.234-.973.234-.539 0-.983-.192-1.333-.577-.35-.384-.532-.89-.548-1.514h4.295v-.452c0-1.011-.228-1.789-.685-2.332-.457-.543-1.098-.814-1.922-.814-.504 0-.972.14-1.403.419-.432.28-.768.666-1.008 1.16-.24.494-.36 1.056-.36 1.685v.199c0 .945.269 1.7.808 2.265.539.564 1.238.846 2.098.846zm1.388-3.867h-3.176c.07-.574.254-1.02.551-1.339a1.446 1.446 0 011.102-.477c.453 0 .812.151 1.078.454.266.302.414.73.445 1.28v.082zm4.881 3.867c.43 0 .837-.097 1.222-.293a2.47 2.47 0 00.923-.785c.23-.328.355-.674.375-1.037h-1.026a1.237 1.237 0 01-.48.879c-.29.234-.627.351-1.014.351-.558 0-.988-.197-1.289-.591-.3-.395-.451-.957-.451-1.688v-.205c0-.75.151-1.323.454-1.72.303-.396.73-.594 1.28-.594.41 0 .755.131 1.034.395.28.264.435.6.466 1.01h1.026c-.032-.679-.283-1.232-.753-1.657-.471-.426-1.062-.639-1.773-.639-.578 0-1.079.133-1.503.398a2.588 2.588 0 00-.975 1.12c-.227.48-.34 1.029-.34 1.646v.182c0 1 .255 1.788.765 2.364.51.576 1.196.864 2.06.864zm5.59 0c.27 0 .547-.039.832-.117v-.879c-.219.047-.39.07-.516.07-.254 0-.433-.063-.539-.19-.105-.127-.158-.317-.158-.571v-3.932h1.184v-.838h-1.184v-1.535h-1.084v1.535h-1.154v.838h1.154v3.932c0 .539.123.955.37 1.248.245.293.61.44 1.095.44zm4.7 0c1.062 0 1.859-.408 2.39-1.224l-.662-.516c-.2.258-.432.465-.698.621-.265.156-.59.234-.972.234-.54 0-.984-.192-1.333-.577-.35-.384-.532-.89-.548-1.514h4.295v-.452c0-1.011-.229-1.789-.686-2.332-.457-.543-1.097-.814-1.922-.814-.503 0-.971.14-1.403.419-.432.28-.767.666-1.008 1.16-.24.494-.36 1.056-.36 1.685v.199c0 .945.27 1.7.809 2.265.539.564 1.238.846 2.097.846zm1.388-3.867h-3.176c.07-.574.254-1.02.55-1.339a1.446 1.446 0 011.102-.477c.454 0 .813.151 1.079.454.265.302.414.73.445 1.28v.082zm4.564 3.867c.774 0 1.377-.265 1.81-.797l.054.68h.996v-9h-1.084v3.305c-.434-.508-1.022-.762-1.764-.762-.746 0-1.35.296-1.81.888-.461.591-.692 1.374-.692 2.346v.082c0 .97.232 1.754.694 2.356.463.601 1.062.902 1.796.902zm.27-.92c-.524 0-.934-.203-1.23-.61-.297-.405-.446-.968-.446-1.687 0-.804.149-1.412.445-1.822.297-.41.711-.615 1.243-.615.671 0 1.17.299 1.494.896v2.912c-.317.618-.819.926-1.506.926zm7.459 1.535l3.556-9.263h-.925l-3.563 9.263h.932zm9.926-.615c.773 0 1.377-.265 1.81-.797l.053.68h.996v-9h-1.084v3.305c-.434-.508-1.021-.762-1.764-.762-.746 0-1.35.296-1.81.888-.461.591-.692 1.374-.692 2.346v.082c0 .97.232 1.754.695 2.356.463.601 1.061.902 1.796.902zm.27-.92c-.524 0-.934-.203-1.231-.61-.297-.405-.446-.968-.446-1.687 0-.804.149-1.412.446-1.822.297-.41.71-.615 1.242-.615.672 0 1.17.299 1.494.896v2.912c-.316.618-.818.926-1.506.926zm4.915-6.603c.211 0 .371-.059.48-.176a.62.62 0 00.165-.44.64.64 0 00-.164-.445c-.11-.12-.27-.181-.48-.181-.212 0-.37.06-.478.181a.647.647 0 00-.161.446c0 .175.053.322.16.439.108.117.267.176.478.176zm.533 7.406v-6.34h-1.084V236h1.084zm4.067.117c.722 0 1.31-.17 1.763-.513.454-.341.68-.795.68-1.362 0-.34-.08-.628-.243-.864-.162-.236-.411-.439-.747-.607-.336-.167-.775-.312-1.316-.433-.54-.121-.915-.248-1.122-.381a.658.658 0 01-.31-.592c0-.277.111-.502.334-.674.222-.171.531-.257.926-.257.382 0 .7.107.952.322.252.215.378.47.378.767h1.09c0-.578-.224-1.052-.671-1.423-.448-.371-1.03-.557-1.75-.557-.683 0-1.244.18-1.684.539-.44.36-.66.799-.66 1.318 0 .313.078.582.232.809.155.227.393.422.715.586.322.164.758.305 1.307.422.549.117.933.257 1.154.419.22.162.331.39.331.682 0 .278-.124.5-.372.665-.248.166-.577.25-.987.25-.446 0-.804-.107-1.075-.32a1.122 1.122 0 01-.437-.864h-1.084c0 .375.11.723.331 1.046.22.322.527.573.917.753.39.18.84.27 1.348.27zm5.812 0c.7 0 1.301-.262 1.805-.785.039.32.09.543.152.668h1.137v-.094c-.148-.344-.223-.806-.223-1.388V231.6c-.015-.641-.23-1.144-.644-1.51-.414-.364-.986-.547-1.717-.547-.46 0-.884.086-1.269.258a2.3 2.3 0 00-.914.7c-.224.295-.336.6-.336.917h1.09c0-.277.13-.514.392-.709.262-.195.586-.293.973-.293.441 0 .775.112 1.002.337.226.225.34.526.34.905v.498h-1.055c-.91 0-1.617.183-2.118.548-.502.365-.753.878-.753 1.538 0 .543.2.991.6 1.345.4.353.913.53 1.538.53zm.158-.943c-.355 0-.646-.096-.873-.287-.226-.192-.34-.457-.34-.797 0-.778.665-1.166 1.993-1.166h.85v1.3c-.137.282-.358.51-.663.686a1.905 1.905 0 01-.967.264zm7.319.943c.75 0 1.347-.294 1.793-.882.445-.588.668-1.366.668-2.335v-.093c0-1.012-.22-1.809-.66-2.391-.439-.582-1.043-.873-1.813-.873s-1.373.271-1.81.814V227h-1.084v9h.996l.052-.732c.438.566 1.057.85 1.858.85zm-.27-.92c-.703 0-1.22-.332-1.552-.996v-2.742c.312-.664.826-.996 1.54-.996.536 0 .946.201 1.231.603.285.403.428.973.428 1.711 0 .809-.145 1.414-.434 1.817-.289.402-.693.603-1.213.603zm5.274.803v-9h-1.084v9h1.084zm4.365.117c1.062 0 1.86-.408 2.39-1.224l-.662-.516c-.199.258-.431.465-.697.621-.265.156-.59.234-.972.234-.54 0-.984-.192-1.333-.577-.35-.384-.533-.89-.548-1.514h4.295v-.452c0-1.011-.229-1.789-.686-2.332-.457-.543-1.098-.814-1.922-.814-.504 0-.971.14-1.403.419-.432.28-.768.666-1.008 1.16-.24.494-.36 1.056-.36 1.685v.199c0 .945.27 1.7.808 2.265.54.564 1.239.846 2.098.846zm1.389-3.867h-3.176c.07-.574.254-1.02.55-1.339a1.446 1.446 0 011.102-.477c.453 0 .813.151 1.078.454.266.302.414.73.446 1.28v.082zm4.564 3.867c.774 0 1.377-.265 1.81-.797l.053.68h.996v-9h-1.083v3.305c-.434-.508-1.022-.762-1.764-.762-.746 0-1.35.296-1.81.888-.462.591-.692 1.374-.692 2.346v.082c0 .97.231 1.754.694 2.356.463.601 1.062.902 1.796.902zm.27-.92c-.524 0-.934-.203-1.23-.61-.298-.405-.446-.968-.446-1.687 0-.804.148-1.412.445-1.822.297-.41.711-.615 1.242-.615.672 0 1.17.299 1.495.896v2.912c-.317.618-.819.926-1.506.926z" fill-opacity=".56" fill-rule="nonzero"/><path fill-opacity=".12" d="M620 56h1v208h-1z"/></g></g></svg>