<?xml version="1.0" encoding="UTF-8"?>
<svg width="422px" height="120px" viewBox="0 0 422 120" version="1.1" xmlns="http://www.w3.org/2000/svg" xmlns:xlink="http://www.w3.org/1999/xlink">
    <title>variation_3</title>
    <defs>
        <rect id="path-1" x="0" y="0" width="422" height="120" rx="4"></rect>
        <rect id="path-3" x="0" y="0" width="300" height="44.8" rx="4"></rect>
        <filter x="-8.7%" y="-49.1%" width="117.3%" height="216.1%" filterUnits="objectBoundingBox" id="filter-4">
            <feOffset dx="0" dy="4" in="SourceAlpha" result="shadowOffsetOuter1"></feOffset>
            <feGaussianBlur stdDeviation="8" in="shadowOffsetOuter1" result="shadowBlurOuter1"></feGaussianBlur>
            <feColorMatrix values="0 0 0 0 0   0 0 0 0 0   0 0 0 0 0  0 0 0 0.12 0" type="matrix" in="shadowBlurOuter1"></feColorMatrix>
        </filter>
        <rect id="path-5" x="0" y="0" width="300" height="44.8" rx="4"></rect>
    </defs>
    <g id="Divider" stroke="none" stroke-width="1" fill="none" fill-rule="evenodd">
        <g id="variation" transform="translate(-32.000000, -786.000000)">
            <g id="variation_3" transform="translate(32.000000, 786.000000)">
                <mask id="mask-2" fill="white">
                    <use xlink:href="#path-1"></use>
                </mask>
                <use id="base" fill-opacity="0" fill="#000000" xlink:href="#path-1"></use>
                <g id="Group-7" transform="translate(61.500000, 37.600000)">
                    <g id="Rectangle" fill="black" fill-opacity="1">
                        <use filter="url(#filter-4)" xlink:href="#path-3"></use>
                    </g>
                    <mask id="mask-6" fill="white">
                        <use xlink:href="#path-5"></use>
                    </mask>
                    <use id="Rectangle" fill="#FFFFFF" xlink:href="#path-5"></use>
                    <g id="Group-6" mask="url(#mask-6)" fill="#2E294E">
                        <g transform="translate(14.383520, 12.800000)">
                            <path d="M11.104,10.18632 C10.244,10.18632 9.8808,11.32632 9.8808,12.02312 C9.8808,12.71992 10.244,13.85992 11.104,13.85992 C11.9632,13.85992 12.3264,12.71992 12.3264,12.02312 C12.3264,11.32632 11.9632,10.18632 11.104,10.18632 M13.8568,12.02312 C13.8568,10.55992 12.9672,9.26952 11.4072,9.26952 C10.7768,9.26952 10.1736,9.38312 9.54,9.46952 C9.044,9.54632 8.5472,9.57672 8.0368,9.57672 C7.5304,9.57672 7.0336,9.54632 6.5336,9.46952 C5.9104,9.38312 5.3,9.26952 4.6672,9.26952 C3.1072,9.26952 2.2176,10.55992 2.2176,12.02312 C2.2176,14.95032 4.8968,15.39992 7.2304,15.39992 L8.8368,15.39992 C11.1808,15.39992 13.8568,14.95272 13.8568,12.02312 M16,10.33992 C16,11.40312 15.8936,12.52952 15.4176,13.50632 C14.1544,16.05992 10.6808,15.99992 8.1936,15.99992 C5.6672,15.99992 1.9872,16.08952 0.6736,13.50632 C0.1872,12.53992 0,11.40312 0,10.33992 C0,8.94312 0.4632,7.62312 1.384,6.55272 C1.2104,6.02632 1.1264,5.47272 1.1264,4.92632 C1.1264,4.20952 1.2896,3.85032 1.6136,3.19992 C3.1232,3.19992 4.0896,3.49992 5.24,4.39992 C6.2072,4.16952 7.2,4.06632 8.1968,4.06632 C9.0968,4.06632 10.004,4.16312 10.8768,4.37272 C12.0104,3.48312 12.9768,3.19992 14.4704,3.19992 C14.7968,3.85032 14.9568,4.20952 14.9568,4.92632 C14.9568,5.47272 14.8704,6.01672 14.7,6.53352 C15.6176,7.61352 16,8.94312 16,10.33992 M6.204,12.02312 C6.204,12.71992 5.84,13.85992 4.9808,13.85992 C4.1208,13.85992 3.7568,12.71992 3.7568,12.02312 C3.7568,11.32632 4.1208,10.18632 4.9808,10.18632 C5.84,10.18632 6.204,11.32632 6.204,12.02312" id="icon_color" fill-opacity="0.56" fill-rule="evenodd"></path>
                            <path d="M45.90048,14.6744 L43.78448,14.6744 L43.78448,11.3144 C43.78448,10.4912 43.78448,9.4624 42.69328,9.4624 C41.60048,9.4624 41.39648,10.3544 41.39648,11.2456 L41.39648,14.6744 L39.28048,14.6744 L39.28048,7.8168 L41.32768,7.8168 L41.32768,8.7768 C41.73728,8.0912 42.48768,7.6112 43.30688,7.68 C45.49088,7.68 45.83248,9.12 45.83248,10.9712 L45.90048,14.6744 Z M36.82368,6.8576 C36.14128,6.8576 35.59568,6.308 35.59568,5.6232 C35.59568,4.9368 36.14128,4.3888 36.82368,4.3888 C37.50608,4.3888 38.05168,4.9368 38.05168,5.6232 C38.05168,6.308 37.50608,6.8576 36.82368,6.8576 L36.82368,6.8576 Z M35.79968,14.6744 L37.91568,14.6744 L37.91568,7.8168 L35.79968,7.8168 L35.79968,14.6744 Z M46.92448,2.4 L34.70768,2.4 C34.16208,2.4 33.68448,2.88 33.61648,3.4288 L33.61648,15.7712 C33.61648,16.32 34.09408,16.8 34.70768,16.8 L46.92448,16.8 C47.47008,16.8 47.94768,16.32 48.01648,15.7712 L48.01648,3.4288 C48.01648,2.88 47.53808,2.4 46.92448,2.4 L46.92448,2.4 Z" id="icon_color" fill-opacity="0.56" fill-rule="evenodd"></path>
                            <path d="M80.81648,5.118 C80.28688,5.3524 79.71808,5.5108 79.12048,5.5828 C79.73008,5.2172 80.19888,4.638 80.41888,3.9476 C79.84768,4.286 79.21568,4.5324 78.54288,4.6644 C78.00368,4.0908 77.23648,3.7324 76.38688,3.7324 C74.75568,3.7324 73.43328,5.0548 73.43328,6.6876 C73.43328,6.918 73.45968,7.1428 73.50848,7.3596 C71.05248,7.2356 68.87648,6.0596 67.41888,4.2724 C67.16608,4.71 67.01968,5.2172 67.01968,5.758 C67.01968,6.7828 67.54128,7.6876 68.33328,8.2172 C67.84928,8.2012 67.39408,8.0684 66.99568,7.8476 L66.99568,7.8852 C66.99568,9.3172 68.01328,10.5108 69.36608,10.7828 C69.11728,10.85 68.85648,10.8852 68.58768,10.8852 C68.39728,10.8852 68.21088,10.8676 68.03168,10.8332 C68.40688,12.006 69.49808,12.8612 70.79168,12.8844 C69.77968,13.6772 68.50528,14.1492 67.12208,14.1492 C66.88288,14.1492 66.64768,14.1356 66.41648,14.1084 C67.72448,14.9476 69.27648,15.4356 70.94448,15.4356 C76.37968,15.4356 79.35088,10.934 79.35088,7.03 C79.35088,6.9028 79.34768,6.7748 79.34208,6.6484 C79.91888,6.2308 80.42048,5.7116 80.81488,5.1196 L80.81648,5.118 Z" id="icon_color" fill-opacity="0.56" fill-rule="evenodd"></path>
                            <path d="M111.17976,5.77928 L110.40696,6.52008 C110.34056,6.57048 110.30776,6.65368 110.32136,6.73688 L110.32136,12.17688 C110.30776,12.26008 110.34056,12.34328 110.40696,12.39368 L111.16216,13.13448 L111.16216,13.29688 L107.36776,13.29688 L107.36776,13.13448 L108.14936,12.37608 C108.22616,12.29848 108.22616,12.27688 108.22616,12.15928 L108.22616,7.76168 L106.05416,13.27928 L105.76056,13.27928 L103.23016,7.76168 L103.23016,11.45928 C103.21016,11.61448 103.26216,11.77128 103.37096,11.88328 L104.38696,13.11608 L104.38696,13.27928 L101.50536,13.27928 L101.50536,13.11608 L102.52216,11.88328 C102.63016,11.77128 102.67896,11.61288 102.65336,11.45928 L102.65336,7.18328 C102.66456,7.06488 102.61976,6.94728 102.53016,6.86728 L101.62776,5.77928 L101.62776,5.61688 L104.43176,5.61688 L106.59976,10.37128 L108.50536,5.61688 L111.17976,5.61688 L111.17976,5.77928 Z M99.21656,16.76728 L113.61656,16.76728 L113.61656,2.36728 L99.21656,2.36728 L99.21656,16.76728 Z" id="icon_color" fill-opacity="0.56" fill-rule="evenodd"></path>
                            <path d="M139.9876,2 L141.6652,2.9688 L141.278,3.5072 C141.2772,3.5072 141.2764,3.5064 141.2756,3.5064 L139.826,5.5216 L139.8252,5.5216 L139.8284,5.5224 L139.826,5.5256 L139.8252,5.5264 C141.2308,5.8088 142.29,7.0496 142.2916,8.5376 C142.29,10.2352 140.914,11.6112 139.2164,11.6112 C137.5188,11.6112 136.1428,10.2352 136.1412,8.5376 C136.142,7.8144 136.394,7.1496 136.8132,6.6248 L136.8108,6.6256 L139.9876,2 Z M144.7036,8.5904 C144.7036,6.5784 143.6196,4.8224 142.0044,3.8672 L142.3148,3.436 C142.4468,3.2528 142.4948,3.0216 142.4476,2.8008 C142.4004,2.58 142.2612,2.3888 142.0652,2.276 L140.3876,1.3072 C140.262,1.2344 140.1236,1.2 139.9876,1.2 C139.7324,1.2 139.482,1.3224 139.3276,1.5472 L138.1908,3.2024 C135.6516,3.6832 133.7292,5.9104 133.7292,8.5904 C133.7292,11.2488 135.6204,13.4656 138.13,13.9688 L138.1284,13.9696 L136.5236,16.2056 L139.1444,18 L143.5092,12.0072 L143.5044,12.0088 C144.2532,11.0704 144.7036,9.884 144.7036,8.5904 L144.7036,8.5904 Z" id="icon_color" fill-opacity="0.56" fill-rule="evenodd"></path>
                            <path d="M267.953871,12.1252174 C268.282219,12.1252174 268.572306,12.0667826 268.824132,11.949913 C269.075958,11.8330435 269.311784,11.666087 269.53161,11.4490435 C269.59561,11.4935652 269.66448,11.5387826 269.738219,11.5846957 C269.811958,11.6306087 269.886393,11.6744348 269.961523,11.7161739 C270.036654,11.757913 270.110393,11.7961739 270.182741,11.8309565 C270.255089,11.8657391 270.32048,11.8956522 270.378915,11.9206957 C270.51248,11.9707826 270.643958,12.0104348 270.77335,12.0396522 C270.902741,12.0688696 271.025871,12.0834783 271.142741,12.0834783 C271.279089,12.0834783 271.409871,12.0626087 271.535089,12.0208696 C271.660306,11.9791304 271.777176,11.92 271.885697,11.8434783 C271.994219,11.7669565 272.090915,11.6744348 272.175784,11.565913 C272.260654,11.4573913 272.329523,11.3363478 272.382393,11.2027826 C272.429697,11.0775652 272.465176,10.9481739 272.488828,10.8146087 C272.51248,10.6810435 272.524306,10.5433043 272.524306,10.4013913 C272.524306,10.2483478 272.509697,10.093913 272.48048,9.93808696 C272.451263,9.78226087 272.407437,9.63130435 272.349002,9.48521739 C272.290567,9.33913043 272.216828,9.20278261 272.127784,9.07617391 C272.038741,8.94956522 271.935089,8.83826087 271.816828,8.74226087 C271.698567,8.64626087 271.565002,8.57113043 271.416132,8.51686957 C271.267263,8.4626087 271.103784,8.43547826 270.925697,8.43547826 C270.728132,8.43547826 270.554219,8.47513043 270.403958,8.55443478 C270.253697,8.63373913 270.120132,8.73669565 270.003263,8.86330435 C269.886393,8.98991304 269.782045,9.13252174 269.690219,9.29113043 C269.598393,9.44973913 269.513523,9.60973913 269.43561,9.77113043 C269.357697,9.92417391 269.274915,10.0772174 269.187263,10.2302609 C269.09961,10.3833043 268.998045,10.5210435 268.882567,10.6434783 C268.767089,10.765913 268.634219,10.8653913 268.483958,10.941913 C268.333697,11.0184348 268.157002,11.0566957 267.953871,11.0566957 L267.953871,11.0566957 L267.870393,11.0566957 L267.870393,12.1252174 L267.953871,12.1252174 Z M271.338915,11.04 C271.283263,11.04 271.222045,11.0316522 271.155263,11.0149565 C271.03561,10.989913 270.914567,10.9523478 270.792132,10.9022609 C270.669697,10.8521739 270.552132,10.7965217 270.439437,10.7353043 C270.326741,10.674087 270.232828,10.6184348 270.157697,10.5683478 C270.263437,10.3568696 270.35248,10.1822609 270.424828,10.0445217 C270.497176,9.90678261 270.559784,9.79686957 270.612654,9.71478261 C270.665523,9.63269565 270.710741,9.57426087 270.748306,9.53947826 C270.785871,9.50469565 270.824132,9.48313043 270.863089,9.47478261 C270.904828,9.46643478 270.945176,9.46226087 270.984132,9.46226087 C271.064828,9.46226087 271.139958,9.47895652 271.209523,9.51234783 C271.31248,9.56521739 271.401523,9.64034783 271.476654,9.73773913 C271.551784,9.83513043 271.610915,9.94713043 271.654045,10.0737391 C271.697176,10.2003478 271.718741,10.3262609 271.718741,10.4514783 L271.718741,10.4514783 L271.718741,10.4932174 C271.718741,10.56 271.713176,10.6212174 271.702045,10.6768696 C271.68535,10.7436522 271.663784,10.802087 271.63735,10.8521739 C271.610915,10.9022609 271.581697,10.941913 271.549697,10.9711304 C271.517697,11.0003478 271.487784,11.0177391 271.459958,11.0233043 C271.423784,11.0344348 271.383437,11.04 271.338915,11.04 Z M268.03735,12.1252174 L268.03735,11.0566957 L267.849523,11.0566957 C267.741002,11.0566957 267.645697,11.0455652 267.56361,11.0233043 C267.481523,11.0010435 267.414045,10.9641739 267.361176,10.9126957 C267.308306,10.8612174 267.271437,10.7965217 267.250567,10.7186087 C267.229697,10.6406957 267.219263,10.5516522 267.219263,10.4514783 L267.219263,10.4514783 L267.219263,10.3846957 C267.219263,10.2984348 267.219958,10.2135652 267.22135,10.130087 L267.223437,10.0038261 L267.223437,10.0038261 L267.225523,9.87547826 C267.226915,9.78921739 267.228306,9.69947826 267.229697,9.60626087 C267.231089,9.51304348 267.231784,9.41356522 267.231784,9.30782609 C267.231784,9.1826087 267.230393,9.03721739 267.22761,8.87165217 C267.224828,8.70608696 267.223437,8.54956522 267.223437,8.40208696 C267.223437,8.16 267.218567,7.90191304 267.208828,7.62782609 C267.199089,7.35373913 267.18448,7.08452174 267.165002,6.82017391 C267.145523,6.55582609 267.123263,6.30747826 267.098219,6.07513043 C267.073176,5.84278261 267.04535,5.64591304 267.014741,5.48452174 L267.014741,5.48452174 L265.967089,5.79756522 C265.992132,5.92834783 266.014393,6.07930435 266.033871,6.25043478 C266.05335,6.42156522 266.070045,6.60521739 266.083958,6.8013913 C266.097871,6.99756522 266.109697,7.20069565 266.119437,7.41078261 C266.129176,7.62086957 266.136828,7.83095652 266.142393,8.04104348 C266.147958,8.25113043 266.152132,8.45704348 266.154915,8.65878261 C266.157697,8.86052174 266.159089,9.04904348 266.159089,9.22434783 C266.159089,9.51930435 266.156306,9.76904348 266.150741,9.97356522 C266.145176,10.178087 266.142393,10.3248696 266.142393,10.413913 C266.145176,10.9871304 266.292654,11.4156522 266.584828,11.6994783 C266.877002,11.9833043 267.305523,12.1252174 267.870393,12.1252174 L267.870393,12.1252174 L268.03735,12.1252174 Z M259.242915,15.1554783 C259.490567,15.0330435 259.735437,14.8953043 259.977523,14.7422609 C260.21961,14.5892174 260.449176,14.4236522 260.666219,14.2455652 C260.883263,14.0674783 261.084306,13.8782609 261.26935,13.677913 C261.454393,13.4775652 261.614393,13.2667826 261.74935,13.0455652 C261.884306,12.8243478 261.990045,12.5947826 262.066567,12.3568696 C262.143089,12.1189565 262.18135,11.8747826 262.18135,11.6243478 C262.18135,11.4406957 262.166045,11.2521739 262.135437,11.0587826 C262.104828,10.8653913 262.065176,10.6713043 262.01648,10.4765217 C261.967784,10.2817391 261.913523,10.0890435 261.853697,9.89843478 C261.793871,9.70782609 261.736132,9.52486957 261.68048,9.34956522 L261.68048,9.34956522 L260.632828,9.68765217 C260.669002,9.81008696 260.714219,9.9506087 260.76848,10.1092174 C260.822741,10.2678261 260.87561,10.4326957 260.927089,10.6038261 C260.978567,10.7749565 261.022393,10.9481739 261.058567,11.1234783 C261.094741,11.2987826 261.112828,11.4657391 261.112828,11.6243478 C261.112828,11.794087 261.082219,11.9624348 261.021002,12.1293913 C260.959784,12.2963478 260.87561,12.4591304 260.76848,12.6177391 C260.66135,12.7763478 260.53335,12.9293913 260.38448,13.0768696 C260.23561,13.2243478 260.074219,13.3648696 259.900306,13.4984348 C259.726393,13.632 259.543437,13.757913 259.351437,13.8761739 C259.159437,13.9944348 258.964654,14.1022609 258.767089,14.1996522 L258.767089,14.1996522 L259.242915,15.1554783 Z M257.798741,12.1168696 L258.892306,11.949913 C258.903437,11.7328696 258.914567,11.4998261 258.925697,11.2507826 C258.936828,11.0017391 258.945176,10.7332174 258.950741,10.4452174 C258.956306,10.1572174 258.959784,9.84626087 258.961176,9.51234783 C258.962567,9.17843478 258.96048,8.81530435 258.954915,8.42295652 C258.94935,7.96104348 258.932654,7.48869565 258.904828,7.00591304 C258.877002,6.52313043 258.828306,6.016 258.758741,5.48452174 L258.758741,5.48452174 L257.686045,5.83513043 C257.73335,6.29426087 257.770915,6.77495652 257.798741,7.27721739 C257.826567,7.77947826 257.85161,8.31582609 257.873871,8.88626087 C257.882219,9.13391304 257.886393,9.39965217 257.886393,9.68347826 C257.886393,10.3874783 257.857176,11.1986087 257.798741,12.1168696 L257.798741,12.1168696 Z M252.042915,12.1711304 C252.329523,12.1711304 252.59248,12.128 252.831784,12.0417391 C253.110045,11.9415652 253.33961,11.7975652 253.52048,11.6097391 C253.70135,11.421913 253.817523,11.2306087 253.869002,11.0358261 C253.92048,10.8410435 253.946219,10.674087 253.946219,10.5349565 C253.946219,10.3902609 253.928132,10.2386087 253.891958,10.08 C253.825176,9.80452174 253.714567,9.53182609 253.560132,9.26191304 C253.405697,8.992 253.223437,8.73252174 253.01335,8.48347826 C252.803263,8.23443478 252.573697,8 252.324654,7.78017391 C252.07561,7.56034783 251.823089,7.36278261 251.567089,7.18747826 L251.567089,7.18747826 L250.945176,8.10991304 C251.078741,8.1933913 251.222741,8.29565217 251.377176,8.41669565 C251.53161,8.53773913 251.68535,8.66991304 251.838393,8.81321739 C251.991437,8.95652174 252.138915,9.10608696 252.280828,9.26191304 C252.422741,9.41773913 252.547958,9.57286957 252.65648,9.72730435 C252.765002,9.88173913 252.850567,10.0292174 252.913176,10.1697391 C252.975784,10.3102609 253.007089,10.4361739 253.007089,10.5474783 L253.007089,10.5474783 L253.007089,10.56 C253.004306,10.6434783 252.983437,10.7137391 252.94448,10.7707826 C252.905523,10.8278261 252.854741,10.8751304 252.792132,10.9126957 C252.729523,10.9502609 252.659263,10.9794783 252.58135,11.0003478 C252.503437,11.0212174 252.425523,11.0365217 252.34761,11.0462609 C252.269697,11.056 252.195958,11.0622609 252.126393,11.0650435 C252.056828,11.0678261 251.998393,11.0692174 251.951089,11.0692174 C251.834219,11.0692174 251.698567,11.0511304 251.544132,11.0149565 C251.389697,10.9787826 251.23248,10.9328696 251.07248,10.8772174 C250.91248,10.8215652 250.758045,10.7589565 250.609176,10.6893913 C250.460306,10.6198261 250.333002,10.5516522 250.227263,10.4848696 L250.227263,10.4848696 L249.784828,11.5074783 C249.929523,11.5965217 250.086045,11.6806957 250.254393,11.76 C250.422741,11.8393043 250.598045,11.9095652 250.780306,11.9707826 C250.962567,12.032 251.148306,12.08 251.337523,12.1147826 C251.526741,12.1495652 251.713176,12.1669565 251.896828,12.1669565 C251.946915,12.1697391 251.99561,12.1711304 252.042915,12.1711304 Z M247.743784,7.56313043 L248.545176,6.76173913 L247.743784,5.96452174 L246.946567,6.76173913 L247.743784,7.56313043 Z M247.075958,12.1252174 C247.390393,12.1252174 247.679089,12.0911304 247.942045,12.0229565 C248.205002,11.9547826 248.431089,11.8490435 248.620306,11.7057391 C248.809523,11.5624348 248.957002,11.3787826 249.062741,11.1547826 C249.16848,10.9307826 249.22135,10.6629565 249.22135,10.3513043 C249.22135,10.1704348 249.204654,9.9853913 249.171263,9.79617391 C249.137871,9.60695652 249.094045,9.41843478 249.039784,9.2306087 C248.985523,9.04278261 248.92361,8.85982609 248.854045,8.68173913 C248.78448,8.50365217 248.714915,8.33530435 248.64535,8.17669565 L248.64535,8.17669565 L247.681176,8.65252174 C247.756306,8.8 247.827958,8.9586087 247.896132,9.12834783 C247.964306,9.29808696 248.023437,9.46226087 248.073523,9.62086957 C248.12361,9.77947826 248.163958,9.92417391 248.194567,10.0549565 C248.225176,10.1857391 248.24048,10.2873043 248.24048,10.3596522 C248.24048,10.5126957 248.205002,10.6351304 248.134045,10.7269565 C248.063089,10.8187826 247.971958,10.8890435 247.860654,10.9377391 C247.74935,10.9864348 247.624828,11.0184348 247.487089,11.0337391 C247.34935,11.0490435 247.215089,11.0566957 247.084306,11.0566957 L247.084306,11.0566957 L246.412306,11.0566957 L246.412306,12.1252174 L247.075958,12.1252174 Z M243.624132,12.1252174 C244.01648,12.1252174 244.349697,12.0876522 244.623784,12.0125217 C244.897871,11.9373913 245.130915,11.8205217 245.322915,11.661913 C245.453697,11.7982609 245.614393,11.9095652 245.805002,11.9958261 C245.99561,12.082087 246.225871,12.1252174 246.495784,12.1252174 L246.495784,12.1252174 L246.579263,12.1252174 L246.579263,11.0566957 L246.495784,11.0566957 C246.381697,11.0566957 246.289176,11.0281739 246.218219,10.9711304 C246.147263,10.914087 246.090915,10.8431304 246.049176,10.7582609 C246.007437,10.6733913 245.977523,10.5801739 245.959437,10.4786087 C245.94135,10.3770435 245.928132,10.2817391 245.919784,10.1926957 C245.908654,10.0452174 245.898219,9.91652174 245.88848,9.8066087 C245.878741,9.69669565 245.866219,9.59373913 245.850915,9.49773913 C245.83561,9.40173913 245.817523,9.30573913 245.796654,9.20973913 C245.775784,9.11373913 245.747263,9.00452174 245.711089,8.88208696 L245.711089,8.88208696 L244.684306,9.17008696 C244.756654,9.41773913 244.812306,9.62434783 244.851263,9.78991304 C244.890219,9.95547826 244.909697,10.0855652 244.909697,10.1801739 C244.909697,10.4723478 244.801871,10.6914783 244.586219,10.8375652 C244.370567,10.9836522 244.049871,11.0566957 243.624132,11.0566957 L243.624132,11.0566957 L243.469697,11.0566957 L243.469697,12.1252174 L243.624132,12.1252174 Z M244.95561,14.2831304 L245.757002,13.4817391 L244.95561,12.6845217 L244.158393,13.4817391 L244.95561,14.2831304 Z M243.636654,12.1252174 L243.636654,11.0566957 L243.448828,11.0566957 C243.340306,11.0566957 243.245002,11.0455652 243.162915,11.0233043 C243.080828,11.0010435 243.01335,10.9641739 242.96048,10.9126957 C242.90761,10.8612174 242.870741,10.7965217 242.849871,10.7186087 C242.829002,10.6406957 242.818567,10.5516522 242.818567,10.4514783 L242.818567,10.4514783 L242.818567,10.3846957 C242.818567,10.2984348 242.819263,10.2135652 242.820654,10.130087 L242.822741,10.0038261 L242.822741,10.0038261 L242.824828,9.87547826 C242.826219,9.78921739 242.82761,9.69947826 242.829002,9.60626087 C242.830393,9.51304348 242.831089,9.41356522 242.831089,9.30782609 C242.831089,9.1826087 242.829697,9.03721739 242.826915,8.87165217 C242.824132,8.70608696 242.822741,8.54956522 242.822741,8.40208696 C242.822741,8.16 242.817871,7.90191304 242.808132,7.62782609 C242.798393,7.35373913 242.783784,7.08452174 242.764306,6.82017391 C242.744828,6.55582609 242.722567,6.30747826 242.697523,6.07513043 C242.67248,5.84278261 242.644654,5.64591304 242.614045,5.48452174 L242.614045,5.48452174 L241.566393,5.79756522 C241.591437,5.92834783 241.613697,6.07930435 241.633176,6.25043478 C241.652654,6.42156522 241.66935,6.60521739 241.683263,6.8013913 C241.697176,6.99756522 241.709002,7.20069565 241.718741,7.41078261 C241.72848,7.62086957 241.736132,7.83095652 241.741697,8.04104348 C241.747263,8.25113043 241.751437,8.45704348 241.754219,8.65878261 C241.757002,8.86052174 241.758393,9.04904348 241.758393,9.22434783 C241.758393,9.51930435 241.75561,9.76904348 241.750045,9.97356522 C241.74448,10.178087 241.741697,10.3248696 241.741697,10.413913 C241.74448,10.9871304 241.891958,11.4156522 242.184132,11.6994783 C242.476306,11.9833043 242.904828,12.1252174 243.469697,12.1252174 L243.469697,12.1252174 L243.636654,12.1252174 Z M237.651263,14.8633043 C237.846045,14.8633043 238.049176,14.8431304 238.260654,14.8027826 C238.472132,14.7624348 238.680132,14.6963478 238.884654,14.6045217 C239.089176,14.5126957 239.283958,14.3944348 239.469002,14.2497391 C239.654045,14.1050435 239.816132,13.9290435 239.955263,13.7217391 C240.094393,13.5144348 240.205002,13.2730435 240.287089,12.9975652 C240.369176,12.722087 240.410219,12.4090435 240.410219,12.0584348 C240.410219,11.8386087 240.406741,11.5770435 240.399784,11.2737391 C240.392828,10.9704348 240.38448,10.6455652 240.374741,10.2991304 C240.365002,9.95269565 240.353871,9.59443478 240.34135,9.22434783 C240.328828,8.85426087 240.317002,8.49252174 240.305871,8.13913043 C240.291958,7.72452174 240.274567,7.29252174 240.253697,6.84313043 C240.232828,6.39373913 240.212654,5.94086957 240.193176,5.48452174 L240.193176,5.48452174 L239.103784,5.68904348 C239.128828,6.12313043 239.154567,6.55652174 239.181002,6.98921739 C239.207437,7.42191304 239.230393,7.83721739 239.249871,8.23513043 C239.266567,8.5746087 239.283263,8.92243478 239.299958,9.2786087 C239.316654,9.63478261 239.331263,9.98052174 239.343784,10.3158261 C239.356306,10.6511304 239.366741,10.9676522 239.375089,11.2653913 C239.383437,11.5631304 239.38761,11.821913 239.38761,12.0417391 C239.38761,12.3561739 239.331958,12.624 239.220654,12.8452174 C239.10935,13.0664348 238.967437,13.2473043 238.794915,13.3878261 C238.622393,13.5283478 238.43248,13.6313043 238.225176,13.6966957 C238.017871,13.762087 237.818219,13.7947826 237.626219,13.7947826 C237.437002,13.7947826 237.242219,13.762087 237.041871,13.6966957 C236.841523,13.6313043 236.659263,13.5366957 236.495089,13.4128696 C236.330915,13.2890435 236.195958,13.1373913 236.090219,12.957913 C235.98448,12.7784348 235.93161,12.5746087 235.93161,12.3464348 C235.93161,12.0598261 235.970567,11.7718261 236.04848,11.4824348 C236.126393,11.1930435 236.247437,10.925913 236.41161,10.6810435 L236.41161,10.6810435 L235.510045,10.2636522 C235.412654,10.4027826 235.330567,10.5558261 235.263784,10.7227826 C235.197002,10.8897391 235.14135,11.0636522 235.096828,11.2445217 C235.052306,11.4253913 235.01961,11.6090435 234.998741,11.7954783 C234.977871,11.981913 234.967437,12.1641739 234.967437,12.3422609 L234.967437,12.3422609 L234.967437,12.3714783 C234.967437,12.6608696 235.006393,12.9210435 235.084306,13.152 C235.162219,13.394087 235.270045,13.6083478 235.407784,13.7947826 C235.545523,13.9812174 235.704828,14.141913 235.885697,14.2768696 C236.066567,14.4118261 236.257176,14.5224348 236.457523,14.6086957 C236.657871,14.6949565 236.860306,14.7589565 237.064828,14.8006957 C237.26935,14.8424348 237.464828,14.8633043 237.651263,14.8633043 Z M228.898567,12.1252174 C229.16848,12.1252174 229.426567,12.08 229.672828,11.9895652 C229.919089,11.8991304 230.135437,11.7711304 230.321871,11.6055652 C230.508306,11.44 230.65648,11.2389565 230.766393,11.0024348 C230.876306,10.765913 230.931263,10.5015652 230.931263,10.2093913 C230.931263,10.061913 230.91248,9.89913043 230.874915,9.72104348 C230.83735,9.54295652 230.777523,9.35513043 230.695437,9.15756522 C230.61335,8.96 230.505523,8.75478261 230.371958,8.54191304 C230.238393,8.32904348 230.07561,8.11547826 229.88361,7.90121739 C229.75561,7.75930435 229.629697,7.62991304 229.505871,7.51304348 C229.382045,7.39617391 229.257523,7.28486957 229.132306,7.17913043 L229.132306,7.17913043 L231.853697,6.00208696 L231.432132,5.00869565 L228.109697,6.48626087 L227.997002,7.48382609 C228.26135,7.72591304 228.508306,7.96382609 228.737871,8.19756522 C228.967437,8.43130435 229.167089,8.65878261 229.336828,8.88 C229.506567,9.10121739 229.640132,9.31686957 229.737523,9.52695652 C229.834915,9.73704348 229.88361,9.94226087 229.88361,10.1426087 C229.88361,10.2956522 229.857176,10.4243478 229.804306,10.5286957 C229.751437,10.6330435 229.679089,10.7193043 229.587263,10.7874783 C229.495437,10.8556522 229.388306,10.9078261 229.265871,10.944 C229.143437,10.9801739 229.014045,11.0066087 228.877697,11.0233043 C228.74135,11.04 228.600132,11.0497391 228.454045,11.0525217 C228.307958,11.0553043 228.166741,11.0566957 228.030393,11.0566957 L228.030393,11.0566957 L227.508654,11.0566957 L227.508654,12.1252174 L228.898567,12.1252174 Z M225.89335,8.26852174 L226.694741,7.46713043 L225.89335,6.66991304 L225.096132,7.46713043 L225.89335,8.26852174 Z M224.72048,12.1252174 C225.112828,12.1252174 225.446045,12.0876522 225.720132,12.0125217 C225.994219,11.9373913 226.227263,11.8205217 226.419263,11.661913 C226.550045,11.7982609 226.710741,11.9095652 226.90135,11.9958261 C227.091958,12.082087 227.322219,12.1252174 227.592132,12.1252174 L227.592132,12.1252174 L227.67561,12.1252174 L227.67561,11.0566957 L227.592132,11.0566957 C227.478045,11.0566957 227.385523,11.0281739 227.314567,10.9711304 C227.24361,10.914087 227.187263,10.8431304 227.145523,10.7582609 C227.103784,10.6733913 227.073871,10.5801739 227.055784,10.4786087 C227.037697,10.3770435 227.02448,10.2817391 227.016132,10.1926957 C227.005002,10.0452174 226.994567,9.91652174 226.984828,9.8066087 C226.975089,9.69669565 226.962567,9.59373913 226.947263,9.49773913 C226.931958,9.40173913 226.913871,9.30573913 226.893002,9.20973913 C226.872132,9.11373913 226.84361,9.00452174 226.807437,8.88208696 L226.807437,8.88208696 L225.780654,9.17008696 C225.853002,9.41773913 225.908654,9.62434783 225.94761,9.78991304 C225.986567,9.95547826 226.006045,10.0855652 226.006045,10.1801739 C226.006045,10.4723478 225.898219,10.6914783 225.682567,10.8375652 C225.466915,10.9836522 225.146219,11.0566957 224.72048,11.0566957 L224.72048,11.0566957 L224.566045,11.0566957 L224.566045,12.1252174 L224.72048,12.1252174 Z M221.164306,12.1252174 C221.359089,12.1252174 221.572654,12.1231304 221.805002,12.1189565 C222.03735,12.1147826 222.263437,12.098087 222.483263,12.0688696 C222.703089,12.0396522 222.902741,11.9937391 223.082219,11.9311304 C223.261697,11.8685217 223.39735,11.7787826 223.489176,11.661913 C223.619958,11.7982609 223.778567,11.9095652 223.965002,11.9958261 C224.151437,12.082087 224.37961,12.1252174 224.649523,12.1252174 L224.649523,12.1252174 L224.733002,12.1252174 L224.733002,11.0566957 L224.649523,11.0566957 C224.535437,11.0566957 224.435263,11.0281739 224.349002,10.9711304 C224.262741,10.914087 224.189697,10.8431304 224.129871,10.7582609 C224.070045,10.6733913 224.023437,10.5801739 223.990045,10.4786087 C223.956654,10.3770435 223.935784,10.2817391 223.927437,10.1926957 C223.916306,10.0452174 223.905871,9.91791304 223.896132,9.81078261 C223.886393,9.70365217 223.875263,9.60347826 223.862741,9.51026087 C223.850219,9.41704348 223.833523,9.32382609 223.812654,9.2306087 C223.791784,9.1373913 223.763263,9.02956522 223.727089,8.90713043 L223.727089,8.90713043 L222.700306,9.19513043 C222.772654,9.44278261 222.826915,9.64521739 222.863089,9.80243478 C222.899263,9.95965217 222.91735,10.0855652 222.91735,10.1801739 C222.91735,10.3248696 222.886741,10.4521739 222.825523,10.562087 C222.764306,10.672 222.664828,10.7631304 222.527089,10.8354783 C222.38935,10.9078261 222.209176,10.9627826 221.986567,11.0003478 C221.763958,11.037913 221.489871,11.0566957 221.164306,11.0566957 L221.164306,11.0566957 L221.009871,11.0566957 L221.009871,12.1252174 L221.164306,12.1252174 Z M221.853002,14.0702609 L222.562567,13.3606957 L221.844654,12.6427826 L221.135089,13.3565217 L221.853002,14.0702609 Z M223.430741,14.0786087 L224.140306,13.3648696 L223.422393,12.6511304 L222.712828,13.3606957 L223.430741,14.0786087 Z M221.176828,12.1252174 L221.176828,11.0566957 L221.080828,11.0566957 C220.983437,11.0566957 220.897871,11.0406957 220.824132,11.0086957 C220.750393,10.9766957 220.685002,10.9321739 220.627958,10.8751304 C220.570915,10.818087 220.520828,10.749913 220.477697,10.6706087 C220.434567,10.5913043 220.393523,10.5043478 220.354567,10.4097391 L220.354567,10.4097391 L219.306915,7.88452174 C219.240132,7.72313043 219.177523,7.57286957 219.119089,7.43373913 C219.060654,7.2946087 219.007784,7.16382609 218.96048,7.0413913 L218.96048,7.0413913 L217.971263,7.4546087 L219.302741,10.6685217 C219.230393,10.7213913 219.144828,10.7707826 219.046045,10.8166957 C218.947263,10.8626087 218.84361,10.9022609 218.735089,10.9356522 C218.626567,10.9690435 218.51735,10.9947826 218.407437,11.0128696 C218.297523,11.0309565 218.193871,11.04 218.09648,11.04 C217.896132,11.04 217.686045,10.9878261 217.466219,10.8834783 C217.246393,10.7791304 217.009871,10.610087 216.756654,10.3763478 L216.756654,10.3763478 L216.143089,11.2403478 C216.413002,11.5186087 216.701697,11.7356522 217.009176,11.8914783 C217.316654,12.0473043 217.644306,12.1252174 217.992132,12.1252174 C218.175784,12.1252174 218.349697,12.1175652 218.513871,12.1022609 C218.678045,12.0869565 218.836654,12.0598261 218.989697,12.0208696 C219.142741,11.981913 219.288828,11.9290435 219.427958,11.8622609 C219.567089,11.7954783 219.703437,11.712 219.837002,11.6118261 C219.903784,11.6841739 219.97335,11.7516522 220.045697,11.8142609 C220.118045,11.8768696 220.201523,11.9311304 220.296132,11.9770435 C220.390741,12.0229565 220.50135,12.0591304 220.627958,12.0855652 C220.754567,12.112 220.905523,12.1252174 221.080828,12.1252174 L221.080828,12.1252174 L221.176828,12.1252174 Z" id="مارادنبالکنید" fill-opacity="0.56" fill-rule="nonzero"></path>
                            <rect id="control-/-divider-/-vertical" fill-opacity="0.12" fill-rule="evenodd" x="23.91648" y="0" width="1" height="19.2"></rect>
                            <rect id="control-/-divider-/-vertical" fill-opacity="0.12" fill-rule="evenodd" x="56.71648" y="0" width="1" height="19.2"></rect>
                            <rect id="control-/-divider-/-vertical" fill-opacity="0.12" fill-rule="evenodd" x="89.51648" y="0" width="1" height="19.2"></rect>
                            <rect id="control-/-divider-/-vertical" fill-opacity="0.12" fill-rule="evenodd" x="122.31648" y="0" width="1" height="19.2"></rect>
                        </g>
                    </g>
                </g>
            </g>
        </g>
    </g>
</svg>