<svg width="860" height="204" xmlns="http://www.w3.org/2000/svg"><g fill="none" fill-rule="evenodd"><rect fill="none" width="860" height="204" rx="4"/><path fill-opacity=".12" fill="#000000" d="M369 74h1v40h-1zM490 74h1v40h-1z"/><path fill="none" d="M297 88h24V64h-24z"/><path d="M322.016 113c.38 0 .734-.026 1.06-.077.327-.05.623-.139.887-.264.265-.125.498-.292.7-.5.201-.21.372-.471.51-.787.14-.32.21-.69.21-1.113 0-.074-.003-.148-.007-.222-.033-.515-.153-1.109-.362-1.781a9.033 9.033 0 00-.223-.644 14.062 14.062 0 00-.382-.897 1.713 1.713 0 01-.063-.143l-1.238.612.605 1.489c.097.237.172.463.223.678.05.216.08.385.09.508.01.123.014.215.014.275 0 .111-.007.216-.02.313a1.35 1.35 0 01-.105.369 1.245 1.245 0 01-.348.455c-.14.11-.301.192-.487.247-.186.056-.392.09-.62.101-.226.012-.474.018-.743.018h-.807V113h1.106zm1.14 3.624l1.134-1.134-1.14-1.14-1.134 1.133 1.14 1.141zM321.189 113v-1.363h-.14a2.77 2.77 0 01-.754-.09c-.211-.061-.37-.145-.477-.251a.58.58 0 01-.184-.359 3.758 3.758 0 01-.024-.441v-3.493a48.552 48.552 0 00-.066-2.546c-.021-.403-.047-.776-.077-1.12-.03-.343-.066-.633-.108-.87l-1.363.251c.042.218.077.498.108.839.03.34.055.713.076 1.116.021.404.036.82.045 1.252.01.432.014.847.014 1.245.005.409.007.796.007 1.162 0 .371-.002.7-.007.988a211.374 211.374 0 00-.014 1.037c0 .11.003.244.007.4a2.686 2.686 0 00.247 1.012c.081.176.199.34.352.494.25.25.555.436.914.556.36.12.795.181 1.305.181h.139zm-8.049 0c.918 0 1.621-.243 2.108-.73.172-.177.307-.37.407-.578a3.353 3.353 0 00.323-1.21c.01-.172.014-.32.014-.445v-.181c0-.153-.003-.332-.01-.536l-.024-.723-.035-.957c-.014-.36-.028-.769-.042-1.228a81.233 81.233 0 00-.264-3.875l-1.364.146c.005.042.016.166.035.373a63.327 63.327 0 01.209 3.405l.083 2.104c.023.568.035 1.003.035 1.305v.076c0 .663-.118 1.115-.355 1.357-.222.222-.596.334-1.12.334h-.529V113h.53zm-6.456 0c.195-.01.388-.028.578-.056.19-.027.376-.07.556-.125a2.691 2.691 0 001.009-.563c.246-.228.445-.487.598-.78.209.27.451.52.727.752.276.232.581.408.915.529.241.078.488.139.741.18.253.042.546.063.88.063h.202v-1.363h-.439a2.38 2.38 0 01-.713-.115 2.337 2.337 0 01-.594-.296 2.552 2.552 0 01-.498-.456 4.692 4.692 0 01-.428-.601c-.176-.297-.34-.592-.494-.884a76.535 76.535 0 00-.462-.87 26.997 26.997 0 00-.487-.862 9.759 9.759 0 00-1.297-1.722 9.568 9.568 0 00-.926-.852l5.517-2.316-.536-1.266-6.15 2.65-.18 1.537a12.043 12.043 0 011.415 1.305c.244.262.477.538.7.828.222.29.417.583.584.88a4.4 4.4 0 01.372.834 2.4 2.4 0 01.122.71c0 .056-.003.111-.007.167-.014.167-.07.33-.17.49a1.856 1.856 0 01-.883.727 1.515 1.515 0 01-.561.112h-2.428V113h2.337zm-8.744-3.36l1.134-1.134-1.14-1.14-1.135 1.133 1.141 1.141zm-.285 8.132c.57 0 1.112-.06 1.624-.18.513-.121.98-.306 1.402-.554a4.23 4.23 0 001.11-.942c.317-.38.564-.833.74-1.357.121-.37.199-.71.233-1.016a7.4 7.4 0 00.046-1.147c.491.283 1.05.424 1.676.424h.153v-1.363h-.153c-.162 0-.335-.02-.518-.06a1.619 1.619 0 01-.58-.274 3.328 3.328 0 01-.648-.64 7.351 7.351 0 01-.723-1.148 7.98 7.98 0 00-.508-.946l-1.155.737c.005 0 .048.068.129.205.08.137.175.325.281.564.107.239.215.52.324.842a6.615 6.615 0 01.344 2.118v.083c-.009.404-.076.805-.201 1.204a2.69 2.69 0 01-.46.873 2.733 2.733 0 01-.758.654 3.688 3.688 0 01-1.05.407c-.4.092-.844.139-1.336.139a3.94 3.94 0 01-1.054-.129 3.297 3.297 0 01-.807-.334 2.716 2.716 0 01-.588-.462 3.029 3.029 0 01-.403-.526 2.502 2.502 0 01-.24-.518 2.91 2.91 0 01-.108-.431 4.08 4.08 0 01-.035-.821c.014-.278.046-.552.094-.821.049-.269.11-.527.185-.776.074-.248.151-.476.233-.685.08-.209.16-.39.24-.546a2.8 2.8 0 01.208-.358l-1.106-.814c-.19.315-.372.667-.546 1.054-.174.387-.32.796-.438 1.228a6.484 6.484 0 00-.22 1.123 6.142 6.142 0 00.02 1.61c.094.608.274 1.137.54 1.587.267.45.602.822 1.006 1.116.403.295.864.515 1.38.661.518.146 1.073.22 1.667.22z" fill-opacity=".87" fill="#000000" fill-rule="nonzero"/><path d="M316.305 85h2.005v-4h-2.005v4zm-15.995 0h1.995v-4h-1.995v4zm7.995-16.899l.002 4.899h-4.002a5.008 5.008 0 014-4.899zm6 4.899h-3.998l-.002-4.899a5.01 5.01 0 014 4.899zm-1.997 12h1.997v-4h-1.997v4zm-8.003 0h2v-4h-2v4zm6.005-6l-.002-4h3.997v4h-3.995zm-6.005-4h4.003l.002 4h-4.005v-4zm5.005 10h-1.004v-4h2.002v4h-.998zm11-6h-4.005v-6c0-3.86-3.141-7-7-7-3.86 0-7 3.14-7 7v6h-3.995a1 1 0 100 2v5a1 1 0 001 1h20a1 1 0 001-1v-5a1 1 0 100-2z" fill-opacity=".87" fill="#000000"/><path d="M468.007 112c.38 0 .748-.026 1.103-.077.354-.05.68-.139.977-.264.297-.125.56-.292.79-.5.23-.21.413-.471.553-.787.139-.32.208-.69.208-1.113 0-.074-.002-.148-.007-.222-.032-.515-.153-1.109-.361-1.781a9.033 9.033 0 00-.223-.644 14.063 14.063 0 00-.383-.897 1.713 1.713 0 01-.062-.143l-1.239.612.606 1.489c.097.237.171.463.222.678.051.216.081.385.09.508.01.123.015.215.015.275 0 .111-.007.216-.021.313a1.35 1.35 0 01-.105.369 1.089 1.089 0 01-.39.455c-.166.11-.359.192-.577.247-.217.056-.454.09-.71.101-.254.012-.516.018-.785.018h-1.343V112h1.642zm2.65 3.624l1.141-1.14-1.127-1.127-1.14 1.14 1.126 1.127zm-3.04.014l1.141-1.14-1.127-1.135-1.14 1.141 1.126 1.134zm1.552 1.99l1.036-1.037-1.03-1.03-1.036 1.037 1.03 1.03zM466.643 112v-1.363h-.139a2.77 2.77 0 01-.754-.09c-.211-.061-.37-.145-.477-.251a.58.58 0 01-.184-.359 3.758 3.758 0 01-.025-.441v-3.493a48.553 48.553 0 00-.066-2.546 31.39 31.39 0 00-.076-1.12c-.03-.343-.066-.633-.108-.87l-1.364.251c.042.218.078.498.108.839.03.34.056.713.077 1.116.02.404.036.82.045 1.252.01.432.014.847.014 1.245.005.409.007.796.007 1.162v.27c-.001.263-.004.502-.007.718a211.355 211.355 0 00-.013.957v.198c0 .084.003.178.006.282a2.686 2.686 0 00.247 1.012c.081.176.198.34.351.494.25.25.556.436.915.556.36.12.794.181 1.304.181h.14zm-9.913 4.98c.39-.19.774-.404 1.152-.643.378-.238.737-.5 1.078-.782a9.21 9.21 0 00.946-.905c.29-.32.54-.656.751-1.008.211-.353.376-.718.494-1.096.119-.378.178-.769.178-1.172 0-.204-.017-.413-.049-.626a9.948 9.948 0 00-.122-.65 19.8 19.8 0 00-.16-.668 95.343 95.343 0 01-.17-.672 10.345 10.345 0 00-.174-.636c-.065-.211-.13-.426-.195-.644l-1.322.418c.126.39.244.779.355 1.168l.16.585c.056.2.107.399.153.598.047.2.085.394.115.584.03.19.045.371.045.543 0 .45-.109.886-.327 1.308-.218.422-.506.82-.866 1.196s-.769.723-1.228 1.04c-.459.318-.932.597-1.419.839l.605 1.224zm-4.577-4.98c.241 0 .443-.016.605-.049.983-.18 1.681-.637 2.094-1.37.098-.176.182-.371.254-.584.072-.214.116-.405.132-.574.016-.17.025-.303.025-.4a3.57 3.57 0 00-.042-.53 4.165 4.165 0 00-.25-.903 5.846 5.846 0 00-.53-1.013 8.611 8.611 0 00-.869-1.116 10.845 10.845 0 00-.8-.8c-.269-.241-.517-.46-.744-.654l4.98-2.094-.535-1.266-5.718 2.449-.16 1.426a17.637 17.637 0 012.115 2.02c.296.337.546.652.747.947.202.294.329.537.38.727.064.25.097.484.097.702a1.71 1.71 0 01-.278.946c-.13.195-.309.345-.536.449-.227.104-.478.18-.751.23a5.667 5.667 0 01-.863.083c-.301.007-.591.01-.87.01h-.869V112h2.386zm-7.276 0c.435 0 .815-.017 1.137-.052.322-.035.604-.088.845-.16a2.598 2.598 0 001.113-.65c.2.254.455.462.765.622.311.16.7.24 1.17.24h.138v-1.363h-.139c-.236 0-.43-.054-.58-.16a1.141 1.141 0 01-.356-.404 1.905 1.905 0 01-.184-.529 4.913 4.913 0 01-.076-.542 21.339 21.339 0 00-.126-1.204 6.535 6.535 0 00-.201-.946l-1.308.369c.102.352.173.665.212.939.04.274.06.543.06.807 0 .278-.047.522-.14.73a1.256 1.256 0 01-.435.522c-.197.14-.452.244-.765.313-.313.07-.69.105-1.13.105h-1.037V112h1.037zm.257 3.402l1.127-1.127-1.141-1.141-1.127 1.134 1.14 1.134zm2.852.014l1.127-1.134-1.14-1.134-1.128 1.127 1.141 1.14zm-6.838-9.83l1.134-1.134-1.141-1.14-1.134 1.133 1.14 1.141zM439.193 112c.682 0 1.255-.07 1.718-.212.464-.142.842-.358 1.134-.65.2.254.455.462.765.622.311.16.7.24 1.17.24h.138v-1.363h-.139c-.236 0-.43-.054-.58-.16a1.141 1.141 0 01-.356-.404 1.905 1.905 0 01-.184-.529 4.913 4.913 0 01-.076-.542 21.335 21.335 0 00-.126-1.204 6.534 6.534 0 00-.201-.946l-1.308.369c.102.352.173.665.212.939.04.274.06.543.06.807 0 .552-.177.968-.53 1.249-.352.28-.918.42-1.697.42h-.257V112h.257zm-7.868-9.927l5.593-2.365-.327-.703-5.217 2.178-.049.89zm7.889 9.927v-1.363h-.195a4.643 4.643 0 01-.758-.07 2.482 2.482 0 01-.62-.195 2.725 2.725 0 01-.716-.48 3.246 3.246 0 01-.497-.598 3.881 3.881 0 01-.341-.661 12.61 12.61 0 01-.247-.675 5.431 5.431 0 00-.504-1.06 8.138 8.138 0 00-.752-1.037 9.893 9.893 0 00-.953-.974c-.35-.313-.72-.606-1.11-.88l5.51-2.324-.521-1.266-6.24 2.686-.188 1.537c.185.144.403.315.654.515a17.591 17.591 0 011.561 1.412c.258.264.484.531.679.8.194.269.34.523.438.762.097.239.146.455.146.65 0 .051-.002.102-.007.153a1.193 1.193 0 01-.33.682c-.193.209-.493.39-.901.543-.311.12-.763.216-1.357.288-.593.072-1.363.129-2.31.17a8.51 8.51 0 01-.89-.014 11.983 11.983 0 01-2.003-.32 8.132 8.132 0 01-.912-.284 3.558 3.558 0 01-.716-.362c-.2-.135-.336-.278-.41-.432a1.06 1.06 0 01-.105-.48v-.062c.01-.2.049-.406.118-.62.07-.213.16-.421.268-.625a4.99 4.99 0 01.338-.55l-1.1-.82a1.97 1.97 0 00-.08.124l-.146.247a7.279 7.279 0 00-.4.81c-.204.465-.316.815-.337 1.051-.02.237-.031.4-.031.487 0 .283.041.543.125.78.107.31.275.586.504.827.23.241.502.454.818.637.315.183.666.337 1.054.462a9.73 9.73 0 001.217.306c.424.08.86.136 1.304.17.446.036.886.053 1.322.053.82 0 1.539-.022 2.153-.066a8.473 8.473 0 001.61-.254c.46-.125.854-.301 1.183-.529.33-.227.617-.524.863-.89a3.897 3.897 0 001.572 1.297c.635.29 1.336.437 2.1.442h.14zm-24.014-7.59l1.134-1.133-1.141-1.141-1.134 1.134 1.141 1.14zm-1.113 7.59c.38 0 .734-.026 1.06-.077.328-.05.623-.139.888-.264.264-.125.497-.292.699-.5.202-.21.372-.471.511-.787.14-.32.209-.69.209-1.113 0-.074-.002-.148-.007-.222-.033-.515-.153-1.109-.362-1.781a9.033 9.033 0 00-.222-.644 14.061 14.061 0 00-.383-.897 1.713 1.713 0 01-.063-.143l-1.238.612.605 1.489c.098.237.172.463.223.678.051.216.081.385.09.508.01.123.014.215.014.275 0 .111-.007.216-.02.313a1.35 1.35 0 01-.105.369 1.245 1.245 0 01-.348.455c-.139.11-.301.192-.487.247-.185.056-.392.09-.619.101-.227.012-.475.018-.744.018h-.807V112h1.106zm-.828 0v-1.363h-.139c-.278 0-.508-.036-.689-.108a1.244 1.244 0 01-.452-.3 1.755 1.755 0 01-.31-.466 15.476 15.476 0 01-.267-.608c-.181-.422-.352-.827-.512-1.214a3908.258 3908.258 0 01-1.617-3.927l-1.266.529 2.198 5.287a2.64 2.64 0 01-.925.584c-.25.097-.463.154-.637.17a4.617 4.617 0 01-.393.025c-.185 0-.37-.021-.556-.063a3.191 3.191 0 01-.842-.32 4.114 4.114 0 01-.842-.619l-.786 1.106c.395.408.825.725 1.29.95a3.45 3.45 0 001.52.337c.33 0 .627-.02.891-.06a4.2 4.2 0 00.734-.173c.225-.077.436-.173.633-.289.197-.116.393-.25.588-.403a2.4 2.4 0 00.348.358c.134.114.29.212.47.296.178.083.384.15.619.198.234.049.502.073.803.073h.14zm-9.99.063c.065-.77.104-1.496.115-2.178.012-.682.018-1.226.018-1.635 0-.677-.007-1.4-.021-2.17a63.584 63.584 0 00-.355-5.064l-1.363.208c.157 1.461.283 3.316.375 5.566.014.384.021.793.021 1.224 0 .357-.005.73-.014 1.12a64.7 64.7 0 01-.146 2.852l1.37.077zm-8.09 4.918c.39-.19.773-.405 1.151-.644.378-.238.738-.5 1.079-.782a9.21 9.21 0 00.946-.905c.29-.32.54-.656.751-1.008.211-.353.376-.718.494-1.096.118-.378.177-.769.177-1.172 0-.204-.016-.413-.048-.626a9.948 9.948 0 00-.122-.65 19.8 19.8 0 00-.16-.668 95.343 95.343 0 01-.17-.672 10.346 10.346 0 00-.174-.636c-.065-.211-.13-.426-.195-.644l-1.322.418c.125.39.244.779.355 1.168.05.19.104.385.16.585.056.2.107.399.153.598.046.2.085.394.115.584.03.19.045.371.045.543 0 .45-.11.886-.327 1.308-.218.422-.507.82-.866 1.196-.36.376-.769.723-1.228 1.04-.46.318-.932.597-1.42.839l.606 1.224zm-3.756-4.988c.278 0 .557-.02.838-.063.28-.041.55-.109.81-.201.26-.093.502-.212.727-.359.225-.146.421-.32.588-.525a1.685 1.685 0 00.362-.737c.037-.162.057-.348.059-.557a3.214 3.214 0 00-.08-.702 5.056 5.056 0 00-.317-.908 7.36 7.36 0 00-.507-.932 9.21 9.21 0 00-1.41-1.708 7.958 7.958 0 00-.81-.675 4.88 4.88 0 00-.824-.487l-.563 1.266c.208.093.422.218.64.376.218.158.432.338.643.542.211.205.414.424.609.658.195.234.372.475.532.723.16.248.297.497.41.745.114.248.196.485.247.713.037.167.056.31.056.431 0 .167-.035.292-.104.376-.158.19-.353.331-.585.424-.232.093-.44.147-.626.164a3.996 3.996 0 01-.96-.01 5.912 5.912 0 01-1.62-.443 4.229 4.229 0 01-.62-.323l-.57 1.308c.116.106.299.213.55.32a8.43 8.43 0 001.736.504c.303.053.566.08.789.08z" fill-opacity=".32" fill="#000000" fill-rule="nonzero"/><path fill="none" d="M418 88h24V64h-24z"/><path d="M421.904 80.998v-1.539l.072.009a64.3 64.3 0 003.035.311l.06.002a.75.75 0 00.058-1.497 62.989 62.989 0 01-2.975-.306l-.25-.028v-.481c0-.338.043-.676.106-1.009a63.956 63.956 0 0015.98 0c.064.334.107.671.107 1.009v.481l-.267.029c-.98.125-1.976.227-2.962.305a.75.75 0 00.057 1.497c.02 0 .04 0 .06-.002 1.01-.079 2.03-.184 3.023-.31l.089-.01v1.538a81.66 81.66 0 01-16.193.001zm2.852-10.235c.235-.441.74-.727 1.286-.727h7.918c.546 0 1.05.286 1.287.728l2.008 3.765a62.037 62.037 0 01-14.51 0l2.01-3.766zm17.119 2.943a1.003 1.003 0 00-1.361-.387l-1.267.707c-.014-.026-.023-.053-.036-.079l-2.2-4.123c-.586-1.103-1.755-1.788-3.051-1.788h-7.918c-1.296 0-2.465.685-3.051 1.787l-2.201 4.125c-.014.025-.023.052-.035.077l-1.268-.706a1 1 0 00-.973 1.747l1.564.871a7.336 7.336 0 00-.174 1.532v4.437h.01c0 .092 0 .186.025.272v1.51h-.003v1.252a1.252 1.252 0 002.504 0v-1.252h-.001v-.629c2.51.227 5.033.347 7.557.347s5.049-.12 7.56-.347v.629h-.002v1.252a1.252 1.252 0 002.504 0v-1.252h-.001v-1.575a.944.944 0 00.019-.207h.02v-4.437c0-.514-.065-1.027-.172-1.532l1.563-.871c.482-.268.656-.878.388-1.36z" fill-opacity=".32" fill="#000000"/><path d="M572.311 101.58c.019-.057.048-.132.087-.227.04-.095.088-.19.146-.285.058-.095.124-.179.199-.25a.404.404 0 01.236-.122.896.896 0 01.417.028c.135.041.278.091.428.149.151.058.312.114.484.167.171.053.362.08.57.08h.042c.162 0 .315-.023.46-.07.157-.05.302-.116.434-.194.132-.08.252-.166.358-.261.107-.095.198-.186.275-.272a2.384 2.384 0 00.247-.323l-.793-.515a4.153 4.153 0 01-.136.167c-.062.074-.139.15-.23.226a1.45 1.45 0 01-.288.192.68.68 0 01-.306.076h-.028a1.553 1.553 0 01-.4-.063 4.217 4.217 0 01-.372-.132 5.284 5.284 0 00-.46-.167 1.856 1.856 0 00-.556-.076c-.2 0-.394.043-.584.129-.19.085-.364.201-.522.347a2.093 2.093 0 00-.626 1.11l.918.285zm2.56 10.42c.065-.46.103-.977.115-1.555.012-.577.017-1.051.017-1.422 0-.617-.006-1.31-.02-2.08a63.803 63.803 0 00-.09-2.366 93.008 93.008 0 00-.189-2.643l-1.363.209c.065.626.123 1.396.174 2.31.05.913.093 1.98.125 3.2a31.945 31.945 0 01-.007 2.12c-.023.71-.067 1.427-.132 2.15l1.37.077zm-6.685.083c.431 0 .81-.06 1.134-.18.334-.121.612-.295.835-.522.222-.227.39-.502.5-.824a3.3 3.3 0 00.168-1.082c0-.265-.025-.536-.073-.814a7.696 7.696 0 00-.188-.814 12.239 12.239 0 00-.86-2.17l-1.217.64a12.273 12.273 0 01.588 1.422c.1.295.186.595.257.901.072.306.108.591.108.856a2 2 0 01-.07.55.93.93 0 01-.225.403.764.764 0 01-.355.212 1.566 1.566 0 01-.4.052c-.079 0-.162-.005-.25-.014a.65.65 0 01-.352-.136.847.847 0 01-.23-.292 1.47 1.47 0 01-.125-.41 3.026 3.026 0 01-.038-.49c0-.19.014-.408.042-.651.028-.243.059-.473.094-.689l.05-.3.044-.253.034-.222-1.335-.244c-.028.19-.066.414-.115.671a9.558 9.558 0 01-.188.797 7.21 7.21 0 01-.278.807c-.11.264-.237.5-.383.71a2.008 2.008 0 01-.5.507c-.188.13-.4.195-.637.195a.735.735 0 01-.369-.083.622.622 0 01-.23-.223.974.974 0 01-.118-.316 1.894 1.894 0 01-.034-.366c0-.18.018-.377.055-.588.037-.21.081-.417.132-.619a12.77 12.77 0 01.293-.998l-1.378-.292c-.046.227-.102.468-.167.723a7.784 7.784 0 01-.236.762 5.556 5.556 0 01-.327.727 2.873 2.873 0 01-.442.616c-.17.178-.363.322-.58.431a1.626 1.626 0 01-.738.164h-.153V112h.146c.269 0 .516-.022.74-.066a2.704 2.704 0 001.13-.494c.159-.118.307-.252.446-.4.075.172.18.322.317.452s.289.239.455.327c.167.088.343.154.526.198.183.044.36.066.532.066.394 0 .767-.095 1.12-.285.352-.19.668-.447.946-.772.097.148.216.286.355.414.139.128.29.239.452.334.162.095.333.17.511.226.179.056.356.083.532.083h.05zm-7.979-.083v-1.363h-.14a2.77 2.77 0 01-.754-.09c-.211-.061-.37-.145-.476-.251a.58.58 0 01-.185-.359 3.758 3.758 0 01-.024-.441v-3.493a48.553 48.553 0 00-.066-2.546c-.021-.403-.047-.776-.077-1.12-.03-.343-.066-.633-.108-.87l-1.363.251c.042.218.078.498.108.839.03.34.055.713.076 1.116.021.404.036.82.045 1.252.01.432.014.847.014 1.245.005.409.007.796.007 1.162 0 .371-.002.7-.007.988a211.315 211.315 0 00-.014 1.037c0 .11.003.244.007.4a2.686 2.686 0 00.247 1.012c.082.176.199.34.352.494.25.25.555.436.914.556.36.12.795.181 1.305.181h.139zm-7.374-7.59l1.134-1.133-1.14-1.141-1.135 1.134 1.141 1.14zM551.72 112c.38 0 .734-.026 1.06-.077.328-.05.623-.139.888-.264.264-.125.497-.292.699-.5.202-.21.372-.471.511-.787.14-.32.209-.69.209-1.113 0-.074-.002-.148-.007-.222-.032-.515-.153-1.109-.362-1.781a9.033 9.033 0 00-.222-.644 14.062 14.062 0 00-.383-.897 1.712 1.712 0 01-.063-.143l-1.238.612.605 1.489c.098.237.172.463.223.678.051.216.081.385.09.508.01.123.014.215.014.275 0 .111-.007.216-.02.313a1.35 1.35 0 01-.105.369 1.245 1.245 0 01-.348.455c-.139.11-.301.192-.487.247-.185.056-.392.09-.619.101-.227.012-.475.018-.744.018h-.807V112h1.106zm-9.6.02c.227 0 .444-.033.65-.1.207-.067.402-.162.585-.285.183-.123.352-.267.508-.432.155-.164.295-.344.42-.539.172.413.432.739.78.978.347.239.753.358 1.217.358.237 0 .46-.035.668-.104a2.24 2.24 0 001.057-.745c.14-.176.255-.373.348-.591.12.223.267.422.438.598.172.176.36.327.567.452.207.126.426.222.658.29.232.066.468.1.71.1h.166v-1.363h-.167c-.334 0-.636-.14-.908-.421-.27-.28-.5-.706-.685-1.277a5.48 5.48 0 01-.163-.591 9.327 9.327 0 01-.16-1.012c-.017-.156-.032-.31-.046-.463l-1.363.111c.01.167.017.341.024.522a12.381 12.381 0 01.004.863 7.77 7.77 0 01-.07.803 3.115 3.115 0 01-.184.724c-.086.215-.2.39-.344.521a.78.78 0 01-.55.199c-.232 0-.415-.063-.55-.188a1.1 1.1 0 01-.295-.487c-.063-.2-.098-.38-.105-.543a5.315 5.315 0 01.017-.897c.02-.255.047-.499.084-.73.037-.232.068-.43.09-.592l-1.356-.257c-.023.213-.057.453-.1.72a8.21 8.21 0 01-.442 1.617 3.239 3.239 0 01-.37.703c-.143.204-.309.368-.496.494-.188.125-.4.187-.637.187-.19 0-.335-.064-.435-.194a.958.958 0 01-.188-.449 3.207 3.207 0 01-.03-.74c.013-.251.04-.498.08-.742.039-.243.08-.47.124-.678.044-.209.08-.371.108-.487l-1.336-.369c-.027.112-.057.244-.09.397a7.058 7.058 0 01-.129.504 9.977 9.977 0 01-.191.585 5.791 5.791 0 01-.271.63c-.102.19-.22.376-.355.56a3.353 3.353 0 01-.442.493c-.16.146-.331.263-.515.351a1.294 1.294 0 01-.567.133h-.146V112h.146a2.578 2.578 0 001.37-.38c.196-.117.374-.26.537-.427.162-.167.315-.352.459-.556a1.903 1.903 0 001.241 1.286c.202.065.412.098.63.098zm-10.637 4.863a8.524 8.524 0 001.966-.556 7.19 7.19 0 001.725-1.016 6.198 6.198 0 001.322-1.45 5.255 5.255 0 00.754-1.861h.766v-1.363h-.661a6.622 6.622 0 00-.376-2.02 5.342 5.342 0 00-.403-.881 4.395 4.395 0 00-.529-.738c-.552-.593-1.157-.89-1.816-.89a1.77 1.77 0 00-.859.226 2.61 2.61 0 00-.769.664c-.194.25-.364.549-.507.894a3.926 3.926 0 00-.275.925c-.04.272-.06.495-.06.672 0 .185.017.37.05.556.055.353.19.663.403.932.482.599 1.227.928 2.233.988.255.023.483.035.685.035h.79c-.051.348-.194.701-.428 1.06-.234.36-.553.7-.957 1.02-.403.32-.888.608-1.454.863a8.976 8.976 0 01-1.92.598l.32 1.342zm3.755-6.26h-.047c-.204 0-.422-.007-.654-.021a3.506 3.506 0 01-.295-.032 2.472 2.472 0 01-.348-.076 1.635 1.635 0 01-.334-.14.819.819 0 01-.26-.225.651.651 0 01-.143-.33 2.434 2.434 0 01-.025-.31 3.16 3.16 0 01.153-.908c.065-.202.145-.384.24-.546.095-.163.203-.296.324-.4a.577.577 0 01.382-.157c.084 0 .163.014.237.042.074.028.145.064.212.108s.13.093.188.146c.058.053.11.103.156.15.116.134.229.293.338.476.109.183.207.388.295.616.089.227.16.473.216.737.056.264.09.545.104.842-.18.014-.344.022-.49.024l-.296.004h.047zm-10.05 6.358c.39-.19.773-.405 1.151-.644.378-.238.738-.5 1.078-.782a9.21 9.21 0 00.946-.905c.29-.32.54-.656.752-1.008.21-.353.375-.718.494-1.096.118-.378.177-.769.177-1.172 0-.204-.016-.413-.049-.626a9.947 9.947 0 00-.121-.65c-.049-.22-.102-.444-.16-.668a95.398 95.398 0 01-.17-.672 10.345 10.345 0 00-.175-.636c-.065-.211-.13-.426-.194-.644l-1.322.418c.125.39.243.779.355 1.168.05.19.104.385.16.585.055.2.106.399.153.598.046.2.084.394.114.584.03.19.046.371.046.543 0 .45-.11.886-.327 1.308-.218.422-.507.82-.866 1.196-.36.376-.77.723-1.228 1.04-.46.318-.932.597-1.42.839l.606 1.224z" fill-opacity=".87" fill="#000000" fill-rule="nonzero"/><path fill="none" d="M539 88h24V64h-24z"/><path d="M560 66a1 1 0 011 1v18a1 1 0 01-1 1h-18a1 1 0 01-1-1V67a1 1 0 011-1zm-1 2h-7v16h7V68zm-9 0h-7v16h7V68zm-3.916 6.561a.5.5 0 01.832 0l1.522 2.258a.502.502 0 01-.416.782h-3.043a.502.502 0 01-.417-.782zm10.938-.22c.401 0 .641.448.416.781l-1.522 2.258a.502.502 0 01-.832 0l-1.522-2.258a.502.502 0 01.416-.782z" fill-opacity=".87" fill="#000000"/><path fill-opacity=".12" fill="#000000" d="M249 139h362v1H249z"/></g></svg>