<svg xmlns="http://www.w3.org/2000/svg" width="860" height="724"><g fill="none" fill-rule="evenodd"><rect width="860" height="724" rx="4"/><g stroke-linecap="round" transform="translate(549 64)"><path stroke="#898698" stroke-width=".2" d="M0 200h200V0H0z"/><path stroke="#898698" stroke-width=".2" d="M16.667 183.333h166.666V16.667H16.667z"/><rect width="166.667" height="133.333" x="16.667" y="33.333" stroke="#898698" rx="16.66"/><rect width="134" height="167" x="33.083" y="16.5" stroke="#898698" rx="16.66"/><path stroke="#898698" stroke-width=".2" d="M0 66.667h66.667V0H0zM0 133.333h66.667V66.667H0zM0 200h66.667v-66.667H0zM66.667 66.667h66.666V0H66.667zM66.667 133.333h66.666V66.667H66.667zM66.667 200h66.666v-66.667H66.667zM133.333 66.667H200V0h-66.667zM133.333 133.333H200V66.667h-66.667zM0 0l200 200M100 200V0M0 100h200M0 200L200 0"/><rect width="150" height="150" x="25.083" y="25" stroke="#898698" rx="16.66"/><circle cx="100" cy="100" r="83" fill="#EA475B" fill-opacity=".12" stroke="#EA475B"/><circle cx="100" cy="100" r="41.665" fill="#EA475B" fill-opacity=".12" stroke="#EA475B"/></g><path fill="#000000" fill-opacity=".56" fill-rule="nonzero" d="M553.025 285.117c1 0 1.806-.263 2.417-.79.612-.528.95-1.25 1.017-2.169h-1.758c-.039.52-.192.904-.46 1.152-.267.248-.673.372-1.216.372-.601 0-1.042-.213-1.32-.639-.28-.426-.42-1.1-.42-2.022v-.644c.008-.883.157-1.534.448-1.954.291-.42.73-.63 1.316-.63.539 0 .94.124 1.204.372s.417.647.46 1.198h1.758c-.094-.953-.442-1.693-1.043-2.22-.602-.528-1.395-.791-2.38-.791-.71 0-1.334.167-1.871.5-.537.335-.95.814-1.24 1.439-.289.625-.433 1.348-.433 2.168v.521c0 1.286.313 2.296.94 3.033.627.736 1.488 1.104 2.581 1.104zm5.414-7.219c.286 0 .515-.082.689-.246a.831.831 0 00.26-.632.83.83 0 00-.257-.627c-.172-.164-.402-.247-.692-.247-.293 0-.524.083-.694.247a.834.834 0 00-.255.627c0 .257.087.468.261.632.174.164.403.246.688.246zm.85 7.102v-6.34h-1.7V285h1.7zm3.088 0v-4.148c.2-.434.62-.65 1.26-.65a4.6 4.6 0 01.61.046l.023-1.629a1.774 1.774 0 00-.528-.076c-.601 0-1.072.291-1.412.873l-.047-.756h-1.6V285h1.694zm5.35.117c.484 0 .926-.098 1.327-.296.4-.197.716-.474.946-.832.23-.357.348-.75.352-1.18h-1.588a.903.903 0 01-.305.685c-.195.172-.45.258-.762.258-.406 0-.709-.143-.908-.428-.2-.285-.299-.754-.299-1.406v-.176c0-.644.1-1.11.302-1.397.201-.287.499-.43.894-.43.32 0 .578.102.773.307.195.205.297.471.305.8h1.588c-.008-.75-.251-1.351-.73-1.802-.478-.451-1.114-.677-1.907-.677-.906 0-1.62.291-2.139.873-.52.582-.78 1.361-.78 2.338v.111c0 1.016.263 1.812.786 2.388.523.576 1.238.864 2.145.864zm5.378-.117v-9h-1.699v9h1.7zm4.313.117c.527 0 1.008-.1 1.441-.302a2.542 2.542 0 001.032-.84l-.832-.932c-.368.473-.877.709-1.53.709-.422 0-.77-.125-1.046-.375-.275-.25-.44-.582-.495-.996h4.037v-.692c0-1.003-.249-1.779-.747-2.326-.498-.547-1.18-.82-2.048-.82-.578 0-1.092.136-1.543.407a2.71 2.71 0 00-1.046 1.16c-.246.502-.37 1.072-.37 1.708v.164c0 .95.292 1.71.876 2.28.584.57 1.341.855 2.271.855zm.943-3.89h-2.355c.058-.422.192-.747.401-.973.21-.227.482-.34.818-.34.359 0 .636.103.832.308.195.205.297.495.304.87v.135zM552.351 307c.766-.008 1.437-.174 2.013-.498a3.277 3.277 0 001.33-1.395c.31-.605.466-1.31.466-2.115v-.545c-.004-.785-.161-1.48-.472-2.086a3.329 3.329 0 00-1.32-1.4c-.571-.328-1.227-.492-1.97-.492h-2.408V307h2.362zm-.052-.92h-1.184v-6.685h1.313c.836.007 1.481.28 1.936.817.455.537.683 1.29.683 2.259v.498c0 .996-.241 1.763-.724 2.302-.482.54-1.157.81-2.024.81zm6.035-6.486c.21 0 .371-.059.48-.176a.62.62 0 00.165-.44.64.64 0 00-.165-.445c-.109-.12-.27-.181-.48-.181-.211 0-.37.06-.478.181a.647.647 0 00-.16.446c0 .175.053.322.16.439.108.117.267.176.478.176zm.533 7.406v-6.34h-1.084V307h1.084zm3.692.117c.699 0 1.3-.262 1.804-.785.04.32.09.543.153.668h1.136v-.094c-.148-.344-.222-.806-.222-1.388V302.6c-.016-.641-.23-1.144-.645-1.51-.414-.364-.986-.547-1.717-.547-.46 0-.883.086-1.268.258a2.3 2.3 0 00-.914.7c-.225.295-.337.6-.337.917h1.09c0-.277.13-.514.392-.709.262-.195.586-.293.973-.293.441 0 .775.112 1.002.337.226.225.34.526.34.905v.498h-1.055c-.91 0-1.616.183-2.118.548-.502.365-.753.878-.753 1.538 0 .543.2.991.6 1.345.4.353.914.53 1.539.53zm.158-.943c-.356 0-.647-.096-.873-.287-.227-.192-.34-.457-.34-.797 0-.778.664-1.166 1.992-1.166h.85v1.3c-.137.282-.358.51-.662.686a1.905 1.905 0 01-.967.264zm5.49.826v-4.629c.262-.605.748-.908 1.459-.908.902 0 1.354.46 1.354 1.383V307h1.09v-4.207c.042-.406.197-.73.462-.97.266-.24.6-.36 1.002-.36.489 0 .836.112 1.043.337.207.224.31.563.31 1.016V307h1.085v-4.248c-.024-1.473-.73-2.209-2.121-2.209-.461 0-.86.094-1.199.281a2.402 2.402 0 00-.823.738c-.32-.68-.924-1.019-1.81-1.019-.79 0-1.416.273-1.881.82l-.03-.703h-1.025V307h1.084zm12.07.117c1.063 0 1.86-.408 2.391-1.224l-.662-.516c-.2.258-.432.465-.697.621-.266.156-.59.234-.973.234-.54 0-.983-.192-1.333-.577-.35-.384-.532-.89-.548-1.514h4.295v-.452c0-1.011-.229-1.789-.686-2.332-.457-.543-1.097-.814-1.921-.814-.504 0-.972.14-1.404.419-.431.28-.767.666-1.008 1.16-.24.494-.36 1.056-.36 1.685v.199c0 .945.27 1.7.809 2.265.539.564 1.238.846 2.097.846zm1.389-3.867h-3.176c.07-.574.254-1.02.551-1.339a1.446 1.446 0 011.102-.477c.453 0 .812.151 1.078.454.265.302.414.73.445 1.28v.082zm4.19 3.867c.269 0 .546-.039.832-.117v-.879c-.22.047-.391.07-.516.07-.254 0-.434-.063-.54-.19-.105-.127-.157-.317-.157-.571v-3.932h1.183v-.838h-1.183v-1.535h-1.084v1.535h-1.155v.838h1.155v3.932c0 .539.123.955.369 1.248.246.293.611.44 1.095.44zm4.699 0c1.062 0 1.86-.408 2.39-1.224l-.662-.516c-.199.258-.431.465-.697.621-.266.156-.59.234-.973.234-.539 0-.983-.192-1.333-.577-.35-.384-.532-.89-.548-1.514h4.295v-.452c0-1.011-.228-1.789-.685-2.332-.457-.543-1.098-.814-1.922-.814-.504 0-.972.14-1.403.419-.432.28-.768.666-1.008 1.16-.24.494-.36 1.056-.36 1.685v.199c0 .945.269 1.7.808 2.265.54.564 1.238.846 2.098.846zm1.388-3.867h-3.175c.07-.574.253-1.02.55-1.339a1.446 1.446 0 011.102-.477c.453 0 .812.151 1.078.454.266.302.414.73.445 1.28v.082zm3.422 3.75v-4.5c.254-.605.737-.908 1.448-.908.19 0 .369.013.533.04v-1.007c-.11-.055-.27-.082-.48-.082-.653 0-1.157.283-1.512.85l-.018-.733h-1.055V307h1.084zm11.426 0v-.885h-4.283l2.285-2.478c1.07-1.16 1.605-2.16 1.605-3 0-.692-.23-1.245-.691-1.661-.46-.416-1.088-.624-1.88-.624-.848 0-1.525.242-2.031.726-.506.484-.759 1.12-.759 1.904h1.084c0-.546.15-.973.448-1.28.3-.306.718-.46 1.257-.46.45 0 .809.143 1.078.428.27.285.405.65.405 1.096 0 .332-.083.653-.25.963-.165.311-.467.714-.905 1.21l-2.953 3.282V307h5.59zm3.814.117c.922 0 1.6-.308 2.034-.926.433-.617.65-1.56.65-2.83v-1.406c-.012-1.226-.234-2.134-.668-2.722-.433-.587-1.11-.881-2.027-.881-.926 0-1.606.304-2.04.914-.433.609-.65 1.54-.65 2.795v1.447c.016 1.199.242 2.1.68 2.704.437.603 1.111.905 2.021.905zm0-.885c-.542 0-.948-.22-1.215-.659-.268-.44-.402-1.12-.402-2.042v-1.734c.008-.867.139-1.51.393-1.928.254-.418.658-.627 1.213-.627.558 0 .967.21 1.224.63.258.42.387 1.089.387 2.007v1.775c-.012.89-.147 1.543-.407 1.957-.26.414-.657.621-1.193.621zm6.41.885c.774 0 1.378-.265 1.811-.797l.053.68h.996v-9h-1.084v3.305c-.434-.508-1.021-.762-1.764-.762-.746 0-1.35.296-1.81.888-.461.591-.692 1.374-.692 2.346v.082c0 .97.232 1.754.695 2.356.463.601 1.061.902 1.796.902zm.27-.92c-.523 0-.933-.203-1.23-.61-.297-.405-.446-.968-.446-1.687 0-.804.149-1.412.446-1.822.297-.41.71-.615 1.242-.615.672 0 1.17.299 1.494.896v2.912c-.316.618-.818.926-1.506.926zm5.356 3.24v-3.052c.441.488 1.047.732 1.816.732.754 0 1.352-.295 1.793-.885.441-.59.662-1.367.662-2.332v-.1c0-1.023-.222-1.821-.665-2.396-.443-.574-1.046-.861-1.808-.861-.785 0-1.398.273-1.84.82l-.052-.703h-.99v8.778h1.084zm1.488-3.205c-.668 0-1.164-.289-1.488-.867v-3.03c.328-.581.82-.872 1.476-.872.531 0 .95.207 1.254.621.305.414.457.978.457 1.693 0 .813-.153 1.425-.46 1.837-.306.412-.72.618-1.24.618z"/><g stroke-linecap="round" transform="translate(111 64)"><path stroke="#898698" stroke-width=".2" d="M0 200h200V0H0z"/><path stroke="#898698" stroke-width=".2" d="M16.667 183.333h166.666V16.667H16.667z"/><rect width="166.667" height="133.333" x="16.667" y="33.333" stroke="#898698" rx="16.66"/><rect width="134" height="167" x="33.083" y="16.5" stroke="#898698" rx="16.66"/><circle cx="100" cy="100" r="41.665" stroke="#898698"/><path stroke="#898698" stroke-width=".2" d="M0 66.667h66.667V0H0zM0 133.333h66.667V66.667H0zM0 200h66.667v-66.667H0zM66.667 66.667h66.666V0H66.667zM66.667 133.333h66.666V66.667H66.667zM66.667 200h66.666v-66.667H66.667zM133.333 66.667H200V0h-66.667zM133.333 133.333H200V66.667h-66.667zM0 0l200 200M100 200V0M0 100h200M0 200L200 0"/><circle cx="100" cy="100" r="83" stroke="#898698"/><rect width="150" height="150" x="25.083" y="25" fill="#EA475B" fill-opacity=".12" stroke="#EA475B" rx="16.66"/></g><path fill="#000000" fill-opacity=".56" fill-rule="nonzero" d="M114.855 285.117c.946 0 1.698-.21 2.256-.63.559-.42.838-.999.838-1.737 0-.664-.228-1.219-.685-1.664-.457-.445-1.186-.818-2.186-1.12-.543-.163-.954-.339-1.233-.527-.28-.187-.42-.42-.42-.697a.86.86 0 01.358-.718c.238-.181.572-.272 1.002-.272.445 0 .791.108 1.037.325.246.217.37.52.37.911h1.757c0-.511-.132-.968-.395-1.37a2.594 2.594 0 00-1.11-.935c-.477-.221-1.02-.331-1.63-.331-.605 0-1.15.101-1.637.304-.487.203-.86.486-1.12.847a2.06 2.06 0 00-.389 1.233c0 .887.484 1.592 1.453 2.116.356.191.838.385 1.447.583.61.197 1.032.384 1.266.562.234.178.352.433.352.765a.83.83 0 01-.352.712c-.234.17-.56.255-.979.255-1.125 0-1.687-.471-1.687-1.413h-1.764c0 .551.142 1.036.425 1.454.283.418.694.747 1.234.987.539.24 1.136.36 1.792.36zm9.622 2.32v-8.777h-1.489l-.111.662c-.402-.52-.943-.779-1.623-.779-.774 0-1.382.289-1.825.867-.444.578-.665 1.365-.665 2.361 0 1.06.224 1.881.674 2.467.449.586 1.05.88 1.804.88.633 0 1.145-.222 1.535-.663v2.983h1.7zm-2.801-3.685c-.387 0-.687-.158-.9-.475-.213-.316-.319-.777-.319-1.382 0-.688.107-1.19.322-1.506.215-.317.518-.475.909-.475.515 0 .878.2 1.09.598v2.619c-.216.414-.583.621-1.102.621zm6.193 1.365c.738 0 1.317-.254 1.735-.762l.046.645h1.594v-6.34h-1.7v4.488c-.214.399-.608.598-1.183.598-.601 0-.902-.33-.902-.99v-4.096h-1.693v4.154c.007.754.19 1.327.547 1.717.358.39.876.586 1.556.586zm6.557 0c.656 0 1.19-.228 1.6-.685.035.226.091.416.17.568h1.71v-.1c-.164-.308-.248-.763-.252-1.365v-2.748c0-.71-.23-1.263-.688-1.655-.46-.393-1.08-.589-1.86-.589-.516 0-.981.089-1.395.267-.414.177-.734.422-.961.735-.227.312-.34.652-.34 1.02h1.694c0-.239.08-.426.243-.563.162-.137.385-.205.67-.205.325 0 .562.088.712.264.15.175.226.41.226.703v.363h-.78c-.94.004-1.66.185-2.158.545-.498.36-.747.875-.747 1.547 0 .547.204 1 .612 1.36.408.358.923.538 1.544.538zm.369-1.295c-.258 0-.461-.068-.61-.205a.678.678 0 01-.222-.521l.006-.1c.054-.586.506-.879 1.353-.879h.633v1.09a1.097 1.097 0 01-.469.448c-.21.112-.441.167-.691.167zm5.853 1.178v-4.148c.2-.434.62-.65 1.26-.65a4.6 4.6 0 01.61.046l.023-1.629a1.774 1.774 0 00-.527-.076c-.602 0-1.073.291-1.412.873l-.047-.756h-1.6V285h1.693zm5.602.117c.527 0 1.008-.1 1.441-.302a2.542 2.542 0 001.032-.84l-.832-.932c-.368.473-.877.709-1.53.709-.422 0-.77-.125-1.046-.375-.275-.25-.44-.582-.495-.996h4.037v-.692c0-1.003-.249-1.779-.747-2.326-.498-.547-1.18-.82-2.048-.82-.578 0-1.092.136-1.543.407a2.71 2.71 0 00-1.046 1.16c-.246.502-.37 1.072-.37 1.708v.164c0 .95.293 1.71.876 2.28.584.57 1.341.855 2.271.855zm.943-3.89h-2.355c.058-.422.192-.747.401-.973.21-.227.482-.34.818-.34.359 0 .636.103.832.308.195.205.297.495.304.87v.135zM114.445 307l1.823-6.217.134-.65.135.65 1.758 6.217h1.025l2.069-8.531h-1.131l-1.324 5.836-.182 1.148-.234-1.031-1.647-5.953h-.95l-1.687 5.953-.24 1.014-.164-1.125-1.348-5.842h-1.125L113.42 307h1.025zm8.666-7.406c.211 0 .371-.059.48-.176a.62.62 0 00.165-.44.64.64 0 00-.164-.445c-.11-.12-.27-.181-.48-.181-.212 0-.37.06-.478.181a.647.647 0 00-.161.446c0 .175.053.322.16.439.108.117.267.176.478.176zm.534 7.406v-6.34h-1.084V307h1.084zm3.96.117c.774 0 1.377-.265 1.811-.797l.053.68h.996v-9h-1.084v3.305c-.434-.508-1.022-.762-1.764-.762-.746 0-1.35.296-1.81.888-.461.591-.692 1.374-.692 2.346v.082c0 .97.232 1.754.695 2.356.462.601 1.061.902 1.795.902zm.27-.92c-.523 0-.934-.203-1.23-.61-.297-.405-.446-.968-.446-1.687 0-.804.149-1.412.446-1.822.296-.41.71-.615 1.242-.615.672 0 1.17.299 1.494.896v2.912c-.317.618-.818.926-1.506.926zm6.123.92c.27 0 .547-.039.832-.117v-.879c-.219.047-.39.07-.516.07-.253 0-.433-.063-.539-.19-.105-.127-.158-.317-.158-.571v-3.932h1.184v-.838h-1.184v-1.535h-1.084v1.535h-1.154v.838h1.154v3.932c0 .539.123.955.37 1.248.245.293.61.44 1.095.44zm3.152-.117v-4.518a1.91 1.91 0 01.621-.738c.266-.187.575-.281.926-.281.434 0 .753.11.958.328.205.219.31.557.314 1.014V307h1.084v-4.19c-.012-1.511-.688-2.267-2.028-2.267-.77 0-1.394.295-1.875.885V298h-1.084v9h1.084zm11.948 0v-8.572h-.17l-3.106 1.166v.984l2.186-.803V307h1.09zm5.836.117c.812 0 1.467-.219 1.965-.656.498-.438.747-1.025.747-1.764 0-.465-.13-.88-.39-1.248a2.445 2.445 0 00-1.057-.838c.383-.187.687-.447.911-.779.225-.332.337-.71.337-1.137 0-.718-.231-1.289-.694-1.71-.463-.423-1.07-.633-1.82-.633-.753 0-1.36.21-1.822.632-.46.422-.691.993-.691 1.711 0 .422.11.8.328 1.131.219.332.518.592.897.78a2.352 2.352 0 00-1.046.843 2.171 2.171 0 00-.378 1.248c0 .735.247 1.322.74 1.761.495.44 1.152.66 1.973.66zm0-4.951c-.434 0-.78-.134-1.04-.401-.26-.268-.39-.619-.39-1.052 0-.453.132-.812.395-1.075.264-.264.609-.396 1.035-.396.414 0 .755.137 1.025.41.27.274.404.627.404 1.06 0 .434-.13.785-.39 1.053-.26.267-.606.401-1.04.401zm0 4.066c-.512 0-.912-.138-1.199-.416-.287-.277-.43-.658-.43-1.142 0-.485.147-.875.442-1.172.295-.297.687-.445 1.175-.445s.884.15 1.186.45c.303.302.455.69.455 1.167 0 .48-.145.86-.434 1.14-.29.279-.688.418-1.195.418zm6.416.885c.773 0 1.377-.265 1.81-.797l.053.68h.996v-9h-1.084v3.305c-.434-.508-1.021-.762-1.764-.762-.746 0-1.35.296-1.81.888-.461.591-.692 1.374-.692 2.346v.082c0 .97.232 1.754.695 2.356.463.601 1.061.902 1.796.902zm.27-.92c-.524 0-.934-.203-1.231-.61-.297-.405-.446-.968-.446-1.687 0-.804.149-1.412.446-1.822.297-.41.71-.615 1.242-.615.672 0 1.17.299 1.494.896v2.912c-.316.618-.818.926-1.506.926zm5.355 3.24v-3.052c.441.488 1.046.732 1.816.732.754 0 1.352-.295 1.793-.885.441-.59.662-1.367.662-2.332v-.1c0-1.023-.222-1.821-.665-2.396-.443-.574-1.046-.861-1.808-.861-.785 0-1.398.273-1.84.82l-.052-.703h-.99v8.777h1.084zm1.488-3.205c-.668 0-1.164-.289-1.488-.867v-3.03c.328-.581.82-.872 1.476-.872.531 0 .95.207 1.254.621.305.414.457.978.457 1.693 0 .813-.153 1.425-.46 1.837-.306.412-.72.618-1.24.618zM113.115 325v-3.943h4.301V325h1.13v-8.531h-1.13v3.668h-4.3v-3.668h-1.126V325h1.125zm9.89.117c1.063 0 1.86-.408 2.391-1.224l-.662-.516c-.199.258-.431.465-.697.621-.266.156-.59.234-.973.234-.539 0-.983-.192-1.333-.577-.35-.384-.532-.89-.547-1.514h4.295v-.452c0-1.011-.229-1.789-.686-2.332-.457-.543-1.098-.814-1.922-.814-.504 0-.972.14-1.403.419-.432.28-.768.666-1.008 1.16-.24.494-.36 1.056-.36 1.685v.199c0 .945.27 1.7.808 2.265.54.564 1.238.846 2.098.846zm1.39-3.867h-3.176c.07-.574.254-1.02.55-1.339a1.446 1.446 0 011.102-.477c.453 0 .813.151 1.078.454.266.302.414.73.446 1.28v.082zm2.982-3.656c.21 0 .371-.059.48-.176a.62.62 0 00.164-.44.64.64 0 00-.164-.445c-.109-.12-.27-.181-.48-.181-.211 0-.37.06-.478.181a.647.647 0 00-.16.446c0 .175.053.322.16.439.108.117.267.176.478.176zm.533 7.406v-6.34h-1.084V325h1.084zm4.143 2.496c.82 0 1.473-.236 1.96-.709.486-.473.73-1.119.73-1.94v-6.187h-.991l-.053.703c-.433-.547-1.037-.82-1.81-.82-.754 0-1.36.292-1.817.876-.457.584-.685 1.37-.685 2.358 0 1.032.23 1.846.688 2.444.46.597 1.06.896 1.802.896.75 0 1.342-.25 1.775-.75v.545c0 .54-.147.957-.442 1.254-.295.297-.706.445-1.233.445-.672 0-1.24-.287-1.706-.861l-.562.65c.23.34.564.608 1.002.803a3.26 3.26 0 001.342.293zm.093-3.299c-.527 0-.937-.204-1.23-.612-.293-.408-.44-.97-.44-1.685 0-.804.149-1.412.446-1.822.297-.41.709-.615 1.236-.615.664 0 1.162.303 1.494.908v2.895c-.32.62-.822.931-1.506.931zm5.315.803v-4.518a1.91 1.91 0 01.621-.738c.266-.187.574-.281.926-.281.433 0 .753.11.958.328.205.219.31.557.313 1.014V325h1.084v-4.19c-.011-1.511-.687-2.267-2.027-2.267-.77 0-1.395.295-1.875.885V316h-1.084v9h1.084zm7.377.117c.27 0 .547-.039.832-.117v-.879c-.219.047-.39.07-.516.07-.254 0-.433-.063-.539-.19-.105-.127-.158-.317-.158-.571v-3.932h1.184v-.838h-1.184v-1.535h-1.084v1.535h-1.154v.838h1.154v3.932c0 .539.123.955.37 1.248.245.293.61.44 1.095.44zm8.49-.117v-8.572h-.17l-3.105 1.166v.984l2.185-.803V325h1.09zm5.836.117c.813 0 1.468-.219 1.966-.656.498-.438.747-1.025.747-1.764 0-.465-.13-.88-.39-1.248a2.445 2.445 0 00-1.057-.838c.383-.187.686-.447.91-.779.225-.332.338-.71.338-1.137 0-.718-.232-1.289-.695-1.71-.462-.423-1.069-.633-1.819-.633-.754 0-1.361.21-1.822.632-.461.422-.692.993-.692 1.711 0 .422.11.8.329 1.131.218.332.517.592.896.78a2.352 2.352 0 00-1.046.843 2.171 2.171 0 00-.378 1.248c0 .735.247 1.322.741 1.761.495.44 1.152.66 1.972.66zm0-4.951c-.434 0-.78-.134-1.04-.401-.26-.268-.39-.619-.39-1.052 0-.453.132-.812.396-1.075.264-.264.608-.396 1.034-.396.414 0 .756.137 1.025.41.27.274.405.627.405 1.06 0 .434-.13.785-.39 1.053-.26.267-.606.401-1.04.401zm0 4.066c-.512 0-.911-.138-1.198-.416-.287-.277-.43-.658-.43-1.142 0-.485.147-.875.442-1.172.294-.297.686-.445 1.174-.445.489 0 .884.15 1.187.45.303.302.454.69.454 1.167 0 .48-.145.86-.434 1.14-.289.279-.687.418-1.195.418zm6.416.885c.774 0 1.377-.265 1.81-.797l.053.68h.996v-9h-1.084v3.305c-.433-.508-1.021-.762-1.763-.762-.746 0-1.35.296-1.81.888-.462.591-.692 1.374-.692 2.346v.082c0 .97.231 1.754.694 2.356.463.601 1.062.902 1.796.902zm.27-.92c-.524 0-.934-.203-1.23-.61-.298-.405-.446-.968-.446-1.687 0-.804.148-1.412.445-1.822.297-.41.711-.615 1.242-.615.672 0 1.17.299 1.494.896v2.912c-.316.618-.818.926-1.505.926zm5.355 3.24v-3.052c.441.488 1.047.732 1.816.732.754 0 1.352-.295 1.793-.885.442-.59.663-1.367.663-2.332v-.1c0-1.023-.222-1.821-.665-2.396-.444-.574-1.046-.861-1.808-.861-.785 0-1.399.273-1.84.82l-.053-.703h-.99v8.777h1.084zm1.488-3.205c-.668 0-1.164-.289-1.488-.867v-3.03c.328-.581.82-.872 1.477-.872.53 0 .949.207 1.254.621.304.414.457.978.457 1.693 0 .813-.154 1.425-.46 1.837-.307.412-.72.618-1.24.618z"/><g stroke-linecap="round" transform="translate(549 394)"><path stroke="#898698" stroke-width=".2" d="M0 200h200V0H0z"/><path stroke="#898698" stroke-width=".2" d="M16.667 183.333h166.666V16.667H16.667z"/><rect width="134" height="167" x="33.083" y="16.5" stroke="#898698" rx="16.66"/><circle cx="100" cy="100" r="41.665" stroke="#898698"/><path stroke="#898698" stroke-width=".2" d="M0 66.667h66.667V0H0zM0 133.333h66.667V66.667H0zM0 200h66.667v-66.667H0zM66.667 66.667h66.666V0H66.667zM66.667 133.333h66.666V66.667H66.667zM66.667 200h66.666v-66.667H66.667zM133.333 66.667H200V0h-66.667zM133.333 133.333H200V66.667h-66.667zM0 0l200 200M100 200V0M0 100h200M0 200L200 0"/><circle cx="100" cy="100" r="83" stroke="#898698"/><rect width="150" height="150" x="25.083" y="25" stroke="#898698" rx="16.66"/><rect width="166.667" height="133.333" x="16.667" y="33.333" fill="#EA475B" fill-opacity=".12" stroke="#EA475B" rx="16.66"/></g><path fill="#000000" fill-opacity=".56" fill-rule="nonzero" d="M551.52 615v-3.656h3.427V615h1.758v-8.531h-1.758v3.457h-3.427v-3.457h-1.758V615h1.758zm9.351.117c.914 0 1.643-.294 2.186-.882.543-.588.814-1.368.814-2.34l-.012-.434c-.062-.899-.364-1.61-.905-2.133-.54-.523-1.24-.785-2.095-.785-.601 0-1.13.135-1.585.404a2.66 2.66 0 00-1.045 1.143c-.243.492-.364 1.053-.364 1.681v.077c0 1.007.273 1.804.818 2.39.545.586 1.274.88 2.188.88zm0-1.365c-.422 0-.746-.16-.973-.478-.226-.318-.34-.778-.34-1.38 0-.675.114-1.174.34-1.497.227-.322.547-.483.961-.483.418 0 .743.162.973.486.23.325.346.782.346 1.371 0 .692-.116 1.195-.346 1.51-.23.314-.55.471-.96.471zm5.736 1.248v-4.148c.2-.434.62-.65 1.26-.65a4.6 4.6 0 01.61.046l.023-1.629a1.774 1.774 0 00-.527-.076c-.602 0-1.073.291-1.412.873l-.047-.756h-1.6V615h1.693zm3.622-7.102c.285 0 .514-.082.688-.246a.831.831 0 00.26-.632.83.83 0 00-.257-.627c-.172-.164-.402-.247-.691-.247-.293 0-.525.083-.695.247a.834.834 0 00-.255.627c0 .257.087.468.261.632.174.164.403.246.689.246zm.85 7.102v-6.34h-1.7V615h1.7zm6.439 0v-1.365h-3.1l3.006-3.973v-1.002h-5.08v1.371h2.894l-2.982 3.938V615h5.262zm3.802.117c.914 0 1.643-.294 2.186-.882.543-.588.814-1.368.814-2.34l-.011-.434c-.063-.899-.365-1.61-.906-2.133-.54-.523-1.239-.785-2.094-.785-.602 0-1.13.135-1.585.404a2.66 2.66 0 00-1.046 1.143c-.242.492-.364 1.053-.364 1.681v.077c0 1.007.273 1.804.818 2.39.545.586 1.274.88 2.188.88zm0-1.365c-.422 0-.746-.16-.972-.478-.227-.318-.34-.778-.34-1.38 0-.675.113-1.174.34-1.497.226-.322.547-.483.96-.483.419 0 .743.162.973.486.23.325.346.782.346 1.371 0 .692-.115 1.195-.346 1.51-.23.314-.55.471-.96.471zm5.701 1.248v-4.47c.239-.407.596-.61 1.073-.61.363 0 .623.081.779.243.156.162.234.423.234.782V615h1.694v-4.096c-.008-.785-.176-1.375-.504-1.77-.328-.394-.828-.591-1.5-.591-.762 0-1.37.283-1.822.85l-.053-.733h-1.594V615h1.693zm7.213.117c.352 0 .694-.05 1.026-.152v-1.283a2.7 2.7 0 01-.498.04c-.254 0-.426-.05-.516-.152-.09-.101-.135-.27-.135-.504v-3.164h1.084v-1.242h-1.084v-1.558h-1.693v1.558h-.926v1.242h.926v3.416c.023 1.2.629 1.8 1.816 1.8zm3.809 0c.656 0 1.19-.228 1.6-.685.035.226.091.416.17.568h1.71v-.1c-.164-.308-.248-.763-.252-1.365v-2.748c0-.71-.229-1.263-.688-1.655-.459-.393-1.08-.589-1.86-.589-.516 0-.98.089-1.395.267-.414.177-.734.422-.96.735-.227.312-.34.652-.34 1.02h1.693c0-.239.08-.426.243-.563.162-.137.386-.205.67-.205.325 0 .562.088.713.264.15.175.225.41.225.703v.363h-.779c-.941.004-1.661.186-2.16.545-.497.36-.746.875-.746 1.547 0 .547.204 1 .612 1.36.408.359.923.538 1.544.538zm.37-1.295c-.259 0-.462-.068-.61-.205a.678.678 0 01-.223-.521l.006-.1c.055-.586.506-.879 1.353-.879h.633v1.09a1.097 1.097 0 01-.468.448c-.211.112-.442.167-.692.167zm5.946 1.178v-9h-1.699v9h1.7zm6.252 0v-3.123h1.4l1.6 3.123h1.887v-.082l-1.846-3.486c.512-.23.894-.54 1.146-.93.252-.388.378-.873.378-1.455 0-.82-.274-1.455-.82-1.904-.547-.45-1.325-.674-2.333-.674h-3.17V615h1.758zm1.418-4.547h-1.418v-2.56h1.412c.473 0 .824.115 1.052.345.229.23.343.547.343.95 0 .394-.121.704-.363.928-.242.225-.584.337-1.026.337zm7.29 4.664c.527 0 1.007-.1 1.44-.302a2.542 2.542 0 001.032-.84l-.832-.932c-.367.473-.877.709-1.53.709-.421 0-.77-.125-1.045-.375-.276-.25-.44-.582-.495-.996h4.037v-.692c0-1.003-.25-1.779-.747-2.326-.498-.547-1.181-.82-2.048-.82-.578 0-1.093.136-1.544.407a2.71 2.71 0 00-1.046 1.16c-.246.502-.37 1.072-.37 1.708v.164c0 .95.293 1.71.877 2.28.584.57 1.34.855 2.27.855zm.943-3.89h-2.356c.059-.422.193-.747.402-.973.209-.227.481-.34.817-.34.36 0 .637.103.832.308.195.205.297.495.305.87v.135zm5.29 3.89c.485 0 .927-.098 1.328-.296.4-.197.716-.474.946-.832.23-.357.348-.75.352-1.18h-1.588a.903.903 0 01-.305.685c-.195.172-.45.258-.762.258-.406 0-.709-.143-.908-.428-.199-.285-.299-.754-.299-1.406v-.176c0-.644.101-1.11.302-1.397.201-.287.5-.43.894-.43.32 0 .578.102.773.307.195.205.297.471.305.8h1.588c-.008-.75-.251-1.351-.73-1.802-.478-.451-1.114-.677-1.907-.677-.906 0-1.62.291-2.139.873-.52.582-.779 1.361-.779 2.338v.111c0 1.016.262 1.812.785 2.388.524.576 1.238.864 2.145.864zm5.743 0c.351 0 .693-.05 1.025-.152v-1.283a2.7 2.7 0 01-.498.04c-.254 0-.426-.05-.515-.152-.09-.101-.135-.27-.135-.504v-3.164h1.084v-1.242h-1.084v-1.558h-1.693v1.558h-.926v1.242h.926v3.416c.023 1.2.628 1.8 1.816 1.8zm3.809 0c.656 0 1.189-.228 1.6-.685.034.226.09.416.169.568h1.711v-.1c-.164-.308-.248-.763-.252-1.365v-2.748c0-.71-.23-1.263-.688-1.655-.46-.393-1.08-.589-1.86-.589-.516 0-.981.089-1.395.267-.414.177-.735.422-.961.735-.227.312-.34.652-.34 1.02h1.693c0-.239.081-.426.243-.563.163-.137.386-.205.671-.205.325 0 .562.088.712.264.15.175.226.41.226.703v.363h-.78c-.94.004-1.66.186-2.159.545-.498.36-.747.875-.747 1.547 0 .547.204 1 .613 1.36.408.359.922.538 1.544.538zm.369-1.295c-.258 0-.461-.068-.61-.205a.678.678 0 01-.222-.521l.005-.1c.055-.586.506-.879 1.354-.879h.633v1.09a1.097 1.097 0 01-.469.448c-.21.112-.441.167-.691.167zM641.29 615v-4.47c.238-.407.596-.61 1.072-.61.364 0 .623.081.78.243.156.162.234.423.234.782V615h1.693v-4.096c-.007-.785-.175-1.375-.504-1.77-.328-.394-.828-.591-1.5-.591-.761 0-1.369.283-1.822.85l-.053-.733h-1.593V615h1.693zm7.564 2.496c.614 0 1.149-.107 1.606-.322a2.427 2.427 0 001.063-.938c.252-.41.378-.892.378-1.447v-6.129h-1.535l-.07.598c-.387-.477-.928-.715-1.623-.715-.785 0-1.41.297-1.872.89-.463.594-.695 1.378-.695 2.35v.07c0 .985.236 1.775.706 2.37.471.596 1.087.894 1.85.894.636 0 1.15-.22 1.54-.662v.34c0 .441-.125.782-.375 1.022s-.6.36-1.049.36c-.601 0-1.113-.236-1.535-.708l-.75 1.031c.227.293.56.532 1.002.718.442.185.895.278 1.36.278zm.24-3.75a1.1 1.1 0 01-.949-.49c-.23-.325-.345-.776-.345-1.35 0-.66.116-1.156.348-1.488.233-.332.552-.498.958-.498.504 0 .87.193 1.096.58v2.666c-.223.387-.592.58-1.107.58zM654.99 615v-9h-1.699v9h1.7zm4.313.117c.527 0 1.008-.1 1.441-.302a2.542 2.542 0 001.031-.84l-.832-.932c-.367.473-.877.709-1.529.709-.422 0-.77-.125-1.046-.375-.275-.25-.44-.582-.495-.996h4.037v-.692c0-1.003-.249-1.779-.747-2.326-.498-.547-1.18-.82-2.048-.82-.578 0-1.093.136-1.544.407a2.71 2.71 0 00-1.046 1.16c-.246.502-.369 1.072-.369 1.708v.164c0 .95.292 1.71.876 2.28.584.57 1.341.855 2.27.855zm.943-3.89h-2.355c.058-.422.192-.747.401-.973.209-.227.481-.34.817-.34.36 0 .637.103.832.308.196.205.297.495.305.87v.135zM552.446 637l1.822-6.217.134-.65.135.65 1.758 6.217h1.025l2.069-8.531h-1.131l-1.324 5.836-.182 1.148-.234-1.031-1.647-5.953h-.95l-1.687 5.953-.24 1.014-.164-1.125-1.348-5.842h-1.125L551.42 637h1.025zm8.665-7.406c.211 0 .371-.059.48-.176a.62.62 0 00.165-.44.64.64 0 00-.164-.445c-.11-.12-.27-.181-.48-.181-.212 0-.37.06-.478.181a.647.647 0 00-.161.446c0 .175.053.322.16.439.108.117.267.176.478.176zm.534 7.406v-6.34h-1.084V637h1.084zm3.96.117c.774 0 1.377-.265 1.811-.797l.053.68h.996v-9h-1.084v3.305c-.434-.508-1.022-.762-1.764-.762-.746 0-1.35.296-1.81.888-.461.591-.692 1.374-.692 2.346v.082c0 .97.232 1.754.695 2.356.462.601 1.061.902 1.795.902zm.27-.92c-.523 0-.934-.203-1.23-.61-.297-.405-.446-.968-.446-1.687 0-.804.149-1.412.446-1.822.296-.41.71-.615 1.242-.615.672 0 1.17.299 1.494.896v2.912c-.317.618-.818.926-1.506.926zm6.123.92c.27 0 .547-.039.832-.117v-.879c-.219.047-.39.07-.516.07-.253 0-.433-.063-.539-.19-.105-.127-.158-.317-.158-.571v-3.932h1.184v-.838h-1.184v-1.535h-1.084v1.535h-1.154v.838h1.154v3.932c0 .539.123.955.37 1.248.245.293.61.44 1.095.44zm3.152-.117v-4.518a1.91 1.91 0 01.621-.738c.266-.187.575-.281.926-.281.434 0 .753.11.958.328.205.219.31.557.314 1.014V637h1.084v-4.19c-.012-1.511-.688-2.267-2.028-2.267-.77 0-1.394.295-1.875.885V628h-1.084v9h1.084zm13.975 0v-.885h-4.283l2.285-2.478c1.07-1.16 1.605-2.16 1.605-3 0-.692-.23-1.245-.691-1.661-.46-.416-1.088-.624-1.88-.624-.848 0-1.525.242-2.031.726-.506.485-.759 1.12-.759 1.904h1.084c0-.546.15-.973.448-1.28.3-.306.718-.46 1.257-.46.45 0 .809.143 1.078.428.27.285.405.65.405 1.096 0 .332-.083.653-.25.963-.165.311-.467.714-.905 1.21l-2.953 3.282V637h5.59zm3.814.117c.922 0 1.6-.308 2.034-.926.433-.617.65-1.56.65-2.83v-1.406c-.012-1.226-.234-2.134-.668-2.722-.434-.587-1.11-.881-2.027-.881-.926 0-1.606.304-2.04.914-.433.609-.65 1.54-.65 2.795v1.447c.016 1.199.242 2.1.68 2.704.437.603 1.111.905 2.021.905zm0-.885c-.543 0-.948-.22-1.215-.659-.268-.44-.402-1.12-.402-2.042v-1.734c.008-.867.139-1.51.393-1.928.254-.418.658-.627 1.213-.627.558 0 .967.21 1.224.63.258.42.387 1.089.387 2.007v1.775c-.012.89-.147 1.543-.407 1.957-.26.414-.657.621-1.193.621zm6.41.885c.774 0 1.378-.265 1.811-.797l.053.68h.996v-9h-1.084v3.305c-.434-.508-1.021-.762-1.764-.762-.746 0-1.35.296-1.81.888-.461.591-.692 1.374-.692 2.346v.082c0 .97.232 1.754.695 2.356.463.601 1.061.902 1.796.902zm.27-.92c-.523 0-.933-.203-1.23-.61-.297-.405-.446-.968-.446-1.687 0-.804.149-1.412.446-1.822.297-.41.71-.615 1.242-.615.672 0 1.17.299 1.494.896v2.912c-.316.618-.818.926-1.506.926zm5.356 3.24v-3.052c.441.488 1.046.732 1.816.732.754 0 1.352-.295 1.793-.885.441-.59.662-1.367.662-2.332v-.1c0-1.023-.222-1.821-.665-2.396-.443-.574-1.046-.861-1.808-.861-.785 0-1.398.273-1.84.82l-.052-.703h-.99v8.777h1.084zm1.488-3.205c-.668 0-1.164-.289-1.488-.867v-3.03c.328-.581.82-.872 1.476-.872.531 0 .95.207 1.254.621.305.414.457.978.457 1.693 0 .813-.153 1.425-.46 1.837-.306.412-.72.618-1.24.618zM551.115 655v-3.943h4.301V655h1.13v-8.531h-1.13v3.668h-4.3v-3.668h-1.126V655h1.125zm9.89.117c1.063 0 1.86-.408 2.391-1.224l-.662-.516c-.199.258-.431.465-.697.621-.266.156-.59.234-.973.234-.539 0-.983-.192-1.333-.577-.35-.384-.532-.89-.547-1.514h4.295v-.452c0-1.011-.229-1.789-.686-2.332-.457-.543-1.098-.814-1.922-.814-.504 0-.972.14-1.403.419-.432.28-.768.666-1.008 1.16-.24.494-.36 1.056-.36 1.685v.199c0 .945.27 1.7.808 2.265.54.564 1.238.846 2.098.846zm1.39-3.867h-3.176c.07-.574.254-1.02.55-1.339a1.446 1.446 0 011.102-.477c.453 0 .813.151 1.078.454.266.302.414.73.446 1.28v.082zm2.982-3.656c.21 0 .371-.059.48-.176a.62.62 0 00.164-.44.64.64 0 00-.164-.445c-.109-.12-.27-.181-.48-.181-.211 0-.37.06-.478.181a.647.647 0 00-.16.446c0 .175.053.322.16.439.108.117.267.176.478.176zm.533 7.406v-6.34h-1.084V655h1.084zm4.143 2.496c.82 0 1.473-.236 1.96-.709.486-.473.73-1.119.73-1.94v-6.187h-.991l-.053.703c-.433-.547-1.037-.82-1.81-.82-.754 0-1.36.292-1.817.876-.457.584-.685 1.37-.685 2.358 0 1.032.23 1.846.688 2.444.46.597 1.06.896 1.802.896.75 0 1.342-.25 1.775-.75v.545c0 .54-.147.957-.442 1.254-.295.297-.706.445-1.233.445-.672 0-1.24-.287-1.706-.861l-.562.65c.23.34.564.608 1.002.803a3.26 3.26 0 001.342.293zm.093-3.299c-.527 0-.937-.204-1.23-.612-.293-.408-.44-.97-.44-1.685 0-.804.149-1.412.446-1.822.297-.41.709-.615 1.236-.615.664 0 1.162.303 1.494.908v2.895c-.32.62-.822.931-1.506.931zm5.315.803v-4.518a1.91 1.91 0 01.621-.738c.266-.187.574-.281.926-.281.433 0 .753.11.958.328.205.219.31.557.313 1.014V655h1.084v-4.19c-.011-1.511-.687-2.267-2.027-2.267-.77 0-1.395.295-1.875.885V646h-1.084v9h1.084zm7.377.117c.27 0 .547-.039.832-.117v-.879c-.219.047-.39.07-.516.07-.254 0-.433-.063-.539-.19-.105-.127-.158-.317-.158-.571v-3.932h1.184v-.838h-1.184v-1.535h-1.084v1.535h-1.154v.838h1.154v3.932c0 .539.123.955.37 1.248.245.293.61.44 1.095.44zm8.49-.117v-8.572h-.17l-3.105 1.166v.984l2.185-.803V655h1.09zm5.988.117c.805 0 1.447-.263 1.925-.79.479-.528.718-1.231.718-2.11 0-.828-.222-1.504-.665-2.028-.443-.523-1.036-.785-1.778-.785-.778 0-1.391.258-1.84.774.078-.88.367-1.56.867-2.045.5-.485 1.172-.735 2.016-.75h.199v-.92h-.194c-1.324.02-2.32.444-2.99 1.274-.67.83-1.006 2.03-1.006 3.6v.417c0 .988.254 1.796.762 2.423s1.17.94 1.986.94zm0-.896c-.472 0-.867-.215-1.183-.645-.317-.43-.475-.996-.475-1.699v-.398a1.74 1.74 0 01.65-.838 1.73 1.73 0 011.026-.334c.469 0 .845.18 1.128.542.283.361.425.835.425 1.42 0 .583-.14 1.053-.42 1.413-.279.359-.662.539-1.15.539zm6.264.896c.774 0 1.377-.265 1.81-.797l.053.68h.996v-9h-1.084v3.305c-.433-.508-1.021-.762-1.763-.762-.746 0-1.35.296-1.81.888-.462.591-.692 1.374-.692 2.346v.082c0 .97.231 1.754.694 2.356.463.601 1.062.902 1.796.902zm.27-.92c-.524 0-.934-.203-1.23-.61-.298-.405-.446-.968-.446-1.687 0-.804.148-1.412.445-1.822.297-.41.711-.615 1.242-.615.672 0 1.17.299 1.494.896v2.912c-.316.618-.818.926-1.505.926zm5.355 3.24v-3.052c.441.488 1.047.732 1.816.732.754 0 1.352-.295 1.793-.885.442-.59.663-1.367.663-2.332v-.1c0-1.023-.222-1.821-.665-2.396-.444-.574-1.046-.861-1.808-.861-.785 0-1.399.273-1.84.82l-.053-.703h-.99v8.778h1.084zm1.488-3.205c-.668 0-1.164-.289-1.488-.867v-3.03c.328-.581.82-.872 1.477-.872.53 0 .949.207 1.254.621.304.414.457.979.457 1.693 0 .813-.154 1.425-.46 1.837-.307.412-.72.618-1.24.618z"/><g><g stroke-linecap="round" transform="translate(111 394)"><path stroke="#898698" stroke-width=".2" d="M0 200h200V0H0z"/><path stroke="#898698" stroke-width=".2" d="M16.667 183.333h166.666V16.667H16.667z"/><circle cx="100" cy="100" r="41.665" stroke="#898698"/><path stroke="#898698" stroke-width=".2" d="M0 66.667h66.667V0H0zM0 133.333h66.667V66.667H0zM0 200h66.667v-66.667H0zM66.667 66.667h66.666V0H66.667zM66.667 133.333h66.666V66.667H66.667zM66.667 200h66.666v-66.667H66.667zM133.333 66.667H200V0h-66.667zM133.333 133.333H200V66.667h-66.667zM0 0l200 200M100 200V0M0 100h200M0 200L200 0"/><circle cx="100" cy="100" r="83" stroke="#898698"/><rect width="150" height="150" x="25.083" y="25" stroke="#898698" rx="16.66"/><rect width="166.667" height="133.333" x="16.667" y="33.333" stroke="#898698" rx="16.66"/><rect width="134" height="167" x="33.083" y="16.5" fill="#EA475B" fill-opacity=".12" stroke="#EA475B" rx="16.66"/></g><path fill="#000000" fill-opacity=".56" fill-rule="nonzero" d="M115.834 615l2.97-8.531h-1.956l-1.934 6.416-1.922-6.416h-1.951L114 615h1.834zm6.58.117c.527 0 1.008-.1 1.441-.302a2.542 2.542 0 001.032-.84l-.832-.932c-.368.473-.877.709-1.53.709-.421 0-.77-.125-1.046-.375-.275-.25-.44-.582-.495-.996h4.037v-.692c0-1.003-.249-1.779-.747-2.326-.498-.547-1.18-.82-2.047-.82-.579 0-1.093.136-1.544.407a2.71 2.71 0 00-1.046 1.16c-.246.502-.37 1.072-.37 1.708v.164c0 .95.293 1.71.877 2.28.584.57 1.34.855 2.27.855zm.943-3.89h-2.355c.059-.422.192-.747.401-.973.21-.227.482-.34.818-.34.36 0 .636.103.832.308.195.205.297.495.304.87v.135zm4.319 3.773v-4.148c.199-.434.619-.65 1.26-.65a4.6 4.6 0 01.609.046l.023-1.629a1.774 1.774 0 00-.527-.076c-.602 0-1.072.291-1.412.873l-.047-.756h-1.6V615h1.694zm4.834.117c.351 0 .693-.05 1.025-.152v-1.283a2.7 2.7 0 01-.498.04c-.254 0-.426-.05-.516-.152-.09-.101-.134-.27-.134-.504v-3.164h1.084v-1.242h-1.084v-1.558h-1.694v1.558h-.925v1.242h.925v3.416c.024 1.2.63 1.8 1.817 1.8zm2.842-7.219c.285 0 .514-.082.688-.246a.831.831 0 00.26-.632.83.83 0 00-.257-.627c-.172-.164-.402-.247-.691-.247-.293 0-.525.083-.695.247a.834.834 0 00-.255.627c0 .257.087.468.261.632.174.164.403.246.689.246zm.85 7.102v-6.34h-1.7V615h1.7zm4.06.117c.484 0 .926-.098 1.327-.296.4-.197.716-.474.946-.832.23-.357.348-.75.352-1.18h-1.588a.903.903 0 01-.305.685c-.195.172-.45.258-.762.258-.406 0-.709-.143-.908-.428-.199-.285-.299-.754-.299-1.406v-.176c0-.644.101-1.11.302-1.397.201-.287.5-.43.894-.43.32 0 .578.102.773.307.195.205.297.471.305.8h1.588c-.008-.75-.251-1.351-.73-1.802-.478-.451-1.114-.677-1.907-.677-.906 0-1.62.291-2.139.873-.52.582-.779 1.361-.779 2.338v.111c0 1.016.262 1.812.785 2.388.524.576 1.238.864 2.145.864zm5.496 0c.656 0 1.19-.228 1.6-.685.035.226.091.416.17.568h1.71v-.1c-.164-.308-.248-.763-.252-1.365v-2.748c0-.71-.23-1.263-.688-1.655-.46-.393-1.08-.589-1.86-.589-.516 0-.981.089-1.395.267-.414.177-.734.422-.961.735-.227.312-.34.652-.34 1.02h1.694c0-.239.08-.426.243-.563.162-.137.385-.205.67-.205.325 0 .562.088.713.264.15.175.225.41.225.703v.363h-.78c-.94.004-1.66.186-2.158.545-.498.36-.747.875-.747 1.547 0 .547.204 1 .612 1.36.408.359.923.538 1.544.538zm.369-1.295c-.258 0-.461-.068-.61-.205a.678.678 0 01-.222-.521l.006-.1c.054-.586.506-.879 1.353-.879h.633v1.09a1.097 1.097 0 01-.469.448c-.21.112-.441.167-.691.167zm5.947 1.178v-9h-1.699v9h1.7zm6.252 0v-3.123h1.4l1.6 3.123h1.887v-.082l-1.846-3.486c.512-.23.894-.54 1.146-.93.252-.388.378-.873.378-1.455 0-.82-.274-1.455-.82-1.904-.548-.45-1.325-.674-2.333-.674h-3.17V615h1.758zm1.418-4.547h-1.418v-2.56h1.412c.473 0 .824.115 1.052.345.229.23.343.547.343.95 0 .394-.121.704-.363.928-.243.225-.584.337-1.026.337zm7.29 4.664c.527 0 1.007-.1 1.44-.302a2.542 2.542 0 001.032-.84l-.832-.932c-.367.473-.877.709-1.53.709-.421 0-.77-.125-1.045-.375-.276-.25-.44-.582-.495-.996h4.037v-.692c0-1.003-.25-1.779-.747-2.326-.498-.547-1.181-.82-2.048-.82-.578 0-1.093.136-1.544.407a2.71 2.71 0 00-1.046 1.16c-.246.502-.37 1.072-.37 1.708v.164c0 .95.293 1.71.877 2.28.584.57 1.34.855 2.27.855zm.943-3.89h-2.356c.059-.422.192-.747.401-.973.21-.227.482-.34.818-.34.36 0 .637.103.832.308.195.205.297.495.305.87v.135zm5.29 3.89c.485 0 .927-.098 1.328-.296.4-.197.716-.474.946-.832.23-.357.348-.75.352-1.18h-1.588a.903.903 0 01-.305.685c-.195.172-.45.258-.762.258-.406 0-.709-.143-.908-.428-.2-.285-.299-.754-.299-1.406v-.176c0-.644.1-1.11.302-1.397.201-.287.499-.43.894-.43.32 0 .578.102.773.307.195.205.297.471.305.8h1.588c-.008-.75-.251-1.351-.73-1.802-.478-.451-1.114-.677-1.907-.677-.906 0-1.62.291-2.139.873-.52.582-.78 1.361-.78 2.338v.111c0 1.016.263 1.812.786 2.388.523.576 1.238.864 2.145.864zm5.743 0c.351 0 .693-.05 1.025-.152v-1.283a2.7 2.7 0 01-.498.04c-.254 0-.426-.05-.516-.152-.09-.101-.134-.27-.134-.504v-3.164h1.084v-1.242h-1.084v-1.558h-1.694v1.558h-.925v1.242h.925v3.416c.024 1.2.63 1.8 1.817 1.8zm3.808 0c.657 0 1.19-.228 1.6-.685.035.226.092.416.17.568h1.71v-.1c-.163-.308-.247-.763-.251-1.365v-2.748c0-.71-.23-1.263-.689-1.655-.459-.393-1.079-.589-1.86-.589-.516 0-.98.089-1.394.267-.415.177-.735.422-.961.735-.227.312-.34.652-.34 1.02h1.693c0-.239.081-.426.243-.563.162-.137.386-.205.671-.205.324 0 .562.088.712.264.15.175.226.41.226.703v.363h-.78c-.941.004-1.66.186-2.159.545-.498.36-.747.875-.747 1.547 0 .547.204 1 .612 1.36.409.359.923.538 1.544.538zm.37-1.295c-.258 0-.461-.068-.61-.205a.678.678 0 01-.223-.521l.006-.1c.055-.586.506-.879 1.354-.879h.633v1.09a1.097 1.097 0 01-.47.448c-.21.112-.44.167-.69.167zm5.818 1.178v-4.47c.238-.407.596-.61 1.072-.61.363 0 .623.081.78.243.156.162.234.423.234.782V615h1.693v-4.096c-.008-.785-.176-1.375-.504-1.77-.328-.394-.828-.591-1.5-.591-.761 0-1.369.283-1.822.85l-.053-.733h-1.594V615h1.694zm7.564 2.496c.614 0 1.149-.107 1.606-.322a2.427 2.427 0 001.063-.938c.252-.41.378-.892.378-1.447v-6.129h-1.535l-.07.598c-.387-.477-.928-.715-1.623-.715-.785 0-1.41.297-1.872.89-.463.594-.695 1.378-.695 2.35v.07c0 .985.236 1.775.706 2.37.471.596 1.087.894 1.849.894.637 0 1.15-.22 1.541-.662v.34c0 .441-.125.782-.375 1.022s-.6.36-1.049.36c-.601 0-1.113-.236-1.535-.708l-.75 1.031c.227.293.56.532 1.002.718.441.185.894.278 1.36.278zm.24-3.75a1.1 1.1 0 01-.949-.49c-.23-.325-.345-.776-.345-1.35 0-.66.116-1.156.348-1.488.233-.332.552-.498.958-.498.504 0 .87.193 1.096.58v2.666c-.223.387-.592.58-1.107.58zm5.895 1.254v-9h-1.7v9h1.7zm4.313.117c.527 0 1.007-.1 1.441-.302a2.542 2.542 0 001.031-.84l-.832-.932c-.367.473-.877.709-1.53.709-.421 0-.77-.125-1.045-.375-.275-.25-.44-.582-.495-.996h4.037v-.692c0-1.003-.249-1.779-.747-2.326-.498-.547-1.18-.82-2.048-.82-.578 0-1.093.136-1.544.407a2.71 2.71 0 00-1.046 1.16c-.246.502-.369 1.072-.369 1.708v.164c0 .95.292 1.71.876 2.28.584.57 1.34.855 2.27.855zm.943-3.89h-2.356c.06-.422.193-.747.402-.973.209-.227.481-.34.817-.34.36 0 .637.103.832.308.196.205.297.495.305.87v.135zM114.445 637l1.823-6.217.134-.65.135.65 1.758 6.217h1.025l2.069-8.531h-1.131l-1.324 5.836-.182 1.148-.234-1.031-1.647-5.953h-.95l-1.687 5.953-.24 1.014-.164-1.125-1.348-5.842h-1.125L113.42 637h1.025zm8.666-7.406c.211 0 .371-.059.48-.176a.62.62 0 00.165-.44.64.64 0 00-.164-.445c-.11-.12-.27-.181-.48-.181-.212 0-.37.06-.478.181a.647.647 0 00-.161.446c0 .175.053.322.16.439.108.117.267.176.478.176zm.534 7.406v-6.34h-1.084V637h1.084zm3.96.117c.774 0 1.377-.265 1.811-.797l.053.68h.996v-9h-1.084v3.305c-.434-.508-1.022-.762-1.764-.762-.746 0-1.35.296-1.81.888-.461.591-.692 1.374-.692 2.346v.082c0 .97.232 1.754.695 2.356.462.601 1.061.902 1.795.902zm.27-.92c-.523 0-.934-.203-1.23-.61-.297-.405-.446-.968-.446-1.687 0-.804.149-1.412.446-1.822.296-.41.71-.615 1.242-.615.672 0 1.17.299 1.494.896v2.912c-.317.618-.819.926-1.506.926zm6.123.92c.27 0 .547-.039.832-.117v-.879c-.219.047-.39.07-.516.07-.253 0-.433-.063-.539-.19-.105-.127-.158-.317-.158-.571v-3.932h1.184v-.838h-1.184v-1.535h-1.084v1.535h-1.154v.838h1.154v3.932c0 .539.123.955.37 1.248.245.293.61.44 1.095.44zm3.152-.117v-4.518a1.91 1.91 0 01.621-.738c.266-.187.575-.281.926-.281.434 0 .753.11.958.328.205.219.31.557.314 1.014V637h1.084v-4.19c-.012-1.511-.688-2.267-2.028-2.267-.77 0-1.394.295-1.875.885V628h-1.084v9h1.084zm11.948 0v-8.572h-.17l-3.106 1.166v.984l2.186-.803V637h1.09zm5.988.117c.805 0 1.446-.263 1.925-.79.478-.528.718-1.231.718-2.11 0-.828-.222-1.504-.666-2.028-.443-.523-1.036-.785-1.778-.785-.777 0-1.39.258-1.84.774.078-.88.368-1.56.868-2.045.5-.485 1.171-.735 2.015-.75h.2v-.92h-.194c-1.324.02-2.321.444-2.991 1.274-.67.83-1.005 2.03-1.005 3.6v.417c0 .988.254 1.796.762 2.423.507.627 1.17.94 1.986.94zm0-.896c-.473 0-.867-.215-1.184-.645-.316-.43-.474-.996-.474-1.699v-.398a1.74 1.74 0 01.65-.838 1.73 1.73 0 011.026-.334c.468 0 .844.18 1.127.542.284.361.425.835.425 1.42 0 .583-.14 1.053-.419 1.413-.279.359-.663.539-1.151.539zm6.264.896c.773 0 1.377-.265 1.81-.797l.053.68h.996v-9h-1.084v3.305c-.434-.508-1.021-.762-1.764-.762-.746 0-1.35.296-1.81.888-.461.591-.692 1.374-.692 2.346v.082c0 .97.232 1.754.695 2.356.463.601 1.061.902 1.796.902zm.27-.92c-.524 0-.934-.203-1.231-.61-.297-.405-.446-.968-.446-1.687 0-.804.149-1.412.446-1.822.297-.41.71-.615 1.242-.615.672 0 1.17.299 1.494.896v2.912c-.316.618-.818.926-1.506.926zm5.355 3.24v-3.052c.441.488 1.046.732 1.816.732.754 0 1.352-.295 1.793-.885.441-.59.662-1.367.662-2.332v-.1c0-1.023-.222-1.821-.665-2.396-.443-.574-1.046-.861-1.808-.861-.785 0-1.398.273-1.84.82l-.052-.703h-.99v8.777h1.084zm1.488-3.205c-.668 0-1.164-.289-1.488-.867v-3.03c.328-.581.82-.872 1.476-.872.531 0 .95.207 1.254.621.305.414.457.978.457 1.693 0 .813-.153 1.425-.46 1.837-.306.412-.72.618-1.24.618zM113.115 655v-3.943h4.301V655h1.13v-8.531h-1.13v3.668h-4.3v-3.668h-1.126V655h1.125zm9.89.117c1.063 0 1.86-.408 2.391-1.224l-.662-.516c-.199.258-.431.465-.697.621-.266.156-.59.234-.973.234-.539 0-.983-.192-1.333-.577-.35-.384-.532-.89-.547-1.514h4.295v-.452c0-1.011-.229-1.789-.686-2.332-.457-.543-1.098-.814-1.922-.814-.504 0-.972.14-1.403.419-.432.28-.768.666-1.008 1.16-.24.494-.36 1.056-.36 1.685v.199c0 .945.27 1.7.808 2.265.54.564 1.238.846 2.098.846zm1.39-3.867h-3.176c.07-.574.254-1.02.55-1.339a1.446 1.446 0 011.102-.477c.453 0 .813.151 1.078.454.266.302.414.73.446 1.28v.082zm2.982-3.656c.21 0 .371-.059.48-.176a.62.62 0 00.164-.44.64.64 0 00-.164-.445c-.109-.12-.27-.181-.48-.181-.211 0-.37.06-.478.181a.647.647 0 00-.16.446c0 .175.053.322.16.439.108.117.267.176.478.176zm.533 7.406v-6.34h-1.084V655h1.084zm4.143 2.496c.82 0 1.473-.236 1.96-.709.486-.473.73-1.119.73-1.94v-6.187h-.991l-.053.703c-.433-.547-1.037-.82-1.81-.82-.754 0-1.36.292-1.817.876-.457.584-.685 1.37-.685 2.358 0 1.032.23 1.846.688 2.444.46.597 1.06.896 1.802.896.75 0 1.342-.25 1.775-.75v.545c0 .54-.147.957-.442 1.254-.295.297-.706.445-1.233.445-.672 0-1.24-.287-1.706-.861l-.562.65c.23.34.564.608 1.002.803a3.26 3.26 0 001.342.293zm.093-3.299c-.527 0-.937-.204-1.23-.612-.293-.408-.44-.97-.44-1.685 0-.804.149-1.412.446-1.822.297-.41.709-.615 1.236-.615.664 0 1.162.303 1.494.908v2.895c-.32.62-.822.931-1.506.931zm5.315.803v-4.518a1.91 1.91 0 01.621-.738c.266-.187.574-.281.926-.281.433 0 .753.11.958.328.205.219.31.557.313 1.014V655h1.084v-4.19c-.011-1.511-.687-2.267-2.027-2.267-.77 0-1.395.295-1.875.885V646h-1.084v9h1.084zm7.377.117c.27 0 .547-.039.832-.117v-.879c-.219.047-.39.07-.516.07-.254 0-.433-.063-.539-.19-.105-.127-.158-.317-.158-.571v-3.932h1.184v-.838h-1.184v-1.535h-1.084v1.535h-1.154v.838h1.154v3.932c0 .539.123.955.37 1.248.245.293.61.44 1.095.44zm10.517-.117v-.885h-4.283l2.285-2.478c1.07-1.16 1.606-2.16 1.606-3 0-.692-.23-1.245-.692-1.661-.46-.416-1.087-.624-1.88-.624-.848 0-1.525.242-2.03.726-.507.485-.76 1.12-.76 1.904h1.085c0-.546.149-.973.448-1.28.299-.306.718-.46 1.257-.46.449 0 .808.143 1.078.428.27.285.404.65.404 1.096 0 .332-.083.653-.249.963-.166.311-.468.714-.905 1.21l-2.953 3.282V655h5.59zm3.815.117c.922 0 1.6-.308 2.033-.926.434-.617.65-1.56.65-2.83v-1.406c-.011-1.226-.234-2.134-.667-2.722-.434-.587-1.11-.881-2.028-.881-.926 0-1.605.304-2.039.914-.433.609-.65 1.54-.65 2.795v1.447c.015 1.199.242 2.1.68 2.704.437.603 1.11.905 2.02.905zm0-.885c-.543 0-.948-.22-1.216-.659-.267-.44-.401-1.12-.401-2.042v-1.734c.008-.867.138-1.51.392-1.928.254-.418.659-.627 1.213-.627.559 0 .967.21 1.225.63.258.42.387 1.089.387 2.007v1.775c-.012.89-.148 1.543-.408 1.957-.26.414-.657.621-1.192.621zm6.41.885c.774 0 1.377-.265 1.81-.797l.053.68h.996v-9h-1.084v3.305c-.433-.508-1.021-.762-1.763-.762-.746 0-1.35.296-1.81.888-.462.591-.692 1.374-.692 2.346v.082c0 .97.231 1.754.694 2.356.463.601 1.062.902 1.796.902zm.27-.92c-.524 0-.934-.203-1.23-.61-.298-.405-.446-.968-.446-1.687 0-.804.148-1.412.445-1.822.297-.41.711-.615 1.242-.615.672 0 1.17.299 1.494.896v2.912c-.316.618-.818.926-1.505.926zm5.355 3.24v-3.052c.441.488 1.047.732 1.816.732.754 0 1.352-.295 1.793-.885.442-.59.663-1.367.663-2.332v-.1c0-1.023-.222-1.821-.665-2.396-.444-.574-1.046-.861-1.808-.861-.785 0-1.399.273-1.84.82l-.053-.703h-.99v8.778h1.084zm1.488-3.205c-.668 0-1.164-.289-1.488-.867v-3.03c.328-.581.82-.872 1.477-.872.53 0 .949.207 1.254.621.304.414.457.979.457 1.693 0 .813-.154 1.425-.46 1.837-.307.412-.72.618-1.24.618z"/></g></g></svg>