<svg xmlns="http://www.w3.org/2000/svg" width="860" height="205"><g fill="none" fill-rule="evenodd"><rect width="860" height="205" rx="4"/><path fill="#000000" fill-opacity=".56" d="M249.253 111.81a3.193 3.193 0 013.19 3.195v3.18h22.3a3.193 3.193 0 110 6.385h-3.19v-.01h-19.11v3.185a3.19 3.19 0 01-3.19 3.19 3.19 3.19 0 01-3.194-3.19v-3.19h.003v-6.36h-.003v-3.19a3.193 3.193 0 013.194-3.194zm-22.306 6.37v.006h12.74v6.375h-12.74v.003h-3.19a3.191 3.191 0 110-6.384h3.19zm9.556-25.492a3.19 3.19 0 013.19 3.19v3.194h-.005v6.356h.006v3.194a3.19 3.19 0 01-3.19 3.19 3.19 3.19 0 01-3.195-3.19v-3.184h-6.362v.003h-3.19a3.193 3.193 0 110-6.385h3.19v.006h6.362v-3.184a3.19 3.19 0 013.194-3.19zm38.24 6.373a3.193 3.193 0 110 6.385h-3.19v-.01h-25.49V99.06zm-12.74-25.5a3.193 3.193 0 013.19 3.194v3.18h9.55a3.191 3.191 0 110 6.385h-3.19v-.01h-6.36v3.185a3.19 3.19 0 01-3.19 3.19 3.19 3.19 0 01-3.194-3.19v-3.19h.004v-6.36h-.004v-3.19a3.193 3.193 0 013.194-3.194zm-35.056 6.369v.006h25.49v6.375h-25.49v.003h-3.19a3.191 3.191 0 110-6.384h3.19z"/><path stroke="#000000" stroke-dasharray="2 2" stroke-linecap="round" stroke-opacity=".32" stroke-width=".5" d="M246.2 150v-35.5"/><path fill="#000000" fill-opacity=".56" fill-rule="nonzero" d="M251.201 165.234v-.591h-2.855l1.523-1.652c.714-.772 1.071-1.44 1.071-2 0-.46-.153-.828-.46-1.106-.308-.279-.726-.418-1.254-.418-.566 0-1.018.162-1.355.485-.338.324-.506.748-.506 1.272h.723c0-.367.1-.652.3-.856.199-.204.478-.306.838-.306.299 0 .538.095.718.285.18.19.27.434.27.73 0 .223-.056.438-.166.644-.11.207-.311.476-.603.807l-1.969 2.188v.518h3.725z"/><path fill="#000000" fill-opacity=".56" d="M252 154.984v.5h-5.5v1.75h-.5v-4h.5v1.75h5.5zm.5 2.25h-.5v-4h.5v4z"/><path stroke="#000000" stroke-dasharray="2 2" stroke-linecap="round" stroke-opacity=".32" stroke-width=".5" d="M252.3 150v-35.5"/><path fill="#000000" fill-opacity=".56" d="M190 80.5h.5V86h1.75v.5h-4V86H190v-5.5zm2.25-.5v.5h-4V80h4z"/><path stroke="#000000" stroke-dasharray="2 2" stroke-linecap="round" stroke-opacity=".32" stroke-width=".5" d="M194.054 80.254h59.687M194.054 86.19h59.687"/><path fill="#000000" fill-opacity=".56" fill-rule="nonzero" d="M184.451 86.25v-.591h-2.855l1.523-1.652c.714-.773 1.071-1.44 1.071-2 0-.46-.153-.828-.46-1.107-.308-.278-.726-.417-1.254-.417-.566 0-1.018.162-1.355.485-.338.324-.506.748-.506 1.272h.723c0-.367.1-.652.3-.856.199-.204.478-.306.838-.306.299 0 .538.095.718.285.18.19.27.434.27.73 0 .223-.056.438-.166.644-.11.206-.311.475-.603.807l-1.969 2.188v.518h3.725z"/><g><path fill="#000000" fill-opacity=".56" d="M430.25 76.75c6.77 0 12.99 2.372 17.901 6.308l2.387-2.384a3.184 3.184 0 014.508 0 3.184 3.184 0 010 4.507l-2.391 2.39c3.924 4.906 6.282 11.112 6.282 17.867 0 15.816-12.867 28.687-28.687 28.687s-28.688-12.871-28.688-28.688c0-15.82 12.868-28.687 28.688-28.687zm0 6.375c-12.323 0-22.313 9.99-22.313 22.313 0 12.322 9.99 22.312 22.313 22.312 12.323 0 22.313-9.99 22.313-22.313 0-12.322-9.99-22.312-22.313-22.312zm0 6.375a3.187 3.187 0 013.188 3.188v12.75a3.187 3.187 0 11-6.375 0v-12.75a3.187 3.187 0 013.187-3.188zm6.375-22.313a3.187 3.187 0 110 6.376h-12.75a3.187 3.187 0 110-6.376z"/><g stroke="#000000" stroke-dasharray="2 2" stroke-linecap="round" stroke-opacity=".32" stroke-width=".5"><path d="M444.325 87.167l25.306-24.728M448.638 91.48l24.764-25.271"/></g><path fill="#000000" fill-opacity=".56" d="M471.3 60.569l-.354.354 3.889 3.889-1.238 1.237.354.354 2.828-2.829-.353-.353-1.238 1.237-3.889-3.889zm-1.945 1.237l.353.354 2.829-2.828-.354-.354-2.828 2.828zM382.847 67.663h.5v5.5h1.75v.5h-4v-.5h1.75v-5.5zm2.25-.5v.5h-4v-.5h4z"/><path stroke="#000000" stroke-dasharray="2 2" stroke-linecap="round" stroke-opacity=".32" stroke-width=".5" d="M386.901 67.417h51.687M386.901 73.354h51.687M427.2 150.104v-57.25M452.638 150.104v-45.747"/><path fill="#000000" fill-opacity=".56" fill-rule="nonzero" d="M432.201 165.338v-.591h-2.855l1.523-1.652c.714-.772 1.071-1.44 1.071-2 0-.46-.153-.828-.46-1.106-.308-.279-.726-.418-1.254-.418-.566 0-1.018.162-1.355.485-.338.324-.506.748-.506 1.272h.723c0-.367.1-.652.3-.856.199-.204.478-.306.838-.306.299 0 .538.095.718.285.18.19.27.434.27.73 0 .223-.056.438-.166.644-.11.207-.311.476-.603.807l-1.969 2.188v.518h3.725zm25.438 0v-.591h-2.856l1.524-1.652c.714-.772 1.07-1.44 1.07-2 0-.46-.153-.828-.46-1.106-.307-.279-.725-.418-1.254-.418-.566 0-1.017.162-1.355.485-.337.324-.506.748-.506 1.272h.724c0-.367.1-.652.299-.856.2-.204.479-.306.838-.306.3 0 .539.095.718.285.18.19.27.434.27.73 0 .223-.055.438-.165.644-.11.207-.312.476-.604.807l-1.968 2.188v.518h3.725zm21.858-106.36v-.591h-2.855l1.523-1.652c.714-.773 1.071-1.44 1.071-2 0-.46-.153-.828-.46-1.106-.308-.279-.726-.418-1.254-.418-.566 0-1.018.162-1.355.485-.338.324-.506.748-.506 1.272h.723c0-.367.1-.652.3-.856.199-.204.478-.306.838-.306.299 0 .538.095.718.285.18.19.27.434.27.73 0 .223-.056.438-.166.644-.11.206-.311.475-.603.807l-1.969 2.188v.518h3.725z"/><path fill="#000000" fill-opacity=".56" d="M433 155.088v.5h-5.5v1.75h-.5v-4h.5v1.75h5.5zm.5 2.25h-.5v-4h.5v4zM458.438 155.087v.5h-5.5v1.75h-.5v-4h.5v1.75h5.5zm.5 2.25h-.5v-4h.5v4z"/><path stroke="#000000" stroke-dasharray="2 2" stroke-linecap="round" stroke-opacity=".32" stroke-width=".5" d="M433.3 150.104v-57.25M458.737 150.104v-45.747"/><path fill="#000000" fill-opacity=".56" fill-rule="nonzero" d="M377.298 73.413v-.59h-2.855l1.523-1.653c.714-.772 1.071-1.439 1.071-2 0-.46-.153-.828-.46-1.106-.308-.278-.726-.418-1.254-.418-.566 0-1.018.162-1.355.486-.338.323-.506.747-.506 1.271h.723c0-.366.1-.652.3-.856.199-.204.478-.306.838-.306.299 0 .538.095.718.285.18.19.27.434.27.73 0 .223-.056.438-.166.644-.11.207-.311.476-.603.807l-1.97 2.188v.518h3.726z"/></g><g><path fill="#000000" fill-opacity=".56" d="M551.787 125.06h.5v5.5h1.75v.5h-4v-.5h1.75v-5.5zm2.25-.5v.5h-4v-.5h4z"/><path stroke="#000000" stroke-dasharray="2 2" stroke-linecap="round" stroke-opacity=".32" stroke-width=".5" d="M555.841 124.814h51.687M555.841 130.751h51.687"/><path fill="#000000" fill-opacity=".56" fill-rule="nonzero" d="M546.238 130.81v-.591h-2.855l1.523-1.652c.714-.772 1.071-1.439 1.071-2 0-.46-.153-.828-.46-1.106-.308-.279-.726-.418-1.254-.418-.566 0-1.018.162-1.355.486-.337.323-.506.747-.506 1.27h.723c0-.365.1-.65.3-.855.199-.204.478-.306.838-.306.299 0 .538.095.718.285.18.19.27.434.27.73 0 .223-.056.438-.166.644-.11.207-.311.476-.603.807l-1.969 2.188v.518h3.725z"/><path fill="#000000" fill-opacity=".56" d="M551.787 74.46h.5v5.5h1.75v.5h-4v-.5h1.75v-5.5zm2.25-.5v.5h-4v-.5h4z"/><path stroke="#000000" stroke-dasharray="2 2" stroke-linecap="round" stroke-opacity=".32" stroke-width=".5" d="M555.841 74.214h44.687M555.841 80.151h44.687"/><path fill="#000000" fill-opacity=".56" fill-rule="nonzero" d="M546.238 80.21v-.591h-2.855l1.523-1.652c.714-.772 1.071-1.439 1.071-2 0-.46-.153-.828-.46-1.106-.308-.279-.726-.418-1.254-.418-.566 0-1.018.162-1.355.486-.337.323-.506.747-.506 1.27h.723c0-.365.1-.65.3-.855.199-.204.478-.306.838-.306.299 0 .538.095.718.285.18.19.27.434.27.73 0 .223-.056.438-.166.644-.11.207-.311.476-.603.807l-1.969 2.188v.518h3.725z"/><path fill="#000000" fill-opacity=".56" d="M551.787 93.46h.5v5.5h1.75v.5h-4v-.5h1.75v-5.5zm2.25-.5v.5h-4v-.5h4z"/><path fill="#000000" fill-opacity=".56" fill-rule="nonzero" d="M546.238 99.21v-.591h-2.855l1.523-1.652c.714-.772 1.071-1.439 1.071-2 0-.46-.153-.828-.46-1.106-.308-.279-.726-.418-1.254-.418-.566 0-1.018.162-1.355.486-.337.323-.506.747-.506 1.27h.723c0-.365.1-.65.3-.855.199-.204.478-.306.838-.306.299 0 .538.095.718.285.18.19.27.434.27.73 0 .223-.056.438-.166.644-.11.207-.311.476-.603.807l-1.969 2.188v.518h3.725z"/><path fill="#000000" fill-opacity=".56" d="M600.511 99.361c11.657 0 21.14 9.483 21.14 21.136v4.065h15.099v-6.127c0-5.792-4.714-10.503-10.506-10.503a1.277 1.277 0 00-.156 0 1.668 1.668 0 01-1.533-.863 27.369 27.369 0 00-2.665-3.912.648.648 0 01.328-1.039c1.294-.34 2.63-.56 4.026-.56h.013l.323.003c9.153.179 16.545 7.678 16.545 16.874v9.314a3.185 3.185 0 01-3.188 3.188h-21.474a3.185 3.185 0 01-3.187-3.188v-7.252c0-8.137-6.624-14.76-14.765-14.76-8.14 0-14.761 6.623-14.761 14.76v4.065h16.763v-.004h3.19a3.195 3.195 0 013.195 3.194 3.195 3.195 0 01-3.194 3.194h-3.19v-.01h-19.951a3.185 3.185 0 01-3.188-3.187v-7.252c0-11.653 9.483-21.136 21.136-21.136zm25.659-23.305c5.272 0 9.562 4.29 9.562 9.562 0 5.272-4.29 9.563-9.562 9.563-5.272 0-9.563-4.29-9.563-9.563 0-5.272 4.29-9.562 9.563-9.562zM600.51 73.85c5.272 0 9.562 4.29 9.562 9.563 0 5.272-4.29 9.562-9.562 9.562-5.272 0-9.563-4.29-9.563-9.562 0-5.272 4.29-9.563 9.563-9.563zm25.659 8.58a3.187 3.187 0 100 6.376 3.187 3.187 0 100-6.375zm-25.659-2.205a3.189 3.189 0 10.002 6.378 3.189 3.189 0 00-.002-6.378z"/><path fill="#000000" fill-opacity=".56" fill-rule="nonzero" d="M626.974 166.338v-.591h-2.855l1.523-1.652c.714-.772 1.071-1.44 1.071-2 0-.46-.153-.828-.46-1.106-.308-.279-.726-.418-1.254-.418-.566 0-1.018.162-1.355.485-.338.324-.506.748-.506 1.272h.723c0-.367.1-.652.3-.856.199-.204.478-.306.838-.306.299 0 .538.095.718.285.18.19.27.434.27.73 0 .223-.056.438-.166.644-.11.207-.311.476-.603.807l-1.97 2.188v.518h3.726z"/><path fill="#000000" fill-opacity=".56" d="M627.78 156.089v.5h-5.5v1.75h-.5v-4h.5v1.75h5.5zm.5 2.25h-.5v-4h.5v4z"/><path stroke="#000000" stroke-dasharray="2 2" stroke-linecap="round" stroke-opacity=".32" stroke-width=".5" d="M621.78 150.194V120.59c0-11.673-9.462-21.136-21.135-21.136h-44.67"/><path stroke="#000000" stroke-dasharray="2 2" stroke-linecap="round" stroke-opacity=".32" stroke-width=".5" d="M628.145 150.194V120.59c0-15.188-12.312-27.5-27.5-27.5h-44.67"/></g></g></svg>