<svg xmlns="http://www.w3.org/2000/svg" xmlns:xlink="http://www.w3.org/1999/xlink" width="860" height="220"><defs><path id="icon_design_by_shapes2-a" d="M37.9 91.938V.568"/><path id="icon_design_by_shapes2-b" d="M125.898 60.513l-129.43.029"/><path id="icon_design_by_shapes2-c" d="M38.9 92.555V1.005"/><mask id="icon_design_by_shapes2-d" width="1.2" height="92.4" x="0" y="0" fill="#fff" maskContentUnits="userSpaceOnUse" maskUnits="objectBoundingBox"><use xlink:href="#icon_design_by_shapes2-a"/></mask><mask id="icon_design_by_shapes2-e" width="129.43" height="1" x="0" y="0" fill="#fff" maskContentUnits="userSpaceOnUse" maskUnits="objectBoundingBox"><use xlink:href="#icon_design_by_shapes2-b"/></mask><mask id="icon_design_by_shapes2-f" width="1.2" height="93.6" x="0" y="0" fill="#fff" maskContentUnits="userSpaceOnUse" maskUnits="objectBoundingBox"><use xlink:href="#icon_design_by_shapes2-c"/></mask></defs><style>@keyframes shapes{0%,24%,80%,to{opacity:0}48%,60%{opacity:1}}@keyframes cloud_c1{0%,to{stroke-dasharray:0,130;stroke-dashoffset:0;opacity:0}30%,70%{stroke-dasharray:132,130;stroke-dashoffset:0;opacity:1}}@keyframes cloud_c2{0%,to{stroke-dasharray:0,60;stroke-dashoffset:0;opacity:0}30%,70%{stroke-dasharray:90,60;stroke-dashoffset:0;opacity:1}}@keyframes cloud_r1{0%,to{stroke-dasharray:0,120;stroke-dashoffset:0;opacity:0}30%,70%{stroke-dasharray:160,120;stroke-dashoffset:0;opacity:1}}@keyframes moon_c1{0%,to{stroke-dasharray:0,260;stroke-dashoffset:0;opacity:0}30%,70%{stroke-dasharray:260,260;stroke-dashoffset:0;opacity:1}}@keyframes seat_c1{0%,to{stroke-dasharray:0,60;stroke-dashoffset:0;opacity:0}30%,70%{stroke-dasharray:80,60;stroke-dashoffset:0;opacity:1}}@keyframes seat_c2{0%,to{stroke-dasharray:0,40;stroke-dashoffset:0;opacity:0}30%,70%{stroke-dasharray:50,40;stroke-dashoffset:0;opacity:1}}@keyframes seat_l1{0%,to{stroke-dasharray:0,20;stroke-dashoffset:0;opacity:0}30%,70%{stroke-dasharray:20,20;stroke-dashoffset:0;opacity:1}}@keyframes seat_l2{0%,to{stroke-dasharray:0,120;stroke-dashoffset:0;opacity:0}30%,70%{stroke-dasharray:120,120;stroke-dashoffset:0;opacity:1}}@keyframes seat_l3{0%,to{stroke-dasharray:0,60;stroke-dashoffset:0;opacity:0}30%,70%{stroke-dasharray:60,60;stroke-dashoffset:0;opacity:1}}</style><g fill="none" fill-rule="evenodd"><rect width="860" height="220" rx="4"/><g fill="#EA475B" fill-opacity=".04" stroke="#EA475B" stroke-opacity=".87" stroke-width=".3" transform="translate(645.9 75)"><circle cx="33.058" cy="12.263" r="11.248" style="animation:seat_c1 6000ms ease-in infinite"/><circle cx="63.884" cy="14.922" r="11.248" style="animation:seat_c1 6000ms ease-in infinite"/><circle cx="63.942" cy="14.922" r="3.716" style="animation:seat_c2 6000ms ease-in infinite"/><circle cx="33.115" cy="12.263" r="3.716" style="animation:seat_c2 6000ms ease-in infinite"/><circle cx="33.058" cy="56.719" r="32.908" style="animation:moon_c1 6000ms ease-in infinite"/><circle cx="39.203" cy="65.469" r="3.716" style="animation:seat_c2 6000ms ease-in infinite"/><circle cx="11.603" cy="65.469" r="3.716" style="animation:seat_c2 6000ms ease-in infinite"/><circle cx="63.884" cy="56.719" r="30.4" style="animation:moon_c1 6000ms ease-in infinite"/><path style="animation:moon_c1 6000ms ease-in infinite" d="M33.127 31.583a25.21 25.21 0 0117.883 7.408 25.21 25.21 0 017.407 17.882h0v12.312h-47.73c-.787 0-1.5-.319-2.015-.834a2.841 2.841 0 01-.835-2.016h0v-9.462a25.21 25.21 0 017.408-17.882 25.21 25.21 0 0117.882-7.408z"/><path style="animation:moon_c1 6000ms ease-in infinite" d="M33.066 39.224c4.845 0 9.232 1.965 12.408 5.14a17.493 17.493 0 015.14 12.409h0v5.071H15.517v-5.071c0-4.846 1.965-9.233 5.14-12.409a17.493 17.493 0 0112.409-5.14zm30.632 2.445c3.594 0 6.849 1.457 9.205 3.812a12.977 12.977 0 013.813 9.206h0v7.157H50.679v-7.157c0-3.595 1.458-6.85 3.813-9.206a12.977 12.977 0 019.206-3.812z"/><path style="animation:moon_c1 6000ms ease-in infinite" d="M63.633 34.124a20.35 20.35 0 0114.434 5.979 20.35 20.35 0 015.98 14.434h0V66.37c0 .787-.32 1.5-.835 2.016a2.841 2.841 0 01-2.016.834h0H43.22V54.537a20.35 20.35 0 015.979-14.434 20.35 20.35 0 0114.434-5.98z"/><circle cx="54.516" cy="65.583" r="3.602" style="animation:seat_c2 6000ms ease-in infinite"/></g><g stroke="#EA475B" stroke-opacity=".87" stroke-width=".3" transform="translate(522.5 65)" fill="#EA475B" fill-opacity=".04"><circle cx="19.363" cy="20.177" r="18.889" style="animation:cloud_c1 6000ms ease-in infinite"/><circle cx="19.363" cy="20.177" r="11.359" style="animation:seat_c1 6000ms ease-in infinite"/><circle cx="56.272" cy="12.564" r="11.248" style="animation:seat_c1 6000ms ease-in infinite"/><circle cx="56.33" cy="12.564" r="3.716" style="animation:seat_c2 6000ms ease-in infinite"/><circle cx="55.772" cy="44.488" r="3.716" style="animation:seat_c2 6000ms ease-in infinite"/><circle cx="40.171" cy="50.579" r="3.716" style="animation:seat_c2 6000ms ease-in infinite"/><circle cx="46.818" cy="63.01" r="6.497" style="animation:seat_c2 6000ms ease-in infinite"/><circle cx="32.345" cy="68.778" r="6.497" style="animation:seat_c2 6000ms ease-in infinite"/><circle cx="48.474" cy="34.417" r="6.497" style="animation:seat_c2 6000ms ease-in infinite"/><circle cx="60.034" cy="31.789" r="3.716" style="animation:seat_c2 6000ms ease-in infinite"/><circle cx="69.604" cy="68.713" r="3.716" style="animation:seat_c2 6000ms ease-in infinite"/><circle cx="23.988" cy="84.94" r="3.716" style="animation:seat_c2 6000ms ease-in infinite"/><path style="animation:seat_l2 6000ms ease-in infinite" d="M20.399 84.107L45.587 8.811"/><path style="animation:seat_l1 6000ms ease-in infinite" d="M36.478 49.778l5.854-17.359"/><path style="animation:seat_l2 6000ms ease-in infinite" d="M27.382 86.417l28.89-85.252M52.21 43.566l4.271-12.898M52.792 65.463l10.725-32.381M67.768 71.911l-55.531-34.37M71.609 65.656L12.237 29.073"/><path style="animation:seat_l3 6000ms ease-in infinite" d="M19.363 1.263H56.33M19.363 8.811H56.33"/><path style="animation:seat_l1 6000ms ease-in infinite" d="M60.255 27.923l-11.901-.142"/></g><g stroke="#EA475B" stroke-opacity=".87" transform="translate(258.5 63.7)"><circle cx="37.9" cy="42.34" r="24.113" fill="#EA475B" fill-opacity=".04" stroke-width=".3" style="animation:cloud_c1 6000ms ease-in infinite"/><circle cx="37.9" cy="42.34" r="16.89" fill="#EA475B" fill-opacity=".04" stroke-width=".3" style="animation:cloud_c1 6000ms ease-in infinite"/><use stroke-dasharray="2 2" stroke-linecap="round" stroke-width=".4" mask="url(#icon_design_by_shapes2-d)" xlink:href="#icon_design_by_shapes2-a"/><path fill="#EA475B" fill-opacity=".04" stroke-width=".3" style="animation:cloud_c1 6000ms ease-in infinite" d="M13.787 42.49h48.225v24.196H13.787z"/><circle cx="11.637" cy="63.099" r="3.587" fill="#EA475B" fill-opacity=".04" stroke-width=".3" style="animation:cloud_c1 6000ms ease-in infinite"/><circle cx="37.9" cy="12.437" r="3.587" fill="#EA475B" fill-opacity=".04" stroke-width=".3" style="animation:cloud_c1 6000ms ease-in infinite"/><circle cx="64.163" cy="63.099" r="3.587" fill="#EA475B" fill-opacity=".04" stroke-width=".3" style="animation:cloud_c1 6000ms ease-in infinite"/><path fill="#EA475B" fill-opacity=".04" stroke-width=".3" style="animation:cloud_c1 6000ms ease-in infinite" d="M34.313 12.587h7.173v5.584h-7.173zM11.787 59.513h52.227v7.173H11.787z"/><path style="animation:cloud_c1 6000ms ease-in infinite" fill="#EA475B" fill-opacity=".04" stroke-width=".3" d="M61.625 63.15a3.85 3.85 0 011.99 7.147h0L44.64 81.742a12.84 12.84 0 01-6.637 1.847 12.84 12.84 0 01-6.638-1.846h0L12.39 70.297a3.85 3.85 0 011.988-7.147h0z"/><circle cx="37.9" cy="75.148" r="8.395" fill="#EA475B" fill-opacity=".04" stroke-width=".3" style="animation:cloud_c1 6000ms ease-in infinite"/></g><g stroke="#EA475B" stroke-opacity=".87" transform="matrix(.9 0 0 .9 369.95 51.5)"><circle cx="61.314" cy="60.759" r="37.902" fill="#EA475B" fill-opacity=".04" stroke-width=".3" transform="rotate(45 61.314 60.759)" style="animation:moon_c1 6000ms ease-in infinite"/><circle cx="46.284" cy="45.729" r="32.179" fill="#EA475B" fill-opacity=".04" stroke-width=".3" transform="rotate(45 46.284 45.729)" style="animation:moon_c1 6000ms ease-in infinite"/><circle cx="46.284" cy="45.729" r="24.494" fill="#EA475B" fill-opacity=".04" stroke-width=".3" transform="rotate(45 46.284 45.729)" style="animation:moon_c1 6000ms ease-in infinite"/><circle cx="27.979" cy="67.243" r="3.716" fill="#EA475B" fill-opacity=".04" stroke-width=".3" style="animation:moon_c1 6000ms ease-in infinite"/><circle cx="67.979" cy="27.37" r="3.716" fill="#EA475B" fill-opacity=".04" stroke-width=".3" style="animation:moon_c1 6000ms ease-in infinite"/><use stroke-dasharray="2 2" stroke-linecap="round" stroke-width=".4" mask="url(#icon_design_by_shapes-e)" transform="rotate(45 61.183 60.527)" xlink:href="#icon_design_by_shapes-b"/></g><g stroke="#EA475B" stroke-opacity=".87" transform="translate(125.5 63.4)"><circle cx="56.164" cy="53.984" r="20.986" fill="#EA475B" fill-opacity=".04" stroke-width=".3" style="animation:cloud_c1 6000ms ease-in infinite"/><circle cx="38.9" cy="36.736" r="20.986" fill="#EA475B" fill-opacity=".04" stroke-width=".3" style="animation:cloud_c1 6000ms ease-in infinite"/><circle cx="21.636" cy="53.984" r="20.986" fill="#EA475B" fill-opacity=".04" stroke-width=".3" style="animation:cloud_c1 6000ms ease-in infinite"/><rect width="41.973" height="41.973" x="17.914" y="32.997" fill="#EA475B" fill-opacity=".04" stroke-width=".3" rx="3" style="animation:cloud_r1 6000ms ease-in infinite"/><circle cx="56.164" cy="53.984" r="13.545" fill="#EA475B" fill-opacity=".04" stroke-width=".3" style="animation:cloud_c2 6000ms ease-in infinite"/><circle cx="21.636" cy="53.984" r="13.545" fill="#EA475B" fill-opacity=".04" stroke-width=".3" style="animation:cloud_c2 6000ms ease-in infinite"/><circle cx="38.9" cy="36.736" r="13.545" fill="#EA475B" fill-opacity=".04" stroke-width=".3" style="animation:cloud_c2 6000ms ease-in infinite"/><circle cx="46.352" cy="39.877" r="3.733" fill="#EA475B" fill-opacity=".04" stroke-width=".3" style="animation:cloud_c1 6000ms ease-in infinite"/><circle cx="21.636" cy="36.736" r="3.733" fill="#EA475B" fill-opacity=".04" stroke-width=".3" style="animation:cloud_c1 6000ms ease-in infinite"/><use stroke-dasharray="2 2" stroke-linecap="round" stroke-width=".4" mask="url(#icon_design_by_shapes-f)" xlink:href="#icon_design_by_shapes-c"/></g><path style="animation:shapes 6000ms ease-in infinite" fill="#000000" fill-opacity=".32" d="M181.68 130.84h-34.56c-7.411 0-13.44-6.029-13.44-13.44s6.029-13.44 13.44-13.44c2.124 0 3.84-1.72 3.84-3.84 0-7.411 6.029-13.44 13.44-13.44 6.248 0 11.47 4.308 12.968 10.095-2.792.58-5.45 1.67-7.819 3.333a3.84 3.84 0 00-.933 5.35 3.838 3.838 0 005.35.937 13.34 13.34 0 017.714-2.435c7.411 0 13.44 6.029 13.44 13.44s-6.029 13.44-13.44 13.44m3.521-34.241C183.52 86.626 174.841 79 164.4 79c-10.441 0-19.13 7.61-20.824 17.576C133.61 98.269 126 106.963 126 117.4c0 11.647 9.477 21.12 21.12 21.12h34.56c11.643 0 21.12-9.473 21.12-21.12 0-10.445-7.626-19.12-17.599-20.801M302.223 137.43a3.751 3.751 0 013.356 6.709l-4.148 2.073a11.26 11.26 0 01-5.032 1.182c-1.725 0-3.454-.394-5.029-1.182l-4.147-2.073a3.751 3.751 0 013.356-6.71l4.147 2.075a3.757 3.757 0 003.35 0zm-5.82-65.03c2.074 0 3.75 1.68 3.75 3.75v5.944c11.66 1.815 20.626 11.895 20.626 24.056v16.875h1.871c2.074 0 3.75 1.68 3.75 3.75 0 2.07-1.676 3.75-3.75 3.75h-52.5a3.749 3.749 0 01-3.75-3.75c0-2.07 1.676-3.75 3.75-3.75h1.879V106.15c0-12.161 8.966-22.241 20.625-24.056V76.15c0-2.07 1.676-3.75 3.75-3.75zm0 16.875c-9.303 0-16.874 7.571-16.874 16.875v16.875h33.75V106.15c0-9.304-7.571-16.875-16.875-16.875zM401.772 119.848c4.76 8.3 13.715 13.752 23.701 13.752 15.063 0 27.313-12.253 27.313-27.313 0-9.99-5.449-18.945-13.752-23.705a28.918 28.918 0 011.803 10.048c0 16.003-13.018 29.02-29.02 29.02-3.449 0-6.85-.62-10.045-1.802m23.701 20.58c-16.285 0-30.372-11.594-33.493-27.565a3.425 3.425 0 011.618-3.602c1.25-.73 2.827-.601 3.934.338a22.204 22.204 0 0014.284 5.223c12.237 0 22.193-9.955 22.193-22.192a22.22 22.22 0 00-5.224-14.288 3.42 3.42 0 01-.335-3.93c.738-1.25 2.182-1.912 3.599-1.621 15.975 3.12 27.566 17.207 27.566 33.496 0 18.826-15.316 34.142-34.142 34.142M582.163 92.781c1.201 0 2.593.611 3.314 1.576.72.964 1.094 2.155.755 3.307l-4.256 12.969c-.594 2.013-2.714 3.18-4.739 2.566a3.81 3.81 0 01-2.573-4.74l2.573-8.052h-5.6l-4.607 13.413 27.14 16.692a3.81 3.81 0 011.25 5.247 3.8 3.8 0 01-3.248 1.815 3.804 3.804 0 01-1.994-.565l-14.13-8.689-.355 1.117a7.603 7.603 0 01-7.275 5.33h-12.963l-5.41 16.445a3.822 3.822 0 01-3.623 2.623 3.816 3.816 0 01-3.626-5.006l5.41-16.445a7.616 7.616 0 017.249-5.242h12.963l.93-2.944-8.807-5.414c-.015-.011-.023-.026-.038-.034a3.637 3.637 0 01-.988-.927 1.69 1.69 0 01-.106-.125 3.674 3.674 0 01-.485-1.072l-.073-.21-.03-.11a3.777 3.777 0 01-.034-.93c.008-.21.012-.412.053-.622.02-.088-.003-.175.023-.263l5.702-16.462c.972-3.252 3.083-5.248 6.48-5.248zm-40.326-26.643c10.512 0 19.064 8.552 19.064 19.064s-8.552 19.064-19.064 19.064-19.064-8.552-19.064-19.064 8.552-19.064 19.064-19.064zm0 7.626c-6.306 0-11.438 5.132-11.438 11.438 0 6.306 5.132 11.438 11.438 11.438 6.306 0 11.438-5.132 11.438-11.438 0-6.306-5.132-11.438-11.438-11.438zm36.992-7.626c6.307 0 11.439 5.132 11.439 11.438 0 6.307-5.132 11.439-11.439 11.439-6.306 0-11.438-5.132-11.438-11.439 0-6.306 5.132-11.438 11.438-11.438zm0 7.626a3.817 3.817 0 00-3.812 3.812c0 2.101 1.708 3.813 3.812 3.813a3.817 3.817 0 003.813-3.813c0-2.1-1.708-3.812-3.813-3.812zM678.95 106.433c13.989 0 25.368 11.38 25.368 25.364v4.876h18.119v-7.351c0-6.95-5.657-12.604-12.607-12.604a1.532 1.532 0 00-.188 0 2.002 2.002 0 01-1.84-1.036 32.843 32.843 0 00-3.197-4.693.777.777 0 01.394-1.247c1.553-.41 3.155-.674 4.83-.674h.016l.345.004c11.003.192 19.897 9.2 19.897 20.25v11.176a3.822 3.822 0 01-3.825 3.825h-25.769a3.822 3.822 0 01-3.825-3.825v-8.701c0-9.766-7.948-17.714-17.717-17.714-9.77 0-17.714 7.948-17.714 17.714v4.876h20.116v-.003h3.828a3.835 3.835 0 013.833 3.832 3.835 3.835 0 01-3.833 3.833h-3.828v-.012h-23.941a3.822 3.822 0 01-3.825-3.825v-8.701c0-13.985 11.38-25.364 25.364-25.364zm30.79-27.966c6.327 0 11.476 5.148 11.476 11.475 0 6.326-5.149 11.475-11.475 11.475-6.327 0-11.475-5.149-11.475-11.475 0-6.327 5.148-11.475 11.475-11.475zm-30.79-2.647c6.327 0 11.475 5.148 11.475 11.475S685.277 98.77 678.95 98.77c-6.326 0-11.475-5.148-11.475-11.475s5.149-11.475 11.475-11.475zm30.79 10.297a3.824 3.824 0 00-3.824 3.825 3.824 3.824 0 003.825 3.825 3.824 3.824 0 003.825-3.825 3.824 3.824 0 00-3.825-3.825zm-30.79-2.647a3.826 3.826 0 00-3.825 3.825 3.824 3.824 0 107.65 0 3.824 3.824 0 00-3.825-3.825z"/></g></svg>