<svg xmlns="http://www.w3.org/2000/svg" width="328" height="328"><g fill="none" fill-rule="evenodd"><rect width="328" height="328" rx="4"/><g stroke="#898698" stroke-linecap="round" transform="translate(64 64)"><path stroke-width=".2" d="M0 200h200V0H0z"/><path stroke-width=".2" d="M16.667 183.333h166.666V16.667H16.667z"/><rect width="166.667" height="133.333" x="16.667" y="33.333" rx="16.66"/><rect width="134" height="167" x="33.083" y="16.5" rx="16.66"/><circle cx="100" cy="100" r="83"/><circle cx="100" cy="100" r="41.667"/><path stroke-width=".2" d="M0 66.667h66.667V0H0zM0 133.333h66.667V66.667H0zM0 200h66.667v-66.667H0zM66.667 66.667h66.666V0H66.667zM66.667 133.333h66.666V66.667H66.667zM66.667 200h66.666v-66.667H66.667zM133.333 66.667H200V0h-66.667zM133.333 133.333H200V66.667h-66.667zM0 0l200 200M100 200V0M0 100h200M0 200L200 0"/><rect width="150" height="150" x="25.083" y="25" rx="16.66"/></g></g></svg>