<svg xmlns="http://www.w3.org/2000/svg" width="328" height="328"><g fill="none" fill-rule="evenodd"><rect width="328" height="328" rx="4"/><path stroke="#898698" stroke-linecap="round" d="M64 264h200V64H64z"/><g stroke="#898698" stroke-linecap="round" stroke-width=".2"><path d="M64 72h8v-8h-8zM72 72h8v-8h-8zM80 72h8v-8h-8zM88 72h8v-8h-8zM96 72h8v-8h-8zM104 72h8v-8h-8zM112 72h8v-8h-8zM120 72h8v-8h-8zM184 72h8v-8h-8zM176 72h8v-8h-8zM168 72h8v-8h-8zM160 72h8v-8h-8zM152 72h8v-8h-8zM144 72h8v-8h-8zM136 72h8v-8h-8zM128 72h8v-8h-8zM192 72h8v-8h-8zM200 72h8v-8h-8zM208 72h8v-8h-8zM216 72h8v-8h-8zM224 72h8v-8h-8zM232 72h8v-8h-8zM240 72h8v-8h-8zM248 72h8v-8h-8zM256 72h8v-8h-8zM64 80h8v-8h-8zM72 80h8v-8h-8zM80 80h8v-8h-8zM88 80h8v-8h-8zM96 80h8v-8h-8zM104 80h8v-8h-8zM112 80h8v-8h-8zM120 80h8v-8h-8zM184 80h8v-8h-8zM176 80h8v-8h-8zM168 80h8v-8h-8zM160 80h8v-8h-8zM152 80h8v-8h-8zM144 80h8v-8h-8zM136 80h8v-8h-8zM128 80h8v-8h-8zM192 80h8v-8h-8zM200 80h8v-8h-8zM208 80h8v-8h-8zM216 80h8v-8h-8zM224 80h8v-8h-8zM232 80h8v-8h-8zM240 80h8v-8h-8zM248 80h8v-8h-8zM256 80h8v-8h-8z"/><g><path d="M64 88h8v-8h-8zM72 88h8v-8h-8zM80 88h8v-8h-8zM88 88h8v-8h-8zM96 88h8v-8h-8zM104 88h8v-8h-8zM112 88h8v-8h-8zM120 88h8v-8h-8zM184 88h8v-8h-8zM176 88h8v-8h-8zM168 88h8v-8h-8zM160 88h8v-8h-8zM152 88h8v-8h-8zM144 88h8v-8h-8zM136 88h8v-8h-8zM128 88h8v-8h-8zM192 88h8v-8h-8zM200 88h8v-8h-8zM208 88h8v-8h-8zM216 88h8v-8h-8zM224 88h8v-8h-8zM232 88h8v-8h-8zM240 88h8v-8h-8zM248 88h8v-8h-8zM256 88h8v-8h-8z"/></g><g><path d="M64 96h8v-8h-8zM72 96h8v-8h-8zM80 96h8v-8h-8zM88 96h8v-8h-8zM96 96h8v-8h-8zM104 96h8v-8h-8zM112 96h8v-8h-8zM120 96h8v-8h-8zM184 96h8v-8h-8zM176 96h8v-8h-8zM168 96h8v-8h-8zM160 96h8v-8h-8zM152 96h8v-8h-8zM144 96h8v-8h-8zM136 96h8v-8h-8zM128 96h8v-8h-8zM192 96h8v-8h-8zM200 96h8v-8h-8zM208 96h8v-8h-8zM216 96h8v-8h-8zM224 96h8v-8h-8zM232 96h8v-8h-8zM240 96h8v-8h-8zM248 96h8v-8h-8zM256 96h8v-8h-8z"/></g><g><path d="M64 104h8v-8h-8zM72 104h8v-8h-8zM80 104h8v-8h-8zM88 104h8v-8h-8zM96 104h8v-8h-8zM104 104h8v-8h-8zM112 104h8v-8h-8zM120 104h8v-8h-8zM184 104h8v-8h-8zM176 104h8v-8h-8zM168 104h8v-8h-8zM160 104h8v-8h-8zM152 104h8v-8h-8zM144 104h8v-8h-8zM136 104h8v-8h-8zM128 104h8v-8h-8zM192 104h8v-8h-8zM200 104h8v-8h-8zM208 104h8v-8h-8zM216 104h8v-8h-8zM224 104h8v-8h-8zM232 104h8v-8h-8zM240 104h8v-8h-8zM248 104h8v-8h-8zM256 104h8v-8h-8z"/></g><g><path d="M64 112h8v-8h-8zM72 112h8v-8h-8zM80 112h8v-8h-8zM88 112h8v-8h-8zM96 112h8v-8h-8zM104 112h8v-8h-8zM112 112h8v-8h-8zM120 112h8v-8h-8zM184 112h8v-8h-8zM176 112h8v-8h-8zM168 112h8v-8h-8zM160 112h8v-8h-8zM152 112h8v-8h-8zM144 112h8v-8h-8zM136 112h8v-8h-8zM128 112h8v-8h-8zM192 112h8v-8h-8zM200 112h8v-8h-8zM208 112h8v-8h-8zM216 112h8v-8h-8zM224 112h8v-8h-8zM232 112h8v-8h-8zM240 112h8v-8h-8zM248 112h8v-8h-8zM256 112h8v-8h-8z"/></g><g><path d="M64 120h8v-8h-8zM72 120h8v-8h-8zM80 120h8v-8h-8zM88 120h8v-8h-8zM96 120h8v-8h-8zM104 120h8v-8h-8zM112 120h8v-8h-8zM120 120h8v-8h-8zM184 120h8v-8h-8zM176 120h8v-8h-8zM168 120h8v-8h-8zM160 120h8v-8h-8zM152 120h8v-8h-8zM144 120h8v-8h-8zM136 120h8v-8h-8zM128 120h8v-8h-8zM192 120h8v-8h-8zM200 120h8v-8h-8zM208 120h8v-8h-8zM216 120h8v-8h-8zM224 120h8v-8h-8zM232 120h8v-8h-8zM240 120h8v-8h-8zM248 120h8v-8h-8zM256 120h8v-8h-8z"/></g><g><path d="M64 128h8v-8h-8zM72 128h8v-8h-8zM80 128h8v-8h-8zM88 128h8v-8h-8zM96 128h8v-8h-8zM104 128h8v-8h-8zM112 128h8v-8h-8zM120 128h8v-8h-8zM184 128h8v-8h-8zM176 128h8v-8h-8zM168 128h8v-8h-8zM160 128h8v-8h-8zM152 128h8v-8h-8zM144 128h8v-8h-8zM136 128h8v-8h-8zM128 128h8v-8h-8zM192 128h8v-8h-8zM200 128h8v-8h-8zM208 128h8v-8h-8zM216 128h8v-8h-8zM224 128h8v-8h-8zM232 128h8v-8h-8zM240 128h8v-8h-8zM248 128h8v-8h-8zM256 128h8v-8h-8z"/></g><g><path d="M64 192h8v-8h-8zM72 192h8v-8h-8zM80 192h8v-8h-8zM88 192h8v-8h-8zM96 192h8v-8h-8zM104 192h8v-8h-8zM112 192h8v-8h-8zM120 192h8v-8h-8zM184 192h8v-8h-8zM176 192h8v-8h-8zM168 192h8v-8h-8zM160 192h8v-8h-8zM152 192h8v-8h-8zM144 192h8v-8h-8zM136 192h8v-8h-8zM128 192h8v-8h-8zM192 192h8v-8h-8zM200 192h8v-8h-8zM208 192h8v-8h-8zM216 192h8v-8h-8zM224 192h8v-8h-8zM232 192h8v-8h-8zM240 192h8v-8h-8zM248 192h8v-8h-8zM256 192h8v-8h-8z"/></g><g><path d="M64 184h8v-8h-8zM72 184h8v-8h-8zM80 184h8v-8h-8zM88 184h8v-8h-8zM96 184h8v-8h-8zM104 184h8v-8h-8zM112 184h8v-8h-8zM120 184h8v-8h-8zM184 184h8v-8h-8zM176 184h8v-8h-8zM168 184h8v-8h-8zM160 184h8v-8h-8zM152 184h8v-8h-8zM144 184h8v-8h-8zM136 184h8v-8h-8zM128 184h8v-8h-8zM192 184h8v-8h-8zM200 184h8v-8h-8zM208 184h8v-8h-8zM216 184h8v-8h-8zM224 184h8v-8h-8zM232 184h8v-8h-8zM240 184h8v-8h-8zM248 184h8v-8h-8zM256 184h8v-8h-8z"/></g><g><path d="M64 176h8v-8h-8zM72 176h8v-8h-8zM80 176h8v-8h-8zM88 176h8v-8h-8zM96 176h8v-8h-8zM104 176h8v-8h-8zM112 176h8v-8h-8zM120 176h8v-8h-8zM184 176h8v-8h-8zM176 176h8v-8h-8zM168 176h8v-8h-8zM160 176h8v-8h-8zM152 176h8v-8h-8zM144 176h8v-8h-8zM136 176h8v-8h-8zM128 176h8v-8h-8zM192 176h8v-8h-8zM200 176h8v-8h-8zM208 176h8v-8h-8zM216 176h8v-8h-8zM224 176h8v-8h-8zM232 176h8v-8h-8zM240 176h8v-8h-8zM248 176h8v-8h-8zM256 176h8v-8h-8z"/></g><g><path d="M64 168h8v-8h-8zM72 168h8v-8h-8zM80 168h8v-8h-8zM88 168h8v-8h-8zM96 168h8v-8h-8zM104 168h8v-8h-8zM112 168h8v-8h-8zM120 168h8v-8h-8zM184 168h8v-8h-8zM176 168h8v-8h-8zM168 168h8v-8h-8zM160 168h8v-8h-8zM152 168h8v-8h-8zM144 168h8v-8h-8zM136 168h8v-8h-8zM128 168h8v-8h-8zM192 168h8v-8h-8zM200 168h8v-8h-8zM208 168h8v-8h-8zM216 168h8v-8h-8zM224 168h8v-8h-8zM232 168h8v-8h-8zM240 168h8v-8h-8zM248 168h8v-8h-8zM256 168h8v-8h-8z"/></g><g><path d="M64 160h8v-8h-8zM72 160h8v-8h-8zM80 160h8v-8h-8zM88 160h8v-8h-8zM96 160h8v-8h-8zM104 160h8v-8h-8zM112 160h8v-8h-8zM120 160h8v-8h-8zM184 160h8v-8h-8zM176 160h8v-8h-8zM168 160h8v-8h-8zM160 160h8v-8h-8zM152 160h8v-8h-8zM144 160h8v-8h-8zM136 160h8v-8h-8zM128 160h8v-8h-8zM192 160h8v-8h-8zM200 160h8v-8h-8zM208 160h8v-8h-8zM216 160h8v-8h-8zM224 160h8v-8h-8zM232 160h8v-8h-8zM240 160h8v-8h-8zM248 160h8v-8h-8zM256 160h8v-8h-8z"/></g><g><path d="M64 152h8v-8h-8zM72 152h8v-8h-8zM80 152h8v-8h-8zM88 152h8v-8h-8zM96 152h8v-8h-8zM104 152h8v-8h-8zM112 152h8v-8h-8zM120 152h8v-8h-8zM184 152h8v-8h-8zM176 152h8v-8h-8zM168 152h8v-8h-8zM160 152h8v-8h-8zM152 152h8v-8h-8zM144 152h8v-8h-8zM136 152h8v-8h-8zM128 152h8v-8h-8zM192 152h8v-8h-8zM200 152h8v-8h-8zM208 152h8v-8h-8zM216 152h8v-8h-8zM224 152h8v-8h-8zM232 152h8v-8h-8zM240 152h8v-8h-8zM248 152h8v-8h-8zM256 152h8v-8h-8z"/></g><g><path d="M64 144h8v-8h-8zM72 144h8v-8h-8zM80 144h8v-8h-8zM88 144h8v-8h-8zM96 144h8v-8h-8zM104 144h8v-8h-8zM112 144h8v-8h-8zM120 144h8v-8h-8zM184 144h8v-8h-8zM176 144h8v-8h-8zM168 144h8v-8h-8zM160 144h8v-8h-8zM152 144h8v-8h-8zM144 144h8v-8h-8zM136 144h8v-8h-8zM128 144h8v-8h-8zM192 144h8v-8h-8zM200 144h8v-8h-8zM208 144h8v-8h-8zM216 144h8v-8h-8zM224 144h8v-8h-8zM232 144h8v-8h-8zM240 144h8v-8h-8zM248 144h8v-8h-8zM256 144h8v-8h-8z"/></g><g><path d="M64 136h8v-8h-8zM72 136h8v-8h-8zM80 136h8v-8h-8zM88 136h8v-8h-8zM96 136h8v-8h-8zM104 136h8v-8h-8zM112 136h8v-8h-8zM120 136h8v-8h-8zM184 136h8v-8h-8zM176 136h8v-8h-8zM168 136h8v-8h-8zM160 136h8v-8h-8zM152 136h8v-8h-8zM144 136h8v-8h-8zM136 136h8v-8h-8zM128 136h8v-8h-8zM192 136h8v-8h-8zM200 136h8v-8h-8zM208 136h8v-8h-8zM216 136h8v-8h-8zM224 136h8v-8h-8zM232 136h8v-8h-8zM240 136h8v-8h-8zM248 136h8v-8h-8zM256 136h8v-8h-8z"/></g><g><path d="M64 200h8v-8h-8zM72 200h8v-8h-8zM80 200h8v-8h-8zM88 200h8v-8h-8zM96 200h8v-8h-8zM104 200h8v-8h-8zM112 200h8v-8h-8zM120 200h8v-8h-8zM184 200h8v-8h-8zM176 200h8v-8h-8zM168 200h8v-8h-8zM160 200h8v-8h-8zM152 200h8v-8h-8zM144 200h8v-8h-8zM136 200h8v-8h-8zM128 200h8v-8h-8zM192 200h8v-8h-8zM200 200h8v-8h-8zM208 200h8v-8h-8zM216 200h8v-8h-8zM224 200h8v-8h-8zM232 200h8v-8h-8zM240 200h8v-8h-8zM248 200h8v-8h-8zM256 200h8v-8h-8z"/></g><g><path d="M64 208h8v-8h-8zM72 208h8v-8h-8zM80 208h8v-8h-8zM88 208h8v-8h-8zM96 208h8v-8h-8zM104 208h8v-8h-8zM112 208h8v-8h-8zM120 208h8v-8h-8zM184 208h8v-8h-8zM176 208h8v-8h-8zM168 208h8v-8h-8zM160 208h8v-8h-8zM152 208h8v-8h-8zM144 208h8v-8h-8zM136 208h8v-8h-8zM128 208h8v-8h-8zM192 208h8v-8h-8zM200 208h8v-8h-8zM208 208h8v-8h-8zM216 208h8v-8h-8zM224 208h8v-8h-8zM232 208h8v-8h-8zM240 208h8v-8h-8zM248 208h8v-8h-8zM256 208h8v-8h-8z"/></g><g><path d="M64 216h8v-8h-8zM72 216h8v-8h-8zM80 216h8v-8h-8zM88 216h8v-8h-8zM96 216h8v-8h-8zM104 216h8v-8h-8zM112 216h8v-8h-8zM120 216h8v-8h-8zM184 216h8v-8h-8zM176 216h8v-8h-8zM168 216h8v-8h-8zM160 216h8v-8h-8zM152 216h8v-8h-8zM144 216h8v-8h-8zM136 216h8v-8h-8zM128 216h8v-8h-8zM192 216h8v-8h-8zM200 216h8v-8h-8zM208 216h8v-8h-8zM216 216h8v-8h-8zM224 216h8v-8h-8zM232 216h8v-8h-8zM240 216h8v-8h-8zM248 216h8v-8h-8zM256 216h8v-8h-8z"/></g><g><path d="M64 224h8v-8h-8zM72 224h8v-8h-8zM80 224h8v-8h-8zM88 224h8v-8h-8zM96 224h8v-8h-8zM104 224h8v-8h-8zM112 224h8v-8h-8zM120 224h8v-8h-8zM184 224h8v-8h-8zM176 224h8v-8h-8zM168 224h8v-8h-8zM160 224h8v-8h-8zM152 224h8v-8h-8zM144 224h8v-8h-8zM136 224h8v-8h-8zM128 224h8v-8h-8zM192 224h8v-8h-8zM200 224h8v-8h-8zM208 224h8v-8h-8zM216 224h8v-8h-8zM224 224h8v-8h-8zM232 224h8v-8h-8zM240 224h8v-8h-8zM248 224h8v-8h-8zM256 224h8v-8h-8z"/></g><g><path d="M64 232h8v-8h-8zM72 232h8v-8h-8zM80 232h8v-8h-8zM88 232h8v-8h-8zM96 232h8v-8h-8zM104 232h8v-8h-8zM112 232h8v-8h-8zM120 232h8v-8h-8zM184 232h8v-8h-8zM176 232h8v-8h-8zM168 232h8v-8h-8zM160 232h8v-8h-8zM152 232h8v-8h-8zM144 232h8v-8h-8zM136 232h8v-8h-8zM128 232h8v-8h-8zM192 232h8v-8h-8zM200 232h8v-8h-8zM208 232h8v-8h-8zM216 232h8v-8h-8zM224 232h8v-8h-8zM232 232h8v-8h-8zM240 232h8v-8h-8zM248 232h8v-8h-8zM256 232h8v-8h-8z"/></g><g><path d="M64 240h8v-8h-8zM72 240h8v-8h-8zM80 240h8v-8h-8zM88 240h8v-8h-8zM96 240h8v-8h-8zM104 240h8v-8h-8zM112 240h8v-8h-8zM120 240h8v-8h-8zM184 240h8v-8h-8zM176 240h8v-8h-8zM168 240h8v-8h-8zM160 240h8v-8h-8zM152 240h8v-8h-8zM144 240h8v-8h-8zM136 240h8v-8h-8zM128 240h8v-8h-8zM192 240h8v-8h-8zM200 240h8v-8h-8zM208 240h8v-8h-8zM216 240h8v-8h-8zM224 240h8v-8h-8zM232 240h8v-8h-8zM240 240h8v-8h-8zM248 240h8v-8h-8zM256 240h8v-8h-8z"/></g><g><path d="M64 248h8v-8h-8zM72 248h8v-8h-8zM80 248h8v-8h-8zM88 248h8v-8h-8zM96 248h8v-8h-8zM104 248h8v-8h-8zM112 248h8v-8h-8zM120 248h8v-8h-8zM184 248h8v-8h-8zM176 248h8v-8h-8zM168 248h8v-8h-8zM160 248h8v-8h-8zM152 248h8v-8h-8zM144 248h8v-8h-8zM136 248h8v-8h-8zM128 248h8v-8h-8zM192 248h8v-8h-8zM200 248h8v-8h-8zM208 248h8v-8h-8zM216 248h8v-8h-8zM224 248h8v-8h-8zM232 248h8v-8h-8zM240 248h8v-8h-8zM248 248h8v-8h-8zM256 248h8v-8h-8z"/></g><g><path d="M64 256h8v-8h-8zM72 256h8v-8h-8zM80 256h8v-8h-8zM88 256h8v-8h-8zM96 256h8v-8h-8zM104 256h8v-8h-8zM112 256h8v-8h-8zM120 256h8v-8h-8zM184 256h8v-8h-8zM176 256h8v-8h-8zM168 256h8v-8h-8zM160 256h8v-8h-8zM152 256h8v-8h-8zM144 256h8v-8h-8zM136 256h8v-8h-8zM128 256h8v-8h-8zM192 256h8v-8h-8zM200 256h8v-8h-8zM208 256h8v-8h-8zM216 256h8v-8h-8zM224 256h8v-8h-8zM232 256h8v-8h-8zM240 256h8v-8h-8zM248 256h8v-8h-8zM256 256h8v-8h-8z"/></g><g><path d="M64 264h8v-8h-8zM72 264h8v-8h-8zM80 264h8v-8h-8zM88 264h8v-8h-8zM96 264h8v-8h-8zM104 264h8v-8h-8zM112 264h8v-8h-8zM120 264h8v-8h-8zM184 264h8v-8h-8zM176 264h8v-8h-8zM168 264h8v-8h-8zM160 264h8v-8h-8zM152 264h8v-8h-8zM144 264h8v-8h-8zM136 264h8v-8h-8zM128 264h8v-8h-8zM192 264h8v-8h-8zM200 264h8v-8h-8zM208 264h8v-8h-8zM216 264h8v-8h-8zM224 264h8v-8h-8zM232 264h8v-8h-8zM240 264h8v-8h-8zM248 264h8v-8h-8zM256 264h8v-8h-8z"/></g></g><path fill="#EA475B" fill-opacity=".12" d="M264 64v200H64V64h200zm-16 16H80v168h168V80z"/></g></svg>