<svg width="860" height="232" xmlns="http://www.w3.org/2000/svg"><style>@keyframes divider{0%,14%,66%,to{transform:translate(0,0)}20%,60%{transform:translate(0,88px)}}@keyframes fader{0%,14%,64%,to{transform:scaleY(1)}18%,60%{transform:scaleY(0)}}@keyframes arrow_left{0%,14%,66%,to{transform:rotate(0deg)}20%,60%{transform:rotate(-90deg)}}@keyframes arrow_right{0%,14%,66%,to{transform:rotate(0deg)}20%,60%{transform:rotate(90deg)}}</style><g id="Rows" stroke="none" stroke-width="1" fill="none" fill-rule="evenodd"><g id="info_row_expandable"><rect id="Rectangle" fill-opacity="0" fill="#000000" x="0" y="0" width="860" height="232" rx="4"/><path d="M672.929 92.063c.065-.77.103-1.496.114-2.178.012-.682.018-1.226.018-1.635 0-.677-.007-1.4-.021-2.17a63.583 63.583 0 00-.355-5.064l-1.363.208c.157 1.461.283 3.316.375 5.566.014.384.021.793.021 1.224 0 .357-.004.73-.014 1.12a64.701 64.701 0 01-.146 2.852l1.37.077zM662.167 92c.283 0 .55-.014.8-.042.25-.028.487-.08.71-.16.222-.079.432-.192.63-.34.196-.149.385-.346.566-.592.213.158.445.312.696.463.25.15.511.278.782.382a3.005 3.005 0 001.124.226c.19 0 .38-.025.57-.076a1.66 1.66 0 00.765-.449c.21-.215.374-.468.494-.758s.195-.555.223-.797c.028-.24.042-.436.042-.584 0-.167-.012-.33-.035-.487a4.21 4.21 0 00-.247-.918 2.864 2.864 0 00-.477-.807c-.199-.237-.439-.428-.72-.574a2.071 2.071 0 00-.97-.22c-.306 0-.574.062-.803.185-.23.123-.434.283-.613.48a3.668 3.668 0 00-.48.675c-.141.253-.274.509-.4.769-.143.287-.286.567-.427.838a3.398 3.398 0 01-.501.723c-.193.211-.426.38-.7.508-.273.128-.616.192-1.029.192h-.14V92h.14zm5.287-1.447c-.186 0-.394-.046-.626-.14-.348-.138-.733-.363-1.155-.674l.376-.758c.116-.227.219-.424.31-.591a3.74 3.74 0 01.257-.418.985.985 0 01.243-.247.466.466 0 01.261-.08c.14 0 .262.028.369.084.106.055.2.126.278.212.079.086.146.18.202.285a2.264 2.264 0 01.215.567c.019.079.03.135.035.167.019.125.028.246.028.362a2.082 2.082 0 01-.129.703c-.053.138-.117.252-.191.34a.444.444 0 01-.23.16 1.003 1.003 0 01-.243.028zM656.1 92c.195-.01.387-.028.577-.056.19-.027.376-.07.557-.125a2.691 2.691 0 001.009-.563c.245-.228.445-.487.598-.78.208.27.45.52.727.752.276.232.58.408.914.529.242.078.489.139.741.18.253.042.546.063.88.063h.202v-1.363h-.438a2.38 2.38 0 01-.713-.115 2.337 2.337 0 01-.595-.296 2.552 2.552 0 01-.497-.456 4.692 4.692 0 01-.428-.601c-.176-.297-.341-.592-.494-.884a76.548 76.548 0 00-.463-.87 26.995 26.995 0 00-.487-.862 9.759 9.759 0 00-1.297-1.722 9.568 9.568 0 00-.925-.852l5.516-2.316-.535-1.266-6.15 2.65-.18 1.537a12.043 12.043 0 011.415 1.305c.243.262.476.538.699.828.223.29.417.583.584.88a4.4 4.4 0 01.372.834 2.4 2.4 0 01.122.71c0 .056-.002.111-.007.167-.014.167-.07.33-.17.49a1.856 1.856 0 01-.883.727 1.515 1.515 0 01-.56.112h-2.429V92h2.338zm-2.06 0v-1.363h-.138a2.77 2.77 0 01-.755-.09c-.211-.061-.37-.145-.477-.251a.58.58 0 01-.184-.359 3.758 3.758 0 01-.024-.441v-3.493a48.55 48.55 0 00-.066-2.546 31.39 31.39 0 00-.077-1.12c-.03-.343-.066-.633-.108-.87l-1.363.251c.041.218.077.498.108.839.03.34.055.713.076 1.116.02.404.036.82.045 1.252.01.432.014.847.014 1.245.005.409.007.796.007 1.162 0 .371-.002.7-.007.988a211.355 211.355 0 00-.013.957v.08c0 .11.002.244.006.4a2.686 2.686 0 00.247 1.012c.081.176.198.34.351.494.25.25.556.436.915.556.36.12.794.181 1.305.181h.139zm-7.373-7.59l1.134-1.133-1.141-1.141-1.134 1.134 1.14 1.14zM645.555 92c.38 0 .734-.026 1.06-.077.328-.05.623-.139.888-.264.264-.125.497-.292.699-.5.201-.21.372-.471.511-.787.14-.32.209-.69.209-1.113 0-.074-.003-.148-.007-.222-.033-.515-.153-1.109-.362-1.781a9.033 9.033 0 00-.223-.644 14.061 14.061 0 00-.382-.897 1.713 1.713 0 01-.063-.143l-1.238.612.605 1.489c.098.237.172.463.223.678.05.216.08.385.09.508.01.123.014.215.014.275 0 .111-.007.216-.02.313a1.35 1.35 0 01-.105.369 1.245 1.245 0 01-.348.455c-.139.11-.301.192-.487.247-.185.056-.392.09-.619.101-.227.012-.475.018-.744.018h-.807V92h1.106zm-.828 0v-1.363h-.14a2.77 2.77 0 01-.754-.09c-.211-.061-.37-.145-.476-.251a.58.58 0 01-.185-.359 3.758 3.758 0 01-.024-.441v-3.493a48.553 48.553 0 00-.066-2.546c-.021-.403-.047-.776-.077-1.12-.03-.343-.066-.633-.108-.87l-1.363.251c.042.218.078.498.108.839.03.34.055.713.076 1.116.021.404.036.82.045 1.252.01.432.014.847.014 1.245.005.409.007.796.007 1.162 0 .371-.002.7-.007.988a211.315 211.315 0 00-.014 1.037c0 .11.003.244.007.4a2.686 2.686 0 00.247 1.012c.082.176.199.34.352.494.25.25.555.436.914.556.36.12.795.181 1.305.181h.139zm-12.87-5.711l1.127-1.127-1.14-1.141-1.127 1.134 1.14 1.134zm2.853.014l1.127-1.134-1.141-1.134-1.127 1.127 1.14 1.14zM633.283 92c.265 0 .543-.012.835-.035.339-.023.684-.06 1.037-.111a14.996 14.996 0 002.059-.449c.32-.095.619-.2.897-.316.279-.116.522-.24.73-.369.219-.14.387-.277.505-.414a1.11 1.11 0 00.237-.407 1.383 1.383 0 00.052-.542 4.954 4.954 0 00-.112-.634 6.504 6.504 0 00-.344-1.053 12.893 12.893 0 00-.435-.933c-.143-.276-.27-.5-.379-.674a8.813 8.813 0 01-.177-.29l-1.155.752a8.292 8.292 0 01.33.525c.09.156.19.334.296.536.107.202.208.414.303.637.095.222.178.448.25.678.072.23.117.449.136.657-.39.218-.81.396-1.263.532-.452.137-.908.245-1.367.324-.459.079-.909.133-1.35.163-.44.03-.843.046-1.21.046-1.298-.005-2.353-.13-3.165-.373-.812-.243-1.331-.592-1.558-1.047a1.365 1.365 0 01-.14-.619c0-.255.056-.535.168-.841a2.686 2.686 0 01.208-.477 5.523 5.523 0 01.244-.4l-1.106-.82c-.01.013-.035.051-.077.114a5.562 5.562 0 00-.344.609 6.33 6.33 0 00-.198.459c-.181.478-.272.937-.272 1.377 0 .44.098.849.292 1.225.344.69.993 1.222 1.948 1.593 1.007.37 2.34.563 4 .577h.125z" id="امکانات" fill-opacity=".56" fill="#000000" fill-rule="nonzero"/><path d="M669.951 139.993c.279 0 .558-.02.839-.063.28-.041.55-.109.81-.201.26-.093.502-.212.727-.359.225-.146.42-.32.588-.525a1.685 1.685 0 00.362-.737c.037-.162.056-.348.059-.557a3.214 3.214 0 00-.08-.702 5.056 5.056 0 00-.317-.908 7.36 7.36 0 00-.508-.932 9.21 9.21 0 00-1.408-1.708 7.958 7.958 0 00-.81-.675 4.88 4.88 0 00-.825-.487l-.564 1.266c.209.093.422.218.64.376.218.158.433.338.644.542.21.205.414.424.609.658.194.234.372.475.532.723.16.248.297.497.41.745.114.248.196.485.247.713.037.167.056.31.056.431 0 .167-.035.292-.105.376-.157.19-.352.331-.584.424-.232.093-.44.147-.626.164a3.996 3.996 0 01-.96-.01 5.912 5.912 0 01-1.62-.443 4.229 4.229 0 01-.62-.323l-.57 1.308c.115.106.299.213.55.32a8.429 8.429 0 001.736.504c.303.053.566.08.788.08zm-6.685-7.583l1.134-1.133-1.14-1.141-1.135 1.134 1.141 1.14zm-1.113 7.59c.38 0 .734-.026 1.06-.077.328-.05.624-.139.888-.264s.497-.292.699-.5c.202-.21.372-.471.511-.787.14-.32.209-.69.209-1.113 0-.074-.002-.148-.007-.222-.032-.515-.153-1.109-.362-1.781a9.033 9.033 0 00-.222-.644 14.061 14.061 0 00-.383-.897 1.713 1.713 0 01-.063-.143l-1.238.612.605 1.489c.098.237.172.463.223.678.051.216.081.385.09.508.01.123.014.215.014.275 0 .111-.007.216-.02.313a1.35 1.35 0 01-.105.369 1.245 1.245 0 01-.348.455c-.139.11-.301.192-.487.247-.185.056-.391.09-.619.101-.227.012-.475.018-.744.018h-.807V140h1.106zm-.828 0v-1.363h-.139c-.278 0-.508-.036-.689-.108a1.244 1.244 0 01-.452-.3 1.755 1.755 0 01-.31-.466 15.476 15.476 0 01-.267-.608c-.181-.422-.351-.827-.511-1.214a3910.464 3910.464 0 01-1.618-3.927l-1.266.529 2.198 5.287a2.64 2.64 0 01-.925.584c-.25.097-.463.154-.636.17a4.617 4.617 0 01-.393.025c-.186 0-.371-.021-.557-.063a3.191 3.191 0 01-.842-.32 4.114 4.114 0 01-.841-.619l-.787 1.106c.395.408.825.725 1.29.95a3.45 3.45 0 001.52.337c.33 0 .627-.02.891-.06.265-.039.51-.097.734-.173.225-.077.436-.173.633-.289.197-.116.393-.25.588-.403a2.4 2.4 0 00.348.358c.134.114.29.212.47.296.178.083.384.15.619.198.234.049.502.073.803.073h.14zm-12.431 0c.083 0 .187-.003.31-.01.122-.007.253-.024.393-.05.139-.025.285-.06.438-.103.153-.045.304-.104.452-.178.408-.2.718-.475.929-.828.21-.352.316-.767.316-1.245 0-.478-.139-.997-.417-1.558-.278-.561-.703-1.167-1.273-1.816a13.94 13.94 0 00-.585-.615c-.19-.188-.36-.352-.51-.49-.152-.14-.273-.249-.366-.328a1.407 1.407 0 01-.146-.132l-.877 1.064c0 .005.042.042.125.112.084.07.195.167.334.292a9.896 9.896 0 00-.814.848c-.755.91-1.133 1.784-1.133 2.623 0 .478.113.892.34 1.242.228.35.564.63 1.01.838.17.084.34.148.507.195.167.046.319.08.456.1a2.818 2.818 0 00.45.038l.06.001zm.05-1.385h-.05a2.245 2.245 0 01-.362-.034 2.836 2.836 0 01-.257-.06 1.662 1.662 0 01-.272-.1 1.07 1.07 0 01-.299-.188.867.867 0 01-.17-.212.669.669 0 01-.077-.22 1.397 1.397 0 01-.017-.215c0-.236.054-.475.163-.716a4.18 4.18 0 01.4-.696c.158-.223.326-.427.505-.612.178-.186.335-.339.47-.46.45.488.792.947 1.029 1.378.236.431.355.8.355 1.106 0 .209-.039.38-.115.511a.918.918 0 01-.372.338c-.088.042-.181.074-.278.097-.098.023-.19.042-.279.056-.088.014-.169.022-.243.024a6.035 6.035 0 01-.181.004h.05zm-9.337 1.448c.065-.77.103-1.496.115-2.178.011-.682.017-1.226.017-1.635 0-.677-.007-1.4-.02-2.17a63.584 63.584 0 00-.356-5.064l-1.363.208c.158 1.461.283 3.316.376 5.566.014.384.02.793.02 1.224 0 .357-.004.73-.013 1.12a64.701 64.701 0 01-.146 2.852l1.37.077zm-6.838-7.736l1.127-1.127-1.141-1.14-1.127 1.133 1.14 1.134zm2.852.014l1.127-1.134-1.141-1.134-1.127 1.127 1.14 1.14zM632.588 140c.38 0 .748-.026 1.102-.077.355-.05.681-.139.978-.264.297-.125.56-.292.79-.5.229-.21.413-.471.552-.787.14-.32.21-.69.21-1.113 0-.074-.003-.148-.008-.222-.032-.515-.153-1.109-.362-1.781a9.033 9.033 0 00-.222-.644 14.061 14.061 0 00-.383-.897 1.712 1.712 0 01-.062-.143l-1.239.612.606 1.489c.097.237.171.463.222.678.051.216.081.385.09.508.01.123.015.215.015.275 0 .111-.007.216-.021.313a1.35 1.35 0 01-.105.369 1.089 1.089 0 01-.39.455c-.166.11-.359.192-.577.247-.218.056-.454.09-.71.101-.254.012-.516.018-.785.018h-1.343V140h1.642zm-7.896 4.883a8.524 8.524 0 001.965-.556 7.19 7.19 0 001.726-1.016 6.198 6.198 0 001.321-1.45 5.255 5.255 0 00.755-1.861h.765v-1.363h-.66a6.622 6.622 0 00-.376-2.02 5.342 5.342 0 00-.404-.881 4.395 4.395 0 00-.528-.738c-.552-.593-1.157-.89-1.816-.89a1.77 1.77 0 00-.86.226 2.61 2.61 0 00-.768.664c-.195.25-.364.549-.508.894a3.926 3.926 0 00-.274.925c-.04.272-.06.495-.06.672 0 .185.017.37.05.556.055.353.19.663.403.932.482.599 1.226.928 2.233.988.255.023.483.035.685.035h.79c-.052.348-.194.701-.428 1.06-.235.36-.553.7-.957 1.02-.403.32-.888.608-1.454.863a8.976 8.976 0 01-1.92.598l.32 1.342zm3.755-6.26h-.047c-.204 0-.422-.007-.654-.021a3.506 3.506 0 01-.296-.032 2.472 2.472 0 01-.347-.076 1.635 1.635 0 01-.334-.14.819.819 0 01-.261-.225.651.651 0 01-.143-.33 2.434 2.434 0 01-.024-.31c0-.102.007-.207.02-.313a3.16 3.16 0 01.133-.595c.065-.202.145-.384.24-.546.095-.163.203-.296.323-.4a.577.577 0 01.383-.157c.083 0 .162.014.237.042.074.028.144.064.212.108.067.044.13.093.188.146.057.053.11.103.156.15.116.134.228.293.337.476.11.183.208.388.296.616.088.227.16.473.216.737.055.264.09.545.104.842-.18.014-.344.022-.49.024l-.296.004h.047zM615.725 140c.283 0 .55-.014.8-.042.25-.028.487-.08.71-.16.222-.079.432-.192.63-.34.196-.149.385-.346.566-.592.214.158.446.312.696.463.25.15.511.278.783.382a3.005 3.005 0 001.123.226c.19 0 .38-.025.57-.076a1.66 1.66 0 00.766-.449c.208-.215.373-.468.494-.758.12-.29.194-.555.222-.797.028-.24.042-.436.042-.584 0-.167-.012-.33-.035-.487a4.21 4.21 0 00-.247-.918 2.864 2.864 0 00-.476-.807c-.2-.237-.44-.428-.72-.574a2.071 2.071 0 00-.97-.22c-.307 0-.575.062-.804.185-.23.123-.434.283-.612.48a3.668 3.668 0 00-.48.675c-.142.253-.275.509-.4.769-.144.287-.287.567-.428.838a3.398 3.398 0 01-.501.723c-.193.211-.426.38-.7.508-.273.128-.616.192-1.029.192h-.139V140h.14zm5.287-1.447c-.185 0-.394-.046-.626-.14-.348-.138-.733-.363-1.155-.674l.376-.758c.116-.227.22-.424.31-.591a3.74 3.74 0 01.257-.418.985.985 0 01.243-.247.466.466 0 01.261-.08c.14 0 .262.028.369.084.107.055.2.126.278.212.08.086.146.18.202.285a2.264 2.264 0 01.216.567c.018.079.03.135.034.167.019.125.028.246.028.362a2.082 2.082 0 01-.129.703c-.053.138-.117.252-.19.34a.444.444 0 01-.23.16 1.003 1.003 0 01-.244.028zM615.864 140v-1.363h-.139a2.77 2.77 0 01-.755-.09c-.21-.061-.37-.145-.476-.251a.58.58 0 01-.184-.359 3.758 3.758 0 01-.025-.441v-3.493a48.553 48.553 0 00-.066-2.546c-.02-.403-.046-.776-.076-1.12-.03-.343-.066-.633-.108-.87l-1.364.251c.042.218.078.498.108.839.03.34.056.713.077 1.116.02.404.036.82.045 1.252.01.432.014.847.014 1.245.004.409.007.796.007 1.162 0 .371-.003.7-.007.988a211.356 211.356 0 00-.014 1.037c0 .11.002.244.007.4a2.686 2.686 0 00.247 1.012c.08.176.198.34.351.494.25.25.555.436.915.556.36.12.794.181 1.304.181h.14zm-8.66-7.673l1.126-1.127-1.14-1.14-1.127 1.133 1.14 1.134zm2.852.014l1.127-1.134-1.141-1.134-1.127 1.127 1.14 1.14zM607.023 140c.38 0 .747-.026 1.102-.077.355-.05.68-.139.978-.264.296-.125.56-.292.79-.5.229-.21.413-.471.552-.787.14-.32.209-.69.209-1.113 0-.074-.002-.148-.007-.222-.033-.515-.153-1.109-.362-1.781a9.033 9.033 0 00-.222-.644 14.061 14.061 0 00-.383-.897 1.713 1.713 0 01-.063-.143l-1.238.612.605 1.489c.098.237.172.463.223.678.051.216.081.385.09.508.01.123.014.215.014.275 0 .111-.007.216-.02.313a1.35 1.35 0 01-.105.369 1.089 1.089 0 01-.39.455c-.166.11-.359.192-.577.247-.218.056-.454.09-.71.101-.255.012-.517.018-.786.018h-1.342V140h1.642zm-6.533 0c.436 0 .816-.017 1.138-.052.322-.035.604-.088.845-.16a2.598 2.598 0 001.113-.65c.2.254.455.462.765.622.311.16.7.24 1.169.24h.14v-1.363h-.14c-.237 0-.43-.054-.58-.16a1.141 1.141 0 01-.356-.404 1.905 1.905 0 01-.184-.529 4.913 4.913 0 01-.077-.542 21.335 21.335 0 00-.125-1.204 6.535 6.535 0 00-.201-.946l-1.308.369c.102.352.172.665.212.939.04.274.059.543.059.807 0 .278-.046.522-.14.73a1.256 1.256 0 01-.434.522c-.197.14-.452.244-.765.313-.313.07-.69.105-1.13.105h-1.037V140h1.036zm.258 3.402l1.127-1.127-1.141-1.141-1.127 1.134 1.14 1.134zm2.852.014l1.127-1.134-1.14-1.134-1.128 1.127 1.141 1.14zM599.732 140v-1.363h-.195a4.643 4.643 0 01-.758-.07 2.482 2.482 0 01-.619-.195 2.725 2.725 0 01-.717-.48 3.246 3.246 0 01-.497-.598 3.881 3.881 0 01-.34-.661c-.091-.227-.174-.452-.248-.675a5.431 5.431 0 00-.504-1.06 8.138 8.138 0 00-.751-1.037 9.893 9.893 0 00-.953-.974c-.35-.313-.72-.606-1.11-.88l5.51-2.324-.522-1.266-6.24 2.686-.188 1.537c.186.144.403.315.654.515a17.59 17.59 0 011.562 1.412c.257.264.483.531.678.8.195.269.34.523.438.762.098.239.146.455.146.65 0 .051-.002.102-.007.153a1.193 1.193 0 01-.33.682c-.193.209-.493.39-.901.543-.31.12-.763.216-1.357.288-.593.072-1.363.129-2.31.17a8.51 8.51 0 01-.89-.014 11.983 11.983 0 01-2.003-.32 8.132 8.132 0 01-.911-.284 3.558 3.558 0 01-.717-.362c-.2-.135-.336-.278-.41-.432a1.06 1.06 0 01-.105-.48v-.062c.01-.2.05-.406.119-.62.07-.213.158-.421.267-.625a4.99 4.99 0 01.338-.55l-1.1-.82c-.013.018-.04.06-.08.124l-.145.247a7.279 7.279 0 00-.4.81c-.204.465-.317.815-.338 1.051-.02.237-.031.4-.031.487 0 .283.042.543.125.78.107.31.275.586.505.827.23.241.502.454.817.637.315.183.667.337 1.054.462a9.73 9.73 0 001.217.306c.425.08.86.136 1.305.17.445.036.885.053 1.321.053.821 0 1.539-.022 2.153-.066a8.473 8.473 0 001.61-.254c.46-.125.854-.301 1.183-.529.33-.227.617-.524.863-.89a3.897 3.897 0 001.572 1.297c.636.29 1.336.437 2.101.442h.14zm-17.982-.007a1.253 1.253 0 00.803-.292c.109-.093.198-.202.268-.327a.957.957 0 00.118-.41v-.056a.926.926 0 00-.132-.494 1.038 1.038 0 00-.39-.362c-.157-.083-.285-.126-.382-.129a17.55 17.55 0 00-.16-.003.936.936 0 00-.487.132c0-.668.438-1.32 1.315-1.955l-.338-.27a5.81 5.81 0 00-.295-.224c-1.104.784-1.656 1.721-1.656 2.81 0 .21.029.409.087.6.058.19.142.357.254.504.111.146.25.262.417.347.167.086.36.129.578.129zm-13.301.557c.088 0 .178-.003.271-.007a7.422 7.422 0 001.28-.153 6.581 6.581 0 001.357-.473 4.5 4.5 0 001.078-.717c.2-.18.377-.405.532-.671a4.82 4.82 0 00.39-.852 4.966 4.966 0 00.281-1.552c0-.079-.002-.157-.007-.236a51.837 51.837 0 00-.121-1.555 85.953 85.953 0 00-.456-3.937 43.103 43.103 0 00-.146-1.013l-1.364.133.717 6.47a2.367 2.367 0 01-.049.696c-.06.25-.147.493-.26.73a3.287 3.287 0 01-.418.657 2.243 2.243 0 01-.532.483 14.034 14.034 0 00-.765-2.39 25.634 25.634 0 00-1.37-2.779 31.607 31.607 0 00-1.211-2.007 27.53 27.53 0 00-.393-.587 2.885 2.885 0 01-.157-.237l-1.134.793a21.16 21.16 0 01.515.755c.153.234.328.51.525.828.197.317.401.665.612 1.043.211.378.425.777.64 1.197.216.42.418.847.606 1.283.187.436.353.873.497 1.311.144.439.253.864.327 1.277a5.072 5.072 0 01-.856.129c-.208.007-.348.01-.417.01a3.87 3.87 0 01-.758-.07l-.237 1.357c.339.056.68.084 1.023.084zm-6.428-.467c.431 0 .81-.06 1.134-.18.334-.121.612-.295.835-.522.222-.227.39-.502.5-.824a3.3 3.3 0 00.167-1.082c0-.265-.024-.536-.073-.814a7.696 7.696 0 00-.187-.814 12.239 12.239 0 00-.86-2.17l-1.217.64a12.273 12.273 0 01.588 1.422c.1.295.185.595.257.901.072.306.108.591.108.856a2 2 0 01-.07.55.93.93 0 01-.226.403.764.764 0 01-.354.212 1.566 1.566 0 01-.4.052c-.08 0-.163-.005-.25-.014a.65.65 0 01-.352-.136.847.847 0 01-.23-.292 1.47 1.47 0 01-.125-.41 3.026 3.026 0 01-.038-.49c0-.19.014-.408.042-.651.027-.243.059-.473.093-.689.035-.215.067-.4.094-.553l.035-.222-1.335-.244c-.028.19-.067.414-.115.671a9.558 9.558 0 01-.188.797 7.21 7.21 0 01-.278.807c-.11.264-.237.5-.383.71a2.008 2.008 0 01-.5.507c-.189.13-.4.195-.637.195a.735.735 0 01-.369-.083.622.622 0 01-.23-.223.974.974 0 01-.118-.316 1.894 1.894 0 01-.035-.366c0-.18.019-.377.056-.588.037-.21.081-.417.132-.619a12.768 12.768 0 01.292-.998l-1.377-.292c-.046.227-.102.468-.167.723a7.783 7.783 0 01-.237.762 5.556 5.556 0 01-.326.727 2.873 2.873 0 01-.442.616c-.17.178-.363.322-.581.431a1.626 1.626 0 01-.737.164h-.154V140h.147c.269 0 .516-.022.74-.066a2.704 2.704 0 001.13-.494c.159-.118.307-.252.446-.4.074.172.18.322.317.452.136.13.288.239.455.327.167.088.342.154.525.198.184.044.361.066.533.066.394 0 .767-.095 1.12-.285.352-.19.667-.447.946-.772.097.148.215.286.355.414.139.128.29.239.452.334.162.095.332.17.511.226.179.056.356.083.532.083h.049zm-12.362-6.67l1.127-1.128-1.14-1.14-1.128 1.133 1.141 1.134zm2.852.013l1.127-1.134-1.14-1.134-1.128 1.127 1.141 1.141zM548.873 140c.436 0 .815-.017 1.137-.052.323-.035.604-.088.846-.16a2.598 2.598 0 001.113-.65c.2.254.454.462.765.622.31.16.7.24 1.169.24h.139v-1.363h-.14c-.236 0-.43-.054-.58-.16a1.141 1.141 0 01-.355-.404 1.905 1.905 0 01-.184-.529 4.913 4.913 0 01-.077-.542 21.338 21.338 0 00-.125-1.204 6.535 6.535 0 00-.202-.946l-1.308.369c.102.352.173.665.212.939.04.274.06.543.06.807 0 .278-.047.522-.14.73a1.256 1.256 0 01-.434.522c-.197.14-.452.244-.766.313-.313.07-.69.105-1.13.105h-1.036V140h1.036zm-5.927 0c.436 0 .815-.017 1.137-.052.323-.035.605-.088.846-.16a2.598 2.598 0 001.113-.65c.2.254.454.462.765.622.31.16.7.24 1.169.24h.139v-1.363h-.14c-.236 0-.43-.054-.58-.16a1.141 1.141 0 01-.355-.404 1.905 1.905 0 01-.184-.529 4.913 4.913 0 01-.077-.542 21.332 21.332 0 00-.125-1.204 6.534 6.534 0 00-.202-.946l-1.308.369c.102.352.173.665.213.939.039.274.059.543.059.807 0 .278-.047.522-.14.73a1.256 1.256 0 01-.434.522c-.197.14-.452.244-.765.313-.314.07-.69.105-1.13.105h-1.037V140h1.036zm.257 3.402l1.127-1.127-1.14-1.141-1.127 1.134 1.14 1.134zm2.853.014l1.127-1.134-1.141-1.134-1.127 1.127 1.14 1.14zM542.188 140v-1.363h-.195a4.643 4.643 0 01-.758-.07 2.482 2.482 0 01-.62-.195 2.725 2.725 0 01-.716-.48 3.246 3.246 0 01-.497-.598 3.881 3.881 0 01-.341-.661 12.61 12.61 0 01-.247-.675 5.431 5.431 0 00-.504-1.06 8.138 8.138 0 00-.752-1.037 9.893 9.893 0 00-.953-.974c-.35-.313-.72-.606-1.11-.88l5.51-2.324-.522-1.266-6.24 2.686-.187 1.537c.185.144.403.315.654.515a17.59 17.59 0 011.561 1.412c.258.264.484.531.679.8.194.269.34.523.438.762.097.239.146.455.146.65 0 .051-.002.102-.007.153a1.193 1.193 0 01-.33.682c-.193.209-.493.39-.901.543-.311.12-.763.216-1.357.288-.593.072-1.363.129-2.31.17a8.51 8.51 0 01-.89-.014 11.983 11.983 0 01-2.003-.32 8.132 8.132 0 01-.912-.284 3.558 3.558 0 01-.716-.362c-.2-.135-.336-.278-.41-.432a1.06 1.06 0 01-.105-.48v-.062c.01-.2.049-.406.118-.62.07-.213.16-.421.268-.625a4.99 4.99 0 01.338-.55l-1.1-.82a1.97 1.97 0 00-.08.124l-.146.247a7.279 7.279 0 00-.4.81c-.204.465-.316.815-.337 1.051-.021.237-.031.4-.031.487 0 .283.041.543.125.78.106.31.275.586.504.827.23.241.502.454.818.637.315.183.666.337 1.053.462a9.73 9.73 0 001.218.306c.424.08.859.136 1.304.17.445.036.886.053 1.322.053.82 0 1.539-.022 2.153-.066a8.473 8.473 0 001.61-.254c.46-.125.854-.301 1.183-.529.33-.227.617-.524.863-.89a3.897 3.897 0 001.572 1.297c.635.29 1.335.437 2.1.442h.14zm-24.014-7.59l1.134-1.133-1.141-1.141-1.134 1.134 1.14 1.14zM517.06 140c.38 0 .734-.026 1.06-.077.328-.05.623-.139.888-.264.264-.125.497-.292.699-.5.202-.21.372-.471.511-.787.14-.32.209-.69.209-1.113 0-.074-.002-.148-.007-.222-.033-.515-.153-1.109-.362-1.781a9.033 9.033 0 00-.222-.644 14.061 14.061 0 00-.383-.897 1.713 1.713 0 01-.063-.143l-1.238.612.605 1.489c.098.237.172.463.223.678.05.216.081.385.09.508.01.123.014.215.014.275 0 .111-.007.216-.02.313a1.35 1.35 0 01-.105.369 1.245 1.245 0 01-.348.455c-.139.11-.301.192-.487.247-.185.056-.392.09-.619.101a14.68 14.68 0 01-.744.018h-.807V140h1.106zm-7.36 4.883a8.524 8.524 0 001.965-.556 7.19 7.19 0 001.725-1.016 6.198 6.198 0 001.322-1.45 5.255 5.255 0 00.755-1.861h.765v-1.363h-.66a6.622 6.622 0 00-.376-2.02 5.342 5.342 0 00-.404-.881 4.395 4.395 0 00-.529-.738c-.552-.593-1.157-.89-1.815-.89a1.77 1.77 0 00-.86.226 2.61 2.61 0 00-.768.664c-.195.25-.364.549-.508.894a3.926 3.926 0 00-.275.925c-.04.272-.059.495-.059.672 0 .185.016.37.049.556.055.353.19.663.403.932.483.599 1.227.928 2.233.988.255.023.484.035.686.035h.79c-.052.348-.194.701-.429 1.06-.234.36-.553.7-.956 1.02-.404.32-.888.608-1.454.863a8.976 8.976 0 01-1.92.598l.32 1.342zm3.755-6.26h-.047c-.204 0-.422-.007-.654-.021a3.506 3.506 0 01-.296-.032 2.472 2.472 0 01-.348-.076 1.635 1.635 0 01-.334-.14.819.819 0 01-.26-.225.651.651 0 01-.143-.33 2.434 2.434 0 01-.024-.31c0-.102.007-.207.02-.313a3.16 3.16 0 01.133-.595c.065-.202.145-.384.24-.546.095-.163.203-.296.323-.4a.577.577 0 01.383-.157c.083 0 .162.014.236.042.074.028.145.064.212.108.068.044.13.093.188.146.058.053.11.103.157.15.116.134.228.293.337.476.11.183.208.388.296.616.088.227.16.473.215.737.056.264.09.545.105.842-.181.014-.345.022-.49.024l-.296.004h.047zm-6.322 1.37a1.253 1.253 0 00.803-.292c.11-.093.199-.202.268-.327a.957.957 0 00.118-.41v-.056a.926.926 0 00-.132-.494 1.038 1.038 0 00-.39-.362c-.157-.083-.284-.126-.382-.129l-.16-.003a.936.936 0 00-.487.132c0-.668.438-1.32 1.315-1.955l-.337-.27a5.811 5.811 0 00-.296-.224c-1.104.784-1.656 1.721-1.656 2.81 0 .21.03.409.087.6.058.19.143.357.254.504.111.146.25.262.418.347.166.086.359.129.577.129zm-11.569 0c.278 0 .558-.02.838-.063.281-.041.551-.109.81-.201.26-.093.503-.212.728-.359.225-.146.42-.32.588-.525a1.685 1.685 0 00.362-.737c.037-.162.056-.348.059-.557a3.214 3.214 0 00-.08-.702 5.056 5.056 0 00-.317-.908 7.36 7.36 0 00-.508-.932 9.21 9.21 0 00-1.408-1.708 7.958 7.958 0 00-.81-.675 4.88 4.88 0 00-.825-.487l-.564 1.266c.209.093.422.218.64.376.218.158.433.338.644.542.21.205.414.424.608.658.195.234.373.475.533.723.16.248.296.497.41.745.114.248.196.485.247.713.037.167.056.31.056.431 0 .167-.035.292-.105.376-.157.19-.352.331-.584.424-.232.093-.44.147-.626.164a3.996 3.996 0 01-.96-.01 5.912 5.912 0 01-1.621-.443 4.229 4.229 0 01-.62-.323l-.57 1.308c.116.106.3.213.55.32a8.429 8.429 0 001.736.504c.303.053.567.08.79.08zm-6.184-6.233l1.134-1.134-1.141-1.14-1.134 1.133 1.14 1.141zm-3.04 11.22c.39-.19.773-.404 1.151-.643.378-.238.738-.5 1.078-.782a9.21 9.21 0 00.947-.905c.29-.32.54-.656.75-1.008.212-.353.376-.718.495-1.096.118-.378.177-.769.177-1.172 0-.204-.016-.413-.049-.626a9.948 9.948 0 00-.121-.65 19.8 19.8 0 00-.16-.668 95.332 95.332 0 01-.17-.672 10.346 10.346 0 00-.175-.636c-.065-.211-.13-.426-.194-.644l-1.322.418c.125.39.243.779.355 1.168.05.19.104.385.16.585.055.2.106.399.153.598.046.2.084.394.114.584.03.19.046.371.046.543 0 .45-.11.886-.327 1.308-.218.422-.507.82-.866 1.196-.36.376-.77.723-1.228 1.04-.46.318-.932.597-1.42.839l.606 1.224zm-3.757-4.987c.279 0 .558-.02.839-.063.28-.041.55-.109.81-.201.26-.093.502-.212.727-.359.225-.146.42-.32.588-.525a1.685 1.685 0 00.362-.737c.037-.162.056-.348.059-.557a3.214 3.214 0 00-.08-.702 5.056 5.056 0 00-.317-.908 7.36 7.36 0 00-.508-.932 9.21 9.21 0 00-1.408-1.708 7.958 7.958 0 00-.81-.675 4.88 4.88 0 00-.825-.487l-.564 1.266c.21.093.422.218.64.376.218.158.433.338.644.542.21.205.414.424.609.658.194.234.372.475.532.723.16.248.297.497.41.745.114.248.196.485.247.713.037.167.056.31.056.431 0 .167-.035.292-.105.376-.157.19-.352.331-.584.424-.232.093-.44.147-.626.164a3.996 3.996 0 01-.96-.01 5.912 5.912 0 01-1.62-.443 4.229 4.229 0 01-.62-.323l-.57 1.308c.116.106.299.213.55.32a8.429 8.429 0 001.736.504c.303.053.566.08.788.08zm-10.17-9.92l5.593-2.365-.327-.703-5.217 2.178-.05.89zm1.51 9.927c.24 0 .442-.016.605-.049.983-.18 1.68-.637 2.094-1.37.097-.176.182-.371.254-.584.071-.214.115-.405.132-.574.016-.17.024-.303.024-.4a3.57 3.57 0 00-.042-.53 4.165 4.165 0 00-.25-.903 5.846 5.846 0 00-.529-1.013 8.611 8.611 0 00-.87-1.116 10.845 10.845 0 00-.8-.8c-.268-.241-.516-.46-.744-.654l4.981-2.094-.536-1.266-5.718 2.449-.16 1.426c.38.306.754.635 1.12.988.367.352.698.696.995 1.033.297.336.546.651.748.946.202.294.328.537.379.727.065.25.097.484.097.702a1.71 1.71 0 01-.278.946c-.13.195-.308.345-.536.449-.227.104-.477.18-.75.23a5.667 5.667 0 01-.863.083c-.302.007-.592.01-.87.01h-.87V140h2.386zm-7.277 0c.436 0 .815-.017 1.137-.052.323-.035.604-.088.846-.16a2.598 2.598 0 001.113-.65c.199.254.454.462.765.622.31.16.7.24 1.169.24h.139v-1.363h-.14c-.236 0-.43-.054-.58-.16a1.141 1.141 0 01-.355-.404 1.905 1.905 0 01-.184-.529 4.913 4.913 0 01-.077-.542 21.338 21.338 0 00-.125-1.204 6.535 6.535 0 00-.202-.946l-1.308.369c.102.352.173.665.212.939.04.274.06.543.06.807 0 .278-.047.522-.14.73a1.256 1.256 0 01-.434.522c-.197.14-.453.244-.766.313-.313.07-.69.105-1.13.105h-1.037V140h1.037zm.257 3.402l1.127-1.127-1.14-1.141-1.128 1.134 1.141 1.134zm2.853.014l1.126-1.134-1.14-1.134-1.127 1.127 1.14 1.14zm-9.934 1.718a12.712 12.712 0 001.704-1.03 9.084 9.084 0 001.471-1.304 6.295 6.295 0 001.033-1.54c.26-.553.39-1.132.39-1.74v-.028c.116.125.238.223.365.292a1.686 1.686 0 00.713.209c.102.005.186.007.25.007h.119v-1.363h-.111c-.232 0-.445-.056-.637-.167a1.88 1.88 0 01-.553-.526 4.913 4.913 0 01-.515-.925 15.038 15.038 0 01-.515-1.374l-1.307.404c.055.171.122.386.201.643.08.258.158.532.237.825.079.292.152.59.219.893.067.304.117.588.15.853a2.596 2.596 0 01-.077.94c-.083.31-.21.609-.38.896-.168.288-.376.562-.622.824a8.04 8.04 0 01-.807.748 9.486 9.486 0 01-.932.665c-.33.206-.66.395-.995.567l.599 1.23zm-1.454-5.141a1.253 1.253 0 00.803-.292c.11-.093.198-.202.268-.327a.957.957 0 00.118-.41v-.056a.926.926 0 00-.132-.494 1.038 1.038 0 00-.39-.362c-.157-.083-.285-.126-.382-.129l-.16-.003a.936.936 0 00-.487.132c0-.668.438-1.32 1.315-1.955l-.338-.27a5.811 5.811 0 00-.295-.224c-1.104.784-1.656 1.721-1.656 2.81 0 .21.029.409.087.6.058.19.143.357.254.504.111.146.25.262.417.347.167.086.36.129.578.129zm-10.936.09c.431 0 .81-.06 1.134-.18.334-.121.612-.295.835-.522.222-.227.39-.502.5-.824a3.3 3.3 0 00.168-1.082c0-.265-.025-.536-.073-.814a7.696 7.696 0 00-.188-.814 12.239 12.239 0 00-.86-2.17l-1.217.64a12.273 12.273 0 01.588 1.422c.1.295.186.595.257.901.072.306.108.591.108.856a2 2 0 01-.07.55.93.93 0 01-.225.403.764.764 0 01-.355.212 1.566 1.566 0 01-.4.052c-.08 0-.163-.005-.25-.014a.65.65 0 01-.352-.136.847.847 0 01-.23-.292 1.47 1.47 0 01-.125-.41 3.026 3.026 0 01-.038-.49c0-.19.014-.408.042-.651.028-.243.059-.473.094-.689l.05-.3.044-.253.034-.222-1.335-.244c-.028.19-.066.414-.115.671a9.558 9.558 0 01-.188.797 7.21 7.21 0 01-.278.807c-.11.264-.237.5-.383.71a2.008 2.008 0 01-.5.507c-.188.13-.4.195-.637.195a.735.735 0 01-.369-.083.622.622 0 01-.23-.223.974.974 0 01-.118-.316 1.894 1.894 0 01-.034-.366c0-.18.018-.377.055-.588.037-.21.081-.417.132-.619a12.768 12.768 0 01.293-.998l-1.378-.292c-.046.227-.102.468-.167.723a7.783 7.783 0 01-.236.762 5.556 5.556 0 01-.327.727 2.873 2.873 0 01-.442.616c-.17.178-.363.322-.58.431a1.626 1.626 0 01-.738.164h-.153V140h.146c.269 0 .516-.022.74-.066a2.704 2.704 0 001.13-.494c.159-.118.307-.252.446-.4.074.172.18.322.317.452s.288.239.455.327c.167.088.342.154.526.198.183.044.36.066.532.066.394 0 .767-.095 1.12-.285.352-.19.668-.447.946-.772.097.148.216.286.355.414.139.128.29.239.452.334.162.095.333.17.511.226.179.056.356.083.532.083h.049zm-10.95-6.497l1.134-1.134-1.14-1.14-1.134 1.133 1.14 1.141zM434.53 140c.681 0 1.254-.07 1.718-.212.464-.142.842-.358 1.134-.65.2.254.454.462.765.622.31.16.7.24 1.169.24h.139v-1.363h-.14c-.236 0-.43-.054-.58-.16a1.141 1.141 0 01-.355-.404 1.905 1.905 0 01-.184-.529 4.913 4.913 0 01-.077-.542 21.335 21.335 0 00-.125-1.204 6.534 6.534 0 00-.202-.946l-1.308.369c.103.352.173.665.213.939.04.274.059.543.059.807 0 .552-.176.968-.529 1.249-.352.28-.918.42-1.697.42h-.258V140h.258zm-8.752.02c.228 0 .444-.033.65-.1.207-.067.402-.162.585-.285.183-.123.353-.267.508-.432.155-.164.296-.344.42-.539.172.413.432.739.78.978.348.239.754.358 1.217.358.237 0 .46-.035.668-.104a2.24 2.24 0 001.058-.745c.139-.176.255-.373.347-.591.121.223.267.422.439.598.171.176.36.327.567.452.206.126.425.222.657.29.232.066.468.1.71.1h.167v-1.363h-.167c-.334 0-.637-.14-.908-.421-.272-.28-.5-.706-.685-1.277a5.48 5.48 0 01-.164-.591 9.327 9.327 0 01-.16-1.012l-.045-.463-1.364.111c.01.167.018.341.025.522a12.38 12.38 0 01.003.863 7.77 7.77 0 01-.07.803 3.115 3.115 0 01-.184.724c-.085.215-.2.39-.344.521a.78.78 0 01-.55.199c-.231 0-.415-.063-.55-.188a1.1 1.1 0 01-.295-.487c-.062-.2-.097-.38-.104-.543a5.315 5.315 0 01.017-.897c.019-.255.047-.499.084-.73.037-.232.067-.43.09-.592l-1.356-.257c-.024.213-.057.453-.101.72a8.21 8.21 0 01-.442 1.617 3.239 3.239 0 01-.369.703c-.143.204-.31.368-.497.494-.188.125-.4.187-.637.187-.19 0-.335-.064-.434-.194a.958.958 0 01-.188-.449 3.207 3.207 0 01-.032-.74c.014-.251.041-.498.08-.742a19.328 19.328 0 01.233-1.165l-1.335-.369c-.028.112-.058.244-.09.397a7.058 7.058 0 01-.13.504 9.976 9.976 0 01-.19.585 5.791 5.791 0 01-.272.63c-.102.19-.22.376-.355.56a3.353 3.353 0 01-.441.493c-.16.146-.332.263-.515.351a1.294 1.294 0 01-.567.133h-.146V140h.146a2.578 2.578 0 001.37-.38c.195-.117.374-.26.536-.427.162-.167.315-.352.46-.556a1.903 1.903 0 001.24 1.286c.203.065.412.098.63.098zm-10.636 4.863a8.524 8.524 0 001.965-.556 7.19 7.19 0 001.725-1.016 6.198 6.198 0 001.322-1.45 5.255 5.255 0 00.755-1.861h.765v-1.363h-.66a6.622 6.622 0 00-.376-2.02 5.342 5.342 0 00-.404-.881 4.395 4.395 0 00-.529-.738c-.552-.593-1.157-.89-1.815-.89a1.77 1.77 0 00-.86.226 2.61 2.61 0 00-.768.664c-.195.25-.364.549-.508.894a3.926 3.926 0 00-.275.925c-.04.272-.059.495-.059.672 0 .185.016.37.049.556.055.353.19.663.403.932.483.599 1.227.928 2.233.988.255.023.484.035.686.035h.79c-.052.348-.194.701-.429 1.06-.234.36-.553.7-.956 1.02-.404.32-.888.608-1.454.863a8.976 8.976 0 01-1.92.598l.32 1.342zm3.755-6.26h-.047c-.204 0-.422-.007-.654-.021a3.506 3.506 0 01-.296-.032 2.472 2.472 0 01-.348-.076 1.635 1.635 0 01-.334-.14.819.819 0 01-.26-.225.651.651 0 01-.143-.33 2.434 2.434 0 01-.024-.31c0-.102.007-.207.02-.313a3.16 3.16 0 01.133-.595c.065-.202.145-.384.24-.546.095-.163.203-.296.323-.4a.577.577 0 01.383-.157c.083 0 .162.014.236.042.074.028.145.064.212.108.068.044.13.093.188.146.058.053.11.103.157.15.116.134.228.293.337.476.11.183.208.388.296.616.088.227.16.473.215.737.056.264.09.545.105.842-.181.014-.345.022-.49.024l-.296.004h.047zm-10.05 6.358c.389-.19.773-.405 1.15-.644.378-.238.738-.5 1.079-.782a9.21 9.21 0 00.946-.905c.29-.32.54-.656.751-1.008.211-.353.376-.718.494-1.096.118-.378.177-.769.177-1.172 0-.204-.016-.413-.048-.626a9.948 9.948 0 00-.122-.65c-.049-.22-.102-.444-.16-.668a95.332 95.332 0 01-.17-.672 10.346 10.346 0 00-.174-.636c-.065-.211-.13-.426-.195-.644l-1.322.418c.125.39.244.779.355 1.168.051.19.104.385.16.585.056.2.107.399.153.598.046.2.085.394.115.584.03.19.045.371.045.543 0 .45-.109.886-.327 1.308-.218.422-.507.82-.866 1.196-.36.376-.769.723-1.228 1.04-.459.318-.932.597-1.419.839l.605 1.224zm-8.599-4.988c.278 0 .558-.02.838-.063.28-.041.55-.109.81-.201.26-.093.503-.212.728-.359.225-.146.42-.32.587-.525a1.685 1.685 0 00.362-.737c.037-.162.057-.348.06-.557a3.214 3.214 0 00-.08-.702 5.056 5.056 0 00-.317-.908 7.36 7.36 0 00-.508-.932 9.21 9.21 0 00-1.409-1.708 7.958 7.958 0 00-.81-.675 4.88 4.88 0 00-.825-.487l-.563 1.266c.209.093.422.218.64.376.218.158.432.338.643.542.211.205.414.424.61.658.194.234.371.475.531.723.16.248.297.497.41.745.114.248.197.485.248.713.037.167.055.31.055.431 0 .167-.034.292-.104.376-.158.19-.352.331-.584.424-.232.093-.44.147-.626.164a3.996 3.996 0 01-.96-.01 5.912 5.912 0 01-1.621-.443 4.229 4.229 0 01-.62-.323l-.57 1.308c.116.106.3.213.55.32a8.429 8.429 0 001.736.504c.303.053.566.08.789.08zm-6.685-7.583l1.134-1.133-1.141-1.141-1.134 1.134 1.14 1.14zm-1.113 7.59c.38 0 .734-.026 1.06-.077.328-.05.623-.139.888-.264.264-.125.497-.292.699-.5.201-.21.372-.471.511-.787.14-.32.209-.69.209-1.113 0-.074-.003-.148-.007-.222-.033-.515-.153-1.109-.362-1.781a9.034 9.034 0 00-.223-.644 14.061 14.061 0 00-.382-.897 1.713 1.713 0 01-.063-.143l-1.238.612.605 1.489c.097.237.172.463.223.678.05.216.08.385.09.508.01.123.014.215.014.275 0 .111-.007.216-.02.313a1.35 1.35 0 01-.105.369 1.245 1.245 0 01-.348.455c-.14.11-.301.192-.487.247-.185.056-.392.09-.62.101a14.68 14.68 0 01-.743.018h-.807V140h1.106zm-.828 0v-1.363h-.14c-.278 0-.507-.036-.688-.108a1.244 1.244 0 01-.452-.3 1.755 1.755 0 01-.31-.466 15.476 15.476 0 01-.268-.608c-.18-.422-.35-.827-.51-1.214a3910.464 3910.464 0 01-1.618-3.927l-1.266.529 2.198 5.287a2.64 2.64 0 01-.925.584c-.25.097-.463.154-.637.17a4.617 4.617 0 01-.393.025c-.185 0-.37-.021-.556-.063a3.191 3.191 0 01-.842-.32 4.114 4.114 0 01-.842-.619l-.786 1.106c.394.408.824.725 1.29.95a3.45 3.45 0 001.52.337c.33 0 .627-.02.891-.06.264-.039.509-.097.734-.173.225-.077.436-.173.633-.289.197-.116.393-.25.588-.403a2.4 2.4 0 00.348.358c.134.114.29.212.47.296.178.083.384.15.618.198.234.049.502.073.804.073h.139zm-12.431 0c.083 0 .186-.003.31-.01.122-.007.253-.024.392-.05.14-.025.285-.06.438-.103.153-.045.304-.104.453-.178.408-.2.717-.475.928-.828.211-.352.317-.767.317-1.245 0-.478-.14-.997-.418-1.558-.278-.561-.702-1.167-1.273-1.816a13.94 13.94 0 00-.584-.615c-.19-.188-.36-.352-.511-.49-.151-.14-.273-.249-.365-.328a1.407 1.407 0 01-.147-.132l-.876 1.064c0 .005.042.042.125.112.084.07.195.167.334.292a9.895 9.895 0 00-.814.848c-.756.91-1.134 1.784-1.134 2.623 0 .478.114.892.341 1.242.227.35.564.63 1.009.838.171.084.34.148.508.195.167.046.318.08.455.1a2.818 2.818 0 00.452.038l.06.001zm.05-1.385h-.05a2.245 2.245 0 01-.362-.034 2.836 2.836 0 01-.258-.06 1.662 1.662 0 01-.27-.1 1.07 1.07 0 01-.3-.188.867.867 0 01-.17-.212.669.669 0 01-.077-.22 1.397 1.397 0 01-.017-.215c0-.236.054-.475.163-.716a4.18 4.18 0 01.4-.696c.158-.223.326-.427.504-.612.179-.186.336-.339.47-.46.45.488.793.947 1.03 1.378.236.431.354.8.354 1.106 0 .209-.038.38-.114.511a.918.918 0 01-.373.338c-.088.042-.18.074-.278.097-.097.023-.19.042-.278.056-.088.014-.17.022-.244.024a6.035 6.035 0 01-.18.004h.05zM362.919 140l1.656-.014c.733 0 1.384-.017 1.955-.052.57-.035 1.077-.081 1.52-.14a15.582 15.582 0 002.048-.4l-.167-1.321-.51.104a8.2 8.2 0 01-.488.084 14.261 14.261 0 01-1.27.118c-.25 0-.491-.035-.723-.104a2.247 2.247 0 01-.748-.376 1.937 1.937 0 01-.518-.605 1.62 1.62 0 01-.195-.793c0-.213.035-.419.105-.616.07-.197.172-.372.31-.525.136-.153.306-.275.51-.365.205-.09.441-.136.71-.136.237 0 .45.024.64.073.19.049.365.116.525.202.16.086.31.185.449.299.14.114.28.235.424.365l.856-1.05a17.654 17.654 0 00-.62-.487 4.226 4.226 0 00-.646-.4 3.52 3.52 0 00-1.628-.365c-.431 0-.829.08-1.193.24a2.971 2.971 0 00-1.58 1.607c-.15.364-.225.75-.225 1.158 0 .417.068.798.205 1.14.137.344.374.669.713.975l-2.115.02V140zm-4.807-7.812l1.127-1.127-1.14-1.141-1.128 1.134 1.141 1.134zm2.852.014l1.127-1.134-1.14-1.134-1.127 1.127 1.14 1.14zm-4.87 7.798c.71 0 1.378-.04 2.004-.122.626-.08 1.157-.205 1.593-.372a9.153 9.153 0 001.65.38c.565.076 1.138.114 1.717.114h.14v-1.363h-.133c-.148 0-.303-.005-.466-.014a16.347 16.347 0 01-.95-.084 4.385 4.385 0 01-.413-.07c.25-.273.442-.585.574-.935.132-.35.203-.628.212-.835.01-.206.014-.33.014-.372 0-.32-.042-.633-.125-.94a2.852 2.852 0 00-.456-.938 2.47 2.47 0 00-.776-.682 2.385 2.385 0 00-1.085-.292h-.076c-.311 0-.615.079-.912.236a2.694 2.694 0 00-.862.738c-.25.32-.442.672-.574 1.057a3.766 3.766 0 00-.199 1.231c0 .668.302 1.266.905 1.795-.209.023-.47.047-.786.07-.316.023-.647.035-.995.035h-.14V140h.14zm3.549-1.99a2.078 2.078 0 01-.95-.553 1.498 1.498 0 01-.264-.365.796.796 0 01-.094-.355c0-.283.04-.541.122-.775.08-.234.184-.434.31-.599a1.53 1.53 0 01.406-.382.784.784 0 01.407-.136c.153 0 .3.062.438.185.14.122.257.28.352.473.095.192.156.374.184.546.028.171.042.31.042.417 0 .13-.014.26-.042.39a1.68 1.68 0 01-.289.66 1.547 1.547 0 01-.622.494zm-12.515 2.01c2.639 0 4.57-.64 5.795-1.92.102.284.246.537.431.76.58.746 1.473 1.126 2.678 1.14h.195v-1.363h-.174c-.756-.005-1.296-.214-1.62-.627a1.391 1.391 0 01-.293-.584 3.455 3.455 0 01-.09-.626v-.056c0-.074.007-.162.02-.264a5.796 5.796 0 01.136-.748 10.8 10.8 0 01.08-.31l-1.322-.361c-.06.209-.128.422-.205.64-.076.218-.169.433-.278.647-.109.213-.24.42-.393.619-.153.2-.336.383-.55.55-.477.39-1.076.673-1.794.852-.72.178-1.591.268-2.616.268-1.146-.005-2.077-.126-2.793-.362-.717-.237-1.214-.594-1.492-1.072a1.688 1.688 0 01-.223-.573 3.027 3.027 0 01-.049-.512c0-.06.003-.118.007-.174a2.93 2.93 0 01.087-.598 5.86 5.86 0 01.15-.5c.05-.145.097-.26.139-.349a1.61 1.61 0 00.063-.139l-1.204-.66c-.023.032-.09.177-.198.434a8.029 8.029 0 00-.337 1.047c-.056.209-.09.4-.105.574a4.626 4.626 0 00-.007.79c.019.24.064.482.136.723.072.241.175.475.31.703.417.705 1.088 1.22 2.013 1.548.926.326 2.093.495 3.503.504zm.216 3.604l1.134-1.134-1.141-1.14-1.134 1.133 1.14 1.141zm-9.065-3.631a1.253 1.253 0 00.804-.292c.109-.093.198-.202.268-.327a.957.957 0 00.118-.41v-.056a.926.926 0 00-.132-.494 1.038 1.038 0 00-.39-.362c-.158-.083-.285-.126-.383-.129l-.16-.003a.936.936 0 00-.486.132c0-.668.438-1.32 1.314-1.955a92.96 92.96 0 00-.337-.27 5.811 5.811 0 00-.296-.224c-1.104.784-1.655 1.721-1.655 2.81 0 .21.029.409.087.6.058.19.142.357.253.504.112.146.25.262.418.347.167.086.36.129.577.129zm-10.935.09c.43 0 .809-.06 1.134-.18.333-.121.612-.295.834-.522.223-.227.39-.502.501-.824a3.3 3.3 0 00.167-1.082c0-.265-.024-.536-.073-.814a7.696 7.696 0 00-.188-.814 12.239 12.239 0 00-.859-2.17l-1.217.64a12.273 12.273 0 01.588 1.422c.1.295.185.595.257.901.072.306.108.591.108.856a2 2 0 01-.07.55.93.93 0 01-.226.403.764.764 0 01-.355.212 1.566 1.566 0 01-.4.052c-.078 0-.162-.005-.25-.014a.65.65 0 01-.351-.136.847.847 0 01-.23-.292 1.47 1.47 0 01-.125-.41 3.026 3.026 0 01-.038-.49c0-.19.013-.408.041-.651.028-.243.06-.473.094-.689.035-.215.066-.4.094-.553l.035-.222-1.336-.244c-.028.19-.066.414-.115.671a9.557 9.557 0 01-.187.797 7.21 7.21 0 01-.279.807c-.109.264-.236.5-.382.71a2.008 2.008 0 01-.501.507c-.188.13-.4.195-.637.195a.735.735 0 01-.368-.083.622.622 0 01-.23-.223.974.974 0 01-.118-.316 1.894 1.894 0 01-.035-.366c0-.18.019-.377.056-.588.037-.21.08-.417.132-.619a12.77 12.77 0 01.292-.998l-1.377-.292c-.047.227-.102.468-.167.723a7.783 7.783 0 01-.237.762 5.556 5.556 0 01-.327.727 2.873 2.873 0 01-.441.616c-.17.178-.363.322-.581.431a1.626 1.626 0 01-.738.164h-.153V140h.146c.27 0 .516-.022.741-.066a2.704 2.704 0 001.13-.494c.158-.118.307-.252.446-.4.074.172.18.322.316.452.137.13.289.239.456.327.167.088.342.154.525.198.183.044.36.066.532.066.395 0 .768-.095 1.12-.285.353-.19.668-.447.946-.772.098.148.216.286.355.414.14.128.29.239.452.334.163.095.333.17.512.226.178.056.356.083.532.083h.049zM314.195 140c.436 0 .815-.017 1.137-.052.322-.035.604-.088.845-.16a2.598 2.598 0 001.113-.65c.2.254.455.462.766.622.31.16.7.24 1.168.24h.14v-1.363h-.14c-.236 0-.43-.054-.58-.16a1.141 1.141 0 01-.355-.404 1.905 1.905 0 01-.185-.529 4.913 4.913 0 01-.076-.542 21.338 21.338 0 00-.125-1.204 6.535 6.535 0 00-.202-.946l-1.308.369c.102.352.173.665.212.939.04.274.06.543.06.807 0 .278-.047.522-.14.73a1.256 1.256 0 01-.435.522c-.197.14-.452.244-.765.313-.313.07-.69.105-1.13.105h-1.037V140h1.037zm.257 3.402l1.127-1.127-1.14-1.141-1.128 1.134 1.141 1.134zm2.852.014l1.127-1.134-1.14-1.134-1.128 1.127 1.141 1.14zm-12.64-3.395c.228 0 .444-.034.65-.101.207-.067.402-.162.585-.285.183-.123.353-.267.508-.432.155-.164.296-.344.42-.539.172.413.432.739.78.978.348.239.754.358 1.217.358.237 0 .46-.035.668-.104a2.24 2.24 0 001.058-.745c.139-.176.255-.373.347-.591.121.223.267.422.439.598.171.176.36.327.567.452.206.126.425.222.657.29.232.066.468.1.71.1h.167v-1.363h-.167c-.334 0-.637-.14-.908-.421-.272-.28-.5-.706-.685-1.277a5.481 5.481 0 01-.164-.591 9.327 9.327 0 01-.16-1.012l-.045-.463-1.364.111c.01.167.018.341.025.522a12.381 12.381 0 01.003.863 7.77 7.77 0 01-.07.803 3.115 3.115 0 01-.184.724c-.086.215-.2.39-.344.521a.78.78 0 01-.55.199c-.232 0-.415-.063-.55-.188a1.1 1.1 0 01-.295-.487c-.062-.2-.097-.38-.104-.543a5.315 5.315 0 01.017-.897c.019-.255.047-.499.084-.73.037-.232.067-.43.09-.592l-1.356-.257c-.024.213-.057.453-.101.72a8.21 8.21 0 01-.442 1.617 3.239 3.239 0 01-.369.703c-.144.204-.31.368-.497.494-.188.125-.4.187-.637.187-.19 0-.335-.064-.434-.194a.958.958 0 01-.188-.449 3.207 3.207 0 01-.032-.74c.014-.251.041-.498.08-.742a19.328 19.328 0 01.233-1.165l-1.335-.369c-.028.112-.058.244-.09.397a7.058 7.058 0 01-.13.504 9.977 9.977 0 01-.19.585 5.791 5.791 0 01-.272.63c-.102.19-.22.376-.355.56a3.353 3.353 0 01-.441.493c-.16.146-.332.263-.515.351a1.294 1.294 0 01-.567.133h-.146V140h.146a2.578 2.578 0 001.37-.38c.195-.117.374-.26.536-.427.162-.167.315-.352.459-.556a1.903 1.903 0 001.242 1.286c.202.065.411.098.63.098zm-8.487-6.609l1.127-1.127-1.14-1.14-1.127 1.133 1.14 1.134zm2.853.014l1.127-1.134-1.141-1.134-1.127 1.127 1.14 1.141zM295.39 140c.436 0 .815-.017 1.138-.052.322-.035.604-.088.845-.16a2.598 2.598 0 001.113-.65c.2.254.454.462.765.622.31.16.7.24 1.169.24h.139v-1.363h-.14c-.236 0-.43-.054-.58-.16a1.141 1.141 0 01-.355-.404 1.905 1.905 0 01-.184-.529 4.913 4.913 0 01-.077-.542 21.335 21.335 0 00-.125-1.204 6.534 6.534 0 00-.202-.946l-1.307.369c.102.352.172.665.212.939.04.274.059.543.059.807 0 .278-.047.522-.14.73a1.256 1.256 0 01-.434.522c-.197.14-.452.244-.765.313-.313.07-.69.105-1.13.105h-1.037V140h1.036zm-7.207 5.224a2252.857 2252.857 0 01-.233-6.365l-.003-.243c0-.033.002-.054.007-.063l1.711.633c.334.135.63.252.887.351.257.1.488.181.692.244.204.062.368.103.49.122.124.018.224.027.303.027.065 0 .125-.004.181-.013.176-.051.335-.126.477-.223.141-.097.27-.213.386-.348.171.204.381.363.63.477.247.113.508.172.782.177h.139v-1.363h-.14a.46.46 0 01-.316-.122 1.105 1.105 0 01-.23-.292 1.733 1.733 0 01-.145-.348 3.475 3.475 0 01-.073-.282 3.937 3.937 0 000-.66 4.186 4.186 0 00-.105-.64 3.612 3.612 0 00-.198-.592 2.502 2.502 0 00-.289-.501 2.231 2.231 0 00-.793-.664 2.497 2.497 0 00-1.022-.247h-.077c-.222 0-.429.037-.619.111-.218.088-.42.206-.609.355a2.99 2.99 0 00-.514.525 5.623 5.623 0 00-.425.637 7.22 7.22 0 00-.344.681c-.102.232-.19.452-.264.661a1.74 1.74 0 00-.373-.073 7.076 7.076 0 00-.163-.003 1.88 1.88 0 00-.292.02c-.112.024-.21.057-.296.101-.086.044-.159.09-.219.136a1.203 1.203 0 00-.34.383c-.08.143-.135.28-.168.41-.032.13-.05.246-.052.348l-.004.195.258 6.448h1.363zm3.952-6.63a4.906 4.906 0 01-.751-.216 63.594 63.594 0 01-.568-.211c-.201-.077-.409-.161-.622-.254l-.438-.18c.05-.13.107-.273.17-.429.063-.155.136-.31.22-.462.194-.376.389-.667.583-.873.195-.207.371-.31.53-.31h.013c.051 0 .122.007.212.021.09.014.187.053.289.118.102.065.203.164.303.296.1.132.184.316.253.553.042.134.068.26.077.38.01.117.014.207.014.267 0 .12-.007.241-.021.362a3.3 3.3 0 01-.094.525c-.044.165-.1.302-.17.414zm-17.705 1.545c.367 0 .762-.013 1.186-.038a9.56 9.56 0 001.273-.164c.425-.083.834-.2 1.228-.35.394-.152.746-.353 1.054-.606.309-.253.56-.562.755-.929.195-.366.301-.804.32-1.315v-.132c0-.278-.037-.542-.111-.793a2.637 2.637 0 00-1.009-1.37 3.118 3.118 0 00-.772-.397 2.71 2.71 0 00-.689-.163c-.18-.012-.299-.018-.355-.018-.26 0-.521.03-.786.09-.575.13-1.102.33-1.582.599-.48.269-.917.59-1.312.964-.394.373-.749.79-1.064 1.252a10.63 10.63 0 00-.835 1.457 2.046 2.046 0 01-.313-.682 2.943 2.943 0 01-.083-.688v-.049c0-.241.023-.475.07-.703.046-.227.097-.436.152-.626l-1.315-.396c-.06.18-.11.364-.153.55-.041.185-.08.377-.118.577-.074.352-.15.68-.23.98-.078.302-.199.564-.361.787-.051.07-.117.142-.198.219a1.281 1.281 0 01-.324.212c-.134.065-.299.12-.494.163a3.229 3.229 0 01-.702.067h-.16V140h.201c.64-.005 1.186-.102 1.639-.292.452-.19.824-.49 1.116-.898.255.33.517.584.786.762.27.179.561.31.877.393.315.084.662.134 1.04.15.378.016.8.024 1.27.024zm0-1.405h-.306a28.82 28.82 0 01-1.078-.042c.255-.464.517-.884.786-1.262s.553-.71.852-.995c.3-.285.62-.524.964-.717a4.046 4.046 0 011.113-.42 2.1 2.1 0 01.88 0c.155.032.307.082.455.149a1.297 1.297 0 01.671.66c.073.156.109.336.109.54v.028c0 .357-.098.658-.293.904-.2.25-.463.455-.793.612a4.53 4.53 0 01-1.123.355 9.72 9.72 0 01-1.197.153c-.378.023-.724.035-1.04.035zm-13.182 6.15a8.524 8.524 0 001.965-.557 7.19 7.19 0 001.725-1.016 6.198 6.198 0 001.322-1.45 5.255 5.255 0 00.755-1.861h.765v-1.363h-.661a6.622 6.622 0 00-.376-2.02 5.342 5.342 0 00-.403-.881 4.395 4.395 0 00-.529-.738c-.552-.593-1.157-.89-1.815-.89a1.77 1.77 0 00-.86.226 2.61 2.61 0 00-.768.664c-.195.25-.364.549-.508.894a3.926 3.926 0 00-.275.925c-.04.272-.059.495-.059.672 0 .185.016.37.049.556.055.353.19.663.403.932.482.599 1.227.928 2.233.988.255.023.484.035.685.035h.79c-.051.348-.194.701-.428 1.06-.234.36-.553.7-.956 1.02-.404.32-.889.608-1.454.863a8.976 8.976 0 01-1.92.598l.32 1.342zm3.755-6.262h-.047c-.205 0-.423-.006-.654-.02a3.506 3.506 0 01-.296-.032 2.472 2.472 0 01-.348-.076 1.635 1.635 0 01-.334-.14.819.819 0 01-.26-.225.651.651 0 01-.143-.33 2.434 2.434 0 01-.025-.31 3.16 3.16 0 01.153-.908c.065-.202.145-.384.24-.546.096-.163.203-.296.324-.4a.577.577 0 01.383-.157c.083 0 .162.014.236.042.074.028.145.064.212.108s.13.093.188.146c.058.053.11.103.157.15.116.134.228.293.337.476.109.183.207.388.296.616.088.227.16.473.215.737.056.264.09.545.105.842-.181.014-.345.022-.49.024l-.296.004h.047zm-8.799-6.295l1.127-1.127-1.14-1.14-1.128 1.133 1.141 1.134zm2.852.014l1.127-1.134-1.14-1.134-1.127 1.127 1.14 1.14zM256.024 140c.38 0 .748-.026 1.103-.077.355-.05.68-.139.977-.264.297-.125.56-.292.79-.5.23-.21.414-.471.553-.787.14-.32.209-.69.209-1.113 0-.074-.003-.148-.007-.222-.033-.515-.153-1.109-.362-1.781a9.034 9.034 0 00-.223-.644 14.061 14.061 0 00-.382-.897 1.713 1.713 0 01-.063-.143l-1.238.612.605 1.489c.097.237.172.463.223.678.05.216.08.385.09.508.01.123.014.215.014.275 0 .111-.007.216-.02.313a1.35 1.35 0 01-.105.369 1.089 1.089 0 01-.39.455c-.167.11-.36.192-.577.247-.218.056-.455.09-.71.101-.255.012-.517.018-.786.018h-1.342V140h1.641zm-7.659 4.536c.306 0 .65-.021 1.03-.063.38-.042.764-.111 1.151-.209a7.704 7.704 0 001.13-.379c.367-.155.694-.346.981-.574.288-.227.52-.494.696-.8a2.118 2.118 0 00.244-1.37 1.463 1.463 0 00-.112-.362 1.988 1.988 0 00-.233-.386 2.356 2.356 0 00-.386-.393h1.795v-1.363h-5.489l-.104 1.356.153.028a9.7 9.7 0 01.668.153c.139.037.288.079.448.125.16.047.322.098.484.153.264.098.487.195.668.292.18.098.328.19.441.275.114.086.196.167.247.244a.377.377 0 01.077.198.864.864 0 01-.233.598c-.155.172-.354.32-.595.445a4.37 4.37 0 01-.81.317 8.716 8.716 0 01-1.68.313c-.246.02-.436.031-.57.031-.233 0-.498-.004-.797-.014-.3-.009-.6-.046-.905-.111a3.453 3.453 0 01-.876-.317 1.949 1.949 0 01-.706-.63c-.292-.444-.439-1.024-.439-1.738 0-1.127.365-2.586 1.093-4.376l-1.273-.515c-.729 1.763-1.123 3.275-1.183 4.536a8.53 8.53 0 00-.007.34c0 1.017.225 1.854.675 2.512.213.362.488.653.824.873.336.22.703.39 1.1.512.396.12.81.2 1.241.24.431.039.849.059 1.252.059zm-7.478-4.543a1.253 1.253 0 00.803-.292c.11-.093.199-.202.268-.327a.957.957 0 00.119-.41v-.056a.926.926 0 00-.133-.494 1.038 1.038 0 00-.39-.362c-.157-.083-.284-.126-.382-.129l-.16-.003a.936.936 0 00-.487.132c0-.668.438-1.32 1.315-1.955l-.337-.27a5.811 5.811 0 00-.296-.224c-1.104.784-1.656 1.721-1.656 2.81 0 .21.03.409.087.6.058.19.143.357.254.504.111.146.25.262.418.347.167.086.359.129.577.129zm-10.936.09c.432 0 .81-.06 1.134-.18.334-.121.612-.295.835-.522.223-.227.39-.502.5-.824a3.3 3.3 0 00.168-1.082c0-.265-.025-.536-.073-.814a7.696 7.696 0 00-.188-.814 12.239 12.239 0 00-.86-2.17l-1.217.64a12.272 12.272 0 01.588 1.422c.1.295.186.595.258.901.072.306.107.591.107.856a2 2 0 01-.07.55.93.93 0 01-.225.403.764.764 0 01-.355.212 1.566 1.566 0 01-.4.052c-.079 0-.162-.005-.25-.014a.65.65 0 01-.352-.136.847.847 0 01-.23-.292 1.47 1.47 0 01-.124-.41 3.025 3.025 0 01-.039-.49c0-.19.014-.408.042-.651.028-.243.06-.473.094-.689l.05-.3.044-.253.035-.222-1.336-.244c-.028.19-.066.414-.115.671a9.558 9.558 0 01-.188.797 7.21 7.21 0 01-.278.807c-.109.264-.236.5-.383.71a2.008 2.008 0 01-.5.507c-.188.13-.4.195-.637.195a.735.735 0 01-.369-.083.622.622 0 01-.23-.223.974.974 0 01-.117-.316 1.894 1.894 0 01-.035-.366c0-.18.018-.377.055-.588.038-.21.082-.417.133-.619a12.77 12.77 0 01.292-.998l-1.378-.292c-.046.227-.102.468-.167.723a7.783 7.783 0 01-.236.762 5.556 5.556 0 01-.327.727 2.873 2.873 0 01-.442.616c-.17.178-.363.322-.58.431a1.626 1.626 0 01-.738.164h-.153V140h.146c.269 0 .516-.022.74-.066a2.704 2.704 0 001.13-.494c.159-.118.307-.252.447-.4.074.172.18.322.316.452.137.13.289.239.456.327.167.088.342.154.525.198.183.044.36.066.532.066.394 0 .768-.095 1.12-.285.353-.19.668-.447.946-.772.098.148.216.286.355.414.14.128.29.239.452.334.162.095.333.17.511.226.179.056.356.083.533.083h.048zm-10.95-6.497l1.135-1.134-1.141-1.14-1.134 1.133 1.14 1.141zM217.048 140c.682 0 1.254-.07 1.718-.212.464-.142.842-.358 1.134-.65.2.254.455.462.765.622.311.16.7.24 1.169.24h.14v-1.363h-.14c-.236 0-.43-.054-.58-.16a1.141 1.141 0 01-.356-.404 1.905 1.905 0 01-.184-.529 4.913 4.913 0 01-.076-.542 21.335 21.335 0 00-.126-1.204 6.534 6.534 0 00-.201-.946l-1.308.369c.102.352.172.665.212.939.04.274.059.543.059.807 0 .552-.176.968-.529 1.249-.352.28-.918.42-1.697.42h-.257V140h.257zm-8.751.02c.227 0 .444-.033.65-.1.206-.067.401-.162.584-.285.184-.123.353-.267.508-.432.156-.164.296-.344.421-.539.172.413.431.739.78.978.347.239.753.358 1.217.358.236 0 .459-.035.667-.104a2.24 2.24 0 001.058-.745c.139-.176.255-.373.348-.591.12.223.266.422.438.598s.36.327.567.452c.206.126.425.222.657.29.232.066.469.1.71.1h.167v-1.363h-.167c-.334 0-.637-.14-.908-.421-.271-.28-.5-.706-.685-1.277a5.48 5.48 0 01-.164-.591 9.327 9.327 0 01-.16-1.012l-.045-.463-1.363.111c.009.167.017.341.024.522a12.38 12.38 0 01.003.863 7.77 7.77 0 01-.07.803 3.115 3.115 0 01-.183.724c-.086.215-.201.39-.345.521a.78.78 0 01-.55.199c-.231 0-.414-.063-.549-.188a1.1 1.1 0 01-.296-.487c-.062-.2-.097-.38-.104-.543a5.315 5.315 0 01.017-.897c.019-.255.047-.499.084-.73.037-.232.067-.43.09-.592l-1.356-.257c-.023.213-.057.453-.101.72a8.21 8.21 0 01-.442 1.617 3.239 3.239 0 01-.368.703c-.144.204-.31.368-.498.494-.188.125-.4.187-.636.187-.19 0-.335-.064-.435-.194a.958.958 0 01-.188-.449 3.207 3.207 0 01-.031-.74c.014-.251.04-.498.08-.742.04-.243.08-.47.125-.678.044-.209.08-.371.108-.487l-1.336-.369c-.028.112-.058.244-.09.397a7.058 7.058 0 01-.129.504 9.976 9.976 0 01-.191.585 5.791 5.791 0 01-.272.63c-.102.19-.22.376-.354.56a3.353 3.353 0 01-.442.493c-.16.146-.332.263-.515.351a1.294 1.294 0 01-.567.133h-.146V140h.146a2.578 2.578 0 001.37-.38c.195-.117.374-.26.536-.427.163-.167.316-.352.46-.556a1.903 1.903 0 001.241 1.286c.202.065.412.098.63.098zm-10.637 4.863a8.524 8.524 0 001.965-.556 7.19 7.19 0 001.726-1.016 6.198 6.198 0 001.321-1.45 5.255 5.255 0 00.755-1.861h.765v-1.363h-.66a6.622 6.622 0 00-.376-2.02 5.342 5.342 0 00-.404-.881 4.395 4.395 0 00-.528-.738c-.552-.593-1.157-.89-1.816-.89a1.77 1.77 0 00-.86.226 2.61 2.61 0 00-.768.664c-.195.25-.364.549-.508.894a3.926 3.926 0 00-.274.925c-.04.272-.06.495-.06.672 0 .185.017.37.05.556.055.353.19.663.403.932.482.599 1.226.928 2.233.988.255.023.483.035.685.035h.79c-.052.348-.194.701-.428 1.06-.235.36-.553.7-.957 1.02-.403.32-.888.608-1.454.863a8.976 8.976 0 01-1.92.598l.32 1.342zm3.755-6.26h-.047c-.204 0-.422-.007-.654-.021a3.506 3.506 0 01-.296-.032 2.472 2.472 0 01-.347-.076 1.635 1.635 0 01-.334-.14.819.819 0 01-.261-.225.651.651 0 01-.143-.33 2.434 2.434 0 01-.024-.31c0-.102.007-.207.02-.313a3.16 3.16 0 01.133-.595c.065-.202.145-.384.24-.546.095-.163.203-.296.323-.4a.577.577 0 01.383-.157c.083 0 .162.014.236.042.075.028.145.064.213.108.067.044.13.093.187.146.058.053.11.103.157.15.116.134.228.293.337.476.11.183.208.388.296.616.088.227.16.473.216.737.055.264.09.545.104.842-.18.014-.344.022-.49.024l-.296.004h.047zm-10.05 6.358c.389-.19.773-.405 1.15-.644.379-.238.738-.5 1.079-.782a9.21 9.21 0 00.946-.905c.29-.32.54-.656.751-1.008.211-.353.376-.718.494-1.096.119-.378.178-.769.178-1.172 0-.204-.016-.413-.049-.626a9.947 9.947 0 00-.122-.65c-.048-.22-.102-.444-.16-.668a95.332 95.332 0 01-.17-.672 10.346 10.346 0 00-.174-.636c-.065-.211-.13-.426-.195-.644l-1.322.418c.126.39.244.779.355 1.168l.16.585c.056.2.107.399.153.598.047.2.085.394.115.584.03.19.045.371.045.543 0 .45-.109.886-.327 1.308-.218.422-.506.82-.866 1.196s-.768.723-1.228 1.04c-.459.318-.932.597-1.419.839l.605 1.224zM669.992 172c.38 0 .734-.026 1.06-.077.328-.05.624-.139.888-.264s.497-.292.699-.5c.202-.21.372-.471.511-.787.14-.32.209-.69.209-1.113 0-.074-.002-.148-.007-.222-.032-.515-.153-1.109-.362-1.781a9.033 9.033 0 00-.222-.644 14.061 14.061 0 00-.383-.897 1.713 1.713 0 01-.063-.143l-1.238.612.605 1.489c.098.237.172.463.223.678.051.216.081.385.09.508.01.123.014.215.014.275 0 .111-.007.216-.02.313a1.35 1.35 0 01-.105.369 1.245 1.245 0 01-.348.455c-.139.11-.301.192-.487.247-.185.056-.391.09-.619.101-.227.012-.475.018-.744.018h-.807V172h1.106zm1.14 3.624l1.135-1.134-1.141-1.14-1.134 1.133 1.14 1.141zM669.166 172v-1.363h-.139a2.77 2.77 0 01-.755-.09c-.21-.061-.37-.145-.476-.251a.58.58 0 01-.185-.359 3.758 3.758 0 01-.024-.441v-3.493a48.553 48.553 0 00-.066-2.546 31.39 31.39 0 00-.077-1.12c-.03-.343-.066-.633-.107-.87l-1.364.251c.042.218.078.498.108.839.03.34.056.713.077 1.116.02.404.035.82.045 1.252.009.432.014.847.014 1.245.004.409.007.796.007 1.162 0 .371-.003.7-.007.988a211.356 211.356 0 00-.014 1.037c0 .11.002.244.007.4a2.686 2.686 0 00.247 1.012c.08.176.198.34.351.494.25.25.555.436.915.556.36.12.794.181 1.304.181h.14zm-9.913 4.98c.39-.19.774-.404 1.151-.643.378-.238.738-.5 1.079-.782a9.21 9.21 0 00.946-.905c.29-.32.54-.656.751-1.008.211-.353.376-.718.494-1.096.118-.378.177-.769.177-1.172 0-.204-.016-.413-.048-.626a9.948 9.948 0 00-.122-.65 19.8 19.8 0 00-.16-.668 95.332 95.332 0 01-.17-.672 10.345 10.345 0 00-.174-.636c-.065-.211-.13-.426-.195-.644l-1.322.418c.125.39.244.779.355 1.168.05.19.104.385.16.585.056.2.107.399.153.598.046.2.085.394.115.584.03.19.045.371.045.543 0 .45-.109.886-.327 1.308-.218.422-.507.82-.866 1.196-.36.376-.769.723-1.228 1.04-.459.318-.932.597-1.419.839l.605 1.224zm-.779-4.917c.065-.77.103-1.496.115-2.178.011-.682.017-1.226.017-1.635 0-.677-.007-1.4-.02-2.17a63.584 63.584 0 00-.355-5.064l-1.364.208c.158 1.461.283 3.316.376 5.566.014.384.02.793.02 1.224 0 .357-.004.73-.013 1.12a64.701 64.701 0 01-.146 2.852l1.37.077zm-8.292-3.423l1.134-1.134-1.141-1.14-1.134 1.133 1.14 1.141zm-.306 8.14c.57 0 1.112-.061 1.624-.182.513-.12.98-.305 1.402-.553a4.23 4.23 0 001.11-.942c.317-.38.564-.833.74-1.357.167-.5.258-.9.272-1.2.014-.299.02-.5.02-.602a7.175 7.175 0 00-.393-2.361 11.15 11.15 0 00-.396-1.016 7.888 7.888 0 00-.525-.991l-1.155.737c.005 0 .047.068.129.205.08.137.175.325.281.564.107.239.215.52.324.841a6.615 6.615 0 01.344 2.119v.083c-.01.404-.076.805-.202 1.204a2.69 2.69 0 01-.459.873 2.733 2.733 0 01-.758.654 3.688 3.688 0 01-1.05.407c-.4.092-.844.139-1.336.139a3.94 3.94 0 01-1.054-.129 3.297 3.297 0 01-.807-.334 2.716 2.716 0 01-.588-.462 3.029 3.029 0 01-.403-.526 2.535 2.535 0 01-.24-.514 2.743 2.743 0 01-.108-.435 4.08 4.08 0 01-.035-.821c.014-.278.045-.552.094-.821.049-.269.11-.528.184-.776.075-.248.152-.476.233-.685.082-.209.162-.39.24-.546a2.8 2.8 0 01.21-.358l-1.107-.814c-.19.315-.372.667-.546 1.054-.174.387-.32.796-.438 1.228a6.484 6.484 0 00-.22 1.123 6.142 6.142 0 00.02 1.61c.094.608.274 1.137.54 1.587.267.45.602.822 1.006 1.116.403.295.864.515 1.38.661.518.146 1.073.22 1.667.22zm-7.103-4.787a1.253 1.253 0 00.804-.292c.109-.093.198-.202.267-.327a.957.957 0 00.119-.41v-.056a.926.926 0 00-.132-.494 1.038 1.038 0 00-.39-.362c-.158-.083-.285-.126-.383-.129l-.16-.003a.936.936 0 00-.487.132c0-.668.439-1.32 1.315-1.955a92.96 92.96 0 00-.337-.27 5.811 5.811 0 00-.296-.224c-1.104.784-1.655 1.721-1.655 2.81 0 .21.029.409.086.6.058.19.143.357.254.504.112.146.25.262.418.347.167.086.36.129.577.129zm-10.935.09c.43 0 .809-.06 1.133-.18.334-.121.613-.295.835-.522.223-.227.39-.502.501-.824a3.3 3.3 0 00.167-1.082c0-.265-.024-.536-.073-.814a7.696 7.696 0 00-.188-.814 12.239 12.239 0 00-.859-2.17l-1.217.64a12.273 12.273 0 01.587 1.422c.1.295.186.595.258.901.072.306.108.591.108.856a2 2 0 01-.07.55.93.93 0 01-.226.403.764.764 0 01-.355.212 1.566 1.566 0 01-.4.052c-.079 0-.162-.005-.25-.014a.65.65 0 01-.351-.136.847.847 0 01-.23-.292 1.47 1.47 0 01-.125-.41 3.026 3.026 0 01-.039-.49c0-.19.014-.408.042-.651.028-.243.06-.473.094-.689.035-.215.066-.4.094-.553l.035-.222-1.336-.244c-.028.19-.066.414-.115.671a9.557 9.557 0 01-.187.797 7.21 7.21 0 01-.279.807c-.109.264-.236.5-.382.71a2.008 2.008 0 01-.501.507c-.188.13-.4.195-.637.195a.735.735 0 01-.368-.083.622.622 0 01-.23-.223.974.974 0 01-.118-.316 1.894 1.894 0 01-.035-.366c0-.18.019-.377.056-.588.037-.21.08-.417.132-.619a12.77 12.77 0 01.292-.998l-1.377-.292c-.047.227-.102.468-.167.723a7.783 7.783 0 01-.237.762 5.556 5.556 0 01-.327.727 2.873 2.873 0 01-.442.616c-.169.178-.362.322-.58.431a1.626 1.626 0 01-.738.164h-.153V172h.146c.27 0 .516-.022.741-.066a2.704 2.704 0 001.13-.494c.158-.118.307-.252.446-.4.074.172.18.322.316.452.137.13.289.239.456.327.167.088.342.154.525.198.183.044.36.066.532.066.395 0 .768-.095 1.12-.285.353-.19.668-.447.946-.772.098.148.216.286.355.414.14.128.29.239.452.334.163.095.333.17.512.226.178.056.356.083.532.083h.049zm-7.98-.083v-1.363h-.139a2.77 2.77 0 01-.755-.09c-.21-.061-.37-.145-.476-.251a.58.58 0 01-.184-.359 3.758 3.758 0 01-.025-.441v-3.493a48.553 48.553 0 00-.066-2.546 31.39 31.39 0 00-.076-1.12c-.03-.343-.066-.633-.108-.87l-1.364.251c.042.218.078.498.108.839.03.34.056.713.077 1.116.02.404.036.82.045 1.252.01.432.014.847.014 1.245.004.409.007.796.007 1.162v.27l-.007.718a211.356 211.356 0 00-.014 1.037c0 .11.002.244.007.4a2.686 2.686 0 00.247 1.012c.081.176.198.34.351.494.25.25.555.436.915.556.36.12.794.181 1.304.181h.14zm-10.114-3.36l1.134-1.134-1.141-1.14-1.134 1.133 1.14 1.141zm-.306 8.14c.57 0 1.111-.061 1.624-.182.512-.12.98-.305 1.402-.553a4.23 4.23 0 001.11-.942c.317-.38.564-.833.74-1.357.167-.5.257-.9.271-1.2.014-.299.021-.5.021-.602a7.175 7.175 0 00-.393-2.361 11.15 11.15 0 00-.396-1.016 7.888 7.888 0 00-.526-.991l-1.154.737c.004 0 .047.068.128.205.082.137.175.325.282.564.107.239.215.52.324.841a6.615 6.615 0 01.344 2.119v.083c-.01.404-.077.805-.202 1.204a2.69 2.69 0 01-.459.873 2.733 2.733 0 01-.758.654 3.688 3.688 0 01-1.05.407c-.4.092-.845.139-1.336.139a3.94 3.94 0 01-1.054-.129 3.297 3.297 0 01-.807-.334 2.716 2.716 0 01-.588-.462 3.029 3.029 0 01-.403-.526 2.535 2.535 0 01-.24-.514 2.743 2.743 0 01-.108-.435 4.08 4.08 0 01-.035-.821c.014-.278.045-.552.094-.821.049-.269.11-.528.184-.776s.152-.476.233-.685c.081-.209.161-.39.24-.546a2.8 2.8 0 01.209-.358l-1.106-.814c-.19.315-.372.667-.546 1.054-.174.387-.32.796-.439 1.228a6.484 6.484 0 00-.219 1.123 6.142 6.142 0 00.02 1.61c.094.608.274 1.137.54 1.587.267.45.602.822 1.006 1.116.403.295.863.515 1.38.661.518.146 1.073.22 1.667.22zm-10.832.2c.39-.19.774-.404 1.152-.643.377-.238.737-.5 1.078-.782a9.21 9.21 0 00.946-.905c.29-.32.54-.656.751-1.008.211-.353.376-.718.494-1.096.118-.378.177-.769.177-1.172 0-.204-.016-.413-.048-.626a9.948 9.948 0 00-.122-.65c-.049-.22-.102-.444-.16-.668a95.332 95.332 0 01-.17-.672 10.346 10.346 0 00-.174-.636c-.065-.211-.13-.426-.195-.644l-1.322.418c.125.39.244.779.355 1.168.051.19.104.385.16.585.056.2.107.399.153.598.046.2.085.394.115.584.03.19.045.371.045.543 0 .45-.109.886-.327 1.308-.218.422-.507.82-.866 1.196-.36.376-.769.723-1.228 1.04-.459.318-.932.597-1.419.839l.605 1.224zm-6.351-.097a8.398 8.398 0 001.405-.344c.46-.155.896-.348 1.311-.577.416-.23.803-.498 1.162-.804a5.91 5.91 0 00.95-1.022c.273-.376.498-.785.675-1.228.176-.443.29-.92.34-1.43a6.441 6.441 0 00.007-1.266 6.891 6.891 0 00-.23-1.217 5.77 5.77 0 00-.434-1.096 4.275 4.275 0 00-.623-.9c-.551-.594-1.157-.891-1.815-.891a1.77 1.77 0 00-.86.226 2.61 2.61 0 00-.768.664c-.195.25-.364.549-.508.894a3.926 3.926 0 00-.275.925c-.04.272-.059.495-.059.672 0 .185.016.37.049.556.056.353.19.663.403.932.483.599 1.227.928 2.233.988.255.023.484.035.686.035h.79c-.052.348-.194.701-.429 1.06-.234.36-.553.7-.956 1.02-.404.32-.888.608-1.454.863a8.976 8.976 0 01-1.92.598l.32 1.342zm3.755-6.26h-.047c-.204 0-.422-.007-.654-.021a3.506 3.506 0 01-.296-.032 2.472 2.472 0 01-.348-.076 1.635 1.635 0 01-.334-.14.819.819 0 01-.26-.225.651.651 0 01-.143-.33 2.434 2.434 0 01-.024-.31c0-.102.007-.207.02-.313a3.16 3.16 0 01.133-.595c.065-.202.145-.384.24-.546.095-.163.203-.296.323-.4a.577.577 0 01.383-.157c.083 0 .162.014.236.042.074.028.145.064.212.108.068.044.13.093.188.146.058.053.11.103.157.15.116.134.228.293.337.476.11.183.208.388.296.616.088.227.16.473.215.737.056.264.09.545.105.842-.181.014-.345.022-.49.024l-.296.004h.047zm-8.061-7.778l1.134-1.134-1.141-1.14-1.134 1.133 1.14 1.141zm-3.694 9.148c.427 0 .861-.01 1.304-.028a15.06 15.06 0 001.308-.111 8.95 8.95 0 001.235-.247 4.802 4.802 0 001.075-.435c.322-.18.601-.403.838-.668.236-.264.41-.582.522-.953.125-.422.187-.846.187-1.273v-.048a5.624 5.624 0 00-.17-1.28 5.211 5.211 0 00-.428-1.13 4.04 4.04 0 00-.591-.867c-.496-.552-1.053-.828-1.67-.828-.32 0-.607.08-.862.24-.255.16-.477.365-.665.616-.187.25-.342.53-.462.838-.12.309-.207.611-.258.908a3.487 3.487 0 00-.041.515v.118c.009.195.033.37.073.525.04.156.091.292.156.41a2.12 2.12 0 001.043.936 3.995 3.995 0 001.389.289l.212.007c.079.002.17.003.274.003h.373a1.72 1.72 0 01-.226.213 2.22 2.22 0 01-.373.233c-.162.088-.36.177-.594.267-.235.09-.526.17-.873.24-.348.07-.724.12-1.127.15-.404.03-.807.045-1.21.045-.205 0-.418-.002-.64-.007a11.592 11.592 0 01-1.51-.125 6.075 6.075 0 01-1.159-.289 3.138 3.138 0 01-.841-.452 2.237 2.237 0 01-.553-.615 1.62 1.62 0 01-.23-.57 2.967 2.967 0 01-.049-.509c0-.06.003-.118.007-.174.01-.208.039-.409.087-.601a5.245 5.245 0 01.296-.86l.062-.132-1.21-.66a2.484 2.484 0 01-.097.219c-.06.127-.128.295-.202.504a6.659 6.659 0 00-.205.716c-.063.27-.097.49-.101.661-.005.172-.007.279-.007.32 0 .27.028.543.083.821.065.325.19.643.376.953.826 1.41 2.643 2.115 5.454 2.115zm4.55-3.833c-.2 0-.42-.007-.661-.02a2.297 2.297 0 01-.654-.123c-.186-.067-.32-.156-.404-.267a.708.708 0 01-.167-.359 1.635 1.635 0 01.007-.574c.033-.171.087-.34.164-.504.076-.165.16-.31.25-.438a1.31 1.31 0 01.264-.289c.086-.065.162-.097.227-.097a1.15 1.15 0 01.49.212c.132.1.25.221.351.365.102.144.19.304.261.48.072.176.134.357.185.543.05.185.095.368.132.55.037.18.07.347.097.5-.158.014-.338.021-.543.021zM572.761 172c.38 0 .734-.026 1.06-.077.328-.05.623-.139.888-.264.264-.125.497-.292.699-.5.201-.21.372-.471.511-.787.14-.32.209-.69.209-1.113 0-.074-.003-.148-.007-.222-.033-.515-.153-1.109-.362-1.781a9.033 9.033 0 00-.223-.644 14.061 14.061 0 00-.382-.897 1.712 1.712 0 01-.063-.143l-1.238.612.605 1.489c.098.237.172.463.223.678.05.216.08.385.09.508.01.123.014.215.014.275 0 .111-.007.216-.02.313a1.35 1.35 0 01-.105.369 1.245 1.245 0 01-.348.455c-.14.11-.301.192-.487.247-.185.056-.392.09-.619.101-.227.012-.475.018-.744.018h-.807V172h1.106zm1.14 3.624l1.135-1.134-1.141-1.14-1.134 1.133 1.14 1.141zm-8.034 1.51a12.712 12.712 0 001.704-1.03 9.084 9.084 0 001.471-1.304 6.295 6.295 0 001.034-1.54c.26-.553.39-1.132.39-1.74v-.028c.115.125.237.223.364.292a1.686 1.686 0 00.713.209c.102.005.186.007.25.007h.119v-1.363h-.111c-.232 0-.444-.056-.637-.167a1.88 1.88 0 01-.553-.526 4.913 4.913 0 01-.515-.925 15.038 15.038 0 01-.514-1.374l-1.308.404c.055.171.123.386.202.643.078.258.157.532.236.825.079.292.152.59.22.893.066.304.116.588.149.853a2.596 2.596 0 01-.077.94c-.083.31-.21.609-.379.896-.17.288-.377.562-.623.824a8.04 8.04 0 01-.806.748 9.486 9.486 0 01-.933.665c-.329.206-.66.395-.994.567l.598 1.23zm-4.717-14.115l1.127-1.127-1.14-1.14-1.128 1.133 1.141 1.134zm2.852.014l1.127-1.134-1.14-1.134-1.127 1.127 1.14 1.141zm-4.27 8.967c.458-.005.91-.022 1.356-.052.445-.03.87-.085 1.276-.164a6.536 6.536 0 001.134-.323c.35-.137.661-.314.932-.532a2.74 2.74 0 00.672-.793c.176-.311.292-.677.347-1.1a4.997 4.997 0 00.021-1.126 5.945 5.945 0 00-.212-1.096 5.3 5.3 0 00-.407-1.002 4.113 4.113 0 00-.57-.824c-.501-.543-1.058-.814-1.67-.814a1.71 1.71 0 00-.807.205c-.26.137-.494.344-.702.623-.367.473-.615 1.062-.745 1.767-.028.19-.041.364-.041.521v.119c.009.194.034.368.076.521.042.153.095.29.16.407.065.119.13.22.195.303.12.153.266.289.438.407s.362.217.57.296c.21.078.432.138.668.177.237.04.48.06.73.06h.703c-.037.04-.074.083-.11.124a1.453 1.453 0 01-.147.14 1.95 1.95 0 01-.522.278 6.013 6.013 0 01-.866.254c-.34.076-.728.139-1.162.187a12.73 12.73 0 01-1.415.074h-.14V172h.237zm3.818-3.798c-.208 0-.431-.005-.668-.014a2.745 2.745 0 01-.56-.09 1.009 1.009 0 01-.403-.21.633.633 0 01-.202-.305 1.224 1.224 0 01-.045-.32c0-.08.007-.163.02-.25.043-.237.102-.446.178-.627.077-.18.16-.334.247-.459a1.16 1.16 0 01.265-.282.419.419 0 01.23-.094c.129 0 .25.04.364.122.114.081.208.164.282.247.237.264.426.596.567.995.142.399.228.823.261 1.273-.153.01-.332.014-.536.014zm-10.073 8.334c.306 0 .65-.021 1.03-.063.38-.042.764-.111 1.151-.209a7.704 7.704 0 001.13-.379c.367-.155.694-.346.981-.574.288-.227.52-.494.696-.8a2.118 2.118 0 00.244-1.37 1.463 1.463 0 00-.112-.362 1.988 1.988 0 00-.233-.386 2.356 2.356 0 00-.386-.393h1.795v-1.363h-5.489l-.104 1.356.153.028a9.7 9.7 0 01.668.153c.139.037.288.079.448.125.16.047.322.098.484.153.264.098.487.195.668.292.18.098.328.19.441.275.114.086.196.167.247.244a.377.377 0 01.077.198.864.864 0 01-.233.598c-.155.172-.354.32-.595.445a4.37 4.37 0 01-.81.317 8.716 8.716 0 01-1.68.313c-.246.02-.436.031-.57.031-.233 0-.498-.004-.797-.014-.3-.009-.6-.046-.905-.111a3.453 3.453 0 01-.876-.317 1.949 1.949 0 01-.706-.63c-.292-.444-.438-1.024-.438-1.738 0-1.127.364-2.586 1.092-4.376l-1.273-.515c-.728 1.763-1.123 3.275-1.183 4.536-.005.116-.007.23-.007.34 0 1.017.225 1.854.675 2.512.213.362.488.653.824.873.336.22.703.39 1.1.512.396.12.81.2 1.241.24.431.039.849.059 1.252.059z" id="دندهاتوماتیک،لاستیکنو،دزدگیر،سنسوردندهعقب،سیستمصوتی،سنسورباران،سانروفبرقی" fill-opacity=".87" fill="#000000" fill-rule="nonzero"/><path style="animation:fader 4800ms ease-out infinite;transform-origin:430px 177px" id="Rectangle" fill="#FAFAFB" d="M190.758 127.005h483v50h-483z"/><path id="divider" fill-opacity=".12" fill="#000000" style="animation:divider 4800ms ease-out infinite" d="M186 111h488v1H186z"/><path style="animation:arrow_left 4800ms ease-out infinite;transform-origin:195.5px 88px" id="Path-2" stroke="#B1AFBB" stroke-width="2" stroke-linecap="round" d="M193.082 85.581l4.838 4.838"/><path style="animation:arrow_right 4800ms ease-out infinite;transform-origin:200.77px 88px" id="Path-3" stroke="#B1AFBB" stroke-width="2" stroke-linecap="round" d="M197.92 90.419l4.839-4.838"/></g></g></svg>