<svg xmlns="http://www.w3.org/2000/svg" xmlns:xlink="http://www.w3.org/1999/xlink" width="520" height="220"><defs><path id="a" d="M0 0h224v52H0z"/></defs><g fill="none" fill-rule="evenodd"><path d="M0 0h520v220H0z"/><g transform="translate(148 84)"><mask id="b" fill="#fff"><use xlink:href="#a"/></mask><use fill="#000000" fill-opacity=".24" xlink:href="#a"/><path fill="#FFF" mask="url(#b)" d="M0 25h224v2H0z"/><rect width="2" height="2" x="103" y="25" fill="#000000" fill-opacity=".64" mask="url(#b)" rx="1"/><rect width="2" height="2" x="120" y="25" fill="#000000" fill-opacity=".64" mask="url(#b)" rx="1"/><rect width="2" height="2" x="138" y="25" fill="#000000" fill-opacity=".64" mask="url(#b)" rx="1"/><rect width="2" height="2" x="155" y="25" fill="#000000" fill-opacity=".64" mask="url(#b)" rx="1"/><rect width="2" height="2" x="173" y="25" fill="#000000" fill-opacity=".64" mask="url(#b)" rx="1"/><rect width="2" height="2" x="190" y="25" fill="#000000" fill-opacity=".64" mask="url(#b)" rx="1"/><rect width="2" height="2" x="208" y="25" fill="#000000" fill-opacity=".64" mask="url(#b)" rx="1"/><rect width="1.6" height="1.6" x="225.2" y="25.2" stroke="#EA475B" stroke-width=".4" mask="url(#b)" rx=".8"/><path mask="url(#b)" d="M0 0h112v52H0z"/><path fill="#000000" fill-opacity=".64" mask="url(#b)" d="M27 25h68v2H27z"/><circle cx="18" cy="26" r="18" fill="#000000" fill-opacity=".24" mask="url(#b)"/><circle cx="18" cy="26" r="10" fill="#FFF"/><circle cx="18" cy="26" r="8" fill="#FFF"/><circle cx="104" cy="26" r="18"/><circle cx="104" cy="26" r="10" fill="#FFF"/><circle cx="104" cy="26" r="8" fill="#FFF"/></g></g></svg>