<svg xmlns="http://www.w3.org/2000/svg" width="420" height="220"><g fill="none" fill-rule="evenodd"><path d="M0 0h420v220H0z"/><path fill="#EA475B" fill-opacity=".12" d="M114 90h36v40h-36a4 4 0 01-4-4V94a4 4 0 014-4zm156 0h36a4 4 0 014 4v32a4 4 0 01-4 4h-36V90z"/><path stroke="#EA475B" stroke-linecap="round" stroke-width=".4" d="M110.5 141.273v2M309.5 141.273v2M110.5 142.273h199"/><path fill="#EA475B" fill-rule="nonzero" d="M194.295 150l.668-2.177.68 2.177h.586l.864-3.17h-.694l-.504 2.189-.66-2.189h-.535l-.65 2.165-.514-2.165h-.694l.867 3.17h.586zm3.677-3.618c.129 0 .229-.036.299-.107a.366.366 0 00.105-.268c0-.11-.035-.2-.105-.273-.07-.072-.17-.108-.299-.108-.129 0-.228.036-.297.108a.378.378 0 00-.104.273c0 .107.034.197.104.268.069.071.168.107.297.107zm.354 3.618v-3.17h-.711V150h.711zm1.887.059c.356 0 .64-.13.853-.387l.035.328h.644v-4.5h-.711v1.623a1.035 1.035 0 00-.815-.352c-.38 0-.684.148-.911.444-.227.296-.34.688-.34 1.177 0 .513.115.92.344 1.218.23.3.53.449.901.449zm.182-.58a.604.604 0 01-.529-.271c-.124-.181-.186-.433-.186-.755 0-.367.063-.642.188-.825a.608.608 0 01.533-.274c.29 0 .502.127.633.381v1.354a.672.672 0 01-.64.39zm3.094.58c.15 0 .306-.023.468-.068v-.55c-.084.019-.167.029-.249.029-.123 0-.208-.027-.256-.08-.048-.055-.072-.142-.072-.263v-1.77h.56v-.527h-.56v-.77h-.712v.77h-.521v.527h.521v1.796c0 .604.274.906.82.906zm1.696-.059v-2.265a.686.686 0 01.639-.38c.183 0 .322.045.417.136.095.09.142.245.142.464V150h.712v-2.071c-.01-.772-.352-1.158-1.028-1.158-.356 0-.65.135-.882.405V145.5h-.712v4.5h.712zm3.058-2.455c.133 0 .236-.037.308-.11a.378.378 0 00.109-.277.392.392 0 00-.109-.283c-.072-.075-.175-.112-.308-.112a.403.403 0 00-.304.112.392.392 0 00-.109.283c0 .113.038.206.112.279a.414.414 0 00.301.108zm0 2.487c.133 0 .236-.036.308-.11a.378.378 0 00.109-.276.392.392 0 00-.109-.283c-.072-.075-.175-.113-.308-.113a.403.403 0 00-.304.113.392.392 0 00-.109.283c0 .113.038.206.112.278a.414.414 0 00.301.108zm4.539-.032v-4.28h-.091l-1.664.612v.6l1.046-.357V150h.709zm2.87.059c.47 0 .819-.156 1.048-.468.23-.311.344-.774.344-1.387v-.738c-.006-.596-.123-1.043-.353-1.342-.23-.299-.577-.448-1.044-.448-.47 0-.821.153-1.05.46-.23.306-.345.766-.345 1.38v.738c.006.596.126 1.045.36 1.349.233.304.58.456 1.04.456zm0-.569a.56.56 0 01-.524-.293c-.111-.195-.167-.492-.167-.89v-.967c.006-.375.064-.651.173-.828.11-.177.28-.265.513-.265.238 0 .412.093.521.28.11.186.164.48.164.88v.964c-.006.385-.063.668-.172.848-.11.18-.279.271-.507.271zm3.41.569c.47 0 .819-.156 1.048-.468.23-.311.344-.774.344-1.387v-.738c-.005-.596-.123-1.043-.353-1.342-.23-.299-.577-.448-1.044-.448-.47 0-.82.153-1.05.46-.23.306-.345.766-.345 1.38v.738c.006.596.126 1.045.36 1.349.233.304.58.456 1.04.456zm0-.569a.56.56 0 01-.524-.293c-.11-.195-.167-.492-.167-.89v-.967c.006-.375.064-.651.173-.828.11-.177.28-.265.513-.265.238 0 .412.093.521.28.11.186.165.48.165.88v.964c-.006.385-.064.668-.173.848-.11.18-.279.271-.507.271zm2.901-1.834c.27 0 .487-.082.652-.246a.85.85 0 00.248-.63v-.21c0-.268-.083-.485-.248-.65-.165-.165-.384-.247-.658-.247-.27 0-.487.082-.653.247a.856.856 0 00-.249.635v.208c0 .273.085.49.256.652.171.16.389.241.652.241zm0-.425a.382.382 0 01-.297-.124.468.468 0 01-.113-.327v-.217c0-.138.037-.25.11-.335a.37.37 0 01.294-.127.38.38 0 01.298.126.473.473 0 01.113.328v.214a.49.49 0 01-.112.338.374.374 0 01-.293.124zm.147 2.45l2.083-3.334-.367-.211-2.083 3.334.367.21zm1.907.378c.273 0 .492-.083.655-.248a.857.857 0 00.244-.628v-.208c0-.276-.084-.495-.253-.657a.903.903 0 00-.652-.243.904.904 0 00-.65.243.839.839 0 00-.255.636v.214c0 .268.083.483.25.646.167.163.387.245.66.245zm0-.422a.384.384 0 01-.297-.128.467.467 0 01-.116-.326v-.217c0-.145.037-.258.113-.34a.38.38 0 01.294-.123c.12 0 .217.04.293.123a.463.463 0 01.114.328v.22a.5.5 0 01-.107.341.372.372 0 01-.294.122z"/><circle cx="117" cy="130" r="1" fill="#EA475B"/><path stroke="#EA475B" stroke-linecap="round" stroke-width=".4" d="M96.5 130h20"/><path fill="#EA475B" fill-rule="nonzero" d="M34.755 131.562v-4.28h-.09l-1.665.612v.6l1.046-.357v3.425h.709zm2.64.058c.355 0 .64-.129.852-.387l.035.329h.645v-4.5h-.712v1.623a1.035 1.035 0 00-.815-.352c-.38 0-.684.148-.91.444-.227.296-.34.688-.34 1.176 0 .514.114.92.344 1.219.23.299.53.448.9.448zm.181-.58a.604.604 0 01-.529-.271c-.124-.18-.186-.432-.186-.754 0-.368.063-.642.188-.825a.608.608 0 01.533-.274c.291 0 .502.127.633.38v1.354a.672.672 0 01-.639.39zm2.804 1.74v-1.503c.209.229.487.343.835.343.375 0 .674-.146.896-.438.223-.292.334-.683.334-1.173v-.044c0-.512-.11-.912-.33-1.2-.219-.288-.522-.432-.909-.432-.36 0-.644.127-.852.38l-.03-.321h-.656v4.388h.712zm.633-1.728c-.293 0-.504-.123-.633-.37v-1.406c.127-.24.336-.36.627-.36.234 0 .414.093.54.278.126.186.19.437.19.753 0 .371-.065.648-.193.83a.614.614 0 01-.531.275zm5.007-1.216l.424-.31-.586-.78.909-.258-.159-.504-.87.337.044-1.025h-.524l.044 1.008-.885-.343-.161.495.893.258-.606.797.428.299.521-.818.528.844zm1.374 2.092l1.678-4.632h-.56l-1.678 4.632h.56zm5.01-.308c.292 0 .55-.067.774-.202.224-.135.396-.325.516-.571.12-.246.18-.526.18-.838l-.003-.167c-.021-.455-.165-.82-.432-1.096-.267-.275-.614-.413-1.042-.413-.289 0-.544.067-.767.2a1.348 1.348 0 00-.519.575 1.87 1.87 0 00-.184.84v.034c0 .497.134.893.403 1.191.268.298.626.447 1.073.447zm0-.568a.657.657 0 01-.563-.277c-.135-.185-.202-.44-.202-.766 0-.367.068-.643.205-.828a.653.653 0 01.553-.277.66.66 0 01.561.282c.138.187.207.441.207.761 0 .362-.067.636-.2.824a.65.65 0 01-.562.28zm2.774.51v-2.256c.14-.26.354-.39.641-.39.198 0 .34.048.427.145.087.097.13.246.13.447v2.054h.712v-2.095c-.012-.756-.348-1.134-1.008-1.134-.38 0-.688.142-.923.425l-.02-.366h-.671v3.17h.712zm5.092 0v-2.643h.644v-.527h-.644v-.282c0-.35.17-.524.51-.524.103 0 .194.008.272.023l.017-.556a1.645 1.645 0 00-.398-.053c-.352 0-.625.096-.82.287-.196.192-.293.463-.293.815v.29h-.484v.527h.484v2.643h.712zm2.507.058c.293 0 .552-.067.775-.202.224-.135.396-.325.516-.571.12-.246.18-.526.18-.838l-.003-.167c-.021-.455-.165-.82-.432-1.096-.267-.275-.614-.413-1.042-.413-.289 0-.544.067-.767.2a1.348 1.348 0 00-.519.575 1.87 1.87 0 00-.184.84v.034c0 .497.134.893.403 1.191.268.298.626.447 1.073.447zm0-.568a.657.657 0 01-.562-.277c-.135-.185-.202-.44-.202-.766 0-.367.068-.643.205-.828a.653.653 0 01.553-.277.66.66 0 01.562.282c.137.187.206.441.206.761 0 .362-.067.636-.2.824a.65.65 0 01-.562.28zm3.384.568c.229 0 .442-.05.639-.15.197-.099.353-.234.469-.405.115-.171.176-.355.184-.552h-.67a.53.53 0 01-.188.383.644.644 0 01-.443.156c-.234 0-.413-.085-.537-.254-.124-.169-.186-.425-.186-.769v-.114c.002-.34.065-.593.19-.76a.626.626 0 01.533-.25c.18 0 .328.058.444.175a.652.652 0 01.186.448h.671c-.012-.357-.136-.646-.373-.865-.238-.22-.545-.33-.922-.33-.445 0-.797.145-1.054.435-.258.29-.387.676-.387 1.159V130c0 .506.13.902.39 1.19.26.287.61.43 1.054.43zm2.86 0c.384 0 .681-.123.89-.369l.018.31h.67v-3.17h-.711v2.277c-.121.248-.355.372-.7.372-.334 0-.501-.201-.501-.603v-2.045h-.712v2.053c0 .381.088.672.265.873.177.202.437.302.78.302zm3.498 0c.382 0 .692-.088.928-.265a.826.826 0 00.355-.693.78.78 0 00-.116-.433.931.931 0 00-.354-.307 2.635 2.635 0 00-.658-.22c-.28-.06-.465-.122-.557-.182a.289.289 0 01-.138-.255c0-.121.05-.218.148-.29a.63.63 0 01.383-.109c.168 0 .302.046.404.136.102.091.152.205.152.342h.712a.892.892 0 00-.35-.73c-.233-.187-.54-.281-.918-.281-.356 0-.649.092-.88.275a.844.844 0 00-.345.686c0 .326.178.575.533.747.162.078.365.143.607.193.242.051.415.11.52.176a.323.323 0 01.157.29.331.331 0 01-.147.28c-.098.071-.24.107-.428.107a.74.74 0 01-.465-.136.502.502 0 01-.19-.388h-.692c0 .189.056.366.17.53.113.164.271.293.474.386.203.094.435.141.695.141zm6.22-.058v-.569h-1.981l1.043-1.116c.273-.297.47-.562.59-.795.12-.234.18-.457.18-.67 0-.367-.12-.655-.359-.863-.239-.208-.566-.312-.98-.312-.287 0-.54.058-.76.173a1.22 1.22 0 00-.507.485 1.395 1.395 0 00-.177.702h.712c0-.244.063-.437.19-.577.127-.141.306-.211.537-.211.193 0 .347.062.461.187.114.125.171.29.171.492a.928.928 0 01-.13.462 3.538 3.538 0 01-.438.572l-1.42 1.55v.49h2.867zm1.698.058c.356 0 .64-.129.853-.387l.035.329h.645v-4.5h-.712v1.623a1.035 1.035 0 00-.815-.352c-.38 0-.684.148-.91.444-.227.296-.34.688-.34 1.176 0 .514.114.92.344 1.219.23.299.53.448.9.448zm.182-.58a.604.604 0 01-.529-.271c-.124-.18-.186-.432-.186-.754 0-.368.063-.642.188-.825a.608.608 0 01.533-.274c.291 0 .502.127.633.38v1.354a.672.672 0 01-.639.39zm2.804 1.74v-1.503c.209.229.487.343.835.343.375 0 .674-.146.896-.438.223-.292.334-.683.334-1.173v-.044c0-.512-.11-.912-.33-1.2-.219-.288-.522-.432-.909-.432-.36 0-.644.127-.853.38l-.029-.321h-.656v4.388h.712zm.633-1.728c-.293 0-.504-.123-.633-.37v-1.406c.127-.24.336-.36.627-.36.234 0 .414.093.54.278.126.186.19.437.19.753 0 .371-.065.648-.193.83a.614.614 0 01-.531.275zm3.73.876l1.678-4.632h-.56l-1.678 4.632h.56zm3.65-2.092l.424-.31-.586-.78.909-.258-.159-.504-.87.337.044-1.025h-.524l.044 1.008-.885-.343-.161.495.893.258-.606.797.428.299.521-.818.528.844z"/><circle cx="187" cy="181" r="13.2" stroke="#000000" stroke-opacity=".12" stroke-width=".4"/><path fill="#000000" fill-opacity=".12" d="M188 176a4 4 0 014 4v13.003a12.96 12.96 0 01-5 .997c-7.18 0-13-5.82-13-13 0-1.772.354-3.46.996-5H188z"/><circle cx="188" cy="180" r="4" fill="#EA475B"/><path fill="#EA475B" fill-rule="nonzero" d="M205.91 183.059c.385 0 .687-.146.907-.437.22-.29.33-.683.33-1.175v-.04c0-.516-.11-.918-.332-1.205-.22-.287-.524-.43-.91-.43-.348 0-.625.12-.83.363V178.5h-.712v4.5h.645l.035-.343c.207.268.496.402.867.402zm-.179-.58c-.31 0-.529-.138-.656-.414v-1.306c.125-.27.342-.405.65-.405.231 0 .407.086.528.258.121.172.182.43.182.774v.09c-.004.337-.067.587-.188.753a.6.6 0 01-.516.25zm3.355.58c.293 0 .551-.068.775-.203.223-.134.395-.325.515-.57.12-.247.18-.526.18-.839l-.002-.167c-.022-.455-.166-.82-.432-1.095-.267-.276-.614-.414-1.042-.414-.289 0-.545.067-.768.201a1.348 1.348 0 00-.518.574 1.87 1.87 0 00-.185.84v.035c0 .496.135.893.403 1.19.269.299.627.448 1.074.448zm0-.569a.657.657 0 01-.563-.277c-.134-.184-.202-.44-.202-.766 0-.367.069-.643.205-.827a.653.653 0 01.554-.277.66.66 0 01.561.281c.138.188.207.441.207.762 0 .361-.067.635-.201.823a.65.65 0 01-.561.281zm2.783.51v-2.168c.113-.25.333-.375.66-.375.099 0 .196.008.29.023l.002-.667a.666.666 0 00-.252-.042c-.304 0-.543.138-.715.414l-.017-.355h-.68V183h.712zm2.51.059c.356 0 .64-.13.853-.387l.036.328h.644v-4.5h-.712v1.623a1.035 1.035 0 00-.814-.352c-.381 0-.685.148-.911.444-.227.296-.34.688-.34 1.177 0 .513.115.92.344 1.218.23.3.53.449.9.449zm.183-.58a.604.604 0 01-.53-.271c-.123-.181-.185-.433-.185-.755 0-.367.062-.642.187-.825a.608.608 0 01.533-.274c.291 0 .502.127.633.381v1.354a.672.672 0 01-.638.39zm3.489.58c.263 0 .501-.053.713-.157.212-.105.382-.252.508-.441l-.383-.366a.964.964 0 01-.797.395.787.787 0 01-.579-.228c-.153-.153-.24-.36-.262-.621h2.071v-.287c0-.504-.117-.894-.353-1.17-.235-.275-.569-.413-1-.413-.272 0-.518.07-.739.208-.22.14-.392.333-.514.582a1.902 1.902 0 00-.183.848v.088c0 .473.14.851.42 1.135.28.285.647.427 1.098.427zm.568-1.94h-1.356c.033-.244.11-.434.23-.571a.6.6 0 01.473-.205c.197 0 .351.06.463.183.111.122.175.302.19.54v.053zm1.966 1.881v-2.168c.113-.25.333-.375.66-.375.099 0 .195.008.29.023l.002-.667a.666.666 0 00-.252-.042c-.305 0-.543.138-.715.414l-.017-.355h-.68V183h.712zm2.78-1.526v-.575h-1.538v.575h1.538zm1.298 1.526v-2.168c.113-.25.333-.375.66-.375.099 0 .196.008.29.023l.002-.667a.666.666 0 00-.252-.042c-.304 0-.543.138-.715.414l-.017-.355h-.68V183h.712zm2.379.059c.328 0 .605-.119.832-.355.023.137.05.235.082.296h.727v-.05c-.08-.17-.12-.397-.12-.682v-1.43c-.006-.338-.12-.6-.34-.787-.221-.186-.517-.28-.888-.28-.244 0-.465.043-.664.13a1.152 1.152 0 00-.47.355.79.79 0 00-.173.488h.712c0-.125.052-.228.156-.309a.627.627 0 01.398-.122c.187 0 .327.05.419.148.092.1.138.23.138.394v.208h-.437c-.467 0-.826.09-1.077.271-.25.181-.376.44-.376.778 0 .268.1.492.302.674.2.182.46.273.779.273zm.132-.572a.528.528 0 01-.365-.121.416.416 0 01-.136-.327c0-.168.066-.298.2-.39.132-.091.33-.137.594-.137h.384v.597a.685.685 0 01-.28.276.81.81 0 01-.397.102zm3.246.572c.355 0 .64-.13.852-.387l.036.328h.644v-4.5h-.712v1.623a1.035 1.035 0 00-.814-.352c-.381 0-.685.148-.911.444-.227.296-.34.688-.34 1.177 0 .513.115.92.344 1.218.23.3.53.449.9.449zm.182-.58a.604.604 0 01-.53-.271c-.123-.181-.185-.433-.185-.755 0-.367.062-.642.187-.825a.608.608 0 01.533-.274c.291 0 .502.127.633.381v1.354a.672.672 0 01-.638.39zm2.496-3.097c.129 0 .228-.036.298-.107a.366.366 0 00.106-.268c0-.11-.035-.2-.106-.273-.07-.072-.17-.108-.298-.108-.13 0-.228.036-.298.108a.378.378 0 00-.104.273c0 .107.035.197.104.268.07.071.169.107.298.107zm.354 3.618v-3.17h-.712V183h.712zm1.805.059c.385 0 .681-.123.89-.37l.018.311h.67v-3.17h-.711v2.276c-.121.248-.354.373-.7.373-.334 0-.501-.202-.501-.604v-2.045h-.712v2.054c0 .38.088.672.265.873.177.201.437.302.78.302zm3.498 0c.383 0 .692-.089.929-.266a.826.826 0 00.354-.692.78.78 0 00-.116-.434.931.931 0 00-.354-.306 2.635 2.635 0 00-.658-.22c-.28-.061-.465-.122-.556-.183a.289.289 0 01-.138-.255c0-.121.05-.218.148-.29a.63.63 0 01.382-.108c.168 0 .303.045.404.136.102.09.153.205.153.341h.712a.892.892 0 00-.35-.73c-.234-.187-.54-.28-.919-.28-.355 0-.648.091-.879.275a.844.844 0 00-.346.685c0 .327.178.576.534.747.162.079.364.143.606.194.242.05.416.11.52.176a.323.323 0 01.157.29.331.331 0 01-.147.28c-.097.07-.24.106-.427.106a.74.74 0 01-.466-.136.502.502 0 01-.19-.388h-.692c0 .19.057.366.17.53.113.164.271.293.475.387.203.094.434.14.694.14zm2.332-2.514c.133 0 .235-.037.308-.11a.378.378 0 00.108-.277.392.392 0 00-.108-.283c-.073-.075-.175-.112-.308-.112a.403.403 0 00-.305.112.392.392 0 00-.108.283c0 .113.037.206.111.279a.414.414 0 00.302.108zm0 2.487c.133 0 .235-.036.308-.11a.378.378 0 00.108-.276.392.392 0 00-.108-.283c-.073-.075-.175-.113-.308-.113a.403.403 0 00-.305.113.392.392 0 00-.108.283c0 .113.037.206.111.278a.414.414 0 00.302.108zm5.018-.032v-.95h.53v-.57h-.53v-2.746h-.735l-1.84 2.883.02.434h1.844V183h.711zm-.711-1.52h-1.117l1.064-1.688.053-.094v1.781z"/><path stroke="#EA475B" stroke-linecap="round" stroke-width=".4" d="M270.5 84v2M309.5 84v2M270.5 85h39"/><path fill="#EA475B" fill-rule="nonzero" d="M288.067 82v-.95h.53v-.57h-.53v-2.746h-.735l-1.84 2.883.02.434h1.843V82h.712zm-.712-1.52h-1.116l1.064-1.688.052-.094v1.781zm3.103 1.579c.469 0 .818-.156 1.047-.468.23-.311.345-.774.345-1.387v-.738c-.006-.596-.124-1.043-.353-1.342-.23-.299-.578-.448-1.045-.448-.47 0-.82.153-1.05.46-.23.306-.344.766-.344 1.38v.738c.005.596.125 1.045.359 1.349.233.304.58.456 1.041.456zm0-.569a.56.56 0 01-.524-.293c-.112-.195-.167-.492-.167-.89v-.967c.005-.375.063-.651.172-.828.11-.177.28-.265.513-.265.238 0 .412.093.522.28.109.186.164.48.164.88v.964c-.006.385-.064.668-.173.848-.11.18-.278.271-.507.271z"/><path stroke="#EA475B" stroke-linecap="round" stroke-width=".4" d="M110.5 84v2M149.5 84v2M110.5 85h39"/><path fill="#EA475B" fill-rule="nonzero" d="M128.067 82v-.95h.53v-.57h-.53v-2.746h-.735l-1.84 2.883.02.434h1.843V82h.712zm-.712-1.52h-1.116l1.064-1.688.052-.094v1.781zm3.103 1.579c.469 0 .818-.156 1.047-.468.23-.311.345-.774.345-1.387v-.738c-.006-.596-.124-1.043-.353-1.342-.23-.299-.578-.448-1.045-.448-.47 0-.82.153-1.05.46-.23.306-.344.766-.344 1.38v.738c.005.596.125 1.045.359 1.349.233.304.58.456 1.041.456zm0-.569a.56.56 0 01-.524-.293c-.112-.195-.167-.492-.167-.89v-.967c.005-.375.063-.651.172-.828.11-.177.28-.265.513-.265.238 0 .412.093.522.28.109.186.164.48.164.88v.964c-.006.385-.064.668-.173.848-.11.18-.278.271-.507.271z"/><circle cx="290" cy="110" r="10" fill="#FFF"/><circle cx="290" cy="110" r="6" fill="#EA475B" fill-opacity=".12"/><circle cx="290" cy="110" r="9.9" stroke="#EA475B" stroke-width=".2"/><path fill="#EA475B" fill-rule="nonzero" d="M289.852 111v-.379h-1.32l.695-.744c.182-.198.313-.375.393-.53a.976.976 0 00.12-.447c0-.244-.08-.436-.239-.575-.16-.138-.377-.208-.653-.208-.192 0-.36.039-.507.115a.814.814 0 00-.338.324.93.93 0 00-.118.467h.474c0-.162.043-.29.127-.384a.457.457 0 01.358-.141c.129 0 .231.042.307.125a.467.467 0 01.115.328.619.619 0 01-.087.308c-.058.102-.156.23-.292.382l-.948 1.033V111h1.913zm1.287.04c.312 0 .545-.105.698-.312.153-.208.23-.516.23-.925v-.492c-.005-.398-.083-.696-.236-.895-.153-.2-.385-.299-.696-.299-.314 0-.547.102-.7.307-.153.204-.23.51-.23.92v.492c.004.397.084.697.24.9.155.202.386.303.694.303zm0-.38a.374.374 0 01-.35-.195c-.074-.13-.111-.328-.111-.594v-.644c.004-.25.042-.434.115-.552.073-.118.187-.177.342-.177.159 0 .275.062.347.187.073.124.11.32.11.586v.643c-.004.257-.043.445-.115.565a.367.367 0 01-.338.181z"/><circle cx="130" cy="110" r="10" fill="#FFF"/><circle cx="130" cy="110" r="6" fill="#EA475B" fill-opacity=".12"/><circle cx="130" cy="110" r="9.9" stroke="#EA475B" stroke-width=".2"/><path fill="#EA475B" fill-rule="nonzero" d="M129.852 111v-.379h-1.32l.695-.744c.182-.198.313-.375.393-.53a.976.976 0 00.12-.447c0-.244-.08-.436-.239-.575-.16-.138-.377-.208-.653-.208-.192 0-.36.039-.507.115a.814.814 0 00-.338.324.93.93 0 00-.118.467h.474c0-.162.043-.29.127-.384a.457.457 0 01.358-.141c.129 0 .231.042.307.125a.467.467 0 01.115.328.619.619 0 01-.087.308c-.058.102-.156.23-.292.382l-.948 1.033V111h1.913zm1.287.04c.312 0 .545-.105.698-.312.153-.208.23-.516.23-.925v-.492c-.005-.398-.083-.696-.236-.895-.153-.2-.385-.299-.696-.299-.314 0-.547.102-.7.307-.153.204-.23.51-.23.92v.492c.004.397.084.697.24.9.155.202.386.303.694.303zm0-.38a.374.374 0 01-.35-.195c-.074-.13-.111-.328-.111-.594v-.644c.004-.25.042-.434.115-.552.073-.118.187-.177.342-.177.159 0 .275.062.347.187.073.124.11.32.11.586v.643c-.004.257-.043.445-.115.565a.367.367 0 01-.338.181z"/><path fill="#EA475B" fill-opacity=".12" d="M261 90.167h8v40h-8z"/><path fill="#EA475B" fill-rule="nonzero" d="M265 111.206c.281 0 .507-.074.676-.22a.746.746 0 00.254-.595.714.714 0 00-.12-.406.812.812 0 00-.343-.283.745.745 0 00.293-.257.661.661 0 00.107-.372c0-.242-.078-.434-.234-.576-.156-.142-.368-.213-.635-.213-.266 0-.477.07-.633.213-.156.142-.234.334-.234.576 0 .14.035.263.106.372a.74.74 0 00.29.257.778.778 0 00-.34.28.723.723 0 00-.12.41c0 .248.084.446.254.593.17.147.396.22.679.22zm0-1.69a.373.373 0 01-.288-.115.44.44 0 01-.107-.31c0-.132.036-.236.106-.312a.372.372 0 01.287-.114c.121 0 .217.04.29.12.07.08.107.182.107.305a.44.44 0 01-.107.311.373.373 0 01-.288.115zm0 1.31a.45.45 0 01-.337-.124.457.457 0 01-.122-.334c0-.142.041-.256.124-.342a.438.438 0 01.331-.129c.138 0 .25.043.333.13.084.087.126.2.126.34 0 .145-.04.258-.12.339a.45.45 0 01-.335.12z"/><path fill="#EA475B" fill-opacity=".12" d="M151 90.167h8v40h-8z"/><path fill="#EA475B" fill-rule="nonzero" d="M155 111.206c.281 0 .507-.074.676-.22a.746.746 0 00.254-.595.714.714 0 00-.12-.406.812.812 0 00-.343-.283.745.745 0 00.293-.257.661.661 0 00.107-.372c0-.242-.078-.434-.234-.576-.156-.142-.368-.213-.635-.213-.266 0-.477.07-.633.213-.156.142-.234.334-.234.576 0 .14.035.263.106.372a.74.74 0 00.29.257.778.778 0 00-.34.28.723.723 0 00-.12.41c0 .248.084.446.254.593.17.147.396.22.679.22zm0-1.69a.373.373 0 01-.288-.115.44.44 0 01-.107-.31c0-.132.036-.236.106-.312a.372.372 0 01.287-.114c.121 0 .217.04.29.12.07.08.107.182.107.305a.44.44 0 01-.107.311.373.373 0 01-.288.115zm0 1.31a.45.45 0 01-.337-.124.457.457 0 01-.122-.334c0-.142.041-.256.124-.342a.438.438 0 01.331-.129c.138 0 .25.043.333.13.084.087.126.2.126.34 0 .145-.04.258-.12.339a.45.45 0 01-.335.12z"/><path stroke="#EA475B" stroke-dasharray="2 2" stroke-linecap="round" stroke-width=".4" d="M149.5 98H93M149.5 122H93"/><path stroke="#EA475B" stroke-linecap="round" stroke-width=".4" d="M88 98v24.1M87 98h2M87 122.1h2"/><path fill="#EA475B" fill-rule="nonzero" d="M82.367 112.25v-.568h-1.98l1.043-1.117c.273-.296.47-.562.59-.795.12-.233.18-.457.18-.67 0-.367-.12-.654-.359-.862-.239-.208-.566-.312-.98-.312-.287 0-.54.057-.76.173a1.22 1.22 0 00-.507.484 1.395 1.395 0 00-.177.702h.712c0-.244.063-.436.19-.577.127-.14.306-.21.536-.21.194 0 .348.062.462.187.114.125.171.289.171.492a.928.928 0 01-.13.461 3.538 3.538 0 01-.438.573l-1.421 1.55v.489h2.868zm2.95 0v-.95h.53v-.57h-.53v-2.746h-.735l-1.84 2.883.02.434h1.843v.949h.712zm-.712-1.52H83.49l1.064-1.688.052-.094v1.781z"/><path stroke="#EA475B" stroke-linecap="round" stroke-width=".4" d="M318 91.167h2M318 129.167h2M319 91.167v38"/><path fill="#EA475B" fill-rule="nonzero" d="M326.728 112.167v-.95h.53v-.57h-.53V107.9h-.736l-1.84 2.883.02.433h1.844v.95h.712zm-.712-1.52h-1.117l1.064-1.688.053-.094v1.781zm3.102 1.578c.469 0 .818-.156 1.048-.467.229-.312.344-.774.344-1.387v-.739c-.006-.595-.124-1.042-.353-1.341-.23-.3-.578-.449-1.045-.449-.47 0-.82.154-1.05.46-.23.307-.344.767-.344 1.38v.739c.006.595.125 1.045.359 1.349.233.303.58.455 1.041.455zm0-.568a.56.56 0 01-.524-.293c-.112-.195-.167-.492-.167-.89v-.967c.006-.375.063-.651.173-.828.109-.177.28-.265.512-.265.239 0 .412.093.522.28.11.186.164.48.164.88v.964c-.006.385-.064.667-.173.848-.11.18-.278.27-.507.27z"/><circle cx="150.5" cy="109" r="1" fill="#EA475B"/><path stroke="#EA475B" stroke-linecap="round" stroke-width=".4" d="M150.5 63v46"/><path fill="#EA475B" fill-rule="nonzero" d="M147.66 59v-4.28h-.091l-1.664.612v.6l1.046-.357V59h.709zm2.64.059c.355 0 .639-.13.852-.387l.035.328h.645v-4.5h-.712v1.623a1.035 1.035 0 00-.815-.352c-.38 0-.684.148-.911.444-.227.296-.34.688-.34 1.177 0 .513.115.92.344 1.218.23.3.53.449.901.449zm.181-.58a.604.604 0 01-.529-.271c-.124-.181-.186-.433-.186-.755 0-.367.063-.642.188-.825a.608.608 0 01.533-.274c.29 0 .502.127.633.381v1.354a.672.672 0 01-.639.39zm2.804 1.74v-1.503c.209.228.487.343.835.343.375 0 .673-.146.896-.438.223-.292.334-.684.334-1.174v-.044c0-.511-.11-.911-.33-1.2-.22-.287-.522-.432-.91-.432-.359 0-.643.127-.852.381l-.029-.322h-.656v4.389h.712zm.632-1.729c-.292 0-.503-.123-.632-.369v-1.406c.127-.24.336-.36.627-.36.234 0 .414.092.54.278.126.185.19.436.19.753 0 .37-.065.648-.193.83a.614.614 0 01-.532.274z"/><circle cx="269.5" cy="109" r="1" fill="#EA475B"/><path stroke="#EA475B" stroke-linecap="round" stroke-width=".4" d="M269.5 63v46"/><path fill="#EA475B" fill-rule="nonzero" d="M266.66 59v-4.28h-.091l-1.664.612v.6l1.046-.357V59h.709zm2.64.059c.355 0 .639-.13.852-.387l.035.328h.645v-4.5h-.712v1.623a1.035 1.035 0 00-.815-.352c-.38 0-.684.148-.911.444-.227.296-.34.688-.34 1.177 0 .513.115.92.344 1.218.23.3.53.449.901.449zm.181-.58a.604.604 0 01-.529-.271c-.124-.181-.186-.433-.186-.755 0-.367.063-.642.188-.825a.608.608 0 01.533-.274c.29 0 .502.127.633.381v1.354a.672.672 0 01-.639.39zm2.804 1.74v-1.503c.209.228.487.343.835.343.375 0 .673-.146.896-.438.223-.292.334-.684.334-1.174v-.044c0-.511-.11-.911-.33-1.2-.22-.287-.522-.432-.91-.432-.359 0-.643.127-.852.381l-.029-.322h-.656v4.389h.712zm.632-1.729c-.292 0-.503-.123-.632-.369v-1.406c.127-.24.336-.36.627-.36.234 0 .414.092.54.278.126.185.19.436.19.753 0 .37-.065.648-.193.83a.614.614 0 01-.532.274z"/></g></svg>