<svg xmlns="http://www.w3.org/2000/svg" width="420" height="220"><g fill="none" fill-rule="evenodd"><path d="M0 0h420v220H0z"/><rect width="200" height="40" x="110" y="90" fill="#000000" fill-opacity=".24" stroke="#000000" stroke-opacity=".48" rx="4"/><path fill="#FFF" d="M134.167 110.833h-8.334a.833.833 0 110-1.666h8.334a.833.833 0 110 1.666M150 98h1v24h-1zM294.167 109.167h-3.334v-3.334a.833.833 0 10-1.666 0v3.334h-3.334a.833.833 0 100 1.666h3.334v3.334a.833.833 0 101.666 0v-3.334h3.334a.833.833 0 100-1.666M269 98h1v24h-1z"/><path fill="#FFF" fill-rule="nonzero" d="M211.496 114.18c0-.403-.004-.827-.01-1.272a46.02 46.02 0 00-.126-2.748c-.035-.464-.08-.914-.136-1.35a15.886 15.886 0 00-.58-2.723 9.204 9.204 0 00-.95-2.104l-1.155.737c.348.547.625 1.178.831 1.892.207.714.366 1.482.477 2.303.111.82.183 1.677.216 2.57.032.893.048 1.792.048 2.696h1.385z"/></g></svg>