<svg xmlns="http://www.w3.org/2000/svg" width="520" height="220"><g fill="none" fill-rule="evenodd"><path d="M0 0h520v220H0z"/><g transform="translate(114 62)"><circle cx="52" cy="48" r="8" fill="#FFF"/><circle cx="52" cy="48" r="6" fill="#EA475B" fill-opacity=".12"/><circle cx="52" cy="48" r="7.9" stroke="#EA475B" stroke-width=".2"/><path fill="#EA475B" fill-rule="nonzero" d="M51.225 49v-2.854h-.06l-1.11.409v.4l.697-.238V49h.473zm1.959.04a.88.88 0 00.669-.27c.17-.179.254-.413.254-.702 0-.28-.072-.508-.217-.685a.728.728 0 00-.595-.266.77.77 0 00-.584.24c.03-.26.124-.461.283-.603.159-.142.371-.215.637-.219h.058v-.392h-.048c-.456 0-.805.14-1.048.423s-.364.674-.364 1.172v.162c0 .34.088.615.264.825a.86.86 0 00.69.314zm-.004-.384a.405.405 0 01-.344-.186c-.089-.125-.133-.292-.133-.503v-.145a.514.514 0 01.477-.322c.138 0 .248.054.332.162a.668.668 0 01.125.42c0 .172-.041.31-.123.416a.4.4 0 01-.334.158z"/><circle cx="129" cy="48" r="8" fill="#FFF"/><circle cx="129" cy="48" r="6" fill="#EA475B" fill-opacity=".12"/><circle cx="129" cy="48" r="7.9" stroke="#EA475B" stroke-width=".2"/><path fill="#EA475B" fill-rule="nonzero" d="M128.225 49v-2.854h-.06l-1.11.409v.4l.697-.238V49h.473zm1.959.04a.88.88 0 00.669-.27c.17-.179.254-.413.254-.702 0-.28-.072-.508-.217-.685a.728.728 0 00-.595-.266.77.77 0 00-.584.24c.03-.26.124-.461.283-.603.159-.142.371-.215.637-.219h.058v-.392h-.048c-.456 0-.805.14-1.048.423s-.364.674-.364 1.172v.162c0 .34.088.615.264.825a.86.86 0 00.69.314zm-.004-.384a.405.405 0 01-.344-.186c-.089-.125-.133-.292-.133-.503v-.145a.514.514 0 01.477-.322c.138 0 .248.054.332.162a.668.668 0 01.125.42c0 .172-.041.31-.123.416a.4.4 0 01-.334.158z"/><path d="M10 30h4v36.5h-4z"/><path stroke="#EA475B" stroke-linecap="round" stroke-width=".4" d="M9 30.5v35.1M8 30.5h2M8 65.6h2"/><path fill="#EA475B" fill-rule="nonzero" d="M1.812 50.309c.427 0 .772-.114 1.035-.34.263-.227.394-.532.394-.914 0-.239-.06-.444-.183-.616a1.047 1.047 0 00-.535-.377c.194-.086.352-.214.474-.383a.906.906 0 00.183-.54c0-.381-.122-.679-.365-.892-.243-.214-.578-.321-1.003-.321-.258 0-.491.05-.7.15-.207.101-.37.241-.486.421-.116.18-.174.379-.174.598h.712c0-.178.062-.322.185-.432a.68.68 0 01.471-.166c.22 0 .382.056.488.169.107.112.16.27.16.473 0 .21-.064.372-.192.483-.128.111-.301.168-.52.17h-.434v.562h.42c.26 0 .458.061.591.182.133.121.2.294.2.519 0 .222-.064.392-.191.51-.127.117-.301.175-.522.175-.213 0-.382-.058-.508-.176a.596.596 0 01-.189-.457H.411c0 .364.131.655.393.873.261.22.597.329 1.008.329zm3.553 0c.414 0 .749-.135 1.004-.403.255-.269.382-.62.382-1.053 0-.42-.109-.763-.327-1.029-.217-.265-.515-.398-.892-.398-.355 0-.647.12-.876.36.045-.39.187-.692.425-.905.238-.213.557-.322.955-.328h.088v-.59h-.073c-.684 0-1.208.213-1.572.637-.364.423-.546 1.01-.546 1.757v.244c0 .51.132.921.397 1.236.264.314.61.472 1.035.472zm-.006-.575a.608.608 0 01-.515-.28c-.133-.186-.2-.437-.2-.754v-.217A.77.77 0 015.36 48c.207 0 .373.081.498.243.125.162.188.372.188.63s-.062.466-.185.624a.6.6 0 01-.5.237z"/><path stroke="#EA475B" stroke-dasharray="2 2" stroke-linecap="round" stroke-width=".4" d="M51.5 30.5H11M51.5 65.5H11"/><path stroke="#EA475B" stroke-linecap="round" stroke-width=".4" d="M42.5 8v2M61.5 8v2M42.5 9h19"/><path fill="#EA475B" fill-rule="nonzero" d="M51.152 6v-.568h-1.98l1.043-1.117c.273-.296.47-.562.59-.795.12-.233.18-.457.18-.67 0-.367-.12-.654-.359-.862-.239-.208-.565-.312-.98-.312-.287 0-.54.057-.76.173a1.22 1.22 0 00-.507.484 1.395 1.395 0 00-.177.702h.712c0-.244.064-.436.19-.577.127-.14.306-.21.537-.21.193 0 .347.062.461.187.114.125.171.289.171.492a.928.928 0 01-.13.461 3.538 3.538 0 01-.438.573l-1.42 1.55V6h2.867zm1.931.059c.469 0 .818-.156 1.047-.468.23-.311.345-.774.345-1.387v-.738c-.006-.596-.124-1.043-.353-1.342-.23-.299-.578-.448-1.045-.448-.47 0-.82.153-1.05.46-.23.306-.344.766-.344 1.38v.738c.005.596.125 1.045.359 1.349.233.304.58.456 1.041.456zm0-.569a.56.56 0 01-.524-.293c-.112-.195-.167-.492-.167-.89V3.34c.005-.375.063-.651.172-.828.11-.177.28-.265.513-.265.238 0 .412.093.522.28.109.186.164.48.164.88v.964c-.006.385-.064.668-.173.848-.11.18-.278.271-.507.271z"/><path d="M42 10h20v4H42z"/><path stroke="#EA475B" stroke-dasharray="2 2" stroke-linecap="round" stroke-width=".4" d="M42.5 12.357v34.286M61.5 12.357v34.286"/><path stroke="#EA475B" stroke-linecap="round" stroke-width=".4" d="M119.5 8v2M138.5 8v2M119.5 9h19"/><path fill="#EA475B" fill-rule="nonzero" d="M128.152 6v-.568h-1.98l1.043-1.117c.273-.296.47-.562.59-.795.12-.233.18-.457.18-.67 0-.367-.12-.654-.359-.862-.239-.208-.565-.312-.98-.312-.287 0-.54.057-.76.173a1.22 1.22 0 00-.507.484 1.395 1.395 0 00-.177.702h.712c0-.244.064-.436.19-.577.127-.14.306-.21.537-.21.193 0 .347.062.461.187.114.125.171.289.171.492a.928.928 0 01-.13.461 3.538 3.538 0 01-.438.573l-1.42 1.55V6h2.867zm1.931.059c.469 0 .818-.156 1.047-.468.23-.311.345-.774.345-1.387v-.738c-.006-.596-.124-1.043-.353-1.342-.23-.299-.578-.448-1.045-.448-.47 0-.82.153-1.05.46-.23.306-.344.766-.344 1.38v.738c.005.596.125 1.045.359 1.349.233.304.58.456 1.041.456zm0-.569a.56.56 0 01-.524-.293c-.112-.195-.167-.492-.167-.89V3.34c.005-.375.063-.651.172-.828.11-.177.28-.265.513-.265.238 0 .412.093.522.28.109.186.164.48.164.88v.964c-.006.385-.064.668-.173.848-.11.18-.278.271-.507.271z"/><path d="M119 10h20v4h-20z"/><path stroke="#EA475B" stroke-dasharray="2 2" stroke-linecap="round" stroke-width=".4" d="M119.5 12.357v34.286M138.5 12.357v34.286"/><circle cx="92" cy="48" r="1" fill="#EA475B"/><path stroke="#EA475B" stroke-linecap="round" stroke-width=".4" d="M92 17v31"/><path fill="#EA475B" fill-rule="nonzero" d="M90.1 13v-.568h-1.98l1.043-1.117c.273-.296.47-.562.59-.795.12-.233.18-.457.18-.67 0-.367-.12-.654-.359-.862-.239-.208-.566-.312-.98-.312-.287 0-.54.057-.76.173a1.22 1.22 0 00-.507.484 1.395 1.395 0 00-.177.702h.712c0-.244.063-.436.19-.577.127-.14.306-.21.536-.21.194 0 .348.062.462.187.114.125.171.289.171.492a.928.928 0 01-.13.461 3.538 3.538 0 01-.438.573l-1.421 1.55V13H90.1zm1.7.059c.355 0 .639-.13.852-.387l.035.328h.645V8.5h-.712v1.623a1.035 1.035 0 00-.815-.352c-.38 0-.684.148-.911.444-.227.296-.34.688-.34 1.177 0 .513.115.92.344 1.218.23.3.53.449.901.449zm.181-.58a.604.604 0 01-.529-.271c-.124-.181-.186-.433-.186-.755 0-.367.063-.642.188-.825a.608.608 0 01.533-.274c.29 0 .502.127.633.381v1.354a.672.672 0 01-.639.39zm2.804 1.74v-1.503c.209.228.487.343.835.343.375 0 .673-.146.896-.438.223-.292.334-.684.334-1.174v-.044c0-.511-.11-.911-.33-1.2-.22-.287-.522-.432-.91-.432-.359 0-.643.127-.852.381l-.029-.322h-.656v4.389h.712zm.632-1.729c-.292 0-.503-.123-.632-.369v-1.406c.127-.24.336-.36.627-.36.234 0 .414.092.54.278.126.185.19.436.19.753 0 .37-.065.648-.193.83a.614.614 0 01-.532.274z"/><circle cx="173" cy="48" r="1" fill="#EA475B"/><path stroke="#EA475B" stroke-linecap="round" stroke-width=".4" d="M173 17v31"/><path fill="#EA475B" fill-rule="nonzero" d="M171.1 13v-.568h-1.98l1.043-1.117c.273-.296.47-.562.59-.795.12-.233.18-.457.18-.67 0-.367-.12-.654-.359-.862-.239-.208-.566-.312-.98-.312-.287 0-.54.057-.76.173a1.22 1.22 0 00-.507.484 1.395 1.395 0 00-.177.702h.712c0-.244.063-.436.19-.577.127-.14.306-.21.536-.21.194 0 .348.062.462.187.114.125.171.289.171.492a.928.928 0 01-.13.461 3.538 3.538 0 01-.438.573l-1.421 1.55V13h2.868zm1.7.059c.355 0 .639-.13.852-.387l.035.328h.645V8.5h-.712v1.623a1.035 1.035 0 00-.815-.352c-.38 0-.684.148-.911.444-.227.296-.34.688-.34 1.177 0 .513.115.92.344 1.218.23.3.53.449.901.449zm.181-.58a.604.604 0 01-.529-.271c-.124-.181-.186-.433-.186-.755 0-.367.063-.642.188-.825a.608.608 0 01.533-.274c.29 0 .502.127.633.381v1.354a.672.672 0 01-.639.39zm2.804 1.74v-1.503c.209.228.487.343.835.343.375 0 .673-.146.896-.438.223-.292.334-.684.334-1.174v-.044c0-.511-.11-.911-.33-1.2-.22-.287-.522-.432-.91-.432-.359 0-.643.127-.852.381l-.029-.322h-.656v4.389h.712zm.632-1.729c-.292 0-.503-.123-.632-.369v-1.406c.127-.24.336-.36.627-.36.234 0 .414.092.54.278.126.185.19.436.19.753 0 .37-.065.648-.193.83a.614.614 0 01-.532.274z"/><path d="M258 22h8v52h-8z"/><path stroke="#EA475B" stroke-linecap="round" stroke-width=".4" d="M266 23h2M266 73h2M267 23v50"/><path fill="#EA475B" fill-rule="nonzero" d="M273.767 50.059c.435 0 .778-.129 1.028-.386.25-.256.375-.602.375-1.035 0-.44-.113-.79-.338-1.05-.226-.259-.542-.389-.948-.389-.248 0-.47.057-.668.17l.117-1.02h1.7v-.615h-2.292l-.231 2.15.568.141a.93.93 0 01.293-.2c.09-.034.2-.052.328-.052.237 0 .422.076.557.227.135.152.202.357.202.617 0 .27-.061.483-.183.639a.612.612 0 01-.511.234.677.677 0 01-.475-.165c-.121-.11-.195-.27-.223-.476h-.688c.021.363.16.655.417.877.257.222.581.333.972.333zm4.83-.059v-.568h-1.98l1.043-1.117c.274-.296.47-.562.59-.795.12-.233.18-.457.18-.67 0-.367-.119-.654-.358-.862-.24-.208-.566-.312-.98-.312-.287 0-.54.057-.76.173a1.22 1.22 0 00-.507.484 1.395 1.395 0 00-.178.702h.712c0-.244.064-.436.19-.577.128-.14.306-.21.537-.21.193 0 .347.062.461.187.115.125.172.289.172.492a.928.928 0 01-.13.461 3.538 3.538 0 01-.439.573l-1.42 1.55V50h2.868z"/><path stroke="#EA475B" stroke-linecap="round" stroke-width=".4" d="M34.5 85.273v2M257.5 85.273v2M34.5 86.273h223"/><path fill="#EA475B" fill-rule="nonzero" d="M130.17 94l.668-2.177.68 2.177h.586l.864-3.17h-.694l-.504 2.189-.66-2.189h-.535l-.65 2.165-.514-2.165h-.694l.867 3.17h.586zm3.677-3.618c.129 0 .229-.036.299-.107a.366.366 0 00.105-.268c0-.11-.035-.2-.105-.273-.07-.072-.17-.108-.299-.108-.129 0-.228.036-.297.108a.378.378 0 00-.104.273c0 .107.034.197.104.268.069.071.168.107.297.107zm.354 3.618v-3.17h-.711V94h.711zm1.887.059c.356 0 .64-.13.853-.387l.035.328h.644v-4.5h-.711v1.623a1.035 1.035 0 00-.815-.352c-.38 0-.684.148-.911.444-.227.296-.34.688-.34 1.177 0 .513.115.92.344 1.218.23.3.53.449.901.449zm.182-.58a.604.604 0 01-.529-.271c-.124-.181-.186-.433-.186-.755 0-.367.063-.642.188-.825a.608.608 0 01.533-.274c.29 0 .502.127.633.381v1.354a.672.672 0 01-.64.39zm3.094.58c.15 0 .306-.023.468-.068v-.55c-.084.019-.167.029-.249.029-.123 0-.208-.027-.256-.08-.048-.055-.072-.142-.072-.263v-1.77h.56v-.527h-.56v-.77h-.712v.77h-.521v.527h.521v1.796c0 .604.274.906.82.906zM141.06 94v-2.265a.686.686 0 01.639-.38c.183 0 .322.045.417.136.095.09.142.245.142.464V94h.712v-2.071c-.01-.772-.352-1.158-1.028-1.158-.356 0-.65.135-.882.405V89.5h-.712V94h.712zm3.058-2.455c.133 0 .236-.037.308-.11a.378.378 0 00.109-.277.392.392 0 00-.109-.283c-.072-.075-.175-.112-.308-.112a.403.403 0 00-.304.112.392.392 0 00-.109.283c0 .113.038.206.112.279a.414.414 0 00.301.108zm0 2.487c.133 0 .236-.036.308-.11a.378.378 0 00.109-.276.392.392 0 00-.109-.283c-.072-.075-.175-.113-.308-.113a.403.403 0 00-.304.113.392.392 0 00-.109.283c0 .113.038.206.112.278a.414.414 0 00.301.108zm4.539-.032v-4.28h-.091l-1.664.612v.6l1.046-.357V94h.709zm2.87.059c.47 0 .819-.156 1.048-.468.23-.311.344-.774.344-1.387v-.738c-.006-.596-.123-1.043-.353-1.342-.23-.299-.577-.448-1.044-.448-.47 0-.821.153-1.05.46-.23.306-.345.766-.345 1.38v.738c.006.596.126 1.045.36 1.349.233.304.58.456 1.04.456zm0-.569a.56.56 0 01-.524-.293c-.111-.195-.167-.492-.167-.89v-.967c.006-.375.064-.651.173-.828.11-.177.28-.265.513-.265.238 0 .412.093.521.28.11.186.164.48.164.88v.964c-.006.385-.063.668-.172.848-.11.18-.279.271-.507.271zm3.41.569c.47 0 .819-.156 1.048-.468.23-.311.344-.774.344-1.387v-.738c-.005-.596-.123-1.043-.353-1.342-.23-.299-.577-.448-1.044-.448-.47 0-.82.153-1.05.46-.23.306-.345.766-.345 1.38v.738c.006.596.126 1.045.36 1.349.233.304.58.456 1.04.456zm0-.569a.56.56 0 01-.524-.293c-.11-.195-.167-.492-.167-.89v-.967c.006-.375.064-.651.173-.828.11-.177.28-.265.513-.265.238 0 .412.093.521.28.11.186.165.48.165.88v.964c-.006.385-.064.668-.173.848-.11.18-.279.271-.507.271zm2.901-1.834c.27 0 .487-.082.652-.246a.85.85 0 00.248-.63v-.21c0-.268-.083-.485-.248-.65-.165-.165-.384-.247-.658-.247-.27 0-.487.082-.653.247a.856.856 0 00-.249.635v.208c0 .273.085.49.256.652.171.16.389.241.652.241zm0-.425a.382.382 0 01-.297-.124.468.468 0 01-.113-.327v-.217c0-.138.037-.25.11-.335a.37.37 0 01.294-.127.38.38 0 01.298.126.473.473 0 01.113.328v.214a.49.49 0 01-.112.338.374.374 0 01-.293.124zm.147 2.45l2.083-3.334-.367-.211-2.083 3.334.367.21zm1.907.378c.273 0 .492-.083.655-.248a.857.857 0 00.244-.628v-.208c0-.276-.084-.495-.253-.657a.903.903 0 00-.652-.243.904.904 0 00-.65.243.839.839 0 00-.255.636v.214c0 .268.083.483.25.646.167.163.387.245.66.245zm0-.422a.384.384 0 01-.297-.128.467.467 0 01-.116-.326v-.217c0-.145.037-.258.113-.34a.38.38 0 01.294-.123c.12 0 .217.04.293.123a.463.463 0 01.114.328v.22a.5.5 0 01-.107.341.372.372 0 01-.294.122z"/><path d="M34 74h224v8H34z"/></g></g></svg>