<svg xmlns="http://www.w3.org/2000/svg" xmlns:xlink="http://www.w3.org/1999/xlink" width="763" height="430" viewBox="0 0 763 430"><defs><path id="a" d="M0 0h763v429H0z"/></defs><g fill="none" fill-rule="evenodd"><mask id="b" fill="#fff"><use xlink:href="#a"/></mask><use fill="#2E294E" fill-rule="nonzero" xlink:href="#a"/><path fill="#000" fill-rule="nonzero" d="M833.238 356.23c-2.419 0-4.776-.764-7.107-1.103-2.331-.34-4.83-.279-7.127-.904-2.296-.626-4.532-1.679-6.764-2.56s-4.215-2.38-6.375-3.472c-2.159-1.09-4.333-2.056-6.42-3.315-2.087-1.259-3.953-2.827-5.963-4.196-2.01-1.37-4.162-2.503-6.104-3.949-1.942-1.446-4.06-2.72-5.97-4.197-1.912-1.476-3.58-3.433-5.468-4.959-1.464-1.145-3.196-1.908-4.646-3.052-1.98-1.553-3.678-3.434-5.62-4.883-2.025-1.492-4.387-2.346-6.363-3.712-2.068-1.427-3.785-3.35-5.803-4.643-2.113-1.354-4.15-2.762-6.207-3.975-2.159-1.275-4.467-2.14-6.565-3.27-2.205-1.182-4.266-2.571-6.402-3.601-2.255-1.087-4.524-1.992-6.703-2.915-2.289-.98-4.727-1.385-6.94-2.19-2.35-.858-4.49-2.174-6.737-2.85-2.392-.72-4.898-.595-7.176-1.144-2.43-.572-4.692-1.595-6.989-1.972-2.468-.408-4.921-.046-7.248-.256-2.495-.225-4.86-.843-7.169-.873-2.514-.027-4.917.137-7.21.305-2.526.183-4.96.053-7.226.423a74.917 74.917 0 00-7.107 1.503 66.144 66.144 0 00-6.867 2.411c-2.194.84-4.105 2.396-6.226 3.434-2.121 1.038-4.254 1.946-6.318 3.136-2.064 1.19-3.93 2.605-5.936 3.906-2.006 1.301-4.456 1.74-6.424 3.113-1.969 1.374-3.61 3.16-5.551 4.578-1.942 1.42-3.91 2.67-5.845 4.102-1.934 1.43-3.944 2.979-5.962 4.452-2.019 1.472-4.03 2.865-6.066 4.292-2.038 1.426-4.17 2.628-6.245 3.979-2.076 1.35-4.166 2.819-6.288 4.04-2.193 1.266-4.124 3.002-6.302 4.09-2.262 1.144-4.738 1.617-6.978 2.552-2.323.972-4.486 2.289-6.779 3.052-2.388.79-4.78 1.43-7.126 1.987-2.568.61-5.166.717-7.657 1.042-2.61.34-5.154.74-7.676.763-2.613.026-5.135-.618-7.63-.927-2.583-.317-5.154-.382-7.63-1.057-2.476-.675-5.036-1.282-7.416-2.32a52.956 52.956 0 01-6.959-3.849 57.023 57.023 0 01-6.485-4.681 62.913 62.913 0 01-5.768-5.658c-1.79-1.968-3.16-4.368-4.762-6.619a75.38 75.38 0 01-4.463-6.825c-1.286-2.289-2.854-4.44-3.956-6.893-1.103-2.453-1.954-4.96-2.85-7.5a100.375 100.375 0 01-2.37-7.68c-.694-2.614-1.655-5.12-2.15-7.783-.497-2.663 0-5.44-.318-8.13-.312-2.796-1.178-5.52-1.323-8.297-.145-2.778.213-5.62.21-8.393-.004-2.774-.1-5.605 0-8.393.099-2.79.564-5.578.762-8.363.199-2.785.382-5.585.615-8.362.232-2.778.64-5.566.885-8.34.14-1.556-.286-3.17-.153-4.723.187-2.136.195-4.334.416-6.432.26-2.422.382-4.826.572-7.164.202-2.469 1.084-4.834 1.072-7.15a39.993 39.993 0 00-.519-7.248c-.465-2.415-2.048-4.307-3.212-6.337-1.163-2.03-2.445-3.987-4.196-5.417-1.832-1.496-3.647-3.098-5.6-4.01-2.358-1.099-4.842-1.144-6.57-1.602a48.97 48.97 0 00-6.798-1.21 54.07 54.07 0 00-6.867-.526c-2.251.023-4.609-.496-6.97-.217-2.236.263-4.48 1.045-6.818 1.526-2.205.465-4.479.942-6.78 1.61-2.166.633-4.5.988-6.76 1.804-2.128.763-4.028 2.434-6.24 3.372-2.095.886-4.262 1.729-6.433 2.763-2.365 1.125-4.96 1.777-7.298 3.002a479.705 479.705 0 00-6.981 3.727c-2.29 1.244-4.296 3.125-6.642 4.422-2.247 1.243-4.536 2.438-6.806 3.674-2.27 1.236-4.601 2.289-6.886 3.502-2.285 1.213-4.475 2.605-6.787 3.738-2.312 1.134-4.818 1.782-7.172 2.82-2.354 1.037-4.681 2.09-7.081 3.006-2.4.916-4.86 1.526-7.306 2.289-2.445.763-4.753 2.003-7.248 2.59-2.495.588-5.002.931-7.539 1.32-2.537.39-5.05.256-7.63.424a68.49 68.49 0 01-7.553.11c-2.545-.114-5.006-.633-7.482-1.026-2.475-.393-5.043-.572-7.458-1.263-2.415-.69-4.742-1.865-7.061-2.86-2.515-1.08-5.242-1.565-7.49-2.954-2.334-1.45-4.333-3.403-6.355-5.165a47.413 47.413 0 01-5.723-5.894 45.917 45.917 0 01-4.627-6.905c-1.145-2.072-1.877-4.357-2.728-6.646-.82-2.201-1.274-4.532-1.839-6.951-.53-2.29-1.526-4.525-1.83-7.008-.283-2.324.056-4.773-.028-7.283-.08-2.343-.11-4.738 0-7.249.1-2.67-.473-5.398-.198-8.057.275-2.659 1.312-5.2 1.766-7.832.454-2.632.466-5.341 1.088-7.95.621-2.61 1.907-4.96 2.693-7.508.786-2.549 1.705-4.987 2.648-7.474.942-2.487 1.255-5.238 2.353-7.653 1.1-2.415 2.618-4.578 3.857-6.897 1.24-2.32 2.553-4.578 3.93-6.822a126.99 126.99 0 014.296-6.565c1.495-2.13 2.956-4.33 4.578-6.348 1.62-2.019 3.029-4.327 4.772-6.23 1.744-1.904 4.113-3.152 5.974-4.926 1.862-1.773 3.701-3.582 5.673-5.215 1.973-1.632 4.067-3.094 6.139-4.578 2.071-1.484 4.097-3.052 6.264-4.38 2.167-1.327 4.414-2.723 6.669-3.88 2.437 2.546 1.754 3.183 3.227 6.467 1.473 3.285.763 3.651 2.243 6.94 1.48 3.288 2.621 2.8 2.942 6.432-2.263 1.144-4.075 2.464-6.23 3.815-2.156 1.35-4.082 3.082-6.104 4.65-2.022 1.568-4.197 2.93-6.104 4.678-1.908 1.747-3.396 3.933-5.158 5.84-1.763 1.908-3.941 3.396-5.555 5.448-1.614 2.053-2.67 4.548-4.14 6.73-1.468 2.182-3.208 4.147-4.5 6.443-1.294 2.297-2.874 4.517-3.98 6.917-1.106 2.4-1.404 5.204-2.338 7.691-.935 2.487-2.251 4.822-2.995 7.382-.744 2.56-1.45 5.146-1.984 7.767-.534 2.621-.519 5.341-.84 8.012-.32 2.67-.816 5.291-.915 7.973a74.576 74.576 0 00.19 7.966c.2 2.865.169 5.574.764 7.962a30.661 30.661 0 002.796 7.462 25.732 25.732 0 005.204 6.485 32.618 32.618 0 006.638 4.723c2.205 1.168 4.937 1.404 7.672 2.167a42.148 42.148 0 007.714 1.492c2.614.219 5.242.234 7.859.046 2.518-.168 5.024-.103 7.485-.534 2.46-.431 4.894-1.088 7.325-1.751 2.43-.664 4.86-1.255 7.248-2.114 2.388-.858 4.64-1.96 6.982-2.968 2.342-1.007 4.642-1.953 6.939-3.071 2.297-1.118 4.555-2.178 6.825-3.365 2.27-1.186 4.425-2.464 6.676-3.693 2.251-1.228 4.513-2.289 6.757-3.521 2.4-1.331 4.932-2.46 7.382-3.796 2.449-1.335 4.658-3.086 7.122-4.364 2.465-1.278 5.105-2.133 7.592-3.32 2.385-1.144 4.696-2.288 7.02-3.269 2.43-1.03 4.929-1.621 7.294-2.483 2.472-.905 4.853-1.828 7.249-2.553 2.514-.763 4.806-2.231 7.248-2.792 2.556-.584 5.158-.595 7.63-.965 2.583-.382 5.12-.706 7.63-.855 2.594-.153 5.166-.702 7.68-.607 2.586.103 5.058 1.282 7.561 1.649 2.503.366 5.23-.054 7.699.595 2.388.622 4.62 1.762 6.817 2.647 2.29.924 4.647 1.732 6.714 2.923a46.993 46.993 0 016.055 4.284 42.514 42.514 0 015.272 5.31c1.66 1.908 3.296 3.873 4.544 6.043 1.213 2.11 1.831 4.49 2.628 6.677a45.715 45.715 0 011.908 6.905c.505 2.348.86 4.725 1.064 7.118.172 2.427.416 4.846.382 7.226-.057 2.45-.405 4.857-.6 7.203-.209 2.476-.827 4.837-1.071 7.138-.221 2.079 0 4.093-.168 6.008-.137 1.572-.824 3.087-.965 4.658-.225 2.549.305 5.154.091 7.66-.213 2.507-1.053 5.021-1.224 7.536-.172 2.514.35 5.127.248 7.63-.103 2.502-.336 5.073-.344 7.599-.007 2.526.107 5.07.23 7.6.121 2.529.43 5.028.709 7.553.324 2.903.435 5.723.976 8.34.588 2.861 1.072 5.642 1.877 8.187.886 2.78 2.537 5.066 3.636 7.481 1.206 2.644 2.09 5.295 3.495 7.508 1.552 2.445 2.907 4.925 4.62 6.867a43.922 43.922 0 005.91 5.669c2.288 1.763 4.848 2.804 7.091 3.784 2.243.981 4.532 1.275 6.81 1.736 2.277.462 4.578 1.301 6.928 1.324a46.394 46.394 0 007.042-.515c2.324-.332 4.716-.587 6.974-1.202 2.259-.614 4.41-1.907 6.589-2.727 2.254-.859 4.39-1.908 6.485-2.904 2.236-1.064 4.384-2.086 6.348-3.197 2.251-1.274 4.502-2.186 6.299-3.357 1.957-1.274 3.884-2.617 5.81-3.964 1.927-1.346 3.54-3.12 5.456-4.516 1.915-1.397 3.62-2.953 5.54-4.369 2.147-1.587 4.787-2.437 6.97-4.024 2.181-1.588 4.016-3.66 6.229-5.189 2.213-1.53 4.677-2.556 6.943-3.998 2.266-1.442 4.44-2.957 6.772-4.269 2.33-1.312 4.536-2.83 6.943-3.979 2.407-1.148 4.998-1.663 7.493-2.613 2.384-.912 4.643-2.072 7.03-2.77 2.39-.698 4.903-1.144 7.337-1.633 2.434-.488 4.96-.667 7.424-.976 2.465-.31 4.96-.61 7.443-.725 2.484-.115 4.986-.176 7.478-.11 2.49.064 4.993.14 7.477.38s4.96.573 7.432.977c2.472.405 5.009.462 7.45 1.015 2.442.553 4.887 1.225 7.295 1.907 2.407.683 4.791 1.588 7.164 2.4 2.373.813 4.918 1.236 7.249 2.163 2.33.927 4.627 2.129 6.916 3.155 2.29 1.026 4.578 2.236 6.83 3.354 2.25 1.117 4.497 2.434 6.694 3.635 2.263 1.24 4.727 2.007 6.867 3.285 2.232 1.331 4.33 2.827 6.433 4.174 2.2 1.415 3.96 3.471 6.004 4.875 2.179 1.503 4.46 2.67 6.444 4.124 2.163 1.591 4.09 3.32 6.005 4.815 1.476 1.144 2.83 2.521 4.326 3.704 2.04 1.614 4.124 3.193 6.184 4.792 2.06 1.598 4.09 3.304 6.18 4.822 2.09 1.518 4.502 2.67 6.654 4.051 2.216 1.427 4.437 2.793 6.676 3.972a58.648 58.648 0 007.065 3.11c2.446.903 4.96 1.32 7.436 1.739 2.476.42 4.795.915 7.347.744 1.393 3.326-.064 3.563.15 7.199.213 3.635.526 3.62.74 7.248.213 3.628.877 3.628.522 7.249-1.145.076-2.19.583-3.32.583M-23.58 214.552c2.542.585 5.051 1.3 7.52 2.14.591.202 1.274.404 1.999.614 1.85.5 3.66 1.137 5.413 1.908 2.137.973 4.41 2.155 6.944 3.609 2.369 1.358 4.536 2.846 6.55 4.25a96.459 96.459 0 016.21 4.704 56.439 56.439 0 014.197 3.933c.481.488.962.976 1.454 1.45.4.381.992.862 1.621 1.365a33.812 33.812 0 014.197 3.815 26.812 26.812 0 013.433 5.124c.294.526.695 1.247.878 1.48.412.534.93 1.145 1.476 1.759a44.037 44.037 0 013.395 4.284c.351.523.763 1.103 1.237 1.717a41.465 41.465 0 013.288 4.96c.977 1.792 1.744 3.57 2.419 5.138.29.671.576 1.34.881 2a39.008 39.008 0 011.808 4.997c.252.835.496 1.625.718 2.155.263.637.682 1.435 1.144 2.29a45.814 45.814 0 012.03 4.196c.576 1.419 1.01 2.77 1.392 3.963.317.992.614 1.908.908 2.599.359.831.702 1.67 1.05 2.51.533 1.305 1.037 2.537 1.556 3.578.43.755.907 1.481 1.43 2.175.626.881 1.336 1.88 2.03 3.025l.16.267a53.936 53.936 0 003.075 4.715c.637.73 1.326 1.414 2.06 2.045.61.561 1.301 1.198 2.007 1.908a38.184 38.184 0 012.613 2.968c.415.532.858 1.042 1.328 1.526.263.168.995.5 1.526.744a29.727 29.727 0 013.815 1.968 238.1 238.1 0 001.545.988c1.157.781 2.354 1.5 3.586 2.156 1.701.85 3.533 1.66 5.589 2.472a38.104 38.104 0 013.578 1.69c.68.378 1.383.71 2.106.996.618.115 1.242.195 1.87.24 1.491.115 2.973.339 4.433.668 1.213.294 2.346.645 3.342.95.934.303 1.884.558 2.846.763 1.339.248 2.567.572 3.65.862.89.255 1.79.463 2.702.622.991.14 2.128.213 3.338.293a77.18 77.18 0 013.239.252c.763.077 1.72.073 2.75.069 1.171 0 2.499 0 3.918.095 1.42.096 2.705.29 3.857.458 1.042.149 2.022.29 2.823.336.893.046 1.782.099 2.67.152 1.431.088 2.782.168 4.11.222 1.018.038 2.098.034 3.242.026 1.145-.007 2.37 0 3.625.03 1.423.047 2.846.085 4.269.123l3.013.084c.885.027 1.908 0 2.976-.053 1.324-.05 2.82-.107 4.387-.054 1.716.087 3.423.307 5.105.66.74.17 1.488.295 2.243.374.912.042 1.907.046 2.938.046 1.445 0 2.94 0 4.543.11.725.046 1.637.02 2.606 0a41.854 41.854 0 014.96.08c1.762.157 3.406.45 4.852.71.961.172 1.87.332 2.67.435.802.103 1.66.145 2.61.198 1.697.06 3.389.223 5.066.485 2.411.4 4.979.896 7.63 1.473 1.734.4 3.443.898 5.12 1.491.862.286 1.679.561 2.407.763 2.038.561 3.903 1.232 5.723 1.877.595.214 1.19.427 1.785.633.66.23 1.385.454 2.156.691a50.133 50.133 0 015.455 1.93c1.8.82 3.555 1.732 5.261 2.732.63.358 1.259.717 1.908 1.057 2.11 1.144 4.257 2.418 6.97 4.196a59.964 59.964 0 015.005 3.731c.511.412 1.018.824 1.526 1.225a91.865 91.865 0 016.29 5.39c.508.477 1.03.939 1.55 1.4a48.302 48.302 0 014.52 4.414c.435.5.882.985 1.328 1.473a50.148 50.148 0 014.22 5.093 32.946 32.946 0 013.128 5.898c.328.763.637 1.45.904 1.95s.679 1.144 1.102 1.827a34.407 34.407 0 013.17 5.974 43.491 43.491 0 011.908 6.795c.157.71.302 1.377.45 1.987.15.61.317 1.214.477 1.812a50.305 50.305 0 011.454 6.719c.34 2.647.553 5.463.648 8.599.073 2.407-.06 4.711-.175 6.748-.035.565-.065 1.145-.096 1.694a51.09 51.09 0 01-.679 5.723c-.137.881-.27 1.717-.354 2.449-.344 3.079-.68 5.616-1.061 8.012-.05.324-.05 1.232-.053 1.907a31.119 31.119 0 01-.458 6.07 32.55 32.55 0 01-1.667 5.478c-.252.668-.538 1.423-.622 1.785-.534 2.29-1.187 4.96-2.022 7.653-.18.573-.359 1.233-.546 1.935a43.67 43.67 0 01-1.968 5.985 61.578 61.578 0 01-3.949 7.71l-16.488-11.166a39.466 39.466 0 002.525-4.96c.371-.98.68-1.983.927-3.002.225-.82.477-1.751.763-2.712.626-2.019 1.145-4.132 1.603-6.104.39-1.571.887-3.114 1.488-4.617.236-.625.557-1.48.621-1.789.065-.309.05-1.194.05-1.854-.033-1.802.08-3.603.336-5.387.324-2.025.614-4.234.92-6.95.136-1.256.327-2.442.495-3.488.195-1.236.382-2.4.424-3.303.03-.626.068-1.255.103-1.881.099-1.728.19-3.357.148-4.78-.072-2.408-.229-4.513-.477-6.444a32.954 32.954 0 00-.877-3.815c-.202-.744-.382-1.488-.588-2.235a88.059 88.059 0 01-.59-2.598 27.155 27.155 0 00-.924-3.56c-.4-.838-.862-1.645-1.381-2.415a50.496 50.496 0 01-1.805-3.052c-.667-1.243-1.186-2.426-1.644-3.471a17.805 17.805 0 00-1.144-2.339 33.1 33.1 0 00-2.59-3.052 118.717 118.717 0 01-1.618-1.8 34.137 34.137 0 00-2.774-2.648c-.622-.553-1.266-1.145-1.934-1.755-1.644-1.526-3.254-2.923-4.929-4.223-.603-.47-1.198-.95-1.793-1.427-1.206-.973-2.346-1.908-3.403-2.575-2.259-1.462-3.998-2.507-5.635-3.384-.763-.412-1.526-.84-2.289-1.27-1.27-.722-2.468-1.4-3.532-1.866a35.51 35.51 0 00-3.487-1.202 80.319 80.319 0 01-2.759-.885c-.656-.229-1.308-.465-1.964-.698-1.557-.557-3.03-1.084-4.407-1.465a62.536 62.536 0 01-3.35-1.053 31.787 31.787 0 00-3.162-.95c-2.361-.515-4.631-.95-6.749-1.3-.847-.142-1.934-.203-3.082-.268s-2.46-.137-3.815-.305c-1.309-.164-2.507-.382-3.663-.584-1.155-.202-2.289-.412-3.265-.496-.935-.05-1.873-.05-2.808 0-1.278.035-2.724.077-4.288-.026-1.038-.065-2.19-.07-3.41-.07-1.221 0-2.423 0-3.732-.064a34.213 34.213 0 01-4.841-.694 18.957 18.957 0 00-2.289-.355c-.908-.03-1.95 0-3.052.053-1.274.046-2.72.103-4.23.057l-2.961-.08a823.23 823.23 0 01-4.38-.126 73.12 73.12 0 00-2.926-.019c-1.293 0-2.629 0-4.055-.042a224.147 224.147 0 01-4.51-.24c-.839-.053-1.682-.103-2.529-.149-1.633-.087-3.147-.305-4.479-.496-.942-.137-1.831-.267-2.598-.32-.69-.054-1.549-.05-2.457-.046a42.614 42.614 0 01-4.738-.164 64.214 64.214 0 00-2.53-.194c-1.422-.092-3.051-.199-4.71-.432a40.382 40.382 0 01-4.861-1.06c-.843-.225-1.644-.439-2.29-.561a42.38 42.38 0 01-4.898-1.286 42.716 42.716 0 00-2.258-.652 17.873 17.873 0 00-1.854-.233 26.705 26.705 0 01-5.581-.988 30.745 30.745 0 01-5.166-2.247c-.702-.381-1.366-.71-1.846-.9a87.093 87.093 0 01-7.062-3.132 54.959 54.959 0 01-5.39-3.182l-1.355-.87c-.29-.18-.95-.477-1.526-.74a24.95 24.95 0 01-5.486-3.147 28.063 28.063 0 01-4.399-4.532c-.473-.584-.923-1.145-1.255-1.465-.416-.416-.9-.863-1.415-1.336a35.33 35.33 0 01-4.368-4.578 70.494 70.494 0 01-4.35-6.577l-.156-.263c-.305-.504-.763-1.122-1.21-1.774a36.452 36.452 0 01-3.085-4.937c-.859-1.732-1.568-3.46-2.19-4.986-.29-.702-.58-1.408-.878-2.102a47.34 47.34 0 01-1.66-4.578c-.29-.904-.56-1.755-.827-2.41-.267-.657-.694-1.462-1.145-2.332-.618-1.167-1.312-2.491-1.945-4.013-.634-1.522-1.05-2.892-1.427-4.124a22.055 22.055 0 00-.786-2.316c-.381-.813-.732-1.637-1.087-2.464-.546-1.267-1.065-2.465-1.583-3.434a25.942 25.942 0 00-1.755-2.552c-.538-.729-1.145-1.55-1.748-2.442a28.048 28.048 0 00-1.907-2.338 56.871 56.871 0 01-2.179-2.61 30.68 30.68 0 01-2.598-4.09c-.29-.522-.682-1.232-.866-1.472a19.666 19.666 0 00-1.82-1.568c-.9-.721-1.907-1.526-2.96-2.545a54.083 54.083 0 01-1.747-1.755c-.98-.988-1.907-1.907-2.754-2.624a74.454 74.454 0 00-4.96-3.75c-1.67-1.145-3.433-2.381-5.15-3.362-2.026-1.144-3.788-2.082-5.395-2.815a24.5 24.5 0 00-2.903-.965 60.227 60.227 0 01-2.823-.874 57.946 57.946 0 00-5.722-1.633l4.6-20.547z" mask="url(#b)" opacity=".12"/><g fill="#000" fill-rule="nonzero" mask="url(#b)" opacity=".12"><path d="M607.81 171.103c0-.305 0-.614.03-.912a8.85 8.85 0 01.096-.904c.067-.294.15-.584.248-.87.076-.293.229-.557.328-.835.1-.278.145-.595.27-.862.127-.267.295-.523.443-.763.15-.24.279-.53.45-.763.172-.233.405-.431.596-.653.2-.21.412-.41.633-.599.21-.202.382-.427.626-.606.244-.18.42-.42.66-.58.24-.16.473-.343.728-.48.26-.126.526-.238.798-.336a7.63 7.63 0 01.809-.302c.28-.052.565-.089.85-.11.279-.054.55-.168.836-.195.286-.027.568 0 .854 0 .286 0 .58-.069.859-.042.285.025.57.066.85.122.28.071.554.157.824.256.28.071.554.156.825.255.267.111.488.328.74.462.251.133.518.256.763.416.244.16.42.408.648.587.23.18.473.332.683.534.21.203.48.344.675.565.195.221.382.443.569.683.187.24.301.523.45.763.156.256.298.52.427.79.126.27.18.58.282.862.104.282.138.58.214.873.076.294.164.569.218.87.053.302.095.588.122.89.026.3.06.598.06.903 0 .306-.057.6-.083.897-.027.297.053.622 0 .915-.054.294-.18.58-.256.87-.076.29-.233.55-.336.828-.103.279-.156.588-.282.855-.126.267-.328.492-.477.763-.149.27-.278.522-.45.763-.172.24-.267.553-.458.763-.19.21-.473.35-.683.557-.21.206-.381.465-.602.648-.222.183-.523.252-.763.412-.24.16-.485.305-.737.439-.251.133-.465.381-.732.484a8.565 8.565 0 01-1.652.458c-.279.054-.565.023-.85.05a8.27 8.27 0 01-.848.202 8.095 8.095 0 01-.854-.126c-.283-.027-.557-.126-.836-.18a8.67 8.67 0 01-.824-.205c-.27-.08-.534-.202-.797-.31-.263-.106-.553-.163-.805-.297-.252-.133-.53-.236-.763-.381-.233-.145-.416-.428-.645-.607-.229-.18-.416-.404-.625-.606-.21-.203-.493-.325-.687-.55-.195-.225-.317-.503-.488-.744-.187-.23-.361-.47-.523-.717-.149-.256-.305-.511-.431-.782-.126-.27-.16-.584-.263-.866-.103-.282-.294-.53-.382-.82a7.864 7.864 0 01-.214-.885c-.053-.298.046-.615 0-.916-.045-.301-.14-.595-.14-.896m.392-40.645c0-.306 0-.61.03-.908.031-.298.046-.61.096-.905.05-.293.172-.583.248-.873.076-.29.229-.553.332-.832.103-.278.141-.595.267-.862.126-.267.294-.523.446-.763.153-.24.279-.53.447-.763.168-.233.404-.431.595-.652.202-.21.415-.41.637-.6.21-.202.381-.427.626-.61.244-.183.415-.416.66-.576.234-.173.477-.333.728-.48.252-.134.53-.23.798-.34.267-.11.534-.218.808-.301.275-.084.569-.054.851-.107.275-.08.554-.145.836-.195.278-.027.564 0 .854 0 .285-.029.572-.043.859-.042.285.026.57.066.85.122.28.072.554.157.824.256.28.071.554.157.824.255.255.141.502.295.74.462.256.137.516.256.763.416.227.185.443.38.649.587.229.184.473.332.683.535.21.202.484.343.675.564.19.221.382.443.572.683.191.24.302.519.45.763.15.244.298.519.428.79.13.27.175.576.278.858.103.282.142.584.218.874.076.29.16.572.213.873.054.302.096.588.123.89.026.3.06.594.06.9 0 .305-.057.602-.08.9-.022.298.054.618 0 .916-.053.297-.179.58-.259.866-.08.286-.233.553-.332.831-.099.279-.156.584-.282.855-.126.27-.328.492-.48.763-.153.27-.28.522-.451.763-.172.24-.267.55-.458.763-.19.213-.473.35-.683.557-.21.206-.381.465-.599.645-.217.179-.526.255-.763.412-.237.16-.483.308-.736.442-.252.134-.462.382-.729.485-.267.104-.54.194-.816.27-.27.084-.557.13-.836.187-.278.058-.568.023-.854.05-.286.027-.557.202-.843.202-.286 0-.572-.099-.855-.126-.282-.026-.557-.126-.835-.179a7.332 7.332 0 01-1.622-.515c-.267-.11-.553-.164-.805-.298-.251-.133-.534-.236-.763-.381-.228-.145-.415-.427-.64-.607a8.58 8.58 0 01-.626-.61c-.21-.202-.496-.324-.687-.546-.19-.22-.32-.503-.492-.744-.172-.24-.381-.457-.523-.717-.14-.26-.301-.511-.43-.782-.13-.27-.157-.584-.26-.866-.103-.282-.294-.53-.382-.824a7.985 7.985 0 01-.21-.881c-.053-.298.042-.614 0-.916-.041-.301-.144-.595-.144-.9m50.358-33.244c0-.305 0-.61.03-.908.016-.303.048-.605.095-.904a8.47 8.47 0 01.248-.874c.077-.29.23-.553.328-.835.1-.283.145-.592.271-.862.126-.271.294-.52.443-.763.149-.245.278-.53.45-.763.172-.233.404-.432.595-.657.191-.225.424-.381.634-.595.21-.213.381-.427.625-.61s.42-.42.66-.576c.24-.157.477-.347.729-.48.252-.134.534-.23.797-.34.263-.111.534-.218.809-.302.275-.084.572-.053.85-.11.28-.058.55-.165.836-.191a7.97 7.97 0 01.855 0c.286 0 .58-.073.858-.046.279.027.576.069.85.122.28.073.555.16.825.26.275.083.56.144.824.251.263.107.488.332.74.466.262.125.516.263.763.416.24.156.42.404.649.587.228.183.473.328.682.534.21.206.481.34.676.565.194.225.381.439.568.683.187.244.302.519.45.763.156.255.299.519.428.79.126.266.179.575.282.858.103.282.137.583.214.873.076.29.164.573.217.87.053.298.095.592.122.893.027.301.061.595.061.9 0 .305-.057.603-.084.9-.026.298.057.619 0 .912-.057.294-.18.58-.255.87-.077.29-.233.553-.336.832-.103.278-.157.584-.282.854-.126.271-.329.493-.477.763-.15.271-.279.523-.45.763-.172.24-.268.55-.458.763-.191.214-.473.351-.683.554-.19.226-.391.442-.603.648-.225.183-.523.252-.763.412-.24.16-.484.305-.736.443-.252.137-.466.381-.733.484a12.03 12.03 0 01-.816.271c-.275.084-.553.13-.836.187-.282.057-.564.023-.85.05-.286.026-.561.202-.847.202-.286 0-.573-.1-.851-.126a30.371 30.371 0 01-1.663-.382 8.393 8.393 0 01-.798-.309c-.263-.106-.55-.16-.805-.293-.255-.134-.53-.237-.763-.382a8.74 8.74 0 01-.644-.606c-.225-.18-.416-.405-.626-.607-.21-.202-.492-.324-.687-.546-.194-.22-.316-.503-.488-.763-.172-.259-.382-.461-.523-.717-.14-.255-.305-.511-.43-.763-.127-.252-.161-.583-.264-.866-.103-.282-.294-.53-.382-.824a8.005 8.005 0 01-.213-.881c-.054-.298.046-.614 0-.92-.046-.305-.141-.59-.141-.896m31.908 22.394c0-.305 0-.61.03-.908.031-.298.047-.61.096-.904.05-.294.172-.584.248-.874.076-.29.23-.553.332-.835.103-.283.141-.592.267-.862.126-.271.294-.52.443-.763.148-.245.278-.53.45-.763.172-.233.404-.432.595-.657.19-.225.427-.381.637-.595.21-.213.382-.427.622-.61s.42-.42.66-.576c.24-.157.477-.347.732-.48.256-.134.53-.23.798-.34.267-.111.534-.218.809-.302.274-.084.568-.053.85-.11.283-.058.55-.164.836-.191.283-.016.567-.016.85 0 .29 0 .58-.073.859-.046a9.4 9.4 0 01.854.122c.279.054.554.176.824.26.271.083.561.144.825.251.263.107.484.332.74.466.255.133.515.255.763.412.226.186.442.383.648.591.237.166.465.345.683.534.235.177.46.365.675.565.191.221.382.439.573.683.19.244.297.519.45.763.152.244.297.522.423.793s.18.576.283.859c.103.282.137.583.217.873.08.29.16.572.214.87.053.298.095.591.122.893.026.301.06.595.06.9 0 .305-.057.603-.08.9-.022.298.054.618 0 .912-.069.295-.154.585-.255.87-.098.283-.21.56-.336.832-.103.282-.152.583-.278.854-.126.271-.332.492-.48.763-.15.271-.28.523-.451.763-.172.24-.267.55-.458.763a8.694 8.694 0 01-.683.557c-.21.206-.381.466-.599.649-.217.183-.526.252-.763.412a8.36 8.36 0 01-.736.442c-.256.138-.462.382-.729.485-.267.103-.541.187-.816.27-.275.085-.557.13-.84.188-.282.057-.564.023-.85.05-.286.026-.557.201-.847.201-.29 0-.572-.099-.85-.125a30.371 30.371 0 01-1.664-.382 8.328 8.328 0 01-.794-.309 8.515 8.515 0 01-.808-.294c-.252-.137-.53-.236-.763-.381a8.69 8.69 0 01-.641-.607 8.527 8.527 0 01-.626-.606c-.21-.203-.496-.325-.687-.546-.19-.221-.32-.504-.492-.744s-.381-.461-.523-.717c-.14-.256-.305-.511-.43-.782-.127-.271-.157-.584-.26-.866-.103-.282-.294-.53-.382-.824a7.985 7.985 0 01-.21-.881c-.053-.298.043-.615 0-.92-.041-.305-.14-.591-.14-.896m-44.472 13.417c0-.301 0-.61.03-.908.031-.298.046-.61.096-.904.05-.294.172-.584.248-.874.076-.29.229-.553.332-.831.103-.279.141-.596.27-.863a8.69 8.69 0 01.443-.763c.149-.255.279-.53.45-.763.172-.232.382-.43.592-.652.21-.221.427-.382.637-.599.198-.213.407-.415.625-.607.21-.204.43-.397.66-.58.24-.16.474-.343.73-.48.255-.137.53-.229.796-.34.268-.11.535-.217.81-.301.274-.084.568-.053.85-.107.275-.08.554-.145.835-.194.279-.027.565 0 .855 0 .29 0 .576-.07.858-.042.286.025.57.066.851.122.279.071.554.156.824.255.279.072.554.157.824.256.255.14.502.295.74.462.256.137.515.255.763.415.248.16.42.409.645.588.225.18.473.332.683.534.21.202.484.343.675.565.191.22.382.442.572.682.191.24.302.523.45.763.15.24.298.52.428.79.13.271.175.576.278.859.103.282.142.583.218.873.076.29.16.572.214.874.053.301.095.587.122.889.026.301.064.599.064.9 0 .301-.057.603-.083.9-.027.298.053.618 0 .916-.054.298-.18.58-.256.866-.076.286-.237.553-.336.832-.099.278-.156.587-.282.854a8.58 8.58 0 01-.48.763c-.15.26-.28.523-.447.763-.168.24-.271.55-.462.763-.19.214-.473.351-.683.557-.21.206-.381.466-.599.649a8.63 8.63 0 01-.763.408c-.237.16-.483.308-.736.442-.252.134-.462.382-.729.485-.266.106-.539.196-.816.27-.27.085-.557.13-.835.188-.279.057-.569.023-.855.05a2.289 2.289 0 01-1.698.076c-.286-.027-.557-.126-.835-.18a7.332 7.332 0 01-1.622-.515c-.267-.11-.553-.164-.805-.297-.251-.134-.534-.237-.763-.382-.228-.145-.415-.427-.64-.606a8.58 8.58 0 01-.626-.61c-.21-.203-.496-.325-.687-.546-.19-.222-.32-.504-.488-.744-.168-.24-.382-.458-.527-.717-.145-.26-.301-.512-.43-.782-.13-.271-.157-.584-.26-.866a8.889 8.889 0 01-.382-.824 9.572 9.572 0 01-.213-.882c-.054-.297.046-.614 0-.915-.046-.302-.145-.596-.145-.9"/></g><path fill="#000" fill-rule="nonzero" d="M433.09 64.943c0-1.301 0-2.61.126-3.88s.187-2.61.405-3.869c.217-1.258.72-2.49 1.049-3.723.328-1.232.965-2.373 1.4-3.567.435-1.194.599-2.533 1.144-3.685.546-1.152 1.24-2.22 1.873-3.312.634-1.09 1.18-2.289 1.908-3.3.729-1.01 1.705-1.835 2.514-2.788.809-.954 1.793-1.69 2.67-2.556.878-.866 1.683-1.82 2.644-2.598.962-.779 1.767-1.79 2.79-2.473 1.021-.683 2.002-1.472 3.082-2.048a36.079 36.079 0 013.368-1.446c1.114-.466 2.255-.935 3.415-1.29 1.16-.354 2.41-.229 3.601-.465 1.19-.237 2.32-.713 3.525-.832 1.206-.118 2.396-.05 3.61-.05 1.212 0 2.444-.297 3.627-.179 1.183.119 2.43.286 3.601.52 1.172.232 2.335.762 3.484 1.102 1.148.34 2.365.618 3.479 1.083 1.114.466 2.06 1.408 3.128 1.984 1.068.576 2.182 1.087 3.201 1.766 1.019.68 1.782 1.74 2.74 2.514.957.775 1.998 1.412 2.883 2.29.885.877 2.045 1.46 2.854 2.41.809.95 1.686 1.889 2.411 2.919.725 1.03 1.27 2.224 1.907 3.323.638 1.099 1.263 2.216 1.801 3.376.538 1.16.763 2.468 1.187 3.674.423 1.206.587 2.484.915 3.731.328 1.248.683 2.445.904 3.72.222 1.274.409 2.514.52 3.815.11 1.3.262 2.544.262 3.845 0 1.301-.244 2.568-.35 3.842-.107 1.274.228 2.648 0 3.906-.23 1.26-.764 2.48-1.08 3.712-.317 1.233-.988 2.354-1.42 3.552-.43 1.198-.652 2.495-1.186 3.647-.534 1.152-1.392 2.102-2.022 3.197-.63 1.095-1.179 2.228-1.907 3.258-.729 1.03-1.145 2.35-1.938 3.304-.794.954-2 1.507-2.884 2.377-.886.87-1.584 1.987-2.541 2.77-.958.782-2.213 1.075-3.235 1.758a37.04 37.04 0 01-3.11 1.885c-1.075.576-1.957 1.598-3.082 2.068-1.13.44-2.283.821-3.453 1.144-1.144.351-2.346.557-3.532.794-1.187.236-2.396.099-3.602.217-1.205.118-2.361.858-3.574.858-1.214 0-2.42-.415-3.602-.53-1.182-.114-2.361-.542-3.532-.763a33.552 33.552 0 01-3.487-.881 36.052 36.052 0 01-3.369-1.32c-1.122-.47-2.335-.69-3.403-1.263-1.068-.572-2.247-1.007-3.266-1.686-1.018-.68-1.758-1.816-2.712-2.59-.954-.775-1.755-1.729-2.644-2.595-.889-.866-2.09-1.384-2.9-2.338-.808-.954-1.35-2.152-2.075-3.182-.724-1.03-1.575-1.957-2.209-3.052-.633-1.095-1.285-2.19-1.823-3.35-.538-1.16-.668-2.49-1.103-3.7-.435-1.21-1.24-2.262-1.568-3.51-.328-1.247-.675-2.495-.896-3.773-.221-1.278.187-2.62.076-3.914-.11-1.293-.603-2.533-.603-3.838m-266.031 51.823c1.908 1.747 1.816 1.843 3.712 3.594 1.896 1.75 1.908 1.743 3.796 3.494 1.888 1.751 1.885 1.759 3.78 3.51 1.897 1.751 2.152 1.434 4.048 3.182 1.896 1.747 1.564 2.159 3.46 3.906 1.897 1.748 2.148 1.439 4.044 3.186 1.896 1.747 1.633 2.079 3.53 3.815 1.895 1.736 1.834 1.823 3.73 3.574 1.896 1.752 3.968.565 3.495 3.19-.473 2.625-1.965.763-4.334 1.633-2.369.87-2.262 1.205-4.631 2.083-2.37.877-2.263 1.198-4.632 2.075-2.369.877-2.49.496-4.86 1.373-2.37.878-2.403.763-4.773 1.637-2.369.874-2.289 1.103-4.665 1.98-2.377.877-2.316 1.034-4.685 1.908-2.37.873-2.411.763-4.78 1.632-2.37.87-2.29 1.095-4.666 1.973-2.377.877-2.438.667-4.807 1.526-2.37.858-2.56.278-4.929 1.144-2.37.866-2.083 1.755-4.452 2.633-2.37.877-2.67-.058-5.04.82-2.369.877-2.342.954-4.711 1.827-2.37.874-2.152 1.545-4.521 2.423-2.37.877-2.465.58-4.834 1.457-2.369.877-2.441.652-4.81 1.526-2.37.874-2.446 3.32-4.346 1.568-1.9-1.751.271-2.197.763-4.822.493-2.625.119-2.697.592-5.341s.381-2.644.847-5.273c.465-2.628.892-2.536 1.365-5.161.473-2.625.382-2.644.863-5.269.48-2.624-.039-2.731.435-5.34.473-2.61 1.503-2.416 1.976-5.04.473-2.625-.08-2.74.381-5.368.462-2.629.542-2.61 1.015-5.238.473-2.629.832-2.552 1.305-5.177.473-2.625.03-2.712.503-5.341s.359-2.648.832-5.272c.473-2.625.622-2.595 1.095-5.22.473-2.624.763-2.57 1.22-5.195.458-2.625-.217-2.766.256-5.39.473-2.626.435-2.637.904-5.262.47-2.624 1.32-2.453 1.793-5.078.474-2.624-1.663-3.97.706-4.848 2.37-.878 2.083.835 3.98 2.586 1.895 1.751 1.712 1.973 3.608 3.724 1.896 1.75 1.988 1.636 3.884 3.384 1.896 1.747 1.843 1.812 3.739 3.563 1.896 1.75 1.37 2.396 3.265 4.143 1.896 1.747 2.171 1.411 4.067 3.162 1.896 1.752 2.049 1.56 3.945 3.308 1.896 1.747 1.907 1.747 3.815 3.472 1.907 1.724 1.835 1.827 3.735 3.578" mask="url(#b)" opacity=".12"/><path fill="#EA475B" fill-rule="nonzero" d="M275.996 311.914c4.262 1.145 6.25 1.412 1.877-4.154-4.307-5.486-8.523-7.733-8.652-7.802 1.824.034 3.644.162 5.455.382 3.052.427 4.628-2.85 1.557-4.578-3.071-1.729-13.627-7.771-17.984-8.195a51.558 51.558 0 00-2.533-.172l-.08 1.084-1.351-1.145c.473 0 .954.03 1.43.061v-.183c.458-.16-5.44-6.432-5.44-6.432 5.555-1.934 11.033-3.739 12.208-4.017-3.021-3.365-9.919-6.71-18.193-5.288-2.311.414-4.595.964-6.84 1.648-2.045-3.75-11.827-11.609-11.827-11.609 2.35-1.83 4.082-3.433 4.483-4.387-3.37-1.747-7.497-1.82-11.758-1.041l-.988-.733c-2.335-.816-10.64-8.095-11.16-9.636-.518-1.542-9.865-9.95-13.066-11.629-3.2-1.678-11.197-9.4-15.26-13.642-1.388-4.116-15.1-16.561-17.587-19.838-.294-4.937-5.978-11.445-5.978-11.445 4.372-.027 7.97-.023 9.751.221 6.253.866 18.694-.583 20.636-.316 1.941.267 11.952 2.151 18.273 2.537 6.322.385 15.7-5.418 14.944-6.993-.756-1.576-5.753-4.472-13.513-5.059-7.76-.588-28.834-7.687-37.005-10.59-8.172-2.904-21.406-10.03-26.423-12.69-5.017-2.658-19.777-5.962-28.529-6.439-8.751-.477-15.55 2.495-20.723 4.471-5.173 1.976-4.421 1.835-22.417.805-17.995-1.03-71.954-18.747-71.954-18.747l-15.95 58.873s52.478 6.665 61.71 7.173c8.992.492 18.652 3.815 19.17 4.002-2.506-4.994-3.257-8.535-3.41-11.571l3.434 11.578c1.766 3.533 4.418 7.783 8.35 13.105 9.493 12.845 34.507 35.678 42.454 40.214 7.947 4.536 16.263 15.26 24.55 19.101 8.286 3.842 18.067 2.266 22.352 1.393a76.426 76.426 0 012.67-.447s19.75 13.616 23.573 15.26c3.823 1.645 29.296-1.67 32.927-1.43 1.24.08 3.545-.656 6.104-1.713 0 0 8.947 5.745 12.86 6.665 3.293.763 10.34 1.526 16.668 1.571.279.165 16.958 10.64 21.185 11.777zM247.67 281.75l-8.523 3.155c1.908-.805 5.09-1.976 8.488-3.185l2.526-.897-2.491.927z" mask="url(#b)"/><path fill="#2F2951" fill-rule="nonzero" d="M203.565 192.25c-.218 0-.432 0-.641-.02-4.933-.301-12.102-1.526-15.95-2.16-1.111-.182-1.946-.323-2.374-.38-.625-.084-2.743.041-5.196.19-4.791.294-11.353.698-15.44.126-1.983-.275-6.408-.24-11.536-.198-11.27.087-25.297.198-29.074-2.583a.649.649 0 01.763-1.042c3.434 2.526 17.805 2.415 28.3 2.331 5.173-.042 9.644-.076 11.723.214 3.957.55 10.446.153 15.18-.137 2.728-.168 4.7-.286 5.452-.183.435.06 1.286.202 2.411.381 3.815.645 10.953 1.843 15.817 2.144 6.047.382 14.02-4.822 14.295-6.104-.656-1.171-5.15-4.059-12.971-4.65-8.977-.683-34.335-9.61-37.181-10.625-7.657-2.716-19.613-9.068-25.359-12.117l-1.144-.61c-4.906-2.598-19.426-5.856-28.254-6.344-7.9-.431-14.134 1.983-19.147 3.93l-1.297.499-.279.107c-4.635 1.77-4.635 1.77-18.674.957l-3.731-.217c-17.874-1.023-71.578-18.606-72.104-18.781a.649.649 0 01-.093-1.193.645.645 0 01.494-.036c.541.176 54.085 17.706 71.786 18.72l3.735.214c13.761.801 13.761.801 18.137-.874l.278-.106 1.305-.5c5.124-1.988 11.502-4.464 19.682-4.014 8.965.493 23.763 3.815 28.788 6.486l1.144.61c5.723 3.052 17.618 9.355 25.18 12.044 10.319 3.663 29.687 10.007 36.84 10.553 7.737.583 13.132 3.528 14.047 5.428.142.29.214.763-.244 1.461-1.499 2.255-9.049 6.478-14.668 6.478z" mask="url(#b)"/><path fill="#2F2951" fill-rule="nonzero" d="M217.383 255.987a.713.713 0 01-.214-.035c-2.423-.847-10.957-8.26-11.56-10.045-.381-1.167-9.415-9.5-12.776-11.258-3.25-1.694-11.19-9.343-15.428-13.764a.675.675 0 01-.145-.24c-.858-2.545-7.157-8.924-11.758-13.582-2.598-2.632-4.84-4.906-5.722-6.085a.618.618 0 01-.13-.351c-.278-4.662-5.772-11.01-5.825-11.063a.646.646 0 11.972-.851c.237.27 5.692 6.577 6.127 11.647.912 1.144 3.052 3.315 5.51 5.806 4.863 4.93 10.902 11.064 12.005 13.933 4.506 4.688 12.074 11.887 15 13.417 2.992 1.564 12.762 10.083 13.403 11.99.438 1.298 8.534 8.459 10.762 9.237a.645.645 0 01-.214 1.255l-.007-.011z" mask="url(#b)"/><path fill="#2F2951" fill-rule="nonzero" d="M150.105 281.928c-4.818 0-9.125-.843-12.73-2.517-4.56-2.118-9.122-6.265-13.536-10.278-3.67-3.338-7.462-6.79-11.064-8.847-7.695-4.391-33-27.334-42.651-40.39-10.057-13.608-11.655-20.288-11.893-25.03a.65.65 0 01.615-.679.657.657 0 01.676.615c.229 4.55 1.793 10.994 11.643 24.324 9.572 12.971 34.64 35.693 42.251 40.057 3.724 2.125 7.573 5.628 11.293 9.012 4.341 3.948 8.831 8.011 13.21 10.063 5.7 2.648 13.292 3.11 21.956 1.343 1.908-.381 10.842-1.636 20.296-2.956 11.796-1.648 25.179-3.518 26.705-3.972 2.705-.8 19.552-11.521 22.348-15.26-8.446-3.761-21.406 2.488-29.226 6.257-2.091 1.007-3.747 1.804-4.845 2.178a.656.656 0 01-.298.027c-6.459-.897-16.519.034-23.172.652-5.341.496-6.436.565-6.902.245-.213-.145-.847-.13-1.457-.115-1.068.03-2.53.065-3.98-.599a.591.591 0 01-.201-.149c-2.247-2.422-13.639-8.393-18.427-9.278a.646.646 0 11.237-1.27c5.139.965 16.404 6.867 19.04 9.572a7.493 7.493 0 003.3.43c.851 0 1.595-.037 2.144.295.565.103 3.266-.153 6.124-.416 6.664-.618 16.71-1.55 23.317-.672 1.03-.381 2.598-1.121 4.559-2.067 8.229-3.968 22.005-10.606 31-5.94a.649.649 0 01.298.824c-.927 2.2-7.458 6.806-11.27 9.354-5.257 3.514-10.739 6.73-12.207 7.168-1.618.481-14.46 2.29-26.881 4.014-9.434 1.316-18.346 2.56-20.22 2.941a50.27 50.27 0 01-10.052 1.065z" mask="url(#b)"/><path fill="#2F2951" fill-rule="nonzero" d="M62.307 207.07a.718.718 0 01-.218-.034c-.095-.038-9.965-3.487-19.006-3.979-9.16-.48-61.242-7.111-61.776-7.176a.649.649 0 01-.561-.725.652.652 0 01.72-.56c.527.068 52.56 6.672 61.678 7.168 9.228.503 19.266 4.013 19.365 4.051a.645.645 0 01-.214 1.256h.012zm128.515 89.058c-2.289 0-3.982-.149-4.822-.507-3.815-1.64-22.87-14.753-23.68-15.31a.645.645 0 01.733-1.053c.198.137 19.743 13.597 23.459 15.184 2.338 1.003 14.592-.073 22.703-.786 4.852-.424 8.686-.763 10.003-.675h.167c3.53 0 15.829-6.394 17.584-7.726 1.587-1.198 19.265-7.294 24.309-8.812-3.327-3.052-9.683-5.555-16.859-4.327-8.43 1.45-19.101 6.009-20.982 7.726a.652.652 0 01-.618.145c-4.513-1.328-25.56-.382-29.96 2.312a.656.656 0 01-.686 0c-2.262-1.454-5.368-5.418-5.501-5.586a.649.649 0 011.022-.793c.027.034 2.808 3.582 4.864 5.074 5.257-2.652 25.042-3.567 30.288-2.331 2.735-2.11 13.268-6.425 21.364-7.813 8.286-1.42 15.405 1.736 18.788 5.493a.645.645 0 01-.335 1.06c-2.629.615-23.451 7.791-24.905 8.894-1.632 1.232-14.634 8.229-18.62 7.977-1.214-.084-5.197.267-9.805.671-7.436.641-14.112 1.183-18.51 1.183zm-14.542-30.024a.649.649 0 01-.622-.47c-.271-.98-4.197-5.043-6.867-7.63a.645.645 0 01.893-.93c1.125 1.076 6.767 6.531 7.248 8.202a.649.649 0 01-.45.797.672.672 0 01-.202.03zm23.702-2.51a.652.652 0 01-.602-.405c-2.152-5.34-17.412-13.493-17.55-13.577a.648.648 0 01.607-1.145c.645.343 15.829 8.454 18.16 14.234a.649.649 0 01-.615.893z" mask="url(#b)"/><path fill="#2F2951" fill-rule="nonzero" d="M219.61 279.525h-.034a.64.64 0 01-.61-.679c.152-2.835-4.96-6.608-6.955-7.82a.649.649 0 01.675-1.107c.317.194 7.794 4.814 7.57 8.996a.649.649 0 01-.646.61zm55.589 21.478a4.78 4.78 0 01-.61-.041c-3.178-.443-9.538-.538-16.21-.245-6.818.302-16.21-.568-20.369-1.526-3.983-.927-12.696-6.512-13.066-6.748a.65.65 0 11.702-1.088c.088.058 8.893 5.704 12.654 6.577 4.078.95 13.303 1.805 20.021 1.507 6.718-.297 13.2-.198 16.443.252 1.339.183 2.186-.465 2.415-1.144.267-.794-.206-1.622-1.263-2.213l-.687-.382c-3.582-2.01-13.104-7.355-17.041-7.736a95.089 95.089 0 00-9.996-.23.515.515 0 01-.186-.022l-9.03-2.427a.649.649 0 01.335-1.25l8.939 2.403a95.184 95.184 0 0110.064.24c4.196.408 13.554 5.654 17.549 7.893l.683.382c1.938 1.08 2.212 2.693 1.857 3.75-.423 1.263-1.697 2.048-3.204 2.048z" mask="url(#b)"/><path fill="#2F2951" fill-rule="nonzero" d="M279.361 313.212c-.858 0-2.037-.29-3.533-.691-4.307-1.145-20.654-11.41-21.364-11.85a.646.646 0 11.687-1.094c.172.107 16.878 10.59 20.983 11.696.835.222 3.013.805 3.52.619 0-.21-.19-1.034-2.323-3.75-4.223-5.376-8.393-7.604-8.446-7.63a.649.649 0 01.599-1.145c.18.091 4.456 2.358 8.866 7.973 2.327 2.964 2.976 4.391 2.396 5.273-.252.442-.725.599-1.385.599zm-41.885-39.432a.645.645 0 01-.568-.34c-1.954-3.59-11.567-11.346-11.667-11.422a.649.649 0 01.813-1.007c.404.324 9.919 8.011 11.99 11.826a.649.649 0 01-.568.958v-.015zm18.251 14.08a.656.656 0 01-.648-.625c-.44-.728-2.953-3.548-5.265-6.005a.649.649 0 01.942-.889c5.822 6.188 5.723 6.62 5.623 7.001a.725.725 0 01-.438.48.618.618 0 01-.214.039zm-93.773-31.595a.649.649 0 01-.232-1.251c10.804-4.197 19.178-17.473 19.262-17.607a.649.649 0 011.098.687c-.35.561-8.694 13.784-19.895 18.125a.633.633 0 01-.233.046zm-40.996-27.746a.649.649 0 01-.618-.45c-5.497-17.283-19.01-26.656-19.143-26.748a.647.647 0 11.728-1.068c.138.096 14.017 9.72 19.648 27.422a.649.649 0 01-.615.843zm-54.806-56.573a.645.645 0 01-.584-.923 27.582 27.582 0 018.199-9.958.651.651 0 11.74 1.072 26.705 26.705 0 00-7.767 9.45.649.649 0 01-.588.359zm-6.508-3.933h-.023c-.382 0-9.82-.351-16.134-2.167a.649.649 0 01.355-1.244c6.165 1.774 15.725 2.113 15.82 2.117a.649.649 0 010 1.294h-.018z" mask="url(#b)"/><path fill="#000" fill-rule="nonzero" d="M162.683 279.78l.061.043 44.3-6.535s18.602-11.774 23.08-16.157c-.22-.122-.453-.221-.682-.328-3.235-1.427-7.1-1.442-11.064-.717l-.278-.203c-11.152 1.858-23.161 9.347-23.161 9.347l-35.33.237s-29.682-5.07-37.09-20.983c-11.262-24.149-50.477-51.827-62.88-58.343-11.913.592-46.718-7.984-71.641-15.26l-2.877 10.553 12.552 15.84c16.233 2.006 39.569 4.814 45.437 5.135 8.991.492 18.651 3.815 19.17 4.005-2.503-4.993-3.258-8.534-3.41-11.57l3.433 11.578c1.762 3.533 4.414 7.783 8.347 13.105 9.492 12.84 34.507 35.677 42.453 40.213 7.947 4.536 16.264 15.26 24.554 19.102 8.29 3.842 18.067 2.266 22.352 1.393.473-.103 1.4-.26 2.674-.454z" mask="url(#b)" opacity=".12"/><path fill="#EA475B" fill-rule="nonzero" d="M793.688 334.904l8.507-66.74c-23.89-9.507-142.582 7.077-142.582 7.077s-10.754.126-15.885.435-23.012.08-29.254-.382a23.592 23.592 0 01-2.17-.255 38.398 38.398 0 01-7.783-2.202c-2.483-.95-4.856-2.04-7.107-3.013-5.1-2.186-17.366-11.354-29.177-16.13-11.812-4.777-21.784-7.905-25.149-8.576-3.365-.672-24.034-9.309-26.995-10.98-2.96-1.671-14.878-10.438-15.996-10.957-1.118-.519-6.104-2.2-8.756.512-2.65 2.712 2.58 13.291 6.043 16.335 3.464 3.045 28.415 21.399 28.415 21.399l-21.456 8.091a6.413 6.413 0 00-.725-.381c-1.743-.763-3.12-.92-5.23-2.32-1.576-3.647-9.21-12.875-11.686-15.157-.602-1.38-1.465-2.647-5.497-9.95-3.922-5.676-9.774-7.877-13.784-7.301.1 1.747 10.95 23.653 11.194 24.27.126.333 2.643 5.12 5.49 10.095-1.714-1.503-6.158-3.506-7.695-4.112-.855-1.526-2.946-4.166-5.292-6.322-1.224-2.521-8.828-13.493-11.296-16.282-.713-2.758-7.207-13.467-12.044-16.534-4.837-3.068-10.125-.13-10.125-.13s2.457 5.036 4.887 9.679c-2.705-2.29-7.195-5.204-10.56-5.872-3.365-.667-6.775 1.664-6.775 1.664s4.063 5.05 6.413 6.958c2.35 1.908 17.88 20.102 24.274 28.083 6.394 7.98 10.988 10.83 10.988 10.834.19.284.396.557.618.817.503.553 2.602 1.957 5.528 3.792l-.073.03c-3.746-.797-14.115-.435-17-.725-1.731-1.526-12.425-6.283-14.786-7.191-2.965-2.91-21.746-10.655-24.615-11.445-2.869-.79-8.393 1.263-8.393 1.263s-2.289 2.35 1.06 5.02c3.362 1.168 41.046 26.785 44.636 28.33 3.59 1.546 6.104 2.084 8.6 1.988 3.23 1.671 27.189 5.475 29.94 5.765 2.75.29 23.076 4.17 27.574 4.478 4.498.31 22.62 1.294 26.862 1.595 4.242.301 24.835 3.949 28.83 4.628 3.994.679 13.12 3.704 22.466 2.83 9.347-.873 28.678.382 28.678.382s34.922-.065 42.895 2.033c.023-.026 93.056 16.428 123.988 14.574zm-345.52-90.229a299.17 299.17 0 012.555 4.383l-2.556-4.383z" mask="url(#b)"/><path fill="#2F2951" fill-rule="nonzero" d="M788.313 335.693c-34.85 0-117.82-14.596-118.7-14.752-7.855-2.068-42.442-2.034-42.79-2.022-.236 0-19.422-1.24-28.612-.382-7.348.695-14.497-.988-19.254-2.102-1.343-.313-2.507-.587-3.384-.736l-2.884-.496c-6.68-1.145-22.318-3.86-25.881-4.116-2.224-.16-8.298-.512-14.173-.847-5.425-.31-10.548-.603-12.689-.763-2.777-.191-11.445-1.713-18.384-2.938-4.384-.763-8.168-1.434-9.217-1.526-2.468-.256-26.041-3.948-30.005-5.753-2.632.069-5.185-.526-8.721-2.045-1.748-.763-10.953-6.783-20.697-13.17-10.41-6.82-22.207-14.553-23.912-15.149a.618.618 0 01-.19-.103c-1.29-1.03-1.985-2.159-2.06-3.353a3.701 3.701 0 01.938-2.62.683.683 0 01.236-.153c.237-.088 5.765-2.122 8.775-1.286 2.586.71 21.333 8.332 24.797 11.514 2.251.885 12.426 5.371 14.688 7.122 1.083.088 3.052.103 5.303.122 4.078.03 9.156.073 11.574.592a.646.646 0 11-.27 1.262c-2.29-.488-7.299-.53-11.316-.56-2.426-.02-4.517-.039-5.608-.145a.63.63 0 01-.381-.16c-1.58-1.385-11.918-6.047-14.593-7.074a.618.618 0 01-.225-.145c-2.743-2.697-21.306-10.453-24.328-11.28-2.373-.65-6.936.877-7.84 1.194a2.35 2.35 0 00-.492 1.552c.057.786.56 1.576 1.496 2.343 1.98.797 10.86 6.58 24.084 15.26 9.266 6.073 18.85 12.356 20.498 13.062 3.433 1.465 5.825 2.026 8.324 1.934a.64.64 0 01.32.07c3.106 1.605 27.087 5.424 29.704 5.695 1.095.114 4.72.763 9.309 1.556 6.924 1.221 15.538 2.736 18.247 2.923 2.132.145 7.248.438 12.677.763 5.875.335 11.952.683 14.188.847 3.632.259 18.743 2.872 26.007 4.131l2.88.496c.92.157 2.102.431 3.468.763 4.658 1.095 11.697 2.743 18.838 2.076 9.29-.878 28.579.354 28.773.381 1.393 0 35.06-.046 43.022 2.053.877.152 93.261 16.404 123.762 14.58a.658.658 0 01.684.607.65.65 0 01-.607.683c-1.603.05-3.415.095-5.38.095z" mask="url(#b)"/><path fill="#2F2951" fill-rule="nonzero" d="M502.115 299.264a.664.664 0 01-.324-.084c-1.324-.763-32.508-18.75-34.766-21.2-1.317-1.427-7.012-11.388-12.517-21.02-3.873-6.772-7.531-13.174-8.458-14.444-2.22-3.052-8.698-16.283-8.973-16.843a.652.652 0 01.267-.851c.233-.126 5.688-3.083 10.789.149 4.795 3.052 11.33 13.592 12.276 16.766 2.545 2.93 9.855 13.471 11.24 16.199a31.954 31.954 0 015.226 6.2c1.583.648 6.398 2.811 7.966 4.417a.649.649 0 01-.927.904c-1.263-1.297-5.654-3.38-7.726-4.196a.626.626 0 01-.32-.283c-.832-1.465-2.873-4.051-5.173-6.16a.74.74 0 01-.145-.195c-1.183-2.446-8.82-13.448-11.193-16.13a.664.664 0 01-.145-.263c-.714-2.759-7.203-13.269-11.762-16.153-3.586-2.29-7.489-.98-8.908-.382 1.305 2.652 6.669 13.467 8.565 16.062.969 1.331 4.475 7.466 8.538 14.565 4.959 8.672 11.124 19.457 12.341 20.784 1.766 1.908 25.477 15.775 34.465 20.956a.645.645 0 01-.325 1.206l-.011-.004z" mask="url(#b)"/><path fill="#2F2951" fill-rule="nonzero" d="M510.065 294.613a.649.649 0 01-.381-.118c-.637-.454-15.691-11.147-18.9-14.314-3.292-3.246-12.486-20.563-12.76-21.272-.062-.153-.703-1.469-1.527-3.136-5.783-11.914-9.648-20.101-9.72-21.337a.645.645 0 01.553-.676c5.722-.82 11.487 3.354 14.41 7.577l.033.053a462.458 462.458 0 003.754 6.703c.954 1.679 1.378 2.423 1.717 3.178 2.484 2.346 9.85 11.174 11.659 15.1a13.62 13.62 0 003.262 1.526c.545.187 1.106.381 1.709.648.99.52 1.94 1.112 2.842 1.774 1.69 1.145 3.815 2.598 5.39 3.052 1.115.32 11.098 3.121 18.42 3.216 7.416.088 16.171-1.758 16.259-1.773a.646.646 0 11.275 1.262c-2.442.53-10.16 1.908-16.55 1.805-7.493-.1-17.629-2.942-18.758-3.266-1.797-.515-3.907-1.957-5.769-3.235a21.97 21.97 0 00-2.632-1.656 20.549 20.549 0 00-1.61-.61 14.772 14.772 0 01-3.708-1.759.63.63 0 01-.237-.282c-1.506-3.487-8.946-12.551-11.528-14.936a.626.626 0 01-.153-.217c-.324-.737-.733-1.454-1.713-3.182-.763-1.373-1.957-3.434-3.746-6.684-3.61-5.196-8.775-7.248-12.418-7.077 1.099 3.09 7.054 15.36 9.423 20.239 1.144 2.32 1.495 3.082 1.556 3.235.271.649 9.29 17.69 12.46 20.818 3.17 3.129 18.587 14.07 18.743 14.18.29.208.358.61.153.901a.641.641 0 01-.507.263zm41.378-19.471a.649.649 0 01-.164-1.275c.668-.175 16.454-4.318 20.876-4.131 2.853.187 5.31 1.194 7.473 2.079 1.557.637 3.026 1.24 4.433 1.457 3.243.508 4.468.206 4.479.202a.649.649 0 01.347 1.248c-.14.038-1.491.381-5.024-.172-1.557-.244-3.098-.873-4.723-1.526-2.178-.892-4.426-1.812-7.054-1.984h-.27c-4.579 0-20.049 4.056-20.22 4.098a.607.607 0 01-.153.004z" mask="url(#b)"/><path fill="#2F2951" fill-rule="nonzero" d="M510.325 273.97a.649.649 0 01-.076-1.29c1.98-.24 7.477-1.315 9.114-3.375.786-.988 1.644-2.266 2.548-3.617 1.557-2.316 3.163-4.708 4.658-6.005a18.777 18.777 0 016.009-3.548.649.649 0 11.423 1.225 17.316 17.316 0 00-5.585 3.304c-1.362 1.179-2.922 3.502-4.43 5.745-.922 1.373-1.792 2.67-2.612 3.7-2.29 2.896-9.66 3.816-9.973 3.858l-.076.003z" mask="url(#b)"/><path fill="#2F2951" fill-rule="nonzero" d="M635.75 276.47c-7.358 0-17.026-.207-21.34-.52-5.593-.408-10.79-2.67-15.375-4.696-.64-.282-1.274-.56-1.907-.828-1.992-.854-4.918-2.67-8.626-4.96-5.917-3.665-13.28-8.224-20.54-11.162-11.968-4.837-21.845-7.908-25.03-8.542-3.483-.69-24.111-9.327-27.186-11.063-1.694-.946-6.104-4.067-9.976-6.818-2.72-1.907-5.528-3.918-5.967-4.12-1.37-.63-5.783-1.907-8.011.382-.382.381-.576 1.117-.538 2.087.145 3.948 3.872 10.956 6.542 13.31 3.403 2.991 28.12 21.177 28.369 21.364a.649.649 0 11-.763 1.042c-1.019-.763-25.011-18.404-28.456-21.433-2.911-2.564-6.822-9.92-6.982-14.23-.05-1.354.256-2.377.904-3.052 2.782-2.835 7.794-1.43 9.496-.649.519.24 2.579 1.694 6.173 4.239 3.662 2.598 8.225 5.83 9.861 6.745 2.938 1.64 23.516 10.254 26.805 10.907 3.288.652 13.215 3.739 25.263 8.61 7.362 2.976 14.775 7.57 20.734 11.262 3.517 2.175 6.558 4.06 8.458 4.876.626.267 1.259.545 1.907.828 4.49 1.968 9.576 4.196 14.948 4.578 6.29.457 24.011.682 29.17.381 4.928-.297 15.14-.427 15.877-.435 5.414-.763 119.177-16.488 142.883-7.038a.649.649 0 11-.48 1.201c-9.671-3.857-37.319-3.85-79.951 0-32.275 2.923-62.017 7.066-62.315 7.108h-.08c-.11 0-10.8.13-15.855.43-1.663.153-4.585.195-8.011.195zm-168.794.9c-.382 0-1.175-.462-3.601-2.595a69.078 69.078 0 01-7.966-8.488c-6.554-8.153-21.948-26.17-24.176-27.975-2.376-1.908-6.34-6.848-6.508-7.058a.649.649 0 01.141-.939c.145-.099 3.674-2.476 7.249-1.762 3.41.675 7.908 3.506 10.857 6.012a.646.646 0 11-.835.985c-2.732-2.316-7.108-5.101-10.274-5.723-2.263-.446-4.578.607-5.673 1.198 1.144 1.373 4.036 4.822 5.844 6.287 2.461 1.995 18.263 20.574 24.37 28.17 6.314 7.855 10.774 10.682 10.82 10.682l-.34.55.382.518a.465.465 0 01-.29.138z" mask="url(#b)"/><path fill="#2F2951" fill-rule="nonzero" d="M600.725 286.72h-.091a.649.649 0 01-.55-.732c1.046-7.249 8.038-10.892 8.336-11.064a.645.645 0 11.588 1.145c-.065.034-6.696 3.51-7.63 10.075a.652.652 0 01-.653.576z" mask="url(#b)"/><path fill="#2F2951" fill-rule="nonzero" d="M605.849 290.12a.649.649 0 01-.649-.638c-.126-9.98 6.432-14.76 6.71-14.958a.65.65 0 11.764 1.053c-.065.045-6.287 4.608-6.17 13.886a.645.645 0 01-.636.656h-.02zm20.769-1.325c-7.138 0-14.375-2.063-14.696-2.159a.649.649 0 01.359-1.243c.08.026 8.229 2.35 15.538 2.086a73.485 73.485 0 0010.95-1.24 13.578 13.578 0 012.326-.324.649.649 0 010 1.293.252.252 0 00-.053 0c-.68.061-1.357.162-2.026.302a74.442 74.442 0 01-11.132 1.263c-.427.015-.85.022-1.266.022z" mask="url(#b)"/><path fill="#000" fill-rule="nonzero" d="M798.312 298.62c-71.928-13.586-82.652-8.92-120.6-3.133-37.948 5.787-62.974 10.224-76.987 3.132-18.346-6.009-31.336-12.025-43.788-11.544-12.453.48-29.715 11.586-40.603 7.588-10.888-3.998-20.75-8.687-25.103-14.94-2.858-4.1-6.18-9.457-9.538-12.559a52.414 52.414 0 00-5.268-2.51c-.855-1.526-2.945-4.162-5.292-6.321-1.224-2.518-8.827-13.494-11.296-16.279-.297-1.144-1.606-3.689-3.376-6.485-1.835-2.446-3.7-4.91-5.555-7.348a16.912 16.912 0 00-3.113-2.709c-4.833-3.052-10.125-.133-10.125-.133s2.457 5.04 4.887 9.682c-2.705-2.289-7.195-5.203-10.56-5.875-3.364-.671-6.775 1.667-6.775 1.667s4.063 5.051 6.413 6.955c2.35 1.904 17.866 20.12 24.26 28.098 6.393 7.977 10.987 10.834 10.987 10.838.191.283.398.555.618.816.503.55 2.602 1.954 5.528 3.792l-.073.031c-3.746-.797-14.115-.435-17-.725-1.731-1.526-12.425-6.283-14.786-7.191-2.965-2.911-21.746-10.655-24.615-11.445-2.869-.79-8.393 1.263-8.393 1.263s-2.289 2.35 1.06 5.02c3.362 1.168 41.046 26.781 44.636 28.33 3.59 1.55 6.104 2.083 8.6 1.984 3.23 1.671 27.189 5.478 29.94 5.768 2.75.29 23.076 4.17 27.574 4.48 4.498.308 22.62 1.292 26.862 1.594 4.242.301 24.835 3.948 28.83 4.624 3.994.675 13.12 3.708 22.466 2.83 9.347-.877 28.678.382 28.678.382s34.922-.069 42.895 2.033c0 0 89.016 15.741 121.848 14.692l6.74-36.376.024-.027zm-350.145-53.941a299.17 299.17 0 012.556 4.383l-2.556-4.383z" mask="url(#b)" opacity=".12"/><path fill="#FFD400" d="M306.726 273.951c-.336.279-.351.264-.687.542l-.679.569-.671.556c-.34.279-.29.332-.63.61-.34.28-.381.215-.732.493-.351.279-.29.328-.626.607-.336.278-.381.229-.725.507-.343.279-.347.267-.683.546-.335.278-.183.656-.614.518-.43-.137-.084-.35-.18-.763-.094-.412-.148-.408-.243-.824-.096-.415-.149-.408-.244-.828-.096-.42-.027-.427-.122-.846-.096-.42-.073-.42-.168-.84-.096-.42-.134-.408-.225-.828-.092-.42-.123-.412-.218-.831-.095-.42-.072-.42-.164-.84-.091-.42-.133-.408-.229-.827-.095-.42-.057-.424-.149-.844-.091-.42 0-.434-.084-.854-.083-.42-.248-.382-.343-.805-.095-.424.073-.45-.023-.866-.095-.416-.107-.416-.202-.832-.095-.416-.21-.381-.305-.816-.096-.435-.042-.427-.134-.843-.091-.416-.057-.428-.148-.843-.092-.416-.504-.489-.168-.763.335-.275.381.095.793.232.412.138.45.084.881.222.432.137.44.122.866.259.428.137.409.21.84.347.43.138.435.126.866.263.43.138.458.058.889.195.43.137.381.305.8.446.42.142.466.046.894.187.427.141.427.15.858.286.431.138.412.199.84.336.426.137.457.069.888.206.431.137.435.122.866.26.431.137.424.164.855.301.43.137.412.183.843.32.43.138.469.027.9.168.431.141.435.13.862.267.428.138.382.279.817.416.435.137.702-.187.797.23.095.415-.187.331-.523.61-.335.278-.381.244-.71.522-.327.279-.32.298-.655.576-.336.279-.348.271-.683.55-.336.278-.431.175-.763.454-.332.278-.286.331-.622.614-.336.282-.31.309-.645.587l-.667.561c-.336.286-.351.267-.687.55m-57.076-76.106c.522 0 1.045 0 1.556.054.511.053 1.05.082 1.553.177.503.095 1 .313 1.495.453.496.14.95.412 1.43.606.482.194 1.02.264 1.481.494.462.231.889.536 1.328.825.438.288.912.51 1.327.824.416.313.737.738 1.118 1.088.382.35.68.779 1.026 1.162.348.384.733.734 1.042 1.146.309.412.721.767.992 1.212.27.445.591.87.824 1.335.233.466.381.973.58 1.463.198.49.381.977.519 1.48.137.502.091 1.046.187 1.562.095.515.286 1.005.331 1.529.046.523.02 1.038.02 1.566.048.521.072 1.045.072 1.57a17.413 17.413 0 01-.206 1.562c-.092.507-.301 1.014-.443 1.512-.14.499-.251 1.027-.434 1.509-.184.482-.565.894-.798 1.356-.214.475-.451.939-.71 1.389-.274.44-.698.77-1.01 1.186-.313.417-.565.866-.912 1.237-.347.37-.588.882-.97 1.236-.38.355-.762.73-1.17 1.043-.409.313-.893.552-1.336.824-.442.272-.889.548-1.354.78-.465.23-.992.325-1.476.514-.485.19-.996.256-1.496.412-.5.157-.98.297-1.495.392-.515.095-1.007.177-1.526.227-.52.049-1.019.115-1.526.115-.508 0-1.03-.107-1.526-.153-.496-.045-1.065.1-1.568 0-.504-.098-.996-.325-1.492-.47-.496-.144-.946-.411-1.427-.613-.48-.202-1-.285-1.46-.516-.463-.23-.848-.601-1.287-.877-.438-.277-.892-.511-1.304-.825-.412-.313-.946-.49-1.328-.824-.381-.334-.607-.865-.954-1.236s-.8-.689-1.114-1.1c-.312-.413-.43-.961-.705-1.406a19.979 19.979 0 01-.763-1.348c-.24-.465-.641-.849-.832-1.335-.19-.486-.324-.997-.466-1.5a16.679 16.679 0 01-.316-1.533 16.098 16.098 0 01-.088-1.558c-.046-.515-.343-1.026-.343-1.55 0-.523.164-1.05.21-1.562.045-.51.22-1.026.312-1.533.092-.507.214-1.014.355-1.512.154-.496.33-.983.53-1.46.146-.501.316-.995.508-1.479.233-.466.404-.973.675-1.413.271-.441.729-.763 1.042-1.18.312-.415.694-.758 1.041-1.14.347-.384.557-.912.939-1.262.381-.35.862-.585 1.274-.898.412-.314.79-.684 1.228-.956.439-.272.882-.561 1.343-.792.462-.23 1.003-.288 1.488-.478.484-.19.908-.54 1.408-.68.5-.14 1.003-.292 1.526-.391.522-.1 1.053.082 1.571.033.52-.05 1.02-.26 1.526-.26" mask="url(#b)"/><path fill="#FFF" d="M270.865 241.776c.092 0 .183.026.27.045.089.02.18.039.264.065.084.027.168.073.252.107.084.034.156.092.233.13.076.038.171.068.248.114.076.046.14.107.213.164.073.058.145.103.21.16.065.058.114.138.172.203.055.066.106.136.152.21.054.072.111.133.157.21.054.068.102.14.145.217.038.076.084.152.114.233.029.08.052.163.069.248.023.083.046.167.06.251.016.084 0 .168 0 .256.015.083.024.167.028.252 0 .084-.02.168-.031.251-.011.084 0 .172-.023.256-.023.084-.042.164-.069.244a1.85 1.85 0 01-.11.233c-.034.076-.065.16-.107.233-.042.072-.118.13-.168.198-.05.069-.095.141-.152.206-.064.06-.132.116-.203.168a2.03 2.03 0 01-.183.18c-.068.053-.122.129-.194.175a2.426 2.426 0 01-.225.14c-.08.043-.168.07-.252.104a1.793 1.793 0 01-.252.091c-.084.027-.18.031-.267.05-.088.02-.18.02-.267.03-.088.012-.176.023-.267.027h-.541c-.092 0-.176-.042-.264-.06a2.163 2.163 0 01-.275-.039c-.084-.027-.164-.072-.248-.107-.084-.034-.152-.091-.232-.133-.08-.042-.168-.069-.245-.119a2.144 2.144 0 01-.202-.167c-.072-.058-.145-.103-.21-.164-.064-.061-.152-.1-.213-.164-.061-.065-.084-.157-.138-.226-.053-.068-.122-.13-.167-.202-.046-.072-.054-.164-.092-.24a2.606 2.606 0 01-.103-.237 2.186 2.186 0 01-.114-.232 1.957 1.957 0 01-.05-.252 1.873 1.873 0 01-.023-.256c0-.084 0-.164.02-.252.018-.087-.039-.171-.028-.255.012-.084.05-.164.07-.248.018-.084.06-.157.087-.237.027-.08.06-.16.095-.236.037-.076.078-.15.122-.221.046-.073.073-.157.122-.226.05-.068.092-.148.145-.21.054-.06.145-.106.206-.167.061-.061.138-.107.206-.16.069-.054.119-.13.191-.18.073-.05.164-.072.24-.114.077-.042.153-.092.233-.126.08-.034.168-.069.252-.095.084-.027.18-.023.267-.042.088-.02.172-.065.26-.077a3.1 3.1 0 01.27-.026c.092-.004.183.038.275.042.092.003.18 0 .27 0m-74.754-38.803c.12.013.237.032.355.057.118.027.236.05.35.084.115.035.218.1.329.141.11.042.202.119.309.172.107.054.225.088.32.149.096.061.191.141.283.214.091.072.194.137.278.213.084.076.145.18.225.263.08.084.13.187.199.279.074.087.142.179.206.275.06.095.14.183.194.286.053.103.107.198.149.305.042.107.06.217.091.328.03.11.058.217.077.328.019.11 0 .221 0 .336.017.11.028.22.034.332 0 .11-.027.217-.042.332a3.159 3.159 0 01-.027.332 4.02 4.02 0 01-.091.324c-.035.103-.1.202-.145.305-.041.105-.088.206-.141.305-.058.096-.153.172-.222.263-.068.092-.125.184-.198.271-.072.088-.183.141-.263.218-.08.076-.157.168-.244.236-.088.069-.16.168-.256.233-.095.065-.195.13-.298.183-.107.05-.216.095-.328.134a4.27 4.27 0 01-.332.126 3.365 3.365 0 01-.35.06 3.525 3.525 0 01-.351.039c-.119 0-.233.034-.351.038-.119.004-.237 0-.355 0-.119 0-.237 0-.359-.023a3.434 3.434 0 01-.343-.08c-.118-.027-.248 0-.359-.046a3.575 3.575 0 01-.328-.145c-.11-.046-.202-.118-.305-.172-.103-.053-.221-.091-.32-.156-.1-.065-.176-.153-.268-.221a3.128 3.128 0 01-.274-.218 2.594 2.594 0 01-.279-.217 2.854 2.854 0 01-.183-.29c-.069-.095-.164-.172-.221-.267a3.254 3.254 0 01-.122-.32c-.05-.1-.095-.202-.134-.306a3.315 3.315 0 01-.152-.309 3.117 3.117 0 01-.065-.328 2.442 2.442 0 01-.027-.336c.038-.22.038-.446 0-.667 0-.11.069-.218.092-.324.022-.107.08-.21.114-.313a3.144 3.144 0 01.286-.603c.057-.095.092-.202.157-.294.064-.091.122-.194.194-.278.073-.084.187-.138.271-.218.084-.08.18-.137.27-.21.092-.072.153-.175.249-.236.095-.061.214-.096.317-.149.103-.053.198-.122.309-.168a4.85 4.85 0 01.328-.126c.116-.023.233-.041.35-.053a2.85 2.85 0 01.34-.1c.118 0 .24-.034.359-.037.118-.004.236.05.358.057a2.74 2.74 0 01.355 0m162.668 31.676c.065 0 .133.019.198.034a1.3 1.3 0 01.382.13c.06.029.118.06.175.095.058.03.126.05.18.084.053.034.106.08.16.118.053.038.107.077.156.122.045.047.087.097.126.15.042.049.08.101.115.156.038.053.08.099.114.156.034.057.08.103.11.16.031.057.062.115.085.172.036.126.066.253.091.381.004.063.004.125 0 .187.004.064.004.128 0 .191 0 .061 0 .122-.023.187.004.062.004.125 0 .187a1.656 1.656 0 01-.053.183c-.024.059-.05.116-.08.172-.023.059-.05.116-.08.171-.03.054-.088.096-.122.15a1.447 1.447 0 01-.115.152c-.042.05-.103.08-.149.122a1.526 1.526 0 01-.137.133 1.255 1.255 0 01-.313.237c-.06.028-.12.052-.183.072a1.58 1.58 0 01-.187.073c-.065.019-.133.019-.198.034-.065.016-.134 0-.199.023h-.599c-.068 0-.13-.03-.194-.046-.065-.015-.141 0-.202-.026-.061-.027-.122-.058-.183-.08a1.908 1.908 0 01-.176-.1c-.057-.03-.126-.05-.18-.084-.053-.034-.098-.087-.152-.13-.053-.041-.107-.076-.152-.118-.046-.041-.115-.076-.157-.122a1.29 1.29 0 00-.229-.316 1.724 1.724 0 01-.068-.18c-.027-.057-.054-.114-.077-.175a1.427 1.427 0 01-.084-.172 1.625 1.625 0 01-.038-.187 1.526 1.526 0 010-.187v-.187c0-.06-.027-.13-.019-.19.008-.061.038-.122.053-.183.016-.061.046-.119.065-.176.02-.06.042-.118.069-.175.027-.058.061-.111.092-.164.03-.054.053-.115.087-.168.035-.054.069-.107.111-.157.042-.05.107-.076.153-.122.045-.046.103-.08.152-.118.05-.038.088-.1.141-.134.059-.03.118-.059.18-.083.057-.031.11-.07.171-.096.061-.027.122-.05.187-.069.066-.014.132-.024.199-.03.062-.023.126-.042.19-.057.068-.004.135-.004.203 0 .067.006.135.017.202.03.067-.004.135-.004.202 0m-69.979 59.732c.065 0 .134.019.199.034.067.013.133.03.198.05.065.019.122.053.183.076s.119.069.176.1c.057.03.126.049.183.083.057.034.103.08.156.118.055.038.107.079.157.122.045.047.087.097.126.15.041.049.08.101.114.156.038.05.084.099.118.152.035.054.08.107.107.164.027.057.061.11.084.172.02.06.037.121.05.183.019.061.034.124.045.187v.187a1.606 1.606 0 01-.022.374c.004.063.004.127 0 .19-.013.062-.03.124-.05.184-.023.057-.057.114-.08.171-.023.058-.05.119-.08.172-.03.053-.088.095-.126.149-.038.053-.073.103-.115.152a1.587 1.587 0 01-.148.122 1.144 1.144 0 01-.138.134 1.59 1.59 0 01-.145.13c-.053.034-.107.076-.164.107l-.187.072-.187.072c-.06 0-.13 0-.198.035-.069.034-.13 0-.198.023h-.599l-.195-.046c-.065 0-.137 0-.202-.027-.065-.026-.122-.057-.183-.08s-.115-.069-.176-.1a1.938 1.938 0 01-.179-.087 1.526 1.526 0 01-.149-.126 2.4 2.4 0 01-.156-.118 1.732 1.732 0 01-.157-.126 1.19 1.19 0 01-.103-.164c-.038-.053-.091-.095-.126-.149-.034-.053-.038-.122-.068-.179a1.435 1.435 0 01-.077-.176 1.427 1.427 0 01-.083-.171c0-.061-.027-.126-.039-.187-.011-.061 0-.126 0-.187a1.484 1.484 0 010-.187 1.114 1.114 0 010-.19c0-.066.039-.123.05-.184.011-.06.046-.118.065-.175a1.705 1.705 0 01.16-.34 1.74 1.74 0 01.092-.168c.038-.05.065-.11.106-.156.042-.046.107-.08.153-.122.046-.042.103-.08.153-.118.05-.039.087-.1.14-.134.054-.034.123-.053.18-.084.057-.03.11-.069.172-.095.06-.027.122-.05.187-.069.065-.02.133 0 .198-.034a.513.513 0 01.19-.054c.068-.011.135-.019.203-.023.065 0 .134.03.202.03h.202m90.721 3.469c.092 0 .18.026.267.046.088.019.176.034.26.06.084.027.164.073.244.107.08.035.152.088.233.13.08.042.167.065.24.11.073.05.143.103.21.16.068.054.145.1.21.161.064.061.11.134.167.195.058.06.1.14.15.21.055.063.106.131.152.202.046.072.107.137.145.213.038.077.08.153.11.23.03.076.046.163.069.243.023.08.042.164.057.248.016.084 0 .168 0 .248 0 .08.027.168.023.252-.004.084 0 .164-.03.244-.03.08 0 .172-.02.252-.075.24-.17.473-.282.698-.042.073-.114.126-.164.195a1.144 1.144 0 01-.347.381c-.065.061-.114.126-.183.18-.069.053-.118.126-.19.171-.073.046-.146.1-.222.138-.076.038-.164.068-.248.103-.084.034-.16.065-.244.091-.084.027-.18.027-.263.046-.084.02-.176.02-.264.03a3.075 3.075 0 01-.263.027h-.267a2.037 2.037 0 01-.263 0 2.587 2.587 0 01-.26-.057c-.087-.02-.183 0-.27-.034-.088-.035-.16-.077-.245-.111-.084-.034-.148-.088-.229-.13a1.908 1.908 0 01-.236-.114 2.144 2.144 0 01-.202-.168c-.069-.053-.141-.1-.206-.16-.065-.061-.15-.096-.206-.16-.058-.065-.088-.153-.138-.222-.05-.068-.122-.126-.164-.198a1.782 1.782 0 01-.091-.237 2.537 2.537 0 01-.103-.232 2.117 2.117 0 01-.11-.23c-.024-.08-.035-.163-.05-.243-.016-.08 0-.168-.023-.252-.023-.084 0-.164.019-.248.019-.084-.035-.168-.027-.252.044-.161.097-.32.156-.477a2.045 2.045 0 01.214-.446c.035-.076.074-.15.118-.221.05-.07.088-.145.145-.21.057-.065.141-.103.202-.16.064-.058.132-.112.203-.16.068-.05.114-.13.187-.176.072-.046.16-.073.236-.11.076-.039.149-.092.229-.127.08-.034.16-.068.244-.091.084-.023.18-.023.263-.042.084-.02.168-.065.256-.077.088-.011.18-.022.267-.026.088-.004.18.038.267.042.088.004.18 0 .267 0m-34.823 10.342l.175.03a1.19 1.19 0 01.332.11c.053.026.104.054.153.085.055.023.108.048.16.077.05.03.095.068.141.103.046.034.096.068.138.106.042.039.072.088.11.13.038.042.065.092.1.137.034.046.072.088.102.138a1.373 1.373 0 01.168.29c.02.053.03.11.046.164.015.053.027.107.034.16.004.056.004.112 0 .168.004.054.004.11 0 .164.004.054.004.11 0 .164v.164l-.045.16c-.02.054-.05.1-.073.149-.023.05-.042.103-.069.153-.026.05-.076.084-.11.13-.03.046-.063.09-.1.133-.034.042-.087.068-.13.11-.041.042-.075.08-.121.115-.04.04-.081.08-.126.114-.046.03-.095.065-.145.092a1.22 1.22 0 01-.164.065 1.377 1.377 0 01-.16.06c-.058 0-.119 0-.176.035-.057.034-.114 0-.175.02-.061.018-.115 0-.172 0h-.175a1.354 1.354 0 01-.176 0c-.061 0-.114-.027-.172-.039a1.442 1.442 0 01-.179-.023c-.053-.019-.107-.05-.16-.072-.054-.023-.1-.058-.153-.084-.053-.027-.107-.046-.156-.077-.05-.03-.088-.076-.134-.11a1.819 1.819 0 01-.133-.107c-.042-.038-.103-.065-.141-.107-.039-.042-.054-.099-.088-.145-.034-.046-.08-.084-.11-.133-.031-.05-.035-.107-.062-.157-.027-.05-.046-.099-.065-.152-.019-.054-.06-.096-.076-.15-.015-.053-.023-.11-.03-.163-.008-.054 0-.11 0-.164v-.164c0-.054-.023-.115 0-.168a.843.843 0 00.045-.16c.016-.054.035-.106.058-.157a1.27 1.27 0 01.06-.152c.023-.05.054-.096.08-.145.027-.05.046-.1.077-.145.03-.046.061-.096.095-.138.035-.042.096-.068.134-.106.038-.039.091-.07.133-.103.042-.035.077-.088.126-.119.051-.027.103-.051.157-.072a1.145 1.145 0 01.313-.145c.057-.013.116-.022.175-.027.057 0 .11-.042.168-.05l.175-.019c.058 0 .119.023.176.027.057.004.118 0 .18 0m61.444-56.237c.087 0 .175.023.263.042.088.02.175.038.26.065.083.027.163.073.247.103.084.03.153.088.23.13.075.042.167.065.243.11.077.046.138.107.21.16.073.054.141.1.206.16.06.063.116.13.168.2.057.06.1.137.153.205.053.069.106.13.152.206.046.077.107.138.141.214.043.074.081.15.115.229.026.076.046.16.068.244.023.084.042.16.054.244a1.85 1.85 0 010 .252c0 .08.027.164.027.248 0 .084 0 .164-.031.248-.03.084 0 .168-.023.248-.023.08-.042.164-.069.244a2.426 2.426 0 01-.106.225 2.495 2.495 0 01-.107.229c-.042.072-.115.13-.164.198-.05.069-.096.138-.149.203-.053.064-.137.103-.198.164-.061.06-.115.122-.184.175a2.04 2.04 0 01-.19.172c-.073.05-.145.099-.222.14-.076.043-.164.066-.244.1-.08.034-.164.065-.248.092-.084.026-.175.026-.263.045-.088.02-.175 0-.263.031-.088.03-.172.023-.263.027h-.531c-.087 0-.171-.042-.26-.061-.087-.02-.182 0-.266-.035-.084-.034-.164-.076-.244-.107-.08-.03-.153-.091-.23-.13-.075-.037-.167-.068-.24-.114-.072-.045-.13-.114-.198-.168a2.262 2.262 0 01-.206-.16c-.065-.06-.153-.099-.21-.164-.057-.065-.084-.149-.137-.217-.053-.069-.118-.13-.164-.202a2.526 2.526 0 01-.092-.237c-.038-.076-.068-.153-.099-.229-.03-.076-.091-.149-.114-.229-.023-.08-.035-.168-.046-.248a1.873 1.873 0 01-.023-.248v-.252a1.816 1.816 0 01-.027-.251c0-.08.05-.16.069-.24.019-.08.061-.157.088-.237.026-.08.057-.153.091-.23.035-.075.08-.144.119-.217.038-.072.068-.152.118-.22.05-.07.091-.146.145-.21.053-.065.14-.104.202-.16.061-.058.137-.104.202-.157.065-.054.115-.13.187-.18.073-.05.16-.072.237-.11.076-.038.148-.092.229-.126.08-.034.164-.065.248-.092.083-.026.175-.023.263-.042.084-.03.169-.055.255-.076.088 0 .176-.023.264-.027.087-.003.179.038.267.042.09-.005.18-.005.27 0" mask="url(#b)"/><path fill="#32AAED" d="M358.507 278.75c.26.035.519.073.763.127.244.053.515.106.763.186s.477.21.713.306c.237.095.447.255.672.381.225.126.488.187.702.324.213.138.408.31.61.462.202.153.42.298.607.465.187.168.32.382.488.577.168.194.286.404.435.602.162.188.314.384.454.588.126.21.305.381.416.622.11.24.24.438.324.667.08.233.146.47.198.71.069.234.123.473.165.713a6.63 6.63 0 010 .729c0 .24.076.48.068.725-.007.244-.053.477-.084.72-.03.245 0 .493-.06.726a7.073 7.073 0 01-.203.702c-.21.441-.417.884-.622 1.327-.148.2-.307.39-.477.572-.135.203-.28.4-.435.588-.164.187-.381.309-.576.48-.194.172-.332.36-.53.512a6.913 6.913 0 01-.557.503c-.21.138-.42.287-.645.405-.225.118-.477.19-.713.29-.237.099-.473.19-.717.267-.244.076-.512.084-.763.137-.253.042-.508.07-.763.084-.252.03-.504.073-.763.08a7.416 7.416 0 01-.763 0c-.256 0-.515 0-.763-.05-.248-.049-.504-.114-.763-.171-.26-.057-.534-.023-.763-.103-.23-.08-.473-.214-.71-.313-.236-.099-.442-.26-.668-.381-.225-.122-.48-.195-.694-.332-.213-.138-.381-.336-.584-.489-.202-.152-.412-.293-.598-.465-.187-.172-.435-.29-.603-.473-.168-.183-.248-.439-.382-.641-.133-.202-.355-.381-.484-.576-.13-.195-.157-.473-.263-.694a8.64 8.64 0 01-.294-.668c-.088-.229-.263-.431-.328-.668-.065-.236-.1-.48-.138-.72a6.486 6.486 0 01-.065-.726c.005-.24.023-.481.054-.72 0-.24-.107-.493-.076-.733.03-.24.148-.473.202-.706.053-.233.171-.454.248-.683.078-.227.169-.45.27-.667.238-.424.47-.852.695-1.282.13-.209.271-.41.423-.603.16-.187.409-.301.588-.473.18-.172.381-.301.587-.454.206-.153.332-.381.542-.515.223-.12.453-.23.687-.328.225-.118.435-.263.667-.359.233-.095.474-.198.718-.274.244-.077.515-.065.763-.119.248-.053.48-.187.74-.22.26-.035.515-.07.763-.077.248-.008.515.107.763.118.248.011.519-.05.763 0" mask="url(#b)"/><path fill="#E5E5EA" fill-rule="nonzero" d="M644.952 276.248l.168-.912c.176-1.034 4.449-25.34 16.744-31.722 4.063-2.11 8.52-2.037 13.242.21 8.714 4.147 12.723 21.978 17.366 42.63 4.303 19.143 9.003 40.034 18.003 53.028-.149 1.121-.347 2.582-.492 3.685-10.388-13.261-15.432-35.682-20.033-56.157-4.31-19.155-8.393-37.25-15.954-40.859-4.01-1.907-7.584-1.987-10.938-.251-11.155 5.79-15.347 29.623-15.39 29.863l-.064.382-2.652.103zm-69.143-18.243l.676-.763c.58-.607 14.298-14.764 23.916-7.455 6.798 5.17 6.077 20.563 5.238 38.394-1.072 22.848-2.29 48.748 13.135 54.414 2.46.904 4.841.625 7.283-.847 4.105-2.476 7.271-7.676 9.202-11.602 2.369-4.826 3.792-9.56 4.108-11.918l.065-.477 2.602.046-.103.763c-.69 5.147-6.028 20.258-14.539 25.393-3.113 1.877-6.31 2.232-9.51 1.057-17.203-6.318-15.94-33.225-14.826-56.962.763-16.405 1.496-31.867-4.223-36.216-7.794-5.925-20.353 7.054-20.479 7.184l-.233.248-2.312-1.26zm-151.032 7.878l1.034-.878c.096-.084 9.725-8.13 21.536 1.976 10.987 9.397 29.925 38.83 31.184 40.794.725.881 11.65 13.894 26.613 14.444 9.34.343 18.259-4.025 26.816-13.307l3.33.18-1.278 1.41c-9.095 9.866-18.846 14.677-28.994 14.3-16.606-.619-28.082-14.879-28.563-15.467a1.08 1.08 0 01-.076-.106c-.198-.31-19.891-31.016-30.726-40.283-10.083-8.63-17.843-2.255-18.17-1.98l-.073.065-2.633-1.148zM-.103 196.91l3.14.382h.015c.13.24 13.314 23.939 40.18 29.524 16.37 3.407 35.498-2 55.752-7.722 21.154-5.974 43.03-12.154 63.623-8.717 31.977 5.341 63.958 27.468 97.816 50.892 8.504 5.887 17.298 11.968 26.053 17.74 22.245 14.661 55.203 12.933 78.936 8.897 26.324-4.475 48.649-13.177 51.018-15.642l.271-.286 2.247 1.396-.649.68c-2.94 3.074-25.66 11.86-52.456 16.404-24.187 4.112-57.839 5.837-80.79-9.29-8.775-5.787-17.587-11.88-26.102-17.77-33.614-23.271-65.363-45.23-96.772-50.469-20.02-3.342-41.61 2.759-62.49 8.657-20.57 5.81-39.996 11.296-56.984 7.763C14.627 223.51.832 198.655.695 198.403l-.798-1.492z" mask="url(#b)"/><path fill="#FD3156" d="M309.343 294.339c.313.042.63.087.93.152.302.065.627.13.92.225.294.096.58.256.866.382.286.126.542.309.817.45.274.141.591.229.85.382.26.152.496.381.74.56.245.18.508.359.733.565.225.206.382.47.591.694.21.225.351.489.53.733.18.244.382.465.542.72.16.256.382.485.504.764.122.278.29.53.382.809.091.278.164.576.24.862.076.286.149.572.198.862.05.29-.023.591 0 .885.023.294.096.584.088.878-.008.293-.069.58-.107.873-.038.294 0 .6-.072.878a8.82 8.82 0 01-.244.854c-.114.274-.241.541-.382.801-.112.275-.24.544-.381.805a8.29 8.29 0 01-.58.69c-.164.25-.34.489-.53.718-.195.221-.478.382-.695.576-.217.195-.404.439-.64.626-.237.187-.42.442-.676.606-.256.164-.511.347-.763.489-.252.14-.576.236-.862.35-.286.115-.576.233-.874.329-.298.095-.618.099-.923.164-.305.065-.618.06-.931.103-.313.042-.61.084-.927.095-.317.012-.618 0-.935 0-.316 0-.622 0-.934-.06-.313-.062-.615-.142-.916-.21-.301-.07-.649-.031-.942-.123-.294-.091-.576-.263-.863-.381-.286-.119-.534-.313-.808-.458-.275-.145-.584-.237-.843-.405-.26-.167-.462-.404-.706-.59-.244-.188-.5-.356-.725-.565-.225-.21-.53-.348-.733-.573-.202-.225-.297-.53-.48-.763-.183-.232-.428-.446-.584-.702-.156-.255-.19-.568-.32-.835a9.025 9.025 0 01-.355-.813c-.103-.278-.324-.522-.382-.809-.057-.286-.118-.58-.168-.87-.05-.29-.057-.583-.076-.88a8.489 8.489 0 01.035-.89 8.774 8.774 0 01-.092-.888c.038-.294.18-.573.244-.855.065-.282.206-.55.301-.824.096-.276.205-.548.329-.813.122-.27.278-.515.423-.763.145-.248.244-.541.416-.763.172-.22.317-.51.511-.732.195-.221.496-.382.713-.572a9.34 9.34 0 01.714-.553c.24-.172.381-.462.656-.626.275-.164.565-.256.836-.382.27-.126.522-.316.808-.435.286-.118.569-.236.866-.328.298-.091.622-.08.927-.148.306-.07.588-.226.897-.264.309-.038.626-.084.942-.095.317-.011.626.13.939.145.313.015.633-.061.946-.02" mask="url(#b)"/><path fill="#FFD400" d="M377.578 250.933c.19.028.382.057.565.102.183.045.381.082.56.143.18.062.352.168.523.246.172.078.328.2.496.295.168.094.359.147.515.253.157.107.302.242.45.365.15.123.31.233.443.368.133.135.236.307.359.45.122.144.213.32.324.475.11.156.233.303.328.471.095.168.225.316.305.492.089.171.169.347.24.528.062.18.1.372.145.556.046.185.092.377.123.565.03.189 0 .385 0 .574 0 .188.057.38.053.573-.004.192-.042.376-.065.565-.005.191-.02.383-.046.573a5.378 5.378 0 01-.145.557c-.057.18-.156.352-.229.524-.072.172-.137.356-.228.524-.092.167-.245.29-.351.45-.1.16-.207.315-.32.463a5.546 5.546 0 01-.424.376c-.12.145-.247.281-.382.41-.13.144-.265.28-.408.409-.157.106-.31.225-.473.32-.164.093-.351.15-.523.229a4.96 4.96 0 01-.53.208c-.18.058-.382.066-.56.11-.18.046-.382.038-.566.066a5.326 5.326 0 01-1.129.062c-.187 0-.381 0-.568-.037-.187-.037-.382-.094-.553-.135-.172-.041-.382-.02-.573-.082-.19-.061-.347-.172-.522-.25-.176-.078-.325-.2-.492-.295-.168-.094-.351-.155-.512-.266-.16-.11-.278-.262-.427-.384a5.45 5.45 0 01-.439-.365c-.137-.135-.32-.23-.446-.376-.126-.148-.18-.344-.29-.5-.11-.155-.26-.29-.355-.458-.095-.168-.114-.369-.194-.545a5.63 5.63 0 01-.214-.528 5.443 5.443 0 01-.244-.528c-.046-.184-.073-.377-.103-.565-.03-.188-.034-.38-.046-.573-.011-.193.034-.377.038-.57.004-.192-.076-.409-.053-.58.04-.188.09-.372.149-.553.05-.183.112-.362.183-.537.056-.181.123-.359.198-.532.073-.172.168-.336.256-.5.088-.163.149-.351.252-.507.103-.155.194-.332.312-.475.137-.133.281-.257.431-.372a5.29 5.29 0 01.432-.36c.126-.144.26-.281.4-.41.164-.096.332-.184.504-.262.164-.09.32-.205.492-.283.172-.077.347-.155.526-.212.18-.058.382-.054.561-.099.18-.045.359-.147.546-.172.187-.024.381-.053.568-.061.187-.008.382.086.572.094.191.008.382-.04.573 0" mask="url(#b)"/><path fill="#32AAED" fill-rule="nonzero" mask="url(#b)" d="M322.757 240.078l-2.812-3.792-2.644-4.006-3.147-3.51 3.479-3.181 4.006-2.648 3.765-2.606 2.953 3.499 3.189 3.59 2.793 4.051-3.682 3.273-3.94 2.736z"/><path fill="#E5E5EA" fill-rule="nonzero" d="M763.381 373.107c-11.2 2.766-22.786-.584-34.659-9.816-11.777-9.156-19.266-20.765-19.578-21.257l-.698-1.087 2.178-1.397.698 1.091c.076.115 7.596 11.762 19.037 20.643 11.311 8.775 22.302 11.873 32.71 9.275" mask="url(#b)"/></g></svg>