<svg xmlns="http://www.w3.org/2000/svg" xmlns:xlink="http://www.w3.org/1999/xlink" width="422" height="360"><defs><path id="d" d="M0 0h366a8 8 0 018 8v304H0V0z"/><path id="e" d="M0 0h366a8 8 0 018 8v304H0V0z"/><path id="h" d="M0 0h374v64H0z"/><filter id="c" width="113.9%" height="116.7%" x="-7%" y="-7.1%" filterUnits="objectBoundingBox"><feOffset dy="4" in="SourceAlpha" result="shadowOffsetOuter1"/><feGaussianBlur in="shadowOffsetOuter1" result="shadowBlurOuter1" stdDeviation="8"/><feColorMatrix in="shadowBlurOuter1" values="0 0 0 0 0 0 0 0 0 0 0 0 0 0 0 0 0 0 0.12 0"/></filter><filter id="g" width="101.9%" height="110.9%" x="-.9%" y="-3.9%" filterUnits="objectBoundingBox"><feOffset dy="1" in="SourceAlpha" result="shadowOffsetOuter1"/><feGaussianBlur in="shadowOffsetOuter1" result="shadowBlurOuter1" stdDeviation="1"/><feComposite in="shadowBlurOuter1" in2="SourceAlpha" operator="out" result="shadowBlurOuter1"/><feColorMatrix in="shadowBlurOuter1" values="0 0 0 0 0 0 0 0 0 0 0 0 0 0 0 0 0 0 0.12 0"/></filter><rect id="a" width="422" height="360" x="0" y="0" rx="4"/></defs><g fill="none" fill-rule="evenodd"><mask id="b" fill="#fff"><use xlink:href="#a"/></mask><use fill="#000" fill-opacity="0" xlink:href="#a"/><g mask="url(#b)"><g transform="translate(0 48)"><use fill="#000" filter="url(#c)" xlink:href="#d"/><mask id="f" fill="#fff"><use xlink:href="#e"/></mask><use fill="#FFF" xlink:href="#e"/><g mask="url(#f)"><use fill="#000" filter="url(#g)" xlink:href="#h"/><use fill="#FFF" fill-opacity=".98" xlink:href="#h"/></g><g fill-opacity=".32" mask="url(#f)"><g fill="#47ADEA" transform="translate(22 12)"><circle cx="284" cy="20" r="20"/><rect width="127" height="24" x="129" y="8" rx="4"/><rect width="53" height="16" x="227" y="68" rx="4"/><rect width="81" height="16" x="114" y="68" rx="4"/><rect width="264" height="32" x="40" y="100" rx="4"/><rect width="168" height="16" x="136" y="140" rx="4"/><rect width="304" height="106" y="172" rx="4"/><rect width="16" height="16" x="203" y="68" rx="8"/><rect width="16" height="16" x="288" y="68" rx="8"/></g></g><g fill="#EA475B" fill-opacity=".12" mask="url(#f)"><path d="M-.181 0h22.762v312H-.181zM38.581 0H70.5v312H38.581zM86.5 0h31.919v312H86.5zM134.419 0h31.919v312h-31.919zM182.338 0h31.919v312h-31.919zM230.257 0h31.919v312h-31.919zM278.176 0h31.919v312h-31.919zM326.095 0h31.919v312h-31.919z"/></g></g></g></g></svg>