<svg xmlns="http://www.w3.org/2000/svg" xmlns:xlink="http://www.w3.org/1999/xlink" width="860" height="428"><defs><rect id="column_offset-a" width="860" height="428" x="0" y="0" rx="4"/><rect id="column_offset-d" width="520" height="300" x="0" y="0" rx="4"/><filter id="column_offset-c" width="110%" height="117.3%" x="-5%" y="-7.3%" filterUnits="objectBoundingBox"><feOffset dy="4" in="SourceAlpha" result="shadowOffsetOuter1"/><feGaussianBlur in="shadowOffsetOuter1" result="shadowBlurOuter1" stdDeviation="8"/><feColorMatrix in="shadowBlurOuter1" values="0 0 0 0 0 0 0 0 0 0 0 0 0 0 0 0 0 0 0.12 0"/></filter></defs><style>@keyframes layout{0%,30%,to{transform:translate(234px,88px) scale(1,1)}50%,80%{transform:translate(234px,88px) scale(.66,1)}}@keyframes num12{0%,28%,to{opacity:1}40%,92%{opacity:0}}@keyframes num8{0%,32%,to{opacity:0}44%,92%{opacity:1}}</style><g fill="none" fill-rule="evenodd"><mask id="column_offset-b" fill="#fff"><use xlink:href="#column_offset-a"/></mask><use fill="#000000" fill-opacity="0" xlink:href="#column_offset-a"/><g mask="url(#column_offset-b)"><g transform="translate(170 64)"><use fill="#000" filter="url(#column_offset-c)" xlink:href="#column_offset-d"/><rect width="520" height="300" fill="#FFF" rx="4"/></g></g><g mask="url(#column_offset-b)"><path d="M230 64h4v300h-4z"/><path fill="#EA475B" fill-opacity=".08" d="M234 64h25.322v300H234z"/><path d="M259.322 64h4v300h-4zM263.322 64h4v300h-4z"/><path fill="#EA475B" fill-opacity=".08" d="M267.322 64h25.322v300h-25.322z"/><path d="M292.644 64h4v300h-4zM296.644 64h4v300h-4z"/><path fill="#EA475B" fill-opacity=".08" d="M300.644 64h25.322v300h-25.322z"/><path d="M325.966 64h4v300h-4zM329.966 64h4v300h-4z"/><path fill="#EA475B" fill-opacity=".08" d="M333.966 64h25.322v300h-25.322z"/><path d="M359.288 64h4v300h-4zM363.288 64h4v300h-4z"/><path fill="#EA475B" fill-opacity=".08" d="M367.288 64h25.322v300h-25.322z"/><path d="M392.61 64h4v300h-4z"/><g><path d="M396.61 64h4v300h-4z"/><path fill="#EA475B" fill-opacity=".08" d="M400.61 64h25.322v300H400.61z"/><path d="M425.932 64h4v300h-4z"/></g><g><path d="M429.932 64h4v300h-4z"/><path fill="#EA475B" fill-opacity=".08" d="M433.932 64h25.322v300h-25.322z"/><path d="M459.254 64h4v300h-4z"/></g><g><path d="M463.254 64h4v300h-4z"/><path fill="#EA475B" fill-opacity=".08" d="M467.254 64h25.322v300h-25.322z"/><path d="M492.576 64h4v300h-4z"/></g><g><path d="M496.576 64h4v300h-4z"/><path fill="#EA475B" fill-opacity=".08" d="M500.576 64h25.322v300h-25.322z"/><path d="M525.898 64h4v300h-4z"/></g><g><path d="M529.898 64h4v300h-4z"/><path fill="#EA475B" fill-opacity=".08" d="M533.898 64h25.322v300h-25.322z"/><path d="M559.22 64h4v300h-4z"/></g><g><path d="M563.22 64h4v300h-4z"/><path fill="#EA475B" fill-opacity=".08" d="M567.22 64h25.322v300H567.22z"/><path d="M592.542 64h4v300h-4z"/></g><g><path d="M596.542 64h4v300h-4z"/><path fill="#EA475B" fill-opacity=".08" d="M600.542 64h25.413v300h-25.413z"/><path d="M625.955 64h4v300h-4z"/></g></g><g fill="#47ADEA" fill-opacity=".32" mask="url(#column_offset-b)"><rect width="392" height="252" rx="2" style="animation:layout 4000ms cubic-bezier(.83,0,.17,1) infinite;transform-origin:196px 0"/></g><g fill="#000000" mask="url(#column_offset-b)"><path fill-opacity=".56" fill-rule="nonzero" d="M236.803 390.098c.358 0 .697-.082 1.018-.244.32-.163.577-.381.769-.655.192-.273.296-.561.312-.864h-.854a1.03 1.03 0 01-.4.732c-.241.196-.523.293-.845.293-.466 0-.824-.164-1.074-.493-.251-.329-.376-.797-.376-1.406v-.171c0-.625.126-1.103.378-1.433.252-.33.608-.496 1.067-.496.342 0 .629.11.862.33.232.22.362.5.388.842h.854c-.026-.566-.235-1.027-.627-1.382-.392-.354-.885-.532-1.477-.532-.482 0-.9.11-1.253.332a2.157 2.157 0 00-.813.933 3.18 3.18 0 00-.283 1.372v.151c0 .834.213 1.49.637 1.97.425.48.997.72 1.717.72zm5.283 0a2.34 2.34 0 001.262-.342c.366-.228.648-.546.845-.955.197-.408.295-.87.295-1.384v-.063c0-.827-.222-1.49-.666-1.988-.445-.498-1.026-.747-1.746-.747-.465 0-.88.112-1.243.337a2.277 2.277 0 00-.85.957 3.12 3.12 0 00-.304 1.397v.063c0 .82.222 1.48.666 1.978.445.498 1.025.747 1.74.747zm0-.738c-.456 0-.82-.177-1.091-.532-.272-.355-.408-.825-.408-1.411 0-.66.137-1.169.41-1.523a1.297 1.297 0 011.08-.533c.455 0 .82.18 1.095.54.275.36.413.83.413 1.409 0 .647-.135 1.151-.405 1.51-.27.36-.635.54-1.094.54zm4.517.64v-7.5h-.904v7.5h.904zm3.159.098c.68 0 1.196-.207 1.548-.62l.02.522h.858v-5.283h-.903v3.843c-.228.514-.687.771-1.377.771-.65 0-.976-.4-.976-1.201v-3.413h-.904v3.437c.004.642.153 1.126.447 1.453.295.327.724.49 1.287.49zm4.697-.098v-3.857c.218-.505.623-.757 1.216-.757.752 0 1.128.384 1.128 1.152V390h.908v-3.506c.036-.338.164-.608.386-.808.221-.2.5-.3.835-.3.407 0 .696.093.869.28.172.188.259.47.259.848V390h.903v-3.54c-.02-1.227-.609-1.84-1.768-1.84-.384 0-.717.077-.998.234-.282.156-.51.36-.686.615-.267-.567-.77-.85-1.509-.85-.658 0-1.18.228-1.567.684l-.025-.586h-.854V390h.903zm8.77 0v-3.765c.123-.254.296-.459.517-.615.221-.156.479-.234.772-.234.36 0 .627.09.798.273.17.182.258.464.261.845V390h.903v-3.491c-.01-1.26-.572-1.89-1.689-1.89-.651 0-1.178.254-1.582.762l-.03-.664h-.854V390h.904zm9.033.098c.602 0 1.092-.143 1.47-.428.377-.284.566-.663.566-1.135 0-.283-.068-.523-.203-.72-.135-.197-.342-.365-.622-.505-.28-.14-.646-.26-1.097-.362-.45-.1-.762-.206-.935-.317a.548.548 0 01-.258-.493c0-.231.092-.419.278-.562.185-.143.443-.215.771-.215.32 0 .584.09.794.269.21.179.315.392.315.64h.908c0-.482-.186-.878-.56-1.187-.372-.31-.858-.464-1.457-.464-.57 0-1.037.15-1.403.45-.367.299-.55.665-.55 1.098 0 .26.065.485.193.674.129.189.327.351.596.488.268.137.631.254 1.089.352.457.097.778.214.962.349a.665.665 0 01.276.569.638.638 0 01-.31.554c-.207.138-.481.207-.823.207-.371 0-.67-.088-.896-.266a.935.935 0 01-.364-.72h-.903c0 .313.092.603.276.872.183.268.438.477.764.627.325.15.7.225 1.123.225zm4.116 1.933v-2.544c.368.407.872.61 1.514.61.628 0 1.126-.245 1.494-.737.368-.491.552-1.139.552-1.943v-.083c0-.853-.185-1.519-.555-1.997-.37-.479-.871-.718-1.506-.718-.654 0-1.165.228-1.533.684l-.044-.586h-.825v7.314h.903zm1.24-2.67c-.556 0-.97-.242-1.24-.723v-2.525c.273-.485.684-.727 1.23-.727.443 0 .791.172 1.045.517.254.345.381.816.381 1.411 0 .678-.128 1.188-.383 1.531-.256.344-.6.515-1.033.515zm5.098.737c.583 0 1.084-.218 1.504-.655.032.267.075.453.127.557h.947v-.078c-.124-.287-.186-.672-.186-1.157v-2.432c-.013-.534-.192-.953-.537-1.257-.345-.305-.822-.457-1.43-.457-.384 0-.737.072-1.058.215-.32.143-.574.338-.761.583-.187.246-.281.501-.281.765h.908c0-.231.11-.428.327-.591.218-.163.489-.244.81-.244.369 0 .647.093.836.28.189.188.283.44.283.755v.415h-.879c-.758 0-1.347.152-1.765.456-.418.305-.627.732-.627 1.282 0 .453.166.826.5 1.12.334.295.761.443 1.282.443zm.132-.786c-.297 0-.54-.08-.728-.24-.189-.16-.283-.38-.283-.664 0-.648.553-.971 1.66-.971h.708v1.084a1.33 1.33 0 01-.552.57c-.254.147-.522.22-.805.22zm4.58.688v-3.765c.123-.254.296-.459.517-.615.222-.156.479-.234.772-.234.361 0 .627.09.798.273.171.182.258.464.261.845V390h.904v-3.491c-.01-1.26-.573-1.89-1.69-1.89-.65 0-1.178.254-1.582.762l-.03-.664h-.854V390h.904zm40.424.098a2.34 2.34 0 001.262-.342c.366-.228.648-.546.844-.955.197-.408.296-.87.296-1.384v-.063c0-.827-.222-1.49-.667-1.988-.444-.498-1.026-.747-1.745-.747-.466 0-.88.112-1.243.337a2.277 2.277 0 00-.85.957 3.12 3.12 0 00-.305 1.397v.063c0 .82.223 1.48.667 1.978.444.498 1.024.747 1.74.747zm0-.738c-.456 0-.82-.177-1.092-.532-.272-.355-.407-.825-.407-1.411 0-.66.136-1.169.41-1.523a1.297 1.297 0 011.079-.533c.456 0 .82.18 1.096.54.275.36.413.83.413 1.409 0 .647-.136 1.151-.406 1.51-.27.36-.634.54-1.093.54zm4.882.64v-4.585h1.128v-.698h-1.128v-.557c0-.319.08-.564.24-.735.16-.17.385-.256.678-.256.173 0 .336.015.489.044l.048-.733a2.37 2.37 0 00-.62-.083c-.553 0-.981.155-1.284.464-.303.31-.454.747-.454 1.314v.542h-.835v.698h.835V390h.903zm3.472 0v-4.585h1.128v-.698h-1.128v-.557c0-.319.08-.564.24-.735.159-.17.385-.256.678-.256.173 0 .335.015.488.044l.05-.733a2.37 2.37 0 00-.621-.083c-.553 0-.981.155-1.284.464-.303.31-.454.747-.454 1.314v.542h-.835v.698h.835V390h.903zm4.067.098c.603 0 1.093-.143 1.47-.428.378-.284.567-.663.567-1.135 0-.283-.068-.523-.203-.72-.135-.197-.343-.365-.623-.505-.28-.14-.645-.26-1.096-.362-.45-.1-.762-.206-.935-.317a.548.548 0 01-.259-.493c0-.231.093-.419.279-.562.185-.143.442-.215.771-.215.32 0 .584.09.794.269.21.179.315.392.315.64h.908c0-.482-.187-.878-.56-1.187-.372-.31-.858-.464-1.457-.464-.57 0-1.037.15-1.404.45-.366.299-.549.665-.549 1.098 0 .26.064.485.193.674.128.189.327.351.596.488.268.137.631.254 1.088.352.458.097.778.214.962.349a.665.665 0 01.276.569.638.638 0 01-.31.554c-.207.138-.48.207-.823.207-.37 0-.67-.088-.896-.266a.935.935 0 01-.363-.72h-.904c0 .313.092.603.276.872.184.268.439.477.764.627.326.15.7.225 1.123.225zm5.406 0c.885 0 1.55-.34 1.992-1.02l-.552-.43c-.166.214-.36.387-.58.517-.222.13-.492.195-.811.195-.45 0-.82-.16-1.111-.48-.292-.321-.444-.742-.457-1.263h3.58v-.376c0-.843-.191-1.49-.572-1.943-.38-.453-.915-.679-1.602-.679-.42 0-.81.117-1.169.35-.36.232-.64.554-.84.966-.2.412-.3.88-.3 1.404v.166c0 .788.224 1.417.674 1.887.449.47 1.032.706 1.748.706zm1.157-3.223h-2.647c.059-.479.212-.85.46-1.116.247-.265.553-.398.917-.398.378 0 .677.126.899.379.221.252.345.608.37 1.067v.068zm3.491 3.223c.225 0 .456-.033.694-.098v-.732c-.183.039-.326.058-.43.058-.212 0-.362-.053-.45-.159-.087-.105-.131-.264-.131-.476v-3.276h.986v-.698h-.986v-1.28h-.904v1.28h-.961v.698h.961v3.276c0 .45.103.796.308 1.04.205.245.51.367.913.367z"/><path fill-opacity=".12" d="M316 379h1v16h-1z"/></g><g fill="#000000" fill-opacity=".56" fill-rule="nonzero" mask="url(#column_offset-b)"><path style="animation:num12 4000ms cubic-bezier(.83,0,.17,1) infinite" d="M299.56 390v-7.144h-.142l-2.588.972v.82l1.821-.669V390h.909zm7.304 0v-.737h-3.57l1.905-2.066c.892-.967 1.338-1.8 1.338-2.5 0-.576-.192-1.037-.576-1.384-.384-.347-.907-.52-1.567-.52-.707 0-1.27.202-1.692.605-.422.404-.633.933-.633 1.587h.904c0-.455.124-.811.373-1.067.25-.255.598-.383 1.048-.383.374 0 .673.119.898.357.225.237.337.542.337.913 0 .276-.07.544-.208.803-.138.259-.39.595-.754 1.008l-2.46 2.735V390h4.657z"/></g><g fill="#000000" fill-opacity=".56" fill-rule="nonzero" mask="url(#column_offset-b)"><path style="animation:num8 4000ms cubic-bezier(.83,0,.17,1) infinite" d="M298.808 390.098c.677 0 1.223-.183 1.638-.547.415-.365.622-.855.622-1.47 0-.387-.108-.734-.324-1.04a2.038 2.038 0 00-.882-.698 1.91 1.91 0 00.76-.65 1.65 1.65 0 00.28-.947c0-.599-.193-1.074-.578-1.426-.386-.351-.891-.527-1.516-.527-.629 0-1.135.176-1.519.527-.384.352-.576.827-.576 1.426 0 .352.091.666.273.942.183.277.432.494.747.65a1.96 1.96 0 00-.871.703 1.81 1.81 0 00-.315 1.04c0 .612.206 1.101.618 1.467.411.367.959.55 1.643.55zm0-4.126c-.362 0-.65-.112-.867-.335-.217-.223-.325-.515-.325-.876 0-.378.11-.677.33-.896.22-.22.507-.33.862-.33.345 0 .63.114.854.342.225.228.337.522.337.884 0 .361-.108.653-.325.876-.216.223-.505.335-.866.335zm0 3.388c-.427 0-.76-.115-.999-.346-.24-.231-.359-.549-.359-.952 0-.404.123-.73.369-.977s.572-.371.979-.371c.407 0 .736.125.989.376.252.25.378.574.378.972 0 .4-.12.716-.361.95-.241.232-.573.348-.996.348z"/></g><g fill="#000000" fill-opacity=".56" fill-rule="nonzero" mask="url(#column_offset-b)"><path style="animation:num12 4000ms cubic-bezier(.83,0,.17,1) infinite" d="M358.813 390.098c.768 0 1.333-.258 1.694-.772s.542-1.3.542-2.358v-1.172c-.01-1.022-.195-1.778-.557-2.268-.361-.49-.924-.735-1.69-.735-.77 0-1.337.254-1.698.762-.362.507-.542 1.284-.542 2.329v1.206c.013 1 .201 1.75.566 2.253.365.503.926.755 1.684.755zm0-.738c-.453 0-.79-.183-1.014-.549-.223-.366-.334-.933-.334-1.702v-1.445c.006-.723.115-1.258.327-1.606.212-.349.548-.523 1.01-.523.466 0 .806.175 1.021.525.215.35.323.907.323 1.672v1.48c-.01.742-.123 1.286-.34 1.63-.216.346-.548.518-.994.518z"/></g><g fill="#000000" fill-opacity=".56" fill-rule="nonzero" mask="url(#column_offset-b)"><path style="animation:num8 4000ms cubic-bezier(.83,0,.17,1) infinite" d="M361.249 390v-.737h-3.57l1.905-2.066c.892-.967 1.338-1.8 1.338-2.5 0-.576-.192-1.037-.576-1.384-.384-.347-.907-.52-1.568-.52-.706 0-1.27.202-1.692.605-.421.404-.632.933-.632 1.587h.903c0-.455.125-.811.374-1.067.249-.255.598-.383 1.047-.383.375 0 .674.119.899.357.224.237.337.542.337.913 0 .276-.07.544-.208.803-.138.259-.39.595-.754 1.008l-2.461 2.735V390h4.658z"/></g></g></svg>