<svg width="860" height="156" xmlns="http://www.w3.org/2000/svg"><g fill="none" fill-rule="evenodd"><rect fill="none" width="860" height="156" rx="4"/><path d="M191 64h118v28H191a4 4 0 01-4-4V68a4 4 0 014-4z" fill="#2E7D32"/><path d="M257.597 81.157c.393 0 .763-.04 1.11-.12.345-.08.648-.208.907-.384a1.88 1.88 0 00.613-.686c.15-.282.224-.624.224-1.028 0-.226-.02-.457-.062-.694a6.81 6.81 0 00-.165-.707 7.944 7.944 0 00-.232-.686 16.718 16.718 0 00-.26-.631l-1.206.595a8.62 8.62 0 01.642 1.753c.038.163.057.29.057.38a.65.65 0 01-.159.46c-.106.114-.24.202-.402.263-.161.061-.337.101-.527.12-.19.02-.366.029-.53.029h-1.11v1.336h1.1zm.021 2.666l.887-.887-.897-.898-.887.892.897.893zm1.972.01l.887-.892-.897-.892-.887.887.897.897zm-.99 1.424l.813-.814-.814-.819-.819.814.82.82zm-1.895-4.1V79.82h-.235c-.135 0-.254-.014-.357-.042a.518.518 0 01-.391-.38 1.294 1.294 0 01-.04-.335v-.083c0-.108.001-.214.003-.318l.003-.158.002-.16.006-.337a25.071 25.071 0 00-.003-.918 35.016 35.016 0 01-.005-.587 27.333 27.333 0 00-.157-2.91 9.531 9.531 0 00-.104-.737l-1.31.391c.032.163.06.352.084.566.024.214.045.444.062.689a31.197 31.197 0 01.074 1.55 60.87 60.87 0 01.02 1.478c0 .37-.003.681-.01.937s-.01.44-.01.55c.003.717.187 1.253.553 1.607.365.355.9.533 1.607.533h.208zm-12.417 0c.243 0 .49-.01.74-.032.251-.02.493-.055.726-.102a4.06 4.06 0 00.65-.185c.2-.076.373-.17.519-.281.16.177.357.321.592.433.235.11.522.167.863.167h1.05l.262-.003a10.365 10.365 0 00.908-.052c.152-.016.278-.038.379-.065.33-.098.615-.245.855-.441a1.96 1.96 0 00.558-.754c.115-.265.173-.565.173-.903a3.73 3.73 0 00-.066-.647 8.067 8.067 0 00-.412-1.469 4.87 4.87 0 00-.279-.602l-1.216.6.17.357c.068.141.137.29.206.449.07.158.135.322.196.49.06.17.11.33.146.483.036.153.054.294.052.423a.552.552 0 01-.08.307.747.747 0 01-.32.248 2.294 2.294 0 01-.477.152c-.175.036-.359.06-.55.073a8.564 8.564 0 01-.543.018h-1.017a.555.555 0 01-.352-.104.72.72 0 01-.209-.267 1.338 1.338 0 01-.107-.357 5.333 5.333 0 01-.047-.373 86.74 86.74 0 00-.039-.438 8.834 8.834 0 00-.044-.389 6.325 6.325 0 00-.178-.853l-1.278.36.12.423c.035.121.064.234.086.336a4.4 4.4 0 01.06.566c-.01.237-.074.427-.19.572a1.126 1.126 0 01-.465.333c-.193.079-.413.13-.662.154a8.01 8.01 0 01-.78.037h-.465v1.336h.465zm5.415 2.478l.887-.887-.897-.898-.887.893.897.892zm1.973.01l.887-.892-.898-.892-.887.887.898.897zm-6.882.538l.887-.887-.898-.898-.886.892.897.893zm1.972.01l.887-.892-.897-.892-.887.887.897.897zm-7.758-5.567l1.002-1.002-1.002-.996-.997.996.997 1.002zm-.172 6.12c.507 0 .965-.05 1.372-.149.407-.099.764-.236 1.072-.412a3.185 3.185 0 001.32-1.406c.134-.282.225-.56.274-.837a4.562 4.562 0 00.068-.989c.111.063.243.112.396.149.153.036.324.055.512.055h.172V79.82h-.172a2.84 2.84 0 01-.337-.021.85.85 0 01-.357-.138 1.551 1.551 0 01-.373-.365 3.426 3.426 0 01-.39-.702c-.1-.237-.183-.434-.247-.592a4.14 4.14 0 00-.112-.264l-1.226.684c.003 0 .028.045.073.135a12.08 12.08 0 01.59 1.466c.066.202.122.401.169.598.047.196.074.375.08.535v.088c0 .181-.025.355-.077.522-.066.195-.16.376-.282.543-.122.167-.27.318-.444.453a2.824 2.824 0 01-.579.347 3.11 3.11 0 01-.67.214c-.235.047-.474.07-.718.07h-.052a3.001 3.001 0 01-.931-.164 2.517 2.517 0 01-.775-.427 2.05 2.05 0 01-.53-.655 1.822 1.822 0 01-.195-.845c0-.261.03-.52.091-.778.061-.257.133-.497.217-.72a4.75 4.75 0 01.263-.59c.092-.17.17-.298.232-.385l-1.027-.747a5.746 5.746 0 00-.97 3.188c0 .54.084 1.024.255 1.453.17.43.411.794.722 1.093.312.3.687.53 1.125.69.438.16.925.24 1.46.24z" fill="#FFF" fill-rule="nonzero"/><path fill="#7CB342" d="M309 64h243v28H309zM309 48h1v16h-1zM551 48h1v16h-1z"/><path d="M442.811 81.157c.41 0 .773-.074 1.088-.22.315-.146.61-.354.884-.626a6.083 6.083 0 001.06.59c.167.062.33.112.493.149.161.036.315.054.461.054.17 0 .334-.026.49-.078a1.677 1.677 0 00.802-.569c.106-.135.192-.287.258-.454.06-.156.103-.318.133-.485a3.137 3.137 0 00-.175-1.662 2.498 2.498 0 00-.276-.51 2.063 2.063 0 00-.389-.418 1.726 1.726 0 00-1.114-.384c-.247 0-.464.05-.652.149-.188.1-.355.228-.501.386a3.003 3.003 0 00-.391.535c-.115.198-.221.398-.319.6-.097.191-.2.383-.31.574-.11.191-.236.363-.38.516-.145.153-.311.278-.5.373a1.442 1.442 0 01-.662.144h-.104v1.336h.104zm4.232-1.357a.953.953 0 01-.23-.031c-.15-.032-.3-.079-.454-.141a4.634 4.634 0 01-.793-.417c.132-.265.244-.483.334-.655.09-.173.169-.31.235-.413.066-.102.122-.175.17-.219a.31.31 0 01.143-.08.771.771 0 01.151-.016c.101 0 .195.02.282.062.129.067.24.16.334.282.094.122.168.262.222.42.053.158.08.316.08.472v.053c0 .083-.007.16-.02.23a.976.976 0 01-.081.218.541.541 0 01-.11.149.246.246 0 01-.112.065.513.513 0 01-.151.021zm-6.355-3.464l1.002-1.002-1.002-.997-.997.997.997 1.002zm-1.466 4.82c.49 0 .907-.046 1.25-.14.342-.094.633-.24.873-.439.164.17.365.31.603.418.238.108.526.162.863.162h.105V79.82h-.105a.537.537 0 01-.347-.107.775.775 0 01-.211-.266 1.307 1.307 0 01-.112-.35 4.376 4.376 0 01-.05-.357 37.708 37.708 0 00-.039-.483 5.595 5.595 0 00-.222-1.155l-1.283.36c.09.31.16.567.209.774.048.207.073.37.073.488 0 .365-.135.64-.405.822-.27.183-.67.274-1.202.274h-.193v1.336h.193zm-5.03.1c.327 0 .674-.017 1.041-.05a6.65 6.65 0 001.104-.196 2.1 2.1 0 00.576.118c.231.019.533.029.905.029h1.42V79.82h-.976c.264-.362.414-.781.448-1.258v-.093c0-.29-.055-.56-.167-.814a2.316 2.316 0 00-.53-.73 2.478 2.478 0 00-.784-.491c-.3-.118-.61-.178-.934-.178-.254 0-.505.03-.752.09-.246.058-.486.142-.717.25a4.81 4.81 0 00-.673.383c-.217.148-.425.31-.623.488a6.2 6.2 0 00-.462.503 8.62 8.62 0 00-.384.504c-.114.163-.215.319-.302.467-.087.148-.162.28-.225.399a.726.726 0 01-.094-.149 1.205 1.205 0 01-.07-.182 1.49 1.49 0 01-.06-.394c0-.098.004-.186.013-.266a1.857 1.857 0 01.107-.447c.028-.07.06-.148.1-.232l-1.211-.401a4.73 4.73 0 00-.175.57c-.047.197-.097.39-.149.577a4.538 4.538 0 01-.185.538 1.59 1.59 0 01-.28.448c-.114.13-.256.23-.427.306-.17.074-.383.112-.636.112h-.147v1.336h.173c.434 0 .821-.063 1.16-.188.34-.126.645-.336.916-.632.122.153.258.287.407.402.15.115.337.21.561.287.224.077.5.134.827.172.327.039.729.058 1.205.058zm.146-1.367c-.094 0-.188-.002-.281-.006a7.997 7.997 0 01-.861-.062c.156-.275.33-.535.521-.78.192-.245.405-.465.64-.66.234-.195.492-.36.772-.496.28-.135.587-.233.92-.292a1.548 1.548 0 01.486.005c.17.032.331.086.482.165.152.078.281.179.39.302a.859.859 0 01.203.425 1.034 1.034 0 01-.29.577 1.968 1.968 0 01-.597.407c-.24.11-.51.196-.806.258-.298.063-.581.105-.85.125-.27.021-.513.032-.729.032zm-7.94-4.826l1.001-1.002-1.002-.997-.996.997.996 1.002zm-2.573 6.094c.25 0 .509-.01.775-.027s.52-.044.76-.08c.24-.037.456-.083.649-.139.193-.055.341-.121.446-.198.146.1.314.18.503.237.19.058.394.102.613.133.22.032.453.052.702.06.249.01.507.014.775.014h.104V79.82h-.14a7.177 7.177 0 01-1.106-.094 3.27 3.27 0 00.383-.707c.099-.252.148-.514.148-.785a2.462 2.462 0 00-.569-1.55 2.206 2.206 0 00-.628-.519 1.73 1.73 0 00-.785-.216h-.058c-.174 0-.342.03-.506.088-.184.066-.356.16-.516.28-.16.12-.306.26-.438.422a2.79 2.79 0 00-.337.52 2.405 2.405 0 00-.198.54c-.04.175-.06.334-.06.477 0 .045.001.09.005.135.003.178.03.34.08.488.051.148.112.28.183.397.072.116.15.217.233.302.083.085.16.15.23.196a5.29 5.29 0 01-.572.026h-.78v1.336h.104zm2.65-1.712a1.252 1.252 0 01-.385-.18 2.206 2.206 0 01-.334-.276 1.596 1.596 0 01-.235-.298.513.513 0 01-.089-.242c0-.192.036-.357.107-.496a1.263 1.263 0 01.59-.576c.116-.054.22-.09.31-.107.087.017.18.058.28.122a1.39 1.39 0 01.495.574.912.912 0 01.086.389c0 .097-.023.199-.07.305a1.492 1.492 0 01-.186.308 1.779 1.779 0 01-.568.477zm-2.545 1.712V79.82h-.235c-.136 0-.255-.014-.358-.042a.518.518 0 01-.391-.38 1.294 1.294 0 01-.039-.335v-.083c0-.108 0-.214.003-.318a602.818 602.818 0 00.01-.655 25.072 25.072 0 00-.003-.918 35.019 35.019 0 01-.005-.587 27.332 27.332 0 00-.156-2.91 9.53 9.53 0 00-.105-.737l-1.31.391c.032.163.06.352.084.566.025.214.045.444.063.689a31.199 31.199 0 01.073 1.55 60.896 60.896 0 01.02 1.478v.215c0 .277-.004.517-.01.722-.007.256-.01.44-.01.55.003.717.188 1.253.553 1.607.365.355.9.533 1.607.533h.209zm-5.573-5.703l1.002-1.002-1.002-.996-.996.996.996 1.002zm-.834 5.703c.393 0 .754-.043 1.082-.128.329-.086.612-.218.848-.397.237-.179.42-.409.553-.689.132-.28.198-.614.198-1.004 0-.226-.02-.457-.062-.694a6.81 6.81 0 00-.165-.707 7.944 7.944 0 00-.232-.686 16.718 16.718 0 00-.26-.631l-1.206.595a8.619 8.619 0 01.642 1.753c.038.163.057.29.057.38a.731.731 0 01-.133.46.858.858 0 01-.342.263 1.6 1.6 0 01-.466.12c-.173.02-.34.029-.504.029h-.84v1.336h.83zm-.621 0V79.82h-.105c-.107 0-.201-.006-.281-.018a.7.7 0 01-.209-.063.523.523 0 01-.157-.12.745.745 0 01-.12-.19 1.261 1.261 0 01-.05-.133 3.056 3.056 0 01-.08-.35 20.975 20.975 0 01-.112-.67 31.346 31.346 0 01-.204-1.662 149.438 149.438 0 01-.138-1.31l-.02-.206-1.32.282.067.793c-.174.07-.357.152-.55.248a6.051 6.051 0 00-.572.323c-.188.12-.367.253-.537.4-.17.145-.32.304-.449.474-.128.17-.231.353-.308.548-.076.195-.114.4-.114.616 0 .201.03.382.094.542.062.16.148.301.258.423.11.122.238.225.386.31.148.085.307.156.477.212.17.055.349.095.535.12.186.024.371.036.556.036.167 0 .337-.007.511-.02.174-.015.36-.036.558-.063.119.205.244.361.376.47.132.107.272.186.42.237.148.05.303.08.464.088.162.009.335.015.52.019h.104zm-2.985-2.056c-.121 0-.25-.006-.386-.018a2.417 2.417 0 01-.378-.063.949.949 0 01-.29-.12c-.076-.05-.114-.114-.114-.19a.51.51 0 01.08-.261c.054-.09.125-.18.212-.269a2.67 2.67 0 01.3-.26c.113-.086.229-.165.347-.238.118-.073.233-.14.344-.199.111-.059.212-.107.303-.146a47.17 47.17 0 01.115.963c.017.151.034.291.052.42.017.129.035.24.052.334a4.107 4.107 0 01-.637.047z" fill="#FFF" fill-rule="nonzero"/><path d="M552 64h117a4 4 0 014 4v20a4 4 0 01-4 4H552V64z" fill="#FBC02D"/><path d="M616.785 81.157c.393 0 .754-.043 1.083-.128.329-.086.611-.218.848-.397.236-.179.42-.409.553-.689.132-.28.198-.614.198-1.004 0-.226-.02-.457-.063-.694a6.81 6.81 0 00-.164-.707 7.944 7.944 0 00-.232-.686 16.718 16.718 0 00-.261-.631l-1.205.595a8.62 8.62 0 01.642 1.753c.038.163.057.29.057.38a.731.731 0 01-.133.46.858.858 0 01-.342.263 1.6 1.6 0 01-.467.12c-.172.02-.34.029-.503.029h-.84v1.336h.83zm.856 2.697l1.002-1.002-1.002-.996-.997.996.997 1.002zm-1.477-2.697V79.82h-.234c-.136 0-.255-.014-.358-.042a.518.518 0 01-.391-.38 1.294 1.294 0 01-.04-.335v-.083c0-.108.002-.214.003-.318l.003-.158.003-.16.005-.337a25.073 25.073 0 00-.003-.918 35.019 35.019 0 01-.005-.587 27.332 27.332 0 00-.157-2.91 9.531 9.531 0 00-.104-.737l-1.31.391c.032.163.06.352.084.566.024.214.045.444.063.689a31.199 31.199 0 01.073 1.55 60.859 60.859 0 01.02 1.478c0 .37-.003.681-.01.937s-.01.44-.01.55c.003.717.187 1.253.553 1.607.365.355.9.533 1.607.533h.208zm-7.643.39a5.616 5.616 0 001.088-.114 4.504 4.504 0 001.007-.334 3.177 3.177 0 001.278-1.09 3.52 3.52 0 00.344-.634c.096-.228.165-.449.206-.663.042-.214.063-.411.063-.592 0-.08-.004-.158-.01-.235l-.674-4.993-1.293.313.798 4.54c.02.114.031.224.031.328 0 .115-.012.226-.036.334a1.985 1.985 0 01-.22.56c-.097.166-.21.307-.339.423a1.501 1.501 0 01-.375.259c-.063-.258-.166-.6-.31-1.026a16.572 16.572 0 00-.57-1.426 19.604 19.604 0 00-.847-1.662c-.33-.583-.712-1.16-1.143-1.73l-.98 1.002.117.143.06.076a15.94 15.94 0 01.639.866 17.498 17.498 0 01.95 1.55c.158.292.301.591.43.897.128.306.237.616.326.929.089.313.145.619.17.918a3.605 3.605 0 01-.538.047 5.398 5.398 0 01-.56-.031 34.908 34.908 0 01-.478-.052l-.23 1.33c.317.045.638.068.965.068h.13z" fill="#FFF" fill-rule="nonzero"/><path d="M302.326 31.104c0-.302-.003-.621-.008-.957a34.511 34.511 0 00-.094-2.06 19.62 19.62 0 00-.101-1.01l-.042-.287c.132.052.265.09.399.112.134.022.284.034.451.034.609 0 1.09-.214 1.446-.642.365-.424.554-1.038.568-1.842v-.135c0-.09-.002-.18-.005-.267a6.903 6.903 0 00-.026-.336 3.893 3.893 0 00-.047-.342l-1.023.188a4.611 4.611 0 01.073.777c0 .115-.005.233-.015.355-.01.122-.029.24-.055.355-.026.115-.06.223-.102.326a.961.961 0 01-.162.269c-.146.177-.363.266-.652.266-.194 0-.359-.029-.493-.086a1.064 1.064 0 01-.355-.248 1.718 1.718 0 01-.27-.384 7.17 7.17 0 01-.238-.498c-.06-.129-.113-.249-.162-.36a11.59 11.59 0 00-.284-.602 3.904 3.904 0 00-.154-.274l-.872.553c.105.18.199.356.282.527a7.135 7.135 0 01.603 1.84c.089.47.155.964.2 1.48.046.517.074 1.05.084 1.597.01.548.016 1.098.016 1.651h1.038zm7.758.157l.632-.814c-.157-.188-.326-.706-.506-1.555a17.298 17.298 0 01-.12-.615 8.756 8.756 0 01-.087-.634 10.883 10.883 0 01-.046-.692 19.89 19.89 0 01-.014-.73v-.256a8.248 8.248 0 00-.062-.996c-.101-.766-.318-1.32-.652-1.665a1.492 1.492 0 00-1.09-.464c-.282 0-.547.08-.794.24-.153.1-.29.223-.412.365a2.57 2.57 0 00-.316.465 3.255 3.255 0 00-.342 1.075c-.013.107-.02.212-.02.312 0 .146.015.284.047.413.052.215.138.404.258.566.12.161.269.297.446.407.177.11.373.193.587.25.214.057.39.088.527.091l.253.006c.205 0 .412-.018.62-.053.004.41.035.83.092 1.255.058.426.145.864.264 1.312.222.856.468 1.428.735 1.717zm-1.742-5.254a2.83 2.83 0 01-.245-.01c-.647-.067-.97-.319-.97-.757 0-.035 0-.07.004-.104.01-.108.038-.235.081-.381.044-.146.104-.285.18-.418.077-.132.17-.243.282-.334a.602.602 0 01.391-.135c.112 0 .212.031.3.094a.943.943 0 01.232.237c.066.096.121.2.165.313.043.113.077.22.101.321.035.157.064.326.087.509.022.182.037.38.044.592-.23.049-.447.073-.652.073zm5.916 5.129c0-.303-.002-.621-.008-.955a34.516 34.516 0 00-.093-2.061c-.027-.348-.06-.685-.102-1.012-.101-.765-.246-1.446-.436-2.043a6.903 6.903 0 00-.712-1.578l-.866.553c.26.41.469.883.623 1.42.155.535.274 1.11.358 1.726.083.616.137 1.258.161 1.928.025.67.037 1.343.037 2.022h1.038zm1.388 1.565c.296-.24.54-.558.733-.952a2.67 2.67 0 00.29-1.182v-.85h-1.06v.98c-.017.543-.208 1.07-.573 1.581l.61.423zm4.226-2.76c.244 0 .472-.046.686-.138a1.814 1.814 0 00.947-.94 1.7 1.7 0 00.141-.69c0-.244-.047-.473-.14-.687a1.829 1.829 0 00-.948-.947 1.688 1.688 0 00-.686-.14 1.7 1.7 0 00-.691.14 1.797 1.797 0 00-.94.947 1.715 1.715 0 00-.138.686c0 .247.047.478.139.691a1.782 1.782 0 00.939.94c.214.092.444.138.691.138zm0-.85a.875.875 0 01-.355-.074.944.944 0 01-.49-.49.894.894 0 010-.712.936.936 0 01.49-.493.894.894 0 01.712 0 .936.936 0 01.494.493.894.894 0 010 .712.944.944 0 01-.493.49.894.894 0 01-.358.073zm5.165.85c.244 0 .473-.046.686-.138a1.814 1.814 0 00.947-.94 1.7 1.7 0 00.141-.69c0-.244-.047-.473-.14-.687a1.829 1.829 0 00-.948-.947 1.688 1.688 0 00-.686-.14 1.7 1.7 0 00-.69.14 1.797 1.797 0 00-.94.947 1.715 1.715 0 00-.138.686c0 .247.046.478.138.691a1.782 1.782 0 00.94.94c.213.092.443.138.69.138zm0-.85a.875.875 0 01-.354-.074.944.944 0 01-.49-.49.894.894 0 010-.712.936.936 0 01.49-.493.894.894 0 01.712 0 .936.936 0 01.493.493.894.894 0 010 .712.944.944 0 01-.493.49.894.894 0 01-.358.073zm5.166.85c.243 0 .472-.046.686-.138a1.814 1.814 0 00.947-.94 1.7 1.7 0 00.14-.69c0-.244-.046-.473-.14-.687a1.829 1.829 0 00-.947-.947 1.688 1.688 0 00-.686-.14 1.7 1.7 0 00-.692.14 1.797 1.797 0 00-.939.947 1.715 1.715 0 00-.138.686c0 .247.046.478.138.691a1.782 1.782 0 00.94.94c.213.092.444.138.69.138zm0-.85a.875.875 0 01-.355-.074.944.944 0 01-.49-.49.894.894 0 010-.712.936.936 0 01.49-.493.894.894 0 01.712 0 .936.936 0 01.493.493.894.894 0 010 .712.944.944 0 01-.493.49.894.894 0 01-.357.073zm3.292 3.61c.295-.24.54-.558.733-.952a2.67 2.67 0 00.29-1.182v-.85h-1.06v.98c-.017.543-.208 1.07-.574 1.581l.61.423zm4.226-2.76c.243 0 .472-.046.686-.138a1.814 1.814 0 00.947-.94 1.7 1.7 0 00.14-.69c0-.244-.046-.473-.14-.687a1.829 1.829 0 00-.947-.947 1.688 1.688 0 00-.686-.14 1.7 1.7 0 00-.691.14 1.797 1.797 0 00-.94.947 1.715 1.715 0 00-.138.686c0 .247.046.478.138.691a1.782 1.782 0 00.94.94c.213.092.444.138.69.138zm0-.85a.875.875 0 01-.355-.074.944.944 0 01-.49-.49.894.894 0 010-.712.936.936 0 01.49-.493.894.894 0 01.712 0 .936.936 0 01.493.493.894.894 0 010 .712.944.944 0 01-.493.49.894.894 0 01-.357.073zm5.165.85c.244 0 .472-.046.686-.138a1.814 1.814 0 00.947-.94 1.7 1.7 0 00.141-.69c0-.244-.047-.473-.14-.687a1.829 1.829 0 00-.948-.947 1.688 1.688 0 00-.686-.14 1.7 1.7 0 00-.691.14 1.797 1.797 0 00-.94.947 1.715 1.715 0 00-.138.686c0 .247.046.478.139.691a1.782 1.782 0 00.939.94c.214.092.444.138.691.138zm0-.85a.875.875 0 01-.355-.074.944.944 0 01-.49-.49.894.894 0 010-.712.936.936 0 01.49-.493.894.894 0 01.712 0 .936.936 0 01.494.493.894.894 0 010 .712.944.944 0 01-.494.49.894.894 0 01-.357.073zm5.165.85c.244 0 .472-.046.686-.138a1.814 1.814 0 00.947-.94 1.7 1.7 0 00.141-.69c0-.244-.047-.473-.14-.687a1.829 1.829 0 00-.948-.947 1.688 1.688 0 00-.686-.14 1.7 1.7 0 00-.691.14 1.797 1.797 0 00-.94.947 1.715 1.715 0 00-.137.686c0 .247.046.478.138.691a1.782 1.782 0 00.939.94c.214.092.444.138.691.138zm0-.85a.875.875 0 01-.354-.074.944.944 0 01-.49-.49.894.894 0 010-.712.936.936 0 01.49-.493.894.894 0 01.712 0 .936.936 0 01.493.493.894.894 0 010 .712.944.944 0 01-.493.49.894.894 0 01-.358.073zm-55.07-3.846l.846-.845-.856-.856-.845.85.856.851zm2.14.01l.845-.85-.856-.85-.845.845.856.856zM292.846 31c.285 0 .561-.02.827-.057.266-.039.51-.105.733-.199.223-.094.42-.219.592-.375.172-.157.31-.353.415-.59.104-.24.157-.518.157-.835 0-.055-.002-.111-.006-.167a5.826 5.826 0 00-.271-1.335 6.775 6.775 0 00-.167-.483 10.545 10.545 0 00-.287-.673 1.284 1.284 0 01-.047-.107l-.929.46.454 1.116a3.393 3.393 0 01.235.89c.007.092.01.16.01.205 0 .084-.005.162-.015.235a1.012 1.012 0 01-.078.277.817.817 0 01-.292.341c-.126.082-.27.144-.434.186-.163.041-.34.067-.532.075-.191.009-.388.013-.59.013h-1.006V31h1.231zm-5.922 3.663c.508-.08 1-.22 1.474-.418a5.392 5.392 0 001.294-.762c.388-.31.718-.672.991-1.087.274-.416.462-.881.567-1.396h.573v-1.023h-.495a4.843 4.843 0 00-.282-1.515 4.007 4.007 0 00-.303-.66 3.296 3.296 0 00-.396-.553c-.414-.446-.868-.668-1.362-.668-.222 0-.437.056-.644.17-.207.112-.4.279-.577.498a2.901 2.901 0 00-.38.67c-.108.26-.177.49-.207.694-.03.204-.044.371-.044.504 0 .139.012.278.037.417.041.264.142.497.302.699.362.449.92.696 1.675.74.191.018.363.027.514.027h.592c-.038.26-.145.526-.32.796-.176.27-.416.524-.718.764a5.16 5.16 0 01-1.09.647c-.425.191-.905.34-1.44.449l.24 1.007zm2.865-4.697l-.084.001c-.153 0-.316-.005-.49-.016a2.63 2.63 0 01-.222-.023 1.854 1.854 0 01-.26-.058 1.226 1.226 0 01-.251-.104.614.614 0 01-.196-.17.489.489 0 01-.107-.247 1.826 1.826 0 01-.018-.232 2.37 2.37 0 01.295-1.09c.071-.123.152-.223.242-.3a.433.433 0 01.287-.118c.063 0 .122.01.178.031.055.02.108.048.159.08.05.034.097.07.14.11.044.04.083.078.118.113.087.1.171.22.253.357.082.137.156.291.222.462.066.17.12.355.162.553.041.198.067.408.078.631a6.1 6.1 0 01-.506.02zM280.2 31c.212 0 .412-.01.6-.031.188-.021.365-.061.532-.12.167-.06.325-.145.472-.256.148-.111.29-.26.426-.443.16.118.334.233.521.347.188.113.384.208.587.286a2.254 2.254 0 00.843.17c.143 0 .285-.02.428-.057.226-.063.417-.175.574-.337.156-.162.28-.351.37-.569.09-.217.146-.416.167-.597.021-.18.031-.327.031-.438 0-.125-.008-.247-.026-.365a3.157 3.157 0 00-.185-.69 2.148 2.148 0 00-.357-.604c-.15-.178-.33-.321-.54-.43a1.554 1.554 0 00-.728-.165c-.23 0-.43.046-.603.138a1.696 1.696 0 00-.459.36 2.75 2.75 0 00-.36.506c-.106.19-.206.382-.3.577-.108.215-.215.425-.32.628a2.548 2.548 0 01-.376.543c-.145.158-.32.285-.525.38-.205.097-.462.144-.772.144h-.104V31h.104zm3.965-1.085c-.139 0-.295-.035-.47-.105a4.026 4.026 0 01-.865-.506l.281-.568c.087-.17.165-.319.233-.444.067-.125.132-.23.193-.313a.739.739 0 01.182-.185.35.35 0 01.196-.06.59.59 0 01.276.063c.08.041.15.094.21.159.058.064.109.135.15.214a1.698 1.698 0 01.162.425 1.67 1.67 0 01.047.396 1.562 1.562 0 01-.097.527.887.887 0 01-.143.256.333.333 0 01-.172.12.752.752 0 01-.183.02zM280.304 31v-1.023h-.105c-.219 0-.408-.022-.566-.067a.814.814 0 01-.357-.188.435.435 0 01-.139-.269 2.819 2.819 0 01-.018-.331v-2.62a36.415 36.415 0 00-.107-2.749 7.734 7.734 0 00-.08-.652l-1.023.188a6.5 6.5 0 01.08.628c.023.256.042.535.058.838.016.302.027.615.034.939.007.323.01.635.01.934a76.846 76.846 0 010 1.612 158.547 158.547 0 00-.01.777c0 .084.002.184.005.3a2.015 2.015 0 00.185.76c.061.132.149.255.264.37.188.188.416.327.686.417.27.09.596.136.978.136h.104zm-7.587-2.52l.85-.85-.855-.856-.85.85.855.856zm-.23 6.104c.429 0 .835-.045 1.22-.135a3.76 3.76 0 001.05-.415c.317-.186.594-.422.833-.707.238-.285.423-.624.555-1.017.125-.376.193-.676.204-.9.01-.225.015-.375.015-.452a5.381 5.381 0 00-.294-1.771c-.1-.29-.199-.544-.298-.762a5.916 5.916 0 00-.394-.743l-.866.553c.004 0 .036.051.097.154.06.102.131.243.211.422.08.18.16.39.243.632a4.961 4.961 0 01.258 1.588v.063a3.25 3.25 0 01-.151.903 2.017 2.017 0 01-.345.654 2.05 2.05 0 01-.568.49 2.766 2.766 0 01-.788.306c-.3.07-.633.104-1.002.104-.296 0-.56-.032-.79-.096a2.473 2.473 0 01-.606-.25 2.037 2.037 0 01-.44-.348 2.272 2.272 0 01-.303-.394 1.901 1.901 0 01-.18-.386 2.058 2.058 0 01-.081-.326 3.06 3.06 0 01-.026-.615c.01-.209.034-.414.07-.616.037-.202.083-.396.139-.582.055-.186.113-.357.174-.514.061-.156.121-.293.18-.41a2.1 2.1 0 01.157-.268l-.83-.61c-.142.236-.279.5-.41.79-.13.29-.24.597-.328.921a4.863 4.863 0 00-.164.843 4.607 4.607 0 00.016 1.208c.069.455.204.852.404 1.189.2.337.451.616.754.837.302.221.647.386 1.035.496.388.11.805.164 1.25.164zM542.958 31.1c0-.71-.011-1.422-.034-2.135a16.655 16.655 0 00-.206-2.134 1.758 1.758 0 00.652.105c.136 0 .268-.013.397-.037s.25-.064.365-.12a1.274 1.274 0 00.58-.574c.086.125.178.23.276.313a1.307 1.307 0 00.871.324c.275 0 .51-.052.707-.154a1.28 1.28 0 00.477-.425c.122-.181.207-.38.254-.595a3.033 3.033 0 00.065-.825c-.01-.212-.028-.444-.052-.696a9.888 9.888 0 00-.12-.832l-.976.193c.056.302.09.56.102.775.012.214.018.399.018.555 0 .08-.004.175-.01.285-.007.11-.026.214-.055.315a.653.653 0 01-.141.259.343.343 0 01-.269.106.3.3 0 01-.227-.104.967.967 0 01-.17-.271 2.234 2.234 0 01-.122-.373 5.898 5.898 0 01-.136-.79 39.514 39.514 0 01-.028-.288 5.636 5.636 0 00-.029-.279 3.252 3.252 0 01-.024-.305l-1.033.125a10.302 10.302 0 01.034.454 22.096 22.096 0 01.019.501 4.87 4.87 0 01-.034.415c-.02.162-.057.318-.112.47-.056.15-.134.28-.233.385-.099.107-.23.16-.394.16-.156 0-.285-.02-.386-.06a.69.69 0 01-.268-.196 1.58 1.58 0 01-.222-.355c-.07-.146-.151-.327-.245-.542l-.246-.527-.213-.428-.1-.196a3.377 3.377 0 00-.083-.154l-.944.558c.08.126.154.258.221.397.068.14.142.304.222.496.282.723.49 1.537.626 2.441.136.905.204 1.863.204 2.875l-.003.438c-.002.153-.006.303-.013.45h1.038zm7.607-1.16c.244 0 .472-.045.686-.137a1.814 1.814 0 00.947-.94 1.7 1.7 0 00.141-.69c0-.244-.047-.473-.14-.687a1.829 1.829 0 00-.948-.947 1.688 1.688 0 00-.686-.14 1.7 1.7 0 00-.691.14 1.797 1.797 0 00-.94.947 1.715 1.715 0 00-.137.686c0 .247.046.478.138.691a1.782 1.782 0 00.939.94c.214.092.444.138.691.138zm0-.85a.875.875 0 01-.355-.073.944.944 0 01-.49-.49.894.894 0 010-.712.936.936 0 01.49-.493.894.894 0 01.712 0 .936.936 0 01.494.493.894.894 0 010 .712.944.944 0 01-.493.49.894.894 0 01-.358.073zm4.023 1.988c.003-.003.023-.056.06-.159.036-.102.09-.238.162-.407.07-.169.16-.363.268-.584.108-.221.236-.451.384-.691a9.05 9.05 0 01.503-.73c.188-.248.398-.482.629-.703.231-.22.485-.42.762-.6.276-.179.576-.322.9-.43l.375-.125-.302-.986c-.039.01-.09.026-.154.047l-.243.078c-.1.031-.22.066-.36.104a6.716 6.716 0 01-.923.18c-.157.02-.305.029-.444.029h-.068c-.11 0-.227-.014-.347-.042a1.176 1.176 0 01-.33-.13.765.765 0 01-.249-.23.585.585 0 01-.096-.339c0-.17.042-.326.125-.467.083-.14.191-.262.323-.363.133-.1.283-.18.452-.237a1.57 1.57 0 01.508-.086c.15 0 .307.023.473.068.165.045.336.123.514.235l.527-.898c-.498-.292-1.002-.438-1.514-.438-.194 0-.39.023-.584.07a2.728 2.728 0 00-1.072.53 2.27 2.27 0 00-.412.436 2.04 2.04 0 00-.274.53c-.066.19-.1.396-.1.615 0 .257.045.488.134.691.088.204.213.378.373.524.16.147.349.266.566.358.217.092.456.155.717.19a6.876 6.876 0 00-.615.673 9.765 9.765 0 00-1.028 1.558c-.129.241-.237.458-.324.65a7.361 7.361 0 00-.302.766l.986.313zm5.405 1.623c.296-.24.54-.558.733-.952a2.67 2.67 0 00.29-1.182v-.85h-1.06v.98c-.017.543-.208 1.07-.573 1.581l.61.423zm4.226-2.76c.244 0 .472-.046.686-.138a1.814 1.814 0 00.947-.94 1.7 1.7 0 00.141-.69c0-.244-.047-.473-.14-.687a1.829 1.829 0 00-.948-.947 1.688 1.688 0 00-.686-.14 1.7 1.7 0 00-.691.14 1.797 1.797 0 00-.94.947 1.715 1.715 0 00-.138.686c0 .247.047.478.139.691a1.782 1.782 0 00.939.94c.214.092.444.138.691.138zm0-.85a.875.875 0 01-.355-.074.944.944 0 01-.49-.49.894.894 0 010-.712.936.936 0 01.49-.493.894.894 0 01.712 0 .936.936 0 01.494.493.894.894 0 010 .712.944.944 0 01-.493.49.894.894 0 01-.358.073zm5.165.85c.244 0 .473-.046.686-.138a1.814 1.814 0 00.947-.94 1.7 1.7 0 00.141-.69c0-.244-.047-.473-.14-.687a1.829 1.829 0 00-.948-.947 1.688 1.688 0 00-.686-.14 1.7 1.7 0 00-.691.14 1.797 1.797 0 00-.94.947 1.715 1.715 0 00-.137.686c0 .247.046.478.138.691a1.782 1.782 0 00.939.94c.214.092.444.138.691.138zm0-.85a.875.875 0 01-.354-.074.944.944 0 01-.49-.49.894.894 0 010-.712.936.936 0 01.49-.493.894.894 0 01.712 0 .936.936 0 01.493.493.894.894 0 010 .712.944.944 0 01-.493.49.894.894 0 01-.358.073zm5.166.85c.243 0 .472-.046.686-.138a1.814 1.814 0 00.947-.94 1.7 1.7 0 00.14-.69c0-.244-.046-.473-.14-.687a1.829 1.829 0 00-.947-.947 1.688 1.688 0 00-.686-.14 1.7 1.7 0 00-.692.14 1.797 1.797 0 00-.939.947 1.715 1.715 0 00-.138.686c0 .247.046.478.138.691a1.782 1.782 0 00.94.94c.213.092.444.138.69.138zm0-.85a.875.875 0 01-.355-.074.944.944 0 01-.49-.49.894.894 0 010-.712.936.936 0 01.49-.493.894.894 0 01.712 0 .936.936 0 01.493.493.894.894 0 010 .712.944.944 0 01-.493.49.894.894 0 01-.357.073zm3.292 3.61c.295-.24.54-.558.733-.952a2.67 2.67 0 00.29-1.182v-.85h-1.06v.98c-.017.543-.208 1.07-.574 1.581l.61.423zm4.226-2.76c.243 0 .472-.046.686-.138a1.814 1.814 0 00.947-.94 1.7 1.7 0 00.14-.69c0-.244-.046-.473-.14-.687a1.829 1.829 0 00-.947-.947 1.688 1.688 0 00-.686-.14 1.7 1.7 0 00-.691.14 1.797 1.797 0 00-.94.947 1.715 1.715 0 00-.138.686c0 .247.046.478.138.691a1.782 1.782 0 00.94.94c.213.092.444.138.69.138zm0-.85a.875.875 0 01-.355-.074.944.944 0 01-.49-.49.894.894 0 010-.712.936.936 0 01.49-.493.894.894 0 01.712 0 .936.936 0 01.493.493.894.894 0 010 .712.944.944 0 01-.493.49.894.894 0 01-.357.073zm5.165.85c.244 0 .472-.046.686-.138a1.814 1.814 0 00.947-.94 1.7 1.7 0 00.141-.69c0-.244-.047-.473-.14-.687a1.829 1.829 0 00-.948-.947 1.688 1.688 0 00-.686-.14 1.7 1.7 0 00-.691.14 1.797 1.797 0 00-.94.947 1.715 1.715 0 00-.138.686c0 .247.046.478.139.691a1.782 1.782 0 00.939.94c.214.092.444.138.691.138zm0-.85a.875.875 0 01-.355-.074.944.944 0 01-.49-.49.894.894 0 010-.712.936.936 0 01.49-.493.894.894 0 01.712 0 .936.936 0 01.493.493.894.894 0 010 .712.944.944 0 01-.493.49.894.894 0 01-.357.073zm5.165.85c.244 0 .472-.046.686-.138a1.814 1.814 0 00.947-.94 1.7 1.7 0 00.141-.69c0-.244-.047-.473-.14-.687a1.829 1.829 0 00-.948-.947 1.688 1.688 0 00-.686-.14 1.7 1.7 0 00-.691.14 1.797 1.797 0 00-.94.947 1.715 1.715 0 00-.137.686c0 .247.046.478.138.691a1.782 1.782 0 00.939.94c.214.092.444.138.691.138zm0-.85a.875.875 0 01-.355-.074.944.944 0 01-.49-.49.894.894 0 010-.712.936.936 0 01.49-.493.894.894 0 01.712 0 .936.936 0 01.494.493.894.894 0 010 .712.944.944 0 01-.493.49.894.894 0 01-.358.073zm-58.763-3.846l.845-.845-.856-.856-.845.85.856.851zm2.139.01l.845-.85-.856-.85-.845.845.856.856zM533.499 31c.285 0 .561-.02.827-.057.266-.039.51-.105.733-.199.223-.094.42-.219.592-.375.172-.157.31-.353.415-.59.104-.24.157-.518.157-.835 0-.055-.002-.111-.006-.167a5.826 5.826 0 00-.27-1.335 6.775 6.775 0 00-.168-.483 10.547 10.547 0 00-.287-.673 1.285 1.285 0 01-.047-.107l-.928.46.453 1.116a3.393 3.393 0 01.235.89c.007.092.01.16.01.205 0 .084-.005.162-.015.235a1.012 1.012 0 01-.078.277.817.817 0 01-.292.341c-.126.082-.27.144-.433.186-.164.041-.341.067-.533.075-.191.009-.387.013-.59.013h-1.006V31h1.231zm-5.922 3.663c.508-.08 1-.22 1.474-.418a5.392 5.392 0 001.294-.762c.388-.31.718-.672.992-1.087.273-.416.461-.881.566-1.396h.574v-1.023h-.496a4.843 4.843 0 00-.282-1.515 4.007 4.007 0 00-.302-.66 3.296 3.296 0 00-.397-.553c-.414-.446-.868-.668-1.362-.668-.222 0-.437.056-.644.17-.207.112-.4.279-.577.498a2.901 2.901 0 00-.38.67c-.108.26-.177.49-.207.694-.03.204-.044.371-.044.504 0 .139.012.278.037.417.041.264.142.497.302.699.362.449.92.696 1.675.74.191.018.363.027.514.027h.592c-.038.26-.145.526-.32.796-.176.27-.416.524-.718.764a5.16 5.16 0 01-1.09.647c-.425.191-.905.34-1.44.449l.24 1.007zm2.865-4.697l-.084.001c-.153 0-.316-.005-.49-.016a2.63 2.63 0 01-.222-.023 1.854 1.854 0 01-.26-.058 1.226 1.226 0 01-.251-.104.614.614 0 01-.196-.17.489.489 0 01-.107-.247 1.826 1.826 0 01-.018-.232 2.37 2.37 0 01.295-1.09c.071-.123.152-.223.242-.3a.433.433 0 01.287-.118c.063 0 .122.01.178.031.055.02.108.048.159.08.05.034.097.07.14.11.044.04.083.078.118.113.087.1.171.22.253.357.082.137.156.291.222.462.066.17.12.355.162.553.041.198.067.408.078.631a6.1 6.1 0 01-.506.02zM520.852 31c.212 0 .412-.01.6-.031.188-.021.365-.061.532-.12.167-.06.325-.145.473-.256.147-.111.29-.26.425-.443.16.118.334.233.521.347.188.113.384.208.587.286a2.254 2.254 0 00.843.17c.143 0 .285-.02.428-.057.226-.063.417-.175.574-.337.156-.162.28-.351.37-.569.09-.217.146-.416.167-.597.021-.18.031-.327.031-.438 0-.125-.008-.247-.026-.365a3.157 3.157 0 00-.185-.69 2.148 2.148 0 00-.357-.604c-.15-.178-.33-.321-.54-.43a1.554 1.554 0 00-.728-.165c-.23 0-.43.046-.603.138a1.696 1.696 0 00-.459.36 2.75 2.75 0 00-.36.506c-.106.19-.206.382-.3.577-.108.215-.215.425-.32.628a2.548 2.548 0 01-.376.543c-.145.158-.32.285-.525.38-.205.097-.462.144-.772.144h-.104V31h.104zm3.965-1.085c-.139 0-.295-.035-.47-.105a4.026 4.026 0 01-.865-.506l.281-.568c.087-.17.165-.319.233-.444.067-.125.132-.23.193-.313a.739.739 0 01.182-.185.35.35 0 01.196-.06.59.59 0 01.276.063c.08.041.15.094.21.159.058.064.109.135.15.214a1.698 1.698 0 01.162.425 1.669 1.669 0 01.047.396 1.562 1.562 0 01-.097.527.887.887 0 01-.143.256.333.333 0 01-.172.12.752.752 0 01-.183.02zM520.957 31v-1.023h-.105c-.219 0-.408-.022-.566-.067a.814.814 0 01-.357-.188.435.435 0 01-.139-.269 2.819 2.819 0 01-.018-.331v-2.62a36.413 36.413 0 00-.107-2.749 7.733 7.733 0 00-.08-.652l-1.023.188a6.5 6.5 0 01.08.628c.023.256.042.535.058.838.016.302.027.615.034.939.007.323.01.635.01.934a76.853 76.853 0 010 1.612 158.574 158.574 0 00-.01.668V29.017c0 .084.002.184.005.3a2.015 2.015 0 00.185.76c.061.132.149.255.264.37.188.188.416.327.686.417.27.09.596.136.978.136h.105zm-7.587-2.52l.85-.85-.855-.856-.85.85.855.856zm-.23 6.104c.429 0 .835-.045 1.22-.135a3.76 3.76 0 001.05-.415c.317-.186.594-.422.833-.707.238-.285.423-.624.555-1.017.125-.376.193-.676.204-.9.01-.225.015-.375.015-.452a5.381 5.381 0 00-.294-1.771c-.1-.29-.199-.544-.298-.762a5.916 5.916 0 00-.394-.743l-.866.553c.004 0 .036.051.097.154.06.102.131.243.211.422.08.18.16.39.243.632a4.961 4.961 0 01.258 1.588v.063a3.25 3.25 0 01-.151.903 2.017 2.017 0 01-.345.654 2.05 2.05 0 01-.568.49 2.766 2.766 0 01-.788.306c-.3.07-.633.104-1.002.104-.296 0-.56-.032-.79-.096a2.473 2.473 0 01-.606-.25 2.037 2.037 0 01-.44-.348 2.272 2.272 0 01-.303-.394 1.901 1.901 0 01-.18-.386 2.058 2.058 0 01-.081-.326 3.06 3.06 0 01-.026-.615c.01-.209.034-.414.07-.616.037-.202.083-.396.139-.582.055-.186.114-.357.174-.514.061-.156.121-.293.18-.41a2.1 2.1 0 01.157-.268l-.83-.61c-.142.236-.279.5-.41.79-.13.29-.24.597-.328.921a4.863 4.863 0 00-.164.843 4.607 4.607 0 00.016 1.208c.069.455.204.852.404 1.189.2.337.451.616.754.837.302.221.647.386 1.035.496.388.11.805.164 1.25.164z" fill-opacity=".56" fill="#000000" fill-rule="nonzero"/></g></svg>