<svg width="100" height="100" viewBox="0 0 100 100" fill="none" xmlns="http://www.w3.org/2000/svg">
<path d="M68.1941 39.3347H69.794" stroke="#EA475B" stroke-width="0.4" stroke-linecap="round"/>
<path d="M68.1941 60.134H69.794" stroke="#EA475B" stroke-width="0.4" stroke-linecap="round"/>
<path d="M68.994 39.3347V60.134" stroke="#EA475B" stroke-width="0.4" stroke-linecap="round"/>
<path d="M75.5438 51.3343V50.8797H73.9595L74.7938 49.9867C75.0126 49.7492 75.17 49.5371 75.2661 49.3504C75.3622 49.1637 75.4102 48.9852 75.4102 48.8149C75.4102 48.5211 75.3145 48.2911 75.1231 48.1247C74.9317 47.9583 74.6704 47.8751 74.3391 47.8751C74.1095 47.8751 73.9067 47.9212 73.731 48.0133C73.5552 48.1055 73.42 48.2348 73.3255 48.4012C73.231 48.5676 73.1837 48.7547 73.1837 48.9625H73.7532C73.7532 48.7672 73.804 48.6133 73.9056 48.5008C74.0071 48.3883 74.1501 48.3321 74.3345 48.3321C74.4891 48.3321 74.6122 48.3821 74.7036 48.4821C74.795 48.5821 74.8407 48.7133 74.8407 48.8758C74.8407 48.9992 74.8059 49.1223 74.7364 49.2449C74.6669 49.3676 74.5501 49.5203 74.386 49.7031L73.2493 50.9429V51.3343H75.5438ZM77.0859 51.3812C77.4234 51.3812 77.6937 51.2933 77.8969 51.1175C78.1 50.9418 78.2015 50.7039 78.2015 50.4039C78.2015 50.2226 78.1535 50.0601 78.0574 49.9164C77.9613 49.7727 77.8242 49.6594 77.6461 49.5766C77.7945 49.5016 77.9117 49.3988 77.9976 49.2684C78.0836 49.1379 78.1265 48.9891 78.1265 48.8219C78.1265 48.5313 78.0328 48.3008 77.8453 48.1305C77.6578 47.9602 77.4039 47.8751 77.0836 47.8751C76.7649 47.8751 76.5117 47.9602 76.3242 48.1305C76.1367 48.3008 76.043 48.5313 76.043 48.8219C76.043 48.9891 76.0856 49.1379 76.1707 49.2684C76.2559 49.3988 76.3719 49.5016 76.5188 49.5766C76.3438 49.6547 76.2078 49.7664 76.111 49.9117C76.0141 50.057 75.9657 50.2211 75.9657 50.4039C75.9657 50.7023 76.0676 50.9398 76.2715 51.1164C76.4754 51.2929 76.7469 51.3812 77.0859 51.3812ZM77.0859 49.3539C76.9406 49.3539 76.8254 49.3078 76.7402 49.2156C76.6551 49.1235 76.6125 48.9992 76.6125 48.843C76.6125 48.6852 76.6547 48.5606 76.7391 48.4692C76.8234 48.3778 76.9383 48.3321 77.0836 48.3321C77.2289 48.3321 77.3445 48.3801 77.4305 48.4762C77.5164 48.5723 77.5594 48.6946 77.5594 48.843C77.5594 48.9992 77.5168 49.1235 77.4316 49.2156C77.3465 49.3078 77.2312 49.3539 77.0859 49.3539ZM77.0859 50.9265C76.9141 50.9265 76.7793 50.8765 76.6817 50.7765C76.584 50.6765 76.5352 50.5429 76.5352 50.3758C76.5352 50.2055 76.5848 50.0687 76.684 49.9656C76.7832 49.8625 76.9156 49.8109 77.0813 49.8109C77.2469 49.8109 77.3801 49.8629 77.4808 49.9668C77.5816 50.0707 77.632 50.207 77.632 50.3758C77.632 50.5492 77.584 50.6843 77.4879 50.7812C77.3918 50.8781 77.2578 50.9265 77.0859 50.9265Z" fill="#EA475B"/>
<path d="M39.3949 29.735V31.3349" stroke="#EA475B" stroke-width="0.4" stroke-linecap="round"/>
<path d="M61.7942 29.735V31.3349" stroke="#EA475B" stroke-width="0.4" stroke-linecap="round"/>
<path d="M39.3949 30.535H61.7942" stroke="#EA475B" stroke-width="0.4" stroke-linecap="round"/>
<path d="M49.6915 28.135V27.6804H48.1072L48.9415 26.7874C49.1603 26.5499 49.3177 26.3378 49.4138 26.1511C49.5099 25.9644 49.5579 25.7859 49.5579 25.6156C49.5579 25.3219 49.4622 25.0918 49.2708 24.9254C49.0794 24.759 48.8181 24.6758 48.4869 24.6758C48.2572 24.6758 48.0544 24.7219 47.8787 24.8141C47.7029 24.9062 47.5677 25.0355 47.4732 25.2019C47.3787 25.3683 47.3314 25.5554 47.3314 25.7632H47.9009C47.9009 25.5679 47.9517 25.414 48.0533 25.3015C48.1548 25.189 48.2978 25.1328 48.4822 25.1328C48.6368 25.1328 48.7599 25.1828 48.8513 25.2828C48.9427 25.3828 48.9884 25.514 48.9884 25.6765C48.9884 25.8 48.9536 25.923 48.8841 26.0457C48.8146 26.1683 48.6978 26.321 48.5337 26.5038L47.397 27.7437V28.135H49.6915ZM51.2336 28.1819C51.5711 28.1819 51.8414 28.094 52.0446 27.9183C52.2477 27.7425 52.3492 27.5046 52.3492 27.2046C52.3492 27.0234 52.3012 26.8609 52.2051 26.7171C52.109 26.5734 51.9719 26.4601 51.7938 26.3773C51.9422 26.3023 52.0594 26.1996 52.1453 26.0691C52.2313 25.9386 52.2742 25.7898 52.2742 25.6226C52.2742 25.332 52.1805 25.1015 51.993 24.9312C51.8055 24.7609 51.5516 24.6758 51.2313 24.6758C50.9126 24.6758 50.6594 24.7609 50.4719 24.9312C50.2845 25.1015 50.1907 25.332 50.1907 25.6226C50.1907 25.7898 50.2333 25.9386 50.3184 26.0691C50.4036 26.1996 50.5196 26.3023 50.6665 26.3773C50.4915 26.4554 50.3555 26.5671 50.2587 26.7124C50.1618 26.8577 50.1134 27.0218 50.1134 27.2046C50.1134 27.503 50.2153 27.7405 50.4192 27.9171C50.6231 28.0936 50.8946 28.1819 51.2336 28.1819ZM51.2336 26.1546C51.0883 26.1546 50.9731 26.1085 50.888 26.0164C50.8028 25.9242 50.7602 25.8 50.7602 25.6437C50.7602 25.4859 50.8024 25.3613 50.8868 25.2699C50.9712 25.1785 51.086 25.1328 51.2313 25.1328C51.3766 25.1328 51.4922 25.1808 51.5782 25.2769C51.6641 25.373 51.7071 25.4953 51.7071 25.6437C51.7071 25.8 51.6645 25.9242 51.5793 26.0164C51.4942 26.1085 51.379 26.1546 51.2336 26.1546ZM51.2336 27.7272C51.0618 27.7272 50.927 27.6773 50.8294 27.5773C50.7317 27.4773 50.6829 27.3437 50.6829 27.1765C50.6829 27.0062 50.7325 26.8695 50.8317 26.7663C50.9309 26.6632 51.0633 26.6117 51.229 26.6117C51.3946 26.6117 51.5278 26.6636 51.6286 26.7675C51.7293 26.8714 51.7797 27.0077 51.7797 27.1765C51.7797 27.3499 51.7317 27.4851 51.6356 27.5819C51.5395 27.6788 51.4055 27.7272 51.2336 27.7272Z" fill="#EA475B"/>
<path d="M39.3949 33.3541V50.1151" stroke="#EA475B" stroke-width="0.4" stroke-linecap="round" stroke-dasharray="2 2"/>
<path d="M61.7942 33.3541V50.1151" stroke="#EA475B" stroke-width="0.4" stroke-linecap="round" stroke-dasharray="2 2"/>
<path d="M39.7949 69.9529V71.5529" stroke="#EA475B" stroke-width="0.4" stroke-linecap="round"/>
<path d="M61.3943 69.9529V71.5529" stroke="#EA475B" stroke-width="0.4" stroke-linecap="round"/>
<path d="M39.7949 70.7529H61.3942" stroke="#EA475B" stroke-width="0.4" stroke-linecap="round"/>
<path d="M50.2998 76.9335V76.4788H48.7155L49.5498 75.5859C49.7685 75.3484 49.926 75.1363 50.0221 74.9496C50.1181 74.7629 50.1662 74.5844 50.1662 74.4141C50.1662 74.1203 50.0705 73.8902 49.8791 73.7238C49.6877 73.5574 49.4264 73.4742 49.0951 73.4742C48.8654 73.4742 48.6627 73.5203 48.4869 73.6125C48.3112 73.7047 48.176 73.834 48.0815 74.0004C47.987 74.1668 47.9397 74.3539 47.9397 74.5617H48.5092C48.5092 74.3664 48.56 74.2125 48.6615 74.1C48.7631 73.9875 48.9061 73.9313 49.0904 73.9313C49.2451 73.9313 49.3682 73.9813 49.4596 74.0813C49.551 74.1813 49.5967 74.3125 49.5967 74.475C49.5967 74.5984 49.5619 74.7215 49.4924 74.8441C49.4229 74.9668 49.3061 75.1195 49.142 75.3023L48.0053 76.5421V76.9335H50.2998ZM51.8419 76.9804C52.1794 76.9804 52.4497 76.8925 52.6528 76.7167C52.8559 76.5409 52.9575 76.3031 52.9575 76.0031C52.9575 75.8218 52.9095 75.6593 52.8134 75.5156C52.7173 75.3718 52.5802 75.2586 52.4021 75.1758C52.5505 75.1008 52.6677 74.998 52.7536 74.8676C52.8395 74.7371 52.8825 74.5883 52.8825 74.4211C52.8825 74.1305 52.7888 73.9 52.6013 73.7297C52.4138 73.5594 52.1599 73.4742 51.8396 73.4742C51.5208 73.4742 51.2677 73.5594 51.0802 73.7297C50.8927 73.9 50.799 74.1305 50.799 74.4211C50.799 74.5883 50.8416 74.7371 50.9267 74.8676C51.0119 74.998 51.1279 75.1008 51.2747 75.1758C51.0998 75.2539 50.9638 75.3656 50.8669 75.5109C50.7701 75.6562 50.7216 75.8203 50.7216 76.0031C50.7216 76.3015 50.8236 76.539 51.0275 76.7155C51.2314 76.8921 51.5029 76.9804 51.8419 76.9804ZM51.8419 74.9531C51.6966 74.9531 51.5814 74.907 51.4962 74.8148C51.4111 74.7226 51.3685 74.5984 51.3685 74.4422C51.3685 74.2844 51.4107 74.1598 51.4951 74.0684C51.5794 73.977 51.6943 73.9313 51.8396 73.9313C51.9849 73.9313 52.1005 73.9793 52.1864 74.0754C52.2724 74.1715 52.3153 74.2937 52.3153 74.4422C52.3153 74.5984 52.2728 74.7226 52.1876 74.8148C52.1025 74.907 51.9872 74.9531 51.8419 74.9531ZM51.8419 76.5257C51.67 76.5257 51.5353 76.4757 51.4376 76.3757C51.34 76.2757 51.2912 76.1421 51.2912 75.9749C51.2912 75.8046 51.3408 75.6679 51.44 75.5648C51.5392 75.4617 51.6716 75.4101 51.8372 75.4101C52.0029 75.4101 52.1361 75.4621 52.2368 75.566C52.3376 75.6699 52.388 75.8062 52.388 75.9749C52.388 76.1484 52.34 76.2835 52.2439 76.3804C52.1478 76.4773 52.0138 76.5257 51.8419 76.5257Z" fill="#EA475B"/>
<path d="M40.9949 50.5343C41.4367 50.5343 41.7949 50.1762 41.7949 49.7344C41.7949 49.2925 41.4367 48.9344 40.9949 48.9344C40.5531 48.9344 40.1949 49.2925 40.1949 49.7344C40.1949 50.1762 40.5531 50.5343 40.9949 50.5343Z" fill="#EA475B"/>
<path d="M40.9948 49.7344H32.5951" stroke="#EA475B" stroke-width="0.4" stroke-linecap="round"/>
<path d="M23.0376 51.3343V50.575H23.4618V50.118H23.0376V47.9219H22.4494L20.9775 50.2281L20.9939 50.575H22.4681V51.3343H23.0376ZM22.4681 50.118H21.5752L22.4259 48.768L22.4681 48.693V50.118ZM24.7649 51.3812C25.0493 51.3812 25.2766 51.2781 25.4469 51.0718L25.4751 51.3343H25.9907V47.7344H25.4212V49.0328C25.2555 48.8453 25.0384 48.7516 24.7696 48.7516C24.4649 48.7516 24.222 48.8699 24.0407 49.1067C23.8595 49.3434 23.7689 49.657 23.7689 50.0476C23.7689 50.4586 23.8607 50.7836 24.0442 51.0226C24.2278 51.2617 24.4681 51.3812 24.7649 51.3812ZM24.9102 50.9171C24.7274 50.9171 24.5864 50.8449 24.4872 50.7004C24.388 50.5558 24.3384 50.3547 24.3384 50.0969C24.3384 49.8031 24.3884 49.5832 24.4884 49.4371C24.5884 49.291 24.7305 49.218 24.9149 49.218C25.1477 49.218 25.3165 49.3195 25.4212 49.5227V50.6054C25.3133 50.8132 25.143 50.9171 24.9102 50.9171ZM27.1531 52.3093V51.107C27.3203 51.2898 27.543 51.3812 27.8211 51.3812C28.1211 51.3812 28.3601 51.2644 28.5382 51.0308C28.7164 50.7972 28.8054 50.4844 28.8054 50.0922V50.057C28.8054 49.6477 28.7175 49.3277 28.5418 49.0973C28.366 48.8668 28.1234 48.7516 27.814 48.7516C27.5266 48.7516 27.2992 48.8532 27.132 49.0563L27.1086 48.7985H26.5836V52.3093H27.1531ZM27.6594 50.9265C27.425 50.9265 27.2562 50.8281 27.1531 50.6312V49.5063C27.2547 49.3141 27.4219 49.218 27.6547 49.218C27.8422 49.218 27.9863 49.2922 28.0871 49.4406C28.1879 49.5891 28.2383 49.7898 28.2383 50.043C28.2383 50.3398 28.1871 50.5613 28.0847 50.7074C27.9824 50.8535 27.8406 50.9265 27.6594 50.9265Z" fill="#EA475B"/>
</svg>
