<svg xmlns="http://www.w3.org/2000/svg" width="100" height="100" viewBox="0 0 100 100">
  <g fill="none" fill-rule="evenodd">
    <rect width="100" height="100"/>
    <g transform="translate(64 36)">
      <rect width="8" height="28"/>
      <g stroke="#EA475B" stroke-linecap="round" stroke-width=".4" transform="translate(8)">
        <line x2="2" y1="1" y2="1"/>
        <line x2="2" y1="27" y2="27"/>
        <line x1="1" x2="1" y1="1" y2="27"/>
      </g>
      <path fill="#EA475B" fill-rule="nonzero" d="M17.1875,16 L17.1875,15.4316406 L15.2070312,15.4316406 L16.25,14.3154297 C16.5234375,14.0185547 16.7202148,13.753418 16.840332,13.5200195 C16.9604492,13.2866211 17.0205078,13.0634766 17.0205078,12.8505859 C17.0205078,12.4833984 16.9008789,12.1958008 16.6616211,11.987793 C16.4223633,11.7797852 16.0957031,11.6757812 15.6816406,11.6757812 C15.3945312,11.6757812 15.1411133,11.7333984 14.9213867,11.8486328 C14.7016602,11.9638672 14.5327148,12.1254883 14.4145508,12.3334961 C14.2963867,12.5415039 14.2373047,12.7753906 14.2373047,13.0351562 L14.2373047,13.0351562 L14.9492188,13.0351562 C14.9492188,12.7910156 15.0126953,12.5986328 15.1396484,12.4580078 C15.2666016,12.3173828 15.4453125,12.2470703 15.6757812,12.2470703 C15.8691406,12.2470703 16.0229492,12.3095703 16.137207,12.4345703 C16.2514648,12.5595703 16.3085938,12.7236328 16.3085938,12.9267578 C16.3085938,13.0810547 16.2651367,13.2348633 16.1782227,13.3881836 C16.0913086,13.5415039 15.9453125,13.7324219 15.7402344,13.9609375 L15.7402344,13.9609375 L14.3193359,15.5107422 L14.3193359,16 L17.1875,16 Z M19.1152344,16.0585938 C19.5371094,16.0585938 19.875,15.9487305 20.1289062,15.7290039 C20.3828125,15.5092773 20.5097656,15.2119141 20.5097656,14.8369141 C20.5097656,14.6103516 20.449707,14.4072266 20.3295898,14.2275391 C20.2094727,14.0478516 20.0380859,13.90625 19.8154297,13.8027344 C20.0009766,13.7089844 20.1474609,13.5805664 20.2548828,13.4174805 C20.3623047,13.2543945 20.4160156,13.0683594 20.4160156,12.859375 C20.4160156,12.4960938 20.2988281,12.2080078 20.0644531,11.9951172 C19.8300781,11.7822266 19.5126953,11.6757812 19.1123047,11.6757812 C18.7138672,11.6757812 18.3974609,11.7822266 18.1630859,11.9951172 C17.9287109,12.2080078 17.8115234,12.4960938 17.8115234,12.859375 C17.8115234,13.0683594 17.8647461,13.2543945 17.9711914,13.4174805 C18.0776367,13.5805664 18.2226562,13.7089844 18.40625,13.8027344 C18.1875,13.9003906 18.0175781,14.0400391 17.8964844,14.2216797 C17.7753906,14.4033203 17.7148438,14.6083984 17.7148438,14.8369141 C17.7148438,15.2099609 17.8422852,15.5068359 18.097168,15.7275391 C18.3520508,15.9482422 18.6914062,16.0585938 19.1152344,16.0585938 Z M19.1152344,13.5244141 C18.9335938,13.5244141 18.7895508,13.4667969 18.6831055,13.3515625 C18.5766602,13.2363281 18.5234375,13.0810547 18.5234375,12.8857422 C18.5234375,12.6884766 18.5761719,12.5327148 18.6816406,12.418457 C18.7871094,12.3041992 18.9306641,12.2470703 19.1123047,12.2470703 C19.2939453,12.2470703 19.4384766,12.3071289 19.5458984,12.4272461 C19.6533203,12.5473633 19.7070312,12.7001953 19.7070312,12.8857422 C19.7070312,13.0810547 19.6538086,13.2363281 19.5473633,13.3515625 C19.440918,13.4667969 19.296875,13.5244141 19.1152344,13.5244141 Z M19.1152344,15.4902344 C18.9003906,15.4902344 18.7319336,15.4277344 18.6098633,15.3027344 C18.487793,15.1777344 18.4267578,15.0107422 18.4267578,14.8017578 C18.4267578,14.5888672 18.4887695,14.4179688 18.612793,14.2890625 C18.7368164,14.1601562 18.9023438,14.0957031 19.109375,14.0957031 C19.3164062,14.0957031 19.4829102,14.1606445 19.6088867,14.2905273 C19.7348633,14.4204102 19.7978516,14.5908203 19.7978516,14.8017578 C19.7978516,15.0185547 19.737793,15.1875 19.6176758,15.3085938 C19.4975586,15.4296875 19.3300781,15.4902344 19.1152344,15.4902344 Z"/>
    </g>
    <g transform="translate(36 74)">
      <g stroke="#EA475B" stroke-linecap="round" stroke-width=".4" transform="translate(0 .91)">
        <line x1=".5" x2=".5" y1=".364" y2="2.364"/>
        <line x1="27.5" x2="27.5" y1=".364" y2="2.364"/>
        <line x1=".5" x2="27.5" y1="1.364" y2="1.364"/>
      </g>
      <path fill="#EA475B" fill-rule="nonzero" d="M13.6315104,10 L13.6315104,9.43164062 L11.6510417,9.43164062 L12.6940104,8.31542969 C12.9674479,8.01855469 13.1642253,7.75341797 13.2843424,7.52001953 C13.4044596,7.28662109 13.4645182,7.06347656 13.4645182,6.85058594 C13.4645182,6.48339844 13.3448893,6.19580078 13.1056315,5.98779297 C12.8663737,5.77978516 12.5397135,5.67578125 12.125651,5.67578125 C11.8385417,5.67578125 11.5851237,5.73339844 11.3653971,5.84863281 C11.1456706,5.96386719 10.9767253,6.12548828 10.8585612,6.33349609 C10.7403971,6.54150391 10.6813151,6.77539062 10.6813151,7.03515625 L10.6813151,7.03515625 L11.3932292,7.03515625 C11.3932292,6.79101562 11.4567057,6.59863281 11.5836589,6.45800781 C11.710612,6.31738281 11.8893229,6.24707031 12.1197917,6.24707031 C12.313151,6.24707031 12.4669596,6.30957031 12.5812174,6.43457031 C12.6954753,6.55957031 12.7526042,6.72363281 12.7526042,6.92675781 C12.7526042,7.08105469 12.7091471,7.23486328 12.6222331,7.38818359 C12.535319,7.54150391 12.3893229,7.73242188 12.1842448,7.9609375 L12.1842448,7.9609375 L10.7633464,9.51074219 L10.7633464,10 L13.6315104,10 Z M15.5592448,10.0585938 C15.9811198,10.0585938 16.3190104,9.94873047 16.5729167,9.72900391 C16.8268229,9.50927734 16.953776,9.21191406 16.953776,8.83691406 C16.953776,8.61035156 16.8937174,8.40722656 16.7736003,8.22753906 C16.6534831,8.04785156 16.4820964,7.90625 16.2594401,7.80273438 C16.444987,7.70898438 16.5914714,7.58056641 16.6988932,7.41748047 C16.8063151,7.25439453 16.860026,7.06835938 16.860026,6.859375 C16.860026,6.49609375 16.7428385,6.20800781 16.5084635,5.99511719 C16.2740885,5.78222656 15.9567057,5.67578125 15.5563151,5.67578125 C15.1578776,5.67578125 14.8414714,5.78222656 14.6070964,5.99511719 C14.3727214,6.20800781 14.2555339,6.49609375 14.2555339,6.859375 C14.2555339,7.06835938 14.3087565,7.25439453 14.4152018,7.41748047 C14.5216471,7.58056641 14.6666667,7.70898438 14.8502604,7.80273438 C14.6315104,7.90039062 14.4615885,8.04003906 14.3404948,8.22167969 C14.219401,8.40332031 14.1588542,8.60839844 14.1588542,8.83691406 C14.1588542,9.20996094 14.2862956,9.50683594 14.5411784,9.72753906 C14.7960612,9.94824219 15.1354167,10.0585938 15.5592448,10.0585938 Z M15.5592448,7.52441406 C15.3776042,7.52441406 15.2335612,7.46679688 15.1271159,7.3515625 C15.0206706,7.23632812 14.9674479,7.08105469 14.9674479,6.88574219 C14.9674479,6.68847656 15.0201823,6.53271484 15.125651,6.41845703 C15.2311198,6.30419922 15.3746745,6.24707031 15.5563151,6.24707031 C15.7379557,6.24707031 15.882487,6.30712891 15.9899089,6.42724609 C16.0973307,6.54736328 16.1510417,6.70019531 16.1510417,6.88574219 C16.1510417,7.08105469 16.097819,7.23632812 15.9913737,7.3515625 C15.8849284,7.46679688 15.7408854,7.52441406 15.5592448,7.52441406 Z M15.5592448,9.49023438 C15.344401,9.49023438 15.175944,9.42773438 15.0538737,9.30273438 C14.9318034,9.17773438 14.8707682,9.01074219 14.8707682,8.80175781 C14.8707682,8.58886719 14.9327799,8.41796875 15.0568034,8.2890625 C15.1808268,8.16015625 15.3463542,8.09570312 15.5533854,8.09570312 C15.7604167,8.09570312 15.9269206,8.16064453 16.0528971,8.29052734 C16.1788737,8.42041016 16.241862,8.59082031 16.241862,8.80175781 C16.241862,9.01855469 16.1818034,9.1875 16.0616862,9.30859375 C15.941569,9.4296875 15.7740885,9.49023438 15.5592448,9.49023438 Z"/>
    </g>
    <g transform="translate(16 47)">
      <circle cx="26" cy="3" r="1" fill="#EA475B"/>
      <line x1="26" x2="15.5" y1="3" y2="3" stroke="#EA475B" stroke-linecap="round" stroke-width=".4"/>
      <path fill="#EA475B" fill-rule="nonzero" d="M3.11035156,5 L3.11035156,4.05078125 L3.640625,4.05078125 L3.640625,3.47949219 L3.11035156,3.47949219 L3.11035156,0.734375 L2.375,0.734375 L0.53515625,3.6171875 L0.555664062,4.05078125 L2.3984375,4.05078125 L2.3984375,5 L3.11035156,5 Z M2.3984375,3.47949219 L1.28222656,3.47949219 L2.34570312,1.79199219 L2.3984375,1.69824219 L2.3984375,3.47949219 Z M4.77441406,5 L5.69433594,3.43554688 L6.61132812,5 L7.47558594,5 L6.15722656,2.84960938 L7.44628906,0.734375 L6.59082031,0.734375 L5.69433594,2.27539062 L4.79785156,0.734375 L3.94238281,0.734375 L5.234375,2.84960938 L3.91308594,5 L4.77441406,5 Z M10.3173828,5 L10.3173828,4.05078125 L10.8476562,4.05078125 L10.8476562,3.47949219 L10.3173828,3.47949219 L10.3173828,0.734375 L9.58203125,0.734375 L7.7421875,3.6171875 L7.76269531,4.05078125 L9.60546875,4.05078125 L9.60546875,5 L10.3173828,5 Z M9.60546875,3.47949219 L8.48925781,3.47949219 L9.55273438,1.79199219 L9.60546875,1.69824219 L9.60546875,3.47949219 Z"/>
    </g>
    <line x1=".5" x2=".5" y1=".571" y2="23.429" stroke="#EA475B" stroke-dasharray="2 2" stroke-linecap="round" stroke-width=".4" transform="translate(43 24)"/>
    <line x1=".5" x2=".5" y1=".571" y2="23.429" stroke="#EA475B" stroke-dasharray="2 2" stroke-linecap="round" stroke-width=".4" transform="translate(47 24)"/>
    <g transform="translate(41 13)">
      <g stroke="#EA475B" stroke-linecap="round" stroke-width=".4" transform="translate(1 8)">
        <line x1=".5" x2=".5" y2="2"/>
        <line x1="6.5" x2="6.5" y2="2"/>
        <line x1=".5" x2="6.5" y1="1" y2="1"/>
      </g>
      <path fill="#EA475B" fill-rule="nonzero" d="M5.30371094,6 L5.30371094,5.05078125 L5.83398438,5.05078125 L5.83398438,4.47949219 L5.30371094,4.47949219 L5.30371094,1.734375 L4.56835938,1.734375 L2.72851562,4.6171875 L2.74902344,5.05078125 L4.59179688,5.05078125 L4.59179688,6 L5.30371094,6 Z M4.59179688,4.47949219 L3.47558594,4.47949219 L4.5390625,2.79199219 L4.59179688,2.69824219 L4.59179688,4.47949219 Z"/>
      <rect width="7" height="4" x="1" y="10"/>
    </g>
  </g>
</svg>
