<svg width="860" height="176" xmlns="http://www.w3.org/2000/svg" xmlns:xlink="http://www.w3.org/1999/xlink"><defs><filter x="-29.7%" y="-26.6%" width="159.4%" height="159.4%" filterUnits="objectBoundingBox" id="filter-2"><feOffset dy="1" in="SourceAlpha" result="shadowOffsetOuter1"/><feGaussianBlur stdDeviation="3" in="shadowOffsetOuter1" result="shadowBlurOuter1"/><feComposite in="shadowBlurOuter1" in2="SourceAlpha" operator="out" result="shadowBlurOuter1"/><feColorMatrix values="0 0 0 0 0 0 0 0 0 0 0 0 0 0 0 0 0 0 0.12 0" in="shadowBlurOuter1"/></filter><filter x="-28.1%" y="-25%" width="156.2%" height="156.2%" filterUnits="objectBoundingBox" id="filter-3"><feGaussianBlur stdDeviation="2" in="SourceAlpha" result="shadowBlurInner1"/><feOffset dy="2" in="shadowBlurInner1" result="shadowOffsetInner1"/><feComposite in="shadowOffsetInner1" in2="SourceAlpha" operator="arithmetic" k2="-1" k3="1" result="shadowInnerInner1"/><feColorMatrix values="0 0 0 0 1 0 0 0 0 1 0 0 0 0 1 0 0 0 1 0" in="shadowInnerInner1"/></filter><circle id="path-1" cx="430" cy="144" r="16"/></defs><style>@keyframes mouse_move{0%,12%,68%,to{transform:translate(0,0);opacity:1}20%,22%,26%,60%{transform:translate(-180px,-40px);opacity:1}24%{transform:translate(-180px,-40px);opacity:.2}}@keyframes button_back{0%,16%,66%,to{fill-opacity:0}22%,26%,62%{fill-opacity:.04}24%{fill-opacity:.12}}@keyframes active{0%,16%,24%,82%,to{opacity:0}22%{opacity:.04}26%,80%{opacity:1}}</style><g id="Rows" stroke="none" stroke-width="1" fill="none" fill-rule="evenodd"><g id="rate_row_boolean"><rect id="base" fill-opacity="0" fill="#000000" x="0" y="0" width="860" height="176" rx="4"/><g id="Group" transform="translate(222 48)"><path id="row_base" fill-opacity="0" fill="#FFF" d="M0 0h416v80H0z"/><path d="M69.81 32.5a2.357 2.357 0 012.356 2.357v6.858c0 .618-.226 1.212-.64 1.67l-3.69 4.113c-.771.86-2.105.92-2.995-.016-.428-.45-.561-1.109-.434-1.716l.505-2.433h-4.107c-.488 0-.983-.11-1.38-.393-1.11-.792-1.407-2.143-.853-3.236l2.994-5.912A2.357 2.357 0 0163.67 32.5zm-.144 1.667h-5.909a.834.834 0 00-.744.457l-2.953 5.833a.818.818 0 00.033.813c.073.12.29.397.71.397h5.133a.83.83 0 01.646.307c.16.194.221.45.17.695l-.712 3.434c-.044.211.087.313.17.355a.305.305 0 00.386-.072l3.691-4.115a.83.83 0 00.213-.556V35a.833.833 0 00-.834-.833zm6.667-1.667c.92 0 1.667.747 1.667 1.667v6.666c0 .92-.747 1.667-1.667 1.667h-1.666c-.92 0-1.667-.747-1.667-1.667v-6.666c0-.92.747-1.667 1.667-1.667zm-.416 1.667h-.835a.417.417 0 00-.416.416v5.834c0 .23.187.416.417.416h.834c.23 0 .416-.186.416-.416v-5.834a.417.417 0 00-.416-.416z" id="icon_color" fill-opacity=".56" fill="#000000"/><path d="M413.317 34.882c.017-.049.042-.115.076-.198.035-.083.078-.166.128-.25.051-.083.109-.156.174-.219a.353.353 0 01.207-.106.784.784 0 01.365.024c.118.037.242.08.374.13.132.052.273.1.423.147.15.047.317.07.5.07h.036a1.3 1.3 0 00.402-.06c.138-.046.265-.102.38-.171a2.04 2.04 0 00.314-.229c.093-.083.173-.162.24-.237a2.086 2.086 0 00.216-.283l-.694-.45a3.633 3.633 0 01-.118.146c-.055.065-.122.13-.201.197-.08.067-.164.123-.253.168a.594.594 0 01-.268.067h-.024a1.359 1.359 0 01-.35-.055 3.69 3.69 0 01-.326-.116 4.624 4.624 0 00-.401-.146 1.624 1.624 0 00-.487-.067c-.175 0-.345.038-.512.113a1.693 1.693 0 00-.456.304 1.831 1.831 0 00-.548.971l.803.25zm2.24 9.118c.057-.402.09-.855.1-1.36.011-.506.016-.92.016-1.245 0-.54-.006-1.147-.018-1.82a55.828 55.828 0 00-.08-2.07 81.379 81.379 0 00-.164-2.313l-1.193.183c.057.548.108 1.221.152 2.02.045.8.082 1.733.11 2.8a27.95 27.95 0 01-.006 1.857c-.02.621-.059 1.248-.116 1.881l1.2.067zm-6.677 0c.333 0 .654-.022.965-.067.31-.045.595-.122.855-.231.26-.11.49-.256.69-.439.202-.182.363-.411.485-.687.122-.28.182-.605.182-.974 0-.065-.002-.13-.006-.195-.028-.45-.134-.97-.316-1.558a7.904 7.904 0 00-.195-.563 12.306 12.306 0 00-.335-.786 1.499 1.499 0 01-.055-.124l-1.083.535.53 1.303a3.959 3.959 0 01.273 1.038c.009.107.013.187.013.24 0 .098-.006.189-.019.274-.02.13-.05.237-.091.323a.953.953 0 01-.34.398 1.674 1.674 0 01-.506.216c-.19.05-.398.079-.62.089-.224.01-.453.015-.689.015h-1.175V44h1.437zm-.304 2.977l.986-.987-.999-.998-.986.992.999.993zm2.495.012l.986-.992-.998-.993-.986.986.998.999zM407.687 44v-1.193h-.122c-.255 0-.476-.026-.66-.08a.95.95 0 01-.417-.218.507.507 0 01-.161-.314 3.288 3.288 0 01-.022-.386v-3.056a42.483 42.483 0 00-.125-3.208 9.022 9.022 0 00-.094-.76l-1.193.218c.037.191.068.436.094.734.027.298.05.624.067.977.019.353.032.718.04 1.096.008.377.012.74.012 1.09a89.654 89.654 0 010 1.88 184.945 184.945 0 00-.012.907c0 .097.002.214.006.35a2.35 2.35 0 00.216.886c.071.154.174.298.307.432.22.219.486.381.8.487.315.105.696.158 1.142.158h.122zm-9.094.055a28.5 28.5 0 00.1-1.905c.01-.597.016-1.074.016-1.43 0-.593-.006-1.226-.019-1.9a55.636 55.636 0 00-.31-4.431l-1.193.182c.138 1.279.247 2.902.329 4.87.012.337.018.694.018 1.071 0 .313-.004.64-.012.98-.02.755-.063 1.587-.128 2.496l1.199.067zM392.451 44c.333 0 .655-.022.965-.067.31-.045.596-.122.855-.231.26-.11.49-.256.691-.439.201-.182.362-.411.484-.687.122-.28.183-.605.183-.974 0-.065-.002-.13-.006-.195-.029-.45-.134-.97-.317-1.558a7.904 7.904 0 00-.195-.563 12.302 12.302 0 00-.334-.786 1.499 1.499 0 01-.055-.124l-1.084.535.53 1.303a3.959 3.959 0 01.274 1.038c.008.107.012.187.012.24 0 .098-.006.189-.018.274-.02.13-.051.237-.092.323a.953.953 0 01-.34.398 1.674 1.674 0 01-.506.216c-.19.05-.397.079-.62.089-.224.01-.453.015-.688.015h-1.175V44h1.436zm-.304 2.977l.986-.987-.998-.998-.986.992.998.993zm2.496.012l.986-.992-.999-.993-.986.986.999.999zm-9.234-5.929l.992-.992-.998-.998-.993.992.999.998zm-.25 7.116c.5 0 .973-.053 1.421-.159a4.386 4.386 0 001.227-.484c.37-.217.693-.492.97-.824.279-.333.495-.729.65-1.187.105-.325.173-.621.203-.889a6.474 6.474 0 00.04-1.004c.43.247.919.371 1.467.371h.133v-1.193h-.133a2.16 2.16 0 01-.454-.052 1.417 1.417 0 01-.508-.24 2.912 2.912 0 01-.566-.56 6.432 6.432 0 01-.633-1.005 6.982 6.982 0 00-.445-.827l-1.01.645a.39.39 0 01.043.064l.07.115c.07.12.153.284.246.493.093.21.188.455.283.737a5.788 5.788 0 01.301 1.853v.073a3.791 3.791 0 01-.176 1.054c-.09.284-.223.538-.402.763-.178.226-.4.416-.663.573-.264.156-.57.275-.92.356a5.17 5.17 0 01-1.168.121c-.345 0-.653-.037-.922-.112a2.885 2.885 0 01-.706-.292c-.201-.12-.373-.255-.515-.405a2.65 2.65 0 01-.353-.46 2.189 2.189 0 01-.21-.453 2.545 2.545 0 01-.094-.378 3.57 3.57 0 01-.03-.718c.012-.243.039-.483.082-.718.042-.235.096-.462.16-.679.066-.217.134-.417.205-.6a5.35 5.35 0 01.21-.477c.069-.136.13-.24.182-.314l-.967-.712a8.651 8.651 0 00-.478.922c-.152.34-.28.697-.384 1.075a5.673 5.673 0 00-.192.983 5.374 5.374 0 00.018 1.41c.082.53.24.993.472 1.387.234.393.527.719.88.977.353.257.756.45 1.208.578.453.128.939.192 1.458.192zm-9.599-4.121a28.5 28.5 0 00.1-1.905c.01-.597.016-1.074.016-1.43 0-.593-.006-1.226-.019-1.9a55.636 55.636 0 00-.31-4.431l-1.193.182c.138 1.279.247 2.902.329 4.87.012.337.018.694.018 1.071 0 .313-.004.64-.012.98-.02.755-.063 1.587-.128 2.496l1.199.067zM367.282 44c.304 0 .633-.013.986-.04a6.124 6.124 0 001.09-.185 5.497 5.497 0 001.122-.435 4.598 4.598 0 001.087-.795c.114-.11.226-.247.338-.414a3.52 3.52 0 00.493-1.138 2.546 2.546 0 00.058-.706 2.018 2.018 0 00-.183-.721 2.14 2.14 0 00-.426-.594c-.308-.3-.613-.482-.913-.545a3.9 3.9 0 00-.785-.094c-.179 0-.36.014-.542.043-.88.15-1.814.681-2.8 1.594.008-.312.012-.622.012-.93 0-1.563-.095-3.052-.286-4.469l-1.23.22.037.356c.024.233.059.589.103 1.068a27.112 27.112 0 01.14 2.708v.22c-.004.519-.017.967-.04 1.345a8.857 8.857 0 01-.1.955 7.538 7.538 0 00-.611.874c-.136.237-.233.4-.29.49h-1.022V44h3.762zm-.755-1.193h-.584c.353-.475.573-.765.66-.87.087-.106.182-.214.283-.323.552-.605 1.07-1.073 1.555-1.406.485-.333.937-.546 1.355-.64a1.579 1.579 0 01.468-.024c.163.017.314.058.454.125s.26.157.362.271a.862.862 0 01.2.414c.017.077.025.154.025.231 0 .154-.03.307-.091.457-.09.227-.25.438-.481.633-.365.3-.732.527-1.102.682-.369.154-.733.264-1.092.331a6.33 6.33 0 01-1.047.11c-.34.006-.66.009-.965.009zm-8.686 1.643c.077 0 .156-.002.237-.006.378-.012.751-.056 1.12-.134.516-.125.97-.292 1.364-.499a3.71 3.71 0 001.047-.821c.15.243.32.433.508.569.189.136.37.236.545.301.174.065.33.104.465.119.136.014.227.021.271.021h.365v-1.193h-.121a1.59 1.59 0 01-.475-.07 1.122 1.122 0 01-.7-.624 1.726 1.726 0 01-.146-.59 405.897 405.897 0 00-.189-2.216 833.29 833.29 0 00-.189-2.21l-.079-.95a497.788 497.788 0 00-.116-1.39l-.005-.064v-.012l-1.193.128.027.283.073.742c.03.31.064.67.1 1.08l.116 1.3a117.983 117.983 0 01.213 2.773 1.38 1.38 0 01-.03.523c-.045.17-.113.33-.204.475-.092.146-.203.28-.335.402a2.319 2.319 0 01-.435.316 12.28 12.28 0 00-.67-2.09 22.43 22.43 0 00-1.199-2.432 27.658 27.658 0 00-1.059-1.756 24.086 24.086 0 00-.344-.515 2.524 2.524 0 01-.137-.207l-.98.694a36.485 36.485 0 01.444.657c.134.204.287.445.457.725.17.28.349.585.536.916.186.33.373.68.56 1.05.186.37.362.745.526 1.126.164.382.31.764.435 1.148.126.383.222.753.286 1.11a4.438 4.438 0 01-1.113.122c-.24 0-.461-.02-.664-.06l-.207 1.186c.296.05.595.073.895.073zm-9.764-.45l1.45-.012c.64 0 1.21-.015 1.71-.046.499-.03.942-.07 1.33-.122a13.634 13.634 0 001.792-.35l-.146-1.156-.447.091c-.14.029-.282.053-.426.073a12.48 12.48 0 01-1.111.104c-.22 0-.43-.03-.633-.092a1.966 1.966 0 01-.655-.328 1.695 1.695 0 01-.453-.53 1.418 1.418 0 01-.17-.694c0-.186.03-.366.09-.538.062-.173.152-.326.272-.46.12-.134.268-.24.447-.32a1.52 1.52 0 01.62-.118c.208 0 .394.021.56.064.167.042.32.101.46.176.14.075.271.162.393.262s.246.206.371.32l.749-.92c-.183-.15-.363-.292-.542-.426a3.698 3.698 0 00-.566-.35 3.08 3.08 0 00-1.424-.32c-.378 0-.726.07-1.044.21a2.6 2.6 0 00-1.382 1.406 2.623 2.623 0 00-.198 1.014c0 .365.06.698.18.999.12.3.328.584.624.852l-1.85.018V44zm.244 0v-1.193h-.122c-.256 0-.476-.026-.66-.08a.95.95 0 01-.417-.218.507.507 0 01-.162-.314 3.288 3.288 0 01-.02-.386v-3.056a42.483 42.483 0 00-.126-3.208 9.022 9.022 0 00-.094-.76l-1.193.218c.036.191.068.436.094.734.027.298.049.624.067.977.019.353.032.718.04 1.096.008.377.012.74.012 1.09a89.654 89.654 0 010 1.88 184.945 184.945 0 00-.012.907c0 .097.002.214.006.35a2.35 2.35 0 00.216.886c.071.154.173.298.307.432.22.219.486.381.8.487.315.105.696.158 1.142.158h.122zm-11.261-4.997l.986-.986-.998-.999-.986.992.998.993zm2.496.012l.986-.992-.999-.993-.986.987.999.998zM338.308 44a12.11 12.11 0 001.637-.128 13.121 13.121 0 001.802-.392c.28-.084.542-.176.785-.277.244-.102.457-.21.64-.323.19-.122.337-.242.44-.362a.971.971 0 00.208-.356 1.21 1.21 0 00.045-.475 4.334 4.334 0 00-.097-.554 5.691 5.691 0 00-.301-.922 11.282 11.282 0 00-.38-.816 8.8 8.8 0 00-.333-.59 7.713 7.713 0 01-.155-.253l-1.01.658a7.255 7.255 0 01.29.46c.078.135.164.291.258.468.093.176.181.362.264.557.083.195.157.392.22.593.062.201.102.393.118.575-.34.191-.709.346-1.105.466a9.93 9.93 0 01-1.196.283c-.401.07-.795.117-1.18.143-.386.027-.74.04-1.06.04-1.136-.004-2.06-.113-2.77-.326-.71-.213-1.164-.518-1.363-.916a1.194 1.194 0 01-.122-.542c0-.223.05-.468.147-.736a2.35 2.35 0 01.182-.417 4.831 4.831 0 01.213-.35l-.968-.718-.067.1a4.865 4.865 0 00-.3.533 5.538 5.538 0 00-.174.401c-.159.418-.238.82-.238 1.206 0 .385.085.742.256 1.07.3.606.868 1.07 1.704 1.395.88.324 2.048.493 3.5.505h.11zm-13.903 0c.333 0 .642-.022.928-.067a2.82 2.82 0 00.777-.231c.23-.11.435-.256.611-.439.177-.182.326-.411.448-.687.121-.28.182-.605.182-.974 0-.065-.002-.13-.006-.195-.028-.45-.134-.97-.316-1.558a7.904 7.904 0 00-.195-.563 12.304 12.304 0 00-.335-.786 1.499 1.499 0 01-.055-.124l-1.083.535.53 1.303a3.959 3.959 0 01.273 1.038c.008.107.013.187.013.24 0 .098-.007.189-.019.274-.02.13-.05.237-.091.323a1.09 1.09 0 01-.304.398 1.28 1.28 0 01-.426.216 2.29 2.29 0 01-.542.089c-.2.01-.416.015-.652.015h-.706V44h.968zm.998 3.171l.993-.992-.999-.998-.992.992.998.998zm-7.03 1.321a11.123 11.123 0 001.491-.9 7.948 7.948 0 001.288-1.142c.375-.416.676-.865.904-1.348.227-.483.34-.99.34-1.522v-.024c.102.11.208.194.32.255a1.475 1.475 0 00.624.183c.09.004.162.006.22.006h.103v-1.193h-.098c-.203 0-.388-.049-.557-.146a1.645 1.645 0 01-.484-.46 4.3 4.3 0 01-.45-.81c-.146-.33-.296-.73-.45-1.201l-1.145.353c.049.15.108.337.177.563.069.225.138.465.207.721.069.256.133.516.191.782.06.266.103.514.131.746a2.272 2.272 0 01-.067.822 3.158 3.158 0 01-.331.785c-.149.251-.33.492-.545.721-.215.23-.45.447-.706.654a8.3 8.3 0 01-.816.582c-.288.18-.578.346-.87.496l.523 1.077zm-.718-4.437a28.5 28.5 0 00.1-1.905c.01-.597.015-1.074.015-1.43 0-.593-.006-1.226-.018-1.9a55.636 55.636 0 00-.31-4.431l-1.193.182c.138 1.279.247 2.902.328 4.87.013.337.019.694.019 1.071 0 .313-.004.64-.013.98-.02.755-.062 1.587-.127 2.496l1.199.067zm-8.34 4.224c.67 0 1.286-.058 1.848-.173a5.922 5.922 0 001.519-.52c.475-.236.853-.52 1.135-.85.282-.33.46-.697.533-1.099.028-.158.042-.302.042-.432 0-.134-.014-.253-.042-.359a1.29 1.29 0 00-.737-.873 3.74 3.74 0 00-.581-.22 9.25 9.25 0 00-.621-.155 5.114 5.114 0 01-.581-.158 1.879 1.879 0 01-.466-.228.724.724 0 01-.277-.356 1.06 1.06 0 01-.043-.56c.029-.2.09-.396.186-.59.095-.196.217-.383.365-.564.148-.18.309-.34.481-.48.173-.14.35-.256.533-.348.182-.091.359-.145.53-.161a2.23 2.23 0 01.425-.043h.092c.162.013.306.032.432.058.126.027.227.054.304.082l.11.05.53-1.115a8.355 8.355 0 01-.199-.079 3.164 3.164 0 00-.471-.14 3.36 3.36 0 00-.524-.082 3.199 3.199 0 00-.956.052 3.624 3.624 0 00-.906.328c-.288.15-.553.332-.795.545a4.086 4.086 0 00-.642.718 3.881 3.881 0 00-.45.843 3.095 3.095 0 00-.204.77 5.275 5.275 0 00-.034.503c0 .203.02.407.061.614.061.305.184.55.368.737.185.187.398.338.64.453.241.116.494.206.757.271.264.065.506.127.725.186a2.5 2.5 0 01.526.195c.132.07.198.165.198.283v.03c-.02.207-.122.407-.304.6-.183.192-.438.365-.764.517a5.203 5.203 0 01-1.184.365 8.082 8.082 0 01-1.558.137c-.589 0-1.098-.073-1.528-.219-.43-.146-.773-.365-1.029-.657a1.812 1.812 0 01-.313-.484 2.437 2.437 0 01-.21-.995v-.049c0-.17.01-.329.03-.475a12.05 12.05 0 01.353-1.735c.158-.56.329-1.126.511-1.698l-1.162-.408a2.872 2.872 0 00-.07.195 35.172 35.172 0 00-.34 1.093 19.3 19.3 0 00-.394 1.588c-.056.282-.101.555-.134.82a5.158 5.158 0 00-.036.602c0 .373.045.722.134 1.047.134.503.367.945.7 1.327.381.426.865.748 1.452.967.586.22 1.265.33 2.036.33zm-13.628-12.375l.9-.9-.906-.907-.901.9.907.907zm-1.376 1.924l.986-.992-.998-.999-.986.993.998.998zm2.672.006l.987-.986-.999-.998-.986.986.998.998zm.207 6.239c.378 0 .709-.053.993-.158.292-.106.535-.258.73-.457.195-.199.34-.439.438-.721.098-.282.146-.598.146-.947 0-.23-.02-.468-.064-.712a6.734 6.734 0 00-.164-.712 10.708 10.708 0 00-.752-1.899l-1.065.56a10.74 10.74 0 01.515 1.245c.087.257.162.52.225.788s.094.517.094.749c0 .178-.02.339-.06.48a.814.814 0 01-.199.354.668.668 0 01-.31.185 1.37 1.37 0 01-.35.046c-.069 0-.142-.004-.22-.012a.568.568 0 01-.307-.119.741.741 0 01-.2-.256 1.287 1.287 0 01-.11-.359 2.647 2.647 0 01-.033-.429c0-.166.012-.356.036-.569.024-.213.052-.414.082-.603.03-.188.058-.35.082-.484l.03-.194-1.168-.213a14.56 14.56 0 01-.1.587 8.363 8.363 0 01-.165.697c-.067.24-.148.475-.243.706a3.216 3.216 0 01-.335.621c-.128.183-.274.33-.438.444a.956.956 0 01-.557.17.643.643 0 01-.323-.072.545.545 0 01-.2-.195.852.852 0 01-.104-.277c-.02-.104-.03-.21-.03-.32 0-.158.016-.33.048-.514.033-.185.071-.365.116-.542a11.173 11.173 0 01.255-.873l-1.205-.256c-.04.199-.089.41-.146.633a6.81 6.81 0 01-.207.667 4.861 4.861 0 01-.286.636c-.11.203-.238.382-.386.539a1.813 1.813 0 01-.509.377c-.19.095-.405.143-.645.143h-.134V44h.128c.235 0 .451-.02.648-.058a2.366 2.366 0 00.99-.432c.137-.103.267-.22.389-.35.065.15.157.282.277.396.12.113.253.209.399.286.146.077.299.135.46.173a1.99 1.99 0 001.445-.192c.308-.166.584-.391.828-.675.085.13.188.25.31.362.122.112.254.209.396.292.142.083.29.15.447.198.156.049.312.073.466.073h.042zM282.917 44c.624 0 1.168-.164 1.63-.493.236-.162.407-.327.512-.493.759.532 1.544.848 2.356.95.069.008.136.012.2.012.419 0 .774-.193 1.066-.579.154.203.348.354.581.454.234.1.5.149.8.149h.147v-1.193h-.146a.81.81 0 01-.627-.28.938.938 0 01-.17-.298 1.174 1.174 0 01-.068-.36 5.122 5.122 0 00-.07-.663 3.566 3.566 0 00-.468-1.257 2.221 2.221 0 00-.411-.496 1.821 1.821 0 00-.539-.335 1.78 1.78 0 00-.673-.121c-.357 0-.662.094-.916.283a2.405 2.405 0 00-.642.733l-.046.076c-.018.03-.047.085-.088.164l-.17.341c-.073.148-.173.346-.298.594a5.844 5.844 0 01-.445.736c-.438.585-.941.879-1.51.883h-.127V44h.122zm4.559-1.211a1.23 1.23 0 01-.201-.019 3.03 3.03 0 01-.673-.237 6.245 6.245 0 01-.83-.487l.033-.067.079-.161c.038-.08.094-.193.167-.341l.292-.6c.248-.454.48-.681.694-.681.183 0 .341.05.475.152.134.101.245.232.332.392.087.16.154.34.2.54.047.198.075.395.083.59v.097c0 .11-.01.209-.03.298a.874.874 0 01-.128.292c-.106.155-.27.232-.493.232zM283.038 44v-1.193h-.121c-.256 0-.476-.026-.66-.08a.95.95 0 01-.418-.218.507.507 0 01-.161-.314 3.288 3.288 0 01-.021-.386v-3.056a42.483 42.483 0 00-.125-3.208 9.022 9.022 0 00-.095-.76l-1.193.218c.037.191.068.436.095.734.026.298.048.624.067.977.018.353.031.718.04 1.096.007.377.011.74.011 1.09a89.654 89.654 0 010 1.88 184.945 184.945 0 00-.011.837v.174c0 .073.003.155.005.246a2.35 2.35 0 00.216.886c.071.154.174.298.308.432.219.219.486.381.8.487.315.105.695.158 1.142.158h.121zm-15.248 0c.248 0 .481-.012.7-.037a2.77 2.77 0 00.621-.14 2.05 2.05 0 00.551-.298 2.48 2.48 0 00.496-.517c.187.138.39.273.609.405.22.131.447.243.685.334a2.63 2.63 0 00.983.198c.166 0 .333-.022.499-.067.264-.073.487-.204.67-.392.182-.189.326-.41.432-.664.105-.253.17-.486.194-.697.025-.21.037-.381.037-.511 0-.146-.01-.288-.03-.426a3.683 3.683 0 00-.217-.804 2.506 2.506 0 00-.417-.706 2.058 2.058 0 00-.63-.502 1.812 1.812 0 00-.849-.192c-.267 0-.502.054-.703.162-.2.107-.38.247-.535.42a3.21 3.21 0 00-.42.59c-.124.221-.24.445-.35.673-.126.251-.25.496-.375.733-.123.238-.27.449-.438.633a1.908 1.908 0 01-.612.445c-.24.111-.54.167-.9.167h-.122V44h.121zm4.627-1.266c-.163 0-.345-.04-.548-.122a4.697 4.697 0 01-1.01-.59l.328-.664c.101-.199.192-.371.27-.517.08-.146.155-.268.226-.365a.862.862 0 01.213-.216.408.408 0 01.228-.07c.122 0 .23.024.323.073.093.048.174.11.243.185.07.075.128.159.177.25a1.98 1.98 0 01.189.496c.016.069.026.118.03.146.016.11.024.215.024.317a1.822 1.822 0 01-.113.615 1.035 1.035 0 01-.167.298.389.389 0 01-.2.14.878.878 0 01-.213.024zm-7.719-5.831l.992-.993-.998-.998-.992.992.998.999zm-3 7.097c.62 0 1.205-.036 1.752-.107a6.141 6.141 0 001.394-.325c.467.154.948.265 1.443.332.495.067.996.1 1.503.1h.122v-1.193h-.115c-.13 0-.266-.004-.408-.012a14.301 14.301 0 01-.831-.073 3.837 3.837 0 01-.362-.061c.219-.24.386-.512.502-.819.115-.306.177-.55.185-.73.009-.18.013-.29.013-.326 0-.28-.037-.554-.11-.822a2.495 2.495 0 00-.399-.821 2.161 2.161 0 00-.678-.597 2.087 2.087 0 00-.95-.256h-.067a1.68 1.68 0 00-.797.207c-.284.15-.536.366-.755.646-.22.28-.387.588-.502.925a3.295 3.295 0 00-.174 1.077c0 .585.264 1.108.792 1.57-.183.02-.412.041-.688.062-.276.02-.566.03-.87.03h-.122V44h.121zm3.104-1.74a1.818 1.818 0 01-.83-.484c-.1-.104-.178-.21-.232-.32a.697.697 0 01-.083-.31c0-.248.036-.475.107-.68a1.87 1.87 0 01.27-.523 1.34 1.34 0 01.357-.335.686.686 0 01.356-.118c.134 0 .262.053.383.16.122.108.225.246.308.415.083.168.137.327.161.478.024.15.037.271.037.365a1.623 1.623 0 01-.29.919c-.127.179-.309.323-.544.432zM257.297 44c.381 0 .713-.015.995-.046.282-.03.528-.077.74-.14a2.273 2.273 0 00.973-.569c.175.223.398.405.67.545s.613.21 1.022.21h.122v-1.193h-.122a.86.86 0 01-.508-.14.999.999 0 01-.31-.353 1.667 1.667 0 01-.162-.463 4.3 4.3 0 01-.067-.474 18.669 18.669 0 00-.11-1.054 5.718 5.718 0 00-.176-.827l-1.144.322c.09.309.151.583.186.822.034.24.051.475.051.706 0 .244-.04.457-.121.64a1.1 1.1 0 01-.38.456 1.85 1.85 0 01-.67.274c-.274.06-.604.091-.99.091h-.906V44h.907zm.225 2.977l.986-.987-.998-.998-.987.992.999.993zm2.495.012l.986-.992-.998-.993-.986.986.998.999zM256.633 44v-1.193h-.122c-.243 0-.444-.031-.602-.094a1.088 1.088 0 01-.396-.262 1.536 1.536 0 01-.27-.408 13.54 13.54 0 01-.235-.533c-.158-.369-.308-.723-.448-1.062a3413.595 3413.595 0 01-1.415-3.436l-1.108.463 1.924 4.626a2.31 2.31 0 01-.81.511c-.219.085-.404.135-.557.15a4.04 4.04 0 01-.344.02c-.162 0-.324-.018-.487-.054a2.792 2.792 0 01-.736-.28 3.6 3.6 0 01-.737-.542l-.687.968c.345.357.72.634 1.129.83a3.02 3.02 0 001.33.296c.288 0 .548-.017.779-.052.231-.034.445-.085.642-.152.197-.067.381-.151.554-.253.172-.101.344-.219.514-.353a2.1 2.1 0 00.305.314c.117.1.254.186.41.259.157.073.337.13.542.173.205.043.44.064.703.064h.122zm-15.546 0c.333 0 .642-.022.928-.067a2.82 2.82 0 00.776-.231c.232-.11.436-.256.612-.439.177-.182.326-.411.447-.687.122-.28.183-.605.183-.974 0-.065-.002-.13-.006-.195-.028-.45-.134-.97-.317-1.558a7.904 7.904 0 00-.194-.563 12.302 12.302 0 00-.335-.786 1.499 1.499 0 01-.055-.124l-1.083.535.53 1.303a3.959 3.959 0 01.273 1.038c.008.107.012.187.012.24 0 .098-.006.189-.018.274-.02.13-.05.237-.091.323a1.09 1.09 0 01-.305.398 1.28 1.28 0 01-.426.216 2.29 2.29 0 01-.541.089c-.2.01-.416.015-.652.015h-.706V44h.968zm.998 3.171l.992-.992-.998-.998-.992.992.998.998zm-7.438 1.102a7.459 7.459 0 001.72-.487 6.291 6.291 0 001.51-.889 5.424 5.424 0 001.156-1.269 4.598 4.598 0 00.66-1.628h.67v-1.193h-.579a5.794 5.794 0 00-.329-1.768 4.675 4.675 0 00-.352-.77 3.846 3.846 0 00-.463-.646c-.483-.519-1.012-.779-1.589-.779-.26 0-.51.066-.751.198a2.284 2.284 0 00-.673.581c-.17.22-.319.48-.444.783a3.435 3.435 0 00-.24.81 4.237 4.237 0 00-.053.587c0 .162.015.324.043.487.049.308.166.58.353.815.422.524 1.073.812 1.954.865.223.02.423.03.6.03h.69c-.044.304-.169.614-.374.928a3.805 3.805 0 01-.837.892 6.02 6.02 0 01-1.272.755 7.854 7.854 0 01-1.68.523l.28 1.175zm3.342-5.479h-.098c-.178 0-.369-.005-.572-.017a3.068 3.068 0 01-.259-.028c-.099-.014-.2-.036-.304-.067a1.43 1.43 0 01-.292-.122.716.716 0 01-.228-.197.57.57 0 01-.125-.29 2.13 2.13 0 01-.021-.27 2.765 2.765 0 01.344-1.272c.083-.143.177-.26.283-.35a.505.505 0 01.334-.138c.073 0 .142.013.207.037a.94.94 0 01.186.094c.059.039.114.082.164.128.051.047.097.09.137.131.102.118.2.257.295.417.096.16.182.34.26.539.076.199.14.414.188.645.049.231.079.477.091.736a7.117 7.117 0 01-.59.024zm-7.64 1.2c.244 0 .489-.018.734-.055.246-.036.482-.095.71-.176a3.04 3.04 0 00.635-.314c.197-.128.369-.28.515-.46a1.474 1.474 0 00.317-.645c.032-.142.049-.304.05-.487a2.812 2.812 0 00-.07-.614 4.424 4.424 0 00-.276-.795 6.44 6.44 0 00-.444-.815 8.06 8.06 0 00-1.233-1.495 6.963 6.963 0 00-.71-.59 4.27 4.27 0 00-.72-.426l-.494 1.108c.183.08.37.19.56.328.191.138.379.296.564.475.184.179.362.37.532.575.17.205.326.416.466.633.14.217.26.435.359.652.1.217.171.425.216.624.032.146.049.271.049.377 0 .146-.03.256-.092.329-.138.166-.308.29-.51.37a1.959 1.959 0 01-.549.144 3.497 3.497 0 01-.84-.01 5.173 5.173 0 01-1.418-.386 3.7 3.7 0 01-.542-.283l-.499 1.145c.102.093.262.186.481.28a7.375 7.375 0 001.519.441c.265.047.496.07.69.07zm-5.563-2.764v-.87c0-.836-.203-1.475-.609-1.917a21.084 21.084 0 01-.572-.433 98.624 98.624 0 00-.572-.444c-.414-.329-.62-.763-.62-1.303a.99.99 0 01.136-.508c.091-.156.21-.29.356-.405a1.716 1.716 0 011.017-.359c.994 0 1.491.572 1.491 1.717h1.132c0-.844-.231-1.532-.694-2.064-.479-.527-1.122-.791-1.93-.791-.328 0-.656.06-.982.183-.327.121-.62.29-.88.508-.26.217-.47.473-.633.767a1.952 1.952 0 00-.243.959c0 .673.21 1.24.633 1.698.207.162.407.324.602.487.195.162.392.328.59.499.43.381.646.85.646 1.406v.87h1.132zm-.554 2.819l.992-.992-.95-.95-.985.998.943.944z" id="آیاایناطلاعاتبرایشمامفیدبود؟" fill-opacity=".87" fill="#000000" fill-rule="nonzero"/></g><circle id="button_style" fill="#000000" stroke-opacity="0" stroke="#FFF" cx="242" cy="88" r="19.5" style="animation:button_back 5000ms ease-out infinite"/><path d="M242.164 80.502c.771-.86 2.105-.92 2.995.016.428.45.561 1.109.434 1.716l-.505 2.433h4.107c.488 0 .983.11 1.38.393 1.11.792 1.407 2.143.853 3.236l-2.994 5.912a2.357 2.357 0 01-2.103 1.292h-6.14a2.357 2.357 0 01-2.357-2.357v-6.858c0-.618.226-1.212.64-1.67zm-6.83 4.998c.92 0 1.666.747 1.666 1.667v6.666c0 .92-.747 1.667-1.667 1.667h-1.666c-.92 0-1.667-.747-1.667-1.667v-6.666c0-.92.747-1.667 1.667-1.667zm8.3-3.997a.305.305 0 00-.23.111l-3.691 4.115a.83.83 0 00-.213.556V93c0 .46.373.833.834.833h5.909a.834.834 0 00.744-.457l2.953-5.833a.818.818 0 00-.033-.813.821.821 0 00-.71-.397h-5.133a.83.83 0 01-.646-.307.83.83 0 01-.17-.695l.712-3.434c.044-.211-.087-.313-.17-.355a.353.353 0 00-.156-.04zm-8.717 5.664h-.834a.417.417 0 00-.416.416v5.834c0 .23.186.416.416.416h.834c.23 0 .417-.186.417-.416v-5.834a.417.417 0 00-.417-.416z" id="icon_color" fill-opacity=".56" fill="#000000"/><path style="animation:active 5000ms ease-out infinite" d="M242.167 80.498c.772-.86 2.102-.92 2.993.013.43.45.563 1.11.437 1.72l-.506 2.432h4.103c.488 0 .986.11 1.383.394 1.113.793 1.409 2.142.854 3.235l-2.992 5.91a2.36 2.36 0 01-2.107 1.294h-6.136a2.36 2.36 0 01-2.36-2.36v-6.909c0-.582.216-1.143.605-1.576zm-6.83 4.998c.92 0 1.666.747 1.666 1.667v6.667c0 .92-.746 1.666-1.666 1.666h-1.667c-.92 0-1.667-.746-1.667-1.666v-6.667c0-.92.747-1.667 1.667-1.667z" id="icon_color" fill="#7CB342"/><g id="Oval"><use fill="#000" filter="url(#filter-2)" xlink:href="#path-1" style="animation:mouse_move 5000ms ease-out infinite"/><use fill-opacity=".56" fill="#FFF" xlink:href="#path-1" style="animation:mouse_move 5000ms ease-out infinite"/><use fill="#000" filter="url(#filter-3)" xlink:href="#path-1" style="animation:mouse_move 5000ms ease-out infinite"/></g></g></g></svg>