<svg width="860" height="224" xmlns="http://www.w3.org/2000/svg"><g fill="none" fill-rule="evenodd"><rect fill="none" width="860" height="224" rx="4"/><g fill="#000000"><path d="M640.95 92c.905 0 1.607-.219 2.103-.656.496-.438.744-1.04.744-1.805 0-.5-.134-.93-.401-1.292a1.979 1.979 0 00-1.093-.735c.39-.168.699-.406.926-.712.226-.307.34-.66.34-1.058 0-.75-.234-1.316-.7-1.699-.468-.383-1.164-.574-2.09-.574h-2.789V92h2.96zm-.136-4.893h-1.699v-2.712h1.664c.559 0 .975.106 1.248.319.274.213.41.554.41 1.022 0 .422-.147.756-.442 1.002-.295.246-.688.37-1.18.37zm.159 3.973h-1.858v-3.07h1.875c1.117 0 1.676.513 1.676 1.54 0 .477-.151.851-.454 1.123-.303.271-.716.407-1.24.407zm6.949 1.037c1.062 0 1.86-.408 2.39-1.224l-.662-.516c-.199.258-.431.465-.697.621-.265.156-.59.234-.973.234-.539 0-.983-.192-1.333-.577-.35-.384-.532-.89-.547-1.514h4.295v-.452c0-1.011-.229-1.789-.686-2.332-.457-.543-1.098-.814-1.922-.814-.504 0-.972.14-1.403.419-.432.28-.768.666-1.008 1.16-.24.494-.36 1.056-.36 1.685v.199c0 .945.27 1.7.808 2.265.54.564 1.239.846 2.098.846zm1.389-3.867h-3.176c.07-.574.254-1.02.55-1.339a1.446 1.446 0 011.102-.477c.453 0 .813.151 1.078.454.266.302.414.73.446 1.28v.082zm3.955 3.75v-5.502h1.353v-.838h-1.353v-.668c0-.383.095-.677.287-.882.191-.205.463-.307.814-.307.207 0 .403.017.586.052l.059-.878a2.845 2.845 0 00-.744-.1c-.664 0-1.178.186-1.541.557-.364.37-.545.896-.545 1.576v.65h-1.002v.838h1.002V92h1.084zm5.15.117c.57 0 1.075-.137 1.515-.41.44-.273.777-.655 1.013-1.145.237-.49.355-1.044.355-1.662v-.076c0-.992-.267-1.787-.8-2.385-.533-.597-1.231-.896-2.095-.896-.558 0-1.055.135-1.49.404-.436.27-.776.653-1.02 1.149-.245.496-.367 1.054-.367 1.675v.077c0 .984.267 1.775.8 2.373.533.597 1.23.896 2.089.896zm0-.885c-.547 0-.983-.212-1.31-.638-.326-.426-.489-.99-.489-1.694 0-.793.164-1.402.492-1.828.329-.426.76-.638 1.295-.638.547 0 .986.215 1.316.647.33.432.495.995.495 1.69 0 .778-.162 1.382-.486 1.814-.325.432-.762.647-1.313.647zm5.326.768v-4.5c.254-.605.737-.908 1.447-.908.192 0 .37.013.534.04v-1.007c-.11-.055-.27-.082-.48-.082-.653 0-1.157.283-1.513.85l-.017-.733h-1.055V92h1.084zm5.608.117c1.062 0 1.859-.408 2.39-1.224l-.662-.516c-.2.258-.432.465-.697.621-.266.156-.59.234-.973.234-.539 0-.983-.192-1.333-.577-.35-.384-.532-.89-.548-1.514h4.295v-.452c0-1.011-.228-1.789-.685-2.332-.457-.543-1.098-.814-1.922-.814-.504 0-.972.14-1.403.419-.432.28-.768.666-1.008 1.16-.24.494-.36 1.056-.36 1.685v.199c0 .945.269 1.7.808 2.265.539.564 1.238.846 2.098.846zm1.388-3.867h-3.175c.07-.574.253-1.02.55-1.339a1.446 1.446 0 011.102-.477c.453 0 .812.151 1.078.454.266.302.414.73.445 1.28v.082zM638.324 140l.803-2.227h3.574l.815 2.227h1.154l-3.264-8.531h-.984L637.164 140h1.16zm4.043-3.152h-2.9l1.447-3.99 1.453 3.99zm4.899 3.152v-5.502h1.353v-.838h-1.353v-.668c0-.383.095-.677.287-.882.191-.205.463-.307.814-.307.207 0 .403.017.586.052l.059-.878a2.845 2.845 0 00-.744-.1c-.664 0-1.178.185-1.541.557-.364.37-.545.896-.545 1.576v.65h-1.002v.838h1.002V140h1.084zm4.4.117c.27 0 .547-.039.832-.117v-.879c-.219.047-.39.07-.516.07-.253 0-.433-.063-.539-.19-.105-.127-.158-.317-.158-.571v-3.932h1.184v-.838h-1.184v-1.535h-1.084v1.535h-1.154v.838h1.154v3.932c0 .539.123.955.37 1.248.245.293.61.44 1.095.44zm4.7 0c1.062 0 1.859-.408 2.39-1.224l-.662-.516c-.2.258-.432.465-.698.621-.265.156-.59.234-.972.234-.54 0-.984-.192-1.333-.577-.35-.384-.532-.89-.548-1.514h4.295v-.452c0-1.011-.229-1.789-.686-2.332-.457-.543-1.097-.814-1.922-.814-.503 0-.971.14-1.403.419-.431.28-.767.666-1.008 1.16-.24.494-.36 1.056-.36 1.685v.199c0 .945.27 1.7.809 2.265.539.564 1.238.846 2.097.846zm1.388-3.867h-3.176c.07-.574.254-1.02.55-1.339a1.446 1.446 0 011.102-.477c.454 0 .813.151 1.079.454.265.302.414.73.445 1.28v.082zm3.422 3.75v-4.5c.254-.605.736-.908 1.447-.908.191 0 .37.013.533.04v-1.007c-.11-.055-.27-.082-.48-.082-.653 0-1.156.283-1.512.85l-.018-.733h-1.054V140h1.084z" fill-opacity=".56" fill-rule="nonzero"/><path fill-opacity=".12" d="M620 56h1v112h-1z"/></g><path fill="none" d="M108 64h488v48H108z"/><path fill-opacity=".12" fill="#000000" d="M108 111h488v1H108z"/><path d="M153.8 91.713c0-.403-.003-.828-.01-1.273a46.022 46.022 0 00-.126-2.748c-.034-.464-.08-.913-.135-1.35a15.886 15.886 0 00-.581-2.723 9.204 9.204 0 00-.95-2.104l-1.155.737c.348.547.625 1.178.832 1.892.206.715.365 1.482.476 2.303.112.82.183 1.678.216 2.57.032.893.049 1.792.049 2.696h1.384zm4.216-.049c0-.946-.015-1.894-.046-2.845-.03-.95-.121-1.899-.274-2.845a2.345 2.345 0 00.87.139c.18 0 .356-.016.528-.049.172-.032.334-.085.487-.16a1.699 1.699 0 00.772-.765c.116.167.239.306.369.418a1.743 1.743 0 001.161.43c.367 0 .681-.068.943-.204.262-.137.474-.326.637-.567.162-.242.274-.506.337-.793a4.044 4.044 0 00.087-1.1 19.882 19.882 0 00-.07-.928 13.184 13.184 0 00-.16-1.11l-1.3.258c.074.403.119.747.135 1.033.016.285.025.532.025.74 0 .107-.005.234-.014.38-.01.146-.034.286-.073.42a.871.871 0 01-.188.345.458.458 0 01-.359.142.4.4 0 01-.302-.139 1.289 1.289 0 01-.226-.361 2.98 2.98 0 01-.164-.498 7.864 7.864 0 01-.18-1.054 52.653 52.653 0 01-.039-.382 7.514 7.514 0 00-.038-.372 4.336 4.336 0 01-.031-.407l-1.378.167a13.73 13.73 0 01.045.605 29.46 29.46 0 01.025.668c-.005.153-.02.337-.045.553a2.74 2.74 0 01-.15.626 1.504 1.504 0 01-.31.514.685.685 0 01-.525.213c-.208 0-.38-.027-.515-.08a.92.92 0 01-.358-.261 2.107 2.107 0 01-.295-.473 24.182 24.182 0 01-.327-.724l-.327-.702-.143-.286-.143-.285c-.046-.093-.09-.18-.132-.26a4.5 4.5 0 00-.111-.206l-1.26.744c.107.167.206.344.296.53.09.185.19.405.296.66.376.965.654 2.05.835 3.256.18 1.205.271 2.483.271 3.833l-.003.584a16.53 16.53 0 01-.018.598h1.385zm8.619-.027a2.5 2.5 0 00.08-.213c.048-.136.12-.317.215-.542.096-.225.215-.485.359-.78.143-.294.314-.601.511-.921.197-.32.42-.645.671-.974.25-.33.53-.641.839-.936a6.892 6.892 0 011.015-.8 5.25 5.25 0 011.2-.574l.501-.167-.403-1.314c-.051.014-.12.034-.206.062l-.323.105c-.135.041-.295.088-.48.139a8.955 8.955 0 01-1.231.24 4.885 4.885 0 01-.592.038h-.09c-.149 0-.303-.019-.463-.056a1.568 1.568 0 01-.441-.174 1.02 1.02 0 01-.33-.306.78.78 0 01-.13-.452c0-.227.056-.435.167-.622.112-.188.255-.35.432-.484.176-.134.376-.24.601-.316.225-.077.451-.115.679-.115.2 0 .409.03.63.09.22.06.448.165.684.313l.703-1.196c-.663-.39-1.336-.585-2.017-.585-.26 0-.52.032-.78.094a3.638 3.638 0 00-1.429.706 3.028 3.028 0 00-.55.581 2.72 2.72 0 00-.365.706 2.497 2.497 0 00-.132.821c0 .343.06.65.177.922.119.271.284.504.498.7.213.194.465.353.755.476s.608.207.956.254a9.168 9.168 0 00-.82.897 13.02 13.02 0 00-.759 1.043 14.37 14.37 0 00-1.044 1.9c-.115.255-.206.47-.27.646l-.069.187c-.029.082-.05.145-.064.19l1.315.417zm8.842-.112a1.253 1.253 0 00.803-.292c.109-.093.198-.202.268-.327a.957.957 0 00.118-.41v-.056a.926.926 0 00-.132-.494 1.038 1.038 0 00-.39-.362c-.157-.083-.285-.126-.382-.128a17.56 17.56 0 00-.16-.004.936.936 0 00-.487.132c0-.667.438-1.32 1.315-1.954l-.338-.272a5.81 5.81 0 00-.295-.222c-1.104.783-1.656 1.72-1.656 2.81 0 .209.029.408.087.598.058.19.142.359.254.505.111.146.25.262.417.348.167.085.36.128.578.128zm5.245-1.405c.324 0 .63-.061.915-.184a2.396 2.396 0 001.263-1.252c.124-.286.187-.593.187-.922 0-.325-.063-.63-.188-.915a2.438 2.438 0 00-1.262-1.263 2.25 2.25 0 00-.915-.187c-.33 0-.637.062-.922.187a2.396 2.396 0 00-1.252 1.263c-.123.285-.185.59-.185.915 0 .329.062.636.185.921a2.376 2.376 0 001.252 1.253c.285.123.592.184.922.184zm0-1.134c-.167 0-.325-.032-.473-.097a1.259 1.259 0 01-.654-.654 1.192 1.192 0 010-.95 1.248 1.248 0 01.654-.657 1.192 1.192 0 01.95 0 1.248 1.248 0 01.657.657 1.192 1.192 0 010 .95 1.259 1.259 0 01-.658.654c-.15.065-.31.097-.476.097zm6.887 1.134c.324 0 .63-.061.914-.184a2.396 2.396 0 001.263-1.252c.125-.286.188-.593.188-.922 0-.325-.063-.63-.188-.915a2.438 2.438 0 00-1.263-1.263 2.25 2.25 0 00-.914-.187c-.33 0-.637.062-.922.187a2.396 2.396 0 00-1.252 1.263c-.123.285-.185.59-.185.915 0 .329.062.636.185.921a2.376 2.376 0 001.252 1.253c.285.123.592.184.922.184zm0-1.134c-.167 0-.325-.032-.473-.097a1.259 1.259 0 01-.654-.654 1.192 1.192 0 010-.95 1.248 1.248 0 01.654-.657 1.192 1.192 0 01.95 0 1.248 1.248 0 01.657.657 1.192 1.192 0 010 .95 1.259 1.259 0 01-.658.654c-.15.065-.31.097-.476.097zm6.887 1.134c.324 0 .63-.061.914-.184a2.396 2.396 0 001.263-1.252c.125-.286.188-.593.188-.922 0-.325-.063-.63-.188-.915a2.438 2.438 0 00-1.263-1.263 2.25 2.25 0 00-.914-.187c-.33 0-.637.062-.922.187a2.396 2.396 0 00-1.252 1.263c-.123.285-.185.59-.185.915 0 .329.062.636.185.921a2.376 2.376 0 001.252 1.253c.285.123.592.184.922.184zm0-1.134c-.167 0-.325-.032-.473-.097a1.259 1.259 0 01-.654-.654 1.192 1.192 0 010-.95 1.248 1.248 0 01.654-.657 1.192 1.192 0 01.95 0 1.248 1.248 0 01.657.657 1.192 1.192 0 010 .95 1.259 1.259 0 01-.658.654c-.15.065-.31.097-.476.097zm6.024 2.54a1.253 1.253 0 00.803-.293c.11-.093.199-.202.268-.327a.957.957 0 00.119-.41v-.056a.926.926 0 00-.133-.494 1.038 1.038 0 00-.39-.362c-.157-.083-.284-.126-.382-.128a17.56 17.56 0 00-.16-.004.936.936 0 00-.487.132c0-.667.439-1.32 1.315-1.954l-.337-.272a5.81 5.81 0 00-.296-.222c-1.104.783-1.656 1.72-1.656 2.81 0 .209.03.408.087.598.058.19.143.359.254.505.112.146.25.262.418.348.167.085.359.128.577.128zm5.245-1.406c.325 0 .63-.061.915-.184a2.396 2.396 0 001.263-1.252c.125-.286.187-.593.187-.922 0-.325-.062-.63-.187-.915a2.438 2.438 0 00-1.263-1.263 2.25 2.25 0 00-.915-.187c-.33 0-.636.062-.922.187a2.396 2.396 0 00-1.252 1.263c-.123.285-.184.59-.184.915 0 .329.061.636.184.921a2.376 2.376 0 001.252 1.253c.286.123.593.184.922.184zm0-1.134c-.167 0-.324-.032-.473-.097a1.259 1.259 0 01-.654-.654 1.192 1.192 0 010-.95 1.248 1.248 0 01.654-.657 1.192 1.192 0 01.95 0 1.248 1.248 0 01.657.657 1.192 1.192 0 010 .95 1.259 1.259 0 01-.657.654c-.151.065-.31.097-.477.097zm6.887 1.134c.325 0 .63-.061.915-.184a2.396 2.396 0 001.263-1.252c.125-.286.187-.593.187-.922 0-.325-.062-.63-.187-.915a2.438 2.438 0 00-1.263-1.263 2.25 2.25 0 00-.915-.187c-.33 0-.636.062-.922.187a2.396 2.396 0 00-1.252 1.263c-.123.285-.184.59-.184.915 0 .329.061.636.184.921a2.376 2.376 0 001.252 1.253c.286.123.593.184.922.184zm0-1.134c-.167 0-.324-.032-.473-.097a1.259 1.259 0 01-.654-.654 1.192 1.192 0 010-.95 1.248 1.248 0 01.654-.657 1.192 1.192 0 01.95 0 1.248 1.248 0 01.657.657 1.192 1.192 0 010 .95 1.259 1.259 0 01-.657.654c-.151.065-.31.097-.477.097zm6.887 1.134c.325 0 .63-.061.915-.184a2.396 2.396 0 001.263-1.252c.125-.286.187-.593.187-.922 0-.325-.062-.63-.187-.915a2.438 2.438 0 00-1.263-1.263 2.25 2.25 0 00-.915-.187c-.33 0-.636.062-.922.187a2.396 2.396 0 00-1.252 1.263c-.123.285-.184.59-.184.915 0 .329.061.636.184.921a2.376 2.376 0 001.252 1.253c.286.123.593.184.922.184zm0-1.134c-.167 0-.325-.032-.473-.097a1.259 1.259 0 01-.654-.654 1.192 1.192 0 010-.95 1.248 1.248 0 01.654-.657 1.192 1.192 0 01.95 0 1.248 1.248 0 01.657.657 1.192 1.192 0 010 .95 1.259 1.259 0 01-.657.654c-.151.065-.31.097-.477.097zm-78.56-5.127l1.127-1.127-1.14-1.14-1.128 1.133 1.141 1.134zm2.852.014l1.127-1.134-1.14-1.134-1.128 1.127 1.141 1.141zm-3.033 7.66c.38 0 .748-.026 1.103-.077.355-.051.68-.14.977-.265.297-.125.56-.292.79-.5.23-.21.414-.471.553-.787.139-.32.209-.69.209-1.113 0-.074-.003-.148-.007-.222-.033-.515-.153-1.109-.362-1.781a9.033 9.033 0 00-.223-.644 14.062 14.062 0 00-.382-.897 1.713 1.713 0 01-.063-.143l-1.238.613.605 1.488c.097.237.172.463.223.678.05.216.08.385.09.508.01.123.014.215.014.275 0 .111-.007.216-.02.313a1.35 1.35 0 01-.105.369 1.089 1.089 0 01-.39.455c-.167.11-.36.192-.577.247-.218.056-.455.09-.71.101-.255.012-.517.018-.786.018h-1.342v1.363h1.641zm-7.895 4.883a8.524 8.524 0 001.965-.557 7.19 7.19 0 001.725-1.016 6.198 6.198 0 001.322-1.45 5.255 5.255 0 00.755-1.86h.765v-1.364h-.661a6.622 6.622 0 00-.376-2.02 5.342 5.342 0 00-.403-.881 4.395 4.395 0 00-.529-.738c-.552-.593-1.157-.89-1.816-.89a1.77 1.77 0 00-.859.226 2.61 2.61 0 00-.768.664c-.195.25-.364.549-.508.894a3.926 3.926 0 00-.275.926c-.04.27-.06.495-.06.67 0 .186.017.372.05.557.055.353.19.664.403.933.482.598 1.227.927 2.233.987.255.024.484.035.685.035h.79c-.051.348-.194.702-.428 1.061-.234.36-.553.7-.956 1.02-.404.32-.889.607-1.454.862a8.976 8.976 0 01-1.92.598l.32 1.343zm3.755-6.261h-.048c-.204 0-.422-.007-.653-.021a3.506 3.506 0 01-.296-.031 2.472 2.472 0 01-.348-.077 1.635 1.635 0 01-.334-.139.819.819 0 01-.26-.226.651.651 0 01-.143-.33 2.434 2.434 0 01-.025-.31 3.16 3.16 0 01.153-.908c.065-.202.145-.384.24-.546.095-.162.203-.296.324-.4a.577.577 0 01.382-.157c.084 0 .163.014.237.042.074.028.145.064.212.108s.13.093.188.146c.058.053.11.103.156.15.116.134.229.293.338.476.109.183.207.389.296.616.088.227.16.473.215.737.056.265.09.545.105.842-.181.014-.345.022-.49.024-.147.003-.246.004-.297.004h.048zm-12.722 1.377c.283 0 .55-.014.8-.042.25-.027.487-.08.71-.16.222-.078.432-.192.629-.34.197-.149.386-.346.567-.592.213.158.445.312.695.463.25.15.512.278.783.382a3.005 3.005 0 001.123.227c.19 0 .38-.026.57-.077a1.66 1.66 0 00.766-.449c.209-.215.373-.468.494-.758.12-.29.195-.555.223-.796.027-.242.041-.436.041-.585 0-.167-.011-.33-.034-.487a4.21 4.21 0 00-.247-.918 2.864 2.864 0 00-.477-.807c-.2-.236-.44-.428-.72-.574a2.071 2.071 0 00-.97-.219c-.306 0-.574.061-.804.184-.23.123-.433.283-.612.48a3.668 3.668 0 00-.48.675c-.141.253-.275.51-.4.769-.144.287-.286.567-.428.838a3.398 3.398 0 01-.5.724c-.193.21-.426.38-.7.507-.273.128-.617.192-1.03.192h-.138v1.363h.139zm5.287-1.447c-.186 0-.395-.046-.626-.139-.348-.139-.733-.364-1.155-.675l.375-.758c.116-.227.22-.424.31-.591a3.74 3.74 0 01.257-.418.985.985 0 01.244-.247.466.466 0 01.26-.08c.14 0 .263.028.37.084.106.056.199.126.278.212.078.086.146.18.201.285a2.264 2.264 0 01.216.567c.019.08.03.135.035.167.018.125.028.246.028.362a2.082 2.082 0 01-.129.703c-.053.139-.117.252-.191.34a.444.444 0 01-.23.16 1.003 1.003 0 01-.243.028zm-5.148 1.447V90.17h-.14a2.77 2.77 0 01-.754-.09c-.211-.061-.37-.145-.477-.251a.58.58 0 01-.184-.358 3.758 3.758 0 01-.024-.442v-3.492a48.553 48.553 0 00-.066-2.546c-.021-.404-.047-.777-.077-1.12-.03-.344-.066-.633-.108-.87l-1.363.25c.041.218.077.498.108.839.03.34.055.713.076 1.116.021.404.036.821.045 1.252.01.432.014.847.014 1.246.005.408.007.795.007 1.161 0 .371-.002.7-.007.988a211.374 211.374 0 00-.014 1.037c0 .111.003.244.007.4a2.686 2.686 0 00.247 1.012c.081.176.198.34.352.494.25.25.555.436.914.556.36.12.795.181 1.305.181h.139zm-10.115-3.36l1.134-1.134-1.141-1.14-1.134 1.133 1.141 1.141zm-.306 8.14c.57 0 1.112-.061 1.624-.182.513-.12.98-.304 1.402-.553a4.23 4.23 0 001.11-.942c.317-.38.564-.833.74-1.357.167-.5.258-.9.272-1.2.014-.299.02-.5.02-.601a7.175 7.175 0 00-.392-2.362 11.15 11.15 0 00-.397-1.016 7.888 7.888 0 00-.525-.991l-1.155.737c.005 0 .048.069.129.205.08.137.175.325.281.564.107.239.215.52.324.842a6.615 6.615 0 01.344 2.118v.083c-.009.404-.076.805-.201 1.204a2.69 2.69 0 01-.46.873 2.733 2.733 0 01-.758.654 3.688 3.688 0 01-1.05.407c-.4.093-.844.139-1.336.139a3.94 3.94 0 01-1.054-.129 3.297 3.297 0 01-.807-.334 2.716 2.716 0 01-.588-.462 3.029 3.029 0 01-.403-.526 2.535 2.535 0 01-.24-.514 2.744 2.744 0 01-.108-.435 4.08 4.08 0 01-.035-.821c.014-.278.046-.552.094-.82.049-.27.11-.528.185-.776.074-.249.151-.477.233-.686.08-.208.16-.39.24-.546a2.8 2.8 0 01.208-.358l-1.106-.814c-.19.315-.372.667-.546 1.054-.174.387-.32.796-.438 1.228a6.484 6.484 0 00-.22 1.123 6.142 6.142 0 00.02 1.61c.094.608.274 1.137.54 1.587.267.45.602.822 1.006 1.116.403.295.864.515 1.38.661.518.146 1.073.22 1.667.22z" fill-opacity=".87" fill="red" fill-rule="nonzero"/><path d="M335.336 87.837V86.81H332v1.028h3.336zm6.963 3.72L345.921 82h-1.351l-3.61 9.557h1.34zm-.718-6.86l1.23-1.224-1.236-1.236-1.23 1.224 1.236 1.236zm3.84 6.817l1.23-1.224-1.235-1.235-1.23 1.223 1.236 1.236zm4.931-1.2c.284 0 .551-.053.8-.16a2.096 2.096 0 001.105-1.096c.11-.25.165-.519.165-.807 0-.284-.055-.55-.165-.8a2.133 2.133 0 00-1.104-1.105 1.97 1.97 0 00-.8-.164c-.289 0-.558.055-.807.164a2.096 2.096 0 00-1.096 1.105c-.108.25-.161.516-.161.8 0 .288.053.557.161.807a2.08 2.08 0 001.096 1.095c.25.108.518.162.806.162zm0-.991c-.146 0-.284-.029-.414-.086a1.101 1.101 0 01-.572-.572 1.043 1.043 0 010-.83 1.092 1.092 0 01.572-.576 1.043 1.043 0 01.83 0 1.092 1.092 0 01.576.575 1.043 1.043 0 010 .831 1.101 1.101 0 01-.575.572c-.132.057-.27.086-.417.086zm4.827 2.227c.26 0 .465-.073.615-.219a.725.725 0 00.207-.535c0-.236-.07-.424-.207-.566-.146-.15-.351-.226-.615-.226-.26 0-.46.075-.602.226-.134.142-.201.33-.201.566 0 .223.067.401.2.535.143.146.343.22.603.22zm5.168-1.235c.284 0 .55-.054.8-.162a2.096 2.096 0 001.105-1.096c.11-.249.165-.518.165-.806 0-.284-.055-.55-.165-.8a2.133 2.133 0 00-1.105-1.105 1.97 1.97 0 00-.8-.164c-.288 0-.557.055-.807.164a2.096 2.096 0 00-1.095 1.105c-.108.25-.162.516-.162.8 0 .288.054.557.162.807a2.08 2.08 0 001.095 1.095c.25.108.519.162.807.162zm0-.992c-.146 0-.284-.029-.414-.086a1.101 1.101 0 01-.572-.572 1.043 1.043 0 010-.83 1.092 1.092 0 01.572-.576 1.043 1.043 0 01.83 0 1.092 1.092 0 01.576.575 1.043 1.043 0 010 .831 1.101 1.101 0 01-.575.572c-.132.057-.271.086-.417.086zm5.91 2.343c0-.828-.013-1.658-.04-2.49a19.43 19.43 0 00-.24-2.489 2.051 2.051 0 00.761.122c.159 0 .313-.015.463-.043.15-.028.292-.075.426-.14a1.487 1.487 0 00.676-.67c.101.147.209.268.322.366a1.525 1.525 0 001.017.377c.32 0 .595-.06.825-.18.229-.12.414-.285.556-.496a1.99 1.99 0 00.296-.693 3.538 3.538 0 00.076-.962 17.397 17.397 0 00-.061-.813 11.536 11.536 0 00-.14-.97l-1.138.225c.065.353.104.654.118.903.015.25.022.466.022.649 0 .093-.004.204-.013.331-.008.128-.029.251-.063.369a.762.762 0 01-.165.301.4.4 0 01-.313.125.35.35 0 01-.265-.122 1.128 1.128 0 01-.198-.316 2.607 2.607 0 01-.143-.436 6.88 6.88 0 01-.158-.922l-.034-.335a6.576 6.576 0 00-.033-.325 3.794 3.794 0 01-.028-.356l-1.205.146c.004.024.01.088.019.191a25.76 25.76 0 01.043.922 5.68 5.68 0 01-.04.485 2.397 2.397 0 01-.131.547 1.316 1.316 0 01-.271.45.6.6 0 01-.46.186c-.182 0-.332-.023-.45-.07a.806.806 0 01-.314-.228 1.844 1.844 0 01-.258-.414 21.16 21.16 0 01-.286-.633l-.287-.615-.308-.617-.057-.11a3.939 3.939 0 00-.097-.18l-1.102.652c.093.146.18.3.259.462.079.163.165.356.259.579.328.844.572 1.793.73 2.848.158 1.055.237 2.173.237 3.354 0 .163 0 .333-.003.512-.002.178-.007.353-.015.523h1.211z" fill="red" fill-rule="nonzero"/><path d="M592.003 92.435c.38 0 .748-.026 1.103-.077.355-.05.68-.139.977-.264.297-.125.56-.292.79-.501.23-.209.414-.47.553-.786.14-.32.209-.691.209-1.113 0-.074-.003-.148-.007-.223-.033-.514-.153-1.108-.362-1.78a9.033 9.033 0 00-.223-.644 14.062 14.062 0 00-.382-.897 1.712 1.712 0 01-.063-.143l-1.238.612.605 1.489c.098.236.172.462.223.678.05.216.081.385.09.508.01.123.014.214.014.275 0 .111-.007.215-.02.313a1.35 1.35 0 01-.105.368 1.089 1.089 0 01-.39.456c-.167.11-.359.191-.577.247-.218.056-.454.09-.71.1-.255.013-.517.018-.786.018h-1.342v1.364h1.641zm2.65 3.624l1.142-1.14-1.127-1.128-1.141 1.141 1.127 1.127zm-3.04.014l1.142-1.14-1.127-1.135-1.141 1.141 1.127 1.134zm1.552 1.99l1.037-1.037-1.03-1.03-1.036 1.037 1.03 1.03zm-5.544-13.573l1.03-1.03-1.037-1.036-1.03 1.03 1.037 1.036zm-1.572 2.199l1.127-1.134-1.141-1.141-1.127 1.134 1.14 1.14zm3.054.007l1.127-1.127-1.141-1.141-1.127 1.127 1.14 1.14zm-4.508 10.873a12.712 12.712 0 001.704-1.03 9.084 9.084 0 001.471-1.304 6.295 6.295 0 001.033-1.541c.26-.552.39-1.132.39-1.74v-.027c.116.125.238.223.365.292a1.686 1.686 0 00.713.209c.102.004.186.007.25.007h.119V91.07h-.111c-.232 0-.444-.055-.637-.167a1.88 1.88 0 01-.553-.525 4.913 4.913 0 01-.515-.925 15.038 15.038 0 01-.514-1.374l-1.308.403c.055.172.123.387.201.644.08.257.158.532.237.824.079.292.152.59.22.894.066.304.116.588.149.852a2.596 2.596 0 01-.077.94c-.083.31-.21.61-.379.897-.17.287-.377.562-.623.824a8.04 8.04 0 01-.807.748 9.486 9.486 0 01-.932.664c-.329.207-.66.396-.994.567l.598 1.232zm-6.393-.25a8.398 8.398 0 001.405-.345c.46-.155.896-.348 1.311-.577.415-.23.803-.498 1.162-.804a5.91 5.91 0 00.95-1.023c.273-.375.498-.784.674-1.227.177-.443.29-.92.341-1.43a6.441 6.441 0 00.007-1.266 6.891 6.891 0 00-.23-1.217 5.77 5.77 0 00-.434-1.096 4.275 4.275 0 00-.623-.901c-.552-.594-1.157-.89-1.815-.89a1.77 1.77 0 00-.86.226 2.61 2.61 0 00-.768.664c-.195.25-.364.548-.508.894a3.926 3.926 0 00-.275.925c-.04.271-.059.495-.059.671 0 .186.016.371.049.557.055.352.19.663.403.932.482.598 1.227.928 2.233.988.255.023.484.035.685.035h.79c-.051.348-.194.701-.428 1.06-.234.36-.553.7-.956 1.02-.404.32-.888.607-1.454.862a8.976 8.976 0 01-1.92.599l.32 1.342zm3.755-6.262h-.047c-.204 0-.422-.007-.654-.02a3.506 3.506 0 01-.296-.032 2.472 2.472 0 01-.348-.076 1.635 1.635 0 01-.334-.14.819.819 0 01-.26-.226.651.651 0 01-.143-.33 2.434 2.434 0 01-.025-.31 3.16 3.16 0 01.153-.908c.065-.201.145-.383.24-.545.096-.163.203-.296.324-.4a.577.577 0 01.383-.157c.083 0 .162.014.236.042.074.028.145.064.212.108.068.044.13.092.188.146.058.053.11.103.157.15.116.134.228.293.337.476.109.183.208.388.296.615.088.228.16.473.215.738.056.264.09.545.105.842-.181.013-.345.022-.49.024l-.296.003h.047zm-28.994 1.517c0-.404-.003-.83-.01-1.277a46.008 46.008 0 00-.125-2.747c-.035-.462-.08-.91-.136-1.347l-.055-.382c.176.07.353.12.532.15.178.03.379.045.601.045.812 0 1.454-.286 1.927-.856.487-.566.74-1.384.759-2.456v-.18c0-.121-.003-.24-.007-.355a9.205 9.205 0 00-.035-.449 5.19 5.19 0 00-.042-.32 1.871 1.871 0 01-.02-.136l-1.364.25a6.148 6.148 0 01.097 1.037c0 .153-.007.311-.02.473-.015.163-.039.32-.074.473-.034.153-.08.298-.135.435a1.282 1.282 0 01-.216.358c-.195.237-.485.355-.87.355a1.67 1.67 0 01-.657-.115 1.42 1.42 0 01-.473-.33 2.29 2.29 0 01-.362-.511 9.56 9.56 0 01-.316-.665 28.91 28.91 0 01-.216-.48 15.462 15.462 0 00-.379-.803 5.205 5.205 0 00-.205-.365l-1.162.737c.14.241.264.475.376.703a9.513 9.513 0 01.803 2.452c.118.628.208 1.287.268 1.975.06.69.097 1.399.111 2.13.014.73.021 1.464.021 2.2h1.384zm8.014-1.551c.325 0 .63-.062.915-.185a2.396 2.396 0 001.263-1.252c.125-.285.188-.592.188-.922 0-.324-.063-.63-.188-.914a2.438 2.438 0 00-1.263-1.263 2.25 2.25 0 00-.915-.188c-.329 0-.636.063-.921.188a2.396 2.396 0 00-1.253 1.263c-.122.285-.184.59-.184.914 0 .33.062.637.184.922a2.376 2.376 0 001.253 1.252c.285.123.592.185.921.185zm0-1.134c-.167 0-.324-.033-.473-.098a1.259 1.259 0 01-.654-.654 1.192 1.192 0 010-.95 1.248 1.248 0 01.654-.657c.149-.064.306-.097.473-.097a1.248 1.248 0 011.134.755 1.192 1.192 0 010 .95 1.259 1.259 0 01-.657.653c-.15.065-.31.098-.477.098zm5.364 2.65a2.5 2.5 0 00.08-.212c.049-.137.12-.318.216-.543.095-.225.214-.484.358-.779.144-.294.314-.602.511-.922.197-.32.421-.644.671-.973.25-.33.53-.642.839-.936a6.892 6.892 0 011.015-.8 5.25 5.25 0 011.2-.574l.501-.167-.403-1.315c-.051.014-.12.035-.206.063l-.323.104c-.134.042-.294.088-.48.14a8.955 8.955 0 01-1.231.24 4.885 4.885 0 01-.592.038h-.09c-.148 0-.303-.019-.463-.056a1.568 1.568 0 01-.441-.174 1.02 1.02 0 01-.33-.306.78.78 0 01-.13-.452c0-.227.056-.435.167-.623.112-.188.256-.349.432-.483.176-.135.377-.24.601-.317.225-.076.451-.115.679-.115.2 0 .409.03.63.09.22.061.448.165.685.314l.702-1.197c-.663-.39-1.336-.584-2.017-.584-.26 0-.52.031-.78.094a3.638 3.638 0 00-1.429.706 3.028 3.028 0 00-.55.58 2.72 2.72 0 00-.365.707 2.497 2.497 0 00-.132.82c0 .344.06.651.177.923.119.27.285.504.498.699.213.194.465.353.755.476s.608.208.956.254a9.168 9.168 0 00-.82.898 13.02 13.02 0 00-.759 1.043 14.37 14.37 0 00-1.043 1.9 9.815 9.815 0 00-.404 1.022l1.315.417z" fill-opacity=".87" fill="#000000" fill-rule="nonzero"/><g><path fill-opacity=".12" fill="#000000" d="M108 158.5h488v1H108z"/><path d="M153.544 139.68c0-.403-.003-.827-.01-1.272a46.022 46.022 0 00-.125-2.748c-.035-.464-.08-.914-.136-1.35a15.886 15.886 0 00-.58-2.723 9.204 9.204 0 00-.95-2.104l-1.155.737c.348.547.625 1.178.831 1.892.207.714.365 1.482.477 2.303.111.82.183 1.677.215 2.57.033.893.049 1.792.049 2.696h1.384zm4.216-.048c0-.946-.015-1.894-.045-2.845-.03-.95-.122-1.9-.275-2.845a2.345 2.345 0 00.87.139c.18 0 .357-.016.528-.049.172-.032.334-.086.487-.16a1.699 1.699 0 00.772-.765c.116.167.24.306.37.417a1.743 1.743 0 001.16.432c.367 0 .681-.069.943-.206.262-.136.475-.325.637-.567.162-.24.275-.505.337-.793a4.044 4.044 0 00.087-1.099 19.882 19.882 0 00-.07-.928 13.184 13.184 0 00-.16-1.11l-1.3.257c.074.404.12.748.136 1.033.016.286.024.533.024.741 0 .107-.005.233-.014.38-.01.146-.034.286-.073.42a.871.871 0 01-.188.345.458.458 0 01-.358.142.4.4 0 01-.303-.139 1.289 1.289 0 01-.226-.362 2.98 2.98 0 01-.163-.497 7.864 7.864 0 01-.181-1.054 52.653 52.653 0 01-.038-.382 7.514 7.514 0 00-.039-.373 4.336 4.336 0 01-.031-.407l-1.377.167a13.73 13.73 0 01.045.605 29.46 29.46 0 01.024.668c-.005.153-.02.338-.045.553a2.74 2.74 0 01-.15.627 1.504 1.504 0 01-.31.514.685.685 0 01-.524.212c-.21 0-.38-.026-.515-.08a.92.92 0 01-.358-.26 2.107 2.107 0 01-.296-.473 24.182 24.182 0 01-.327-.724l-.327-.703-.143-.285-.142-.285c-.047-.093-.09-.18-.132-.26a4.5 4.5 0 00-.112-.206l-1.259.744c.107.167.205.343.296.529.09.186.189.406.295.66.376.966.654 2.05.835 3.257.181 1.205.272 2.483.272 3.833 0 .185-.002.38-.004.584a16.53 16.53 0 01-.017.598h1.384zm8.62-.028a2.5 2.5 0 00.08-.212c.048-.137.12-.318.215-.542.095-.225.214-.485.358-.78.144-.294.314-.601.511-.921.197-.32.421-.645.672-.974.25-.33.53-.641.838-.936a6.892 6.892 0 011.016-.8 5.25 5.25 0 011.2-.574l.5-.167-.403-1.315c-.051.014-.12.035-.205.063l-.324.104c-.134.042-.294.089-.48.14a8.955 8.955 0 01-1.231.24 4.885 4.885 0 01-.591.038h-.09c-.15 0-.303-.019-.463-.056a1.568 1.568 0 01-.442-.174 1.02 1.02 0 01-.33-.306.78.78 0 01-.13-.452c0-.227.056-.435.168-.623.111-.187.255-.349.431-.483.176-.135.377-.24.602-.317.225-.076.45-.114.678-.114.2 0 .41.03.63.09.22.06.448.165.685.313l.702-1.196c-.663-.39-1.335-.585-2.017-.585-.26 0-.52.032-.78.094a3.638 3.638 0 00-1.429.706 3.028 3.028 0 00-.55.581 2.72 2.72 0 00-.364.706 2.497 2.497 0 00-.133.821c0 .343.06.65.178.922.118.271.284.504.497.699.213.195.465.354.755.476.29.123.609.208.956.254a9.168 9.168 0 00-.82.898 13.02 13.02 0 00-.759 1.043 14.37 14.37 0 00-1.043 1.9c-.116.254-.207.47-.271.646l-.068.187c-.03.082-.05.144-.065.189l1.315.417zm8.84-.111a1.253 1.253 0 00.804-.292c.11-.093.199-.202.268-.327a.957.957 0 00.118-.41v-.056a.926.926 0 00-.132-.494 1.038 1.038 0 00-.39-.362c-.157-.083-.285-.126-.382-.129l-.16-.003a.936.936 0 00-.487.132c0-.668.438-1.32 1.315-1.955l-.337-.27a5.81 5.81 0 00-.296-.224c-1.104.784-1.656 1.721-1.656 2.81 0 .21.03.409.087.6.058.19.143.357.254.504.111.146.25.262.417.347.167.086.36.129.578.129zm5.246-1.405c.325 0 .63-.062.915-.185a2.396 2.396 0 001.263-1.252c.125-.285.187-.592.187-.921 0-.325-.062-.63-.188-.915a2.438 2.438 0 00-1.262-1.263 2.25 2.25 0 00-.915-.188c-.33 0-.636.063-.922.188a2.396 2.396 0 00-1.252 1.263c-.123.285-.184.59-.184.915 0 .329.061.636.184.921a2.376 2.376 0 001.252 1.252c.286.123.593.185.922.185zm0-1.134c-.167 0-.325-.033-.473-.097a1.259 1.259 0 01-.654-.654 1.192 1.192 0 010-.95 1.248 1.248 0 01.654-.657 1.192 1.192 0 01.95 0 1.248 1.248 0 01.657.657 1.192 1.192 0 010 .95 1.259 1.259 0 01-.657.654c-.151.064-.31.097-.477.097zm6.887 1.134c.325 0 .63-.062.915-.185a2.396 2.396 0 001.263-1.252c.125-.285.187-.592.187-.921 0-.325-.062-.63-.188-.915a2.438 2.438 0 00-1.262-1.263 2.25 2.25 0 00-.915-.188c-.33 0-.636.063-.922.188a2.396 2.396 0 00-1.252 1.263c-.123.285-.184.59-.184.915 0 .329.061.636.184.921a2.376 2.376 0 001.252 1.252c.286.123.593.185.922.185zm0-1.134c-.167 0-.325-.033-.473-.097a1.259 1.259 0 01-.654-.654 1.192 1.192 0 010-.95 1.248 1.248 0 01.654-.657 1.192 1.192 0 01.95 0 1.248 1.248 0 01.657.657 1.192 1.192 0 010 .95 1.259 1.259 0 01-.657.654c-.151.064-.31.097-.477.097zm6.887 1.134c.325 0 .63-.062.915-.185a2.396 2.396 0 001.263-1.252c.125-.285.187-.592.187-.921 0-.325-.062-.63-.188-.915a2.438 2.438 0 00-1.262-1.263 2.25 2.25 0 00-.915-.188c-.33 0-.637.063-.922.188a2.396 2.396 0 00-1.252 1.263c-.123.285-.184.59-.184.915 0 .329.061.636.184.921a2.376 2.376 0 001.252 1.252c.285.123.593.185.922.185zm0-1.134c-.167 0-.325-.033-.473-.097a1.259 1.259 0 01-.654-.654 1.192 1.192 0 010-.95 1.248 1.248 0 01.654-.657 1.192 1.192 0 01.95 0 1.248 1.248 0 01.657.657 1.192 1.192 0 010 .95 1.259 1.259 0 01-.657.654c-.151.064-.31.097-.477.097zm6.024 2.539a1.253 1.253 0 00.804-.292c.109-.093.198-.202.268-.327a.957.957 0 00.118-.41v-.056a.926.926 0 00-.132-.494 1.038 1.038 0 00-.39-.362c-.158-.083-.285-.126-.382-.129l-.16-.003a.936.936 0 00-.487.132c0-.668.438-1.32 1.314-1.955l-.337-.27a5.81 5.81 0 00-.296-.224c-1.103.784-1.655 1.721-1.655 2.81 0 .21.029.409.087.6.058.19.142.357.254.504.11.146.25.262.417.347.167.086.36.129.577.129zm5.246-1.405c.324 0 .63-.062.914-.185a2.396 2.396 0 001.263-1.252c.125-.285.188-.592.188-.921 0-.325-.063-.63-.188-.915a2.438 2.438 0 00-1.263-1.263 2.25 2.25 0 00-.914-.188c-.33 0-.637.063-.922.188a2.396 2.396 0 00-1.252 1.263c-.123.285-.185.59-.185.915 0 .329.062.636.185.921a2.376 2.376 0 001.252 1.252c.285.123.592.185.922.185zm0-1.134c-.167 0-.325-.033-.473-.097a1.259 1.259 0 01-.654-.654 1.192 1.192 0 010-.95 1.248 1.248 0 01.654-.657 1.192 1.192 0 01.95 0 1.248 1.248 0 01.656.657 1.192 1.192 0 010 .95 1.259 1.259 0 01-.657.654c-.15.064-.31.097-.476.097zm6.887 1.134c.324 0 .63-.062.914-.185a2.396 2.396 0 001.263-1.252c.125-.285.188-.592.188-.921 0-.325-.063-.63-.188-.915a2.438 2.438 0 00-1.263-1.263 2.25 2.25 0 00-.914-.188c-.33 0-.637.063-.922.188a2.396 2.396 0 00-1.252 1.263c-.123.285-.185.59-.185.915 0 .329.062.636.185.921a2.376 2.376 0 001.252 1.252c.285.123.592.185.922.185zm0-1.134c-.167 0-.325-.033-.474-.097a1.259 1.259 0 01-.653-.654 1.192 1.192 0 010-.95 1.248 1.248 0 01.653-.657 1.192 1.192 0 01.95 0 1.248 1.248 0 01.657.657 1.192 1.192 0 010 .95 1.259 1.259 0 01-.657.654c-.15.064-.31.097-.476.097zm6.886 1.134c.325 0 .63-.062.915-.185a2.396 2.396 0 001.263-1.252c.125-.285.188-.592.188-.921 0-.325-.063-.63-.188-.915a2.438 2.438 0 00-1.263-1.263 2.25 2.25 0 00-.915-.188c-.329 0-.636.063-.921.188a2.396 2.396 0 00-1.252 1.263c-.123.285-.185.59-.185.915 0 .329.062.636.185.921a2.376 2.376 0 001.252 1.252c.285.123.592.185.921.185zm0-1.134c-.166 0-.324-.033-.473-.097a1.259 1.259 0 01-.653-.654 1.192 1.192 0 010-.95 1.248 1.248 0 01.653-.657 1.192 1.192 0 01.95 0 1.248 1.248 0 01.657.657 1.192 1.192 0 010 .95 1.259 1.259 0 01-.657.654c-.15.064-.31.097-.477.097zm-78.56-5.127l1.127-1.127-1.14-1.14-1.127 1.133 1.14 1.134zm2.853.014l1.127-1.134-1.141-1.134-1.127 1.127 1.14 1.14zm-3.033 7.659c.38 0 .747-.026 1.102-.077.355-.05.68-.139.978-.264.296-.125.56-.292.79-.5.229-.21.413-.471.552-.787.14-.32.209-.69.209-1.113 0-.074-.002-.148-.007-.222-.033-.515-.153-1.109-.362-1.781a9.033 9.033 0 00-.222-.644 14.062 14.062 0 00-.383-.897 1.713 1.713 0 01-.063-.143l-1.238.612.605 1.489c.098.237.172.463.223.678.051.216.081.385.09.508.01.123.014.215.014.275 0 .111-.007.216-.02.313a1.35 1.35 0 01-.105.369 1.089 1.089 0 01-.39.455c-.166.11-.359.192-.577.247-.218.056-.454.09-.71.101-.255.012-.517.018-.786.018h-1.342v1.363h1.642zm-7.896 4.883a8.524 8.524 0 001.965-.556 7.19 7.19 0 001.725-1.016 6.198 6.198 0 001.322-1.45 5.255 5.255 0 00.755-1.861h.765v-1.363h-.66a6.622 6.622 0 00-.376-2.02 5.342 5.342 0 00-.404-.881 4.395 4.395 0 00-.529-.738c-.551-.593-1.157-.89-1.815-.89a1.77 1.77 0 00-.86.226 2.61 2.61 0 00-.768.664c-.195.25-.364.549-.508.894a3.926 3.926 0 00-.275.925c-.04.272-.059.495-.059.672 0 .185.016.37.049.556.056.353.19.663.403.932.483.599 1.227.928 2.233.988.256.023.484.035.686.035h.79c-.052.348-.194.701-.429 1.06-.234.36-.553.7-.956 1.02-.404.32-.888.608-1.454.863a8.976 8.976 0 01-1.92.598l.32 1.342zm3.755-6.26h-.047c-.204 0-.422-.007-.654-.021a3.506 3.506 0 01-.296-.032 2.472 2.472 0 01-.348-.076 1.635 1.635 0 01-.334-.14.819.819 0 01-.26-.225.651.651 0 01-.143-.33 2.434 2.434 0 01-.024-.31c0-.102.007-.207.02-.313a3.16 3.16 0 01.133-.595c.065-.202.145-.384.24-.546.095-.163.203-.296.323-.4a.577.577 0 01.383-.157c.083 0 .162.014.236.042.075.028.145.064.212.108.068.044.13.093.188.146.058.053.11.103.157.15.116.134.228.293.337.476.11.183.208.388.296.616.088.227.16.473.216.737.055.264.09.545.104.842-.181.014-.344.022-.49.024l-.296.004h.047zM123.68 139.5c.283 0 .55-.014.8-.042.25-.028.487-.08.71-.16.222-.079.432-.192.63-.34.196-.149.385-.346.566-.592.213.158.445.312.696.463.25.15.511.278.782.382a3.005 3.005 0 001.124.226c.19 0 .38-.025.57-.076a1.66 1.66 0 00.765-.449c.21-.215.374-.468.494-.758.121-.29.195-.555.223-.797.028-.24.042-.436.042-.584 0-.167-.012-.33-.035-.487a4.21 4.21 0 00-.247-.918 2.864 2.864 0 00-.477-.807c-.199-.237-.439-.428-.72-.574a2.071 2.071 0 00-.97-.22c-.306 0-.574.062-.803.185-.23.123-.434.283-.613.48a3.668 3.668 0 00-.48.675c-.141.253-.274.509-.4.769-.143.287-.286.567-.427.838a3.398 3.398 0 01-.501.723c-.193.211-.426.38-.7.508-.273.128-.616.192-1.029.192h-.14v1.363h.14zm5.287-1.447c-.186 0-.394-.046-.626-.14-.348-.138-.733-.363-1.155-.674l.376-.758c.116-.227.219-.424.31-.591a3.74 3.74 0 01.257-.418.985.985 0 01.243-.247.466.466 0 01.261-.08c.14 0 .262.028.369.084.106.055.2.126.278.212.079.086.146.18.202.285a2.264 2.264 0 01.215.567c.019.079.03.135.035.167.019.125.028.246.028.362a2.082 2.082 0 01-.129.703c-.053.138-.117.252-.191.34a.444.444 0 01-.23.16 1.003 1.003 0 01-.243.028zm-5.148 1.447v-1.363h-.139a2.77 2.77 0 01-.755-.09c-.21-.061-.37-.145-.476-.251a.58.58 0 01-.185-.359 3.758 3.758 0 01-.024-.441v-3.493a48.553 48.553 0 00-.066-2.546c-.021-.403-.046-.776-.077-1.12-.03-.343-.066-.633-.107-.87l-1.364.251c.042.218.078.498.108.839.03.34.056.713.076 1.116.021.404.036.82.046 1.252.009.432.014.847.014 1.245.004.409.007.796.007 1.162 0 .371-.003.7-.007.988a211.402 211.402 0 00-.014 1.037c0 .11.002.244.007.4a2.686 2.686 0 00.247 1.012c.08.176.198.34.35.494.251.25.556.436.916.556.36.12.794.181 1.304.181h.14zm-10.115-3.36l1.134-1.134-1.14-1.14-1.135 1.133 1.141 1.141zm-.306 8.14c.57 0 1.112-.061 1.625-.182.512-.12.98-.305 1.401-.553a4.23 4.23 0 001.11-.942c.318-.38.565-.833.74-1.357.168-.5.258-.9.272-1.2.014-.299.021-.5.021-.602a7.175 7.175 0 00-.393-2.361 11.15 11.15 0 00-.397-1.016 7.888 7.888 0 00-.525-.991l-1.155.737c.005 0 .048.068.13.205.08.137.174.325.28.564.107.239.215.52.324.841a6.615 6.615 0 01.345 2.119v.083c-.01.404-.077.805-.202 1.204a2.69 2.69 0 01-.46.873 2.733 2.733 0 01-.757.654 3.688 3.688 0 01-1.05.407c-.4.092-.845.139-1.337.139a3.94 3.94 0 01-1.053-.129 3.297 3.297 0 01-.807-.334 2.716 2.716 0 01-.588-.462 3.029 3.029 0 01-.404-.526 2.535 2.535 0 01-.24-.514 2.744 2.744 0 01-.108-.435 4.08 4.08 0 01-.034-.821c.014-.278.045-.552.094-.821.048-.269.11-.528.184-.776s.152-.476.233-.685c.081-.209.161-.39.24-.546a2.8 2.8 0 01.209-.358l-1.106-.814c-.19.315-.373.667-.547 1.054-.173.387-.32.796-.438 1.228a6.484 6.484 0 00-.219 1.123 6.142 6.142 0 00.02 1.61c.094.608.273 1.137.54 1.587.267.45.602.822 1.005 1.116.404.295.864.515 1.381.661.517.146 1.073.22 1.666.22z" fill-opacity=".87" fill="#000000" fill-rule="nonzero"/><path d="M255.591 135.787v-1.029h-3.335v1.029h3.335zm6.964 3.72l3.622-9.557h-1.352l-3.61 9.556h1.34zm-.718-6.86l1.23-1.224-1.237-1.236-1.23 1.223 1.237 1.236zm3.84 6.816l1.23-1.223-1.236-1.236-1.23 1.224 1.236 1.235zm4.93-1.199c.285 0 .552-.053.801-.161a2.096 2.096 0 001.105-1.096c.11-.25.164-.518.164-.806 0-.284-.054-.551-.164-.8a2.133 2.133 0 00-1.105-1.105 1.97 1.97 0 00-.8-.165c-.288 0-.557.055-.807.165a2.096 2.096 0 00-1.095 1.104c-.108.25-.162.517-.162.8 0 .289.054.558.162.807a2.08 2.08 0 001.095 1.096c.25.108.519.161.807.161zm0-.992c-.145 0-.283-.028-.413-.085a1.101 1.101 0 01-.572-.572 1.043 1.043 0 010-.83 1.092 1.092 0 01.572-.576 1.043 1.043 0 01.83 0 1.092 1.092 0 01.576.575 1.043 1.043 0 010 .83 1.101 1.101 0 01-.575.573c-.132.057-.271.085-.417.085zm4.828 2.228c.26 0 .464-.073.615-.22a.725.725 0 00.207-.535c0-.235-.07-.424-.207-.566-.147-.15-.351-.225-.615-.225-.26 0-.46.075-.603.225-.134.142-.2.33-.2.566 0 .223.066.402.2.536.142.146.343.219.603.219zm5.168-1.236c.284 0 .55-.053.8-.161a2.096 2.096 0 001.105-1.096c.11-.25.164-.518.164-.806 0-.284-.055-.551-.164-.8a2.133 2.133 0 00-1.105-1.105 1.969 1.969 0 00-.8-.165c-.289 0-.557.055-.807.165a2.096 2.096 0 00-1.096 1.104c-.107.25-.16.517-.16.8 0 .289.053.558.16.807a2.08 2.08 0 001.096 1.096c.25.108.518.161.807.161zm0-.992c-.146 0-.284-.028-.414-.085a1.101 1.101 0 01-.572-.572 1.043 1.043 0 010-.83 1.092 1.092 0 01.572-.576 1.043 1.043 0 01.83 0 1.092 1.092 0 01.576.575 1.043 1.043 0 010 .83 1.101 1.101 0 01-.575.573c-.132.057-.271.085-.417.085zm5.91 2.344c0-.828-.013-1.658-.04-2.49a19.43 19.43 0 00-.24-2.49 2.051 2.051 0 00.76.122c.16 0 .313-.014.464-.042.15-.029.292-.075.426-.14a1.487 1.487 0 00.675-.67c.102.146.21.268.323.365a1.525 1.525 0 001.016.378c.321 0 .596-.06.825-.18.23-.12.415-.285.557-.496a1.99 1.99 0 00.295-.694 3.538 3.538 0 00.076-.962 17.397 17.397 0 00-.06-.812 11.536 11.536 0 00-.14-.971l-1.139.225c.065.353.105.654.119.904.014.25.021.466.021.648 0 .094-.004.204-.012.332-.008.128-.03.25-.064.368a.762.762 0 01-.164.302.4.4 0 01-.314.124.35.35 0 01-.264-.121 1.128 1.128 0 01-.198-.317 2.607 2.607 0 01-.143-.435 6.88 6.88 0 01-.159-.922l-.033-.335a6.575 6.575 0 00-.033-.326 3.794 3.794 0 01-.028-.356l-1.205.146a12.013 12.013 0 01.04.53 25.776 25.776 0 01.02.584 5.68 5.68 0 01-.039.484 2.397 2.397 0 01-.13.548 1.316 1.316 0 01-.272.45.6.6 0 01-.46.186c-.182 0-.332-.023-.45-.07a.806.806 0 01-.313-.228 1.844 1.844 0 01-.259-.414c-.08-.17-.176-.382-.286-.633l-.286-.615-.309-.617-.056-.11a3.938 3.938 0 00-.097-.18l-1.102.651c.093.146.18.3.258.463.08.162.166.355.26.578.328.844.571 1.794.73 2.849.158 1.055.237 2.173.237 3.354l-.003.511c-.002.179-.007.353-.015.524h1.211z" fill="red" fill-rule="nonzero"/><path d="M493.342 132.786l.986-.986-.998-.998-.987.992.999.992zm2.495.012l.986-.992-.998-.992-.986.986.998.998zm-2.654 6.702c.333 0 .655-.022.965-.067.31-.045.596-.122.855-.231.26-.11.49-.256.691-.439.201-.182.363-.411.484-.687.122-.28.183-.605.183-.974 0-.065-.002-.13-.006-.195-.029-.45-.134-.97-.317-1.558a7.904 7.904 0 00-.195-.563 12.303 12.303 0 00-.334-.786 1.498 1.498 0 01-.055-.124l-1.084.535.53 1.303a3.959 3.959 0 01.274 1.038c.008.107.012.187.012.24 0 .098-.006.189-.018.274-.02.13-.05.237-.091.323a.953.953 0 01-.341.398 1.674 1.674 0 01-.506.216c-.19.05-.397.079-.62.089-.224.01-.453.015-.688.015h-1.175v1.193h1.436zm-5.715 0c.381 0 .713-.015.995-.046.282-.03.529-.077.74-.14a2.273 2.273 0 00.974-.569c.174.223.397.405.67.545.271.14.612.21 1.022.21h.121v-1.193h-.121a.86.86 0 01-.509-.14.999.999 0 01-.31-.353 1.667 1.667 0 01-.161-.463 4.299 4.299 0 01-.067-.474 18.669 18.669 0 00-.11-1.054 5.718 5.718 0 00-.176-.827l-1.145.322c.09.309.151.583.186.822.034.24.052.475.052.706 0 .244-.04.457-.122.64a1.1 1.1 0 01-.38.456 1.85 1.85 0 01-.67.274c-.274.06-.604.091-.99.091h-.906v1.193h.907zm.225 2.977l.986-.987-.998-.998-.986.992.998.993zm2.496.012l.986-.992-.998-.993-.987.986.999.999zm-11.352-2.97c2.309 0 3.999-.56 5.07-1.68.09.247.215.468.377.663.508.653 1.289.986 2.344.998h.17v-1.193h-.152c-.661-.004-1.134-.187-1.418-.548a1.217 1.217 0 01-.256-.511 3.023 3.023 0 01-.079-.548v-.049c0-.065.006-.142.018-.231a5.071 5.071 0 01.119-.654 9.45 9.45 0 01.07-.271l-1.157-.317c-.052.183-.112.37-.18.56-.066.191-.147.38-.243.566a3.52 3.52 0 01-.343.542 2.696 2.696 0 01-.481.481c-.418.34-.942.59-1.57.746-.63.156-1.393.234-2.29.234-1.002-.004-1.816-.11-2.443-.317-.627-.207-1.063-.519-1.306-.937a1.477 1.477 0 01-.195-.502 2.648 2.648 0 01-.042-.448c0-.052.002-.103.006-.152.008-.182.033-.357.076-.523.042-.167.086-.313.13-.438.045-.126.086-.228.122-.305a1.41 1.41 0 00.055-.122l-1.053-.578c-.02.029-.078.155-.173.38-.096.226-.194.531-.296.917-.048.182-.079.35-.09.502a4.048 4.048 0 00-.006.69c.015.212.055.423.118.634.063.21.153.416.27.615.366.616.953 1.068 1.763 1.354.81.286 1.83.433 3.065.441zm1.168 3.152l.998-.998-.986-.986-.998.998.986.986zm-2.66.012l.998-.998-.986-.992-.998.998.986.992zm1.358 1.741l.907-.907-.901-.9-.907.906.9.901zm-13.118-4.735c.357-.004.67-.087.94-.247.27-.16.494-.37.67-.627.177-.257.31-.549.399-.873.09-.325.134-.656.134-.992 0-.422-.059-.828-.177-1.218-.357-1.128-.933-2.2-1.728-3.214a13.33 13.33 0 00-1.111-1.232 45.866 45.866 0 00-1.209-1.142l-.852.853.226.225c-.297.47-.56.91-.789 1.32-.229.41-.428.799-.596 1.166-.169.368-.31.72-.426 1.056a9.26 9.26 0 00-.283.999 6.116 6.116 0 00-.107.678 5.399 5.399 0 00-.021.947c.016.292.06.576.134.852.073.276.184.52.334.733.15.214.346.385.588.515.241.13.539.195.892.195.316 0 .605-.077.867-.232.262-.154.48-.363.654-.627l.019.025c.17.272.378.48.624.624.245.144.516.216.812.216h.006zm0-1.2a.608.608 0 01-.338-.152 1.12 1.12 0 01-.243-.32 2.098 2.098 0 01-.164-.428 3.911 3.911 0 01-.098-.478 5.552 5.552 0 01-.045-.466 7.354 7.354 0 01-.013-.39l-.98-.012c-.016.098-.035.22-.057.369-.023.148-.05.303-.083.465a4.959 4.959 0 01-.124.49c-.051.165-.114.313-.19.445-.074.132-.164.24-.27.325a.61.61 0 01-.377.134.581.581 0 01-.405-.14.893.893 0 01-.238-.365 1.812 1.812 0 01-.103-.456 4.561 4.561 0 01-.021-.414 4.76 4.76 0 01.128-1.083c.064-.285.147-.574.246-.868.1-.294.222-.602.368-.922.146-.321.317-.66.512-1.017.194-.357.42-.743.675-1.156.227.219.465.468.712.748a10.439 10.439 0 011.388 2.027c.207.394.384.816.53 1.266.044.138.077.28.097.426a3.097 3.097 0 01-.009.916 1.85 1.85 0 01-.143.494 1.112 1.112 0 01-.286.386.768.768 0 01-.469.177zm-7.122 1.005a1.096 1.096 0 00.704-.256c.095-.08.173-.176.234-.286.06-.11.095-.23.103-.359v-.049a.81.81 0 00-.115-.432.909.909 0 00-.341-.316.814.814 0 00-.335-.113 15.366 15.366 0 00-.14-.003.82.82 0 00-.426.116c0-.585.383-1.155 1.15-1.71a81.415 81.415 0 00-.295-.238 5.084 5.084 0 00-.259-.195c-.965.686-1.448 1.506-1.448 2.46 0 .182.025.356.076.523.05.166.125.313.222.441s.22.23.365.304c.146.075.315.113.505.113zm-9.568.079c.377 0 .708-.053.992-.158.292-.106.536-.258.73-.457.195-.199.341-.439.439-.721.097-.282.146-.598.146-.947 0-.23-.022-.468-.064-.712a6.734 6.734 0 00-.165-.712 10.708 10.708 0 00-.751-1.899l-1.065.56a10.74 10.74 0 01.514 1.245c.087.257.162.52.225.788s.094.517.094.749c0 .178-.02.339-.06.48a.814.814 0 01-.198.354.668.668 0 01-.31.185 1.37 1.37 0 01-.35.046c-.07 0-.143-.004-.22-.012a.568.568 0 01-.307-.119.741.741 0 01-.201-.256 1.287 1.287 0 01-.11-.359 2.647 2.647 0 01-.033-.429c0-.166.012-.356.036-.569.025-.213.052-.414.083-.603.03-.188.057-.35.082-.484l.03-.194-1.169-.213a14.56 14.56 0 01-.1.587 8.363 8.363 0 01-.164.697c-.067.24-.148.475-.244.706a3.216 3.216 0 01-.335.621c-.127.183-.273.33-.438.444a.956.956 0 01-.557.17.643.643 0 01-.322-.072.545.545 0 01-.201-.195.852.852 0 01-.104-.277c-.02-.104-.03-.21-.03-.32 0-.158.016-.33.049-.514.032-.185.07-.365.115-.542a11.175 11.175 0 01.256-.873l-1.205-.256c-.041.199-.09.41-.146.633a6.81 6.81 0 01-.207.667 4.861 4.861 0 01-.287.636c-.11.203-.238.382-.386.539a1.813 1.813 0 01-.508.377c-.191.095-.406.143-.646.143h-.133v1.193h.127c.236 0 .452-.02.649-.058a2.366 2.366 0 00.99-.432c.137-.103.267-.22.388-.35.065.15.158.282.277.396.12.113.253.209.399.286.146.077.3.135.46.173a1.989 1.989 0 001.445-.192c.309-.166.585-.391.828-.675.085.13.189.25.31.362.122.112.254.209.396.292.142.083.291.15.448.198.156.049.311.073.465.073h.043zm-6.982-.073v-1.193h-.122c-.255 0-.475-.026-.66-.08a.95.95 0 01-.417-.218.507.507 0 01-.161-.314 3.288 3.288 0 01-.022-.386v-3.056a42.483 42.483 0 00-.124-3.208 9.022 9.022 0 00-.095-.76l-1.193.218c.037.191.068.436.094.734.027.298.05.624.067.977.019.353.032.718.04 1.096.008.377.012.74.012 1.09a89.654 89.654 0 010 1.88 184.985 184.985 0 00-.012.907c0 .097.002.214.006.35a2.35 2.35 0 00.216.886c.071.154.174.298.308.432.219.219.486.381.8.487.314.105.695.158 1.141.158h.122zm-9.763-6.702l.992-.992-.999-.998-.992.992.999.998zm-2.618 6.702a9.77 9.77 0 001.82-.17c.6-.114 1.182-.261 1.744-.442.562-.18 1.1-.382 1.613-.605.513-.224.993-.447 1.44-.67l.876-.43c.28-.135.562-.262.846-.38l-.231-1.156c-.252 0-.501-.026-.749-.08a5.987 5.987 0 01-.742-.21 9.844 9.844 0 01-.74-.294 34.3 34.3 0 01-.727-.335c-.22-.102-.436-.201-.652-.298a8.863 8.863 0 00-.633-.26 4.933 4.933 0 00-.611-.179 2.73 2.73 0 00-.594-.067 2.34 2.34 0 00-1.123.286c-.355.191-.69.477-1.007.859a4.13 4.13 0 00-.29.383 9.873 9.873 0 00-.212.335 3.1 3.1 0 00-.186.347l1.096.493c0-.004.019-.044.057-.119.039-.075.095-.168.168-.28.073-.111.16-.231.262-.359.101-.128.216-.247.343-.359.128-.112.267-.204.417-.277.15-.073.309-.11.475-.11.126 0 .264.02.414.058.15.039.31.09.478.156.168.064.343.139.523.222l.557.258c.248.118.5.234.755.347.256.114.524.22.804.317-.463.231-.944.456-1.443.676-.5.219-1.01.413-1.534.584-.523.17-1.055.307-1.595.41a8.58 8.58 0 01-1.619.156h-1.32v1.193h1.32zm-9.775-4.997l.986-.986-.999-.999-.986.992.999.993zm2.495.012l.986-.992-.998-.993-.986.987.998.998zm-1.765 5.003c2.309 0 4-.56 5.07-1.68.09.248.215.469.378.664.507.653 1.288.986 2.343.998h.17v-1.193h-.151c-.662-.004-1.135-.187-1.419-.548a1.217 1.217 0 01-.255-.511 3.023 3.023 0 01-.08-.548v-.049c0-.065.007-.142.019-.231a5.071 5.071 0 01.118-.654 9.45 9.45 0 01.07-.271l-1.156-.317c-.053.183-.113.37-.18.56-.067.191-.148.38-.243.566a3.52 3.52 0 01-.344.542 2.696 2.696 0 01-.48.481c-.419.34-.942.59-1.571.746-.63.156-1.392.234-2.289.234-1.002-.004-1.817-.11-2.444-.317-.627-.207-1.062-.519-1.306-.937a1.477 1.477 0 01-.194-.502 2.648 2.648 0 01-.043-.448c0-.052.002-.103.006-.152.008-.182.034-.357.076-.523.043-.167.086-.313.131-.438.045-.126.085-.228.122-.305a1.41 1.41 0 00.055-.122l-1.053-.578c-.02.029-.079.155-.174.38-.095.226-.194.531-.295.917-.049.182-.08.35-.091.502a4.048 4.048 0 00-.006.69c.016.212.055.423.118.634.063.21.153.416.271.615.365.616.953 1.068 1.762 1.354.81.286 1.831.433 3.065.441zm-33.32.14c0-.353-.003-.724-.01-1.114a40.27 40.27 0 00-.109-2.404c-.03-.406-.07-.8-.118-1.18a13.9 13.9 0 00-.509-2.384 8.054 8.054 0 00-.83-1.841l-1.011.645a6.36 6.36 0 01.727 1.656c.181.625.32 1.296.417 2.014.098.719.16 1.468.189 2.25.028.78.043 1.567.043 2.358h1.211zm3.689-.042c0-.828-.014-1.658-.04-2.49a19.43 19.43 0 00-.24-2.49 2.051 2.051 0 00.76.122c.159 0 .313-.014.463-.042.15-.029.292-.075.426-.14a1.487 1.487 0 00.676-.67c.101.146.209.268.322.365a1.525 1.525 0 001.017.378c.32 0 .596-.06.825-.18.23-.12.415-.285.557-.496a1.99 1.99 0 00.295-.694 3.538 3.538 0 00.076-.962 17.395 17.395 0 00-.06-.812 11.536 11.536 0 00-.14-.971l-1.14.225c.066.353.105.654.12.904.014.25.02.466.02.648 0 .094-.003.204-.011.332-.008.128-.03.25-.064.368a.762.762 0 01-.165.302.4.4 0 01-.313.124.35.35 0 01-.265-.121 1.128 1.128 0 01-.198-.317 2.607 2.607 0 01-.143-.435 6.88 6.88 0 01-.158-.922l-.033-.335a6.575 6.575 0 00-.034-.326 3.794 3.794 0 01-.027-.356l-1.205.146a12.013 12.013 0 01.04.53 25.776 25.776 0 01.02.584 5.68 5.68 0 01-.04.484 2.397 2.397 0 01-.13.548 1.316 1.316 0 01-.27.45.6.6 0 01-.46.186c-.183 0-.333-.023-.45-.07a.806.806 0 01-.314-.228 1.844 1.844 0 01-.26-.414 21.16 21.16 0 01-.285-.633l-.286-.615-.125-.25-.125-.25a22.61 22.61 0 00-.115-.227 3.938 3.938 0 00-.098-.18l-1.102.651c.094.146.18.3.26.463.078.162.164.355.258.578.328.844.572 1.794.73 2.849.158 1.055.238 2.173.238 3.354l-.003.511c-.002.179-.008.353-.016.524h1.212zm10.914.188l.736-.95c-.183-.218-.38-.823-.59-1.813a20.18 20.18 0 01-.14-.718c-.04-.232-.074-.478-.1-.74-.027-.262-.045-.53-.056-.806-.01-.276-.015-.56-.015-.853v-.298a9.622 9.622 0 00-.073-1.163c-.118-.892-.371-1.54-.76-1.941a1.741 1.741 0 00-1.273-.542c-.329 0-.637.093-.925.28a2.28 2.28 0 00-.481.426 2.998 2.998 0 00-.368.542 3.797 3.797 0 00-.399 1.254 2.854 2.854 0 00-.024.365c0 .17.018.33.055.48.06.252.16.473.3.661.14.189.314.347.521.475.207.128.435.225.685.292.25.067.455.103.615.107l.295.006c.24 0 .48-.02.724-.061.004.479.04.967.107 1.464s.17 1.007.307 1.53c.26.999.546 1.667.859 2.003zm-2.033-6.13c-.098 0-.193-.003-.287-.011-.754-.077-1.132-.372-1.132-.883 0-.04.002-.081.006-.122.013-.126.044-.274.095-.444.05-.17.12-.333.21-.487.089-.154.199-.284.328-.39a.702.702 0 01.457-.158c.13 0 .246.037.35.11a1.1 1.1 0 01.27.277c.078.111.142.233.193.365.05.132.09.257.118.374.04.183.074.38.1.594.027.213.044.443.052.69a3.672 3.672 0 01-.76.086zm8.716 6.13l.737-.95c-.183-.218-.38-.823-.59-1.813a20.18 20.18 0 01-.14-.718c-.041-.232-.075-.478-.101-.74-.027-.262-.045-.53-.055-.806-.01-.276-.015-.56-.015-.853v-.298a9.622 9.622 0 00-.073-1.163c-.118-.892-.372-1.54-.761-1.941a1.741 1.741 0 00-1.272-.542c-.33 0-.637.093-.926.28a2.28 2.28 0 00-.48.426 2.998 2.998 0 00-.369.542 3.797 3.797 0 00-.399 1.254 2.854 2.854 0 00-.024.365c0 .17.018.33.055.48.06.252.161.473.301.661.14.189.314.347.52.475.208.128.436.225.686.292.25.067.454.103.614.107l.296.006c.239 0 .48-.02.724-.061.004.479.04.967.106 1.464.067.497.17 1.007.308 1.53.26.999.546 1.667.858 2.003zm-2.033-6.13c-.097 0-.193-.003-.286-.011-.755-.077-1.132-.372-1.132-.883 0-.04.002-.081.006-.122.012-.126.043-.274.094-.444.05-.17.12-.333.21-.487.09-.154.199-.284.329-.39a.702.702 0 01.456-.158c.13 0 .247.037.35.11a1.1 1.1 0 01.271.277c.077.111.141.233.192.365.05.132.09.257.119.374.04.183.074.38.1.594.027.213.044.443.052.69a3.672 3.672 0 01-.761.086z" fill-opacity=".56" fill="#000000" fill-rule="nonzero"/><path d="M547.638 139.5c.38 0 .748-.026 1.103-.077.355-.05.68-.139.977-.264.297-.125.56-.292.79-.5.23-.21.414-.471.553-.787.139-.32.209-.69.209-1.113 0-.074-.003-.148-.007-.222-.033-.515-.153-1.109-.362-1.781a9.034 9.034 0 00-.223-.644 14.061 14.061 0 00-.382-.897 1.713 1.713 0 01-.063-.143l-1.238.612.605 1.489c.097.237.172.463.223.678.05.216.08.385.09.508.01.123.014.215.014.275 0 .111-.007.216-.02.313a1.35 1.35 0 01-.105.369 1.089 1.089 0 01-.39.455c-.167.11-.36.192-.577.247-.218.056-.455.09-.71.101-.255.012-.517.018-.786.018h-1.342v1.363h1.641zm2.65 3.624l1.142-1.14-1.127-1.127-1.141 1.14 1.127 1.127zm-3.04.014l1.142-1.14-1.127-1.135-1.141 1.141 1.127 1.134zm1.552 1.99l1.037-1.037-1.03-1.03-1.037 1.037 1.03 1.03zm-5.544-13.572l1.03-1.03-1.037-1.036-1.03 1.03 1.037 1.036zm-1.573 2.198l1.127-1.134-1.14-1.14-1.127 1.133 1.14 1.14zm3.054.007l1.127-1.127-1.14-1.141-1.127 1.127 1.14 1.14zm-4.507 10.873a12.712 12.712 0 001.704-1.03 9.084 9.084 0 001.471-1.304 6.295 6.295 0 001.033-1.54c.26-.553.39-1.132.39-1.74v-.028c.116.125.238.223.365.292a1.686 1.686 0 00.713.209c.102.005.186.007.25.007h.119v-1.363h-.112c-.231 0-.444-.056-.636-.167a1.88 1.88 0 01-.553-.526 4.913 4.913 0 01-.515-.925 15.038 15.038 0 01-.515-1.374l-1.307.404c.055.171.122.386.201.643.08.258.158.532.237.825.079.292.152.59.219.893.067.304.117.588.15.853a2.596 2.596 0 01-.077.94c-.084.31-.21.609-.38.896-.168.288-.376.562-.622.824a8.04 8.04 0 01-.807.748 9.486 9.486 0 01-.932.665c-.33.206-.66.395-.995.567l.599 1.23zm-6.393-.25a8.398 8.398 0 001.405-.345c.459-.155.896-.348 1.311-.577.415-.23.802-.498 1.162-.804a5.91 5.91 0 00.95-1.022c.273-.376.498-.785.674-1.228.176-.443.29-.92.341-1.43a6.442 6.442 0 00.007-1.266 6.891 6.891 0 00-.23-1.217 5.77 5.77 0 00-.434-1.096 4.275 4.275 0 00-.623-.9c-.552-.594-1.157-.891-1.816-.891a1.77 1.77 0 00-.859.226 2.61 2.61 0 00-.768.664c-.195.25-.365.549-.508.894a3.926 3.926 0 00-.275.925c-.04.272-.06.495-.06.672 0 .185.017.37.05.556.055.353.19.663.403.932.482.599 1.227.928 2.233.988.255.023.483.035.685.035h.79c-.051.348-.194.701-.428 1.06-.234.36-.553.7-.957 1.02-.403.32-.888.608-1.453.863a8.976 8.976 0 01-1.92.598l.32 1.342zm3.755-6.262h-.048c-.204 0-.422-.006-.654-.02a3.506 3.506 0 01-.295-.032 2.472 2.472 0 01-.348-.076 1.635 1.635 0 01-.334-.14.819.819 0 01-.26-.225.651.651 0 01-.143-.33 2.434 2.434 0 01-.025-.31 3.16 3.16 0 01.153-.908c.065-.202.145-.384.24-.546.095-.163.203-.296.324-.4a.577.577 0 01.382-.157c.084 0 .163.014.237.042.074.028.145.064.212.108s.13.093.188.146c.058.053.11.103.156.15.116.134.229.293.338.476.109.183.207.388.295.616.089.227.16.473.216.737.056.264.09.545.104.842-.18.014-.344.022-.49.024l-.296.004h.048zm-28.994 1.517c0-.403-.003-.829-.01-1.276a46.008 46.008 0 00-.125-2.748c-.035-.462-.08-.91-.136-1.346l-.056-.383c.177.07.354.12.532.15.179.03.38.045.602.045.812 0 1.454-.285 1.927-.856.487-.566.74-1.384.758-2.455v-.181c0-.12-.002-.24-.007-.355a9.204 9.204 0 00-.034-.449 5.19 5.19 0 00-.042-.32 1.87 1.87 0 01-.02-.135l-1.364.25a6.148 6.148 0 01.097 1.037c0 .153-.007.31-.02.473-.015.162-.04.32-.074.473-.035.153-.08.298-.136.434a1.282 1.282 0 01-.215.359c-.195.236-.485.354-.87.354a1.67 1.67 0 01-.657-.114 1.42 1.42 0 01-.473-.33 2.29 2.29 0 01-.362-.512 9.56 9.56 0 01-.316-.664c-.08-.172-.151-.332-.216-.48a15.46 15.46 0 00-.38-.804 5.205 5.205 0 00-.204-.365l-1.162.737c.139.241.264.476.375.703a9.513 9.513 0 01.803 2.452c.12.628.208 1.287.269 1.976.06.688.097 1.398.111 2.128.014.73.02 1.465.02 2.202h1.385zm8.014-1.551c.325 0 .63-.062.915-.185a2.396 2.396 0 001.263-1.252c.125-.285.187-.592.187-.921 0-.325-.062-.63-.187-.915a2.438 2.438 0 00-1.263-1.263 2.25 2.25 0 00-.915-.188c-.33 0-.636.063-.922.188a2.396 2.396 0 00-1.252 1.263c-.123.285-.184.59-.184.915 0 .329.061.636.184.921a2.376 2.376 0 001.252 1.252c.286.123.593.185.922.185zm0-1.134c-.167 0-.324-.033-.473-.097a1.259 1.259 0 01-.654-.654 1.192 1.192 0 010-.95 1.248 1.248 0 01.654-.657 1.192 1.192 0 01.95 0 1.248 1.248 0 01.657.657 1.192 1.192 0 010 .95 1.259 1.259 0 01-.657.654c-.151.064-.31.097-.477.097zm5.364 2.65a2.5 2.5 0 00.08-.212c.048-.137.12-.318.215-.542.095-.225.215-.485.359-.78.143-.294.314-.601.51-.921.198-.32.422-.645.672-.974.25-.33.53-.641.838-.936a6.892 6.892 0 011.016-.8 5.25 5.25 0 011.2-.574l.501-.167-.404-1.315c-.05.014-.119.035-.205.063l-.323.104c-.135.042-.295.089-.48.14a8.955 8.955 0 01-1.231.24 4.885 4.885 0 01-.592.038h-.09c-.149 0-.303-.019-.463-.056a1.568 1.568 0 01-.442-.174 1.02 1.02 0 01-.33-.306.78.78 0 01-.129-.452c0-.227.056-.435.167-.623.112-.187.255-.349.432-.483.176-.135.376-.24.601-.317.225-.076.451-.114.679-.114.199 0 .409.03.63.09.22.06.448.165.684.313l.703-1.196c-.663-.39-1.336-.585-2.017-.585-.26 0-.52.032-.78.094a3.638 3.638 0 00-1.43.706 3.028 3.028 0 00-.549.581 2.72 2.72 0 00-.365.706 2.497 2.497 0 00-.132.821c0 .343.059.65.177.922.119.271.284.504.498.699.213.195.465.354.754.476.29.123.61.208.957.254a9.168 9.168 0 00-.82.898 13.02 13.02 0 00-.76 1.043 14.37 14.37 0 00-1.043 1.9 9.816 9.816 0 00-.403 1.022l1.315.417z" fill-opacity=".87" fill="#000000" fill-rule="nonzero"/><path d="M573.645 136.333l.555-6.666h3.6l.555 6.666h-4.71zm7.355 0h-.973l-.555-6.666h.278a.833.833 0 100-1.667h-7.5a.833.833 0 100 1.667h.277l-.555 6.666H571a.833.833 0 100 1.667h4.167v4.167a.833.833 0 101.666 0V138H581a.833.833 0 100-1.667z" fill-opacity=".56" fill="#000"/></g></g></svg>