<svg width="860" height="320" xmlns="http://www.w3.org/2000/svg"><g fill="none" fill-rule="evenodd"><rect fill="none" width="860" height="320" rx="4"/><path d="M108 255h488v1H108z" fill="#000000" fill-opacity=".12"/><path d="M552.438 226.845l1.134-1.134-1.14-1.14-1.135 1.133 1.141 1.141zM549.614 236c.459-.005.911-.022 1.356-.052.446-.03.871-.085 1.277-.164a6.536 6.536 0 001.134-.323c.35-.137.66-.314.932-.532a2.74 2.74 0 00.671-.793c.177-.311.293-.677.348-1.1a4.997 4.997 0 00.021-1.126 5.945 5.945 0 00-.212-1.096 5.3 5.3 0 00-.407-1.002 4.113 4.113 0 00-.57-.824c-.501-.543-1.058-.814-1.67-.814a1.71 1.71 0 00-.807.205c-.26.137-.494.344-.703.623-.366.473-.614 1.062-.744 1.767-.028.19-.042.364-.042.521v.119c.01.194.035.368.077.521.042.153.095.29.16.407.065.119.13.22.195.303.12.153.266.289.438.407.171.118.362.217.57.296.209.078.432.138.668.177.237.04.48.06.73.06h.703l-.111.124a1.453 1.453 0 01-.146.14 1.95 1.95 0 01-.522.278 6.013 6.013 0 01-.866.254c-.341.076-.728.139-1.162.187a12.73 12.73 0 01-1.415.074h-.14V236h.237zm3.819-3.798c-.209 0-.431-.005-.668-.014a2.745 2.745 0 01-.56-.09 1.009 1.009 0 01-.403-.21.633.633 0 01-.202-.305 1.224 1.224 0 01-.045-.32c0-.08.007-.163.02-.25.042-.237.102-.446.178-.627.077-.18.159-.334.247-.459a1.16 1.16 0 01.264-.282.419.419 0 01.23-.094c.13 0 .252.04.365.122.114.081.208.164.282.247.236.264.425.596.567.995.141.399.228.823.26 1.273-.152.01-.33.014-.535.014zm-7.631-3.805l1.134-1.134-1.141-1.141-1.134 1.134 1.14 1.14zm-2.943 7.742c.315 0 .648-.01.998-.028.35-.018.706-.055 1.068-.111h4.73v-1.363h-1.738c.213-.237.39-.51.528-.821.14-.311.216-.67.23-1.079v-.097c0-.301-.04-.582-.118-.842a2.648 2.648 0 00-1.002-1.37 2.933 2.933 0 00-.776-.39 2.904 2.904 0 00-.692-.156 7.311 7.311 0 00-.348-.018c-.26 0-.522.03-.786.09-.575.13-1.103.33-1.583.599-.48.269-.917.59-1.31.964-.395.373-.75.79-1.065 1.252a10.63 10.63 0 00-.835 1.457 2.046 2.046 0 01-.313-.682 2.943 2.943 0 01-.084-.688v-.049c0-.241.024-.475.07-.703.046-.227.097-.436.153-.626l-1.315-.396c-.06.18-.111.364-.153.55-.041.185-.08.377-.118.577-.074.352-.15.68-.23.98-.078.302-.199.564-.361.787-.051.07-.117.142-.199.219a1.281 1.281 0 01-.323.212c-.135.065-.3.12-.494.163a3.229 3.229 0 01-.703.067h-.16V236h.202c.64-.005 1.186-.102 1.638-.292.453-.19.825-.49 1.117-.898.255.33.517.584.786.762.269.179.561.31.877.393.315.084.662.134 1.04.15.378.016.8.024 1.27.024zm0-1.405h-.306c-.413-.01-.772-.023-1.078-.042.255-.464.517-.884.786-1.262s.553-.71.852-.995c.3-.285.62-.524.964-.717a4.046 4.046 0 011.113-.42 2.1 2.1 0 01.88 0c.155.032.307.082.455.149a1.297 1.297 0 01.671.66c.072.156.108.336.108.54v.028c0 .357-.097.658-.292.904-.2.25-.464.455-.793.612a4.53 4.53 0 01-1.123.355 9.72 9.72 0 01-1.197.153c-.378.023-.725.035-1.04.035zM536.21 236v-1.363h-.14a2.77 2.77 0 01-.754-.09c-.211-.061-.37-.145-.477-.251a.58.58 0 01-.184-.359 3.758 3.758 0 01-.024-.441v-3.493a48.553 48.553 0 00-.067-2.546 31.39 31.39 0 00-.076-1.12c-.03-.343-.066-.633-.108-.87l-1.363.251c.041.218.077.498.107.839.03.34.056.713.077 1.116.02.404.036.82.045 1.252.01.432.014.847.014 1.245.005.409.007.796.007 1.162 0 .371-.002.7-.007.988a211.315 211.315 0 00-.013.957v.198l.006.282a2.686 2.686 0 00.247 1.012c.081.176.198.34.351.494.25.25.556.436.915.556.36.12.794.181 1.305.181h.139zm-11.353 4.89c.765 0 1.469-.066 2.111-.198a6.769 6.769 0 001.736-.595c.542-.269.975-.592 1.297-.97a2.64 2.64 0 00.609-1.256c.032-.18.048-.345.048-.494 0-.153-.016-.29-.048-.41a1.475 1.475 0 00-.313-.605 1.642 1.642 0 00-.529-.393c-.209-.1-.43-.183-.664-.25-.235-.068-.471-.127-.71-.178a5.844 5.844 0 01-.664-.181 2.147 2.147 0 01-.532-.26.827.827 0 01-.317-.408 1.211 1.211 0 01-.049-.64c.033-.227.103-.452.212-.675a3.31 3.31 0 01.418-.643c.17-.206.352-.39.55-.55.197-.16.4-.292.608-.396.209-.105.41-.166.605-.185.167-.032.33-.048.487-.048h.105c.185.014.35.036.494.066.143.03.26.061.347.094l.126.055.605-1.273a1.35 1.35 0 01-.046-.017l-.106-.043-.074-.03a3.616 3.616 0 00-.54-.16 3.84 3.84 0 00-.598-.094 6.637 6.637 0 00-.361-.017c-.237 0-.48.025-.73.076a4.142 4.142 0 00-1.037.376c-.33.171-.632.379-.908.622a4.67 4.67 0 00-.734.821 4.435 4.435 0 00-.515.964c-.13.338-.207.632-.233.88-.025.248-.038.44-.038.574 0 .232.023.466.07.702.069.348.21.629.42.842.211.213.455.386.73.518.277.132.565.236.867.31.301.074.577.145.828.212.25.067.45.141.601.223.151.08.226.189.226.323v.035c-.023.236-.139.465-.347.685-.21.22-.5.418-.873.591a5.947 5.947 0 01-1.353.418 9.237 9.237 0 01-1.781.156c-.673 0-1.255-.083-1.746-.25-.492-.167-.884-.417-1.176-.751a2.071 2.071 0 01-.358-.553 2.785 2.785 0 01-.185-.585 2.923 2.923 0 01-.055-.553v-.055c0-.195.011-.376.034-.543a13.77 13.77 0 01.404-1.983c.18-.64.376-1.287.584-1.94l-1.328-.467c-.01.019-.036.093-.08.223a40.187 40.187 0 00-.39 1.249 22.058 22.058 0 00-.449 1.815c-.065.323-.116.635-.153.936a5.895 5.895 0 00-.041.689c0 .426.05.825.153 1.196.153.575.42 1.08.8 1.517.436.487.989.855 1.659 1.106.67.25 1.445.375 2.327.375zm-14.49-4.897c.277 0 .557-.02.837-.063.281-.041.551-.109.81-.201.26-.093.503-.212.728-.359.225-.146.42-.32.588-.525a1.685 1.685 0 00.362-.737c.037-.162.056-.348.059-.557a3.214 3.214 0 00-.08-.702 5.056 5.056 0 00-.317-.908 7.36 7.36 0 00-.508-.932 9.21 9.21 0 00-1.408-1.708 7.958 7.958 0 00-.81-.675 4.88 4.88 0 00-.825-.487l-.564 1.266c.209.093.422.218.64.376.218.158.433.338.644.542.21.205.414.424.608.658.195.234.373.475.533.723.16.248.296.497.41.745.114.248.196.485.247.713.037.167.056.31.056.431 0 .167-.035.292-.105.376-.157.19-.352.331-.584.424-.232.093-.44.147-.626.164a3.996 3.996 0 01-.96-.01 5.912 5.912 0 01-1.621-.443 4.229 4.229 0 01-.62-.323l-.57 1.308c.116.106.3.213.55.32a8.429 8.429 0 001.736.504c.303.053.567.08.79.08zm-4.863.07c.065-.77.103-1.496.114-2.178.012-.682.018-1.226.018-1.635 0-.677-.007-1.4-.021-2.17a63.583 63.583 0 00-.355-5.064l-1.363.208c.157 1.461.283 3.316.375 5.566.014.384.021.793.021 1.224 0 .357-.004.73-.014 1.12a64.701 64.701 0 01-.146 2.852l1.37.077zm-9.336-7.722l1.134-1.134-1.141-1.14-1.134 1.133 1.141 1.14zM493.176 236c.7 0 1.393-.065 2.08-.195.686-.13 1.35-.298 1.993-.504a19.848 19.848 0 001.843-.692c.587-.255 1.135-.51 1.645-.766.348-.171.682-.335 1.002-.49.32-.155.642-.3.967-.435l-.264-1.321c-.288 0-.573-.03-.856-.09a6.842 6.842 0 01-.849-.24 11.25 11.25 0 01-.845-.338c-.28-.126-.558-.253-.831-.383-.25-.116-.499-.23-.744-.34-.246-.112-.487-.21-.724-.296a5.637 5.637 0 00-.7-.206 3.12 3.12 0 00-.677-.076c-.45 0-.878.109-1.284.327-.406.218-.79.545-1.151.98a4.719 4.719 0 00-.33.439c-.096.144-.177.271-.244.383a3.542 3.542 0 00-.212.396l1.252.564a3.686 3.686 0 01.257-.456c.084-.128.184-.264.3-.41.115-.147.246-.283.393-.411.146-.128.304-.233.476-.317.172-.083.353-.125.543-.125.143 0 .301.022.473.066.171.044.353.104.546.178.192.074.392.159.598.254l.637.295c.282.135.57.267.862.397.292.13.598.25.918.362-.528.264-1.078.521-1.648.772-.57.25-1.155.473-1.753.668-.599.194-1.206.35-1.823.47a9.807 9.807 0 01-1.85.177h-1.51V236h1.51zm-7.228 4.563c.241 0 .491-.018.751-.055a4.818 4.818 0 002.077-.828c.322-.227.607-.509.855-.845a4.16 4.16 0 00.595-1.183c.148-.452.223-.97.223-1.555v-.403c.171.097.36.173.567.226.206.053.47.08.79.08h.138v-1.363h-.139c-.246 0-.455-.043-.63-.13a1.274 1.274 0 01-.434-.344 1.489 1.489 0 01-.261-.49 2.03 2.03 0 01-.094-.567 694.116 694.116 0 00-.205-5.562c-.03-.707-.064-1.434-.101-2.18l-1.363.055a306.585 306.585 0 01.18 4.237c.024.575.047 1.165.07 1.77.023.605.043 1.193.06 1.764.015.57.03 1.106.04 1.607.012.5.018.934.018 1.3 0 .395-.052.746-.156 1.054-.105.309-.244.58-.418.814a2.709 2.709 0 01-.601.595 3.418 3.418 0 01-1.43.588 4.02 4.02 0 01-.609.052 2.722 2.722 0 01-.7-.094 3.177 3.177 0 01-.566-.209 2.989 2.989 0 01-.553-.344 2.395 2.395 0 01-.473-.494 2.388 2.388 0 01-.327-.657 2.665 2.665 0 01-.122-.832 6.202 6.202 0 01.37-2.19c.05-.145.107-.278.17-.4.062-.124.126-.236.19-.338l-1.244-.557c-.158.227-.297.51-.418.849a7.737 7.737 0 00-.292 1.085 8.18 8.18 0 00-.139 1.551v.056c0 .44.056.84.167 1.197a3.48 3.48 0 001.158 1.757c.262.21.54.385.831.524a4.678 4.678 0 002.024.46zm-16.285.32a8.398 8.398 0 001.405-.344c.459-.155.896-.348 1.311-.577.415-.23.802-.498 1.162-.804a5.91 5.91 0 00.95-1.022c.273-.376.498-.785.674-1.228.176-.443.29-.92.341-1.43a6.442 6.442 0 00.007-1.266 6.891 6.891 0 00-.23-1.217 5.77 5.77 0 00-.434-1.096 4.275 4.275 0 00-.623-.9c-.552-.594-1.157-.891-1.816-.891a1.77 1.77 0 00-.859.226 2.61 2.61 0 00-.768.664c-.195.25-.364.549-.508.894a3.926 3.926 0 00-.275.925c-.04.272-.06.495-.06.672 0 .185.017.37.05.556.055.353.19.663.403.932.482.599 1.227.928 2.233.988.255.023.484.035.685.035h.79c-.051.348-.194.701-.428 1.06-.234.36-.553.7-.956 1.02-.404.32-.889.608-1.454.863a8.976 8.976 0 01-1.92.598l.32 1.342zm3.755-6.26h-.048c-.204 0-.422-.007-.653-.021a3.506 3.506 0 01-.296-.032 2.472 2.472 0 01-.348-.076 1.635 1.635 0 01-.334-.14.819.819 0 01-.26-.225.651.651 0 01-.143-.33 2.434 2.434 0 01-.025-.31 3.16 3.16 0 01.153-.908c.065-.202.145-.384.24-.546.095-.163.203-.296.324-.4a.577.577 0 01.382-.157c.084 0 .163.014.237.042.074.028.145.064.212.108s.13.093.188.146c.058.053.11.103.156.15.116.134.229.293.338.476.109.183.207.388.296.616.088.227.16.473.215.737.056.264.09.545.105.842-.181.014-.345.022-.49.024l-.297.004h.048zm-13.634-6.296l1.127-1.127-1.14-1.14-1.128 1.133 1.141 1.134zm2.853.014l1.126-1.134-1.14-1.134-1.127 1.127 1.14 1.14zM459.603 236c.38 0 .748-.026 1.103-.077.355-.05.68-.139.977-.264.297-.125.56-.292.79-.5.23-.21.414-.471.553-.787.14-.32.209-.69.209-1.113 0-.074-.003-.148-.007-.222-.033-.515-.153-1.109-.362-1.781a9.033 9.033 0 00-.223-.644 14.061 14.061 0 00-.382-.897 1.712 1.712 0 01-.063-.143l-1.238.612.605 1.489c.098.237.172.463.223.678.05.216.081.385.09.508.01.123.014.215.014.275 0 .111-.007.216-.02.313a1.35 1.35 0 01-.105.369 1.089 1.089 0 01-.39.455c-.167.11-.359.192-.577.247-.218.056-.454.09-.71.101-.255.012-.517.018-.786.018h-1.342V236h1.641zm-12.236 0c.723 0 1.407-.054 2.052-.163a14.231 14.231 0 001.833-.432c.578-.178 1.126-.38 1.645-.605.52-.225 1.018-.456 1.496-.692.116.297.289.562.518.796.23.235.503.433.821.595.318.162.676.287 1.075.372.399.086.828.129 1.287.129h.146v-1.363h-.146c-.084 0-.195-.004-.334-.01a4.039 4.039 0 01-.46-.053 4.861 4.861 0 01-.51-.115 2.302 2.302 0 01-.494-.202 1.718 1.718 0 01-.41-.313 1.06 1.06 0 01-.255-.448c.214-.107.425-.207.633-.3l.633-.278-.264-1.321c-.287 0-.573-.03-.856-.09a6.842 6.842 0 01-.848-.24 11.25 11.25 0 01-.846-.338c-.28-.126-.557-.253-.83-.383-.251-.116-.5-.23-.745-.34-.246-.112-.487-.21-.724-.296a5.637 5.637 0 00-.699-.206 3.12 3.12 0 00-.678-.076c-.45 0-.878.109-1.284.327-.405.218-.79.545-1.15.98a4.72 4.72 0 00-.331.439c-.095.144-.176.271-.244.383a3.542 3.542 0 00-.212.396l1.252.564a3.686 3.686 0 01.257-.456c.084-.128.184-.264.3-.41.116-.147.247-.283.393-.411.146-.128.305-.233.476-.317.172-.083.353-.125.543-.125.144 0 .301.022.473.066.172.044.354.104.546.178.193.074.392.159.598.254l.637.295c.283.135.57.267.862.397.293.13.599.25.919.362-.529.264-1.065.521-1.607.772-.543.25-1.103.473-1.68.668a13.45 13.45 0 01-1.805.47 10.67 10.67 0 01-1.983.177h-1.002V236h1.002zm4.737 3.624l1.134-1.134-1.14-1.14-1.135 1.133 1.141 1.141zm-7.93.953l.87-1.057a1.722 1.722 0 01-.446-.668 2.072 2.072 0 01-.118-.668 2.212 2.212 0 01.198-.88 2.38 2.38 0 01.428-.65c.176-.19.38-.344.609-.463.23-.118.474-.182.734-.191h.194v-1.363h-.139c-.269 0-.536.04-.803.121a3.587 3.587 0 00-1.986 1.52 2.731 2.731 0 00-.41 1.628 1.635 1.635 0 01-.428-.386 4.654 4.654 0 01-.38-.546 6.47 6.47 0 01-.31-.584 13.13 13.13 0 01-.218-.494c.31-.051.607-.134.89-.247.283-.114.545-.258.786-.432a3.317 3.317 0 001.12-1.415c.084-.2.134-.4.15-.602.016-.202.024-.365.024-.49 0-.172-.01-.35-.028-.536a5.268 5.268 0 00-.198-.929 3.399 3.399 0 00-.372-.824 1.945 1.945 0 00-.532-.57 1.156 1.156 0 00-.672-.21h-.07a1.673 1.673 0 00-.869.286 2.925 2.925 0 00-.713.685c-.21.28-.394.598-.55.953a8.207 8.207 0 00-.385 1.078c-.102.365-.173.7-.213 1.01-.039.308-.059.57-.059.789 0 .07.003.134.007.195h-1.12V236h1.378l.062.174a7.784 7.784 0 001.238 2.33c.293.38.631.747 1.016 1.1.385.352.823.677 1.315.973zm-2.303-6.01c-.07 0-.141-.005-.215-.014a2.48 2.48 0 01-.021-.334c0-.102.004-.209.014-.32.023-.241.066-.487.128-.737.063-.25.14-.496.233-.738.093-.24.198-.458.313-.65.116-.193.238-.35.366-.473a.669.669 0 01.386-.205c.208.153.36.35.455.591.096.241.142.496.14.765a2.359 2.359 0 01-.15.8c-.097.265-.233.5-.407.706-.174.207-.369.36-.584.46-.216.1-.435.149-.658.149zM434.275 236c.436 0 .815-.017 1.137-.052.322-.035.604-.088.845-.16a2.598 2.598 0 001.113-.65c.2.254.455.462.766.622.31.16.7.24 1.168.24h.14v-1.363h-.14c-.236 0-.43-.054-.58-.16a1.141 1.141 0 01-.355-.404 1.905 1.905 0 01-.185-.529 4.913 4.913 0 01-.076-.542 21.339 21.339 0 00-.125-1.204 6.535 6.535 0 00-.202-.946l-1.308.369c.102.352.173.665.212.939.04.274.06.543.06.807 0 .278-.047.522-.14.73a1.256 1.256 0 01-.435.522c-.197.14-.452.244-.765.313-.313.07-.69.105-1.13.105h-1.037V236h1.037zm.257 3.402l1.127-1.127-1.14-1.141-1.128 1.134 1.141 1.134zm2.852.014l1.127-1.134-1.14-1.134-1.128 1.127 1.141 1.14zm-6.935-9.656l1.134-1.134-1.141-1.14-1.134 1.133 1.14 1.141zm-2.999 11.374a12.712 12.712 0 001.705-1.03 9.084 9.084 0 001.471-1.304 6.295 6.295 0 001.033-1.54c.26-.553.39-1.132.39-1.74v-.028c.116.125.237.223.365.292a1.686 1.686 0 00.713.209c.102.005.185.007.25.007h.119v-1.363h-.112c-.232 0-.444-.056-.636-.167a1.88 1.88 0 01-.553-.526 4.913 4.913 0 01-.515-.925 15.038 15.038 0 01-.515-1.374l-1.308.404c.056.171.123.386.202.643.079.258.158.532.237.825.078.292.152.59.219.893.067.304.117.588.15.853a2.596 2.596 0 01-.077.94c-.084.31-.21.609-.38.896-.169.288-.376.562-.622.824a8.04 8.04 0 01-.807.748 9.486 9.486 0 01-.932.665c-.33.206-.66.395-.995.567l.598 1.23zm-.82-5.071c.064-.77.103-1.496.114-2.178.012-.682.018-1.226.018-1.635 0-.677-.007-1.4-.021-2.17a63.584 63.584 0 00-.355-5.064l-1.363.208c.157 1.461.283 3.316.375 5.566.014.384.021.793.021 1.224 0 .357-.005.73-.014 1.12a64.7 64.7 0 01-.146 2.852l1.37.077zm-11.047-5.774l1.127-1.127-1.141-1.141-1.127 1.134 1.14 1.134zm2.852.014l1.127-1.134-1.141-1.134-1.127 1.127 1.14 1.14zM417.009 236c.264 0 .542-.012.834-.035.339-.023.685-.06 1.037-.111a14.996 14.996 0 002.06-.449c.32-.095.618-.2.897-.316.278-.116.521-.24.73-.369.218-.14.386-.277.504-.414a1.11 1.11 0 00.237-.407 1.383 1.383 0 00.052-.542 4.954 4.954 0 00-.111-.634 6.504 6.504 0 00-.345-1.053 12.893 12.893 0 00-.434-.933c-.144-.276-.27-.5-.38-.674a8.814 8.814 0 01-.177-.29l-1.155.752a8.291 8.291 0 01.33.525c.091.156.19.334.296.536.107.202.208.414.303.637.095.222.179.448.25.678.072.23.117.449.136.657-.39.218-.81.396-1.263.532-.452.137-.907.245-1.367.324-.459.079-.909.133-1.35.163-.44.03-.843.046-1.21.046-1.298-.005-2.353-.13-3.165-.373-.811-.243-1.33-.592-1.558-1.047a1.365 1.365 0 01-.14-.619c0-.255.057-.535.168-.841a2.686 2.686 0 01.209-.477 5.521 5.521 0 01.243-.4l-1.106-.82c-.01.013-.035.051-.077.114a5.562 5.562 0 00-.344.609c-.067.139-.133.292-.198.459-.181.478-.272.937-.272 1.377 0 .44.098.849.293 1.225.343.69.992 1.222 1.947 1.593 1.007.37 2.34.563 4 .577h.126z" fill-opacity=".87" fill="#000000" fill-rule="nonzero"/><path d="M160 228v8h-8a4 4 0 010-8h8zm39 0v8h-12v-8h12zm9 0a4 4 0 010 8h-8v-8zm-22 0v8h-12v-8h12zm-13 0v8h-12v-8h12z" fill="#EEE"/><path fill="#E65100" d="M148 228h25v8h-25z"/><path d="M174 228v8h-1v-8h1zm-13 0v8h-1v-8h1zm-13 4a4 4 0 004 4h-4zm39-4v8h-1v-8h1zm13 0v8h-1v-8h1zm12 4v4h-4a4 4 0 004-4zm-60-4a4 4 0 00-4 4v-4zm60 0v4a4 4 0 00-4-4h4z" fill="#FFF"/><g fill="#000000" fill-opacity=".32"><path d="M118.813 232l3.873-3.874a1.003 1.003 0 10-1.42-1.419l-4.584 4.584a1.004 1.004 0 000 1.418l4.584 4.584a1.001 1.001 0 001.42 0 1.003 1.003 0 000-1.419L118.812 232z"/></g><g fill="#000000" fill-opacity=".56"><path d="M584 222c5.514 0 10 4.486 10 10s-4.486 10-10 10-10-4.486-10-10 4.486-10 10-10zm0 2a8 8 0 100 16 8 8 0 000-16zm3.423 3.34a.891.891 0 011.253 1.251l-2.69 3.111a1.994 1.994 0 01-3.385 1.711 2 2 0 010-2.827 1.99 1.99 0 011.71-.557zm-9.172 3.735a1 1 0 11.74 1.857 1 1 0 01-.74-1.857zm10.759-.008a1 1 0 11.739 1.859 1 1 0 01-.74-1.86zm-9.734-3.264a.998.998 0 111.835.792.999.999 0 11-1.835-.792zm4.351-2.111a1 1 0 11.74 1.86 1 1 0 01-.74-1.86z"/></g><g><path d="M108 207h488v1H108z" fill="#000000" fill-opacity=".12"/><path d="M587.896 188c.283 0 .55-.014.8-.042.25-.028.487-.08.71-.16.222-.079.432-.192.629-.34.197-.149.386-.346.567-.592.213.158.445.312.695.463.25.15.512.278.783.382a3.005 3.005 0 001.123.226c.19 0 .38-.025.57-.076a1.66 1.66 0 00.766-.449c.209-.215.373-.468.494-.758.12-.29.195-.555.223-.797.027-.24.041-.436.041-.584 0-.167-.011-.33-.034-.487a4.21 4.21 0 00-.247-.918 2.864 2.864 0 00-.477-.807c-.2-.237-.44-.428-.72-.574a2.071 2.071 0 00-.97-.22c-.306 0-.574.062-.804.185-.23.123-.433.283-.612.48a3.668 3.668 0 00-.48.675c-.141.253-.275.509-.4.769-.144.287-.286.567-.428.838a3.398 3.398 0 01-.5.723c-.193.211-.426.38-.7.508-.273.128-.617.192-1.03.192h-.138V188h.139zm5.287-1.447c-.186 0-.395-.046-.626-.14-.348-.138-.733-.363-1.155-.674l.375-.758c.116-.227.22-.424.31-.591a3.74 3.74 0 01.257-.418.985.985 0 01.244-.247.466.466 0 01.26-.08c.14 0 .263.028.37.084.106.055.199.126.278.212.078.086.146.18.201.285a2.264 2.264 0 01.216.567c.019.079.03.135.035.167.018.125.028.246.028.362a2.082 2.082 0 01-.129.703c-.053.138-.117.252-.191.34a.444.444 0 01-.23.16 1.003 1.003 0 01-.243.028zm-11.68 6.33a8.524 8.524 0 001.965-.556 7.19 7.19 0 001.725-1.016 6.198 6.198 0 001.322-1.45 5.255 5.255 0 00.755-1.861h.765v-1.363h-.661a6.622 6.622 0 00-.376-2.02 5.342 5.342 0 00-.403-.881 4.395 4.395 0 00-.529-.738c-.552-.593-1.157-.89-1.816-.89a1.77 1.77 0 00-.859.226 2.61 2.61 0 00-.768.664c-.195.25-.364.549-.508.894a3.926 3.926 0 00-.275.925c-.04.272-.06.495-.06.672 0 .185.017.37.05.556.055.353.19.663.403.932.482.599 1.227.928 2.233.988.255.023.484.035.685.035h.79c-.051.348-.194.701-.428 1.06-.234.36-.553.7-.956 1.02-.404.32-.889.608-1.454.863a8.976 8.976 0 01-1.92.598l.32 1.342zm3.755-6.26h-.048c-.204 0-.422-.007-.653-.021a3.506 3.506 0 01-.296-.032 2.472 2.472 0 01-.348-.076 1.635 1.635 0 01-.334-.14.819.819 0 01-.26-.225.651.651 0 01-.143-.33 2.434 2.434 0 01-.025-.31 3.16 3.16 0 01.153-.908c.065-.202.145-.384.24-.546.095-.163.203-.296.324-.4a.577.577 0 01.382-.157c.084 0 .163.014.237.042.074.028.145.064.212.108s.13.093.188.146c.058.053.11.103.156.15.116.134.229.293.338.476.109.183.207.388.296.616.088.227.16.473.215.737.056.264.09.545.105.842-.181.014-.345.022-.49.024l-.297.004h.048zm-8.799-6.296l1.127-1.127-1.14-1.14-1.128 1.133 1.141 1.134zm2.852.014l1.127-1.134-1.14-1.134-1.128 1.127 1.141 1.14zM576.278 188c.38 0 .748-.026 1.103-.077.355-.05.68-.139.977-.264.297-.125.56-.292.79-.5.23-.21.414-.471.553-.787.139-.32.209-.69.209-1.113 0-.074-.003-.148-.007-.222-.033-.515-.153-1.109-.362-1.781a9.034 9.034 0 00-.223-.644 14.061 14.061 0 00-.382-.897 1.713 1.713 0 01-.063-.143l-1.238.612.605 1.489c.097.237.172.463.223.678.05.216.08.385.09.508.01.123.014.215.014.275 0 .111-.007.216-.02.313a1.35 1.35 0 01-.105.369 1.089 1.089 0 01-.39.455c-.167.11-.36.192-.577.247-.218.056-.455.09-.71.101-.255.012-.517.018-.786.018h-1.342V188h1.641zm-7.895 4.883a8.524 8.524 0 001.965-.556 7.19 7.19 0 001.725-1.016 6.198 6.198 0 001.322-1.45 5.255 5.255 0 00.755-1.861h.765v-1.363h-.661a6.622 6.622 0 00-.376-2.02 5.342 5.342 0 00-.403-.881 4.395 4.395 0 00-.529-.738c-.552-.593-1.157-.89-1.816-.89a1.77 1.77 0 00-.859.226 2.61 2.61 0 00-.768.664c-.195.25-.364.549-.508.894a3.926 3.926 0 00-.275.925c-.04.272-.06.495-.06.672 0 .185.017.37.05.556.055.353.19.663.403.932.482.599 1.227.928 2.233.988.255.023.484.035.685.035h.79c-.051.348-.194.701-.428 1.06-.234.36-.553.7-.956 1.02-.404.32-.889.608-1.454.863a8.976 8.976 0 01-1.92.598l.32 1.342zm3.755-6.26h-.048c-.204 0-.422-.007-.653-.021a3.506 3.506 0 01-.296-.032 2.472 2.472 0 01-.348-.076 1.635 1.635 0 01-.334-.14.819.819 0 01-.26-.225.651.651 0 01-.143-.33 2.434 2.434 0 01-.025-.31 3.16 3.16 0 01.153-.908c.065-.202.145-.384.24-.546.095-.163.203-.296.324-.4a.577.577 0 01.382-.157c.084 0 .163.014.237.042.074.028.145.064.212.108s.13.093.188.146c.058.053.11.103.156.15.116.134.229.293.338.476.109.183.207.388.296.616.088.227.16.473.215.737.056.264.09.545.105.842-.181.014-.345.022-.49.024l-.297.004h.048zm-10.051 6.358c.39-.19.773-.405 1.151-.644.378-.238.738-.5 1.079-.782a9.21 9.21 0 00.946-.905c.29-.32.54-.656.75-1.008.212-.353.377-.718.495-1.096.118-.378.177-.769.177-1.172 0-.204-.016-.413-.048-.626a9.948 9.948 0 00-.122-.65 19.8 19.8 0 00-.16-.668 95.344 95.344 0 01-.17-.672 10.346 10.346 0 00-.175-.636c-.064-.211-.13-.426-.194-.644l-1.322.418c.125.39.243.779.355 1.168.05.19.104.385.16.585.055.2.106.399.153.598.046.2.084.394.115.584.03.19.045.371.045.543 0 .45-.11.886-.327 1.308-.218.422-.507.82-.866 1.196-.36.376-.769.723-1.228 1.04-.46.318-.932.597-1.42.839l.606 1.224zm-11.193-.098a8.398 8.398 0 001.405-.344c.46-.155.896-.348 1.311-.577.416-.23.803-.498 1.162-.804a5.91 5.91 0 00.95-1.022c.273-.376.498-.785.675-1.228.176-.443.29-.92.34-1.43a6.441 6.441 0 00.007-1.266 6.891 6.891 0 00-.23-1.217 5.77 5.77 0 00-.434-1.096 4.275 4.275 0 00-.623-.9c-.551-.594-1.157-.891-1.815-.891a1.77 1.77 0 00-.86.226 2.61 2.61 0 00-.768.664c-.195.25-.364.549-.508.894a3.926 3.926 0 00-.275.925c-.04.272-.059.495-.059.672 0 .185.016.37.049.556.056.353.19.663.403.932.483.599 1.227.928 2.233.988.255.023.484.035.686.035h.79c-.052.348-.194.701-.429 1.06-.234.36-.553.7-.956 1.02-.404.32-.888.608-1.454.863a8.976 8.976 0 01-1.92.598l.32 1.342zm3.755-6.26h-.047c-.204 0-.422-.007-.654-.021a3.506 3.506 0 01-.296-.032 2.472 2.472 0 01-.348-.076 1.635 1.635 0 01-.334-.14.819.819 0 01-.26-.225.651.651 0 01-.143-.33 2.434 2.434 0 01-.024-.31c0-.102.007-.207.02-.313a3.16 3.16 0 01.133-.595c.065-.202.145-.384.24-.546.095-.163.203-.296.323-.4a.577.577 0 01.383-.157c.083 0 .162.014.236.042.074.028.145.064.212.108.068.044.13.093.188.146.058.053.11.103.157.15.116.134.228.293.337.476.11.183.208.388.296.616.088.227.16.473.215.737.056.264.09.545.105.842-.181.014-.345.022-.49.024l-.296.004h.047zm-10.524 1.44c.065-.77.103-1.496.115-2.178.012-.682.017-1.226.017-1.635 0-.677-.007-1.4-.02-2.17a63.584 63.584 0 00-.355-5.064l-1.364.208c.158 1.461.283 3.316.376 5.566.014.384.02.793.02 1.224 0 .357-.004.73-.013 1.12a64.701 64.701 0 01-.146 2.852l1.37.077zm-5.551-7.653l1.134-1.133-1.141-1.141-1.134 1.134 1.14 1.14zM537.46 188c.38 0 .734-.026 1.06-.077.328-.05.623-.139.888-.264.264-.125.497-.292.699-.5.202-.21.372-.471.511-.787.14-.32.209-.69.209-1.113 0-.074-.002-.148-.007-.222-.033-.515-.153-1.109-.362-1.781a9.033 9.033 0 00-.222-.644 14.061 14.061 0 00-.383-.897 1.713 1.713 0 01-.063-.143l-1.238.612.605 1.489c.098.237.172.463.223.678.05.216.081.385.09.508.01.123.014.215.014.275 0 .111-.007.216-.02.313a1.35 1.35 0 01-.105.369 1.245 1.245 0 01-.348.455c-.139.11-.301.192-.487.247-.185.056-.392.09-.619.101-.227.012-.475.018-.744.018h-.807V188h1.106zm-5.21-6.588l1.126-1.127-1.14-1.14-1.127 1.133 1.14 1.134zm2.852.014l1.127-1.134-1.141-1.134-1.127 1.127 1.14 1.141zM531.464 188c.436 0 .815-.017 1.138-.052.322-.035.604-.088.845-.16a2.598 2.598 0 001.113-.65c.2.254.454.462.765.622.31.16.7.24 1.169.24h.139v-1.363h-.14c-.236 0-.43-.054-.58-.16a1.141 1.141 0 01-.355-.404 1.905 1.905 0 01-.184-.529 4.913 4.913 0 01-.077-.542 21.336 21.336 0 00-.125-1.204 6.535 6.535 0 00-.202-.946l-1.307.369c.102.352.172.665.212.939.04.274.059.543.059.807 0 .278-.046.522-.14.73a1.256 1.256 0 01-.434.522c-.197.14-.452.244-.765.313-.313.07-.69.105-1.13.105h-1.037V188h1.036zm-5.843-7.812l1.127-1.127-1.141-1.141-1.127 1.134 1.14 1.134zm2.852.014l1.127-1.134-1.14-1.134-1.128 1.127 1.141 1.14zm-4.87 7.798c.71 0 1.378-.04 2.004-.122.626-.08 1.157-.205 1.593-.372a9.153 9.153 0 001.649.38c.565.076 1.138.114 1.718.114h.14v-1.363h-.133c-.148 0-.304-.005-.466-.014a16.345 16.345 0 01-.95-.084 4.385 4.385 0 01-.414-.07c.25-.273.442-.585.574-.935.132-.35.203-.628.212-.835.01-.206.014-.33.014-.372 0-.32-.041-.633-.125-.94a2.852 2.852 0 00-.456-.938 2.47 2.47 0 00-.775-.682 2.385 2.385 0 00-1.085-.292h-.077c-.31 0-.614.079-.911.236a2.694 2.694 0 00-.863.738c-.25.32-.442.672-.574 1.057a3.766 3.766 0 00-.198 1.231c0 .668.301 1.266.904 1.795-.208.023-.47.047-.786.07-.315.023-.647.035-.995.035h-.139V188h.14zm3.548-1.99a2.078 2.078 0 01-.95-.553 1.498 1.498 0 01-.264-.365.796.796 0 01-.094-.355c0-.283.041-.541.122-.775.081-.234.185-.434.31-.599a1.53 1.53 0 01.407-.382.784.784 0 01.407-.136c.153 0 .299.062.438.185.14.122.256.28.351.473.095.192.157.374.185.546.027.171.041.31.041.417 0 .13-.014.26-.041.39a1.68 1.68 0 01-.29.66 1.547 1.547 0 01-.622.494zm-3.408 1.99v-1.363h-.14a2.77 2.77 0 01-.754-.09c-.211-.061-.37-.145-.477-.251a.58.58 0 01-.184-.359 3.758 3.758 0 01-.025-.441v-3.493a48.553 48.553 0 00-.066-2.546 31.39 31.39 0 00-.076-1.12c-.03-.343-.066-.633-.108-.87l-1.363.251c.041.218.077.498.107.839.03.34.056.713.077 1.116.02.404.036.82.045 1.252.01.432.014.847.014 1.245.005.409.007.796.007 1.162v.27c-.001.263-.003.502-.007.718a211.587 211.587 0 00-.013.957v.198c0 .084.003.178.006.282a2.686 2.686 0 00.247 1.012c.081.176.198.34.351.494.25.25.556.436.915.556.36.12.794.181 1.304.181h.14zm-9.879 4.563c.242 0 .492-.018.752-.055a4.818 4.818 0 002.076-.828c.322-.227.608-.509.856-.845a4.16 4.16 0 00.595-1.183c.148-.452.222-.97.222-1.555 0-.366-.006-.8-.017-1.304-.012-.503-.026-1.041-.042-1.614a180.58 180.58 0 00-.059-1.77c-.023-.608-.046-1.201-.07-1.781a242.58 242.58 0 00-.18-4.265l-1.364.056a306.526 306.526 0 01.18 4.237c.024.575.047 1.165.07 1.77.024.605.043 1.193.06 1.764.016.57.03 1.106.041 1.607.012.5.018.934.018 1.3 0 .395-.052.746-.157 1.054-.104.309-.243.58-.417.814a2.709 2.709 0 01-.602.595 3.418 3.418 0 01-1.43.588 4.02 4.02 0 01-.608.052 2.722 2.722 0 01-.7-.094 3.177 3.177 0 01-.566-.209 2.989 2.989 0 01-.553-.344 2.395 2.395 0 01-.473-.494 2.388 2.388 0 01-.327-.657 2.665 2.665 0 01-.122-.832 6.202 6.202 0 01.369-2.19c.05-.145.107-.278.17-.4.063-.124.126-.236.191-.338l-1.245-.557c-.158.227-.297.51-.417.849a7.737 7.737 0 00-.292 1.085 8.18 8.18 0 00-.14 1.551v.056c0 .44.056.84.167 1.197a3.48 3.48 0 001.158 1.757c.263.21.54.385.832.524a4.678 4.678 0 002.024.46zm-14.727-13.544l1.127-1.127-1.14-1.14-1.127 1.133 1.14 1.134zm2.853.014l1.127-1.134-1.141-1.134-1.127 1.127 1.14 1.141zM497.718 188c.46-.005.912-.022 1.357-.052.445-.03.87-.085 1.276-.164a6.536 6.536 0 001.134-.323c.35-.137.661-.314.932-.532a2.74 2.74 0 00.672-.793c.176-.311.292-.677.348-1.1a4.997 4.997 0 00.02-1.126 5.945 5.945 0 00-.212-1.096 5.3 5.3 0 00-.407-1.002 4.113 4.113 0 00-.57-.824c-.501-.543-1.058-.814-1.67-.814a1.71 1.71 0 00-.807.205c-.26.137-.494.344-.702.623-.367.473-.615 1.062-.745 1.767-.027.19-.041.364-.041.521v.119c.009.194.034.368.076.521.042.153.095.29.16.407.065.119.13.22.195.303.12.153.267.289.438.407.172.118.362.217.57.296.21.078.432.138.668.177.237.04.48.06.73.06h.703c-.037.04-.074.083-.11.124a1.454 1.454 0 01-.147.14 1.95 1.95 0 01-.522.278 6.013 6.013 0 01-.866.254c-.34.076-.728.139-1.161.187a12.73 12.73 0 01-1.416.074h-.14V188h.237zm3.82-3.798c-.21 0-.432-.005-.668-.014a2.745 2.745 0 01-.56-.09 1.009 1.009 0 01-.404-.21.633.633 0 01-.202-.305 1.224 1.224 0 01-.045-.32c0-.08.007-.163.021-.25.042-.237.1-.446.177-.627.077-.18.16-.334.247-.459a1.16 1.16 0 01.265-.282.419.419 0 01.23-.094c.13 0 .25.04.364.122.114.081.208.164.282.247.237.264.426.596.567.995.142.399.229.823.261 1.273-.153.01-.332.014-.536.014zM497.76 188v-1.363h-.14c-.277 0-.507-.036-.688-.108a1.244 1.244 0 01-.452-.3 1.755 1.755 0 01-.31-.466 15.474 15.474 0 01-.267-.608c-.181-.422-.352-.827-.512-1.214a3908.503 3908.503 0 01-1.617-3.927l-1.266.529 2.198 5.287a2.64 2.64 0 01-.925.584c-.25.097-.463.154-.637.17a4.617 4.617 0 01-.393.025c-.185 0-.37-.021-.556-.063a3.191 3.191 0 01-.842-.32 4.114 4.114 0 01-.842-.619l-.786 1.106c.394.408.825.725 1.29.95a3.45 3.45 0 001.52.337c.33 0 .627-.02.891-.06a4.2 4.2 0 00.734-.173c.225-.077.436-.173.633-.289.197-.116.393-.25.588-.403a2.4 2.4 0 00.348.358c.134.114.29.212.47.296.178.083.384.15.618.198.235.049.502.073.804.073h.139zm-14.351 4.98c.39-.19.773-.404 1.151-.643.378-.238.737-.5 1.078-.782a9.21 9.21 0 00.946-.905c.29-.32.54-.656.752-1.008.21-.353.375-.718.494-1.096.118-.378.177-.769.177-1.172 0-.204-.016-.413-.049-.626a9.948 9.948 0 00-.121-.65 19.8 19.8 0 00-.16-.668 95.344 95.344 0 01-.17-.672 10.346 10.346 0 00-.175-.636c-.065-.211-.13-.426-.195-.644l-1.321.418c.125.39.243.779.354 1.168l.16.585c.056.2.107.399.153.598.047.2.085.394.115.584.03.19.045.371.045.543 0 .45-.109.886-.326 1.308-.218.422-.507.82-.867 1.196-.359.376-.768.723-1.227 1.04-.46.318-.933.597-1.42.839l.606 1.224zm-8.098-10.691l1.127-1.127-1.14-1.141-1.128 1.134 1.141 1.134zm2.852.014l1.127-1.134-1.14-1.134-1.127 1.127 1.14 1.14zM476.737 188c.265 0 .543-.012.835-.035.339-.023.684-.06 1.037-.111a14.996 14.996 0 002.059-.449c.32-.095.619-.2.897-.316.278-.116.522-.24.73-.369.219-.14.387-.277.505-.414a1.11 1.11 0 00.237-.407 1.383 1.383 0 00.052-.542 4.954 4.954 0 00-.112-.634 6.504 6.504 0 00-.344-1.053 12.893 12.893 0 00-.435-.933c-.144-.276-.27-.5-.379-.674a8.813 8.813 0 01-.177-.29l-1.155.752a8.29 8.29 0 01.33.525c.09.156.19.334.296.536.107.202.208.414.303.637.095.222.178.448.25.678.072.23.117.449.136.657-.39.218-.81.396-1.263.532-.452.137-.908.245-1.367.324-.459.079-.909.133-1.35.163-.44.03-.843.046-1.21.046-1.298-.005-2.353-.13-3.165-.373-.812-.243-1.331-.592-1.558-1.047a1.365 1.365 0 01-.14-.619c0-.255.056-.535.168-.841a2.687 2.687 0 01.208-.477 5.523 5.523 0 01.244-.4l-1.106-.82c-.01.013-.035.051-.077.114a5.562 5.562 0 00-.344.609 6.33 6.33 0 00-.199.459c-.18.478-.27.937-.27 1.377 0 .44.097.849.291 1.225.344.69.993 1.222 1.948 1.593 1.007.37 2.34.563 4 .577h.125z" fill-opacity=".87" fill="#000000" fill-rule="nonzero"/><path d="M160 180v8h-8a4 4 0 010-8h8zm39 0v8h-12v-8h12zm9 0a4 4 0 010 8h-8v-8zm-22 0v8h-12v-8h12zm-13 0v8h-12v-8h12z" fill="#EEE"/><path fill="#7CB342" d="M148 180h51v8h-51z"/><path d="M174 180v8h-1v-8h1zm-13 0v8h-1v-8h1zm-13 4a4 4 0 004 4h-4zm39-4v8h-1v-8h1zm13 0v8h-1v-8h1zm12 4v4h-4a4 4 0 004-4zm-60-4a4 4 0 00-4 4v-4zm60 0v4a4 4 0 00-4-4h4z" fill="#FFF"/><g fill="#000000" fill-opacity=".32"><path d="M118.813 184l3.873-3.874a1.003 1.003 0 10-1.42-1.419l-4.584 4.584a1.004 1.004 0 000 1.418l4.584 4.584a1.001 1.001 0 001.42 0 1.003 1.003 0 000-1.419L118.812 184z"/></g></g><g><path d="M108 159h488v1H108z" fill="#000000" fill-opacity=".12"/><path d="M550.22 140.55c.087 0 .178-.003.27-.007a7.422 7.422 0 001.28-.153 6.581 6.581 0 001.357-.473 4.5 4.5 0 001.078-.717c.2-.18.377-.405.532-.671a4.82 4.82 0 00.39-.852 4.967 4.967 0 00.282-1.552c0-.079-.003-.157-.007-.236a51.84 51.84 0 00-.122-1.555 85.962 85.962 0 00-.456-3.937 43.104 43.104 0 00-.146-1.013l-1.363.133.716 6.47a2.367 2.367 0 01-.049.696c-.06.25-.147.493-.26.73a3.287 3.287 0 01-.418.657 2.243 2.243 0 01-.532.483 14.034 14.034 0 00-.765-2.39 25.634 25.634 0 00-1.37-2.779 31.61 31.61 0 00-1.21-2.007 27.527 27.527 0 00-.448-.666l-.074-.11a.366.366 0 01-.028-.048l-1.134.793.146.205c.092.132.215.316.368.55.153.234.329.51.526.828.197.317.4.665.612 1.043.21.378.424.777.64 1.197.215.42.417.847.605 1.283.188.436.354.873.497 1.311.144.439.253.864.327 1.277a5.072 5.072 0 01-.855.129c-.209.007-.348.01-.418.01a3.87 3.87 0 01-.758-.07l-.236 1.357c.338.056.679.084 1.022.084zm-6.429-.467c.432 0 .81-.06 1.134-.18.334-.121.612-.295.835-.522.223-.227.39-.502.5-.824a3.3 3.3 0 00.168-1.082c0-.265-.025-.536-.073-.814a7.696 7.696 0 00-.188-.814 12.239 12.239 0 00-.86-2.17l-1.217.64a12.272 12.272 0 01.588 1.422c.1.295.186.595.258.901.072.306.107.591.107.856a2 2 0 01-.07.55.93.93 0 01-.225.403.764.764 0 01-.355.212 1.566 1.566 0 01-.4.052c-.079 0-.162-.005-.25-.014a.65.65 0 01-.352-.136.847.847 0 01-.23-.292 1.47 1.47 0 01-.124-.41 3.025 3.025 0 01-.039-.49c0-.19.014-.408.042-.651.028-.243.06-.473.094-.689l.05-.3.044-.253.035-.222-1.336-.244c-.028.19-.066.414-.115.671a9.558 9.558 0 01-.188.797 7.21 7.21 0 01-.278.807c-.109.264-.236.5-.383.71a2.008 2.008 0 01-.5.507c-.188.13-.4.195-.637.195a.735.735 0 01-.369-.083.622.622 0 01-.23-.223.974.974 0 01-.117-.316 1.894 1.894 0 01-.035-.366c0-.18.018-.377.055-.588.038-.21.082-.417.133-.619a12.77 12.77 0 01.292-.998l-1.378-.292c-.046.227-.102.468-.167.723a7.784 7.784 0 01-.236.762 5.556 5.556 0 01-.327.727 2.873 2.873 0 01-.442.616c-.17.178-.363.322-.58.431a1.626 1.626 0 01-.738.164h-.153V140h.146c.269 0 .516-.022.74-.066a2.704 2.704 0 001.13-.494c.159-.118.307-.252.447-.4.074.172.18.322.316.452.137.13.289.239.456.327.167.088.342.154.525.198.183.044.36.066.532.066.394 0 .768-.095 1.12-.285.353-.19.668-.447.946-.772.098.148.216.286.355.414.14.128.29.239.452.334.162.095.333.17.511.226.179.056.356.083.533.083h.048zm-12.361-6.67l1.127-1.128-1.141-1.14-1.127 1.133 1.14 1.134zm2.852.013l1.127-1.134-1.141-1.134-1.127 1.127 1.14 1.141zM530.643 140c.436 0 .816-.017 1.138-.052.322-.035.604-.088.845-.16a2.598 2.598 0 001.113-.65c.2.254.455.462.765.622.311.16.7.24 1.169.24h.14v-1.363h-.14c-.236 0-.43-.054-.58-.16a1.141 1.141 0 01-.356-.404 1.905 1.905 0 01-.184-.529 4.913 4.913 0 01-.076-.542 21.335 21.335 0 00-.126-1.204 6.534 6.534 0 00-.201-.946l-1.308.369c.102.352.172.665.212.939.04.274.059.543.059.807 0 .278-.046.522-.14.73a1.256 1.256 0 01-.434.522c-.197.14-.452.244-.765.313-.313.07-.69.105-1.13.105h-1.037V140h1.036zm-5.926 0c.435 0 .815-.017 1.137-.052.322-.035.604-.088.845-.16a2.598 2.598 0 001.113-.65c.2.254.455.462.765.622.311.16.7.24 1.17.24h.138v-1.363h-.139c-.236 0-.43-.054-.58-.16a1.141 1.141 0 01-.356-.404 1.905 1.905 0 01-.184-.529 4.913 4.913 0 01-.076-.542 21.339 21.339 0 00-.126-1.204 6.535 6.535 0 00-.201-.946l-1.308.369c.102.352.173.665.212.939.04.274.06.543.06.807 0 .278-.047.522-.14.73a1.256 1.256 0 01-.435.522c-.197.14-.452.244-.765.313-.313.07-.69.105-1.13.105h-1.037V140h1.037zm.257 3.402l1.127-1.127-1.141-1.141-1.127 1.134 1.14 1.134zm2.852.014l1.127-1.134-1.14-1.134-1.128 1.127 1.141 1.14zM523.958 140v-1.363h-.195a4.643 4.643 0 01-.758-.07 2.482 2.482 0 01-.619-.195 2.725 2.725 0 01-.716-.48 3.246 3.246 0 01-.498-.598 3.881 3.881 0 01-.34-.661c-.091-.227-.173-.452-.248-.675a5.431 5.431 0 00-.504-1.06 8.138 8.138 0 00-.751-1.037 9.893 9.893 0 00-.953-.974c-.35-.313-.72-.606-1.11-.88l5.51-2.324-.522-1.266-6.24 2.686-.188 1.537c.186.144.404.315.654.515a17.591 17.591 0 011.562 1.412c.257.264.483.531.678.8.195.269.34.523.438.762.098.239.146.455.146.65 0 .051-.002.102-.007.153a1.193 1.193 0 01-.33.682c-.193.209-.493.39-.9.543-.312.12-.764.216-1.357.288-.594.072-1.364.129-2.31.17a8.51 8.51 0 01-.89-.014 11.983 11.983 0 01-2.004-.32 8.132 8.132 0 01-.911-.284 3.558 3.558 0 01-.717-.362c-.2-.135-.336-.278-.41-.432a1.06 1.06 0 01-.105-.48v-.062c.01-.2.05-.406.119-.62.07-.213.159-.421.268-.625a4.99 4.99 0 01.337-.55l-1.1-.82c-.013.018-.04.06-.08.124l-.145.247a7.28 7.28 0 00-.4.81c-.204.465-.317.815-.338 1.051-.02.237-.031.4-.031.487 0 .283.042.543.125.78.107.31.275.586.505.827.23.241.502.454.817.637.315.183.667.337 1.054.462a9.73 9.73 0 001.217.306c.425.08.86.136 1.305.17.445.036.885.053 1.321.053.821 0 1.539-.022 2.153-.066a8.473 8.473 0 001.61-.254c.46-.125.854-.301 1.183-.529.33-.227.617-.524.863-.89a3.897 3.897 0 001.572 1.297c.636.29 1.336.437 2.101.442h.14zm-27.763 4.883a8.398 8.398 0 001.405-.344c.46-.155.896-.348 1.311-.577.415-.23.803-.498 1.162-.804a5.91 5.91 0 00.95-1.022c.273-.376.498-.785.674-1.228.177-.443.29-.92.341-1.43a6.442 6.442 0 00.007-1.266 6.891 6.891 0 00-.23-1.217 5.77 5.77 0 00-.434-1.096 4.275 4.275 0 00-.623-.9c-.552-.594-1.157-.891-1.815-.891a1.77 1.77 0 00-.86.226 2.61 2.61 0 00-.768.664c-.195.25-.364.549-.508.894a3.926 3.926 0 00-.275.925c-.04.272-.059.495-.059.672 0 .185.016.37.049.556.055.353.19.663.403.932.483.599 1.227.928 2.233.988.255.023.484.035.685.035h.79c-.051.348-.194.701-.428 1.06-.234.36-.553.7-.956 1.02-.404.32-.888.608-1.454.863a8.976 8.976 0 01-1.92.598l.32 1.342zm3.755-6.26h-.047c-.204 0-.422-.007-.654-.021a3.506 3.506 0 01-.296-.032 2.472 2.472 0 01-.348-.076 1.635 1.635 0 01-.334-.14.819.819 0 01-.26-.225.651.651 0 01-.143-.33 2.434 2.434 0 01-.025-.31 3.16 3.16 0 01.153-.908c.065-.202.145-.384.24-.546.096-.163.203-.296.324-.4a.577.577 0 01.383-.157c.083 0 .162.014.236.042.074.028.145.064.212.108.068.044.13.093.188.146.058.053.11.103.157.15.116.134.228.293.337.476.109.183.208.388.296.616.088.227.16.473.215.737.056.264.09.545.105.842-.181.014-.345.022-.49.024l-.296.004h.047zm-14.886 6.358c.39-.19.774-.405 1.152-.644.378-.238.737-.5 1.078-.782a9.21 9.21 0 00.946-.905c.29-.32.54-.656.751-1.008.211-.353.376-.718.494-1.096.118-.378.178-.769.178-1.172 0-.204-.017-.413-.05-.626a9.948 9.948 0 00-.12-.65 19.8 19.8 0 00-.16-.668 95.343 95.343 0 01-.171-.672 10.345 10.345 0 00-.174-.636c-.065-.211-.13-.426-.195-.644l-1.322.418c.126.39.244.779.355 1.168.051.19.104.385.16.585.056.2.107.399.153.598.047.2.085.394.115.584.03.19.045.371.045.543 0 .45-.109.886-.327 1.308-.218.422-.506.82-.866 1.196s-.769.723-1.228 1.04c-.459.318-.932.597-1.419.839l.605 1.224zm-4.07-4.981c.381 0 .749-.026 1.103-.077.355-.05.681-.139.978-.264.297-.125.56-.292.79-.5.229-.21.413-.471.552-.787.14-.32.21-.69.21-1.113 0-.074-.003-.148-.008-.222-.032-.515-.153-1.109-.362-1.781a9.033 9.033 0 00-.222-.644 14.061 14.061 0 00-.383-.897 1.713 1.713 0 01-.062-.143l-1.239.612.606 1.489c.097.237.171.463.222.678.051.216.081.385.09.508.01.123.014.215.014.275 0 .111-.006.216-.02.313a1.35 1.35 0 01-.105.369 1.089 1.089 0 01-.39.455c-.166.11-.359.192-.577.247-.218.056-.454.09-.71.101-.254.012-.516.018-.785.018h-1.343V140h1.642zm-.347 3.402l1.127-1.127-1.141-1.141-1.127 1.134 1.141 1.134zm2.852.014l1.127-1.134-1.14-1.134-1.128 1.127 1.141 1.14zm-6.838-9.83l1.134-1.134-1.141-1.14-1.134 1.133 1.14 1.141zM474.706 140c.682 0 1.255-.07 1.718-.212.464-.142.842-.358 1.134-.65.2.254.455.462.765.622.311.16.7.24 1.17.24h.138v-1.363h-.139c-.236 0-.43-.054-.58-.16a1.141 1.141 0 01-.355-.404 1.905 1.905 0 01-.185-.529 4.913 4.913 0 01-.076-.542 21.339 21.339 0 00-.126-1.204 6.535 6.535 0 00-.201-.946l-1.308.369c.102.352.173.665.212.939.04.274.06.543.06.807 0 .552-.177.968-.53 1.249-.352.28-.918.42-1.697.42h-.257V140h.257zm-7.868-9.927l5.593-2.365-.327-.703-5.217 2.178-.049.89zm7.889 9.927v-1.363h-.195a4.643 4.643 0 01-.758-.07 2.482 2.482 0 01-.62-.195 2.725 2.725 0 01-.716-.48 3.246 3.246 0 01-.497-.598 3.881 3.881 0 01-.341-.661 12.61 12.61 0 01-.247-.675 5.431 5.431 0 00-.504-1.06 8.138 8.138 0 00-.752-1.037 9.893 9.893 0 00-.953-.974c-.35-.313-.72-.606-1.11-.88l5.51-2.324-.521-1.266-6.24 2.686-.188 1.537c.185.144.403.315.654.515a17.592 17.592 0 011.561 1.412c.258.264.484.531.679.8.194.269.34.523.438.762.097.239.146.455.146.65 0 .051-.002.102-.007.153a1.193 1.193 0 01-.33.682c-.193.209-.493.39-.901.543-.31.12-.763.216-1.357.288-.593.072-1.363.129-2.31.17a8.51 8.51 0 01-.89-.014 11.983 11.983 0 01-2.003-.32 8.132 8.132 0 01-.912-.284 3.558 3.558 0 01-.716-.362c-.2-.135-.336-.278-.41-.432a1.06 1.06 0 01-.105-.48v-.062c.01-.2.049-.406.118-.62.07-.213.16-.421.268-.625a4.99 4.99 0 01.338-.55l-1.1-.82c-.013.018-.04.06-.08.124l-.146.247a7.28 7.28 0 00-.4.81c-.204.465-.316.815-.337 1.051-.02.237-.031.4-.031.487 0 .283.041.543.125.78.107.31.275.586.504.827.23.241.502.454.818.637.315.183.666.337 1.054.462a9.73 9.73 0 001.217.306c.424.08.86.136 1.304.17.446.036.886.053 1.322.053.821 0 1.539-.022 2.153-.066a8.473 8.473 0 001.61-.254c.46-.125.854-.301 1.183-.529.33-.227.617-.524.863-.89a3.897 3.897 0 001.572 1.297c.635.29 1.336.437 2.1.442h.14zm-20.605.02c.162 0 .34-.006.535-.02a5.445 5.445 0 001.134-.205c.177-.054.33-.12.46-.198.486-.26.85-.586 1.088-.978.239-.392.358-.817.358-1.276 0-.613-.213-1.215-.64-1.81a2.929 2.929 0 00-.605-.583 7.993 7.993 0 00-.9-.578c-.342-.19-.713-.38-1.114-.57-.4-.19-.817-.38-1.248-.57l-2.421-.995-.661 1.252.55.215a2.495 2.495 0 00-.717.512c-.2.206-.365.429-.498.667a3.108 3.108 0 00-.386 1.478c0 .34.087.69.261 1.055.174.364.435.734.783 1.11a10.685 10.685 0 01-.884.083c-.171.009-.363.016-.574.02a33.88 33.88 0 01-.733.008h-.188V140h.188c.329 0 .67-.007 1.022-.02.353-.015.698-.037 1.037-.067.338-.03.662-.07.97-.122a6.64 6.64 0 00.831-.188 5.4 5.4 0 001.166.327c.382.06.778.09 1.186.09zm-2.421-1.905a4.73 4.73 0 01-.501-.38 2.933 2.933 0 01-.414-.438 2.078 2.078 0 01-.282-.497 1.502 1.502 0 01-.104-.557c0-.208.044-.426.132-.653.088-.228.21-.432.365-.613.156-.18.322-.313.498-.396.176-.084.343-.125.5-.125.084 0 .17.009.258.027.2.042.36.118.484.227.122.109.217.234.285.375.067.142.111.29.132.445.02.156.031.303.031.442a2.392 2.392 0 01-.769 1.74c-.173.162-.379.296-.615.403zm2.289.57a3.577 3.577 0 01-.64-.049c.176-.185.336-.389.48-.612.143-.222.265-.448.365-.678.1-.23.177-.458.233-.685.055-.227.083-.438.083-.633 0-.14-.002-.288-.007-.445a2.018 2.018 0 00-.083-.501c.33.153.617.322.862.508.246.185.451.374.616.567.165.192.289.383.372.573.084.19.126.367.126.53 0 .19-.043.371-.13.545a1.192 1.192 0 01-.417.456c-.192.13-.441.233-.747.31a4.652 4.652 0 01-1.113.114zM448 140v-1.363h-.14a2.77 2.77 0 01-.754-.09c-.21-.061-.37-.145-.476-.251a.58.58 0 01-.185-.359 3.758 3.758 0 01-.024-.441v-3.493a48.553 48.553 0 00-.066-2.546 31.39 31.39 0 00-.077-1.12c-.03-.343-.066-.633-.108-.87l-1.363.251c.042.218.078.498.108.839.03.34.055.713.076 1.116.021.404.036.82.046 1.252.009.432.013.847.013 1.245.005.409.007.796.007 1.162 0 .371-.002.7-.007.988a211.355 211.355 0 00-.013 1.037c0 .11.002.244.006.4a2.686 2.686 0 00.247 1.012c.082.176.199.34.352.494.25.25.555.436.915.556.359.12.794.181 1.304.181H448z" fill-opacity=".87" fill="#000000" fill-rule="nonzero"/><path d="M120 132v8h-8a4 4 0 010-8h8zm39 0v8h-12v-8h12zm9 0a4 4 0 010 8h-8v-8zm-22 0v8h-12v-8h12zm-13 0v8h-12v-8h12z" fill="#EEE"/><path fill="#2E7D32" d="M108 132h64v8h-64z"/><path d="M134 132v8h-1v-8h1zm-13 0v8h-1v-8h1zm-13 4a4 4 0 004 4h-4zm39-4v8h-1v-8h1zm13 0v8h-1v-8h1zm12 4v4h-4a4 4 0 004-4zm-60-4a4 4 0 00-4 4v-4zm60 0v4a4 4 0 00-4-4h4z" fill="#FFF"/><g fill="#000000" fill-opacity=".56"><path d="M584 127.144c5.514 0 10 4.486 10 10s-4.486 10-10 10-10-4.486-10-10 4.486-10 10-10zm0 2a8 8 0 100 16 8 8 0 000-16zm0 2.25c3.17 0 5.75 2.58 5.75 5.75s-2.58 5.75-5.75 5.75-5.75-2.58-5.75-5.75 2.58-5.75 5.75-5.75zm.958 8.344c-.3.112-.62.18-.958.18-.337 0-.658-.068-.958-.18l-.884 1.218a4.193 4.193 0 001.842.438c.664 0 1.284-.166 1.843-.438zm3.235-3.168l-1.43.465c.002.037.012.07.012.109 0 .648-.233 1.237-.606 1.709l.89 1.227a4.23 4.23 0 001.19-2.936c0-.196-.031-.384-.056-.574zm-8.385 0c-.025.19-.058.378-.058.574 0 1.14.457 2.172 1.19 2.936l.89-1.227a2.746 2.746 0 01-.604-1.71c0-.037.01-.071.01-.108zm4.192-.701a1.276 1.276 0 000 2.55 1.276 1.276 0 000-2.55zm-.75-2.9a4.234 4.234 0 00-2.976 2.175l1.42.462a2.775 2.775 0 011.556-1.121zm1.5 0v1.516a2.774 2.774 0 011.557 1.12l1.42-.461a4.238 4.238 0 00-2.977-2.174z"/></g></g><g><path d="M108 111h488v1H108z" fill="#000000" fill-opacity=".12"/><path d="M591.82 84.327l1.126-1.127-1.14-1.14-1.128 1.133 1.141 1.134zm2.851.014l1.127-1.134-1.14-1.134-1.128 1.127 1.141 1.14zM591.638 92c.38 0 .748-.026 1.103-.077.355-.05.68-.139.977-.264.297-.125.56-.292.79-.5.23-.21.414-.471.553-.787.139-.32.209-.69.209-1.113 0-.074-.003-.148-.007-.222-.033-.515-.153-1.109-.362-1.781a9.034 9.034 0 00-.223-.644 14.061 14.061 0 00-.382-.897 1.713 1.713 0 01-.063-.143l-1.238.612.605 1.489c.097.237.172.463.223.678.05.216.08.385.09.508.01.123.014.215.014.275 0 .111-.007.216-.02.313a1.35 1.35 0 01-.105.369 1.089 1.089 0 01-.39.455c-.167.11-.36.192-.577.247-.218.056-.455.09-.71.101-.255.012-.517.018-.786.018h-1.342V92h1.641zm-9.46 0c.338 0 .692-.019 1.06-.056.369-.037.736-.091 1.103-.163.366-.072.722-.16 1.068-.264.345-.105.664-.227.956-.366.51.306 1.08.524 1.712.654.63.13 1.317.195 2.059.195h.139v-1.363h-.14c-.472 0-.923-.03-1.352-.09a5.286 5.286 0 01-1.124-.272c.241-.181.48-.4.717-.658a6.21 6.21 0 00.63-.807c.182-.28.32-.543.41-.79a1.9 1.9 0 00.135-.64c0-.046-.002-.092-.007-.138a1.217 1.217 0 00-.215-.661 1.895 1.895 0 00-.355-.383 2.549 2.549 0 00-.598-.361 4.275 4.275 0 00-1.079-.307 6.78 6.78 0 00-.89-.07c-.213 0-.429.012-.647.036-.195.018-.41.052-.647.1a5.301 5.301 0 00-1.492.56 4.072 4.072 0 00-.741.536l-.07.967c.195.223.389.449.581.678l.57.675c.189.22.375.431.56.633.186.202.37.386.55.553a4.372 4.372 0 01-.598.178 11.206 11.206 0 01-2.289.26h-.146V92h.14zm4.201-2.483a8.397 8.397 0 01-.98-.94c-.32-.357-.673-.77-1.058-1.238.297-.171.619-.299.967-.382a4.429 4.429 0 011.036-.126c.344 0 .673.042.988.126.316.083.594.204.835.361a.755.755 0 01-.08.296 3.159 3.159 0 01-.212.386 5.559 5.559 0 01-.685.866 4.702 4.702 0 01-.407.376c-.14.113-.274.205-.404.275zM578.393 92c.135 0 .285-.01.452-.028.167-.018.335-.053.505-.104.169-.051.331-.123.487-.216.155-.093.29-.215.406-.369.089.098.196.19.324.279.127.088.271.164.431.23a2.875 2.875 0 001.096.208h.223v-1.363h-.154c-.306-.005-.539-.054-.699-.147a1.057 1.057 0 01-.372-.347 1.234 1.234 0 01-.177-.456 2.495 2.495 0 01-.038-.393l.006-.372a331.97 331.97 0 00.038-3.071c.003-.432.003-.869 0-1.312a72.374 72.374 0 00-.017-1.273c-.009-.406-.024-.783-.045-1.13a11.82 11.82 0 00-.08-.877l-1.356.174c.027.227.05.513.066.856.016.343.029.719.038 1.127a73.195 73.195 0 01.014 2.591 1207.986 1207.986 0 01-.028 2.264 72.32 72.32 0 01-.02.995c-.01.12-.02.24-.032.358-.012.119-.031.231-.06.338a1.41 1.41 0 01-.107.288.574.574 0 01-.17.206.706.706 0 01-.29.125 2.34 2.34 0 01-.246.035c-.098.009-.216.016-.355.02h-.71V92h.87zm-5.76 0c.436 0 .815-.017 1.137-.052.323-.035.604-.088.846-.16a2.598 2.598 0 001.113-.65c.2.254.454.462.765.622.31.16.7.24 1.169.24h.139v-1.363h-.14c-.236 0-.43-.054-.58-.16a1.141 1.141 0 01-.355-.404 1.905 1.905 0 01-.184-.529 4.913 4.913 0 01-.077-.542 21.339 21.339 0 00-.125-1.204 6.535 6.535 0 00-.202-.946l-1.308.369c.102.352.173.665.212.939.04.274.06.543.06.807 0 .278-.047.522-.14.73a1.256 1.256 0 01-.434.522c-.197.14-.452.244-.766.313-.313.07-.69.105-1.13.105h-1.036V92h1.036zm.257 3.402l1.127-1.127-1.14-1.141-1.127 1.134 1.14 1.134zm2.853.014l1.127-1.134-1.141-1.134-1.127 1.127 1.14 1.14zm-9.12-10.727l1.127-1.127-1.141-1.141-1.127 1.134 1.14 1.134zm2.852.014l1.127-1.134-1.141-1.134-1.127 1.127 1.14 1.14zm-3.34 11.742c.724 0 1.369-.12 1.935-.362a4.58 4.58 0 001.46-.973c.409-.409.736-.88.981-1.416.246-.536.41-1.1.494-1.694h.87v-1.363h-.821a8.426 8.426 0 00-.118-1.03 6.394 6.394 0 00-.25-.97 5.812 5.812 0 00-.383-.874 3.87 3.87 0 00-.515-.737 3.137 3.137 0 00-.866-.671c-.3-.15-.616-.226-.95-.226-.297 0-.584.076-.862.23a2.486 2.486 0 00-.759.667c-.125.158-.242.341-.351.55a4.483 4.483 0 00-.282.671 4.718 4.718 0 00-.174.685c-.037.218-.055.42-.055.605 0 .06.002.121.007.181.009.246.05.478.125.696.074.218.188.413.34.584a2.3 2.3 0 00.912.72c.38.174.823.266 1.329.275l1.419.02c-.01.219-.05.445-.122.68a3.205 3.205 0 01-.31.691c-.134.228-.299.443-.493.647a3.288 3.288 0 01-.668.536c-.25.153-.527.275-.828.365-.301.09-.626.136-.974.136-.334 0-.653-.03-.956-.09a3.764 3.764 0 01-.842-.268 3.047 3.047 0 01-.696-.439 2.467 2.467 0 01-.518-.601 2.62 2.62 0 01-.341-.873 4.41 4.41 0 01-.076-.77c0-.161.009-.328.027-.5.042-.408.138-.838.289-1.29a8.79 8.79 0 01.609-1.388l-1.218-.654c-.32.598-.569 1.175-.747 1.732a6.946 6.946 0 00-.324 1.656 4.767 4.767 0 00.097 1.495c.102.469.274.9.515 1.294.209.357.46.666.755.925.294.26.617.476.967.647.35.172.725.298 1.123.38.4.08.81.121 1.232.121h.014zm2.957-5.802c-.246 0-.515-.011-.807-.034a3.506 3.506 0 01-.295-.032 2.822 2.822 0 01-.348-.073 1.7 1.7 0 01-.338-.132.771.771 0 01-.264-.222.729.729 0 01-.136-.31 1.828 1.828 0 01-.031-.33v-.105a3.113 3.113 0 01.372-1.249c.063-.113.124-.207.185-.281.194-.241.375-.362.542-.362a.77.77 0 01.449.143c.137.095.254.193.351.295.116.135.229.294.338.477.109.183.206.388.292.615.086.228.156.474.212.738.056.264.09.545.104.842-.176.014-.385.02-.626.02zm-16.682-7.798l1.134-1.134-1.14-1.14-1.134 1.133 1.14 1.141zM549.586 92c.46-.005.911-.022 1.357-.052.445-.03.87-.085 1.276-.164a6.536 6.536 0 001.134-.323c.35-.137.66-.314.932-.532a2.74 2.74 0 00.672-.793c.176-.311.292-.677.347-1.1a4.997 4.997 0 00.021-1.126 5.945 5.945 0 00-.212-1.096 5.3 5.3 0 00-.407-1.002 4.113 4.113 0 00-.57-.824c-.501-.543-1.058-.814-1.67-.814a1.71 1.71 0 00-.807.205c-.26.137-.494.344-.702.623-.367.473-.615 1.062-.745 1.767-.028.19-.042.364-.042.521v.119c.01.194.035.368.077.521.042.153.095.29.16.407.065.119.13.22.195.303.12.153.266.289.438.407s.362.217.57.296c.21.078.432.138.668.177.237.04.48.06.73.06h.703l-.111.124a1.453 1.453 0 01-.146.14 1.95 1.95 0 01-.522.278 6.013 6.013 0 01-.866.254c-.34.076-.728.139-1.162.187a12.73 12.73 0 01-1.415.074h-.14V92h.237zm3.82-3.798c-.21 0-.432-.005-.669-.014a2.745 2.745 0 01-.56-.09 1.009 1.009 0 01-.403-.21.633.633 0 01-.202-.305 1.224 1.224 0 01-.045-.32c0-.08.007-.163.02-.25.043-.237.102-.446.178-.627.077-.18.16-.334.247-.459a1.16 1.16 0 01.265-.282.419.419 0 01.23-.094c.129 0 .25.04.364.122.114.081.208.164.282.247.237.264.426.596.567.995.141.399.228.823.26 1.273-.152.01-.33.014-.535.014zm-9.844 8.932a12.712 12.712 0 001.704-1.03 9.084 9.084 0 001.471-1.304 6.295 6.295 0 001.033-1.54c.26-.553.39-1.132.39-1.74v-.028c.116.125.238.223.365.292a1.686 1.686 0 00.713.209c.102.005.186.007.25.007h.119v-1.363h-.111c-.232 0-.444-.056-.637-.167a1.88 1.88 0 01-.553-.526 4.913 4.913 0 01-.515-.925 15.038 15.038 0 01-.514-1.374l-1.308.404c.055.171.123.386.201.643.08.258.158.532.237.825.079.292.152.59.22.893.066.304.116.588.149.853a2.596 2.596 0 01-.077.94c-.083.31-.21.609-.379.896-.17.288-.377.562-.623.824a8.04 8.04 0 01-.807.748 9.486 9.486 0 01-.932.665c-.329.206-.66.395-.995.567l.599 1.23zM535.708 92c.283 0 .55-.014.8-.042.25-.028.487-.08.71-.16.222-.079.432-.192.629-.34.197-.149.386-.346.567-.592.213.158.445.312.696.463.25.15.51.278.782.382a3.005 3.005 0 001.124.226c.19 0 .38-.025.57-.076a1.66 1.66 0 00.765-.449c.209-.215.374-.468.494-.758s.195-.555.223-.797c.028-.24.042-.436.042-.584 0-.167-.012-.33-.035-.487a4.21 4.21 0 00-.247-.918 2.864 2.864 0 00-.477-.807c-.2-.237-.44-.428-.72-.574a2.071 2.071 0 00-.97-.22c-.306 0-.574.062-.804.185-.23.123-.433.283-.612.48a3.668 3.668 0 00-.48.675c-.141.253-.275.509-.4.769-.144.287-.286.567-.428.838a3.398 3.398 0 01-.5.723c-.193.211-.426.38-.7.508-.273.128-.616.192-1.03.192h-.138V92h.139zm5.287-1.447c-.186 0-.394-.046-.626-.14-.348-.138-.733-.363-1.155-.674l.376-.758c.116-.227.219-.424.31-.591a3.74 3.74 0 01.257-.418.985.985 0 01.243-.247.466.466 0 01.26-.08c.14 0 .263.028.37.084.106.055.199.126.278.212.079.086.146.18.202.285a2.264 2.264 0 01.215.567c.019.079.03.135.035.167.019.125.028.246.028.362a2.082 2.082 0 01-.129.703c-.053.138-.117.252-.191.34a.444.444 0 01-.23.16 1.003 1.003 0 01-.243.028zM535.847 92v-1.363h-.14a2.77 2.77 0 01-.754-.09c-.211-.061-.37-.145-.476-.251a.58.58 0 01-.185-.359 3.758 3.758 0 01-.024-.441v-3.493a48.553 48.553 0 00-.066-2.546c-.021-.403-.047-.776-.077-1.12-.03-.343-.066-.633-.108-.87l-1.363.251c.042.218.078.498.108.839.03.34.055.713.076 1.116.021.404.036.82.045 1.252.01.432.014.847.014 1.245.005.409.007.796.007 1.162 0 .371-.002.7-.007.988a211.315 211.315 0 00-.014 1.037c0 .11.003.244.007.4a2.686 2.686 0 00.247 1.012c.082.176.199.34.352.494.25.25.555.436.914.556.36.12.795.181 1.305.181h.139zm-10.115-3.36l1.134-1.134-1.14-1.14-1.135 1.133 1.141 1.141zm-.306 8.14c.57 0 1.112-.061 1.624-.182.513-.12.98-.305 1.402-.553a4.23 4.23 0 001.11-.942c.317-.38.564-.833.74-1.357.168-.5.258-.9.272-1.2.014-.299.02-.5.02-.602a7.175 7.175 0 00-.392-2.361 11.15 11.15 0 00-.397-1.016 7.888 7.888 0 00-.525-.991l-1.155.737c.005 0 .048.068.129.205.081.137.175.325.282.564.106.239.214.52.323.841a6.615 6.615 0 01.344 2.119v.083c-.009.404-.076.805-.201 1.204a2.69 2.69 0 01-.46.873 2.733 2.733 0 01-.758.654 3.688 3.688 0 01-1.05.407c-.399.092-.844.139-1.336.139a3.94 3.94 0 01-1.054-.129 3.297 3.297 0 01-.807-.334 2.717 2.717 0 01-.587-.462 3.029 3.029 0 01-.404-.526 2.535 2.535 0 01-.24-.514 2.744 2.744 0 01-.108-.435 4.08 4.08 0 01-.035-.821c.014-.278.046-.552.094-.821.05-.269.11-.528.185-.776.074-.248.152-.476.233-.685.08-.209.16-.39.24-.546a2.8 2.8 0 01.208-.358l-1.106-.814c-.19.315-.372.667-.546 1.054-.174.387-.32.796-.438 1.228a6.484 6.484 0 00-.22 1.123 6.142 6.142 0 00.02 1.61c.095.608.274 1.137.54 1.587.268.45.603.822 1.006 1.116.404.295.864.515 1.381.661.517.146 1.072.22 1.666.22zm-16.883.103a8.398 8.398 0 001.405-.344c.459-.155.896-.348 1.311-.577.415-.23.802-.498 1.162-.804a5.91 5.91 0 00.95-1.022c.273-.376.498-.785.674-1.228.176-.443.29-.92.341-1.43a6.442 6.442 0 00.007-1.266 6.891 6.891 0 00-.23-1.217 5.77 5.77 0 00-.434-1.096 4.275 4.275 0 00-.623-.9c-.552-.594-1.157-.891-1.816-.891a1.77 1.77 0 00-.859.226 2.61 2.61 0 00-.768.664c-.195.25-.364.549-.508.894a3.926 3.926 0 00-.275.925c-.04.272-.06.495-.06.672 0 .185.017.37.05.556.055.353.19.663.403.932.482.599 1.227.928 2.233.988.255.023.484.035.685.035h.79c-.051.348-.194.701-.428 1.06-.234.36-.553.7-.956 1.02-.404.32-.889.608-1.454.863a8.976 8.976 0 01-1.92.598l.32 1.342zm3.755-6.26h-.048c-.204 0-.422-.007-.653-.021a3.506 3.506 0 01-.296-.032 2.472 2.472 0 01-.348-.076 1.635 1.635 0 01-.334-.14.819.819 0 01-.26-.225.651.651 0 01-.143-.33 2.434 2.434 0 01-.025-.31 3.16 3.16 0 01.153-.908c.065-.202.145-.384.24-.546.095-.163.203-.296.324-.4a.577.577 0 01.382-.157c.084 0 .163.014.237.042.074.028.145.064.212.108s.13.093.188.146c.058.053.11.103.156.15.116.134.229.293.338.476.109.183.207.388.296.616.088.227.16.473.215.737.056.264.09.545.105.842-.181.014-.345.022-.49.024l-.297.004h.048zm-13.634-6.296l1.127-1.127-1.14-1.14-1.128 1.133 1.141 1.134zm2.853.014l1.126-1.134-1.14-1.134-1.127 1.127 1.14 1.14zM498.483 92c.38 0 .748-.026 1.103-.077.355-.05.68-.139.977-.264.297-.125.56-.292.79-.5.23-.21.414-.471.553-.787.14-.32.209-.69.209-1.113 0-.074-.003-.148-.007-.222-.033-.515-.153-1.109-.362-1.781a9.033 9.033 0 00-.223-.644 14.061 14.061 0 00-.382-.897 1.712 1.712 0 01-.063-.143l-1.238.612.605 1.489c.098.237.172.463.223.678.05.216.081.385.09.508.01.123.014.215.014.275 0 .111-.007.216-.02.313a1.35 1.35 0 01-.105.369 1.089 1.089 0 01-.39.455c-.167.11-.359.192-.577.247-.218.056-.454.09-.71.101-.255.012-.517.018-.786.018h-1.342V92h1.641zm-7.43 5.134a12.712 12.712 0 001.705-1.03 9.084 9.084 0 001.472-1.304 6.295 6.295 0 001.033-1.54c.26-.553.39-1.132.39-1.74v-.028c.115.125.237.223.364.292a1.686 1.686 0 00.713.209c.102.005.186.007.25.007h.12v-1.363h-.112c-.232 0-.444-.056-.637-.167a1.88 1.88 0 01-.553-.526 4.913 4.913 0 01-.515-.925 15.038 15.038 0 01-.514-1.374l-1.308.404c.056.171.123.386.202.643.078.258.157.532.236.825.079.292.152.59.22.893.067.304.116.588.149.853a2.596 2.596 0 01-.077.94c-.083.31-.21.609-.379.896-.17.288-.377.562-.622.824a8.04 8.04 0 01-.807.748 9.486 9.486 0 01-.933.665c-.329.206-.66.395-.994.567l.598 1.23zM483.2 92c.283 0 .55-.014.8-.042.25-.028.487-.08.71-.16.222-.079.432-.192.63-.34.196-.149.385-.346.566-.592.213.158.445.312.696.463.25.15.511.278.782.382a3.005 3.005 0 001.124.226c.19 0 .38-.025.57-.076a1.66 1.66 0 00.765-.449c.21-.215.374-.468.494-.758.121-.29.195-.555.223-.797.028-.24.042-.436.042-.584 0-.167-.012-.33-.035-.487a4.21 4.21 0 00-.247-.918 2.864 2.864 0 00-.477-.807c-.199-.237-.439-.428-.72-.574a2.071 2.071 0 00-.97-.22c-.306 0-.574.062-.803.185-.23.123-.434.283-.613.48a3.668 3.668 0 00-.48.675c-.141.253-.274.509-.4.769-.143.287-.286.567-.427.838a3.398 3.398 0 01-.501.723c-.193.211-.426.38-.7.508-.273.128-.616.192-1.029.192h-.14V92h.14zm5.287-1.447c-.186 0-.394-.046-.626-.14-.348-.138-.733-.363-1.155-.674l.376-.758c.116-.227.219-.424.31-.591a3.74 3.74 0 01.257-.418.985.985 0 01.243-.247.466.466 0 01.261-.08c.14 0 .262.028.369.084.106.055.2.126.278.212.079.086.146.18.202.285a2.264 2.264 0 01.215.567c.019.079.03.135.035.167.019.125.028.246.028.362a2.082 2.082 0 01-.129.703c-.053.138-.117.252-.191.34a.444.444 0 01-.23.16 1.003 1.003 0 01-.243.028zm-8.216-4.793l1.134-1.134-1.14-1.14-1.135 1.133 1.141 1.141zm-2.998 11.374a12.712 12.712 0 001.704-1.03 9.084 9.084 0 001.472-1.304 6.295 6.295 0 001.033-1.54c.26-.553.39-1.132.39-1.74v-.028c.115.125.237.223.365.292a1.686 1.686 0 00.713.209c.102.005.185.007.25.007h.118v-1.363h-.111c-.232 0-.444-.056-.637-.167a1.88 1.88 0 01-.553-.526 4.913 4.913 0 01-.514-.925 15.038 15.038 0 01-.515-1.374l-1.308.404c.056.171.123.386.202.643.079.258.157.532.236.825.08.292.152.59.22.893.067.304.116.588.149.853a2.596 2.596 0 01-.077.94c-.083.31-.21.609-.379.896-.169.288-.377.562-.622.824a8.04 8.04 0 01-.807.748 9.486 9.486 0 01-.932.665c-.33.206-.661.395-.995.567l.598 1.23z" fill-opacity=".87" fill="#000000" fill-rule="nonzero"/><path d="M120 84v8h-8a4 4 0 010-8h8zm39 0v8h-12v-8h12zm9 0a4 4 0 010 8h-8v-8zm-22 0v8h-12v-8h12zm-13 0v8h-12v-8h12z" fill="#EEE"/><path fill="#FBC02D" d="M108 84h38v8h-38z"/><path d="M134 84v8h-1v-8h1zm-13 0v8h-1v-8h1zm-13 4a4 4 0 004 4h-4zm39-4v8h-1v-8h1zm13 0v8h-1v-8h1zm12 4v4h-4a4 4 0 004-4zm-60-4a4 4 0 00-4 4v-4zm60 0v4a4 4 0 00-4-4h4z" fill="#FFF"/></g><g fill="#000000"><text font-family="Roboto-Regular, Roboto" font-size="12" fill-opacity=".56" transform="translate(620 56)"><tspan x="17.252" y="34.117">normal</tspan></text><path d="M639.97 140l1.5-4.805 1.542 4.805h.879l1.845-6.34h-1.084l-1.218 4.846-1.506-4.846h-.873l-1.477 4.746-1.248-4.746h-1.078l1.84 6.34h.879zm7.512-7.406c.211 0 .372-.059.48-.176a.62.62 0 00.165-.44.64.64 0 00-.164-.445c-.11-.12-.27-.181-.48-.181-.212 0-.37.06-.478.181a.647.647 0 00-.161.446c0 .175.053.322.16.439.108.117.267.176.478.176zm.534 7.406v-6.34h-1.084V140h1.084zm3.586.117c.27 0 .546-.039.832-.117v-.879c-.22.047-.391.07-.516.07-.254 0-.434-.063-.54-.19-.105-.127-.157-.317-.157-.571v-3.932h1.183v-.838h-1.183v-1.535h-1.084v1.535h-1.155v.838h1.155v3.932c0 .539.123.955.369 1.248.246.293.611.44 1.096.44zm3.152-.117v-4.518a1.91 1.91 0 01.621-.738c.266-.187.574-.281.926-.281.433 0 .753.11.958.328.205.219.31.557.313 1.014V140h1.084v-4.19c-.011-1.511-.687-2.267-2.027-2.267-.77 0-1.395.295-1.875.885V131h-1.084v9h1.084zm9.14-7.406c.211 0 .372-.059.481-.176a.62.62 0 00.164-.44.64.64 0 00-.164-.445c-.11-.12-.27-.181-.48-.181-.211 0-.37.06-.478.181a.647.647 0 00-.161.446c0 .175.054.322.161.439.107.117.267.176.478.176zm.534 7.406v-6.34h-1.084V140h1.084zm4.277.117c.43 0 .837-.097 1.222-.293a2.47 2.47 0 00.923-.785c.23-.328.355-.674.375-1.037h-1.026a1.237 1.237 0 01-.48.879c-.29.234-.627.351-1.014.351-.559 0-.988-.197-1.289-.591-.3-.395-.451-.957-.451-1.688v-.205c0-.75.151-1.323.454-1.72.303-.396.73-.594 1.28-.594.41 0 .755.131 1.034.395.28.264.435.6.466 1.01h1.026c-.032-.679-.283-1.232-.753-1.657-.471-.426-1.062-.639-1.773-.639-.578 0-1.079.133-1.503.398a2.588 2.588 0 00-.975 1.12c-.227.48-.34 1.029-.34 1.646v.182c0 1 .255 1.788.765 2.364.51.576 1.196.864 2.06.864zm6.34 0c.57 0 1.075-.137 1.515-.41.439-.273.777-.655 1.013-1.145.237-.49.355-1.044.355-1.662v-.076c0-.992-.267-1.787-.8-2.385-.533-.597-1.232-.896-2.095-.896-.558 0-1.055.135-1.491.404-.436.27-.775.653-1.02 1.149-.244.496-.366 1.054-.366 1.675v.077c0 .984.267 1.775.8 2.373.533.597 1.23.896 2.089.896zm0-.885c-.547 0-.983-.212-1.31-.638-.326-.426-.489-.99-.489-1.694 0-.793.164-1.402.492-1.828.328-.426.76-.638 1.295-.638.547 0 .986.215 1.316.647.33.432.495.995.495 1.69 0 .778-.162 1.382-.487 1.814-.324.432-.761.647-1.312.647zm5.326.768v-4.518a1.91 1.91 0 01.621-.738c.266-.187.574-.281.926-.281.434 0 .753.11.958.328.205.219.31.557.313 1.014V140h1.084v-4.19c-.011-1.511-.687-2.267-2.027-2.267-.781 0-1.414.305-1.898.914l-.035-.797h-1.026V140h1.084zM639.156 188.117V183.6a1.91 1.91 0 01.621-.739c.266-.187.575-.28.926-.28.434 0 .753.108.958.327.205.219.31.557.314 1.014v4.195h1.084v-4.19c-.012-1.511-.688-2.267-2.028-2.267-.781 0-1.414.305-1.898.914l-.035-.797h-1.026v6.34h1.084zm7.494.117c.7 0 1.301-.261 1.805-.785.04.32.09.543.152.668h1.137v-.094c-.148-.343-.223-.806-.223-1.388v-2.918c-.015-.64-.23-1.144-.644-1.509-.414-.365-.986-.548-1.717-.548-.46 0-.884.086-1.268.258a2.3 2.3 0 00-.914.7c-.225.295-.337.6-.337.917h1.09c0-.277.13-.514.392-.709.262-.195.586-.293.973-.293.441 0 .775.113 1.002.337.226.225.34.526.34.905v.498h-1.055c-.91 0-1.616.183-2.118.548-.502.366-.753.878-.753 1.538 0 .543.2.992.6 1.345.4.354.913.53 1.538.53zm.159-.943c-.356 0-.647-.096-.873-.287-.227-.191-.34-.457-.34-.797 0-.777.664-1.166 1.992-1.166h.85v1.3c-.137.282-.358.51-.663.686a1.905 1.905 0 01-.966.264zm6.908.826l2.273-6.34h-1.107l-1.57 4.87-1.612-4.87h-1.107l2.297 6.34h.826zm3.96-7.406c.212 0 .372-.059.481-.176a.62.62 0 00.164-.44.64.64 0 00-.164-.445c-.11-.12-.27-.181-.48-.181-.211 0-.37.06-.478.181a.647.647 0 00-.16.446c0 .175.053.322.16.44.108.116.267.175.478.175zm.534 7.406v-6.34h-1.084v6.34h1.084zm4.143 2.496c.82 0 1.473-.236 1.96-.709.486-.472.729-1.119.729-1.94v-6.187h-.99l-.053.703c-.434-.546-1.037-.82-1.81-.82-.754 0-1.36.292-1.817.876-.457.584-.685 1.37-.685 2.359 0 1.03.229 1.845.688 2.443.459.598 1.06.896 1.802.896.75 0 1.342-.25 1.775-.75v.545c0 .54-.147.957-.442 1.254-.295.297-.706.446-1.234.446-.672 0-1.24-.288-1.705-.862l-.562.65c.23.34.564.608 1.002.803a3.26 3.26 0 001.342.293zm.093-3.299c-.527 0-.937-.204-1.23-.612-.293-.408-.44-.97-.44-1.684 0-.805.149-1.413.446-1.823.297-.41.709-.615 1.236-.615.664 0 1.162.303 1.494.908v2.895c-.32.62-.822.931-1.506.931zm6.188.92c.699 0 1.3-.261 1.804-.785.04.32.09.543.153.668h1.137v-.094c-.149-.343-.223-.806-.223-1.388v-2.918c-.016-.64-.23-1.144-.645-1.509-.414-.365-.986-.548-1.716-.548-.461 0-.884.086-1.269.258a2.3 2.3 0 00-.914.7c-.225.295-.337.6-.337.917h1.09c0-.277.13-.514.392-.709.262-.195.586-.293.973-.293.441 0 .775.113 1.002.337.227.225.34.526.34.905v.498h-1.055c-.91 0-1.616.183-2.118.548-.502.366-.753.878-.753 1.538 0 .543.2.992.6 1.345.401.354.914.53 1.539.53zm.158-.943c-.355 0-.647-.096-.873-.287-.227-.191-.34-.457-.34-.797 0-.777.664-1.166 1.992-1.166h.85v1.3c-.137.282-.358.51-.662.686a1.905 1.905 0 01-.967.264zm7.318.943c.75 0 1.348-.294 1.793-.881.446-.588.668-1.367.668-2.335v-.094c0-1.012-.22-1.809-.659-2.39-.44-.583-1.044-.874-1.813-.874-.77 0-1.373.272-1.81.815v-3.358h-1.085v9h.996l.053-.732c.437.566 1.057.85 1.857.85zm-.27-.92c-.702 0-1.22-.332-1.552-.996v-2.742c.313-.664.826-.996 1.541-.996.535 0 .945.201 1.23.604.286.402.428.972.428 1.71 0 .81-.144 1.415-.433 1.817-.29.402-.694.603-1.213.603zm5.274.803v-9h-1.084v9h1.084zm4.365.117c1.063 0 1.86-.408 2.391-1.224l-.662-.516c-.2.258-.432.465-.697.621-.266.156-.59.235-.973.235-.539 0-.983-.193-1.333-.578-.35-.384-.532-.89-.548-1.514h4.295v-.451c0-1.012-.228-1.79-.685-2.332-.457-.543-1.098-.815-1.922-.815-.504 0-.972.14-1.404.42-.431.278-.767.665-1.007 1.16-.24.493-.36 1.055-.36 1.684v.199c0 .945.269 1.7.808 2.265.539.564 1.238.846 2.097.846zm1.39-3.867h-3.177c.07-.574.254-1.02.551-1.339a1.446 1.446 0 011.102-.477c.453 0 .812.151 1.078.454.265.303.414.73.445 1.28v.082zM639.97 236l1.5-4.805 1.542 4.805h.879l1.845-6.34h-1.084l-1.218 4.846-1.506-4.846h-.873l-1.477 4.746-1.248-4.746h-1.078l1.84 6.34h.879zm7.512-7.406c.211 0 .372-.059.48-.176a.62.62 0 00.165-.44.64.64 0 00-.164-.445c-.11-.12-.27-.181-.48-.181-.212 0-.37.06-.478.181a.647.647 0 00-.161.446c0 .175.053.322.16.439.108.117.267.176.478.176zm.534 7.406v-6.34h-1.084V236h1.084zm3.586.117c.27 0 .546-.039.832-.117v-.879c-.22.047-.391.07-.516.07-.254 0-.434-.063-.54-.19-.105-.127-.157-.317-.157-.571v-3.932h1.183v-.838h-1.183v-1.535h-1.084v1.535h-1.155v.838h1.155v3.932c0 .539.123.955.369 1.248.246.293.611.44 1.096.44zm3.152-.117v-4.518a1.91 1.91 0 01.621-.738c.266-.187.574-.281.926-.281.433 0 .753.11.958.328.205.219.31.557.313 1.014V236h1.084v-4.19c-.011-1.511-.687-2.267-2.027-2.267-.77 0-1.395.295-1.875.885V227h-1.084v9h1.084zm9.14-7.406c.211 0 .372-.059.481-.176a.62.62 0 00.164-.44.64.64 0 00-.164-.445c-.11-.12-.27-.181-.48-.181-.211 0-.37.06-.478.181a.647.647 0 00-.161.446c0 .175.054.322.161.439.107.117.267.176.478.176zm.534 7.406v-6.34h-1.084V236h1.084zm4.277.117c.43 0 .837-.097 1.222-.293a2.47 2.47 0 00.923-.785c.23-.328.355-.674.375-1.037h-1.026a1.237 1.237 0 01-.48.879c-.29.234-.627.351-1.014.351-.559 0-.988-.197-1.289-.591-.3-.395-.451-.957-.451-1.688v-.205c0-.75.151-1.323.454-1.72.303-.396.73-.594 1.28-.594.41 0 .755.131 1.034.395.28.264.435.6.466 1.01h1.026c-.032-.679-.283-1.232-.753-1.657-.471-.426-1.062-.639-1.773-.639-.578 0-1.079.133-1.503.398a2.588 2.588 0 00-.975 1.12c-.227.48-.34 1.029-.34 1.646v.182c0 1 .255 1.788.765 2.364.51.576 1.196.864 2.06.864zm6.34 0c.57 0 1.075-.137 1.515-.41.439-.273.777-.655 1.013-1.145.237-.49.355-1.044.355-1.662v-.076c0-.992-.267-1.787-.8-2.385-.533-.597-1.232-.896-2.095-.896-.558 0-1.055.135-1.491.404-.436.27-.775.653-1.02 1.149-.244.496-.366 1.054-.366 1.675v.077c0 .984.267 1.775.8 2.373.533.597 1.23.896 2.089.896zm0-.885c-.547 0-.983-.212-1.31-.638-.326-.426-.489-.99-.489-1.694 0-.793.164-1.402.492-1.828.328-.426.76-.638 1.295-.638.547 0 .986.215 1.316.647.33.432.495.995.495 1.69 0 .778-.162 1.382-.487 1.814-.324.432-.761.647-1.312.647zm5.326.768v-4.518a1.91 1.91 0 01.621-.738c.266-.187.574-.281.926-.281.434 0 .753.11.958.328.205.219.31.557.313 1.014V236h1.084v-4.19c-.011-1.511-.687-2.267-2.027-2.267-.781 0-1.414.305-1.898.914l-.035-.797h-1.026V236h1.084zm8.725.732l3.556-9.263h-.925l-3.563 9.263h.932zm8.783-.732v-4.518a1.91 1.91 0 01.621-.738c.266-.187.574-.281.926-.281.433 0 .753.11.958.328.205.219.31.557.313 1.014V236h1.084v-4.19c-.011-1.511-.687-2.267-2.027-2.267-.781 0-1.414.305-1.899.914l-.035-.797h-1.025V236h1.084zm7.494.117c.7 0 1.3-.262 1.805-.785.039.32.09.543.152.668h1.137v-.094c-.149-.344-.223-.806-.223-1.388V231.6c-.015-.641-.23-1.144-.644-1.51-.414-.364-.987-.547-1.717-.547-.461 0-.884.086-1.269.258a2.3 2.3 0 00-.914.7c-.224.295-.337.6-.337.917h1.09c0-.277.131-.514.393-.709.261-.195.586-.293.972-.293.442 0 .776.112 1.002.337.227.225.34.526.34.905v.498h-1.055c-.91 0-1.616.183-2.118.548-.502.365-.753.878-.753 1.538 0 .543.2.991.601 1.345.4.353.913.53 1.538.53zm.158-.943c-.355 0-.646-.096-.873-.287-.226-.192-.34-.457-.34-.797 0-.778.664-1.166 1.993-1.166h.85v1.3c-.138.282-.358.51-.663.686a1.905 1.905 0 01-.967.264zm6.908.826l2.274-6.34h-1.108l-1.57 4.87-1.611-4.87h-1.108l2.297 6.34h.826zm3.961-7.406c.211 0 .371-.059.48-.176a.62.62 0 00.165-.44.64.64 0 00-.164-.445c-.11-.12-.27-.181-.48-.181-.212 0-.37.06-.478.181a.647.647 0 00-.161.446c0 .175.053.322.16.439.108.117.267.176.478.176zm.534 7.406v-6.34h-1.084V236h1.084zm4.142 2.496c.82 0 1.474-.236 1.96-.709s.73-1.119.73-1.94v-6.187h-.99l-.053.703c-.434-.547-1.037-.82-1.81-.82-.755 0-1.36.292-1.817.876-.457.584-.686 1.37-.686 2.358 0 1.032.23 1.846.689 2.444.459.597 1.06.896 1.801.896.75 0 1.342-.25 1.776-.75v.545c0 .54-.148.957-.443 1.254-.295.297-.706.445-1.233.445-.672 0-1.24-.287-1.705-.861l-.563.65c.23.34.565.608 1.002.803a3.26 3.26 0 001.342.293zm.094-3.299c-.527 0-.938-.204-1.23-.612-.294-.408-.44-.97-.44-1.685 0-.804.148-1.412.445-1.822.297-.41.71-.615 1.237-.615.664 0 1.162.303 1.494.908v2.895c-.32.62-.822.931-1.506.931zm6.187.92c.7 0 1.301-.262 1.805-.785.04.32.09.543.152.668h1.137v-.094c-.148-.344-.222-.806-.222-1.388V231.6c-.016-.641-.231-1.144-.645-1.51-.414-.364-.986-.547-1.717-.547-.46 0-.884.086-1.268.258a2.3 2.3 0 00-.914.7c-.225.295-.337.6-.337.917h1.09c0-.277.13-.514.392-.709.262-.195.586-.293.973-.293.441 0 .775.112 1.002.337.226.225.34.526.34.905v.498h-1.055c-.91 0-1.616.183-2.118.548-.502.365-.753.878-.753 1.538 0 .543.2.991.6 1.345.4.353.913.53 1.538.53zm.159-.943c-.356 0-.647-.096-.873-.287-.227-.192-.34-.457-.34-.797 0-.778.664-1.166 1.992-1.166h.85v1.3c-.137.282-.358.51-.663.686a1.905 1.905 0 01-.966.264zm7.318.943c.75 0 1.348-.294 1.793-.882.445-.588.668-1.366.668-2.335v-.093c0-1.012-.22-1.809-.66-2.391-.439-.582-1.043-.873-1.813-.873s-1.373.271-1.81.814V227h-1.084v9h.996l.053-.732c.437.566 1.056.85 1.857.85zm-.27-.92c-.703 0-1.22-.332-1.552-.996v-2.742c.312-.664.826-.996 1.54-.996.536 0 .946.201 1.231.603.285.403.428.973.428 1.711 0 .809-.145 1.414-.434 1.817-.289.402-.693.603-1.213.603zm5.274.803v-9h-1.084v9h1.084zm4.365.117c1.063 0 1.86-.408 2.39-1.224l-.661-.516c-.2.258-.432.465-.698.621-.265.156-.59.234-.972.234-.54 0-.984-.192-1.333-.577-.35-.384-.533-.89-.548-1.514h4.295v-.452c0-1.011-.229-1.789-.686-2.332-.457-.543-1.097-.814-1.922-.814-.504 0-.971.14-1.403.419-.432.28-.768.666-1.008 1.16-.24.494-.36 1.056-.36 1.685v.199c0 .945.27 1.7.808 2.265.54.564 1.239.846 2.098.846zm1.389-3.867h-3.176c.07-.574.254-1.02.55-1.339a1.446 1.446 0 011.102-.477c.453 0 .813.151 1.078.454.266.302.415.73.446 1.28v.082z" fill-opacity=".56" fill-rule="nonzero"/><path fill-opacity=".12" d="M620 56h1v208h-1z"/></g></g></svg>