<svg width="860" height="320" xmlns="http://www.w3.org/2000/svg"><g fill="none" fill-rule="evenodd"><rect fill="none" width="860" height="320" rx="4"/><path d="M108 255h488v1H108z" fill="#000000" fill-opacity=".12"/><path d="M201.62 236c.381 0 .749-.026 1.103-.077.355-.05.681-.139.978-.264.297-.125.56-.292.79-.5.229-.21.413-.471.552-.787.14-.32.21-.69.21-1.113 0-.074-.003-.148-.008-.222-.032-.515-.153-1.109-.362-1.781a9.033 9.033 0 00-.222-.644 14.062 14.062 0 00-.383-.897 1.713 1.713 0 01-.062-.143l-1.239.612.606 1.489c.097.237.171.463.222.678.051.216.081.385.09.508.01.123.015.215.015.275 0 .111-.007.216-.021.313a1.35 1.35 0 01-.105.369 1.089 1.089 0 01-.39.455c-.166.11-.359.192-.577.247-.218.056-.454.09-.71.101-.254.012-.516.018-.785.018h-1.343V236h1.642zm-.347 3.402l1.127-1.127-1.14-1.141-1.128 1.134 1.141 1.134zm2.852.014l1.127-1.134-1.14-1.134-1.128 1.127 1.141 1.14zM200.257 236v-1.363h-.194a4.643 4.643 0 01-.759-.07 2.482 2.482 0 01-.619-.195 2.725 2.725 0 01-.716-.48 3.246 3.246 0 01-.498-.598 3.881 3.881 0 01-.34-.661 12.61 12.61 0 01-.248-.675 5.431 5.431 0 00-.504-1.06 8.138 8.138 0 00-.751-1.037 9.893 9.893 0 00-.953-.974c-.35-.313-.72-.606-1.11-.88l5.51-2.324-.522-1.266-6.24 2.686-.188 1.537c.186.144.404.315.654.515a17.592 17.592 0 011.562 1.412c.257.264.483.531.678.8.195.269.341.523.438.762.098.239.146.455.146.65 0 .051-.002.102-.006.153a1.193 1.193 0 01-.33.682c-.193.209-.494.39-.902.543-.31.12-.763.216-1.356.288-.594.072-1.364.129-2.31.17a8.51 8.51 0 01-.89-.014 11.983 11.983 0 01-2.004-.32 8.132 8.132 0 01-.911-.284 3.558 3.558 0 01-.717-.362c-.199-.135-.336-.278-.41-.432a1.06 1.06 0 01-.104-.48v-.062c.009-.2.048-.406.118-.62.07-.213.159-.421.268-.625a4.99 4.99 0 01.337-.55l-1.099-.82c-.014.018-.04.06-.08.124-.04.065-.088.148-.146.247a7.28 7.28 0 00-.4.81c-.204.465-.317.815-.338 1.051-.02.237-.03.4-.03.487 0 .283.04.543.124.78.107.31.275.586.505.827.23.241.502.454.817.637.315.183.667.337 1.054.462a9.73 9.73 0 001.217.306c.425.08.86.136 1.305.17.445.036.886.053 1.322.053.82 0 1.538-.022 2.153-.066a8.473 8.473 0 001.61-.254c.46-.125.853-.301 1.183-.529.329-.227.616-.524.862-.89a3.897 3.897 0 001.572 1.297c.636.29 1.336.437 2.101.442h.14zm-27.798-7.66l1.134-1.133-1.14-1.14-1.135 1.133 1.141 1.14zm-2.991 7.66c.7 0 1.393-.065 2.08-.195.686-.13 1.35-.298 1.993-.504a19.848 19.848 0 001.843-.692c.587-.255 1.135-.51 1.646-.766.347-.171.681-.335 1.001-.49.32-.155.643-.3.967-.435l-.264-1.321c-.288 0-.573-.03-.856-.09a6.842 6.842 0 01-.848-.24 11.25 11.25 0 01-.846-.338 39.2 39.2 0 01-.831-.383c-.25-.116-.499-.23-.744-.34-.246-.112-.487-.21-.724-.296a5.637 5.637 0 00-.699-.206 3.12 3.12 0 00-.678-.076c-.45 0-.878.109-1.284.327-.405.218-.79.545-1.151.98a4.72 4.72 0 00-.33.439c-.095.144-.177.271-.244.383a3.542 3.542 0 00-.212.396l1.252.564a3.686 3.686 0 01.257-.456c.084-.128.184-.264.3-.41.116-.147.247-.283.393-.411.146-.128.305-.233.476-.317.172-.083.353-.125.543-.125.144 0 .301.022.473.066.171.044.353.104.546.178.192.074.392.159.598.254l.637.295c.283.135.57.267.862.397.293.13.599.25.919.362-.53.264-1.079.521-1.65.772-.57.25-1.154.473-1.752.668-.598.194-1.206.35-1.823.47a9.807 9.807 0 01-1.85.177h-1.51V236h1.51zm-7.597-8.605l1.03-1.03-1.037-1.036-1.03 1.03 1.037 1.036zm-1.572 2.198l1.127-1.134-1.14-1.14-1.128 1.133 1.141 1.141zm3.054.007l1.127-1.127-1.14-1.14-1.128 1.126 1.141 1.141zm-9.92 11.012a8.64 8.64 0 002.052-.323 4.259 4.259 0 001.618-.863c.452-.392.804-.9 1.057-1.527.253-.626.38-1.398.38-2.316.101.074.2.138.298.19a1.793 1.793 0 00.65.21c.124.016.266.024.429.024a2.87 2.87 0 001.116-.22c.35-.145.664-.38.943-.705.097.148.212.28.344.393.132.113.271.21.417.288.146.08.294.14.442.181.149.042.285.063.41.063a2.06 2.06 0 001.252-.403c.177-.13.333-.283.47-.46.137-.176.252-.373.345-.591.116.227.263.43.441.609a2.875 2.875 0 001.273.74c.24.066.482.098.727.098h.14v-1.363h-.14a1.3 1.3 0 01-.692-.181c-.197-.12-.37-.28-.518-.48a2.868 2.868 0 01-.372-.689 5.8 5.8 0 01-.244-.807 8.093 8.093 0 01-.142-.831 9.945 9.945 0 01-.063-.769l-1.363.097c.009.158.024.357.045.599a8.976 8.976 0 01-.01 1.593 2.92 2.92 0 01-.168.74c-.083.22-.201.4-.354.54-.153.139-.353.208-.599.208a.65.65 0 01-.445-.153 1.043 1.043 0 01-.275-.407 2.392 2.392 0 01-.142-.577 4.403 4.403 0 01-.042-.55v-.344c0-.148.002-.297.007-.445.01-.218.016-.415.02-.591l-1.411-.105c-.01.237-.018.478-.025.724a7.886 7.886 0 01-.052.716 5.015 5.015 0 01-.122.658 1.66 1.66 0 01-.24.539 1.184 1.184 0 01-.407.365c-.164.09-.37.136-.615.136-.32 0-.583-.078-.79-.233a2 2 0 01-.525-.606 4.68 4.68 0 01-.372-.827 28.727 28.727 0 00-.324-.894 14.975 14.975 0 01-.257-.675l-1.155.751c.153.399.291.799.414 1.2.123.401.212.785.268 1.151a6.918 6.918 0 01.076 1.336 5.77 5.77 0 01-.236 1.329c-.422 1.29-1.619 1.98-3.59 2.073h-.236c-.394 0-.738-.043-1.03-.129a2.925 2.925 0 01-.758-.334 2.228 2.228 0 01-.532-.466 2.962 2.962 0 01-.348-.529 2.646 2.646 0 01-.202-.518 4.284 4.284 0 01-.094-.431 4.03 4.03 0 01-.034-.814c.014-.274.045-.546.094-.817a7.884 7.884 0 01.41-1.472 5.47 5.47 0 01.243-.546c.082-.155.152-.272.213-.351l-1.106-.821c-.19.315-.373.666-.547 1.05-.173.385-.32.795-.438 1.228-.118.434-.191.81-.219 1.127a6.142 6.142 0 00.02 1.61c.084.566.25 1.07.498 1.514.248.443.564.82.946 1.13.383.31.82.547 1.312.71a5.052 5.052 0 001.593.243h.271z" fill="#FBC02D" fill-rule="nonzero"/><path d="M551.993 236c.38 0 .734-.026 1.06-.077.328-.05.624-.139.888-.264s.497-.292.699-.5c.202-.21.372-.471.511-.787.14-.32.209-.69.209-1.113 0-.074-.002-.148-.007-.222-.032-.515-.153-1.109-.362-1.781a9.033 9.033 0 00-.222-.644 14.061 14.061 0 00-.383-.897 1.713 1.713 0 01-.063-.143l-1.238.612.605 1.489c.098.237.172.463.223.678.051.216.081.385.09.508.01.123.014.215.014.275 0 .111-.007.216-.02.313a1.35 1.35 0 01-.105.369 1.245 1.245 0 01-.348.455c-.139.11-.301.192-.487.247-.185.056-.391.09-.619.101-.227.012-.475.018-.744.018h-.807V236h1.106zm1.14 3.624l1.135-1.134-1.141-1.14-1.134 1.133 1.14 1.141zM551.166 236v-1.363h-.139c-.278 0-.508-.036-.689-.108a1.244 1.244 0 01-.452-.3 1.755 1.755 0 01-.31-.466 15.476 15.476 0 01-.267-.608c-.181-.422-.351-.827-.511-1.214a3908.251 3908.251 0 01-1.618-3.927l-1.266.529 2.198 5.287a2.64 2.64 0 01-.925.584c-.25.097-.463.154-.636.17a4.617 4.617 0 01-.393.025c-.186 0-.371-.021-.557-.063a3.191 3.191 0 01-.842-.32 4.114 4.114 0 01-.841-.619l-.787 1.106c.395.408.825.725 1.29.95a3.45 3.45 0 001.52.337c.33 0 .627-.02.891-.06a4.2 4.2 0 00.734-.173c.225-.077.436-.173.633-.289.197-.116.393-.25.588-.403a2.4 2.4 0 00.348.358c.134.114.29.212.47.296.178.083.384.15.619.198.234.049.502.073.803.073h.14zm-11.812-7.59l1.134-1.133-1.14-1.141-1.135 1.134 1.141 1.14zM538.24 236c.38 0 .734-.026 1.06-.077.328-.05.623-.139.888-.264.264-.125.497-.292.699-.5.202-.21.372-.471.511-.787.14-.32.209-.69.209-1.113 0-.074-.002-.148-.007-.222-.032-.515-.153-1.109-.362-1.781a9.033 9.033 0 00-.222-.644 14.061 14.061 0 00-.383-.897 1.712 1.712 0 01-.063-.143l-1.238.612.605 1.489c.098.237.172.463.223.678.051.216.081.385.09.508.01.123.014.215.014.275 0 .111-.007.216-.02.313a1.35 1.35 0 01-.105.369 1.245 1.245 0 01-.348.455c-.139.11-.301.192-.487.247-.185.056-.392.09-.619.101-.227.012-.475.018-.744.018h-.807V236h1.106zm-.835 0v-1.363h-.139c-.325 0-.58-.046-.765-.136-.186-.09-.334-.261-.445-.511a1.394 1.394 0 01-.063-.185 6.804 6.804 0 01-.111-.483c-.047-.228-.1-.531-.16-.912a45.477 45.477 0 01-.23-1.71 253.025 253.025 0 01-.167-1.597 351.42 351.42 0 00-.076-.72v.007l-1.364.285.025.254c.016.164.042.423.08.775-.13.047-.283.106-.46.178-.176.072-.362.16-.56.264a8.072 8.072 0 00-.612.362 5.207 5.207 0 00-.612.466c-.197.174-.383.37-.556.588a3.768 3.768 0 00-.45.716 1.566 1.566 0 00-.097.341c-.023.13-.034.258-.034.383v.125c.004.172.033.348.087.529.053.18.145.347.274.5.469.58 1.301.87 2.498.87.227 0 .465-.01.713-.031.248-.021.518-.055.81-.101.246.394.552.677.919.849.24.11.483.182.727.212.243.03.453.045.63.045h.138zm-3.94-2.324h-.032c-.162 0-.322-.009-.48-.027a2.162 2.162 0 01-.511-.108.946.946 0 01-.369-.226.506.506 0 01-.143-.369c0-.148.04-.29.119-.428.079-.137.182-.265.31-.386.127-.12.27-.232.43-.334.16-.102.323-.196.488-.281a7.98 7.98 0 01.476-.23c.153-.067.285-.124.397-.17.074.593.14 1.085.198 1.474.058.39.115.72.17.988-.12.023-.268.044-.441.063a5.216 5.216 0 01-.644.035h.032z" fill-opacity=".87" fill="#000000" fill-rule="nonzero"/><path d="M118.813 232l3.873-3.874a1.003 1.003 0 10-1.42-1.419l-4.584 4.584a1.004 1.004 0 000 1.418l4.584 4.584a1.001 1.001 0 001.42 0 1.003 1.003 0 000-1.419L118.812 232z" fill="#000000" fill-opacity=".32"/><path d="M592.191 234.067a3.006 3.006 0 00-2.829-2 3.006 3.006 0 00-2.829 2h-6.474a3.006 3.006 0 00-2.829-2 3.006 3.006 0 00-2.829 2h-.4v-2.918a1 1 0 01.294-.71l2.317-2.298a.994.994 0 01.703-.29h5.467l2.507 1.485h-7.475c-.264 0-.518.105-.705.291l-.356.355a.5.5 0 00.352.854h11.56c.3.025.642.04 1.011.052 1.026.036 2.263.081 3.14.46a.5.5 0 01.27.306c.278.84.548 1.734.722 2.413h-1.617zm-2.829 2a1.001 1.001 0 010-2 1.001 1.001 0 010 2zm-12.132 0a1.001 1.001 0 010-2 1.001 1.001 0 010 2zm17.197-6.098c-1.347-.96-3.195-1.027-4.679-1.08a18.643 18.643 0 01-1-.052 2.066 2.066 0 01-.86-.285l-4.324-2.563a.996.996 0 00-.508-.138h-5.74c-.02 0-.039.006-.059.006-.009 0-.017-.006-.027-.006H574a1 1 0 100 2h.064l-1.177 1.167a3.003 3.003 0 00-.887 2.131v2.918a2 2 0 002 2h.415a2.993 2.993 0 002.815 2 2.993 2.993 0 002.815-2h6.501a2.996 2.996 0 002.816 2 2.993 2.993 0 002.815-2H595a1 1 0 001-1c0-1.043-.925-3.793-1.208-4.61a1.007 1.007 0 00-.365-.488z" fill="#000000" fill-opacity=".56"/><g><path d="M108 207h488v1H108z" fill="#000000" fill-opacity=".12"/><path d="M173.071 188.083c.432 0 .81-.06 1.134-.18.334-.121.612-.295.835-.522.223-.227.39-.502.5-.824a3.3 3.3 0 00.168-1.082c0-.265-.025-.536-.073-.814a7.696 7.696 0 00-.188-.814 12.239 12.239 0 00-.86-2.17l-1.217.64a12.273 12.273 0 01.588 1.422c.1.295.186.595.258.901.072.306.107.591.107.856a2 2 0 01-.07.55.93.93 0 01-.225.403.764.764 0 01-.355.212 1.566 1.566 0 01-.4.052c-.079 0-.162-.005-.25-.014a.65.65 0 01-.352-.136.847.847 0 01-.23-.292 1.47 1.47 0 01-.124-.41 3.026 3.026 0 01-.039-.49c0-.19.014-.408.042-.651.028-.243.06-.473.094-.689l.05-.3.044-.253.035-.222-1.336-.244c-.028.19-.066.414-.115.671a9.558 9.558 0 01-.188.797 7.21 7.21 0 01-.278.807c-.109.264-.236.5-.383.71a2.008 2.008 0 01-.5.507c-.188.13-.4.195-.637.195a.735.735 0 01-.369-.083.622.622 0 01-.23-.223.974.974 0 01-.117-.316 1.894 1.894 0 01-.035-.366c0-.18.018-.377.055-.588.038-.21.082-.417.133-.619a12.77 12.77 0 01.292-.998l-1.378-.292c-.046.227-.102.468-.167.723a7.784 7.784 0 01-.236.762 5.556 5.556 0 01-.327.727 2.873 2.873 0 01-.442.616c-.17.178-.363.322-.58.431a1.626 1.626 0 01-.738.164h-.153V188h.146c.269 0 .516-.022.74-.066a2.704 2.704 0 001.13-.494c.159-.118.307-.252.447-.4.074.172.18.322.316.452.137.13.289.239.456.327.167.088.342.154.525.198.183.044.36.066.532.066.394 0 .768-.095 1.12-.285.353-.19.668-.447.946-.772.098.148.216.286.355.414.14.128.29.239.452.334.162.095.333.17.511.226.179.056.356.083.533.083h.048zm-7.979-.083v-1.363h-.139a2.77 2.77 0 01-.755-.09c-.21-.061-.37-.145-.476-.251a.58.58 0 01-.185-.359 3.758 3.758 0 01-.024-.441v-3.493a48.553 48.553 0 00-.066-2.546c-.02-.403-.046-.776-.077-1.12-.03-.343-.066-.633-.107-.87l-1.364.251c.042.218.078.498.108.839.03.34.056.713.076 1.116.021.404.036.82.046 1.252.009.432.014.847.014 1.245.004.409.007.796.007 1.162 0 .371-.003.7-.007.988a211.402 211.402 0 00-.014 1.037c0 .11.002.244.007.4a2.686 2.686 0 00.247 1.012c.08.176.198.34.35.494.251.25.556.436.916.556.36.12.794.181 1.304.181h.14zm-8.049 0c.919 0 1.621-.243 2.108-.73.172-.177.308-.37.407-.578a3.353 3.353 0 00.324-1.21c.009-.172.014-.32.014-.445v-.181c0-.153-.004-.332-.01-.536a180.475 180.475 0 00-.06-1.68c-.014-.36-.028-.769-.042-1.228a81.232 81.232 0 00-.264-3.875l-1.363.146.034.373a63.323 63.323 0 01.209 3.405l.083 2.104c.024.568.035 1.003.035 1.305v.076c0 .663-.118 1.115-.355 1.357-.222.222-.595.334-1.12.334h-.528V188h.528zm-6.699 5.224a2252.784 2252.784 0 01-.233-6.365l-.003-.243c0-.033.002-.054.007-.063l1.711.633c.334.135.63.252.887.351.257.1.488.181.692.244.204.062.368.103.49.122.124.018.224.027.303.027.065 0 .125-.004.181-.013.176-.051.335-.126.477-.223.141-.097.27-.213.386-.348.171.204.381.363.63.477.247.113.508.172.782.177h.139v-1.363h-.14a.46.46 0 01-.316-.122 1.105 1.105 0 01-.23-.292 1.733 1.733 0 01-.145-.348 3.475 3.475 0 01-.073-.282 3.937 3.937 0 000-.66 4.186 4.186 0 00-.105-.64 3.612 3.612 0 00-.198-.592 2.503 2.503 0 00-.289-.501 2.231 2.231 0 00-.793-.664 2.497 2.497 0 00-1.022-.247h-.077c-.222 0-.429.037-.619.111-.218.088-.42.206-.609.355a2.99 2.99 0 00-.514.525 5.624 5.624 0 00-.425.637 7.22 7.22 0 00-.344.681c-.102.232-.19.452-.264.661a1.74 1.74 0 00-.373-.073 7.078 7.078 0 00-.163-.003 1.88 1.88 0 00-.292.02c-.112.024-.21.057-.296.101-.086.044-.159.09-.219.136a1.203 1.203 0 00-.34.383c-.08.143-.135.28-.168.41-.032.13-.05.246-.052.348l-.004.195.258 6.448h1.363zm3.952-6.63a4.906 4.906 0 01-.751-.216 63.59 63.59 0 01-.568-.211c-.201-.077-.409-.161-.622-.254l-.438-.18c.05-.13.107-.273.17-.429.063-.155.136-.31.22-.462.194-.376.389-.667.583-.873.195-.207.371-.31.53-.31h.013c.051 0 .122.007.212.021.09.014.187.053.289.118.102.065.203.164.303.296.1.132.184.316.253.553.042.134.068.26.077.38.01.117.014.207.014.267 0 .12-.007.241-.021.362a3.3 3.3 0 01-.094.525c-.044.165-.1.302-.17.414z" fill="#2E7D32" fill-rule="nonzero"/><path d="M591.951 187.993c.279 0 .558-.02.839-.063.28-.041.55-.109.81-.201.26-.093.502-.212.727-.359.225-.146.42-.32.588-.525a1.685 1.685 0 00.362-.737c.037-.162.056-.348.059-.557a3.214 3.214 0 00-.08-.702 5.056 5.056 0 00-.317-.908 7.36 7.36 0 00-.508-.932 9.21 9.21 0 00-1.408-1.708 7.958 7.958 0 00-.81-.675 4.88 4.88 0 00-.825-.487l-.564 1.266c.209.093.422.218.64.376.218.158.433.338.644.542.21.205.414.424.609.658.194.234.372.475.532.723.16.248.297.497.41.745.114.248.196.485.247.713.037.167.056.31.056.431 0 .167-.035.292-.105.376-.157.19-.352.331-.584.424-.232.093-.44.147-.626.164a3.996 3.996 0 01-.96-.01 5.912 5.912 0 01-1.62-.443 4.229 4.229 0 01-.62-.323l-.57 1.308c.115.106.299.213.55.32a8.429 8.429 0 001.736.504c.303.053.566.08.788.08zm-9.224 4.988c.39-.19.773-.405 1.151-.644.378-.238.738-.5 1.079-.782a9.21 9.21 0 00.946-.905c.29-.32.54-.656.75-1.008.212-.353.377-.718.495-1.096.118-.378.177-.769.177-1.172 0-.204-.016-.413-.048-.626a9.948 9.948 0 00-.122-.65 19.8 19.8 0 00-.16-.668 95.344 95.344 0 01-.17-.672 10.346 10.346 0 00-.175-.636c-.064-.211-.13-.426-.194-.644l-1.322.418c.125.39.243.779.355 1.168.05.19.104.385.16.585.055.2.106.399.153.598.046.2.084.394.115.584.03.19.045.371.045.543 0 .45-.11.886-.327 1.308-.218.422-.507.82-.866 1.196-.36.376-.769.723-1.228 1.04-.46.318-.932.597-1.42.839l.606 1.224zM576.056 188c.264 0 .542-.012.834-.035.339-.023.684-.06 1.037-.111a14.996 14.996 0 002.06-.449c.32-.095.618-.2.896-.316.279-.116.522-.24.73-.369.219-.14.387-.277.505-.414a1.11 1.11 0 00.237-.407 1.383 1.383 0 00.052-.542 4.954 4.954 0 00-.111-.634 6.504 6.504 0 00-.345-1.053 12.893 12.893 0 00-.434-.933c-.144-.276-.27-.5-.38-.674a8.813 8.813 0 01-.177-.29l-1.155.752c.005.005.038.055.101.15s.14.22.23.375c.09.156.189.334.295.536.107.202.208.414.303.637.095.222.178.448.25.678.072.23.117.449.136.657-.39.218-.81.396-1.263.532-.452.137-.907.245-1.367.324-.459.079-.909.133-1.35.163-.44.03-.843.046-1.21.046-1.298-.005-2.353-.13-3.165-.373-.811-.243-1.33-.592-1.558-1.047a1.365 1.365 0 01-.14-.619c0-.255.056-.535.168-.841a2.686 2.686 0 01.208-.477 5.523 5.523 0 01.244-.4l-1.106-.82c-.01.013-.035.051-.077.114a5.562 5.562 0 00-.344.609 6.33 6.33 0 00-.198.459c-.181.478-.272.937-.272 1.377 0 .44.098.849.293 1.225.343.69.992 1.222 1.947 1.593 1.007.37 2.34.563 4 .577h.126zm-.153 3.624l1.134-1.134-1.141-1.14-1.134 1.133 1.14 1.141zM556.07 188c.282 0 .55-.014.8-.042.25-.028.487-.08.71-.16.222-.079.432-.192.629-.34.197-.149.386-.346.567-.592.213.158.445.312.695.463.25.15.512.278.783.382a3.005 3.005 0 001.123.226c.19 0 .38-.025.57-.076a1.66 1.66 0 00.766-.449c.209-.215.373-.468.494-.758.12-.29.195-.555.223-.797.027-.24.041-.436.041-.584 0-.167-.011-.33-.034-.487a4.21 4.21 0 00-.247-.918 2.864 2.864 0 00-.477-.807c-.2-.237-.44-.428-.72-.574a2.071 2.071 0 00-.97-.22c-.306 0-.574.062-.804.185-.23.123-.433.283-.612.48a3.668 3.668 0 00-.48.675c-.141.253-.275.509-.4.769-.144.287-.286.567-.428.838a3.398 3.398 0 01-.5.723c-.193.211-.426.38-.7.508-.273.128-.617.192-1.03.192h-.139V188h.14zm5.287-1.447c-.186 0-.395-.046-.627-.14-.347-.138-.732-.363-1.154-.674l.375-.758c.116-.227.22-.424.31-.591a3.74 3.74 0 01.257-.418.985.985 0 01.244-.247.466.466 0 01.26-.08c.14 0 .263.028.37.084.106.055.199.126.278.212.078.086.146.18.201.285a2.264 2.264 0 01.216.567c.019.079.03.135.035.167.018.125.028.246.028.362a2.082 2.082 0 01-.129.703c-.053.138-.117.252-.191.34a.444.444 0 01-.23.16 1.003 1.003 0 01-.243.028zm-11.68 6.33a8.524 8.524 0 001.965-.556 7.19 7.19 0 001.725-1.016 6.198 6.198 0 001.322-1.45 5.255 5.255 0 00.754-1.861h.766v-1.363h-.661a6.622 6.622 0 00-.376-2.02 5.342 5.342 0 00-.403-.881 4.395 4.395 0 00-.529-.738c-.552-.593-1.157-.89-1.816-.89a1.77 1.77 0 00-.859.226 2.61 2.61 0 00-.768.664c-.195.25-.365.549-.508.894a3.926 3.926 0 00-.275.925c-.04.272-.06.495-.06.672 0 .185.017.37.05.556.055.353.19.663.403.932.482.599 1.227.928 2.233.988.255.023.483.035.685.035h.79c-.051.348-.194.701-.428 1.06-.234.36-.553.7-.957 1.02-.403.32-.888.608-1.453.863a8.976 8.976 0 01-1.92.598l.32 1.342zm3.755-6.26h-.048c-.204 0-.422-.007-.654-.021a3.506 3.506 0 01-.295-.032 2.472 2.472 0 01-.348-.076 1.635 1.635 0 01-.334-.14.819.819 0 01-.26-.225.651.651 0 01-.143-.33 2.434 2.434 0 01-.025-.31 3.16 3.16 0 01.153-.908c.065-.202.145-.384.24-.546.095-.163.203-.296.324-.4a.577.577 0 01.382-.157c.084 0 .163.014.237.042.074.028.145.064.212.108s.13.093.188.146c.058.053.11.103.156.15.116.134.229.293.338.476.109.183.207.388.295.616.089.227.16.473.216.737.056.264.09.545.104.842-.18.014-.344.022-.49.024l-.296.004h.048zm-8.799-6.296l1.127-1.127-1.14-1.14-1.128 1.133 1.141 1.134zm2.852.014l1.127-1.134-1.14-1.134-1.128 1.127 1.141 1.14zM544.452 188c.38 0 .748-.026 1.103-.077.355-.05.68-.139.977-.264.297-.125.56-.292.79-.5.23-.21.414-.471.553-.787.139-.32.208-.69.208-1.113 0-.074-.002-.148-.006-.222-.033-.515-.154-1.109-.362-1.781a9.034 9.034 0 00-.223-.644 14.061 14.061 0 00-.382-.897 1.712 1.712 0 01-.063-.143l-1.238.612.605 1.489c.097.237.172.463.223.678.05.216.08.385.09.508.01.123.014.215.014.275 0 .111-.007.216-.021.313a1.35 1.35 0 01-.104.369 1.089 1.089 0 01-.39.455c-.167.11-.36.192-.577.247-.218.056-.455.09-.71.101-.255.012-.517.018-.786.018h-1.343V188h1.642zm-7.895 4.883a8.524 8.524 0 001.965-.556 7.19 7.19 0 001.725-1.016 6.198 6.198 0 001.322-1.45 5.255 5.255 0 00.754-1.861h.766v-1.363h-.661a6.622 6.622 0 00-.376-2.02 5.342 5.342 0 00-.403-.881 4.395 4.395 0 00-.529-.738c-.552-.593-1.157-.89-1.816-.89a1.77 1.77 0 00-.859.226 2.61 2.61 0 00-.768.664c-.195.25-.365.549-.508.894a3.926 3.926 0 00-.275.925c-.04.272-.06.495-.06.672 0 .185.017.37.05.556.055.353.19.663.403.932.482.599 1.227.928 2.233.988.255.023.483.035.685.035h.79c-.051.348-.194.701-.428 1.06-.234.36-.553.7-.957 1.02-.403.32-.888.608-1.453.863a8.976 8.976 0 01-1.92.598l.32 1.342zm3.755-6.26h-.048c-.204 0-.422-.007-.654-.021a3.506 3.506 0 01-.295-.032 2.472 2.472 0 01-.348-.076 1.635 1.635 0 01-.334-.14.819.819 0 01-.26-.225.651.651 0 01-.143-.33 2.434 2.434 0 01-.025-.31 3.16 3.16 0 01.153-.908c.065-.202.145-.384.24-.546.095-.163.203-.296.324-.4a.577.577 0 01.382-.157c.084 0 .163.014.237.042.074.028.145.064.212.108s.13.093.188.146c.058.053.11.103.156.15.116.134.229.293.338.476.109.183.207.388.295.616.089.227.16.473.216.737.056.264.09.545.104.842-.18.014-.344.022-.49.024l-.296.004h.048zm-10.051 6.358c.39-.19.773-.405 1.151-.644.378-.238.738-.5 1.078-.782a9.21 9.21 0 00.947-.905c.29-.32.54-.656.75-1.008.212-.353.376-.718.495-1.096.118-.378.177-.769.177-1.172 0-.204-.016-.413-.049-.626a9.948 9.948 0 00-.121-.65 19.8 19.8 0 00-.16-.668 95.344 95.344 0 01-.17-.672 10.346 10.346 0 00-.175-.636c-.065-.211-.13-.426-.194-.644l-1.322.418c.125.39.243.779.355 1.168.05.19.104.385.16.585.055.2.106.399.153.598.046.2.084.394.114.584.03.19.046.371.046.543 0 .45-.11.886-.327 1.308-.218.422-.507.82-.866 1.196-.36.376-.77.723-1.228 1.04-.46.318-.932.597-1.42.839l.606 1.224z" fill-opacity=".87" fill="#000000" fill-rule="nonzero"/><path d="M118.813 184l3.873-3.874a1.003 1.003 0 10-1.42-1.419l-4.584 4.584a1.004 1.004 0 000 1.418l4.584 4.584a1.001 1.001 0 001.42 0 1.003 1.003 0 000-1.419L118.812 184z" fill="#000000" fill-opacity=".32"/></g><g><path d="M108 159h488v1H108z" fill="#000000" fill-opacity=".12"/><path d="M133.35 140c.24 0 .442-.016.605-.049.983-.18 1.68-.637 2.094-1.37.097-.176.182-.371.254-.584.071-.214.116-.405.132-.574.016-.17.024-.303.024-.4a3.57 3.57 0 00-.042-.53 4.165 4.165 0 00-.25-.903 5.846 5.846 0 00-.529-1.013 8.611 8.611 0 00-.87-1.116 10.845 10.845 0 00-.8-.8c-.268-.241-.516-.46-.744-.654l4.981-2.094-.535-1.266-5.719 2.449-.16 1.426c.38.306.754.635 1.12.988.367.352.698.696.995 1.033.297.336.546.651.748.946.202.294.328.537.379.727.065.25.097.484.097.702a1.71 1.71 0 01-.278.946c-.13.195-.308.345-.535.449-.228.104-.478.18-.752.23a5.667 5.667 0 01-.862.083c-.302.007-.592.01-.87.01h-.87V140h2.387zm-2.108 0v-1.363h-.14a2.77 2.77 0 01-.754-.09c-.211-.061-.37-.145-.477-.251a.58.58 0 01-.184-.359 3.758 3.758 0 01-.024-.441v-3.493a48.553 48.553 0 00-.066-2.546c-.021-.403-.047-.776-.077-1.12-.03-.343-.066-.633-.108-.87l-1.363.251c.041.218.077.498.108.839.03.34.055.713.076 1.116.02.404.036.82.045 1.252.01.432.014.847.014 1.245.005.409.007.796.007 1.162 0 .371-.002.7-.007.988a211.402 211.402 0 00-.013.957v.08c0 .11.002.244.006.4a2.686 2.686 0 00.247 1.012c.081.176.198.34.351.494.25.25.556.436.915.556.36.12.794.181 1.305.181h.139zm-12.585 0c.283 0 .55-.014.8-.042.25-.028.487-.08.71-.16.223-.079.432-.192.63-.34.197-.149.386-.346.566-.592.214.158.446.312.696.463.25.15.511.278.783.382a3.005 3.005 0 001.123.226c.19 0 .38-.025.57-.076a1.66 1.66 0 00.766-.449c.209-.215.373-.468.494-.758.12-.29.195-.555.222-.797.028-.24.042-.436.042-.584 0-.167-.011-.33-.035-.487a4.21 4.21 0 00-.247-.918 2.864 2.864 0 00-.476-.807c-.2-.237-.44-.428-.72-.574a2.071 2.071 0 00-.97-.22c-.307 0-.574.062-.804.185-.23.123-.434.283-.612.48a3.668 3.668 0 00-.48.675c-.142.253-.275.509-.4.769-.144.287-.287.567-.428.838a3.398 3.398 0 01-.5.723c-.193.211-.426.38-.7.508-.274.128-.617.192-1.03.192h-.139V140h.14zm5.287-1.447c-.185 0-.394-.046-.626-.14-.348-.138-.732-.363-1.155-.674l.376-.758c.116-.227.22-.424.31-.591a3.74 3.74 0 01.257-.418.985.985 0 01.244-.247.466.466 0 01.26-.08c.14 0 .262.028.37.084.106.055.199.126.277.212.08.086.146.18.202.285a2.264 2.264 0 01.216.567c.018.079.03.135.035.167.018.125.027.246.027.362a2.082 2.082 0 01-.129.703c-.053.138-.116.252-.19.34a.444.444 0 01-.23.16 1.003 1.003 0 01-.244.028zm-11.144 6.01c.241 0 .492-.018.751-.055a4.818 4.818 0 002.077-.828c.322-.227.607-.509.855-.845a4.16 4.16 0 00.595-1.183c.149-.452.223-.97.223-1.555v-.403c.171.097.36.173.567.226.206.053.47.08.79.08h.139v-1.363h-.14c-.245 0-.455-.043-.63-.13a1.274 1.274 0 01-.434-.344 1.489 1.489 0 01-.26-.49 2.03 2.03 0 01-.095-.567 693.716 693.716 0 00-.205-5.562c-.03-.707-.064-1.434-.1-2.18l-1.364.055a306.554 306.554 0 01.18 4.237c.024.575.047 1.165.07 1.77.023.605.043 1.193.06 1.764.015.57.03 1.106.041 1.607.012.5.017.934.017 1.3 0 .395-.052.746-.156 1.054-.104.309-.244.58-.418.814a2.709 2.709 0 01-.601.595 3.418 3.418 0 01-1.43.588 4.02 4.02 0 01-.609.052 2.722 2.722 0 01-.7-.094 3.177 3.177 0 01-.566-.209 2.989 2.989 0 01-.553-.344 2.395 2.395 0 01-.473-.494 2.388 2.388 0 01-.327-.657 2.665 2.665 0 01-.121-.832 6.202 6.202 0 01.368-2.19c.051-.145.108-.278.17-.4.063-.124.127-.236.192-.338l-1.245-.557c-.158.227-.297.51-.418.849a7.737 7.737 0 00-.292 1.085 8.18 8.18 0 00-.139 1.551v.056c0 .44.056.84.167 1.197a3.48 3.48 0 001.158 1.757c.262.21.54.385.832.524a4.678 4.678 0 002.024.46z" fill="#2E7D32" fill-rule="nonzero"/><path d="M552.584 140.083c.432 0 .81-.06 1.134-.18.334-.121.612-.295.835-.522.223-.227.39-.502.5-.824a3.3 3.3 0 00.168-1.082c0-.265-.024-.536-.073-.814a7.696 7.696 0 00-.188-.814 12.239 12.239 0 00-.86-2.17l-1.217.64a12.273 12.273 0 01.588 1.422c.1.295.186.595.258.901.072.306.108.591.108.856a2 2 0 01-.07.55.93.93 0 01-.226.403.764.764 0 01-.355.212 1.566 1.566 0 01-.4.052c-.079 0-.162-.005-.25-.014a.65.65 0 01-.352-.136.847.847 0 01-.23-.292 1.47 1.47 0 01-.124-.41 3.026 3.026 0 01-.039-.49c0-.19.014-.408.042-.651.028-.243.06-.473.094-.689l.05-.3.044-.253.035-.222-1.336-.244c-.028.19-.066.414-.115.671a9.558 9.558 0 01-.188.797 7.21 7.21 0 01-.278.807c-.109.264-.236.5-.382.71a2.008 2.008 0 01-.501.507c-.188.13-.4.195-.637.195a.735.735 0 01-.369-.083.622.622 0 01-.23-.223.974.974 0 01-.117-.316 1.894 1.894 0 01-.035-.366c0-.18.018-.377.055-.588.038-.21.082-.417.133-.619a12.77 12.77 0 01.292-.998l-1.378-.292c-.046.227-.102.468-.167.723a7.784 7.784 0 01-.236.762 5.556 5.556 0 01-.327.727 2.873 2.873 0 01-.442.616c-.169.178-.363.322-.58.431a1.626 1.626 0 01-.738.164h-.153V140h.146c.269 0 .516-.022.74-.066a2.704 2.704 0 001.13-.494c.159-.118.307-.252.447-.4.074.172.18.322.316.452.137.13.289.239.456.327.167.088.342.154.525.198.183.044.36.066.532.066.394 0 .768-.095 1.12-.285.353-.19.668-.447.946-.772.098.148.216.286.355.414.14.128.29.239.452.334.162.095.333.17.511.226.179.056.356.083.533.083h.048zm-10.95-6.497l1.135-1.134-1.141-1.14-1.134 1.133 1.14 1.141zM539.68 140c.682 0 1.254-.07 1.718-.212.464-.142.842-.358 1.134-.65.2.254.455.462.765.622.311.16.7.24 1.17.24h.138v-1.363h-.139c-.236 0-.43-.054-.58-.16a1.141 1.141 0 01-.356-.404 1.905 1.905 0 01-.184-.529 4.913 4.913 0 01-.076-.542 21.339 21.339 0 00-.126-1.204 6.535 6.535 0 00-.201-.946l-1.308.369c.102.352.173.665.212.939.04.274.06.543.06.807 0 .552-.177.968-.53 1.249-.352.28-.918.42-1.697.42h-.257V140h.257zm.02 0v-1.363h-.138c-.279 0-.508-.036-.689-.108a1.244 1.244 0 01-.452-.3 1.755 1.755 0 01-.31-.466 15.476 15.476 0 01-.268-.608c-.18-.422-.35-.827-.51-1.214a3908.577 3908.577 0 01-1.618-3.927l-1.266.529 2.198 5.287a2.64 2.64 0 01-.925.584c-.25.097-.463.154-.637.17a4.617 4.617 0 01-.393.025c-.185 0-.37-.021-.556-.063a3.191 3.191 0 01-.842-.32 4.114 4.114 0 01-.842-.619l-.786 1.106c.394.408.824.725 1.29.95a3.45 3.45 0 001.52.337c.33 0 .627-.02.891-.06a4.2 4.2 0 00.734-.173c.225-.077.436-.173.633-.289.197-.116.393-.25.588-.403a2.4 2.4 0 00.348.358c.134.114.29.212.47.296.178.083.384.15.618.198.234.049.502.073.804.073h.139zm-20.403 4.883a8.398 8.398 0 001.406-.344c.459-.155.896-.348 1.31-.577.416-.23.803-.498 1.163-.804a5.91 5.91 0 00.95-1.022c.273-.376.498-.785.674-1.228.176-.443.29-.92.34-1.43a6.442 6.442 0 00.008-1.266 6.891 6.891 0 00-.23-1.217 5.77 5.77 0 00-.435-1.096 4.275 4.275 0 00-.622-.9c-.552-.594-1.157-.891-1.816-.891a1.77 1.77 0 00-.859.226 2.61 2.61 0 00-.769.664c-.194.25-.364.549-.507.894a3.926 3.926 0 00-.275.925c-.04.272-.06.495-.06.672 0 .185.017.37.05.556.055.353.19.663.403.932.482.599 1.226.928 2.233.988.255.023.483.035.685.035h.79c-.051.348-.194.701-.428 1.06-.234.36-.553.7-.957 1.02-.403.32-.888.608-1.454.863a8.976 8.976 0 01-1.92.598l.32 1.342zm3.755-6.26h-.047c-.204 0-.422-.007-.654-.021a3.506 3.506 0 01-.295-.032 2.472 2.472 0 01-.348-.076 1.635 1.635 0 01-.334-.14.819.819 0 01-.261-.225.651.651 0 01-.143-.33 2.434 2.434 0 01-.024-.31 3.16 3.16 0 01.153-.908c.065-.202.145-.384.24-.546.095-.163.203-.296.324-.4a.577.577 0 01.382-.157c.084 0 .163.014.237.042.074.028.145.064.212.108s.13.093.188.146c.058.053.11.103.156.15.116.134.229.293.338.476.109.183.207.388.295.616.088.227.16.473.216.737.056.264.09.545.104.842-.18.014-.344.022-.49.024l-.296.004h.047zM505.496 140c.283 0 .55-.014.8-.042.25-.028.487-.08.71-.16.222-.079.432-.192.629-.34.197-.149.386-.346.567-.592.213.158.445.312.695.463.25.15.512.278.783.382a3.005 3.005 0 001.123.226c.19 0 .38-.025.57-.076a1.66 1.66 0 00.766-.449c.209-.215.373-.468.494-.758.12-.29.195-.555.223-.797.027-.24.041-.436.041-.584 0-.167-.011-.33-.034-.487a4.21 4.21 0 00-.247-.918 2.864 2.864 0 00-.477-.807c-.2-.237-.44-.428-.72-.574a2.071 2.071 0 00-.97-.22c-.306 0-.574.062-.804.185-.23.123-.433.283-.612.48a3.668 3.668 0 00-.48.675c-.141.253-.275.509-.4.769-.144.287-.286.567-.428.838a3.398 3.398 0 01-.5.723c-.193.211-.426.38-.7.508-.273.128-.617.192-1.03.192h-.138V140h.139zm5.287-1.447c-.186 0-.395-.046-.626-.14-.348-.138-.733-.363-1.155-.674l.375-.758c.116-.227.22-.424.31-.591a3.74 3.74 0 01.257-.418.985.985 0 01.244-.247.466.466 0 01.26-.08c.14 0 .263.028.37.084.106.055.199.126.278.212.078.086.146.18.201.285a2.264 2.264 0 01.216.567c.019.079.03.135.035.167.018.125.028.246.028.362a2.082 2.082 0 01-.129.703c-.053.138-.117.252-.191.34a.444.444 0 01-.23.16 1.003 1.003 0 01-.243.028zM505.635 140v-1.363h-.14c-.278 0-.507-.036-.688-.108a1.244 1.244 0 01-.452-.3 1.755 1.755 0 01-.31-.466 15.476 15.476 0 01-.268-.608c-.18-.422-.35-.827-.51-1.214a3908.577 3908.577 0 01-1.618-3.927l-1.266.529 2.198 5.287a2.64 2.64 0 01-.925.584c-.25.097-.463.154-.637.17a4.617 4.617 0 01-.393.025c-.185 0-.37-.021-.556-.063a3.191 3.191 0 01-.842-.32 4.114 4.114 0 01-.842-.619l-.786 1.106c.394.408.824.725 1.29.95a3.45 3.45 0 001.52.337c.33 0 .627-.02.89-.06a4.2 4.2 0 00.735-.173c.225-.077.436-.173.633-.289.197-.116.393-.25.588-.403a2.4 2.4 0 00.347.358c.135.114.291.212.47.296.179.083.385.15.62.198.233.049.501.073.803.073h.139zm-9.99.063c.065-.77.103-1.496.115-2.178.012-.682.017-1.226.017-1.635 0-.677-.007-1.4-.02-2.17a63.584 63.584 0 00-.355-5.064l-1.364.208c.158 1.461.283 3.316.376 5.566.014.384.02.793.02 1.224 0 .357-.004.73-.013 1.12a64.701 64.701 0 01-.146 2.852l1.37.077zm-8.09 4.918c.39-.19.773-.405 1.151-.644.378-.238.737-.5 1.078-.782a9.21 9.21 0 00.946-.905c.29-.32.54-.656.752-1.008.21-.353.375-.718.494-1.096.118-.378.177-.769.177-1.172 0-.204-.016-.413-.049-.626a9.948 9.948 0 00-.121-.65 19.8 19.8 0 00-.16-.668 95.343 95.343 0 01-.17-.672 10.346 10.346 0 00-.175-.636c-.065-.211-.13-.426-.195-.644l-1.321.418c.125.39.243.779.355 1.168.05.19.104.385.16.585.055.2.106.399.153.598.046.2.084.394.114.584.03.19.046.371.046.543 0 .45-.11.886-.327 1.308-.218.422-.507.82-.866 1.196-.36.376-.77.723-1.228 1.04-.46.318-.932.597-1.42.839l.606 1.224zm-7.792-5.002c.311 0 .64-.006.985-.017.345-.012.694-.037 1.047-.077.352-.04.704-.094 1.054-.163.35-.07.685-.164 1.005-.282.32-.118.619-.264.897-.438.279-.174.524-.382.738-.623.287-.413.455-.757.504-1.033.049-.276.073-.49.073-.643 0-.223-.028-.441-.083-.654a3.478 3.478 0 00-.498-1.058 8.094 8.094 0 00-.824-1.012 14.258 14.258 0 00-1.026-.974c-.369-.317-.736-.632-1.103-.942l5.301-2.22-.536-1.266-5.982 2.498-.174 1.593c.158.139.343.295.556.47.214.173.437.359.672.556.234.197.47.403.706.619.236.216.458.436.664.66.207.226.389.452.546.68.158.226.267.433.327.618.06.186.09.35.09.494 0 .065-.004.13-.013.195a1.144 1.144 0 01-.3.591c-.357.39-.901.668-1.634.835-.733.167-1.575.25-2.525.25-.144 0-.293-.002-.446-.006a16.919 16.919 0 01-1.791-.126 9.864 9.864 0 01-1.433-.281 4.003 4.003 0 01-1.037-.439c-.275-.174-.476-.372-.601-.594a.882.882 0 01-.098-.425v-.09c.014-.195.056-.4.126-.612.07-.214.156-.426.26-.637a8.49 8.49 0 01.31-.574l-1.1-.814-.086.122a3.427 3.427 0 00-.153.243c-.058.1-.122.218-.191.355-.07.137-.135.289-.195.456-.25.598-.377 1.02-.38 1.266l-.002.34v.057c0 .44.092.83.277 1.168.195.353.483.652.863.898.38.245.833.445 1.357.598.524.153 1.111.264 1.763.334.652.07 1.348.104 2.09.104z" fill-opacity=".87" fill="#000000" fill-rule="nonzero"/><path d="M586.582 125.186c.529 0 1.048.216 1.422.593l4.402 4.402c.378.375.594.893.594 1.423v9.128c0 1.654-1.346 3-3 3v.167a2.836 2.836 0 01-2.833 2.833H580c-2.757 0-5-2.243-5-5V131.02a2.837 2.837 0 012.833-2.834H578c0-1.654 1.346-3 3-3zm-8.582 5h-.167a.835.835 0 00-.833.834v10.712c0 1.654 1.346 3 3 3h7.167a.834.834 0 00.833-.833v-.167h-7c-1.654 0-3-1.346-3-3v-10.546zm7-3h-4c-.552 0-1 .45-1 1v12.546c0 .551.448 1 1 1h9c.552 0 1-.449 1-1v-7.546h-4c-1.103 0-2-.897-2-2v-4zm3.464 10.501a1 1 0 110 2h-6a1 1 0 110-2zm-3.195-3a1 1 0 110 2h-3a1 1 0 110-2zm1.731-7.084v3.583h3.582L587 127.603z" fill="#000000" fill-opacity=".56"/></g><g><path d="M108 111h488v1H108z" fill="#000000" fill-opacity=".12"/><path d="M111.513 92.07v-.912a53.262 53.262 0 00-.042-2.121 28.95 28.95 0 00-.059-1.061c-.025-.341-.058-.662-.097-.964a7.409 7.409 0 00-.143-.793c.31.288.674.493 1.089.616.415.123.84.184 1.276.184.464 0 .914-.058 1.35-.174a3.74 3.74 0 001.252-.612l-.612-1.127c-.135.097-.28.179-.438.244a3.415 3.415 0 01-.494.16 4.34 4.34 0 01-.529.093c-.18.021-.357.034-.529.039h-.139c-.157 0-.308-.012-.452-.035a1.54 1.54 0 01-.511-.164 1.18 1.18 0 01-.386-.333 1.347 1.347 0 01-.23-.533 1.69 1.69 0 01-.007-.153c0-.153.026-.296.077-.431.07-.176.17-.332.302-.466.132-.135.29-.244.473-.327.184-.083.332-.13.446-.14a3.43 3.43 0 01.24-.013c.125 0 .24.014.347.042a2.672 2.672 0 01.79.375c.114.08.211.153.292.223.081.07.147.127.198.174l.07.07.995-.96a16.4 16.4 0 00-.341-.314 4.123 4.123 0 00-.515-.382 3.577 3.577 0 00-.98-.473 3.254 3.254 0 00-.905-.14h-.118a2.983 2.983 0 00-2.216 1.169 2.86 2.86 0 00-.42.766 8.55 8.55 0 00-.377-.884c-.143-.292-.296-.57-.459-.835l-1.154.73c.347.548.624 1.179.83 1.893.207.714.366 1.482.477 2.302.112.821.184 1.678.216 2.57.032.894.049 1.792.049 2.697h1.384zm8.78-1.482c.324 0 .629-.062.914-.185a2.396 2.396 0 001.263-1.252c.125-.285.187-.592.187-.921 0-.325-.062-.63-.187-.915a2.438 2.438 0 00-1.263-1.263 2.25 2.25 0 00-.915-.188c-.33 0-.636.063-.922.188a2.396 2.396 0 00-1.252 1.263c-.123.285-.184.59-.184.915 0 .329.061.636.184.921a2.376 2.376 0 001.252 1.252c.286.123.593.185.922.185zm0-1.134c-.168 0-.325-.033-.474-.097a1.259 1.259 0 01-.654-.654 1.192 1.192 0 010-.95 1.248 1.248 0 01.654-.657 1.192 1.192 0 01.95 0 1.248 1.248 0 01.657.657 1.192 1.192 0 010 .95 1.259 1.259 0 01-.657.654c-.151.064-.31.097-.477.097zm6.149 2.553l4.139-10.922h-1.544l-4.126 10.922h1.53zm-.821-7.84l1.405-1.398-1.412-1.412-1.405 1.398 1.412 1.412zm4.39 7.791l1.405-1.398-1.413-1.412-1.405 1.398 1.412 1.412z" fill="#E65100" fill-rule="nonzero"/><path d="M590.567 96.98c.39-.19.773-.404 1.151-.643.378-.238.738-.5 1.079-.782a9.21 9.21 0 00.946-.905c.29-.32.54-.656.75-1.008.212-.353.377-.718.495-1.096.118-.378.177-.769.177-1.172 0-.204-.016-.413-.048-.626a9.948 9.948 0 00-.122-.65 19.8 19.8 0 00-.16-.668 95.343 95.343 0 01-.17-.672 10.346 10.346 0 00-.175-.636c-.064-.211-.13-.426-.194-.644l-1.322.418c.125.39.243.779.355 1.168.05.19.104.385.16.585.055.2.106.399.153.598.046.2.084.394.115.584.03.19.045.371.045.543 0 .45-.11.886-.327 1.308-.218.422-.507.82-.866 1.196-.36.376-.769.723-1.228 1.04-.46.318-.932.597-1.42.839l.606 1.224zm-4.07-4.98c.38 0 .748-.026 1.103-.077.355-.05.68-.139.977-.264.297-.125.56-.292.79-.5.23-.21.414-.471.553-.787.14-.32.209-.69.209-1.113 0-.074-.003-.148-.007-.222-.033-.515-.153-1.109-.362-1.781a9.033 9.033 0 00-.223-.644 14.061 14.061 0 00-.382-.897 1.712 1.712 0 01-.063-.143l-1.238.612.605 1.489c.098.237.172.463.223.678.05.216.08.385.09.508.01.123.014.215.014.275 0 .111-.007.216-.02.313a1.35 1.35 0 01-.105.369 1.089 1.089 0 01-.39.455c-.167.11-.36.192-.577.247-.218.056-.455.09-.71.101-.255.012-.517.018-.786.018h-1.342V92h1.641zm-.347 3.402l1.127-1.127-1.141-1.141-1.127 1.134 1.14 1.134zm2.852.014l1.127-1.134-1.141-1.134-1.127 1.127 1.14 1.14zm-6.839-9.83l1.134-1.134-1.14-1.14-1.134 1.133 1.14 1.141zM580.21 92c.681 0 1.254-.07 1.718-.212.464-.142.842-.358 1.134-.65.2.254.454.462.765.622.31.16.7.24 1.169.24h.139v-1.363h-.14c-.236 0-.43-.054-.58-.16a1.141 1.141 0 01-.355-.404 1.905 1.905 0 01-.184-.529 4.913 4.913 0 01-.077-.542 21.335 21.335 0 00-.125-1.204 6.534 6.534 0 00-.202-.946l-1.308.369c.103.352.173.665.213.939.04.274.059.543.059.807 0 .552-.176.968-.529 1.249-.352.28-.918.42-1.697.42h-.258V92h.258zm-7.868-9.927l5.593-2.365-.327-.703-5.217 2.178-.05.89zM580.23 92v-1.363h-.195a4.643 4.643 0 01-.758-.07 2.482 2.482 0 01-.62-.195 2.725 2.725 0 01-.716-.48 3.246 3.246 0 01-.498-.598 3.881 3.881 0 01-.34-.661 12.61 12.61 0 01-.247-.675 5.431 5.431 0 00-.505-1.06 8.138 8.138 0 00-.751-1.037 9.893 9.893 0 00-.953-.974c-.35-.313-.72-.606-1.11-.88l5.51-2.324-.522-1.266-6.24 2.686-.188 1.537c.186.144.404.315.654.515a17.592 17.592 0 011.562 1.412c.257.264.484.531.678.8.195.269.341.523.439.762.097.239.146.455.146.65 0 .051-.003.102-.007.153a1.193 1.193 0 01-.33.682c-.193.209-.493.39-.902.543-.31.12-.763.216-1.356.288-.594.072-1.364.129-2.31.17a8.51 8.51 0 01-.89-.014 11.983 11.983 0 01-2.004-.32 8.132 8.132 0 01-.91-.284 3.558 3.558 0 01-.717-.362c-.2-.135-.337-.278-.41-.432a1.06 1.06 0 01-.105-.48v-.062c.01-.2.048-.406.118-.62.07-.213.159-.421.268-.625a4.99 4.99 0 01.337-.55l-1.099-.82a1.97 1.97 0 00-.08.124c-.04.065-.088.148-.146.247a7.28 7.28 0 00-.4.81c-.204.465-.316.815-.337 1.051-.021.237-.032.4-.032.487 0 .283.042.543.126.78.106.31.274.586.504.827.23.241.502.454.817.637.316.183.667.337 1.054.462a9.73 9.73 0 001.218.306c.424.08.859.136 1.304.17.445.036.886.053 1.322.053.82 0 1.538-.022 2.153-.066a8.473 8.473 0 001.61-.254c.46-.125.854-.301 1.183-.529.33-.227.617-.524.862-.89a3.897 3.897 0 001.573 1.297c.635.29 1.335.437 2.1.442h.14zm-24.536.083c.431 0 .81-.06 1.134-.18.334-.121.612-.295.835-.522.222-.227.39-.502.5-.824a3.3 3.3 0 00.167-1.082c0-.265-.024-.536-.073-.814a7.696 7.696 0 00-.187-.814 12.239 12.239 0 00-.86-2.17l-1.217.64a12.272 12.272 0 01.588 1.422c.1.295.185.595.257.901.072.306.108.591.108.856a2 2 0 01-.07.55.93.93 0 01-.226.403.764.764 0 01-.354.212 1.566 1.566 0 01-.4.052c-.08 0-.163-.005-.25-.014a.65.65 0 01-.352-.136.847.847 0 01-.23-.292 1.47 1.47 0 01-.125-.41 3.026 3.026 0 01-.038-.49c0-.19.014-.408.042-.651.027-.243.059-.473.094-.689.034-.215.066-.4.093-.553l.035-.222-1.335-.244c-.028.19-.067.414-.115.671a9.558 9.558 0 01-.188.797 7.21 7.21 0 01-.278.807c-.11.264-.237.5-.383.71a2.008 2.008 0 01-.5.507c-.189.13-.4.195-.637.195a.735.735 0 01-.369-.083.622.622 0 01-.23-.223.974.974 0 01-.118-.316 1.894 1.894 0 01-.035-.366c0-.18.019-.377.056-.588.037-.21.081-.417.132-.619a12.77 12.77 0 01.292-.998l-1.377-.292c-.046.227-.102.468-.167.723a7.784 7.784 0 01-.236.762 5.556 5.556 0 01-.327.727 2.873 2.873 0 01-.442.616c-.17.178-.363.322-.581.431a1.626 1.626 0 01-.737.164h-.153V92h.146c.269 0 .516-.022.74-.066a2.704 2.704 0 001.13-.494c.159-.118.307-.252.446-.4.074.172.18.322.317.452.136.13.288.239.455.327.167.088.342.154.526.198.183.044.36.066.532.066.394 0 .767-.095 1.12-.285.352-.19.668-.447.946-.772.097.148.215.286.355.414.139.128.29.239.452.334.162.095.332.17.511.226.179.056.356.083.532.083h.049zM539.38 92c.714 0 1.336-.188 1.864-.563.27-.186.464-.374.585-.564.867.608 1.764.97 2.692 1.085.079.01.155.014.23.014.477 0 .883-.22 1.217-.66.176.231.397.404.664.518.267.113.572.17.915.17h.167v-1.363h-.167a.926.926 0 01-.717-.32 1.072 1.072 0 01-.194-.341 1.341 1.341 0 01-.077-.41 5.854 5.854 0 00-.08-.759 4.076 4.076 0 00-.536-1.437 2.539 2.539 0 00-.47-.567 2.081 2.081 0 00-.615-.382 2.035 2.035 0 00-.769-.14c-.408 0-.757.109-1.047.324-.29.216-.534.495-.733.838l-.053.087c-.02.035-.054.098-.1.188-.047.09-.112.22-.195.39-.084.17-.197.395-.341.678-.176.339-.346.62-.508.842-.5.668-1.076 1.004-1.725 1.009h-.146V92h.139zm5.21-1.384c-.07 0-.146-.007-.23-.021a3.463 3.463 0 01-.768-.272 7.137 7.137 0 01-.95-.556l.039-.077.09-.184.191-.39c.084-.169.195-.397.334-.685.283-.52.548-.779.793-.779.21 0 .39.058.543.174.153.116.28.266.38.449.099.183.175.388.229.615.053.228.084.453.094.675v.112c0 .125-.012.238-.035.34a1 1 0 01-.146.334c-.12.177-.309.265-.564.265zm-15.012-4.327l1.127-1.127-1.14-1.141-1.128 1.134 1.141 1.134zm2.852.014l1.127-1.134-1.14-1.134-1.128 1.127 1.141 1.14zm-2.017 5.718c2.639 0 4.57-.64 5.795-1.92.102.283.245.536.431.758.58.747 1.472 1.127 2.678 1.141h.195v-1.363h-.174c-.756-.005-1.296-.214-1.62-.627a1.391 1.391 0 01-.293-.584 3.455 3.455 0 01-.09-.626v-.056c0-.074.007-.162.02-.264a5.796 5.796 0 01.136-.748 10.8 10.8 0 01.08-.31l-1.322-.361c-.06.209-.128.422-.205.64-.076.218-.17.433-.278.647-.109.213-.24.42-.393.619-.153.2-.336.383-.55.55-.477.39-1.076.673-1.794.852-.72.178-1.591.268-2.616.268-1.146-.005-2.077-.126-2.793-.362-.717-.237-1.214-.594-1.492-1.072a1.688 1.688 0 01-.223-.573 3.026 3.026 0 01-.049-.512c0-.06.003-.118.007-.174a2.93 2.93 0 01.087-.598c.049-.19.099-.357.15-.5.05-.145.097-.26.139-.349.042-.088.063-.134.063-.139l-1.204-.66c-.023.032-.09.177-.198.434a8.028 8.028 0 00-.338 1.047c-.055.209-.09.4-.104.574a4.626 4.626 0 00-.007.79c.019.24.064.482.136.723.072.241.175.475.31.703.417.705 1.088 1.22 2.013 1.548.926.326 2.093.495 3.503.504zm-17.42 4.96c.39-.19.774-.405 1.152-.644.378-.238.737-.5 1.078-.782a9.21 9.21 0 00.946-.905c.29-.32.54-.656.752-1.008.21-.353.375-.718.494-1.096.118-.378.177-.769.177-1.172 0-.204-.016-.413-.049-.626a9.948 9.948 0 00-.121-.65 19.8 19.8 0 00-.16-.668 95.343 95.343 0 01-.17-.672 10.346 10.346 0 00-.175-.636c-.065-.211-.13-.426-.195-.644l-1.321.418c.125.39.243.779.355 1.168.05.19.104.385.16.585.055.2.106.399.153.598.046.2.084.394.114.584.03.19.046.371.046.543 0 .45-.11.886-.327 1.308-.218.422-.507.82-.866 1.196-.36.376-.77.723-1.228 1.04-.46.318-.932.597-1.42.839l.606 1.224zm-.778-4.918c.065-.77.103-1.496.114-2.178.012-.682.018-1.226.018-1.635 0-.677-.007-1.4-.021-2.17a63.584 63.584 0 00-.355-5.064l-1.363.208c.157 1.461.283 3.316.375 5.566.014.384.021.793.021 1.224 0 .357-.004.73-.014 1.12a64.7 64.7 0 01-.146 2.852l1.37.077zm-5.552-7.653l1.134-1.133-1.14-1.141-1.135 1.134 1.141 1.14zM505.551 92c.38 0 .734-.026 1.061-.077.327-.05.623-.139.887-.264s.498-.292.7-.5c.201-.21.371-.471.51-.787.14-.32.21-.69.21-1.113 0-.074-.003-.148-.008-.222-.032-.515-.153-1.109-.361-1.781a9.033 9.033 0 00-.223-.644 14.063 14.063 0 00-.383-.897 1.713 1.713 0 01-.062-.143l-1.239.612.606 1.489c.097.237.171.463.222.678.051.216.081.385.09.508.01.123.015.215.015.275 0 .111-.007.216-.021.313a1.35 1.35 0 01-.105.369 1.245 1.245 0 01-.347.455c-.14.11-.302.192-.487.247-.186.056-.392.09-.62.101-.227.012-.475.018-.744.018h-.807V92h1.106zm-3.798-6.414l1.134-1.134-1.14-1.14-1.135 1.133 1.141 1.141zM499.798 92c.682 0 1.255-.07 1.719-.212.463-.142.841-.358 1.133-.65.2.254.455.462.766.622.31.16.7.24 1.168.24h.14v-1.363h-.14c-.236 0-.43-.054-.58-.16a1.141 1.141 0 01-.355-.404 1.905 1.905 0 01-.185-.529 4.913 4.913 0 01-.076-.542 21.339 21.339 0 00-.125-1.204 6.535 6.535 0 00-.202-.946l-1.308.369c.102.352.173.665.212.939.04.274.06.543.06.807 0 .552-.177.968-.53 1.249-.352.28-.918.42-1.697.42h-.257V92h.257zm.021 0v-1.363h-.139c-.278 0-.508-.036-.689-.108a1.244 1.244 0 01-.452-.3 1.755 1.755 0 01-.31-.466 15.476 15.476 0 01-.267-.608c-.181-.422-.352-.827-.512-1.214a3908.251 3908.251 0 01-1.617-3.927l-1.266.529 2.198 5.287a2.64 2.64 0 01-.925.584c-.25.097-.463.154-.637.17a4.617 4.617 0 01-.393.025c-.185 0-.37-.021-.556-.063a3.191 3.191 0 01-.842-.32 4.114 4.114 0 01-.842-.619l-.786 1.106c.395.408.825.725 1.29.95a3.45 3.45 0 001.52.337c.33 0 .627-.02.891-.06a4.2 4.2 0 00.734-.173c.225-.077.436-.173.633-.289.197-.116.393-.25.588-.403a2.4 2.4 0 00.348.358c.134.114.29.212.47.296.178.083.384.15.619.198.234.049.502.073.803.073h.14zm-12.431 0c.083 0 .186-.003.31-.01.122-.007.253-.024.392-.05.14-.025.286-.06.439-.103.153-.045.303-.104.452-.178.408-.2.718-.475.929-.828.21-.352.316-.767.316-1.245 0-.478-.139-.997-.417-1.558-.279-.561-.703-1.167-1.273-1.816a13.94 13.94 0 00-.585-.615 21.21 21.21 0 00-.511-.49c-.15-.14-.272-.249-.365-.328a1.407 1.407 0 01-.146-.132l-.877 1.064c0 .005.042.042.125.112.084.07.195.167.334.292a9.896 9.896 0 00-.814.848c-.756.91-1.134 1.784-1.134 2.623 0 .478.114.892.341 1.242.228.35.564.63 1.009.838.172.084.34.148.508.195.167.046.319.08.456.1a2.818 2.818 0 00.45.038l.06.001zm.05-1.385h-.05a2.245 2.245 0 01-.362-.034 2.836 2.836 0 01-.257-.06 1.662 1.662 0 01-.272-.1 1.07 1.07 0 01-.299-.188.867.867 0 01-.17-.212.669.669 0 01-.077-.22 1.397 1.397 0 01-.017-.215c0-.236.054-.475.163-.716a4.18 4.18 0 01.4-.696c.158-.223.326-.427.505-.612.178-.186.335-.339.47-.46.45.488.792.947 1.029 1.378.236.431.355.8.355 1.106 0 .209-.039.38-.115.511a.918.918 0 01-.372.338c-.088.042-.181.074-.279.097-.097.023-.19.042-.278.056-.088.014-.17.022-.243.024a6.035 6.035 0 01-.181.004h.05z" fill-opacity=".87" fill="#000000" fill-rule="nonzero"/></g><g fill="#000000"><text font-family="Roboto-Regular, Roboto" font-size="12" fill-opacity=".56" transform="translate(620 56)"><tspan x="17.252" y="33.559">normal</tspan></text><path d="M639.156 187.559v-4.518a1.91 1.91 0 01.621-.738c.266-.188.575-.282.926-.282.434 0 .753.11.958.329.205.218.31.556.314 1.013v4.196h1.084v-4.19c-.012-1.512-.688-2.267-2.028-2.267-.781 0-1.414.304-1.898.914l-.035-.797h-1.026v6.34h1.084zm7.494.117c.7 0 1.301-.262 1.805-.785.04.32.09.543.152.668h1.137v-.094c-.148-.344-.223-.807-.223-1.389v-2.918c-.015-.64-.23-1.143-.644-1.509-.414-.365-.986-.547-1.717-.547-.46 0-.884.085-1.268.257a2.3 2.3 0 00-.914.7c-.225.295-.337.601-.337.918h1.09c0-.278.13-.514.392-.71.262-.195.586-.292.973-.292.441 0 .775.112 1.002.337.226.224.34.526.34.905v.498h-1.055c-.91 0-1.616.182-2.118.548-.502.365-.753.878-.753 1.538 0 .543.2.991.6 1.345.4.353.913.53 1.538.53zm.159-.944c-.356 0-.647-.095-.873-.287-.227-.191-.34-.457-.34-.797 0-.777.664-1.166 1.992-1.166h.85v1.301c-.137.281-.358.51-.663.686a1.905 1.905 0 01-.966.263zm6.908.827l2.273-6.34h-1.107l-1.57 4.869-1.612-4.87h-1.107l2.297 6.34h.826zm3.96-7.407c.212 0 .372-.058.481-.175a.62.62 0 00.164-.44.64.64 0 00-.164-.445c-.11-.121-.27-.182-.48-.182-.211 0-.37.06-.478.182a.647.647 0 00-.16.445c0 .176.053.322.16.44.108.117.267.175.478.175zm.534 7.407v-6.34h-1.084v6.34h1.084zm4.143 2.496c.82 0 1.473-.237 1.96-.71.486-.472.729-1.118.729-1.939v-6.187h-.99l-.053.703c-.434-.547-1.037-.82-1.81-.82-.754 0-1.36.292-1.817.876-.457.584-.685 1.37-.685 2.358 0 1.031.229 1.846.688 2.443.459.598 1.06.897 1.802.897.75 0 1.342-.25 1.775-.75v.545c0 .539-.147.957-.442 1.254-.295.296-.706.445-1.234.445-.672 0-1.24-.287-1.705-.861l-.562.65c.23.34.564.607 1.002.803a3.26 3.26 0 001.342.293zm.093-3.3c-.527 0-.937-.203-1.23-.611-.293-.409-.44-.97-.44-1.685 0-.805.149-1.412.446-1.822.297-.41.709-.616 1.236-.616.664 0 1.162.303 1.494.909v2.894c-.32.621-.822.932-1.506.932zm6.188.92c.699 0 1.3-.26 1.804-.784.04.32.09.543.153.668h1.137v-.094c-.149-.344-.223-.807-.223-1.389v-2.918c-.016-.64-.23-1.143-.645-1.509-.414-.365-.986-.547-1.716-.547-.461 0-.884.085-1.269.257a2.3 2.3 0 00-.914.7c-.225.295-.337.601-.337.918h1.09c0-.278.13-.514.392-.71.262-.195.586-.292.973-.292.441 0 .775.112 1.002.337.227.224.34.526.34.905v.498h-1.055c-.91 0-1.616.182-2.118.548-.502.365-.753.878-.753 1.538 0 .543.2.991.6 1.345.401.353.914.53 1.539.53zm.158-.943c-.355 0-.647-.095-.873-.287-.227-.191-.34-.457-.34-.797 0-.777.664-1.166 1.992-1.166h.85v1.301c-.137.281-.358.51-.662.686a1.905 1.905 0 01-.967.263zm7.318.944c.75 0 1.348-.294 1.793-.882.446-.588.668-1.366.668-2.335v-.094c0-1.011-.22-1.808-.659-2.39-.44-.582-1.044-.873-1.813-.873-.77 0-1.373.271-1.81.814v-3.357h-1.085v9h.996l.053-.733c.437.567 1.057.85 1.857.85zm-.27-.92c-.702 0-1.22-.332-1.552-.996v-2.742c.313-.664.826-.997 1.541-.997.535 0 .945.202 1.23.604.286.402.428.973.428 1.71 0 .81-.144 1.415-.433 1.817-.29.403-.694.604-1.213.604zm5.274.803v-9h-1.084v9h1.084zm4.365.117c1.063 0 1.86-.408 2.391-1.225l-.662-.515c-.2.257-.432.464-.697.62-.266.157-.59.235-.973.235-.539 0-.983-.192-1.333-.577-.35-.385-.532-.89-.548-1.515h4.295v-.451c0-1.012-.228-1.789-.685-2.332-.457-.543-1.098-.814-1.922-.814-.504 0-.972.14-1.404.419-.431.279-.767.666-1.007 1.16-.24.494-.36 1.055-.36 1.684v.2c0 .945.269 1.7.808 2.264.539.565 1.238.847 2.097.847zm1.39-3.867h-3.177c.07-.575.254-1.02.551-1.34a1.446 1.446 0 011.102-.477c.453 0 .812.152 1.078.454.265.303.414.73.445 1.28v.083zM639.97 140l1.5-4.805 1.542 4.805h.879l1.845-6.34h-1.084l-1.218 4.846-1.506-4.846h-.873l-1.477 4.746-1.248-4.746h-1.078l1.84 6.34h.879zm7.512-7.406c.211 0 .372-.059.48-.176a.62.62 0 00.165-.44.64.64 0 00-.164-.445c-.11-.12-.27-.181-.48-.181-.212 0-.37.06-.478.181a.647.647 0 00-.161.446c0 .175.053.322.16.439.108.117.267.176.478.176zm.534 7.406v-6.34h-1.084V140h1.084zm3.586.117c.27 0 .546-.039.832-.117v-.879c-.22.047-.391.07-.516.07-.254 0-.434-.063-.54-.19-.105-.127-.157-.317-.157-.571v-3.932h1.183v-.838h-1.183v-1.535h-1.084v1.535h-1.155v.838h1.155v3.932c0 .539.123.955.369 1.248.246.293.611.44 1.096.44zm3.152-.117v-4.518a1.91 1.91 0 01.621-.738c.266-.187.574-.281.926-.281.433 0 .753.11.958.328.205.219.31.557.313 1.014V140h1.084v-4.19c-.011-1.511-.687-2.267-2.027-2.267-.77 0-1.395.295-1.875.885V131h-1.084v9h1.084zm9.14-7.406c.211 0 .372-.059.481-.176a.62.62 0 00.164-.44.64.64 0 00-.164-.445c-.11-.12-.27-.181-.48-.181-.211 0-.37.06-.478.181a.647.647 0 00-.161.446c0 .175.054.322.161.439.107.117.267.176.478.176zm.534 7.406v-6.34h-1.084V140h1.084zm4.277.117c.43 0 .837-.097 1.222-.293a2.47 2.47 0 00.923-.785c.23-.328.355-.674.375-1.037h-1.026a1.237 1.237 0 01-.48.879c-.29.234-.627.351-1.014.351-.559 0-.988-.197-1.289-.591-.3-.395-.451-.957-.451-1.688v-.205c0-.75.151-1.323.454-1.72.303-.396.73-.594 1.28-.594.41 0 .755.131 1.034.395.28.264.435.6.466 1.01h1.026c-.032-.679-.283-1.232-.753-1.657-.471-.426-1.062-.639-1.773-.639-.578 0-1.079.133-1.503.398a2.588 2.588 0 00-.975 1.12c-.227.48-.34 1.029-.34 1.646v.182c0 1 .255 1.788.765 2.364.51.576 1.196.864 2.06.864zm6.34 0c.57 0 1.075-.137 1.515-.41.439-.273.777-.655 1.013-1.145.237-.49.355-1.044.355-1.662v-.076c0-.992-.267-1.787-.8-2.385-.533-.597-1.232-.896-2.095-.896-.558 0-1.055.135-1.491.404-.436.27-.775.653-1.02 1.149-.244.496-.366 1.054-.366 1.675v.077c0 .984.267 1.775.8 2.373.533.597 1.23.896 2.089.896zm0-.885c-.547 0-.983-.212-1.31-.638-.326-.426-.489-.99-.489-1.694 0-.793.164-1.402.492-1.828.328-.426.76-.638 1.295-.638.547 0 .986.215 1.316.647.33.432.495.995.495 1.69 0 .778-.162 1.382-.487 1.814-.324.432-.761.647-1.312.647zm5.326.768v-4.518a1.91 1.91 0 01.621-.738c.266-.187.574-.281.926-.281.434 0 .753.11.958.328.205.219.31.557.313 1.014V140h1.084v-4.19c-.011-1.511-.687-2.267-2.027-2.267-.781 0-1.414.305-1.898.914l-.035-.797h-1.026V140h1.084zM639.97 236l1.5-4.805 1.542 4.805h.879l1.845-6.34h-1.084l-1.218 4.846-1.506-4.846h-.873l-1.477 4.746-1.248-4.746h-1.078l1.84 6.34h.879zm7.512-7.406c.211 0 .372-.059.48-.176a.62.62 0 00.165-.44.64.64 0 00-.164-.445c-.11-.12-.27-.181-.48-.181-.212 0-.37.06-.478.181a.647.647 0 00-.161.446c0 .175.053.322.16.439.108.117.267.176.478.176zm.534 7.406v-6.34h-1.084V236h1.084zm3.586.117c.27 0 .546-.039.832-.117v-.879c-.22.047-.391.07-.516.07-.254 0-.434-.063-.54-.19-.105-.127-.157-.317-.157-.571v-3.932h1.183v-.838h-1.183v-1.535h-1.084v1.535h-1.155v.838h1.155v3.932c0 .539.123.955.369 1.248.246.293.611.44 1.096.44zm3.152-.117v-4.518a1.91 1.91 0 01.621-.738c.266-.187.574-.281.926-.281.433 0 .753.11.958.328.205.219.31.557.313 1.014V236h1.084v-4.19c-.011-1.511-.687-2.267-2.027-2.267-.77 0-1.395.295-1.875.885V227h-1.084v9h1.084zm9.14-7.406c.211 0 .372-.059.481-.176a.62.62 0 00.164-.44.64.64 0 00-.164-.445c-.11-.12-.27-.181-.48-.181-.211 0-.37.06-.478.181a.647.647 0 00-.161.446c0 .175.054.322.161.439.107.117.267.176.478.176zm.534 7.406v-6.34h-1.084V236h1.084zm4.277.117c.43 0 .837-.097 1.222-.293a2.47 2.47 0 00.923-.785c.23-.328.355-.674.375-1.037h-1.026a1.237 1.237 0 01-.48.879c-.29.234-.627.351-1.014.351-.559 0-.988-.197-1.289-.591-.3-.395-.451-.957-.451-1.688v-.205c0-.75.151-1.323.454-1.72.303-.396.73-.594 1.28-.594.41 0 .755.131 1.034.395.28.264.435.6.466 1.01h1.026c-.032-.679-.283-1.232-.753-1.657-.471-.426-1.062-.639-1.773-.639-.578 0-1.079.133-1.503.398a2.588 2.588 0 00-.975 1.12c-.227.48-.34 1.029-.34 1.646v.182c0 1 .255 1.788.765 2.364.51.576 1.196.864 2.06.864zm6.34 0c.57 0 1.075-.137 1.515-.41.439-.273.777-.655 1.013-1.145.237-.49.355-1.044.355-1.662v-.076c0-.992-.267-1.787-.8-2.385-.533-.597-1.232-.896-2.095-.896-.558 0-1.055.135-1.491.404-.436.27-.775.653-1.02 1.149-.244.496-.366 1.054-.366 1.675v.077c0 .984.267 1.775.8 2.373.533.597 1.23.896 2.089.896zm0-.885c-.547 0-.983-.212-1.31-.638-.326-.426-.489-.99-.489-1.694 0-.793.164-1.402.492-1.828.328-.426.76-.638 1.295-.638.547 0 .986.215 1.316.647.33.432.495.995.495 1.69 0 .778-.162 1.382-.487 1.814-.324.432-.761.647-1.312.647zm5.326.768v-4.518a1.91 1.91 0 01.621-.738c.266-.187.574-.281.926-.281.434 0 .753.11.958.328.205.219.31.557.313 1.014V236h1.084v-4.19c-.011-1.511-.687-2.267-2.027-2.267-.781 0-1.414.305-1.898.914l-.035-.797h-1.026V236h1.084zm8.725.732l3.556-9.263h-.925l-3.563 9.263h.932zm8.783-.732v-4.518a1.91 1.91 0 01.621-.738c.266-.187.574-.281.926-.281.433 0 .753.11.958.328.205.219.31.557.313 1.014V236h1.084v-4.19c-.011-1.511-.687-2.267-2.027-2.267-.781 0-1.414.305-1.899.914l-.035-.797h-1.025V236h1.084zm7.494.117c.7 0 1.3-.262 1.805-.785.039.32.09.543.152.668h1.137v-.094c-.149-.344-.223-.806-.223-1.388V231.6c-.015-.641-.23-1.144-.644-1.51-.414-.364-.987-.547-1.717-.547-.461 0-.884.086-1.269.258a2.3 2.3 0 00-.914.7c-.224.295-.337.6-.337.917h1.09c0-.277.131-.514.393-.709.261-.195.586-.293.972-.293.442 0 .776.112 1.002.337.227.225.34.526.34.905v.498h-1.055c-.91 0-1.616.183-2.118.548-.502.365-.753.878-.753 1.538 0 .543.2.991.601 1.345.4.353.913.53 1.538.53zm.158-.943c-.355 0-.646-.096-.873-.287-.226-.192-.34-.457-.34-.797 0-.778.664-1.166 1.993-1.166h.85v1.3c-.138.282-.358.51-.663.686a1.905 1.905 0 01-.967.264zm6.908.826l2.274-6.34h-1.108l-1.57 4.87-1.611-4.87h-1.108l2.297 6.34h.826zm3.961-7.406c.211 0 .371-.059.48-.176a.62.62 0 00.165-.44.64.64 0 00-.164-.445c-.11-.12-.27-.181-.48-.181-.212 0-.37.06-.478.181a.647.647 0 00-.161.446c0 .175.053.322.16.439.108.117.267.176.478.176zm.534 7.406v-6.34h-1.084V236h1.084zm4.142 2.496c.82 0 1.474-.236 1.96-.709s.73-1.119.73-1.94v-6.187h-.99l-.053.703c-.434-.547-1.037-.82-1.81-.82-.755 0-1.36.292-1.817.876-.457.584-.686 1.37-.686 2.358 0 1.032.23 1.846.689 2.444.459.597 1.06.896 1.801.896.75 0 1.342-.25 1.776-.75v.545c0 .54-.148.957-.443 1.254-.295.297-.706.445-1.233.445-.672 0-1.24-.287-1.705-.861l-.563.65c.23.34.565.608 1.002.803a3.26 3.26 0 001.342.293zm.094-3.299c-.527 0-.938-.204-1.23-.612-.294-.408-.44-.97-.44-1.685 0-.804.148-1.412.445-1.822.297-.41.71-.615 1.237-.615.664 0 1.162.303 1.494.908v2.895c-.32.62-.822.931-1.506.931zm6.187.92c.7 0 1.301-.262 1.805-.785.04.32.09.543.152.668h1.137v-.094c-.148-.344-.222-.806-.222-1.388V231.6c-.016-.641-.231-1.144-.645-1.51-.414-.364-.986-.547-1.717-.547-.46 0-.884.086-1.268.258a2.3 2.3 0 00-.914.7c-.225.295-.337.6-.337.917h1.09c0-.277.13-.514.392-.709.262-.195.586-.293.973-.293.441 0 .775.112 1.002.337.226.225.34.526.34.905v.498h-1.055c-.91 0-1.616.183-2.118.548-.502.365-.753.878-.753 1.538 0 .543.2.991.6 1.345.4.353.913.53 1.538.53zm.159-.943c-.356 0-.647-.096-.873-.287-.227-.192-.34-.457-.34-.797 0-.778.664-1.166 1.992-1.166h.85v1.3c-.137.282-.358.51-.663.686a1.905 1.905 0 01-.966.264zm7.318.943c.75 0 1.348-.294 1.793-.882.445-.588.668-1.366.668-2.335v-.093c0-1.012-.22-1.809-.66-2.391-.439-.582-1.043-.873-1.813-.873s-1.373.271-1.81.814V227h-1.084v9h.996l.053-.732c.437.566 1.056.85 1.857.85zm-.27-.92c-.703 0-1.22-.332-1.552-.996v-2.742c.312-.664.826-.996 1.54-.996.536 0 .946.201 1.231.603.285.403.428.973.428 1.711 0 .809-.145 1.414-.434 1.817-.289.402-.693.603-1.213.603zm5.274.803v-9h-1.084v9h1.084zm4.365.117c1.063 0 1.86-.408 2.39-1.224l-.661-.516c-.2.258-.432.465-.698.621-.265.156-.59.234-.972.234-.54 0-.984-.192-1.333-.577-.35-.384-.533-.89-.548-1.514h4.295v-.452c0-1.011-.229-1.789-.686-2.332-.457-.543-1.097-.814-1.922-.814-.504 0-.971.14-1.403.419-.432.28-.768.666-1.008 1.16-.24.494-.36 1.056-.36 1.685v.199c0 .945.27 1.7.808 2.265.54.564 1.239.846 2.098.846zm1.389-3.867h-3.176c.07-.574.254-1.02.55-1.339a1.446 1.446 0 011.102-.477c.453 0 .813.151 1.078.454.266.302.415.73.446 1.28v.082z" fill-opacity=".56" fill-rule="nonzero"/><path fill-opacity=".12" d="M620 56h1v208h-1z"/></g></g></svg>