<svg xmlns="http://www.w3.org/2000/svg" xmlns:xlink="http://www.w3.org/1999/xlink" width="860" height="411"><defs><filter id="d" width="106.5%" height="111%" x="-3.2%" y="-4.4%" filterUnits="objectBoundingBox"><feOffset dy="2" in="SourceAlpha" result="shadowOffsetOuter1"/><feGaussianBlur in="shadowOffsetOuter1" result="shadowBlurOuter1" stdDeviation="4"/><feColorMatrix in="shadowBlurOuter1" result="shadowMatrixOuter1" values="0 0 0 0 0 0 0 0 0 0 0 0 0 0 0 0 0 0 0.08 0"/><feOffset dy="4" in="SourceAlpha" result="shadowOffsetOuter2"/><feGaussianBlur in="shadowOffsetOuter2" result="shadowBlurOuter2" stdDeviation="6"/><feColorMatrix in="shadowBlurOuter2" result="shadowMatrixOuter2" values="0 0 0 0 0 0 0 0 0 0 0 0 0 0 0 0 0 0 0.04 0"/><feOffset in="SourceAlpha" result="shadowOffsetOuter3"/><feGaussianBlur in="shadowOffsetOuter3" result="shadowBlurOuter3" stdDeviation="2"/><feColorMatrix in="shadowBlurOuter3" result="shadowMatrixOuter3" values="0 0 0 0 0 0 0 0 0 0 0 0 0 0 0 0 0 0 0.04 0"/><feMerge><feMergeNode in="shadowMatrixOuter1"/><feMergeNode in="shadowMatrixOuter2"/><feMergeNode in="shadowMatrixOuter3"/></feMerge></filter><filter id="g" width="125%" height="132.2%" x="-12.5%" y="-16.1%" filterUnits="objectBoundingBox"><feOffset dy="1" in="SourceAlpha" result="shadowOffsetOuter1"/><feGaussianBlur in="shadowOffsetOuter1" result="shadowBlurOuter1" stdDeviation="3"/><feColorMatrix in="shadowBlurOuter1" result="shadowMatrixOuter1" values="0 0 0 0 0 0 0 0 0 0 0 0 0 0 0 0 0 0 0.08 0"/><feMorphology in="SourceAlpha" radius="2" result="shadowSpreadOuter2"/><feOffset dy="-8" in="shadowSpreadOuter2" result="shadowOffsetOuter2"/><feGaussianBlur in="shadowOffsetOuter2" result="shadowBlurOuter2" stdDeviation="16"/><feColorMatrix in="shadowBlurOuter2" result="shadowMatrixOuter2" values="0 0 0 0 0 0 0 0 0 0 0 0 0 0 0 0 0 0 0.04 0"/><feMorphology in="SourceAlpha" radius="3" result="shadowSpreadOuter3"/><feOffset dy="16" in="shadowSpreadOuter3" result="shadowOffsetOuter3"/><feGaussianBlur in="shadowOffsetOuter3" result="shadowBlurOuter3" stdDeviation="12"/><feColorMatrix in="shadowBlurOuter3" result="shadowMatrixOuter3" values="0 0 0 0 0 0 0 0 0 0 0 0 0 0 0 0 0 0 0.04 0"/><feMerge><feMergeNode in="shadowMatrixOuter1"/><feMergeNode in="shadowMatrixOuter2"/><feMergeNode in="shadowMatrixOuter3"/></feMerge></filter><filter id="i" width="101.8%" height="115.9%" x="-.9%" y="-5.7%" filterUnits="objectBoundingBox"><feOffset dy="1" in="SourceAlpha" result="shadowOffsetOuter1"/><feGaussianBlur in="shadowOffsetOuter1" result="shadowBlurOuter1" stdDeviation="1"/><feComposite in="shadowBlurOuter1" in2="SourceAlpha" operator="out" result="shadowBlurOuter1"/><feColorMatrix in="shadowBlurOuter1" values="0 0 0 0 0 0 0 0 0 0 0 0 0 0 0 0 0 0 0.12 0"/></filter><rect id="a" width="860" height="411" x="0" y="0" rx="4"/><rect id="f" width="400" height="360" x="0" y="4" rx="4"/><path id="c" d="M0 0h616v356a8 8 0 01-8 8H8a8 8 0 01-8-8V0z"/><path id="j" d="M4 0h392a4 4 0 014 4v40H0V4a4 4 0 014-4z"/></defs><g fill="none" fill-rule="evenodd"><mask id="b" fill="#fff"><use xlink:href="#a"/></mask><use fill="#000" fill-opacity="0" xlink:href="#a"/><g mask="url(#b)"><g transform="translate(122 -1)"><mask id="e" fill="#fff"><use xlink:href="#c"/></mask><use fill="#000" filter="url(#d)" xlink:href="#c"/><use fill="#FFF" xlink:href="#c"/><g fill-opacity=".12" mask="url(#e)"><path fill="#000000" d="M32 259h552v1H32z"/></g><g fill-opacity=".32" mask="url(#e)"><path fill="#000000" d="M51.069 304.5c1.099.004 1.391.015 2.023.045.798.037 1.343.162 1.82.35.493.19.911.447 1.328.864.417.417.674.835.865 1.327.186.478.313 1.023.35 1.822.032.707.042.989.043 2.455v1.521a48.182 48.182 0 01-.02 1.653l-.009.211-.015.344c-.037.798-.163 1.343-.349 1.82-.19.493-.447.911-.865 1.328a3.658 3.658 0 01-1.328.865c-.477.187-1.022.313-1.82.35-.677.03-.965.042-2.271.044h-1.644a40.29 40.29 0 01-2.27-.045c-.798-.036-1.343-.162-1.821-.349a3.658 3.658 0 01-1.328-.865 3.68 3.68 0 01-.865-1.328c-.186-.477-.312-1.022-.348-1.82a40.29 40.29 0 01-.045-2.27v-1.893c.003-.705.009-1.078.02-1.422l.009-.229.016-.37c.036-.799.162-1.344.348-1.822.192-.492.449-.91.865-1.327a3.67 3.67 0 011.328-.865c.478-.186 1.023-.312 1.821-.349.677-.032.964-.043 2.27-.045zm-1.07 3.63a3.87 3.87 0 100 7.739 3.87 3.87 0 000-7.74zM50 309.5a2.5 2.5 0 110 5 2.5 2.5 0 010-5zm4.528-2.708a.9.9 0 100 1.8.9.9 0 000-1.8z"/></g><g fill-opacity=".32" mask="url(#e)"><path fill="#000000" d="M93.5 307.331a6.183 6.183 0 01-1.767.484 3.084 3.084 0 001.353-1.703 6.158 6.158 0 01-1.954.747 3.077 3.077 0 00-5.323 2.108c0 .24.028.473.078.7a8.741 8.741 0 01-6.343-3.217 3.085 3.085 0 00.953 4.11 3.079 3.079 0 01-1.394-.385v.039a3.08 3.08 0 002.47 3.018 3.104 3.104 0 01-1.39.053 3.08 3.08 0 002.875 2.136 6.178 6.178 0 01-4.558 1.275 8.702 8.702 0 004.717 1.383c5.661 0 8.756-4.69 8.756-8.756 0-.133-.003-.266-.009-.398a6.25 6.25 0 001.534-1.592l.002-.002z"/></g><circle cx="556" cy="312" r="20" fill="#EA475B" fill-rule="nonzero" mask="url(#e)"/><g mask="url(#e)"><g transform="translate(108 32)"><rect width="399" height="39" x=".5" y=".5" stroke="#000000" stroke-opacity=".48" rx="4"/><path fill="#000000" fill-opacity=".32" fill-rule="nonzero" d="M382.929 24.063c.065-.77.103-1.496.114-2.178.012-.682.018-1.226.018-1.635 0-.677-.007-1.4-.021-2.17a63.583 63.583 0 00-.355-5.064l-1.363.208c.157 1.461.283 3.316.375 5.566.014.384.021.793.021 1.224 0 .357-.004.73-.014 1.12a64.701 64.701 0 01-.146 2.852l1.37.077zm-5.552-7.653l1.134-1.133-1.14-1.141-1.134 1.134 1.14 1.14zM376.264 24c.38 0 .734-.026 1.061-.077.327-.05.623-.139.887-.264.265-.125.498-.292.7-.5.201-.21.371-.471.51-.787.14-.32.21-.69.21-1.113 0-.074-.003-.148-.008-.222-.032-.515-.153-1.109-.361-1.781a9.033 9.033 0 00-.223-.644 14.063 14.063 0 00-.383-.897 1.712 1.712 0 01-.062-.143l-1.238.612.605 1.489c.097.237.171.463.222.678.051.216.082.385.09.508.01.123.015.215.015.275 0 .111-.007.216-.021.313a1.35 1.35 0 01-.105.369 1.245 1.245 0 01-.347.455c-.14.11-.302.192-.487.247-.186.056-.392.09-.62.101-.227.012-.475.018-.744.018h-.807V24h1.106zm-5.21-6.588l1.127-1.127-1.141-1.14-1.127 1.133 1.14 1.134zm2.852.014l1.127-1.134-1.14-1.134-1.128 1.127 1.141 1.141zM370.268 24c.436 0 .815-.017 1.137-.052.323-.035.604-.088.845-.16a2.598 2.598 0 001.113-.65c.2.254.455.462.766.622.31.16.7.24 1.168.24h.14v-1.363h-.14c-.236 0-.43-.054-.58-.16a1.141 1.141 0 01-.355-.404 1.905 1.905 0 01-.185-.529 4.913 4.913 0 01-.076-.542 21.335 21.335 0 00-.125-1.204 6.534 6.534 0 00-.202-.946l-1.308.369c.102.352.173.665.212.939.04.274.06.543.06.807 0 .278-.047.522-.14.73a1.256 1.256 0 01-.435.522c-.197.14-.452.244-.765.313-.313.07-.69.105-1.13.105h-1.037V24h1.037zm-8.689-7.687l1.134-1.134-1.14-1.14-1.135 1.133 1.141 1.141zM358.637 24c.723 0 1.407-.054 2.052-.163a14.231 14.231 0 001.833-.432c.577-.178 1.126-.38 1.645-.605.52-.225 1.018-.456 1.496-.692.116.297.288.562.518.796.23.235.503.433.82.595.318.162.677.287 1.076.372.398.086.827.129 1.286.129h.147v-1.363h-.147c-.083 0-.194-.004-.333-.01a4.039 4.039 0 01-.46-.053 4.861 4.861 0 01-.51-.115 2.302 2.302 0 01-.495-.202 1.718 1.718 0 01-.41-.313 1.06 1.06 0 01-.254-.448c.213-.107.424-.207.633-.3l.633-.278-.264-1.321c-.288 0-.573-.03-.856-.09a6.842 6.842 0 01-.849-.24 11.25 11.25 0 01-.845-.338c-.28-.126-.558-.253-.831-.383-.25-.116-.499-.23-.745-.34-.245-.112-.487-.21-.723-.296a5.637 5.637 0 00-.7-.206 3.12 3.12 0 00-.677-.076c-.45 0-.878.109-1.284.327-.406.218-.79.545-1.151.98a4.72 4.72 0 00-.33.439c-.096.144-.177.271-.244.383a3.542 3.542 0 00-.212.396l1.252.564a3.686 3.686 0 01.257-.456c.084-.128.183-.264.3-.41.115-.147.246-.283.392-.411.146-.128.305-.233.477-.317.172-.083.352-.125.543-.125.143 0 .301.022.473.066.171.044.353.104.546.178.192.074.392.159.598.254l.636.295c.283.135.57.267.863.397.292.13.598.25.918.362-.528.264-1.064.521-1.607.772-.542.25-1.102.473-1.68.668a13.45 13.45 0 01-1.805.47 10.67 10.67 0 01-1.982.177h-1.002V24h1.002zm-.724 0v-1.363h-.14a2.77 2.77 0 01-.754-.09c-.21-.061-.37-.145-.476-.251a.58.58 0 01-.185-.359 3.758 3.758 0 01-.024-.441v-3.493a48.553 48.553 0 00-.066-2.546c-.021-.403-.047-.776-.077-1.12-.03-.343-.066-.633-.108-.87l-1.363.251c.042.218.078.498.108.839.03.34.055.713.076 1.116.021.404.036.82.046 1.252.009.432.013.847.013 1.245.005.409.007.796.007 1.162 0 .371-.002.7-.007.988a211.628 211.628 0 00-.013 1.037c0 .11.002.244.007.4a2.686 2.686 0 00.247 1.012c.08.176.198.34.35.494.251.25.556.436.916.556.359.12.794.181 1.304.181h.139zm-11.443 0c.264 0 .542-.012.834-.035.339-.023.684-.06 1.037-.111a14.996 14.996 0 002.059-.449c.32-.095.62-.2.897-.316.279-.116.522-.24.73-.369.219-.14.387-.277.505-.414a1.11 1.11 0 00.237-.407 1.383 1.383 0 00.052-.542 4.954 4.954 0 00-.111-.634 6.504 6.504 0 00-.345-1.053 12.893 12.893 0 00-.435-.933c-.143-.276-.27-.5-.379-.674a8.813 8.813 0 01-.177-.29l-1.155.752c.005.005.038.055.101.15s.14.22.23.375c.09.156.189.334.295.536.107.202.208.414.303.637.095.222.178.448.25.678.072.23.117.449.136.657-.39.218-.81.396-1.263.532-.452.137-.908.245-1.367.324-.459.079-.909.133-1.35.163-.44.03-.843.046-1.21.046-1.298-.005-2.353-.13-3.165-.373-.811-.243-1.33-.592-1.558-1.047a1.365 1.365 0 01-.14-.619c0-.255.056-.535.168-.841a2.686 2.686 0 01.208-.477 5.523 5.523 0 01.244-.4l-1.106-.82c-.01.013-.035.051-.077.114a5.562 5.562 0 00-.344.609 6.33 6.33 0 00-.198.459c-.181.478-.272.937-.272 1.377 0 .44.098.849.293 1.225.343.69.992 1.222 1.947 1.593 1.007.37 2.34.563 4 .577h.126zm-.153 3.624l1.133-1.134-1.14-1.14-1.134 1.133 1.14 1.141zM326.483 24c.283 0 .55-.014.8-.042.25-.028.487-.08.71-.16.223-.079.433-.192.63-.34.197-.149.386-.346.567-.592.213.158.445.312.695.463.25.15.512.278.783.382a3.005 3.005 0 001.123.226c.19 0 .38-.025.57-.076a1.66 1.66 0 00.766-.449c.209-.215.373-.468.494-.758.12-.29.195-.555.222-.797.028-.24.042-.436.042-.584 0-.167-.011-.33-.035-.487a4.21 4.21 0 00-.247-.918 2.864 2.864 0 00-.476-.807c-.2-.237-.44-.428-.72-.574a2.071 2.071 0 00-.97-.22c-.307 0-.574.062-.804.185-.23.123-.434.283-.612.48a3.668 3.668 0 00-.48.675c-.142.253-.275.509-.4.769-.144.287-.287.567-.428.838a3.398 3.398 0 01-.5.723c-.193.211-.426.38-.7.508-.274.128-.617.192-1.03.192h-.139V24h.14zm5.287-1.447c-.185 0-.394-.046-.626-.14-.347-.138-.732-.363-1.154-.674l.375-.758c.116-.227.22-.424.31-.591a3.74 3.74 0 01.257-.418.985.985 0 01.244-.247.466.466 0 01.26-.08c.14 0 .263.028.37.084.106.055.199.126.277.212.08.086.147.18.202.285a2.264 2.264 0 01.216.567c.018.079.03.135.035.167.018.125.027.246.027.362a2.082 2.082 0 01-.129.703c-.053.138-.116.252-.19.34a.444.444 0 01-.23.16 1.003 1.003 0 01-.244.028zM315.75 24c.723 0 1.407-.054 2.052-.163a14.231 14.231 0 001.833-.432c.577-.178 1.126-.38 1.645-.605.52-.225 1.018-.456 1.496-.692.116.297.288.562.518.796.23.235.503.433.82.595.318.162.677.287 1.076.372.398.086.827.129 1.287.129h.146v-1.363h-.146c-.084 0-.195-.004-.334-.01a4.04 4.04 0 01-.46-.053 4.861 4.861 0 01-.51-.115 2.302 2.302 0 01-.495-.202 1.718 1.718 0 01-.41-.313 1.06 1.06 0 01-.254-.448c.213-.107.424-.207.633-.3l.633-.278-.264-1.321c-.288 0-.573-.03-.856-.09a6.842 6.842 0 01-.849-.24 11.25 11.25 0 01-.845-.338 39.2 39.2 0 01-.831-.383c-.25-.116-.499-.23-.745-.34a10.13 10.13 0 00-.723-.296 5.637 5.637 0 00-.7-.206 3.12 3.12 0 00-.677-.076c-.45 0-.878.109-1.284.327-.406.218-.79.545-1.151.98a4.719 4.719 0 00-.33.439c-.096.144-.177.271-.244.383a3.542 3.542 0 00-.212.396l1.252.564a.05.05 0 01.004-.012l.033-.067.029-.057c.044-.086.108-.193.191-.32.084-.128.183-.264.3-.41.115-.147.246-.283.392-.411.147-.128.305-.233.477-.317.172-.083.352-.125.543-.125.143 0 .301.022.473.066.171.044.353.104.546.178.192.074.392.159.598.254.206.095.419.193.636.295.283.135.57.267.863.397.292.13.598.25.918.362a57.07 57.07 0 01-1.607.772c-.542.25-1.102.473-1.68.668a13.45 13.45 0 01-1.805.47 10.67 10.67 0 01-1.982.177h-1.002V24h1.002zm-7.52.14c.315 0 .648-.01.998-.029.35-.018.706-.055 1.068-.111h4.73v-1.363h-1.739c.213-.237.39-.51.529-.821.139-.311.215-.67.23-1.079v-.097c0-.301-.04-.582-.119-.842a2.648 2.648 0 00-1.002-1.37 2.933 2.933 0 00-.775-.39 2.904 2.904 0 00-.693-.156 7.311 7.311 0 00-.347-.018c-.26 0-.522.03-.787.09-.575.13-1.102.33-1.582.599-.48.269-.917.59-1.311.964-.395.373-.75.79-1.065 1.252a10.63 10.63 0 00-.835 1.457 2.046 2.046 0 01-.313-.682 2.943 2.943 0 01-.083-.688v-.049c0-.241.023-.475.07-.703.046-.227.097-.436.153-.626l-1.315-.396c-.06.18-.112.364-.153.55-.042.185-.081.377-.119.577-.074.352-.15.68-.23.98-.078.302-.199.564-.36.787-.052.07-.118.142-.2.219a1.281 1.281 0 01-.323.212c-.134.065-.299.12-.494.163a3.229 3.229 0 01-.702.067h-.16V24h.202c.64-.005 1.186-.102 1.638-.292.452-.19.824-.49 1.116-.898.255.33.517.584.786.762.27.179.562.31.877.393.315.084.662.134 1.04.15.378.016.801.024 1.27.024zm0-1.406h-.307c-.412-.01-.772-.023-1.078-.042.255-.464.517-.884.786-1.262.27-.378.553-.71.852-.995.3-.285.62-.524.964-.717a4.046 4.046 0 011.113-.42 2.1 2.1 0 01.88 0c.155.032.307.082.456.149a1.297 1.297 0 01.671.66c.072.156.108.336.108.54v.028c0 .357-.098.658-.292.904-.2.25-.464.455-.793.612a4.53 4.53 0 01-1.124.355 9.72 9.72 0 01-1.196.153c-.378.023-.725.035-1.04.035zm-13.183 6.15a8.524 8.524 0 001.965-.557 7.19 7.19 0 001.725-1.016 6.198 6.198 0 001.322-1.45 5.255 5.255 0 00.755-1.861h.765v-1.363h-.66a6.622 6.622 0 00-.376-2.02 5.342 5.342 0 00-.404-.881 4.395 4.395 0 00-.529-.738c-.551-.593-1.157-.89-1.815-.89a1.77 1.77 0 00-.86.226 2.61 2.61 0 00-.768.664c-.195.25-.364.549-.508.894a3.926 3.926 0 00-.275.925c-.04.272-.059.495-.059.672 0 .185.016.37.049.556.056.353.19.663.403.932.483.599 1.227.928 2.233.988.256.023.484.035.686.035h.79c-.052.348-.194.701-.429 1.06-.234.36-.553.7-.956 1.02-.404.32-.888.608-1.454.863a8.976 8.976 0 01-1.92.598l.32 1.342zm3.755-6.262h-.047c-.204 0-.422-.006-.654-.02a3.506 3.506 0 01-.296-.032 2.472 2.472 0 01-.348-.076 1.635 1.635 0 01-.334-.14.819.819 0 01-.26-.225.651.651 0 01-.143-.33 2.434 2.434 0 01-.024-.31c0-.102.007-.207.02-.313a3.16 3.16 0 01.133-.595c.065-.202.145-.384.24-.546.095-.163.203-.296.323-.4a.577.577 0 01.383-.157c.083 0 .162.014.236.042.075.028.145.064.212.108.068.044.13.093.188.146.058.053.11.103.157.15.116.134.228.293.337.476.11.183.208.388.296.616.088.227.16.473.216.737.055.264.09.545.104.842-.181.014-.344.022-.49.024l-.296.004h.047zm-10.016 5.941c.241 0 .492-.018.751-.055a4.818 4.818 0 002.077-.828c.322-.227.607-.509.856-.845a4.16 4.16 0 00.594-1.183c.149-.452.223-.97.223-1.555 0-.366-.006-.8-.017-1.304-.012-.503-.026-1.041-.042-1.614a180.58 180.58 0 00-.06-1.77c-.022-.608-.046-1.201-.069-1.781a242.58 242.58 0 00-.18-4.265l-1.364.056a306.585 306.585 0 01.18 4.237c.024.575.047 1.165.07 1.77.023.605.043 1.193.06 1.764.016.57.03 1.106.041 1.607.012.5.017.934.017 1.3 0 .395-.052.746-.156 1.054-.104.309-.244.58-.417.814a2.709 2.709 0 01-.602.595 3.418 3.418 0 01-1.43.588 4.02 4.02 0 01-.608.052 2.722 2.722 0 01-.7-.094 3.177 3.177 0 01-.567-.209 2.989 2.989 0 01-.553-.344 2.395 2.395 0 01-.473-.494 2.388 2.388 0 01-.327-.657 2.665 2.665 0 01-.121-.832 6.202 6.202 0 01.368-2.19c.051-.145.108-.278.17-.4.063-.124.127-.236.192-.338l-1.245-.557c-.158.227-.297.51-.417.849a7.737 7.737 0 00-.293 1.085 8.18 8.18 0 00-.139 1.551v.056c0 .44.056.84.167 1.197a3.48 3.48 0 001.158 1.757c.262.21.54.385.832.524a4.678 4.678 0 002.024.46z"/><path fill="#000000" fill-opacity=".56" d="M14.707 22.7a1.003 1.003 0 001.419 0L20 18.824l3.874 3.874a1.003 1.003 0 101.419-1.419l-4.583-4.584a1.001 1.001 0 00-1.42 0l-4.583 4.584a1.001 1.001 0 000 1.42"/></g></g><g mask="url(#e)"><g transform="translate(108 72.5)"><mask id="h" fill="#fff"><use xlink:href="#f"/></mask><use fill="#000" filter="url(#g)" xlink:href="#f"/><use fill="#FFF" xlink:href="#f"/><g fill="#000000" fill-rule="nonzero" fill-opacity=".56" mask="url(#h)"><path d="M378.254 72.122c.32 0 .666-.011 1.038-.034.371-.022.742-.07 1.114-.143.371-.073.73-.175 1.074-.307.345-.132.652-.309.922-.53.27-.22.49-.492.66-.812.171-.32.264-.704.28-1.15v-.116a2.43 2.43 0 00-.097-.694 2.307 2.307 0 00-.882-1.2 2.728 2.728 0 00-.676-.346 2.371 2.371 0 00-.603-.143 3.086 3.086 0 00-.998.064 5.124 5.124 0 00-1.385.523c-.42.235-.802.516-1.147.843a6.744 6.744 0 00-.931 1.096c-.276.403-.52.828-.73 1.275a1.79 1.79 0 01-.275-.597 2.575 2.575 0 01-.073-.602v-.043c0-.21.02-.416.061-.615.04-.199.085-.381.134-.548l-1.15-.346a4.969 4.969 0 00-.134.48c-.037.163-.071.331-.104.506-.065.308-.132.594-.2.858a2.023 2.023 0 01-.317.688c-.045.06-.103.124-.174.191a1.121 1.121 0 01-.283.186 2.033 2.033 0 01-.432.143c-.17.039-.375.058-.615.058h-.14V72h.177c.56-.004 1.038-.09 1.433-.256a2.26 2.26 0 00.977-.785c.223.288.453.51.688.667.235.156.491.27.767.344.276.073.58.116.91.13.33.015.701.022 1.11.022zm0-1.23h-.268c-.361-.008-.676-.02-.943-.036.223-.406.452-.774.687-1.105.236-.33.484-.621.746-.87a4.19 4.19 0 01.843-.628c.3-.168.625-.29.974-.368a1.838 1.838 0 011.169.13 1.135 1.135 0 01.587.578c.063.137.094.295.094.473v.024c0 .313-.085.577-.255.792-.175.219-.406.397-.694.535a3.964 3.964 0 01-.983.31 8.504 8.504 0 01-1.047.135c-.33.02-.634.03-.91.03zm-8.418-4.504l.992-.992-.998-.999-.993.993.999.998zM368.126 72c.596 0 1.097-.062 1.503-.186.405-.123.736-.313.992-.569.174.223.398.405.67.545.271.14.612.21 1.022.21h.122v-1.193h-.122a.86.86 0 01-.508-.14.999.999 0 01-.31-.353 1.667 1.667 0 01-.162-.463 4.299 4.299 0 01-.067-.474 18.669 18.669 0 00-.11-1.054 5.718 5.718 0 00-.176-.827l-1.144.322c.089.309.15.583.185.822.035.24.052.475.052.706 0 .483-.154.847-.463 1.093-.308.245-.803.368-1.485.368h-.225V72h.225zm.017 0v-1.193h-.121c-.244 0-.445-.031-.603-.094a1.088 1.088 0 01-.396-.262 1.536 1.536 0 01-.27-.408 13.54 13.54 0 01-.235-.533c-.158-.369-.307-.723-.447-1.062a3413.266 3413.266 0 01-1.415-3.436l-1.108.463 1.923 4.626a2.31 2.31 0 01-.81.511c-.218.085-.404.135-.556.15a4.04 4.04 0 01-.344.02c-.162 0-.325-.018-.487-.054a2.792 2.792 0 01-.737-.28 3.6 3.6 0 01-.736-.542l-.688.968c.345.357.721.634 1.13.83a3.02 3.02 0 001.33.296c.287 0 .547-.017.778-.052.232-.034.446-.085.642-.152.197-.067.382-.151.554-.253.173-.101.344-.219.515-.353a2.1 2.1 0 00.304.314c.118.1.255.186.411.259.156.073.337.13.542.173.205.043.439.064.703.064h.121zm-10.926 0c.804 0 1.419-.213 1.845-.64.15-.153.269-.322.356-.504a2.934 2.934 0 00.283-1.06c.008-.15.012-.28.012-.389v-.158c0-.134-.003-.29-.01-.469l-.02-.633-.03-.837c-.013-.314-.025-.673-.037-1.074a71.079 71.079 0 00-.232-3.39l-1.193.127a55.409 55.409 0 01.213 3.305l.073 1.842c.02.497.03.877.03 1.14v.068c0 .58-.103.976-.31 1.187-.194.195-.521.292-.98.292h-.462V72h.462zm-5.727 3.969c.267 0 .568-.019.9-.055a7.469 7.469 0 001.008-.183c.339-.085.668-.195.989-.331.32-.136.607-.304.858-.503.252-.198.455-.432.609-.7a1.854 1.854 0 00.213-1.199 1.28 1.28 0 00-.097-.316 1.74 1.74 0 00-.204-.338c-.088-.116-.2-.23-.338-.344h1.57v-1.193h-4.802l-.092 1.187.134.024a8.488 8.488 0 01.585.134l.392.11c.14.04.281.085.423.134.232.085.426.17.585.255.158.086.287.166.386.24.1.076.172.147.216.214a.33.33 0 01.067.173.756.756 0 01-.204.524c-.136.15-.31.28-.52.39-.211.109-.448.201-.71.276a7.626 7.626 0 01-1.47.274 6.32 6.32 0 01-.498.028c-.203 0-.436-.004-.697-.013a4.438 4.438 0 01-.792-.097 3.022 3.022 0 01-.767-.277 1.705 1.705 0 01-.617-.55c-.256-.39-.384-.898-.384-1.523 0-.986.319-2.262.956-3.828l-1.114-.45c-.637 1.541-.982 2.864-1.035 3.968-.004.101-.006.2-.006.298 0 .889.197 1.621.59 2.198.187.316.427.57.722.764.294.192.614.341.961.447.347.105.71.175 1.087.21.377.034.743.052 1.096.052zm-27.867-3.878c.005-.004.028-.066.07-.185.043-.12.106-.278.19-.475.082-.197.187-.424.313-.682.125-.258.275-.526.447-.806.173-.28.368-.564.587-.853.22-.288.464-.56.734-.818a6.03 6.03 0 01.889-.7 4.594 4.594 0 011.05-.502l.438-.147-.353-1.15a4.18 4.18 0 00-.18.055l-.283.091a13.68 13.68 0 01-.42.122 7.835 7.835 0 01-1.077.21 4.274 4.274 0 01-.518.033h-.079a1.79 1.79 0 01-.404-.048 1.372 1.372 0 01-.387-.153.893.893 0 01-.29-.267.683.683 0 01-.112-.396c0-.199.049-.38.146-.545.098-.164.224-.305.378-.423s.33-.21.526-.277c.197-.067.395-.1.594-.1.174 0 .358.026.55.079.193.053.393.144.6.274l.615-1.047c-.58-.341-1.169-.511-1.765-.511a2.9 2.9 0 00-.682.082 3.183 3.183 0 00-1.25.618 2.65 2.65 0 00-.482.508 2.38 2.38 0 00-.32.618 2.185 2.185 0 00-.115.718 2 2 0 00.155.806c.104.238.249.442.435.612.187.17.407.31.66.417.255.108.534.182.838.222a8.022 8.022 0 00-.718.786 11.393 11.393 0 00-1.2 1.816c-.15.283-.275.535-.377.758a8.589 8.589 0 00-.353.895l1.15.365zm8.492-1.327c.284 0 .55-.053.8-.161a2.096 2.096 0 001.105-1.096c.11-.25.164-.518.164-.806 0-.284-.054-.551-.164-.8a2.133 2.133 0 00-1.105-1.105 1.97 1.97 0 00-.8-.165c-.288 0-.557.055-.807.165a2.096 2.096 0 00-1.095 1.104c-.108.25-.162.517-.162.8 0 .289.054.558.162.807a2.08 2.08 0 001.095 1.096c.25.108.519.161.807.161zm0-.992c-.146 0-.284-.028-.414-.085a1.101 1.101 0 01-.572-.572 1.043 1.043 0 010-.83 1.092 1.092 0 01.572-.576 1.043 1.043 0 01.83 0 1.092 1.092 0 01.576.575 1.043 1.043 0 010 .83 1.101 1.101 0 01-.575.573c-.132.057-.271.085-.417.085zm4.693 2.32c.004-.005.027-.067.07-.186.042-.12.105-.278.189-.475.083-.197.187-.424.313-.682.126-.258.275-.526.447-.806.173-.28.369-.564.588-.853.219-.288.463-.56.733-.818a6.03 6.03 0 01.889-.7 4.594 4.594 0 011.05-.502l.438-.147-.353-1.15a4.18 4.18 0 00-.18.055l-.282.091a13.68 13.68 0 01-.42.122 7.835 7.835 0 01-1.077.21 4.274 4.274 0 01-.518.033h-.08a1.79 1.79 0 01-.404-.048 1.372 1.372 0 01-.387-.153.893.893 0 01-.289-.267.683.683 0 01-.112-.396c0-.199.048-.38.146-.545.097-.164.223-.305.377-.423s.33-.21.527-.277c.196-.067.394-.1.593-.1.175 0 .358.026.551.079.193.053.393.144.6.274l.614-1.047c-.58-.341-1.168-.511-1.765-.511a2.9 2.9 0 00-.682.082 3.183 3.183 0 00-1.25.618 2.65 2.65 0 00-.481.508 2.38 2.38 0 00-.32.618 2.185 2.185 0 00-.116.718 2 2 0 00.156.806c.103.238.248.442.435.612.186.17.407.31.66.417.254.108.533.182.837.222a8.022 8.022 0 00-.718.786 11.393 11.393 0 00-1.2 1.816c-.15.283-.275.535-.377.758a8.589 8.589 0 00-.353.895l1.15.365zm-25 4.181a7.348 7.348 0 001.23-.301 7.003 7.003 0 001.148-.505c.363-.201.702-.436 1.016-.704.315-.267.592-.566.831-.894.24-.329.436-.687.59-1.075.155-.387.254-.804.299-1.25a5.636 5.636 0 00.006-1.108 6.03 6.03 0 00-.201-1.066 5.049 5.049 0 00-.38-.958 3.741 3.741 0 00-.545-.789c-.483-.519-1.013-.779-1.589-.779-.26 0-.51.066-.752.198a2.284 2.284 0 00-.672.581c-.17.22-.319.48-.445.783a3.435 3.435 0 00-.24.81 4.237 4.237 0 00-.052.587c0 .162.014.324.043.487.048.308.166.58.353.815.422.524 1.073.812 1.954.865.223.02.423.03.6.03h.69c-.044.304-.17.614-.374.928a3.805 3.805 0 01-.837.892 6.02 6.02 0 01-1.272.755 7.854 7.854 0 01-1.68.523l.28 1.175zm3.343-5.479h-.098c-.179 0-.37-.005-.572-.017a3.068 3.068 0 01-.259-.028c-.1-.014-.2-.036-.304-.067a1.43 1.43 0 01-.292-.122.716.716 0 01-.229-.197.57.57 0 01-.124-.29 2.13 2.13 0 01-.022-.27 2.765 2.765 0 01.344-1.272c.083-.143.178-.26.283-.35a.505.505 0 01.335-.138c.073 0 .142.013.207.037a.94.94 0 01.186.094c.058.039.113.082.164.128.05.047.096.09.137.131.101.118.2.257.295.417.096.16.182.34.259.539.077.199.14.414.189.645.048.231.079.477.09.736a7.117 7.117 0 01-.589.024zM307.243 72c.333 0 .655-.022.965-.067.31-.045.596-.122.855-.231.26-.11.49-.256.691-.439.201-.182.363-.411.484-.687.122-.28.183-.605.183-.974 0-.065-.002-.13-.006-.195-.029-.45-.134-.97-.317-1.558a7.904 7.904 0 00-.195-.563 12.304 12.304 0 00-.334-.786 1.498 1.498 0 01-.055-.124l-1.084.535.53 1.303a3.959 3.959 0 01.274 1.038c.008.107.012.187.012.24 0 .098-.006.189-.018.274-.02.13-.05.237-.091.323a.953.953 0 01-.341.398 1.674 1.674 0 01-.506.216c-.19.05-.397.079-.62.089-.224.01-.453.015-.688.015h-1.175V72h1.436zm-.304 2.977l.986-.987-.998-.998-.986.992.998.993zm2.496.012l.986-.992-.998-.993-.986.986.998.999zm-7.22-8.753l.987-.986-.999-.999-.986.992.999.993zm2.496.012l.986-.992-.998-.993-.986.987.998.998zM301.528 72c.381 0 .713-.015.995-.046.282-.03.529-.077.74-.14a2.273 2.273 0 00.974-.569c.174.223.397.405.67.545.271.14.612.21 1.022.21h.121v-1.193h-.121a.86.86 0 01-.509-.14.999.999 0 01-.31-.353 1.667 1.667 0 01-.161-.463 4.299 4.299 0 01-.067-.474 18.669 18.669 0 00-.11-1.054 5.718 5.718 0 00-.176-.827l-1.145.322c.09.309.151.583.186.822.034.24.052.475.052.706 0 .244-.04.457-.122.64a1.1 1.1 0 01-.38.456 1.85 1.85 0 01-.67.274c-.274.06-.604.091-.99.091h-.906V72h.907zm-8.34.018c.2 0 .39-.03.57-.088.18-.059.35-.142.511-.25.16-.107.309-.233.444-.377.136-.144.26-.301.369-.472.15.361.377.647.681.856.305.209.66.313 1.066.313.207 0 .401-.03.584-.091a1.96 1.96 0 00.925-.652c.122-.154.223-.326.305-.517.105.195.233.37.383.523.15.155.316.287.496.396.18.11.372.194.575.253.203.059.41.088.621.088h.146v-1.193h-.146c-.292 0-.557-.123-.794-.368-.237-.246-.437-.618-.6-1.117a4.796 4.796 0 01-.143-.518 8.161 8.161 0 01-.14-.885l-.04-.405-1.192.097c.008.146.015.299.021.457a10.832 10.832 0 01.003.755c-.008.235-.028.47-.06.703a2.725 2.725 0 01-.162.633 1.22 1.22 0 01-.301.456.683.683 0 01-.481.174c-.203 0-.363-.055-.481-.165a.962.962 0 01-.259-.426 1.87 1.87 0 01-.091-.475 4.65 4.65 0 01.015-.785c.016-.223.04-.436.073-.639.033-.203.059-.375.08-.517l-1.188-.225c-.02.186-.05.396-.088.63a7.183 7.183 0 01-.387 1.415c-.089.231-.196.436-.322.615a1.66 1.66 0 01-.435.432.981.981 0 01-.557.164.45.45 0 01-.38-.17.838.838 0 01-.165-.393 2.806 2.806 0 01-.027-.648c.012-.22.035-.435.07-.649a12.743 12.743 0 01.203-1.02l-1.168-.322c-.025.098-.051.213-.08.347a6.176 6.176 0 01-.112.442 8.73 8.73 0 01-.167.51c-.065.181-.144.365-.238.552a4.12 4.12 0 01-.31.49c-.118.16-.247.304-.387.432s-.29.23-.45.307c-.16.077-.326.116-.496.116h-.128V72h.128a2.256 2.256 0 001.199-.332 2.36 2.36 0 00.469-.374c.142-.146.276-.308.401-.487a1.665 1.665 0 001.638 1.211zm-9.306 4.255a7.459 7.459 0 001.72-.487 6.291 6.291 0 001.509-.889 5.424 5.424 0 001.156-1.269 4.598 4.598 0 00.66-1.628h.67v-1.193h-.578a5.794 5.794 0 00-.329-1.768 4.675 4.675 0 00-.353-.77 3.846 3.846 0 00-.462-.646c-.483-.519-1.013-.779-1.589-.779-.26 0-.51.066-.752.198a2.284 2.284 0 00-.672.581c-.17.22-.319.48-.445.783a3.435 3.435 0 00-.24.81 4.237 4.237 0 00-.052.587c0 .162.014.324.043.487.049.308.166.58.353.815.422.524 1.073.812 1.954.865.223.02.423.03.6.03h.69c-.044.304-.17.614-.374.928a3.805 3.805 0 01-.837.892 6.02 6.02 0 01-1.272.755 7.854 7.854 0 01-1.68.523l.28 1.175zm3.342-5.479h-.098c-.178 0-.37-.005-.572-.017a3.068 3.068 0 01-.259-.028c-.1-.014-.2-.036-.304-.067a1.43 1.43 0 01-.292-.122.716.716 0 01-.229-.197.57.57 0 01-.124-.29 2.13 2.13 0 01-.022-.27 2.765 2.765 0 01.344-1.272c.083-.143.178-.26.283-.35a.505.505 0 01.335-.138c.073 0 .142.013.207.037a.94.94 0 01.186.094c.059.039.113.082.164.128.05.047.096.09.137.131.101.118.2.257.295.417.096.16.182.34.259.539.077.199.14.414.189.645.048.231.079.477.09.736a7.117 7.117 0 01-.589.024zM378.254 112.122c.32 0 .666-.011 1.038-.034.371-.022.742-.07 1.114-.143.371-.073.73-.175 1.074-.307.345-.132.652-.309.922-.53.27-.22.49-.492.66-.812.171-.32.264-.704.28-1.15v-.116a2.43 2.43 0 00-.097-.694 2.307 2.307 0 00-.882-1.2 2.728 2.728 0 00-.676-.346 2.371 2.371 0 00-.603-.143 3.086 3.086 0 00-.998.064 5.124 5.124 0 00-1.385.523c-.42.235-.802.516-1.147.843a6.744 6.744 0 00-.931 1.096c-.276.403-.52.828-.73 1.275a1.79 1.79 0 01-.275-.597 2.575 2.575 0 01-.073-.602v-.043c0-.21.02-.416.061-.615.04-.199.085-.381.134-.548l-1.15-.346a4.969 4.969 0 00-.134.48c-.037.163-.071.331-.104.506-.065.308-.132.594-.2.858a2.023 2.023 0 01-.317.688c-.045.06-.103.124-.174.191a1.121 1.121 0 01-.283.186 2.033 2.033 0 01-.432.143c-.17.039-.375.058-.615.058h-.14V112h.177c.56-.004 1.038-.09 1.433-.256a2.26 2.26 0 00.977-.785c.223.288.453.51.688.667.235.156.491.27.767.344.276.073.58.116.91.13.33.015.701.022 1.11.022zm0-1.23h-.268c-.361-.008-.676-.02-.943-.036.223-.406.452-.774.687-1.105.236-.33.484-.621.746-.87a4.19 4.19 0 01.843-.628c.3-.168.625-.29.974-.368a1.838 1.838 0 011.169.13 1.135 1.135 0 01.587.578c.063.137.094.295.094.473v.024c0 .313-.085.577-.255.792-.175.219-.406.397-.694.535a3.964 3.964 0 01-.983.31 8.504 8.504 0 01-1.047.135c-.33.02-.634.03-.91.03zm-8.418-4.504l.992-.992-.998-.999-.993.993.999.998zm-1.71 5.612c.596 0 1.097-.062 1.503-.186.405-.123.736-.313.992-.569.174.223.398.405.67.545.271.14.612.21 1.022.21h.122v-1.193h-.122a.86.86 0 01-.508-.14.999.999 0 01-.31-.353 1.667 1.667 0 01-.162-.463 4.299 4.299 0 01-.067-.474 18.669 18.669 0 00-.11-1.054 5.718 5.718 0 00-.176-.827l-1.144.322c.089.309.15.583.185.822.035.24.052.475.052.706 0 .483-.154.847-.463 1.093-.308.245-.803.368-1.485.368h-.225V112h.225zm.017 0v-1.193h-.121c-.244 0-.445-.031-.603-.094a1.088 1.088 0 01-.396-.262 1.536 1.536 0 01-.27-.408 13.54 13.54 0 01-.235-.533c-.158-.369-.307-.723-.447-1.062a3413.266 3413.266 0 01-1.415-3.436l-1.108.463 1.923 4.626a2.31 2.31 0 01-.81.511c-.218.085-.404.135-.556.15a4.04 4.04 0 01-.344.02c-.162 0-.325-.018-.487-.054a2.792 2.792 0 01-.737-.28 3.6 3.6 0 01-.736-.542l-.688.968c.345.357.721.634 1.13.83a3.02 3.02 0 001.33.296c.287 0 .547-.017.778-.052.232-.034.446-.085.642-.152.197-.067.382-.151.554-.253.173-.101.344-.219.515-.353a2.1 2.1 0 00.304.314c.118.1.255.186.411.259.156.073.337.13.542.173.205.043.439.064.703.064h.121zm-10.926 0c.804 0 1.419-.213 1.845-.64.15-.153.269-.322.356-.504a2.934 2.934 0 00.283-1.06c.008-.15.012-.28.012-.389v-.158c0-.134-.003-.29-.01-.469l-.02-.633-.03-.837c-.013-.314-.025-.673-.037-1.074a71.079 71.079 0 00-.232-3.39l-1.193.127a55.409 55.409 0 01.213 3.305l.073 1.842c.02.497.03.877.03 1.14v.068c0 .58-.103.976-.31 1.187-.194.195-.521.292-.98.292h-.462V112h.462zm-5.727 3.969c.267 0 .568-.019.9-.055a7.469 7.469 0 001.008-.183c.339-.085.668-.195.989-.331.32-.136.607-.304.858-.503.252-.198.455-.432.609-.7a1.854 1.854 0 00.213-1.199 1.28 1.28 0 00-.097-.316 1.74 1.74 0 00-.204-.338c-.088-.116-.2-.23-.338-.344h1.57v-1.193h-4.802l-.092 1.187.134.024a8.488 8.488 0 01.585.134l.392.11c.14.04.281.085.423.134.232.085.426.17.585.255.158.086.287.166.386.24.1.076.172.147.216.214a.33.33 0 01.067.173.756.756 0 01-.204.524c-.136.15-.31.28-.52.39-.211.109-.448.201-.71.276a7.626 7.626 0 01-1.47.274 6.32 6.32 0 01-.498.028c-.203 0-.436-.004-.697-.013a4.438 4.438 0 01-.792-.097 3.022 3.022 0 01-.767-.277 1.705 1.705 0 01-.617-.55c-.256-.39-.384-.898-.384-1.523 0-.986.319-2.262.956-3.828l-1.114-.45c-.637 1.541-.982 2.864-1.035 3.968-.004.101-.006.2-.006.298 0 .889.197 1.621.59 2.198.187.316.427.57.722.764.294.192.614.341.961.447.347.105.71.175 1.087.21.377.034.743.052 1.096.052zM338.695 112c.333 0 .642-.022.928-.067a2.82 2.82 0 00.776-.231c.231-.11.435-.256.612-.439.176-.182.326-.411.447-.687.122-.28.183-.605.183-.974 0-.065-.002-.13-.006-.195-.029-.45-.134-.97-.317-1.558a7.904 7.904 0 00-.195-.563 12.304 12.304 0 00-.334-.786 1.498 1.498 0 01-.055-.124l-1.084.535.53 1.303a3.959 3.959 0 01.274 1.038c.008.107.012.187.012.24 0 .098-.006.189-.018.274-.02.13-.05.237-.091.323a1.09 1.09 0 01-.305.398 1.28 1.28 0 01-.426.216 2.29 2.29 0 01-.542.089c-.198.01-.416.015-.651.015h-.706V112h.968zm.998 3.171l.992-.992-.998-.998-.992.992.998.998zM337.97 112v-1.193h-.121c-.256 0-.476-.026-.66-.08a.95.95 0 01-.418-.218.507.507 0 01-.161-.314 3.288 3.288 0 01-.021-.386v-3.056a42.484 42.484 0 00-.125-3.208 9.023 9.023 0 00-.094-.76l-1.193.218c.036.191.067.436.094.734.026.298.049.624.067.977.018.353.031.718.04 1.096.008.377.012.74.012 1.09a89.654 89.654 0 010 1.88 184.96 184.96 0 00-.012.837v.07c0 .097.001.214.005.35a2.35 2.35 0 00.216.886c.072.154.174.298.308.432.22.219.486.381.8.487.315.105.695.158 1.142.158h.121zm-8.673 4.358c.34-.166.676-.354 1.007-.563.33-.209.645-.437.943-.685.299-.247.575-.51.828-.79.254-.28.473-.575.658-.883.184-.309.328-.628.432-.96.103-.33.155-.672.155-1.025 0-.178-.014-.361-.043-.548a8.704 8.704 0 00-.106-.569c-.043-.193-.09-.387-.14-.584l-.15-.588a9.052 9.052 0 00-.151-.556 65.409 65.409 0 01-.17-.564l-1.157.366c.11.34.213.681.31 1.022.045.167.091.337.14.512.049.174.093.349.134.523.04.175.074.345.1.511.027.167.04.325.04.475 0 .394-.095.775-.286 1.145a4.51 4.51 0 01-.758 1.046 6.964 6.964 0 01-1.074.91 9.912 9.912 0 01-1.242.734l.53 1.071zm-2.734-4.285c.378 0 .709-.053.993-.158.292-.106.535-.258.73-.457.195-.199.341-.439.438-.721.098-.282.146-.598.146-.947 0-.23-.02-.468-.063-.712a6.734 6.734 0 00-.165-.712 10.709 10.709 0 00-.752-1.899l-1.065.56a10.738 10.738 0 01.515 1.245c.087.257.162.52.225.788s.094.517.094.749c0 .178-.02.339-.06.48a.814.814 0 01-.199.354.668.668 0 01-.31.185 1.37 1.37 0 01-.35.046c-.069 0-.142-.004-.22-.012a.568.568 0 01-.307-.119.741.741 0 01-.2-.256 1.287 1.287 0 01-.11-.359 2.647 2.647 0 01-.033-.429c0-.166.012-.356.036-.569.024-.213.052-.414.082-.603.03-.188.058-.35.082-.484l.03-.194-1.168-.213a14.56 14.56 0 01-.1.587 8.363 8.363 0 01-.165.697c-.067.24-.148.475-.243.706a3.216 3.216 0 01-.335.621c-.128.183-.274.33-.438.444a.956.956 0 01-.557.17.643.643 0 01-.323-.072.545.545 0 01-.2-.195.852.852 0 01-.104-.277c-.02-.104-.03-.21-.03-.32 0-.158.016-.33.048-.514.033-.185.071-.365.116-.542a11.173 11.173 0 01.256-.873l-1.206-.256c-.04.199-.089.41-.146.633a6.81 6.81 0 01-.207.667 4.861 4.861 0 01-.286.636c-.11.203-.238.382-.386.539a1.813 1.813 0 01-.509.377c-.19.095-.405.143-.645.143h-.134V112h.128c.235 0 .452-.02.648-.058a2.366 2.366 0 00.99-.432c.137-.103.267-.22.389-.35.065.15.157.282.277.396.12.113.253.209.399.286.146.077.299.135.46.173a1.989 1.989 0 001.445-.192c.308-.166.584-.391.828-.675.085.13.188.25.31.362.122.112.254.209.396.292.142.083.291.15.447.198.156.049.312.073.466.073h.042zM316.15 112c.117 0 .25-.008.395-.024.146-.017.294-.047.442-.092.148-.044.29-.107.426-.188.136-.082.254-.189.356-.323.077.085.171.166.283.244.111.077.237.144.377.2a2.516 2.516 0 00.959.183h.195v-1.193h-.134c-.268-.004-.472-.047-.612-.128a.925.925 0 01-.326-.304 1.08 1.08 0 01-.155-.399 2.183 2.183 0 01-.033-.344l.006-.325.012-.673a290.73 290.73 0 00.021-2.015c.002-.377.002-.76 0-1.147a63.323 63.323 0 00-.015-1.114 26.817 26.817 0 00-.04-.99c-.018-.304-.041-.56-.07-.766l-1.186.152c.024.199.043.448.057.749.015.3.026.629.034.986a64.041 64.041 0 01.012 2.267 1054.752 1054.752 0 01-.024 1.981 63.307 63.307 0 01-.019.87c-.008.106-.017.21-.027.314-.01.104-.027.202-.052.296a1.233 1.233 0 01-.094.252.502.502 0 01-.15.18.617.617 0 01-.252.11c-.059.011-.13.022-.216.03a5.164 5.164 0 01-.31.018h-.621V112h.76zm-6.233 4.273a7.459 7.459 0 001.72-.487 6.291 6.291 0 001.509-.889 5.424 5.424 0 001.156-1.269 4.598 4.598 0 00.66-1.628h.67v-1.193h-.578a5.794 5.794 0 00-.329-1.768 4.675 4.675 0 00-.353-.77 3.846 3.846 0 00-.462-.646c-.483-.519-1.013-.779-1.589-.779-.26 0-.51.066-.752.198a2.284 2.284 0 00-.672.581c-.17.22-.319.48-.445.783a3.435 3.435 0 00-.24.81 4.237 4.237 0 00-.052.587c0 .162.014.324.043.487.048.308.166.58.353.815.422.524 1.073.812 1.954.865.223.02.423.03.6.03h.69c-.045.304-.17.614-.374.928a3.805 3.805 0 01-.837.892 6.02 6.02 0 01-1.272.755 7.854 7.854 0 01-1.68.523l.28 1.175zm3.342-5.479h-.098c-.179 0-.37-.005-.572-.017a3.068 3.068 0 01-.259-.028c-.1-.014-.2-.036-.304-.067a1.43 1.43 0 01-.292-.122.716.716 0 01-.229-.197.57.57 0 01-.124-.29 2.13 2.13 0 01-.022-.27 2.765 2.765 0 01.344-1.272c.083-.143.178-.26.283-.35a.505.505 0 01.335-.138c.073 0 .142.013.207.037a.94.94 0 01.186.094c.058.039.113.082.164.128.05.047.096.09.137.131.101.118.2.257.295.417.095.16.182.34.259.539.077.199.14.414.189.645.048.231.079.477.09.736a7.117 7.117 0 01-.589.024zm-6.63-5.435l.993-.992-.998-.998-.993.992.999.998zm-.973 6.641c.333 0 .642-.022.928-.067a2.82 2.82 0 00.776-.231c.231-.11.435-.256.612-.439.176-.182.326-.411.447-.687.122-.28.183-.605.183-.974 0-.065-.002-.13-.006-.195-.029-.45-.134-.97-.317-1.558a7.904 7.904 0 00-.195-.563 12.304 12.304 0 00-.334-.786 1.498 1.498 0 01-.055-.124l-1.084.535.53 1.303a3.959 3.959 0 01.274 1.038c.008.107.012.187.012.24 0 .098-.006.189-.018.274-.02.13-.05.237-.091.323a1.09 1.09 0 01-.305.398 1.28 1.28 0 01-.426.216 2.29 2.29 0 01-.542.089c-.198.01-.416.015-.651.015h-.706V112h.968zm-.725 0v-1.193h-.121c-.256 0-.476-.026-.66-.08a.95.95 0 01-.418-.218.507.507 0 01-.161-.314 3.288 3.288 0 01-.021-.386v-3.056a42.483 42.483 0 00-.125-3.208 9.023 9.023 0 00-.094-.76l-1.193.218c.036.191.067.436.094.734.026.298.049.624.067.977.018.353.031.718.04 1.096.008.377.012.74.012 1.09a89.655 89.655 0 010 1.88 184.966 184.966 0 00-.012.837v.07c0 .097.001.214.005.35a2.35 2.35 0 00.216.886c.072.154.174.298.308.432.22.219.486.381.8.487.315.105.695.158 1.142.158h.121zM378.254 152.122c.32 0 .666-.011 1.038-.034.371-.022.742-.07 1.114-.143.371-.073.73-.175 1.074-.307.345-.132.652-.309.922-.53.27-.22.49-.492.66-.812.171-.32.264-.704.28-1.15v-.116a2.43 2.43 0 00-.097-.694 2.307 2.307 0 00-.882-1.2 2.728 2.728 0 00-.676-.346 2.371 2.371 0 00-.603-.143 3.086 3.086 0 00-.998.064 5.124 5.124 0 00-1.385.523c-.42.235-.802.516-1.147.843a6.744 6.744 0 00-.931 1.096c-.276.403-.52.828-.73 1.275a1.79 1.79 0 01-.275-.597 2.575 2.575 0 01-.073-.602v-.043c0-.21.02-.416.061-.615.04-.199.085-.381.134-.548l-1.15-.346a4.97 4.97 0 00-.134.48c-.037.163-.071.331-.104.506-.065.308-.132.594-.2.858a2.023 2.023 0 01-.317.688c-.045.06-.103.124-.174.191a1.121 1.121 0 01-.283.186 2.033 2.033 0 01-.432.143c-.17.039-.375.058-.615.058h-.14V152h.177c.56-.004 1.038-.09 1.433-.256a2.26 2.26 0 00.977-.785c.223.288.453.51.688.667.235.156.491.27.767.344.276.073.58.116.91.13.33.015.701.022 1.11.022zm0-1.23h-.268c-.361-.008-.676-.02-.943-.036.223-.406.452-.774.687-1.105.236-.33.484-.621.746-.87a4.19 4.19 0 01.843-.628c.3-.168.625-.29.974-.368a1.838 1.838 0 011.169.13 1.135 1.135 0 01.587.578c.063.137.094.295.094.473v.024c0 .313-.085.577-.255.792-.175.219-.406.397-.694.535a3.964 3.964 0 01-.983.31 8.504 8.504 0 01-1.047.135c-.33.02-.634.03-.91.03zm-8.418-4.504l.992-.992-.998-.999-.993.993.999.998zm-1.71 5.612c.596 0 1.097-.062 1.503-.186.405-.123.736-.313.992-.569.174.223.398.405.67.545.271.14.612.21 1.022.21h.122v-1.193h-.122a.86.86 0 01-.508-.14.999.999 0 01-.31-.353 1.667 1.667 0 01-.162-.463 4.3 4.3 0 01-.067-.474 18.669 18.669 0 00-.11-1.054 5.718 5.718 0 00-.176-.827l-1.144.322c.089.309.15.583.185.822.035.24.052.475.052.706 0 .483-.154.847-.463 1.093-.308.245-.803.368-1.485.368h-.225V152h.225zm.017 0v-1.193h-.121c-.244 0-.445-.031-.603-.094a1.088 1.088 0 01-.396-.262 1.536 1.536 0 01-.27-.408 13.54 13.54 0 01-.235-.533c-.158-.369-.307-.723-.447-1.062a3402.826 3402.826 0 01-1.415-3.436l-1.108.463 1.923 4.626a2.31 2.31 0 01-.81.511c-.218.085-.404.135-.556.15a4.04 4.04 0 01-.344.02c-.162 0-.325-.018-.487-.054a2.792 2.792 0 01-.737-.28 3.6 3.6 0 01-.736-.542l-.688.968c.345.357.721.634 1.13.83a3.02 3.02 0 001.33.296c.287 0 .547-.017.778-.052.232-.034.446-.085.642-.152.197-.067.382-.151.554-.253.173-.101.344-.219.515-.353a2.1 2.1 0 00.304.314c.118.1.255.186.411.259.156.073.337.13.542.173.205.043.439.064.703.064h.121zm-10.926 0c.804 0 1.419-.213 1.845-.64.15-.153.269-.322.356-.504a2.934 2.934 0 00.283-1.06c.008-.15.012-.28.012-.389v-.158c0-.134-.003-.29-.01-.469l-.02-.633-.03-.837c-.013-.314-.025-.673-.037-1.074a71.079 71.079 0 00-.232-3.39l-1.193.127a55.409 55.409 0 01.213 3.305l.073 1.842c.02.497.03.877.03 1.14v.068c0 .58-.103.976-.31 1.187-.194.195-.521.292-.98.292h-.462V152h.462zm-5.727 3.969c.267 0 .568-.019.9-.055a7.469 7.469 0 001.008-.183c.339-.085.668-.195.989-.331.32-.136.607-.304.858-.503.252-.198.455-.432.609-.7a1.854 1.854 0 00.213-1.199 1.28 1.28 0 00-.097-.316 1.74 1.74 0 00-.204-.338c-.088-.116-.2-.23-.338-.344h1.57v-1.193h-4.802l-.092 1.187.134.024a8.488 8.488 0 01.585.134l.392.11c.14.04.281.085.423.134.232.085.426.17.585.255.158.086.287.166.386.24.1.076.172.147.216.214a.33.33 0 01.067.173.756.756 0 01-.204.524c-.136.15-.31.28-.52.39-.211.109-.448.201-.71.276a7.626 7.626 0 01-1.47.274 6.32 6.32 0 01-.498.028c-.203 0-.436-.004-.697-.013a4.438 4.438 0 01-.792-.097 3.022 3.022 0 01-.767-.277 1.705 1.705 0 01-.617-.55c-.256-.39-.384-.898-.384-1.523 0-.986.319-2.262.956-3.828l-1.114-.45c-.637 1.541-.982 2.864-1.035 3.968-.004.101-.006.2-.006.298 0 .889.197 1.621.59 2.198.187.316.427.57.722.764.294.192.614.341.961.447.347.105.71.175 1.087.21.377.034.743.052 1.096.052zm-10.227-3.914a28.5 28.5 0 00.1-1.905c.011-.597.016-1.074.016-1.43 0-.593-.006-1.226-.018-1.9a55.636 55.636 0 00-.31-4.431l-1.194.182c.138 1.279.248 2.902.33 4.87.011.337.017.694.017 1.071 0 .313-.004.64-.012.98-.02.755-.063 1.587-.128 2.496l1.2.067zm-5.313.018c.377 0 .708-.053.992-.158.292-.106.535-.258.73-.457.195-.199.341-.439.438-.721.098-.282.147-.598.147-.947 0-.23-.022-.468-.064-.712a6.734 6.734 0 00-.165-.712 10.709 10.709 0 00-.751-1.899l-1.066.56a10.738 10.738 0 01.515 1.245c.087.257.162.52.225.788s.094.517.094.749c0 .178-.02.339-.06.48a.814.814 0 01-.198.354.668.668 0 01-.31.185 1.37 1.37 0 01-.35.046c-.07 0-.143-.004-.22-.012a.568.568 0 01-.307-.119.741.741 0 01-.201-.256 1.287 1.287 0 01-.11-.359 2.647 2.647 0 01-.033-.429c0-.166.012-.356.036-.569.025-.213.052-.414.082-.603.03-.188.058-.35.083-.484l.03-.194-1.169-.213a14.56 14.56 0 01-.1.587 8.363 8.363 0 01-.165.697c-.066.24-.148.475-.243.706a3.216 3.216 0 01-.335.621c-.128.183-.274.33-.438.444a.956.956 0 01-.557.17.643.643 0 01-.323-.072.545.545 0 01-.2-.195.852.852 0 01-.104-.277c-.02-.104-.03-.21-.03-.32 0-.158.016-.33.048-.514.033-.185.071-.365.116-.542a11.173 11.173 0 01.256-.873l-1.206-.256c-.04.199-.089.41-.146.633a6.81 6.81 0 01-.207.667 4.861 4.861 0 01-.286.636c-.11.203-.238.382-.386.539a1.813 1.813 0 01-.509.377c-.19.095-.405.143-.645.143h-.134V152h.128c.236 0 .452-.02.648-.058a2.366 2.366 0 00.99-.432c.138-.103.267-.22.39-.35.064.15.156.282.276.396.12.113.253.209.399.286.146.077.3.135.46.173a1.989 1.989 0 001.445-.192c.308-.166.584-.391.828-.675.085.13.189.25.31.362.122.112.254.209.396.292.142.083.291.15.447.198.157.049.312.073.466.073h.043zm-10.817-5.837l.986-.986-.998-.999-.986.992.998.993zm2.496.012l.986-.992-.998-.993-.987.987.999.998zM324.445 152c.382 0 .713-.015.995-.046.282-.03.529-.077.74-.14a2.273 2.273 0 00.974-.569c.174.223.398.405.67.545.271.14.612.21 1.022.21h.122v-1.193h-.122a.86.86 0 01-.508-.14.999.999 0 01-.31-.353 1.667 1.667 0 01-.162-.463 4.299 4.299 0 01-.067-.474 18.669 18.669 0 00-.11-1.054 5.718 5.718 0 00-.176-.827l-1.144.322c.089.309.15.583.185.822.035.24.052.475.052.706 0 .244-.04.457-.122.64a1.1 1.1 0 01-.38.456 1.85 1.85 0 01-.67.274c-.274.06-.603.091-.989.091h-.907V152h.907zm-5.971 4.492a11.123 11.123 0 001.491-.9 7.948 7.948 0 001.288-1.142c.375-.416.676-.865.904-1.348.227-.483.34-.99.34-1.522v-.024c.102.11.208.194.32.255a1.475 1.475 0 00.624.183c.09.004.162.006.219.006h.103v-1.193h-.097c-.203 0-.388-.049-.557-.146a1.645 1.645 0 01-.484-.46 4.3 4.3 0 01-.45-.81c-.146-.33-.296-.73-.45-1.201l-1.145.353c.049.15.108.337.177.563.069.225.137.465.206.721.07.256.133.516.192.782.06.266.103.514.131.746a2.272 2.272 0 01-.067.822 3.158 3.158 0 01-.332.785c-.148.251-.33.492-.544.721-.215.23-.45.447-.706.654a8.3 8.3 0 01-.816.582c-.288.18-.578.346-.87.496l.523 1.077zm-.718-4.437a28.5 28.5 0 00.1-1.905c.01-.597.015-1.074.015-1.43 0-.593-.006-1.226-.018-1.9a55.636 55.636 0 00-.31-4.431l-1.193.182c.138 1.279.247 2.902.328 4.87.012.337.019.694.019 1.071 0 .313-.005.64-.013.98-.02.755-.063 1.587-.127 2.496l1.199.067zM306.97 152a9.77 9.77 0 001.82-.17c.6-.114 1.181-.261 1.743-.442.563-.18 1.1-.382 1.614-.605.513-.224.993-.447 1.44-.67.303-.15.596-.293.876-.43.28-.135.562-.262.846-.38l-.232-1.156c-.251 0-.5-.026-.748-.08a5.987 5.987 0 01-.743-.21 9.844 9.844 0 01-.74-.294 34.3 34.3 0 01-.727-.335c-.219-.102-.436-.201-.651-.298a8.863 8.863 0 00-.633-.26 4.933 4.933 0 00-.612-.179 2.73 2.73 0 00-.593-.067 2.34 2.34 0 00-1.123.286c-.356.191-.691.477-1.008.859a4.13 4.13 0 00-.289.383 9.873 9.873 0 00-.213.335 3.1 3.1 0 00-.186.347l1.096.493a3.225 3.225 0 01.225-.399c.073-.111.16-.231.262-.359.101-.128.216-.247.344-.359.128-.112.267-.204.417-.277.15-.073.308-.11.475-.11.125 0 .263.02.413.058.15.039.31.09.478.156.169.064.343.139.524.222l.557.258c.247.118.499.234.755.347.255.114.523.22.803.317-.463.231-.943.456-1.443.676-.499.219-1.01.413-1.534.584-.523.17-1.055.307-1.594.41a8.58 8.58 0 01-1.62.156h-1.32V152h1.32zm-9.776-4.997l.986-.986-.998-.999-.986.992.998.993zm2.496.012l.986-.992-.999-.993-.986.987.999.998zm-1.766 5.003c2.31 0 4-.56 5.07-1.68.09.248.216.469.378.664.507.653 1.289.986 2.344.998h.17v-1.193h-.152c-.662-.004-1.134-.187-1.418-.548a1.217 1.217 0 01-.256-.511 3.023 3.023 0 01-.08-.548v-.049a5.071 5.071 0 01.137-.886 9.45 9.45 0 01.07-.27l-1.156-.317c-.052.183-.112.37-.18.56-.066.191-.147.38-.243.566a3.52 3.52 0 01-.344.542 2.696 2.696 0 01-.48.481c-.418.34-.942.59-1.571.746-.629.156-1.392.234-2.289.234-1.002-.004-1.817-.11-2.444-.317-.627-.207-1.062-.519-1.305-.937a1.477 1.477 0 01-.195-.502 2.648 2.648 0 01-.043-.448c0-.052.002-.103.006-.152.009-.182.034-.357.077-.523.042-.167.086-.313.13-.438.045-.126.086-.228.122-.305a1.41 1.41 0 00.055-.122l-1.053-.578c-.02.029-.078.155-.174.38-.095.226-.193.531-.295.917-.048.182-.079.35-.091.502a4.048 4.048 0 00-.006.69c.016.212.056.423.119.634.062.21.153.416.27.615.366.616.953 1.068 1.763 1.354.81.286 1.83.433 3.064.441zm-11.425.037a28.5 28.5 0 00.1-1.905c.01-.597.016-1.074.016-1.43 0-.593-.006-1.226-.018-1.9a55.636 55.636 0 00-.31-4.431l-1.194.182c.138 1.279.248 2.902.329 4.87.012.337.018.694.018 1.071 0 .313-.004.64-.012.98-.02.755-.063 1.587-.128 2.496l1.2.067zm-6.142-.055c.333 0 .655-.022.965-.067.31-.045.596-.122.855-.231.26-.11.49-.256.691-.439.201-.182.362-.411.484-.687.122-.28.183-.605.183-.974 0-.065-.002-.13-.006-.195-.029-.45-.134-.97-.317-1.558a7.904 7.904 0 00-.195-.563 12.304 12.304 0 00-.334-.786 1.498 1.498 0 01-.055-.124l-1.084.535.53 1.303a3.959 3.959 0 01.274 1.038c.008.107.012.187.012.24 0 .098-.006.189-.018.274-.02.13-.051.237-.092.323a.953.953 0 01-.34.398 1.674 1.674 0 01-.506.216c-.19.05-.397.079-.62.089-.224.01-.453.015-.688.015h-1.175V152h1.436zm-.304 2.977l.986-.987-.998-.998-.986.992.998.993zm2.496.012l.986-.992-.998-.993-.987.986.999.999zM271.872 152c.625 0 1.169-.164 1.631-.493.236-.162.406-.327.512-.493.759.532 1.544.848 2.355.95.07.008.136.012.201.012.418 0 .773-.193 1.066-.579.154.203.347.354.58.454.234.1.501.149.801.149h.146v-1.193h-.146a.81.81 0 01-.627-.28.938.938 0 01-.17-.298 1.174 1.174 0 01-.067-.36 5.122 5.122 0 00-.07-.663 3.567 3.567 0 00-.469-1.257 2.221 2.221 0 00-.41-.496 1.821 1.821 0 00-.54-.335 1.78 1.78 0 00-.672-.121c-.357 0-.662.094-.916.283a2.405 2.405 0 00-.642.733l-.046.076c-.018.03-.048.085-.088.164-.04.08-.098.193-.17.341a58.07 58.07 0 01-.299.594 5.844 5.844 0 01-.444.736c-.438.585-.942.879-1.51.883h-.128V152h.122zm4.56-1.211a1.23 1.23 0 01-.202-.019 3.03 3.03 0 01-.672-.237 6.245 6.245 0 01-.831-.487 346862.314 346862.314 0 01.113-.228c.038-.08.094-.193.167-.341l.292-.6c.248-.454.479-.681.694-.681.183 0 .34.05.475.152.134.101.244.232.332.392.087.16.154.34.2.54.047.198.074.395.083.59v.097c0 .11-.01.209-.03.298a.874.874 0 01-.129.292c-.105.155-.27.232-.493.232zm-7.122-4.249l.992-.992-.999-.998-.992.992.999.998zm-2.624 9.952a11.123 11.123 0 001.491-.9 7.948 7.948 0 001.288-1.142c.375-.416.676-.865.904-1.348.227-.483.34-.99.34-1.522v-.024c.102.11.209.194.32.255a1.475 1.475 0 00.624.183c.09.004.162.006.22.006h.103v-1.193h-.098c-.203 0-.388-.049-.557-.146a1.645 1.645 0 01-.484-.46 4.3 4.3 0 01-.45-.81c-.146-.33-.296-.73-.45-1.201l-1.145.353c.049.15.108.337.177.563.069.225.138.465.207.721.069.256.133.516.191.782.06.266.103.514.131.746a2.272 2.272 0 01-.067.822 3.158 3.158 0 01-.331.785c-.149.251-.33.492-.545.721-.215.23-.45.447-.706.654a8.3 8.3 0 01-.816.582c-.288.18-.578.346-.87.496l.523 1.077zM378.254 192.122c.32 0 .666-.011 1.038-.034.371-.022.742-.07 1.114-.143.371-.073.73-.175 1.074-.307.345-.132.652-.309.922-.53.27-.22.49-.492.66-.812.171-.32.264-.704.28-1.15v-.116a2.43 2.43 0 00-.097-.694 2.307 2.307 0 00-.882-1.2 2.728 2.728 0 00-.676-.346 2.371 2.371 0 00-.603-.143 3.086 3.086 0 00-.998.064 5.124 5.124 0 00-1.385.523c-.42.235-.802.516-1.147.843a6.744 6.744 0 00-.931 1.096c-.276.403-.52.828-.73 1.275a1.79 1.79 0 01-.275-.597 2.575 2.575 0 01-.073-.602v-.043c0-.21.02-.416.061-.615.04-.199.085-.381.134-.548l-1.15-.346a4.97 4.97 0 00-.134.48c-.037.163-.071.331-.104.506-.065.308-.132.594-.2.858a2.023 2.023 0 01-.317.688c-.045.06-.103.124-.174.191a1.121 1.121 0 01-.283.186 2.033 2.033 0 01-.432.143c-.17.039-.375.058-.615.058h-.14V192h.177c.56-.004 1.038-.09 1.433-.256a2.26 2.26 0 00.977-.785c.223.288.453.51.688.667.235.156.491.27.767.344.276.073.58.116.91.13.33.015.701.022 1.11.022zm0-1.23h-.268c-.361-.008-.676-.02-.943-.036.223-.406.452-.774.687-1.105.236-.33.484-.621.746-.87a4.19 4.19 0 01.843-.628c.3-.168.625-.29.974-.368a1.838 1.838 0 011.169.13 1.135 1.135 0 01.587.578c.063.137.094.295.094.473v.024c0 .313-.085.577-.255.792-.175.219-.406.397-.694.535a3.964 3.964 0 01-.983.31 8.504 8.504 0 01-1.047.135c-.33.02-.634.03-.91.03zm-8.418-4.504l.992-.992-.998-.999-.993.993.999.998zm-1.71 5.612c.596 0 1.097-.062 1.503-.186.405-.123.736-.313.992-.569.174.223.398.405.67.545.271.14.612.21 1.022.21h.122v-1.193h-.122a.86.86 0 01-.508-.14.999.999 0 01-.31-.353 1.667 1.667 0 01-.162-.463 4.3 4.3 0 01-.067-.474 18.669 18.669 0 00-.11-1.054 5.718 5.718 0 00-.176-.827l-1.144.322c.089.309.15.583.185.822.035.24.052.475.052.706 0 .483-.154.847-.463 1.093-.308.245-.803.368-1.485.368h-.225V192h.225zm.017 0v-1.193h-.121c-.244 0-.445-.031-.603-.094a1.088 1.088 0 01-.396-.262 1.536 1.536 0 01-.27-.408 13.54 13.54 0 01-.235-.533c-.158-.369-.307-.723-.447-1.062a3413.266 3413.266 0 01-1.415-3.436l-1.108.463 1.923 4.626a2.31 2.31 0 01-.81.511c-.218.085-.404.135-.556.15a4.04 4.04 0 01-.344.02c-.162 0-.325-.018-.487-.054a2.792 2.792 0 01-.737-.28 3.6 3.6 0 01-.736-.542l-.688.968c.345.357.721.634 1.13.83a3.02 3.02 0 001.33.296c.287 0 .547-.017.778-.052.232-.034.446-.085.642-.152.197-.067.382-.151.554-.253.173-.101.344-.219.515-.353a2.1 2.1 0 00.304.314c.118.1.255.186.411.259.156.073.337.13.542.173.205.043.439.064.703.064h.121zm-10.926 0c.804 0 1.419-.213 1.845-.64.15-.153.269-.322.356-.504a2.934 2.934 0 00.283-1.06c.008-.15.012-.28.012-.389v-.158c0-.134-.003-.29-.01-.469l-.02-.633-.03-.837c-.013-.314-.025-.673-.037-1.074a71.088 71.088 0 00-.232-3.39l-1.193.127a55.411 55.411 0 01.213 3.305l.073 1.842c.02.497.03.877.03 1.14v.068c0 .58-.103.976-.31 1.187-.194.195-.521.292-.98.292h-.462V192h.462zm-5.727 3.969c.267 0 .568-.019.9-.055a7.469 7.469 0 001.008-.183c.339-.085.668-.195.989-.331.32-.136.607-.304.858-.503.252-.198.455-.432.609-.7a1.854 1.854 0 00.213-1.199 1.28 1.28 0 00-.097-.316 1.74 1.74 0 00-.204-.338c-.088-.116-.2-.23-.338-.344h1.57v-1.193h-4.802l-.092 1.187.134.024a8.488 8.488 0 01.585.134l.392.11c.14.04.281.085.423.134.232.085.426.17.585.255.158.086.287.166.386.24.1.076.172.147.216.214a.33.33 0 01.067.173.756.756 0 01-.204.524c-.136.15-.31.28-.52.39-.211.109-.448.201-.71.276a7.626 7.626 0 01-1.47.274 6.32 6.32 0 01-.498.028c-.203 0-.436-.004-.697-.013a4.438 4.438 0 01-.792-.097 3.022 3.022 0 01-.767-.277 1.705 1.705 0 01-.617-.55c-.256-.39-.384-.898-.384-1.523 0-.986.319-2.262.956-3.828l-1.114-.45c-.637 1.541-.982 2.864-1.035 3.968-.004.101-.006.2-.006.298 0 .889.197 1.621.59 2.198.187.316.427.57.722.764.294.192.614.341.961.447.347.105.71.175 1.087.21.377.034.743.052 1.096.052zm-12.947-10.683l.986-.986-.999-.998-.986.992.999.992zm2.495.012l.986-.992-.998-.992-.986.986.998.998zM338.384 192c.333 0 .655-.022.965-.067.31-.045.596-.122.855-.231.26-.11.49-.256.691-.439.201-.182.362-.411.484-.687.122-.28.183-.605.183-.974 0-.065-.002-.13-.006-.195-.029-.45-.134-.97-.317-1.558a7.904 7.904 0 00-.195-.563 12.306 12.306 0 00-.334-.786 1.498 1.498 0 01-.055-.124l-1.084.535.53 1.303a3.959 3.959 0 01.274 1.038c.008.107.012.187.012.24 0 .098-.006.189-.018.274-.02.13-.051.237-.092.323a.953.953 0 01-.34.398 1.674 1.674 0 01-.506.216c-.19.05-.397.079-.62.089-.224.01-.453.015-.688.015h-1.175V192h1.436zm-8.132-6.726l.992-.992-.998-.999-.992.993.998.998zM327.677 192c.633 0 1.232-.048 1.796-.143a12.452 12.452 0 001.604-.377c.505-.157.985-.333 1.44-.53.454-.197.89-.399 1.308-.606.102.26.253.492.454.697.2.205.44.379.718.52.278.143.591.251.94.326a5.35 5.35 0 001.126.113h.128v-1.193h-.128c-.073 0-.17-.003-.292-.01a3.534 3.534 0 01-.401-.045 4.253 4.253 0 01-.448-.1 2.014 2.014 0 01-.432-.177 1.503 1.503 0 01-.36-.274.928.928 0 01-.221-.392c.186-.094.371-.18.554-.262l.554-.244-.232-1.156c-.251 0-.5-.026-.748-.08a5.987 5.987 0 01-.743-.21 9.844 9.844 0 01-.74-.294 34.3 34.3 0 01-.727-.335c-.22-.102-.436-.201-.651-.298a8.863 8.863 0 00-.633-.26 4.933 4.933 0 00-.612-.179 2.73 2.73 0 00-.594-.067 2.34 2.34 0 00-1.123.286c-.355.191-.69.477-1.007.859a4.13 4.13 0 00-.29.383 9.873 9.873 0 00-.212.335 3.1 3.1 0 00-.186.347l1.096.493a3.225 3.225 0 01.225-.399c.073-.111.16-.231.262-.359.101-.128.216-.247.344-.359.127-.112.266-.204.417-.277.15-.073.308-.11.474-.11.126 0 .264.02.414.058.15.039.31.09.478.156.169.064.343.139.524.222l.557.258c.247.118.499.234.754.347.256.114.524.22.804.317-.463.231-.931.456-1.406.676-.475.219-.965.413-1.47.584a11.77 11.77 0 01-1.58.41 9.336 9.336 0 01-1.735.156h-.876V192h.876zm-6.275 4.571a1971.125 1971.125 0 01-.204-5.57 16.968 16.968 0 01-.003-.212c0-.029.002-.047.006-.055l1.497.554c.292.118.551.22.776.307.226.087.427.158.606.213.179.055.322.09.43.107.107.016.195.024.264.024.057 0 .11-.004.158-.012a1.43 1.43 0 00.417-.195c.124-.085.237-.186.338-.304.15.178.334.317.55.417.218.1.446.15.686.155h.121v-1.193h-.121a.402.402 0 01-.277-.107.967.967 0 01-.201-.255c-.055-.1-.098-.201-.128-.305a3.04 3.04 0 01-.064-.246 3.445 3.445 0 000-.578 3.663 3.663 0 00-.091-.56 3.16 3.16 0 00-.174-.518 2.19 2.19 0 00-.252-.438 1.952 1.952 0 00-.694-.581 2.185 2.185 0 00-.895-.216h-.067c-.195 0-.375.032-.542.097-.19.077-.368.18-.532.31-.165.13-.315.283-.45.46a4.92 4.92 0 00-.372.557 6.318 6.318 0 00-.301.596c-.09.203-.167.396-.232.579a1.523 1.523 0 00-.325-.064 6.193 6.193 0 00-.143-.003c-.094 0-.179.006-.256.018a1.02 1.02 0 00-.259.088 1.256 1.256 0 00-.191.119c-.13.097-.23.209-.299.335a1.52 1.52 0 00-.146.359 1.403 1.403 0 00-.045.304l-.004.17.226 5.643h1.193zm3.457-5.8a4.293 4.293 0 01-.657-.189l-.496-.186a12.377 12.377 0 01-.545-.222l-.384-.158.15-.375c.054-.136.118-.27.191-.404a3.4 3.4 0 01.512-.764c.17-.181.324-.271.462-.271h.012c.045 0 .107.006.186.018.08.012.163.047.253.103.089.057.177.144.264.26.088.115.162.276.223.483.036.118.058.228.067.332a2.76 2.76 0 01-.006.55 2.888 2.888 0 01-.083.46 1.333 1.333 0 01-.149.362zM312.26 192c.248 0 .481-.012.7-.037a2.77 2.77 0 00.621-.14 2.05 2.05 0 00.55-.298 2.48 2.48 0 00.497-.517c.187.138.39.273.609.405.219.131.447.243.684.334a2.63 2.63 0 00.983.198c.167 0 .333-.022.5-.067.263-.073.487-.204.67-.392.182-.189.326-.41.431-.664.106-.253.17-.486.195-.697.024-.21.037-.381.037-.511 0-.146-.01-.288-.03-.426a3.683 3.683 0 00-.217-.804 2.506 2.506 0 00-.417-.706 2.058 2.058 0 00-.63-.502 1.812 1.812 0 00-.849-.192c-.268 0-.502.054-.703.162-.2.107-.38.247-.536.42a3.21 3.21 0 00-.42.59c-.123.221-.24.445-.35.673-.125.251-.25.496-.374.733-.124.238-.27.449-.438.633a1.908 1.908 0 01-.612.445c-.24.111-.54.167-.9.167h-.123V192h.122zm4.626-1.266c-.162 0-.345-.04-.548-.122a4.697 4.697 0 01-1.01-.59l.329-.664c.101-.199.191-.371.27-.517.08-.146.155-.268.226-.365a.862.862 0 01.213-.216.408.408 0 01.228-.07c.122 0 .23.024.323.073.093.048.174.11.243.185.07.075.128.159.177.25a1.98 1.98 0 01.188.496c.017.069.027.118.03.146.017.11.025.215.025.317a1.822 1.822 0 01-.113.615 1.035 1.035 0 01-.167.298.389.389 0 01-.2.14.878.878 0 01-.214.024zm-9.812 5.758a11.123 11.123 0 001.491-.9 7.948 7.948 0 001.288-1.142c.375-.416.676-.865.904-1.348.227-.483.34-.99.34-1.522v-.024c.102.11.208.194.32.255a1.475 1.475 0 00.624.183c.09.004.162.006.22.006h.103v-1.193h-.098c-.203 0-.388-.049-.557-.146a1.645 1.645 0 01-.484-.46 4.3 4.3 0 01-.45-.81c-.146-.33-.296-.73-.45-1.201l-1.145.353c.049.15.108.337.177.563.069.225.138.465.207.721.069.256.133.516.191.782.06.266.103.514.131.746a2.272 2.272 0 01-.067.822 3.158 3.158 0 01-.331.785c-.149.251-.33.492-.545.721-.215.23-.45.447-.706.654a8.3 8.3 0 01-.816.582c-.288.18-.578.346-.87.496l.523 1.077zm-3.104-11.48l.992-.992-.998-.998-.993.992.999.998zM300.243 192l1.45-.012c.64 0 1.21-.015 1.71-.046.499-.03.942-.07 1.33-.122a13.634 13.634 0 001.792-.35l-.146-1.156-.447.091c-.14.029-.282.053-.426.073a12.48 12.48 0 01-1.111.104c-.22 0-.43-.03-.633-.092a1.966 1.966 0 01-.655-.328 1.695 1.695 0 01-.453-.53 1.418 1.418 0 01-.17-.694c0-.186.03-.366.09-.538.062-.173.152-.326.272-.46.12-.134.268-.24.447-.32a1.52 1.52 0 01.62-.118c.208 0 .395.021.56.064.167.042.32.101.46.176.14.075.271.162.393.262s.246.206.371.32l.75-.92c-.184-.15-.364-.292-.543-.426a3.698 3.698 0 00-.566-.35 3.08 3.08 0 00-1.424-.32c-.377 0-.725.07-1.044.21a2.6 2.6 0 00-1.382 1.406 2.623 2.623 0 00-.198 1.014c0 .365.06.698.18.999.12.3.328.584.624.852l-1.85.018V192zm-5.265 3.969c.268 0 .568-.019.901-.055a7.469 7.469 0 001.008-.183c.338-.085.668-.195.989-.331.32-.136.606-.304.858-.503.252-.198.454-.432.609-.7a1.854 1.854 0 00.213-1.199 1.28 1.28 0 00-.098-.316 1.74 1.74 0 00-.204-.338c-.087-.116-.2-.23-.337-.344h1.57v-1.193h-4.803l-.091 1.187.134.024a8.487 8.487 0 01.584.134c.122.033.253.07.393.11.14.04.28.085.423.134.231.085.426.17.584.255.159.086.287.166.387.24.1.076.171.147.216.214a.33.33 0 01.067.173.756.756 0 01-.204.524c-.136.15-.31.28-.52.39-.211.109-.448.201-.71.276a7.626 7.626 0 01-1.47.274 6.32 6.32 0 01-.499.028c-.203 0-.435-.004-.697-.013a4.438 4.438 0 01-.791-.097 3.022 3.022 0 01-.767-.277 1.705 1.705 0 01-.618-.55c-.255-.39-.383-.898-.383-1.523 0-.986.318-2.262.955-3.828l-1.114-.45c-.637 1.541-.982 2.864-1.034 3.968-.004.101-.006.2-.006.298 0 .889.196 1.621.59 2.198.187.316.427.57.721.764.295.192.615.341.962.447.347.105.71.175 1.087.21.377.034.742.052 1.095.052zM277.228 192a9.77 9.77 0 001.82-.17c.601-.114 1.183-.261 1.745-.442.562-.18 1.1-.382 1.613-.605.513-.224.993-.447 1.44-.67l.876-.43c.28-.135.562-.262.846-.38l-.231-1.156c-.252 0-.502-.026-.75-.08a5.987 5.987 0 01-.742-.21 9.844 9.844 0 01-.74-.294 34.3 34.3 0 01-.727-.335c-.219-.102-.436-.201-.651-.298a8.863 8.863 0 00-.633-.26 4.933 4.933 0 00-.612-.179 2.73 2.73 0 00-.593-.067 2.34 2.34 0 00-1.123.286c-.355.191-.691.477-1.008.859a4.13 4.13 0 00-.289.383 9.873 9.873 0 00-.213.335 3.1 3.1 0 00-.186.347l1.096.493a3.225 3.225 0 01.225-.399c.073-.111.16-.231.262-.359.101-.128.216-.247.344-.359.128-.112.267-.204.417-.277.15-.073.308-.11.475-.11.125 0 .263.02.414.058.15.039.309.09.477.156.169.064.343.139.524.222l.557.258c.247.118.499.234.755.347.255.114.523.22.803.317-.462.231-.943.456-1.442.676-.5.219-1.01.413-1.534.584-.524.17-1.055.307-1.595.41a8.58 8.58 0 01-1.62.156h-1.32V192h1.32zm3.702 3.16l.992-.993-.999-.998-.992.992.999.998zm-9.301-3.16c.381 0 .713-.015.995-.046.282-.03.528-.077.74-.14a2.273 2.273 0 00.973-.569c.175.223.398.405.67.545s.613.21 1.023.21h.121v-1.193h-.121a.86.86 0 01-.509-.14.999.999 0 01-.31-.353 1.667 1.667 0 01-.161-.463 4.299 4.299 0 01-.067-.474 18.67 18.67 0 00-.11-1.054 5.718 5.718 0 00-.176-.827l-1.145.322c.09.309.151.583.186.822.034.24.052.475.052.706 0 .244-.041.457-.122.64a1.1 1.1 0 01-.38.456 1.85 1.85 0 01-.67.274c-.274.06-.604.091-.99.091h-.906V192h.907zm.225 2.977l.986-.987-.998-.998-.986.992.998.993zm2.496.012l.986-.992-.999-.993-.986.986.999.999zM265.536 192c.17-.008.338-.024.505-.049.166-.024.329-.06.487-.11a2.355 2.355 0 00.883-.493c.215-.198.389-.425.523-.681.183.235.395.454.636.657s.508.357.8.463c.211.069.428.122.649.158.22.037.478.055.77.055h.176v-1.193h-.383a2.083 2.083 0 01-.624-.1 2.045 2.045 0 01-.52-.26 2.233 2.233 0 01-.436-.398 4.106 4.106 0 01-.374-.526c-.154-.26-.298-.518-.432-.773-.134-.256-.27-.51-.405-.761a23.623 23.623 0 00-.426-.755 8.539 8.539 0 00-1.135-1.507 8.372 8.372 0 00-.81-.745l4.827-2.027-.469-1.108-5.38 2.32-.159 1.344a10.538 10.538 0 011.239 1.142c.213.229.417.47.612.724.194.254.365.51.51.77.147.26.256.503.327.73a2.1 2.1 0 01.106.621c0 .049-.002.098-.006.146a.956.956 0 01-.15.43c-.086.14-.196.264-.328.374-.132.11-.28.197-.444.262a1.326 1.326 0 01-.49.097h-2.125V192h2.046zm-7.518 4.273a7.459 7.459 0 001.72-.487 6.291 6.291 0 001.51-.889 5.424 5.424 0 001.156-1.269 4.598 4.598 0 00.66-1.628h.67v-1.193h-.578a5.794 5.794 0 00-.329-1.768 4.675 4.675 0 00-.353-.77 3.846 3.846 0 00-.463-.646c-.483-.519-1.012-.779-1.588-.779-.26 0-.51.066-.752.198a2.284 2.284 0 00-.673.581c-.17.22-.318.48-.444.783a3.435 3.435 0 00-.24.81 4.237 4.237 0 00-.052.587c0 .162.014.324.042.487.049.308.167.58.353.815.422.524 1.074.812 1.954.865.223.02.423.03.6.03h.69c-.044.304-.169.614-.374.928a3.805 3.805 0 01-.837.892 6.02 6.02 0 01-1.272.755 7.854 7.854 0 01-1.68.523l.28 1.175zm3.343-5.479h-.098c-.179 0-.37-.005-.573-.017a3.068 3.068 0 01-.258-.028c-.1-.014-.201-.036-.305-.067a1.43 1.43 0 01-.292-.122.716.716 0 01-.228-.197.57.57 0 01-.125-.29 2.13 2.13 0 01-.021-.27 2.765 2.765 0 01.344-1.272c.083-.143.177-.26.283-.35a.505.505 0 01.335-.138c.073 0 .142.013.207.037a.94.94 0 01.185.094c.06.039.114.082.165.128.05.047.096.09.137.131.101.118.2.257.295.417.095.16.181.34.258.539.078.199.14.414.19.645.048.231.078.477.09.736a7.117 7.117 0 01-.59.024zM253.757 192c.333 0 .643-.022.929-.067a2.82 2.82 0 00.776-.231c.231-.11.435-.256.611-.439.177-.182.326-.411.448-.687.122-.28.182-.605.182-.974 0-.065-.002-.13-.006-.195-.028-.45-.134-.97-.316-1.558a7.904 7.904 0 00-.195-.563 12.304 12.304 0 00-.335-.786 1.498 1.498 0 01-.054-.124l-1.084.535.53 1.303a3.959 3.959 0 01.274 1.038c.008.107.012.187.012.24 0 .098-.006.189-.019.274a1.09 1.09 0 01-.396.721 1.28 1.28 0 01-.425.216 2.29 2.29 0 01-.542.089c-.199.01-.416.015-.651.015h-.706V192h.967zm.999 3.171l.992-.992-.998-.998-.993.992.999.998zm-9.399-3.153c.2 0 .389-.03.57-.088.18-.059.35-.142.51-.25.161-.107.31-.233.445-.377.136-.144.259-.301.368-.472.15.361.378.647.682.856.305.209.66.313 1.065.313.207 0 .402-.03.585-.091a1.96 1.96 0 00.925-.652c.122-.154.223-.326.304-.517.106.195.234.37.384.523.15.155.315.287.496.396.18.11.372.194.575.253.203.059.41.088.621.088h.146v-1.193h-.146c-.292 0-.557-.123-.794-.368-.238-.246-.438-.618-.6-1.117a4.796 4.796 0 01-.143-.518 8.161 8.161 0 01-.14-.885l-.04-.405-1.193.097c.009.146.016.299.022.457a10.833 10.833 0 01.003.755c-.008.235-.029.47-.061.703a2.725 2.725 0 01-.161.633 1.22 1.22 0 01-.302.456.683.683 0 01-.48.174c-.204 0-.364-.055-.481-.165a.962.962 0 01-.26-.426 1.87 1.87 0 01-.09-.475 4.65 4.65 0 01.015-.785c.016-.223.04-.436.073-.639.032-.203.059-.375.079-.517l-1.187-.225c-.02.186-.05.396-.088.63a7.183 7.183 0 01-.387 1.415c-.09.231-.197.436-.322.615a1.66 1.66 0 01-.436.432.981.981 0 01-.557.164.45.45 0 01-.38-.17.838.838 0 01-.164-.393 2.806 2.806 0 01-.028-.648c.012-.22.036-.435.07-.649a12.743 12.743 0 01.204-1.02l-1.169-.322c-.024.098-.05.213-.079.347a6.176 6.176 0 01-.112.442 8.73 8.73 0 01-.168.51c-.065.181-.144.365-.237.552a4.12 4.12 0 01-.31.49c-.118.16-.247.304-.387.432s-.29.23-.45.307c-.16.077-.326.116-.497.116h-.127V192h.127a2.256 2.256 0 001.2-.332 2.36 2.36 0 00.468-.374c.142-.146.276-.308.402-.487a1.665 1.665 0 001.637 1.211zm-9.44-2.958l.992-.992-.999-.998-.992.992.999.998zm-.25 7.116c.5 0 .973-.053 1.421-.159a4.386 4.386 0 001.227-.484c.37-.217.693-.492.97-.824.279-.333.495-.729.649-1.187.105-.325.173-.621.204-.889a6.474 6.474 0 00.04-1.004c.43.247.919.371 1.466.371h.134v-1.193h-.134a2.16 2.16 0 01-.453-.052 1.417 1.417 0 01-.508-.24 2.912 2.912 0 01-.566-.56 6.432 6.432 0 01-.634-1.005 6.983 6.983 0 00-.444-.827l-1.01.645a.39.39 0 01.043.064l.07.115c.07.12.152.284.246.493.093.21.188.455.283.737a5.788 5.788 0 01.301 1.853v.073a3.791 3.791 0 01-.176 1.054c-.09.284-.224.538-.402.763-.179.226-.4.416-.664.573-.263.156-.57.275-.919.356a5.17 5.17 0 01-1.168.121c-.345 0-.653-.037-.923-.112a2.885 2.885 0 01-.706-.292c-.2-.12-.372-.255-.514-.405a2.65 2.65 0 01-.353-.46 2.189 2.189 0 01-.21-.453 2.546 2.546 0 01-.094-.378 3.57 3.57 0 01-.03-.718c.011-.243.039-.483.081-.718.043-.235.097-.462.162-.679.065-.217.133-.417.204-.6a5.35 5.35 0 01.21-.477c.069-.136.13-.24.182-.314l-.968-.712a8.651 8.651 0 00-.477.922c-.153.34-.28.697-.384 1.075a5.673 5.673 0 00-.192.983 5.374 5.374 0 00.018 1.41c.082.53.239.993.472 1.387.234.393.527.719.88.977.353.257.756.45 1.208.578.453.128.939.192 1.458.192zM378.254 232.122c.32 0 .666-.011 1.038-.034.371-.022.742-.07 1.114-.143.371-.073.73-.175 1.074-.307.345-.132.652-.309.922-.53.27-.22.49-.492.66-.812.171-.32.264-.704.28-1.15v-.116a2.43 2.43 0 00-.097-.694 2.307 2.307 0 00-.882-1.2 2.728 2.728 0 00-.676-.346 2.371 2.371 0 00-.603-.143 3.086 3.086 0 00-.998.064 5.124 5.124 0 00-1.385.523c-.42.235-.802.516-1.147.843a6.744 6.744 0 00-.931 1.096c-.276.403-.52.828-.73 1.275a1.79 1.79 0 01-.275-.597 2.575 2.575 0 01-.073-.602v-.043c0-.21.02-.416.061-.615.04-.199.085-.381.134-.548l-1.15-.346a4.969 4.969 0 00-.134.48c-.037.163-.071.331-.104.506-.065.308-.132.594-.2.858a2.023 2.023 0 01-.317.688c-.045.06-.103.124-.174.191a1.121 1.121 0 01-.283.186 2.033 2.033 0 01-.432.143c-.17.039-.375.058-.615.058h-.14V232h.177c.56-.004 1.038-.09 1.433-.256a2.26 2.26 0 00.977-.785c.223.288.453.51.688.667.235.156.491.27.767.344.276.073.58.116.91.13.33.015.701.022 1.11.022zm0-1.23h-.268c-.361-.008-.676-.02-.943-.036.223-.406.452-.774.687-1.105.236-.33.484-.621.746-.87a4.19 4.19 0 01.843-.628c.3-.168.625-.29.974-.368a1.838 1.838 0 011.169.13 1.135 1.135 0 01.587.578c.063.137.094.295.094.473v.024c0 .313-.085.577-.255.792-.175.219-.406.397-.694.535a3.964 3.964 0 01-.983.31 8.504 8.504 0 01-1.047.135c-.33.02-.634.03-.91.03zm-8.418-4.504l.992-.992-.998-.999-.993.993.999.998zm-1.71 5.612c.596 0 1.097-.062 1.503-.186.405-.123.736-.313.992-.569.174.223.398.405.67.545.271.14.612.21 1.022.21h.122v-1.193h-.122a.86.86 0 01-.508-.14.999.999 0 01-.31-.353 1.667 1.667 0 01-.162-.463 4.299 4.299 0 01-.067-.474 18.669 18.669 0 00-.11-1.054 5.718 5.718 0 00-.176-.827l-1.144.322c.089.309.15.583.185.822.035.24.052.475.052.706 0 .483-.154.847-.463 1.093-.308.245-.803.368-1.485.368h-.225V232h.225zm.017 0v-1.193h-.121c-.244 0-.445-.031-.603-.094a1.088 1.088 0 01-.396-.262 1.536 1.536 0 01-.27-.408 13.54 13.54 0 01-.235-.533c-.158-.369-.307-.723-.447-1.062a3413.266 3413.266 0 01-1.415-3.436l-1.108.463 1.923 4.626a2.31 2.31 0 01-.81.511c-.218.085-.404.135-.556.15a4.04 4.04 0 01-.344.02c-.162 0-.325-.018-.487-.054a2.792 2.792 0 01-.737-.28 3.6 3.6 0 01-.736-.542l-.688.968c.345.357.721.634 1.13.83a3.02 3.02 0 001.33.296c.287 0 .547-.017.778-.052.232-.034.446-.085.642-.152.197-.067.382-.151.554-.253.173-.101.344-.219.515-.353a2.1 2.1 0 00.304.314c.118.1.255.186.411.259.156.073.337.13.542.173.205.043.439.064.703.064h.121zm-10.926 0c.804 0 1.419-.213 1.845-.64.15-.153.269-.322.356-.504a2.934 2.934 0 00.283-1.06c.008-.15.012-.28.012-.389v-.158c0-.134-.003-.29-.01-.469l-.02-.633-.03-.837c-.013-.314-.025-.673-.037-1.074a71.079 71.079 0 00-.232-3.39l-1.193.127a55.409 55.409 0 01.213 3.305l.073 1.842c.02.497.03.877.03 1.14v.068c0 .58-.103.976-.31 1.187-.194.195-.521.292-.98.292h-.462V232h.462zm-5.727 3.969c.267 0 .568-.019.9-.055a7.469 7.469 0 001.008-.183c.339-.085.668-.195.989-.331.32-.136.607-.304.858-.503.252-.198.455-.432.609-.7a1.854 1.854 0 00.213-1.199 1.28 1.28 0 00-.097-.316 1.74 1.74 0 00-.204-.338c-.088-.116-.2-.23-.338-.344h1.57v-1.193h-4.802l-.092 1.187.134.024a8.488 8.488 0 01.585.134l.392.11c.14.04.281.085.423.134.232.085.426.17.585.255.158.086.287.166.386.24.1.076.172.147.216.214a.33.33 0 01.067.173.756.756 0 01-.204.524c-.136.15-.31.28-.52.39-.211.109-.448.201-.71.276a7.626 7.626 0 01-1.47.274 6.32 6.32 0 01-.498.028c-.203 0-.436-.004-.697-.013a4.438 4.438 0 01-.792-.097 3.022 3.022 0 01-.767-.277 1.705 1.705 0 01-.617-.55c-.256-.39-.384-.898-.384-1.523 0-.986.319-2.262.956-3.828l-1.114-.45c-.637 1.541-.982 2.864-1.035 3.968-.004.101-.006.2-.006.298 0 .889.197 1.621.59 2.198.187.316.427.57.722.764.294.192.614.341.961.447.347.105.71.175 1.087.21.377.034.743.052 1.096.052zm-13.781-12.065l.9-.9-.906-.907-.901.9.907.907zm-1.376 1.924l.986-.992-.998-.999-.986.993.998.998zm2.672.006l.986-.986-.998-.998-.986.986.998.998zm.207 6.239c.378 0 .708-.053.992-.158.293-.106.536-.258.73-.457.196-.199.342-.439.439-.721.097-.282.146-.598.146-.947 0-.23-.021-.468-.064-.712a6.734 6.734 0 00-.164-.712 10.709 10.709 0 00-.752-1.899l-1.065.56a10.738 10.738 0 01.514 1.245c.088.257.163.52.225.788.063.268.095.517.095.749 0 .178-.02.339-.061.48a.814.814 0 01-.198.354.668.668 0 01-.31.185 1.37 1.37 0 01-.35.046c-.07 0-.142-.004-.22-.012a.568.568 0 01-.307-.119.741.741 0 01-.2-.256 1.287 1.287 0 01-.11-.359 2.647 2.647 0 01-.034-.429c0-.166.012-.356.037-.569.024-.213.052-.414.082-.603.03-.188.058-.35.082-.484l.03-.194-1.168-.213a14.56 14.56 0 01-.1.587 8.363 8.363 0 01-.165.697c-.067.24-.148.475-.243.706a3.216 3.216 0 01-.335.621c-.128.183-.274.33-.438.444a.956.956 0 01-.557.17.643.643 0 01-.323-.072.545.545 0 01-.2-.195.852.852 0 01-.104-.277c-.02-.104-.03-.21-.03-.32 0-.158.015-.33.048-.514.032-.185.07-.365.116-.542a11.173 11.173 0 01.255-.873l-1.205-.256c-.04.199-.09.41-.146.633a6.81 6.81 0 01-.207.667 4.861 4.861 0 01-.286.636c-.11.203-.239.382-.387.539a1.813 1.813 0 01-.508.377c-.19.095-.406.143-.645.143h-.134V232h.128c.235 0 .451-.02.648-.058a2.366 2.366 0 00.99-.432c.137-.103.267-.22.389-.35.065.15.157.282.277.396.12.113.252.209.398.286.146.077.3.135.46.173a1.989 1.989 0 001.446-.192c.308-.166.584-.391.827-.675.086.13.19.25.31.362.123.112.254.209.397.292.142.083.29.15.447.198.156.049.311.073.466.073h.042zM327.921 232c.596 0 1.098-.062 1.503-.186.406-.123.737-.313.993-.569.174.223.397.405.67.545.271.14.612.21 1.022.21h.121v-1.193h-.121a.86.86 0 01-.509-.14.999.999 0 01-.31-.353 1.667 1.667 0 01-.161-.463 4.299 4.299 0 01-.067-.474 18.669 18.669 0 00-.11-1.054 5.718 5.718 0 00-.176-.827l-1.145.322c.09.309.151.583.186.822.034.24.052.475.052.706 0 .483-.155.847-.463 1.093-.308.245-.803.368-1.485.368h-.225V232h.225zm1.942 3.171l.992-.992-.998-.998-.993.992.999.998zm-6.854 1.644c.324 0 .654-.022.989-.064.335-.043.667-.114.998-.213.33-.1.654-.234.971-.402.316-.168.619-.38.907-.636l-.785-.925a3.617 3.617 0 01-.901.63 4.396 4.396 0 01-1.02.359 4.813 4.813 0 01-1.02.113h-.103a4.517 4.517 0 01-1.08-.14 4.104 4.104 0 01-.971-.384 2.86 2.86 0 01-.773-.618 2.512 2.512 0 01-.481-.806 2.65 2.65 0 01-.152-1.102c.02-.252.072-.484.155-.697a3.029 3.029 0 01.703-1.068 4.224 4.224 0 01.858-.649c.134-.075.248-.134.341-.18.43-.194.878-.346 1.342-.456.465-.11.925-.192 1.38-.25 0 .476.078.882.236 1.221.159.34.386.616.682.831.296.215.658.372 1.084.472.426.1.909.149 1.448.149h.122v-1.193h-.122c-.353 0-.667-.021-.943-.064a1.892 1.892 0 01-.703-.24 1.156 1.156 0 01-.441-.484c-.102-.205-.153-.472-.153-.8a15.06 15.06 0 01.971-.028 22.35 22.35 0 01.393.009l.231-1.169a15.369 15.369 0 01-1.631-.639c-.5-.231-.97-.456-1.412-.675a32.549 32.549 0 00-1.324-.624 4.056 4.056 0 00-1.099-.326c-.142-.02-.28-.03-.414-.03-.337 0-.66.058-.968.176-.43.162-.823.44-1.18.834a3.747 3.747 0 00-.33.399 5.522 5.522 0 00-.383.624l-.067.133 1.12.463c.053-.11.122-.234.207-.374.086-.14.195-.283.329-.43.39-.413.822-.62 1.297-.62.077 0 .154.006.23.018.236.032.53.127.883.283.353.156.743.342 1.17.557l.657.317c-.516.06-1.037.156-1.565.286-.527.13-1.043.31-1.546.541-.377.175-.726.39-1.047.649-.32.257-.6.545-.84.864-.24.319-.434.66-.584 1.023a3.89 3.89 0 00-.298 1.457c0 .28.034.55.103.81.09.361.231.697.426 1.007.195.31.435.593.721.846.286.254.607.471.962.652.355.18.737.32 1.144.417.408.097.833.146 1.276.146zM310.099 232c.803 0 1.418-.213 1.844-.64.15-.153.268-.322.356-.504a2.934 2.934 0 00.283-1.06c.008-.15.012-.28.012-.389v-.158c0-.134-.003-.29-.01-.469l-.02-.633-.031-.837c-.012-.314-.024-.673-.036-1.074a71.078 71.078 0 00-.232-3.39l-1.193.127.03.326a55.41 55.41 0 01.183 2.98l.073 1.84c.02.498.03.878.03 1.142v.067c0 .58-.103.976-.31 1.187-.195.195-.521.292-.98.292h-.462V232h.462zm-5.936 4.273a7.459 7.459 0 001.72-.487 6.291 6.291 0 001.51-.889 5.424 5.424 0 001.156-1.269 4.598 4.598 0 00.66-1.628h.67v-1.193h-.578a5.794 5.794 0 00-.329-1.768 4.675 4.675 0 00-.353-.77 3.846 3.846 0 00-.462-.646c-.483-.519-1.013-.779-1.59-.779-.259 0-.51.066-.75.198a2.284 2.284 0 00-.674.581c-.17.22-.318.48-.444.783a3.435 3.435 0 00-.24.81 4.237 4.237 0 00-.052.587c0 .162.014.324.043.487.048.308.166.58.353.815.422.524 1.073.812 1.954.865.223.02.423.03.6.03h.69c-.045.304-.17.614-.374.928a3.805 3.805 0 01-.837.892 6.02 6.02 0 01-1.273.755 7.854 7.854 0 01-1.68.523l.28 1.175zm3.343-5.479h-.098c-.179 0-.37-.005-.572-.017a3.068 3.068 0 01-.259-.028c-.1-.014-.2-.036-.304-.067a1.43 1.43 0 01-.293-.122.716.716 0 01-.228-.197.57.57 0 01-.125-.29 2.13 2.13 0 01-.02-.27c0-.09.005-.181.017-.274a2.765 2.765 0 01.326-.999c.083-.142.178-.258.283-.35a.505.505 0 01.335-.137c.073 0 .142.013.207.037a.94.94 0 01.185.094c.06.039.114.082.165.128.05.047.096.09.137.131.101.118.2.257.295.417.095.16.182.34.259.539.077.199.14.414.188.645.049.231.08.477.092.736a7.117 7.117 0 01-.59.024zm-7.89-4.76l1.382-.766 1.473-.865-.359-.474-.846.456a.523.523 0 01-.256.067h-.024a.782.782 0 01-.289-.067.965.965 0 01-.435-.39.472.472 0 01-.061-.194v-.091c0-.078.014-.155.042-.232a.723.723 0 01.144-.231.678.678 0 01.426-.216 1.6 1.6 0 01.423.01c.08.011.188.031.322.06l.17-.56-.23-.055a2.655 2.655 0 00-.232-.043 1.893 1.893 0 00-.268-.018c-.215 0-.414.039-.596.116a1.322 1.322 0 00-.752.807 1.233 1.233 0 00.027.819c.07.157.167.301.293.431.125.13.273.23.444.299l-1.09.608.293.53zm.007 5.966c.332 0 .654-.022.964-.067.31-.045.596-.122.856-.231.26-.11.49-.256.69-.439.201-.182.363-.411.484-.687.122-.28.183-.605.183-.974 0-.065-.002-.13-.006-.195-.028-.45-.134-.97-.317-1.558a7.904 7.904 0 00-.194-.563 12.304 12.304 0 00-.335-.786 1.498 1.498 0 01-.055-.124l-1.083.535.53 1.303a3.959 3.959 0 01.273 1.038c.008.107.012.187.012.24 0 .098-.006.189-.018.274-.02.13-.05.237-.091.323a.953.953 0 01-.341.398 1.674 1.674 0 01-.505.216c-.191.05-.398.079-.621.089-.223.01-.453.015-.688.015h-1.175V232h1.437zm-5.716 0c.381 0 .713-.015.995-.046.282-.03.529-.077.74-.14a2.273 2.273 0 00.974-.569c.174.223.397.405.67.545.271.14.612.21 1.022.21h.122v-1.193h-.122a.86.86 0 01-.508-.14.999.999 0 01-.31-.353 1.667 1.667 0 01-.162-.463 4.299 4.299 0 01-.067-.474 18.669 18.669 0 00-.11-1.054 5.718 5.718 0 00-.176-.827l-1.145.322c.09.309.152.583.186.822.035.24.052.475.052.706 0 .244-.04.457-.122.64a1.1 1.1 0 01-.38.456 1.85 1.85 0 01-.67.274c-.274.06-.604.091-.989.091H293V232h.907zm.225 2.977l.986-.987-.998-.998-.986.992.998.993zm2.496.012l.986-.992-.998-.993-.986.986.998.999zm-6.069-8.449l.992-.992-.998-.998-.992.992.998.998zm-2.623 9.952a11.123 11.123 0 001.491-.9 7.948 7.948 0 001.287-1.142c.376-.416.677-.865.904-1.348.228-.483.341-.99.341-1.522v-.024c.102.11.208.194.32.255a1.475 1.475 0 00.624.183c.089.004.162.006.219.006h.103v-1.193h-.097c-.203 0-.389-.049-.557-.146a1.645 1.645 0 01-.484-.46 4.3 4.3 0 01-.45-.81c-.147-.33-.297-.73-.45-1.201l-1.145.353c.048.15.107.337.176.563.07.225.138.465.207.721.07.256.133.516.192.782s.102.514.13.746a2.272 2.272 0 01-.067.822 3.158 3.158 0 01-.33.785c-.149.251-.33.492-.546.721-.215.23-.45.447-.706.654a8.3 8.3 0 01-.815.582c-.289.18-.579.346-.87.496l.523 1.077zM378.254 272.122c.32 0 .666-.011 1.038-.034.371-.022.742-.07 1.114-.143.371-.073.73-.175 1.074-.307.345-.132.652-.309.922-.53.27-.22.49-.492.66-.812.171-.32.264-.704.28-1.15v-.116a2.43 2.43 0 00-.097-.694 2.307 2.307 0 00-.882-1.2 2.728 2.728 0 00-.676-.346 2.371 2.371 0 00-.603-.143 3.086 3.086 0 00-.998.064 5.124 5.124 0 00-1.385.523c-.42.235-.802.516-1.147.843a6.744 6.744 0 00-.931 1.096c-.276.403-.52.828-.73 1.275a1.79 1.79 0 01-.275-.597 2.575 2.575 0 01-.073-.602v-.043c0-.21.02-.416.061-.615.04-.199.085-.381.134-.548l-1.15-.346a4.969 4.969 0 00-.134.48c-.037.163-.071.331-.104.506-.065.308-.132.594-.2.858a2.023 2.023 0 01-.317.688c-.045.06-.103.124-.174.191a1.121 1.121 0 01-.283.186 2.033 2.033 0 01-.432.143c-.17.039-.375.058-.615.058h-.14V272h.177c.56-.004 1.038-.09 1.433-.256a2.26 2.26 0 00.977-.785c.223.288.453.51.688.667.235.156.491.27.767.344.276.073.58.116.91.13.33.015.701.022 1.11.022zm0-1.23h-.268c-.361-.008-.676-.02-.943-.036.223-.406.452-.774.687-1.105.236-.33.484-.621.746-.87a4.19 4.19 0 01.843-.628c.3-.168.625-.29.974-.368a1.838 1.838 0 011.169.13 1.135 1.135 0 01.587.578c.063.137.094.295.094.473v.024c0 .313-.085.577-.255.792-.175.219-.406.397-.694.535a3.964 3.964 0 01-.983.31 8.504 8.504 0 01-1.047.135c-.33.02-.634.03-.91.03zm-8.418-4.504l.992-.992-.998-.999-.993.993.999.998zm-1.71 5.612c.596 0 1.097-.062 1.503-.186.405-.123.736-.313.992-.569.174.223.398.405.67.545.271.14.612.21 1.022.21h.122v-1.193h-.122a.86.86 0 01-.508-.14.999.999 0 01-.31-.353 1.667 1.667 0 01-.162-.463 4.299 4.299 0 01-.067-.474 18.669 18.669 0 00-.11-1.054 5.718 5.718 0 00-.176-.827l-1.144.322c.089.309.15.583.185.822.035.24.052.475.052.706 0 .483-.154.847-.463 1.093-.308.245-.803.368-1.485.368h-.225V272h.225zm.017 0v-1.193h-.121c-.244 0-.445-.031-.603-.094a1.088 1.088 0 01-.396-.262 1.536 1.536 0 01-.27-.408 13.54 13.54 0 01-.235-.533c-.158-.369-.307-.723-.447-1.062a3413.266 3413.266 0 01-1.415-3.436l-1.108.463 1.923 4.626a2.31 2.31 0 01-.81.511c-.218.085-.404.135-.556.15a4.04 4.04 0 01-.344.02c-.162 0-.325-.018-.487-.054a2.792 2.792 0 01-.737-.28 3.6 3.6 0 01-.736-.542l-.688.968c.345.357.721.634 1.13.83a3.02 3.02 0 001.33.296c.287 0 .547-.017.778-.052.232-.034.446-.085.642-.152.197-.067.382-.151.554-.253.173-.101.344-.219.515-.353a2.1 2.1 0 00.304.314c.118.1.255.186.411.259.156.073.337.13.542.173.205.043.439.064.703.064h.121zm-10.926 0c.804 0 1.419-.213 1.845-.64.15-.153.269-.322.356-.504a2.934 2.934 0 00.283-1.06c.008-.15.012-.28.012-.389v-.158c0-.134-.003-.29-.01-.469l-.02-.633-.03-.837c-.013-.314-.025-.673-.037-1.074a71.079 71.079 0 00-.232-3.39l-1.193.127a55.409 55.409 0 01.213 3.305l.073 1.842c.02.497.03.877.03 1.14v.068c0 .58-.103.976-.31 1.187-.194.195-.521.292-.98.292h-.462V272h.462zm-5.727 3.969c.267 0 .568-.019.9-.055a7.469 7.469 0 001.008-.183c.339-.085.668-.195.989-.331.32-.136.607-.304.858-.503.252-.198.455-.432.609-.7a1.854 1.854 0 00.213-1.199 1.28 1.28 0 00-.097-.316 1.74 1.74 0 00-.204-.338c-.088-.116-.2-.23-.338-.344h1.57v-1.193h-4.802l-.092 1.187.134.024a8.488 8.488 0 01.585.134l.392.11c.14.04.281.085.423.134.232.085.426.17.585.255.158.086.287.166.386.24.1.076.172.147.216.214a.33.33 0 01.067.173.756.756 0 01-.204.524c-.136.15-.31.28-.52.39-.211.109-.448.201-.71.276a7.626 7.626 0 01-1.47.274 6.32 6.32 0 01-.498.028c-.203 0-.436-.004-.697-.013a4.438 4.438 0 01-.792-.097 3.022 3.022 0 01-.767-.277 1.705 1.705 0 01-.617-.55c-.256-.39-.384-.898-.384-1.523 0-.986.319-2.262.956-3.828l-1.114-.45c-.637 1.541-.982 2.864-1.035 3.968-.004.101-.006.2-.006.298 0 .889.197 1.621.59 2.198.187.316.427.57.722.764.294.192.614.341.961.447.347.105.71.175 1.087.21.377.034.743.052 1.096.052zm-15.102.304a7.348 7.348 0 001.23-.301 7.003 7.003 0 001.147-.505c.363-.201.702-.436 1.016-.704.315-.267.592-.566.831-.894.24-.329.436-.687.59-1.075.155-.387.254-.804.299-1.25a5.636 5.636 0 00.006-1.108 6.03 6.03 0 00-.2-1.066 5.049 5.049 0 00-.381-.958 3.741 3.741 0 00-.545-.789c-.483-.519-1.013-.779-1.589-.779-.26 0-.51.066-.752.198a2.284 2.284 0 00-.672.581c-.17.22-.319.48-.445.783a3.435 3.435 0 00-.24.81 4.237 4.237 0 00-.052.587c0 .162.015.324.043.487.049.308.166.58.353.815.422.524 1.073.812 1.954.865.223.02.423.03.6.03h.69c-.044.304-.17.614-.374.928a3.805 3.805 0 01-.837.892 6.02 6.02 0 01-1.272.755 7.854 7.854 0 01-1.68.523l.28 1.175zm3.342-5.479h-.098c-.178 0-.37-.005-.572-.017a3.068 3.068 0 01-.259-.028c-.1-.014-.2-.036-.304-.067a1.43 1.43 0 01-.292-.122.716.716 0 01-.228-.197.57.57 0 01-.125-.29 2.13 2.13 0 01-.022-.27 2.765 2.765 0 01.344-1.272c.084-.143.178-.26.283-.35a.505.505 0 01.335-.138c.073 0 .142.013.207.037a.94.94 0 01.186.094c.059.039.113.082.164.128.05.047.097.09.137.131.102.118.2.257.295.417.096.16.182.34.259.539.077.199.14.414.189.645.048.231.079.477.091.736a7.117 7.117 0 01-.59.024zm-2.466-4.802a7.283 7.283 0 00.944-.335c.227-.097.46-.215.697-.353a2.85 2.85 0 00.612-.468 3.958 3.958 0 00.316.11l.17-.555-.188-.054c.053-.138.086-.271.1-.4a2.04 2.04 0 00-.003-.618 1.465 1.465 0 00-.185-.495.907.907 0 00-.38-.35.793.793 0 00-.36-.085h-.049c-.146.012-.284.05-.414.112a1.39 1.39 0 00-.359.253c-.11.105-.195.221-.255.347a.775.775 0 00-.067.228.848.848 0 00.037.423c.036.122.103.24.2.356.097.116.237.218.42.308.065.032.129.063.192.091.063.028.139.065.228.11a2.906 2.906 0 01-.457.28c-.17.085-.34.163-.508.234a7.008 7.008 0 01-.478.182c-.15.051-.274.09-.37.12l.157.56zm2.009-1.844l-.523-.25a.807.807 0 01-.25-.18.378.378 0 01-.085-.145.466.466 0 01-.012-.089c0-.024.002-.044.006-.06l.024-.067a.8.8 0 01.268-.304.492.492 0 01.262-.092c.044 0 .089.01.134.03a.393.393 0 01.2.222.97.97 0 01.058.32c.002.114-.007.226-.027.338-.02.111-.039.204-.055.277zm-9.447 12.125a7.348 7.348 0 001.23-.301 7.003 7.003 0 001.147-.505c.363-.201.702-.436 1.017-.704.314-.267.591-.566.83-.894.24-.329.437-.687.59-1.075.155-.387.254-.804.3-1.25a5.636 5.636 0 00.005-1.108 6.03 6.03 0 00-.2-1.066 5.049 5.049 0 00-.381-.958 3.741 3.741 0 00-.545-.789c-.483-.519-1.012-.779-1.589-.779-.26 0-.51.066-.751.198a2.284 2.284 0 00-.673.581c-.17.22-.318.48-.444.783a3.435 3.435 0 00-.24.81 4.237 4.237 0 00-.052.587c0 .162.014.324.042.487.049.308.167.58.353.815.422.524 1.074.812 1.954.865.223.02.423.03.6.03h.69c-.044.304-.169.614-.374.928a3.805 3.805 0 01-.837.892 6.02 6.02 0 01-1.272.755 7.854 7.854 0 01-1.68.523l.28 1.175zm3.343-5.479h-.099c-.178 0-.369-.005-.572-.017a3.068 3.068 0 01-.258-.028c-.1-.014-.201-.036-.305-.067a1.43 1.43 0 01-.292-.122.716.716 0 01-.228-.197.57.57 0 01-.125-.29 2.13 2.13 0 01-.021-.27 2.765 2.765 0 01.344-1.272c.083-.143.177-.26.283-.35a.505.505 0 01.334-.138c.073 0 .142.013.207.037a.94.94 0 01.186.094c.059.039.114.082.164.128.051.047.097.09.137.131.102.118.2.257.296.417.095.16.181.34.258.539.077.199.14.414.189.645.049.231.08.477.091.736a7.117 7.117 0 01-.59.024zM321.986 272c.248 0 .481-.012.7-.037a2.77 2.77 0 00.621-.14 2.05 2.05 0 00.55-.298 2.48 2.48 0 00.497-.517c.187.138.39.273.609.405.219.131.447.243.684.334a2.63 2.63 0 00.983.198c.167 0 .333-.022.5-.067.263-.073.487-.204.67-.392.182-.189.326-.41.431-.664.106-.253.17-.486.195-.697.024-.21.037-.381.037-.511 0-.146-.01-.288-.03-.426a3.683 3.683 0 00-.217-.804 2.506 2.506 0 00-.417-.706 2.058 2.058 0 00-.63-.502 1.812 1.812 0 00-.849-.192c-.268 0-.502.054-.703.162-.2.107-.38.247-.536.42a3.21 3.21 0 00-.42.59c-.123.221-.24.445-.35.673-.125.251-.25.496-.374.733-.124.238-.27.449-.438.633a1.908 1.908 0 01-.612.445c-.24.111-.54.167-.9.167h-.123V272h.122zm4.626-1.266c-.162 0-.345-.04-.548-.122a4.697 4.697 0 01-1.01-.59l.329-.664c.101-.199.191-.371.27-.517.08-.146.155-.268.226-.365a.862.862 0 01.213-.216.408.408 0 01.228-.07c.122 0 .23.024.323.073.093.048.174.11.243.185.07.075.128.159.177.25a1.98 1.98 0 01.188.496c.017.069.027.118.03.146.017.11.025.215.025.317a1.822 1.822 0 01-.113.615 1.035 1.035 0 01-.167.298.389.389 0 01-.2.14.878.878 0 01-.214.024zm-12.472 1.284c2.309 0 4-.56 5.07-1.68.09.248.216.469.378.664.507.653 1.288.986 2.343.998h.17v-1.193h-.151c-.662-.004-1.135-.187-1.419-.548a1.217 1.217 0 01-.255-.511 3.023 3.023 0 01-.08-.548v-.049c0-.065.007-.142.019-.231a5.071 5.071 0 01.118-.654 9.45 9.45 0 01.07-.271l-1.156-.317c-.053.183-.113.37-.18.56-.067.191-.148.38-.243.566a3.52 3.52 0 01-.344.542 2.696 2.696 0 01-.48.481c-.419.34-.942.59-1.571.746-.63.156-1.392.234-2.289.234-1.002-.004-1.817-.11-2.444-.317-.627-.207-1.062-.519-1.306-.937a1.477 1.477 0 01-.194-.502 2.648 2.648 0 01-.043-.448c0-.052.002-.103.006-.152.008-.182.034-.357.076-.523.043-.167.086-.313.131-.438.045-.126.085-.228.122-.305a1.41 1.41 0 00.055-.122l-1.053-.578c-.02.029-.079.155-.174.38-.095.226-.194.531-.295.917-.049.182-.08.35-.091.502a4.048 4.048 0 00-.006.69c.016.212.055.423.118.634.063.21.153.416.271.615.365.616.953 1.068 1.762 1.354.81.286 1.831.433 3.065.441zm.189 3.153l.992-.992-.998-.998-.993.992.999.998z"/></g><rect width="4" height="64" x="4" y="52" fill="#000000" fill-opacity=".12" mask="url(#h)" rx="2"/><g mask="url(#h)"><g transform="translate(0 4)"><use fill="#000" filter="url(#i)" xlink:href="#j"/><use fill="#FFF" fill-opacity=".98" xlink:href="#j"/><g fill="#000000" fill-opacity=".32"><path fill-rule="nonzero" d="M355.859 25c.525 0 1.045-.049 1.56-.146a12.443 12.443 0 001.495-.378c.482-.155.942-.328 1.382-.52.44-.19.852-.382 1.234-.573.261-.13.512-.252.752-.368.24-.117.481-.225.725-.326l-.198-.992a3.07 3.07 0 01-.642-.067 5.132 5.132 0 01-.637-.18 8.437 8.437 0 01-.634-.253c-.21-.094-.418-.19-.623-.287a73.31 73.31 0 00-.558-.256 7.597 7.597 0 00-.543-.222 4.228 4.228 0 00-.524-.154 2.34 2.34 0 00-.509-.057c-.337 0-.658.082-.963.245a2.96 2.96 0 00-.863.736 3.54 3.54 0 00-.248.328 8.462 8.462 0 00-.182.287 2.657 2.657 0 00-.16.298l.94.422a2.765 2.765 0 01.193-.342c.062-.095.137-.198.224-.307.087-.11.185-.212.295-.308.11-.096.228-.175.357-.237a.919.919 0 01.407-.094c.108 0 .226.016.355.05.129.032.265.077.41.132.144.056.293.12.448.19l.477.222c.213.101.428.2.647.298.22.097.45.188.69.271-.397.198-.81.391-1.237.58-.428.187-.866.354-1.315.5a11.26 11.26 0 01-1.367.352 7.355 7.355 0 01-1.388.133h-1.132V25h1.132zm3.172 2.708l.85-.85-.855-.856-.85.85.855.856zm-10.675-2.692c.17 0 .333-.026.488-.076.155-.05.301-.122.439-.214.137-.092.264-.2.38-.323a2.77 2.77 0 00.316-.405c.129.31.324.554.584.733.261.18.566.269.913.269.178 0 .345-.026.501-.078a1.68 1.68 0 00.793-.559c.105-.132.192-.28.261-.443.09.167.2.317.329.449s.27.245.425.339c.155.094.32.166.493.216.174.05.351.076.532.076h.126v-1.023h-.126c-.25 0-.477-.105-.68-.315-.204-.21-.375-.53-.514-.958a4.11 4.11 0 01-.123-.443 6.995 6.995 0 01-.12-.76 25.938 25.938 0 01-.034-.346l-1.023.083.019.392a9.285 9.285 0 01.002.647 5.827 5.827 0 01-.052.602c-.028.2-.074.381-.138.543-.064.161-.15.292-.258.391a.585.585 0 01-.413.149.581.581 0 01-.412-.141.825.825 0 01-.221-.365 1.602 1.602 0 01-.079-.407 3.986 3.986 0 01.013-.673c.014-.192.035-.374.063-.548.028-.174.05-.322.068-.444l-1.018-.193c-.017.16-.042.34-.075.54a6.157 6.157 0 01-.332 1.213 2.43 2.43 0 01-.276.527 1.423 1.423 0 01-.373.37c-.141.095-.3.142-.478.142a.386.386 0 01-.326-.146.719.719 0 01-.14-.337 2.405 2.405 0 01-.024-.556c.01-.187.03-.373.06-.555a10.923 10.923 0 01.175-.874l-1.002-.277c-.02.084-.043.183-.068.298-.024.114-.056.24-.096.378-.04.137-.088.283-.144.438a4.344 4.344 0 01-.203.472 3.531 3.531 0 01-.266.42c-.101.138-.212.261-.332.37-.12.11-.248.198-.386.264a.97.97 0 01-.425.1h-.11V25h.11a1.934 1.934 0 001.028-.284c.146-.089.28-.196.402-.321.121-.125.236-.265.344-.418a1.427 1.427 0 001.403 1.039zm-6.365-4.957l.845-.845-.855-.856-.845.85.855.851zm2.14.01l.845-.85-.856-.85-.845.845.855.856zM341.4 25c.328 0 .612-.013.854-.04.241-.025.453-.065.634-.12a1.948 1.948 0 00.834-.487c.15.191.341.347.574.467.233.12.526.18.877.18h.104v-1.023h-.104a.737.737 0 01-.436-.12.856.856 0 01-.266-.302 1.429 1.429 0 01-.138-.397 3.685 3.685 0 01-.058-.407 16.002 16.002 0 00-.093-.902 4.9 4.9 0 00-.152-.71l-.98.277c.076.264.129.499.158.704.03.205.045.407.045.605 0 .209-.035.392-.105.548a.942.942 0 01-.326.391c-.147.105-.339.183-.574.235a3.964 3.964 0 01-.847.078h-.778V25h.778zm-8.723 0c.543 0 1.056-.04 1.54-.123.483-.081.941-.19 1.374-.323.433-.134.844-.285 1.234-.454.39-.169.763-.342 1.122-.52.087.223.216.423.388.598.173.176.378.325.616.446.238.122.507.215.806.28.3.064.621.096.965.096h.11v-1.023h-.11c-.062 0-.146-.002-.25-.007a3.646 3.646 0 01-.728-.125 1.726 1.726 0 01-.37-.152 1.288 1.288 0 01-.308-.235.795.795 0 01-.19-.336c.16-.08.318-.155.474-.225.157-.07.315-.139.475-.208l-.198-.992a3.07 3.07 0 01-.642-.067 5.132 5.132 0 01-.637-.18 8.437 8.437 0 01-.633-.253 29.4 29.4 0 01-.624-.287 73.31 73.31 0 00-.558-.256 7.597 7.597 0 00-.543-.222 4.228 4.228 0 00-.524-.154 2.34 2.34 0 00-.509-.057c-.337 0-.658.082-.962.245a2.96 2.96 0 00-.864.736 3.54 3.54 0 00-.248.328 8.463 8.463 0 00-.182.287 2.657 2.657 0 00-.16.298l.94.422a2.765 2.765 0 01.193-.342c.062-.095.137-.198.224-.307.087-.11.185-.212.295-.308.11-.096.229-.175.357-.237a.919.919 0 01.407-.094c.108 0 .226.016.355.05.129.032.265.077.41.132.144.056.293.12.448.19l.478.222c.212.101.427.2.647.298.219.097.448.188.688.271-.396.198-.798.391-1.205.58-.407.187-.827.354-1.26.5-.433.146-.884.264-1.354.352-.47.089-.965.133-1.487.133h-.751V25h.751zm3.553 2.718l.85-.85-.855-.856-.85.85.855.856zm-8.995.945c.508-.08 1-.22 1.474-.418a5.392 5.392 0 001.294-.762c.388-.31.719-.672.992-1.087.273-.416.461-.881.566-1.396h.574v-1.023h-.496a4.843 4.843 0 00-.282-1.515 4.007 4.007 0 00-.302-.66 3.296 3.296 0 00-.397-.553c-.414-.446-.868-.668-1.362-.668-.222 0-.437.056-.644.17-.207.112-.4.279-.577.498a2.901 2.901 0 00-.38.67c-.108.26-.177.49-.207.694-.03.204-.044.371-.044.504 0 .139.012.278.037.417.041.264.142.497.302.699.362.449.92.696 1.675.74.191.018.363.027.514.027h.592c-.038.26-.145.526-.32.796-.176.27-.416.524-.718.764a5.16 5.16 0 01-1.09.647c-.425.191-.905.34-1.44.449l.24 1.007zm2.865-4.697l-.084.001c-.153 0-.316-.005-.49-.016a2.63 2.63 0 01-.222-.023 1.854 1.854 0 01-.26-.058 1.226 1.226 0 01-.251-.104.614.614 0 01-.196-.17.489.489 0 01-.107-.247 1.826 1.826 0 01-.018-.232 2.37 2.37 0 01.295-1.09c.071-.123.152-.223.242-.3a.433.433 0 01.287-.118c.063 0 .122.01.178.031.055.02.108.048.159.08.05.034.097.07.14.11.044.04.083.078.118.113.087.1.171.22.253.357.082.137.156.291.222.462.066.17.12.355.162.553.041.198.067.408.078.631a6.1 6.1 0 01-.506.02zm-10.18 1.029c.21 0 .419-.016.63-.047.21-.031.412-.082.607-.151.195-.07.377-.16.545-.27.17-.109.316-.24.441-.393a1.264 1.264 0 00.271-.553c.028-.122.043-.261.045-.418a2.41 2.41 0 00-.06-.526 3.792 3.792 0 00-.237-.681 5.52 5.52 0 00-.381-.7 6.908 6.908 0 00-1.057-1.28 5.968 5.968 0 00-.608-.506 3.66 3.66 0 00-.618-.366l-.423.95c.157.07.317.163.48.282.164.118.325.254.483.407a6.2 6.2 0 01.457.493c.146.175.279.356.399.542.12.186.222.372.308.559.085.186.146.364.185.534.028.126.041.233.041.324 0 .125-.026.219-.078.282a1.082 1.082 0 01-.438.318c-.174.07-.33.11-.47.122a2.997 2.997 0 01-.72-.008 4.434 4.434 0 01-1.215-.33 3.171 3.171 0 01-.465-.243l-.427.98c.087.08.224.16.412.24.188.08.395.154.62.22.227.066.454.119.681.159.228.04.426.06.593.06zm-6.918 3.74c.293-.142.58-.303.864-.482.283-.18.553-.375.809-.587.255-.212.492-.438.71-.678.217-.24.404-.492.563-.757.158-.264.281-.538.37-.821a2.927 2.927 0 00.097-1.35 7.46 7.46 0 00-.092-.487 14.85 14.85 0 00-.12-.5 71.51 71.51 0 01-.128-.504 7.76 7.76 0 00-.13-.478c-.049-.158-.097-.319-.146-.482l-.991.313a28.014 28.014 0 01.386 1.315c.041.15.08.299.114.448.035.15.064.296.087.438.022.143.033.279.033.407 0 .338-.081.665-.245.981-.163.317-.38.616-.65.898a5.97 5.97 0 01-.92.78c-.345.238-.7.448-1.065.628l.454.919zM303.513 25c.212 0 .412-.01.6-.031.188-.021.365-.061.532-.12.167-.06.324-.145.472-.256.148-.111.29-.26.426-.443.16.118.333.233.521.347.188.113.384.208.587.286a2.254 2.254 0 00.843.17c.142 0 .285-.02.428-.057.226-.063.417-.175.574-.337.156-.162.28-.351.37-.569.09-.217.146-.416.167-.597.02-.18.031-.327.031-.438 0-.125-.008-.247-.026-.365a3.157 3.157 0 00-.185-.69 2.148 2.148 0 00-.357-.604c-.15-.178-.33-.321-.54-.43a1.554 1.554 0 00-.728-.165c-.23 0-.43.046-.603.138a1.696 1.696 0 00-.459.36 2.75 2.75 0 00-.36.506c-.106.19-.206.382-.3.577-.108.215-.215.425-.32.628a2.548 2.548 0 01-.377.543c-.144.158-.319.285-.524.38-.205.097-.462.144-.772.144h-.104V25h.104zm3.965-1.085c-.139 0-.295-.035-.47-.105a4.026 4.026 0 01-.865-.506l.281-.568c.087-.17.165-.319.232-.444.068-.125.133-.23.193-.313a.739.739 0 01.183-.185.35.35 0 01.196-.06.59.59 0 01.276.063c.08.041.15.094.209.159.06.064.11.135.151.214a1.698 1.698 0 01.162.425 1.67 1.67 0 01.047.396 1.562 1.562 0 01-.097.527.887.887 0 01-.143.256.333.333 0 01-.172.12.752.752 0 01-.183.02zM295.463 25c.542 0 1.055-.04 1.539-.123.483-.081.941-.19 1.374-.323.433-.134.845-.285 1.234-.454.39-.169.764-.342 1.122-.52.087.223.217.423.389.598.172.176.377.325.615.446.239.122.507.215.807.28.299.064.62.096.965.096h.11v-1.023h-.11c-.063 0-.146-.002-.25-.007a3.646 3.646 0 01-.728-.125 1.726 1.726 0 01-.371-.152 1.288 1.288 0 01-.308-.235.795.795 0 01-.19-.336c.16-.08.318-.155.475-.225.156-.07.314-.139.474-.208l-.198-.992a3.07 3.07 0 01-.642-.067 5.132 5.132 0 01-.636-.18 8.437 8.437 0 01-.634-.253 29.4 29.4 0 01-.624-.287 73.308 73.308 0 00-.558-.256 7.597 7.597 0 00-.542-.222 4.228 4.228 0 00-.525-.154 2.34 2.34 0 00-.508-.057c-.338 0-.659.082-.963.245a2.96 2.96 0 00-.864.736 3.54 3.54 0 00-.247.328 8.463 8.463 0 00-.183.287c-.05.084-.089.153-.115.206l-.037.077-.007.015.939.422a2.765 2.765 0 01.193-.342c.063-.095.137-.198.224-.307.087-.11.186-.212.295-.308.11-.096.229-.175.358-.237a.919.919 0 01.407-.094c.107 0 .226.016.354.05.129.032.266.077.41.132.144.056.294.12.449.19l.477.222c.212.101.428.2.647.298.219.097.449.188.689.271-.397.198-.799.391-1.206.58-.407.187-.827.354-1.26.5-.433.146-.884.264-1.354.352-.47.089-.965.133-1.486.133h-.752V25h.752zm-5.64.104c.236 0 .486-.007.748-.02.263-.014.53-.042.801-.084h3.548v-1.023h-1.304a2.144 2.144 0 00.569-1.424v-.073c0-.226-.03-.437-.09-.631a1.986 1.986 0 00-.751-1.028 2.2 2.2 0 00-.581-.292 2.178 2.178 0 00-.52-.118 2.645 2.645 0 00-.85.055 4.392 4.392 0 00-1.187.449c-.36.202-.688.442-.983.722a5.78 5.78 0 00-.799.94c-.236.346-.445.71-.626 1.093a1.534 1.534 0 01-.235-.512 2.207 2.207 0 01-.062-.516v-.037c0-.18.017-.356.052-.527.035-.17.073-.327.115-.47l-.986-.297a4.26 4.26 0 00-.115.412c-.031.14-.061.284-.089.434a15.7 15.7 0 01-.172.735c-.06.226-.15.423-.271.59a1.232 1.232 0 01-.149.164.96.96 0 01-.243.16c-.1.048-.224.089-.37.122s-.322.05-.527.05h-.12V25h.151c.48-.003.89-.077 1.229-.22.34-.142.618-.366.837-.672.192.247.388.437.59.571.202.134.42.232.657.295.237.063.497.1.78.112.284.012.601.018.953.018zm0-1.054h-.23c-.31-.007-.58-.017-.809-.03.192-.349.388-.664.59-.948a5.16 5.16 0 01.639-.746c.224-.214.465-.393.723-.537.257-.145.535-.25.834-.316a1.575 1.575 0 011.002.112.973.973 0 01.503.496c.054.116.081.251.081.404v.021c0 .268-.073.494-.219.678-.15.188-.348.341-.594.46a3.397 3.397 0 01-.843.266 7.29 7.29 0 01-.897.114c-.284.018-.544.026-.78.026zm-9.887 4.613c.507-.08.999-.22 1.473-.418a5.392 5.392 0 001.294-.762c.388-.31.719-.672.992-1.087.273-.416.461-.881.566-1.396h.574v-1.023h-.496a4.843 4.843 0 00-.282-1.515 4.007 4.007 0 00-.302-.66 3.296 3.296 0 00-.397-.553c-.414-.446-.868-.668-1.362-.668-.222 0-.437.056-.644.17-.207.112-.399.279-.576.498a2.901 2.901 0 00-.381.67c-.108.26-.177.49-.206.694-.03.204-.045.371-.045.504 0 .139.012.278.037.417.042.264.142.497.302.699.362.449.92.696 1.675.74.191.018.363.027.514.027h.592c-.038.26-.145.526-.32.796-.176.27-.415.524-.718.764a5.16 5.16 0 01-1.09.647c-.425.191-.905.34-1.44.449l.24 1.007zm2.865-4.697l-.085.001c-.153 0-.316-.005-.49-.016a2.63 2.63 0 01-.222-.023 1.854 1.854 0 01-.26-.058 1.226 1.226 0 01-.251-.104.614.614 0 01-.196-.17.489.489 0 01-.107-.247 1.826 1.826 0 01-.018-.232 2.37 2.37 0 01.295-1.09c.071-.123.152-.223.242-.3a.433.433 0 01.287-.118c.063 0 .122.01.178.031.055.02.109.048.159.08.05.034.097.07.14.11.044.04.083.078.118.113.087.1.172.22.253.357.082.137.156.291.222.462.066.17.12.355.162.553.041.198.068.408.078.631a6.1 6.1 0 01-.505.02zm-7.561 4.457c.18 0 .369-.014.563-.042a3.614 3.614 0 001.558-.621c.242-.17.455-.382.642-.634a3.12 3.12 0 00.446-.887c.11-.339.167-.728.167-1.166 0-.275-.005-.6-.013-.978a135.423 135.423 0 00-.076-2.538l-.052-1.336a181.95 181.95 0 00-.136-3.198l-1.023.041a229.915 229.915 0 01.136 3.178l.052 1.328a134.469 134.469 0 01.076 2.527c.009.376.013.701.013.976 0 .296-.04.56-.117.79a2.196 2.196 0 01-.313.61c-.13.177-.281.325-.452.447a2.563 2.563 0 01-1.072.44c-.169.027-.32.04-.456.04a2.041 2.041 0 01-.524-.07 2.383 2.383 0 01-.426-.157 2.241 2.241 0 01-.415-.258 1.79 1.79 0 01-.6-.863 1.999 1.999 0 01-.091-.624 4.652 4.652 0 01.276-1.644c.039-.107.081-.207.128-.3.047-.092.095-.176.144-.253l-.934-.417c-.118.17-.223.383-.313.636-.08.22-.153.49-.22.814-.065.324-.1.712-.104 1.164v.042c0 .33.042.63.125.897a2.61 2.61 0 00.869 1.317c.197.159.405.29.624.394a3.508 3.508 0 001.518.344zm-6.934-3.407c.122 0 .256-.006.402-.016a4.084 4.084 0 00.85-.154c.132-.04.247-.09.345-.149.365-.194.637-.439.816-.733.18-.294.269-.613.269-.957 0-.46-.16-.911-.48-1.357a2.196 2.196 0 00-.454-.438 5.995 5.995 0 00-.676-.433 14.21 14.21 0 00-.835-.428c-.3-.142-.613-.285-.936-.428l-1.816-.746-.495.94.412.161c-.209.101-.388.229-.538.384-.15.155-.274.321-.373.5a2.33 2.33 0 00-.29 1.109c0 .254.066.518.196.79.13.274.326.551.587.833a8.013 8.013 0 01-.662.063c-.129.006-.272.012-.43.015a25.41 25.41 0 01-.551.005h-.141V25h.14c.248 0 .503-.005.768-.016.264-.01.523-.027.777-.05.254-.022.497-.052.728-.09a4.98 4.98 0 00.624-.141c.295.118.586.2.873.245.287.045.584.068.89.068zm-1.816-1.43a3.548 3.548 0 01-.375-.284 2.2 2.2 0 01-.31-.329 1.559 1.559 0 01-.212-.373 1.126 1.126 0 01-.078-.417c0-.157.033-.32.099-.49a1.57 1.57 0 01.274-.46c.116-.136.24-.235.373-.297a.88.88 0 01.375-.094c.063 0 .127.007.193.02.15.032.27.088.363.17a.878.878 0 01.214.282c.05.106.083.217.1.334.015.116.023.227.023.331a1.794 1.794 0 01-.577 1.304c-.13.122-.284.223-.462.303zm1.717.428a2.682 2.682 0 01-.48-.037 3.13 3.13 0 00.36-.459c.108-.167.199-.336.274-.508.075-.173.133-.344.175-.514.041-.17.062-.329.062-.475 0-.104-.002-.216-.005-.334a1.514 1.514 0 00-.063-.376c.247.115.463.242.647.381.185.14.339.281.462.425.124.145.217.288.28.43a.993.993 0 01.093.397c0 .143-.032.28-.096.41a.894.894 0 01-.313.342 1.768 1.768 0 01-.561.232 3.49 3.49 0 01-.835.086zm-4.492.986v-1.023h-.105c-.219 0-.407-.022-.566-.067a.814.814 0 01-.357-.188.435.435 0 01-.138-.269 2.819 2.819 0 01-.019-.331v-2.62a36.414 36.414 0 00-.107-2.749 7.734 7.734 0 00-.08-.652l-1.023.188a6.5 6.5 0 01.08.628c.023.256.043.535.058.838.016.302.027.615.034.939.007.323.01.635.01.934a76.847 76.847 0 010 1.612 158.543 158.543 0 00-.01.777c0 .084.002.184.005.3a2.015 2.015 0 00.185.76c.061.132.15.255.264.37.188.188.417.327.686.417.27.09.596.136.978.136h.105z"/><path d="M369.778 20.68c0-2.207 1.794-4 4-4s4 1.793 4 4c0 2.205-1.794 4-4 4s-4-1.795-4-4m11.184 6.23l-2.972-2.973a5.3 5.3 0 001.121-3.258 5.34 5.34 0 00-5.333-5.333 5.34 5.34 0 00-5.334 5.333 5.34 5.34 0 005.334 5.333 5.3 5.3 0 003.272-1.13l2.97 2.97a.663.663 0 00.942 0 .666.666 0 000-.943"/></g></g></g><path d="M0 0h400v4H0z"/></g></g></g></g></g></svg>