<svg xmlns="http://www.w3.org/2000/svg" width="200" height="200"><g fill="none" fill-rule="evenodd"><path d="M0 0h200v200H0z"/><g stroke="#EA475B" stroke-linecap="round" stroke-width=".4"><path d="M44.5 70v2M67.5 70v2M44.5 71h23"/></g><path fill="#EA475B" fill-rule="nonzero" d="M55.027 68v-.568h-1.98l1.043-1.117c.273-.296.47-.562.59-.795.12-.233.18-.457.18-.67 0-.367-.12-.654-.359-.862-.239-.208-.565-.312-.98-.312-.287 0-.54.057-.76.173a1.22 1.22 0 00-.507.484 1.395 1.395 0 00-.177.702h.712c0-.244.064-.436.19-.577.127-.14.306-.21.537-.21.193 0 .347.062.461.187.114.125.171.289.171.492a.928.928 0 01-.13.461 3.538 3.538 0 01-.438.573l-1.42 1.55V68h2.867zm2.95 0v-.95h.53v-.57h-.53v-2.746h-.735l-1.84 2.883.02.434h1.844V68h.712zm-.711-1.52h-1.117l1.064-1.688.053-.094v1.781z"/><path d="M44 72h24v4H44z"/><path stroke="#EA475B" stroke-width=".4" d="M44.2 76.2h23.6v47.6H44.2zM132.2 76.2h23.6v47.6h-23.6z"/><g transform="translate(19 119)"><circle cx="26" cy="4" r="1" fill="#EA475B"/><path stroke="#EA475B" stroke-linecap="round" stroke-width=".4" d="M26 4H15.5"/><path fill="#EA475B" fill-rule="nonzero" d="M4.013 6v-.568h-1.98l1.042-1.117c.274-.296.47-.562.59-.795.12-.233.18-.457.18-.67 0-.367-.119-.654-.358-.862-.24-.208-.566-.312-.98-.312-.287 0-.54.057-.76.173a1.22 1.22 0 00-.507.484 1.395 1.395 0 00-.177.702h.711c0-.244.064-.436.19-.577.128-.14.307-.21.537-.21.193 0 .347.062.461.187.115.125.172.289.172.492a.928.928 0 01-.13.461 3.538 3.538 0 01-.439.573l-1.42 1.55V6h2.868zm1.699.059c.355 0 .64-.13.852-.387L6.6 6h.644V1.5h-.712v1.623a1.035 1.035 0 00-.814-.352c-.381 0-.685.148-.911.444-.227.296-.34.688-.34 1.177 0 .513.115.92.344 1.218.23.3.53.449.9.449zm.182-.58a.604.604 0 01-.53-.271c-.123-.181-.185-.433-.185-.755 0-.367.062-.642.187-.825a.608.608 0 01.533-.274c.291 0 .502.127.633.381V5.09a.672.672 0 01-.638.39zm2.803 1.74V5.716c.21.228.488.343.835.343.375 0 .674-.146.897-.438.222-.292.334-.684.334-1.174v-.044c0-.511-.11-.911-.33-1.2-.22-.287-.523-.432-.91-.432-.359 0-.643.127-.852.381l-.03-.322h-.656V7.22h.712zM9.33 5.49c-.293 0-.504-.123-.633-.369V3.715c.127-.24.336-.36.627-.36.235 0 .415.092.54.278.127.185.19.436.19.753 0 .37-.064.648-.192.83a.614.614 0 01-.532.274z"/></g><g stroke="#EA475B" stroke-linecap="round" stroke-width=".4"><path d="M132.5 70v2M155.5 70v2M132.5 71h23"/></g><path fill="#EA475B" fill-rule="nonzero" d="M143.027 68v-.568h-1.98l1.043-1.117c.273-.296.47-.562.59-.795.12-.233.18-.457.18-.67 0-.367-.12-.654-.359-.862-.239-.208-.565-.312-.98-.312-.287 0-.54.057-.76.173a1.22 1.22 0 00-.507.484 1.395 1.395 0 00-.177.702h.712c0-.244.064-.436.19-.577.127-.14.306-.21.537-.21.193 0 .347.062.461.187.114.125.171.289.171.492a.928.928 0 01-.13.461 3.538 3.538 0 01-.438.573l-1.42 1.55V68h2.867zm2.95 0v-.95h.53v-.57h-.53v-2.746h-.735l-1.84 2.883.02.434h1.844V68h.712zm-.711-1.52h-1.117l1.064-1.688.053-.094v1.781z"/><path d="M132 72h24v4h-24z"/><g><path d="M156 76h8v48h-8z"/><g stroke="#EA475B" stroke-linecap="round" stroke-width=".4"><path d="M164 77h2M164 123h2M165 77v46"/></g><path fill="#EA475B" fill-rule="nonzero" d="M172.728 102v-.95h.53v-.57h-.53v-2.746h-.736l-1.84 2.883.02.434h1.844V102h.712zm-.712-1.52h-1.117l1.064-1.688.053-.094v1.781zm3.1 1.579c.421 0 .759-.11 1.013-.33.254-.22.38-.517.38-.892 0-.227-.06-.43-.18-.61a1.217 1.217 0 00-.514-.424c.186-.094.332-.222.44-.386a.992.992 0 00.161-.558c0-.363-.117-.651-.352-.864-.234-.213-.551-.32-.952-.32-.398 0-.715.107-.949.32-.234.213-.351.501-.351.864 0 .21.053.395.16.558.106.164.25.292.434.386a1.167 1.167 0 00-.51.419 1.084 1.084 0 00-.181.615c0 .373.127.67.382.89.255.221.594.332 1.018.332zm0-2.535a.56.56 0 01-.433-.172c-.106-.116-.16-.27-.16-.466 0-.198.053-.353.159-.468a.557.557 0 01.43-.17c.182 0 .326.06.434.18.107.12.161.272.161.458 0 .195-.053.35-.16.466a.56.56 0 01-.432.172zm0 1.966c-.216 0-.384-.062-.506-.187a.686.686 0 01-.183-.501c0-.213.062-.384.186-.513a.657.657 0 01.496-.193c.207 0 .374.065.5.195s.189.3.189.51c0 .218-.06.386-.18.508-.12.12-.288.181-.503.181z"/></g><g><g stroke="#EA475B" stroke-linecap="round" stroke-width=".4"><path d="M44.5 135.274v2M155.5 135.274v2M44.5 136.274h111"/></g><path fill="#EA475B" fill-rule="nonzero" d="M86.453 143.5l.668-2.177.68 2.177h.586l.864-3.17h-.694l-.504 2.189-.66-2.189h-.536l-.65 2.165-.513-2.165H85l.867 3.17h.586zm3.677-3.618c.129 0 .228-.036.299-.107a.366.366 0 00.105-.268c0-.11-.035-.2-.105-.273-.07-.072-.17-.108-.3-.108-.128 0-.227.036-.296.108a.378.378 0 00-.104.273c0 .107.034.197.104.268.069.071.168.107.297.107zm.354 3.618v-3.17h-.712v3.17h.712zm1.887.059c.356 0 .64-.13.853-.387l.035.328h.644V139h-.712v1.623a1.035 1.035 0 00-.814-.352c-.38 0-.685.148-.911.444-.227.296-.34.688-.34 1.177 0 .513.115.92.344 1.218.23.3.53.449.901.449zm.182-.58a.604.604 0 01-.53-.271c-.123-.181-.185-.433-.185-.755 0-.367.062-.642.187-.825a.608.608 0 01.534-.274c.29 0 .502.127.632.381v1.354a.672.672 0 01-.638.39zm3.093.58c.15 0 .307-.023.47-.068v-.55c-.085.019-.168.029-.25.029-.123 0-.208-.027-.256-.08-.048-.055-.072-.142-.072-.263v-1.77h.56v-.527h-.56v-.77h-.712v.77h-.521v.527h.521v1.796c0 .604.274.906.82.906zm1.697-.059v-2.265a.686.686 0 01.638-.38c.184 0 .323.045.418.136.095.09.142.245.142.464v2.045h.712v-2.071c-.01-.772-.353-1.158-1.028-1.158-.356 0-.65.135-.882.405V139h-.712v4.5h.712zm3.058-2.455c.133 0 .236-.037.308-.11a.378.378 0 00.108-.277.392.392 0 00-.108-.283c-.072-.075-.175-.112-.308-.112a.403.403 0 00-.304.112.392.392 0 00-.109.283c0 .113.037.206.112.279a.414.414 0 00.301.108zm0 2.487c.133 0 .236-.036.308-.11a.378.378 0 00.108-.276.392.392 0 00-.108-.283c-.072-.075-.175-.113-.308-.113a.403.403 0 00-.304.113.392.392 0 00-.109.283c0 .113.037.206.112.278a.414.414 0 00.301.108zm3.636.027c.328 0 .606-.119.832-.355.024.137.05.235.082.296h.727v-.05c-.08-.17-.12-.397-.12-.682v-1.43c-.006-.338-.12-.6-.34-.787-.22-.186-.517-.28-.888-.28-.244 0-.465.043-.663.13a1.152 1.152 0 00-.47.355.79.79 0 00-.174.488h.712c0-.125.052-.228.156-.309a.627.627 0 01.398-.122c.188 0 .327.05.419.148.092.1.138.23.138.394v.208h-.437c-.467 0-.826.09-1.076.271-.251.181-.377.44-.377.778 0 .268.1.492.302.674.201.182.46.273.78.273zm.132-.572a.528.528 0 01-.365-.121.416.416 0 01-.136-.327c0-.168.066-.298.2-.39.132-.091.33-.137.594-.137h.384v.597a.685.685 0 01-.28.276.81.81 0 01-.397.102zm3.164.572c.385 0 .682-.123.89-.37l.018.311h.671v-3.17h-.712v2.276c-.12.248-.354.373-.7.373-.334 0-.501-.202-.501-.604v-2.045h-.712v2.054c0 .38.088.672.265.873.177.201.437.302.781.302zm3.305 0c.15 0 .306-.023.468-.068v-.55c-.084.019-.167.029-.249.029-.123 0-.208-.027-.256-.08-.048-.055-.072-.142-.072-.263v-1.77h.56v-.527h-.56v-.77h-.712v.77h-.521v.527h.521v1.796c0 .604.274.906.82.906zm2.338 0c.293 0 .55-.068.774-.203.224-.134.396-.325.516-.57.12-.247.18-.526.18-.839l-.003-.167c-.021-.455-.165-.82-.432-1.095-.266-.276-.614-.414-1.041-.414-.29 0-.545.067-.768.201a1.348 1.348 0 00-.518.574 1.87 1.87 0 00-.185.84v.035c0 .496.134.893.403 1.19.268.299.626.448 1.074.448zm0-.569a.657.657 0 01-.563-.277c-.135-.184-.202-.44-.202-.766 0-.367.068-.643.205-.827a.653.653 0 01.554-.277.66.66 0 01.56.281c.138.188.207.441.207.762 0 .361-.067.635-.2.823a.65.65 0 01-.561.281z"/><path d="M44 124h112v8H44z"/></g></g></svg>