<svg xmlns="http://www.w3.org/2000/svg" width="200" height="200"><g fill="none" fill-rule="evenodd"><path d="M0 0h200v200H0z"/><path stroke="#EA475B" stroke-width=".4" d="M44.2 76.2h15.6v47.6H44.2zM140.2 76.2h15.6v47.6h-15.6z"/><path d="M156 76h8v48h-8z"/><g stroke="#EA475B" stroke-linecap="round" stroke-width=".4"><path d="M164 77h2M164 123h2M165 77v46"/></g><path fill="#EA475B" fill-rule="nonzero" d="M172.728 102v-.95h.53v-.57h-.53v-2.746h-.736l-1.84 2.883.02.434h1.844V102h.712zm-.712-1.52h-1.117l1.064-1.688.053-.094v1.781zm3.1 1.579c.421 0 .759-.11 1.013-.33.254-.22.38-.517.38-.892 0-.227-.06-.43-.18-.61a1.217 1.217 0 00-.514-.424c.186-.094.332-.222.44-.386a.992.992 0 00.161-.558c0-.363-.117-.651-.352-.864-.234-.213-.551-.32-.952-.32-.398 0-.715.107-.949.32-.234.213-.351.501-.351.864 0 .21.053.395.16.558.106.164.25.292.434.386a1.167 1.167 0 00-.51.419 1.084 1.084 0 00-.181.615c0 .373.127.67.382.89.255.221.594.332 1.018.332zm0-2.535a.56.56 0 01-.433-.172c-.106-.116-.16-.27-.16-.466 0-.198.053-.353.159-.468a.557.557 0 01.43-.17c.182 0 .326.06.434.18.107.12.161.272.161.458 0 .195-.053.35-.16.466a.56.56 0 01-.432.172zm0 1.966c-.216 0-.384-.062-.506-.187a.686.686 0 01-.183-.501c0-.213.062-.384.186-.513a.657.657 0 01.496-.193c.207 0 .374.065.5.195s.189.3.189.51c0 .218-.06.386-.18.508-.12.12-.288.181-.503.181z"/><g stroke="#EA475B" stroke-linecap="round" stroke-width=".4"><path d="M44.5 135.274v2M155.5 135.274v2M44.5 136.274h111"/></g><path fill="#EA475B" fill-rule="nonzero" d="M80.453 144v-2.297c.119-.232.321-.349.606-.349.371 0 .562.187.572.56V144h.711l-.002-2.174a.688.688 0 01.215-.341.593.593 0 01.397-.13c.203 0 .348.046.436.14.088.094.132.241.132.443V144h.712v-2.083c-.004-.377-.091-.662-.262-.855-.171-.194-.431-.29-.78-.29-.419 0-.743.162-.974.486-.156-.324-.446-.487-.87-.487-.386 0-.691.13-.914.39l-.02-.33h-.671V144h.712zm4.913-3.618c.129 0 .228-.036.299-.107a.366.366 0 00.105-.268c0-.11-.035-.2-.105-.273-.07-.072-.17-.108-.3-.108-.128 0-.227.036-.296.108a.378.378 0 00-.104.273c0 .107.034.197.104.268.069.071.168.107.297.107zM85.72 144v-3.17h-.712V144h.712zm1.477 0v-2.256c.14-.26.354-.39.642-.39.197 0 .339.049.426.146.087.096.13.245.13.446V144h.712v-2.095c-.012-.756-.348-1.134-1.008-1.134-.38 0-.688.142-.923.425l-.02-.366h-.671V144h.712zm4.017-1.526v-.575h-1.539v.575h1.539zM92.986 144l.668-2.177.68 2.177h.586l.864-3.17h-.694l-.504 2.189-.66-2.189h-.536l-.65 2.165-.513-2.165h-.694L92.4 144h.586zm3.677-3.618c.129 0 .228-.036.299-.107a.366.366 0 00.105-.268c0-.11-.035-.2-.105-.273-.07-.072-.17-.108-.3-.108-.128 0-.227.036-.297.108a.378.378 0 00-.104.273c0 .107.035.197.104.268.07.071.169.107.298.107zm.354 3.618v-3.17h-.712V144h.712zm1.887.059c.355 0 .64-.13.853-.387l.035.328h.644v-4.5h-.712v1.623a1.035 1.035 0 00-.814-.352c-.381 0-.685.148-.911.444-.227.296-.34.688-.34 1.177 0 .513.115.92.344 1.218.23.3.53.449.901.449zm.182-.58a.604.604 0 01-.53-.271c-.123-.181-.185-.433-.185-.755 0-.367.062-.642.187-.825a.608.608 0 01.533-.274c.291 0 .502.127.633.381v1.354a.672.672 0 01-.638.39zm3.093.58c.15 0 .307-.023.47-.068v-.55c-.085.019-.168.029-.25.029-.123 0-.208-.027-.256-.08-.048-.055-.072-.142-.072-.263v-1.77h.56v-.527h-.56v-.77h-.712v.77h-.521v.527h.521v1.796c0 .604.273.906.82.906zm1.697-.059v-2.265a.686.686 0 01.638-.38c.184 0 .323.045.418.136.095.09.142.245.142.464V144h.712v-2.071c-.01-.772-.353-1.158-1.029-1.158-.355 0-.649.135-.881.405V139.5h-.712v4.5h.712zm3.058-2.455c.133 0 .236-.037.308-.11a.378.378 0 00.108-.277.392.392 0 00-.108-.283c-.072-.075-.175-.112-.308-.112a.403.403 0 00-.304.112.392.392 0 00-.109.283c0 .113.037.206.111.279a.414.414 0 00.302.108zm0 2.487c.133 0 .236-.036.308-.11a.378.378 0 00.108-.276.392.392 0 00-.108-.283c-.072-.075-.175-.113-.308-.113a.403.403 0 00-.304.113.392.392 0 00-.109.283c0 .113.037.206.111.278a.414.414 0 00.302.108zm4.538-.032v-4.28h-.09l-1.665.612v.6l1.046-.357V144h.71zm3.41 0v-4.28h-.09l-1.664.612v.6l1.046-.357V144h.708zm4.351 0v-.568h-1.98l1.043-1.117c.273-.296.47-.562.59-.795.12-.233.18-.457.18-.67 0-.367-.12-.654-.359-.862-.24-.208-.566-.312-.98-.312-.287 0-.54.057-.76.173a1.22 1.22 0 00-.507.484 1.395 1.395 0 00-.177.702h.712c0-.244.063-.436.19-.577.127-.14.306-.21.536-.21.194 0 .348.062.462.187.114.125.171.289.171.492a.928.928 0 01-.13.461 3.538 3.538 0 01-.438.573l-1.421 1.55V144h2.868z"/><path d="M44 124h112v8H44z"/><g><g stroke="#EA475B" stroke-linecap="round" stroke-width=".4"><path d="M44.5 71v2M59.5 71v2M44.5 72h15"/></g><path fill="#EA475B" fill-rule="nonzero" d="M50.337 69v-4.28h-.09l-1.665.612v.6l1.046-.357V69h.709zm2.938.059c.414 0 .749-.135 1.004-.403.255-.269.382-.62.382-1.053 0-.42-.109-.763-.327-1.029-.217-.265-.515-.398-.892-.398-.355 0-.647.12-.876.36.045-.39.187-.692.425-.905.238-.213.557-.322.955-.328h.088v-.59h-.073c-.684 0-1.208.213-1.572.637-.364.423-.546 1.01-.546 1.757v.244c0 .51.132.921.397 1.236.264.314.61.472 1.035.472zm-.005-.575a.608.608 0 01-.516-.28c-.133-.186-.2-.437-.2-.754v-.217a.77.77 0 01.716-.483c.207 0 .373.081.498.243.125.162.187.372.187.63s-.061.466-.184.624a.6.6 0 01-.501.237z"/><path d="M44 73h16v4H44z"/></g><g transform="translate(88 88)"><circle cx="12" cy="12" r="12" fill="#FFF"/><circle cx="12" cy="12" r="6" fill="#EA475B" fill-opacity=".12"/><circle cx="12" cy="12" r="11.9" stroke="#EA475B" stroke-width=".2"/><path fill="#EA475B" fill-rule="nonzero" d="M11.852 13v-.379h-1.32l.695-.744c.182-.198.313-.375.393-.53a.976.976 0 00.12-.447c0-.244-.08-.436-.239-.575-.16-.138-.377-.208-.653-.208-.192 0-.36.039-.507.115a.814.814 0 00-.338.324.93.93 0 00-.118.467h.474c0-.162.043-.29.127-.384a.457.457 0 01.358-.141c.129 0 .231.042.307.125a.467.467 0 01.115.328.619.619 0 01-.087.308c-.058.102-.156.23-.292.382l-.948 1.033V13h1.913zm1.966 0v-.633h.354v-.38h-.354v-1.83h-.49l-1.226 1.921.013.29h1.229V13h.474zm-.474-1.014H12.6l.709-1.125.035-.062v1.187z"/></g><g transform="translate(19 119)"><circle cx="26" cy="4" r="1" fill="#EA475B"/><path stroke="#EA475B" stroke-linecap="round" stroke-width=".4" d="M26 4H15.5"/><path fill="#EA475B" fill-rule="nonzero" d="M4.013 6v-.568h-1.98l1.042-1.117c.274-.296.47-.562.59-.795.12-.233.18-.457.18-.67 0-.367-.119-.654-.358-.862-.24-.208-.566-.312-.98-.312-.287 0-.54.057-.76.173a1.22 1.22 0 00-.507.484 1.395 1.395 0 00-.177.702h.711c0-.244.064-.436.19-.577.128-.14.307-.21.537-.21.193 0 .347.062.461.187.115.125.172.289.172.492a.928.928 0 01-.13.461 3.538 3.538 0 01-.439.573l-1.42 1.55V6h2.868zm1.699.059c.355 0 .64-.13.852-.387L6.6 6h.644V1.5h-.712v1.623a1.035 1.035 0 00-.814-.352c-.381 0-.685.148-.911.444-.227.296-.34.688-.34 1.177 0 .513.115.92.344 1.218.23.3.53.449.9.449zm.182-.58a.604.604 0 01-.53-.271c-.123-.181-.185-.433-.185-.755 0-.367.062-.642.187-.825a.608.608 0 01.533-.274c.291 0 .502.127.633.381V5.09a.672.672 0 01-.638.39zm2.803 1.74V5.716c.21.228.488.343.835.343.375 0 .674-.146.897-.438.222-.292.334-.684.334-1.174v-.044c0-.511-.11-.911-.33-1.2-.22-.287-.523-.432-.91-.432-.359 0-.643.127-.852.381l-.03-.322h-.656V7.22h.712zM9.33 5.49c-.293 0-.504-.123-.633-.369V3.715c.127-.24.336-.36.627-.36.235 0 .415.092.54.278.127.185.19.436.19.753 0 .37-.064.648-.192.83a.614.614 0 01-.532.274z"/></g><g><g stroke="#EA475B" stroke-linecap="round" stroke-width=".4"><path d="M140.5 71v2M155.5 71v2M140.5 72h15"/></g><path fill="#EA475B" fill-rule="nonzero" d="M146.337 69v-4.28h-.09l-1.665.612v.6l1.046-.357V69h.709zm2.938.059c.414 0 .749-.135 1.004-.403.255-.269.382-.62.382-1.053 0-.42-.109-.763-.327-1.029-.217-.265-.515-.398-.892-.398-.355 0-.647.12-.876.36.045-.39.187-.692.425-.905.238-.213.557-.322.955-.328h.088v-.59h-.073c-.684 0-1.208.213-1.572.637-.364.423-.546 1.01-.546 1.757v.244c0 .51.132.921.397 1.236.264.314.61.472 1.035.472zm-.005-.575a.608.608 0 01-.516-.28c-.133-.186-.2-.437-.2-.754v-.217a.77.77 0 01.716-.483c.207 0 .373.081.498.243.125.162.187.372.187.63s-.061.466-.184.624a.6.6 0 01-.501.237z"/><path d="M140 73h16v4h-16z"/></g></g></svg>