<svg xmlns="http://www.w3.org/2000/svg" xmlns:xlink="http://www.w3.org/1999/xlink" width="860" height="422"><defs><filter id="d" width="113.9%" height="113.9%" x="-6.9%" y="-5.9%" filterUnits="objectBoundingBox"><feOffset dy="4" in="SourceAlpha" result="shadowOffsetOuter1"/><feGaussianBlur in="shadowOffsetOuter1" result="shadowBlurOuter1" stdDeviation="8"/><feColorMatrix in="shadowBlurOuter1" values="0 0 0 0 0 0 0 0 0 0 0 0 0 0 0 0 0 0 0.12 0"/></filter><filter id="f" width="110.7%" height="110.7%" x="-5.3%" y="-4.3%" filterUnits="objectBoundingBox"><feOffset dy="2" in="SourceAlpha" result="shadowOffsetOuter1"/><feGaussianBlur in="shadowOffsetOuter1" result="shadowBlurOuter1" stdDeviation="4"/><feColorMatrix in="shadowBlurOuter1" result="shadowMatrixOuter1" values="0 0 0 0 0 0 0 0 0 0 0 0 0 0 0 0 0 0 0.08 0"/><feOffset dy="4" in="SourceAlpha" result="shadowOffsetOuter2"/><feGaussianBlur in="shadowOffsetOuter2" result="shadowBlurOuter2" stdDeviation="6"/><feColorMatrix in="shadowBlurOuter2" result="shadowMatrixOuter2" values="0 0 0 0 0 0 0 0 0 0 0 0 0 0 0 0 0 0 0.04 0"/><feOffset in="SourceAlpha" result="shadowOffsetOuter3"/><feGaussianBlur in="shadowOffsetOuter3" result="shadowBlurOuter3" stdDeviation="2"/><feColorMatrix in="shadowBlurOuter3" result="shadowMatrixOuter3" values="0 0 0 0 0 0 0 0 0 0 0 0 0 0 0 0 0 0 0.04 0"/><feMerge><feMergeNode in="shadowMatrixOuter1"/><feMergeNode in="shadowMatrixOuter2"/><feMergeNode in="shadowMatrixOuter3"/></feMerge></filter><filter id="h" width="101.9%" height="110.9%" x="-.9%" y="-3.9%" filterUnits="objectBoundingBox"><feOffset dy="1" in="SourceAlpha" result="shadowOffsetOuter1"/><feGaussianBlur in="shadowOffsetOuter1" result="shadowBlurOuter1" stdDeviation="1"/><feComposite in="shadowBlurOuter1" in2="SourceAlpha" operator="out" result="shadowBlurOuter1"/><feColorMatrix in="shadowBlurOuter1" values="0 0 0 0 0 0 0 0 0 0 0 0 0 0 0 0 0 0 0.12 0"/></filter><path id="c" d="M8 0h359a8 8 0 018 8v366H0V8a8 8 0 018-8z"/><path id="g" d="M8 0h359a8 8 0 018 8v366H0V8a8 8 0 018-8z"/><path id="i" d="M0 0h375v64H0z"/><rect id="a" width="860" height="422" x="0" y="0" rx="4"/></defs><g fill="none" fill-rule="evenodd"><mask id="b" fill="#fff"><use xlink:href="#a"/></mask><use fill="#000" fill-opacity="0" xlink:href="#a"/><g mask="url(#b)"><g transform="translate(243 48)"><mask id="e" fill="#fff"><use xlink:href="#c"/></mask><use fill="#000" filter="url(#d)" xlink:href="#c"/><g mask="url(#e)"><use fill="#000" filter="url(#f)" xlink:href="#g"/><use fill="#FFF" xlink:href="#g"/></g><g mask="url(#e)"><use fill="#000" filter="url(#h)" xlink:href="#i"/><use fill="#FFF" fill-opacity=".98" xlink:href="#i"/></g><path fill="#000000" fill-opacity=".87" fill-rule="nonzero" d="M354.331 40.602c.361-.179.719-.38 1.072-.603.353-.223.687-.465 1.004-.724.316-.26.61-.536.88-.828.27-.292.503-.6.7-.922a4.67 4.67 0 00.462-1.005c.112-.347.168-.703.168-1.068 0-.268-.023-.543-.067-.825a9.847 9.847 0 00-.174-.849c-.07-.284-.15-.565-.237-.843l-.253-.8-1.528.493c.053.178.119.383.198.615.08.23.156.471.231.72.075.25.14.503.192.759.053.255.08.499.08.73 0 .248-.045.493-.135.737-.089.243-.212.48-.368.712a4.456 4.456 0 01-.56.67c-.217.215-.452.42-.706.614-.254.195-.52.379-.8.551-.28.173-.564.33-.853.472l.694 1.394zm-5.636-.159c.47-.077.93-.193 1.375-.35.447-.156.867-.35 1.26-.58.394-.232.755-.501 1.084-.807a5.004 5.004 0 001.403-2.283c.132-.452.198-.938.198-1.458a5.916 5.916 0 00-.32-1.92 5.086 5.086 0 00-.377-.84 3.947 3.947 0 00-.502-.703c-.52-.56-1.094-.84-1.723-.84-.243 0-.47.046-.682.14-.21.093-.403.22-.578.38-.174.16-.329.345-.463.554-.133.21-.246.43-.337.664a4.242 4.242 0 00-.21.715 3.57 3.57 0 00-.073.7c0 .349.046.65.14.9a1.848 1.848 0 00.995 1.069c.233.107.489.19.767.25.278.058.573.098.885.118.313.02.633.03.962.03-.073.277-.22.552-.441.828a4.007 4.007 0 01-.861.78 6.61 6.61 0 01-1.251.66c-.481.197-1.02.354-1.616.472l.365 1.521zm3.89-5.819c-.094 0-.193 0-.299-.003l-.32-.006a14.864 14.864 0 01-.593-.021 4.197 4.197 0 01-.466-.076 1.54 1.54 0 01-.42-.155.911.911 0 01-.304-.271.714.714 0 01-.119-.423c0-.163.034-.329.1-.5.068-.17.152-.325.253-.465.102-.14.213-.255.335-.344a.589.589 0 01.341-.134c.114 0 .227.039.34.116.115.077.225.18.333.307.107.128.208.274.301.438a4.46 4.46 0 01.43 1.047c.046.177.075.34.087.49zm-8.583 1.559c.458 0 .89-.047 1.293-.14a3.12 3.12 0 001.06-.448c.302-.205.54-.472.715-.8.174-.329.261-.729.261-1.2 0-.263-.024-.533-.073-.809a7.945 7.945 0 00-.191-.825c-.08-.274-.17-.54-.271-.8-.102-.26-.203-.505-.305-.737l-1.406.694c.11.215.214.447.314.694a10.056 10.056 0 01.435 1.351c.045.191.067.34.067.445 0 .223-.062.402-.186.535-.124.134-.28.237-.468.308a2.432 2.432 0 01-.615.14 6.178 6.178 0 01-.618.033h-1.297v1.559h1.285zm-.055 2.836l1.035-1.035-1.047-1.047-1.035 1.041 1.047 1.041zm2.3.012l1.036-1.04-1.047-1.041-1.035 1.034 1.047 1.047zm-3.286-2.848v-1.559h-.14a.933.933 0 01-.374-.07.918.918 0 01-.287-.194 1.29 1.29 0 01-.219-.299 3.924 3.924 0 01-.18-.38l-1.527-3.683a135.23 135.23 0 00-.274-.657 21.409 21.409 0 01-.231-.572l-1.443.602 1.942 4.687a2.22 2.22 0 01-.375.216 3.555 3.555 0 01-1.384.326c-.292 0-.599-.076-.92-.228-.32-.152-.665-.399-1.034-.74l-.895 1.26c.394.406.815.722 1.263.95.448.227.926.34 1.434.34.267 0 .521-.01.76-.033.24-.022.471-.062.694-.119a3.426 3.426 0 001.236-.596c.097.105.199.204.304.295.106.091.228.17.366.238.137.066.299.12.483.158.185.038.405.058.66.058h.14zm-10.08-.013l1.595-.243c.016-.317.032-.656.048-1.02.017-.363.029-.754.037-1.174a90.143 90.143 0 00.006-2.95 45.436 45.436 0 00-.073-2.066 30.769 30.769 0 00-.213-2.219l-1.564.512c.069.67.123 1.37.164 2.103.04.732.077 1.514.11 2.346.012.361.018.749.018 1.163 0 1.026-.043 2.21-.128 3.548zm-4.158.08a3.37 3.37 0 001.15-.19c.407-.145.741-.355 1.005-.63.264-.273.433-.552.509-.836.075-.284.112-.528.112-.73 0-.212-.026-.433-.079-.664a4.568 4.568 0 00-.484-1.193 7.66 7.66 0 00-.797-1.135 9.77 9.77 0 00-1.005-1.026c-.363-.32-.731-.609-1.104-.864l-.907 1.345c.194.122.404.27.63.447.225.177.449.37.672.579.223.209.438.427.645.654.207.227.39.453.548.679.159.225.283.44.375.645.09.205.137.388.137.55v.019a.567.567 0 01-.092.307.702.702 0 01-.222.207 1.195 1.195 0 01-.307.128c-.114.03-.228.053-.341.067a3.847 3.847 0 01-.323.028 2.645 2.645 0 01-.85-.073 7.12 7.12 0 01-1.363-.475 5.076 5.076 0 01-.556-.299l-.646 1.492a6.988 6.988 0 001.452.675c.266.09.537.16.813.21.276.051.548.076.815.076.073.005.144.007.213.007zm-7.505-.05c.138 0 .298-.007.478-.023.18-.017.363-.041.548-.074a5.06 5.06 0 00.53-.121c.168-.049.31-.108.429-.177.345-.207.624-.464.837-.773.213-.308.346-.588.398-.84.053-.251.08-.458.08-.62a2.479 2.479 0 00-.578-1.589 3.38 3.38 0 00-.503-.506 4.724 4.724 0 00-.603-.407 8.726 8.726 0 00-.77-.39l-.998-.45c-.183-.082-.38-.173-.59-.274a90.448 90.448 0 01-1.772-.877l-.21-.104a18.26 18.26 0 00-.167-.082.79.79 0 00-.17-.07l-.907 1.48c.125.069.218.117.277.146a.783.783 0 00.136.054 2.34 2.34 0 00-.502.445c-.144.17-.264.355-.362.554-.097.199-.17.409-.219.63a3.09 3.09 0 00.07 1.598c.095.304.242.584.441.84a82.245 82.245 0 00-.675.04c-.094.005-.19.01-.29.011-.099.002-.22.003-.362.003h-.115v1.559h.115c.613 0 1.185-.032 1.717-.095a7.42 7.42 0 001.37-.277c.158.07.338.128.541.177a7.539 7.539 0 001.257.192c.21.014.399.02.57.02zm-2.355-1.996a.97.97 0 01-.341-.185 1.62 1.62 0 01-.283-.305 1.816 1.816 0 01-.207-.374 1.553 1.553 0 01-.107-.396 1.425 1.425 0 01.073-.578c.065-.199.158-.38.277-.542.12-.162.249-.287.387-.374a.744.744 0 01.395-.13c.033 0 .065.001.098.005.11.016.231.056.365.119.134.063.257.148.368.256.112.107.196.227.253.359a1 1 0 01.085.398 2.154 2.154 0 01-.189.819c-.085.18-.187.334-.307.46a1.47 1.47 0 01-.402.301c-.148.075-.303.13-.465.167zm2.526.457a3.027 3.027 0 01-.39-.024c.244-.305.427-.64.551-1.008a3.494 3.494 0 00.161-1.555c.207.097.402.206.585.326.182.12.34.245.474.377.134.132.24.267.32.405.08.138.119.272.119.401a.697.697 0 01-.14.414c-.094.13-.221.244-.384.341a2.227 2.227 0 01-.575.235 2.8 2.8 0 01-.721.088zm-5.497 1.522v-1.559h-.274a1.6 1.6 0 01-.417-.048.604.604 0 01-.457-.444 1.51 1.51 0 01-.045-.39v-.285l.003-.184a691.051 691.051 0 00.012-.764 29.25 29.25 0 00-.003-1.071c-.004-.242-.006-.47-.006-.685a31.888 31.888 0 00-.182-3.393 11.12 11.12 0 00-.122-.862l-1.528.457c.037.19.069.41.097.66.029.25.053.518.073.804a46.356 46.356 0 01.085 1.808 71.017 71.017 0 01.025 1.725c0 .43-.004.795-.012 1.093-.008.298-.012.512-.012.642.004.836.219 1.46.645 1.875.426.414 1.05.62 1.875.62h.243z" mask="url(#e)"/><path mask="url(#e)" d="M0 64h375v48H0z"/><path fill="#000000" fill-opacity=".12" mask="url(#e)" d="M0 112h375v1H0z"/><path fill="#EA475B" fill-rule="nonzero" mask="url(#e)" d="M241 110h134v2H241zM305.969 83.834a1.321 1.321 0 000-1.87l-2.54-2.54c-.516-.517-1.351-.519-2.03.16l-.956.956a3.99 3.99 0 00-.891 4.268 20.447 20.447 0 0011.602 11.626 3.987 3.987 0 004.272-.888l.968-.967c.679-.678.677-1.513.16-2.03l-2.54-2.54a1.323 1.323 0 00-1.87 0l-1.535 1.537a.451.451 0 01-.546.07 16.617 16.617 0 01-5.705-5.697.447.447 0 01.07-.544l1.54-1.541z"/><path fill="#000000" fill-opacity=".56" d="M40.41 148.75a.836.836 0 00-1.182 0L36 151.98l-3.228-3.228a.836.836 0 10-1.183 1.182l3.82 3.82a.834.834 0 001.183 0l3.819-3.82a.834.834 0 000-1.182m295.089 3.082a4.171 4.171 0 014.167 4.167c0 1.378-1.122 2.5-2.5 2.5h-8.334a2.503 2.503 0 01-2.5-2.5 4.171 4.171 0 014.167-4.167zm0 1.667h-5a2.503 2.503 0 00-2.5 2.5c0 .46.373.833.833.833h8.334c.46 0 .833-.374.833-.833 0-1.378-1.122-2.5-2.5-2.5zm-2.5-10a3.337 3.337 0 013.333 3.333 3.337 3.337 0 01-3.333 3.334 3.337 3.337 0 01-3.333-3.334A3.337 3.337 0 01333 143.5zm0 1.667c-.92 0-1.667.747-1.667 1.666 0 .92.748 1.667 1.667 1.667.92 0 1.667-.748 1.667-1.667s-.748-1.666-1.667-1.666z" mask="url(#e)"/><path fill="#000000" fill-opacity=".32" fill-rule="nonzero" d="M314.395 184.136c0-.303-.003-.621-.008-.955a34.52 34.52 0 00-.094-2.061 19.53 19.53 0 00-.102-1.012c-.1-.765-.246-1.446-.435-2.043a6.903 6.903 0 00-.713-1.578l-.866.553c.261.41.47.883.624 1.42.155.535.274 1.11.357 1.726.084.616.138 1.258.162 1.928.024.67.037 1.343.037 2.022h1.038zm-10.555 3.6c.292-.143.58-.304.863-.483.284-.18.554-.375.81-.587.255-.212.491-.438.709-.678.217-.24.405-.492.563-.757.158-.264.282-.538.37-.821a2.927 2.927 0 00.097-1.35 7.462 7.462 0 00-.091-.487 14.851 14.851 0 00-.12-.5 71.534 71.534 0 01-.128-.504 7.76 7.76 0 00-.13-.478c-.05-.158-.098-.319-.146-.482l-.992.313a28.013 28.013 0 01.386 1.315c.042.15.08.299.115.448.035.15.064.296.086.438.023.143.034.279.034.407 0 .338-.082.665-.245.981-.164.317-.38.616-.65.898a5.97 5.97 0 01-.92.78c-.345.238-.7.448-1.065.628l.454.919zm-4.763-.073c.358-.056.71-.142 1.053-.259.345-.116.673-.26.984-.433.311-.172.602-.373.871-.602.27-.23.507-.486.712-.767.206-.282.374-.589.506-.921.133-.332.218-.69.256-1.072a4.831 4.831 0 00.005-.95 5.169 5.169 0 00-.172-.913 4.328 4.328 0 00-.326-.822 3.207 3.207 0 00-.467-.675c-.414-.446-.868-.668-1.362-.668-.222 0-.437.056-.644.17-.207.112-.4.279-.576.498a2.901 2.901 0 00-.381.67c-.108.26-.177.49-.206.694-.03.204-.045.371-.045.504 0 .139.012.278.037.417.041.264.142.497.302.699.362.449.92.696 1.675.74.191.018.363.027.514.027h.592c-.038.26-.145.526-.32.796-.176.27-.415.524-.718.764a5.16 5.16 0 01-1.09.647c-.425.191-.905.34-1.44.449l.24 1.007zm2.865-4.697l-.085.001c-.153 0-.316-.005-.49-.016a2.63 2.63 0 01-.222-.023 1.854 1.854 0 01-.26-.058 1.226 1.226 0 01-.251-.104.614.614 0 01-.196-.17.489.489 0 01-.107-.247 1.826 1.826 0 01-.018-.232 2.37 2.37 0 01.295-1.09c.071-.123.152-.223.242-.3a.433.433 0 01.287-.118c.063 0 .122.01.178.031.055.02.108.048.159.08.05.034.097.07.14.11.044.04.083.078.118.113.087.1.171.22.253.357.082.137.156.291.222.462.066.17.12.355.162.553.041.198.068.408.078.631a6.1 6.1 0 01-.505.02zm-5.302-3.646l.85-.85-.855-.856-.85.85.855.856zm-2.28 8.416c.292-.143.58-.304.863-.483.284-.18.554-.375.81-.587.255-.212.491-.438.709-.678.217-.24.405-.492.563-.757.158-.264.282-.538.37-.821a2.927 2.927 0 00.097-1.35 7.462 7.462 0 00-.091-.487 14.851 14.851 0 00-.12-.5 71.534 71.534 0 01-.128-.504 7.76 7.76 0 00-.13-.478c-.05-.158-.098-.319-.146-.482l-.992.313a28.013 28.013 0 01.386 1.315c.042.15.08.299.115.448.035.15.064.296.086.438.023.143.034.279.034.407 0 .338-.082.665-.245.981-.164.317-.38.616-.65.898a5.97 5.97 0 01-.92.78c-.345.238-.7.448-1.065.628l.454.919zM287.677 184c.285 0 .56-.02.826-.057.267-.039.51-.105.734-.199.222-.094.42-.219.592-.375.172-.157.31-.353.414-.59.105-.24.157-.518.157-.835 0-.055-.002-.111-.005-.167a5.826 5.826 0 00-.272-1.335 6.775 6.775 0 00-.166-.483 10.547 10.547 0 00-.287-.673 1.284 1.284 0 01-.047-.107l-.93.46.455 1.116a3.393 3.393 0 01.235.89c.007.092.01.16.01.205 0 .084-.005.162-.016.235a1.012 1.012 0 01-.078.277.817.817 0 01-.292.341c-.125.082-.27.144-.433.186-.164.041-.341.067-.532.075a12.99 12.99 0 01-.59.013h-1.007V184h1.232zm1.987 2.718l.856-.855-.845-.846-.856.856.845.845zm-2.28.01l.856-.855-.845-.85-.856.855.845.85zm1.164 1.493l.777-.778-.772-.772-.777.778.772.772zm-5.77-4.221c.326 0 .61-.013.852-.04.242-.025.453-.065.634-.12a1.948 1.948 0 00.835-.487c.15.191.341.347.574.467.233.12.525.18.877.18h.104v-1.023h-.104a.737.737 0 01-.436-.12.856.856 0 01-.266-.302 1.429 1.429 0 01-.138-.397 3.685 3.685 0 01-.058-.407 16.003 16.003 0 00-.094-.902 4.9 4.9 0 00-.151-.71l-.98.277c.076.264.129.499.158.704.03.205.045.407.045.605 0 .209-.035.392-.105.548a.942.942 0 01-.326.391c-.148.105-.339.183-.574.235a3.964 3.964 0 01-.848.078H282V184h.777zm.192 2.551l.846-.845-.856-.856-.845.85.855.851zm2.14.01l.845-.85-.856-.85-.845.845.856.856zm-7.675-9.015l.772-.772-.777-.777-.773.772.778.777zm-1.18 1.649l.846-.85-.856-.856-.845.85.856.856zm2.291.005l.845-.845-.855-.856-.846.845.856.856zm-7.44 8.26a6.48 6.48 0 001.54-.243c.469-.138.873-.354 1.212-.647a2.94 2.94 0 00.793-1.146c.19-.47.285-1.048.285-1.737.076.056.151.103.224.143a1.345 1.345 0 00.488.157c.092.012.199.018.32.018.296 0 .575-.055.838-.164.263-.11.498-.286.707-.53.073.112.16.21.258.295.1.085.204.157.313.217.11.059.22.104.332.135.111.032.214.047.307.047a1.545 1.545 0 00.94-.303c.132-.097.25-.212.352-.344a1.99 1.99 0 00.258-.443c.087.17.197.322.331.456a2.156 2.156 0 00.955.556c.18.049.361.073.545.073h.105v-1.023h-.105a.975.975 0 01-.519-.135 1.384 1.384 0 01-.388-.36 2.15 2.15 0 01-.28-.517 4.35 4.35 0 01-.182-.605 6.07 6.07 0 01-.107-.623c-.025-.207-.04-.4-.047-.577l-1.023.073c.007.118.019.268.034.449a6.732 6.732 0 01-.008 1.195 2.19 2.19 0 01-.125.555c-.062.165-.151.3-.266.405a.641.641 0 01-.449.156.487.487 0 01-.334-.115.782.782 0 01-.206-.305 1.794 1.794 0 01-.107-.433c-.02-.162-.03-.3-.03-.412v-.258c0-.112 0-.223.004-.334a27.6 27.6 0 00.016-.444l-1.06-.078-.017.543a5.914 5.914 0 01-.04.537c-.02.174-.05.338-.09.493-.04.155-.1.29-.18.404a.888.888 0 01-.306.274.95.95 0 01-.462.102c-.24 0-.437-.058-.592-.175a1.5 1.5 0 01-.394-.454 3.51 3.51 0 01-.279-.62 21.546 21.546 0 00-.35-.942l-.086-.235-.866.563c.115.3.218.6.31.9.093.301.16.589.202.864a5.188 5.188 0 01.057 1.002 4.328 4.328 0 01-.177.996c-.317.967-1.214 1.485-2.693 1.555h-.177c-.296 0-.553-.032-.772-.097a2.194 2.194 0 01-.569-.25 1.671 1.671 0 01-.399-.35 2.221 2.221 0 01-.26-.396 1.985 1.985 0 01-.152-.389 3.213 3.213 0 01-.07-.323 3.023 3.023 0 01-.027-.61c.01-.206.034-.41.07-.614a5.913 5.913 0 01.309-1.103c.06-.157.121-.293.182-.41.061-.116.114-.204.16-.263l-.83-.616c-.143.237-.28.5-.41.788-.13.289-.24.595-.329.92a4.918 4.918 0 00-.164.846 4.607 4.607 0 00.016 1.208c.062.424.187.802.373 1.135.186.332.422.614.71.847.286.233.614.41.983.533.369.121.767.182 1.195.182h.203z" mask="url(#e)"/><path fill="#44B6EE" d="M220.942 149.874l-3.326 3.326a.624.624 0 01-.884 0l-1.674-1.674a.625.625 0 11.884-.884l1.232 1.232 2.884-2.884a.625.625 0 11.884.884m4.293 2.284l-.316-.406a1.228 1.228 0 01-.001-1.519l.314-.406c.547-.703.204-1.713-.67-1.971l-.503-.15a1.275 1.275 0 01-.933-1.229l.007-.506c.012-.876-.885-1.5-1.75-1.217l-.499.163a1.352 1.352 0 01-1.506-.467l-.305-.413c-.528-.717-1.634-.715-2.161.001l-.303.414c-.338.46-.951.652-1.506.472l-.5-.163c-.866-.282-1.761.344-1.747 1.22l.008.507a1.278 1.278 0 01-.93 1.231l-.504.15c-.872.26-1.213 1.27-.666 1.973l.317.405c.352.45.353 1.069.002 1.52l-.315.405c-.547.704-.204 1.714.67 1.972l.503.15c.56.165.94.666.933 1.228l-.006.507c-.013.877.884 1.5 1.748 1.217l.5-.164a1.352 1.352 0 011.506.468l.306.414c.526.716 1.634.714 2.16-.002l.304-.415c.337-.46.95-.651 1.505-.47l.5.162c.866.282 1.76-.344 1.747-1.22l-.008-.507a1.275 1.275 0 01.93-1.23l.504-.151c.872-.26 1.214-1.271.665-1.973" mask="url(#e)"/><path fill="#000000" fill-opacity=".56" fill-rule="nonzero" d="M312.011 155.073c.378 0 .708-.053.992-.158.293-.106.536-.258.73-.457.196-.199.342-.439.44-.721.097-.282.145-.598.145-.947 0-.23-.021-.468-.064-.712a6.734 6.734 0 00-.164-.712 10.71 10.71 0 00-.752-1.899l-1.065.56a10.738 10.738 0 01.514 1.245c.088.257.163.52.226.788s.094.517.094.749c0 .178-.02.339-.06.48a.814.814 0 01-.199.354.668.668 0 01-.31.185 1.37 1.37 0 01-.35.046c-.07 0-.142-.004-.22-.012a.568.568 0 01-.307-.119.741.741 0 01-.2-.256 1.287 1.287 0 01-.11-.359 2.647 2.647 0 01-.034-.429c0-.166.013-.356.037-.569.024-.213.052-.414.082-.603.03-.188.058-.35.082-.484l.03-.194-1.168-.213a14.56 14.56 0 01-.1.587 8.363 8.363 0 01-.165.697c-.067.24-.148.475-.243.706a3.216 3.216 0 01-.335.621c-.128.183-.274.33-.438.444a.956.956 0 01-.557.17.643.643 0 01-.323-.072.545.545 0 01-.2-.195.852.852 0 01-.104-.277c-.02-.104-.03-.21-.03-.32 0-.158.016-.33.048-.514.033-.185.071-.365.116-.542a11.174 11.174 0 01.255-.873l-1.205-.256c-.04.199-.09.41-.146.633a6.81 6.81 0 01-.207.667 4.861 4.861 0 01-.286.636c-.11.203-.238.382-.387.539a1.812 1.812 0 01-.508.377c-.19.095-.406.143-.645.143h-.134V155h.128c.235 0 .451-.02.648-.058a2.366 2.366 0 00.99-.432c.137-.103.267-.22.389-.35.065.15.157.282.277.396.12.113.252.209.399.286.146.077.299.135.46.173a1.989 1.989 0 001.445-.192c.308-.166.584-.391.828-.675.085.13.188.25.31.362.122.112.254.209.396.292.142.083.29.15.447.198.156.049.311.073.466.073h.042zm-9.142 3.932l.76-.925a1.506 1.506 0 01-.389-.584 1.813 1.813 0 01-.103-.585 1.935 1.935 0 01.173-.77c.095-.213.22-.402.374-.569a1.92 1.92 0 01.533-.405c.2-.103.415-.159.642-.167h.17v-1.193h-.121c-.236 0-.47.035-.703.106a3.138 3.138 0 00-1.738 1.33 2.39 2.39 0 00-.36 1.425 1.43 1.43 0 01-.374-.338 4.072 4.072 0 01-.331-.478 5.661 5.661 0 01-.271-.511 11.49 11.49 0 01-.192-.432c.272-.045.532-.117.78-.216.247-.1.476-.226.687-.378a2.902 2.902 0 00.98-1.238c.073-.175.117-.35.131-.527.014-.177.021-.32.021-.43 0-.15-.008-.306-.024-.468a4.61 4.61 0 00-.174-.812 2.974 2.974 0 00-.325-.722 1.702 1.702 0 00-.466-.499 1.012 1.012 0 00-.587-.182h-.061c-.276.012-.53.095-.761.25a2.56 2.56 0 00-.624.599 4.15 4.15 0 00-.48.834c-.137.31-.25.624-.339.943-.089.319-.15.613-.185.883s-.052.5-.052.69c0 .061.002.118.006.171h-.98V155h1.205l.055.152a6.811 6.811 0 001.084 2.04c.255.332.551.653.888.961.337.308.72.593 1.15.852zm-2.015-5.259c-.061 0-.124-.004-.189-.012a2.17 2.17 0 01-.018-.292c0-.09.004-.183.012-.28.02-.211.058-.426.113-.645.055-.22.122-.435.204-.646.08-.21.172-.4.274-.569.101-.168.208-.306.32-.414a.585.585 0 01.337-.18c.183.135.315.307.399.518.083.211.123.434.121.67a2.064 2.064 0 01-.13.7 2.05 2.05 0 01-.357.617c-.152.181-.322.315-.51.402-.19.087-.381.131-.576.131zm-7.432 5.746a11.123 11.123 0 001.491-.9 7.948 7.948 0 001.287-1.142c.376-.416.677-.865.904-1.348.228-.483.341-.99.341-1.522v-.024c.102.11.208.194.32.255a1.475 1.475 0 00.624.183c.089.004.162.006.219.006h.103v-1.193h-.097c-.203 0-.389-.049-.557-.146a1.645 1.645 0 01-.484-.46 4.3 4.3 0 01-.45-.81c-.146-.33-.297-.73-.45-1.201l-1.145.353c.049.15.107.337.176.563.07.225.138.465.207.721.07.256.133.516.192.782s.103.514.13.746a2.272 2.272 0 01-.067.822 3.158 3.158 0 01-.33.785c-.149.251-.33.492-.546.721-.215.23-.45.447-.706.654a8.3 8.3 0 01-.815.582c-.288.18-.579.346-.87.496l.523 1.077zm-.719-4.437a28.5 28.5 0 00.1-1.905c.011-.597.016-1.074.016-1.43 0-.593-.006-1.226-.018-1.9a55.636 55.636 0 00-.31-4.431l-1.194.182c.138 1.279.248 2.902.33 4.87.011.337.017.694.017 1.071 0 .313-.004.64-.012.98-.02.755-.063 1.587-.128 2.496l1.2.067zm-8.418-.055a12.11 12.11 0 001.637-.128 13.122 13.122 0 001.802-.392c.28-.084.542-.176.786-.277.243-.102.456-.21.639-.323.19-.122.338-.242.441-.362a.971.971 0 00.207-.356 1.21 1.21 0 00.046-.475 4.335 4.335 0 00-.098-.554 5.691 5.691 0 00-.301-.922 11.282 11.282 0 00-.38-.816 8.8 8.8 0 00-.332-.59 7.712 7.712 0 01-.155-.253l-1.01.658a7.255 7.255 0 01.29.46c.077.135.164.291.257.468.093.176.182.362.265.557.083.195.156.392.219.593.063.201.102.393.119.575-.341.191-.71.346-1.105.466a9.93 9.93 0 01-1.196.283c-.402.07-.796.117-1.181.143-.386.027-.739.04-1.06.04-1.136-.004-2.059-.113-2.769-.326-.71-.213-1.165-.518-1.363-.916a1.194 1.194 0 01-.122-.542c0-.223.049-.468.146-.736a2.35 2.35 0 01.183-.417 4.831 4.831 0 01.213-.35l-.968-.718-.067.1a4.867 4.867 0 00-.301.533 5.538 5.538 0 00-.174.401c-.158.418-.237.82-.237 1.206 0 .385.085.742.255 1.07.3.606.869 1.07 1.705 1.395.88.324 2.047.493 3.5.505h.11zm-.134 3.171l.992-.992-.998-.998-.992.992.998.998zm-13.251-3.098c.377 0 .708-.053.992-.158.292-.106.536-.258.73-.457.195-.199.341-.439.439-.721.097-.282.146-.598.146-.947 0-.23-.021-.468-.064-.712a6.734 6.734 0 00-.164-.712 10.71 10.71 0 00-.752-1.899l-1.065.56a10.738 10.738 0 01.514 1.245c.087.257.162.52.225.788s.095.517.095.749c0 .178-.02.339-.061.48a.814.814 0 01-.198.354.668.668 0 01-.31.185 1.37 1.37 0 01-.35.046c-.07 0-.143-.004-.22-.012a.568.568 0 01-.307-.119.741.741 0 01-.2-.256 1.287 1.287 0 01-.11-.359 2.647 2.647 0 01-.034-.429c0-.166.012-.356.037-.569.024-.213.051-.414.082-.603.03-.188.058-.35.082-.484l.03-.194-1.168-.213a14.56 14.56 0 01-.1.587 8.363 8.363 0 01-.165.697c-.067.24-.148.475-.244.706a3.216 3.216 0 01-.334.621c-.128.183-.274.33-.439.444a.956.956 0 01-.557.17.643.643 0 01-.322-.072.545.545 0 01-.201-.195.852.852 0 01-.104-.277c-.02-.104-.03-.21-.03-.32 0-.158.016-.33.049-.514.032-.185.07-.365.115-.542a11.174 11.174 0 01.256-.873l-1.205-.256c-.04.199-.09.41-.146.633a6.81 6.81 0 01-.207.667 4.861 4.861 0 01-.286.636c-.11.203-.239.382-.387.539a1.812 1.812 0 01-.508.377c-.19.095-.406.143-.645.143h-.134V155h.128c.235 0 .451-.02.648-.058a2.366 2.366 0 00.99-.432c.137-.103.267-.22.389-.35.064.15.157.282.277.396.12.113.252.209.398.286.146.077.3.135.46.173a1.989 1.989 0 001.445-.192c.309-.166.585-.391.828-.675.085.13.189.25.31.362.122.112.254.209.396.292.142.083.292.15.448.198.156.049.311.073.465.073h.043zM259.396 155c.381 0 .713-.015.995-.046.282-.03.528-.077.74-.14a2.273 2.273 0 00.973-.569c.175.223.398.405.67.545s.613.21 1.023.21h.121v-1.193h-.121a.86.86 0 01-.509-.14.999.999 0 01-.31-.353 1.667 1.667 0 01-.161-.463 4.299 4.299 0 01-.067-.474 18.669 18.669 0 00-.11-1.054 5.718 5.718 0 00-.177-.827l-1.144.322c.09.309.151.583.186.822.034.24.052.475.052.706 0 .244-.041.457-.122.64a1.1 1.1 0 01-.38.456 1.85 1.85 0 01-.67.274c-.274.06-.604.091-.99.091h-.906V155h.907zm2.848 3.171l.999-.998-.986-.986-.999.998.986.986zm-2.66.012l.999-.998-.986-.992-.999.998.986.992zm1.358 1.741l.907-.907-.901-.9-.907.906.9.901zm-4.37-.919l.76-.925a1.506 1.506 0 01-.39-.584 1.813 1.813 0 01-.103-.585 1.935 1.935 0 01.173-.77c.096-.213.22-.402.375-.569a1.92 1.92 0 01.533-.405c.2-.103.414-.159.642-.167h.17v-1.193h-.122c-.235 0-.47.035-.703.106a3.138 3.138 0 00-1.737 1.33 2.39 2.39 0 00-.36 1.425 1.43 1.43 0 01-.374-.338 4.072 4.072 0 01-.332-.478 5.662 5.662 0 01-.27-.511c-.08-.17-.144-.315-.192-.432.272-.045.531-.117.779-.216.247-.1.477-.226.688-.378a2.902 2.902 0 00.98-1.238c.073-.175.116-.35.13-.527.015-.177.022-.32.022-.43 0-.15-.008-.306-.024-.468a4.61 4.61 0 00-.174-.812 2.974 2.974 0 00-.326-.722 1.702 1.702 0 00-.465-.499 1.012 1.012 0 00-.588-.182h-.06c-.276.012-.53.095-.761.25a2.56 2.56 0 00-.624.599 4.15 4.15 0 00-.481.834c-.136.31-.249.624-.338.943-.09.319-.151.613-.186.883-.034.27-.051.5-.051.69 0 .061.002.118.006.171h-.98V155h1.205l.055.152a6.811 6.811 0 001.083 2.04c.256.332.552.653.889.961.337.308.72.593 1.15.852zm-2.015-5.259c-.061 0-.124-.004-.19-.012a2.17 2.17 0 01-.017-.292c0-.09.004-.183.012-.28.02-.211.058-.426.112-.645.055-.22.123-.435.204-.646.081-.21.173-.4.274-.569.102-.168.208-.306.32-.414a.585.585 0 01.338-.18c.182.135.315.307.398.518.083.211.124.434.122.67a2.064 2.064 0 01-.13.7 2.05 2.05 0 01-.357.617c-.152.181-.323.315-.511.402-.189.087-.38.131-.575.131zm-7.433 5.746a11.123 11.123 0 001.492-.9 7.948 7.948 0 001.287-1.142c.375-.416.677-.865.904-1.348.227-.483.34-.99.34-1.522v-.024c.102.11.209.194.32.255a1.475 1.475 0 00.624.183c.09.004.163.006.22.006h.103v-1.193h-.097c-.203 0-.389-.049-.557-.146a1.645 1.645 0 01-.484-.46 4.3 4.3 0 01-.45-.81c-.147-.33-.297-.73-.451-1.201l-1.145.353c.05.15.108.337.177.563.069.225.138.465.207.721.069.256.133.516.192.782.058.266.102.514.13.746a2.272 2.272 0 01-.067.822 3.158 3.158 0 01-.331.785c-.148.251-.33.492-.545.721-.215.23-.45.447-.706.654a8.3 8.3 0 01-.816.582c-.288.18-.578.346-.87.496l.523 1.077zm-5.794-.213c.67 0 1.285-.058 1.847-.173a5.922 5.922 0 001.519-.52c.474-.236.853-.52 1.135-.85.282-.33.46-.697.532-1.099.029-.158.043-.302.043-.432 0-.134-.014-.253-.043-.359a1.29 1.29 0 00-.736-.873 3.74 3.74 0 00-.581-.22 9.251 9.251 0 00-.621-.155 5.114 5.114 0 01-.582-.158 1.879 1.879 0 01-.465-.228.724.724 0 01-.277-.356 1.06 1.06 0 01-.043-.56c.029-.2.09-.396.186-.59.095-.196.217-.383.365-.564.148-.18.309-.34.481-.48.172-.14.35-.256.533-.348.182-.091.359-.145.53-.161a2.23 2.23 0 01.425-.043h.092c.162.013.306.032.432.058.126.027.227.054.304.082l.11.05.53-1.115a8.352 8.352 0 01-.199-.079 3.164 3.164 0 00-.471-.14 3.36 3.36 0 00-.524-.082 3.199 3.199 0 00-.956.052 3.624 3.624 0 00-.906.328c-.289.15-.553.332-.795.545a4.086 4.086 0 00-.642.718 3.881 3.881 0 00-.45.843 3.095 3.095 0 00-.204.77 5.275 5.275 0 00-.034.503c0 .203.02.407.061.614.061.305.184.55.368.737.185.187.398.338.64.453.24.116.494.206.757.271.264.065.506.127.725.186a2.5 2.5 0 01.526.195c.132.07.198.165.198.283v.03c-.02.207-.122.407-.304.6-.183.192-.438.365-.764.517a5.203 5.203 0 01-1.184.365 8.082 8.082 0 01-1.558.137c-.589 0-1.098-.073-1.528-.219-.43-.146-.773-.365-1.029-.657a1.812 1.812 0 01-.313-.484 2.437 2.437 0 01-.21-.995v-.049c0-.17.01-.329.03-.475a12.05 12.05 0 01.353-1.735c.158-.56.329-1.126.511-1.698l-1.162-.408a2.872 2.872 0 00-.07.195 35.17 35.17 0 00-.34 1.093 19.3 19.3 0 00-.394 1.588c-.057.282-.101.555-.134.82a5.158 5.158 0 00-.036.602c0 .373.044.722.134 1.047.134.503.367.945.7 1.327.381.426.865.748 1.451.967.587.22 1.266.33 2.037.33z" mask="url(#e)"/><path fill="#000000" fill-opacity=".12" mask="url(#e)" d="M16 201h343v1H16zM16 274h343v1H16zM16 347h343v1H16z"/><path fill="#000000" fill-opacity=".56" d="M40.41 221.75a.836.836 0 00-1.182 0L36 224.98l-3.228-3.228a.836.836 0 10-1.183 1.182l3.82 3.82a.834.834 0 001.183 0l3.819-3.82a.834.834 0 000-1.182m295.089 3.082a4.171 4.171 0 014.167 4.167c0 1.378-1.122 2.5-2.5 2.5h-8.334a2.503 2.503 0 01-2.5-2.5 4.171 4.171 0 014.167-4.167zm0 1.667h-5a2.503 2.503 0 00-2.5 2.5c0 .46.373.833.833.833h8.334c.46 0 .833-.374.833-.833 0-1.378-1.122-2.5-2.5-2.5zm-2.5-10a3.337 3.337 0 013.333 3.333 3.337 3.337 0 01-3.333 3.334 3.337 3.337 0 01-3.333-3.334A3.337 3.337 0 01333 216.5zm0 1.667c-.92 0-1.667.747-1.667 1.666 0 .92.748 1.667 1.667 1.667.92 0 1.667-.748 1.667-1.667s-.748-1.666-1.667-1.666z" mask="url(#e)"/><path fill="#000000" fill-opacity=".32" fill-rule="nonzero" d="M314.395 257.136c0-.303-.003-.621-.008-.955a34.52 34.52 0 00-.094-2.061 19.53 19.53 0 00-.102-1.012c-.1-.765-.246-1.446-.435-2.043a6.903 6.903 0 00-.713-1.578l-.866.553c.261.41.47.883.624 1.42.155.535.274 1.11.357 1.726.084.616.138 1.258.162 1.928.024.67.037 1.343.037 2.022h1.038zm-10.555 3.6c.292-.143.58-.304.863-.483.284-.18.554-.375.81-.587.255-.212.491-.438.709-.678.217-.24.405-.492.563-.757.158-.264.282-.538.37-.821a2.927 2.927 0 00.097-1.35 7.462 7.462 0 00-.091-.487 14.851 14.851 0 00-.12-.5 71.534 71.534 0 01-.128-.504 7.76 7.76 0 00-.13-.478c-.05-.158-.098-.319-.146-.482l-.992.313a28.013 28.013 0 01.386 1.315c.042.15.08.299.115.448.035.15.064.296.086.438.023.143.034.279.034.407 0 .338-.082.665-.245.981-.164.317-.38.616-.65.898a5.97 5.97 0 01-.92.78c-.345.238-.7.448-1.065.628l.454.919zm-4.763-.073c.358-.056.71-.142 1.053-.259.345-.116.673-.26.984-.433.311-.172.602-.373.871-.602.27-.23.507-.486.712-.767.206-.282.374-.589.506-.921.133-.332.218-.69.256-1.072a4.831 4.831 0 00.005-.95 5.169 5.169 0 00-.172-.913 4.328 4.328 0 00-.326-.822 3.207 3.207 0 00-.467-.675c-.414-.446-.868-.668-1.362-.668-.222 0-.437.056-.644.17-.207.112-.4.279-.576.498a2.901 2.901 0 00-.381.67c-.108.26-.177.49-.206.694-.03.204-.045.371-.045.504 0 .139.012.278.037.417.041.264.142.497.302.699.362.449.92.696 1.675.74.191.018.363.027.514.027h.592c-.038.26-.145.526-.32.796-.176.27-.415.524-.718.764a5.16 5.16 0 01-1.09.647c-.425.191-.905.34-1.44.449l.24 1.007zm2.865-4.697l-.085.001c-.153 0-.316-.005-.49-.016a2.63 2.63 0 01-.222-.023 1.854 1.854 0 01-.26-.058 1.226 1.226 0 01-.251-.104.614.614 0 01-.196-.17.489.489 0 01-.107-.247 1.826 1.826 0 01-.018-.232 2.37 2.37 0 01.295-1.09c.071-.123.152-.223.242-.3a.433.433 0 01.287-.118c.063 0 .122.01.178.031.055.02.108.048.159.08.05.034.097.07.14.11.044.04.083.078.118.113.087.1.171.22.253.357.082.137.156.291.222.462.066.17.12.355.162.553.041.198.068.408.078.631a6.1 6.1 0 01-.505.02zm-5.302-3.646l.85-.85-.855-.856-.85.85.855.856zm-2.28 8.416c.292-.143.58-.304.863-.483.284-.18.554-.375.81-.587.255-.212.491-.438.709-.678.217-.24.405-.492.563-.757.158-.264.282-.538.37-.821a2.927 2.927 0 00.097-1.35 7.462 7.462 0 00-.091-.487 14.851 14.851 0 00-.12-.5 71.534 71.534 0 01-.128-.504 7.76 7.76 0 00-.13-.478c-.05-.158-.098-.319-.146-.482l-.992.313a28.013 28.013 0 01.386 1.315c.042.15.08.299.115.448.035.15.064.296.086.438.023.143.034.279.034.407 0 .338-.082.665-.245.981-.164.317-.38.616-.65.898a5.97 5.97 0 01-.92.78c-.345.238-.7.448-1.065.628l.454.919zM287.677 257c.285 0 .56-.02.826-.057.267-.039.51-.105.734-.199.222-.094.42-.219.592-.375.172-.157.31-.353.414-.59.105-.24.157-.518.157-.835 0-.055-.002-.111-.005-.167a5.826 5.826 0 00-.272-1.335 6.775 6.775 0 00-.166-.483 10.547 10.547 0 00-.287-.673 1.284 1.284 0 01-.047-.107l-.93.46.455 1.116a3.393 3.393 0 01.235.89c.007.092.01.16.01.205 0 .084-.005.162-.016.235a1.012 1.012 0 01-.078.277.817.817 0 01-.292.341c-.125.082-.27.144-.433.186-.164.041-.341.067-.532.075a12.99 12.99 0 01-.59.013h-1.007V257h1.232zm1.987 2.718l.856-.855-.845-.846-.856.856.845.845zm-2.28.01l.856-.855-.845-.85-.856.855.845.85zm1.164 1.493l.777-.778-.772-.772-.777.778.772.772zm-5.77-4.221c.326 0 .61-.013.852-.04.242-.025.453-.065.634-.12a1.948 1.948 0 00.835-.487c.15.191.341.347.574.467.233.12.525.18.877.18h.104v-1.023h-.104a.737.737 0 01-.436-.12.856.856 0 01-.266-.302 1.429 1.429 0 01-.138-.397 3.685 3.685 0 01-.058-.407 16.003 16.003 0 00-.094-.902 4.9 4.9 0 00-.151-.71l-.98.277c.076.264.129.499.158.704.03.205.045.407.045.605 0 .209-.035.392-.105.548a.942.942 0 01-.326.391c-.148.105-.339.183-.574.235a3.964 3.964 0 01-.848.078H282V257h.777zm.192 2.551l.846-.845-.856-.856-.845.85.855.851zm2.14.01l.845-.85-.856-.85-.845.845.856.856zm-7.675-9.015l.772-.772-.777-.777-.773.772.778.777zm-1.18 1.649l.846-.85-.856-.856-.845.85.856.856zm2.291.005l.845-.845-.855-.856-.846.845.856.856zm-7.44 8.26a6.48 6.48 0 001.54-.243c.469-.138.873-.354 1.212-.647a2.94 2.94 0 00.793-1.146c.19-.47.285-1.048.285-1.737.076.056.151.103.224.143a1.345 1.345 0 00.488.157c.092.012.199.018.32.018.296 0 .575-.055.838-.164.263-.11.498-.286.707-.53.073.112.16.21.258.295.1.085.204.157.313.217.11.059.22.104.332.135.111.032.214.047.307.047a1.545 1.545 0 00.94-.303c.132-.097.25-.212.352-.344a1.99 1.99 0 00.258-.443c.087.17.197.322.331.456a2.156 2.156 0 00.955.556c.18.049.361.073.545.073h.105v-1.023h-.105a.975.975 0 01-.519-.135 1.384 1.384 0 01-.388-.36 2.15 2.15 0 01-.28-.517 4.35 4.35 0 01-.182-.605 6.07 6.07 0 01-.107-.623c-.025-.207-.04-.4-.047-.577l-1.023.073c.007.118.019.268.034.449a6.732 6.732 0 01-.008 1.195 2.19 2.19 0 01-.125.555c-.062.165-.151.3-.266.405a.641.641 0 01-.449.156.487.487 0 01-.334-.115.782.782 0 01-.206-.305 1.794 1.794 0 01-.107-.433c-.02-.162-.03-.3-.03-.412v-.258c0-.112 0-.223.004-.334a27.6 27.6 0 00.016-.444l-1.06-.078-.017.543a5.914 5.914 0 01-.04.537c-.02.174-.05.338-.09.493-.04.155-.1.29-.18.404a.888.888 0 01-.306.274.95.95 0 01-.462.102c-.24 0-.437-.058-.592-.175a1.5 1.5 0 01-.394-.454 3.51 3.51 0 01-.279-.62 21.546 21.546 0 00-.35-.942l-.086-.235-.866.563c.115.3.218.6.31.9.093.301.16.589.202.864a5.188 5.188 0 01.057 1.002 4.328 4.328 0 01-.177.996c-.317.967-1.214 1.485-2.693 1.555h-.177c-.296 0-.553-.032-.772-.097a2.194 2.194 0 01-.569-.25 1.671 1.671 0 01-.399-.35 2.221 2.221 0 01-.26-.396 1.985 1.985 0 01-.152-.389 3.213 3.213 0 01-.07-.323 3.023 3.023 0 01-.027-.61c.01-.206.034-.41.07-.614a5.913 5.913 0 01.309-1.103c.06-.157.121-.293.182-.41.061-.116.114-.204.16-.263l-.83-.616c-.143.237-.28.5-.41.788-.13.289-.24.595-.329.92a4.918 4.918 0 00-.164.846 4.607 4.607 0 00.016 1.208c.062.424.187.802.373 1.135.186.332.422.614.71.847.286.233.614.41.983.533.369.121.767.182 1.195.182h.203z" mask="url(#e)"/><path fill="#000000" fill-opacity=".56" fill-rule="nonzero" d="M311.342 221.286l.986-.986-.998-.998-.987.992.999.992zm2.495.012l.986-.992-.998-.992-.986.986.998.998zM311.183 228c.333 0 .655-.022.965-.067.31-.045.596-.122.855-.231.26-.11.49-.256.691-.439.201-.182.363-.411.484-.687.122-.28.183-.605.183-.974 0-.065-.002-.13-.006-.195-.029-.45-.134-.97-.317-1.558a7.904 7.904 0 00-.195-.563 12.302 12.302 0 00-.334-.786 1.499 1.499 0 01-.055-.124l-1.084.535.53 1.303a3.959 3.959 0 01.274 1.038c.008.107.012.187.012.24 0 .098-.006.189-.018.274-.02.13-.05.237-.091.323a.953.953 0 01-.341.398 1.674 1.674 0 01-.506.216c-.19.05-.397.079-.62.089-.224.01-.453.015-.688.015h-1.175V228h1.436zm-6.908 4.273a7.459 7.459 0 001.72-.487 6.291 6.291 0 001.509-.889 5.424 5.424 0 001.156-1.269 4.598 4.598 0 00.66-1.628h.67v-1.193h-.578a5.794 5.794 0 00-.329-1.768 4.675 4.675 0 00-.353-.77 3.846 3.846 0 00-.462-.646c-.483-.519-1.013-.779-1.589-.779-.26 0-.51.066-.752.198a2.284 2.284 0 00-.672.581c-.17.22-.319.48-.445.783a3.435 3.435 0 00-.24.81 4.237 4.237 0 00-.052.587c0 .162.014.324.043.487.049.308.166.58.353.815.422.524 1.073.812 1.954.865.223.02.423.03.6.03h.69c-.044.304-.17.614-.374.928a3.805 3.805 0 01-.837.892c-.353.28-.777.532-1.272.755a7.854 7.854 0 01-1.68.523l.28 1.175zm3.342-5.479h-.098c-.178 0-.37-.005-.572-.017a3.068 3.068 0 01-.259-.028c-.1-.014-.2-.036-.304-.067a1.43 1.43 0 01-.292-.122.716.716 0 01-.229-.197.57.57 0 01-.124-.29 2.13 2.13 0 01-.022-.27 2.765 2.765 0 01.344-1.272c.083-.143.178-.26.283-.35a.505.505 0 01.335-.138c.073 0 .142.013.207.037a.94.94 0 01.186.094c.059.039.113.082.164.128.05.047.096.09.137.131.101.118.2.257.295.417.096.16.182.34.259.539.077.199.14.414.189.645.048.231.079.477.091.736a7.117 7.117 0 01-.59.024zm-8.85 5.564c.34-.166.676-.354 1.006-.563.331-.209.646-.437.944-.685a8.06 8.06 0 00.828-.79c.253-.28.473-.575.657-.883.185-.309.329-.628.432-.96.104-.33.156-.672.156-1.025a3.64 3.64 0 00-.043-.548 8.705 8.705 0 00-.107-.569c-.042-.193-.089-.387-.14-.584l-.149-.588a9.052 9.052 0 00-.152-.556 65.409 65.409 0 01-.17-.564l-1.157.366c.11.34.213.681.31 1.022l.14.512c.05.174.094.349.135.523.04.175.074.345.1.511.026.167.04.325.04.475 0 .394-.096.775-.287 1.145a4.51 4.51 0 01-.757 1.046 6.964 6.964 0 01-1.075.91 9.912 9.912 0 01-1.241.734l.53 1.071zm-.683-4.303a28.5 28.5 0 00.1-1.905c.01-.597.016-1.074.016-1.43 0-.593-.006-1.226-.018-1.9a55.636 55.636 0 00-.31-4.431l-1.194.182c.138 1.279.248 2.902.329 4.87.012.337.018.694.018 1.071 0 .313-.004.64-.012.98-.02.755-.063 1.587-.128 2.496l1.2.067zm-7.255-2.995l.992-.992-.998-.998-.993.992.999.998zm-.268 7.122c.499 0 .973-.053 1.421-.159a4.386 4.386 0 001.227-.483c.369-.218.693-.492.97-.825.279-.333.495-.729.649-1.187.146-.438.225-.788.237-1.05.012-.262.018-.437.018-.527a6.278 6.278 0 00-.343-2.066 9.757 9.757 0 00-.347-.889 6.902 6.902 0 00-.46-.867l-1.01.645a.39.39 0 01.043.065l.07.114c.07.12.152.285.246.494.093.209.187.454.283.736a5.788 5.788 0 01.301 1.854v.073a3.791 3.791 0 01-.176 1.053c-.09.284-.224.538-.402.764-.179.225-.4.415-.664.572-.263.156-.57.275-.919.356a5.17 5.17 0 01-1.168.122c-.345 0-.653-.038-.923-.113a2.885 2.885 0 01-.706-.292c-.2-.12-.372-.255-.514-.405a2.65 2.65 0 01-.353-.46 2.218 2.218 0 01-.21-.45 2.4 2.4 0 01-.094-.38 3.57 3.57 0 01-.03-.719c.011-.243.039-.483.081-.718.043-.235.097-.462.162-.679.064-.217.132-.417.203-.6a5.35 5.35 0 01.21-.477c.07-.136.13-.24.183-.314l-.968-.712a8.651 8.651 0 00-.478.922c-.152.34-.28.697-.383 1.075a5.673 5.673 0 00-.192.983 5.375 5.375 0 00.018 1.41c.082.53.239.993.472 1.387.234.393.527.72.88.977s.756.45 1.208.578c.453.128.938.192 1.458.192zM274.51 228c.247 0 .48-.012.7-.037a2.77 2.77 0 00.62-.14 2.05 2.05 0 00.551-.298 2.48 2.48 0 00.496-.517c.187.138.39.273.61.405.218.131.446.243.684.334a2.63 2.63 0 00.983.198c.166 0 .333-.022.499-.067.264-.073.487-.204.67-.392.182-.189.326-.41.432-.664.105-.253.17-.486.195-.697.024-.21.036-.381.036-.511 0-.146-.01-.288-.03-.426a3.683 3.683 0 00-.216-.804 2.506 2.506 0 00-.417-.706 2.058 2.058 0 00-.63-.502 1.813 1.813 0 00-.85-.192c-.267 0-.502.054-.703.162-.2.107-.379.247-.535.42a3.21 3.21 0 00-.42.59c-.124.221-.24.445-.35.673-.126.251-.25.496-.375.733-.123.238-.27.449-.438.633a1.908 1.908 0 01-.612.445c-.239.111-.54.167-.9.167h-.122V228h.122zm4.626-1.266c-.163 0-.345-.04-.548-.122a4.697 4.697 0 01-1.01-.59l.328-.664c.102-.199.192-.371.271-.517.08-.146.154-.268.225-.365a.862.862 0 01.213-.216.408.408 0 01.228-.07c.122 0 .23.024.323.073.093.048.175.11.244.185s.127.159.176.25a1.98 1.98 0 01.189.496c.016.069.026.118.03.146.016.11.025.215.025.317a1.822 1.822 0 01-.113.615 1.035 1.035 0 01-.167.298.389.389 0 01-.201.14.878.878 0 01-.213.024zM270.109 228c.381 0 .713-.015.995-.046.282-.03.528-.077.74-.14a2.273 2.273 0 00.973-.569c.175.223.398.405.67.545s.613.21 1.023.21h.121v-1.193h-.121a.86.86 0 01-.509-.14.999.999 0 01-.31-.353 1.667 1.667 0 01-.161-.463 4.299 4.299 0 01-.067-.474 18.672 18.672 0 00-.11-1.054 5.717 5.717 0 00-.176-.827l-1.145.322c.09.309.151.583.186.822.034.24.052.475.052.706 0 .244-.041.457-.122.64a1.1 1.1 0 01-.38.456 1.85 1.85 0 01-.67.274c-.274.06-.604.091-.99.091h-.906V228h.907zm.225 2.977l.986-.987-.998-.998-.986.992.998.993zm2.496.012l.986-.992-.999-.993-.986.986.999.999zm-8.693 1.503a11.123 11.123 0 001.492-.9 7.948 7.948 0 001.287-1.142c.375-.416.677-.865.904-1.348.227-.483.34-.99.34-1.522v-.024c.102.11.209.194.32.255a1.475 1.475 0 00.624.183c.09.004.163.006.22.006h.103v-1.193h-.097c-.203 0-.389-.049-.557-.146a1.645 1.645 0 01-.484-.46 4.3 4.3 0 01-.45-.81c-.147-.33-.297-.73-.451-1.201l-1.145.353c.05.15.108.337.177.563.069.225.138.465.207.721.069.256.133.516.192.782s.102.514.13.746a2.272 2.272 0 01-.067.822 3.158 3.158 0 01-.331.785c-.148.251-.33.492-.545.721-.215.23-.45.447-.706.654a8.3 8.3 0 01-.816.582c-.288.18-.578.346-.87.496l.523 1.077zm-3.567-4.474c.142 0 .299-.006.47-.018a4.765 4.765 0 00.991-.18c.155-.046.288-.104.402-.173.426-.227.744-.512.953-.855.209-.343.313-.715.313-1.117 0-.536-.187-1.063-.56-1.583a2.562 2.562 0 00-.53-.511 6.994 6.994 0 00-.788-.505 16.58 16.58 0 00-.974-.5 43.876 43.876 0 00-1.092-.499l-2.118-.87-.579 1.096.481.188a2.183 2.183 0 00-.627.448 2.77 2.77 0 00-.435.584 2.72 2.72 0 00-.338 1.293c0 .297.076.604.228.923.153.318.38.642.685.97a9.349 9.349 0 01-.773.074c-.15.008-.317.014-.502.018-.185.004-.399.006-.642.006h-.165V228h.165c.288 0 .586-.006.895-.018.308-.012.61-.032.907-.058.296-.026.579-.062.849-.107.27-.044.512-.099.727-.164.345.138.685.233 1.02.286.334.053.68.08 1.037.08zm-2.118-1.668a4.14 4.14 0 01-.438-.331 2.566 2.566 0 01-.362-.384 1.819 1.819 0 01-.247-.435 1.314 1.314 0 01-.091-.487c0-.183.038-.373.116-.572.077-.199.183-.378.32-.536.135-.158.28-.274.434-.347.155-.073.3-.11.439-.11.073 0 .148.009.225.025a.903.903 0 01.423.198c.107.095.19.205.25.329.058.123.097.253.115.39.018.135.027.264.027.386a2.093 2.093 0 01-.673 1.522c-.151.141-.33.26-.538.352zm2.003.5a3.13 3.13 0 01-.56-.043c.154-.162.294-.34.42-.536.126-.194.232-.392.32-.593.087-.201.155-.4.203-.6.049-.199.073-.383.073-.554 0-.121-.002-.251-.006-.39a1.766 1.766 0 00-.073-.437c.288.133.54.282.755.444.215.162.395.328.539.496.144.168.252.336.325.502.073.167.11.32.11.463 0 .166-.038.325-.113.478a1.043 1.043 0 01-.365.398 2.063 2.063 0 01-.654.271 4.07 4.07 0 01-.974.1zm-5.241 1.15v-1.193h-.122c-.255 0-.476-.026-.66-.08a.95.95 0 01-.417-.218.507.507 0 01-.162-.314 3.288 3.288 0 01-.02-.386v-3.056a42.487 42.487 0 00-.126-3.208 9.022 9.022 0 00-.094-.76l-1.193.218c.037.191.068.436.094.734.027.298.049.624.067.977.019.353.032.718.04 1.096.008.377.012.74.012 1.09a89.654 89.654 0 010 1.88 185.216 185.216 0 00-.012.907c0 .097.002.214.006.35a2.35 2.35 0 00.216.886c.071.154.174.298.307.432.22.219.486.381.8.487.315.105.696.158 1.142.158h.122zm-7.463-.006c.244 0 .488-.018.734-.055.245-.036.482-.095.709-.176a3.04 3.04 0 00.636-.314c.197-.128.368-.28.514-.46a1.474 1.474 0 00.317-.645c.032-.142.05-.304.052-.487a2.812 2.812 0 00-.07-.614 4.424 4.424 0 00-.277-.795 6.44 6.44 0 00-.445-.815 8.06 8.06 0 00-1.232-1.495 6.963 6.963 0 00-.71-.59 4.27 4.27 0 00-.72-.426l-.494 1.108c.183.08.37.19.56.328.19.138.379.296.563.475.185.179.362.37.533.575.17.205.326.416.466.633.14.217.26.435.359.652.1.217.171.425.216.624.032.146.048.271.048.377 0 .146-.03.256-.09.329-.139.166-.31.29-.512.37a1.959 1.959 0 01-.548.144 3.497 3.497 0 01-.84-.01 5.173 5.173 0 01-1.418-.386 3.7 3.7 0 01-.542-.283l-.5 1.145c.102.093.263.186.482.28a7.376 7.376 0 001.519.441c.265.047.496.07.69.07zm-9.331 4.285c.67 0 1.285-.058 1.847-.173a5.922 5.922 0 001.52-.52c.474-.236.852-.52 1.134-.85.282-.33.46-.697.533-1.099.028-.158.043-.302.043-.432 0-.134-.015-.253-.043-.359a1.29 1.29 0 00-.737-.873 3.74 3.74 0 00-.58-.22 9.251 9.251 0 00-.622-.155 5.114 5.114 0 01-.581-.158 1.879 1.879 0 01-.466-.228.724.724 0 01-.277-.356 1.06 1.06 0 01-.042-.56c.028-.2.09-.396.185-.59.096-.196.217-.383.366-.564.148-.18.308-.34.48-.48.173-.14.35-.256.533-.348.183-.091.36-.145.53-.161a2.23 2.23 0 01.426-.043h.091c.162.013.306.032.432.058.126.027.227.054.305.082l.11.05.529-1.115a8.352 8.352 0 01-.198-.079 3.164 3.164 0 00-.472-.14 3.36 3.36 0 00-.523-.082 3.199 3.199 0 00-.956.052 3.624 3.624 0 00-.907.328c-.288.15-.553.332-.794.545a4.086 4.086 0 00-.643.718 3.881 3.881 0 00-.45.843 3.095 3.095 0 00-.204.77 5.275 5.275 0 00-.033.503c0 .203.02.407.06.614.061.305.184.55.369.737.184.187.397.338.639.453.241.116.494.206.758.271.264.065.505.127.724.186a2.5 2.5 0 01.527.195c.131.07.197.165.197.283v.03c-.02.207-.121.407-.304.6-.183.192-.437.365-.764.517a5.203 5.203 0 01-1.184.365 8.082 8.082 0 01-1.558.137c-.588 0-1.098-.073-1.528-.219-.43-.146-.773-.365-1.029-.657a1.812 1.812 0 01-.313-.484 2.437 2.437 0 01-.21-.995v-.049c0-.17.01-.329.03-.475a12.05 12.05 0 01.353-1.735c.159-.56.33-1.126.512-1.698l-1.163-.408a2.872 2.872 0 00-.07.195 35.168 35.168 0 00-.34 1.093 19.3 19.3 0 00-.393 1.588c-.057.282-.102.555-.134.82a5.158 5.158 0 00-.037.602c0 .373.045.722.134 1.047.134.503.367.945.7 1.327.382.426.866.748 1.452.967.586.22 1.265.33 2.036.33z" mask="url(#e)"/><path fill="#000000" fill-opacity=".56" d="M40.41 294.75a.836.836 0 00-1.182 0L36 297.98l-3.228-3.228a.836.836 0 10-1.183 1.182l3.82 3.82a.834.834 0 001.183 0l3.819-3.82a.834.834 0 000-1.182m295.089 3.082a4.171 4.171 0 014.167 4.167c0 1.378-1.122 2.5-2.5 2.5h-8.334a2.503 2.503 0 01-2.5-2.5 4.171 4.171 0 014.167-4.167zm0 1.667h-5a2.503 2.503 0 00-2.5 2.5c0 .46.373.833.833.833h8.334c.46 0 .833-.374.833-.833 0-1.378-1.122-2.5-2.5-2.5zm-2.5-10a3.337 3.337 0 013.333 3.333 3.337 3.337 0 01-3.333 3.334 3.337 3.337 0 01-3.333-3.334A3.337 3.337 0 01333 289.5zm0 1.667c-.92 0-1.667.747-1.667 1.666 0 .92.748 1.667 1.667 1.667.92 0 1.667-.748 1.667-1.667s-.748-1.666-1.667-1.666z" mask="url(#e)"/><path fill="#000000" fill-opacity=".32" fill-rule="nonzero" d="M310.049 330.1c0-.71-.012-1.422-.034-2.135a16.655 16.655 0 00-.206-2.134 1.758 1.758 0 00.652.105c.136 0 .268-.013.396-.037.13-.024.25-.064.366-.12a1.274 1.274 0 00.579-.574c.087.125.179.23.276.313a1.307 1.307 0 00.872.324c.274 0 .51-.052.707-.154a1.28 1.28 0 00.477-.425c.122-.181.206-.38.253-.595a3.033 3.033 0 00.065-.825c-.01-.212-.028-.444-.052-.696a9.888 9.888 0 00-.12-.832l-.976.193c.056.302.09.56.102.775.012.214.018.399.018.555 0 .08-.003.175-.01.285-.007.11-.025.214-.055.315a.653.653 0 01-.14.259.343.343 0 01-.27.106.3.3 0 01-.226-.104.967.967 0 01-.17-.271 2.234 2.234 0 01-.123-.373 5.897 5.897 0 01-.135-.79 39.455 39.455 0 01-.029-.288 5.636 5.636 0 00-.029-.279 3.252 3.252 0 01-.023-.305l-1.033.125.006.057.01.108c.006.088.013.185.018.29a22.096 22.096 0 01.018.5 4.869 4.869 0 01-.034.415c-.019.162-.056.318-.112.47-.056.15-.133.28-.232.385-.1.107-.23.16-.394.16-.157 0-.285-.02-.386-.06a.69.69 0 01-.269-.196 1.58 1.58 0 01-.222-.355c-.07-.146-.151-.327-.245-.542l-.245-.527a43331.074 43331.074 0 01-.313-.624 3.376 3.376 0 00-.084-.154l-.944.558c.08.126.154.258.222.397.068.14.142.304.222.496.281.723.49 1.537.626 2.441.135.905.203 1.863.203 2.875 0 .14 0 .285-.003.438-.001.153-.006.303-.013.45h1.039zm-10.263 3.636c.292-.143.58-.304.864-.483.283-.18.553-.375.808-.587.256-.212.492-.438.71-.678.217-.24.405-.492.563-.757.159-.264.282-.538.37-.821a2.927 2.927 0 00.097-1.35 7.462 7.462 0 00-.091-.487 14.851 14.851 0 00-.12-.5 71.534 71.534 0 01-.128-.504 7.76 7.76 0 00-.13-.478c-.049-.158-.098-.319-.146-.482l-.992.313a28.013 28.013 0 01.386 1.315c.042.15.08.299.115.448.035.15.064.296.086.438.023.143.034.279.034.407 0 .338-.082.665-.245.981-.164.317-.38.616-.65.898a5.97 5.97 0 01-.92.78c-.345.238-.7.448-1.065.628l.454.919zm-4.763-.073c.358-.056.71-.142 1.054-.259.344-.116.672-.26.983-.433.311-.172.602-.373.871-.602.27-.23.507-.486.712-.767.206-.282.374-.589.507-.921.132-.332.217-.69.255-1.072a4.831 4.831 0 00.005-.95 5.169 5.169 0 00-.172-.913 4.328 4.328 0 00-.326-.822 3.207 3.207 0 00-.467-.675c-.414-.446-.868-.668-1.362-.668-.222 0-.437.056-.644.17-.207.112-.399.279-.576.498a2.901 2.901 0 00-.381.67c-.108.26-.177.49-.206.694-.03.204-.045.371-.045.504 0 .139.012.278.037.417.042.264.142.497.302.699.362.449.92.696 1.675.74.192.018.363.027.514.027h.592c-.038.26-.145.526-.32.796-.176.27-.415.524-.718.764a5.16 5.16 0 01-1.09.647c-.425.191-.905.34-1.44.449l.24 1.007zm2.865-4.697l-.085.001c-.153 0-.316-.005-.49-.016a2.63 2.63 0 01-.222-.023 1.854 1.854 0 01-.26-.058 1.226 1.226 0 01-.251-.104.614.614 0 01-.196-.17.489.489 0 01-.107-.247 1.826 1.826 0 01-.018-.232 2.37 2.37 0 01.295-1.09c.071-.123.152-.223.243-.3a.433.433 0 01.286-.118c.063 0 .122.01.178.031.056.02.109.048.159.08.05.034.097.07.14.11.044.04.083.078.118.113.087.1.172.22.253.357.082.137.156.291.222.462.066.17.12.355.162.553.042.198.068.408.078.631a6.1 6.1 0 01-.505.02zm-5.302-3.646l.85-.85-.855-.856-.85.85.855.856zm-2.28 8.416c.292-.143.58-.304.864-.483.283-.18.553-.375.808-.587.256-.212.492-.438.71-.678.217-.24.405-.492.563-.757.159-.264.282-.538.37-.821a2.927 2.927 0 00.097-1.35 7.462 7.462 0 00-.091-.487 14.851 14.851 0 00-.12-.5 71.534 71.534 0 01-.128-.504 7.76 7.76 0 00-.13-.478c-.049-.158-.098-.319-.146-.482l-.992.313a28.013 28.013 0 01.386 1.315c.042.15.08.299.115.448.035.15.064.296.086.438.023.143.034.279.034.407 0 .338-.082.665-.245.981-.164.317-.38.616-.65.898a5.97 5.97 0 01-.92.78c-.345.238-.7.448-1.065.628l.454.919zM283.623 330c.285 0 .56-.02.827-.057.266-.039.51-.105.733-.199.222-.094.42-.219.592-.375.172-.157.31-.353.415-.59.104-.24.156-.518.156-.835 0-.055-.002-.111-.005-.167a5.826 5.826 0 00-.271-1.335 6.775 6.775 0 00-.167-.483 10.547 10.547 0 00-.287-.673 1.284 1.284 0 01-.047-.107l-.929.46.454 1.116a3.393 3.393 0 01.235.89c.007.092.01.16.01.205 0 .084-.005.162-.016.235a1.012 1.012 0 01-.078.277.817.817 0 01-.292.341c-.125.082-.27.144-.433.186-.163.041-.34.067-.532.075a12.99 12.99 0 01-.59.013h-1.007V330h1.232zm1.987 2.718l.856-.855-.845-.846-.856.856.845.845zm-2.28.01l.856-.855-.845-.85-.856.855.845.85zm1.164 1.493l.777-.778-.772-.772-.777.778.772.772zm-5.77-4.221c.326 0 .61-.013.853-.04.241-.025.453-.065.633-.12a1.948 1.948 0 00.835-.487c.15.191.341.347.574.467.233.12.525.18.877.18h.104v-1.023h-.104a.737.737 0 01-.436-.12.856.856 0 01-.266-.302 1.429 1.429 0 01-.138-.397 3.685 3.685 0 01-.058-.407 16.003 16.003 0 00-.094-.902 4.9 4.9 0 00-.151-.71l-.98.277c.076.264.129.499.158.704.03.205.045.407.045.605 0 .209-.035.392-.105.548a.942.942 0 01-.326.391c-.148.105-.339.183-.574.235a3.964 3.964 0 01-.848.078h-.777V330h.777zm.193 2.551l.845-.845-.856-.856-.845.85.856.851zm2.139.01l.845-.85-.856-.85-.845.845.856.856zm-7.675-9.015l.772-.772-.777-.777-.773.772.778.777zm-1.18 1.649l.846-.85-.856-.856-.845.85.856.856zm2.291.005l.845-.845-.855-.856-.845.845.855.856zm-7.44 8.26a6.48 6.48 0 001.54-.243c.469-.138.873-.354 1.212-.647a2.94 2.94 0 00.793-1.146c.19-.47.285-1.048.285-1.737.076.056.151.103.224.143a1.345 1.345 0 00.488.157c.092.012.199.018.32.018.296 0 .576-.055.838-.164.263-.11.498-.286.707-.53.073.112.16.21.258.295.1.085.204.157.313.217.11.059.22.104.332.135.111.032.214.047.308.047a1.545 1.545 0 00.94-.303c.13-.097.248-.212.35-.344a1.99 1.99 0 00.26-.443c.086.17.197.322.33.456a2.156 2.156 0 00.955.556c.18.049.361.073.545.073h.105v-1.023h-.105a.975.975 0 01-.519-.135 1.384 1.384 0 01-.388-.36 2.15 2.15 0 01-.28-.517 4.35 4.35 0 01-.182-.605 6.07 6.07 0 01-.107-.623c-.024-.207-.04-.4-.047-.577l-1.023.073c.007.118.019.268.034.449a6.732 6.732 0 01-.008 1.195 2.19 2.19 0 01-.125.555c-.062.165-.151.3-.266.405a.641.641 0 01-.449.156.487.487 0 01-.333-.115.782.782 0 01-.207-.305 1.794 1.794 0 01-.107-.433c-.02-.162-.03-.3-.03-.412v-.258c0-.112 0-.223.004-.334.007-.164.013-.312.016-.444l-1.06-.078-.017.543a5.914 5.914 0 01-.04.537c-.02.174-.05.338-.09.493-.04.155-.1.29-.18.404a.888.888 0 01-.306.274.95.95 0 01-.462.102c-.24 0-.437-.058-.592-.175a1.5 1.5 0 01-.394-.454 3.51 3.51 0 01-.279-.62 21.543 21.543 0 00-.35-.942l-.086-.235-.866.563c.115.3.219.6.31.9.093.301.16.589.202.864a5.188 5.188 0 01.057 1.002 4.328 4.328 0 01-.177.996c-.317.967-1.214 1.485-2.693 1.555h-.177c-.296 0-.553-.032-.772-.097a2.194 2.194 0 01-.569-.25 1.671 1.671 0 01-.399-.35 2.221 2.221 0 01-.26-.396 1.985 1.985 0 01-.152-.389 3.213 3.213 0 01-.07-.323 3.023 3.023 0 01-.027-.61c.01-.206.034-.41.07-.614a5.913 5.913 0 01.309-1.103c.06-.157.121-.293.182-.41.061-.116.114-.204.16-.263l-.83-.616c-.143.237-.28.5-.41.788-.13.289-.24.595-.328.92a4.918 4.918 0 00-.165.846 4.607 4.607 0 00.016 1.208c.062.424.187.802.373 1.135.186.332.422.614.71.847.286.233.614.41.983.533.369.121.767.182 1.195.182h.203z" mask="url(#e)"/><path fill="#000000" fill-opacity=".56" fill-rule="nonzero" d="M307.909 301c.247 0 .48-.012.7-.037a2.77 2.77 0 00.62-.14 2.05 2.05 0 00.551-.298 2.48 2.48 0 00.497-.517c.186.138.39.273.608.405.22.131.448.243.685.334a2.63 2.63 0 00.983.198c.166 0 .333-.022.5-.067.263-.073.486-.204.669-.392.182-.189.326-.41.432-.664.105-.253.17-.486.195-.697.024-.21.036-.381.036-.511 0-.146-.01-.288-.03-.426a3.683 3.683 0 00-.216-.804 2.506 2.506 0 00-.417-.706 2.058 2.058 0 00-.63-.502 1.812 1.812 0 00-.85-.192c-.267 0-.502.054-.702.162-.201.107-.38.247-.536.42a3.21 3.21 0 00-.42.59c-.124.221-.24.445-.35.673-.126.251-.25.496-.374.733-.124.238-.27.449-.439.633a1.908 1.908 0 01-.611.445c-.24.111-.54.167-.901.167h-.122V301h.122zm4.626-1.266c-.163 0-.345-.04-.548-.122a4.697 4.697 0 01-1.01-.59l.328-.664c.102-.199.192-.371.271-.517.08-.146.154-.268.225-.365a.862.862 0 01.213-.216.408.408 0 01.229-.07c.121 0 .229.024.322.073.094.048.175.11.244.185s.128.159.176.25a1.98 1.98 0 01.189.496c.016.069.026.118.03.146.017.11.025.215.025.317a1.822 1.822 0 01-.113.615 1.035 1.035 0 01-.167.298.389.389 0 01-.201.14.878.878 0 01-.213.024zm-9.812 5.758a11.123 11.123 0 001.49-.9 7.948 7.948 0 001.288-1.142c.376-.416.677-.865.904-1.348.227-.483.341-.99.341-1.522v-.024c.102.11.208.194.32.255a1.475 1.475 0 00.624.183c.089.004.162.006.219.006h.103v-1.193h-.097c-.203 0-.389-.049-.557-.146a1.645 1.645 0 01-.484-.46 4.3 4.3 0 01-.45-.81c-.147-.33-.297-.73-.451-1.201l-1.144.353c.048.15.107.337.176.563.07.225.138.465.207.721.07.256.133.516.192.782s.102.514.13.746a2.272 2.272 0 01-.067.822 3.158 3.158 0 01-.33.785c-.149.251-.33.492-.546.721-.215.23-.45.447-.706.654a8.3 8.3 0 01-.815.582c-.289.18-.579.346-.87.496l.523 1.077zm-3.44-11.206l.987-.986-.999-.998-.986.992.998.992zm2.496.012l.986-.992-.998-.992-.986.986.998.998zM299.125 301c.333 0 .655-.022.965-.067.31-.045.596-.122.855-.231.26-.11.49-.256.691-.439.201-.182.362-.411.484-.687.122-.28.183-.605.183-.974 0-.065-.002-.13-.006-.195-.029-.45-.134-.97-.317-1.558a7.904 7.904 0 00-.195-.563 12.302 12.302 0 00-.335-.786 1.499 1.499 0 01-.054-.124l-1.084.535.53 1.303a3.959 3.959 0 01.274 1.038c.008.107.012.187.012.24 0 .098-.006.189-.018.274-.02.13-.051.237-.092.323a.953.953 0 01-.34.398 1.674 1.674 0 01-.506.216c-.19.05-.398.079-.62.089-.224.01-.453.015-.689.015h-1.174V301h1.436zm-4.565-6.653l.992-.992-.998-.998-.992.992.998.998zm-2.575 6.775c.276 0 .567-.008.874-.025.306-.016.618-.048.934-.097h4.14v-1.193h-1.523a2.501 2.501 0 00.663-1.662v-.085c0-.264-.034-.51-.103-.737a2.317 2.317 0 00-.877-1.2 2.567 2.567 0 00-.678-.34 2.54 2.54 0 00-.605-.136 6.398 6.398 0 00-.305-.016c-.227 0-.456.027-.688.08a5.124 5.124 0 00-1.384.523c-.42.235-.803.516-1.148.843a6.744 6.744 0 00-.931 1.096c-.276.403-.52.828-.73 1.275a1.79 1.79 0 01-.274-.597 2.575 2.575 0 01-.073-.602v-.043c0-.21.02-.416.06-.615.041-.199.086-.381.134-.548l-1.15-.346a4.969 4.969 0 00-.134.48c-.037.163-.071.331-.104.506-.064.308-.131.594-.2.858a2.023 2.023 0 01-.317.688c-.045.06-.102.124-.173.191a1.121 1.121 0 01-.283.186 2.032 2.032 0 01-.433.143c-.17.039-.375.058-.614.058h-.14V301h.176c.56-.004 1.038-.09 1.434-.256a2.26 2.26 0 00.977-.785c.223.288.452.51.687.667.236.156.491.27.767.344.276.073.58.116.91.13.331.015.701.022 1.111.022zm0-1.23h-.268c-.36-.008-.675-.02-.943-.036.223-.406.452-.774.688-1.105.235-.33.484-.621.745-.87a4.19 4.19 0 01.843-.628c.3-.168.625-.29.974-.368a1.838 1.838 0 011.169.13 1.135 1.135 0 01.587.578c.063.137.095.295.095.473v.024c0 .313-.085.577-.256.792-.174.219-.406.397-.694.535a3.964 3.964 0 01-.983.31 8.504 8.504 0 01-1.047.135c-.33.02-.634.03-.91.03zm-11.328 5.077c.268 0 .569-.019.901-.055a7.469 7.469 0 001.008-.183c.338-.085.668-.195.989-.331.32-.136.606-.304.858-.503.252-.198.455-.432.609-.7a1.854 1.854 0 00.213-1.199 1.28 1.28 0 00-.098-.316 1.74 1.74 0 00-.204-.338c-.087-.116-.2-.23-.337-.344h1.57v-1.193h-4.803l-.09 1.187.133.024a8.487 8.487 0 01.584.134c.122.033.253.07.393.11.14.04.281.085.423.134.231.085.426.17.584.255.159.086.288.166.387.24.1.076.171.147.216.214a.33.33 0 01.067.173.756.756 0 01-.204.524c-.136.15-.31.28-.52.39-.211.109-.448.201-.71.276a7.627 7.627 0 01-1.47.274 6.32 6.32 0 01-.499.028c-.203 0-.435-.004-.697-.013a4.438 4.438 0 01-.79-.097 3.022 3.022 0 01-.768-.277 1.705 1.705 0 01-.618-.55c-.255-.39-.383-.898-.383-1.523 0-.986.318-2.262.956-3.828l-1.114-.45c-.637 1.541-.982 2.864-1.035 3.968-.004.101-.006.2-.006.298 0 .889.197 1.621.59 2.198.187.316.427.57.721.764.295.192.615.341.962.447.347.105.71.175 1.087.21.377.034.742.052 1.095.052zM267.107 301c.212 0 .388-.014.53-.043.86-.158 1.471-.558 1.833-1.199.085-.154.159-.324.222-.511s.101-.354.115-.502c.015-.148.022-.265.022-.35 0-.146-.012-.3-.037-.463a3.644 3.644 0 00-.219-.791 5.116 5.116 0 00-.463-.886 7.535 7.535 0 00-.76-.977 9.489 9.489 0 00-.7-.7 39.169 39.169 0 00-.652-.572l4.359-1.832-.47-1.108-5.003 2.143-.14 1.248a15.432 15.432 0 011.85 1.768c.26.294.479.57.655.828.177.257.287.47.332.636.057.219.085.424.085.614a1.496 1.496 0 01-.243.828c-.114.17-.27.302-.47.393a2.705 2.705 0 01-.656.2c-.24.043-.491.068-.755.074-.264.006-.518.009-.761.009h-.761V301h2.088zm-6.366 0c.381 0 .713-.015.995-.046.282-.03.529-.077.74-.14a2.273 2.273 0 00.974-.569c.174.223.397.405.67.545.271.14.612.21 1.022.21h.121v-1.193h-.121a.86.86 0 01-.509-.14.999.999 0 01-.31-.353 1.667 1.667 0 01-.161-.463 4.299 4.299 0 01-.067-.474 18.669 18.669 0 00-.11-1.054 5.717 5.717 0 00-.176-.827l-1.145.322c.09.309.152.583.186.822.034.24.052.475.052.706 0 .244-.04.457-.122.64a1.1 1.1 0 01-.38.456 1.85 1.85 0 01-.67.274c-.274.06-.604.091-.99.091h-.906V301h.907zm.225 2.977l.986-.987-.998-.998-.986.992.998.993zm2.496.012l.986-.992-.998-.993-.987.986.999.999zm-9.1 1.284a7.459 7.459 0 001.72-.487 6.291 6.291 0 001.509-.889 5.424 5.424 0 001.156-1.269 4.598 4.598 0 00.66-1.628h.67v-1.193h-.578a5.794 5.794 0 00-.329-1.768 4.675 4.675 0 00-.353-.77 3.846 3.846 0 00-.462-.646c-.483-.519-1.013-.779-1.589-.779-.26 0-.51.066-.752.198a2.284 2.284 0 00-.672.581c-.17.22-.319.48-.445.783a3.435 3.435 0 00-.24.81 4.237 4.237 0 00-.052.587c0 .162.014.324.043.487.049.308.166.58.353.815.422.524 1.073.812 1.954.865.223.02.423.03.6.03h.69c-.044.304-.17.614-.374.928a3.805 3.805 0 01-.837.892 6.02 6.02 0 01-1.272.755 7.854 7.854 0 01-1.68.523l.28 1.175zm3.342-5.479h-.098c-.178 0-.37-.005-.572-.017a3.068 3.068 0 01-.259-.028c-.1-.014-.2-.036-.304-.067a1.43 1.43 0 01-.292-.122.716.716 0 01-.229-.197.57.57 0 01-.124-.29 2.13 2.13 0 01-.022-.27 2.765 2.765 0 01.344-1.272c.083-.143.178-.26.283-.35a.505.505 0 01.335-.138c.073 0 .142.013.207.037a.94.94 0 01.186.094c.059.039.113.082.164.128.05.047.096.09.137.131.101.118.2.257.295.417.096.16.182.34.259.539.077.199.14.414.189.645.048.231.079.477.09.736a7.117 7.117 0 01-.589.024zm-5.034 1.26a28.5 28.5 0 00.1-1.904c.01-.597.015-1.074.015-1.43 0-.593-.006-1.226-.018-1.9a55.636 55.636 0 00-.31-4.431l-1.194.182c.138 1.279.248 2.902.33 4.87.011.337.017.694.017 1.071 0 .313-.004.64-.012.98-.02.755-.063 1.587-.128 2.496l1.2.067zm-7.256-2.994l.992-.992-.998-.998-.992.992.998.998zm-.268 7.122c.5 0 .973-.053 1.421-.159a4.386 4.386 0 001.227-.483c.37-.218.693-.492.97-.825.279-.333.495-.729.649-1.187.146-.438.225-.788.237-1.05.013-.262.019-.437.019-.527a6.278 6.278 0 00-.344-2.066 9.757 9.757 0 00-.347-.889 6.902 6.902 0 00-.46-.867l-1.01.645a.39.39 0 01.043.065l.07.114c.07.12.153.285.246.494.093.209.188.454.283.736a5.788 5.788 0 01.301 1.854v.073a3.791 3.791 0 01-.176 1.053c-.09.284-.223.538-.402.764-.179.225-.4.415-.663.572-.264.156-.57.275-.92.356a5.17 5.17 0 01-1.168.122c-.345 0-.653-.038-.922-.113a2.885 2.885 0 01-.707-.292c-.2-.12-.372-.255-.514-.405a2.65 2.65 0 01-.353-.46 2.218 2.218 0 01-.21-.45 2.4 2.4 0 01-.094-.38 3.57 3.57 0 01-.03-.719c.011-.243.039-.483.081-.718.043-.235.097-.462.162-.679.065-.217.133-.417.204-.6.07-.182.14-.341.21-.477.069-.136.13-.24.182-.314l-.968-.712a8.651 8.651 0 00-.477.922c-.153.34-.28.697-.384 1.075a5.673 5.673 0 00-.192.983 5.374 5.374 0 00.018 1.41c.082.53.24.993.472 1.387.234.393.527.72.88.977s.756.45 1.208.578c.453.128.939.192 1.458.192z" mask="url(#e)"/><path fill="#000000" fill-opacity=".56" d="M40.41 367.75a.836.836 0 00-1.182 0L36 370.98l-3.228-3.228a.836.836 0 10-1.183 1.182l3.82 3.82a.834.834 0 001.183 0l3.819-3.82a.834.834 0 000-1.182m295.089 3.082a4.171 4.171 0 014.167 4.167c0 1.378-1.122 2.5-2.5 2.5h-8.334a2.503 2.503 0 01-2.5-2.5 4.171 4.171 0 014.167-4.167zm0 1.667h-5a2.503 2.503 0 00-2.5 2.5c0 .46.373.833.833.833h8.334c.46 0 .833-.374.833-.833 0-1.378-1.122-2.5-2.5-2.5zm-2.5-10a3.337 3.337 0 013.333 3.333 3.337 3.337 0 01-3.333 3.334 3.337 3.337 0 01-3.333-3.334A3.337 3.337 0 01333 362.5zm0 1.667c-.92 0-1.667.747-1.667 1.666 0 .92.748 1.667 1.667 1.667.92 0 1.667-.748 1.667-1.667s-.748-1.666-1.667-1.666z" mask="url(#e)"/><path fill="#000000" fill-opacity=".56" fill-rule="nonzero" d="M307.909 374c.247 0 .48-.012.7-.037a2.77 2.77 0 00.62-.14 2.05 2.05 0 00.551-.298 2.48 2.48 0 00.497-.517c.186.138.39.273.608.405.22.131.448.243.685.334a2.63 2.63 0 00.983.198c.166 0 .333-.022.5-.067.263-.073.486-.204.669-.392.182-.189.326-.41.432-.664.105-.253.17-.486.195-.697.024-.21.036-.381.036-.511 0-.146-.01-.288-.03-.426a3.683 3.683 0 00-.216-.804 2.506 2.506 0 00-.417-.706 2.058 2.058 0 00-.63-.502 1.812 1.812 0 00-.85-.192c-.267 0-.502.054-.702.162-.201.107-.38.247-.536.42a3.21 3.21 0 00-.42.59c-.124.221-.24.445-.35.673-.126.251-.25.496-.374.733-.124.238-.27.449-.439.633a1.908 1.908 0 01-.611.445c-.24.111-.54.167-.901.167h-.122V374h.122zm4.626-1.266c-.163 0-.345-.04-.548-.122a4.697 4.697 0 01-1.01-.59l.328-.664c.102-.199.192-.371.271-.517.08-.146.154-.268.225-.365a.862.862 0 01.213-.216.408.408 0 01.229-.07c.121 0 .229.024.322.073.094.048.175.11.244.185s.128.159.176.25a1.98 1.98 0 01.189.496c.016.069.026.118.03.146.017.11.025.215.025.317a1.822 1.822 0 01-.113.615 1.035 1.035 0 01-.167.298.389.389 0 01-.201.14.878.878 0 01-.213.024zM298.517 374c.633 0 1.231-.048 1.795-.143a12.452 12.452 0 001.604-.377c.505-.157.985-.333 1.44-.53.454-.197.89-.399 1.308-.606.102.26.253.492.454.697.2.205.44.379.718.52.278.143.592.251.94.326a5.35 5.35 0 001.127.113h.127v-1.193h-.127c-.073 0-.17-.003-.293-.01a3.534 3.534 0 01-.401-.045 4.253 4.253 0 01-.448-.1 2.014 2.014 0 01-.432-.177 1.503 1.503 0 01-.359-.274.928.928 0 01-.222-.392c.186-.094.371-.18.554-.262l.554-.244-.232-1.156c-.251 0-.5-.026-.748-.08a5.987 5.987 0 01-.743-.21 9.844 9.844 0 01-.74-.294c-.245-.11-.487-.222-.727-.335-.219-.102-.436-.201-.651-.298a8.863 8.863 0 00-.633-.26 4.933 4.933 0 00-.612-.179 2.73 2.73 0 00-.593-.067 2.34 2.34 0 00-1.124.286c-.355.191-.69.477-1.007.859a4.13 4.13 0 00-.289.383 9.872 9.872 0 00-.213.335 3.1 3.1 0 00-.186.347l1.096.493a3.225 3.225 0 01.225-.399c.073-.111.16-.231.262-.359.101-.128.216-.247.344-.359.128-.112.267-.204.417-.277.15-.073.308-.11.475-.11.125 0 .263.02.413.058.15.039.31.09.478.156.169.064.343.139.524.222l.557.258c.247.118.499.234.754.347.256.114.524.22.804.317a49.94 49.94 0 01-1.406.676c-.475.219-.965.413-1.47.584a11.77 11.77 0 01-1.58.41 9.336 9.336 0 01-1.734.156h-.877V374h.877zm-8.31.018c.2 0 .39-.03.57-.088.18-.059.351-.142.511-.25.16-.107.309-.233.445-.377s.258-.301.368-.472c.15.361.377.647.682.856.304.209.659.313 1.065.313.207 0 .402-.03.584-.091a1.96 1.96 0 00.925-.652c.122-.154.224-.326.305-.517.105.195.233.37.383.523.15.155.316.287.496.396.18.11.373.194.576.253.202.059.41.088.62.088h.146v-1.193h-.146c-.292 0-.557-.123-.794-.368-.237-.246-.437-.618-.6-1.117a4.796 4.796 0 01-.143-.518 8.161 8.161 0 01-.14-.885l-.04-.405-1.192.097c.008.146.015.299.021.457a10.833 10.833 0 01.003.755c-.008.235-.028.47-.06.703a2.725 2.725 0 01-.162.633 1.22 1.22 0 01-.301.456.683.683 0 01-.481.174c-.203 0-.363-.055-.481-.165a.962.962 0 01-.259-.426 1.87 1.87 0 01-.091-.475 4.65 4.65 0 01.015-.785c.016-.223.04-.436.073-.639.033-.203.06-.375.08-.517l-1.188-.225c-.02.186-.05.396-.088.63a7.183 7.183 0 01-.386 1.415c-.09.231-.197.436-.323.615a1.66 1.66 0 01-.435.432.981.981 0 01-.557.164.45.45 0 01-.38-.17.838.838 0 01-.165-.393 2.806 2.806 0 01-.027-.648c.012-.22.035-.435.07-.649a12.745 12.745 0 01.204-1.02l-1.17-.322c-.023.098-.05.213-.078.347a6.176 6.176 0 01-.113.442c-.047.16-.102.33-.167.51-.065.181-.144.365-.238.552a4.12 4.12 0 01-.31.49c-.118.16-.247.304-.387.432s-.29.23-.45.307c-.16.077-.326.116-.496.116h-.128V374h.128a2.256 2.256 0 001.199-.332 2.36 2.36 0 00.469-.374c.142-.146.276-.308.401-.487a1.665 1.665 0 001.638 1.211zm-9.44-2.958l.992-.992-.998-.998-.992.992.998.998zm-.25 7.116c.5 0 .973-.053 1.422-.159a4.386 4.386 0 001.226-.484c.37-.217.693-.492.971-.824.278-.333.494-.729.648-1.187.106-.325.174-.621.204-.889a6.474 6.474 0 00.04-1.004c.43.247.919.371 1.467.371h.134v-1.193h-.134a2.16 2.16 0 01-.454-.052 1.417 1.417 0 01-.508-.24 2.912 2.912 0 01-.566-.56 6.432 6.432 0 01-.633-1.005 6.983 6.983 0 00-.444-.827l-1.01.645c.003 0 .04.06.112.18.07.12.153.283.246.492.094.21.188.455.283.737a5.788 5.788 0 01.302 1.853v.073a3.791 3.791 0 01-.177 1.054c-.09.284-.223.538-.402.763-.178.226-.4.416-.663.573-.264.156-.57.275-.92.356a5.17 5.17 0 01-1.168.121c-.345 0-.652-.037-.922-.112a2.885 2.885 0 01-.706-.292c-.201-.12-.373-.255-.515-.405a2.65 2.65 0 01-.353-.46 2.189 2.189 0 01-.21-.453 2.546 2.546 0 01-.094-.378 3.57 3.57 0 01-.03-.718c.012-.243.04-.483.082-.718s.096-.462.161-.679c.065-.217.133-.417.204-.6.071-.182.141-.341.21-.477.069-.136.13-.24.183-.314l-.968-.712a8.651 8.651 0 00-.478.922c-.152.34-.28.697-.384 1.075a5.673 5.673 0 00-.191.983 5.374 5.374 0 00.018 1.41c.081.53.238.993.472 1.387.233.393.526.719.88.977.352.257.755.45 1.208.578.452.128.938.192 1.457.192zm-11.194-10.817l.993-.992-.999-.998-.992.992.998.998zM268.35 374c.332 0 .642-.022.928-.067a2.82 2.82 0 00.776-.231c.231-.11.435-.256.612-.439.176-.182.325-.411.447-.687.122-.28.183-.605.183-.974 0-.065-.002-.13-.006-.195-.029-.45-.134-.97-.317-1.558a7.904 7.904 0 00-.195-.563 12.306 12.306 0 00-.335-.786 1.499 1.499 0 01-.054-.124l-1.084.535.53 1.303a3.959 3.959 0 01.274 1.038c.008.107.012.187.012.24 0 .098-.006.189-.018.274-.02.13-.051.237-.092.323a1.09 1.09 0 01-.304.398 1.28 1.28 0 01-.426.216 2.29 2.29 0 01-.542.089c-.199.01-.416.015-.651.015h-.706V374h.968zm-5.247 0c.381 0 .713-.015.995-.046.282-.03.528-.077.74-.14a2.273 2.273 0 00.973-.569c.175.223.398.405.67.545s.613.21 1.022.21h.122v-1.193h-.122a.86.86 0 01-.508-.14.999.999 0 01-.31-.353 1.667 1.667 0 01-.162-.463 4.299 4.299 0 01-.066-.474 18.672 18.672 0 00-.11-1.054 5.718 5.718 0 00-.177-.827l-1.144.322c.09.309.151.583.186.822.034.24.051.475.051.706 0 .244-.04.457-.121.64a1.1 1.1 0 01-.38.456 1.85 1.85 0 01-.67.274c-.274.06-.604.091-.99.091h-.906V374h.907zm.225 2.977l.986-.987-.998-.998-.986.992.998.993zm2.495.012l.987-.992-.999-.993-.986.986.998.999zM257.01 374c.17-.008.338-.024.505-.049.166-.024.328-.06.487-.11a2.355 2.355 0 00.883-.493c.214-.198.389-.425.523-.681.182.235.394.454.636.657.241.203.508.357.8.463.211.069.427.122.649.158.22.037.477.055.77.055h.176v-1.193h-.383a2.083 2.083 0 01-.624-.1 2.045 2.045 0 01-.52-.26 2.233 2.233 0 01-.436-.398 4.106 4.106 0 01-.374-.526c-.154-.26-.299-.518-.432-.773-.134-.256-.27-.51-.405-.761a23.621 23.621 0 00-.426-.755 8.54 8.54 0 00-1.136-1.507 8.372 8.372 0 00-.81-.745l4.828-2.027-.469-1.108-5.38 2.32-.159 1.344a10.537 10.537 0 011.239 1.142c.213.229.417.47.611.724.195.254.366.51.512.77.146.26.254.503.325.73a2.1 2.1 0 01.107.621c0 .049-.002.098-.006.146a.956.956 0 01-.15.43c-.087.14-.196.264-.328.374-.132.11-.28.197-.444.262a1.326 1.326 0 01-.49.097h-2.125V374h2.046zm-6.325 0c.382 0 .713-.015.995-.046.282-.03.529-.077.74-.14a2.273 2.273 0 00.974-.569c.174.223.398.405.67.545.271.14.612.21 1.022.21h.122v-1.193h-.122a.86.86 0 01-.508-.14.999.999 0 01-.31-.353 1.667 1.667 0 01-.162-.463 4.299 4.299 0 01-.067-.474 18.666 18.666 0 00-.11-1.054 5.718 5.718 0 00-.176-.827l-1.144.322c.089.309.15.583.185.822.035.24.052.475.052.706 0 .244-.04.457-.122.64a1.1 1.1 0 01-.38.456 1.85 1.85 0 01-.67.274c-.274.06-.603.091-.989.091h-.907V374h.907zm.225 2.977l.987-.987-.999-.998-.986.992.998.993zm2.496.012l.986-.992-.998-.993-.986.986.998.999zM250.022 374v-1.193h-.122c-.256 0-.476-.026-.66-.08a.95.95 0 01-.417-.218.507.507 0 01-.162-.314 3.288 3.288 0 01-.021-.386v-3.056a42.483 42.483 0 00-.125-3.208 9.023 9.023 0 00-.094-.76l-1.193.218c.036.191.068.436.094.734.027.298.049.624.067.977.018.353.032.718.04 1.096.008.377.012.74.012 1.09.004.356.006.695.006 1.016v.236c-.001.23-.003.44-.006.628a184.984 184.984 0 00-.012.907c0 .097.002.214.006.35a2.35 2.35 0 00.216.886c.07.154.173.298.307.432.22.219.486.381.8.487.315.105.696.158 1.142.158h.122zm-8.85-2.94l.991-.992-.998-.998-.992.992.998.998zm-.269 7.122c.5 0 .973-.053 1.422-.159a4.386 4.386 0 001.226-.483c.37-.218.693-.492.971-.825.278-.333.494-.729.648-1.187.147-.438.226-.788.238-1.05.012-.262.018-.437.018-.527a6.278 6.278 0 00-.344-2.066 9.757 9.757 0 00-.347-.889 6.902 6.902 0 00-.46-.867l-1.01.645c.004 0 .042.06.113.18.07.12.153.284.246.493.094.209.188.454.283.736a5.788 5.788 0 01.302 1.854v.073a3.791 3.791 0 01-.177 1.053c-.09.284-.223.538-.402.764-.178.225-.4.415-.663.572-.264.156-.57.275-.92.356a5.17 5.17 0 01-1.168.122c-.345 0-.652-.038-.922-.113a2.885 2.885 0 01-.706-.292c-.201-.12-.372-.255-.514-.405a2.65 2.65 0 01-.354-.46 2.218 2.218 0 01-.21-.45 2.4 2.4 0 01-.094-.38 3.57 3.57 0 01-.03-.719c.012-.243.04-.483.082-.718s.096-.462.161-.679c.065-.217.133-.417.204-.6.071-.182.141-.341.21-.477.07-.136.13-.24.183-.314l-.968-.712a8.651 8.651 0 00-.478.922c-.152.34-.28.697-.383 1.075a5.673 5.673 0 00-.192.983 5.374 5.374 0 00.018 1.41c.081.53.238.993.472 1.387.233.393.526.72.88.977.352.257.755.45 1.208.578.452.128.938.192 1.457.192z" mask="url(#e)"/><path fill="#000000" fill-opacity=".56" d="M185.538 80.126a5.618 5.618 0 00-5.059 2.06 5.614 5.614 0 00-5.057-2.06c-2.996.352-5.155 3.157-4.926 6.165.445 5.816 7.462 10.591 9.458 11.838a.985.985 0 001.052 0c1.996-1.247 9.012-6.023 9.457-11.839.23-3.007-1.93-5.813-4.925-6.164M62 95.236c.464 0 .866.319.974.77.106.452-.112.917-.527 1.125l-1.105.552a3.003 3.003 0 01-2.683 0l-1.106-.552a1.002 1.002 0 01-.527-1.125c.108-.451.51-.77.974-.77zM60.001 78a1 1 0 011 1v1.585c3.109.484 5.5 3.172 5.5 6.415v4.5H67a1 1 0 110 2H53a1 1 0 110-2h.501V87c0-3.243 2.391-5.931 5.5-6.415V79a1 1 0 011-1z" mask="url(#e)"/></g></g></g></svg>