<svg xmlns="http://www.w3.org/2000/svg" xmlns:xlink="http://www.w3.org/1999/xlink" width="422" height="344"><defs><filter id="d" width="113.9%" height="117.6%" x="-6.9%" y="-7.4%" filterUnits="objectBoundingBox"><feOffset dy="4" in="SourceAlpha" result="shadowOffsetOuter1"/><feGaussianBlur in="shadowOffsetOuter1" result="shadowBlurOuter1" stdDeviation="8"/><feColorMatrix in="shadowBlurOuter1" values="0 0 0 0 0 0 0 0 0 0 0 0 0 0 0 0 0 0 0.12 0"/></filter><filter id="f" width="110.7%" height="113.5%" x="-5.3%" y="-5.4%" filterUnits="objectBoundingBox"><feOffset dy="2" in="SourceAlpha" result="shadowOffsetOuter1"/><feGaussianBlur in="shadowOffsetOuter1" result="shadowBlurOuter1" stdDeviation="4"/><feColorMatrix in="shadowBlurOuter1" result="shadowMatrixOuter1" values="0 0 0 0 0 0 0 0 0 0 0 0 0 0 0 0 0 0 0.08 0"/><feOffset dy="4" in="SourceAlpha" result="shadowOffsetOuter2"/><feGaussianBlur in="shadowOffsetOuter2" result="shadowBlurOuter2" stdDeviation="6"/><feColorMatrix in="shadowBlurOuter2" result="shadowMatrixOuter2" values="0 0 0 0 0 0 0 0 0 0 0 0 0 0 0 0 0 0 0.04 0"/><feOffset in="SourceAlpha" result="shadowOffsetOuter3"/><feGaussianBlur in="shadowOffsetOuter3" result="shadowBlurOuter3" stdDeviation="2"/><feColorMatrix in="shadowBlurOuter3" result="shadowMatrixOuter3" values="0 0 0 0 0 0 0 0 0 0 0 0 0 0 0 0 0 0 0.04 0"/><feMerge><feMergeNode in="shadowMatrixOuter1"/><feMergeNode in="shadowMatrixOuter2"/><feMergeNode in="shadowMatrixOuter3"/></feMerge></filter><filter id="h" width="101.9%" height="110.9%" x="-.9%" y="-3.9%" filterUnits="objectBoundingBox"><feOffset dy="1" in="SourceAlpha" result="shadowOffsetOuter1"/><feGaussianBlur in="shadowOffsetOuter1" result="shadowBlurOuter1" stdDeviation="1"/><feComposite in="shadowBlurOuter1" in2="SourceAlpha" operator="out" result="shadowBlurOuter1"/><feColorMatrix in="shadowBlurOuter1" values="0 0 0 0 0 0 0 0 0 0 0 0 0 0 0 0 0 0 0.12 0"/></filter><path id="c" d="M8 0h359a8 8 0 018 8v288H0V8a8 8 0 018-8z"/><path id="g" d="M8 0h359a8 8 0 018 8v288H0V8a8 8 0 018-8z"/><path id="i" d="M0 0h375v64H0z"/><rect id="a" width="422" height="344" x="0" y="0" rx="4"/></defs><g fill="none" fill-rule="evenodd"><mask id="b" fill="#fff"><use xlink:href="#a"/></mask><use fill="#000" fill-opacity="0" xlink:href="#a"/><g mask="url(#b)"><g transform="translate(24 48)"><mask id="e" fill="#fff"><use xlink:href="#c"/></mask><use fill="#000" filter="url(#d)" xlink:href="#c"/><g mask="url(#e)"><use fill="#000" filter="url(#f)" xlink:href="#g"/><use fill="#FFF" xlink:href="#g"/></g><path fill="#000000" fill-opacity=".56" fill-rule="nonzero" d="M355.377 186c.804 0 1.419-.213 1.845-.64.15-.153.269-.322.356-.504a2.934 2.934 0 00.283-1.06c.008-.15.012-.28.012-.389v-.158c0-.134-.003-.29-.01-.469l-.02-.633-.03-.837c-.013-.314-.025-.673-.037-1.074a71.088 71.088 0 00-.232-3.39l-1.193.127a55.41 55.41 0 01.213 3.305l.073 1.842c.02.497.03.877.03 1.14v.068c0 .58-.103.976-.31 1.187-.194.195-.521.292-.98.292h-.462V186h.462zm-9.733 0c.633 0 1.232-.048 1.796-.143a12.452 12.452 0 001.604-.377c.505-.157.985-.333 1.44-.53.454-.197.89-.399 1.308-.606.102.26.253.492.454.697.2.205.44.379.718.52.278.143.591.251.94.326a5.35 5.35 0 001.126.113h.128v-1.193h-.128c-.073 0-.17-.003-.292-.01a3.534 3.534 0 01-.401-.045 4.253 4.253 0 01-.448-.1 2.014 2.014 0 01-.432-.177 1.503 1.503 0 01-.36-.274.928.928 0 01-.221-.392c.186-.094.371-.18.554-.262l.553-.244-.23-1.156c-.252 0-.502-.026-.75-.08a5.987 5.987 0 01-.742-.21 9.844 9.844 0 01-.74-.294c-.245-.11-.488-.222-.727-.335-.22-.102-.436-.201-.651-.298a8.863 8.863 0 00-.633-.26 4.933 4.933 0 00-.612-.179 2.73 2.73 0 00-.594-.067 2.34 2.34 0 00-1.123.286c-.355.191-.69.477-1.007.859a4.13 4.13 0 00-.29.383 9.872 9.872 0 00-.212.335 3.1 3.1 0 00-.186.347l1.096.493a3.225 3.225 0 01.225-.399c.073-.111.16-.231.262-.359.101-.128.216-.247.344-.359.127-.112.266-.204.417-.277.15-.073.308-.11.474-.11.126 0 .264.02.414.058.15.039.31.09.478.156.168.064.343.139.524.222l.557.258c.247.118.499.234.754.347.256.114.524.22.804.317a49.94 49.94 0 01-1.406.676c-.475.219-.965.413-1.47.584a11.77 11.77 0 01-1.58.41 9.336 9.336 0 01-1.735.156h-.876V186h.876zm-3.767-7.554l.992-.992-.999-.998-.992.992.999.998zM338.894 186c.32 0 .667-.014 1.04-.043.374-.028.758-.099 1.151-.213a10.424 10.424 0 00.74.13c.213.032.456.06.73.086.274.027.56.04.855.04h1.595l.006-1.193h-2.13c.101-.077.2-.164.298-.262.114-.11.226-.247.338-.414a3.52 3.52 0 00.493-1.138 2.546 2.546 0 00.058-.706 2.018 2.018 0 00-.183-.721 2.14 2.14 0 00-.426-.594c-.308-.3-.613-.482-.913-.545a3.9 3.9 0 00-.785-.094c-.179 0-.36.014-.542.043-.88.15-1.814.681-2.8 1.594.008-.312.012-.622.012-.93 0-1.563-.095-3.052-.286-4.469l-1.23.22.037.356c.025.233.059.589.104 1.068a27.112 27.112 0 01.14 2.708v.22c-.004.519-.018.967-.04 1.345a8.857 8.857 0 01-.1.955 7.538 7.538 0 00-.612.874c-.136.237-.232.4-.29.49h-1.022V186h3.762zm-.755-1.193h-.584c.353-.475.573-.765.66-.87.087-.106.182-.214.283-.323.552-.605 1.07-1.073 1.555-1.406.485-.333.937-.546 1.355-.64a1.579 1.579 0 01.469-.024c.162.017.313.058.453.125s.26.157.362.271a.862.862 0 01.201.414 1.206 1.206 0 01-.067.688c-.09.231-.25.442-.48.633a4.234 4.234 0 01-1.069.654 5.72 5.72 0 01-1.099.335c-.365.07-.72.113-1.065.125-.345.012-.67.018-.974.018zM335.376 186v-1.193h-.122c-.256 0-.476-.026-.66-.08a.95.95 0 01-.417-.218.507.507 0 01-.162-.314 3.288 3.288 0 01-.021-.386v-3.056a42.483 42.483 0 00-.125-3.208 9.023 9.023 0 00-.094-.76l-1.193.218c.036.191.068.436.094.734.026.298.049.624.067.977.018.353.031.718.04 1.096.008.377.012.74.012 1.09.004.356.006.695.006 1.016v.236c-.001.23-.003.44-.006.628a184.984 184.984 0 00-.012.907c0 .097.002.214.006.35a2.35 2.35 0 00.216.886c.07.154.173.298.307.432.22.219.486.381.8.487.315.105.696.158 1.142.158h.122zm-7.579-6.714l.986-.986-.998-.998-.986.992.998.992zm2.496.012l.986-.992-.998-.992-.986.986.998.998zM327.639 186c.333 0 .654-.022.965-.067.31-.045.595-.122.855-.231.26-.11.49-.256.691-.439.2-.182.362-.411.484-.687.122-.28.183-.605.183-.974 0-.065-.003-.13-.007-.195-.028-.45-.133-.97-.316-1.558a7.904 7.904 0 00-.195-.563 12.302 12.302 0 00-.335-.786 1.499 1.499 0 01-.054-.124l-1.084.535.53 1.303a3.959 3.959 0 01.274 1.038c.008.107.012.187.012.24 0 .098-.006.189-.019.274-.02.13-.05.237-.09.323a.953.953 0 01-.342.398 1.674 1.674 0 01-.505.216c-.19.05-.398.079-.62.089-.224.01-.453.015-.689.015h-1.174V186h1.436zm-6.702 3.969c.268 0 .569-.019.901-.055a7.469 7.469 0 001.008-.183c.338-.085.668-.195.989-.331.32-.136.606-.304.858-.503.252-.198.455-.432.609-.7a1.854 1.854 0 00.213-1.199 1.28 1.28 0 00-.098-.316 1.74 1.74 0 00-.204-.338c-.087-.116-.2-.23-.337-.344h1.57v-1.193h-4.803l-.09 1.187.133.024a8.487 8.487 0 01.584.134c.122.033.253.07.393.11.14.04.281.085.423.134.231.085.426.17.584.255.159.086.288.166.387.24.1.076.171.147.216.214a.33.33 0 01.067.173.756.756 0 01-.204.524c-.136.15-.31.28-.52.39-.211.109-.448.201-.71.276a7.627 7.627 0 01-1.47.274 6.32 6.32 0 01-.499.028c-.203 0-.435-.004-.697-.013a4.438 4.438 0 01-.79-.097 3.022 3.022 0 01-.768-.277 1.705 1.705 0 01-.618-.55c-.255-.39-.383-.898-.383-1.523 0-.986.318-2.262.956-3.828l-1.114-.45c-.637 1.541-.982 2.864-1.035 3.968-.004.101-.006.2-.006.298 0 .889.197 1.621.59 2.198.187.316.427.57.721.764.295.192.615.341.962.447.347.105.71.175 1.087.21.377.034.742.052 1.095.052zM307.832 186c.333 0 .655-.022.965-.067.31-.045.595-.122.855-.231.26-.11.49-.256.691-.439.2-.182.362-.411.484-.687.122-.28.183-.605.183-.974 0-.065-.002-.13-.007-.195-.028-.45-.133-.97-.316-1.558a7.904 7.904 0 00-.195-.563 12.306 12.306 0 00-.335-.786 1.499 1.499 0 01-.054-.124l-1.084.535.53 1.303a3.959 3.959 0 01.274 1.038c.008.107.012.187.012.24 0 .098-.006.189-.018.274-.02.13-.051.237-.092.323a.953.953 0 01-.34.398 1.674 1.674 0 01-.506.216c-.19.05-.398.079-.62.089-.224.01-.453.015-.689.015h-1.174V186h1.436zm2.32 3.171l.998-.998-.987-.986-.998.998.986.986zm-2.66.012l.998-.998-.987-.992-.998.998.986.992zm1.357 1.741l.907-.907-.901-.9-.907.906.9.901zM302.117 186c.381 0 .713-.015.995-.046.282-.03.528-.077.74-.14a2.273 2.273 0 00.973-.569c.175.223.398.405.67.545s.613.21 1.022.21h.122v-1.193h-.122a.86.86 0 01-.508-.14.999.999 0 01-.31-.353 1.667 1.667 0 01-.162-.463 4.3 4.3 0 01-.067-.474 18.669 18.669 0 00-.11-1.054 5.718 5.718 0 00-.176-.827l-1.144.322c.09.309.151.583.186.822.034.24.051.475.051.706 0 .244-.04.457-.121.64a1.1 1.1 0 01-.38.456 1.85 1.85 0 01-.67.274c-.274.06-.604.091-.99.091h-.906V186h.907zm.225 2.977l.986-.987-.998-.998-.987.992.999.993zm2.495.012l.986-.992-.998-.993-.986.986.998.999zm-8.954-10.519l.901-.9-.907-.907-.9.9.906.907zm-1.375 1.924l.986-.992-.998-.999-.986.993.998.998zm2.672.006l.986-.986-.998-.998-.986.986.998.998zm-8.68 9.636a7.56 7.56 0 001.796-.283 3.726 3.726 0 001.415-.755c.396-.343.704-.788.925-1.336.221-.548.332-1.224.332-2.027.09.065.176.12.262.167a1.57 1.57 0 00.569.183c.107.014.232.021.374.021.345 0 .67-.064.977-.192.306-.127.581-.333.825-.617.085.13.185.244.301.343.116.1.237.184.365.253s.257.122.387.158c.13.037.25.055.359.055a1.802 1.802 0 001.096-.353c.154-.114.29-.247.41-.402.12-.154.22-.326.302-.517.101.199.23.376.386.533a2.515 2.515 0 001.114.648c.21.057.421.085.636.085h.122v-1.193h-.122c-.231 0-.433-.053-.605-.158a1.615 1.615 0 01-.454-.42 2.51 2.51 0 01-.325-.603 5.076 5.076 0 01-.214-.706 7.082 7.082 0 01-.124-.727 8.702 8.702 0 01-.055-.673l-1.193.085c.008.138.021.313.04.524a7.854 7.854 0 01-.01 1.394c-.024.239-.073.455-.146.648s-.176.35-.31.472a.748.748 0 01-.524.182.568.568 0 01-.39-.134.913.913 0 01-.24-.356 2.093 2.093 0 01-.124-.505 3.853 3.853 0 01-.037-.48v-.302c0-.13.002-.26.006-.39.008-.19.014-.363.018-.517l-1.235-.091c-.008.207-.016.418-.022.633a6.9 6.9 0 01-.045.627c-.025.202-.06.394-.107.575-.046.18-.116.338-.21.472-.093.133-.212.24-.356.32-.144.078-.323.118-.539.118-.28 0-.51-.068-.69-.204a1.75 1.75 0 01-.46-.53 4.094 4.094 0 01-.326-.724 25.135 25.135 0 00-.283-.782 13.107 13.107 0 01-.225-.59l-1.01.657c.134.349.254.699.362 1.05.107.35.185.687.234 1.007a6.053 6.053 0 01.067 1.169 5.05 5.05 0 01-.207 1.162c-.37 1.129-1.416 1.733-3.14 1.814h-.208c-.345 0-.645-.037-.9-.112a2.56 2.56 0 01-.664-.292 1.95 1.95 0 01-.466-.408 2.592 2.592 0 01-.304-.463 2.316 2.316 0 01-.177-.453 3.75 3.75 0 01-.082-.378 3.527 3.527 0 01-.03-.712c.012-.24.04-.478.082-.715a6.898 6.898 0 01.36-1.288c.07-.182.141-.341.212-.477.071-.136.133-.239.186-.308l-.968-.718a8.791 8.791 0 00-.478.92c-.152.336-.28.694-.383 1.073-.104.38-.168.709-.192.987a5.374 5.374 0 00.018 1.41c.073.494.218.935.435 1.323.218.387.494.717.828.989.335.272.718.479 1.148.62.43.143.894.214 1.394.214h.237zm-12.533-4.042c.243 0 .488-.018.733-.055.246-.036.482-.095.71-.176a3.04 3.04 0 00.636-.314c.196-.128.368-.28.514-.46a1.474 1.474 0 00.317-.645c.032-.142.05-.304.051-.487a2.812 2.812 0 00-.07-.614 4.424 4.424 0 00-.277-.795 6.44 6.44 0 00-.444-.815 8.06 8.06 0 00-1.233-1.495 6.963 6.963 0 00-.709-.59 4.27 4.27 0 00-.721-.426l-.493 1.108c.182.08.37.19.56.328.19.138.378.296.563.475.185.179.362.37.533.575.17.205.325.416.465.633.14.217.26.435.36.652.099.217.17.425.215.624.033.146.05.271.05.377 0 .146-.031.256-.092.329-.138.166-.309.29-.512.37a1.959 1.959 0 01-.547.144 3.497 3.497 0 01-.84-.01 5.173 5.173 0 01-1.419-.386 3.7 3.7 0 01-.541-.283l-.5 1.145c.102.093.262.186.481.28a7.376 7.376 0 001.519.441c.266.047.496.07.691.07zm-8.071 4.364c.34-.166.676-.354 1.007-.563.33-.209.645-.437.944-.685.298-.247.574-.51.827-.79.254-.28.473-.575.658-.883.184-.309.328-.628.432-.96.103-.33.155-.672.155-1.025 0-.178-.014-.361-.042-.548a8.704 8.704 0 00-.107-.569c-.043-.193-.09-.387-.14-.584l-.15-.588a9.053 9.053 0 00-.151-.556 65.373 65.373 0 01-.17-.564l-1.157.366c.11.34.213.681.31 1.022.045.167.091.337.14.512.049.174.094.349.134.523.04.175.074.345.1.511.027.167.04.325.04.475 0 .394-.095.775-.286 1.145a4.51 4.51 0 01-.758 1.046 6.964 6.964 0 01-1.074.91 9.912 9.912 0 01-1.242.734l.53 1.071zm-7.64-11.072l.987-.986-.999-.998-.986.992.999.992zm2.496.012l.986-.992-.998-.992-.986.986.998.998zM260.098 186c.333 0 .655-.022.965-.067.31-.045.596-.122.855-.231.26-.11.49-.256.691-.439.201-.182.362-.411.484-.687.122-.28.183-.605.183-.974 0-.065-.002-.13-.006-.195-.029-.45-.134-.97-.317-1.558a7.904 7.904 0 00-.195-.563 12.306 12.306 0 00-.335-.786 1.499 1.499 0 01-.054-.124l-1.084.535.53 1.303a3.959 3.959 0 01.274 1.038c.008.107.012.187.012.24 0 .098-.006.189-.018.274-.02.13-.051.237-.092.323a.953.953 0 01-.34.398 1.674 1.674 0 01-.506.216c-.19.05-.397.079-.62.089-.224.01-.453.015-.688.015h-1.175V186h1.436zm-3.354 4.005l.761-.925a1.506 1.506 0 01-.39-.584 1.813 1.813 0 01-.103-.585 1.935 1.935 0 01.173-.77c.096-.213.22-.402.375-.569a1.92 1.92 0 01.533-.405c.2-.103.415-.159.642-.167h.17v-1.193h-.122c-.235 0-.47.035-.703.106a3.138 3.138 0 00-1.737 1.33 2.39 2.39 0 00-.36 1.425 1.43 1.43 0 01-.374-.338 4.072 4.072 0 01-.332-.478 5.661 5.661 0 01-.27-.511c-.08-.17-.144-.315-.192-.432.272-.045.531-.117.779-.216.247-.1.477-.226.688-.378a2.902 2.902 0 00.98-1.238c.073-.175.116-.35.13-.527.015-.177.022-.32.022-.43 0-.15-.008-.306-.024-.468a4.61 4.61 0 00-.174-.812 2.974 2.974 0 00-.326-.722 1.702 1.702 0 00-.465-.499 1.012 1.012 0 00-.588-.182h-.06c-.276.012-.53.095-.761.25a2.56 2.56 0 00-.624.599 4.15 4.15 0 00-.481.834c-.136.31-.249.624-.338.943-.09.319-.151.613-.186.883-.034.27-.051.5-.051.69 0 .061.002.118.006.171h-.98V186h1.205l.055.152a6.811 6.811 0 001.083 2.04c.256.332.552.653.889.961.337.308.72.593 1.15.852zm-2.014-5.259c-.061 0-.124-.004-.19-.012a2.17 2.17 0 01-.017-.292c0-.09.004-.183.012-.28.02-.211.058-.426.112-.645.055-.22.123-.435.204-.646.081-.21.173-.4.274-.569.102-.168.208-.306.32-.414a.585.585 0 01.338-.18c.182.135.315.307.398.518.083.211.124.434.122.67a2.064 2.064 0 01-.13.7 2.05 2.05 0 01-.357.617c-.152.181-.323.315-.511.402-.189.087-.38.131-.575.131zm-7.433 5.746a11.123 11.123 0 001.492-.9 7.948 7.948 0 001.287-1.142c.375-.416.677-.865.904-1.348.227-.483.34-.99.34-1.522v-.024c.102.11.209.194.32.255a1.475 1.475 0 00.624.183c.09.004.163.006.22.006h.103v-1.193h-.097c-.203 0-.389-.049-.557-.146a1.645 1.645 0 01-.484-.46 4.3 4.3 0 01-.45-.81c-.147-.33-.297-.73-.451-1.201l-1.145.353c.05.15.108.337.177.563.069.225.138.465.207.721.069.256.133.516.192.782s.102.514.13.746a2.272 2.272 0 01-.067.822 3.158 3.158 0 01-.331.785c-.148.251-.33.492-.545.721-.215.23-.45.447-.706.654a8.3 8.3 0 01-.816.582c-.288.18-.578.346-.87.496l.523 1.077zm-.718-4.437a28.5 28.5 0 00.1-1.905c.01-.597.016-1.074.016-1.43 0-.593-.006-1.226-.018-1.9a55.636 55.636 0 00-.31-4.431l-1.194.182c.138 1.279.248 2.902.329 4.87.012.337.018.694.018 1.071 0 .313-.004.64-.012.98-.02.755-.063 1.587-.128 2.496l1.2.067zm-7.256-2.995l.993-.992-.999-.998-.992.992.998.998zm-.267 7.122c.499 0 .973-.053 1.421-.159a4.386 4.386 0 001.226-.483c.37-.218.693-.492.971-.825.278-.333.494-.729.649-1.187.146-.438.225-.788.237-1.05.012-.262.018-.437.018-.527a6.278 6.278 0 00-.344-2.066 9.757 9.757 0 00-.347-.889 6.902 6.902 0 00-.46-.867l-1.01.645c.004 0 .042.06.113.18.071.12.153.284.247.493.093.209.187.454.283.736a5.788 5.788 0 01.3 1.854v.073a3.791 3.791 0 01-.176 1.053c-.089.284-.223.538-.401.764-.179.225-.4.415-.664.572-.264.156-.57.275-.919.356a5.17 5.17 0 01-1.169.122c-.345 0-.652-.038-.922-.113a2.885 2.885 0 01-.706-.292c-.2-.12-.372-.255-.514-.405a2.65 2.65 0 01-.353-.46 2.218 2.218 0 01-.21-.45 2.4 2.4 0 01-.095-.38 3.57 3.57 0 01-.03-.719c.012-.243.04-.483.082-.718.043-.235.096-.462.161-.679.065-.217.133-.417.204-.6.071-.182.141-.341.21-.477.07-.136.13-.24.183-.314l-.968-.712a8.651 8.651 0 00-.478.922c-.152.34-.28.697-.383 1.075a5.673 5.673 0 00-.192.983 5.374 5.374 0 00.018 1.41c.081.53.239.993.472 1.387.233.393.527.72.88.977s.755.45 1.208.578c.452.128.938.192 1.458.192zm-6.215-4.188a1.096 1.096 0 00.703-.256c.095-.08.173-.176.234-.286.061-.11.096-.23.104-.359v-.049a.81.81 0 00-.116-.432.909.909 0 00-.34-.316.814.814 0 00-.336-.113 15.355 15.355 0 00-.14-.003.82.82 0 00-.426.116c0-.585.384-1.155 1.15-1.71a81.508 81.508 0 00-.294-.238 5.085 5.085 0 00-.26-.195c-.965.686-1.448 1.506-1.448 2.46 0 .182.026.356.076.523.051.166.125.313.222.441.098.128.22.23.366.304.146.075.314.113.505.113zM217.8 186a9.77 9.77 0 001.82-.17c.6-.114 1.182-.261 1.744-.442.562-.18 1.1-.382 1.613-.605.513-.224.993-.447 1.44-.67l.876-.43c.28-.135.562-.262.846-.38l-.231-1.156c-.252 0-.501-.026-.749-.08a5.987 5.987 0 01-.742-.21 9.844 9.844 0 01-.74-.294c-.246-.11-.488-.222-.727-.335-.22-.102-.437-.201-.652-.298a8.863 8.863 0 00-.633-.26 4.933 4.933 0 00-.612-.179 2.73 2.73 0 00-.593-.067 2.34 2.34 0 00-1.123.286c-.355.191-.69.477-1.007.859a4.13 4.13 0 00-.29.383 9.872 9.872 0 00-.213.335 3.1 3.1 0 00-.185.347l1.095.493a3.225 3.225 0 01.225-.399c.074-.111.16-.231.262-.359.102-.128.216-.247.344-.359.128-.112.267-.204.417-.277.15-.073.309-.11.475-.11.126 0 .264.02.414.058.15.039.31.09.478.156.168.064.343.139.523.222l.557.258c.248.118.5.234.755.347.256.114.523.22.803.317-.462.231-.943.456-1.442.676-.5.219-1.01.413-1.534.584-.524.17-1.055.307-1.595.41a8.58 8.58 0 01-1.619.156h-1.32V186h1.32zm3.7 3.16l.993-.993-.998-.998-.992.992.998.998zM209.43 186c.625 0 1.17-.164 1.632-.493.235-.162.406-.327.511-.493.759.532 1.544.848 2.356.95.069.008.136.012.2.012.419 0 .774-.193 1.066-.579.154.203.348.354.581.454.233.1.5.149.8.149h.147v-1.193h-.146a.81.81 0 01-.627-.28.938.938 0 01-.17-.298 1.174 1.174 0 01-.068-.36 5.122 5.122 0 00-.07-.663 3.566 3.566 0 00-.469-1.257 2.221 2.221 0 00-.41-.496 1.821 1.821 0 00-.54-.335 1.78 1.78 0 00-.672-.121c-.357 0-.662.094-.916.283a2.405 2.405 0 00-.642.733l-.046.076c-.018.03-.047.085-.088.164l-.17.341a58.08 58.08 0 01-.299.594 5.844 5.844 0 01-.444.736c-.438.585-.941.879-1.51.883h-.127V186h.121zm4.56-1.211a1.23 1.23 0 01-.201-.019 3.03 3.03 0 01-.673-.237 6.245 6.245 0 01-.83-.487l.033-.067.079-.161c.038-.08.094-.193.167-.341l.292-.6c.248-.454.48-.681.694-.681.183 0 .341.05.475.152.134.101.245.232.332.392.087.16.154.34.2.54.047.198.075.395.083.59v.097c0 .11-.01.209-.03.298a.874.874 0 01-.128.292c-.106.155-.27.232-.493.232zm-6.599 5.216l.761-.925a1.506 1.506 0 01-.39-.584 1.813 1.813 0 01-.103-.585 1.935 1.935 0 01.173-.77c.096-.213.22-.402.375-.569a1.92 1.92 0 01.533-.405c.2-.103.414-.159.642-.167h.17v-1.193h-.122c-.235 0-.47.035-.703.106a3.138 3.138 0 00-1.737 1.33 2.39 2.39 0 00-.36 1.425 1.43 1.43 0 01-.374-.338 4.072 4.072 0 01-.332-.478 5.662 5.662 0 01-.27-.511c-.08-.17-.144-.315-.192-.432.272-.045.531-.117.779-.216.247-.1.477-.226.688-.378a2.902 2.902 0 00.98-1.238c.073-.175.116-.35.13-.527.015-.177.022-.32.022-.43 0-.15-.008-.306-.024-.468a4.61 4.61 0 00-.174-.812 2.974 2.974 0 00-.326-.722 1.702 1.702 0 00-.465-.499 1.012 1.012 0 00-.588-.182h-.06c-.276.012-.53.095-.761.25a2.56 2.56 0 00-.624.599 4.15 4.15 0 00-.481.834c-.136.31-.249.624-.338.943-.09.319-.151.613-.186.883-.034.27-.051.5-.051.69 0 .061.002.118.006.171h-.98V186h1.205l.055.152a6.811 6.811 0 001.083 2.04c.256.332.552.653.889.961.337.308.72.593 1.15.852zm-2.014-5.259c-.061 0-.124-.004-.19-.012a2.17 2.17 0 01-.017-.292c0-.09.004-.183.012-.28.02-.211.058-.426.112-.645.055-.22.123-.435.204-.646.081-.21.173-.4.274-.569.102-.168.208-.306.32-.414a.585.585 0 01.338-.18c.182.135.315.307.398.518.083.211.124.434.122.67a2.064 2.064 0 01-.13.7 2.05 2.05 0 01-.357.617c-.152.181-.323.315-.511.402-.189.087-.38.131-.575.131zm-7.84 5.527a7.459 7.459 0 001.72-.487 6.291 6.291 0 001.509-.889 5.424 5.424 0 001.156-1.269 4.598 4.598 0 00.66-1.628h.67v-1.193h-.578a5.794 5.794 0 00-.329-1.768 4.675 4.675 0 00-.353-.77 3.846 3.846 0 00-.462-.646c-.483-.519-1.013-.779-1.59-.779-.259 0-.51.066-.75.198a2.284 2.284 0 00-.673.581c-.17.22-.319.48-.445.783a3.435 3.435 0 00-.24.81 4.237 4.237 0 00-.052.587c0 .162.014.324.043.487.048.308.166.58.353.815.422.524 1.073.812 1.954.865.223.02.423.03.6.03h.69c-.045.304-.17.614-.374.928a3.805 3.805 0 01-.837.892c-.353.28-.777.532-1.272.755a7.854 7.854 0 01-1.68.523l.28 1.175zm3.342-5.479h-.098c-.179 0-.37-.005-.572-.017a3.068 3.068 0 01-.259-.028c-.1-.014-.2-.036-.304-.067a1.43 1.43 0 01-.293-.122.716.716 0 01-.228-.197.57.57 0 01-.125-.29 2.13 2.13 0 01-.02-.27c0-.09.005-.181.017-.274a2.765 2.765 0 01.326-.999c.083-.142.178-.258.283-.35a.505.505 0 01.335-.137c.073 0 .142.013.207.037a.94.94 0 01.185.094c.06.039.114.082.165.128.05.047.096.09.137.131.101.118.2.257.295.417.095.16.182.34.259.539.077.199.14.414.188.645.05.231.08.477.092.736a7.117 7.117 0 01-.59.024zm-8.851 5.564c.34-.166.676-.354 1.007-.563.33-.209.645-.437.944-.685.298-.247.574-.51.828-.79.253-.28.472-.575.657-.883.185-.309.329-.628.432-.96.104-.33.155-.672.155-1.025a3.64 3.64 0 00-.042-.548 8.704 8.704 0 00-.107-.569c-.042-.193-.09-.387-.14-.584l-.149-.588a9.052 9.052 0 00-.152-.556 65.373 65.373 0 01-.17-.564l-1.157.366c.11.34.213.681.31 1.022l.14.512c.049.174.094.349.134.523.04.175.074.345.1.511.027.167.04.325.04.475 0 .394-.095.775-.286 1.145a4.51 4.51 0 01-.758 1.046 6.964 6.964 0 01-1.074.91 9.912 9.912 0 01-1.242.734l.53 1.071zm-5.758-.079c.67 0 1.285-.058 1.847-.173a5.922 5.922 0 001.519-.52c.474-.236.853-.52 1.135-.85.282-.33.46-.697.532-1.099.029-.158.043-.302.043-.432 0-.134-.014-.253-.043-.359a1.29 1.29 0 00-.736-.873 3.74 3.74 0 00-.581-.22 9.251 9.251 0 00-.621-.155 5.114 5.114 0 01-.582-.158 1.879 1.879 0 01-.465-.228.724.724 0 01-.277-.356 1.06 1.06 0 01-.043-.56c.029-.2.09-.396.186-.59.095-.196.217-.383.365-.564.148-.18.309-.34.481-.48.172-.14.35-.256.533-.348.182-.091.359-.145.53-.161a2.23 2.23 0 01.425-.043h.092c.162.013.306.032.432.058.126.027.227.054.304.082l.11.05.53-1.115a8.352 8.352 0 01-.199-.079 3.164 3.164 0 00-.471-.14 3.36 3.36 0 00-.524-.082 3.199 3.199 0 00-.956.052 3.624 3.624 0 00-.906.328c-.289.15-.553.332-.795.545a4.086 4.086 0 00-.642.718 3.881 3.881 0 00-.45.843 3.095 3.095 0 00-.204.77 5.275 5.275 0 00-.034.503c0 .203.02.407.061.614.061.305.184.55.368.737.185.187.398.338.64.453.24.116.494.206.757.271.264.065.506.127.725.186a2.5 2.5 0 01.526.195c.132.07.198.165.198.283v.03c-.02.207-.122.407-.304.6-.183.192-.438.365-.764.517a5.203 5.203 0 01-1.184.365 8.082 8.082 0 01-1.558.137c-.589 0-1.098-.073-1.528-.219-.43-.146-.773-.365-1.029-.657a1.812 1.812 0 01-.313-.484 2.437 2.437 0 01-.21-.995v-.049c0-.17.01-.329.03-.475a12.05 12.05 0 01.353-1.735c.158-.56.329-1.126.511-1.698l-1.162-.408a2.872 2.872 0 00-.07.195 35.17 35.17 0 00-.34 1.093 19.3 19.3 0 00-.394 1.588c-.057.282-.101.555-.134.82a5.158 5.158 0 00-.036.602c0 .373.044.722.134 1.047.134.503.367.945.7 1.327.381.426.865.748 1.451.967.587.22 1.266.33 2.037.33zm-10.33-2.435v-11.796h-1.017v11.796h1.017zm-12.034-10.53l4.894-2.07-.286-.614-4.565 1.905-.043.779zm1.321 8.686c.211 0 .387-.014.53-.043.86-.158 1.47-.558 1.832-1.199.085-.154.159-.324.222-.511s.101-.354.116-.502a3.123 3.123 0 00-.015-.813 3.644 3.644 0 00-.22-.791 5.116 5.116 0 00-.462-.886 7.535 7.535 0 00-.761-.977 9.49 9.49 0 00-.7-.7 39.169 39.169 0 00-.652-.572l4.359-1.832-.469-1.108-5.004 2.143-.14 1.248a15.432 15.432 0 011.85 1.768c.26.294.479.57.655.828.177.257.287.47.332.636.057.219.085.424.085.614a1.495 1.495 0 01-.243.828c-.114.17-.27.302-.469.393a2.705 2.705 0 01-.657.2c-.24.043-.491.068-.755.074-.264.006-.518.009-.761.009h-.76V186h2.087zm-7.56 4.273a7.459 7.459 0 001.72-.487 6.291 6.291 0 001.51-.889 5.424 5.424 0 001.156-1.269 4.598 4.598 0 00.66-1.628h.67v-1.193h-.579a5.794 5.794 0 00-.329-1.768 4.675 4.675 0 00-.352-.77 3.846 3.846 0 00-.463-.646c-.483-.519-1.012-.779-1.589-.779-.26 0-.51.066-.751.198a2.284 2.284 0 00-.673.581c-.17.22-.319.48-.444.783a3.435 3.435 0 00-.24.81 4.237 4.237 0 00-.053.587c0 .162.015.324.043.487.049.308.166.58.353.815.422.524 1.073.812 1.954.865.223.02.423.03.6.03h.69c-.044.304-.169.614-.374.928a3.805 3.805 0 01-.837.892 6.02 6.02 0 01-1.272.755 7.854 7.854 0 01-1.68.523l.28 1.175zm3.342-5.479h-.098c-.178 0-.369-.005-.572-.017a3.068 3.068 0 01-.259-.028c-.099-.014-.2-.036-.304-.067a1.43 1.43 0 01-.292-.122.716.716 0 01-.228-.197.57.57 0 01-.125-.29 2.13 2.13 0 01-.021-.27 2.765 2.765 0 01.344-1.272c.083-.143.177-.26.283-.35a.505.505 0 01.334-.138c.073 0 .142.013.207.037a.94.94 0 01.186.094c.059.039.114.082.164.128.051.047.097.09.137.131.102.118.2.257.295.417.096.16.182.34.26.539.076.199.14.414.188.645.049.231.079.477.091.736a7.117 7.117 0 01-.59.024zm-8.589-6.89l.9-.9-.906-.907-.901.9.907.907zm-1.376 1.924l.986-.992-.998-.999-.986.993.998.998zm2.673.006l.986-.986-.999-.998-.986.986.999.998zm.206 6.239c.378 0 .709-.053.993-.158.292-.106.535-.258.73-.457.195-.199.341-.439.438-.721.098-.282.146-.598.146-.947 0-.23-.02-.468-.063-.712a6.734 6.734 0 00-.165-.712 10.71 10.71 0 00-.752-1.899l-1.065.56a10.738 10.738 0 01.515 1.245c.087.257.162.52.225.788s.094.517.094.749c0 .178-.02.339-.06.48a.814.814 0 01-.199.354.668.668 0 01-.31.185 1.37 1.37 0 01-.35.046c-.069 0-.142-.004-.22-.012a.568.568 0 01-.307-.119.741.741 0 01-.2-.256 1.287 1.287 0 01-.11-.359 2.647 2.647 0 01-.033-.429c0-.166.012-.356.036-.569.024-.213.052-.414.082-.603.03-.188.058-.35.082-.484l.03-.194-1.168-.213a14.56 14.56 0 01-.1.587 8.363 8.363 0 01-.165.697c-.067.24-.148.475-.243.706a3.216 3.216 0 01-.335.621c-.128.183-.274.33-.438.444a.956.956 0 01-.557.17.643.643 0 01-.323-.072.545.545 0 01-.2-.195.852.852 0 01-.104-.277c-.02-.104-.03-.21-.03-.32 0-.158.016-.33.048-.514.033-.185.071-.365.116-.542a11.172 11.172 0 01.256-.873l-1.206-.256c-.04.199-.089.41-.146.633a6.81 6.81 0 01-.207.667 4.861 4.861 0 01-.286.636c-.11.203-.238.382-.386.539a1.812 1.812 0 01-.509.377c-.19.095-.405.143-.645.143h-.134V186h.128c.235 0 .452-.02.648-.058a2.366 2.366 0 00.99-.432c.137-.103.267-.22.389-.35.065.15.157.282.277.396.12.113.253.209.399.286.146.077.299.135.46.173a1.989 1.989 0 001.445-.192c.308-.166.584-.391.828-.675.085.13.188.25.31.362.122.112.254.209.396.292.142.083.291.15.447.198.156.049.312.073.466.073h.042zm-12.49 3.896c.268 0 .568-.019.9-.055a7.469 7.469 0 001.008-.183c.34-.085.669-.195.99-.331.32-.136.606-.304.858-.503.251-.198.454-.432.608-.7a1.854 1.854 0 00.213-1.199 1.28 1.28 0 00-.097-.316 1.74 1.74 0 00-.204-.338c-.087-.116-.2-.23-.338-.344h1.57v-1.193h-4.802l-.091 1.187.134.024a8.487 8.487 0 01.584.134c.122.033.253.07.393.11.14.04.28.085.423.134.231.085.426.17.584.255.158.086.287.166.387.24.099.076.171.147.216.214a.33.33 0 01.067.173.756.756 0 01-.204.524c-.136.15-.31.28-.52.39-.212.109-.448.201-.71.276a7.627 7.627 0 01-1.47.274 6.32 6.32 0 01-.499.028c-.203 0-.435-.004-.697-.013a4.438 4.438 0 01-.791-.097 3.022 3.022 0 01-.767-.277 1.705 1.705 0 01-.618-.55c-.256-.39-.383-.898-.383-1.523 0-.986.318-2.262.955-3.828l-1.114-.45c-.637 1.541-.982 2.864-1.035 3.968-.004.101-.006.2-.006.298 0 .889.197 1.621.59 2.198.187.316.428.57.722.764.294.192.615.341.962.447.347.105.709.175 1.086.21.378.034.743.052 1.096.052zM125.053 186c.248 0 .48-.012.7-.037a2.77 2.77 0 00.62-.14 2.05 2.05 0 00.552-.298 2.48 2.48 0 00.496-.517c.187.138.39.273.609.405.219.131.447.243.684.334a2.63 2.63 0 00.983.198c.167 0 .333-.022.5-.067.263-.073.486-.204.67-.392.182-.189.326-.41.431-.664.106-.253.17-.486.195-.697.024-.21.037-.381.037-.511 0-.146-.01-.288-.03-.426a3.683 3.683 0 00-.217-.804 2.506 2.506 0 00-.417-.706 2.058 2.058 0 00-.63-.502 1.812 1.812 0 00-.849-.192c-.268 0-.502.054-.703.162-.201.107-.38.247-.536.42a3.21 3.21 0 00-.42.59c-.124.221-.24.445-.35.673-.126.251-.25.496-.374.733-.124.238-.27.449-.438.633a1.908 1.908 0 01-.612.445c-.24.111-.54.167-.901.167h-.122V186h.122zm4.626-1.266c-.162 0-.345-.04-.548-.122a4.697 4.697 0 01-1.01-.59l.329-.664c.101-.199.191-.371.27-.517.08-.146.155-.268.226-.365a.862.862 0 01.213-.216.408.408 0 01.228-.07c.122 0 .23.024.323.073.093.048.174.11.243.185s.128.159.177.25a1.98 1.98 0 01.188.496c.016.069.027.118.03.146.017.11.025.215.025.317a1.822 1.822 0 01-.113.615 1.035 1.035 0 01-.167.298.389.389 0 01-.2.14.878.878 0 01-.214.024zm-10.22 5.539a7.459 7.459 0 001.72-.487 6.291 6.291 0 001.51-.889 5.424 5.424 0 001.156-1.269 4.598 4.598 0 00.66-1.628h.67v-1.193h-.578a5.794 5.794 0 00-.329-1.768 4.675 4.675 0 00-.353-.77 3.846 3.846 0 00-.463-.646c-.483-.519-1.012-.779-1.589-.779-.26 0-.51.066-.751.198a2.284 2.284 0 00-.673.581c-.17.22-.318.48-.444.783a3.435 3.435 0 00-.24.81 4.237 4.237 0 00-.052.587c0 .162.014.324.042.487.049.308.167.58.353.815.422.524 1.074.812 1.954.865.223.02.423.03.6.03h.69c-.044.304-.169.614-.374.928a3.805 3.805 0 01-.837.892 6.02 6.02 0 01-1.272.755 7.854 7.854 0 01-1.68.523l.28 1.175zm3.343-5.479h-.099c-.178 0-.369-.005-.572-.017a3.068 3.068 0 01-.258-.028c-.1-.014-.201-.036-.305-.067a1.43 1.43 0 01-.292-.122.716.716 0 01-.228-.197.57.57 0 01-.125-.29 2.13 2.13 0 01-.021-.27 2.765 2.765 0 01.344-1.272c.083-.143.177-.26.283-.35a.505.505 0 01.334-.138c.074 0 .143.013.207.037a.94.94 0 01.186.094c.059.039.114.082.164.128.051.047.097.09.137.131.102.118.2.257.296.417.095.16.181.34.258.539.077.199.14.414.189.645.049.231.08.477.091.736a7.117 7.117 0 01-.59.024zM115.198 186c.333 0 .642-.022.929-.067a2.82 2.82 0 00.776-.231c.23-.11.435-.256.611-.439.177-.182.326-.411.448-.687.121-.28.182-.605.182-.974 0-.065-.002-.13-.006-.195-.028-.45-.134-.97-.316-1.558a7.904 7.904 0 00-.195-.563 12.304 12.304 0 00-.335-.786 1.499 1.499 0 01-.055-.124l-1.083.535.53 1.303a3.959 3.959 0 01.273 1.038c.009.107.013.187.013.24 0 .098-.007.189-.019.274-.02.13-.05.237-.091.323a1.09 1.09 0 01-.304.398 1.28 1.28 0 01-.426.216 2.29 2.29 0 01-.542.089c-.199.01-.416.015-.651.015h-.707V186h.968zm.999 3.171l.992-.992-.999-.998-.992.992.999.998zM114.474 186v-1.193h-.122c-.255 0-.476-.026-.66-.08a.95.95 0 01-.417-.218.507.507 0 01-.162-.314 3.288 3.288 0 01-.02-.386v-3.056a42.487 42.487 0 00-.126-3.208 9.022 9.022 0 00-.094-.76l-1.193.218c.037.191.068.436.094.734.027.298.049.624.067.977.019.353.032.718.04 1.096.008.377.012.74.012 1.09a89.654 89.654 0 010 1.88 185.216 185.216 0 00-.012.907c0 .097.002.214.006.35a2.35 2.35 0 00.216.886c.071.154.174.298.307.432.22.219.486.381.8.487.315.105.696.158 1.142.158h.122zm-7.737 0c.333 0 .655-.022.965-.067.31-.045.596-.122.855-.231.26-.11.49-.256.691-.439.201-.182.362-.411.484-.687.122-.28.183-.605.183-.974 0-.065-.002-.13-.006-.195-.029-.45-.134-.97-.317-1.558a7.904 7.904 0 00-.195-.563 12.302 12.302 0 00-.334-.786 1.499 1.499 0 01-.055-.124l-1.084.535.53 1.303a3.959 3.959 0 01.274 1.038c.008.107.012.187.012.24 0 .098-.006.189-.018.274-.02.13-.051.237-.092.323a.953.953 0 01-.34.398 1.674 1.674 0 01-.506.216c-.19.05-.397.079-.62.089-.224.01-.453.015-.688.015H105.3V186h1.436zm-.304 2.977l.986-.987-.998-.998-.986.992.998.993zm2.496.012l.986-.992-.998-.993-.987.986.999.999zm-8.632 1.004c.211 0 .43-.016.658-.049a4.216 4.216 0 001.817-.724c.282-.199.531-.445.748-.74.218-.294.391-.639.52-1.034.13-.396.196-.85.196-1.36v-.354c.15.085.315.151.496.198.18.047.41.07.69.07h.122v-1.193h-.121c-.215 0-.4-.038-.551-.113a1.115 1.115 0 01-.38-.301 1.303 1.303 0 01-.229-.43 1.776 1.776 0 01-.082-.495 607.02 607.02 0 00-.18-4.867c-.026-.619-.055-1.255-.088-1.908l-1.193.049a268.23 268.23 0 01.158 3.707l.061 1.549c.02.53.038 1.044.052 1.543.014.499.026.968.036 1.406.01.438.016.818.016 1.138 0 .345-.046.653-.137.922-.092.27-.213.508-.366.713a2.37 2.37 0 01-.526.52 2.99 2.99 0 01-1.25.514c-.198.03-.375.046-.534.046a2.382 2.382 0 01-.612-.082 2.78 2.78 0 01-.495-.183 2.615 2.615 0 01-.484-.301 2.096 2.096 0 01-.414-.432 2.09 2.09 0 01-.286-.575 2.332 2.332 0 01-.107-.728 5.427 5.427 0 01.323-1.917c.044-.126.094-.243.149-.35.055-.108.11-.206.167-.295l-1.09-.487c-.137.198-.259.446-.364.742a6.77 6.77 0 00-.256.95c-.077.377-.118.83-.122 1.357v.049c0 .385.049.734.146 1.047a3.045 3.045 0 001.013 1.537c.23.184.472.338.728.46a4.093 4.093 0 001.771.402z" mask="url(#e)"/><path fill="#000000" fill-opacity=".87" fill-rule="nonzero" d="M352.935 137.13a2.7 2.7 0 00.074-.295c.026-.128.065-.252.117-.374a.968.968 0 01.217-.318.534.534 0 01.366-.143h.07c.19 0 .373.023.547.07.186.058.368.121.548.19.18.07.36.133.543.188.183.055.379.082.587.082h.061c.232-.005.452-.046.661-.121a3.01 3.01 0 00.583-.283c.18-.113.342-.235.487-.365a4.43 4.43 0 00.608-.665.993.993 0 00.096-.148l-1.191-.765c-.168.22-.326.397-.474.53-.148.133-.286.22-.413.26a1.157 1.157 0 01-.565.044 2.862 2.862 0 01-.661-.2 5.303 5.303 0 00-.596-.217 2.518 2.518 0 00-.726-.096c-.267 0-.526.06-.778.179-.253.118-.483.28-.692.482a3.108 3.108 0 00-.539.705c-.15.266-.252.544-.304.834l1.374.426zm1.208 13.07l2.279-.34c.029-.776.048-1.586.056-2.43a220.666 220.666 0 00.005-4.352 41.905 41.905 0 00-.105-2.735 38.627 38.627 0 00-.278-2.63l-2.235.704c.145 1.397.267 3.264.365 5.6a47.924 47.924 0 01.035 2.853 91.957 91.957 0 01-.122 3.33zm-7.973.06c.655 0 1.27-.066 1.847-.2a4.458 4.458 0 001.513-.638 3.134 3.134 0 001.022-1.144c.25-.47.374-1.04.374-1.713 0-.377-.035-.762-.104-1.156a11.35 11.35 0 00-.274-1.179 13.24 13.24 0 00-.387-1.143c-.145-.371-.29-.722-.435-1.052l-2.009.991c.157.307.306.638.448.991.142.354.265.696.37 1.026.104.33.188.632.252.905.064.272.096.484.096.635 0 .318-.089.574-.266.765-.176.191-.4.338-.67.439-.269.101-.561.168-.877.2-.316.032-.61.048-.883.048h-1.852v2.226h1.835zm-.079 4.053l1.479-1.478-1.496-1.496-1.478 1.487 1.495 1.487zm3.287.017l1.479-1.487-1.496-1.486-1.478 1.478 1.495 1.495zm-9.287-14.226l1.67-1.67-1.67-1.66-1.66 1.66 1.66 1.67zm-4.287 10.157c.418 0 .848-.015 1.292-.044a14.86 14.86 0 001.265-.134c.4-.061.76-.138 1.082-.23.322-.094.57-.204.744-.331.243.168.523.3.84.395.315.096.656.17 1.02.222.366.052.756.086 1.17.1.415.015.845.022 1.292.022h.174v-2.226h-.235a11.961 11.961 0 01-1.843-.157c.26-.365.473-.758.638-1.178.166-.42.248-.857.248-1.309a4.103 4.103 0 00-.948-2.583 3.677 3.677 0 00-1.047-.865 2.883 2.883 0 00-1.309-.36h-.096c-.29 0-.57.049-.843.147-.307.11-.594.266-.861.466s-.51.434-.73.704a4.65 4.65 0 00-.561.865 4.008 4.008 0 00-.33.9c-.067.293-.1.558-.1.796 0 .075.002.15.008.226.006.296.05.567.135.813.084.246.185.467.304.66.119.195.248.363.387.505.14.142.267.25.383.326-.261.03-.579.044-.953.044h-1.3v2.226h.174zm4.418-2.852a2.086 2.086 0 01-.644-.3 3.676 3.676 0 01-.556-.461 2.66 2.66 0 01-.392-.496c-.098-.165-.147-.3-.147-.404 0-.319.059-.594.178-.826a2.105 2.105 0 01.982-.961c.195-.09.367-.15.518-.178.145.029.3.097.465.204a2.317 2.317 0 01.826.956c.096.206.144.422.144.648 0 .163-.04.332-.118.509a2.487 2.487 0 01-.308.513 2.965 2.965 0 01-.44.457 2.59 2.59 0 01-.508.339zm-12.409 8.939a11.65 11.65 0 002.513-.713 9.355 9.355 0 002.196-1.261 7.899 7.899 0 001.691-1.796c.47-.687.803-1.46 1-2.317h.765v-2.226h-.582a8.019 8.019 0 00-.17-1.274 8.386 8.386 0 00-.352-1.196 7.101 7.101 0 00-.513-1.078 5.662 5.662 0 00-.661-.913c-.742-.8-1.562-1.2-2.46-1.2a2.38 2.38 0 00-.975.2 3.022 3.022 0 00-.826.543c-.25.23-.47.493-.66.792a5.398 5.398 0 00-.483.948 6.06 6.06 0 00-.3 1.021 5.1 5.1 0 00-.105 1c0 .499.067.928.2 1.287.134.36.32.665.561.918.24.252.528.455.861.608.333.154.699.273 1.096.357.397.084.819.14 1.265.17.446.028.904.043 1.374.043-.105.394-.315.788-.63 1.182a5.724 5.724 0 01-1.231 1.114c-.504.347-1.1.662-1.787.943-.687.281-1.457.506-2.309.674l.522 2.174zm5.557-8.313h-.427c-.15 0-.302-.003-.456-.009-.154-.006-.303-.01-.448-.013a5.372 5.372 0 01-.4-.022 4.856 4.856 0 01-.665-.1 2.199 2.199 0 01-.6-.221 1.283 1.283 0 01-.435-.392 1.04 1.04 0 01-.17-.608c0-.232.048-.47.144-.713.096-.244.216-.466.36-.666.146-.2.305-.363.48-.491.173-.128.335-.191.486-.191.162 0 .325.055.487.165.162.11.32.256.474.439.154.183.297.391.43.626a6.37 6.37 0 01.613 1.496c.067.252.11.485.127.7zm-13.583-1.992l1.67-1.67-1.67-1.66-1.66 1.66 1.66 1.67zm-.522 10.2c.847 0 1.609-.082 2.287-.247a6.872 6.872 0 001.787-.687 5.308 5.308 0 002.2-2.343 5.47 5.47 0 00.457-1.388 7.324 7.324 0 00.113-1.656 8.185 8.185 0 00-.144-1.165 15.944 15.944 0 00-.278-1.196 17.517 17.517 0 00-.344-1.113c-.121-.35-.234-.662-.339-.935a13.337 13.337 0 00-.27-.66 2.656 2.656 0 00-.138-.288l-2.044 1.14c.006 0 .047.075.122.225.075.151.168.351.278.6a20.133 20.133 0 01.705 1.844c.11.336.204.668.282.996.078.327.123.624.135.89v.149c0 .301-.044.591-.13.87-.11.324-.267.625-.47.904-.203.278-.45.53-.74.756-.29.226-.61.419-.964.578-.354.16-.727.279-1.118.357-.391.078-.79.117-1.195.117h-.087a5.002 5.002 0 01-1.553-.274 4.195 4.195 0 01-1.29-.713 3.418 3.418 0 01-.884-1.091 3.037 3.037 0 01-.326-1.409c0-.434.051-.866.153-1.295a9.92 9.92 0 01.36-1.2c.14-.371.286-.699.44-.983a6.25 6.25 0 01.387-.643l-1.714-1.244a9.576 9.576 0 00-1.617 5.313c0 .899.142 1.706.426 2.422a5.093 5.093 0 001.205 1.822 5.278 5.278 0 001.873 1.147c.73.267 1.542.4 2.435.4zm-23.643-5.756v-1.267l-.009-1.142a62.04 62.04 0 00-.122-3.239 23.97 23.97 0 00-.139-1.474c-.081-.597-.165-1.184-.252-1.76a19.61 19.61 0 00-.322-1.662c-.127-.53-.28-1.034-.456-1.513a6.75 6.75 0 00-.665-1.334l-1.835 1.13c.255.47.47.994.648 1.574.176.58.324 1.199.443 1.857.119.657.212 1.349.278 2.073.067.725.118 1.463.152 2.213.035.751.057 1.51.066 2.279.008.768.013 1.523.013 2.265h2.2zm5.539-.052c0-.54-.002-1.12-.004-1.744a61.968 61.968 0 00-.14-3.874 28.762 28.762 0 00-.187-1.895c.354.087.737.13 1.148.13.528 0 1.012-.095 1.452-.287.441-.191.818-.478 1.13-.86.39-.493.657-1 .805-1.522a5.841 5.841 0 00.222-1.6c0-.279-.016-.571-.048-.879a26.77 26.77 0 00-.117-.956l-2.148.382c.035.227.06.427.078.6.018.174.026.377.026.61 0 .26-.006.527-.017.8-.012.272-.06.52-.144.743a1.246 1.246 0 01-.413.556c-.191.148-.466.225-.826.23h-.052c-.267 0-.496-.04-.687-.121a1.518 1.518 0 01-.535-.361 2.61 2.61 0 01-.413-.578 9.582 9.582 0 01-.365-.766 8.627 8.627 0 01-.217-.517 7.787 7.787 0 00-.413-.917 9.204 9.204 0 00-.318-.557l-1.843 1.183a5.406 5.406 0 01.443.878c.052.128.103.258.152.391.05.134.11.284.179.453.232.655.417 1.392.556 2.213.14.82.245 1.685.318 2.595.072.91.12 1.847.143 2.809.023.962.035 1.916.035 2.86h2.2zm-26.383-.174c.684 0 1.289-.122 1.813-.365a5.24 5.24 0 001.474-1.044 10.139 10.139 0 00.896.557 8.814 8.814 0 00.87.426c.278.104.552.187.821.248.27.06.526.09.77.09.284 0 .556-.043.817-.13a2.795 2.795 0 001.335-.947 3.03 3.03 0 00.43-.757c.099-.26.173-.53.222-.809.05-.278.074-.565.074-.86a5.228 5.228 0 00-.365-1.91 4.164 4.164 0 00-.461-.851 3.44 3.44 0 00-.648-.696 2.876 2.876 0 00-1.856-.64c-.412 0-.774.084-1.087.249-.313.165-.592.38-.835.643-.244.264-.461.561-.652.892-.192.33-.368.663-.53 1a22.09 22.09 0 01-.518.956 4.528 4.528 0 01-.635.86c-.24.256-.517.463-.83.623-.313.16-.682.239-1.105.239h-.174v2.226h.174zM281.83 148c-.116 0-.243-.017-.382-.052a4.355 4.355 0 01-.757-.235c-.255-.104-.5-.22-.734-.348a7.723 7.723 0 01-.587-.348c.22-.44.405-.804.556-1.09.15-.288.281-.517.391-.688.11-.17.205-.293.283-.365a.516.516 0 01.24-.135c.086-.017.17-.026.251-.026.168 0 .325.035.47.104.214.11.4.267.556.47.157.203.28.436.37.7.09.264.135.526.135.787v.087c0 .139-.012.267-.035.382-.035.14-.08.261-.135.366a.902.902 0 01-.182.248.41.41 0 01-.187.108.855.855 0 01-.253.035zm-14 2.26c.318-.002.66-.006 1.022-.012.484-.009.955-.044 1.413-.105.458-.06.874-.156 1.248-.286.374-.13.657-.318.848-.561.272.284.603.516.991.695.389.18.864.27 1.426.27h.174v-2.226h-.174c-.237 0-.446-.06-.626-.178a1.704 1.704 0 01-.456-.444 2.194 2.194 0 01-.292-.583 2.734 2.734 0 01-.13-.595 53.063 53.063 0 00-.065-.796c-.02-.223-.044-.432-.07-.626a6.825 6.825 0 00-.104-.583 10.564 10.564 0 00-.178-.673l-2.14.6c.151.515.264.937.34 1.265.075.327.113.59.113.787 0 .301-.064.566-.192.795-.127.23-.335.42-.621.57-.287.15-.663.265-1.127.343-.463.079-1.034.118-1.713.118h-.321v2.226h.633zm1.122 4.053l1.478-1.478-1.495-1.496-1.478 1.487 1.495 1.487zm3.287.017l1.478-1.487-1.495-1.486-1.479 1.478 1.496 1.495zm-8.409-12.104l1.67-1.67-1.67-1.66-1.66 1.66 1.66 1.67zm-2.443 8.035c.817 0 1.512-.078 2.083-.235a3.852 3.852 0 001.456-.73c.273.284.607.516 1.004.695.398.18.877.27 1.44.27h.173v-2.226h-.173c-.238 0-.43-.06-.579-.178a1.292 1.292 0 01-.352-.444 2.178 2.178 0 01-.187-.583 7.294 7.294 0 01-.082-.595 62.839 62.839 0 00-.066-.805 9.326 9.326 0 00-.191-1.243 9.759 9.759 0 00-.178-.683l-2.14.6c.151.516.267.947.348 1.292.082.345.122.616.122.813 0 .608-.224 1.065-.674 1.37-.449.304-1.117.456-2.004.456h-.322v2.226h.322zm-7.844 5.67c.395 0 .834-.031 1.318-.092.484-.06.975-.158 1.474-.291a9.837 9.837 0 001.46-.518c.476-.211.9-.47 1.275-.773.373-.305.68-.658.917-1.061.238-.403.368-.86.391-1.37a3.01 3.01 0 00-.126-.726 2.373 2.373 0 00-.465-.84h1.626v-2.225h-6.904l-.296 2.174c.388.07.78.136 1.174.2.394.063.791.162 1.191.295.273.105.528.213.765.326.238.113.445.222.622.327.177.104.316.198.418.282.101.084.152.147.152.187 0 .25-.1.467-.3.652-.2.186-.458.348-.774.487-.316.14-.668.255-1.057.348-.388.093-.766.168-1.134.226a12.637 12.637 0 01-1.727.157c-.272 0-.592-.008-.96-.022a7.215 7.215 0 01-1.122-.135 4.486 4.486 0 01-1.083-.36 2.268 2.268 0 01-.852-.71 3.627 3.627 0 01-.574-2.009 10.729 10.729 0 01.24-2.296c.09-.428.212-.893.369-1.394a22.03 22.03 0 01.591-1.64l-1.791-.826a22.28 22.28 0 00-.626 1.67 17.688 17.688 0 00-.413 1.465c-.108.461-.192.9-.252 1.318-.061.417-.11.826-.144 1.226a7.332 7.332 0 00-.026.608c0 .742.122 1.406.365 1.992a4.63 4.63 0 001.348 1.865c.597.495 1.319.866 2.165 1.113a9.86 9.86 0 002.765.37z" mask="url(#e)"/><path fill="#000000" fill-opacity=".12" mask="url(#e)" d="M15.5 259h343v1h-343z"/><path fill="#000000" fill-opacity=".87" fill-rule="nonzero" d="M34.68 240.063c.064-.77.102-1.496.114-2.178.012-.682.017-1.226.017-1.635 0-.677-.007-1.4-.02-2.17a63.584 63.584 0 00-.355-5.064l-1.364.208c.158 1.461.283 3.316.376 5.566.014.384.02.793.02 1.224 0 .357-.004.73-.013 1.12a64.7 64.7 0 01-.146 2.852l1.37.077zM27.66 240c.38 0 .748-.026 1.103-.077.354-.05.68-.139.977-.264.297-.125.56-.292.79-.5.23-.21.413-.471.553-.787.139-.32.208-.69.208-1.113 0-.074-.002-.148-.007-.222-.032-.515-.153-1.109-.361-1.781a9.033 9.033 0 00-.223-.644 14.062 14.062 0 00-.383-.897 1.713 1.713 0 01-.062-.143l-1.238.612.605 1.489c.097.237.171.463.222.678.051.216.082.385.09.508.01.123.015.215.015.275 0 .111-.007.216-.021.313a1.35 1.35 0 01-.105.369 1.089 1.089 0 01-.39.455c-.166.11-.359.192-.576.247-.218.056-.455.09-.71.101-.255.012-.517.018-.786.018h-1.343V240h1.642zm2.65 3.624l1.141-1.14-1.127-1.127-1.14 1.14 1.126 1.127zm-3.04.014l1.141-1.14-1.127-1.135-1.14 1.141 1.126 1.134zm1.552 1.99l1.036-1.037-1.03-1.03-1.036 1.037 1.03 1.03zm-8.522-1.065c.241 0 .492-.018.751-.055a4.818 4.818 0 002.077-.828c.322-.227.607-.509.855-.845a4.16 4.16 0 00.595-1.183c.149-.452.223-.97.223-1.555v-.403c.171.097.36.173.567.226.206.053.47.08.79.08h.139v-1.363h-.14c-.245 0-.455-.043-.63-.13a1.274 1.274 0 01-.434-.344 1.489 1.489 0 01-.26-.49 2.03 2.03 0 01-.095-.567 693.732 693.732 0 00-.205-5.562c-.03-.707-.064-1.434-.1-2.18l-1.364.055a306.555 306.555 0 01.18 4.237c.024.575.047 1.165.07 1.77.023.605.043 1.193.06 1.764.015.57.03 1.106.041 1.607.012.5.017.934.017 1.3 0 .395-.052.746-.156 1.054-.104.309-.244.58-.418.814a2.709 2.709 0 01-.601.595 3.418 3.418 0 01-1.43.588 4.02 4.02 0 01-.609.052 2.722 2.722 0 01-.7-.094 3.177 3.177 0 01-.566-.209 2.988 2.988 0 01-.553-.344 2.395 2.395 0 01-.473-.494 2.388 2.388 0 01-.327-.657 2.665 2.665 0 01-.121-.832 6.202 6.202 0 01.368-2.19c.051-.145.108-.278.17-.4.063-.124.127-.236.192-.338l-1.245-.557c-.158.227-.297.51-.418.849a7.737 7.737 0 00-.292 1.085 8.18 8.18 0 00-.139 1.551v.056c0 .44.056.84.167 1.197a3.48 3.48 0 001.158 1.757c.262.21.54.385.832.524a4.678 4.678 0 002.024.46z" mask="url(#e)"/><path fill="#000000" fill-opacity=".56" fill-rule="nonzero" d="M354.493 240c.38 0 .734-.026 1.06-.077.328-.05.624-.139.888-.264s.497-.292.699-.5c.202-.21.372-.471.511-.787.14-.32.209-.69.209-1.113 0-.074-.002-.148-.007-.222-.032-.515-.153-1.109-.362-1.781a9.033 9.033 0 00-.222-.644 14.061 14.061 0 00-.383-.897 1.713 1.713 0 01-.063-.143l-1.238.612.605 1.489c.098.237.172.463.223.678.051.216.081.385.09.508.01.123.014.215.014.275 0 .111-.007.216-.02.313a1.35 1.35 0 01-.105.369 1.245 1.245 0 01-.348.455c-.139.11-.301.192-.487.247-.185.056-.391.09-.619.101-.227.012-.475.018-.744.018h-.807V240h1.106zm1.14 3.624l1.135-1.134-1.141-1.14-1.134 1.133 1.14 1.141zm-8.034 1.51a12.712 12.712 0 001.704-1.03 9.084 9.084 0 001.472-1.304 6.295 6.295 0 001.033-1.54c.26-.553.39-1.132.39-1.74v-.028c.115.125.237.223.365.292a1.686 1.686 0 00.713.209c.102.005.185.007.25.007h.118v-1.363h-.111c-.232 0-.444-.056-.636-.167a1.88 1.88 0 01-.554-.526 4.913 4.913 0 01-.514-.925 15.038 15.038 0 01-.515-1.374l-1.308.404c.056.171.123.386.202.643.079.258.158.532.236.825.08.292.152.59.22.893.067.304.117.588.149.853a2.596 2.596 0 01-.077.94c-.083.31-.21.609-.379.896-.169.288-.376.562-.622.824a8.04 8.04 0 01-.807.748 9.486 9.486 0 01-.932.665c-.33.206-.661.395-.995.567l.598 1.23zm-2.643-12.724l1.134-1.133-1.141-1.141-1.134 1.134 1.14 1.14zm-1.113 7.59c.38 0 .734-.026 1.06-.077.327-.05.623-.139.887-.264.265-.125.498-.292.7-.5.201-.21.372-.471.51-.787.14-.32.21-.69.21-1.113 0-.074-.003-.148-.007-.222-.033-.515-.153-1.109-.362-1.781a9.034 9.034 0 00-.223-.644 14.061 14.061 0 00-.382-.897 1.713 1.713 0 01-.063-.143l-1.238.612.605 1.489c.097.237.172.463.223.678.05.216.08.385.09.508.01.123.014.215.014.275 0 .111-.007.216-.02.313a1.35 1.35 0 01-.105.369 1.245 1.245 0 01-.348.455c-.14.11-.302.192-.487.247-.186.056-.392.09-.62.101a14.68 14.68 0 01-.744.018h-.806V240h1.106zm-.828 0v-1.363h-.14c-.278 0-.507-.036-.688-.108a1.244 1.244 0 01-.452-.3 1.755 1.755 0 01-.31-.466 15.476 15.476 0 01-.268-.608c-.18-.422-.35-.827-.51-1.214a3910.464 3910.464 0 01-1.618-3.927l-1.266.529 2.198 5.287a2.64 2.64 0 01-.925.584c-.25.097-.463.154-.637.17a4.617 4.617 0 01-.393.025c-.185 0-.37-.021-.556-.063a3.191 3.191 0 01-.842-.32 4.114 4.114 0 01-.842-.619l-.786 1.106c.394.408.824.725 1.29.95a3.45 3.45 0 001.52.337c.33 0 .627-.02.89-.06.265-.039.51-.097.735-.173.225-.077.436-.173.633-.289.197-.116.393-.25.588-.403a2.4 2.4 0 00.347.358c.135.114.291.212.47.296.179.083.385.15.62.198.233.049.501.073.803.073h.139z" mask="url(#e)"/><path fill="#000000" fill-opacity=".87" fill-rule="nonzero" d="M24.836 280.41l1.134-1.133-1.141-1.141-1.134 1.134 1.14 1.14zM23.723 288c.38 0 .734-.026 1.06-.077.327-.05.623-.139.887-.264.265-.125.498-.292.7-.5.201-.21.372-.471.51-.787.14-.32.21-.69.21-1.113 0-.074-.003-.148-.007-.222-.033-.515-.153-1.109-.362-1.781a9.033 9.033 0 00-.223-.644 14.062 14.062 0 00-.382-.897 1.712 1.712 0 01-.063-.143l-1.238.612.605 1.489c.097.237.172.463.223.678.05.216.08.385.09.508.01.123.014.215.014.275 0 .111-.007.216-.02.313a1.35 1.35 0 01-.105.369 1.245 1.245 0 01-.348.455c-.14.11-.302.192-.487.247-.186.056-.392.09-.62.101a14.68 14.68 0 01-.744.018h-.806V288h1.106zm-7.36 4.883a8.524 8.524 0 001.965-.556 7.19 7.19 0 001.725-1.016 6.198 6.198 0 001.322-1.45A5.255 5.255 0 0022.13 288h.765v-1.363h-.661a6.622 6.622 0 00-.376-2.02 5.342 5.342 0 00-.403-.881 4.395 4.395 0 00-.529-.738c-.552-.593-1.157-.89-1.816-.89a1.77 1.77 0 00-.859.226 2.61 2.61 0 00-.768.664c-.195.25-.364.549-.508.894a3.926 3.926 0 00-.275.925c-.04.272-.06.495-.06.672 0 .185.017.37.05.556.055.353.19.663.403.932.482.599 1.227.928 2.233.988.255.023.484.035.685.035h.79c-.051.348-.194.701-.428 1.06-.234.36-.553.7-.956 1.02-.404.32-.889.608-1.454.863a8.976 8.976 0 01-1.92.598l.32 1.342zm3.755-6.26h-.048c-.204 0-.422-.007-.653-.021a3.506 3.506 0 01-.296-.032 2.472 2.472 0 01-.348-.076 1.635 1.635 0 01-.334-.14.819.819 0 01-.26-.225.651.651 0 01-.143-.33 2.434 2.434 0 01-.025-.31 3.16 3.16 0 01.153-.908c.065-.202.145-.384.24-.546.095-.163.203-.296.324-.4a.577.577 0 01.382-.157c.084 0 .163.014.237.042.074.028.145.064.212.108s.13.093.188.146c.058.053.11.103.156.15.116.134.229.293.338.476.109.183.207.388.296.616.088.227.16.473.215.737.056.264.09.545.105.842-.181.014-.345.022-.49.024l-.297.004h.048z" mask="url(#e)"/><path fill="#000000" fill-opacity=".56" fill-rule="nonzero" d="M351.857 292.883a8.398 8.398 0 001.405-.344c.459-.155.896-.348 1.311-.577.415-.23.802-.498 1.162-.804a5.91 5.91 0 00.95-1.022c.273-.376.498-.785.674-1.228.176-.443.29-.92.341-1.43a6.442 6.442 0 00.007-1.266 6.891 6.891 0 00-.23-1.217 5.77 5.77 0 00-.434-1.096 4.275 4.275 0 00-.623-.9c-.552-.594-1.157-.891-1.816-.891a1.77 1.77 0 00-.859.226 2.61 2.61 0 00-.768.664c-.195.25-.365.549-.508.894a3.926 3.926 0 00-.275.925c-.04.272-.06.495-.06.672 0 .185.017.37.05.556.055.353.19.663.403.932.482.599 1.227.928 2.233.988.255.023.483.035.685.035h.79c-.051.348-.194.701-.428 1.06-.234.36-.553.7-.957 1.02-.403.32-.888.608-1.453.863a8.976 8.976 0 01-1.92.598l.32 1.342zm3.755-6.26h-.048c-.204 0-.422-.007-.654-.021a3.506 3.506 0 01-.295-.032 2.472 2.472 0 01-.348-.076 1.635 1.635 0 01-.334-.14.819.819 0 01-.26-.225.651.651 0 01-.143-.33 2.434 2.434 0 01-.025-.31 3.16 3.16 0 01.153-.908c.065-.202.145-.384.24-.546.095-.163.203-.296.324-.4a.577.577 0 01.382-.157c.084 0 .163.014.237.042.074.028.145.064.212.108s.13.093.188.146c.058.053.11.103.156.15.116.134.229.293.338.476.109.183.207.388.295.616.089.227.16.473.216.737.056.264.09.545.104.842-.18.014-.344.022-.49.024l-.296.004h.048zm-8.138-6.226l1.134-1.134-1.141-1.141-1.134 1.134 1.14 1.14zm-3.04 7.742c.366 0 .762-.013 1.186-.038a9.56 9.56 0 001.273-.164c.424-.083.834-.2 1.228-.35.394-.152.745-.353 1.054-.606.308-.253.56-.562.755-.929.194-.366.301-.804.32-1.315v-.132c0-.278-.038-.542-.112-.793a2.637 2.637 0 00-1.008-1.37 3.118 3.118 0 00-.773-.397 2.71 2.71 0 00-.688-.163c-.181-.012-.3-.018-.355-.018-.26 0-.522.03-.786.09-.575.13-1.103.33-1.583.599-.48.269-.917.59-1.311.964-.394.373-.75.79-1.064 1.252a10.63 10.63 0 00-.835 1.457 2.046 2.046 0 01-.313-.682 2.943 2.943 0 01-.084-.688v-.049c0-.241.023-.475.07-.703.046-.227.097-.436.153-.626l-1.315-.396a5.68 5.68 0 00-.153.55c-.042.185-.081.377-.118.577-.074.352-.15.68-.23.98-.079.302-.2.564-.362.787-.05.07-.117.142-.198.219a1.281 1.281 0 01-.323.212c-.135.065-.3.12-.494.163a3.229 3.229 0 01-.703.067h-.16V288h.202c.64-.005 1.186-.102 1.638-.292.452-.19.825-.49 1.117-.898.255.33.517.584.786.762.269.179.561.31.876.393.316.084.662.134 1.04.15.378.016.802.024 1.27.024zm0-1.405h-.306a28.82 28.82 0 01-1.078-.042c.255-.464.517-.884.786-1.262s.553-.71.852-.995c.299-.285.62-.524.963-.717a4.046 4.046 0 011.113-.42 2.1 2.1 0 01.88 0c.156.032.308.082.456.149a1.297 1.297 0 01.671.66c.072.156.108.336.108.54v.028c0 .357-.097.658-.292.904-.2.25-.464.455-.793.612a4.53 4.53 0 01-1.124.355 9.72 9.72 0 01-1.196.153c-.378.023-.725.035-1.04.035zM329.686 288c.339 0 .692-.019 1.061-.056.369-.037.736-.091 1.103-.163.366-.072.722-.16 1.067-.264.346-.105.665-.227.957-.366.51.306 1.08.524 1.711.654.63.13 1.317.195 2.06.195h.138v-1.363h-.139c-.473 0-.924-.03-1.353-.09a5.286 5.286 0 01-1.123-.272c.241-.181.48-.4.716-.658a6.21 6.21 0 00.63-.807c.183-.28.32-.543.41-.79a1.9 1.9 0 00.136-.64c0-.046-.002-.092-.007-.138a1.217 1.217 0 00-.216-.661 1.895 1.895 0 00-.354-.383 2.549 2.549 0 00-.599-.361 4.275 4.275 0 00-1.078-.307 6.779 6.779 0 00-.89-.07c-.214 0-.43.012-.647.036-.195.018-.41.052-.647.1a5.301 5.301 0 00-1.492.56 4.072 4.072 0 00-.741.536l-.07.967c.195.223.389.449.581.678.192.23.383.455.57.675.188.22.375.431.56.633.186.202.37.386.55.553a4.373 4.373 0 01-.598.178 11.206 11.206 0 01-2.289.26h-.146V288h.14zm4.202-2.483a8.397 8.397 0 01-.981-.94c-.32-.357-.673-.77-1.057-1.238.296-.171.619-.299.967-.382a4.429 4.429 0 011.036-.126c.343 0 .673.042.988.126.315.083.593.204.835.361a.755.755 0 01-.08.296 3.159 3.159 0 01-.213.386 5.56 5.56 0 01-.685.866 4.702 4.702 0 01-.407.376c-.139.113-.273.205-.403.275zM324.657 288c.435 0 .815-.017 1.137-.052.322-.035.604-.088.845-.16a2.598 2.598 0 001.113-.65c.2.254.455.462.765.622.311.16.7.24 1.17.24h.138v-1.363h-.139c-.236 0-.43-.054-.58-.16a1.141 1.141 0 01-.356-.404 1.905 1.905 0 01-.184-.529 4.913 4.913 0 01-.076-.542 21.338 21.338 0 00-.126-1.204 6.535 6.535 0 00-.201-.946l-1.308.369c.102.352.173.665.212.939.04.274.06.543.06.807 0 .278-.047.522-.14.73a1.256 1.256 0 01-.435.522c-.197.14-.452.244-.765.313-.313.07-.69.105-1.13.105h-1.037V288h1.037zm.257 3.402l1.127-1.127-1.141-1.141-1.127 1.134 1.14 1.134zm2.852.014l1.127-1.134-1.14-1.134-1.128 1.127 1.141 1.14zm-13.809-9.127l1.127-1.127-1.14-1.141-1.127 1.134 1.14 1.134zm2.853.014l1.127-1.134-1.141-1.134-1.127 1.127 1.14 1.14zm-2.018 5.718c2.639 0 4.57-.64 5.795-1.92.102.283.246.536.431.758.58.747 1.473 1.127 2.679 1.141h.194v-1.363h-.174c-.756-.005-1.296-.214-1.62-.627a1.391 1.391 0 01-.293-.584 3.455 3.455 0 01-.09-.626v-.056c0-.074.007-.162.02-.264a5.795 5.795 0 01.136-.748c.03-.123.057-.226.08-.31l-1.321-.361c-.06.209-.129.422-.206.64-.076.218-.169.433-.278.647-.109.213-.24.42-.393.619-.153.2-.336.383-.55.55-.477.39-1.075.673-1.794.852-.719.178-1.59.268-2.616.268-1.145-.005-2.076-.126-2.793-.362-.716-.237-1.214-.594-1.492-1.072a1.688 1.688 0 01-.223-.573 3.026 3.026 0 01-.048-.512c0-.06.002-.118.007-.174a2.93 2.93 0 01.087-.598 5.86 5.86 0 01.15-.5c.05-.145.097-.26.138-.349.042-.088.063-.134.063-.139l-1.204-.66c-.023.032-.089.177-.198.434a8.029 8.029 0 00-.337 1.047c-.056.209-.09.4-.105.574a4.625 4.625 0 00-.007.79c.019.24.064.482.136.723.072.241.175.475.31.703.417.705 1.088 1.22 2.014 1.548.925.326 2.092.495 3.502.504z" mask="url(#e)"/><g mask="url(#e)"><use fill="#000" filter="url(#h)" xlink:href="#i"/><use fill="#FFF" fill-opacity=".98" xlink:href="#i"/></g><path fill="#000000" fill-opacity=".87" fill-rule="nonzero" d="M351.909 36.183c.479 0 .902-.086 1.269-.256.367-.17.711-.414 1.032-.73a7.096 7.096 0 001.235.687c.195.073.387.131.575.174.19.042.369.064.54.064.198 0 .389-.03.571-.092a1.956 1.956 0 00.935-.663c.123-.158.224-.335.301-.53.069-.182.12-.37.155-.566a3.45 3.45 0 00.052-.602 3.66 3.66 0 00-.256-1.336 2.915 2.915 0 00-.322-.597 2.407 2.407 0 00-.454-.487 2.013 2.013 0 00-1.3-.447c-.288 0-.541.058-.76.173-.22.116-.414.266-.585.45-.17.185-.322.393-.456.625a10.56 10.56 0 00-.371.7c-.114.223-.235.446-.363.67a3.17 3.17 0 01-.444.602 2.108 2.108 0 01-.581.435c-.22.112-.477.167-.773.167h-.122v1.559h.122zm4.936-1.583c-.08 0-.17-.012-.268-.037a3.048 3.048 0 01-.53-.164 5.406 5.406 0 01-.925-.487c.155-.308.285-.563.39-.764.106-.2.197-.36.274-.48.077-.12.143-.206.198-.256a.36.36 0 01.167-.095.9.9 0 01.177-.018.75.75 0 01.329.073c.15.077.28.187.39.329.109.142.195.305.258.49a1.7 1.7 0 01.094.55v.062c0 .097-.008.186-.024.267a1.14 1.14 0 01-.095.256.631.631 0 01-.127.174.287.287 0 01-.131.076.599.599 0 01-.177.024zm-4.815 1.583v-1.559h-.14a.933.933 0 01-.374-.07.918.918 0 01-.286-.194 1.29 1.29 0 01-.22-.299 3.924 3.924 0 01-.179-.38l-1.528-3.683a135.13 135.13 0 00-.273-.657 21.409 21.409 0 01-.232-.572l-1.442.602 1.941 4.687a2.22 2.22 0 01-.374.216 3.554 3.554 0 01-1.385.326c-.292 0-.598-.076-.919-.228-.32-.152-.665-.399-1.035-.74l-.894 1.26c.393.406.814.722 1.263.95.448.227.926.34 1.433.34.268 0 .522-.01.761-.033.24-.022.47-.062.694-.119a3.426 3.426 0 001.236-.596c.097.105.198.204.304.295.105.091.227.17.365.238.138.066.3.12.484.158.185.038.405.058.66.058h.14zm-11.741 0c.458 0 .89-.047 1.293-.14a3.12 3.12 0 001.06-.448c.302-.205.54-.472.715-.8.174-.329.261-.729.261-1.2 0-.263-.024-.533-.073-.809a7.945 7.945 0 00-.192-.825c-.079-.274-.169-.54-.27-.8-.102-.26-.203-.505-.305-.737l-1.406.694c.11.215.214.447.314.694a10.056 10.056 0 01.435 1.351c.045.191.067.34.067.445 0 .223-.062.402-.186.535-.124.134-.28.237-.469.308a2.432 2.432 0 01-.614.14 6.178 6.178 0 01-.618.033h-1.297v1.559h1.285zm-.055 2.836l1.035-1.035-1.047-1.047-1.035 1.041 1.047 1.041zm2.3.012l1.036-1.04-1.047-1.041-1.035 1.034 1.047 1.047zm-8.68 1.705a11.814 11.814 0 001.507-.895c.49-.341.93-.716 1.321-1.126.392-.41.717-.85.977-1.318.26-.469.416-.959.469-1.47.19.122.366.195.526.22.16.023.294.036.399.036h.189l.006-1.559h-.189c-.178 0-.338-.035-.478-.106a1.156 1.156 0 01-.401-.378 4.017 4.017 0 01-.39-.736c-.132-.31-.277-.703-.435-1.178l-1.461.609c.077.231.162.47.256.715.093.246.18.488.261.727.081.24.148.47.201.691.053.221.08.423.08.606 0 .256-.048.505-.144.749a3.32 3.32 0 01-.39.712c-.164.231-.358.452-.584.663a8.676 8.676 0 01-.727.609c-.26.195-.533.377-.819.548-.286.17-.57.328-.855.475l.682 1.406zm-3.633-4.553c.458 0 .89-.047 1.293-.14a3.12 3.12 0 001.06-.448c.302-.205.54-.472.715-.8.174-.329.261-.729.261-1.2 0-.263-.024-.533-.073-.809a7.945 7.945 0 00-.191-.825c-.08-.274-.17-.54-.271-.8-.102-.26-.203-.505-.305-.737l-1.406.694c.11.215.214.447.314.694a10.056 10.056 0 01.435 1.351c.045.191.067.34.067.445 0 .223-.062.402-.186.535-.123.134-.28.237-.468.308a2.432 2.432 0 01-.615.14 6.178 6.178 0 01-.618.033h-1.296v1.559h1.284zm-.055 2.836l1.035-1.035-1.047-1.047-1.035 1.041 1.047 1.041zm2.301.012l1.035-1.04-1.047-1.041-1.035 1.034 1.047 1.047zm-11.888-7.998l1.035-1.035-1.047-1.047-1.035 1.041 1.047 1.041zm2.301.012l1.035-1.04-1.047-1.042-1.035 1.035 1.047 1.047zm-1.662 5.156c2.224 0 3.894-.515 5.01-1.546.134.272.288.504.462.697.175.192.374.35.597.475.223.123.472.214.746.27.274.057.579.086.916.086h.231v-1.559h-.22c-.295 0-.546-.038-.75-.115a1.272 1.272 0 01-.497-.32 1.236 1.236 0 01-.274-.475 1.54 1.54 0 01-.085-.438v-.198c0-.19.02-.387.06-.59.045-.223.106-.442.183-.658l-1.4-.377c-.056.195-.11.398-.158.609a5.28 5.28 0 01-.182.618c-.074.2-.165.392-.274.575-.11.182-.254.343-.433.48-.194.163-.428.3-.7.412a5.286 5.286 0 01-.91.273 8.745 8.745 0 01-1.086.156c-.39.032-.802.048-1.236.048-.479 0-.925-.02-1.339-.06a7.384 7.384 0 01-1.117-.19 3.352 3.352 0 01-.843-.328 1.399 1.399 0 01-.517-.487 1.54 1.54 0 01-.229-.523 1.983 1.983 0 01-.033-.64c.02-.194.069-.389.146-.584.077-.195.175-.39.292-.584l-1.175-.737a4.46 4.46 0 00-.401.904c-.102.319-.16.584-.174.795a7.701 7.701 0 00-.021.456c0 .24.024.479.073.718.065.329.183.646.353.95.394.637 1.005 1.109 1.835 1.415.83.307 1.88.464 3.15.472zm-14.39-9.21a1.89 1.89 0 00.052-.207 1.35 1.35 0 01.083-.261.677.677 0 01.152-.223.374.374 0 01.255-.1h.05c.133 0 .26.016.383.049.13.04.257.085.383.134.126.048.253.092.38.13.128.039.265.058.411.058h.043a1.46 1.46 0 00.463-.085c.146-.053.282-.119.407-.198.126-.079.24-.164.341-.255a3.101 3.101 0 00.426-.466.695.695 0 00.067-.104l-.834-.535a2.745 2.745 0 01-.331.371.824.824 0 01-.29.183.81.81 0 01-.395.03 2.003 2.003 0 01-.463-.14 3.712 3.712 0 00-.417-.152 1.763 1.763 0 00-.508-.067c-.187 0-.368.042-.545.125a1.78 1.78 0 00-.484.338 2.176 2.176 0 00-.377.493 1.845 1.845 0 00-.213.584l.962.298zm.847 9.149l1.595-.237c.02-.544.033-1.111.04-1.702a154.474 154.474 0 00.002-3.046 29.333 29.333 0 00-.073-1.915 27.039 27.039 0 00-.195-1.84l-1.564.492c.101.978.187 2.285.256 3.92a33.546 33.546 0 01.024 1.997c-.012.718-.04 1.495-.085 2.331zm-7.223-8.825l4.675-2.06-.273-.612-4.36 1.897-.042.775zm1.258 8.868c.393 0 .77-.066 1.129-.198s.674-.319.946-.56a2.66 2.66 0 00.889-2.036c0-.215-.027-.453-.082-.712a4.659 4.659 0 00-.262-.822 6.115 6.115 0 00-.472-.898 6.918 6.918 0 00-.712-.934 9.848 9.848 0 00-.55-.566 13.23 13.23 0 00-.546-.487l3.97-1.717-.616-1.449-4.845 2.155-.164 1.455c.385.353.745.7 1.08 1.04.335.342.626.673.874.996.247.323.442.637.584.943.142.307.213.606.213.898 0 .223-.038.411-.116.563a1.059 1.059 0 01-.316.378c-.134.1-.29.175-.469.228a3.494 3.494 0 01-.566.116 6.027 6.027 0 01-.618.042 32.47 32.47 0 01-.618.006h-.76v1.559h2.027zm-4.079 3.859l.968-1.175a2.052 2.052 0 01-.182-.231 1.017 1.017 0 01-.173-.453 2.041 2.041 0 01-.016-.26c0-.206.043-.413.13-.62a2.05 2.05 0 01.35-.56c.147-.167.312-.302.497-.405a1.15 1.15 0 01.569-.155h.152v-1.559h-.122c-.227 0-.455.04-.684.122-.23.081-.449.194-.658.338a3.523 3.523 0 00-.584.508 3.287 3.287 0 00-.746 1.318c-.06.225-.091.44-.091.642 0 .049.002.098.006.146a3.877 3.877 0 01-.265-.34 14.84 14.84 0 01-.6-.923 3.66 3.66 0 01-.194-.368c.353-.093.675-.241.968-.444a3.86 3.86 0 00.77-.703c.22-.266.403-.553.547-.862.145-.308.247-.617.308-.925a2.582 2.582 0 00.036-.663 3.05 3.05 0 00-.404-1.267 2.337 2.337 0 00-.387-.499 1.736 1.736 0 00-.472-.331 1.224 1.224 0 00-.526-.12h-.025c-.251.005-.49.08-.718.226a2.712 2.712 0 00-.633.578 4.61 4.61 0 00-.526.82 7.102 7.102 0 00-.652 1.895 4.64 4.64 0 00-.088.852h-.803v1.559h1.083a6.592 6.592 0 001.19 2.154c.262.317.557.616.886.898.328.282.692.551 1.09.807zm-2.081-5.4h-.013v-.097c0-.13.013-.278.037-.444.032-.203.079-.413.14-.63.06-.217.133-.432.216-.645.083-.213.171-.407.265-.582a2.64 2.64 0 01.289-.441c.1-.12.194-.194.283-.222a.965.965 0 01.268.219 1.51 1.51 0 01.329.673c.024.12.036.232.036.337v.092c-.016.223-.081.439-.195.648a2.179 2.179 0 01-1.013.947 1.532 1.532 0 01-.642.146zm-7.433 5.51c.276 0 .584-.022.923-.065.338-.042.682-.11 1.031-.204.35-.093.69-.214 1.023-.362.333-.148.63-.328.892-.541.261-.213.475-.461.642-.743.166-.282.258-.602.274-.959a2.107 2.107 0 00-.089-.508 1.66 1.66 0 00-.325-.587h1.138v-1.559h-4.833l-.207 1.522c.272.049.546.095.822.14.276.045.554.114.834.207.19.073.369.15.535.228.167.08.312.156.436.229.123.073.22.139.292.197.07.06.106.103.106.131 0 .175-.07.327-.21.457-.14.13-.32.243-.541.34a4.33 4.33 0 01-.74.244c-.272.065-.537.118-.794.158a8.846 8.846 0 01-1.209.11c-.19 0-.415-.005-.672-.015a5.05 5.05 0 01-.785-.095 3.14 3.14 0 01-.758-.252 1.588 1.588 0 01-.597-.496 2.539 2.539 0 01-.402-1.406 7.51 7.51 0 01.167-1.607c.064-.3.15-.626.26-.977.11-.351.247-.734.413-1.148l-1.253-.578c-.175.418-.321.808-.439 1.169-.117.36-.214.703-.289 1.025-.075.323-.134.63-.176.923-.043.292-.076.578-.1.858a5.132 5.132 0 00-.019.426c0 .52.085.984.256 1.394.21.523.525.959.943 1.305a4.16 4.16 0 001.516.78 6.902 6.902 0 001.935.258z" mask="url(#e)"/><path fill="#000000" fill-opacity=".56" fill-rule="nonzero" d="M191.857 97.883a8.398 8.398 0 001.405-.344c.459-.155.896-.348 1.311-.577.415-.23.802-.498 1.162-.804a5.91 5.91 0 00.95-1.022c.273-.376.498-.785.674-1.228.176-.443.29-.92.341-1.43a6.442 6.442 0 00.007-1.266 6.891 6.891 0 00-.23-1.217 5.77 5.77 0 00-.434-1.096 4.275 4.275 0 00-.623-.9c-.552-.594-1.157-.891-1.816-.891a1.77 1.77 0 00-.859.226 2.61 2.61 0 00-.768.664c-.195.25-.365.549-.508.894a3.926 3.926 0 00-.275.925c-.04.272-.06.495-.06.672 0 .185.017.37.05.556.055.353.19.663.403.932.482.599 1.227.928 2.233.988.255.023.483.035.685.035h.79c-.051.348-.194.701-.428 1.06-.234.36-.553.7-.957 1.02-.403.32-.888.608-1.453.863a8.976 8.976 0 01-1.92.598l.32 1.342zm3.755-6.26h-.048c-.204 0-.422-.007-.654-.021a3.506 3.506 0 01-.295-.032 2.472 2.472 0 01-.348-.076 1.635 1.635 0 01-.334-.14.819.819 0 01-.26-.225.651.651 0 01-.143-.33 2.434 2.434 0 01-.025-.31 3.16 3.16 0 01.153-.908c.065-.202.145-.384.24-.546.095-.163.203-.296.324-.4a.577.577 0 01.382-.157c.084 0 .163.014.237.042.074.028.145.064.212.108s.13.093.188.146c.058.053.11.103.156.15.116.134.229.293.338.476.109.183.207.388.295.616.089.227.16.473.216.737.056.264.09.545.104.842-.18.014-.344.022-.49.024l-.296.004h.048zM186.639 93c.38 0 .748-.026 1.103-.077.355-.05.68-.139.977-.264.297-.125.56-.292.79-.5.23-.21.414-.471.553-.787.139-.32.208-.69.208-1.113 0-.074-.002-.148-.007-.222-.032-.515-.153-1.109-.361-1.781a9.033 9.033 0 00-.223-.644 14.062 14.062 0 00-.382-.897 1.713 1.713 0 01-.063-.143l-1.238.612.605 1.489c.097.237.171.463.222.678.051.216.082.385.09.508.01.123.015.215.015.275 0 .111-.007.216-.021.313a1.35 1.35 0 01-.104.369 1.089 1.089 0 01-.39.455c-.167.11-.36.192-.577.247-.218.056-.455.09-.71.101-.255.012-.517.018-.786.018h-1.343V93h1.642zm-.348 3.402l1.127-1.127-1.14-1.141-1.128 1.134 1.141 1.134zm2.852.014l1.127-1.134-1.14-1.134-1.127 1.127 1.14 1.14zm-9.933 1.718a12.712 12.712 0 001.704-1.03 9.084 9.084 0 001.471-1.304 6.295 6.295 0 001.033-1.54c.26-.553.39-1.132.39-1.74v-.028c.116.125.238.223.365.292a1.686 1.686 0 00.713.209c.102.005.186.007.25.007h.119v-1.363h-.112c-.231 0-.444-.056-.636-.167a1.88 1.88 0 01-.553-.526 4.913 4.913 0 01-.515-.925 15.038 15.038 0 01-.515-1.374l-1.307.404c.055.171.122.386.201.643.08.258.158.532.237.825.079.292.152.59.219.893.067.304.117.588.15.853a2.596 2.596 0 01-.077.94c-.084.31-.21.609-.38.896-.168.288-.376.562-.622.824a8.04 8.04 0 01-.807.748 9.486 9.486 0 01-.932.665c-.33.206-.66.395-.995.567l.599 1.23zm-.821-5.071c.065-.77.103-1.496.114-2.178.012-.682.018-1.226.018-1.635 0-.677-.007-1.4-.021-2.17a63.583 63.583 0 00-.355-5.064l-1.363.208c.157 1.461.283 3.316.375 5.566.014.384.021.793.021 1.224 0 .357-.004.73-.014 1.12a64.701 64.701 0 01-.146 2.852l1.37.077zm-7.02-.063c.38 0 .748-.026 1.103-.077.355-.05.68-.139.978-.264.296-.125.56-.292.79-.5.229-.21.413-.471.552-.787.14-.32.209-.69.209-1.113 0-.074-.002-.148-.007-.222-.033-.515-.153-1.109-.362-1.781a9.033 9.033 0 00-.222-.644 14.062 14.062 0 00-.383-.897 1.712 1.712 0 01-.063-.143l-1.238.612.605 1.489c.098.237.172.463.223.678.05.216.081.385.09.508.01.123.014.215.014.275 0 .111-.007.216-.02.313a1.35 1.35 0 01-.105.369 1.089 1.089 0 01-.39.455c-.166.11-.359.192-.577.247-.218.056-.454.09-.71.101-.255.012-.517.018-.786.018h-1.342V93h1.642zm-.347 3.402l1.127-1.127-1.141-1.141-1.127 1.134 1.14 1.134zm2.852.014L175 95.282l-1.141-1.134-1.127 1.127 1.14 1.14zM163.64 84.395l1.03-1.03-1.037-1.036-1.03 1.03 1.037 1.036zm-1.572 2.198l1.127-1.134-1.141-1.14-1.127 1.133 1.14 1.141zm3.054.007l1.127-1.127-1.141-1.14-1.127 1.126 1.14 1.141zm-9.92 11.012a8.64 8.64 0 002.052-.323 4.259 4.259 0 001.617-.863c.452-.392.805-.9 1.058-1.527.252-.626.379-1.398.379-2.316.102.074.201.138.299.19a1.793 1.793 0 00.65.21c.123.016.266.024.428.024a2.87 2.87 0 001.117-.22c.35-.145.664-.38.942-.705.098.148.212.28.345.393.132.113.27.21.417.288.146.08.293.14.442.181.148.042.285.063.41.063a2.06 2.06 0 001.252-.403c.177-.13.333-.283.47-.46.137-.176.251-.373.344-.591.116.227.263.43.442.609a2.875 2.875 0 001.273.74c.239.066.481.098.727.098h.14v-1.363h-.14a1.3 1.3 0 01-.692-.181c-.197-.12-.37-.28-.518-.48a2.868 2.868 0 01-.373-.689 5.8 5.8 0 01-.243-.807 8.093 8.093 0 01-.143-.831 9.945 9.945 0 01-.062-.769l-1.364.097c.01.158.025.357.045.599a8.976 8.976 0 01-.01 1.593 2.92 2.92 0 01-.167.74c-.083.22-.202.4-.355.54-.153.139-.352.208-.598.208a.65.65 0 01-.445-.153 1.043 1.043 0 01-.275-.407 2.392 2.392 0 01-.143-.577 4.403 4.403 0 01-.041-.55v-.344c0-.148.002-.297.007-.445.009-.218.016-.415.02-.591l-1.412-.105c-.009.237-.017.478-.024.724a7.885 7.885 0 01-.052.716 5.015 5.015 0 01-.122.658 1.66 1.66 0 01-.24.539 1.184 1.184 0 01-.407.365c-.165.09-.37.136-.616.136-.32 0-.583-.078-.79-.233a2 2 0 01-.524-.606 4.68 4.68 0 01-.373-.827 28.728 28.728 0 00-.323-.894 14.972 14.972 0 01-.257-.675l-1.155.751c.153.399.29.799.414 1.2.123.401.212.785.268 1.151a6.918 6.918 0 01.076 1.336 5.77 5.77 0 01-.236 1.329c-.423 1.29-1.619 1.98-3.59 2.073h-.237c-.394 0-.737-.043-1.03-.129a2.925 2.925 0 01-.757-.334 2.228 2.228 0 01-.533-.466 2.962 2.962 0 01-.347-.529 2.646 2.646 0 01-.202-.518 4.284 4.284 0 01-.094-.431 4.03 4.03 0 01-.035-.814c.014-.274.045-.546.094-.817a7.883 7.883 0 01.41-1.472 5.47 5.47 0 01.244-.546c.081-.155.152-.272.212-.351L151.766 89c-.19.315-.372.666-.546 1.05-.174.385-.32.795-.438 1.228-.119.434-.192.81-.22 1.127a6.142 6.142 0 00.02 1.61c.085.566.25 1.07.499 1.514.248.443.563.82.946 1.13.383.31.82.547 1.311.71a5.052 5.052 0 001.593.243h.272zm100.726-4.55c.065-.77.103-1.495.114-2.177.012-.682.018-1.226.018-1.635 0-.677-.007-1.4-.021-2.17a63.583 63.583 0 00-.355-5.064l-1.363.208c.157 1.461.283 3.316.375 5.566.014.384.021.793.021 1.224 0 .357-.004.73-.014 1.12a64.701 64.701 0 01-.146 2.852l1.37.077zm-8.09 4.919c.389-.19.773-.405 1.15-.644.379-.238.738-.5 1.079-.782a9.21 9.21 0 00.946-.905c.29-.32.54-.656.751-1.008.211-.353.376-.718.494-1.096.118-.378.178-.769.178-1.172 0-.204-.017-.413-.05-.626a9.948 9.948 0 00-.12-.65 19.8 19.8 0 00-.16-.668 95.343 95.343 0 01-.171-.672 10.345 10.345 0 00-.174-.636c-.065-.211-.13-.426-.195-.644l-1.322.418c.125.39.244.779.355 1.168.051.19.104.385.16.585.056.2.107.399.153.598.046.2.085.394.115.584.03.19.045.371.045.543 0 .45-.109.886-.327 1.308-.218.422-.507.82-.866 1.196-.36.376-.769.723-1.228 1.04-.459.318-.932.597-1.419.839l.605 1.224zm-3.89-12.654l1.128-1.127-1.141-1.14-1.127 1.133 1.14 1.134zm2.853.014l1.127-1.134-1.141-1.134-1.127 1.127 1.14 1.14zM243.769 93c.38 0 .748-.026 1.102-.077.355-.05.68-.139.978-.264.297-.125.56-.292.79-.5.229-.21.413-.471.552-.787.14-.32.209-.69.209-1.113 0-.074-.002-.148-.007-.222-.032-.515-.153-1.109-.362-1.781a9.033 9.033 0 00-.222-.644 14.061 14.061 0 00-.383-.897 1.713 1.713 0 01-.063-.143l-1.238.612.605 1.489c.098.237.172.463.223.678.051.216.081.385.09.508.01.123.014.215.014.275 0 .111-.007.216-.02.313a1.35 1.35 0 01-.105.369 1.089 1.089 0 01-.39.455c-.166.11-.359.192-.577.247-.218.056-.454.09-.71.101-.254.012-.516.018-.785.018h-1.343V93h1.642zm-6.449-7.812l1.127-1.127-1.14-1.141-1.128 1.134 1.141 1.134zm2.852.014l1.127-1.134-1.14-1.134-1.128 1.127 1.141 1.14zM235.302 93c.71 0 1.378-.04 2.004-.122.626-.08 1.157-.205 1.593-.372a9.153 9.153 0 001.649.38c.566.076 1.138.114 1.718.114h.14v-1.363h-.133c-.148 0-.304-.005-.466-.014a16.345 16.345 0 01-.95-.084 4.385 4.385 0 01-.414-.07c.25-.273.442-.585.574-.935.133-.35.203-.628.213-.835.009-.206.013-.33.013-.372 0-.32-.041-.633-.125-.94a2.852 2.852 0 00-.455-.938 2.47 2.47 0 00-.776-.682 2.385 2.385 0 00-1.085-.292h-.077c-.31 0-.614.079-.911.236a2.694 2.694 0 00-.863.738c-.25.32-.441.672-.574 1.057a3.766 3.766 0 00-.198 1.231c0 .668.302 1.266.904 1.795-.208.023-.47.047-.786.07-.315.023-.647.035-.994.035h-.14V93h.14zm3.548-1.99a2.078 2.078 0 01-.95-.553 1.498 1.498 0 01-.263-.365.796.796 0 01-.094-.355c0-.283.04-.541.121-.775.082-.234.185-.434.31-.599a1.53 1.53 0 01.407-.382.784.784 0 01.407-.136c.153 0 .299.062.438.185.14.122.256.28.351.473.095.192.157.374.185.546.028.171.041.31.041.417 0 .13-.013.26-.041.39a1.68 1.68 0 01-.289.66 1.547 1.547 0 01-.623.494zM235.442 93v-1.363h-.14a2.77 2.77 0 01-.754-.09c-.211-.061-.37-.145-.477-.251a.58.58 0 01-.184-.359 3.758 3.758 0 01-.024-.441v-3.493a48.55 48.55 0 00-.066-2.546 31.39 31.39 0 00-.077-1.12c-.03-.343-.066-.633-.108-.87l-1.363.251c.041.218.077.498.108.839.03.34.055.713.076 1.116.02.404.036.82.045 1.252.01.432.014.847.014 1.245.005.409.007.796.007 1.162 0 .371-.002.7-.007.988a211.355 211.355 0 00-.013.957v.08c0 .11.002.244.006.4a2.686 2.686 0 00.247 1.012c.081.176.198.34.351.494.25.25.556.436.915.556.36.12.794.181 1.305.181h.139z" mask="url(#e)"/><path fill="#EA475B" fill-rule="nonzero" mask="url(#e)" d="M278 111h97v2h-97zM360.138 93c.38 0 .748-.026 1.103-.077.355-.05.68-.139.977-.264.297-.125.56-.292.79-.5.23-.21.414-.471.553-.787.139-.32.209-.69.209-1.113 0-.074-.003-.148-.007-.222-.033-.515-.153-1.109-.362-1.781a9.034 9.034 0 00-.223-.644 14.061 14.061 0 00-.382-.897 1.713 1.713 0 01-.063-.143l-1.238.612.605 1.489c.097.237.172.463.223.678.05.216.08.385.09.508.01.123.014.215.014.275 0 .111-.007.216-.02.313a1.35 1.35 0 01-.105.369 1.089 1.089 0 01-.39.455c-.167.11-.36.192-.577.247-.218.056-.455.09-.71.101-.255.012-.517.018-.786.018h-1.342V93h1.641zm2.65 3.624l1.142-1.14-1.127-1.127-1.141 1.14 1.127 1.127zm-3.04.014l1.142-1.14-1.127-1.135-1.141 1.141 1.127 1.134zm1.552 1.99l1.037-1.037-1.03-1.03-1.037 1.037 1.03 1.03zM353.606 93c.436 0 .815-.017 1.137-.052.323-.035.605-.088.846-.16a2.598 2.598 0 001.113-.65c.2.254.454.462.765.622.31.16.7.24 1.169.24h.139v-1.363h-.14c-.236 0-.43-.054-.58-.16a1.141 1.141 0 01-.355-.404 1.905 1.905 0 01-.184-.529 4.913 4.913 0 01-.077-.542 21.332 21.332 0 00-.125-1.204 6.534 6.534 0 00-.202-.946l-1.308.369c.102.352.173.665.213.939.039.274.059.543.059.807 0 .278-.047.522-.14.73a1.256 1.256 0 01-.434.522c-.197.14-.452.244-.765.313-.314.07-.69.105-1.13.105h-1.037V93h1.036zm.257 3.402l1.127-1.127-1.14-1.141-1.127 1.134 1.14 1.134zm2.853.014l1.127-1.134-1.141-1.134-1.127 1.127 1.14 1.14zm-10.233-12.021l1.03-1.03-1.037-1.036-1.03 1.03 1.037 1.036zm-1.573 2.198l1.127-1.134-1.14-1.14-1.127 1.133 1.14 1.141zm3.054.007l1.127-1.127-1.14-1.14-1.128 1.126 1.141 1.141zm-9.92 11.012a8.64 8.64 0 002.053-.323 4.259 4.259 0 001.617-.863c.452-.392.805-.9 1.057-1.527.253-.626.38-1.398.38-2.316.101.074.201.138.299.19a1.793 1.793 0 00.65.21c.123.016.266.024.428.024a2.87 2.87 0 001.116-.22c.35-.145.665-.38.943-.705.097.148.212.28.344.393.132.113.272.21.418.288.146.08.293.14.441.181.149.042.286.063.41.063a2.06 2.06 0 001.252-.403c.177-.13.334-.283.47-.46.137-.176.252-.373.345-.591.116.227.263.43.442.609a2.875 2.875 0 001.273.74c.239.066.48.098.727.098h.139v-1.363h-.14a1.3 1.3 0 01-.691-.181c-.198-.12-.37-.28-.519-.48a2.868 2.868 0 01-.372-.689 5.8 5.8 0 01-.243-.807 8.093 8.093 0 01-.143-.831 9.945 9.945 0 01-.063-.769l-1.363.097c.01.158.024.357.045.599a8.976 8.976 0 01-.01 1.593 2.92 2.92 0 01-.167.74c-.084.22-.202.4-.355.54-.153.139-.353.208-.598.208a.65.65 0 01-.446-.153 1.043 1.043 0 01-.274-.407 2.392 2.392 0 01-.143-.577 4.403 4.403 0 01-.042-.55v-.344c0-.148.003-.297.007-.445.01-.218.017-.415.021-.591l-1.412-.105c-.01.237-.017.478-.024.724a7.885 7.885 0 01-.053.716 5.015 5.015 0 01-.121.658 1.66 1.66 0 01-.24.539 1.184 1.184 0 01-.407.365c-.165.09-.37.136-.616.136-.32 0-.583-.078-.79-.233a2 2 0 01-.525-.606 4.68 4.68 0 01-.372-.827 28.728 28.728 0 00-.323-.894 14.976 14.976 0 01-.258-.675l-1.154.751c.153.399.29.799.413 1.2.123.401.213.785.268 1.151a6.918 6.918 0 01.077 1.336 5.77 5.77 0 01-.237 1.329c-.422 1.29-1.618 1.98-3.59 2.073h-.236c-.394 0-.737-.043-1.03-.129a2.925 2.925 0 01-.758-.334 2.228 2.228 0 01-.532-.466 2.962 2.962 0 01-.348-.529 2.646 2.646 0 01-.201-.518 4.284 4.284 0 01-.094-.431 4.03 4.03 0 01-.035-.814c.014-.274.045-.546.094-.817a7.884 7.884 0 01.41-1.472 5.47 5.47 0 01.244-.546c.08-.155.152-.272.212-.351L334.608 89c-.19.315-.372.666-.546 1.05-.174.385-.32.795-.439 1.228-.118.434-.19.81-.219 1.127a6.142 6.142 0 00.02 1.61c.085.566.25 1.07.499 1.514.248.443.563.82.946 1.13.382.31.82.547 1.311.71a5.052 5.052 0 001.593.243h.271zm-8.327-12.202l1.134-1.133-1.14-1.141-1.134 1.134 1.14 1.14zM328.604 93c.38 0 .734-.026 1.061-.077.327-.05.623-.139.887-.264.265-.125.498-.292.7-.5.201-.21.371-.471.51-.787.14-.32.21-.69.21-1.113 0-.074-.003-.148-.008-.222-.032-.515-.153-1.109-.361-1.781a9.033 9.033 0 00-.223-.644 14.063 14.063 0 00-.383-.897 1.712 1.712 0 01-.062-.143l-1.238.612.605 1.489c.097.237.171.463.222.678.051.216.082.385.09.508.01.123.015.215.015.275 0 .111-.007.216-.021.313a1.35 1.35 0 01-.105.369 1.245 1.245 0 01-.347.455c-.14.11-.302.192-.487.247-.186.056-.392.09-.62.101-.227.012-.475.018-.744.018h-.807V93h1.106zm-9.161 0c.714 0 1.335-.188 1.864-.563.269-.186.464-.374.584-.564.868.608 1.765.97 2.692 1.085.08.01.156.014.23.014.478 0 .884-.22 1.217-.66.177.231.398.404.665.518.266.113.571.17.915.17h.167v-1.363h-.167a.926.926 0 01-.717-.32 1.072 1.072 0 01-.195-.341 1.341 1.341 0 01-.076-.41 5.854 5.854 0 00-.08-.759 4.076 4.076 0 00-.536-1.437 2.539 2.539 0 00-.47-.567 2.081 2.081 0 00-.615-.382 2.035 2.035 0 00-.769-.14c-.408 0-.757.109-1.047.324-.29.216-.534.495-.734.838l-.052.087c-.02.035-.054.098-.1.188-.047.09-.112.22-.196.39-.083.17-.197.395-.34.678-.177.339-.346.62-.508.842-.501.668-1.076 1.004-1.725 1.009h-.147V93h.14zm5.21-1.384c-.07 0-.146-.007-.23-.021a3.463 3.463 0 01-.768-.272 7.137 7.137 0 01-.95-.556l.038-.077a97.093 97.093 0 01.282-.574c.084-.169.195-.397.334-.685.283-.52.547-.779.793-.779.209 0 .39.058.543.174.153.116.28.266.379.449.1.183.176.388.23.615.053.228.084.453.093.675v.112c0 .125-.011.238-.034.34a1 1 0 01-.146.334c-.121.177-.309.265-.564.265zM319.582 93v-1.363h-.14a2.77 2.77 0 01-.754-.09c-.211-.061-.37-.145-.477-.251a.58.58 0 01-.184-.359 3.758 3.758 0 01-.024-.441v-3.493a48.55 48.55 0 00-.066-2.546 31.39 31.39 0 00-.077-1.12c-.03-.343-.066-.633-.108-.87l-1.363.251c.041.218.077.498.108.839.03.34.055.713.076 1.116.02.404.036.82.045 1.252.01.432.014.847.014 1.245.005.409.007.796.007 1.162 0 .371-.002.7-.007.988a211.355 211.355 0 00-.013.957v.08c0 .11.002.244.006.4a2.686 2.686 0 00.247 1.012c.081.176.198.34.351.494.25.25.556.436.915.556.36.12.794.181 1.305.181h.139zm-8.842 0c.38 0 .748-.026 1.103-.077.354-.05.68-.139.977-.264.297-.125.56-.292.79-.5.23-.21.413-.471.553-.787.139-.32.208-.69.208-1.113 0-.074-.002-.148-.007-.222-.032-.515-.153-1.109-.361-1.781a9.033 9.033 0 00-.223-.644 14.063 14.063 0 00-.383-.897 1.712 1.712 0 01-.062-.143l-1.238.612.605 1.489c.097.237.171.463.222.678.051.216.082.385.09.508.01.123.015.215.015.275 0 .111-.007.216-.021.313a1.35 1.35 0 01-.105.369 1.089 1.089 0 01-.39.455c-.166.11-.359.192-.576.247-.218.056-.455.09-.71.101-.255.012-.517.018-.786.018h-1.343V93h1.642zm-.348 3.402l1.127-1.127-1.14-1.141-1.128 1.134 1.141 1.134zm2.852.014l1.127-1.134-1.14-1.134-1.128 1.127 1.141 1.14zm-10.233-12.021l1.03-1.03-1.037-1.036-1.03 1.03 1.037 1.036zm-1.572 2.198l1.127-1.134-1.14-1.14-1.128 1.133 1.141 1.141zm3.054.007l1.127-1.127-1.14-1.14-1.128 1.126 1.141 1.141zm-9.92 11.012a8.64 8.64 0 002.052-.323 4.259 4.259 0 001.618-.863c.452-.392.804-.9 1.057-1.527.253-.626.38-1.398.38-2.316.101.074.2.138.298.19a1.793 1.793 0 00.65.21c.124.016.266.024.429.024a2.87 2.87 0 001.116-.22c.35-.145.664-.38.943-.705.097.148.212.28.344.393.132.113.271.21.417.288.146.08.294.14.442.181.149.042.285.063.41.063a2.06 2.06 0 001.252-.403c.177-.13.333-.283.47-.46.137-.176.252-.373.345-.591.116.227.263.43.441.609a2.875 2.875 0 001.273.74c.24.066.482.098.727.098h.14v-1.363h-.14a1.3 1.3 0 01-.692-.181c-.197-.12-.37-.28-.518-.48a2.868 2.868 0 01-.372-.689 5.8 5.8 0 01-.244-.807 8.093 8.093 0 01-.142-.831 9.945 9.945 0 01-.063-.769l-1.363.097c.009.158.024.357.045.599a8.976 8.976 0 01-.01 1.593 2.92 2.92 0 01-.168.74c-.083.22-.201.4-.354.54-.153.139-.353.208-.599.208a.65.65 0 01-.445-.153 1.043 1.043 0 01-.275-.407 2.392 2.392 0 01-.142-.577 4.403 4.403 0 01-.042-.55v-.344c0-.148.002-.297.007-.445.01-.218.016-.415.02-.591l-1.411-.105c-.01.237-.018.478-.025.724a7.886 7.886 0 01-.052.716 5.015 5.015 0 01-.122.658 1.66 1.66 0 01-.24.539 1.184 1.184 0 01-.407.365c-.164.09-.37.136-.615.136-.32 0-.583-.078-.79-.233a2 2 0 01-.525-.606 4.68 4.68 0 01-.372-.827 28.726 28.726 0 00-.324-.894 14.971 14.971 0 01-.257-.675l-1.155.751c.153.399.291.799.414 1.2.123.401.212.785.268 1.151a6.918 6.918 0 01.076 1.336 5.77 5.77 0 01-.236 1.329c-.422 1.29-1.619 1.98-3.59 2.073h-.236c-.394 0-.738-.043-1.03-.129a2.925 2.925 0 01-.758-.334 2.228 2.228 0 01-.532-.466 2.962 2.962 0 01-.348-.529 2.646 2.646 0 01-.202-.518 4.285 4.285 0 01-.094-.431 4.03 4.03 0 01-.034-.814c.014-.274.045-.546.094-.817a7.883 7.883 0 01.41-1.472 5.47 5.47 0 01.243-.546c.082-.155.152-.272.213-.351L291.137 89c-.19.315-.373.666-.547 1.05-.173.385-.32.795-.438 1.228-.118.434-.191.81-.219 1.127a6.142 6.142 0 00.02 1.61c.084.566.25 1.07.498 1.514.248.443.564.82.946 1.13.383.31.82.547 1.312.71a5.052 5.052 0 001.593.243h.271z"/><path fill="#000000" fill-opacity=".56" fill-rule="nonzero" d="M111.83 93c.7 0 1.394-.065 2.08-.195.687-.13 1.351-.298 1.993-.504a19.848 19.848 0 001.844-.692c.587-.255 1.135-.51 1.645-.766.348-.171.682-.335 1.002-.49.32-.155.642-.3.967-.435l-.264-1.321c-.288 0-.573-.03-.856-.09a6.842 6.842 0 01-.849-.24 11.25 11.25 0 01-.845-.338 39.2 39.2 0 01-.831-.383c-.25-.116-.499-.23-.745-.34-.245-.112-.487-.21-.723-.296a5.637 5.637 0 00-.7-.206 3.12 3.12 0 00-.678-.076c-.45 0-.877.109-1.283.327-.406.218-.79.545-1.151.98a4.72 4.72 0 00-.33.439c-.096.144-.177.271-.244.383a3.542 3.542 0 00-.212.396l1.252.564a3.686 3.686 0 01.257-.456c.084-.128.183-.264.3-.41.115-.147.246-.283.392-.411.146-.128.305-.233.477-.317.171-.083.352-.125.542-.125.144 0 .302.022.473.066.172.044.354.104.547.178.192.074.391.159.598.254l.636.295c.283.135.57.267.863.397.292.13.598.25.918.362-.528.264-1.078.521-1.648.772-.57.25-1.155.473-1.754.668-.598.194-1.205.35-1.822.47a9.807 9.807 0 01-1.85.177h-1.51V93h1.51zm-5.815-9.217l1.134-1.134-1.141-1.141-1.134 1.134 1.14 1.14zM110.599 93v-1.363h-.139c-.278 0-.508-.036-.689-.108a1.244 1.244 0 01-.452-.3 1.755 1.755 0 01-.31-.466 15.476 15.476 0 01-.267-.608c-.181-.422-.352-.827-.512-1.214a3908.258 3908.258 0 01-1.617-3.927l-1.266.529 2.198 5.287a2.64 2.64 0 01-.925.584c-.25.097-.463.154-.637.17a4.617 4.617 0 01-.393.025c-.185 0-.37-.021-.556-.063a3.191 3.191 0 01-.842-.32 4.114 4.114 0 01-.842-.619l-.786 1.106c.395.408.825.725 1.29.95a3.45 3.45 0 001.52.337c.33 0 .627-.02.891-.06a4.2 4.2 0 00.734-.173c.225-.077.436-.173.633-.289.197-.116.393-.25.588-.403a2.4 2.4 0 00.348.358c.134.114.29.212.47.296.178.083.384.15.619.198.234.049.502.073.803.073h.14zM98.23 83.845l1.134-1.134-1.14-1.14-1.134 1.133 1.14 1.141zm-3.693 9.148c.426 0 .861-.01 1.304-.028a15.06 15.06 0 001.308-.111 8.95 8.95 0 001.234-.247 4.802 4.802 0 001.075-.435c.323-.18.602-.403.839-.668.236-.264.41-.582.521-.953.125-.422.188-.846.188-1.273v-.048a5.624 5.624 0 00-.17-1.28 5.211 5.211 0 00-.428-1.13 4.04 4.04 0 00-.591-.867c-.497-.552-1.053-.828-1.67-.828-.32 0-.608.08-.863.24-.255.16-.476.365-.664.616-.188.25-.342.53-.463.838-.12.309-.206.611-.257.908a3.487 3.487 0 00-.042.515v.118c.01.195.034.37.073.525.04.156.092.292.157.41a2.12 2.12 0 001.043.936 3.995 3.995 0 001.388.289l.212.007c.08.002.17.003.275.003h.372a1.72 1.72 0 01-.226.213 2.22 2.22 0 01-.372.233c-.162.088-.36.177-.595.267-.234.09-.525.17-.873.24-.348.07-.723.12-1.127.15-.403.03-.807.045-1.21.045-.204 0-.418-.002-.64-.007a11.592 11.592 0 01-1.51-.125 6.075 6.075 0 01-1.158-.289 3.138 3.138 0 01-.842-.452 2.237 2.237 0 01-.553-.615 1.62 1.62 0 01-.23-.57 2.967 2.967 0 01-.048-.509c0-.06.002-.118.007-.174.01-.208.038-.409.087-.601a5.245 5.245 0 01.295-.86l.063-.132-1.21-.66a2.485 2.485 0 01-.098.219 6.659 6.659 0 00-.407 1.22c-.062.27-.096.49-.1.661-.005.172-.008.279-.008.32 0 .27.028.543.084.821.065.325.19.643.376.953.825 1.41 2.643 2.115 5.454 2.115zm4.55-3.833c-.2 0-.42-.007-.662-.02a2.297 2.297 0 01-.654-.123c-.185-.067-.32-.156-.403-.267a.708.708 0 01-.167-.359 1.635 1.635 0 01.007-.574c.032-.171.087-.34.163-.504.077-.165.16-.31.25-.438a1.31 1.31 0 01.265-.289c.086-.065.161-.097.226-.097a1.15 1.15 0 01.49.212c.133.1.25.221.352.365.102.144.189.304.26.48.073.176.134.357.185.543.051.185.095.368.132.55.037.18.07.347.098.5-.158.014-.339.021-.543.021zM46.395 93c.283 0 .55-.014.8-.042.25-.028.487-.08.71-.16.222-.079.432-.192.629-.34.197-.149.386-.346.567-.592.213.158.445.312.695.463.25.15.512.278.783.382a3.005 3.005 0 001.123.226c.19 0 .38-.025.57-.076a1.66 1.66 0 00.766-.449c.209-.215.373-.468.494-.758.12-.29.195-.555.223-.797.027-.24.041-.436.041-.584 0-.167-.011-.33-.034-.487a4.21 4.21 0 00-.247-.918 2.864 2.864 0 00-.477-.807c-.2-.237-.44-.428-.72-.574a2.071 2.071 0 00-.97-.22c-.306 0-.574.062-.804.185-.23.123-.433.283-.612.48a3.668 3.668 0 00-.48.675c-.141.253-.275.509-.4.769-.144.287-.286.567-.428.838a3.398 3.398 0 01-.5.723c-.193.211-.426.38-.7.508-.273.128-.617.192-1.03.192h-.138V93h.139zm5.287-1.447c-.186 0-.395-.046-.626-.14-.348-.138-.733-.363-1.155-.674l.375-.758c.116-.227.22-.424.31-.591a3.74 3.74 0 01.257-.418.985.985 0 01.244-.247.466.466 0 01.26-.08c.14 0 .263.028.37.084.106.055.199.126.278.212.078.086.146.18.201.285a2.264 2.264 0 01.216.567c.019.079.03.135.035.167.018.125.028.246.028.362a2.082 2.082 0 01-.129.703c-.053.138-.117.252-.191.34a.444.444 0 01-.23.16 1.003 1.003 0 01-.243.028zm-8.216-4.793l1.134-1.134-1.141-1.14-1.134 1.133 1.141 1.141zm-2.998 11.374a12.712 12.712 0 001.704-1.03 9.084 9.084 0 001.471-1.304 6.295 6.295 0 001.033-1.54c.26-.553.39-1.132.39-1.74v-.028c.116.125.238.223.365.292a1.686 1.686 0 00.713.209c.102.005.186.007.25.007h.119v-1.363h-.111c-.232 0-.444-.056-.637-.167a1.88 1.88 0 01-.553-.526 4.913 4.913 0 01-.515-.925 15.038 15.038 0 01-.515-1.374l-1.307.404c.055.171.123.386.201.643.08.258.158.532.237.825.079.292.152.59.219.893.067.304.117.588.15.853a2.596 2.596 0 01-.077.94c-.083.31-.21.609-.379.896-.17.288-.377.562-.623.824a8.04 8.04 0 01-.807.748 9.486 9.486 0 01-.932.665c-.33.206-.66.395-.995.567l.599 1.23zm-.821-5.071c.065-.77.103-1.496.115-2.178.011-.682.017-1.226.017-1.635 0-.677-.007-1.4-.02-2.17a63.584 63.584 0 00-.356-5.064l-1.363.208c.158 1.461.283 3.316.376 5.566.013.384.02.793.02 1.224 0 .357-.004.73-.014 1.12a64.7 64.7 0 01-.146 2.852l1.37.077zM32.628 93c.381 0 .749-.026 1.103-.077.355-.05.68-.139.978-.264.297-.125.56-.292.79-.5.229-.21.413-.471.552-.787.14-.32.209-.69.209-1.113 0-.074-.002-.148-.007-.222-.032-.515-.153-1.109-.362-1.781a9.033 9.033 0 00-.222-.644 14.062 14.062 0 00-.383-.897 1.713 1.713 0 01-.063-.143l-1.238.612.605 1.489c.098.237.172.463.223.678.051.216.081.385.09.508.01.123.014.215.014.275 0 .111-.007.216-.02.313a1.35 1.35 0 01-.105.369 1.089 1.089 0 01-.39.455c-.166.11-.359.192-.577.247-.218.056-.454.09-.71.101-.254.012-.516.018-.785.018h-1.343V93h1.642zm-.347 3.402l1.127-1.127-1.141-1.141-1.127 1.134 1.14 1.134zm2.852.014l1.127-1.134-1.14-1.134-1.128 1.127 1.141 1.14zM31.265 93v-1.363h-.139c-.278 0-.508-.036-.689-.108a1.244 1.244 0 01-.452-.3 1.755 1.755 0 01-.31-.466 15.475 15.475 0 01-.267-.608c-.181-.422-.351-.827-.511-1.214a3900.591 3900.591 0 01-1.618-3.927l-1.266.529 2.198 5.287a2.64 2.64 0 01-.925.584c-.25.097-.463.154-.636.17a4.617 4.617 0 01-.393.025c-.186 0-.371-.021-.557-.063a3.191 3.191 0 01-.842-.32 4.114 4.114 0 01-.841-.619l-.787 1.106c.395.408.825.725 1.29.95a3.45 3.45 0 001.52.337c.33 0 .627-.02.891-.06a4.2 4.2 0 00.734-.173c.225-.077.436-.173.633-.289.197-.116.393-.25.588-.403a2.4 2.4 0 00.348.358c.134.114.29.212.47.296.178.083.384.15.619.198.234.049.502.073.803.073h.14zm-12.431 0c.083 0 .187-.003.31-.01.122-.007.253-.024.393-.05.139-.025.285-.06.438-.103.153-.045.304-.104.452-.178.408-.2.718-.475.929-.828.21-.352.316-.767.316-1.245 0-.478-.139-.997-.417-1.558-.278-.561-.703-1.167-1.273-1.816a13.94 13.94 0 00-.585-.615 21.21 21.21 0 00-.51-.49c-.152-.14-.273-.249-.366-.328a1.407 1.407 0 01-.146-.132l-.877 1.064c0 .005.042.042.125.112.084.07.195.167.334.292a9.895 9.895 0 00-.814.848c-.755.91-1.133 1.784-1.133 2.623 0 .478.113.892.34 1.242.228.35.564.63 1.01.838.17.084.34.148.507.195.167.046.319.08.456.1a2.818 2.818 0 00.51.039zm.05-1.385h-.05a2.245 2.245 0 01-.362-.034 2.836 2.836 0 01-.257-.06 1.662 1.662 0 01-.272-.1 1.07 1.07 0 01-.299-.188.867.867 0 01-.17-.212.669.669 0 01-.077-.22 1.397 1.397 0 01-.017-.215c0-.236.054-.475.163-.716a4.18 4.18 0 01.4-.696c.158-.223.326-.427.505-.612.178-.186.335-.339.47-.46.45.488.792.947 1.029 1.378.236.431.355.8.355 1.106 0 .209-.039.38-.115.511a.918.918 0 01-.372.338c-.088.042-.181.074-.278.097-.098.023-.19.042-.279.056-.088.014-.169.022-.243.024a6.035 6.035 0 01-.181.004h.05z" mask="url(#e)"/><path fill="#000000" fill-opacity=".12" mask="url(#e)" d="M0 113h375v1H0z"/></g></g></g></svg>