<svg xmlns="http://www.w3.org/2000/svg" width="520" height="220" viewBox="0 0 520 220">
  <g fill="none" fill-rule="evenodd">
    <rect width="520" height="220"/>
    <g transform="translate(81 61)">
      <rect width="360" height="70"/>
      <g transform="translate(0 30)">
        <rect width="360" height="40" fill="#000000" fill-opacity=".24" rx="4"/>
        <circle cx="12" cy="12" r="12" fill="#FFF" transform="translate(328 8)"/>
        <circle cx="12" cy="12" r="12" fill="#FFF" transform="translate(8 8)"/>
        <path fill="#FFF" fill-rule="nonzero" d="M311.895652,24 C312.178551,24 312.445217,23.986087 312.695652,23.9582609 C312.946087,23.9304348 313.182609,23.8771014 313.405217,23.7982609 C313.627826,23.7194203 313.837681,23.6057971 314.034783,23.4573913 C314.231884,23.3089855 314.42087,23.1118841 314.601739,22.866087 C314.815072,23.0237681 315.046957,23.177971 315.297391,23.3286957 C315.547826,23.4794203 315.808696,23.6069565 316.08,23.7113043 C316.351304,23.8156522 316.583188,23.8794203 316.775652,23.9026087 C316.968116,23.9257971 317.110725,23.9373913 317.203478,23.9373913 C317.393623,23.9373913 317.583768,23.9118841 317.773913,23.8608696 C318.075362,23.7773913 318.330435,23.6278261 318.53913,23.4121739 C318.747826,23.1965217 318.912464,22.9437681 319.033043,22.653913 C319.153623,22.364058 319.227826,22.0985507 319.255652,21.8573913 C319.283478,21.6162319 319.297391,21.4214493 319.297391,21.2730435 C319.297391,21.106087 319.285797,20.9437681 319.262609,20.786087 C319.216232,20.4753623 319.133913,20.1692754 319.015652,19.8678261 C318.897391,19.5663768 318.738551,19.2973913 318.53913,19.0608696 C318.33971,18.8243478 318.09971,18.6330435 317.81913,18.4869565 C317.538551,18.3408696 317.215072,18.2678261 316.848696,18.2678261 C316.542609,18.2678261 316.274783,18.3292754 316.045217,18.4521739 C315.815652,18.5750725 315.611594,18.7350725 315.433043,18.9321739 C315.254493,19.1292754 315.094493,19.3542029 314.953043,19.6069565 C314.811594,19.8597101 314.678261,20.115942 314.553043,20.3756522 C314.409275,20.6631884 314.266667,20.9426087 314.125217,21.213913 C313.983768,21.4852174 313.816812,21.7263768 313.624348,21.9373913 C313.431884,22.1484058 313.198841,22.3176812 312.925217,22.4452174 C312.651594,22.5727536 312.308406,22.6365217 311.895652,22.6365217 L311.895652,22.6365217 L311.756522,22.6365217 L311.756522,24 L311.895652,24 Z M317.182609,22.5530435 C316.997101,22.5530435 316.788406,22.5066667 316.556522,22.413913 C316.208696,22.2747826 315.823768,22.0498551 315.401739,21.7391304 L315.401739,21.7391304 L315.777391,20.9808696 C315.893333,20.7536232 315.996522,20.5565217 316.086957,20.3895652 C316.177391,20.2226087 316.263188,20.0834783 316.344348,19.9721739 C316.425507,19.8608696 316.506667,19.7785507 316.587826,19.7252174 C316.668986,19.6718841 316.755942,19.6452174 316.848696,19.6452174 C316.987826,19.6452174 317.110725,19.6730435 317.217391,19.7286957 C317.324058,19.7843478 317.416812,19.8550725 317.495652,19.9408696 C317.574493,20.0266667 317.641739,20.1217391 317.697391,20.226087 C317.753043,20.3304348 317.798261,20.4313043 317.833043,20.5286957 C317.867826,20.626087 317.894493,20.7142029 317.913043,20.7930435 C317.931594,20.8718841 317.943188,20.9275362 317.947826,20.96 C317.966377,21.0852174 317.975652,21.2057971 317.975652,21.3217391 C317.975652,21.395942 317.971014,21.4701449 317.961739,21.5443478 C317.938551,21.7252174 317.90029,21.8852174 317.846957,22.0243478 C317.793623,22.1634783 317.729855,22.2771014 317.655652,22.3652174 C317.581449,22.4533333 317.504928,22.5066667 317.426087,22.5252174 C317.351884,22.5437681 317.270725,22.5530435 317.182609,22.5530435 Z M307.652174,17.4121739 L308.77913,16.2852174 L307.638261,15.1443478 L306.511304,16.2782609 L307.652174,17.4121739 Z M310.504348,17.426087 L311.631304,16.2921739 L310.490435,15.1582609 L309.363478,16.2852174 L310.504348,17.426087 Z M306.866087,24 C307.302029,24 307.681159,23.9826087 308.003478,23.9478261 C308.325797,23.9130435 308.607536,23.8597101 308.848696,23.7878261 C309.089855,23.715942 309.298551,23.6255072 309.474783,23.5165217 C309.651014,23.4075362 309.813333,23.2811594 309.961739,23.1373913 C310.161159,23.3924638 310.416232,23.6 310.726957,23.76 C311.037681,23.92 311.427246,24 311.895652,24 L311.895652,24 L312.034783,24 L312.034783,22.6365217 L311.895652,22.6365217 C311.65913,22.6365217 311.465507,22.5831884 311.314783,22.4765217 C311.164058,22.3698551 311.045797,22.2353623 310.96,22.0730435 C310.874203,21.9107246 310.812754,21.7344928 310.775652,21.5443478 C310.738551,21.3542029 310.713043,21.1733333 310.69913,21.0017391 C310.68058,20.755942 310.66087,20.5356522 310.64,20.3408696 C310.61913,20.146087 310.597101,19.9652174 310.573913,19.7982609 C310.550725,19.6313043 310.522899,19.4724638 310.490435,19.3217391 C310.457971,19.1710145 310.418551,19.0144928 310.372174,18.8521739 L310.372174,18.8521739 L309.064348,19.2208696 C309.166377,19.5733333 309.237101,19.8863768 309.276522,20.16 C309.315942,20.4336232 309.335652,20.7026087 309.335652,20.9669565 C309.335652,21.2452174 309.289275,21.4886957 309.196522,21.6973913 C309.103768,21.906087 308.958841,22.08 308.761739,22.2191304 C308.564638,22.3582609 308.309565,22.4626087 307.996522,22.5321739 C307.683478,22.6017391 307.306667,22.6365217 306.866087,22.6365217 L306.866087,22.6365217 L305.829565,22.6365217 L305.829565,24 L306.866087,24 Z M299.422609,20.64 L300.556522,19.506087 L299.415652,18.3652174 L298.281739,19.4991304 L299.422609,20.64 Z M299.137391,28.7721739 C299.707826,28.7721739 300.249275,28.7118841 300.761739,28.5913043 C301.274203,28.4707246 301.741449,28.2863768 302.163478,28.0382609 C302.585507,27.7901449 302.955362,27.475942 303.273043,27.0956522 C303.590725,26.7153623 303.837681,26.2631884 304.013913,25.7391304 C304.134493,25.3681159 304.212174,25.0295652 304.246957,24.7234783 C304.281739,24.4173913 304.29913,24.1414493 304.29913,23.8956522 C304.29913,23.7889855 304.296812,23.6823188 304.292174,23.5756522 C304.783768,23.8585507 305.342609,24 305.968696,24 L305.968696,24 L306.121739,24 L306.121739,22.6365217 L305.968696,22.6365217 C305.806377,22.6365217 305.633623,22.6168116 305.450435,22.5773913 C305.267246,22.537971 305.073623,22.4463768 304.869565,22.3026087 C304.665507,22.1588406 304.449855,21.9455072 304.222609,21.6626087 C303.995362,21.3797101 303.754203,20.9971014 303.49913,20.5147826 C303.369275,20.2365217 303.255652,20.0150725 303.158261,19.8504348 C303.06087,19.6857971 303.005217,19.5918841 302.991304,19.5686957 L302.991304,19.5686957 L301.836522,20.306087 C301.841159,20.306087 301.884058,20.3744928 301.965217,20.5113043 C302.046377,20.6481159 302.14029,20.835942 302.246957,21.0747826 C302.353623,21.3136232 302.461449,21.5942029 302.570435,21.9165217 C302.67942,22.2388406 302.764058,22.5785507 302.824348,22.9356522 C302.884638,23.2927536 302.914783,23.6591304 302.914783,24.0347826 L302.914783,24.0347826 L302.914783,24.1182609 C302.905507,24.5217391 302.838261,24.9228986 302.713043,25.3217391 C302.611014,25.6463768 302.457971,25.9373913 302.253913,26.1947826 C302.049855,26.4521739 301.797101,26.6701449 301.495652,26.8486957 C301.194203,27.0272464 300.844058,27.1628986 300.445217,27.2556522 C300.046377,27.3484058 299.601159,27.3947826 299.109565,27.3947826 C298.715362,27.3947826 298.364058,27.3518841 298.055652,27.266087 C297.747246,27.1802899 297.478261,27.0689855 297.248696,26.9321739 C297.01913,26.7953623 296.823188,26.6411594 296.66087,26.4695652 C296.498551,26.297971 296.364058,26.1228986 296.257391,25.9443478 C296.150725,25.7657971 296.070725,25.5930435 296.017391,25.426087 C295.964058,25.2591304 295.928116,25.1153623 295.909565,24.9947826 C295.881739,24.8046377 295.867826,24.6075362 295.867826,24.4034783 C295.867826,24.3292754 295.870145,24.2527536 295.874783,24.173913 C295.888696,23.8956522 295.92,23.622029 295.968696,23.3530435 C296.017391,23.084058 296.078841,22.8255072 296.153043,22.5773913 C296.227246,22.3292754 296.304928,22.1008696 296.386087,21.8921739 C296.467246,21.6834783 296.547246,21.5014493 296.626087,21.346087 C296.704928,21.1907246 296.774493,21.0713043 296.834783,20.9878261 L296.834783,20.9878261 L295.728696,20.173913 C295.538551,20.4892754 295.356522,20.8405797 295.182609,21.2278261 C295.008696,21.6150725 294.862609,22.0243478 294.744348,22.4556522 C294.626087,22.8869565 294.553043,23.2614493 294.525217,23.5791304 C294.497391,23.8968116 294.483478,24.1437681 294.483478,24.32 C294.483478,24.6075362 294.504348,24.8973913 294.546087,25.1895652 C294.638841,25.7971014 294.818551,26.3257971 295.085217,26.7756522 C295.351884,27.2255072 295.686957,27.5976812 296.090435,27.8921739 C296.493913,28.1866667 296.954203,28.4069565 297.471304,28.5530435 C297.988406,28.6991304 298.543768,28.7721739 299.137391,28.7721739 Z M282.594783,28.8834783 C283.072464,28.8092754 283.54087,28.6944928 284,28.5391304 C284.45913,28.3837681 284.896232,28.1913043 285.311304,27.9617391 C285.726377,27.7321739 286.113623,27.4643478 286.473043,27.1582609 C286.832464,26.8521739 287.148986,26.5113043 287.422609,26.1356522 C287.696232,25.76 287.921159,25.3507246 288.097391,24.9078261 C288.273623,24.4649275 288.387246,23.9884058 288.438261,23.4782609 C288.461449,23.2556522 288.473043,23.0330435 288.473043,22.8104348 C288.473043,22.6110145 288.463768,22.4115942 288.445217,22.2121739 C288.403478,21.7901449 288.326957,21.3843478 288.215652,20.9947826 C288.104348,20.6052174 287.95942,20.24 287.78087,19.8991304 C287.602319,19.5582609 287.394783,19.257971 287.158261,18.9982609 C286.606377,18.4046377 286.001159,18.1078261 285.342609,18.1078261 C285.045797,18.1078261 284.75942,18.1831884 284.483478,18.333913 C284.207536,18.4846377 283.951304,18.706087 283.714783,18.9982609 C283.52,19.2486957 283.350725,19.5466667 283.206957,19.8921739 C283.063188,20.2376812 282.971594,20.546087 282.932174,20.8173913 C282.892754,21.0886957 282.873043,21.3124638 282.873043,21.4886957 C282.873043,21.6742029 282.889275,21.8597101 282.921739,22.0452174 C282.977391,22.3976812 283.111884,22.7084058 283.325217,22.9773913 C283.807536,23.5756522 284.551884,23.9049275 285.558261,23.9652174 C285.813333,23.9884058 286.041739,24 286.243478,24 L286.243478,24 L287.033043,24 C286.982029,24.3478261 286.83942,24.7014493 286.605217,25.0608696 C286.371014,25.4202899 286.052174,25.76 285.648696,26.08 C285.245217,26.4 284.76058,26.6875362 284.194783,26.9426087 C283.628986,27.1976812 282.988986,27.3971014 282.274783,27.5408696 L282.274783,27.5408696 L282.594783,28.8834783 Z M286.349783,22.6223913 L286.302609,22.6226087 C286.098551,22.6226087 285.88058,22.6156522 285.648696,22.6017391 C285.565217,22.5971014 285.466667,22.5866667 285.353043,22.5704348 C285.23942,22.5542029 285.123478,22.5286957 285.005217,22.493913 C284.886957,22.4591304 284.775652,22.4127536 284.671304,22.3547826 C284.566957,22.2968116 284.48,22.2214493 284.410435,22.1286957 C284.331594,22.0313043 284.284058,21.9211594 284.267826,21.7982609 C284.251594,21.6753623 284.243478,21.5721739 284.243478,21.4886957 C284.243478,21.3866667 284.250435,21.2823188 284.264348,21.1756522 C284.287536,20.9808696 284.331594,20.7826087 284.396522,20.5808696 C284.461449,20.3791304 284.541449,20.1971014 284.636522,20.0347826 C284.731594,19.8724638 284.83942,19.7391304 284.96,19.6347826 C285.08058,19.5304348 285.208116,19.4782609 285.342609,19.4782609 C285.426087,19.4782609 285.504928,19.4921739 285.57913,19.52 C285.653333,19.5478261 285.724058,19.5837681 285.791304,19.6278261 C285.858551,19.6718841 285.921159,19.7205797 285.97913,19.773913 C286.037101,19.8272464 286.089275,19.8771014 286.135652,19.9234783 C286.251594,20.057971 286.364058,20.2168116 286.473043,20.4 C286.582029,20.5831884 286.68058,20.7884058 286.768696,21.0156522 C286.856812,21.2428986 286.928696,21.4886957 286.984348,21.7530435 C287.04,22.0173913 287.074783,22.297971 287.088696,22.5947826 C286.907826,22.6086957 286.744348,22.6168116 286.598261,22.6191304 C286.452174,22.6214493 286.353623,22.6226087 286.302609,22.6226087 L286.349783,22.6223913 Z M280.667826,24.0626087 C280.732754,23.2927536 280.771014,22.5669565 280.782609,21.8852174 C280.794203,21.2034783 280.8,20.6585507 280.8,20.2504348 C280.8,19.5733333 280.793043,18.8498551 280.77913,18.08 C280.742029,16.5866667 280.623768,14.8985507 280.424348,13.0156522 L280.424348,13.0156522 L279.06087,13.2243478 C279.218551,14.6852174 279.343768,16.5402899 279.436522,18.7895652 C279.450435,19.1744928 279.457391,19.5826087 279.457391,20.013913 C279.457391,20.3710145 279.452754,20.7443478 279.443478,21.133913 C279.42029,21.9965217 279.371594,22.9472464 279.297391,23.986087 L279.297391,23.986087 L280.667826,24.0626087 Z M272.577391,28.9808696 C272.966957,28.7907246 273.350725,28.5762319 273.728696,28.3373913 C274.106667,28.0985507 274.466087,27.8376812 274.806957,27.5547826 C275.147826,27.2718841 275.463188,26.9704348 275.753043,26.6504348 C276.042899,26.3304348 276.293333,25.9942029 276.504348,25.6417391 C276.715362,25.2892754 276.88,24.924058 276.998261,24.546087 C277.116522,24.1681159 277.175652,23.7773913 277.175652,23.373913 C277.175652,23.1698551 277.15942,22.9611594 277.126957,22.7478261 C277.094493,22.5344928 277.053913,22.3176812 277.005217,22.0973913 C276.956522,21.8771014 276.903188,21.6544928 276.845217,21.4295652 C276.787246,21.2046377 276.730435,20.9808696 276.674783,20.7582609 C276.623768,20.5449275 276.565797,20.3327536 276.50087,20.1217391 C276.435942,19.9107246 276.371014,19.6962319 276.306087,19.4782609 L276.306087,19.4782609 L274.984348,19.8956522 C275.109565,20.2852174 275.227826,20.6747826 275.33913,21.0643478 C275.390145,21.2544928 275.443478,21.4492754 275.49913,21.6486957 C275.554783,21.8481159 275.605797,22.0475362 275.652174,22.2469565 C275.698551,22.4463768 275.736812,22.6411594 275.766957,22.8313043 C275.797101,23.0214493 275.812174,23.2023188 275.812174,23.373913 C275.812174,23.8237681 275.703188,24.2597101 275.485217,24.6817391 C275.267246,25.1037681 274.978551,25.5026087 274.61913,25.8782609 C274.25971,26.253913 273.850435,26.6005797 273.391304,26.9182609 C272.932174,27.235942 272.45913,27.5153623 271.972174,27.7565217 L271.972174,27.7565217 L272.577391,28.9808696 Z M268.82087,23.9930435 C269.09913,23.9930435 269.378551,23.9721739 269.65913,23.9304348 C269.93971,23.8886957 270.209855,23.8214493 270.469565,23.7286957 C270.729275,23.635942 270.971594,23.5165217 271.196522,23.3704348 C271.421449,23.2243478 271.617391,23.0492754 271.784348,22.8452174 C271.858551,22.7571014 271.928116,22.6527536 271.993043,22.5321739 C272.057971,22.4115942 272.108986,22.2701449 272.146087,22.1078261 C272.183188,21.9455072 272.202899,21.76 272.205217,21.5513043 C272.207536,21.3426087 272.18087,21.1084058 272.125217,20.8486957 C272.055652,20.5565217 271.950145,20.253913 271.808696,19.9408696 C271.667246,19.6278261 271.497971,19.3171014 271.30087,19.0086957 C271.103768,18.7002899 270.885797,18.4011594 270.646957,18.1113043 C270.408116,17.8214493 270.156522,17.5513043 269.892174,17.3008696 C269.627826,17.0504348 269.357681,16.8255072 269.081739,16.626087 C268.805797,16.4266667 268.531014,16.2643478 268.257391,16.1391304 L268.257391,16.1391304 L267.693913,17.4052174 C267.902609,17.497971 268.115942,17.6231884 268.333913,17.7808696 C268.551884,17.9385507 268.766377,18.1194203 268.977391,18.3234783 C269.188406,18.5275362 269.391304,18.7466667 269.586087,18.9808696 C269.78087,19.2150725 269.958261,19.4562319 270.118261,19.7043478 C270.278261,19.9524638 270.415072,20.2005797 270.528696,20.4486957 C270.642319,20.6968116 270.724638,20.9344928 270.775652,21.1617391 C270.812754,21.3286957 270.831304,21.4724638 270.831304,21.5930435 C270.831304,21.76 270.796522,21.8852174 270.726957,21.9686957 C270.569275,22.1588406 270.374493,22.3002899 270.142609,22.3930435 C269.910725,22.4857971 269.702029,22.5402899 269.516522,22.5565217 C269.331014,22.5727536 269.184928,22.5808696 269.078261,22.5808696 C268.906667,22.5808696 268.732754,22.5692754 268.556522,22.546087 C268.264348,22.5089855 267.981449,22.4521739 267.707826,22.3756522 C267.434203,22.2991304 267.176812,22.2086957 266.935652,22.1043478 C266.694493,22 266.488116,21.8921739 266.316522,21.7808696 L266.316522,21.7808696 L265.746087,23.0886957 C265.862029,23.1953623 266.045217,23.302029 266.295652,23.4086957 C266.546087,23.5153623 266.822029,23.6127536 267.123478,23.7008696 C267.424928,23.7889855 267.727536,23.8597101 268.031304,23.9130435 C268.335072,23.9663768 268.598261,23.9930435 268.82087,23.9930435 Z M255.053913,14.7478261 L256.083478,13.7182609 L255.046957,12.6817391 L254.017391,13.7113043 L255.053913,14.7478261 Z M253.481739,16.946087 L254.608696,15.8121739 L253.467826,14.6713043 L252.34087,15.8052174 L253.481739,16.946087 Z M256.535652,16.9530435 L257.662609,15.826087 L256.521739,14.6852174 L255.394783,15.8121739 L256.535652,16.9530435 Z M256.772174,24.0834783 C257.203478,24.0834783 257.581449,24.0231884 257.906087,23.9026087 C258.24,23.782029 258.518261,23.6081159 258.74087,23.3808696 C258.963478,23.1536232 259.130435,22.8788406 259.241739,22.5565217 C259.353043,22.2342029 259.408696,21.8736232 259.408696,21.4747826 C259.408696,21.2104348 259.384348,20.9391304 259.335652,20.6608696 C259.286957,20.3826087 259.224348,20.1113043 259.147826,19.8469565 C259.071304,19.5826087 258.988986,19.3286957 258.90087,19.0852174 C258.812754,18.8417391 258.726957,18.6237681 258.643478,18.4313043 C258.56,18.2388406 258.485797,18.0765217 258.42087,17.9443478 C258.355942,17.8121739 258.311884,17.7228986 258.288696,17.6765217 L258.288696,17.6765217 L257.071304,18.3165217 C257.145507,18.4649275 257.237101,18.6655072 257.346087,18.9182609 C257.455072,19.1710145 257.55942,19.4446377 257.65913,19.7391304 C257.758841,20.0336232 257.844638,20.333913 257.916522,20.64 C257.988406,20.946087 258.024348,21.2313043 258.024348,21.4956522 C258.024348,21.6997101 258.001159,21.8828986 257.954783,22.0452174 C257.908406,22.2075362 257.833043,22.342029 257.728696,22.4486957 C257.624348,22.5553623 257.506087,22.626087 257.373913,22.6608696 C257.241739,22.6956522 257.108406,22.7130435 256.973913,22.7130435 C256.895072,22.7130435 256.811594,22.7084058 256.723478,22.6991304 C256.584348,22.6852174 256.467246,22.64 256.372174,22.5634783 C256.277101,22.4869565 256.20058,22.3895652 256.142609,22.2713043 C256.084638,22.1530435 256.042899,22.0162319 256.017391,21.8608696 C255.991884,21.7055072 255.97913,21.542029 255.97913,21.3704348 C255.97913,21.1802899 255.993043,20.9634783 256.02087,20.72 C256.048696,20.4765217 256.08,20.2469565 256.114783,20.0313043 L256.114783,20.0313043 L256.164348,19.7313043 C256.18,19.6391304 256.194783,19.5547826 256.208696,19.4782609 L256.208696,19.4782609 L256.243478,19.2556522 L254.907826,19.0121739 C254.88,19.2023188 254.841739,19.426087 254.793043,19.6834783 C254.744348,19.9408696 254.681739,20.2063768 254.605217,20.48 C254.528696,20.7536232 254.435942,21.0226087 254.326957,21.2869565 C254.217971,21.5513043 254.090435,21.7878261 253.944348,21.9965217 C253.798261,22.2052174 253.631304,22.3744928 253.443478,22.5043478 C253.255652,22.6342029 253.043478,22.6991304 252.806957,22.6991304 C252.658551,22.6991304 252.535652,22.6713043 252.438261,22.6156522 C252.34087,22.56 252.264348,22.4857971 252.208696,22.3930435 C252.153043,22.3002899 252.113623,22.1947826 252.090435,22.0765217 C252.067246,21.9582609 252.055652,21.8365217 252.055652,21.7113043 C252.055652,21.5304348 252.074203,21.3344928 252.111304,21.1234783 C252.148406,20.9124638 252.192464,20.706087 252.243478,20.5043478 C252.294493,20.3026087 252.346667,20.1136232 252.4,19.9373913 C252.453333,19.7611594 252.498551,19.6173913 252.535652,19.506087 L252.535652,19.506087 L251.158261,19.213913 C251.111884,19.4411594 251.056232,19.6823188 250.991304,19.9373913 C250.926377,20.1924638 250.847536,20.4463768 250.754783,20.6991304 C250.662029,20.9518841 250.553043,21.1942029 250.427826,21.426087 C250.302609,21.657971 250.155362,21.8631884 249.986087,22.0417391 C249.816812,22.2202899 249.623188,22.364058 249.405217,22.4730435 C249.187246,22.582029 248.941449,22.6365217 248.667826,22.6365217 L248.667826,22.6365217 L248.514783,22.6365217 L248.514783,24 L248.66087,24 C248.929855,24 249.176812,23.977971 249.401739,23.933913 C249.626667,23.8898551 249.831884,23.826087 250.017391,23.7426087 C250.202899,23.6591304 250.374493,23.5582609 250.532174,23.44 C250.689855,23.3217391 250.838261,23.1884058 250.977391,23.04 C251.051594,23.2115942 251.157101,23.3623188 251.293913,23.4921739 C251.430725,23.622029 251.582609,23.7310145 251.749565,23.8191304 C251.916522,23.9072464 252.091594,23.9733333 252.274783,24.0173913 C252.457971,24.0614493 252.635362,24.0834783 252.806957,24.0834783 C253.201159,24.0834783 253.574493,23.9884058 253.926957,23.7982609 C254.27942,23.6081159 254.594783,23.3507246 254.873043,23.026087 C254.970435,23.1744928 255.088696,23.3124638 255.227826,23.44 C255.366957,23.5675362 255.517681,23.6788406 255.68,23.773913 C255.842319,23.8689855 256.012754,23.9443478 256.191304,24 C256.369855,24.0556522 256.547246,24.0834783 256.723478,24.0834783 L256.723478,24.0834783 L256.772174,24.0834783 Z M248.793043,24 L248.793043,22.6365217 L248.653913,22.6365217 C248.375652,22.6365217 248.146087,22.6005797 247.965217,22.5286957 C247.784348,22.4568116 247.633623,22.3571014 247.513043,22.2295652 C247.392464,22.102029 247.289275,21.9466667 247.203478,21.7634783 C247.117681,21.5802899 247.028406,21.3773913 246.935652,21.1547826 C246.754783,20.7327536 246.584348,20.3281159 246.424348,19.9408696 C246.264348,19.5536232 246.102029,19.1605797 245.937391,18.7617391 C245.772754,18.3628986 245.598841,17.9408696 245.415652,17.4956522 C245.232464,17.0504348 245.029565,16.5565217 244.806957,16.013913 L244.806957,16.013913 L243.54087,16.5426087 L245.73913,21.8295652 C245.66029,21.9084058 245.545507,22.0023188 245.394783,22.1113043 C245.244058,22.2202899 245.050435,22.3211594 244.813913,22.413913 C244.563478,22.5113043 244.351304,22.5681159 244.177391,22.5843478 C244.003478,22.6005797 243.872464,22.6086957 243.784348,22.6086957 C243.598841,22.6086957 243.413333,22.5878261 243.227826,22.546087 C242.949565,22.4857971 242.668986,22.3791304 242.386087,22.226087 C242.103188,22.0730435 241.822609,21.8666667 241.544348,21.6069565 L241.544348,21.6069565 L240.758261,22.7130435 C241.152464,23.1211594 241.582609,23.4376812 242.048696,23.6626087 C242.514783,23.8875362 243.021449,24 243.568696,24 C243.897971,24 244.194783,23.9802899 244.45913,23.9408696 C244.723478,23.9014493 244.968116,23.8434783 245.193043,23.7669565 C245.417971,23.6904348 245.628986,23.5942029 245.826087,23.4782609 C246.023188,23.3623188 246.21913,23.2278261 246.413913,23.0747826 C246.511304,23.2 246.627246,23.3194203 246.761739,23.4330435 C246.896232,23.5466667 247.052754,23.6452174 247.231304,23.7286957 C247.409855,23.8121739 247.616232,23.8782609 247.850435,23.9269565 C248.084638,23.9756522 248.352464,24 248.653913,24 L248.653913,24 L248.793043,24 Z M236.361739,24 C236.445217,24 236.548406,23.9965217 236.671304,23.9895652 C236.794203,23.9826087 236.925217,23.9663768 237.064348,23.9408696 C237.203478,23.9153623 237.349565,23.8805797 237.502609,23.8365217 C237.655652,23.7924638 237.806377,23.7333333 237.954783,23.6591304 C238.362899,23.4597101 238.672464,23.1837681 238.883478,22.8313043 C239.094493,22.4788406 239.2,22.0637681 239.2,21.586087 C239.2,21.1084058 239.06087,20.5889855 238.782609,20.0278261 C238.504348,19.4666667 238.08,18.8614493 237.509565,18.2121739 C237.310145,17.9895652 237.115362,17.7843478 236.925217,17.5965217 C236.735072,17.4086957 236.564638,17.2452174 236.413913,17.106087 C236.263188,16.9669565 236.141449,16.857971 236.048696,16.7791304 C235.955942,16.7002899 235.907246,16.6562319 235.902609,16.6469565 L235.902609,16.6469565 L235.026087,17.7113043 C235.026087,17.715942 235.067826,17.7530435 235.151304,17.8226087 C235.234783,17.8921739 235.346087,17.9895652 235.485217,18.1147826 C235.378551,18.2121739 235.254493,18.3327536 235.113043,18.4765217 C234.971594,18.6202899 234.824348,18.7826087 234.671304,18.9634783 C233.915362,19.8724638 233.537391,20.7466667 233.537391,21.586087 C233.537391,22.0637681 233.651014,22.4776812 233.878261,22.8278261 C234.105507,23.177971 234.441739,23.4573913 234.886957,23.666087 C235.058551,23.7495652 235.227826,23.8144928 235.394783,23.8608696 C235.561739,23.9072464 235.713623,23.9408696 235.850435,23.9617391 C235.987246,23.9826087 236.10087,23.9942029 236.191304,23.9965217 C236.236522,23.9976812 236.273333,23.9985507 236.301739,23.9991304 L236.361739,24 Z M236.412754,22.6152657 L236.361739,22.6156522 C236.329275,22.6156522 236.28058,22.6133333 236.215652,22.6086957 C236.150725,22.604058 236.078841,22.5947826 236,22.5808696 C235.921159,22.5669565 235.835362,22.5472464 235.742609,22.5217391 C235.649855,22.4962319 235.55942,22.4626087 235.471304,22.4208696 C235.346087,22.3652174 235.246377,22.3026087 235.172174,22.2330435 C235.097971,22.1634783 235.041159,22.0927536 235.001739,22.0208696 C234.962319,21.9489855 234.936812,21.875942 234.925217,21.8017391 C234.913623,21.7275362 234.907826,21.6556522 234.907826,21.586087 C234.907826,21.3495652 234.962319,21.1107246 235.071304,20.8695652 C235.18029,20.6284058 235.313623,20.3965217 235.471304,20.173913 C235.628986,19.9513043 235.797101,19.7472464 235.975652,19.5617391 C236.154203,19.3762319 236.310725,19.2231884 236.445217,19.1026087 C236.895072,19.5895652 237.238261,20.0486957 237.474783,20.48 C237.711304,20.9113043 237.829565,21.28 237.829565,21.586087 C237.829565,21.7947826 237.791304,21.9652174 237.714783,22.0973913 C237.638261,22.2295652 237.514203,22.342029 237.342609,22.4347826 C237.254493,22.4765217 237.161739,22.5089855 237.064348,22.5321739 C236.966957,22.5553623 236.874203,22.573913 236.786087,22.5878261 C236.697971,22.6017391 236.616812,22.6098551 236.542609,22.6121739 C236.468406,22.6144928 236.408116,22.6156522 236.361739,22.6156522 L236.412754,22.6152657 Z"/>
      </g>
      <g transform="translate(313 16)">
        <rect width="35" height="24"/>
        <path fill="#000" fill-opacity=".56" fill-rule="nonzero" d="M24.9582609,15 L26.2,14.9895652 C26.7495652,14.9895652 27.2382609,14.9765217 27.666087,14.9504348 C28.093913,14.9243478 28.473913,14.8895652 28.806087,14.846087 C29.1382609,14.8026087 29.4286957,14.7547826 29.6773913,14.7026087 C29.926087,14.6504348 30.1478261,14.5982609 30.3426087,14.546087 L30.3426087,14.546087 L30.2173913,13.5547826 C30.0817391,13.5826087 29.953913,13.6086957 29.833913,13.6330435 C29.713913,13.6573913 29.5921739,13.6782609 29.4686957,13.6956522 C29.3452174,13.7130435 29.2165217,13.7286957 29.0826087,13.7426087 C28.9486957,13.7565217 28.8017391,13.7686957 28.6417391,13.7791304 C28.6,13.7826087 28.5582609,13.7843478 28.5165217,13.7843478 C28.3286957,13.7843478 28.1478261,13.7582609 27.973913,13.706087 C27.7617391,13.6434783 27.5747826,13.5495652 27.4130435,13.4243478 C27.2513043,13.2991304 27.1217391,13.1478261 27.0243478,12.9704348 C26.9269565,12.7930435 26.8782609,12.5947826 26.8782609,12.3756522 C26.8782609,12.2156522 26.9043478,12.0617391 26.9565217,11.913913 C27.0086957,11.766087 27.086087,11.6347826 27.1886957,11.52 C27.2913043,11.4052174 27.4191304,11.313913 27.5721739,11.246087 C27.7252174,11.1782609 27.9026087,11.1443478 28.1043478,11.1443478 C28.2817391,11.1443478 28.4417391,11.1626087 28.5843478,11.1991304 C28.7269565,11.2356522 28.8582609,11.286087 28.9782609,11.3504348 C29.0982609,11.4147826 29.2104348,11.4895652 29.3147826,11.5747826 C29.4191304,11.66 29.5252174,11.7513043 29.6330435,11.8486957 L29.6330435,11.8486957 L30.2747826,11.0608696 C30.1182609,10.9321739 29.9634783,10.8104348 29.8104348,10.6956522 C29.6573913,10.5808696 29.4956522,10.4808696 29.3252174,10.3956522 C29.1547826,10.3104348 28.9704348,10.2434783 28.7721739,10.1947826 C28.573913,10.146087 28.3513043,10.1217391 28.1043478,10.1217391 C27.7808696,10.1217391 27.4826087,10.1817391 27.2095652,10.3017391 C26.9365217,10.4217391 26.6991304,10.5843478 26.4973913,10.7895652 C26.2956522,10.9947826 26.1382609,11.233913 26.0252174,11.5069565 C25.9121739,11.78 25.8556522,12.0695652 25.8556522,12.3756522 C25.8556522,12.6886957 25.9069565,12.973913 26.0095652,13.2313043 C26.1121739,13.4886957 26.2904348,13.7321739 26.5443478,13.9617391 L26.5443478,13.9617391 L24.9582609,13.9773913 L24.9582609,15 Z M22.9391304,10.1895652 L23.7895652,9.33913043 L22.933913,8.48347826 L22.0834783,9.33391304 L22.9391304,10.1895652 Z M21.4730435,15 C21.9843478,15 22.413913,14.9469565 22.7617391,14.8408696 C23.1095652,14.7347826 23.3930435,14.5721739 23.6121739,14.3530435 C23.7617391,14.5443478 23.9530435,14.7 24.186087,14.82 C24.4191304,14.94 24.7113043,15 25.0626087,15 L25.0626087,15 L25.1669565,15 L25.1669565,13.9773913 L25.0626087,13.9773913 C24.8852174,13.9773913 24.74,13.9373913 24.6269565,13.8573913 C24.513913,13.7773913 24.4252174,13.6765217 24.3608696,13.5547826 C24.2965217,13.4330435 24.2504348,13.3008696 24.2226087,13.1582609 C24.1947826,13.0156522 24.1756522,12.88 24.1652174,12.7513043 C24.1513043,12.5669565 24.1365217,12.4017391 24.1208696,12.2556522 C24.1052174,12.1095652 24.0886957,11.973913 24.0713043,11.8486957 C24.053913,11.7234783 24.0330435,11.6043478 24.0086957,11.4913043 C23.9843478,11.3782609 23.9547826,11.2608696 23.92,11.1391304 L23.92,11.1391304 L22.9391304,11.4156522 C23.0156522,11.68 23.0686957,11.9147826 23.0982609,12.12 C23.1278261,12.3252174 23.1426087,12.5269565 23.1426087,12.7252174 C23.1426087,13.1391304 23.0104348,13.4513043 22.746087,13.6617391 C22.4817391,13.8721739 22.0573913,13.9773913 21.4730435,13.9773913 L21.4730435,13.9773913 L21.28,13.9773913 L21.28,15 L21.4730435,15 Z M16.5895652,18.6626087 C17.0973913,18.5826087 17.5886957,18.4434783 18.0634783,18.2452174 C18.5382609,18.0469565 18.9695652,17.7930435 19.3573913,17.4834783 C19.7452174,17.173913 20.0756522,16.8113043 20.3486957,16.3956522 C20.6217391,15.98 20.8104348,15.5147826 20.9147826,15 L20.9147826,15 L21.4886957,15 L21.4886957,13.9773913 L20.9930435,13.9773913 C20.986087,13.7130435 20.9582609,13.4530435 20.9095652,13.1973913 C20.8608696,12.9417391 20.7947826,12.6965217 20.7113043,12.4617391 C20.6278261,12.2269565 20.5269565,12.0069565 20.4086957,11.8017391 C20.2904348,11.5965217 20.1582609,11.4121739 20.0121739,11.2486957 C19.5982609,10.8034783 19.1443478,10.5808696 18.6504348,10.5808696 C18.4278261,10.5808696 18.2130435,10.6373913 18.006087,10.7504348 C17.7991304,10.8634783 17.6069565,11.0295652 17.4295652,11.2486957 C17.2834783,11.4365217 17.1565217,11.66 17.0486957,11.9191304 C16.9408696,12.1782609 16.8721739,12.4095652 16.8426087,12.6130435 C16.8130435,12.8165217 16.7982609,12.9843478 16.7982609,13.1165217 C16.7982609,13.2556522 16.8104348,13.3947826 16.8347826,13.533913 C16.8765217,13.7982609 16.9773913,14.0313043 17.1373913,14.2330435 C17.4991304,14.6817391 18.0573913,14.9286957 18.8121739,14.973913 C19.0034783,14.9913043 19.1747826,15 19.326087,15 L19.326087,15 L19.9182609,15 C19.88,15.2608696 19.7730435,15.526087 19.5973913,15.7956522 C19.4217391,16.0652174 19.1826087,16.32 18.88,16.56 C18.5773913,16.8 18.213913,17.0156522 17.7895652,17.2069565 C17.3652174,17.3982609 16.8852174,17.5478261 16.3495652,17.6556522 L16.3495652,17.6556522 L16.5895652,18.6626087 Z M19.4545652,13.9663043 L19.3704348,13.9669565 C19.2173913,13.9669565 19.053913,13.9617391 18.88,13.9513043 C18.8173913,13.9478261 18.7434783,13.94 18.6582609,13.9278261 C18.5730435,13.9156522 18.486087,13.8965217 18.3973913,13.8704348 C18.3086957,13.8443478 18.2252174,13.8095652 18.1469565,13.766087 C18.0686957,13.7226087 18.0034783,13.666087 17.9513043,13.5965217 C17.8921739,13.5234783 17.8565217,13.4408696 17.8443478,13.3486957 C17.8321739,13.2565217 17.826087,13.1791304 17.826087,13.1165217 C17.826087,13.04 17.8313043,12.9617391 17.8417391,12.8817391 C17.8591304,12.7356522 17.8921739,12.5869565 17.9408696,12.4356522 C17.9895652,12.2843478 18.0495652,12.1478261 18.1208696,12.026087 C18.1921739,11.9043478 18.2730435,11.8043478 18.3634783,11.726087 C18.453913,11.6478261 18.5495652,11.6086957 18.6504348,11.6086957 C18.7130435,11.6086957 18.7721739,11.6191304 18.8278261,11.64 C18.8834783,11.6608696 18.9365217,11.6878261 18.9869565,11.7208696 C19.0373913,11.753913 19.0843478,11.7904348 19.1278261,11.8304348 C19.1713043,11.8704348 19.2104348,11.9078261 19.2452174,11.9426087 C19.3321739,12.0434783 19.4165217,12.1626087 19.4982609,12.3 C19.58,12.4373913 19.653913,12.5913043 19.72,12.7617391 C19.786087,12.9321739 19.84,13.1165217 19.8817391,13.3147826 C19.9234783,13.5130435 19.9495652,13.7234783 19.96,13.946087 C19.8243478,13.9565217 19.7017391,13.9626087 19.5921739,13.9643478 C19.5373913,13.9652174 19.4915217,13.9658696 19.4545652,13.9663043 Z M15.1391304,15.0469565 C15.1878261,14.4695652 15.2165217,13.9252174 15.2252174,13.413913 C15.233913,12.9026087 15.2382609,12.493913 15.2382609,12.1878261 C15.2382609,11.68 15.2330435,11.1373913 15.2226087,10.56 C15.1947826,9.44 15.106087,8.17391304 14.9565217,6.76173913 L14.9565217,6.76173913 L13.933913,6.91826087 C14.0521739,8.01391304 14.146087,9.40521739 14.2156522,11.0921739 C14.226087,11.3808696 14.2313043,11.6869565 14.2313043,12.0104348 C14.2313043,12.2782609 14.2278261,12.5582609 14.2208696,12.8504348 C14.2034783,13.4973913 14.1669565,14.2104348 14.1113043,14.9895652 L14.1113043,14.9895652 L15.1391304,15.0469565 Z M8.92,12.48 L9.77043478,11.6295652 L8.91478261,10.773913 L8.06434783,11.6243478 L8.92,12.48 Z M8.69043478,18.5843478 C9.11826087,18.5843478 9.52434783,18.5391304 9.90869565,18.4486957 C10.2930435,18.3582609 10.6434783,18.22 10.96,18.033913 C11.2765217,17.8478261 11.553913,17.6121739 11.7921739,17.3269565 C12.0304348,17.0417391 12.2156522,16.7026087 12.3478261,16.3095652 C12.4730435,15.933913 12.5408696,15.633913 12.5513043,15.4095652 C12.5617391,15.1852174 12.5669565,15.0347826 12.5669565,14.9582609 C12.5669565,14.6730435 12.546087,14.3965217 12.5043478,14.1286957 C12.4486957,13.7913043 12.3713043,13.4773913 12.2721739,13.1869565 C12.1730435,12.8965217 12.073913,12.6426087 11.9747826,12.4252174 C11.8756522,12.2078261 11.7878261,12.033913 11.7113043,11.9034783 C11.6347826,11.7730435 11.5913043,11.6991304 11.5808696,11.6817391 L11.5808696,11.6817391 L10.7147826,12.2347826 C10.7182609,12.2347826 10.7504348,12.286087 10.8113043,12.3886957 C10.8721739,12.4913043 10.9426087,12.6321739 11.0226087,12.8113043 C11.1026087,12.9904348 11.1834783,13.2008696 11.2652174,13.4426087 C11.3469565,13.6843478 11.4104348,13.9391304 11.4556522,14.2069565 C11.5008696,14.4747826 11.5234783,14.7495652 11.5234783,15.0313043 L11.5234783,15.0313043 L11.5234783,15.093913 C11.5165217,15.3965217 11.466087,15.6973913 11.3721739,15.9965217 C11.2956522,16.24 11.1808696,16.4582609 11.0278261,16.6513043 C10.8747826,16.8443478 10.6852174,17.0078261 10.4591304,17.1417391 C10.2330435,17.2756522 9.97043478,17.3773913 9.67130435,17.4469565 C9.37217391,17.5165217 9.03826087,17.5513043 8.66956522,17.5513043 C8.37391304,17.5513043 8.11043478,17.5191304 7.87913043,17.4547826 C7.64782609,17.3904348 7.44608696,17.3069565 7.27391304,17.2043478 C7.10173913,17.1017391 6.95478261,16.986087 6.83304348,16.8573913 C6.71130435,16.7286957 6.61043478,16.5973913 6.53043478,16.4634783 C6.45043478,16.3295652 6.39043478,16.2008696 6.35043478,16.0773913 C6.31043478,15.953913 6.28347826,15.8452174 6.26956522,15.7513043 C6.24869565,15.6086957 6.23826087,15.4608696 6.23826087,15.3078261 C6.23826087,15.2521739 6.24,15.1947826 6.24347826,15.1356522 C6.25391304,14.9269565 6.2773913,14.7217391 6.31391304,14.52 C6.35043478,14.3182609 6.39652174,14.1243478 6.45217391,13.9382609 C6.50782609,13.7521739 6.56608696,13.5808696 6.62695652,13.4243478 C6.68782609,13.2678261 6.74782609,13.1313043 6.80695652,13.0147826 C6.86608696,12.8982609 6.91826087,12.8086957 6.96347826,12.746087 L6.96347826,12.746087 L6.13391304,12.1356522 C5.99130435,12.3721739 5.85478261,12.6356522 5.72434783,12.926087 C5.59391304,13.2165217 5.48434783,13.5234783 5.39565217,13.8469565 C5.30695652,14.1704348 5.25217391,14.4513043 5.23130435,14.6895652 C5.21043478,14.9278261 5.2,15.1130435 5.2,15.2452174 C5.2,15.4608696 5.21565217,15.6782609 5.24695652,15.8973913 C5.31652174,16.3530435 5.45130435,16.7495652 5.65130435,17.0869565 C5.85130435,17.4243478 6.1026087,17.7034783 6.40521739,17.9243478 C6.70782609,18.1452174 7.05304348,18.3104348 7.44086957,18.42 C7.82869565,18.5295652 8.24521739,18.5843478 8.69043478,18.5843478 Z"/>
      </g>
    </g>
    <g stroke="#000000" stroke-opacity=".48" transform="translate(81 91.5)">
      <path d="M348,0 L356,0 C358.209139,-4.05812251e-16 360,1.790861 360,4 L360,35 C360,37.209139 358.209139,39 356,39 L348,39 L348,39"/>
      <path d="M0,0 L302.5,0 L309,0 C311.209139,-4.05812251e-16 313,1.790861 313,4 L313,35 C313,37.209139 311.209139,39 309,39 L302.5,39 L302.5,39 L0,39" transform="matrix(-1 0 0 1 313 0)"/>
      <line x1="348" x2="313" y1="39" y2="39"/>
    </g>
  </g>
</svg>
