<svg xmlns="http://www.w3.org/2000/svg" width="520" height="220" viewBox="0 0 520 220">
  <g fill="none" fill-rule="evenodd">
    <rect width="520" height="220"/>
    <rect width="360" height="40" x="81" y="90" fill="#000000" fill-opacity=".24" stroke="#000000" stroke-opacity=".48" rx="4"/>
    <path fill="#FFF" fill-rule="nonzero" d="M392.895652,114 C393.178551,114 393.445217,113.986087 393.695652,113.958261 C393.946087,113.930435 394.182609,113.877101 394.405217,113.798261 C394.627826,113.71942 394.837681,113.605797 395.034783,113.457391 C395.231884,113.308986 395.42087,113.111884 395.601739,112.866087 C395.815072,113.023768 396.046957,113.177971 396.297391,113.328696 C396.547826,113.47942 396.808696,113.606957 397.08,113.711304 C397.351304,113.815652 397.583188,113.87942 397.775652,113.902609 C397.968116,113.925797 398.110725,113.937391 398.203478,113.937391 C398.393623,113.937391 398.583768,113.911884 398.773913,113.86087 C399.075362,113.777391 399.330435,113.627826 399.53913,113.412174 C399.747826,113.196522 399.912464,112.943768 400.033043,112.653913 C400.153623,112.364058 400.227826,112.098551 400.255652,111.857391 C400.283478,111.616232 400.297391,111.421449 400.297391,111.273043 C400.297391,111.106087 400.285797,110.943768 400.262609,110.786087 C400.216232,110.475362 400.133913,110.169275 400.015652,109.867826 C399.897391,109.566377 399.738551,109.297391 399.53913,109.06087 C399.33971,108.824348 399.09971,108.633043 398.81913,108.486957 C398.538551,108.34087 398.215072,108.267826 397.848696,108.267826 C397.542609,108.267826 397.274783,108.329275 397.045217,108.452174 C396.815652,108.575072 396.611594,108.735072 396.433043,108.932174 C396.254493,109.129275 396.094493,109.354203 395.953043,109.606957 C395.811594,109.85971 395.678261,110.115942 395.553043,110.375652 C395.409275,110.663188 395.266667,110.942609 395.125217,111.213913 C394.983768,111.485217 394.816812,111.726377 394.624348,111.937391 C394.431884,112.148406 394.198841,112.317681 393.925217,112.445217 C393.651594,112.572754 393.308406,112.636522 392.895652,112.636522 L392.895652,112.636522 L392.756522,112.636522 L392.756522,114 L392.895652,114 Z M398.182609,112.553043 C397.997101,112.553043 397.788406,112.506667 397.556522,112.413913 C397.208696,112.274783 396.823768,112.049855 396.401739,111.73913 L396.401739,111.73913 L396.777391,110.98087 C396.893333,110.753623 396.996522,110.556522 397.086957,110.389565 C397.177391,110.222609 397.263188,110.083478 397.344348,109.972174 C397.425507,109.86087 397.506667,109.778551 397.587826,109.725217 C397.668986,109.671884 397.755942,109.645217 397.848696,109.645217 C397.987826,109.645217 398.110725,109.673043 398.217391,109.728696 C398.324058,109.784348 398.416812,109.855072 398.495652,109.94087 C398.574493,110.026667 398.641739,110.121739 398.697391,110.226087 C398.753043,110.330435 398.798261,110.431304 398.833043,110.528696 C398.867826,110.626087 398.894493,110.714203 398.913043,110.793043 C398.931594,110.871884 398.943188,110.927536 398.947826,110.96 C398.966377,111.085217 398.975652,111.205797 398.975652,111.321739 C398.975652,111.395942 398.971014,111.470145 398.961739,111.544348 C398.938551,111.725217 398.90029,111.885217 398.846957,112.024348 C398.793623,112.163478 398.729855,112.277101 398.655652,112.365217 C398.581449,112.453333 398.504928,112.506667 398.426087,112.525217 C398.351884,112.543768 398.270725,112.553043 398.182609,112.553043 Z M388.652174,107.412174 L389.77913,106.285217 L388.638261,105.144348 L387.511304,106.278261 L388.652174,107.412174 Z M391.504348,107.426087 L392.631304,106.292174 L391.490435,105.158261 L390.363478,106.285217 L391.504348,107.426087 Z M387.866087,114 C388.302029,114 388.681159,113.982609 389.003478,113.947826 C389.325797,113.913043 389.607536,113.85971 389.848696,113.787826 C390.089855,113.715942 390.298551,113.625507 390.474783,113.516522 C390.651014,113.407536 390.813333,113.281159 390.961739,113.137391 C391.161159,113.392464 391.416232,113.6 391.726957,113.76 C392.037681,113.92 392.427246,114 392.895652,114 L392.895652,114 L393.034783,114 L393.034783,112.636522 L392.895652,112.636522 C392.65913,112.636522 392.465507,112.583188 392.314783,112.476522 C392.164058,112.369855 392.045797,112.235362 391.96,112.073043 C391.874203,111.910725 391.812754,111.734493 391.775652,111.544348 C391.738551,111.354203 391.713043,111.173333 391.69913,111.001739 C391.68058,110.755942 391.66087,110.535652 391.64,110.34087 C391.61913,110.146087 391.597101,109.965217 391.573913,109.798261 C391.550725,109.631304 391.522899,109.472464 391.490435,109.321739 C391.457971,109.171014 391.418551,109.014493 391.372174,108.852174 L391.372174,108.852174 L390.064348,109.22087 C390.166377,109.573333 390.237101,109.886377 390.276522,110.16 C390.315942,110.433623 390.335652,110.702609 390.335652,110.966957 C390.335652,111.245217 390.289275,111.488696 390.196522,111.697391 C390.103768,111.906087 389.958841,112.08 389.761739,112.21913 C389.564638,112.358261 389.309565,112.462609 388.996522,112.532174 C388.683478,112.601739 388.306667,112.636522 387.866087,112.636522 L387.866087,112.636522 L386.829565,112.636522 L386.829565,114 L387.866087,114 Z M380.422609,110.64 L381.556522,109.506087 L380.415652,108.365217 L379.281739,109.49913 L380.422609,110.64 Z M380.137391,118.772174 C380.707826,118.772174 381.249275,118.711884 381.761739,118.591304 C382.274203,118.470725 382.741449,118.286377 383.163478,118.038261 C383.585507,117.790145 383.955362,117.475942 384.273043,117.095652 C384.590725,116.715362 384.837681,116.263188 385.013913,115.73913 C385.134493,115.368116 385.212174,115.029565 385.246957,114.723478 C385.281739,114.417391 385.29913,114.141449 385.29913,113.895652 C385.29913,113.788986 385.296812,113.682319 385.292174,113.575652 C385.783768,113.858551 386.342609,114 386.968696,114 L386.968696,114 L387.121739,114 L387.121739,112.636522 L386.968696,112.636522 C386.806377,112.636522 386.633623,112.616812 386.450435,112.577391 C386.267246,112.537971 386.073623,112.446377 385.869565,112.302609 C385.665507,112.158841 385.449855,111.945507 385.222609,111.662609 C384.995362,111.37971 384.754203,110.997101 384.49913,110.514783 C384.369275,110.236522 384.255652,110.015072 384.158261,109.850435 C384.06087,109.685797 384.005217,109.591884 383.991304,109.568696 L383.991304,109.568696 L382.836522,110.306087 C382.841159,110.306087 382.884058,110.374493 382.965217,110.511304 C383.046377,110.648116 383.14029,110.835942 383.246957,111.074783 C383.353623,111.313623 383.461449,111.594203 383.570435,111.916522 C383.67942,112.238841 383.764058,112.578551 383.824348,112.935652 C383.884638,113.292754 383.914783,113.65913 383.914783,114.034783 L383.914783,114.034783 L383.914783,114.118261 C383.905507,114.521739 383.838261,114.922899 383.713043,115.321739 C383.611014,115.646377 383.457971,115.937391 383.253913,116.194783 C383.049855,116.452174 382.797101,116.670145 382.495652,116.848696 C382.194203,117.027246 381.844058,117.162899 381.445217,117.255652 C381.046377,117.348406 380.601159,117.394783 380.109565,117.394783 C379.715362,117.394783 379.364058,117.351884 379.055652,117.266087 C378.747246,117.18029 378.478261,117.068986 378.248696,116.932174 C378.01913,116.795362 377.823188,116.641159 377.66087,116.469565 C377.498551,116.297971 377.364058,116.122899 377.257391,115.944348 C377.150725,115.765797 377.070725,115.593043 377.017391,115.426087 C376.964058,115.25913 376.928116,115.115362 376.909565,114.994783 C376.881739,114.804638 376.867826,114.607536 376.867826,114.403478 C376.867826,114.329275 376.870145,114.252754 376.874783,114.173913 C376.888696,113.895652 376.92,113.622029 376.968696,113.353043 C377.017391,113.084058 377.078841,112.825507 377.153043,112.577391 C377.227246,112.329275 377.304928,112.10087 377.386087,111.892174 C377.467246,111.683478 377.547246,111.501449 377.626087,111.346087 C377.704928,111.190725 377.774493,111.071304 377.834783,110.987826 L377.834783,110.987826 L376.728696,110.173913 C376.538551,110.489275 376.356522,110.84058 376.182609,111.227826 C376.008696,111.615072 375.862609,112.024348 375.744348,112.455652 C375.626087,112.886957 375.553043,113.261449 375.525217,113.57913 C375.497391,113.896812 375.483478,114.143768 375.483478,114.32 C375.483478,114.607536 375.504348,114.897391 375.546087,115.189565 C375.638841,115.797101 375.818551,116.325797 376.085217,116.775652 C376.351884,117.225507 376.686957,117.597681 377.090435,117.892174 C377.493913,118.186667 377.954203,118.406957 378.471304,118.553043 C378.988406,118.69913 379.543768,118.772174 380.137391,118.772174 Z M365.104348,104.747826 L366.133913,103.718261 L365.097391,102.681739 L364.067826,103.711304 L365.104348,104.747826 Z M363.532174,106.946087 L364.65913,105.812174 L363.518261,104.671304 L362.391304,105.805217 L363.532174,106.946087 Z M366.586087,106.953043 L367.713043,105.826087 L366.572174,104.685217 L365.445217,105.812174 L366.586087,106.953043 Z M366.822609,114.083478 C367.253913,114.083478 367.631884,114.023188 367.956522,113.902609 C368.290435,113.782029 368.568696,113.608116 368.791304,113.38087 C369.013913,113.153623 369.18087,112.878841 369.292174,112.556522 C369.403478,112.234203 369.45913,111.873623 369.45913,111.474783 C369.45913,111.210435 369.434783,110.93913 369.386087,110.66087 C369.337391,110.382609 369.274783,110.111304 369.198261,109.846957 C369.121739,109.582609 369.03942,109.328696 368.951304,109.085217 C368.863188,108.841739 368.777391,108.623768 368.693913,108.431304 C368.610435,108.238841 368.536232,108.076522 368.471304,107.944348 C368.406377,107.812174 368.362319,107.722899 368.33913,107.676522 L368.33913,107.676522 L367.121739,108.316522 C367.195942,108.464928 367.287536,108.665507 367.396522,108.918261 C367.505507,109.171014 367.609855,109.444638 367.709565,109.73913 C367.809275,110.033623 367.895072,110.333913 367.966957,110.64 C368.038841,110.946087 368.074783,111.231304 368.074783,111.495652 C368.074783,111.69971 368.051594,111.882899 368.005217,112.045217 C367.958841,112.207536 367.883478,112.342029 367.77913,112.448696 C367.674783,112.555362 367.556522,112.626087 367.424348,112.66087 C367.292174,112.695652 367.158841,112.713043 367.024348,112.713043 C366.945507,112.713043 366.862029,112.708406 366.773913,112.69913 C366.634783,112.685217 366.517681,112.64 366.422609,112.563478 C366.327536,112.486957 366.251014,112.389565 366.193043,112.271304 C366.135072,112.153043 366.093333,112.016232 366.067826,111.86087 C366.042319,111.705507 366.029565,111.542029 366.029565,111.370435 C366.029565,111.18029 366.043478,110.963478 366.071304,110.72 C366.09913,110.476522 366.130435,110.246957 366.165217,110.031304 C366.2,109.815652 366.231304,109.631304 366.25913,109.478261 L366.25913,109.478261 L366.293913,109.255652 L364.958261,109.012174 C364.930435,109.202319 364.892174,109.426087 364.843478,109.683478 C364.794783,109.94087 364.732174,110.206377 364.655652,110.48 C364.57913,110.753623 364.486377,111.022609 364.377391,111.286957 C364.268406,111.551304 364.14087,111.787826 363.994783,111.996522 C363.848696,112.205217 363.681739,112.374493 363.493913,112.504348 C363.306087,112.634203 363.093913,112.69913 362.857391,112.69913 C362.708986,112.69913 362.586087,112.671304 362.488696,112.615652 C362.391304,112.56 362.314783,112.485797 362.25913,112.393043 C362.203478,112.30029 362.164058,112.194783 362.14087,112.076522 C362.117681,111.958261 362.106087,111.836522 362.106087,111.711304 C362.106087,111.530435 362.124638,111.334493 362.161739,111.123478 C362.198841,110.912464 362.242899,110.706087 362.293913,110.504348 C362.344928,110.302609 362.397101,110.113623 362.450435,109.937391 C362.503768,109.761159 362.548986,109.617391 362.586087,109.506087 L362.586087,109.506087 L361.208696,109.213913 C361.162319,109.441159 361.106667,109.682319 361.041739,109.937391 C360.976812,110.192464 360.897971,110.446377 360.805217,110.69913 C360.712464,110.951884 360.603478,111.194203 360.478261,111.426087 C360.353043,111.657971 360.205797,111.863188 360.036522,112.041739 C359.867246,112.22029 359.673623,112.364058 359.455652,112.473043 C359.237681,112.582029 358.991884,112.636522 358.718261,112.636522 L358.718261,112.636522 L358.565217,112.636522 L358.565217,114 L358.711304,114 C358.98029,114 359.227246,113.977971 359.452174,113.933913 C359.677101,113.889855 359.882319,113.826087 360.067826,113.742609 C360.253333,113.65913 360.424928,113.558261 360.582609,113.44 C360.74029,113.321739 360.888696,113.188406 361.027826,113.04 C361.102029,113.211594 361.207536,113.362319 361.344348,113.492174 C361.481159,113.622029 361.633043,113.731014 361.8,113.81913 C361.966957,113.907246 362.142029,113.973333 362.325217,114.017391 C362.508406,114.061449 362.685797,114.083478 362.857391,114.083478 C363.251594,114.083478 363.624928,113.988406 363.977391,113.798261 C364.329855,113.608116 364.645217,113.350725 364.923478,113.026087 C365.02087,113.174493 365.13913,113.312464 365.278261,113.44 C365.417391,113.567536 365.568116,113.678841 365.730435,113.773913 C365.892754,113.868986 366.063188,113.944348 366.241739,114 C366.42029,114.055652 366.597681,114.083478 366.773913,114.083478 L366.773913,114.083478 L366.822609,114.083478 Z M353.918261,114 C354.6,114 355.172754,113.929275 355.636522,113.787826 C356.10029,113.646377 356.478261,113.429565 356.770435,113.137391 C356.969855,113.392464 357.224928,113.6 357.535652,113.76 C357.846377,113.92 358.235942,114 358.704348,114 L358.704348,114 L358.843478,114 L358.843478,112.636522 L358.704348,112.636522 C358.467826,112.636522 358.274203,112.583188 358.123478,112.476522 C357.972754,112.369855 357.854493,112.235362 357.768696,112.073043 C357.682899,111.910725 357.621449,111.734493 357.584348,111.544348 C357.547246,111.354203 357.521739,111.173333 357.507826,111.001739 C357.489275,110.755942 357.469565,110.535652 357.448696,110.34087 C357.427826,110.146087 357.405797,109.965217 357.382609,109.798261 C357.35942,109.631304 357.331594,109.472464 357.29913,109.321739 C357.266667,109.171014 357.227246,109.014493 357.18087,108.852174 L357.18087,108.852174 L355.873043,109.22087 C355.975072,109.573333 356.045797,109.886377 356.085217,110.16 C356.124638,110.433623 356.144348,110.702609 356.144348,110.966957 C356.144348,111.518841 355.968116,111.935072 355.615652,112.215652 C355.263188,112.496232 354.697391,112.636522 353.918261,112.636522 L353.918261,112.636522 L353.66087,112.636522 L353.66087,114 L353.918261,114 Z M356.137391,117.624348 L357.271304,116.490435 L356.130435,115.349565 L354.996522,116.483478 L356.137391,117.624348 Z M348.304348,119.502609 C348.675362,119.502609 349.052174,119.478261 349.434783,119.429565 C349.817391,119.38087 350.197681,119.29971 350.575652,119.186087 C350.953623,119.072464 351.323478,118.91942 351.685217,118.726957 C352.046957,118.534493 352.392464,118.292174 352.721739,118 L352.721739,118 L351.824348,116.942609 C351.518261,117.234783 351.175072,117.474783 350.794783,117.662609 C350.414493,117.850435 350.026087,117.987246 349.629565,118.073043 C349.233043,118.158841 348.844638,118.201739 348.464348,118.201739 L348.464348,118.201739 L348.346087,118.201739 C347.91942,118.197101 347.507826,118.143768 347.111304,118.041739 C346.714783,117.93971 346.344928,117.793623 346.001739,117.603478 C345.658551,117.413333 345.364058,117.177971 345.118261,116.897391 C344.872464,116.616812 344.689275,116.309565 344.568696,115.975652 C344.448116,115.641739 344.387826,115.296232 344.387826,114.93913 C344.387826,114.864928 344.390145,114.790725 344.394783,114.716522 C344.417971,114.428986 344.477101,114.163478 344.572174,113.92 C344.667246,113.676522 344.783188,113.452754 344.92,113.248696 C345.056812,113.044638 345.208696,112.861449 345.375652,112.69913 C345.542609,112.536812 345.709565,112.394203 345.876522,112.271304 C346.043478,112.148406 346.203478,112.044058 346.356522,111.958261 C346.509565,111.872464 346.63942,111.804058 346.746087,111.753043 C347.237681,111.530435 347.748986,111.356522 348.28,111.231304 C348.811014,111.106087 349.336232,111.011014 349.855652,110.946087 C349.855652,111.488696 349.946087,111.953623 350.126957,112.34087 C350.307826,112.728116 350.567536,113.044638 350.906087,113.290435 C351.244638,113.536232 351.657391,113.715942 352.144348,113.829565 C352.631304,113.943188 353.183188,114 353.8,114 L353.8,114 L353.93913,114 L353.93913,112.636522 L353.8,112.636522 C353.396522,112.636522 353.037101,112.612174 352.721739,112.563478 C352.406377,112.514783 352.138551,112.423188 351.918261,112.288696 C351.697971,112.154203 351.529855,111.969855 351.413913,111.735652 C351.297971,111.501449 351.24,111.196522 351.24,110.82087 C351.467246,110.806957 351.674783,110.797681 351.862609,110.793043 C352.050435,110.788406 352.212754,110.787246 352.349565,110.789565 C352.486377,110.791884 352.593043,110.794203 352.669565,110.796522 C352.707826,110.797681 352.737681,110.798551 352.75913,110.79913 L352.798261,110.8 L353.062609,109.464348 C352.390145,109.241739 351.768696,108.998261 351.198261,108.733913 C350.627826,108.469565 350.089855,108.212174 349.584348,107.961739 L349.25447,107.799652 C348.823722,107.590029 348.429333,107.406377 348.071304,107.248696 C347.623768,107.051594 347.205217,106.927536 346.815652,106.876522 C346.653333,106.853333 346.495652,106.841739 346.342609,106.841739 C345.957681,106.841739 345.588986,106.908986 345.236522,107.043478 C344.744928,107.228986 344.295072,107.546667 343.886957,107.996522 C343.743188,108.149565 343.617971,108.301449 343.511304,108.452174 C343.404638,108.602899 343.315362,108.738551 343.243478,108.85913 C343.171594,108.97971 343.114783,109.081739 343.073043,109.165217 C343.052174,109.206957 343.035362,109.24058 343.022609,109.266087 L342.996522,109.318261 L344.276522,109.846957 C344.336812,109.721739 344.415652,109.57913 344.513043,109.41913 C344.610435,109.25913 344.735652,109.095652 344.888696,108.928696 C345.333913,108.455652 345.827826,108.21913 346.370435,108.21913 C346.458551,108.21913 346.546667,108.226087 346.634783,108.24 C346.903768,108.277101 347.24,108.384928 347.643478,108.563478 C348.046957,108.742029 348.492174,108.954203 348.97913,109.2 L348.97913,109.2 L349.730435,109.561739 C349.141449,109.631304 348.545507,109.74029 347.942609,109.888696 C347.33971,110.037101 346.750725,110.243478 346.175652,110.507826 C345.744348,110.707246 345.345507,110.954203 344.97913,111.248696 C344.612754,111.543188 344.292754,111.872464 344.01913,112.236522 C343.745507,112.60058 343.522899,112.990145 343.351304,113.405217 C343.17971,113.82029 343.073043,114.250435 343.031304,114.695652 C343.017391,114.825507 343.010435,114.950725 343.010435,115.071304 C343.010435,115.391304 343.049855,115.69971 343.128696,115.996522 C343.230725,116.409275 343.393043,116.793043 343.615652,117.147826 C343.838261,117.502609 344.113043,117.824928 344.44,118.114783 C344.766957,118.404638 345.133333,118.652754 345.53913,118.85913 C345.944928,119.065507 346.38087,119.224348 346.846957,119.335652 C347.313043,119.446957 347.798841,119.502609 348.304348,119.502609 Z"/>
    <path fill="#FFF" fill-opacity=".56" fill-rule="nonzero" d="M150.964348,114 C151.297101,114 151.618696,113.977681 151.92913,113.933043 C152.239565,113.888406 152.524638,113.811304 152.784348,113.701739 C153.044058,113.592174 153.274348,113.446087 153.475217,113.263478 C153.676087,113.08087 153.837391,112.851594 153.95913,112.575652 C154.08087,112.295652 154.141739,111.971014 154.141739,111.601739 C154.141739,111.536812 154.13971,111.471884 154.135652,111.406957 C154.107246,110.956522 154.001739,110.437101 153.81913,109.848696 C153.758261,109.649855 153.693333,109.462174 153.624348,109.285652 C153.555362,109.10913 153.491449,108.953913 153.432609,108.82 C153.373768,108.686087 153.326087,108.579565 153.289565,108.500435 C153.253043,108.421304 153.234783,108.37971 153.234783,108.375652 L153.234783,108.375652 L152.151304,108.911304 L152.68087,110.213913 C152.766087,110.42087 152.831014,110.618696 152.875652,110.807391 C152.92029,110.996087 152.946667,111.144203 152.954783,111.251739 C152.962899,111.359275 152.966957,111.43942 152.966957,111.492174 C152.966957,111.589565 152.96087,111.68087 152.948696,111.766087 C152.928406,111.895942 152.897971,112.003478 152.857391,112.088696 C152.776232,112.25913 152.662609,112.392029 152.516522,112.487391 C152.370435,112.582754 152.202029,112.654783 152.011304,112.703478 C151.82058,112.752174 151.613623,112.781594 151.390435,112.791739 C151.167246,112.801884 150.937971,112.806957 150.702609,112.806957 L150.702609,112.806957 L149.527826,112.806957 L149.527826,114 L150.964348,114 Z M153.283478,117.171304 L154.281739,116.173043 L153.295652,115.186957 L152.297391,116.185217 L153.283478,117.171304 Z M150.623478,117.183478 L151.621739,116.185217 L150.635652,115.193043 L149.637391,116.191304 L150.623478,117.183478 Z M151.98087,118.924348 L152.887826,118.017391 L151.986957,117.116522 L151.08,118.023478 L151.98087,118.924348 Z M142.095652,114.018261 C142.294493,114.018261 142.484203,113.988841 142.664783,113.93 C142.845362,113.871159 143.015797,113.787971 143.176087,113.680435 C143.336377,113.572899 143.484493,113.447101 143.620435,113.303043 C143.756377,113.158986 143.87913,113.001739 143.988696,112.831304 C144.138841,113.192464 144.366087,113.477536 144.670435,113.686522 C144.974783,113.895507 145.329855,114 145.735652,114 C145.942609,114 146.137391,113.969565 146.32,113.908696 C146.502609,113.847826 146.672029,113.762609 146.828261,113.653043 C146.984493,113.543478 147.123478,113.411594 147.245217,113.257391 C147.366957,113.103188 147.468406,112.930725 147.549565,112.74 C147.655072,112.934783 147.782899,113.109275 147.933043,113.263478 C148.083188,113.417681 148.248551,113.549565 148.42913,113.65913 C148.60971,113.768696 148.801449,113.852899 149.004348,113.911739 C149.207246,113.97058 149.414203,114 149.625217,114 L149.625217,114 L149.771304,114 L149.771304,112.806957 L149.625217,112.806957 C149.333043,112.806957 149.068261,112.684203 148.83087,112.438696 C148.593478,112.193188 148.393623,111.82087 148.231304,111.321739 C148.170435,111.13913 148.122754,110.966667 148.088261,110.804348 C148.053768,110.642029 148.025362,110.487826 148.003043,110.341739 C147.980725,110.195652 147.962464,110.054638 147.948261,109.918696 C147.934058,109.782754 147.92087,109.647826 147.908696,109.513913 L147.908696,109.513913 L146.715652,109.611304 C146.723768,109.757391 146.73087,109.909565 146.736957,110.067826 C146.743043,110.226087 146.746087,110.362029 146.746087,110.475652 C146.746087,110.589275 146.744058,110.704928 146.74,110.822609 C146.731884,111.057971 146.711594,111.292319 146.67913,111.525652 C146.646667,111.758986 146.592899,111.97 146.517826,112.158696 C146.442754,112.347391 146.342319,112.499565 146.216522,112.615217 C146.090725,112.73087 145.930435,112.788696 145.735652,112.788696 C145.532754,112.788696 145.372464,112.733913 145.254783,112.624348 C145.137101,112.514783 145.05087,112.372754 144.996087,112.198261 C144.941304,112.023768 144.91087,111.865507 144.904783,111.723478 C144.898696,111.581449 144.895652,111.477971 144.895652,111.413043 C144.895652,111.254783 144.903768,111.096522 144.92,110.938261 C144.936232,110.715072 144.96058,110.502029 144.993043,110.29913 C145.025507,110.096232 145.051884,109.923768 145.072174,109.781739 L145.072174,109.781739 L143.885217,109.556522 C143.864928,109.743188 143.835507,109.953188 143.796957,110.186522 C143.758406,110.419855 143.706667,110.656232 143.641739,110.895652 C143.576812,111.135072 143.49971,111.370435 143.410435,111.601739 C143.321159,111.833043 143.213623,112.037971 143.087826,112.216522 C142.962029,112.395072 142.816957,112.53913 142.652609,112.648696 C142.488261,112.758261 142.302609,112.813043 142.095652,112.813043 C141.929275,112.813043 141.802464,112.756232 141.715217,112.642609 C141.627971,112.528986 141.573188,112.398116 141.55087,112.25 C141.528551,112.101884 141.517391,111.962899 141.517391,111.833043 C141.517391,111.76 141.51942,111.682899 141.523478,111.601739 C141.535652,111.382609 141.558986,111.166522 141.593478,110.953478 C141.627971,110.740435 141.664493,110.542609 141.703043,110.36 C141.741594,110.177391 141.773043,110.035362 141.797391,109.933913 L141.797391,109.933913 L140.628696,109.611304 C140.604348,109.708696 140.577971,109.824348 140.549565,109.958261 C140.521159,110.092174 140.483623,110.239275 140.436957,110.399565 C140.39029,110.559855 140.334493,110.73029 140.269565,110.91087 C140.204638,111.091449 140.125507,111.275072 140.032174,111.461739 C139.942899,111.628116 139.83942,111.791449 139.721739,111.951739 C139.604058,112.112029 139.475217,112.256087 139.335217,112.383913 C139.195217,112.511739 139.045072,112.614203 138.884783,112.691304 C138.724493,112.768406 138.55913,112.806957 138.388696,112.806957 L138.388696,112.806957 L138.26087,112.806957 L138.26087,114 L138.388696,114 C138.624058,114 138.840145,113.97058 139.036957,113.911739 C139.233768,113.852899 139.417391,113.771739 139.587826,113.668261 C139.758261,113.564783 139.914493,113.44 140.056522,113.293913 C140.198551,113.147826 140.332464,112.985507 140.458261,112.806957 C140.511014,112.989565 140.590145,113.155942 140.695652,113.306087 C140.801159,113.456232 140.924928,113.584058 141.066957,113.689565 C141.208986,113.795072 141.368261,113.876232 141.544783,113.933043 C141.721304,113.989855 141.904928,114.018261 142.095652,114.018261 Z M132.788696,118.273043 C133.381159,118.17971 133.954348,118.017391 134.508261,117.786087 C135.062174,117.554783 135.565362,117.258551 136.017826,116.897391 C136.47029,116.536232 136.855797,116.113188 137.174348,115.628261 C137.492899,115.143333 137.713043,114.60058 137.834783,114 L137.834783,114 L138.504348,114 L138.504348,112.806957 L137.926087,112.806957 C137.917971,112.498551 137.885507,112.195217 137.828696,111.896957 C137.771884,111.598696 137.694783,111.312609 137.597391,111.038696 C137.5,110.764783 137.382319,110.508116 137.244348,110.268696 C137.106377,110.029275 136.952174,109.814203 136.781739,109.623478 C136.298841,109.104058 135.769275,108.844348 135.193043,108.844348 C134.933333,108.844348 134.682754,108.91029 134.441304,109.042174 C134.199855,109.174058 133.975652,109.367826 133.768696,109.623478 C133.598261,109.842609 133.450145,110.103333 133.324348,110.405652 C133.198551,110.707971 133.118406,110.977826 133.083913,111.215217 C133.04942,111.452609 133.032174,111.648406 133.032174,111.802609 C133.032174,111.964928 133.046377,112.127246 133.074783,112.289565 C133.123478,112.597971 133.241159,112.869855 133.427826,113.105217 C133.849855,113.628696 134.501159,113.916812 135.381739,113.969565 C135.604928,113.989855 135.804783,114 135.981304,114 L135.981304,114 L136.672174,114 C136.627536,114.304348 136.502754,114.613768 136.297826,114.928261 C136.092899,115.242754 135.813913,115.54 135.46087,115.82 C135.107826,116.1 134.683768,116.351594 134.188696,116.574783 C133.693623,116.797971 133.133623,116.972464 132.508696,117.098261 L132.508696,117.098261 L132.788696,118.273043 Z M136.131196,112.794022 L136.033043,112.794783 C135.854493,112.794783 135.663768,112.788696 135.46087,112.776522 C135.387826,112.772464 135.301594,112.763333 135.202174,112.74913 C135.102754,112.734928 135.001304,112.712609 134.897826,112.682174 C134.794348,112.651739 134.696957,112.611159 134.605652,112.560435 C134.514348,112.50971 134.438261,112.443768 134.377391,112.362609 C134.308406,112.277391 134.266812,112.181014 134.252609,112.073478 C134.238406,111.965942 134.231304,111.875652 134.231304,111.802609 C134.231304,111.713333 134.237391,111.622029 134.249565,111.528696 C134.269855,111.358261 134.308406,111.184783 134.365217,111.008261 C134.422029,110.831739 134.492029,110.672464 134.575217,110.530435 C134.658406,110.388406 134.752754,110.271739 134.858261,110.180435 C134.963768,110.08913 135.075362,110.043478 135.193043,110.043478 C135.266087,110.043478 135.335072,110.055652 135.4,110.08 C135.464928,110.104348 135.526812,110.135797 135.585652,110.174348 C135.644493,110.212899 135.699275,110.255507 135.75,110.302174 C135.800725,110.348841 135.846377,110.392464 135.886957,110.433043 C135.988406,110.550725 136.086812,110.68971 136.182174,110.85 C136.277536,111.01029 136.363768,111.189855 136.44087,111.388696 C136.517971,111.587536 136.58087,111.802609 136.629565,112.033913 C136.678261,112.265217 136.708696,112.510725 136.72087,112.770435 C136.562609,112.782609 136.419565,112.78971 136.291739,112.791739 C136.227826,112.792754 136.174312,112.793514 136.131196,112.794022 Z M129.501739,107.35913 L130.493913,106.366957 L129.495652,105.368696 L128.503478,106.36087 L129.501739,107.35913 Z M128.527826,114 C128.86058,114 129.17,113.977681 129.456087,113.933043 C129.742174,113.888406 130.00087,113.811304 130.232174,113.701739 C130.463478,113.592174 130.667391,113.446087 130.843913,113.263478 C131.020435,113.08087 131.169565,112.851594 131.291304,112.575652 C131.413043,112.295652 131.473913,111.971014 131.473913,111.601739 C131.473913,111.536812 131.471884,111.471884 131.467826,111.406957 C131.43942,110.956522 131.333913,110.437101 131.151304,109.848696 C131.090435,109.649855 131.025507,109.462174 130.956522,109.285652 C130.887536,109.10913 130.823623,108.953913 130.764783,108.82 C130.705942,108.686087 130.658261,108.579565 130.621739,108.500435 C130.585217,108.421304 130.566957,108.37971 130.566957,108.375652 L130.566957,108.375652 L129.483478,108.911304 L130.013043,110.213913 C130.098261,110.42087 130.163188,110.618696 130.207826,110.807391 C130.252464,110.996087 130.278841,111.144203 130.286957,111.251739 C130.295072,111.359275 130.29913,111.43942 130.29913,111.492174 C130.29913,111.589565 130.293043,111.68087 130.28087,111.766087 C130.26058,111.895942 130.230145,112.003478 130.189565,112.088696 C130.108406,112.25913 130.006957,112.392029 129.885217,112.487391 C129.763478,112.582754 129.621449,112.654783 129.45913,112.703478 C129.296812,112.752174 129.116232,112.781594 128.917391,112.791739 C128.718551,112.801884 128.501449,112.806957 128.266087,112.806957 L128.266087,112.806957 L127.56,112.806957 L127.56,114 L128.527826,114 Z M127.803478,114 L127.803478,112.806957 L127.681739,112.806957 C127.438261,112.806957 127.237391,112.775507 127.07913,112.712609 C126.92087,112.64971 126.788986,112.562464 126.683478,112.45087 C126.577971,112.339275 126.487681,112.203333 126.412609,112.043043 C126.337536,111.882754 126.25942,111.705217 126.178261,111.510435 C126.02,111.141159 125.87087,110.787101 125.73087,110.448261 C125.59087,110.10942 125.448841,109.765507 125.304783,109.416522 C125.160725,109.067536 125.008551,108.698261 124.848261,108.308696 C124.687971,107.91913 124.510435,107.486957 124.315652,107.012174 L124.315652,107.012174 L123.207826,107.474783 L125.131304,112.10087 C125.062319,112.169855 124.961884,112.252029 124.83,112.347391 C124.698116,112.442754 124.528696,112.531014 124.321739,112.612174 C124.102609,112.697391 123.916957,112.747101 123.764783,112.761304 C123.612609,112.775507 123.497971,112.782609 123.42087,112.782609 C123.258551,112.782609 123.096232,112.764348 122.933913,112.727826 C122.690435,112.675072 122.444928,112.581739 122.197391,112.447826 C121.949855,112.313913 121.704348,112.133333 121.46087,111.906087 L121.46087,111.906087 L120.773043,112.873913 C121.117971,113.231014 121.494348,113.507971 121.902174,113.704783 C122.31,113.901594 122.753333,114 123.232174,114 C123.52029,114 123.78,113.982754 124.011304,113.948261 C124.242609,113.913768 124.456667,113.863043 124.653478,113.796087 C124.85029,113.72913 125.034928,113.644928 125.207391,113.543478 C125.379855,113.442029 125.551304,113.324348 125.721739,113.190435 C125.806957,113.3 125.908406,113.404493 126.026087,113.503913 C126.143768,113.603333 126.280725,113.689565 126.436957,113.762609 C126.593188,113.835652 126.773768,113.893478 126.978696,113.936087 C127.183623,113.978696 127.417971,114 127.681739,114 L127.681739,114 L127.803478,114 Z"/>
    <circle cx="12" cy="12" r="12" fill="#FFF" transform="translate(409 98)"/>
    <circle cx="12" cy="12" r="12" fill="#FFF" transform="translate(89 98)"/>
    <rect width="360" height="56" x="81" y="34"/>
    <path fill="#000000" fill-rule="nonzero" d="M434.6,70.2086957 C435.342029,70.2086957 436.005217,70.1878261 436.589565,70.146087 C437.173913,70.1043478 437.696812,70.0521739 438.158261,69.9895652 C438.61971,69.9269565 439.028986,69.8562319 439.386087,69.7773913 C439.743188,69.6985507 440.065507,69.622029 440.353043,69.5478261 L440.353043,69.5478261 L440.137391,67.8156522 L439.393043,67.9617391 C439.170435,67.9988406 438.923478,68.0371014 438.652174,68.0765217 C438.38087,68.115942 438.110725,68.1449275 437.841739,68.1634783 C437.790725,68.1681159 437.73971,68.1704348 437.688696,68.1704348 C437.461449,68.1704348 437.236522,68.1356522 437.013913,68.066087 C436.74029,67.9826087 436.49913,67.8608696 436.290435,67.7008696 C436.081739,67.5408696 435.91942,67.3576812 435.803478,67.1513043 C435.687536,66.9449275 435.629565,66.7327536 435.629565,66.5147826 C435.629565,66.4823188 435.631884,66.4498551 435.636522,66.4173913 C435.650435,66.2318841 435.692174,66.057971 435.761739,65.8956522 C435.831304,65.7333333 435.928696,65.5907246 436.053913,65.4678261 C436.17913,65.3449275 436.332174,65.2475362 436.513043,65.1756522 C436.693913,65.1037681 436.902609,65.0678261 437.13913,65.0678261 C437.431304,65.0678261 437.70029,65.1223188 437.946087,65.2313043 C438.191884,65.3402899 438.407536,65.462029 438.593043,65.5965217 C438.815652,65.7542029 439.010435,65.9304348 439.177391,66.1252174 L439.177391,66.1252174 L440.304348,64.7408696 C440.169855,64.6063768 440.026087,64.4788406 439.873043,64.3582609 C439.72,64.2376812 439.562319,64.124058 439.4,64.0173913 C439.26087,63.9292754 439.106667,63.8411594 438.937391,63.7530435 C438.768116,63.6649275 438.588406,63.586087 438.398261,63.5165217 C438.208116,63.4469565 438.007536,63.3913043 437.796522,63.3495652 C437.585507,63.3078261 437.366377,63.2869565 437.13913,63.2869565 C436.68,63.2869565 436.254493,63.3727536 435.862609,63.5443478 C435.470725,63.715942 435.132174,63.9478261 434.846957,64.24 C434.561739,64.5321739 434.337971,64.8730435 434.175652,65.2626087 C434.013333,65.6521739 433.932174,66.0649275 433.932174,66.5008696 C433.932174,66.8718841 433.977391,67.2115942 434.067826,67.52 C434.158261,67.8284058 434.328696,68.1286957 434.57913,68.4208696 L434.57913,68.4208696 L433.250435,68.4278261 L432.944348,68.4278261 L432.944348,70.2086957 L434.6,70.2086957 Z M430.252174,63.7808696 L431.587826,62.4452174 L430.252174,61.1165217 L428.923478,62.4452174 L430.252174,63.7808696 Z M428.297391,70.2086957 C428.951304,70.2086957 429.506667,70.146087 429.963478,70.0208696 C430.42029,69.8956522 430.808696,69.7008696 431.128696,69.4365217 C431.346667,69.6637681 431.614493,69.8492754 431.932174,69.9930435 C432.249855,70.1368116 432.633623,70.2086957 433.083478,70.2086957 L433.083478,70.2086957 L433.222609,70.2086957 L433.222609,68.4278261 L433.083478,68.4278261 C432.893333,68.4278261 432.73913,68.3802899 432.62087,68.2852174 C432.502609,68.1901449 432.408696,68.0718841 432.33913,67.9304348 C432.269565,67.7889855 432.21971,67.6336232 432.189565,67.4643478 C432.15942,67.2950725 432.137391,67.1362319 432.123478,66.9878261 C432.104928,66.742029 432.087536,66.5275362 432.071304,66.3443478 C432.055072,66.1611594 432.034203,65.9895652 432.008696,65.8295652 C431.983188,65.6695652 431.953043,65.5095652 431.918261,65.3495652 C431.883478,65.1895652 431.835942,65.0075362 431.775652,64.8034783 L431.775652,64.8034783 L430.064348,65.2834783 C430.184928,65.6962319 430.277681,66.0405797 430.342609,66.3165217 C430.407536,66.5924638 430.44,66.8092754 430.44,66.9669565 C430.44,67.453913 430.26029,67.8191304 429.90087,68.0626087 C429.541449,68.306087 429.006957,68.4278261 428.297391,68.4278261 L428.297391,68.4278261 L428.04,68.4278261 L428.04,70.2086957 L428.297391,70.2086957 Z M421.786087,75.0782609 C422.481739,74.9623188 423.151884,74.7721739 423.796522,74.5078261 C424.441159,74.2434783 425.026667,73.9072464 425.553043,73.4991304 C426.07942,73.0910145 426.530435,72.6121739 426.906087,72.0626087 C427.281739,71.5130435 427.548406,70.8950725 427.706087,70.2086957 L427.706087,70.2086957 L428.318261,70.2086957 L428.318261,68.4278261 L427.852174,68.4278261 C427.833623,68.08 427.788406,67.7402899 427.716522,67.4086957 C427.644638,67.0771014 427.550725,66.7582609 427.434783,66.4521739 C427.318841,66.146087 427.182029,65.8585507 427.024348,65.5895652 C426.866667,65.3205797 426.690435,65.0771014 426.495652,64.8591304 C425.902029,64.2191304 425.245797,63.8991304 424.526957,63.8991304 C424.248696,63.8991304 423.988986,63.9524638 423.747826,64.0591304 C423.506667,64.1657971 423.286377,64.3107246 423.086957,64.493913 C422.887536,64.6771014 422.711304,64.8881159 422.558261,65.1269565 C422.405217,65.3657971 422.276522,65.6185507 422.172174,65.8852174 C422.067826,66.1518841 421.987826,66.4243478 421.932174,66.7026087 C421.876522,66.9808696 421.848696,67.2475362 421.848696,67.5026087 C421.848696,67.9014493 421.902029,68.2446377 422.008696,68.5321739 C422.115362,68.8197101 422.264928,69.0643478 422.457391,69.266087 C422.649855,69.4678261 422.87942,69.6301449 423.146087,69.7530435 C423.412754,69.875942 423.704928,69.9710145 424.022609,70.0382609 C424.34029,70.1055072 424.677681,70.1507246 425.034783,70.173913 C425.391884,70.1971014 425.758261,70.2086957 426.133913,70.2086957 C426.050435,70.524058 425.882319,70.8394203 425.629565,71.1547826 C425.376812,71.4701449 425.048696,71.7669565 424.645217,72.0452174 C424.241739,72.3234783 423.765217,72.5750725 423.215652,72.8 C422.666087,73.0249275 422.050435,73.2046377 421.368696,73.3391304 L421.368696,73.3391304 L421.786087,75.0782609 Z M426.231304,68.4278261 L425.890435,68.4278261 C425.769855,68.4278261 425.648116,68.4255072 425.525217,68.4208696 C425.402319,68.4162319 425.282899,68.4127536 425.166957,68.4104348 C425.051014,68.4081159 424.944348,68.4023188 424.846957,68.3930435 C424.670725,68.3791304 424.493333,68.3524638 424.314783,68.3130435 C424.136232,68.2736232 423.976232,68.2144928 423.834783,68.1356522 C423.693333,68.0568116 423.577391,67.9524638 423.486957,67.8226087 C423.396522,67.6927536 423.351304,67.5304348 423.351304,67.3356522 C423.351304,67.1501449 423.389565,66.96 423.466087,66.7652174 C423.542609,66.5704348 423.638841,66.3930435 423.754783,66.2330435 C423.870725,66.0730435 423.998261,65.942029 424.137391,65.84 C424.276522,65.737971 424.406377,65.6869565 424.526957,65.6869565 C424.656812,65.6869565 424.786667,65.7310145 424.916522,65.8191304 C425.046377,65.9072464 425.172754,66.0243478 425.295652,66.1704348 C425.418551,66.3165217 425.533333,66.4834783 425.64,66.6713043 C425.746667,66.8591304 425.841739,67.0550725 425.925217,67.2591304 C426.008696,67.4631884 426.077101,67.666087 426.130435,67.8678261 C426.183768,68.0695652 426.217391,68.2562319 426.231304,68.4278261 L426.231304,68.4278261 Z M418.321739,70.1947826 L420.144348,69.9165217 C420.162899,69.5547826 420.181449,69.1663768 420.2,68.7513043 C420.218551,68.3362319 420.232464,67.8886957 420.241739,67.4086957 C420.251014,66.9286957 420.256812,66.4104348 420.25913,65.853913 C420.261449,65.2973913 420.257971,64.6921739 420.248696,64.0382609 C420.23942,63.2684058 420.211594,62.4811594 420.165217,61.6765217 C420.118841,60.8718841 420.037681,60.0266667 419.921739,59.1408696 L419.921739,59.1408696 L418.133913,59.7252174 C418.212754,60.4904348 418.275362,61.2915942 418.321739,62.1286957 C418.368116,62.9657971 418.409855,63.8597101 418.446957,64.8104348 C418.46087,65.2231884 418.467826,65.666087 418.467826,66.1391304 C418.467826,67.3124638 418.41913,68.6643478 418.321739,70.1947826 L418.321739,70.1947826 Z M411.636522,66.8347826 L412.972174,65.4991304 L411.636522,64.1704348 L410.307826,65.4991304 L411.636522,66.8347826 Z M411.21913,74.9947826 C411.896232,74.9947826 412.506087,74.9286957 413.048696,74.7965217 C413.591304,74.6643478 414.067826,74.4811594 414.478261,74.2469565 C414.888696,74.0127536 415.24,73.7356522 415.532174,73.4156522 C415.824348,73.0956522 416.05971,72.7478261 416.238261,72.3721739 C416.416812,71.9965217 416.538551,71.6266667 416.603478,71.2626087 C416.668406,70.8985507 416.70087,70.5565217 416.70087,70.2365217 C416.70087,70.1391304 416.698551,70.0394203 416.693913,69.9373913 C416.68,69.6405797 416.641739,69.3298551 416.57913,69.0052174 C416.516522,68.6805797 416.442319,68.3617391 416.356522,68.0486957 C416.270725,67.7356522 416.17913,67.4388406 416.081739,67.1582609 C415.984348,66.8776812 415.893913,66.6284058 415.810435,66.4104348 C415.726957,66.1924638 415.655072,66.0162319 415.594783,65.8817391 C415.534493,65.7472464 415.497391,65.6707246 415.483478,65.6521739 L415.483478,65.6521739 L413.848696,66.5634783 C413.853333,66.5634783 413.885797,66.6237681 413.946087,66.7443478 C414.006377,66.8649275 414.08058,67.0249275 414.168696,67.2243478 C414.256812,67.4237681 414.350725,67.6521739 414.450435,67.9095652 C414.550145,68.1669565 414.644058,68.4301449 414.732174,68.6991304 C414.82029,68.9681159 414.895652,69.2336232 414.958261,69.4956522 C415.02087,69.7576812 415.056812,69.9953623 415.066087,70.2086957 L415.066087,70.2086957 L415.066087,70.3269565 C415.066087,70.5681159 415.031304,70.8 414.961739,71.0226087 C414.873623,71.2823188 414.748406,71.5234783 414.586087,71.746087 C414.423768,71.9686957 414.226667,72.1704348 413.994783,72.3513043 C413.762899,72.5321739 413.505507,72.6863768 413.222609,72.813913 C412.93971,72.9414493 412.641739,73.0365217 412.328696,73.0991304 C412.015652,73.1617391 411.696812,73.1930435 411.372174,73.1930435 L411.372174,73.1930435 L411.302609,73.1930435 C410.866667,73.1837681 410.452754,73.1107246 410.06087,72.973913 C409.668986,72.8371014 409.324638,72.6469565 409.027826,72.4034783 C408.731014,72.16 408.495652,71.8689855 408.321739,71.5304348 C408.147826,71.1918841 408.06087,70.8162319 408.06087,70.4034783 C408.06087,70.0556522 408.101449,69.7101449 408.182609,69.3669565 C408.263768,69.0237681 408.36,68.7037681 408.471304,68.4069565 C408.582609,68.1101449 408.69971,67.8481159 408.822609,67.6208696 C408.945507,67.3936232 409.048696,67.222029 409.132174,67.106087 L409.132174,67.106087 L407.761739,66.1113043 C407.330435,66.7605797 407.006957,67.4469565 406.791304,68.1704348 C406.575652,68.893913 406.467826,69.6243478 406.467826,70.3617391 C406.467826,71.0805797 406.581449,71.7263768 406.808696,72.2991304 C407.035942,72.8718841 407.357101,73.3576812 407.772174,73.7565217 C408.187246,74.1553623 408.686957,74.4614493 409.271304,74.6747826 C409.855652,74.8881159 410.504928,74.9947826 411.21913,74.9947826 Z"/>
  </g>
</svg>
