<svg xmlns="http://www.w3.org/2000/svg" width="520" height="220" viewBox="0 0 520 220">
  <g fill="none" fill-rule="evenodd">
    <rect width="520" height="220"/>
    <g fill="#EA475B" transform="translate(425 90)">
      <rect width="16" height="40" fill-opacity=".12"/>
      <path fill-rule="nonzero" d="M7.22460938,21 L7.22460938,18.1464844 L7.1640625,18.1464844 L6.0546875,18.5546875 L6.0546875,18.9550781 L6.75195312,18.7167969 L6.75195312,21 L7.22460938,21 Z M9.18359375,21.0390625 C9.45963542,21.0390625 9.68261719,20.9495443 9.85253906,20.7705078 C10.0224609,20.5914714 10.1074219,20.3574219 10.1074219,20.0683594 C10.1074219,19.7884115 10.0348307,19.5598958 9.88964844,19.3828125 C9.74446615,19.2057292 9.54622396,19.1171875 9.29492188,19.1171875 C9.05794271,19.1171875 8.86328125,19.1972656 8.7109375,19.3574219 C8.74088542,19.0970052 8.83528646,18.8958333 8.99414062,18.7539062 C9.15299479,18.6119792 9.36523438,18.5390625 9.63085938,18.5351562 L9.63085938,18.5351562 L9.68945312,18.5351562 L9.68945312,18.1425781 L9.640625,18.1425781 C9.18489583,18.1425781 8.83561198,18.2838542 8.59277344,18.5664062 C8.3499349,18.8489583 8.22851562,19.2395833 8.22851562,19.7382812 L8.22851562,19.7382812 L8.22851562,19.9003906 C8.22851562,20.2402344 8.31673177,20.514974 8.49316406,20.7246094 C8.66959635,20.9342448 8.89973958,21.0390625 9.18359375,21.0390625 Z M9.1796875,20.65625 C9.0390625,20.65625 8.92447917,20.5940755 8.8359375,20.4697266 C8.74739583,20.3453776 8.703125,20.1777344 8.703125,19.9667969 L8.703125,19.9667969 L8.703125,19.8222656 C8.74348958,19.7246094 8.80696615,19.6464844 8.89355469,19.5878906 C8.98014323,19.5292969 9.07552083,19.5 9.1796875,19.5 C9.31770833,19.5 9.42838542,19.5540365 9.51171875,19.6621094 C9.59505208,19.7701823 9.63671875,19.9101562 9.63671875,20.0820312 C9.63671875,20.2539062 9.59570312,20.3925781 9.51367188,20.4980469 C9.43164062,20.6035156 9.3203125,20.65625 9.1796875,20.65625 Z"/>
    </g>
    <g fill="#EA475B" transform="translate(81 82)">
      <rect width="360" height="8" fill-opacity=".12"/>
      <path fill-rule="nonzero" d="M180,5.0390625 C180.28125,5.0390625 180.50651,4.96582031 180.675781,4.81933594 C180.845052,4.67285156 180.929688,4.47460938 180.929688,4.22460938 C180.929688,4.07356771 180.889648,3.93815104 180.80957,3.81835938 C180.729492,3.69856771 180.615234,3.60416667 180.466797,3.53515625 C180.590495,3.47265625 180.688151,3.38704427 180.759766,3.27832031 C180.83138,3.16959635 180.867188,3.04557292 180.867188,2.90625 C180.867188,2.6640625 180.789062,2.47200521 180.632812,2.33007812 C180.476562,2.18815104 180.264974,2.1171875 179.998047,2.1171875 C179.732422,2.1171875 179.521484,2.18815104 179.365234,2.33007812 C179.208984,2.47200521 179.130859,2.6640625 179.130859,2.90625 C179.130859,3.04557292 179.166341,3.16959635 179.237305,3.27832031 C179.308268,3.38704427 179.404948,3.47265625 179.527344,3.53515625 C179.38151,3.60026042 179.268229,3.69335938 179.1875,3.81445312 C179.106771,3.93554688 179.066406,4.07226562 179.066406,4.22460938 C179.066406,4.47330729 179.151367,4.67122396 179.321289,4.81835938 C179.491211,4.96549479 179.717448,5.0390625 180,5.0390625 Z M180,3.34960938 C179.878906,3.34960938 179.782878,3.31119792 179.711914,3.234375 C179.640951,3.15755208 179.605469,3.05403646 179.605469,2.92382812 C179.605469,2.79231771 179.640625,2.68847656 179.710938,2.61230469 C179.78125,2.53613281 179.876953,2.49804688 179.998047,2.49804688 C180.119141,2.49804688 180.215495,2.53808594 180.287109,2.61816406 C180.358724,2.69824219 180.394531,2.80013021 180.394531,2.92382812 C180.394531,3.05403646 180.359049,3.15755208 180.288086,3.234375 C180.217122,3.31119792 180.121094,3.34960938 180,3.34960938 Z M180,4.66015625 C179.856771,4.66015625 179.744466,4.61848958 179.663086,4.53515625 C179.581706,4.45182292 179.541016,4.34049479 179.541016,4.20117188 C179.541016,4.05924479 179.582357,3.9453125 179.665039,3.859375 C179.747721,3.7734375 179.858073,3.73046875 179.996094,3.73046875 C180.134115,3.73046875 180.245117,3.77376302 180.329102,3.86035156 C180.413086,3.9469401 180.455078,4.06054688 180.455078,4.20117188 C180.455078,4.34570312 180.415039,4.45833333 180.334961,4.5390625 C180.254883,4.61979167 180.143229,4.66015625 180,4.66015625 Z"/>
    </g>
    <g fill="#EA475B" transform="translate(81 34)">
      <rect width="360" height="16" fill-opacity=".12"/>
      <path fill-rule="nonzero" d="M179.224609,9 L179.224609,6.14648438 L179.164062,6.14648438 L178.054688,6.5546875 L178.054688,6.95507812 L178.751953,6.71679688 L178.751953,9 L179.224609,9 Z M181.183594,9.0390625 C181.459635,9.0390625 181.682617,8.94954427 181.852539,8.77050781 C182.022461,8.59147135 182.107422,8.35742188 182.107422,8.06835938 C182.107422,7.78841146 182.034831,7.55989583 181.889648,7.3828125 C181.744466,7.20572917 181.546224,7.1171875 181.294922,7.1171875 C181.057943,7.1171875 180.863281,7.19726562 180.710938,7.35742188 C180.740885,7.09700521 180.835286,6.89583333 180.994141,6.75390625 C181.152995,6.61197917 181.365234,6.5390625 181.630859,6.53515625 L181.630859,6.53515625 L181.689453,6.53515625 L181.689453,6.14257812 L181.640625,6.14257812 C181.184896,6.14257812 180.835612,6.28385417 180.592773,6.56640625 C180.349935,6.84895833 180.228516,7.23958333 180.228516,7.73828125 L180.228516,7.73828125 L180.228516,7.90039062 C180.228516,8.24023438 180.316732,8.51497396 180.493164,8.72460938 C180.669596,8.93424479 180.89974,9.0390625 181.183594,9.0390625 Z M181.179688,8.65625 C181.039062,8.65625 180.924479,8.59407552 180.835938,8.46972656 C180.747396,8.3453776 180.703125,8.17773438 180.703125,7.96679688 L180.703125,7.96679688 L180.703125,7.82226562 C180.74349,7.72460938 180.806966,7.64648438 180.893555,7.58789062 C180.980143,7.52929688 181.075521,7.5 181.179688,7.5 C181.317708,7.5 181.428385,7.55403646 181.511719,7.66210938 C181.595052,7.77018229 181.636719,7.91015625 181.636719,8.08203125 C181.636719,8.25390625 181.595703,8.39257812 181.513672,8.49804688 C181.431641,8.60351562 181.320312,8.65625 181.179688,8.65625 Z"/>
    </g>
    <g transform="translate(78 128)">
      <g transform="translate(0 .91)">
        <line x1="3.5" x2="3.5" y1="12.364" y2="14.364" stroke="#EA475B" stroke-linecap="round" stroke-width=".4"/>
        <line x1="362.5" x2="362.5" y1="12.364" y2="14.364" stroke="#EA475B" stroke-linecap="round" stroke-width=".4"/>
        <line x1="3.5" x2="362.5" y1="13.364" y2="13.364" stroke="#EA475B" stroke-linecap="round" stroke-width=".4"/>
        <circle cx="29" cy="1.091" r="1" fill="#EA475B"/>
        <line x1="29" x2="29" y1="1.091" y2="56.091" stroke="#EA475B" stroke-linecap="round" stroke-width=".4"/>
        <path fill="#EA475B" fill-rule="nonzero" d="M1.75488281,69.6524325 L1.75488281,65.3721591 L1.6640625,65.3721591 L0,65.9844638 L0,66.5850497 L1.04589844,66.2276278 L1.04589844,69.6524325 L1.75488281,69.6524325 Z M4.39453125,69.7110263 C4.75,69.7110263 5.03417969,69.58212 5.24707031,69.3243075 L5.24707031,69.3243075 L5.28222656,69.6524325 L5.92675781,69.6524325 L5.92675781,65.1524325 L5.21484375,65.1524325 L5.21484375,66.7754794 C5.0078125,66.5411044 4.73632812,66.4239169 4.40039062,66.4239169 C4.01953125,66.4239169 3.71582031,66.5718661 3.48925781,66.8677646 C3.26269531,67.163663 3.14941406,67.5557528 3.14941406,68.0440341 C3.14941406,68.557706 3.26416016,68.963956 3.49365234,69.2627841 C3.72314453,69.5616122 4.0234375,69.7110263 4.39453125,69.7110263 Z M4.57617188,69.1309482 C4.34765625,69.1309482 4.17138672,69.0406161 4.04736328,68.8599521 C3.92333984,68.679288 3.86132812,68.4278232 3.86132812,68.1055575 C3.86132812,67.73837 3.92382812,67.4634677 4.04882812,67.2808505 C4.17382812,67.0982333 4.3515625,67.0069247 4.58203125,67.0069247 C4.87304688,67.0069247 5.08398438,67.1338778 5.21484375,67.3877841 L5.21484375,67.3877841 L5.21484375,68.7412997 C5.08007812,69.0010653 4.8671875,69.1309482 4.57617188,69.1309482 Z M7.37988281,70.8711825 L7.37988281,69.3682528 C7.58886719,69.5967685 7.8671875,69.7110263 8.21484375,69.7110263 C8.58984375,69.7110263 8.88867188,69.5650302 9.11132812,69.273038 C9.33398438,68.9810458 9.4453125,68.5899325 9.4453125,68.0996982 L9.4453125,68.0996982 L9.4453125,68.0557528 C9.4453125,67.5440341 9.33544922,67.1441317 9.11572266,66.8560458 C8.89599609,66.5679599 8.59277344,66.4239169 8.20605469,66.4239169 C7.84667969,66.4239169 7.5625,66.55087 7.35351562,66.8047763 L7.35351562,66.8047763 L7.32421875,66.4825107 L6.66796875,66.4825107 L6.66796875,70.8711825 L7.37988281,70.8711825 Z M8.01269531,69.1426669 C7.71972656,69.1426669 7.50878906,69.01962 7.37988281,68.7735263 L7.37988281,68.7735263 L7.37988281,67.3672763 C7.50683594,67.1270419 7.71582031,67.0069247 8.00683594,67.0069247 C8.24121094,67.0069247 8.42138672,67.0996982 8.54736328,67.285245 C8.67333984,67.4707919 8.73632812,67.7217685 8.73632812,68.0381747 C8.73632812,68.4092685 8.67236328,68.6861239 8.54443359,68.8687411 C8.41650391,69.0513583 8.23925781,69.1426669 8.01269531,69.1426669 Z M13.0195312,67.9268466 L13.4443359,67.6162997 L12.8583984,66.8370028 L13.7666016,66.5791903 L13.6083984,66.0752841 L12.7382812,66.4121982 L12.7822266,65.3868075 L12.2578125,65.3868075 L12.3017578,66.39462 L11.4169922,66.0518466 L11.2558594,66.5469638 L12.1494141,66.8047763 L11.5429688,67.6016513 L11.9707031,67.9004794 L12.4921875,67.0830966 L13.0195312,67.9268466 Z M14.3935547,70.0186435 L16.0722656,65.3868075 L15.5126953,65.3868075 L13.8339844,70.0186435 L14.3935547,70.0186435 Z M19.4033203,69.7110263 C19.6962891,69.7110263 19.9545898,69.6436435 20.1782227,69.5088778 C20.4018555,69.3741122 20.5737305,69.1836825 20.6938477,68.9375888 C20.8139648,68.691495 20.8740234,68.4121982 20.8740234,68.0996982 L20.8740234,68.0996982 L20.8710938,67.932706 C20.8496094,67.4776278 20.7055664,67.1123935 20.4389648,66.8370028 C20.1723633,66.5616122 19.8251953,66.4239169 19.3974609,66.4239169 C19.1083984,66.4239169 18.8525391,66.4908114 18.6298828,66.6246005 C18.4072266,66.7583896 18.234375,66.9497958 18.1113281,67.1988192 C17.9882812,67.4478427 17.9267578,67.7276278 17.9267578,68.0381747 L17.9267578,68.0381747 L17.9267578,68.073331 C17.9267578,68.5694247 18.0610352,68.9663974 18.3295898,69.2642489 C18.5981445,69.5621005 18.9560547,69.7110263 19.4033203,69.7110263 Z M19.4033203,69.1426669 C19.1630859,69.1426669 18.9755859,69.0503817 18.8408203,68.8658114 C18.7060547,68.6812411 18.6386719,68.42587 18.6386719,68.0996982 C18.6386719,67.7325107 18.7070312,67.4566317 18.84375,67.2720614 C18.9804688,67.0874911 19.1650391,66.995206 19.3974609,66.995206 C19.6337891,66.995206 19.8208008,67.088956 19.9584961,67.276456 C20.0961914,67.463956 20.1650391,67.7178622 20.1650391,68.0381747 C20.1650391,68.3995028 20.0981445,68.6739169 19.9643555,68.8614169 C19.8305664,69.0489169 19.6435547,69.1426669 19.4033203,69.1426669 Z M22.1777344,69.6524325 L22.1777344,67.3965732 C22.3183594,67.1368075 22.5322266,67.0069247 22.8193359,67.0069247 C23.0166016,67.0069247 23.1586914,67.0552646 23.2456055,67.1519442 C23.3325195,67.2486239 23.3759766,67.3975497 23.3759766,67.5987216 L23.3759766,67.5987216 L23.3759766,69.6524325 L24.0878906,69.6524325 L24.0878906,67.557706 C24.0761719,66.8018466 23.7402344,66.4239169 23.0800781,66.4239169 C22.6992188,66.4239169 22.3916016,66.5655185 22.1572266,66.8487216 L22.1572266,66.8487216 L22.1367188,66.4825107 L21.4658203,66.4825107 L21.4658203,69.6524325 L22.1777344,69.6524325 Z M27.2695312,69.6524325 L27.2695312,67.0098544 L27.9140625,67.0098544 L27.9140625,66.4825107 L27.2695312,66.4825107 L27.2695312,66.2012607 C27.2695312,65.8516513 27.4394531,65.6768466 27.7792969,65.6768466 C27.8828125,65.6768466 27.9736328,65.6846591 28.0517578,65.7002841 L28.0517578,65.7002841 L28.0693359,65.1436435 C27.9287109,65.1084872 27.7958984,65.0909091 27.6708984,65.0909091 C27.3193359,65.0909091 27.0458984,65.1866122 26.8505859,65.3780185 C26.6552734,65.5694247 26.5576172,65.8409091 26.5576172,66.1924716 L26.5576172,66.1924716 L26.5576172,66.4825107 L26.0742188,66.4825107 L26.0742188,67.0098544 L26.5576172,67.0098544 L26.5576172,69.6524325 L27.2695312,69.6524325 Z M29.7773438,69.7110263 C30.0703125,69.7110263 30.3286133,69.6436435 30.5522461,69.5088778 C30.7758789,69.3741122 30.9477539,69.1836825 31.0678711,68.9375888 C31.1879883,68.691495 31.2480469,68.4121982 31.2480469,68.0996982 L31.2480469,68.0996982 L31.2451172,67.932706 C31.2236328,67.4776278 31.0795898,67.1123935 30.8129883,66.8370028 C30.5463867,66.5616122 30.1992188,66.4239169 29.7714844,66.4239169 C29.4824219,66.4239169 29.2265625,66.4908114 29.0039062,66.6246005 C28.78125,66.7583896 28.6083984,66.9497958 28.4853516,67.1988192 C28.3623047,67.4478427 28.3007812,67.7276278 28.3007812,68.0381747 L28.3007812,68.0381747 L28.3007812,68.073331 C28.3007812,68.5694247 28.4350586,68.9663974 28.7036133,69.2642489 C28.972168,69.5621005 29.3300781,69.7110263 29.7773438,69.7110263 Z M29.7773438,69.1426669 C29.5371094,69.1426669 29.3496094,69.0503817 29.2148438,68.8658114 C29.0800781,68.6812411 29.0126953,68.42587 29.0126953,68.0996982 C29.0126953,67.7325107 29.0810547,67.4566317 29.2177734,67.2720614 C29.3544922,67.0874911 29.5390625,66.995206 29.7714844,66.995206 C30.0078125,66.995206 30.1948242,67.088956 30.3325195,67.276456 C30.4702148,67.463956 30.5390625,67.7178622 30.5390625,68.0381747 C30.5390625,68.3995028 30.472168,68.6739169 30.3383789,68.8614169 C30.2045898,69.0489169 30.0175781,69.1426669 29.7773438,69.1426669 Z M33.1611328,69.7110263 C33.3896484,69.7110263 33.6025391,69.6612216 33.7998047,69.5616122 C33.9970703,69.4620028 34.1533203,69.3267489 34.2685547,69.1558505 C34.3837891,68.9849521 34.4453125,68.80087 34.453125,68.6036044 L34.453125,68.6036044 L33.7822266,68.6036044 C33.7744141,68.7559482 33.7119141,68.8838778 33.5947266,68.9873935 C33.4775391,69.0909091 33.3300781,69.1426669 33.1523438,69.1426669 C32.9179688,69.1426669 32.7387695,69.0581942 32.6147461,68.8892489 C32.4907227,68.7203036 32.4287109,68.463956 32.4287109,68.120206 L32.4287109,68.120206 L32.4287109,68.0059482 C32.4306641,67.6661044 32.4941406,67.4126864 32.6191406,67.2456942 C32.7441406,67.0787021 32.921875,66.995206 33.1523438,66.995206 C33.3320312,66.995206 33.4799805,67.0537997 33.5961914,67.1709872 C33.7124023,67.2881747 33.7744141,67.4375888 33.7822266,67.6192294 L33.7822266,67.6192294 L34.453125,67.6192294 C34.4414062,67.2618075 34.3168945,66.9732333 34.0795898,66.7535067 C33.8422852,66.5337802 33.5351562,66.4239169 33.1582031,66.4239169 C32.7128906,66.4239169 32.3613281,66.5689364 32.1035156,66.8589755 C31.8457031,67.1490146 31.7167969,67.535245 31.7167969,68.0176669 L31.7167969,68.0176669 L31.7167969,68.0909091 C31.7167969,68.5967685 31.8466797,68.9932528 32.1064453,69.2803622 C32.3662109,69.5674716 32.7177734,69.7110263 33.1611328,69.7110263 Z M36.0205078,69.7110263 C36.4052734,69.7110263 36.7021484,69.5879794 36.9111328,69.3418857 L36.9111328,69.3418857 L36.9287109,69.6524325 L37.5996094,69.6524325 L37.5996094,66.4825107 L36.8876953,66.4825107 L36.8876953,68.7588778 C36.7666016,69.0069247 36.5332031,69.1309482 36.1875,69.1309482 C35.8535156,69.1309482 35.6865234,68.9297763 35.6865234,68.5274325 L35.6865234,68.5274325 L35.6865234,66.4825107 L34.9746094,66.4825107 L34.9746094,68.5362216 C34.9746094,68.917081 35.0629883,69.2080966 35.2397461,69.4092685 C35.4165039,69.6104403 35.6767578,69.7110263 36.0205078,69.7110263 Z M39.5185547,69.7110263 C39.9013672,69.7110263 40.2109375,69.6226474 40.4472656,69.4458896 C40.6835938,69.2691317 40.8017578,69.0381747 40.8017578,68.7530185 C40.8017578,68.5830966 40.7631836,68.4385653 40.6860352,68.3194247 C40.6088867,68.2002841 40.4907227,68.0982333 40.331543,68.0132724 C40.1723633,67.9283114 39.953125,67.8550692 39.6738281,67.7935458 C39.3945312,67.7320224 39.2089844,67.6709872 39.1171875,67.6104403 C39.0253906,67.5498935 38.9794922,67.4649325 38.9794922,67.3555575 C38.9794922,67.2344638 39.0288086,67.1377841 39.1274414,67.0655185 C39.2260742,66.9932528 39.3535156,66.95712 39.5097656,66.95712 C39.6777344,66.95712 39.8125,67.0025302 39.9140625,67.0933505 C40.015625,67.1841708 40.0664062,67.2979403 40.0664062,67.4346591 L40.0664062,67.4346591 L40.7783203,67.4346591 C40.7783203,67.135831 40.6616211,66.8926669 40.4282227,66.7051669 C40.1948242,66.5176669 39.8886719,66.4239169 39.5097656,66.4239169 C39.1542969,66.4239169 38.8613281,66.5157138 38.6308594,66.6993075 C38.4003906,66.8829013 38.2851562,67.1114169 38.2851562,67.3848544 C38.2851562,67.7110263 38.4628906,67.9600497 38.8183594,68.1319247 C38.9804688,68.2100497 39.1826172,68.2745028 39.4248047,68.3252841 C39.6669922,68.3760653 39.840332,68.4346591 39.9448242,68.5010653 C40.0493164,68.5674716 40.1015625,68.6641513 40.1015625,68.7911044 C40.1015625,68.9063388 40.0527344,68.9996005 39.9550781,69.0708896 C39.8574219,69.1421786 39.7148438,69.1778232 39.5273438,69.1778232 C39.3339844,69.1778232 39.1787109,69.132413 39.0615234,69.0415927 C38.9443359,68.9507724 38.8808594,68.8213778 38.8710938,68.6534091 L38.8710938,68.6534091 L38.1796875,68.6534091 C38.1796875,68.8428622 38.2363281,69.01962 38.3496094,69.1836825 C38.4628906,69.347745 38.6210938,69.4766513 38.8242188,69.5704013 C39.0273438,69.6641513 39.2587891,69.7110263 39.5185547,69.7110263 Z M45.7382812,69.6524325 L45.7382812,69.0840732 L43.7578125,69.0840732 L44.8007812,67.9678622 C45.0742188,67.6709872 45.2709961,67.4058505 45.3911133,67.1724521 C45.5112305,66.9390536 45.5712891,66.7159091 45.5712891,66.5030185 C45.5712891,66.135831 45.4516602,65.8482333 45.2124023,65.6402255 C44.9731445,65.4322177 44.6464844,65.3282138 44.2324219,65.3282138 C43.9453125,65.3282138 43.6918945,65.385831 43.472168,65.5010653 C43.2524414,65.6162997 43.0834961,65.7779208 42.965332,65.9859286 C42.847168,66.1939364 42.7880859,66.4278232 42.7880859,66.6875888 L42.7880859,66.6875888 L43.5,66.6875888 C43.5,66.4434482 43.5634766,66.2510653 43.6904297,66.1104403 C43.8173828,65.9698153 43.9960938,65.8995028 44.2265625,65.8995028 C44.4199219,65.8995028 44.5737305,65.9620028 44.6879883,66.0870028 C44.8022461,66.2120028 44.859375,66.3760653 44.859375,66.5791903 C44.859375,66.7334872 44.815918,66.8872958 44.7290039,67.0406161 C44.6420898,67.1939364 44.4960938,67.3848544 44.2910156,67.61337 L44.2910156,67.61337 L42.8701172,69.1631747 L42.8701172,69.6524325 L45.7382812,69.6524325 Z M47.4375,69.7110263 C47.7929688,69.7110263 48.0771484,69.58212 48.2900391,69.3243075 L48.2900391,69.3243075 L48.3251953,69.6524325 L48.9697266,69.6524325 L48.9697266,65.1524325 L48.2578125,65.1524325 L48.2578125,66.7754794 C48.0507812,66.5411044 47.7792969,66.4239169 47.4433594,66.4239169 C47.0625,66.4239169 46.7587891,66.5718661 46.5322266,66.8677646 C46.3056641,67.163663 46.1923828,67.5557528 46.1923828,68.0440341 C46.1923828,68.557706 46.3071289,68.963956 46.5366211,69.2627841 C46.7661133,69.5616122 47.0664062,69.7110263 47.4375,69.7110263 Z M47.6191406,69.1309482 C47.390625,69.1309482 47.2143555,69.0406161 47.090332,68.8599521 C46.9663086,68.679288 46.9042969,68.4278232 46.9042969,68.1055575 C46.9042969,67.73837 46.9667969,67.4634677 47.0917969,67.2808505 C47.2167969,67.0982333 47.3945312,67.0069247 47.625,67.0069247 C47.9160156,67.0069247 48.1269531,67.1338778 48.2578125,67.3877841 L48.2578125,67.3877841 L48.2578125,68.7412997 C48.1230469,69.0010653 47.9101562,69.1309482 47.6191406,69.1309482 Z M50.4228516,70.8711825 L50.4228516,69.3682528 C50.6318359,69.5967685 50.9101562,69.7110263 51.2578125,69.7110263 C51.6328125,69.7110263 51.9316406,69.5650302 52.1542969,69.273038 C52.3769531,68.9810458 52.4882812,68.5899325 52.4882812,68.0996982 L52.4882812,68.0996982 L52.4882812,68.0557528 C52.4882812,67.5440341 52.378418,67.1441317 52.1586914,66.8560458 C51.9389648,66.5679599 51.6357422,66.4239169 51.2490234,66.4239169 C50.8896484,66.4239169 50.6054688,66.55087 50.3964844,66.8047763 L50.3964844,66.8047763 L50.3671875,66.4825107 L49.7109375,66.4825107 L49.7109375,70.8711825 L50.4228516,70.8711825 Z M51.0556641,69.1426669 C50.7626953,69.1426669 50.5517578,69.01962 50.4228516,68.7735263 L50.4228516,68.7735263 L50.4228516,67.3672763 C50.5498047,67.1270419 50.7587891,67.0069247 51.0498047,67.0069247 C51.2841797,67.0069247 51.4643555,67.0996982 51.590332,67.285245 C51.7163086,67.4707919 51.7792969,67.7217685 51.7792969,68.0381747 C51.7792969,68.4092685 51.715332,68.6861239 51.5874023,68.8687411 C51.4594727,69.0513583 51.2822266,69.1426669 51.0556641,69.1426669 Z M54.7851562,70.0186435 L56.4638672,65.3868075 L55.9042969,65.3868075 L54.2255859,70.0186435 L54.7851562,70.0186435 Z M58.4355469,67.9268466 L58.8603516,67.6162997 L58.2744141,66.8370028 L59.1826172,66.5791903 L59.0244141,66.0752841 L58.1542969,66.4121982 L58.1982422,65.3868075 L57.6738281,65.3868075 L57.7177734,66.39462 L56.8330078,66.0518466 L56.671875,66.5469638 L57.5654297,66.8047763 L56.9589844,67.6016513 L57.3867188,67.9004794 L57.9082031,67.0830966 L58.4355469,67.9268466 Z"/>
      </g>
      <path fill="#EA475B" fill-rule="nonzero" d="M166.461914,22 L167.129883,19.8232422 L167.80957,22 L168.395508,22 L169.259766,18.8300781 L168.56543,18.8300781 L168.061523,21.0185547 L167.402344,18.8300781 L166.866211,18.8300781 L166.21582,20.9951172 L165.703125,18.8300781 L165.008789,18.8300781 L165.875977,22 L166.461914,22 Z M170.138672,18.3818359 C170.267578,18.3818359 170.367188,18.3461914 170.4375,18.2749023 C170.507812,18.2036133 170.542969,18.1142578 170.542969,18.0068359 C170.542969,17.8974609 170.507812,17.8066406 170.4375,17.734375 C170.367188,17.6621094 170.267578,17.6259766 170.138672,17.6259766 C170.009766,17.6259766 169.910645,17.6621094 169.841309,17.734375 C169.771973,17.8066406 169.737305,17.8974609 169.737305,18.0068359 C169.737305,18.1142578 169.771973,18.2036133 169.841309,18.2749023 C169.910645,18.3461914 170.009766,18.3818359 170.138672,18.3818359 Z M170.493164,22 L170.493164,18.8300781 L169.78125,18.8300781 L169.78125,22 L170.493164,22 Z M172.379883,22.0585938 C172.735352,22.0585938 173.019531,21.9296875 173.232422,21.671875 L173.232422,21.671875 L173.267578,22 L173.912109,22 L173.912109,17.5 L173.200195,17.5 L173.200195,19.1230469 C172.993164,18.8886719 172.72168,18.7714844 172.385742,18.7714844 C172.004883,18.7714844 171.701172,18.9194336 171.474609,19.215332 C171.248047,19.5112305 171.134766,19.9033203 171.134766,20.3916016 C171.134766,20.9052734 171.249512,21.3115234 171.479004,21.6103516 C171.708496,21.9091797 172.008789,22.0585938 172.379883,22.0585938 Z M172.561523,21.4785156 C172.333008,21.4785156 172.156738,21.3881836 172.032715,21.2075195 C171.908691,21.0268555 171.84668,20.7753906 171.84668,20.453125 C171.84668,20.0859375 171.90918,19.8110352 172.03418,19.628418 C172.15918,19.4458008 172.336914,19.3544922 172.567383,19.3544922 C172.858398,19.3544922 173.069336,19.4814453 173.200195,19.7353516 L173.200195,19.7353516 L173.200195,21.0888672 C173.06543,21.3486328 172.852539,21.4785156 172.561523,21.4785156 Z M175.655273,22.0585938 C175.805664,22.0585938 175.961914,22.0361328 176.124023,21.9912109 L176.124023,21.9912109 L176.124023,21.4404297 C176.040039,21.4599609 175.957031,21.4697266 175.875,21.4697266 C175.751953,21.4697266 175.666504,21.4428711 175.618652,21.3891602 C175.570801,21.3354492 175.546875,21.2480469 175.546875,21.1269531 L175.546875,21.1269531 L175.546875,19.3574219 L176.106445,19.3574219 L176.106445,18.8300781 L175.546875,18.8300781 L175.546875,18.0595703 L174.834961,18.0595703 L174.834961,18.8300781 L174.313477,18.8300781 L174.313477,19.3574219 L174.834961,19.3574219 L174.834961,21.1533203 C174.834961,21.7568359 175.108398,22.0585938 175.655273,22.0585938 Z M177.351562,22 L177.351562,19.7353516 C177.492188,19.4814453 177.705078,19.3544922 177.990234,19.3544922 C178.173828,19.3544922 178.312988,19.3999023 178.407715,19.4907227 C178.502441,19.581543 178.549805,19.7363281 178.549805,19.9550781 L178.549805,19.9550781 L178.549805,22 L179.261719,22 L179.261719,19.9287109 C179.251953,19.1572266 178.90918,18.7714844 178.233398,18.7714844 C177.87793,18.7714844 177.583984,18.90625 177.351562,19.1757812 L177.351562,19.1757812 L177.351562,17.5 L176.639648,17.5 L176.639648,22 L177.351562,22 Z M180.410156,19.5449219 C180.542969,19.5449219 180.645508,19.5083008 180.717773,19.4350586 C180.790039,19.3618164 180.826172,19.2695312 180.826172,19.1582031 C180.826172,19.0449219 180.790039,18.9506836 180.717773,18.8754883 C180.645508,18.800293 180.542969,18.7626953 180.410156,18.7626953 C180.279297,18.7626953 180.177734,18.800293 180.105469,18.8754883 C180.033203,18.9506836 179.99707,19.0449219 179.99707,19.1582031 C179.99707,19.2714844 180.03418,19.3642578 180.108398,19.4365234 C180.182617,19.5087891 180.283203,19.5449219 180.410156,19.5449219 Z M180.410156,22.0322266 C180.542969,22.0322266 180.645508,21.9956055 180.717773,21.9223633 C180.790039,21.8491211 180.826172,21.7568359 180.826172,21.6455078 C180.826172,21.5322266 180.790039,21.4379883 180.717773,21.362793 C180.645508,21.2875977 180.542969,21.25 180.410156,21.25 C180.279297,21.25 180.177734,21.2875977 180.105469,21.362793 C180.033203,21.4379883 179.99707,21.5322266 179.99707,21.6455078 C179.99707,21.7587891 180.03418,21.8515625 180.108398,21.9238281 C180.182617,21.9960938 180.283203,22.0322266 180.410156,22.0322266 Z M184.948242,22 L184.948242,17.7197266 L184.857422,17.7197266 L183.193359,18.3320312 L183.193359,18.9326172 L184.239258,18.5751953 L184.239258,22 L184.948242,22 Z M187.819336,22.0585938 C188.288086,22.0585938 188.637207,21.902832 188.866699,21.5913086 C189.096191,21.2797852 189.210938,20.8173828 189.210938,20.2041016 L189.210938,20.2041016 L189.210938,19.4658203 C189.205078,18.8701172 189.087402,18.4228516 188.85791,18.1240234 C188.628418,17.8251953 188.280273,17.6757812 187.813477,17.6757812 C187.342773,17.6757812 186.992676,17.8291016 186.763184,18.1357422 C186.533691,18.4423828 186.418945,18.9023438 186.418945,19.515625 L186.418945,19.515625 L186.418945,20.2539062 C186.424805,20.8496094 186.544434,21.2993164 186.777832,21.6030273 C187.01123,21.9067383 187.358398,22.0585938 187.819336,22.0585938 Z M187.819336,21.4902344 C187.581055,21.4902344 187.40625,21.3925781 187.294922,21.1972656 C187.183594,21.0019531 187.12793,20.7050781 187.12793,20.3066406 L187.12793,20.3066406 L187.12793,19.3398438 C187.133789,18.9648438 187.191406,18.6889648 187.300781,18.512207 C187.410156,18.3354492 187.581055,18.2470703 187.813477,18.2470703 C188.051758,18.2470703 188.225586,18.340332 188.334961,18.5268555 C188.444336,18.7133789 188.499023,19.0068359 188.499023,19.4072266 L188.499023,19.4072266 L188.499023,20.3710938 C188.493164,20.7558594 188.435547,21.0385742 188.326172,21.2192383 C188.216797,21.3999023 188.047852,21.4902344 187.819336,21.4902344 Z M191.229492,22.0585938 C191.698242,22.0585938 192.047363,21.902832 192.276855,21.5913086 C192.506348,21.2797852 192.621094,20.8173828 192.621094,20.2041016 L192.621094,20.2041016 L192.621094,19.4658203 C192.615234,18.8701172 192.497559,18.4228516 192.268066,18.1240234 C192.038574,17.8251953 191.69043,17.6757812 191.223633,17.6757812 C190.75293,17.6757812 190.402832,17.8291016 190.17334,18.1357422 C189.943848,18.4423828 189.829102,18.9023438 189.829102,19.515625 L189.829102,19.515625 L189.829102,20.2539062 C189.834961,20.8496094 189.95459,21.2993164 190.187988,21.6030273 C190.421387,21.9067383 190.768555,22.0585938 191.229492,22.0585938 Z M191.229492,21.4902344 C190.991211,21.4902344 190.816406,21.3925781 190.705078,21.1972656 C190.59375,21.0019531 190.538086,20.7050781 190.538086,20.3066406 L190.538086,20.3066406 L190.538086,19.3398438 C190.543945,18.9648438 190.601562,18.6889648 190.710938,18.512207 C190.820312,18.3354492 190.991211,18.2470703 191.223633,18.2470703 C191.461914,18.2470703 191.635742,18.340332 191.745117,18.5268555 C191.854492,18.7133789 191.90918,19.0068359 191.90918,19.4072266 L191.90918,19.4072266 L191.90918,20.3710938 C191.90332,20.7558594 191.845703,21.0385742 191.736328,21.2192383 C191.626953,21.3999023 191.458008,21.4902344 191.229492,21.4902344 Z M194.129883,19.65625 C194.399414,19.65625 194.616699,19.5742188 194.781738,19.4101562 C194.946777,19.2460938 195.029297,19.0361328 195.029297,18.7802734 L195.029297,18.7802734 L195.029297,18.5693359 C195.029297,18.3017578 194.946777,18.0854492 194.781738,17.9204102 C194.616699,17.7553711 194.397461,17.6728516 194.124023,17.6728516 C193.854492,17.6728516 193.636719,17.7553711 193.470703,17.9204102 C193.304688,18.0854492 193.22168,18.296875 193.22168,18.5546875 L193.22168,18.5546875 L193.22168,18.7626953 C193.22168,19.0361328 193.307129,19.253418 193.478027,19.4145508 C193.648926,19.5756836 193.866211,19.65625 194.129883,19.65625 Z M194.129883,19.2314453 C194.006836,19.2314453 193.907715,19.1899414 193.83252,19.1069336 C193.757324,19.0239258 193.719727,18.9150391 193.719727,18.7802734 L193.719727,18.7802734 L193.719727,18.5634766 C193.719727,18.4248047 193.756348,18.3129883 193.82959,18.2280273 C193.902832,18.1430664 194.000977,18.1005859 194.124023,18.1005859 C194.24707,18.1005859 194.346191,18.1425781 194.421387,18.2265625 C194.496582,18.3105469 194.53418,18.4199219 194.53418,18.5546875 L194.53418,18.5546875 L194.53418,18.7685547 C194.53418,18.9111328 194.49707,19.0239258 194.422852,19.1069336 C194.348633,19.1899414 194.250977,19.2314453 194.129883,19.2314453 Z M194.276367,21.6806641 L196.359375,18.3466797 L195.993164,18.1357422 L193.910156,21.4697266 L194.276367,21.6806641 Z M196.183594,22.0585938 C196.457031,22.0585938 196.675293,21.9760742 196.838379,21.8110352 C197.001465,21.6459961 197.083008,21.4365234 197.083008,21.1826172 L197.083008,21.1826172 L197.083008,20.9746094 C197.083008,20.6992188 196.998535,20.4804688 196.82959,20.3183594 C196.660645,20.15625 196.443359,20.0751953 196.177734,20.0751953 C195.914062,20.0751953 195.697266,20.15625 195.527344,20.3183594 C195.357422,20.4804688 195.272461,20.6923828 195.272461,20.9541016 L195.272461,20.9541016 L195.272461,21.1679688 C195.272461,21.4355469 195.355957,21.6508789 195.522949,21.8139648 C195.689941,21.9770508 195.910156,22.0585938 196.183594,22.0585938 Z M196.183594,21.6367188 C196.0625,21.6367188 195.963379,21.5942383 195.88623,21.5092773 C195.809082,21.4243164 195.770508,21.3154297 195.770508,21.1826172 L195.770508,21.1826172 L195.770508,20.9658203 C195.770508,20.8212891 195.808105,20.7080078 195.883301,20.6259766 C195.958496,20.5439453 196.056641,20.5029297 196.177734,20.5029297 C196.296875,20.5029297 196.394531,20.5439453 196.470703,20.6259766 C196.546875,20.7080078 196.584961,20.8173828 196.584961,20.9541016 L196.584961,20.9541016 L196.584961,21.1738281 C196.584961,21.3203125 196.549316,21.434082 196.478027,21.5151367 C196.406738,21.5961914 196.308594,21.6367188 196.183594,21.6367188 Z"/>
    </g>
    <g transform="translate(441 90)">
      <rect width="8" height="40"/>
      <g stroke="#EA475B" stroke-linecap="round" stroke-width=".4" transform="translate(8)">
        <line x2="2" y1="1" y2="1"/>
        <line x2="2" y1="39" y2="39"/>
        <line x1="1" x2="1" y1="1" y2="39"/>
      </g>
      <path fill="#EA475B" fill-rule="nonzero" d="M16.7275391,22 L16.7275391,21.0507812 L17.2578125,21.0507812 L17.2578125,20.4794922 L16.7275391,20.4794922 L16.7275391,17.734375 L15.9921875,17.734375 L14.1523438,20.6171875 L14.1728516,21.0507812 L16.015625,21.0507812 L16.015625,22 L16.7275391,22 Z M16.015625,20.4794922 L14.8994141,20.4794922 L15.9628906,18.7919922 L16.015625,18.6982422 L16.015625,20.4794922 Z M19.1181641,22.0585938 C19.5869141,22.0585938 19.9360352,21.902832 20.1655273,21.5913086 C20.3950195,21.2797852 20.5097656,20.8173828 20.5097656,20.2041016 L20.5097656,20.2041016 L20.5097656,19.4658203 C20.5039062,18.8701172 20.3862305,18.4228516 20.1567383,18.1240234 C19.9272461,17.8251953 19.5791016,17.6757812 19.1123047,17.6757812 C18.6416016,17.6757812 18.2915039,17.8291016 18.0620117,18.1357422 C17.8325195,18.4423828 17.7177734,18.9023438 17.7177734,19.515625 L17.7177734,19.515625 L17.7177734,20.2539062 C17.7236328,20.8496094 17.8432617,21.2993164 18.0766602,21.6030273 C18.3100586,21.9067383 18.6572266,22.0585938 19.1181641,22.0585938 Z M19.1181641,21.4902344 C18.8798828,21.4902344 18.7050781,21.3925781 18.59375,21.1972656 C18.4824219,21.0019531 18.4267578,20.7050781 18.4267578,20.3066406 L18.4267578,20.3066406 L18.4267578,19.3398438 C18.4326172,18.9648438 18.4902344,18.6889648 18.5996094,18.512207 C18.7089844,18.3354492 18.8798828,18.2470703 19.1123047,18.2470703 C19.3505859,18.2470703 19.5244141,18.340332 19.6337891,18.5268555 C19.7431641,18.7133789 19.7978516,19.0068359 19.7978516,19.4072266 L19.7978516,19.4072266 L19.7978516,20.3710938 C19.7919922,20.7558594 19.734375,21.0385742 19.625,21.2192383 C19.515625,21.3999023 19.3466797,21.4902344 19.1181641,21.4902344 Z"/>
    </g>
    <g transform="translate(224 184)">
      <circle cx="13" cy="13" r="13.2" stroke="#000000" stroke-opacity=".12" stroke-width=".4"/>
      <path fill="#000000" fill-opacity=".12" d="M14,-7.10542736e-15 C16.209139,-7.51123961e-15 18,1.790861 18,4 L18.0006957,17.0033832 C16.4613248,17.6454369 14.7720687,18 13,18 C5.82029825,18 0,12.1797017 0,5 C0,3.22821001 0.354451581,1.53920663 0.996313896,3.06986628e-05 L14,-7.10542736e-15 Z" transform="translate(0 8)"/>
      <circle cx="14" cy="12" r="4" fill="#EA475B"/>
      <path fill="#EA475B" fill-rule="nonzero" d="M31.9101562,15.0585938 C32.2949219,15.0585938 32.597168,14.9130859 32.8168945,14.6220703 C33.0366211,14.3310547 33.1464844,13.9394531 33.1464844,13.4472656 L33.1464844,13.4472656 L33.1464844,13.40625 C33.1464844,12.890625 33.0361328,12.4892578 32.8154297,12.2021484 C32.5947266,11.9150391 32.2910156,11.7714844 31.9042969,11.7714844 C31.5566406,11.7714844 31.2802734,11.8925781 31.0751953,12.1347656 L31.0751953,12.1347656 L31.0751953,10.5 L30.3632812,10.5 L30.3632812,15 L31.0078125,15 L31.0429688,14.6572266 C31.25,14.9248047 31.5390625,15.0585938 31.9101562,15.0585938 Z M31.7314453,14.4785156 C31.4208984,14.4785156 31.2021484,14.3408203 31.0751953,14.0654297 L31.0751953,14.0654297 L31.0751953,12.7587891 C31.2001953,12.4892578 31.4169922,12.3544922 31.7255859,12.3544922 C31.9560547,12.3544922 32.1318359,12.4404297 32.2529297,12.6123047 C32.3740234,12.7841797 32.4345703,13.0419922 32.4345703,13.3857422 L32.4345703,13.3857422 L32.4345703,13.4765625 C32.4306641,13.8125 32.3681641,14.0634766 32.2470703,14.2294922 C32.1259766,14.3955078 31.9541016,14.4785156 31.7314453,14.4785156 Z M35.0859375,15.0585938 C35.3789062,15.0585938 35.637207,14.9912109 35.8608398,14.8564453 C36.0844727,14.7216797 36.2563477,14.53125 36.3764648,14.2851562 C36.496582,14.0390625 36.5566406,13.7597656 36.5566406,13.4472656 L36.5566406,13.4472656 L36.5537109,13.2802734 C36.5322266,12.8251953 36.3881836,12.4599609 36.121582,12.1845703 C35.8549805,11.9091797 35.5078125,11.7714844 35.0800781,11.7714844 C34.7910156,11.7714844 34.5351562,11.8383789 34.3125,11.972168 C34.0898438,12.105957 33.9169922,12.2973633 33.7939453,12.5463867 C33.6708984,12.7954102 33.609375,13.0751953 33.609375,13.3857422 L33.609375,13.3857422 L33.609375,13.4208984 C33.609375,13.9169922 33.7436523,14.3139648 34.012207,14.6118164 C34.2807617,14.909668 34.6386719,15.0585938 35.0859375,15.0585938 Z M35.0859375,14.4902344 C34.8457031,14.4902344 34.6582031,14.3979492 34.5234375,14.2133789 C34.3886719,14.0288086 34.3212891,13.7734375 34.3212891,13.4472656 C34.3212891,13.0800781 34.3896484,12.8041992 34.5263672,12.6196289 C34.6630859,12.4350586 34.8476562,12.3427734 35.0800781,12.3427734 C35.3164062,12.3427734 35.503418,12.4365234 35.6411133,12.6240234 C35.7788086,12.8115234 35.8476562,13.0654297 35.8476562,13.3857422 C35.8476562,13.7470703 35.7807617,14.0214844 35.6469727,14.2089844 C35.5131836,14.3964844 35.3261719,14.4902344 35.0859375,14.4902344 Z M37.8691406,15 L37.8691406,12.8320312 C37.9824219,12.5820312 38.2021484,12.4570312 38.5283203,12.4570312 C38.6279297,12.4570312 38.7246094,12.4648438 38.8183594,12.4804688 L38.8183594,12.4804688 L38.8212891,11.8125 C38.7548828,11.7851562 38.6708984,11.7714844 38.5693359,11.7714844 C38.2646484,11.7714844 38.0263672,11.9091797 37.8544922,12.1845703 L37.8544922,12.1845703 L37.8369141,11.8300781 L37.1572266,11.8300781 L37.1572266,15 L37.8691406,15 Z M40.3798828,15.0585938 C40.7353516,15.0585938 41.0195312,14.9296875 41.2324219,14.671875 L41.2324219,14.671875 L41.2675781,15 L41.9121094,15 L41.9121094,10.5 L41.2001953,10.5 L41.2001953,12.1230469 C40.9931641,11.8886719 40.7216797,11.7714844 40.3857422,11.7714844 C40.0048828,11.7714844 39.7011719,11.9194336 39.4746094,12.215332 C39.2480469,12.5112305 39.1347656,12.9033203 39.1347656,13.3916016 C39.1347656,13.9052734 39.2495117,14.3115234 39.4790039,14.6103516 C39.7084961,14.9091797 40.0087891,15.0585938 40.3798828,15.0585938 Z M40.5615234,14.4785156 C40.3330078,14.4785156 40.1567383,14.3881836 40.0327148,14.2075195 C39.9086914,14.0268555 39.8466797,13.7753906 39.8466797,13.453125 C39.8466797,13.0859375 39.9091797,12.8110352 40.0341797,12.628418 C40.1591797,12.4458008 40.3369141,12.3544922 40.5673828,12.3544922 C40.8583984,12.3544922 41.0693359,12.4814453 41.2001953,12.7353516 L41.2001953,12.7353516 L41.2001953,14.0888672 C41.0654297,14.3486328 40.8525391,14.4785156 40.5615234,14.4785156 Z M44.0507812,15.0585938 C44.3144531,15.0585938 44.5522461,15.0063477 44.7641602,14.9018555 C44.9760742,14.7973633 45.1455078,14.6503906 45.2724609,14.4609375 L45.2724609,14.4609375 L44.8886719,14.0947266 C44.6835938,14.3583984 44.4179688,14.4902344 44.0917969,14.4902344 C43.859375,14.4902344 43.6665039,14.4140625 43.5131836,14.2617188 C43.3598633,14.109375 43.2724609,13.9023438 43.2509766,13.640625 L43.2509766,13.640625 L45.3222656,13.640625 L45.3222656,13.3535156 C45.3222656,12.8496094 45.2045898,12.4599609 44.9692383,12.1845703 C44.7338867,11.9091797 44.4003906,11.7714844 43.96875,11.7714844 C43.6972656,11.7714844 43.4511719,11.8408203 43.2304688,11.9794922 C43.0097656,12.1181641 42.8383789,12.3120117 42.7163086,12.5610352 C42.5942383,12.8100586 42.5332031,13.0927734 42.5332031,13.4091797 L42.5332031,13.4091797 L42.5332031,13.4970703 C42.5332031,13.9697266 42.6733398,14.3481445 42.9536133,14.6323242 C43.2338867,14.9165039 43.5996094,15.0585938 44.0507812,15.0585938 Z M44.6191406,13.1191406 L43.2626953,13.1191406 C43.2958984,12.875 43.3725586,12.6845703 43.4926758,12.5478516 C43.612793,12.4111328 43.7705078,12.3427734 43.9658203,12.3427734 C44.1630859,12.3427734 44.3173828,12.4038086 44.4287109,12.5258789 C44.5400391,12.6479492 44.6035156,12.828125 44.6191406,13.0664062 L44.6191406,13.0664062 L44.6191406,13.1191406 Z M46.5849609,15 L46.5849609,12.8320312 C46.6982422,12.5820312 46.9179688,12.4570312 47.2441406,12.4570312 C47.34375,12.4570312 47.4404297,12.4648438 47.5341797,12.4804688 L47.5341797,12.4804688 L47.5371094,11.8125 C47.4707031,11.7851562 47.3867188,11.7714844 47.2851562,11.7714844 C46.9804688,11.7714844 46.7421875,11.9091797 46.5703125,12.1845703 L46.5703125,12.1845703 L46.5527344,11.8300781 L45.8730469,11.8300781 L45.8730469,15 L46.5849609,15 Z M49.3652344,13.4736328 L49.3652344,12.8994141 L47.8271484,12.8994141 L47.8271484,13.4736328 L49.3652344,13.4736328 Z M50.6630859,15 L50.6630859,12.8320312 C50.7763672,12.5820312 50.9960938,12.4570312 51.3222656,12.4570312 C51.421875,12.4570312 51.5185547,12.4648438 51.6123047,12.4804688 L51.6123047,12.4804688 L51.6152344,11.8125 C51.5488281,11.7851562 51.4648438,11.7714844 51.3632812,11.7714844 C51.0585938,11.7714844 50.8203125,11.9091797 50.6484375,12.1845703 L50.6484375,12.1845703 L50.6308594,11.8300781 L49.9511719,11.8300781 L49.9511719,15 L50.6630859,15 Z M53.0419922,15.0585938 C53.3701172,15.0585938 53.6474609,14.9404297 53.8740234,14.7041016 C53.8974609,14.8408203 53.9248047,14.9394531 53.9560547,15 L53.9560547,15 L54.6826172,15 L54.6826172,14.9501953 C54.6025391,14.7802734 54.5625,14.5527344 54.5625,14.2675781 L54.5625,14.2675781 L54.5625,12.8378906 C54.5566406,12.5 54.4433594,12.237793 54.2226562,12.0512695 C54.0019531,11.8647461 53.7060547,11.7714844 53.3349609,11.7714844 C53.0908203,11.7714844 52.8696289,11.8144531 52.6713867,11.9003906 C52.4731445,11.9863281 52.3164062,12.1049805 52.2011719,12.2563477 C52.0859375,12.4077148 52.0283203,12.5703125 52.0283203,12.7441406 L52.0283203,12.7441406 L52.7402344,12.7441406 C52.7402344,12.6191406 52.7919922,12.5161133 52.8955078,12.4350586 C52.9990234,12.3540039 53.1318359,12.3134766 53.2939453,12.3134766 C53.4814453,12.3134766 53.6210938,12.362793 53.7128906,12.4614258 C53.8046875,12.5600586 53.8505859,12.6914062 53.8505859,12.8554688 L53.8505859,12.8554688 L53.8505859,13.0634766 L53.4140625,13.0634766 C52.9472656,13.0634766 52.5883789,13.1538086 52.3374023,13.3344727 C52.0864258,13.5151367 51.9609375,13.7744141 51.9609375,14.1123047 C51.9609375,14.3798828 52.0615234,14.6044922 52.2626953,14.7861328 C52.4638672,14.9677734 52.7236328,15.0585938 53.0419922,15.0585938 Z M53.1738281,14.4873047 C53.0214844,14.4873047 52.8999023,14.4467773 52.809082,14.3657227 C52.7182617,14.284668 52.6728516,14.1757812 52.6728516,14.0390625 C52.6728516,13.8710938 52.7392578,13.7412109 52.8720703,13.6494141 C53.0048828,13.5576172 53.203125,13.5117188 53.4667969,13.5117188 L53.4667969,13.5117188 L53.8505859,13.5117188 L53.8505859,14.109375 C53.7880859,14.2246094 53.6948242,14.3164062 53.5708008,14.3847656 C53.4467773,14.453125 53.3144531,14.4873047 53.1738281,14.4873047 Z M56.4199219,15.0585938 C56.7753906,15.0585938 57.0595703,14.9296875 57.2724609,14.671875 L57.2724609,14.671875 L57.3076172,15 L57.9521484,15 L57.9521484,10.5 L57.2402344,10.5 L57.2402344,12.1230469 C57.0332031,11.8886719 56.7617188,11.7714844 56.4257812,11.7714844 C56.0449219,11.7714844 55.7412109,11.9194336 55.5146484,12.215332 C55.2880859,12.5112305 55.1748047,12.9033203 55.1748047,13.3916016 C55.1748047,13.9052734 55.2895508,14.3115234 55.519043,14.6103516 C55.7485352,14.9091797 56.0488281,15.0585938 56.4199219,15.0585938 Z M56.6015625,14.4785156 C56.3730469,14.4785156 56.1967773,14.3881836 56.0727539,14.2075195 C55.9487305,14.0268555 55.8867188,13.7753906 55.8867188,13.453125 C55.8867188,13.0859375 55.9492188,12.8110352 56.0742188,12.628418 C56.1992188,12.4458008 56.3769531,12.3544922 56.6074219,12.3544922 C56.8984375,12.3544922 57.109375,12.4814453 57.2402344,12.7353516 L57.2402344,12.7353516 L57.2402344,14.0888672 C57.1054688,14.3486328 56.8925781,14.4785156 56.6015625,14.4785156 Z M59.0976562,11.3818359 C59.2265625,11.3818359 59.3261719,11.3461914 59.3964844,11.2749023 C59.4667969,11.2036133 59.5019531,11.1142578 59.5019531,11.0068359 C59.5019531,10.8974609 59.4667969,10.8066406 59.3964844,10.734375 C59.3261719,10.6621094 59.2265625,10.6259766 59.0976562,10.6259766 C58.96875,10.6259766 58.8696289,10.6621094 58.800293,10.734375 C58.730957,10.8066406 58.6962891,10.8974609 58.6962891,11.0068359 C58.6962891,11.1142578 58.730957,11.2036133 58.800293,11.2749023 C58.8696289,11.3461914 58.96875,11.3818359 59.0976562,11.3818359 Z M59.4521484,15 L59.4521484,11.8300781 L58.7402344,11.8300781 L58.7402344,15 L59.4521484,15 Z M61.2568359,15.0585938 C61.6416016,15.0585938 61.9384766,14.9355469 62.1474609,14.6894531 L62.1474609,14.6894531 L62.1650391,15 L62.8359375,15 L62.8359375,11.8300781 L62.1240234,11.8300781 L62.1240234,14.1064453 C62.0029297,14.3544922 61.7695312,14.4785156 61.4238281,14.4785156 C61.0898438,14.4785156 60.9228516,14.2773438 60.9228516,13.875 L60.9228516,13.875 L60.9228516,11.8300781 L60.2109375,11.8300781 L60.2109375,13.8837891 C60.2109375,14.2646484 60.2993164,14.5556641 60.4760742,14.7568359 C60.652832,14.9580078 60.9130859,15.0585938 61.2568359,15.0585938 Z M64.7548828,15.0585938 C65.1376953,15.0585938 65.4472656,14.9702148 65.6835938,14.793457 C65.9199219,14.6166992 66.0380859,14.3857422 66.0380859,14.1005859 C66.0380859,13.9306641 65.9995117,13.7861328 65.9223633,13.6669922 C65.8452148,13.5478516 65.7270508,13.4458008 65.5678711,13.3608398 C65.4086914,13.2758789 65.1894531,13.2026367 64.9101562,13.1411133 C64.6308594,13.0795898 64.4453125,13.0185547 64.3535156,12.9580078 C64.2617188,12.8974609 64.2158203,12.8125 64.2158203,12.703125 C64.2158203,12.5820312 64.2651367,12.4853516 64.3637695,12.4130859 C64.4624023,12.3408203 64.5898438,12.3046875 64.7460938,12.3046875 C64.9140625,12.3046875 65.0488281,12.3500977 65.1503906,12.440918 C65.2519531,12.5317383 65.3027344,12.6455078 65.3027344,12.7822266 L65.3027344,12.7822266 L66.0146484,12.7822266 C66.0146484,12.4833984 65.8979492,12.2402344 65.6645508,12.0527344 C65.4311523,11.8652344 65.125,11.7714844 64.7460938,11.7714844 C64.390625,11.7714844 64.0976562,11.8632812 63.8671875,12.046875 C63.6367188,12.2304688 63.5214844,12.4589844 63.5214844,12.7324219 C63.5214844,13.0585938 63.6992188,13.3076172 64.0546875,13.4794922 C64.2167969,13.5576172 64.4189453,13.6220703 64.6611328,13.6728516 C64.9033203,13.7236328 65.0766602,13.7822266 65.1811523,13.8486328 C65.2856445,13.9150391 65.3378906,14.0117188 65.3378906,14.1386719 C65.3378906,14.2539062 65.2890625,14.347168 65.1914062,14.418457 C65.09375,14.4897461 64.9511719,14.5253906 64.7636719,14.5253906 C64.5703125,14.5253906 64.4150391,14.4799805 64.2978516,14.3891602 C64.1806641,14.2983398 64.1171875,14.1689453 64.1074219,14.0009766 L64.1074219,14.0009766 L63.4160156,14.0009766 C63.4160156,14.1904297 63.4726562,14.3671875 63.5859375,14.53125 C63.6992188,14.6953125 63.8574219,14.8242188 64.0605469,14.9179688 C64.2636719,15.0117188 64.4951172,15.0585938 64.7548828,15.0585938 Z M67.0869141,12.5449219 C67.2197266,12.5449219 67.3222656,12.5083008 67.3945312,12.4350586 C67.4667969,12.3618164 67.5029297,12.2695312 67.5029297,12.1582031 C67.5029297,12.0449219 67.4667969,11.9506836 67.3945312,11.8754883 C67.3222656,11.800293 67.2197266,11.7626953 67.0869141,11.7626953 C66.9560547,11.7626953 66.8544922,11.800293 66.7822266,11.8754883 C66.7099609,11.9506836 66.6738281,12.0449219 66.6738281,12.1582031 C66.6738281,12.2714844 66.7109375,12.3642578 66.7851562,12.4365234 C66.859375,12.5087891 66.9599609,12.5449219 67.0869141,12.5449219 Z M67.0869141,15.0322266 C67.2197266,15.0322266 67.3222656,14.9956055 67.3945312,14.9223633 C67.4667969,14.8491211 67.5029297,14.7568359 67.5029297,14.6455078 C67.5029297,14.5322266 67.4667969,14.4379883 67.3945312,14.362793 C67.3222656,14.2875977 67.2197266,14.25 67.0869141,14.25 C66.9560547,14.25 66.8544922,14.2875977 66.7822266,14.362793 C66.7099609,14.4379883 66.6738281,14.5322266 66.6738281,14.6455078 C66.6738281,14.7587891 66.7109375,14.8515625 66.7851562,14.9238281 C66.859375,14.9960938 66.9599609,15.0322266 67.0869141,15.0322266 Z M72.1054688,15 L72.1054688,14.0507812 L72.6357422,14.0507812 L72.6357422,13.4794922 L72.1054688,13.4794922 L72.1054688,10.734375 L71.3701172,10.734375 L69.5302734,13.6171875 L69.5507812,14.0507812 L71.3935547,14.0507812 L71.3935547,15 L72.1054688,15 Z M71.3935547,13.4794922 L70.2773438,13.4794922 L71.3408203,11.7919922 L71.3935547,11.6982422 L71.3935547,13.4794922 Z"/>
    </g>
    <g transform="translate(81 57)">
      <g stroke="#EA475B" stroke-linecap="round" stroke-width=".4" transform="translate(0 8)">
        <line x1=".5" x2=".5" y2="2"/>
        <line x1="15.5" x2="15.5" y2="2"/>
        <line x1=".5" x2="15.5" y1="1" y2="1"/>
      </g>
      <path fill="#EA475B" fill-rule="nonzero" d="M6.33691406,6 L6.33691406,1.71972656 L6.24609375,1.71972656 L4.58203125,2.33203125 L4.58203125,2.93261719 L5.62792969,2.57519531 L5.62792969,6 L6.33691406,6 Z M9.27539062,6.05859375 C9.68945312,6.05859375 10.0239258,5.92431641 10.2788086,5.65576172 C10.5336914,5.38720703 10.6611328,5.03613281 10.6611328,4.60253906 C10.6611328,4.18261719 10.5522461,3.83984375 10.3344727,3.57421875 C10.1166992,3.30859375 9.81933594,3.17578125 9.44238281,3.17578125 C9.08691406,3.17578125 8.79492188,3.29589844 8.56640625,3.53613281 C8.61132812,3.14550781 8.75292969,2.84375 8.99121094,2.63085938 C9.22949219,2.41796875 9.54785156,2.30859375 9.94628906,2.30273438 L9.94628906,2.30273438 L10.0341797,2.30273438 L10.0341797,1.71386719 L9.9609375,1.71386719 C9.27734375,1.71386719 8.75341797,1.92578125 8.38916016,2.34960938 C8.02490234,2.7734375 7.84277344,3.359375 7.84277344,4.10742188 L7.84277344,4.10742188 L7.84277344,4.35058594 C7.84277344,4.86035156 7.97509766,5.27246094 8.23974609,5.58691406 C8.50439453,5.90136719 8.84960938,6.05859375 9.27539062,6.05859375 Z M9.26953125,5.484375 C9.05859375,5.484375 8.88671875,5.39111328 8.75390625,5.20458984 C8.62109375,5.01806641 8.5546875,4.76660156 8.5546875,4.45019531 L8.5546875,4.45019531 L8.5546875,4.23339844 C8.61523438,4.08691406 8.71044922,3.96972656 8.84033203,3.88183594 C8.97021484,3.79394531 9.11328125,3.75 9.26953125,3.75 C9.4765625,3.75 9.64257812,3.83105469 9.76757812,3.99316406 C9.89257812,4.15527344 9.95507812,4.36523438 9.95507812,4.62304688 C9.95507812,4.88085938 9.89355469,5.08886719 9.77050781,5.24707031 C9.64746094,5.40527344 9.48046875,5.484375 9.26953125,5.484375 Z"/>
      <rect width="16" height="4" y="10"/>
    </g>
    <line x1=".5" x2=".5" y1="1.548" y2="63.452" stroke="#EA475B" stroke-dasharray="2 2" stroke-linecap="round" stroke-width=".4" transform="translate(96 65)"/>
    <line x1=".5" x2=".5" y1="1.548" y2="63.452" stroke="#EA475B" stroke-dasharray="2 2" stroke-linecap="round" stroke-width=".4" transform="translate(81 65)"/>
  </g>
</svg>
