<svg width="860" height="256" xmlns="http://www.w3.org/2000/svg"><g fill="none" fill-rule="evenodd"><rect fill="none" width="860" height="256" rx="4"/><path fill-opacity=".12" fill="#000000" d="M620 64h1v136h-1z"/><path d="M639.97 100l1.5-4.805 1.542 4.805h.879l1.845-6.34h-1.084l-1.218 4.846-1.506-4.846h-.873l-1.477 4.746-1.248-4.746h-1.078l1.84 6.34h.879zm7.512-7.406c.211 0 .372-.059.48-.176a.62.62 0 00.165-.44.64.64 0 00-.164-.445c-.11-.12-.27-.181-.48-.181-.212 0-.37.06-.478.181a.647.647 0 00-.161.446c0 .175.053.322.16.439.108.117.267.176.478.176zm.534 7.406v-6.34h-1.084V100h1.084zm3.586.117c.27 0 .546-.039.832-.117v-.879c-.22.047-.391.07-.516.07-.254 0-.434-.063-.54-.19-.105-.127-.157-.317-.157-.571v-3.932h1.183v-.838h-1.183v-1.535h-1.084v1.535h-1.155v.838h1.155v3.932c0 .539.123.955.369 1.248.246.293.611.44 1.096.44zm3.152-.117v-4.518a1.91 1.91 0 01.621-.738c.266-.187.574-.281.926-.281.433 0 .753.11.958.328.205.219.31.557.313 1.014V100h1.084v-4.19c-.011-1.511-.687-2.267-2.027-2.267-.77 0-1.395.295-1.875.885V91h-1.084v9h1.084zm8.127.117c.57 0 1.075-.137 1.515-.41.439-.273.777-.655 1.013-1.145.237-.49.355-1.044.355-1.662v-.076c0-.992-.267-1.787-.8-2.385-.533-.597-1.232-.896-2.095-.896-.558 0-1.056.135-1.491.404-.436.27-.775.653-1.02 1.149-.244.496-.366 1.054-.366 1.675v.077c0 .984.267 1.775.8 2.373.533.597 1.23.896 2.089.896zm0-.885c-.547 0-.984-.212-1.31-.638-.326-.426-.489-.99-.489-1.694 0-.793.164-1.402.492-1.828.328-.426.76-.638 1.295-.638.547 0 .985.215 1.316.647.33.432.495.995.495 1.69 0 .778-.162 1.382-.487 1.814-.324.432-.761.647-1.312.647zm6.299.885c.816 0 1.435-.248 1.857-.744l.024.627h1.03v-6.34h-1.083v4.611c-.274.618-.824.926-1.653.926-.78 0-1.171-.48-1.171-1.441V93.66H667.1v4.125c.004.77.182 1.35.536 1.743.353.393.868.59 1.544.59zm6.41 0c.27 0 .547-.039.832-.117v-.879c-.219.047-.39.07-.516.07-.254 0-.433-.063-.539-.19-.105-.127-.158-.317-.158-.571v-3.932h1.184v-.838h-1.184v-1.535h-1.084v1.535h-1.154v.838h1.154v3.932c0 .539.123.955.37 1.248.245.293.61.44 1.095.44zm5.683-7.523c.211 0 .372-.059.48-.176a.62.62 0 00.165-.44.64.64 0 00-.164-.445c-.11-.12-.27-.181-.48-.181-.212 0-.37.06-.478.181a.647.647 0 00-.161.446c0 .175.053.322.16.439.108.117.268.176.478.176zm.534 7.406v-6.34h-1.084V100h1.084zm4.277.117c.43 0 .837-.097 1.222-.293a2.47 2.47 0 00.923-.785c.23-.328.355-.674.375-1.037h-1.026a1.237 1.237 0 01-.48.879c-.29.234-.627.351-1.014.351-.559 0-.988-.197-1.29-.591-.3-.395-.45-.957-.45-1.688v-.205c0-.75.151-1.323.454-1.72.303-.396.73-.594 1.28-.594.41 0 .755.131 1.034.395.28.264.435.6.466 1.01h1.026c-.032-.679-.283-1.232-.753-1.657-.471-.426-1.062-.639-1.773-.639-.578 0-1.079.133-1.503.398a2.588 2.588 0 00-.975 1.12c-.227.48-.34 1.029-.34 1.646v.182c0 1 .255 1.788.764 2.364.51.576 1.197.864 2.06.864zm6.34 0c.57 0 1.075-.137 1.514-.41.44-.273.778-.655 1.014-1.145s.355-1.044.355-1.662v-.076c0-.992-.267-1.787-.8-2.385-.533-.597-1.232-.896-2.095-.896-.558 0-1.056.135-1.491.404-.436.27-.775.653-1.02 1.149-.244.496-.366 1.054-.366 1.675v.077c0 .984.267 1.775.8 2.373.533.597 1.23.896 2.089.896zm0-.885c-.547 0-.984-.212-1.31-.638-.326-.426-.489-.99-.489-1.694 0-.793.164-1.402.492-1.828.328-.426.76-.638 1.295-.638.547 0 .985.215 1.316.647.33.432.495.995.495 1.69 0 .778-.162 1.382-.487 1.814-.324.432-.761.647-1.312.647zm5.326.768v-4.518a1.91 1.91 0 01.621-.738c.266-.187.574-.281.926-.281.433 0 .753.11.958.328.205.219.31.557.313 1.014V100h1.084v-4.19c-.011-1.511-.687-2.267-2.027-2.267-.781 0-1.414.305-1.898.914l-.036-.797h-1.025V100h1.084zM639.97 164l1.5-4.805 1.542 4.805h.879l1.845-6.34h-1.084l-1.218 4.846-1.506-4.846h-.873l-1.477 4.746-1.248-4.746h-1.078l1.84 6.34h.879zm7.512-7.406c.211 0 .372-.059.48-.176a.62.62 0 00.165-.44.64.64 0 00-.164-.445c-.11-.12-.27-.181-.48-.181-.212 0-.37.06-.478.181a.647.647 0 00-.161.446c0 .175.053.322.16.439.108.117.267.176.478.176zm.534 7.406v-6.34h-1.084V164h1.084zm3.586.117c.27 0 .546-.039.832-.117v-.879c-.22.047-.391.07-.516.07-.254 0-.434-.063-.54-.19-.105-.127-.157-.317-.157-.571v-3.932h1.183v-.838h-1.183v-1.535h-1.084v1.535h-1.155v.838h1.155v3.932c0 .539.123.955.369 1.248.246.293.611.44 1.096.44zm3.152-.117v-4.518a1.91 1.91 0 01.621-.738c.266-.187.574-.281.926-.281.433 0 .753.11.958.328.205.219.31.557.313 1.014V164h1.084v-4.19c-.011-1.511-.687-2.267-2.027-2.267-.77 0-1.395.295-1.875.885V155h-1.084v9h1.084zm9.14-7.406c.211 0 .372-.059.481-.176a.62.62 0 00.164-.44.64.64 0 00-.164-.445c-.11-.12-.27-.181-.48-.181-.211 0-.37.06-.478.181a.647.647 0 00-.161.446c0 .175.054.322.161.439.107.117.267.176.478.176zm.534 7.406v-6.34h-1.084V164h1.084zm4.277.117c.43 0 .837-.097 1.222-.293a2.47 2.47 0 00.923-.785c.23-.328.355-.674.375-1.037h-1.026a1.237 1.237 0 01-.48.879c-.29.234-.627.351-1.014.351-.559 0-.988-.197-1.289-.591-.3-.395-.451-.957-.451-1.688v-.205c0-.75.151-1.323.454-1.72.303-.396.73-.594 1.28-.594.41 0 .755.131 1.034.395.28.264.435.6.466 1.01h1.026c-.032-.679-.283-1.232-.753-1.657-.471-.426-1.062-.639-1.773-.639-.578 0-1.079.133-1.503.398a2.588 2.588 0 00-.975 1.12c-.227.48-.34 1.029-.34 1.646v.182c0 1 .255 1.788.765 2.364.51.576 1.196.864 2.06.864zm6.34 0c.57 0 1.075-.137 1.515-.41.439-.273.777-.655 1.013-1.145.237-.49.355-1.044.355-1.662v-.076c0-.992-.267-1.787-.8-2.385-.533-.597-1.232-.896-2.095-.896-.558 0-1.055.135-1.491.404-.436.27-.775.653-1.02 1.149-.244.496-.366 1.054-.366 1.675v.077c0 .984.267 1.775.8 2.373.533.597 1.23.896 2.089.896zm0-.885c-.547 0-.983-.212-1.31-.638-.326-.426-.489-.99-.489-1.694 0-.793.164-1.402.492-1.828.328-.426.76-.638 1.295-.638.547 0 .986.215 1.316.647.33.432.495.995.495 1.69 0 .778-.162 1.382-.487 1.814-.324.432-.761.647-1.312.647zm5.326.768v-4.518a1.91 1.91 0 01.621-.738c.266-.187.574-.281.926-.281.434 0 .753.11.958.328.205.219.31.557.313 1.014V164h1.084v-4.19c-.011-1.511-.687-2.267-2.027-2.267-.781 0-1.414.305-1.898.914l-.035-.797h-1.026V164h1.084z" fill-opacity=".56" fill="#000000" fill-rule="nonzero"/><path fill="none" d="M108 64h488v64H108z"/><path fill="none" d="M108 80h488v48H108z"/><path d="M108 127h488v1H108z" fill="#000000" fill-opacity=".12"/><path d="M587.896 108.209c.547 0 1.03-.098 1.45-.292.42-.195.813-.474 1.18-.835a8.11 8.11 0 001.411.786c.223.083.442.15.658.198.215.049.42.073.615.073.228 0 .446-.035.654-.104a2.236 2.236 0 001.068-.758c.142-.181.256-.383.345-.606.078-.208.137-.424.177-.647.04-.222.059-.452.059-.688a4.183 4.183 0 00-.292-1.527 3.331 3.331 0 00-.369-.682 2.751 2.751 0 00-.518-.557 2.3 2.3 0 00-1.485-.51c-.33 0-.62.065-.87.197-.25.133-.473.304-.668.515a4.004 4.004 0 00-.521.713c-.153.265-.295.531-.425.8-.13.255-.268.51-.414.765a3.622 3.622 0 01-.508.69 2.41 2.41 0 01-.664.497c-.25.127-.545.19-.883.19h-.14v1.782h.14zm5.641-1.809a1.27 1.27 0 01-.306-.042 3.484 3.484 0 01-.605-.188 5.95 5.95 0 01-.588-.278 6.178 6.178 0 01-.47-.278c.177-.353.325-.644.446-.873.12-.23.225-.413.313-.55.088-.137.163-.234.226-.292a.412.412 0 01.191-.108c.07-.014.137-.02.202-.02.135 0 .26.027.376.083.171.088.32.213.445.376.125.162.224.349.296.56.071.21.107.42.107.63v.069c0 .111-.009.213-.027.306a1.302 1.302 0 01-.108.292.721.721 0 01-.146.198.328.328 0 01-.15.087.684.684 0 01-.202.028zm-11.568-6.887l1.085-1.085-1.092-1.092-1.085 1.085 1.092 1.092zm-1.315 2.1l1.183-1.182-1.197-1.196-1.183 1.19 1.197 1.189zm2.63.015l1.182-1.19-1.196-1.19-1.183 1.183 1.196 1.197zm-4.021 6.602c.218 0 .426-.03.626-.087.2-.058.388-.14.567-.244.178-.104.345-.227.5-.369.156-.141.3-.298.435-.47.209.349.49.627.846.836.354.208.75.313 1.186.313.436 0 .834-.11 1.196-.327.362-.218.654-.508.877-.87.13.209.281.389.455.54a2.585 2.585 0 001.19.587c.22.047.444.07.671.07h.223v-1.781h-.258c-.143 0-.295-.03-.455-.09a1.48 1.48 0 01-.449-.272 1.711 1.711 0 01-.57-1.085 35.69 35.69 0 01-.073-.567c-.021-.174-.039-.339-.053-.494a80.602 80.602 0 00-.083-.9l-1.76.138c0 .102.001.182.003.24.003.058.004.11.004.157l.003.15a12.159 12.159 0 01-.028 1.071c-.02.294-.063.562-.128.803s-.159.44-.282.595a.587.587 0 01-.483.233.627.627 0 01-.428-.143.949.949 0 01-.254-.365c-.06-.148-.099-.3-.115-.456a3.981 3.981 0 01-.024-.406c0-.06.002-.121.007-.181.009-.237.032-.472.07-.706.036-.235.085-.49.145-.77l-1.641-.333c-.033.18-.08.39-.14.626a9.119 9.119 0 01-.51 1.46c-.11.242-.23.458-.363.648-.132.19-.274.345-.427.466a.811.811 0 01-.487.188h-.028a.39.39 0 01-.216-.063.505.505 0 01-.167-.188.865.865 0 01-.087-.257 1.536 1.536 0 01-.024-.264v-.063c.01-.255.058-.56.146-.915s.188-.724.3-1.11l-1.705-.48a11.821 11.821 0 01-.484 1.656c-.169.432-.35.771-.542 1.02-.193.248-.395.42-.606.514a1.616 1.616 0 01-.67.143h-.293v1.78h.3c.523 0 .954-.09 1.293-.27.339-.181.624-.476.856-.884a2.102 2.102 0 001.329 1.096c.194.053.396.08.605.08zm-12.035-7.722l1.335-1.336-1.335-1.329-1.329 1.33 1.329 1.335zm-2.532 7.7c.63 0 1.237-.05 1.819-.152a13.165 13.165 0 001.68-.407c.538-.17 1.057-.363 1.558-.581.5-.218.986-.443 1.454-.675.278.58.733 1.027 1.363 1.343.631.315 1.401.473 2.31.473h.278v-1.781h-.278c-.111 0-.263-.007-.456-.021a3.18 3.18 0 01-.598-.104 2.303 2.303 0 01-.588-.25 1.052 1.052 0 01-.417-.46c.171-.079.338-.161.5-.247.163-.086.332-.166.509-.24l.299-1.697c-.311 0-.637-.032-.978-.094a10 10 0 01-1.019-.244c-.338-.1-.668-.213-.988-.34-.32-.128-.614-.257-.883-.387l-.762-.34a10.693 10.693 0 00-.737-.3 5.913 5.913 0 00-.724-.212 3.263 3.263 0 00-.713-.08c-.283 0-.578.064-.887.191-.308.128-.608.3-.9.515a5.214 5.214 0 00-.811.745c-.248.28-.453.574-.616.88l1.392.758.07-.098c.04-.064.1-.144.177-.24.076-.095.169-.198.278-.31.109-.11.232-.214.369-.309.136-.095.282-.174.438-.236a1.3 1.3 0 01.49-.094c.218 0 .442.029.672.087.23.058.457.13.685.216.227.085.454.182.681.288.228.107.45.208.668.303.218.095.43.178.637.25.206.072.404.12.595.143-.469.232-.967.462-1.496.692-.529.23-1.074.436-1.635.62a14.49 14.49 0 01-1.711.444c-.58.114-1.155.17-1.725.17h-1.413v1.782h1.413zm-7.861.133c.436 0 .898-.022 1.388-.066.489-.044.98-.131 1.47-.261a2.8 2.8 0 00.77.156c.308.026.71.039 1.207.039h1.892v-1.781h-1.301a3.172 3.172 0 00.598-1.677v-.125c0-.385-.074-.747-.222-1.085a3.088 3.088 0 00-.707-.974 3.303 3.303 0 00-1.047-.654 3.357 3.357 0 00-1.245-.236c-.338 0-.672.039-1.001.118-.33.079-.649.19-.957.334a6.414 6.414 0 00-.897.511 7.95 7.95 0 00-.832.65 8.268 8.268 0 00-.615.672c-.188.23-.359.453-.512.671a9.263 9.263 0 00-.403.623c-.116.197-.216.374-.3.532a.967.967 0 01-.124-.198 1.606 1.606 0 01-.094-.244 1.986 1.986 0 01-.08-.525c0-.13.005-.248.017-.355a2.186 2.186 0 01.143-.595 5.87 5.87 0 01.132-.31l-1.614-.535c-.093.246-.17.5-.233.762s-.129.518-.198.769c-.07.25-.152.489-.247.716-.095.227-.22.427-.373.598a1.63 1.63 0 01-.57.407c-.227.1-.51.15-.849.15h-.194v1.78h.23c.579 0 1.095-.083 1.547-.25.452-.167.859-.447 1.22-.841.163.204.344.382.543.535.2.153.45.28.748.383.3.102.667.178 1.103.23.436.05.971.076 1.607.076zm.195-1.823c-.126 0-.25-.002-.376-.007-.413-.009-.795-.037-1.148-.083.209-.367.44-.713.696-1.04.255-.327.539-.62.852-.88.313-.26.656-.48 1.03-.661.373-.18.782-.31 1.227-.39a2.331 2.331 0 01.647.007c.228.042.442.115.644.22.201.104.374.238.518.403.144.165.234.354.271.567a1.378 1.378 0 01-.386.769 2.623 2.623 0 01-.796.542c-.32.146-.679.261-1.075.345a8.82 8.82 0 01-1.134.167c-.36.027-.683.041-.97.041zm-6.915 1.69v-1.78h-.313c-.181 0-.34-.019-.477-.056a.69.69 0 01-.522-.508 1.726 1.726 0 01-.052-.445v-.111c0-.144.001-.285.004-.425a800.349 800.349 0 00.014-.873 33.44 33.44 0 00-.004-1.224 46.696 46.696 0 01-.007-.783 36.443 36.443 0 00-.097-2.636c-.033-.44-.07-.855-.111-1.242a12.708 12.708 0 00-.14-.984l-1.746.522c.042.218.08.47.112.754.032.286.06.592.083.919.023.327.043.665.06 1.015.015.35.028.7.038 1.05a81.157 81.157 0 01.027 1.973c0 .492-.004.908-.014 1.249-.009.34-.013.585-.013.734.004.955.25 1.67.737 2.142.487.473 1.201.71 2.143.71h.278zm-12.758-5.885l1.182-1.182-1.196-1.197-1.183 1.19 1.197 1.19zm2.63.014l1.182-1.19-1.197-1.189-1.182 1.183 1.196 1.196zm-1.295 5.872c.204 0 .431-.007.682-.021a15.412 15.412 0 002.111-.244c.378-.07.747-.154 1.106-.254.36-.1.7-.218 1.02-.354.32-.137.6-.296.841-.477.241-.18.431-.382.57-.605.14-.223.21-.47.21-.744 0-.195-.033-.426-.098-.693a9.889 9.889 0 00-.244-.83 16.9 16.9 0 00-.915-2.153c-.071-.138-.114-.206-.128-.206l-1.489.967c.14.236.276.472.41.706.135.234.263.472.383.713s.229.487.324.737.17.51.226.78a6.22 6.22 0 01-1.242.448c-.452.114-.911.203-1.377.268-.466.065-.919.109-1.357.132-.438.023-.831.035-1.179.035-.626 0-1.214-.028-1.763-.084a10.155 10.155 0 01-1.468-.247 4.432 4.432 0 01-1.072-.403c-.285-.16-.478-.344-.58-.553a.707.707 0 01-.063-.306c0-.06.005-.123.014-.188.028-.195.08-.396.156-.605a4.57 4.57 0 01.533-1.03l-1.294-1.085c-.112.209-.223.419-.334.63a6.598 6.598 0 00-.3.65 5 5 0 00-.215.685 3.165 3.165 0 00-.083.734c0 .515.09.961.27 1.34.182.377.427.698.738.963.31.264.677.479 1.1.643.421.165.871.295 1.349.39.478.095.974.161 1.489.198.514.037 1.022.058 1.523.063h.146zm-15.54-9.169l1.335-1.336-1.336-1.328-1.328 1.328 1.328 1.336zm-2.825 9.169c.538 0 1.059-.019 1.562-.056a9.31 9.31 0 001.415-.209c.44-.102.843-.24 1.207-.417.364-.176.677-.404.94-.682.261-.278.466-.612.612-1.002.146-.39.219-.848.219-1.377 0-.31-.032-.639-.094-.984a6.307 6.307 0 00-.275-1.02 5.76 5.76 0 00-.445-.952 3.98 3.98 0 00-.605-.797 2.74 2.74 0 00-.759-.546 2.035 2.035 0 00-.897-.202c-.26 0-.5.048-.724.143a2.247 2.247 0 00-.612.39c-.185.164-.35.355-.494.573a4.15 4.15 0 00-.598 1.454 3.93 3.93 0 00-.076.758c0 .418.082.783.247 1.096.164.313.386.574.664.783.278.208.602.365.97.47a4.26 4.26 0 001.166.156h.71c-.135.097-.337.185-.606.264a7.314 7.314 0 01-.96.202c-.371.056-.782.098-1.231.129-.45.03-.919.045-1.406.045h-.167v1.78h.237zm3.68-4.196h-.125a6.206 6.206 0 01-.929-.056 1.684 1.684 0 01-.445-.117.71.71 0 01-.303-.24.687.687 0 01-.111-.407v-.028c0-.167.035-.336.104-.508.07-.176.16-.334.272-.473.11-.139.227-.245.347-.32a.632.632 0 01.32-.111c.024 0 .047.002.07.007a.78.78 0 01.532.278c.155.172.29.375.404.609.113.234.208.475.285.723.076.249.135.456.177.623a8.876 8.876 0 01-.599.02zm-6.609-2.232l1.336-1.336-1.336-1.328-1.328 1.328 1.328 1.336zm-1.955 6.428c.654 0 1.21-.063 1.667-.188.456-.125.845-.32 1.165-.584.218.227.486.412.803.556.318.144.702.216 1.152.216h.139v-1.781h-.14a.716.716 0 01-.462-.143 1.034 1.034 0 01-.282-.355 1.743 1.743 0 01-.15-.466 5.835 5.835 0 01-.065-.476c-.019-.246-.036-.46-.053-.644a7.46 7.46 0 00-.153-.994 7.807 7.807 0 00-.142-.547l-1.712.48c.121.413.214.758.279 1.034.065.275.097.492.097.65 0 .487-.18.852-.539 1.096-.36.243-.894.365-1.604.365h-.257v1.78h.257zm-6.274 4.535c.315 0 .666-.024 1.054-.073.387-.048.78-.126 1.179-.233a7.87 7.87 0 001.168-.414c.38-.169.72-.375 1.02-.619.299-.243.543-.526.733-.848a2.33 2.33 0 00.314-1.096 2.408 2.408 0 00-.101-.581 1.898 1.898 0 00-.373-.671h1.301v-1.781h-5.523l-.237 1.739c.311.056.624.109.94.16.315.051.633.13.953.236.217.084.422.17.612.261.19.09.356.178.497.261.142.084.253.16.334.226.081.068.122.117.122.15 0 .2-.08.373-.24.522-.16.148-.367.278-.62.39a4.949 4.949 0 01-.845.277c-.31.075-.613.135-.907.181a10.11 10.11 0 01-1.381.126c-.218 0-.475-.006-.769-.018a5.772 5.772 0 01-.897-.108 3.589 3.589 0 01-.866-.288 1.814 1.814 0 01-.682-.567 2.901 2.901 0 01-.46-1.607 8.583 8.583 0 01.191-1.837c.073-.343.171-.715.297-1.116.125-.402.283-.839.473-1.312l-1.433-.66c-.2.477-.367.922-.501 1.335a14.15 14.15 0 00-.33 1.172c-.086.369-.154.72-.202 1.054-.05.334-.087.661-.115.981-.014.167-.021.33-.021.487 0 .594.097 1.125.292 1.593.241.598.6 1.096 1.078 1.492.478.397 1.055.694 1.733.89a7.888 7.888 0 002.212.296zm-17.294-12.208l1.335-1.336-1.335-1.329-1.329 1.329 1.329 1.336zm-2.992 7.673a12.267 12.267 0 002.634-.33c.837-.202 1.64-.45 2.41-.745.77-.295 1.507-.616 2.212-.964.705-.347 1.382-.677 2.031-.987l.147-1.795a4.372 4.372 0 01-1.114-.157c-.361-.1-.72-.222-1.074-.368a20.271 20.271 0 01-1.054-.47 24.026 24.026 0 00-1.04-.47 8.11 8.11 0 00-1.047-.361 4.07 4.07 0 00-1.065-.143c-.347 0-.677.062-.987.184-.311.123-.6.288-.866.494-.267.207-.51.441-.727.703a5.536 5.536 0 00-.564.81l1.447.94.097-.167a3.868 3.868 0 01.428-.577c.095-.107.203-.205.324-.293.12-.088.251-.161.393-.22a1.19 1.19 0 01.455-.086c.279 0 .56.051.842.153.283.102.578.223.884.362.306.139.63.281.974.428.343.146.714.263 1.113.35-.501.247-1.032.486-1.593.717-.562.232-1.137.437-1.726.616s-1.181.322-1.777.431a9.751 9.751 0 01-1.757.164h-1.51v1.78h1.51zm-7.763 4.87a9.32 9.32 0 002.01-.571c.645-.265 1.23-.6 1.757-1.009a6.319 6.319 0 001.353-1.436 5.39 5.39 0 00.8-1.854h.612v-1.781h-.466a6.415 6.415 0 00-.136-1.02 6.709 6.709 0 00-.281-.956 5.681 5.681 0 00-.41-.862 4.53 4.53 0 00-.53-.73c-.593-.64-1.25-.96-1.968-.96-.278 0-.538.052-.78.16a2.417 2.417 0 00-.66.434c-.2.183-.376.394-.529.633a4.319 4.319 0 00-.386.758c-.104.267-.184.54-.24.818a4.08 4.08 0 00-.083.8c0 .398.053.742.16 1.03.106.287.256.531.448.733.193.202.422.364.689.487.267.123.559.218.877.285.317.068.655.113 1.012.136.357.023.723.035 1.099.035-.084.315-.252.63-.505.946-.252.315-.58.612-.984.89-.403.278-.88.53-1.43.755a9.971 9.971 0 01-1.846.54l.417 1.738zm4.445-6.651h-.34c-.121 0-.243-.002-.366-.007a20.238 20.238 0 00-.358-.01 4.298 4.298 0 01-.32-.018 3.885 3.885 0 01-.532-.08 1.76 1.76 0 01-.48-.177 1.027 1.027 0 01-.348-.313.832.832 0 01-.136-.487c0-.186.038-.376.115-.57.077-.196.173-.373.289-.533.116-.16.243-.291.382-.393.14-.102.27-.153.39-.153.13 0 .26.044.39.132.13.088.256.205.379.351.122.147.237.313.344.501a5.096 5.096 0 01.49 1.197c.054.202.087.388.101.56zm-8.932 1.857c.478 0 .916-.072 1.315-.215a2.95 2.95 0 001.148-.72c.301-.313.495-.632.58-.957a3.35 3.35 0 00.13-.835c0-.24-.03-.494-.091-.758a5.22 5.22 0 00-.553-1.363 8.755 8.755 0 00-.912-1.298c-.35-.415-.732-.806-1.147-1.172a13.07 13.07 0 00-1.263-.988l-1.037 1.538c.223.139.463.31.72.51.258.203.514.423.77.662.254.239.5.488.737.748.236.26.445.518.626.775.18.258.323.503.427.738.105.234.157.444.157.63v.02a.648.648 0 01-.104.351.802.802 0 01-.254.237 1.365 1.365 0 01-.352.146c-.13.035-.26.06-.39.076-.129.017-.252.027-.368.032a3.023 3.023 0 01-.97-.083 8.136 8.136 0 01-1.558-.543 5.801 5.801 0 01-.637-.341l-.737 1.704a7.986 7.986 0 001.659.772c.303.102.613.182.928.24.316.058.626.087.933.087.083.005.164.007.243.007zm-9.551 4.974c.412-.204.82-.433 1.224-.689.404-.255.786-.53 1.148-.827.362-.297.697-.613 1.005-.946.309-.334.575-.686.8-1.054.225-.37.401-.752.529-1.148.127-.397.191-.804.191-1.221 0-.306-.025-.62-.076-.943a11.254 11.254 0 00-.199-.97 16.92 16.92 0 00-.271-.964l-.289-.914-1.746.563c.06.204.136.438.226.703.09.264.179.539.265.824.085.285.159.574.219.866.06.292.09.57.09.835 0 .283-.05.563-.153.842-.102.278-.242.55-.42.814-.18.264-.393.519-.64.765-.249.246-.518.48-.808.702-.29.223-.594.433-.914.63-.32.197-.645.377-.974.54l.793 1.592zm-6.442-.18a9.3 9.3 0 001.572-.4c.51-.18.99-.4 1.44-.665.45-.264.863-.572 1.238-.922a5.72 5.72 0 001.603-2.609c.152-.517.227-1.072.227-1.666a6.76 6.76 0 00-.365-2.194 5.813 5.813 0 00-.432-.96 4.51 4.51 0 00-.573-.804c-.594-.64-1.25-.96-1.97-.96-.277 0-.537.053-.778.16a2.417 2.417 0 00-.661.435c-.2.183-.376.394-.529.633a4.319 4.319 0 00-.386.758c-.104.267-.184.54-.24.818a4.08 4.08 0 00-.083.8c0 .398.053.742.16 1.03.106.287.256.531.448.733.193.202.422.364.689.487.267.123.559.218.877.285.317.068.655.113 1.012.136.357.023.723.035 1.099.035-.084.315-.252.63-.505.946-.252.315-.58.612-.984.89-.403.278-.88.53-1.43.755a9.971 9.971 0 01-1.846.54l.417 1.738zm4.445-6.651c-.106 0-.22-.001-.34-.004l-.366-.007a16.986 16.986 0 01-.678-.024 4.796 4.796 0 01-.532-.087 1.76 1.76 0 01-.48-.177 1.041 1.041 0 01-.348-.31.816.816 0 01-.136-.483c0-.186.038-.376.115-.57.077-.196.173-.373.289-.533.116-.16.243-.291.382-.393.14-.102.27-.153.39-.153.13 0 .26.044.39.132.13.088.256.205.379.351.122.147.237.313.344.501a5.096 5.096 0 01.49 1.197c.054.202.087.388.101.56z" fill-opacity=".87" fill="#000000" fill-rule="nonzero"/><g><path fill="none" d="M108 128h488v64H108z"/><path fill="none" d="M108 144h488v48H108z"/><path d="M108 191h488v1H108z" fill="#000000" fill-opacity=".12"/><path d="M551.548 161.704a2.16 2.16 0 00.059-.236c.02-.102.052-.202.094-.3a.774.774 0 01.174-.253.427.427 0 01.292-.115h.056c.153 0 .299.019.438.056.148.046.294.097.438.153.144.055.289.105.435.15.146.043.303.065.47.065h.048c.186-.004.362-.037.529-.097.167-.06.322-.136.466-.226.144-.09.274-.188.39-.292a3.545 3.545 0 00.486-.532.794.794 0 00.077-.119l-.953-.612c-.135.176-.26.318-.38.424a.942.942 0 01-.33.21.926.926 0 01-.452.034 2.29 2.29 0 01-.528-.16 4.243 4.243 0 00-.477-.174 2.015 2.015 0 00-.58-.077c-.214 0-.422.048-.623.143a2.034 2.034 0 00-.554.386c-.166.162-.31.35-.43.564-.121.213-.203.436-.244.667l1.099.341zm.967 10.456l1.822-.271c.024-.622.039-1.27.046-1.945a176.555 176.555 0 00.003-3.481 33.525 33.525 0 00-.083-2.188 30.902 30.902 0 00-.223-2.105l-1.788.564c.116 1.118.214 2.61.292 4.48a38.339 38.339 0 01.028 2.282c-.014.82-.046 1.709-.097 2.664zm-6.414.049c.524 0 1.017-.054 1.478-.16a3.566 3.566 0 001.21-.512c.346-.234.619-.539.818-.914.2-.376.3-.833.3-1.37 0-.302-.029-.61-.084-.926a9.08 9.08 0 00-.22-.943c-.09-.313-.193-.618-.31-.914a22.29 22.29 0 00-.347-.842l-1.607.793a11.492 11.492 0 01.856 2.337c.05.218.076.388.076.508 0 .255-.07.46-.212.612-.141.153-.32.27-.536.352a2.78 2.78 0 01-.702.16 7.06 7.06 0 01-.706.038h-1.482v1.78h1.468zm.028 3.554l1.182-1.182-1.196-1.197-1.183 1.19 1.197 1.19zm2.63.014l1.182-1.19-1.197-1.189-1.182 1.183 1.196 1.196zm-1.322 1.9l1.085-1.086-1.085-1.092-1.093 1.085 1.093 1.093zm-8.592-14.164l1.085-1.085-1.092-1.092-1.085 1.085 1.092 1.092zm-1.315 2.1l1.183-1.182-1.196-1.196-1.183 1.19 1.196 1.189zm2.63.015l1.183-1.19-1.197-1.19-1.183 1.183 1.197 1.197zm-4.02 6.602c.217 0 .426-.03.625-.087.2-.058.389-.14.567-.244.179-.104.346-.227.501-.369.155-.141.3-.298.435-.47.209.349.49.627.845.836.355.208.75.313 1.186.313.436 0 .835-.11 1.197-.327.361-.218.654-.508.876-.87.13.209.282.389.456.54a2.585 2.585 0 001.19.587c.22.047.443.07.67.07h.223v-1.781h-.257c-.144 0-.296-.03-.456-.09a1.48 1.48 0 01-.448-.272 1.711 1.711 0 01-.57-1.085 35.689 35.689 0 01-.074-.567c-.02-.174-.038-.339-.052-.494a80.602 80.602 0 00-.084-.9l-1.76.138c0 .102.002.182.004.24l.003.157c0 .046.002.096.004.15a12.158 12.158 0 01-.028 1.071c-.02.294-.064.562-.129.803s-.158.44-.281.595a.587.587 0 01-.484.233.627.627 0 01-.428-.143.949.949 0 01-.254-.365c-.06-.148-.098-.3-.114-.456a3.981 3.981 0 01-.025-.406c0-.06.003-.121.007-.181.01-.237.033-.472.07-.706.037-.235.086-.49.146-.77l-1.642-.333a9.119 9.119 0 01-.65 2.087c-.11.241-.23.457-.362.647-.132.19-.275.345-.428.466a.811.811 0 01-.487.188h-.028a.39.39 0 01-.215-.063.505.505 0 01-.167-.188.865.865 0 01-.087-.257 1.536 1.536 0 01-.025-.264v-.063c.01-.255.058-.56.147-.915.088-.355.187-.724.299-1.11l-1.705-.48a11.821 11.821 0 01-.483 1.656c-.17.432-.35.771-.543 1.02-.192.248-.394.42-.605.514a1.616 1.616 0 01-.671.143h-.292v1.78h.299c.524 0 .955-.09 1.294-.27.338-.181.623-.476.855-.884a2.102 2.102 0 001.329 1.096c.195.053.396.08.605.08zm-10.804-3.395l1.335-1.336-1.335-1.329-1.329 1.33 1.329 1.335zm-.23 8.16c.677 0 1.287-.066 1.83-.198a5.498 5.498 0 001.43-.55 4.246 4.246 0 001.76-1.875c.178-.375.3-.748.364-1.116.065-.369.098-.72.098-1.054a5.03 5.03 0 00-.007-.265c.148.084.325.15.529.199.204.048.43.073.681.073h.23v-1.781h-.23c-.143 0-.293-.01-.448-.028a1.134 1.134 0 01-.477-.184 2.068 2.068 0 01-.497-.487c-.17-.22-.342-.532-.519-.936a52.134 52.134 0 01-.33-.79 5.519 5.519 0 00-.15-.35l-1.634.91c.004 0 .037.06.097.181.06.12.135.28.223.48a16.107 16.107 0 01.563 1.475c.088.27.164.535.226.797.063.262.099.5.108.713v.118c0 .241-.035.473-.104.696-.088.26-.214.5-.376.723-.162.223-.36.424-.591.605-.232.181-.49.335-.772.463-.283.127-.581.223-.894.285a4.865 4.865 0 01-.957.094h-.07a4.002 4.002 0 01-1.241-.22 3.356 3.356 0 01-1.033-.57 2.734 2.734 0 01-.706-.873 2.43 2.43 0 01-.261-1.127c0-.347.04-.693.122-1.036.08-.343.177-.663.288-.96.112-.297.229-.559.352-.786a5 5 0 01.31-.515l-1.371-.995a7.66 7.66 0 00-1.294 4.25c0 .72.113 1.365.34 1.938.228.573.55 1.059.964 1.458.415.398.915.704 1.5.918.584.213 1.233.32 1.947.32zm-9.475-4.765a7.484 7.484 0 001.172-.111c.211-.038.413-.084.606-.14.192-.056.356-.123.49-.202a3.05 3.05 0 00.957-.883c.243-.353.395-.673.455-.96.06-.288.09-.524.09-.71a2.833 2.833 0 00-.66-1.816 3.863 3.863 0 00-.574-.577 5.398 5.398 0 00-.689-.466 9.973 9.973 0 00-.88-.445l-1.14-.515a24.978 24.978 0 01-.675-.313 103.367 103.367 0 01-2.025-1.002l-.126-.062-.305-.15a.902.902 0 00-.195-.08l-1.036 1.69c.143.08.249.135.316.168.067.032.12.053.157.062-.218.144-.41.313-.574.508a3.067 3.067 0 00-.414.633 3.19 3.19 0 00-.25.72 3.533 3.533 0 00.08 1.826c.108.348.277.668.504.96a94.001 94.001 0 00-.772.045 7.4 7.4 0 01-.33.014c-.114.003-.252.004-.415.004h-.132v1.78h.132c.7 0 1.354-.035 1.962-.107a8.48 8.48 0 001.565-.317c.181.08.387.146.62.202a8.616 8.616 0 001.436.22c.239.015.456.024.65.024zm-2.692-2.282a1.108 1.108 0 01-.39-.212c-.12-.1-.228-.216-.323-.348a2.076 2.076 0 01-.236-.428 1.775 1.775 0 01-.122-.452 1.629 1.629 0 01.083-.66 2.17 2.17 0 01.317-.62c.137-.186.284-.328.442-.428a.85.85 0 01.452-.15c.037 0 .074.003.111.007.125.019.264.064.417.136.153.072.294.17.421.292.128.123.224.26.289.41.065.151.097.303.097.456a2.462 2.462 0 01-.216.936 1.98 1.98 0 01-.35.525 1.68 1.68 0 01-.46.345 2.28 2.28 0 01-.532.19zm2.887.522a3.46 3.46 0 01-.445-.028c.278-.348.488-.732.63-1.152a3.994 3.994 0 00.205-1.53 3.932 3.932 0 00-.021-.247c.236.111.459.235.668.372.208.137.39.28.542.432.153.15.275.304.365.462.09.158.136.31.136.46a.797.797 0 01-.16.472 1.443 1.443 0 01-.438.39c-.186.111-.405.2-.658.268-.252.067-.527.1-.824.1zm-6.282 1.739v-1.781h-.313c-.18 0-.34-.019-.476-.056a.69.69 0 01-.522-.508 1.726 1.726 0 01-.052-.445v-.111c0-.144.001-.285.003-.425l.004-.21.003-.214.007-.449a33.426 33.426 0 00-.003-1.224 46.685 46.685 0 01-.007-.783 36.443 36.443 0 00-.098-2.636c-.032-.44-.07-.855-.11-1.242a12.708 12.708 0 00-.14-.984l-1.746.522c.042.218.079.47.111.754.033.286.06.592.084.919a52.975 52.975 0 01.097 2.066 81.176 81.176 0 01.028 1.972v.286c-.002.369-.007.69-.014.963-.01.34-.014.585-.014.734.005.955.25 1.67.737 2.142.487.473 1.202.71 2.143.71h.278zm-11.283 4.89c.403 0 .828-.023 1.273-.07a9.181 9.181 0 001.322-.236 7.349 7.349 0 001.252-.442 4.339 4.339 0 001.064-.685c.31-.274.564-.597.758-.97.195-.374.307-.804.334-1.29a1.33 1.33 0 00.007-.133c0-.306-.058-.563-.174-.772a1.63 1.63 0 00-.542-.574 2.95 2.95 0 00-.765-.344 15.09 15.09 0 00-.842-.223c-.227-.06-.445-.112-.654-.157a2.724 2.724 0 01-.553-.173 1.048 1.048 0 01-.383-.279c-.095-.113-.142-.27-.142-.47 0-.175.038-.358.114-.545.077-.188.178-.371.303-.55.125-.178.27-.348.435-.508.164-.16.336-.301.515-.424.178-.123.358-.224.539-.303.18-.079.35-.125.508-.139a2.562 2.562 0 01.786-.02c.26.036.51.108.751.215l.633-1.67a3.436 3.436 0 00-.595-.25 3.363 3.363 0 00-.584-.132 4.04 4.04 0 00-.504-.035c-.06 0-.121.002-.181.007-.218.01-.432.037-.64.083-.51.112-.981.309-1.413.592a4.936 4.936 0 00-1.899 2.337c-.19.482-.296.979-.32 1.489 0 .464.07.849.209 1.155.14.306.332.558.577.758.246.2.536.36.87.483.334.123.696.233 1.085.33.14.038.284.074.435.109.15.034.289.07.414.104.125.035.23.07.313.108.083.037.127.076.132.118-.028.209-.159.412-.393.609s-.547.374-.939.532a7.061 7.061 0 01-1.384.379 9.778 9.778 0 01-1.722.143 5.382 5.382 0 01-1.461-.188 3.138 3.138 0 01-1.137-.567 2.098 2.098 0 01-.661-.87 2.69 2.69 0 01-.192-.984c0-.144.01-.292.028-.445.042-.33.092-.641.15-.936.058-.294.124-.588.198-.88.074-.292.158-.59.25-.894.093-.304.195-.63.307-.977l-1.53-.62c-.01.02-.038.091-.084.216-.047.126-.102.288-.167.487-.065.2-.137.432-.216.696a20.239 20.239 0 00-.438 1.753c-.065.315-.116.626-.153.932a6.524 6.524 0 00-.056.835c0 .505.07.967.209 1.384.209.64.545 1.175 1.009 1.604.463.429 1.033.752 1.707.97.675.218 1.42.327 2.237.327zm-17.058-12.563l1.336-1.336-1.336-1.329-1.328 1.329 1.328 1.336zm-2.99 7.673a12.267 12.267 0 002.632-.33c.837-.202 1.64-.45 2.41-.745.77-.295 1.508-.616 2.213-.964.705-.347 1.382-.677 2.031-.987l.146-1.795a4.372 4.372 0 01-1.113-.157c-.362-.1-.72-.222-1.075-.368a20.272 20.272 0 01-1.054-.47 24.026 24.026 0 00-1.04-.47 8.11 8.11 0 00-1.046-.361 4.07 4.07 0 00-1.065-.143c-.348 0-.677.062-.988.184-.31.123-.6.288-.866.494-.266.207-.509.441-.727.703a5.536 5.536 0 00-.563.81l1.447.94c.018-.033.05-.089.097-.167a3.868 3.868 0 01.428-.577c.095-.107.203-.205.323-.293.121-.088.252-.161.394-.22a1.19 1.19 0 01.455-.086c.278 0 .559.051.842.153.283.102.577.223.883.362.306.139.631.281.974.428.343.146.715.263 1.113.35-.5.247-1.032.486-1.593.717-.56.232-1.136.437-1.725.616-.589.179-1.181.322-1.777.431a9.751 9.751 0 01-1.757.164h-1.51v1.78h1.51zm-7.764 4.87a9.32 9.32 0 002.01-.571c.645-.265 1.23-.6 1.757-1.009a6.319 6.319 0 001.353-1.436 5.39 5.39 0 00.8-1.854h.612v-1.781h-.466a6.415 6.415 0 00-.136-1.02 6.709 6.709 0 00-.282-.956 5.681 5.681 0 00-.41-.862 4.53 4.53 0 00-.529-.73c-.593-.64-1.25-.96-1.968-.96-.279 0-.538.052-.78.16a2.417 2.417 0 00-.66.434c-.2.183-.376.394-.53.633a4.318 4.318 0 00-.385.758c-.105.267-.185.54-.24.818a4.08 4.08 0 00-.084.8c0 .398.054.742.16 1.03.107.287.257.531.449.733.192.202.422.364.689.487.266.123.559.218.876.285.318.068.655.113 1.012.136.357.023.724.035 1.1.035-.084.315-.252.63-.505.946-.253.315-.58.612-.984.89s-.88.53-1.43.755a9.971 9.971 0 01-1.847.54l.418 1.738zm4.445-6.651h-.341c-.12 0-.242-.002-.365-.007a20.238 20.238 0 00-.358-.01 4.298 4.298 0 01-.32-.018 3.885 3.885 0 01-.533-.08 1.76 1.76 0 01-.48-.177 1.027 1.027 0 01-.347-.313.832.832 0 01-.136-.487c0-.186.038-.376.115-.57.076-.196.172-.373.288-.533.116-.16.244-.291.383-.393.14-.102.269-.153.39-.153.13 0 .26.044.39.132.129.088.255.205.378.351.123.147.238.313.345.501a5.097 5.097 0 01.49 1.197c.053.202.087.388.1.56zm-8.932 1.857c.477 0 .916-.072 1.315-.215a2.95 2.95 0 001.147-.72c.302-.313.495-.632.581-.957a3.35 3.35 0 00.129-.835c0-.24-.03-.494-.09-.758a5.22 5.22 0 00-.554-1.363 8.755 8.755 0 00-.91-1.298c-.351-.415-.734-.806-1.149-1.172a13.07 13.07 0 00-1.262-.988l-1.037 1.538c.223.139.463.31.72.51.258.203.514.423.769.662.255.239.5.488.737.748s.445.518.626.775c.181.258.324.503.428.738.105.234.157.444.157.63v.02a.648.648 0 01-.105.351.802.802 0 01-.254.237 1.365 1.365 0 01-.35.146c-.13.035-.26.06-.39.076-.13.017-.253.027-.37.032a3.023 3.023 0 01-.97-.083 8.136 8.136 0 01-1.558-.543 5.801 5.801 0 01-.636-.341l-.738 1.704a7.986 7.986 0 001.66.772c.303.102.613.182.928.24.315.058.626.087.932.087.084.005.165.007.244.007zm-9.552 4.974c.413-.204.821-.433 1.225-.689.403-.255.786-.53 1.148-.827.361-.297.696-.613 1.005-.946.308-.334.575-.686.8-1.054.225-.37.401-.752.529-1.148.127-.397.19-.804.19-1.221 0-.306-.025-.62-.076-.943a11.254 11.254 0 00-.198-.97 16.92 16.92 0 00-.271-.964l-.289-.914-1.746.563c.06.204.136.438.226.703.09.264.179.539.264.824.086.285.16.574.22.866.06.292.09.57.09.835 0 .283-.051.563-.153.842-.102.278-.242.55-.421.814-.179.264-.392.519-.64.765s-.517.48-.807.702c-.29.223-.595.433-.915.63-.32.197-.644.377-.974.54l.793 1.592zm-6.441-.18a9.3 9.3 0 001.572-.4c.51-.18.99-.4 1.44-.665.45-.264.862-.572 1.238-.922a5.72 5.72 0 001.603-2.609c.151-.517.227-1.072.227-1.666a6.76 6.76 0 00-.366-2.194 5.813 5.813 0 00-.43-.96 4.51 4.51 0 00-.575-.804c-.593-.64-1.25-.96-1.968-.96-.279 0-.538.053-.78.16a2.417 2.417 0 00-.66.435c-.2.183-.376.394-.53.633a4.318 4.318 0 00-.385.758c-.105.267-.185.54-.24.818a4.08 4.08 0 00-.084.8c0 .398.054.742.16 1.03.107.287.257.531.449.733.192.202.422.364.689.487.266.123.559.218.876.285.318.068.655.113 1.012.136.357.023.724.035 1.1.035-.084.315-.252.63-.505.946-.253.315-.58.612-.984.89s-.88.53-1.43.755a9.971 9.971 0 01-1.847.54l.418 1.738zm4.445-6.651c-.107 0-.22-.001-.341-.004l-.365-.007a16.986 16.986 0 01-.678-.024 4.796 4.796 0 01-.533-.087 1.76 1.76 0 01-.48-.177 1.041 1.041 0 01-.347-.31.816.816 0 01-.136-.483c0-.186.038-.376.115-.57.076-.196.172-.373.288-.533.116-.16.244-.291.383-.393.14-.102.269-.153.39-.153.13 0 .26.044.39.132.129.088.255.205.378.351.123.147.238.313.345.501a5.097 5.097 0 01.49 1.197c.053.202.087.388.1.56z" fill-opacity=".87" fill="#000000" fill-rule="nonzero"/><path fill="none" d="M572 180h24v-24h-24z"/><path fill="none" d="M572 180h24v-24h-24z"/><path d="M589.975 163.488a1 1 0 01.959 1.284l-1.008 3.398a.996.996 0 01-1.243.673 1 1 0 01-.675-1.243l.627-2.112h-1.576l-1.053 3.518 7.118 4.378a1 1 0 11-1.047 1.704l-3.706-2.28-.093.294a1.994 1.994 0 01-1.908 1.398h-3.4l-1.419 4.313a1.002 1.002 0 01-1.263.637 1 1 0 01-.638-1.262l1.419-4.313a1.997 1.997 0 011.901-1.375h3.4l.244-.772-2.31-1.42-.01-.01a.954.954 0 01-.259-.242.443.443 0 01-.028-.033.964.964 0 01-.127-.281c-.009-.028-.021-.054-.027-.084a.99.99 0 01-.009-.244c.002-.055.003-.108.014-.163.005-.023-.001-.046.006-.07l1.279-4.267a1.987 1.987 0 011.916-1.426zm-10.577-6.988c2.757 0 5 2.243 5 5s-2.243 5-5 5-5-2.243-5-5 2.243-5 5-5zm0 2c-1.654 0-3 1.346-3 3s1.346 3 3 3 3-1.346 3-3-1.346-3-3-3zm9.703-2c1.654 0 3 1.346 3 3s-1.346 3-3 3-3-1.346-3-3 1.346-3 3-3zm0 2a1.001 1.001 0 000 2 1.001 1.001 0 000-2z" fill-opacity=".56" fill="#000000"/></g></g></svg>