<svg xmlns="http://www.w3.org/2000/svg" xmlns:xlink="http://www.w3.org/1999/xlink" width="422" height="202" viewBox="0 0 422 202">
  <defs>
    <rect id="variation_1-a" width="422" height="202" x="0" y="0" rx="4"/>
    <rect id="variation_1-d" width="390" height="170" x="16" y="16" rx="4"/>
    <filter id="variation_1-c" width="113.3%" height="130.6%" x="-6.7%" y="-12.9%" filterUnits="objectBoundingBox">
      <feOffset dy="4" in="SourceAlpha" result="shadowOffsetOuter1"/>
      <feGaussianBlur in="shadowOffsetOuter1" result="shadowBlurOuter1" stdDeviation="8"/>
      <feColorMatrix in="shadowBlurOuter1" values="0 0 0 0 0   0 0 0 0 0   0 0 0 0 0  0 0 0 0.12 0"/>
    </filter>
    <filter id="variation_1-e" width="190%" height="160%" x="-45%" y="-30%" filterUnits="objectBoundingBox">
      <feOffset dy="1" in="SourceAlpha" result="shadowOffsetOuter1"/>
      <feGaussianBlur in="shadowOffsetOuter1" result="shadowBlurOuter1" stdDeviation=".9"/>
      <feColorMatrix in="shadowBlurOuter1" result="shadowMatrixOuter1" values="0 0 0 0 0   0 0 0 0 0   0 0 0 0 0  0 0 0 0.65 0"/>
      <feMerge>
        <feMergeNode in="shadowMatrixOuter1"/>
        <feMergeNode in="SourceGraphic"/>
      </feMerge>
    </filter>
    <filter id="variation_1-f" width="151.9%" height="183.3%" x="-26%" y="-41.7%" filterUnits="objectBoundingBox">
      <feOffset dy="2" in="SourceAlpha" result="shadowOffsetOuter1"/>
      <feGaussianBlur in="shadowOffsetOuter1" result="shadowBlurOuter1" stdDeviation="4"/>
      <feColorMatrix in="shadowBlurOuter1" result="shadowMatrixOuter1" values="0 0 0 0 0   0 0 0 0 0   0 0 0 0 0  0 0 0 0.16 0"/>
      <feMerge>
        <feMergeNode in="shadowMatrixOuter1"/>
        <feMergeNode in="SourceGraphic"/>
      </feMerge>
    </filter>
    <style>
            @keyframes mouse_move {
	0% {
     transform: translate(170px, 140px);
 	}
     	10% {
     transform: translate(170px, 140px);
 	}
  	30% {
     transform: translate(206px, 110px);
 	}
     	70% {
     transform: translate(206px, 110px);
 	}
  100% {
     transform: translate(170px, 140px);
 	}
}
           @keyframes button_base {
	0% {
fill: #000000;
fill-opacity:0;
 	}
  	25% {
fill: #000000;
fill-opacity:0;
 	}
  	29% {
fill: #000000;
fill-opacity:.04;
 	}
        	74% {
fill: #000000;
fill-opacity:.04;
 	}
     	78% {
fill: #000000;
fill-opacity:0;
 	}
  100% {
fill: #000000;
fill-opacity:0;
 	}
}
           @keyframes button_icon {
	0% {
fill: #000000;
fill-opacity:0.56;
 	}
  	25% {
fill: #000000;
fill-opacity:0.56;
 	}
  	29% {
fill: #000000;
fill-opacity:.87;
 	}
        	74% {
fill: #000000;
fill-opacity:.87;
 	}
     	78% {
fill: #000000;
fill-opacity:0.56;
 	}
  100% {
fill: #000000;
fill-opacity:0.56;
 	}
}
           @keyframes tooltip {
	0% {
transform: translate(172px, 41px);
opacity:0
 	}
  	25% {
transform: translate(172px, 41px);
opacity:0
 	}
  	32% {
transform: translate(172px, 25px);
opacity:1
 	}
        	74% {
transform: translate(172px, 25px);
opacity:1
 	}
     	80% {
transform: translate(172px, 33px);
opacity:0
 	}
  100% {
transform: translate(172px, 41px);
opacity:0
 	}
}
    </style>
  </defs>
  <g fill="none" fill-rule="evenodd">
    <mask id="variation_1-b" fill="#fff">
      <use xlink:href="#variation_1-a"/>
    </mask>
    <use fill="#000" fill-opacity="0" xlink:href="#variation_1-a"/>
    <g fill="#000" mask="url(#variation_1-b)">
      <use filter="url(#variation_1-c)" xlink:href="#variation_1-d"/>
    </g>
    <rect width="390" height="170" x="16" y="16" fill="#FFF" mask="url(#variation_1-b)" rx="4"/>
    <!-- button -->
    <g mask="url(#variation_1-b)">
      <g transform="translate(191 81)">
        <circle cx="20" cy="20" r="19.5" style="animation:button_base 4000ms ease-out infinite"/>
        <path style="animation:button_icon 4000ms ease-out infinite"   d="M24.1675,25.1098333 L20.4625,22.6398333 C20.3225,22.5465 20.1608333,22.4998333 20,22.4998333 C19.8391667,22.4998333 19.6775,22.5465 19.5375,22.6398333 L15.8325,25.1098333 L15.8325,14.9998333 C15.8325,14.5406667 16.2058333,14.1665 16.6658333,14.1665 L23.3341667,14.1665 C23.7941667,14.1665 24.1675,14.5406667 24.1675,14.9998333 L24.1675,25.1098333 Z M23.3341667,12.4998333 L16.6658333,12.4998333 C15.2875,12.4998333 14.1658333,13.6215 14.1658333,14.9998333 L14.1658333,26.6665 C14.1658333,26.974 14.335,27.2565 14.6058333,27.4015 C14.8766667,27.5465 15.2066667,27.5306667 15.4616667,27.3598333 L20,24.3348333 L24.5383333,27.3598333 C24.6775,27.4531667 24.8391667,27.4998333 25.0008333,27.4998333 C25.1358333,27.4998333 25.2708333,27.4673333 25.3941667,27.4015 C25.665,27.2565 25.8341667,26.974 25.8341667,26.6665 L25.8341667,14.9998333 C25.8341667,13.6215 24.7125,12.4998333 23.3341667,12.4998333 L23.3341667,12.4998333 Z"/>
      </g>
    </g>
    <!-- mouse -->
    <g filter="url(#variation_1-e)" mask="url(#variation_1-b) " >
      <g  style="animation:mouse_move 4000ms linear infinite">
        <path fill="#FFF" fill-rule="nonzero" d="M8.92307692,15.0295982 C9.09845673,15.4505097 8.9299152,17.0446791 8,17.4142136 C7.0700848,17.783748 5.88196601,17.4142136 5.88196601,17.4142136 L3.72604853,13.1023786 L-2.36658272e-30,16.8284271 L-2.36658272e-30,7.10542736e-15 L11.4142136,11.4142136 L7.16151449,11.4142136 C7.37022472,11.8143972 8.7002619,14.4948421 8.92307692,15.0295982 Z"/>
        <path fill="#000" d="M1,2.41421356 L1,14.4142136 L4,11.4142136 L6.5,16.4142136 C6.5,16.4142136 7.17630686,16.630009 7.5,16.4142136 C7.82369314,16.1984181 8.14566022,15.7637981 8,15.4142136 C7.31232691,13.7637981 5.5,10.4142136 5.5,10.4142136 L9,10.4142136 L1,2.41421356 Z"/>
      </g>
    </g>
    <!-- tooltip -->
    <g filter="url(#variation_1-f)" opacity=".96" style="animation:tooltip 4000ms cubic-bezier(0.0, 0.0, 0.2, 1) infinite; transform-origin:206px 80px" >
      <path fill="#FFF" d="M73,0 C75.209139,-4.05812251e-16 77,1.790861 77,4 L77,36 C77,38.209139 75.209139,40 73,40 L46.748,40 L39.6780172,47.0710678 C38.8969687,47.8521164 37.6306387,47.8521164 36.8495901,47.0710678 L29.779,40 L4,40 C1.790861,40 2.705415e-16,38.209139 0,36 L0,4 C-2.705415e-16,1.790861 1.790861,4.05812251e-16 4,0 L73,0 Z"/>
      <path fill="#2D284D" fill-opacity=".56" fill-rule="nonzero" d="M62.7086957,17.3078261 L63.5591304,16.4573913 L62.7034783,15.6017391 L61.8530435,16.4521739 L62.7086957,17.3078261 Z M61.873913,23 C62.1591304,23 62.4243478,22.9808696 62.6695652,22.9426087 C62.9147826,22.9043478 63.1365217,22.8382609 63.3347826,22.7443478 C63.5330435,22.6504348 63.7078261,22.5252174 63.8591304,22.3686957 C64.0104348,22.2121739 64.1382609,22.0156522 64.2426087,21.7791304 C64.3469565,21.5391304 64.3991304,21.2608696 64.3991304,20.9443478 C64.3991304,20.8886957 64.3973913,20.8330435 64.393913,20.7773913 C64.3695652,20.3913043 64.2791304,19.946087 64.1226087,19.4417391 C64.0704348,19.2713043 64.0147826,19.1104348 63.9556522,18.9591304 C63.8965217,18.8078261 63.8417391,18.6747826 63.7913043,18.56 C63.7408696,18.4452174 63.7,18.353913 63.6686957,18.286087 C63.6373913,18.2182609 63.6217391,18.1826087 63.6217391,18.1791304 L63.6217391,18.1791304 L62.6930435,18.6382609 L63.1469565,19.7547826 C63.22,19.9321739 63.2756522,20.1017391 63.313913,20.2634783 C63.3521739,20.4252174 63.3747826,20.5521739 63.3817391,20.6443478 C63.3886957,20.7365217 63.3921739,20.8052174 63.3921739,20.8504348 C63.3921739,20.933913 63.3869565,21.0121739 63.3765217,21.0852174 C63.3591304,21.1965217 63.3330435,21.2886957 63.2982609,21.3617391 C63.2286957,21.5078261 63.1417391,21.6217391 63.0373913,21.7034783 C62.9330435,21.7852174 62.8113043,21.8469565 62.6721739,21.8886957 C62.5330435,21.9304348 62.3782609,21.9556522 62.2078261,21.9643478 C62.0373913,21.9730435 61.8513043,21.9773913 61.6495652,21.9773913 L61.6495652,21.9773913 L61.0443478,21.9773913 L61.0443478,23 L61.873913,23 Z M56.7086957,16.546087 L57.4808696,15.773913 L56.7034783,14.9965217 L55.9313043,15.7686957 L56.7086957,16.546087 Z M55.5295652,18.1947826 L56.3747826,17.3443478 L55.5191304,16.4886957 L54.673913,17.3391304 L55.5295652,18.1947826 Z M57.82,18.2 L58.6652174,17.3547826 L57.8095652,16.4991304 L56.9643478,17.3443478 L57.82,18.2 Z M54.673913,23.0156522 C54.8443478,23.0156522 55.0069565,22.9904348 55.1617391,22.94 C55.3165217,22.8895652 55.4626087,22.8182609 55.6,22.726087 C55.7373913,22.633913 55.8643478,22.526087 55.9808696,22.4026087 C56.0973913,22.2791304 56.2026087,22.1443478 56.2965217,21.9982609 C56.4252174,22.3078261 56.62,22.5521739 56.8808696,22.7313043 C57.1417391,22.9104348 57.446087,23 57.793913,23 C57.9713043,23 58.1382609,22.973913 58.2947826,22.9217391 C58.4513043,22.8695652 58.5965217,22.7965217 58.7304348,22.7026087 C58.8643478,22.6086957 58.9834783,22.4956522 59.0878261,22.3634783 C59.1921739,22.2313043 59.2791304,22.0834783 59.3486957,21.92 C59.4391304,22.0869565 59.5486957,22.2365217 59.6773913,22.3686957 C59.806087,22.5008696 59.9478261,22.613913 60.1026087,22.7078261 C60.2573913,22.8017391 60.4217391,22.873913 60.5956522,22.9243478 C60.7695652,22.9747826 60.9469565,23 61.1278261,23 L61.1278261,23 L61.2530435,23 L61.2530435,21.9773913 L61.1278261,21.9773913 C60.8773913,21.9773913 60.6504348,21.8721739 60.4469565,21.6617391 C60.2434783,21.4513043 60.0721739,21.1321739 59.9330435,20.7043478 C59.8808696,20.5478261 59.84,20.4 59.8104348,20.2608696 C59.7808696,20.1217391 59.7565217,19.9895652 59.7373913,19.8643478 C59.7182609,19.7391304 59.7026087,19.6182609 59.6904348,19.5017391 C59.6782609,19.3852174 59.6669565,19.2695652 59.6565217,19.1547826 L59.6565217,19.1547826 L58.633913,19.2382609 C58.6408696,19.3634783 58.6469565,19.493913 58.6521739,19.6295652 C58.6573913,19.7652174 58.66,19.8817391 58.66,19.9791304 C58.66,20.0765217 58.6582609,20.1756522 58.6547826,20.2765217 C58.6478261,20.4782609 58.6304348,20.6791304 58.6026087,20.8791304 C58.5747826,21.0791304 58.5286957,21.26 58.4643478,21.4217391 C58.4,21.5834783 58.313913,21.713913 58.206087,21.8130435 C58.0982609,21.9121739 57.9608696,21.9617391 57.793913,21.9617391 C57.62,21.9617391 57.4826087,21.9147826 57.3817391,21.8208696 C57.2808696,21.7269565 57.2069565,21.6052174 57.16,21.4556522 C57.1130435,21.306087 57.0869565,21.1704348 57.0817391,21.0486957 C57.0765217,20.9269565 57.073913,20.8382609 57.073913,20.7826087 C57.073913,20.6469565 57.0808696,20.5113043 57.0947826,20.3756522 C57.1086957,20.1843478 57.1295652,20.0017391 57.1573913,19.8278261 C57.1852174,19.653913 57.2078261,19.506087 57.2252174,19.3843478 L57.2252174,19.3843478 L56.2078261,19.1913043 C56.1904348,19.3513043 56.1652174,19.5313043 56.1321739,19.7313043 C56.0991304,19.9313043 56.0547826,20.133913 55.9991304,20.3391304 C55.9434783,20.5443478 55.8773913,20.746087 55.8008696,20.9443478 C55.7243478,21.1426087 55.6321739,21.3182609 55.5243478,21.4713043 C55.4165217,21.6243478 55.2921739,21.7478261 55.1513043,21.8417391 C55.0104348,21.9356522 54.8513043,21.9826087 54.673913,21.9826087 C54.5313043,21.9826087 54.4226087,21.933913 54.3478261,21.8365217 C54.2730435,21.7391304 54.226087,21.6269565 54.2069565,21.5 C54.1878261,21.3730435 54.1782609,21.253913 54.1782609,21.1426087 C54.1782609,21.08 54.18,21.013913 54.1834783,20.9443478 C54.193913,20.7565217 54.213913,20.5713043 54.2434783,20.3886957 C54.2730435,20.206087 54.3043478,20.0365217 54.3373913,19.88 C54.3704348,19.7234783 54.3973913,19.6017391 54.4182609,19.5147826 L54.4182609,19.5147826 L53.4165217,19.2382609 C53.3956522,19.3217391 53.3730435,19.4208696 53.3486957,19.5356522 C53.3243478,19.6504348 53.2921739,19.7765217 53.2521739,19.913913 C53.2121739,20.0513043 53.1643478,20.1973913 53.1086957,20.3521739 C53.0530435,20.5069565 52.9852174,20.6643478 52.9052174,20.8243478 C52.8286957,20.9669565 52.74,21.1069565 52.6391304,21.2443478 C52.5382609,21.3817391 52.4278261,21.5052174 52.3078261,21.6147826 C52.1878261,21.7243478 52.0591304,21.8121739 51.9217391,21.8782609 C51.7843478,21.9443478 51.6426087,21.9773913 51.4965217,21.9773913 L51.4965217,21.9773913 L51.3869565,21.9773913 L51.3869565,23 L51.4965217,23 C51.6982609,23 51.8834783,22.9747826 52.0521739,22.9243478 C52.2208696,22.873913 52.3782609,22.8043478 52.5243478,22.7156522 C52.6704348,22.6269565 52.8043478,22.52 52.926087,22.3947826 C53.0478261,22.2695652 53.1626087,22.1304348 53.2704348,21.9773913 C53.3156522,22.133913 53.3834783,22.2765217 53.473913,22.4052174 C53.5643478,22.533913 53.6704348,22.6434783 53.7921739,22.733913 C53.913913,22.8243478 54.0504348,22.893913 54.2017391,22.9426087 C54.3530435,22.9913043 54.5104348,23.0156522 54.673913,23.0156522 Z M51.5956522,23 L51.5956522,21.9773913 L51.4913043,21.9773913 C51.2721739,21.9773913 51.0834783,21.9547826 50.9252174,21.9095652 C50.7669565,21.8643478 50.6478261,21.8017391 50.5678261,21.7217391 C50.4878261,21.6452174 50.4417391,21.5556522 50.4295652,21.4530435 C50.4173913,21.3504348 50.4113043,21.24 50.4113043,21.1217391 L50.4113043,21.1217391 L50.4113043,18.5026087 C50.4113043,18.1895652 50.4069565,17.8686957 50.3982609,17.54 C50.3895652,17.2113043 50.3773913,16.8956522 50.3617391,16.5930435 C50.346087,16.2904348 50.3269565,16.0104348 50.3043478,15.7530435 C50.2817391,15.4956522 50.2547826,15.2782609 50.2234783,15.1008696 L50.2234783,15.1008696 L49.2008696,15.2886957 C49.2321739,15.4521739 49.2591304,15.6617391 49.2817391,15.9173913 C49.3043478,16.1730435 49.3234783,16.4521739 49.3391304,16.7547826 C49.3547826,17.0573913 49.366087,17.3704348 49.3730435,17.693913 C49.38,18.0173913 49.3834783,18.3286957 49.3834783,18.6278261 C49.3869565,18.933913 49.3886957,19.2243478 49.3886957,19.4991304 L49.3883696,19.7019565 C49.3877174,19.898913 49.386087,20.0782609 49.3834783,20.24 C49.38,20.4556522 49.3773913,20.6321739 49.3756522,20.7695652 C49.3749565,20.8245217 49.3744,20.870713 49.3739826,20.9081391 L49.3736232,21.1063768 C49.3743961,21.169372 49.375942,21.2397101 49.3782609,21.3173913 C49.3817391,21.433913 49.3982609,21.5565217 49.4278261,21.6852174 C49.4573913,21.813913 49.5026087,21.9443478 49.5634783,22.0765217 C49.6243478,22.2086957 49.7121739,22.3321739 49.8269565,22.4469565 C50.0147826,22.6347826 50.2434783,22.773913 50.5130435,22.8643478 C50.7826087,22.9547826 51.1086957,23 51.4913043,23 L51.4913043,23 L51.5956522,23 Z M44.0095652,20.48 L44.86,19.6295652 L44.0043478,18.773913 L43.153913,19.6243478 L44.0095652,20.48 Z M43.78,26.5843478 C44.2078261,26.5843478 44.613913,26.5391304 44.9982609,26.4486957 C45.3826087,26.3582609 45.7330435,26.22 46.0495652,26.033913 C46.366087,25.8478261 46.6434783,25.6121739 46.8817391,25.3269565 C47.12,25.0417391 47.3052174,24.7026087 47.4373913,24.3095652 C47.5626087,23.933913 47.6304348,23.633913 47.6408696,23.4095652 C47.6513043,23.1852174 47.6565217,23.0347826 47.6565217,22.9582609 C47.6565217,22.6730435 47.6356522,22.3965217 47.593913,22.1286957 C47.5382609,21.7913043 47.4608696,21.4773913 47.3617391,21.1869565 C47.2626087,20.8965217 47.1634783,20.6426087 47.0643478,20.4252174 C46.9652174,20.2078261 46.8773913,20.033913 46.8008696,19.9034783 C46.7243478,19.7730435 46.6808696,19.6991304 46.6704348,19.6817391 L46.6704348,19.6817391 L45.8043478,20.2347826 C45.8078261,20.2347826 45.84,20.286087 45.9008696,20.3886957 C45.9617391,20.4913043 46.0321739,20.6321739 46.1121739,20.8113043 C46.1921739,20.9904348 46.2730435,21.2008696 46.3547826,21.4426087 C46.4365217,21.6843478 46.5,21.9391304 46.5452174,22.2069565 C46.5904348,22.4747826 46.6130435,22.7495652 46.6130435,23.0313043 L46.6130435,23.0313043 L46.6130435,23.093913 C46.606087,23.3965217 46.5556522,23.6973913 46.4617391,23.9965217 C46.3852174,24.24 46.2704348,24.4582609 46.1173913,24.6513043 C45.9643478,24.8443478 45.7747826,25.0078261 45.5486957,25.1417391 C45.3226087,25.2756522 45.06,25.3773913 44.7608696,25.4469565 C44.4617391,25.5165217 44.1278261,25.5513043 43.7591304,25.5513043 C43.4634783,25.5513043 43.2,25.5191304 42.9686957,25.4547826 C42.7373913,25.3904348 42.5356522,25.3069565 42.3634783,25.2043478 C42.1913043,25.1017391 42.0443478,24.986087 41.9226087,24.8573913 C41.8008696,24.7286957 41.7,24.5973913 41.62,24.4634783 C41.54,24.3295652 41.48,24.2008696 41.44,24.0773913 C41.4,23.953913 41.3730435,23.8452174 41.3591304,23.7513043 C41.3382609,23.6086957 41.3278261,23.4608696 41.3278261,23.3078261 C41.3278261,23.2521739 41.3295652,23.1947826 41.3330435,23.1356522 C41.3434783,22.9269565 41.3669565,22.7217391 41.4034783,22.52 C41.44,22.3182609 41.486087,22.1243478 41.5417391,21.9382609 C41.5973913,21.7521739 41.6556522,21.5808696 41.7165217,21.4243478 C41.7773913,21.2678261 41.8373913,21.1313043 41.8965217,21.0147826 C41.9556522,20.8982609 42.0078261,20.8086957 42.0530435,20.746087 L42.0530435,20.746087 L41.2234783,20.1356522 C41.0808696,20.3721739 40.9443478,20.6356522 40.813913,20.926087 C40.6834783,21.2165217 40.573913,21.5234783 40.4852174,21.8469565 C40.3965217,22.1704348 40.3417391,22.4513043 40.3208696,22.6895652 C40.3,22.9278261 40.2895652,23.1130435 40.2895652,23.2452174 C40.2895652,23.4608696 40.3052174,23.6782609 40.3365217,23.8973913 C40.406087,24.3530435 40.5408696,24.7495652 40.7408696,25.0869565 C40.9408696,25.4243478 41.1921739,25.7034783 41.4947826,25.9243478 C41.7973913,26.1452174 42.1426087,26.3104348 42.5304348,26.42 C42.9182609,26.5295652 43.3347826,26.5843478 43.78,26.5843478 Z M32.4478261,23 C32.6286957,23 32.78,22.9878261 32.9017391,22.9634783 C33.6391304,22.8278261 34.1626087,22.4852174 34.4721739,21.9356522 C34.5452174,21.8034783 34.6086957,21.6573913 34.6626087,21.4973913 C34.7165217,21.3373913 34.7495652,21.193913 34.7617391,21.0669565 C34.773913,20.94 34.78,20.84 34.78,20.7669565 C34.78,20.6417391 34.7695652,20.5095652 34.7486957,20.3704348 C34.7173913,20.1582609 34.6547826,19.9321739 34.5608696,19.6921739 C34.4669565,19.4521739 34.3347826,19.1991304 34.1643478,18.9330435 C33.993913,18.6669565 33.7765217,18.3878261 33.5121739,18.0956522 C33.313913,17.8765217 33.113913,17.6765217 32.9121739,17.4956522 C32.7104348,17.3147826 32.5243478,17.1513043 32.353913,17.0052174 L32.353913,17.0052174 L36.0895652,15.4347826 L35.6878261,14.4852174 L31.3991304,16.3217391 L31.2791304,17.3913043 C31.5643478,17.6208696 31.8443478,17.8678261 32.1191304,18.1321739 C32.393913,18.3965217 32.6426087,18.6547826 32.8652174,18.9069565 C33.0878261,19.1591304 33.2747826,19.3956522 33.426087,19.6165217 C33.5773913,19.8373913 33.6721739,20.0191304 33.7104348,20.1617391 C33.7591304,20.3495652 33.7834783,20.5252174 33.7834783,20.6886957 C33.7834783,20.733913 33.7817391,20.7791304 33.7782609,20.8243478 C33.7573913,21.0295652 33.6895652,21.2208696 33.5747826,21.3982609 C33.4773913,21.5443478 33.3434783,21.6565217 33.1730435,21.7347826 C33.0026087,21.8130435 32.8147826,21.8704348 32.6095652,21.9069565 C32.4043478,21.9434783 32.1886957,21.9643478 31.9626087,21.9695652 C31.7365217,21.9747826 31.5191304,21.9773913 31.3104348,21.9773913 L31.3104348,21.9773913 L30.6582609,21.9773913 L30.6582609,23 L32.4478261,23 Z M26.3173913,26.8504348 C26.7556522,26.6313043 27.1817391,26.373913 27.5956522,26.0782609 C28.0095652,25.7826087 28.3773913,25.4565217 28.6991304,25.1 C29.0208696,24.7434783 29.2791304,24.3582609 29.473913,23.9443478 C29.6686957,23.5304348 29.766087,23.0956522 29.766087,22.64 L29.766087,22.64 L29.766087,22.6191304 C29.8530435,22.7130435 29.9443478,22.786087 30.04,22.8382609 C30.1356522,22.8904348 30.2295652,22.9286957 30.3217391,22.9530435 C30.413913,22.9773913 30.4982609,22.9913043 30.5747826,22.9947826 C30.6513043,22.9982609 30.713913,23 30.7626087,23 L30.8513043,23 L30.8513043,21.9773913 L30.7678261,21.9773913 C30.593913,21.9773913 30.4347826,21.9356522 30.2904348,21.8521739 C30.146087,21.7686957 30.0078261,21.6373913 29.8756522,21.4582609 C29.7434783,21.2791304 29.6147826,21.0478261 29.4895652,20.7643478 C29.3643478,20.4808696 29.2356522,20.1373913 29.1034783,19.733913 L29.1034783,19.733913 L28.1226087,20.0365217 C28.1643478,20.1652174 28.2147826,20.326087 28.273913,20.5191304 C28.3330435,20.7121739 28.3921739,20.9182609 28.4513043,21.1373913 C28.5104348,21.3565217 28.5652174,21.58 28.6156522,21.8078261 C28.666087,22.0356522 28.7034783,22.2486957 28.7278261,22.4469565 C28.7347826,22.506087 28.7382609,22.5704348 28.7382609,22.64 C28.7382609,22.813913 28.7156522,22.9843478 28.6704348,23.1513043 C28.6078261,23.3843478 28.5130435,23.6086957 28.386087,23.8243478 C28.2591304,24.04 28.1034783,24.246087 27.9191304,24.4426087 C27.7347826,24.6391304 27.5330435,24.826087 27.313913,25.0034783 C27.0947826,25.1808696 26.8617391,25.3469565 26.6147826,25.5017391 C26.3678261,25.6565217 26.1191304,25.7982609 25.8686957,25.9269565 L25.8686957,25.9269565 L26.3173913,26.8504348 Z M23.4686957,22.9947826 C23.6773913,22.9947826 23.8869565,22.9791304 24.0973913,22.9478261 C24.3078261,22.9165217 24.5104348,22.866087 24.7052174,22.7965217 C24.9,22.7269565 25.0817391,22.6373913 25.2504348,22.5278261 C25.4191304,22.4182609 25.566087,22.2869565 25.6913043,22.133913 C25.7469565,22.0678261 25.7991304,21.9895652 25.8478261,21.8991304 C25.8965217,21.8086957 25.9347826,21.7026087 25.9626087,21.5808696 C25.9904348,21.4591304 26.0052174,21.32 26.0069565,21.1634783 C26.0086957,21.0069565 25.9886957,20.8313043 25.9469565,20.6365217 C25.8947826,20.4173913 25.8156522,20.1904348 25.7095652,19.9556522 C25.6034783,19.7208696 25.4765217,19.4878261 25.3286957,19.2565217 C25.1808696,19.0252174 25.0173913,18.8008696 24.8382609,18.5834783 C24.6591304,18.366087 24.4704348,18.1634783 24.2721739,17.9756522 C24.073913,17.7878261 23.8713043,17.6191304 23.6643478,17.4695652 C23.4573913,17.32 23.2513043,17.1982609 23.046087,17.1043478 L23.046087,17.1043478 L22.6234783,18.053913 C22.78,18.1234783 22.94,18.2173913 23.1034783,18.3356522 C23.2669565,18.453913 23.4278261,18.5895652 23.586087,18.7426087 C23.7443478,18.8956522 23.8965217,19.06 24.0426087,19.2356522 C24.1886957,19.4113043 24.3217391,19.5921739 24.4417391,19.7782609 C24.5617391,19.9643478 24.6643478,20.1504348 24.7495652,20.3365217 C24.8347826,20.5226087 24.8965217,20.7008696 24.9347826,20.8713043 C24.9626087,20.9965217 24.9765217,21.1043478 24.9765217,21.1947826 C24.9765217,21.32 24.9504348,21.413913 24.8982609,21.4765217 C24.78,21.6191304 24.633913,21.7252174 24.46,21.7947826 C24.286087,21.8643478 24.1295652,21.9052174 23.9904348,21.9173913 C23.8513043,21.9295652 23.7417391,21.9356522 23.6617391,21.9356522 C23.5330435,21.9356522 23.4026087,21.9269565 23.2704348,21.9095652 C23.0513043,21.8817391 22.8391304,21.8391304 22.633913,21.7817391 C22.4286957,21.7243478 22.2356522,21.6565217 22.0547826,21.5782609 C21.873913,21.5 21.7191304,21.4191304 21.5904348,21.3356522 L21.5904348,21.3356522 L21.1626087,22.3165217 C21.2495652,22.3965217 21.3869565,22.4765217 21.5747826,22.5565217 C21.7626087,22.6365217 21.9695652,22.7095652 22.1956522,22.7756522 C22.4217391,22.8417391 22.6486957,22.8947826 22.8765217,22.9347826 C23.1043478,22.9747826 23.3017391,22.9947826 23.4686957,22.9947826 Z M16.3991304,20.48 L17.2495652,19.6295652 L16.393913,18.773913 L15.5434783,19.6243478 L16.3991304,20.48 Z M16.1695652,26.5843478 C16.5973913,26.5843478 17.0034783,26.5391304 17.3878261,26.4486957 C17.7721739,26.3582609 18.1226087,26.22 18.4391304,26.033913 C18.7556522,25.8478261 19.0330435,25.6121739 19.2713043,25.3269565 C19.5095652,25.0417391 19.6947826,24.7026087 19.8269565,24.3095652 C19.9521739,23.933913 20.02,23.633913 20.0304348,23.4095652 C20.0408696,23.1852174 20.046087,23.0347826 20.046087,22.9582609 C20.046087,22.6730435 20.0252174,22.3965217 19.9834783,22.1286957 C19.9278261,21.7913043 19.8504348,21.4773913 19.7513043,21.1869565 C19.6521739,20.8965217 19.5530435,20.6426087 19.453913,20.4252174 C19.3547826,20.2078261 19.2669565,20.033913 19.1904348,19.9034783 C19.113913,19.7730435 19.0704348,19.6991304 19.06,19.6817391 L19.06,19.6817391 L18.193913,20.2347826 C18.1973913,20.2347826 18.2295652,20.286087 18.2904348,20.3886957 C18.3513043,20.4913043 18.4217391,20.6321739 18.5017391,20.8113043 C18.5817391,20.9904348 18.6626087,21.2008696 18.7443478,21.4426087 C18.826087,21.6843478 18.8895652,21.9391304 18.9347826,22.2069565 C18.98,22.4747826 19.0026087,22.7495652 19.0026087,23.0313043 L19.0026087,23.0313043 L19.0026087,23.093913 C18.9956522,23.3965217 18.9452174,23.6973913 18.8513043,23.9965217 C18.7747826,24.24 18.66,24.4582609 18.5069565,24.6513043 C18.353913,24.8443478 18.1643478,25.0078261 17.9382609,25.1417391 C17.7121739,25.2756522 17.4495652,25.3773913 17.1504348,25.4469565 C16.8513043,25.5165217 16.5173913,25.5513043 16.1486957,25.5513043 C15.8530435,25.5513043 15.5895652,25.5191304 15.3582609,25.4547826 C15.1269565,25.3904348 14.9252174,25.3069565 14.7530435,25.2043478 C14.5808696,25.1017391 14.433913,24.986087 14.3121739,24.8573913 C14.1904348,24.7286957 14.0895652,24.5973913 14.0095652,24.4634783 C13.9295652,24.3295652 13.8695652,24.2008696 13.8295652,24.0773913 C13.7895652,23.953913 13.7626087,23.8452174 13.7486957,23.7513043 C13.7278261,23.6086957 13.7173913,23.4608696 13.7173913,23.3078261 C13.7173913,23.2521739 13.7191304,23.1947826 13.7226087,23.1356522 C13.7330435,22.9269565 13.7565217,22.7217391 13.7930435,22.52 C13.8295652,22.3182609 13.8756522,22.1243478 13.9313043,21.9382609 C13.9869565,21.7521739 14.0452174,21.5808696 14.106087,21.4243478 C14.1669565,21.2678261 14.2269565,21.1313043 14.286087,21.0147826 C14.3452174,20.8982609 14.3973913,20.8086957 14.4426087,20.746087 L14.4426087,20.746087 L13.6130435,20.1356522 C13.4704348,20.3721739 13.333913,20.6356522 13.2034783,20.926087 C13.0730435,21.2165217 12.9634783,21.5234783 12.8747826,21.8469565 C12.786087,22.1704348 12.7313043,22.4513043 12.7104348,22.6895652 C12.6895652,22.9278261 12.6791304,23.1130435 12.6791304,23.2452174 C12.6791304,23.4608696 12.6947826,23.6782609 12.726087,23.8973913 C12.7956522,24.3530435 12.9304348,24.7495652 13.1304348,25.0869565 C13.3304348,25.4243478 13.5817391,25.7034783 13.8843478,25.9243478 C14.1869565,26.1452174 14.5321739,26.3104348 14.92,26.42 C15.3078261,26.5295652 15.7243478,26.5843478 16.1695652,26.5843478 Z"/>
    </g>
  </g>
</svg>
