<svg xmlns="http://www.w3.org/2000/svg" xmlns:xlink="http://www.w3.org/1999/xlink" width="422" height="360"><defs><filter id="c" width="113.9%" height="116.7%" x="-7%" y="-7.1%" filterUnits="objectBoundingBox"><feOffset dy="4" in="SourceAlpha" result="shadowOffsetOuter1"/><feGaussianBlur in="shadowOffsetOuter1" result="shadowBlurOuter1" stdDeviation="8"/><feColorMatrix in="shadowBlurOuter1" values="0 0 0 0 0 0 0 0 0 0 0 0 0 0 0 0 0 0 0.12 0"/></filter><filter id="g" width="153%" height="149.2%" x="-26.1%" y="-24.4%" filterUnits="objectBoundingBox"><feOffset dy="1" in="SourceAlpha" result="shadowOffsetOuter1"/><feGaussianBlur in="shadowOffsetOuter1" result="shadowBlurOuter1" stdDeviation=".4"/><feColorMatrix in="shadowBlurOuter1" result="shadowMatrixOuter1" values="0 0 0 0 0 0 0 0 0 0 0 0 0 0 0 0 0 0 0.5 0"/><feMerge><feMergeNode in="shadowMatrixOuter1"/><feMergeNode in="SourceGraphic"/></feMerge></filter><path id="d" d="M0 0h374v304a8 8 0 01-8 8H0V0z"/><path id="e" d="M0 0h374v304a8 8 0 01-8 8H0V0z"/><rect id="a" width="422" height="360" x="0" y="0" rx="4"/></defs><g fill="none" fill-rule="evenodd"><mask id="b" fill="#fff"><use xlink:href="#a"/></mask><use fill="#000" fill-opacity="0" xlink:href="#a"/><g mask="url(#b)"><use fill="#000" filter="url(#c)" xlink:href="#d"/><mask id="f" fill="#fff"><use xlink:href="#e"/></mask><use fill="#FFF" xlink:href="#e"/><path fill="#EA475B" fill-rule="nonzero" d="M67.54 130.588c.326 0 .63-.062.916-.185a2.396 2.396 0 001.263-1.252c.124-.285.187-.592.187-.921 0-.325-.063-.63-.188-.915a2.438 2.438 0 00-1.262-1.263 2.25 2.25 0 00-.915-.188c-.33 0-.637.063-.922.188a2.396 2.396 0 00-1.252 1.263c-.123.285-.184.59-.184.915 0 .329.061.636.184.921a2.376 2.376 0 001.252 1.252c.285.123.593.185.922.185zm0-1.134c-.166 0-.324-.033-.472-.097a1.259 1.259 0 01-.654-.654 1.192 1.192 0 010-.95 1.248 1.248 0 01.654-.657 1.192 1.192 0 01.95 0 1.248 1.248 0 01.657.657 1.192 1.192 0 010 .95 1.259 1.259 0 01-.658.654c-.15.064-.31.097-.476.097zm9.218 2.894l.842-1.085c-.209-.25-.434-.942-.675-2.073-.06-.283-.113-.557-.16-.821a11.674 11.674 0 01-.115-.846c-.03-.299-.05-.606-.062-.921-.012-.316-.018-.64-.018-.974v-.341c-.004-.5-.032-.944-.083-1.329-.135-1.02-.424-1.76-.87-2.219a1.99 1.99 0 00-1.454-.619 1.91 1.91 0 00-1.057.32 2.605 2.605 0 00-.55.487c-.162.19-.302.396-.42.62a4.34 4.34 0 00-.456 1.433 3.262 3.262 0 00-.028.417c0 .194.021.377.063.55.07.287.184.538.344.754.16.216.358.396.595.542.236.147.497.258.783.334.285.077.519.117.702.122.183.005.296.007.338.007.273 0 .55-.023.827-.07.005.548.046 1.105.122 1.674.077.568.194 1.15.351 1.75.297 1.14.624 1.903.981 2.288zm-2.323-7.005c-.112 0-.22-.005-.327-.014-.863-.088-1.294-.425-1.294-1.009 0-.046.002-.093.007-.14a2.75 2.75 0 01.108-.507 2.57 2.57 0 01.24-.556c.102-.177.227-.325.375-.446a.802.802 0 01.522-.18c.148 0 .282.041.4.125.118.083.222.189.31.316.088.128.16.267.219.418.058.15.103.293.135.427.047.21.085.435.115.679.03.243.05.506.06.79a4.197 4.197 0 01-.87.097zm7.888 6.838c0-.404-.003-.828-.01-1.273a46.022 46.022 0 00-.125-2.748c-.035-.464-.08-.914-.136-1.35a15.886 15.886 0 00-.58-2.723 9.204 9.204 0 00-.95-2.104l-1.155.737c.348.547.625 1.178.831 1.892.207.714.365 1.482.477 2.303.111.82.183 1.677.215 2.57.033.893.05 1.792.05 2.696h1.383zm4.244-.042c0-.403-.004-.829-.01-1.276a46.01 46.01 0 00-.126-2.748 26.16 26.16 0 00-.135-1.346l-.056-.383c.176.07.354.12.532.15.179.03.38.045.602.045.812 0 1.454-.285 1.927-.856.487-.566.74-1.384.758-2.455v-.181c0-.12-.002-.24-.007-.355a9.204 9.204 0 00-.035-.449 5.19 5.19 0 00-.041-.32 1.87 1.87 0 01-.021-.135l-1.364.25a6.148 6.148 0 01.098 1.037c0 .153-.007.31-.021.473-.014.162-.038.32-.073.473-.035.153-.08.298-.136.434a1.282 1.282 0 01-.216.359c-.194.236-.484.354-.87.354a1.67 1.67 0 01-.656-.114 1.42 1.42 0 01-.474-.33 2.29 2.29 0 01-.361-.512 9.559 9.559 0 01-.317-.664 28.91 28.91 0 01-.215-.48 15.458 15.458 0 00-.38-.804 5.204 5.204 0 00-.205-.365l-1.162.737c.14.241.265.476.376.703a9.513 9.513 0 01.803 2.452c.119.628.208 1.287.268 1.976.06.688.098 1.398.112 2.128.014.73.02 1.465.02 2.202h1.385zm7.882-.007c0-.946-.015-1.894-.046-2.845-.03-.95-.121-1.9-.274-2.845a2.344 2.344 0 00.87.139c.18 0 .356-.016.528-.049.172-.032.334-.086.487-.16a1.699 1.699 0 00.772-.765c.116.167.239.306.369.417a1.743 1.743 0 001.162.432c.366 0 .68-.069.942-.206.262-.136.474-.325.637-.567.162-.24.274-.505.337-.793a4.044 4.044 0 00.087-1.099 19.882 19.882 0 00-.07-.928 13.184 13.184 0 00-.16-1.11l-1.3.257c.074.404.119.748.135 1.033.016.286.025.533.025.741 0 .107-.005.233-.014.38-.01.146-.034.286-.073.42a.871.871 0 01-.188.345.458.458 0 01-.358.142.4.4 0 01-.303-.139 1.289 1.289 0 01-.226-.362 2.98 2.98 0 01-.164-.497 7.864 7.864 0 01-.18-1.054 52.655 52.655 0 01-.039-.382 7.515 7.515 0 00-.038-.373 4.336 4.336 0 01-.031-.407l-1.378.167a13.73 13.73 0 01.045.605 29.46 29.46 0 01.025.668c-.005.153-.02.338-.045.553a2.74 2.74 0 01-.15.627 1.504 1.504 0 01-.31.514.685.685 0 01-.525.212c-.208 0-.38-.026-.515-.08a.92.92 0 01-.358-.26 2.107 2.107 0 01-.295-.473 24.182 24.182 0 01-.327-.724l-.327-.703-.143-.285-.143-.285c-.046-.093-.09-.18-.132-.26a4.5 4.5 0 00-.111-.206l-1.26.744c.107.167.206.343.296.529s.19.406.296.66c.376.966.654 2.05.835 3.257.18 1.205.271 2.483.271 3.833 0 .185 0 .38-.003.584a16.53 16.53 0 01-.018.598h1.385zm14.302.09l1.148-.709a41.218 41.218 0 01-1.193-1.969 18.078 18.078 0 01-1.071-2.233 16.122 16.122 0 01-.772-2.532 13.307 13.307 0 01-.296-2.866h-1.377a13.292 13.292 0 01-.174 1.906 16.594 16.594 0 01-.397 1.781 17.615 17.615 0 01-.556 1.66 31.182 31.182 0 01-1.35 2.957c-.236.45-.461.883-.675 1.296l1.148.71c.186-.288.393-.654.623-1.1.23-.445.463-.937.702-1.478a35.406 35.406 0 001.332-3.523c.033.134.065.255.098.361.032.107.065.211.097.314.033.102.069.206.108.313.04.106.082.224.129.354a21.29 21.29 0 001.015 2.286c.4.776.886 1.6 1.461 2.473zm5.21-.152v-.912a53.259 53.259 0 00-.041-2.121 28.95 28.95 0 00-.06-1.061c-.025-.341-.057-.662-.097-.964a7.409 7.409 0 00-.142-.793c.31.288.673.493 1.089.616.415.123.84.184 1.276.184.464 0 .914-.058 1.35-.174a3.74 3.74 0 001.252-.612l-.612-1.127c-.135.097-.28.179-.439.244a3.415 3.415 0 01-.494.16 4.34 4.34 0 01-.528.093c-.181.021-.357.034-.529.039h-.139c-.158 0-.308-.012-.452-.035a1.54 1.54 0 01-.512-.164 1.18 1.18 0 01-.386-.333 1.348 1.348 0 01-.23-.533 1.69 1.69 0 01-.006-.153c0-.153.025-.296.076-.431.07-.176.17-.332.303-.466.132-.135.29-.244.473-.327.183-.083.332-.13.445-.14a3.43 3.43 0 01.24-.013c.125 0 .241.014.348.042a2.672 2.672 0 01.79.375c.113.08.21.153.292.223.081.07.147.127.198.174l.07.07.994-.96a16.4 16.4 0 00-.34-.314 4.124 4.124 0 00-.515-.382 3.577 3.577 0 00-.981-.473 3.254 3.254 0 00-.904-.14h-.119a2.983 2.983 0 00-2.216 1.169 2.86 2.86 0 00-.42.766 8.55 8.55 0 00-.376-.884c-.144-.292-.297-.57-.459-.835l-1.155.73c.348.548.625 1.179.832 1.893.206.714.365 1.482.476 2.302.111.821.183 1.678.216 2.57.032.894.048 1.792.048 2.697h1.385zm8.752 0v-.912a53.266 53.266 0 00-.042-2.121 28.95 28.95 0 00-.059-1.061c-.025-.341-.058-.662-.097-.964a7.409 7.409 0 00-.143-.793c.31.288.674.493 1.089.616.415.123.84.184 1.276.184.464 0 .914-.058 1.35-.174a3.74 3.74 0 001.252-.612l-.612-1.127c-.135.097-.28.179-.438.244a3.415 3.415 0 01-.494.16 4.34 4.34 0 01-.529.093c-.18.021-.357.034-.529.039h-.139c-.157 0-.308-.012-.452-.035a1.54 1.54 0 01-.511-.164 1.18 1.18 0 01-.386-.333 1.347 1.347 0 01-.23-.533 1.69 1.69 0 01-.007-.153c0-.153.026-.296.077-.431.07-.176.17-.332.302-.466.132-.135.29-.244.473-.327.184-.083.332-.13.446-.14a3.43 3.43 0 01.24-.013c.125 0 .24.014.347.042a2.672 2.672 0 01.79.375c.114.08.211.153.292.223.081.07.147.127.198.174l.07.07.995-.96a16.4 16.4 0 00-.341-.314 4.123 4.123 0 00-.515-.382 3.577 3.577 0 00-.98-.473 3.254 3.254 0 00-.905-.14h-.118a2.983 2.983 0 00-2.216 1.169 2.86 2.86 0 00-.42.766 8.55 8.55 0 00-.377-.884c-.143-.292-.296-.57-.459-.835l-1.154.73c.347.548.624 1.179.83 1.893.207.714.366 1.482.477 2.302.112.821.184 1.678.216 2.57.032.894.049 1.792.049 2.697h1.384zm11.673.146a2.113 2.113 0 001.075-.282c.308-.183.563-.422.765-.717.202-.294.354-.627.456-.998.102-.37.153-.749.153-1.134 0-.482-.067-.946-.202-1.391-.408-1.29-1.067-2.514-1.976-3.673a15.233 15.233 0 00-1.27-1.409 52.42 52.42 0 00-1.38-1.304l-.974.974.257.257a34.212 34.212 0 00-.9 1.51c-.262.468-.49.912-.682 1.332-.193.42-.355.822-.487 1.207-.132.385-.24.765-.324 1.14a6.99 6.99 0 00-.121.776 6.928 6.928 0 00-.039.672c0 .134.005.271.014.41.019.334.07.659.153.974.084.315.211.595.383.838.172.244.395.44.671.588.276.148.616.223 1.02.223.361 0 .692-.088.99-.265.3-.176.55-.415.749-.716l.02.028c.195.31.433.548.713.713.281.164.59.247.93.247h.006zm0-1.37a.695.695 0 01-.386-.175 1.28 1.28 0 01-.278-.365 2.397 2.397 0 01-.188-.49 4.47 4.47 0 01-.111-.546 6.344 6.344 0 01-.053-.533 8.404 8.404 0 01-.013-.445l-1.12-.014c-.019.112-.041.252-.067.421-.025.17-.056.347-.093.532a5.667 5.667 0 01-.143.56c-.058.188-.13.357-.216.508-.086.15-.189.275-.31.372a.697.697 0 01-.43.153.664.664 0 01-.463-.16 1.02 1.02 0 01-.272-.417 2.071 2.071 0 01-.118-.522 5.213 5.213 0 01-.024-.473 5.44 5.44 0 01.146-1.238c.074-.325.168-.655.282-.991.113-.337.254-.688.42-1.054.168-.367.362-.754.585-1.162.223-.408.48-.849.772-1.322.26.25.531.536.814.856.283.32.559.673.828 1.06.269.388.522.807.758 1.256.237.45.438.933.605 1.447.051.158.088.32.112.487a3.54 3.54 0 01-.01 1.047c-.031.202-.085.39-.164.564a1.27 1.27 0 01-.327.441.878.878 0 01-.536.202zm9.593 1.37a2.113 2.113 0 001.075-.282c.308-.183.563-.422.765-.717.202-.294.354-.627.456-.998.102-.37.153-.749.153-1.134 0-.482-.067-.946-.202-1.391-.408-1.29-1.067-2.514-1.976-3.673a15.233 15.233 0 00-1.27-1.409 52.419 52.419 0 00-1.38-1.304l-.974.974.257.257a34.213 34.213 0 00-.9 1.51c-.262.468-.49.912-.682 1.332-.193.42-.355.822-.487 1.207-.132.385-.24.765-.324 1.14a6.99 6.99 0 00-.121.776 6.927 6.927 0 00-.039.672c0 .134.005.271.014.41.019.334.07.659.153.974.084.315.211.595.383.838.172.244.395.44.671.588.276.148.616.223 1.02.223.361 0 .692-.088.99-.265.3-.176.55-.415.749-.716l.02.028c.195.31.433.548.713.713.281.164.59.247.93.247h.006zm0-1.37a.695.695 0 01-.386-.175 1.28 1.28 0 01-.278-.365 2.397 2.397 0 01-.188-.49 4.47 4.47 0 01-.111-.546 6.345 6.345 0 01-.053-.533 8.405 8.405 0 01-.013-.445l-1.12-.014c-.019.112-.041.252-.067.421-.025.17-.056.347-.093.532a5.667 5.667 0 01-.143.56c-.058.188-.13.357-.216.508-.085.15-.189.275-.31.372a.697.697 0 01-.43.153.664.664 0 01-.463-.16 1.02 1.02 0 01-.271-.417 2.071 2.071 0 01-.119-.522 5.213 5.213 0 01-.024-.473 5.44 5.44 0 01.146-1.238c.074-.325.168-.655.282-.991.113-.337.254-.688.42-1.054.168-.367.362-.754.585-1.162.223-.408.48-.849.772-1.322.26.25.531.536.814.856.283.32.559.673.828 1.06.269.388.522.807.758 1.256.237.45.438.933.605 1.447.051.158.088.32.112.487a3.539 3.539 0 01-.01 1.047c-.03.202-.085.39-.164.564a1.27 1.27 0 01-.327.441.878.878 0 01-.536.202zm5.176 1.258a2.5 2.5 0 00.08-.212c.048-.137.12-.318.215-.542.096-.225.215-.485.359-.78.143-.294.314-.601.511-.921.197-.32.42-.645.671-.974.25-.33.53-.641.839-.936a6.892 6.892 0 011.015-.8 5.25 5.25 0 011.2-.574l.501-.167-.403-1.315c-.051.014-.12.035-.206.063l-.323.104c-.135.042-.295.089-.48.14a8.955 8.955 0 01-1.231.24 4.885 4.885 0 01-.592.038h-.09c-.149 0-.303-.019-.463-.056a1.568 1.568 0 01-.441-.174 1.02 1.02 0 01-.33-.306.78.78 0 01-.13-.452c0-.227.056-.435.167-.623.112-.187.255-.349.432-.483.176-.135.376-.24.601-.317.225-.076.451-.114.679-.114.2 0 .409.03.63.09.22.06.448.165.684.313l.703-1.196c-.663-.39-1.336-.585-2.017-.585-.26 0-.52.032-.78.094a3.638 3.638 0 00-1.429.706 3.028 3.028 0 00-.55.581 2.72 2.72 0 00-.365.706 2.497 2.497 0 00-.132.821c0 .343.06.65.177.922.119.271.284.504.498.699.213.195.465.354.755.476.29.123.608.208.956.254a9.168 9.168 0 00-.82.898 13.02 13.02 0 00-.759 1.043 14.37 14.37 0 00-1.044 1.9 9.815 9.815 0 00-.403 1.022l1.315.417z" mask="url(#f)"/><rect width="214" height="29" x="127.5" y="50.5" stroke="#000000" stroke-opacity=".12" mask="url(#f)" rx="2"/><path fill="#000000" fill-opacity=".56" fill-rule="nonzero" d="M317.063 69.055a28.5 28.5 0 00.1-1.905c.01-.597.015-1.074.015-1.43 0-.593-.006-1.226-.018-1.9a55.636 55.636 0 00-.31-4.431l-1.193.182c.137 1.279.247 2.902.328 4.87.012.337.018.694.018 1.071 0 .313-.004.64-.012.98-.02.755-.063 1.587-.128 2.496l1.2.067zM308.784 69c.305 0 .633-.013.986-.04a6.124 6.124 0 001.09-.185 5.497 5.497 0 001.123-.435 4.598 4.598 0 001.087-.795c.113-.11.226-.247.337-.414a3.52 3.52 0 00.493-1.138 2.546 2.546 0 00.058-.706 2.018 2.018 0 00-.182-.721 2.14 2.14 0 00-.426-.594c-.309-.3-.613-.482-.913-.545a3.9 3.9 0 00-.786-.094c-.178 0-.359.014-.541.043-.881.15-1.814.681-2.8 1.594.008-.312.012-.622.012-.93 0-1.563-.096-3.052-.286-4.469l-1.23.22.037.356c.024.233.058.589.103 1.068a27.112 27.112 0 01.14 2.708v.22c-.004.519-.017.967-.04 1.345a8.857 8.857 0 01-.1.955 7.538 7.538 0 00-.612.874c-.136.237-.232.4-.289.49h-1.022V69h3.761zm-.754-1.193h-.585c.353-.475.573-.765.66-.87.088-.106.182-.214.284-.323.552-.605 1.07-1.073 1.555-1.406.485-.333.936-.546 1.354-.64a1.579 1.579 0 01.469-.024c.162.017.313.058.453.125s.261.157.363.271a.862.862 0 01.2.414c.017.077.025.154.025.231 0 .154-.03.307-.091.457-.09.227-.25.438-.481.633-.366.3-.733.527-1.102.682-.37.154-.734.264-1.093.331a6.33 6.33 0 01-1.047.11c-.338.006-.66.009-.964.009zm-8.687 1.643c.078 0 .157-.002.238-.006.377-.012.75-.056 1.12-.134.515-.125.97-.292 1.363-.499a3.71 3.71 0 001.047-.821c.15.243.32.433.509.569.188.136.37.236.544.301.175.065.33.104.466.119.136.014.226.021.27.021h.366v-1.193h-.122a1.59 1.59 0 01-.474-.07 1.122 1.122 0 01-.7-.624 1.726 1.726 0 01-.147-.59 405.883 405.883 0 00-.188-2.216 831.686 831.686 0 00-.189-2.21l-.079-.95a497.658 497.658 0 00-.116-1.39l-.005-.064v-.012l-1.194.128.028.283.073.742c.03.31.064.67.1 1.08l.116 1.3a118.004 118.004 0 01.213 2.773 1.38 1.38 0 01-.03.523c-.045.17-.113.33-.205.475-.09.146-.203.28-.334.402a2.319 2.319 0 01-.436.316 12.28 12.28 0 00-.67-2.09 22.43 22.43 0 00-1.198-2.432 27.66 27.66 0 00-1.06-1.756 24.086 24.086 0 00-.343-.515 2.524 2.524 0 01-.137-.207l-.98.694a36.475 36.475 0 01.444.657c.134.204.286.445.457.725.17.28.349.585.535.916.187.33.374.68.56 1.05.187.37.362.745.527 1.126.164.382.31.764.435 1.148.126.383.221.753.286 1.11a4.438 4.438 0 01-1.114.122c-.24 0-.46-.02-.663-.06l-.207 1.186c.296.05.594.073.894.073zM289.58 69l1.449-.012c.64 0 1.211-.015 1.71-.046.5-.03.943-.07 1.33-.122a13.634 13.634 0 001.793-.35l-.146-1.156-.448.091c-.14.029-.282.053-.426.073a12.48 12.48 0 01-1.11.104c-.22 0-.43-.03-.634-.092a1.966 1.966 0 01-.654-.328 1.695 1.695 0 01-.454-.53 1.418 1.418 0 01-.17-.694c0-.186.03-.366.091-.538a1.293 1.293 0 01.718-.78 1.52 1.52 0 01.621-.118c.207 0 .394.021.56.064.167.042.32.101.46.176.14.075.27.162.393.262.121.1.245.206.37.32l.75-.92c-.183-.15-.364-.292-.542-.426a3.698 3.698 0 00-.566-.35 3.08 3.08 0 00-1.425-.32c-.377 0-.725.07-1.043.21a2.6 2.6 0 00-1.382 1.406 2.623 2.623 0 00-.198 1.014c0 .365.06.698.18.999.12.3.327.584.623.852l-1.85.018V69zm.243 0v-1.193h-.121c-.256 0-.476-.026-.66-.08a.95.95 0 01-.418-.218.507.507 0 01-.161-.314 3.288 3.288 0 01-.021-.386v-3.056a42.483 42.483 0 00-.125-3.208 9.023 9.023 0 00-.094-.76l-1.193.218c.036.191.068.436.094.734.026.298.049.624.067.977.018.353.031.718.04 1.096.008.377.012.74.012 1.09.004.356.006.695.006 1.016v.236c-.001.23-.003.44-.006.628a184.985 184.985 0 00-.012.837v.07c0 .097.001.214.006.35.004.136.023.279.057.43.035.15.088.301.159.456.07.154.173.298.307.432.22.219.486.381.8.487.315.105.695.158 1.142.158h.121zm-11.26-4.997l.986-.986-.999-.999-.986.992.999.993zm2.495.012l.986-.992-.998-.993-.986.987.998.998zM279.81 69a12.11 12.11 0 001.637-.128 13.121 13.121 0 001.803-.392c.28-.084.541-.176.785-.277.243-.102.456-.21.639-.323.19-.122.338-.242.441-.362a.971.971 0 00.207-.356 1.21 1.21 0 00.046-.475 4.335 4.335 0 00-.098-.554 5.691 5.691 0 00-.3-.922 11.282 11.282 0 00-.381-.816 8.8 8.8 0 00-.332-.59 7.71 7.71 0 01-.155-.253l-1.01.658.088.13a13.27 13.27 0 01.46.797c.092.177.18.363.264.558.083.195.156.392.219.593.063.201.103.393.119.575-.341.191-.71.346-1.105.466a9.93 9.93 0 01-1.196.283c-.402.07-.795.117-1.181.143-.386.027-.739.04-1.06.04-1.135-.004-2.059-.113-2.769-.326-.71-.213-1.164-.518-1.363-.916a1.194 1.194 0 01-.122-.542c0-.223.049-.468.146-.736a2.35 2.35 0 01.183-.417 4.831 4.831 0 01.213-.35l-.968-.718-.067.1a4.867 4.867 0 00-.301.533 5.538 5.538 0 00-.174.401c-.158.418-.237.82-.237 1.206 0 .385.085.742.256 1.07.3.606.868 1.07 1.704 1.395.88.324 2.047.493 3.5.505h.11zm-16.21 4.273a7.348 7.348 0 001.23-.301 7.003 7.003 0 001.148-.505c.363-.201.702-.436 1.016-.704.315-.267.592-.566.831-.894.24-.329.436-.687.59-1.075.155-.387.254-.804.299-1.25a5.636 5.636 0 00.006-1.108 6.03 6.03 0 00-.2-1.066 5.049 5.049 0 00-.381-.958 3.741 3.741 0 00-.545-.789c-.483-.519-1.013-.779-1.589-.779-.26 0-.51.066-.752.198a2.284 2.284 0 00-.672.581c-.17.22-.319.48-.444.783a3.435 3.435 0 00-.24.81 4.237 4.237 0 00-.053.587c0 .162.015.324.043.487.049.308.166.58.353.815.422.524 1.073.812 1.954.865.223.02.423.03.6.03h.69c-.044.304-.17.614-.374.928a3.805 3.805 0 01-.837.892 6.02 6.02 0 01-1.272.755 7.854 7.854 0 01-1.68.523l.28 1.175zm3.343-5.479h-.098c-.178 0-.37-.005-.572-.017a3.068 3.068 0 01-.259-.028c-.1-.014-.2-.036-.304-.067a1.43 1.43 0 01-.292-.122.716.716 0 01-.228-.197.57.57 0 01-.125-.29 2.13 2.13 0 01-.022-.27 2.765 2.765 0 01.344-1.272c.084-.143.178-.26.283-.35a.505.505 0 01.335-.138c.073 0 .142.013.207.037a.94.94 0 01.186.094c.059.039.113.082.164.128.05.047.097.09.137.131.102.118.2.257.295.417.096.16.182.34.259.539.077.199.14.414.189.645.048.231.079.477.091.736a7.117 7.117 0 01-.59.024zM251.567 69l1.449-.012c.64 0 1.211-.015 1.71-.046.5-.03.943-.07 1.33-.122a13.634 13.634 0 001.793-.35l-.146-1.156-.448.091c-.14.029-.282.053-.426.073a12.48 12.48 0 01-1.11.104c-.22 0-.43-.03-.634-.092a1.966 1.966 0 01-.654-.328 1.695 1.695 0 01-.454-.53 1.418 1.418 0 01-.17-.694c0-.186.03-.366.091-.538a1.293 1.293 0 01.718-.78 1.52 1.52 0 01.621-.118c.207 0 .394.021.56.064.167.042.32.101.46.176.14.075.27.162.393.262.121.1.245.206.37.32l.75-.92c-.183-.15-.364-.292-.542-.426a3.698 3.698 0 00-.566-.35 3.08 3.08 0 00-1.425-.32c-.377 0-.725.07-1.044.21a2.6 2.6 0 00-1.382 1.406 2.623 2.623 0 00-.197 1.014c0 .365.06.698.18.999.12.3.327.584.623.852l-1.85.018V69zm-5.186 0c.17-.008.339-.024.505-.049.166-.024.329-.06.487-.11a2.355 2.355 0 00.883-.493c.215-.198.39-.425.523-.681.183.235.395.454.636.657.242.203.508.357.8.463.212.069.428.122.649.158.221.037.478.055.77.055h.176v-1.193h-.383a2.083 2.083 0 01-.624-.1 2.045 2.045 0 01-.52-.26 2.233 2.233 0 01-.436-.398 4.106 4.106 0 01-.374-.526c-.154-.26-.298-.518-.432-.773-.134-.256-.269-.51-.405-.761a23.622 23.622 0 00-.426-.755 8.539 8.539 0 00-1.135-1.507 8.372 8.372 0 00-.81-.745l4.827-2.027-.469-1.108-5.38 2.32-.159 1.344a10.538 10.538 0 011.239 1.142c.213.229.417.47.612.724s.365.51.511.77c.146.26.255.503.326.73a2.1 2.1 0 01.106.621c0 .049-.002.098-.006.146a.956.956 0 01-.149.43 1.624 1.624 0 01-.773.636 1.326 1.326 0 01-.49.097h-2.124V69h2.045zm-14.755 4.036a7.56 7.56 0 001.796-.283 3.726 3.726 0 001.415-.755c.396-.343.704-.788.925-1.336.221-.548.332-1.224.332-2.027.09.065.176.12.262.167a1.57 1.57 0 00.569.183c.107.014.232.021.374.021.345 0 .67-.064.977-.192.306-.127.581-.333.825-.617.085.13.186.244.301.343.116.1.238.184.365.253.128.069.257.122.387.158.13.037.25.055.359.055a1.802 1.802 0 001.096-.353c.154-.114.29-.247.41-.402.12-.154.22-.326.302-.517.101.199.23.376.386.533a2.515 2.515 0 001.114.648c.21.057.421.085.636.085h.122v-1.193h-.122c-.23 0-.433-.053-.605-.158a1.615 1.615 0 01-.454-.42 2.51 2.51 0 01-.325-.603 5.076 5.076 0 01-.213-.706 7.082 7.082 0 01-.125-.727 8.702 8.702 0 01-.055-.673l-1.193.085c.008.138.021.313.04.524a7.854 7.854 0 01-.01 1.394c-.024.239-.073.455-.146.648s-.176.35-.31.472a.748.748 0 01-.524.182.568.568 0 01-.39-.134.913.913 0 01-.24-.356 2.093 2.093 0 01-.124-.505 3.853 3.853 0 01-.037-.48v-.302c0-.13.002-.26.006-.39.008-.19.014-.363.018-.517l-1.235-.091-.022.633a6.9 6.9 0 01-.045.627c-.025.202-.06.394-.107.575-.046.18-.116.338-.21.472-.093.133-.212.24-.356.32-.144.078-.323.118-.538.118-.28 0-.51-.068-.691-.204a1.75 1.75 0 01-.46-.53 4.094 4.094 0 01-.326-.724 25.136 25.136 0 00-.283-.782 13.102 13.102 0 01-.225-.59l-1.01.657c.134.349.254.699.362 1.05.107.35.186.687.234 1.007a6.053 6.053 0 01.067 1.169 5.05 5.05 0 01-.207 1.162c-.369 1.129-1.416 1.733-3.14 1.814h-.208c-.344 0-.645-.037-.9-.112a2.56 2.56 0 01-.664-.292 1.95 1.95 0 01-.466-.408 2.592 2.592 0 01-.304-.463 2.316 2.316 0 01-.176-.453 3.749 3.749 0 01-.083-.378 3.527 3.527 0 01-.03-.712c.012-.24.04-.478.082-.715a6.898 6.898 0 01.36-1.288c.07-.182.141-.341.212-.477.071-.136.133-.239.186-.308l-.968-.718a8.79 8.79 0 00-.478.92c-.152.336-.28.694-.383 1.073-.104.38-.168.709-.192.987a5.374 5.374 0 00.018 1.41c.073.494.218.935.436 1.323.217.387.493.717.827.989.335.272.718.479 1.148.62.43.143.895.214 1.394.214h.237zm-12.673-13.154c.016-.049.042-.115.076-.198.035-.083.077-.166.128-.25.05-.083.109-.156.173-.219a.353.353 0 01.207-.106.784.784 0 01.365.024c.118.037.243.08.375.13.132.052.273.1.423.147.15.047.317.07.5.07h.036a1.3 1.3 0 00.401-.06c.138-.046.265-.102.38-.171a2.04 2.04 0 00.314-.229c.094-.083.174-.162.24-.237a2.086 2.086 0 00.217-.283l-.694-.45a3.633 3.633 0 01-.119.146c-.055.065-.122.13-.2.197-.08.067-.164.123-.253.168a.594.594 0 01-.268.067h-.024a1.359 1.359 0 01-.35-.055 3.69 3.69 0 01-.326-.116 4.624 4.624 0 00-.402-.146 1.624 1.624 0 00-.487-.067c-.174 0-.345.038-.511.113a1.693 1.693 0 00-.457.304 1.831 1.831 0 00-.547.971l.803.25zm2.24 9.118c.057-.402.09-.855.1-1.36.01-.506.016-.92.016-1.245 0-.54-.006-1.147-.019-1.82a55.828 55.828 0 00-.079-2.07 81.379 81.379 0 00-.164-2.313l-1.193.183c.057.548.107 1.221.152 2.02.045.8.081 1.733.11 2.8a27.95 27.95 0 01-.006 1.857c-.02.621-.06 1.248-.116 1.881l1.199.067zm-8.443-8.686l4.894-2.07-.286-.614-4.565 1.905-.043.779zM214.071 69c.211 0 .388-.014.53-.043.86-.158 1.47-.558 1.832-1.199.085-.154.16-.324.222-.511.063-.187.102-.354.116-.502.014-.148.021-.265.021-.35 0-.146-.012-.3-.036-.463a3.644 3.644 0 00-.22-.791 5.116 5.116 0 00-.462-.886 7.535 7.535 0 00-.761-.977 9.489 9.489 0 00-.7-.7 39.166 39.166 0 00-.651-.572l4.358-1.832-.469-1.108-5.003 2.143-.14 1.248a15.432 15.432 0 011.85 1.768c.26.294.478.57.655.828.176.257.287.47.331.636.057.219.086.424.086.614a1.496 1.496 0 01-.243.828c-.115.17-.27.302-.47.393a2.705 2.705 0 01-.657.2c-.24.043-.491.068-.755.074-.264.006-.517.009-.76.009h-.762V69h2.088zm-4.005 4.005l.761-.925a1.506 1.506 0 01-.39-.584 1.813 1.813 0 01-.103-.585 1.935 1.935 0 01.173-.77c.096-.213.22-.402.375-.569a1.92 1.92 0 01.532-.405c.201-.103.415-.159.643-.167h.17v-1.193h-.122c-.235 0-.47.035-.703.106a3.138 3.138 0 00-1.738 1.33 2.39 2.39 0 00-.359 1.425 1.43 1.43 0 01-.374-.338 4.072 4.072 0 01-.332-.478 5.661 5.661 0 01-.27-.511c-.08-.17-.144-.315-.192-.432.271-.045.531-.117.779-.216.247-.1.476-.226.687-.378a2.902 2.902 0 00.98-1.238c.074-.175.117-.35.131-.527.015-.177.022-.32.022-.43 0-.15-.008-.306-.025-.468a4.61 4.61 0 00-.173-.812 2.974 2.974 0 00-.326-.722 1.702 1.702 0 00-.465-.499 1.012 1.012 0 00-.588-.182h-.06c-.277.012-.53.095-.762.25a2.56 2.56 0 00-.624.599 4.151 4.151 0 00-.48.834c-.136.31-.249.624-.338.943-.09.319-.151.613-.186.883-.034.27-.052.5-.052.69 0 .061.002.118.006.171h-.98V69h1.206l.054.152a6.811 6.811 0 001.084 2.04c.256.332.552.653.889.961.336.308.72.593 1.15.852zm-2.015-5.259c-.06 0-.123-.004-.188-.012a2.17 2.17 0 01-.019-.292c0-.09.004-.183.013-.28.02-.211.057-.426.112-.645.055-.22.123-.435.204-.646.081-.21.173-.4.274-.569.101-.168.208-.306.32-.414a.585.585 0 01.337-.18c.183.135.316.307.399.518.083.211.124.434.122.67a2.064 2.064 0 01-.131.7 2.05 2.05 0 01-.356.617c-.152.181-.323.315-.511.402-.19.087-.38.131-.576.131zm-7.633 5.223c.268 0 .568-.019.901-.055a7.469 7.469 0 001.008-.183c.338-.085.668-.195.989-.331.32-.136.606-.304.858-.503.252-.198.454-.432.609-.7a1.854 1.854 0 00.213-1.199 1.28 1.28 0 00-.098-.316 1.74 1.74 0 00-.204-.338c-.087-.116-.2-.23-.337-.344h1.57v-1.193h-4.803l-.091 1.187.134.024a8.488 8.488 0 01.584.134c.122.033.253.07.393.11.14.04.28.085.423.134.231.085.426.17.584.255.159.086.287.166.387.24.1.076.171.147.216.214a.33.33 0 01.067.173.756.756 0 01-.204.524c-.136.15-.31.28-.52.39-.211.109-.448.201-.71.276a7.626 7.626 0 01-1.47.274 6.32 6.32 0 01-.499.028c-.203 0-.435-.004-.697-.013a4.438 4.438 0 01-.791-.097 3.022 3.022 0 01-.767-.277 1.705 1.705 0 01-.618-.55c-.255-.39-.383-.898-.383-1.523 0-.986.318-2.262.955-3.828l-1.114-.45c-.637 1.541-.982 2.864-1.034 3.968-.004.101-.006.2-.006.298 0 .889.196 1.621.59 2.198.187.316.427.57.721.764.295.192.615.341.962.447.347.105.71.175 1.087.21.377.034.742.052 1.095.052zm-12.947-10.683l.986-.986-.998-.998-.986.992.998.992zm2.496.012l.986-.992-.998-.992-.986.986.998.998zM187.313 69c.333 0 .654-.022.965-.067.31-.045.595-.122.855-.231.26-.11.49-.256.69-.439.202-.182.363-.411.485-.687.122-.28.182-.605.182-.974 0-.065-.002-.13-.006-.195-.028-.45-.134-.97-.316-1.558a7.903 7.903 0 00-.195-.563 12.302 12.302 0 00-.335-.786 1.499 1.499 0 01-.055-.124l-1.083.535.53 1.303a3.959 3.959 0 01.273 1.038c.009.107.013.187.013.24 0 .098-.006.189-.019.274-.02.13-.05.237-.09.323a.953.953 0 01-.342.398 1.674 1.674 0 01-.505.216c-.19.05-.398.079-.62.089-.224.01-.453.015-.689.015h-1.174V69h1.436zm-4.693-8.844l1.382-.767 1.473-.865-.36-.474-.845.456a.523.523 0 01-.256.067h-.024a.782.782 0 01-.29-.067.965.965 0 01-.435-.39.472.472 0 01-.06-.194v-.092c0-.077.014-.154.042-.23a.723.723 0 01.143-.232.678.678 0 01.426-.216 1.6 1.6 0 01.423.01c.081.011.189.031.323.06l.17-.56-.231-.055a2.655 2.655 0 00-.231-.043 1.893 1.893 0 00-.268-.018c-.215 0-.414.039-.597.116a1.322 1.322 0 00-.752.807 1.233 1.233 0 00.027.819c.07.157.167.301.293.431.126.13.274.23.444.298l-1.09.61.293.529zm3.5 8.844v-1.193h-.146c-.183 0-.348-.013-.496-.04a.927.927 0 01-.384-.155.74.74 0 01-.25-.332 1.57 1.57 0 01-.087-.58 362.084 362.084 0 00.017-2.334v-.223c0-.739-.024-1.49-.072-2.253a21.735 21.735 0 00-.067-.919 9.78 9.78 0 00-.098-.76l-1.193.219c.037.194.07.439.098.733.028.294.05.6.067.916.032.658.048 1.327.048 2.009v.225c-.008.763-.012 1.516-.012 2.258 0 .374.038.71.113 1.008.075.298.205.553.39.764.184.21.435.373.751.487.317.113.716.17 1.2.17h.121zm-14.48 0c.291 0 .59-.014.894-.043.304-.028.595-.073.873-.134.278-.06.533-.14.764-.24.232-.1.42-.22.566-.362.17.223.39.409.658.557.268.148.606.222 1.016.222h1.142l.216-.003c.162-.002.332-.007.511-.015s.353-.022.523-.04c.17-.018.31-.043.42-.076.735-.207 1.246-.637 1.534-1.29.122-.28.183-.609.183-.986 0-.496-.108-1.076-.323-1.741a7.904 7.904 0 00-.194-.563 17.753 17.753 0 00-.19-.466 7.045 7.045 0 00-.142-.32 1.458 1.458 0 01-.058-.124l-1.083.535c.069.15.136.303.2.457a10.563 10.563 0 01.33.846c.129.43.205.749.227.956.023.207.034.35.034.432 0 .199-.029.36-.085.487a.78.78 0 01-.238.292c-.105.081-.227.149-.365.204-.138.055-.29.097-.453.128a5.751 5.751 0 01-.944.094H176.4a.832.832 0 01-.502-.14.994.994 0 01-.301-.353 1.59 1.59 0 01-.153-.463 4.162 4.162 0 01-.054-.474 8.173 8.173 0 00-.04-.484c-.018-.165-.04-.328-.064-.49a8.669 8.669 0 00-.188-.926l-1.139.323c.09.312.15.59.18.834.03.243.05.479.058.706v.073c0 .264-.063.48-.189.651-.138.191-.326.341-.563.45-.237.11-.512.185-.825.226-.312.04-.639.06-.98.06h-.542V69h.542zm6.165 3.086l.986-.986-.998-.998-.986.992.998.992zm2.313.012l.986-.992-.998-.992-.986.986.998.998zm-7.992.822l.986-.986-.998-.998-.986.992.998.992zm2.252.012l.986-.992-.998-.992-.986.986.998.998zM171.341 69v-1.193h-.122c-.243 0-.444-.031-.602-.094a1.088 1.088 0 01-.396-.262 1.536 1.536 0 01-.271-.408c-.075-.16-.153-.338-.234-.533-.159-.369-.308-.723-.448-1.062a3413.595 3413.595 0 01-1.415-3.436l-1.108.463 1.924 4.626a2.31 2.31 0 01-.81.511c-.219.085-.405.135-.557.15a4.04 4.04 0 01-.344.02c-.162 0-.324-.018-.487-.054a2.792 2.792 0 01-.736-.28 3.6 3.6 0 01-.737-.542l-.688.968c.345.357.722.634 1.13.83a3.02 3.02 0 001.33.296c.288 0 .547-.017.779-.052.231-.034.445-.085.642-.152.197-.067.381-.151.554-.253.172-.101.344-.219.514-.353a2.1 2.1 0 00.304.314c.118.1.255.186.411.259.157.073.337.13.542.173.205.043.44.064.703.064h.122zm-16.532-8.096l.9-.9-.906-.907-.901.9.907.907zm-1.376 1.924l.986-.992-.998-.999-.986.993.998.998zm2.672.006l.986-.986-.998-.998-.986.986.998.998zm.207 6.239c.378 0 .708-.053.992-.158.293-.106.536-.258.73-.457.196-.199.342-.439.439-.721.097-.282.146-.598.146-.947 0-.23-.021-.468-.064-.712a6.734 6.734 0 00-.164-.712 10.71 10.71 0 00-.752-1.899l-1.065.56a10.738 10.738 0 01.514 1.245c.088.257.163.52.225.788.063.268.095.517.095.749 0 .178-.02.339-.061.48a.814.814 0 01-.198.354.668.668 0 01-.31.185 1.37 1.37 0 01-.35.046c-.07 0-.142-.004-.22-.012a.568.568 0 01-.307-.119.741.741 0 01-.2-.256 1.287 1.287 0 01-.11-.359 2.647 2.647 0 01-.034-.429c0-.166.012-.356.037-.569.024-.213.052-.414.082-.603.03-.188.058-.35.082-.484l.03-.194-1.168-.213c-.024.166-.058.362-.1.587a8.363 8.363 0 01-.165.697c-.067.24-.148.475-.243.706a3.216 3.216 0 01-.335.621c-.128.183-.274.33-.438.444a.956.956 0 01-.557.17.643.643 0 01-.323-.072.545.545 0 01-.2-.195.852.852 0 01-.104-.277c-.02-.104-.03-.21-.03-.32 0-.158.015-.33.048-.514.032-.185.07-.365.116-.542a11.173 11.173 0 01.255-.873l-1.205-.256c-.04.199-.09.41-.146.633a6.81 6.81 0 01-.207.667 4.862 4.862 0 01-.286.636c-.11.203-.239.382-.387.539a1.813 1.813 0 01-.508.377c-.19.095-.406.143-.645.143h-.134V69h.128c.235 0 .451-.02.648-.058a2.366 2.366 0 00.99-.432c.137-.103.267-.22.389-.35.065.15.157.282.277.396.12.113.252.209.398.286.146.077.3.135.46.173a1.989 1.989 0 001.446-.192c.308-.166.584-.391.827-.675.086.13.19.25.31.362.123.112.254.209.397.292.142.083.29.15.447.198.156.049.311.073.466.073h.042zM149.33 69v-1.193h-.121c-.244 0-.445-.031-.603-.094a1.088 1.088 0 01-.396-.262 1.536 1.536 0 01-.27-.408c-.076-.16-.154-.338-.235-.533-.158-.369-.307-.723-.447-1.062a3413.595 3413.595 0 01-1.415-3.436l-1.108.463 1.923 4.626a2.31 2.31 0 01-.81.511c-.218.085-.404.135-.556.15a4.04 4.04 0 01-.344.02c-.162 0-.325-.018-.487-.054a2.792 2.792 0 01-.737-.28 3.6 3.6 0 01-.736-.542l-.688.968c.345.357.721.634 1.13.83a3.02 3.02 0 001.33.296c.287 0 .547-.017.778-.052.232-.034.446-.085.642-.152.197-.067.382-.151.554-.253.173-.101.344-.219.515-.353a2.1 2.1 0 00.304.314c.118.1.255.186.41.259.157.073.338.13.543.173.205.043.439.064.703.064h.121zm-10.877 0c.073 0 .163-.003.27-.01.108-.005.223-.02.345-.042.122-.022.25-.052.383-.091.134-.039.266-.09.396-.155.357-.175.628-.416.813-.725.184-.308.277-.671.277-1.09 0-.417-.122-.872-.366-1.363-.243-.49-.614-1.02-1.114-1.588a12.198 12.198 0 00-.51-.539 18.56 18.56 0 00-.448-.43 11.026 11.026 0 00-.32-.285 1.231 1.231 0 01-.128-.116l-.767.931a.92.92 0 00.11.098c.073.06.17.146.292.255a8.659 8.659 0 00-.712.743c-.662.795-.992 1.56-.992 2.295 0 .418.1.78.298 1.086.199.307.493.551.883.734.15.073.298.13.444.17.146.04.279.07.399.089a2.466 2.466 0 00.447.033zm.045-1.212h-.078c-.025 0-.057-.003-.095-.005a2.482 2.482 0 01-.414-.076 1.455 1.455 0 01-.237-.089.936.936 0 01-.262-.164.759.759 0 01-.149-.186.585.585 0 01-.067-.191 1.222 1.222 0 01-.015-.19c0-.206.048-.415.143-.626.095-.211.212-.414.35-.609.138-.195.285-.373.441-.535.156-.163.293-.297.411-.402.394.426.694.828.901 1.205.207.377.31.7.31.968a.885.885 0 01-.1.447.803.803 0 01-.326.295 1.235 1.235 0 01-.243.086c-.085.02-.167.036-.244.048-.077.013-.148.02-.213.022a5.281 5.281 0 01-.158.003h.045z" mask="url(#f)"/><path fill="#7CB342" d="M332.354 64.1l-2.661 2.66a.499.499 0 01-.707 0l-1.34-1.34a.5.5 0 11.708-.707l.986.986 2.306-2.307a.5.5 0 11.708.707m3.434 1.828l-.253-.325a.982.982 0 010-1.215l.25-.325c.439-.563.164-1.37-.535-1.577l-.403-.12a1.02 1.02 0 01-.746-.983l.005-.405c.01-.701-.708-1.2-1.4-.974l-.398.13a1.082 1.082 0 01-1.206-.373l-.244-.33a1.084 1.084 0 00-1.728 0l-.243.332c-.27.368-.76.521-1.205.377l-.4-.13c-.692-.226-1.408.275-1.397.976l.007.406c.006.45-.297.85-.745.984l-.403.12c-.698.208-.97 1.017-.532 1.578l.253.325c.281.36.282.855.001 1.215l-.252.325c-.437.563-.162 1.37.536 1.577l.403.12c.449.132.752.533.746.983l-.005.405c-.01.702.708 1.2 1.399.974l.4-.131c.444-.145.934.007 1.205.374l.244.331a1.083 1.083 0 001.728-.002l.244-.331c.27-.368.76-.521 1.204-.377l.4.13c.692.226 1.408-.275 1.398-.976l-.007-.406a1.02 1.02 0 01.744-.984l.403-.12c.698-.208.97-1.017.532-1.578" mask="url(#f)"/><path fill="#000000" fill-opacity=".56" fill-rule="nonzero" d="M338.877 32c.804 0 1.419-.213 1.845-.64.15-.153.269-.322.356-.504a2.934 2.934 0 00.283-1.06c.008-.15.012-.28.012-.389v-.158c0-.134-.003-.29-.01-.469l-.02-.633-.03-.837c-.013-.314-.025-.673-.037-1.074a71.088 71.088 0 00-.232-3.39l-1.193.127a55.411 55.411 0 01.213 3.305l.073 1.842c.02.497.03.877.03 1.14v.068c0 .58-.103.976-.31 1.187-.194.195-.521.292-.98.292h-.462V32h.462zm-9.733 0c.633 0 1.232-.048 1.796-.143a12.452 12.452 0 001.604-.377c.505-.157.985-.333 1.44-.53.454-.197.89-.399 1.308-.606.102.26.253.492.454.697.2.205.44.379.718.52.278.143.591.251.94.326a5.35 5.35 0 001.126.113h.128v-1.193h-.128c-.073 0-.17-.003-.292-.01a3.534 3.534 0 01-.401-.045 4.253 4.253 0 01-.448-.1 2.014 2.014 0 01-.432-.177 1.503 1.503 0 01-.36-.274.928.928 0 01-.221-.392c.186-.094.371-.18.554-.262l.553-.244-.23-1.156c-.252 0-.502-.026-.75-.08a5.987 5.987 0 01-.742-.21 9.844 9.844 0 01-.74-.294 34.3 34.3 0 01-.727-.335c-.22-.102-.436-.201-.651-.298a8.863 8.863 0 00-.633-.26 4.933 4.933 0 00-.612-.179 2.73 2.73 0 00-.594-.067 2.34 2.34 0 00-1.123.286c-.355.191-.69.477-1.007.859a4.13 4.13 0 00-.29.383 9.873 9.873 0 00-.212.335 3.1 3.1 0 00-.186.347l1.096.493a3.225 3.225 0 01.225-.399c.073-.111.16-.231.262-.359.101-.128.216-.247.344-.359.127-.112.266-.204.417-.277.15-.073.308-.11.474-.11.126 0 .264.02.414.058.15.039.31.09.478.156.168.064.343.139.524.222l.557.258c.247.118.499.234.754.347.256.114.524.22.804.317-.463.231-.932.456-1.406.676-.475.219-.965.413-1.47.584a11.77 11.77 0 01-1.58.41 9.336 9.336 0 01-1.735.156h-.876V32h.876zm-3.767-7.554l.992-.992-.999-.998-.992.992.999.998zM322.394 32c.32 0 .667-.014 1.04-.043.374-.028.758-.099 1.151-.213a10.425 10.425 0 00.74.13c.213.032.456.06.73.086.274.027.56.04.855.04h1.595l.006-1.193h-2.13c.101-.077.2-.164.298-.262.114-.11.226-.247.338-.414a3.52 3.52 0 00.493-1.138 2.546 2.546 0 00.058-.706 2.018 2.018 0 00-.183-.721 2.14 2.14 0 00-.426-.594c-.308-.3-.613-.482-.913-.545a3.9 3.9 0 00-.785-.094c-.179 0-.36.014-.542.043-.88.15-1.814.681-2.8 1.594.008-.312.012-.622.012-.93 0-1.563-.095-3.052-.286-4.469l-1.23.22.037.356c.025.233.059.589.104 1.068a27.112 27.112 0 01.14 2.708v.22c-.004.519-.018.967-.04 1.345a8.857 8.857 0 01-.1.955 7.538 7.538 0 00-.612.874c-.136.237-.232.4-.29.49h-1.022V32h3.762zm-.755-1.193h-.584c.353-.475.573-.765.66-.87.087-.106.182-.214.283-.323.552-.605 1.07-1.073 1.555-1.406.485-.333.937-.546 1.355-.64a1.579 1.579 0 01.469-.024c.162.017.313.058.453.125s.26.157.362.271a.862.862 0 01.201.414 1.206 1.206 0 01-.067.688c-.09.231-.25.442-.48.633a4.234 4.234 0 01-1.069.654 5.72 5.72 0 01-1.099.335c-.365.07-.72.113-1.065.125-.345.012-.67.018-.974.018zM318.876 32v-1.193h-.122c-.256 0-.476-.026-.66-.08a.95.95 0 01-.417-.218.507.507 0 01-.162-.314 3.288 3.288 0 01-.021-.386v-3.056a42.483 42.483 0 00-.125-3.208 9.023 9.023 0 00-.094-.76l-1.193.218c.036.191.068.436.094.734.026.298.049.624.067.977.018.353.031.718.04 1.096.008.377.012.74.012 1.09.004.356.006.695.006 1.016v.236c-.001.23-.003.44-.006.628a184.985 184.985 0 00-.012.907c0 .097.002.214.006.35a2.35 2.35 0 00.216.886c.07.154.173.298.307.432.22.219.486.381.8.487.315.105.696.158 1.142.158h.122zm-7.579-6.714l.986-.986-.998-.998-.986.992.998.992zm2.496.012l.986-.992-.998-.992-.986.986.998.998zM311.139 32c.333 0 .654-.022.965-.067.31-.045.595-.122.855-.231.26-.11.49-.256.691-.439.2-.182.362-.411.484-.687.122-.28.183-.605.183-.974 0-.065-.003-.13-.007-.195-.028-.45-.133-.97-.316-1.558a7.904 7.904 0 00-.195-.563 12.302 12.302 0 00-.335-.786 1.499 1.499 0 01-.054-.124l-1.084.535.53 1.303a3.959 3.959 0 01.274 1.038c.008.107.012.187.012.24 0 .098-.006.189-.019.274-.02.13-.05.237-.09.323a.953.953 0 01-.342.398 1.674 1.674 0 01-.505.216c-.19.05-.398.079-.62.089-.224.01-.453.015-.689.015h-1.174V32h1.436zm-6.702 3.969c.268 0 .569-.019.901-.055a7.469 7.469 0 001.008-.183c.338-.085.668-.195.989-.331.32-.136.606-.304.858-.503.252-.198.455-.432.609-.7a1.854 1.854 0 00.213-1.199 1.28 1.28 0 00-.098-.316 1.74 1.74 0 00-.204-.338c-.087-.116-.2-.23-.337-.344h1.57v-1.193h-4.803l-.09 1.187.133.024a8.488 8.488 0 01.584.134c.122.033.253.07.393.11.14.04.281.085.423.134.231.085.426.17.584.255.159.086.288.166.387.24.1.076.171.147.216.214a.33.33 0 01.067.173.756.756 0 01-.204.524c-.136.15-.31.28-.52.39-.211.109-.448.201-.71.276a7.626 7.626 0 01-1.47.274 6.32 6.32 0 01-.499.028c-.203 0-.435-.004-.697-.013a4.438 4.438 0 01-.79-.097 3.022 3.022 0 01-.768-.277 1.705 1.705 0 01-.618-.55c-.255-.39-.383-.898-.383-1.523 0-.986.318-2.262.956-3.828l-1.114-.45c-.637 1.541-.982 2.864-1.035 3.968-.004.101-.006.2-.006.298 0 .889.197 1.621.59 2.198.187.316.427.57.721.764.295.192.615.341.962.447.347.105.71.175 1.087.21.377.034.742.052 1.095.052zM291.332 32c.333 0 .655-.022.965-.067.31-.045.595-.122.855-.231.26-.11.49-.256.691-.439.2-.182.362-.411.484-.687.122-.28.183-.605.183-.974 0-.065-.002-.13-.007-.195-.028-.45-.133-.97-.316-1.558a7.904 7.904 0 00-.195-.563 12.306 12.306 0 00-.335-.786 1.499 1.499 0 01-.054-.124l-1.084.535.53 1.303a3.959 3.959 0 01.274 1.038c.008.107.012.187.012.24 0 .098-.006.189-.018.274-.02.13-.051.237-.092.323a.953.953 0 01-.34.398 1.674 1.674 0 01-.506.216c-.19.05-.398.079-.62.089-.224.01-.453.015-.689.015h-1.174V32h1.436zm2.32 3.171l.998-.998-.987-.986-.998.998.986.986zm-2.66.012l.998-.998-.987-.992-.998.998.986.992zm1.357 1.741l.907-.907-.901-.9-.907.906.9.901zM285.617 32c.381 0 .713-.015.995-.046.282-.03.528-.077.74-.14a2.273 2.273 0 00.973-.569c.175.223.398.405.67.545s.613.21 1.022.21h.122v-1.193h-.122a.86.86 0 01-.508-.14.999.999 0 01-.31-.353 1.667 1.667 0 01-.162-.463 4.3 4.3 0 01-.067-.474 18.669 18.669 0 00-.11-1.054 5.718 5.718 0 00-.176-.827l-1.144.322c.09.309.151.583.186.822.034.24.051.475.051.706 0 .244-.04.457-.121.64a1.1 1.1 0 01-.38.456 1.85 1.85 0 01-.67.274c-.274.06-.604.091-.99.091h-.906V32h.907zm.225 2.977l.986-.987-.998-.998-.987.992.999.993zm2.495.012l.986-.992-.998-.993-.986.986.998.999zm-8.954-10.519l.901-.9-.907-.907-.9.9.906.907zm-1.375 1.924l.986-.992-.998-.999-.986.993.998.998zm2.672.006l.986-.986-.998-.998-.986.986.998.998zM272 36.036a7.56 7.56 0 001.796-.283 3.726 3.726 0 001.415-.755c.396-.343.704-.788.925-1.336.221-.548.332-1.224.332-2.027.09.065.176.12.262.167a1.57 1.57 0 00.569.183c.107.014.232.021.374.021.345 0 .67-.064.977-.192.306-.127.581-.333.825-.617.085.13.185.244.301.343.116.1.237.184.365.253s.257.122.387.158c.13.037.25.055.359.055a1.802 1.802 0 001.096-.353c.154-.114.29-.247.41-.402.12-.154.22-.326.302-.517.101.199.23.376.386.533a2.515 2.515 0 001.114.648c.21.057.421.085.636.085h.122v-1.193h-.122c-.231 0-.433-.053-.605-.158a1.615 1.615 0 01-.454-.42 2.51 2.51 0 01-.325-.603 5.076 5.076 0 01-.214-.706 7.082 7.082 0 01-.124-.727 8.702 8.702 0 01-.055-.673l-1.193.085c.008.138.021.313.04.524a7.854 7.854 0 01-.01 1.394c-.024.239-.073.455-.146.648s-.176.35-.31.472a.748.748 0 01-.524.182.568.568 0 01-.39-.134.913.913 0 01-.24-.356 2.093 2.093 0 01-.124-.505 3.853 3.853 0 01-.037-.48v-.302c0-.13.002-.26.006-.39.008-.19.014-.363.018-.517l-1.235-.091c-.008.207-.016.418-.022.633a6.9 6.9 0 01-.045.627c-.025.202-.06.394-.107.575-.046.18-.116.338-.21.472-.093.133-.212.24-.356.32-.144.078-.323.118-.539.118-.28 0-.51-.068-.69-.204a1.75 1.75 0 01-.46-.53 4.094 4.094 0 01-.326-.724 25.136 25.136 0 00-.283-.782 13.106 13.106 0 01-.225-.59l-1.01.657c.134.349.254.699.362 1.05.107.35.185.687.234 1.007a6.053 6.053 0 01.067 1.169 5.05 5.05 0 01-.207 1.162c-.37 1.129-1.416 1.733-3.14 1.814h-.208c-.345 0-.645-.037-.9-.112a2.56 2.56 0 01-.664-.292 1.95 1.95 0 01-.466-.408 2.592 2.592 0 01-.304-.463 2.316 2.316 0 01-.177-.453 3.75 3.75 0 01-.082-.378 3.527 3.527 0 01-.03-.712c.012-.24.04-.478.082-.715a6.898 6.898 0 01.36-1.288c.07-.182.141-.341.212-.477.071-.136.133-.239.186-.308l-.968-.718a8.79 8.79 0 00-.478.92c-.152.336-.28.694-.383 1.073-.104.38-.168.709-.192.987a5.374 5.374 0 00.018 1.41c.073.494.218.935.435 1.323.218.387.494.717.828.989.335.272.718.479 1.148.62.43.143.894.214 1.394.214H272zm-12.533-4.042c.243 0 .488-.018.733-.055.246-.036.482-.095.71-.176a3.04 3.04 0 00.636-.314c.196-.128.368-.28.514-.46a1.474 1.474 0 00.317-.645c.032-.142.05-.304.051-.487a2.812 2.812 0 00-.07-.614 4.424 4.424 0 00-.277-.795 6.44 6.44 0 00-.444-.815 8.06 8.06 0 00-1.233-1.495 6.963 6.963 0 00-.709-.59 4.27 4.27 0 00-.721-.426l-.493 1.108c.182.08.37.19.56.328.19.138.378.296.563.475.185.179.362.37.533.575.17.205.325.416.465.633.14.217.26.435.36.652.099.217.17.425.215.624.033.146.05.271.05.377 0 .146-.031.256-.092.329-.138.166-.309.29-.512.37a1.959 1.959 0 01-.547.144 3.497 3.497 0 01-.84-.01 5.173 5.173 0 01-1.419-.386 3.7 3.7 0 01-.541-.283l-.5 1.145c.102.093.262.186.481.28a7.375 7.375 0 001.519.441c.266.047.496.07.691.07zm-8.071 4.364c.34-.166.676-.354 1.007-.563.33-.209.645-.437.944-.685.298-.247.574-.51.827-.79.254-.28.473-.575.658-.883.184-.309.328-.628.432-.96.103-.33.155-.672.155-1.025 0-.178-.014-.361-.042-.548a8.704 8.704 0 00-.107-.569c-.043-.193-.09-.387-.14-.584l-.15-.588a9.053 9.053 0 00-.151-.556 65.373 65.373 0 01-.17-.564l-1.157.366c.11.34.213.681.31 1.022.045.167.091.337.14.512.049.174.094.349.134.523.04.175.074.345.1.511.027.167.04.325.04.475 0 .394-.095.775-.286 1.145a4.51 4.51 0 01-.758 1.046 6.964 6.964 0 01-1.074.91 9.912 9.912 0 01-1.242.734l.53 1.071zm-7.64-11.072l.987-.986-.999-.998-.986.992.999.992zm2.496.012l.986-.992-.998-.992-.986.986.998.998zM243.598 32c.333 0 .655-.022.965-.067.31-.045.596-.122.855-.231.26-.11.49-.256.691-.439.201-.182.362-.411.484-.687.122-.28.183-.605.183-.974 0-.065-.002-.13-.006-.195-.029-.45-.134-.97-.317-1.558a7.904 7.904 0 00-.195-.563 12.306 12.306 0 00-.335-.786 1.499 1.499 0 01-.054-.124l-1.084.535.53 1.303a3.959 3.959 0 01.274 1.038c.008.107.012.187.012.24 0 .098-.006.189-.018.274-.02.13-.051.237-.092.323a.953.953 0 01-.34.398 1.674 1.674 0 01-.506.216c-.19.05-.397.079-.62.089-.224.01-.453.015-.688.015h-1.175V32h1.436zm-3.354 4.005l.761-.925a1.506 1.506 0 01-.39-.584 1.813 1.813 0 01-.103-.585 1.935 1.935 0 01.173-.77c.096-.213.22-.402.375-.569a1.92 1.92 0 01.533-.405c.2-.103.415-.159.642-.167h.17v-1.193h-.122c-.235 0-.47.035-.703.106a3.138 3.138 0 00-1.737 1.33 2.39 2.39 0 00-.36 1.425 1.43 1.43 0 01-.374-.338 4.073 4.073 0 01-.332-.478 5.661 5.661 0 01-.27-.511c-.08-.17-.144-.315-.192-.432.272-.045.531-.117.779-.216.247-.1.477-.226.688-.378a2.902 2.902 0 00.98-1.238c.073-.175.116-.35.13-.527.015-.177.022-.32.022-.43 0-.15-.008-.306-.024-.468a4.61 4.61 0 00-.174-.812 2.974 2.974 0 00-.326-.722 1.702 1.702 0 00-.465-.499 1.012 1.012 0 00-.588-.182h-.06c-.276.012-.53.095-.761.25a2.56 2.56 0 00-.624.599 4.15 4.15 0 00-.481.834c-.136.31-.249.624-.338.943-.09.319-.151.613-.186.883-.034.27-.051.5-.051.69 0 .061.002.118.006.171h-.98V32h1.205l.055.152a6.811 6.811 0 001.083 2.04c.256.332.552.653.889.961.337.308.72.593 1.15.852zm-2.014-5.259c-.061 0-.124-.004-.19-.012a2.17 2.17 0 01-.017-.292c0-.09.004-.183.012-.28.02-.211.058-.426.112-.645.055-.22.123-.435.204-.646.081-.21.173-.4.274-.569.102-.168.208-.306.32-.414a.585.585 0 01.338-.18c.182.135.315.307.398.518.083.211.124.434.122.67a2.064 2.064 0 01-.13.7 2.05 2.05 0 01-.357.617c-.152.181-.323.315-.511.402-.189.087-.38.131-.575.131zm-7.433 5.746a11.123 11.123 0 001.492-.9 7.948 7.948 0 001.287-1.142c.375-.416.677-.865.904-1.348.227-.483.34-.99.34-1.522v-.024c.102.11.209.194.32.255a1.475 1.475 0 00.624.183c.09.004.163.006.22.006h.103v-1.193h-.097c-.203 0-.389-.049-.557-.146a1.645 1.645 0 01-.484-.46 4.3 4.3 0 01-.45-.81c-.147-.33-.297-.73-.451-1.201l-1.145.353c.05.15.108.337.177.563.069.225.138.465.207.721.069.256.133.516.192.782s.102.514.13.746a2.272 2.272 0 01-.067.822 3.158 3.158 0 01-.331.785c-.148.251-.33.492-.545.721-.215.23-.45.447-.706.654a8.3 8.3 0 01-.816.582c-.288.18-.578.346-.87.496l.523 1.077zm-.718-4.437a28.5 28.5 0 00.1-1.905c.01-.597.016-1.074.016-1.43 0-.593-.006-1.226-.018-1.9a55.636 55.636 0 00-.31-4.431l-1.194.182c.138 1.279.248 2.902.329 4.87.012.337.018.694.018 1.071 0 .313-.004.64-.012.98-.02.755-.063 1.587-.128 2.496l1.2.067zm-7.256-2.995l.993-.992-.999-.998-.992.992.998.998zm-.267 7.122c.499 0 .973-.053 1.421-.159a4.386 4.386 0 001.226-.483c.37-.218.693-.492.971-.825.278-.333.494-.729.649-1.187.146-.438.225-.788.237-1.05.012-.262.018-.437.018-.527a6.278 6.278 0 00-.344-2.066 9.757 9.757 0 00-.347-.889 6.902 6.902 0 00-.46-.867l-1.01.645c.004 0 .042.06.113.18.071.12.153.284.247.493.093.209.187.454.283.736a5.788 5.788 0 01.3 1.854v.073a3.791 3.791 0 01-.176 1.053c-.089.284-.223.538-.401.764-.179.225-.4.415-.664.572-.264.156-.57.275-.919.356a5.17 5.17 0 01-1.169.122c-.345 0-.652-.038-.922-.113a2.885 2.885 0 01-.706-.292c-.2-.12-.372-.255-.514-.405a2.65 2.65 0 01-.353-.46 2.218 2.218 0 01-.21-.45 2.4 2.4 0 01-.095-.38 3.57 3.57 0 01-.03-.719c.012-.243.04-.483.082-.718.043-.235.096-.462.161-.679.065-.217.133-.417.204-.6a5.35 5.35 0 01.21-.477c.07-.136.13-.24.183-.314l-.968-.712a8.651 8.651 0 00-.478.922c-.152.34-.28.697-.383 1.075a5.673 5.673 0 00-.192.983 5.374 5.374 0 00.018 1.41c.081.53.239.993.472 1.387.233.393.527.72.88.977s.755.45 1.208.578c.452.128.938.192 1.458.192zm-6.215-4.188a1.096 1.096 0 00.703-.256c.095-.08.173-.176.234-.286.061-.11.096-.23.104-.359v-.049a.81.81 0 00-.116-.432.909.909 0 00-.34-.316.814.814 0 00-.336-.113 15.367 15.367 0 00-.14-.003.82.82 0 00-.426.116c0-.585.384-1.155 1.15-1.71a81.412 81.412 0 00-.294-.238 5.084 5.084 0 00-.26-.195c-.965.686-1.448 1.506-1.448 2.46 0 .182.026.356.076.523.051.166.125.313.222.441.098.128.22.23.366.304.146.075.314.113.505.113zm-9.569.079c.378 0 .708-.053.992-.158.293-.106.536-.258.73-.457.196-.199.342-.439.439-.721.097-.282.146-.598.146-.947 0-.23-.021-.468-.064-.712a6.734 6.734 0 00-.164-.712 10.71 10.71 0 00-.752-1.899l-1.065.56a10.738 10.738 0 01.514 1.245c.088.257.163.52.225.788.063.268.095.517.095.749 0 .178-.02.339-.061.48a.814.814 0 01-.198.354.668.668 0 01-.31.185 1.37 1.37 0 01-.35.046c-.07 0-.142-.004-.22-.012a.568.568 0 01-.307-.119.741.741 0 01-.2-.256 1.287 1.287 0 01-.11-.359 2.647 2.647 0 01-.034-.429c0-.166.012-.356.037-.569.024-.213.052-.414.082-.603.03-.188.058-.35.082-.484l.03-.194-1.168-.213c-.024.166-.058.362-.1.587a8.363 8.363 0 01-.165.697c-.067.24-.148.475-.243.706a3.216 3.216 0 01-.335.621c-.128.183-.274.33-.438.444a.956.956 0 01-.557.17.643.643 0 01-.323-.072.545.545 0 01-.2-.195.852.852 0 01-.104-.277c-.02-.104-.03-.21-.03-.32 0-.158.015-.33.048-.514.032-.185.07-.365.116-.542a11.173 11.173 0 01.255-.873l-1.205-.256c-.04.199-.09.41-.146.633a6.81 6.81 0 01-.207.667 4.862 4.862 0 01-.286.636c-.11.203-.239.382-.387.539a1.813 1.813 0 01-.508.377c-.19.095-.406.143-.645.143h-.134V32h.128c.235 0 .451-.02.648-.058a2.366 2.366 0 00.99-.432c.137-.103.267-.22.389-.35.065.15.157.282.277.396.12.113.252.209.398.286.146.077.3.135.46.173a1.989 1.989 0 001.446-.192c.308-.166.584-.391.827-.675.086.13.19.25.31.362.123.112.254.209.397.292.142.083.29.15.447.198.156.049.311.073.466.073h.042zM192.705 32c.296 0 .606-.016.928-.049a10.435 10.435 0 001.9-.374c.302-.091.58-.198.837-.32.446.268.945.459 1.497.573a8.94 8.94 0 001.802.17h.121v-1.193h-.121c-.414 0-.809-.026-1.184-.08a4.625 4.625 0 01-.983-.237c.21-.158.42-.35.627-.575.207-.225.39-.46.55-.706.16-.245.28-.476.36-.69.079-.216.118-.402.118-.56 0-.041-.002-.082-.006-.122a1.065 1.065 0 00-.188-.579 1.658 1.658 0 00-.31-.335 2.23 2.23 0 00-.524-.316 3.741 3.741 0 00-.944-.268c-.3-.04-.56-.06-.779-.06-.187 0-.375.01-.566.03-.17.016-.36.045-.566.088a4.639 4.639 0 00-1.306.49 3.563 3.563 0 00-.648.469l-.06.846c.17.195.339.392.507.593.169.201.335.398.5.59.164.193.327.378.49.555.162.176.322.337.48.483-.146.057-.32.109-.523.156a9.805 9.805 0 01-2.003.228h-.128V32h.122zm3.677-2.173a7.347 7.347 0 01-.859-.822 33.65 33.65 0 01-.925-1.083c.26-.15.542-.262.846-.335.305-.073.607-.11.907-.11.3 0 .589.037.865.11.276.073.52.179.73.316a.66.66 0 01-.07.26 2.764 2.764 0 01-.186.337 4.864 4.864 0 01-.6.758c-.115.12-.233.23-.355.329-.122.099-.24.18-.353.24zM192.827 32v-1.193h-.122c-.255 0-.476-.026-.66-.08a.95.95 0 01-.417-.218.507.507 0 01-.161-.314 3.288 3.288 0 01-.022-.386v-3.056a42.483 42.483 0 00-.125-3.208 9.022 9.022 0 00-.094-.76l-1.193.218c.037.191.068.436.094.734.027.298.05.624.067.977.019.353.032.718.04 1.096.008.377.012.74.012 1.09a89.654 89.654 0 010 1.88 184.945 184.945 0 00-.012.907c0 .097.002.214.006.35a2.35 2.35 0 00.216.886c.071.154.174.298.307.432.22.219.486.381.8.487.315.105.696.158 1.142.158h.122zm-7.463-.006c.244 0 .488-.018.734-.055.245-.036.482-.095.709-.176a3.04 3.04 0 00.636-.314c.197-.128.368-.28.514-.46a1.474 1.474 0 00.317-.645c.032-.142.05-.304.052-.487a2.812 2.812 0 00-.07-.614 4.424 4.424 0 00-.277-.795 6.44 6.44 0 00-.445-.815 8.06 8.06 0 00-1.232-1.495 6.963 6.963 0 00-.71-.59 4.27 4.27 0 00-.72-.426l-.494 1.108c.183.08.37.19.56.328.191.138.379.296.563.475.185.179.362.37.533.575.17.205.326.416.466.633.14.217.26.435.359.652.1.217.171.425.216.624.032.146.048.271.048.377 0 .146-.03.256-.09.329-.139.166-.31.29-.512.37a1.959 1.959 0 01-.548.144 3.497 3.497 0 01-.84-.01 5.173 5.173 0 01-1.418-.386 3.7 3.7 0 01-.542-.283l-.5 1.145c.102.093.263.186.482.28a7.375 7.375 0 001.519.441c.265.047.496.07.69.07zm-10.658-4.991l.986-.986-.998-.999-.986.992.998.993zm2.496.012l.986-.992-.998-.993-.987.987.999.998zM175.954 32a12.11 12.11 0 001.637-.128 13.121 13.121 0 001.802-.392c.28-.084.542-.176.785-.277.244-.102.457-.21.64-.323.19-.122.337-.242.44-.362a.971.971 0 00.208-.356 1.21 1.21 0 00.045-.475 4.335 4.335 0 00-.097-.554 5.691 5.691 0 00-.301-.922 11.282 11.282 0 00-.38-.816 8.8 8.8 0 00-.333-.59 7.71 7.71 0 01-.155-.253l-1.01.658a7.254 7.254 0 01.29.46c.078.135.164.291.258.468.093.176.181.362.264.557.084.195.157.392.22.593.062.201.102.393.118.575-.34.191-.709.346-1.105.466a9.93 9.93 0 01-1.196.283c-.401.07-.795.117-1.18.143-.386.027-.74.04-1.06.04-1.136-.004-2.06-.113-2.77-.326-.71-.213-1.164-.518-1.363-.916a1.194 1.194 0 01-.121-.542c0-.223.048-.468.146-.736a2.35 2.35 0 01.182-.417 4.831 4.831 0 01.213-.35l-.968-.718-.066.1a4.865 4.865 0 00-.302.533 5.538 5.538 0 00-.173.401c-.159.418-.238.82-.238 1.206 0 .385.086.742.256 1.07.3.606.868 1.07 1.704 1.395.88.324 2.048.493 3.5.505h.11zm-9.843-9.118c.017-.049.042-.115.076-.198.035-.083.077-.166.128-.25.05-.083.109-.156.174-.219a.353.353 0 01.207-.106.784.784 0 01.365.024c.118.037.242.08.374.13.132.052.273.1.423.147.15.047.317.07.5.07h.036a1.3 1.3 0 00.402-.06c.138-.046.264-.102.38-.171a2.04 2.04 0 00.314-.229c.093-.083.173-.162.24-.237a2.086 2.086 0 00.216-.283l-.694-.45a3.633 3.633 0 01-.119.146c-.054.065-.121.13-.2.197-.08.067-.164.123-.253.168a.594.594 0 01-.268.067h-.024a1.359 1.359 0 01-.35-.055 3.69 3.69 0 01-.326-.116 4.624 4.624 0 00-.402-.146 1.624 1.624 0 00-.487-.067c-.174 0-.344.038-.51.113a1.693 1.693 0 00-.457.304 1.831 1.831 0 00-.548.971l.803.25zm2.24 9.118c.057-.402.09-.855.1-1.36.01-.506.016-.92.016-1.245v-.332c-.003-.453-.009-.95-.018-1.488a55.828 55.828 0 00-.08-2.07 81.375 81.375 0 00-.164-2.313l-1.193.183c.057.548.108 1.221.152 2.02.045.8.082 1.733.11 2.8a27.95 27.95 0 01-.006 1.857c-.02.621-.059 1.248-.116 1.881l1.2.067zm-6.367 0c.333 0 .643-.022.929-.067a2.82 2.82 0 00.776-.231c.231-.11.435-.256.611-.439.177-.182.326-.411.448-.687.122-.28.182-.605.182-.974 0-.065-.002-.13-.006-.195-.028-.45-.134-.97-.316-1.558a7.903 7.903 0 00-.195-.563 12.302 12.302 0 00-.335-.786 1.499 1.499 0 01-.055-.124l-1.083.535.53 1.303a3.959 3.959 0 01.273 1.038c.009.107.013.187.013.24 0 .098-.006.189-.019.274a1.09 1.09 0 01-.396.721 1.28 1.28 0 01-.425.216 2.29 2.29 0 01-.542.089c-.199.01-.416.015-.651.015h-.706V32h.967zm.999 3.171l.992-.992-.998-.998-.993.992.999.998zM161.26 32v-1.193h-.122c-.255 0-.476-.026-.66-.08a.95.95 0 01-.417-.218.507.507 0 01-.161-.314 3.288 3.288 0 01-.022-.386v-3.056a42.483 42.483 0 00-.125-3.208 9.022 9.022 0 00-.094-.76l-1.193.218c.037.191.068.436.094.734.027.298.05.624.067.977.019.353.032.718.04 1.096.008.377.012.74.012 1.09a89.654 89.654 0 010 1.88 184.945 184.945 0 00-.012.907c0 .097.002.214.006.35a2.35 2.35 0 00.216.886c.071.154.174.298.308.432.219.219.485.381.8.487.314.105.695.158 1.141.158h.122zm-7.463-.006c.244 0 .488-.018.734-.055.245-.036.482-.095.709-.176a3.04 3.04 0 00.636-.314c.197-.128.368-.28.514-.46a1.474 1.474 0 00.317-.645c.032-.142.05-.304.052-.487a2.812 2.812 0 00-.07-.614 4.424 4.424 0 00-.277-.795 6.44 6.44 0 00-.445-.815 8.06 8.06 0 00-1.232-1.495 6.963 6.963 0 00-.71-.59 4.27 4.27 0 00-.72-.426l-.494 1.108c.183.08.37.19.56.328.191.138.379.296.563.475.185.179.363.37.533.575.17.205.326.416.466.633.14.217.26.435.359.652.1.217.171.425.216.624.032.146.049.271.049.377 0 .146-.03.256-.092.329-.138.166-.308.29-.511.37a1.959 1.959 0 01-.548.144 3.497 3.497 0 01-.84-.01 5.173 5.173 0 01-1.418-.386 3.7 3.7 0 01-.542-.283l-.499 1.145c.101.093.262.186.48.28a7.375 7.375 0 001.519.441c.266.047.497.07.691.07zm-8.747 1.85V22.048h-1.016v11.796h1.016zm-10.134-10.962c.016-.049.041-.115.076-.198.034-.083.077-.166.128-.25.05-.083.108-.156.173-.219a.353.353 0 01.207-.106.784.784 0 01.365.024c.118.037.243.08.375.13.131.052.272.1.423.147.15.047.316.07.499.07h.036a1.3 1.3 0 00.402-.06c.138-.046.265-.102.38-.171a2.04 2.04 0 00.314-.229c.093-.083.173-.162.24-.237a2.086 2.086 0 00.216-.283l-.693-.45a3.633 3.633 0 01-.12.146c-.054.065-.12.13-.2.197-.08.067-.163.123-.253.168a.594.594 0 01-.267.067h-.025a1.359 1.359 0 01-.35-.055 3.69 3.69 0 01-.325-.116 4.624 4.624 0 00-.402-.146 1.624 1.624 0 00-.487-.067c-.175 0-.345.038-.511.113a1.693 1.693 0 00-.457.304 1.831 1.831 0 00-.548.971l.804.25zm2.24 9.118c.056-.402.09-.855.1-1.36.01-.506.015-.92.015-1.245 0-.54-.006-1.147-.018-1.82a55.826 55.826 0 00-.08-2.07 81.379 81.379 0 00-.163-2.313l-1.193.183c.056.548.107 1.221.152 2.02.044.8.08 1.733.11 2.8a27.95 27.95 0 01-.007 1.857c-.02.621-.059 1.248-.115 1.881l1.199.067zm-6.678 0c.333 0 .655-.022.965-.067.31-.045.596-.122.855-.231.26-.11.49-.256.691-.439.201-.182.362-.411.484-.687.122-.28.183-.605.183-.974 0-.065-.002-.13-.006-.195-.029-.45-.134-.97-.317-1.558a7.904 7.904 0 00-.195-.563 12.306 12.306 0 00-.335-.786 1.499 1.499 0 01-.054-.124l-1.084.535.53 1.303a3.959 3.959 0 01.274 1.038c.008.107.012.187.012.24 0 .098-.006.189-.018.274-.02.13-.051.237-.092.323a.953.953 0 01-.34.398 1.674 1.674 0 01-.506.216c-.19.05-.397.079-.62.089-.224.01-.453.015-.688.015h-1.175V32h1.436zm2.32 3.171l.998-.998-.986-.986-.999.998.986.986zm-2.66.012l.998-.998-.986-.992-.999.998.986.992zm1.357 1.741l.907-.907-.901-.9-.907.906.9.901zM129.285 32v-1.193h-.122c-.255 0-.475-.026-.66-.08a.95.95 0 01-.417-.218.507.507 0 01-.161-.314 3.288 3.288 0 01-.022-.386v-3.056a42.483 42.483 0 00-.124-3.208 9.022 9.022 0 00-.095-.76l-1.193.218c.037.191.068.436.095.734.026.298.048.624.067.977.018.353.031.718.04 1.096.007.377.011.74.011 1.09a89.654 89.654 0 010 1.88 184.985 184.985 0 00-.011.837v.174c0 .073.003.155.005.246a2.35 2.35 0 00.216.886c.071.154.174.298.308.432.219.219.486.381.8.487.315.105.695.158 1.141.158h.122zm-8.674 4.358c.341-.166.677-.354 1.008-.563.33-.209.645-.437.943-.685.298-.247.574-.51.828-.79s.473-.575.657-.883c.185-.309.33-.628.433-.96.103-.33.155-.672.155-1.025 0-.178-.014-.361-.043-.548a8.704 8.704 0 00-.106-.569c-.043-.193-.09-.387-.14-.584l-.15-.588a9.053 9.053 0 00-.152-.556 65.408 65.408 0 01-.17-.564l-1.157.366c.11.34.213.681.31 1.022l.14.512c.05.174.094.349.135.523.04.175.074.345.1.511.027.167.04.325.04.475 0 .394-.096.775-.286 1.145a4.51 4.51 0 01-.758 1.046 6.964 6.964 0 01-1.075.91 9.912 9.912 0 01-1.241.734l.53 1.071zm-3.402-11.072l.986-.986-.998-.998-.987.992.999.992zm2.495.012l.986-.992-.998-.992-.986.986.998.998zM117.05 32c.333 0 .655-.022.965-.067.31-.045.596-.122.855-.231.26-.11.49-.256.691-.439.201-.182.362-.411.484-.687.122-.28.183-.605.183-.974 0-.065-.002-.13-.006-.195-.029-.45-.134-.97-.317-1.558a7.904 7.904 0 00-.195-.563 12.306 12.306 0 00-.334-.786 1.498 1.498 0 01-.055-.124l-1.084.535.53 1.303a3.959 3.959 0 01.274 1.038c.008.107.012.187.012.24 0 .098-.006.189-.018.274-.02.13-.05.237-.092.323a.953.953 0 01-.34.398 1.674 1.674 0 01-.506.216c-.19.05-.397.079-.62.089-.224.01-.453.015-.688.015h-1.175V32h1.436zm-8.485 0c.625 0 1.169-.164 1.632-.493.235-.162.405-.327.51-.493.76.532 1.545.848 2.356.95.07.008.136.012.201.012.418 0 .773-.193 1.066-.579.154.203.348.354.58.454.234.1.501.149.801.149h.146v-1.193h-.146a.81.81 0 01-.627-.28.938.938 0 01-.17-.298 1.174 1.174 0 01-.067-.36 5.122 5.122 0 00-.07-.663 3.567 3.567 0 00-.469-1.257 2.221 2.221 0 00-.41-.496 1.821 1.821 0 00-.54-.335 1.78 1.78 0 00-.672-.121c-.357 0-.662.094-.916.283a2.405 2.405 0 00-.642.733l-.046.076c-.018.03-.048.085-.088.164l-.17.341c-.074.148-.173.346-.299.594a5.844 5.844 0 01-.444.736c-.438.585-.942.879-1.51.883h-.128V32h.122zm4.56-1.211a1.23 1.23 0 01-.202-.019 3.03 3.03 0 01-.672-.237 6.245 6.245 0 01-.831-.487c.008-.016.02-.038.033-.067l.08-.161c.038-.08.094-.193.167-.341l.292-.6c.248-.454.479-.681.694-.681.183 0 .341.05.475.152.134.101.244.232.332.392.087.16.154.34.2.54.047.198.075.395.083.59v.097c0 .11-.01.209-.03.298a.874.874 0 01-.129.292c-.105.155-.27.232-.493.232zM108.686 32v-1.193h-.122c-.255 0-.476-.026-.66-.08a.95.95 0 01-.417-.218.507.507 0 01-.161-.314 3.288 3.288 0 01-.022-.386v-3.056a42.483 42.483 0 00-.125-3.208 9.022 9.022 0 00-.094-.76l-1.193.218c.037.191.068.436.094.734.027.298.05.624.067.977.019.353.032.718.04 1.096.008.377.012.74.012 1.09a89.654 89.654 0 010 1.88 184.945 184.945 0 00-.012.907c0 .097.002.214.006.35a2.35 2.35 0 00.216.886c.071.154.174.298.307.432.22.219.486.381.8.487.315.105.696.158 1.142.158h.122zm-8.85-2.94l.992-.992-.999-.998-.992.992.999.998zm-.268 7.122c.499 0 .973-.053 1.421-.159a4.386 4.386 0 001.227-.483c.369-.218.692-.492.97-.825.278-.333.494-.729.649-1.187.146-.438.225-.788.237-1.05.012-.262.018-.437.018-.527a6.278 6.278 0 00-.344-2.066 9.757 9.757 0 00-.347-.889 6.902 6.902 0 00-.46-.867l-1.01.645c.004 0 .042.06.113.18.071.12.153.284.247.493.093.209.187.454.283.736a5.788 5.788 0 01.3 1.854v.073a3.791 3.791 0 01-.176 1.053c-.089.284-.223.538-.401.764-.179.225-.4.415-.664.572-.264.156-.57.275-.919.356a5.17 5.17 0 01-1.169.122c-.345 0-.652-.038-.922-.113a2.885 2.885 0 01-.706-.292c-.2-.12-.372-.255-.514-.405a2.65 2.65 0 01-.353-.46 2.218 2.218 0 01-.21-.45 2.4 2.4 0 01-.095-.38 3.57 3.57 0 01-.03-.719c.012-.243.04-.483.082-.718.043-.235.096-.462.161-.679.065-.217.133-.417.204-.6a5.35 5.35 0 01.21-.477c.07-.136.13-.24.183-.314l-.968-.712a8.651 8.651 0 00-.478.922c-.152.34-.28.697-.383 1.075a5.673 5.673 0 00-.192.983 5.374 5.374 0 00.018 1.41c.081.53.239.993.472 1.387.233.393.527.72.88.977s.755.45 1.208.578c.452.128.938.192 1.458.192z" mask="url(#f)"/><path fill="#EA475B" fill-rule="nonzero" d="M68.202 180.153c.964 0 1.75-.227 2.355-.682.605-.454.907-1.06.907-1.815 0-.455-.109-.84-.327-1.155-.218-.315-.55-.584-.998-.807-.447-.223-1.032-.415-1.753-.577-.721-.163-1.22-.332-1.496-.508-.276-.177-.413-.439-.413-.786 0-.371.148-.672.445-.901.297-.23.707-.345 1.231-.345.515 0 .94.144 1.273.432.334.287.501.628.501 1.022h1.454c0-.77-.298-1.403-.894-1.899-.596-.496-1.374-.744-2.334-.744-.909 0-1.657.24-2.243.72-.587.48-.88 1.065-.88 1.756 0 .418.103.778.31 1.082.206.304.523.565.952.783.43.218 1.01.404 1.743.56.733.155 1.246.34 1.54.556.295.216.442.52.442.915 0 .366-.165.66-.497.883-.332.223-.771.334-1.318.334-.594 0-1.072-.142-1.433-.427-.362-.286-.557-.67-.585-1.152h-1.44c0 .501.148.966.442 1.395.295.429.702.763 1.221 1.002.52.239 1.118.358 1.795.358zm8.612 0c.76 0 1.434-.182 2.02-.546a3.561 3.561 0 001.35-1.527c.313-.654.47-1.391.47-2.212v-.105c0-1.321-.355-2.381-1.064-3.179-.71-.797-1.64-1.196-2.79-1.196-.747 0-1.41.18-1.99.539-.58.36-1.033.87-1.36 1.534-.327.663-.49 1.407-.49 2.233v.104c0 1.313.356 2.367 1.068 3.162.712.795 1.64 1.193 2.786 1.193zm0-1.176c-.728 0-1.31-.284-1.746-.852-.436-.568-.654-1.32-.654-2.257 0-1.058.219-1.87.657-2.438.439-.569 1.015-.853 1.729-.853.728 0 1.312.288 1.753.863.44.575.66 1.326.66 2.254 0 1.039-.216 1.846-.65 2.42-.433.576-1.016.863-1.75.863zM83.917 180v-6.024c.199-.404.475-.73.827-.981.353-.25.763-.376 1.232-.376.58 0 1.006.146 1.28.438.273.293.412.742.417 1.35V180h1.447v-5.586c-.014-2.017-.916-3.026-2.706-3.026-1.025 0-1.857.394-2.497 1.182V168H82.47v12h1.447zm8.813 0v-6.003c.339-.807.981-1.21 1.927-1.21.255 0 .494.018.717.055v-1.343c-.148-.074-.364-.111-.647-.111-.867 0-1.537.378-2.01 1.134l-.028-.974h-1.406V180h1.447zm6.574.153c.933 0 1.735-.348 2.407-1.043.051.426.119.723.202.89h1.517v-.125c-.195-.46-.293-1.076-.293-1.85v-3.89c-.023-.857-.31-1.53-.862-2.017-.552-.487-1.315-.73-2.289-.73-.612 0-1.176.115-1.69.344-.515.23-.922.542-1.221.936-.3.394-.449.802-.449 1.224h1.454c0-.37.174-.686.522-.946.348-.26.781-.39 1.3-.39.59 0 1.035.15 1.336.45.302.298.452.7.452 1.206v.661h-1.405c-1.215 0-2.157.244-2.828.73-.67.487-1.005 1.171-1.005 2.053 0 .723.268 1.32.804 1.791.535.47 1.218.706 2.048.706zm.216-1.252c-.478 0-.867-.128-1.169-.383-.301-.255-.452-.61-.452-1.064 0-1.039.886-1.558 2.658-1.558h1.133v1.739c-.18.375-.475.68-.883.915a2.548 2.548 0 01-1.287.35zm9.753 1.252c1.002 0 1.8-.392 2.393-1.176.594-.783.89-1.82.89-3.11v-.124c0-1.35-.293-2.413-.88-3.19-.586-.777-1.392-1.165-2.417-1.165s-1.83.364-2.414 1.092V168h-1.447v12h1.329l.07-.974c.584.751 1.41 1.127 2.476 1.127zm-.355-1.224c-.941 0-1.632-.443-2.073-1.329v-3.652c.418-.886 1.102-1.329 2.052-1.329.715 0 1.262.268 1.642.804.38.535.57 1.295.57 2.278 0 1.08-.192 1.889-.577 2.424-.385.536-.923.804-1.614.804zM115.45 180c.297 0 .531-.083.703-.25a.828.828 0 00.237-.613c0-.269-.08-.484-.237-.647-.167-.171-.401-.257-.703-.257-.296 0-.526.086-.688.257-.153.163-.23.378-.23.647 0 .255.077.46.23.613.162.167.392.25.688.25zm8.063 0v-11.43h-.23l-4.139 1.552v1.315l2.915-1.072V180h1.454zm5.955.007c1.767-.023 3.087-.545 3.962-1.565.874-1.02 1.31-2.637 1.31-4.849v-.424c0-1.452-.324-2.599-.973-3.44-.65-.842-1.535-1.263-2.657-1.263-.71 0-1.33.162-1.861.487-.531.325-.942.79-1.232 1.398-.29.608-.434 1.292-.434 2.052 0 .71.133 1.358.4 1.945.266.586.643 1.041 1.13 1.363.487.323 1.057.484 1.711.484.501 0 .962-.11 1.381-.327.42-.218.78-.508 1.082-.87-.056 1.303-.404 2.255-1.044 2.856-.64.6-1.558.912-2.754.936h-.3v1.217h.279zm1.593-5.009c-.626 0-1.125-.25-1.496-.751-.37-.5-.556-1.14-.556-1.92 0-.798.192-1.44.577-1.927.385-.487.895-.73 1.53-.73.631 0 1.152.296 1.562.89.41.594.616 1.366.616 2.317v.577a2.608 2.608 0 01-.89 1.099 2.233 2.233 0 01-1.343.445zM144.188 180v-1.183h-5.711l3.046-3.304c1.429-1.544 2.143-2.878 2.143-4 0-.918-.307-1.656-.922-2.212-.614-.557-1.45-.835-2.507-.835-1.132 0-2.035.324-2.71.97-.675.647-1.012 1.495-1.012 2.543h1.447c0-.733.2-1.303.598-1.711.399-.408.958-.612 1.677-.612.598 0 1.077.19 1.436.57.36.38.54.867.54 1.461 0 .445-.111.874-.331 1.287-.22.413-.623.95-1.207 1.614l-3.938 4.375V180h7.45zm5.085.153c1.08 0 1.954-.291 2.62-.873.665-.582.997-1.365.997-2.348 0-.621-.173-1.177-.521-1.666a3.275 3.275 0 00-1.412-1.116c.51-.25.915-.598 1.217-1.04.301-.443.452-.948.452-1.513 0-.96-.31-1.722-.929-2.286-.619-.563-1.427-.845-2.424-.845-1.006 0-1.817.282-2.431.845-.615.564-.922 1.326-.922 2.286 0 .56.146 1.063.438 1.506.292.443.691.79 1.197 1.04-.594.255-1.059.63-1.395 1.123a2.893 2.893 0 00-.504 1.666c0 .979.329 1.76.987 2.345.659.584 1.536.876 2.63.876zm0-6.602c-.58 0-1.042-.177-1.388-.532-.345-.355-.518-.822-.518-1.402 0-.603.175-1.08.525-1.433.35-.352.81-.528 1.381-.528.552 0 1.008.182 1.367.546.36.364.54.836.54 1.415 0 .58-.175 1.047-.523 1.402-.347.355-.809.532-1.384.532zm0 5.426c-.682 0-1.214-.185-1.596-.556-.383-.371-.574-.879-.574-1.524 0-.644.196-1.165.587-1.561.392-.397.915-.595 1.57-.595.648 0 1.175.2 1.578.602.404.4.605.919.605 1.554 0 .64-.192 1.147-.577 1.52-.385.374-.916.56-1.593.56zm11.485 4.564c.548 0 1.088-.065 1.621-.195.533-.13.962-.297 1.287-.5l-.292-.898c-.31.18-.702.328-1.172.442-.471.113-.94.17-1.409.17-1.09 0-2.019-.25-2.786-.751-.768-.501-1.326-1.195-1.677-2.08-.35-.886-.525-1.865-.525-2.936 0-.172.005-.348.014-.529.06-1.28.325-2.409.793-3.387.469-.979 1.109-1.728 1.92-2.247.812-.52 1.742-.78 2.79-.78 1.739 0 3.012.504 3.819 1.51.807 1.006 1.21 2.374 1.21 4.104 0 .2-.004.404-.014.613-.032.936-.23 1.697-.594 2.281-.364.585-.841.877-1.43.877-.677 0-1.016-.473-1.016-1.42 0-.12.005-.247.014-.382l.41-4.334c-.417-.325-.792-.544-1.126-.657a3.51 3.51 0 00-1.134-.17c-.547 0-1.07.193-1.565.58-.497.387-.902.917-1.218 1.59-.315.672-.512 1.44-.591 2.302a7.392 7.392 0 00-.028.626c0 .775.15 1.401.452 1.879.38.603.94.904 1.677.904a2.16 2.16 0 001.12-.323c.362-.216.684-.544.967-.985.278.872.904 1.308 1.878 1.308.941 0 1.693-.364 2.254-1.092.561-.728.874-1.723.94-2.984.008-.177.013-.348.013-.515 0-1.262-.2-2.377-.598-3.346-.455-1.1-1.146-1.94-2.073-2.522-.928-.582-2.04-.873-3.34-.873-1.242 0-2.359.31-3.349.932-.99.621-1.774 1.504-2.351 2.647-.578 1.143-.897 2.431-.957 3.864-.01.181-.014.357-.014.529 0 1.257.207 2.368.62 3.332.463 1.104 1.163 1.95 2.1 2.536.937.587 2.057.88 3.36.88zm-.215-4.501c-.46 0-.78-.173-.964-.518-.183-.346-.275-.76-.275-1.242 0-.167.01-.346.028-.536.098-1.076.346-1.923.745-2.542.398-.62.902-.929 1.51-.929.333 0 .646.077.938.23l-.362 3.93-.006.07c-.186.491-.424.87-.714 1.137s-.59.4-.9.4zm11.895 4.285c1.095 0 1.965-.314 2.612-.942.647-.629.97-1.49.97-2.585v-8.25h-1.32l-.07.939c-.576-.733-1.38-1.1-2.414-1.1-1.002 0-1.808.39-2.418 1.17-.61.779-.915 1.827-.915 3.144 0 1.377.307 2.464.919 3.259.612.795 1.412 1.193 2.4 1.193 1.001 0 1.79-.332 2.365-.995v.724c0 .719-.196 1.276-.588 1.673-.392.396-.94.595-1.645.595-.895 0-1.653-.383-2.275-1.148l-.744.862c.306.455.75.812 1.332 1.072.582.26 1.18.39 1.791.39zm.125-4.396c-.704 0-1.252-.273-1.641-.818-.39-.545-.585-1.292-.585-2.243 0-1.071.197-1.88.592-2.428.394-.547.943-.82 1.648-.82.886 0 1.55.403 1.99 1.21v3.86c-.427.826-1.095 1.239-2.004 1.239zm7.075 1.071v-6.17c.348-.807.997-1.21 1.948-1.21 1.201 0 1.802.614 1.802 1.843V180h1.454v-5.607c.055-.543.26-.974.615-1.294.355-.32.802-.48 1.34-.48.649 0 1.111.15 1.387.449.276.299.414.75.414 1.353V180h1.447v-5.663c-.032-1.966-.976-2.95-2.831-2.95-.612 0-1.144.126-1.597.376a3.15 3.15 0 00-1.095.988c-.427-.909-1.232-1.363-2.414-1.363-1.053 0-1.89.366-2.511 1.099l-.035-.94h-1.37V180h1.446zm15.193.153c.932 0 1.735-.348 2.407-1.043.051.426.119.723.202.89h1.517v-.125c-.195-.46-.293-1.076-.293-1.85v-3.89c-.023-.857-.31-1.53-.862-2.017-.552-.487-1.315-.73-2.289-.73-.612 0-1.176.115-1.69.344-.515.23-.922.542-1.221.936-.3.394-.449.802-.449 1.224h1.454c0-.37.174-.686.522-.946.348-.26.781-.39 1.3-.39.59 0 1.035.15 1.336.45.302.298.452.7.452 1.206v.661h-1.405c-1.215 0-2.158.244-2.828.73-.67.487-1.005 1.171-1.005 2.053 0 .723.268 1.32.804 1.791.535.47 1.218.706 2.048.706zm.216-1.252c-.478 0-.867-.128-1.169-.383-.301-.255-.452-.61-.452-1.064 0-1.039.886-1.558 2.657-1.558h1.134v1.739c-.18.375-.475.68-.883.915a2.548 2.548 0 01-1.287.35zm6.74-8.78c.28 0 .491-.077.637-.232a.824.824 0 00.22-.588.853.853 0 00-.22-.591c-.146-.163-.358-.244-.636-.244-.283 0-.496.081-.64.244a.87.87 0 00-.216.598c0 .232.072.425.216.58.144.156.357.234.64.234zm.71 9.879v-8.452h-1.447V180h1.447zm3.882 0v-12h-1.447v12h1.447zm3.388 0c.297 0 .531-.083.703-.25a.828.828 0 00.236-.613c0-.269-.079-.484-.236-.647-.167-.171-.402-.257-.703-.257-.297 0-.526.086-.689.257-.153.163-.23.378-.23.647 0 .255.077.46.23.613.163.167.392.25.689.25zm6.852.153c.57 0 1.112-.13 1.624-.39.513-.26.923-.608 1.232-1.046.308-.439.476-.899.504-1.381h-1.37c-.042.468-.255.859-.64 1.172-.385.313-.835.47-1.35.47-.747 0-1.32-.264-1.722-.79-.4-.527-.601-1.277-.601-2.25v-.272c0-1.002.201-1.767.605-2.296.403-.528.974-.793 1.711-.793.543 0 1 .177 1.374.53.373.352.581.801.623 1.349h1.37c-.042-.91-.377-1.648-1.005-2.216-.628-.568-1.416-.852-2.362-.852-.774 0-1.443.177-2.007.532a3.48 3.48 0 00-1.3 1.492c-.304.64-.456 1.373-.456 2.198v.244c0 1.33.34 2.38 1.019 3.148.68.767 1.596 1.151 2.751 1.151zm8.452 0c.76 0 1.435-.182 2.021-.546a3.561 3.561 0 001.35-1.527c.313-.654.47-1.391.47-2.212v-.105c0-1.321-.355-2.381-1.065-3.179-.71-.797-1.64-1.196-2.79-1.196-.746 0-1.41.18-1.99.539-.579.36-1.032.87-1.36 1.534-.326.663-.49 1.407-.49 2.233v.104c0 1.313.356 2.367 1.068 3.162.712.795 1.64 1.193 2.786 1.193zm0-1.176c-.728 0-1.31-.284-1.746-.852-.436-.568-.654-1.32-.654-2.257 0-1.058.22-1.87.658-2.438.438-.569 1.014-.853 1.728-.853.729 0 1.313.288 1.753.863.441.575.661 1.326.661 2.254 0 1.039-.217 1.846-.65 2.42-.434.576-1.017.863-1.75.863zm7.096 1.023v-6.17c.348-.807.997-1.21 1.948-1.21 1.2 0 1.802.614 1.802 1.843V180h1.453v-5.607c.056-.543.261-.974.616-1.294.355-.32.801-.48 1.34-.48.648 0 1.111.15 1.387.449.276.299.414.75.414 1.353V180h1.447v-5.663c-.033-1.966-.976-2.95-2.831-2.95-.613 0-1.145.126-1.597.376a3.15 3.15 0 00-1.096.988c-.426-.909-1.23-1.363-2.413-1.363-1.053 0-1.89.366-2.512 1.099l-.035-.94h-1.37V180h1.447z" mask="url(#f)"/><path fill="#000000" fill-opacity=".12" mask="url(#f)" d="M123.683 238h1v40h-1zM239.345 238h1v40h-1z"/><path fill="#000000" fill-opacity=".56" fill-rule="nonzero" d="M76.801 246.055a28.5 28.5 0 00.1-1.905c.01-.597.016-1.074.016-1.43 0-.593-.006-1.226-.019-1.9a55.636 55.636 0 00-.31-4.431l-1.193.182c.138 1.279.248 2.902.329 4.87.012.337.018.694.018 1.071 0 .313-.004.64-.012.98-.02.755-.063 1.587-.128 2.496l1.2.067zm-5.983-6.769l.986-.986-.999-.998-.986.992.999.992zm2.495.012l.986-.992-.998-.992-.986.986.998.998zM70.66 246c.333 0 .655-.022.965-.067.31-.045.596-.122.855-.231.26-.11.49-.256.691-.439.201-.182.362-.411.484-.687.122-.28.183-.605.183-.974 0-.065-.002-.13-.006-.195-.029-.45-.134-.97-.317-1.558a7.904 7.904 0 00-.195-.563 12.304 12.304 0 00-.334-.786 1.499 1.499 0 01-.055-.124l-1.084.535.53 1.303a3.959 3.959 0 01.274 1.038c.008.107.012.187.012.24 0 .098-.006.189-.018.274-.02.13-.051.237-.092.323a.953.953 0 01-.34.398 1.674 1.674 0 01-.506.216c-.19.05-.397.079-.62.089-.224.01-.453.015-.688.015h-1.175V246h1.436zm-1.193 0v-1.193h-.121c-.256 0-.476-.026-.66-.08a.95.95 0 01-.418-.218.507.507 0 01-.161-.314 3.288 3.288 0 01-.021-.386v-3.056a42.483 42.483 0 00-.125-3.208 9.023 9.023 0 00-.095-.76l-1.193.218c.037.191.068.436.095.734.026.298.048.624.067.977.018.353.031.718.04 1.096.007.377.011.74.011 1.09.004.356.007.695.007 1.016v.236l-.007.628a184.932 184.932 0 00-.012.907c0 .097.002.214.006.35a2.35 2.35 0 00.216.886c.071.154.174.298.308.432.219.219.486.381.8.487.315.105.695.158 1.142.158h.121zm-8.613-6.397l.986-.986-.998-.999-.986.992.998.993zm2.496.012l.986-.992-.998-.993-.986.987.998.998zm-2.77 10.275c.45 0 .868-.056 1.251-.168a4.092 4.092 0 001.044-.462c.313-.197.59-.432.831-.703.241-.272.446-.57.615-.892.168-.323.3-.665.392-1.026a5.623 5.623 0 00.177-1.442c0-.256-.012-.51-.037-.761a6.57 6.57 0 00-.191-1.05 5.078 5.078 0 00-.36-.953 3.564 3.564 0 00-.526-.785 2.745 2.745 0 00-.758-.588 1.822 1.822 0 00-.83-.197c-.26 0-.512.067-.755.2a2.175 2.175 0 00-.664.585c-.11.138-.212.298-.307.48a4.128 4.128 0 00-.399 1.187 3.17 3.17 0 00-.049.53c0 .053.002.106.006.158.008.216.045.418.11.61.065.19.164.36.298.51.199.268.465.478.798.63.332.153.72.233 1.162.24l1.242.02c-.008.19-.044.388-.107.593a2.804 2.804 0 01-.27.605 3.126 3.126 0 01-.433.566c-.17.179-.365.335-.584.47-.22.133-.46.24-.724.319-.264.079-.548.118-.853.118-.292 0-.57-.026-.836-.079a3.293 3.293 0 01-.737-.234 2.666 2.666 0 01-.609-.384 2.159 2.159 0 01-.453-.526 2.293 2.293 0 01-.298-.764 3.86 3.86 0 01-.067-.673c0-.142.008-.288.024-.438a5.28 5.28 0 01.253-1.129c.131-.396.309-.8.532-1.214l-1.065-.573a9.168 9.168 0 00-.654 1.516c-.157.487-.251.97-.283 1.449a4.171 4.171 0 00.085 1.308c.09.41.24.788.45 1.133.183.312.403.582.66.81.258.226.54.415.847.565.306.15.634.261.983.332a5.39 5.39 0 001.077.107h.012zm2.587-5.077a8.974 8.974 0 01-.964-.058 2.47 2.47 0 01-.305-.064 1.487 1.487 0 01-.295-.115.675.675 0 01-.231-.195.638.638 0 01-.119-.271 1.6 1.6 0 01-.027-.29v-.09c.008-.126.027-.255.057-.387a2.724 2.724 0 01.268-.706c.055-.1.109-.182.162-.247.17-.21.328-.316.474-.316.142 0 .273.042.393.125.12.083.222.17.307.258.102.118.2.257.296.417.095.16.18.34.255.539.075.199.137.414.186.645.049.232.079.477.091.737a7.083 7.083 0 01-.548.018z" mask="url(#f)"/><path fill="#000000" fill-opacity=".87" fill-rule="nonzero" d="M66.43 276.348c0-.431 0-.896-.003-1.395a49.575 49.575 0 00-.111-3.1 23.01 23.01 0 00-.15-1.516c.283.07.59.105.919.105.422 0 .809-.077 1.161-.23a2.38 2.38 0 00.905-.689c.31-.394.525-.8.643-1.217.118-.417.178-.844.178-1.28 0-.223-.013-.457-.039-.703-.025-.245-.057-.5-.094-.765l-1.718.306c.028.181.049.341.063.48.014.14.02.302.02.487 0 .209-.004.422-.013.64a1.91 1.91 0 01-.115.595.997.997 0 01-.33.445c-.154.119-.374.18-.661.185h-.042c-.214 0-.397-.033-.55-.098a1.215 1.215 0 01-.428-.288 2.088 2.088 0 01-.33-.463 7.665 7.665 0 01-.292-.612 6.902 6.902 0 01-.174-.414 6.23 6.23 0 00-.33-.734 7.363 7.363 0 00-.254-.445l-1.475.946a4.324 4.324 0 01.355.702c.041.102.082.207.121.313.04.107.087.228.143.362.185.524.334 1.114.445 1.77.111.657.196 1.35.254 2.077.058.728.096 1.477.115 2.247.018.77.028 1.533.028 2.289h1.76z" mask="url(#f)"/><path fill="#000000" fill-opacity=".56" fill-rule="nonzero" d="M198.327 246.073c.378 0 .708-.053.992-.158.293-.106.536-.258.73-.457.196-.199.342-.439.439-.721.097-.282.146-.598.146-.947 0-.23-.021-.468-.064-.712a6.734 6.734 0 00-.164-.712 10.71 10.71 0 00-.752-1.899l-1.065.56a10.738 10.738 0 01.514 1.245c.087.257.163.52.225.788.063.268.095.517.095.749 0 .178-.02.339-.061.48a.814.814 0 01-.198.354.668.668 0 01-.31.185 1.37 1.37 0 01-.35.046c-.07 0-.142-.004-.22-.012a.568.568 0 01-.307-.119.741.741 0 01-.2-.256 1.287 1.287 0 01-.11-.359 2.647 2.647 0 01-.034-.429c0-.166.012-.356.037-.569.024-.213.052-.414.082-.603.03-.188.058-.35.082-.484l.03-.194-1.168-.213a14.56 14.56 0 01-.1.587 8.363 8.363 0 01-.165.697c-.067.24-.148.475-.243.706a3.216 3.216 0 01-.335.621c-.128.183-.274.33-.438.444a.956.956 0 01-.557.17.643.643 0 01-.323-.072.545.545 0 01-.2-.195.852.852 0 01-.104-.277c-.02-.104-.03-.21-.03-.32 0-.158.015-.33.048-.514.032-.185.07-.365.116-.542a11.172 11.172 0 01.255-.873l-1.205-.256c-.04.199-.09.41-.146.633a6.81 6.81 0 01-.207.667 4.861 4.861 0 01-.286.636c-.11.203-.239.382-.387.539a1.812 1.812 0 01-.508.377c-.19.095-.406.143-.645.143h-.134V246h.128c.235 0 .451-.02.648-.058a2.366 2.366 0 00.99-.432c.137-.103.267-.22.389-.35.065.15.157.282.277.396.12.113.252.209.398.286.146.077.3.135.46.173a1.989 1.989 0 001.446-.192c.308-.166.584-.391.827-.675.086.13.19.25.31.362.123.112.254.209.397.292.142.083.29.15.447.198.156.049.311.073.466.073h.042zm-6.982-.073v-1.193h-.121c-.256 0-.476-.026-.66-.08a.95.95 0 01-.418-.218.507.507 0 01-.161-.314 3.288 3.288 0 01-.021-.386v-3.056a42.483 42.483 0 00-.125-3.208 9.023 9.023 0 00-.094-.76l-1.193.218c.036.191.067.436.094.734.026.298.049.624.067.977.018.353.031.718.04 1.096.007.377.012.74.012 1.09.004.356.006.695.006 1.016v.236c-.002.23-.003.44-.006.628a184.984 184.984 0 00-.012.837v.07c0 .097.001.214.005.35a2.35 2.35 0 00.216.886c.072.154.174.298.308.432.22.219.486.381.8.487.315.105.695.158 1.142.158h.121zm-9.763-6.702l.992-.992-.998-.998-.992.992.998.998zM178.965 246a9.77 9.77 0 001.82-.17c.6-.114 1.181-.261 1.743-.442.562-.18 1.1-.382 1.614-.605.513-.224.993-.447 1.44-.67.303-.15.596-.293.876-.43.28-.135.562-.262.846-.38l-.232-1.156c-.251 0-.5-.026-.748-.08a5.987 5.987 0 01-.743-.21 9.844 9.844 0 01-.74-.294c-.245-.11-.487-.222-.727-.335-.219-.102-.436-.201-.651-.298a8.863 8.863 0 00-.633-.26 4.933 4.933 0 00-.612-.179 2.73 2.73 0 00-.593-.067 2.34 2.34 0 00-1.123.286c-.356.191-.691.477-1.008.859a4.13 4.13 0 00-.289.383 9.872 9.872 0 00-.213.335 3.1 3.1 0 00-.186.347l1.096.493a3.225 3.225 0 01.225-.399c.073-.111.16-.231.262-.359.101-.128.216-.247.344-.359.128-.112.267-.204.417-.277.15-.073.308-.11.475-.11.125 0 .263.02.413.058.15.039.31.09.478.156.169.064.343.139.524.222l.557.258c.247.118.499.234.755.347.255.114.523.22.803.317-.463.231-.943.456-1.443.676-.499.219-1.01.413-1.534.584-.523.17-1.055.307-1.594.41a8.58 8.58 0 01-1.62.156h-1.32V246h1.32zm-9.776-4.997l.986-.986-.998-.999-.986.992.998.993zm2.496.012l.986-.992-.999-.993-.986.987.999.998zm-1.766 5.003c2.31 0 4-.56 5.07-1.68.09.248.216.469.378.664.507.653 1.289.986 2.344.998h.17v-1.193h-.152c-.662-.004-1.134-.187-1.418-.548a1.217 1.217 0 01-.256-.511 3.023 3.023 0 01-.08-.548v-.049a5.072 5.072 0 01.137-.886c.027-.107.05-.197.07-.27l-1.156-.317c-.052.183-.112.37-.18.56-.066.191-.147.38-.243.566a3.52 3.52 0 01-.344.542 2.696 2.696 0 01-.48.481c-.419.34-.942.59-1.571.746-.629.156-1.392.234-2.289.234-1.002-.004-1.817-.11-2.444-.317-.627-.207-1.062-.519-1.305-.937a1.477 1.477 0 01-.195-.502 2.648 2.648 0 01-.043-.448c0-.052.002-.103.006-.152.009-.182.034-.357.077-.523.042-.167.086-.313.13-.438.045-.126.086-.228.122-.305a1.41 1.41 0 00.055-.122l-1.053-.578c-.02.029-.078.155-.174.38-.095.226-.193.531-.295.917-.048.182-.079.35-.091.502a4.048 4.048 0 00-.006.69c.016.212.056.423.119.634.062.21.153.416.27.615.366.616.953 1.068 1.763 1.354.81.286 1.83.433 3.064.441z" mask="url(#f)"/><path fill="#000000" fill-opacity=".87" fill-rule="nonzero" d="M171.003 276.39v-.73c0-.372-.002-.77-.007-1.197a49.633 49.633 0 00-.097-2.592 19.177 19.177 0 00-.111-1.179 97.953 97.953 0 00-.202-1.409c-.07-.461-.156-.904-.258-1.328a10.707 10.707 0 00-.365-1.21 5.4 5.4 0 00-.532-1.068l-1.468.904c.204.376.377.795.519 1.259.141.464.26.959.354 1.485.095.527.17 1.08.223 1.66.053.58.094 1.17.122 1.77.027.6.045 1.208.052 1.822.007.615.01 1.219.01 1.813h1.76zm4.48-.05c0-.426-.003-.89-.01-1.394a58.812 58.812 0 00-.125-3.082c-.035-.507-.08-.98-.136-1.415v-.042c.18.046.394.07.64.07.185 0 .355-.019.508-.056.153-.037.295-.092.428-.164.132-.071.256-.16.372-.264a4.54 4.54 0 00.348-.351c.125.139.26.255.403.348a2.186 2.186 0 00.863.33c.139.02.266.031.382.031.325 0 .604-.063.839-.191a2.35 2.35 0 00.643-.525c.2-.25.355-.538.466-.863.111-.324.167-.723.167-1.196a4.86 4.86 0 00-.052-.734 10.23 10.23 0 00-.06-.376l-.076-.442-.07-.382-1.731.32c.032.12.068.258.107.414.04.155.076.315.108.48.033.164.06.329.08.494.021.164.031.316.031.455 0 .223-.032.41-.097.56-.065.15-.183.226-.355.226a1.03 1.03 0 01-.108-.01.528.528 0 01-.177-.063.715.715 0 01-.198-.17.974.974 0 01-.17-.334c-.047-.181-.09-.344-.13-.49a6.91 6.91 0 01-.104-.446 5.565 5.565 0 01-.107-1.054l-1.67.216a7.104 7.104 0 01.035.466 13.113 13.113 0 01.014.473c-.01.19-.021.378-.035.564a2.33 2.33 0 01-.087.497.822.822 0 01-.198.351.498.498 0 01-.37.132.808.808 0 01-.343-.07.87.87 0 01-.286-.225 2.254 2.254 0 01-.267-.4c-.089-.162-.186-.36-.293-.591a24.25 24.25 0 00-.114-.282 10.3 10.3 0 00-.122-.282 9.012 9.012 0 00-.529-1.036l-1.586.925c.218.37.405.774.56 1.21.155.436.286.89.393 1.36.107.47.191.952.254 1.444a26.744 26.744 0 01.212 2.88c.01.459.014.892.014 1.3v.32a20.484 20.484 0 01-.028 1.065h1.767zm12.425.147l1.12-.995a2.38 2.38 0 01-.286-.55 9.558 9.558 0 01-.267-.792c-.086-.293-.165-.601-.237-.926a20.752 20.752 0 01-.188-.95 12.882 12.882 0 01-.122-.865 6.759 6.759 0 01-.041-.675v-1.05c0-.395-.02-.797-.06-1.207a8.789 8.789 0 00-.201-1.21 3.541 3.541 0 00-.431-1.058 2.305 2.305 0 00-.748-.748c-.306-.19-.687-.285-1.141-.285-.39 0-.738.09-1.044.271-.306.18-.57.414-.793.7a3.894 3.894 0 00-.546.96 4.96 4.96 0 00-.295 1.053c-.01.12-.014.239-.014.355 0 .394.067.74.201 1.036.172.38.426.687.762.919.336.231.706.386 1.11.462a6.27 6.27 0 001.628.101c.004.227.023.494.055.8.033.306.079.63.14.97.06.341.134.691.222 1.05.088.36.19.704.306 1.03.116.327.246.63.39.908.143.279.303.51.48.696zm-2.33-7.13c-.108 0-.214-.005-.32-.014-.534-.051-.903-.179-1.107-.383a.322.322 0 01-.1-.198 1.329 1.329 0 01.003-.365 2.725 2.725 0 01.153-.591c.227-.608.559-.912.995-.912.45 0 .76.336.932 1.009a4.078 4.078 0 01.083.448c.014.105.028.232.042.383.014.15.028.337.042.56a4.386 4.386 0 01-.724.063zm6.135 6.866c0-.005.029-.07.087-.195.058-.125.141-.29.25-.494.11-.204.245-.442.407-.713a15.586 15.586 0 011.249-1.77c.253-.311.526-.61.82-.898.295-.287.61-.555.943-.803a6.088 6.088 0 011.05-.63l.523-.243-.64-1.524c-.223.065-.453.129-.69.191-.236.063-.471.119-.705.167a8.013 8.013 0 01-.668.112 4.87 4.87 0 01-.581.038h-.09a2.658 2.658 0 01-.89-.153 1.49 1.49 0 01-.317-.157c-.086-.058-.138-.117-.157-.177a.987.987 0 01-.042-.285v-.07a1.14 1.14 0 01.07-.351c.042-.114.1-.22.174-.317.074-.097.164-.18.271-.25.2-.13.405-.232.616-.306a1.83 1.83 0 01.494-.118l.198-.007c.209 0 .422.032.64.097.232.074.47.195.717.362l.89-1.524a7.891 7.891 0 00-.522-.264 3.966 3.966 0 00-1.134-.327 4.79 4.79 0 00-.647-.042h-.111a3.331 3.331 0 00-2.216.904c-.294.279-.53.605-.706.978a2.792 2.792 0 00-.264 1.207c0 .334.061.646.184.936.123.29.289.543.498.761.208.218.453.391.734.519.28.127.578.193.894.198a3.92 3.92 0 00-.755.751 17.416 17.416 0 00-1.322 2.035 23.016 23.016 0 00-.786 1.551c-.077.17-.117.263-.122.282l1.656.529z" mask="url(#f)"/><path fill="#000000" fill-opacity=".56" fill-rule="nonzero" d="M303.628 246c.248 0 .481-.012.7-.037a2.77 2.77 0 00.621-.14 2.05 2.05 0 00.551-.298 2.48 2.48 0 00.496-.517c.187.138.39.273.609.405.22.131.447.243.685.334a2.63 2.63 0 00.983.198c.166 0 .333-.022.499-.067.264-.073.487-.204.67-.392.182-.189.326-.41.432-.664.105-.253.17-.486.194-.697.025-.21.037-.381.037-.511 0-.146-.01-.288-.03-.426a3.683 3.683 0 00-.217-.804 2.506 2.506 0 00-.416-.706 2.058 2.058 0 00-.63-.502 1.812 1.812 0 00-.85-.192c-.267 0-.502.054-.703.162-.2.107-.38.247-.535.42a3.21 3.21 0 00-.42.59c-.124.221-.24.445-.35.673-.126.251-.25.496-.375.733-.123.238-.27.449-.438.633a1.908 1.908 0 01-.612.445c-.24.111-.54.167-.9.167h-.122V246h.121zm4.627-1.266c-.163 0-.345-.04-.548-.122a4.697 4.697 0 01-1.01-.59l.328-.664c.101-.199.192-.371.27-.517.08-.146.155-.268.226-.365a.862.862 0 01.213-.216.408.408 0 01.228-.07c.122 0 .23.024.323.073.093.048.174.11.243.185.07.075.128.159.177.25a1.98 1.98 0 01.189.496c.016.069.026.118.03.146.016.11.024.215.024.317a1.822 1.822 0 01-.113.615 1.035 1.035 0 01-.167.298.389.389 0 01-.2.14.878.878 0 01-.213.024zm-8.34-4.498l.987-.986-.999-.999-.986.992.998.993zm2.496.012l.986-.992-.998-.993-.986.987.998.998zM299.228 246c.381 0 .713-.015.995-.046.282-.03.528-.077.74-.14a2.273 2.273 0 00.973-.569c.175.223.398.405.67.545s.613.21 1.022.21h.122v-1.193h-.122a.86.86 0 01-.508-.14.999.999 0 01-.31-.353 1.667 1.667 0 01-.162-.463 4.299 4.299 0 01-.066-.474 18.669 18.669 0 00-.11-1.054 5.718 5.718 0 00-.177-.827l-1.144.322c.09.309.151.583.186.822.034.24.051.475.051.706 0 .244-.04.457-.121.64a1.1 1.1 0 01-.38.456 1.85 1.85 0 01-.67.274c-.274.06-.604.091-.99.091h-.906V246h.907zm-5.972 4.492a11.123 11.123 0 001.492-.9 7.948 7.948 0 001.287-1.142c.375-.416.677-.865.904-1.348.227-.483.34-.99.34-1.522v-.024c.102.11.209.194.32.255a1.475 1.475 0 00.624.183c.09.004.163.006.22.006h.103v-1.193h-.098c-.202 0-.388-.049-.556-.146a1.645 1.645 0 01-.484-.46 4.3 4.3 0 01-.45-.81c-.147-.33-.297-.73-.451-1.201l-1.145.353c.05.15.108.337.177.563.069.225.138.465.207.721.069.256.133.516.192.782.058.266.102.514.13.746a2.272 2.272 0 01-.067.822 3.158 3.158 0 01-.331.785c-.148.251-.33.492-.545.721-.215.23-.45.447-.706.654a8.3 8.3 0 01-.816.582c-.288.18-.578.346-.87.496l.523 1.077zm-.718-4.437a28.5 28.5 0 00.1-1.905c.01-.597.016-1.074.016-1.43 0-.593-.006-1.226-.019-1.9a55.636 55.636 0 00-.31-4.431l-1.193.182c.138 1.279.247 2.902.329 4.87.012.337.018.694.018 1.071 0 .313-.004.64-.012.98-.02.755-.063 1.587-.128 2.496l1.199.067zm-4.547-7.006l.9-.901-.906-.907-.9.9.906.908zm-1.376 1.923l.987-.992-.999-.998-.986.992.998.998zm2.673.006l.986-.986-.999-.998-.986.986.999.998zm-3.957 9.38c.34-.166.677-.354 1.007-.563.331-.209.646-.437.944-.685.298-.247.574-.51.828-.79.253-.28.473-.575.657-.883.185-.309.329-.628.432-.96.104-.33.156-.672.156-1.025 0-.178-.015-.361-.043-.548a8.704 8.704 0 00-.107-.569c-.042-.193-.089-.387-.14-.584l-.149-.588a9.052 9.052 0 00-.152-.556 65.409 65.409 0 01-.17-.564l-1.157.366c.11.34.213.681.31 1.022l.14.512c.05.174.094.349.135.523.04.175.074.345.1.511.026.167.04.325.04.475 0 .394-.096.775-.287 1.145a4.51 4.51 0 01-.757 1.046 6.964 6.964 0 01-1.075.91 9.912 9.912 0 01-1.241.734l.53 1.071z" mask="url(#f)"/><path fill="#000000" fill-opacity=".87" fill-rule="nonzero" d="M289.986 276.39v-.73c0-.372-.002-.77-.007-1.197a49.629 49.629 0 00-.097-2.592 19.177 19.177 0 00-.111-1.179 97.953 97.953 0 00-.202-1.409c-.07-.461-.155-.904-.257-1.328a10.707 10.707 0 00-.366-1.21 5.4 5.4 0 00-.532-1.068l-1.468.904c.204.376.377.795.519 1.259.141.464.26.959.354 1.485.095.527.17 1.08.223 1.66.053.58.094 1.17.122 1.77.028.6.045 1.208.052 1.822.007.615.01 1.219.01 1.813h1.76zm7.298-.056c.459-.014.854-.117 1.186-.31.331-.192.604-.44.817-.744.213-.304.371-.648.473-1.033a4.57 4.57 0 00.153-1.176c0-.436-.06-.87-.18-1.304a7.776 7.776 0 00-.477-1.27 9.994 9.994 0 00-.682-1.203c-.257-.39-.525-.763-.803-1.12-.163-.2-.332-.394-.508-.584a17.61 17.61 0 00-.595-.61c-.22-.215-.468-.452-.744-.712l-.957-.898-1.224 1.204.271.285c-.306.473-.613.96-.922 1.461-.308.5-.585 1.016-.83 1.544a10.595 10.595 0 00-.603 1.632 6.45 6.45 0 00-.233 1.735c0 .357.048.715.143 1.072.095.357.242.68.442.97.2.29.453.531.761.724.309.192.674.302 1.096.33.348 0 .668-.075.96-.226.292-.15.55-.351.772-.602.195.25.435.452.72.605.285.153.602.23.95.23h.014zm-.021-1.711a.498.498 0 01-.327-.115.945.945 0 01-.237-.306 2.121 2.121 0 01-.16-.435 4.385 4.385 0 01-.097-.497 7.477 7.477 0 01-.063-.922l-1.307-.014a4.245 4.245 0 01-.09.63 10.9 10.9 0 01-.175.678 1.632 1.632 0 01-.18.42 1.454 1.454 0 01-.244.3.974.974 0 01-.268.18.625.625 0 01-.247.06.787.787 0 01-.39-.101 1.109 1.109 0 01-.32-.271 1.305 1.305 0 01-.219-.4 1.47 1.47 0 01-.08-.487c0-.478.063-.952.188-1.423.125-.47.292-.931.501-1.38.209-.45.451-.889.727-1.316.276-.426.567-.834.873-1.224.213.213.443.44.689.682.246.24.489.496.73.765s.472.548.692.838c.22.29.415.59.585.898.169.308.305.623.407.946.102.322.153.648.153.977 0 .167-.022.341-.066.522-.044.18-.113.344-.206.49a1.2 1.2 0 01-.354.362.912.912 0 01-.515.143zm9.614 1.71c.459-.013.854-.116 1.186-.309.331-.192.604-.44.817-.744.214-.304.371-.648.473-1.033a4.57 4.57 0 00.153-1.176c0-.436-.06-.87-.18-1.304a7.776 7.776 0 00-.477-1.27 9.994 9.994 0 00-.682-1.203c-.257-.39-.525-.763-.803-1.12-.163-.2-.332-.394-.508-.584a17.61 17.61 0 00-.595-.61 52.85 52.85 0 00-.744-.712l-.957-.898-1.224 1.204.271.285c-.306.473-.613.96-.922 1.461-.308.5-.585 1.016-.83 1.544a10.595 10.595 0 00-.603 1.632 6.45 6.45 0 00-.233 1.735c0 .357.048.715.143 1.072.095.357.242.68.442.97.2.29.453.531.761.724.309.192.674.302 1.096.33.348 0 .668-.075.96-.226.292-.15.55-.351.772-.602.195.25.435.452.72.605.285.153.602.23.95.23h.014zm-.021-1.71a.498.498 0 01-.327-.115.945.945 0 01-.237-.306 2.121 2.121 0 01-.16-.435 4.385 4.385 0 01-.097-.497 7.477 7.477 0 01-.063-.922l-1.307-.014a4.245 4.245 0 01-.09.63c-.047.21-.105.437-.175.678a1.632 1.632 0 01-.18.42 1.454 1.454 0 01-.244.3.974.974 0 01-.268.18.625.625 0 01-.247.06.787.787 0 01-.39-.101 1.11 1.11 0 01-.32-.271 1.305 1.305 0 01-.219-.4 1.47 1.47 0 01-.08-.487c0-.478.063-.952.188-1.423.125-.47.292-.931.501-1.38.209-.45.451-.889.727-1.316.276-.426.567-.834.873-1.224.213.213.443.44.689.682.246.24.489.496.73.765s.472.548.692.838c.22.29.415.59.585.898.169.308.305.623.407.946.102.322.153.648.153.977 0 .167-.022.341-.066.522-.044.18-.113.344-.206.49a1.2 1.2 0 01-.354.362.912.912 0 01-.515.143z" mask="url(#f)"/><path fill="#000000" fill-opacity=".56" d="M42.667 129.667c0 .46-.374.833-.834.833h-1.666v-4.166c0-1.379-1.122-2.5-2.5-2.5H33.5v-1.668c0-.459.373-.833.833-.833h7.5c.46 0 .834.374.834.833v7.501zm-4.167 4.167c0 .459-.373.833-.833.833h-7.5a.834.834 0 01-.834-.833v-7.5c0-.46.374-.834.834-.834h7.5c.46 0 .833.375.833.834v7.5zm3.333-14.168h-7.5a2.503 2.503 0 00-2.5 2.5v1.668h-1.666a2.503 2.503 0 00-2.5 2.5v7.5c0 1.378 1.121 2.5 2.5 2.5h7.5c1.378 0 2.5-1.122 2.5-2.5v-1.667h1.666c1.379 0 2.5-1.122 2.5-2.5v-7.5c0-1.38-1.121-2.5-2.5-2.5z" mask="url(#f)"/><circle cx="36" cy="176" r="19.5" fill="#000000" fill-opacity=".04" mask="url(#f)"/><path fill="#000000" fill-opacity=".87" d="M42.667 177.667c0 .46-.374.833-.834.833h-1.666v-4.166c0-1.379-1.122-2.5-2.5-2.5H33.5v-1.668c0-.459.373-.833.833-.833h7.5c.46 0 .834.374.834.833v7.501zm-4.167 4.167c0 .459-.373.833-.833.833h-7.5a.834.834 0 01-.834-.833v-7.5c0-.46.374-.834.834-.834h7.5c.46 0 .833.375.833.834v7.5zm3.333-14.168h-7.5a2.503 2.503 0 00-2.5 2.5v1.668h-1.666a2.503 2.503 0 00-2.5 2.5v7.5c0 1.378 1.121 2.5 2.5 2.5h7.5c1.378 0 2.5-1.122 2.5-2.5v-1.667h1.666c1.379 0 2.5-1.122 2.5-2.5v-7.5c0-1.38-1.121-2.5-2.5-2.5z" mask="url(#f)"/></g><g mask="url(#b)"><g filter="url(#g)" transform="translate(41.14 178.977)"><path fill="#FFF" fill-rule="nonzero" d="M3.27 12.28c-.28-.36-.63-1.09-1.24-2C1.68 9.78.82 8.83.56 8.34a1.26 1.26 0 01-.15-1 1.32 1.32 0 011.43-1c.51.103.98.353 1.35.72.258.243.496.507.71.79.16.2.2.28.38.51.18.23.3.46.21.12-.07-.5-.19-1.34-.36-2.09-.13-.57-.16-.66-.28-1.09-.12-.43-.19-.79-.32-1.28a14.16 14.16 0 01-.28-1.46A2.82 2.82 0 013.51.71a1.19 1.19 0 011.3-.22c.44.325.77.78.94 1.3a7.73 7.73 0 01.52 2c.16 1 .47 2.46.48 2.76 0-.37-.07-1.15 0-1.5a1.07 1.07 0 01.67-.8 2 2 0 01.92-.06c.31.065.585.243.77.5a5.42 5.42 0 01.38 1.83 6.73 6.73 0 01.28-1.62 1.24 1.24 0 01.69-.48c.33-.06.67-.06 1 0 .271.09.508.262.68.49.212.53.34 1.09.38 1.66 0 .14.07-.39.29-.74a1.002 1.002 0 111.9.64v2.26a11.74 11.74 0 01-.24 1.74 5.91 5.91 0 01-.72 1.43 7.21 7.21 0 00-1.19 1.81 4 4 0 00-.1 1c-.001.31.04.62.12.92a5.85 5.85 0 01-1.23 0c-.39-.06-.87-.84-1-1.08a.38.38 0 00-.68 0c-.22.38-.71 1.07-1.05 1.11-.67.08-2.05 0-3.14 0 0 0 .18-1-.23-1.36-.41-.36-.83-.78-1.14-1.06l-.84-.96z"/><path stroke="#000" stroke-linecap="round" stroke-linejoin="round" stroke-width=".75" d="M3.27 12.28c-.28-.36-.63-1.09-1.24-2C1.68 9.78.82 8.83.56 8.34a1.26 1.26 0 01-.15-1 1.32 1.32 0 011.43-1c.51.103.98.353 1.35.72.258.243.496.507.71.79.16.2.2.28.38.51.18.23.3.46.21.12-.07-.5-.19-1.34-.36-2.09-.13-.57-.16-.66-.28-1.09-.12-.43-.19-.79-.32-1.28a14.16 14.16 0 01-.28-1.46A2.82 2.82 0 013.51.71a1.19 1.19 0 011.3-.22c.44.325.77.78.94 1.3a7.73 7.73 0 01.52 2c.16 1 .47 2.46.48 2.76 0-.37-.07-1.15 0-1.5a1.07 1.07 0 01.67-.8 2 2 0 01.92-.06c.31.065.585.243.77.5a5.42 5.42 0 01.38 1.83 6.73 6.73 0 01.28-1.62 1.24 1.24 0 01.69-.48c.33-.06.67-.06 1 0 .271.09.508.262.68.49.212.53.34 1.09.38 1.66 0 .14.07-.39.29-.74a1.002 1.002 0 111.9.64v2.26a11.74 11.74 0 01-.24 1.74 5.91 5.91 0 01-.72 1.43 7.21 7.21 0 00-1.19 1.81 4 4 0 00-.1 1c-.001.31.04.62.12.92a5.85 5.85 0 01-1.23 0c-.39-.06-.87-.84-1-1.08a.38.38 0 00-.68 0c-.22.38-.71 1.07-1.05 1.11-.67.08-2.05 0-3.14 0 0 0 .18-1-.23-1.36-.41-.36-.83-.78-1.14-1.06l-.84-.96z"/><path fill="#000" fill-rule="nonzero" d="M11.75 12.826V9.374a.375.375 0 00-.75 0v3.452a.375.375 0 00.75 0zm-1.98-.001L9.75 9.37a.374.374 0 00-.75.004l.02 3.454a.374.374 0 00.75-.004zM7 9.379l.02 3.446a.376.376 0 10.75-.004l-.02-3.446a.376.376 0 10-.75.004z"/></g></g><g mask="url(#b)"><g transform="translate(63.695 156.084)"><rect width="88" height="40" fill="#2D284D" fill-opacity=".87" rx="4"/><path fill="#FFF" fill-rule="nonzero" d="M73.23 23c.69 0 1.216-.183 1.581-.548.129-.132.23-.276.306-.433a2.515 2.515 0 00.242-.908c.007-.128.01-.24.01-.334v-.135c0-.115-.002-.249-.007-.402l-.019-.543c-.006-.208-.015-.447-.026-.717-.01-.27-.02-.577-.03-.92a60.925 60.925 0 00-.2-2.907l-1.022.11c.004.03.012.124.026.279a47.494 47.494 0 01.157 2.554l.062 1.578c.018.426.027.752.027.978v.058c0 .497-.09.836-.267 1.017-.167.167-.447.25-.84.25h-.396V23h.396zm-4.064 0c.327 0 .611-.013.853-.04.242-.025.453-.065.634-.12a1.948 1.948 0 00.835-.487c.15.191.34.347.574.467.233.12.525.18.876.18h.105v-1.023h-.105a.737.737 0 01-.435-.12.856.856 0 01-.266-.302 1.429 1.429 0 01-.139-.397 3.685 3.685 0 01-.057-.407 16.002 16.002 0 00-.094-.902 4.9 4.9 0 00-.151-.71l-.981.277c.076.264.13.499.159.704.03.205.044.407.044.605 0 .209-.035.392-.104.548a.942.942 0 01-.326.391c-.148.105-.34.183-.574.235a3.964 3.964 0 01-.848.078h-.777V23h.777zm.193 2.551l.845-.845-.855-.856-.846.85.856.851zm2.14.01l.844-.85-.855-.85-.845.845.855.856zm-5.13-7.371l.851-.85-.856-.857-.85.85.856.857zM64.904 23c.512 0 .941-.053 1.29-.16.347-.105.63-.268.85-.487.15.191.34.347.574.467.233.12.525.18.876.18h.104v-1.023h-.104a.737.737 0 01-.436-.12.856.856 0 01-.266-.302 1.429 1.429 0 01-.138-.397 3.685 3.685 0 01-.057-.407 16.002 16.002 0 00-.094-.902 4.9 4.9 0 00-.152-.71l-.98.277c.076.264.13.499.159.704.03.205.044.407.044.605 0 .414-.132.726-.396.937-.265.21-.69.315-1.274.315h-.193V23h.193zm.016 0v-1.023h-.146a3.482 3.482 0 01-.569-.052 1.862 1.862 0 01-.464-.146c-.212-.1-.391-.22-.537-.36a2.435 2.435 0 01-.373-.449 2.91 2.91 0 01-.256-.495c-.068-.17-.13-.34-.185-.506a4.074 4.074 0 00-.379-.796 6.104 6.104 0 00-.563-.777 7.42 7.42 0 00-.715-.73 9.061 9.061 0 00-.832-.66l4.132-1.743-.391-.95-4.68 2.014-.141 1.153c.14.108.303.237.49.386a13.194 13.194 0 011.172 1.06c.193.197.362.397.508.6.147.201.256.391.33.57.072.18.109.342.109.488a.895.895 0 01-.253.626c-.145.157-.37.293-.676.407-.233.09-.572.163-1.017.217a23.643 23.643 0 01-1.967.133c-.136 0-.28-.005-.433-.016a8.987 8.987 0 01-1.503-.24 6.1 6.1 0 01-.683-.214 2.669 2.669 0 01-.538-.27.864.864 0 01-.308-.324.795.795 0 01-.078-.36v-.047c.007-.15.037-.305.089-.465.052-.16.119-.316.2-.47.082-.152.167-.29.254-.411l-.825-.616a11.685 11.685 0 00-.17.28 5.46 5.46 0 00-.3.607c-.152.348-.237.61-.252.788a4.99 4.99 0 00-.024.365c0 .212.032.407.094.584.08.233.206.44.378.621.173.181.377.34.613.478.237.137.5.253.79.346.291.094.596.17.914.23.318.06.644.102.978.128.334.026.665.039.991.039.616 0 1.154-.017 1.615-.05.461-.033.864-.096 1.208-.19s.64-.226.887-.397c.247-.17.463-.393.647-.667.31.431.703.755 1.18.973a3.808 3.808 0 001.575.331h.104zm-19.492 0c.18 0 .332-.012.454-.037.737-.135 1.26-.478 1.57-1.027.073-.133.137-.279.19-.439.055-.16.088-.303.1-.43.012-.127.018-.227.018-.3 0-.125-.01-.257-.031-.397a3.124 3.124 0 00-.188-.678 4.385 4.385 0 00-.397-.759 6.458 6.458 0 00-.652-.837 8.133 8.133 0 00-.6-.6c-.201-.181-.388-.345-.558-.49l3.736-1.571-.402-.95-4.289 1.837-.12 1.07a13.228 13.228 0 011.586 1.516c.223.251.41.488.561.709.152.22.246.402.285.545a2.106 2.106 0 01.067.662c-.02.206-.088.397-.203.574a.944.944 0 01-.402.337c-.17.078-.358.135-.563.172a4.25 4.25 0 01-.647.063c-.226.005-.444.007-.652.007h-.653V23h1.79zm-5.457 0c.327 0 .61-.013.853-.04.241-.025.453-.065.634-.12a1.948 1.948 0 00.834-.487c.15.191.341.347.574.467.233.12.525.18.877.18h.104v-1.023h-.104a.737.737 0 01-.436-.12.856.856 0 01-.266-.302 1.429 1.429 0 01-.138-.397 3.685 3.685 0 01-.058-.407 16.002 16.002 0 00-.094-.902 4.9 4.9 0 00-.15-.71l-.982.277c.077.264.13.499.16.704.029.205.044.407.044.605 0 .209-.035.392-.105.548a.942.942 0 01-.326.391c-.148.105-.339.183-.574.235a3.964 3.964 0 01-.847.078h-.778V23h.778zm2.441 2.718l.856-.855-.845-.846-.856.856.845.845zm-2.28.01l.856-.855-.845-.85-.856.855.845.85zm1.164 1.493l.777-.778-.772-.772-.777.778.772.772zm-6.616-.82c.23 0 .487-.015.772-.046.286-.032.573-.084.864-.157.29-.073.573-.168.848-.284.274-.117.52-.26.735-.43.216-.171.39-.371.522-.6a1.589 1.589 0 00.183-1.028 1.097 1.097 0 00-.084-.272c-.042-.094-.1-.19-.175-.29a1.767 1.767 0 00-.29-.294h1.347v-1.023h-4.117l-.078 1.018.115.02a7.275 7.275 0 01.5.115c.105.028.217.06.337.094.12.035.241.073.363.115.198.073.365.146.5.22.136.072.247.141.332.205a.8.8 0 01.185.183.283.283 0 01.058.149c0 .17-.059.32-.175.448-.117.129-.265.24-.446.334-.181.094-.384.173-.608.238a6.537 6.537 0 01-1.26.234 5.418 5.418 0 01-.428.024c-.174 0-.373-.004-.597-.01a3.804 3.804 0 01-.679-.084 2.59 2.59 0 01-.657-.237 1.461 1.461 0 01-.53-.473c-.219-.333-.328-.768-.328-1.304 0-.845.273-1.939.819-3.282l-.955-.386c-.546 1.322-.842 2.456-.887 3.402a6.398 6.398 0 00-.005.256c0 .761.169 1.39.506 1.883.16.271.366.49.618.655.253.165.527.293.825.383.297.09.608.15.931.18.323.03.637.045.94.045zm-8.18-10.34l.771-.772-.777-.778-.772.772.777.778zm-1.18 1.649l.845-.85-.855-.857-.846.85.856.857zm2.29.005l.846-.845-.856-.856-.845.845.856.856zm.178 5.348c.323 0 .607-.046.85-.136.25-.09.46-.22.626-.391a1.63 1.63 0 00.376-.619c.084-.241.125-.512.125-.81 0-.2-.018-.403-.054-.611a5.772 5.772 0 00-.141-.61 9.18 9.18 0 00-.607-1.552l-.038-.077-.913.48a9.204 9.204 0 01.441 1.067c.075.221.14.446.193.676.054.23.081.443.081.642a1.5 1.5 0 01-.052.412.698.698 0 01-.17.303.573.573 0 01-.266.159c-.099.026-.199.039-.3.039-.059 0-.121-.004-.188-.01a.487.487 0 01-.263-.102.636.636 0 01-.172-.22 1.103 1.103 0 01-.094-.307 2.27 2.27 0 01-.029-.368c0-.143.01-.305.031-.488.021-.183.045-.355.07-.517.027-.161.05-.3.071-.414l.026-.167-1.001-.183c-.021.143-.05.31-.086.504a7.168 7.168 0 01-.141.597 5.408 5.408 0 01-.209.605 2.756 2.756 0 01-.287.532c-.11.157-.235.284-.376.381a.82.82 0 01-.477.146.551.551 0 01-.276-.062.467.467 0 01-.173-.167.73.73 0 01-.088-.238 1.42 1.42 0 01-.026-.274c0-.135.013-.282.041-.44.028-.159.061-.313.1-.465a9.577 9.577 0 01.219-.748l-1.033-.22c-.035.17-.077.352-.126.543a5.838 5.838 0 01-.177.571c-.07.19-.151.372-.245.546a2.155 2.155 0 01-.332.461 1.554 1.554 0 01-.435.324 1.22 1.22 0 01-.553.122h-.115V23h.11c.201 0 .386-.017.555-.05a2.028 2.028 0 00.848-.37c.118-.089.23-.189.334-.3.056.129.135.242.237.34.103.097.217.178.342.244a1.705 1.705 0 001.633-.016c.264-.142.5-.335.71-.578.073.11.161.214.266.31.104.096.217.18.339.25.122.072.25.128.383.17.134.042.267.063.4.063h.036zM21.803 23v-1.023h-.105c-.208 0-.38-.027-.516-.08a.933.933 0 01-.34-.225 1.316 1.316 0 01-.232-.35 75.642 75.642 0 01-.584-1.367 2925.045 2925.045 0 01-1.213-2.945l-.95.397 1.65 3.965c-.06.06-.146.13-.26.211a1.98 1.98 0 01-.435.227 1.84 1.84 0 01-.477.128c-.13.012-.229.019-.295.019-.139 0-.278-.016-.417-.047a2.393 2.393 0 01-.632-.24 3.085 3.085 0 01-.63-.465l-.59.83a3.4 3.4 0 00.967.712c.35.169.73.253 1.14.253.247 0 .47-.015.668-.044a3.15 3.15 0 00.55-.13c.17-.058.328-.13.475-.217.148-.087.295-.188.441-.303a1.8 1.8 0 00.261.269c.101.085.218.159.352.222.134.062.289.112.465.148.175.037.376.055.602.055h.105zm-7.717-2.405l.136-4.55V14.46h-1.205v1.586l.198 4.55h.871zm-.506 2.447l.85-.85-.813-.815-.846.856.809.809z"/></g></g></g></svg>