<svg xmlns="http://www.w3.org/2000/svg" xmlns:xlink="http://www.w3.org/1999/xlink" width="422" height="344"><defs><filter id="b" width="195%" height="200%" x="-47.5%" y="-47.5%" filterUnits="objectBoundingBox"><feOffset in="SourceAlpha" result="shadowOffsetOuter1"/><feGaussianBlur in="shadowOffsetOuter1" result="shadowBlurOuter1" stdDeviation="6"/><feComposite in="shadowBlurOuter1" in2="SourceAlpha" operator="out" result="shadowBlurOuter1"/><feColorMatrix in="shadowBlurOuter1" result="shadowMatrixOuter1" values="0 0 0 0 0 0 0 0 0 0 0 0 0 0 0 0 0 0 0.08 0"/><feOffset dy="4" in="SourceAlpha" result="shadowOffsetOuter2"/><feGaussianBlur in="shadowOffsetOuter2" result="shadowBlurOuter2" stdDeviation="5"/><feComposite in="shadowBlurOuter2" in2="SourceAlpha" operator="out" result="shadowBlurOuter2"/><feColorMatrix in="shadowBlurOuter2" result="shadowMatrixOuter2" values="0 0 0 0 0 0 0 0 0 0 0 0 0 0 0 0 0 0 0.12 0"/><feMorphology in="SourceAlpha" radius=".5" result="shadowSpreadOuter3"/><feOffset dy="2" in="shadowSpreadOuter3" result="shadowOffsetOuter3"/><feGaussianBlur in="shadowOffsetOuter3" result="shadowBlurOuter3" stdDeviation="3"/><feComposite in="shadowBlurOuter3" in2="SourceAlpha" operator="out" result="shadowBlurOuter3"/><feColorMatrix in="shadowBlurOuter3" result="shadowMatrixOuter3" values="0 0 0 0 0 0 0 0 0 0 0 0 0 0 0 0 0 0 0.24 0"/><feMerge><feMergeNode in="shadowMatrixOuter1"/><feMergeNode in="shadowMatrixOuter2"/><feMergeNode in="shadowMatrixOuter3"/></feMerge></filter><filter id="d" width="121.9%" height="162.5%" x="-10.9%" y="-31.2%" filterUnits="objectBoundingBox"><feOffset dy="2" in="SourceAlpha" result="shadowOffsetOuter1"/><feGaussianBlur in="shadowOffsetOuter1" result="shadowBlurOuter1" stdDeviation="4"/><feColorMatrix in="shadowBlurOuter1" result="shadowMatrixOuter1" values="0 0 0 0 0 0 0 0 0 0 0 0 0 0 0 0 0 0 0.16 0"/><feMerge><feMergeNode in="shadowMatrixOuter1"/><feMergeNode in="SourceGraphic"/></feMerge></filter><circle id="c" cx="20" cy="20" r="20"/><rect id="a" width="422" height="344" x="0" y="0" rx="4"/></defs><g fill="none" fill-rule="evenodd"><use fill="#000" fill-opacity="0" xlink:href="#a"/><g transform="translate(191.5 186)"><use fill="#000" filter="url(#b)" xlink:href="#c"/><circle cx="20" cy="20" r="19.5" fill="#EA475B"/><path fill="#FFF" d="M23.444 26.667c-.766 0-1.388-.636-1.388-1.417 0-.257.072-.493.19-.702 0-.002.003-.004.005-.007s.002-.007.003-.01a1.38 1.38 0 011.19-.698c.766 0 1.39.636 1.39 1.417 0 .78-.624 1.417-1.39 1.417m-8.888-5.25c-.766 0-1.39-.635-1.39-1.417s.624-1.417 1.39-1.417c.766 0 1.388.635 1.388 1.417s-.622 1.417-1.388 1.417m8.888-8.084c.766 0 1.39.636 1.39 1.417 0 .78-.624 1.417-1.39 1.417-.766 0-1.388-.636-1.388-1.417 0-.78.622-1.417 1.388-1.417m0 8.834c-.82 0-1.562.332-2.111.865l-3.83-2.26c.063-.249.108-.504.108-.772s-.045-.523-.11-.772l3.829-2.261c.55.534 1.293.866 2.114.866 1.685 0 3.056-1.383 3.056-3.083 0-1.7-1.37-3.083-3.056-3.083-1.684 0-3.055 1.383-3.055 3.083 0 .268.045.524.11.772l-3.828 2.261a3.027 3.027 0 00-2.115-.866c-1.685 0-3.056 1.382-3.056 3.083 0 1.7 1.37 3.083 3.056 3.083.822 0 1.566-.332 2.115-.867l3.828 2.259c-.064.248-.11.506-.11.775 0 1.7 1.371 3.083 3.055 3.083 1.685 0 3.056-1.383 3.056-3.083 0-1.7-1.37-3.083-3.056-3.083"/><path fill="#FFF" fill-rule="nonzero" d="M15.27 40.28c-.28-.36-.63-1.09-1.24-2-.35-.5-1.21-1.45-1.47-1.94a1.26 1.26 0 01-.15-1 1.32 1.32 0 011.43-1c.51.103.98.353 1.35.72.258.243.496.507.71.79.16.2.2.28.38.51.18.23.3.46.21.12-.07-.5-.19-1.34-.36-2.09-.13-.57-.16-.66-.28-1.09-.12-.43-.19-.79-.32-1.28a14.16 14.16 0 01-.28-1.46 2.82 2.82 0 01.26-1.85 1.19 1.19 0 011.3-.22c.44.325.77.78.94 1.3a7.73 7.73 0 01.52 2c.16 1 .47 2.46.48 2.76 0-.37-.07-1.15 0-1.5a1.07 1.07 0 01.67-.8 2 2 0 01.92-.06c.31.065.585.243.77.5a5.42 5.42 0 01.38 1.83 6.73 6.73 0 01.28-1.62 1.24 1.24 0 01.69-.48c.33-.06.67-.06 1 0 .271.09.508.262.68.49.212.53.34 1.09.38 1.66 0 .14.07-.39.29-.74a1.002 1.002 0 011.9.64v2.26a11.74 11.74 0 01-.24 1.74 5.91 5.91 0 01-.72 1.43 7.21 7.21 0 00-1.19 1.81 4 4 0 00-.1 1c-.001.31.04.62.12.92a5.85 5.85 0 01-1.23 0c-.39-.06-.87-.84-1-1.08a.38.38 0 00-.68 0c-.22.38-.71 1.07-1.05 1.11-.67.08-2.05 0-3.14 0 0 0 .18-1-.23-1.36-.41-.36-.83-.78-1.14-1.06l-.84-.96z"/><path stroke="#000" stroke-linecap="round" stroke-linejoin="round" stroke-width=".75" d="M15.27 40.28c-.28-.36-.63-1.09-1.24-2-.35-.5-1.21-1.45-1.47-1.94a1.26 1.26 0 01-.15-1 1.32 1.32 0 011.43-1c.51.103.98.353 1.35.72.258.243.496.507.71.79.16.2.2.28.38.51.18.23.3.46.21.12-.07-.5-.19-1.34-.36-2.09-.13-.57-.16-.66-.28-1.09-.12-.43-.19-.79-.32-1.28a14.16 14.16 0 01-.28-1.46 2.82 2.82 0 01.26-1.85 1.19 1.19 0 011.3-.22c.44.325.77.78.94 1.3a7.73 7.73 0 01.52 2c.16 1 .47 2.46.48 2.76 0-.37-.07-1.15 0-1.5a1.07 1.07 0 01.67-.8 2 2 0 01.92-.06c.31.065.585.243.77.5a5.42 5.42 0 01.38 1.83 6.73 6.73 0 01.28-1.62 1.24 1.24 0 01.69-.48c.33-.06.67-.06 1 0 .271.09.508.262.68.49.212.53.34 1.09.38 1.66 0 .14.07-.39.29-.74a1.002 1.002 0 011.9.64v2.26a11.74 11.74 0 01-.24 1.74 5.91 5.91 0 01-.72 1.43 7.21 7.21 0 00-1.19 1.81 4 4 0 00-.1 1c-.001.31.04.62.12.92a5.85 5.85 0 01-1.23 0c-.39-.06-.87-.84-1-1.08a.38.38 0 00-.68 0c-.22.38-.71 1.07-1.05 1.11-.67.08-2.05 0-3.14 0 0 0 .18-1-.23-1.36-.41-.36-.83-.78-1.14-1.06l-.84-.96z"/><path fill="#000" fill-rule="nonzero" d="M23.75 40.826v-3.452a.375.375 0 00-.75 0v3.452a.375.375 0 00.75 0zm-1.98-.001l-.02-3.454a.374.374 0 00-.75.004l.02 3.454a.374.374 0 00.75-.004zM19 37.379l.02 3.446a.376.376 0 10.75-.004l-.02-3.446a.376.376 0 10-.75.004z"/></g><g filter="url(#d)" opacity=".96" transform="translate(120 114)"><path fill="#FFF" d="M4.5 56a4 4 0 01-4-4V4a4 4 0 014-4h174a4 4 0 014 4v48a4 4 0 01-4 4H99.427l-7.071 7.071a2 2 0 01-2.828 0L82.456 56H4.5z"/><g transform="translate(12.5 12)"><rect width="77" height="31" x=".5" y=".5" stroke="#000000" stroke-opacity=".48" rx="4"/><path fill="#000000" fill-opacity=".56" fill-rule="nonzero" d="M61.26 20.183c.394 0 .77-.066 1.13-.198.358-.132.674-.319.946-.56a2.66 2.66 0 00.888-2.036c0-.215-.027-.453-.082-.712a4.659 4.659 0 00-.262-.822 6.115 6.115 0 00-.471-.898 6.918 6.918 0 00-.712-.934 9.848 9.848 0 00-.551-.566 13.23 13.23 0 00-.545-.487l3.969-1.717-.615-1.449-4.845 2.155-.165 1.455c.386.353.746.7 1.08 1.04.335.342.627.673.874.996.248.323.442.637.584.943.143.307.214.606.214.898 0 .223-.039.411-.116.563a1.059 1.059 0 01-.317.378c-.134.1-.29.175-.468.228a3.494 3.494 0 01-.566.116 6.027 6.027 0 01-.618.042 32.47 32.47 0 01-.618.006h-.761v1.559h2.027zm-6.988 0c.284 0 .596-.003.935-.01.338-.006.668-.03.989-.073.32-.042.611-.11.873-.2.262-.092.46-.223.594-.393.19.199.422.361.694.487.271.126.604.189.998.189h.122v-1.559h-.122a.776.776 0 01-.438-.124 1.193 1.193 0 01-.32-.31 1.536 1.536 0 01-.204-.409 1.914 1.914 0 01-.091-.417 37.15 37.15 0 00-.046-.557 10.32 10.32 0 00-.049-.438 4.777 4.777 0 00-.073-.408 7.394 7.394 0 00-.124-.471l-1.498.42c.106.36.185.656.238.885.052.23.079.413.079.551 0 .211-.045.397-.134.557-.09.16-.235.293-.435.399-.201.105-.464.185-.789.24a7.369 7.369 0 01-1.199.082h-.225v1.559h.225zm1.084 3.11l1.034-1.035-1.047-1.047-1.034 1.041 1.047 1.041zm2.3.012l1.035-1.04-1.047-1.042-1.034 1.035 1.047 1.047zM56.5 24.967l.95-.95-.95-.955-.956.95.956.955zm-7.718-.816c.276 0 .583-.021.922-.064.339-.042.683-.11 1.032-.204.349-.093.69-.214 1.022-.362.333-.148.63-.328.892-.541.262-.213.476-.461.642-.743.167-.282.258-.602.274-.959a2.107 2.107 0 00-.088-.508 1.66 1.66 0 00-.326-.587h1.138v-1.559h-4.833l-.207 1.522c.272.049.546.095.822.14.276.045.554.114.834.207.19.073.37.15.536.228.166.08.311.156.435.229.124.073.221.139.292.197.071.06.107.103.107.131 0 .175-.07.327-.21.457-.14.13-.32.243-.542.34a4.33 4.33 0 01-.74.244c-.272.065-.536.118-.794.158a8.846 8.846 0 01-1.208.11c-.191 0-.415-.005-.673-.015a5.05 5.05 0 01-.785-.095 3.14 3.14 0 01-.758-.252 1.588 1.588 0 01-.596-.496 2.539 2.539 0 01-.402-1.406 7.51 7.51 0 01.167-1.607c.063-.3.15-.626.259-.977.11-.351.247-.734.414-1.148l-1.254-.578c-.175.418-.32.808-.438 1.169-.118.36-.214.703-.29 1.025-.075.323-.133.63-.176.923-.043.292-.076.578-.1.858a5.132 5.132 0 00-.019.426c0 .52.086.984.256 1.394.211.523.525.959.943 1.305a4.16 4.16 0 001.516.78 6.902 6.902 0 001.936.258zM36.37 20.183c.467 0 .869-.063 1.206-.19.336-.125.614-.304.834-.538.219-.233.381-.517.487-.852.105-.335.158-.711.158-1.13 0-.137-.002-.28-.006-.428a37.06 37.06 0 00-.022-.572c-.01-.234-.02-.528-.033-.883l-.043-1.36a127.13 127.13 0 00-.106-2.058 52.402 52.402 0 00-.125-1.674l-1.534.329.027.371c.015.203.03.46.05.773.017.313.037.668.057 1.066.02.397.039.813.055 1.247.036.512.063.937.079 1.276a22.476 22.476 0 01.028.997v.369c-.003.13-.004.242-.004.335 0 .243-.015.451-.045.624a.99.99 0 01-.168.423.694.694 0 01-.34.24c-.147.051-.331.076-.555.076h-.462v1.559h.462zm-5.423 0c.284 0 .595-.003.934-.01.34-.006.669-.03.99-.073.32-.042.611-.11.873-.2.262-.092.46-.223.593-.393.191.199.422.361.694.487.272.126.605.189.999.189h.121v-1.559h-.121a.776.776 0 01-.439-.124 1.193 1.193 0 01-.32-.31 1.536 1.536 0 01-.203-.409 1.914 1.914 0 01-.091-.417c-.017-.215-.032-.4-.046-.557a10.32 10.32 0 00-.049-.438 4.777 4.777 0 00-.073-.408 7.394 7.394 0 00-.125-.471l-1.497.42c.105.36.185.656.237.885.053.23.08.413.08.551 0 .211-.045.397-.134.557-.09.16-.235.293-.436.399-.2.105-.463.185-.788.24a7.369 7.369 0 01-1.199.082h-.225v1.559h.225zm1.004 2.836l1.035-1.035-1.047-1.047-1.035 1.041 1.047 1.041zm2.301.012l1.035-1.04-1.047-1.041-1.035 1.034 1.047 1.047zm-5.886-8.473l1.169-1.168-1.169-1.163-1.163 1.163 1.163 1.168zm-1.71 5.625c.572 0 1.058-.055 1.457-.165.4-.11.74-.28 1.02-.511.19.199.425.361.703.487.278.126.614.189 1.007.189h.122v-1.559h-.122a.626.626 0 01-.404-.124.905.905 0 01-.247-.31 1.525 1.525 0 01-.13-.409 5.105 5.105 0 01-.059-.417 43.995 43.995 0 00-.045-.563 6.528 6.528 0 00-.134-.87c-.03-.14-.072-.3-.125-.478l-1.497.42c.105.361.186.663.243.904.057.241.085.431.085.57 0 .425-.157.745-.471.958-.315.213-.782.32-1.403.32h-.226v1.558h.226zm-7.658.018c.24 0 .5-.002.78-.006s.563-.02.852-.046c.288-.026.574-.068.858-.125.284-.056.55-.136.8-.237.25-.101.476-.23.679-.384a1.91 1.91 0 00.5-.566c.38.443.822.776 1.323 1.002.501.225 1.066.34 1.695.344h.183v-1.559h-.231c-.272 0-.54-.056-.8-.17a2.822 2.822 0 01-.722-.454 3.291 3.291 0 01-.575-.645 2.57 2.57 0 01-.357-.752 3.888 3.888 0 00-.42-.916 7.197 7.197 0 00-.65-.888c-.248-.29-.518-.571-.81-.843a26.943 26.943 0 00-.89-.792l4.676-1.966-.615-1.448-5.612 2.416-.177 1.595c.195.162.408.333.64.511.23.179.463.363.696.554.234.19.46.386.679.584.22.2.413.4.581.603.169.203.304.407.405.612.102.205.152.409.152.612a.977.977 0 01-.164.575c-.11.156-.259.286-.447.39a2.54 2.54 0 01-.652.24 6.012 6.012 0 01-.779.125c-.274.026-.553.042-.837.048a27.184 27.184 0 01-1.89-.012 15.48 15.48 0 01-1.047-.076 12.196 12.196 0 01-.959-.14 5.29 5.29 0 01-.812-.216 2.645 2.645 0 01-.612-.304 1.002 1.002 0 01-.353-.4.641.641 0 01-.049-.26c0-.054.004-.11.013-.171.024-.175.07-.352.137-.533.066-.18.143-.352.228-.514.085-.163.162-.29.231-.384l-1.132-.95c-.158.252-.307.53-.447.835a4.25 4.25 0 00-.302.882 3.792 3.792 0 00-.085 1.035c.024.329.12.64.286.931.195.296.424.55.688.758.264.21.55.383.861.52.31.138.643.246.998.323a9.89 9.89 0 001.105.174c.382.038.772.063 1.172.073.4.01.802.015 1.208.015z"/></g><path fill="#000000" fill-opacity=".56" fill-rule="nonzero" d="M167.218 31c.285 0 .55-.02.796-.057.245-.039.467-.105.665-.199.198-.094.373-.219.524-.375.152-.157.28-.353.384-.59.104-.24.156-.518.156-.835 0-.055-.001-.111-.005-.167a5.826 5.826 0 00-.271-1.335 6.775 6.775 0 00-.167-.483 10.545 10.545 0 00-.287-.673 1.284 1.284 0 01-.047-.107l-.929.46.454 1.116a3.393 3.393 0 01.235.89c.007.092.01.16.01.205 0 .084-.005.162-.015.235a1.012 1.012 0 01-.078.277.934.934 0 01-.261.341 1.096 1.096 0 01-.365.186c-.14.041-.294.067-.465.075-.17.009-.356.013-.558.013h-.605V31h.83zm.856 2.718l.85-.85-.855-.856-.85.85.855.856zM166.592 31v-1.023h-.104c-.244 0-.435-.034-.574-.101-.14-.068-.25-.196-.334-.384a1.045 1.045 0 01-.047-.138 5.104 5.104 0 01-.083-.363c-.035-.17-.075-.398-.12-.683a34.109 34.109 0 01-.253-2.053l-.023-.22-.022-.208a263.863 263.863 0 00-.057-.54v.005l-1.023.214.018.19.06.582c-.097.035-.212.08-.344.133-.132.054-.272.12-.42.199-.148.078-.3.168-.459.27-.158.103-.311.22-.46.35-.147.13-.286.278-.417.441-.13.164-.242.343-.336.538a1.175 1.175 0 00-.073.255 1.63 1.63 0 00-.026.287v.094c.003.129.025.261.065.397.04.135.109.26.206.375.351.435.976.653 1.873.653.17 0 .349-.008.535-.024.186-.016.389-.04.608-.076.184.296.414.508.688.637.181.083.363.136.546.16.182.022.34.033.472.033h.104zm-2.945-1.743h-.034c-.122 0-.242-.007-.36-.02a1.622 1.622 0 01-.383-.081.71.71 0 01-.277-.17.38.38 0 01-.107-.276c0-.112.03-.219.089-.321.059-.103.136-.2.232-.29.096-.09.203-.174.323-.25.12-.077.242-.147.366-.212.123-.064.242-.121.357-.172l.297-.128c.056.446.106.814.15 1.106.043.293.085.54.127.741-.09.018-.2.033-.331.047a3.912 3.912 0 01-.483.026h.034zm-3.644 1.79c.048-.577.077-1.122.086-1.633a75.751 75.751 0 00-.003-2.854 47.688 47.688 0 00-.266-3.798l-1.023.156c.119 1.096.213 2.487.282 4.174.01.289.016.595.016.918 0 .268-.004.548-.01.84-.018.647-.055 1.36-.11 2.14l1.028.057zm-5.844-6.986l.772-.772-.777-.778-.772.772.777.778zm-1.179 1.649l.845-.85-.855-.857-.846.85.856.857zm2.29.005l.846-.845-.856-.856-.845.845.855.856zm.178 5.348c.323 0 .607-.046.85-.136.25-.09.46-.22.626-.391a1.63 1.63 0 00.376-.619c.083-.241.125-.512.125-.81 0-.2-.018-.403-.055-.611a5.772 5.772 0 00-.14-.61 9.179 9.179 0 00-.607-1.552l-.038-.077-.913.48a9.204 9.204 0 01.441 1.067c.075.221.14.446.193.676.054.23.081.443.081.642a1.5 1.5 0 01-.052.412.698.698 0 01-.17.303.573.573 0 01-.266.159c-.099.026-.199.039-.3.039-.059 0-.122-.004-.188-.01a.487.487 0 01-.263-.102.636.636 0 01-.172-.22 1.103 1.103 0 01-.094-.307 2.27 2.27 0 01-.029-.368c0-.143.01-.305.031-.488.021-.183.045-.355.07-.517.027-.161.05-.3.071-.414l.026-.167-1.001-.183c-.021.143-.05.31-.087.504a7.168 7.168 0 01-.14.597 5.408 5.408 0 01-.21.605 2.756 2.756 0 01-.286.532c-.11.157-.235.284-.376.381a.82.82 0 01-.477.146.551.551 0 01-.277-.062.467.467 0 01-.172-.167.73.73 0 01-.088-.238 1.42 1.42 0 01-.027-.274c0-.135.014-.282.042-.44.028-.159.061-.313.1-.465a9.577 9.577 0 01.218-.748l-1.033-.22c-.034.17-.076.352-.125.543a5.838 5.838 0 01-.177.571c-.07.19-.152.372-.245.546a2.155 2.155 0 01-.332.461 1.554 1.554 0 01-.435.324 1.22 1.22 0 01-.553.122h-.115V31h.11c.201 0 .386-.017.555-.05a2.028 2.028 0 00.848-.37c.118-.089.23-.189.334-.3.055.129.135.242.237.34.103.097.217.178.342.244a1.705 1.705 0 001.633-.016c.264-.142.5-.335.71-.578.073.11.161.214.266.31.104.096.217.18.339.25.121.072.25.128.383.17.134.042.267.063.4.063h.036zm-9.271-5.004l.845-.845-.856-.856-.845.85.856.851zm2.139.01l.845-.85-.856-.85-.845.845.856.856zM145.587 31c.327 0 .611-.013.853-.04.242-.025.453-.065.634-.12a1.948 1.948 0 00.835-.487c.15.191.34.347.574.467.233.12.525.18.876.18h.104v-1.023h-.104a.737.737 0 01-.436-.12.856.856 0 01-.266-.302 1.429 1.429 0 01-.138-.397 3.685 3.685 0 01-.057-.407 16.002 16.002 0 00-.094-.902 4.9 4.9 0 00-.151-.71l-.981.277c.076.264.13.499.159.704.03.205.044.407.044.605 0 .209-.035.392-.104.548a.942.942 0 01-.326.391c-.148.105-.34.183-.574.235a3.964 3.964 0 01-.848.078h-.777V31h.777zm-5.118 3.85c.438-.219.864-.476 1.278-.772a6.813 6.813 0 001.103-.978c.322-.357.58-.742.775-1.156.195-.414.292-.848.292-1.304v-.02c.087.093.179.166.274.218a1.265 1.265 0 00.535.157c.077.003.14.005.188.005h.089v-1.023h-.084a.936.936 0 01-.477-.125 1.41 1.41 0 01-.415-.394c-.132-.179-.26-.41-.386-.694a11.278 11.278 0 01-.386-1.03l-.981.303c.042.128.092.29.151.482.06.193.118.4.178.618.059.22.114.443.164.67.05.229.088.442.112.64a1.947 1.947 0 01-.057.704 2.707 2.707 0 01-.285.673 3.5 3.5 0 01-.467.619 6.03 6.03 0 01-.605.56c-.219.178-.452.344-.699.499-.247.155-.496.296-.746.425l.449.923zm-.616-3.803c.049-.577.077-1.122.086-1.633a75.742 75.742 0 00-.002-2.854 47.688 47.688 0 00-.267-3.798l-1.022.156c.118 1.096.212 2.487.282 4.174.01.289.015.595.015.918 0 .268-.003.548-.01.84-.018.647-.054 1.36-.11 2.14l1.028.057zm-8.056-.063c.233 0 .48-.004.739-.013a10.115 10.115 0 001.575-.18c.263-.052.514-.122.754-.211s.465-.198.673-.329a2.51 2.51 0 00.553-.467c.216-.31.342-.567.379-.774.036-.207.054-.368.054-.483 0-.167-.02-.33-.062-.49a2.609 2.609 0 00-.373-.794 6.07 6.07 0 00-.619-.759 10.694 10.694 0 00-.77-.73c-.276-.238-.551-.474-.826-.707l3.976-1.664-.402-.95-4.487 1.873-.13 1.195c.118.104.257.222.417.352.16.13.328.27.503.417.176.148.352.303.53.465.177.162.343.327.498.495.155.17.291.339.41.51.118.17.2.324.245.463.045.14.068.263.068.37 0 .05-.004.098-.01.147a.858.858 0 01-.225.443c-.268.293-.677.501-1.226.627-.55.125-1.181.187-1.894.187-.108 0-.22-.001-.334-.005a12.69 12.69 0 01-1.343-.094 7.398 7.398 0 01-1.075-.211 3.003 3.003 0 01-.778-.329 1.288 1.288 0 01-.45-.446.661.661 0 01-.074-.318v-.068c.01-.146.042-.299.094-.459.052-.16.117-.32.196-.477.078-.159.155-.302.232-.43l-.825-.611-.065.091a2.57 2.57 0 00-.115.183 5.459 5.459 0 00-.143.266c-.052.102-.1.216-.146.341-.188.45-.283.766-.284.95l-.002.18-.001.099v.018c0 .33.07.623.209.877.146.264.361.489.647.673.285.184.624.334 1.017.449.393.114.834.198 1.323.25.488.052 1.01.078 1.567.078zm-9.876-7.43l4.195-1.773-.246-.527-3.913 1.633-.036.668zM123.053 31c.18 0 .332-.012.454-.037.737-.135 1.26-.478 1.57-1.027.073-.133.137-.279.19-.439.055-.16.088-.303.1-.43.012-.127.018-.227.018-.3 0-.125-.01-.257-.031-.397a3.124 3.124 0 00-.188-.678 4.385 4.385 0 00-.396-.759 6.458 6.458 0 00-.653-.837 8.133 8.133 0 00-.6-.6c-.201-.181-.387-.345-.558-.49l3.736-1.571-.402-.95-4.289 1.837-.12 1.07a13.228 13.228 0 011.586 1.516c.223.251.41.488.561.709.152.22.246.402.285.545a2.106 2.106 0 01.067.662c-.02.206-.088.397-.203.574a.944.944 0 01-.402.337c-.17.078-.358.135-.563.172a4.25 4.25 0 01-.647.063c-.226.005-.444.007-.652.007h-.653V31h1.79zm-5.02-6.913l.851-.85-.855-.856-.85.85.855.856zm3.44 6.913v-1.023h-.105c-.209 0-.381-.027-.517-.08a.933.933 0 01-.339-.225 1.316 1.316 0 01-.232-.35 75.645 75.645 0 01-.584-1.367 2917.896 2917.896 0 01-1.213-2.945l-.95.397 1.649 3.965a1.98 1.98 0 01-.694.438 1.84 1.84 0 01-.478.128c-.13.012-.228.019-.294.019-.14 0-.279-.016-.418-.047a2.393 2.393 0 01-.631-.24 3.085 3.085 0 01-.631-.465l-.59.83a3.4 3.4 0 00.968.712c.35.169.73.253 1.14.253.247 0 .47-.015.668-.044a3.15 3.15 0 00.55-.13c.169-.058.327-.13.475-.217.148-.087.295-.188.44-.303a1.8 1.8 0 00.262.269c.1.085.218.159.352.222.134.062.289.112.464.148.176.037.377.055.603.055h.104zm-7.493.047c.049-.577.077-1.122.086-1.633a75.74 75.74 0 00-.003-2.854 47.687 47.687 0 00-.266-3.798l-1.022.156c.118 1.096.212 2.487.282 4.174.01.289.015.595.015.918 0 .268-.003.548-.01.84-.018.647-.054 1.36-.11 2.14l1.028.057zm-6.068 3.689c.292-.143.58-.304.864-.483.283-.18.553-.375.808-.587.256-.212.493-.438.71-.678.217-.24.405-.492.563-.757.159-.264.282-.538.37-.821a2.927 2.927 0 00.097-1.35 7.46 7.46 0 00-.091-.487 14.846 14.846 0 00-.12-.5 71.576 71.576 0 01-.128-.504 7.759 7.759 0 00-.13-.478 56.03 56.03 0 01-.146-.482l-.992.313a28.013 28.013 0 01.386 1.315c.042.15.08.299.115.448.035.15.064.296.086.438.023.143.034.279.034.407 0 .338-.081.665-.245.981-.163.317-.38.616-.65.898a5.97 5.97 0 01-.92.78c-.345.238-.7.448-1.065.628l.454.919zm-4.935-.068c.573 0 1.101-.05 1.583-.149.482-.099.916-.248 1.302-.446.407-.202.731-.444.973-.728a1.98 1.98 0 00.456-.942c.025-.135.037-.259.037-.37 0-.115-.012-.217-.037-.308a1.106 1.106 0 00-.631-.748 3.206 3.206 0 00-.498-.188 7.929 7.929 0 00-.532-.133 4.383 4.383 0 01-.499-.136 1.61 1.61 0 01-.399-.196.62.62 0 01-.237-.305.908.908 0 01-.037-.48c.025-.17.078-.339.16-.506.081-.167.185-.328.312-.483.127-.154.265-.292.413-.412.147-.12.3-.219.456-.297.157-.078.308-.124.454-.138.125-.025.247-.037.365-.037h.079c.139.01.262.027.37.05.108.022.195.046.26.07l.095.042.454-.955a7.162 7.162 0 01-.17-.068 2.712 2.712 0 00-.404-.12 2.88 2.88 0 00-.449-.07 2.742 2.742 0 00-.82.044c-.27.06-.53.153-.776.282a3.4 3.4 0 00-.681.467c-.207.182-.39.388-.55.615-.16.228-.29.47-.387.723a2.653 2.653 0 00-.175.66c-.019.186-.028.33-.028.43 0 .174.017.35.052.527.052.261.157.472.315.632.159.16.341.29.548.388.207.1.424.177.65.233.226.055.433.108.62.159.189.05.339.106.452.167.113.06.17.141.17.242v.026c-.018.178-.105.35-.261.514a2.132 2.132 0 01-.655.444 4.46 4.46 0 01-1.015.313 6.927 6.927 0 01-1.335.117c-.505 0-.941-.062-1.31-.188a1.993 1.993 0 01-.882-.563 1.553 1.553 0 01-.268-.415 2.089 2.089 0 01-.18-.853v-.042c0-.146.008-.281.026-.407.066-.51.167-1.007.302-1.487.136-.48.282-.965.438-1.455l-.996-.35a2.46 2.46 0 00-.06.167 30.147 30.147 0 00-.292.937 16.543 16.543 0 00-.337 1.361 9.327 9.327 0 00-.115.702c-.02.178-.03.35-.03.517 0 .32.037.619.114.897.115.431.315.81.6 1.138.327.365.742.641 1.244.83.503.187 1.085.28 1.746.28z"/></g></g></svg>