<svg xmlns="http://www.w3.org/2000/svg" xmlns:xlink="http://www.w3.org/1999/xlink" width="422" height="368"><defs><radialGradient id="g" cx="50%" cy="0%" r="211.139%" fx="50%" fy="0%"><stop offset="0%" stop-color="#FF9600" stop-opacity=".988"/><stop offset="27.996%" stop-color="#DF6C00" stop-opacity=".989"/><stop offset="100%" stop-color="#8C0000" stop-opacity=".991"/></radialGradient><radialGradient id="h" cx="50%" cy="0%" r="100%" fx="50%" fy="0%"><stop offset="0%" stop-color="#C6F1F9"/><stop offset="71.504%" stop-color="#34647B"/><stop offset="100%"/></radialGradient><radialGradient id="i" cx="50%" cy="0%" r="119.663%" fx="50%" fy="0%"><stop offset="0%" stop-color="#EDE9F9"/><stop offset="63.094%" stop-color="#82829C"/><stop offset="100%"/></radialGradient><radialGradient id="j" cx="50%" cy="0%" r="174.059%" fx="50%" fy="0%"><stop offset="0%" stop-color="#A8B8AB"/><stop offset="56.944%" stop-color="#434A45"/><stop offset="100%"/></radialGradient><filter id="c" width="113.9%" height="116.2%" x="-7%" y="-6.9%" filterUnits="objectBoundingBox"><feOffset dy="4" in="SourceAlpha" result="shadowOffsetOuter1"/><feGaussianBlur in="shadowOffsetOuter1" result="shadowBlurOuter1" stdDeviation="8"/><feColorMatrix in="shadowBlurOuter1" values="0 0 0 0 0 0 0 0 0 0 0 0 0 0 0 0 0 0 0.12 0"/></filter><filter id="k" width="133.1%" height="183.3%" x="-16.5%" y="-41.7%" filterUnits="objectBoundingBox"><feOffset dy="2" in="SourceAlpha" result="shadowOffsetOuter1"/><feGaussianBlur in="shadowOffsetOuter1" result="shadowBlurOuter1" stdDeviation="4"/><feColorMatrix in="shadowBlurOuter1" result="shadowMatrixOuter1" values="0 0 0 0 0 0 0 0 0 0 0 0 0 0 0 0 0 0 0.16 0"/><feMerge><feMergeNode in="shadowMatrixOuter1"/><feMergeNode in="SourceGraphic"/></feMerge></filter><path id="d" d="M0 0h374v312a8 8 0 01-8 8H0V0z"/><path id="e" d="M0 0h374v312a8 8 0 01-8 8H0V0z"/><rect id="a" width="422" height="368" x="0" y="0" rx="4"/></defs><g fill="none" fill-rule="evenodd"><mask id="b" fill="#fff"><use xlink:href="#a"/></mask><use fill="#000" fill-opacity="0" xlink:href="#a"/><g mask="url(#b)"><use fill="#000" filter="url(#c)" xlink:href="#d"/><mask id="f" fill="#fff"><use xlink:href="#e"/></mask><use fill="#FFF" xlink:href="#e"/><path fill="#000000" fill-opacity=".56" fill-rule="nonzero" d="M243.306 307.443a8.147 8.147 0 002.285-2.822 8.267 8.267 0 00.866-3.72 8.31 8.31 0 00-.834-3.673c-.574-1.186-1.367-2.12-2.38-2.802l-.234.386-.12.188a8.06 8.06 0 01-.12.203c.852.717 1.485 1.512 1.899 2.385.455.95.692 2.07.71 3.36 0 2.163-.87 4.057-2.61 5.682.074.1.164.234.272.401l.13.204.136.208zm-4.1-9.198l.844-.845-.855-.856-.845.85.855.851zm2.138.01l.846-.85-.856-.85-.845.845.855.856zM239.07 304c.285 0 .56-.02.827-.057.266-.039.51-.105.733-.199.222-.094.42-.219.592-.375.172-.157.31-.353.415-.59.104-.24.156-.518.156-.835 0-.055-.002-.111-.005-.167a5.826 5.826 0 00-.271-1.335 6.775 6.775 0 00-.167-.483 10.546 10.546 0 00-.287-.673 1.284 1.284 0 01-.047-.107l-.929.46.454 1.116a3.393 3.393 0 01.235.89c.007.092.01.16.01.205 0 .084-.005.162-.016.235a1.012 1.012 0 01-.078.277.817.817 0 01-.292.341c-.125.082-.27.144-.433.186-.164.041-.34.067-.532.075a12.99 12.99 0 01-.59.013h-1.007V304h1.232zm-5.922 3.663c.508-.08.999-.22 1.474-.418a5.392 5.392 0 001.294-.762c.387-.31.718-.672.991-1.087.273-.416.462-.881.566-1.396h.574v-1.023h-.496a4.842 4.842 0 00-.281-1.515 4.007 4.007 0 00-.303-.66 3.296 3.296 0 00-.397-.553c-.413-.446-.867-.668-1.361-.668-.223 0-.438.056-.645.17-.207.112-.399.279-.576.498a2.901 2.901 0 00-.381.67c-.108.26-.177.49-.206.694-.03.204-.044.371-.044.504 0 .139.012.278.036.417.042.264.143.497.303.699.361.449.92.696 1.674.74.192.018.363.027.514.027h.593c-.039.26-.146.526-.321.796-.176.27-.415.524-.718.764a5.16 5.16 0 01-1.09.647c-.425.191-.905.34-1.44.449l.24 1.007zm2.865-4.697l-.084.001c-.153 0-.317-.005-.49-.016a2.63 2.63 0 01-.222-.023 1.854 1.854 0 01-.261-.058 1.226 1.226 0 01-.25-.104.614.614 0 01-.196-.17.489.489 0 01-.107-.247 1.826 1.826 0 01-.019-.232 2.37 2.37 0 01.295-1.09c.071-.123.152-.223.243-.3a.433.433 0 01.287-.118c.062 0 .121.01.177.031.056.02.109.048.16.08.05.034.097.07.14.11.044.04.083.078.117.113.087.1.172.22.254.357.081.137.155.291.221.462.066.17.12.355.162.553.042.198.068.408.078.631a6.1 6.1 0 01-.505.02zm-9.59 1.034c.212 0 .412-.01.6-.031.187-.021.365-.061.532-.12.167-.06.324-.145.472-.256.148-.111.29-.26.425-.443.16.118.334.233.522.347.188.113.383.208.587.286a2.254 2.254 0 00.842.17c.143 0 .286-.02.428-.057.226-.063.418-.175.574-.337.157-.162.28-.351.37-.569.091-.217.147-.416.168-.597.02-.18.03-.327.03-.438 0-.125-.008-.247-.025-.365a3.157 3.157 0 00-.185-.69 2.148 2.148 0 00-.358-.604c-.15-.178-.33-.321-.54-.43a1.554 1.554 0 00-.728-.165c-.23 0-.43.046-.602.138a1.696 1.696 0 00-.46.36 2.75 2.75 0 00-.36.506c-.105.19-.205.382-.3.577-.107.215-.214.425-.32.628a2.548 2.548 0 01-.376.543c-.144.158-.319.285-.524.38-.205.097-.463.144-.772.144h-.105V304h.105zm3.965-1.085c-.14 0-.296-.035-.47-.105a4.026 4.026 0 01-.866-.506l.282-.568c.087-.17.164-.319.232-.444s.132-.23.193-.313a.739.739 0 01.183-.185.35.35 0 01.195-.06.59.59 0 01.277.063c.08.041.15.094.209.159.059.064.11.135.15.214a1.698 1.698 0 01.163.425 1.669 1.669 0 01.047.396 1.562 1.562 0 01-.097.527.887.887 0 01-.143.256.333.333 0 01-.173.12.752.752 0 01-.182.02zM226.527 304v-1.023h-.104c-.22 0-.408-.022-.566-.067a.814.814 0 01-.358-.188.435.435 0 01-.138-.269 2.819 2.819 0 01-.018-.331v-2.62a36.413 36.413 0 00-.107-2.749 7.734 7.734 0 00-.081-.652l-1.023.188a6.5 6.5 0 01.081.628c.023.256.042.535.057.838.016.302.027.615.034.939.007.323.01.635.01.934a76.853 76.853 0 010 1.612 158.303 158.303 0 00-.01.718v.148l.006.211a2.015 2.015 0 00.185.76c.06.132.148.255.263.37.188.188.417.327.686.417.27.09.596.136.979.136h.104zm-7.586-2.52l.85-.85-.855-.856-.85.85.855.856zm-.23 6.104c.428 0 .834-.045 1.219-.135a3.76 3.76 0 001.05-.415c.317-.186.595-.422.833-.707s.424-.624.556-1.017c.125-.376.193-.676.203-.9.01-.225.016-.375.016-.452a5.381 5.381 0 00-.295-1.771c-.1-.29-.198-.544-.297-.762a5.916 5.916 0 00-.394-.743l-.866.553c.003 0 .035.051.096.154.061.102.131.243.211.422.08.18.161.39.243.632a4.961 4.961 0 01.258 1.588v.063a3.25 3.25 0 01-.151.903 2.017 2.017 0 01-.344.654 2.05 2.05 0 01-.569.49 2.766 2.766 0 01-.788.306c-.299.07-.633.104-1.002.104-.295 0-.559-.032-.79-.096a2.473 2.473 0 01-.605-.25 2.037 2.037 0 01-.441-.348 2.272 2.272 0 01-.303-.394 1.901 1.901 0 01-.18-.386 2.058 2.058 0 01-.08-.326 3.06 3.06 0 01-.027-.615c.01-.209.034-.414.07-.616.037-.202.083-.396.139-.582.056-.186.114-.357.175-.514.06-.156.12-.293.18-.41a2.1 2.1 0 01.156-.268l-.83-.61c-.142.236-.278.5-.409.79-.13.29-.24.597-.328.921a4.863 4.863 0 00-.165.843 4.607 4.607 0 00.016 1.208c.07.455.204.852.404 1.189.2.337.451.616.754.837.303.221.648.386 1.036.496.388.11.804.164 1.25.164zm-5.019-.14l.538-.814c-1.74-1.625-2.61-3.519-2.61-5.682.018-1.29.255-2.41.71-3.36.414-.873 1.047-1.668 1.9-2.385a8.06 8.06 0 01-.12-.203l-.12-.188-.115-.188a3.358 3.358 0 01-.12-.198c-1.023.678-1.82 1.609-2.39 2.791a8.355 8.355 0 00-.824 3.684c0 1.315.287 2.555.86 3.72a8.201 8.201 0 002.291 2.822z" mask="url(#f)"/><path fill="#000000" fill-opacity=".87" fill-rule="nonzero" d="M275.3 297.29l.888-.887-.898-.897-.887.892.898.892zm1.973.01l.887-.891-.897-.892-.887.886.897.898zm-3.12 6.857c.404 0 .794-.014 1.171-.042.378-.028.732-.08 1.062-.157.33-.076.632-.18.905-.313a2.216 2.216 0 001.163-1.263 2.94 2.94 0 00.165-1.032c0-.233-.023-.48-.07-.739a4.73 4.73 0 00-.206-.764 4.32 4.32 0 00-.334-.715 2.985 2.985 0 00-.454-.597 2.056 2.056 0 00-.569-.41 1.526 1.526 0 00-.673-.151c-.195 0-.376.036-.543.107-.167.071-.32.169-.459.292-.139.124-.262.267-.37.43a3.112 3.112 0 00-.449 1.09 2.948 2.948 0 00-.057.57c0 .313.062.587.185.821.123.235.29.43.498.587.209.157.452.274.728.352.277.079.568.118.874.118h.532c-.1.073-.252.139-.454.198-.201.06-.441.11-.72.151-.278.042-.586.074-.923.097-.338.023-.689.034-1.054.034h-.125v1.336h.177zm2.724-3.147h-.058a4.655 4.655 0 01-.697-.042 1.263 1.263 0 01-.333-.088.533.533 0 01-.227-.18.515.515 0 01-.084-.305v-.021c0-.125.026-.252.079-.381.052-.132.12-.25.203-.355.083-.104.17-.184.26-.24a.474.474 0 01.24-.083c.018 0 .036.002.053.005.15.01.283.08.4.209.116.128.217.28.302.456.085.176.156.357.214.543.057.186.101.342.133.467a6.657 6.657 0 01-.543.015h.058zm-7.154 3.147c.244 0 .51-.003.801-.008.29-.006.573-.026.848-.063.275-.036.525-.094.749-.172.224-.078.394-.19.509-.337.163.17.361.31.594.418.233.108.519.162.856.162h.104v-1.336h-.104a.665.665 0 01-.376-.107c-.107-.071-.199-.16-.274-.266a1.316 1.316 0 01-.174-.35 1.64 1.64 0 01-.079-.357 31.84 31.84 0 00-.039-.478 8.847 8.847 0 00-.041-.375 4.095 4.095 0 00-.063-.35 6.338 6.338 0 00-.107-.404l-1.284.36c.09.31.159.563.204.759.045.197.068.354.068.472 0 .181-.038.34-.115.478a.876.876 0 01-.373.341c-.172.09-.397.16-.676.206-.278.047-.62.07-1.028.07h-.193v1.337h.193zm.861 2.43l.887-.886-.897-.898-.887.893.897.892zm1.973.011l.886-.892-.897-.892-.887.887.898.897zm-9.068-2.441a2.4 2.4 0 00.55-.058 1.99 1.99 0 00.451-.164c.14-.072.273-.16.402-.264.129-.104.261-.224.397-.36.16.108.355.21.587.308a7.419 7.419 0 001.468.446c.244.047.456.072.637.076a.413.413 0 00.172-.084c.06-.045.117-.096.175-.154.057-.057.111-.115.162-.174.05-.06.094-.106.133-.141.125.17.261.307.41.41a.9.9 0 00.508.159h.198v-1.336h-.162a.223.223 0 01-.17-.076.737.737 0 01-.13-.222 2.256 2.256 0 01-.107-.352 16.053 16.053 0 01-.099-.472 6.971 6.971 0 00-.219-.856 2.373 2.373 0 00-.352-.69 1.588 1.588 0 00-.553-.465c-.22-.113-.493-.17-.817-.17-.247 0-.47.05-.667.152-.199.1-.377.232-.535.393-.158.162-.3.344-.425.546a6.54 6.54 0 00-.334.605c-.098.191-.192.383-.285.574-.092.191-.199.363-.32.516a1.481 1.481 0 01-.439.373c-.17.096-.382.144-.636.144h-.105v1.336h.105zm4.758-1.336a3.272 3.272 0 01-.587-.107 8.898 8.898 0 01-.634-.196 13.277 13.277 0 01-.584-.219 28.6 28.6 0 01-.444-.182c.052-.126.112-.265.18-.418a2.92 2.92 0 01.235-.43 1.52 1.52 0 01.297-.337.57.57 0 01.373-.135.62.62 0 01.33.088.91.91 0 01.257.24c.075.101.14.218.196.352.056.134.106.276.151.426.046.15.086.303.123.461l.107.457zm-12.026-3.078l.887-.887-.898-.898-.887.892.898.893zm1.972.01l.887-.892-.897-.892-.887.887.897.897zm-1.424 4.42c1.906 0 3.337-.443 4.294-1.326.114.233.247.432.396.597.15.166.32.301.511.407.192.106.405.184.64.232.234.05.496.074.785.074h.198v-1.336h-.188c-.254 0-.468-.033-.644-.1a1.09 1.09 0 01-.425-.273 1.06 1.06 0 01-.235-.407 1.32 1.32 0 01-.073-.376v-.17c0-.163.017-.332.052-.505.038-.192.09-.38.157-.564l-1.2-.323c-.05.167-.094.34-.136.521-.042.181-.094.358-.157.53-.062.172-.14.336-.234.493a1.485 1.485 0 01-.37.412c-.168.14-.368.257-.6.352a4.53 4.53 0 01-.78.235c-.288.061-.598.105-.932.133-.334.028-.687.042-1.06.042a11.8 11.8 0 01-1.147-.052 6.33 6.33 0 01-.958-.162 2.873 2.873 0 01-.722-.282 1.199 1.199 0 01-.444-.417 1.32 1.32 0 01-.195-.449 1.7 1.7 0 01-.029-.548 1.89 1.89 0 01.125-.5c.066-.168.15-.334.25-.501l-1.006-.632a3.824 3.824 0 00-.345.775c-.087.273-.136.5-.148.68-.012.182-.019.312-.019.392 0 .205.021.41.063.616.056.282.157.553.303.814.337.546.861.95 1.573 1.213.711.262 1.611.397 2.7.404z" mask="url(#f)"/><path fill="#000000" fill-opacity=".56" d="M295.254 300.196a.669.669 0 00-.946 0l-2.583 2.583-2.583-2.583a.669.669 0 10-.945.946l3.055 3.056a.667.667 0 00.947 0l3.055-3.056a.668.668 0 000-.946" mask="url(#f)"/><path fill="#000000" fill-opacity=".32" d="M136.345 244l2.582-2.583a.669.669 0 10-.946-.946l-3.056 3.056a.67.67 0 000 .946l3.056 3.056a.667.667 0 00.946 0 .669.669 0 000-.946L136.345 244z" mask="url(#f)"/><path fill="#000000" fill-opacity=".32" fill-rule="nonzero" d="M240.058 247c.212 0 .412-.01.6-.031.188-.021.365-.061.532-.12.167-.06.325-.145.472-.256.148-.111.29-.26.426-.443.16.118.334.233.521.347.188.113.384.208.587.286a2.254 2.254 0 00.843.17c.143 0 .285-.02.428-.057.226-.063.417-.175.574-.337.156-.162.28-.351.37-.569.09-.217.146-.416.167-.597.021-.18.031-.327.031-.438 0-.125-.008-.247-.026-.365a3.157 3.157 0 00-.185-.69 2.148 2.148 0 00-.357-.604c-.15-.178-.33-.321-.54-.43a1.554 1.554 0 00-.728-.165c-.23 0-.43.046-.603.138a1.696 1.696 0 00-.459.36 2.75 2.75 0 00-.36.506c-.106.19-.206.382-.3.577-.108.215-.215.425-.32.628a2.548 2.548 0 01-.376.543c-.145.158-.32.285-.525.38-.205.097-.462.144-.772.144h-.104V247h.104zm3.965-1.085c-.139 0-.295-.035-.47-.105a4.026 4.026 0 01-.865-.506l.281-.568c.087-.17.165-.319.233-.444.067-.125.132-.23.193-.313a.739.739 0 01.182-.185.35.35 0 01.196-.06.59.59 0 01.276.063c.08.041.15.094.21.159.058.064.109.135.15.214a1.698 1.698 0 01.162.425 1.669 1.669 0 01.047.396 1.562 1.562 0 01-.097.527.887.887 0 01-.143.256.333.333 0 01-.172.12.752.752 0 01-.183.02zm-8.405-5.369l.772-.772-.777-.777-.772.772.777.777zm-1.179 1.649l.845-.85-.855-.856-.846.85.856.856zm2.29.005l.846-.845-.856-.856-.845.845.855.856zm-3.146 4.816c.17 0 .333-.026.488-.076.155-.05.301-.122.438-.214.138-.092.265-.2.381-.323a2.77 2.77 0 00.316-.405c.129.31.323.554.584.733.261.18.565.269.913.269.178 0 .345-.026.501-.078a1.68 1.68 0 00.793-.559c.105-.132.192-.28.261-.443.09.167.2.317.329.449.128.132.27.245.425.339.155.094.32.166.493.216.174.05.351.076.532.076h.125v-1.023h-.125c-.25 0-.477-.105-.68-.315-.204-.21-.375-.53-.515-.958a4.11 4.11 0 01-.122-.443 6.996 6.996 0 01-.12-.76 25.943 25.943 0 01-.034-.346l-1.023.083.019.392a9.286 9.286 0 01.002.647 5.828 5.828 0 01-.052.602c-.028.2-.074.381-.138.543-.065.161-.15.292-.259.391a.585.585 0 01-.412.149.581.581 0 01-.412-.141.825.825 0 01-.222-.365 1.602 1.602 0 01-.078-.407 3.986 3.986 0 01.013-.673c.014-.192.035-.374.063-.548.028-.174.05-.322.068-.444l-1.018-.193c-.017.16-.042.34-.075.54a6.157 6.157 0 01-.332 1.213 2.43 2.43 0 01-.276.527 1.423 1.423 0 01-.373.37c-.141.095-.3.142-.478.142a.386.386 0 01-.326-.146.719.719 0 01-.14-.337 2.405 2.405 0 01-.024-.556c.01-.187.03-.373.06-.555a10.925 10.925 0 01.175-.874l-1.002-.277c-.02.084-.044.183-.068.298-.024.114-.056.24-.096.378-.04.137-.088.283-.144.438a4.344 4.344 0 01-.203.472 3.531 3.531 0 01-.266.42c-.101.138-.212.261-.332.37-.12.11-.248.198-.386.264a.97.97 0 01-.425.1h-.11V247h.11a1.934 1.934 0 001.028-.284c.146-.089.28-.196.401-.321.122-.125.237-.265.345-.418a1.427 1.427 0 001.403 1.039zm-3.078-.016v-1.023h-.104c-.22 0-.408-.022-.566-.067a.814.814 0 01-.358-.188.435.435 0 01-.138-.269 2.819 2.819 0 01-.018-.331v-2.62a36.413 36.413 0 00-.107-2.749 7.733 7.733 0 00-.081-.652l-1.023.188a6.5 6.5 0 01.081.628c.023.256.042.535.058.838a43.49 43.49 0 01.044 1.873c.003.306.005.596.005.871v.203c0 .197-.003.376-.005.538a158.575 158.575 0 00-.01.718v.148c0 .063.002.134.005.211a2.015 2.015 0 00.185.76c.06.132.149.255.263.37.188.188.417.327.686.417.27.09.596.136.979.136h.104zm-6.605.016c.122 0 .255-.006.402-.016a4.084 4.084 0 00.85-.154c.132-.04.247-.09.344-.149.366-.194.638-.439.817-.733.179-.294.269-.613.269-.957 0-.46-.16-.911-.48-1.357a2.196 2.196 0 00-.454-.438 5.995 5.995 0 00-.676-.433 14.211 14.211 0 00-.835-.428 37.61 37.61 0 00-.936-.428l-1.816-.746-.496.94.413.161c-.21.101-.388.229-.538.384-.15.155-.274.321-.373.5a2.33 2.33 0 00-.29 1.109c0 .254.066.518.196.79.13.274.326.551.587.833a8.014 8.014 0 01-.662.063c-.13.006-.273.012-.43.015-.16.004-.343.005-.551.005h-.141V247h.14c.248 0 .503-.005.768-.016.264-.01.523-.027.777-.05.254-.022.497-.052.728-.09a4.98 4.98 0 00.623-.141c.296.118.587.2.874.245.287.045.584.068.89.068zm-1.816-1.43a3.548 3.548 0 01-.375-.284 2.2 2.2 0 01-.31-.329 1.559 1.559 0 01-.212-.373 1.126 1.126 0 01-.078-.417c0-.157.033-.32.099-.49a1.57 1.57 0 01.274-.46c.116-.136.24-.235.373-.297a.88.88 0 01.375-.094c.063 0 .127.007.193.02.15.032.27.088.363.17a.878.878 0 01.214.282c.05.106.083.217.099.334.016.116.023.227.023.331a1.794 1.794 0 01-.577 1.304c-.13.122-.283.223-.46.303zm1.717.428a2.682 2.682 0 01-.48-.037 3.13 3.13 0 00.36-.459c.108-.167.199-.336.274-.508.074-.173.133-.344.174-.514.042-.17.063-.329.063-.475 0-.104-.002-.216-.005-.334a1.514 1.514 0 00-.063-.376c.247.115.463.242.647.381.184.14.338.281.462.425.123.145.216.288.279.43a.993.993 0 01.094.397c0 .143-.032.28-.097.41a.894.894 0 01-.313.342 1.768 1.768 0 01-.56.232 3.49 3.49 0 01-.835.086zm-4.492.986v-1.023h-.105c-.209 0-.38-.027-.516-.08a.933.933 0 01-.34-.225 1.316 1.316 0 01-.232-.35 75.645 75.645 0 01-.584-1.367 2940.424 2940.424 0 01-1.213-2.945l-.95.397 1.65 3.965c-.06.06-.146.13-.26.211a1.98 1.98 0 01-.435.227 1.84 1.84 0 01-.477.128c-.13.012-.229.019-.295.019-.14 0-.278-.016-.417-.047a2.393 2.393 0 01-.632-.24 3.085 3.085 0 01-.631-.465l-.59.83a3.4 3.4 0 00.968.712c.35.169.73.253 1.14.253.247 0 .47-.015.668-.044a3.15 3.15 0 00.55-.13c.17-.058.327-.13.475-.217.148-.087.295-.188.441-.303a1.8 1.8 0 00.261.269c.1.085.218.159.352.222.134.062.289.112.465.148.175.037.376.055.602.055h.105zm-9.256 0c.048-.002.103-.004.164-.008.092-.005.19-.017.295-.036.104-.02.214-.046.329-.079.114-.033.228-.077.339-.133a1.61 1.61 0 00.696-.62c.159-.265.238-.576.238-.934 0-.359-.105-.748-.313-1.17-.209-.42-.527-.874-.955-1.36-.15-.168-.296-.322-.438-.463a15.91 15.91 0 00-.658-.613 1.055 1.055 0 01-.11-.099l-.657.798c0 .004.032.032.094.084.063.052.146.125.25.22a7.421 7.421 0 00-.61.636c-.567.681-.85 1.337-.85 1.967 0 .358.085.668.255.93.17.263.423.473.757.63.129.062.256.11.38.146.126.034.24.06.343.075a2.113 2.113 0 00.383.029h.068zm-.008-1.039h-.088c-.022 0-.049-.002-.082-.004a2.127 2.127 0 01-.355-.065 1.247 1.247 0 01-.203-.076.802.802 0 01-.224-.141.65.65 0 01-.128-.16.502.502 0 01-.057-.164 1.047 1.047 0 01-.013-.161c0-.178.04-.357.122-.538.082-.18.182-.355.3-.522.118-.167.245-.32.378-.459a6.85 6.85 0 01.353-.344c.337.365.594.71.772 1.033.177.323.266.6.266.83a.759.759 0 01-.086.383.688.688 0 01-.28.253 1.059 1.059 0 01-.208.073 2.765 2.765 0 01-.209.042c-.066.01-.127.016-.182.018l-.136.003h.06zm-12.3 1.039c.212 0 .412-.01.6-.031.188-.021.365-.061.532-.12.167-.06.325-.145.472-.256.148-.111.29-.26.426-.443.16.118.334.233.521.347.188.113.384.208.587.286a2.254 2.254 0 00.843.17c.143 0 .285-.02.428-.057.226-.063.417-.175.574-.337.156-.162.28-.351.37-.569.09-.217.146-.416.167-.597.02-.18.031-.327.031-.438 0-.125-.008-.247-.026-.365a3.157 3.157 0 00-.185-.69 2.148 2.148 0 00-.357-.604c-.15-.178-.33-.321-.54-.43a1.554 1.554 0 00-.728-.165c-.23 0-.43.046-.603.138a1.696 1.696 0 00-.459.36 2.75 2.75 0 00-.36.506c-.106.19-.206.382-.3.577-.108.215-.215.425-.32.628a2.548 2.548 0 01-.376.543c-.145.158-.32.285-.525.38-.205.097-.462.144-.772.144h-.104V247h.104zm3.965-1.085c-.139 0-.295-.035-.47-.105a4.026 4.026 0 01-.865-.506l.281-.568c.087-.17.165-.319.233-.444.067-.125.132-.23.193-.313a.739.739 0 01.182-.185.35.35 0 01.196-.06.59.59 0 01.276.063c.08.041.15.094.21.159.058.064.109.135.15.214a1.698 1.698 0 01.162.425 1.67 1.67 0 01.047.396 1.562 1.562 0 01-.097.527.887.887 0 01-.143.256.333.333 0 01-.172.12.752.752 0 01-.183.02zm-8.76 4.748c.508-.08 1-.22 1.474-.418a5.392 5.392 0 001.294-.762c.388-.31.718-.672.991-1.087.273-.416.462-.881.566-1.396h.574v-1.023h-.495a4.843 4.843 0 00-.282-1.515 4.007 4.007 0 00-.303-.66 3.296 3.296 0 00-.396-.553c-.414-.446-.868-.668-1.362-.668-.222 0-.437.056-.644.17-.207.112-.4.279-.577.498a2.901 2.901 0 00-.38.67c-.108.26-.177.49-.207.694-.03.204-.044.371-.044.504 0 .139.012.278.036.417.042.264.143.497.303.699.362.449.92.696 1.675.74.191.018.362.027.514.027h.592c-.038.26-.145.526-.32.796-.177.27-.416.524-.718.764a5.16 5.16 0 01-1.09.647c-.425.191-.905.34-1.44.449l.24 1.007zm2.865-4.697l-.084.001c-.153 0-.316-.005-.49-.016a2.63 2.63 0 01-.222-.023 1.854 1.854 0 01-.26-.058 1.226 1.226 0 01-.251-.104.614.614 0 01-.196-.17.489.489 0 01-.107-.247 1.826 1.826 0 01-.018-.232 2.37 2.37 0 01.295-1.09c.07-.123.152-.223.242-.3a.433.433 0 01.287-.118c.063 0 .122.01.178.031.055.02.108.048.159.08.05.034.097.07.14.11.044.04.083.078.118.113.087.1.171.22.253.357.082.137.156.291.222.462.066.17.12.355.161.553.042.198.068.408.079.631a6.1 6.1 0 01-.506.02zm-4.315 1.081c.049-.577.077-1.122.086-1.633a75.74 75.74 0 00-.003-2.854 47.688 47.688 0 00-.266-3.798l-1.022.156c.118 1.096.212 2.487.281 4.174.01.289.016.595.016.918 0 .268-.003.548-.01.84-.018.647-.054 1.36-.11 2.14l1.028.057zm-6.068 3.689c.292-.143.58-.304.863-.483.284-.18.554-.375.81-.587.255-.212.491-.438.709-.678.217-.24.405-.492.563-.757.158-.264.282-.538.37-.821a2.927 2.927 0 00.097-1.35 7.46 7.46 0 00-.091-.487 14.847 14.847 0 00-.12-.5 71.534 71.534 0 01-.128-.504 7.76 7.76 0 00-.13-.478c-.05-.158-.098-.319-.146-.482l-.992.313a28.013 28.013 0 01.386 1.315c.042.15.08.299.115.448.035.15.064.296.086.438.023.143.034.279.034.407 0 .338-.082.665-.245.981-.164.317-.38.616-.65.898a5.97 5.97 0 01-.92.78c-.345.238-.7.448-1.065.628l.454.919zm-2.817-3.741c.208 0 .418-.016.628-.047.21-.031.413-.082.608-.151.195-.07.377-.16.545-.27.17-.109.316-.24.441-.393a1.264 1.264 0 00.271-.553c.028-.122.043-.261.045-.418a2.41 2.41 0 00-.06-.526 3.792 3.792 0 00-.238-.681 5.52 5.52 0 00-.38-.7 6.908 6.908 0 00-1.057-1.28 5.968 5.968 0 00-.608-.506 3.66 3.66 0 00-.618-.366l-.423.95c.157.07.317.163.48.282.164.118.325.254.483.407a6.2 6.2 0 01.457.493c.146.175.279.356.399.542.12.186.222.372.307.559.086.186.147.364.186.534.028.126.041.233.041.324 0 .125-.026.219-.078.282a1.082 1.082 0 01-.438.318c-.174.07-.33.11-.47.122a2.997 2.997 0 01-.72-.008 4.434 4.434 0 01-1.215-.33 3.171 3.171 0 01-.465-.243l-.427.98c.086.08.224.16.412.24.188.08.394.154.62.22.227.066.454.119.681.159.228.04.426.06.593.06zm-9.48.005c.285 0 .55-.02.795-.057.245-.039.467-.105.665-.199.199-.094.374-.219.525-.375.151-.157.279-.353.383-.59.105-.24.157-.518.157-.835 0-.055-.002-.111-.005-.167a5.826 5.826 0 00-.272-1.335 6.775 6.775 0 00-.167-.483 10.547 10.547 0 00-.287-.673 1.284 1.284 0 01-.047-.107l-.928.46.454 1.116a3.393 3.393 0 01.234.89c.007.092.01.16.01.205 0 .084-.004.162-.015.235a1.012 1.012 0 01-.078.277.934.934 0 01-.26.341 1.096 1.096 0 01-.366.186c-.14.041-.294.067-.464.075-.17.009-.357.013-.559.013h-.605V247h.83zm.855 2.718l.85-.85-.855-.856-.85.85.855.856zM168.637 247c.327 0 .612-.013.853-.04.242-.025.453-.065.634-.12a1.948 1.948 0 00.835-.487c.15.191.34.347.574.467.233.12.525.18.876.18h.105v-1.023h-.105a.737.737 0 01-.435-.12.856.856 0 01-.266-.302 1.429 1.429 0 01-.139-.397 3.685 3.685 0 01-.057-.407 16.003 16.003 0 00-.094-.902 4.901 4.901 0 00-.151-.71l-.981.277c.076.264.13.499.16.704.029.205.043.407.043.605 0 .209-.034.392-.104.548a.942.942 0 01-.326.391c-.148.105-.34.183-.574.235a3.964 3.964 0 01-.848.078h-.777V247h.777zm.193 2.551l.845-.845-.855-.856-.845.85.855.851zm2.14.01l.845-.85-.856-.85-.845.845.855.856zm-7.446-9.015l.772-.772-.777-.777-.772.772.777.777zm-1.179 1.649l.845-.85-.855-.856-.846.85.856.856zm2.29.005l.846-.845-.856-.856-.845.845.855.856zm-3.146 4.816c.17 0 .333-.026.488-.076.155-.05.301-.122.438-.214.138-.092.265-.2.381-.323a2.77 2.77 0 00.316-.405c.129.31.323.554.584.733.261.18.566.269.913.269.178 0 .345-.026.501-.078a1.68 1.68 0 00.793-.559c.105-.132.192-.28.261-.443.09.167.2.317.329.449s.27.245.425.339c.155.094.32.166.493.216.174.05.351.076.532.076h.126v-1.023h-.126c-.25 0-.477-.105-.68-.315-.204-.21-.375-.53-.514-.958a4.11 4.11 0 01-.123-.443 6.996 6.996 0 01-.12-.76 25.943 25.943 0 01-.034-.346l-1.023.083.019.392a9.286 9.286 0 01.002.647 5.828 5.828 0 01-.052.602c-.028.2-.074.381-.138.543-.065.161-.15.292-.258.391a.585.585 0 01-.413.149.581.581 0 01-.412-.141.825.825 0 01-.222-.365 1.602 1.602 0 01-.078-.407 3.986 3.986 0 01.013-.673c.014-.192.035-.374.063-.548.028-.174.05-.322.068-.444l-1.018-.193c-.017.16-.042.34-.075.54a6.157 6.157 0 01-.332 1.213 2.43 2.43 0 01-.276.527 1.423 1.423 0 01-.373.37c-.141.095-.3.142-.478.142a.386.386 0 01-.326-.146.719.719 0 01-.14-.337 2.405 2.405 0 01-.024-.556c.01-.187.03-.373.06-.555a10.925 10.925 0 01.175-.874l-1.002-.277c-.02.084-.043.183-.068.298-.024.114-.056.24-.096.378-.04.137-.088.283-.144.438a4.344 4.344 0 01-.203.472 3.531 3.531 0 01-.266.42c-.101.138-.212.261-.332.37-.12.11-.248.198-.386.264a.97.97 0 01-.425.1h-.11V247h.11a1.934 1.934 0 001.028-.284c.146-.089.28-.196.402-.321.121-.125.236-.265.344-.418a1.427 1.427 0 001.403 1.039zm-6.365-4.957l.845-.845-.855-.856-.845.85.855.851zm2.14.01l.845-.85-.856-.85-.845.845.855.856zm-2.73 4.931c.328 0 .612-.013.854-.04.241-.025.453-.065.634-.12a1.948 1.948 0 00.834-.487c.15.191.341.347.574.467.233.12.525.18.877.18h.104v-1.023h-.104a.737.737 0 01-.436-.12.856.856 0 01-.266-.302 1.429 1.429 0 01-.138-.397 3.685 3.685 0 01-.058-.407 16.003 16.003 0 00-.094-.902 4.9 4.9 0 00-.15-.71l-.982.277c.077.264.13.499.16.704.029.205.044.407.044.605 0 .209-.035.392-.105.548a.942.942 0 01-.326.391c-.147.105-.339.183-.574.235a3.964 3.964 0 01-.847.078h-.778V247h.778zm-5.118 3.85c.439-.219.865-.476 1.279-.772a6.813 6.813 0 001.103-.978c.322-.357.58-.742.775-1.156.195-.414.292-.848.292-1.304v-.02c.087.093.178.166.274.218a1.265 1.265 0 00.535.157c.076.003.139.005.188.005h.088v-1.023h-.083a.937.937 0 01-.478-.125 1.41 1.41 0 01-.414-.394c-.133-.179-.261-.41-.386-.694a11.278 11.278 0 01-.387-1.03l-.98.303c.041.128.092.29.15.482.06.193.12.4.178.618.06.22.114.443.165.67.05.229.087.442.112.64a1.947 1.947 0 01-.057.704 2.707 2.707 0 01-.285.673 3.5 3.5 0 01-.467.619 6.03 6.03 0 01-.605.56c-.22.178-.452.344-.7.499-.246.155-.495.296-.745.425l.448.923z" mask="url(#f)"/><path fill="#000000" fill-opacity=".87" fill-rule="nonzero" d="M274.998 50.944c.31-.153.616-.325.919-.516.302-.191.59-.398.86-.621.272-.223.523-.46.754-.71.232-.25.432-.514.6-.79.169-.277.301-.564.397-.86.095-.298.143-.604.143-.917 0-.23-.019-.465-.057-.707a8.44 8.44 0 00-.149-.727 12.69 12.69 0 00-.203-.723l-.217-.686-1.31.423c.046.153.102.328.17.527.068.198.134.404.198.618.065.214.12.43.165.65a3.1 3.1 0 01.068.625c0 .213-.039.423-.115.632a2.832 2.832 0 01-.316.61 3.82 3.82 0 01-.48.574 6.38 6.38 0 01-.605.527 8.096 8.096 0 01-.686.472c-.24.148-.484.283-.73.405l.594 1.194zm-2.066-9.49l1.002-1.002-1.002-.996-.996.996.996 1.002zm-.835 5.703c.393 0 .754-.043 1.083-.128.329-.086.611-.218.848-.397.236-.179.42-.409.553-.689.132-.28.198-.614.198-1.004 0-.226-.02-.457-.062-.694a6.81 6.81 0 00-.165-.707 7.944 7.944 0 00-.232-.686 16.718 16.718 0 00-.26-.631l-1.206.595a8.62 8.62 0 01.642 1.753c.038.163.057.29.057.38a.731.731 0 01-.133.46.858.858 0 01-.342.263 1.6 1.6 0 01-.467.12c-.172.02-.34.029-.503.029h-.84v1.336h.83zm-6.558-7.658l4.57-1.826-.266-.543-4.264 1.681-.04.688zm-.642 7.673c.206 0 .428-.002.668-.005.24-.004.484-.017.73-.04.248-.022.493-.057.736-.106.244-.049.472-.117.686-.204.214-.087.408-.196.582-.328s.317-.294.428-.486c.327.38.705.666 1.135.859.43.193.914.291 1.453.295h.156V45.82h-.198c-.233 0-.462-.049-.686-.146a2.419 2.419 0 01-.618-.389 2.821 2.821 0 01-.493-.553 2.202 2.202 0 01-.306-.644c-.08-.265-.2-.526-.36-.786a6.169 6.169 0 00-.558-.761 8.71 8.71 0 00-.694-.723c-.25-.233-.504-.459-.761-.678l4.006-1.685-.526-1.242-4.81 2.071-.152 1.367c.167.14.35.285.548.438.198.153.397.312.597.475.2.164.394.33.582.501.188.17.354.343.498.517.144.174.26.348.347.524.087.176.13.35.13.524 0 .195-.047.36-.14.493a1.11 1.11 0 01-.384.334 2.177 2.177 0 01-.558.206c-.21.049-.433.085-.668.107a9.637 9.637 0 01-.717.042 23.301 23.301 0 01-1.62-.01 13.268 13.268 0 01-.898-.066c-.29-.03-.564-.07-.822-.12a4.535 4.535 0 01-.696-.185 2.267 2.267 0 01-.524-.26.859.859 0 01-.303-.342.55.55 0 01-.042-.225c0-.045.004-.094.01-.146.022-.15.06-.302.118-.456.057-.155.123-.302.196-.441.073-.14.139-.249.198-.329l-.97-.814a6.237 6.237 0 00-.384.715c-.12.26-.206.513-.258.756a3.25 3.25 0 00-.073.887c.02.282.102.548.245.799.167.254.363.47.59.65.226.178.472.327.738.445a4.4 4.4 0 00.855.277c.305.066.62.115.947.149.327.033.662.053 1.005.062.342.009.688.013 1.035.013z" mask="url(#f)"/><path fill="#000000" fill-opacity=".56" d="M295.254 43.196a.669.669 0 00-.946 0l-2.583 2.583-2.583-2.583a.669.669 0 10-.945.946l3.055 3.056a.667.667 0 00.947 0l3.055-3.056a.668.668 0 000-.946" mask="url(#f)" transform="matrix(1 0 0 -1 0 90.394)"/><path fill="#FFF" fill-rule="nonzero" d="M166.27 256.28c-.28-.36-.63-1.09-1.24-2-.35-.5-1.21-1.45-1.47-1.94a1.26 1.26 0 01-.15-1 1.32 1.32 0 011.43-1c.51.103.98.353 1.35.72.258.243.496.507.71.79.16.2.2.28.38.51.18.23.3.46.21.12-.07-.5-.19-1.34-.36-2.09-.13-.57-.16-.66-.28-1.09-.12-.43-.19-.79-.32-1.28a14.16 14.16 0 01-.28-1.46 2.82 2.82 0 01.26-1.85 1.19 1.19 0 011.3-.22c.44.325.77.78.94 1.3a7.73 7.73 0 01.52 2c.16 1 .47 2.46.48 2.76 0-.37-.07-1.15 0-1.5a1.07 1.07 0 01.67-.8 2 2 0 01.92-.06c.31.065.585.243.77.5a5.42 5.42 0 01.38 1.83 6.73 6.73 0 01.28-1.62 1.24 1.24 0 01.69-.48c.33-.06.67-.06 1 0 .271.09.508.262.68.49.212.53.34 1.09.38 1.66 0 .14.07-.39.29-.74a1.002 1.002 0 011.9.64v2.26a11.74 11.74 0 01-.24 1.74 5.91 5.91 0 01-.72 1.43 7.21 7.21 0 00-1.19 1.81 4 4 0 00-.1 1c-.001.31.04.62.12.92a5.85 5.85 0 01-1.23 0c-.39-.06-.87-.84-1-1.08a.38.38 0 00-.68 0c-.22.38-.71 1.07-1.05 1.11-.67.08-2.05 0-3.14 0 0 0 .18-1-.23-1.36-.41-.36-.83-.78-1.14-1.06l-.84-.96z" mask="url(#f)"/><path stroke="#000" stroke-linecap="round" stroke-linejoin="round" stroke-width=".75" d="M166.27 256.28c-.28-.36-.63-1.09-1.24-2-.35-.5-1.21-1.45-1.47-1.94a1.26 1.26 0 01-.15-1 1.32 1.32 0 011.43-1c.51.103.98.353 1.35.72.258.243.496.507.71.79.16.2.2.28.38.51.18.23.3.46.21.12-.07-.5-.19-1.34-.36-2.09-.13-.57-.16-.66-.28-1.09-.12-.43-.19-.79-.32-1.28a14.16 14.16 0 01-.28-1.46 2.82 2.82 0 01.26-1.85 1.19 1.19 0 011.3-.22c.44.325.77.78.94 1.3a7.73 7.73 0 01.52 2c.16 1 .47 2.46.48 2.76 0-.37-.07-1.15 0-1.5a1.07 1.07 0 01.67-.8 2 2 0 01.92-.06c.31.065.585.243.77.5a5.42 5.42 0 01.38 1.83 6.73 6.73 0 01.28-1.62 1.24 1.24 0 01.69-.48c.33-.06.67-.06 1 0 .271.09.508.262.68.49.212.53.34 1.09.38 1.66 0 .14.07-.39.29-.74a1.002 1.002 0 011.9.64v2.26a11.74 11.74 0 01-.24 1.74 5.91 5.91 0 01-.72 1.43 7.21 7.21 0 00-1.19 1.81 4 4 0 00-.1 1c-.001.31.04.62.12.92a5.85 5.85 0 01-1.23 0c-.39-.06-.87-.84-1-1.08a.38.38 0 00-.68 0c-.22.38-.71 1.07-1.05 1.11-.67.08-2.05 0-3.14 0 0 0 .18-1-.23-1.36-.41-.36-.83-.78-1.14-1.06l-.84-.96z" mask="url(#f)"/><path fill="#000" fill-rule="nonzero" d="M174.75 256.826v-3.452a.375.375 0 00-.75 0v3.452a.375.375 0 00.75 0zm-1.98-.001l-.02-3.454a.374.374 0 00-.75.004l.02 3.454a.374.374 0 00.75-.004zm-2.77-3.446l.02 3.446a.376.376 0 10.75-.004l-.02-3.446a.376.376 0 10-.75.004z" mask="url(#f)"/><rect width="17" height="17" x="75.5" y="81.5" stroke="#000000" stroke-opacity=".24" mask="url(#f)" rx="2"/><path fill="#000000" fill-opacity=".87" fill-rule="nonzero" d="M268.83 87.308l.85-.85-.856-.856-.85.85.856.856zM267.995 93c.285 0 .55-.02.795-.057.246-.039.467-.105.666-.199.198-.094.373-.219.524-.375.151-.157.28-.353.383-.59.105-.24.157-.518.157-.835 0-.055-.002-.111-.005-.167a5.826 5.826 0 00-.272-1.335 6.775 6.775 0 00-.166-.483 10.547 10.547 0 00-.287-.673 1.284 1.284 0 01-.047-.107l-.93.46.455 1.116a3.393 3.393 0 01.235.89c.007.092.01.16.01.205 0 .084-.005.162-.016.235a1.012 1.012 0 01-.078.277.934.934 0 01-.26.341 1.096 1.096 0 01-.366.186c-.14.041-.294.067-.464.075-.17.009-.357.013-.559.013h-.605V93h.83zm-.621 0v-1.023h-.104c-.22 0-.408-.022-.567-.067a.814.814 0 01-.357-.188.435.435 0 01-.138-.269 2.819 2.819 0 01-.018-.331v-2.62a36.417 36.417 0 00-.107-2.749 7.734 7.734 0 00-.081-.652l-1.023.188a6.5 6.5 0 01.081.628c.023.256.042.535.057.838.016.302.027.615.034.939.007.323.01.635.01.934.004.306.006.596.006.871v.203l-.005.538a158.575 158.575 0 00-.01.718v.148c0 .063.002.134.005.211a2.015 2.015 0 00.185.76c.06.132.148.255.263.37.188.188.417.327.686.417.27.09.596.136.979.136h.104zm-7.435 3.736c.292-.143.58-.304.864-.483.283-.18.553-.375.808-.587.256-.212.492-.438.71-.678.217-.24.405-.492.563-.757.159-.264.282-.538.37-.821a2.927 2.927 0 00.097-1.35 7.46 7.46 0 00-.091-.487 14.851 14.851 0 00-.12-.5 71.521 71.521 0 01-.128-.504 7.759 7.759 0 00-.13-.478c-.049-.158-.098-.319-.146-.482l-.992.313a28.013 28.013 0 01.386 1.315c.042.15.08.299.115.448.035.15.064.296.086.438.023.143.034.279.034.407 0 .338-.082.665-.245.981-.163.317-.38.616-.65.898a5.97 5.97 0 01-.92.78c-.345.238-.7.448-1.065.628l.454.919zm-1.951-9.428l.85-.85-.855-.856-.85.85.855.856zM257.153 93c.285 0 .55-.02.796-.057.245-.039.467-.105.665-.199.198-.094.373-.219.524-.375.152-.157.28-.353.384-.59.104-.24.156-.518.156-.835 0-.055-.001-.111-.005-.167a5.826 5.826 0 00-.271-1.335 6.775 6.775 0 00-.167-.483 10.547 10.547 0 00-.287-.673 1.284 1.284 0 01-.047-.107l-.929.46.454 1.116a3.393 3.393 0 01.235.89c.007.092.01.16.01.205 0 .084-.005.162-.015.235a1.012 1.012 0 01-.079.277.934.934 0 01-.26.341 1.096 1.096 0 01-.366.186c-.139.041-.294.067-.464.075-.17.009-.357.013-.558.013h-.606V93h.83zm-8.776 0c.543 0 1.056-.04 1.54-.123.483-.081.941-.19 1.374-.323.433-.134.845-.285 1.234-.454.39-.169.764-.342 1.122-.52.087.223.216.423.389.598.172.176.377.325.615.446.239.122.507.215.806.28.3.064.621.096.966.096h.11v-1.023h-.11c-.063 0-.146-.002-.25-.007a3.646 3.646 0 01-.728-.125 1.726 1.726 0 01-.371-.152 1.288 1.288 0 01-.308-.235.795.795 0 01-.19-.336c.16-.08.318-.155.474-.225.157-.07.315-.139.475-.208l-.198-.992a3.07 3.07 0 01-.642-.067 5.132 5.132 0 01-.636-.18 8.437 8.437 0 01-.634-.253 29.4 29.4 0 01-.624-.287 73.307 73.307 0 00-.558-.256 7.597 7.597 0 00-.543-.222 4.228 4.228 0 00-.524-.154 2.34 2.34 0 00-.509-.057c-.337 0-.658.082-.962.245a2.96 2.96 0 00-.864.736 3.54 3.54 0 00-.248.328 8.462 8.462 0 00-.182.287c-.05.084-.089.153-.115.206l-.037.077-.007.015.939.422a2.764 2.764 0 01.193-.342c.063-.095.137-.198.224-.307.087-.11.185-.212.295-.308.11-.096.229-.175.357-.237a.919.919 0 01.407-.094c.108 0 .226.016.355.05.129.032.265.077.41.132.144.056.294.12.448.19l.478.222c.212.101.428.2.647.298.219.097.448.188.688.271-.396.198-.798.391-1.205.58-.407.187-.827.354-1.26.5-.433.146-.884.264-1.354.352-.47.089-.965.133-1.487.133h-.75V93h.75zm3.553 2.718l.85-.85-.855-.856-.85.85.855.856zm-8.817.684c.23 0 .487-.016.772-.047.285-.032.573-.084.864-.157.29-.073.573-.168.848-.284.274-.117.52-.26.735-.43.216-.171.39-.371.522-.6a1.589 1.589 0 00.183-1.028 1.097 1.097 0 00-.084-.272c-.042-.094-.1-.19-.175-.29a1.767 1.767 0 00-.29-.294h1.347v-1.023h-4.117l-.078 1.018.115.02a7.276 7.276 0 01.5.115c.105.028.217.06.337.094.12.035.241.073.363.115.198.073.365.146.5.22.136.072.247.141.332.205a.8.8 0 01.185.183.283.283 0 01.058.149c0 .17-.059.32-.175.448-.117.129-.265.24-.446.334-.181.094-.384.173-.608.238a6.537 6.537 0 01-1.26.234 5.418 5.418 0 01-.428.024c-.174 0-.373-.004-.597-.01a3.804 3.804 0 01-.679-.084 2.59 2.59 0 01-.657-.237 1.461 1.461 0 01-.53-.473c-.219-.333-.328-.768-.328-1.304 0-.845.273-1.939.819-3.282l-.955-.386c-.546 1.322-.842 2.456-.887 3.402a6.398 6.398 0 00-.005.256c0 .761.169 1.39.506 1.883.16.271.366.49.618.655.252.165.527.293.825.383.297.09.607.15.93.18.324.03.637.045.94.045z" mask="url(#f)"/><path fill="#000000" fill-opacity=".32" d="M289 81a9 9 0 100 18 9 9 0 000-18zm0 1a8 8 0 110 16 8 8 0 010-16z" mask="url(#f)"/><circle cx="289" cy="90" r="7" fill="url(#g)" stroke="#000" stroke-opacity=".1" mask="url(#f)"/><rect width="18" height="18" x="75" y="117" fill="#EA475B" fill-rule="nonzero" mask="url(#f)" rx="2"/><path mask="url(#f)" d="M78 122h12v8H78z"/><path stroke="#FFF" stroke-linecap="round" stroke-linejoin="round" stroke-width="2" mask="url(#f)" transform="rotate(-45 83.975 125.06)" d="M80 123v4l7.95.121"/><path fill="#000000" fill-opacity=".87" fill-rule="nonzero" d="M270.197 129.047a24.43 24.43 0 00.086-1.633 75.751 75.751 0 00-.003-2.854 47.688 47.688 0 00-.266-3.798l-1.023.156c.119 1.096.212 2.487.282 4.174.01.289.016.595.016.918 0 .268-.004.548-.01.84-.018.647-.055 1.36-.11 2.14l1.028.057zM263.1 129c.26 0 .542-.011.845-.034a5.25 5.25 0 00.934-.159c.32-.084.64-.208.963-.373.321-.165.632-.392.93-.681.098-.094.195-.212.29-.355a3.017 3.017 0 00.423-.975 2.182 2.182 0 00.05-.606 1.73 1.73 0 00-.157-.618 1.835 1.835 0 00-.365-.509c-.264-.257-.525-.413-.783-.467a3.343 3.343 0 00-.673-.08c-.153 0-.308.012-.464.036-.755.129-1.555.584-2.4 1.367.007-.268.01-.534.01-.798 0-1.34-.081-2.616-.245-3.83l-1.054.188a91.893 91.893 0 01.12 1.22 23.239 23.239 0 01.12 2.323v.188c-.003.445-.015.83-.034 1.153-.019.323-.048.596-.086.819a6.461 6.461 0 00-.524.748c-.117.204-.2.344-.248.42h-.876V129h3.224zm-.647-1.023h-.501c.303-.407.491-.655.566-.746.075-.09.156-.182.243-.276.473-.518.917-.92 1.333-1.205.415-.286.802-.468 1.16-.548a1.353 1.353 0 01.402-.021c.14.014.27.05.39.107.12.057.223.135.31.232a.739.739 0 01.172.355 1.033 1.033 0 01-.057.59 1.377 1.377 0 01-.413.542 3.809 3.809 0 01-.944.584 4.636 4.636 0 01-.937.285 5.426 5.426 0 01-.897.094c-.29.005-.566.007-.827.007zM257.143 129c.1 0 .214-.007.339-.02.125-.015.251-.04.378-.08.127-.037.249-.091.365-.16a1.07 1.07 0 00.305-.277c.067.073.147.142.243.208s.204.124.324.172a2.156 2.156 0 00.821.157h.167v-1.023h-.115c-.23-.003-.404-.04-.524-.11a.793.793 0 01-.279-.26.925.925 0 01-.133-.342 1.872 1.872 0 01-.029-.295l.005-.279a249.216 249.216 0 00.029-2.303c.002-.324.002-.651 0-.984a54.28 54.28 0 00-.013-.954 22.987 22.987 0 00-.034-.848 8.865 8.865 0 00-.06-.658l-1.017.13c.02.171.037.385.05.643.012.257.021.539.028.845a54.886 54.886 0 01.01 1.943 900.914 900.914 0 01-.02 1.698 54.294 54.294 0 01-.016.747c-.007.09-.015.18-.024.268a1.632 1.632 0 01-.044.253c-.02.08-.048.152-.08.217a.43.43 0 01-.129.154.53.53 0 01-.216.094c-.05.01-.112.019-.185.026a4.426 4.426 0 01-.266.015h-.533V129h.653zm-7.023.016c.17 0 .333-.026.488-.076.155-.05.3-.122.438-.214.137-.092.264-.2.381-.323a2.77 2.77 0 00.316-.405c.128.31.323.554.584.733.26.18.565.269.913.269.177 0 .344-.026.5-.078a1.68 1.68 0 00.794-.559c.104-.132.191-.28.26-.443.091.167.2.317.33.449.128.132.27.245.425.339.154.094.319.166.493.216.174.05.351.076.532.076h.125v-1.023h-.125c-.25 0-.477-.105-.681-.315-.203-.21-.375-.53-.514-.958a4.11 4.11 0 01-.122-.443 6.996 6.996 0 01-.12-.76 25.926 25.926 0 01-.034-.346l-1.023.083c.007.125.013.256.018.392a9.286 9.286 0 01.003.647 5.828 5.828 0 01-.052.602c-.028.2-.074.381-.139.543-.064.161-.15.292-.258.391a.585.585 0 01-.412.149.581.581 0 01-.412-.141.825.825 0 01-.222-.365 1.602 1.602 0 01-.078-.407 3.986 3.986 0 01.013-.673c.014-.192.035-.374.062-.548.028-.174.05-.322.068-.444l-1.017-.193c-.017.16-.043.34-.076.54a6.157 6.157 0 01-.331 1.213 2.43 2.43 0 01-.277.527 1.423 1.423 0 01-.373.37c-.14.095-.3.142-.477.142a.386.386 0 01-.326-.146.719.719 0 01-.141-.337 2.405 2.405 0 01-.023-.556c.01-.187.03-.373.06-.555a10.923 10.923 0 01.174-.874l-1.001-.277c-.021.084-.044.183-.068.298-.025.114-.057.24-.097.378-.04.137-.088.283-.143.438a4.344 4.344 0 01-.204.472 3.531 3.531 0 01-.266.42c-.1.138-.211.261-.331.37-.12.11-.249.198-.386.264a.97.97 0 01-.425.1h-.11V129h.11a1.934 1.934 0 001.027-.284c.147-.089.28-.196.402-.321s.237-.265.345-.418a1.427 1.427 0 001.403 1.039zm-7.8 3.386c.23 0 .487-.016.772-.047.285-.032.573-.084.864-.157.29-.073.573-.168.847-.284.275-.117.52-.26.736-.43.216-.171.39-.371.522-.6a1.589 1.589 0 00.182-1.028 1.097 1.097 0 00-.083-.272c-.042-.094-.1-.19-.175-.29a1.767 1.767 0 00-.29-.294h1.347v-1.023h-4.117l-.078 1.018.115.02a7.277 7.277 0 01.5.115c.105.028.217.06.337.094.12.035.241.073.363.115.198.073.365.146.5.22.136.072.247.141.332.205a.8.8 0 01.185.183.283.283 0 01.058.149c0 .17-.059.32-.175.448-.117.129-.265.24-.446.334-.181.094-.384.173-.608.238a6.537 6.537 0 01-1.26.234 5.418 5.418 0 01-.428.024c-.174 0-.373-.004-.597-.01a3.804 3.804 0 01-.679-.084 2.59 2.59 0 01-.657-.237 1.462 1.462 0 01-.53-.473c-.219-.333-.328-.768-.328-1.304 0-.845.273-1.939.819-3.282l-.955-.386c-.546 1.322-.842 2.456-.887 3.402a6.398 6.398 0 00-.005.256c0 .761.169 1.39.506 1.883.16.271.366.49.618.655.252.165.527.293.825.383.297.09.607.15.93.18.324.03.637.045.94.045z" mask="url(#f)"/><path fill="#000000" fill-opacity=".32" d="M289 117a9 9 0 100 18 9 9 0 000-18zm0 1a8 8 0 110 16 8 8 0 010-16z" mask="url(#f)"/><circle cx="289" cy="126" r="7" fill="url(#h)" stroke="#000" stroke-opacity=".1" mask="url(#f)"/><rect width="17" height="17" x="75.5" y="153.5" stroke="#000000" stroke-opacity=".24" mask="url(#f)" rx="2"/><path fill="#000000" fill-opacity=".87" fill-rule="nonzero" d="M267.995 165c.285 0 .55-.02.795-.057.246-.039.467-.105.666-.199.198-.094.373-.219.524-.375.151-.157.28-.353.383-.59.105-.24.157-.518.157-.835 0-.055-.002-.111-.005-.167a5.826 5.826 0 00-.272-1.335 6.775 6.775 0 00-.166-.483 10.547 10.547 0 00-.287-.673 1.284 1.284 0 01-.047-.107l-.93.46.455 1.116a3.393 3.393 0 01.235.89c.007.092.01.16.01.205 0 .084-.005.162-.016.235a1.012 1.012 0 01-.078.277.934.934 0 01-.26.341 1.096 1.096 0 01-.366.186c-.14.041-.294.067-.464.075-.17.009-.357.013-.559.013h-.605V165h.83zm.855 2.718l.85-.85-.855-.856-.85.85.855.856zm-3.704-7.528l.85-.85-.855-.857-.85.85.855.857zM263.68 165c.511 0 .94-.053 1.289-.16.348-.105.631-.268.85-.487.15.191.341.347.574.467.233.12.525.18.877.18h.104v-1.023h-.104a.737.737 0 01-.436-.12.856.856 0 01-.266-.302 1.429 1.429 0 01-.138-.397 3.685 3.685 0 01-.058-.407 16.003 16.003 0 00-.094-.902 4.9 4.9 0 00-.151-.71l-.98.277c.076.264.129.499.158.704.03.205.045.407.045.605 0 .414-.133.726-.397.937-.264.21-.689.315-1.273.315h-.193V165h.193zm-2.74-6.083l.851-.85-.855-.857-.85.85.855.857zM258.37 165c.532 0 1.033-.03 1.502-.091.47-.061.868-.154 1.195-.28.4.133.812.228 1.237.285.424.057.854.086 1.288.086h.105v-1.023h-.1c-.11 0-.227-.003-.349-.01a12.262 12.262 0 01-.712-.063 3.289 3.289 0 01-.31-.052c.187-.205.33-.439.43-.702.099-.262.152-.47.159-.626.007-.154.01-.247.01-.279 0-.24-.031-.475-.094-.704a2.139 2.139 0 00-.341-.704 1.789 1.789 0 00-1.396-.73h-.057c-.233 0-.461.058-.684.176a2.02 2.02 0 00-.647.554c-.188.24-.331.504-.43.793-.1.288-.149.596-.149.923 0 .5.226.95.678 1.346-.156.018-.353.035-.59.052-.236.018-.484.026-.745.026h-.105V165h.105zm2.66-1.492a1.559 1.559 0 01-.712-.415 1.124 1.124 0 01-.198-.274.597.597 0 01-.07-.266c0-.212.03-.406.091-.582.06-.175.138-.325.232-.448.094-.124.196-.22.305-.287a.588.588 0 01.306-.102c.114 0 .224.046.328.138.105.092.192.21.264.355.071.144.117.28.138.41.02.128.031.233.031.313a1.39 1.39 0 01-.247.787 1.16 1.16 0 01-.467.37zm-7.33-4.962l.772-.772-.777-.777-.772.772.777.777zm-1.179 1.649l.845-.85-.855-.856-.846.85.856.856zm2.29.005l.846-.845-.856-.856-.845.845.855.856zm-7.44 8.26a6.48 6.48 0 001.54-.243c.47-.138.873-.354 1.213-.647a2.94 2.94 0 00.793-1.146c.19-.47.284-1.048.284-1.737.077.056.151.103.224.143a1.345 1.345 0 00.488.157c.092.012.2.018.321.018.296 0 .575-.055.837-.164.263-.11.499-.286.707-.53.073.112.16.21.259.295.099.085.203.157.313.217.11.059.22.104.331.135.111.032.214.047.308.047a1.545 1.545 0 00.94-.303c.131-.097.249-.212.351-.344a1.99 1.99 0 00.258-.443c.087.17.198.322.332.456a2.156 2.156 0 00.954.556c.18.049.361.073.546.073h.104v-1.023h-.104a.975.975 0 01-.52-.135 1.384 1.384 0 01-.388-.36 2.15 2.15 0 01-.28-.517 4.35 4.35 0 01-.182-.605 6.07 6.07 0 01-.107-.623 7.46 7.46 0 01-.047-.577l-1.022.073c.007.118.018.268.034.449a6.732 6.732 0 01-.008 1.195 2.19 2.19 0 01-.126.555c-.062.165-.15.3-.266.405a.641.641 0 01-.448.156.487.487 0 01-.334-.115.782.782 0 01-.206-.305 1.794 1.794 0 01-.107-.433c-.021-.162-.032-.3-.032-.412v-.258c0-.112.002-.223.006-.334.007-.164.012-.312.015-.444l-1.059-.078c-.007.177-.013.358-.018.543a5.914 5.914 0 01-.04.537c-.02.174-.05.338-.09.493-.04.155-.1.29-.18.404a.888.888 0 01-.306.274.95.95 0 01-.461.102c-.24 0-.438-.058-.593-.175a1.5 1.5 0 01-.394-.454 3.51 3.51 0 01-.279-.62 21.546 21.546 0 00-.35-.942l-.085-.235-.866.563c.114.3.218.6.31.9.092.301.16.589.2.864a5.188 5.188 0 01.058 1.002 4.328 4.328 0 01-.177.996c-.317.967-1.214 1.485-2.692 1.555h-.178c-.295 0-.553-.032-.772-.097a2.194 2.194 0 01-.569-.25 1.671 1.671 0 01-.399-.35 2.221 2.221 0 01-.26-.396 1.985 1.985 0 01-.152-.389 3.213 3.213 0 01-.07-.323 3.023 3.023 0 01-.026-.61c.01-.206.034-.41.07-.614a5.913 5.913 0 01.308-1.103c.06-.157.122-.293.182-.41.061-.116.114-.204.16-.263l-.83-.616c-.143.237-.28.5-.41.788-.13.289-.24.595-.328.92a4.918 4.918 0 00-.165.846c-.02.238-.03.423-.03.556 0 .215.015.433.046.652.063.424.187.802.373 1.135.186.332.423.614.71.847.287.233.614.41.983.533.369.121.767.182 1.195.182h.203z" mask="url(#f)"/><path fill="#000000" fill-opacity=".32" d="M289 153a9 9 0 100 18 9 9 0 000-18zm0 1a8 8 0 110 16 8 8 0 010-16z" mask="url(#f)"/><circle cx="289" cy="162" r="7" fill="url(#i)" stroke="#000" stroke-opacity=".1" mask="url(#f)"/><rect width="17" height="17" x="75.5" y="189.5" stroke="#000000" stroke-opacity=".24" mask="url(#f)" rx="2"/><path fill="#000000" fill-opacity=".87" fill-rule="nonzero" d="M269.205 196.32l.85-.85-.855-.856-.85.85.855.856zm-2.28 8.416c.292-.143.58-.304.864-.483.283-.18.553-.375.808-.587.256-.212.493-.438.71-.678.217-.24.405-.492.563-.757.159-.264.282-.538.37-.821a2.927 2.927 0 00.097-1.35 7.46 7.46 0 00-.09-.487 14.851 14.851 0 00-.12-.5 71.534 71.534 0 01-.129-.504 7.76 7.76 0 00-.13-.478c-.049-.158-.098-.319-.146-.482l-.992.313a28.016 28.016 0 01.387 1.315c.041.15.08.299.114.448.035.15.064.296.086.438.023.143.034.279.034.407 0 .338-.081.665-.245.981-.163.317-.38.616-.65.898a5.97 5.97 0 01-.92.78c-.345.238-.7.448-1.065.628l.454.919zM263.873 201c.285 0 .56-.02.827-.057.266-.039.51-.105.733-.199.223-.094.42-.219.592-.375.172-.157.31-.353.415-.59.104-.24.157-.518.157-.835 0-.055-.002-.111-.006-.167a5.826 5.826 0 00-.271-1.335 6.775 6.775 0 00-.167-.483 10.547 10.547 0 00-.287-.673 1.285 1.285 0 01-.047-.107l-.929.46.454 1.116a3.393 3.393 0 01.235.89c.007.092.01.16.01.205 0 .084-.005.162-.015.235a1.012 1.012 0 01-.078.277.817.817 0 01-.293.341c-.125.082-.27.144-.433.186-.163.041-.34.067-.532.075a12.99 12.99 0 01-.59.013h-1.006V201h1.231zm-.26 2.551l.844-.845-.855-.856-.845.85.855.851zm2.138.01l.846-.85-.856-.85-.845.845.855.856zm-6.188-7.502l.846-.845-.856-.856-.845.85.855.851zm2.14.01l.845-.85-.856-.85-.845.845.856.856zm-2.73 4.931c.328 0 .612-.013.854-.04.242-.025.453-.065.634-.12a1.948 1.948 0 00.835-.487c.15.191.34.347.574.467.233.12.525.18.876.18h.104v-1.023h-.104a.737.737 0 01-.436-.12.856.856 0 01-.266-.302 1.429 1.429 0 01-.138-.397 3.685 3.685 0 01-.057-.407 16.003 16.003 0 00-.094-.902 4.901 4.901 0 00-.152-.71l-.98.277c.076.264.13.499.159.704.03.205.044.407.044.605 0 .209-.035.392-.104.548a.942.942 0 01-.326.391c-.148.105-.34.183-.574.235a3.964 3.964 0 01-.848.078h-.777V201h.777zm-5.467 3.663c.508-.08 1-.22 1.474-.418a5.392 5.392 0 001.294-.762c.388-.31.718-.672.991-1.087.273-.416.462-.881.566-1.396h.574v-1.023h-.495a4.842 4.842 0 00-.282-1.515 4.007 4.007 0 00-.303-.66 3.296 3.296 0 00-.396-.553c-.414-.446-.868-.668-1.362-.668-.223 0-.437.056-.644.17-.207.112-.4.279-.577.498a2.901 2.901 0 00-.38.67c-.109.26-.177.49-.207.694-.03.204-.044.371-.044.504 0 .139.012.278.036.417.042.264.143.497.303.699.362.449.92.696 1.675.74.191.018.362.027.514.027h.592c-.038.26-.145.526-.321.796-.176.27-.415.524-.717.764a5.16 5.16 0 01-1.09.647c-.425.191-.905.34-1.44.449l.24 1.007zm2.865-4.697l-.084.001c-.153 0-.317-.005-.49-.016a2.63 2.63 0 01-.222-.023 1.854 1.854 0 01-.261-.058 1.226 1.226 0 01-.25-.104.614.614 0 01-.196-.17.489.489 0 01-.107-.247 1.826 1.826 0 01-.018-.232 2.37 2.37 0 01.295-1.09c.07-.123.152-.223.242-.3a.433.433 0 01.287-.118c.063 0 .122.01.177.031.056.02.109.048.16.08.05.034.097.07.14.11.044.04.083.078.118.113.087.1.171.22.253.357.082.137.155.291.222.462.066.17.12.355.161.553.042.198.068.408.079.631a6.1 6.1 0 01-.506.02zm-5.682-4.658l.85-.85-.856-.856-.85.85.856.856zm-.835 5.692c.285 0 .55-.02.796-.057.245-.039.467-.105.665-.199.198-.094.373-.219.524-.375.151-.157.28-.353.384-.59.104-.24.156-.518.156-.835 0-.055-.002-.111-.005-.167a5.826 5.826 0 00-.271-1.335 6.775 6.775 0 00-.167-.483 10.546 10.546 0 00-.287-.673 1.284 1.284 0 01-.047-.107l-.929.46.454 1.116a3.393 3.393 0 01.235.89c.007.092.01.16.01.205 0 .084-.005.162-.015.235a1.012 1.012 0 01-.079.277.934.934 0 01-.26.341 1.096 1.096 0 01-.366.186c-.139.041-.294.067-.464.075-.17.009-.357.013-.558.013h-.606V201h.83zm-5.343 3.402c.23 0 .487-.016.772-.047.286-.032.574-.084.864-.157.29-.073.573-.168.848-.284.275-.117.52-.26.735-.43.216-.171.39-.371.522-.6a1.589 1.589 0 00.183-1.028 1.097 1.097 0 00-.084-.272c-.041-.094-.1-.19-.174-.29a1.767 1.767 0 00-.29-.294h1.346v-1.023h-4.116l-.079 1.018.115.02a7.277 7.277 0 01.5.115c.105.028.217.06.337.094.12.035.241.073.363.115.198.073.365.146.5.22.137.072.247.141.332.205a.8.8 0 01.185.183.283.283 0 01.058.149c0 .17-.058.32-.175.448-.116.129-.265.24-.446.334-.18.094-.384.173-.608.238a6.537 6.537 0 01-1.26.234 5.418 5.418 0 01-.428.024c-.174 0-.373-.004-.597-.01a3.804 3.804 0 01-.678-.084 2.59 2.59 0 01-.658-.237 1.461 1.461 0 01-.53-.473c-.218-.333-.328-.768-.328-1.304 0-.845.273-1.939.82-3.282l-.956-.386c-.546 1.322-.841 2.456-.887 3.402a6.398 6.398 0 00-.005.256c0 .761.169 1.39.506 1.883.16.271.366.49.619.655.252.165.526.293.824.383.297.09.608.15.931.18.324.03.637.045.94.045z" mask="url(#f)"/><path fill="#000000" fill-opacity=".32" d="M289 189a9 9 0 100 18 9 9 0 000-18zm0 1a8 8 0 110 16 8 8 0 010-16z" mask="url(#f)"/><circle cx="289" cy="198" r="7" fill="url(#j)" stroke="#000" stroke-opacity=".1" mask="url(#f)"/><path fill="#000000" fill-opacity=".12" mask="url(#f)" d="M75 15h224v1H75zM75 272h224v1H75z"/></g><g filter="url(#k)" opacity=".96" transform="translate(134 187)"><path fill="#FFF" d="M117 0a4 4 0 014 4v32a4 4 0 01-4 4H68.613l-7.07 7.071a2 2 0 01-2.828 0L51.644 40H4a4 4 0 01-4-4V4a4 4 0 014-4h113z"/><path fill="#000000" fill-opacity=".56" fill-rule="nonzero" d="M102.688 23c.212 0 .412-.01.6-.031.188-.021.365-.061.532-.12.167-.06.324-.145.472-.256.148-.111.29-.26.425-.443.16.118.334.233.522.347.188.113.384.208.587.286a2.254 2.254 0 00.843.17c.142 0 .285-.02.428-.057.226-.063.417-.175.573-.337.157-.162.28-.351.37-.569.091-.217.147-.416.168-.597a4 4 0 00.031-.438c0-.125-.009-.247-.026-.365a3.157 3.157 0 00-.185-.69 2.148 2.148 0 00-.358-.604c-.15-.178-.33-.321-.54-.43a1.554 1.554 0 00-.727-.165c-.23 0-.43.046-.603.138a1.696 1.696 0 00-.46.36 2.75 2.75 0 00-.36.506c-.105.19-.205.382-.3.577-.107.215-.214.425-.32.628a2.548 2.548 0 01-.376.543c-.144.158-.319.285-.524.38-.205.097-.463.144-.772.144h-.105V23h.105zm3.965-1.085c-.14 0-.296-.035-.47-.105a4.026 4.026 0 01-.866-.506l.282-.568c.087-.17.164-.319.232-.444s.132-.23.193-.313a.739.739 0 01.183-.185.35.35 0 01.196-.06.59.59 0 01.276.063c.08.041.15.094.209.159.059.064.11.135.151.214a1.698 1.698 0 01.162.425 1.67 1.67 0 01.047.396 1.562 1.562 0 01-.097.527.887.887 0 01-.143.256.333.333 0 01-.172.12.752.752 0 01-.183.02zm-8.405-5.369l.772-.772-.777-.777-.773.772.778.777zm-1.18 1.649l.846-.85-.856-.856-.845.85.856.856zm2.291.005l.845-.845-.855-.856-.846.845.856.856zm-3.146 4.816c.17 0 .333-.026.488-.076.155-.05.3-.122.438-.214s.264-.2.381-.323a2.77 2.77 0 00.316-.405c.128.31.323.554.584.733.26.18.565.269.913.269.177 0 .344-.026.5-.078a1.68 1.68 0 00.794-.559c.104-.132.191-.28.26-.443.091.167.2.317.33.449.128.132.27.245.425.339.155.094.319.166.493.216.174.05.351.076.532.076h.125v-1.023h-.125c-.25 0-.477-.105-.68-.315-.204-.21-.376-.53-.515-.958a4.11 4.11 0 01-.122-.443 6.995 6.995 0 01-.12-.76 25.941 25.941 0 01-.034-.346l-1.023.083c.007.125.013.256.018.392a9.284 9.284 0 01.003.647 5.827 5.827 0 01-.052.602c-.028.2-.074.381-.139.543-.064.161-.15.292-.258.391a.585.585 0 01-.412.149.581.581 0 01-.412-.141.825.825 0 01-.222-.365 1.602 1.602 0 01-.078-.407 3.986 3.986 0 01.013-.673c.014-.192.035-.374.063-.548.027-.174.05-.322.067-.444l-1.017-.193c-.017.16-.043.34-.076.54a6.157 6.157 0 01-.331 1.213 2.43 2.43 0 01-.277.527 1.423 1.423 0 01-.373.37c-.14.095-.3.142-.477.142a.386.386 0 01-.326-.146.719.719 0 01-.14-.337 2.405 2.405 0 01-.024-.556c.01-.187.03-.373.06-.555a10.923 10.923 0 01.174-.874l-1.001-.277c-.021.084-.044.183-.068.298-.025.114-.057.24-.097.378-.04.137-.088.283-.143.438a4.344 4.344 0 01-.204.472 3.531 3.531 0 01-.266.42c-.1.138-.211.261-.331.37-.12.11-.249.198-.386.264a.97.97 0 01-.425.1h-.11V23h.11a1.934 1.934 0 001.027-.284c.147-.089.28-.196.402-.321s.237-.265.345-.418a1.427 1.427 0 001.403 1.039zM93.135 23v-1.023h-.105c-.219 0-.407-.022-.566-.067a.814.814 0 01-.357-.188.435.435 0 01-.138-.269 2.819 2.819 0 01-.019-.331v-2.62a36.414 36.414 0 00-.107-2.749 7.734 7.734 0 00-.08-.652l-1.023.188a6.5 6.5 0 01.08.628c.023.256.043.535.058.838.016.302.027.615.034.939.007.323.01.635.01.934.004.306.006.596.006.871v.203l-.005.538a158.524 158.524 0 00-.01.718v.148c0 .063.002.134.004.211a2.015 2.015 0 00.185.76c.061.132.15.255.264.37.188.188.417.327.686.417.27.09.596.136.978.136h.105zm-6.605.016c.121 0 .255-.006.401-.016a4.084 4.084 0 00.85-.154c.133-.04.248-.09.345-.149.365-.194.637-.439.817-.733.179-.294.268-.613.268-.957 0-.46-.16-.911-.48-1.357a2.196 2.196 0 00-.454-.438 5.995 5.995 0 00-.675-.433 14.21 14.21 0 00-.835-.428c-.3-.142-.613-.285-.937-.428l-1.815-.746-.496.94.412.161c-.208.101-.388.229-.537.384-.15.155-.274.321-.373.5a2.33 2.33 0 00-.29 1.109c0 .254.066.518.196.79.13.274.326.551.587.833a8.013 8.013 0 01-.663.063c-.128.006-.272.012-.43.015a25.41 25.41 0 01-.55.005h-.141V23h.14c.247 0 .503-.005.767-.016.265-.01.524-.027.778-.05.254-.022.496-.052.728-.09a4.98 4.98 0 00.623-.141c.296.118.587.2.874.245.287.045.583.068.89.068zm-1.816-1.43a3.548 3.548 0 01-.376-.284 2.2 2.2 0 01-.31-.329 1.559 1.559 0 01-.211-.373 1.126 1.126 0 01-.079-.417c0-.157.033-.32.1-.49a1.57 1.57 0 01.273-.46c.117-.136.241-.235.373-.297a.88.88 0 01.376-.094c.063 0 .127.007.193.02.15.032.27.088.363.17a.878.878 0 01.214.282c.05.106.083.217.099.334.015.116.023.227.023.331a1.794 1.794 0 01-.577 1.304c-.13.122-.284.223-.461.303zm1.716.428a2.682 2.682 0 01-.48-.037 3.13 3.13 0 00.36-.459c.108-.167.2-.336.274-.508.075-.173.133-.344.175-.514.042-.17.063-.329.063-.475 0-.104-.002-.216-.005-.334a1.514 1.514 0 00-.063-.376c.247.115.463.242.647.381.184.14.338.281.462.425.123.145.216.288.279.43a.993.993 0 01.094.397c0 .143-.033.28-.097.41a.894.894 0 01-.313.342 1.768 1.768 0 01-.56.232 3.49 3.49 0 01-.836.086zM81.938 23v-1.023h-.104c-.209 0-.381-.027-.517-.08a.933.933 0 01-.339-.225 1.316 1.316 0 01-.232-.35 75.642 75.642 0 01-.584-1.367 2925.553 2925.553 0 01-1.213-2.945l-.95.397 1.649 3.965a1.98 1.98 0 01-.694.438 1.84 1.84 0 01-.477.128c-.13.012-.23.019-.295.019-.14 0-.279-.016-.418-.047a2.393 2.393 0 01-.631-.24 3.085 3.085 0 01-.631-.465l-.59.83a3.4 3.4 0 00.968.712c.35.169.73.253 1.14.253.247 0 .47-.015.668-.044a3.15 3.15 0 00.55-.13c.169-.058.327-.13.475-.217.148-.087.295-.188.44-.303a1.8 1.8 0 00.262.269c.1.085.218.159.352.222.134.062.289.112.464.148.176.037.377.055.603.055h.104zm-9.256 0c.049-.002.104-.004.165-.008.092-.005.19-.017.295-.036.104-.02.214-.046.328-.079.115-.033.228-.077.34-.133a1.61 1.61 0 00.696-.62c.158-.265.237-.576.237-.934 0-.359-.104-.748-.313-1.17-.208-.42-.527-.874-.954-1.36-.15-.168-.296-.322-.439-.463a15.907 15.907 0 00-.657-.613 1.055 1.055 0 01-.11-.099l-.657.798c0 .004.031.032.094.084.063.052.146.125.25.22a7.421 7.421 0 00-.61.636c-.567.681-.85 1.337-.85 1.967 0 .358.085.668.255.93.17.263.423.473.757.63.128.062.255.11.38.146.126.034.24.06.342.075a2.113 2.113 0 00.384.029h.067zm-.007-1.039h-.089c-.021 0-.048-.002-.08-.004a2.127 2.127 0 01-.355-.065 1.247 1.247 0 01-.204-.076.802.802 0 01-.224-.141.65.65 0 01-.128-.16.502.502 0 01-.058-.164 1.048 1.048 0 01-.013-.161c0-.178.041-.357.123-.538.082-.18.182-.355.3-.522.118-.167.244-.32.378-.459s.252-.254.352-.344c.338.365.595.71.773 1.033.177.323.266.6.266.83a.759.759 0 01-.086.383.688.688 0 01-.28.253 1.059 1.059 0 01-.208.073 2.766 2.766 0 01-.209.042c-.066.01-.127.016-.183.018l-.135.003h.06zm-1.38-5.211l1.184-.658 1.263-.74-.308-.408-.725.392a.448.448 0 01-.22.057h-.02a.67.67 0 01-.248-.057.827.827 0 01-.373-.334.404.404 0 01-.052-.167v-.078a.57.57 0 01.036-.199.581.581 0 01.488-.383 1.371 1.371 0 01.363.008c.07.01.161.027.276.052l.146-.48-.198-.047a2.276 2.276 0 00-.198-.037 1.623 1.623 0 00-.23-.015c-.184 0-.355.033-.511.099a1.133 1.133 0 00-.644.691 1.057 1.057 0 00.023.702c.06.135.143.259.25.37.108.112.235.197.381.256l-.934.522.25.454zM60.375 23c.212 0 .412-.01.6-.031.188-.021.365-.061.532-.12.167-.06.324-.145.472-.256.148-.111.29-.26.425-.443.16.118.334.233.522.347.188.113.384.208.587.286a2.254 2.254 0 00.843.17c.142 0 .285-.02.427-.057.227-.063.418-.175.574-.337.157-.162.28-.351.37-.569.091-.217.147-.416.168-.597.02-.18.031-.327.031-.438 0-.125-.009-.247-.026-.365a3.157 3.157 0 00-.185-.69 2.148 2.148 0 00-.358-.604c-.15-.178-.33-.321-.54-.43a1.554 1.554 0 00-.727-.165c-.23 0-.43.046-.603.138a1.696 1.696 0 00-.46.36 2.75 2.75 0 00-.36.506c-.105.19-.205.382-.3.577-.107.215-.214.425-.32.628a2.548 2.548 0 01-.376.543c-.144.158-.319.285-.524.38-.205.097-.463.144-.772.144h-.105V23h.105zm3.965-1.085c-.14 0-.296-.035-.47-.105a4.026 4.026 0 01-.866-.506l.282-.568c.087-.17.164-.319.232-.444s.132-.23.193-.313a.739.739 0 01.183-.185.35.35 0 01.196-.06.59.59 0 01.276.063c.08.041.15.094.209.159.059.064.11.135.151.214a1.698 1.698 0 01.162.425 1.67 1.67 0 01.047.396 1.562 1.562 0 01-.097.527.887.887 0 01-.143.256.333.333 0 01-.172.12.752.752 0 01-.183.02zm-8.76 4.748c.508-.08 1-.22 1.474-.418a5.392 5.392 0 001.294-.762c.388-.31.718-.672.991-1.087.273-.416.462-.881.566-1.396h.574v-1.023h-.496a4.843 4.843 0 00-.281-1.515 4.007 4.007 0 00-.303-.66 3.296 3.296 0 00-.396-.553c-.414-.446-.868-.668-1.362-.668-.223 0-.438.056-.644.17-.207.112-.4.279-.577.498a2.901 2.901 0 00-.38.67c-.109.26-.177.49-.207.694-.03.204-.044.371-.044.504 0 .139.012.278.036.417.042.264.143.497.303.699.362.449.92.696 1.675.74.19.018.362.027.514.027h.592c-.039.26-.146.526-.321.796-.176.27-.415.524-.718.764a5.16 5.16 0 01-1.09.647c-.424.191-.904.34-1.44.449l.24 1.007zm2.865-4.697l-.084.001c-.153 0-.317-.005-.49-.016a2.63 2.63 0 01-.222-.023 1.854 1.854 0 01-.261-.058 1.226 1.226 0 01-.25-.104.614.614 0 01-.196-.17.489.489 0 01-.107-.247 1.826 1.826 0 01-.018-.232 2.37 2.37 0 01.295-1.09c.07-.123.151-.223.242-.3a.433.433 0 01.287-.118c.062 0 .122.01.177.031.056.02.109.048.16.08.05.034.097.07.14.11.044.04.083.078.118.113.087.1.171.22.253.357.081.137.155.291.221.462.067.17.12.355.162.553.042.198.068.408.078.631a6.1 6.1 0 01-.505.02zm-4.315 1.081c.048-.577.077-1.122.086-1.633a75.745 75.745 0 00-.003-2.854 47.688 47.688 0 00-.266-3.798l-1.023.156c.119 1.096.213 2.487.282 4.174.01.289.016.595.016.918 0 .268-.004.548-.01.84-.018.647-.055 1.36-.11 2.14l1.028.057zm-6.068 3.689c.292-.143.58-.304.863-.483.284-.18.553-.375.809-.587.256-.212.492-.438.71-.678.217-.24.405-.492.563-.757.158-.264.282-.538.37-.821a2.927 2.927 0 00.097-1.35 7.46 7.46 0 00-.091-.487 14.85 14.85 0 00-.12-.5 71.51 71.51 0 01-.128-.504 7.76 7.76 0 00-.13-.478c-.05-.158-.098-.319-.147-.482l-.991.313a28.014 28.014 0 01.386 1.315c.042.15.08.299.115.448.035.15.063.296.086.438.023.143.034.279.034.407 0 .338-.082.665-.245.981-.164.317-.38.616-.65.898a5.97 5.97 0 01-.92.78c-.345.238-.7.448-1.065.628l.454.919zm-2.818-3.741c.209 0 .419-.016.629-.047.21-.031.413-.082.608-.151.195-.07.376-.16.545-.27.169-.109.316-.24.441-.393a1.264 1.264 0 00.271-.553c.028-.122.043-.261.045-.418a2.41 2.41 0 00-.06-.526 3.792 3.792 0 00-.238-.681 5.52 5.52 0 00-.38-.7 6.908 6.908 0 00-1.057-1.28 5.968 5.968 0 00-.608-.506 3.66 3.66 0 00-.618-.366l-.423.95c.157.07.317.163.48.282.164.118.324.254.483.407a6.2 6.2 0 01.456.493c.146.175.28.356.4.542.12.186.222.372.307.559.085.186.147.364.185.534.028.126.042.233.042.324 0 .125-.026.219-.078.282a1.082 1.082 0 01-.438.318c-.174.07-.33.11-.47.122a2.997 2.997 0 01-.72-.008 4.434 4.434 0 01-1.216-.33 3.171 3.171 0 01-.464-.243l-.428.98c.087.08.225.16.412.24a6.322 6.322 0 001.302.378c.228.04.425.06.592.06zm-9.48.005c.286 0 .55-.02.796-.057.245-.039.467-.105.665-.199.198-.094.373-.219.525-.375.15-.157.279-.353.383-.59.104-.24.157-.518.157-.835 0-.055-.002-.111-.006-.167a5.826 5.826 0 00-.271-1.335 6.775 6.775 0 00-.167-.483 10.546 10.546 0 00-.287-.673 1.284 1.284 0 01-.047-.107l-.929.46.454 1.116a3.393 3.393 0 01.235.89c.007.092.01.16.01.205 0 .084-.005.162-.015.235a1.012 1.012 0 01-.078.277.934.934 0 01-.261.341 1.096 1.096 0 01-.365.186c-.14.041-.294.067-.465.075-.17.009-.356.013-.558.013h-.605V23h.83zm.856 2.718l.85-.85-.855-.856-.85.85.855.856zM31.267 23c.327 0 .611-.013.853-.04.242-.025.453-.065.634-.12a1.948 1.948 0 00.835-.487c.15.191.34.347.574.467.233.12.525.18.876.18h.104v-1.023h-.104a.737.737 0 01-.436-.12.856.856 0 01-.266-.302 1.429 1.429 0 01-.138-.397 3.685 3.685 0 01-.057-.407 16.002 16.002 0 00-.094-.902 4.9 4.9 0 00-.151-.71l-.981.277c.076.264.13.499.159.704.03.205.044.407.044.605 0 .209-.035.392-.104.548a.942.942 0 01-.326.391c-.148.105-.34.183-.574.235a3.964 3.964 0 01-.848.078h-.777V23h.777zm.193 2.551l.845-.845-.855-.856-.846.85.856.851zm2.14.01l.844-.85-.855-.85-.846.845.856.856zm-7.446-9.015l.772-.772-.777-.777-.772.772.777.777zm-1.18 1.649l.846-.85-.856-.856-.845.85.856.856zm2.291.005l.845-.845-.855-.856-.845.845.855.856zm-3.146 4.816c.17 0 .333-.026.488-.076.155-.05.3-.122.438-.214s.265-.2.381-.323a2.77 2.77 0 00.316-.405c.128.31.323.554.584.733.261.18.565.269.913.269.178 0 .344-.026.501-.078a1.68 1.68 0 00.793-.559c.104-.132.191-.28.26-.443.091.167.2.317.33.449.128.132.27.245.425.339.155.094.319.166.493.216.174.05.351.076.532.076h.125v-1.023h-.125c-.25 0-.477-.105-.68-.315-.204-.21-.376-.53-.515-.958a4.11 4.11 0 01-.122-.443 6.995 6.995 0 01-.12-.76 25.94 25.94 0 01-.034-.346l-1.023.083c.007.125.013.256.018.392a9.285 9.285 0 01.003.647 5.827 5.827 0 01-.052.602c-.028.2-.074.381-.138.543-.065.161-.15.292-.259.391a.585.585 0 01-.412.149.581.581 0 01-.412-.141.825.825 0 01-.222-.365 1.602 1.602 0 01-.078-.407 3.986 3.986 0 01.013-.673c.014-.192.035-.374.063-.548.027-.174.05-.322.067-.444l-1.017-.193c-.017.16-.043.34-.076.54a6.157 6.157 0 01-.33 1.213 2.43 2.43 0 01-.277.527 1.423 1.423 0 01-.373.37c-.141.095-.3.142-.478.142a.386.386 0 01-.326-.146.719.719 0 01-.14-.337 2.405 2.405 0 01-.024-.556c.01-.187.03-.373.06-.555a10.923 10.923 0 01.174-.874l-1.001-.277c-.021.084-.044.183-.068.298-.024.114-.057.24-.097.378-.04.137-.087.283-.143.438a4.344 4.344 0 01-.204.472 3.531 3.531 0 01-.266.42c-.1.138-.211.261-.331.37-.12.11-.249.198-.386.264a.97.97 0 01-.425.1h-.11V23h.11a1.934 1.934 0 001.028-.284c.146-.089.28-.196.401-.321.122-.125.237-.265.345-.418a1.427 1.427 0 001.403 1.039zm-6.365-4.957l.845-.845-.856-.856-.845.85.856.851zm2.139.01l.845-.85-.855-.85-.846.845.856.856zM17.164 23c.327 0 .612-.013.853-.04.242-.025.453-.065.634-.12a1.948 1.948 0 00.835-.487c.15.191.341.347.574.467.233.12.525.18.877.18h.104v-1.023h-.104a.737.737 0 01-.436-.12.856.856 0 01-.266-.302 1.429 1.429 0 01-.138-.397 3.685 3.685 0 01-.058-.407 16.002 16.002 0 00-.094-.902 4.9 4.9 0 00-.151-.71l-.981.277c.077.264.13.499.16.704.029.205.044.407.044.605 0 .209-.035.392-.105.548a.942.942 0 01-.326.391c-.148.105-.339.183-.574.235a3.964 3.964 0 01-.848.078h-.777V23h.777zm-5.118 3.85c.438-.219.864-.476 1.278-.772a6.813 6.813 0 001.104-.978c.322-.357.58-.742.775-1.156.194-.414.292-.848.292-1.304v-.02c.087.093.178.166.274.218a1.265 1.265 0 00.534.157c.077.003.14.005.188.005h.089v-1.023h-.083a.937.937 0 01-.478-.125 1.41 1.41 0 01-.415-.394c-.132-.179-.26-.41-.386-.694a11.278 11.278 0 01-.386-1.03l-.98.303c.041.128.091.29.15.482.06.193.119.4.178.618.06.22.114.443.164.67.05.229.088.442.113.64a1.947 1.947 0 01-.057.704 2.707 2.707 0 01-.285.673 3.5 3.5 0 01-.467.619 6.03 6.03 0 01-.605.56c-.22.178-.453.344-.7.499-.246.155-.495.296-.746.425l.45.923z"/></g></g></svg>