<svg xmlns="http://www.w3.org/2000/svg" xmlns:xlink="http://www.w3.org/1999/xlink" width="860" height="228"><defs><rect id="a" width="860" height="228" x="0" y="0" rx="4"/></defs><g fill="none" fill-rule="evenodd"><mask id="b" fill="#fff"><use xlink:href="#a"/></mask><use fill="#000" fill-opacity="0" xlink:href="#a"/><g mask="url(#b)"><g transform="translate(37 60)"><rect width="738" height="65" x="49" y="23" fill="#000000" fill-opacity=".04" rx="4"/><path fill="#EA475B" fill-opacity=".08" d="M49 50h738v17H49zM49 38h738v6H49z"/><path fill="#000000" fill-opacity=".87" fill-rule="nonzero" d="M750.672 67.25c.26-3.079.413-5.982.46-8.71.046-2.726.069-4.906.069-6.538 0-2.709-.028-5.603-.084-8.682-.148-5.973-.621-12.726-1.419-20.257l-5.454.834c.631 5.844 1.132 13.264 1.503 22.261.056 1.54.083 3.172.083 4.898 0 1.428-.018 2.921-.055 4.48-.093 3.45-.288 7.253-.585 11.408l5.482.306zM695.653 67c1.057 0 2.17-.046 3.34-.14a55.357 55.357 0 004.145-.444c1.41-.204 2.815-.46 4.216-.766 1.4-.306 2.74-.649 4.02-1.03 1.28-.38 2.477-.801 3.59-1.265 1.113-.464 2.087-.956 2.922-1.475.872-.557 1.544-1.108 2.017-1.656.474-.547.789-1.09.947-1.627a5.532 5.532 0 00.208-2.17 19.815 19.815 0 00-.445-2.533 26.017 26.017 0 00-1.377-4.216 51.573 51.573 0 00-1.74-3.728 40.23 40.23 0 00-1.516-2.7 35.252 35.252 0 01-.71-1.154l-4.619 3.005c.019.018.153.218.404.598.25.38.556.881.918 1.503.362.621.756 1.335 1.183 2.142.426.807.83 1.656 1.21 2.546.38.89.714 1.795 1.002 2.713.287.919.468 1.795.542 2.63a25.327 25.327 0 01-5.05 2.129 45.392 45.392 0 01-5.468 1.294 53.462 53.462 0 01-5.398.654c-1.762.12-3.376.18-4.842.18-5.194-.018-9.414-.514-12.66-1.488-3.247-.974-5.325-2.37-6.234-4.188-.37-.742-.556-1.568-.556-2.477 0-1.02.222-2.142.668-3.367a10.745 10.745 0 01.834-1.906 22.087 22.087 0 01.974-1.6l-4.424-3.283-.02.03-.064.095-.222.334c-.167.25-.371.58-.612.988-.242.408-.497.89-.766 1.447a25.315 25.315 0 00-.793 1.836c-.723 1.911-1.085 3.748-1.085 5.51 0 1.762.39 3.395 1.169 4.897 1.373 2.764 3.97 4.888 7.791 6.372 4.026 1.484 9.359 2.254 16 2.31h.501zm-.612 14.497l4.536-4.535-4.564-4.564-4.536 4.536 4.564 4.563zm-66.86 7.513c3.525 0 6.827-.519 9.906-1.558 3.08-1.039 6.001-2.513 8.765-4.424l-3.172-4.48c-2.3 1.632-4.62 2.838-6.957 3.617-2.337.78-4.832 1.169-7.485 1.169-2.096 0-4.113-.25-6.052-.751-1.938-.501-3.654-1.266-5.148-2.296-1.493-1.03-2.671-2.31-3.534-3.84-.862-1.53-1.294-3.307-1.294-5.329v-.25c.13-1.633.678-3.158 1.642-4.578.965-1.419 2.222-2.713 3.77-3.881 1.55-1.169 3.321-2.208 5.315-3.117a43.292 43.292 0 016.261-2.282 47.477 47.477 0 016.442-1.35c2.115-.287 4.081-.43 5.9-.43h.695l1.405.055c.454.019 1.062.028 1.823.028.167-.612.324-1.178.473-1.697.148-.52.296-1.035.445-1.545a121.721 121.721 0 00.918-3.297 23.498 23.498 0 01-3.06-.877 31.954 31.954 0 01-3.131-1.335 44.265 44.265 0 01-3.45-1.892 121.578 121.578 0 01-4.021-2.547c-1.967-1.28-3.966-2.295-5.997-3.046a19.048 19.048 0 00-6.33-1.183c-1.54.111-2.955.385-4.244.82a14.617 14.617 0 00-3.52 1.726 15.616 15.616 0 00-2.866 2.49 19.834 19.834 0 00-2.282 3.09c.39.259.765.505 1.127.737.362.231.72.463 1.072.695.352.232.714.469 1.085.71.37.24.779.5 1.224.779a13.27 13.27 0 011.628-2.018 14.702 14.702 0 012.087-1.78 11.698 11.698 0 012.323-1.28c.798-.325 1.577-.487 2.338-.487.964.018 1.827.13 2.588.334.76.204 1.488.468 2.184.793.696.324 1.391.686 2.087 1.085.696.399 1.46.811 2.296 1.238.463.241.955.515 1.474.821.52.306 1.053.617 1.6.932.548.315 1.104.626 1.67.932.566.306 1.145.59 1.739.849-2.597.019-5.148.25-7.652.696a39.058 39.058 0 00-7.11 1.947 32.548 32.548 0 00-6.191 3.13c-1.892 1.235-3.525 2.63-4.897 4.189a18.103 18.103 0 00-3.214 5.175c-.77 1.893-1.155 3.915-1.155 6.066 0 2.765.533 5.232 1.6 7.402a15.987 15.987 0 004.369 5.482c1.845 1.484 4.011 2.616 6.497 3.395 2.486.779 5.157 1.168 8.014 1.168zm2.42-15.248l4.536-4.536-4.563-4.563-4.536 4.535 4.564 4.564zm-58.116-6.79c1.113 0 2.23-.083 3.353-.25a17.09 17.09 0 003.242-.807 13.9 13.9 0 002.908-1.433c.9-.585 1.683-1.285 2.351-2.101.297-.353.575-.77.835-1.252a6.74 6.74 0 00.612-1.698c.148-.649.227-1.391.237-2.226.009-.835-.098-1.771-.32-2.81-.279-1.169-.7-2.38-1.266-3.632a29.44 29.44 0 00-2.032-3.728 36.842 36.842 0 00-2.615-3.59 35.948 35.948 0 00-3.02-3.242 31.831 31.831 0 00-3.241-2.699 19.519 19.519 0 00-3.298-1.947l-2.254 5.064c.835.37 1.689.872 2.56 1.502.872.631 1.73 1.355 2.574 2.17a33.062 33.062 0 012.435 2.63c.78.937 1.489 1.902 2.129 2.894.64.993 1.187 1.985 1.642 2.978.454.992.783 1.943.987 2.852.149.668.223 1.243.223 1.725 0 .668-.14 1.169-.417 1.503a5.773 5.773 0 01-2.338 1.697c-.927.371-1.762.59-2.504.654-.742.065-1.327.097-1.753.097-.687 0-1.382-.046-2.087-.139a24.148 24.148 0 01-6.483-1.767c-.965-.417-1.79-.848-2.477-1.294l-2.282 5.232c.464.426 1.197.853 2.198 1.28 1.002.426 2.106.816 3.312 1.168 1.205.353 2.416.636 3.631.85 1.215.213 2.268.32 3.158.32zM519.04 85.254c.965 0 1.966-.074 3.005-.223a19.273 19.273 0 004.258-1.127 18.85 18.85 0 004.048-2.184 14.967 14.967 0 003.423-3.38c.992-1.346 1.785-2.923 2.379-4.731.594-1.809.89-3.882.89-6.22 0-1.465-.023-3.204-.07-5.217-.045-2.013-.101-4.164-.166-6.455a722.291 722.291 0 00-.237-7.082c-.092-2.43-.185-4.805-.278-7.124-.093-2.727-.2-5.505-.32-8.334-.12-2.829-.255-5.736-.403-8.723l-5.454.223c.148 2.968.283 5.857.403 8.667.12 2.81.228 5.57.32 8.279.093 2.3.186 4.66.279 7.081.092 2.421.171 4.773.236 7.054.065 2.282.12 4.425.167 6.428.046 2.004.07 3.738.07 5.204 0 1.576-.21 2.982-.627 4.215-.417 1.234-.973 2.32-1.67 3.256a10.836 10.836 0 01-2.406 2.379 13.07 13.07 0 01-2.866 1.558c-1.002.39-1.953.654-2.852.793-.9.14-1.712.209-2.435.209a9.08 9.08 0 01-.696-.028c-.649-.037-1.35-.153-2.1-.348a12.707 12.707 0 01-2.268-.834c-.761-.362-1.498-.821-2.213-1.378a9.58 9.58 0 01-1.892-1.975 9.551 9.551 0 01-1.308-2.63c-.324-.993-.487-2.1-.487-3.325 0-1.967.153-3.669.46-5.106.306-1.438.644-2.658 1.015-3.66a13.38 13.38 0 01.682-1.6c.25-.491.505-.94.765-1.349l-4.98-2.226c-.631.909-1.188 2.04-1.67 3.395-.427 1.168-.816 2.615-1.169 4.34-.352 1.726-.538 3.794-.556 6.206v.222c0 1.763.222 3.358.667 4.786.446 1.503 1.067 2.839 1.865 4.007a13.92 13.92 0 002.768 3.02 16.827 16.827 0 003.326 2.1c1.168.557 2.36.984 3.575 1.28a18.711 18.711 0 004.522.557zm-64.873 2.087a3378.328 3378.328 0 01-.57-15.165l-.167-4.703c-.047-1.28-.084-2.342-.112-3.186-.028-.844-.05-1.503-.07-1.976-.018-.473-.027-.83-.027-1.071a4.004 4.004 0 01.028-.584l6.845 2.532c1.336.538 2.518 1.006 3.548 1.405 1.03.399 1.952.724 2.768.974.817.25 1.47.413 1.962.487.492.074.895.111 1.21.111.26 0 .501-.018.724-.055 1.169-.353 2.161-.947 2.977-1.781a9.853 9.853 0 001.962-2.908c.492-1.104.807-2.17.946-3.2.14-1.03.209-1.934.209-2.713 0-.501-.019-1.011-.056-1.53a15.48 15.48 0 00-.765-3.674c-.399-1.168-.932-2.189-1.6-3.06-.89-1.17-1.948-2.055-3.172-2.658-1.224-.603-2.588-.932-4.09-.988h-.307c-.89 0-1.716.149-2.476.445a9.89 9.89 0 00-2.435 1.42 11.959 11.959 0 00-2.059 2.1 22.494 22.494 0 00-1.697 2.547c-.51.89-.97 1.799-1.378 2.727-.408.927-.76 1.808-1.057 2.643-.668-.186-1.164-.283-1.489-.292a28.31 28.31 0 00-.654-.014c-.426 0-.816.028-1.168.083-.446.093-.84.228-1.183.404a5.743 5.743 0 00-.877.542c-.593.446-1.048.956-1.363 1.53a6.95 6.95 0 00-.668 1.643c-.13.52-.2.983-.209 1.391-.009.408-.014.668-.014.78l1.03 25.794h5.454zm15.805-26.518c-.13-.019-.487-.102-1.071-.25a19.625 19.625 0 01-1.934-.613c-.705-.26-1.46-.543-2.268-.849a56.581 56.581 0 01-2.49-1.015l-1.753-.724c.204-.52.431-1.09.681-1.711.25-.622.543-1.238.877-1.85.779-1.503 1.558-2.667 2.337-3.493.78-.825 1.484-1.238 2.115-1.238h.056c.204 0 .487.028.848.083.362.056.747.214 1.155.474.408.26.812.653 1.21 1.182.4.529.738 1.266 1.016 2.212a6.98 6.98 0 01.306 1.517c.037.473.056.83.056 1.071 0 .482-.028.965-.083 1.447-.075.742-.2 1.442-.376 2.101s-.404 1.21-.682 1.656zm-64.155-7.263l4.536-4.536-4.563-4.563-4.536 4.536 4.563 4.563zm-1.224 32.557c2.282 0 4.448-.242 6.497-.724 2.05-.482 3.92-1.22 5.607-2.212a16.92 16.92 0 004.439-3.77c1.27-1.522 2.258-3.33 2.963-5.427.668-2.003 1.03-3.603 1.085-4.8.056-1.196.084-1.998.084-2.407 0-1.52-.111-2.996-.334-4.424-.297-1.8-.71-3.474-1.238-5.023-.529-1.549-1.058-2.903-1.586-4.062-.53-1.16-.998-2.087-1.406-2.783l-.695-1.182-4.62 2.95c.02 0 .19.273.515.82.325.547.7 1.299 1.127 2.254.427.955.858 2.078 1.294 3.367a26.46 26.46 0 011.016 4.076c.241 1.429.362 2.894.362 4.397v.334a17.332 17.332 0 01-.807 4.814 10.759 10.759 0 01-1.837 3.492c-.816 1.03-1.827 1.901-3.033 2.616-1.206.714-2.606 1.256-4.202 1.627-1.595.371-3.376.557-5.342.557-1.577 0-2.982-.172-4.216-.515s-2.31-.788-3.228-1.335c-.918-.548-1.702-1.165-2.351-1.85a12.115 12.115 0 01-1.614-2.102 10.14 10.14 0 01-.96-2.059 10.975 10.975 0 01-.431-1.739 16.321 16.321 0 01-.14-3.284c.056-1.113.181-2.207.376-3.283s.44-2.11.738-3.103c.296-.992.607-1.906.932-2.74.324-.835.644-1.563.96-2.185.315-.621.593-1.099.835-1.433l-4.425-3.256a39.549 39.549 0 00-2.184 4.216 33.755 33.755 0 00-1.753 4.911c-.473 1.726-.765 3.224-.877 4.494-.111 1.271-.167 2.259-.167 2.964 0 1.15.084 2.31.25 3.478.372 2.43 1.09 4.545 2.157 6.344 1.067 1.8 2.407 3.289 4.021 4.467 1.614 1.177 3.455 2.059 5.524 2.643 2.068.584 4.29.877 6.664.877zM353.969 66.71c1.52 0 2.935-.102 4.243-.306 1.308-.204 2.49-.556 3.548-1.057a9.532 9.532 0 002.797-2.004c.806-.834 1.488-1.883 2.045-3.144.556-1.28.835-2.764.835-4.452 0-.297-.01-.594-.028-.89-.13-2.06-.612-4.434-1.447-7.124a36.132 36.132 0 00-.89-2.574 56.248 56.248 0 00-.877-2.129c-.27-.612-.487-1.099-.654-1.46-.167-.362-.25-.552-.25-.571l-4.954 2.449 2.421 5.954c.39.947.687 1.85.89 2.714.205.862.325 1.54.362 2.03.038.492.056.859.056 1.1 0 .445-.028.863-.083 1.252-.093.594-.232 1.085-.418 1.475-.37.779-.835 1.387-1.391 1.823a5.847 5.847 0 01-1.948.987c-.742.223-1.567.357-2.476.404-.91.046-1.902.07-2.978.07h-3.228v5.453h4.425zm4.563 14.498l4.536-4.536-4.564-4.563-4.535 4.535 4.563 4.564zm-32.139 6.038a50.847 50.847 0 006.817-4.118 36.334 36.334 0 005.886-5.218c1.716-1.901 3.093-3.956 4.132-6.163a16.145 16.145 0 001.558-6.957v-.111c.464.5.95.89 1.461 1.169a6.744 6.744 0 002.852.834c.408.019.742.028 1.002.028h.473v-5.454h-.445a4.995 4.995 0 01-2.546-.667c-.77-.446-1.508-1.146-2.213-2.101-.704-.956-1.39-2.19-2.059-3.701-.668-1.512-1.354-3.344-2.059-5.496l-5.231 1.614c.222.686.491 1.544.807 2.574.315 1.03.63 2.129.946 3.297.315 1.17.607 2.361.876 3.576.27 1.215.469 2.351.599 3.409.037.315.055.658.055 1.03 0 .927-.12 1.836-.361 2.726a14.435 14.435 0 01-1.517 3.59 18.667 18.667 0 01-2.49 3.297 32.162 32.162 0 01-3.228 2.992 37.945 37.945 0 01-3.729 2.657A53.78 53.78 0 01324 82.322l2.393 4.925zM281.053 67c1.41 0 2.926-.065 4.55-.195a26.382 26.382 0 004.98-.904c1.698-.473 3.405-1.169 5.12-2.087 1.716-.918 3.372-2.157 4.967-3.715a14.14 14.14 0 001.559-1.892 14.35 14.35 0 001.363-2.435c.39-.881.673-1.753.849-2.615.176-.863.264-1.665.264-2.407 0-.26-.01-.53-.028-.807-.055-1.559-.487-2.94-1.294-4.146a10.187 10.187 0 00-3.06-2.978c-1.234-.779-2.426-1.28-3.576-1.502-1.15-.223-2.115-.334-2.894-.334-.723 0-1.438.065-2.143.194-2.04.371-4.127 1.146-6.26 2.324-2.134 1.178-4.323 2.833-6.567 4.967-.037-1.169-.065-2.11-.084-2.825-.018-.714-.032-1.303-.042-1.766a36.22 36.22 0 00-.041-1.21c-.019-.344-.037-.729-.056-1.156-.019-.426-.051-.95-.097-1.572-.047-.621-.107-1.451-.181-2.49a85.926 85.926 0 00-.237-2.7 854.33 854.33 0 01-.306-3.06c-.102-1.04-.209-2.06-.32-3.061a347.296 347.296 0 00-.345-2.996l-.07-.595-.114-.973-.083-.723-5.454 1.002c0 .018.051.385.153 1.099.102.714.227 1.697.376 2.95.148 1.251.306 2.736.473 4.451.167 1.716.324 3.576.473 5.58.13 1.836.227 3.445.292 4.827.065 1.382.093 2.69.083 3.924a46.553 46.553 0 01-.18 3.743 86.135 86.135 0 01-.501 4.285c-1.67 2.17-2.894 3.821-3.673 4.953a60.014 60.014 0 01-3.534-1.016 64.32 64.32 0 01-3.645-1.294l-2.004 5.148a84.784 84.784 0 004.675 1.628c1.558.491 3.195.913 4.911 1.266 1.716.352 3.53.626 5.44.82 1.91.196 3.998.293 6.261.293zm.167-5.537h-.529c-1.057 0-2.04-.019-2.95-.056h-.055a42.918 42.918 0 00-1.336-.084 16.302 16.302 0 01-1.28-.11l4.202-5.316c2.505-2.782 4.87-4.948 7.096-6.497 2.226-1.549 4.285-2.472 6.177-2.769.39-.037.78-.055 1.169-.055.297 0 .603.009.918.027.724.075 1.4.25 2.031.53.631.277 1.178.667 1.642 1.168.464.5.77 1.15.918 1.948.038.222.056.454.056.695 0 .279-.028.566-.083.863a7.9 7.9 0 01-.515 1.628 8.564 8.564 0 01-.849 1.502 9.466 9.466 0 01-1.03 1.239 14.395 14.395 0 01-2.852 2.267c-1.03.622-2.1 1.132-3.213 1.53a21.876 21.876 0 01-3.395.92 32.28 32.28 0 01-3.27.444c-1.03.084-1.98.126-2.852.126zm-67.766 25.099c3.06 0 5.876-.265 8.445-.793 2.57-.529 4.884-1.322 6.943-2.38 2.17-1.075 3.9-2.37 5.19-3.881 1.289-1.512 2.1-3.186 2.434-5.023.13-.723.195-1.382.195-1.975 0-.613-.065-1.16-.195-1.642-.26-.965-.677-1.772-1.252-2.421a6.568 6.568 0 00-2.115-1.572 17.096 17.096 0 00-2.657-1.002 42.288 42.288 0 00-2.839-.71 23.377 23.377 0 01-2.657-.723c-.816-.278-1.526-.626-2.129-1.043a3.31 3.31 0 01-1.266-1.628 4.844 4.844 0 01-.278-1.642c0-.297.028-.603.084-.918a9.02 9.02 0 01.848-2.7c.436-.89.993-1.748 1.67-2.573a15.387 15.387 0 012.198-2.199 13.32 13.32 0 012.435-1.586c.835-.417 1.642-.663 2.42-.737.669-.13 1.318-.195 1.949-.195h.417c.742.056 1.4.144 1.976.264.575.121 1.038.246 1.39.376l.502.223 2.42-5.092c-.055-.019-.356-.14-.904-.362-.547-.223-1.266-.436-2.156-.64a15.36 15.36 0 00-2.393-.376 26.548 26.548 0 00-1.447-.07c-.946 0-1.92.103-2.922.307a16.566 16.566 0 00-4.146 1.502 18.13 18.13 0 00-3.631 2.49 18.677 18.677 0 00-2.936 3.284 17.741 17.741 0 00-2.06 3.854c-.519 1.354-.83 2.528-.931 3.52-.102.993-.153 1.758-.153 2.296 0 .927.092 1.864.278 2.81.278 1.392.84 2.514 1.683 3.367a10.385 10.385 0 002.922 2.073c1.104.529 2.259.942 3.464 1.238 1.206.297 2.31.58 3.312.85 1.001.268 1.804.565 2.407.89.603.324.904.756.904 1.294v.139c-.093.946-.556 1.86-1.391 2.74-.835.882-2 1.67-3.492 2.366-1.494.695-3.298 1.252-5.413 1.67-2.114.417-4.489.625-7.123.625-2.69 0-5.018-.334-6.984-1.001-1.967-.668-3.534-1.67-4.703-3.006a8.285 8.285 0 01-1.433-2.212 11.141 11.141 0 01-.737-2.337 11.691 11.691 0 01-.223-2.212v-.223c0-.779.046-1.503.139-2.17.353-2.727.89-5.37 1.614-7.93.723-2.56 1.503-5.149 2.337-7.764l-5.314-1.865c-.038.075-.144.371-.32.89-.177.52-.4 1.207-.668 2.06a160.79 160.79 0 00-.89 2.936 88.229 88.229 0 00-.947 3.492 83.676 83.676 0 00-.848 3.77 49.744 49.744 0 00-.613 3.743 23.58 23.58 0 00-.167 2.755c0 1.706.204 3.302.613 4.786.612 2.3 1.678 4.322 3.2 6.066 1.743 1.948 3.956 3.422 6.636 4.424 2.68 1.002 5.783 1.503 9.308 1.503z"/><rect width="46" height="65" x="605" y="23" stroke="#000000" stroke-opacity=".16" stroke-width=".5" rx="2"/><rect width="32" height="65" x="557" y="23" stroke="#000000" stroke-opacity=".16" stroke-width=".5" rx="2"/><rect width="42" height="65" x="499" y="23" stroke="#000000" stroke-opacity=".16" stroke-width=".5" rx="2"/><rect width="42" height="65" x="441" y="23" stroke="#000000" stroke-opacity=".16" stroke-width=".5" rx="2"/><rect width="39" height="65" x="386" y="23" stroke="#000000" stroke-opacity=".16" stroke-width=".5" rx="2"/><rect width="43" height="65" x="324" y="23" stroke="#000000" stroke-opacity=".16" stroke-width=".5" rx="2"/><rect width="51" height="65" x="257" y="23" stroke="#000000" stroke-opacity=".16" stroke-width=".5" rx="2"/><rect width="50" height="65" x="191" y="23" stroke="#000000" stroke-opacity=".16" stroke-width=".5" rx="2"/><rect width="57" height="65" x="667" y="23" stroke="#000000" stroke-opacity=".16" stroke-width=".5" rx="2"/><rect width="15" height="65" x="740" y="23" stroke="#000000" stroke-opacity=".16" stroke-width=".5" rx="2"/><path fill="#000000" fill-opacity=".56" fill-rule="nonzero" d="M142.517 66.75c.602 0 1.07-.146 1.401-.438.332-.292.498-.694.498-1.204 0-.331-.09-.618-.268-.859a1.319 1.319 0 00-.73-.49c.261-.114.468-.273.619-.477.15-.204.226-.438.226-.702 0-.501-.156-.88-.466-1.134-.311-.255-.776-.383-1.395-.383h-1.858v5.687h1.973zm-.09-3.263h-1.135V61.68h1.11c.373 0 .65.071.833.214.182.142.273.369.273.68 0 .283-.098.506-.294.67-.196.163-.459.244-.788.244zm.103 2.65h-1.238V64.09h1.252c.745 0 1.117.343 1.117 1.03 0 .317-.101.567-.303.748-.201.18-.477.27-.828.27zm4.185.69c.466 0 .867-.174 1.203-.522.026.213.06.362.101.445h.758v-.063c-.097-.23-.146-.538-.146-.925v-1.944c-.011-.43-.155-.765-.431-1.009-.276-.243-.657-.365-1.144-.365-.306 0-.588.057-.846.172-.257.115-.46.27-.61.468-.15.197-.224.401-.224.612h.727c0-.185.087-.343.26-.473.174-.13.391-.195.65-.195.295 0 .518.075.669.225.15.15.226.35.226.603v.33h-.703c-.607 0-1.079.122-1.414.366-.335.243-.502.585-.502 1.026 0 .362.134.66.401.895.268.236.61.354 1.025.354zm.108-.627c-.24 0-.434-.063-.585-.19-.15-.128-.226-.306-.226-.533 0-.52.443-.78 1.329-.78h.567v.87c-.09.188-.238.34-.442.458a1.274 1.274 0 01-.643.175zm4.494.627c.482 0 .874-.114 1.177-.341a1.08 1.08 0 00.454-.908.99.99 0 00-.164-.578 1.283 1.283 0 00-.499-.403 3.95 3.95 0 00-.876-.289c-.36-.08-.61-.166-.748-.254a.436.436 0 01-.207-.393c0-.185.074-.335.223-.45.148-.115.353-.172.615-.172a.94.94 0 01.637.215c.167.144.25.315.25.512h.727c0-.385-.149-.702-.447-.95-.298-.248-.687-.372-1.167-.372-.454 0-.828.12-1.122.36-.293.24-.44.533-.44.878a.94.94 0 00.155.541c.103.152.262.282.477.391.214.11.505.203.871.28.366.078.623.17.77.279.148.107.221.26.221.457a.51.51 0 01-.248.442c-.166.111-.386.167-.66.167-.296 0-.535-.072-.716-.214a.754.754 0 01-.292-.576h-.72c0 .25.073.483.22.698.148.214.351.381.611.5.26.12.559.18.898.18zm4.323 0c.71 0 1.242-.272 1.597-.814l-.442-.345c-.135.172-.29.31-.466.414a1.25 1.25 0 01-.647.157c-.36 0-.656-.128-.889-.385-.233-.256-.355-.593-.367-1.01h2.863v-.303c0-.672-.152-1.19-.456-1.553-.304-.363-.73-.544-1.28-.544-.336 0-.648.093-.936.28a1.89 1.89 0 00-.673.774c-.16.33-.241.704-.241 1.123v.132c0 .631.18 1.134.539 1.51.36.376.825.564 1.398.564zm.929-2.578h-2.119c.047-.382.17-.68.367-.892a.967.967 0 01.736-.318c.301 0 .54.1.718.302.178.202.277.487.298.856v.052zm2.344 2.501v-6h-.723v6h.723zm1.586-4.94c.14 0 .245-.038.318-.116a.412.412 0 00.11-.294.426.426 0 00-.11-.295c-.073-.081-.179-.122-.318-.122-.141 0-.248.04-.32.122a.435.435 0 00-.108.299c0 .116.036.213.108.29.072.078.179.117.32.117zm.355 4.94v-4.226h-.724v4.226h.724zm1.878 0v-3.012c.1-.202.238-.365.414-.49.176-.126.382-.188.616-.188.29 0 .503.073.64.219.137.146.206.37.208.674v2.797h.724v-2.793c-.007-1.009-.458-1.513-1.353-1.513-.52 0-.942.204-1.266.612l-.021-.532h-.685v4.226h.723zm5.444.077c.71 0 1.241-.272 1.596-.814l-.442-.345c-.134.172-.29.31-.466.414a1.25 1.25 0 01-.647.157c-.359 0-.655-.128-.888-.385-.233-.256-.356-.593-.367-1.01h2.862v-.303c0-.672-.152-1.19-.455-1.553-.304-.363-.73-.544-1.28-.544-.337 0-.648.093-.936.28a1.89 1.89 0 00-.673.774c-.161.33-.242.704-.242 1.123v.132c0 .631.18 1.134.54 1.51.359.376.825.564 1.398.564zm.928-2.578h-2.118c.046-.382.169-.68.367-.892a.967.967 0 01.736-.318c.301 0 .54.1.718.302.177.202.276.487.297.856v.052z"/><g fill="#000000" fill-opacity=".56"><path d="M101 66h.5v21.5h1.75v.5h-4v-.5H101V66zm.5-42.5V45h-.5V23.5h.5zm1.75-.5v.5h-4V23h4z"/><path fill-rule="nonzero" d="M84.463 58v-2.226h1.342c.643 0 1.136-.15 1.482-.447.345-.298.518-.723.518-1.275 0-.524-.177-.945-.53-1.262-.354-.318-.841-.477-1.463-.477h-2.097V58h.748zm1.35-2.838h-1.35v-2.233h1.39c.374.009.668.115.88.318.214.203.32.474.32.812 0 .357-.106.63-.32.82-.212.188-.52.283-.92.283zm4.57 2.915c.38 0 .717-.091 1.01-.274a1.78 1.78 0 00.675-.763 2.53 2.53 0 00.235-1.106v-.052c0-.661-.178-1.191-.533-1.59-.354-.399-.82-.598-1.394-.598-.374 0-.705.09-.995.27-.29.18-.517.435-.68.766a2.491 2.491 0 00-.245 1.117v.052c0 .656.178 1.183.534 1.581.356.398.82.597 1.393.597zm0-.588c-.364 0-.655-.142-.873-.426-.218-.284-.327-.66-.327-1.13 0-.528.11-.934.328-1.218a1.04 1.04 0 01.865-.426c.364 0 .656.143.876.431.22.288.33.663.33 1.127 0 .52-.108.923-.325 1.21a1.04 1.04 0 01-.874.432zm3.259-4.428c.139 0 .245-.039.318-.117a.412.412 0 00.11-.294.426.426 0 00-.11-.295c-.073-.081-.18-.122-.318-.122-.142 0-.248.04-.32.122a.435.435 0 00-.108.299c0 .116.036.213.108.29.072.078.178.117.32.117zM93.997 58v-4.226h-.724V58h.724zm1.878 0v-3.012c.1-.202.237-.365.414-.49.176-.126.381-.188.615-.188.29 0 .504.073.64.219.137.146.207.37.209.674V58h.724v-2.793c-.007-1.009-.458-1.513-1.354-1.513-.519 0-.941.204-1.266.612l-.02-.532h-.686V58h.724zm4.925.077c.18 0 .366-.026.557-.077v-.584c-.147.03-.261.045-.345.045-.17 0-.29-.042-.36-.127-.07-.085-.106-.212-.106-.381V54.33h.79v-.556h-.79V52.75h-.723v1.023h-.77v.556h.77v2.623c0 .36.082.637.247.831.164.195.408.293.73.293zm5.718 0c.6 0 1.08-.139 1.44-.416.36-.277.54-.647.54-1.108 0-.287-.065-.538-.194-.751a1.695 1.695 0 00-.593-.562c-.266-.161-.636-.308-1.11-.44-.472-.132-.807-.278-1.004-.438a.731.731 0 01-.296-.588c0-.29.104-.516.311-.678.208-.163.496-.244.865-.244.398 0 .707.098.926.294.22.196.33.467.33.812h.754c0-.315-.084-.606-.252-.871a1.729 1.729 0 00-.712-.626 2.325 2.325 0 00-1.046-.228c-.573 0-1.038.147-1.395.44a1.378 1.378 0 00-.536 1.111c0 .397.146.73.438.999.293.269.76.496 1.406.681.512.149.866.3 1.06.453.195.153.293.368.293.646a.785.785 0 01-.317.66c-.21.16-.514.241-.908.241-.424 0-.763-.1-1.017-.299-.254-.2-.381-.47-.381-.814h-.755c0 .332.092.628.275.887.183.26.444.465.783.614.338.15.703.225 1.095.225zm3.26-5.016c.139 0 .245-.039.318-.117a.412.412 0 00.11-.294.426.426 0 00-.11-.295c-.073-.081-.18-.122-.319-.122-.141 0-.248.04-.32.122a.435.435 0 00-.107.299c0 .116.036.213.107.29.072.078.179.117.32.117zm.354 4.939v-4.226h-.723V58h.723zm4.31 0v-.591h-2.473l2.354-3.124v-.511h-3.203v.598h2.296l-2.33 3.096V58h3.356zm2.563.077c.71 0 1.242-.272 1.597-.814l-.442-.345c-.134.172-.29.31-.466.414a1.25 1.25 0 01-.647.157c-.36 0-.656-.128-.889-.385-.233-.256-.355-.593-.367-1.01h2.863v-.303c0-.672-.152-1.19-.456-1.553-.304-.363-.73-.544-1.28-.544-.336 0-.648.093-.935.28a1.89 1.89 0 00-.673.774c-.162.33-.242.704-.242 1.123v.132c0 .631.18 1.134.539 1.51.36.376.825.564 1.398.564zm.929-2.578h-2.118c.046-.382.168-.68.367-.892a.967.967 0 01.735-.318c.302 0 .541.1.719.302.177.202.276.487.297.856v.052z"/></g><g fill="#000000" fill-opacity=".56"><path d="M17 66h.5v21.5h1.75v.5h-4v-.5H17V66zm.5-42.5V45H17V23.5h.5zm1.75-.5v.5h-4V23h4z"/><path fill-rule="nonzero" d="M1.746 58v-2.511h2.39v-.612h-2.39v-1.948h2.776v-.616H.998V58h.748zm5.294.077c.38 0 .717-.091 1.01-.274a1.78 1.78 0 00.675-.763 2.53 2.53 0 00.235-1.106v-.052c0-.661-.177-1.191-.532-1.59-.355-.399-.82-.598-1.395-.598-.373 0-.705.09-.995.27-.29.18-.516.435-.68.766a2.491 2.491 0 00-.245 1.117v.052c0 .656.178 1.183.534 1.581.356.398.82.597 1.393.597zm0-.588c-.364 0-.655-.142-.873-.426-.218-.284-.327-.66-.327-1.13 0-.528.11-.934.329-1.218a1.04 1.04 0 01.864-.426c.364 0 .656.143.877.431.22.288.33.663.33 1.127 0 .52-.108.923-.325 1.21a1.04 1.04 0 01-.875.432zm3.551.511v-3.012c.1-.202.238-.365.414-.49.176-.126.382-.188.616-.188.29 0 .503.073.64.219.137.146.206.37.209.674V58h.723v-2.793c-.007-1.009-.458-1.513-1.353-1.513-.52 0-.941.204-1.266.612l-.021-.532h-.685V58h.723zm4.926.077c.18 0 .366-.026.556-.077v-.584c-.146.03-.26.045-.344.045-.17 0-.29-.042-.36-.127-.071-.085-.106-.212-.106-.381V54.33h.79v-.556h-.79V52.75h-.724v1.023h-.769v.556h.77v2.623c0 .36.081.637.246.831.165.195.408.293.73.293zm5.718 0c.6 0 1.08-.139 1.44-.416.36-.277.539-.647.539-1.108 0-.287-.064-.538-.193-.751a1.695 1.695 0 00-.593-.562c-.267-.161-.637-.308-1.11-.44-.473-.132-.808-.278-1.005-.438a.731.731 0 01-.296-.588c0-.29.104-.516.312-.678.207-.163.495-.244.864-.244.399 0 .708.098.927.294.22.196.329.467.329.812h.754c0-.315-.084-.606-.252-.871a1.729 1.729 0 00-.711-.626 2.325 2.325 0 00-1.047-.228c-.573 0-1.038.147-1.395.44a1.378 1.378 0 00-.535 1.111c0 .397.146.73.438.999.292.269.76.496 1.405.681.513.149.866.3 1.061.453.195.153.292.368.292.646a.785.785 0 01-.316.66c-.211.16-.514.241-.908.241-.425 0-.764-.1-1.018-.299-.254-.2-.38-.47-.38-.814h-.755c0 .332.091.628.275.887.183.26.444.465.782.614.339.15.704.225 1.096.225zm3.259-5.016c.139 0 .245-.039.318-.117a.412.412 0 00.11-.294.426.426 0 00-.11-.295c-.073-.081-.179-.122-.318-.122-.142 0-.248.04-.32.122a.435.435 0 00-.108.299c0 .116.036.213.108.29.072.078.178.117.32.117zM24.849 58v-4.226h-.724V58h.724zm4.31 0v-.591h-2.474l2.355-3.124v-.511h-3.203v.598h2.295l-2.33 3.096V58h3.356zm2.563.077c.71 0 1.241-.272 1.596-.814l-.441-.345c-.135.172-.29.31-.467.414a1.25 1.25 0 01-.647.157c-.359 0-.655-.128-.888-.385-.233-.256-.356-.593-.367-1.01h2.862v-.303c0-.672-.151-1.19-.455-1.553-.304-.363-.73-.544-1.28-.544-.336 0-.648.093-.936.28a1.89 1.89 0 00-.673.774c-.161.33-.242.704-.242 1.123v.132c0 .631.18 1.134.54 1.51.359.376.825.564 1.398.564zm.928-2.578h-2.118c.047-.382.169-.68.367-.892a.967.967 0 01.736-.318c.301 0 .54.1.718.302.177.202.277.487.297.856v.052z"/></g><path fill="#000000" fill-opacity=".24" d="M26.75 23a.25.25 0 110 .5h-3.5a.25.25 0 010-.5h3.5zm128 0a.25.25 0 010 .5h-3.5a.25.25 0 010-.5h3.5zm8 0a.25.25 0 010 .5h-3.5a.25.25 0 010-.5h3.5zm8 0a.25.25 0 010 .5h-3.5a.25.25 0 010-.5h3.5zm8 0a.25.25 0 010 .5h-3.5a.25.25 0 010-.5h3.5zm8 0a.25.25 0 010 .5h-3.5a.25.25 0 010-.5h3.5zm-152 0a.25.25 0 110 .5h-3.5a.25.25 0 110-.5h3.5zm8 0a.25.25 0 110 .5h-3.5a.25.25 0 110-.5h3.5zm8 0a.25.25 0 110 .5h-3.5a.25.25 0 110-.5h3.5zm8 0a.25.25 0 110 .5h-3.5a.25.25 0 110-.5h3.5zm32 0a.25.25 0 110 .5h-3.5a.25.25 0 110-.5h3.5zm32 0a.25.25 0 110 .5h-3.5a.25.25 0 110-.5h3.5zm8 0a.25.25 0 010 .5h-3.5a.25.25 0 010-.5h3.5zm8 0a.25.25 0 010 .5h-3.5a.25.25 0 010-.5h3.5zm8 0a.25.25 0 010 .5h-3.5a.25.25 0 010-.5h3.5zm-48 0a.25.25 0 110 .5h-3.5a.25.25 0 110-.5h3.5zm8 0a.25.25 0 110 .5h-3.5a.25.25 0 110-.5h3.5zm8 0a.25.25 0 110 .5h-3.5a.25.25 0 110-.5h3.5zm-48 0a.25.25 0 110 .5h-3.5a.25.25 0 110-.5h3.5zm8 0a.25.25 0 110 .5h-3.5a.25.25 0 110-.5h3.5zm8 0a.25.25 0 110 .5h-3.5a.25.25 0 110-.5h3.5zm-56 64.5a.25.25 0 110 .5h-3.5a.25.25 0 110-.5h3.5zm128 0a.25.25 0 010 .5h-3.5a.25.25 0 010-.5h3.5zm8 0a.25.25 0 010 .5h-3.5a.25.25 0 010-.5h3.5zm8 0a.25.25 0 010 .5h-3.5a.25.25 0 010-.5h3.5zm8 0a.25.25 0 010 .5h-3.5a.25.25 0 010-.5h3.5zm8 0a.25.25 0 010 .5h-3.5a.25.25 0 010-.5h3.5zm-152 0a.25.25 0 110 .5h-3.5a.25.25 0 110-.5h3.5zm8 0a.25.25 0 110 .5h-3.5a.25.25 0 110-.5h3.5zm8 0a.25.25 0 110 .5h-3.5a.25.25 0 110-.5h3.5zm8 0a.25.25 0 110 .5h-3.5a.25.25 0 110-.5h3.5zm32 0a.25.25 0 110 .5h-3.5a.25.25 0 110-.5h3.5zm32 0a.25.25 0 110 .5h-3.5a.25.25 0 110-.5h3.5zm8 0a.25.25 0 010 .5h-3.5a.25.25 0 010-.5h3.5zm8 0a.25.25 0 010 .5h-3.5a.25.25 0 010-.5h3.5zm8 0a.25.25 0 010 .5h-3.5a.25.25 0 010-.5h3.5zm-48 0a.25.25 0 110 .5h-3.5a.25.25 0 110-.5h3.5zm8 0a.25.25 0 110 .5h-3.5a.25.25 0 110-.5h3.5zm8 0a.25.25 0 110 .5h-3.5a.25.25 0 110-.5h3.5zm-48 0a.25.25 0 110 .5h-3.5a.25.25 0 110-.5h3.5zm8 0a.25.25 0 110 .5h-3.5a.25.25 0 110-.5h3.5zm8 0a.25.25 0 110 .5h-3.5a.25.25 0 110-.5h3.5z"/></g></g></g></svg>